<svg width="504" height="494" viewBox="0 0 504 494" fill="none" xmlns="http://www.w3.org/2000/svg">
<path fill-rule="evenodd" clip-rule="evenodd" d="M316.808 94.4017C315.898 94.4085 314.997 94.2313 314.157 93.8807C312.181 93.0667 310.638 91.3837 310.06 89.3167L302.734 63.4957C301.674 59.7747 303.843 55.9047 307.554 54.8437C311.265 53.7877 315.121 55.9477 316.182 59.6687L318.014 66.0267L339.752 13.0497C341.198 9.47372 345.295 7.76172 348.862 9.22772C352.429 10.6927 354.164 14.7847 352.67 18.3617L330.98 71.3337L336.716 68.0757C340.09 66.1667 344.332 67.3527 346.26 70.7117C348.14 74.0757 346.983 78.3467 343.609 80.2557L320.28 93.4967C319.171 94.0997 318.015 94.4027 316.809 94.4027L316.808 94.4017ZM186.281 94.5077C185.124 94.5077 183.919 94.2087 182.907 93.6207L159.433 80.5437C156.059 78.6637 154.854 74.3977 156.734 71.0237C157.178 70.221 157.777 69.5139 158.495 68.9432C159.214 68.3724 160.038 67.9493 160.92 67.698C161.803 67.4467 162.726 67.3723 163.637 67.479C164.548 67.5857 165.43 67.8714 166.23 68.3197L172.014 71.5347L149.938 18.7167C149.583 17.8686 149.399 16.9588 149.396 16.0394C149.393 15.12 149.571 14.209 149.92 13.3585C150.269 12.508 150.783 11.7346 151.431 11.0826C152.079 10.4307 152.85 9.91281 153.698 9.55872C154.546 9.2037 155.455 9.01921 156.375 9.01579C157.294 9.01238 158.205 9.1901 159.055 9.53881C159.906 9.88752 160.679 10.4004 161.331 11.0481C161.983 11.6958 162.502 12.4657 162.856 13.3137L184.932 66.1317L186.715 59.7647C186.956 58.8796 187.369 58.0508 187.931 57.3259C188.494 56.601 189.193 55.9943 189.991 55.5406C190.788 55.0869 191.667 54.7951 192.577 54.682C193.487 54.569 194.411 54.6368 195.295 54.8817C196.184 55.1242 197.016 55.5393 197.744 56.1035C198.472 56.6676 199.081 57.3697 199.538 58.1696C199.994 58.9694 200.289 59.8514 200.404 60.7652C200.52 61.6789 200.454 62.6064 200.211 63.4947L193.029 89.3687C192.744 90.3901 192.232 91.3339 191.531 92.1293C190.83 92.9247 189.958 93.5511 188.98 93.9617C188.125 94.3201 187.208 94.5063 186.281 94.5077ZM435.043 193.772C434.408 193.771 433.776 193.687 433.163 193.521L407.279 186.368C406.258 186.087 405.315 185.576 404.522 184.875C403.728 184.174 403.105 183.302 402.7 182.324C401.881 180.338 401.977 178.087 403.037 176.212L416.099 152.763C418.027 149.384 422.269 148.174 425.643 150.059C429.017 151.939 430.222 156.204 428.342 159.579L425.113 165.353L477.941 143.248C481.508 141.758 485.605 143.441 487.099 147.008C488.593 150.575 486.906 154.672 483.339 156.166L430.56 178.266L436.922 180.025C440.633 181.057 442.802 184.912 441.79 188.639C441.381 190.114 440.5 191.415 439.281 192.342C438.062 193.269 436.573 193.771 435.042 193.772H435.043ZM68.2381 194.201C66.7194 194.198 65.2433 193.699 64.034 192.78C62.8247 191.861 61.9484 190.573 61.5381 189.111C61.2821 188.227 61.2038 187.301 61.308 186.387C61.4121 185.472 61.6965 184.588 62.1448 183.784C62.593 182.98 63.1962 182.273 63.9194 181.704C64.6426 181.135 65.4715 180.715 66.3581 180.469L72.7211 178.661L19.7001 156.942C16.1331 155.472 14.4461 151.384 15.8921 147.808C16.6021 146.088 17.9647 144.721 19.6813 144.004C21.3979 143.288 23.3286 143.281 25.0501 143.986L78.0221 165.71L74.7441 159.96C72.8161 156.6 74.0211 152.325 77.3951 150.421C80.7691 148.512 85.0101 149.693 86.9391 153.058L100.146 176.411C100.666 177.333 100.974 178.359 101.049 179.415C101.124 180.472 100.964 181.531 100.58 182.518C100.176 183.5 99.5531 184.377 98.7599 185.084C97.9667 185.79 97.0234 186.307 96.0011 186.596L70.1661 193.937C69.5384 194.112 68.8898 194.201 68.2381 194.202V194.201ZM480.978 346.534C480.068 346.536 479.167 346.358 478.327 346.008L425.306 324.289L428.584 330.034C430.512 333.398 429.307 337.669 425.981 339.578C422.607 341.487 418.317 340.301 416.389 336.941L403.182 313.583C402.658 312.661 402.351 311.632 402.284 310.574C402.218 309.516 402.393 308.456 402.797 307.476C403.616 305.49 405.255 303.986 407.328 303.398L433.163 296.062C436.874 295.007 440.779 297.161 441.839 300.882C442.899 304.599 440.73 308.474 437.019 309.529L430.657 311.332L483.629 333.056C487.196 334.521 488.931 338.609 487.437 342.185C486.914 343.469 486.02 344.568 484.87 345.343C483.72 346.117 482.365 346.532 480.978 346.534ZM22.6891 347.291C19.9421 347.291 17.3391 345.672 16.2301 342.987C14.7361 339.425 16.4231 335.323 19.9901 333.829L72.8181 311.729L66.4551 309.97C65.5666 309.727 64.7346 309.312 64.0066 308.748C63.2786 308.184 62.6689 307.482 62.2124 306.682C61.7559 305.882 61.4614 305 61.3459 304.086C61.2304 303.173 61.296 302.245 61.5391 301.357C62.5991 297.636 66.4551 295.448 70.1671 296.479L96.0501 303.627C98.1231 304.2 99.8101 305.695 100.629 307.676C101.448 309.657 101.352 311.908 100.292 313.788L87.2301 337.233C85.3501 340.612 81.0601 341.822 77.6861 339.942C76.0661 339.036 74.8719 337.524 74.3658 335.738C73.8598 333.952 74.0832 332.039 74.9871 330.418L78.2161 324.648L25.3881 346.748C24.5339 347.108 23.6162 347.293 22.6891 347.293V347.291ZM346.981 480.98C344.234 480.98 341.631 479.365 340.522 476.68L318.398 423.862L316.663 430.229C315.603 433.96 311.747 436.143 308.035 435.112C304.324 434.085 302.106 430.229 303.167 426.503L310.301 400.624C310.587 399.603 311.099 398.66 311.8 397.864C312.501 397.069 313.373 396.442 314.35 396.031C315.331 395.623 316.39 395.443 317.45 395.503C318.51 395.563 319.543 395.862 320.471 396.378L343.896 409.45C347.27 411.33 348.475 415.595 346.596 418.97C346.152 419.773 345.554 420.48 344.836 421.051C344.118 421.622 343.293 422.045 342.411 422.297C341.529 422.548 340.605 422.622 339.694 422.515C338.783 422.408 337.901 422.122 337.101 421.674L331.317 418.459L353.441 471.277C354.887 474.844 353.248 478.946 349.681 480.44C348.824 480.79 347.908 480.973 346.982 480.98H346.981ZM157.119 481.293C156.21 481.291 155.31 481.112 154.468 480.768C150.901 479.303 149.166 475.215 150.66 471.634L172.398 418.662L166.614 421.92C163.288 423.829 158.999 422.648 157.07 419.283C155.19 415.919 156.347 411.648 159.721 409.739L183.098 396.498C184.014 395.976 185.038 395.67 186.09 395.603C187.143 395.536 188.196 395.711 189.171 396.113C190.159 396.508 191.042 397.125 191.753 397.917C192.463 398.708 192.982 399.653 193.268 400.678L200.595 426.504C200.846 427.388 200.921 428.313 200.815 429.225C200.708 430.138 200.423 431.021 199.976 431.824C199.528 432.626 198.927 433.333 198.206 433.903C197.485 434.473 196.659 434.896 195.775 435.147C192.063 436.207 188.207 434.048 187.147 430.332L185.316 423.974L163.626 476.951C162.517 479.655 159.866 481.294 157.119 481.294V481.293ZM258.675 110.266C258.675 112.122 257.938 113.903 256.625 115.215C255.312 116.528 253.532 117.266 251.675 117.266C249.819 117.266 248.038 116.528 246.725 115.215C245.413 113.903 244.675 112.122 244.675 110.266V16.5147C244.675 14.6582 245.413 12.8777 246.725 11.565C248.038 10.2522 249.819 9.51472 251.675 9.51472C253.532 9.51472 255.312 10.2522 256.625 11.565C257.938 12.8777 258.675 14.6582 258.675 16.5147V110.266ZM385.113 251.997C383.257 251.997 381.476 251.259 380.163 249.946C378.851 248.634 378.113 246.853 378.113 244.997C378.113 243.14 378.851 241.36 380.163 240.047C381.476 238.734 383.257 237.997 385.113 237.997H480.158C482.015 237.997 483.795 238.734 485.108 240.047C486.421 241.36 487.158 243.14 487.158 244.997C487.158 246.853 486.421 248.634 485.108 249.946C483.795 251.259 482.015 251.997 480.158 251.997H385.113ZM244.675 378.529C244.675 376.672 245.413 374.892 246.725 373.579C248.038 372.266 249.819 371.529 251.675 371.529C253.532 371.529 255.312 372.266 256.625 373.579C257.938 374.892 258.675 376.672 258.675 378.529V473.48C258.675 475.336 257.938 477.117 256.625 478.429C255.312 479.742 253.532 480.48 251.675 480.48C249.819 480.48 248.038 479.742 246.725 478.429C245.413 477.117 244.675 475.336 244.675 473.48V378.529ZM114.544 237.998C116.401 237.998 118.181 238.735 119.494 240.048C120.807 241.361 121.544 243.141 121.544 244.998C121.544 246.854 120.807 248.635 119.494 249.947C118.181 251.26 116.401 251.998 114.544 251.998H23.1921C21.3356 251.998 19.5551 251.26 18.2424 249.947C16.9296 248.635 16.1921 246.854 16.1921 244.998C16.1921 243.141 16.9296 241.361 18.2424 240.048C19.5551 238.735 21.3356 237.998 23.1921 237.998H114.543H114.544Z" fill="#909CD1"/>
<path fill-rule="evenodd" clip-rule="evenodd" d="M251.676 32.087C260.512 32.087 267.719 24.88 267.719 16.044C267.719 7.208 260.512 0 251.676 0C242.84 0 235.633 7.207 235.633 16.044C235.633 24.881 242.84 32.087 251.676 32.087Z" fill="#FDC72E"/>
<path d="M491.898 256.368C498.163 250.102 498.163 239.945 491.898 233.679C485.632 227.414 475.475 227.414 469.209 233.679C462.944 239.945 462.944 250.102 469.209 256.368C475.475 262.633 485.632 262.633 491.898 256.368Z" fill="#FDC72E"/>
<path fill-rule="evenodd" clip-rule="evenodd" d="M476.433 260.489C469.61 258.643 464.59 252.41 464.59 245.003C464.59 237.596 469.61 231.362 476.433 229.516C483.256 231.362 488.276 237.595 488.276 245.003C488.276 252.411 483.256 258.644 476.433 260.489Z" fill="#FCDB35"/>
<path d="M267.259 477.469C269.306 468.849 263.977 460.201 255.357 458.153C246.736 456.106 238.088 461.435 236.041 470.055C233.994 478.676 239.322 487.324 247.943 489.371C256.563 491.418 265.211 486.09 267.259 477.469Z" fill="#FDC72E"/>
<path d="M34.0323 256.321C40.2975 250.055 40.2975 239.898 34.0323 233.632C27.7672 227.367 17.6093 227.367 11.3441 233.632C5.07893 239.898 5.07893 250.055 11.3441 256.321C17.6093 262.586 27.7672 262.586 34.0323 256.321Z" fill="#FDC72E"/>
<path fill-rule="evenodd" clip-rule="evenodd" d="M317.528 136.614L334.953 124.929C336.312 124.005 337.952 123.587 339.587 123.747C341.222 123.906 342.75 124.634 343.905 125.803L370.874 152.771C372.043 153.926 372.771 155.454 372.931 157.089C373.09 158.724 372.672 160.364 371.748 161.723L360.063 179.149L374.885 214.924L395.466 218.982C397.08 219.29 398.536 220.153 399.579 221.423C400.623 222.692 401.188 224.287 401.178 225.93V264.069C401.188 265.713 400.623 267.308 399.579 268.577C398.536 269.847 397.08 270.71 395.466 271.018L374.884 275.075L360.062 310.851L371.747 328.276C372.671 329.635 373.089 331.275 372.93 332.91C372.77 334.546 372.042 336.074 370.873 337.228L343.905 364.196C342.75 365.366 341.223 366.093 339.587 366.253C337.952 366.413 336.312 365.994 334.953 365.07L317.528 353.384L281.753 368.206L277.695 388.788C277.387 390.402 276.524 391.858 275.255 392.901C273.985 393.945 272.39 394.511 270.747 394.5H232.608C230.965 394.511 229.369 393.945 228.1 392.902C226.83 391.858 225.967 390.402 225.659 388.788L221.601 368.206L185.826 353.385L168.4 365.071C167.041 365.995 165.402 366.413 163.766 366.254C162.131 366.094 160.603 365.366 159.449 364.197L132.481 337.229C131.311 336.075 130.584 334.547 130.424 332.911C130.264 331.276 130.683 329.636 131.607 328.277L143.292 310.852L128.471 275.076L107.89 271.019C106.275 270.712 104.82 269.848 103.776 268.578C102.733 267.309 102.167 265.714 102.178 264.07V225.931C102.167 224.288 102.733 222.693 103.777 221.424C104.82 220.154 106.276 219.291 107.89 218.983L128.471 214.925L143.292 179.15L131.607 161.724C130.683 160.365 130.264 158.726 130.424 157.09C130.584 155.454 131.311 153.927 132.481 152.772L159.45 125.804C161.866 123.388 165.563 123.028 168.401 124.93L185.826 136.615L221.601 121.793L225.659 101.212C225.966 99.5979 226.83 98.1424 228.099 97.0989C229.369 96.0553 230.964 95.4896 232.607 95.5001H270.747C272.39 95.4896 273.985 96.0553 275.255 97.0989C276.524 98.1424 277.387 99.5979 277.695 101.212L281.753 121.793L317.528 136.614Z" fill="#F9AC00"/>
<path fill-rule="evenodd" clip-rule="evenodd" d="M317.527 136.616L330.172 128.136L358.926 156.889L343.998 179.15L358.82 214.925L385.113 220.109V269.893L358.82 275.077L343.998 310.852L358.926 333.113L330.172 361.866L304.51 344.659L267.291 360.079L260.503 394.501H232.604C230.961 394.511 229.366 393.946 228.097 392.902C226.827 391.859 225.964 390.403 225.656 388.789L221.598 368.207L172.507 347.871L154.915 359.668L132.477 337.23C131.308 336.076 130.58 334.548 130.42 332.912C130.26 331.277 130.679 329.637 131.603 328.278L143.289 310.853L128.467 275.078L107.885 271.02C106.271 270.712 104.815 269.849 103.772 268.579C102.729 267.31 102.163 265.714 102.174 264.071V225.932C102.163 224.289 102.729 222.694 103.772 221.424C104.816 220.155 106.271 219.291 107.885 218.983L128.467 214.925L143.289 179.15L131.603 161.725C129.699 158.887 130.061 155.189 132.477 152.772L154.915 130.334L172.507 142.131L185.822 136.615L221.598 121.793L225.656 101.213C225.963 99.5988 226.827 98.1432 228.096 97.0995C229.366 96.0557 230.961 95.4898 232.604 95.5001H260.503L267.291 129.923L304.51 145.344L317.526 136.615L317.527 136.616Z" fill="#FCDB35"/>
<path d="M328.687 257.41C335.413 209.555 302.071 165.309 254.217 158.584C206.362 151.858 162.116 185.2 155.391 233.055C148.665 280.909 182.007 325.155 229.861 331.881C277.716 338.606 321.962 305.265 328.687 257.41Z" fill="#F9AC00"/>
<path d="M338.83 253.812C343.613 205.725 308.508 162.865 260.42 158.082C212.332 153.299 169.472 188.404 164.689 236.492C159.907 284.58 195.012 327.44 243.1 332.223C291.187 337.005 334.047 301.9 338.83 253.812Z" fill="white"/>
<path fill-rule="evenodd" clip-rule="evenodd" d="M251.676 253.664C282.98 253.664 308.926 276.575 313.676 306.542C297.856 322.5 275.922 332.385 251.676 332.385C227.43 332.385 205.496 322.5 189.676 306.542C194.427 276.575 220.373 253.664 251.676 253.664Z" fill="#2A92FA"/>
<path fill-rule="evenodd" clip-rule="evenodd" d="M301.011 317.118C286.975 326.75 269.985 332.388 251.676 332.388C227.43 332.388 205.496 322.503 189.676 306.545C193.07 285.139 207.28 267.336 226.531 258.91C228.621 258.569 230.722 258.299 232.831 258.102C279.644 253.804 298.012 290.738 301.012 317.118H301.011Z" fill="#4EB1FC"/>
<path fill-rule="evenodd" clip-rule="evenodd" d="M251.676 253.466C268.145 253.466 281.577 240.034 281.577 223.565C281.577 207.096 268.145 193.664 251.676 193.664C235.207 193.664 221.775 207.096 221.775 223.565C221.775 240.034 235.207 253.466 251.676 253.466Z" fill="#D9C5BF"/>
<path fill-rule="evenodd" clip-rule="evenodd" d="M244.138 252.509C231.273 249.168 221.775 237.477 221.775 223.567C221.775 209.657 231.273 197.966 244.138 194.625C257.003 197.966 266.501 209.657 266.501 223.567C266.501 237.477 257.003 249.168 244.138 252.509Z" fill="#E6D6D1"/>
<path fill-rule="evenodd" clip-rule="evenodd" d="M247.476 489.441C240.653 487.595 235.633 481.362 235.633 473.955C235.633 466.548 240.653 460.314 247.476 458.468C254.299 460.314 259.319 466.547 259.319 473.955C259.319 481.363 254.299 487.596 247.476 489.441ZM18.5188 260.485C11.6958 258.639 6.67578 252.406 6.67578 244.999C6.67578 237.592 11.6958 231.358 18.5188 229.512C25.3418 231.358 30.3618 237.591 30.3618 244.999C30.3618 252.407 25.3418 258.64 18.5188 260.485ZM247.476 31.5277C240.653 29.6817 235.633 23.4487 235.633 16.0417C235.633 8.63469 240.653 2.40069 247.476 0.554688C254.299 2.40069 259.319 8.63369 259.319 16.0417C259.319 23.4497 254.299 29.6827 247.476 31.5277Z" fill="#FCDB35"/>
</svg>
