<svg width="453" height="523" viewBox="0 0 453 523" fill="none" xmlns="http://www.w3.org/2000/svg">
<path d="M249.111 289.398H296.768V380.249H249.111V289.398Z" fill="#B8ABB8"/>
<path d="M249.111 291.375H281.767V380.249H249.111V291.375Z" fill="#CCC4CC"/>
<path d="M362.927 270.118C412.655 220.39 412.655 139.766 362.927 90.038C313.199 40.3102 232.575 40.3102 182.847 90.038C133.119 139.766 133.119 220.39 182.847 270.118C232.575 319.846 313.199 319.846 362.927 270.118Z" fill="#6679B5"/>
<path fill-rule="evenodd" clip-rule="evenodd" d="M264.747 52.9922C198.24 57.2162 145.604 112.486 145.604 180.058C145.604 247.63 198.24 302.9 264.747 307.124C331.255 302.9 383.892 247.63 383.892 180.058C383.892 112.486 331.255 57.2162 264.747 52.9922Z" fill="#7589C4"/>
<path fill-rule="evenodd" clip-rule="evenodd" d="M308.039 385.125L326.424 452.622V518.926C326.424 522.333 324.767 522.116 322.987 522.045H226.086C221.494 522.093 219.451 522.948 219.451 517.125V452.622L237.739 385.481C238.887 381.051 239.945 380.389 244.876 380.25H299.476C302.874 380.25 306.539 380.18 308.038 385.126L308.039 385.125Z" fill="#993800"/>
<path fill-rule="evenodd" clip-rule="evenodd" d="M309.526 522.045H221.969C220.249 521.796 219.451 520.765 219.451 517.125V452.622L237.739 385.481C238.887 381.051 239.945 380.389 244.876 380.25H284.955C288.213 380.255 291.609 380.412 293.038 385.126L311.423 452.623V518.927C311.423 521.304 310.617 521.917 309.525 522.046L309.526 522.045Z" fill="#C2591D"/>
<path d="M344.858 252.049C384.606 212.301 384.606 147.856 344.858 108.107C305.109 68.359 240.664 68.359 200.916 108.107C161.168 147.856 161.168 212.301 200.916 252.049C240.664 291.797 305.109 291.797 344.858 252.049Z" fill="#E8E8E8"/>
<path fill-rule="evenodd" clip-rule="evenodd" d="M227.009 98.5854L189.217 168.32C250.264 189.811 285.529 166.829 295.012 99.3784C266.691 91.3554 244.023 91.0914 227.009 98.5854Z" fill="#A32D61"/>
<path fill-rule="evenodd" clip-rule="evenodd" d="M227.009 98.5843L189.217 168.319C190.616 168.811 191.996 169.272 193.368 169.718C246.821 184 277.992 159.846 286.874 97.2493C262.317 91.3783 242.361 91.8233 227.009 98.5843Z" fill="#C9367C"/>
<path fill-rule="evenodd" clip-rule="evenodd" d="M151.425 98.5854L189.216 168.32C128.169 189.81 92.9049 166.83 83.4219 99.3784C111.743 91.3554 134.411 91.0914 151.426 98.5854H151.425Z" fill="#A32D61"/>
<path fill-rule="evenodd" clip-rule="evenodd" d="M186.064 162.508L189.216 168.325C128.169 189.815 92.9049 166.835 83.4219 99.3828C107.61 92.5318 127.385 94.0438 150.799 104.357L186.064 162.508Z" fill="#C9367C"/>
<path fill-rule="evenodd" clip-rule="evenodd" d="M189.215 168.322C240.549 128.91 240.549 86.8179 189.215 42.0469C137.881 86.8179 137.881 128.91 189.215 168.322Z" fill="#80244C"/>
<path fill-rule="evenodd" clip-rule="evenodd" d="M184.867 45.9531C139.339 87.9691 139.339 127.609 184.867 164.873C230.395 127.609 230.395 87.9691 184.867 45.9531Z" fill="#912856"/>
<path d="M5.35 181.25H51.169C52.5879 181.251 53.9485 181.815 54.9519 182.818C55.9552 183.821 56.5192 185.182 56.52 186.601V290.247C56.5195 291.666 55.9556 293.026 54.9524 294.029C53.9492 295.033 52.5887 295.596 51.17 295.597H5.351C3.93207 295.596 2.57148 295.032 1.56815 294.029C0.564815 293.026 0.000794845 291.665 0 290.246V186.6C0.000530075 185.181 0.564361 183.821 1.56757 182.818C2.57077 181.814 3.93126 181.251 5.35 181.25Z" fill="#993800"/>
<path fill-rule="evenodd" clip-rule="evenodd" d="M56.5195 199.345V276.253C97.3695 286.326 127.757 294.126 147.909 298.79C176.265 305.352 184.355 302.384 204.579 291.747C287.802 250.412 326.426 232.553 326.426 232.553C302.734 196.834 245.514 225.343 207.83 242.018C206.958 231.24 204.659 220.115 190.708 220.115H144.48C131.967 220.075 123.449 214.781 114.222 204.374C109.822 199.411 108.51 199.344 98.7495 199.344H56.5205L56.5195 199.345Z" fill="#FA9F82"/>
<path fill-rule="evenodd" clip-rule="evenodd" d="M56.5195 199.345V267.576C97.3695 277.649 127.757 285.449 147.909 290.113C176.265 296.675 184.355 293.707 204.579 283.07C270.38 250.388 308.29 232.387 321.282 226.28C295.228 200.57 243.015 226.449 207.829 242.018C206.957 231.24 204.658 220.115 190.707 220.115H144.479C131.966 220.075 123.448 214.781 114.221 204.374C109.821 199.411 108.509 199.344 98.7485 199.344L56.5195 199.345Z" fill="#FFBCAB"/>
<path fill-rule="evenodd" clip-rule="evenodd" d="M218.966 237.045C218.966 252.354 209.043 259.107 194.536 258.976C175.416 258.804 156.228 259.017 137.137 258.174C113.26 257.117 103.904 256.702 102.21 237.353C102.124 236.047 102.553 234.759 103.406 233.766C104.258 232.773 105.466 232.154 106.77 232.042C108.073 231.93 109.369 232.333 110.379 233.165C111.389 233.997 112.032 235.192 112.171 236.494C113.102 247.131 119.989 247.436 137.567 248.214C156.55 249.053 175.925 248.958 194.92 248.996C195.982 248.998 197.044 249.041 198.098 248.975C202.925 248.668 206.491 246.86 207.828 242.015C207.828 242.029 217.902 237.522 218.966 237.047V237.045Z" fill="#FA9F82"/>
<path d="M5.351 181.25H51.169C52.5879 181.251 53.9485 181.815 54.9519 182.818C55.9552 183.821 56.5192 185.182 56.52 186.601V280.497C56.5192 281.916 55.9552 283.277 54.9519 284.28C53.9485 285.283 52.5879 285.847 51.169 285.848H5.35C3.93126 285.847 2.57077 285.284 1.56757 284.28C0.564361 283.277 0.000530075 281.917 0 280.498V186.601C0.000794845 185.182 0.564815 183.821 1.56815 182.818C2.57148 181.815 3.93207 181.251 5.351 181.25Z" fill="#C2591D"/>
</svg>
