<svg width="480" height="480" viewBox="0 0 480 480" fill="none" xmlns="http://www.w3.org/2000/svg">
<path d="M48 32H64V48H48V32ZM80 32H96V48H80V32ZM112 32H128V48H112V32ZM56 208H184C186.122 208 188.157 207.157 189.657 205.657C191.157 204.157 192 202.122 192 200V120C192 117.878 191.157 115.843 189.657 114.343C188.157 112.843 186.122 112 184 112H56C53.8783 112 51.8434 112.843 50.3431 114.343C48.8429 115.843 48 117.878 48 120V200C48 202.122 48.8429 204.157 50.3431 205.657C51.8434 207.157 53.8783 208 56 208ZM64 128H176V192H64V128ZM256 120H384V136H256V120ZM224 152H368V168H224V152ZM224 184H336V200H224V184ZM80 240H288V256H80V240ZM48 272H256V288H48V272ZM48 304H224V320H48V304ZM48 336H224V352H48V336ZM48 368H224V384H48V368ZM48 240H64V256H48V240Z" fill="white"/>
<path d="M440 48H432V40C432 29.3913 427.786 19.2172 420.284 11.7157C412.783 4.21427 402.609 0 392 0H40C29.3913 0 19.2172 4.21427 11.7157 11.7157C4.21427 19.2172 0 29.3913 0 40V392C0 402.609 4.21427 412.783 11.7157 420.284C19.2172 427.786 29.3913 432 40 432H48V440C48 450.609 52.2143 460.783 59.7157 468.284C67.2172 475.786 77.3913 480 88 480H440C450.609 480 460.783 475.786 468.284 468.284C475.786 460.783 480 450.609 480 440V88C480 77.3913 475.786 67.2172 468.284 59.7157C460.783 52.2143 450.609 48 440 48ZM425.68 172.32L459.68 206.32L437.04 228.96L403.04 194.96L425.68 172.32ZM281.04 333.2L287.36 316.8L315.2 344.64L298.8 350.96L281.04 333.2ZM282.48 357.2L269.92 362.08L274.8 349.52L282.48 357.2ZM306.88 313.76L295.6 302.48L391.76 206.32L403.04 217.6L306.88 313.76ZM414.4 228.96L425.68 240.24L329.52 336.4L318.24 325.12L414.4 228.96ZM16 40C16.019 33.6406 18.5537 27.5472 23.0504 23.0504C27.5472 18.5537 33.6406 16.019 40 16H392C398.359 16.019 404.453 18.5537 408.95 23.0504C413.446 27.5472 415.981 33.6406 416 40V64H16V40ZM40 416C33.6406 415.981 27.5472 413.446 23.0504 408.95C18.5537 404.453 16.019 398.359 16 392V80H416V159.44L278.64 296.8C277.839 297.595 277.212 298.549 276.8 299.6L248.56 373.12C247.979 374.562 247.836 376.143 248.149 377.665C248.462 379.188 249.217 380.584 250.32 381.68C251.833 383.172 253.875 384.006 256 384C256.988 384.008 257.967 383.818 258.88 383.44L332.4 355.2C333.451 354.788 334.405 354.161 335.2 353.36L416 272.56V392C415.981 398.359 413.446 404.453 408.95 408.95C404.453 413.446 398.359 415.981 392 416H40ZM464 440C463.981 446.359 461.446 452.453 456.95 456.95C452.453 461.446 446.359 463.981 440 464H88C81.6406 463.981 75.5472 461.446 71.0504 456.95C66.5537 452.453 64.019 446.359 64 440V432H392C402.609 432 412.783 427.786 420.284 420.284C427.786 412.783 432 402.609 432 392V256.56L464 224.56V440ZM464 188L432 156V128H464V188ZM464 112H432V64H440C446.359 64.019 452.453 66.5537 456.95 71.0504C461.446 75.5472 463.981 81.6406 464 88V112Z" fill="white"/>
<path d="M224 120H240V136H224V120Z" fill="white"/>
</svg>
