<svg width="512" height="512" viewBox="0 0 512 512" fill="none" xmlns="http://www.w3.org/2000/svg">
<g clip-path="url(#clip0_1060_83)">
<path d="M501.759 206.434L461.484 201.479C451.752 200.281 441.893 202.247 433.364 207.084C411.296 219.6 403.651 247.7 416.337 269.672L465.076 354.09L502.009 332.767M481.362 253.396L501.759 255.352M380.371 277.226L418.799 275.968M409.718 226.392L337.399 228.561L287.182 208.617C278.526 205.18 269.181 207.366 262.936 213.495C260.671 215.72 258.897 218.395 257.729 221.347C253.08 233.053 258.642 246.356 270.347 251.005L293.578 260.231" stroke="white" stroke-width="19.9841" stroke-miterlimit="10" stroke-linecap="round" stroke-linejoin="round"/>
<path d="M358.799 143.2C363.727 131.955 373.533 122.97 386.315 119.546C408.644 113.563 431.596 126.814 437.579 149.144L442.247 166.565C448.231 188.894 434.979 211.846 412.65 217.829C390.321 223.812 367.369 210.561 361.386 188.231L360.982 186.727" stroke="white" stroke-width="19.9841" stroke-miterlimit="10" stroke-linecap="round" stroke-linejoin="round"/>
<path d="M395.993 161.823L437.058 150.82M501.758 169.069V501.804M465.075 354.091V395.826C465.075 404.237 467.69 412.44 472.557 419.299L501.758 460.449M10.1484 332.768L47.0811 354.091V395.826C47.0808 404.237 44.4662 412.44 39.599 419.299L10.3982 460.449M102.438 226.393L174.758 228.562L224.975 208.618C233.63 205.181 242.829 207.448 249.075 213.577C251.275 215.738 253.375 218.345 254.586 221.394C259.157 232.902 252.78 246.649 241.809 251.007L176.855 276.804C173.937 277.963 170.812 278.507 167.674 278.402L93.3573 275.969M153.396 143.287C148.48 132.002 138.656 122.98 125.841 119.546C103.512 113.563 80.5605 126.814 74.5772 149.144L69.9089 166.565C63.9257 188.894 77.1772 211.846 99.5064 217.829C121.836 223.812 144.787 210.561 150.771 188.231L151.114 186.947M368.264 141.357L357.824 144.154C346.361 147.226 339.56 159.008 342.63 170.471C345.702 181.933 357.483 188.735 368.946 185.664L379.386 182.867C390.849 179.795 397.65 168.014 394.58 156.551C391.508 145.088 379.727 138.285 368.264 141.357Z" stroke="white" stroke-width="19.9841" stroke-miterlimit="10" stroke-linecap="round" stroke-linejoin="round"/>
<path d="M116.163 161.823L75.0974 150.82M65.1443 323.366L47.0817 354.09M9.99219 265.835L33.4645 225.945C43.5235 208.85 64.9585 202.25 82.8912 210.723C103.268 220.351 110.985 245.393 99.563 264.822L91.5723 278.413M143.892 141.356L154.331 144.154C165.794 147.225 172.596 159.007 169.525 170.47C166.454 181.933 154.672 188.734 143.209 185.664L132.77 182.866C121.307 179.794 114.505 168.013 117.576 156.55C120.647 145.087 132.429 138.284 143.892 141.356ZM293.966 138.27L264.884 109.187L293.966 80.1037L323.049 109.187L293.966 138.27ZM209.003 68.3611L179.92 39.2782L209.003 10.1953L238.086 39.2782L209.003 68.3611Z" stroke="white" stroke-width="19.9841" stroke-miterlimit="10" stroke-linecap="round" stroke-linejoin="round"/>
<path d="M71.7195 250.691L96.3419 286.703L141.518 316.344C149.305 321.453 152.938 330.515 151.51 339.147C150.99 342.279 149.82 345.268 148.075 347.92C141.165 358.452 127.028 361.386 116.498 354.477L58.7698 317.653C56.1454 315.931 53.9047 313.686 52.188 311.058L37.2829 288.275M10.1484 169.066V501.802" stroke="white" stroke-width="19.9841" stroke-miterlimit="10" stroke-linecap="round" stroke-linejoin="round"/>
</g>
<defs>
<clipPath id="clip0_1060_83">
<rect width="512" height="512" fill="white"/>
</clipPath>
</defs>
</svg>
