<svg width="497" height="486" viewBox="0 0 497 486" fill="none" xmlns="http://www.w3.org/2000/svg">
<path fill-rule="evenodd" clip-rule="evenodd" d="M13.0099 197.787L12.7951 197.946C11.08 199.208 8.93371 199.738 6.82794 199.419C4.72217 199.1 2.82926 197.958 1.56524 196.244C-1.06503 192.676 -0.302054 187.643 3.26588 185.014L22.1717 171.083C23.1271 170.379 24.2267 169.895 25.3913 169.667C26.5558 169.439 27.7565 169.471 28.907 169.763C30.0574 170.054 31.129 170.597 32.0447 171.351C32.9604 172.106 33.6974 173.055 34.2027 174.129L44.7208 196.482C46.6082 200.493 44.8845 205.281 40.8738 207.169C36.8631 209.056 32.0744 207.332 30.187 203.321L28.8568 200.495C25.5416 215.919 23.8744 231.652 23.8834 247.429C23.8834 370.058 123.441 469.617 246.07 469.617C273.852 469.617 300.45 464.509 324.974 455.177C326.965 454.421 329.174 454.486 331.117 455.358C333.061 456.23 334.578 457.838 335.336 459.829C336.912 463.971 334.828 468.614 330.686 470.191C304.386 480.197 275.864 485.68 246.07 485.68C114.577 485.68 7.82068 378.924 7.82068 247.429C7.82068 230.407 9.60967 213.801 13.0099 197.787ZM288.158 29.2285C274.286 26.5705 260.194 25.2356 246.07 25.2419C225.644 25.2419 205.856 28.0027 187.063 33.1749C185.009 33.7387 182.816 33.4642 180.964 32.4118C179.113 31.3594 177.755 29.615 177.188 27.562C176.013 23.2883 178.528 18.863 182.801 17.6874C202.952 12.1428 224.168 9.17917 246.07 9.17917C261.929 9.17917 277.429 10.7332 292.424 13.6948L291.739 12.7531C289.133 9.16813 289.927 4.14049 293.512 1.53431C295.235 0.282501 297.384 -0.233932 299.488 0.0985179C301.592 0.430968 303.477 1.58509 304.731 3.30724L318.541 22.3014C319.239 23.2615 319.715 24.364 319.935 25.53C320.156 26.6959 320.115 27.8962 319.817 29.0446C319.518 30.193 318.969 31.261 318.208 32.1718C317.448 33.0826 316.495 33.8136 315.418 34.3123L292.999 44.6879C288.976 46.5492 284.198 44.7953 282.337 40.7726C281.443 38.8393 281.354 36.6302 282.088 34.6309C282.822 32.6315 284.32 31.0054 286.252 30.1099L288.158 29.2285ZM482.384 277.906L483.05 277.325C484.654 275.923 486.748 275.216 488.873 275.359C490.998 275.501 492.98 276.481 494.382 278.084C495.784 279.688 496.491 281.782 496.349 283.907C496.206 286.032 495.226 288.014 493.623 289.417L475.945 304.875C475.052 305.656 473.996 306.229 472.855 306.553C471.713 306.878 470.514 306.945 469.343 306.751C468.173 306.556 467.06 306.105 466.084 305.429C465.109 304.753 464.295 303.87 463.701 302.842L451.357 281.444C450.294 279.599 450.006 277.406 450.558 275.349C451.11 273.292 452.456 271.539 454.301 270.474C456.146 269.41 458.338 269.123 460.395 269.675C462.452 270.227 464.206 271.573 465.271 273.417L466.493 275.538C467.671 266.214 468.26 256.826 468.257 247.429C468.257 223.216 464.378 199.903 457.204 178.078C456.54 176.054 456.707 173.85 457.667 171.949C458.627 170.048 460.303 168.606 462.326 167.94C464.35 167.276 466.554 167.443 468.455 168.403C470.356 169.364 471.798 171.039 472.464 173.062C480.157 196.466 484.32 221.465 484.32 247.429C484.32 257.754 483.661 267.926 482.384 277.906ZM143.019 349.648L146.05 355.004C146.054 355.01 146.058 355.017 146.061 355.024C150.38 362.705 147.638 372.506 140.002 376.819L124.806 385.432C124.797 385.436 124.789 385.441 124.782 385.446C117.101 389.764 107.299 387.022 102.984 379.382L58.2989 300.424C53.9398 292.734 56.6815 282.921 64.3294 278.602L79.5428 269.989L79.5499 269.985C87.1927 265.668 96.999 268.379 101.351 276.022L101.361 276.041L103.557 279.92L141.04 258.218C145.079 255.883 149.149 253.825 153.271 252.252C149.346 234.303 151.834 214.336 163.134 194.48L163.139 194.472C172.108 178.753 185.669 161.181 203.898 140.967C199.173 137.188 196.131 131.376 196.131 124.876C196.131 116.389 201.343 109.058 208.723 105.926C205.909 103.112 203.095 100.298 200.281 97.4831C192.12 89.3554 192.108 76.0303 200.269 67.8684C206.716 61.4233 216.714 59.9686 224.734 64.1178C227.404 55.6527 235.368 49.4676 244.697 49.4676C253.85 49.4676 261.932 55.5162 264.656 64.1158C272.539 60.0208 282.53 61.2757 289.124 67.8684L289.136 67.8805C297.257 76.0353 297.245 89.3503 289.124 97.4721L280.67 105.926C288.05 109.058 293.262 116.39 293.262 124.876C293.262 131.38 290.217 137.194 285.487 140.973C303.728 161.187 317.286 178.759 326.237 194.478C338.018 215.164 340.25 235.963 335.6 254.486C341.902 254.411 346.829 256.101 350.463 258.538C357.597 263.325 360.956 271.472 360.742 279.494C360.526 287.626 356.57 295.35 350.193 299.277L251.875 359.811C240.891 366.59 228.86 368.192 216.394 364.867L216.386 364.865L148.278 346.611L143.019 349.648ZM111.469 293.899L135.107 335.669L143.127 331.037C144.041 330.51 145.049 330.167 146.095 330.029C147.141 329.892 148.204 329.961 149.223 330.234L220.538 349.347C228.58 351.492 236.351 350.517 243.439 346.142L243.446 346.137L341.77 285.601C343.805 284.347 344.616 281.662 344.686 279.067C344.915 270.418 336.114 265.672 315.731 277.546L261.549 309.103C252.312 314.487 242.632 315.994 232.081 314.313C232.072 314.312 232.063 314.311 232.054 314.309L225.329 313.215C225.221 313.197 225.112 313.177 225.004 313.156L224.993 313.153C212.714 310.632 201.326 306.927 188.688 303.531C184.407 302.38 181.867 297.971 183.017 293.691C184.168 289.41 188.577 286.868 192.857 288.018C205.053 291.296 216.05 294.893 227.885 297.349C232.37 297.808 235.758 296.122 236.794 292.263L236.795 292.259C237.827 288.424 235.37 284.772 231.682 283.373C209.912 279.343 188.624 270.341 175.553 266.104L175.55 266.103C166.166 263.056 157.626 267.182 149.082 272.122L111.469 293.899ZM169.016 249.039C172.919 249.008 176.8 249.611 180.509 250.825C193.225 254.948 213.976 263.852 235.16 267.68C235.514 267.744 235.863 267.833 236.206 267.943L236.475 268.031C236.437 267.716 236.419 267.4 236.419 267.083V264.575C226.244 262.18 217.604 255.269 214.882 244.334C214.368 242.267 214.696 240.081 215.793 238.255C216.891 236.43 218.668 235.115 220.734 234.6C222.801 234.086 224.988 234.414 226.813 235.511C228.638 236.609 229.953 238.386 230.468 240.453C232.008 246.639 238.109 249.33 244.176 249.451C244.387 249.444 244.598 249.445 244.809 249.455C244.919 249.454 245.027 249.452 245.137 249.449C248.045 249.377 251.208 248.769 253.879 247.462C256.401 246.227 258.538 244.247 258.15 240.976C257.719 237.464 255.247 235.598 252.462 234.335C249.572 233.024 246.287 232.311 243.215 231.807C230.76 229.77 217.628 223.33 216.91 208.55V208.546C216.361 197.132 223.334 188.719 233.046 184.897C234.148 184.463 235.274 184.095 236.419 183.794V181.152C236.419 176.719 240.018 173.121 244.45 173.121C248.883 173.121 252.481 176.719 252.481 181.152V183.708C260.582 185.766 267.97 191.148 271.847 200.396C273.561 204.484 271.633 209.194 267.545 210.908C263.457 212.622 258.747 210.694 257.033 206.606C254.772 201.214 249.856 198.863 244.981 198.771C244.68 198.79 244.377 198.792 244.076 198.779C242.312 198.844 240.572 199.204 238.927 199.844C235.56 201.169 232.765 203.815 232.954 207.773C233.101 210.769 235.131 212.415 237.446 213.545C240.02 214.803 243 215.496 245.808 215.955L245.812 215.956C258.51 218.039 272.262 223.982 274.096 239.041L274.097 239.056C275.829 253.502 264.653 262.101 252.481 264.686V267.083C252.481 268.789 251.937 270.451 250.929 271.827C249.921 273.204 248.501 274.224 246.874 274.741C251.972 280.273 254.33 287.99 252.473 295.776C252.804 295.6 253.133 295.416 253.462 295.225L307.647 263.667C311.054 261.682 314.279 260.066 317.323 258.776C324.16 242.02 323.521 222.166 312.279 202.427C302.869 185.903 288.033 167.295 267.836 145.469H221.539C201.359 167.296 186.523 185.904 177.093 202.429C167.966 218.466 165.818 234.571 169.016 249.039ZM229.819 104.306H259.574L277.765 86.1137C279.658 84.2223 279.648 81.1222 277.754 79.2158C276.112 77.5844 273.571 77.3766 271.693 78.5823L271.689 78.5843C267.512 81.2638 262.741 81.7015 258.155 79.794C253.58 77.8916 250.504 74.2192 249.447 69.3492C248.947 67.1376 246.967 65.5303 244.697 65.5303C243.59 65.5319 242.516 65.9107 241.653 66.6041C240.789 67.2975 240.188 68.2643 239.947 69.3452C238.903 74.2032 235.823 77.8866 231.238 79.794C226.651 81.7015 221.882 81.2638 217.724 78.5973C215.796 77.3696 213.236 77.6175 211.628 79.2268C209.732 81.1212 209.721 84.2153 211.616 86.1027L211.628 86.1137L229.819 104.306ZM216.703 129.406H272.69C275.173 129.406 277.199 127.367 277.199 124.876C277.195 123.682 276.719 122.537 275.874 121.693C275.03 120.848 273.885 120.372 272.69 120.369H216.703C215.508 120.372 214.364 120.848 213.519 121.693C212.674 122.537 212.198 123.682 212.194 124.876C212.194 127.367 214.22 129.406 216.703 129.406ZM72.2985 292.548L116.939 371.427L132.043 362.867L87.4066 283.996L72.2985 292.548ZM83.9892 290.964C84.8089 290.842 85.6445 290.883 86.4483 291.084C87.2522 291.285 88.0085 291.643 88.6739 292.137C89.3394 292.631 89.901 293.251 90.3265 293.962C90.7521 294.673 91.0334 295.461 91.1542 296.281C91.6471 299.729 89.2658 302.953 85.8164 303.446C82.3679 303.959 79.1654 301.556 78.6514 298.108C78.1594 294.658 80.5407 291.456 83.9892 290.964ZM421.1 23.207C425.788 24.6181 430.323 26.4972 434.635 28.8159L443.321 24.9538C444.804 24.2942 446.453 24.0996 448.049 24.3959C449.646 24.6922 451.115 25.4653 452.263 26.6133L466.886 41.2364C468.033 42.3831 468.806 43.8501 469.103 45.4444C469.4 47.0386 469.207 48.6855 468.55 50.1683L464.7 58.8582C467.025 63.1794 468.907 67.7245 470.317 72.4242L479.174 75.8325C480.689 76.4157 481.991 77.444 482.91 78.782C483.828 80.12 484.32 81.7049 484.32 83.3278V104.014C484.32 105.637 483.828 107.221 482.91 108.559C481.991 109.897 480.689 110.926 479.174 111.509L470.312 114.918C468.896 119.606 467.015 124.14 464.697 128.454L468.55 137.152C469.207 138.635 469.4 140.282 469.103 141.876C468.806 143.47 468.033 144.937 466.886 146.084L452.263 160.707C451.116 161.854 449.649 162.627 448.055 162.924C446.461 163.221 444.814 163.028 443.331 162.372C443.331 162.372 434.645 158.525 434.646 158.524C430.33 160.846 425.791 162.726 421.097 164.136L417.688 172.995C417.105 174.51 416.076 175.812 414.738 176.731C413.4 177.649 411.815 178.141 410.192 178.141H389.507C387.884 178.141 386.299 177.649 384.961 176.731C383.623 175.812 382.595 174.51 382.011 172.995L378.603 164.137C373.908 162.722 369.366 160.839 365.045 158.519L356.347 162.372C354.864 163.028 353.217 163.221 351.623 162.924C350.029 162.627 348.562 161.854 347.415 160.707L332.792 146.084C331.644 144.936 330.871 143.467 330.575 141.871C330.278 140.274 330.473 138.626 331.133 137.142L334.993 128.461C332.673 124.147 330.791 119.611 329.374 114.922L320.505 111.509C318.99 110.926 317.688 109.898 316.769 108.56C315.85 107.222 315.358 105.637 315.358 104.014V83.3278C315.358 81.7047 315.85 80.1197 316.769 78.7817C317.688 77.4437 318.99 76.4155 320.505 75.8325L329.371 72.4212C330.788 67.7258 332.672 63.1842 334.995 58.8643L331.133 50.1783C330.473 48.6948 330.278 47.0462 330.575 45.4498C330.871 43.8535 331.644 42.3845 332.792 41.2364L347.415 26.6133C348.563 25.4653 350.032 24.6922 351.629 24.3959C353.225 24.0996 354.874 24.2942 356.357 24.9538L365.043 28.8159C369.357 26.4958 373.894 24.616 378.585 23.205L382.014 14.3193C382.598 12.8061 383.626 11.5052 384.964 10.5877C386.301 9.67022 387.885 9.17916 389.507 9.17917H410.192C413.516 9.17917 416.497 11.2272 417.689 14.3303L421.1 23.207ZM407.569 32.7774L404.674 25.2419H395.016L392.105 32.7884C391.635 34.0046 390.877 35.0882 389.895 35.9458C388.913 36.8034 387.737 37.4091 386.469 37.7106C380.553 39.1158 374.899 41.4584 369.723 44.6497C368.612 45.3346 367.35 45.7382 366.047 45.8255C364.745 45.9128 363.44 45.6812 362.247 45.1507L354.872 41.8719L348.051 48.6935L351.33 56.0683C351.86 57.2614 352.092 58.5657 352.004 59.8684C351.917 61.1712 351.513 62.433 350.829 63.5445C347.632 68.7347 345.282 74.3999 343.864 80.3281C343.561 81.5941 342.954 82.7673 342.096 83.7465C341.238 84.7258 340.154 85.4817 338.939 85.9491L331.421 88.8424V98.4991L338.939 101.392C340.153 101.86 341.236 102.615 342.094 103.593C342.951 104.571 343.559 105.743 343.863 107.008C345.279 112.928 347.628 118.585 350.823 123.766C351.51 124.878 351.916 126.142 352.004 127.447C352.093 128.751 351.861 130.058 351.33 131.253L348.051 138.627L354.878 145.455L362.257 142.186C363.446 141.659 364.745 141.429 366.042 141.515C367.34 141.602 368.597 142.001 369.705 142.681C374.897 145.861 380.544 148.222 386.484 149.63C387.755 149.931 388.933 150.537 389.916 151.396C390.9 152.255 391.659 153.341 392.128 154.56L395.021 162.078H404.678L407.571 154.56C408.04 153.342 408.798 152.257 409.781 151.398C410.763 150.539 411.94 149.933 413.209 149.631C419.123 148.231 424.773 145.89 429.945 142.698C431.056 142.011 432.317 141.606 433.62 141.517C434.923 141.428 436.228 141.657 437.422 142.186L444.8 145.455L451.633 138.621L448.365 131.243C447.838 130.054 447.608 128.755 447.694 127.457C447.78 126.16 448.18 124.903 448.86 123.794C452.041 118.602 454.402 112.955 455.81 107.03C456.111 105.761 456.718 104.584 457.577 103.602C458.436 102.619 459.521 101.861 460.739 101.392L468.257 98.4991V88.8424L460.739 85.9491C459.52 85.4801 458.434 84.721 457.575 83.7375C456.716 82.754 456.11 81.5758 455.809 80.305C454.407 74.3831 452.065 68.7243 448.871 63.5445C448.187 62.4346 447.783 61.1748 447.695 59.874C447.607 58.5732 447.837 57.2705 448.365 56.0784L451.633 48.6996L444.806 41.8719L437.432 45.1507C436.239 45.6812 434.935 45.9128 433.632 45.8255C432.329 45.7382 431.067 45.3346 429.956 44.6497C424.779 41.4584 419.126 39.1158 413.209 37.7106C411.939 37.4086 410.762 36.8015 409.779 35.9419C408.796 35.0823 408.038 33.9961 407.569 32.7774ZM399.839 49.5499C424.211 49.5499 443.97 69.289 443.97 93.6602C443.97 118.03 424.209 137.792 399.839 137.792C375.468 137.792 355.729 118.032 355.729 93.6602C355.729 69.287 375.466 49.5499 399.839 49.5499ZM399.839 65.6126C384.341 65.6126 371.791 78.1626 371.791 93.6602C371.791 109.16 384.34 121.729 399.839 121.729C415.34 121.729 427.908 109.161 427.908 93.6602C427.908 78.1616 415.339 65.6126 399.839 65.6126ZM93.2574 178.141C46.7377 178.141 8.77641 140.18 8.77641 93.6602C8.77641 47.1405 46.7377 9.17917 93.2574 9.17917C139.777 9.17917 177.738 47.1405 177.738 93.6602C177.738 140.18 139.777 178.141 93.2574 178.141ZM93.2574 162.078C130.932 162.078 161.676 131.335 161.676 93.6602C161.676 55.986 130.932 25.2419 93.2574 25.2419C55.5822 25.2419 24.8392 55.986 24.8392 93.6602C24.8392 131.335 55.5822 162.078 93.2574 162.078ZM85.226 49.0339V45.2752C85.226 40.8429 88.8251 37.2438 93.2574 37.2438C97.6897 37.2438 101.289 40.8429 101.289 45.2752V48.9465C110.413 51.0437 118.809 56.9488 123.166 67.3143C123.991 69.278 124.002 71.4888 123.197 73.4607C122.392 75.4326 120.838 77.0043 118.874 77.8304C116.911 78.6547 114.7 78.6658 112.728 77.8613C110.757 77.0568 109.185 75.5023 108.358 73.5396C104.472 64.2935 94.1017 62.4493 86.6637 65.3777C82.4783 67.0251 79.072 70.3652 79.3079 75.2814C79.4957 79.0853 82.0004 81.2246 84.9349 82.6602C87.9216 84.1199 91.3771 84.9321 94.6268 85.4672C108.475 87.733 123.618 94.116 125.629 110.579L125.63 110.59C127.558 126.567 114.826 135.914 101.289 138.51V142.045C101.289 146.478 97.6897 150.077 93.2574 150.077C88.8251 150.077 85.226 146.478 85.226 142.045V138.393C73.7954 135.949 63.9821 128.368 60.9432 116.164C59.873 111.862 62.4953 107.5 66.7971 106.43C71.0979 105.359 75.4599 107.982 76.5311 112.283C78.4767 120.098 86.4277 123.368 94.0636 123.189C98.2158 123.09 102.843 122.073 106.249 119.725C108.521 118.159 110.079 115.82 109.684 112.521C109.149 108.165 106.139 105.803 102.686 104.237C99.3542 102.725 95.5715 101.898 92.0336 101.319L92.0256 101.318C78.4576 99.0844 64.0533 92.1935 63.2643 76.0624V76.0584C62.6669 63.6871 70.2465 54.5775 80.7807 50.4313C82.2281 49.8625 83.7135 49.3956 85.226 49.0339ZM399.839 296.175C446.508 296.175 484.32 333.988 484.32 380.656C484.32 427.326 446.508 465.137 399.839 465.137C353.171 465.137 315.358 427.326 315.358 380.656C315.358 333.988 353.171 296.175 399.839 296.175ZM349.412 334.409C338.847 345.923 332.176 361.067 331.481 377.76C332.067 376.249 333.096 374.95 334.433 374.033C335.77 373.117 337.352 372.626 338.973 372.625H345.563C349.995 372.625 353.594 376.224 353.594 380.656C353.594 385.09 349.995 388.688 345.563 388.688H338.973C337.352 388.687 335.77 388.196 334.433 387.28C333.096 386.364 332.067 385.065 331.481 383.554C332.176 400.246 338.847 415.391 349.412 426.905C348.773 425.427 348.593 423.791 348.894 422.209C349.196 420.627 349.966 419.172 351.105 418.033L355.78 413.358C358.914 410.224 364.003 410.224 367.137 413.358C370.272 416.492 370.272 421.582 367.137 424.716L362.462 429.392C361.323 430.53 359.868 431.299 358.287 431.601C356.705 431.903 355.069 431.722 353.591 431.083C365.105 441.649 380.25 448.32 396.943 449.014C395.431 448.429 394.132 447.4 393.216 446.063C392.299 444.726 391.808 443.143 391.808 441.522V434.932C391.808 430.5 395.407 426.901 399.839 426.901C404.271 426.901 407.87 430.5 407.87 434.932V441.522C407.87 443.143 407.379 444.726 406.463 446.063C405.547 447.4 404.248 448.429 402.736 449.014C419.429 448.32 434.574 441.649 446.088 431.083C444.61 431.722 442.974 431.903 441.392 431.601C439.81 431.3 438.355 430.53 437.216 429.392L432.541 424.716C429.407 421.582 429.407 416.492 432.541 413.358C435.675 410.224 440.765 410.224 443.899 413.358L448.574 418.033C449.712 419.173 450.482 420.627 450.784 422.209C451.085 423.791 450.905 425.427 450.266 426.905C460.818 415.405 467.485 400.284 468.195 383.617C467.601 385.113 466.571 386.395 465.24 387.3C463.908 388.204 462.336 388.687 460.727 388.688H454.115C449.683 388.688 446.084 385.09 446.084 380.656C446.084 376.224 449.683 372.625 454.115 372.625H460.727C462.336 372.626 463.908 373.109 465.24 374.013C466.571 374.917 467.601 376.2 468.195 377.696C467.485 361.029 460.818 345.908 450.266 334.409C450.905 335.887 451.085 337.522 450.784 339.104C450.482 340.686 449.712 342.14 448.574 343.279L443.899 347.955C440.765 351.089 435.675 351.089 432.541 347.955C429.407 344.82 429.407 339.731 432.541 336.597L437.216 331.922C438.355 330.784 439.81 330.014 441.392 329.712C442.974 329.41 444.61 329.59 446.088 330.229C434.574 319.665 419.429 312.993 402.736 312.298C404.248 312.884 405.547 313.913 406.463 315.25C407.379 316.587 407.87 318.17 407.87 319.791V326.38C407.87 330.813 404.271 334.412 399.839 334.412C395.407 334.412 391.808 330.813 391.808 326.38V319.791C391.809 318.17 392.3 316.587 393.216 315.25C394.132 313.913 395.431 312.884 396.943 312.298C380.25 312.993 365.105 319.665 353.591 330.229C355.069 329.59 356.705 329.41 358.287 329.712C359.869 330.014 361.323 330.784 362.462 331.922L367.137 336.597C370.272 339.731 370.272 344.82 367.137 347.955C364.003 351.089 358.914 351.089 355.78 347.955L351.105 343.279C349.966 342.141 349.196 340.686 348.894 339.104C348.593 337.522 348.773 335.887 349.412 334.409ZM391.808 351.737C391.808 347.305 395.407 343.706 399.839 343.706C404.271 343.706 407.87 347.305 407.87 351.737V376.019L423.178 384.855C427.017 387.07 428.334 391.986 426.119 395.825C423.903 399.664 418.987 400.982 415.148 398.766L395.824 387.612C394.603 386.908 393.589 385.894 392.884 384.673C392.179 383.452 391.808 382.066 391.808 380.656V351.737Z" fill="url(#paint0_linear_864_228)"/>
<defs>
<linearGradient id="paint0_linear_864_228" x1="17.7103" y1="31.3037" x2="478.843" y2="572.172" gradientUnits="userSpaceOnUse">
<stop stop-color="#1BA2D7"/>
<stop offset="1" stop-color="#8D3DFA"/>
</linearGradient>
</defs>
</svg>
