<svg width="512" height="512" viewBox="0 0 512 512" fill="none" xmlns="http://www.w3.org/2000/svg">
<path d="M416.735 7.18968L416.231 6.752C404.951 -2.1089 388.286 -2.53832 376.014 7.18968L280.774 95.3683V98.977C280.774 114.329 291.345 127.145 305.548 130.837V214.59H348.358C347.433 217.183 346.839 219.941 346.839 222.848V236.375L337.449 247.639C319.967 268.614 294.284 280.646 266.983 280.646H266.958C260.273 280.645 253.607 279.912 247.081 278.458L188.441 265.443L185.138 252.238C204.684 245.004 219.243 227.522 222.299 206.324H222.968C241.185 206.324 256 191.509 256 173.291C256 162.019 250.31 152.068 241.664 146.106L247.37 134.693C253.019 123.413 256 110.77 256 98.143C256 53.0622 219.326 16.3964 174.253 16.3964H156.903C129.544 16.3964 103.358 28.9652 86.2142 50.1884L85.6526 50.304C59.9453 55.4415 41.2903 78.1915 41.2903 104.411C41.2903 112.933 43.3053 121.464 47.1205 129.094L55.6263 146.114C46.9801 152.077 41.2903 162.028 41.2903 173.301C41.2903 191.518 56.1053 206.333 74.3226 206.333H74.9832C78.0387 227.531 92.5977 245.005 112.145 252.248L108.775 265.708L78.369 273.999C44.6348 283.191 20.3644 312.457 16.9703 346.72H0V511.881H115.613V478.849H239.484V346.72H267.008C323.857 346.72 374.726 312.812 396.594 260.332L402.126 247.045C417.61 244.303 429.419 230.843 429.419 214.591H487.226V130.838C501.43 127.146 512 114.33 512 98.9781V95.3693L416.735 7.18968ZM421.161 198.075H371.613V156.785C371.613 143.126 382.728 132.01 396.387 132.01C410.046 132.01 421.161 143.126 421.161 156.785V198.075ZM184.915 281.572L188.251 282.315L183.313 336.67L159.719 313.077L184.915 281.572ZM222.968 189.817V156.785C232.076 156.785 239.484 164.192 239.484 173.301C239.484 182.409 232.076 189.817 222.968 189.817ZM61.8942 121.711C59.2126 116.338 57.8134 110.416 57.8064 104.411C57.8064 86.0366 70.879 70.0986 88.8815 66.4898L95.5541 65.1685L97.4452 62.6498C111.41 44.0279 133.64 32.9125 156.903 32.9125H174.253C210.226 32.9125 239.484 62.1791 239.484 98.143C239.47 108.267 237.112 118.25 232.597 127.31L225.965 140.565C224.966 140.482 223.992 140.267 222.968 140.267C222.968 126.609 211.852 115.493 198.194 115.493H195.361C167.441 115.493 141.188 104.626 121.451 84.8805L115.613 79.0431L81.5814 113.075C76.8991 117.748 74.3226 123.975 74.3226 130.589V140.267C73.2986 140.267 72.3241 140.482 71.3249 140.573L61.8942 121.711ZM57.8064 173.301C57.8064 164.192 65.2139 156.785 74.3226 156.785V189.817C65.2139 189.817 57.8064 182.409 57.8064 173.301ZM90.8387 198.075V130.59C90.8459 128.401 91.7152 126.304 93.2583 124.751L115.803 102.207C137.852 121.49 165.797 132.01 195.361 132.01H198.194C202.744 132.01 206.452 135.71 206.452 140.268V198.075C206.452 220.842 187.929 239.365 165.161 239.365H132.129C109.362 239.365 90.8387 220.842 90.8387 198.075ZM132.129 255.881H165.161C166.45 255.881 167.713 255.774 168.985 255.691L172.668 270.432L148.645 300.466L124.614 270.431L128.297 255.69C129.577 255.774 130.841 255.881 132.129 255.881ZM113.986 336.67L109.081 282.737L112.549 281.787L137.579 313.068L113.986 336.67ZM82.721 289.929L92.9032 287.155L98.3123 346.72H86.2472C80.5161 336.893 69.9788 330.204 57.8064 330.204C48.8877 330.204 40.8114 333.788 34.8655 339.552C40.448 315.917 58.5579 296.519 82.721 289.929ZM74.3308 363.236H41.2903C41.2903 354.127 48.6978 346.72 57.8064 346.72C66.9151 346.72 74.3226 354.126 74.3308 363.236ZM99.0968 495.365H16.5161V363.236H24.7742C24.7742 372.345 32.1817 379.752 41.2903 379.752H74.3226C83.4312 379.752 90.8387 372.345 90.8387 363.236H99.0968V495.365ZM267.008 330.204H239.484V313.688H222.968V462.333H115.613V358.397L148.645 325.365L196.567 373.286L204.511 285.924L243.514 294.587C251.214 296.297 259.079 297.161 266.967 297.163H267C299.206 297.163 329.522 282.968 350.142 258.218L358.97 247.623H384L381.357 253.982C362.058 300.284 317.176 330.204 267.008 330.204ZM396.387 231.107H363.355V222.849C363.355 218.291 367.063 214.591 371.613 214.591H412.903C412.903 223.7 405.496 231.107 396.387 231.107ZM437.677 198.075V156.785C437.677 134.017 419.155 115.494 396.387 115.494C373.62 115.494 355.097 134.017 355.097 156.785V198.075H322.065V127.171L396.387 52.8485L470.71 127.171V198.075H437.677ZM482.089 115.196L396.387 29.4937L310.685 115.196C304.136 113.941 298.958 108.804 297.621 102.28L386.733 19.7409C392.134 15.488 400.318 15.4219 405.793 19.5675L495.154 102.272C493.824 108.796 488.638 113.941 482.089 115.196Z" fill="url(#paint0_linear_864_212)"/>
<path d="M115.614 156.785C120.174 156.785 123.872 153.087 123.872 148.527C123.872 143.966 120.174 140.269 115.614 140.269C111.053 140.269 107.355 143.966 107.355 148.527C107.355 153.087 111.053 156.785 115.614 156.785Z" fill="url(#paint1_linear_864_212)"/>
<path d="M181.676 156.785C186.237 156.785 189.934 153.087 189.934 148.527C189.934 143.966 186.237 140.269 181.676 140.269C177.115 140.269 173.418 143.966 173.418 148.527C173.418 153.087 177.115 156.785 181.676 156.785Z" fill="url(#paint2_linear_864_212)"/>
<path d="M187.441 192.559L192.255 173.301H105.033L109.848 192.559C114.307 210.396 130.262 222.849 148.644 222.849C167.027 222.849 182.981 210.396 187.441 192.559ZM126.224 189.817H171.065C168.034 199.611 159 206.333 148.644 206.333C138.289 206.333 129.254 199.611 126.224 189.817ZM33.0312 396.269H82.5796V412.785H33.0312V396.269ZM33.0312 429.301H82.5796V445.817H33.0312V429.301ZM33.0312 462.333H82.5796V478.849H33.0312V462.333ZM173.418 379.752H206.451V396.269H173.418V379.752Z" fill="url(#paint3_linear_864_212)"/>
<defs>
<linearGradient id="paint0_linear_864_212" x1="18.2681" y1="32.9924" x2="505.826" y2="592.672" gradientUnits="userSpaceOnUse">
<stop stop-color="#1BA2D7"/>
<stop offset="1" stop-color="#8D3DFA"/>
</linearGradient>
<linearGradient id="paint1_linear_864_212" x1="107.945" y1="141.333" x2="123.677" y2="159.388" gradientUnits="userSpaceOnUse">
<stop stop-color="#1BA2D7"/>
<stop offset="1" stop-color="#8D3DFA"/>
</linearGradient>
<linearGradient id="paint2_linear_864_212" x1="174.007" y1="141.333" x2="189.739" y2="159.388" gradientUnits="userSpaceOnUse">
<stop stop-color="#1BA2D7"/>
<stop offset="1" stop-color="#8D3DFA"/>
</linearGradient>
<linearGradient id="paint3_linear_864_212" x1="39.2188" y1="192.994" x2="307.951" y2="368.039" gradientUnits="userSpaceOnUse">
<stop stop-color="#1BA2D7"/>
<stop offset="1" stop-color="#8D3DFA"/>
</linearGradient>
</defs>
</svg>
