<svg width="508" height="508" viewBox="0 0 508 508" fill="none" xmlns="http://www.w3.org/2000/svg">
<path d="M382 172C429.424 172 468 133.424 468 86C468 38.576 429.424 0 382 0C334.576 0 296 38.576 296 86C296 133.424 334.576 172 382 172ZM382 12C422.808 12 456 45.192 456 86C456 126.808 422.808 160 382 160C341.192 160 308 126.808 308 86C308 45.192 341.192 12 382 12Z" fill="url(#paint0_linear_864_231)"/>
<path d="M376 131.232V142C376 143.591 376.632 145.117 377.757 146.243C378.883 147.368 380.409 148 382 148C383.591 148 385.117 147.368 386.243 146.243C387.368 145.117 388 143.591 388 142V131.232C393.683 129.884 398.747 126.662 402.376 122.084C406.004 117.507 407.985 111.841 408 106C407.992 99.107 405.25 92.4987 400.375 87.6246C395.501 82.7505 388.893 80.0085 382 80C374.28 80 368 73.72 368 66C368 58.28 374.28 52 382 52C389.72 52 396 58.28 396 66V71C396 72.5913 396.632 74.1174 397.757 75.2426C398.883 76.3679 400.409 77 402 77C403.591 77 405.117 76.3679 406.243 75.2426C407.368 74.1174 408 72.5913 408 71V66C407.985 60.159 406.004 54.4932 402.376 49.9157C398.747 45.3383 393.683 42.1159 388 40.768V30C388 28.4087 387.368 26.8826 386.243 25.7574C385.117 24.6321 383.591 24 382 24C380.409 24 378.883 24.6321 377.757 25.7574C376.632 26.8826 376 28.4087 376 30V40.768C370.317 42.1159 365.253 45.3383 361.624 49.9157C357.996 54.4932 356.015 60.159 356 66C356.008 72.893 358.75 79.5013 363.625 84.3754C368.499 89.2495 375.107 91.9915 382 92C389.72 92 396 98.28 396 106C396 113.72 389.72 120 382 120C374.28 120 368 113.72 368 106V101C368 99.4087 367.368 97.8826 366.243 96.7574C365.117 95.6321 363.591 95 362 95C360.409 95 358.883 95.6321 357.757 96.7574C356.632 97.8826 356 99.4087 356 101V106C356.015 111.841 357.996 117.507 361.624 122.084C365.253 126.662 370.317 129.884 376 131.232ZM274 180C283.92 180 292 171.928 292 162C292 152.072 283.92 144 274 144C264.08 144 256 152.072 256 162C256 171.928 264.08 180 274 180ZM274 156C275.591 156 277.117 156.632 278.243 157.757C279.368 158.883 280 160.409 280 162C280 163.591 279.368 165.117 278.243 166.243C277.117 167.368 275.591 168 274 168C272.409 168 270.883 167.368 269.757 166.243C268.632 165.117 268 163.591 268 162C268 160.409 268.632 158.883 269.757 157.757C270.883 156.632 272.409 156 274 156ZM464 158C464 161.312 466.688 164 470 164H480V174C480 175.591 480.632 177.117 481.757 178.243C482.883 179.368 484.409 180 486 180C487.591 180 489.117 179.368 490.243 178.243C491.368 177.117 492 175.591 492 174V164H502C503.591 164 505.117 163.368 506.243 162.243C507.368 161.117 508 159.591 508 158C508 156.409 507.368 154.883 506.243 153.757C505.117 152.632 503.591 152 502 152H492V142C492 140.409 491.368 138.883 490.243 137.757C489.117 136.632 487.591 136 486 136C484.409 136 482.883 136.632 481.757 137.757C480.632 138.883 480 140.409 480 142V152H470C468.409 152 466.883 152.632 465.757 153.757C464.632 154.883 464 156.409 464 158ZM198 28H208V38C208 39.5913 208.632 41.1174 209.757 42.2426C210.883 43.3679 212.409 44 214 44C215.591 44 217.117 43.3679 218.243 42.2426C219.368 41.1174 220 39.5913 220 38V28H230C231.591 28 233.117 27.3679 234.243 26.2426C235.368 25.1174 236 23.5913 236 22C236 20.4087 235.368 18.8826 234.243 17.7574C233.117 16.6321 231.591 16 230 16H220V6C220 4.4087 219.368 2.88258 218.243 1.75736C217.117 0.632141 215.591 0 214 0C212.409 0 210.883 0.632141 209.757 1.75736C208.632 2.88258 208 4.4087 208 6V16H198C196.409 16 194.883 16.6321 193.757 17.7574C192.632 18.8826 192 20.4087 192 22C192 23.5913 192.632 25.1174 193.757 26.2426C194.883 27.3679 196.409 28 198 28ZM58 68H82C83.5913 68 85.1174 67.3679 86.2426 66.2426C87.3679 65.1174 88 63.5913 88 62V30C88 28.4087 87.3679 26.8826 86.2426 25.7574C85.1174 24.6321 83.5913 24 82 24H58C56.4087 24 54.8826 24.6321 53.7574 25.7574C52.6321 26.8826 52 28.4087 52 30V62C52 65.312 54.688 68 58 68ZM64 36H76V56H64V36ZM106 68H130C131.591 68 133.117 67.3679 134.243 66.2426C135.368 65.1174 136 63.5913 136 62V30C136 28.4087 135.368 26.8826 134.243 25.7574C133.117 24.6321 131.591 24 130 24H106C104.409 24 102.883 24.6321 101.757 25.7574C100.632 26.8826 100 28.4087 100 30V62C100 65.312 102.688 68 106 68ZM112 36H124V56H112V36ZM58 124H82C83.5913 124 85.1174 123.368 86.2426 122.243C87.3679 121.117 88 119.591 88 118V86C88 84.4087 87.3679 82.8826 86.2426 81.7574C85.1174 80.6321 83.5913 80 82 80H58C56.4087 80 54.8826 80.6321 53.7574 81.7574C52.6321 82.8826 52 84.4087 52 86V118C52 121.312 54.688 124 58 124ZM64 92H76V112H64V92ZM106 124H130C131.591 124 133.117 123.368 134.243 122.243C135.368 121.117 136 119.591 136 118V86C136 84.4087 135.368 82.8826 134.243 81.7574C133.117 80.6321 131.591 80 130 80H106C104.409 80 102.883 80.6321 101.757 81.7574C100.632 82.8826 100 84.4087 100 86V118C100 121.312 102.688 124 106 124ZM112 92H124V112H112V92ZM58 180H82C83.5913 180 85.1174 179.368 86.2426 178.243C87.3679 177.117 88 175.591 88 174V142C88 140.409 87.3679 138.883 86.2426 137.757C85.1174 136.632 83.5913 136 82 136H58C56.4087 136 54.8826 136.632 53.7574 137.757C52.6321 138.883 52 140.409 52 142V174C52 177.312 54.688 180 58 180ZM64 148H76V168H64V148ZM106 180H130C131.591 180 133.117 179.368 134.243 178.243C135.368 177.117 136 175.591 136 174V142C136 140.409 135.368 138.883 134.243 137.757C133.117 136.632 131.591 136 130 136H106C104.409 136 102.883 136.632 101.757 137.757C100.632 138.883 100 140.409 100 142V174C100 177.312 102.688 180 106 180ZM112 148H124V168H112V148ZM88 230V198C88 196.409 87.3679 194.883 86.2426 193.757C85.1174 192.632 83.5913 192 82 192H58C56.4087 192 54.8826 192.632 53.7574 193.757C52.6321 194.883 52 196.409 52 198V230C52 233.312 54.688 236 58 236H82C83.5913 236 85.1174 235.368 86.2426 234.243C87.3679 233.117 88 231.591 88 230ZM76 224H64V204H76V224ZM106 236H130C131.591 236 133.117 235.368 134.243 234.243C135.368 233.117 136 231.591 136 230V198C136 196.409 135.368 194.883 134.243 193.757C133.117 192.632 131.591 192 130 192H106C104.409 192 102.883 192.632 101.757 193.757C100.632 194.883 100 196.409 100 198V230C100 233.312 102.688 236 106 236ZM112 204H124V224H112V204ZM206 136H182C180.409 136 178.883 136.632 177.757 137.757C176.632 138.883 176 140.409 176 142V174C176 177.312 178.688 180 182 180H206C207.591 180 209.117 179.368 210.243 178.243C211.368 177.117 212 175.591 212 174V142C212 140.409 211.368 138.883 210.243 137.757C209.117 136.632 207.591 136 206 136ZM200 168H188V148H200V168ZM206 192H182C180.409 192 178.883 192.632 177.757 193.757C176.632 194.883 176 196.409 176 198V230C176 233.312 178.688 236 182 236H206C207.591 236 209.117 235.368 210.243 234.243C211.368 233.117 212 231.591 212 230V198C212 196.409 211.368 194.883 210.243 193.757C209.117 192.632 207.591 192 206 192ZM200 224H188V204H200V224ZM206 248H182C180.409 248 178.883 248.632 177.757 249.757C176.632 250.883 176 252.409 176 254V286C176 289.312 178.688 292 182 292H206C207.591 292 209.117 291.368 210.243 290.243C211.368 289.117 212 287.591 212 286V254C212 252.409 211.368 250.883 210.243 249.757C209.117 248.632 207.591 248 206 248ZM200 280H188V260H200V280Z" fill="url(#paint1_linear_864_231)"/>
<path d="M502 304H460V287.36C472.472 284.856 484 274.152 484 250C484 227.928 473.32 196 454 196C434.68 196 424 227.928 424 250C424 274.152 435.528 284.856 448 287.36V304H388V287.36C400.472 284.856 412 274.152 412 250C412 227.928 401.32 196 382 196C362.68 196 352 227.928 352 250C352 274.152 363.528 284.856 376 287.36V304H316V287.36C328.472 284.856 340 274.152 340 250C340 227.928 329.32 196 310 196C290.68 196 280 227.928 280 250C280 274.152 291.528 284.856 304 287.36V304H236V118C236 116.409 235.368 114.883 234.243 113.757C233.117 112.632 231.591 112 230 112H164V6C164 4.4087 163.368 2.88258 162.243 1.75736C161.117 0.632141 159.591 0 158 0H30C28.4087 0 26.8826 0.632141 25.7574 1.75736C24.6321 2.88258 24 4.4087 24 6V304H6C4.4087 304 2.88258 304.632 1.75736 305.757C0.632141 306.883 0 308.409 0 310V342C0 343.232 0.376 344.432 1.088 345.44L57.088 425.44C58.208 427.048 60.048 428 62 428H124.08L234.512 506.88C235.625 507.672 236.975 508.061 238.338 507.984C239.702 507.907 240.999 507.368 242.016 506.456L320.872 435.48L455.376 403.832C456.616 403.542 457.732 402.864 458.56 401.896L506.56 345.896C507.494 344.81 508.008 343.425 508.008 341.992V309.992C508.008 308.401 507.376 306.875 506.251 305.749C505.125 304.624 503.599 303.992 502.008 303.992L502 304ZM436 250C436 228.768 446.304 208 454 208C461.696 208 472 228.768 472 250C472 266.52 465.44 276 454 276C442.56 276 436 266.52 436 250ZM364 250C364 228.768 374.304 208 382 208C389.696 208 400 228.768 400 250C400 266.52 393.44 276 382 276C370.56 276 364 266.52 364 250ZM292 250C292 228.768 302.304 208 310 208C317.696 208 328 228.768 328 250C328 266.52 321.44 276 310 276C298.56 276 292 266.52 292 250ZM164 124H224V304H164V124ZM36 12H152V304H120V254C120 252.409 119.368 250.883 118.243 249.757C117.117 248.632 115.591 248 114 248H74C72.4087 248 70.8826 248.632 69.7574 249.757C68.6321 250.883 68 252.409 68 254V304H36V12ZM108 260V304H80V260H108ZM129.488 417.12C128.471 416.392 127.251 416.001 126 416H65.128L17.528 348H108.68L208.76 394.192L228.888 488.12L129.488 417.12ZM450.72 392.608L316.624 424.16C315.641 424.391 314.733 424.867 313.984 425.544L241.696 490.608L219.872 388.752C219.677 387.841 219.273 386.988 218.691 386.26C218.109 385.533 217.366 384.951 216.52 384.56L137.32 348.008H383.52L355.52 376.008H310.008C308.417 376.008 306.891 376.64 305.765 377.765C304.64 378.891 304.008 380.417 304.008 382.008C304.008 383.599 304.64 385.125 305.765 386.251C306.891 387.376 308.417 388.008 310.008 388.008H358.008C359.6 388.008 361.128 387.376 362.248 386.248L400.488 348.008H488.96L450.72 392.608ZM496 336H12V316H496V336Z" fill="url(#paint2_linear_864_231)"/>
<defs>
<linearGradient id="paint0_linear_864_231" x1="302.137" y1="11.086" x2="465.969" y2="199.109" gradientUnits="userSpaceOnUse">
<stop stop-color="#1BA2D7"/>
<stop offset="1" stop-color="#8D3DFA"/>
</linearGradient>
<linearGradient id="paint1_linear_864_231" x1="68.27" y1="18.8204" x2="307.208" y2="447.053" gradientUnits="userSpaceOnUse">
<stop stop-color="#1BA2D7"/>
<stop offset="1" stop-color="#8D3DFA"/>
</linearGradient>
<linearGradient id="paint2_linear_864_231" x1="18.1256" y1="32.7419" x2="501.994" y2="588.073" gradientUnits="userSpaceOnUse">
<stop stop-color="#1BA2D7"/>
<stop offset="1" stop-color="#8D3DFA"/>
</linearGradient>
</defs>
</svg>
