<svg width="512" height="512" viewBox="0 0 512 512" fill="none" xmlns="http://www.w3.org/2000/svg">
<path d="M482 0H30C13.458 0 0 13.458 0 30V430C0 446.542 13.458 460 30 460H226.496L254.804 488.309C258.71 492.215 265.04 492.215 268.947 488.309L278.511 478.745C285.952 482.858 293.831 486.123 302 488.481V502C302 507.523 306.478 512 312 512H356C361.522 512 366 507.523 366 502V488.48C374.169 486.123 382.048 482.857 389.489 478.744L399.053 488.308C402.959 492.213 409.289 492.213 413.196 488.308L441.504 460H482C498.542 460 512 446.542 512 430V315C512 309.477 507.522 305 502 305C496.478 305 492 309.477 492 315V430C492 435.514 487.514 440 482 440H441.254L434.744 433.49C438.857 426.049 442.123 418.169 444.48 410H458C463.522 410 468 405.523 468 400V356C468 350.477 463.522 346 458 346H444.48C442.123 337.831 438.857 329.951 434.744 322.51L444.308 312.946C448.213 309.041 448.213 302.709 444.308 298.804L413.196 267.691C409.292 263.786 402.962 263.786 399.053 267.691L389.489 277.255C382.048 273.142 374.169 269.877 366 267.519V254C366 248.477 361.522 244 356 244H312C306.478 244 302 248.477 302 254V267.52C293.831 269.877 285.952 273.143 278.511 277.256L268.947 267.692C265.041 263.787 258.711 263.787 254.804 267.692L223.692 298.805C219.787 302.71 219.787 309.041 223.692 312.947L233.256 322.511C229.143 329.953 225.878 337.832 223.521 346.001H210C204.478 346.001 200 350.478 200 356.001V400.001C200 405.524 204.478 410.001 210 410.001H223.521C225.878 418.17 229.143 426.049 233.256 433.491L226.746 440.001H30C24.486 440.001 20 435.515 20 430.001V100H492V225C492 230.523 496.478 235 502 235C507.522 235 512 230.523 512 225V30C512 13.458 498.542 0 482 0ZM231.317 390H220V366H231.317C233.607 366 235.828 365.214 237.608 363.773C239.388 362.333 240.62 360.325 241.097 358.085C243.496 346.806 247.948 336.064 254.231 326.394C255.477 324.473 256.025 322.182 255.785 319.905C255.545 317.628 254.531 315.502 252.912 313.883L244.904 305.875L261.875 288.904L269.883 296.912C271.502 298.531 273.628 299.546 275.906 299.786C278.183 300.026 280.474 299.477 282.395 298.231C292.065 291.948 302.807 287.496 314.086 285.097C316.326 284.619 318.333 283.388 319.774 281.607C321.214 279.827 322 277.607 322 275.317V264H346V275.317C346 277.607 346.786 279.827 348.226 281.607C349.667 283.388 351.674 284.619 353.914 285.097C365.193 287.497 375.935 291.949 385.605 298.231C387.526 299.477 389.817 300.026 392.094 299.786C394.372 299.546 396.498 298.531 398.117 296.912L406.125 288.904L423.096 305.875L415.088 313.883C413.469 315.502 412.454 317.628 412.214 319.905C411.974 322.182 412.523 324.473 413.769 326.394C420.052 336.064 424.504 346.806 426.903 358.085C427.38 360.325 428.612 362.333 430.392 363.773C432.172 365.214 434.393 366 436.683 366H448V390H436.683C434.393 390 432.172 390.786 430.392 392.226C428.612 393.667 427.38 395.675 426.903 397.915C424.504 409.194 420.052 419.936 413.769 429.606C412.523 431.527 411.975 433.818 412.215 436.095C412.455 438.372 413.469 440.498 415.088 442.117L423.096 450.125L406.125 467.096L398.117 459.088C396.498 457.469 394.372 456.455 392.094 456.215C389.817 455.975 387.526 456.523 385.605 457.769C375.935 464.052 365.193 468.504 353.914 470.903C351.674 471.381 349.667 472.612 348.226 474.393C346.786 476.173 346 478.393 346 480.683V492H322V480.683C322 478.393 321.214 476.173 319.774 474.393C318.333 472.612 316.326 471.381 314.086 470.903C302.807 468.503 292.065 464.051 282.395 457.769C280.473 456.524 278.183 455.975 275.906 456.215C273.629 456.455 271.503 457.469 269.883 459.088L261.875 467.096L244.904 450.125L252.912 442.117C254.531 440.498 255.546 438.372 255.786 436.095C256.026 433.818 255.477 431.527 254.231 429.606C247.949 419.936 243.497 409.194 241.097 397.915C240.62 395.675 239.388 393.667 237.608 392.227C235.828 390.786 233.607 390 231.317 390ZM20 80V30C20 24.486 24.486 20 30 20H482C487.514 20 492 24.486 492 30V80H20Z" fill="white"/>
<path d="M448 40H232C226.478 40 222 44.477 222 50C222 55.523 226.478 60 232 60H448C453.522 60 458 55.523 458 50C458 44.477 453.522 40 448 40ZM108 40C105.37 40 102.79 41.07 100.93 42.93C99.0687 44.79 97.9997 47.37 97.9997 50C97.9997 52.63 99.0687 55.21 100.93 57.07C102.791 58.93 105.37 60 108 60C110.63 60 113.21 58.93 115.069 57.07C116.93 55.21 118 52.63 118 50C118 47.37 116.93 44.79 115.069 42.93C113.19 41.0614 110.65 40.0087 108 40ZM63.9997 40C61.3697 40 58.7897 41.07 56.9297 42.93C55.0687 44.79 53.9997 47.37 53.9997 50C53.9997 52.63 55.0687 55.21 56.9297 57.07C58.7907 58.93 61.3697 60 63.9997 60C66.6297 60 69.2097 58.93 71.0687 57.07C72.9297 55.21 73.9997 52.63 73.9997 50C73.9997 47.37 72.9297 44.79 71.0687 42.93C69.1896 41.0614 66.6497 40.0087 63.9997 40ZM152 40C149.37 40 146.79 41.07 144.93 42.93C143.07 44.79 142 47.37 142 50C142 52.63 143.069 55.21 144.93 57.07C146.791 58.93 149.37 60 152 60C154.63 60 157.21 58.93 159.069 57.07C160.93 55.21 162 52.63 162 50C162 47.37 160.93 44.79 159.069 42.93C157.19 41.0614 154.65 40.0087 152 40ZM334 443.169C369.935 443.169 399.169 413.934 399.169 378C399.169 342.066 369.935 312.831 334 312.831C298.065 312.831 268.831 342.065 268.831 378C268.831 413.935 298.065 443.169 334 443.169ZM334 332.831C358.906 332.831 379.169 353.094 379.169 378C379.169 402.906 358.906 423.169 334 423.169C309.094 423.169 288.831 402.907 288.831 378C288.831 353.093 309.094 332.831 334 332.831ZM288.464 170.017H312.263C317.785 170.017 322.263 165.54 322.263 160.017C322.263 154.494 317.785 150.017 312.263 150.017H288.464C282.942 150.017 278.464 154.494 278.464 160.017C278.464 165.54 282.941 170.017 288.464 170.017ZM448 150.017H361.5C355.978 150.017 351.5 154.494 351.5 160.017C351.5 165.54 355.978 170.017 361.5 170.017H448C453.522 170.017 458 165.54 458 160.017C458 154.494 453.522 150.017 448 150.017ZM288.464 218.015H390.097C395.619 218.015 400.097 213.538 400.097 208.015C400.097 202.492 395.619 198.015 390.097 198.015H288.464C282.942 198.015 278.464 202.492 278.464 208.015C278.464 213.538 282.941 218.015 288.464 218.015ZM448 198.015H431.282C425.76 198.015 421.282 202.492 421.282 208.015C421.282 213.538 425.76 218.015 431.282 218.015H448C453.522 218.015 458 213.538 458 208.015C458 202.492 453.522 198.015 448 198.015ZM63.9997 366H64.0417C69.5637 366 74.0207 361.523 74.0207 356C74.0207 350.477 69.5217 346 63.9997 346C58.4777 346 53.9997 350.477 53.9997 356C53.9997 361.523 58.4777 366 63.9997 366ZM168.305 356C168.305 350.477 163.827 346 158.305 346H109.047C103.525 346 99.0467 350.477 99.0467 356C99.0467 361.523 103.525 366 109.047 366H158.305C163.827 366 168.305 361.523 168.305 356ZM63.9997 414H123.667C129.189 414 133.667 409.523 133.667 404C133.667 398.477 129.189 394 123.667 394H63.9997C58.4777 394 53.9997 398.477 53.9997 404C53.9997 409.523 58.4777 414 63.9997 414ZM226.847 186.413L204.576 147.837C201.815 143.055 195.703 141.417 190.916 144.176L180.514 150.181C176.158 147.022 171.488 144.321 166.578 142.121V130.124C166.578 124.601 162.1 120.124 156.578 120.124H112.033C106.511 120.124 102.033 124.601 102.033 130.124V142.121C97.1222 144.321 92.4519 147.022 88.0957 150.181L77.6947 144.176C72.9097 141.415 66.7967 143.053 64.0347 147.836L41.7627 186.412C41.1057 187.549 40.6792 188.805 40.5076 190.107C40.336 191.409 40.4226 192.732 40.7625 194C41.1024 195.269 41.6889 196.458 42.4885 197.5C43.2881 198.542 44.2852 199.416 45.4227 200.072L55.8287 206.08C55.2848 211.428 55.2848 216.818 55.8287 222.166L45.4227 228.174C44.2852 228.83 43.2881 229.704 42.4885 230.746C41.6889 231.788 41.1024 232.977 40.7625 234.246C40.4226 235.514 40.336 236.837 40.5076 238.139C40.6792 239.441 41.1057 240.697 41.7627 241.834L64.0347 280.41C66.7967 285.194 72.9127 286.832 77.6947 284.07L88.0957 278.065C92.4514 281.224 97.1218 283.925 102.033 286.125V298.122C102.033 303.645 106.511 308.122 112.033 308.122H156.578C162.1 308.122 166.578 303.645 166.578 298.122V286.125C171.488 283.925 176.158 281.224 180.514 278.065L190.916 284.07C195.701 286.831 201.816 285.192 204.576 280.409L226.847 241.833C229.609 237.05 227.97 230.935 223.187 228.173L212.782 222.165C213.326 216.817 213.326 211.427 212.782 206.079L223.187 200.071C227.97 197.312 229.608 191.196 226.847 186.413ZM192.088 202.736C192.819 206.476 193.191 210.308 193.191 214.125C193.191 217.942 192.82 221.774 192.088 225.514C191.687 227.559 191.936 229.679 192.799 231.576C193.662 233.473 195.096 235.053 196.901 236.095L204.526 240.498L192.255 261.754L184.619 257.346C182.811 256.303 180.723 255.851 178.646 256.054C176.569 256.257 174.608 257.105 173.037 258.478C167.28 263.525 160.59 267.395 153.345 269.867C151.37 270.541 149.656 271.816 148.443 273.513C147.229 275.21 146.577 277.244 146.577 279.33V288.126H122.032V279.33C122.032 277.244 121.379 275.21 120.165 273.513C118.951 271.816 117.237 270.541 115.263 269.867C108.017 267.395 101.326 263.525 95.5697 258.478C93.9986 257.105 92.0373 256.257 89.9606 256.055C87.8839 255.852 85.7957 256.304 83.9887 257.347L76.3537 261.755L64.0817 240.499L71.7077 236.096C73.5127 235.054 74.947 233.474 75.8099 231.577C76.6729 229.68 76.9214 227.56 76.5207 225.515C75.7897 221.775 75.4177 217.943 75.4177 214.126C75.4177 210.309 75.7887 206.477 76.5207 202.737C76.9211 200.692 76.6724 198.572 75.8095 196.675C74.9466 194.778 73.5125 193.198 71.7077 192.156L64.0817 187.753L76.3537 166.497L83.9887 170.905C85.7956 171.949 87.8838 172.401 89.9607 172.198C92.0375 171.995 93.9988 171.148 95.5697 169.774C101.326 164.727 108.017 160.858 115.263 158.385C117.237 157.711 118.951 156.436 120.165 154.739C121.379 153.042 122.032 151.008 122.032 148.922V140.126H146.577V148.922C146.577 151.008 147.229 153.042 148.443 154.739C149.656 156.436 151.37 157.711 153.345 158.385C160.59 160.857 167.281 164.726 173.037 169.774C174.608 171.147 176.569 171.994 178.646 172.197C180.723 172.4 182.811 171.949 184.619 170.906L192.255 166.498L204.526 187.754L196.901 192.157C195.096 193.199 193.662 194.778 192.799 196.675C191.936 198.572 191.687 200.691 192.088 202.736Z" fill="white"/>
<path d="M134.305 180.125C115.557 180.125 100.305 195.377 100.305 214.125C100.305 232.873 115.557 248.125 134.305 248.125C153.053 248.125 168.305 232.873 168.305 214.125C168.305 195.377 153.053 180.125 134.305 180.125ZM134.305 228.125C126.585 228.125 120.305 221.845 120.305 214.125C120.305 206.405 126.585 200.125 134.305 200.125C142.025 200.125 148.305 206.405 148.305 214.125C148.305 221.845 142.024 228.125 134.305 228.125ZM502 260C499.37 260 496.79 261.07 494.93 262.93C493.07 264.79 492 267.37 492 270C492 272.63 493.069 275.21 494.93 277.07C496.791 278.93 499.37 280 502 280C504.63 280 507.21 278.93 509.069 277.07C510.929 275.21 512 272.63 512 270C512 267.37 510.93 264.79 509.069 262.93C507.19 261.061 504.65 260.009 502 260Z" fill="white"/>
</svg>
