<svg width="462" height="498" viewBox="0 0 462 498" fill="none" xmlns="http://www.w3.org/2000/svg">
<path fill-rule="evenodd" clip-rule="evenodd" d="M424.843 497.969H37.1636C35.0335 497.969 32.9907 497.123 31.4846 495.617C29.9784 494.111 29.1322 492.068 29.1322 489.938V436.495C29.1322 434.365 29.9784 432.322 31.4846 430.816C32.9907 429.31 35.0335 428.464 37.1636 428.464H77.5925V383.053C77.5925 380.923 78.4387 378.88 79.9449 377.374C81.451 375.867 83.4938 375.021 85.6239 375.021H126.053V329.61C126.053 327.48 126.899 325.437 128.405 323.931C129.911 322.425 131.954 321.578 134.084 321.578H174.512V276.166C174.512 274.036 175.358 271.993 176.864 270.487C178.371 268.981 180.413 268.135 182.544 268.135H279.463C281.593 268.135 283.636 268.981 285.142 270.487C286.648 271.993 287.494 274.036 287.494 276.166V321.578H327.923C330.053 321.578 332.096 322.425 333.602 323.931C335.109 325.437 335.955 327.48 335.955 329.61V375.021H376.384C378.514 375.021 380.557 375.867 382.063 377.374C383.569 378.88 384.415 380.923 384.415 383.053V428.464H424.843C426.973 428.464 429.016 429.31 430.522 430.816C432.028 432.322 432.874 434.365 432.874 436.495V489.938C432.874 492.068 432.028 494.111 430.522 495.617C429.016 497.123 426.973 497.969 424.843 497.969ZM126.053 444.527H45.195V481.907H126.053V444.527ZM174.512 391.084H93.6553V428.464H174.512V391.084ZM222.972 337.641H142.116V375.021H222.972V337.641ZM271.432 321.578V284.197H190.575V321.578H271.432ZM319.892 375.021V337.641H239.035V375.021H319.892ZM368.352 428.464V391.084H287.494V428.464H368.352ZM335.955 481.907H416.812V444.527H335.955V481.907ZM239.035 481.907H319.892V444.527H239.035V481.907ZM142.116 481.907H222.972V444.527H142.116V481.907ZM190.575 391.084V428.464H271.432V391.084H190.575ZM159.377 176.988L151.414 173.578C139.501 168.473 132.623 156.561 134.144 143.708L134.145 143.699L136 128.186L136.003 128.161C136.323 125.552 135.899 123.249 134.734 120.912L127.699 107C121.829 95.4411 124.216 81.8891 133.673 73.0115L145.061 62.3287L145.075 62.3147C146.988 60.5297 148.15 58.5058 148.739 55.9719L148.743 55.9548L152.317 40.7464C155.253 28.1362 165.793 19.2906 178.729 18.5658H178.735L194.329 17.7034C196.942 17.5598 199.144 16.7708 201.215 15.2097L201.233 15.1956L213.743 5.82099L213.758 5.80894C224.145 -1.93631 237.862 -1.93631 248.248 5.80894L248.264 5.82099L260.768 15.1926C262.864 16.7597 265.055 17.5598 267.678 17.7034L283.273 18.5658H283.278C296.215 19.2906 306.755 28.1362 309.685 40.7294L313.263 55.9548L313.267 55.9719C313.857 58.5058 315.019 60.5297 316.931 62.3147L316.947 62.3287L328.334 73.0115C337.792 81.8891 340.177 95.4411 334.314 106.987L327.266 120.929C326.105 123.26 325.685 125.559 326.004 128.161L326.007 128.186L327.861 143.699L327.862 143.708C329.383 156.564 322.535 168.476 310.591 173.58L302.631 176.988L324.857 224.749C326.548 228.277 326.091 232.075 323.783 235.009C321.499 238.036 318.001 239.42 314.225 238.739L291.761 234.821L280.29 254.518C278.457 257.725 275.133 259.602 271.354 259.463C267.6 259.323 264.488 257.318 262.818 253.842L262.778 253.755L240.856 206.672L234.675 204.805L234.635 204.793C232.166 204.033 229.84 204.033 227.372 204.793L227.331 204.805L221.151 206.672L199.258 253.694C197.679 257.192 194.456 259.321 190.652 259.463C186.876 259.602 183.554 257.728 181.726 254.535L170.267 234.821L147.782 238.74C143.988 239.422 140.479 238.023 138.232 235.02C135.922 232.055 135.47 228.295 137.123 224.805L159.377 176.988ZM289.308 186.429L282.058 197.514C277.007 205.245 269.022 209.845 260.362 210.51L272.343 236.246L280.694 221.906C281.52 220.489 282.76 219.358 284.247 218.666C285.735 217.974 287.398 217.754 289.014 218.036L305.342 220.884L289.308 186.429ZM201.646 210.51C192.984 209.845 185.001 205.246 179.951 197.517L172.7 186.429L156.663 220.887L173.02 218.036C174.637 217.754 176.302 217.975 177.79 218.668C179.277 219.361 180.517 220.493 181.342 221.912L189.668 236.235L201.646 210.51ZM238.647 18.6862L238.631 18.6742C234.031 15.2538 227.962 15.2568 223.364 18.6832L210.885 28.0358C206.167 31.5927 201.161 33.4158 195.212 33.7421L179.626 34.6034C173.916 34.9237 169.258 38.8219 167.963 44.3876L167.959 44.4047L164.385 59.6121C163.041 65.3837 160.391 69.9927 156.05 74.0435L144.666 84.7232C140.491 88.6425 139.43 94.6239 142.021 99.7268L142.027 99.7399L149.079 113.685L149.095 113.717C151.737 119.002 152.67 124.216 151.949 130.092L150.096 145.597C149.423 151.284 152.469 156.555 157.741 158.815L172.048 164.939C177.52 167.258 181.585 170.69 184.845 175.654L184.855 175.667L193.397 188.728C196.536 193.533 202.24 195.592 207.734 193.944L222.681 189.43C228.337 187.696 233.669 187.696 239.325 189.43L254.273 193.944C259.767 195.592 265.471 193.533 268.611 188.728L277.152 175.667L277.161 175.654C280.422 170.69 284.488 167.258 289.932 164.951L304.269 158.814L304.274 158.811C309.56 156.553 312.583 151.282 311.911 145.597L310.061 130.118C309.337 124.216 310.269 119.002 312.912 113.717L312.929 113.685L319.979 99.7399L319.986 99.7268C322.578 94.6239 321.516 88.6425 317.341 84.7232L305.972 74.0575C301.617 69.9927 298.965 65.3837 297.627 59.6292L294.049 44.4047L294.045 44.3876C292.749 38.8219 288.091 34.9237 282.381 34.6034L266.799 33.7421C260.856 33.4158 255.892 31.6047 251.145 28.0538L251.14 28.0488L238.647 18.6862ZM231.018 173.844C193.267 173.844 162.469 143.047 162.469 105.296C162.469 67.5451 193.267 36.7468 231.018 36.7468C268.737 36.7468 299.538 67.5441 299.538 105.296C299.538 143.048 268.737 173.844 231.018 173.844ZM231.018 157.782C259.897 157.782 283.475 134.199 283.475 105.296C283.475 76.3917 259.897 52.8095 231.018 52.8095C202.113 52.8095 178.532 76.3907 178.532 105.296C178.532 134.2 202.113 157.782 231.018 157.782ZM215.69 87.1105L219.858 74.2834C220.624 71.9306 222.114 69.8803 224.117 68.4264C226.119 66.9725 228.529 66.1894 231.004 66.1894C233.478 66.1894 235.889 66.9725 237.891 68.4264C239.893 69.8803 241.384 71.9306 242.149 74.2834L246.317 87.1105H259.804C262.279 87.1118 264.689 87.896 266.69 89.3508C268.691 90.8056 270.181 92.8564 270.946 95.2095C271.71 97.5627 271.71 100.097 270.946 102.451C270.182 104.804 268.693 106.855 266.692 108.31L255.781 116.238L259.949 129.065C260.714 131.419 260.714 133.955 259.949 136.308C259.184 138.662 257.694 140.713 255.691 142.168C253.689 143.623 251.278 144.406 248.803 144.406C246.328 144.406 243.917 143.623 241.914 142.168L231.004 134.24L220.092 142.168C218.09 143.623 215.679 144.407 213.204 144.407C210.728 144.408 208.317 143.624 206.314 142.17C204.312 140.715 202.822 138.663 202.057 136.309C201.293 133.955 201.293 131.419 202.059 129.065L206.226 116.238L195.314 108.31C193.312 106.856 191.822 104.805 191.057 102.451C190.292 100.097 190.292 97.5614 191.057 95.2077C191.822 92.8539 193.312 90.8027 195.315 89.3482C197.317 87.8936 199.728 87.1103 202.203 87.1105H215.69ZM215.572 103.173L218.221 105.098C220.223 106.553 221.713 108.604 222.478 110.957C223.242 113.311 223.242 115.846 222.477 118.2L221.467 121.315L224.115 119.39C226.117 117.935 228.528 117.152 231.003 117.152C233.478 117.152 235.889 117.935 237.892 119.39L240.541 121.315L239.529 118.2C238.764 115.846 238.764 113.311 239.529 110.957C240.294 108.603 241.784 106.552 243.787 105.098L246.435 103.173H243.161C238.083 103.173 233.584 99.9045 232.016 95.0756L231.004 91.9615L229.992 95.0756C229.227 97.4294 227.737 99.4806 225.735 100.935C223.732 102.39 221.321 103.173 218.846 103.173H215.572ZM440.102 143.71L402.25 99.1184L364.398 143.71H376.735C378.865 143.71 380.908 144.556 382.414 146.062C383.92 147.568 384.766 149.611 384.766 151.741V277.136C384.766 281.568 381.167 285.167 376.735 285.167C372.303 285.167 368.704 281.568 368.704 277.136V159.772H354.526C349.892 159.772 346 157.266 344.08 153.079C342.168 148.939 342.784 144.293 345.787 140.813L393.475 84.6339C395.697 81.9915 398.709 80.567 402.25 80.567C405.693 80.567 408.705 81.9403 410.976 84.5776L411.013 84.6208L458.729 140.834C461.682 144.302 462.306 148.945 460.398 153.079C458.471 157.281 454.55 159.772 449.973 159.772H435.774V237.772C435.774 242.204 432.175 245.803 427.742 245.803C423.31 245.803 419.711 242.204 419.711 237.772V151.741C419.711 149.611 420.557 147.568 422.063 146.062C423.569 144.556 425.612 143.71 427.742 143.71H440.102ZM419.711 257.454C419.711 253.022 423.31 249.423 427.742 249.423C432.175 249.423 435.774 253.022 435.774 257.454V277.136C435.774 281.568 432.175 285.167 427.742 285.167C423.31 285.167 419.711 281.568 419.711 277.136V257.454ZM419.711 296.818C419.711 292.385 423.31 288.786 427.742 288.786C432.175 288.786 435.774 292.385 435.774 296.818V316.5C435.774 320.932 432.175 324.531 427.742 324.531C423.31 324.531 419.711 320.932 419.711 316.5V296.818ZM384.766 316.5C384.766 320.932 381.167 324.531 376.735 324.531C372.303 324.531 368.704 320.932 368.704 316.5V296.818C368.704 292.385 372.303 288.786 376.735 288.786C381.167 288.786 384.766 292.385 384.766 296.818V316.5ZM86.7182 236.433L54.2483 198.181L21.7775 236.433H31.2405C32.2952 236.433 33.3395 236.641 34.3139 237.044C35.2883 237.448 36.1737 238.039 36.9195 238.785C37.6653 239.531 38.2569 240.416 38.6605 241.391C39.0641 242.365 39.2718 243.41 39.2718 244.464V322.109C39.2718 326.541 35.6728 330.14 31.2405 330.14C26.8081 330.14 23.2091 326.541 23.2091 322.109V252.496H11.1771C6.73473 252.496 2.92786 250.077 1.05756 246C-0.794677 241.987 -0.187304 237.48 2.67086 234.121L45.7421 183.381L45.7793 183.337C47.9829 180.778 50.9063 179.445 54.2483 179.445C57.6848 179.445 60.6082 180.83 62.7646 183.394L105.765 234.051C108.711 237.437 109.32 241.965 107.458 245.999C105.595 250.062 101.816 252.496 97.3186 252.496H85.3067V357.634C85.3067 362.068 81.7076 365.666 77.2753 365.666C72.843 365.666 69.2439 362.068 69.2439 357.634V244.464C69.2439 242.334 70.0901 240.291 71.5963 238.785C73.1024 237.279 75.1452 236.433 77.2753 236.433H86.7182ZM23.2091 339.872C23.2091 335.439 26.8081 331.841 31.2405 331.841C35.6728 331.841 39.2718 335.439 39.2718 339.872V357.634C39.2718 362.068 35.6728 365.666 31.2405 365.666C26.8081 365.666 23.2091 362.068 23.2091 357.634V339.872ZM23.2091 375.398C23.2091 370.965 26.8081 367.366 31.2405 367.366C35.6728 367.366 39.2718 370.965 39.2718 375.398V393.161C39.2718 397.593 35.6728 401.192 31.2405 401.192C26.8081 401.192 23.2091 397.593 23.2091 393.161V375.398Z" fill="url(#paint0_linear_1134_484)"/>
<defs>
<linearGradient id="paint0_linear_1134_484" x1="339.348" y1="479.966" x2="47.0833" y2="38.3183" gradientUnits="userSpaceOnUse">
<stop offset="0.0001" stop-color="#BE42B1"/>
<stop offset="1" stop-color="#3B4BAA"/>
</linearGradient>
</defs>
</svg>
