<svg width="480" height="480" viewBox="0 0 480 480" fill="none" xmlns="http://www.w3.org/2000/svg">
<path d="M8 480H248C250.122 480 252.157 479.157 253.657 477.657C255.157 476.157 256 474.122 256 472V435.752C255.966 414.495 247.854 394.046 233.308 378.546C218.761 363.046 198.868 353.654 177.656 352.272L182.176 350.4C189.701 347.432 196.173 342.294 200.771 335.639C205.369 328.984 207.885 321.112 208 313.024V288.8C212.591 287.325 216.603 284.448 219.473 280.573C222.344 276.698 223.927 272.021 224 267.2C223.976 266.456 223.912 265.713 223.808 264.976C223.894 264.655 223.958 264.329 224 264V233.76C223.979 214.204 216.201 195.455 202.373 181.627C188.545 167.799 169.796 160.021 150.24 160H105.76C86.2041 160.021 67.4553 167.799 53.6272 181.627C39.7991 195.455 32.0212 214.204 32 233.76V264C32.0467 264.3 32.1135 264.597 32.2 264.888C32.0918 265.655 32.0251 266.426 32 267.2C32.0733 272.021 33.6564 276.698 36.5265 280.573C39.3966 284.448 43.4093 287.325 48 288.8V313.032C48.1161 321.119 50.633 328.989 55.231 335.642C59.829 342.295 66.3006 347.432 73.824 350.4L78.344 352.272C57.1323 353.654 37.2387 363.046 22.6923 378.546C8.14591 394.046 0.0341738 414.495 0 435.752V472C0 474.122 0.842854 476.157 2.34315 477.657C3.84344 479.157 5.87827 480 8 480ZM120.592 464L125.048 401.832L128 398.832L130.952 401.832L135.408 464H120.592ZM133.696 381.824C132.952 381.069 132.065 380.47 131.087 380.061C130.109 379.652 129.06 379.441 128 379.441C126.94 379.441 125.891 379.652 124.913 380.061C123.935 380.47 123.048 381.069 122.304 381.824L97.04 407.48L89.64 368H166.4L159 407.48L133.696 381.824ZM182.496 368.856C198.486 371.313 213.07 379.405 223.615 391.673C234.16 403.941 239.972 419.575 240 435.752V464H200V440H184V464H151.448L148.248 419.4L158.304 429.6C159.045 430.36 159.931 430.964 160.909 431.377C161.887 431.789 162.938 432.001 164 432C165.865 432 167.672 431.349 169.108 430.159C170.544 428.968 171.519 427.313 171.864 425.48L182.496 368.856ZM48 233.76C48.0169 218.446 54.1078 203.765 64.9362 192.936C75.7647 182.108 90.4463 176.017 105.76 176H150.24C165.554 176.017 180.235 182.108 191.064 192.936C201.892 203.765 207.983 218.446 208 233.76V245.6C207.728 245.504 207.48 245.376 207.2 245.288C205.634 238.613 201.858 232.664 196.484 228.406C191.111 224.148 184.456 221.831 177.6 221.832H169.768L107.368 192.736C105.988 192.091 104.452 191.854 102.942 192.053C101.432 192.251 100.009 192.876 98.8422 193.855C97.6751 194.834 96.8117 196.126 96.3536 197.579C95.8955 199.031 95.8616 200.585 96.256 202.056L101.56 221.832H78.4C71.5463 221.84 64.8956 224.16 59.5239 228.416C54.1523 232.673 50.3739 238.617 48.8 245.288C48.52 245.376 48.272 245.504 48 245.6V233.76ZM64 313.024V282.104C64 279.982 63.1571 277.947 61.6569 276.447C60.1566 274.947 58.1217 274.104 56 274.104C55.0082 274.243 53.9981 274.168 53.0379 273.884C52.0777 273.599 51.1897 273.112 50.4339 272.455C49.6781 271.798 49.0721 270.986 48.6568 270.075C48.2416 269.163 48.0267 268.173 48.0267 267.172C48.0267 266.171 48.2416 265.181 48.6568 264.269C49.0721 263.358 49.6781 262.546 50.4339 261.889C51.1897 261.232 52.0777 260.745 53.0379 260.46C53.9981 260.176 55.0082 260.101 56 260.24C58.1217 260.24 60.1566 259.397 61.6569 257.897C63.1571 256.397 64 254.362 64 252.24C64 250.349 64.3725 248.476 65.0961 246.729C65.8198 244.982 66.8805 243.395 68.2177 242.058C69.5548 240.72 71.1423 239.66 72.8894 238.936C74.6364 238.212 76.509 237.84 78.4 237.84H112C113.226 237.84 114.436 237.558 115.536 237.015C116.636 236.473 117.597 235.685 118.344 234.712C119.091 233.74 119.604 232.608 119.844 231.405C120.084 230.203 120.044 228.961 119.728 227.776L116.168 214.496L164.616 237.096C165.677 237.586 166.831 237.839 168 237.84H177.6C181.419 237.84 185.082 239.357 187.782 242.058C190.483 244.758 192 248.421 192 252.24C192 254.362 192.843 256.397 194.343 257.897C195.843 259.397 197.878 260.24 200 260.24C200.994 260.096 202.006 260.168 202.97 260.45C203.933 260.733 204.825 261.219 205.583 261.876C206.342 262.533 206.951 263.346 207.368 264.259C207.785 265.172 208.001 266.164 208.001 267.168C208.001 268.172 207.785 269.164 207.368 270.077C206.951 270.99 206.342 271.803 205.583 272.46C204.825 273.117 203.933 273.603 202.97 273.886C202.006 274.168 200.994 274.24 200 274.096C197.878 274.096 195.843 274.939 194.343 276.439C192.843 277.939 192 279.974 192 282.096V313.016C191.879 317.938 190.3 322.712 187.461 326.735C184.622 330.757 180.653 333.845 176.056 335.608L144.432 348.72C139.305 350.855 133.81 351.969 128.256 352H127.744C122.191 351.967 116.697 350.856 111.568 348.728L79.944 335.616C75.3473 333.853 71.3778 330.765 68.5391 326.743C65.7005 322.72 64.1206 317.946 64 313.024ZM16 435.752C16.0287 419.573 21.8423 403.937 32.3909 391.669C42.9395 379.401 57.5275 371.309 73.52 368.856L84.136 425.48C84.4023 426.923 85.0603 428.265 86.038 429.359C87.0157 430.453 88.2756 431.257 89.6796 431.683C91.0837 432.109 92.5779 432.141 93.9988 431.775C95.4197 431.409 96.7126 430.659 97.736 429.608L107.792 419.4L104.552 464H72V440H56V464H16V435.752Z" fill="white"/>
<path d="M95.9996 272C98.1213 272 100.156 272.843 101.656 274.343C103.157 275.843 104 277.878 104 280H120C120 273.635 117.471 267.53 112.97 263.029C108.469 258.529 102.365 256 95.9996 256C89.6344 256 83.5299 258.529 79.029 263.029C74.5282 267.53 71.9996 273.635 71.9996 280H87.9996C87.9996 277.878 88.8425 275.843 90.3428 274.343C91.843 272.843 93.8779 272 95.9996 272ZM160 272C162.121 272 164.156 272.843 165.656 274.343C167.157 275.843 168 277.878 168 280H184C184 273.635 181.471 267.53 176.97 263.029C172.469 258.529 166.365 256 160 256C153.634 256 147.53 258.529 143.029 263.029C138.528 267.53 136 273.635 136 280H152C152 277.878 152.842 275.843 154.343 274.343C155.843 272.843 157.878 272 160 272ZM112 312H95.9996C95.9996 325.464 110.056 336 128 336C145.944 336 160 325.464 160 312H144C144 315.264 137.768 320 128 320C118.232 320 112 315.264 112 312ZM344 0H280C277.878 0 275.843 0.842854 274.343 2.34315C272.842 3.84344 272 5.87827 272 8V288H264C253.395 288.013 243.228 292.231 235.729 299.73C228.231 307.228 224.012 317.395 224 328V344C224 346.122 224.842 348.157 226.343 349.657C227.843 351.157 229.878 352 232 352H328C330.121 352 332.156 351.157 333.656 349.657C335.157 348.157 336 346.122 336 344V328C335.987 317.395 331.769 307.228 324.27 299.73C316.771 292.231 306.604 288.013 296 288H288V112H336V120C336 122.122 336.842 124.157 338.343 125.657C339.843 127.157 341.878 128 344 128H472C473.582 128 475.128 127.53 476.443 126.651C477.759 125.772 478.784 124.523 479.389 123.061C479.994 121.6 480.153 119.991 479.844 118.44C479.536 116.888 478.774 115.463 477.656 114.344L435.312 72L477.656 29.656C478.774 28.5372 479.536 27.1119 479.844 25.5603C480.153 24.0086 479.994 22.4004 479.389 20.9388C478.784 19.4772 477.759 18.2279 476.443 17.3488C475.128 16.4697 473.582 16.0003 472 16H352V8C352 5.87827 351.157 3.84344 349.656 2.34315C348.156 0.842854 346.121 0 344 0ZM296 304C302.365 304 308.469 306.529 312.97 311.029C317.471 315.53 320 321.635 320 328V336H240V328C240 321.635 242.528 315.53 247.029 311.029C251.53 306.529 257.634 304 264 304H296ZM452.688 32L418.344 66.344C416.844 67.8442 416.001 69.8787 416.001 72C416.001 74.1213 416.844 76.1558 418.344 77.656L452.688 112H352V104C352 101.878 351.157 99.8434 349.656 98.3431C348.156 96.8429 346.121 96 344 96H288V16H336V24C336 26.1217 336.842 28.1566 338.343 29.6569C339.843 31.1571 341.878 32 344 32H452.688ZM111.584 42.136C111.115 40.7385 110.269 39.4976 109.14 38.5504C108.01 37.6031 106.641 36.9863 105.184 36.768L76.2396 32.336L63.1996 4.6C62.5536 3.22563 61.5297 2.06353 60.2476 1.24954C58.9655 0.435549 57.4783 0.00329208 55.9596 0.00329208C54.441 0.00329208 52.9537 0.435549 51.6716 1.24954C50.3896 2.06353 49.3657 3.22563 48.7196 4.6L35.7356 32.336L6.79161 36.8C5.33895 37.0227 3.97572 37.6412 2.85149 38.5878C1.72725 39.5343 0.885467 40.7722 0.4185 42.1656C-0.0484667 43.5591 -0.12257 45.0543 0.204324 46.4871C0.531217 47.9199 1.24647 49.235 2.27161 50.288L23.4556 72L18.4396 102.752C18.1979 104.234 18.3782 105.754 18.9599 107.139C19.5416 108.523 20.5011 109.716 21.7288 110.58C22.9565 111.445 24.4028 111.947 25.9022 112.028C27.4016 112.109 28.8936 111.767 30.2076 111.04L55.9996 96.744L81.7916 111C83.1066 111.738 84.6034 112.09 86.1095 112.014C87.6156 111.938 89.0697 111.439 90.304 110.572C91.5383 109.706 92.5026 108.508 93.0857 107.118C93.6688 105.727 93.8469 104.2 93.5996 102.712L88.5436 72L109.728 50.296C110.76 49.2398 111.48 47.9183 111.808 46.478C112.135 45.0378 112.058 43.5349 111.584 42.136ZM74.2716 63.68C73.3979 64.576 72.7466 65.6646 72.3701 66.8581C71.9935 68.0516 71.9023 69.3168 72.1036 70.552L75.1196 89.032L59.8716 80.6C58.6864 79.9444 57.3541 79.6005 55.9996 79.6005C54.6451 79.6005 53.3129 79.9444 52.1276 80.6L36.8796 89.032L39.8956 70.552C40.0969 69.3168 40.0057 68.0516 39.6291 66.8581C39.2526 65.6646 38.6013 64.576 37.7276 63.68L24.5996 50.224L42.3996 47.504C43.6988 47.3099 44.9298 46.797 45.9823 46.011C47.0349 45.2251 47.8764 44.1906 48.4316 43L55.9996 26.832L63.5916 43C64.1468 44.1906 64.9883 45.2251 66.0409 46.011C67.0935 46.797 68.3244 47.3099 69.6236 47.504L87.3996 50.224L74.2716 63.68Z" fill="white"/>
<path d="M479.584 234.137C479.115 232.739 478.27 231.498 477.14 230.551C476.011 229.604 474.642 228.987 473.184 228.769L444.24 224.337L431.216 196.601C430.57 195.226 429.546 194.064 428.264 193.25C426.982 192.436 425.495 192.004 423.976 192.004C422.458 192.004 420.97 192.436 419.688 193.25C418.406 194.064 417.382 195.226 416.736 196.601L403.712 224.337L374.768 228.769C373.316 228.991 371.952 229.61 370.828 230.556C369.704 231.503 368.862 232.741 368.395 234.134C367.928 235.528 367.854 237.023 368.181 238.456C368.508 239.888 369.223 241.204 370.248 242.257L391.432 263.961L386.416 294.713C386.174 296.195 386.355 297.715 386.936 299.099C387.518 300.484 388.478 301.676 389.705 302.541C390.933 303.406 392.379 303.907 393.879 303.988C395.378 304.07 396.87 303.727 398.184 303.001L424 288.745L449.792 303.001C451.107 303.739 452.604 304.09 454.11 304.015C455.616 303.939 457.07 303.439 458.305 302.573C459.539 301.706 460.503 300.509 461.086 299.118C461.669 297.727 461.848 296.2 461.6 294.713L456.584 263.961L477.768 242.257C478.787 241.2 479.495 239.883 479.815 238.451C480.135 237.019 480.055 235.526 479.584 234.137ZM442.272 255.681C441.398 256.577 440.747 257.665 440.371 258.859C439.994 260.052 439.903 261.317 440.104 262.553L443.12 281.033L427.872 272.601C426.687 271.945 425.355 271.601 424 271.601C422.646 271.601 421.313 271.945 420.128 272.601L404.88 281.033L407.896 262.553C408.097 261.317 408.006 260.052 407.63 258.859C407.253 257.665 406.602 256.577 405.728 255.681L392.6 242.225L410.376 239.505C411.675 239.311 412.906 238.798 413.959 238.012C415.011 237.226 415.853 236.191 416.408 235.001L424 218.833L431.592 235.001C432.147 236.191 432.989 237.226 434.041 238.012C435.094 238.798 436.325 239.311 437.624 239.505L455.4 242.225L442.272 255.681Z" fill="white"/>
</svg>
