<svg width="483" height="480" viewBox="0 0 483 480" fill="none" xmlns="http://www.w3.org/2000/svg">
<path d="M482.752 288V32H354.752V0H162.752V42.359C152.397 33.0854 139.578 27.0086 125.844 24.8627C112.11 22.7168 98.0481 24.5936 85.3575 30.2664C72.667 35.9392 61.8905 45.1652 54.3299 56.83C46.7694 68.4948 42.7481 82.0993 42.752 96C42.752 96.776 42.765 97.5527 42.791 98.33C29.8946 102.164 18.8098 110.514 11.5648 121.851C4.31982 133.188 1.39895 146.754 3.33664 160.069C5.27432 173.383 11.941 185.554 22.1169 194.356C32.2929 203.157 45.2977 208.001 58.752 208V192C50.8407 192 43.1072 189.654 36.5292 185.259C29.9512 180.864 24.8243 174.616 21.7968 167.307C18.7693 159.998 17.9772 151.956 19.5206 144.196C21.064 136.437 24.8736 129.31 30.4677 123.716C36.0618 118.122 43.1891 114.312 50.9484 112.769C58.7076 111.225 66.7503 112.017 74.0593 115.045C81.3684 118.072 87.6155 123.199 92.0108 129.777C96.406 136.355 98.752 144.089 98.752 152H114.752C114.735 137.153 108.83 122.919 98.3316 112.42C87.8331 101.922 73.599 96.0167 58.752 96C58.7506 85.1548 61.8988 74.5426 67.8142 65.4527C73.7295 56.3628 82.1574 49.1864 92.0739 44.7954C101.99 40.4044 112.969 38.9878 123.675 40.7177C134.381 42.4475 144.355 47.2494 152.384 54.54C143.64 63.482 138.746 75.4933 138.752 88H154.752C154.752 79.5131 158.123 71.3737 164.125 65.3726C170.126 59.3714 178.265 56 186.752 56C195.239 56 203.378 59.3714 209.379 65.3726C215.381 71.3737 218.752 79.5131 218.752 88C218.773 94.926 216.527 101.669 212.356 107.198L225.149 116.81C231.409 108.513 234.782 98.3942 234.752 88C234.752 81.671 236.629 75.4841 240.145 70.2218C243.661 64.9594 248.659 60.8579 254.506 58.4359C260.353 56.0138 266.788 55.3801 272.995 56.6149C279.202 57.8496 284.904 60.8973 289.379 65.3726C293.855 69.8479 296.902 75.5497 298.137 81.7571C299.372 87.9645 298.738 94.3986 296.316 100.246C293.894 106.093 289.793 111.091 284.53 114.607C279.268 118.123 273.081 120 266.752 120V136C276.431 135.988 285.882 133.054 293.866 127.583C301.851 122.111 307.997 114.356 311.501 105.333C319.619 103.385 328.104 103.586 336.12 105.917C344.136 108.247 351.407 112.626 357.216 118.622C363.024 124.617 367.17 132.024 369.245 140.11C371.32 148.196 371.251 156.683 369.047 164.735C364.918 161.656 359.903 159.995 354.752 160H306.752C300.389 160.007 294.289 162.538 289.789 167.037C285.29 171.537 282.759 177.637 282.752 184V208H264.23C249.567 207.984 235.485 213.73 225.019 224H52.052L28.05 216H2.752V280H28.05L52.052 272H204.506L196.506 304H118.274C92.4117 304 67.2384 312.337 46.4894 327.775C25.7403 343.213 10.5211 364.929 3.09 389.701L0 400H24.162C20.1106 408.535 18.2848 417.956 18.8545 427.387C19.4243 436.817 22.3712 445.95 27.4207 453.935C32.4703 461.92 39.4583 468.498 47.7341 473.055C56.0099 477.612 65.3043 480.002 74.752 480H410.752C422.373 480.003 433.708 476.389 443.183 469.66C452.658 462.931 459.804 453.42 463.63 442.447C467.456 431.473 467.773 419.581 464.536 408.42C461.299 397.258 454.669 387.381 445.565 380.157C460.203 368.587 470.914 352.781 476.235 334.897C477.31 331.313 477.533 327.528 476.885 323.843C476.237 320.157 474.736 316.675 472.503 313.673C470.269 310.671 467.365 308.233 464.021 306.554C460.678 304.874 456.988 304 453.246 304H410.752V242C410.741 233.332 407.425 224.995 401.478 218.689C395.532 212.383 387.404 208.582 378.752 208.063V184C378.752 183.676 378.74 183.354 378.728 183.033C386.863 168.361 388.909 151.081 384.424 134.915C379.939 118.75 369.283 104.993 354.752 96.61V48H466.752V288H482.752ZM42.752 258.233L25.454 264H18.752V232H25.454L42.752 237.766V258.233ZM298.752 184C298.755 181.879 299.598 179.846 301.098 178.346C302.598 176.846 304.631 176.003 306.752 176H354.752C356.873 176.003 358.906 176.846 360.406 178.346C361.906 179.846 362.749 181.879 362.752 184V208H298.752V184ZM58.752 256V240H213.634C212.05 243.342 210.8 246.831 209.901 250.418L208.506 256H58.752ZM74.752 464C67.3233 464.001 60.0413 461.932 53.722 458.027C47.4027 454.122 42.2959 448.533 38.9739 441.889C35.652 435.244 34.2461 427.806 34.914 420.407C35.5818 413.009 38.2969 405.942 42.755 400H106.749C111.207 405.942 113.922 413.009 114.59 420.407C115.258 427.806 113.852 435.244 110.53 441.889C107.208 448.533 102.101 454.122 95.782 458.027C89.4627 461.932 82.1807 464.001 74.752 464ZM113.891 464C122.235 455.858 127.825 445.312 129.878 433.836C131.932 422.36 130.346 410.53 125.343 400H136.161C131.158 410.53 129.572 422.36 131.626 433.836C133.679 445.312 139.269 455.858 147.613 464H113.891ZM186.752 464C179.323 464.001 172.041 461.932 165.722 458.027C159.403 454.122 154.296 448.533 150.974 441.889C147.652 435.244 146.246 427.806 146.914 420.407C147.582 413.009 150.297 405.942 154.755 400H218.749C223.207 405.942 225.922 413.009 226.59 420.407C227.258 427.806 225.852 435.244 222.53 441.889C219.208 448.533 214.101 454.122 207.782 458.027C201.463 461.932 194.181 464.001 186.752 464ZM225.891 464C234.235 455.858 239.825 445.312 241.878 433.836C243.932 422.36 242.346 410.53 237.343 400H248.161C243.158 410.53 241.572 422.36 243.626 433.836C245.679 445.312 251.269 455.858 259.613 464H225.891ZM298.752 464C291.323 464.001 284.041 461.932 277.722 458.027C271.403 454.122 266.296 448.533 262.974 441.889C259.652 435.244 258.246 427.806 258.914 420.407C259.582 413.009 262.297 405.942 266.755 400H330.749C335.207 405.942 337.922 413.009 338.59 420.407C339.258 427.806 337.852 435.244 334.53 441.889C331.208 448.533 326.101 454.122 319.782 458.027C313.463 461.932 306.181 464.001 298.752 464ZM337.891 464C346.235 455.858 351.825 445.312 353.878 433.836C355.932 422.36 354.346 410.53 349.343 400H360.161C355.158 410.53 353.572 422.36 355.626 433.836C357.679 445.312 363.269 455.858 371.613 464H337.891ZM450.752 424C450.753 430.338 449.247 436.586 446.359 442.229C443.471 447.871 439.284 452.746 434.142 456.453C429 460.159 423.051 462.59 416.785 463.546C410.519 464.502 404.116 463.956 398.102 461.951C392.089 459.947 386.639 456.542 382.199 452.017C377.76 447.493 374.46 441.978 372.571 435.928C370.681 429.878 370.257 423.465 371.332 417.219C372.407 410.972 374.951 405.07 378.755 400H388.735C403.498 400.033 418.045 396.459 431.113 389.59C437.081 393.139 442.027 398.175 445.469 404.206C448.911 410.236 450.731 417.056 450.752 424ZM453.247 320C454.494 320 455.724 320.291 456.839 320.851C457.953 321.411 458.921 322.224 459.666 323.224C460.41 324.225 460.91 325.386 461.127 326.614C461.343 327.843 461.268 329.104 460.91 330.299C456.253 345.821 446.716 359.428 433.715 369.102C420.713 378.775 404.94 384 388.734 384H22.092C30.0335 365.042 43.3999 348.852 60.5124 337.466C77.6249 326.079 97.7204 320.003 118.275 320H453.247ZM394.752 242V304H212.998L225.423 254.299C227.578 245.64 232.57 237.951 239.603 232.459C246.637 226.968 255.307 223.99 264.23 224H376.752C381.524 224.005 386.1 225.903 389.474 229.278C392.849 232.652 394.747 237.228 394.752 242ZM338.752 90.025C330.916 88.0042 322.767 87.4898 314.739 88.509C314.741 88.339 314.752 88.171 314.752 88C314.756 77.6859 311.436 67.6452 305.284 59.3663C299.133 51.0874 290.478 45.0109 280.601 42.0376C270.725 39.0643 260.154 39.3524 250.454 42.8593C240.755 46.3663 232.443 52.9052 226.752 61.507C221.635 53.7527 214.372 47.6547 205.849 43.9565C197.326 40.2582 187.911 39.1195 178.752 40.679V16H338.752V90.025Z" fill="white"/>
<path d="M66.7539 416H82.7539V432H66.7539V416ZM178.754 416H194.754V432H178.754V416ZM290.754 416H306.754V432H290.754V416ZM402.754 416H418.754V432H402.754V416ZM426.754 72H442.754V104H426.754V72ZM386.754 72H402.754V104H386.754V72ZM426.754 128H442.754V160H426.754V128ZM426.754 184H442.754V216H426.754V184ZM426.754 240H442.754V272H426.754V240ZM170.754 192V208C181.363 208 191.537 203.786 199.038 196.284C206.54 188.783 210.754 178.609 210.754 168C210.754 157.391 206.54 147.217 199.038 139.716C191.537 132.214 181.363 128 170.754 128V144C177.119 144 183.224 146.529 187.724 151.029C192.225 155.53 194.754 161.635 194.754 168C194.754 174.365 192.225 180.47 187.724 184.971C183.224 189.471 177.119 192 170.754 192ZM82.7539 88H98.7539C98.7587 83.758 100.446 79.6911 103.445 76.6916C106.445 73.692 110.512 72.0048 114.754 72V56C106.27 56.0098 98.1363 59.3844 92.1373 65.3834C86.1383 71.3824 82.7637 79.5161 82.7539 88ZM90.7539 208H106.754C106.759 203.758 108.446 199.691 111.445 196.692C114.445 193.692 118.512 192.005 122.754 192V176C114.27 176.01 106.136 179.384 100.137 185.383C94.1383 191.382 90.7637 199.516 90.7539 208Z" fill="white"/>
</svg>
