<svg width="512" height="512" viewBox="0 0 512 512" fill="none" xmlns="http://www.w3.org/2000/svg">
<g clip-path="url(#clip0_1062_251)">
<path d="M348.501 200.651L398.988 229.501V419.001M268.488 171.501H368.488M276.785 420.001L292.147 136.121M344.875 136.937L360.137 419.001M286.488 251.001H350.488M284.488 291.001H352.488M281.988 331.001H354.988M279.988 371.001H356.988M192.339 259.001H229.988C238.272 259.001 244.988 265.717 244.988 274.001C244.988 282.285 238.272 289.001 229.988 289.001H114.988C106.704 289.001 99.9883 282.285 99.9883 274.001C99.9883 265.717 106.704 259.001 114.988 259.001H157.339M117.488 258.001V229.001L197.488 159.001H227.488V258.001M117.488 419.001V290.001M227.488 290.001V419.001M226.999 229.501H189.346M226.846 199.501H151.846M281.999 310.501H227.988" stroke="white" stroke-width="15" stroke-miterlimit="10" stroke-linecap="round" stroke-linejoin="round"/>
<path d="M318.488 141.5C351.625 141.5 378.488 114.637 378.488 81.5C378.488 48.3629 351.625 21.5 318.488 21.5C285.351 21.5 258.488 48.3629 258.488 81.5C258.488 114.637 285.351 141.5 318.488 141.5Z" stroke="white" stroke-width="15" stroke-miterlimit="10" stroke-linecap="round" stroke-linejoin="round"/>
<path d="M290.489 51.5V29M318.489 51.5V7.5M346.489 51.5V28.872M266.989 111.5H369.989M129.005 145.053V167.106M154.005 135.053V142.106M104.005 135.053V142.106M199.989 319V339H144.989V319M199.989 369V389H144.989V369M399.245 290.5H444.245M399.245 325.5H444.245M116.995 355.5H67.995M7.5 253V504.5M93 95.5H17.5C11.977 95.5 7.5 99.977 7.5 105.5V218M504.5 194.5V105.5C504.5 99.977 500.023 95.5 494.5 95.5H377.234M504.5 504.5V229.5M291 474.5H444.5V504.5M67.5 504.5V474.5H256M149.505 110.053H108.505C100.497 110.053 94.005 103.561 94.005 95.553C94.005 87.545 100.497 81.053 108.505 81.053H149.505C157.513 81.053 164.005 87.545 164.005 95.553C164.005 103.561 157.513 110.053 149.505 110.053Z" stroke="white" stroke-width="15" stroke-miterlimit="10" stroke-linecap="round" stroke-linejoin="round"/>
<path d="M67.5 96.5V420.5M67.5 420.5H444.5M67.5 420.5H42.5C41.1739 420.5 39.9021 419.973 38.9645 419.036C38.0268 418.098 37.5 416.826 37.5 415.5V395.5C37.5 394.174 38.0268 392.902 38.9645 391.964C39.9021 391.027 41.1739 390.5 42.5 390.5H66.5M444.5 420.5V96.5M444.5 420.5H469.5C470.826 420.5 472.098 419.973 473.036 419.036C473.973 418.098 474.5 416.826 474.5 415.5V395.5C474.5 394.174 473.973 392.902 473.036 391.964C472.098 391.027 470.826 390.5 469.5 390.5H445.5M66.5 160.5H42.5C41.1739 160.5 39.9021 159.973 38.9645 159.036C38.0268 158.098 37.5 156.826 37.5 155.5V135.5C37.5 134.174 38.0268 132.902 38.9645 131.964C39.9021 131.027 41.1739 130.5 42.5 130.5H66.5M66.5 225.5H42.5C41.1739 225.5 39.9021 224.973 38.9645 224.036C38.0268 223.098 37.5 221.826 37.5 220.5V200.5C37.5 199.174 38.0268 197.902 38.9645 196.964C39.9021 196.027 41.1739 195.5 42.5 195.5H66.5M66.5 290.5H42.5C41.1739 290.5 39.9021 289.973 38.9645 289.036C38.0268 288.098 37.5 286.826 37.5 285.5V265.5C37.5 264.174 38.0268 262.902 38.9645 261.964C39.9021 261.027 41.1739 260.5 42.5 260.5H66.5M66.5 355.5H42.5C41.1739 355.5 39.9021 354.973 38.9645 354.036C38.0268 353.098 37.5 351.826 37.5 350.5V330.5C37.5 329.174 38.0268 327.902 38.9645 326.964C39.9021 326.027 41.1739 325.5 42.5 325.5H66.5M67.5 504.5H42.5C41.1739 504.5 39.9021 503.973 38.9645 503.036C38.0268 502.098 37.5 500.826 37.5 499.5V479.5C37.5 478.174 38.0268 476.902 38.9645 475.964C39.9021 475.027 41.1739 474.5 42.5 474.5H67.5M445.5 130.5H469.5C470.826 130.5 472.098 131.027 473.036 131.964C473.973 132.902 474.5 134.174 474.5 135.5V155.5C474.5 156.826 473.973 158.098 473.036 159.036C472.098 159.973 470.826 160.5 469.5 160.5H445.5M445.5 195.5H469.5C470.826 195.5 472.098 196.027 473.036 196.964C473.973 197.902 474.5 199.174 474.5 200.5V220.5C474.5 221.826 473.973 223.098 473.036 224.036C472.098 224.973 470.826 225.5 469.5 225.5H445.5M445.5 260.5H469.5C470.826 260.5 472.098 261.027 473.036 261.964C473.973 262.902 474.5 264.174 474.5 265.5V285.5C474.5 286.826 473.973 288.098 473.036 289.036C472.098 289.973 470.826 290.5 469.5 290.5H445.5M445.5 325.5H469.5C470.826 325.5 472.098 326.027 473.036 326.964C473.973 327.902 474.5 329.174 474.5 330.5V350.5C474.5 351.826 473.973 353.098 473.036 354.036C472.098 354.973 470.826 355.5 469.5 355.5H445.5M444.5 474.5H469.5C470.826 474.5 472.098 475.027 473.036 475.964C473.973 476.902 474.5 478.174 474.5 479.5V499.5C474.5 500.826 473.973 502.098 473.036 503.036C472.098 503.973 470.826 504.5 469.5 504.5H444.5M164.005 95.5H260.136" stroke="white" stroke-width="15" stroke-miterlimit="10" stroke-linecap="round" stroke-linejoin="round"/>
</g>
<defs>
<clipPath id="clip0_1062_251">
<rect width="512" height="512" fill="white"/>
</clipPath>
</defs>
</svg>
