<svg xmlns="http://www.w3.org/2000/svg" version="1.1" xmlns:xlink="http://www.w3.org/1999/xlink" width="512" height="512" x="0" y="0" viewBox="0 0 511.999 511.999" style="enable-background:new 0 0 512 512" xml:space="preserve"><g><path fill="#ffe02f" d="M376.187 5.72h-7.918l-21.989 8.935-28.177 18.268-16.816 32.476-5.751 26.048 20.382 51.674 25.118 27.909 15.477 11.417v13.775h31.038l6.822-4.493c0-11.506 5.69-22.162 15.004-28.919 22.058-16.001 36.471-41.971 36.471-71.147 0-42.086-29.994-77.504-69.661-85.943z" opacity="1" data-original="#ffe02f"></path><path fill="#ffcebe" d="M502.195 311.318c-9.948-20.774-32.845-10.954-34.767-10.235l-93.161 27.561c-1.736.514-3.452-.916-3.219-2.712.796-6.128.188-17.892-14.327-23.685-55.851-22.296-62.512-26.067-76.646-26.291l-.002-.002c-24.636.082-37.897.232-48.672 2.089l-12.148 5.89-7.865 33.744 2.791 27.909 19.029 30.446 21.359 7.446c9.45.01 18.509 1.53 26.604 4.76l36.043 14.389c7.878 2.716 25.977 6.943 44.758-2.683l.016-.007 125.827-55.658c3.807-1.953 22.964-13.446 14.38-32.961z" opacity="1" data-original="#ffcebe"></path><path fill="#ffb1a0" d="M216.813 320.995c0-16.165 5.446-31.052 14.587-42.952-8.335 1.436-15.182 3.894-24.654 8.133a193.687 193.687 0 0 0-32.258 18.349 70.812 70.812 0 0 1-16.947 8.784l-2.057 8.005L187.96 395.4l8.715 3.236 26.115-9.915c10.574-3.446 21.41-5.254 31.774-5.242-22.441-11.818-37.751-35.357-37.751-62.484z" opacity="1" data-original="#ffb1a0"></path><path fill="#dbedff" d="m178.404 381.362 4.486-6.85v-5.933l-27.88-60.787c-2.939-6.407-10.515-9.219-16.922-6.28l-35.538 16.299-3.56 10.797 33.666 72.336z" opacity="1" data-original="#dbedff"></path><path fill="#b5dcff" d="m202.067 410.391-19.177-41.813c-.95 4.309-3.822 8.14-8.141 10.121l-40.566 18.606-4.237-2.185 20.126 43.243 10.177 5.249 35.537-16.299c6.407-2.938 9.219-10.515 6.281-16.922z" opacity="1" data-original="#b5dcff"></path><path fill="#fbc700" d="M358 191.73c0-11.506-5.69-22.162-15.004-28.919-22.057-16.001-36.471-41.971-36.471-71.147 0-42.087 29.994-77.505 69.661-85.944a87.369 87.369 0 0 0-18.196-1.913c-48.322 0-87.857 39.536-87.857 87.857 0 29.175 14.414 55.146 36.471 71.147 9.314 6.756 15.004 17.412 15.004 28.919l3.191 4.493h36.393z" opacity="1" data-original="#fbc700"></path><path fill="#eab900" d="m384.69 84.639-26.7 28.728-26.7-28.728a7.609 7.609 0 0 0-10.757-.393 7.61 7.61 0 0 0-.393 10.756l30.239 32.536v75.037a7.612 7.612 0 1 0 15.224 0v-75.037l30.239-32.536a7.612 7.612 0 0 0-11.152-10.363z" opacity="1" data-original="#eab900"></path><g fill="#ffe02f"><path d="M479.06 75.788c.811 0 1.635-.131 2.445-.405l25.325-8.588a7.611 7.611 0 1 0-4.889-14.416l-25.325 8.588a7.61 7.61 0 0 0 2.444 14.821zM506.83 107.598l-25.325-8.589a7.611 7.611 0 1 0-4.889 14.416l25.325 8.589c.81.275 1.635.405 2.445.405a7.614 7.614 0 0 0 7.207-5.169 7.61 7.61 0 0 0-4.763-9.652zM239.365 60.966l-25.325-8.588a7.611 7.611 0 1 0-4.889 14.416l25.325 8.588a7.602 7.602 0 0 0 2.446.405 7.61 7.61 0 0 0 2.443-14.821zM234.476 99.009l-25.325 8.589a7.612 7.612 0 0 0 4.888 14.417l25.325-8.589a7.612 7.612 0 0 0-4.888-14.417z" fill="#ffe02f" opacity="1" data-original="#ffe02f"></path></g><path fill="#ffb1a0" d="m384.827 333.746 2.723-9.031-13.284 3.93a2.522 2.522 0 0 1-3.201-1.99l-.803 2.662c-.921 2.881-3.992 9.356-12.546 7.261-16.577-4.061-63.311-15.259-63.781-15.372a7.612 7.612 0 0 0-3.547 14.804c.47.112 47.166 11.3 63.705 15.352 2.427.595 4.719.865 6.875.865 13.357.001 21.467-10.386 23.859-18.481z" opacity="1" data-original="#ffb1a0"></path><path fill="#bf7fe3" d="m48.416 443.613 9.134-1.805 77.504-35.712 3.58-3.993-.262-6.191-42.367-92.372c-2.668-5.819-9.549-8.372-15.367-5.703L6.761 331.721c-5.818 2.668-8.372 9.549-5.703 15.367l42.616 92.915z" opacity="1" data-original="#bf7fe3"></path><path fill="#b166db" d="m166.794 457.884-28.423-61.972c-.459 4.045-2.949 7.759-6.92 9.581L54.86 440.621a11.999 11.999 0 0 1-11.186-.618l28.174 61.428c2.668 5.818 9.549 8.372 15.367 5.703l73.876-33.883c5.819-2.669 8.372-9.549 5.703-15.367z" opacity="1" data-original="#b166db"></path><path fill="#dbedff" d="m363.711 191.394-1.87 4.5v41.525l11.84 17.166h5.367c9.27-6.594 15.324-17.416 15.324-29.659V191.73c0-.113.009-.223.01-.336z" opacity="1" data-original="#dbedff"></path><path fill="#b5dcff" d="M363.725 224.926V191.73c0-.113-.009-.223-.01-.336h-42.117c.001.112.01.223.01.336v33.196c0 20.094 16.289 36.382 36.382 36.382a36.208 36.208 0 0 0 21.059-6.723c-9.27-6.594-15.324-17.416-15.324-29.659z" opacity="1" data-original="#b5dcff"></path></g></svg>