<svg xmlns="http://www.w3.org/2000/svg" version="1.1" xmlns:xlink="http://www.w3.org/1999/xlink" width="512" height="512" x="0" y="0" viewBox="0 0 480 479" style="enable-background:new 0 0 512 512" xml:space="preserve"><g><path fill="#e8821c" d="m286.398 137.504-12.796-9.602L316.8 73.504c6.398-7.203 8-17.602 4-26.402-4.801-13.598-20-20-33.602-15.2l-4.8 1.602L276.8 18.3l4.8-1.598c21.598-8.8 46.399 2.399 54.399 24 5.602 14.399 3.2 30.399-6.398 42.399zM151.2 188.703l-62.4-7.2c-24-2.401-41.6-24.8-39.198-48.8 1.597-16.8 12.796-30.402 28-36.8l7.199-3.2 5.597 15.2-7.199 3.199c-14.398 5.601-21.597 22.402-16 36.8 4 9.602 12.801 16.801 23.2 17.602l62.402 7.2zm0 0" opacity="1" data-original="#e8821c"></path><path fill="#f4a422" d="m211.2 199.902-31.2-3.199c-36-3.2-67.2-26.402-80.8-60.8L78.397 83.101c-3.199-8 .801-17.598 8.801-20.801H88L256.8 1.504c8-3.203 17.598 1.598 20.802 9.598l17.597 52.8c10.403 32 4 67.2-18.398 92.801l-21.602 24.8 85.602 224h32c6.398 0 12.8 4 14.398 10.4l4.801 12L274.398 474.3l-4.796-12c-2.403-6.399-.801-12.797 4-17.598l23.199-22.402zm0 0" opacity="1" data-original="#f4a422"></path><path fill="#edc17c" d="m245.602 146.3-11.204-11.198c35.204-35.2-.796-93.598-.796-94.399l13.597-8.8c1.602 3.199 42.403 70.398-1.597 114.398zm0 0" opacity="1" data-original="#edc17c"></path><path fill="#e8821c" d="M387.2 416.703c-2.4-6.402-8-10.402-14.4-10.402h-32l-44 17.601-23.198 22.399c-4.801 4.8-6.403 11.203-4 17.601l4.796 12L392 429.504zm0 0" opacity="1" data-original="#e8821c"></path><path fill="#efccbf" d="m371.2 319.102-45.598-122.399c-3.204-8-12-12.8-20.801-9.601H304l-88 38.402c-4.8 2.398-8 6.398-9.602 11.2l-6.398 32-200 80v112l232-96 59.2 7.198c3.198 0 6.402 0 8.8-1.601l63.2-31.2c7.198-4 10.402-12 8-20zm0 0" opacity="1" data-original="#efccbf"></path><path fill="#676b7f" d="m200 268.703-80 32 32 96.8 80-32.8zm0 0" opacity="1" data-original="#676b7f"></path><g fill="#f4c167"><path d="M400 28.703v8c0 26.399-21.602 48-48 48 26.398 0 48 21.598 48 48v8-8c0-26.402 21.602-48 48-48-26.398 0-48-21.601-48-48zM48 188.703v8c0 26.399-21.602 48-48 48 26.398 0 48 21.598 48 48v8-8c0-26.402 21.602-48 48-48-26.398 0-48-21.601-48-48zM432 188.703v8c0 26.399-21.602 48-48 48 26.398 0 48 21.598 48 48v8-8c0-26.402 21.602-48 48-48-26.398 0-48-21.601-48-48zm0 0" fill="#f4c167" opacity="1" data-original="#f4c167"></path></g><path fill="#4a4a56" d="m152 397.504-152 63.2v-112l120-48zM168.8 359.102l14.4-4.801-23.2-69.598-14.398 5.598zm0 0" opacity="1" data-original="#4a4a56"></path><path fill="#d8b4ad" d="m332 213.504-46.398 16 4.796 14.398 47.204-15.199zM347.2 254.3l-45.598 15.204 4.796 14.398 46.403-15.199zM361.602 294.3l-44 15.204 4.796 14.398 44.801-14.398zm0 0" opacity="1" data-original="#d8b4ad"></path><path fill="#e8821c" d="m286.398 137.504-12.796-9.602L316.8 73.504c6.398-7.203 8-17.602 4-26.402-4.801-13.598-20-20-33.602-15.2l-4.8 1.602L276.8 18.3l4.8-1.598c21.598-8.8 46.399 2.399 54.399 24 5.602 14.399 3.2 30.399-6.398 42.399zM151.2 188.703l-62.4-7.2c-24-2.401-41.6-24.8-39.198-48.8 1.597-16.8 12.796-30.402 28-36.8l7.199-3.2 5.597 15.2-7.199 3.199c-14.398 5.601-21.597 22.402-16 36.8 4 9.602 12.801 16.801 23.2 17.602l62.402 7.2zm0 0" opacity="1" data-original="#e8821c"></path><path fill="#f4a422" d="m211.2 199.902-31.2-3.199c-36-3.2-67.2-26.402-80.8-60.8L78.397 83.101c-3.199-8 .801-17.598 8.801-20.801H88L256.8 1.504c8-3.203 17.598 1.598 20.802 9.598l17.597 52.8c10.403 32 4 67.2-18.398 92.801l-21.602 24.8 85.602 224h32c6.398 0 12.8 4 14.398 10.4l4.801 12L274.398 474.3l-4.796-12c-2.403-6.399-.801-12.797 4-17.598l23.199-22.402zm0 0" opacity="1" data-original="#f4a422"></path><path fill="#edc17c" d="m245.602 146.3-11.204-11.198c35.204-35.2-.796-93.598-.796-94.399l13.597-8.8c1.602 3.199 42.403 70.398-1.597 114.398zm0 0" opacity="1" data-original="#edc17c"></path><path fill="#e8821c" d="M387.2 416.703c-2.4-6.402-8-10.402-14.4-10.402h-32l-44 17.601-23.198 22.399c-4.801 4.8-6.403 11.203-4 17.601l4.796 12L392 429.504zm0 0" opacity="1" data-original="#e8821c"></path><path fill="#efccbf" d="m371.2 319.102-45.598-122.399c-3.204-8-12-12.8-20.801-9.601H304l-88 38.402c-4.8 2.398-8 6.398-9.602 11.2l-6.398 32-200 80v112l232-96 59.2 7.198c3.198 0 6.402 0 8.8-1.601l63.2-31.2c7.198-4 10.402-12 8-20zm0 0" opacity="1" data-original="#efccbf"></path><path fill="#676b7f" d="m200 268.703-80 32 32 96.8 80-32.8zm0 0" opacity="1" data-original="#676b7f"></path><path fill="#f4c167" d="M400 28.703v8c0 26.399-21.602 48-48 48 26.398 0 48 21.598 48 48v8-8c0-26.402 21.602-48 48-48-26.398 0-48-21.601-48-48zM48 188.703v8c0 26.399-21.602 48-48 48 26.398 0 48 21.598 48 48v8-8c0-26.402 21.602-48 48-48-26.398 0-48-21.601-48-48zM432 188.703v8c0 26.399-21.602 48-48 48 26.398 0 48 21.598 48 48v8-8c0-26.402 21.602-48 48-48-26.398 0-48-21.601-48-48zm0 0" opacity="1" data-original="#f4c167"></path><path fill="#4a4a56" d="m152 397.504-152 63.2v-112l120-48zM168.8 359.102l14.4-4.801-23.2-69.598-14.398 5.598zm0 0" opacity="1" data-original="#4a4a56"></path><path fill="#d8b4ad" d="m332 213.504-46.398 16 4.796 14.398 47.204-15.199zM347.2 254.3l-45.598 15.204 4.796 14.398 46.403-15.199zM361.602 294.3l-44 15.204 4.796 14.398 44.801-14.398zm0 0" opacity="1" data-original="#d8b4ad"></path></g></svg>