<svg width="512" height="512" viewBox="0 0 512 512" fill="none" xmlns="http://www.w3.org/2000/svg">
<path d="M89.91 511.5H9.992C4.472 511.5 2.00259e-07 507.027 2.00259e-07 501.512V345.664C-0.000262537 344.352 0.258009 343.053 0.760061 341.84C1.26211 340.628 1.99811 339.526 2.926 338.598C3.8539 337.67 4.95551 336.934 6.16792 336.432C7.38032 335.93 8.67976 335.672 9.992 335.672H89.91C91.2222 335.672 92.5217 335.93 93.7341 336.432C94.9465 336.934 96.0481 337.67 96.976 338.598C97.9039 339.526 98.6399 340.628 99.1419 341.84C99.644 343.053 99.9023 344.352 99.902 345.664V501.512C99.902 507.027 95.43 511.5 89.91 511.5ZM19.98 491.52H79.922V355.652H19.98V491.52ZM227.11 512H147.187C141.672 512 137.199 507.527 137.199 502.012V286.222C137.199 280.703 141.672 276.23 147.187 276.23H227.109C228.421 276.23 229.721 276.488 230.934 276.99C232.146 277.492 233.248 278.228 234.176 279.156C235.104 280.084 235.84 281.186 236.342 282.399C236.844 283.611 237.102 284.911 237.102 286.223V502.012C237.102 507.527 232.629 512 227.109 512H227.11ZM157.18 492.02H217.121V296.21H157.18V492.02ZM364.309 511.5H284.387C278.871 511.5 274.398 507.027 274.398 501.512V189.816C274.398 184.296 278.871 179.824 284.387 179.824H364.309C365.621 179.824 366.921 180.082 368.133 180.584C369.345 181.086 370.447 181.822 371.375 182.75C372.303 183.678 373.039 184.78 373.541 185.992C374.043 187.205 374.301 188.504 374.301 189.816V290.051C374.301 291.363 374.043 292.663 373.541 293.875C373.039 295.088 372.303 296.189 371.375 297.117C370.447 298.045 369.345 298.781 368.133 299.283C366.921 299.785 365.621 300.043 364.309 300.043C358.793 300.043 354.32 295.57 354.32 290.051V199.805H294.38V491.52H354.321V373.305C354.321 367.785 358.794 363.312 364.31 363.312C365.622 363.312 366.922 363.57 368.134 364.072C369.347 364.574 370.448 365.311 371.376 366.239C372.304 367.167 373.04 368.268 373.542 369.481C374.044 370.693 374.302 371.993 374.302 373.305V501.512C374.302 507.027 369.829 511.5 364.31 511.5H364.309Z" fill="url(#paint0_linear_1152_1032)"/>
<path d="M364.313 343.996C361.664 343.994 359.124 342.94 357.251 341.067C355.379 339.193 354.326 336.653 354.324 334.004C354.324 331.379 355.383 328.801 357.25 326.941C359.127 325.073 361.665 324.022 364.313 324.016C366.961 324.023 369.498 325.074 371.375 326.941C373.243 328.819 374.295 331.356 374.305 334.004C374.305 336.633 373.235 339.211 371.375 341.066C369.502 342.94 366.963 343.993 364.313 343.996ZM501.508 511.5H421.586C416.07 511.5 411.598 507.027 411.598 501.512V127.879C411.598 122.359 416.07 117.887 421.586 117.887H501.508C507.023 117.887 511.5 122.359 511.5 127.879V501.512C511.5 507.027 507.027 511.5 501.508 511.5ZM431.578 491.52H491.52V137.867H431.578V491.52ZM49.9451 190.152C45.5201 190.152 41.4731 187.188 40.2931 182.707C38.8871 177.375 42.0661 171.907 47.4031 170.5C49.4491 169.957 254.414 115.164 456.648 1.2902C461.453 -1.4218 467.543 0.281204 470.254 5.0902C472.961 9.8982 471.258 15.9882 466.449 18.6952C359.547 78.8952 252.754 122.195 181.989 147.922C105.273 175.812 53.0161 189.684 52.5001 189.82C51.6451 190.043 50.7901 190.152 49.9451 190.152Z" fill="url(#paint1_linear_1152_1032)"/>
<path d="M449.73 46.5589C448.334 46.5575 446.955 46.2631 445.68 45.6949C444.481 45.162 443.399 44.3982 442.495 43.4471C441.592 42.496 440.884 41.3762 440.413 40.1516C439.943 38.927 439.718 37.6217 439.751 36.3102C439.785 34.9987 440.077 33.7067 440.61 32.5079L446.176 19.9839H431.91C426.395 19.9839 421.918 15.5119 421.918 9.99191C421.918 4.47691 426.395 0.00390764 431.91 0.00390764H461.547C463.212 0.00302825 464.851 0.418577 466.314 1.21273C467.778 2.00689 469.019 3.15443 469.926 4.55091C470.833 5.94627 471.377 7.54639 471.508 9.20561C471.639 10.8648 471.353 12.5305 470.676 14.0509L458.867 40.6209C458.081 42.3883 456.8 43.8899 455.178 44.9438C453.557 45.9977 451.664 46.5587 449.73 46.5589Z" fill="url(#paint2_linear_1152_1032)"/>
<defs>
<linearGradient id="paint0_linear_1152_1032" x1="275.237" y1="499.991" x2="97.3666" y2="173.177" gradientUnits="userSpaceOnUse">
<stop offset="0.0001" stop-color="#BE42B1"/>
<stop offset="1" stop-color="#3B4BAA"/>
</linearGradient>
<linearGradient id="paint1_linear_1152_1032" x1="386.7" y1="493.008" x2="85.8796" y2="40.8162" gradientUnits="userSpaceOnUse">
<stop offset="0.0001" stop-color="#BE42B1"/>
<stop offset="1" stop-color="#3B4BAA"/>
</linearGradient>
<linearGradient id="paint2_linear_1152_1032" x1="458.406" y1="44.8758" x2="432.742" y2="0.271504" gradientUnits="userSpaceOnUse">
<stop offset="0.0001" stop-color="#BE42B1"/>
<stop offset="1" stop-color="#3B4BAA"/>
</linearGradient>
</defs>
</svg>
