<svg width="512" height="481" viewBox="0 0 512 481" fill="none" xmlns="http://www.w3.org/2000/svg">
<path fill-rule="evenodd" clip-rule="evenodd" d="M148.905 240.705C116.426 240.705 89.9694 214.249 89.9694 181.769C89.9694 149.289 116.426 122.833 148.905 122.833C181.385 122.833 207.723 149.289 207.723 181.769C207.723 214.249 181.385 240.705 148.905 240.705ZM487.522 447.867H338.115C329.375 447.867 329.375 434.285 338.115 434.285H487.522C496.38 434.285 496.38 447.867 487.522 447.867ZM487.522 409.128H338.115C329.375 409.128 329.375 395.545 338.115 395.545H487.522C496.38 395.545 496.38 409.128 487.522 409.128ZM487.522 370.388H338.115C329.375 370.388 329.375 356.806 338.115 356.806H487.522C496.38 356.806 496.38 370.388 487.522 370.388ZM487.522 331.648H338.115C329.375 331.648 329.375 317.948 338.115 317.948H487.522C496.38 317.948 496.38 331.648 487.522 331.648ZM418.783 255.35H379.099C375.674 255.35 372.721 252.752 372.367 249.327L368.587 217.083C360.083 213.894 352.288 209.288 345.202 203.501L315.32 216.493C312.131 217.792 308.47 216.611 306.698 213.54L286.856 179.289C285.084 176.218 285.911 172.438 288.746 170.312L314.848 150.943C313.312 142.084 313.312 132.872 314.848 123.896L288.746 104.526C285.911 102.4 285.084 98.6205 286.856 95.6678L306.698 61.2983C308.47 58.3456 312.131 57.0464 315.32 58.4637L345.202 71.3375C352.288 65.5502 360.083 61.0621 368.587 57.755L372.367 25.5114C372.721 22.0863 375.674 19.4879 379.099 19.4879H418.783C422.208 19.4879 425.161 22.0863 425.515 25.5114L429.295 57.755C437.799 61.0621 445.594 65.5502 452.68 71.3375L482.562 58.4637C485.751 57.0464 489.412 58.3456 491.184 61.2983L511.026 95.6678C512.798 98.6205 511.971 102.4 509.136 104.526L483.034 123.896C484.57 132.872 484.57 142.084 483.034 150.943L509.136 170.43C511.971 172.438 512.798 176.218 511.026 179.289L491.184 213.658C489.412 216.611 485.751 217.792 482.562 216.493L452.68 203.619C445.594 209.288 437.799 213.894 429.295 217.083L425.515 249.327C425.161 252.752 422.208 255.35 418.783 255.35ZM385.122 241.768H412.76L416.303 211.296C417.248 202.91 429.531 206.217 446.893 190.509C448.901 188.737 451.735 188.265 454.216 189.328L482.444 201.493L496.144 177.635C459.294 150.234 470.515 163.226 470.515 137.478C470.515 111.612 459.294 124.722 496.144 97.2032L482.444 73.3453L454.216 85.5105C446.539 88.8175 442.995 76.4161 420.909 69.3296C418.429 68.5029 416.539 66.2588 416.303 63.6604L412.76 33.0704H385.122L381.579 63.6604C380.634 71.928 368.233 68.621 350.989 84.3294C348.981 86.101 346.147 86.5735 343.666 85.5105L315.438 73.3453L301.738 97.2032C338.588 124.722 327.367 111.612 327.367 137.478C327.367 163.226 338.588 150.234 301.738 177.635L315.438 201.493L343.666 189.328C351.343 186.021 354.887 198.422 376.973 205.627C379.453 206.335 381.343 208.579 381.579 211.296L385.122 241.768ZM398.941 192.635C368.469 192.635 343.666 167.95 343.666 137.478C343.666 107.006 368.469 82.2035 398.941 82.2035C429.413 82.2035 454.216 107.006 454.216 137.478C454.216 167.95 429.413 192.635 398.941 192.635ZM398.941 95.7859C376.028 95.7859 357.367 114.447 357.367 137.478C357.367 160.391 376.028 179.052 398.941 179.052C421.854 179.052 440.515 160.391 440.515 137.478C440.515 114.447 421.854 95.7859 398.941 95.7859ZM204.535 363.538H200.401V393.773C200.401 397.553 197.448 400.624 193.669 400.624H104.142C100.363 400.624 97.2921 397.553 97.2921 393.773V363.538C93.5126 363.538 89.4969 363.892 87.2529 360.113C84.1821 354.798 81.3474 349.483 78.7491 344.286L13.1989 402.632C9.0651 406.175 2.45102 403.695 1.86048 398.262C-8.29684 304.838 25.3641 263.5 48.8676 246.256C41.3087 176.69 63.5131 116.573 88.7883 72.8729C109.693 36.7317 141.347 0 148.905 0C156.346 0 188.117 36.7317 208.905 72.8729C234.062 116.455 256.266 176.336 248.943 245.784C272.565 262.909 306.226 304.247 296.069 397.789C295.478 403.222 288.864 405.702 284.73 402.159L219.18 343.814C216.463 349.247 213.511 354.68 210.44 360.113C209.259 362.239 206.897 363.538 204.535 363.538ZM72.6074 331.53C61.7415 307.554 54.7731 284.287 50.9936 261.964C31.9781 278.736 9.65564 313.578 14.2619 383.38L72.6074 331.53ZM246.817 261.492C243.038 283.815 236.188 307.082 225.322 331.058L283.667 382.908C288.273 312.987 265.833 278.145 246.817 261.492ZM97.174 349.837H200.519C220.243 314.877 230.755 281.216 234.77 249.681C234.652 248.736 234.77 247.555 235.125 246.61C249.298 124.486 167.212 34.2514 148.905 15.9446C130.481 34.2514 48.159 124.722 62.5682 247.083C63.0406 248.146 63.1588 249.209 63.0406 250.272C67.0563 281.689 77.568 315.113 97.174 349.837ZM110.875 387.041H186.818V363.538H110.875V387.041ZM122.095 464.993C118.315 464.993 115.245 461.922 115.245 458.143V412.553C115.245 403.695 128.945 403.695 128.945 412.553V458.143C128.945 461.922 125.874 464.993 122.095 464.993ZM148.905 480.583C145.126 480.583 142.055 477.512 142.055 473.733V428.025C142.055 419.285 155.638 419.285 155.638 428.025V473.733C155.638 477.512 152.567 480.583 148.905 480.583ZM175.598 464.993C171.937 464.993 168.866 461.922 168.866 458.143V412.553C168.866 403.695 182.448 403.695 182.448 412.553V458.143C182.448 461.922 179.377 464.993 175.598 464.993ZM148.905 136.533C123.866 136.533 103.552 156.848 103.552 181.769C103.552 206.69 123.866 227.004 148.905 227.004C173.826 227.004 194.141 206.69 194.141 181.769C194.141 156.848 173.826 136.533 148.905 136.533Z" fill="url(#paint0_linear_1137_495)"/>
<defs>
<linearGradient id="paint0_linear_1137_495" x1="-1.06657" y1="5.50662" x2="440.483" y2="460.953" gradientUnits="userSpaceOnUse">
<stop stop-color="#8705FF"/>
<stop offset="1" stop-color="#CC00FF"/>
</linearGradient>
</defs>
</svg>
