<svg width="512" height="512" viewBox="0 0 512 512" fill="none" xmlns="http://www.w3.org/2000/svg">
<path d="M390.971 440.027C385.885 442.798 380.728 445.658 375.506 448.553C331.317 473.053 281.232 500.823 233.095 496.524L62.623 481.306C62.4009 481.286 62.178 481.276 61.955 481.276H15.029V396.913H61.954C63.731 396.913 65.451 396.283 66.807 395.136C66.94 395.024 80.369 383.741 100.813 373.121C101.7 372.672 102.489 372.052 103.135 371.297C103.781 370.542 104.271 369.665 104.576 368.719C104.881 367.773 104.995 366.776 104.912 365.786C104.829 364.795 104.551 363.831 104.092 362.949C103.634 362.067 103.006 361.285 102.243 360.647C101.48 360.01 100.599 359.53 99.6495 359.236C98.7001 358.941 97.7018 358.838 96.7123 358.932C95.7229 359.026 94.7619 359.316 93.885 359.784C76.647 368.739 64.142 378.064 59.296 381.884H7.515C5.52198 381.884 3.61066 382.676 2.20139 384.085C0.792107 385.494 0.000265153 387.406 0 389.399L0 488.791C0 490.784 0.791757 492.695 2.20109 494.105C3.61043 495.514 5.5219 496.306 7.515 496.306H61.619L231.758 511.495C235.601 511.838 239.435 512.002 243.27 512.002C292.062 512.002 340.073 485.384 382.793 461.699C387.983 458.822 393.108 455.98 398.162 453.225C399.912 452.271 401.211 450.661 401.775 448.749C402.338 446.838 402.118 444.781 401.165 443.031C400.693 442.164 400.055 441.398 399.287 440.778C398.52 440.158 397.637 439.695 396.69 439.416C395.744 439.137 394.751 439.048 393.77 439.152C392.789 439.257 391.838 439.554 390.971 440.027Z" fill="url(#paint0_linear_1153_1039)"/>
<path d="M506.199 356.788C498.209 346.197 484.288 342.539 472.273 347.569C471.967 342.718 470.31 338.049 467.489 334.091C459.975 323.572 445.69 320.183 434.261 326.207L416.389 335.626C416.164 331.394 414.902 327.282 412.715 323.652C405.585 311.865 390.518 307.772 378.413 314.333L365.055 321.575C364.812 316.331 363.024 311.277 359.916 307.047C352.083 296.388 337.901 293.109 326.194 299.25L229.756 349.83C218.911 345.666 184.339 334.405 143.946 341.925C136.978 343.223 129.799 345.099 122.607 347.504C120.734 348.149 119.191 349.508 118.315 351.285C117.439 353.061 117.3 355.112 117.928 356.991C118.556 358.87 119.9 360.425 121.669 361.318C123.438 362.21 125.487 362.368 127.372 361.758C133.908 359.573 140.409 357.872 146.696 356.701C189.816 348.672 226.717 364.802 227.074 364.961C228.043 365.396 229.092 365.621 230.154 365.621H330.534C337.666 365.621 343.468 371.44 343.468 378.592C343.468 385.111 338.604 390.643 332.155 391.46L204.93 407.574C203.111 407.803 201.438 408.691 200.228 410.068C199.017 411.445 198.352 413.217 198.358 415.051C198.363 416.885 199.039 418.653 200.258 420.023C201.477 421.393 203.154 422.27 204.975 422.489L259.008 429.002C311.349 435.309 363.377 425.1 409.471 399.476L476.992 361.941C482.932 358.846 490.158 360.48 494.2 365.839C499.25 372.213 497.055 382.435 489.823 386.158L417.376 425.638C408.714 430.19 416.138 443.634 424.568 438.835L497.015 399.355C500.642 397.379 503.801 394.644 506.274 391.336C508.748 388.029 510.479 384.226 511.349 380.189C512.224 376.147 512.217 371.964 511.328 367.926C510.44 363.887 508.69 360.088 506.199 356.788ZM333.175 312.559C338.253 309.896 344.405 311.32 347.806 315.947C351.984 321.335 350.087 329.882 344.013 332.983L311.533 350.592H260.662L333.175 312.559ZM340.01 352.249L385.576 327.545C387.999 326.23 390.836 325.9 393.496 326.624C396.156 327.348 398.434 329.07 399.856 331.432C403.093 336.516 401.067 343.857 395.672 346.545L356.15 367.375C353.08 360.374 347.234 354.862 340.01 352.249ZM402.169 386.34C360.836 409.318 314.422 419.105 267.528 414.794L334.044 406.369C346.384 404.807 356.032 395.269 358.087 383.342L441.268 339.502C446.078 336.967 452.093 338.395 455.259 342.826C459.092 347.919 457.312 355.867 451.664 358.825L402.169 386.34ZM174.991 204.185C183.478 204.185 191.643 202.349 199.257 198.728C200.148 198.304 200.947 197.709 201.609 196.976C202.27 196.243 202.78 195.388 203.111 194.458C203.441 193.528 203.585 192.542 203.535 191.556C203.484 190.571 203.24 189.605 202.816 188.714C202.392 187.822 201.797 187.023 201.064 186.362C200.332 185.701 199.476 185.19 198.546 184.86C197.616 184.529 196.63 184.385 195.645 184.436C194.659 184.486 193.693 184.731 192.802 185.155C187.221 187.809 181.228 189.155 174.991 189.155C152.09 189.155 133.458 170.523 133.458 147.622C133.458 124.721 152.09 106.09 174.991 106.09C197.892 106.09 216.524 124.721 216.524 147.622C216.526 154.626 214.757 161.517 211.383 167.655C210.906 168.519 210.604 169.468 210.494 170.449C210.384 171.429 210.469 172.422 210.742 173.37C211.016 174.318 211.474 175.203 212.09 175.974C212.705 176.745 213.467 177.388 214.331 177.865C215.195 178.341 216.144 178.643 217.125 178.753C218.106 178.863 219.098 178.779 220.046 178.505C220.995 178.231 221.879 177.774 222.651 177.158C223.422 176.542 224.064 175.781 224.541 174.917C229.128 166.605 231.553 157.167 231.553 147.621C231.553 116.432 206.179 91.0586 174.991 91.0586C143.803 91.0586 118.429 116.432 118.429 147.621C118.429 178.81 143.803 204.185 174.991 204.185Z" fill="url(#paint1_linear_1153_1039)"/>
<path d="M57.647 169.964L73.222 172.305C75.754 182.831 79.9242 192.893 85.58 202.124L76.217 214.799C71.793 220.789 72.404 228.957 77.67 234.221L88.392 244.944C93.657 250.209 101.826 250.82 107.815 246.396L120.489 237.034C129.72 242.69 139.782 246.861 150.308 249.393L152.65 264.968C153.757 272.331 159.965 277.675 167.41 277.675H182.573C190.019 277.675 196.227 272.331 197.333 264.967L199.674 249.393C210.2 246.861 220.262 242.69 229.493 237.034L242.168 246.397C248.157 250.82 256.326 250.21 261.59 244.945L272.312 234.223C277.578 228.959 278.189 220.79 273.765 214.8L264.403 202.126C270.059 192.895 274.23 182.833 276.761 172.307L292.335 169.966C299.698 168.859 305.043 162.652 305.043 155.205V155.137H349.639V250.919C349.639 260.582 357.501 268.444 367.164 268.444H399.268C402.705 283.762 416.405 295.245 432.745 295.245C451.667 295.245 467.062 279.851 467.062 260.928C467.062 242.006 451.668 226.611 432.745 226.611C416.404 226.611 402.704 238.095 399.267 253.414H367.163C366.501 253.413 365.867 253.15 365.4 252.682C364.932 252.215 364.669 251.58 364.668 250.919V155.137H399.267C402.704 170.456 416.404 181.94 432.745 181.94C451.667 181.94 467.062 166.546 467.062 147.623C467.062 128.7 451.668 113.306 432.745 113.306C416.405 113.306 402.705 124.789 399.267 140.107H364.67V44.327C364.671 43.6655 364.934 43.0314 365.402 42.5636C365.869 42.0959 366.504 41.8328 367.165 41.832H399.269C402.706 57.151 416.406 68.634 432.747 68.634C451.669 68.634 467.064 53.24 467.064 34.317C467.064 15.394 451.668 0 432.746 0C416.406 0 402.706 11.483 399.268 26.802H367.164C357.501 26.802 349.639 34.663 349.639 44.326V140.106H305.043V140.04C305.043 132.595 299.699 126.387 292.336 125.28L276.761 122.939C274.229 112.413 270.059 102.351 264.403 93.12L273.765 80.446C278.189 74.456 277.579 66.287 272.313 61.023L261.591 50.3C256.327 45.035 248.158 44.425 242.168 48.848L229.494 58.21C220.263 52.554 210.201 48.3838 199.675 45.852L197.334 30.277C196.228 22.914 190.02 17.569 182.574 17.569H167.41C159.965 17.569 153.757 22.913 152.65 30.277L150.308 45.852C139.782 48.3842 129.72 52.5544 120.489 58.21L107.815 48.848C101.827 44.424 93.657 45.034 88.392 50.3L77.67 61.021C72.404 66.286 71.793 74.455 76.217 80.444L85.579 93.118C79.9228 102.349 75.7526 112.411 73.221 122.937L57.646 125.278C50.283 126.385 44.939 132.593 44.939 140.038V155.201C44.939 162.65 50.284 168.857 57.647 169.964ZM432.746 241.639C443.381 241.639 452.033 250.291 452.033 260.926C452.033 271.561 443.381 280.213 432.746 280.213C422.111 280.213 413.459 271.561 413.459 260.926C413.459 250.291 422.111 241.639 432.746 241.639ZM432.746 128.334C443.381 128.334 452.033 136.986 452.033 147.621C452.033 158.256 443.381 166.908 432.746 166.908C422.111 166.908 413.459 158.256 413.459 147.621C413.459 136.986 422.111 128.334 432.746 128.334ZM432.746 15.029C443.381 15.029 452.033 23.681 452.033 34.316C452.033 44.951 443.381 53.603 432.746 53.603C422.111 53.603 413.459 44.951 413.459 34.316C413.459 23.682 422.111 15.029 432.746 15.029ZM59.968 140.128L80.595 137.027C82.1385 136.795 83.5715 136.089 84.6949 135.005C85.8184 133.922 86.5765 132.515 86.864 130.981C89.154 118.768 93.882 107.361 100.914 97.076C101.795 95.7878 102.253 94.2574 102.224 92.6971C102.196 91.1369 101.682 89.6242 100.755 88.369L88.359 71.586L98.956 60.99L115.739 73.387C116.994 74.314 118.507 74.8274 120.067 74.8559C121.627 74.8844 123.157 74.4266 124.445 73.546C134.731 66.513 146.138 61.786 158.35 59.495C159.884 59.2074 161.29 58.4492 162.374 57.3258C163.457 56.2024 164.164 54.7694 164.396 53.226L167.497 32.599H182.483L185.584 53.226C185.816 54.7694 186.523 56.2024 187.606 57.3258C188.69 58.4492 190.096 59.2074 191.63 59.495C203.842 61.785 215.25 66.513 225.535 73.546C226.823 74.4268 228.354 74.8847 229.914 74.8562C231.474 74.8277 232.987 74.3142 234.242 73.387L251.025 60.99L261.622 71.586L249.226 88.37C248.299 89.6253 247.786 91.1379 247.757 92.6981C247.729 94.2583 248.186 95.7887 249.067 97.077C256.1 107.362 260.827 118.769 263.118 130.983C263.406 132.517 264.164 133.923 265.288 135.006C266.411 136.09 267.844 136.797 269.387 137.029L290.014 140.13V155.116L269.387 158.217C267.844 158.449 266.411 159.156 265.287 160.239C264.164 161.323 263.406 162.729 263.118 164.263C260.827 176.477 256.1 187.884 249.067 198.169C248.186 199.457 247.728 200.987 247.757 202.547C247.785 204.108 248.299 205.62 249.226 206.875L261.623 223.658L251.026 234.255L234.243 221.858C232.988 220.931 231.475 220.418 229.915 220.389C228.354 220.361 226.824 220.819 225.536 221.7C215.251 228.733 203.844 233.46 191.63 235.751C190.096 236.039 188.69 236.797 187.607 237.921C186.523 239.044 185.816 240.477 185.584 242.02L182.483 262.647H167.497L164.396 242.02C164.164 240.477 163.457 239.044 162.373 237.921C161.29 236.797 159.884 236.039 158.35 235.751C146.136 233.46 134.729 228.733 124.444 221.7C123.156 220.819 121.626 220.361 120.066 220.39C118.506 220.418 116.993 220.931 115.738 221.858L98.955 234.255L88.358 223.658L100.755 206.875C101.682 205.62 102.195 204.107 102.224 202.547C102.252 200.987 101.795 199.457 100.914 198.169C93.881 187.884 89.154 176.477 86.864 164.264C86.5764 162.73 85.8182 161.324 84.6948 160.24C83.5713 159.157 82.1384 158.45 80.595 158.218L59.968 155.117V140.128Z" fill="url(#paint2_linear_1153_1039)"/>
<defs>
<linearGradient id="paint0_linear_1153_1039" x1="-0.83766" y1="360.653" x2="95.0273" y2="604.424" gradientUnits="userSpaceOnUse">
<stop stop-color="#8705FF"/>
<stop offset="1" stop-color="#CC00FF"/>
</linearGradient>
<linearGradient id="paint1_linear_1153_1039" x1="116.718" y1="95.0552" x2="436.022" y2="444.701" gradientUnits="userSpaceOnUse">
<stop stop-color="#8705FF"/>
<stop offset="1" stop-color="#CC00FF"/>
</linearGradient>
<linearGradient id="paint2_linear_1153_1039" x1="44.0595" y1="3.38298" x2="301.707" y2="360.061" gradientUnits="userSpaceOnUse">
<stop stop-color="#8705FF"/>
<stop offset="1" stop-color="#CC00FF"/>
</linearGradient>
</defs>
</svg>
