<svg width="512" height="512" viewBox="0 0 512 512" fill="none" xmlns="http://www.w3.org/2000/svg">
<path d="M173.861 289.432C170.021 287.869 165.661 289.682 164.103 293.522C163.798 294.225 156.368 310.795 131.399 310.795C106.146 310.795 97.1338 293.932 96.6958 293.076C95.8077 291.306 94.2562 289.96 92.3793 289.33C90.5025 288.699 88.4526 288.837 86.6767 289.712C84.9007 290.587 83.5427 292.128 82.8987 294C82.2547 295.873 82.377 297.923 83.2388 299.706C83.7588 300.768 96.3788 325.795 131.399 325.795C166.779 325.795 177.529 300.322 177.969 299.236C179.529 295.4 177.696 290.99 173.86 289.432H173.861ZM103.821 255.612C105.564 256.547 107.606 256.756 109.502 256.192C111.398 255.627 112.994 254.336 113.942 252.6C114.415 251.736 114.713 250.788 114.819 249.809C114.925 248.83 114.838 247.839 114.561 246.894C114.284 245.949 113.824 245.068 113.206 244.301C112.589 243.534 111.826 242.896 110.962 242.424C110.341 242.08 95.5118 234.174 76.0478 240.729C75.1145 241.043 74.2522 241.538 73.5102 242.185C72.7682 242.833 72.1609 243.62 71.7231 244.502C71.2854 245.384 71.0256 246.344 70.9587 247.326C70.8918 248.309 71.0191 249.295 71.3333 250.228C71.6475 251.162 72.1424 252.024 72.7899 252.766C73.4373 253.508 74.2245 254.115 75.1067 254.553C75.9888 254.991 76.9485 255.25 77.931 255.317C78.9135 255.384 79.8995 255.257 80.8328 254.943C93.7738 250.584 103.302 255.346 103.821 255.611V255.612ZM184.958 240.729C165.485 234.174 150.661 242.08 150.04 242.424C146.407 244.408 145.036 248.986 147.024 252.619C147.668 253.802 148.618 254.79 149.776 255.479C150.934 256.167 152.256 256.532 153.603 256.533C154.81 256.533 156.033 256.24 157.173 255.619C157.571 255.412 167.142 250.557 180.173 254.943C181.11 255.272 182.103 255.411 183.094 255.353C184.086 255.296 185.056 255.041 185.948 254.606C186.84 254.17 187.637 253.561 188.293 252.815C188.948 252.069 189.448 251.2 189.765 250.259C190.082 249.318 190.209 248.323 190.138 247.332C190.067 246.342 189.801 245.375 189.354 244.489C188.906 243.602 188.287 242.813 187.533 242.167C186.778 241.522 185.903 241.032 184.958 240.728V240.729ZM286.325 94.4398C274.055 94.4398 263.997 103.846 263.427 115.854C263.137 121.944 265.329 127.658 269.153 131.939C265.329 136.221 263.138 141.936 263.427 148.025C263.825 156.428 268.872 163.561 276.075 167.084C274.431 170.229 273.575 173.826 273.587 177.756C273.618 187.065 279.637 195.022 288.037 198.088C286.72 200.83 285.997 203.865 285.927 207.123C285.797 212.932 288.005 218.459 292.142 222.686C296.341 226.979 302.172 229.44 308.142 229.44H414.392C432.345 229.44 446.946 214.834 446.946 196.88V145.717C446.946 128.717 429.759 113.096 411.189 98.7438C401.903 91.5718 394.704 82.0527 390.372 71.2127L377.861 39.9278C373.713 29.1618 359.318 32.8878 354.576 34.1148C349.24 35.4978 344.811 38.9428 342.096 43.8218C337.924 51.3258 337.806 61.5758 341.74 74.2868L345.912 90.3927C336.061 93.2597 323.389 94.1818 314.232 94.4428H286.326L286.325 94.4398ZM314.544 109.44C325.204 109.143 340.388 107.986 352.173 104.158C358.79 102.01 362.61 95.0568 360.868 88.3298L356.216 70.3537C356.184 70.2344 356.15 70.1157 356.114 69.9978C354.013 63.2638 351.626 50.3728 358.337 48.6348C361.61 47.7868 363.587 47.5218 364.716 47.4548L376.442 76.7827C381.793 90.1398 390.622 101.821 402.012 110.615C410.2 116.94 431.946 133.745 431.946 145.717V196.885C431.946 206.565 424.071 214.443 414.392 214.443H308.141C304.305 214.443 300.836 211.311 300.921 207.455C300.949 206.197 301.031 202.361 307.609 199.947C309.372 199.3 310.851 198.052 311.786 196.424C312.721 194.795 313.053 192.89 312.723 191.041C312.394 189.19 311.424 187.514 309.983 186.308C308.542 185.101 306.722 184.441 304.843 184.443H295.701C291.924 184.443 288.588 181.295 288.588 177.705C288.588 174.1 290.768 169.435 295.932 169.435L306.787 169.443C308.776 169.443 310.684 168.653 312.09 167.246C313.497 165.84 314.287 163.932 314.287 161.943C314.287 157.799 310.932 154.443 306.787 154.443H286.327C282.15 154.443 278.6 151.248 278.412 147.318C278.232 143.553 280.877 140.221 284.561 139.561C285.869 139.326 287.822 139.506 304.197 139.443C306.186 139.443 308.094 138.653 309.5 137.246C310.907 135.84 311.697 133.932 311.697 131.943C311.697 127.799 308.342 124.443 304.197 124.443H285.904C281.549 124.443 278.213 120.779 278.412 116.568C278.6 112.638 282.15 109.443 286.326 109.443H314.338C314.408 109.439 314.478 109.439 314.545 109.439L314.544 109.44Z" fill="white"/>
<path d="M435.237 0H319.999C318.01 0 316.103 0.790175 314.696 2.19669C313.29 3.60321 312.499 5.51087 312.499 7.49999C312.499 9.48911 313.29 11.3968 314.696 12.8033C316.103 14.2098 318.01 15 319.999 15H435.237C469.292 15 496.999 42.6209 496.999 76.5698V242.902C496.999 276.847 469.292 304.468 435.237 304.468H348.499C344.359 304.468 340.999 307.828 340.999 311.968C340.999 326.167 337.78 344.124 314.179 350.632C322.374 337.96 321.589 320.499 319.03 310.163C318.626 308.538 317.69 307.095 316.37 306.063C315.051 305.031 313.424 304.469 311.749 304.468H223.906C225.686 298.534 226.893 292.442 227.512 286.276C249.145 290.183 260.999 267.156 260.999 244C260.999 227.844 255.468 215.555 246.055 209.629C250.608 199.965 252.547 187.07 244.789 171.926C245.938 135.762 231.179 117.055 218.457 107.696C207.984 99.9918 197.234 97.3198 192.09 96.4298C187.914 92.3438 177.773 84.2028 160 79.8708V76.5708C160 42.6199 187.703 15 221.762 15H287.999C289.989 15 291.896 14.2098 293.303 12.8033C294.709 11.3968 295.499 9.48911 295.499 7.49999C295.499 5.51087 294.709 3.60321 293.303 2.19669C291.896 0.790175 289.989 0 287.999 0L221.762 0C179.434 0 145 34.3519 145 76.5698V77.4408C132.191 76.3239 116.594 77.2109 97.8358 81.7308C86.0268 84.5778 75.2579 88.2578 65.8319 92.6758C64.9398 93.0932 64.1387 93.6824 63.4744 94.4095C62.8101 95.1367 62.2957 95.9876 61.9604 96.9137C61.6251 97.8398 61.4757 98.8229 61.5205 99.8068C61.5654 100.791 61.8037 101.756 62.2219 102.648C63.9769 106.402 68.4419 108.016 72.1949 106.258C80.7108 102.27 90.5198 98.9218 101.352 96.3118C122.032 91.3318 138.086 91.1758 150.262 93.1218C150.874 93.3088 151.508 93.4163 152.148 93.4418C173.297 97.3158 182.012 107.496 182.539 108.132C183.182 108.948 183.987 109.622 184.904 110.11C185.822 110.599 186.83 110.891 187.867 110.969C187.973 110.98 199.004 112.008 209.567 119.777C224.129 130.488 230.91 148.5 229.723 173.309C229.656 174.712 229.985 176.106 230.672 177.332C236.801 188.277 236.445 198.372 229.594 208.199C224.797 215.074 218.304 219.504 216.551 220.625C215.785 220.867 213.883 221.332 212.383 220.637C210.687 219.847 209.617 217.492 209.02 215.648C204.293 201.078 197.945 195.215 192.348 190.043C186.793 184.91 181.996 180.477 177.628 166.059C177.202 164.652 176.373 163.401 175.242 162.462C174.112 161.523 172.73 160.937 171.27 160.777C169.808 160.615 168.33 160.887 167.022 161.56C165.714 162.232 164.633 163.275 163.914 164.559C161.054 169.649 152.344 185.129 115.281 183.801C84.2148 182.668 58.6949 193.664 48.6709 212.469C45.8749 217.711 43.4379 219.574 42.3279 220.035C17.641 205.609 27.7659 183.57 29.0079 181.102C29.8476 179.474 30.0628 177.595 29.6129 175.82C29.5389 175.531 22.605 146.656 47.6679 122.594C49.1027 121.216 49.9316 119.325 49.9722 117.337C50.0128 115.348 49.2618 113.425 47.8844 111.99C46.507 110.555 44.616 109.727 42.6275 109.686C40.639 109.645 38.7157 110.396 37.2809 111.774C10.527 137.457 13.008 167.625 14.527 176.777C13.078 180.375 10.84 187.332 11.007 195.75C11.097 200.094 11.844 205.113 13.922 210.29C5.06599 216.44 0 228.386 0 244C0 267.539 12.176 290.116 33.4799 286.276C35.6909 308.636 45.4649 329.362 61.5549 345.44C72.0149 355.91 84.4398 363.699 97.9998 368.476V382.246L70.3829 391.515C69.4452 391.831 68.5793 392.33 67.8351 392.982C67.0909 393.634 66.4832 394.427 66.0469 395.315C30.4569 407.581 5.99999 444.753 5.99999 487.601V504.499C5.99999 506.488 6.79016 508.396 8.19668 509.802C9.6032 511.209 11.5109 511.999 13.5 511.999H247.5C249.489 511.999 251.396 511.209 252.803 509.802C254.209 508.396 254.999 506.488 254.999 504.499V487.601C254.999 476.121 253.245 464.886 249.79 454.21C249.486 453.273 249.001 452.405 248.362 451.655C247.724 450.905 246.943 450.289 246.066 449.841C245.189 449.393 244.232 449.122 243.25 449.044C242.268 448.966 241.28 449.082 240.344 449.386C238.451 449.999 236.879 451.34 235.975 453.112C235.07 454.884 234.906 456.942 235.52 458.835C238.492 468.015 240 477.69 240 487.601V496.999H153.574L178.012 479.237C178.969 478.542 179.748 477.629 180.285 476.575C180.822 475.521 181.102 474.354 181.102 473.171V457.769L192.632 449.409C193.591 448.713 194.372 447.8 194.91 446.744C195.449 445.688 195.729 444.52 195.73 443.335V411.761C205.672 416.315 214.598 423.495 221.91 432.905C222.611 433.808 223.51 434.538 224.537 435.04C225.564 435.541 226.692 435.802 227.836 435.8C229.238 435.798 230.613 435.403 231.802 434.659C232.992 433.916 233.949 432.853 234.566 431.593C235.182 430.333 235.432 428.925 235.289 427.53C235.145 426.134 234.613 424.807 233.754 423.698C223.27 410.214 209.93 400.488 194.949 395.311C194.513 394.423 193.905 393.631 193.161 392.979C192.416 392.327 191.55 391.83 190.613 391.515L163 382.245V368.425C187.102 359.878 206.875 342.105 218.05 319.374C219.293 319.433 220.531 319.468 221.758 319.468H305.382C305.714 322.565 305.905 326.597 305.425 330.757C304.222 341.261 299.503 347.522 291.003 349.901C286.437 351.179 283.483 355.706 284.132 360.429C284.745 364.889 288.46 368.128 292.96 368.128C311.433 368.128 326.136 364.155 336.663 356.315C347.823 347.999 354.198 335.628 355.671 319.468H435.241C477.565 319.468 511.999 285.12 511.999 242.902V76.5698C511.999 34.3519 477.565 0 435.237 0ZM228 270.905V230.918C231.497 228.306 234.728 225.357 237.648 222.113C243.73 225.625 246 235.23 246 244C246 257.335 240.238 275.683 228 270.905ZM15 244C15 235.988 16.93 227.066 22.05 222.992C24.941 226.109 28.5349 229.129 32.9999 231.922V270.905C20.73 275.695 15 257.335 15 244ZM80.2698 404.019L97.5348 398.222L118.52 486.519L94.8978 469.351V453.944C94.8977 452.76 94.6169 451.592 94.0786 450.537C93.5403 449.482 92.7597 448.569 91.8008 447.874L80.2698 439.511V404.019ZM114.828 406.12H146.172L130.5 472.059L114.828 406.12ZM21 487.6C21 453.538 38.7809 423.808 65.2699 411.749V443.335C65.27 444.52 65.5508 445.687 66.0891 446.742C66.6274 447.797 67.408 448.71 68.3669 449.405L79.8978 457.769V473.171C79.8979 474.354 80.1779 475.521 80.7149 476.575C81.252 477.629 82.0308 478.541 82.9878 479.237L107.426 496.999H21V487.6ZM180.73 404.019V439.511L169.2 447.874C168.241 448.569 167.46 449.482 166.921 450.537C166.383 451.592 166.102 452.76 166.102 453.944V469.351L142.48 486.519L163.465 398.222L180.73 404.019ZM148 391.119H113V372.436C124.573 374.525 136.428 374.519 148 372.42V391.119ZM72.1599 334.834C56.5819 319.265 47.9999 298.545 47.9999 276.499V233.95C52.2929 232.2 57.2999 228.168 61.9059 219.523C69.1019 206.027 89.8438 197.891 114.738 198.793C138.484 199.648 156.398 194.418 168.218 183.215C172.707 192.316 177.656 196.891 182.172 201.059C187.234 205.739 191.234 209.434 194.754 220.281C197.559 228.926 202.614 232.719 206.364 234.379C208.648 235.391 210.91 235.836 213 235.957V276.499C213 349.515 123.973 386.679 72.1599 334.835V334.834Z" fill="white"/>
</svg>
