<svg width="468" height="429" viewBox="0 0 468 429" fill="none" xmlns="http://www.w3.org/2000/svg">
<path d="M232.691 118.74C247.811 118.74 262.301 111.12 273.491 97.29C283.711 84.66 289.571 68.73 289.571 53.57C289.571 23.03 265.121 0 232.691 0C200.261 0 175.811 23 175.811 53.57C175.811 68.73 181.671 84.66 191.891 97.29C203.081 111.13 217.571 118.74 232.691 118.74ZM232.691 16.5C256.091 16.5 273.071 32.09 273.071 53.57C273.071 80.57 250.981 102.24 232.691 102.24C210.321 102.24 192.311 75.61 192.311 53.57C192.311 32.13 209.291 16.5 232.691 16.5ZM165.381 197.92L159.591 280.51C159.515 281.591 159.652 282.676 159.995 283.704C160.338 284.731 160.881 285.681 161.591 286.499C162.301 287.318 163.166 287.988 164.135 288.472C165.105 288.956 166.16 289.244 167.241 289.32H167.821C169.908 289.318 171.917 288.526 173.443 287.103C174.97 285.68 175.902 283.732 176.051 281.65L181.841 199.13C181.917 198.049 181.779 196.964 181.436 195.936C181.093 194.909 180.551 193.959 179.84 193.141C179.13 192.323 178.265 191.652 177.296 191.168C176.327 190.684 175.272 190.396 174.191 190.32C173.11 190.244 172.025 190.381 170.997 190.725C169.969 191.068 169.019 191.61 168.201 192.32C167.383 193.031 166.713 193.895 166.229 194.865C165.745 195.834 165.457 196.889 165.381 197.97V197.92Z" fill="white"/>
<path d="M344.579 289.31C346.818 289.112 348.886 288.034 350.331 286.314C351.777 284.593 352.481 282.369 352.289 280.13C352.289 280.13 343.569 217.6 342.289 196.62C339.919 158.95 316.909 128.73 280.959 123.23C268.319 121.29 245.359 119.83 233.359 119.82C216.978 120.104 200.623 121.236 184.359 123.21C167.498 125.519 152.055 133.891 140.919 146.76C129.219 160.27 123.989 177.54 122.919 196.66C121.719 217.66 113.769 280.22 113.769 280.22C113.635 281.305 113.718 282.405 114.013 283.458C114.308 284.51 114.809 285.493 115.487 286.35C116.165 287.207 117.007 287.921 117.963 288.45C118.919 288.979 119.971 289.313 121.057 289.432C122.143 289.551 123.242 289.454 124.291 289.145C125.339 288.835 126.315 288.321 127.163 287.632C128.011 286.942 128.713 286.091 129.229 285.128C129.745 284.164 130.065 283.108 130.169 282.02C130.169 282.02 138.239 218.78 139.389 197.57C141.029 167.51 158.819 143.35 186.609 139.57C202.12 137.686 217.717 136.605 233.339 136.33C244.519 136.33 266.709 137.75 278.449 139.55C291.357 141.504 303.159 147.958 311.769 157.77C320.929 168.29 324.899 182.42 325.769 197.62C327.039 218.86 335.899 282.11 335.899 282.11C336.22 284.162 337.279 286.026 338.877 287.352C340.476 288.678 342.504 289.374 344.579 289.31Z" fill="white"/>
<path d="M290.95 190.268C289.864 190.343 288.803 190.632 287.829 191.118C286.855 191.605 285.987 192.279 285.275 193.103C284.563 193.927 284.021 194.883 283.68 195.917C283.34 196.951 283.207 198.043 283.29 199.128L289.09 281.708C289.234 283.791 290.163 285.741 291.688 287.166C293.213 288.592 295.222 289.386 297.31 289.388H297.9C300.082 289.232 302.112 288.216 303.547 286.565C304.981 284.913 305.701 282.76 305.55 280.578L299.75 197.988C299.68 196.903 299.397 195.842 298.917 194.867C298.436 193.891 297.768 193.02 296.951 192.303C296.134 191.586 295.183 191.037 294.153 190.688C293.123 190.339 292.035 190.196 290.95 190.268ZM285.33 364.008L325.01 325.328C326.112 324.254 326.891 322.892 327.26 321.398C327.628 319.904 327.572 318.337 327.096 316.873C326.621 315.41 325.746 314.108 324.569 313.116C323.393 312.124 321.963 311.48 320.44 311.258L265.61 303.258L241.09 253.608C240.409 252.227 239.355 251.063 238.047 250.25C236.739 249.437 235.23 249.005 233.69 249.005C232.15 249.005 230.64 249.437 229.333 250.25C228.025 251.063 226.971 252.227 226.29 253.608L201.77 303.288L146.94 311.288C145.417 311.51 143.987 312.154 142.81 313.146C141.634 314.138 140.759 315.44 140.284 316.903C139.808 318.367 139.752 319.934 140.12 321.428C140.489 322.922 141.268 324.284 142.37 325.358L182.05 364.038L172.69 418.608C172.425 420.13 172.592 421.695 173.173 423.126C173.754 424.557 174.725 425.796 175.975 426.703C177.225 427.609 178.705 428.146 180.246 428.254C181.786 428.361 183.326 428.033 184.69 427.308L233.69 401.528L282.69 427.308C283.875 427.929 285.192 428.254 286.53 428.258C287.731 428.256 288.918 427.993 290.007 427.485C291.096 426.978 292.061 426.239 292.835 425.32C293.609 424.401 294.173 423.325 294.488 422.166C294.804 421.006 294.862 419.792 294.66 418.608L285.33 364.008ZM229.85 384.908C220.27 389.788 191.77 404.908 191.77 404.908L199.04 362.498C199.266 361.18 199.168 359.827 198.756 358.556C198.343 357.284 197.627 356.132 196.67 355.198L165.86 325.198L208.44 319.008C209.763 318.815 211.019 318.304 212.101 317.518C213.182 316.733 214.057 315.696 214.65 314.498L233.65 275.908L252.65 314.498C253.243 315.696 254.118 316.733 255.199 317.518C256.281 318.304 257.537 318.815 258.86 319.008L301.44 325.198L270.63 355.198C269.673 356.132 268.957 357.284 268.544 358.556C268.131 359.827 268.034 361.18 268.26 362.498L275.53 404.908C275.53 404.908 247.03 389.768 237.45 384.908C236.282 384.278 234.977 383.948 233.65 383.948C232.323 383.948 231.017 384.278 229.85 384.908ZM460.32 336.338L420.23 330.508L402.3 294.188C401.621 292.806 400.568 291.642 399.261 290.828C397.954 290.014 396.445 289.583 394.905 289.583C393.365 289.583 391.856 290.014 390.549 290.828C389.242 291.642 388.189 292.806 387.51 294.188L369.58 330.508L329.49 336.338C327.967 336.56 326.537 337.204 325.36 338.196C324.184 339.188 323.309 340.49 322.834 341.953C322.358 343.417 322.302 344.984 322.67 346.478C323.039 347.972 323.818 349.334 324.92 350.408L353.92 378.688L347.07 418.608C346.805 420.13 346.972 421.695 347.553 423.126C348.134 424.557 349.105 425.796 350.355 426.703C351.606 427.609 353.085 428.146 354.626 428.254C356.166 428.361 357.706 428.033 359.07 427.308L394.92 408.458L430.78 427.308C431.965 427.929 433.282 428.254 434.62 428.258C435.821 428.256 437.008 427.993 438.097 427.485C439.186 426.978 440.151 426.239 440.925 425.32C441.699 424.401 442.263 423.325 442.578 422.166C442.894 421.006 442.952 419.792 442.75 418.608L435.9 378.688L464.9 350.408C466.002 349.334 466.781 347.972 467.15 346.478C467.518 344.984 467.462 343.417 466.986 341.953C466.511 340.49 465.636 339.188 464.459 338.196C463.283 337.204 461.853 336.56 460.33 336.338H460.32ZM391.07 391.838C384.78 394.998 366.16 404.928 366.16 404.928L370.92 377.198C371.146 375.88 371.048 374.527 370.636 373.256C370.223 371.984 369.507 370.832 368.55 369.898L348.4 350.258L376.24 346.258C377.565 346.066 378.822 345.555 379.905 344.767C380.987 343.979 381.86 342.94 382.45 341.738L394.9 316.518L407.35 341.738C407.943 342.939 408.819 343.978 409.903 344.765C410.986 345.552 412.245 346.065 413.57 346.258L441.4 350.258L421.26 369.898C420.302 370.831 419.585 371.983 419.172 373.255C418.759 374.527 418.662 375.88 418.89 377.198L423.69 404.928C423.69 404.928 405.08 394.998 398.79 391.838C397.604 391.199 396.277 390.865 394.93 390.865C393.583 390.865 392.256 391.199 391.07 391.838ZM137.89 336.338L97.7999 330.508L79.8699 294.188C79.1907 292.806 78.1379 291.642 76.8308 290.828C75.5237 290.014 74.0147 289.583 72.4749 289.583C70.9351 289.583 69.4261 290.014 68.1191 290.828C66.812 291.642 65.7592 292.806 65.0799 294.188L47.1499 330.508L7.05994 336.338C5.53713 336.56 4.10676 337.204 2.93049 338.196C1.75421 339.188 0.878914 340.49 0.403518 341.953C-0.0718768 343.417 -0.12842 344.984 0.240278 346.478C0.608976 347.972 1.38822 349.334 2.48994 350.408L31.4899 378.688L24.6899 418.608C24.425 420.13 24.5925 421.695 25.1733 423.126C25.754 424.557 26.7248 425.796 27.9752 426.703C29.2255 427.609 30.7052 428.146 32.2458 428.254C33.7865 428.361 35.3263 428.033 36.6899 427.308L72.5499 408.458L108.4 427.308C109.585 427.929 110.902 428.254 112.24 428.258C113.441 428.256 114.628 427.993 115.717 427.485C116.806 426.978 117.771 426.239 118.545 425.32C119.319 424.401 119.883 423.325 120.198 422.166C120.514 421.006 120.572 419.792 120.37 418.608L113.52 378.688L142.52 350.408C143.622 349.334 144.401 347.972 144.77 346.478C145.138 344.984 145.082 343.417 144.606 341.953C144.131 340.49 143.256 339.188 142.079 338.196C140.903 337.204 139.473 336.56 137.95 336.338H137.89ZM68.6899 391.838L43.7399 404.928L48.4899 377.198C48.7177 375.88 48.621 374.527 48.208 373.255C47.7951 371.983 47.0784 370.831 46.1199 369.898L25.9799 350.258L53.8099 346.258C55.1352 346.065 56.3937 345.552 57.4772 344.765C58.5606 343.978 59.4367 342.939 60.0299 341.738L72.4799 316.518L84.9299 341.738C85.5195 342.94 86.3932 343.979 87.4753 344.767C88.5574 345.555 89.8153 346.066 91.1399 346.258L118.98 350.258L98.8299 369.898C97.8729 370.832 97.1572 371.984 96.7443 373.256C96.3315 374.527 96.2339 375.88 96.4599 377.198L101.22 404.928L76.3099 391.838C75.163 391.136 73.8445 390.765 72.4999 390.765C71.1553 390.765 69.8369 391.136 68.6899 391.838Z" fill="white"/>
</svg>
