<svg width="496" height="496" viewBox="0 0 496 496" fill="none" xmlns="http://www.w3.org/2000/svg">
<path d="M240 239.999C241.874 240 243.689 239.343 245.128 238.143L279.672 209.343C299.831 192.586 316.048 171.591 327.167 147.852C338.286 124.112 344.033 98.2132 344 71.9991C344 69.8774 343.157 67.8425 341.657 66.3422C340.157 64.842 338.122 63.9991 336 63.9991H331.2C299.873 63.9544 269.486 53.2916 245 33.7511C243.581 32.6151 241.818 31.9961 240 31.9961C238.183 31.9961 236.419 32.6151 235 33.7511C210.514 53.2916 180.127 63.9544 148.8 63.9991H144C141.878 63.9991 139.844 64.842 138.343 66.3422C136.843 67.8425 136 69.8774 136 71.9991C135.966 98.2135 141.712 124.113 152.831 147.853C163.95 171.592 180.168 192.588 200.328 209.343L234.872 238.143C236.311 239.343 238.126 240 240 239.999ZM152.192 79.9991C183.834 79.2472 214.483 68.8038 240 50.0791C265.519 68.8015 296.167 79.2446 327.808 79.9991C326.735 102.502 320.989 124.534 310.934 144.695C300.88 164.855 286.737 182.7 269.408 197.095L240 221.599L210.568 197.079C193.245 182.684 179.108 164.84 169.058 144.683C159.008 124.526 153.264 102.497 152.192 79.9991Z" fill="white"/>
<path d="M245.2 198.072L270.232 176.624C291.622 158.23 306.262 133.224 311.832 105.568C312.063 104.408 312.035 103.212 311.749 102.065C311.463 100.917 310.926 99.8477 310.177 98.9327C309.428 98.0177 308.486 97.2801 307.418 96.773C306.349 96.2659 305.182 96.0019 304 96C284.966 95.9605 266.451 89.7889 251.2 78.4L244.8 73.6C243.415 72.5614 241.731 72 240 72C238.269 72 236.584 72.5614 235.2 73.6L228.8 78.4C213.547 89.7863 195.033 95.9576 176 96C174.813 95.9998 173.642 96.2634 172.57 96.7719C171.498 97.2803 170.552 98.0208 169.802 98.9397C169.051 99.8586 168.515 100.933 168.231 102.085C167.947 103.237 167.922 104.438 168.16 105.6C173.729 133.256 188.369 158.262 209.76 176.656L234.792 198.104C236.241 199.343 238.085 200.025 239.992 200.025C241.899 200.025 243.743 199.343 245.192 198.104L245.2 198.072ZM220.168 164.472C203.913 150.49 192.068 132.089 186.072 111.504C205.035 109.617 223.126 102.598 238.4 91.2L240 90L241.6 91.2C256.872 102.6 274.963 109.62 293.928 111.504C287.931 132.089 276.086 150.49 259.832 164.472L240 181.464L220.168 164.472Z" fill="white"/>
<path d="M488 272H416V8C416 5.87827 415.157 3.84344 413.657 2.34315C412.157 0.842854 410.122 0 408 0H72C69.8783 0 67.8434 0.842854 66.3431 2.34315C64.8429 3.84344 64 5.87827 64 8V208H8C5.87827 208 3.84344 208.843 2.34315 210.343C0.842854 211.843 0 213.878 0 216V456C0.0127029 466.605 4.23106 476.772 11.7298 484.27C19.2285 491.769 29.3952 495.987 40 496H376C386.605 495.987 396.772 491.769 404.27 484.27C411.769 476.772 415.987 466.605 416 456V432H488C490.122 432 492.157 431.157 493.657 429.657C495.157 428.157 496 426.122 496 424V280C496 277.878 495.157 275.843 493.657 274.343C492.157 272.843 490.122 272 488 272ZM16 456V224H64V456C64 462.365 61.4714 468.47 56.9706 472.971C52.4697 477.471 46.3652 480 40 480C33.6348 480 27.5303 477.471 23.0294 472.971C18.5286 468.47 16 462.365 16 456ZM400 456C400 462.365 397.471 468.47 392.971 472.971C388.47 477.471 382.365 480 376 480H71.792C77.0865 473.117 79.9706 464.684 80 456V16H400V272H392C389.878 272 387.843 272.843 386.343 274.343C384.843 275.843 384 277.878 384 280V288H363.312L336 260.688V216C336 213.878 335.157 211.843 333.657 210.343C332.157 208.843 330.122 208 328 208H320C311.513 208 303.374 211.371 297.373 217.373C291.371 223.374 288 231.513 288 240V288H232C225.635 288 219.53 290.529 215.029 295.029C210.529 299.53 208 305.635 208 312V408C208 414.365 210.529 420.47 215.029 424.971C219.53 429.471 225.635 432 232 432H328C329.238 432.014 330.462 431.74 331.576 431.2L361.888 416H384V424C384 426.122 384.843 428.157 386.343 429.657C387.843 431.157 389.878 432 392 432H400V456ZM384 400H360C358.762 399.986 357.538 400.26 356.424 400.8L326.112 416H232C229.878 416 227.843 415.157 226.343 413.657C224.843 412.157 224 410.122 224 408V400H288V384H224V368H288V352H224V336H288V320H224V312C224 309.878 224.843 307.843 226.343 306.343C227.843 304.843 229.878 304 232 304H296C298.122 304 300.157 303.157 301.657 301.657C303.157 300.157 304 298.122 304 296V240C304 235.757 305.686 231.687 308.686 228.686C311.687 225.686 315.757 224 320 224V264C320 266.122 320.844 268.156 322.344 269.656L354.344 301.656C355.844 303.156 357.878 304 360 304H384V400ZM480 416H400V288H480V416Z" fill="white"/>
<path d="M171.68 241.008C170.556 240.372 169.291 240.026 168 240H104C101.878 240 99.8434 240.843 98.3431 242.343C96.8429 243.843 96 245.878 96 248V312C96 314.121 96.8429 316.156 98.3431 317.657C99.8434 319.157 101.878 320 104 320H168C170.122 320 172.157 319.157 173.657 317.657C175.157 316.156 176 314.121 176 312V259.312L197.656 237.656L186.344 226.344L171.68 241.008ZM160 304H112V256H156.688L136 276.688L125.656 266.344L114.344 277.656L130.344 293.656C131.844 295.156 133.879 295.998 136 295.998C138.121 295.998 140.156 295.156 141.656 293.656L160 275.312V304ZM186.344 322.344L171.68 337.008C170.556 336.371 169.291 336.025 168 336H104C101.878 336 99.8434 336.843 98.3431 338.343C96.8429 339.843 96 341.878 96 344V408C96 410.121 96.8429 412.156 98.3431 413.657C99.8434 415.157 101.878 416 104 416H168C170.122 416 172.157 415.157 173.657 413.657C175.157 412.156 176 410.121 176 408V355.312L197.656 333.656L186.344 322.344ZM160 400H112V352H156.688L136 372.688L125.656 362.344L114.344 373.656L130.344 389.656C131.844 391.156 133.879 391.998 136 391.998C138.121 391.998 140.156 391.156 141.656 389.656L160 371.312V400Z" fill="white"/>
</svg>
