<svg width="458" height="431" viewBox="0 0 458 431" fill="none" xmlns="http://www.w3.org/2000/svg">
<path d="M208.181 208.517H199.336C195.918 208.512 192.641 207.151 190.225 204.734C187.808 202.318 186.448 199.041 186.442 195.623V190.555H181.374C177.956 190.55 174.68 189.19 172.263 186.773C169.846 184.356 168.486 181.08 168.48 177.662V168.806C168.486 165.389 169.847 162.114 172.264 159.698C174.681 157.283 177.957 155.925 181.374 155.923H186.442V150.855C186.445 147.436 187.804 144.158 190.222 141.74C192.639 139.323 195.917 137.964 199.336 137.961H208.181C211.601 137.961 214.88 139.319 217.298 141.737C219.716 144.155 221.075 147.435 221.075 150.855V155.923H226.143C229.56 155.925 232.836 157.283 235.253 159.698C237.671 162.114 239.031 165.389 239.037 168.806V177.662C239.031 181.08 237.671 184.356 235.254 186.773C232.837 189.19 229.561 190.55 226.143 190.555H221.075V195.623C221.072 199.042 219.713 202.32 217.295 204.738C214.878 207.155 211.6 208.514 208.181 208.517ZM181.374 165.913C180.606 165.913 179.869 166.217 179.325 166.76C178.781 167.302 178.473 168.038 178.471 168.806V177.662C178.471 178.432 178.777 179.17 179.321 179.715C179.866 180.259 180.604 180.565 181.374 180.565H191.437C192.762 180.565 194.033 181.091 194.969 182.028C195.906 182.965 196.432 184.235 196.432 185.56V195.623C196.432 196.393 196.738 197.132 197.283 197.676C197.827 198.221 198.566 198.527 199.336 198.527H208.181C208.951 198.527 209.69 198.221 210.234 197.676C210.779 197.132 211.085 196.393 211.085 195.623V185.56C211.085 184.235 211.611 182.965 212.548 182.028C213.484 181.091 214.755 180.565 216.08 180.565H226.143C226.913 180.565 227.651 180.259 228.196 179.715C228.74 179.17 229.046 178.432 229.046 177.662V168.806C229.044 168.038 228.736 167.302 228.192 166.76C227.648 166.217 226.911 165.913 226.143 165.913H216.08C214.755 165.913 213.484 165.387 212.548 164.45C211.611 163.513 211.085 162.242 211.085 160.918V150.855C211.085 150.085 210.779 149.346 210.234 148.802C209.69 148.257 208.951 147.951 208.181 147.951H199.336C198.566 147.951 197.827 148.257 197.283 148.802C196.738 149.346 196.432 150.085 196.432 150.855V160.918C196.432 162.242 195.906 163.513 194.969 164.45C194.033 165.387 192.762 165.913 191.437 165.913H181.374ZM427.915 430.477H226.497C221.316 430.477 216.227 429.114 211.74 426.523C207.254 423.933 203.528 420.207 200.938 415.721C198.348 411.234 196.984 406.145 196.984 400.964C196.984 395.784 198.348 390.695 200.938 386.208L301.652 211.774C304.218 207.266 307.938 203.523 312.43 200.93C316.922 198.336 322.024 196.986 327.211 197.018C332.397 196.988 337.498 198.339 341.99 200.932C346.481 203.526 350.202 207.268 352.769 211.774L453.515 386.208C456.102 390.696 457.463 395.785 457.461 400.966C457.459 406.146 456.094 411.234 453.503 415.72C450.912 420.206 447.187 423.931 442.701 426.521C438.215 429.112 433.126 430.476 427.946 430.477H427.915ZM310.321 216.769L209.597 391.203C207.883 394.17 206.981 397.536 206.981 400.963C206.981 404.389 207.882 407.755 209.595 410.723C211.307 413.69 213.771 416.155 216.738 417.869C219.705 419.583 223.07 420.486 226.497 420.487H427.915C431.342 420.488 434.709 419.586 437.677 417.873C440.645 416.16 443.11 413.695 444.824 410.727C446.538 407.759 447.441 404.393 447.441 400.965C447.441 397.538 446.539 394.171 444.825 391.203L344.121 216.769C342.406 213.803 339.941 211.339 336.973 209.627C334.004 207.914 330.638 207.012 327.211 207.012C323.784 207.012 320.417 207.914 317.449 209.627C314.481 211.339 312.015 213.803 310.3 216.769H310.321Z" fill="white"/>
<path d="M208.181 208.517H199.336C195.918 208.512 192.641 207.151 190.225 204.734C187.808 202.318 186.448 199.041 186.442 195.623V190.555H181.374C177.956 190.55 174.68 189.19 172.263 186.773C169.846 184.356 168.486 181.08 168.48 177.662V168.806C168.486 165.389 169.847 162.114 172.264 159.698C174.681 157.283 177.957 155.925 181.374 155.923H186.442V150.855C186.445 147.436 187.804 144.158 190.222 141.74C192.639 139.323 195.917 137.964 199.336 137.961H208.181C211.601 137.961 214.88 139.319 217.298 141.737C219.716 144.155 221.075 147.435 221.075 150.855V155.923H226.143C229.56 155.925 232.836 157.283 235.253 159.698C237.671 162.114 239.031 165.389 239.037 168.806V177.662C239.031 181.08 237.671 184.356 235.254 186.773C232.837 189.19 229.561 190.55 226.143 190.555H221.075V195.623C221.072 199.042 219.713 202.32 217.295 204.738C214.878 207.155 211.6 208.514 208.181 208.517ZM181.374 165.913C180.606 165.913 179.869 166.217 179.325 166.76C178.781 167.302 178.473 168.038 178.471 168.806V177.662C178.471 178.432 178.777 179.17 179.321 179.715C179.866 180.259 180.604 180.565 181.374 180.565H191.437C192.762 180.565 194.033 181.091 194.969 182.028C195.906 182.965 196.432 184.235 196.432 185.56V195.623C196.432 196.393 196.738 197.132 197.283 197.676C197.827 198.221 198.566 198.527 199.336 198.527H208.181C208.951 198.527 209.69 198.221 210.234 197.676C210.779 197.132 211.085 196.393 211.085 195.623V185.56C211.085 184.235 211.611 182.965 212.548 182.028C213.484 181.091 214.755 180.565 216.08 180.565H226.143C226.913 180.565 227.651 180.259 228.196 179.715C228.74 179.17 229.046 178.432 229.046 177.662V168.806C229.044 168.038 228.736 167.302 228.192 166.76C227.648 166.217 226.911 165.913 226.143 165.913H216.08C214.755 165.913 213.484 165.387 212.548 164.45C211.611 163.513 211.085 162.242 211.085 160.918V150.855C211.085 150.085 210.779 149.346 210.234 148.802C209.69 148.257 208.951 147.951 208.181 147.951H199.336C198.566 147.951 197.827 148.257 197.283 148.802C196.738 149.346 196.432 150.085 196.432 150.855V160.918C196.432 162.242 195.906 163.513 194.969 164.45C194.033 165.387 192.762 165.913 191.437 165.913H181.374ZM427.915 430.477H226.497C221.316 430.477 216.227 429.114 211.74 426.523C207.254 423.933 203.528 420.207 200.938 415.721C198.348 411.234 196.984 406.145 196.984 400.964C196.984 395.784 198.348 390.695 200.938 386.208L301.652 211.774C304.218 207.266 307.938 203.523 312.43 200.93C316.922 198.336 322.024 196.986 327.211 197.018C332.397 196.988 337.498 198.339 341.99 200.932C346.481 203.526 350.202 207.268 352.769 211.774L453.515 386.208C456.102 390.696 457.463 395.785 457.461 400.966C457.459 406.146 456.094 411.234 453.503 415.72C450.912 420.206 447.187 423.931 442.701 426.521C438.215 429.112 433.126 430.476 427.946 430.477H427.915ZM310.321 216.769L209.597 391.203C207.883 394.17 206.981 397.536 206.981 400.963C206.981 404.389 207.882 407.755 209.595 410.723C211.307 413.69 213.771 416.155 216.738 417.869C219.705 419.583 223.07 420.486 226.497 420.487H427.915C431.342 420.488 434.709 419.586 437.677 417.873C440.645 416.16 443.11 413.695 444.824 410.727C446.538 407.759 447.441 404.393 447.441 400.965C447.441 397.538 446.539 394.171 444.825 391.203L344.121 216.769C342.406 213.803 339.941 211.339 336.973 209.627C334.004 207.914 330.638 207.012 327.211 207.012C323.784 207.012 320.417 207.914 317.449 209.627C314.481 211.339 312.015 213.803 310.3 216.769H310.321Z" fill="url(#paint0_linear_1065_356)"/>
<path d="M327.211 339.075C322.632 339.074 318.197 337.476 314.669 334.556C311.142 331.637 308.743 327.578 307.886 323.08L299.155 277.229C298.373 273.102 298.51 268.853 299.559 264.786C300.607 260.718 302.54 256.932 305.219 253.697C307.899 250.462 311.259 247.858 315.06 246.07C318.861 244.283 323.01 243.356 327.211 243.356C331.411 243.356 335.56 244.283 339.361 246.07C343.163 247.858 346.523 250.462 349.202 253.697C351.882 256.932 353.815 260.718 354.863 264.786C355.911 268.853 356.049 273.102 355.267 277.229L346.536 323.08C345.678 327.578 343.28 331.637 339.752 334.556C336.225 337.476 331.79 339.074 327.211 339.075ZM327.211 253.315C324.477 253.316 321.778 253.92 319.304 255.084C316.831 256.248 314.645 257.944 312.903 260.05C311.161 262.156 309.904 264.621 309.224 267.269C308.544 269.916 308.457 272.681 308.968 275.366L317.699 321.218C318.127 323.426 319.31 325.417 321.046 326.849C322.781 328.28 324.961 329.063 327.211 329.063C329.46 329.063 331.64 328.28 333.376 326.849C335.111 325.417 336.294 323.426 336.722 321.218L345.453 275.366C345.965 272.681 345.877 269.916 345.197 267.269C344.517 264.621 343.261 262.156 341.519 260.05C339.776 257.944 337.59 256.248 335.117 255.084C332.644 253.92 329.944 253.316 327.211 253.315ZM327.211 392.429C323.298 392.429 319.473 391.268 316.22 389.093C312.968 386.918 310.434 383.827 308.939 380.211C307.444 376.595 307.055 372.617 307.822 368.78C308.589 364.943 310.478 361.42 313.248 358.657C316.019 355.894 319.546 354.015 323.385 353.258C327.224 352.501 331.201 352.9 334.813 354.405C338.425 355.909 341.51 358.451 343.676 361.71C345.843 364.968 346.993 368.796 346.983 372.709C346.969 377.944 344.88 382.96 341.174 386.656C337.467 390.353 332.446 392.429 327.211 392.429ZM327.211 362.968C325.284 362.968 323.401 363.54 321.799 364.61C320.197 365.68 318.949 367.202 318.212 368.981C317.474 370.761 317.282 372.72 317.657 374.609C318.033 376.499 318.961 378.234 320.323 379.596C321.685 380.959 323.421 381.886 325.31 382.262C327.2 382.638 329.158 382.445 330.938 381.708C332.718 380.971 334.239 379.722 335.31 378.12C336.38 376.519 336.951 374.635 336.951 372.709C336.937 370.134 335.906 367.668 334.081 365.851C332.256 364.034 329.786 363.013 327.211 363.01V362.968ZM237.933 337.098H50.6163C43.3049 337.09 36.2953 334.181 31.1254 329.012C25.9554 323.842 23.0473 316.832 23.0391 309.521V27.5772C23.0473 20.2658 25.9554 13.2563 31.1254 8.08631C36.2953 2.91637 43.3049 0.00826303 50.6163 0H304.629C311.94 0.00826303 318.95 2.91637 324.12 8.08631C329.29 13.2563 332.198 20.2658 332.206 27.5772V202.021C332.206 203.346 331.68 204.617 330.743 205.554C329.806 206.49 328.536 207.017 327.211 207.017C325.886 207.017 324.615 206.49 323.679 205.554C322.742 204.617 322.216 203.346 322.216 202.021V27.5772C322.21 22.9146 320.355 18.4444 317.058 15.1474C313.761 11.8504 309.291 9.99575 304.629 9.99025H50.5851C45.9224 9.99575 41.4523 11.8504 38.1553 15.1474C34.8583 18.4444 33.0036 22.9146 32.9981 27.5772V309.521C33.0036 314.183 34.8583 318.653 38.1553 321.95C41.4523 325.247 45.9224 327.102 50.5851 327.108H237.902C239.227 327.108 240.497 327.634 241.434 328.571C242.371 329.507 242.897 330.778 242.897 332.103C242.897 333.428 242.371 334.698 241.434 335.635C240.497 336.572 239.227 337.098 237.902 337.098H237.933Z" fill="white"/>
<path d="M327.211 339.075C322.632 339.074 318.197 337.476 314.669 334.556C311.142 331.637 308.743 327.578 307.886 323.08L299.155 277.229C298.373 273.102 298.51 268.853 299.559 264.786C300.607 260.718 302.54 256.932 305.219 253.697C307.899 250.462 311.259 247.858 315.06 246.07C318.861 244.283 323.01 243.356 327.211 243.356C331.411 243.356 335.56 244.283 339.361 246.07C343.163 247.858 346.523 250.462 349.202 253.697C351.882 256.932 353.815 260.718 354.863 264.786C355.911 268.853 356.049 273.102 355.267 277.229L346.536 323.08C345.678 327.578 343.28 331.637 339.752 334.556C336.225 337.476 331.79 339.074 327.211 339.075ZM327.211 253.315C324.477 253.316 321.778 253.92 319.304 255.084C316.831 256.248 314.645 257.944 312.903 260.05C311.161 262.156 309.904 264.621 309.224 267.269C308.544 269.916 308.457 272.681 308.968 275.366L317.699 321.218C318.127 323.426 319.31 325.417 321.046 326.849C322.781 328.28 324.961 329.063 327.211 329.063C329.46 329.063 331.64 328.28 333.376 326.849C335.111 325.417 336.294 323.426 336.722 321.218L345.453 275.366C345.965 272.681 345.877 269.916 345.197 267.269C344.517 264.621 343.261 262.156 341.519 260.05C339.776 257.944 337.59 256.248 335.117 255.084C332.644 253.92 329.944 253.316 327.211 253.315ZM327.211 392.429C323.298 392.429 319.473 391.268 316.22 389.093C312.968 386.918 310.434 383.827 308.939 380.211C307.444 376.595 307.055 372.617 307.822 368.78C308.589 364.943 310.478 361.42 313.248 358.657C316.019 355.894 319.546 354.015 323.385 353.258C327.224 352.501 331.201 352.9 334.813 354.405C338.425 355.909 341.51 358.451 343.676 361.71C345.843 364.968 346.993 368.796 346.983 372.709C346.969 377.944 344.88 382.96 341.174 386.656C337.467 390.353 332.446 392.429 327.211 392.429ZM327.211 362.968C325.284 362.968 323.401 363.54 321.799 364.61C320.197 365.68 318.949 367.202 318.212 368.981C317.474 370.761 317.282 372.72 317.657 374.609C318.033 376.499 318.961 378.234 320.323 379.596C321.685 380.959 323.421 381.886 325.31 382.262C327.2 382.638 329.158 382.445 330.938 381.708C332.718 380.971 334.239 379.722 335.31 378.12C336.38 376.519 336.951 374.635 336.951 372.709C336.937 370.134 335.906 367.668 334.081 365.851C332.256 364.034 329.786 363.013 327.211 363.01V362.968ZM237.933 337.098H50.6163C43.3049 337.09 36.2953 334.181 31.1254 329.012C25.9554 323.842 23.0473 316.832 23.0391 309.521V27.5772C23.0473 20.2658 25.9554 13.2563 31.1254 8.08631C36.2953 2.91637 43.3049 0.00826303 50.6163 0H304.629C311.94 0.00826303 318.95 2.91637 324.12 8.08631C329.29 13.2563 332.198 20.2658 332.206 27.5772V202.021C332.206 203.346 331.68 204.617 330.743 205.554C329.806 206.49 328.536 207.017 327.211 207.017C325.886 207.017 324.615 206.49 323.679 205.554C322.742 204.617 322.216 203.346 322.216 202.021V27.5772C322.21 22.9146 320.355 18.4444 317.058 15.1474C313.761 11.8504 309.291 9.99575 304.629 9.99025H50.5851C45.9224 9.99575 41.4523 11.8504 38.1553 15.1474C34.8583 18.4444 33.0036 22.9146 32.9981 27.5772V309.521C33.0036 314.183 34.8583 318.653 38.1553 321.95C41.4523 325.247 45.9224 327.102 50.5851 327.108H237.902C239.227 327.108 240.497 327.634 241.434 328.571C242.371 329.507 242.897 330.778 242.897 332.103C242.897 333.428 242.371 334.698 241.434 335.635C240.497 336.572 239.227 337.098 237.902 337.098H237.933Z" fill="url(#paint1_linear_1065_356)"/>
<path d="M284.098 89.0485H123.421C122.096 89.0485 120.826 88.5222 119.889 87.5854C118.952 86.6487 118.426 85.3782 118.426 84.0534V45.5493C118.425 44.8929 118.553 44.2428 118.803 43.6361C119.054 43.0295 119.422 42.4783 119.886 42.0142C120.35 41.55 120.901 41.1822 121.508 40.9316C122.115 40.6811 122.765 40.5528 123.421 40.5542H284.098C284.754 40.5528 285.404 40.6811 286.011 40.9316C286.617 41.1822 287.169 41.55 287.633 42.0142C288.097 42.4783 288.465 43.0295 288.715 43.6361C288.966 44.2428 289.094 44.8929 289.093 45.5493V84.0534C289.093 85.3782 288.566 86.6487 287.63 87.5854C286.693 88.5222 285.422 89.0485 284.098 89.0485ZM128.416 79.0582H279.102V50.5444H128.416V79.0582ZM203.759 239.37C190.679 239.37 177.893 235.492 167.018 228.225C156.142 220.958 147.666 210.63 142.66 198.545C137.655 186.461 136.345 173.164 138.897 160.335C141.449 147.507 147.747 135.723 156.996 126.474C166.245 117.225 178.029 110.926 190.857 108.375C203.686 105.823 216.983 107.132 229.067 112.138C241.152 117.143 251.48 125.62 258.747 136.495C266.014 147.371 269.893 160.157 269.893 173.237C269.873 190.771 262.9 207.581 250.501 219.979C238.103 232.377 221.293 239.351 203.759 239.37ZM203.759 117.094C192.658 117.104 181.808 120.406 172.582 126.581C163.356 132.756 156.168 141.528 151.927 151.788C147.686 162.048 146.581 173.335 148.753 184.222C150.926 195.109 156.277 205.108 164.131 212.955C171.984 220.801 181.988 226.143 192.878 228.305C203.767 230.467 215.053 229.352 225.308 225.102C235.564 220.851 244.329 213.655 250.496 204.423C256.663 195.192 259.954 184.339 259.954 173.237C259.941 158.342 254.014 144.062 243.477 133.535C232.94 123.007 218.654 117.094 203.759 117.094ZM80.307 337.098C78.9822 337.098 77.7117 336.572 76.7749 335.635C75.8381 334.698 75.3119 333.428 75.3119 332.103V5.02637C75.3119 4.3704 75.4411 3.72086 75.6921 3.11482C75.9431 2.50879 76.3111 1.95813 76.7749 1.49429C77.2388 1.03045 77.7894 0.662507 78.3954 0.411478C79.0015 0.16045 79.651 0.03125 80.307 0.03125C80.963 0.03125 81.6125 0.16045 82.2185 0.411478C82.8246 0.662507 83.3752 1.03045 83.8391 1.49429C84.3029 1.95813 84.6709 2.50879 84.9219 3.11482C85.1729 3.72086 85.3021 4.3704 85.3021 5.02637V332.103C85.3035 332.759 85.1752 333.409 84.9247 334.016C84.6741 334.623 84.3062 335.174 83.8421 335.638C83.378 336.102 82.8268 336.47 82.2202 336.72C81.6135 336.971 80.9633 337.099 80.307 337.098ZM28.0039 96.3643C20.5793 96.356 13.4612 93.4029 8.21128 88.153C2.96132 82.903 0.00826523 75.7849 1.94068e-06 68.3604C0.00360863 66.8654 0.121896 65.3729 0.353823 63.896C1.52519 56.9908 5.24061 50.7748 10.7678 46.4732C16.295 42.1716 23.233 40.0965 30.2144 40.6567C37.1958 41.2169 43.7141 44.3719 48.4846 49.4999C53.2551 54.6278 55.9318 61.3567 55.987 68.3604C55.987 69.6851 55.4607 70.9557 54.524 71.8924C53.5872 72.8292 52.3167 73.3555 50.9919 73.3555C49.6671 73.3555 48.3965 72.8292 47.4598 71.8924C46.523 70.9557 45.9967 69.6851 45.9967 68.3604C45.9913 63.5872 44.0948 59.0106 40.7226 55.6325C37.3504 52.2544 32.7771 50.35 28.0039 50.3363C27.0419 50.3344 26.0813 50.411 25.1317 50.5652C20.6704 51.2995 16.648 53.6837 13.8622 57.2449C11.0765 60.8061 9.73094 65.2842 10.0924 69.7911C10.4539 74.298 12.4961 78.5044 15.8138 81.576C19.1316 84.6477 23.4826 86.3602 28.0039 86.374C29.3287 86.374 30.5992 86.9003 31.536 87.837C32.4728 88.7738 32.999 90.0443 32.999 91.3691C32.999 92.6939 32.4728 93.9644 31.536 94.9012C30.5992 95.838 29.3287 96.3643 28.0039 96.3643ZM28.0039 163.205C20.5721 163.197 13.4477 160.238 8.19658 154.979C2.94543 149.72 -0.00276131 142.591 1.94068e-06 135.16C0.00360863 133.665 0.121896 132.172 0.353823 130.695C1.52519 123.79 5.24061 117.574 10.7678 113.273C16.295 108.971 23.233 106.896 30.2144 107.456C37.1958 108.016 43.7141 111.171 48.4846 116.299C53.2551 121.427 55.9318 128.156 55.987 135.16C55.987 136.484 55.4607 137.755 54.524 138.692C53.5872 139.629 52.3167 140.155 50.9919 140.155C49.6671 140.155 48.3965 139.629 47.4598 138.692C46.523 137.755 45.9967 136.484 45.9967 135.16C45.9912 130.38 44.0908 125.798 40.7122 122.417C37.3335 119.037 32.7522 117.133 27.9727 117.125C27.0104 117.127 26.0498 117.207 25.1005 117.365C20.6392 118.099 16.6167 120.483 13.831 124.044C11.0453 127.605 9.69972 132.084 10.0612 136.59C10.4227 141.097 12.4648 145.304 15.7826 148.375C19.1003 151.447 23.4514 153.16 27.9727 153.173C29.2975 153.173 30.568 153.7 31.5048 154.636C32.4415 155.573 32.9678 156.844 32.9678 158.168C32.9678 159.493 32.4415 160.764 31.5048 161.701C30.568 162.637 29.2975 163.164 27.9727 163.164L28.0039 163.205ZM28.0039 229.953C20.5793 229.944 13.4612 226.991 8.21128 221.741C2.96132 216.491 0.00826523 209.373 1.94068e-06 201.949C0.00377271 200.457 0.122061 198.968 0.353823 197.495C1.52493 190.59 5.23953 184.375 10.7656 180.073C16.2918 175.772 23.2286 173.696 30.2093 174.255C37.19 174.813 43.7082 177.967 48.4795 183.093C53.2509 188.219 55.9293 194.946 55.987 201.949C55.987 203.273 55.4607 204.544 54.524 205.481C53.5872 206.417 52.3167 206.944 50.9919 206.944C49.6671 206.944 48.3965 206.417 47.4598 205.481C46.523 204.544 45.9967 203.273 45.9967 201.949C45.9912 197.17 44.0905 192.589 40.7115 189.21C37.3326 185.831 32.7513 183.93 27.9727 183.925C27.0109 183.928 26.0507 184.005 25.1005 184.154C20.6392 184.888 16.6167 187.272 13.831 190.833C11.0453 194.394 9.69972 198.873 10.0612 203.379C10.4227 207.886 12.4648 212.093 15.7826 215.164C19.1003 218.236 23.4514 219.949 27.9727 219.962C29.2975 219.962 30.568 220.489 31.5048 221.425C32.4415 222.362 32.9678 223.633 32.9678 224.957C32.9678 226.282 32.4415 227.553 31.5048 228.489C30.568 229.426 29.2975 229.953 27.9727 229.953H28.0039ZM28.0039 296.752C20.5793 296.744 13.4612 293.791 8.21128 288.541C2.96132 283.291 0.00826523 276.173 1.94068e-06 268.748C0.00360863 267.253 0.121896 265.76 0.353823 264.284C1.27737 258.466 4.0174 253.089 8.1819 248.922C12.3464 244.756 17.722 242.014 23.5395 241.088C25.0164 240.856 26.5089 240.737 28.0039 240.734C35.4216 240.764 42.5264 243.726 47.7686 248.974C53.0108 254.222 55.9651 261.33 55.987 268.748C55.987 270.073 55.4607 271.343 54.524 272.28C53.5872 273.217 52.3167 273.743 50.9919 273.743C49.6671 273.743 48.3965 273.217 47.4598 272.28C46.523 271.343 45.9967 270.073 45.9967 268.748C45.9913 263.975 44.0948 259.398 40.7226 256.02C37.3504 252.642 32.7771 250.738 28.0039 250.724C27.0419 250.722 26.0813 250.799 25.1317 250.953C20.6704 251.687 16.648 254.071 13.8622 257.633C11.0765 261.194 9.73094 265.672 10.0924 270.179C10.4539 274.686 12.4961 278.892 15.8138 281.964C19.1316 285.035 23.4826 286.748 28.0039 286.762C29.3287 286.762 30.5992 287.288 31.536 288.225C32.4728 289.161 32.999 290.432 32.999 291.757C32.999 293.082 32.4728 294.352 31.536 295.289C30.5992 296.226 29.3287 296.752 28.0039 296.752Z" fill="white"/>
<path d="M284.098 89.0485H123.421C122.096 89.0485 120.826 88.5222 119.889 87.5854C118.952 86.6487 118.426 85.3782 118.426 84.0534V45.5493C118.425 44.8929 118.553 44.2428 118.803 43.6361C119.054 43.0295 119.422 42.4783 119.886 42.0142C120.35 41.55 120.901 41.1822 121.508 40.9316C122.115 40.6811 122.765 40.5528 123.421 40.5542H284.098C284.754 40.5528 285.404 40.6811 286.011 40.9316C286.617 41.1822 287.169 41.55 287.633 42.0142C288.097 42.4783 288.465 43.0295 288.715 43.6361C288.966 44.2428 289.094 44.8929 289.093 45.5493V84.0534C289.093 85.3782 288.566 86.6487 287.63 87.5854C286.693 88.5222 285.422 89.0485 284.098 89.0485ZM128.416 79.0582H279.102V50.5444H128.416V79.0582ZM203.759 239.37C190.679 239.37 177.893 235.492 167.018 228.225C156.142 220.958 147.666 210.63 142.66 198.545C137.655 186.461 136.345 173.164 138.897 160.335C141.449 147.507 147.747 135.723 156.996 126.474C166.245 117.225 178.029 110.926 190.857 108.375C203.686 105.823 216.983 107.132 229.067 112.138C241.152 117.143 251.48 125.62 258.747 136.495C266.014 147.371 269.893 160.157 269.893 173.237C269.873 190.771 262.9 207.581 250.501 219.979C238.103 232.377 221.293 239.351 203.759 239.37ZM203.759 117.094C192.658 117.104 181.808 120.406 172.582 126.581C163.356 132.756 156.168 141.528 151.927 151.788C147.686 162.048 146.581 173.335 148.753 184.222C150.926 195.109 156.277 205.108 164.131 212.955C171.984 220.801 181.988 226.143 192.878 228.305C203.767 230.467 215.053 229.352 225.308 225.102C235.564 220.851 244.329 213.655 250.496 204.423C256.663 195.192 259.954 184.339 259.954 173.237C259.941 158.342 254.014 144.062 243.477 133.535C232.94 123.007 218.654 117.094 203.759 117.094ZM80.307 337.098C78.9822 337.098 77.7117 336.572 76.7749 335.635C75.8381 334.698 75.3119 333.428 75.3119 332.103V5.02637C75.3119 4.3704 75.4411 3.72086 75.6921 3.11482C75.9431 2.50879 76.3111 1.95813 76.7749 1.49429C77.2388 1.03045 77.7894 0.662507 78.3954 0.411478C79.0015 0.16045 79.651 0.03125 80.307 0.03125C80.963 0.03125 81.6125 0.16045 82.2185 0.411478C82.8246 0.662507 83.3752 1.03045 83.8391 1.49429C84.3029 1.95813 84.6709 2.50879 84.9219 3.11482C85.1729 3.72086 85.3021 4.3704 85.3021 5.02637V332.103C85.3035 332.759 85.1752 333.409 84.9247 334.016C84.6741 334.623 84.3062 335.174 83.8421 335.638C83.378 336.102 82.8268 336.47 82.2202 336.72C81.6135 336.971 80.9633 337.099 80.307 337.098ZM28.0039 96.3643C20.5793 96.356 13.4612 93.4029 8.21128 88.153C2.96132 82.903 0.00826523 75.7849 1.94068e-06 68.3604C0.00360863 66.8654 0.121896 65.3729 0.353823 63.896C1.52519 56.9908 5.24061 50.7748 10.7678 46.4732C16.295 42.1716 23.233 40.0965 30.2144 40.6567C37.1958 41.2169 43.7141 44.3719 48.4846 49.4999C53.2551 54.6278 55.9318 61.3567 55.987 68.3604C55.987 69.6851 55.4607 70.9557 54.524 71.8924C53.5872 72.8292 52.3167 73.3555 50.9919 73.3555C49.6671 73.3555 48.3965 72.8292 47.4598 71.8924C46.523 70.9557 45.9967 69.6851 45.9967 68.3604C45.9913 63.5872 44.0948 59.0106 40.7226 55.6325C37.3504 52.2544 32.7771 50.35 28.0039 50.3363C27.0419 50.3344 26.0813 50.411 25.1317 50.5652C20.6704 51.2995 16.648 53.6837 13.8622 57.2449C11.0765 60.8061 9.73094 65.2842 10.0924 69.7911C10.4539 74.298 12.4961 78.5044 15.8138 81.576C19.1316 84.6477 23.4826 86.3602 28.0039 86.374C29.3287 86.374 30.5992 86.9003 31.536 87.837C32.4728 88.7738 32.999 90.0443 32.999 91.3691C32.999 92.6939 32.4728 93.9644 31.536 94.9012C30.5992 95.838 29.3287 96.3643 28.0039 96.3643ZM28.0039 163.205C20.5721 163.197 13.4477 160.238 8.19658 154.979C2.94543 149.72 -0.00276131 142.591 1.94068e-06 135.16C0.00360863 133.665 0.121896 132.172 0.353823 130.695C1.52519 123.79 5.24061 117.574 10.7678 113.273C16.295 108.971 23.233 106.896 30.2144 107.456C37.1958 108.016 43.7141 111.171 48.4846 116.299C53.2551 121.427 55.9318 128.156 55.987 135.16C55.987 136.484 55.4607 137.755 54.524 138.692C53.5872 139.629 52.3167 140.155 50.9919 140.155C49.6671 140.155 48.3965 139.629 47.4598 138.692C46.523 137.755 45.9967 136.484 45.9967 135.16C45.9912 130.38 44.0908 125.798 40.7122 122.417C37.3335 119.037 32.7522 117.133 27.9727 117.125C27.0104 117.127 26.0498 117.207 25.1005 117.365C20.6392 118.099 16.6167 120.483 13.831 124.044C11.0453 127.605 9.69972 132.084 10.0612 136.59C10.4227 141.097 12.4648 145.304 15.7826 148.375C19.1003 151.447 23.4514 153.16 27.9727 153.173C29.2975 153.173 30.568 153.7 31.5048 154.636C32.4415 155.573 32.9678 156.844 32.9678 158.168C32.9678 159.493 32.4415 160.764 31.5048 161.701C30.568 162.637 29.2975 163.164 27.9727 163.164L28.0039 163.205ZM28.0039 229.953C20.5793 229.944 13.4612 226.991 8.21128 221.741C2.96132 216.491 0.00826523 209.373 1.94068e-06 201.949C0.00377271 200.457 0.122061 198.968 0.353823 197.495C1.52493 190.59 5.23953 184.375 10.7656 180.073C16.2918 175.772 23.2286 173.696 30.2093 174.255C37.19 174.813 43.7082 177.967 48.4795 183.093C53.2509 188.219 55.9293 194.946 55.987 201.949C55.987 203.273 55.4607 204.544 54.524 205.481C53.5872 206.417 52.3167 206.944 50.9919 206.944C49.6671 206.944 48.3965 206.417 47.4598 205.481C46.523 204.544 45.9967 203.273 45.9967 201.949C45.9912 197.17 44.0905 192.589 40.7115 189.21C37.3326 185.831 32.7513 183.93 27.9727 183.925C27.0109 183.928 26.0507 184.005 25.1005 184.154C20.6392 184.888 16.6167 187.272 13.831 190.833C11.0453 194.394 9.69972 198.873 10.0612 203.379C10.4227 207.886 12.4648 212.093 15.7826 215.164C19.1003 218.236 23.4514 219.949 27.9727 219.962C29.2975 219.962 30.568 220.489 31.5048 221.425C32.4415 222.362 32.9678 223.633 32.9678 224.957C32.9678 226.282 32.4415 227.553 31.5048 228.489C30.568 229.426 29.2975 229.953 27.9727 229.953H28.0039ZM28.0039 296.752C20.5793 296.744 13.4612 293.791 8.21128 288.541C2.96132 283.291 0.00826523 276.173 1.94068e-06 268.748C0.00360863 267.253 0.121896 265.76 0.353823 264.284C1.27737 258.466 4.0174 253.089 8.1819 248.922C12.3464 244.756 17.722 242.014 23.5395 241.088C25.0164 240.856 26.5089 240.737 28.0039 240.734C35.4216 240.764 42.5264 243.726 47.7686 248.974C53.0108 254.222 55.9651 261.33 55.987 268.748C55.987 270.073 55.4607 271.343 54.524 272.28C53.5872 273.217 52.3167 273.743 50.9919 273.743C49.6671 273.743 48.3965 273.217 47.4598 272.28C46.523 271.343 45.9967 270.073 45.9967 268.748C45.9913 263.975 44.0948 259.398 40.7226 256.02C37.3504 252.642 32.7771 250.738 28.0039 250.724C27.0419 250.722 26.0813 250.799 25.1317 250.953C20.6704 251.687 16.648 254.071 13.8622 257.633C11.0765 261.194 9.73094 265.672 10.0924 270.179C10.4539 274.686 12.4961 278.892 15.8138 281.964C19.1316 285.035 23.4826 286.748 28.0039 286.762C29.3287 286.762 30.5992 287.288 31.536 288.225C32.4728 289.161 32.999 290.432 32.999 291.757C32.999 293.082 32.4728 294.352 31.536 295.289C30.5992 296.226 29.3287 296.752 28.0039 296.752Z" fill="url(#paint2_linear_1065_356)"/>
<defs>
<linearGradient id="paint0_linear_1065_356" x1="178.791" y1="156.815" x2="457.861" y2="473.219" gradientUnits="userSpaceOnUse">
<stop stop-color="#1BA2D7"/>
<stop offset="1" stop-color="#8D3DFA"/>
</linearGradient>
<linearGradient id="paint1_linear_1065_356" x1="34.9107" y1="25.2934" x2="412.115" y2="392.335" gradientUnits="userSpaceOnUse">
<stop stop-color="#1BA2D7"/>
<stop offset="1" stop-color="#8D3DFA"/>
</linearGradient>
<linearGradient id="paint2_linear_1065_356" x1="10.3148" y1="21.7563" x2="334.384" y2="340.742" gradientUnits="userSpaceOnUse">
<stop stop-color="#1BA2D7"/>
<stop offset="1" stop-color="#8D3DFA"/>
</linearGradient>
</defs>
</svg>
