<svg width="474" height="478" viewBox="0 0 474 478" fill="none" xmlns="http://www.w3.org/2000/svg">
<path d="M17.5079 149.324C18.1494 150 18.9623 150.489 19.8601 150.739L165.577 191.498C154.276 196.188 144.225 203.448 136.221 212.702C127.995 222.082 121.651 232.958 117.535 244.735C117.328 245.403 117.259 246.107 117.332 246.802C117.405 247.498 117.619 248.171 117.961 248.782C118.302 249.392 118.764 249.927 119.319 250.353C119.873 250.779 120.509 251.088 121.186 251.262C124.215 252.04 127.208 252.951 130.157 253.993L59.5657 316.665C53.7387 316.821 47.9308 317.4 42.1878 318.398C41.439 318.544 40.7317 318.853 40.1169 319.305C39.502 319.756 38.9949 320.338 38.6322 321.009C38.2694 321.68 38.0599 322.423 38.0188 323.185C37.9777 323.947 38.106 324.708 38.3945 325.414C46.7884 346.214 58.8572 365.332 74.0237 381.856C69.5763 386.915 64.8196 391.692 59.781 396.162C19.6628 431.659 16.77 470.863 16.6661 472.51C16.6219 473.214 16.7223 473.919 16.9611 474.582C17.1999 475.245 17.5722 475.852 18.0548 476.366C18.5374 476.879 19.1201 477.289 19.7671 477.568C20.414 477.848 21.1114 477.992 21.8162 477.992H73.2933C78.1653 477.983 82.8918 476.33 86.7068 473.3C90.5217 470.269 93.2017 466.04 94.3124 461.296C97.8076 445.712 104.726 430.425 115.422 414.65C116.708 415.334 117.726 415.841 118.434 416.183L125.498 424.501C129.423 429.128 131.58 434.998 131.585 441.066C131.596 450.854 135.489 460.238 142.41 467.159C149.332 474.081 158.716 477.973 168.504 477.984H309.899C311.267 477.984 312.58 477.441 313.548 476.473C314.515 475.506 315.059 474.194 315.06 472.825V393.814C315.075 380.587 316.183 367.384 318.373 354.339C319.071 350.172 319.928 342.568 320.69 334.871C326.97 339.57 333.73 344.217 340.475 348.617C352.526 384.373 359.757 421.575 361.978 459.242C362.239 464.301 364.43 469.066 368.1 472.557C371.771 476.048 376.64 477.997 381.706 478.004H405.521C406.229 478.004 406.929 477.858 407.578 477.576C408.226 477.295 408.81 476.882 409.293 476.365C409.776 475.848 410.148 475.237 410.384 474.57C410.621 473.903 410.718 473.195 410.67 472.489C408.677 448.915 405.098 425.501 399.958 402.407C407.235 407.536 415.149 411.695 423.5 414.781C424.204 415.046 424.957 415.154 425.707 415.097C426.456 415.04 427.185 414.82 427.84 414.452C428.496 414.084 429.064 413.577 429.503 412.966C429.942 412.356 430.243 411.657 430.383 410.918C430.847 408.494 441.438 351.449 433.445 266.876L445.849 271.443C448.989 272.598 452.361 272.977 455.68 272.549C458.998 272.121 462.163 270.898 464.908 268.984C467.652 267.07 469.893 264.522 471.442 261.556C472.99 258.59 473.799 255.294 473.801 251.948C473.799 248.054 472.584 244.257 470.325 241.086C468.065 237.915 464.874 235.526 461.194 234.253L438.86 226.532C438.611 223.454 437.676 220.471 436.123 217.802C434.57 215.133 432.438 212.847 429.885 211.11C418.721 203.345 406.106 197.914 392.793 195.14C390.445 194.667 388.035 194.575 385.657 194.869L390.074 166.121C390.256 164.937 390.021 163.726 389.408 162.697C388.795 161.667 387.843 160.883 386.716 160.479L382.108 158.823C377.599 157.219 372.65 157.384 368.258 159.285C363.866 161.185 360.358 164.679 358.44 169.063L349.605 189.382L305.244 176.891C306.72 172.68 307.653 168.299 308.021 163.853C308.947 152.729 311.018 125.632 311.28 102.982C317.941 103.681 324.648 103.848 331.335 103.48C332.063 103.443 332.775 103.251 333.423 102.919C334.072 102.586 334.642 102.12 335.098 101.551C335.553 100.982 335.883 100.323 336.065 99.6171C336.247 98.9114 336.277 98.1751 336.154 97.4568C335.164 92.6101 333.508 87.9239 331.231 83.5319C338.663 83.3091 348.603 80.8575 358.638 71.9442C359.346 71.3132 359.866 70.4995 360.142 69.5924C360.417 68.6853 360.437 67.7199 360.2 66.802C359.963 65.8841 359.478 65.0493 358.797 64.3891C358.117 63.7289 357.268 63.2688 356.343 63.0595C356.247 63.0384 346.706 60.7479 341.026 54.3916C340.205 53.4715 339.255 52.3466 338.181 51.0786C331.555 43.2315 320.371 29.9963 305.353 23.4608C308.582 20.6222 311.325 17.2746 313.474 13.5506C313.936 12.7595 314.178 11.8597 314.177 10.9438C314.176 10.0279 313.931 9.12881 313.467 8.33891C313.004 7.54901 312.338 6.89677 311.539 6.44921C310.74 6.00165 309.836 5.7749 308.92 5.79225C305.092 5.857 293.633 5.42481 286.707 2.57267C286.595 2.5263 286.481 2.48411 286.365 2.44618C285.88 2.28354 238.236 -12.8506 215.256 34.1887C206.276 35.672 181.998 42.8821 175.091 77.6695C174.87 78.82 170.155 105 190.63 121.628C188.933 133.646 190.674 151.509 206.474 155.484C210.646 156.457 215.021 156.056 218.947 154.342V191.213C215.163 188.72 210.852 187.141 206.353 186.601C199.422 185.734 192.413 185.686 185.471 186.457C185.176 186.309 184.868 186.188 184.551 186.098L24.048 141.195C18.6264 134.952 14.3732 127.783 11.4919 120.033C19.555 116.161 28.1362 113.478 36.9684 112.065L179.11 152.092C179.763 152.275 180.445 152.329 181.118 152.249C181.792 152.169 182.442 151.957 183.034 151.625C183.625 151.294 184.145 150.849 184.565 150.317C184.984 149.784 185.295 149.174 185.479 148.521C185.662 147.869 185.716 147.186 185.636 146.513C185.556 145.84 185.344 145.189 185.012 144.598C184.681 144.006 184.236 143.486 183.703 143.067C183.171 142.647 182.561 142.337 181.908 142.153L38.7951 101.862C38.2135 101.696 37.6072 101.636 37.0046 101.684C36.4143 101.727 22.3282 102.899 2.82857 112.763C1.77329 113.297 0.933673 114.178 0.45035 115.257C-0.0329725 116.337 -0.130643 117.55 0.173697 118.693C3.56337 130.082 9.48985 140.554 17.5079 149.324ZM168.833 277.268C169.361 277.746 169.913 278.195 170.489 278.614L115.35 328.309C102.045 320.955 87.42 317.956 74.754 316.981L140.775 258.369C151.004 263.259 160.458 269.627 168.833 277.268ZM268.09 194.862C268.2 209.19 275.637 217.069 280.077 220.49C279.137 226.004 276.161 230.963 271.737 234.385C269.567 236.064 266.981 237.119 264.256 237.437C261.531 237.756 258.771 237.325 256.273 236.192C248.252 232.665 241.315 227.065 236.177 219.966C234.391 217.519 232.931 214.851 231.833 212.027C231.507 209.266 230.782 206.567 229.682 204.013C229.407 202.195 229.267 200.359 229.264 198.52V174.962C230.101 175.713 230.98 176.417 231.897 177.07C243.01 184.768 255.21 190.765 268.093 194.862H268.09ZM219.868 249.489C229.218 261.285 240.412 271.492 253.017 279.717C257.8 282.742 263.342 284.347 269.001 284.347C273.041 284.358 277.041 283.536 280.751 281.935C284.46 280.333 287.8 277.985 290.564 275.036C294.942 270.424 298.604 265.181 301.428 259.482C301.737 258.871 301.921 258.205 301.969 257.522C302.017 256.839 301.93 256.153 301.71 255.505C301.491 254.856 301.145 254.258 300.693 253.744C300.24 253.231 299.69 252.813 299.074 252.514C298.458 252.215 297.789 252.042 297.105 252.004C296.422 251.966 295.737 252.065 295.092 252.295C294.447 252.524 293.854 252.879 293.348 253.34C292.842 253.801 292.432 254.358 292.143 254.978C289.77 259.747 286.695 264.133 283.022 267.99C279.924 271.259 275.784 273.347 271.313 273.894C266.843 274.441 262.321 273.414 258.526 270.989C241.523 260.258 229.34 245.068 225.095 239.35C226.743 235.684 228.197 231.933 229.45 228.113C235.459 235.726 243.245 241.747 252.124 245.648C255.42 247.098 258.98 247.849 262.58 247.854C268.22 247.867 273.7 245.975 278.131 242.484C284.266 237.697 288.488 230.875 290.035 223.249C293.348 223.45 296.55 224.523 299.314 226.36C301.788 228.287 303.697 230.844 304.841 233.763C306.956 239.218 310.741 243.864 315.656 247.038C318.415 248.784 320.806 251.052 322.698 253.713C315.919 274.14 302.712 291.824 285.05 304.123C282.444 305.875 279.428 306.921 276.296 307.159C273.164 307.396 270.024 306.817 267.183 305.478C263.587 303.789 260.069 301.936 256.642 299.926C256.058 299.582 255.412 299.357 254.741 299.263C254.07 299.169 253.387 299.209 252.731 299.379C252.075 299.549 251.459 299.847 250.918 300.255C250.377 300.663 249.922 301.174 249.579 301.758C249.235 302.342 249.01 302.988 248.916 303.659C248.822 304.33 248.862 305.013 249.032 305.669C249.202 306.325 249.499 306.941 249.908 307.481C250.316 308.022 250.827 308.477 251.411 308.821C255.109 310.993 258.905 312.994 262.788 314.817C267.254 316.913 272.187 317.815 277.106 317.436C282.024 317.056 286.761 315.408 290.853 312.652C306.719 301.746 319.397 286.815 327.587 269.391C327.697 274.247 327.14 279.096 325.931 283.801C325.839 284.185 316.32 322.431 280.78 342.003C278.639 343.178 276.257 343.846 273.817 343.956C271.377 344.065 268.945 343.614 266.707 342.636C239.311 330.534 216.677 311.673 201.25 288.096C200.879 287.529 200.4 287.04 199.84 286.658C199.28 286.277 198.651 286.009 197.988 285.87C197.324 285.732 196.64 285.725 195.974 285.851C195.309 285.976 194.674 286.232 194.107 286.603C193.54 286.974 193.052 287.453 192.67 288.013C192.288 288.573 192.02 289.202 191.882 289.865C191.743 290.529 191.737 291.213 191.862 291.878C191.988 292.544 192.244 293.179 192.615 293.746C209.134 318.996 233.314 339.166 262.538 352.076C266.229 353.692 270.242 354.44 274.268 354.261C278.294 354.081 282.225 352.981 285.758 351.043C295.051 345.912 303.458 339.32 310.658 331.521C309.846 339.928 308.908 348.396 308.199 352.632C305.914 366.239 304.759 380.012 304.744 393.81V435.107H183.845L183.962 425.664L185.808 368.695C186.066 361.287 184.997 353.892 182.654 346.86C176.968 329.678 172.15 312.221 168.215 294.556L181.602 282.491C181.86 282.501 182.116 282.527 182.372 282.527C186.84 282.525 191.181 281.039 194.713 278.301C204.884 270.416 213.428 260.631 219.871 249.489H219.868ZM160.988 383.073C157.284 379.283 153.911 375.694 150.806 372.276C158.703 361.973 164.866 350.451 169.052 338.163C170.239 342.044 171.507 346.04 172.865 350.12C174.822 355.993 175.713 362.169 175.496 368.356L174.57 396.968C173.318 395.341 171.954 393.802 170.489 392.364L160.988 383.073ZM159.437 302.469C160.77 308.158 162.192 313.825 163.703 319.469C159.701 336.985 153.024 352.031 143.862 364.319C137.813 357.383 132.572 349.783 128.241 341.663C126.992 339.179 125.417 336.872 123.56 334.803L159.437 302.469ZM110.727 337.537C114.302 339.56 117.187 342.61 119.009 346.292C124.48 357.194 133.55 369.16 148.051 384.517C137.131 389.039 127.512 396.217 120.068 405.398C108.554 399.105 72.5554 376.334 50.5876 327.654C62.6091 326.414 89.1969 325.462 110.727 337.537ZM84.2426 459.049C83.6568 461.511 82.2568 463.704 80.2696 465.271C78.2823 466.838 75.8242 467.688 73.2933 467.684H27.7916C30.0429 456.3 38.1822 429.061 66.6208 403.898C71.7854 399.316 76.6716 394.429 81.2534 389.264C89.0015 396.783 97.4644 403.53 106.522 409.406C95.2928 426.076 87.9862 442.358 84.2426 459.049ZM168.507 467.684C161.455 467.676 154.695 464.871 149.708 459.885C144.722 454.899 141.916 448.139 141.907 441.087C141.904 432.57 138.878 424.33 133.367 417.835L128.207 411.757C135.511 402.936 145.102 396.295 155.93 392.565L163.273 399.742C166.603 403.011 169.239 406.919 171.023 411.231C172.806 415.544 173.7 420.172 173.651 424.839L173.644 425.409L173.168 440.105V440.187C173.168 440.187 173.159 440.242 173.159 440.271V463.868L173.112 467.684H168.507ZM183.486 463.888L183.717 445.432H267.039V467.684H183.486V463.888ZM277.36 467.684V445.432H304.741V467.684H277.36ZM322.315 316.465C327.986 307.724 332.397 298.227 335.416 288.255C347.927 299.057 364.923 309.854 376.084 316.524C375.274 329.953 374.708 343.989 374.652 357.429C359.658 348.78 338.16 335.645 321.815 322.716C322.011 320.379 322.183 318.252 322.315 316.465ZM381.701 467.684C379.279 467.676 376.953 466.739 375.201 465.066C373.449 463.394 372.406 461.113 372.286 458.694C370.269 424.263 364.156 390.194 354.077 357.209C361.249 361.597 368.498 365.856 375.822 369.984C377.495 377.411 381.008 384.298 386.039 390.012C386.161 390.151 386.298 390.28 386.422 390.417C392.879 415.791 397.383 441.621 399.894 467.682L381.701 467.684ZM421.249 402.711C410.793 398.247 401.421 391.584 393.769 383.177C388.026 376.593 384.892 368.135 384.958 359.399C384.969 329.686 387.625 296.501 389.851 273.895C389.917 273.221 389.85 272.54 389.653 271.891C389.457 271.243 389.134 270.64 388.704 270.116C388.274 269.592 387.745 269.158 387.148 268.839C386.55 268.52 385.895 268.321 385.221 268.255C384.547 268.188 383.866 268.256 383.217 268.452C382.569 268.649 381.966 268.972 381.442 269.402C380.918 269.831 380.484 270.36 380.165 270.958C379.846 271.556 379.647 272.21 379.581 272.885C378.531 283.552 377.62 294.232 376.846 304.922C364.648 297.444 348.147 286.516 337.668 276.341C339.847 254.082 328.708 243.115 321.213 238.337C319.326 237.124 317.701 235.545 316.435 233.694L341.033 240.574L342.218 261.857C342.45 266.353 344.29 270.617 347.402 273.87C350.515 277.123 354.693 279.149 359.175 279.58L367.564 280.422C367.737 280.439 367.911 280.448 368.085 280.447C369.317 280.446 370.507 280.004 371.442 279.201C372.376 278.399 372.992 277.288 373.179 276.071L376.248 256.097C387.813 263.409 400.784 268.212 414.321 270.194C417.335 270.66 420.415 270.443 423.333 269.557C429.425 335.992 423.714 385.791 421.249 402.711ZM463.479 251.948C463.48 253.633 463.073 255.292 462.294 256.786C461.515 258.279 460.387 259.562 459.005 260.526C457.624 261.489 456.03 262.105 454.359 262.32C452.689 262.536 450.991 262.344 449.41 261.762L436.459 256.992C436.949 255.505 437.253 253.963 437.363 252.402L438.366 237.279L457.829 244.006C459.48 244.579 460.91 245.651 461.923 247.075C462.936 248.498 463.48 250.202 463.479 251.948ZM390.729 205.251C402.67 207.74 413.986 212.616 423.997 219.587C425.493 220.584 426.703 221.955 427.507 223.563C428.311 225.171 428.682 226.961 428.582 228.756L427.058 251.718C426.972 252.93 426.631 254.11 426.059 255.183C425.487 256.255 424.696 257.195 423.738 257.942C422.642 258.808 421.379 259.438 420.028 259.791C418.677 260.145 417.267 260.215 415.888 259.997C402.864 258.129 390.442 253.303 379.573 245.889C378.501 245.148 377.611 244.174 376.969 243.04C376.327 241.906 375.951 240.641 375.867 239.341C375.359 230.908 375.763 222.444 377.072 214.098C377.314 212.679 377.842 211.325 378.624 210.116C379.406 208.908 380.425 207.871 381.62 207.068C383.575 205.718 385.896 204.997 388.273 205.001C389.098 205 389.92 205.082 390.729 205.246V205.251ZM367.91 173.177C368.779 171.191 370.368 169.608 372.358 168.747C374.348 167.886 376.59 167.812 378.632 168.539L379.234 168.754L374.507 199.529C370.456 202.725 367.742 207.317 366.895 212.408C365.464 221.507 365.02 230.733 365.57 239.927C365.709 242.256 366.285 244.539 367.266 246.657L363.728 269.665L360.211 269.313C358.18 269.117 356.288 268.199 354.878 266.724C353.468 265.25 352.635 263.319 352.531 261.282L349.927 214.539L367.91 173.177ZM345.454 198.928L339.97 211.541C339.649 212.279 339.505 213.083 339.551 213.887L340.431 229.685L308.807 220.841C308.717 220.816 308.627 220.814 308.536 220.793C307.642 219.873 306.686 219.014 305.675 218.223C299.371 213.298 290.717 212.747 286.975 212.761C284.598 211.016 282.622 208.783 281.18 206.212C279.738 203.641 278.863 200.79 278.614 197.852C279.104 197.974 279.577 198.104 280.072 198.221C281.263 198.507 282.483 198.651 283.707 198.651C285.93 198.646 288.127 198.175 290.155 197.267C292.184 196.359 293.999 195.034 295.483 193.38C296.687 192.042 297.817 190.639 298.868 189.179C299.532 188.256 300.163 187.308 300.76 186.336L345.454 198.928ZM185.229 79.6302C192.044 45.3096 217.756 44.1471 218.82 44.1154C219.801 44.0977 220.757 43.8007 221.575 43.2593C222.393 42.7178 223.039 41.9544 223.439 41.0585C241.669 0.223492 279.934 11.23 282.987 12.1847C288.039 14.0297 293.317 15.1821 298.677 15.6106C296.536 17.6059 294.001 19.1309 291.235 20.0876C290.078 20.3854 289.06 21.0757 288.355 22.0404C287.65 23.0052 287.301 24.1848 287.369 25.3778C287.437 26.5708 287.916 27.7034 288.726 28.5822C289.536 29.461 290.625 30.0316 291.809 30.1966C309.086 32.606 322.887 48.9433 330.302 57.7241C331.445 59.0794 332.459 60.2841 333.335 61.2569C336.474 64.6559 340.217 67.4423 344.373 69.4745C332.724 75.7616 323.155 72.3266 322.705 72.1595C321.639 71.7393 320.463 71.686 319.363 72.0082C318.263 72.3304 317.302 73.0096 316.631 73.9387C315.96 74.8678 315.617 75.9939 315.657 77.1393C315.697 78.2846 316.118 79.3841 316.852 80.2642C320.048 84.1761 322.561 88.5992 324.285 93.3473H324.066C280.495 93.3473 268.004 70.1763 267.445 69.092C266.893 67.996 265.968 67.1328 264.836 66.6573C263.705 66.1817 262.441 66.125 261.271 66.4973C260.102 66.8696 259.103 67.6466 258.455 68.6887C257.807 69.7308 257.551 70.9699 257.734 72.1836C260.624 91.3083 253.437 99.7653 249.37 102.928L244.663 98.6615C243.977 98.0396 243.137 97.6136 242.23 97.428C241.323 97.2425 240.383 97.3044 239.509 97.6072C238.634 97.9099 237.857 98.4424 237.259 99.1488C236.661 99.8552 236.264 100.709 236.109 101.622C234.823 109.222 231.441 113.585 228.515 116.017C227.968 114.606 227.261 113.262 226.407 112.013C224.817 109.705 222.737 107.777 220.317 106.365C217.896 104.954 215.193 104.094 212.402 103.846C211.768 103.786 211.139 103.757 210.509 103.757C205.354 103.743 200.403 105.773 196.743 109.403C196.065 110.077 195.43 110.793 194.842 111.547C181.875 98.8001 185.07 80.4388 185.218 79.6347L185.229 79.6302ZM209.341 145.568C209.231 145.534 209.12 145.502 209.008 145.473C197.739 142.656 200.726 123.638 201.229 120.821C201.881 119.292 202.82 117.904 203.995 116.729C204.964 115.777 206.13 115.05 207.412 114.6C208.694 114.15 210.059 113.988 211.41 114.125C212.694 114.232 213.939 114.621 215.055 115.264C216.172 115.907 217.133 116.788 217.87 117.845C219.062 119.659 219.685 121.788 219.659 123.959C219.675 124.734 219.865 125.495 220.215 126.186C220.566 126.878 221.068 127.481 221.684 127.951C222.3 128.422 223.014 128.747 223.773 128.904C224.532 129.06 225.316 129.043 226.068 128.854C226.642 128.711 238.183 125.659 243.868 111.886L245.258 113.145C245.974 113.795 246.858 114.23 247.81 114.401C248.761 114.572 249.742 114.473 250.64 114.113C251.402 113.812 266.323 107.548 268.465 85.9955C275.121 91.7661 285.523 98.0607 300.972 101.356C300.905 108.057 300.72 114.757 300.418 121.452C297.064 122.382 294.114 123.344 293.943 123.399C293.288 123.601 292.681 123.931 292.156 124.371C291.63 124.81 291.198 125.35 290.883 125.958C290.569 126.567 290.378 127.232 290.323 127.914C290.268 128.597 290.35 129.284 290.563 129.934C290.776 130.585 291.116 131.187 291.564 131.705C292.012 132.223 292.559 132.647 293.172 132.951C293.786 133.256 294.454 133.435 295.137 133.479C295.821 133.523 296.506 133.43 297.153 133.206C297.176 133.206 298.284 132.838 299.864 132.357C299.286 142.579 298.572 152.792 297.724 162.994C297.184 170.246 294.681 177.215 290.484 183.154C289.65 184.311 288.755 185.422 287.802 186.483C287.146 187.222 286.303 187.77 285.362 188.07C284.421 188.371 283.417 188.412 282.454 188.191C266.479 184.546 251.338 177.91 237.832 168.632C235.706 167.144 233.903 165.242 232.53 163.04C231.157 160.838 230.243 158.381 229.842 155.817C229.536 153.737 229.34 151.643 229.255 149.542V144.314C228.487 139.052 223.303 138.381 220.275 140.843C214.837 146.838 209.793 145.684 209.341 145.568ZM205.124 196.833C208.243 197.182 211.223 198.315 213.787 200.126C216.35 201.937 218.413 204.367 219.784 207.19C220.231 209.592 220.863 211.956 221.677 214.259C221.808 216.332 221.589 218.413 221.031 220.414C217.019 234.694 208.103 254.91 188.404 270.13C186.583 271.549 184.319 272.279 182.011 272.19C179.704 272.101 177.502 271.199 175.796 269.644C162.437 257.406 146.555 248.249 129.271 242.818C135.194 228.819 155.932 190.925 205.124 196.833Z" fill="white"/>
<path d="M17.5079 149.324C18.1494 150 18.9623 150.489 19.8601 150.739L165.577 191.498C154.276 196.188 144.225 203.448 136.221 212.702C127.995 222.082 121.651 232.958 117.535 244.735C117.328 245.403 117.259 246.107 117.332 246.802C117.405 247.498 117.619 248.171 117.961 248.782C118.302 249.392 118.764 249.927 119.319 250.353C119.873 250.779 120.509 251.088 121.186 251.262C124.215 252.04 127.208 252.951 130.157 253.993L59.5657 316.665C53.7387 316.821 47.9308 317.4 42.1878 318.398C41.439 318.544 40.7317 318.853 40.1169 319.305C39.502 319.756 38.9949 320.338 38.6322 321.009C38.2694 321.68 38.0599 322.423 38.0188 323.185C37.9777 323.947 38.106 324.708 38.3945 325.414C46.7884 346.214 58.8572 365.332 74.0237 381.856C69.5763 386.915 64.8196 391.692 59.781 396.162C19.6628 431.659 16.77 470.863 16.6661 472.51C16.6219 473.214 16.7223 473.919 16.9611 474.582C17.1999 475.245 17.5722 475.852 18.0548 476.366C18.5374 476.879 19.1201 477.289 19.7671 477.568C20.414 477.848 21.1114 477.992 21.8162 477.992H73.2933C78.1653 477.983 82.8918 476.33 86.7068 473.3C90.5217 470.269 93.2017 466.04 94.3124 461.296C97.8076 445.712 104.726 430.425 115.422 414.65C116.708 415.334 117.726 415.841 118.434 416.183L125.498 424.501C129.423 429.128 131.58 434.998 131.585 441.066C131.596 450.854 135.489 460.238 142.41 467.159C149.332 474.081 158.716 477.973 168.504 477.984H309.899C311.267 477.984 312.58 477.441 313.548 476.473C314.515 475.506 315.059 474.194 315.06 472.825V393.814C315.075 380.587 316.183 367.384 318.373 354.339C319.071 350.172 319.928 342.568 320.69 334.871C326.97 339.57 333.73 344.217 340.475 348.617C352.526 384.373 359.757 421.575 361.978 459.242C362.239 464.301 364.43 469.066 368.1 472.557C371.771 476.048 376.64 477.997 381.706 478.004H405.521C406.229 478.004 406.929 477.858 407.578 477.576C408.226 477.295 408.81 476.882 409.293 476.365C409.776 475.848 410.148 475.237 410.384 474.57C410.621 473.903 410.718 473.195 410.67 472.489C408.677 448.915 405.098 425.501 399.958 402.407C407.235 407.536 415.149 411.695 423.5 414.781C424.204 415.046 424.957 415.154 425.707 415.097C426.456 415.04 427.185 414.82 427.84 414.452C428.496 414.084 429.064 413.577 429.503 412.966C429.942 412.356 430.243 411.657 430.383 410.918C430.847 408.494 441.438 351.449 433.445 266.876L445.849 271.443C448.989 272.598 452.361 272.977 455.68 272.549C458.998 272.121 462.163 270.898 464.908 268.984C467.652 267.07 469.893 264.522 471.442 261.556C472.99 258.59 473.799 255.294 473.801 251.948C473.799 248.054 472.584 244.257 470.325 241.086C468.065 237.915 464.874 235.526 461.194 234.253L438.86 226.532C438.611 223.454 437.676 220.471 436.123 217.802C434.57 215.133 432.438 212.847 429.885 211.11C418.721 203.345 406.106 197.914 392.793 195.14C390.445 194.667 388.035 194.575 385.657 194.869L390.074 166.121C390.256 164.937 390.021 163.726 389.408 162.697C388.795 161.667 387.843 160.883 386.716 160.479L382.108 158.823C377.599 157.219 372.65 157.384 368.258 159.285C363.866 161.185 360.358 164.679 358.44 169.063L349.605 189.382L305.244 176.891C306.72 172.68 307.653 168.299 308.021 163.853C308.947 152.729 311.018 125.632 311.28 102.982C317.941 103.681 324.648 103.848 331.335 103.48C332.063 103.443 332.775 103.251 333.423 102.919C334.072 102.586 334.642 102.12 335.098 101.551C335.553 100.982 335.883 100.323 336.065 99.6171C336.247 98.9114 336.277 98.1751 336.154 97.4568C335.164 92.6101 333.508 87.9239 331.231 83.5319C338.663 83.3091 348.603 80.8575 358.638 71.9442C359.346 71.3132 359.866 70.4995 360.142 69.5924C360.417 68.6853 360.437 67.7199 360.2 66.802C359.963 65.8841 359.478 65.0493 358.797 64.3891C358.117 63.7289 357.268 63.2688 356.343 63.0595C356.247 63.0384 346.706 60.7479 341.026 54.3916C340.205 53.4715 339.255 52.3466 338.181 51.0786C331.555 43.2315 320.371 29.9963 305.353 23.4608C308.582 20.6222 311.325 17.2746 313.474 13.5506C313.936 12.7595 314.178 11.8597 314.177 10.9438C314.176 10.0279 313.931 9.12881 313.467 8.33891C313.004 7.54901 312.338 6.89677 311.539 6.44921C310.74 6.00165 309.836 5.7749 308.92 5.79225C305.092 5.857 293.633 5.42481 286.707 2.57267C286.595 2.5263 286.481 2.48411 286.365 2.44618C285.88 2.28354 238.236 -12.8506 215.256 34.1887C206.276 35.672 181.998 42.8821 175.091 77.6695C174.87 78.82 170.155 105 190.63 121.628C188.933 133.646 190.674 151.509 206.474 155.484C210.646 156.457 215.021 156.056 218.947 154.342V191.213C215.163 188.72 210.852 187.141 206.353 186.601C199.422 185.734 192.413 185.686 185.471 186.457C185.176 186.309 184.868 186.188 184.551 186.098L24.048 141.195C18.6264 134.952 14.3732 127.783 11.4919 120.033C19.555 116.161 28.1362 113.478 36.9684 112.065L179.11 152.092C179.763 152.275 180.445 152.329 181.118 152.249C181.792 152.169 182.442 151.957 183.034 151.625C183.625 151.294 184.145 150.849 184.565 150.317C184.984 149.784 185.295 149.174 185.479 148.521C185.662 147.869 185.716 147.186 185.636 146.513C185.556 145.84 185.344 145.189 185.012 144.598C184.681 144.006 184.236 143.486 183.703 143.067C183.171 142.647 182.561 142.337 181.908 142.153L38.7951 101.862C38.2135 101.696 37.6072 101.636 37.0046 101.684C36.4143 101.727 22.3282 102.899 2.82857 112.763C1.77329 113.297 0.933673 114.178 0.45035 115.257C-0.0329725 116.337 -0.130643 117.55 0.173697 118.693C3.56337 130.082 9.48985 140.554 17.5079 149.324ZM168.833 277.268C169.361 277.746 169.913 278.195 170.489 278.614L115.35 328.309C102.045 320.955 87.42 317.956 74.754 316.981L140.775 258.369C151.004 263.259 160.458 269.627 168.833 277.268ZM268.09 194.862C268.2 209.19 275.637 217.069 280.077 220.49C279.137 226.004 276.161 230.963 271.737 234.385C269.567 236.064 266.981 237.119 264.256 237.437C261.531 237.756 258.771 237.325 256.273 236.192C248.252 232.665 241.315 227.065 236.177 219.966C234.391 217.519 232.931 214.851 231.833 212.027C231.507 209.266 230.782 206.567 229.682 204.013C229.407 202.195 229.267 200.359 229.264 198.52V174.962C230.101 175.713 230.98 176.417 231.897 177.07C243.01 184.768 255.21 190.765 268.093 194.862H268.09ZM219.868 249.489C229.218 261.285 240.412 271.492 253.017 279.717C257.8 282.742 263.342 284.347 269.001 284.347C273.041 284.358 277.041 283.536 280.751 281.935C284.46 280.333 287.8 277.985 290.564 275.036C294.942 270.424 298.604 265.181 301.428 259.482C301.737 258.871 301.921 258.205 301.969 257.522C302.017 256.839 301.93 256.153 301.71 255.505C301.491 254.856 301.145 254.258 300.693 253.744C300.24 253.231 299.69 252.813 299.074 252.514C298.458 252.215 297.789 252.042 297.105 252.004C296.422 251.966 295.737 252.065 295.092 252.295C294.447 252.524 293.854 252.879 293.348 253.34C292.842 253.801 292.432 254.358 292.143 254.978C289.77 259.747 286.695 264.133 283.022 267.99C279.924 271.259 275.784 273.347 271.313 273.894C266.843 274.441 262.321 273.414 258.526 270.989C241.523 260.258 229.34 245.068 225.095 239.35C226.743 235.684 228.197 231.933 229.45 228.113C235.459 235.726 243.245 241.747 252.124 245.648C255.42 247.098 258.98 247.849 262.58 247.854C268.22 247.867 273.7 245.975 278.131 242.484C284.266 237.697 288.488 230.875 290.035 223.249C293.348 223.45 296.55 224.523 299.314 226.36C301.788 228.287 303.697 230.844 304.841 233.763C306.956 239.218 310.741 243.864 315.656 247.038C318.415 248.784 320.806 251.052 322.698 253.713C315.919 274.14 302.712 291.824 285.05 304.123C282.444 305.875 279.428 306.921 276.296 307.159C273.164 307.396 270.024 306.817 267.183 305.478C263.587 303.789 260.069 301.936 256.642 299.926C256.058 299.582 255.412 299.357 254.741 299.263C254.07 299.169 253.387 299.209 252.731 299.379C252.075 299.549 251.459 299.847 250.918 300.255C250.377 300.663 249.922 301.174 249.579 301.758C249.235 302.342 249.01 302.988 248.916 303.659C248.822 304.33 248.862 305.013 249.032 305.669C249.202 306.325 249.499 306.941 249.908 307.481C250.316 308.022 250.827 308.477 251.411 308.821C255.109 310.993 258.905 312.994 262.788 314.817C267.254 316.913 272.187 317.815 277.106 317.436C282.024 317.056 286.761 315.408 290.853 312.652C306.719 301.746 319.397 286.815 327.587 269.391C327.697 274.247 327.14 279.096 325.931 283.801C325.839 284.185 316.32 322.431 280.78 342.003C278.639 343.178 276.257 343.846 273.817 343.956C271.377 344.065 268.945 343.614 266.707 342.636C239.311 330.534 216.677 311.673 201.25 288.096C200.879 287.529 200.4 287.04 199.84 286.658C199.28 286.277 198.651 286.009 197.988 285.87C197.324 285.732 196.64 285.725 195.974 285.851C195.309 285.976 194.674 286.232 194.107 286.603C193.54 286.974 193.052 287.453 192.67 288.013C192.288 288.573 192.02 289.202 191.882 289.865C191.743 290.529 191.737 291.213 191.862 291.878C191.988 292.544 192.244 293.179 192.615 293.746C209.134 318.996 233.314 339.166 262.538 352.076C266.229 353.692 270.242 354.44 274.268 354.261C278.294 354.081 282.225 352.981 285.758 351.043C295.051 345.912 303.458 339.32 310.658 331.521C309.846 339.928 308.908 348.396 308.199 352.632C305.914 366.239 304.759 380.012 304.744 393.81V435.107H183.845L183.962 425.664L185.808 368.695C186.066 361.287 184.997 353.892 182.654 346.86C176.968 329.678 172.15 312.221 168.215 294.556L181.602 282.491C181.86 282.501 182.116 282.527 182.372 282.527C186.84 282.525 191.181 281.039 194.713 278.301C204.884 270.416 213.428 260.631 219.871 249.489H219.868ZM160.988 383.073C157.284 379.283 153.911 375.694 150.806 372.276C158.703 361.973 164.866 350.451 169.052 338.163C170.239 342.044 171.507 346.04 172.865 350.12C174.822 355.993 175.713 362.169 175.496 368.356L174.57 396.968C173.318 395.341 171.954 393.802 170.489 392.364L160.988 383.073ZM159.437 302.469C160.77 308.158 162.192 313.825 163.703 319.469C159.701 336.985 153.024 352.031 143.862 364.319C137.813 357.383 132.572 349.783 128.241 341.663C126.992 339.179 125.417 336.872 123.56 334.803L159.437 302.469ZM110.727 337.537C114.302 339.56 117.187 342.61 119.009 346.292C124.48 357.194 133.55 369.16 148.051 384.517C137.131 389.039 127.512 396.217 120.068 405.398C108.554 399.105 72.5554 376.334 50.5876 327.654C62.6091 326.414 89.1969 325.462 110.727 337.537ZM84.2426 459.049C83.6568 461.511 82.2568 463.704 80.2696 465.271C78.2823 466.838 75.8242 467.688 73.2933 467.684H27.7916C30.0429 456.3 38.1822 429.061 66.6208 403.898C71.7854 399.316 76.6716 394.429 81.2534 389.264C89.0015 396.783 97.4644 403.53 106.522 409.406C95.2928 426.076 87.9862 442.358 84.2426 459.049ZM168.507 467.684C161.455 467.676 154.695 464.871 149.708 459.885C144.722 454.899 141.916 448.139 141.907 441.087C141.904 432.57 138.878 424.33 133.367 417.835L128.207 411.757C135.511 402.936 145.102 396.295 155.93 392.565L163.273 399.742C166.603 403.011 169.239 406.919 171.023 411.231C172.806 415.544 173.7 420.172 173.651 424.839L173.644 425.409L173.168 440.105V440.187C173.168 440.187 173.159 440.242 173.159 440.271V463.868L173.112 467.684H168.507ZM183.486 463.888L183.717 445.432H267.039V467.684H183.486V463.888ZM277.36 467.684V445.432H304.741V467.684H277.36ZM322.315 316.465C327.986 307.724 332.397 298.227 335.416 288.255C347.927 299.057 364.923 309.854 376.084 316.524C375.274 329.953 374.708 343.989 374.652 357.429C359.658 348.78 338.16 335.645 321.815 322.716C322.011 320.379 322.183 318.252 322.315 316.465ZM381.701 467.684C379.279 467.676 376.953 466.739 375.201 465.066C373.449 463.394 372.406 461.113 372.286 458.694C370.269 424.263 364.156 390.194 354.077 357.209C361.249 361.597 368.498 365.856 375.822 369.984C377.495 377.411 381.008 384.298 386.039 390.012C386.161 390.151 386.298 390.28 386.422 390.417C392.879 415.791 397.383 441.621 399.894 467.682L381.701 467.684ZM421.249 402.711C410.793 398.247 401.421 391.584 393.769 383.177C388.026 376.593 384.892 368.135 384.958 359.399C384.969 329.686 387.625 296.501 389.851 273.895C389.917 273.221 389.85 272.54 389.653 271.891C389.457 271.243 389.134 270.64 388.704 270.116C388.274 269.592 387.745 269.158 387.148 268.839C386.55 268.52 385.895 268.321 385.221 268.255C384.547 268.188 383.866 268.256 383.217 268.452C382.569 268.649 381.966 268.972 381.442 269.402C380.918 269.831 380.484 270.36 380.165 270.958C379.846 271.556 379.647 272.21 379.581 272.885C378.531 283.552 377.62 294.232 376.846 304.922C364.648 297.444 348.147 286.516 337.668 276.341C339.847 254.082 328.708 243.115 321.213 238.337C319.326 237.124 317.701 235.545 316.435 233.694L341.033 240.574L342.218 261.857C342.45 266.353 344.29 270.617 347.402 273.87C350.515 277.123 354.693 279.149 359.175 279.58L367.564 280.422C367.737 280.439 367.911 280.448 368.085 280.447C369.317 280.446 370.507 280.004 371.442 279.201C372.376 278.399 372.992 277.288 373.179 276.071L376.248 256.097C387.813 263.409 400.784 268.212 414.321 270.194C417.335 270.66 420.415 270.443 423.333 269.557C429.425 335.992 423.714 385.791 421.249 402.711ZM463.479 251.948C463.48 253.633 463.073 255.292 462.294 256.786C461.515 258.279 460.387 259.562 459.005 260.526C457.624 261.489 456.03 262.105 454.359 262.32C452.689 262.536 450.991 262.344 449.41 261.762L436.459 256.992C436.949 255.505 437.253 253.963 437.363 252.402L438.366 237.279L457.829 244.006C459.48 244.579 460.91 245.651 461.923 247.075C462.936 248.498 463.48 250.202 463.479 251.948ZM390.729 205.251C402.67 207.74 413.986 212.616 423.997 219.587C425.493 220.584 426.703 221.955 427.507 223.563C428.311 225.171 428.682 226.961 428.582 228.756L427.058 251.718C426.972 252.93 426.631 254.11 426.059 255.183C425.487 256.255 424.696 257.195 423.738 257.942C422.642 258.808 421.379 259.438 420.028 259.791C418.677 260.145 417.267 260.215 415.888 259.997C402.864 258.129 390.442 253.303 379.573 245.889C378.501 245.148 377.611 244.174 376.969 243.04C376.327 241.906 375.951 240.641 375.867 239.341C375.359 230.908 375.763 222.444 377.072 214.098C377.314 212.679 377.842 211.325 378.624 210.116C379.406 208.908 380.425 207.871 381.62 207.068C383.575 205.718 385.896 204.997 388.273 205.001C389.098 205 389.92 205.082 390.729 205.246V205.251ZM367.91 173.177C368.779 171.191 370.368 169.608 372.358 168.747C374.348 167.886 376.59 167.812 378.632 168.539L379.234 168.754L374.507 199.529C370.456 202.725 367.742 207.317 366.895 212.408C365.464 221.507 365.02 230.733 365.57 239.927C365.709 242.256 366.285 244.539 367.266 246.657L363.728 269.665L360.211 269.313C358.18 269.117 356.288 268.199 354.878 266.724C353.468 265.25 352.635 263.319 352.531 261.282L349.927 214.539L367.91 173.177ZM345.454 198.928L339.97 211.541C339.649 212.279 339.505 213.083 339.551 213.887L340.431 229.685L308.807 220.841C308.717 220.816 308.627 220.814 308.536 220.793C307.642 219.873 306.686 219.014 305.675 218.223C299.371 213.298 290.717 212.747 286.975 212.761C284.598 211.016 282.622 208.783 281.18 206.212C279.738 203.641 278.863 200.79 278.614 197.852C279.104 197.974 279.577 198.104 280.072 198.221C281.263 198.507 282.483 198.651 283.707 198.651C285.93 198.646 288.127 198.175 290.155 197.267C292.184 196.359 293.999 195.034 295.483 193.38C296.687 192.042 297.817 190.639 298.868 189.179C299.532 188.256 300.163 187.308 300.76 186.336L345.454 198.928ZM185.229 79.6302C192.044 45.3096 217.756 44.1471 218.82 44.1154C219.801 44.0977 220.757 43.8007 221.575 43.2593C222.393 42.7178 223.039 41.9544 223.439 41.0585C241.669 0.223492 279.934 11.23 282.987 12.1847C288.039 14.0297 293.317 15.1821 298.677 15.6106C296.536 17.6059 294.001 19.1309 291.235 20.0876C290.078 20.3854 289.06 21.0757 288.355 22.0404C287.65 23.0052 287.301 24.1848 287.369 25.3778C287.437 26.5708 287.916 27.7034 288.726 28.5822C289.536 29.461 290.625 30.0316 291.809 30.1966C309.086 32.606 322.887 48.9433 330.302 57.7241C331.445 59.0794 332.459 60.2841 333.335 61.2569C336.474 64.6559 340.217 67.4423 344.373 69.4745C332.724 75.7616 323.155 72.3266 322.705 72.1595C321.639 71.7393 320.463 71.686 319.363 72.0082C318.263 72.3304 317.302 73.0096 316.631 73.9387C315.96 74.8678 315.617 75.9939 315.657 77.1393C315.697 78.2846 316.118 79.3841 316.852 80.2642C320.048 84.1761 322.561 88.5992 324.285 93.3473H324.066C280.495 93.3473 268.004 70.1763 267.445 69.092C266.893 67.996 265.968 67.1328 264.836 66.6573C263.705 66.1817 262.441 66.125 261.271 66.4973C260.102 66.8696 259.103 67.6466 258.455 68.6887C257.807 69.7308 257.551 70.9699 257.734 72.1836C260.624 91.3083 253.437 99.7653 249.37 102.928L244.663 98.6615C243.977 98.0396 243.137 97.6136 242.23 97.428C241.323 97.2425 240.383 97.3044 239.509 97.6072C238.634 97.9099 237.857 98.4424 237.259 99.1488C236.661 99.8552 236.264 100.709 236.109 101.622C234.823 109.222 231.441 113.585 228.515 116.017C227.968 114.606 227.261 113.262 226.407 112.013C224.817 109.705 222.737 107.777 220.317 106.365C217.896 104.954 215.193 104.094 212.402 103.846C211.768 103.786 211.139 103.757 210.509 103.757C205.354 103.743 200.403 105.773 196.743 109.403C196.065 110.077 195.43 110.793 194.842 111.547C181.875 98.8001 185.07 80.4388 185.218 79.6347L185.229 79.6302ZM209.341 145.568C209.231 145.534 209.12 145.502 209.008 145.473C197.739 142.656 200.726 123.638 201.229 120.821C201.881 119.292 202.82 117.904 203.995 116.729C204.964 115.777 206.13 115.05 207.412 114.6C208.694 114.15 210.059 113.988 211.41 114.125C212.694 114.232 213.939 114.621 215.055 115.264C216.172 115.907 217.133 116.788 217.87 117.845C219.062 119.659 219.685 121.788 219.659 123.959C219.675 124.734 219.865 125.495 220.215 126.186C220.566 126.878 221.068 127.481 221.684 127.951C222.3 128.422 223.014 128.747 223.773 128.904C224.532 129.06 225.316 129.043 226.068 128.854C226.642 128.711 238.183 125.659 243.868 111.886L245.258 113.145C245.974 113.795 246.858 114.23 247.81 114.401C248.761 114.572 249.742 114.473 250.64 114.113C251.402 113.812 266.323 107.548 268.465 85.9955C275.121 91.7661 285.523 98.0607 300.972 101.356C300.905 108.057 300.72 114.757 300.418 121.452C297.064 122.382 294.114 123.344 293.943 123.399C293.288 123.601 292.681 123.931 292.156 124.371C291.63 124.81 291.198 125.35 290.883 125.958C290.569 126.567 290.378 127.232 290.323 127.914C290.268 128.597 290.35 129.284 290.563 129.934C290.776 130.585 291.116 131.187 291.564 131.705C292.012 132.223 292.559 132.647 293.172 132.951C293.786 133.256 294.454 133.435 295.137 133.479C295.821 133.523 296.506 133.43 297.153 133.206C297.176 133.206 298.284 132.838 299.864 132.357C299.286 142.579 298.572 152.792 297.724 162.994C297.184 170.246 294.681 177.215 290.484 183.154C289.65 184.311 288.755 185.422 287.802 186.483C287.146 187.222 286.303 187.77 285.362 188.07C284.421 188.371 283.417 188.412 282.454 188.191C266.479 184.546 251.338 177.91 237.832 168.632C235.706 167.144 233.903 165.242 232.53 163.04C231.157 160.838 230.243 158.381 229.842 155.817C229.536 153.737 229.34 151.643 229.255 149.542V144.314C228.487 139.052 223.303 138.381 220.275 140.843C214.837 146.838 209.793 145.684 209.341 145.568ZM205.124 196.833C208.243 197.182 211.223 198.315 213.787 200.126C216.35 201.937 218.413 204.367 219.784 207.19C220.231 209.592 220.863 211.956 221.677 214.259C221.808 216.332 221.589 218.413 221.031 220.414C217.019 234.694 208.103 254.91 188.404 270.13C186.583 271.549 184.319 272.279 182.011 272.19C179.704 272.101 177.502 271.199 175.796 269.644C162.437 257.406 146.555 248.249 129.271 242.818C135.194 228.819 155.932 190.925 205.124 196.833Z" fill="url(#paint0_linear_1065_314)"/>
<path d="M227.29 289.689C228.206 290.706 229.49 291.316 230.856 291.387C232.223 291.457 233.562 290.982 234.579 290.065C235.595 289.148 236.206 287.865 236.276 286.498C236.347 285.131 235.871 283.792 234.955 282.776C234.33 282.084 233.72 281.378 233.125 280.657C232.694 280.134 232.164 279.702 231.566 279.384C230.967 279.066 230.312 278.869 229.638 278.804C228.963 278.739 228.283 278.808 227.635 279.006C226.987 279.204 226.384 279.528 225.861 279.959C225.339 280.39 224.906 280.92 224.588 281.518C224.27 282.117 224.073 282.772 224.008 283.446C223.943 284.121 224.012 284.802 224.21 285.449C224.408 286.097 224.732 286.7 225.163 287.223C225.855 288.061 226.564 288.883 227.29 289.689ZM264.044 131.365C264.087 131.374 268.455 132.292 272.136 133.287C273.451 133.623 274.844 133.428 276.016 132.744C277.187 132.06 278.042 130.943 278.396 129.633C278.75 128.324 278.574 126.928 277.906 125.747C277.239 124.566 276.133 123.696 274.829 123.324C271.956 122.565 269.065 121.879 266.158 121.264C264.831 121.015 263.459 121.297 262.337 122.048C261.215 122.799 260.432 123.96 260.156 125.282C259.881 126.604 260.134 127.981 260.862 129.118C261.589 130.256 262.734 131.062 264.05 131.365H264.044Z" fill="white"/>
<path d="M227.29 289.689C228.206 290.706 229.49 291.316 230.856 291.387C232.223 291.457 233.562 290.982 234.579 290.065C235.595 289.148 236.206 287.865 236.276 286.498C236.347 285.131 235.871 283.792 234.955 282.776C234.33 282.084 233.72 281.378 233.125 280.657C232.694 280.134 232.164 279.702 231.566 279.384C230.967 279.066 230.312 278.869 229.638 278.804C228.963 278.739 228.283 278.808 227.635 279.006C226.987 279.204 226.384 279.528 225.861 279.959C225.339 280.39 224.906 280.92 224.588 281.518C224.27 282.117 224.073 282.772 224.008 283.446C223.943 284.121 224.012 284.802 224.21 285.449C224.408 286.097 224.732 286.7 225.163 287.223C225.855 288.061 226.564 288.883 227.29 289.689ZM264.044 131.365C264.087 131.374 268.455 132.292 272.136 133.287C273.451 133.623 274.844 133.428 276.016 132.744C277.187 132.06 278.042 130.943 278.396 129.633C278.75 128.324 278.574 126.928 277.906 125.747C277.239 124.566 276.133 123.696 274.829 123.324C271.956 122.565 269.065 121.879 266.158 121.264C264.831 121.015 263.459 121.297 262.337 122.048C261.215 122.799 260.432 123.96 260.156 125.282C259.881 126.604 260.134 127.981 260.862 129.118C261.589 130.256 262.734 131.062 264.05 131.365H264.044Z" fill="url(#paint1_linear_1065_314)"/>
<defs>
<linearGradient id="paint0_linear_1065_314" x1="16.9051" y1="30.8089" x2="472.743" y2="549.355" gradientUnits="userSpaceOnUse">
<stop stop-color="#1BA2D7"/>
<stop offset="1" stop-color="#8D3DFA"/>
</linearGradient>
<linearGradient id="paint1_linear_1065_314" x1="225.932" y1="132.147" x2="332.043" y2="171.202" gradientUnits="userSpaceOnUse">
<stop stop-color="#1BA2D7"/>
<stop offset="1" stop-color="#8D3DFA"/>
</linearGradient>
</defs>
</svg>
