<svg width="512" height="512" viewBox="0 0 512 512" fill="none" xmlns="http://www.w3.org/2000/svg">
<path d="M512 72.1877C512.015 66.7374 510.283 61.4259 507.058 57.0321C503.832 52.6384 499.284 49.3936 494.08 47.7739L343.894 0.337084C343.603 0.251751 343.313 0.234684 343.04 0.174951L342.588 0.0896176C341.449 -0.0773227 340.287 -0.0105441 339.175 0.285884H338.919L170.727 50.752L33.2802 7.35148C29.4465 6.14582 25.3827 5.8597 21.4178 6.51629C17.4529 7.17288 13.6983 8.75372 10.4579 11.1309C7.21744 13.508 4.58218 16.6147 2.7654 20.1995C0.94861 23.7843 0.00133644 27.7465 0.0002412 31.7654V439.701C-0.0234904 445.159 1.70456 450.48 4.93028 454.883C8.156 459.285 12.7092 462.536 17.9202 464.158L168.107 511.595C169.742 512.098 171.49 512.098 173.125 511.595L341.282 461.146L478.669 504.546C481.186 505.348 483.815 505.758 486.451 505.758C493.224 505.724 499.707 503.014 504.489 498.218C509.27 493.422 511.961 486.93 511.975 480.158L512 72.1877ZM17.0669 439.701V31.7654C17.066 30.4213 17.3827 29.096 17.991 27.8975C18.5994 26.699 19.4822 25.6611 20.5677 24.8684C21.6531 24.0758 22.9105 23.5507 24.2373 23.336C25.5641 23.1214 26.9229 23.2231 28.2029 23.6331L162.134 65.9328V400.858C159.901 400.816 157.742 401.657 156.125 403.198C154.508 404.738 153.565 406.854 153.498 409.087C153.432 411.319 154.249 413.487 155.771 415.121C157.293 416.755 159.399 417.722 161.63 417.813H162.134V491.763L23.0402 447.842C21.3079 447.297 19.7946 446.214 18.7203 444.75C17.646 443.286 17.0668 441.517 17.0669 439.701ZM179.2 491.942V417.702C182.579 417.446 185.942 417.037 189.278 416.448C190.38 416.245 191.432 415.827 192.372 415.218C193.313 414.609 194.124 413.821 194.76 412.898C195.396 411.975 195.844 410.936 196.078 409.84C196.313 408.744 196.329 407.613 196.126 406.511C195.923 405.409 195.505 404.357 194.896 403.417C194.287 402.476 193.499 401.665 192.576 401.029C191.653 400.393 190.614 399.945 189.518 399.711C188.422 399.476 187.291 399.46 186.189 399.663C183.97 400.073 181.607 400.337 179.2 400.516V66.0267L332.8 19.9467V102.618C323.243 103.027 313.788 104.64 304.64 107.422C303.502 107.699 302.432 108.207 301.498 108.915C300.565 109.623 299.787 110.516 299.213 111.538C298.64 112.56 298.283 113.689 298.165 114.855C298.047 116.021 298.17 117.199 298.528 118.315C298.885 119.431 299.468 120.461 300.241 121.342C301.014 122.223 301.96 122.935 303.02 123.434C304.08 123.934 305.232 124.209 306.403 124.244C307.575 124.278 308.741 124.071 309.828 123.635C317.314 121.357 325.053 120.013 332.869 119.633V445.862L179.2 491.942ZM491.443 487.01C490.364 487.81 489.11 488.341 487.785 488.559C486.46 488.777 485.102 488.676 483.823 488.265L349.867 445.956V119.838C357.49 120.53 364.948 122.47 371.943 125.581C374.004 126.516 376.353 126.593 378.472 125.796C380.591 124.999 382.306 123.393 383.241 121.331C384.175 119.269 384.253 116.921 383.456 114.802C382.659 112.683 381.053 110.968 378.991 110.033C369.775 105.948 359.922 103.485 349.867 102.754V20.1174L488.96 64.047C490.693 64.5917 492.206 65.675 493.28 67.1391C494.354 68.6032 494.934 70.3718 494.934 72.1877V480.124C494.942 482.854 493.654 485.414 491.443 487.01Z" fill="white"/>
<path d="M512 72.1877C512.015 66.7374 510.283 61.4259 507.058 57.0321C503.832 52.6384 499.284 49.3936 494.08 47.7739L343.894 0.337084C343.603 0.251751 343.313 0.234684 343.04 0.174951L342.588 0.0896176C341.449 -0.0773227 340.287 -0.0105441 339.175 0.285884H338.919L170.727 50.752L33.2802 7.35148C29.4465 6.14582 25.3827 5.8597 21.4178 6.51629C17.4529 7.17288 13.6983 8.75372 10.4579 11.1309C7.21744 13.508 4.58218 16.6147 2.7654 20.1995C0.94861 23.7843 0.00133644 27.7465 0.0002412 31.7654V439.701C-0.0234904 445.159 1.70456 450.48 4.93028 454.883C8.156 459.285 12.7092 462.536 17.9202 464.158L168.107 511.595C169.742 512.098 171.49 512.098 173.125 511.595L341.282 461.146L478.669 504.546C481.186 505.348 483.815 505.758 486.451 505.758C493.224 505.724 499.707 503.014 504.489 498.218C509.27 493.422 511.961 486.93 511.975 480.158L512 72.1877ZM17.0669 439.701V31.7654C17.066 30.4213 17.3827 29.096 17.991 27.8975C18.5994 26.699 19.4822 25.6611 20.5677 24.8684C21.6531 24.0758 22.9105 23.5507 24.2373 23.336C25.5641 23.1214 26.9229 23.2231 28.2029 23.6331L162.134 65.9328V400.858C159.901 400.816 157.742 401.657 156.125 403.198C154.508 404.738 153.565 406.854 153.498 409.087C153.432 411.319 154.249 413.487 155.771 415.121C157.293 416.755 159.399 417.722 161.63 417.813H162.134V491.763L23.0402 447.842C21.3079 447.297 19.7946 446.214 18.7203 444.75C17.646 443.286 17.0668 441.517 17.0669 439.701ZM179.2 491.942V417.702C182.579 417.446 185.942 417.037 189.278 416.448C190.38 416.245 191.432 415.827 192.372 415.218C193.313 414.609 194.124 413.821 194.76 412.898C195.396 411.975 195.844 410.936 196.078 409.84C196.313 408.744 196.329 407.613 196.126 406.511C195.923 405.409 195.505 404.357 194.896 403.417C194.287 402.476 193.499 401.665 192.576 401.029C191.653 400.393 190.614 399.945 189.518 399.711C188.422 399.476 187.291 399.46 186.189 399.663C183.97 400.073 181.607 400.337 179.2 400.516V66.0267L332.8 19.9467V102.618C323.243 103.027 313.788 104.64 304.64 107.422C303.502 107.699 302.432 108.207 301.498 108.915C300.565 109.623 299.787 110.516 299.213 111.538C298.64 112.56 298.283 113.689 298.165 114.855C298.047 116.021 298.17 117.199 298.528 118.315C298.885 119.431 299.468 120.461 300.241 121.342C301.014 122.223 301.96 122.935 303.02 123.434C304.08 123.934 305.232 124.209 306.403 124.244C307.575 124.278 308.741 124.071 309.828 123.635C317.314 121.357 325.053 120.013 332.869 119.633V445.862L179.2 491.942ZM491.443 487.01C490.364 487.81 489.11 488.341 487.785 488.559C486.46 488.777 485.102 488.676 483.823 488.265L349.867 445.956V119.838C357.49 120.53 364.948 122.47 371.943 125.581C374.004 126.516 376.353 126.593 378.472 125.796C380.591 124.999 382.306 123.393 383.241 121.331C384.175 119.269 384.253 116.921 383.456 114.802C382.659 112.683 381.053 110.968 378.991 110.033C369.775 105.948 359.922 103.485 349.867 102.754V20.1174L488.96 64.047C490.693 64.5917 492.206 65.675 493.28 67.1391C494.354 68.6032 494.934 70.3718 494.934 72.1877V480.124C494.942 482.854 493.654 485.414 491.443 487.01Z" fill="url(#paint0_linear_1065_318)"/>
<path d="M466.833 309.645C465.233 308.045 463.063 307.146 460.8 307.146C458.537 307.146 456.367 308.045 454.767 309.645L426.667 337.745L398.566 309.645C396.957 308.09 394.801 307.23 392.564 307.25C390.327 307.269 388.186 308.166 386.604 309.749C385.022 311.331 384.125 313.471 384.105 315.708C384.086 317.946 384.946 320.101 386.5 321.711L414.6 349.811L386.5 377.911C385.685 378.699 385.035 379.64 384.588 380.681C384.141 381.722 383.905 382.842 383.895 383.975C383.886 385.108 384.101 386.232 384.53 387.281C384.96 388.329 385.593 389.282 386.394 390.083C387.196 390.884 388.148 391.518 389.197 391.947C390.246 392.376 391.369 392.592 392.503 392.582C393.636 392.572 394.755 392.337 395.796 391.89C396.838 391.443 397.779 390.793 398.566 389.978L426.667 361.877L454.767 389.978C456.376 391.532 458.532 392.392 460.769 392.373C463.007 392.353 465.147 391.456 466.729 389.874C468.311 388.291 469.209 386.151 469.228 383.914C469.247 381.676 468.387 379.521 466.833 377.911L438.733 349.811L466.833 321.711C468.433 320.111 469.331 317.941 469.331 315.678C469.331 313.415 468.433 311.245 466.833 309.645ZM85.1796 273.011H85.2394C87.4922 273.011 89.6537 272.12 91.2523 270.533C92.8509 268.945 93.7569 266.79 93.7727 264.538V262.071C93.8666 257.173 93.8666 252.267 93.8666 247.411C93.8666 245.148 92.9675 242.977 91.3672 241.377C89.7669 239.777 87.5964 238.878 85.3332 238.878C83.07 238.878 80.8996 239.777 79.2992 241.377C77.6989 242.977 76.7999 245.148 76.7999 247.411C76.7999 252.224 76.7999 257.079 76.7231 261.918V264.392C76.7118 265.514 76.9217 266.626 77.3407 267.667C77.7597 268.707 78.3796 269.654 79.165 270.455C79.9504 271.255 80.8858 271.893 81.9179 272.331C82.9499 272.77 84.0583 273.001 85.1796 273.011ZM86.5279 324.211C87.6463 324.139 88.7396 323.848 89.7454 323.354C90.7512 322.86 91.6499 322.172 92.39 321.331C93.1301 320.489 93.6972 319.51 94.0589 318.449C94.4206 317.389 94.5698 316.267 94.498 315.149C94.1482 309.67 93.9348 304.055 93.8154 298.449C93.7678 296.186 92.8232 294.034 91.1893 292.467C89.5554 290.901 87.366 290.047 85.1028 290.095C82.8396 290.142 80.688 291.087 79.1213 292.721C77.5546 294.355 76.7012 296.544 76.7487 298.807C76.8852 304.712 77.0986 310.532 77.4655 316.241C77.6045 318.408 78.5645 320.441 80.15 321.925C81.7355 323.409 83.8272 324.233 85.9988 324.228C86.1866 324.211 86.3402 324.211 86.5279 324.211ZM99.0378 347.814C98.8114 346.689 98.3603 345.621 97.7116 344.674C97.0629 343.727 96.2298 342.921 95.2622 342.304C94.2946 341.686 93.2124 341.27 92.0804 341.081C90.9483 340.891 89.7897 340.932 88.6738 341.201C87.5579 341.47 86.5077 341.961 85.5861 342.645C84.6644 343.329 83.8902 344.192 83.3099 345.182C82.7295 346.173 82.3549 347.27 82.2084 348.408C82.062 349.547 82.1467 350.703 82.4575 351.808C83.9318 358.105 85.9299 364.267 88.4308 370.231C88.847 371.296 89.4729 372.266 90.2714 373.085C91.0698 373.903 92.0246 374.552 93.0788 374.994C94.1331 375.436 95.2655 375.662 96.4087 375.658C97.5519 375.654 98.6826 375.42 99.7338 374.971C100.785 374.521 101.735 373.865 102.528 373.041C103.32 372.217 103.939 371.243 104.348 370.175C104.757 369.107 104.947 367.969 104.907 366.826C104.867 365.683 104.597 364.561 104.115 363.524C101.998 358.434 100.3 353.18 99.0378 347.814ZM131.712 393.51C127.531 391.506 123.622 388.977 120.081 385.984C119.228 385.256 118.24 384.702 117.174 384.356C116.107 384.009 114.983 383.876 113.865 383.964C112.746 384.052 111.657 384.359 110.657 384.868C109.658 385.377 108.769 386.078 108.04 386.931C106.569 388.653 105.843 390.89 106.02 393.148C106.198 395.406 107.265 397.501 108.988 398.972C113.636 402.912 118.769 406.241 124.262 408.879C126.289 409.79 128.591 409.874 130.679 409.114C132.767 408.354 134.476 406.81 135.443 404.809C136.41 402.808 136.559 400.509 135.857 398.401C135.156 396.293 133.659 394.541 131.686 393.519L131.712 393.51ZM223.573 376.879C221.06 380.221 218.219 383.302 215.091 386.078C214.194 386.8 213.452 387.697 212.911 388.714C212.37 389.731 212.04 390.847 211.942 391.994C211.843 393.142 211.978 394.298 212.339 395.392C212.699 396.486 213.277 397.496 214.038 398.361C214.799 399.226 215.727 399.927 216.766 400.424C217.806 400.92 218.935 401.201 220.086 401.249C221.237 401.298 222.386 401.112 223.463 400.705C224.541 400.297 225.524 399.676 226.355 398.878C230.356 395.348 233.987 391.419 237.192 387.153C238.472 385.338 238.995 383.096 238.651 380.901C238.306 378.707 237.122 376.733 235.348 375.397C233.573 374.061 231.349 373.467 229.145 373.742C226.941 374.017 224.931 375.139 223.539 376.87L223.573 376.879ZM252.1 324.382C249.881 323.937 247.576 324.392 245.693 325.647C243.809 326.901 242.501 328.853 242.056 331.072C240.973 336.533 239.616 341.952 237.986 347.285C237.321 349.449 237.542 351.788 238.601 353.789C239.661 355.789 241.471 357.287 243.635 357.952C245.799 358.617 248.138 358.396 250.138 357.337C252.139 356.277 253.636 354.466 254.302 352.303C256.094 346.415 257.596 340.424 258.79 334.383C259.222 332.17 258.761 329.876 257.508 328.002C256.254 326.129 254.31 324.827 252.1 324.382ZM256.077 273.011H255.769C253.557 273.01 251.431 273.868 249.839 275.404C248.247 276.94 247.314 279.035 247.236 281.246C247.039 286.832 246.741 292.413 246.34 297.988C246.255 299.109 246.393 300.235 246.744 301.302C247.096 302.37 247.655 303.357 248.389 304.208C249.123 305.059 250.018 305.756 251.023 306.26C252.027 306.764 253.121 307.064 254.242 307.144H254.873C257.033 307.15 259.114 306.337 260.697 304.869C262.281 303.401 263.249 301.388 263.407 299.234C263.833 293.448 264.132 287.629 264.337 281.843C264.377 280.72 264.195 279.601 263.801 278.548C263.407 277.496 262.809 276.532 262.041 275.711C261.274 274.891 260.352 274.23 259.328 273.766C258.305 273.303 257.2 273.046 256.077 273.011ZM256.162 255.944H256.205C257.326 255.939 258.435 255.712 259.469 255.278C260.503 254.843 261.441 254.209 262.229 253.412C263.018 252.615 263.641 251.67 264.065 250.631C264.488 249.593 264.702 248.481 264.695 247.36L264.567 230.293C264.554 228.033 263.644 225.87 262.038 224.28C260.432 222.69 258.26 221.802 256 221.811C254.875 221.811 253.761 222.034 252.722 222.466C251.684 222.898 250.741 223.531 249.948 224.329C249.155 225.126 248.527 226.073 248.101 227.114C247.676 228.156 247.46 229.271 247.467 230.396L247.595 247.462C247.608 249.723 248.518 251.885 250.124 253.475C251.73 255.066 253.902 255.954 256.162 255.944ZM256.264 204.744H256.973C259.12 204.752 261.191 203.949 262.772 202.497C264.354 201.045 265.33 199.051 265.506 196.911C265.984 191.125 266.667 185.638 267.537 180.595C267.922 178.365 267.405 176.073 266.1 174.224C264.795 172.375 262.808 171.12 260.578 170.735C258.348 170.35 256.056 170.867 254.207 172.172C252.357 173.477 251.103 175.463 250.718 177.694C249.762 183.232 249.011 189.222 248.491 195.511C248.395 196.628 248.52 197.753 248.858 198.821C249.197 199.89 249.743 200.881 250.465 201.738C251.187 202.596 252.07 203.303 253.066 203.818C254.061 204.334 255.148 204.649 256.264 204.744ZM266.24 152.427C267.215 152.981 268.289 153.337 269.402 153.476C270.515 153.615 271.644 153.532 272.725 153.235C273.806 152.937 274.817 152.428 275.702 151.739C276.586 151.05 277.326 150.193 277.879 149.218C280.493 144.571 283.757 140.321 287.573 136.597C288.384 135.82 289.033 134.89 289.483 133.86C289.933 132.831 290.176 131.723 290.197 130.6C290.218 129.477 290.018 128.361 289.607 127.316C289.195 126.27 288.582 125.317 287.801 124.509C287.02 123.701 286.088 123.056 285.057 122.609C284.026 122.163 282.918 121.924 281.794 121.907C280.671 121.89 279.556 122.095 278.512 122.51C277.468 122.925 276.517 123.543 275.712 124.326C270.728 129.183 266.466 134.729 263.057 140.796C261.938 142.76 261.645 145.089 262.242 147.27C262.839 149.45 264.277 151.305 266.24 152.427ZM404.48 157.572C405.548 159.568 407.366 161.058 409.532 161.714C411.699 162.371 414.038 162.139 416.034 161.071C418.03 160.003 419.52 158.185 420.176 156.018C420.832 153.852 420.601 151.513 419.533 149.517C415.985 142.835 411.691 136.577 406.733 130.863C405.24 129.172 403.138 128.141 400.887 127.996C398.637 127.85 396.42 128.601 394.721 130.085C393.023 131.57 391.981 133.666 391.824 135.916C391.666 138.166 392.406 140.387 393.881 142.093C397.987 146.836 401.543 152.029 404.48 157.572ZM416.981 197.38C417.724 202.645 418.108 207.962 418.133 213.278C418.133 215.541 419.032 217.711 420.633 219.312C422.233 220.912 424.403 221.811 426.667 221.811C428.93 221.811 431.1 220.912 432.701 219.312C434.301 217.711 435.2 215.541 435.2 213.278C435.177 207.176 434.738 201.084 433.886 195.042C433.744 193.922 433.382 192.841 432.82 191.862C432.257 190.882 431.506 190.025 430.61 189.338C429.714 188.651 428.69 188.149 427.599 187.86C426.507 187.572 425.369 187.503 424.25 187.658C423.132 187.813 422.055 188.188 421.083 188.762C420.11 189.335 419.262 190.097 418.585 191.001C417.909 191.905 417.419 192.935 417.144 194.03C416.869 195.125 416.813 196.264 416.981 197.38ZM426.667 273.011C428.93 273.011 431.1 272.112 432.701 270.512C434.301 268.911 435.2 266.741 435.2 264.478V247.411C435.2 245.148 434.301 242.977 432.701 241.377C431.1 239.777 428.93 238.878 426.667 238.878C424.403 238.878 422.233 239.777 420.633 241.377C419.032 242.977 418.133 245.148 418.133 247.411V264.478C418.133 266.741 419.032 268.911 420.633 270.512C422.233 272.112 424.403 273.011 426.667 273.011Z" fill="white"/>
<path d="M466.833 309.645C465.233 308.045 463.063 307.146 460.8 307.146C458.537 307.146 456.367 308.045 454.767 309.645L426.667 337.745L398.566 309.645C396.957 308.09 394.801 307.23 392.564 307.25C390.327 307.269 388.186 308.166 386.604 309.749C385.022 311.331 384.125 313.471 384.105 315.708C384.086 317.946 384.946 320.101 386.5 321.711L414.6 349.811L386.5 377.911C385.685 378.699 385.035 379.64 384.588 380.681C384.141 381.722 383.905 382.842 383.895 383.975C383.886 385.108 384.101 386.232 384.53 387.281C384.96 388.329 385.593 389.282 386.394 390.083C387.196 390.884 388.148 391.518 389.197 391.947C390.246 392.376 391.369 392.592 392.503 392.582C393.636 392.572 394.755 392.337 395.796 391.89C396.838 391.443 397.779 390.793 398.566 389.978L426.667 361.877L454.767 389.978C456.376 391.532 458.532 392.392 460.769 392.373C463.007 392.353 465.147 391.456 466.729 389.874C468.311 388.291 469.209 386.151 469.228 383.914C469.247 381.676 468.387 379.521 466.833 377.911L438.733 349.811L466.833 321.711C468.433 320.111 469.331 317.941 469.331 315.678C469.331 313.415 468.433 311.245 466.833 309.645ZM85.1796 273.011H85.2394C87.4922 273.011 89.6537 272.12 91.2523 270.533C92.8509 268.945 93.7569 266.79 93.7727 264.538V262.071C93.8666 257.173 93.8666 252.267 93.8666 247.411C93.8666 245.148 92.9675 242.977 91.3672 241.377C89.7669 239.777 87.5964 238.878 85.3332 238.878C83.07 238.878 80.8996 239.777 79.2992 241.377C77.6989 242.977 76.7999 245.148 76.7999 247.411C76.7999 252.224 76.7999 257.079 76.7231 261.918V264.392C76.7118 265.514 76.9217 266.626 77.3407 267.667C77.7597 268.707 78.3796 269.654 79.165 270.455C79.9504 271.255 80.8858 271.893 81.9179 272.331C82.9499 272.77 84.0583 273.001 85.1796 273.011ZM86.5279 324.211C87.6463 324.139 88.7396 323.848 89.7454 323.354C90.7512 322.86 91.6499 322.172 92.39 321.331C93.1301 320.489 93.6972 319.51 94.0589 318.449C94.4206 317.389 94.5698 316.267 94.498 315.149C94.1482 309.67 93.9348 304.055 93.8154 298.449C93.7678 296.186 92.8232 294.034 91.1893 292.467C89.5554 290.901 87.366 290.047 85.1028 290.095C82.8396 290.142 80.688 291.087 79.1213 292.721C77.5546 294.355 76.7012 296.544 76.7487 298.807C76.8852 304.712 77.0986 310.532 77.4655 316.241C77.6045 318.408 78.5645 320.441 80.15 321.925C81.7355 323.409 83.8272 324.233 85.9988 324.228C86.1866 324.211 86.3402 324.211 86.5279 324.211ZM99.0378 347.814C98.8114 346.689 98.3603 345.621 97.7116 344.674C97.0629 343.727 96.2298 342.921 95.2622 342.304C94.2946 341.686 93.2124 341.27 92.0804 341.081C90.9483 340.891 89.7897 340.932 88.6738 341.201C87.5579 341.47 86.5077 341.961 85.5861 342.645C84.6644 343.329 83.8902 344.192 83.3099 345.182C82.7295 346.173 82.3549 347.27 82.2084 348.408C82.062 349.547 82.1467 350.703 82.4575 351.808C83.9318 358.105 85.9299 364.267 88.4308 370.231C88.847 371.296 89.4729 372.266 90.2714 373.085C91.0698 373.903 92.0246 374.552 93.0788 374.994C94.1331 375.436 95.2655 375.662 96.4087 375.658C97.5519 375.654 98.6826 375.42 99.7338 374.971C100.785 374.521 101.735 373.865 102.528 373.041C103.32 372.217 103.939 371.243 104.348 370.175C104.757 369.107 104.947 367.969 104.907 366.826C104.867 365.683 104.597 364.561 104.115 363.524C101.998 358.434 100.3 353.18 99.0378 347.814ZM131.712 393.51C127.531 391.506 123.622 388.977 120.081 385.984C119.228 385.256 118.24 384.702 117.174 384.356C116.107 384.009 114.983 383.876 113.865 383.964C112.746 384.052 111.657 384.359 110.657 384.868C109.658 385.377 108.769 386.078 108.04 386.931C106.569 388.653 105.843 390.89 106.02 393.148C106.198 395.406 107.265 397.501 108.988 398.972C113.636 402.912 118.769 406.241 124.262 408.879C126.289 409.79 128.591 409.874 130.679 409.114C132.767 408.354 134.476 406.81 135.443 404.809C136.41 402.808 136.559 400.509 135.857 398.401C135.156 396.293 133.659 394.541 131.686 393.519L131.712 393.51ZM223.573 376.879C221.06 380.221 218.219 383.302 215.091 386.078C214.194 386.8 213.452 387.697 212.911 388.714C212.37 389.731 212.04 390.847 211.942 391.994C211.843 393.142 211.978 394.298 212.339 395.392C212.699 396.486 213.277 397.496 214.038 398.361C214.799 399.226 215.727 399.927 216.766 400.424C217.806 400.92 218.935 401.201 220.086 401.249C221.237 401.298 222.386 401.112 223.463 400.705C224.541 400.297 225.524 399.676 226.355 398.878C230.356 395.348 233.987 391.419 237.192 387.153C238.472 385.338 238.995 383.096 238.651 380.901C238.306 378.707 237.122 376.733 235.348 375.397C233.573 374.061 231.349 373.467 229.145 373.742C226.941 374.017 224.931 375.139 223.539 376.87L223.573 376.879ZM252.1 324.382C249.881 323.937 247.576 324.392 245.693 325.647C243.809 326.901 242.501 328.853 242.056 331.072C240.973 336.533 239.616 341.952 237.986 347.285C237.321 349.449 237.542 351.788 238.601 353.789C239.661 355.789 241.471 357.287 243.635 357.952C245.799 358.617 248.138 358.396 250.138 357.337C252.139 356.277 253.636 354.466 254.302 352.303C256.094 346.415 257.596 340.424 258.79 334.383C259.222 332.17 258.761 329.876 257.508 328.002C256.254 326.129 254.31 324.827 252.1 324.382ZM256.077 273.011H255.769C253.557 273.01 251.431 273.868 249.839 275.404C248.247 276.94 247.314 279.035 247.236 281.246C247.039 286.832 246.741 292.413 246.34 297.988C246.255 299.109 246.393 300.235 246.744 301.302C247.096 302.37 247.655 303.357 248.389 304.208C249.123 305.059 250.018 305.756 251.023 306.26C252.027 306.764 253.121 307.064 254.242 307.144H254.873C257.033 307.15 259.114 306.337 260.697 304.869C262.281 303.401 263.249 301.388 263.407 299.234C263.833 293.448 264.132 287.629 264.337 281.843C264.377 280.72 264.195 279.601 263.801 278.548C263.407 277.496 262.809 276.532 262.041 275.711C261.274 274.891 260.352 274.23 259.328 273.766C258.305 273.303 257.2 273.046 256.077 273.011ZM256.162 255.944H256.205C257.326 255.939 258.435 255.712 259.469 255.278C260.503 254.843 261.441 254.209 262.229 253.412C263.018 252.615 263.641 251.67 264.065 250.631C264.488 249.593 264.702 248.481 264.695 247.36L264.567 230.293C264.554 228.033 263.644 225.87 262.038 224.28C260.432 222.69 258.26 221.802 256 221.811C254.875 221.811 253.761 222.034 252.722 222.466C251.684 222.898 250.741 223.531 249.948 224.329C249.155 225.126 248.527 226.073 248.101 227.114C247.676 228.156 247.46 229.271 247.467 230.396L247.595 247.462C247.608 249.723 248.518 251.885 250.124 253.475C251.73 255.066 253.902 255.954 256.162 255.944ZM256.264 204.744H256.973C259.12 204.752 261.191 203.949 262.772 202.497C264.354 201.045 265.33 199.051 265.506 196.911C265.984 191.125 266.667 185.638 267.537 180.595C267.922 178.365 267.405 176.073 266.1 174.224C264.795 172.375 262.808 171.12 260.578 170.735C258.348 170.35 256.056 170.867 254.207 172.172C252.357 173.477 251.103 175.463 250.718 177.694C249.762 183.232 249.011 189.222 248.491 195.511C248.395 196.628 248.52 197.753 248.858 198.821C249.197 199.89 249.743 200.881 250.465 201.738C251.187 202.596 252.07 203.303 253.066 203.818C254.061 204.334 255.148 204.649 256.264 204.744ZM266.24 152.427C267.215 152.981 268.289 153.337 269.402 153.476C270.515 153.615 271.644 153.532 272.725 153.235C273.806 152.937 274.817 152.428 275.702 151.739C276.586 151.05 277.326 150.193 277.879 149.218C280.493 144.571 283.757 140.321 287.573 136.597C288.384 135.82 289.033 134.89 289.483 133.86C289.933 132.831 290.176 131.723 290.197 130.6C290.218 129.477 290.018 128.361 289.607 127.316C289.195 126.27 288.582 125.317 287.801 124.509C287.02 123.701 286.088 123.056 285.057 122.609C284.026 122.163 282.918 121.924 281.794 121.907C280.671 121.89 279.556 122.095 278.512 122.51C277.468 122.925 276.517 123.543 275.712 124.326C270.728 129.183 266.466 134.729 263.057 140.796C261.938 142.76 261.645 145.089 262.242 147.27C262.839 149.45 264.277 151.305 266.24 152.427ZM404.48 157.572C405.548 159.568 407.366 161.058 409.532 161.714C411.699 162.371 414.038 162.139 416.034 161.071C418.03 160.003 419.52 158.185 420.176 156.018C420.832 153.852 420.601 151.513 419.533 149.517C415.985 142.835 411.691 136.577 406.733 130.863C405.24 129.172 403.138 128.141 400.887 127.996C398.637 127.85 396.42 128.601 394.721 130.085C393.023 131.57 391.981 133.666 391.824 135.916C391.666 138.166 392.406 140.387 393.881 142.093C397.987 146.836 401.543 152.029 404.48 157.572ZM416.981 197.38C417.724 202.645 418.108 207.962 418.133 213.278C418.133 215.541 419.032 217.711 420.633 219.312C422.233 220.912 424.403 221.811 426.667 221.811C428.93 221.811 431.1 220.912 432.701 219.312C434.301 217.711 435.2 215.541 435.2 213.278C435.177 207.176 434.738 201.084 433.886 195.042C433.744 193.922 433.382 192.841 432.82 191.862C432.257 190.882 431.506 190.025 430.61 189.338C429.714 188.651 428.69 188.149 427.599 187.86C426.507 187.572 425.369 187.503 424.25 187.658C423.132 187.813 422.055 188.188 421.083 188.762C420.11 189.335 419.262 190.097 418.585 191.001C417.909 191.905 417.419 192.935 417.144 194.03C416.869 195.125 416.813 196.264 416.981 197.38ZM426.667 273.011C428.93 273.011 431.1 272.112 432.701 270.512C434.301 268.911 435.2 266.741 435.2 264.478V247.411C435.2 245.148 434.301 242.977 432.701 241.377C431.1 239.777 428.93 238.878 426.667 238.878C424.403 238.878 422.233 239.777 420.633 241.377C419.032 242.977 418.133 245.148 418.133 247.411V264.478C418.133 266.741 419.032 268.911 420.633 270.512C422.233 272.112 424.403 273.011 426.667 273.011Z" fill="url(#paint1_linear_1065_318)"/>
<path d="M426.666 290.077C424.403 290.077 422.232 290.976 420.632 292.577C419.032 294.177 418.133 296.348 418.133 298.611V307.144C418.133 309.407 419.032 311.578 420.632 313.178C422.232 314.778 424.403 315.677 426.666 315.677C428.929 315.677 431.1 314.778 432.7 313.178C434.3 311.578 435.2 309.407 435.2 307.144V298.611C435.2 296.348 434.3 294.177 432.7 292.577C431.1 290.976 428.929 290.077 426.666 290.077ZM79.9995 219.942C81.513 221.154 83.394 221.814 85.3328 221.814C87.2716 221.814 89.1527 221.154 90.6661 219.942C92.5349 218.44 136.533 182.711 136.533 136.477C136.533 122.898 131.139 109.875 121.537 100.273C111.935 90.6716 98.9119 85.2773 85.3328 85.2773C71.7537 85.2773 58.7308 90.6716 49.1289 100.273C39.5271 109.875 34.1328 122.898 34.1328 136.477C34.1328 182.711 78.1307 218.44 79.9995 219.942ZM85.3328 102.344C94.3855 102.344 103.067 105.94 109.469 112.341C115.87 118.743 119.466 127.425 119.466 136.477C119.466 165.823 96.1189 191.526 85.3328 201.826C74.5467 191.526 51.1995 165.823 51.1995 136.477C51.1995 127.425 54.7957 118.743 61.1969 112.341C67.5981 105.94 76.2801 102.344 85.3328 102.344Z" fill="white"/>
<path d="M426.666 290.077C424.403 290.077 422.232 290.976 420.632 292.577C419.032 294.177 418.133 296.348 418.133 298.611V307.144C418.133 309.407 419.032 311.578 420.632 313.178C422.232 314.778 424.403 315.677 426.666 315.677C428.929 315.677 431.1 314.778 432.7 313.178C434.3 311.578 435.2 309.407 435.2 307.144V298.611C435.2 296.348 434.3 294.177 432.7 292.577C431.1 290.976 428.929 290.077 426.666 290.077ZM79.9995 219.942C81.513 221.154 83.394 221.814 85.3328 221.814C87.2716 221.814 89.1527 221.154 90.6661 219.942C92.5349 218.44 136.533 182.711 136.533 136.477C136.533 122.898 131.139 109.875 121.537 100.273C111.935 90.6716 98.9119 85.2773 85.3328 85.2773C71.7537 85.2773 58.7308 90.6716 49.1289 100.273C39.5271 109.875 34.1328 122.898 34.1328 136.477C34.1328 182.711 78.1307 218.44 79.9995 219.942ZM85.3328 102.344C94.3855 102.344 103.067 105.94 109.469 112.341C115.87 118.743 119.466 127.425 119.466 136.477C119.466 165.823 96.1189 191.526 85.3328 201.826C74.5467 191.526 51.1995 165.823 51.1995 136.477C51.1995 127.425 54.7957 118.743 61.1969 112.341C67.5981 105.94 76.2801 102.344 85.3328 102.344Z" fill="url(#paint2_linear_1065_318)"/>
<path d="M85.3341 145.012C90.0469 145.012 93.8674 141.191 93.8674 136.479C93.8674 131.766 90.0469 127.945 85.3341 127.945C80.6213 127.945 76.8008 131.766 76.8008 136.479C76.8008 141.191 80.6213 145.012 85.3341 145.012Z" fill="white"/>
<path d="M85.3341 145.012C90.0469 145.012 93.8674 141.191 93.8674 136.479C93.8674 131.766 90.0469 127.945 85.3341 127.945C80.6213 127.945 76.8008 131.766 76.8008 136.479C76.8008 141.191 80.6213 145.012 85.3341 145.012Z" fill="url(#paint3_linear_1065_318)"/>
<defs>
<linearGradient id="paint0_linear_1065_318" x1="18.2681" y1="32.9983" x2="505.924" y2="592.692" gradientUnits="userSpaceOnUse">
<stop stop-color="#1BA2D7"/>
<stop offset="1" stop-color="#8D3DFA"/>
</linearGradient>
<linearGradient id="paint1_linear_1065_318" x1="90.7309" y1="140.451" x2="341.72" y2="533.505" gradientUnits="userSpaceOnUse">
<stop stop-color="#1BA2D7"/>
<stop offset="1" stop-color="#8D3DFA"/>
</linearGradient>
<linearGradient id="paint2_linear_1065_318" x1="48.4428" y1="100.127" x2="225.796" y2="454.439" gradientUnits="userSpaceOnUse">
<stop stop-color="#1BA2D7"/>
<stop offset="1" stop-color="#8D3DFA"/>
</linearGradient>
<linearGradient id="paint3_linear_1065_318" x1="77.4097" y1="129.045" x2="93.6659" y2="147.702" gradientUnits="userSpaceOnUse">
<stop stop-color="#1BA2D7"/>
<stop offset="1" stop-color="#8D3DFA"/>
</linearGradient>
</defs>
</svg>
