<svg width="455" height="512" viewBox="0 0 455 512" fill="none" xmlns="http://www.w3.org/2000/svg">
<path d="M436.592 192.993L404.665 188.193C400.077 167.148 391.871 147.346 380.211 129.185L399.401 103.205C405.565 94.859 404.715 83.477 397.378 76.14L378.159 56.921C370.822 49.585 359.441 48.733 351.094 54.899L325.114 74.089C306.954 62.429 287.15 54.222 266.107 49.635L261.308 17.707C259.766 7.447 251.115 0 240.739 0H213.56C203.184 0 194.534 7.447 192.993 17.707L188.193 49.635C167.149 54.222 147.346 62.429 129.185 74.089L103.205 54.899C94.86 48.734 83.478 49.586 76.14 56.921L56.922 76.14C49.585 83.477 48.734 94.859 54.899 103.205L74.089 129.185C62.429 147.346 54.222 167.149 49.635 188.193L17.707 192.993C7.447 194.534 0 203.185 0 213.56V240.738C0 251.113 7.447 259.763 17.707 261.306L49.635 266.105C54.222 287.148 62.428 306.951 74.089 325.113L54.899 351.093C48.734 359.439 49.585 370.822 56.922 378.158L76.14 397.377C83.478 404.713 94.859 405.564 103.205 399.399L129.187 380.208C136.766 385.065 144.696 389.353 152.911 393.035C151.805 394.717 150.665 396.377 149.492 398.013C145.239 403.926 142.958 411.029 142.971 418.313V427.844C132.66 430.917 125.118 440.48 125.118 451.776C125.118 455.546 125.969 459.118 127.471 462.326C116.234 464.833 107.807 474.877 107.807 486.858V504.484C107.807 506.477 108.599 508.388 110.008 509.798C111.418 511.207 113.329 511.999 115.322 511.999H338.977C340.97 511.999 342.881 511.207 344.291 509.798C345.7 508.388 346.492 506.477 346.492 504.484V486.858C346.492 474.876 338.064 464.832 326.826 462.325C328.377 459.025 329.181 455.423 329.18 451.776C329.18 440.48 321.639 430.917 311.328 427.844V418.313C311.341 411.029 309.06 403.926 304.807 398.013C303.635 396.376 302.495 394.716 301.388 393.034C309.603 389.353 317.533 385.065 325.112 380.207L351.093 399.398C354.823 402.153 359.159 403.508 363.47 403.507C368.804 403.507 374.1 401.433 378.158 397.375L397.377 378.157C404.714 370.821 405.564 359.439 399.4 351.092L380.21 325.112C391.87 306.951 400.076 287.149 404.664 266.104L436.592 261.305C446.852 259.762 454.299 251.112 454.299 240.737V213.56C454.299 203.184 446.852 194.534 436.592 192.993ZM331.463 486.859V496.971H122.837V486.859C122.837 481.284 127.373 476.748 132.948 476.748H321.35C326.926 476.748 331.463 481.284 331.463 486.859ZM314.151 451.777C314.151 457.259 309.691 461.719 304.21 461.719H150.09C144.608 461.719 140.148 457.259 140.148 451.777C140.148 446.295 144.608 441.835 150.09 441.835H185.023C186.995 441.803 188.875 440.997 190.258 439.591C191.641 438.185 192.416 436.292 192.416 434.32C192.416 432.348 191.641 430.455 190.258 429.049C188.875 427.643 186.995 426.837 185.023 426.805H158.001V418.313C158.001 414.146 159.284 410.153 161.71 406.766C181.935 378.531 192.626 345.248 192.626 310.516V301.146H261.672V310.516C261.672 345.248 272.363 378.531 292.588 406.766C295.007 410.13 296.305 414.17 296.297 418.313V426.805H215.08C213.108 426.837 211.228 427.643 209.845 429.049C208.462 430.455 207.687 432.348 207.687 434.32C207.687 436.292 208.462 438.185 209.845 439.591C211.228 440.997 213.108 441.803 215.08 441.835H304.208C309.691 441.835 314.151 446.295 314.151 451.777ZM227.147 222.137H167.708C162.356 222.137 158.002 217.783 158.002 212.431V169.22C158.002 169.125 158.08 169.047 158.176 169.047H177.425C177.521 169.047 177.599 169.125 177.599 169.22V185.898C177.599 193.84 184.06 200.301 192.002 200.301H201.94C209.882 200.301 216.343 193.84 216.343 185.898V169.22C216.343 169.125 216.421 169.047 216.517 169.047H237.785C237.881 169.047 237.959 169.125 237.959 169.22V185.898C237.959 193.84 244.42 200.301 252.362 200.301H262.3C270.242 200.301 276.703 193.84 276.703 185.898V169.22C276.703 169.125 276.781 169.047 276.877 169.047H296.126C296.221 169.047 296.299 169.125 296.299 169.22V212.431C296.299 217.783 291.945 222.137 286.593 222.137H257.205C255.233 222.169 253.353 222.975 251.97 224.381C250.587 225.787 249.812 227.68 249.812 229.652C249.812 231.624 250.587 233.517 251.97 234.923C253.353 236.329 255.233 237.135 257.205 237.167H271.976C277.597 237.167 282.17 241.74 282.17 247.361C282.17 252.982 277.597 257.555 271.976 257.555H182.324C176.703 257.555 172.13 252.982 172.13 247.361C172.13 241.74 176.703 237.167 182.324 237.167H227.146C229.139 237.167 231.051 236.376 232.46 234.966C233.869 233.557 234.661 231.646 234.661 229.652C234.662 227.659 233.87 225.748 232.461 224.338C231.052 222.929 229.14 222.137 227.147 222.137ZM261.673 272.584V286.117H192.627V272.584H261.673ZM439.27 240.739C439.277 242.123 438.784 243.462 437.881 244.511C436.979 245.559 435.727 246.246 434.358 246.445L397.229 252.026C395.686 252.258 394.253 252.965 393.13 254.049C392.006 255.132 391.248 256.538 390.96 258.072C386.701 280.78 377.912 301.988 364.839 321.107C363.958 322.395 363.5 323.925 363.529 325.485C363.557 327.046 364.071 328.558 364.998 329.813L387.313 360.023C388.141 361.132 388.54 362.502 388.437 363.882C388.334 365.262 387.736 366.558 386.752 367.531L367.533 386.75C366.56 387.733 365.264 388.332 363.884 388.435C362.504 388.538 361.134 388.139 360.025 387.311L329.815 364.996C328.56 364.069 327.047 363.556 325.487 363.527C323.927 363.499 322.396 363.956 321.108 364.837C312.47 370.735 303.296 375.806 293.707 379.982C289.624 372.179 286.241 364.03 283.597 355.63C307.118 345.302 327.264 328.815 342.137 307.599C358.716 283.949 367.479 256.13 367.479 227.149C367.479 149.772 304.528 86.821 227.151 86.821C212.587 86.821 198.229 89.044 184.478 93.429C182.6 94.0509 181.042 95.3885 180.144 97.1515C179.246 98.9145 179.079 100.961 179.68 102.846C180.281 104.731 181.601 106.303 183.354 107.221C185.107 108.139 187.151 108.328 189.043 107.748C201.316 103.835 214.137 101.85 227.15 101.85C296.24 101.85 352.449 158.059 352.449 227.149C352.449 253.027 344.627 277.863 329.83 298.972C317.015 317.253 299.825 331.606 279.775 340.877C277.728 330.886 276.699 320.714 276.703 310.516V301.146H282.246C284.218 301.114 286.098 300.308 287.481 298.902C288.864 297.496 289.639 295.603 289.639 293.631C289.639 291.659 288.864 289.766 287.481 288.36C286.098 286.954 284.218 286.148 282.246 286.116H276.703V272.133C288.359 269.913 297.2 259.653 297.2 247.36C297.202 243.369 296.25 239.436 294.424 235.888C304.235 232.604 311.329 223.333 311.329 212.43V169.22C311.329 160.837 304.509 154.017 296.126 154.017H276.877C268.494 154.017 261.674 160.837 261.674 169.22V185.271H252.988V169.22C252.988 160.837 246.168 154.017 237.785 154.017H216.517C208.134 154.017 201.314 160.837 201.314 169.22V185.271H192.628V169.22C192.628 160.837 185.808 154.017 177.425 154.017H158.176C149.793 154.017 142.973 160.837 142.973 169.22V212.431C142.973 223.333 150.066 232.605 159.877 235.889C158.051 239.437 157.1 243.371 157.102 247.361C157.102 259.654 165.943 269.914 177.599 272.134V286.117H172.056C170.084 286.149 168.204 286.955 166.821 288.361C165.438 289.767 164.663 291.66 164.663 293.632C164.663 295.604 165.438 297.497 166.821 298.903C168.204 300.309 170.084 301.115 172.056 301.147H177.599V310.517C177.599 320.816 176.558 330.973 174.527 340.878C154.477 331.606 137.287 317.253 124.472 298.973C109.674 277.864 101.853 253.028 101.853 227.15C101.853 205.028 107.693 183.287 118.744 164.278C129.511 145.783 144.807 130.332 163.194 119.381C164.907 118.362 166.145 116.705 166.636 114.773C167.126 112.841 166.83 110.794 165.811 109.081C164.792 107.368 163.135 106.13 161.203 105.639C159.271 105.149 157.224 105.445 155.511 106.464C134.928 118.723 117.804 136.02 105.751 156.725C93.369 178.026 86.824 202.379 86.824 227.151C86.824 256.132 95.587 283.951 112.166 307.601C127.039 328.817 147.185 345.304 170.706 355.632C168.062 364.032 164.679 372.181 160.596 379.984C151.007 375.808 141.832 370.737 133.194 364.839C131.906 363.958 130.376 363.501 128.816 363.529C127.256 363.558 125.743 364.071 124.488 364.998L94.277 387.313C93.1686 388.141 91.7982 388.54 90.4185 388.437C89.0388 388.334 87.743 387.736 86.77 386.752L67.552 367.533C66.5686 366.56 65.9702 365.264 65.8671 363.884C65.764 362.505 66.1632 361.134 66.991 360.026L89.306 329.816C90.2331 328.561 90.7464 327.048 90.7747 325.488C90.8031 323.927 90.3449 322.397 89.464 321.109C76.39 301.988 67.601 280.78 63.343 258.074C63.055 256.54 62.2967 255.134 61.1733 254.051C60.05 252.967 58.6173 252.26 57.074 252.028L19.945 246.447C18.5757 246.248 17.3245 245.561 16.4218 244.513C15.5191 243.464 15.0259 242.125 15.033 240.741V213.56C15.0259 212.177 15.5192 210.837 16.4219 209.789C17.3246 208.74 18.5758 208.054 19.945 207.855L57.075 202.273C58.6184 202.041 60.0514 201.334 61.1748 200.251C62.2982 199.167 63.0564 197.761 63.344 196.227C67.603 173.52 76.391 152.312 89.465 133.192C90.3457 131.904 90.8036 130.373 90.7753 128.813C90.747 127.253 90.2338 125.74 89.307 124.485L66.988 94.275C66.1601 93.1664 65.7609 91.7958 65.864 90.4161C65.9671 89.0363 66.5655 87.7403 67.549 86.767L86.767 67.549C87.7401 66.5653 89.0362 65.9667 90.416 65.8636C91.7959 65.7605 93.1665 66.1599 94.275 66.988L124.485 89.303C125.74 90.23 127.253 90.7434 128.813 90.7719C130.373 90.8004 131.903 90.3426 133.191 89.462C152.311 76.388 173.52 67.599 196.226 63.341C197.76 63.0533 199.166 62.2951 200.25 61.1716C201.333 60.0482 202.04 58.6154 202.272 57.072L207.854 19.942C208.053 18.5728 208.739 17.3216 209.788 16.4189C210.836 15.5162 212.176 15.0229 213.559 15.03H240.738C242.122 15.0229 243.461 15.5161 244.51 16.4188C245.558 17.3215 246.245 18.5727 246.444 19.942L252.025 57.072C252.257 58.6153 252.964 60.048 254.048 61.1713C255.131 62.2947 256.537 63.053 258.071 63.341C280.779 67.6 301.987 76.388 321.107 89.462C322.395 90.3428 323.926 90.8007 325.486 90.7722C327.046 90.7437 328.559 90.2302 329.814 89.303L360.024 66.988C361.133 66.1601 362.503 65.7609 363.883 65.864C365.263 65.9671 366.559 66.5655 367.532 67.549L386.751 86.768C387.734 87.7413 388.333 89.0373 388.436 90.4171C388.539 91.7968 388.14 93.1674 387.312 94.276L364.997 124.487C364.07 125.742 363.557 127.255 363.528 128.815C363.5 130.375 363.957 131.906 364.838 133.194C377.911 152.313 386.7 173.521 390.959 196.229C391.247 197.763 392.005 199.169 393.129 200.252C394.252 201.336 395.685 202.043 397.228 202.275L434.357 207.857C435.726 208.056 436.977 208.742 437.88 209.791C438.783 210.839 439.276 212.179 439.269 213.562V240.739H439.27Z" fill="white"/>
<path d="M436.592 192.993L404.665 188.193C400.077 167.148 391.871 147.346 380.211 129.185L399.401 103.205C405.565 94.859 404.715 83.477 397.378 76.14L378.159 56.921C370.822 49.585 359.441 48.733 351.094 54.899L325.114 74.089C306.954 62.429 287.15 54.222 266.107 49.635L261.308 17.707C259.766 7.447 251.115 0 240.739 0H213.56C203.184 0 194.534 7.447 192.993 17.707L188.193 49.635C167.149 54.222 147.346 62.429 129.185 74.089L103.205 54.899C94.86 48.734 83.478 49.586 76.14 56.921L56.922 76.14C49.585 83.477 48.734 94.859 54.899 103.205L74.089 129.185C62.429 147.346 54.222 167.149 49.635 188.193L17.707 192.993C7.447 194.534 0 203.185 0 213.56V240.738C0 251.113 7.447 259.763 17.707 261.306L49.635 266.105C54.222 287.148 62.428 306.951 74.089 325.113L54.899 351.093C48.734 359.439 49.585 370.822 56.922 378.158L76.14 397.377C83.478 404.713 94.859 405.564 103.205 399.399L129.187 380.208C136.766 385.065 144.696 389.353 152.911 393.035C151.805 394.717 150.665 396.377 149.492 398.013C145.239 403.926 142.958 411.029 142.971 418.313V427.844C132.66 430.917 125.118 440.48 125.118 451.776C125.118 455.546 125.969 459.118 127.471 462.326C116.234 464.833 107.807 474.877 107.807 486.858V504.484C107.807 506.477 108.599 508.388 110.008 509.798C111.418 511.207 113.329 511.999 115.322 511.999H338.977C340.97 511.999 342.881 511.207 344.291 509.798C345.7 508.388 346.492 506.477 346.492 504.484V486.858C346.492 474.876 338.064 464.832 326.826 462.325C328.377 459.025 329.181 455.423 329.18 451.776C329.18 440.48 321.639 430.917 311.328 427.844V418.313C311.341 411.029 309.06 403.926 304.807 398.013C303.635 396.376 302.495 394.716 301.388 393.034C309.603 389.353 317.533 385.065 325.112 380.207L351.093 399.398C354.823 402.153 359.159 403.508 363.47 403.507C368.804 403.507 374.1 401.433 378.158 397.375L397.377 378.157C404.714 370.821 405.564 359.439 399.4 351.092L380.21 325.112C391.87 306.951 400.076 287.149 404.664 266.104L436.592 261.305C446.852 259.762 454.299 251.112 454.299 240.737V213.56C454.299 203.184 446.852 194.534 436.592 192.993ZM331.463 486.859V496.971H122.837V486.859C122.837 481.284 127.373 476.748 132.948 476.748H321.35C326.926 476.748 331.463 481.284 331.463 486.859ZM314.151 451.777C314.151 457.259 309.691 461.719 304.21 461.719H150.09C144.608 461.719 140.148 457.259 140.148 451.777C140.148 446.295 144.608 441.835 150.09 441.835H185.023C186.995 441.803 188.875 440.997 190.258 439.591C191.641 438.185 192.416 436.292 192.416 434.32C192.416 432.348 191.641 430.455 190.258 429.049C188.875 427.643 186.995 426.837 185.023 426.805H158.001V418.313C158.001 414.146 159.284 410.153 161.71 406.766C181.935 378.531 192.626 345.248 192.626 310.516V301.146H261.672V310.516C261.672 345.248 272.363 378.531 292.588 406.766C295.007 410.13 296.305 414.17 296.297 418.313V426.805H215.08C213.108 426.837 211.228 427.643 209.845 429.049C208.462 430.455 207.687 432.348 207.687 434.32C207.687 436.292 208.462 438.185 209.845 439.591C211.228 440.997 213.108 441.803 215.08 441.835H304.208C309.691 441.835 314.151 446.295 314.151 451.777ZM227.147 222.137H167.708C162.356 222.137 158.002 217.783 158.002 212.431V169.22C158.002 169.125 158.08 169.047 158.176 169.047H177.425C177.521 169.047 177.599 169.125 177.599 169.22V185.898C177.599 193.84 184.06 200.301 192.002 200.301H201.94C209.882 200.301 216.343 193.84 216.343 185.898V169.22C216.343 169.125 216.421 169.047 216.517 169.047H237.785C237.881 169.047 237.959 169.125 237.959 169.22V185.898C237.959 193.84 244.42 200.301 252.362 200.301H262.3C270.242 200.301 276.703 193.84 276.703 185.898V169.22C276.703 169.125 276.781 169.047 276.877 169.047H296.126C296.221 169.047 296.299 169.125 296.299 169.22V212.431C296.299 217.783 291.945 222.137 286.593 222.137H257.205C255.233 222.169 253.353 222.975 251.97 224.381C250.587 225.787 249.812 227.68 249.812 229.652C249.812 231.624 250.587 233.517 251.97 234.923C253.353 236.329 255.233 237.135 257.205 237.167H271.976C277.597 237.167 282.17 241.74 282.17 247.361C282.17 252.982 277.597 257.555 271.976 257.555H182.324C176.703 257.555 172.13 252.982 172.13 247.361C172.13 241.74 176.703 237.167 182.324 237.167H227.146C229.139 237.167 231.051 236.376 232.46 234.966C233.869 233.557 234.661 231.646 234.661 229.652C234.662 227.659 233.87 225.748 232.461 224.338C231.052 222.929 229.14 222.137 227.147 222.137ZM261.673 272.584V286.117H192.627V272.584H261.673ZM439.27 240.739C439.277 242.123 438.784 243.462 437.881 244.511C436.979 245.559 435.727 246.246 434.358 246.445L397.229 252.026C395.686 252.258 394.253 252.965 393.13 254.049C392.006 255.132 391.248 256.538 390.96 258.072C386.701 280.78 377.912 301.988 364.839 321.107C363.958 322.395 363.5 323.925 363.529 325.485C363.557 327.046 364.071 328.558 364.998 329.813L387.313 360.023C388.141 361.132 388.54 362.502 388.437 363.882C388.334 365.262 387.736 366.558 386.752 367.531L367.533 386.75C366.56 387.733 365.264 388.332 363.884 388.435C362.504 388.538 361.134 388.139 360.025 387.311L329.815 364.996C328.56 364.069 327.047 363.556 325.487 363.527C323.927 363.499 322.396 363.956 321.108 364.837C312.47 370.735 303.296 375.806 293.707 379.982C289.624 372.179 286.241 364.03 283.597 355.63C307.118 345.302 327.264 328.815 342.137 307.599C358.716 283.949 367.479 256.13 367.479 227.149C367.479 149.772 304.528 86.821 227.151 86.821C212.587 86.821 198.229 89.044 184.478 93.429C182.6 94.0509 181.042 95.3885 180.144 97.1515C179.246 98.9145 179.079 100.961 179.68 102.846C180.281 104.731 181.601 106.303 183.354 107.221C185.107 108.139 187.151 108.328 189.043 107.748C201.316 103.835 214.137 101.85 227.15 101.85C296.24 101.85 352.449 158.059 352.449 227.149C352.449 253.027 344.627 277.863 329.83 298.972C317.015 317.253 299.825 331.606 279.775 340.877C277.728 330.886 276.699 320.714 276.703 310.516V301.146H282.246C284.218 301.114 286.098 300.308 287.481 298.902C288.864 297.496 289.639 295.603 289.639 293.631C289.639 291.659 288.864 289.766 287.481 288.36C286.098 286.954 284.218 286.148 282.246 286.116H276.703V272.133C288.359 269.913 297.2 259.653 297.2 247.36C297.202 243.369 296.25 239.436 294.424 235.888C304.235 232.604 311.329 223.333 311.329 212.43V169.22C311.329 160.837 304.509 154.017 296.126 154.017H276.877C268.494 154.017 261.674 160.837 261.674 169.22V185.271H252.988V169.22C252.988 160.837 246.168 154.017 237.785 154.017H216.517C208.134 154.017 201.314 160.837 201.314 169.22V185.271H192.628V169.22C192.628 160.837 185.808 154.017 177.425 154.017H158.176C149.793 154.017 142.973 160.837 142.973 169.22V212.431C142.973 223.333 150.066 232.605 159.877 235.889C158.051 239.437 157.1 243.371 157.102 247.361C157.102 259.654 165.943 269.914 177.599 272.134V286.117H172.056C170.084 286.149 168.204 286.955 166.821 288.361C165.438 289.767 164.663 291.66 164.663 293.632C164.663 295.604 165.438 297.497 166.821 298.903C168.204 300.309 170.084 301.115 172.056 301.147H177.599V310.517C177.599 320.816 176.558 330.973 174.527 340.878C154.477 331.606 137.287 317.253 124.472 298.973C109.674 277.864 101.853 253.028 101.853 227.15C101.853 205.028 107.693 183.287 118.744 164.278C129.511 145.783 144.807 130.332 163.194 119.381C164.907 118.362 166.145 116.705 166.636 114.773C167.126 112.841 166.83 110.794 165.811 109.081C164.792 107.368 163.135 106.13 161.203 105.639C159.271 105.149 157.224 105.445 155.511 106.464C134.928 118.723 117.804 136.02 105.751 156.725C93.369 178.026 86.824 202.379 86.824 227.151C86.824 256.132 95.587 283.951 112.166 307.601C127.039 328.817 147.185 345.304 170.706 355.632C168.062 364.032 164.679 372.181 160.596 379.984C151.007 375.808 141.832 370.737 133.194 364.839C131.906 363.958 130.376 363.501 128.816 363.529C127.256 363.558 125.743 364.071 124.488 364.998L94.277 387.313C93.1686 388.141 91.7982 388.54 90.4185 388.437C89.0388 388.334 87.743 387.736 86.77 386.752L67.552 367.533C66.5686 366.56 65.9702 365.264 65.8671 363.884C65.764 362.505 66.1632 361.134 66.991 360.026L89.306 329.816C90.2331 328.561 90.7464 327.048 90.7747 325.488C90.8031 323.927 90.3449 322.397 89.464 321.109C76.39 301.988 67.601 280.78 63.343 258.074C63.055 256.54 62.2967 255.134 61.1733 254.051C60.05 252.967 58.6173 252.26 57.074 252.028L19.945 246.447C18.5757 246.248 17.3245 245.561 16.4218 244.513C15.5191 243.464 15.0259 242.125 15.033 240.741V213.56C15.0259 212.177 15.5192 210.837 16.4219 209.789C17.3246 208.74 18.5758 208.054 19.945 207.855L57.075 202.273C58.6184 202.041 60.0514 201.334 61.1748 200.251C62.2982 199.167 63.0564 197.761 63.344 196.227C67.603 173.52 76.391 152.312 89.465 133.192C90.3457 131.904 90.8036 130.373 90.7753 128.813C90.747 127.253 90.2338 125.74 89.307 124.485L66.988 94.275C66.1601 93.1664 65.7609 91.7958 65.864 90.4161C65.9671 89.0363 66.5655 87.7403 67.549 86.767L86.767 67.549C87.7401 66.5653 89.0362 65.9667 90.416 65.8636C91.7959 65.7605 93.1665 66.1599 94.275 66.988L124.485 89.303C125.74 90.23 127.253 90.7434 128.813 90.7719C130.373 90.8004 131.903 90.3426 133.191 89.462C152.311 76.388 173.52 67.599 196.226 63.341C197.76 63.0533 199.166 62.2951 200.25 61.1716C201.333 60.0482 202.04 58.6154 202.272 57.072L207.854 19.942C208.053 18.5728 208.739 17.3216 209.788 16.4189C210.836 15.5162 212.176 15.0229 213.559 15.03H240.738C242.122 15.0229 243.461 15.5161 244.51 16.4188C245.558 17.3215 246.245 18.5727 246.444 19.942L252.025 57.072C252.257 58.6153 252.964 60.048 254.048 61.1713C255.131 62.2947 256.537 63.053 258.071 63.341C280.779 67.6 301.987 76.388 321.107 89.462C322.395 90.3428 323.926 90.8007 325.486 90.7722C327.046 90.7437 328.559 90.2302 329.814 89.303L360.024 66.988C361.133 66.1601 362.503 65.7609 363.883 65.864C365.263 65.9671 366.559 66.5655 367.532 67.549L386.751 86.768C387.734 87.7413 388.333 89.0373 388.436 90.4171C388.539 91.7968 388.14 93.1674 387.312 94.276L364.997 124.487C364.07 125.742 363.557 127.255 363.528 128.815C363.5 130.375 363.957 131.906 364.838 133.194C377.911 152.313 386.7 173.521 390.959 196.229C391.247 197.763 392.005 199.169 393.129 200.252C394.252 201.336 395.685 202.043 397.228 202.275L434.357 207.857C435.726 208.056 436.977 208.742 437.88 209.791C438.783 210.839 439.276 212.179 439.269 213.562V240.739H439.27Z" fill="url(#paint0_linear_1065_325)"/>
<defs>
<linearGradient id="paint0_linear_1065_325" x1="16.2093" y1="33" x2="508.446" y2="534.256" gradientUnits="userSpaceOnUse">
<stop stop-color="#1BA2D7"/>
<stop offset="1" stop-color="#8D3DFA"/>
</linearGradient>
</defs>
</svg>
