<svg width="443" height="412" viewBox="0 0 443 412" fill="none" xmlns="http://www.w3.org/2000/svg">
<path d="M38.5365 19.9258C30.9949 19.9258 24.9062 26.0144 24.9062 33.4869C24.9062 41.0977 30.9257 47.1171 38.5365 47.1171C42.1423 47.1171 45.6004 45.6847 48.1501 43.135C50.6998 40.5854 52.1322 37.1273 52.1322 33.5215C52.1322 29.9157 50.6998 26.4576 48.1501 23.9079C45.6004 21.3582 42.1423 19.9258 38.5365 19.9258ZM38.5365 37.4998C37.4814 37.4998 36.4695 37.0807 35.7234 36.3346C34.9773 35.5885 34.5581 34.5766 34.5581 33.5215C34.5581 32.4663 34.9773 31.4544 35.7234 30.7083C36.4695 29.9622 37.4814 29.5431 38.5365 29.5431C40.7506 29.5431 42.4803 31.2728 42.4803 33.4869C42.4803 35.7701 40.7506 37.4998 38.5365 37.4998ZM69.6717 19.9258C62.13 19.9258 56.0414 26.0144 56.0414 33.4869C56.0414 41.0977 62.0608 47.1171 69.6717 47.1171C77.1441 47.1171 83.2327 41.0285 83.2327 33.4869C83.2146 29.8958 81.78 26.4571 79.2407 23.9178C76.7014 21.3786 73.2627 19.944 69.6717 19.9258ZM69.6717 37.4998C68.6165 37.4998 67.6046 37.0807 66.8585 36.3346C66.1124 35.5885 65.6933 34.5766 65.6933 33.5215C65.6933 32.4663 66.1124 31.4544 66.8585 30.7083C67.6046 29.9622 68.6165 29.5431 69.6717 29.5431C71.8857 29.5431 73.6154 31.2728 73.6154 33.4869C73.6154 35.7701 71.8857 37.4998 69.6717 37.4998ZM100.738 19.9258C93.196 19.9258 87.1073 26.0144 87.1073 33.4869C87.1073 41.0977 93.0576 47.1171 100.738 47.1171C104.343 47.1171 107.802 45.6847 110.351 43.135C112.901 40.5854 114.333 37.1273 114.333 33.5215C114.333 29.9157 112.901 26.4576 110.351 23.9079C107.802 21.3582 104.343 19.9258 100.738 19.9258ZM100.738 37.4998C98.4544 37.4998 96.7246 35.7701 96.7246 33.4869C96.7246 31.2728 98.5235 29.5431 100.738 29.5431C102.952 29.5431 104.681 31.2728 104.681 33.4869C104.7 34.0131 104.612 34.5376 104.421 35.0285C104.231 35.5193 103.942 35.9662 103.573 36.3417C103.204 36.7173 102.762 37.0137 102.274 37.2128C101.787 37.4119 101.264 37.5096 100.738 37.4998ZM287.618 19.9258H136.785C129.728 19.9258 123.916 26.0144 123.916 33.4869C123.916 40.9593 129.659 47.0479 136.785 47.0479H287.618C294.675 47.0479 300.487 40.9593 300.487 33.4869C300.487 26.0144 294.675 19.9258 287.618 19.9258ZM287.618 37.4998H136.785C134.986 37.4998 133.533 35.7009 133.533 33.4869C133.533 31.342 135.055 29.4739 136.785 29.4739H287.618C289.417 29.4739 290.87 31.342 290.87 33.4869C290.87 35.7009 289.417 37.4998 287.618 37.4998Z" fill="white"/>
<path d="M38.5365 19.9258C30.9949 19.9258 24.9062 26.0144 24.9062 33.4869C24.9062 41.0977 30.9257 47.1171 38.5365 47.1171C42.1423 47.1171 45.6004 45.6847 48.1501 43.135C50.6998 40.5854 52.1322 37.1273 52.1322 33.5215C52.1322 29.9157 50.6998 26.4576 48.1501 23.9079C45.6004 21.3582 42.1423 19.9258 38.5365 19.9258ZM38.5365 37.4998C37.4814 37.4998 36.4695 37.0807 35.7234 36.3346C34.9773 35.5885 34.5581 34.5766 34.5581 33.5215C34.5581 32.4663 34.9773 31.4544 35.7234 30.7083C36.4695 29.9622 37.4814 29.5431 38.5365 29.5431C40.7506 29.5431 42.4803 31.2728 42.4803 33.4869C42.4803 35.7701 40.7506 37.4998 38.5365 37.4998ZM69.6717 19.9258C62.13 19.9258 56.0414 26.0144 56.0414 33.4869C56.0414 41.0977 62.0608 47.1171 69.6717 47.1171C77.1441 47.1171 83.2327 41.0285 83.2327 33.4869C83.2146 29.8958 81.78 26.4571 79.2407 23.9178C76.7014 21.3786 73.2627 19.944 69.6717 19.9258ZM69.6717 37.4998C68.6165 37.4998 67.6046 37.0807 66.8585 36.3346C66.1124 35.5885 65.6933 34.5766 65.6933 33.5215C65.6933 32.4663 66.1124 31.4544 66.8585 30.7083C67.6046 29.9622 68.6165 29.5431 69.6717 29.5431C71.8857 29.5431 73.6154 31.2728 73.6154 33.4869C73.6154 35.7701 71.8857 37.4998 69.6717 37.4998ZM100.738 19.9258C93.196 19.9258 87.1073 26.0144 87.1073 33.4869C87.1073 41.0977 93.0576 47.1171 100.738 47.1171C104.343 47.1171 107.802 45.6847 110.351 43.135C112.901 40.5854 114.333 37.1273 114.333 33.5215C114.333 29.9157 112.901 26.4576 110.351 23.9079C107.802 21.3582 104.343 19.9258 100.738 19.9258ZM100.738 37.4998C98.4544 37.4998 96.7246 35.7701 96.7246 33.4869C96.7246 31.2728 98.5235 29.5431 100.738 29.5431C102.952 29.5431 104.681 31.2728 104.681 33.4869C104.7 34.0131 104.612 34.5376 104.421 35.0285C104.231 35.5193 103.942 35.9662 103.573 36.3417C103.204 36.7173 102.762 37.0137 102.274 37.2128C101.787 37.4119 101.264 37.5096 100.738 37.4998ZM287.618 19.9258H136.785C129.728 19.9258 123.916 26.0144 123.916 33.4869C123.916 40.9593 129.659 47.0479 136.785 47.0479H287.618C294.675 47.0479 300.487 40.9593 300.487 33.4869C300.487 26.0144 294.675 19.9258 287.618 19.9258ZM287.618 37.4998H136.785C134.986 37.4998 133.533 35.7009 133.533 33.4869C133.533 31.342 135.055 29.4739 136.785 29.4739H287.618C289.417 29.4739 290.87 31.342 290.87 33.4869C290.87 35.7009 289.417 37.4998 287.618 37.4998Z" fill="url(#paint0_linear_1065_331)"/>
<path d="M442.742 360.199L436.93 243.131C439.282 220.506 432.363 198.85 417.28 182.037C402.335 165.362 380.886 155.745 358.538 155.745C347.053 155.745 335.706 158.305 325.328 163.148V30.7892C325.328 13.8378 311.49 0 294.538 0H30.7892C13.8378 0 0 13.7686 0 30.7892V237.181C0 254.132 13.8378 267.97 30.7892 267.97H119.905L115.338 360.199C114.736 371.715 118.257 383.068 125.269 392.223C132.281 401.378 142.325 407.735 153.6 410.154C157.129 410.915 160.519 411.261 163.84 411.261C183.905 411.261 201.617 399.222 209.021 380.61L219.607 355.563C221.129 355.84 222.651 355.978 224.173 355.978C228.394 355.978 232.614 355.01 236.489 353.072C239.765 351.455 242.687 349.203 245.086 346.448C247.485 343.692 249.313 340.488 250.465 337.021C254.824 324.013 248.943 310.037 237.181 303.741C241.055 301.596 244.791 299.174 248.251 296.406C256.692 289.764 266.24 286.236 275.857 286.236H281.046C291.286 286.236 301.457 289.972 310.521 297.029C313.842 299.589 317.371 301.803 320.969 303.81C315.202 306.915 310.715 311.954 308.297 318.042C305.88 324.129 305.688 330.874 307.754 337.09C308.905 340.557 310.733 343.761 313.133 346.517C315.532 349.272 318.454 351.524 321.73 353.142C325.604 355.079 329.825 356.048 334.045 356.048C335.568 356.048 337.09 355.909 338.612 355.632L349.129 380.61C352.689 389.685 358.907 397.474 366.969 402.956C375.031 408.437 384.56 411.356 394.309 411.33C397.63 411.33 401.09 410.984 404.618 410.223C415.861 407.738 425.86 401.349 432.839 392.191C439.819 383.033 443.327 371.698 442.742 360.199ZM9.6173 30.7892C9.6173 25.1741 11.8479 19.7889 15.8184 15.8184C19.7889 11.8479 25.1741 9.6173 30.7892 9.6173H294.608C297.388 9.6173 300.141 10.1649 302.71 11.2289C305.278 12.2929 307.612 13.8524 309.578 15.8184C311.544 17.7844 313.104 20.1184 314.168 22.6871C315.232 25.2557 315.779 28.0089 315.779 30.7892V57.4962H9.6173V30.7892ZM120.389 258.352H30.7892C25.1741 258.352 19.7889 256.122 15.8184 252.151C11.8479 248.181 9.6173 242.796 9.6173 237.181V67.0443H315.849V168.337C313.773 169.652 311.766 171.105 309.829 172.627C307.961 174.08 306.024 175.395 304.086 176.571C302.011 164.601 291.702 155.468 279.178 155.468C266.724 155.468 256.346 164.532 254.27 176.432C252.056 175.187 249.842 173.734 247.697 172.074C242.646 168.199 237.25 165.085 231.576 162.525C230.954 141.077 223.827 126.132 207.291 111.81C200.528 105.932 192.669 101.451 184.167 98.6246C175.665 95.7984 166.687 94.683 157.751 95.3427C148.809 95.9657 140.078 98.3528 132.062 102.367C124.046 106.38 116.905 111.941 111.049 118.729C99.1481 132.497 93.613 150.141 95.5503 168.545C97.4876 187.503 107.243 204.8 122.88 217.669C119.005 233.859 120.389 258.352 120.389 258.352ZM294.815 180.653C290.664 181.968 286.443 182.798 282.223 182.798H277.034C272.398 182.798 267.831 181.968 263.265 180.445C263.371 176.327 265.078 172.412 268.023 169.531C270.968 166.651 274.92 165.031 279.04 165.016C287.689 165.085 294.677 172.074 294.815 180.653ZM156.16 127.239C154.038 125.869 151.581 125.107 149.057 125.033C146.532 124.96 144.036 125.579 141.838 126.824C139.62 128.021 137.772 129.8 136.491 131.971C135.211 134.141 134.548 136.62 134.573 139.139V189.855C130.837 195.321 127.931 201.341 125.648 207.706C113.816 196.843 106.482 182.867 104.96 167.715C103.369 151.939 108.004 136.856 118.175 125.094C123.198 119.249 129.332 114.459 136.221 111.003C143.11 107.547 150.616 105.493 158.305 104.96C173.942 103.784 189.025 108.835 200.925 119.144C214.348 130.768 220.506 142.391 221.751 158.997C215.594 157.198 209.297 156.091 202.863 155.814L156.16 127.239ZM186.119 156.921C169.859 159.619 155.33 167.438 144.121 178.577V139.139C144.121 136.718 145.782 135.611 146.474 135.196C147.165 134.781 149.034 134.019 151.109 135.403L186.119 156.921ZM200.164 376.943C193.245 394.448 175.602 404.895 155.606 400.744C146.551 398.799 138.485 393.691 132.855 386.337C127.226 378.983 124.4 369.863 124.886 360.614L129.384 270.253C132.428 276.203 136.095 281.808 140.592 286.858C155.537 303.671 177.055 313.289 199.542 313.289C199.957 313.289 200.303 313.219 200.718 313.219C199.542 315.088 198.504 317.025 197.743 319.239C195.39 326.296 195.875 333.838 199.196 340.48C201.756 345.531 205.63 349.613 210.474 352.311L200.164 376.943ZM241.332 333.907C239.81 338.543 236.558 342.279 232.199 344.424C227.84 346.569 222.928 346.915 218.292 345.392C213.725 343.87 209.989 340.618 207.775 336.259C205.63 331.901 205.284 326.988 206.806 322.352C208.675 316.817 212.964 312.874 218.015 311.075C218.915 310.867 219.745 310.59 220.644 310.383C223.619 309.829 226.733 309.898 229.847 310.936C239.395 314.05 244.515 324.428 241.332 333.907ZM316.333 289.418C305.539 281.047 293.362 276.618 280.977 276.618H275.788C264.026 276.618 252.471 280.839 242.301 288.865C230.131 298.508 215.069 303.772 199.542 303.81C179.754 303.81 160.934 295.369 147.788 280.562C134.504 265.617 128.484 246.314 130.837 226.318C132.221 214.763 136.441 204.039 142.806 194.906C148.08 187.302 154.839 180.843 162.675 175.921C170.511 170.998 179.262 167.712 188.402 166.262C207.637 163.286 226.595 168.061 241.816 179.754C252.61 188.056 264.787 192.484 277.172 192.484H282.361C294.192 192.484 305.816 188.264 315.849 180.238C327.957 170.69 343.248 165.362 358.746 165.362C378.396 165.362 397.215 173.803 410.361 188.471C423.645 203.347 429.803 222.582 427.589 242.646C424.199 272.882 399.983 298.205 370.024 302.979C360.752 304.432 351.619 304.017 342.902 302.011C341.864 301.665 340.757 301.388 339.65 301.111C331.139 298.621 323.321 294.815 316.333 289.418ZM339.788 345.392C337.522 346.164 335.125 346.476 332.737 346.31C330.349 346.144 328.018 345.502 325.881 344.424C321.522 342.279 318.27 338.543 316.748 333.907C313.565 324.428 318.685 314.05 328.234 310.867C330.486 310.086 332.873 309.768 335.252 309.935C337.63 310.101 339.95 310.748 342.071 311.836C344.211 312.894 346.121 314.364 347.69 316.163C349.26 317.961 350.458 320.052 351.217 322.316C351.976 324.579 352.28 326.97 352.111 329.351C351.943 331.732 351.305 334.056 350.236 336.19C348.091 340.618 344.355 343.87 339.788 345.392ZM402.474 400.813C399.637 401.436 396.8 401.712 394.171 401.712C378.05 401.712 363.866 392.026 357.847 376.943L347.537 352.45C352.381 349.751 356.324 345.669 358.815 340.618C362.136 333.976 362.69 326.435 360.268 319.377C359.507 317.232 358.469 315.226 357.293 313.358C357.708 313.358 358.123 313.427 358.469 313.427C362.69 313.427 366.979 313.081 371.269 312.458C396.454 308.515 417.488 292.394 428.627 270.53L433.124 360.822C434.162 379.779 421.224 396.662 402.474 400.813Z" fill="white"/>
<path d="M442.742 360.199L436.93 243.131C439.282 220.506 432.363 198.85 417.28 182.037C402.335 165.362 380.886 155.745 358.538 155.745C347.053 155.745 335.706 158.305 325.328 163.148V30.7892C325.328 13.8378 311.49 0 294.538 0H30.7892C13.8378 0 0 13.7686 0 30.7892V237.181C0 254.132 13.8378 267.97 30.7892 267.97H119.905L115.338 360.199C114.736 371.715 118.257 383.068 125.269 392.223C132.281 401.378 142.325 407.735 153.6 410.154C157.129 410.915 160.519 411.261 163.84 411.261C183.905 411.261 201.617 399.222 209.021 380.61L219.607 355.563C221.129 355.84 222.651 355.978 224.173 355.978C228.394 355.978 232.614 355.01 236.489 353.072C239.765 351.455 242.687 349.203 245.086 346.448C247.485 343.692 249.313 340.488 250.465 337.021C254.824 324.013 248.943 310.037 237.181 303.741C241.055 301.596 244.791 299.174 248.251 296.406C256.692 289.764 266.24 286.236 275.857 286.236H281.046C291.286 286.236 301.457 289.972 310.521 297.029C313.842 299.589 317.371 301.803 320.969 303.81C315.202 306.915 310.715 311.954 308.297 318.042C305.88 324.129 305.688 330.874 307.754 337.09C308.905 340.557 310.733 343.761 313.133 346.517C315.532 349.272 318.454 351.524 321.73 353.142C325.604 355.079 329.825 356.048 334.045 356.048C335.568 356.048 337.09 355.909 338.612 355.632L349.129 380.61C352.689 389.685 358.907 397.474 366.969 402.956C375.031 408.437 384.56 411.356 394.309 411.33C397.63 411.33 401.09 410.984 404.618 410.223C415.861 407.738 425.86 401.349 432.839 392.191C439.819 383.033 443.327 371.698 442.742 360.199ZM9.6173 30.7892C9.6173 25.1741 11.8479 19.7889 15.8184 15.8184C19.7889 11.8479 25.1741 9.6173 30.7892 9.6173H294.608C297.388 9.6173 300.141 10.1649 302.71 11.2289C305.278 12.2929 307.612 13.8524 309.578 15.8184C311.544 17.7844 313.104 20.1184 314.168 22.6871C315.232 25.2557 315.779 28.0089 315.779 30.7892V57.4962H9.6173V30.7892ZM120.389 258.352H30.7892C25.1741 258.352 19.7889 256.122 15.8184 252.151C11.8479 248.181 9.6173 242.796 9.6173 237.181V67.0443H315.849V168.337C313.773 169.652 311.766 171.105 309.829 172.627C307.961 174.08 306.024 175.395 304.086 176.571C302.011 164.601 291.702 155.468 279.178 155.468C266.724 155.468 256.346 164.532 254.27 176.432C252.056 175.187 249.842 173.734 247.697 172.074C242.646 168.199 237.25 165.085 231.576 162.525C230.954 141.077 223.827 126.132 207.291 111.81C200.528 105.932 192.669 101.451 184.167 98.6246C175.665 95.7984 166.687 94.683 157.751 95.3427C148.809 95.9657 140.078 98.3528 132.062 102.367C124.046 106.38 116.905 111.941 111.049 118.729C99.1481 132.497 93.613 150.141 95.5503 168.545C97.4876 187.503 107.243 204.8 122.88 217.669C119.005 233.859 120.389 258.352 120.389 258.352ZM294.815 180.653C290.664 181.968 286.443 182.798 282.223 182.798H277.034C272.398 182.798 267.831 181.968 263.265 180.445C263.371 176.327 265.078 172.412 268.023 169.531C270.968 166.651 274.92 165.031 279.04 165.016C287.689 165.085 294.677 172.074 294.815 180.653ZM156.16 127.239C154.038 125.869 151.581 125.107 149.057 125.033C146.532 124.96 144.036 125.579 141.838 126.824C139.62 128.021 137.772 129.8 136.491 131.971C135.211 134.141 134.548 136.62 134.573 139.139V189.855C130.837 195.321 127.931 201.341 125.648 207.706C113.816 196.843 106.482 182.867 104.96 167.715C103.369 151.939 108.004 136.856 118.175 125.094C123.198 119.249 129.332 114.459 136.221 111.003C143.11 107.547 150.616 105.493 158.305 104.96C173.942 103.784 189.025 108.835 200.925 119.144C214.348 130.768 220.506 142.391 221.751 158.997C215.594 157.198 209.297 156.091 202.863 155.814L156.16 127.239ZM186.119 156.921C169.859 159.619 155.33 167.438 144.121 178.577V139.139C144.121 136.718 145.782 135.611 146.474 135.196C147.165 134.781 149.034 134.019 151.109 135.403L186.119 156.921ZM200.164 376.943C193.245 394.448 175.602 404.895 155.606 400.744C146.551 398.799 138.485 393.691 132.855 386.337C127.226 378.983 124.4 369.863 124.886 360.614L129.384 270.253C132.428 276.203 136.095 281.808 140.592 286.858C155.537 303.671 177.055 313.289 199.542 313.289C199.957 313.289 200.303 313.219 200.718 313.219C199.542 315.088 198.504 317.025 197.743 319.239C195.39 326.296 195.875 333.838 199.196 340.48C201.756 345.531 205.63 349.613 210.474 352.311L200.164 376.943ZM241.332 333.907C239.81 338.543 236.558 342.279 232.199 344.424C227.84 346.569 222.928 346.915 218.292 345.392C213.725 343.87 209.989 340.618 207.775 336.259C205.63 331.901 205.284 326.988 206.806 322.352C208.675 316.817 212.964 312.874 218.015 311.075C218.915 310.867 219.745 310.59 220.644 310.383C223.619 309.829 226.733 309.898 229.847 310.936C239.395 314.05 244.515 324.428 241.332 333.907ZM316.333 289.418C305.539 281.047 293.362 276.618 280.977 276.618H275.788C264.026 276.618 252.471 280.839 242.301 288.865C230.131 298.508 215.069 303.772 199.542 303.81C179.754 303.81 160.934 295.369 147.788 280.562C134.504 265.617 128.484 246.314 130.837 226.318C132.221 214.763 136.441 204.039 142.806 194.906C148.08 187.302 154.839 180.843 162.675 175.921C170.511 170.998 179.262 167.712 188.402 166.262C207.637 163.286 226.595 168.061 241.816 179.754C252.61 188.056 264.787 192.484 277.172 192.484H282.361C294.192 192.484 305.816 188.264 315.849 180.238C327.957 170.69 343.248 165.362 358.746 165.362C378.396 165.362 397.215 173.803 410.361 188.471C423.645 203.347 429.803 222.582 427.589 242.646C424.199 272.882 399.983 298.205 370.024 302.979C360.752 304.432 351.619 304.017 342.902 302.011C341.864 301.665 340.757 301.388 339.65 301.111C331.139 298.621 323.321 294.815 316.333 289.418ZM339.788 345.392C337.522 346.164 335.125 346.476 332.737 346.31C330.349 346.144 328.018 345.502 325.881 344.424C321.522 342.279 318.27 338.543 316.748 333.907C313.565 324.428 318.685 314.05 328.234 310.867C330.486 310.086 332.873 309.768 335.252 309.935C337.63 310.101 339.95 310.748 342.071 311.836C344.211 312.894 346.121 314.364 347.69 316.163C349.26 317.961 350.458 320.052 351.217 322.316C351.976 324.579 352.28 326.97 352.111 329.351C351.943 331.732 351.305 334.056 350.236 336.19C348.091 340.618 344.355 343.87 339.788 345.392ZM402.474 400.813C399.637 401.436 396.8 401.712 394.171 401.712C378.05 401.712 363.866 392.026 357.847 376.943L347.537 352.45C352.381 349.751 356.324 345.669 358.815 340.618C362.136 333.976 362.69 326.435 360.268 319.377C359.507 317.232 358.469 315.226 357.293 313.358C357.708 313.358 358.123 313.427 358.469 313.427C362.69 313.427 366.979 313.081 371.269 312.458C396.454 308.515 417.488 292.394 428.627 270.53L433.124 360.822C434.162 379.779 421.224 396.662 402.474 400.813Z" fill="url(#paint1_linear_1065_331)"/>
<path d="M358.609 221.405C369.679 221.405 378.674 212.41 378.674 201.271C378.674 190.131 369.679 181.137 358.609 181.137C347.539 181.137 338.544 190.131 338.544 201.271C338.544 212.41 347.469 221.405 358.609 221.405ZM358.609 190.754C360.012 190.718 361.409 190.962 362.716 191.474C364.023 191.986 365.215 192.754 366.22 193.734C367.226 194.713 368.025 195.884 368.571 197.177C369.117 198.471 369.398 199.86 369.399 201.264C369.399 202.668 369.119 204.057 368.574 205.351C368.029 206.644 367.23 207.816 366.225 208.796C365.22 209.776 364.029 210.545 362.722 211.058C361.415 211.57 360.019 211.816 358.616 211.781C355.874 211.711 353.268 210.574 351.353 208.61C349.438 206.647 348.366 204.013 348.365 201.271C348.364 198.528 349.435 195.894 351.348 193.929C353.262 191.965 355.867 190.825 358.609 190.754ZM358.609 288.034C369.679 288.034 378.674 279.039 378.674 267.9C378.674 256.761 369.679 247.766 358.609 247.766C347.539 247.766 338.544 256.761 338.544 267.9C338.544 279.039 347.469 288.034 358.609 288.034ZM358.609 257.383C360.012 257.347 361.409 257.592 362.716 258.103C364.023 258.615 365.215 259.383 366.22 260.363C367.226 261.342 368.025 262.513 368.571 263.806C369.117 265.1 369.398 266.489 369.399 267.893C369.399 269.297 369.119 270.686 368.574 271.98C368.029 273.274 367.23 274.445 366.225 275.425C365.22 276.405 364.029 277.174 362.722 277.687C361.415 278.2 360.019 278.445 358.616 278.41C355.874 278.34 353.268 277.203 351.353 275.239C349.438 273.276 348.366 270.642 348.365 267.9C348.364 265.157 349.435 262.523 351.348 260.558C353.262 258.594 355.867 257.454 358.609 257.383ZM371.755 234.62C371.755 245.69 380.749 254.685 391.82 254.685C402.89 254.685 411.885 245.69 411.885 234.62C411.885 223.55 402.89 214.486 391.82 214.486C380.749 214.486 371.755 223.55 371.755 234.62ZM391.889 224.103C393.292 224.067 394.689 224.312 395.996 224.823C397.303 225.335 398.495 226.103 399.5 227.083C400.506 228.062 401.305 229.233 401.851 230.526C402.397 231.82 402.678 233.209 402.679 234.613C402.679 236.017 402.399 237.406 401.854 238.7C401.309 239.994 400.51 241.165 399.505 242.145C398.5 243.125 397.309 243.894 396.002 244.407C394.695 244.92 393.299 245.165 391.896 245.13C389.154 245.06 386.548 243.923 384.633 241.959C382.718 239.996 381.646 237.362 381.645 234.62C381.644 231.877 382.715 229.243 384.628 227.278C386.542 225.314 389.147 224.174 391.889 224.103ZM345.394 234.62C345.394 223.55 336.399 214.486 325.329 214.486C314.259 214.486 305.264 223.481 305.264 234.62C305.264 245.759 314.259 254.685 325.329 254.685C336.399 254.685 345.394 245.69 345.394 234.62ZM325.26 245.137C323.856 245.173 322.46 244.928 321.153 244.417C319.846 243.905 318.654 243.137 317.649 242.157C316.643 241.178 315.844 240.007 315.298 238.713C314.752 237.42 314.47 236.031 314.47 234.627C314.469 233.223 314.75 231.834 315.295 230.54C315.84 229.246 316.639 228.075 317.644 227.095C318.649 226.115 319.84 225.346 321.146 224.833C322.453 224.32 323.849 224.075 325.253 224.11C327.994 224.18 330.601 225.317 332.515 227.281C334.43 229.244 335.502 231.878 335.503 234.62C335.504 237.363 334.434 239.997 332.52 241.962C330.607 243.926 328.001 245.065 325.26 245.137ZM183.353 216.354L194.077 223.688C195.668 224.795 197.606 225.349 199.474 225.349C201.342 225.349 203.279 224.795 204.871 223.688L215.595 216.354C218.224 214.555 219.815 211.58 219.815 208.397V195.666C219.815 190.339 215.526 186.049 210.198 186.049H188.749C183.422 186.049 179.132 190.339 179.132 195.666V208.397C179.132 211.58 180.724 214.555 183.353 216.354ZM188.749 195.597H210.267V208.397L199.474 215.731L188.749 208.397V195.597ZM215.595 251.295L204.871 243.961C201.619 241.746 197.26 241.746 194.077 243.961L183.353 251.295C180.724 253.093 179.132 256.069 179.132 259.251V271.982C179.132 277.31 183.422 281.599 188.749 281.599H210.198C215.526 281.599 219.815 277.31 219.815 271.982V259.251C219.815 256.069 218.224 253.093 215.595 251.295ZM210.198 272.051H188.749V259.251L199.543 251.917L210.267 259.251L210.198 272.051ZM237.666 213.517H224.866C221.684 213.517 218.708 215.109 216.909 217.738L209.575 228.462C207.361 231.714 207.361 236.004 209.575 239.256L216.909 249.98C218.708 252.609 221.684 254.131 224.866 254.131H237.597C242.855 254.131 247.214 249.842 247.214 244.514V223.065C247.284 217.807 242.925 213.517 237.666 213.517ZM237.666 249.357V244.583H224.866L217.532 233.79L224.866 223.065H237.666V249.357ZM181.969 249.98L189.303 239.256C191.517 236.004 191.517 231.714 189.303 228.393L181.969 217.669C180.17 215.039 177.195 213.448 174.012 213.448H161.281C156.023 213.448 151.664 217.738 151.664 223.065V244.514C151.664 249.842 155.954 254.131 161.281 254.131H174.012C177.264 254.2 180.17 252.609 181.969 249.98ZM161.281 244.583V223.065H174.081L181.415 233.859L174.081 244.583H161.281ZM296.269 196.497H261.744C259.115 196.497 256.97 198.642 256.97 201.271C256.97 203.9 259.115 206.045 261.744 206.045H296.269C298.899 206.045 301.044 203.9 301.044 201.271C301.113 198.642 298.968 196.497 296.269 196.497ZM296.269 211.026H261.744C259.115 211.026 256.97 213.171 256.97 215.801C256.97 218.43 259.115 220.575 261.744 220.575H296.269C298.899 220.575 301.044 218.43 301.044 215.801C301.113 213.171 298.968 211.026 296.269 211.026ZM296.269 225.556H261.744C259.115 225.556 256.97 227.701 256.97 230.33C256.97 232.959 259.115 235.104 261.744 235.104H296.269C298.899 235.104 301.044 232.959 301.044 230.33C301.044 227.701 298.968 225.556 296.269 225.556Z" fill="white"/>
<path d="M358.609 221.405C369.679 221.405 378.674 212.41 378.674 201.271C378.674 190.131 369.679 181.137 358.609 181.137C347.539 181.137 338.544 190.131 338.544 201.271C338.544 212.41 347.469 221.405 358.609 221.405ZM358.609 190.754C360.012 190.718 361.409 190.962 362.716 191.474C364.023 191.986 365.215 192.754 366.22 193.734C367.226 194.713 368.025 195.884 368.571 197.177C369.117 198.471 369.398 199.86 369.399 201.264C369.399 202.668 369.119 204.057 368.574 205.351C368.029 206.644 367.23 207.816 366.225 208.796C365.22 209.776 364.029 210.545 362.722 211.058C361.415 211.57 360.019 211.816 358.616 211.781C355.874 211.711 353.268 210.574 351.353 208.61C349.438 206.647 348.366 204.013 348.365 201.271C348.364 198.528 349.435 195.894 351.348 193.929C353.262 191.965 355.867 190.825 358.609 190.754ZM358.609 288.034C369.679 288.034 378.674 279.039 378.674 267.9C378.674 256.761 369.679 247.766 358.609 247.766C347.539 247.766 338.544 256.761 338.544 267.9C338.544 279.039 347.469 288.034 358.609 288.034ZM358.609 257.383C360.012 257.347 361.409 257.592 362.716 258.103C364.023 258.615 365.215 259.383 366.22 260.363C367.226 261.342 368.025 262.513 368.571 263.806C369.117 265.1 369.398 266.489 369.399 267.893C369.399 269.297 369.119 270.686 368.574 271.98C368.029 273.274 367.23 274.445 366.225 275.425C365.22 276.405 364.029 277.174 362.722 277.687C361.415 278.2 360.019 278.445 358.616 278.41C355.874 278.34 353.268 277.203 351.353 275.239C349.438 273.276 348.366 270.642 348.365 267.9C348.364 265.157 349.435 262.523 351.348 260.558C353.262 258.594 355.867 257.454 358.609 257.383ZM371.755 234.62C371.755 245.69 380.749 254.685 391.82 254.685C402.89 254.685 411.885 245.69 411.885 234.62C411.885 223.55 402.89 214.486 391.82 214.486C380.749 214.486 371.755 223.55 371.755 234.62ZM391.889 224.103C393.292 224.067 394.689 224.312 395.996 224.823C397.303 225.335 398.495 226.103 399.5 227.083C400.506 228.062 401.305 229.233 401.851 230.526C402.397 231.82 402.678 233.209 402.679 234.613C402.679 236.017 402.399 237.406 401.854 238.7C401.309 239.994 400.51 241.165 399.505 242.145C398.5 243.125 397.309 243.894 396.002 244.407C394.695 244.92 393.299 245.165 391.896 245.13C389.154 245.06 386.548 243.923 384.633 241.959C382.718 239.996 381.646 237.362 381.645 234.62C381.644 231.877 382.715 229.243 384.628 227.278C386.542 225.314 389.147 224.174 391.889 224.103ZM345.394 234.62C345.394 223.55 336.399 214.486 325.329 214.486C314.259 214.486 305.264 223.481 305.264 234.62C305.264 245.759 314.259 254.685 325.329 254.685C336.399 254.685 345.394 245.69 345.394 234.62ZM325.26 245.137C323.856 245.173 322.46 244.928 321.153 244.417C319.846 243.905 318.654 243.137 317.649 242.157C316.643 241.178 315.844 240.007 315.298 238.713C314.752 237.42 314.47 236.031 314.47 234.627C314.469 233.223 314.75 231.834 315.295 230.54C315.84 229.246 316.639 228.075 317.644 227.095C318.649 226.115 319.84 225.346 321.146 224.833C322.453 224.32 323.849 224.075 325.253 224.11C327.994 224.18 330.601 225.317 332.515 227.281C334.43 229.244 335.502 231.878 335.503 234.62C335.504 237.363 334.434 239.997 332.52 241.962C330.607 243.926 328.001 245.065 325.26 245.137ZM183.353 216.354L194.077 223.688C195.668 224.795 197.606 225.349 199.474 225.349C201.342 225.349 203.279 224.795 204.871 223.688L215.595 216.354C218.224 214.555 219.815 211.58 219.815 208.397V195.666C219.815 190.339 215.526 186.049 210.198 186.049H188.749C183.422 186.049 179.132 190.339 179.132 195.666V208.397C179.132 211.58 180.724 214.555 183.353 216.354ZM188.749 195.597H210.267V208.397L199.474 215.731L188.749 208.397V195.597ZM215.595 251.295L204.871 243.961C201.619 241.746 197.26 241.746 194.077 243.961L183.353 251.295C180.724 253.093 179.132 256.069 179.132 259.251V271.982C179.132 277.31 183.422 281.599 188.749 281.599H210.198C215.526 281.599 219.815 277.31 219.815 271.982V259.251C219.815 256.069 218.224 253.093 215.595 251.295ZM210.198 272.051H188.749V259.251L199.543 251.917L210.267 259.251L210.198 272.051ZM237.666 213.517H224.866C221.684 213.517 218.708 215.109 216.909 217.738L209.575 228.462C207.361 231.714 207.361 236.004 209.575 239.256L216.909 249.98C218.708 252.609 221.684 254.131 224.866 254.131H237.597C242.855 254.131 247.214 249.842 247.214 244.514V223.065C247.284 217.807 242.925 213.517 237.666 213.517ZM237.666 249.357V244.583H224.866L217.532 233.79L224.866 223.065H237.666V249.357ZM181.969 249.98L189.303 239.256C191.517 236.004 191.517 231.714 189.303 228.393L181.969 217.669C180.17 215.039 177.195 213.448 174.012 213.448H161.281C156.023 213.448 151.664 217.738 151.664 223.065V244.514C151.664 249.842 155.954 254.131 161.281 254.131H174.012C177.264 254.2 180.17 252.609 181.969 249.98ZM161.281 244.583V223.065H174.081L181.415 233.859L174.081 244.583H161.281ZM296.269 196.497H261.744C259.115 196.497 256.97 198.642 256.97 201.271C256.97 203.9 259.115 206.045 261.744 206.045H296.269C298.899 206.045 301.044 203.9 301.044 201.271C301.113 198.642 298.968 196.497 296.269 196.497ZM296.269 211.026H261.744C259.115 211.026 256.97 213.171 256.97 215.801C256.97 218.43 259.115 220.575 261.744 220.575H296.269C298.899 220.575 301.044 218.43 301.044 215.801C301.113 213.171 298.968 211.026 296.269 211.026ZM296.269 225.556H261.744C259.115 225.556 256.97 227.701 256.97 230.33C256.97 232.959 259.115 235.104 261.744 235.104H296.269C298.899 235.104 301.044 232.959 301.044 230.33C301.044 227.701 298.968 225.556 296.269 225.556Z" fill="url(#paint2_linear_1065_331)"/>
<defs>
<linearGradient id="paint0_linear_1065_331" x1="34.7389" y1="21.6784" x2="39.2017" y2="73.587" gradientUnits="userSpaceOnUse">
<stop stop-color="#1BA2D7"/>
<stop offset="1" stop-color="#8D3DFA"/>
</linearGradient>
<linearGradient id="paint1_linear_1065_331" x1="15.7992" y1="26.5116" x2="402.637" y2="504.44" gradientUnits="userSpaceOnUse">
<stop stop-color="#1BA2D7"/>
<stop offset="1" stop-color="#8D3DFA"/>
</linearGradient>
<linearGradient id="paint2_linear_1065_331" x1="160.949" y1="188.027" x2="226.176" y2="370.255" gradientUnits="userSpaceOnUse">
<stop stop-color="#1BA2D7"/>
<stop offset="1" stop-color="#8D3DFA"/>
</linearGradient>
</defs>
</svg>
