<svg width="480" height="480" viewBox="0 0 480 480" fill="none" xmlns="http://www.w3.org/2000/svg">
<path d="M440 32H392V24C392 17.6348 389.471 11.5303 384.971 7.02944C380.47 2.52856 374.365 0 368 0C361.635 0 355.53 2.52856 351.029 7.02944C346.529 11.5303 344 17.6348 344 24V32H264V24C264 17.6348 261.471 11.5303 256.971 7.02944C252.47 2.52856 246.365 0 240 0C233.635 0 227.53 2.52856 223.029 7.02944C218.529 11.5303 216 17.6348 216 24V32H136V24C136 17.6348 133.471 11.5303 128.971 7.02944C124.47 2.52856 118.365 0 112 0C105.635 0 99.5303 2.52856 95.0294 7.02944C90.5286 11.5303 88 17.6348 88 24V32H40C29.395 32.0119 19.2278 36.23 11.7289 43.7289C4.23001 51.2278 0.0119105 61.395 0 72V440C0.0119105 450.605 4.23001 460.772 11.7289 468.271C19.2278 475.77 29.395 479.988 40 480H440C450.605 479.988 460.772 475.77 468.271 468.271C475.77 460.772 479.988 450.605 480 440V72C479.988 61.395 475.77 51.2278 468.271 43.7289C460.772 36.23 450.605 32.0119 440 32ZM360 24C360 21.8783 360.843 19.8434 362.343 18.3431C363.843 16.8429 365.878 16 368 16C370.122 16 372.157 16.8429 373.657 18.3431C375.157 19.8434 376 21.8783 376 24V72C376 74.1217 375.157 76.1566 373.657 77.6569C372.157 79.1571 370.122 80 368 80C365.878 80 363.843 79.1571 362.343 77.6569C360.843 76.1566 360 74.1217 360 72V24ZM232 24C232 21.8783 232.843 19.8434 234.343 18.3431C235.843 16.8429 237.878 16 240 16C242.122 16 244.157 16.8429 245.657 18.3431C247.157 19.8434 248 21.8783 248 24V72C248 74.1217 247.157 76.1566 245.657 77.6569C244.157 79.1571 242.122 80 240 80C237.878 80 235.843 79.1571 234.343 77.6569C232.843 76.1566 232 74.1217 232 72V24ZM104 24C104 21.8783 104.843 19.8434 106.343 18.3431C107.843 16.8429 109.878 16 112 16C114.122 16 116.157 16.8429 117.657 18.3431C119.157 19.8434 120 21.8783 120 24V72C120 74.1217 119.157 76.1566 117.657 77.6569C116.157 79.1571 114.122 80 112 80C109.878 80 107.843 79.1571 106.343 77.6569C104.843 76.1566 104 74.1217 104 72V24ZM40 48H88V72C88 78.3652 90.5286 84.4697 95.0294 88.9706C99.5303 93.4714 105.635 96 112 96C118.365 96 124.47 93.4714 128.971 88.9706C133.471 84.4697 136 78.3652 136 72V48H216V72C216 78.3652 218.529 84.4697 223.029 88.9706C227.53 93.4714 233.635 96 240 96C246.365 96 252.47 93.4714 256.971 88.9706C261.471 84.4697 264 78.3652 264 72V48H344V72C344 78.3652 346.529 84.4697 351.029 88.9706C355.53 93.4714 361.635 96 368 96C374.365 96 380.47 93.4714 384.971 88.9706C389.471 84.4697 392 78.3652 392 72V48H440C446.363 48.0074 452.463 50.5384 456.962 55.0376C461.462 59.5369 463.993 65.6371 464 72V128H16V72C16.0074 65.6371 18.5384 59.5369 23.0376 55.0376C27.5369 50.5384 33.6371 48.0074 40 48ZM440 464H40C33.6371 463.993 27.5369 461.462 23.0376 456.962C18.5384 452.463 16.0074 446.363 16 440V144H464V440C463.993 446.363 461.462 452.463 456.962 456.962C452.463 461.462 446.363 463.993 440 464Z" fill="white"/>
<path d="M440 32H392V24C392 17.6348 389.471 11.5303 384.971 7.02944C380.47 2.52856 374.365 0 368 0C361.635 0 355.53 2.52856 351.029 7.02944C346.529 11.5303 344 17.6348 344 24V32H264V24C264 17.6348 261.471 11.5303 256.971 7.02944C252.47 2.52856 246.365 0 240 0C233.635 0 227.53 2.52856 223.029 7.02944C218.529 11.5303 216 17.6348 216 24V32H136V24C136 17.6348 133.471 11.5303 128.971 7.02944C124.47 2.52856 118.365 0 112 0C105.635 0 99.5303 2.52856 95.0294 7.02944C90.5286 11.5303 88 17.6348 88 24V32H40C29.395 32.0119 19.2278 36.23 11.7289 43.7289C4.23001 51.2278 0.0119105 61.395 0 72V440C0.0119105 450.605 4.23001 460.772 11.7289 468.271C19.2278 475.77 29.395 479.988 40 480H440C450.605 479.988 460.772 475.77 468.271 468.271C475.77 460.772 479.988 450.605 480 440V72C479.988 61.395 475.77 51.2278 468.271 43.7289C460.772 36.23 450.605 32.0119 440 32ZM360 24C360 21.8783 360.843 19.8434 362.343 18.3431C363.843 16.8429 365.878 16 368 16C370.122 16 372.157 16.8429 373.657 18.3431C375.157 19.8434 376 21.8783 376 24V72C376 74.1217 375.157 76.1566 373.657 77.6569C372.157 79.1571 370.122 80 368 80C365.878 80 363.843 79.1571 362.343 77.6569C360.843 76.1566 360 74.1217 360 72V24ZM232 24C232 21.8783 232.843 19.8434 234.343 18.3431C235.843 16.8429 237.878 16 240 16C242.122 16 244.157 16.8429 245.657 18.3431C247.157 19.8434 248 21.8783 248 24V72C248 74.1217 247.157 76.1566 245.657 77.6569C244.157 79.1571 242.122 80 240 80C237.878 80 235.843 79.1571 234.343 77.6569C232.843 76.1566 232 74.1217 232 72V24ZM104 24C104 21.8783 104.843 19.8434 106.343 18.3431C107.843 16.8429 109.878 16 112 16C114.122 16 116.157 16.8429 117.657 18.3431C119.157 19.8434 120 21.8783 120 24V72C120 74.1217 119.157 76.1566 117.657 77.6569C116.157 79.1571 114.122 80 112 80C109.878 80 107.843 79.1571 106.343 77.6569C104.843 76.1566 104 74.1217 104 72V24ZM40 48H88V72C88 78.3652 90.5286 84.4697 95.0294 88.9706C99.5303 93.4714 105.635 96 112 96C118.365 96 124.47 93.4714 128.971 88.9706C133.471 84.4697 136 78.3652 136 72V48H216V72C216 78.3652 218.529 84.4697 223.029 88.9706C227.53 93.4714 233.635 96 240 96C246.365 96 252.47 93.4714 256.971 88.9706C261.471 84.4697 264 78.3652 264 72V48H344V72C344 78.3652 346.529 84.4697 351.029 88.9706C355.53 93.4714 361.635 96 368 96C374.365 96 380.47 93.4714 384.971 88.9706C389.471 84.4697 392 78.3652 392 72V48H440C446.363 48.0074 452.463 50.5384 456.962 55.0376C461.462 59.5369 463.993 65.6371 464 72V128H16V72C16.0074 65.6371 18.5384 59.5369 23.0376 55.0376C27.5369 50.5384 33.6371 48.0074 40 48ZM440 464H40C33.6371 463.993 27.5369 461.462 23.0376 456.962C18.5384 452.463 16.0074 446.363 16 440V144H464V440C463.993 446.363 461.462 452.463 456.962 456.962C452.463 461.462 446.363 463.993 440 464Z" fill="url(#paint0_linear_1065_266)"/>
<path d="M424 200.001H392C389.878 200.001 387.843 200.844 386.343 202.344C384.843 203.844 384 205.879 384 208.001V240.001C384 242.123 384.843 244.158 386.343 245.658C387.843 247.158 389.878 248.001 392 248.001H424C426.122 248.001 428.157 247.158 429.657 245.658C431.157 244.158 432 242.123 432 240.001V208.001C432 205.879 431.157 203.844 429.657 202.344C428.157 200.844 426.122 200.001 424 200.001ZM416 232.001H400V216.001H416V232.001ZM264 360.001H232C229.878 360.001 227.843 360.844 226.343 362.344C224.843 363.844 224 365.879 224 368.001V400.001C224 402.123 224.843 404.158 226.343 405.658C227.843 407.158 229.878 408.001 232 408.001H264C266.122 408.001 268.157 407.158 269.657 405.658C271.157 404.158 272 402.123 272 400.001V368.001C272 365.879 271.157 363.844 269.657 362.344C268.157 360.844 266.122 360.001 264 360.001ZM256 392.001H240V376.001H256V392.001ZM184 200.001H152C149.878 200.001 147.843 200.844 146.343 202.344C144.843 203.844 144 205.879 144 208.001V240.001C144 242.123 144.843 244.158 146.343 245.658C147.843 247.158 149.878 248.001 152 248.001H184C186.122 248.001 188.157 247.158 189.657 245.658C191.157 244.158 192 242.123 192 240.001V208.001C192 205.879 191.157 203.844 189.657 202.344C188.157 200.844 186.122 200.001 184 200.001ZM176 232.001H160V216.001H176V232.001ZM104 280.001H72C69.8783 280.001 67.8434 280.844 66.3431 282.344C64.8429 283.844 64 285.879 64 288.001V320.001C64 322.123 64.8429 324.158 66.3431 325.658C67.8434 327.158 69.8783 328.001 72 328.001H104C106.122 328.001 108.157 327.158 109.657 325.658C111.157 324.158 112 322.123 112 320.001V288.001C112 285.879 111.157 283.844 109.657 282.344C108.157 280.844 106.122 280.001 104 280.001ZM96 312.001H80V296.001H96V312.001ZM184 280.001H152C149.878 280.001 147.843 280.844 146.343 282.344C144.843 283.844 144 285.879 144 288.001V320.001C144 322.123 144.843 324.158 146.343 325.658C147.843 327.158 149.878 328.001 152 328.001H184C186.122 328.001 188.157 327.158 189.657 325.658C191.157 324.158 192 322.123 192 320.001V288.001C192 285.879 191.157 283.844 189.657 282.344C188.157 280.844 186.122 280.001 184 280.001ZM176 312.001H160V296.001H176V312.001ZM104 360.001H72C69.8783 360.001 67.8434 360.844 66.3431 362.344C64.8429 363.844 64 365.879 64 368.001V400.001C64 402.123 64.8429 404.158 66.3431 405.658C67.8434 407.158 69.8783 408.001 72 408.001H104C106.122 408.001 108.157 407.158 109.657 405.658C111.157 404.158 112 402.123 112 400.001V368.001C112 365.879 111.157 363.844 109.657 362.344C108.157 360.844 106.122 360.001 104 360.001ZM96 392.001H80V376.001H96V392.001ZM184 360.001H152C149.878 360.001 147.843 360.844 146.343 362.344C144.843 363.844 144 365.879 144 368.001V400.001C144 402.123 144.843 404.158 146.343 405.658C147.843 407.158 149.878 408.001 152 408.001H184C186.122 408.001 188.157 407.158 189.657 405.658C191.157 404.158 192 402.123 192 400.001V368.001C192 365.879 191.157 363.844 189.657 362.344C188.157 360.844 186.122 360.001 184 360.001ZM176 392.001H160V376.001H176V392.001ZM353.208 232.984L313.208 226.872L295.242 188.601C294.596 187.225 293.572 186.062 292.29 185.247C291.007 184.433 289.519 184 288 184C286.481 184 284.993 184.433 283.71 185.247C282.428 186.062 281.404 187.225 280.758 188.601L262.8 226.872L222.8 232.984C221.345 233.205 219.98 233.824 218.853 234.771C217.727 235.719 216.884 236.958 216.417 238.354C215.95 239.749 215.877 241.247 216.206 242.681C216.535 244.116 217.254 245.431 218.282 246.484L247.463 276.391L240.563 318.717C240.324 320.197 240.506 321.714 241.088 323.095C241.669 324.476 242.627 325.667 243.852 326.53C245.077 327.394 246.52 327.895 248.016 327.979C249.513 328.062 251.003 327.723 252.316 327.001L288 307.277L323.684 327.001C324.998 327.727 326.49 328.069 327.989 327.988C329.488 327.906 330.934 327.404 332.162 326.54C333.389 325.675 334.348 324.482 334.93 323.098C335.511 321.714 335.692 320.194 335.45 318.712L328.55 276.386L357.731 246.479C358.759 245.426 359.478 244.111 359.807 242.676C360.136 241.242 360.063 239.744 359.596 238.349C359.129 236.953 358.286 235.714 357.16 234.766C356.033 233.819 354.668 233.2 353.213 232.979L353.208 232.984ZM314.274 268.101C313.399 268.997 312.748 270.086 312.371 271.28C311.994 272.474 311.902 273.74 312.104 274.976L317.004 305.027L291.868 291.127C290.683 290.472 289.352 290.129 287.998 290.129C286.644 290.129 285.313 290.472 284.128 291.127L258.992 305.027L263.892 274.976C264.094 273.74 264.002 272.474 263.625 271.28C263.248 270.086 262.596 268.997 261.722 268.101L240.6 246.449L269.433 242.049C270.732 241.85 271.961 241.335 273.013 240.549C274.066 239.762 274.908 238.729 275.466 237.54L288 210.829L300.535 237.535C301.093 238.724 301.935 239.757 302.988 240.544C304.04 241.33 305.269 241.845 306.568 242.044L335.401 246.444L314.274 268.101ZM424 280.001H392C389.878 280.001 387.843 280.844 386.343 282.344C384.843 283.844 384 285.879 384 288.001V320.001C384 322.123 384.843 324.158 386.343 325.658C387.843 327.158 389.878 328.001 392 328.001H424C426.122 328.001 428.157 327.158 429.657 325.658C431.157 324.158 432 322.123 432 320.001V288.001C432 285.879 431.157 283.844 429.657 282.344C428.157 280.844 426.122 280.001 424 280.001ZM416 312.001H400V296.001H416V312.001ZM424 360.001H392C389.878 360.001 387.843 360.844 386.343 362.344C384.843 363.844 384 365.879 384 368.001V400.001C384 402.123 384.843 404.158 386.343 405.658C387.843 407.158 389.878 408.001 392 408.001H424C426.122 408.001 428.157 407.158 429.657 405.658C431.157 404.158 432 402.123 432 400.001V368.001C432 365.879 431.157 363.844 429.657 362.344C428.157 360.844 426.122 360.001 424 360.001ZM416 392.001H400V376.001H416V392.001ZM344 360.001H312C309.878 360.001 307.843 360.844 306.343 362.344C304.843 363.844 304 365.879 304 368.001V400.001C304 402.123 304.843 404.158 306.343 405.658C307.843 407.158 309.878 408.001 312 408.001H344C346.122 408.001 348.157 407.158 349.657 405.658C351.157 404.158 352 402.123 352 400.001V368.001C352 365.879 351.157 363.844 349.657 362.344C348.157 360.844 346.122 360.001 344 360.001ZM336 392.001H320V376.001H336V392.001Z" fill="white"/>
<path d="M424 200.001H392C389.878 200.001 387.843 200.844 386.343 202.344C384.843 203.844 384 205.879 384 208.001V240.001C384 242.123 384.843 244.158 386.343 245.658C387.843 247.158 389.878 248.001 392 248.001H424C426.122 248.001 428.157 247.158 429.657 245.658C431.157 244.158 432 242.123 432 240.001V208.001C432 205.879 431.157 203.844 429.657 202.344C428.157 200.844 426.122 200.001 424 200.001ZM416 232.001H400V216.001H416V232.001ZM264 360.001H232C229.878 360.001 227.843 360.844 226.343 362.344C224.843 363.844 224 365.879 224 368.001V400.001C224 402.123 224.843 404.158 226.343 405.658C227.843 407.158 229.878 408.001 232 408.001H264C266.122 408.001 268.157 407.158 269.657 405.658C271.157 404.158 272 402.123 272 400.001V368.001C272 365.879 271.157 363.844 269.657 362.344C268.157 360.844 266.122 360.001 264 360.001ZM256 392.001H240V376.001H256V392.001ZM184 200.001H152C149.878 200.001 147.843 200.844 146.343 202.344C144.843 203.844 144 205.879 144 208.001V240.001C144 242.123 144.843 244.158 146.343 245.658C147.843 247.158 149.878 248.001 152 248.001H184C186.122 248.001 188.157 247.158 189.657 245.658C191.157 244.158 192 242.123 192 240.001V208.001C192 205.879 191.157 203.844 189.657 202.344C188.157 200.844 186.122 200.001 184 200.001ZM176 232.001H160V216.001H176V232.001ZM104 280.001H72C69.8783 280.001 67.8434 280.844 66.3431 282.344C64.8429 283.844 64 285.879 64 288.001V320.001C64 322.123 64.8429 324.158 66.3431 325.658C67.8434 327.158 69.8783 328.001 72 328.001H104C106.122 328.001 108.157 327.158 109.657 325.658C111.157 324.158 112 322.123 112 320.001V288.001C112 285.879 111.157 283.844 109.657 282.344C108.157 280.844 106.122 280.001 104 280.001ZM96 312.001H80V296.001H96V312.001ZM184 280.001H152C149.878 280.001 147.843 280.844 146.343 282.344C144.843 283.844 144 285.879 144 288.001V320.001C144 322.123 144.843 324.158 146.343 325.658C147.843 327.158 149.878 328.001 152 328.001H184C186.122 328.001 188.157 327.158 189.657 325.658C191.157 324.158 192 322.123 192 320.001V288.001C192 285.879 191.157 283.844 189.657 282.344C188.157 280.844 186.122 280.001 184 280.001ZM176 312.001H160V296.001H176V312.001ZM104 360.001H72C69.8783 360.001 67.8434 360.844 66.3431 362.344C64.8429 363.844 64 365.879 64 368.001V400.001C64 402.123 64.8429 404.158 66.3431 405.658C67.8434 407.158 69.8783 408.001 72 408.001H104C106.122 408.001 108.157 407.158 109.657 405.658C111.157 404.158 112 402.123 112 400.001V368.001C112 365.879 111.157 363.844 109.657 362.344C108.157 360.844 106.122 360.001 104 360.001ZM96 392.001H80V376.001H96V392.001ZM184 360.001H152C149.878 360.001 147.843 360.844 146.343 362.344C144.843 363.844 144 365.879 144 368.001V400.001C144 402.123 144.843 404.158 146.343 405.658C147.843 407.158 149.878 408.001 152 408.001H184C186.122 408.001 188.157 407.158 189.657 405.658C191.157 404.158 192 402.123 192 400.001V368.001C192 365.879 191.157 363.844 189.657 362.344C188.157 360.844 186.122 360.001 184 360.001ZM176 392.001H160V376.001H176V392.001ZM353.208 232.984L313.208 226.872L295.242 188.601C294.596 187.225 293.572 186.062 292.29 185.247C291.007 184.433 289.519 184 288 184C286.481 184 284.993 184.433 283.71 185.247C282.428 186.062 281.404 187.225 280.758 188.601L262.8 226.872L222.8 232.984C221.345 233.205 219.98 233.824 218.853 234.771C217.727 235.719 216.884 236.958 216.417 238.354C215.95 239.749 215.877 241.247 216.206 242.681C216.535 244.116 217.254 245.431 218.282 246.484L247.463 276.391L240.563 318.717C240.324 320.197 240.506 321.714 241.088 323.095C241.669 324.476 242.627 325.667 243.852 326.53C245.077 327.394 246.52 327.895 248.016 327.979C249.513 328.062 251.003 327.723 252.316 327.001L288 307.277L323.684 327.001C324.998 327.727 326.49 328.069 327.989 327.988C329.488 327.906 330.934 327.404 332.162 326.54C333.389 325.675 334.348 324.482 334.93 323.098C335.511 321.714 335.692 320.194 335.45 318.712L328.55 276.386L357.731 246.479C358.759 245.426 359.478 244.111 359.807 242.676C360.136 241.242 360.063 239.744 359.596 238.349C359.129 236.953 358.286 235.714 357.16 234.766C356.033 233.819 354.668 233.2 353.213 232.979L353.208 232.984ZM314.274 268.101C313.399 268.997 312.748 270.086 312.371 271.28C311.994 272.474 311.902 273.74 312.104 274.976L317.004 305.027L291.868 291.127C290.683 290.472 289.352 290.129 287.998 290.129C286.644 290.129 285.313 290.472 284.128 291.127L258.992 305.027L263.892 274.976C264.094 273.74 264.002 272.474 263.625 271.28C263.248 270.086 262.596 268.997 261.722 268.101L240.6 246.449L269.433 242.049C270.732 241.85 271.961 241.335 273.013 240.549C274.066 239.762 274.908 238.729 275.466 237.54L288 210.829L300.535 237.535C301.093 238.724 301.935 239.757 302.988 240.544C304.04 241.33 305.269 241.845 306.568 242.044L335.401 246.444L314.274 268.101ZM424 280.001H392C389.878 280.001 387.843 280.844 386.343 282.344C384.843 283.844 384 285.879 384 288.001V320.001C384 322.123 384.843 324.158 386.343 325.658C387.843 327.158 389.878 328.001 392 328.001H424C426.122 328.001 428.157 327.158 429.657 325.658C431.157 324.158 432 322.123 432 320.001V288.001C432 285.879 431.157 283.844 429.657 282.344C428.157 280.844 426.122 280.001 424 280.001ZM416 312.001H400V296.001H416V312.001ZM424 360.001H392C389.878 360.001 387.843 360.844 386.343 362.344C384.843 363.844 384 365.879 384 368.001V400.001C384 402.123 384.843 404.158 386.343 405.658C387.843 407.158 389.878 408.001 392 408.001H424C426.122 408.001 428.157 407.158 429.657 405.658C431.157 404.158 432 402.123 432 400.001V368.001C432 365.879 431.157 363.844 429.657 362.344C428.157 360.844 426.122 360.001 424 360.001ZM416 392.001H400V376.001H416V392.001ZM344 360.001H312C309.878 360.001 307.843 360.844 306.343 362.344C304.843 363.844 304 365.879 304 368.001V400.001C304 402.123 304.843 404.158 306.343 405.658C307.843 407.158 309.878 408.001 312 408.001H344C346.122 408.001 348.157 407.158 349.657 405.658C351.157 404.158 352 402.123 352 400.001V368.001C352 365.879 351.157 363.844 349.657 362.344C348.157 360.844 346.122 360.001 344 360.001ZM336 392.001H320V376.001H336V392.001Z" fill="url(#paint1_linear_1065_266)"/>
<defs>
<linearGradient id="paint0_linear_1065_266" x1="17.1263" y1="30.9376" x2="474.333" y2="555.654" gradientUnits="userSpaceOnUse">
<stop stop-color="#1BA2D7"/>
<stop offset="1" stop-color="#8D3DFA"/>
</linearGradient>
<linearGradient id="paint1_linear_1065_266" x1="77.1302" y1="198.438" x2="255.447" y2="534.642" gradientUnits="userSpaceOnUse">
<stop stop-color="#1BA2D7"/>
<stop offset="1" stop-color="#8D3DFA"/>
</linearGradient>
</defs>
</svg>
