<svg width="480" height="480" viewBox="0 0 480 480" fill="none" xmlns="http://www.w3.org/2000/svg">
<path fill-rule="evenodd" clip-rule="evenodd" d="M116.52 128.576C103.841 138.585 88.1537 144.02 72 144C32.264 144 0 111.736 0 72C0 32.264 32.264 0 72 0C111.736 0 144 32.264 144 72C144 89.176 137.968 104.96 127.912 117.344L166.28 155.712C186.666 137.818 212.874 127.966 240 128C268.032 128 293.672 138.32 313.32 155.36L351.752 116.928C341.534 104.185 335.977 88.3336 336 72C336 32.264 368.264 0 408 0C447.736 0 480 32.264 480 72C480 111.736 447.736 144 408 144C391.666 144.023 375.815 138.466 363.072 128.248L324.64 166.68C342.316 187.014 352.034 213.058 352 240C352 268.216 341.544 294.016 324.288 313.72L362.656 352.088C375.467 341.663 391.484 335.98 408 336C447.736 336 480 368.264 480 408C480 447.736 447.736 480 408 480C368.264 480 336 447.736 336 408C336 391.2 341.768 375.736 351.424 363.48L312.92 324.984C309.472 327.944 305.84 330.704 302.048 333.232C301.026 334.411 299.684 335.267 298.184 335.696C281.224 346.04 261.304 352 240 352C218.696 352 198.776 346.04 181.816 335.696C180.316 335.267 178.974 334.411 177.952 333.232C174.019 330.606 170.255 327.736 166.68 324.64L128.248 363.072C138.466 375.815 144.023 391.666 144 408C144 447.736 111.736 480 72 480C32.264 480 0 447.736 0 408C0 368.264 32.264 336 72 336C88.992 336 104.616 341.896 116.928 351.752L155.36 313.32C137.684 292.986 127.966 266.942 128 240C128 212.16 138.184 186.68 155.016 167.08L116.52 128.576ZM56 125.68C61.072 127.192 66.44 128 72 128C77.56 128 82.928 127.192 88 125.68V112C88 109.878 87.1571 107.843 85.6569 106.343C84.1566 104.843 82.1217 104 80 104H64C61.8783 104 59.8434 104.843 58.3431 106.343C56.8429 107.843 56 109.878 56 112V125.68ZM392 461.68C397.072 463.192 402.44 464 408 464C413.56 464 418.928 463.192 424 461.68V448C424 445.878 423.157 443.843 421.657 442.343C420.157 440.843 418.122 440 416 440H400C397.878 440 395.843 440.843 394.343 442.343C392.843 443.843 392 445.878 392 448V461.68ZM307.872 172.128C298.969 163.201 288.389 156.121 276.742 151.294C265.094 146.466 252.608 143.988 240 144C227.317 143.988 214.758 146.497 203.053 151.381C191.348 156.264 180.73 163.425 171.816 172.448L171.76 172.504C153.952 190.451 143.972 214.717 144 240C143.987 253.505 146.831 266.86 152.346 279.188C157.861 291.516 165.922 302.537 176 311.528C176.131 296.76 182.088 282.641 192.575 272.242C203.062 261.843 217.231 256.006 232 256H248C262.771 255.997 276.945 261.832 287.434 272.232C297.923 282.633 303.878 296.757 304 311.528C305.192 310.464 306.36 309.368 307.496 308.24L307.552 308.184C316.575 299.27 323.736 288.652 328.619 276.947C333.503 265.242 336.012 252.683 336 240C336 213.512 325.248 189.512 307.872 172.128ZM240 160C262.08 160 280 177.92 280 200C280 222.08 262.08 240 240 240C217.92 240 200 222.08 200 200C200 177.92 217.92 160 240 160ZM240 176C233.742 176.162 227.795 178.761 223.426 183.244C219.057 187.728 216.612 193.74 216.612 200C216.612 206.26 219.057 212.272 223.426 216.756C227.795 221.239 233.742 223.838 240 224C246.258 223.838 252.205 221.239 256.574 216.756C260.943 212.272 263.388 206.26 263.388 200C263.388 193.74 260.943 187.728 256.574 183.244C252.205 178.761 246.258 176.162 240 176ZM104 117.952C111.41 112.796 117.463 105.924 121.642 97.9228C125.821 89.9212 128.003 81.0273 128 72C128 41.096 102.904 16 72 16C41.096 16 16 41.096 16 72C15.9974 81.0273 18.1787 89.9212 22.3578 97.9228C26.5369 105.924 32.5898 112.796 40 117.952V112C40 105.635 42.5286 99.5303 47.0294 95.0294C51.5303 90.5286 57.6348 88 64 88H80C86.3652 88 92.4697 90.5286 96.9706 95.0294C101.471 99.5303 104 105.635 104 112V117.952ZM72 32C78.2579 32.1616 84.2052 34.7611 88.5742 39.2443C92.9432 43.7276 95.3883 49.74 95.3883 56C95.3883 62.26 92.9432 68.2724 88.5742 72.7557C84.2052 77.2389 78.2579 79.8384 72 80C65.7421 79.8384 59.7948 77.2389 55.4258 72.7557C51.0568 68.2724 48.6117 62.26 48.6117 56C48.6117 49.74 51.0568 43.7276 55.4258 39.2443C59.7948 34.7611 65.7421 32.1616 72 32ZM72 48C69.8783 48 67.8434 48.8429 66.3431 50.3431C64.8429 51.8434 64 53.8783 64 56C64 58.1217 64.8429 60.1566 66.3431 61.6569C67.8434 63.1571 69.8783 64 72 64C74.1217 64 76.1566 63.1571 77.6569 61.6569C79.1571 60.1566 80 58.1217 80 56C80 53.8783 79.1571 51.8434 77.6569 50.3431C76.1566 48.8429 74.1217 48 72 48ZM440 453.952C447.41 448.796 453.463 441.924 457.642 433.923C461.821 425.921 464.003 417.027 464 408C464 377.096 438.904 352 408 352C377.096 352 352 377.096 352 408C351.997 417.027 354.179 425.921 358.358 433.923C362.537 441.924 368.59 448.796 376 453.952V448C376 441.635 378.529 435.53 383.029 431.029C387.53 426.529 393.635 424 400 424H416C422.365 424 428.47 426.529 432.971 431.029C437.471 435.53 440 441.635 440 448V453.952ZM408 368C414.258 368.162 420.205 370.761 424.574 375.244C428.943 379.728 431.388 385.74 431.388 392C431.388 398.26 428.943 404.272 424.574 408.756C420.205 413.239 414.258 415.838 408 416C401.742 415.838 395.795 413.239 391.426 408.756C387.057 404.272 384.612 398.26 384.612 392C384.612 385.74 387.057 379.728 391.426 375.244C395.795 370.761 401.742 368.162 408 368ZM408 384C405.878 384 403.843 384.843 402.343 386.343C400.843 387.843 400 389.878 400 392C400 394.122 400.843 396.157 402.343 397.657C403.843 399.157 405.878 400 408 400C410.122 400 412.157 399.157 413.657 397.657C415.157 396.157 416 394.122 416 392C416 389.878 415.157 387.843 413.657 386.343C412.157 384.843 410.122 384 408 384ZM104 453.952C111.41 448.796 117.463 441.924 121.642 433.923C125.821 425.921 128.003 417.027 128 408C128 377.096 102.904 352 72 352C41.096 352 16 377.096 16 408C15.9974 417.027 18.1787 425.921 22.3578 433.923C26.5369 441.924 32.5898 448.796 40 453.952V448C40 441.635 42.5286 435.53 47.0294 431.029C51.5303 426.529 57.6348 424 64 424H80C86.3652 424 92.4697 426.529 96.9706 431.029C101.471 435.53 104 441.635 104 448V453.952ZM72 368C78.2579 368.162 84.2052 370.761 88.5742 375.244C92.9432 379.728 95.3883 385.74 95.3883 392C95.3883 398.26 92.9432 404.272 88.5742 408.756C84.2052 413.239 78.2579 415.838 72 416C65.7421 415.838 59.7948 413.239 55.4258 408.756C51.0568 404.272 48.6117 398.26 48.6117 392C48.6117 385.74 51.0568 379.728 55.4258 375.244C59.7948 370.761 65.7421 368.162 72 368ZM72 384C69.8783 384 67.8434 384.843 66.3431 386.343C64.8429 387.843 64 389.878 64 392C64 394.122 64.8429 396.157 66.3431 397.657C67.8434 399.157 69.8783 400 72 400C74.1217 400 76.1566 399.157 77.6569 397.657C79.1571 396.157 80 394.122 80 392C80 389.878 79.1571 387.843 77.6569 386.343C76.1566 384.843 74.1217 384 72 384ZM440 117.952C447.41 112.796 453.463 105.924 457.642 97.9228C461.821 89.9212 464.003 81.0273 464 72C464 41.096 438.904 16 408 16C377.096 16 352 41.096 352 72C351.997 81.0273 354.179 89.9212 358.358 97.9228C362.537 105.924 368.59 112.796 376 117.952V112C376 105.635 378.529 99.5303 383.029 95.0294C387.53 90.5286 393.635 88 400 88H416C422.365 88 428.47 90.5286 432.971 95.0294C437.471 99.5303 440 105.635 440 112V117.952ZM408 32C414.258 32.1616 420.205 34.7611 424.574 39.2443C428.943 43.7276 431.388 49.74 431.388 56C431.388 62.26 428.943 68.2724 424.574 72.7557C420.205 77.2389 414.258 79.8384 408 80C401.742 79.8384 395.795 77.2389 391.426 72.7557C387.057 68.2724 384.612 62.26 384.612 56C384.612 49.74 387.057 43.7276 391.426 39.2443C395.795 34.7611 401.742 32.1616 408 32ZM408 48C405.878 48 403.843 48.8429 402.343 50.3431C400.843 51.8434 400 53.8783 400 56C400 58.1217 400.843 60.1566 402.343 61.6569C403.843 63.1571 405.878 64 408 64C410.122 64 412.157 63.1571 413.657 61.6569C415.157 60.1566 416 58.1217 416 56C416 53.8783 415.157 51.8434 413.657 50.3431C412.157 48.8429 410.122 48 408 48ZM392 125.68C397.072 127.192 402.44 128 408 128C413.56 128 418.928 127.192 424 125.68V112C424 109.878 423.157 107.843 421.657 106.343C420.157 104.843 418.122 104 416 104H400C397.878 104 395.843 104.843 394.343 106.343C392.843 107.843 392 109.878 392 112V125.68ZM192 323.136C206.12 331.32 222.52 336 240 336C257.48 336 273.88 331.32 288 323.136V312C287.998 301.391 283.786 291.217 276.288 283.712C268.783 276.214 258.609 272.002 248 272H232C221.391 272.002 211.217 276.214 203.712 283.712C196.214 291.217 192.002 301.391 192 312V323.136ZM56 461.68C61.072 463.192 66.44 464 72 464C77.56 464 82.928 463.192 88 461.68V448C88 445.878 87.1571 443.843 85.6569 442.343C84.1566 440.843 82.1217 440 80 440H64C61.8783 440 59.8434 440.843 58.3431 442.343C56.8429 443.843 56 445.878 56 448V461.68Z" fill="white"/>
<path fill-rule="evenodd" clip-rule="evenodd" d="M116.52 128.576C103.841 138.585 88.1537 144.02 72 144C32.264 144 0 111.736 0 72C0 32.264 32.264 0 72 0C111.736 0 144 32.264 144 72C144 89.176 137.968 104.96 127.912 117.344L166.28 155.712C186.666 137.818 212.874 127.966 240 128C268.032 128 293.672 138.32 313.32 155.36L351.752 116.928C341.534 104.185 335.977 88.3336 336 72C336 32.264 368.264 0 408 0C447.736 0 480 32.264 480 72C480 111.736 447.736 144 408 144C391.666 144.023 375.815 138.466 363.072 128.248L324.64 166.68C342.316 187.014 352.034 213.058 352 240C352 268.216 341.544 294.016 324.288 313.72L362.656 352.088C375.467 341.663 391.484 335.98 408 336C447.736 336 480 368.264 480 408C480 447.736 447.736 480 408 480C368.264 480 336 447.736 336 408C336 391.2 341.768 375.736 351.424 363.48L312.92 324.984C309.472 327.944 305.84 330.704 302.048 333.232C301.026 334.411 299.684 335.267 298.184 335.696C281.224 346.04 261.304 352 240 352C218.696 352 198.776 346.04 181.816 335.696C180.316 335.267 178.974 334.411 177.952 333.232C174.019 330.606 170.255 327.736 166.68 324.64L128.248 363.072C138.466 375.815 144.023 391.666 144 408C144 447.736 111.736 480 72 480C32.264 480 0 447.736 0 408C0 368.264 32.264 336 72 336C88.992 336 104.616 341.896 116.928 351.752L155.36 313.32C137.684 292.986 127.966 266.942 128 240C128 212.16 138.184 186.68 155.016 167.08L116.52 128.576ZM56 125.68C61.072 127.192 66.44 128 72 128C77.56 128 82.928 127.192 88 125.68V112C88 109.878 87.1571 107.843 85.6569 106.343C84.1566 104.843 82.1217 104 80 104H64C61.8783 104 59.8434 104.843 58.3431 106.343C56.8429 107.843 56 109.878 56 112V125.68ZM392 461.68C397.072 463.192 402.44 464 408 464C413.56 464 418.928 463.192 424 461.68V448C424 445.878 423.157 443.843 421.657 442.343C420.157 440.843 418.122 440 416 440H400C397.878 440 395.843 440.843 394.343 442.343C392.843 443.843 392 445.878 392 448V461.68ZM307.872 172.128C298.969 163.201 288.389 156.121 276.742 151.294C265.094 146.466 252.608 143.988 240 144C227.317 143.988 214.758 146.497 203.053 151.381C191.348 156.264 180.73 163.425 171.816 172.448L171.76 172.504C153.952 190.451 143.972 214.717 144 240C143.987 253.505 146.831 266.86 152.346 279.188C157.861 291.516 165.922 302.537 176 311.528C176.131 296.76 182.088 282.641 192.575 272.242C203.062 261.843 217.231 256.006 232 256H248C262.771 255.997 276.945 261.832 287.434 272.232C297.923 282.633 303.878 296.757 304 311.528C305.192 310.464 306.36 309.368 307.496 308.24L307.552 308.184C316.575 299.27 323.736 288.652 328.619 276.947C333.503 265.242 336.012 252.683 336 240C336 213.512 325.248 189.512 307.872 172.128ZM240 160C262.08 160 280 177.92 280 200C280 222.08 262.08 240 240 240C217.92 240 200 222.08 200 200C200 177.92 217.92 160 240 160ZM240 176C233.742 176.162 227.795 178.761 223.426 183.244C219.057 187.728 216.612 193.74 216.612 200C216.612 206.26 219.057 212.272 223.426 216.756C227.795 221.239 233.742 223.838 240 224C246.258 223.838 252.205 221.239 256.574 216.756C260.943 212.272 263.388 206.26 263.388 200C263.388 193.74 260.943 187.728 256.574 183.244C252.205 178.761 246.258 176.162 240 176ZM104 117.952C111.41 112.796 117.463 105.924 121.642 97.9228C125.821 89.9212 128.003 81.0273 128 72C128 41.096 102.904 16 72 16C41.096 16 16 41.096 16 72C15.9974 81.0273 18.1787 89.9212 22.3578 97.9228C26.5369 105.924 32.5898 112.796 40 117.952V112C40 105.635 42.5286 99.5303 47.0294 95.0294C51.5303 90.5286 57.6348 88 64 88H80C86.3652 88 92.4697 90.5286 96.9706 95.0294C101.471 99.5303 104 105.635 104 112V117.952ZM72 32C78.2579 32.1616 84.2052 34.7611 88.5742 39.2443C92.9432 43.7276 95.3883 49.74 95.3883 56C95.3883 62.26 92.9432 68.2724 88.5742 72.7557C84.2052 77.2389 78.2579 79.8384 72 80C65.7421 79.8384 59.7948 77.2389 55.4258 72.7557C51.0568 68.2724 48.6117 62.26 48.6117 56C48.6117 49.74 51.0568 43.7276 55.4258 39.2443C59.7948 34.7611 65.7421 32.1616 72 32ZM72 48C69.8783 48 67.8434 48.8429 66.3431 50.3431C64.8429 51.8434 64 53.8783 64 56C64 58.1217 64.8429 60.1566 66.3431 61.6569C67.8434 63.1571 69.8783 64 72 64C74.1217 64 76.1566 63.1571 77.6569 61.6569C79.1571 60.1566 80 58.1217 80 56C80 53.8783 79.1571 51.8434 77.6569 50.3431C76.1566 48.8429 74.1217 48 72 48ZM440 453.952C447.41 448.796 453.463 441.924 457.642 433.923C461.821 425.921 464.003 417.027 464 408C464 377.096 438.904 352 408 352C377.096 352 352 377.096 352 408C351.997 417.027 354.179 425.921 358.358 433.923C362.537 441.924 368.59 448.796 376 453.952V448C376 441.635 378.529 435.53 383.029 431.029C387.53 426.529 393.635 424 400 424H416C422.365 424 428.47 426.529 432.971 431.029C437.471 435.53 440 441.635 440 448V453.952ZM408 368C414.258 368.162 420.205 370.761 424.574 375.244C428.943 379.728 431.388 385.74 431.388 392C431.388 398.26 428.943 404.272 424.574 408.756C420.205 413.239 414.258 415.838 408 416C401.742 415.838 395.795 413.239 391.426 408.756C387.057 404.272 384.612 398.26 384.612 392C384.612 385.74 387.057 379.728 391.426 375.244C395.795 370.761 401.742 368.162 408 368ZM408 384C405.878 384 403.843 384.843 402.343 386.343C400.843 387.843 400 389.878 400 392C400 394.122 400.843 396.157 402.343 397.657C403.843 399.157 405.878 400 408 400C410.122 400 412.157 399.157 413.657 397.657C415.157 396.157 416 394.122 416 392C416 389.878 415.157 387.843 413.657 386.343C412.157 384.843 410.122 384 408 384ZM104 453.952C111.41 448.796 117.463 441.924 121.642 433.923C125.821 425.921 128.003 417.027 128 408C128 377.096 102.904 352 72 352C41.096 352 16 377.096 16 408C15.9974 417.027 18.1787 425.921 22.3578 433.923C26.5369 441.924 32.5898 448.796 40 453.952V448C40 441.635 42.5286 435.53 47.0294 431.029C51.5303 426.529 57.6348 424 64 424H80C86.3652 424 92.4697 426.529 96.9706 431.029C101.471 435.53 104 441.635 104 448V453.952ZM72 368C78.2579 368.162 84.2052 370.761 88.5742 375.244C92.9432 379.728 95.3883 385.74 95.3883 392C95.3883 398.26 92.9432 404.272 88.5742 408.756C84.2052 413.239 78.2579 415.838 72 416C65.7421 415.838 59.7948 413.239 55.4258 408.756C51.0568 404.272 48.6117 398.26 48.6117 392C48.6117 385.74 51.0568 379.728 55.4258 375.244C59.7948 370.761 65.7421 368.162 72 368ZM72 384C69.8783 384 67.8434 384.843 66.3431 386.343C64.8429 387.843 64 389.878 64 392C64 394.122 64.8429 396.157 66.3431 397.657C67.8434 399.157 69.8783 400 72 400C74.1217 400 76.1566 399.157 77.6569 397.657C79.1571 396.157 80 394.122 80 392C80 389.878 79.1571 387.843 77.6569 386.343C76.1566 384.843 74.1217 384 72 384ZM440 117.952C447.41 112.796 453.463 105.924 457.642 97.9228C461.821 89.9212 464.003 81.0273 464 72C464 41.096 438.904 16 408 16C377.096 16 352 41.096 352 72C351.997 81.0273 354.179 89.9212 358.358 97.9228C362.537 105.924 368.59 112.796 376 117.952V112C376 105.635 378.529 99.5303 383.029 95.0294C387.53 90.5286 393.635 88 400 88H416C422.365 88 428.47 90.5286 432.971 95.0294C437.471 99.5303 440 105.635 440 112V117.952ZM408 32C414.258 32.1616 420.205 34.7611 424.574 39.2443C428.943 43.7276 431.388 49.74 431.388 56C431.388 62.26 428.943 68.2724 424.574 72.7557C420.205 77.2389 414.258 79.8384 408 80C401.742 79.8384 395.795 77.2389 391.426 72.7557C387.057 68.2724 384.612 62.26 384.612 56C384.612 49.74 387.057 43.7276 391.426 39.2443C395.795 34.7611 401.742 32.1616 408 32ZM408 48C405.878 48 403.843 48.8429 402.343 50.3431C400.843 51.8434 400 53.8783 400 56C400 58.1217 400.843 60.1566 402.343 61.6569C403.843 63.1571 405.878 64 408 64C410.122 64 412.157 63.1571 413.657 61.6569C415.157 60.1566 416 58.1217 416 56C416 53.8783 415.157 51.8434 413.657 50.3431C412.157 48.8429 410.122 48 408 48ZM392 125.68C397.072 127.192 402.44 128 408 128C413.56 128 418.928 127.192 424 125.68V112C424 109.878 423.157 107.843 421.657 106.343C420.157 104.843 418.122 104 416 104H400C397.878 104 395.843 104.843 394.343 106.343C392.843 107.843 392 109.878 392 112V125.68ZM192 323.136C206.12 331.32 222.52 336 240 336C257.48 336 273.88 331.32 288 323.136V312C287.998 301.391 283.786 291.217 276.288 283.712C268.783 276.214 258.609 272.002 248 272H232C221.391 272.002 211.217 276.214 203.712 283.712C196.214 291.217 192.002 301.391 192 312V323.136ZM56 461.68C61.072 463.192 66.44 464 72 464C77.56 464 82.928 463.192 88 461.68V448C88 445.878 87.1571 443.843 85.6569 442.343C84.1566 440.843 82.1217 440 80 440H64C61.8783 440 59.8434 440.843 58.3431 442.343C56.8429 443.843 56 445.878 56 448V461.68Z" fill="url(#paint0_linear_1065_263)"/>
<defs>
<linearGradient id="paint0_linear_1065_263" x1="17.1263" y1="30.9376" x2="474.333" y2="555.654" gradientUnits="userSpaceOnUse">
<stop stop-color="#1BA2D7"/>
<stop offset="1" stop-color="#8D3DFA"/>
</linearGradient>
</defs>
</svg>
