<svg width="443" height="455" viewBox="0 0 443 455" fill="none" xmlns="http://www.w3.org/2000/svg">
<path fill-rule="evenodd" clip-rule="evenodd" d="M221.403 274.27C210.809 274.27 202.181 265.645 202.181 255.039C202.181 244.441 210.809 235.816 221.403 235.816C232.009 235.816 240.637 244.441 240.637 255.039C240.638 265.645 232.01 274.27 221.403 274.27ZM221.403 222.054C203.219 222.054 188.421 236.854 188.421 255.041C188.421 273.236 203.219 288.034 221.403 288.034C239.6 288.034 254.397 273.236 254.397 255.041C254.397 236.854 239.6 222.054 221.403 222.054ZM429.052 239.671V203.142L402.164 194.408C400.98 194.026 399.922 193.33 399.102 192.394C398.283 191.459 397.732 190.319 397.508 189.095C395.787 179.652 393.305 170.364 390.086 161.322C389.67 160.154 389.578 158.895 389.818 157.678C390.059 156.462 390.624 155.333 391.454 154.411L410.363 133.401L392.103 101.773L364.403 107.654C363.19 107.915 361.929 107.843 360.755 107.444C359.581 107.045 358.537 106.334 357.734 105.388C351.512 98.0944 344.721 91.3046 337.427 85.0821C336.483 84.2781 335.774 83.2336 335.375 82.0594C334.976 80.8851 334.902 79.6247 335.16 78.4118L341.052 50.7116L309.415 32.4526L288.407 51.3638C287.486 52.1962 286.357 52.763 285.14 53.0036C283.922 53.2442 282.662 53.1495 281.495 52.7299C272.451 49.5139 263.162 47.0316 253.72 45.3069C252.499 45.0817 251.361 44.5315 250.426 43.7143C249.491 42.8971 248.794 41.843 248.408 40.663L239.675 13.7615H203.144L194.399 40.663C194.016 41.8427 193.321 42.897 192.388 43.7144C191.455 44.5318 190.319 45.082 189.099 45.3069C179.656 47.0282 170.367 49.5106 161.324 52.7299C160.155 53.1472 158.895 53.2405 157.677 53C156.459 52.7596 155.329 52.1942 154.406 51.3638L133.404 32.4526L101.766 50.7116L107.652 78.4118C107.912 79.6242 107.839 80.8842 107.441 82.0585C107.043 83.2327 106.334 84.2775 105.391 85.0821C98.0915 91.2985 91.3009 98.0888 85.0842 105.388C84.2809 106.333 83.2368 107.042 82.0627 107.441C80.8886 107.84 79.6284 107.914 78.4159 107.654L50.7157 101.773L32.4444 133.401L51.3649 154.411C52.1927 155.336 52.7565 156.466 52.9974 157.684C53.2383 158.901 53.1473 160.161 52.734 161.331C49.5147 170.371 47.0286 179.655 45.2997 189.094C45.0781 190.317 44.5291 191.457 43.7112 192.392C42.8933 193.328 41.8371 194.024 40.6549 194.407L13.7605 203.141V239.67L40.6549 248.414C43.0613 249.192 44.8532 251.229 45.2997 253.728C47.0256 263.167 49.5118 272.452 52.734 281.49C53.1475 282.661 53.2386 283.92 52.9977 285.138C52.7569 286.355 52.1929 287.485 51.3649 288.41L32.4444 309.412L50.7157 341.048L78.4159 335.159C79.6284 334.904 80.8872 334.979 82.0605 335.378C83.2338 335.776 84.2782 336.483 85.0842 337.424C91.3017 344.723 98.0923 351.513 105.391 357.73C106.334 358.536 107.041 359.58 107.439 360.755C107.837 361.929 107.911 363.188 107.652 364.401L102.474 388.797C106.386 388.382 110.342 388.67 114.152 389.649C118.913 377.3 130.841 368.759 144.734 368.759C159.985 368.759 172.84 379.225 176.481 393.348C183.81 386.497 188.136 379.739 191.431 369.667C121.055 355.493 70.1645 293.419 70.1645 221.41C70.1645 138.015 138.008 70.1645 221.403 70.1645C304.799 70.1645 372.648 138.016 372.648 221.41C372.648 293.406 321.754 355.494 251.388 369.669C254.703 379.807 258.983 386.442 266.325 393.35C269.979 379.227 282.834 368.761 298.072 368.761C311.966 368.761 323.893 377.302 328.654 389.651C332.469 388.673 336.428 388.384 340.344 388.8L335.159 364.403C334.902 363.19 334.977 361.93 335.376 360.756C335.775 359.582 336.483 358.537 337.426 357.732C344.725 351.515 351.516 344.725 357.733 337.426C358.539 336.485 359.583 335.778 360.757 335.379C361.93 334.981 363.189 334.905 364.402 335.161L392.102 341.05L410.362 309.414L391.453 288.412C390.622 287.489 390.057 286.358 389.816 285.14C389.575 283.922 389.668 282.662 390.085 281.493C393.304 272.45 395.787 263.161 397.507 253.718C397.73 252.497 398.28 251.36 399.098 250.426C399.916 249.493 400.971 248.798 402.151 248.415L429.052 239.671ZM245.821 329.389C246.042 338.397 246.645 347.6 248.141 356.29C311.717 343.721 358.888 286.86 358.888 221.41C358.888 145.606 297.215 83.927 221.404 83.927C145.605 83.927 83.9311 145.605 83.9311 221.41C83.9311 286.859 131.097 343.72 194.679 356.29C196.175 347.601 196.778 338.397 196.998 329.389H173.3C172.396 329.39 171.501 329.212 170.665 328.866C169.83 328.521 169.071 328.014 168.432 327.375C167.793 326.736 167.286 325.977 166.94 325.142C166.594 324.307 166.416 323.412 166.416 322.508C166.416 309.744 165.987 297.182 165.506 284.941L131.961 298.577C127.501 300.397 122.486 297.135 122.486 292.2V252.029C122.486 249.984 123.402 248.037 124.979 246.735L165.198 213.39C168.26 173.469 180.043 135.528 216.649 100.461C217.928 99.2319 219.633 98.5458 221.407 98.5458C223.18 98.5458 224.885 99.2319 226.165 100.461C262.777 135.528 274.56 173.469 277.622 213.39L317.841 246.735C318.62 247.38 319.247 248.189 319.677 249.104C320.107 250.019 320.329 251.018 320.329 252.029V292.2C320.329 297.087 315.371 300.407 310.854 298.577L277.303 284.941C276.833 297.182 276.404 309.744 276.404 322.508C276.403 324.333 275.677 326.083 274.387 327.373C273.096 328.663 271.346 329.388 269.521 329.389H245.821ZM184.878 178.223C190.943 156.166 201.955 135.201 221.403 115.133C240.857 135.2 251.875 156.165 257.94 178.223H184.878ZM278.485 231.982L306.562 255.269V281.978L277.871 270.316C278.357 257.38 278.723 244.59 278.485 231.982ZM164.937 270.316L136.245 281.978V255.269L164.334 231.982C164.096 244.59 164.462 257.38 164.937 270.316ZM180.135 315.624H262.672C263.125 274.717 268.058 229.62 261.089 191.988H181.724C174.754 229.581 179.682 274.728 180.135 315.624ZM336.859 440.421H105.959C95.4645 440.421 86.9284 431.886 86.9284 421.4C86.9284 406.61 103.064 397.679 115.504 404.939C119.821 407.458 125.316 404.639 125.808 399.664C126.77 389.892 134.9 382.524 144.734 382.524C156.853 382.524 165.862 393.731 163.33 405.562C162.058 411.506 168.617 416.092 173.755 412.813C180.674 408.412 186.897 403.003 192.218 396.765C206.952 379.461 210.182 353.604 210.762 329.39H232.049C232.623 353.594 235.853 379.46 250.598 396.765C255.917 403.006 262.14 408.415 269.061 412.813C274.186 416.084 280.762 411.518 279.481 405.562C276.935 393.723 285.969 382.524 298.072 382.524C307.913 382.524 316.047 389.893 317.005 399.664C317.489 404.634 322.998 407.46 327.314 404.939C339.748 397.68 355.879 406.609 355.879 421.4C355.879 431.886 347.343 440.421 336.859 440.421ZM438.062 191.6L410.27 182.571C408.745 175.14 406.782 167.805 404.39 160.606L423.943 138.895C424.915 137.815 425.519 136.454 425.67 135.009C425.821 133.564 425.511 132.108 424.784 130.85L401.526 90.5605C400.799 89.3013 399.692 88.3045 398.364 87.7129C397.036 87.1214 395.555 86.9654 394.132 87.2673L365.505 93.3499C360.471 87.7023 355.116 82.3501 349.466 77.3202L355.548 48.683C355.853 47.2621 355.698 45.7811 355.106 44.4538C354.514 43.1266 353.516 42.0218 352.255 41.2989L311.966 18.0296C310.706 17.3051 309.25 16.9968 307.805 17.1485C306.359 17.3002 304.999 17.9042 303.917 18.8744L282.207 38.4266C275.008 36.0363 267.674 34.0759 260.242 32.556L251.214 4.75239C250.766 3.37079 249.891 2.16669 248.716 1.31288C247.541 0.459074 246.126 -0.000538596 244.674 1.30368e-06H198.145C196.692 -0.000893137 195.276 0.458483 194.099 1.31225C192.923 2.16601 192.048 3.3703 191.599 4.75239L182.564 32.556C175.137 34.0778 167.806 36.0381 160.61 38.4266L138.9 18.8744C137.819 17.9043 136.458 17.3004 135.013 17.1487C133.568 16.9971 132.112 17.3053 130.852 18.0296L90.5523 41.2989C89.2938 42.0236 88.2979 43.1291 87.7081 44.4562C87.1182 45.7832 86.965 47.2633 87.2704 48.683L93.353 77.3202C87.6995 82.347 82.3441 87.6993 77.3141 93.3499L48.6861 87.2673C47.2638 86.9616 45.7811 87.1159 44.4522 87.7078C43.1233 88.2998 42.0169 89.2987 41.2928 90.5605L18.0285 130.85C16.5325 133.427 16.8868 136.675 18.8754 138.895L38.4287 160.606C36.0356 167.805 34.0702 175.14 32.5427 182.571L4.75546 191.6C3.37431 192.05 2.17078 192.925 1.31674 194.1C0.462703 195.275 0.00184769 196.69 7.18272e-07 198.143V244.67C-0.000663398 246.124 0.459221 247.54 1.31361 248.716C2.16801 249.891 3.37296 250.766 4.75546 251.214L32.5427 260.25C34.0701 267.678 36.0355 275.011 38.4287 282.207L18.8754 303.927C17.9031 305.005 17.2974 306.364 17.1452 307.808C16.9931 309.252 17.3023 310.707 18.0285 311.964L41.2928 352.261C42.0199 353.52 43.127 354.516 44.4553 355.106C45.7836 355.696 47.2647 355.85 48.6861 355.546L77.3141 349.465C82.3451 355.117 87.7004 360.471 93.353 365.501L87.2704 394.13C87.2417 394.259 87.2294 394.389 87.212 394.515C72.2739 404.977 68.6264 425.51 79.274 440.421H13.6335C9.82938 440.421 6.75635 443.505 6.75635 447.303C6.75635 451.101 9.82938 454.184 13.6335 454.184H429.184C431.008 454.183 432.758 453.457 434.047 452.167C435.337 450.877 436.061 449.127 436.061 447.303C436.061 443.504 432.982 440.421 429.184 440.421H363.538C367.514 434.876 369.65 428.223 369.645 421.4C369.645 410.289 364.083 400.452 355.607 394.515L349.466 365.501C355.12 360.473 360.475 355.118 365.505 349.465L394.132 355.546C395.554 355.85 397.035 355.696 398.363 355.106C399.691 354.515 400.799 353.52 401.526 352.261L424.784 311.964C425.511 310.707 425.821 309.253 425.67 307.809C425.519 306.365 424.915 305.006 423.943 303.927L404.39 282.207C406.779 275.01 408.741 267.678 410.265 260.25L438.063 251.214C439.445 250.765 440.65 249.891 441.504 248.715C442.358 247.54 442.818 246.124 442.818 244.67V198.143C442.816 196.69 442.355 195.275 441.501 194.1C440.647 192.925 439.443 192.05 438.062 191.6Z" fill="#00ECE5"/>
</svg>
