<svg width="498" height="486" viewBox="0 0 498 486" fill="none" xmlns="http://www.w3.org/2000/svg">
<path fill-rule="evenodd" clip-rule="evenodd" d="M245.97 417.373H16.0627V423.06H248.963C253.395 423.06 256.994 426.659 256.994 431.092C256.994 435.525 253.395 439.123 248.963 439.123H8.03137C5.90132 439.123 3.85851 438.277 2.35233 436.771C0.84616 435.265 0 433.222 0 431.092V409.342C0 407.212 0.84616 405.169 2.35233 403.663C3.85851 402.156 5.90132 401.31 8.03137 401.31H28.1309V304.961C28.1309 302.831 28.977 300.788 30.4832 299.282C31.9894 297.776 34.0322 296.93 36.1623 296.93H93.7161C95.8461 296.93 97.8889 297.776 99.3951 299.282C100.901 300.788 101.747 302.831 101.747 304.961V401.31H135.019V247.085C135.019 244.955 135.866 242.912 137.372 241.406C138.878 239.9 140.921 239.053 143.051 239.053H200.605C202.735 239.053 204.777 239.9 206.284 241.406C207.79 242.912 208.636 244.955 208.636 247.085V401.31H245.97C250.402 401.31 254.001 404.909 254.001 409.342C254.001 413.775 250.402 417.373 245.97 417.373ZM85.6847 401.31V312.992H44.1936V401.31H85.6847ZM192.573 401.31V255.116H151.082V401.31H192.573ZM315.525 231.865C315.525 236.298 311.925 239.897 307.493 239.897C303.061 239.897 299.462 236.298 299.462 231.865V194.707H257.947V294.175C257.947 298.608 254.348 302.206 249.915 302.206C245.482 302.206 241.884 298.608 241.884 294.175V186.676C241.884 184.546 242.73 182.503 244.236 180.997C245.742 179.491 247.785 178.645 249.915 178.645H307.493C309.623 178.645 311.666 179.491 313.172 180.997C314.678 182.503 315.525 184.546 315.525 186.676V231.865ZM364.835 200.097C364.835 204.53 361.236 208.129 356.804 208.129C352.37 208.129 348.772 204.53 348.772 200.097V132.326C348.772 130.196 349.619 128.153 351.125 126.647C352.631 125.14 354.674 124.294 356.804 124.294H414.357C416.487 124.294 418.529 125.14 420.036 126.647C421.542 128.153 422.388 130.196 422.388 132.326V229.178C422.388 233.61 418.79 237.209 414.357 237.209C409.924 237.209 406.325 233.61 406.325 229.178V140.357H364.835V200.097ZM320.665 89.6238C298.722 122.416 267.084 152.079 227.585 174.124L227.582 174.125C164.576 209.26 95.6155 217.187 39.924 201.147C38.0577 200.611 36.4492 199.416 35.3961 197.784C34.343 196.153 33.9168 194.195 34.1962 192.273C34.4756 190.352 35.4417 188.596 36.9158 187.332C38.3899 186.068 40.2721 185.381 42.2139 185.398C82.0726 185.735 122.233 176.626 165.532 152.474C202.765 131.703 245.794 91.8244 270.036 55.6571L251.156 43.0087C249.922 42.1829 248.942 41.0312 248.323 39.6815C247.704 38.3318 247.472 36.8371 247.652 35.3634C247.832 33.8896 248.417 32.4946 249.342 31.3333C250.267 30.1721 251.496 29.29 252.892 28.7851L331.078 0.479556C332.224 0.0649971 333.448 -0.0836669 334.659 0.0448112C335.87 0.173289 337.036 0.575544 338.069 1.22114C339.102 1.86674 339.974 2.73877 340.62 3.77125C341.266 4.80374 341.669 5.96964 341.798 7.18073L351.059 94.1324C351.221 95.6516 350.945 97.1853 350.266 98.5536C349.586 99.9218 348.531 101.068 347.223 101.857C345.915 102.647 344.409 103.047 342.881 103.011C341.354 102.974 339.869 102.503 338.6 101.653L320.665 89.6238ZM322.817 71.7269L333.266 78.7342L326.911 19.0712L273.27 38.49L285.52 46.6971C287.245 47.8518 288.455 49.6293 288.897 51.6568C289.34 53.6844 288.98 55.8045 287.894 57.5726C263.43 97.4032 214.972 143.286 173.357 166.502C151.706 178.578 130.786 187.104 110.289 192.71C146.143 190.752 183.969 180.054 219.758 160.097C259.501 137.915 290.826 107.585 311.515 74.1694C312.083 73.2517 312.83 72.458 313.712 71.8355C314.594 71.213 315.592 70.7745 316.647 70.5463C317.702 70.3185 318.792 70.3057 319.852 70.5085C320.912 70.7114 321.921 71.1257 322.817 71.7269ZM397.002 243.971C405.854 246.431 414.374 249.961 422.372 254.484L438.653 247.246C440.136 246.586 441.785 246.391 443.381 246.688C444.977 246.984 446.446 247.757 447.594 248.905L471.224 272.534C472.371 273.681 473.143 275.148 473.44 276.742C473.737 278.336 473.544 279.983 472.887 281.465L465.674 297.75C470.204 305.761 473.737 314.295 476.195 323.164L492.798 329.554C494.313 330.137 495.616 331.165 496.535 332.503C497.453 333.841 497.945 335.426 497.945 337.049V370.473C497.945 372.096 497.453 373.681 496.534 375.019C495.616 376.357 494.313 377.385 492.798 377.968L476.191 384.36C473.719 393.209 470.186 401.728 465.67 409.729L472.887 426.023C473.544 427.506 473.737 429.152 473.44 430.747C473.143 432.341 472.37 433.808 471.224 434.955L447.594 458.583C446.448 459.73 444.981 460.503 443.386 460.8C441.792 461.097 440.145 460.904 438.663 460.248L422.384 453.036C414.383 457.563 405.858 461.095 397 463.552L390.609 480.158C390.026 481.673 388.997 482.976 387.659 483.894C386.321 484.813 384.736 485.305 383.113 485.304H349.689C348.066 485.304 346.481 484.813 345.143 483.894C343.805 482.975 342.777 481.673 342.194 480.158L335.804 463.554C326.942 461.086 318.411 457.552 310.4 453.03L294.106 460.248C292.623 460.904 290.976 461.097 289.382 460.8C287.788 460.503 286.321 459.73 285.174 458.583L261.546 434.955C260.397 433.807 259.624 432.338 259.328 430.741C259.032 429.145 259.226 427.496 259.886 426.013L267.122 409.737C262.599 401.736 259.062 393.216 256.588 384.364L239.97 377.968C238.456 377.385 237.153 376.357 236.234 375.019C235.315 373.681 234.823 372.096 234.823 370.473V337.049C234.823 335.426 235.315 333.841 236.234 332.503C237.153 331.165 238.455 330.137 239.97 329.554L256.585 323.16C259.059 314.297 262.598 305.767 267.124 297.756L259.886 281.476C259.226 279.993 259.032 278.344 259.328 276.748C259.624 275.151 260.397 273.682 261.546 272.534L285.174 248.905C286.322 247.757 287.791 246.984 289.387 246.688C290.984 246.391 292.632 246.586 294.116 247.246L310.396 254.485C318.397 249.961 326.919 246.429 335.774 243.969L342.197 227.324C342.78 225.811 343.809 224.51 345.146 223.592C346.483 222.675 348.067 222.184 349.689 222.184H383.113C384.736 222.183 386.322 222.676 387.661 223.595C388.999 224.514 390.027 225.818 390.61 227.334L397.002 243.971ZM383.492 253.594L377.595 238.246H355.199L349.272 253.604C348.803 254.821 348.045 255.905 347.063 256.762C346.081 257.62 344.905 258.225 343.636 258.527C333.564 260.92 323.939 264.908 315.127 270.342C314.015 271.026 312.754 271.43 311.451 271.517C310.148 271.605 308.844 271.373 307.651 270.843L292.631 264.165L276.804 279.99L283.482 295.011C284.013 296.204 284.244 297.508 284.157 298.811C284.07 300.114 283.666 301.376 282.981 302.487C277.543 311.319 273.542 320.959 271.129 331.047C270.825 332.313 270.219 333.486 269.361 334.465C268.503 335.445 267.42 336.201 266.205 336.669L250.886 342.564V364.958L266.205 370.853C267.419 371.321 268.501 372.076 269.359 373.054C270.217 374.033 270.824 375.204 271.128 376.469C273.554 386.546 277.532 396.188 282.975 404.991C283.663 406.103 284.069 407.367 284.157 408.671C284.246 409.976 284.014 411.283 283.482 412.478L276.804 427.498L292.637 443.33L307.661 436.674C308.85 436.148 310.149 435.918 311.446 436.005C312.744 436.091 314.001 436.491 315.11 437.17C323.944 442.583 333.555 446.598 343.664 448.994C344.935 449.295 346.113 449.901 347.097 450.76C348.08 451.619 348.839 452.705 349.309 453.924L355.205 469.242H377.598L383.494 453.924C383.963 452.706 384.721 451.621 385.703 450.762C386.686 449.903 387.863 449.296 389.132 448.995C399.202 446.61 408.824 442.623 417.63 437.187C418.741 436.501 420.003 436.095 421.306 436.006C422.608 435.916 423.913 436.146 425.108 436.674L440.132 443.33L455.97 427.492L449.315 412.467C448.789 411.278 448.559 409.979 448.645 408.682C448.731 407.385 449.131 406.127 449.81 405.019C455.223 396.183 459.24 386.572 461.635 376.492C461.937 375.223 462.543 374.046 463.402 373.063C464.261 372.081 465.347 371.322 466.565 370.853L481.882 364.958V342.564L466.565 336.669C465.346 336.2 464.26 335.441 463.401 334.457C462.542 333.474 461.935 332.295 461.634 331.025C459.247 320.942 455.259 311.307 449.821 302.487C449.137 301.377 448.734 300.118 448.645 298.817C448.557 297.516 448.787 296.213 449.315 295.021L455.97 279.996L440.137 264.165L425.118 270.843C423.925 271.373 422.62 271.605 421.318 271.517C420.015 271.43 418.753 271.026 417.641 270.342C408.829 264.908 399.204 260.92 389.132 258.527C387.862 258.225 386.684 257.618 385.702 256.759C384.719 255.899 383.96 254.813 383.492 253.594ZM366.378 266.027C414.84 266.027 454.135 305.275 454.135 353.737C454.135 402.199 414.839 441.494 366.378 441.494C317.916 441.494 278.668 402.201 278.668 353.737C278.668 305.274 317.915 266.027 366.378 266.027ZM366.378 282.09C326.79 282.09 294.73 314.15 294.73 353.737C294.73 393.328 326.789 425.432 366.378 425.432C405.969 425.432 438.072 393.329 438.072 353.737C438.072 314.148 405.968 282.09 366.378 282.09ZM369.561 297.021L410.873 314.73C412.318 315.349 413.549 316.379 414.414 317.691C415.279 319.003 415.74 320.54 415.74 322.112V355.504C415.74 382.63 396.006 406.066 369.3 410.727L367.801 410.993C366.872 411.158 365.921 411.158 364.992 410.993L363.492 410.727C336.798 406.066 317.063 382.63 317.063 355.504V322.112C317.063 320.541 317.524 319.004 318.389 317.692C319.254 316.38 320.484 315.35 321.929 314.731L363.231 297.021C364.231 296.592 365.308 296.371 366.396 296.371C367.484 296.371 368.561 296.592 369.561 297.021ZM366.396 313.141L333.125 327.407V355.504C333.125 374.864 347.216 391.587 366.272 394.906L366.298 394.911L366.396 394.928L366.495 394.911L366.522 394.906C385.585 391.587 399.677 374.864 399.677 355.504V327.408L366.396 313.141ZM345.717 360.312C344.212 358.805 343.367 356.763 343.367 354.633C343.367 352.503 344.212 350.46 345.717 348.954C347.224 347.449 349.267 346.603 351.397 346.603C353.526 346.603 355.569 347.449 357.076 348.954L360.409 352.287L375.976 338.165C377.554 336.734 379.635 335.989 381.762 336.093C383.889 336.196 385.888 337.14 387.32 338.717C388.75 340.295 389.496 342.376 389.392 344.503C389.289 346.63 388.345 348.63 386.768 350.061L365.535 369.323C364.007 370.709 362.005 371.454 359.943 371.404C357.882 371.354 355.918 370.513 354.46 369.054L345.717 360.312Z" fill="url(#paint0_linear_1075_531)"/>
<defs>
<linearGradient id="paint0_linear_1075_531" x1="17.7666" y1="31.2795" x2="478.253" y2="573.525" gradientUnits="userSpaceOnUse">
<stop stop-color="#1BA2D7"/>
<stop offset="1" stop-color="#8D3DFA"/>
</linearGradient>
</defs>
</svg>
