<svg width="494" height="466" viewBox="0 0 494 466" fill="none" xmlns="http://www.w3.org/2000/svg">
<path d="M258.139 351.026H235.86C227.965 351.026 221.543 344.603 221.543 336.709C221.543 328.012 215.913 322.581 210.645 320.398C205.378 318.216 197.556 318.075 191.407 324.225C188.703 326.929 185.107 328.418 181.282 328.418C177.457 328.418 173.861 326.928 171.158 324.224L155.404 308.471C149.822 302.888 149.822 293.805 155.404 288.222C161.544 282.083 161.397 274.262 159.214 268.99C157.029 263.719 151.603 258.085 142.921 258.085C135.026 258.085 128.604 251.662 128.604 243.768V221.49C128.604 213.595 135.027 207.173 142.921 207.173C151.603 207.173 157.029 201.539 159.214 196.268C161.398 190.996 161.544 183.175 155.404 177.037C152.7 174.333 151.211 170.737 151.211 166.912C151.211 163.087 152.701 159.491 155.405 156.788L171.158 141.034C173.861 138.331 177.457 136.841 181.282 136.841C185.107 136.841 188.703 138.33 191.407 141.034C197.545 147.174 205.366 147.025 210.638 144.844C215.909 142.66 221.543 137.234 221.543 128.552C221.543 120.656 227.966 114.234 235.86 114.234H258.138C266.033 114.234 272.454 120.657 272.454 128.552C272.454 137.234 278.088 142.659 283.359 144.844C288.632 147.027 296.455 147.173 302.592 141.034C308.176 135.453 317.257 135.452 322.841 141.034L338.595 156.788C341.298 159.491 342.788 163.087 342.788 166.912C342.788 170.737 341.299 174.333 338.595 177.037C332.455 183.176 332.602 190.996 334.785 196.268C336.969 201.539 342.395 207.173 351.077 207.173C358.972 207.173 365.394 213.596 365.394 221.49V243.768C365.394 251.663 358.971 258.085 351.077 258.085C342.395 258.085 336.97 263.719 334.785 268.99C332.601 274.262 332.455 282.084 338.595 288.222C344.177 293.805 344.177 302.888 338.595 308.471L322.841 324.225C317.256 329.808 308.175 329.806 302.592 324.225C296.453 318.085 288.633 318.233 283.359 320.415C278.088 322.6 272.454 328.026 272.454 336.708C272.455 344.603 266.033 351.026 258.139 351.026ZM203.688 304.974C207.795 304.974 211.963 305.79 216.002 307.464C228.056 312.456 235.543 323.662 235.543 336.708C235.543 336.883 235.686 337.025 235.86 337.025H258.138C258.222 337.025 258.302 336.992 258.361 336.932C258.421 336.873 258.454 336.792 258.454 336.708C258.454 323.675 265.945 312.476 278.003 307.481C290.062 302.484 303.276 305.109 312.493 314.324C312.522 314.354 312.557 314.378 312.595 314.394C312.634 314.41 312.675 314.418 312.717 314.418C312.758 314.418 312.799 314.41 312.838 314.394C312.876 314.378 312.911 314.354 312.941 314.324L328.695 298.57C328.724 298.541 328.747 298.506 328.763 298.468C328.779 298.429 328.788 298.388 328.788 298.346C328.788 298.305 328.779 298.264 328.763 298.225C328.747 298.187 328.724 298.152 328.695 298.122C319.479 288.905 316.857 275.69 321.852 263.632C326.846 251.574 338.044 244.084 351.078 244.084C351.162 244.084 351.242 244.051 351.301 243.991C351.361 243.932 351.394 243.851 351.395 243.767V221.489C351.394 221.405 351.361 221.325 351.301 221.266C351.242 221.206 351.162 221.173 351.078 221.172C338.045 221.172 326.847 213.682 321.852 201.624C316.857 189.566 319.479 176.351 328.695 167.135C328.725 167.107 328.75 167.072 328.766 167.033C328.782 166.994 328.79 166.952 328.789 166.91C328.79 166.869 328.782 166.827 328.766 166.788C328.75 166.75 328.726 166.715 328.696 166.686L312.941 150.932C312.911 150.903 312.876 150.879 312.838 150.863C312.799 150.847 312.758 150.838 312.717 150.838C312.675 150.838 312.634 150.847 312.595 150.863C312.557 150.879 312.522 150.903 312.493 150.932C303.275 160.148 290.059 162.77 278.003 157.775C265.945 152.781 258.454 141.583 258.454 128.549C258.454 128.465 258.421 128.384 258.362 128.325C258.302 128.265 258.222 128.232 258.138 128.231H235.86C235.775 128.232 235.695 128.265 235.635 128.325C235.576 128.384 235.543 128.465 235.543 128.549C235.543 141.582 228.053 152.78 215.995 157.775C203.936 162.771 190.722 160.146 181.506 150.932C181.477 150.901 181.442 150.877 181.403 150.861C181.364 150.845 181.323 150.837 181.281 150.838C181.239 150.837 181.197 150.844 181.158 150.861C181.12 150.877 181.085 150.901 181.057 150.931L165.303 166.686C165.272 166.715 165.247 166.749 165.231 166.788C165.215 166.827 165.207 166.868 165.209 166.91C165.207 166.952 165.214 166.994 165.231 167.033C165.247 167.072 165.271 167.107 165.303 167.135C174.518 176.351 177.141 189.567 172.146 201.624C167.152 213.682 155.953 221.172 142.919 221.172C142.835 221.173 142.754 221.206 142.695 221.266C142.635 221.325 142.602 221.405 142.602 221.489V243.767C142.602 243.942 142.745 244.084 142.919 244.084C155.952 244.084 167.151 251.574 172.146 263.632C177.141 275.691 174.519 288.906 165.303 298.122C165.273 298.152 165.25 298.187 165.234 298.225C165.218 298.264 165.209 298.305 165.209 298.346C165.209 298.388 165.218 298.429 165.234 298.468C165.25 298.506 165.273 298.541 165.303 298.57L181.057 314.324C181.085 314.355 181.12 314.38 181.158 314.396C181.197 314.412 181.239 314.42 181.281 314.418C181.323 314.42 181.365 314.412 181.403 314.396C181.442 314.38 181.477 314.355 181.506 314.324C187.64 308.192 195.54 304.974 203.688 304.974ZM247 294.067C213.123 294.067 185.562 266.505 185.562 232.629C185.562 198.753 213.123 171.191 247 171.191C280.877 171.191 308.438 198.752 308.438 232.629C308.438 266.506 280.877 294.067 247 294.067ZM247 185.191C220.843 185.191 199.562 206.471 199.562 232.629C199.562 258.787 220.842 280.067 247 280.067C273.158 280.067 294.438 258.786 294.438 232.629C294.438 206.472 273.157 185.191 247 185.191Z" fill="url(#paint0_linear_1075_527)"/>
<path d="M442.741 465.254C440.885 465.254 439.105 464.516 437.793 463.203C436.48 461.891 435.743 460.111 435.743 458.254V436.758H247C134.441 436.758 42.8683 345.185 42.8683 232.627C42.8683 184.362 60.0373 137.522 91.2133 100.734C91.8703 99.9588 92.6883 99.3357 93.6105 98.9083C94.5327 98.4809 95.5369 98.2594 96.5533 98.2593H158.02C159.509 98.2593 160.959 98.7339 162.16 99.6143C163.361 100.495 164.249 101.735 164.697 103.155C165.144 104.575 165.128 106.101 164.649 107.51C164.17 108.92 163.254 110.141 162.034 110.994C122.335 138.781 98.6343 184.252 98.6343 232.627C98.6343 314.437 165.192 380.994 247.001 380.994H435.744V359.498C435.744 358.081 436.174 356.697 436.978 355.53C437.781 354.363 438.92 353.466 440.243 352.96C441.567 352.454 443.013 352.361 444.39 352.694C445.768 353.028 447.012 353.771 447.957 354.826L492.214 404.204C493.365 405.488 494.002 407.152 494.002 408.876C494.002 410.601 493.365 412.264 492.214 413.548L447.957 462.926C447.3 463.659 446.496 464.245 445.597 464.646C444.699 465.047 443.725 465.255 442.741 465.254ZM99.8323 112.26C72.1033 146.135 56.8683 188.748 56.8683 232.627C56.8683 337.466 142.161 422.758 247 422.758H442.743C444.6 422.758 446.38 423.496 447.693 424.809C449.006 426.121 449.743 427.902 449.743 429.758V439.956L477.599 408.876L449.743 377.796V387.994C449.743 389.851 449.006 391.631 447.693 392.944C446.38 394.257 444.6 394.994 442.743 394.994H247C157.471 394.994 84.6333 322.156 84.6333 232.627C84.6333 186.534 104.291 142.855 138.047 112.26H99.8323ZM51.2583 465.254C50.2742 465.255 49.3012 465.047 48.4026 464.646C47.5041 464.245 46.7001 463.659 46.0433 462.926L1.78728 413.548C0.636429 412.264 0 410.601 0 408.876C0 407.152 0.636429 405.488 1.78728 404.204L46.0433 354.826C46.989 353.771 48.2329 353.028 49.6103 352.694C50.9876 352.361 52.4337 352.454 53.7573 352.96C55.0809 353.466 56.2197 354.363 57.023 355.53C57.8263 356.697 58.2563 358.081 58.2563 359.498V380.994H84.0813C85.9943 380.994 87.8243 381.777 89.1453 383.162C104.475 399.238 122.164 412.884 141.604 423.632C142.963 424.383 144.033 425.564 144.647 426.99C145.26 428.415 145.383 430.004 144.995 431.507C144.607 433.01 143.731 434.341 142.504 435.292C141.277 436.242 139.769 436.758 138.217 436.758H58.2563V458.254C58.2563 460.111 57.5191 461.891 56.2067 463.203C54.8944 464.516 53.1145 465.254 51.2583 465.254ZM16.3993 408.876L44.2553 439.956V429.758C44.2553 427.902 44.9928 426.121 46.3055 424.809C47.6183 423.496 49.3988 422.758 51.2553 422.758H113.815C102.083 414.53 91.135 405.236 81.1113 394.994H51.2563C49.3998 394.994 47.6193 394.257 46.3065 392.944C44.9938 391.631 44.2563 389.851 44.2563 387.994V377.796L16.3993 408.876ZM397.447 366.994H335.98C334.491 366.994 333.041 366.52 331.841 365.639C330.64 364.759 329.751 363.519 329.304 362.099C328.856 360.679 328.873 359.153 329.352 357.743C329.831 356.333 330.746 355.113 331.966 354.259C371.664 326.472 395.365 281.002 395.365 232.626C395.365 150.816 328.808 84.2603 246.999 84.2603H58.2563V105.755C58.2563 107.172 57.8263 108.556 57.023 109.724C56.2197 110.891 55.0809 111.787 53.7573 112.294C52.4337 112.8 50.9876 112.893 49.6103 112.559C48.2329 112.226 46.989 111.483 46.0433 110.427L1.78728 61.0503C0.636429 59.7663 0 58.1026 0 56.3783C0 54.654 0.636429 52.9904 1.78728 51.7063L46.0433 2.32832C46.989 1.27296 48.2329 0.529516 49.6103 0.196282C50.9876 -0.136951 52.4337 -0.044275 53.7573 0.462054C55.0809 0.968384 56.2197 1.86452 57.023 3.03197C57.8263 4.19942 58.2563 5.58319 58.2563 7.00032V28.4963H247C359.558 28.4963 451.131 120.069 451.131 232.627C451.131 280.892 433.962 327.731 402.787 364.52C402.13 365.296 401.312 365.919 400.39 366.346C399.468 366.773 398.464 366.994 397.447 366.994ZM355.953 352.994H394.168C421.897 319.119 437.131 276.505 437.131 232.627C437.131 127.788 351.839 42.4963 247 42.4963H51.2563C49.3998 42.4963 47.6193 41.7588 46.3065 40.4461C44.9938 39.1333 44.2563 37.3528 44.2563 35.4963V25.2983L16.4003 56.3783L44.2563 87.4583V77.2613C44.2563 75.4048 44.9938 73.6243 46.3065 72.3116C47.6193 70.9988 49.3998 70.2613 51.2563 70.2613H247C336.529 70.2613 409.366 143.098 409.366 232.627C409.366 278.72 389.709 322.4 355.953 352.994ZM442.741 112.756C440.885 112.756 439.105 112.018 437.793 110.705C436.48 109.393 435.743 107.612 435.743 105.756V84.2613H409.919C408.972 84.2615 408.035 84.0694 407.164 83.6965C406.294 83.3237 405.508 82.7779 404.854 82.0923C389.525 66.0162 371.836 52.3693 352.396 41.6213C351.038 40.8706 349.967 39.6897 349.353 38.2641C348.739 36.8386 348.616 35.2494 349.004 33.7465C349.392 32.2436 350.269 30.9122 351.496 29.9618C352.723 29.0114 354.231 28.4959 355.783 28.4963H435.743V7.00032C435.743 5.58319 436.173 4.19942 436.977 3.03197C437.78 1.86452 438.919 0.968384 440.242 0.462054C441.566 -0.044275 443.012 -0.136951 444.389 0.196282C445.767 0.529516 447.011 1.27296 447.956 2.32832L492.213 51.7063C493.364 52.9904 494.001 54.654 494.001 56.3783C494.001 58.1026 493.364 59.7663 492.213 61.0503L447.956 110.428C447.299 111.161 446.496 111.747 445.597 112.148C444.698 112.549 443.725 112.757 442.741 112.756ZM412.889 70.2613H442.743C444.6 70.2613 446.38 70.9988 447.693 72.3116C449.006 73.6243 449.743 75.4048 449.743 77.2613V87.4583L477.599 56.3783L449.743 25.2983V35.4963C449.743 37.3528 449.006 39.1333 447.693 40.4461C446.38 41.7588 444.6 42.4963 442.743 42.4963H380.184C391.918 50.724 402.866 60.0186 412.889 70.2613Z" fill="url(#paint1_linear_1075_527)"/>
<defs>
<linearGradient id="paint0_linear_1075_527" x1="137.052" y1="129.496" x2="362.6" y2="388.346" gradientUnits="userSpaceOnUse">
<stop stop-color="#1BA2D7"/>
<stop offset="1" stop-color="#8D3DFA"/>
</linearGradient>
<linearGradient id="paint1_linear_1075_527" x1="17.6259" y1="29.9872" x2="456.396" y2="564.658" gradientUnits="userSpaceOnUse">
<stop stop-color="#1BA2D7"/>
<stop offset="1" stop-color="#8D3DFA"/>
</linearGradient>
</defs>
</svg>
