<svg width="403" height="453" viewBox="0 0 403 453" fill="none" xmlns="http://www.w3.org/2000/svg">
<path fill-rule="evenodd" clip-rule="evenodd" d="M201.025 254.928L176.293 212.091H225.755L201.025 254.928ZM243.585 201.801C242.983 200.757 242.117 199.89 241.073 199.288C240.03 198.685 238.847 198.367 237.642 198.367H164.411C159.13 198.367 155.832 204.101 158.463 208.658L195.086 272.082C197.713 276.65 204.341 276.64 206.973 272.082L243.585 208.658C244.188 207.616 244.506 206.434 244.506 205.23C244.506 204.026 244.188 202.843 243.585 201.801ZM365.287 344.316C352.581 344.316 342.252 333.987 342.252 321.274C342.252 308.567 352.581 298.238 365.287 298.238C377.994 298.238 388.335 308.567 388.335 321.274C388.335 333.986 377.994 344.316 365.287 344.316ZM228.848 392.128C223.532 385.959 216.201 381.578 207.886 380.004V324.819L245.341 259.954L330.585 309.163C327.84 317.007 327.84 325.55 330.585 333.394L228.848 392.128ZM201.025 439.152C188.318 439.152 177.989 428.816 177.989 416.116C177.989 403.409 188.318 393.069 201.025 393.069C213.736 393.069 224.067 403.409 224.067 416.116C224.066 428.816 213.736 439.152 201.025 439.152ZM71.4691 333.392C74.2072 325.547 74.2072 317.006 71.4691 309.161L156.708 259.952L194.163 324.817V380.002C185.848 381.576 178.528 385.957 173.207 392.125L71.4691 333.392ZM36.7606 344.316C24.0589 344.316 13.7247 333.987 13.7247 321.274C13.7247 308.567 24.0599 298.238 36.7606 298.238C49.4725 298.238 59.8026 308.567 59.8026 321.274C59.8016 333.986 49.4725 344.316 36.7606 344.316ZM13.7247 131.597C13.7247 118.902 24.0599 108.56 36.7606 108.56C49.4725 108.56 59.8026 118.901 59.8026 131.597C59.8026 144.309 49.4735 154.644 36.7606 154.644C24.0589 154.643 13.7247 144.309 13.7247 131.597ZM173.206 60.7601C178.527 66.9235 185.846 71.3042 194.162 72.8781V171.203H119.077L71.4691 143.719C74.2072 135.877 74.2072 127.337 71.4691 119.495L173.206 60.7601ZM201.025 13.7196C213.736 13.7196 224.067 24.0599 224.067 36.7667C224.067 49.4684 213.737 59.8088 201.025 59.8088C188.318 59.8088 177.989 49.4684 177.989 36.7667C177.988 24.0599 188.318 13.7196 201.025 13.7196ZM330.585 119.496C327.84 127.337 327.84 135.879 330.585 143.72L282.972 171.204H207.887V72.8791C216.202 71.3052 223.533 66.9245 228.849 60.7611L330.585 119.496ZM365.287 108.56C377.994 108.56 388.335 118.901 388.335 131.597C388.335 144.309 377.994 154.644 365.287 154.644C352.581 154.644 342.252 144.309 342.252 131.597C342.252 118.901 352.581 108.56 365.287 108.56ZM43.6234 285.163C51.9444 286.736 59.2691 291.122 64.5847 297.292L149.845 248.066L112.401 183.19L64.5847 155.586C59.2691 161.754 51.9444 166.135 43.6234 167.72V285.163ZM201.025 309.255L272.808 184.928H129.241L201.025 309.255ZM337.463 297.292C342.79 291.123 350.11 286.736 358.425 285.163V167.72C350.11 166.135 342.79 161.754 337.463 155.586L289.652 183.19L252.203 248.066L337.463 297.292ZM372.15 285.163V167.72C389.161 164.489 402.06 149.532 402.06 131.597C402.06 111.334 385.562 94.8357 365.288 94.8357C354.183 94.8357 344.211 99.7939 337.464 107.619L235.728 48.8786C244.027 25.344 226.529 0 201.025 0C175.652 0 158.02 25.1464 166.321 48.8786L64.5847 107.619C57.8437 99.7939 47.872 94.8357 36.7606 94.8357C16.4925 94.8357 0 111.334 0 131.597C0 149.532 12.8993 164.489 29.9039 167.72V285.163C12.8993 288.387 0 303.351 0 321.274C0 341.547 16.4925 358.041 36.7606 358.041C47.871 358.041 57.8427 353.076 64.5847 345.262L166.321 404.003C158.02 427.771 175.672 452.876 201.025 452.876C226.508 452.876 244.027 427.573 235.728 404.003L337.464 345.262C344.211 353.076 354.183 358.041 365.288 358.041C385.562 358.041 402.06 341.548 402.06 321.274C402.06 303.35 389.161 288.387 372.15 285.163Z" fill="url(#paint0_linear_1075_538)"/>
<defs>
<linearGradient id="paint0_linear_1075_538" x1="14.3454" y1="29.1894" x2="449.737" y2="472.802" gradientUnits="userSpaceOnUse">
<stop stop-color="#1BA2D7"/>
<stop offset="1" stop-color="#8D3DFA"/>
</linearGradient>
</defs>
</svg>
