<svg width="512" height="512" viewBox="0 0 512 512" fill="none" xmlns="http://www.w3.org/2000/svg">
<path d="M363.829 255.051H288.34C286.218 255.051 284.183 255.894 282.683 257.394C281.183 258.894 280.34 260.929 280.34 263.051V503.999C280.34 506.121 281.183 508.156 282.683 509.656C284.183 511.156 286.218 511.999 288.34 511.999H363.829C365.951 511.999 367.986 511.156 369.486 509.656C370.986 508.156 371.829 506.121 371.829 503.999V263.051C371.829 260.929 370.986 258.894 369.486 257.394C367.986 255.894 365.951 255.051 363.829 255.051ZM355.829 495.999H296.34V271.051H355.829V495.999ZM223.658 286.515H148.169C146.047 286.515 144.012 287.358 142.512 288.858C141.012 290.358 140.169 292.393 140.169 294.515V504C140.169 506.122 141.012 508.157 142.512 509.657C144.012 511.157 146.047 512 148.169 512H223.658C225.78 512 227.815 511.157 229.315 509.657C230.815 508.157 231.658 506.122 231.658 504V294.515C231.658 292.393 230.815 290.358 229.315 288.858C227.815 287.358 225.78 286.515 223.658 286.515ZM215.658 496H156.169V302.515H215.658V496ZM83.489 156.028H8C5.87827 156.028 3.84344 156.871 2.34315 158.371C0.842855 159.871 0 161.906 0 164.028L0 503.998C0 506.12 0.842855 508.155 2.34315 509.655C3.84344 511.155 5.87827 511.998 8 511.998H83.489C85.6107 511.998 87.6456 511.155 89.1459 509.655C90.6461 508.155 91.489 506.12 91.489 503.998V164.028C91.489 161.906 90.6461 159.871 89.1459 158.371C87.6456 156.871 85.6107 156.028 83.489 156.028ZM75.489 495.998H16V172.028H75.489V495.998ZM504 348.515H428.512C426.39 348.515 424.355 349.358 422.855 350.858C421.355 352.358 420.512 354.393 420.512 356.515V503.998C420.512 506.12 421.355 508.155 422.855 509.655C424.355 511.155 426.39 511.998 428.512 511.998H504C506.122 511.998 508.157 511.155 509.657 509.655C511.157 508.155 512 506.12 512 503.998V356.515C512 354.393 511.157 352.358 509.657 350.858C508.157 349.358 506.122 348.515 504 348.515ZM496 495.998H436.512V364.515H496V495.998ZM423.122 282.434C422.076 282.339 421.058 282.039 420.128 281.552C419.198 281.064 418.372 280.397 417.7 279.591C417.027 278.784 416.519 277.853 416.207 276.85C415.894 275.847 415.781 274.792 415.876 273.746C415.971 272.7 416.271 271.682 416.758 270.752C417.246 269.822 417.913 268.997 418.719 268.324C419.526 267.651 420.457 267.143 421.46 266.831C422.463 266.518 423.518 266.405 424.564 266.5L439.849 267.883L324.516 178.078L188.379 222.2C186.971 222.657 185.464 222.713 184.026 222.364C182.587 222.015 181.274 221.273 180.232 220.222L40.064 78.857C39.3116 78.1138 38.7141 77.2288 38.306 76.2532C37.8978 75.2776 37.6872 74.2307 37.6862 73.1731C37.6852 72.1156 37.8939 71.0684 38.3002 70.092C38.7065 69.1156 39.3024 68.2295 40.0534 67.4849C40.8043 66.7402 41.6955 66.1519 42.6753 65.7539C43.6551 65.3559 44.704 65.1561 45.7615 65.166C46.819 65.176 47.8641 65.3955 48.8362 65.8119C49.8083 66.2283 50.6882 66.8334 51.425 67.592L188.128 205.463L323.618 161.549C324.861 161.146 326.184 161.054 327.47 161.28C328.757 161.506 329.969 162.044 331 162.847L451.218 256.456L444.856 235.627C444.236 233.598 444.448 231.406 445.444 229.532C446.441 227.659 448.141 226.259 450.17 225.639C451.175 225.332 452.23 225.226 453.276 225.326C454.322 225.427 455.337 225.733 456.265 226.227C457.192 226.72 458.014 227.392 458.682 228.203C459.35 229.013 459.851 229.948 460.158 230.953L473.908 275.968C474.291 277.222 474.36 278.552 474.108 279.839C473.857 281.126 473.293 282.331 472.466 283.349C471.639 284.367 470.574 285.166 469.366 285.676C468.157 286.185 466.842 286.39 465.536 286.272L423.122 282.434ZM234.656 104.707C235.87 103.304 236.296 101.733 236.039 99.615C235.59 95.917 233.284 91.378 219.316 89.086C197.082 85.435 191.884 73.736 191.44 64.566C190.834 52.098 199.296 41.66 212.545 38.376V34.973C212.545 32.8513 213.388 30.8164 214.888 29.3161C216.388 27.8159 218.423 26.973 220.545 26.973C222.667 26.973 224.702 27.8159 226.202 29.3161C227.702 30.8164 228.545 32.8513 228.545 34.973V38.285C237.135 40.312 245.265 45.846 249.546 56.044C249.961 57.0141 250.181 58.0569 250.192 59.1122C250.202 60.1675 250.004 61.2144 249.608 62.1928C249.213 63.1712 248.627 64.0616 247.886 64.8127C247.145 65.5639 246.262 66.1609 245.289 66.5695C244.316 66.978 243.272 67.19 242.216 67.1932C241.161 67.1965 240.115 66.9908 239.14 66.5882C238.164 66.1856 237.278 65.594 236.532 64.8473C235.786 64.1007 235.196 63.2139 234.794 62.238C231.475 54.335 223.339 52.308 216.745 53.802C215.125 54.17 207.06 56.378 207.42 63.789C207.515 65.755 207.768 70.974 221.907 73.296C240.223 76.302 250.322 84.508 251.921 97.686C252.723 104.292 250.937 110.339 246.756 115.173C242.582 119.998 236.042 123.401 228.544 124.818V127.938C228.544 130.06 227.701 132.095 226.201 133.595C224.701 135.095 222.666 135.938 220.544 135.938C218.422 135.938 216.387 135.095 214.887 133.595C213.387 132.095 212.544 130.06 212.544 127.938V124.686C200.889 122.145 191.968 114.183 189.217 103.149C188.963 102.13 188.912 101.07 189.067 100.031C189.222 98.992 189.581 97.9937 190.122 97.0932C190.663 96.1926 191.376 95.4075 192.221 94.7825C193.065 94.1576 194.025 93.7052 195.044 93.451C196.063 93.1965 197.123 93.1454 198.162 93.3006C199.201 93.4557 200.2 93.8141 201.1 94.3552C202.001 94.8963 202.786 95.6096 203.411 96.4543C204.036 97.299 204.488 98.2585 204.742 99.278C206.694 107.106 214.884 109.699 221.313 109.55C226.904 109.417 232.266 107.471 234.656 104.707ZM220.544 162.911C265.459 162.911 302 126.37 302 81.455C302 36.54 265.459 0 220.544 0C175.629 0 139.088 36.541 139.088 81.456C139.088 126.371 175.63 162.911 220.544 162.911ZM220.544 16C256.637 16 286 45.363 286 81.456C286 117.549 256.637 146.912 220.544 146.912C184.451 146.912 155.088 117.549 155.088 81.456C155.088 45.363 184.452 16 220.544 16Z" fill="url(#paint0_linear_1075_534)"/>
<defs>
<linearGradient id="paint0_linear_1075_534" x1="18.2681" y1="33.0001" x2="505.955" y2="592.697" gradientUnits="userSpaceOnUse">
<stop stop-color="#1BA2D7"/>
<stop offset="1" stop-color="#8D3DFA"/>
</linearGradient>
</defs>
</svg>
