<svg width="512" height="512" viewBox="0 0 512 512" fill="none" xmlns="http://www.w3.org/2000/svg">
<g clip-path="url(#clip0_734_2)">
<path d="M434.315 29.9301C276.086 -33.8713 0.285156 10.0434 0.285156 107.662V415.92C0.285156 460.84 58.7 485.202 63.3379 488.745V360.424C95.77 343.956 141.023 332.098 192.07 326.671V343.36H153.413V411.984L189.068 469.032V512.001H204.081V464.728L168.426 407.68V358.374H207.083V230.016C207.083 221.877 213.706 215.254 221.845 215.254C229.988 215.254 236.613 221.877 236.613 230.016V347.865H251.625V291.318H272.263V347.865H287.275V307.248H307.922V347.865H322.935V321.343H343.572V408.331L319.802 465.379V512.001H334.815V468.382L358.585 411.334V332.208C393.93 338.648 424.819 348.326 448.66 360.434V488.747C453.143 485.323 511.713 460.962 511.713 415.922V107.664C511.713 77.661 484.226 50.0559 434.315 29.9301ZM48.3253 462.621C31.4162 451.344 15.2977 435.467 15.2977 415.919V144.765C23.2564 154.136 34.3176 162.977 48.3253 171.095V462.621ZM221.845 200.239C205.428 200.239 192.07 213.597 192.07 230.014V235.988C165.292 209.632 183.804 163.208 221.97 163.208C245.425 163.208 264.506 182.289 264.506 205.744C264.506 217.503 259.756 228.371 251.625 236.239V230.014C251.625 213.596 238.266 200.239 221.845 200.239ZM496.7 415.92C496.7 435.467 480.582 451.345 463.673 462.622V171.095C477.68 162.977 488.741 154.136 496.7 144.765V415.92ZM452.553 160.132L448.659 162.27V343.731C423.968 332.224 393.194 323.072 358.584 316.957V306.329H322.934V292.234H287.274V276.304H251.624V255.059C266.793 245.968 276.783 230.655 279.029 213.251H308.542V258.289H433.646V153.201H308.542V198.239H279.012C275.642 172.501 255.213 152.072 229.476 148.702V115.169H289.526V40.1066H154.413V115.169H214.463V148.702C190.88 151.79 171.748 169.197 166.118 191.892L149.099 174.219H81.8523V189.231H142.713L164.775 212.141C166.315 226.157 172.875 238.907 183.125 248.234L165.731 266.296H104.871V281.308H172.117L192.068 260.589V311.576C142.046 316.758 97.0811 328.012 63.3359 343.733V162.269L59.4416 160.131C39.3018 149.074 15.2957 130.996 15.2957 107.661C15.2957 28.1446 274.609 -18.2802 428.699 43.8527C503.998 74.2151 523.501 121.179 452.553 160.132ZM323.555 243.275V168.213H418.635V243.275H323.555ZM169.427 100.156V55.1181H274.514V100.156H169.427ZM186.941 70.1307H226.975V85.1432H186.941V70.1307ZM241.987 70.1307H257V85.1432H241.987V70.1307ZM341.07 183.225H401.12V198.238H341.07V183.225ZM341.07 213.25H401.12V228.263H341.07V213.25ZM147.909 251.282H104.873V236.27H147.909V251.282ZM81.8533 144.193H145.907V159.205H81.8533V144.193Z" fill="white"/>
</g>
<defs>
<clipPath id="clip0_734_2">
<rect width="512" height="512" fill="white"/>
</clipPath>
</defs>
</svg>
