<svg width="512" height="512" viewBox="0 0 512 512" fill="none" xmlns="http://www.w3.org/2000/svg">
<path d="M422.886 42.295C378.183 25.338 318.915 16 256 16C193.085 16 133.817 25.338 89.114 42.295C41.966 60.179 16 84.934 16 112V448C16 450.122 16.8429 452.157 18.3431 453.657C19.8434 455.157 21.8783 456 24 456C26.1217 456 28.1566 455.157 29.6569 453.657C31.1571 452.157 32 450.122 32 448C32 430.007 50.752 412 84.802 397.296C118.897 382.572 165.225 372.723 216 369.326V456C216 458.122 216.843 460.157 218.343 461.657C219.843 463.157 221.878 464 224 464H288C290.122 464 292.157 463.157 293.657 461.657C295.157 460.157 296 458.122 296 456V369.326C346.775 372.723 393.103 382.572 427.198 397.296C461.248 412 480 430.006 480 448C480 450.122 480.843 452.157 482.343 453.657C483.843 455.157 485.878 456 488 456C490.122 456 492.157 455.157 493.657 453.657C495.157 452.157 496 450.122 496 448V112C496 84.934 470.034 60.179 422.886 42.295ZM328 36.356V132.251C319.71 131.243 311.271 130.41 302.684 129.752L297.892 110.582C296.923 106.66 294.975 103.048 292.23 100.084C289.485 97.1195 286.034 94.8997 282.198 93.632L275.28 91.327L277.465 86.957C279.128 83.6228 279.995 79.9488 280 76.223V56C280 53.8783 279.157 51.8434 277.657 50.3431C276.157 48.8429 274.122 48 272 48H256C249.637 48.0071 243.537 50.538 239.037 55.0373C234.538 59.5367 232.007 65.637 232 72V76.223C232.005 79.948 232.872 83.6214 234.534 86.955L236.72 91.327L229.803 93.633C225.967 94.9001 222.516 97.1193 219.771 100.083C217.026 103.047 215.078 106.659 214.109 110.58L209.316 129.752C200.736 130.405 192.297 131.238 184 132.25V36.356C231.824 30.5481 280.176 30.5481 328 36.356ZM328 150.59L298.945 230.49L280 225.754V217.889L284.62 208.646C286.837 204.201 287.994 199.302 288 194.334V160C288 157.878 287.157 155.843 285.657 154.343C284.157 152.843 282.122 152 280 152H256C247.516 152.01 239.382 155.384 233.383 161.383C227.384 167.382 224.01 175.516 224 184V194.334C224.006 199.301 225.162 204.199 227.379 208.644L232 217.89V225.755L206.06 232.24C204.697 232.581 203.448 233.274 202.438 234.251C201.429 235.227 200.694 236.452 200.308 237.803L184 294.878V148.356C231.824 142.548 280.176 142.548 328 148.356V150.59ZM248 344V417.376C242.824 415.541 237.176 415.541 232 417.376V320H280V417.376C274.824 415.541 269.176 415.541 264 417.376V344H248ZM281.583 304H230.417L217.5 245.871L237.545 240.86L239.029 242.344C243.534 246.838 249.637 249.362 256 249.362C262.363 249.362 268.466 246.838 272.971 242.344L274.455 240.86L294.5 245.87L281.583 304ZM272 194.334C271.997 196.818 271.418 199.267 270.31 201.49L264.845 212.423C264.289 213.533 264 214.758 264 216V228.686L261.656 231.029C260.913 231.772 260.032 232.361 259.061 232.763C258.091 233.166 257.05 233.373 256 233.373C254.95 233.373 253.909 233.166 252.939 232.763C251.968 232.361 251.087 231.772 250.344 231.029L248 228.686V216C248 214.758 247.711 213.533 247.155 212.423L241.688 201.488C240.58 199.266 240.003 196.817 240 194.334V184C240.005 179.758 241.692 175.691 244.692 172.692C247.691 169.692 251.758 168.005 256 168H272V194.334ZM250.53 103.59C252.122 103.059 253.506 102.041 254.488 100.68C255.469 99.319 255.998 97.684 256 96.006C256.002 97.684 256.531 99.319 257.512 100.68C258.494 102.041 259.878 103.059 261.47 103.59L277.139 108.813C278.417 109.235 279.567 109.975 280.482 110.963C281.397 111.951 282.046 113.154 282.369 114.461L285.933 128.716C276.078 128.243 266.101 128.004 256 128C245.913 128 235.936 128.239 226.067 128.716L229.632 114.46C229.955 113.153 230.604 111.95 231.519 110.962C232.433 109.974 233.584 109.235 234.862 108.813L250.53 103.59ZM248 76.223V72C248.003 69.8791 248.846 67.8458 250.346 66.3461C251.846 64.8464 253.879 64.0026 256 64H264V76.223C263.998 77.4649 263.709 78.6895 263.155 79.801L256.845 92.423C256.29 93.5313 256.001 94.7535 256 95.993C255.999 94.7535 255.71 93.5313 255.155 92.423L248.844 79.799C248.29 78.6881 248.002 77.4642 248 76.223ZM32 112C32 92.344 54.886 72.39 94.788 57.254C116.095 49.172 140.93 42.895 168 38.619V134.443C160.445 135.598 153.057 136.902 145.836 138.353L145.475 136.187C144.764 131.882 142.889 127.853 140.055 124.536C137.22 121.218 133.533 118.738 129.392 117.364L123.28 115.327L125.466 110.957C127.128 107.623 127.995 103.949 128 100.223V80C128 77.8783 127.157 75.8434 125.657 74.3431C124.157 72.8429 122.122 72 120 72H104C97.637 72.0071 91.5367 74.538 87.0373 79.0373C82.538 83.5367 80.0071 89.637 80 96V100.223C80.0045 103.948 80.8719 107.621 82.534 110.955L84.72 115.327L78.608 117.364C74.4666 118.738 70.7794 121.218 67.9448 124.536C65.1101 127.853 63.2357 131.882 62.524 136.187L56.988 169.409C47.815 174.624 39.4062 181.08 32 188.596V112ZM98.53 127.59C100.121 127.059 101.505 126.042 102.486 124.682C103.468 123.323 103.997 121.689 104 120.012C104.003 121.689 104.532 123.323 105.514 124.682C106.495 126.042 107.879 127.059 109.47 127.59L124.331 132.544C125.711 133.002 126.94 133.828 127.885 134.934C128.83 136.039 129.455 137.382 129.692 138.817L130.189 141.8C116.249 145.099 102.53 149.272 89.114 154.295C84.0707 156.208 79.2767 158.2 74.732 160.269L78.307 138.817C78.5444 137.382 79.1694 136.039 80.1144 134.934C81.0594 133.828 82.2885 133.002 83.669 132.544L98.53 127.59ZM96 100.223V96C96.0026 93.8791 96.8464 91.8458 98.3461 90.3461C99.8458 88.8464 101.879 88.0026 104 88H112V100.223C111.998 101.465 111.709 102.69 111.155 103.801L104.845 116.423C104.291 117.53 104.002 118.75 104 119.988C103.998 118.75 103.709 117.53 103.155 116.423L96.845 103.799C96.2906 102.688 96.0014 101.464 96 100.223ZM32 224C32 204.344 54.886 184.39 94.788 169.254C116.095 161.172 140.93 154.895 168 150.619V246.459C160.415 247.619 153.027 248.92 145.837 250.363L145.475 248.187C144.764 243.882 142.889 239.853 140.055 236.536C137.22 233.218 133.533 230.738 129.392 229.364L123.28 227.327L125.466 222.957C127.128 219.623 127.995 215.949 128 212.223V192C128 189.878 127.157 187.843 125.657 186.343C124.157 184.843 122.122 184 120 184H104C97.637 184.007 91.5367 186.538 87.0373 191.037C82.538 195.537 80.0071 201.637 80 208V212.223C80.0045 215.948 80.8719 219.621 82.534 222.955L84.72 227.327L78.608 229.364C74.4666 230.738 70.7794 233.218 67.9448 236.536C65.1101 239.853 63.2357 243.882 62.524 248.187L56.992 281.384C47.818 286.585 39.4076 293.031 32 300.537V224ZM98.53 239.59C100.121 239.059 101.505 238.042 102.486 236.682C103.468 235.323 103.997 233.689 104 232.012C104.003 233.689 104.532 235.323 105.514 236.682C106.495 238.042 107.879 239.059 109.47 239.59L124.331 244.544C125.711 245.002 126.94 245.828 127.885 246.934C128.83 248.039 129.455 249.382 129.692 250.817L130.19 253.804C109.414 258.784 90.737 264.991 74.735 272.252L78.307 250.817C78.5444 249.382 79.1694 248.039 80.1144 246.934C81.0594 245.828 82.2885 245.002 83.669 244.544L98.53 239.59ZM96 212.223V208C96.0026 205.879 96.8464 203.846 98.3461 202.346C99.8458 200.846 101.879 200.003 104 200H112V212.223C111.998 213.465 111.709 214.69 111.155 215.801L104.845 228.423C104.291 229.53 104.002 230.75 104 231.988C103.998 230.75 103.709 229.53 103.155 228.423L96.845 215.799C96.2906 214.688 96.0014 213.464 96 212.223ZM32 412.397V336C32 305.073 87.462 275.413 168 262.654V358.468C160.44 359.627 153.054 360.933 145.842 362.388L145.475 360.187C144.764 355.882 142.889 351.853 140.055 348.536C137.22 345.218 133.533 342.738 129.392 341.364L123.28 339.327L125.466 334.957C127.128 331.623 127.995 327.949 128 324.223V304C128 301.878 127.157 299.843 125.657 298.343C124.157 296.843 122.122 296 120 296H104C97.637 296.007 91.5367 298.538 87.0373 303.037C82.538 307.537 80.0071 313.637 80 320V324.223C80.0045 327.948 80.8719 331.621 82.534 334.955L84.72 339.327L78.608 341.364C74.4666 342.738 70.7794 345.218 67.9448 348.536C65.1101 351.853 63.2357 355.882 62.524 360.187L56.997 393.352C46.803 399.304 38.443 405.674 32 412.397ZM112 312V324.223C111.998 325.465 111.709 326.69 111.155 327.801L104.845 340.423C104.291 341.53 104.002 342.75 104 343.988C103.998 342.75 103.709 341.53 103.155 340.423L96.845 327.799C96.2906 326.688 96.0014 325.464 96 324.223V320C96.0026 317.879 96.8464 315.846 98.3461 314.346C99.8458 312.846 101.879 312.003 104 312H112ZM78.458 382.607C77.198 383.151 75.957 383.7 74.735 384.253L78.307 362.817C78.5444 361.382 79.1694 360.039 80.1144 358.934C81.0594 357.828 82.2885 357.002 83.669 356.544L98.53 351.59C100.121 351.059 101.505 350.042 102.486 348.682C103.468 347.323 103.997 345.689 104 344.012C104.003 345.689 104.532 347.323 105.514 348.682C106.495 350.042 107.879 351.059 109.47 351.59L124.331 356.544C125.711 357.002 126.94 357.828 127.885 358.934C128.83 360.039 129.455 361.382 129.692 362.817L130.194 365.83C112.503 369.942 95.1954 375.555 78.458 382.607ZM184 356.272V353.122L207.03 272.515L216 312.878V353.292C205.307 353.984 194.637 354.978 184 356.272ZM232 440C232 437.878 232.843 435.843 234.343 434.343C235.843 432.843 237.878 432 240 432C242.122 432 244.157 432.843 245.657 434.343C247.157 435.843 248 437.878 248 440V448H232V440ZM264 440C264 437.878 264.843 435.843 266.343 434.343C267.843 432.843 269.878 432 272 432C274.122 432 276.157 432.843 277.657 434.343C279.157 435.843 280 437.878 280 440V448H264V440ZM296 312.878L311.696 242.246L328 197.41V356.272C317.363 354.978 306.693 353.984 296 353.292V312.878ZM381.805 365.83L382.307 362.817C382.544 361.382 383.169 360.039 384.114 358.934C385.059 357.828 386.289 357.002 387.669 356.544L402.53 351.59C404.121 351.059 405.505 350.042 406.486 348.682C407.468 347.323 407.997 345.689 408 344.012C408.003 345.689 408.532 347.323 409.514 348.682C410.495 350.042 411.879 351.059 413.47 351.59L428.331 356.544C429.711 357.002 430.94 357.828 431.885 358.934C432.83 360.039 433.455 361.382 433.692 362.817L437.265 384.253C436.042 383.7 434.801 383.151 433.542 382.607C416.804 375.555 399.496 369.942 381.805 365.83ZM400 324.223V320C400.003 317.879 400.846 315.846 402.346 314.346C403.846 312.846 405.879 312.003 408 312H416V324.223C415.998 325.465 415.709 326.69 415.155 327.801L408.845 340.423C408.291 341.53 408.002 342.75 408 343.988C407.998 342.75 407.709 341.53 407.155 340.423L400.845 327.799C400.291 326.688 400.001 325.464 400 324.223ZM480 412.397C473.557 405.674 465.197 399.304 455.003 393.352L449.475 360.187C448.764 355.882 446.889 351.853 444.055 348.536C441.22 345.218 437.533 342.738 433.392 341.364L427.28 339.327L429.466 334.957C431.128 331.623 431.995 327.949 432 324.223V304C432 301.878 431.157 299.843 429.657 298.343C428.157 296.843 426.122 296 424 296H408C401.637 296.007 395.537 298.538 391.037 303.037C386.538 307.537 384.007 313.637 384 320V324.223C384.005 327.948 384.872 331.621 386.534 334.955L388.72 339.327L382.608 341.364C378.467 342.738 374.779 345.218 371.945 348.536C369.11 351.853 367.236 355.882 366.524 360.187L366.157 362.388C358.952 360.939 351.566 359.632 344 358.468V262.654C424.538 275.413 480 305.073 480 336V412.397ZM402.53 239.59C404.121 239.059 405.505 238.042 406.486 236.682C407.468 235.323 407.997 233.689 408 232.012C408.003 233.689 408.532 235.323 409.514 236.682C410.495 238.042 411.879 239.059 413.47 239.59L428.331 244.544C429.711 245.002 430.94 245.828 431.885 246.934C432.83 248.039 433.455 249.382 433.692 250.817L437.265 272.252C421.263 264.991 402.585 258.785 381.809 253.803L382.307 250.817C382.544 249.382 383.169 248.039 384.114 246.934C385.059 245.828 386.289 245.002 387.669 244.544L402.53 239.59ZM400 212.223V208C400.003 205.879 400.846 203.846 402.346 202.346C403.846 200.846 405.879 200.003 408 200H416V212.223C415.998 213.465 415.709 214.69 415.155 215.801L408.845 228.423C408.291 229.53 408.002 230.75 408 231.988C407.998 230.75 407.709 229.53 407.155 228.423L400.845 215.799C400.291 214.688 400.001 213.464 400 212.223ZM480 300.537C472.592 293.031 464.182 286.585 455.008 281.384L449.475 248.187C448.764 243.882 446.889 239.853 444.055 236.536C441.22 233.218 437.533 230.738 433.392 229.364L427.28 227.327L429.466 222.957C431.128 219.623 431.995 215.949 432 212.223V192C432 189.878 431.157 187.843 429.657 186.343C428.157 184.843 426.122 184 424 184H408C401.637 184.007 395.537 186.538 391.037 191.037C386.538 195.537 384.007 201.637 384 208V212.223C384.005 215.948 384.872 219.621 386.534 222.955L388.72 227.327L382.608 229.364C378.467 230.738 374.779 233.218 371.945 236.536C369.11 239.853 367.236 243.882 366.524 248.187L366.162 250.363C358.981 248.922 351.594 247.62 344 246.459V150.619C371.07 154.895 395.905 161.172 417.212 169.254C457.114 184.39 480 204.344 480 224V300.537ZM402.53 127.59C404.121 127.059 405.505 126.042 406.486 124.682C407.468 123.323 407.997 121.689 408 120.012C408.003 121.689 408.532 123.323 409.514 124.682C410.495 126.042 411.879 127.059 413.47 127.59L428.331 132.544C429.711 133.002 430.94 133.828 431.885 134.934C432.83 136.039 433.455 137.382 433.692 138.817L437.268 160.269C432.715 158.204 427.921 156.213 422.886 154.295C409.47 149.272 395.751 145.099 381.81 141.8L382.307 138.817C382.544 137.382 383.169 136.039 384.114 134.934C385.059 133.828 386.289 133.002 387.669 132.544L402.53 127.59ZM400 100.223V96C400.003 93.8791 400.846 91.8458 402.346 90.3461C403.846 88.8464 405.879 88.0026 408 88H416V100.223C415.998 101.465 415.709 102.69 415.155 103.801L408.845 116.423C408.291 117.53 408.002 118.75 408 119.988C407.998 118.75 407.709 117.53 407.155 116.423L400.845 103.799C400.291 102.688 400.001 101.464 400 100.223ZM455.012 169.409L449.475 136.187C448.764 131.882 446.889 127.853 444.055 124.536C441.22 121.218 437.533 118.738 433.392 117.364L427.28 115.327L429.466 110.957C431.128 107.623 431.995 103.949 432 100.223V80C432 77.8783 431.157 75.8434 429.657 74.3431C428.157 72.8429 426.122 72 424 72H408C401.637 72.0071 395.537 74.538 391.037 79.0373C386.538 83.5367 384.007 89.637 384 96V100.223C384.005 103.948 384.872 107.621 386.534 110.955L388.72 115.327L382.608 117.364C378.467 118.738 374.779 121.218 371.945 124.536C369.11 127.853 367.236 131.882 366.524 136.187L366.164 138.353C358.953 136.901 351.565 135.598 344 134.443V38.619C371.07 42.895 395.905 49.172 417.212 57.254C457.114 72.39 480 92.344 480 112V188.596C472.594 181.08 464.185 174.623 455.012 169.409Z" fill="white"/>
<path d="M314.297 407.844L309.703 423.17C330.537 429.415 344 439.162 344 448C344 463.105 306.366 480 256 480C205.634 480 168 463.105 168 448C168 439.161 181.463 429.415 202.297 423.17L197.703 407.844C168.658 416.55 152 431.187 152 448V496H168V474.304C186.107 487.554 218.07 496 256 496C293.93 496 325.893 487.554 344 474.304V496H360V448C360 431.187 343.342 416.55 314.297 407.844Z" fill="white"/>
</svg>
