<svg width="512" height="512" viewBox="0 0 512 512" fill="none" xmlns="http://www.w3.org/2000/svg">
<path d="M427.999 409.4L438.299 408.5C441.699 408.3 444.099 404.6 442.899 401.4L418.199 327.5C417.399 325.1 415.099 323.6 412.599 323.8L398.299 325.1C385.899 290.2 352.299 267 315.399 267H291.099V244.8C299.299 239.3 305.999 232.1 310.799 223.5H319.299C330.599 223.5 339.699 214.3 339.699 203V150.7C369.499 145.6 362.899 103.8 332.899 106.9V89.7999C332.899 57.5999 310.099 29.7999 279.099 23.1999V16.5999C279.099 7.9999 272.099 0.899902 263.499 0.899902H248.199C239.599 0.899902 232.599 7.8999 232.599 16.5999V23.1999C201.599 29.7999 178.799 57.5999 178.799 89.7999V107.1C148.699 104 142.299 145.6 171.899 150.9V203.2C171.899 214.5 181.099 223.7 192.399 223.7H200.899C205.699 232.2 212.299 239.4 220.399 244.9V267.2H196.499C159.499 267.2 125.899 290.4 113.599 325.2L100.799 324.1C98.2993 323.8 95.9993 325.4 95.1993 327.8L70.4993 401.7C69.2993 404.9 71.7993 408.6 75.1993 408.8L83.8993 409.6L62.9993 469.1C56.0993 487.1 59.3993 510.3 82.5993 511.3H429.299C441.899 511.3 452.199 501 452.199 488.4C453.599 474.3 431.899 423.2 427.999 409.4ZM409.299 335L430.499 398.3L406.299 400.4L385.099 337.1L395.099 336.2L409.299 335ZM303.499 277.9C307.199 277.9 316.999 277.8 320.599 278.1V380.5H303.499V277.9ZM279.099 34.2999C303.999 40.6999 322.099 63.4999 322.099 89.7999V107.1H279.099V34.2999ZM243.399 16.6999C243.399 13.9999 245.499 11.7999 248.199 11.7999H263.499C266.099 11.7999 268.299 13.9999 268.299 16.6999V107.1H243.499V16.6999H243.399ZM189.599 89.7999C189.599 63.4999 207.699 40.6999 232.599 34.2999V107.1H189.599V89.7999ZM177.299 140.3C160.799 142.4 157.999 119 174.599 117.9H327.499C327.599 117.8 336.899 117.9 337.099 117.9C353.699 118.9 350.899 142.4 334.399 140.3H177.299ZM192.399 212.8C187.099 212.8 182.699 208.5 182.699 203.1V151H328.899V203.1C328.899 208.4 324.599 212.8 319.299 212.8H192.399ZM213.599 223.7H298.099C278.699 251.6 232.999 251.7 213.599 223.7ZM280.199 250.9V270.2L255.699 294.7L231.199 270.2V250.8C246.699 257.3 264.699 257.4 280.199 250.9ZM219.299 277.9H223.599L251.999 306.3C252.999 307.3 254.399 307.9 255.799 307.9C257.199 307.9 258.599 307.3 259.599 306.3L287.899 277.9H292.699V344.5H219.299V277.9ZM191.299 278.1C194.799 277.8 204.699 278 208.399 277.9V380.5H191.299V278.1ZM82.8993 398.4L104.099 335.1L128.299 337.2L106.999 400.5L82.8993 398.4ZM146.699 363.2V500.1H82.5993C67.7993 499.6 69.3993 482.3 73.1993 472.3L94.9993 410.2L110.399 411.5C112.799 411.6 115.199 410.2 115.999 407.8L140.699 333.9C141.899 330.7 139.399 327 135.999 326.8L124.699 325.8C134.399 301.9 155.199 284.6 180.399 279.4V344.3H165.499C155.099 344.4 146.699 352.9 146.699 363.2ZM235.699 500.2H186.599L186.899 439.2L235.699 439.5V500.2ZM325.299 500.2H276.199L276.499 439.2L325.299 439.5V500.2ZM354.399 500.2H336.099V439.4C336.099 433.3 331.099 428.3 324.999 428.3H276.499C270.399 428.3 265.399 433.3 265.399 439.4V500.2H246.599V439.4C246.599 433.3 241.599 428.3 235.499 428.3H186.999C180.899 428.3 175.899 433.3 175.899 439.4V500.2H157.599V363.2C157.599 358.8 161.199 355.2 165.599 355.2H180.499V385.8C180.499 388.8 182.899 391.2 185.899 391.2H213.899C216.899 391.2 219.299 388.8 219.299 385.8V355.2H292.699V385.8C292.699 388.8 295.099 391.2 298.099 391.2H326.099C329.099 391.2 331.499 388.8 331.499 385.8V355.2H346.499C350.799 355.2 354.499 358.9 354.499 363.2V500.2H354.399ZM429.299 500.2H365.199V363.2C365.199 352.8 356.799 344.4 346.399 344.4H331.399V279.5C356.699 284.7 377.399 302 387.099 326.1L377.299 327C373.899 327.2 371.499 330.9 372.599 334.1L397.299 408C398.099 410.3 400.499 411.8 402.899 411.7L416.799 410.5L438.599 472.5C442.499 482.7 444.199 499.6 429.299 500.2ZM235.799 372.4H275.999C283.099 372.4 283.099 383.2 275.999 383.2H235.799C228.799 383.2 228.799 372.5 235.799 372.4ZM306.099 407.9C306.099 410.9 303.699 413.3 300.699 413.3H211.199C204.099 413.3 204.199 402.5 211.199 402.5H300.699C303.699 402.5 306.099 404.9 306.099 407.9ZM297.599 187.4H214.099C206.999 187.4 207.099 176.6 214.099 176.6H297.599C304.699 176.6 304.599 187.3 297.599 187.4Z" fill="white"/>
</svg>
