<svg width="359" height="372" viewBox="0 0 359 372" fill="none" xmlns="http://www.w3.org/2000/svg">
<path d="M201.6 0H156.8C147.978 0 140.8 7.1776 140.8 16V43.7344C130.262 46.7061 120.109 50.9056 110.55 56.2464L90.9536 36.6496C87.9328 33.6288 83.9136 31.9648 79.6384 31.9648C75.3632 31.9648 71.3472 33.6288 68.3264 36.6496L36.6496 68.3264C33.6288 71.3472 31.9616 75.3664 31.9616 79.6416C31.9616 83.9168 33.6256 87.9328 36.6496 90.9568L56.2464 110.554C50.9056 120.112 46.7061 130.265 43.7344 140.803H16C7.1776 140.803 0 147.981 0 156.803V201.603C0 210.426 7.1776 217.603 16 217.603H28.8C30.4974 217.603 32.1253 216.929 33.3255 215.729C34.5257 214.528 35.2 212.901 35.2 211.203C35.2 209.506 34.5257 207.878 33.3255 206.678C32.1253 205.477 30.4974 204.803 28.8 204.803H16C14.2368 204.803 12.8 203.37 12.8 201.603V156.8C12.8 155.034 14.2368 153.6 16 153.6H48.6656C50.0987 153.6 51.4904 153.119 52.6177 152.234C53.7451 151.35 54.5428 150.112 54.8832 148.72C57.9649 136.069 62.9715 123.966 69.728 112.835C70.472 111.61 70.7833 110.17 70.6122 108.747C70.441 107.324 69.7973 106 68.784 104.986L45.7024 81.904C44.8864 81.088 44.7648 80.1376 44.7648 79.6416C44.7648 79.1456 44.8864 78.1952 45.7024 77.3792L77.3824 45.6992C77.6796 45.4017 78.0325 45.1657 78.421 45.0046C78.8095 44.8436 79.2259 44.7607 79.6464 44.7607C80.0669 44.7607 80.4833 44.8436 80.8718 45.0046C81.2603 45.1657 81.6132 45.4017 81.9104 45.6992L104.992 68.784C106.006 69.7978 107.33 70.4418 108.754 70.613C110.177 70.7842 111.617 70.4725 112.842 69.728C123.973 62.9715 136.075 57.9649 148.726 54.8832C150.117 54.5406 151.352 53.742 152.236 52.615C153.119 51.488 153.599 50.0976 153.6 48.6656V16C153.6 14.2336 155.037 12.8 156.8 12.8H201.6C203.363 12.8 204.8 14.2336 204.8 16V48.6656C204.801 50.0982 205.282 51.4891 206.166 52.6158C207.051 53.7425 208.288 54.5398 209.68 54.88C222.332 57.9602 234.435 62.967 245.565 69.7248C246.79 70.4693 248.229 70.781 249.653 70.6098C251.076 70.4386 252.401 69.7946 253.414 68.7808L276.496 45.6992C276.793 45.4005 277.145 45.1635 277.534 45.0017C277.922 44.84 278.339 44.7567 278.76 44.7567C279.181 44.7567 279.598 44.84 279.986 45.0017C280.375 45.1635 280.727 45.4005 281.024 45.6992L312.701 77.3792C312.999 77.676 313.236 78.0288 313.397 78.4173C313.559 78.8058 313.642 79.2224 313.642 79.6432C313.642 80.064 313.559 80.4806 313.397 80.8691C313.236 81.2576 312.999 81.6104 312.701 81.9072L289.619 104.989C288.605 106.002 287.961 107.327 287.79 108.75C287.619 110.174 287.931 111.613 288.675 112.838C295.432 123.969 300.438 136.072 303.52 148.723C303.86 150.115 304.658 151.353 305.785 152.238C306.913 153.123 308.304 153.603 309.738 153.603H342.4C344.163 153.603 345.6 155.037 345.6 156.803V201.603C345.6 203.37 344.163 204.803 342.4 204.803H329.6C327.903 204.803 326.275 205.477 325.075 206.678C323.874 207.878 323.2 209.506 323.2 211.203C323.2 212.901 323.874 214.528 325.075 215.729C326.275 216.929 327.903 217.603 329.6 217.603H342.4C351.222 217.603 358.4 210.426 358.4 201.603V156.8C358.4 147.978 351.222 140.8 342.4 140.8H314.666C311.694 130.262 307.494 120.109 302.154 110.55L321.75 90.9536C324.774 87.9328 326.438 83.9136 326.438 79.6384C326.438 75.3632 324.771 71.3472 321.75 68.3232L290.074 36.6464C287.053 33.6256 283.034 31.9616 278.758 31.9616C274.483 31.9616 270.467 33.6256 267.443 36.6464L247.846 56.2432C238.288 50.9024 228.135 46.7029 217.597 43.7312V16C217.593 11.7581 215.907 7.69092 212.908 4.69116C209.909 1.69141 205.842 0.00423713 201.6 0Z" fill="white"/>
<path d="M211.475 134.125C212.723 135.376 214.361 136 216 136C217.638 136 219.276 135.376 220.524 134.125L239.724 114.925C240.924 113.725 241.598 112.097 241.598 110.4C241.598 108.703 240.924 107.076 239.724 105.876L220.524 86.6756C219.934 86.0644 219.228 85.5768 218.447 85.2414C217.666 84.906 216.826 84.7294 215.977 84.722C215.127 84.7147 214.284 84.8766 213.498 85.1984C212.711 85.5202 211.996 85.9954 211.395 86.5963C210.795 87.1972 210.319 87.9118 209.998 88.6983C209.676 89.4849 209.514 90.3276 209.521 91.1774C209.529 92.0272 209.705 92.867 210.041 93.6478C210.376 94.4287 210.864 95.1349 211.475 95.7252L226.147 110.4L211.475 125.076C210.275 126.276 209.601 127.903 209.601 129.6C209.601 131.297 210.275 132.925 211.475 134.125ZM146.924 86.6756C145.724 85.4758 144.097 84.8018 142.4 84.8018C140.703 84.8018 139.075 85.4758 137.875 86.6756L118.675 105.876C117.475 107.076 116.801 108.703 116.801 110.4C116.801 112.097 117.475 113.725 118.675 114.925L137.875 134.125C139.123 135.376 140.761 136 142.4 136C144.038 136 145.676 135.376 146.924 134.125C148.124 132.925 148.798 131.297 148.798 129.6C148.798 127.903 148.124 126.276 146.924 125.076L132.252 110.4L146.924 95.7252C148.124 94.5251 148.798 92.8975 148.798 91.2004C148.798 89.5034 148.124 87.8758 146.924 86.6756ZM159.993 150.4C162.214 150.4 164.374 149.242 165.555 147.175L203.955 79.9748C204.797 78.5011 205.02 76.7531 204.573 75.1154C204.127 73.4776 203.048 72.0844 201.574 71.242C200.1 70.3997 198.352 70.1773 196.715 70.6238C195.077 71.0703 193.684 72.1491 192.841 73.6228L154.441 140.823C153.885 141.796 153.593 142.898 153.597 144.019C153.6 145.14 153.898 146.24 154.46 147.21C155.022 148.18 155.829 148.985 156.8 149.545C157.771 150.105 158.872 150.4 159.993 150.4ZM153.6 230.4H131.2V208C131.2 206.303 130.525 204.675 129.325 203.475C128.125 202.275 126.497 201.6 124.8 201.6C123.102 201.6 121.474 202.275 120.274 203.475C119.074 204.675 118.4 206.303 118.4 208V230.4H95.9996C94.3022 230.4 92.6744 231.075 91.4741 232.275C90.2739 233.475 89.5996 235.103 89.5996 236.8C89.5996 238.498 90.2739 240.126 91.4741 241.326C92.6744 242.526 94.3022 243.2 95.9996 243.2H118.4V265.6C118.4 267.298 119.074 268.926 120.274 270.126C121.474 271.326 123.102 272 124.8 272C126.497 272 128.125 271.326 129.325 270.126C130.525 268.926 131.2 267.298 131.2 265.6V243.2H153.6C155.297 243.2 156.925 242.526 158.125 241.326C159.325 240.126 160 238.498 160 236.8C160 235.103 159.325 233.475 158.125 232.275C156.925 231.075 155.297 230.4 153.6 230.4ZM211.2 227.2C205.907 227.2 201.6 231.508 201.6 236.8C201.6 242.093 205.907 246.4 211.2 246.4C216.492 246.4 220.8 242.093 220.8 236.8C220.8 231.508 216.492 227.2 211.2 227.2ZM262.4 246.4C267.692 246.4 272 242.093 272 236.8C272 231.508 267.692 227.2 262.4 227.2C257.107 227.2 252.8 231.508 252.8 236.8C252.8 242.093 257.107 246.4 262.4 246.4ZM236.8 220.8C242.092 220.8 246.4 216.493 246.4 211.2C246.4 205.908 242.092 201.6 236.8 201.6C231.507 201.6 227.2 205.908 227.2 211.2C227.2 216.493 231.507 220.8 236.8 220.8ZM236.8 272C242.092 272 246.4 267.693 246.4 262.4C246.4 257.108 242.092 252.8 236.8 252.8C231.507 252.8 227.2 257.108 227.2 262.4C227.2 267.693 231.507 272 236.8 272Z" fill="white"/>
<path d="M243.2 339.198C245.683 339.198 248.08 338.85 250.378 338.258L251.251 340.28C255.208 349.464 261.769 357.288 270.124 362.783C278.48 368.278 288.262 371.204 298.262 371.198H305.827C319.446 371.198 331.792 364.837 339.699 353.749C347.606 342.658 349.594 328.914 345.152 316.037L309.891 213.778C302.186 191.432 282.294 175.813 259.197 173.221V163.198C259.197 156.139 253.456 150.398 246.397 150.398H227.197C220.138 150.398 214.397 156.139 214.397 163.198V172.798H147.2V163.198C147.2 156.139 141.459 150.398 134.4 150.398H115.2C108.141 150.398 102.4 156.139 102.4 163.198V172.939C90.383 173.646 78.8463 177.905 69.2518 185.175C59.6574 192.445 52.437 202.4 48.5056 213.778L13.2448 316.037C8.80319 328.914 10.7904 342.658 18.6976 353.749C26.6048 364.837 38.9504 371.198 52.5696 371.198H60.1344C70.1347 371.204 79.9172 368.278 88.2724 362.783C96.6276 357.288 103.189 349.464 107.146 340.28L108.019 338.258C110.364 338.873 112.776 339.189 115.2 339.198C131.078 339.198 144 326.28 144 310.398C143.995 308.236 143.744 306.082 143.251 303.976C149.3 301.87 155.659 300.795 162.064 300.798H196.336C202.81 300.798 209.11 301.88 215.149 303.976C214.656 306.082 214.405 308.236 214.4 310.398C214.4 326.28 227.322 339.198 243.2 339.198ZM227.2 310.398C227.2 301.576 234.378 294.398 243.2 294.398C252.022 294.398 259.2 301.576 259.2 310.398C259.2 319.221 252.022 326.398 243.2 326.398C234.378 326.398 227.2 319.221 227.2 310.398ZM227.2 163.198H246.4V172.798H227.2V163.198ZM134.4 163.198V172.798H115.2V163.198H134.4ZM115.2 326.398C106.378 326.398 99.2 319.221 99.2 310.398C99.2 301.576 106.378 294.398 115.2 294.398C124.022 294.398 131.2 301.576 131.2 310.398C131.2 319.221 124.022 326.398 115.2 326.398ZM196.336 287.998H162.064C153.642 287.998 145.456 289.49 137.642 292.392C134.95 289.025 131.535 286.307 127.65 284.439C123.766 282.57 119.511 281.6 115.2 281.598C99.3216 281.598 86.4 294.517 86.4 310.398C86.4007 314.584 87.3158 318.718 89.0813 322.513C90.8467 326.307 93.4199 329.67 96.6208 332.366L95.3952 335.211C92.4269 342.099 87.5051 347.966 81.2384 352.087C74.9716 356.208 67.6347 358.402 60.1344 358.398H52.5696C43.1392 358.398 34.592 353.995 29.12 346.318C23.648 338.642 22.2688 329.125 25.344 320.21L60.6048 217.95C63.8648 208.508 69.988 200.318 78.1217 194.519C86.2554 188.72 95.9949 185.602 105.984 185.598H252.416C262.405 185.602 272.145 188.72 280.278 194.519C288.412 200.318 294.535 208.508 297.795 217.95L333.056 320.21C336.128 329.122 334.752 338.638 329.28 346.315C323.808 353.992 315.258 358.398 305.827 358.398H298.262C290.762 358.401 283.426 356.207 277.159 352.086C270.893 347.965 265.971 342.099 263.002 335.211L261.776 332.37C264.977 329.672 267.55 326.309 269.315 322.514C271.08 318.719 271.996 314.584 271.997 310.398C271.997 294.517 259.075 281.598 243.197 281.598C238.886 281.6 234.631 282.57 230.746 284.439C226.862 286.307 223.447 289.025 220.755 292.392C212.943 289.48 204.673 287.992 196.336 287.998Z" fill="white"/>
</svg>
