<svg width="449" height="321" viewBox="0 0 449 321" fill="none" xmlns="http://www.w3.org/2000/svg">
<path d="M153.256 272.238C149.214 272.224 145.327 270.68 142.376 267.918C127.765 254.046 116.13 237.346 108.179 218.833C100.228 200.321 96.1277 180.385 96.1277 160.238C96.1277 140.09 100.228 120.154 108.179 101.642C116.13 83.1298 127.765 66.4295 142.376 52.5576C145.525 50.0046 149.525 48.7417 153.569 49.0242C157.612 49.3067 161.398 51.1135 164.161 54.0796C166.924 57.0457 168.458 60.95 168.453 65.0035C168.449 69.0571 166.906 72.9578 164.136 75.9176C152.762 86.8195 143.712 99.9097 137.529 114.4C131.346 128.891 128.159 144.483 128.159 160.238C128.159 175.992 131.346 191.584 137.529 206.075C143.712 220.566 152.762 233.656 164.136 244.558C166.475 246.748 168.103 249.59 168.809 252.716C169.514 255.842 169.264 259.108 168.092 262.091C166.92 265.073 164.879 267.635 162.233 269.444C159.588 271.253 156.461 272.227 153.256 272.238ZM89.256 315.118C92.236 312.12 93.9087 308.065 93.9087 303.838C93.9087 299.611 92.236 295.555 89.256 292.558C71.3558 275.48 57.1068 254.948 47.3712 232.204C37.6356 209.46 32.6159 184.978 32.6159 160.238C32.6159 135.498 37.6356 111.015 47.3712 88.2712C57.1068 65.5273 71.3558 44.9953 89.256 27.9176C92.3537 24.926 94.1362 20.8263 94.2112 16.5205C94.2862 12.2146 92.6476 8.05536 89.656 4.95764C86.6644 1.85991 82.5647 0.0774813 78.2589 0.00246674C73.953 -0.0725478 69.7937 1.56599 66.696 4.55763C45.6196 24.6409 28.8406 48.7946 17.376 75.555C5.91144 102.315 0 131.125 0 160.238C0 189.35 5.91144 218.16 17.376 244.92C28.8406 271.681 45.6196 295.834 66.696 315.918C68.2356 317.366 70.0469 318.495 72.0254 319.24C74.0039 319.984 76.1102 320.329 78.2228 320.255C80.3354 320.18 82.4122 319.688 84.3335 318.806C86.2547 317.925 87.9821 316.671 89.416 315.118H89.256ZM305.736 267.918C320.347 254.046 331.982 237.346 339.933 218.833C347.884 200.321 351.984 180.385 351.984 160.238C351.984 140.09 347.884 120.154 339.933 101.642C331.982 83.1298 320.347 66.4295 305.736 52.5576C304.202 51.1184 302.4 49.9953 300.432 49.2525C298.464 48.5098 296.369 48.1619 294.267 48.2287C292.165 48.2956 290.096 48.7759 288.179 49.6422C286.263 50.5085 284.535 51.7438 283.096 53.2776C281.657 54.8115 280.534 56.6138 279.791 58.5817C279.048 60.5495 278.7 62.6444 278.767 64.7467C278.834 66.8491 279.314 68.9176 280.181 70.8343C281.047 72.751 282.282 74.4783 283.816 75.9176C295.251 86.7839 304.356 99.8625 310.578 114.358C316.8 128.854 320.008 144.463 320.008 160.238C320.008 176.012 316.8 191.622 310.578 206.117C304.356 220.613 295.251 233.691 283.816 244.558C280.727 247.448 278.909 251.445 278.759 255.673C278.609 259.9 280.14 264.015 283.016 267.118C284.526 268.746 286.359 270.042 288.397 270.924C290.436 271.805 292.635 272.253 294.856 272.238C298.898 272.224 302.785 270.68 305.736 267.918ZM381.256 315.918C402.394 295.87 419.228 271.728 430.732 244.963C442.236 218.198 448.169 189.37 448.169 160.238C448.169 131.105 442.236 102.277 430.732 75.5122C419.228 48.7471 402.394 24.605 381.256 4.55763C378.107 2.00454 374.107 0.741682 370.064 1.0242C366.02 1.30671 362.234 3.11354 359.471 6.07963C356.708 9.04572 355.174 12.95 355.179 17.0035C355.183 21.0571 356.726 24.9579 359.496 27.9176C377.396 44.9953 391.645 65.5273 401.381 88.2712C411.116 111.015 416.136 135.498 416.136 160.238C416.136 184.978 411.116 209.46 401.381 232.204C391.645 254.948 377.396 275.48 359.496 292.558C356.407 295.448 354.589 299.445 354.439 303.673C354.289 307.9 355.82 312.015 358.696 315.118C360.188 316.726 361.995 318.011 364.004 318.892C366.013 319.772 368.182 320.231 370.376 320.238C374.418 320.224 378.305 318.68 381.256 315.918ZM256.136 160.238C256.136 153.909 254.259 147.722 250.743 142.459C247.227 137.197 242.229 133.095 236.382 130.673C230.535 128.251 224.101 127.618 217.893 128.853C211.686 130.087 205.984 133.135 201.509 137.61C197.033 142.086 193.986 147.787 192.751 153.995C191.516 160.202 192.15 166.636 194.572 172.484C196.994 178.331 201.095 183.328 206.358 186.845C211.62 190.361 217.807 192.238 224.136 192.238C232.623 192.238 240.762 188.866 246.763 182.865C252.765 176.864 256.136 168.725 256.136 160.238Z" fill="white"/>
</svg>
