<svg width="497" height="497" viewBox="0 0 497 497" fill="none" xmlns="http://www.w3.org/2000/svg">
<path d="M86.848 62.2734H41.792C23.36 62.2734 8 77.6334 8 96.0654V379.713C8 398.145 23.36 413.505 41.792 413.505H236.352M233.28 62.2734H279.36C297.792 62.2734 313.152 77.6334 313.152 96.0654V230.209" stroke="white" stroke-width="15" stroke-miterlimit="10" stroke-linecap="round" stroke-linejoin="round"/>
<path d="M86.848 96.0625H41.792V379.71H225.088M233.28 96.0625H279.36V247.614" stroke="white" stroke-width="15" stroke-miterlimit="10" stroke-linecap="round" stroke-linejoin="round"/>
<path d="M124.736 39.744V19.264C124.736 13.12 129.856 8 136 8H184.128C190.272 8 195.392 13.12 195.392 19.264V39.744M89.92 164.672H230.208M145.216 207.68H230.208M89.92 207.68H114.496M201.536 250.688H230.208M89.92 250.688H170.816M89.92 293.696H198.464M179.008 336.704H182.08M89.92 336.704H148.288M233.28 105.28H86.848V60.224C86.848 48.96 96.064 39.744 107.328 39.744H212.8C224.064 39.744 233.28 48.96 233.28 60.224V105.28Z" stroke="white" stroke-width="15" stroke-miterlimit="10" stroke-linecap="round" stroke-linejoin="round"/>
<path d="M356.16 463.681C415.542 463.681 463.68 415.542 463.68 356.161C463.68 296.779 415.542 248.641 356.16 248.641C296.778 248.641 248.64 296.779 248.64 356.161C248.64 415.542 296.778 463.681 356.16 463.681Z" stroke="white" stroke-width="15" stroke-miterlimit="10" stroke-linecap="round" stroke-linejoin="round"/>
<path d="M356.16 489.279C429.68 489.279 489.28 429.679 489.28 356.159C489.28 282.639 429.68 223.039 356.16 223.039C282.64 223.039 223.04 282.639 223.04 356.159C223.04 429.679 282.64 489.279 356.16 489.279Z" stroke="white" stroke-width="15" stroke-miterlimit="10" stroke-linecap="round" stroke-linejoin="round"/>
<path d="M356.16 248.641V267.073M356.16 446.273V464.705M464.704 356.161H446.272M267.072 356.161H248.64M262.976 410.433L278.336 401.217M433.984 312.129L450.368 302.913M302.912 262.977L312.128 279.361M401.216 433.985L410.432 450.369M450.368 410.433L433.984 401.217M278.336 312.129L262.976 302.913M302.912 450.369L312.128 433.985M401.216 279.361L410.432 262.977" stroke="white" stroke-width="15" stroke-miterlimit="10" stroke-linecap="round" stroke-linejoin="round"/>
<path d="M356.16 365.377C361.25 365.377 365.376 361.251 365.376 356.161C365.376 351.071 361.25 346.945 356.16 346.945C351.07 346.945 346.944 351.071 346.944 356.161C346.944 361.251 351.07 365.377 356.16 365.377Z" stroke="white" stroke-width="15" stroke-miterlimit="10" stroke-linecap="round" stroke-linejoin="round"/>
<path d="M356.16 346.943V323.391M346.944 325.439L356.16 316.223L365.376 325.439M367.424 356.159H418.624M416.576 346.943L425.792 356.159L416.576 365.375" stroke="white" stroke-width="15" stroke-miterlimit="10" stroke-linecap="round" stroke-linejoin="round"/>
</svg>
