<svg width="491" height="491" viewBox="0 0 491 491" fill="none" xmlns="http://www.w3.org/2000/svg">
<path d="M272.004 149.338C272.004 144.063 270.44 138.908 267.51 134.522C264.58 130.137 260.415 126.719 255.543 124.701C250.67 122.682 245.308 122.154 240.135 123.183C234.962 124.212 230.211 126.752 226.481 130.481C222.752 134.211 220.212 138.962 219.183 144.135C218.154 149.308 218.683 154.67 220.701 159.543C222.719 164.415 226.137 168.58 230.522 171.51C234.908 174.44 240.063 176.004 245.338 176.004C252.408 175.996 259.186 173.184 264.185 168.185C269.184 163.186 271.996 156.408 272.004 149.338ZM229.338 149.338C229.338 146.173 230.276 143.08 232.034 140.448C233.792 137.817 236.291 135.767 239.215 134.556C242.138 133.345 245.355 133.028 248.459 133.645C251.563 134.262 254.414 135.786 256.651 138.024C258.889 140.262 260.413 143.112 261.03 146.216C261.648 149.32 261.331 152.537 260.12 155.461C258.909 158.384 256.858 160.883 254.227 162.641C251.596 164.399 248.502 165.338 245.338 165.338C241.096 165.333 237.029 163.646 234.029 160.646C231.03 157.646 229.342 153.58 229.338 149.338ZM272.004 213.338C273.419 213.338 274.775 213.9 275.776 214.9C276.776 215.9 277.338 217.256 277.338 218.671V362.671C277.338 364.085 276.776 365.442 275.776 366.442C274.775 367.442 273.419 368.004 272.004 368.004C270.59 368.004 269.233 367.442 268.233 366.442C267.233 365.442 266.671 364.085 266.671 362.671V218.671C266.671 217.256 267.233 215.9 268.233 214.9C269.233 213.9 270.59 213.338 272.004 213.338ZM218.671 213.338C220.085 213.338 221.442 213.9 222.442 214.9C223.442 215.9 224.004 217.256 224.004 218.671V362.671C224.004 364.085 223.442 365.442 222.442 366.442C221.442 367.442 220.085 368.004 218.671 368.004C217.256 368.004 215.9 367.442 214.9 366.442C213.9 365.442 213.338 364.085 213.338 362.671V218.671C213.338 217.256 213.9 215.9 214.9 214.9C215.9 213.9 217.256 213.338 218.671 213.338ZM245.338 266.671C246.752 266.671 248.109 267.233 249.109 268.233C250.109 269.233 250.671 270.59 250.671 272.004V362.671C250.671 364.085 250.109 365.442 249.109 366.442C248.109 367.442 246.752 368.004 245.338 368.004C243.923 368.004 242.567 367.442 241.566 366.442C240.566 365.442 240.004 364.085 240.004 362.671V272.004C240.004 270.59 240.566 269.233 241.566 268.233C242.567 267.233 243.923 266.671 245.338 266.671ZM213.338 186.671H277.338C282.994 186.677 288.416 188.927 292.416 192.926C296.415 196.926 298.665 202.348 298.671 208.004V288.004C298.671 289.419 298.109 290.775 297.109 291.776C296.109 292.776 294.752 293.338 293.338 293.338C291.923 293.338 290.567 292.776 289.566 291.776C288.566 290.775 288.004 289.419 288.004 288.004V208.004C288.001 205.176 286.876 202.465 284.877 200.465C282.877 198.466 280.166 197.341 277.338 197.338H213.338C210.51 197.341 207.798 198.466 205.799 200.465C203.799 202.465 202.674 205.176 202.671 208.004V288.004C202.671 289.419 202.109 290.775 201.109 291.776C200.109 292.776 198.752 293.338 197.338 293.338C195.923 293.338 194.567 292.776 193.566 291.776C192.566 290.775 192.004 289.419 192.004 288.004V208.004C192.011 202.348 194.26 196.926 198.26 192.926C202.259 188.927 207.682 186.677 213.338 186.671ZM138.671 245.338C138.663 226.065 143.878 207.151 153.763 190.606C163.648 174.062 177.832 160.506 194.807 151.381C196.052 150.717 197.509 150.573 198.86 150.98C200.21 151.388 201.344 152.314 202.014 153.556C202.683 154.798 202.833 156.254 202.431 157.606C202.028 158.959 201.107 160.096 199.868 160.771C184.593 168.989 171.829 181.191 162.932 196.081C154.036 210.971 149.338 227.992 149.338 245.338C149.338 262.683 154.036 279.704 162.932 294.594C171.829 309.484 184.593 321.686 199.868 329.905C200.487 330.235 201.035 330.685 201.481 331.228C201.926 331.771 202.26 332.396 202.463 333.069C202.665 333.741 202.734 334.447 202.663 335.145C202.593 335.844 202.385 336.522 202.052 337.14C201.719 337.758 201.267 338.304 200.722 338.747C200.177 339.191 199.55 339.522 198.877 339.722C198.204 339.922 197.498 339.987 196.8 339.914C196.101 339.841 195.424 339.63 194.807 339.294C177.832 330.169 163.648 316.613 153.763 300.069C143.878 283.525 138.663 264.61 138.671 245.338ZM288.644 153.546C289.315 152.3 290.454 151.373 291.809 150.967C293.163 150.561 294.624 150.71 295.869 151.381C312.839 160.513 327.019 174.07 336.903 190.613C346.787 207.156 352.006 226.067 352.006 245.338C352.006 264.608 346.787 283.519 336.903 300.062C327.019 316.605 312.839 330.163 295.869 339.294C294.625 339.959 293.168 340.103 291.817 339.695C290.467 339.287 289.333 338.361 288.663 337.119C287.994 335.878 287.844 334.421 288.246 333.069C288.648 331.717 289.57 330.579 290.809 329.905C306.084 321.686 318.848 309.484 327.744 294.594C336.641 279.704 341.339 262.683 341.339 245.338C341.339 227.992 336.641 210.971 327.744 196.081C318.848 181.191 306.084 168.989 290.809 160.771C289.564 160.1 288.636 158.961 288.23 157.607C287.824 156.252 287.973 154.791 288.644 153.546ZM240.004 74.2838V106.671C240.004 108.085 240.566 109.442 241.566 110.442C242.567 111.442 243.923 112.004 245.338 112.004C246.752 112.004 248.109 111.442 249.109 110.442C250.109 109.442 250.671 108.085 250.671 106.671V74.2838C260.013 72.9354 268.497 68.0986 274.417 60.7469C280.336 53.3952 283.251 44.0742 282.575 34.6598C281.899 25.2454 277.682 16.4365 270.774 10.0058C263.865 3.57509 254.776 0 245.338 0C235.899 0 226.811 3.57509 219.902 10.0058C212.993 16.4365 208.776 25.2454 208.1 34.6598C207.424 44.0742 210.339 53.3952 216.259 60.7469C222.178 68.0986 230.662 72.9354 240.004 74.2838ZM245.338 10.671C250.612 10.671 255.768 12.2349 260.153 15.1651C264.538 18.0953 267.956 22.26 269.974 27.1327C271.993 32.0054 272.521 37.3672 271.492 42.54C270.463 47.7129 267.923 52.4644 264.194 56.1938C260.464 59.9232 255.713 62.463 250.54 63.4919C245.367 64.5208 240.005 63.9927 235.133 61.9744C230.26 59.9561 226.095 56.5381 223.165 52.1528C220.235 47.7675 218.671 42.6118 218.671 37.3376C218.679 30.2676 221.491 23.4896 226.49 18.4903C231.49 13.4911 238.268 10.679 245.338 10.671ZM343.39 152.619C344.09 152.62 344.784 152.482 345.431 152.214C346.079 151.946 346.666 151.553 347.161 151.057L370.057 128.161C377.617 133.822 387.041 136.41 396.432 135.403C405.823 134.396 414.485 129.869 420.673 122.734C426.861 115.598 430.116 106.384 429.784 96.9447C429.452 87.5056 425.557 78.5426 418.882 71.8597C412.208 65.1769 403.25 61.2702 393.811 60.926C384.373 60.5818 375.154 63.8257 368.011 70.0047C360.867 76.1836 356.329 84.8391 355.311 94.229C354.292 103.619 356.868 113.046 362.52 120.613L339.618 143.515C338.872 144.261 338.365 145.211 338.159 146.245C337.953 147.28 338.059 148.352 338.463 149.327C338.866 150.301 339.55 151.134 340.427 151.72C341.304 152.306 342.335 152.619 343.39 152.619ZM373.56 79.4032C377.289 75.6741 382.041 73.1346 387.213 72.1058C392.386 71.0771 397.748 71.6053 402.62 73.6237C407.493 75.6421 411.657 79.0601 414.588 83.4453C417.518 87.8306 419.081 92.9862 419.081 98.2603C419.081 103.534 417.518 108.69 414.588 113.075C411.657 117.46 407.493 120.878 402.62 122.897C397.748 124.915 392.386 125.443 387.213 124.415C382.041 123.386 377.289 120.847 373.56 117.117C368.566 112.112 365.761 105.331 365.761 98.2603C365.761 91.19 368.566 84.4083 373.56 79.4032ZM453.338 208.004C444.364 208.016 435.694 211.256 428.911 217.131C422.128 223.006 417.684 231.124 416.392 240.004H384.004C382.59 240.004 381.233 240.566 380.233 241.566C379.233 242.567 378.671 243.923 378.671 245.338C378.671 246.752 379.233 248.109 380.233 249.109C381.233 250.109 382.59 250.671 384.004 250.671H416.392C417.414 257.754 420.45 264.394 425.139 269.8C429.828 275.206 435.972 279.15 442.84 281.163C449.707 283.176 457.008 283.173 463.874 281.155C470.739 279.136 476.88 275.186 481.565 269.776C486.249 264.366 489.28 257.724 490.297 250.64C491.313 243.557 490.272 236.33 487.298 229.821C484.324 223.312 479.541 217.795 473.521 213.927C467.5 210.059 460.494 208.003 453.338 208.004ZM453.338 272.004C448.063 272.004 442.908 270.44 438.522 267.51C434.137 264.58 430.719 260.415 428.701 255.543C426.683 250.67 426.154 245.308 427.183 240.135C428.212 234.962 430.752 230.211 434.481 226.481C438.211 222.752 442.962 220.212 448.135 219.183C453.308 218.154 458.67 218.683 463.543 220.701C468.415 222.719 472.58 226.137 475.51 230.522C478.44 234.908 480.004 240.063 480.004 245.338C479.996 252.408 477.184 259.186 472.185 264.185C467.186 269.184 460.408 271.996 453.338 272.004ZM392.416 429.732C398.327 429.731 404.154 428.325 409.416 425.632C414.678 422.938 419.226 419.033 422.683 414.238C426.141 409.443 428.41 403.895 429.304 398.052C430.198 392.208 429.691 386.236 427.826 380.626C425.96 375.017 422.788 369.931 418.572 365.787C414.356 361.643 409.216 358.56 403.575 356.792C397.934 355.023 391.954 354.62 386.126 355.615C380.299 356.61 374.792 358.975 370.057 362.515L347.161 339.619C346.667 339.12 346.079 338.724 345.431 338.453C344.783 338.182 344.088 338.041 343.385 338.04C342.683 338.038 341.987 338.175 341.338 338.443C340.689 338.711 340.099 339.105 339.602 339.602C339.105 340.098 338.712 340.688 338.444 341.337C338.176 341.986 338.038 342.682 338.04 343.384C338.041 344.087 338.182 344.782 338.452 345.43C338.723 346.078 339.119 346.666 339.618 347.161L362.52 370.062C357.155 377.255 354.556 386.138 355.198 395.089C355.84 404.039 359.68 412.461 366.017 418.814C369.481 422.283 373.597 425.033 378.127 426.907C382.657 428.78 387.513 429.74 392.416 429.732ZM373.56 373.56C377.289 369.831 382.04 367.291 387.213 366.262C392.386 365.233 397.748 365.761 402.621 367.779C407.493 369.798 411.658 373.215 414.588 377.601C417.519 381.986 419.083 387.142 419.083 392.416C419.083 397.69 417.519 402.846 414.588 407.231C411.658 411.617 407.493 415.035 402.621 417.053C397.748 419.071 392.386 419.599 387.213 418.57C382.04 417.541 377.289 415.002 373.56 411.272C368.566 406.267 365.762 399.486 365.762 392.416C365.762 385.346 368.566 378.565 373.56 373.56ZM282.671 453.338C282.659 444.364 279.42 435.694 273.545 428.911C267.67 422.128 259.551 417.684 250.671 416.392V384.004C250.671 382.59 250.109 381.233 249.109 380.233C248.109 379.233 246.752 378.671 245.338 378.671C243.923 378.671 242.567 379.233 241.566 380.233C240.566 381.233 240.004 382.59 240.004 384.004V416.392C232.921 417.414 226.282 420.45 220.876 425.139C215.47 429.828 211.525 435.972 209.512 442.84C207.499 449.707 207.502 457.008 209.521 463.874C211.539 470.739 215.489 476.88 220.899 481.565C226.309 486.249 232.951 489.28 240.035 490.297C247.118 491.313 254.345 490.272 260.854 487.298C267.363 484.324 272.88 479.541 276.748 473.521C280.616 467.5 282.672 460.494 282.671 453.338ZM218.671 453.338C218.671 448.063 220.235 442.908 223.165 438.522C226.095 434.137 230.26 430.719 235.133 428.701C240.005 426.683 245.367 426.154 250.54 427.183C255.713 428.212 260.464 430.752 264.194 434.481C267.923 438.211 270.463 442.962 271.492 448.135C272.521 453.308 271.993 458.67 269.974 463.543C267.956 468.415 264.538 472.58 260.153 475.51C255.768 478.44 250.612 480.004 245.338 480.004C238.268 479.996 231.49 477.184 226.49 472.185C221.491 467.186 218.679 460.408 218.671 453.338ZM151.057 339.618C150.562 339.123 149.974 338.73 149.327 338.462C148.68 338.194 147.986 338.056 147.286 338.056C146.585 338.056 145.892 338.194 145.244 338.462C144.597 338.73 144.009 339.123 143.514 339.618L120.618 362.514C113.058 356.853 103.634 354.265 94.243 355.272C84.8518 356.279 76.1906 360.805 70.0025 367.941C63.8144 375.076 60.5589 384.291 60.8911 393.73C61.2232 403.169 65.1185 412.132 71.7928 418.815C78.4672 425.498 87.4252 429.404 96.8639 429.749C106.303 430.093 115.521 426.849 122.665 420.67C129.808 414.491 134.346 405.836 135.365 396.446C136.383 387.056 133.808 377.629 128.156 370.061L151.057 347.16C152.057 346.16 152.619 344.803 152.619 343.389C152.619 341.975 152.057 340.618 151.057 339.618ZM117.116 411.272C113.387 414.997 108.638 417.533 103.468 418.559C98.2982 419.585 92.9402 419.056 88.0714 417.038C83.2025 415.02 79.0412 411.603 76.1136 407.221C73.186 402.838 71.6234 397.686 71.6234 392.415C71.6234 387.144 73.186 381.992 76.1136 377.609C79.0412 373.227 83.2025 369.81 88.0714 367.792C92.9402 365.774 98.2982 365.244 103.468 366.271C108.638 367.297 113.387 369.833 117.116 373.558C122.11 378.563 124.914 385.345 124.914 392.415C124.914 399.485 122.11 406.267 117.116 411.272ZM74.2838 250.671H106.671C108.085 250.671 109.442 250.109 110.442 249.109C111.442 248.109 112.004 246.752 112.004 245.338C112.004 243.923 111.442 242.567 110.442 241.566C109.442 240.566 108.085 240.004 106.671 240.004H74.2838C72.9354 230.662 68.0986 222.178 60.7469 216.259C53.3952 210.339 44.0742 207.424 34.6598 208.1C25.2454 208.776 16.4365 212.993 10.0058 219.902C3.57509 226.811 0 235.899 0 245.338C0 254.776 3.57509 263.865 10.0058 270.774C16.4365 277.682 25.2454 281.899 34.6598 282.575C44.0742 283.251 53.3952 280.336 60.7469 274.417C68.0986 268.497 72.9354 260.013 74.2838 250.671ZM37.3376 272.004C32.0635 272.004 26.9077 270.44 22.5224 267.51C18.1371 264.58 14.7192 260.415 12.7008 255.543C10.6825 250.67 10.1544 245.308 11.1833 240.135C12.2123 234.962 14.752 230.211 18.4814 226.481C22.2108 222.752 26.9624 220.212 32.1352 219.183C37.308 218.154 42.6698 218.683 47.5425 220.701C52.4152 222.719 56.58 226.137 59.5101 230.522C62.4403 234.908 64.0043 240.063 64.0043 245.338C63.9962 252.408 61.1841 259.186 56.1849 264.185C51.1857 269.184 44.4076 271.996 37.3376 272.004ZM98.2598 135.593C106.323 135.615 114.173 133.005 120.618 128.161L143.514 151.057C144.009 151.555 144.597 151.952 145.245 152.223C145.893 152.494 146.588 152.634 147.29 152.635C147.992 152.637 148.688 152.5 149.337 152.232C149.987 151.964 150.576 151.57 151.073 151.074C151.57 150.577 151.963 149.987 152.232 149.338C152.5 148.689 152.637 147.993 152.635 147.291C152.634 146.588 152.494 145.893 152.223 145.245C151.952 144.597 151.556 144.009 151.057 143.515L128.156 120.613C133.521 113.42 136.119 104.537 135.477 95.5865C134.835 86.6358 130.995 78.2147 124.659 71.8608C120.317 67.5199 114.972 64.3166 109.097 62.5347C103.222 60.7527 96.9986 60.4471 90.9773 61.645C84.9559 62.8428 79.323 65.5071 74.5772 69.4019C69.8315 73.2966 66.1195 78.3016 63.77 83.9736C61.4206 89.6456 60.5061 95.8094 61.1077 101.919C61.7093 108.029 63.8084 113.896 67.219 119.001C70.6296 124.106 75.2465 128.291 80.6607 131.185C86.0749 134.079 92.1194 135.594 98.2587 135.594L98.2598 135.593ZM79.4032 79.4032C83.1326 75.6738 87.8841 73.134 93.057 72.105C98.2298 71.076 103.592 71.6041 108.464 73.6224C113.337 75.6407 117.502 79.0586 120.432 83.444C123.362 87.8293 124.926 92.985 124.926 98.2592C124.926 103.533 123.362 108.689 120.432 113.074C117.502 117.46 113.337 120.878 108.464 122.896C103.592 124.914 98.2298 125.442 93.057 124.413C87.8841 123.384 83.1326 120.845 79.4032 117.115C76.917 114.645 74.944 111.707 73.5976 108.471C72.2512 105.235 71.558 101.764 71.558 98.2592C71.558 94.7542 72.2512 91.2838 73.5976 88.0478C74.944 84.8117 76.917 81.8738 79.4032 79.4032Z" fill="white"/>
</svg>
