<svg width="512" height="512" viewBox="0 0 512 512" fill="none" xmlns="http://www.w3.org/2000/svg">
<g clip-path="url(#clip0_1099_1095)">
<path d="M266 400H96V328C96 325.878 95.1571 323.843 93.6569 322.343C92.1566 320.843 90.1217 320 88 320H16V136H64.5C66.6217 136 68.6566 135.157 70.1569 133.657C71.6571 132.157 72.5 130.122 72.5 128C72.5 125.878 71.6571 123.843 70.1569 122.343C68.6566 120.843 66.6217 120 64.5 120H16V48H104V80C104 82.1217 104.843 84.1566 106.343 85.6569C107.843 87.1571 109.878 88 112 88H144C146.122 88 148.157 87.1571 149.657 85.6569C151.157 84.1566 152 82.1217 152 80V48H200V80C200 82.1217 200.843 84.1566 202.343 85.6569C203.843 87.1571 205.878 88 208 88H240C242.122 88 244.157 87.1571 245.657 85.6569C247.157 84.1566 248 82.1217 248 80V48H296V80C296 82.1217 296.843 84.1566 298.343 85.6569C299.843 87.1571 301.878 88 304 88H336C338.122 88 340.157 87.1571 341.657 85.6569C343.157 84.1566 344 82.1217 344 80V48H432V120H120C117.878 120 115.843 120.843 114.343 122.343C112.843 123.843 112 125.878 112 128C112 130.122 112.843 132.157 114.343 133.657C115.843 135.157 117.878 136 120 136H432V228C432 230.122 432.843 232.157 434.343 233.657C435.843 235.157 437.878 236 440 236C442.122 236 444.157 235.157 445.657 233.657C447.157 232.157 448 230.122 448 228V40C448 37.8783 447.157 35.8434 445.657 34.3431C444.157 32.8429 442.122 32 440 32H344V8C344 5.87827 343.157 3.84344 341.657 2.34315C340.157 0.842855 338.122 0 336 0L304 0C301.878 0 299.843 0.842855 298.343 2.34315C296.843 3.84344 296 5.87827 296 8V32H248V8C248 5.87827 247.157 3.84344 245.657 2.34315C244.157 0.842855 242.122 0 240 0L208 0C205.878 0 203.843 0.842855 202.343 2.34315C200.843 3.84344 200 5.87827 200 8V32H152V8C152 5.87827 151.157 3.84344 149.657 2.34315C148.157 0.842855 146.122 0 144 0L112 0C109.878 0 107.843 0.842855 106.343 2.34315C104.843 3.84344 104 5.87827 104 8V32H8C5.87827 32 3.84344 32.8429 2.34315 34.3431C0.842855 35.8434 0 37.8783 0 40L0 328C0.0080976 330.12 0.848381 332.153 2.34 333.66L82.34 413.66C83.8471 415.152 85.8796 415.992 88 416H266C268.122 416 270.157 415.157 271.657 413.657C273.157 412.157 274 410.122 274 408C274 405.878 273.157 403.843 271.657 402.343C270.157 400.843 268.122 400 266 400ZM312 16H328V72H312V16ZM216 16H232V72H216V16ZM120 16H136V72H120V16ZM80 388.69L27.31 336H80V388.69Z" fill="white"/>
<path d="M105 128C105 125.878 104.157 123.843 102.657 122.343C101.157 120.843 99.1217 120 97 120H87.5C85.3783 120 83.3434 120.843 81.8431 122.343C80.3429 123.843 79.5 125.878 79.5 128C79.5 130.122 80.3429 132.157 81.8431 133.657C83.3434 135.157 85.3783 136 87.5 136H97C99.1217 136 101.157 135.157 102.657 133.657C104.157 132.157 105 130.122 105 128ZM168 184C168 181.878 167.157 179.843 165.657 178.343C164.157 176.843 162.122 176 160 176H96C93.8783 176 91.8434 176.843 90.3431 178.343C88.8429 179.843 88 181.878 88 184V248C88 250.122 88.8429 252.157 90.3431 253.657C91.8434 255.157 93.8783 256 96 256H160C162.122 256 164.157 255.157 165.657 253.657C167.157 252.157 168 250.122 168 248V184ZM152 240H104V192H152V240ZM264 184C264 181.878 263.157 179.843 261.657 178.343C260.157 176.843 258.122 176 256 176H192C189.878 176 187.843 176.843 186.343 178.343C184.843 179.843 184 181.878 184 184V248C184 250.122 184.843 252.157 186.343 253.657C187.843 255.157 189.878 256 192 256H256C258.122 256 260.157 255.157 261.657 253.657C263.157 252.157 264 250.122 264 248V184ZM248 240H200V192H248V240ZM112 344C109.878 344 107.843 344.843 106.343 346.343C104.843 347.843 104 349.878 104 352C104 354.122 104.843 356.157 106.343 357.657C107.843 359.157 109.878 360 112 360H160C162.122 360 164.157 359.157 165.657 357.657C167.157 356.157 168 354.122 168 352V288C168 285.878 167.157 283.843 165.657 282.343C164.157 280.843 162.122 280 160 280H96C93.8783 280 91.8434 280.843 90.3431 282.343C88.8429 283.843 88 285.878 88 288V304C88 306.122 88.8429 308.157 90.3431 309.657C91.8434 311.157 93.8783 312 96 312C98.1217 312 100.157 311.157 101.657 309.657C103.157 308.157 104 306.122 104 304V296H152V344H112ZM256 280H192C189.878 280 187.843 280.843 186.343 282.343C184.843 283.843 184 285.878 184 288V352C184 354.122 184.843 356.157 186.343 357.657C187.843 359.157 189.878 360 192 360H256C258.122 360 260.157 359.157 261.657 357.657C263.157 356.157 264 354.122 264 352V288C264 285.878 263.157 283.843 261.657 282.343C260.157 280.843 258.122 280 256 280ZM248 344H200V296H248V344ZM352 176H288C285.878 176 283.843 176.843 282.343 178.343C280.843 179.843 280 181.878 280 184V248C280 250.122 280.843 252.157 282.343 253.657C283.843 255.157 285.878 256 288 256H352C354.122 256 356.157 255.157 357.657 253.657C359.157 252.157 360 250.122 360 248V184C360 181.878 359.157 179.843 357.657 178.343C356.157 176.843 354.122 176 352 176ZM344 240H296V192H344V240ZM296 344V296H344C346.122 296 348.157 295.157 349.657 293.657C351.157 292.157 352 290.122 352 288C352 285.878 351.157 283.843 349.657 282.343C348.157 280.843 346.122 280 344 280H288C285.878 280 283.843 280.843 282.343 282.343C280.843 283.843 280 285.878 280 288V344C280 346.122 280.843 348.157 282.343 349.657C283.843 351.157 285.878 352 288 352C290.122 352 292.157 351.157 293.657 349.657C295.157 348.157 296 346.122 296 344Z" fill="white"/>
<path d="M424 290.6V280H432C434.122 280 436.157 279.157 437.657 277.657C439.157 276.157 440 274.122 440 272V248C440 245.878 439.157 243.843 437.657 242.343C436.157 240.843 434.122 240 432 240H368C365.879 240 363.844 240.843 362.343 242.343C360.843 243.843 360 245.878 360 248V272C360 274.122 360.843 276.157 362.343 277.657C363.844 279.157 365.879 280 368 280H376V290.6C349.027 296.517 325.191 312.191 309.069 334.61C292.948 357.03 285.677 384.615 288.653 412.069C291.629 439.522 304.642 464.909 325.193 483.353C345.745 501.797 372.386 511.998 400 511.998C427.615 511.998 454.256 501.797 474.807 483.353C495.359 464.909 508.372 439.522 511.348 412.069C514.324 384.615 507.053 357.03 490.931 334.61C474.809 312.191 450.973 296.517 424 290.6ZM376 256H424V264H376V256ZM392 280H408V288.29C405.36 288.1 402.69 288 400 288C397.31 288 394.64 288.1 392 288.29V280ZM400 496C381.013 496 362.453 490.37 346.666 479.821C330.878 469.272 318.574 454.279 311.308 436.738C304.042 419.196 302.141 399.894 305.845 381.271C309.549 362.649 318.692 345.544 332.118 332.118C345.544 318.692 362.649 309.549 381.272 305.845C399.894 302.14 419.196 304.042 436.738 311.308C454.28 318.574 469.273 330.878 479.821 346.665C490.37 362.452 496 381.013 496 400C495.971 425.452 485.848 449.853 467.85 467.85C449.853 485.847 425.452 495.971 400 496Z" fill="white"/>
<path d="M400 320C384.178 320 368.71 324.692 355.554 333.482C342.398 342.273 332.145 354.767 326.09 369.385C320.035 384.003 318.45 400.089 321.537 415.607C324.624 431.126 332.243 445.38 343.432 456.569C354.62 467.757 368.874 475.376 384.393 478.463C399.911 481.55 415.997 479.965 430.615 473.91C445.233 467.855 457.727 457.602 466.518 444.446C475.308 431.29 480 415.823 480 400C479.976 378.79 471.54 358.456 456.542 343.458C441.545 328.46 421.21 320.024 400 320ZM408 463.48V456C408 453.878 407.157 451.843 405.657 450.343C404.157 448.843 402.122 448 400 448C397.878 448 395.843 448.843 394.343 450.343C392.843 451.843 392 453.878 392 456V463.48C379.287 461.864 367.348 456.478 357.724 448.016C348.099 439.553 341.23 428.402 338 416H344C346.122 416 348.157 415.157 349.657 413.657C351.157 412.157 352 410.122 352 408C352 405.878 351.157 403.843 349.657 402.343C348.157 400.843 346.122 400 344 400H336C336.022 384.42 341.719 369.381 352.026 357.697C362.333 346.013 376.544 338.485 392 336.52V344C392 346.122 392.843 348.157 394.343 349.657C395.843 351.157 397.878 352 400 352C402.122 352 404.157 351.157 405.657 349.657C407.157 348.157 408 346.122 408 344V336.52C423.456 338.485 437.667 346.013 447.974 357.697C458.281 369.381 463.979 384.42 464 400H456C453.878 400 451.843 400.843 450.343 402.343C448.843 403.843 448 405.878 448 408C448 410.122 448.843 412.157 450.343 413.657C451.843 415.157 453.878 416 456 416H462C458.771 428.402 451.901 439.553 442.276 448.016C432.652 456.478 420.714 461.864 408 463.48Z" fill="white"/>
<path d="M419.56 385.339L401 397.709L373.64 370.349C372.128 368.912 370.114 368.122 368.027 368.149C365.941 368.176 363.948 369.016 362.473 370.492C360.998 371.967 360.157 373.96 360.131 376.046C360.104 378.132 360.893 380.146 362.33 381.659L394.33 413.659C395.637 414.965 397.357 415.779 399.196 415.961C401.036 416.144 402.882 415.683 404.42 414.659L428.42 398.659C429.323 398.089 430.104 397.345 430.715 396.469C431.326 395.594 431.756 394.605 431.979 393.561C432.202 392.516 432.213 391.438 432.013 390.389C431.813 389.34 431.404 388.342 430.812 387.454C430.22 386.565 429.456 385.804 428.565 385.216C427.674 384.627 426.675 384.223 425.625 384.027C424.575 383.83 423.497 383.846 422.454 384.073C421.411 384.3 420.423 384.734 419.55 385.349L419.56 385.339Z" fill="white"/>
</g>
<defs>
<clipPath id="clip0_1099_1095">
<rect width="512" height="512" fill="white"/>
</clipPath>
</defs>
</svg>
