<svg width="512" height="513" viewBox="0 0 512 513" fill="none" xmlns="http://www.w3.org/2000/svg">
<path d="M511.501 369.21L455.501 222.89C454.802 221.065 453.417 219.584 451.643 218.764C449.868 217.944 447.844 217.85 446.001 218.5L387.001 239.55C386.053 239.89 385.183 240.417 384.443 241.099C383.703 241.781 383.107 242.605 382.691 243.522C382.275 244.438 382.048 245.429 382.022 246.436C381.996 247.442 382.172 248.443 382.541 249.38L387.671 262.38L347.411 281.5L281.331 269.09C274.895 267.887 268.28 268.024 261.9 269.494C255.52 270.963 249.512 273.733 244.251 277.63L232.441 286.39L224.621 280.76C218.718 276.534 211.931 273.707 204.773 272.494C197.616 271.281 190.276 271.714 183.311 273.76L157.951 281.31L124.731 261.45L129.501 249.39C129.869 248.453 130.045 247.452 130.02 246.446C129.994 245.439 129.766 244.448 129.35 243.532C128.934 242.615 128.338 241.791 127.598 241.109C126.858 240.427 125.988 239.9 125.041 239.56L66.0006 218.5C64.1548 217.844 62.1253 217.935 60.3463 218.756C58.5672 219.576 57.1797 221.06 56.4806 222.89L0.500647 369.21C-0.193454 371.012 -0.164868 373.012 0.580438 374.794C1.32574 376.575 2.73018 378 4.50065 378.77L60.5006 402.9C61.4231 403.299 62.4163 403.508 63.4212 403.515C64.426 403.522 65.4221 403.327 66.3502 402.942C67.2783 402.557 68.1195 401.989 68.8239 401.272C69.5283 400.556 70.0815 399.705 70.4506 398.77L76.0906 384.5L122.511 410.66C119.383 415.202 117.942 420.694 118.439 426.187C118.936 431.679 121.338 436.824 125.231 440.73C127.42 442.921 130.021 444.657 132.883 445.839C135.746 447.022 138.814 447.627 141.911 447.62H142.501C143.026 453.488 145.73 458.945 150.08 462.918C154.43 466.89 160.11 469.089 166.001 469.08H166.611C167.086 474.593 169.494 479.761 173.411 483.67C175.6 485.861 178.201 487.597 181.063 488.779C183.926 489.962 186.994 490.567 190.091 490.56H190.681C191.077 495.03 192.741 499.293 195.477 502.85C198.212 506.407 201.905 509.11 206.123 510.641C210.341 512.171 214.908 512.467 219.288 511.493C223.668 510.519 227.679 508.315 230.851 505.14L239.761 496.24L251.821 505.24C256.93 509.048 263.243 510.882 269.597 510.404C275.951 509.927 281.918 507.169 286.401 502.64L287.251 501.78C291.037 497.916 293.549 492.985 294.451 487.65C298.963 488.924 303.732 488.974 308.27 487.795C312.808 486.616 316.95 484.25 320.271 480.94L320.891 480.32C325.099 476.12 327.757 470.617 328.431 464.71C332.977 466.065 337.806 466.162 342.404 464.991C347.001 463.82 351.196 461.425 354.541 458.06L354.961 457.64C359.063 453.574 361.695 448.258 362.441 442.53C366.489 443.496 370.708 443.489 374.753 442.511C378.799 441.533 382.555 439.61 385.714 436.901C388.874 434.193 391.347 430.774 392.931 426.926C394.516 423.077 395.167 418.908 394.831 414.76C394.7 413.152 394.422 411.558 394.001 410L437.591 388.66L441.591 398.74C441.957 399.677 442.509 400.529 443.213 401.248C443.917 401.966 444.759 402.535 445.688 402.92C446.617 403.306 447.614 403.5 448.619 403.492C449.625 403.483 450.619 403.272 451.541 402.87L507.541 378.74C509.297 377.962 510.687 376.54 511.424 374.766C512.161 372.992 512.188 371.003 511.501 369.21ZM59.3307 386.07L17.0806 367.85L67.8506 235.1L80.3007 239.53L56.3006 307.75C55.6376 309.628 55.7477 311.692 56.6066 313.489C57.4655 315.285 59.0029 316.667 60.8806 317.33C62.7584 317.993 64.8226 317.883 66.6192 317.024C68.4158 316.165 69.7976 314.628 70.4606 312.75L94.4007 244.6L112.651 251.11L59.3307 386.07ZM148.001 430.12C146.381 431.675 144.218 432.534 141.973 432.513C139.728 432.492 137.581 431.594 135.99 430.01C134.4 428.426 133.492 426.282 133.463 424.038C133.433 421.793 134.283 419.626 135.831 418L151.831 402C153.034 400.801 154.565 399.986 156.231 399.656C157.898 399.326 159.624 399.497 161.193 400.148C162.762 400.798 164.104 401.898 165.048 403.31C165.993 404.722 166.498 406.382 166.501 408.08C166.505 409.209 166.284 410.326 165.851 411.369C165.418 412.411 164.783 413.356 163.981 414.15L148.001 430.12ZM173.421 450.28C172.971 450.72 172.571 451.19 172.171 451.66L172.091 451.57C171.3 452.398 170.352 453.059 169.303 453.515C168.253 453.971 167.123 454.213 165.979 454.227C164.835 454.24 163.699 454.025 162.639 453.593C161.58 453.162 160.617 452.523 159.807 451.714C158.998 450.905 158.358 449.943 157.925 448.883C157.493 447.823 157.277 446.688 157.289 445.544C157.302 444.4 157.543 443.269 157.998 442.219C158.453 441.17 159.114 440.221 159.941 439.43L174.621 424.76C175.061 424.32 175.481 423.86 175.881 423.39L175.951 423.46C177.573 421.909 179.738 421.053 181.982 421.078C184.227 421.102 186.372 422.004 187.96 423.591C189.548 425.177 190.452 427.322 190.478 429.567C190.504 431.811 189.651 433.977 188.101 435.6L173.421 450.28ZM196.141 473C194.506 474.468 192.371 475.254 190.174 475.196C187.978 475.137 185.888 474.24 184.333 472.688C182.778 471.135 181.877 469.046 181.815 466.85C181.753 464.654 182.535 462.517 184.001 460.88L200.001 444.88C200.777 444.001 201.725 443.29 202.786 442.792C203.847 442.293 204.999 442.017 206.171 441.98C207.344 441.943 208.511 442.147 209.601 442.579C210.691 443.01 211.682 443.66 212.511 444.489C213.341 445.318 213.992 446.308 214.424 447.398C214.857 448.488 215.062 449.655 215.026 450.827C214.99 451.999 214.715 453.151 214.217 454.213C213.719 455.275 213.009 456.223 212.131 457L196.141 473ZM236.221 478.46L220.221 494.46C218.599 496.012 216.434 496.867 214.189 496.843C211.945 496.818 209.799 495.916 208.211 494.33C206.623 492.743 205.719 490.598 205.693 488.354C205.667 486.109 206.52 483.943 208.071 482.32L222.751 467.65C223.191 467.21 223.611 466.75 224.011 466.28L224.081 466.35C225.703 464.799 227.868 463.943 230.112 463.968C232.357 463.992 234.502 464.894 236.09 466.481C237.678 468.067 238.582 470.212 238.608 472.457C238.634 474.701 237.781 476.867 236.231 478.49L236.221 478.46ZM376.581 424.86C374.587 426.876 371.908 428.066 369.076 428.194C366.244 428.322 363.468 427.378 361.301 425.55L355.451 420.68C355.042 420.086 354.551 419.554 353.991 419.1L340.501 408.26C338.946 407.092 336.998 406.573 335.068 406.814C333.139 407.054 331.378 408.035 330.157 409.548C328.936 411.062 328.351 412.991 328.525 414.928C328.7 416.865 329.619 418.658 331.091 419.93L342.731 429.32C343.054 429.767 343.423 430.179 343.831 430.55C344.987 431.574 345.922 432.824 346.577 434.222C347.232 435.621 347.594 437.138 347.641 438.682C347.688 440.226 347.419 441.763 346.849 443.199C346.28 444.634 345.423 445.938 344.331 447.03L343.911 447.45C342.014 449.355 339.501 450.522 336.822 450.742C334.142 450.962 331.473 450.22 329.291 448.65L317.701 440.35L317.581 440.26L313.201 437.13C311.583 435.973 309.571 435.505 307.609 435.83C305.646 436.156 303.893 437.247 302.736 438.865C301.578 440.483 301.11 442.494 301.436 444.457C301.761 446.42 302.853 448.173 304.471 449.33L308.931 452.52C310.254 453.485 311.354 454.724 312.152 456.154C312.951 457.584 313.429 459.171 313.556 460.804C313.682 462.437 313.453 464.078 312.884 465.613C312.315 467.149 311.42 468.544 310.261 469.7L309.641 470.32C307.6 472.358 304.86 473.543 301.978 473.634C299.095 473.725 296.286 472.716 294.121 470.81L281.621 459.81C280.903 459.066 280.038 458.478 279.082 458.083C278.126 457.688 277.099 457.496 276.065 457.518C275.03 457.539 274.012 457.775 273.073 458.209C272.134 458.643 271.295 459.267 270.609 460.041C269.923 460.815 269.404 461.722 269.086 462.706C268.767 463.69 268.656 464.73 268.758 465.759C268.861 466.788 269.175 467.785 269.682 468.687C270.188 469.589 270.875 470.377 271.701 471L275.951 474.76C277.109 475.778 278.047 477.022 278.707 478.415C279.368 479.809 279.737 481.322 279.792 482.863C279.847 484.404 279.587 485.94 279.028 487.377C278.469 488.814 277.623 490.122 276.541 491.22L275.691 492.08C273.761 494.031 271.191 495.218 268.455 495.424C265.719 495.63 263.001 494.84 260.801 493.2L250.001 485.14C252.283 481.575 253.564 477.462 253.71 473.231C253.855 469.001 252.86 464.809 250.828 461.096C248.796 457.382 245.802 454.284 242.16 452.126C238.519 449.968 234.364 448.83 230.131 448.83H229.541C229.014 442.964 226.311 437.508 221.964 433.535C217.617 429.562 211.94 427.359 206.051 427.36H205.441C204.896 421.409 202.106 415.888 197.637 411.92C193.167 407.952 187.355 405.836 181.381 406C180.91 400.487 178.497 395.32 174.571 391.42C170.144 387.002 164.145 384.52 157.891 384.52C151.636 384.52 145.637 387.002 141.211 391.42L133.141 399.48L81.6406 370.48L119.121 275.64L153.061 295.93C153.954 296.465 154.949 296.808 155.982 296.937C157.015 297.066 158.063 296.978 159.061 296.68L187.581 288.19C192.346 286.786 197.368 286.486 202.266 287.313C207.164 288.139 211.81 290.071 215.851 292.96L219.791 295.8L179.701 325.55C176.726 327.759 174.307 330.629 172.634 333.935C170.961 337.241 170.081 340.89 170.064 344.595C170.046 348.3 170.892 351.958 172.533 355.279C174.175 358.6 176.567 361.494 179.521 363.73C185.092 367.913 191.797 370.314 198.756 370.619C205.716 370.924 212.605 369.119 218.521 365.44L250.001 345.63C253.661 352.93 260.501 362.85 272.381 368.96C286.151 376.04 302.891 376.22 322.191 369.5L375.191 407.67C376.522 408.632 377.63 409.871 378.436 411.302C379.242 412.733 379.728 414.322 379.86 415.959C379.992 417.597 379.768 419.243 379.201 420.785C378.635 422.327 377.741 423.728 376.581 424.89V424.86ZM386.221 397.1L327.731 355C326.716 354.271 325.535 353.807 324.295 353.65C323.055 353.493 321.796 353.648 320.631 354.1C303.931 360.58 290.061 361.1 279.381 355.69C265.241 348.5 260.911 332.78 260.871 332.69C260.579 331.546 260.02 330.487 259.242 329.599C258.463 328.711 257.486 328.02 256.389 327.582C255.293 327.143 254.108 326.97 252.932 327.075C251.756 327.181 250.621 327.563 249.621 328.19L210.541 352.7C207.202 354.775 203.313 355.79 199.386 355.612C195.458 355.433 191.678 354.07 188.541 351.7C187.444 350.872 186.555 349.799 185.946 348.567C185.336 347.335 185.022 345.977 185.029 344.603C185.036 343.228 185.363 341.874 185.985 340.648C186.606 339.422 187.506 338.358 188.611 337.54L253.151 289.64C256.751 286.975 260.862 285.081 265.227 284.076C269.592 283.071 274.118 282.977 278.521 283.8L347.001 296.66C348.558 296.959 350.169 296.752 351.601 296.07L393.161 276.33L432.031 374.69L386.221 397.1ZM452.671 386.04L399.321 251.04L417.581 244.53L441.511 312.68C442.174 314.558 443.555 316.095 445.352 316.954C447.149 317.813 449.213 317.923 451.091 317.26C452.968 316.597 454.506 315.215 455.365 313.419C456.224 311.622 456.334 309.558 455.671 307.68L431.671 239.46L444.121 235.03L494.891 367.78L452.671 386.04Z" fill="white"/>
<path d="M256.001 235C279.24 235 301.958 228.109 321.28 215.198C340.603 202.287 355.664 183.936 364.557 162.465C373.45 140.995 375.777 117.37 371.243 94.5769C366.709 71.7842 355.519 50.8477 339.086 34.415C322.653 17.9823 301.717 6.79155 278.924 2.25778C256.131 -2.27598 232.506 0.0509109 211.036 8.94421C189.565 17.8375 171.214 32.8978 158.303 52.2206C145.392 71.5433 138.501 94.2607 138.501 117.5C138.535 148.652 150.926 178.519 172.954 200.547C194.982 222.575 224.849 234.966 256.001 235ZM256.001 15.0001C276.274 15.0001 296.091 21.0116 312.947 32.2744C329.803 43.5373 342.941 59.5456 350.699 78.275C358.457 97.0044 360.486 117.614 356.531 137.497C352.576 157.38 342.814 175.644 328.479 189.978C314.145 204.313 295.881 214.076 275.998 218.031C256.115 221.986 235.505 219.956 216.776 212.198C198.046 204.44 182.038 191.302 170.775 174.446C159.512 157.59 153.501 137.773 153.501 117.5C153.53 90.3243 164.339 64.2699 183.555 45.0538C202.771 25.8376 228.825 15.0292 256.001 15.0001Z" fill="white"/>
<path d="M256.001 205C273.307 205 290.224 199.868 304.613 190.254C319.003 180.639 330.218 166.973 336.84 150.985C343.463 134.996 345.196 117.403 341.82 100.43C338.443 83.4563 330.11 67.8653 317.873 55.6282C305.636 43.3911 290.045 35.0575 273.071 31.6813C256.098 28.3051 238.505 30.0379 222.516 36.6606C206.528 43.2832 192.862 54.4983 183.247 68.8876C173.633 83.2769 168.501 100.194 168.501 117.5C168.527 140.698 177.755 162.939 194.158 179.343C210.562 195.746 232.803 204.974 256.001 205ZM256.001 45C270.34 45 284.357 49.2521 296.28 57.2185C308.202 65.1849 317.495 76.5078 322.982 89.7555C328.47 103.003 329.905 117.58 327.108 131.644C324.31 145.708 317.406 158.626 307.266 168.765C297.127 178.905 284.209 185.81 270.145 188.607C256.081 191.404 241.504 189.969 228.256 184.481C215.009 178.994 203.686 169.701 195.719 157.779C187.753 145.856 183.501 131.839 183.501 117.5C183.522 98.2783 191.167 79.85 204.759 66.2582C218.351 52.6664 236.779 45.0212 256.001 45ZM406.941 117.5C406.941 118.485 407.135 119.46 407.512 120.37C407.889 121.28 408.441 122.107 409.138 122.803C409.834 123.5 410.661 124.052 411.571 124.429C412.481 124.806 413.456 125 414.441 125H456.001C457.99 125 459.898 124.21 461.304 122.803C462.711 121.397 463.501 119.489 463.501 117.5C463.501 115.511 462.711 113.603 461.304 112.197C459.898 110.79 457.99 110 456.001 110H414.441C412.452 110 410.544 110.79 409.138 112.197C407.731 113.603 406.941 115.511 406.941 117.5ZM398.861 83.31C400.194 83.3203 401.506 82.9752 402.661 82.31L433.821 64C435.545 62.9935 436.798 61.3435 437.306 59.4128C437.813 57.4821 437.532 55.4289 436.526 53.705C435.519 51.9811 433.869 50.7277 431.939 50.2204C430.008 49.7131 427.955 49.9935 426.231 51L395.061 69.34C393.625 70.1666 392.503 71.4453 391.87 72.9767C391.238 74.5081 391.13 76.2059 391.564 77.8049C391.998 79.4039 392.949 80.8143 394.27 81.8156C395.59 82.817 397.204 83.353 398.861 83.34V83.31ZM395.061 165.66L426.231 184C427.085 184.498 428.028 184.824 429.007 184.958C429.987 185.091 430.983 185.031 431.939 184.78C432.895 184.529 433.792 184.092 434.579 183.494C435.366 182.896 436.028 182.149 436.526 181.295C437.024 180.441 437.35 179.498 437.483 178.519C437.617 177.539 437.557 176.543 437.306 175.587C437.054 174.631 436.617 173.734 436.02 172.947C435.422 172.16 434.675 171.498 433.821 171L402.661 152.7C401.811 152.183 400.867 151.839 399.884 151.69C398.9 151.541 397.897 151.589 396.932 151.832C395.967 152.074 395.06 152.506 394.264 153.102C393.468 153.699 392.798 154.447 392.294 155.305C391.79 156.163 391.461 157.112 391.328 158.098C391.194 159.084 391.258 160.086 391.515 161.047C391.773 162.008 392.219 162.908 392.828 163.695C393.436 164.482 394.196 165.139 395.061 165.63V165.66ZM56.001 125H97.561C99.5501 125 101.458 124.21 102.864 122.803C104.271 121.397 105.061 119.489 105.061 117.5C105.061 115.511 104.271 113.603 102.864 112.197C101.458 110.79 99.5501 110 97.561 110H56.001C54.0119 110 52.1042 110.79 50.6977 112.197C49.2912 113.603 48.501 115.511 48.501 117.5C48.501 119.489 49.2912 121.397 50.6977 122.803C52.1042 124.21 54.0119 125 56.001 125ZM78.181 64L109.341 82.3C110.191 82.8175 111.135 83.1607 112.118 83.3098C113.102 83.4589 114.105 83.4108 115.07 83.1684C116.035 82.9259 116.942 82.494 117.738 81.8977C118.534 81.3014 119.204 80.5526 119.708 79.695C120.212 78.8374 120.54 77.888 120.674 76.9023C120.808 75.9165 120.744 74.914 120.487 73.9531C120.229 72.9922 119.783 72.0922 119.174 71.3053C118.566 70.5185 117.806 69.8606 116.941 69.37L85.771 51C84.9174 50.5017 83.974 50.1763 82.9947 50.0425C82.0153 49.9088 81.0192 49.9692 80.0633 50.2204C78.1326 50.7277 76.4825 51.9811 75.476 53.705C74.4695 55.4289 74.189 57.4821 74.6963 59.4128C75.2036 61.3435 76.4571 62.9935 78.181 64ZM109.341 152.73L78.181 171C76.4571 172.007 75.2036 173.657 74.6963 175.587C74.189 177.518 74.4695 179.571 75.476 181.295C76.4825 183.019 78.1326 184.272 80.0633 184.78C81.9939 185.287 84.0471 185.007 85.771 184L116.941 165.69C117.806 165.199 118.566 164.542 119.174 163.755C119.783 162.968 120.229 162.068 120.487 161.107C120.744 160.146 120.808 159.144 120.674 158.158C120.54 157.172 120.212 156.223 119.708 155.365C119.204 154.507 118.534 153.759 117.738 153.162C116.942 152.566 116.035 152.134 115.07 151.892C114.105 151.649 113.102 151.601 112.118 151.75C111.135 151.899 110.191 152.243 109.341 152.76V152.73Z" fill="white"/>
<path d="M239.171 150.119C239.874 150.875 240.725 151.478 241.671 151.89C242.618 152.302 243.639 152.515 244.671 152.515C245.703 152.515 246.724 152.302 247.671 151.89C248.617 151.478 249.468 150.875 250.171 150.119L301.511 95.1187C302.183 94.3964 302.707 93.5488 303.052 92.6242C303.397 91.6996 303.556 90.7161 303.521 89.73C303.485 88.7438 303.256 87.7742 302.846 86.8767C302.436 85.9791 301.853 85.171 301.131 84.4987C300.409 83.8263 299.561 83.3028 298.637 82.958C297.712 82.6132 296.729 82.4539 295.742 82.4892C294.756 82.5245 293.787 82.7536 292.889 83.1636C291.992 83.5736 291.183 84.1564 290.511 84.8787L244.661 133.999L221.481 109.169C220.123 107.71 218.241 106.85 216.25 106.779C214.258 106.708 212.32 107.431 210.861 108.789C209.402 110.147 208.543 112.028 208.472 114.02C208.4 116.012 209.123 117.95 210.481 119.409L239.171 150.119Z" fill="white"/>
</svg>
