<svg width="502" height="513" viewBox="0 0 502 513" fill="none" xmlns="http://www.w3.org/2000/svg">
<path d="M476.316 322.508C479.82 334.922 481.694 348.019 481.694 361.555C481.694 440.778 417.471 505 338.249 505C295.396 505 256.931 486.209 230.647 456.416M279.374 119.461C273.436 116.545 266.062 117.542 261.123 122.481L244.15 139.454C239.545 144.059 232.572 145.449 226.617 142.811C224.767 141.991 222.894 141.216 220.997 140.487C214.917 138.149 210.971 132.227 210.971 125.714V101.709C210.971 92.9257 203.851 85.8047 195.068 85.8047H158.839C150.056 85.8047 142.936 92.9247 142.936 101.709V125.714C142.936 132.228 138.989 138.149 132.91 140.487C131.014 141.216 129.14 141.991 127.29 142.811C121.335 145.45 114.362 144.06 109.757 139.454L92.785 122.48C86.574 116.27 76.505 116.27 70.294 122.48L44.677 148.098C38.466 154.308 38.466 164.378 44.677 170.589L61.65 187.562C66.255 192.167 67.645 199.14 65.007 205.095C64.187 206.945 63.412 208.818 62.683 210.715C60.345 216.795 54.423 220.741 47.91 220.741H23.903C15.12 220.741 8 227.861 8 236.644V272.873C8 281.656 15.12 288.776 23.903 288.776H47.908C54.422 288.776 60.343 292.723 62.681 298.802C63.4082 300.694 64.1831 302.568 65.005 304.422C67.644 310.377 66.254 317.349 61.648 321.955L44.675 338.928C38.464 345.139 38.464 355.208 44.675 361.419L70.292 387.037C76.503 393.247 86.572 393.247 92.783 387.037L109.756 370.064C114.361 365.459 121.334 364.069 127.289 366.707C129.139 367.527 131.012 368.302 132.909 369.031C138.989 371.369 142.935 377.291 142.935 383.804V407.809C142.935 416.592 150.055 423.713 158.838 423.713H195.067C203.85 423.713 210.97 416.593 210.97 407.809V383.804C210.97 377.29 214.917 371.369 220.996 369.031C222.892 368.302 224.766 367.527 226.616 366.707C232.04 364.303 238.303 365.252 242.858 368.919" stroke="white" stroke-width="15" stroke-miterlimit="10" stroke-linecap="round" stroke-linejoin="round"/>
<path d="M107.868 272.258C115.669 303.15 143.638 326.016 176.953 326.016C216.307 326.016 248.211 294.113 248.211 254.758C248.211 215.403 216.308 183.5 176.954 183.5C143.639 183.5 115.67 206.366 107.869 237.258" stroke="white" stroke-width="15" stroke-miterlimit="10" stroke-linecap="round" stroke-linejoin="round"/>
<path d="M176.954 289.528C196.157 289.528 211.724 273.961 211.724 254.758C211.724 235.555 196.157 219.988 176.954 219.988C157.751 219.988 142.184 235.555 142.184 254.758C142.184 273.961 157.751 289.528 176.954 289.528Z" stroke="white" stroke-width="15" stroke-miterlimit="10" stroke-linecap="round" stroke-linejoin="round"/>
<path d="M408.353 97.4475H340.044C339.167 97.4475 338.298 97.2747 337.488 96.939C336.677 96.6033 335.941 96.1113 335.321 95.491C334.7 94.8707 334.208 94.1343 333.873 93.3238C333.537 92.5134 333.364 91.6447 333.364 90.7675V51.7235C333.364 27.3945 313.504 7.74451 289.176 8.00251C286.567 8.03043 284.074 9.08648 282.239 10.9414C280.404 12.7962 279.374 15.3002 279.374 17.9095V43.5005M400.305 288.749H417.609M279.374 78.5005V234.904C279.374 250.862 286.322 265.191 297.35 275.051" stroke="white" stroke-width="15" stroke-miterlimit="10" stroke-linecap="round" stroke-linejoin="round"/>
<path d="M286.798 442.224C301.655 451.72 319.309 457.225 338.249 457.225C391.085 457.225 433.918 414.393 433.918 361.556C433.918 308.719 391.086 265.887 338.249 265.887C285.412 265.887 242.58 308.719 242.58 361.556C242.58 382.8 249.509 402.424 261.224 418.3" stroke="white" stroke-width="15" stroke-miterlimit="10" stroke-linecap="round" stroke-linejoin="round"/>
<path d="M290.958 356.935L327.142 398.305L385.54 332.21M475.814 264.835C475.814 251.628 465.108 240.922 451.901 240.922H417.608C404.401 240.922 393.695 251.628 393.695 264.835C393.695 278.042 404.401 288.748 417.608 288.748H451.901C465.108 288.747 475.814 278.041 475.814 264.835Z" stroke="white" stroke-width="15" stroke-miterlimit="10" stroke-linecap="round" stroke-linejoin="round"/>
<path d="M469.632 193.1H408.353C395.146 193.1 384.44 203.806 384.44 217.013C384.44 230.22 395.146 240.926 408.353 240.926H469.632C482.839 240.926 493.545 230.22 493.545 217.013C493.545 203.806 482.839 193.1 469.632 193.1ZM469.632 97.4492H408.353C395.146 97.4492 384.44 108.155 384.44 121.362C384.44 134.569 395.146 145.275 408.353 145.275H469.632C482.839 145.275 493.545 134.569 493.545 121.362C493.545 108.155 482.839 97.4492 469.632 97.4492Z" stroke="white" stroke-width="15" stroke-miterlimit="10" stroke-linecap="round" stroke-linejoin="round"/>
<path d="M469.632 145.273H408.353C395.146 145.273 384.44 155.979 384.44 169.186C384.44 182.393 395.146 193.099 408.353 193.099H469.632C482.839 193.099 493.545 182.393 493.545 169.186C493.545 155.979 482.839 145.273 469.632 145.273Z" stroke="white" stroke-width="15" stroke-miterlimit="10" stroke-linecap="round" stroke-linejoin="round"/>
</svg>
