<svg width="512" height="511" viewBox="0 0 512 511" fill="none" xmlns="http://www.w3.org/2000/svg">
<path d="M453.034 360.502C451.661 359.933 450.15 359.784 448.692 360.074C447.234 360.364 445.895 361.079 444.844 362.13L362.718 444.256C361.667 445.307 360.95 446.646 360.66 448.104C360.37 449.562 360.519 451.074 361.088 452.447C361.657 453.821 362.62 454.994 363.857 455.82C365.093 456.646 366.547 457.086 368.033 457.085H450.159C451.146 457.085 452.123 456.891 453.035 456.514C453.947 456.136 454.776 455.582 455.473 454.884C456.171 454.187 456.725 453.358 457.102 452.446C457.48 451.534 457.674 450.557 457.674 449.57V367.444C457.674 365.958 457.233 364.505 456.407 363.27C455.581 362.034 454.407 361.071 453.034 360.502ZM386.173 442.056L442.642 385.587V442.056H386.173Z" fill="url(#paint0_linear_1162_1224)"/>
<path d="M507.361 240.047C505.988 239.478 504.477 239.329 503.019 239.619C501.561 239.908 500.222 240.624 499.171 241.675L476.664 264.182V111.151C476.664 109.158 475.872 107.246 474.463 105.837C473.054 104.428 471.142 103.636 469.149 103.636H411.408L432.368 82.676L432.377 82.666L452.573 62.47C456.9 58.143 459.283 52.387 459.283 46.267C459.283 40.147 456.9 34.393 452.573 30.064L429.219 6.71C424.892 2.383 419.136 0 413.016 0C406.896 0 401.141 2.383 396.813 6.71L376.607 26.916L352.191 51.332L299.888 103.635H66.62V29.29C66.62 28.3031 66.4256 27.3259 66.048 26.4141C65.6703 25.5024 65.1167 24.6739 64.4189 23.9761C63.7211 23.2783 62.8926 22.7247 61.9809 22.347C61.0691 21.9694 60.0919 21.775 59.105 21.775C26.515 21.777 0 48.29 0 80.882V400.068C0 400.623 0.064 401.163 0.178 401.683C1.216 415.512 7.199 428.361 17.198 438.115C27.886 448.539 41.995 454.28 56.927 454.28H286.565L243.316 497.529C242.265 498.58 241.55 499.919 241.26 501.377C240.971 502.834 241.12 504.345 241.688 505.718C242.257 507.091 243.22 508.265 244.456 509.091C245.691 509.917 247.144 510.358 248.63 510.358H504.485C506.478 510.358 508.39 509.566 509.799 508.157C511.208 506.748 512 504.836 512 502.843V246.99C512 245.504 511.559 244.051 510.733 242.815C509.908 241.579 508.734 240.616 507.361 240.047ZM407.443 17.339C410.515 14.265 415.52 14.265 418.592 17.339L441.947 40.694C445.021 43.767 445.021 48.77 441.947 51.844L427.056 66.736L392.55 32.231L407.443 17.339ZM381.922 42.859L416.427 77.363L402.638 91.152L368.135 56.648L381.922 42.859ZM496.972 331.432H483.107C482.12 331.432 481.143 331.626 480.231 332.004C479.319 332.381 478.491 332.935 477.793 333.633C477.095 334.331 476.541 335.159 476.164 336.071C475.786 336.983 475.592 337.96 475.592 338.947C475.592 339.934 475.786 340.911 476.164 341.823C476.541 342.735 477.095 343.563 477.793 344.261C478.491 344.959 479.319 345.513 480.231 345.89C481.143 346.268 482.12 346.462 483.107 346.462H496.972V369.108H483.107C478.956 369.108 475.592 372.472 475.592 376.623C475.592 380.774 478.956 384.138 483.107 384.138H496.972V406.783H483.107C482.12 406.783 481.143 406.977 480.231 407.355C479.319 407.732 478.491 408.286 477.793 408.984C477.095 409.682 476.541 410.51 476.164 411.422C475.786 412.334 475.592 413.311 475.592 414.298C475.592 415.285 475.786 416.262 476.164 417.174C476.541 418.086 477.095 418.914 477.793 419.612C478.491 420.31 479.319 420.864 480.231 421.241C481.143 421.619 482.12 421.813 483.107 421.813H496.972V444.459H483.107C481.114 444.459 479.202 445.251 477.793 446.66C476.384 448.069 475.592 449.981 475.592 451.974C475.592 453.967 476.384 455.879 477.793 457.288C479.202 458.697 481.114 459.489 483.107 459.489H496.972V495.331H266.772L342.68 419.424C343.378 418.726 343.931 417.898 344.309 416.986C344.687 416.074 344.881 415.097 344.881 414.11C344.881 413.123 344.687 412.146 344.309 411.234C343.931 410.322 343.378 409.494 342.68 408.796C342.349 408.467 341.988 408.169 341.602 407.907C340.156 406.919 338.41 406.467 336.666 406.629C334.922 406.791 333.29 407.558 332.051 408.796L301.595 439.252H56.928C34.136 439.252 15.788 421.458 15.066 398.707C15.1084 397.288 15.2192 395.871 15.398 394.463L15.401 394.439C15.485 393.774 15.586 393.112 15.701 392.454L15.741 392.229C16.0135 390.713 16.3663 389.213 16.798 387.735C16.908 387.353 17.022 386.972 17.143 386.595C17.264 386.218 17.393 385.845 17.524 385.472C17.615 385.211 17.705 384.95 17.803 384.691C17.986 384.199 18.18 383.712 18.38 383.229C18.437 383.09 18.493 382.949 18.552 382.81C18.809 382.21 19.076 381.617 19.358 381.031L19.393 380.956C25.271 368.792 36.576 359.723 50.143 356.909L50.257 356.884C50.879 356.757 51.507 356.648 52.139 356.547C52.244 356.53 52.349 356.509 52.456 356.493C53.0295 356.408 53.6046 356.335 54.181 356.273C54.343 356.255 54.504 356.23 54.667 356.214C55.2265 356.161 55.7869 356.118 56.348 356.086C56.526 356.075 56.704 356.056 56.882 356.047C57.6224 356.01 58.3636 355.991 59.105 355.991C60.0919 355.991 61.0691 355.797 61.9809 355.419C62.8926 355.041 63.7211 354.488 64.4189 353.79C65.1167 353.092 65.6703 352.264 66.048 351.352C66.4256 350.44 66.62 349.463 66.62 348.476V293.987C66.62 291.994 65.8282 290.082 64.4189 288.673C63.0096 287.264 61.0981 286.472 59.105 286.472C57.1119 286.472 55.2004 287.264 53.7911 288.673C52.3818 290.082 51.59 291.994 51.59 293.987V341.434C38.9 343.039 27.121 348.699 17.833 357.769C16.8651 358.722 15.9295 359.707 15.028 360.723V80.882C15.028 59.141 30.854 41.024 51.589 37.446V263.929C51.6212 265.901 52.4271 267.781 53.8329 269.164C55.2387 270.547 57.1319 271.322 59.104 271.322C61.0761 271.322 62.9693 270.547 64.3751 269.164C65.7809 267.781 66.5868 265.901 66.619 263.929V118.666H284.859L243.315 160.21C241.924 161.623 241.147 163.529 241.154 165.512C241.162 167.495 241.953 169.394 243.355 170.797C244.757 172.199 246.657 172.99 248.64 172.998C250.623 173.006 252.529 172.229 253.942 170.838L308.315 116.465L308.32 116.46L357.505 67.275L392.008 101.78L387.96 105.828L387.95 105.837L236.422 257.367L201.918 222.863L231.786 192.995C233.177 191.582 233.954 189.676 233.947 187.693C233.939 185.71 233.148 183.811 231.746 182.408C230.344 181.006 228.444 180.215 226.461 180.207C224.478 180.199 222.572 180.976 221.159 182.367L185.976 217.549C185.789 217.737 185.613 217.934 185.447 218.14C185.392 218.208 185.343 218.281 185.291 218.352C185.185 218.493 185.081 218.635 184.984 218.783C184.929 218.869 184.879 218.957 184.827 219.046C184.688 219.276 184.564 219.514 184.456 219.76C184.389 219.907 184.327 220.056 184.27 220.207C184.25 220.26 184.224 220.31 184.205 220.363L169.564 261.838L159.582 290.117C159.453 290.49 159.354 290.872 159.284 291.26H134.292C133.305 291.26 132.328 291.454 131.416 291.832C130.504 292.21 129.676 292.763 128.978 293.461C128.28 294.159 127.727 294.987 127.349 295.899C126.971 296.811 126.777 297.788 126.777 298.775C126.777 299.762 126.971 300.739 127.349 301.651C127.727 302.563 128.28 303.391 128.978 304.089C129.676 304.787 130.504 305.34 131.416 305.718C132.328 306.096 133.305 306.29 134.292 306.29H342.406C343.393 306.29 344.37 306.096 345.282 305.718C346.194 305.341 347.022 304.787 347.72 304.089C348.418 303.391 348.972 302.563 349.349 301.651C349.727 300.739 349.921 299.762 349.921 298.775C349.921 297.788 349.727 296.811 349.349 295.899C348.972 294.987 348.418 294.159 347.72 293.461C347.022 292.763 346.194 292.209 345.282 291.832C344.37 291.454 343.393 291.26 342.406 291.26H193.093L238.923 275.082C238.961 275.068 238.997 275.049 239.035 275.035C239.213 274.969 239.388 274.895 239.561 274.816C239.63 274.784 239.699 274.754 239.766 274.721C239.946 274.631 240.123 274.532 240.297 274.426C240.353 274.392 240.411 274.361 240.466 274.326C240.647 274.21 240.823 274.083 240.996 273.949C241.039 273.916 241.084 273.887 241.126 273.853C241.335 273.685 241.54 273.504 241.734 273.31L396.378 118.667H461.633V279.213L354.137 386.71C353.439 387.408 352.886 388.236 352.508 389.148C352.13 390.06 351.936 391.037 351.936 392.024C351.936 393.011 352.13 393.988 352.508 394.9C352.886 395.812 353.439 396.64 354.137 397.338C354.835 398.036 355.663 398.589 356.575 398.967C357.487 399.345 358.464 399.539 359.451 399.539C360.438 399.539 361.415 399.345 362.327 398.967C363.239 398.589 364.067 398.036 364.765 397.338L364.768 397.335L496.972 265.13V331.432ZM222.677 264.876L201.151 272.475L186.809 258.133L194.408 236.607L222.677 264.876Z" fill="url(#paint1_linear_1162_1224)"/>
<defs>
<linearGradient id="paint0_linear_1162_1224" x1="360.313" y1="361.043" x2="449.574" y2="447.474" gradientUnits="userSpaceOnUse">
<stop stop-color="#8705FF"/>
<stop offset="1" stop-color="#CC00FF"/>
</linearGradient>
<linearGradient id="paint1_linear_1162_1224" x1="-1.06666" y1="5.84779" x2="467.867" y2="461.359" gradientUnits="userSpaceOnUse">
<stop stop-color="#8705FF"/>
<stop offset="1" stop-color="#CC00FF"/>
</linearGradient>
</defs>
</svg>
