<svg width="496" height="496" viewBox="0 0 496 496" fill="none" xmlns="http://www.w3.org/2000/svg">
<path d="M204.241 98.6893C204.526 99.9989 204.478 101.359 204.1 102.645C203.723 103.931 203.029 105.102 202.081 106.05C201.133 106.997 199.963 107.692 198.676 108.069C197.39 108.447 196.03 108.495 194.721 108.209C193.197 107.949 191.631 108.135 190.212 108.745C188.792 109.356 187.579 110.365 186.721 111.649C181.564 119.372 177.926 128.006 176.001 137.089C175.715 138.589 175.865 140.139 176.432 141.557C176.999 142.975 177.959 144.2 179.201 145.089C180.323 145.815 181.247 146.81 181.886 147.983C182.525 149.157 182.86 150.473 182.86 151.809C182.86 153.146 182.525 154.461 181.886 155.635C181.247 156.809 180.323 157.804 179.201 158.529C177.959 159.418 176.999 160.644 176.432 162.062C175.865 163.479 175.715 165.03 176.001 166.529C177.926 175.613 181.564 184.247 186.721 191.969C187.579 193.254 188.792 194.263 190.212 194.873C191.631 195.484 193.197 195.67 194.721 195.409C196.03 195.124 197.39 195.172 198.676 195.55C199.963 195.927 201.133 196.621 202.081 197.569C203.029 198.517 203.723 199.687 204.1 200.973C204.478 202.26 204.526 203.62 204.241 204.929C203.98 206.453 204.166 208.019 204.777 209.438C205.387 210.858 206.396 212.071 207.681 212.929C215.379 218.198 224.014 221.946 233.121 223.969C234.62 224.255 236.171 224.105 237.588 223.538C239.006 222.971 240.231 222.011 241.121 220.769C241.913 219.74 242.93 218.907 244.096 218.333C245.261 217.76 246.542 217.462 247.841 217.462C249.139 217.462 250.42 217.76 251.586 218.333C252.751 218.907 253.769 219.74 254.561 220.769C255.297 221.803 256.268 222.647 257.395 223.231C258.522 223.816 259.771 224.123 261.041 224.129H262.721C271.76 222.136 280.339 218.443 288.001 213.249C289.285 212.391 290.294 211.178 290.904 209.758C291.515 208.339 291.701 206.773 291.441 205.249C291.155 203.94 291.203 202.58 291.581 201.293C291.958 200.007 292.653 198.837 293.6 197.889C294.548 196.941 295.719 196.247 297.005 195.869C298.291 195.492 299.651 195.444 300.961 195.729C302.484 195.99 304.05 195.804 305.47 195.193C306.889 194.583 308.102 193.574 308.961 192.289C314.23 184.591 317.977 175.956 320.001 166.849C320.286 165.35 320.137 163.799 319.57 162.382C319.003 160.964 318.042 159.738 316.801 158.849C315.678 158.124 314.755 157.129 314.115 155.955C313.476 154.781 313.141 153.466 313.141 152.129C313.141 150.793 313.476 149.477 314.115 148.303C314.755 147.13 315.678 146.135 316.801 145.409C318.042 144.52 319.003 143.295 319.57 141.877C320.137 140.459 320.286 138.909 320.001 137.409C318.075 128.326 314.437 119.692 309.281 111.969C308.422 110.685 307.209 109.676 305.79 109.065C304.37 108.455 302.804 108.269 301.281 108.529C299.971 108.815 298.611 108.767 297.325 108.389C296.039 108.012 294.868 107.317 293.92 106.37C292.973 105.422 292.278 104.251 291.901 102.965C291.523 101.679 291.475 100.319 291.761 99.0093C292.021 97.4861 291.835 95.92 291.224 94.5003C290.614 93.0806 289.605 91.8681 288.321 91.0093C280.622 85.7402 271.987 81.9928 262.881 79.9693C261.381 79.6837 259.831 79.8333 258.413 80.4003C256.995 80.9673 255.77 81.9282 254.881 83.1693C254.089 84.1984 253.071 85.0319 251.906 85.6054C250.74 86.1789 249.459 86.4771 248.161 86.4771C246.862 86.4771 245.581 86.1789 244.416 85.6054C243.25 85.0319 242.233 84.1984 241.441 83.1693C240.551 81.9282 239.326 80.9673 237.908 80.4003C236.491 79.8333 234.94 79.6837 233.441 79.9693C224.357 81.8949 215.723 85.5331 208.001 90.6893C206.657 91.5058 205.584 92.7001 204.915 94.1229C204.247 95.5457 204.012 97.134 204.241 98.6893ZM220.241 101.809C223.965 99.7261 227.909 98.0625 232.001 96.8493C236.483 100.613 242.148 102.676 248.001 102.676C253.853 102.676 259.519 100.613 264.001 96.8493C268.147 98.0514 272.145 99.7151 275.921 101.809C276.297 107.627 278.778 113.108 282.9 117.23C287.022 121.352 292.503 123.833 298.321 124.209C300.349 127.941 301.958 131.885 303.121 135.969C299.185 140.37 297.009 146.066 297.009 151.969C297.009 157.873 299.185 163.569 303.121 167.969C301.919 172.116 300.255 176.114 298.161 179.889C292.343 180.266 286.862 182.747 282.74 186.869C278.618 190.991 276.137 196.472 275.761 202.289C271.985 204.384 267.987 206.047 263.841 207.249C259.44 203.314 253.744 201.138 247.841 201.138C241.937 201.138 236.241 203.314 231.841 207.249C227.694 206.047 223.696 204.384 219.921 202.289C219.544 196.472 217.063 190.991 212.941 186.869C208.819 182.747 203.338 180.266 197.521 179.889C195.537 176.1 193.981 172.102 192.881 167.969C196.816 163.569 198.992 157.873 198.992 151.969C198.992 146.066 196.816 140.37 192.881 135.969C194.083 131.823 195.746 127.825 197.841 124.049C203.658 123.673 209.139 121.192 213.261 117.07C217.383 112.948 219.864 107.467 220.241 101.649V101.809Z" fill="white"/>
<path d="M248 183.969C254.329 183.969 260.516 182.092 265.778 178.576C271.041 175.06 275.142 170.062 277.564 164.215C279.986 158.367 280.62 151.933 279.385 145.726C278.15 139.518 275.103 133.817 270.627 129.341C266.152 124.866 260.45 121.818 254.243 120.584C248.035 119.349 241.601 119.983 235.754 122.405C229.907 124.827 224.909 128.928 221.393 134.191C217.877 139.453 216 145.64 216 151.969C216 160.456 219.371 168.595 225.373 174.596C231.374 180.597 239.513 183.969 248 183.969ZM248 135.969C251.165 135.969 254.258 136.907 256.889 138.665C259.52 140.423 261.571 142.922 262.782 145.846C263.993 148.769 264.31 151.987 263.693 155.09C263.075 158.194 261.551 161.045 259.314 163.282C257.076 165.52 254.225 167.044 251.121 167.661C248.018 168.279 244.801 167.962 241.877 166.751C238.953 165.54 236.455 163.489 234.696 160.858C232.938 158.227 232 155.133 232 151.969C232 147.725 233.686 143.656 236.686 140.655C239.687 137.654 243.757 135.969 248 135.969Z" fill="white"/>
<path d="M128 271.971H240V303.971H200C192.924 303.994 186.054 306.362 180.467 310.704C174.88 315.047 170.889 321.119 169.12 327.971H112C109.878 327.971 107.844 328.814 106.343 330.314C104.843 331.814 104 333.849 104 335.971V383.971H120V343.971H169.12C170.889 350.822 174.88 356.895 180.467 361.237C186.054 365.58 192.924 367.948 200 367.971H296C303.077 367.948 309.946 365.58 315.533 361.237C321.121 356.895 325.111 350.822 326.88 343.971H376V383.971H392V335.971C392 333.849 391.157 331.814 389.657 330.314C388.157 328.814 386.122 327.971 384 327.971H326.88C325.111 321.119 321.121 315.047 315.533 310.704C309.946 306.362 303.077 303.994 296 303.971H256V271.971H368C389.449 271.904 410.136 264.007 426.172 249.762C442.208 235.517 452.489 215.905 455.083 194.613C457.677 173.321 452.405 151.815 440.258 134.137C428.111 116.458 409.926 103.825 389.12 98.6107C384.448 81.7472 374.375 66.8807 360.446 56.2892C346.517 45.6976 329.499 39.9654 312 39.9707C305.194 39.9764 298.418 40.8638 291.84 42.6107C279.132 25.2321 261.343 12.2259 240.928 5.38678C220.514 -1.45234 198.48 -1.78728 177.867 4.42818C157.255 10.6436 139.079 23.1031 125.848 40.0874C112.617 57.0717 104.983 77.7436 104 99.2507C83.5178 105.005 65.8137 117.984 54.1646 135.787C42.5155 153.59 37.7103 175.01 40.6384 196.082C43.5666 217.155 54.0297 236.454 70.0912 250.406C86.1527 264.358 106.725 272.019 128 271.971ZM296 319.971C300.244 319.971 304.313 321.656 307.314 324.657C310.314 327.658 312 331.727 312 335.971C312 340.214 310.314 344.284 307.314 347.284C304.313 350.285 300.244 351.971 296 351.971H200C195.757 351.971 191.687 350.285 188.686 347.284C185.686 344.284 184 340.214 184 335.971C184 331.727 185.686 327.658 188.686 324.657C191.687 321.656 195.757 319.971 200 319.971H296ZM113.68 113.411C115.514 113.037 117.159 112.031 118.329 110.57C119.498 109.108 120.118 107.282 120.08 105.411L120 103.971C119.945 84.9531 126.053 66.4295 137.408 51.174C148.763 35.9185 164.755 24.752 182.989 19.3468C201.222 13.9417 220.716 14.5887 238.551 21.1911C256.385 27.7934 271.601 39.9957 281.92 55.9707C282.892 57.4592 284.331 58.5818 286.012 59.1613C287.692 59.7408 289.518 59.7441 291.2 59.1707C299.786 56.2214 308.9 55.1323 317.939 55.9757C326.977 56.8192 335.733 59.5758 343.625 64.0626C351.516 68.5493 358.363 74.6636 363.711 81.9994C369.058 89.3352 372.784 97.7246 374.64 106.611C374.95 108.184 375.727 109.628 376.868 110.755C378.009 111.882 379.463 112.64 381.04 112.931C399.007 115.873 415.193 125.512 426.338 139.909C437.483 154.305 442.761 172.39 441.108 190.521C439.455 208.652 430.994 225.484 417.43 237.628C403.865 249.772 386.203 256.326 368 255.971H128C110.152 255.969 92.9402 249.338 79.7045 237.363C66.4687 225.389 58.1523 208.926 56.3684 191.167C54.5845 173.408 59.4604 155.619 70.0502 141.252C80.6399 126.884 96.1887 116.962 113.68 113.411Z" fill="white"/>
<path d="M208 47.9688V31.9688C188.904 31.9688 170.591 39.5544 157.088 53.0571C143.586 66.5597 136 84.8732 136 103.969H152C152 89.1166 157.9 74.8728 168.402 64.3708C178.904 53.8687 193.148 47.9688 208 47.9688ZM8 495.969H224C226.122 495.969 228.157 495.126 229.657 493.626C231.157 492.125 232 490.09 232 487.969V407.969C232 405.847 231.157 403.812 229.657 402.312C228.157 400.812 226.122 399.969 224 399.969H8C5.87827 399.969 3.84344 400.812 2.34315 402.312C0.842854 403.812 0 405.847 0 407.969V487.969C0 490.09 0.842854 492.125 2.34315 493.626C3.84344 495.126 5.87827 495.969 8 495.969ZM16 415.969H216V479.969H16V415.969Z" fill="white"/>
<path d="M32 439.969H48V455.969H32V439.969ZM64 439.969H80V455.969H64V439.969ZM96 439.969H192V455.969H96V439.969ZM488 399.969H272C269.878 399.969 267.843 400.812 266.343 402.312C264.843 403.812 264 405.847 264 407.969V487.969C264 490.09 264.843 492.125 266.343 493.626C267.843 495.126 269.878 495.969 272 495.969H488C490.122 495.969 492.157 495.126 493.657 493.626C495.157 492.125 496 490.09 496 487.969V407.969C496 405.847 495.157 403.812 493.657 402.312C492.157 400.812 490.122 399.969 488 399.969ZM480 479.969H280V415.969H480V479.969Z" fill="white"/>
<path d="M448 439.969H464V455.969H448V439.969ZM416 439.969H432V455.969H416V439.969ZM304 439.969H400V455.969H304V439.969ZM208 327.969H224V343.969H208V327.969ZM240 327.969H256V343.969H240V327.969ZM272 327.969H288V343.969H272V327.969Z" fill="white"/>
</svg>
