<svg width="513" height="504" viewBox="0 0 513 504" fill="none" xmlns="http://www.w3.org/2000/svg">
<path d="M90.3113 42.2701C101.712 37.2411 114.3 34.4111 127.54 34.3191C179.291 33.9591 221.976 76.1521 222.188 127.904C222.246 142.111 219.15 155.589 213.563 167.679C212.447 170.084 212.21 172.804 212.893 175.365L224.816 219.861C225.869 223.792 222.272 227.389 218.341 226.336L172.74 214.117C170.281 213.46 167.673 213.652 165.336 214.661C153.359 219.817 140.095 222.556 126.16 222.259C75.0703 221.172 33.9103 178.802 34.2283 127.702C34.3883 101.998 44.8663 78.7421 61.7303 61.8671M123.735 257.436C187.92 256.99 240.86 309.321 241.124 373.506C241.197 391.127 237.357 407.842 230.426 422.837C229.042 425.82 228.748 429.193 229.594 432.37L244.381 487.556C245.687 492.431 241.226 496.893 236.351 495.586L179.793 480.431C176.743 479.617 173.508 479.855 170.61 481.106C155.755 487.501 139.305 490.898 122.021 490.53C58.6583 489.183 7.60827 436.634 8.00227 373.256C8.39927 309.496 59.9873 257.879 123.735 257.436ZM355.038 8.00208C307.987 7.67508 269.179 46.0361 268.986 93.0881C268.933 106.005 271.748 118.258 276.828 129.25C277.843 131.436 278.059 133.909 277.438 136.238L266.598 176.692C265.64 180.266 268.911 183.536 272.485 182.579L313.945 171.47C316.181 170.873 318.553 171.047 320.677 171.965C331.567 176.653 343.626 179.143 356.295 178.873C402.745 177.884 440.167 139.363 439.878 92.9041C439.586 46.1651 401.769 8.32708 355.038 8.00208Z" stroke="white" stroke-width="15" stroke-miterlimit="10" stroke-linecap="round" stroke-linejoin="round"/>
<path d="M501.575 349.215C503.912 340.047 505.063 330.617 505 321.155C504.621 260.192 455.295 210.838 394.343 210.415C332.973 209.988 282.354 260.024 282.102 321.395C282.033 338.243 285.704 354.226 292.331 368.563C293.655 371.415 293.936 374.641 293.126 377.678L278.987 430.444C277.738 435.106 282.004 439.371 286.665 438.122L340.742 423.632C343.658 422.853 346.751 423.081 349.522 424.277C363.726 430.392 379.455 433.64 395.98 433.288C431.82 432.525 463.539 414.631 483.393 387.597M98.3241 353.93C98.3241 353.93 107.508 353.93 118.289 336.361C122.677 329.211 125.94 323.846 128.267 319.998C130.826 315.767 136.517 314.751 140.387 317.829L143.151 320.028C145.484 321.884 147.369 324.243 148.664 326.928C149.959 329.614 150.632 332.557 150.632 335.538V346.48C150.632 347.927 151.207 349.314 152.23 350.337C153.252 351.36 154.64 351.934 156.086 351.934H177.085C188.652 351.934 197.013 362.992 193.861 374.121L184.172 408.328C183.138 411.98 180.94 415.195 177.912 417.484C174.884 419.774 171.192 421.012 167.396 421.012H98.3241V353.93ZM88.8541 429.561H71.4661C68.9545 429.561 66.5458 428.564 64.7698 426.788C62.9938 425.012 61.9961 422.603 61.9961 420.091V351.099C61.9961 348.588 62.9938 346.179 64.7698 344.403C66.5458 342.627 68.9545 341.629 71.4661 341.629H88.8541C91.3657 341.629 93.7744 342.627 95.5504 344.403C97.3264 346.179 98.3241 348.588 98.3241 351.099V420.092C98.3241 425.322 94.0841 429.561 88.8541 429.561ZM151.136 93.1094C142.232 93.1094 134.281 97.1794 129.034 103.558C128.858 103.773 128.637 103.945 128.387 104.064C128.136 104.182 127.862 104.244 127.585 104.244C127.308 104.244 127.034 104.182 126.784 104.064C126.533 103.945 126.312 103.773 126.136 103.558C120.889 97.1794 112.938 93.1094 104.034 93.1094C88.2311 93.1094 75.4211 105.92 75.4211 121.723C75.4211 137.531 88.5821 146.651 100.171 154.86C108.376 160.673 116.797 166.201 125.339 171.511C126.011 171.929 126.785 172.15 127.576 172.152C128.367 172.153 129.142 171.934 129.815 171.518C138.213 166.346 167.582 147.929 173.214 139.928C176.906 134.683 179.751 128.639 179.751 121.723C179.749 105.92 166.939 93.1094 151.136 93.1094Z" stroke="white" stroke-width="15" stroke-miterlimit="10" stroke-linecap="round" stroke-linejoin="round"/>
<path d="M437.335 346.504C438.24 335.682 436.414 324.81 433.391 314.701C426.301 290.993 409.297 271.22 386.515 261.31L386.407 261.263C383.512 260.007 380.808 263.321 382.572 265.937C397.561 288.175 388.617 314.2 375.507 315.81C367.495 316.794 364.773 310.698 363.961 304.896C363.558 302.013 359.756 301.21 358.184 303.66C342.209 328.571 346.815 351.589 346.815 351.589C349.739 373.976 368.884 387.771 392.069 387.771C409.42 387.771 424.627 381.038 432.263 365.556C435.207 359.584 436.781 353.119 437.335 346.504Z" stroke="white" stroke-width="15" stroke-miterlimit="10" stroke-linecap="round" stroke-linejoin="round"/>
</svg>
