<svg width="494" height="494" viewBox="0 0 494 494" fill="none" xmlns="http://www.w3.org/2000/svg">
<path d="M400.546 153.546H400.537L290.999 153.678V41.824C290.999 18.763 272.237 0 249.176 0H41.823C18.762 0 0 18.763 0 41.824V452.176C0 475.237 18.762 494 41.823 494H249.176C272.238 494 290.999 475.237 290.999 452.176V340.454H400.546C452.077 340.454 494 298.531 494 247C494 195.469 452.077 153.546 400.546 153.546ZM351.305 167.605C340.452 174.365 331.088 183.264 323.785 193.759H290.999V167.678L351.305 167.605ZM307.354 254C308.181 265.165 311.023 276.088 315.742 286.24H291V254H307.354ZM307.354 240H291V207.76H315.742C311.022 217.912 308.18 228.835 307.354 240ZM276.999 452.176C276.999 467.519 264.518 480 249.176 480H41.823C26.481 480 14 467.519 14 452.176V41.824C14 26.481 26.481 14 41.823 14H249.176C264.518 14 276.999 26.481 276.999 41.824V153.695L230.929 153.751V86.538C243.556 83.397 252.944 71.968 252.944 58.382C252.944 42.383 239.928 29.367 223.929 29.367C207.93 29.367 194.914 42.383 194.914 58.382C194.914 71.968 204.301 83.397 216.929 86.538V160.76C216.929 162.618 217.668 164.4 218.983 165.712C219.633 166.361 220.404 166.877 221.252 167.228C222.101 167.579 223.01 167.76 223.929 167.76H223.938L277 167.696V193.76H97.628V156.607C110.255 153.466 119.643 142.037 119.643 128.451C119.643 112.452 106.627 99.436 90.628 99.436C74.629 99.436 61.613 112.452 61.613 128.451C61.613 142.037 71 153.466 83.628 156.607V200.76C83.628 202.617 84.3655 204.397 85.6783 205.71C86.991 207.023 88.7715 207.76 90.628 207.76H276.999V240H185.434C182.293 227.372 170.864 217.985 157.278 217.985C141.279 217.985 128.263 231.001 128.263 247C128.263 262.999 141.279 276.015 157.278 276.015C170.864 276.015 182.293 266.628 185.434 254H276.999V286.24H90.628C88.7715 286.24 86.991 286.977 85.6783 288.29C84.3655 289.603 83.628 291.383 83.628 293.24V337.393C71 340.534 61.613 351.964 61.613 365.55C61.613 381.549 74.629 394.565 90.628 394.565C106.627 394.565 119.643 381.549 119.643 365.55C119.643 351.964 110.256 340.534 97.628 337.393V300.24H276.999V326.454H223.929C222.072 326.454 220.292 327.191 218.979 328.504C217.666 329.817 216.929 331.597 216.929 333.454V407.676C204.302 410.817 194.914 422.246 194.914 435.832C194.914 451.831 207.93 464.847 223.929 464.847C239.928 464.847 252.944 451.831 252.944 435.832C252.944 422.246 243.557 410.817 230.929 407.676V340.454H276.999V452.176ZM223.929 73.396C215.65 73.396 208.914 66.661 208.914 58.381C208.914 50.101 215.649 43.366 223.929 43.366C232.209 43.366 238.944 50.101 238.944 58.381C238.944 66.661 232.208 73.396 223.929 73.396ZM90.628 143.466C82.349 143.466 75.613 136.731 75.613 128.451C75.613 120.171 82.348 113.436 90.628 113.436C98.908 113.436 105.643 120.171 105.643 128.451C105.643 136.731 98.907 143.466 90.628 143.466ZM172.293 247C172.293 255.279 165.558 262.015 157.278 262.015C148.998 262.015 142.263 255.28 142.263 247C142.263 238.72 148.998 231.985 157.278 231.985C165.558 231.985 172.293 238.721 172.293 247ZM90.628 350.534C98.907 350.534 105.643 357.27 105.643 365.55C105.643 373.83 98.908 380.565 90.628 380.565C82.348 380.565 75.613 373.83 75.613 365.55C75.613 357.27 82.349 350.534 90.628 350.534ZM223.929 420.817C232.208 420.817 238.944 427.552 238.944 435.832C238.944 444.112 232.209 450.847 223.929 450.847C215.649 450.847 208.914 444.112 208.914 435.832C208.914 427.552 215.649 420.817 223.929 420.817ZM290.999 326.454V300.24H323.785C331.11 310.767 340.507 319.687 351.401 326.454H290.999ZM400.546 326.454C356.734 326.454 321.092 290.811 321.092 247C321.092 203.189 356.734 167.546 400.546 167.546H400.547C444.358 167.546 480 203.188 480 247C480 290.812 444.357 326.454 400.546 326.454ZM433.988 271.047C433.988 285.685 422.705 297.956 407.683 300.957L407.857 308.178C407.902 310.034 407.207 311.832 405.927 313.176C404.646 314.52 402.884 315.3 401.028 315.345L400.856 315.347C399.029 315.346 397.275 314.631 395.968 313.355C394.661 312.079 393.905 310.342 393.861 308.516L393.681 301.073C384.777 299.462 379.07 294.746 373.619 289.603C372.269 288.329 371.479 286.571 371.425 284.715C371.371 282.859 372.057 281.057 373.331 279.707C374.605 278.357 376.364 277.567 378.219 277.513C380.075 277.459 381.877 278.145 383.227 279.419C389.386 285.231 393.154 287.659 400.546 287.659C411.267 287.659 419.988 280.207 419.988 271.047C419.988 261.887 411.266 254.434 400.546 254.434C382.106 254.434 367.104 240.702 367.104 223.822C367.105 209.177 378.397 196.902 393.428 193.908L393.235 185.82C393.191 183.964 393.886 182.166 395.167 180.823C396.448 179.479 398.21 178.699 400.066 178.655C403.896 178.576 407.139 181.621 407.231 185.486L407.436 194.085C415.598 195.936 425.484 200.627 429.855 207.276C430.857 208.827 431.205 210.712 430.824 212.519C430.442 214.326 429.362 215.909 427.819 216.923C426.276 217.937 424.394 218.301 422.584 217.934C420.774 217.567 419.183 216.5 418.156 214.965C415.917 211.559 406.043 207.209 400.547 207.209C389.827 207.209 381.106 214.661 381.105 223.822C381.105 232.981 389.827 240.433 400.547 240.433C418.986 240.434 433.988 254.167 433.988 271.047ZM171.444 438.683C171.444 440.54 170.707 442.32 169.394 443.633C168.081 444.946 166.301 445.683 164.444 445.683H126.554C125.635 445.683 124.724 445.502 123.875 445.15C123.026 444.798 122.254 444.283 121.604 443.633C120.954 442.983 120.439 442.211 120.087 441.362C119.735 440.513 119.554 439.602 119.554 438.683C119.554 437.764 119.735 436.853 120.087 436.004C120.439 435.155 120.954 434.383 121.604 433.733C122.254 433.083 123.026 432.568 123.875 432.216C124.724 431.864 125.635 431.683 126.554 431.683H164.444C168.311 431.683 171.444 434.816 171.444 438.683Z" fill="#13C4A1"/>
</svg>
