<svg width="512" height="475" viewBox="0 0 512 475" fill="none" xmlns="http://www.w3.org/2000/svg">
<path fill-rule="evenodd" clip-rule="evenodd" d="M493.165 54.805C493.025 56.9045 493.718 58.9747 495.094 60.5665C496.47 62.1584 498.418 63.1434 500.516 63.3079C502.614 63.4724 504.692 62.8032 506.299 61.4454C507.907 60.0876 508.914 58.1507 509.103 56.055L511.97 20.918H511.967C512.059 19.7431 511.891 18.5624 511.473 17.4604C511.055 16.3585 510.399 15.3626 509.551 14.5443C508.703 13.7259 507.684 13.1053 506.568 12.727C505.452 12.3486 504.266 12.222 503.095 12.356L468.084 16.486C467.042 16.6049 466.033 16.928 465.115 17.4368C464.198 17.9457 463.389 18.6303 462.736 19.4515C462.084 20.2728 461.599 21.2147 461.31 22.2233C461.021 23.2319 460.934 24.2876 461.053 25.33C461.172 26.3724 461.495 27.3812 462.004 28.2987C462.513 29.2163 463.197 30.0246 464.019 30.6775C464.84 31.3304 465.782 31.8152 466.79 32.104C467.799 32.3929 468.855 32.4802 469.897 32.361L482.79 30.84L391.45 125.816L295.848 78.66C294.404 77.823 292.735 77.4585 291.074 77.6173C289.413 77.7762 287.843 78.4506 286.584 79.546L224.664 133.477C225.873 126.798 226.48 120.025 226.478 113.238C226.478 50.799 175.68 0 113.24 0C50.8 0 0 50.798 0 113.237C0 175.676 50.798 226.474 113.237 226.474C157.725 226.474 196.296 200.682 214.802 163.27L293.082 95.091L389.621 142.709C391.175 143.475 392.935 143.715 394.638 143.393C396.34 143.071 397.891 142.204 399.057 140.923L494.211 41.982L493.165 54.805ZM113.238 210.475C59.621 210.475 16 166.854 16 113.237C16 59.62 59.621 15.999 113.237 15.999C166.854 15.999 210.475 59.62 210.475 113.237C210.475 166.854 166.855 210.475 113.238 210.475ZM251.601 222.946H206.328C196.403 222.946 188.328 231.021 188.328 240.946V456.291C188.328 466.216 196.403 474.291 206.328 474.291H251.601C261.526 474.291 269.601 466.216 269.601 456.291V240.947C269.601 231.021 261.526 222.946 251.601 222.946ZM253.601 456.292C253.601 457.376 252.685 458.292 251.601 458.292H206.328C205.244 458.292 204.328 457.376 204.328 456.292V240.947C204.328 239.863 205.244 238.947 206.328 238.947H251.601C252.685 238.947 253.601 239.863 253.601 240.947V456.292ZM372.802 267.462H327.529C317.604 267.462 309.529 275.537 309.529 285.462V456.292C309.529 466.217 317.604 474.292 327.529 474.292H372.802C382.727 474.292 390.802 466.217 390.802 456.292V285.462C390.802 275.537 382.727 267.462 372.802 267.462ZM374.802 456.292C374.802 457.376 373.886 458.292 372.802 458.292H327.529C326.445 458.292 325.529 457.376 325.529 456.292V285.462C325.529 284.378 326.445 283.462 327.529 283.462H372.802C373.886 283.462 374.802 284.378 374.802 285.462V456.292ZM494 137.325H448.727C438.802 137.325 430.727 145.4 430.727 155.325V456.291C430.727 466.216 438.802 474.291 448.727 474.291H494C503.925 474.291 512 466.216 512 456.291V155.325C512 145.4 503.925 137.325 494 137.325ZM496 456.291C496 457.375 495.084 458.291 494 458.291H448.727C447.643 458.291 446.727 457.375 446.727 456.291V155.325C446.727 154.241 447.643 153.325 448.727 153.325H494C495.084 153.325 496 154.241 496 155.325V456.291ZM130.401 333.07H85.129C75.204 333.07 67.129 341.145 67.129 351.07V456.291C67.129 466.216 75.204 474.291 85.129 474.291H130.401C140.326 474.291 148.401 466.216 148.401 456.291V351.07C148.401 341.145 140.326 333.07 130.401 333.07ZM132.401 456.291C132.401 457.375 131.485 458.291 130.401 458.291H85.129C84.045 458.291 83.129 457.375 83.129 456.291V351.07C83.129 349.986 84.045 349.07 85.129 349.07H130.401C131.485 349.07 132.401 349.986 132.401 351.07V456.291ZM154.504 136.964C155.713 146.781 152.272 156.977 143.241 163.829C137.022 168.548 129.03 171.329 121.238 172.413V179.831C121.238 181.953 120.395 183.988 118.895 185.488C117.395 186.988 115.36 187.831 113.238 187.831C111.116 187.831 109.081 186.988 107.581 185.488C106.081 183.988 105.238 181.953 105.238 179.831V172.265C98.772 171.217 92.587 168.929 87.292 165.402C79.844 160.441 74.138 153.125 71.727 143.451C71.231 141.399 71.5683 139.234 72.6651 137.43C73.7618 135.626 75.5286 134.33 77.5786 133.826C79.6287 133.322 81.795 133.65 83.6033 134.74C85.4116 135.829 86.7146 137.591 87.227 139.639C88.588 145.099 91.844 149.252 96.105 152.09C106.584 159.069 123.487 158.828 133.616 151.142C142.549 144.364 139.273 131.864 130.61 126.634C125.356 123.462 118.483 121.788 112.053 120.733C104.251 119.452 95.8 117.132 88.941 112.654C71.253 101.107 70.724 75.701 86.875 62.569C91.838 58.534 98.003 55.764 104.573 54.441L105.239 54.312V46.642C105.239 44.5203 106.082 42.4854 107.582 40.9851C109.082 39.4849 111.117 38.642 113.239 38.642C115.361 38.642 117.396 39.4849 118.896 40.9851C120.396 42.4854 121.239 44.5203 121.239 46.642V54.19C122.316 54.376 123.387 54.604 124.448 54.872C135.819 57.755 146.163 65.231 151.596 78.172C152.372 80.1196 152.353 82.2942 151.542 84.2277C150.731 86.1611 149.193 87.6989 147.26 88.51C145.327 89.3211 143.152 89.3407 141.204 88.5646C139.257 87.7884 137.692 86.2786 136.846 84.36C132.957 75.09 123.405 69.589 113.424 69.584C102.785 69.578 90.368 75.97 90.957 88.108C91.527 99.848 105.194 103.435 114.616 104.982C122.708 106.31 131.529 108.52 138.86 112.946C147.841 118.369 153.337 127.49 154.504 136.964Z" fill="#13C4A1"/>
</svg>
