<svg width="440" height="449" viewBox="0 0 440 449" fill="none" xmlns="http://www.w3.org/2000/svg">
<path d="M126.469 367.989V400.205C126.484 412.931 131.545 425.131 140.544 434.13C149.543 443.128 161.743 448.19 174.469 448.205H264.741C277.467 448.19 289.667 443.128 298.665 434.13C307.664 425.131 312.726 412.931 312.741 400.205V367.989C312.72 348.9 305.127 330.599 291.629 317.101C278.131 303.603 259.83 296.01 240.741 295.989H198.469C179.38 296.01 161.078 303.603 147.58 317.101C134.082 330.599 126.49 348.9 126.469 367.989ZM198.469 311.989H240.741C255.588 312.006 269.822 317.911 280.32 328.41C290.818 338.908 296.724 353.142 296.741 367.989V400.205C296.732 408.689 293.358 416.824 287.359 422.823C281.359 428.822 273.225 432.196 264.741 432.205H174.469C165.984 432.196 157.85 428.822 151.851 422.823C145.851 416.824 142.477 408.689 142.469 400.205V367.989C142.486 353.142 148.391 338.908 158.889 328.41C169.388 317.911 183.622 312.006 198.469 311.989ZM225.477 280.765C237.327 280.752 248.688 276.039 257.068 267.66C265.447 259.28 270.16 247.919 270.173 236.069V206.421C270.162 197.815 266.738 189.564 260.652 183.48C254.566 177.395 246.315 173.973 237.709 173.965H201.501C192.895 173.973 184.644 177.395 178.557 183.48C172.471 189.564 169.047 197.815 169.037 206.421V236.069C169.049 247.919 173.763 259.28 182.142 267.66C190.521 276.039 201.883 280.752 213.733 280.765H225.477ZM185.037 236.069V206.421C185.043 202.057 186.78 197.874 189.866 194.789C192.953 191.704 197.137 189.969 201.501 189.965H237.709C242.073 189.969 246.257 191.704 249.343 194.789C252.43 197.874 254.166 202.057 254.173 206.421V236.069C254.164 243.677 251.138 250.971 245.759 256.351C240.379 261.73 233.085 264.756 225.477 264.765H213.733C206.125 264.756 198.831 261.73 193.451 256.351C188.071 250.971 185.045 243.677 185.037 236.069Z" fill="white"/>
<path d="M368.364 296.671C352.66 297.167 327.732 294.615 313.244 301.447C312.266 301.832 311.374 302.406 310.617 303.136C309.861 303.866 309.256 304.738 308.837 305.702C308.417 306.666 308.192 307.703 308.173 308.754C308.155 309.805 308.343 310.849 308.728 311.827C309.113 312.805 309.687 313.698 310.417 314.454C311.147 315.211 312.019 315.816 312.983 316.235C313.947 316.654 314.984 316.88 316.035 316.898C317.086 316.917 318.13 316.728 319.108 316.343C330.86 310.623 355.54 313.223 368.372 312.663C382.851 312.678 396.732 318.436 406.97 328.674C417.208 338.912 422.966 352.793 422.98 367.271V389.343C422.97 397.596 419.686 405.508 413.848 411.342C408.011 417.177 400.097 420.457 391.844 420.463H330.492C328.371 420.463 326.336 421.306 324.836 422.806C323.335 424.307 322.492 426.342 322.492 428.463C322.492 430.585 323.335 432.62 324.836 434.12C326.336 435.62 328.371 436.463 330.492 436.463H391.852C404.345 436.448 416.321 431.479 425.155 422.646C433.988 413.812 438.958 401.836 438.972 389.343V367.263C438.949 348.547 431.503 330.604 418.268 317.37C405.033 304.136 387.081 296.692 368.364 296.671ZM351.588 284.255C357.772 284.747 363.99 283.959 369.855 281.939C375.72 279.92 381.106 276.712 385.676 272.518C390.245 268.324 393.901 263.232 396.415 257.561C398.928 251.89 400.246 245.762 400.284 239.559V218.167C400.276 209.559 396.853 201.306 390.767 195.218C384.681 189.131 376.429 185.706 367.82 185.695H339.356C330.747 185.706 322.493 189.132 316.407 195.221C310.321 201.31 306.899 209.566 306.892 218.175V239.559C306.905 251.41 311.618 262.771 319.998 271.15C328.377 279.529 339.738 284.243 351.588 284.255ZM322.892 218.175C322.895 213.808 324.629 209.62 327.716 206.53C330.803 203.441 334.989 201.702 339.356 201.695H367.82C372.188 201.702 376.374 203.441 379.461 206.53C382.548 209.62 384.282 213.808 384.284 218.175V239.559C384.276 247.167 381.25 254.461 375.87 259.841C370.49 265.221 363.196 268.247 355.588 268.255C351.514 268.738 347.385 268.358 343.467 267.141C339.549 265.924 335.931 263.897 332.848 261.191C329.765 258.485 327.285 255.16 325.57 251.434C323.855 247.707 322.942 243.661 322.892 239.559V218.175ZM108.716 436.463C110.838 436.463 112.873 435.62 114.373 434.12C115.874 432.62 116.716 430.585 116.716 428.463C116.716 426.342 115.874 424.307 114.373 422.806C112.873 421.306 110.838 420.463 108.716 420.463H47.4364C39.1861 420.453 31.2768 417.171 25.4429 411.337C19.6091 405.503 16.327 397.594 16.3164 389.343V367.263C16.3355 352.789 22.0943 338.913 32.3299 328.679C42.5655 318.445 56.4422 312.688 70.9164 312.671H100.5C107.207 312.649 113.857 313.895 120.1 316.343C121.078 316.728 122.123 316.917 123.174 316.898C124.225 316.879 125.261 316.653 126.225 316.233C127.189 315.814 128.06 315.208 128.79 314.451C129.519 313.695 130.092 312.802 130.476 311.823C136.228 291.599 82.1564 297.687 70.9164 296.671C52.1986 296.692 34.2535 304.137 21.0181 317.373C7.78257 330.608 0.33758 348.554 0.316406 367.271V389.343C0.331227 401.836 5.3004 413.812 14.1339 422.646C22.9674 431.479 34.944 436.448 47.4364 436.463H108.716Z" fill="white"/>
<path d="M99.9395 185.703H71.4835C62.8768 185.714 54.6256 189.137 48.5397 195.223C42.4538 201.309 39.0301 209.56 39.0195 218.167V239.559C40.4435 299.159 130.996 299.151 132.412 239.559V218.167C132.401 209.56 128.977 201.309 122.891 195.223C116.805 189.137 108.546 185.714 99.9395 185.703ZM116.404 239.559C116.052 277.847 55.3635 277.847 55.0115 239.559V218.167C55.0179 213.803 56.7545 209.619 59.8407 206.532C62.927 203.446 67.111 201.709 71.4755 201.703H99.9395C104.304 201.709 108.488 203.446 111.574 206.532C114.661 209.619 116.397 213.803 116.404 218.167V239.559Z" fill="white"/>
<path d="M425.932 143.007C409.464 97.7349 378.419 59.2193 337.676 33.515C296.933 7.81074 248.802 -3.62462 200.852 1.0067C62.7158 10.3827 -33.5322 153.879 10.9878 283.007C11.6926 284.975 13.1401 286.59 15.0205 287.504C16.9008 288.419 19.0646 288.561 21.0484 287.9C23.0322 287.239 24.6784 285.828 25.6345 283.968C26.5906 282.109 26.7806 279.949 26.1638 277.951C12.9923 237.678 13.1775 194.229 26.6918 154.071H110.02C109.484 157.415 109.012 160.671 108.62 163.871C108.378 165.968 108.976 168.075 110.282 169.734C111.588 171.393 113.496 172.468 115.591 172.726C117.687 172.983 119.799 172.402 121.467 171.109C123.136 169.816 124.226 167.916 124.5 165.823C124.972 162.039 125.58 158.103 126.26 154.071H311.884C312.54 158.119 313.236 162.143 313.78 166.231C313.921 167.272 314.265 168.275 314.794 169.183C315.322 170.091 316.024 170.886 316.86 171.523C317.696 172.159 318.649 172.625 319.664 172.893C320.68 173.162 321.739 173.227 322.78 173.087C323.821 172.946 324.824 172.601 325.732 172.073C326.64 171.545 327.435 170.842 328.072 170.007C328.708 169.171 329.174 168.218 329.443 167.202C329.711 166.186 329.777 165.128 329.636 164.087C329.188 160.727 328.596 157.407 328.076 154.071H412.716C426.122 193.493 426.35 236.204 413.364 275.767C412.705 277.784 412.875 279.981 413.836 281.874C414.797 283.767 416.47 285.2 418.488 285.859C420.506 286.518 422.702 286.348 424.595 285.387C426.488 284.426 427.921 282.752 428.58 280.735C443.367 235.86 442.433 187.28 425.932 143.007ZM406.652 138.071H325.268C314.708 85.1747 295.732 45.2787 270.956 22.3907C301.013 29.7899 328.93 44.0991 352.486 64.1809C376.043 84.2627 394.589 109.563 406.652 138.071ZM262.612 138.071H129.412C144.852 68.1267 179.188 18.5347 214.508 16.3027C265.868 13.5027 295.604 76.1827 308.972 138.071H262.612ZM168.404 22.7667C143.852 46.3907 123.764 87.1587 113.06 138.071H32.6598C44.5999 109.515 63.12 84.1848 86.7102 64.1469C110.3 44.1089 138.292 29.9301 168.404 22.7667Z" fill="white"/>
</svg>
