<svg width="466" height="450" viewBox="0 0 466 450" fill="none" xmlns="http://www.w3.org/2000/svg">
<path d="M69.8577 77.0376L84.7577 107.838L118.558 112.438C125.258 113.338 127.658 121.638 123.058 126.038L98.3577 149.738L104.458 183.338C105.658 189.938 98.6577 194.938 92.8577 191.738L62.7577 175.538L32.6577 191.738C26.8577 194.838 19.5577 190.038 21.1577 182.838L27.1577 149.638L2.45772 125.938C-2.34228 121.338 0.257718 113.138 7.05772 112.238L40.7577 107.638L55.6577 76.8376C58.4577 70.9376 67.0577 71.0376 69.8577 77.0376ZM72.2577 118.638L62.7577 98.8376L53.1577 118.638C52.0577 120.938 49.7577 122.738 47.0577 123.138L25.3577 126.038L41.2577 141.238C43.0577 143.038 44.0577 145.638 43.5577 148.338L39.6577 169.938L58.8577 159.638C61.1577 158.438 64.0577 158.238 66.4577 159.638L85.7577 170.038L81.9577 148.838C81.3577 146.238 82.0577 143.338 84.1577 141.238L100.058 126.038L78.5577 123.138C75.9577 122.838 73.4577 121.138 72.2577 118.638ZM240.058 4.53758L254.958 35.3376L288.858 39.9376C295.558 40.8376 297.958 49.1376 293.358 53.6376L268.658 77.3376L274.758 110.938C275.958 117.538 268.958 122.538 263.158 119.338L232.858 103.138L202.758 119.338C196.958 122.438 189.658 117.638 191.258 110.438L197.258 77.2376L172.458 53.5376C167.658 48.9376 170.258 40.7376 177.058 39.8376L210.758 35.2376L225.658 4.53758C228.658 -1.56242 237.158 -1.46242 240.058 4.53758ZM242.458 46.1376L232.858 26.3376L223.358 46.1376C222.258 48.4376 219.958 50.2376 217.258 50.6376L195.458 53.5376L211.358 68.7376C213.258 70.5376 214.158 73.1376 213.658 75.8376L209.758 97.4376L229.058 87.1376C231.358 85.9376 234.158 85.7376 236.658 87.1376L255.958 97.5376L252.158 76.3376C251.558 73.7376 252.258 70.8376 254.358 68.7376L270.258 53.5376L248.758 50.5376C246.058 50.3376 243.658 48.6376 242.458 46.1376ZM410.158 77.0376L425.058 107.838L458.858 112.438C465.558 113.338 468.058 121.638 463.358 126.038L438.658 149.738L444.758 183.338C445.958 189.938 438.958 194.938 433.158 191.738L403.058 175.538L372.958 191.738C367.158 194.838 359.858 190.038 361.358 182.838L367.358 149.638L342.658 125.938C337.858 121.338 340.458 113.138 347.258 112.238L380.958 107.638L395.858 76.8376C398.758 70.9376 407.358 71.0376 410.158 77.0376ZM412.558 118.638L403.058 98.8376L393.458 118.638C392.358 120.938 390.158 122.738 387.358 123.138L365.658 126.038L381.458 141.238C383.258 143.038 384.258 145.638 383.758 148.338L379.858 169.938L399.158 159.638C401.458 158.438 404.358 158.238 406.758 159.638L426.158 170.038L422.358 148.838C421.758 146.238 422.458 143.338 424.558 141.238L440.358 126.038L418.858 123.138C416.258 122.838 413.758 121.138 412.558 118.638ZM195.758 281.238C193.558 277.438 194.858 272.538 198.658 270.338C202.458 268.138 207.358 269.438 209.558 273.238L220.058 291.438L257.358 254.138C260.458 251.038 265.558 251.038 268.658 254.138C271.758 257.238 271.758 262.338 268.658 265.438L223.958 310.138C220.258 313.838 214.058 313.038 211.458 308.538L195.758 281.238ZM232.858 196.738C276.358 196.738 311.658 232.038 311.658 275.538C311.658 319.038 276.358 354.338 232.858 354.338C189.358 354.338 154.058 319.038 154.058 275.538C154.058 232.038 189.358 196.738 232.858 196.738ZM277.258 231.138C252.758 206.638 212.958 206.638 188.458 231.138C163.958 255.638 163.958 295.438 188.458 319.938C212.958 344.438 252.758 344.438 277.258 319.938C301.758 295.338 301.758 255.638 277.258 231.138ZM232.858 147.238C303.658 147.238 361.058 204.638 361.058 275.438C361.058 302.238 352.858 327.138 338.758 347.738L377.058 414.038C380.758 420.238 375.658 427.238 369.058 426.238L329.858 420.038L308.858 445.838C305.158 450.638 298.258 449.838 295.558 445.038L268.758 398.638C245.358 405.438 220.258 405.438 196.958 398.638L170.158 445.038C167.458 449.838 160.558 450.638 156.858 445.838L135.858 420.038L96.6577 426.238C89.9577 427.338 85.2577 420.038 88.4577 414.338L126.958 347.738C92.1577 296.838 98.6577 228.338 142.258 184.738C165.358 161.638 197.458 147.238 232.858 147.238ZM328.158 361.238C315.958 374.838 300.958 385.738 283.958 393.138L303.558 427.038L320.358 406.438C322.258 404.038 325.158 403.138 327.958 403.638L354.958 407.938L328.158 361.238ZM181.658 393.138C164.758 385.738 149.758 374.838 137.558 361.338L110.658 407.938L137.658 403.638C140.358 403.138 143.358 404.138 145.258 406.438L162.058 427.038L181.658 393.138ZM312.258 196.138C268.458 152.338 197.358 152.338 153.558 196.138C109.758 239.938 109.758 311.038 153.558 354.838C197.458 398.638 268.458 398.638 312.258 354.838C356.058 311.038 356.058 239.938 312.258 196.138Z" fill="white"/>
</svg>
