<svg width="512" height="512" viewBox="0 0 512 512" fill="none" xmlns="http://www.w3.org/2000/svg">
<path fill-rule="evenodd" clip-rule="evenodd" d="M130.774 423.217C107.979 423.217 89.6825 404.621 89.6825 381.825C89.6825 359.33 107.979 340.733 130.774 340.733C153.57 340.733 171.866 359.33 171.866 381.825C171.866 404.621 153.57 423.217 130.774 423.217ZM503.002 511.7H8.6983C3.89924 511.7 0 507.801 0 503.002V220.457C0 209.359 13.4974 211.759 23.0955 211.759V8.6983C23.0955 3.89924 26.9947 0 31.7938 0H273.847C278.646 0 282.545 3.89924 282.545 8.6983V37.4927C288.844 37.4927 314.938 36.5929 318.538 38.0926C319.738 38.6924 320.637 39.2923 321.537 40.1922C329.636 47.9906 392.923 110.378 394.423 113.678L395.023 117.577V272.947H503.002C507.801 272.947 511.7 276.546 511.7 281.345V503.002C511.7 507.801 507.801 511.7 503.002 511.7ZM40.4921 211.759H64.7873V46.191C64.7873 41.3919 68.6866 37.4927 73.4856 37.4927H265.148V17.3966H40.4921V211.759ZM82.1839 211.759H134.074C136.173 211.759 137.973 212.658 139.473 213.858L209.059 272.947H377.926V125.975H315.238C310.439 125.975 306.54 122.076 306.54 117.277V54.8893H82.1839V211.759ZM17.3966 494.303H494.303V290.043H205.76C203.96 290.043 201.861 289.443 200.361 288.244L130.774 229.155H17.3966V494.303ZM459.81 475.107H291.243C286.444 475.107 282.545 471.208 282.545 466.409V323.337C282.545 318.538 286.444 314.639 291.243 314.639H459.81C464.609 314.639 468.209 318.538 468.209 323.337V466.409C468.209 471.208 464.609 475.107 459.81 475.107ZM299.941 457.711H451.112V332.035H299.941V457.711ZM225.556 120.876H124.776C113.078 120.876 113.078 103.48 124.776 103.48H225.556C236.954 103.48 236.954 120.876 225.556 120.876ZM335.035 156.569H124.776C113.078 156.569 113.078 139.173 124.776 139.173H335.035C346.732 139.173 346.732 156.569 335.035 156.569ZM335.035 192.262H124.776C113.078 192.262 113.078 174.866 124.776 174.866H335.035C346.732 174.866 346.732 192.262 335.035 192.262ZM323.937 108.579H365.629L323.937 67.1869V108.579ZM148.171 480.506H113.378C108.579 480.506 104.68 476.607 104.68 471.808V452.612C102.88 452.012 101.08 451.112 99.2806 450.212L85.7832 464.009C82.1839 467.309 76.785 467.309 73.4856 464.009C39.2923 429.816 38.9924 436.715 62.3878 413.319C61.488 411.52 60.8881 410.02 60.2882 407.92H40.792C35.993 407.92 32.0937 404.321 32.0937 399.522V364.429C32.0937 359.63 35.993 355.731 40.792 355.731H60.2882C60.8881 353.931 61.488 352.131 62.3878 350.632L48.5905 336.834C45.2912 333.535 45.2912 327.836 48.5905 324.537C83.0838 290.343 75.8852 290.343 99.2806 313.439C101.08 312.839 102.88 311.939 104.68 311.339V292.143C104.68 287.344 108.579 283.445 113.378 283.445H148.171C152.97 283.445 156.869 287.344 156.869 292.143V311.339C158.669 311.939 160.469 312.839 162.268 313.439L175.766 299.941C179.365 296.642 184.764 296.642 188.063 299.941C222.257 334.135 222.557 327.236 199.161 350.632C200.061 352.131 200.661 353.931 201.261 355.731H220.757C225.556 355.731 229.455 359.63 229.455 364.429V399.522C229.455 404.321 225.556 408.22 220.757 408.22H201.261C200.661 410.02 200.061 411.52 199.161 413.319L212.658 427.117C216.258 430.416 216.258 435.815 212.658 439.414L188.063 464.009C184.764 467.309 179.365 467.309 175.766 464.009L162.268 450.212C160.469 451.112 158.669 452.012 156.869 452.612V471.808C156.869 476.607 152.97 480.506 148.171 480.506ZM122.076 463.11H139.473C139.473 430.716 138.873 443.913 159.569 432.216C162.868 430.116 167.367 430.716 170.067 433.715L182.064 445.413L194.362 433.115L182.364 421.118C175.766 414.819 183.264 409.42 186.564 397.122C187.763 393.223 191.063 390.824 194.962 390.824H212.059V373.127C179.665 373.127 192.862 373.727 180.865 353.031C179.065 349.732 179.665 345.533 182.364 342.533L194.362 330.835L182.064 318.238L170.067 330.236C163.468 336.834 158.369 329.336 146.071 326.036C142.172 325.136 139.473 321.537 139.473 317.638V300.841H122.076C122.076 333.235 122.676 320.037 101.98 331.735C98.6807 333.535 94.1816 333.235 91.4821 330.236L79.4845 318.238L67.1869 330.835L79.1845 342.533C85.7832 349.132 78.2847 354.531 74.9854 366.828C73.7856 370.728 70.4862 373.127 66.587 373.127H49.4903V390.824C81.884 390.824 68.6866 390.224 80.3843 410.62C82.4839 414.219 81.884 418.418 79.1845 421.118L67.1869 433.115L79.4845 445.413L91.4821 433.715C98.0808 427.117 103.18 434.615 115.477 437.914C119.377 438.814 122.076 442.414 122.076 446.313V463.11ZM130.774 358.13C117.577 358.13 107.079 368.928 107.079 381.825C107.079 395.023 117.577 405.821 130.774 405.821C143.972 405.821 154.47 395.023 154.47 381.825C154.47 368.928 143.972 358.13 130.774 358.13Z" fill="url(#paint0_linear_1495_93)"/>
<defs>
<linearGradient id="paint0_linear_1495_93" x1="-1.06603" y1="5.86317" x2="469.054" y2="461.063" gradientUnits="userSpaceOnUse">
<stop stop-color="#8705FF"/>
<stop offset="1" stop-color="#CC00FF"/>
</linearGradient>
</defs>
</svg>
