<svg width="455" height="503" viewBox="0 0 455 503" fill="none" xmlns="http://www.w3.org/2000/svg">
<path d="M424.96 432.811H386.958C383.772 432.811 381.269 430.308 381.269 427.122C381.269 423.936 383.772 421.433 386.958 421.433H424.96C434.859 421.433 442.937 413.355 442.937 403.456V29.3547C442.937 19.456 434.859 11.3778 424.96 11.3778H29.3547C19.456 11.3778 11.3778 19.456 11.3778 29.3547V403.456C11.3778 413.355 19.456 421.433 29.3547 421.433H67.3565C70.5422 421.433 73.0453 423.936 73.0453 427.122C73.0453 430.308 70.5422 432.811 67.3565 432.811H29.3547C13.0844 432.811 0 419.612 0 403.456V29.3547C0 13.0844 13.1982 0 29.3547 0H424.96C441.23 0 454.315 13.1982 454.315 29.3547V403.456C454.428 419.612 441.23 432.811 424.96 432.811Z" fill="url(#paint0_linear_1495_96)"/>
<path d="M448.74 100.806H5.68889C2.50311 100.806 0 98.3027 0 95.1169C0 91.9312 2.50311 89.4281 5.68889 89.4281H448.74C451.925 89.4281 454.428 91.9312 454.428 95.1169C454.428 98.3027 451.812 100.806 448.74 100.806ZM73.728 76.116C59.5058 76.116 47.9004 64.5107 47.9004 50.2885C47.9004 36.0663 59.5058 24.4609 73.728 24.4609C87.9502 24.4609 99.5556 36.0663 99.5556 50.2885C99.5556 64.5107 87.9502 76.116 73.728 76.116ZM73.728 35.9525C65.7636 35.9525 59.2782 42.4378 59.2782 50.4023C59.2782 58.3667 65.7636 64.852 73.728 64.852C81.6924 64.852 88.1778 58.3667 88.1778 50.4023C88.1778 42.4378 81.6924 35.9525 73.728 35.9525ZM137.557 76.116C123.335 76.116 111.73 64.5107 111.73 50.2885C111.73 36.0663 123.335 24.4609 137.557 24.4609C151.78 24.4609 163.385 36.0663 163.385 50.2885C163.385 64.5107 151.78 76.116 137.557 76.116ZM137.557 35.9525C129.593 35.9525 123.108 42.4378 123.108 50.4023C123.108 58.3667 129.593 64.852 137.557 64.852C145.522 64.852 152.007 58.3667 152.007 50.4023C152.007 42.4378 145.522 35.9525 137.557 35.9525ZM201.387 76.116C187.164 76.116 175.559 64.5107 175.559 50.2885C175.559 36.0663 187.164 24.4609 201.387 24.4609C215.609 24.4609 227.214 36.0663 227.214 50.2885C227.214 64.5107 215.609 76.116 201.387 76.116ZM201.387 35.9525C193.422 35.9525 186.937 42.4378 186.937 50.4023C186.937 58.3667 193.422 64.852 201.387 64.852C209.351 64.852 215.836 58.3667 215.836 50.4023C215.836 42.4378 209.351 35.9525 201.387 35.9525ZM400.725 56.0912H279.893C276.708 56.0912 274.204 53.588 274.204 50.4023C274.204 47.2165 276.708 44.7134 279.893 44.7134H400.612C403.797 44.7134 406.3 47.2165 406.3 50.4023C406.3 53.588 403.911 56.0912 400.725 56.0912ZM175.332 470.811C174.08 470.811 172.828 470.356 171.691 469.56L114.233 422.569C112.868 421.545 112.185 419.839 112.185 418.132C112.185 416.425 112.981 414.833 114.233 413.695L171.691 366.705C174.08 364.657 177.721 365.112 179.655 367.501C181.589 369.89 181.248 373.531 178.859 375.465L126.862 418.018L178.859 460.571C181.248 462.505 181.703 466.146 179.655 468.536C178.631 470.015 176.924 470.811 175.332 470.811ZM278.983 470.811C277.39 470.811 275.684 470.129 274.546 468.763C272.612 466.374 272.953 462.733 275.342 460.799L327.339 418.246L275.342 375.693C272.953 373.759 272.498 370.118 274.546 367.729C276.48 365.339 280.121 364.884 282.51 366.932L339.968 413.922C341.333 414.946 342.016 416.653 342.016 418.36C342.016 420.066 341.22 421.659 339.968 422.797L282.624 469.446C281.6 470.356 280.348 470.811 278.983 470.811ZM212.537 478.548C212.082 478.548 211.513 478.434 211.058 478.321C207.986 477.524 206.165 474.338 207.076 471.38L236.43 361.926C237.227 358.854 240.412 357.147 243.371 357.944C246.443 358.74 248.263 361.926 247.353 364.884L217.998 474.338C217.316 476.841 215.04 478.548 212.537 478.548Z" fill="url(#paint1_linear_1495_96)"/>
<path d="M352.484 502.782H101.832C79.6449 502.782 61.668 484.692 61.668 462.619V373.531C61.668 351.344 79.7586 333.367 101.832 333.367H352.37C374.557 333.367 392.534 351.458 392.534 373.531V462.619C392.648 484.805 374.671 502.782 352.484 502.782ZM101.832 344.745C85.9026 344.745 73.0457 357.716 73.0457 373.531V462.619C73.0457 478.548 86.0164 491.405 101.832 491.405H352.37C368.299 491.405 381.156 478.434 381.156 462.619V373.531C381.156 357.602 368.185 344.745 352.37 344.745H101.832Z" fill="url(#paint2_linear_1495_96)"/>
<path d="M260.324 344.747C257.138 344.747 254.635 342.244 254.635 339.058V240.982C254.635 237.796 257.138 235.293 260.324 235.293H274.774C280.804 235.293 283.762 230.173 284.786 228.011C287.062 223.005 287.403 215.154 282.738 209.807L235.406 155.307C233.245 152.804 230.286 151.439 227.101 151.439C223.915 151.439 220.957 152.804 218.795 155.307L171.463 209.807C167.481 214.358 166.685 221.981 169.529 228.125C170.781 230.856 173.739 235.293 179.428 235.293H193.991C197.177 235.293 199.68 237.796 199.68 240.982V339.058C199.68 342.244 197.177 344.747 193.991 344.747C190.806 344.747 188.302 342.244 188.302 339.058V246.671H179.428C170.667 246.671 163.158 241.437 159.175 232.79C154.51 222.55 155.99 210.262 162.93 202.297L210.262 147.798C214.585 142.905 220.729 140.061 227.214 140.061C233.7 140.061 239.844 142.905 244.167 147.798L291.499 202.297C298.439 210.262 299.918 222.55 295.254 232.79C291.271 241.551 283.648 246.785 274.887 246.785H266.126V339.172C266.013 342.244 263.396 344.747 260.324 344.747ZM152.918 138.354H43.2358C40.05 138.354 37.5469 135.851 37.5469 132.665C37.5469 129.48 40.05 126.977 43.2358 126.977H152.918C156.103 126.977 158.606 129.48 158.606 132.665C158.606 135.851 156.103 138.354 152.918 138.354ZM152.918 166.685H43.2358C40.05 166.685 37.5469 164.182 37.5469 160.996C37.5469 157.81 40.05 155.307 43.2358 155.307H152.918C156.103 155.307 158.606 157.81 158.606 160.996C158.606 164.182 156.103 166.685 152.918 166.685ZM119.126 194.902H43.2358C40.05 194.902 37.5469 192.399 37.5469 189.213C37.5469 186.027 40.05 183.524 43.2358 183.524H119.126C122.311 183.524 124.814 186.027 124.814 189.213C124.814 192.399 122.311 194.902 119.126 194.902ZM411.193 138.354H301.398C298.212 138.354 295.709 135.851 295.709 132.665C295.709 129.48 298.212 126.977 301.398 126.977H411.193C414.379 126.977 416.882 129.48 416.882 132.665C416.882 135.851 414.265 138.354 411.193 138.354ZM411.193 166.685H301.398C298.212 166.685 295.709 164.182 295.709 160.996C295.709 157.81 298.212 155.307 301.398 155.307H411.193C414.379 155.307 416.882 157.81 416.882 160.996C416.882 164.182 414.265 166.685 411.193 166.685ZM411.193 194.902H335.303C332.118 194.902 329.614 192.399 329.614 189.213C329.614 186.027 332.118 183.524 335.303 183.524H411.193C414.379 183.524 416.882 186.027 416.882 189.213C416.882 192.399 414.265 194.902 411.193 194.902Z" fill="url(#paint3_linear_1495_96)"/>
<path d="M227.214 319.262C224.029 319.262 221.525 316.759 221.525 313.573V251.564C221.525 248.378 224.029 245.875 227.214 245.875C230.4 245.875 232.903 248.378 232.903 251.564V313.573C232.903 316.759 230.286 319.262 227.214 319.262Z" fill="url(#paint4_linear_1495_96)"/>
<defs>
<linearGradient id="paint0_linear_1495_96" x1="-0.946481" y1="4.95924" x2="396.849" y2="409.268" gradientUnits="userSpaceOnUse">
<stop stop-color="#8705FF"/>
<stop offset="1" stop-color="#CC00FF"/>
</linearGradient>
<linearGradient id="paint1_linear_1495_96" x1="-0.946716" y1="29.664" x2="416.252" y2="433.926" gradientUnits="userSpaceOnUse">
<stop stop-color="#8705FF"/>
<stop offset="1" stop-color="#CC00FF"/>
</linearGradient>
<linearGradient id="paint2_linear_1495_96" x1="60.9787" y1="335.308" x2="189.69" y2="578.703" gradientUnits="userSpaceOnUse">
<stop stop-color="#8705FF"/>
<stop offset="1" stop-color="#CC00FF"/>
</linearGradient>
<linearGradient id="paint3_linear_1495_96" x1="36.7566" y1="129.472" x2="212.389" y2="425.697" gradientUnits="userSpaceOnUse">
<stop stop-color="#8705FF"/>
<stop offset="1" stop-color="#CC00FF"/>
</linearGradient>
<linearGradient id="paint4_linear_1495_96" x1="221.502" y1="246.716" x2="241.309" y2="249.689" gradientUnits="userSpaceOnUse">
<stop stop-color="#8705FF"/>
<stop offset="1" stop-color="#CC00FF"/>
</linearGradient>
</defs>
</svg>
