<svg width="479" height="479" viewBox="0 0 479 479" fill="none" xmlns="http://www.w3.org/2000/svg">
<path d="M471.363 405.043L387.26 320.94L387.255 320.935L387.249 320.929L357.185 290.865C347.03 280.709 330.502 280.705 320.343 290.865L316.658 294.551L303.961 281.854C328.835 252.031 343.822 213.69 343.822 171.91C343.82 77.1188 266.701 0 171.909 0C77.1169 0 0 77.1188 0 171.91C0 266.701 77.1169 343.82 171.909 343.82C213.689 343.82 252.03 328.833 281.853 303.96L294.55 316.656L290.864 320.342C280.709 330.499 280.709 347.026 290.865 357.184L405.042 471.361C415.222 481.543 431.704 481.545 441.887 471.362L471.362 441.887C481.521 431.729 481.521 415.202 471.363 405.043ZM171.909 312.557C94.3562 312.557 31.2622 249.463 31.2622 171.91C31.2622 94.3571 94.3562 31.2631 171.909 31.2631C249.462 31.2631 312.557 94.3571 312.557 171.91C312.557 249.463 249.462 312.557 171.909 312.557ZM316.657 338.763L338.763 316.658L354.094 331.989L331.988 354.095L316.657 338.763ZM423.465 445.571L354.094 376.2L376.2 354.094L445.571 423.465L423.465 445.571Z" fill="url(#paint0_linear_620_23)"/>
<path d="M171.907 62.5271C163.274 62.5271 156.275 69.5259 156.275 78.1591C156.275 86.7923 163.274 93.7911 171.907 93.7911C214.985 93.7911 250.03 128.834 250.03 171.909C250.03 180.542 257.029 187.541 265.662 187.541C274.295 187.541 281.294 180.542 281.294 171.909C281.294 111.595 232.223 62.5271 171.907 62.5271Z" fill="url(#paint1_linear_620_23)"/>
<defs>
<linearGradient id="paint0_linear_620_23" x1="71" y1="-16.5012" x2="447.5" y2="525.499" gradientUnits="userSpaceOnUse">
<stop stop-color="#8705FF"/>
<stop offset="1" stop-color="#CC00FF"/>
</linearGradient>
<linearGradient id="paint1_linear_620_23" x1="174.807" y1="58.2204" x2="273.067" y2="199.684" gradientUnits="userSpaceOnUse">
<stop stop-color="#8705FF"/>
<stop offset="1" stop-color="#CC00FF"/>
</linearGradient>
</defs>
</svg>
