<svg width="496" height="512" viewBox="0 0 496 512" fill="none" xmlns="http://www.w3.org/2000/svg">
<path d="M158.91 315.076C159.944 315.508 161.053 315.732 162.174 315.734C163.294 315.737 164.405 315.519 165.441 315.093C166.478 314.667 167.42 314.041 168.214 313.25C169.009 312.46 169.64 311.52 170.071 310.486L182.103 281.601H227.62L239.652 310.486C241.466 314.836 246.464 316.891 250.814 315.077C255.164 313.263 257.219 308.265 255.405 303.916L212.738 201.516C212.09 199.961 210.996 198.634 209.595 197.7C208.193 196.766 206.547 196.267 204.863 196.267C203.178 196.267 201.532 196.766 200.13 197.7C198.729 198.634 197.635 199.961 196.987 201.516L154.32 303.916C153.889 304.95 153.665 306.059 153.662 307.18C153.659 308.3 153.877 309.41 154.303 310.447C154.73 311.483 155.356 312.425 156.146 313.22C156.936 314.014 157.875 314.645 158.91 315.076ZM204.862 226.987L220.503 264.534H189.22L204.862 226.987Z" fill="url(#paint0_linear_620_41)"/>
<path fill-rule="evenodd" clip-rule="evenodd" d="M273.129 298.667C268.416 298.667 264.596 302.487 264.596 307.2C264.596 311.914 268.416 315.734 273.129 315.734H324.329C329.042 315.734 332.863 311.914 332.863 307.2C332.863 302.487 329.042 298.667 324.329 298.667H307.262V213.334H324.329C329.042 213.334 332.863 209.513 332.863 204.8C332.863 200.087 329.042 196.267 324.329 196.267H273.129C268.416 196.267 264.596 200.087 264.596 204.8C264.596 209.513 268.416 213.334 273.129 213.334H290.196V298.667H273.129Z" fill="url(#paint1_linear_620_41)"/>
<path d="M0.0616121 375.467C0.0616121 394.318 15.344 409.6 34.1947 409.6C38.4703 409.584 42.704 408.756 46.6704 407.159C66.843 422.605 95.3106 430.66 130.297 430.66C135.57 430.66 141.049 430.412 146.604 430.055C171.385 480.691 207.14 512 247.528 512C287.916 512 323.671 480.691 348.46 430.08C354.024 430.438 359.493 430.685 364.767 430.685C399.753 430.685 428.221 422.63 448.393 407.184C452.359 408.771 456.59 409.591 460.861 409.6C475.926 409.557 489.182 399.642 493.479 385.201C497.775 370.761 492.097 355.212 479.506 346.939C480.7 319.462 470.076 288.281 448.453 256C470.076 223.727 480.701 192.546 479.506 165.06C494.258 155.539 499.355 136.364 491.277 120.775C483.198 105.186 464.592 98.2934 448.308 104.857C425.123 87.1161 390.887 79.257 348.467 82.0218C323.706 31.3432 287.934 0 247.529 0C207.123 0 171.351 31.3432 146.562 82.0226C104.16 79.2747 69.9411 87.1422 46.7216 104.858C30.4474 98.3472 11.8889 105.25 3.82404 120.813C-4.24082 136.375 0.820817 155.518 15.5237 165.061C14.3462 192.53 24.9785 223.71 46.6023 256C24.9785 288.282 14.3462 319.463 15.5497 346.94C10.7993 350.032 6.89502 354.26 4.19061 359.241C1.48619 364.222 0.067019 369.799 0.0616121 375.467ZM17.1286 375.467C17.1286 366.041 24.7693 358.4 34.1956 358.4C43.6218 358.4 51.2625 366.04 51.2625 375.467C51.2625 384.893 43.6218 392.534 34.1956 392.534C29.6691 392.534 25.3281 390.736 22.1274 387.535C18.9267 384.334 17.1286 379.993 17.1286 375.467ZM157.152 100.011C179.869 102.731 202.251 107.755 223.951 115.004C208.677 121.821 193.761 129.414 179.262 137.754C164.712 146.152 150.618 155.315 137.039 165.206C141.513 142.848 148.252 121.003 157.152 100.011ZM358.01 165.206C344.434 155.314 330.343 146.15 315.795 137.754C301.317 129.424 286.427 121.831 271.182 115.004C292.861 107.759 315.219 102.735 337.913 100.011C346.808 121.004 353.541 142.848 358.01 165.206ZM337.905 411.99C315.188 409.27 292.806 404.246 271.106 396.997C286.38 390.18 301.296 382.586 315.795 374.246C330.345 365.849 344.439 356.686 358.018 346.795C353.544 369.153 346.805 390.997 337.905 411.99ZM307.262 152.542C326.505 163.617 344.902 176.101 362.302 189.893C365.44 211.788 367.008 233.881 366.995 256C367.011 278.12 365.445 300.212 362.31 322.108C344.907 335.899 326.508 348.384 307.262 359.459C288.078 370.555 268.114 380.245 247.529 388.455C226.942 380.241 206.978 370.544 187.795 359.441C168.552 348.367 150.155 335.882 132.755 322.091C126.509 278.24 126.509 233.725 132.755 189.875C150.156 176.09 168.553 163.611 187.795 152.541C206.995 141.437 226.976 131.74 247.58 123.528C268.149 131.744 288.095 141.441 307.262 152.542ZM381.502 206.021C398.522 221.088 413.98 237.833 427.642 256C413.999 274.165 398.561 290.909 381.562 305.98C383.238 289.373 384.073 272.692 384.063 256C384.067 239.309 383.227 222.627 381.546 206.021H381.502ZM113.555 305.98C96.5308 290.917 81.0723 274.172 67.4149 256C81.0579 237.836 96.4957 221.091 113.495 206.021C110.138 239.256 110.138 272.745 113.495 305.98H113.555ZM179.313 374.246C193.791 382.577 208.681 390.17 223.925 396.997C202.247 404.242 179.888 409.266 157.194 411.99C148.297 390.997 141.561 369.153 137.09 346.795C150.651 356.686 164.728 365.849 179.261 374.246H179.313ZM247.529 494.934C215.477 494.934 186.353 469.513 164.874 428.28C193.156 424.27 220.887 417.044 247.529 406.742C274.18 417.049 301.923 424.275 330.216 428.28C308.696 469.513 279.58 494.934 247.529 494.934ZM460.862 392.534C451.437 392.534 443.795 384.893 443.795 375.467C443.795 366.04 451.436 358.4 460.862 358.4C470.289 358.4 477.929 366.04 477.929 375.467C477.929 384.893 470.288 392.534 460.862 392.534ZM462.654 341.512C462.048 341.512 461.476 341.334 460.862 341.334C442.01 341.334 426.728 356.616 426.728 375.467C426.76 383.098 429.374 390.493 434.144 396.45C415.559 408.712 388.431 414.541 355.936 413.32C366.516 386.889 374.015 359.327 378.285 331.178C400.356 313.406 420.33 293.177 437.822 270.882C452.23 291.8 460.802 316.18 462.654 341.512ZM477.929 136.533C477.929 145.959 470.288 153.6 460.862 153.6C451.435 153.6 443.795 145.959 443.795 136.533C443.795 127.107 451.435 119.466 460.862 119.466C470.288 119.466 477.929 127.108 477.929 136.533ZM434.144 115.55C429.375 121.507 426.761 128.902 426.728 136.533C426.728 155.385 442.011 170.666 460.862 170.666C461.476 170.666 462.047 170.521 462.654 170.488C460.804 195.82 452.232 220.201 437.822 241.118C420.328 218.823 400.35 198.594 378.276 180.822C374.001 152.672 366.493 125.109 355.902 98.6797C388.423 97.4511 415.567 103.253 434.144 115.55ZM247.529 17.067C279.58 17.067 308.704 42.4877 330.183 83.7207C301.916 87.7332 274.199 94.9594 247.571 105.259C220.92 94.952 193.177 87.7257 164.884 83.7207C186.361 42.4877 215.477 17.067 247.529 17.067ZM34.1947 119.467C43.6201 119.467 51.2617 127.108 51.2617 136.534C51.2617 145.96 43.6209 153.601 34.1947 153.601C24.7685 153.601 17.1277 145.96 17.1277 136.534C17.1277 127.108 24.7693 119.467 34.1947 119.467ZM32.4034 170.488C33.0089 170.488 33.5808 170.666 34.1956 170.666C53.0472 170.666 68.3287 155.384 68.3287 136.533C68.2968 128.902 65.6831 121.507 60.913 115.55C79.49 103.288 106.617 97.4679 139.121 98.6797C128.541 125.111 121.042 152.673 116.772 180.822C94.7034 198.593 74.7291 218.819 57.2354 241.109C42.8223 220.197 34.2502 195.818 32.4034 170.488ZM57.2354 270.891C74.7373 293.179 94.7169 313.405 116.789 331.178C121.064 359.33 128.569 386.895 139.156 413.329C106.678 414.557 79.5328 408.712 60.9474 396.45C65.7048 390.489 68.3062 383.094 68.3287 375.467C68.3287 356.615 53.0463 341.334 34.1956 341.334C33.5808 341.334 33.0097 341.487 32.4034 341.512C34.2533 316.182 42.8252 291.804 57.2354 270.891Z" fill="url(#paint2_linear_620_41)"/>
<defs>
<linearGradient id="paint0_linear_620_41" x1="167.727" y1="196.034" x2="259.942" y2="309.36" gradientUnits="userSpaceOnUse">
<stop stop-color="#8705FF"/>
<stop offset="1" stop-color="#CC00FF"/>
</linearGradient>
<linearGradient id="paint1_linear_620_41" x1="273.972" y1="196.034" x2="366.311" y2="271.686" gradientUnits="userSpaceOnUse">
<stop stop-color="#8705FF"/>
<stop offset="1" stop-color="#CC00FF"/>
</linearGradient>
<linearGradient id="paint2_linear_620_41" x1="68" y1="-1.00001" x2="451" y2="530" gradientUnits="userSpaceOnUse">
<stop stop-color="#8705FF"/>
<stop offset="1" stop-color="#CC00FF"/>
</linearGradient>
</defs>
</svg>
