<svg width="512" height="444" viewBox="0 0 512 444" fill="none" xmlns="http://www.w3.org/2000/svg">
<path d="M476.824 171.063H463.64V29.9658C463.623 13.425 450.215 0.0159353 433.674 0H60.7884C44.2433 0.0159353 30.8343 13.4239 30.8184 29.9658V289.955C13.2396 290.856 -0.425436 305.596 0.0101287 323.196C0.449943 340.795 14.8246 354.838 32.4278 354.867H355.231V407.872C355.252 427.29 370.992 443.026 390.409 443.05H476.825C496.242 443.026 511.982 427.29 512.003 407.872V206.238C511.978 186.82 496.242 171.085 476.825 171.063H476.824ZM411.759 171.063H390.404C370.987 171.085 355.247 186.82 355.226 206.241V253.396H82.6952V54.6857H411.759V171.063ZM367.978 217.658H499.253V372.695H367.979L367.978 217.658ZM499.187 204.91H368.043C368.753 193.07 378.551 183.828 390.407 183.812H476.823C488.679 183.828 498.473 193.07 499.185 204.905L499.187 204.91ZM60.7842 12.7472H433.67C443.173 12.7546 450.88 20.4609 450.888 29.9647V171.063H424.507V48.3116C424.507 44.7931 421.652 41.9374 418.133 41.9374H76.3211C72.8015 41.9374 69.9469 44.7931 69.9469 48.3116V259.77C69.9469 263.289 72.8015 266.144 76.3211 266.144H355.23V289.91H313.055C303.026 289.923 294.896 298.052 294.883 308.082C294.882 309.52 294.31 310.899 293.293 311.916C292.276 312.932 290.898 313.504 289.46 313.506H195.08C193.643 313.504 192.264 312.932 191.247 311.915C190.23 310.899 189.658 309.52 189.656 308.082C189.644 298.056 181.518 289.927 171.493 289.91H43.5624V29.9658C43.5751 20.462 51.2772 12.7557 60.7831 12.7482L60.7842 12.7472ZM32.4246 342.123C21.527 342.123 12.6967 333.288 12.6967 322.39C12.6967 311.497 21.527 302.662 32.4246 302.662H171.485C172.922 302.666 174.299 303.238 175.315 304.255C176.33 305.271 176.902 306.649 176.905 308.086C176.916 318.121 185.047 326.25 195.076 326.258H289.456C299.485 326.25 307.616 318.121 307.627 308.086C307.629 306.648 308.201 305.269 309.218 304.253C310.235 303.236 311.614 302.664 313.052 302.662H355.226V342.123H32.4246ZM476.824 430.302H390.408C378.029 430.286 367.995 420.252 367.978 407.872V385.443H499.253V407.872C499.241 420.252 489.207 430.286 476.824 430.302Z" fill="white"/>
<path d="M446.938 401.499H420.296C416.774 401.499 413.922 404.35 413.922 407.873C413.922 411.392 416.774 414.247 420.296 414.247H446.938C450.462 414.247 453.312 411.392 453.312 407.873C453.312 404.35 450.462 401.499 446.938 401.499ZM202.859 203.038C203.332 203.038 203.801 202.988 204.262 202.88C204.689 202.784 205.107 202.681 205.526 202.569C208.894 201.922 212.357 201.946 215.716 202.64C219.076 203.334 222.265 204.683 225.102 206.611C230.829 210.479 237.481 212.756 244.377 213.21C251.272 213.665 258.165 212.28 264.35 209.197L269.152 206.802C272.301 205.23 273.583 201.399 272.011 198.249C270.439 195.099 266.608 193.821 263.459 195.394L258.657 197.792C254.494 199.866 249.854 200.797 245.213 200.491C240.572 200.186 236.095 198.654 232.239 196.053C229.49 194.19 226.515 192.687 223.384 191.581C228.894 185.394 232.106 177.498 232.48 169.221C232.584 166.714 232.637 164.207 232.641 161.705H242.555C246.075 161.705 248.929 158.851 248.929 155.331C248.929 151.808 246.075 148.957 242.555 148.957H232.227C231.881 143.758 231.305 138.577 230.501 133.429L230.359 132.52C229.894 129.768 230.203 126.94 231.254 124.354C232.304 121.767 234.054 119.524 236.306 117.876C238.559 116.227 241.226 115.238 244.009 115.019C246.792 114.8 249.581 115.36 252.064 116.636C254.547 117.912 256.625 119.854 258.067 122.245C259.508 124.636 260.256 127.38 260.226 130.171V134.371C260.257 136.041 260.942 137.633 262.134 138.803C263.326 139.974 264.93 140.63 266.601 140.63C268.271 140.63 269.875 139.974 271.067 138.803C272.259 137.633 272.944 136.041 272.975 134.371V130.171C273.013 125.023 271.621 119.965 268.953 115.562C266.285 111.158 262.447 107.582 257.866 105.232C253.285 102.882 248.141 101.851 243.008 102.253C237.875 102.655 232.955 104.475 228.796 107.509C224.636 110.544 221.402 114.675 219.454 119.441C217.505 124.207 216.919 129.42 217.761 134.5L217.901 135.413C218.605 139.905 219.12 144.424 219.446 148.958H207.215C203.691 148.958 200.841 151.813 200.841 155.332C200.841 158.852 203.691 161.706 207.215 161.706H219.889C219.885 164.025 219.834 166.344 219.735 168.661C219.492 173.791 217.573 178.699 214.272 182.633C210.97 186.567 206.469 189.309 201.459 190.439C199.923 190.778 198.566 191.674 197.65 192.953C196.733 194.233 196.323 195.806 196.496 197.37C196.67 198.933 197.416 200.377 198.59 201.423C199.764 202.47 201.284 203.045 202.857 203.038H202.859ZM460.176 283.296C463.696 283.296 466.55 280.44 466.55 276.922V273.415C466.577 268.933 465.359 264.531 463.033 260.699C460.706 256.868 457.362 253.757 453.372 251.714C449.382 249.671 444.904 248.775 440.435 249.126C435.966 249.477 431.683 251.062 428.061 253.703C424.439 256.343 421.62 259.936 419.919 264.083C418.218 268.23 417.701 272.768 418.426 277.192L418.546 277.95C419.068 281.27 419.467 284.624 419.741 288.01H410.69C407.171 288.01 404.315 290.861 404.315 294.384C404.315 297.903 407.171 300.758 410.69 300.758H420.181C420.167 302.32 420.128 303.882 420.064 305.443C419.874 309.487 418.363 313.358 415.761 316.46C413.159 319.562 409.61 321.724 405.66 322.615C404.562 322.853 403.546 323.378 402.716 324.136C401.885 324.894 401.27 325.859 400.933 326.931C400.596 328.004 400.549 329.146 400.797 330.243C401.044 331.34 401.576 332.352 402.341 333.177C403.105 334 404.074 334.608 405.149 334.937C406.223 335.266 407.366 335.306 408.461 335.052C408.748 334.986 409.022 334.894 409.312 334.823C409.357 334.816 409.403 334.811 409.45 334.802C412.125 334.285 414.876 334.301 417.544 334.851C420.213 335.402 422.746 336.474 424.998 338.007C429.929 341.334 435.654 343.293 441.59 343.683C447.525 344.073 453.458 342.88 458.781 340.227L462.786 338.23C463.535 337.855 464.203 337.337 464.751 336.704C465.299 336.071 465.718 335.336 465.982 334.542C466.246 333.747 466.352 332.908 466.292 332.073C466.232 331.238 466.008 330.423 465.633 329.674C465.259 328.925 464.741 328.257 464.109 327.709C463.476 327.16 462.742 326.741 461.948 326.477C461.153 326.212 460.315 326.106 459.48 326.165C458.644 326.225 457.829 326.448 457.08 326.823L453.075 328.823C449.775 330.466 446.098 331.204 442.419 330.961C438.741 330.719 435.192 329.504 432.136 327.442C430.186 326.125 428.104 325.015 425.924 324.13C430.089 318.976 432.498 312.626 432.8 306.007C432.879 304.256 432.912 302.505 432.928 300.758H440.137C441.807 300.727 443.399 300.042 444.569 298.85C445.74 297.658 446.396 296.054 446.396 294.384C446.396 292.713 445.74 291.109 444.569 289.917C443.399 288.725 441.807 288.04 440.137 288.01H432.522C432.219 283.963 431.767 279.942 431.14 275.971L431.02 275.211C430.662 273.11 430.896 270.95 431.696 268.975C432.496 266.999 433.831 265.285 435.551 264.025C437.27 262.766 439.307 262.01 441.432 261.842C443.557 261.675 445.686 262.102 447.582 263.077C449.477 264.053 451.063 265.537 452.162 267.364C453.261 269.191 453.829 271.288 453.802 273.419V276.925C453.803 278.615 454.475 280.235 455.67 281.43C456.865 282.625 458.486 283.296 460.176 283.296Z" fill="white"/>
</svg>
