<svg width="498" height="498" viewBox="0 0 498 498" fill="none" xmlns="http://www.w3.org/2000/svg">
<path fill-rule="evenodd" clip-rule="evenodd" d="M248.999 429.344C149.65 429.344 68.601 348.347 68.601 248.999C68.601 149.651 149.651 68.601 248.999 68.601C348.347 68.601 429.344 149.65 429.344 248.999C429.344 348.348 348.348 429.344 248.999 429.344ZM248.999 413.281C339.498 413.281 413.281 339.498 413.281 248.999C413.281 158.497 339.499 84.6637 248.999 84.6637C158.496 84.6637 84.6637 158.496 84.6637 248.999C84.6637 339.499 158.497 413.281 248.999 413.281ZM248.994 395.323C168.384 395.323 102.622 329.603 102.622 248.994C102.622 168.384 168.384 102.622 248.994 102.622C329.603 102.622 395.323 168.384 395.323 248.994C395.323 329.604 329.604 395.323 248.994 395.323ZM248.994 379.261C320.755 379.261 379.261 320.755 379.261 248.994C379.261 177.23 320.756 118.685 248.994 118.685C177.23 118.685 118.685 177.23 118.685 248.994C118.685 320.756 177.23 379.261 248.994 379.261ZM231.729 249.164L289.868 190.418L289.883 190.403C300.567 179.664 318.004 179.612 328.743 190.295C339.478 200.975 339.545 218.35 328.866 229.14L328.862 229.144C302.957 255.283 277.249 281.579 251.227 307.601C240.492 318.336 223.063 318.336 212.328 307.601L169.195 264.428C158.464 253.698 158.45 236.33 169.181 225.544L169.195 225.529C179.93 214.795 197.36 214.795 208.094 225.529L231.729 249.164ZM226.079 266.231L196.737 236.887C192.273 232.424 185.027 232.422 180.56 236.88C176.098 241.374 176.086 248.603 180.553 253.071L223.687 296.243C228.152 300.709 235.404 300.709 239.869 296.243C265.873 270.24 291.563 243.962 317.449 217.841C321.891 213.352 321.879 206.124 317.414 201.682C312.955 197.245 305.712 197.27 301.274 201.728L237.467 266.201C236.722 266.953 235.837 267.55 234.861 267.959C233.884 268.368 232.837 268.58 231.779 268.583C230.721 268.585 229.673 268.379 228.694 267.976C227.716 267.572 226.828 266.979 226.079 266.231ZM240.941 8.03137C240.941 3.59906 244.54 0 248.973 0C253.405 0 257.004 3.59906 257.004 8.03137V40.4109C257.004 44.8432 253.405 48.4422 248.973 48.4422C244.54 48.4422 240.941 44.8432 240.941 40.4109V8.03137ZM362.488 36.2958C363.554 34.4518 365.308 33.1064 367.365 32.5552C369.422 32.004 371.614 32.2921 373.459 33.3563C375.303 34.4219 376.648 36.1761 377.199 38.2333C377.751 40.2905 377.463 42.4823 376.398 44.3272L360.209 72.3687C359.143 74.2127 357.389 75.5581 355.332 76.1093C353.275 76.6605 351.083 76.3723 349.238 75.3082C347.394 74.2425 346.049 72.4884 345.497 70.4313C344.946 68.3742 345.234 66.1823 346.298 64.3373L362.488 36.2958ZM453.618 121.547C455.463 120.483 457.655 120.194 459.712 120.746C461.769 121.297 463.523 122.642 464.589 124.486C465.653 126.331 465.941 128.523 465.39 130.58C464.839 132.637 463.493 134.392 461.649 135.457L433.608 151.647C431.763 152.711 429.571 152.999 427.514 152.448C425.457 151.896 423.703 150.551 422.637 148.707C421.573 146.862 421.285 144.67 421.836 142.613C422.387 140.556 423.732 138.802 425.576 137.736L453.618 121.547ZM489.914 240.941C494.346 240.941 497.945 244.54 497.945 248.973C497.945 253.405 494.346 257.004 489.914 257.004H457.534C453.102 257.004 449.503 253.405 449.503 248.973C449.503 244.54 453.102 240.941 457.534 240.941H489.914ZM461.649 362.488C463.493 363.554 464.839 365.308 465.39 367.365C465.941 369.422 465.653 371.614 464.589 373.459C463.523 375.303 461.769 376.648 459.712 377.199C457.655 377.751 455.463 377.463 453.618 376.398L425.576 360.209C423.732 359.143 422.387 357.389 421.836 355.332C421.285 353.275 421.573 351.083 422.637 349.238C423.703 347.394 425.457 346.049 427.514 345.497C429.571 344.946 431.763 345.234 433.608 346.298L461.649 362.488ZM376.398 453.618C377.463 455.463 377.751 457.655 377.199 459.712C376.648 461.769 375.303 463.523 373.459 464.589C371.614 465.653 369.422 465.941 367.365 465.39C365.308 464.839 363.554 463.493 362.488 461.649L346.298 433.608C345.234 431.763 344.946 429.571 345.497 427.514C346.049 425.457 347.394 423.703 349.238 422.637C351.083 421.573 353.275 421.285 355.332 421.836C357.389 422.387 359.143 423.732 360.209 425.576L376.398 453.618ZM257.004 489.914C257.004 494.346 253.405 497.945 248.973 497.945C244.54 497.945 240.941 494.346 240.941 489.914V457.534C240.941 453.102 244.54 449.503 248.973 449.503C253.405 449.503 257.004 453.102 257.004 457.534V489.914ZM135.457 461.649C134.392 463.493 132.637 464.839 130.58 465.39C128.523 465.941 126.331 465.653 124.486 464.589C122.642 463.523 121.297 461.769 120.746 459.712C120.194 457.655 120.483 455.463 121.547 453.618L137.736 425.576C138.802 423.732 140.556 422.387 142.613 421.836C144.67 421.285 146.862 421.573 148.707 422.637C150.551 423.703 151.896 425.457 152.448 427.514C152.999 429.571 152.711 431.763 151.647 433.608L135.457 461.649ZM44.3272 376.398C42.4823 377.463 40.2905 377.751 38.2333 377.199C36.1761 376.648 34.4219 375.303 33.3563 373.459C32.2921 371.614 32.004 369.422 32.5552 367.365C33.1064 365.308 34.4518 363.554 36.2958 362.488L64.3373 346.298C66.1823 345.234 68.3742 344.946 70.4313 345.497C72.4884 346.049 74.2425 347.394 75.3082 349.238C76.3723 351.083 76.6605 353.275 76.1093 355.332C75.5581 357.389 74.2127 359.143 72.3687 360.209L44.3272 376.398ZM8.03137 257.004C3.59906 257.004 0 253.405 0 248.973C0 244.54 3.59906 240.941 8.03137 240.941H40.4109C44.8432 240.941 48.4422 244.54 48.4422 248.973C48.4422 253.405 44.8432 257.004 40.4109 257.004H8.03137ZM36.2958 135.457C34.4518 134.392 33.1064 132.637 32.5552 130.58C32.004 128.523 32.2921 126.331 33.3563 124.486C34.4219 122.642 36.1761 121.297 38.2333 120.746C40.2905 120.194 42.4823 120.483 44.3272 121.547L72.3687 137.736C74.2127 138.802 75.5581 140.556 76.1093 142.613C76.6605 144.67 76.3723 146.862 75.3082 148.707C74.2425 150.551 72.4884 151.896 70.4313 152.448C68.3742 152.999 66.1823 152.711 64.3373 151.647L36.2958 135.457ZM121.547 44.3272C120.483 42.4823 120.194 40.2905 120.746 38.2333C121.297 36.1761 122.642 34.4219 124.486 33.3563C126.331 32.2921 128.523 32.004 130.58 32.5552C132.637 33.1064 134.392 34.4518 135.457 36.2958L151.647 64.3373C152.711 66.1823 152.999 68.3742 152.448 70.4313C151.896 72.4884 150.551 74.2425 148.707 75.3082C146.862 76.3723 144.67 76.6605 142.613 76.1093C140.556 75.5581 138.802 74.2127 137.736 72.3687L121.547 44.3272Z" fill="white"/>
</svg>
