<svg width="489" height="502" viewBox="0 0 489 502" fill="none" xmlns="http://www.w3.org/2000/svg">
<path fill-rule="evenodd" clip-rule="evenodd" d="M335.821 455.243L429.604 480.372C428.266 472.588 427.455 465.851 427.236 459.88C426.776 452.762 427.425 446.178 429.502 439.939C431.629 433.282 435.268 427.532 440.636 421.753L440.653 421.735L476.282 383.409C484.395 374.682 488.962 364.715 488.962 352.796L488.964 205.512C488.964 192.37 478.211 181.619 465.067 181.617C451.925 181.615 441.171 192.37 441.171 205.512L441.169 308.081C441.009 307.911 440.847 307.744 440.682 307.578C430.457 297.271 413.606 297.204 403.298 307.43L337.784 372.43C330.519 381.883 327.633 392.607 329.179 404.429L335.821 455.243Z" fill="#FFD6BD"/>
<path fill-rule="evenodd" clip-rule="evenodd" d="M431.968 336.393C440.83 327.593 442.128 313.94 435.832 303.727C437.596 304.814 439.225 306.107 440.684 307.579C450.924 317.9 450.864 334.729 440.536 344.961C427.772 357.607 415.141 370.357 402.433 383.064C400.068 385.429 396.198 385.429 393.834 383.064C391.468 380.699 391.469 376.829 393.834 374.464C406.514 361.783 419.167 349.104 431.968 336.393Z" fill="#F9C6AA"/>
<path fill-rule="evenodd" clip-rule="evenodd" d="M321.827 439.749L436.466 470.467C439.263 471.217 440.937 474.116 440.188 476.912L434.511 498.101C433.762 500.896 430.862 502.571 428.065 501.821L313.426 471.104C310.629 470.354 308.955 467.453 309.704 464.658L315.381 443.471C316.13 440.674 319.029 438.999 321.827 439.749Z" fill="#64B5F6"/>
<path fill-rule="evenodd" clip-rule="evenodd" d="M153.143 455.242L59.361 480.371C60.699 472.587 61.51 465.85 61.729 459.879C62.189 452.761 61.54 446.177 59.463 439.938C57.336 433.281 53.697 427.531 48.329 421.752L48.312 421.734L12.682 383.409C4.569 374.682 0.00200081 364.715 0.00200081 352.796L0 205.512C0 192.37 10.753 181.619 23.897 181.617C37.039 181.615 47.793 192.37 47.793 205.512L47.795 308.081C47.954 307.911 48.116 307.744 48.281 307.577C58.506 297.27 75.358 297.203 85.665 307.429L151.179 372.429C158.444 381.882 161.33 392.606 159.784 404.428L153.143 455.242Z" fill="#FFD6BD"/>
<path fill-rule="evenodd" clip-rule="evenodd" d="M56.9958 336.393C48.1338 327.593 46.8358 313.94 53.1318 303.727C51.3679 304.814 49.7392 306.107 48.2798 307.578C38.0398 317.899 38.0998 334.728 48.4278 344.961C61.1918 357.607 73.8228 370.357 86.5298 383.064C88.8948 385.429 92.7648 385.429 95.1298 383.064C97.4948 380.699 97.4948 376.829 95.1298 374.464C82.4498 361.783 69.7968 349.104 56.9958 336.393Z" fill="#F9C6AA"/>
<path fill-rule="evenodd" clip-rule="evenodd" d="M167.137 439.749L52.4975 470.467C49.6995 471.216 48.0265 474.116 48.7755 476.912L54.4525 498.1C55.2015 500.895 58.1015 502.571 60.8985 501.821L175.538 471.103C178.335 470.354 180.009 467.453 179.26 464.658L173.583 443.47C172.834 440.674 169.935 438.999 167.137 439.749Z" fill="#64B5F6"/>
<path fill-rule="evenodd" clip-rule="evenodd" d="M244.482 78.3555C318.757 78.3555 378.967 138.567 378.967 212.839C378.967 261.997 352.595 304.996 313.227 328.452C304.74 333.509 299.913 341.999 299.913 351.879V384.67C299.913 394.853 291.609 403.157 281.426 403.157H207.539C197.356 403.157 189.052 394.853 189.052 384.67V351.879C189.052 341.996 184.225 333.509 175.738 328.452C136.37 304.995 109.998 261.997 109.998 212.839C109.997 138.566 170.207 78.3555 244.482 78.3555Z" fill="#FFDA2D"/>
<path fill-rule="evenodd" clip-rule="evenodd" d="M281.425 375.234V410.449C281.425 425.462 269.165 437.723 254.152 437.723H234.81C219.797 437.723 207.537 425.47 207.537 410.449V387.995L281.425 375.234Z" fill="#7A8C98"/>
<path fill-rule="evenodd" clip-rule="evenodd" d="M394.749 134.231C392.918 135.273 390.75 135.549 388.717 134.999C386.683 134.45 384.95 133.118 383.894 131.295C382.838 129.473 382.546 127.306 383.081 125.269C383.615 123.232 384.934 121.488 386.749 120.419L416.953 102.981C418.783 101.939 420.952 101.663 422.985 102.213C425.018 102.762 426.752 104.094 427.808 105.917C428.863 107.739 429.156 109.906 428.621 111.943C428.086 113.98 426.768 115.724 424.953 116.793L394.749 134.231ZM335.836 69.504C334.766 71.3188 333.023 72.6374 330.986 73.1721C328.948 73.7069 326.782 73.4146 324.959 72.3588C323.137 71.3031 321.805 69.5696 321.255 67.5362C320.705 65.5028 320.982 63.3345 322.024 61.504L339.461 31.301C340.53 29.4862 342.273 28.1676 344.311 27.6329C346.348 27.0981 348.514 27.3904 350.337 28.4462C352.16 29.5019 353.491 31.2354 354.041 33.2688C354.591 35.3022 354.315 37.4705 353.273 39.301L335.836 69.504ZM102.214 120.418C104.029 121.487 105.347 123.231 105.882 125.268C106.417 127.305 106.124 129.472 105.069 131.294C104.013 133.117 102.279 134.449 100.246 134.998C98.2126 135.548 96.0443 135.272 94.2137 134.23L64.0097 116.792C62.1949 115.723 60.8764 113.979 60.3416 111.942C59.8068 109.905 60.0992 107.738 61.1549 105.916C62.2107 104.093 63.9442 102.761 65.9775 102.212C68.0109 101.662 70.1792 101.938 72.0097 102.98L102.214 120.418ZM166.941 61.504C167.983 63.3345 168.259 65.5028 167.709 67.5362C167.159 69.5696 165.828 71.3031 164.005 72.3588C162.182 73.4146 160.016 73.7069 157.979 73.1721C155.941 72.6374 154.198 71.3188 153.129 69.504L135.69 39.301C134.648 37.4705 134.371 35.3022 134.921 33.2688C135.471 31.2354 136.803 29.5019 138.625 28.4462C140.448 27.3904 142.614 27.0981 144.652 27.6329C146.689 28.1676 148.432 29.4862 149.502 31.301L166.941 61.504ZM252.482 42.877C252.482 44.9987 251.639 47.0336 250.139 48.5339C248.638 50.0341 246.603 50.877 244.482 50.877C242.36 50.877 240.325 50.0341 238.825 48.5339C237.325 47.0336 236.482 44.9987 236.482 42.877V8C236.482 5.87827 237.325 3.84344 238.825 2.34315C240.325 0.842855 242.36 0 244.482 0C246.603 0 248.638 0.842855 250.139 2.34315C251.639 3.84344 252.482 5.87827 252.482 8V42.877Z" fill="#FFDA2D"/>
<path fill-rule="evenodd" clip-rule="evenodd" d="M189.051 384.669C189.051 394.852 197.355 403.156 207.538 403.156H281.424C291.607 403.156 299.911 394.852 299.911 384.669V371.162H189.051V384.669ZM227.307 110.082H261.656V127.318C272.826 129.547 283.449 133.949 292.921 140.276L305.113 128.083L329.402 152.372L317.21 164.565C323.536 174.036 327.939 184.659 330.168 195.828H347.402V230.178H330.168C327.939 241.348 323.537 251.971 317.211 261.442L329.404 273.634L305.113 297.923L292.922 285.731C283.45 292.058 272.827 296.461 261.658 298.689V315.923H227.308V298.689C216.138 296.461 205.515 292.058 196.044 285.731L183.852 297.923L159.562 273.634L171.755 261.442C165.428 251.97 161.025 241.347 158.797 230.177H141.562V195.827H158.797C161.025 184.657 165.428 174.034 171.755 164.563L159.562 152.37L183.852 128.081L196.044 140.273C205.515 133.947 216.138 129.544 227.308 127.315V110.082H227.307Z" fill="#8D9CA8"/>
<path d="M293.67 233.711C305.071 206.548 292.294 175.285 265.131 163.884C237.968 152.482 206.705 165.259 195.304 192.422C183.902 219.585 196.679 250.848 223.842 262.25C251.005 273.651 282.268 260.874 293.67 233.711Z" fill="#EFF4F7"/>
<path fill-rule="evenodd" clip-rule="evenodd" d="M231.711 224.058H219.229C216.468 224.059 214.778 220.878 216.544 218.593L241.797 185.913C242.114 185.502 242.521 185.17 242.986 184.941C243.451 184.713 243.963 184.594 244.481 184.594C245 184.594 245.511 184.713 245.977 184.941C246.442 185.17 246.849 185.502 247.165 185.913L272.418 218.593C274.185 220.879 272.494 224.06 269.733 224.058H257.252V264.8C253.16 265.806 248.883 266.343 244.481 266.343C240.079 266.343 235.802 265.806 231.71 264.8V224.058H231.711Z" fill="#72D561"/>
</svg>
