<svg width="384" height="448" viewBox="0 0 384 448" fill="none" xmlns="http://www.w3.org/2000/svg">
<path d="M32 416H64V448L128 384L96 352L32 416Z" fill="#FA6450"/>
<path d="M96 352L32 416H48L104 360L96 352ZM80 416H64V448L80 432V416Z" fill="#DC4632"/>
<path d="M288 416H256V448L192 384L224 352L288 416Z" fill="#FA6450"/>
<path d="M208 384L232 360L224 352L192 384L256 448V432L208 384Z" fill="#DC4632"/>
<path d="M241.208 77.336C222.608 73.59 205.073 65.7557 189.872 54.4L160 32L130.136 54.4C107.979 71.0162 81.0312 79.9988 53.336 80H0V211.176C0.000730673 252.746 12.4576 293.363 35.7634 327.785C59.0693 362.208 92.1549 388.857 130.752 404.296L160 416L189.248 404.304C227.846 388.864 260.932 362.213 284.237 327.789C307.543 293.365 320 252.747 320 211.176V144C280.44 144 247.584 115.112 241.208 77.336Z" fill="#3CC8B4"/>
<path d="M162.752 404.304C124.154 388.864 91.0684 362.213 67.7626 327.789C44.4567 293.365 32.0002 252.747 32 211.176V80H0V211.176C0.000730673 252.746 12.4576 293.363 35.7634 327.785C59.0693 362.208 92.1549 388.857 130.752 404.296L160 416L176 409.6L162.752 404.304Z" fill="#1EAA96"/>
<path d="M320 128C303.026 128 286.748 121.257 274.745 109.255C262.743 97.2525 256 80.9739 256 64C256 47.0261 262.743 30.7475 274.745 18.7452C286.748 6.74284 303.026 0 320 0C336.974 0 353.252 6.74284 365.255 18.7452C377.257 30.7475 384 47.0261 384 64C384 80.9739 377.257 97.2525 365.255 109.255C353.252 121.257 336.974 128 320 128Z" fill="#FAB400"/>
<path d="M272 64C272 31.368 296.44 4.496 328 0.551998C325.347 0.201928 322.676 0.0175726 320 0C303.026 0 286.748 6.74284 274.745 18.7452C262.743 30.7475 256 47.0261 256 64C256 80.9739 262.743 97.2525 274.745 109.255C286.748 121.257 303.026 128 320 128C322.712 128 325.376 127.776 328 127.448C296.44 123.504 272 96.632 272 64Z" fill="#DC9600"/>
<path d="M352 70.4V57.6H344.76C344.163 55.2886 343.245 53.0723 342.032 51.016L347.152 45.896L338.104 36.848L332.984 41.968C330.928 40.7553 328.711 39.837 326.4 39.24V32H313.6V39.24C311.289 39.837 309.072 40.7553 307.016 41.968L301.896 36.848L292.848 45.896L297.968 51.016C296.768 53.048 295.848 55.256 295.24 57.6H288V70.4H295.24C295.848 72.744 296.768 74.952 297.968 76.984L292.848 82.104L301.896 91.152L307.016 86.032C309.048 87.232 311.256 88.152 313.6 88.76V96H326.4V88.76C328.744 88.152 330.952 87.232 332.984 86.032L338.104 91.152L347.152 82.104L342.032 76.984C343.232 74.952 344.152 72.744 344.76 70.4H352ZM320 76.8C312.944 76.8 307.2 71.056 307.2 64C307.2 56.944 312.944 51.2 320 51.2C327.056 51.2 332.8 56.944 332.8 64C332.8 71.056 327.056 76.8 320 76.8Z" fill="#F0F0F0"/>
<path d="M160 320C106.984 320 64 277.016 64 224C64 170.984 106.984 128 160 128C213.016 128 256 170.984 256 224C256 277.016 213.016 320 160 320Z" fill="#008C78"/>
<path d="M220 200L148 272L100 224L124 200L148 224L196 176L220 200Z" fill="#3CC8B4"/>
</svg>
