<svg width="504" height="504" viewBox="0 0 504 504" fill="none" xmlns="http://www.w3.org/2000/svg">
<path fill-rule="evenodd" clip-rule="evenodd" d="M380.803 388.951L299.8 304.386L309.922 294.706L390.926 379.271L380.803 388.951ZM123.853 388.266L204.856 303.7L194.734 294.02L113.73 378.585L123.852 388.265L123.853 388.266Z" fill="#A79BA7"/>
<path d="M149.658 82.2706C151.828 42.8419 121.624 9.11958 82.1952 6.94969C42.7665 4.77979 9.04414 34.984 6.87425 74.4127C4.70436 113.841 34.9086 147.564 74.3373 149.734C113.766 151.904 147.488 121.699 149.658 82.2706Z" fill="#B6DBFF"/>
<path fill-rule="evenodd" clip-rule="evenodd" d="M72.017 149.512C35.468 146.334 6.79102 115.663 6.79102 78.2894C6.79102 40.9154 35.468 10.2444 72.017 7.06641C108.567 10.2444 137.244 40.9154 137.244 78.2894C137.244 115.663 108.567 146.334 72.017 149.512Z" fill="#E3F1FF"/>
<path fill-rule="evenodd" clip-rule="evenodd" d="M78.29 85.3721C103.87 85.3721 125.071 104.094 128.953 128.581C116.026 141.62 98.102 149.698 78.29 149.698C58.478 149.698 40.554 141.62 27.627 128.58C31.509 104.093 52.71 85.3711 78.289 85.3711L78.29 85.3721Z" fill="#4EB1FC"/>
<path fill-rule="evenodd" clip-rule="evenodd" d="M118.604 137.221C107.135 145.092 93.251 149.699 78.29 149.699C58.478 149.699 40.554 141.621 27.627 128.581C30.4 111.089 42.012 96.5417 57.742 89.6557C59.4496 89.3773 61.1663 89.1572 62.889 88.9957C101.142 85.4837 116.153 115.664 118.604 137.221Z" fill="#85CAFF"/>
<path d="M78.2914 85.2078C91.7859 85.2078 102.725 74.2684 102.725 60.7738C102.725 47.2793 91.7859 36.3398 78.2914 36.3398C64.7969 36.3398 53.8574 47.2793 53.8574 60.7738C53.8574 74.2684 64.7969 85.2078 78.2914 85.2078Z" fill="#FDB0A0"/>
<path fill-rule="evenodd" clip-rule="evenodd" d="M72.1314 84.425C61.6184 81.695 53.8574 72.142 53.8574 60.775C53.8574 49.408 61.6194 39.855 72.1314 37.125C82.6434 39.855 90.4054 49.408 90.4054 60.775C90.4054 72.142 82.6434 81.695 72.1314 84.425Z" fill="#FFCEC0"/>
<path d="M425.709 149.789C465.197 149.789 497.209 117.777 497.209 78.2891C497.209 38.8007 465.197 6.78906 425.709 6.78906C386.221 6.78906 354.209 38.8007 354.209 78.2891C354.209 117.777 386.221 149.789 425.709 149.789Z" fill="#B6DBFF"/>
<path fill-rule="evenodd" clip-rule="evenodd" d="M419.437 149.512C382.888 146.334 354.211 115.663 354.211 78.2894C354.211 40.9154 382.888 10.2444 419.437 7.06641C455.987 10.2444 484.664 40.9154 484.664 78.2894C484.664 115.663 455.987 146.334 419.437 149.512Z" fill="#E3F1FF"/>
<path fill-rule="evenodd" clip-rule="evenodd" d="M425.71 85.3721C451.29 85.3721 472.491 104.094 476.373 128.581C463.446 141.62 445.522 149.698 425.71 149.698C405.898 149.698 387.974 141.62 375.047 128.58C378.929 104.093 400.131 85.3711 425.709 85.3711L425.71 85.3721Z" fill="#2DD62D"/>
<path fill-rule="evenodd" clip-rule="evenodd" d="M466.024 137.221C454.555 145.092 440.671 149.699 425.71 149.699C405.898 149.699 387.974 141.621 375.047 128.581C377.82 111.089 389.432 96.5417 405.163 89.6557C406.871 89.3773 408.587 89.1572 410.31 88.9957C448.563 85.4837 463.573 115.664 466.024 137.221Z" fill="#43F043"/>
<path d="M425.709 85.2078C439.204 85.2078 450.143 74.2684 450.143 60.7738C450.143 47.2793 439.204 36.3398 425.709 36.3398C412.215 36.3398 401.275 47.2793 401.275 60.7738C401.275 74.2684 412.215 85.2078 425.709 85.2078Z" fill="#FDB0A0"/>
<path fill-rule="evenodd" clip-rule="evenodd" d="M419.551 84.425C409.038 81.695 401.277 72.142 401.277 60.775C401.277 49.408 409.039 39.855 419.551 37.125C430.063 39.855 437.825 49.408 437.825 60.775C437.825 72.142 430.063 81.695 419.551 84.425Z" fill="#FFCEC0"/>
<path d="M425.709 497.207C465.197 497.207 497.209 465.195 497.209 425.707C497.209 386.219 465.197 354.207 425.709 354.207C386.221 354.207 354.209 386.219 354.209 425.707C354.209 465.195 386.221 497.207 425.709 497.207Z" fill="#B6DBFF"/>
<path fill-rule="evenodd" clip-rule="evenodd" d="M419.437 496.93C382.888 493.752 354.211 463.081 354.211 425.707C354.211 388.333 382.888 357.662 419.437 354.484C455.987 357.662 484.664 388.333 484.664 425.707C484.664 463.081 455.987 493.752 419.437 496.93Z" fill="#E3F1FF"/>
<path fill-rule="evenodd" clip-rule="evenodd" d="M425.71 432.794C451.29 432.794 472.491 451.516 476.373 476.003C463.446 489.042 445.522 497.12 425.71 497.12C405.898 497.12 387.974 489.042 375.047 476.002C378.929 451.515 400.131 432.793 425.709 432.793L425.71 432.794Z" fill="#4EB1FC"/>
<path fill-rule="evenodd" clip-rule="evenodd" d="M466.024 484.639C454.555 492.51 440.671 497.117 425.71 497.117C405.898 497.117 387.974 489.039 375.047 475.999C377.82 458.507 389.432 443.959 405.163 437.074C406.871 436.795 408.587 436.575 410.31 436.414C448.563 432.902 463.573 463.082 466.024 484.639Z" fill="#85CAFF"/>
<path d="M425.709 432.626C439.204 432.626 450.143 421.686 450.143 408.192C450.143 394.697 439.204 383.758 425.709 383.758C412.215 383.758 401.275 394.697 401.275 408.192C401.275 421.686 412.215 432.626 425.709 432.626Z" fill="#FDB0A0"/>
<path fill-rule="evenodd" clip-rule="evenodd" d="M419.551 431.843C409.038 429.113 401.277 419.56 401.277 408.193C401.277 396.826 409.039 387.273 419.551 384.543C430.063 387.273 437.825 396.826 437.825 408.193C437.825 419.56 430.063 429.113 419.551 431.843Z" fill="#FFCEC0"/>
<path d="M149.611 430.092C152.063 390.679 122.101 356.742 82.6887 354.29C43.2765 351.838 9.33895 381.8 6.88697 421.212C4.43499 460.624 34.3971 494.562 73.8093 497.014C113.221 499.466 147.159 469.504 149.611 430.092Z" fill="#B6DBFF"/>
<path fill-rule="evenodd" clip-rule="evenodd" d="M72.017 496.93C35.468 493.752 6.79102 463.081 6.79102 425.707C6.79102 388.333 35.468 357.662 72.017 354.484C108.567 357.662 137.244 388.333 137.244 425.707C137.244 463.081 108.567 493.752 72.017 496.93Z" fill="#E3F1FF"/>
<path fill-rule="evenodd" clip-rule="evenodd" d="M78.29 432.794C103.87 432.794 125.071 451.516 128.953 476.003C116.026 489.042 98.102 497.12 78.29 497.12C58.478 497.12 40.554 489.042 27.627 476.002C31.509 451.515 52.71 432.793 78.289 432.793L78.29 432.794Z" fill="#2DD62D"/>
<path fill-rule="evenodd" clip-rule="evenodd" d="M118.604 484.639C107.135 492.51 93.251 497.117 78.29 497.117C58.478 497.117 40.554 489.039 27.627 475.999C30.4 458.507 42.012 443.959 57.742 437.074C59.4496 436.795 61.1663 436.575 62.889 436.414C101.142 432.902 116.153 463.082 118.604 484.639Z" fill="#43F043"/>
<path d="M78.2914 432.626C91.7859 432.626 102.725 421.686 102.725 408.192C102.725 394.697 91.7859 383.758 78.2914 383.758C64.7969 383.758 53.8574 394.697 53.8574 408.192C53.8574 421.686 64.7969 432.626 78.2914 432.626Z" fill="#FDB0A0"/>
<path fill-rule="evenodd" clip-rule="evenodd" d="M72.1314 431.843C61.6184 429.113 53.8574 419.56 53.8574 408.193C53.8574 396.826 61.6194 387.273 72.1314 384.543C82.6434 387.273 90.4054 396.826 90.4054 408.193C90.4054 419.56 82.6434 429.113 72.1314 431.843Z" fill="#FFCEC0"/>
<path fill-rule="evenodd" clip-rule="evenodd" d="M310.05 48.5524C308.628 48.5507 307.24 48.117 306.07 47.3087C304.9 46.5005 304.003 45.3558 303.499 44.0264C302.846 42.2895 302.908 40.3647 303.671 38.6735C304.435 36.9823 305.837 35.6626 307.572 35.0034L316.253 31.7164C295.474 25.6624 273.914 22.6014 252.002 22.6014C226.841 22.6014 202.11 26.6454 178.501 34.6274C176.742 35.2197 174.819 35.09 173.156 34.2668C171.492 33.4436 170.223 31.9942 169.627 30.2364C169.332 29.3654 169.212 28.4449 169.273 27.5276C169.335 26.6102 169.576 25.7139 169.984 24.8898C170.392 24.0657 170.958 23.3301 171.65 22.7248C172.342 22.1196 173.147 21.6566 174.018 21.3624C199.073 12.8934 225.308 8.59939 252.001 8.59939C275.181 8.59939 297.999 11.8334 320.012 18.2294L315.149 10.8454C313.033 7.61639 313.92 3.27739 317.149 1.15239C318.701 0.131897 320.595 -0.230674 322.414 0.144338C324.233 0.51935 325.83 1.60127 326.852 3.15239L342.859 27.4984C343.433 28.3758 343.804 29.3705 343.944 30.4097C344.084 31.4489 343.99 32.5062 343.669 33.5044C343.344 34.5012 342.8 35.4126 342.077 36.1716C341.354 36.9306 340.47 37.5179 339.49 37.8904L312.532 48.0944C311.739 48.3959 310.898 48.5511 310.05 48.5524ZM27.9947 334.742C26.5308 334.742 25.104 334.283 23.9145 333.429C22.725 332.576 21.8326 331.372 21.3627 329.985C12.8937 304.926 8.5997 278.69 8.5997 252.002C8.5997 228.818 11.8337 206 18.2297 183.996L10.8457 188.85C7.6167 190.971 3.2777 190.074 1.1527 186.845C-0.9723 183.616 -0.0762999 179.273 3.1577 177.152L27.4987 161.144C28.3752 160.569 29.3698 160.197 30.409 160.058C31.4483 159.918 32.5056 160.013 33.5031 160.336C34.5006 160.66 35.4127 161.203 36.1721 161.926C36.9315 162.65 37.5188 163.534 37.8907 164.514L48.0947 191.473C49.4637 195.088 47.6417 199.132 44.0267 200.496C43.1671 200.822 42.2519 200.975 41.3332 200.946C40.4146 200.918 39.5105 200.709 38.6726 200.331C37.8347 199.954 37.0794 199.415 36.4499 198.745C35.8204 198.075 35.329 197.288 35.0037 196.428L31.7167 187.752C25.6627 208.536 22.6017 230.091 22.6017 252.003C22.6017 277.164 26.6457 301.891 34.6277 325.504C34.9221 326.375 35.0421 327.295 34.9807 328.212C34.9194 329.129 34.6779 330.025 34.2701 330.849C33.8623 331.672 33.2962 332.408 32.6041 333.012C31.9121 333.617 31.1076 334.08 30.2367 334.373C29.5149 334.618 28.7579 334.744 27.9957 334.744L27.9947 334.742ZM472.663 344.006C471.929 344.008 471.2 343.893 470.503 343.664C469.504 343.342 468.591 342.799 467.831 342.076C467.07 341.352 466.483 340.467 466.112 339.485L455.913 312.532C455.586 311.673 455.432 310.758 455.46 309.839C455.487 308.921 455.695 308.016 456.072 307.178C456.449 306.34 456.987 305.584 457.656 304.953C458.325 304.323 459.111 303.831 459.971 303.504C461.707 302.847 463.634 302.906 465.327 303.669C467.02 304.432 468.341 305.836 468.999 307.572L472.281 316.253C478.34 295.469 481.401 273.909 481.401 252.002C481.401 226.837 477.352 202.11 469.38 178.501C469.084 177.63 468.963 176.71 469.024 175.792C469.085 174.874 469.326 173.978 469.734 173.154C470.142 172.329 470.709 171.593 471.401 170.988C472.094 170.383 472.899 169.921 473.771 169.627C477.42 168.388 481.401 170.355 482.64 174.018C491.109 199.073 495.404 225.313 495.404 252.001C495.404 275.181 492.17 297.999 485.774 320.007L493.153 315.153C496.383 313.027 500.72 313.924 502.851 317.153C503.87 318.705 504.232 320.598 503.857 322.416C503.482 324.234 502.401 325.83 500.851 326.851L476.5 342.853C475.362 343.607 474.027 344.007 472.663 344.005V344.006ZM183.007 503.998C181.846 504 180.702 503.713 179.68 503.163C178.658 502.613 177.788 501.817 177.151 500.846L161.144 476.505C160.568 475.629 160.196 474.634 160.056 473.594C159.916 472.555 160.011 471.497 160.334 470.499C160.656 469.501 161.2 468.587 161.924 467.828C162.649 467.069 163.535 466.482 164.518 466.113L191.472 455.904C195.082 454.535 199.126 456.357 200.495 459.972C200.821 460.832 200.974 461.748 200.947 462.667C200.919 463.586 200.71 464.491 200.332 465.33C199.954 466.168 199.415 466.924 198.745 467.554C198.075 468.184 197.287 468.675 196.427 469L187.751 472.287C208.535 478.341 230.095 481.402 252.002 481.402C277.163 481.402 301.89 477.358 325.503 469.376C326.373 469.082 327.294 468.962 328.211 469.023C329.128 469.084 330.024 469.325 330.848 469.733C331.671 470.141 332.406 470.707 333.011 471.4C333.616 472.092 334.078 472.896 334.372 473.767C334.667 474.638 334.787 475.559 334.726 476.477C334.665 477.394 334.424 478.291 334.016 479.115C333.608 479.939 333.042 480.675 332.35 481.28C331.657 481.885 330.852 482.348 329.981 482.641C304.931 491.11 278.691 495.4 252.002 495.4C228.823 495.4 206.005 492.166 183.996 485.774L188.85 493.153C189.544 494.208 189.939 495.431 189.994 496.693C190.05 497.954 189.763 499.207 189.164 500.319C188.565 501.43 187.677 502.359 186.593 503.007C185.509 503.655 184.27 503.997 183.008 503.998H183.007Z" fill="#A79BA7"/>
<path fill-rule="evenodd" clip-rule="evenodd" d="M252.002 233.928H214.794C209.672 233.928 205.263 232.102 201.641 228.48L175.33 202.168C173.216 200.054 171.827 197.821 170.867 194.99L152.345 140.377C145.488 120.846 118.234 126.309 125.103 151.945L138.463 207.855C139.928 213.985 142.746 218.821 146.969 223.499L180.777 265.971C185.444 271.141 187.748 277.133 187.748 284.098V361.771C187.748 366.894 191.926 371.071 197.048 371.071H306.956C312.079 371.071 316.256 366.893 316.256 361.771V284.098C316.256 277.133 318.56 271.141 323.227 265.971L357.035 223.499C361.258 218.821 364.077 213.984 365.541 207.855L378.901 151.945C385.77 126.308 358.516 120.846 351.659 140.377L333.137 194.99C332.177 197.821 330.789 200.054 328.675 202.168L302.363 228.48C298.741 232.102 294.333 233.928 289.21 233.928H252.002Z" fill="#FCDB35"/>
<path fill-rule="evenodd" clip-rule="evenodd" d="M252.001 233.926H202.315C197.193 233.926 192.784 232.1 189.162 228.478L162.851 202.167C160.738 200.053 159.348 197.82 158.389 194.989L139.867 140.376C138.09 135.314 134.942 131.936 131.374 130.148C125.736 133.151 122.051 140.555 125.103 151.945L138.463 207.855C139.928 213.985 142.746 218.821 146.969 223.5L180.777 265.972C185.444 271.143 187.748 277.134 187.748 284.099V361.773C187.748 366.895 191.926 371.073 197.048 371.073H294.477C299.599 371.073 303.777 366.895 303.777 361.773V284.099C303.777 277.134 306.081 271.142 310.748 265.972L344.556 223.5C348.779 218.822 351.598 213.985 353.062 207.855L366.422 151.945C369.474 140.555 365.788 133.152 360.151 130.148C356.583 131.936 353.435 135.315 351.658 140.376L333.136 194.989C332.176 197.82 330.787 200.053 328.673 202.167L302.361 228.478C298.739 232.1 294.33 233.926 289.208 233.926H252H252.001Z" fill="#FFEB87"/>
<path fill-rule="evenodd" clip-rule="evenodd" d="M223.883 202.414C207.369 178.489 212.446 137.348 252.002 137.348C290.9 137.348 296.456 177.134 280.926 201.208C266.274 223.92 239.403 224.898 223.884 202.414H223.883Z" fill="#E6D6D1"/>
<path fill-rule="evenodd" clip-rule="evenodd" d="M223.883 202.413C208.47 180.083 211.871 142.76 244.554 137.883C276.66 142.67 280.514 178.763 266.035 201.206C260.278 210.131 252.634 215.698 244.533 217.806C236.893 215.815 229.614 210.715 223.883 202.413Z" fill="#F0E3DF"/>
</svg>
