<svg width="335" height="513" viewBox="0 0 335 513" fill="none" xmlns="http://www.w3.org/2000/svg">
<path fill-rule="evenodd" clip-rule="evenodd" d="M302.542 512.047H31.7371C14.238 512.047 0 497.809 0 480.31V351.244C0 315.817 28.8241 286.987 64.2573 286.987C149.476 286.987 143.521 280.347 143.521 311.833C143.521 327.112 163.366 323.479 179.122 323.479C201.649 323.479 180.055 286.983 200.821 286.983H270.022C305.449 286.983 334.279 315.811 334.279 351.238V480.304C334.288 497.803 320.041 512.044 302.545 512.044L302.542 512.047Z" fill="#4682BF"/>
<path fill-rule="evenodd" clip-rule="evenodd" d="M72.2021 512.047H52.084V384.931C52.084 371.689 72.2021 371.701 72.2021 384.931V512.047ZM282.197 512.047H262.079V384.931C262.079 371.689 282.197 371.701 282.197 384.931V512.047Z" fill="#6A9ACB"/>
<path fill-rule="evenodd" clip-rule="evenodd" d="M123.385 268.586H210.913V311.828C210.913 329.372 196.558 343.727 179.011 343.727H155.284C137.74 343.727 123.385 329.372 123.385 311.828V268.586Z" fill="#FFB091"/>
<path fill-rule="evenodd" clip-rule="evenodd" d="M246.307 167.523C238.924 167.523 233.908 159.633 237.358 152.88L251.107 139.022L209.962 97.5833C204.973 92.5553 196.468 94.1513 193.621 100.601C182.458 125.849 170.569 128.189 170.806 128.189C165.796 128.507 154.56 102.068 143.145 115.964C131.157 130.547 118.353 137.444 114.09 139.469C108.909 140.636 98.3073 138.509 90.0962 139.403C95.0252 147.885 98.3643 146.636 98.0252 157.755C97.6352 170.643 77.5022 170.622 77.9132 157.149C78.5192 137.219 48.828 118.727 57.6691 93.5153C68.9791 61.2382 102.363 24.926 159.426 28.265C175.138 28.25 243.778 26.393 246.781 73.4302C276.649 78.4402 279.892 113.846 276.121 121.235L255.28 162.036C254.436 163.688 253.152 165.076 251.57 166.045C249.988 167.014 248.168 167.528 246.313 167.529L246.307 167.523Z" fill="#4D4D4D"/>
<path fill-rule="evenodd" clip-rule="evenodd" d="M167.14 284.657C117.937 284.657 77.9141 244.625 77.9141 195.425V138.524C77.9141 122.339 103.909 130.52 113.041 128.462C117.304 126.437 130.108 119.54 142.096 104.957C153.511 91.0605 164.746 117.497 169.756 117.182C169.516 117.182 181.408 114.842 192.572 89.5935C195.422 83.1435 203.924 81.5505 208.913 86.5755L253.454 131.438C255.331 133.32 256.384 135.871 256.382 138.53C256.382 186.323 263.21 225.431 230.177 258.449C213.275 275.342 190.883 284.654 167.137 284.654L167.14 284.657Z" fill="#FFC3A1"/>
<path fill-rule="evenodd" clip-rule="evenodd" d="M167.14 242.166C136.063 242.166 145.063 223.014 154.081 227.394C173.131 236.646 183.433 220.329 188.209 230.172C192.946 239.934 173.074 242.166 167.137 242.166H167.14ZM142.969 165.384C139.393 165.384 131.776 158.313 123.385 164.271C116.968 168.825 110.023 159.057 116.428 154.5C129.718 145.044 154.252 152.478 148.087 162.522C147.55 163.397 146.797 164.12 145.901 164.621C145.005 165.122 143.996 165.385 142.969 165.384ZM214.372 165.384C210.793 165.384 203.164 158.313 194.788 164.271C188.38 168.828 181.42 159.06 187.831 154.5C201.127 145.038 225.658 152.484 219.49 162.522C218.953 163.396 218.2 164.119 217.304 164.62C216.408 165.121 215.399 165.384 214.372 165.384Z" fill="#FF9E83"/>
<path fill-rule="evenodd" clip-rule="evenodd" d="M289.817 121.878C286.504 121.878 283.819 119.19 283.819 115.881V82.9893C283.819 43.8452 251.971 11.994 212.824 11.994H121.465C82.3177 11.994 50.4696 43.8422 50.4696 82.9893V109.638C58.0056 115.743 46.3776 124.197 40.4705 118.887C39.2045 117.75 38.4785 116.127 38.4785 114.423V82.9893C38.4785 37.2271 75.7057 0 121.468 0H212.824C258.586 0 295.82 37.2271 295.82 82.9893V115.881C295.814 119.196 293.126 121.878 289.814 121.878H289.817Z" fill="#4A5254"/>
<path fill-rule="evenodd" clip-rule="evenodd" d="M86.6587 200.192H46.6926C32.0105 200.192 20.0645 188.246 20.0645 173.564V134.933C20.0645 120.251 32.0075 108.305 46.6926 108.305H86.6587C89.9707 108.305 92.6557 110.993 92.6557 114.302V194.189C92.6557 197.51 89.9737 200.192 86.6587 200.192Z" fill="#D7D7D7"/>
<path fill-rule="evenodd" clip-rule="evenodd" d="M216.913 218.785C213.532 218.785 207.232 219.13 207.286 212.728C207.313 209.422 209.995 206.767 213.334 206.776C226.324 206.866 253.138 206.338 264.979 206.08C264.979 199.162 263.311 189.652 270.976 189.652C279.211 189.652 276.973 201.391 276.973 211.945C276.973 215.203 274.375 217.864 271.117 217.939C270.745 217.948 235.501 218.785 216.91 218.785H216.913Z" fill="#B3B3B3"/>
<path fill-rule="evenodd" clip-rule="evenodd" d="M287.587 201.647H247.618C244.306 201.647 241.621 198.959 241.621 195.65V115.763C241.621 112.451 244.312 109.766 247.618 109.766H287.587C302.266 109.766 314.215 121.709 314.215 136.394V175.025C314.215 189.701 302.266 201.647 287.587 201.647Z" fill="#D7D7D7"/>
<path fill-rule="evenodd" clip-rule="evenodd" d="M203.638 228.422C183.043 228.422 183.043 197.129 203.638 197.129C224.239 197.129 224.239 228.422 203.638 228.422Z" fill="#4A5254"/>
</svg>
