<svg width="512" height="505" viewBox="0 0 512 505" fill="none" xmlns="http://www.w3.org/2000/svg">
<path d="M376.188 1.91406H368.27L346.281 10.8491L318.104 29.1171L301.288 61.5931L295.537 87.6411L315.919 139.315L341.037 167.224L356.514 178.641V192.416H387.552L394.374 187.923C394.374 176.417 400.064 165.761 409.378 159.004C431.436 143.003 445.849 117.033 445.849 87.8571C445.849 45.7711 415.855 10.3531 376.188 1.91406Z" fill="#FFE02F"/>
<path d="M502.196 307.512C492.248 286.738 469.351 296.558 467.429 297.277L374.268 324.838C372.532 325.352 370.816 323.922 371.049 322.126C371.845 315.998 371.237 304.234 356.722 298.441C300.871 276.145 294.21 272.374 280.076 272.15L280.074 272.148C255.438 272.23 242.177 272.38 231.402 274.237L219.254 280.127L211.389 313.871L214.18 341.78L233.209 372.226L254.568 379.672C264.018 379.682 273.077 381.202 281.172 384.432L317.215 398.821C325.093 401.537 343.192 405.764 361.973 396.138L361.989 396.131L487.816 340.473C491.623 338.52 510.78 327.027 502.196 307.512Z" fill="#FFCEBE"/>
<path d="M216.813 317.19C216.813 301.025 222.259 286.138 231.4 274.238C223.065 275.674 216.218 278.132 206.746 282.371C195.431 287.441 184.629 293.586 174.488 300.72C169.262 304.4 163.561 307.355 157.541 309.504L155.484 317.509L187.96 391.595L196.675 394.831L222.79 384.916C233.364 381.47 244.2 379.662 254.564 379.674C232.123 367.856 216.813 344.317 216.813 317.19Z" fill="#FFB1A0"/>
<path d="M178.404 377.554L182.89 370.704V364.771L155.01 303.984C152.071 297.577 144.495 294.765 138.088 297.704L102.55 314.003L98.9902 324.8L132.656 397.136L178.404 377.554Z" fill="#DBEDFF"/>
<path d="M202.068 406.586L182.891 364.773C181.941 369.082 179.069 372.913 174.75 374.894L134.184 393.5L129.947 391.315L150.073 434.558L160.25 439.807L195.787 423.508C202.194 420.57 205.006 412.993 202.068 406.586Z" fill="#B5DCFF"/>
<path d="M358 187.923C358 176.417 352.31 165.761 342.996 159.004C320.939 143.003 306.525 117.033 306.525 87.857C306.525 45.77 336.519 10.352 376.186 1.913C370.204 0.640259 364.105 -0.000922619 357.99 9.96412e-07C309.668 9.96412e-07 270.133 39.536 270.133 87.857C270.133 117.032 284.547 143.003 306.604 159.004C315.918 165.76 321.608 176.416 321.608 187.923L324.799 192.416H361.192L358 187.923Z" fill="#FBC700"/>
<path d="M384.69 80.8328L357.99 109.561L331.29 80.8328C330.61 80.1004 329.792 79.5092 328.883 79.093C327.974 78.6769 326.992 78.4439 325.993 78.4074C324.994 78.3709 323.998 78.5316 323.061 78.8803C322.124 79.2291 321.265 79.759 320.533 80.4398C319.801 81.1202 319.21 81.9381 318.794 82.8469C318.378 83.7557 318.145 84.7376 318.109 85.7364C318.072 86.7352 318.233 87.7314 318.581 88.6681C318.93 89.6049 319.46 90.4638 320.14 91.1958L350.379 123.732V198.769C350.379 200.788 351.181 202.724 352.609 204.151C354.036 205.579 355.972 206.381 357.991 206.381C360.01 206.381 361.946 205.579 363.374 204.151C364.801 202.724 365.603 200.788 365.603 198.769V123.732L395.842 91.1958C397.2 89.7141 397.916 87.7557 397.836 85.7477C397.755 83.7397 396.884 81.8451 395.411 80.4771C393.939 79.1091 391.986 78.3788 389.977 78.4454C387.969 78.512 386.068 79.3702 384.69 80.8328Z" fill="#EAB900"/>
<path d="M479.06 71.9812C479.871 71.9812 480.695 71.8502 481.505 71.5762L506.83 62.9882C507.777 62.6672 508.651 62.1629 509.402 61.5041C510.154 60.8452 510.769 60.0448 511.211 59.1485C511.653 58.2522 511.915 57.2775 511.98 56.2802C512.046 55.2828 511.915 54.2823 511.594 53.3357C511.273 52.3891 510.768 51.5151 510.109 50.7634C509.451 50.0117 508.65 49.3972 507.754 48.9549C506.858 48.5125 505.883 48.2511 504.886 48.1854C503.888 48.1198 502.888 48.2512 501.941 48.5722L476.616 57.1602C474.905 57.7372 473.455 58.9039 472.525 60.4517C471.595 61.9996 471.245 63.8277 471.539 65.6094C471.833 67.3911 472.751 69.0103 474.129 70.1775C475.506 71.3448 477.254 71.9841 479.06 71.9812ZM506.83 103.791L481.505 95.2022C480.559 94.8812 479.558 94.7498 478.561 94.8154C477.563 94.8811 476.589 95.1425 475.692 95.5849C474.796 96.0272 473.996 96.6417 473.337 97.3934C472.678 98.1451 472.174 99.0191 471.853 99.9657C471.532 100.912 471.4 101.913 471.466 102.91C471.531 103.908 471.793 104.882 472.235 105.779C472.678 106.675 473.292 107.475 474.044 108.134C474.795 108.793 475.67 109.297 476.616 109.618L501.941 118.207C502.751 118.482 503.576 118.612 504.386 118.612C505.977 118.611 507.527 118.112 508.82 117.185C510.113 116.258 511.082 114.95 511.593 113.443C511.914 112.497 512.046 111.496 511.98 110.499C511.915 109.502 511.653 108.527 511.211 107.631C510.769 106.734 510.154 105.934 509.402 105.275C508.651 104.616 507.777 104.112 506.83 103.791ZM239.365 57.1592L214.04 48.5712C212.128 47.9229 210.038 48.0605 208.227 48.9539C206.417 49.8472 205.036 51.423 204.388 53.3347C203.739 55.2464 203.877 57.3373 204.77 59.1475C205.664 60.9577 207.239 62.3389 209.151 62.9872L234.476 71.5752C235.264 71.8432 236.09 71.98 236.922 71.9802C238.728 71.9829 240.476 71.3434 241.853 70.176C243.231 69.0087 244.148 67.3895 244.442 65.6079C244.736 63.8263 244.386 61.9983 243.456 60.4505C242.526 58.9028 241.076 57.7362 239.365 57.1592ZM234.476 95.2022L209.151 103.791C207.26 104.456 205.707 105.839 204.83 107.641C203.953 109.443 203.821 111.519 204.465 113.417C205.109 115.315 206.475 116.883 208.267 117.78C210.06 118.677 212.134 118.831 214.039 118.208L239.364 109.619C241.255 108.955 242.808 107.571 243.685 105.769C244.563 103.967 244.694 101.892 244.05 99.9933C243.407 98.095 242.04 96.5272 240.248 95.6302C238.455 94.7332 236.381 94.5794 234.476 95.2022Z" fill="#FFE02F"/>
<path d="M384.827 329.941L387.55 320.91L374.266 324.84C373.925 324.941 373.566 324.968 373.213 324.921C372.86 324.873 372.521 324.751 372.219 324.563C371.917 324.375 371.658 324.125 371.459 323.83C371.26 323.535 371.126 323.2 371.065 322.85L370.262 325.512C369.341 328.393 366.27 334.868 357.716 332.773C341.139 328.712 294.405 317.514 293.935 317.401C291.982 316.956 289.931 317.3 288.229 318.357C286.527 319.415 285.311 321.101 284.844 323.049C284.377 324.998 284.698 327.052 285.736 328.766C286.773 330.48 288.445 331.715 290.388 332.205C290.858 332.317 337.554 343.505 354.093 347.557C356.52 348.152 358.812 348.422 360.968 348.422C374.325 348.423 382.435 338.036 384.827 329.941Z" fill="#FFB1A0"/>
<path d="M48.4162 439.807L57.5502 438.002L135.054 402.29L138.634 398.297L138.372 392.106L96.0052 299.734C93.3372 293.915 86.4562 291.362 80.6382 294.031L6.76119 327.915C0.943191 330.583 -1.61081 337.464 1.05819 343.282L43.6742 436.197L48.4162 439.807Z" fill="#BF7FE3"/>
<path d="M166.794 454.077L138.371 392.105C137.912 396.15 135.422 399.864 131.451 401.686L54.8598 436.814C53.0857 437.629 51.1396 437.999 49.1903 437.891C47.241 437.783 45.3474 437.202 43.6738 436.196L71.8478 497.624C74.5158 503.442 81.3968 505.996 87.2148 503.327L161.091 469.444C166.91 466.775 169.463 459.895 166.794 454.077Z" fill="#B166DB"/>
<path d="M363.712 187.586L361.842 192.086V233.611L373.682 250.777H379.049C388.319 244.183 394.373 233.361 394.373 221.118V187.922C394.373 187.809 394.382 187.699 394.383 187.586H363.712Z" fill="#DBEDFF"/>
<path d="M363.727 221.118V187.922C363.727 187.809 363.718 187.699 363.717 187.586H321.6C321.601 187.698 321.61 187.809 321.61 187.922V221.118C321.61 241.212 337.899 257.5 357.992 257.5C365.54 257.509 372.903 255.158 379.051 250.777C369.781 244.183 363.727 233.361 363.727 221.118Z" fill="#B5DCFF"/>
</svg>
