<svg width="512" height="508" viewBox="0 0 512 508" fill="none" xmlns="http://www.w3.org/2000/svg">
<path d="M305.492 146.138L291.843 135.896L337.921 77.8717C344.746 70.1885 346.454 59.0962 342.188 49.7095C337.067 35.205 320.854 28.3762 306.346 33.4962L301.226 35.205L295.254 18.9874L300.374 17.2829C323.412 7.89619 349.867 19.8418 358.4 42.8829C364.375 58.2418 361.813 75.3085 351.575 88.1085L305.492 146.138ZM161.281 200.751L94.721 193.071C69.121 190.51 50.3477 166.617 52.9098 141.017C54.6133 123.097 66.5588 108.588 82.7764 101.764L90.4554 98.3506L96.4255 114.564L88.7466 117.976C73.3887 123.951 65.7098 141.872 71.6799 157.23C75.9466 167.472 85.3343 175.151 96.4266 176.005L162.989 183.685L161.281 200.751Z" fill="#E8821C"/>
<path d="M225.28 212.695L192 209.283C153.6 205.87 120.32 181.121 105.813 144.43L83.623 88.1075C80.2108 79.5741 84.4774 69.3363 93.0108 65.9198H93.8662L273.92 1.07068C282.453 -2.34585 292.691 2.77521 296.108 11.3085L314.879 67.6286C325.975 101.762 319.145 139.309 295.254 166.616L272.212 193.07L363.521 432.003H397.654C404.479 432.003 411.307 436.27 413.012 443.096L418.133 455.896L292.691 505.386L287.575 492.586C285.012 485.761 286.721 478.936 291.842 473.815L316.587 449.92L225.28 212.695Z" fill="#F4A422"/>
<path d="M261.976 155.52L250.025 143.575C287.576 106.028 249.176 43.7372 249.176 42.8828L263.679 33.4961C265.388 36.9084 308.909 108.586 261.976 155.52Z" fill="#EDC17C"/>
<path d="M413.014 443.951C410.454 437.122 404.481 432.855 397.654 432.855H363.521L316.587 451.63L291.843 475.522C286.722 480.642 285.013 487.472 287.576 494.297L292.692 507.097L418.134 457.605L413.014 443.951Z" fill="#E8821C"/>
<path d="M395.947 339.841L347.309 209.282C343.891 200.749 334.509 195.629 325.121 199.041H324.267L230.4 240.003C225.28 242.561 221.867 246.828 220.158 251.95L213.333 286.083L0 371.417V490.883L247.467 388.483L310.613 396.161C314.025 396.161 317.442 396.161 320 394.454L387.413 361.174C395.091 356.907 398.509 348.375 395.947 339.841Z" fill="#EFCCBF"/>
<path d="M213.333 286.082L128 320.215L162.133 423.469L247.467 388.482L213.333 286.082Z" fill="#676B7F"/>
<path d="M426.667 38.6154C426.667 66.7743 403.625 89.8154 375.467 89.8154C403.625 89.8154 426.667 112.853 426.667 141.015C426.667 112.853 449.709 89.8154 477.867 89.8154C449.709 89.8154 426.667 66.7743 426.667 38.6154ZM51.2 209.282C51.2 237.441 28.1579 260.482 0 260.482C28.1579 260.482 51.2 283.52 51.2 311.682C51.2 283.52 74.2421 260.482 102.4 260.482C74.2421 260.482 51.2 237.441 51.2 209.282ZM460.8 209.282C460.8 237.441 437.758 260.482 409.6 260.482C437.758 260.482 460.8 283.52 460.8 311.682C460.8 283.52 483.842 260.482 512 260.482C483.842 260.482 460.8 237.441 460.8 209.282Z" fill="#F4C167"/>
<path d="M162.133 423.47L0 490.883V371.416L128 320.216L162.133 423.47ZM180.053 382.507L195.413 377.386L170.667 303.148L155.309 309.12L180.053 382.507Z" fill="#4A4A56"/>
<path d="M354.134 227.203L304.643 244.27L309.758 259.628L360.109 243.415L354.134 227.203ZM370.347 270.719L321.709 286.936L326.825 302.294L376.322 286.082L370.347 270.719ZM385.709 313.386L338.776 329.603L343.892 344.961L391.679 329.603L385.709 313.386Z" fill="#D8B4AD"/>
<path d="M305.492 146.138L291.843 135.896L337.921 77.8717C344.746 70.1885 346.454 59.0962 342.188 49.7095C337.067 35.205 320.854 28.3762 306.346 33.4962L301.226 35.205L295.254 18.9874L300.374 17.2829C323.412 7.89619 349.867 19.8418 358.4 42.8829C364.375 58.2418 361.813 75.3085 351.575 88.1085L305.492 146.138ZM161.281 200.751L94.721 193.071C69.121 190.51 50.3477 166.617 52.9098 141.017C54.6133 123.097 66.5588 108.588 82.7764 101.764L90.4554 98.3506L96.4255 114.564L88.7466 117.976C73.3887 123.951 65.7098 141.872 71.6799 157.23C75.9466 167.472 85.3343 175.151 96.4266 176.005L162.989 183.685L161.281 200.751Z" fill="#E8821C"/>
<path d="M225.28 212.695L192 209.283C153.6 205.87 120.32 181.121 105.813 144.43L83.623 88.1075C80.2108 79.5741 84.4774 69.3363 93.0108 65.9198H93.8662L273.92 1.07068C282.453 -2.34585 292.691 2.77521 296.108 11.3085L314.879 67.6286C325.975 101.762 319.145 139.309 295.254 166.616L272.212 193.07L363.521 432.003H397.654C404.479 432.003 411.307 436.27 413.012 443.096L418.133 455.896L292.691 505.386L287.575 492.586C285.012 485.761 286.721 478.936 291.842 473.815L316.587 449.92L225.28 212.695Z" fill="#F4A422"/>
<path d="M261.976 155.52L250.025 143.575C287.576 106.028 249.176 43.7372 249.176 42.8828L263.679 33.4961C265.388 36.9084 308.909 108.586 261.976 155.52Z" fill="#EDC17C"/>
<path d="M413.014 443.951C410.454 437.122 404.481 432.855 397.654 432.855H363.521L316.587 451.63L291.843 475.522C286.722 480.642 285.013 487.472 287.576 494.297L292.692 507.097L418.134 457.605L413.014 443.951Z" fill="#E8821C"/>
<path d="M395.947 339.841L347.309 209.282C343.891 200.749 334.509 195.629 325.121 199.041H324.267L230.4 240.003C225.28 242.561 221.867 246.828 220.158 251.95L213.333 286.083L0 371.417V490.883L247.467 388.483L310.613 396.161C314.025 396.161 317.442 396.161 320 394.454L387.413 361.174C395.091 356.907 398.509 348.375 395.947 339.841Z" fill="#EFCCBF"/>
<path d="M213.333 286.082L128 320.215L162.133 423.469L247.467 388.482L213.333 286.082Z" fill="#676B7F"/>
<path d="M426.667 38.6154C426.667 66.7743 403.625 89.8154 375.467 89.8154C403.625 89.8154 426.667 112.853 426.667 141.015C426.667 112.853 449.709 89.8154 477.867 89.8154C449.709 89.8154 426.667 66.7743 426.667 38.6154ZM51.2 209.282C51.2 237.441 28.1579 260.482 0 260.482C28.1579 260.482 51.2 283.52 51.2 311.682C51.2 283.52 74.2421 260.482 102.4 260.482C74.2421 260.482 51.2 237.441 51.2 209.282ZM460.8 209.282C460.8 237.441 437.758 260.482 409.6 260.482C437.758 260.482 460.8 283.52 460.8 311.682C460.8 283.52 483.842 260.482 512 260.482C483.842 260.482 460.8 237.441 460.8 209.282Z" fill="#F4C167"/>
<path d="M162.133 423.47L0 490.883V371.416L128 320.216L162.133 423.47ZM180.053 382.507L195.413 377.386L170.667 303.148L155.309 309.12L180.053 382.507Z" fill="#4A4A56"/>
<path d="M354.134 227.203L304.643 244.27L309.758 259.628L360.109 243.415L354.134 227.203ZM370.347 270.719L321.709 286.936L326.825 302.294L376.322 286.082L370.347 270.719ZM385.709 313.386L338.776 329.603L343.892 344.961L391.679 329.603L385.709 313.386Z" fill="#D8B4AD"/>
</svg>
