<svg width="512" height="512" viewBox="0 0 512 512" fill="none" xmlns="http://www.w3.org/2000/svg">
<g clip-path="url(#clip0_1060_100)">
<path d="M473.173 272.444L452.267 299.366V273.067C452.244 260.979 447.95 249.288 440.143 240.059C432.335 230.831 421.517 224.659 409.6 222.635V68.2667C409.586 56.9549 405.087 46.1104 397.088 38.1117C389.09 30.1131 378.245 25.6136 366.933 25.6H358.4C358.4 18.8105 355.703 12.299 350.902 7.49807C346.101 2.69714 339.59 0 332.8 0C326.01 0 319.499 2.69714 314.698 7.49807C309.897 12.299 307.2 18.8105 307.2 25.6H273.067C273.067 18.8105 270.37 12.299 265.569 7.49807C260.768 2.69714 254.256 0 247.467 0C240.677 0 234.166 2.69714 229.365 7.49807C224.564 12.299 221.867 18.8105 221.867 25.6H187.733C187.733 18.8105 185.036 12.299 180.235 7.49807C175.434 2.69714 168.923 0 162.133 0C155.344 0 148.832 2.69714 144.031 7.49807C139.23 12.299 136.533 18.8105 136.533 25.6H102.4C102.4 18.8105 99.7029 12.299 94.9019 7.49807C90.101 2.69714 83.5895 0 76.8 0C70.0105 0 63.499 2.69714 58.6981 7.49807C53.8971 12.299 51.2 18.8105 51.2 25.6H42.6667C31.3549 25.6136 20.5104 30.1131 12.5117 38.1117C4.51313 46.1104 0.0135497 56.9549 0 68.2667L0 366.933C0.0135497 378.245 4.51313 389.09 12.5117 397.088C20.5104 405.087 31.3549 409.586 42.6667 409.6H162.133V460.8C162.147 474.375 167.546 487.39 177.144 496.989C186.743 506.588 199.758 511.986 213.333 512H401.067C414.642 511.986 427.657 506.588 437.256 496.989C446.855 487.39 452.253 474.375 452.267 460.8V434.5L473.19 461.449C475.976 465.003 479.8 467.6 484.131 468.879C488.462 470.158 493.084 470.055 497.353 468.585C501.623 467.115 505.328 464.35 507.953 460.676C510.578 457.002 511.993 452.601 512 448.085V285.781C511.992 281.264 510.575 276.861 507.947 273.186C505.319 269.512 501.611 266.748 497.338 265.28C493.066 263.813 488.442 263.714 484.11 264.998C479.779 266.282 475.956 268.885 473.173 272.444ZM324.267 25.6C324.267 23.3368 325.166 21.1663 326.766 19.566C328.366 17.9657 330.537 17.0667 332.8 17.0667C335.063 17.0667 337.234 17.9657 338.834 19.566C340.434 21.1663 341.333 23.3368 341.333 25.6V42.6667C341.333 44.9298 340.434 47.1003 338.834 48.7006C337.234 50.301 335.063 51.2 332.8 51.2C330.537 51.2 328.366 50.301 326.766 48.7006C325.166 47.1003 324.267 44.9298 324.267 42.6667V25.6ZM238.933 25.6C238.933 23.3368 239.832 21.1663 241.433 19.566C243.033 17.9657 245.203 17.0667 247.467 17.0667C249.73 17.0667 251.9 17.9657 253.501 19.566C255.101 21.1663 256 23.3368 256 25.6V42.6667C256 44.9298 255.101 47.1003 253.501 48.7006C251.9 50.301 249.73 51.2 247.467 51.2C245.203 51.2 243.033 50.301 241.433 48.7006C239.832 47.1003 238.933 44.9298 238.933 42.6667V25.6ZM153.6 25.6C153.6 23.3368 154.499 21.1663 156.099 19.566C157.7 17.9657 159.87 17.0667 162.133 17.0667C164.397 17.0667 166.567 17.9657 168.167 19.566C169.768 21.1663 170.667 23.3368 170.667 25.6V42.6667C170.667 44.9298 169.768 47.1003 168.167 48.7006C166.567 50.301 164.397 51.2 162.133 51.2C159.87 51.2 157.7 50.301 156.099 48.7006C154.499 47.1003 153.6 44.9298 153.6 42.6667V25.6ZM68.2667 25.6C68.2667 23.3368 69.1657 21.1663 70.766 19.566C72.3663 17.9657 74.5368 17.0667 76.8 17.0667C79.0632 17.0667 81.2337 17.9657 82.834 19.566C84.4343 21.1663 85.3333 23.3368 85.3333 25.6V42.6667C85.3333 44.9298 84.4343 47.1003 82.834 48.7006C81.2337 50.301 79.0632 51.2 76.8 51.2C74.5368 51.2 72.3663 50.301 70.766 48.7006C69.1657 47.1003 68.2667 44.9298 68.2667 42.6667V25.6ZM42.6667 42.6667H51.2C51.2 49.4562 53.8971 55.9677 58.6981 60.7686C63.499 65.5695 70.0105 68.2667 76.8 68.2667C83.5895 68.2667 90.101 65.5695 94.9019 60.7686C99.7029 55.9677 102.4 49.4562 102.4 42.6667H136.533C136.533 49.4562 139.23 55.9677 144.031 60.7686C148.832 65.5695 155.344 68.2667 162.133 68.2667C168.923 68.2667 175.434 65.5695 180.235 60.7686C185.036 55.9677 187.733 49.4562 187.733 42.6667H221.867C221.867 49.4562 224.564 55.9677 229.365 60.7686C234.166 65.5695 240.677 68.2667 247.467 68.2667C254.256 68.2667 260.768 65.5695 265.569 60.7686C270.37 55.9677 273.067 49.4562 273.067 42.6667H307.2C307.2 49.4562 309.897 55.9677 314.698 60.7686C319.499 65.5695 326.01 68.2667 332.8 68.2667C339.59 68.2667 346.101 65.5695 350.902 60.7686C355.703 55.9677 358.4 49.4562 358.4 42.6667H366.933C373.723 42.6667 380.234 45.3638 385.035 50.1647C389.836 54.9657 392.533 61.4771 392.533 68.2667V85.3333H17.0667V68.2667C17.0667 61.4771 19.7638 54.9657 24.5647 50.1647C29.3657 45.3638 35.8771 42.6667 42.6667 42.6667ZM42.6667 392.533C35.8771 392.533 29.3657 389.836 24.5647 385.035C19.7638 380.234 17.0667 373.723 17.0667 366.933V102.4H392.533V221.867H332.467C333.218 215.966 331.615 210.008 328.003 205.281C324.392 200.555 319.064 197.442 313.173 196.617L252.587 187.733L225.382 132.395C223.52 128.527 220.605 125.264 216.97 122.98C213.336 120.696 209.131 119.485 204.838 119.485C200.546 119.485 196.341 120.696 192.707 122.98C189.072 125.264 186.156 128.527 184.294 132.395L157.013 187.733L96.4267 196.634C92.1791 197.253 88.1891 199.048 84.9066 201.814C81.6241 204.58 79.1797 208.208 77.8489 212.289C76.5181 216.37 76.3539 220.742 77.3747 224.912C78.3956 229.081 80.561 232.882 83.6267 235.887L127.633 279.04L117.291 339.968C116.544 344.194 116.998 348.544 118.601 352.525C120.205 356.505 122.893 359.956 126.36 362.484C129.827 365.013 133.934 366.517 138.214 366.827C142.494 367.137 146.775 366.239 150.571 364.237L162.133 358.127V392.533H42.6667ZM162.133 273.067V338.833L142.592 349.158C141.614 349.671 140.511 349.896 139.41 349.809C138.309 349.722 137.255 349.325 136.37 348.666C135.484 348.006 134.803 347.109 134.405 346.079C134.006 345.049 133.907 343.928 134.118 342.844L145.212 277.478C145.44 276.121 145.337 274.728 144.91 273.419C144.484 272.11 143.747 270.923 142.763 269.961L95.6587 223.701C94.8457 222.927 94.2676 221.938 93.9907 220.85C93.7138 219.762 93.7493 218.617 94.0932 217.548C94.4371 216.479 95.0754 215.528 95.9349 214.806C96.7944 214.083 97.8403 213.617 98.9525 213.461L163.977 203.895C165.344 203.695 166.643 203.166 167.761 202.353C168.878 201.54 169.782 200.467 170.394 199.228L199.586 139.81C200.04 138.806 200.773 137.954 201.699 137.357C202.624 136.759 203.703 136.442 204.804 136.442C205.906 136.442 206.984 136.759 207.91 137.357C208.835 137.954 209.569 138.806 210.022 139.81L239.206 199.202C239.818 200.442 240.722 201.514 241.839 202.327C242.957 203.14 244.256 203.67 245.623 203.87L310.673 213.444C311.585 213.581 312.453 213.926 313.209 214.454C313.965 214.982 314.589 215.678 315.031 216.487C315.473 217.297 315.722 218.197 315.758 219.119C315.794 220.04 315.616 220.957 315.238 221.798H213.333C199.747 221.812 186.721 227.22 177.12 236.834C167.519 246.447 162.129 259.48 162.133 273.067ZM494.933 448.085C494.931 449.048 494.63 449.986 494.071 450.769C493.512 451.553 492.724 452.143 491.815 452.459C490.906 452.775 489.921 452.8 488.997 452.532C488.072 452.264 487.255 451.715 486.656 450.961L450.475 404.369C449.384 402.964 447.881 401.934 446.177 401.425C444.473 400.916 442.652 400.952 440.969 401.528C439.286 402.104 437.825 403.192 436.791 404.639C435.756 406.087 435.2 407.821 435.2 409.6V460.8C435.2 469.853 431.604 478.535 425.203 484.936C418.801 491.337 410.119 494.933 401.067 494.933H213.333C204.281 494.933 195.599 491.337 189.197 484.936C182.796 478.535 179.2 469.853 179.2 460.8V273.067C179.2 264.014 182.796 255.332 189.197 248.931C195.599 242.53 204.281 238.933 213.333 238.933H401.067C410.119 238.933 418.801 242.53 425.203 248.931C431.604 255.332 435.2 264.014 435.2 273.067V324.267C435.2 326.046 435.756 327.78 436.791 329.227C437.825 330.675 439.286 331.762 440.969 332.339C442.652 332.915 444.473 332.951 446.177 332.442C447.881 331.932 449.384 330.903 450.475 329.498L486.639 282.931C487.234 282.172 488.051 281.618 488.976 281.345C489.901 281.071 490.888 281.093 491.8 281.406C492.712 281.72 493.504 282.309 494.065 283.093C494.627 283.878 494.93 284.817 494.933 285.781V448.085Z" fill="white"/>
<path d="M307.2 332.8C300.449 332.8 293.85 334.802 288.236 338.553C282.623 342.304 278.248 347.634 275.665 353.871C273.081 360.109 272.405 366.972 273.722 373.593C275.039 380.214 278.29 386.296 283.064 391.07C287.838 395.843 293.92 399.094 300.541 400.411C307.162 401.728 314.025 401.052 320.262 398.469C326.499 395.885 331.83 391.51 335.581 385.897C339.331 380.284 341.333 373.685 341.333 366.934C341.333 357.881 337.737 349.199 331.336 342.798C324.935 336.397 316.253 332.8 307.2 332.8ZM307.2 384C303.824 384 300.525 382.999 297.718 381.124C294.912 379.249 292.724 376.583 291.432 373.465C290.141 370.346 289.803 366.915 290.461 363.604C291.12 360.294 292.745 357.253 295.132 354.866C297.519 352.479 300.56 350.854 303.87 350.195C307.181 349.536 310.612 349.874 313.731 351.166C316.85 352.458 319.515 354.645 321.39 357.452C323.266 360.259 324.267 363.558 324.267 366.934C324.267 371.46 322.468 375.801 319.268 379.002C316.067 382.202 311.726 384 307.2 384ZM263.057 325.803C261.201 324.509 258.907 324.005 256.68 324.402C254.452 324.799 252.473 326.064 251.179 327.919C243.206 339.367 238.932 352.983 238.932 366.934C238.932 380.884 243.206 394.5 251.179 405.948C251.809 406.892 252.621 407.701 253.568 408.327C254.515 408.954 255.578 409.385 256.693 409.595C257.809 409.806 258.955 409.792 260.065 409.553C261.175 409.315 262.226 408.858 263.158 408.209C264.089 407.559 264.881 406.73 265.488 405.771C266.094 404.811 266.504 403.74 266.691 402.621C266.879 401.501 266.841 400.355 266.581 399.25C266.32 398.145 265.842 397.104 265.173 396.186C259.197 387.602 255.994 377.393 255.994 366.934C255.994 356.474 259.197 346.266 265.173 337.681C266.467 335.826 266.971 333.532 266.574 331.304C266.178 329.077 264.912 327.098 263.057 325.803Z" fill="white"/>
<path d="M235.521 308.905C234.62 308.236 233.596 307.752 232.508 307.479C231.42 307.206 230.289 307.15 229.179 307.315C228.07 307.48 227.003 307.862 226.042 308.439C225.08 309.017 224.241 309.778 223.574 310.68C211.404 326.922 204.826 346.67 204.826 366.966C204.826 387.261 211.404 407.01 223.574 423.252C224.932 425.062 226.953 426.259 229.194 426.579C231.434 426.899 233.71 426.316 235.521 424.958C237.331 423.6 238.528 421.579 238.848 419.338C239.168 417.098 238.585 414.822 237.227 413.012C227.229 399.717 221.822 383.532 221.822 366.897C221.822 350.263 227.229 334.078 237.227 320.783C238.564 318.977 239.134 316.717 238.815 314.493C238.495 312.27 237.311 310.262 235.521 308.905ZM351.344 325.801C349.488 327.096 348.223 329.074 347.826 331.302C347.429 333.529 347.933 335.823 349.227 337.679C355.203 346.264 358.406 356.472 358.406 366.932C358.406 377.391 355.203 387.6 349.227 396.184C348.559 397.102 348.08 398.143 347.82 399.248C347.559 400.353 347.521 401.499 347.709 402.619C347.897 403.738 348.306 404.809 348.913 405.769C349.52 406.728 350.312 407.557 351.243 408.206C352.174 408.856 353.225 409.313 354.335 409.551C355.445 409.789 356.592 409.804 357.707 409.593C358.823 409.383 359.885 408.952 360.832 408.325C361.779 407.699 362.592 406.89 363.222 405.946C371.195 394.498 375.469 380.882 375.469 366.932C375.469 352.981 371.195 339.365 363.222 327.917C361.927 326.062 359.948 324.797 357.721 324.4C355.493 324.003 353.199 324.507 351.344 325.801Z" fill="white"/>
<path d="M378.879 308.905C377.977 309.572 377.216 310.411 376.639 311.373C376.061 312.334 375.679 313.401 375.515 314.51C375.35 315.62 375.405 316.751 375.678 317.839C375.951 318.927 376.435 319.951 377.104 320.852C387.103 334.146 392.509 350.331 392.509 366.966C392.509 383.601 387.103 399.785 377.104 413.08C376.436 413.981 375.952 415.005 375.68 416.092C375.408 417.18 375.353 418.311 375.517 419.421C375.682 420.53 376.064 421.596 376.641 422.558C377.218 423.52 377.978 424.359 378.879 425.027C379.78 425.694 380.804 426.178 381.892 426.451C382.98 426.723 384.111 426.778 385.22 426.613C386.329 426.448 387.395 426.067 388.357 425.49C389.319 424.913 390.158 424.153 390.826 423.252C402.996 407.01 409.574 387.261 409.574 366.966C409.574 346.67 402.996 326.922 390.826 310.68C390.158 309.778 389.32 309.017 388.358 308.439C387.396 307.862 386.33 307.48 385.22 307.315C384.111 307.15 382.98 307.206 381.892 307.479C380.803 307.752 379.78 308.236 378.879 308.905Z" fill="white"/>
</g>
<defs>
<clipPath id="clip0_1060_100">
<rect width="512" height="512" fill="white"/>
</clipPath>
</defs>
</svg>
