<svg width="512" height="512" viewBox="0 0 512 512" fill="none" xmlns="http://www.w3.org/2000/svg">
<g clip-path="url(#clip0_1060_90)">
<path d="M324.009 173.473L283.299 167.562L265.091 130.662C264.256 128.969 262.963 127.544 261.36 126.548C259.757 125.552 257.908 125.023 256.02 125.023C254.133 125.023 252.283 125.552 250.68 126.548C249.077 127.544 247.785 128.969 246.95 130.662L228.741 167.562L188.02 173.473C186.151 173.743 184.395 174.53 182.95 175.746C181.505 176.961 180.43 178.557 179.845 180.352C179.26 182.148 179.19 184.071 179.641 185.904C180.093 187.738 181.049 189.408 182.4 190.726L211.86 219.444L204.902 259.996C204.653 261.448 204.725 262.936 205.111 264.358C205.498 265.779 206.19 267.099 207.139 268.225C208.089 269.351 209.273 270.256 210.608 270.877C211.944 271.498 213.399 271.82 214.872 271.82C216.516 271.808 218.133 271.395 219.582 270.617L255.999 251.51L292.415 270.617C294.084 271.501 295.966 271.901 297.85 271.771C299.733 271.641 301.543 270.986 303.074 269.881C304.605 268.776 305.796 267.264 306.513 265.517C307.229 263.771 307.443 261.858 307.128 259.996L300.171 219.444L329.63 190.726C331.224 189.171 332.26 187.134 332.579 184.93C333.374 179.399 329.539 174.27 324.009 173.473ZM282.22 208.585C281.04 209.734 280.158 211.153 279.65 212.721C279.143 214.288 279.026 215.955 279.31 217.577L283.693 243.17L260.709 231.087C259.25 230.335 257.63 229.95 255.989 229.963C254.348 229.977 252.735 230.39 251.289 231.166L228.304 243.249L232.699 217.656C232.983 216.033 232.866 214.366 232.358 212.799C231.851 211.232 230.969 209.813 229.788 208.664L211.197 190.535L236.891 186.803C238.514 186.568 240.056 185.942 241.383 184.979C242.711 184.015 243.785 182.744 244.512 181.273L255.999 157.985L267.486 181.273C268.212 182.744 269.286 184.016 270.613 184.979C271.941 185.942 273.483 186.568 275.107 186.803L300.811 190.467L282.22 208.585Z" fill="white"/>
<path d="M255.999 69.0234C183.298 69.0234 124.361 127.96 124.361 200.661C124.361 273.362 183.298 332.299 255.999 332.299C328.667 332.218 387.557 273.329 387.637 200.661C387.637 127.96 328.7 69.0234 255.999 69.0234ZM255.999 312.068C194.471 312.068 144.592 262.189 144.592 200.661C144.592 139.133 194.471 89.2546 255.999 89.2546C317.5 89.3231 367.337 139.162 367.406 200.661C367.406 262.19 317.527 312.068 255.999 312.068Z" fill="white"/>
<path d="M441.272 227.939L422.344 235.098C425.29 242.887 428.954 252.576 427.695 256.454C426.278 260.814 417.703 266.401 410.127 271.335C401.135 277.202 390.907 283.856 383.882 293.521C376.857 303.188 373.542 315.158 370.698 325.61C368.45 333.827 365.685 344.055 362.1 346.662C358.514 349.27 348.129 348.697 339.621 348.292C328.752 347.775 316.433 347.168 304.846 350.967C293.606 354.608 284.266 362.206 275.994 368.872C268.901 374.604 260.854 381.101 256.01 381.101C251.167 381.101 243.118 374.604 236.015 368.85C227.743 362.162 218.37 354.587 207.175 350.957C200.769 348.877 193.586 347.911 184.561 347.911C180.391 347.911 176.312 348.102 172.378 348.294C163.938 348.698 153.439 349.193 149.966 346.663C146.494 344.135 143.605 333.805 141.357 325.589C138.514 315.124 135.299 303.278 128.184 293.499C121.069 283.721 110.942 277.191 101.928 271.313C94.3642 266.379 85.788 260.793 84.3713 256.432C83.1122 252.577 86.7879 242.878 89.7331 235.077C93.6336 224.77 98.0388 213.092 98.0388 200.661C98.0388 188.23 93.6211 176.552 89.7216 166.245C86.7765 158.457 83.1122 148.756 84.3599 144.89C85.7765 140.529 94.3516 134.942 101.928 129.997C110.92 124.13 121.136 117.476 128.173 107.822C135.209 98.1672 138.512 86.1859 141.357 75.733C143.605 67.5163 146.37 57.2883 149.955 54.6811C153.541 52.0738 163.926 52.6469 172.378 53.051C183.246 53.5681 195.577 54.1754 207.221 50.3764C218.46 46.7349 227.788 39.137 236.072 32.4717C243.109 26.7173 251.156 20.2311 256 20.2311C260.843 20.2311 268.892 26.7161 275.983 32.4705C284.256 39.1575 293.629 46.7338 304.835 50.3753C316.434 54.14 328.764 53.5555 339.678 53.0498C348.118 52.656 358.617 52.1617 362.089 54.6799C365.562 57.1981 368.395 67.5038 370.643 75.7318C373.486 86.1961 376.701 98.0428 383.816 107.821C390.931 117.599 401.057 124.141 410.072 130.008C417.637 134.941 426.212 140.528 427.64 144.888C428.899 148.755 425.223 158.454 422.278 166.244C418.378 176.551 413.961 188.24 413.961 200.66C413.961 213.079 418.379 224.769 422.278 235.075L431.741 231.501L441.205 227.927C437.596 218.397 434.191 209.393 434.191 200.66C434.191 191.926 437.563 182.924 441.193 173.392C445.88 161.028 450.32 149.261 446.869 138.64C443.239 127.479 431.988 120.151 421.108 113.058C413.241 107.9 405.013 102.572 400.169 95.9185C395.325 89.2645 392.661 79.6324 390.155 70.4272C386.614 57.4116 383.276 45.1151 373.936 38.3265C364.596 31.5379 352.063 32.2125 338.666 32.8415C329.079 33.2913 319.154 33.7627 311.074 31.1327C303.431 28.6487 295.934 22.5907 288.695 16.7347C278.478 8.50889 268.002 0 255.999 0C243.996 0 233.52 8.50889 223.292 16.7472C216.054 22.6032 208.557 28.6499 200.914 31.1338C192.833 33.7524 183.346 33.3141 173.321 32.8427C159.923 32.2137 147.268 31.6178 138.04 38.3277C128.812 45.0375 125.362 57.4344 121.821 70.4386C119.314 79.6438 116.73 89.1641 111.807 95.9299C106.883 102.696 98.791 107.911 90.8677 113.07C79.9879 120.162 68.7371 127.491 65.1071 138.651C61.6562 149.273 66.0956 160.995 70.7827 173.415C74.3796 182.947 77.7848 191.949 77.7848 200.671C77.7848 209.393 74.4127 218.395 70.7827 227.939C66.0956 240.302 61.6562 252.082 65.1071 262.691C68.7371 273.863 79.9879 281.192 90.8677 288.284C98.7351 293.442 106.963 298.77 111.795 305.424C116.628 312.078 119.303 321.71 121.81 330.915C123.967 338.873 126.07 346.561 129.509 352.888L88.5299 457.687C87.8944 459.315 87.6915 461.079 87.9411 462.809C88.1906 464.539 88.884 466.175 89.9537 467.557C91.0235 468.939 92.433 470.02 94.045 470.695C95.6569 471.371 97.4163 471.617 99.1517 471.41L156.473 464.554L193.913 508.456C195.051 509.788 196.515 510.801 198.163 511.397C199.81 511.993 201.584 512.151 203.311 511.855C205.038 511.56 206.658 510.821 208.014 509.71C209.369 508.6 210.412 507.157 211.042 505.522L251.898 400.994C254.619 401.447 257.395 401.447 260.115 400.994L300.96 505.522C301.597 507.15 302.645 508.586 304.002 509.689C305.359 510.791 306.979 511.523 308.703 511.813C310.428 512.103 312.198 511.941 313.841 511.343C315.484 510.744 316.944 509.73 318.078 508.4L355.518 464.498L412.839 471.354C414.569 471.558 416.322 471.313 417.928 470.641C419.535 469.969 420.941 468.894 422.011 467.52C423.08 466.145 423.777 464.518 424.033 462.795C424.289 461.072 424.096 459.313 423.472 457.687L382.477 352.866C385.916 346.539 388.006 338.851 390.176 330.893C392.672 321.688 395.256 312.168 400.191 305.402C405.125 298.636 413.207 293.421 421.13 288.262C432.01 281.17 443.272 273.841 446.891 262.681C450.341 252.059 445.913 240.347 441.272 227.939ZM198.305 482.47L168.329 447.301C167.246 446.033 165.867 445.053 164.314 444.447C162.761 443.841 161.082 443.629 159.427 443.828L113.525 449.325L145.771 366.849C153.808 369.412 163.35 368.962 173.308 368.49C177.017 368.31 180.85 368.131 184.548 368.131C191.381 368.131 196.585 368.783 200.912 370.188C208.555 372.672 216.041 378.718 223.291 384.586C226.663 387.295 230.035 390.026 233.496 392.453L198.305 482.47ZM398.471 449.325L352.579 443.828C350.923 443.63 349.244 443.845 347.691 444.453C346.138 445.061 344.759 446.043 343.678 447.312L313.69 482.481L278.476 392.475C281.939 390.025 285.332 387.294 288.682 384.608C295.92 378.752 303.416 372.705 311.06 370.221C319.131 367.602 328.605 368.041 338.664 368.512C348.723 368.985 358.165 369.422 366.201 366.871L398.471 449.325Z" fill="white"/>
</g>
<defs>
<clipPath id="clip0_1060_90">
<rect width="512" height="512" fill="white"/>
</clipPath>
</defs>
</svg>
