<svg width="510" height="510" viewBox="0 0 510 510" fill="none" xmlns="http://www.w3.org/2000/svg">
<path d="M225.753 37.237C225.753 35.1153 226.596 33.0804 228.096 31.5801C229.596 30.0799 231.631 29.237 233.753 29.237H276.247C278.369 29.237 280.404 30.0799 281.904 31.5801C283.404 33.0804 284.247 35.1153 284.247 37.237C284.247 39.3587 283.404 41.3936 281.904 42.8939C280.404 44.3941 278.369 45.237 276.247 45.237H233.753C231.631 45.237 229.596 44.3941 228.096 42.8939C226.596 41.3936 225.753 39.3587 225.753 37.237ZM293.802 456.396C293.802 468.641 283.84 478.604 271.594 478.604H238.406C226.161 478.604 216.198 468.641 216.198 456.396C216.198 444.151 226.16 434.189 238.406 434.189H271.594C283.84 434.189 293.802 444.151 293.802 456.396ZM277.802 456.396C277.8 454.75 277.145 453.172 275.982 452.009C274.818 450.845 273.24 450.191 271.594 450.189H238.406C234.983 450.189 232.198 452.973 232.198 456.396C232.198 459.819 234.983 462.604 238.406 462.604H271.594C273.24 462.602 274.818 461.947 275.982 460.784C277.145 459.62 277.8 458.042 277.802 456.396ZM510 222.216V255.058C510 256.602 509.553 258.113 508.713 259.409C507.874 260.705 506.677 261.73 505.267 262.361L414.379 303.014V475.057C414.379 494.325 397.722 510 377.248 510H132.753C112.278 510 95.621 494.324 95.621 475.057V303.013L4.733 262.361C3.3234 261.73 2.12645 260.705 1.2866 259.409C0.446749 258.113 -9.37924e-05 256.602 1.47669e-08 255.058V222.216C-7.45267e-06 220.672 0.446984 219.16 1.28702 217.864C2.12705 216.569 3.32421 215.543 4.734 214.913L95.622 174.261V34.944C95.622 15.676 112.279 0 132.753 0H377.247C397.721 0 414.378 15.675 414.378 34.943V174.26L505.265 214.912C506.675 215.543 507.872 216.568 508.713 217.864C509.553 219.16 510 220.671 510 222.216ZM414.379 191.788V252.643L482.407 222.215L414.379 191.788ZM398.379 259.8V184.632L255 120.501L111.622 184.632V259.8L255 323.93L398.379 259.8ZM111.622 34.944V58.479H398.379V34.944C398.379 24.499 388.9 16.001 377.248 16.001H132.753C121.101 16 111.622 24.498 111.622 34.944ZM111.622 167.104L251.734 104.434C252.761 103.974 253.874 103.736 255 103.736C256.126 103.736 257.239 103.974 258.266 104.434L398.379 167.104V74.479H111.622V167.104ZM95.622 191.788L27.594 222.216L95.622 252.644V191.788ZM16 249.872L247 353.195V337.879L16 234.557V249.872ZM398.379 475.056V418.794H111.622V475.056C111.622 485.501 121.101 493.999 132.754 493.999H377.248C388.899 494 398.379 485.502 398.379 475.056ZM398.379 310.17L258.267 372.84C257.239 373.3 256.126 373.538 255 373.538C253.874 373.538 252.761 373.3 251.733 372.84L111.621 310.17V402.795H398.378V310.17H398.379ZM494 249.872V234.557L263 337.879V353.195L494 249.872ZM326.64 184.899V258.384C326.64 259.788 326.27 261.168 325.568 262.384C324.866 263.6 323.856 264.61 322.64 265.312L259 302.054C257.784 302.757 256.404 303.127 255 303.127C253.596 303.127 252.216 302.757 251 302.054L187.36 265.312C186.144 264.61 185.134 263.6 184.432 262.384C183.73 261.168 183.36 259.788 183.36 258.384V184.899C183.36 183.495 183.73 182.115 184.432 180.899C185.134 179.683 186.144 178.673 187.36 177.971L251 141.228C252.216 140.526 253.596 140.156 255 140.156C256.404 140.156 257.784 140.526 259 141.228L322.64 177.971C323.856 178.673 324.866 179.683 325.568 180.899C326.27 182.115 326.64 183.495 326.64 184.899ZM207.36 184.899L255 212.405L302.64 184.9L255 157.394L207.36 184.899ZM199.36 253.765L247 281.271V226.261L199.36 198.756V253.765ZM310.64 253.765V198.755L263 226.261V281.271L310.64 253.765Z" fill="white"/>
</svg>
