<svg width="444" height="510" viewBox="0 0 444 510" fill="none" xmlns="http://www.w3.org/2000/svg">
<path d="M439.817 199.471C441.033 198.769 442.043 197.759 442.746 196.543C443.448 195.327 443.817 193.947 443.817 192.543V131.501C443.817 130.096 443.448 128.717 442.745 127.501C442.043 126.284 441.033 125.275 439.817 124.573L386.953 94.0516C385.737 93.3489 384.357 92.979 382.953 92.979C381.549 92.979 380.169 93.3489 378.953 94.0516L330.089 122.264L282.772 94.9446V38.5216C282.772 37.1173 282.403 35.7377 281.7 34.5215C280.998 33.3054 279.988 32.2955 278.772 31.5936L225.908 1.07257C224.692 0.369934 223.312 0 221.908 0C220.504 0 219.124 0.369934 217.908 1.07257L165.044 31.5936C163.828 32.2955 162.818 33.3053 162.115 34.5215C161.413 35.7376 161.044 37.1173 161.044 38.5216V94.9456L113.727 122.265L64.864 94.0516C63.648 93.3489 62.2684 92.979 60.864 92.979C59.4596 92.979 58.08 93.3489 56.864 94.0516L4 124.573C2.78367 125.274 1.77362 126.284 1.07145 127.5C0.36927 128.717 -0.000268347 130.096 1.46203e-07 131.501V192.543C-0.000166925 193.947 0.369414 195.326 1.07158 196.543C1.77374 197.759 2.78374 198.769 4 199.471L52.864 227.683V282.319L4 310.53C2.78367 311.231 1.77362 312.241 1.07145 313.457C0.36927 314.674 -0.000268347 316.053 1.46203e-07 317.458V378.5C-0.000166925 379.904 0.369414 381.283 1.07158 382.5C1.77374 383.716 2.78374 384.726 4 385.428L56.864 415.949C58.101 416.664 59.483 417.021 60.864 417.021C62.245 417.021 63.627 416.664 64.864 415.949L113.728 387.737L161.044 415.055V471.479C161.044 472.883 161.413 474.262 162.116 475.479C162.818 476.695 163.828 477.705 165.044 478.407L217.908 508.929C219.145 509.644 220.527 510.001 221.908 510.001C223.289 510.001 224.671 509.644 225.908 508.929L278.771 478.408C279.987 477.706 280.997 476.696 281.7 475.48C282.402 474.264 282.771 472.884 282.771 471.48V415.056L330.087 387.738L378.951 415.95C380.188 416.665 381.57 417.022 382.951 417.022C384.332 417.022 385.714 416.665 386.951 415.95L439.815 385.429C441.031 384.727 442.041 383.717 442.744 382.501C443.446 381.285 443.815 379.905 443.815 378.501V317.459C443.815 316.054 443.446 314.675 442.743 313.459C442.041 312.242 441.031 311.233 439.815 310.531L390.951 282.32V227.684L439.817 199.471ZM390.952 209.208V166.64L427.816 145.357V187.924L390.952 209.208ZM382.952 338.742L346.088 317.458L382.952 296.174L419.816 317.458L382.952 338.742ZM274.771 401.2L229.908 375.298V354.355C281.142 350.267 321.584 307.269 321.584 255.001C321.584 239.712 318.12 225.218 311.942 212.257L330.088 201.78L374.952 227.682V282.318L326.088 310.529C324.872 311.23 323.862 312.24 323.159 313.456C322.457 314.673 322.088 316.052 322.088 317.457V373.881L274.771 401.2ZM221.908 431.721L185.044 410.438L221.908 389.153L258.771 410.437L221.908 431.721ZM121.728 373.882V317.458C121.728 316.053 121.359 314.674 120.656 313.458C119.954 312.241 118.944 311.232 117.728 310.53L68.864 282.319V227.683L113.728 201.78L131.874 212.257C125.696 225.218 122.231 239.712 122.231 255.001C122.231 307.269 162.672 350.267 213.908 354.355V375.298L169.044 401.2L121.728 373.882ZM60.864 338.742L24 317.458L60.864 296.174L97.728 317.458L60.864 338.742ZM169.044 108.801L217.908 137.013C219.145 137.728 220.527 138.085 221.908 138.085C223.289 138.085 224.671 137.728 225.908 137.013L274.771 108.801L322.087 136.119V187.925L303.917 198.416C285.913 172.402 255.869 155.324 221.908 155.324C187.946 155.324 157.903 172.401 139.898 198.415L121.728 187.924V136.119L169.044 108.801ZM213.908 73.6606V116.229L177.044 94.9446V52.3766L213.908 73.6606ZM229.908 73.6606L266.771 52.3776V94.9446L229.908 116.229V73.6606ZM374.952 166.641V209.209L338.088 187.925V145.358L374.952 166.641ZM221.908 338.677C175.768 338.677 138.231 301.14 138.231 255.001C138.231 208.861 175.768 171.324 221.908 171.324C268.047 171.324 305.584 208.861 305.584 255.001C305.584 301.14 268.047 338.677 221.908 338.677ZM68.864 209.208V166.641L105.728 145.357V187.924L68.864 209.208ZM382.952 110.217L419.816 131.501L382.952 152.784L346.089 131.501L382.952 110.217ZM221.908 17.2376L258.772 38.5216L221.908 59.8056L185.044 38.5216L221.908 17.2376ZM60.864 110.217L97.728 131.501L60.864 152.784L23.999 131.501L60.864 110.217ZM15.999 187.924V145.357L52.863 166.64V209.208L15.999 187.924ZM15.999 331.314L52.863 352.598V395.166L15.999 373.881V331.314ZM68.864 395.165V352.597L105.728 331.313V373.88L68.864 395.165ZM177.044 424.293L213.908 445.576V488.144L177.044 466.86V424.293ZM266.772 466.86L229.908 488.145V445.577L266.771 424.294V466.86H266.772ZM338.088 331.314L374.952 352.598V395.166L338.088 373.881V331.314ZM390.952 395.165V352.597L427.816 331.313V373.88L390.952 395.165ZM161.053 242.407C159.553 243.907 157.518 244.75 155.396 244.75C153.274 244.75 151.239 243.907 149.739 242.407C148.239 240.906 147.396 238.871 147.396 236.75C147.396 234.628 148.239 232.593 149.739 231.093C189.534 191.3 254.284 191.3 294.079 231.093C295.579 232.593 296.422 234.628 296.422 236.75C296.422 238.871 295.579 240.906 294.079 242.407C292.579 243.907 290.544 244.75 288.422 244.75C286.3 244.75 284.265 243.907 282.765 242.407C249.209 208.851 194.608 208.851 161.053 242.407ZM276.341 248.83C277.841 250.33 278.684 252.365 278.684 254.487C278.684 256.608 277.841 258.643 276.341 260.144C274.841 261.644 272.806 262.487 270.684 262.487C268.562 262.487 266.527 261.644 265.027 260.144C241.25 236.366 202.563 236.368 178.79 260.144C177.29 261.644 175.255 262.487 173.133 262.487C171.011 262.487 168.976 261.644 167.476 260.144C165.976 258.643 165.133 256.608 165.133 254.487C165.133 252.365 165.976 250.33 167.476 248.83C182.016 234.291 201.347 226.283 221.91 226.283C242.47 226.283 261.801 234.291 276.341 248.83ZM258.605 266.566C260.105 268.066 260.948 270.101 260.948 272.223C260.948 274.344 260.105 276.379 258.605 277.88C257.105 279.38 255.07 280.223 252.948 280.223C250.826 280.223 248.791 279.38 247.291 277.88C240.512 271.1 231.497 267.365 221.909 267.365C212.32 267.365 203.306 271.099 196.527 277.879C195.785 278.623 194.903 279.213 193.932 279.615C192.962 280.017 191.921 280.224 190.87 280.223C189.819 280.224 188.779 280.018 187.808 279.616C186.837 279.214 185.956 278.624 185.214 277.88C184.471 277.137 183.882 276.255 183.48 275.285C183.077 274.314 182.87 273.274 182.87 272.223C182.87 271.173 183.077 270.133 183.479 269.162C183.881 268.191 184.47 267.309 185.213 266.567C195.015 256.764 208.047 251.367 221.909 251.367C235.77 251.367 248.802 256.765 258.605 266.566ZM221.908 276.45C210.23 276.45 200.729 285.95 200.729 297.628C200.729 309.306 210.23 318.807 221.908 318.807C233.586 318.807 243.086 309.306 243.086 297.628C243.086 285.95 233.586 276.45 221.908 276.45ZM221.908 302.807C219.053 302.807 216.729 300.484 216.729 297.628C216.729 294.772 219.052 292.45 221.908 292.45C224.764 292.45 227.086 294.772 227.086 297.628C227.086 300.484 224.764 302.807 221.908 302.807Z" fill="white"/>
</svg>
