<svg width="496" height="496" viewBox="0 0 496 496" fill="none" xmlns="http://www.w3.org/2000/svg">
<path d="M56 448C60.4183 448 64 444.418 64 440C64 435.582 60.4183 432 56 432C51.5817 432 48 435.582 48 440C48 444.418 51.5817 448 56 448Z" fill="white"/>
<path d="M80 384H32C23.176 384 16 391.176 16 400V480C16 488.824 23.176 496 32 496H80C88.824 496 96 488.824 96 480V400C96 391.176 88.824 384 80 384ZM32 480V400H80L80.008 480H32Z" fill="white"/>
<path d="M152 448C156.418 448 160 444.418 160 440C160 435.582 156.418 432 152 432C147.582 432 144 435.582 144 440C144 444.418 147.582 448 152 448Z" fill="white"/>
<path d="M176 384H128C119.176 384 112 391.176 112 400V480C112 488.824 119.176 496 128 496H176C184.824 496 192 488.824 192 480V400C192 391.176 184.824 384 176 384ZM128 480V400H176L176.008 480H128Z" fill="white"/>
<path d="M344 448C348.418 448 352 444.418 352 440C352 435.582 348.418 432 344 432C339.582 432 336 435.582 336 440C336 444.418 339.582 448 344 448Z" fill="white"/>
<path d="M368 384H320C311.176 384 304 391.176 304 400V480C304 488.824 311.176 496 320 496H368C376.824 496 384 488.824 384 480V400C384 391.176 376.824 384 368 384ZM320 480V400H368L368.008 480H320Z" fill="white"/>
<path d="M440 448C444.418 448 448 444.418 448 440C448 435.582 444.418 432 440 432C435.582 432 432 435.582 432 440C432 444.418 435.582 448 440 448Z" fill="white"/>
<path d="M464 384H416C407.176 384 400 391.176 400 400V480C400 488.824 407.176 496 416 496H464C472.824 496 480 488.824 480 480V400C480 391.176 472.824 384 464 384ZM416 480V400H464L464.008 480H416Z" fill="white"/>
<path d="M248 448C252.418 448 256 444.418 256 440C256 435.582 252.418 432 248 432C243.582 432 240 435.582 240 440C240 444.418 243.582 448 248 448Z" fill="white"/>
<path d="M272 384.001H224C215.176 384.001 208 391.177 208 400.001V480.001C208 488.825 215.176 496.001 224 496.001H272C280.824 496.001 288 488.825 288 480.001V400.001C288 391.177 280.824 384.001 272 384.001ZM224 480.001V400.001H272L272.008 480.001H224ZM399.632 352.001C395.84 292.225 350.12 241.937 290.184 233.377L286.464 232.849L283.376 220.481C292.814 216.981 301.137 211.005 307.47 203.18C313.803 195.355 317.912 185.969 319.368 176.009H320C337.648 176.009 352 161.657 352 144.009C352 137.217 349.84 130.937 346.208 125.745L347.136 121.113C350.36 104.969 352 88.4407 352 72.0007C352.011 63.895 350.249 55.885 346.839 48.5318C343.428 41.1785 338.451 34.66 332.256 29.4327C328.591 20.7183 322.438 13.278 314.566 8.04297C306.694 2.8079 297.454 0.0104686 288 0.000687416C276.928 0.000687416 266.352 3.44069 257.584 9.61669L242.12 3.43269C236.357 1.13288 230.205 -0.0324516 224 0.000687416C216.859 0.00119181 209.809 1.59758 203.364 4.67314C196.92 7.7487 191.244 12.2257 186.752 17.7767C174.574 20.7055 163.736 27.6461 155.981 37.4816C148.227 47.3172 144.007 59.4758 144 72.0007C144 88.4407 145.64 104.969 148.864 121.105L149.792 125.737C146.026 131.083 144.003 137.461 144 144.001C144 161.649 158.352 176.001 176 176.001H176.64C178.095 185.962 182.204 195.347 188.537 203.172C194.87 210.998 203.193 216.973 212.632 220.473L209.544 232.841L205.824 233.369C145.88 241.937 100.168 292.225 96.368 352.001H0V368.001H496V352.001H399.632ZM383.632 352.001H352V320.001H336V352.001H268.088C291.196 326.172 303.981 292.737 304 258.081V252.857C348.04 266.065 380.264 305.641 383.632 352.001ZM208.088 249.209L213.848 248.385L232.848 262.633L209.272 274.425C208.466 268.825 208.041 263.178 208 257.521V249.233L208.088 249.209ZM282.152 248.385L287.912 249.209L288 249.225V258.081C288 263.609 287.528 269.057 286.816 274.465L263.16 262.633L282.152 248.385ZM248 272.945L283.52 290.705C277.473 313.157 265.276 333.474 248.304 349.369C231.142 333.519 218.776 313.167 212.616 290.633L248 272.945ZM264 208.001H232C223.804 207.996 215.812 205.452 209.12 200.721L213.96 166.865C214.52 162.953 217.92 160.001 221.872 160.001H274.12C278.072 160.001 281.472 162.953 282.04 166.873L286.88 200.721C280.384 205.281 272.52 208.001 264 208.001ZM334.28 60.5527C335.368 64.2167 336 68.0567 336 72.0007C336 86.1847 334.64 100.433 332.072 114.401C328.243 112.822 324.142 112.007 320 112.001V83.6807C326.89 77.5092 331.849 69.4774 334.28 60.5527ZM320 160.001V128.001C328.824 128.001 336 135.177 336 144.001C336 152.825 328.824 160.001 320 160.001ZM160 144.001C160 135.177 167.176 128.001 176 128.001V160.001C167.176 160.001 160 152.825 160 144.001ZM176 104.001V112.001C171.728 112.001 167.664 112.873 163.928 114.401C161.339 100.415 160.024 86.2237 160 72.0007C160 58.7207 166.584 46.8807 176.792 39.5687C176.276 42.35 176.011 45.172 176 48.0007H192C192 30.3527 206.352 16.0007 224.296 16.0007C228.376 16.0007 232.384 16.7687 236.176 18.2887L245.256 21.9207C244.856 22.4727 244.408 22.9687 244.032 23.5367L241.344 27.5687L254.656 36.4407L257.344 32.4087C260.704 27.3573 265.262 23.2157 270.61 20.3528C275.959 17.49 281.933 15.9948 288 16.0007C305.648 16.0007 320 30.3527 320 48.0007C320 65.6487 305.648 80.0007 288 80.0007H256C238.352 80.0007 224 65.6487 224 48.0007H208C208 53.8087 209.088 59.3527 210.984 64.5047C191.312 67.0087 176 83.6647 176 104.001ZM192 168.001V104.001C192 90.7687 202.768 80.0007 216 80.0007H220.32C224.805 85.0301 230.302 89.0553 236.451 91.8126C242.599 94.5699 249.261 95.9971 256 96.0007H288C293.616 96.0007 298.984 94.9767 304 93.2007V168.001C303.994 173.488 302.85 178.914 300.64 183.937L297.88 164.609C297.042 158.9 294.184 153.681 289.826 149.9C285.467 146.119 279.898 144.026 274.128 144.001H221.88C216.11 144.024 210.539 146.116 206.181 149.898C201.822 153.68 198.965 158.899 198.128 164.609L195.368 183.945C193.153 178.921 192.006 173.491 192 168.001ZM232 224.001H264C265.248 224.001 266.48 223.897 267.704 223.817L270.944 236.793L248 254.001L225.048 236.785L228.288 223.809C229.52 223.897 230.752 224.001 232 224.001ZM192 252.865V257.521C192 292.793 205.168 326.209 228.416 352.001H160V320.001H144V352.001H112.368C115.736 305.641 147.96 266.065 192 252.865Z" fill="white"/>
<path d="M216 128C220.418 128 224 124.418 224 120C224 115.582 220.418 112 216 112C211.582 112 208 115.582 208 120C208 124.418 211.582 128 216 128Z" fill="white"/>
<path d="M280 128C284.418 128 288 124.418 288 120C288 115.582 284.418 112 280 112C275.582 112 272 115.582 272 120C272 124.418 275.582 128 280 128Z" fill="white"/>
<path d="M240 304.002H256V320.002H240V304.002ZM248 176.002C235.848 176.002 229.816 170.49 229.568 170.258L218.344 181.658C219.4 182.714 229.224 192.002 248 192.002C266.776 192.002 276.6 182.714 277.656 181.658L266.432 170.258C266.184 170.49 260.152 176.002 248 176.002Z" fill="white"/>
</svg>
