<svg width="480" height="480" viewBox="0 0 480 480" fill="none" xmlns="http://www.w3.org/2000/svg">
<path d="M88.0194 0C81.6646 0.0238404 75.5765 2.55676 71.0801 7.04746C66.5838 11.5381 64.0432 17.6231 64.0113 23.9778V279.993C64.0113 290.666 80.0369 290.666 80.0369 279.993V80.0369H399.973V279.993C399.731 290.878 416.24 290.878 415.998 279.993V23.9778C415.966 17.6283 413.43 11.5479 408.94 7.05806C404.45 2.56822 398.37 0.0317879 392.02 0H88.0194ZM88.0194 16.0255H392.02C396.556 16.0255 399.973 19.412 399.973 23.9778V64.0113H80.0369V23.9778C80.0369 19.412 83.4234 15.9953 87.9891 15.9953L88.0194 16.0255ZM104.015 31.9906C102.962 31.9906 101.92 32.1978 100.948 32.6005C99.9761 33.0032 99.0928 33.5934 98.3488 34.3374C97.6047 35.0815 97.0145 35.9648 96.6118 36.937C96.2091 37.9091 96.0019 38.9511 96.0019 40.0033C96.0019 41.0556 96.2091 42.0975 96.6118 43.0697C97.0145 44.0418 97.6047 44.9251 98.3488 45.6692C99.0928 46.4132 99.9761 47.0034 100.948 47.4061C101.92 47.8088 102.962 48.0161 104.015 48.0161C106.14 48.0161 108.178 47.1719 109.681 45.6692C111.183 44.1665 112.027 42.1284 112.027 40.0033C112.027 37.8782 111.183 35.8401 109.681 34.3374C108.178 32.8348 106.14 31.9906 104.015 31.9906ZM136.005 31.9906C134.953 31.9906 133.911 32.1978 132.939 32.6005C131.967 33.0032 131.083 33.5934 130.339 34.3374C129.595 35.0815 129.005 35.9648 128.602 36.937C128.2 37.9091 127.992 38.9511 127.992 40.0033C127.992 41.0556 128.2 42.0975 128.602 43.0697C129.005 44.0418 129.595 44.9251 130.339 45.6692C131.083 46.4132 131.967 47.0034 132.939 47.4061C133.911 47.8088 134.953 48.0161 136.005 48.0161C138.13 48.0161 140.168 47.1719 141.671 45.6692C143.174 44.1665 144.018 42.1284 144.018 40.0033C144.018 37.8782 143.174 35.8401 141.671 34.3374C140.168 32.8348 138.13 31.9906 136.005 31.9906ZM167.996 31.9906C166.944 31.9906 165.902 32.1978 164.929 32.6005C163.957 33.0032 163.074 33.5934 162.33 34.3374C161.586 35.0815 160.996 35.9648 160.593 36.937C160.19 37.9091 159.983 38.9511 159.983 40.0033C159.983 41.0556 160.19 42.0975 160.593 43.0697C160.996 44.0418 161.586 44.9251 162.33 45.6692C163.074 46.4132 163.957 47.0034 164.929 47.4061C165.902 47.8088 166.944 48.0161 167.996 48.0161C170.121 48.0161 172.159 47.1719 173.662 45.6692C175.164 44.1665 176.009 42.1284 176.009 40.0033C176.009 37.8782 175.164 35.8401 173.662 34.3374C172.159 32.8348 170.121 31.9906 167.996 31.9906ZM279.6 31.9906C268.805 32.7465 269.531 48.2882 279.993 48.0161H376.025C386.457 47.7742 386.457 32.2324 376.025 31.9906H279.6ZM24.0383 48.0161C17.6807 48.0398 11.5894 50.5718 7.08824 55.0616C2.58707 59.5515 0.0397902 65.6364 0 71.9939V360C0 373.153 10.8853 383.977 24.0383 383.977H456.001C462.351 383.946 468.431 381.409 472.921 376.919C477.411 372.429 479.947 366.349 479.979 360V71.9939C479.947 65.6444 477.411 59.564 472.921 55.0741C468.431 50.5843 462.351 48.0479 456.001 48.0161H439.976C429.091 47.7742 429.091 64.2532 439.976 64.0113H456.001C460.567 64.0113 463.954 67.3979 463.954 71.9939V304.001H15.9953V71.9939C15.9953 67.3979 19.4725 64.0113 24.0383 64.0113H39.9731C50.8583 64.2532 50.8583 47.7742 39.9731 47.9858L24.0383 48.0161ZM264.119 111.876C262.404 111.861 260.73 112.396 259.342 113.403C257.954 114.41 256.926 115.835 256.408 117.47L208.392 261.458C205.006 271.587 220.184 276.667 223.601 266.538L271.617 122.52C272.035 121.318 272.161 120.034 271.984 118.774C271.807 117.514 271.332 116.314 270.599 115.274C269.866 114.234 268.896 113.383 267.769 112.792C266.642 112.201 265.391 111.887 264.119 111.876ZM298.891 158.139L339.499 192.004L298.891 225.899C290.213 232.672 300.917 245.493 309.171 238.175L357.097 198.172C357.993 197.42 358.714 196.481 359.208 195.42C359.703 194.36 359.959 193.204 359.959 192.034C359.959 190.864 359.703 189.708 359.208 188.648C358.714 187.587 357.993 186.648 357.097 185.896L309.141 145.862C307.594 144.568 305.624 143.89 303.608 143.957C296.049 144.623 293.327 153.633 298.891 158.169V158.139ZM175.827 143.927C174.016 143.987 172.279 144.658 170.898 145.832L122.913 185.866C122.016 186.618 121.296 187.557 120.801 188.617C120.307 189.678 120.05 190.834 120.05 192.004C120.05 193.174 120.307 194.33 120.801 195.39C121.296 196.451 122.016 197.39 122.913 198.142L170.868 238.145C179.123 245.825 190.159 232.582 181.088 225.869L140.45 192.004L181.149 158.169C182.445 157.109 183.376 155.67 183.812 154.053C184.248 152.437 184.167 150.724 183.58 149.156C182.993 147.589 181.929 146.244 180.539 145.311C179.148 144.379 177.5 143.875 175.827 143.927ZM15.9953 320.026H463.984V360C464.013 361.053 463.827 362.102 463.438 363.081C463.049 364.061 462.465 364.951 461.721 365.698C460.977 366.444 460.089 367.032 459.111 367.425C458.133 367.817 457.085 368.007 456.032 367.982H24.0383C22.9782 368.015 21.9225 367.832 20.9357 367.443C19.9488 367.055 19.0516 366.469 18.2988 365.722C17.546 364.975 16.9535 364.082 16.5574 363.098C16.1614 362.114 15.9701 361.06 15.9953 360V320.026ZM256.438 336.022H223.632C213.411 337.231 214.107 351.684 223.994 351.957H256.015C266.991 352.954 267.898 336.233 256.438 336.022ZM195.148 399.368C193.578 399.336 192.033 399.766 190.705 400.604C189.378 401.443 188.326 402.653 187.68 404.085C183.81 412.339 176.916 421.985 165.002 431.993H152C145.648 432.041 139.571 434.592 135.088 439.092C130.604 443.593 128.077 449.679 128.053 456.032V471.966C128.023 476.381 131.591 479.979 136.005 480.009H344.004C345.059 480.009 346.103 479.801 347.078 479.397C348.052 478.992 348.936 478.399 349.681 477.652C350.425 476.905 351.015 476.018 351.416 475.042C351.817 474.066 352.021 473.021 352.017 471.966V456.032C351.977 449.674 349.436 443.587 344.943 439.088C340.45 434.59 334.367 432.041 328.009 431.993H315.007C303.124 422.015 296.2 412.339 292.33 404.085C291.933 403.061 291.33 402.13 290.558 401.349C289.787 400.568 288.863 399.954 287.844 399.545C286.825 399.136 285.733 398.941 284.636 398.971C283.538 399.002 282.459 399.257 281.464 399.722C280.47 400.188 279.581 400.852 278.854 401.675C278.127 402.497 277.577 403.461 277.238 404.505C276.899 405.549 276.778 406.652 276.882 407.744C276.987 408.837 277.315 409.897 277.846 410.858C280.961 417.51 285.708 424.706 292.148 431.993H187.861C194.272 424.737 199.049 417.54 202.163 410.828C202.745 409.622 203.015 408.289 202.949 406.952C202.882 405.615 202.482 404.315 201.785 403.172C201.087 402.03 200.114 401.08 198.955 400.41C197.796 399.74 196.487 399.372 195.148 399.338V399.368ZM152 447.989H327.979C329.042 447.964 330.099 448.155 331.086 448.55C332.073 448.946 332.969 449.537 333.721 450.289C334.473 451.041 335.065 451.938 335.46 452.925C335.855 453.912 336.047 454.969 336.022 456.032V464.014H144.018V456.032C144.018 451.466 147.435 447.989 152 447.989Z" fill="url(#paint0_linear_743_66)"/>
<defs>
<linearGradient id="paint0_linear_743_66" x1="-0.999947" y1="5.50005" x2="440.004" y2="432.481" gradientUnits="userSpaceOnUse">
<stop stop-color="#8705FF"/>
<stop offset="1" stop-color="#CC00FF"/>
</linearGradient>
</defs>
</svg>
