<svg width="459" height="512" viewBox="0 0 459 512" fill="none" xmlns="http://www.w3.org/2000/svg">
<path fill-rule="evenodd" clip-rule="evenodd" d="M184.384 96.513C184.382 95.463 184.587 94.423 184.988 93.4524C185.388 92.4819 185.976 91.5998 186.718 90.8567C187.46 90.1136 188.341 89.5241 189.311 89.122C190.281 88.7198 191.32 88.5129 192.37 88.513H192.892C193.946 88.5012 194.991 88.6985 195.968 89.0935C196.945 89.4885 197.834 90.0734 198.583 90.8142C199.332 91.5551 199.927 92.4372 200.333 93.4094C200.739 94.3817 200.948 95.4249 200.948 96.4785C200.948 97.5321 200.739 98.5753 200.333 99.5476C199.927 100.52 199.332 101.402 198.583 102.143C197.834 102.884 196.945 103.468 195.968 103.863C194.991 104.258 193.946 104.456 192.892 104.444H192.37C190.261 104.448 188.235 103.616 186.738 102.129C185.241 100.643 184.395 98.6226 184.384 96.513ZM158.784 96.513C158.783 95.4621 158.989 94.4214 159.391 93.4503C159.793 92.4792 160.382 91.5969 161.125 90.8538C161.868 90.1107 162.75 89.5215 163.722 89.1198C164.693 88.7182 165.733 88.5119 166.784 88.513H167.306C168.36 88.5012 169.405 88.6985 170.382 89.0935C171.359 89.4885 172.248 90.0734 172.997 90.8142C173.746 91.5551 174.341 92.4372 174.747 93.4094C175.153 94.3817 175.362 95.4249 175.362 96.4785C175.362 97.5321 175.153 98.5753 174.747 99.5476C174.341 100.52 173.746 101.402 172.997 102.143C172.248 102.884 171.359 103.468 170.382 103.863C169.405 104.258 168.36 104.456 167.306 104.444H166.779C164.668 104.45 162.64 103.618 161.141 102.132C159.641 100.646 158.792 98.6254 158.779 96.514L158.784 96.513ZM133.195 96.513C133.194 95.4621 133.4 94.4214 133.802 93.4503C134.204 92.4792 134.793 91.5969 135.536 90.8538C136.279 90.1107 137.161 89.5215 138.133 89.1198C139.104 88.7182 140.144 88.5119 141.195 88.513H141.717C142.771 88.5012 143.816 88.6985 144.793 89.0935C145.77 89.4885 146.659 90.0734 147.408 90.8142C148.157 91.5551 148.752 92.4372 149.158 93.4094C149.564 94.3817 149.773 95.4249 149.773 96.4785C149.773 97.5321 149.564 98.5753 149.158 99.5476C148.752 100.52 148.157 101.402 147.408 102.143C146.659 102.884 145.77 103.468 144.793 103.863C143.816 104.258 142.771 104.456 141.717 104.444H141.195C139.084 104.45 137.056 103.618 135.557 102.132C134.057 100.646 133.208 98.6244 133.195 96.513ZM269.979 263.251C269.979 264.303 269.771 265.344 269.367 266.315C268.964 267.287 268.373 268.169 267.629 268.912C266.885 269.655 266.001 270.244 265.029 270.645C264.057 271.047 263.015 271.252 261.963 271.251H261.449C259.328 271.251 257.293 270.408 255.792 268.908C254.292 267.408 253.449 265.373 253.449 263.251C253.449 261.129 254.292 259.094 255.792 257.594C257.293 256.094 259.328 255.251 261.449 255.251H261.963C263.015 255.25 264.057 255.455 265.029 255.857C266.001 256.258 266.885 256.847 267.629 257.59C268.373 258.333 268.964 259.215 269.367 260.187C269.771 261.158 269.979 262.199 269.979 263.251ZM244.379 263.251C244.379 265.372 243.537 267.406 242.038 268.906C240.539 270.406 238.506 271.249 236.385 271.251H235.842C233.721 271.251 231.686 270.408 230.185 268.908C228.685 267.408 227.842 265.373 227.842 263.251C227.842 261.129 228.685 259.094 230.185 257.594C231.686 256.094 233.721 255.251 235.842 255.251H236.385C238.506 255.253 240.539 256.096 242.038 257.596C243.537 259.096 244.379 261.13 244.379 263.251ZM218.779 263.251C218.78 264.302 218.574 265.343 218.172 266.314C217.771 267.285 217.182 268.167 216.438 268.91C215.695 269.653 214.813 270.243 213.842 270.644C212.871 271.046 211.83 271.252 210.779 271.251H210.257C208.136 271.251 206.101 270.408 204.6 268.908C203.1 267.408 202.257 265.373 202.257 263.251C202.257 261.129 203.1 259.094 204.6 257.594C206.101 256.094 208.136 255.251 210.257 255.251H210.779C211.83 255.25 212.871 255.456 213.842 255.858C214.813 256.259 215.695 256.849 216.438 257.592C217.182 258.335 217.771 259.217 218.172 260.188C218.574 261.159 218.78 262.2 218.779 263.251ZM309.048 430.059C309.046 432.182 308.202 434.217 306.7 435.717C305.199 437.217 303.163 438.059 301.04 438.059H300.519C298.398 438.059 296.363 437.216 294.862 435.716C293.362 434.216 292.519 432.181 292.519 430.059C292.519 427.937 293.362 425.902 294.862 424.402C296.363 422.902 298.398 422.059 300.519 422.059H301.04C303.163 422.059 305.199 422.901 306.7 424.401C308.202 425.901 309.046 427.936 309.048 430.059ZM283.438 430.059C283.439 431.11 283.233 432.151 282.831 433.122C282.43 434.093 281.841 434.975 281.097 435.718C280.354 436.461 279.472 437.051 278.501 437.452C277.53 437.854 276.489 438.06 275.438 438.059H274.93C272.809 438.059 270.774 437.216 269.273 435.716C267.773 434.216 266.93 432.181 266.93 430.059C266.93 427.937 267.773 425.902 269.273 424.402C270.774 422.902 272.809 422.059 274.93 422.059H275.438C276.489 422.058 277.53 422.264 278.501 422.666C279.472 423.067 280.354 423.657 281.097 424.4C281.841 425.143 282.43 426.025 282.831 426.996C283.233 427.967 283.439 429.008 283.438 430.059ZM257.848 430.059C257.849 431.11 257.643 432.151 257.241 433.122C256.84 434.093 256.251 434.975 255.507 435.718C254.764 436.461 253.882 437.051 252.911 437.452C251.94 437.854 250.899 438.06 249.848 438.059H249.327C247.206 438.059 245.171 437.216 243.67 435.716C242.17 434.216 241.327 432.181 241.327 430.059C241.327 427.937 242.17 425.902 243.67 424.402C245.171 422.902 247.206 422.059 249.327 422.059H249.848C250.899 422.058 251.94 422.264 252.911 422.666C253.882 423.067 254.764 423.657 255.507 424.4C256.251 425.143 256.84 426.025 257.241 426.996C257.643 427.967 257.849 429.008 257.848 430.059ZM362.443 65.01C368.654 65.0029 374.727 66.8376 379.895 70.2821C385.062 73.7267 389.093 78.6263 391.476 84.3614C393.859 90.0965 394.488 96.4095 393.283 102.502C392.078 108.594 389.093 114.193 384.706 118.589C380.32 122.985 374.728 125.982 368.638 127.2C362.548 128.418 356.234 127.803 350.493 125.432C344.753 123.062 339.845 119.042 336.389 113.882C332.933 108.722 331.086 102.653 331.079 96.442C331.073 88.1157 334.374 80.1278 340.255 74.2338C346.136 68.3398 354.117 65.0222 362.443 65.01ZM362.443 143.81C371.822 143.82 380.993 141.048 388.795 135.844C396.597 130.64 402.681 123.239 406.275 114.576C409.869 105.914 410.813 96.3798 408.987 87.1808C407.161 77.9817 402.647 69.5312 396.016 62.8985C389.386 56.2658 380.937 51.7492 371.738 49.9202C362.54 48.0911 353.005 49.032 344.342 52.6236C335.678 56.2152 328.275 62.2961 323.069 70.0969C317.862 77.8976 315.087 87.0675 315.094 96.446C315.117 108.998 320.112 121.03 328.986 129.907C337.861 138.784 349.891 143.784 362.443 143.81ZM122.733 412.128L82.3913 458.635C81.6869 459.452 80.8214 460.115 79.849 460.582C78.8767 461.049 77.8183 461.31 76.7403 461.349H76.3553C74.3189 461.345 72.3574 460.581 70.8553 459.206L42.1433 431.917C41.3834 431.194 40.7733 430.329 40.3479 429.37C39.9225 428.411 39.69 427.378 39.6638 426.33C39.6376 425.281 39.8182 424.238 40.1953 423.259C40.5723 422.281 41.1384 421.386 41.8613 420.626C42.5841 419.866 43.4496 419.256 44.4082 418.831C45.3669 418.405 46.3999 418.173 47.4484 418.147C48.4968 418.12 49.5402 418.301 50.5189 418.678C51.4976 419.055 52.3924 419.621 53.1523 420.344L75.8053 441.775L110.638 401.627C112.031 400.022 114.003 399.037 116.123 398.887C118.242 398.737 120.334 399.435 121.938 400.827C123.543 402.219 124.529 404.192 124.679 406.311C124.829 408.43 124.131 410.522 122.738 412.127L122.733 412.128ZM367.458 422.058H348.158C346.463 413.068 341.683 404.951 334.643 399.109C327.603 393.267 318.744 390.066 309.595 390.058H240.755C231.607 390.063 222.747 393.263 215.708 399.106C208.668 404.949 203.89 413.067 202.2 422.058H163.645C161.582 401.132 151.549 381.8 135.624 368.068C119.699 354.337 99.1022 347.256 78.0999 348.293C57.0976 349.331 37.2989 358.407 22.8047 373.641C8.31046 388.876 0.231248 409.102 0.240448 430.129C0.249648 451.157 8.34655 471.376 22.8541 486.598C37.3617 501.82 57.1682 510.878 78.1714 511.897C99.1746 512.916 119.765 505.818 135.678 492.072C151.591 478.326 161.607 458.986 163.652 438.058H202.2C203.89 447.049 208.668 455.167 215.708 461.01C222.747 466.853 231.607 470.053 240.755 470.058H309.593C318.742 470.05 327.601 466.849 334.641 461.007C341.681 455.165 346.461 447.048 348.156 438.058H367.456C379.46 438.058 391.346 435.694 402.435 431.1C413.525 426.507 423.602 419.774 432.089 411.286C440.577 402.798 447.31 392.722 451.904 381.632C456.497 370.542 458.861 358.656 458.861 346.653C458.861 334.65 456.497 322.764 451.904 311.674C447.31 300.584 440.577 290.508 432.089 282.02C423.602 273.532 413.525 266.799 402.435 262.206C391.346 257.612 379.46 255.248 367.456 255.248H309.093C307.398 246.257 302.618 238.139 295.576 232.297C288.534 226.455 279.674 223.254 270.524 223.248H201.693C192.544 223.254 183.685 226.455 176.644 232.297C169.604 238.14 164.824 246.257 163.131 255.248H91.6713C71.6732 255.248 52.4941 247.304 38.3533 233.163C24.2125 219.022 16.2683 199.843 16.2683 179.845C16.2683 159.847 24.2125 140.668 38.3533 126.527C52.4941 112.386 71.6732 104.442 91.6713 104.442H94.0713C95.7561 113.443 100.531 121.574 107.571 127.43C114.612 133.286 123.476 136.501 132.633 136.518H201.464C210.621 136.495 219.483 133.279 226.524 127.424C233.564 121.569 238.342 113.441 240.033 104.442H266.033V110.728C266.038 113.241 266.921 115.673 268.529 117.604C270.138 119.535 272.37 120.843 274.841 121.301L287.607 123.73C288.388 125.86 289.255 127.958 290.207 130.017L282.879 140.734C281.459 142.81 280.809 145.318 281.042 147.823C281.275 150.328 282.377 152.672 284.157 154.45L304.389 174.667C306.164 176.457 308.511 177.567 311.021 177.802C313.531 178.037 316.043 177.382 318.119 175.953L328.892 168.595C330.933 169.524 333.006 170.382 335.107 171.167L337.529 184.026C338 186.496 339.316 188.724 341.253 190.328C343.189 191.932 345.623 192.81 348.137 192.813H376.737C379.253 192.813 381.69 191.935 383.628 190.331C385.565 188.727 386.883 186.497 387.353 184.026L389.775 171.167C391.886 170.414 393.958 169.556 395.983 168.595L406.756 175.953C408.834 177.383 411.347 178.037 413.858 177.802C416.369 177.567 418.717 176.457 420.493 174.667L440.725 154.45C442.505 152.672 443.607 150.328 443.84 147.823C444.074 145.318 443.424 142.81 442.003 140.734L434.679 130.019C435.622 127.947 436.508 125.875 437.286 123.732L450.045 121.303C452.519 120.848 454.755 119.541 456.367 117.61C457.978 115.679 458.863 113.245 458.868 110.73V82.083C458.859 79.569 457.973 77.1371 456.362 75.207C454.751 73.2769 452.517 71.9697 450.045 71.511L437.358 69.082C436.558 66.939 435.686 64.795 434.714 62.723L442.008 52.079C443.431 50.0042 444.084 47.4966 443.851 44.9913C443.619 42.486 442.517 40.141 440.737 38.363L420.501 18.146C418.725 16.3558 416.377 15.2462 413.866 15.0112C411.355 14.7761 408.842 15.4305 406.764 16.86L396.134 24.147C394.04 23.147 391.898 22.218 389.74 21.432L387.361 8.788C386.891 6.31653 385.574 4.08647 383.636 2.48225C381.698 0.87803 379.261 0.000169193 376.745 0L348.145 0C345.631 0.00256302 343.197 0.881337 341.26 2.4851C339.324 4.08887 338.008 6.31733 337.537 8.787L335.144 21.431C332.986 22.217 330.857 23.146 328.764 24.146L318.123 16.86C316.047 15.431 313.535 14.7769 311.025 15.012C308.515 15.247 306.168 16.3563 304.393 18.146L284.161 38.363C282.381 40.1404 281.278 42.4846 281.044 44.9895C280.81 47.4945 281.459 50.0024 282.879 52.079L290.179 62.723C289.218 64.8078 288.339 66.9291 287.542 69.082L274.842 71.511C272.372 71.9692 270.139 73.2767 268.53 75.2073C266.922 77.1379 266.039 79.5701 266.034 82.083V88.513H240.034C238.343 79.5136 233.565 71.3861 226.525 65.531C219.484 59.6758 210.622 56.4598 201.465 56.437H132.634C123.477 56.4543 114.612 59.6685 107.572 65.5247C100.532 71.381 95.7569 79.5116 94.0723 88.513H91.6723C79.648 88.4732 67.7342 90.8072 56.6138 95.3811C45.4934 99.9551 35.3851 106.679 26.8686 115.167C18.3521 123.656 11.5948 133.742 6.98408 144.847C2.37338 155.952 0 167.858 0 179.883C0 191.907 2.37338 203.813 6.98408 214.918C11.5948 226.023 18.3521 236.109 26.8686 244.598C35.3851 253.086 45.4934 259.81 56.6138 264.384C67.7342 268.958 79.648 271.292 91.6723 271.252H163.132C164.825 280.243 169.605 288.36 176.645 294.203C183.686 300.045 192.545 303.246 201.694 303.252H270.525C279.675 303.246 288.535 300.045 295.577 294.203C302.619 288.361 307.399 280.243 309.094 271.252H367.459C387.457 271.252 406.636 279.196 420.777 293.337C434.918 307.478 442.862 326.657 442.862 346.655C442.862 366.653 434.918 385.832 420.777 399.973C406.636 414.114 387.457 422.058 367.459 422.058H367.458Z" fill="url(#paint0_linear_743_46)"/>
<defs>
<linearGradient id="paint0_linear_743_46" x1="-0.955966" y1="5.86653" x2="464.986" y2="410.209" gradientUnits="userSpaceOnUse">
<stop stop-color="#8705FF"/>
<stop offset="1" stop-color="#CC00FF"/>
</linearGradient>
</defs>
</svg>
