<svg width="513" height="512" viewBox="0 0 513 512" fill="none" xmlns="http://www.w3.org/2000/svg">
<path d="M506.7 119.6C503.8 119.6 501.4 122 501.4 124.9V485.3C501.4 494.1 494.2 501.3 485.4 501.3H26.7C17.9 501.3 10.7 494.1 10.7 485.3V124.9C10.7 122 8.3 119.6 5.4 119.6C2.5 119.6 0 122 0 124.9V485.3C0 500 12 512 26.7 512H485.4C500.1 512 512.1 500 512.1 485.3V124.9C512 122 509.6 119.6 506.7 119.6ZM203.1 294.8C200.2 294.8 197.8 297.2 197.8 300.1V382.9C197.8 385.8 200.2 388.2 203.1 388.2H308.9C311.8 388.2 314.2 385.8 314.2 382.9V300.1C314.2 297.2 311.8 294.8 308.9 294.8H203.1ZM303.6 377.6H208.4V305.4H303.6V377.6ZM42.7 464C42.7 466.9 45.1 469.3 48 469.3H464C466.9 469.3 469.3 466.9 469.3 464V425.6C469.3 422.7 466.9 420.3 464 420.3H48C45.1 420.3 42.7 422.7 42.7 425.6V464ZM53.3 430.9H458.6V458.6H53.3V430.9ZM42.7 146.2V257.4C42.7 260 45 262.7 48 262.7H464C467.6 262.3 469.4 260.1 469.4 257.4V146.2C469.4 143.3 467 140.9 464.1 140.9H48C45.3 140.9 42.7 143.6 42.7 146.2ZM235.3 201.8L53.3 250.5V153.2L235.3 201.8ZM256 207.4L423.4 252.1H88.6L256 207.4ZM458.7 250.5L276.7 201.8L385.6 172.7C388.4 171.9 390.1 169 389.4 166.2C388.6 163.4 385.7 161.7 382.9 162.4L256 196.3L88.6 151.6H458.7V250.5ZM109.2 108.9H165.7C168.6 108.9 171 106.5 171 103.6C171 100.7 168.6 98.3 165.7 98.3H109.2C106.3 98.3 103.9 100.7 103.9 103.6C103.8 106.5 106.2 108.9 109.2 108.9ZM485.3 0H26.7C12 0 0 12 0 26.7V103.6C0 106.5 2.4 108.9 5.3 108.9H79C81.9 108.9 84.3 106.5 84.3 103.6C84.3 100.7 81.9 98.3 79 98.3H10.7V26.7C10.7 17.9 17.9 10.7 26.7 10.7H485.4C494.2 10.7 501.4 17.9 501.4 26.7V98.2H194.6C191.7 98.2 189.3 100.6 189.3 103.5C189.3 106.4 191.7 108.8 194.6 108.8H506.8C508.2 108.8 509.6 108.2 510.6 107.2C511.6 106.2 512.2 104.8 512.2 103.4V26.7C512 12 500 0 485.3 0ZM480 54.4C480 43.4 471 34.4 460 34.4C449 34.4 440 43.4 440 54.4C440 65.4 449 74.4 460 74.4C471 74.4 480 65.5 480 54.4ZM450.7 54.4C450.7 49.3 454.9 45.1 460 45.1C465.1 45.1 469.3 49.3 469.3 54.4C469.3 59.5 465.1 63.7 460 63.7C454.9 63.8 450.7 59.6 450.7 54.4ZM426.8 54.4C426.8 43.4 417.8 34.4 406.8 34.4C395.8 34.4 386.8 43.4 386.8 54.4C386.8 65.4 395.8 74.4 406.8 74.4C417.8 74.4 426.8 65.5 426.8 54.4ZM397.5 54.4C397.5 49.3 401.7 45.1 406.8 45.1C411.9 45.1 416.1 49.3 416.1 54.4C416.1 59.5 411.9 63.7 406.8 63.7C401.6 63.8 397.5 59.6 397.5 54.4ZM373.5 54.4C373.5 43.4 364.5 34.4 353.5 34.4C342.5 34.4 333.5 43.4 333.5 54.4C333.5 65.4 342.5 74.4 353.5 74.4C364.6 74.4 373.5 65.5 373.5 54.4ZM344.2 54.4C344.2 49.3 348.4 45.1 353.5 45.1C358.6 45.1 362.8 49.3 362.8 54.4C362.8 59.5 358.6 63.7 353.5 63.7C348.4 63.8 344.2 59.6 344.2 54.4ZM248.1 54.5C248.1 49.2 246 44.1 242.2 40.4C238.4 36.6 233.4 34.5 228.1 34.5H52C41 34.5 32 43.5 32 54.5C32 65.5 41 74.5 52 74.5H228.1C239.1 74.5 248.1 65.5 248.1 54.5ZM42.7 54.5C42.7 49.4 46.9 45.2 52 45.2H228.1C230.6 45.2 232.9 46.2 234.7 47.9C236.5 49.7 237.4 52 237.4 54.5C237.4 59.6 233.2 63.8 228.1 63.8H52C46.9 63.8 42.7 59.6 42.7 54.5ZM42.7 382.9C42.7 385.4 45 388.2 48 388.2H153.8C156.7 388.2 159.1 385.7 159.1 382.9V300.1C159.1 296.5 156.6 295.4 153.8 294.8H48C45.3 294.8 42.7 297.4 42.7 300.1V382.9ZM148.5 372L109.6 341.5L148.5 311V372ZM138.4 377.6H63.5L101 348.3L138.4 377.6ZM100.9 334.7L63.4 305.4H138.3L100.9 334.7ZM92.3 341.5L53.3 372V311L92.3 341.5ZM464 294.8H358.1C354 295.7 352.8 297.8 352.8 300.1V382.9C352.8 385.8 355.2 388.2 358.1 388.2H464C467 388.2 469.3 385.5 469.3 382.9V300.1C469.3 297.4 466.7 294.8 464 294.8ZM363.5 311L402.4 341.5L363.5 372V311ZM373.6 305.4H448.5L411 334.7L373.6 305.4ZM411.1 348.3L448.6 377.6H373.7L411.1 348.3ZM419.7 341.5L458.6 311V372L419.7 341.5ZM506.7 119.6C503.8 119.6 501.4 122 501.4 124.9V485.3C501.4 494.1 494.2 501.3 485.4 501.3H26.7C17.9 501.3 10.7 494.1 10.7 485.3V124.9C10.7 122 8.3 119.6 5.4 119.6C2.5 119.6 0 122 0 124.9V485.3C0 500 12 512 26.7 512H485.4C500.1 512 512.1 500 512.1 485.3V124.9C512 122 509.6 119.6 506.7 119.6ZM203.1 294.8C200.2 294.8 197.8 297.2 197.8 300.1V382.9C197.8 385.8 200.2 388.2 203.1 388.2H308.9C311.8 388.2 314.2 385.8 314.2 382.9V300.1C314.2 297.2 311.8 294.8 308.9 294.8H203.1ZM303.6 377.6H208.4V305.4H303.6V377.6ZM42.7 464C42.7 466.9 45.1 469.3 48 469.3H464C466.9 469.3 469.3 466.9 469.3 464V425.6C469.3 422.7 466.9 420.3 464 420.3H48C45.1 420.3 42.7 422.7 42.7 425.6V464ZM53.3 430.9H458.6V458.6H53.3V430.9ZM42.7 146.2V257.4C42.7 260 45 262.7 48 262.7H464C467.6 262.3 469.4 260.1 469.4 257.4V146.2C469.4 143.3 467 140.9 464.1 140.9H48C45.3 140.9 42.7 143.6 42.7 146.2ZM235.3 201.8L53.3 250.5V153.2L235.3 201.8ZM256 207.4L423.4 252.1H88.6L256 207.4ZM458.7 250.5L276.7 201.8L385.6 172.7C388.4 171.9 390.1 169 389.4 166.2C388.6 163.4 385.7 161.7 382.9 162.4L256 196.3L88.6 151.6H458.7V250.5ZM109.2 108.9H165.7C168.6 108.9 171 106.5 171 103.6C171 100.7 168.6 98.3 165.7 98.3H109.2C106.3 98.3 103.9 100.7 103.9 103.6C103.8 106.5 106.2 108.9 109.2 108.9ZM485.3 0H26.7C12 0 0 12 0 26.7V103.6C0 106.5 2.4 108.9 5.3 108.9H79C81.9 108.9 84.3 106.5 84.3 103.6C84.3 100.7 81.9 98.3 79 98.3H10.7V26.7C10.7 17.9 17.9 10.7 26.7 10.7H485.4C494.2 10.7 501.4 17.9 501.4 26.7V98.2H194.6C191.7 98.2 189.3 100.6 189.3 103.5C189.3 106.4 191.7 108.8 194.6 108.8H506.8C508.2 108.8 509.6 108.2 510.6 107.2C511.6 106.2 512.2 104.8 512.2 103.4V26.7C512 12 500 0 485.3 0ZM480 54.4C480 43.4 471 34.4 460 34.4C449 34.4 440 43.4 440 54.4C440 65.4 449 74.4 460 74.4C471 74.4 480 65.5 480 54.4ZM450.7 54.4C450.7 49.3 454.9 45.1 460 45.1C465.1 45.1 469.3 49.3 469.3 54.4C469.3 59.5 465.1 63.7 460 63.7C454.9 63.8 450.7 59.6 450.7 54.4ZM426.8 54.4C426.8 43.4 417.8 34.4 406.8 34.4C395.8 34.4 386.8 43.4 386.8 54.4C386.8 65.4 395.8 74.4 406.8 74.4C417.8 74.4 426.8 65.5 426.8 54.4ZM397.5 54.4C397.5 49.3 401.7 45.1 406.8 45.1C411.9 45.1 416.1 49.3 416.1 54.4C416.1 59.5 411.9 63.7 406.8 63.7C401.6 63.8 397.5 59.6 397.5 54.4ZM373.5 54.4C373.5 43.4 364.5 34.4 353.5 34.4C342.5 34.4 333.5 43.4 333.5 54.4C333.5 65.4 342.5 74.4 353.5 74.4C364.6 74.4 373.5 65.5 373.5 54.4ZM344.2 54.4C344.2 49.3 348.4 45.1 353.5 45.1C358.6 45.1 362.8 49.3 362.8 54.4C362.8 59.5 358.6 63.7 353.5 63.7C348.4 63.8 344.2 59.6 344.2 54.4ZM248.1 54.5C248.1 49.2 246 44.1 242.2 40.4C238.4 36.6 233.4 34.5 228.1 34.5H52C41 34.5 32 43.5 32 54.5C32 65.5 41 74.5 52 74.5H228.1C239.1 74.5 248.1 65.5 248.1 54.5ZM42.7 54.5C42.7 49.4 46.9 45.2 52 45.2H228.1C230.6 45.2 232.9 46.2 234.7 47.9C236.5 49.7 237.4 52 237.4 54.5C237.4 59.6 233.2 63.8 228.1 63.8H52C46.9 63.8 42.7 59.6 42.7 54.5ZM42.7 382.9C42.7 385.4 45 388.2 48 388.2H153.8C156.7 388.2 159.1 385.7 159.1 382.9V300.1C159.1 296.5 156.6 295.4 153.8 294.8H48C45.3 294.8 42.7 297.4 42.7 300.1V382.9ZM148.5 372L109.6 341.5L148.5 311V372ZM138.4 377.6H63.5L101 348.3L138.4 377.6ZM100.9 334.7L63.4 305.4H138.3L100.9 334.7ZM92.3 341.5L53.3 372V311L92.3 341.5ZM464 294.8H358.1C354 295.7 352.8 297.8 352.8 300.1V382.9C352.8 385.8 355.2 388.2 358.1 388.2H464C467 388.2 469.3 385.5 469.3 382.9V300.1C469.3 297.4 466.7 294.8 464 294.8ZM363.5 311L402.4 341.5L363.5 372V311ZM373.6 305.4H448.5L411 334.7L373.6 305.4ZM411.1 348.3L448.6 377.6H373.7L411.1 348.3ZM419.7 341.5L458.6 311V372L419.7 341.5ZM506.7 119.6C503.8 119.6 501.4 122 501.4 124.9V485.3C501.4 494.1 494.2 501.3 485.4 501.3H26.7C17.9 501.3 10.7 494.1 10.7 485.3V124.9C10.7 122 8.3 119.6 5.4 119.6C2.5 119.6 0 122 0 124.9V485.3C0 500 12 512 26.7 512H485.4C500.1 512 512.1 500 512.1 485.3V124.9C512 122 509.6 119.6 506.7 119.6ZM203.1 294.8C200.2 294.8 197.8 297.2 197.8 300.1V382.9C197.8 385.8 200.2 388.2 203.1 388.2H308.9C311.8 388.2 314.2 385.8 314.2 382.9V300.1C314.2 297.2 311.8 294.8 308.9 294.8H203.1ZM303.6 377.6H208.4V305.4H303.6V377.6ZM42.7 464C42.7 466.9 45.1 469.3 48 469.3H464C466.9 469.3 469.3 466.9 469.3 464V425.6C469.3 422.7 466.9 420.3 464 420.3H48C45.1 420.3 42.7 422.7 42.7 425.6V464ZM53.3 430.9H458.6V458.6H53.3V430.9ZM42.7 146.2V257.4C42.7 260 45 262.7 48 262.7H464C467.6 262.3 469.4 260.1 469.4 257.4V146.2C469.4 143.3 467 140.9 464.1 140.9H48C45.3 140.9 42.7 143.6 42.7 146.2ZM235.3 201.8L53.3 250.5V153.2L235.3 201.8ZM256 207.4L423.4 252.1H88.6L256 207.4ZM458.7 250.5L276.7 201.8L385.6 172.7C388.4 171.9 390.1 169 389.4 166.2C388.6 163.4 385.7 161.7 382.9 162.4L256 196.3L88.6 151.6H458.7V250.5ZM109.2 108.9H165.7C168.6 108.9 171 106.5 171 103.6C171 100.7 168.6 98.3 165.7 98.3H109.2C106.3 98.3 103.9 100.7 103.9 103.6C103.8 106.5 106.2 108.9 109.2 108.9ZM485.3 0H26.7C12 0 0 12 0 26.7V103.6C0 106.5 2.4 108.9 5.3 108.9H79C81.9 108.9 84.3 106.5 84.3 103.6C84.3 100.7 81.9 98.3 79 98.3H10.7V26.7C10.7 17.9 17.9 10.7 26.7 10.7H485.4C494.2 10.7 501.4 17.9 501.4 26.7V98.2H194.6C191.7 98.2 189.3 100.6 189.3 103.5C189.3 106.4 191.7 108.8 194.6 108.8H506.8C508.2 108.8 509.6 108.2 510.6 107.2C511.6 106.2 512.2 104.8 512.2 103.4V26.7C512 12 500 0 485.3 0ZM480 54.4C480 43.4 471 34.4 460 34.4C449 34.4 440 43.4 440 54.4C440 65.4 449 74.4 460 74.4C471 74.4 480 65.5 480 54.4ZM450.7 54.4C450.7 49.3 454.9 45.1 460 45.1C465.1 45.1 469.3 49.3 469.3 54.4C469.3 59.5 465.1 63.7 460 63.7C454.9 63.8 450.7 59.6 450.7 54.4ZM426.8 54.4C426.8 43.4 417.8 34.4 406.8 34.4C395.8 34.4 386.8 43.4 386.8 54.4C386.8 65.4 395.8 74.4 406.8 74.4C417.8 74.4 426.8 65.5 426.8 54.4ZM397.5 54.4C397.5 49.3 401.7 45.1 406.8 45.1C411.9 45.1 416.1 49.3 416.1 54.4C416.1 59.5 411.9 63.7 406.8 63.7C401.6 63.8 397.5 59.6 397.5 54.4ZM373.5 54.4C373.5 43.4 364.5 34.4 353.5 34.4C342.5 34.4 333.5 43.4 333.5 54.4C333.5 65.4 342.5 74.4 353.5 74.4C364.6 74.4 373.5 65.5 373.5 54.4ZM344.2 54.4C344.2 49.3 348.4 45.1 353.5 45.1C358.6 45.1 362.8 49.3 362.8 54.4C362.8 59.5 358.6 63.7 353.5 63.7C348.4 63.8 344.2 59.6 344.2 54.4ZM248.1 54.5C248.1 49.2 246 44.1 242.2 40.4C238.4 36.6 233.4 34.5 228.1 34.5H52C41 34.5 32 43.5 32 54.5C32 65.5 41 74.5 52 74.5H228.1C239.1 74.5 248.1 65.5 248.1 54.5ZM42.7 54.5C42.7 49.4 46.9 45.2 52 45.2H228.1C230.6 45.2 232.9 46.2 234.7 47.9C236.5 49.7 237.4 52 237.4 54.5C237.4 59.6 233.2 63.8 228.1 63.8H52C46.9 63.8 42.7 59.6 42.7 54.5ZM42.7 382.9C42.7 385.4 45 388.2 48 388.2H153.8C156.7 388.2 159.1 385.7 159.1 382.9V300.1C159.1 296.5 156.6 295.4 153.8 294.8H48C45.3 294.8 42.7 297.4 42.7 300.1V382.9ZM148.5 372L109.6 341.5L148.5 311V372ZM138.4 377.6H63.5L101 348.3L138.4 377.6ZM100.9 334.7L63.4 305.4H138.3L100.9 334.7ZM92.3 341.5L53.3 372V311L92.3 341.5ZM464 294.8H358.1C354 295.7 352.8 297.8 352.8 300.1V382.9C352.8 385.8 355.2 388.2 358.1 388.2H464C467 388.2 469.3 385.5 469.3 382.9V300.1C469.3 297.4 466.7 294.8 464 294.8ZM363.5 311L402.4 341.5L363.5 372V311ZM373.6 305.4H448.5L411 334.7L373.6 305.4ZM411.1 348.3L448.6 377.6H373.7L411.1 348.3ZM419.7 341.5L458.6 311V372L419.7 341.5Z" fill="url(#paint0_linear_743_24)"/>
<defs>
<linearGradient id="paint0_linear_743_24" x1="-1.06707" y1="5.86661" x2="469.335" y2="461.517" gradientUnits="userSpaceOnUse">
<stop stop-color="#8705FF"/>
<stop offset="1" stop-color="#CC00FF"/>
</linearGradient>
</defs>
</svg>
