<svg width="493" height="458" viewBox="0 0 493 458" fill="none" xmlns="http://www.w3.org/2000/svg">
<path d="M481.28 364.544H180.224L168.96 322.56H415.744C419.84 322.56 423.936 319.488 424.96 316.416L491.52 149.504C492.544 146.432 492.544 142.336 490.496 140.288C488.448 137.216 485.376 136.192 482.304 136.192H436.224C430.08 62.464 369.664 5.12 295.936 5.12H294.912C223.232 5.12 160.768 60.416 155.648 136.192H117.76L82.944 8.192C81.92 3.072 77.824 0 72.704 0H10.24C4.096 0 0 4.096 0 10.24C0 16.384 4.096 20.48 10.24 20.48H65.536L162.816 376.832C163.84 380.928 167.936 384 173.056 384H193.536C188.416 391.168 185.344 400.384 185.344 410.624C185.344 436.224 206.848 457.728 232.448 457.728C258.048 457.728 279.552 436.224 279.552 410.624C279.552 400.384 276.48 392.192 271.36 384H382.976C377.856 391.168 374.784 400.384 374.784 410.624C374.784 436.224 396.288 457.728 421.888 457.728C447.488 457.728 468.992 436.224 468.992 410.624C468.992 400.384 465.92 392.192 460.8 384H481.28C487.424 384 491.52 379.904 491.52 373.76C491.52 367.616 486.4 364.544 481.28 364.544ZM414.72 135.168H371.712C371.712 124.928 370.688 113.664 368.64 104.448H407.552C411.648 113.664 413.696 124.928 414.72 135.168ZM368.64 186.368C370.688 176.128 371.712 165.888 371.712 155.648H414.72C413.696 166.912 411.648 177.152 407.552 186.368H368.64ZM398.336 206.848C386.048 228.352 366.592 244.736 344.064 254.976C353.28 241.664 360.448 225.28 364.544 206.848H398.336ZM398.336 83.968H364.544C359.424 64.512 352.256 48.128 344.064 35.84C366.592 45.056 386.048 62.464 398.336 83.968ZM306.176 27.648C321.536 33.792 335.872 54.272 344.064 83.968H306.176V27.648ZM306.176 104.448H348.16C350.208 113.664 351.232 123.904 351.232 135.168H305.152V104.448H306.176ZM306.176 155.648H352.256C352.256 166.912 350.208 177.152 349.184 186.368H307.2V155.648H306.176ZM306.176 206.848H344.064C335.872 236.544 321.536 257.024 306.176 263.168V206.848ZM285.696 27.648V83.968H247.808C256 54.272 270.336 33.792 285.696 27.648ZM242.688 186.368C240.64 177.152 239.616 165.888 239.616 155.648H285.696V186.368H242.688ZM285.696 206.848V263.168C270.336 257.024 256 236.544 247.808 206.848H285.696ZM226.304 206.848C231.424 226.304 238.592 242.688 246.784 254.976C224.256 244.736 204.8 227.328 192.512 206.848H226.304ZM183.296 186.368C180.224 176.128 177.152 165.888 176.128 155.648H219.136C219.136 165.888 220.16 177.152 222.208 186.368H183.296ZM239.616 135.168C239.616 123.904 241.664 113.664 242.688 104.448H284.672V135.168H239.616ZM246.784 34.816C237.568 48.128 230.4 64.512 226.304 82.944H192.512C204.8 62.464 224.256 45.056 246.784 34.816ZM183.296 104.448H222.208C220.16 114.688 220.16 124.928 219.136 135.168H176.128C177.152 124.928 179.2 113.664 183.296 104.448ZM162.816 302.08L122.88 155.648H155.648C160.768 230.4 223.232 285.696 294.912 286.72H295.936C367.616 286.72 430.08 230.4 435.2 155.648H465.92L407.552 302.08H162.816ZM231.424 438.272C217.088 438.272 204.8 425.984 204.8 411.648C204.8 397.312 217.088 385.024 231.424 385.024C245.76 385.024 258.048 397.312 258.048 411.648C258.048 425.984 245.76 438.272 231.424 438.272ZM419.84 438.272C405.504 438.272 393.216 425.984 393.216 411.648C393.216 397.312 405.504 385.024 419.84 385.024C434.176 385.024 446.464 397.312 446.464 411.648C446.464 425.984 435.2 438.272 419.84 438.272Z" fill="#00ECE5"/>
</svg>
