<svg width="480" height="483" viewBox="0 0 480 483" fill="none" xmlns="http://www.w3.org/2000/svg">
<path d="M234.024 165.953C162.139 246.526 115.523 346.45 99.972 453.303L96.082 479.883L111.914 482.2L115.804 455.62C130.904 351.863 176.17 254.833 245.972 176.594L234.024 165.953ZM335.998 465.042H359.998V481.042H335.998V465.042Z" fill="#00ECE5"/>
<path d="M455.999 209.042H423.999V121.042C424 113.805 421.547 106.781 417.041 101.118C412.535 95.4546 406.242 91.4862 399.189 89.8607C392.137 88.2352 384.742 89.0485 378.212 92.168C371.681 95.2875 366.401 100.529 363.234 107.036C356.988 101.223 350.406 95.7834 343.521 90.744C366.875 74.7715 391.456 60.6712 417.034 48.575L404.612 73.419L418.922 80.575L445.782 26.859L392.065 0L384.909 14.31L417.622 30.667C386.69 44.7438 357.124 61.6441 329.297 81.153C319.517 75.1102 309.269 69.8585 298.652 65.448C312.454 49.906 320.053 29.8277 319.999 9.042V1.042H311.999C300.799 1.01155 289.704 3.20279 279.356 7.48888C269.008 11.775 259.613 18.0708 251.715 26.012L238.072 39.655L172.766 13.532C168.405 11.7846 163.628 11.3566 159.026 12.3011C154.424 13.2457 150.202 15.5212 146.882 18.845L122.842 42.885L151.534 58.825C114.454 70.4279 81.1897 91.8147 55.2428 120.733C29.2959 149.652 11.627 185.032 4.09687 223.148C-3.43332 261.263 -0.546153 300.704 12.4543 337.317C25.4548 373.93 48.0875 406.36 77.969 431.192L88.199 418.89C76.1839 408.897 65.3746 397.538 55.99 385.042H57.372C65.4919 385.033 73.2766 381.803 79.0183 376.061C84.76 370.32 87.9897 362.535 87.999 354.415C87.9936 352.493 88.3694 350.59 89.1048 348.814C89.8401 347.039 90.9204 345.427 92.283 344.072L111.029 325.326C113.882 322.488 116.143 319.113 117.683 315.396C119.223 311.678 120.01 307.693 119.999 303.669V298.415C120.01 294.391 119.223 290.405 117.683 286.688C116.143 282.971 113.882 279.596 111.029 276.758L101.656 267.385C95.9076 261.65 88.119 258.429 79.999 258.429C71.8789 258.429 64.0903 261.65 58.342 267.385L56.969 268.758C55.6139 270.121 54.002 271.201 52.2266 271.936C50.4513 272.672 48.5476 273.047 46.626 273.042H16.176C16.071 270.382 15.999 267.717 15.999 265.042C16.0018 257.02 16.487 249.006 17.452 241.042H47.029C51.9678 241.042 56.7958 239.578 60.9023 236.834C65.0089 234.09 68.2096 230.19 70.0997 225.627C71.9897 221.065 72.4843 216.044 71.5209 211.2C70.5574 206.356 68.1792 201.906 64.687 198.414L38.757 172.484C52.1557 146.792 70.9783 124.32 93.9215 106.623C116.865 88.9252 143.38 76.4258 171.632 69.99L194.842 82.885L143.999 133.729V157.226L110.072 143.656L73.764 179.964L121.844 199.196L141.077 247.277L177.386 210.969L163.816 177.042H187.312L238.156 126.198L278.156 198.198L302.196 174.159C305.52 170.84 307.796 166.617 308.741 162.015C309.685 157.413 309.257 152.635 307.509 148.275L281.386 82.969L286.513 77.841C296.419 81.582 306.01 86.1091 315.194 91.379C311.959 93.8043 308.747 96.2607 305.558 98.748L315.433 111.336C320.126 107.654 324.88 104.053 329.695 100.533C340.622 108.093 350.772 116.716 359.999 126.277V209.042H327.999C321.636 209.049 315.536 211.58 311.036 216.079C306.537 220.579 304.006 226.679 303.999 233.042V425.042C303.996 431.107 306.298 436.946 310.439 441.377C300.678 446.615 290.496 451.027 279.999 454.567V447.669C280.007 444.516 279.39 441.393 278.184 438.48C276.977 435.567 275.205 432.922 272.969 430.699L258.343 416.071C257.598 415.33 257.007 414.449 256.604 413.478C256.202 412.507 255.996 411.466 255.999 410.415V401.042C256.002 398.921 256.845 396.888 258.345 395.388C259.845 393.888 261.878 393.045 263.999 393.042C270.362 393.035 276.462 390.504 280.962 386.005C285.461 381.505 287.992 375.405 287.999 369.042V345.042C287.992 338.679 285.461 332.579 280.962 328.079C276.462 323.58 270.362 321.049 263.999 321.042H246.626C243.473 321.034 240.35 321.651 237.437 322.857C234.524 324.064 231.879 325.836 229.656 328.072L191.028 366.698C190.287 367.443 189.406 368.034 188.435 368.437C187.464 368.839 186.423 369.045 185.372 369.042H175.999C169.636 369.049 163.536 371.58 159.036 376.079C154.537 380.579 152.006 386.679 151.999 393.042V410.415C151.991 413.568 152.607 416.691 153.814 419.604C155.021 422.517 156.793 425.162 159.029 427.385L165.655 434.013C166.4 434.754 166.991 435.635 167.394 436.606C167.796 437.577 168.002 438.618 167.999 439.669V459.249C158.129 456.817 148.461 453.63 139.079 449.717L132.919 464.484C164.524 477.614 198.793 483.06 232.912 480.376C267.03 477.691 300.026 466.953 329.189 449.042H455.999C462.362 449.035 468.462 446.504 472.962 442.005C477.461 437.505 479.992 431.405 479.999 425.042V233.042C479.992 226.679 477.461 220.579 472.962 216.079C468.462 211.58 462.362 209.049 455.999 209.042ZM46.626 289.042C50.6496 289.053 54.6355 288.266 58.3529 286.726C62.0703 285.186 65.4454 282.925 68.283 280.072L69.656 278.699C71.014 277.34 72.6264 276.263 74.4011 275.527C76.1758 274.792 78.078 274.413 79.999 274.413C81.92 274.413 83.8221 274.792 85.5968 275.527C87.3715 276.263 88.9839 277.34 90.342 278.699L99.715 288.072C101.078 289.427 102.158 291.039 102.893 292.814C103.629 294.59 104.004 296.493 103.999 298.415V303.669C104.004 305.591 103.629 307.494 102.893 309.27C102.158 311.045 101.078 312.657 99.715 314.012L80.969 332.758C78.1162 335.596 75.8545 338.971 74.3148 342.688C72.7751 346.405 71.988 350.391 71.999 354.415C71.9947 358.293 70.4523 362.011 67.7101 364.753C64.968 367.495 61.25 369.038 57.372 369.042H45.12C30.2717 344.665 20.8348 317.383 17.448 289.042H46.626ZM53.371 209.729C54.6255 210.983 55.4799 212.582 55.826 214.322C56.1722 216.062 55.9947 217.865 55.3158 219.504C54.637 221.143 53.4874 222.544 52.0123 223.53C50.5373 224.516 48.803 225.042 47.029 225.042H20.042C22.646 212.308 26.4896 199.86 31.518 187.875L53.371 209.729ZM146.921 218.807L134.153 186.887L102.234 174.12L113.926 162.429L145.845 175.196L158.612 207.116L146.921 218.807ZM283.715 58.012L262.612 79.115L292.653 154.217C293.236 155.67 293.379 157.263 293.064 158.797C292.749 160.331 291.99 161.739 290.882 162.845L281.842 171.885L241.842 99.885L180.686 161.042H159.999V140.355L221.155 79.199L174.52 53.291L174.47 53.032C174.368 53.052 174.268 53.075 174.167 53.095L149.155 39.199L158.196 30.159C159.302 29.0508 160.71 28.2921 162.244 27.9773C163.778 27.6624 165.371 27.8052 166.824 28.388L241.926 58.428L263.029 37.326C273.912 26.3804 288.162 19.4165 303.484 17.556C301.624 32.8787 294.66 47.1292 283.714 58.012H283.715ZM263.999 459.226C237.82 465.657 210.615 466.768 183.999 462.492V439.669C184.007 436.516 183.39 433.393 182.184 430.48C180.977 427.567 179.205 424.922 176.969 422.699L170.343 416.071C169.598 415.33 169.007 414.449 168.604 413.478C168.202 412.507 167.996 411.466 167.999 410.415V393.042C168.002 390.921 168.845 388.888 170.345 387.388C171.845 385.888 173.878 385.045 175.999 385.042H185.372C188.525 385.05 191.648 384.433 194.561 383.227C197.474 382.02 200.119 380.248 202.342 378.012L240.97 339.386C241.711 338.641 242.592 338.05 243.563 337.647C244.534 337.245 245.575 337.039 246.626 337.042H263.999C266.12 337.045 268.153 337.888 269.653 339.388C271.153 340.888 271.996 342.921 271.999 345.042V369.042C271.996 371.163 271.153 373.196 269.653 374.696C268.153 376.196 266.12 377.039 263.999 377.042C257.636 377.049 251.536 379.58 247.036 384.079C242.537 388.579 240.006 394.679 239.999 401.042V410.415C239.991 413.568 240.607 416.691 241.814 419.604C243.021 422.517 244.793 425.162 247.029 427.385L261.655 442.013C262.4 442.754 262.991 443.635 263.394 444.606C263.796 445.577 264.002 446.618 263.999 447.669V459.226ZM375.999 121.042C375.999 116.799 377.685 112.729 380.685 109.728C383.686 106.728 387.755 105.042 391.999 105.042C396.242 105.042 400.312 106.728 403.313 109.728C406.313 112.729 407.999 116.799 407.999 121.042V209.042H375.999V121.042ZM463.999 425.042C463.996 427.163 463.153 429.196 461.653 430.696C460.153 432.196 458.12 433.039 455.999 433.042H327.999C325.878 433.039 323.845 432.196 322.345 430.696C320.845 429.196 320.002 427.163 319.999 425.042V233.042C320.002 230.921 320.845 228.888 322.345 227.388C323.845 225.888 325.878 225.045 327.999 225.042H455.999C458.12 225.045 460.153 225.888 461.653 227.388C463.153 228.888 463.996 230.921 463.999 233.042V425.042ZM431.999 465.042H455.999V481.042H431.999V465.042Z" fill="#00ECE5"/>
<path d="M344 241.043H360V417.043H344V241.043ZM384 241.043H400V417.043H384V241.043ZM424 241.043H440V417.043H424V241.043ZM224 249.043V253.729L204.686 273.043C203.196 274.525 202.014 276.288 201.21 278.23C200.406 280.172 199.994 282.254 200 284.356V289.043C200.005 293.285 201.692 297.352 204.692 300.351C207.691 303.351 211.758 305.038 216 305.043H236.687C238.789 305.049 240.871 304.637 242.813 303.833C244.755 303.029 246.518 301.847 248 300.357L259.313 289.043H272C276.242 289.038 280.309 287.351 283.308 284.351C286.308 281.352 287.995 277.285 288 273.043V249.043C287.995 244.801 286.308 240.734 283.308 237.735C280.309 234.735 276.242 233.048 272 233.043H240C235.758 233.048 231.691 234.735 228.692 237.735C225.692 240.734 224.005 244.801 224 249.043ZM240 253.73V249.043H272V273.043H259.313C257.211 273.037 255.129 273.449 253.187 274.253C251.245 275.057 249.482 276.239 248 277.729L236.687 289.043H216V284.357L235.314 265.043C236.804 263.561 237.986 261.798 238.79 259.856C239.594 257.914 240.006 255.832 240 253.73Z" fill="#00ECE5"/>
</svg>
