<svg width="465" height="444" viewBox="0 0 465 444" fill="none" xmlns="http://www.w3.org/2000/svg">
<path fill-rule="evenodd" clip-rule="evenodd" d="M276.031 57.8855H286.138C291.225 57.8855 295.993 59.3037 300.068 61.7623V41.7349C300.068 31.2185 287.214 25.6049 279.566 33.2521C277.385 35.4332 276.031 38.4366 276.031 41.7349V57.8855ZM188.488 89.8722V52.6784C188.488 42.1619 175.633 36.5484 167.986 44.1956C165.805 46.3767 164.451 49.3801 164.451 52.6784C164.451 53.9656 164.26 89.5701 164.593 91.7051C166.076 101.235 177.89 105.416 184.953 98.354C187.185 96.1216 188.488 93.0998 188.488 89.8722ZM205.18 98.355C212.827 106.002 225.681 100.386 225.681 89.8722V25.2045C225.681 14.688 212.827 9.07446 205.18 16.7217C202.999 18.9028 201.645 21.9062 201.645 25.2045V89.8722C201.644 93.0998 202.947 96.1216 205.18 98.355ZM168.334 156.541C165.655 153.861 164.451 150.947 164.451 147.164V111.979C174.667 117.565 187.274 115.354 195.067 106.807C205.924 118.716 224.759 117.489 234.09 104.554C238.956 109.198 245.542 112.06 252.768 112.06H266.867L266.849 114.432C240.026 123.212 230.999 144.162 225.81 170.653C225.511 172.35 225.889 174.097 226.864 175.517C227.839 176.937 229.333 177.918 231.023 178.248C232.714 178.579 234.467 178.232 235.905 177.282C237.343 176.333 238.35 174.857 238.711 173.173C243.397 149.249 250.286 132.01 274.96 125.753L274.957 125.739C276.371 125.385 277.626 124.57 278.524 123.423C279.423 122.277 279.914 120.863 279.921 119.406L280.018 106.11C280.211 102.33 277.802 99.4138 274.332 98.9591L258.758 98.9028C258.697 98.9028 255.784 101.891 250.86 101.891C247.561 101.891 244.558 100.536 242.377 98.355C238.319 94.2969 238.843 90.2418 238.843 85.1198C238.843 77.2698 245.109 71.0429 252.77 71.0429H286.14C293.789 71.0429 300.07 77.3241 300.07 84.9723V146.09C300.07 150.28 298.516 153.632 295.322 156.294L284.802 165.059C278.609 170.22 275.274 177.373 275.274 185.337V254.721C246.518 262.465 218.008 262.463 189.248 254.718V188.395C189.248 181.288 186.583 174.789 181.51 169.717L168.334 156.541ZM262.874 57.8855H252.767C247.857 57.8816 243.04 59.2224 238.838 61.7623V25.2045C238.838 14.688 251.691 9.07446 259.339 16.7217C261.52 18.9028 262.875 21.9062 262.875 25.2045V57.8855H262.874Z" fill="#FFC78C"/>
<path fill-rule="evenodd" clip-rule="evenodd" d="M66.967 350.359C72.3348 350.359 76.1523 349.795 80.6763 352.738C93.5388 361.104 110.196 361.104 123.058 352.738C127.583 349.795 131.4 350.359 136.767 350.359C143.738 350.359 149.441 356.062 149.441 363.033V424.184C149.441 431.155 143.737 436.858 136.767 436.858H66.967C59.9956 436.858 54.293 431.154 54.293 424.184V363.033C54.2919 356.061 59.9956 350.359 66.967 350.359Z" fill="#91CEFF"/>
<path d="M110.852 332.35C122.678 327.456 128.298 313.901 123.404 302.074C118.51 290.248 104.956 284.628 93.129 289.522C81.3023 294.415 75.6822 307.97 80.5761 319.797C85.4701 331.624 99.0248 337.244 110.852 332.35Z" fill="#FFC78C"/>
<path fill-rule="evenodd" clip-rule="evenodd" d="M397.552 350.359C392.184 350.359 388.367 349.795 383.843 352.738C370.98 361.104 354.323 361.104 341.462 352.738C336.936 349.795 333.119 350.359 327.752 350.359C320.781 350.359 315.078 356.062 315.078 363.033V424.184C315.078 431.155 320.781 436.858 327.752 436.858H397.553C404.525 436.858 410.227 431.154 410.227 424.184V363.033C410.226 356.061 404.524 350.359 397.552 350.359Z" fill="#58CBBE"/>
<path d="M362.652 334.109C375.451 334.109 385.827 323.733 385.827 310.933C385.827 298.134 375.451 287.758 362.652 287.758C349.852 287.758 339.477 298.134 339.477 310.933C339.477 323.733 349.852 334.109 362.652 334.109Z" fill="#FFC78C"/>
<path fill-rule="evenodd" clip-rule="evenodd" d="M19.383 150.454C24.7508 150.454 28.5683 149.89 33.0923 152.833C45.9548 161.199 62.6122 161.199 75.4737 152.833C79.9987 149.89 83.8162 150.454 89.183 150.454C96.1544 150.454 101.857 156.157 101.857 163.129V224.279C101.857 231.25 96.1533 236.953 89.183 236.953H19.383C12.4116 236.953 6.70898 231.249 6.70898 224.279V163.129C6.70898 156.158 12.4127 150.454 19.383 150.454Z" fill="#FF7293"/>
<path d="M54.2826 134.204C67.0819 134.204 77.4578 123.828 77.4578 111.029C77.4578 98.2299 67.0819 87.854 54.2826 87.854C41.4833 87.854 31.1074 98.2299 31.1074 111.029C31.1074 123.828 41.4833 134.204 54.2826 134.204Z" fill="#FFC78C"/>
<path fill-rule="evenodd" clip-rule="evenodd" d="M445.136 150.454C439.768 150.454 435.951 149.89 431.427 152.833C418.564 161.199 401.907 161.199 389.045 152.833C384.52 149.89 380.703 150.454 375.336 150.454C368.365 150.454 362.662 156.157 362.662 163.129V224.279C362.662 231.25 368.365 236.953 375.336 236.953H445.137C452.109 236.953 457.811 231.249 457.811 224.279V163.129C457.81 156.158 452.107 150.454 445.136 150.454Z" fill="#FEC74C"/>
<path d="M410.236 134.204C423.035 134.204 433.411 123.828 433.411 111.029C433.411 98.2299 423.035 87.854 410.236 87.854C397.436 87.854 387.061 98.2299 387.061 111.029C387.061 123.828 397.436 134.204 410.236 134.204Z" fill="#FFC78C"/>
<path fill-rule="evenodd" clip-rule="evenodd" d="M403.745 424.156C403.745 427.519 401.007 430.251 397.675 430.251H327.864C324.531 430.251 321.794 427.519 321.794 424.156V363.006C321.794 359.643 324.531 356.911 327.864 356.911H333.577C335.243 356.911 336.553 357.304 337.981 358.221C353.108 367.995 372.426 368.031 387.556 358.227C388.985 357.304 390.294 356.911 391.961 356.911H397.675C401.008 356.911 403.745 359.643 403.745 363.006V424.156ZM397.675 343.753C391.014 343.753 386.418 343.254 380.356 347.192C375.121 350.594 369.012 352.404 362.769 352.404C356.526 352.404 350.417 350.594 345.182 347.192C339.12 343.254 334.524 343.753 327.864 343.753C317.271 343.753 308.641 352.388 308.641 363.006V424.156C308.641 434.773 317.27 443.409 327.864 443.409H397.675C408.268 443.409 416.898 434.774 416.898 424.156V363.006C416.897 352.388 408.268 343.753 397.675 343.753ZM13.1543 224.248V163.098C13.1543 159.741 15.8915 157.004 19.284 157.004H24.9375C26.6629 157.004 27.9726 157.396 29.4011 158.319C44.3392 168.004 64.085 168.181 78.976 158.319C80.3451 157.396 81.7142 157.004 83.3802 157.004H89.0931C92.4262 157.004 95.1634 159.741 95.1634 163.098V224.248C95.1634 227.611 92.4262 230.348 89.0931 230.348H19.284C15.8915 230.349 13.1543 227.611 13.1543 224.248ZM108.317 224.248V163.098C108.317 152.487 99.6874 143.85 89.0931 143.85C82.4269 143.85 77.8435 143.351 71.7742 147.29C61.139 154.194 47.1992 154.267 36.5425 147.29C30.5265 143.352 25.9594 143.85 19.2829 143.85C8.63027 143.85 0 152.486 0 163.098V224.248C0 234.866 8.62925 243.506 19.2829 243.506H89.0931C99.6874 243.507 108.317 234.866 108.317 224.248ZM118.554 310.907C118.554 320.054 111.114 327.505 102.009 327.505C92.844 327.505 85.4047 320.053 85.4047 310.907C85.4047 301.753 92.844 294.309 102.009 294.309C111.114 294.308 118.554 301.753 118.554 310.907ZM72.2514 310.907C72.2514 327.315 85.5828 340.658 102.009 340.658C118.375 340.658 131.766 327.315 131.766 310.907C131.766 294.499 118.375 281.149 102.009 281.149C85.5828 281.149 72.2514 294.499 72.2514 310.907ZM362.799 294.308C371.905 294.308 379.344 301.753 379.344 310.906C379.344 320.053 371.905 327.504 362.799 327.504C353.634 327.504 346.195 320.052 346.195 310.906C346.194 301.753 353.633 294.308 362.799 294.308ZM333.042 310.907C333.042 327.315 346.373 340.658 362.799 340.658C379.166 340.658 392.497 327.315 392.497 310.907C392.497 294.499 379.166 281.149 362.799 281.149C346.373 281.149 333.042 294.499 333.042 310.907ZM275.373 185.308V254.683C246.807 262.355 217.942 262.355 189.376 254.677V188.367C189.376 181.207 186.698 174.75 181.639 169.685L168.428 156.508C165.809 153.895 164.559 150.83 164.559 147.134V111.956C174.763 117.534 187.369 115.322 195.208 106.79C205.155 117.757 222.398 117.757 232.345 106.79C236.986 111.842 243.593 115.015 250.972 115.015C255.138 115.015 259.186 113.985 262.816 112.033H266.981L266.922 114.395C240.498 123.024 231.333 143.2 225.917 170.613C225.101 174.717 228.274 178.463 232.404 178.463C235.439 178.463 238.237 176.285 238.832 173.148C243.831 147.67 251.389 131.744 275.076 125.728C277.992 124.989 280.016 122.39 280.075 119.395L280.135 105.499C280.204 101.874 277.221 98.8744 273.588 98.8744H261.031C257.198 98.8744 256.603 101.862 250.973 101.862C244.367 101.862 238.951 96.47 238.951 89.8406V84.9428C238.951 77.2598 245.2 71.0103 252.878 71.0103H286.265C293.942 71.0103 300.192 77.2598 300.192 84.9428V146.057C300.192 150.182 298.585 153.609 295.43 156.246L284.896 165.012C278.705 170.198 275.373 177.214 275.373 185.308ZM164.558 85.0985V89.8417C164.558 96.4721 169.974 101.863 176.58 101.863C183.185 101.863 188.601 96.471 188.601 89.8417V52.652C188.601 46.0278 183.185 40.6303 176.58 40.6303C169.974 40.6303 164.558 46.0278 164.558 52.652V85.0985ZM201.754 52.652V89.8427C201.754 96.4731 207.17 101.864 213.775 101.864C220.381 101.864 225.797 96.4721 225.797 89.8427V25.174C225.797 18.5498 220.381 13.1584 213.775 13.1584C207.17 13.1584 201.754 18.5508 201.754 25.174V52.652ZM238.95 25.174C238.95 18.5498 244.366 13.1584 250.972 13.1584C257.578 13.1584 262.994 18.5508 262.994 25.174V57.8591H252.877C247.818 57.8591 243.057 59.2691 238.95 61.7216V25.174ZM276.146 41.7065C276.146 35.0761 281.562 29.6909 288.168 29.6909C294.774 29.6909 300.19 35.0771 300.19 41.7065V61.7206C296.083 59.2691 291.322 57.8581 286.263 57.8581H276.146V41.7065ZM318.044 301.938C323.822 301.938 326.836 294.864 322.687 290.707L288.525 256.594V195.979H339.886C343.516 195.979 346.492 193.033 346.492 189.403C346.492 185.767 343.516 182.821 339.886 182.821H288.764C289.299 179.798 290.847 177.209 293.346 175.12L303.821 166.36C310.069 161.177 313.343 154.159 313.343 146.059V41.7065C313.343 22.2454 292.143 10.2861 275.612 19.9127C271.355 0.0931836 246.34 -6.99085 232.345 8.22477C227.762 3.17747 221.155 0 213.776 0C199.909 0 188.602 11.2957 188.602 25.174V30.5367C172.059 21.4927 151.406 33.4572 151.406 52.652V147.137C151.406 154.296 154.083 160.754 159.142 165.818L172.294 178.989C173.425 180.096 174.351 181.394 175.032 182.822H124.861C121.231 182.822 118.256 185.768 118.256 189.404C118.256 193.034 121.231 195.98 124.861 195.98H176.222V256.595L142.062 290.708C137.951 294.826 140.843 301.939 146.764 301.939C148.43 301.939 150.097 301.296 151.406 300.011L184.436 266.968C216.235 275.817 248.515 275.81 280.313 266.974L313.343 300.011C314.592 301.251 316.284 301.944 318.044 301.938ZM142.953 424.156C142.953 427.519 140.216 430.251 136.883 430.251H67.0741C63.7409 430.251 61.0038 427.519 61.0038 424.156V363.006C61.0038 359.643 63.7409 356.911 67.0741 356.911H72.7869C74.453 356.911 75.8221 357.304 77.1912 358.221C92.073 368.044 111.687 367.965 126.766 358.221C128.195 357.304 129.503 356.911 131.17 356.911H136.883C140.216 356.911 142.953 359.643 142.953 363.006V424.156ZM136.883 343.753C130.223 343.753 125.626 343.254 119.564 347.192C114.33 350.594 108.221 352.404 101.978 352.404C95.7354 352.404 89.6266 350.594 84.3919 347.192C78.3299 343.254 73.7341 343.753 67.073 343.753C56.4797 343.753 47.8495 352.388 47.8495 363.006V424.156C47.8495 434.773 56.4787 443.409 67.073 443.409H136.883C147.476 443.409 156.107 434.774 156.107 424.156V363.006C156.107 352.388 147.477 343.753 136.883 343.753ZM451.118 224.248C451.118 227.611 448.38 230.348 445.048 230.348H375.238C371.845 230.348 369.108 227.611 369.108 224.248V163.098C369.108 159.741 371.845 157.004 375.238 157.004H380.892C382.618 157.004 383.927 157.396 385.356 158.319C400.457 168.109 419.821 168.116 434.871 158.319C436.3 157.396 437.669 157.004 439.335 157.004H445.049C448.382 157.004 451.119 159.741 451.119 163.098V224.248H451.118ZM445.047 143.85C438.381 143.85 433.797 143.351 427.728 147.29C417.093 154.194 403.152 154.267 392.495 147.29C386.479 143.352 381.912 143.85 375.236 143.85C364.583 143.85 355.953 152.486 355.953 163.098V224.248C355.953 234.866 364.582 243.506 375.236 243.506H445.046C455.639 243.506 464.268 234.865 464.268 224.248V163.098C464.27 152.487 455.641 143.85 445.047 143.85ZM410.112 94.4067C419.277 94.4067 426.716 101.852 426.716 110.999C426.716 120.152 419.277 127.597 410.112 127.597C400.947 127.597 393.508 120.151 393.508 110.999C393.508 101.852 400.947 94.4067 410.112 94.4067ZM410.112 140.756C426.538 140.756 439.869 127.407 439.869 110.999C439.869 94.5971 426.538 81.2472 410.112 81.2472C393.745 81.2472 380.355 94.5961 380.355 110.999C380.356 127.407 393.746 140.756 410.112 140.756ZM54.1594 94.4067C63.3242 94.4067 70.7635 101.852 70.7635 110.999C70.7635 120.152 63.3242 127.597 54.1594 127.597C44.9946 127.597 37.5542 120.151 37.5542 110.999C37.5542 101.852 44.9935 94.4067 54.1594 94.4067ZM54.1594 140.756C70.5853 140.756 83.9158 127.407 83.9158 110.999C83.9158 94.5971 70.5843 81.2472 54.1594 81.2472C37.7928 81.2472 24.4019 94.5961 24.4019 110.999C24.4019 127.407 37.7928 140.756 54.1594 140.756Z" fill="#29435B"/>
</svg>
