<svg width="430" height="512" viewBox="0 0 430 512" fill="none" xmlns="http://www.w3.org/2000/svg">
<path d="M285.118 481.478H275.118C270.976 481.478 267.618 484.835 267.618 488.978C267.618 493.121 270.976 496.478 275.118 496.478H285.118C289.26 496.478 292.618 493.121 292.618 488.978C292.618 484.835 289.26 481.478 285.118 481.478ZM240.118 481.478H230.118C225.976 481.478 222.618 484.835 222.618 488.978C222.618 493.121 225.976 496.478 230.118 496.478H240.118C244.26 496.478 247.618 493.121 247.618 488.978C247.618 484.835 244.26 481.478 240.118 481.478ZM105.118 481.478H95.1176C90.9756 481.478 87.6176 484.835 87.6176 488.978C87.6176 493.121 90.9756 496.478 95.1176 496.478H105.118C109.26 496.478 112.618 493.121 112.618 488.978C112.618 484.835 109.26 481.478 105.118 481.478ZM150.118 481.478H140.118C135.976 481.478 132.618 484.835 132.618 488.978C132.618 493.121 135.976 496.478 140.118 496.478H150.118C154.26 496.478 157.618 493.121 157.618 488.978C157.618 484.835 154.26 481.478 150.118 481.478ZM195.118 481.478H185.118C180.976 481.478 177.618 484.835 177.618 488.978C177.618 493.121 180.976 496.478 185.118 496.478H195.118C199.26 496.478 202.618 493.121 202.618 488.978C202.618 484.835 199.26 481.478 195.118 481.478ZM330.118 481.478H320.118C315.976 481.478 312.618 484.835 312.618 488.978C312.618 493.121 315.976 496.478 320.118 496.478H330.118C334.26 496.478 337.618 493.121 337.618 488.978C337.618 484.835 334.26 481.478 330.118 481.478ZM382.111 385.639C380.121 385.639 378.214 386.429 376.807 387.836C375.401 389.242 374.611 391.15 374.611 393.139V403.139C374.611 407.282 377.969 410.639 382.111 410.639C386.253 410.639 389.611 407.282 389.611 403.139V393.139C389.611 391.15 388.82 389.242 387.414 387.836C386.007 386.429 384.1 385.639 382.111 385.639ZM382.111 250.639C380.121 250.639 378.214 251.429 376.807 252.836C375.401 254.242 374.611 256.15 374.611 258.139V268.139C374.611 272.282 377.969 275.639 382.111 275.639C386.253 275.639 389.611 272.282 389.611 268.139V258.139C389.611 256.15 388.82 254.242 387.414 252.836C386.007 251.429 384.1 250.639 382.111 250.639ZM382.111 295.639C380.121 295.639 378.214 296.429 376.807 297.836C375.401 299.242 374.611 301.15 374.611 303.139V313.139C374.611 317.282 377.969 320.639 382.111 320.639C386.253 320.639 389.611 317.282 389.611 313.139V303.139C389.611 301.15 388.82 299.242 387.414 297.836C386.007 296.429 384.1 295.639 382.111 295.639ZM382.111 340.639C380.121 340.639 378.214 341.429 376.807 342.836C375.401 344.242 374.611 346.15 374.611 348.139V358.139C374.611 362.282 377.969 365.639 382.111 365.639C386.253 365.639 389.611 362.282 389.611 358.139V348.139C389.611 346.15 388.82 344.242 387.414 342.836C386.007 341.429 384.1 340.639 382.111 340.639ZM47.5586 385.639C45.5695 385.639 43.6618 386.429 42.2553 387.836C40.8488 389.242 40.0586 391.15 40.0586 393.139V403.139C40.0586 407.282 43.4166 410.639 47.5586 410.639C51.7006 410.639 55.0586 407.282 55.0586 403.139V393.139C55.0586 391.15 54.2684 389.242 52.8619 387.836C51.4554 386.429 49.5477 385.639 47.5586 385.639ZM47.5586 340.639C45.5695 340.639 43.6618 341.429 42.2553 342.836C40.8488 344.242 40.0586 346.15 40.0586 348.139V358.139C40.0586 362.282 43.4166 365.639 47.5586 365.639C51.7006 365.639 55.0586 362.282 55.0586 358.139V348.139C55.0586 346.15 54.2684 344.242 52.8619 342.836C51.4554 341.429 49.5477 340.639 47.5586 340.639ZM47.5586 250.639C45.5695 250.639 43.6618 251.429 42.2553 252.836C40.8488 254.242 40.0586 256.15 40.0586 258.139V268.139C40.0586 272.282 43.4166 275.639 47.5586 275.639C51.7006 275.639 55.0586 272.282 55.0586 268.139V258.139C55.0586 256.15 54.2684 254.242 52.8619 252.836C51.4554 251.429 49.5477 250.639 47.5586 250.639ZM47.5586 295.639C45.5695 295.639 43.6618 296.429 42.2553 297.836C40.8488 299.242 40.0586 301.15 40.0586 303.139V313.139C40.0586 317.282 43.4166 320.639 47.5586 320.639C51.7006 320.639 55.0586 317.282 55.0586 313.139V303.139C55.0586 301.15 54.2684 299.242 52.8619 297.836C51.4554 296.429 49.5477 295.639 47.5586 295.639Z" fill="#FFE177"/>
<path d="M66.978 173.637C61.747 177.992 54.966 180.631 47.559 180.631C40.152 180.631 33.37 177.992 28.14 173.637C12.093 176.761 0 190.559 0 207.111V219.832C0 225.522 4.612 230.134 10.302 230.134H84.817C90.507 230.134 95.119 225.522 95.119 219.832V207.111C95.118 190.558 83.025 176.761 66.978 173.637Z" fill="#05E39C"/>
<path d="M47.5585 181.75C64.7009 181.75 78.5975 168.212 78.5975 151.511C78.5975 134.811 64.7009 121.272 47.5585 121.272C30.4162 121.272 16.5195 134.811 16.5195 151.511C16.5195 168.212 30.4162 181.75 47.5585 181.75Z" fill="#C96E59"/>
<path d="M401.53 173.637C396.299 177.992 389.518 180.631 382.111 180.631C374.704 180.631 367.922 177.992 362.692 173.637C346.645 176.761 334.552 190.559 334.552 207.111V219.832C334.552 225.522 339.164 230.134 344.854 230.134H419.369C425.059 230.134 429.671 225.522 429.671 219.832V207.111C429.67 190.558 417.578 176.761 401.53 173.637Z" fill="#FE4FB7"/>
<path d="M382.111 181.75C399.254 181.75 413.15 168.212 413.15 151.511C413.15 134.811 399.254 121.272 382.111 121.272C364.969 121.272 351.072 134.811 351.072 151.511C351.072 168.212 364.969 181.75 382.111 181.75Z" fill="#FFDFCF"/>
<path d="M66.978 455.503C61.747 459.858 54.966 462.497 47.559 462.497C40.152 462.497 33.37 459.858 28.14 455.503C12.093 458.627 0 472.425 0 488.977V501.698C0 507.388 4.612 512 10.302 512H84.817C90.507 512 95.119 507.388 95.119 501.698V488.977C95.118 472.425 83.025 458.627 66.978 455.503Z" fill="#FFE177"/>
<path d="M73.484 457.438V480.064C73.484 485.754 68.872 490.366 63.182 490.366H0V501.698C0 507.388 4.612 512 10.302 512H84.817C90.507 512 95.119 507.388 95.119 501.698V488.977C95.118 474.752 86.182 462.568 73.484 457.438Z" fill="#FFD15B"/>
<path d="M47.5585 463.617C64.7009 463.617 78.5975 450.079 78.5975 433.378C78.5975 416.678 64.7009 403.139 47.5585 403.139C30.4162 403.139 16.5195 416.678 16.5195 433.378C16.5195 450.079 30.4162 463.617 47.5585 463.617Z" fill="#FFDFCF"/>
<path d="M47.5592 403.139C47.0612 403.139 46.5672 403.153 46.0752 403.176C52.7362 408.722 56.9642 416.961 56.9642 426.167C56.9642 442.382 43.8622 455.614 27.4102 456.369C32.8332 460.884 39.8672 463.617 47.5602 463.617C64.7022 463.617 78.5992 450.079 78.5992 433.378C78.5982 416.677 64.7012 403.139 47.5592 403.139Z" fill="#FFCEBF"/>
<path d="M401.53 455.503C396.299 459.858 389.518 462.497 382.111 462.497C374.704 462.497 367.922 459.858 362.692 455.503C346.645 458.627 334.552 472.425 334.552 488.977V501.698C334.552 507.388 339.164 512 344.854 512H419.369C425.059 512 429.671 507.388 429.671 501.698V488.977C429.67 472.425 417.578 458.627 401.53 455.503Z" fill="#99E6FC"/>
<path d="M382.111 463.617C399.254 463.617 413.15 450.079 413.15 433.378C413.15 416.678 399.254 403.139 382.111 403.139C364.969 403.139 351.072 416.678 351.072 433.378C351.072 450.079 364.969 463.617 382.111 463.617Z" fill="#C96E59"/>
<path d="M382.111 403.139C381.613 403.139 381.119 403.153 380.627 403.176C387.288 408.722 391.516 416.961 391.516 426.167C391.516 442.382 378.414 455.614 361.962 456.369C367.385 460.884 374.419 463.617 382.112 463.617C399.254 463.617 413.151 450.079 413.151 433.378C413.15 416.677 399.253 403.139 382.111 403.139Z" fill="#BB5D4C"/>
<path d="M265.319 299.596H164.351C143.98 299.596 127.466 316.11 127.466 336.481V418.364C127.466 424.054 132.078 428.666 137.768 428.666H291.902C297.592 428.666 302.204 424.054 302.204 418.364V336.481C302.204 316.11 285.69 299.596 265.319 299.596Z" fill="#AF66DA"/>
<path d="M280.359 302.804V389.52C280.359 395.21 275.747 399.822 270.057 399.822H127.466V418.365C127.466 424.054 132.078 428.667 137.768 428.667H291.902C297.592 428.667 302.204 424.055 302.204 418.365V336.482C302.204 321.469 293.23 308.561 280.359 302.804Z" fill="#9857BD"/>
<path d="M214.835 304.912C242.533 304.912 264.988 282.458 264.988 254.759C264.988 227.061 242.533 204.606 214.835 204.606C187.136 204.606 164.682 227.061 164.682 254.759C164.682 282.458 187.136 304.912 214.835 304.912Z" fill="#FFDFCF"/>
<path d="M221.65 205.079C230.608 214.138 236.143 226.59 236.143 240.336C236.143 268.035 213.689 290.489 185.99 290.489C183.677 290.489 181.405 290.319 179.175 290.016C188.266 299.211 200.883 304.912 214.836 304.912C242.535 304.912 264.989 282.458 264.989 254.759C264.988 229.373 246.123 208.406 221.65 205.079Z" fill="#FFCEBF"/>
<path d="M289.397 74.5623C289.397 32.1853 254.044 -1.9347 211.222 0.0852977C172.841 1.8963 141.828 33.1843 140.33 71.5793C138.892 108.458 164.256 139.657 198.506 147.311C200.014 147.648 201.327 148.567 202.1 149.906L209.989 163.57C212.143 167.3 217.527 167.3 219.68 163.57L227.53 149.974C228.302 148.638 229.587 147.663 231.094 147.328C264.452 139.906 289.397 110.155 289.397 74.5623Z" fill="#FFE177"/>
<path d="M238.744 3.93311C266.692 33.1341 266.323 79.4521 237.598 108.177C216.861 128.914 186.959 134.856 160.942 126.054C170.926 136.494 183.903 144.048 198.507 147.312C200.015 147.649 201.328 148.568 202.101 149.907L209.99 163.571C212.144 167.301 217.528 167.301 219.681 163.571L227.531 149.975C228.303 148.639 229.588 147.664 231.095 147.329C264.453 139.908 289.398 110.158 289.398 74.5651C289.397 41.7481 268.193 13.8991 238.744 3.93311Z" fill="#FFD15B"/>
<path d="M382.111 121.272C381.613 121.272 381.119 121.286 380.627 121.309C387.288 126.855 391.516 135.094 391.516 144.3C391.516 160.515 378.414 173.747 361.962 174.502C367.385 179.017 374.419 181.75 382.112 181.75C399.254 181.75 413.151 168.212 413.151 151.511C413.151 134.81 399.253 121.272 382.111 121.272Z" fill="#FFCEBF"/>
<path d="M47.5592 121.272C47.0612 121.272 46.5672 121.286 46.0752 121.309C52.7362 126.855 56.9642 135.094 56.9642 144.3C56.9642 160.515 43.8622 173.747 27.4102 174.502C32.8332 179.017 39.8672 181.75 47.5602 181.75C64.7022 181.75 78.5992 168.212 78.5992 151.511C78.5992 134.81 64.7012 121.272 47.5592 121.272Z" fill="#BB5D4C"/>
<path d="M408.036 175.571V198.197C408.036 203.886 403.424 208.499 397.734 208.499H334.551V219.831C334.551 225.521 339.163 230.133 344.853 230.133H419.368C425.058 230.133 429.67 225.521 429.67 219.831V207.11C429.67 192.885 420.734 180.701 408.036 175.571Z" fill="#FE2AA8"/>
<path d="M408.036 457.438V480.064C408.036 485.754 403.424 490.366 397.734 490.366H334.551V501.698C334.551 507.388 339.163 512 344.853 512H419.368C425.058 512 429.67 507.388 429.67 501.698V488.977C429.67 474.752 420.734 462.568 408.036 457.438Z" fill="#62DBFB"/>
<path d="M73.484 175.571V198.197C73.484 203.886 68.872 208.499 63.182 208.499H0V219.831C0 225.521 4.612 230.133 10.302 230.133H84.817C90.507 230.133 95.119 225.521 95.119 219.831V207.11C95.118 192.885 86.182 180.701 73.484 175.571Z" fill="#0ED290"/>
<path d="M125.549 262.258H118.74C114.598 262.258 111.24 258.901 111.24 254.758C111.24 250.615 114.598 247.258 118.74 247.258H125.549C127.538 247.258 129.446 248.049 130.853 249.455C132.259 250.862 133.049 252.769 133.049 254.758C133.049 256.748 132.259 258.655 130.853 260.062C129.446 261.468 127.538 262.258 125.549 262.258ZM137.503 217.617C136.189 217.618 134.898 217.271 133.76 216.611L127.864 213.207C126.156 212.206 124.913 210.569 124.406 208.654C123.9 206.74 124.172 204.702 125.162 202.987C126.152 201.272 127.781 200.018 129.692 199.499C131.604 198.98 133.643 199.239 135.364 200.217L141.26 203.621C142.691 204.447 143.809 205.722 144.441 207.248C145.073 208.774 145.183 210.467 144.755 212.062C144.327 213.657 143.384 215.067 142.073 216.071C140.761 217.076 139.155 217.619 137.503 217.617ZM170.199 184.935C168.881 184.937 167.586 184.591 166.445 183.932C165.303 183.274 164.356 182.326 163.697 181.184L160.293 175.288C159.314 173.567 159.056 171.528 159.575 169.616C160.094 167.705 161.348 166.077 163.063 165.086C164.778 164.096 166.815 163.824 168.73 164.331C170.645 164.837 172.282 166.08 173.283 167.788L176.687 173.684C177.345 174.824 177.692 176.117 177.693 177.433C177.693 178.749 177.347 180.042 176.69 181.182C176.032 182.322 175.086 183.269 173.947 183.928C172.808 184.587 171.515 184.934 170.199 184.935ZM259.471 184.935C258.155 184.934 256.863 184.587 255.723 183.928C254.584 183.269 253.638 182.322 252.981 181.182C252.323 180.042 251.977 178.749 251.978 177.433C251.978 176.117 252.325 174.824 252.983 173.684L256.387 167.788C257.389 166.08 259.026 164.837 260.94 164.331C262.855 163.824 264.892 164.096 266.607 165.086C268.323 166.077 269.576 167.705 270.095 169.616C270.614 171.528 270.356 173.567 269.377 175.288L265.973 181.184C265.315 182.326 264.367 183.274 263.226 183.933C262.084 184.591 260.789 184.937 259.471 184.935ZM292.167 217.617C290.515 217.619 288.909 217.076 287.598 216.071C286.287 215.067 285.344 213.657 284.915 212.062C284.487 210.467 284.597 208.774 285.229 207.248C285.861 205.722 286.98 204.447 288.41 203.621L294.306 200.217C296.028 199.239 298.067 198.98 299.978 199.499C301.89 200.018 303.518 201.272 304.508 202.987C305.499 204.702 305.77 206.74 305.264 208.654C304.758 210.569 303.515 212.206 301.806 213.207L295.91 216.611C294.773 217.271 293.482 217.618 292.167 217.617ZM310.929 262.259H304.121C299.979 262.259 296.621 258.902 296.621 254.759C296.621 250.616 299.979 247.259 304.121 247.259H310.929C312.918 247.259 314.826 248.05 316.233 249.456C317.639 250.863 318.429 252.77 318.429 254.759C318.429 256.749 317.639 258.656 316.233 260.063C314.826 261.469 312.918 262.259 310.929 262.259Z" fill="#FFE177"/>
<path d="M191.926 63.2975C189.937 63.2975 188.029 62.5074 186.622 61.1008C185.216 59.6943 184.426 57.7867 184.426 55.7975V48.7485C184.426 44.6055 187.784 41.2485 191.926 41.2485C196.068 41.2485 199.426 44.6055 199.426 48.7485V55.7975C199.426 57.7867 198.636 59.6943 197.229 61.1008C195.823 62.5074 193.915 63.2975 191.926 63.2975ZM237.744 63.2975C235.755 63.2975 233.847 62.5074 232.44 61.1008C231.034 59.6943 230.244 57.7867 230.244 55.7975V48.7485C230.244 44.6055 233.602 41.2485 237.744 41.2485C241.886 41.2485 245.244 44.6055 245.244 48.7485V55.7975C245.244 57.7867 244.454 59.6943 243.047 61.1008C241.641 62.5074 239.733 63.2975 237.744 63.2975ZM214.835 113.173C199.893 113.173 187.529 101.968 186.076 87.1095C185.98 86.1293 186.078 85.1397 186.364 84.1974C186.651 83.255 187.12 82.3783 187.745 81.6173C188.371 80.8564 189.14 80.226 190.009 79.7622C190.878 79.2985 191.83 79.0104 192.81 78.9145C196.929 78.5225 200.602 81.5265 201.005 85.6485C201.704 92.7895 207.65 98.1725 214.836 98.1725C222.022 98.1725 227.968 92.7885 228.667 85.6485C229.07 81.5265 232.732 78.5285 236.862 78.9145C237.842 79.0104 238.794 79.2985 239.663 79.7622C240.532 80.226 241.301 80.8564 241.926 81.6173C242.551 82.3783 243.021 83.255 243.307 84.1974C243.594 85.1397 243.692 86.1293 243.596 87.1095C242.141 101.968 229.777 113.173 214.835 113.173Z" fill="#FEB237"/>
<path d="M167.803 345.363C165.814 345.363 163.906 346.153 162.499 347.56C161.093 348.966 160.303 350.874 160.303 352.863V428.666H175.303V352.863C175.303 350.874 174.513 348.966 173.106 347.56C171.7 346.153 169.792 345.363 167.803 345.363ZM269.367 428.667V352.864C269.367 348.721 266.009 345.364 261.867 345.364C257.725 345.364 254.367 348.721 254.367 352.864V428.667H269.367Z" fill="#9857BD"/>
<path d="M160.303 399.821H175.303V428.666H160.303V399.821ZM254.367 399.821H269.367V428.666H254.367V399.821Z" fill="#814AA0"/>
</svg>
