<svg width="460" height="460" viewBox="0 0 460 460" fill="none" xmlns="http://www.w3.org/2000/svg">
<path fill-rule="evenodd" clip-rule="evenodd" d="M244.245 292.42H215.322C213.927 292.42 212.588 291.866 211.602 290.879C210.615 289.892 210.06 288.554 210.06 287.158C210.06 285.763 210.615 284.425 211.602 283.438C212.588 282.451 213.927 281.897 215.322 281.897H239.597C241.968 271.916 250.965 264.467 261.672 264.467C263.067 264.467 264.406 265.021 265.392 266.008C266.379 266.994 266.934 268.333 266.934 269.728C266.934 271.124 266.379 272.462 265.392 273.449C264.406 274.436 263.067 274.99 261.672 274.99C258.446 274.994 255.353 276.277 253.073 278.559C250.792 280.84 249.509 283.933 249.506 287.158C249.507 287.85 249.372 288.534 249.107 289.173C248.843 289.812 248.456 290.392 247.967 290.881C247.478 291.37 246.898 291.757 246.259 292.021C245.62 292.286 244.936 292.421 244.245 292.42ZM327.264 345.756C326.195 345.756 325.115 345.676 324.028 345.52C301.933 342.301 279.725 306.611 273.684 294.363C273.116 293.118 273.056 291.7 273.516 290.411C273.975 289.122 274.919 288.063 276.147 287.458C277.374 286.853 278.789 286.749 280.091 287.17C281.394 287.59 282.481 288.501 283.124 289.71C290.387 304.444 310.28 332.882 325.546 335.102C329.393 335.663 332.588 334.414 335.594 331.169C342.636 323.566 344.328 300.818 340.127 270.322C336.436 243.514 329.142 217.946 324.651 210.886C318.533 201.272 306.628 196.621 293.573 198.735C282.046 200.607 268.203 208.656 263.966 225.626C263.681 226.765 263.023 227.776 262.098 228.498C261.172 229.22 260.032 229.612 258.858 229.612H201.317C200.143 229.613 199.002 229.222 198.076 228.499C197.151 227.777 196.493 226.765 196.209 225.626C192.01 208.831 178.389 200.793 167.042 198.874C153.917 196.647 141.828 201.274 135.488 210.948C131.387 217.202 124.655 238.795 120.5 264.112C115.841 292.444 116.05 315.189 121.076 326.504C124.33 333.839 128.145 334.76 130.731 334.816H130.977C145.303 334.816 167.936 308.277 176.715 290.554C177.021 289.935 177.446 289.382 177.966 288.928C178.486 288.473 179.09 288.125 179.744 287.904C180.399 287.683 181.09 287.593 181.779 287.64C182.468 287.686 183.141 287.868 183.76 288.174C184.38 288.48 184.934 288.905 185.389 289.425C185.845 289.945 186.193 290.55 186.415 291.205C186.636 291.86 186.726 292.553 186.679 293.242C186.633 293.932 186.45 294.606 186.143 295.225C177.441 312.8 152.408 345.343 130.95 345.343L130.51 345.337C124.714 345.213 116.7 342.591 111.456 330.774C98.136 300.765 115.796 221.79 126.683 205.175C135.229 192.156 151.752 185.607 168.796 188.495C186.075 191.418 199.699 202.981 205.236 219.086H254.934C260.523 202.816 274.351 191.194 291.89 188.347C309.161 185.545 325.109 192.015 333.53 205.237C339.433 214.521 346.912 242.48 350.556 268.884C353.931 293.356 355.407 325.264 343.313 338.321C338.783 343.223 333.273 345.756 327.264 345.756Z" fill="#13C4A1"/>
<path fill-rule="evenodd" clip-rule="evenodd" d="M197.895 274.988C194.669 274.993 191.577 276.277 189.296 278.558C187.015 280.839 185.731 283.931 185.727 287.157C185.731 290.382 187.015 293.474 189.295 295.755C191.575 298.036 194.667 299.32 197.892 299.325C201.119 299.324 204.213 298.042 206.495 295.761C208.777 293.48 210.06 290.386 210.063 287.16C210.062 283.933 208.78 280.839 206.499 278.557C204.218 276.275 201.122 274.992 197.895 274.988ZM197.895 309.849C185.381 309.849 175.203 299.671 175.203 287.157C175.203 274.646 185.378 264.465 197.895 264.465C210.415 264.465 220.587 274.646 220.587 287.157C220.587 299.668 210.409 309.849 197.895 309.849ZM261.678 274.988C258.451 274.991 255.357 276.274 253.075 278.555C250.793 280.836 249.51 283.93 249.506 287.157C249.51 290.383 250.794 293.476 253.075 295.757C255.356 298.038 258.449 299.321 261.675 299.325C264.9 299.321 267.993 298.038 270.274 295.758C272.555 293.477 273.838 290.385 273.843 287.16C273.84 283.934 272.557 280.841 270.277 278.559C267.996 276.277 264.904 274.993 261.678 274.988ZM261.678 309.849C249.161 309.849 238.983 299.671 238.983 287.157C238.986 274.646 249.161 264.465 261.675 264.465C274.186 264.465 284.358 274.646 284.358 287.157C284.358 299.668 274.177 309.849 261.678 309.849Z" fill="#13C4A1"/>
<path fill-rule="evenodd" clip-rule="evenodd" d="M223.41 292.42H216.553C215.852 292.436 215.154 292.312 214.502 292.055C213.849 291.799 213.254 291.414 212.752 290.924C212.25 290.434 211.852 289.848 211.579 289.202C211.307 288.555 211.167 287.861 211.167 287.159C211.167 286.458 211.307 285.763 211.579 285.117C211.852 284.47 212.25 283.885 212.752 283.395C213.254 282.905 213.849 282.52 214.502 282.263C215.154 282.006 215.852 281.882 216.553 281.899H223.404C224.777 281.931 226.084 282.5 227.043 283.483C228.003 284.466 228.541 285.785 228.541 287.159C228.541 288.533 228.003 289.853 227.043 290.835C226.084 291.818 224.777 292.387 223.404 292.42H223.41ZM158.148 275.037C156.752 275.037 155.413 274.482 154.426 273.496C153.439 272.509 152.884 271.171 152.883 269.775V224.379C152.883 222.984 153.437 221.645 154.424 220.658C155.411 219.672 156.749 219.117 158.145 219.117C159.54 219.117 160.879 219.672 161.865 220.658C162.852 221.645 163.406 222.984 163.406 224.379V269.775C163.407 270.466 163.272 271.151 163.008 271.789C162.743 272.428 162.356 273.008 161.867 273.497C161.378 273.986 160.798 274.373 160.159 274.638C159.52 274.902 158.839 275.037 158.148 275.037Z" fill="#13C4A1"/>
<path fill-rule="evenodd" clip-rule="evenodd" d="M180.848 252.341H135.456C134.091 252.295 132.797 251.721 131.847 250.739C130.898 249.757 130.367 248.445 130.367 247.079C130.367 245.713 130.898 244.401 131.847 243.419C132.797 242.437 134.091 241.863 135.456 241.817H180.848C181.55 241.801 182.247 241.924 182.9 242.181C183.553 242.438 184.148 242.823 184.649 243.313C185.151 243.803 185.55 244.389 185.822 245.035C186.095 245.682 186.235 246.376 186.235 247.077C186.235 247.779 186.095 248.473 185.822 249.12C185.55 249.766 185.151 250.352 184.649 250.842C184.148 251.332 183.553 251.717 182.9 251.974C182.247 252.231 181.55 252.357 180.848 252.341ZM305.992 234.025H298.271C297.58 234.026 296.895 233.89 296.256 233.626C295.618 233.362 295.037 232.974 294.549 232.485C294.06 231.997 293.672 231.416 293.408 230.777C293.144 230.139 293.008 229.454 293.009 228.763C293.008 228.072 293.144 227.387 293.408 226.748C293.672 226.11 294.06 225.529 294.549 225.041C295.037 224.552 295.618 224.164 296.256 223.9C296.895 223.636 297.58 223.5 298.271 223.501H305.992C307.388 223.501 308.726 224.056 309.713 225.042C310.7 226.029 311.254 227.367 311.254 228.763C311.254 230.158 310.7 231.497 309.713 232.484C308.726 233.47 307.388 234.025 305.992 234.025ZM319.174 252.341H311.446C310.072 252.308 308.765 251.739 307.804 250.756C306.844 249.772 306.306 248.452 306.306 247.077C306.306 245.703 306.844 244.383 307.804 243.399C308.765 242.416 310.072 241.847 311.446 241.814H319.174C320.569 241.814 321.907 242.369 322.894 243.355C323.881 244.342 324.435 245.68 324.435 247.076C324.435 248.472 323.881 249.81 322.894 250.797C321.907 251.783 320.569 252.341 319.174 252.341ZM305.992 270.654H298.271C297.58 270.655 296.895 270.519 296.256 270.255C295.618 269.991 295.037 269.603 294.549 269.114C294.06 268.626 293.672 268.045 293.408 267.406C293.144 266.768 293.008 266.083 293.009 265.392C293.008 264.701 293.144 264.016 293.408 263.377C293.672 262.739 294.06 262.158 294.549 261.67C295.037 261.181 295.618 260.793 296.256 260.529C296.895 260.265 297.58 260.129 298.271 260.13H305.992C306.683 260.13 307.368 260.266 308.006 260.53C308.644 260.794 309.224 261.182 309.713 261.671C310.201 262.159 310.589 262.74 310.853 263.378C311.117 264.017 311.252 264.701 311.251 265.392C311.252 266.083 311.117 266.767 310.853 267.406C310.589 268.044 310.201 268.625 309.713 269.113C309.224 269.602 308.644 269.99 308.006 270.254C307.368 270.518 306.683 270.654 305.992 270.654ZM292.817 252.341H285.09C283.715 252.308 282.408 251.739 281.448 250.756C280.487 249.772 279.95 248.452 279.95 247.077C279.95 245.703 280.487 244.383 281.448 243.399C282.408 242.416 283.715 241.847 285.09 241.814H292.817C294.213 241.814 295.551 242.369 296.538 243.355C297.525 244.342 298.079 245.68 298.079 247.076C298.079 248.472 297.525 249.81 296.538 250.797C295.551 251.783 294.213 252.341 292.817 252.341ZM243.344 258.217H216.231C214.866 258.171 213.573 257.597 212.623 256.615C211.674 255.633 211.143 254.321 211.143 252.955C211.143 251.589 211.674 250.277 212.623 249.295C213.573 248.313 214.866 247.739 216.231 247.693H243.347C244.742 247.693 246.08 248.247 247.067 249.234C248.054 250.221 248.608 251.559 248.608 252.955C248.608 254.35 248.054 255.689 247.067 256.676C246.08 257.662 244.739 258.217 243.344 258.217ZM229.785 132.775C213.645 132.775 200.517 145.906 200.517 162.042C200.517 178.179 213.642 191.307 229.785 191.307C245.918 191.307 259.046 178.179 259.046 162.042C259.046 145.906 245.918 132.775 229.785 132.775ZM229.785 201.831C207.846 201.831 189.993 183.981 189.993 162.042C189.993 140.103 207.843 122.254 229.785 122.254C251.729 122.254 269.567 140.103 269.567 162.042C269.57 183.981 251.724 201.831 229.785 201.831Z" fill="#13C4A1"/>
<path fill-rule="evenodd" clip-rule="evenodd" d="M286.2 200.388C285.508 200.39 284.822 200.254 284.183 199.989C283.543 199.725 282.962 199.337 282.473 198.847L280.211 196.574C279.394 195.76 278.867 194.699 278.713 193.556C278.558 192.413 278.784 191.251 279.355 190.249C281.706 186.127 283.529 181.726 284.782 177.15C285.087 176.039 285.748 175.058 286.664 174.359C287.58 173.661 288.7 173.282 289.852 173.282H300.488V150.806H289.855C288.703 150.806 287.583 150.427 286.667 149.728C285.751 149.029 285.09 148.049 284.785 146.938C283.529 142.362 281.703 137.962 279.349 133.842C278.781 132.839 278.556 131.678 278.71 130.535C278.863 129.392 279.386 128.332 280.2 127.514L287.726 119.994L271.832 104.102L264.314 111.623C263.497 112.437 262.435 112.962 261.292 113.115C260.148 113.269 258.986 113.043 257.983 112.473C253.862 110.124 249.464 108.3 244.891 107.043C243.778 106.739 242.796 106.077 242.096 105.161C241.397 104.244 241.017 103.123 241.017 101.97V91.34H218.549V101.97C218.549 104.338 216.954 106.417 214.672 107.043C210.099 108.3 205.701 110.125 201.582 112.476C200.58 113.047 199.417 113.273 198.273 113.12C197.13 112.966 196.068 112.441 195.252 111.626L187.734 104.102L171.839 119.994L179.357 127.511C181.04 129.189 181.383 131.781 180.204 133.839C177.858 137.962 176.035 142.363 174.78 146.938C174.475 148.05 173.812 149.031 172.894 149.73C171.977 150.429 170.855 150.807 169.701 150.806H159.077V173.279H169.713C172.075 173.279 174.157 174.865 174.78 177.15C176.037 181.725 177.862 186.125 180.213 190.246C180.784 191.248 181.009 192.411 180.855 193.554C180.7 194.698 180.174 195.759 179.357 196.574L177.201 198.729C176.268 199.663 175.017 200.212 173.697 200.266C172.378 200.321 171.086 199.876 170.079 199.022C169.072 198.167 168.423 196.965 168.262 195.654C168.101 194.343 168.438 193.02 169.208 191.947C167.904 189.309 166.772 186.589 165.819 183.806H153.816C152.42 183.806 151.081 183.252 150.094 182.265C149.107 181.278 148.552 179.94 148.551 178.544L148.554 145.547C148.554 142.638 150.91 140.285 153.816 140.285H165.819C166.76 137.524 167.874 134.822 169.161 132.203L160.678 123.714C159.69 122.728 159.133 121.39 159.131 119.994C159.131 118.597 159.689 117.259 160.675 116.273L184.005 92.9404C184.493 92.4514 185.074 92.0634 185.713 91.7987C186.352 91.534 187.036 91.3978 187.728 91.3978C188.42 91.3978 189.104 91.534 189.743 91.7987C190.382 92.0634 190.963 92.4514 191.451 92.9404L199.947 101.433C202.563 100.142 205.262 99.0231 208.022 98.0842L208.025 86.0782C208.025 83.1698 210.379 80.8164 213.281 80.8164H246.281C249.187 80.8164 251.54 83.1727 251.54 86.0782V98.0812C254.301 99.0202 256.994 100.142 259.616 101.433L268.114 92.9375C268.602 92.4491 269.182 92.0617 269.82 91.7974C270.457 91.5331 271.141 91.397 271.832 91.397C272.522 91.397 273.206 91.5331 273.844 91.7974C274.481 92.0617 275.061 92.4491 275.549 92.9375L298.891 116.273C299.877 117.259 300.423 118.597 300.423 119.994C300.423 121.387 299.877 122.728 298.888 123.714L290.393 132.206C291.683 134.822 292.805 137.524 293.747 140.282H305.753C308.658 140.282 311.009 142.638 311.009 145.544L311.015 178.541C311.015 181.449 308.652 183.803 305.75 183.803H293.747C292.805 186.581 291.671 189.295 290.375 191.929C290.97 192.708 291.336 193.639 291.43 194.615C291.525 195.591 291.345 196.574 290.911 197.454C290.477 198.333 289.806 199.074 288.974 199.593C288.141 200.111 287.18 200.387 286.2 200.388ZM229.784 132.776C213.641 132.776 200.513 145.907 200.513 162.044C200.513 178.178 213.639 191.309 229.781 191.309C245.915 191.309 259.043 178.181 259.043 162.044C259.043 145.907 245.915 132.779 229.781 132.779L229.784 132.776ZM229.784 201.832C207.839 201.832 189.99 183.983 189.99 162.044C189.99 140.105 207.839 122.255 229.781 122.255C251.726 122.255 269.564 140.105 269.564 162.044C269.567 183.983 251.723 201.832 229.784 201.832Z" fill="#13C4A1"/>
<path fill-rule="evenodd" clip-rule="evenodd" d="M113.136 386.43C139.084 405.801 169.457 418.389 201.5 423.053C204.725 410.666 215.951 401.43 229.162 401.146C235.747 400.984 242.192 403.061 247.443 407.037C252.695 411.013 256.442 416.653 258.072 423.035C290.116 418.372 320.489 405.784 346.437 386.412C339.97 375.383 341.387 360.921 350.511 351.392C355.053 346.621 361.078 343.532 367.603 342.629C374.128 341.726 380.766 343.064 386.432 346.423C405.803 320.474 418.39 290.1 423.052 258.055C410.677 254.837 401.432 243.604 401.148 230.4C400.987 223.812 403.066 217.365 407.045 212.112C411.024 206.86 416.667 203.112 423.052 201.483C418.387 169.44 405.798 139.067 386.426 113.119C375.4 119.583 360.929 118.168 351.4 109.038C346.63 104.499 343.541 98.4754 342.638 91.9527C341.736 85.43 343.073 78.794 346.431 73.1297C320.479 53.7614 290.103 41.1764 258.058 36.5155C254.833 48.8875 243.607 58.1238 230.408 58.4072C223.822 58.5715 217.375 56.4953 212.122 52.5183C206.87 48.5414 203.123 42.8993 201.494 36.5155C169.45 41.179 139.076 53.7672 113.127 73.1386C119.585 84.1671 118.176 98.6327 109.043 108.161C104.504 112.931 98.4803 116.02 91.9577 116.922C85.4352 117.825 78.7993 116.488 73.1349 113.131C53.7566 139.076 41.165 169.45 36.5029 201.495C48.8927 204.714 58.1319 215.946 58.4065 229.154C58.5711 235.739 56.4957 242.185 52.5199 247.438C48.5442 252.69 42.9034 256.438 36.5207 258.067C41.1859 290.11 53.7739 320.483 73.1438 346.431C84.1723 339.965 98.6379 341.382 108.166 350.512C112.936 355.054 116.024 361.079 116.927 367.603C117.829 374.126 116.493 380.763 113.136 386.43ZM205.876 434.196C205.675 434.196 205.463 434.188 205.256 434.161C167.78 429.694 132.263 414.976 102.612 391.626C102.052 391.18 101.587 390.624 101.247 389.994C100.906 389.363 100.697 388.67 100.631 387.956C100.566 387.241 100.649 386.52 100.873 385.838C101.098 385.156 101.46 384.528 101.936 383.991C105.157 380.385 106.849 375.668 106.653 370.837C106.457 366.006 104.388 361.442 100.885 358.11C93.9105 351.419 82.7786 351.203 75.5621 357.616C75.0255 358.092 74.3975 358.452 73.7166 358.677C73.0357 358.901 72.3163 358.984 71.6023 358.92C70.8883 358.856 70.1948 358.648 69.5642 358.307C68.9336 357.966 68.3793 357.5 67.9351 356.937C44.5855 327.29 29.8711 291.773 25.4124 254.299C25.326 253.587 25.3867 252.864 25.5905 252.176C25.7943 251.488 26.137 250.849 26.5974 250.298C27.0578 249.747 27.6262 249.297 28.2674 248.975C28.9087 248.652 29.6092 248.465 30.3258 248.423C35.1543 248.153 39.688 246.013 42.9672 242.459C46.2463 238.904 48.0135 234.213 47.8947 229.378C47.685 219.702 39.9636 211.682 30.3169 211.124C29.6009 211.081 28.9012 210.892 28.2606 210.57C27.62 210.247 27.0519 209.797 26.5912 209.247C26.1305 208.698 25.7867 208.06 25.581 207.373C25.3752 206.685 25.3118 205.964 25.3946 205.251C29.858 167.774 44.5786 132.256 67.9351 102.61C68.3788 102.047 68.9329 101.58 69.5635 101.239C70.1941 100.897 70.8878 100.688 71.602 100.625C72.3163 100.561 73.036 100.644 73.717 100.869C74.3979 101.093 75.0258 101.455 75.5621 101.931C79.1677 105.152 83.8853 106.843 88.7161 106.646C93.5468 106.449 98.1113 104.38 101.443 100.877C108.143 93.8965 108.35 82.7764 101.936 75.5598C101.46 75.0232 101.098 74.3948 100.874 73.7133C100.65 73.0318 100.567 72.3116 100.631 71.597C100.695 70.8823 100.905 70.1884 101.247 69.5578C101.589 68.9271 102.057 68.3732 102.621 67.9299C132.269 44.5837 167.782 29.8687 205.253 25.4042C205.966 25.3192 206.688 25.3809 207.376 25.5854C208.064 25.7899 208.703 26.1329 209.253 26.5934C209.803 27.0539 210.254 27.6221 210.576 28.2631C210.899 28.904 211.087 29.6042 211.129 30.3206C211.399 35.1507 213.54 39.6859 217.097 42.9649C220.653 46.244 225.347 48.0092 230.183 47.8866C239.851 47.6799 247.87 39.9643 248.426 30.3235C248.52 28.8737 249.193 27.5273 250.309 26.5942C250.858 26.1337 251.495 25.7906 252.181 25.5859C252.867 25.3812 253.588 25.3194 254.299 25.4042C291.775 29.8641 327.293 44.5795 356.943 67.9299C358.085 68.8275 358.797 70.1533 358.936 71.5972C359.066 73.0441 358.587 74.4762 357.628 75.5598C354.408 79.1658 352.717 83.8829 352.913 88.7131C353.109 93.5434 355.177 98.1079 358.679 101.441C365.659 108.132 376.785 108.347 384.002 101.934C385.082 100.968 386.511 100.496 387.958 100.626C389.411 100.753 390.734 101.473 391.629 102.613C414.986 132.257 429.704 167.775 434.16 205.251C434.337 206.692 433.906 208.139 432.973 209.252C432.512 209.802 431.944 210.251 431.303 210.574C430.663 210.896 429.963 211.085 429.247 211.127C424.416 211.394 419.88 213.532 416.599 217.087C413.318 220.643 411.551 225.336 411.672 230.172C411.885 239.849 419.6 247.868 429.247 248.426C429.963 248.469 430.662 248.658 431.303 248.981C431.943 249.304 432.511 249.754 432.971 250.304C433.431 250.855 433.774 251.493 433.978 252.181C434.183 252.868 434.245 253.59 434.16 254.302C429.695 291.776 414.978 327.292 391.629 356.94C391.186 357.505 390.632 357.972 390.001 358.315C389.371 358.657 388.677 358.866 387.962 358.93C387.247 358.993 386.527 358.91 385.846 358.685C385.165 358.459 384.537 358.097 384.002 357.619C380.394 354.399 375.675 352.709 370.843 352.906C366.012 353.102 361.446 355.171 358.112 358.674C351.427 365.654 351.205 376.774 357.619 383.991C358.097 384.527 358.46 385.155 358.685 385.837C358.911 386.519 358.995 387.24 358.931 387.955C358.867 388.671 358.658 389.366 358.315 389.997C357.973 390.628 357.505 391.183 356.94 391.626C327.288 414.97 291.774 429.684 254.302 434.152C253.589 434.234 252.867 434.169 252.18 433.963C251.493 433.756 250.855 433.412 250.306 432.952C249.756 432.491 249.306 431.923 248.983 431.283C248.659 430.642 248.47 429.943 248.426 429.227C248.15 424.401 246.009 419.871 242.455 416.595C238.901 413.318 234.213 411.552 229.38 411.67C219.71 411.871 211.684 419.589 211.126 429.239C211.054 430.581 210.468 431.844 209.491 432.767C208.515 433.69 207.22 434.203 205.876 434.199V434.196Z" fill="#13C4A1"/>
<path fill-rule="evenodd" clip-rule="evenodd" d="M229.795 10.523C227.271 10.5144 224.772 11.0206 222.45 12.0106C220.128 13.0006 218.033 14.4536 216.292 16.2809C214.588 18.0484 213.252 20.1363 212.361 22.4237C211.47 24.7111 211.042 27.1526 211.101 29.6067C211.148 32.0609 211.681 34.4814 212.669 36.7282C213.657 38.975 215.081 41.0035 216.859 42.6963C218.627 44.3984 220.715 45.7335 223.003 46.6244C225.29 47.5154 227.731 47.9446 230.185 47.8873C232.639 47.8415 235.06 47.3096 237.307 46.3223C239.554 45.335 241.583 43.9119 243.277 42.1353C244.979 40.3667 246.314 38.2785 247.204 35.9913C248.095 33.7041 248.523 31.2632 248.465 28.8095C248.418 26.355 247.884 23.9343 246.896 21.6871C245.908 19.4399 244.484 17.4108 242.707 15.7169C239.239 12.3757 234.608 10.5141 229.792 10.526L229.795 10.523ZM229.768 58.4168C222.239 58.4342 214.998 55.5222 209.577 50.2967C206.799 47.6493 204.574 44.4775 203.029 40.9647C201.484 37.452 200.651 33.6679 200.577 29.8311C200.485 25.9948 201.155 22.1783 202.548 18.6025C203.941 15.0268 206.029 11.7627 208.691 8.99939C211.34 6.22198 214.513 3.99729 218.027 2.45398C221.541 0.910679 225.326 0.0794015 229.163 0.00823372C232.998 -0.0831322 236.814 0.586663 240.389 1.97891C243.964 3.37115 247.228 5.45822 249.992 8.11947C252.768 10.7671 254.992 13.9387 256.534 17.451C258.077 20.9633 258.908 24.7466 258.98 28.5821C259.074 32.4187 258.406 36.2359 257.013 39.812C255.62 43.388 253.53 46.6518 250.866 49.4138C248.146 52.2702 244.873 54.5416 241.245 56.0891C237.617 57.6366 233.712 58.4306 229.768 58.4168ZM87.9619 69.2771C83.0455 69.2771 78.1292 71.2023 74.4677 75.0261C71.0433 78.6064 69.1797 83.3994 69.286 88.3526C69.3923 93.3057 71.4598 98.0143 75.0347 101.444C78.6139 104.867 83.4048 106.73 88.3561 106.624C93.3073 106.519 98.0144 104.453 101.444 100.88C103.148 99.1132 104.484 97.0253 105.374 94.7378C106.265 92.4503 106.693 90.0087 106.632 87.5547C106.589 85.1006 106.059 82.6795 105.072 80.432C104.086 78.1845 102.663 76.1553 100.886 74.4621C97.4098 71.1288 92.7781 69.2706 87.9619 69.2771ZM87.956 117.144C80.6833 117.144 73.3988 114.457 67.7532 109.042C56.1252 97.8982 55.7236 79.3726 66.8673 67.7446C78.014 56.1166 96.5396 55.7239 108.168 66.8647C110.944 69.5123 113.167 72.6839 114.71 76.1962C116.253 79.7085 117.084 83.4918 117.156 87.3273C117.248 91.1634 116.579 94.9798 115.187 98.5556C113.794 102.131 111.707 105.395 109.045 108.159C106.32 111.006 103.047 113.27 99.4218 114.814C95.7969 116.359 91.8962 117.152 87.956 117.144ZM29.2226 211.092C26.6987 211.084 24.1995 211.59 21.8779 212.58C19.5562 213.57 17.4608 215.023 15.7196 216.85C14.0169 218.618 12.6817 220.706 11.7912 222.994C10.9007 225.281 10.4726 227.722 10.5316 230.176C10.5778 232.631 11.1104 235.052 12.0988 237.299C13.0872 239.547 14.5115 241.575 16.2895 243.269C18.0551 244.975 20.1427 246.312 22.4306 247.203C24.7185 248.093 27.1609 248.52 29.6153 248.457C32.069 248.411 34.4893 247.879 36.7362 246.892C38.983 245.904 41.0117 244.481 42.7049 242.705C44.4072 240.936 45.7421 238.848 46.6326 236.561C47.5231 234.274 47.9514 231.833 47.8929 229.379C47.8463 226.924 47.3137 224.504 46.3259 222.256C45.3381 220.009 43.9147 217.98 42.138 216.286C38.67 212.944 34.0386 211.082 29.2226 211.092ZM29.193 258.986C21.665 259.002 14.4258 256.09 9.00502 250.866C6.22775 248.218 4.00271 245.046 2.45845 241.534C0.914183 238.021 0.0813104 234.237 0.0079514 230.4C-0.0817834 226.565 0.588764 222.75 1.98092 219.175C3.37307 215.6 5.45928 212.336 8.11919 209.572C10.7677 206.794 13.9407 204.569 17.4545 203.025C20.9683 201.481 24.7533 200.649 28.5907 200.578C32.4258 200.49 36.2403 201.162 39.8149 202.554C43.3894 203.946 46.6536 206.031 49.4195 208.689C52.198 211.334 54.4234 214.506 55.9663 218.018C57.5093 221.531 58.3391 225.315 58.4077 229.151C58.5025 232.988 57.8344 236.805 56.4419 240.381C55.0495 243.957 52.9606 247.221 50.2964 249.983C47.5768 252.84 44.3027 255.112 40.6745 256.659C37.0463 258.207 33.1404 258.998 29.196 258.983L29.193 258.986ZM74.4707 358.674C67.3427 366.115 67.5908 377.962 75.0347 385.087C78.612 388.512 83.4026 390.378 88.3543 390.274C93.306 390.169 98.014 388.104 101.444 384.532C103.148 382.764 104.483 380.675 105.374 378.387C106.264 376.099 106.692 373.657 106.632 371.203C106.589 368.749 106.059 366.328 105.072 364.08C104.086 361.833 102.663 359.804 100.886 358.11C97.3054 354.687 92.513 352.824 87.5603 352.93C82.6076 353.035 77.8991 355.101 74.4677 358.674H74.4707ZM87.956 400.789C80.6833 400.789 73.3988 398.102 67.7532 392.687C56.1252 381.543 55.7236 363.021 66.8673 351.393C78.014 339.765 96.5396 339.372 108.168 350.513C110.944 353.16 113.167 356.332 114.71 359.844C116.253 363.357 117.084 367.14 117.156 370.975C117.248 374.812 116.578 378.629 115.186 382.205C113.794 385.781 111.706 389.046 109.045 391.81C106.32 394.656 103.046 396.919 99.4211 398.462C95.7962 400.006 91.8957 400.798 87.956 400.789ZM229.795 411.662C229.659 411.662 229.52 411.662 229.381 411.67C226.928 411.715 224.508 412.246 222.261 413.232C220.014 414.218 217.985 415.641 216.292 417.416C214.589 419.185 213.253 421.274 212.362 423.561C211.471 425.849 211.043 428.291 211.101 430.745C211.148 433.199 211.681 435.62 212.669 437.867C213.657 440.113 215.081 442.142 216.859 443.835C218.626 445.539 220.714 446.875 223.001 447.766C225.289 448.656 227.73 449.084 230.185 449.023C232.639 448.977 235.06 448.445 237.308 447.457C239.555 446.47 241.584 445.046 243.277 443.268C244.979 441.501 246.314 439.414 247.204 437.129C248.094 434.843 248.523 432.403 248.465 429.951C248.418 427.497 247.884 425.076 246.896 422.829C245.908 420.581 244.484 418.552 242.707 416.858C239.241 413.514 234.612 411.65 229.795 411.662ZM229.768 459.555C222.239 459.573 214.998 456.661 209.577 451.435C206.8 448.788 204.575 445.616 203.03 442.104C201.486 438.592 200.652 434.809 200.577 430.973C200.486 427.135 201.155 423.318 202.548 419.741C203.941 416.165 206.029 412.9 208.691 410.135C211.341 407.359 214.514 405.135 218.028 403.592C221.541 402.049 225.326 401.218 229.163 401.147C232.998 401.056 236.814 401.726 240.389 403.118C243.964 404.511 247.228 406.597 249.992 409.258C252.768 411.905 254.992 415.077 256.535 418.589C258.078 422.102 258.909 425.885 258.98 429.721C259.075 433.557 258.406 437.374 257.013 440.949C255.62 444.525 253.531 447.788 250.866 450.549C248.221 453.329 245.05 455.556 241.537 457.101C238.024 458.645 234.24 459.477 230.403 459.547L229.768 459.555ZM358.68 385.087C366.115 392.221 377.961 391.967 385.098 384.529C388.52 380.947 390.382 376.155 390.277 371.203C390.171 366.251 388.106 361.542 384.534 358.11C380.954 354.686 376.161 352.821 371.208 352.927C366.254 353.032 361.545 355.098 358.113 358.671C354.691 362.252 352.829 367.044 352.935 371.996C353.041 376.948 355.107 381.656 358.68 385.087ZM371.601 400.789C364.072 400.805 356.831 397.9 351.398 392.687C339.77 381.543 339.378 363.021 350.513 351.393C361.659 339.765 380.185 339.369 391.813 350.513C403.441 361.654 403.834 380.182 392.699 391.81C389.972 394.656 386.697 396.919 383.07 398.462C379.444 400.006 375.542 400.797 371.601 400.789ZM430.364 211.092C427.877 211.094 425.415 211.592 423.122 212.557C420.83 213.521 418.753 214.933 417.012 216.71C415.272 218.487 413.903 220.593 412.986 222.905C412.07 225.218 411.623 227.689 411.673 230.176C411.895 240.475 420.434 248.696 430.748 248.454C433.203 248.409 435.625 247.878 437.873 246.891C440.122 245.905 442.152 244.481 443.846 242.705C445.549 240.936 446.884 238.848 447.774 236.561C448.665 234.274 449.093 231.833 449.034 229.379C448.987 226.925 448.455 224.504 447.467 222.257C446.479 220.009 445.056 217.98 443.279 216.286C439.811 212.945 435.18 211.082 430.364 211.092ZM430.346 258.986C414.525 258.986 401.486 246.289 401.149 230.403C400.813 214.299 413.628 200.92 429.732 200.578C433.567 200.488 437.382 201.159 440.957 202.551C444.532 203.944 447.796 206.029 450.561 208.689C453.337 211.336 455.561 214.508 457.103 218.02C458.646 221.533 459.477 225.316 459.549 229.151C459.645 232.988 458.977 236.805 457.584 240.381C456.192 243.958 454.103 247.221 451.438 249.983C448.719 252.839 445.447 255.11 441.82 256.658C438.193 258.205 434.289 258.999 430.346 258.986ZM371.607 69.2771C366.691 69.2771 361.774 71.2023 358.113 75.0261C354.691 78.6075 352.829 83.4 352.935 88.3525C353.041 93.3049 355.107 98.0131 358.68 101.444C362.261 104.867 367.053 106.73 372.006 106.624C376.958 106.518 381.667 104.453 385.098 100.88C386.8 99.112 388.135 97.0239 389.025 94.7366C389.916 92.4494 390.344 90.0084 390.286 87.5547C390.24 85.1004 389.707 82.6797 388.719 80.4324C387.731 78.1852 386.308 76.156 384.531 74.4621C381.056 71.1275 376.424 69.2691 371.607 69.2771ZM371.598 117.144C364.071 117.157 356.833 114.253 351.401 109.042C339.767 97.8982 339.375 79.3726 350.513 67.7446C361.659 56.1166 380.182 55.7239 391.813 66.8647C394.591 69.5112 396.817 72.6824 398.361 76.1948C399.905 79.7073 400.738 83.4911 400.81 87.3273C400.901 91.1632 400.231 94.9791 398.838 98.5547C397.446 102.13 395.359 105.394 392.699 108.159C389.972 111.006 386.697 113.27 383.07 114.815C379.443 116.359 375.54 117.152 371.598 117.144Z" fill="#13C4A1"/>
</svg>
