<svg width="496" height="480" viewBox="0 0 496 480" fill="none" xmlns="http://www.w3.org/2000/svg">
<path d="M248.004 376C322.996 376 384.004 314.992 384.004 240C384.004 165.008 322.996 104 248.004 104C173.012 104 112.004 165.008 112.004 240C112.004 314.992 173.012 376 248.004 376ZM248.004 120C314.172 120 368.004 173.832 368.004 240C368.004 306.168 314.172 360 248.004 360C181.836 360 128.004 306.168 128.004 240C128.004 173.832 181.836 120 248.004 120Z" fill="#13C4A1"/>
<path d="M296.004 296H328.004C330.126 296 332.16 295.157 333.661 293.657C335.161 292.157 336.004 290.122 336.004 288V184C336.004 181.878 335.161 179.843 333.661 178.343C332.16 176.843 330.126 176 328.004 176H296.004C293.882 176 291.847 176.843 290.347 178.343C288.847 179.843 288.004 181.878 288.004 184V288C288.004 290.122 288.847 292.157 290.347 293.657C291.847 295.157 293.882 296 296.004 296ZM304.004 192H320.004V280H304.004V192ZM232.004 296H264.004C266.126 296 268.16 295.157 269.661 293.657C271.161 292.157 272.004 290.122 272.004 288V208C272.004 205.878 271.161 203.843 269.661 202.343C268.16 200.843 266.126 200 264.004 200H232.004C229.882 200 227.847 200.843 226.347 202.343C224.847 203.843 224.004 205.878 224.004 208V288C224.004 290.122 224.847 292.157 226.347 293.657C227.847 295.157 229.882 296 232.004 296ZM240.004 216H256.004V280H240.004V216ZM200.004 296C202.126 296 204.16 295.157 205.661 293.657C207.161 292.157 208.004 290.122 208.004 288V240C208.004 237.878 207.161 235.843 205.661 234.343C204.16 232.843 202.126 232 200.004 232H168.004C165.882 232 163.847 232.843 162.347 234.343C160.847 235.843 160.004 237.878 160.004 240V288C160.004 290.122 160.847 292.157 162.347 293.657C163.847 295.157 165.882 296 168.004 296H200.004ZM176.004 248H192.004V280H176.004V248Z" fill="#13C4A1"/>
<path d="M87.0199 190.238C85.4519 195.678 81.4999 199.902 76.4439 201.542L55.0039 208.51C53.5522 208.983 52.2659 209.861 51.2964 211.04C50.3269 212.219 49.7147 213.651 49.5319 215.166C48.5159 223.654 48.0039 232.006 48.0039 239.998C48.0039 247.99 48.5159 256.342 49.5399 264.83C49.7218 266.346 50.3336 267.779 51.3032 268.958C52.2729 270.138 53.5597 271.015 55.0119 271.486L76.4519 278.454C81.5079 280.094 85.4599 284.326 87.0279 289.766C87.8039 292.454 88.6439 295.118 89.5399 297.758C90.4622 300.416 90.7401 303.254 90.3507 306.04C89.9612 308.826 88.9156 311.48 87.2999 313.782L74.5159 331.654C73.6319 332.889 73.1174 334.349 73.0324 335.865C72.9474 337.381 73.2955 338.889 74.0359 340.214C82.2162 354.828 92.1629 368.381 103.652 380.566C104.713 381.693 106.078 382.488 107.583 382.853C109.087 383.218 110.664 383.138 112.124 382.622L131.46 375.83C133.919 374.986 136.554 374.783 139.114 375.239C141.674 375.695 144.075 376.796 146.092 378.438C148.204 380.118 150.356 381.75 152.54 383.326C157.036 386.558 159.676 391.87 159.612 397.534L159.388 417.062C159.356 420.198 161.148 423.062 163.98 424.398C179.26 431.598 195.46 436.806 212.116 439.878C213.639 440.154 215.209 439.981 216.636 439.382C218.063 438.783 219.286 437.783 220.156 436.502L230.508 421.318C233.572 416.822 238.62 414.43 243.884 414.342C246.62 414.414 249.372 414.414 252.124 414.342C257.452 414.046 262.428 416.822 265.492 421.318L275.836 436.502C276.707 437.787 277.934 438.789 279.366 439.386C280.799 439.983 282.375 440.149 283.9 439.862C300.544 436.794 316.723 431.591 332.036 424.382C334.868 423.046 336.66 420.182 336.628 417.054L336.404 397.526C336.357 394.766 336.974 392.034 338.203 389.561C339.433 387.088 341.238 384.947 343.468 383.318C345.652 381.742 347.804 380.118 349.916 378.438C351.932 376.792 354.335 375.689 356.897 375.232C359.459 374.776 362.096 374.982 364.556 375.83L383.892 382.622C386.868 383.662 390.196 382.87 392.364 380.566C403.854 368.384 413.798 354.831 421.972 340.214C422.713 338.89 423.063 337.382 422.979 335.866C422.896 334.35 422.383 332.889 421.5 331.654L408.716 313.782C407.099 311.48 406.053 308.827 405.663 306.041C405.274 303.255 405.552 300.416 406.476 297.758C407.372 295.118 408.212 292.454 408.988 289.766C410.556 284.326 414.508 280.102 419.564 278.462L441.004 271.494C443.972 270.526 446.1 267.934 446.476 264.838C447.492 256.342 448.004 247.99 448.004 239.998C448.004 232.006 447.492 223.654 446.468 215.166C446.286 213.651 445.674 212.218 444.705 211.039C443.735 209.859 442.448 208.982 440.996 208.51L419.556 201.542C414.5 199.902 410.548 195.67 408.98 190.23C408.204 187.548 407.367 184.883 406.468 182.238C405.546 179.581 405.268 176.742 405.657 173.957C406.047 171.171 407.092 168.517 408.708 166.214L421.492 148.342C422.376 147.108 422.89 145.648 422.975 144.132C423.06 142.616 422.712 141.108 421.972 139.782C413.792 125.168 403.845 111.616 392.356 99.4305C391.295 98.3035 389.929 97.5091 388.425 97.1441C386.921 96.7791 385.343 96.8591 383.884 97.3745L364.548 104.166C359.62 105.91 354.148 104.926 349.916 101.558C347.804 99.8785 345.652 98.2465 343.468 96.6705C341.236 95.0428 339.429 92.9023 338.198 90.4296C336.967 87.9568 336.349 85.2242 336.396 82.4625L336.62 62.9345C336.652 59.7985 334.86 56.9345 332.028 55.5985C316.715 48.3889 300.536 43.186 283.892 40.1185C282.368 39.8433 280.797 40.014 279.368 40.6101C277.939 41.2061 276.713 42.2021 275.836 43.4785L265.484 58.6625C264.005 60.8406 262.009 62.618 259.675 63.8354C257.34 65.0529 254.74 65.6724 252.108 65.6385C249.362 65.5665 246.614 65.5665 243.868 65.6385C241.23 65.7109 238.617 65.108 236.278 63.8871C233.938 62.6663 231.949 60.8678 230.5 58.6625L220.156 43.4785C219.283 42.1962 218.056 41.1958 216.624 40.5991C215.192 40.0025 213.617 39.8355 212.092 40.1185C195.448 43.1872 179.269 48.3901 163.956 55.5985C162.57 56.2531 161.401 57.2913 160.587 58.5901C159.773 59.8889 159.349 61.3938 159.364 62.9265L159.588 82.4545C159.635 85.2154 159.018 87.9473 157.789 90.4199C156.559 92.8925 154.754 95.0335 152.524 96.6625C150.34 98.2385 148.188 99.8625 146.076 101.542C144.058 103.185 141.655 104.287 139.094 104.743C136.532 105.199 133.897 104.995 131.436 104.15L112.1 97.3585C110.64 96.8452 109.063 96.7662 107.559 97.1311C106.056 97.496 104.69 98.2892 103.628 99.4145C92.1377 111.597 82.1934 125.15 74.0199 139.766C73.2783 141.091 72.9289 142.599 73.0125 144.115C73.0961 145.631 73.6092 147.091 74.4919 148.326L87.2759 166.198C90.5399 170.758 91.3719 176.75 89.5079 182.222C88.6439 184.886 87.8039 187.55 87.0199 190.238ZM100.316 156.918L90.5239 143.23C96.6712 132.904 103.794 123.19 111.796 114.222L126.148 119.262C131.162 121.014 136.54 121.456 141.772 120.549C147.005 119.642 151.92 117.415 156.052 114.078C157.964 112.558 159.908 111.086 161.884 109.662C166.196 106.532 169.692 102.411 172.079 97.6468C174.465 92.8825 175.671 87.6145 175.596 82.2865L175.428 67.9745C186.521 63.1304 198.072 59.4131 209.908 56.8785L217.268 67.6865C220.245 72.0807 224.274 75.66 228.989 78.0983C233.704 80.5366 238.953 81.7564 244.26 81.6465C246.748 81.5905 249.252 81.5905 251.716 81.6465C262.548 81.9905 272.572 76.7025 278.708 67.6865L286.084 56.8785C297.932 59.4145 309.492 63.1345 320.572 67.9745L320.404 82.2865C320.332 87.6147 321.541 92.8823 323.928 97.6462C326.316 102.41 329.812 106.531 334.124 109.662C336.1 111.086 338.044 112.558 339.956 114.078C344.088 117.418 349.004 119.647 354.239 120.554C359.474 121.461 364.853 121.017 369.868 119.262L384.22 114.222C392.22 123.182 399.348 132.91 405.492 143.23L395.7 156.91C392.607 161.281 390.598 166.324 389.839 171.623C389.079 176.923 389.591 182.328 391.332 187.39C392.148 189.798 392.908 192.222 393.62 194.678C396.66 205.222 404.516 213.478 414.62 216.766L431.132 222.126C431.708 228.238 432.004 234.23 432.004 239.998C432.004 245.766 431.708 251.758 431.124 257.87L414.62 263.23C404.508 266.51 396.66 274.766 393.612 285.318C392.908 287.774 392.14 290.198 391.324 292.598C389.586 297.662 389.075 303.066 389.835 308.365C390.594 313.664 392.602 318.707 395.692 323.078L405.476 336.766C399.329 347.093 392.205 356.807 384.204 365.774L369.852 360.734C364.839 358.979 359.46 358.533 354.226 359.441C348.993 360.348 344.078 362.578 339.948 365.918C338.036 367.438 336.092 368.91 334.116 370.334C329.804 373.465 326.307 377.586 323.921 382.35C321.535 387.114 320.328 392.383 320.404 397.71L320.572 412.022C309.479 416.866 297.928 420.584 286.092 423.118L278.732 412.31C275.842 408.019 271.944 404.501 267.379 402.066C262.814 399.631 257.722 398.352 252.548 398.342L251.74 398.35C249.252 398.406 246.748 398.406 244.284 398.35C238.973 398.213 233.713 399.42 228.993 401.861C224.274 404.302 220.249 407.896 217.292 412.31L209.924 423.118C198.085 420.585 186.531 416.868 175.436 412.022L175.604 397.71C175.676 392.382 174.467 387.115 172.08 382.351C169.692 377.587 166.195 373.466 161.884 370.334C159.908 368.91 157.964 367.438 156.052 365.918C147.484 359.102 136.308 357.15 126.14 360.734L111.788 365.774C103.788 356.814 96.6599 347.086 90.5159 336.766L100.308 323.086C103.401 318.716 105.41 313.673 106.169 308.373C106.929 303.074 106.417 297.669 104.676 292.606C103.859 290.194 103.096 287.765 102.388 285.318C99.3479 274.774 91.4919 266.518 81.3879 263.23L64.8759 257.87C64.2999 251.758 64.0039 245.766 64.0039 239.998C64.0039 234.23 64.2999 228.238 64.8839 222.126L81.3959 216.766C91.5079 213.478 99.3559 205.222 102.396 194.678C103.1 192.222 103.868 189.798 104.684 187.398C106.424 182.335 106.936 176.931 106.176 171.632C105.417 166.332 103.408 161.289 100.316 156.918Z" fill="#13C4A1"/>
<path d="M485.476 144.408L470.156 149.512C433.564 59.8 345.428 0 248.004 0C147.772 0 57.212 63.192 22.668 157.24L37.684 162.752C69.932 74.976 154.452 16 248.004 16C338.588 16 420.564 71.384 454.956 154.584L437.476 160.408C436.112 160.865 434.897 161.681 433.958 162.77C433.019 163.859 432.39 165.181 432.138 166.597C431.886 168.013 432.02 169.47 432.525 170.817C433.031 172.163 433.89 173.348 435.012 174.248L475.012 206.248C476.099 207.125 477.397 207.7 478.777 207.918C480.156 208.135 481.569 207.986 482.873 207.487C484.177 206.987 485.326 206.154 486.207 205.07C487.088 203.986 487.669 202.691 487.892 201.312L495.892 153.312C496.118 151.952 495.989 150.557 495.517 149.261C495.045 147.966 494.247 146.814 493.199 145.918C492.151 145.022 490.889 144.413 489.536 144.148C488.183 143.883 486.784 143.973 485.476 144.408ZM474.356 185.232L456.484 170.936L477.932 163.792L474.356 185.232ZM9.32404 327.888L23.788 325.48C59.084 418 148.764 480 248.004 480C348.236 480 438.796 416.808 473.34 322.76L458.324 317.248C426.076 405.024 341.556 464 248.004 464C156.46 464 73.7 407.456 39.964 322.784L57.316 319.888C58.6921 319.659 59.9844 319.075 61.0648 318.192C62.1451 317.31 62.976 316.16 63.4749 314.858C63.9738 313.555 64.1234 312.144 63.9089 310.766C63.6944 309.388 63.1232 308.089 62.252 307L30.252 267C29.3523 265.878 28.1671 265.019 26.8208 264.513C25.4745 264.008 24.0169 263.874 22.601 264.126C21.1851 264.378 19.8632 265.007 18.7742 265.946C17.6852 266.885 16.8692 268.1 16.412 269.464L0.412038 317.464C-0.025315 318.773 -0.116352 320.174 0.147782 321.529C0.411915 322.884 1.02223 324.148 1.91937 325.197C2.8165 326.246 3.96993 327.046 5.26747 327.517C6.56501 327.989 7.9625 328.116 9.32404 327.888ZM26.94 288.48L41.236 306.352L19.796 309.928L26.94 288.48Z" fill="#13C4A1"/>
</svg>
