<svg width="480" height="480" viewBox="0 0 480 480" fill="none" xmlns="http://www.w3.org/2000/svg">
<path d="M480 104V39.9997C480 38.5141 479.586 37.0579 478.805 35.7942C478.024 34.5304 476.907 33.5092 475.578 32.8447L411.578 0.844727C410.467 0.28921 409.242 0 408 0C406.758 0 405.533 0.28921 404.422 0.844727L340.422 32.8447C339.093 33.5092 337.976 34.5304 337.195 35.7942C336.414 37.0579 336 38.5141 336 39.9997V104C336 105.485 336.414 106.942 337.195 108.205C337.976 109.469 339.093 110.49 340.422 111.155L346.017 113.955L302.072 156.608C284.143 143.229 262.371 136.002 240 136.002C217.629 136.002 195.857 143.229 177.928 156.608L133.983 113.955L139.578 111.155C140.907 110.49 142.024 109.469 142.805 108.205C143.586 106.942 144 105.485 144 104V39.9997C144 38.5141 143.586 37.0579 142.805 35.7942C142.024 34.5304 140.907 33.5092 139.578 32.8447L75.578 0.844727C74.4671 0.28921 73.2421 0 72 0C70.7579 0 69.5329 0.28921 68.422 0.844727L4.422 32.8447C3.09327 33.5092 1.9758 34.5304 1.19478 35.7942C0.413762 37.0579 5.04925e-05 38.5141 0 39.9997V104C5.04925e-05 105.485 0.413762 106.942 1.19478 108.205C1.9758 109.469 3.09327 110.49 4.422 111.155L68.422 143.155C69.5329 143.71 70.7579 143.999 72 143.999C73.2421 143.999 74.4671 143.71 75.578 143.155L118.821 121.534L165.839 167.168C148.809 184.461 138.378 207.175 136.36 231.362C134.341 255.549 140.863 279.678 154.791 299.555L102.5 350.307L75.578 336.845C74.4671 336.289 73.2421 336 72 336C70.7579 336 69.5329 336.289 68.422 336.845L4.422 368.845C3.09327 369.509 1.9758 370.53 1.19478 371.794C0.413762 373.058 5.04925e-05 374.514 0 376V440C5.04925e-05 441.485 0.413762 442.942 1.19478 444.205C1.9758 445.469 3.09327 446.49 4.422 447.155L68.422 479.155C69.5329 479.71 70.7579 479.999 72 479.999C73.2421 479.999 74.4671 479.71 75.578 479.155L139.578 447.155C140.907 446.49 142.024 445.469 142.805 444.205C143.586 442.942 144 441.485 144 440V376C144 374.514 143.586 373.058 142.805 371.794C142.024 370.53 140.907 369.509 139.578 368.845L117.663 357.887L164.984 311.957C174.677 322.085 186.321 330.146 199.214 335.653C212.106 341.16 225.98 344 240 344C254.02 344 267.894 341.16 280.786 335.653C293.679 330.146 305.323 322.085 315.016 311.957L362.337 357.887L340.422 368.845C339.093 369.509 337.976 370.53 337.195 371.794C336.414 373.058 336 374.514 336 376V440C336 441.485 336.414 442.942 337.195 444.205C337.976 445.469 339.093 446.49 340.422 447.155L404.422 479.155C405.533 479.71 406.758 479.999 408 479.999C409.242 479.999 410.467 479.71 411.578 479.155L475.578 447.155C476.907 446.49 478.024 445.469 478.805 444.205C479.586 442.942 480 441.485 480 440V376C480 374.514 479.586 373.058 478.805 371.794C478.024 370.53 476.907 369.509 475.578 368.845L411.578 336.845C410.467 336.289 409.242 336 408 336C406.758 336 405.533 336.289 404.422 336.845L377.5 350.307L325.21 299.555C339.138 279.678 345.66 255.549 343.641 231.362C341.623 207.175 331.192 184.461 314.162 167.168L361.18 121.534L404.423 143.155C405.534 143.71 406.759 143.999 408.001 143.999C409.243 143.999 410.468 143.71 411.579 143.155L475.579 111.155C476.908 110.49 478.025 109.469 478.806 108.205C479.586 106.941 480 105.485 480 104ZM72 16.9437L118.112 39.9997L72 63.0567L25.888 39.9997L72 16.9437ZM16 52.9437L64 76.9437V123.055L16 99.0547V52.9437ZM80 123.056V76.9447L128 52.9447V99.0567L121.819 102.147L109.572 90.2597L98.428 101.74L106.657 109.727L80 123.056ZM16 388.944L64 412.944V459.055L16 435.055V388.944ZM80 459.056V412.945L128 388.945V435.057L80 459.056ZM72 399.056L25.888 376L72 352.944L118.112 376L72 399.056ZM352 388.943L400 412.943V459.054L352 435.054V388.943ZM416 459.055V412.945L464 388.945V435.057L416 459.055ZM408 352.943L454.112 376L408 399.057L361.888 376L408 352.943ZM313.558 288.243L299.147 274.26L288 285.74L303.536 300.82C295.332 309.41 285.472 316.248 274.551 320.92C263.629 325.591 251.874 328 239.996 328C228.118 328 216.363 325.591 205.441 320.92C194.52 316.248 184.66 309.41 176.456 300.82L192 285.74L180.857 274.26L166.446 288.246C157.732 274.975 152.77 259.594 152.086 243.733C151.402 227.872 155.022 212.121 162.561 198.149C170.101 184.178 181.28 172.507 194.914 164.372C208.548 156.237 224.128 151.942 240.004 151.942C255.88 151.942 271.46 156.237 285.094 164.372C298.728 172.507 309.907 184.178 317.447 198.149C324.986 212.121 328.606 227.872 327.922 243.733C327.238 259.594 322.276 274.975 313.562 288.246L313.558 288.243ZM408 16.9437L454.112 39.9997L408 63.0567L361.888 39.9997L408 16.9437ZM370.428 90.2597L358.181 102.146L352 99.0557V52.9437L400 76.9437V123.055L373.343 109.726L381.572 101.739L370.428 90.2597ZM416 123.056V76.9447L464 52.9447V99.0567L416 123.056Z" fill="white"/>
<path d="M64 160H80V320H64V160ZM400 160H416V320H400V160ZM160 55.9995H320V71.9995H160V55.9995ZM160 408H320V424H160V408Z" fill="white"/>
</svg>
