<svg width="377" height="384" viewBox="0 0 377 384" fill="none" xmlns="http://www.w3.org/2000/svg">
<path fill-rule="evenodd" clip-rule="evenodd" d="M188.456 299.967C187.974 299.967 187.494 299.909 187.023 299.791C174.854 296.742 163.296 291.632 152.851 284.681C142.648 277.897 133.657 269.495 126.128 259.709C118.607 249.936 112.729 239.003 108.725 227.339C104.597 215.331 102.496 202.72 102.507 190.022V123.606C102.507 120.582 104.796 118.05 107.805 117.748C138.626 114.635 166.519 102.826 184.332 85.3458C185.433 84.2654 186.914 83.6602 188.457 83.6602C189.999 83.6602 191.48 84.2654 192.581 85.3458C210.395 102.826 238.288 114.636 269.109 117.748C270.561 117.894 271.907 118.574 272.886 119.657C273.865 120.739 274.407 122.147 274.407 123.606V190.022C274.407 190.658 274.402 191.297 274.39 191.921C273.559 243.153 238.811 287.516 189.89 299.792C189.421 299.909 188.94 299.968 188.456 299.967ZM114.285 128.85V190.021C114.285 236.253 144.707 276.325 188.456 287.995C231.463 276.515 261.876 237.14 262.613 191.718C262.623 191.147 262.628 190.585 262.628 190.022V128.851C247.731 126.891 233.633 123.079 220.652 117.496C208.276 112.173 197.471 105.486 188.456 97.5787C179.441 105.486 168.636 112.173 156.261 117.496C143.28 123.079 129.182 126.891 114.285 128.85Z" fill="url(#paint0_linear_1093_810)"/>
<path fill-rule="evenodd" clip-rule="evenodd" d="M221.862 236.923H155.053C153.491 236.923 151.993 236.303 150.889 235.198C149.785 234.094 149.164 232.596 149.164 231.034V181.616C149.164 180.054 149.785 178.556 150.889 177.451C151.993 176.347 153.491 175.727 155.053 175.727H221.862C223.424 175.727 224.922 176.347 226.026 177.451C227.13 178.556 227.751 180.054 227.751 181.616V231.034C227.751 232.596 227.13 234.094 226.026 235.198C224.921 236.302 223.424 236.923 221.862 236.923ZM160.942 225.145H215.973V187.505H160.942V225.145Z" fill="url(#paint1_linear_1093_810)"/>
<path fill-rule="evenodd" clip-rule="evenodd" d="M208.732 187.504C207.17 187.504 205.672 186.884 204.567 185.78C203.463 184.675 202.843 183.177 202.843 181.615V160.126C202.843 156.164 201.333 152.445 198.59 149.653C195.877 146.89 192.278 145.368 188.457 145.368C180.525 145.368 174.071 151.989 174.071 160.127V181.615C174.071 183.177 173.45 184.675 172.346 185.78C171.241 186.884 169.743 187.504 168.182 187.504C166.62 187.504 165.122 186.884 164.017 185.78C162.913 184.675 162.293 183.177 162.293 181.615V160.127C162.293 145.494 174.03 133.59 188.458 133.59C195.466 133.59 202.051 136.365 206.996 141.401C211.914 146.41 214.622 153.06 214.622 160.128V181.616C214.621 183.178 214 184.676 212.896 185.78C211.791 186.884 210.293 187.504 208.732 187.504ZM23.7175 48.0926C10.6396 48.0926 0 37.3052 0 24.0463C0 10.7874 10.6396 0 23.7175 0C36.7953 0 47.436 10.7874 47.436 24.0463C47.436 37.3052 36.7964 48.0926 23.7175 48.0926ZM23.7175 11.7791C17.1343 11.7791 11.7781 17.2821 11.7781 24.0463C11.7781 30.8105 17.1343 36.3145 23.7175 36.3145C30.3006 36.3145 35.6568 30.8116 35.6568 24.0463C35.6568 17.2821 30.3006 11.7791 23.7175 11.7791Z" fill="url(#paint2_linear_1093_810)"/>
<path fill-rule="evenodd" clip-rule="evenodd" d="M353.197 197.703H268.502C266.941 197.703 265.443 197.082 264.338 195.978C263.234 194.873 262.613 193.375 262.613 191.814C262.613 190.252 263.234 188.754 264.338 187.649C265.443 186.545 266.941 185.925 268.502 185.925H347.308V116.838C347.308 68.9201 309.074 29.9363 262.081 29.9363H41.546C40.0033 29.9073 38.5335 29.2741 37.4528 28.1728C36.3721 27.0716 35.7666 25.5902 35.7666 24.0472C35.7666 22.5043 36.3721 21.0229 37.4528 19.9217C38.5335 18.8204 40.0033 18.1872 41.546 18.1582H262.08C275.185 18.1582 287.902 20.7734 299.876 25.9308C311.431 30.9083 321.806 38.0305 330.711 47.0997C339.584 56.122 346.634 66.7704 351.475 78.4618C356.525 90.6218 359.085 103.533 359.085 116.839V191.815C359.085 193.376 358.464 194.874 357.36 195.978C356.256 197.082 354.758 197.703 353.197 197.703ZM353.197 383.626C340.118 383.626 329.478 372.839 329.478 359.58C329.478 346.321 340.118 335.534 353.197 335.534C366.275 335.534 376.914 346.321 376.914 359.58C376.914 372.839 366.275 383.626 353.197 383.626ZM353.197 347.313C346.614 347.313 341.257 352.816 341.257 359.58C341.257 366.344 346.614 371.847 353.197 371.847C359.78 371.847 365.136 366.344 365.136 359.58C365.136 352.816 359.78 347.313 353.197 347.313Z" fill="url(#paint3_linear_1093_810)"/>
<path fill-rule="evenodd" clip-rule="evenodd" d="M335.367 365.468H114.833C101.727 365.468 89.0107 362.853 77.037 357.696C65.4816 352.718 55.1084 345.596 46.2015 336.527C37.3289 327.505 30.2792 316.856 25.4384 305.165C20.3881 293.005 17.8281 280.093 17.8281 266.788V191.813C17.8281 191.04 17.9805 190.274 18.2764 189.559C18.5724 188.845 19.0061 188.196 19.553 187.649C20.0998 187.102 20.749 186.668 21.4635 186.372C22.178 186.076 22.9438 185.924 23.7172 185.924H108.412C109.973 185.924 111.471 186.544 112.576 187.649C113.68 188.753 114.301 190.251 114.301 191.813C114.301 193.375 113.68 194.873 112.576 195.977C111.471 197.081 109.973 197.702 108.412 197.702H29.6062V266.789C29.6062 314.706 67.8387 353.69 114.833 353.69H335.367C336.91 353.719 338.379 354.352 339.46 355.454C340.541 356.555 341.146 358.036 341.146 359.579C341.146 361.122 340.541 362.604 339.46 363.705C338.379 364.806 336.91 365.439 335.367 365.468Z" fill="url(#paint4_linear_1093_810)"/>
<defs>
<linearGradient id="paint0_linear_1093_810" x1="108.64" y1="97.6019" x2="315.754" y2="286.5" gradientUnits="userSpaceOnUse">
<stop stop-color="#1BA2D7"/>
<stop offset="1" stop-color="#8D3DFA"/>
</linearGradient>
<linearGradient id="paint1_linear_1093_810" x1="151.968" y1="179.671" x2="206.648" y2="260.258" gradientUnits="userSpaceOnUse">
<stop stop-color="#1BA2D7"/>
<stop offset="1" stop-color="#8D3DFA"/>
</linearGradient>
<linearGradient id="paint2_linear_1093_810" x1="7.65766" y1="12.0853" x2="181.448" y2="240.382" gradientUnits="userSpaceOnUse">
<stop stop-color="#1BA2D7"/>
<stop offset="1" stop-color="#8D3DFA"/>
</linearGradient>
<linearGradient id="paint3_linear_1093_810" x1="47.9387" y1="41.7138" x2="398.527" y2="417.294" gradientUnits="userSpaceOnUse">
<stop stop-color="#1BA2D7"/>
<stop offset="1" stop-color="#8D3DFA"/>
</linearGradient>
<linearGradient id="paint4_linear_1093_810" x1="29.3641" y1="197.496" x2="164.742" y2="477.277" gradientUnits="userSpaceOnUse">
<stop stop-color="#1BA2D7"/>
<stop offset="1" stop-color="#8D3DFA"/>
</linearGradient>
</defs>
</svg>
