<svg width="512" height="512" viewBox="0 0 512 512" fill="none" xmlns="http://www.w3.org/2000/svg">
<path d="M496.532 299.633C496.352 299.319 496.261 298.96 496.27 298.598C496.279 298.235 496.387 297.882 496.583 297.577L509.213 276.508C510.963 273.598 511.909 270.275 511.954 266.879C511.998 263.484 511.141 260.138 509.468 257.182C507.796 254.227 505.368 251.769 502.434 250.059C499.5 248.349 496.165 247.45 492.769 247.452H460.769V221.852C460.747 216.576 459.096 211.436 456.041 207.134C452.986 202.833 448.677 199.58 443.702 197.822V64.736C443.822 58.6725 441.76 52.7676 437.891 48.0971C434.022 43.4265 428.605 40.3009 422.625 39.2896C396.914 35.936 309.61 23.3408 265.561 2.13546C262.544 0.721882 259.253 -0.00732079 255.922 5.54062e-05C252.591 0.00743161 249.302 0.751204 246.292 2.17812C202.329 23.3408 115.024 35.936 89.2277 39.3067C83.2642 40.3309 77.866 43.4605 74.0139 48.1268C70.1619 52.7931 68.1116 58.6864 68.2357 64.736V197.856C63.267 199.613 58.9616 202.86 55.9071 207.154C52.8526 211.449 51.1979 216.582 51.1691 221.852V247.452H19.1691C15.7789 247.453 12.4497 248.352 9.52059 250.059C6.5915 251.766 4.1673 254.219 2.49505 257.168C0.82281 260.117 -0.0376858 263.457 0.00126604 266.846C0.0402179 270.236 0.977224 273.555 2.71679 276.465L15.4059 297.645C15.5866 297.959 15.6774 298.318 15.6683 298.68C15.6593 299.043 15.5508 299.396 15.3547 299.701L2.72532 320.838C0.986128 323.748 0.0491426 327.066 0.00982148 330.455C-0.0294997 333.844 0.830249 337.183 2.50148 340.132C4.17271 343.081 6.5957 345.534 9.52359 347.241C12.4515 348.948 15.7797 349.849 19.1691 349.852H73.552C100.125 454.906 219.882 501.344 246.275 510.372C252.557 512.534 259.381 512.534 265.663 510.372C292.057 501.344 411.813 454.906 438.386 349.852H492.769C496.159 349.851 499.488 348.951 502.418 347.244C505.347 345.537 507.771 343.084 509.443 340.135C511.115 337.187 511.976 333.847 511.937 330.457C511.898 327.067 510.961 323.748 509.221 320.838L496.532 299.633ZM85.3024 64.736C85.1645 62.808 85.7136 60.8935 86.8522 59.3316C87.9908 57.7698 89.6455 56.6613 91.5232 56.2027C125.298 51.7909 208.703 39.1957 253.657 17.5723C254.381 17.2291 255.172 17.0511 255.973 17.0511C256.775 17.0511 257.566 17.2291 258.29 17.5723C303.235 39.2384 386.64 51.808 420.33 56.2027C422.221 56.6472 423.894 57.7491 425.049 59.312C426.204 60.8748 426.766 62.7971 426.636 64.736V196.252H409.569V86.7605C409.588 82.672 408.131 78.7139 405.466 75.6132C402.801 72.5125 399.107 70.4774 395.062 69.8816C355.749 63.9083 300.812 53.5232 262.318 37.9925C258.27 36.3411 253.736 36.3411 249.689 37.9925C211.451 53.4805 156.368 63.8827 116.876 69.8816C112.832 70.4791 109.138 72.5147 106.474 75.615C103.809 78.7154 102.352 82.6725 102.369 86.7605V196.252H85.3024V64.736ZM392.502 86.7605V196.252H119.436V86.752C159.815 80.6165 216.306 69.9243 255.884 53.8133C295.948 69.9584 352.268 80.6507 392.502 86.7605ZM19.1691 332.785C18.7938 332.786 18.425 332.687 18.1006 332.498C17.7761 332.31 17.5077 332.038 17.3227 331.712C17.1378 331.385 17.0429 331.016 17.048 330.64C17.053 330.265 17.1578 329.898 17.3515 329.577L29.9381 308.585C31.7545 305.609 32.7198 302.192 32.7288 298.706C32.7378 295.22 31.7903 291.798 29.9893 288.813L17.3429 267.71C17.1532 267.388 17.0519 267.022 17.0495 266.649C17.047 266.275 17.1434 265.908 17.3289 265.584C17.5143 265.26 17.7823 264.99 18.1055 264.803C18.4287 264.616 18.7956 264.518 19.1691 264.518H51.1691V290.118C51.1866 295.437 52.8634 300.617 55.9656 304.937C59.0678 309.257 63.4407 312.501 68.4747 314.217C68.6886 320.431 69.2326 326.629 70.1045 332.785H19.1691ZM260.142 494.219C257.438 495.151 254.5 495.151 251.796 494.219C224.643 484.934 91.8048 433.478 85.6011 315.718H102.668C108.598 414.526 216.349 462.773 250.038 475.445C251.949 476.161 253.972 476.528 256.012 476.529C258.035 476.528 260.041 476.161 261.934 475.445C295.598 462.782 403.348 414.56 409.279 315.718H426.346C420.133 433.478 287.295 484.934 260.142 494.219ZM119.734 315.718H392.204C386.119 403.68 286.971 447.789 256.037 459.471C224.976 447.78 125.827 403.612 119.734 315.718ZM435.169 298.652H76.7691C74.5059 298.652 72.3354 297.753 70.7351 296.152C69.1348 294.552 68.2357 292.382 68.2357 290.118V221.852C68.2357 219.589 69.1348 217.418 70.7351 215.818C72.3354 214.217 74.5059 213.318 76.7691 213.318H435.169C437.432 213.318 439.603 214.217 441.203 215.818C442.803 217.418 443.702 219.589 443.702 221.852V290.118C443.702 292.382 442.803 294.552 441.203 296.152C439.603 297.753 437.432 298.652 435.169 298.652ZM494.621 331.701C494.444 332.037 494.177 332.316 493.85 332.508C493.522 332.699 493.148 332.795 492.769 332.785H441.834C442.705 326.629 443.25 320.431 443.463 314.217C448.497 312.501 452.87 309.257 455.973 304.937C459.075 300.617 460.752 295.437 460.769 290.118V264.518H492.769C493.144 264.518 493.513 264.616 493.838 264.805C494.162 264.994 494.43 265.265 494.615 265.592C494.8 265.918 494.895 266.288 494.89 266.663C494.885 267.038 494.78 267.406 494.587 267.727L482 288.719C480.184 291.695 479.218 295.111 479.209 298.598C479.2 302.084 480.148 305.506 481.949 308.491L494.595 329.594C494.794 329.908 494.901 330.272 494.906 330.644C494.91 331.016 494.812 331.382 494.621 331.701Z" fill="url(#paint0_linear_1093_866)"/>
<path d="M219.335 147.552C217.726 145.998 215.57 145.138 213.333 145.157C211.096 145.177 208.955 146.074 207.373 147.656C205.791 149.239 204.894 151.379 204.874 153.616C204.855 155.854 205.715 158.009 207.269 159.619L224.336 176.685C225.936 178.285 228.106 179.184 230.369 179.184C232.632 179.184 234.802 178.285 236.402 176.685L304.669 108.419C306.223 106.809 307.083 104.654 307.064 102.416C307.044 100.179 306.147 98.0385 304.565 96.4564C302.983 94.8742 300.842 93.9768 298.605 93.9574C296.368 93.9379 294.212 94.798 292.603 96.3524L230.369 158.586L219.335 147.552ZM324.236 230.386H187.702C185.439 230.386 183.269 231.285 181.668 232.885C180.068 234.485 179.169 236.656 179.169 238.919C179.169 241.182 180.068 243.353 181.668 244.953C183.269 246.553 185.439 247.452 187.702 247.452H324.236C326.499 247.452 328.669 246.553 330.27 244.953C331.87 243.353 332.769 241.182 332.769 238.919C332.769 236.656 331.87 234.485 330.27 232.885C328.669 231.285 326.499 230.386 324.236 230.386ZM298.636 264.519H213.302C211.039 264.519 208.869 265.418 207.268 267.018C205.668 268.618 204.769 270.789 204.769 273.052C204.769 275.315 205.668 277.486 207.268 279.086C208.869 280.686 211.039 281.586 213.302 281.586H298.636C300.899 281.586 303.069 280.686 304.67 279.086C306.27 277.486 307.169 275.315 307.169 273.052C307.169 270.789 306.27 268.618 304.67 267.018C303.069 265.418 300.899 264.519 298.636 264.519Z" fill="url(#paint1_linear_1093_866)"/>
<defs>
<linearGradient id="paint0_linear_1093_866" x1="18.2665" y1="32.9997" x2="505.952" y2="592.654" gradientUnits="userSpaceOnUse">
<stop stop-color="#1BA2D7"/>
<stop offset="1" stop-color="#8D3DFA"/>
</linearGradient>
<linearGradient id="paint1_linear_1093_866" x1="184.649" y1="106.05" x2="364.715" y2="275.225" gradientUnits="userSpaceOnUse">
<stop stop-color="#1BA2D7"/>
<stop offset="1" stop-color="#8D3DFA"/>
</linearGradient>
</defs>
</svg>
