<svg width="427" height="491" viewBox="0 0 427 491" fill="none" xmlns="http://www.w3.org/2000/svg">
<path d="M213.333 490.667C212.249 490.669 211.17 490.508 210.133 490.187C70.6987 446.603 1.21592e-07 313.984 1.21592e-07 96C-0.000376898 93.5019 0.876023 91.083 2.4764 89.1648C4.07678 87.2467 6.29961 85.9512 8.75733 85.504C9.90933 85.3333 124.693 63.808 206.933 2.13333C208.78 0.748564 211.025 0 213.333 0C215.641 0 217.887 0.748564 219.733 2.13333C301.973 63.808 416.757 85.3333 417.909 85.504C420.367 85.9512 422.59 87.2467 424.19 89.1648C425.791 91.083 426.667 93.5019 426.667 96C426.667 313.984 355.968 446.603 216.533 490.187C215.497 490.508 214.418 490.669 213.333 490.667ZM21.3333 104.704C23.1467 305.419 87.7013 427.904 213.333 468.8C338.933 427.861 403.488 305.419 405.333 104.704C376.875 98.5493 286.133 75.904 213.333 23.8827C140.565 75.8613 49.824 98.5493 21.3333 104.704Z" fill="#13C4A1"/>
<path d="M213.334 434.133C211.982 434.131 210.643 433.874 209.387 433.376C112.438 394.805 61.707 298.251 54.283 138.219C54.1712 135.811 54.8779 133.437 56.288 131.483C57.6981 129.528 59.7285 128.109 62.0483 127.456C113.145 113.486 162.152 92.7707 207.776 65.856C209.45 64.8344 211.373 64.2939 213.334 64.2939C215.294 64.2939 217.217 64.8344 218.891 65.856C264.515 92.7707 313.523 113.486 364.619 127.456C366.939 128.109 368.969 129.528 370.379 131.483C371.789 133.437 372.496 135.811 372.384 138.219C364.918 298.219 314.23 394.805 217.28 433.376C216.024 433.874 214.685 434.131 213.334 434.133ZM76.0216 145.632C84.267 289.141 129.184 376.373 213.334 411.936C297.483 376.373 342.4 289.141 350.646 145.632C302.69 131.843 256.583 112.291 213.334 87.4027C170.085 112.291 123.977 131.843 76.0216 145.632Z" fill="#13C4A1"/>
</svg>
