<svg width="512" height="512" viewBox="0 0 512 512" fill="none" xmlns="http://www.w3.org/2000/svg">
<g clip-path="url(#clip0_753_103)">
<path d="M512 170.4C512.082 169.87 512.082 169.33 512 168.8C511.912 168.299 511.751 167.813 511.52 167.36L510.72 166.16L509.6 164.96C509.461 164.781 509.299 164.619 509.12 164.48L372 65.92V8C372 5.87827 371.157 3.84344 369.657 2.34315C368.156 0.842855 366.122 0 364 0L148 0C145.878 0 143.843 0.842855 142.343 2.34315C140.843 3.84344 140 5.87827 140 8V65.92L3.35988 164.48C3.18046 164.619 3.0192 164.781 2.87988 164.96L1.75988 166.16C1.46576 166.541 1.19845 166.942 0.959876 167.36C0.729218 167.813 0.567441 168.299 0.479876 168.8C0.397333 169.33 0.397333 169.87 0.479876 170.4C0.434454 170.611 0.434454 170.829 0.479876 171.04V504C0.479876 506.122 1.32273 508.157 2.82302 509.657C4.32331 511.157 6.35814 512 8.47988 512H504C506.122 512 508.156 511.157 509.657 509.657C511.157 508.157 512 506.122 512 504V171.04C512.045 170.829 512.045 170.611 512 170.4ZM479.44 163.04H409.04C407.754 163.06 406.492 163.389 405.36 164H372V85.6L479.44 163.04ZM372 180H401.04V496H372V180ZM140 164H106.64C105.532 163.401 104.299 163.072 103.04 163.04H32.7999L140 85.6V164ZM15.9999 179.04H95.0399V496H15.9999V179.04ZM111.04 180H140V496H111.04V180ZM248 405.36L248.64 496H198.64V405.36H248ZM264.64 496L264 405.36H313.28V496H264.64ZM329.36 496V397.36C329.36 395.238 328.517 393.203 327.017 391.703C325.516 390.203 323.482 389.36 321.36 389.36H190.64C188.518 389.36 186.483 390.203 184.983 391.703C183.483 393.203 182.64 395.238 182.64 397.36V496H156V16H356V496H329.36ZM496 496H417.04V179.04H496V496Z" fill="#13C4A1"/>
<path d="M336 89.3596H292V45.5996C292 43.4779 291.157 41.443 289.657 39.9428C288.157 38.4425 286.122 37.5996 284 37.5996H228C225.878 37.5996 223.843 38.4425 222.343 39.9428C220.843 41.443 220 43.4779 220 45.5996V89.3596H176C173.878 89.3596 171.843 90.2025 170.343 91.7028C168.843 93.203 168 95.2379 168 97.3596V153.36C168 155.481 168.843 157.516 170.343 159.016C171.843 160.517 173.878 161.36 176 161.36H220V205.04C220 207.161 220.843 209.196 222.343 210.696C223.843 212.197 225.878 213.04 228 213.04H284C286.122 213.04 288.157 212.197 289.657 210.696C291.157 209.196 292 207.161 292 205.04V161.36H336C338.122 161.36 340.157 160.517 341.657 159.016C343.157 157.516 344 155.481 344 153.36V97.3596C344 95.2379 343.157 93.203 341.657 91.7028C340.157 90.2025 338.122 89.3596 336 89.3596ZM328 145.36H284C281.878 145.36 279.843 146.202 278.343 147.703C276.843 149.203 276 151.238 276 153.36V197.04H236V153.36C236 151.238 235.157 149.203 233.657 147.703C232.157 146.202 230.122 145.36 228 145.36H184V105.36H228C230.122 105.36 232.157 104.517 233.657 103.016C235.157 101.516 236 99.4813 236 97.3596V53.5996H276V97.3596C276 99.4813 276.843 101.516 278.343 103.016C279.843 104.517 281.878 105.36 284 105.36H328V145.36ZM329.36 248H182.64C180.518 248 178.483 248.842 176.983 250.343C175.483 251.843 174.64 253.878 174.64 256C174.64 258.121 175.483 260.156 176.983 261.656C178.483 263.157 180.518 264 182.64 264H329.36C331.482 264 333.517 263.157 335.017 261.656C336.517 260.156 337.36 258.121 337.36 256C337.36 253.878 336.517 251.843 335.017 250.343C333.517 248.842 331.482 248 329.36 248ZM329.36 280H182.64C180.518 280 178.483 280.842 176.983 282.343C175.483 283.843 174.64 285.878 174.64 288C174.64 290.121 175.483 292.156 176.983 293.656C178.483 295.157 180.518 296 182.64 296H329.36C331.482 296 333.517 295.157 335.017 293.656C336.517 292.156 337.36 290.121 337.36 288C337.36 285.878 336.517 283.843 335.017 282.343C333.517 280.842 331.482 280 329.36 280ZM329.36 312H182.64C180.518 312 178.483 312.842 176.983 314.343C175.483 315.843 174.64 317.878 174.64 320C174.64 322.121 175.483 324.156 176.983 325.656C178.483 327.157 180.518 328 182.64 328H329.36C331.482 328 333.517 327.157 335.017 325.656C336.517 324.156 337.36 322.121 337.36 320C337.36 317.878 336.517 315.843 335.017 314.343C333.517 312.842 331.482 312 329.36 312ZM329.36 344H182.64C180.518 344 178.483 344.842 176.983 346.343C175.483 347.843 174.64 349.878 174.64 352C174.64 354.121 175.483 356.156 176.983 357.656C178.483 359.157 180.518 360 182.64 360H329.36C331.482 360 333.517 359.157 335.017 357.656C336.517 356.156 337.36 354.121 337.36 352C337.36 349.878 336.517 347.843 335.017 346.343C333.517 344.842 331.482 344 329.36 344ZM78.72 248H32C29.8783 248 27.8434 248.842 26.3431 250.343C24.8429 251.843 24 253.878 24 256C24 258.121 24.8429 260.156 26.3431 261.656C27.8434 263.157 29.8783 264 32 264H78.4C80.5217 264 82.5566 263.157 84.0569 261.656C85.5571 260.156 86.4 258.121 86.4 256C86.4 253.878 85.5571 251.843 84.0569 250.343C82.5566 248.842 80.5217 248 78.4 248H78.72ZM78.72 280H32C29.8783 280 27.8434 280.842 26.3431 282.343C24.8429 283.843 24 285.878 24 288C24 290.121 24.8429 292.156 26.3431 293.656C27.8434 295.157 29.8783 296 32 296H78.4C80.5217 296 82.5566 295.157 84.0569 293.656C85.5571 292.156 86.4 290.121 86.4 288C86.4 285.878 85.5571 283.843 84.0569 282.343C82.5566 280.842 80.5217 280 78.4 280H78.72ZM78.72 312H32C29.8783 312 27.8434 312.842 26.3431 314.343C24.8429 315.843 24 317.878 24 320C24 322.121 24.8429 324.156 26.3431 325.656C27.8434 327.157 29.8783 328 32 328H78.4C80.5217 328 82.5566 327.157 84.0569 325.656C85.5571 324.156 86.4 322.121 86.4 320C86.4 317.878 85.5571 315.843 84.0569 314.343C82.5566 312.842 80.5217 312 78.4 312H78.72ZM78.72 344H32C29.8783 344 27.8434 344.842 26.3431 346.343C24.8429 347.843 24 349.878 24 352C24 354.121 24.8429 356.156 26.3431 357.656C27.8434 359.157 29.8783 360 32 360H78.4C80.5217 360 82.5566 359.157 84.0569 357.656C85.5571 356.156 86.4 354.121 86.4 352C86.4 349.878 85.5571 347.843 84.0569 346.343C82.5566 344.842 80.5217 344 78.4 344H78.72ZM78.72 376H32C29.8783 376 27.8434 376.842 26.3431 378.343C24.8429 379.843 24 381.878 24 384C24 386.121 24.8429 388.156 26.3431 389.656C27.8434 391.157 29.8783 392 32 392H78.4C80.5217 392 82.5566 391.157 84.0569 389.656C85.5571 388.156 86.4 386.121 86.4 384C86.4 381.878 85.5571 379.843 84.0569 378.343C82.5566 376.842 80.5217 376 78.4 376H78.72ZM78.72 408H32C29.8783 408 27.8434 408.842 26.3431 410.343C24.8429 411.843 24 413.878 24 416C24 418.121 24.8429 420.156 26.3431 421.656C27.8434 423.157 29.8783 424 32 424H78.4C80.5217 424 82.5566 423.157 84.0569 421.656C85.5571 420.156 86.4 418.121 86.4 416C86.4 413.878 85.5571 411.843 84.0569 410.343C82.5566 408.842 80.5217 408 78.4 408H78.72ZM78.72 440H32C29.8783 440 27.8434 440.842 26.3431 442.343C24.8429 443.843 24 445.878 24 448C24 450.121 24.8429 452.156 26.3431 453.656C27.8434 455.157 29.8783 456 32 456H78.4C80.5217 456 82.5566 455.157 84.0569 453.656C85.5571 452.156 86.4 450.121 86.4 448C86.4 445.878 85.5571 443.843 84.0569 442.343C82.5566 440.842 80.5217 440 78.4 440H78.72ZM433.28 264H480C482.122 264 484.157 263.157 485.657 261.656C487.157 260.156 488 258.121 488 256C488 253.878 487.157 251.843 485.657 250.343C484.157 248.842 482.122 248 480 248H433.6C431.478 248 429.443 248.842 427.943 250.343C426.443 251.843 425.6 253.878 425.6 256C425.6 258.121 426.443 260.156 427.943 261.656C429.443 263.157 431.478 264 433.6 264H433.28ZM433.28 296H480C482.122 296 484.157 295.157 485.657 293.656C487.157 292.156 488 290.121 488 288C488 285.878 487.157 283.843 485.657 282.343C484.157 280.842 482.122 280 480 280H433.6C431.478 280 429.443 280.842 427.943 282.343C426.443 283.843 425.6 285.878 425.6 288C425.6 290.121 426.443 292.156 427.943 293.656C429.443 295.157 431.478 296 433.6 296H433.28ZM433.28 328H480C482.122 328 484.157 327.157 485.657 325.656C487.157 324.156 488 322.121 488 320C488 317.878 487.157 315.843 485.657 314.343C484.157 312.842 482.122 312 480 312H433.6C431.478 312 429.443 312.842 427.943 314.343C426.443 315.843 425.6 317.878 425.6 320C425.6 322.121 426.443 324.156 427.943 325.656C429.443 327.157 431.478 328 433.6 328H433.28ZM433.28 360H480C482.122 360 484.157 359.157 485.657 357.656C487.157 356.156 488 354.121 488 352C488 349.878 487.157 347.843 485.657 346.343C484.157 344.842 482.122 344 480 344H433.6C431.478 344 429.443 344.842 427.943 346.343C426.443 347.843 425.6 349.878 425.6 352C425.6 354.121 426.443 356.156 427.943 357.656C429.443 359.157 431.478 360 433.6 360H433.28ZM433.28 392H480C482.122 392 484.157 391.157 485.657 389.656C487.157 388.156 488 386.121 488 384C488 381.878 487.157 379.843 485.657 378.343C484.157 376.842 482.122 376 480 376H433.6C431.478 376 429.443 376.842 427.943 378.343C426.443 379.843 425.6 381.878 425.6 384C425.6 386.121 426.443 388.156 427.943 389.656C429.443 391.157 431.478 392 433.6 392H433.28ZM433.28 424H480C482.122 424 484.157 423.157 485.657 421.656C487.157 420.156 488 418.121 488 416C488 413.878 487.157 411.843 485.657 410.343C484.157 408.842 482.122 408 480 408H433.6C431.478 408 429.443 408.842 427.943 410.343C426.443 411.843 425.6 413.878 425.6 416C425.6 418.121 426.443 420.156 427.943 421.656C429.443 423.157 431.478 424 433.6 424H433.28ZM433.28 456H480C482.122 456 484.157 455.157 485.657 453.656C487.157 452.156 488 450.121 488 448C488 445.878 487.157 443.843 485.657 442.343C484.157 440.842 482.122 440 480 440H433.6C431.478 440 429.443 440.842 427.943 442.343C426.443 443.843 425.6 445.878 425.6 448C425.6 450.121 426.443 452.156 427.943 453.656C429.443 455.157 431.478 456 433.6 456H433.28Z" fill="#13C4A1"/>
</g>
<defs>
<clipPath id="clip0_753_103">
<rect width="512" height="512" fill="white"/>
</clipPath>
</defs>
</svg>
