<svg width="512" height="512" viewBox="0 0 512 512" fill="none" xmlns="http://www.w3.org/2000/svg">
<g clip-path="url(#clip0_300_401)">
<path d="M115.73 343.62C199.23 373.47 244.24 426.42 244.24 426.42M101.46 338.87C71.89 329.75 37.98 323.74 0 323.74" stroke="#25E9EA" stroke-width="15" stroke-miterlimit="10"/>
<path d="M0 274.865C18.613 274.865 33.702 289.954 33.702 308.567V328.734M67.702 274.865C49.089 274.865 34 289.954 34 308.567V328.734" stroke="#25E9EA" stroke-width="15" stroke-miterlimit="10"/>
<path d="M0 243.865C18.613 243.865 33.702 258.954 33.702 277.567V302.734M67.702 243.865C49.089 243.865 34 258.954 34 277.567V302.734M30.851 406.556C49.464 406.556 64.553 421.645 64.553 440.258V463.332M98.553 406.556C79.94 406.556 64.851 421.645 64.851 440.258V463.332" stroke="#25E9EA" stroke-width="15" stroke-miterlimit="10"/>
<path d="M30.8516 375.558C49.4646 375.558 64.5536 390.647 64.5536 409.26V434.427M98.5536 375.558C79.9406 375.558 64.8516 390.647 64.8516 409.26V434.427M169.336 250.848C187.949 250.848 203.187 265.937 203.187 284.55M203.187 284.55V309.717M203.187 284.55C203.187 265.937 218.425 250.848 237.038 250.848" stroke="#25E9EA" stroke-width="15" stroke-miterlimit="10"/>
<path d="M169.335 219.847C187.948 219.847 203.186 234.936 203.186 253.549M203.186 253.549V278.716M203.186 253.549C203.186 234.936 218.424 219.847 237.037 219.847M512 504.27H215.38M200.38 504.27H0M308.032 48.7309L268.775 9.16992L231.344 25.6389L233.988 81.3099L181.971 104.197C164.88 111.717 157.121 131.668 164.641 148.758L404.611 43.1739C397.091 26.0829 377.14 18.3239 360.05 25.8439L308.032 48.7309Z" stroke="#25E9EA" stroke-width="15" stroke-miterlimit="10"/>
<path d="M248.011 112.069L261.292 142.239C272.412 167.519 301.911 178.989 327.191 167.869L329.392 166.899M348.741 142.359L321.241 79.8592M233.99 81.3082L307.624 48.9102M233.343 287.233L246.365 328.285M479.572 413.259V469.079M198.864 340.681L352.141 300.681L394.223 208.539C398.771 198.58 394.731 186.804 385.025 181.737C374.738 176.366 362.047 180.555 356.978 190.994L323.14 260.68L227.645 288.917C205.553 295.451 192.754 318.467 198.864 340.681Z" stroke="#25E9EA" stroke-width="15" stroke-miterlimit="10"/>
<path d="M335.889 234.429C332.659 223.589 330.089 214.029 328.659 206.989C322.529 176.869 329.679 152.869 348.739 142.359C375.339 127.689 407.459 141.839 420.629 169.209C435.199 199.479 465.659 268.649 465.659 268.649C465.659 268.649 500.229 317.719 479.569 361.109V398.259M355.199 293.979C365.429 323.849 374.569 348.849 374.569 348.849V464.269" stroke="#25E9EA" stroke-width="15" stroke-miterlimit="10"/>
<path d="M512 469.079H435C349.979 469.079 321.169 414.003 279.894 414.003C216.28 414.003 218.99 463.334 131.77 463.334H0M421.548 340.682V469.079M362.892 319.633L465.663 268.652M253.69 462.27H268.69M283.69 462.27H298.69" stroke="#25E9EA" stroke-width="15" stroke-miterlimit="10"/>
</g>
<defs>
<clipPath id="clip0_300_401">
<rect width="512" height="512" fill="white"/>
</clipPath>
</defs>
</svg>
