<svg width="512" height="497" viewBox="0 0 512 497" fill="none" xmlns="http://www.w3.org/2000/svg">
<path d="M167.127 125.451L196.801 177.806V190.661C192.8 193.427 190.17 198.04 190.17 203.26V218.533C190.17 226.976 197.04 233.845 205.482 233.845H207.039C208.085 251.807 223.024 266.101 241.244 266.101C259.464 266.101 274.403 251.807 275.449 233.845H277.005C285.448 233.845 292.317 226.975 292.317 218.533V203.26C292.317 198.039 289.687 193.426 285.686 190.661V177.808L315.361 125.451C315.416 125.356 315.467 125.26 315.517 125.162C321.517 114.195 324.942 102.29 325.697 89.7736C325.767 88.7854 325.64 87.7932 325.324 86.8543C325.008 85.9155 324.509 85.0486 323.855 84.3038C323.202 83.559 322.408 82.9512 321.518 82.5154C320.628 82.0796 319.661 81.8245 318.672 81.7648C317.683 81.7052 316.693 81.8422 315.757 82.1679C314.821 82.4936 313.96 83.0016 313.222 83.6625C312.484 84.3233 311.884 85.1239 311.457 86.018C311.031 86.9121 310.786 87.8819 310.736 88.8713C310.111 99.2314 307.263 109.08 302.273 118.141L302.209 118.26L272.513 170.652C271.325 172.752 270.699 175.124 270.698 177.537V187.949H248.737V129.045L286.838 91.4423C289.042 89.268 290.261 86.3642 290.271 83.2686C290.281 80.1729 289.081 77.2631 286.891 75.0758L273.241 61.4252C272.172 60.3504 270.901 59.4983 269.501 58.9182C268.101 58.3381 266.599 58.0416 265.084 58.0458C263.568 58.0419 262.067 58.3385 260.667 58.9183C259.267 59.4982 257.995 60.3499 256.926 61.4242L254.361 63.9893L247.924 59.4177C245.972 58.0331 243.638 57.2893 241.244 57.2893C238.851 57.2893 236.516 58.0331 234.564 59.4177L228.126 63.9903L225.561 61.4262C224.492 60.3515 223.221 59.4994 221.821 58.9193C220.42 58.3393 218.919 58.0427 217.403 58.0468C215.888 58.0428 214.387 58.3393 212.987 58.9192C211.586 59.4991 210.315 60.3509 209.246 61.4252L195.596 75.0758C193.407 77.2641 192.206 80.1749 192.216 83.2706C192.226 86.3662 193.446 89.269 195.65 91.4433L233.75 129.045V187.95H211.79V177.538C211.79 175.13 211.163 172.749 209.975 170.654L180.271 118.246L180.215 118.141C174.593 107.933 171.621 96.3386 171.621 84.6125C171.621 65.9278 178.923 48.3851 192.178 35.2162C205.321 22.1601 222.727 14.9886 241.242 14.9886C241.4 14.9886 241.562 14.9886 241.721 14.9906C270.196 15.1804 296.168 33.2886 306.35 60.0493C307.056 61.907 308.472 63.4079 310.286 64.2218C312.099 65.0356 314.161 65.0958 316.019 64.389C317.877 63.6822 319.378 62.2663 320.192 60.4529C321.005 58.6395 321.066 56.5771 320.359 54.7193C307.994 22.2221 276.432 0.232823 241.821 0.00199881L241.24 0C218.742 0 197.587 8.71736 181.617 24.5823C165.506 40.5861 156.634 61.9048 156.634 84.6125C156.634 98.7858 160.21 112.806 166.979 125.175C167.025 125.268 167.075 125.361 167.127 125.451ZM208.653 83.2156L217.404 74.4633L219.592 76.6496C221.515 78.5824 224.063 79.7689 226.781 79.9975C229.498 80.2261 232.209 79.4819 234.428 77.8977L241.245 73.0564L248.062 77.8977C250.282 79.4824 252.992 80.2268 255.71 79.9982C258.428 79.7696 260.976 78.5828 262.9 76.6496L265.086 74.4633L273.838 83.2156L241.246 115.381L208.653 83.2156ZM241.244 251.113C231.293 251.113 223.078 243.534 222.069 233.845H260.421C259.411 243.534 251.197 251.113 241.244 251.113ZM277.33 218.533C277.329 218.618 277.295 218.701 277.235 218.761C277.174 218.822 277.092 218.856 277.006 218.856H205.483C205.398 218.856 205.315 218.822 205.255 218.761C205.194 218.701 205.16 218.618 205.16 218.533V203.26C205.16 203.081 205.305 202.936 205.483 202.936H277.006C277.185 202.936 277.33 203.082 277.33 203.26V218.533ZM338.738 35.6908C340.044 35.6905 341.327 35.3476 342.459 34.6966L351.272 29.6434C352.136 29.1592 352.895 28.5086 353.506 27.7292C354.117 26.9497 354.568 26.057 354.831 25.1024C355.095 24.1479 355.167 23.1506 355.043 22.1681C354.919 21.1855 354.602 20.2373 354.109 19.3782C353.617 18.5191 352.959 17.7662 352.173 17.1629C351.388 16.5596 350.491 16.118 349.534 15.8635C348.577 15.609 347.579 15.5467 346.598 15.6802C345.616 15.8137 344.671 16.1404 343.817 16.6413L335.004 21.6945C333.57 22.5162 332.448 23.7886 331.813 25.3139C331.177 26.8392 331.063 28.5318 331.489 30.1284C331.915 31.725 332.857 33.136 334.168 34.142C335.479 35.148 337.085 35.6925 338.738 35.6908ZM338.687 91.856C337.897 93.6798 337.864 95.7426 338.594 97.5909C339.325 99.4392 340.76 100.922 342.583 101.713L353.064 106.254C354.035 106.675 355.045 106.874 356.041 106.874C357.764 106.874 359.435 106.28 360.772 105.192C362.109 104.104 363.031 102.589 363.381 100.901C363.731 99.2139 363.49 97.457 362.696 95.9269C361.903 94.3967 360.607 93.1867 359.025 92.5005L348.544 87.959C346.72 87.1689 344.657 87.1356 342.809 87.8664C340.96 88.5972 339.478 90.0323 338.687 91.856ZM132.268 29.6444L141.082 34.6976C141.936 35.1872 142.878 35.5039 143.854 35.6295C144.83 35.7551 145.822 35.6872 146.772 35.4296C147.721 35.172 148.611 34.7298 149.39 34.1283C150.169 33.5267 150.822 32.7776 151.312 31.9237C151.801 31.0698 152.118 30.1279 152.243 29.1517C152.369 28.1756 152.3 27.1842 152.043 26.2344C151.785 25.2845 151.343 24.3947 150.741 23.6157C150.14 22.8367 149.391 22.1839 148.537 21.6945L139.722 16.6413C138.868 16.144 137.924 15.8205 136.944 15.6895C135.965 15.5586 134.969 15.6227 134.014 15.8782C133.059 16.1337 132.164 16.5756 131.381 17.1784C130.598 17.7812 129.941 18.533 129.45 19.3905C128.958 20.248 128.641 21.1943 128.517 22.1748C128.392 23.1554 128.463 24.1509 128.725 25.1039C128.987 26.057 129.435 26.9489 130.043 27.7281C130.651 28.5074 131.407 29.1586 132.268 29.6444ZM127.5 106.874C128.494 106.874 129.505 106.675 130.475 106.254L140.956 101.713C141.86 101.321 142.677 100.756 143.361 100.049C144.046 99.3417 144.584 98.5066 144.946 97.5914C145.308 96.6761 145.486 95.6985 145.47 94.7145C145.454 93.7304 145.245 92.7591 144.854 91.856C144.462 90.953 143.897 90.1358 143.19 89.4512C142.483 88.7666 141.648 88.228 140.732 87.8662C139.817 87.5043 138.84 87.3262 137.855 87.3422C136.871 87.3581 135.9 87.5677 134.997 87.959L124.516 92.5005C122.933 93.1851 121.634 94.3947 120.84 95.9253C120.045 97.4559 119.802 99.2139 120.153 100.903C120.503 102.591 121.425 104.107 122.764 105.195C124.102 106.283 125.775 106.876 127.5 106.874ZM321.741 146.568C321.741 148.556 322.53 150.462 323.936 151.868C325.341 153.273 327.247 154.063 329.235 154.063H457.807V327.029C457.807 331.168 461.162 334.523 465.301 334.523C469.441 334.523 472.796 331.168 472.796 327.029V153.27C472.796 145.443 466.428 139.074 458.601 139.074H329.235C327.247 139.074 325.341 139.864 323.936 141.269C322.53 142.675 321.741 144.581 321.741 146.568Z" fill="url(#paint0_linear_1161_1219)"/>
<path d="M465.301 442.667C463.313 442.667 461.407 443.457 460.001 444.862C458.596 446.268 457.806 448.174 457.806 450.162V481.297H61.8099C36.9738 481.297 16.4395 461.894 15.0615 437.124C14.3521 424.37 18.8656 412.163 27.7698 402.75C36.8439 393.156 49.6242 387.654 62.8321 387.654H70.5473C77.0363 387.654 82.3163 382.374 82.3163 375.885V223.364C82.3163 221.376 81.5267 219.47 80.1213 218.064C78.7158 216.659 76.8096 215.869 74.822 215.869C72.8344 215.869 70.9282 216.659 69.5227 218.064C68.1173 219.47 67.3277 221.376 67.3277 223.364V372.666H62.8321C45.5223 372.666 28.7741 379.876 16.8801 392.45C16.234 393.137 15.603 393.838 14.9876 394.552V170.72C14.9876 144.819 36.0595 123.747 61.9598 123.747H67.3267V191.426C67.3267 193.413 68.1163 195.32 69.5217 196.725C70.9272 198.131 72.8334 198.92 74.821 198.92C76.8086 198.92 78.7148 198.131 80.1203 196.725C81.5257 195.32 82.3153 193.413 82.3153 191.426V154.064H153.25C155.238 154.064 157.144 153.275 158.55 151.869C159.955 150.464 160.745 148.558 160.745 146.57C160.745 144.582 159.955 142.676 158.55 141.271C157.144 139.865 155.238 139.076 153.25 139.076H82.3163V120.527C82.3163 114.038 77.0363 108.758 70.5473 108.758H61.9608C27.7958 108.759 0 136.555 0 170.72C0 170.72 0.0339741 436.827 0.0969262 437.956C1.91554 470.664 29.0239 496.286 61.8099 496.286H458.6C466.427 496.286 472.795 489.917 472.795 482.089V450.162C472.795 448.174 472.005 446.268 470.6 444.862C469.194 443.457 467.288 442.667 465.301 442.667Z" fill="url(#paint1_linear_1161_1219)"/>
<path d="M484.708 349.513H170.315C169.056 349.513 167.818 349.83 166.714 350.434L114.658 378.947C112.927 379.894 111.483 381.29 110.477 382.988C109.471 384.686 108.941 386.623 108.941 388.596C108.941 392.616 111.132 396.314 114.659 398.246L166.715 426.757C167.819 427.362 169.057 427.679 170.316 427.679H214.47C216.458 427.679 218.364 426.889 219.769 425.484C221.175 424.078 221.964 422.172 221.964 420.184C221.964 418.197 221.175 416.29 219.769 414.885C218.364 413.48 216.458 412.69 214.47 412.69H177.81V364.502H406.441V412.69H246.408C244.42 412.69 242.514 413.48 241.108 414.885C239.703 416.29 238.913 418.197 238.913 420.184C238.913 422.172 239.703 424.078 241.108 425.484C242.514 426.889 244.42 427.679 246.408 427.679H484.708C499.758 427.679 512 415.436 512 400.386V376.804C512 361.756 499.758 349.513 484.708 349.513ZM162.82 369.657V407.534L128.242 388.595L162.82 369.657ZM421.428 364.502H438.62V412.69H421.428V364.502ZM497.012 400.386C497.012 407.17 491.493 412.69 484.708 412.69H453.609V364.502H484.708C491.492 364.502 497.012 370.02 497.012 376.805V400.386ZM383.093 295.027H151.572C128.066 295.027 108.941 314.15 108.941 337.657V345.363C108.941 347.351 109.731 349.257 111.136 350.663C112.542 352.068 114.448 352.858 116.436 352.858C118.423 352.858 120.33 352.068 121.735 350.663C123.14 349.257 123.93 347.351 123.93 345.363V337.657C123.93 322.416 136.33 310.015 151.572 310.015H383.093C405.345 310.015 423.448 291.912 423.448 269.66C423.448 247.408 405.345 229.305 383.093 229.305H310.471C306.331 229.305 302.977 232.66 302.977 236.799C302.977 240.938 306.331 244.293 310.471 244.293H383.093C397.08 244.293 408.459 255.673 408.459 269.66C408.459 283.647 397.08 295.027 383.093 295.027Z" fill="url(#paint2_linear_1161_1219)"/>
<defs>
<linearGradient id="paint0_linear_1161_1219" x1="119.261" y1="3.83304" x2="426.694" y2="317.772" gradientUnits="userSpaceOnUse">
<stop stop-color="#8705FF"/>
<stop offset="1" stop-color="#CC00FF"/>
</linearGradient>
<linearGradient id="paint1_linear_1161_1219" x1="-0.984979" y1="113.198" x2="350.35" y2="528.233" gradientUnits="userSpaceOnUse">
<stop stop-color="#8705FF"/>
<stop offset="1" stop-color="#CC00FF"/>
</linearGradient>
<linearGradient id="paint2_linear_1161_1219" x1="108.102" y1="231.578" x2="255.417" y2="521.395" gradientUnits="userSpaceOnUse">
<stop stop-color="#8705FF"/>
<stop offset="1" stop-color="#CC00FF"/>
</linearGradient>
</defs>
</svg>
