<svg width="448" height="406" viewBox="0 0 448 406" fill="none" xmlns="http://www.w3.org/2000/svg">
<path d="M330.894 173.99C326.551 148.73 313.251 125.728 293.444 109.215C291.19 107.336 288.002 107.063 285.461 108.529L269.466 117.766C268.327 117.071 267.171 116.404 266.001 115.764V97.2314C266.001 94.2984 264.174 91.6769 261.423 90.662C237.437 81.821 210.564 81.821 186.579 90.662C183.828 91.677 182.001 94.2984 182.001 97.2314V115.76C180.831 116.402 179.675 117.069 178.536 117.763L162.541 108.526C159.999 107.06 156.811 107.333 154.557 109.212C134.751 125.725 121.45 148.727 117.107 173.987C116.61 176.874 117.965 179.765 120.502 181.232L136.525 190.493C136.508 191.151 136.5 191.819 136.5 192.502C136.5 193.184 136.508 193.853 136.525 194.504L120.502 203.765C117.965 205.231 116.61 208.122 117.107 211.01C121.45 236.269 134.751 259.271 154.557 275.784C156.811 277.664 160 277.937 162.541 276.47L178.539 267.234C179.677 267.928 180.831 268.595 182.001 269.236V287.765C182.001 290.698 183.828 293.319 186.582 294.334C198.573 298.758 211.166 301.002 224.001 301.002C236.835 301.002 249.428 298.758 261.419 294.341C264.17 293.326 266.001 290.705 266.001 287.772V269.243C267.17 268.602 268.324 267.935 269.462 267.241L285.46 276.477C288.001 277.944 291.19 277.671 293.444 275.791C313.25 259.278 326.55 236.276 330.894 211.017C331.391 208.129 330.036 205.238 327.499 203.772L311.476 194.511C311.493 193.853 311.5 193.184 311.5 192.502C311.5 191.819 311.493 191.151 311.476 190.5L327.499 181.238C330.037 179.768 331.391 176.877 330.894 173.99ZM300.752 180.528C299.596 181.195 298.655 182.179 298.041 183.364C297.426 184.548 297.163 185.884 297.284 187.213C297.427 188.847 297.501 190.576 297.501 192.501C297.501 194.426 297.427 196.155 297.284 197.793C297.042 200.506 298.393 203.117 300.752 204.479L316.152 213.379C311.963 231.932 302.17 248.855 288.114 261.844L272.752 252.975C270.418 251.627 267.509 251.739 265.283 253.269C262.43 255.232 259.368 257.007 255.917 258.701C253.519 259.877 251.997 262.316 251.997 264.987V282.76C233.902 288.391 214.092 288.391 195.997 282.76V264.987C195.997 262.316 194.474 259.877 192.077 258.701C188.626 257.01 185.563 255.232 182.711 253.269C180.485 251.735 177.58 251.624 175.242 252.975L159.88 261.844C145.824 248.855 136.035 231.933 131.842 213.379L147.242 204.479C148.398 203.811 149.339 202.828 149.953 201.643C150.568 200.458 150.831 199.123 150.71 197.793C150.574 196.155 150.5 194.426 150.5 192.501C150.5 190.576 150.574 188.847 150.717 187.209C150.959 184.497 149.608 181.886 147.249 180.524L131.849 171.624C136.038 153.07 145.831 136.148 159.887 123.159L175.249 132.028C177.587 133.376 180.495 133.264 182.718 131.734C185.567 129.771 188.629 127.996 192.084 126.302C194.478 125.126 196.001 122.687 196.001 120.016V102.243C214.092 96.6118 233.909 96.6118 252.001 102.243V120.016C252.001 122.687 253.523 125.126 255.921 126.302C259.375 127.996 262.437 129.771 265.287 131.734C267.513 133.267 270.418 133.379 272.756 132.028L288.117 123.159C302.173 136.148 311.963 153.07 316.156 171.624L300.752 180.528ZM54.3977 268.024C50.9327 269.739 49.5151 273.936 51.2302 277.404C58.7798 292.643 68.3067 306.853 79.5487 319.625C80.9346 321.196 82.8632 322.001 84.8056 322.001C86.4507 322.001 88.0991 321.427 89.4291 320.255C92.3306 317.7 92.6141 313.276 90.0591 310.374C79.625 298.516 70.7894 285.342 63.7776 271.188C62.0626 267.723 57.8626 266.306 54.3977 268.024ZM132.644 320.699C133.879 321.578 135.297 322.001 136.704 322.001C138.888 322.001 141.04 320.979 142.409 319.068C144.652 315.922 143.924 311.551 140.774 309.304C117.632 292.791 100.041 270.065 89.9051 243.584C88.5226 239.972 84.4767 238.169 80.8646 239.548C77.2526 240.931 75.4466 244.977 76.8292 248.589C87.9521 277.65 107.255 302.583 132.644 320.699Z" fill="url(#paint0_linear_1162_1228)"/>
<path d="M224 154C202.772 154 185.5 171.272 185.5 192.5C185.5 213.727 202.772 231 224 231C245.227 231 262.5 213.727 262.5 192.5C262.5 171.272 245.227 154 224 154ZM224 217C210.49 217 199.5 206.01 199.5 192.5C199.5 178.99 210.49 168 224 168C237.51 168 248.5 178.99 248.5 192.5C248.5 206.01 237.51 217 224 217ZM445.732 355.337L403.732 316.837C401.684 314.961 398.723 314.475 396.183 315.591C393.641 316.711 392 319.224 392 322V336H374.5C370.636 336 367.5 339.136 367.5 343C367.5 346.864 370.636 350 374.5 350H399C402.864 350 406 346.864 406 343V337.911L430.64 360.5L406 383.089V378C406 374.136 402.864 371 399 371H318.5C314.636 371 311.5 374.136 311.5 378C311.5 381.864 314.636 385 318.5 385H392V399C392 401.776 393.641 404.289 396.183 405.409C397.089 405.804 398.048 406 399 406C400.751 406 402.439 405.345 403.732 404.163L445.732 365.663C446.447 365.006 447.018 364.208 447.408 363.32C447.799 362.431 448 361.471 448 360.5C448 358.537 447.177 356.664 445.732 355.337Z" fill="url(#paint1_linear_1162_1228)"/>
<path d="M50.8375 239.232C51.4939 239.947 52.2918 240.518 53.1805 240.908C54.0692 241.299 55.0293 241.5 56 241.5C56.9707 241.5 57.9308 241.299 58.8195 240.908C59.7082 240.518 60.5061 239.947 61.1625 239.232L99.6625 197.232C101.538 195.185 102.025 192.223 100.908 189.683C99.7884 187.142 97.2754 185.5 94.5 185.5H80.6785C81.004 178.889 81.7741 172.291 83.0061 165.799C95.7915 98.1226 155.089 49.0001 224 49.0001C283.076 49.0001 336.966 86.1386 358.092 141.414C359.471 145.022 363.517 146.832 367.129 145.453C370.741 144.074 372.547 140.028 371.168 136.413C347.984 75.7576 288.841 35.0001 224 35.0001C148.365 35.0001 83.2826 88.9141 69.2475 163.198C67.424 172.834 66.5 182.693 66.5 192.5C66.5 196.364 69.636 199.5 73.5 199.5H78.5891L56 224.14L33.4109 199.5H38.5C42.364 199.5 45.5 196.364 45.5 192.5C45.5 186.792 45.7731 181.094 46.3085 175.553C54.873 84.9626 132.926 14.0001 224 14.0001C292.414 14.0001 353.805 52.2446 384.22 113.806C385.931 117.271 390.128 118.692 393.596 116.981C397.061 115.269 398.482 111.073 396.771 107.604C363.982 41.2301 297.78 0 224 0C175.861 0 129.748 17.941 94.1571 50.519C58.7965 82.8836 36.8516 126.823 32.375 174.22C32.0146 177.923 31.8045 181.703 31.6681 185.5H17.5C14.7245 185.5 12.2116 187.142 11.0916 189.679C9.97504 192.223 10.4616 195.181 12.3375 197.228L50.8375 239.232ZM224 385C272.139 385 318.252 367.059 353.843 334.481C389.207 302.113 411.148 258.178 415.628 210.781C415.989 207.078 416.199 203.298 416.335 199.5H430.5C433.275 199.5 435.788 197.859 436.908 195.321C438.025 192.777 437.538 189.819 435.662 187.772L397.162 145.772C394.509 142.881 389.494 142.881 386.841 145.772L348.341 187.772C346.465 189.819 345.978 192.78 347.095 195.321C348.211 197.859 350.724 199.5 353.5 199.5H367.322C366.996 206.112 366.226 212.709 364.994 219.202C352.209 286.878 292.911 336 224 336H20.9999C9.4185 336 0 345.419 0 357V364C0 375.582 9.4185 385 20.9999 385H224ZM14 364V357C14 353.139 17.1395 350 21.0001 350H224C299.635 350 364.717 296.086 378.753 221.802C380.576 212.166 381.5 202.307 381.5 192.5C381.5 188.636 378.364 185.5 374.5 185.5H369.411L392 160.86L414.589 185.5H409.5C405.636 185.5 402.5 188.636 402.5 192.5C402.5 198.208 402.227 203.906 401.691 209.447C393.127 300.038 315.074 371 224 371H20.9999C17.1395 371 14 367.861 14 364Z" fill="url(#paint2_linear_1162_1228)"/>
<defs>
<linearGradient id="paint0_linear_1162_1228" x1="49.9176" y1="86.758" x2="266.768" y2="334.246" gradientUnits="userSpaceOnUse">
<stop stop-color="#8705FF"/>
<stop offset="1" stop-color="#CC00FF"/>
</linearGradient>
<linearGradient id="paint1_linear_1162_1228" x1="184.953" y1="156.887" x2="416.588" y2="390.516" gradientUnits="userSpaceOnUse">
<stop stop-color="#8705FF"/>
<stop offset="1" stop-color="#CC00FF"/>
</linearGradient>
<linearGradient id="paint2_linear_1162_1228" x1="-0.911451" y1="4.41141" x2="351.378" y2="392.035" gradientUnits="userSpaceOnUse">
<stop stop-color="#8705FF"/>
<stop offset="1" stop-color="#CC00FF"/>
</linearGradient>
</defs>
</svg>
