<svg width="467" height="496" viewBox="0 0 467 496" fill="none" xmlns="http://www.w3.org/2000/svg">
<path d="M438.617 39.847H374.911V33.471C374.911 31.3493 374.068 29.3144 372.568 27.8141C371.067 26.3139 369.033 25.471 366.911 25.471H329.335C323.006 10.203 308.021 0 290.951 0C273.881 0 258.898 10.203 252.568 25.471H214.992C212.87 25.471 210.835 26.3139 209.335 27.8141C207.835 29.3144 206.992 31.3493 206.992 33.471V39.847H129.729C114.258 39.847 101.672 51.992 101.672 66.919V267.392C89.9799 283.643 83.1259 303.303 83.1259 324.464C83.1259 343.526 88.6859 361.37 98.3339 376.602L77.4229 395.896C71.3769 393.344 64.0419 394.351 59.0139 398.99L5.26487 448.584C1.93787 451.654 0.0698652 455.813 0.00186522 460.295C-0.0651348 464.772 1.67487 468.978 4.90087 472.14L24.3059 491.156C27.5769 494.361 31.9349 495.971 36.2959 495.971C40.4839 495.971 44.6769 494.486 47.9119 491.501L101.66 441.909C104.243 439.525 105.934 436.482 106.598 433.145C111.66 440.246 120.137 444.914 129.726 444.914H438.614C454.085 444.914 466.671 432.769 466.671 417.843V66.918C466.674 51.991 454.088 39.847 438.617 39.847ZM222.992 41.471H258.347C260.14 41.471 261.882 40.8684 263.291 39.76C264.701 38.6516 265.698 37.1017 266.121 35.359C268.889 23.961 279.099 16 290.95 16C302.801 16 313.012 23.961 315.78 35.359C316.203 37.1017 317.2 38.6516 318.609 39.76C320.019 40.8684 321.761 41.471 323.554 41.471H358.909V76.414H222.992V41.471ZM366.911 92.413C370.892 92.413 374.185 89.501 374.799 85.693H416.964V351.045L376.048 350.924H376.025C373.903 350.925 371.869 351.768 370.369 353.268C368.868 354.768 368.025 356.802 368.025 358.924V399.069H260.346C281.552 380.575 294.875 353.978 294.875 324.465C294.875 289.617 276.303 258.833 248.11 240.656H283.122C291.59 240.656 298.479 234.089 298.479 226.015V133.046C298.479 130.924 297.636 128.889 296.136 127.389C294.635 125.889 292.601 125.046 290.479 125.046H180.109C177.987 125.046 175.952 125.889 174.452 127.389C172.952 128.889 172.109 130.924 172.109 133.046V224.691C165.043 225.775 158.1 227.553 151.382 229.997V85.693H207.103C207.717 89.501 211.01 92.413 214.991 92.413H366.911ZM411.766 367.029L384.025 392.066V366.947L411.766 367.029ZM224.817 141.046H245.772V165.686H224.817V141.046ZM216.817 181.686H253.772C255.894 181.686 257.928 180.843 259.429 179.343C260.929 177.843 261.772 175.808 261.772 173.686V141.046H282.479V224.655H205.665C200.149 223.819 194.579 223.399 189 223.399C188.702 223.399 188.406 223.407 188.109 223.41V141.046H208.817V173.686C208.817 178.104 212.4 181.686 216.817 181.686ZM129.73 55.847H206.993V69.694H143.384C141.262 69.694 139.227 70.5369 137.727 72.0371C136.227 73.5374 135.384 75.5723 135.384 77.694V237.351C129.071 240.901 123.137 245.087 117.674 249.843V66.918C117.673 60.813 123.081 55.847 129.73 55.847ZM189 239.399C238.558 239.399 278.875 277.559 278.875 324.463C278.875 371.367 238.558 409.526 189 409.526C139.443 409.526 99.1269 371.367 99.1269 324.463C99.1269 277.559 139.443 239.399 189 239.399ZM113.546 395.282L95.4879 411.944L89.7359 406.307L107.995 389.459C109.769 391.471 111.621 393.413 113.546 395.282ZM90.8139 430.149L37.0669 479.741C36.6869 480.092 35.8709 480.084 35.5079 479.727L16.1029 460.711C16.0009 460.611 16.0019 460.559 16.0019 460.533C16.0019 460.51 16.0029 460.446 16.1169 460.342L69.8649 410.749C70.0519 410.576 70.3439 410.491 70.6359 410.491C70.9369 410.491 71.2379 410.582 71.4219 410.762L90.8269 429.778C90.9289 429.878 90.9279 429.93 90.9279 429.957C90.9289 429.983 90.9279 430.045 90.8139 430.149ZM450.674 417.843C450.674 423.947 445.266 428.914 438.617 428.914H129.73C123.082 428.914 117.673 423.947 117.673 417.843V413.245L125.954 405.604C143.578 418.115 165.398 425.527 189 425.527C205.818 425.527 221.73 421.758 235.866 415.068H379.343C381.323 415.068 383.233 414.334 384.703 413.006L430.324 371.832C431.155 371.082 431.819 370.166 432.274 369.143C432.729 368.12 432.964 367.013 432.964 365.894V77.693C432.964 75.5713 432.121 73.5364 430.621 72.0361C429.12 70.5359 427.086 69.693 424.964 69.693H374.911V55.847H438.617C445.265 55.847 450.674 60.814 450.674 66.919V417.843ZM314.885 131.494C314.885 129.372 315.728 127.337 317.228 125.837C318.728 124.337 320.763 123.494 322.885 123.494H389.446C391.568 123.494 393.602 124.337 395.103 125.837C396.603 127.337 397.446 129.372 397.446 131.494C397.446 133.616 396.603 135.651 395.103 137.151C393.602 138.651 391.568 139.494 389.446 139.494H322.885C320.763 139.494 318.728 138.651 317.228 137.151C315.728 135.651 314.885 133.616 314.885 131.494ZM314.885 164.697C314.885 162.575 315.728 160.54 317.228 159.04C318.728 157.54 320.763 156.697 322.885 156.697H389.446C391.568 156.697 393.602 157.54 395.103 159.04C396.603 160.54 397.446 162.575 397.446 164.697C397.446 166.819 396.603 168.854 395.103 170.354C393.602 171.854 391.568 172.697 389.446 172.697H322.885C320.763 172.697 318.728 171.854 317.228 170.354C315.728 168.854 314.885 166.819 314.885 164.697ZM314.885 197.9C314.885 195.778 315.728 193.743 317.228 192.243C318.728 190.743 320.763 189.9 322.885 189.9H389.446C391.568 189.9 393.602 190.743 395.103 192.243C396.603 193.743 397.446 195.778 397.446 197.9C397.446 200.022 396.603 202.057 395.103 203.557C393.602 205.057 391.568 205.9 389.446 205.9H322.885C320.763 205.9 318.728 205.057 317.228 203.557C315.728 202.057 314.885 200.022 314.885 197.9ZM398.148 297.51C398.148 299.632 397.305 301.667 395.805 303.167C394.304 304.667 392.27 305.51 390.148 305.51H323.588C321.466 305.51 319.431 304.667 317.931 303.167C316.431 301.667 315.588 299.632 315.588 297.51C315.588 295.388 316.431 293.353 317.931 291.853C319.431 290.353 321.466 289.51 323.588 289.51H390.148C392.27 289.51 394.304 290.353 395.805 291.853C397.305 293.353 398.148 295.388 398.148 297.51ZM398.148 264.307C398.148 266.429 397.305 268.464 395.805 269.964C394.304 271.464 392.27 272.307 390.148 272.307H323.588C321.466 272.307 319.431 271.464 317.931 269.964C316.431 268.464 315.588 266.429 315.588 264.307C315.588 262.185 316.431 260.15 317.931 258.65C319.431 257.15 321.466 256.307 323.588 256.307H390.148C392.27 256.307 394.304 257.15 395.805 258.65C397.305 260.15 398.148 262.185 398.148 264.307ZM398.148 231.103C398.148 233.225 397.305 235.26 395.805 236.76C394.304 238.26 392.27 239.103 390.148 239.103H323.588C321.466 239.103 319.431 238.26 317.931 236.76C316.431 235.26 315.588 233.225 315.588 231.103C315.588 228.981 316.431 226.946 317.931 225.446C319.431 223.946 321.466 223.103 323.588 223.103H390.148C392.27 223.103 394.304 223.946 395.805 225.446C397.305 226.946 398.148 228.981 398.148 231.103ZM300.952 33.862C300.952 38.715 296.968 42.673 292.08 42.673C287.192 42.673 283.209 38.715 283.209 33.862C283.209 29.009 287.193 25.051 292.08 25.051C296.967 25.051 300.952 29.009 300.952 33.862ZM189.001 399.289C232.164 399.289 267.28 365.723 267.28 324.464C267.28 283.204 232.164 249.638 189.001 249.638C145.838 249.638 110.722 283.204 110.722 324.464C110.722 365.723 145.838 399.289 189.001 399.289ZM189.001 265.638C223.342 265.638 251.28 292.028 251.28 324.464C251.28 356.9 223.342 383.289 189.001 383.289C154.66 383.289 126.722 356.9 126.722 324.464C126.722 292.028 154.66 265.638 189.001 265.638Z" fill="url(#paint0_linear_1161_1217)"/>
<defs>
<linearGradient id="paint0_linear_1161_1217" x1="-0.972221" y1="5.68294" x2="452.963" y2="419.246" gradientUnits="userSpaceOnUse">
<stop stop-color="#8705FF"/>
<stop offset="1" stop-color="#CC00FF"/>
</linearGradient>
</defs>
</svg>
