<svg width="480" height="432" viewBox="0 0 480 432" fill="none" xmlns="http://www.w3.org/2000/svg">
<path d="M311.6 432H168.32C159.68 432 151.92 427.68 147.44 420.4C143.12 413.28 142.72 404.64 146.56 397.2L175.6 340.32C176.96 337.68 179.68 336 182.72 336H297.12C300.16 336 302.88 337.68 304.24 340.32L333.28 397.2C337.04 404.64 336.72 413.28 332.4 420.4C327.92 427.68 320.16 432 311.52 432H311.6ZM187.68 352L160.88 404.48C159.12 408 160.48 410.96 161.2 412.08C161.92 413.28 164.08 416 168.4 416H311.68C316 416 318.16 413.2 318.88 412.08C319.574 410.944 319.968 409.651 320.024 408.321C320.08 406.992 319.796 405.67 319.2 404.48L292.4 352H187.76H187.68Z" fill="url(#paint0_linear_1128_328)"/>
<path d="M232 152H56C47.2 152 40 144.8 40 136V56C40 47.2 47.2 40 56 40H232C240.8 40 248 47.2 248 56V136C248 144.8 240.8 152 232 152ZM56 56V136H232V56H56ZM120 264H56C47.2 264 40 256.8 40 248V184C40 175.2 47.2 168 56 168H120C128.8 168 136 175.2 136 184V248C136 256.8 128.8 264 120 264ZM56 184V248H120V184H56ZM232 264H168C159.2 264 152 256.8 152 248V184C152 175.2 159.2 168 168 168H232C240.8 168 248 175.2 248 184V248C248 256.8 240.8 264 232 264ZM168 184V248H232V184H168Z" fill="url(#paint1_linear_1128_328)"/>
<path d="M432 264H312C307.6 264 304 260.4 304 256C304 251.6 307.6 248 312 248H432C436.4 248 440 251.6 440 256C440 260.4 436.4 264 432 264ZM432 224H312C307.6 224 304 220.4 304 216C304 211.6 307.6 208 312 208H432C436.4 208 440 211.6 440 216C440 220.4 436.4 224 432 224ZM432 184H312C307.6 184 304 180.4 304 176C304 171.6 307.6 168 312 168H432C436.4 168 440 171.6 440 176C440 180.4 436.4 184 432 184Z" fill="url(#paint2_linear_1128_328)"/>
<path d="M440 0H40C17.92 0 0 17.92 0 40V312C0 334.08 17.92 352 40 352H440C462.08 352 480 334.08 480 312V40C480 17.92 462.08 0 440 0ZM464 40V288H280V16H440C453.2 16 464 26.8 464 40ZM40 16H264V288H16V40C16 26.8 26.8 16 40 16ZM464 312C464 325.2 453.2 336 440 336H40C26.8 336 16 325.2 16 312V304H464V312Z" fill="url(#paint3_linear_1128_328)"/>
<path d="M408 127.999C406.32 127.999 404.64 127.439 403.2 126.399C399.68 123.759 398.96 118.719 401.6 115.199L422 87.9993L401.6 60.7993C398.96 57.2793 399.68 52.2393 403.2 49.5993C406.72 46.9593 411.76 47.6793 414.4 51.1993L438.4 83.1993C440.56 86.0793 440.56 89.9193 438.4 92.7993L414.4 124.799C412.8 126.879 410.4 127.999 408 127.999ZM328 127.999C325.6 127.999 323.2 126.879 321.6 124.799L297.6 92.7993C296.549 91.4198 295.979 89.7335 295.979 87.9993C295.979 86.265 296.549 84.5787 297.6 83.1993L321.6 51.1993C324.24 47.6793 329.28 46.9593 332.8 49.5993C336.32 52.2393 337.04 57.2793 334.4 60.7993L314 87.9993L334.4 115.199C337.04 118.719 336.32 123.759 332.8 126.399C331.36 127.439 329.68 127.999 328 127.999ZM360 127.999C359.36 127.999 358.72 127.999 358.08 127.759C356.023 127.249 354.252 125.942 353.157 124.127C352.062 122.313 351.732 120.137 352.24 118.079L368.24 54.0793C368.814 52.0925 370.135 50.4052 371.926 49.3713C373.717 48.3375 375.839 48.0375 377.847 48.5342C379.854 49.0309 381.592 50.2858 382.694 52.0355C383.796 53.7853 384.178 55.894 383.76 57.9193L367.76 121.919C366.88 125.599 363.6 127.999 360 127.999Z" fill="url(#paint4_linear_1128_328)"/>
<defs>
<linearGradient id="paint0_linear_1128_328" x1="150.771" y1="342.188" x2="218.381" y2="497.346" gradientUnits="userSpaceOnUse">
<stop stop-color="#1BA2D7"/>
<stop offset="1" stop-color="#8D3DFA"/>
</linearGradient>
<linearGradient id="paint1_linear_1128_328" x1="47.4214" y1="54.4375" x2="262.376" y2="283.511" gradientUnits="userSpaceOnUse">
<stop stop-color="#1BA2D7"/>
<stop offset="1" stop-color="#8D3DFA"/>
</linearGradient>
<linearGradient id="paint2_linear_1128_328" x1="308.852" y1="174.188" x2="391.238" y2="308.135" gradientUnits="userSpaceOnUse">
<stop stop-color="#1BA2D7"/>
<stop offset="1" stop-color="#8D3DFA"/>
</linearGradient>
<linearGradient id="paint3_linear_1128_328" x1="17.1263" y1="22.6876" x2="324.272" y2="503.366" gradientUnits="userSpaceOnUse">
<stop stop-color="#1BA2D7"/>
<stop offset="1" stop-color="#8D3DFA"/>
</linearGradient>
<linearGradient id="paint4_linear_1128_328" x1="301.119" y1="53.1635" x2="361.434" y2="177.811" gradientUnits="userSpaceOnUse">
<stop stop-color="#1BA2D7"/>
<stop offset="1" stop-color="#8D3DFA"/>
</linearGradient>
</defs>
</svg>
