<svg xmlns="http://www.w3.org/2000/svg" version="1.1" xmlns:xlink="http://www.w3.org/1999/xlink" width="512" height="512" x="0" y="0" viewBox="0 0 512 512" style="enable-background:new 0 0 512 512" xml:space="preserve" class=""><g><path d="M347.699 153.009H164.301c-5.523 0-10 4.477-10 10v183.398c0 5.523 4.477 10 10 10h183.398c5.523 0 10-4.477 10-10V163.009c0-5.522-4.477-10-10-10z" style="" fill="#ffffff" data-original="#ffffff"></path><path d="M492 300.729h-69.459c-5.523 0-10-4.477-10-10V221.27c0-5.523 4.477-10 10-10H492c5.523 0 10 4.477 10 10v69.459c0 5.523-4.477 10-10 10zM20 211.271h69.459c5.523 0 10 4.477 10 10v69.459c0 5.523-4.477 10-10 10H20c-5.523 0-10-4.477-10-10v-69.459c0-5.523 4.477-10 10-10z" style="" fill="#ffda8f" data-original="#ffda8f"></path><path d="M300.729 20v69.459c0 5.523-4.477 10-10 10H221.27c-5.523 0-10-4.477-10-10V20c0-5.523 4.477-10 10-10h69.459c5.523 0 10 4.477 10 10zM211.271 492v-69.459c0-5.523 4.477-10 10-10h69.459c5.523 0 10 4.477 10 10V492c0 5.523-4.477 10-10 10h-69.459c-5.523 0-10-4.477-10-10z" style="" fill="#9de3d1" data-original="#9de3d1"></path><path d="M99.459 20v69.459c0 5.523-4.477 10-10 10H20c-5.523 0-10-4.477-10-10V20c0-5.523 4.477-10 10-10h69.459c5.523 0 10 4.477 10 10z" style="" fill="#a0c8ff" data-original="#a0c8ff"></path><path d="M412.541 20v69.459c0 5.523 4.477 10 10 10H492c5.523 0 10-4.477 10-10V20c0-5.523-4.477-10-10-10h-69.459c-5.523 0-10 4.477-10 10zM99.459 492v-69.459c0-5.523-4.477-10-10-10H20c-5.523 0-10 4.477-10 10V492c0 5.523 4.477 10 10 10h69.459c5.523 0 10-4.477 10-10z" style="" fill="#c1b0b5" data-original="#c1b0b5"></path><path d="M412.541 492v-69.459c0-5.523 4.477-10 10-10H492c5.523 0 10 4.477 10 10V492c0 5.523-4.477 10-10 10h-69.459c-5.523 0-10-4.477-10-10z" style="" fill="#a0c8ff" data-original="#a0c8ff"></path><path d="m268.878 234.35-27.39 43.3M212.774 277.65 191.905 256l20.869-21.65M299.226 234.35 320.095 256l-20.869 21.65" style="stroke-width:20;stroke-linecap:round;stroke-linejoin:round;stroke-miterlimit:10;" fill="none" stroke="#000000" stroke-width="20" stroke-linecap="round" stroke-linejoin="round" stroke-miterlimit="10" data-original="#000000"></path><path d="M357.699 310.651V163.009c0-5.523-4.477-10-10-10H164.301c-5.523 0-10 4.477-10 10v183.398c0 5.523 4.477 10 10 10h147.086M492 300.729h-69.459c-5.523 0-10-4.477-10-10V221.27c0-5.523 4.477-10 10-10H492c5.523 0 10 4.477 10 10v69.459c0 5.523-4.477 10-10 10zM360.442 256h46.136M20 211.271h69.459c5.523 0 10 4.477 10 10v69.459c0 5.523-4.477 10-10 10H20c-5.523 0-10-4.477-10-10v-69.459c0-5.523 4.477-10 10-10zM151.558 256h-46.136M300.729 20v69.459c0 5.523-4.477 10-10 10H221.27c-5.523 0-10-4.477-10-10V20c0-5.523 4.477-10 10-10h69.459c5.523 0 10 4.477 10 10zM256 151.558v-46.136M211.271 492v-69.459c0-5.523 4.477-10 10-10h69.459c5.523 0 10 4.477 10 10V492c0 5.523-4.477 10-10 10h-69.459c-5.523 0-10-4.477-10-10zM256 360.442v46.136M99.459 20v69.459c0 5.523-4.477 10-10 10H20c-5.523 0-10-4.477-10-10V20c0-5.523 4.477-10 10-10h69.459c5.523 0 10 4.477 10 10zM54.729 105.422v101.51M105.422 54.729h100.535M412.541 20v69.459c0 5.523 4.477 10 10 10H492c5.523 0 10-4.477 10-10V20c0-5.523-4.477-10-10-10h-69.459c-5.523 0-10 4.477-10 10zM457.271 105.422v101.51M406.578 54.729H306.043M99.459 492v-69.459c0-5.523-4.477-10-10-10H20c-5.523 0-10 4.477-10 10V492c0 5.523 4.477 10 10 10h69.459c5.523 0 10-4.477 10-10zM54.729 406.578v-101.51M105.422 457.271h100.535M412.541 492v-69.459c0-5.523 4.477-10 10-10H492c5.523 0 10 4.477 10 10V492c0 5.523-4.477 10-10 10h-69.459c-5.523 0-10-4.477-10-10zM457.271 406.578v-101.51M406.578 457.271H306.043M356.31 355.823h0" style="stroke-width:20;stroke-linecap:round;stroke-linejoin:round;stroke-miterlimit:10;" fill="none" stroke="#000000" stroke-width="20" stroke-linecap="round" stroke-linejoin="round" stroke-miterlimit="10" data-original="#000000"></path></g></svg>