<svg xmlns="http://www.w3.org/2000/svg" version="1.1" xmlns:xlink="http://www.w3.org/1999/xlink" width="512" height="512" x="0" y="0" viewBox="0 0 64 64" style="enable-background:new 0 0 512 512" xml:space="preserve"><g><rect width="36" height="62" x="14" y="1" fill="#314898" rx="2" opacity="1" data-original="#314898"></rect><rect width="34" height="60" x="16" y="3" fill="#253a84" rx="2" opacity="1" data-original="#253a84"></rect><g fill="#1b2e69"><path d="M20.75 18.75H12a.751.751 0 0 1-.671-.415L9.537 14.75H3.25v-1.5H10a.751.751 0 0 1 .671.415l1.792 3.585h8.287zM10 34.75H3.25v-1.5h6.287l1.792-3.585A.751.751 0 0 1 12 29.25h8.75v1.5h-8.287l-1.792 3.585a.751.751 0 0 1-.671.415zM6.25 23.25H21v1.5H6.25z" fill="#1b2e69" opacity="1" data-original="#1b2e69"></path></g><circle cx="3" cy="14" r="2" fill="#f5c115" opacity="1" data-original="#f5c115"></circle><path fill="#fae15a" d="M1 14a2 2 0 0 0 .177.823 2 2 0 0 0 2.646-2.646A2 2 0 0 0 1 14z" opacity="1" data-original="#fae15a"></path><circle cx="6" cy="24" r="2" fill="#f5c115" opacity="1" data-original="#f5c115"></circle><path fill="#fae15a" d="M4 24a2 2 0 0 0 .177.823 2 2 0 0 0 2.646-2.646A2 2 0 0 0 4 24z" opacity="1" data-original="#fae15a"></path><circle cx="3" cy="34" r="2" fill="#f5c115" opacity="1" data-original="#f5c115"></circle><path fill="#fae15a" d="M3 32a2 2 0 0 1 .823.177 2 2 0 0 1-2.646 2.646A2 2 0 0 1 3 32z" opacity="1" data-original="#fae15a"></path><path fill="#1b2e69" d="M52 18.75h-8.75v-1.5h8.286l1.793-3.585A.751.751 0 0 1 54 13.25h6.75v1.5h-6.286l-1.793 3.585a.751.751 0 0 1-.671.415zM60.75 34.75H54a.751.751 0 0 1-.671-.415l-1.793-3.585H43.25v-1.5H52a.751.751 0 0 1 .671.415l1.793 3.585h6.286zM43 23.25h14.75v1.5H43z" opacity="1" data-original="#1b2e69"></path><circle cx="61" cy="14" r="2" fill="#f5c115" opacity="1" data-original="#f5c115"></circle><path fill="#fae15a" d="M61 12a2 2 0 0 1 .823.177 2 2 0 0 1-2.646 2.646A2 2 0 0 1 61 12z" opacity="1" data-original="#fae15a"></path><circle cx="58" cy="24" r="2" fill="#f5c115" opacity="1" data-original="#f5c115"></circle><path fill="#fae15a" d="M58 22a2 2 0 0 1 .823.177 2 2 0 0 1-2.646 2.646A2 2 0 0 1 58 22z" opacity="1" data-original="#fae15a"></path><circle cx="61" cy="34" r="2" fill="#f5c115" opacity="1" data-original="#f5c115"></circle><path fill="#fae15a" d="M59 34a2 2 0 0 0 .177.823 2 2 0 0 0 2.646-2.646A2 2 0 0 0 59 34z" opacity="1" data-original="#fae15a"></path><path fill="#1b2e69" d="M26 55h12v2a2 2 0 0 1-2 2h-8a2 2 0 0 1-2-2v-2z" opacity="1" data-original="#1b2e69"></path><rect width="7" height="7" x="28.5" y="42.5" fill="#dc286e" rx="1" opacity="1" data-original="#dc286e"></rect><rect width="7" height="7" x="17.5" y="42.5" fill="#dc286e" rx="1" opacity="1" data-original="#dc286e"></rect><rect width="7" height="7" x="39.5" y="42.5" fill="#dc286e" rx="1" opacity="1" data-original="#dc286e"></rect><rect width="24" height="24" x="20" y="12" fill="#e44e91" rx="2" opacity="1" data-original="#e44e91"></rect><rect width="20" height="20" x="24" y="16" fill="#dc286e" rx="2" opacity="1" data-original="#dc286e"></rect></g></svg>