<svg xmlns="http://www.w3.org/2000/svg" version="1.1" xmlns:xlink="http://www.w3.org/1999/xlink" width="512" height="512" x="0" y="0" viewBox="0 0 512 512" style="enable-background:new 0 0 512 512" xml:space="preserve"><g><path fill="#feb237" d="M439.113 193.132h-37.317a7.5 7.5 0 0 1 0-15h34.21l10.924-10.924a7.497 7.497 0 0 1 5.303-2.197h28.442a7.5 7.5 0 0 1 0 15H455.34l-10.924 10.924a7.495 7.495 0 0 1-5.303 2.197zM480.676 347.461h-28.442a7.497 7.497 0 0 1-5.303-2.197l-10.924-10.924h-34.211a7.5 7.5 0 0 1 0-15h37.317c1.989 0 3.897.79 5.303 2.197l10.924 10.924h25.335a7.5 7.5 0 0 1 .001 15zM480.676 263.736h-78.88a7.5 7.5 0 0 1 0-15h78.88a7.5 7.5 0 0 1 0 15zM110.204 193.132H72.887a7.497 7.497 0 0 1-5.303-2.197L56.66 180.011H31.324a7.5 7.5 0 0 1 0-15h28.442c1.989 0 3.897.79 5.303 2.197l10.924 10.924h34.21a7.5 7.5 0 0 1 .001 15zM59.766 347.461H31.324a7.5 7.5 0 0 1 0-15H56.66l10.924-10.924a7.497 7.497 0 0 1 5.303-2.197h37.317a7.5 7.5 0 0 1 0 15H75.993l-10.924 10.924a7.497 7.497 0 0 1-5.303 2.197zM110.204 263.736h-78.88a7.5 7.5 0 0 1 0-15h78.88a7.5 7.5 0 0 1 0 15z" opacity="1" data-original="#feb237"></path><path fill="#528fd8" d="m344.455 132.168-36.423-72.376a16.622 16.622 0 0 0-6.897-1.516H116.553c-9.196 0-16.65 7.455-16.65 16.65v362.146c0 9.196 7.455 16.65 16.65 16.65h278.894c9.196 0 16.65-7.455 16.65-16.65V169.238c0-2.405-.537-4.749-1.516-6.897z" opacity="1" data-original="#528fd8"></path><path fill="#0573ce" d="m344.455 132.168-36.423-72.376a16.622 16.622 0 0 0-6.897-1.516h-24.323v87.415c0 26.438 21.432 47.87 47.87 47.87h43.707c6.897 0 12.488 5.591 12.488 12.488v231.024c0 9.196-7.455 16.65-16.65 16.65h31.219c9.196 0 16.65-7.455 16.65-16.65V169.238c0-2.405-.537-4.749-1.516-6.897z" opacity="1" data-original="#0573ce"></path><path fill="#b2caec" d="M324.683 162.341h85.899a16.626 16.626 0 0 0-3.361-4.877L312.91 63.153a16.626 16.626 0 0 0-4.877-3.361v85.899c0 9.196 7.454 16.65 16.65 16.65z" opacity="1" data-original="#b2caec"></path><path fill="#ffe177" d="M266.407 193.839v-51.985a15.61 15.61 0 0 0-7.957-13.605l-46.829-26.341a15.61 15.61 0 0 0-15.306 0l-46.829 26.341a15.61 15.61 0 0 0-7.957 13.605v51.985a15.61 15.61 0 0 0 7.957 13.605l46.829 26.341a15.61 15.61 0 0 0 15.306 0l46.829-26.341a15.61 15.61 0 0 0 7.957-13.605z" opacity="1" data-original="#ffe177"></path><path fill="#fe9901" d="M170.667 181.151v-26.608a8.324 8.324 0 0 1 4.244-7.256l24.976-14.049a8.323 8.323 0 0 1 8.163 0l24.976 14.049a8.326 8.326 0 0 1 4.244 7.256v26.608a8.324 8.324 0 0 1-4.244 7.256l-24.976 14.049a8.323 8.323 0 0 1-8.163 0l-24.976-14.049a8.326 8.326 0 0 1-4.244-7.256z" opacity="1" data-original="#fe9901"></path><circle cx="491.187" cy="172.511" r="20.813" fill="#ffd15b" opacity="1" data-original="#ffd15b"></circle><circle cx="491.187" cy="339.489" r="20.813" fill="#ffd15b" opacity="1" data-original="#ffd15b"></circle><circle cx="491.187" cy="256.237" r="20.813" fill="#ffd15b" opacity="1" data-original="#ffd15b"></circle><circle cx="20.813" cy="172.511" r="20.813" fill="#ffd15b" opacity="1" data-original="#ffd15b"></circle><circle cx="20.813" cy="339.489" r="20.813" fill="#ffd15b" opacity="1" data-original="#ffd15b"></circle><circle cx="20.813" cy="256.237" r="20.813" fill="#ffd15b" opacity="1" data-original="#ffd15b"></circle><path fill="#dff6fd" d="M370.472 275.3H141.528a7.5 7.5 0 0 1 0-15h228.943a7.5 7.5 0 0 1 .001 15zM370.472 306.52H141.528a7.5 7.5 0 0 1 0-15h228.943a7.5 7.5 0 0 1 .001 15zM370.472 337.739H141.528a7.5 7.5 0 0 1 0-15h228.943a7.5 7.5 0 0 1 .001 15zM256 368.959H141.528a7.5 7.5 0 0 1 0-15H256a7.5 7.5 0 0 1 0 15z" opacity="1" data-original="#dff6fd"></path><path fill="#fe93d3" d="M265.702 411.69a7.5 7.5 0 0 1-6.815-10.624 74.218 74.218 0 0 1 24.321-29.464c2.254-1.609 9.114-6.511 16.957-4.638 3.762.896 7.129 3.236 9.607 6.597.494-.421 1.006-.83 1.541-1.222 6.241-4.592 14.009-5.705 20.277-2.902 3.712 1.659 6.739 4.851 8.326 8.706l28.87-6.665c4.033-.935 8.062 1.584 8.995 5.621a7.5 7.5 0 0 1-5.621 8.995l-37.815 8.73a7.499 7.499 0 0 1-8.27-10.901c-.106-.301-.398-.698-.607-.792-1.266-.565-3.48-.023-5.267 1.292-2.587 1.903-4.634 5.124-6.509 8.26a7.499 7.499 0 0 1-13.846-2.685c-.396-2.52-.77-4.899-1.612-6.638-.6-1.238-1.342-1.755-1.545-1.803-.049-.012-1.247-.255-4.763 2.255a59.201 59.201 0 0 0-19.398 23.5 7.51 7.51 0 0 1-6.826 4.378z" opacity="1" data-original="#fe93d3"></path></g></svg>