<svg xmlns="http://www.w3.org/2000/svg" version="1.1" xmlns:xlink="http://www.w3.org/1999/xlink" width="512" height="512" x="0" y="0" viewBox="0 0 512 512" style="enable-background:new 0 0 512 512" xml:space="preserve"><g><path d="M216 288v48c0 53.02 60.89 96 136 96s136-42.98 136-96v-48Z" style="" fill="#e5707f" data-original="#e5707f"></path><path d="M440 409.188a125.384 125.384 0 0 0 16-11.335V344h-16ZM392 427.777q8.233-1.786 16-4.267V368h-16ZM344 431.83c2.648.109 5.314.17 8 .17s5.352-.061 8-.17V368h-16ZM296 423.51q7.753 2.476 16 4.267V368h-16ZM248 397.853a125.384 125.384 0 0 0 16 11.335V344h-16Z" style="" fill="#f78f9c" data-original="#f78f9c"></path><ellipse cx="352" cy="288" rx="136" ry="96" style="" fill="#f78f9c" data-original="#f78f9c"></ellipse><path d="M352 360c-29.24 0-56.845-7.078-77.732-19.932C252.17 326.47 240 307.978 240 288s12.17-38.47 34.268-52.068C295.155 223.078 322.76 216 352 216s56.845 7.078 77.732 19.932C451.83 249.53 464 268.022 464 288s-12.17 38.47-34.268 52.068C408.845 352.922 381.24 360 352 360Zm0-128c-26.32 0-50.947 6.235-69.346 17.559C265.466 260.136 256 273.787 256 288s9.466 27.864 26.654 38.441C301.054 337.765 325.68 344 352 344s50.947-6.235 69.346-17.559C438.534 315.864 448 302.213 448 288s-9.466-27.864-26.654-38.441C402.946 238.235 378.32 232 352 232Z" style="" fill="#f9acb9" data-original="#f9acb9"></path><path d="M24 336v56c0 53.02 60.89 96 136 96s136-42.98 136-96v-56Z" style="" fill="#3f589e" data-original="#3f589e"></path><path d="M248 465.188a125.384 125.384 0 0 0 16-11.335V392h-16ZM200 483.777q8.233-1.786 16-4.267V424h-16ZM152 487.83c2.648.109 5.314.17 8 .17s5.352-.061 8-.17V432h-16ZM104 479.51q7.753 2.476 16 4.267V424h-16ZM56 453.853a125.384 125.384 0 0 0 16 11.335V400H56Z" style="" fill="#576cd3" data-original="#576cd3"></path><ellipse cx="160" cy="336" rx="136" ry="104" style="" fill="#576cd3" data-original="#576cd3"></ellipse><path d="m108.528 317.451-9.056-13.19C114.524 293.928 136.585 288 160 288v16c-20.26 0-39.02 4.903-51.472 13.451ZM160 384c-44.86 0-80-21.084-80-48a31.225 31.225 0 0 1 1.927-10.746l15.027 5.492A15.287 15.287 0 0 0 96 336c0 7.538 6.187 15.299 16.973 21.291C125.403 364.197 142.105 368 160 368c2.505 0 5.032-.077 7.51-.23l.98 15.971c-2.803.172-5.66.259-8.49.259ZM194.129 379.554l-4.258-15.424C210.285 358.495 224 347.19 224 336a15.287 15.287 0 0 0-.954-5.254l15.027-5.492A31.225 31.225 0 0 1 240 336c0 19.054-17.577 35.742-45.871 43.554Z" style="" fill="#7f9ae5" data-original="#7f9ae5"></path><path d="M60.312 372.665C52.257 361.445 48 348.767 48 336c0-37.558 35.656-69.62 86.709-77.969l2.582 15.791c-20.967 3.429-39.882 11.683-53.261 23.24C70.926 308.382 64 321.848 64 336c0 9.533 3.132 18.73 9.31 27.335ZM160 416c-25.45 0-49.407-5.885-69.282-17.02l7.82-13.959C115.778 394.681 137.607 400 160 400c41.079 0 77.631-17.537 90.957-43.638l14.25 7.276C249.217 394.957 206.938 416 160 416Z" style="" fill="#7f9ae5" data-original="#7f9ae5"></path><path d="M296 24h-40v304h40a152 152 0 0 0 152-152A152 152 0 0 0 296 24Z" style="" fill="#00a16c" data-original="#00a16c"></path><path d="M406.839 72H352v16h67.95a152.746 152.746 0 0 0-13.111-16ZM437.348 120H384v16h58.67a150.824 150.824 0 0 0-5.322-16ZM400 184h47.791q.206-3.974.209-8 0-4.026-.209-8H400ZM442.67 216H384v16h53.348a150.824 150.824 0 0 0 5.322-16ZM419.95 264H360v16h46.839a152.746 152.746 0 0 0 13.111-16Z" style="" fill="#00b378" data-original="#00b378"></path><circle cx="256" cy="176" r="152" style="" fill="#00b378" data-original="#00b378"></circle><path d="M168.975 269.865a128.014 128.014 0 0 1 150.93-204.794l-7.998 13.858a112.01 112.01 0 0 0-132.052 179.206ZM256 304a128.278 128.278 0 0 1-59.739-14.769l7.478-14.144A112.014 112.014 0 0 0 338.135 99.855l11.73-10.88A128 128 0 0 1 256 304Z" style="" fill="#46c89d" data-original="#46c89d"></path><path d="M328 216v-80l-72-40-72 40v80l72 40 72-40z" style="" fill="#76d6b4" data-original="#76d6b4"></path><path d="M304 192h-16v-27.47l-32.35-19.41-28.072 14.035-7.156-14.31 32-16a8 8 0 0 1 7.694.295l40 24A8.002 8.002 0 0 1 304 160Z" style="" fill="#46c89d" data-original="#46c89d"></path><path d="M352 480a227.21 227.21 0 0 1-41.464-3.773l2.928-15.73A211.12 211.12 0 0 0 352 464c34.071 0 67.16-8.151 93.172-22.953l7.913 13.906C424.701 471.104 388.801 480 352 480ZM468.78 444.726l-9.56-12.829a113.701 113.701 0 0 0 14.947-13.26l11.667 10.95a129.748 129.748 0 0 1-17.053 15.139Z" style="" fill="#ffc7d3" data-original="#ffc7d3"></path><path d="m74.544 145.324-15.779-2.648a199.889 199.889 0 0 1 3.536-16.67l15.495 3.988a183.919 183.919 0 0 0-3.252 15.33ZM62.301 225.994A200.7 200.7 0 0 1 56 176c0-5.547.23-11.151.684-16.657l15.946 1.314A187.33 187.33 0 0 0 72 176a184.686 184.686 0 0 0 5.796 46.006Z" style="" fill="#bdecdc" data-original="#bdecdc"></path><path d="M64 32a.995.995 0 0 0-.97.785 40.048 40.048 0 0 1-30.245 30.237.995.995 0 0 0-.785.97v.016a.995.995 0 0 0 .785.97 40.048 40.048 0 0 1 30.246 30.237A.995.995 0 0 0 64 96h.008a.995.995 0 0 0 .97-.785 40.048 40.048 0 0 1 30.237-30.246A.995.995 0 0 0 96 64v-.008a.995.995 0 0 0-.785-.97 40.048 40.048 0 0 1-30.246-30.237A.995.995 0 0 0 64 32Z" style="" fill="#46c89d" data-original="#46c89d"></path></g></svg>