<svg width="481" height="434" viewBox="0 0 481 434" fill="none" xmlns="http://www.w3.org/2000/svg">
<path d="M239.684 111.629C270.564 111.629 295.684 86.509 295.684 55.629C292.876 -18.555 186.484 -18.531 183.684 55.629C183.684 86.509 208.804 111.629 239.684 111.629ZM239.684 15.629C261.74 15.629 279.684 33.581 279.684 55.629C277.804 108.573 201.556 108.557 199.684 55.629C199.684 33.581 217.636 15.629 239.684 15.629Z" fill="#13C4A1"/>
<path d="M134.894 197.366C137.886 197.366 140.894 196.51 143.614 194.766C156.09 186.827 169.569 180.585 183.694 176.206V188.51C183.862 199.022 199.51 199.03 199.694 188.51V165.63C199.814 160.574 194.614 156.518 189.726 157.878C169.766 162.926 151.35 170.806 134.926 181.438C149.812 154.664 174.353 134.578 203.542 125.278C216.622 149.438 262.766 149.422 275.83 125.278C304.98 134.551 329.501 154.582 344.406 181.294C328.03 170.806 309.606 162.926 289.646 157.878C284.782 156.518 279.558 160.574 279.686 165.638V188.518C279.87 199.022 295.51 199.03 295.686 188.518V176.206C309.81 180.586 323.289 186.827 335.766 194.766C338.774 196.744 342.367 197.638 345.951 197.301C349.536 196.963 352.899 195.415 355.486 192.91C358.092 190.517 359.806 187.307 360.344 183.81C360.882 180.313 360.212 176.736 358.446 173.67C340.286 140.958 309.166 116.982 273.086 107.878C268.846 106.718 264.158 109.614 263.318 113.926C261.638 121.614 251.262 127.63 239.686 127.63C228.11 127.63 217.742 121.614 216.062 113.926C215.835 112.878 215.399 111.887 214.78 111.011C214.162 110.135 213.373 109.393 212.462 108.828C211.55 108.264 210.534 107.889 209.474 107.726C208.415 107.562 207.333 107.614 206.294 107.878C188.348 112.457 171.525 120.648 156.853 131.951C142.182 143.253 129.97 157.43 120.966 173.614C114.646 183.758 123.302 197.686 134.894 197.366ZM41.2055 431.326C88.3335 444.814 129.438 391.326 104.198 349.23C88.7575 322.494 54.4375 313.318 27.6935 328.734C-15.1785 352.814 -6.42646 419.286 41.2055 431.326ZM35.6935 342.598C82.1495 317.598 120.766 383.974 75.6935 411.878C29.1495 436.926 -9.26646 370.486 35.6935 342.598Z" fill="#13C4A1"/>
<path d="M88.1335 327.077C90.0535 328.101 92.2775 328.301 94.3495 327.653C100.95 325.541 111.606 330.061 118.03 341.229C123.886 351.389 123.838 363.181 117.934 368.645C114.662 371.549 114.526 377.029 117.646 380.101C130.296 393.042 145.399 403.333 162.071 410.371C178.744 417.41 196.652 421.054 214.75 421.093C222.942 421.789 230.67 417.109 232.494 408.845C233.359 405.365 233.013 401.695 231.514 398.437C230.015 395.18 227.451 392.531 224.246 390.925C211.123 384.077 198.975 375.505 188.126 365.437L195.206 361.357C204.222 355.965 196.406 342.389 187.206 347.501L170.974 356.861C166.534 359.277 165.614 365.821 169.23 369.365C183.654 384.205 199.686 396.245 216.982 405.069C186.347 405.613 156.669 394.395 134.054 373.725C148.47 350.565 125.23 310.125 97.9415 311.133C91.3866 281.246 96.4795 249.985 112.182 223.725C111.246 243.133 113.63 263.029 119.278 282.861C120.542 287.757 126.662 290.245 130.982 287.589L147.702 277.909C156.702 272.501 148.87 258.941 139.678 264.069L132.11 268.453C128.825 254.043 127.496 239.257 128.158 224.493C128.368 220.898 127.351 217.338 125.272 214.397C123.193 211.456 120.177 209.309 116.718 208.309C113.334 207.246 109.69 207.364 106.382 208.643C103.074 209.922 100.298 212.286 98.5095 215.349C88.9947 231.255 82.8213 248.934 80.3661 267.306C77.9109 285.678 79.2255 304.358 84.2295 322.205C84.8135 324.285 86.2295 326.037 88.1335 327.077ZM452.918 328.733C426.174 313.293 391.862 322.493 376.414 349.237C341.526 414.725 434.222 468.157 473.414 405.237C488.854 378.501 479.654 344.181 452.918 328.733ZM459.558 397.237C431.742 442.237 365.214 403.797 390.278 357.237C418.334 312.213 484.51 350.781 459.558 397.237Z" fill="#13C4A1"/>
<path d="M352.494 224.461C353.104 239.241 351.751 254.037 348.47 268.461L339.614 263.341C330.43 258.221 322.59 271.789 331.614 277.205L349.614 287.605C353.926 290.237 360.046 287.765 361.31 282.861C366.926 263.117 369.334 243.229 368.35 223.589C384.102 249.88 389.237 281.187 382.71 311.133C355.358 310.101 332.102 350.549 346.526 373.733C324.078 394.293 294.302 405.517 263.67 405.149C280.79 396.325 296.838 384.293 311.35 369.365C314.966 365.829 314.054 359.269 309.606 356.861L292.806 347.181C283.622 342.093 275.782 355.629 284.822 361.037L292.454 365.437C281.62 375.521 269.473 384.094 256.342 390.925C253.141 392.542 250.586 395.201 249.097 398.464C247.608 401.727 247.274 405.399 248.15 408.877C250.022 417.125 257.654 421.797 265.774 421.093C302.246 421.093 337.534 406.229 362.95 380.093C363.693 379.328 364.275 378.422 364.662 377.429C365.05 376.435 365.235 375.375 365.206 374.309C365.178 373.243 364.937 372.194 364.497 371.222C364.058 370.251 363.428 369.377 362.646 368.653C349.022 356.149 368.646 321.997 386.318 327.653C390.47 329.069 395.326 326.453 396.43 322.205C401.423 304.359 402.725 285.682 400.259 267.316C397.793 248.949 391.609 231.278 382.086 215.381C374.022 201.157 351.302 208.213 352.494 224.461Z" fill="#13C4A1"/>
<path d="M319.686 271.629C319.686 227.517 283.806 191.629 239.686 191.629C133.558 196.029 133.59 347.253 239.686 351.629C283.806 351.629 319.686 315.741 319.686 271.629ZM239.686 335.629C204.406 335.629 175.686 306.925 175.686 271.629C179.206 186.725 300.182 186.749 303.686 271.629C303.686 306.925 274.982 335.629 239.686 335.629Z" fill="#13C4A1"/>
</svg>
