<svg width="512" height="513" viewBox="0 0 512 513" fill="none" xmlns="http://www.w3.org/2000/svg">
<path d="M491.152 363.285L400.762 317.741C392.945 313.823 384.015 312.728 375.484 314.64C366.952 316.552 359.344 321.355 353.948 328.234L324.448 366.012C323.655 367.09 322.529 367.875 321.244 368.247C319.959 368.619 318.587 368.556 317.342 368.068C243.402 341.53 170.473 268.603 143.936 194.661C143.448 193.415 143.386 192.044 143.758 190.759C144.13 189.474 144.916 188.348 145.994 187.556L183.77 158.056C190.65 152.66 195.452 145.051 197.365 136.519C199.277 127.988 198.181 119.057 194.262 111.241L148.717 20.8498C145.211 13.7156 139.518 7.88788 132.467 4.21658C125.417 0.545271 117.378 -0.777614 109.523 0.440837L68.5226 6.38884C62.984 7.16347 57.693 9.18377 53.0476 12.2978C38.0051 22.3229 25.5032 35.7127 16.5321 51.4066C7.56098 67.1006 2.36705 84.6677 1.36163 102.717C1.35463 102.84 1.33763 102.962 1.32563 103.079C-1.2584 128.267 -0.0601377 153.701 4.88063 178.535C9.98954 204.289 18.0936 229.356 29.0276 253.227C50.5726 300.911 83.3886 347.543 123.928 388.081C164.467 428.619 211.098 461.434 258.782 482.981C282.651 493.915 307.718 502.02 333.472 507.129C349.985 510.35 366.768 511.995 383.593 512.041C392.053 512.048 400.507 511.594 408.918 510.683C409.031 510.67 409.145 510.655 409.259 510.648H409.268C427.319 509.643 444.889 504.449 460.585 495.477C476.281 486.505 489.673 474.001 499.7 458.957C502.814 454.312 504.835 449.021 505.61 443.483L511.558 402.483C512.777 394.627 511.455 386.588 507.784 379.537C504.114 372.485 498.286 366.791 491.152 363.285ZM111.819 16.2788C112.904 16.1208 113.999 16.0413 115.096 16.0408C119.12 16.0294 123.066 17.1492 126.484 19.2726C129.903 21.3959 132.656 24.4373 134.429 28.0498L179.973 118.441C182.285 122.939 182.945 128.105 181.839 133.04C180.733 137.975 177.93 142.365 173.92 145.446L164.075 153.136C144.233 124.307 126.771 93.9117 111.862 62.2498C105.117 47.8198 99.0496 33.2628 93.7836 18.8948L111.819 16.2788ZM489.776 441.187C489.338 444.383 488.172 447.437 486.367 450.111C477.725 463.078 466.183 473.856 452.654 481.59C439.126 489.324 423.983 493.802 408.424 494.67C408.012 494.691 407.599 494.731 407.186 494.776C383.583 497.187 359.753 496.054 336.486 491.414C311.961 486.542 288.091 478.818 265.362 468.399C219.42 447.64 174.422 415.954 135.235 376.767C96.0476 337.58 64.3616 292.583 43.6026 246.641C33.1842 223.911 25.46 200.04 20.5876 175.516C15.9491 152.248 14.8163 128.418 17.2266 104.816C17.2706 104.416 17.3086 104.016 17.3316 103.592C18.1978 88.0304 22.6755 72.8843 30.41 59.3533C38.1444 45.8223 48.9232 34.278 61.8926 25.6348C64.5671 23.8299 67.6208 22.6638 70.8176 22.2268L77.6246 21.2388C83.3096 37.0628 89.9386 53.1238 97.3716 69.0248C112.793 101.776 130.877 133.206 151.441 162.999L136.141 174.945C132.4 177.802 129.674 181.785 128.365 186.307C127.057 190.828 127.233 195.651 128.87 200.065C156.885 278.124 233.87 355.112 311.931 383.127C316.344 384.764 321.167 384.941 325.688 383.633C330.21 382.324 334.193 379.599 337.051 375.859L348.998 360.559C378.789 381.123 410.219 399.206 442.97 414.627C458.88 422.064 474.944 428.696 490.759 434.376L489.776 441.187ZM495.724 400.187L493.108 418.216C478.747 412.954 464.188 406.888 449.75 400.139C418.09 385.231 387.697 367.771 358.871 347.932L366.561 338.086C369.641 334.076 374.03 331.274 378.964 330.168C383.898 329.062 389.063 329.722 393.561 332.033L483.947 377.576C488.062 379.598 491.424 382.882 493.543 386.948C495.661 391.015 496.425 395.652 495.724 400.184V400.187ZM377.954 0.0408373C304.062 0.0408373 243.947 60.1558 243.947 134.048C243.947 207.94 304.062 268.056 377.954 268.056C451.846 268.056 511.962 207.941 511.962 134.048C511.962 60.1548 451.847 0.0408373 377.954 0.0408373ZM377.954 252.056C354.614 252.056 331.798 245.135 312.392 232.168C292.986 219.201 277.86 200.771 268.928 179.208C259.997 157.644 257.66 133.917 262.213 111.026C266.766 88.1343 278.006 67.1073 294.509 50.6036C311.013 34.0999 332.04 22.8607 354.931 18.3073C377.823 13.754 401.55 16.0909 423.113 25.0227C444.676 33.9544 463.107 49.0798 476.074 68.4861C489.041 87.8924 495.962 110.708 495.962 134.048C495.926 165.335 483.482 195.33 461.359 217.453C439.236 239.576 409.24 252.02 377.954 252.056ZM377.954 28.8558C357.148 28.856 336.811 35.0257 319.512 46.5846C302.213 58.1435 288.73 74.5726 280.769 93.7941C272.807 113.016 270.724 134.167 274.783 154.572C278.842 174.977 288.861 193.721 303.573 208.432C318.284 223.144 337.028 233.162 357.433 237.221C377.839 241.279 398.99 239.196 418.211 231.234C437.433 223.272 453.861 209.789 465.42 192.49C476.979 175.191 483.148 154.853 483.148 134.048C483.116 106.158 472.023 79.4203 452.302 59.6996C432.581 39.9789 405.843 28.8861 377.954 28.8548V28.8558ZM462.733 142.049H466.785C465.168 160.123 458.052 177.268 446.396 191.176L443.562 188.341C442.062 186.84 440.027 185.997 437.905 185.996C435.783 185.996 433.748 186.838 432.247 188.338C430.746 189.838 429.903 191.873 429.903 193.995C429.902 196.117 430.745 198.152 432.245 199.653L435.082 202.491C421.174 214.147 404.029 221.262 385.955 222.879V218.829C385.955 216.707 385.112 214.672 383.611 213.172C382.111 211.672 380.076 210.829 377.955 210.829C375.833 210.829 373.798 211.672 372.298 213.172C370.797 214.672 369.955 216.707 369.955 218.829V222.879C351.881 221.262 334.736 214.147 320.829 202.49L323.665 199.654C325.165 198.153 326.008 196.118 326.007 193.997C326.007 191.875 325.164 189.84 323.664 188.34C322.163 186.84 320.128 185.997 318.006 185.997C315.885 185.997 313.85 186.84 312.35 188.341L309.514 191.177C297.857 177.269 290.741 160.124 289.125 142.05H293.175C295.296 142.05 297.331 141.207 298.831 139.707C300.332 138.206 301.175 136.172 301.175 134.05C301.175 131.928 300.332 129.893 298.831 128.393C297.331 126.893 295.296 126.05 293.175 126.05H289.125C290.742 107.976 297.857 90.8314 309.513 76.9238L312.351 79.7608C313.852 81.2608 315.887 82.1029 318.009 82.1021C320.131 82.1013 322.166 81.2575 323.666 79.7563C325.166 78.2552 326.008 76.2197 326.007 74.0977C326.007 71.9756 325.163 69.9408 323.662 68.4408L320.826 65.6058C334.733 53.9496 351.878 46.8339 369.953 45.2168V49.2688C369.953 51.3906 370.795 53.4254 372.296 54.9257C373.796 56.426 375.831 57.2688 377.953 57.2688C380.074 57.2688 382.109 56.426 383.609 54.9257C385.11 53.4254 385.953 51.3906 385.953 49.2688V45.2178C404.027 46.8349 421.172 53.9506 435.08 65.6068L432.245 68.4408C430.744 69.9416 429.901 71.977 429.901 74.0993C429.901 76.2217 430.744 78.2571 432.245 79.7578C433.745 81.2586 435.781 82.1017 437.903 82.1017C440.025 82.1017 442.061 81.2586 443.562 79.7578L446.398 76.9218C458.054 90.8291 465.17 107.974 466.787 126.048H462.735C460.613 126.048 458.578 126.891 457.078 128.391C455.577 129.891 454.735 131.926 454.735 134.048C454.735 136.17 455.577 138.204 457.078 139.705C458.578 141.205 460.613 142.048 462.735 142.048L462.733 142.049ZM417.17 83.5188L385.52 115.169C380.667 113.204 375.24 113.204 370.388 115.169L349.217 93.9968C347.716 92.4964 345.682 91.6533 343.56 91.6531C341.438 91.6529 339.403 92.4956 337.903 93.9958C336.402 95.496 335.559 97.5308 335.559 99.6526C335.559 101.774 336.401 103.809 337.902 105.31L359.075 126.483C357.831 129.572 357.364 132.919 357.714 136.231C358.065 139.542 359.223 142.717 361.087 145.477C362.951 148.237 365.463 150.497 368.404 152.059C371.345 153.622 374.624 154.439 377.954 154.439C381.284 154.439 384.564 153.622 387.504 152.059C390.445 150.497 392.957 148.237 394.821 145.477C396.685 142.717 397.843 139.542 398.194 136.231C398.545 132.919 398.078 129.572 396.834 126.483L428.484 94.8318C429.227 94.089 429.816 93.207 430.218 92.2364C430.62 91.2658 430.827 90.2254 430.827 89.1748C430.827 88.1242 430.62 87.0839 430.218 86.1133C429.816 85.1427 429.227 84.2607 428.484 83.5178C427.741 82.7749 426.859 82.1857 425.888 81.7836C424.918 81.3816 423.877 81.1746 422.827 81.1746C421.776 81.1746 420.736 81.3816 419.765 81.7836C418.794 82.1857 417.913 82.7759 417.17 83.5188ZM377.954 138.4C377.093 138.4 376.251 138.145 375.535 137.666C374.819 137.188 374.261 136.508 373.932 135.712C373.602 134.917 373.516 134.042 373.684 133.197C373.852 132.353 374.267 131.577 374.876 130.968C375.485 130.36 376.261 129.945 377.105 129.777C377.949 129.61 378.825 129.696 379.62 130.025C380.416 130.355 381.095 130.913 381.574 131.629C382.052 132.345 382.307 133.187 382.307 134.048C382.305 135.202 381.846 136.308 381.03 137.124C380.214 137.94 379.108 138.399 377.954 138.4ZM415.525 182.263C415.525 184.385 414.682 186.419 413.181 187.92C411.681 189.42 409.646 190.263 407.525 190.263H348.384C346.262 190.263 344.227 189.42 342.727 187.92C341.226 186.419 340.384 184.385 340.384 182.263C340.384 180.141 341.226 178.106 342.727 176.606C344.227 175.106 346.262 174.263 348.384 174.263H407.525C409.646 174.263 411.681 175.106 413.181 176.606C414.682 178.106 415.525 180.141 415.525 182.263Z" fill="white"/>
</svg>
