<svg width="496" height="496" viewBox="0 0 496 496" fill="none" xmlns="http://www.w3.org/2000/svg">
<path d="M432 352.048V320C431.987 309.395 427.769 299.228 420.27 291.73C412.772 284.231 402.605 280.013 392 280H324.656C332.061 266.34 338.034 251.952 342.48 237.064L372.88 212.736C377.605 208.964 381.06 203.832 382.777 198.035C384.494 192.238 384.392 186.053 382.484 180.315C380.576 174.578 376.954 169.564 372.106 165.95C367.259 162.335 361.419 160.295 355.376 160.104L373.2 111.096C377.748 98.5889 379.214 85.1699 377.474 71.9758C375.735 58.7817 370.84 46.2013 363.206 35.3006C355.571 24.3999 345.422 15.5 333.617 9.35508C321.812 3.21012 308.7 0.00113574 295.392 8.42913e-06H227.472C176.65 -0.0126667 126.85 14.2699 83.76 41.216C82.4653 42.018 81.4265 43.1728 80.7655 44.5449C80.1045 45.9169 79.8489 47.4491 80.0287 48.9614C80.2085 50.4737 80.8162 51.9032 81.7805 53.082C82.7447 54.2608 84.0254 55.1399 85.472 55.616L104.76 62.016C107.415 62.9016 109.861 64.3202 111.947 66.1849C114.034 68.0495 115.718 70.3209 116.896 72.8596C118.073 75.3983 118.72 78.1508 118.795 80.9483C118.871 83.7458 118.375 86.5293 117.336 89.128C115.419 93.9188 114.539 99.0612 114.752 104.217C114.966 109.372 116.269 114.424 118.576 119.04L139.2 160.248C133.3 160.718 127.677 162.951 123.063 166.657C118.448 170.363 115.054 175.371 113.322 181.03C111.59 186.69 111.599 192.739 113.35 198.393C115.1 204.047 118.509 209.045 123.136 212.736L153.536 237.064C157.977 251.951 163.945 266.34 171.344 280H104C93.3952 280.013 83.2285 284.231 75.7298 291.73C68.2311 299.228 64.0127 309.395 64 320V352.048C45.066 359.958 28.8905 373.284 17.5042 390.355C6.11793 407.426 0.0283714 427.48 0 448V488C0 490.122 0.842854 492.157 2.34315 493.657C3.84344 495.157 5.87827 496 8 496H488C490.122 496 492.157 495.157 493.657 493.657C495.157 492.157 496 490.122 496 488V448C495.972 427.48 489.882 407.426 478.496 390.355C467.11 373.284 450.934 359.958 432 352.048ZM312 160H264C261.878 160 259.843 160.843 258.343 162.343C256.843 163.843 256 165.878 256 168V176H240V168C240 165.878 239.157 163.843 237.657 162.343C236.157 160.843 234.122 160 232 160H160V148.28L209.936 114.992C220.682 107.813 233.317 103.988 246.24 104C264.728 103.978 282.663 97.6863 297.112 86.152L310.184 75.696L323.904 96.288C331.803 108.108 336.013 122.008 336 136.224V160H312ZM304 176V200C304 202.122 303.157 204.157 301.657 205.657C300.157 207.157 298.122 208 296 208H280C277.878 208 275.843 207.157 274.343 205.657C272.843 204.157 272 202.122 272 200V176H304ZM224 176V200C224 202.122 223.157 204.157 221.657 205.657C220.157 207.157 218.122 208 216 208H200C197.878 208 195.843 207.157 194.343 205.657C192.843 204.157 192 202.122 192 200V176H224ZM368 189.6C368.004 191.641 367.547 193.656 366.663 195.496C365.78 197.336 364.492 198.952 362.896 200.224L348.392 211.824C350.506 199.995 351.67 188.015 351.872 176H354.4C358.007 176 361.466 177.433 364.017 179.983C366.567 182.534 368 185.993 368 189.6ZM132.184 95.072C134.032 90.4498 134.917 85.4987 134.783 80.5224C134.649 75.5462 133.501 70.6497 131.407 66.1333C129.313 61.617 126.319 57.5761 122.607 54.2584C118.896 50.9407 114.546 48.4163 109.824 46.84L107.376 46.04C144.331 26.3102 185.58 15.9926 227.472 16H295.392C306.126 16.002 316.701 18.5905 326.222 23.5463C335.743 28.502 343.929 35.6791 350.088 44.4698C356.247 53.2605 360.197 63.4058 361.603 74.0468C363.01 84.6878 361.832 95.511 358.168 105.6L351.216 124.72C349.478 111.362 344.688 98.5841 337.216 87.376L318.656 59.528C318.04 58.6056 317.239 57.8214 316.304 57.225C315.369 56.6287 314.32 56.2333 313.224 56.064C312.128 55.8986 311.011 55.9602 309.94 56.2451C308.869 56.5299 307.868 57.032 307 57.72L287.12 73.664C275.505 82.9256 261.095 87.9789 246.24 88C230.156 87.9854 214.431 92.7466 201.056 101.68L147.56 137.344C147.064 137.681 146.608 138.073 146.2 138.512L132.888 111.88C131.591 109.287 130.857 106.448 130.736 103.551C130.615 100.654 131.108 97.7645 132.184 95.072ZM133.112 200.24C130.904 198.482 129.297 196.081 128.515 193.369C127.733 190.657 127.814 187.769 128.747 185.105C129.68 182.442 131.418 180.134 133.721 178.502C136.024 176.871 138.778 175.996 141.6 176H144.112C144.313 188.02 145.477 200.005 147.592 211.84L133.112 200.24ZM160.128 176H176V200C176 206.365 178.529 212.47 183.029 216.971C187.53 221.471 193.635 224 200 224H216C222.365 224 228.47 221.471 232.971 216.971C237.471 212.47 240 206.365 240 200V192H256V200C256 206.365 258.529 212.47 263.029 216.971C267.53 221.471 273.635 224 280 224H296C302.365 224 308.47 221.471 312.971 216.971C317.471 212.47 320 206.365 320 200V176H335.872C335.251 212.668 325.014 248.53 306.184 280H189.816C170.986 248.53 160.749 212.668 160.128 176ZM104 296H392C398.365 296 404.47 298.529 408.971 303.029C413.471 307.53 416 313.635 416 320V480H80V320C80 313.635 82.5286 307.53 87.0294 303.029C91.5303 298.529 97.6348 296 104 296ZM16 448C16.0217 431.79 20.5139 415.9 28.9825 402.078C37.4511 388.256 49.5678 377.037 64 369.656V480H16V448ZM480 480H432V369.656C446.432 377.038 458.548 388.257 467.016 402.078C475.485 415.9 479.977 431.79 480 448V480Z" fill="white"/>
<path d="M247.998 456C254.327 456 260.514 454.123 265.777 450.607C271.039 447.091 275.14 442.093 277.562 436.246C279.984 430.398 280.618 423.964 279.383 417.757C278.149 411.549 275.101 405.848 270.626 401.372C266.15 396.897 260.449 393.849 254.241 392.615C248.034 391.38 241.6 392.014 235.752 394.436C229.905 396.858 224.907 400.959 221.391 406.221C217.875 411.484 215.998 417.671 215.998 424C215.998 432.487 219.37 440.626 225.371 446.627C231.372 452.628 239.511 456 247.998 456ZM247.998 408C251.163 408 254.256 408.938 256.887 410.696C259.519 412.454 261.569 414.953 262.78 417.877C263.991 420.8 264.308 424.018 263.691 427.121C263.073 430.225 261.55 433.076 259.312 435.313C257.074 437.551 254.223 439.075 251.12 439.692C248.016 440.31 244.799 439.993 241.875 438.782C238.952 437.571 236.453 435.52 234.695 432.889C232.937 430.258 231.998 427.164 231.998 424C231.998 419.756 233.684 415.687 236.685 412.686C239.685 409.685 243.755 408 247.998 408ZM194.342 381.656L205.654 370.344L179.31 344L205.654 317.656L194.342 306.344L162.342 338.344C160.843 339.844 160 341.878 160 344C160 346.121 160.843 348.156 162.342 349.656L194.342 381.656ZM301.654 381.656L333.654 349.656C335.154 348.156 335.997 346.121 335.997 344C335.997 341.878 335.154 339.844 333.654 338.344L301.654 306.344L290.342 317.656L316.686 344L290.342 370.344L301.654 381.656ZM217.598 371.192L265.598 307.2L278.398 316.8L230.39 380.8L217.598 371.192Z" fill="white"/>
</svg>
