<svg width="468" height="429" viewBox="0 0 468 429" fill="none" xmlns="http://www.w3.org/2000/svg">
<path d="M232.691 118.74C247.811 118.74 262.301 111.12 273.491 97.29C283.711 84.66 289.571 68.73 289.571 53.57C289.571 23.03 265.121 0 232.691 0C200.261 0 175.811 23 175.811 53.57C175.811 68.73 181.671 84.66 191.891 97.29C203.081 111.13 217.571 118.74 232.691 118.74ZM232.691 16.5C256.091 16.5 273.071 32.09 273.071 53.57C273.071 80.57 250.981 102.24 232.691 102.24C210.321 102.24 192.311 75.61 192.311 53.57C192.311 32.13 209.291 16.5 232.691 16.5ZM165.381 197.92L159.591 280.51C159.515 281.591 159.652 282.676 159.995 283.704C160.338 284.731 160.881 285.681 161.591 286.499C162.301 287.318 163.166 287.988 164.135 288.472C165.105 288.956 166.16 289.244 167.241 289.32H167.821C169.908 289.318 171.917 288.526 173.443 287.103C174.97 285.68 175.902 283.732 176.051 281.65L181.841 199.13C181.917 198.049 181.779 196.964 181.436 195.936C181.093 194.909 180.551 193.959 179.84 193.141C179.13 192.323 178.265 191.652 177.296 191.168C176.327 190.684 175.272 190.396 174.191 190.32C173.11 190.244 172.025 190.381 170.997 190.725C169.969 191.068 169.019 191.61 168.201 192.32C167.383 193.031 166.713 193.895 166.229 194.865C165.745 195.834 165.457 196.889 165.381 197.97V197.92Z" fill="white"/>
<path d="M344.579 289.31C346.818 289.112 348.886 288.034 350.331 286.313C351.777 284.592 352.481 282.369 352.289 280.13C352.289 280.13 343.569 217.6 342.289 196.62C339.919 158.95 316.909 128.73 280.959 123.23C268.319 121.29 245.359 119.83 233.359 119.82C216.978 120.104 200.623 121.235 184.359 123.21C167.498 125.518 152.055 133.89 140.919 146.76C129.219 160.27 123.989 177.54 122.919 196.66C121.719 217.66 113.769 280.22 113.769 280.22C113.635 281.304 113.718 282.405 114.013 283.457C114.308 284.509 114.809 285.493 115.487 286.35C116.165 287.207 117.007 287.92 117.963 288.45C118.919 288.979 119.971 289.312 121.057 289.432C122.143 289.551 123.242 289.453 124.291 289.144C125.339 288.835 126.315 288.321 127.163 287.631C128.011 286.942 128.713 286.09 129.229 285.127C129.745 284.164 130.065 283.108 130.169 282.02C130.169 282.02 138.239 218.78 139.389 197.57C141.029 167.51 158.819 143.35 186.609 139.57C202.12 137.686 217.717 136.605 233.339 136.33C244.519 136.33 266.709 137.75 278.449 139.55C291.357 141.504 303.159 147.957 311.769 157.77C320.929 168.29 324.899 182.42 325.769 197.62C327.039 218.86 335.899 282.11 335.899 282.11C336.22 284.162 337.279 286.026 338.877 287.351C340.476 288.677 342.504 289.374 344.579 289.31Z" fill="white"/>
<path d="M290.95 190.27C289.864 190.345 288.803 190.634 287.829 191.12C286.855 191.607 285.987 192.281 285.275 193.105C284.563 193.929 284.021 194.885 283.68 195.919C283.34 196.953 283.207 198.044 283.29 199.13L289.09 281.71C289.234 283.793 290.163 285.743 291.688 287.168C293.213 288.594 295.222 289.387 297.31 289.39H297.9C300.082 289.234 302.112 288.218 303.547 286.567C304.981 284.915 305.701 282.762 305.55 280.58L299.75 197.99C299.68 196.905 299.397 195.844 298.917 194.869C298.436 193.893 297.768 193.022 296.951 192.305C296.134 191.588 295.183 191.039 294.153 190.69C293.123 190.341 292.035 190.198 290.95 190.27ZM285.33 364.01L325.01 325.33C326.112 324.256 326.891 322.894 327.26 321.4C327.628 319.906 327.572 318.339 327.096 316.875C326.621 315.412 325.746 314.11 324.569 313.118C323.393 312.126 321.963 311.482 320.44 311.26L265.61 303.26L241.09 253.61C240.409 252.229 239.355 251.065 238.047 250.252C236.739 249.438 235.23 249.007 233.69 249.007C232.15 249.007 230.64 249.438 229.333 250.252C228.025 251.065 226.971 252.229 226.29 253.61L201.77 303.29L146.94 311.29C145.417 311.512 143.987 312.156 142.81 313.148C141.634 314.14 140.759 315.442 140.284 316.905C139.808 318.369 139.752 319.936 140.12 321.43C140.489 322.924 141.268 324.286 142.37 325.36L182.05 364.04L172.69 418.61C172.425 420.132 172.592 421.697 173.173 423.128C173.754 424.559 174.725 425.798 175.975 426.705C177.225 427.611 178.705 428.148 180.246 428.255C181.786 428.363 183.326 428.035 184.69 427.31L233.69 401.53L282.69 427.31C283.875 427.93 285.192 428.256 286.53 428.26C287.731 428.258 288.918 427.994 290.007 427.487C291.096 426.98 292.061 426.241 292.835 425.322C293.609 424.403 294.173 423.327 294.488 422.168C294.804 421.008 294.862 419.794 294.66 418.61L285.33 364.01ZM229.85 384.91C220.27 389.79 191.77 404.91 191.77 404.91L199.04 362.5C199.266 361.182 199.168 359.829 198.756 358.558C198.343 357.286 197.627 356.134 196.67 355.2L165.86 325.2L208.44 319.01C209.763 318.817 211.019 318.306 212.101 317.52C213.182 316.735 214.057 315.698 214.65 314.5L233.65 275.91L252.65 314.5C253.243 315.698 254.118 316.735 255.199 317.52C256.281 318.306 257.537 318.817 258.86 319.01L301.44 325.2L270.63 355.2C269.673 356.134 268.957 357.286 268.544 358.558C268.131 359.829 268.034 361.182 268.26 362.5L275.53 404.91C275.53 404.91 247.03 389.77 237.45 384.91C236.282 384.28 234.977 383.95 233.65 383.95C232.323 383.95 231.017 384.28 229.85 384.91ZM460.32 336.34L420.23 330.51L402.3 294.19C401.621 292.808 400.568 291.644 399.261 290.83C397.954 290.016 396.445 289.585 394.905 289.585C393.365 289.585 391.856 290.016 390.549 290.83C389.242 291.644 388.189 292.808 387.51 294.19L369.58 330.51L329.49 336.34C327.967 336.562 326.537 337.206 325.36 338.198C324.184 339.19 323.309 340.492 322.834 341.955C322.358 343.419 322.302 344.986 322.67 346.48C323.039 347.974 323.818 349.336 324.92 350.41L353.92 378.69L347.07 418.61C346.805 420.132 346.972 421.697 347.553 423.128C348.134 424.559 349.105 425.798 350.355 426.705C351.606 427.611 353.085 428.148 354.626 428.255C356.166 428.363 357.706 428.035 359.07 427.31L394.92 408.46L430.78 427.31C431.965 427.93 433.282 428.256 434.62 428.26C435.821 428.258 437.008 427.994 438.097 427.487C439.186 426.98 440.151 426.241 440.925 425.322C441.699 424.403 442.263 423.327 442.578 422.168C442.894 421.008 442.952 419.794 442.75 418.61L435.9 378.69L464.9 350.41C466.002 349.336 466.781 347.974 467.15 346.48C467.518 344.986 467.462 343.419 466.986 341.955C466.511 340.492 465.636 339.19 464.459 338.198C463.283 337.206 461.853 336.562 460.33 336.34H460.32ZM391.07 391.84C384.78 395 366.16 404.93 366.16 404.93L370.92 377.2C371.146 375.882 371.048 374.529 370.636 373.258C370.223 371.986 369.507 370.834 368.55 369.9L348.4 350.26L376.24 346.26C377.565 346.068 378.822 345.557 379.905 344.769C380.987 343.981 381.86 342.942 382.45 341.74L394.9 316.52L407.35 341.74C407.943 342.941 408.819 343.98 409.903 344.767C410.986 345.554 412.245 346.067 413.57 346.26L441.4 350.26L421.26 369.9C420.302 370.833 419.585 371.985 419.172 373.257C418.759 374.529 418.662 375.882 418.89 377.2L423.69 404.93C423.69 404.93 405.08 395 398.79 391.84C397.604 391.201 396.277 390.867 394.93 390.867C393.583 390.867 392.256 391.201 391.07 391.84ZM137.89 336.34L97.7999 330.51L79.8699 294.19C79.1907 292.808 78.1379 291.644 76.8308 290.83C75.5237 290.016 74.0147 289.585 72.4749 289.585C70.9351 289.585 69.4261 290.016 68.1191 290.83C66.812 291.644 65.7592 292.808 65.0799 294.19L47.1499 330.51L7.05994 336.34C5.53713 336.562 4.10676 337.206 2.93049 338.198C1.75421 339.19 0.878914 340.492 0.403518 341.955C-0.0718768 343.419 -0.12842 344.986 0.240278 346.48C0.608976 347.974 1.38822 349.336 2.48994 350.41L31.4899 378.69L24.6899 418.61C24.425 420.132 24.5925 421.697 25.1733 423.128C25.754 424.559 26.7248 425.798 27.9752 426.705C29.2255 427.611 30.7052 428.148 32.2458 428.255C33.7865 428.363 35.3263 428.035 36.6899 427.31L72.5499 408.46L108.4 427.31C109.585 427.93 110.902 428.256 112.24 428.26C113.441 428.258 114.628 427.994 115.717 427.487C116.806 426.98 117.771 426.241 118.545 425.322C119.319 424.403 119.883 423.327 120.198 422.168C120.514 421.008 120.572 419.794 120.37 418.61L113.52 378.69L142.52 350.41C143.622 349.336 144.401 347.974 144.77 346.48C145.138 344.986 145.082 343.419 144.606 341.955C144.131 340.492 143.256 339.19 142.079 338.198C140.903 337.206 139.473 336.562 137.95 336.34H137.89ZM68.6899 391.84L43.7399 404.93L48.4899 377.2C48.7177 375.882 48.621 374.529 48.208 373.257C47.7951 371.985 47.0784 370.833 46.1199 369.9L25.9799 350.26L53.8099 346.26C55.1352 346.067 56.3937 345.554 57.4772 344.767C58.5606 343.98 59.4367 342.941 60.0299 341.74L72.4799 316.52L84.9299 341.74C85.5195 342.942 86.3932 343.981 87.4753 344.769C88.5574 345.557 89.8153 346.068 91.1399 346.26L118.98 350.26L98.8299 369.9C97.8729 370.834 97.1572 371.986 96.7443 373.258C96.3315 374.529 96.2339 375.882 96.4599 377.2L101.22 404.93L76.3099 391.84C75.163 391.138 73.8445 390.767 72.4999 390.767C71.1553 390.767 69.8369 391.138 68.6899 391.84Z" fill="white"/>
</svg>
