<svg width="480" height="480" viewBox="0 0 480 480" fill="none" xmlns="http://www.w3.org/2000/svg">
<path d="M425.033 129.598C438.385 110.078 446.633 91.3184 437.657 82.3504C429.257 73.9424 414.457 80.6944 404.057 86.5104C402.206 87.5479 400.843 89.2783 400.267 91.321C399.692 93.3636 399.952 95.5511 400.989 97.4024C402.027 99.2536 403.757 100.617 405.8 101.192C407.842 101.768 410.03 101.508 411.881 100.47C416.091 97.8783 420.657 95.9136 425.433 94.6384C422.832 102.704 418.956 110.301 413.953 117.142C398.773 103.287 378.836 95.8166 358.288 96.286C337.741 96.7554 318.166 105.128 303.634 119.663C289.103 134.197 280.734 153.775 280.269 174.322C279.804 194.869 287.278 214.805 301.137 229.982C294.297 234.984 286.699 238.857 278.633 241.454C279.911 236.681 281.875 232.119 284.465 227.91C285.503 226.059 285.762 223.872 285.187 221.829C284.612 219.786 283.248 218.056 281.397 217.018C279.546 215.981 277.359 215.721 275.316 216.297C273.273 216.872 271.543 218.235 270.505 220.086C264.689 230.486 257.921 245.23 266.345 253.686C267.68 254.964 269.26 255.956 270.99 256.602C272.721 257.249 274.564 257.536 276.409 257.446C286.257 257.446 299.721 250.502 313.561 241.038C328.944 252.09 347.753 257.314 366.632 255.779C385.51 254.245 403.229 246.05 416.624 232.659C430.019 219.267 438.219 201.551 439.759 182.673C441.3 163.795 436.08 144.984 425.033 129.598ZM413.121 211.646C411.506 210.166 410.217 208.366 409.336 206.361C408.454 204.356 408 202.189 408.001 199.998C408.013 195.86 409.628 191.887 412.507 188.914C415.386 185.941 419.305 184.199 423.441 184.054C422.207 193.932 418.672 203.383 413.121 211.646ZM296.001 175.998C295.991 163.4 299.702 151.08 306.668 140.584C313.635 130.087 323.547 121.883 335.16 116.999C346.773 112.116 359.569 110.772 371.944 113.136C384.318 115.5 395.718 121.466 404.713 130.286C391.713 147.27 377.545 163.328 362.313 178.342C347.301 193.577 331.243 207.745 314.257 220.742C302.537 208.8 295.981 192.731 296.001 175.998ZM327.321 230.926C343.543 218.066 359.013 204.286 373.657 189.654C388.294 175.019 402.08 159.557 414.945 143.342C419.455 150.884 422.351 159.28 423.449 167.998C417.034 168.092 410.796 170.118 405.549 173.81C400.302 177.502 396.289 182.69 394.034 188.696C391.779 194.703 391.386 201.25 392.907 207.483C394.429 213.716 397.793 219.346 402.561 223.638C392.453 232.749 379.685 238.373 366.139 239.68C352.594 240.988 338.986 237.911 327.321 230.902V230.926Z" fill="white"/>
<path d="M328 143.998C323.253 143.998 318.613 145.406 314.666 148.043C310.72 150.68 307.643 154.428 305.827 158.814C304.01 163.199 303.535 168.025 304.461 172.68C305.387 177.336 307.673 181.612 311.029 184.969C314.386 188.325 318.662 190.611 323.318 191.537C327.973 192.463 332.799 191.988 337.184 190.171C341.57 188.355 345.318 185.279 347.955 181.332C350.592 177.385 352 172.745 352 167.998C352 161.633 349.471 155.529 344.971 151.028C340.47 146.527 334.365 143.998 328 143.998ZM328 175.998C326.418 175.998 324.871 175.529 323.555 174.65C322.24 173.771 321.214 172.522 320.609 171.06C320.003 169.598 319.845 167.989 320.154 166.438C320.462 164.886 321.224 163.46 322.343 162.341C323.462 161.223 324.887 160.461 326.439 160.152C327.991 159.843 329.6 160.002 331.061 160.607C332.523 161.213 333.773 162.238 334.652 163.554C335.531 164.869 336 166.416 336 167.998C336 170.12 335.157 172.155 333.657 173.655C332.157 175.155 330.122 175.998 328 175.998ZM322.344 61.6543C323.844 63.1541 325.879 63.9966 328 63.9966C330.121 63.9966 332.156 63.1541 333.656 61.6543L357.656 37.6543C359.156 36.1541 359.998 34.1196 359.998 31.9983C359.998 29.877 359.156 27.8425 357.656 26.3423L333.656 2.34229C332.156 0.842522 330.121 0 328 0C325.879 0 323.844 0.842522 322.344 2.34229L298.344 26.3423C296.844 27.8425 296.002 29.877 296.002 31.9983C296.002 34.1196 296.844 36.1541 298.344 37.6543L322.344 61.6543ZM328 19.3103L340.688 31.9983L328 44.6863L315.312 31.9983L328 19.3103ZM424 63.9983H472C473.486 63.9983 474.942 63.5846 476.206 62.8035C477.47 62.0224 478.491 60.9048 479.155 59.576C479.82 58.2471 480.101 56.7595 479.968 55.2798C479.834 53.8002 479.291 52.3868 478.4 51.1983L454.4 19.1983C453.622 18.2533 452.645 17.4923 451.539 16.9698C450.432 16.4473 449.224 16.1763 448 16.1763C446.776 16.1763 445.568 16.4473 444.461 16.9698C443.355 17.4923 442.378 18.2533 441.6 19.1983L417.6 51.1983C416.709 52.3868 416.166 53.8002 416.032 55.2798C415.899 56.7595 416.18 58.2471 416.845 59.576C417.509 60.9048 418.53 62.0224 419.794 62.8035C421.058 63.5846 422.514 63.9983 424 63.9983ZM448 37.3343L456 47.9983H440L448 37.3343ZM241.144 148.118C241.855 149.301 242.86 150.28 244.062 150.959C245.263 151.639 246.62 151.996 248 151.996C249.38 151.996 250.737 151.639 251.938 150.959C253.14 150.28 254.145 149.301 254.856 148.118L278.856 108.118C279.585 106.905 279.979 105.519 279.998 104.103C280.016 102.687 279.659 101.292 278.962 100.059C278.264 98.827 277.253 97.8016 276.03 97.0881C274.806 96.3746 273.416 95.9986 272 95.9983H224C222.584 95.9986 221.193 96.3746 219.97 97.0881C218.747 97.8016 217.736 98.827 217.038 100.059C216.341 101.292 215.984 102.687 216.002 104.103C216.021 105.519 216.415 106.905 217.144 108.118L241.144 148.118ZM257.864 111.998L248 128.454L238.136 111.998H257.864ZM456 239.998C451.253 239.998 446.613 241.406 442.666 244.043C438.72 246.68 435.643 250.428 433.827 254.814C432.01 259.199 431.535 264.025 432.461 268.68C433.387 273.336 435.673 277.612 439.029 280.969C442.386 284.325 446.662 286.611 451.318 287.537C455.973 288.463 460.799 287.988 465.184 286.171C469.57 284.355 473.318 281.279 475.955 277.332C478.592 273.385 480 268.745 480 263.998C480 257.633 477.471 251.529 472.971 247.028C468.47 242.527 462.365 239.998 456 239.998ZM456 271.998C454.418 271.998 452.871 271.529 451.555 270.65C450.24 269.771 449.214 268.522 448.609 267.06C448.003 265.598 447.845 263.989 448.154 262.438C448.462 260.886 449.224 259.46 450.343 258.341C451.462 257.223 452.887 256.461 454.439 256.152C455.991 255.843 457.6 256.002 459.061 256.607C460.523 257.213 461.773 258.238 462.652 259.554C463.531 260.869 464 262.416 464 263.998C464 266.12 463.157 268.155 461.657 269.655C460.157 271.155 458.122 271.998 456 271.998ZM208 463.998H64V378.758C64.0069 358.165 71.2246 338.225 84.4 322.398L92.056 313.206C95.2896 320.007 100.38 325.756 106.74 329.788C113.099 333.821 120.469 335.974 128 335.998C134.365 335.998 140.47 333.47 144.971 328.969C149.471 324.468 152 318.363 152 311.998V311.542L158.008 315.83C176.05 328.691 188.561 347.898 193.032 369.598C193.4 371.403 194.38 373.025 195.805 374.191C197.231 375.356 199.015 375.995 200.856 375.998C201.394 375.995 201.93 375.939 202.456 375.83C204.533 375.401 206.354 374.165 207.52 372.393C208.685 370.621 209.1 368.459 208.672 366.382C203.395 340.727 188.604 318.02 167.272 302.822L152 291.886V286.958L161.056 283.662C171.591 279.866 180.737 272.984 187.302 263.912C193.866 254.84 197.544 244 197.856 232.806L198.072 225.934L214.976 212.51C216.554 211.259 217.601 209.458 217.91 207.468C218.218 205.478 217.765 203.445 216.64 201.774L203.784 182.742C209.218 180.242 213.509 175.784 215.8 170.258C218.092 164.733 218.214 158.546 216.144 152.934L205.192 122.862C204.122 119.898 202.475 117.175 200.346 114.85C198.218 112.526 195.651 110.646 192.792 109.318C192.344 109.11 191.872 109.014 191.424 108.838L197.024 100.318C200.407 95.1131 202.537 89.1946 203.248 83.0275C203.959 76.8604 203.23 70.6125 201.12 64.7743L187.44 27.1743C186.973 25.8927 186.186 24.7517 185.154 23.8598C184.123 22.9679 182.88 22.3546 181.544 22.0783C180.209 21.8097 178.827 21.883 177.528 22.2914C176.229 22.6998 175.054 23.4301 174.112 24.4143L154.688 44.9103C152.16 47.5872 149.047 49.6434 145.592 50.9183L63.568 79.3583C45.0268 85.7826 28.6842 97.3268 16.432 112.654L8.776 122.254C3.11872 129.34 0.0256337 138.131 0 147.198V151.11C0.000366942 158.362 1.972 165.477 5.704 171.694L15.576 188.142C13.5209 191.07 12.1267 194.409 11.4899 197.929C10.8531 201.448 10.9889 205.064 11.888 208.526C12.7079 211.806 14.2113 214.875 16.2998 217.533C18.3883 220.191 21.0148 222.378 24.0071 223.95C26.9995 225.523 30.2903 226.445 33.6639 226.658C37.0376 226.87 40.4181 226.367 43.584 225.182L44.872 224.702L88 269.11V293.11L72.104 312.19C56.5488 330.888 48.0219 354.436 48 378.758V471.998C48 474.12 48.8429 476.155 50.3431 477.655C51.8434 479.155 53.8783 479.998 56 479.998H208C210.122 479.998 212.157 479.155 213.657 477.655C215.157 476.155 216 474.12 216 471.998C216 469.877 215.157 467.842 213.657 466.341C212.157 464.841 210.122 463.998 208 463.998ZM128 319.998C121.635 319.998 115.53 317.47 111.029 312.969C106.529 308.468 104 302.363 104 295.998V283.958C111.011 289.664 119.761 292.803 128.8 292.854C131.216 292.841 133.625 292.611 136 292.166V311.998C136 314.12 135.157 316.155 133.657 317.655C132.157 319.155 130.122 319.998 128 319.998ZM185.24 215.71C184.328 216.432 183.584 217.345 183.06 218.384C182.536 219.423 182.245 220.563 182.208 221.726L181.896 231.998H168C165.878 231.998 163.843 232.841 162.343 234.341C160.843 235.842 160 237.877 160 239.998C160 242.12 160.843 244.155 162.343 245.655C163.843 247.155 165.878 247.998 168 247.998H178.072C175.869 252.75 172.748 257.019 168.889 260.56C165.029 264.101 160.508 266.844 155.584 268.63L137.056 275.382C132.868 276.923 128.331 277.259 123.961 276.351C119.591 275.443 115.564 273.328 112.336 270.246L104.48 262.814L106.152 258.014C110.03 246.96 112.007 235.329 112 223.614V199.606L130.064 192.846C132.312 195.571 135.133 197.768 138.325 199.28C141.517 200.793 145.003 201.584 148.536 201.598C151.325 201.601 154.092 201.113 156.712 200.158L188.44 188.606L199.256 204.606L185.24 215.71ZM130.312 144.11C130.757 143.158 131.385 142.302 132.16 141.592C132.936 140.883 133.844 140.333 134.832 139.974L143.712 136.774C143.712 139.5 144.177 142.205 145.088 144.774L156 174.83C156.94 177.39 158.315 179.769 160.064 181.862L151.216 185.062C149.219 185.77 147.023 185.664 145.104 184.765C143.185 183.867 141.696 182.249 140.96 180.262L130.024 150.198C129.313 148.21 129.416 146.022 130.312 144.11ZM201.136 158.398C201.495 159.387 201.656 160.436 201.609 161.487C201.562 162.538 201.309 163.569 200.863 164.522C200.417 165.474 199.788 166.33 199.011 167.039C198.234 167.748 197.325 168.297 196.336 168.654L181.296 174.134C179.299 174.847 177.101 174.742 175.181 173.843C173.261 172.944 171.772 171.324 171.04 169.334L160.104 139.262C159.745 138.274 159.584 137.224 159.631 136.173C159.678 135.123 159.931 134.092 160.377 133.139C160.823 132.186 161.452 131.331 162.229 130.622C163.006 129.913 163.915 129.364 164.904 129.006L179.928 123.526C180.809 123.211 181.737 123.048 182.672 123.046C184.313 123.047 185.914 123.553 187.257 124.495C188.601 125.436 189.623 126.768 190.184 128.31L201.136 158.398ZM16 147.198C16.008 141.747 17.8636 136.459 21.264 132.198L28.928 122.598C39.2963 109.648 53.1204 99.898 68.8 94.4783L150.936 65.9983C156.766 63.8656 162.023 60.4129 166.296 55.9103L176.8 44.7983L186.056 70.2143C187.32 73.7178 187.756 77.4663 187.33 81.1664C186.904 84.8665 185.627 88.4178 183.6 91.5423L172 109.43L159.472 113.99H159.424L129.36 124.934C124.688 126.61 120.659 129.709 117.84 133.795C115.022 137.881 113.556 142.748 113.648 147.71L28.64 178.846L19.424 163.486C17.184 159.756 16.0004 155.486 16 151.134V147.198ZM31.456 209.798C30.3694 209.201 29.4285 208.37 28.701 207.366C27.9734 206.362 27.4772 205.209 27.248 203.99C26.7679 202.074 27.0138 200.048 27.9384 198.302C28.863 196.556 30.401 195.214 32.256 194.534L117.76 163.238L123.24 178.318L37.976 210.222C36.9231 210.622 35.7971 210.793 34.6729 210.724C33.5488 210.655 32.4522 210.348 31.456 209.822V209.798ZM96 205.598V223.678C96.0024 232.67 94.6237 241.609 91.912 250.182L61.232 218.606L96 205.598Z" fill="white"/>
<path d="M393.537 303.998H340.281L330.097 288.718C327.92 285.451 324.811 282.915 321.173 281.437C317.536 279.96 313.538 279.611 309.699 280.434C305.861 281.258 302.359 283.217 299.648 286.057C296.937 288.896 295.142 292.486 294.497 296.358L288.665 331.366L224.801 376.086C217.545 381.055 208.979 383.761 200.186 383.86C191.393 383.96 182.767 381.449 175.401 376.646L140.449 353.342C138.684 352.165 136.523 351.737 134.442 352.152C132.361 352.568 130.531 353.793 129.353 355.558C128.175 357.324 127.747 359.484 128.163 361.565C128.579 363.646 129.804 365.477 131.569 366.654L166.521 389.958C176.584 396.506 188.362 399.925 200.366 399.782C212.371 399.64 224.064 395.943 233.969 389.158L294.249 346.958L308.801 366.398L239.329 418.502C227.635 427.237 213.437 431.969 198.841 431.998C185.524 432.016 172.503 428.072 161.433 420.67L108.441 385.342C106.676 384.165 104.515 383.737 102.434 384.152C100.353 384.568 98.5226 385.793 97.345 387.558C96.1675 389.324 95.7394 391.484 96.155 393.565C96.5706 395.646 97.7957 397.477 99.561 398.654L152.553 433.982C166.251 443.141 182.363 448.02 198.841 447.998C216.895 447.963 234.458 442.108 248.921 431.302L323.505 375.366L348.961 368.966C352.689 368.047 356.333 366.819 359.857 365.294L402.401 347.11C407.158 345.072 411.065 341.454 413.462 336.867C415.859 332.281 416.599 327.007 415.557 321.938C414.514 316.869 411.754 312.316 407.742 309.047C403.73 305.778 398.712 303.995 393.537 303.998ZM396.089 332.406L353.537 350.63C350.802 351.806 347.977 352.761 345.089 353.486L323.209 358.95L304.457 333.934L310.281 298.982C310.453 298.311 310.81 297.702 311.31 297.222C311.81 296.742 312.434 296.412 313.112 296.268C313.79 296.124 314.494 296.173 315.146 296.408C315.798 296.643 316.371 297.055 316.801 297.598L329.361 316.446C330.091 317.538 331.079 318.433 332.237 319.053C333.395 319.672 334.688 319.997 336.001 319.998H393.537C395.027 319.996 396.473 320.508 397.629 321.449C398.785 322.389 399.58 323.7 399.88 325.16C400.181 326.62 399.967 328.139 399.276 329.459C398.585 330.78 397.459 331.821 396.089 332.406Z" fill="white"/>
</svg>
