<svg width="498" height="498" viewBox="0 0 498 498" fill="none" xmlns="http://www.w3.org/2000/svg">
<path fill-rule="evenodd" clip-rule="evenodd" d="M394.029 451.293C353.172 480.65 303.076 497.945 248.973 497.945C111.561 497.945 0 386.384 0 248.973C0 210.692 8.65983 174.417 24.1222 142.002C15.9112 134.937 10.7078 124.472 10.7078 112.801C10.7078 91.5476 27.9622 74.2932 49.2152 74.2932C55.7488 74.2932 61.9048 75.9236 67.2979 78.7998C74.2027 71.4318 81.5464 64.4877 89.2888 58.0056C87.7887 54.3581 87.0192 50.4516 87.0239 46.5077C87.0239 29.8125 100.579 16.2575 117.274 16.2575C125.835 16.2575 133.569 19.8204 139.073 25.5428C172.227 9.1909 209.535 0 248.973 0C386.384 0 497.945 111.561 497.945 248.973C497.945 304.537 479.704 355.873 448.889 397.318C455.224 404.182 459.097 413.353 459.097 423.421C459.097 444.674 441.842 461.928 420.589 461.928C410.296 461.928 400.941 457.882 394.029 451.293ZM38.2394 149.72C25.093 177.555 17.3036 208.406 16.1993 240.941H65.4276C69.5226 145.927 145.927 69.5226 240.941 65.4276V16.1993C207.244 17.3427 175.352 25.6582 146.747 39.669C147.256 41.8675 147.525 44.1565 147.525 46.5077C147.525 63.2039 133.97 76.7588 117.274 76.7588C110.731 76.7677 104.364 74.6451 99.1353 70.7122C92.278 76.4833 85.7572 82.6428 79.605 89.1603C84.8769 95.9118 87.7352 104.235 87.7237 112.801C87.7237 134.054 70.4683 151.309 49.2152 151.309C45.4991 151.312 41.802 150.777 38.2394 149.72ZM16.1993 257.004C20.4378 381.838 123.114 481.882 248.973 481.882C299.712 481.882 346.683 465.623 384.955 438.034C383.052 433.398 382.075 428.433 382.082 423.421C382.07 415.289 384.645 407.365 389.435 400.794L373.053 384.411C340.355 414.387 296.784 432.69 248.973 432.69C150.267 432.69 69.638 354.68 65.4276 257.004H16.1993ZM435.779 388.03C463.242 351.214 480.081 306.019 481.746 257.004H432.518C430.593 301.654 412.7 342.195 384.411 373.053L401.395 390.037C407.231 386.671 413.852 384.903 420.589 384.913C425.812 384.906 430.981 385.967 435.779 388.03ZM481.746 240.941C479.769 182.72 456.381 129.891 419.215 90.0889L384.411 124.892C412.7 155.75 430.593 196.291 432.518 240.941H481.746ZM407.856 78.7305C368.054 41.5644 315.225 18.176 257.004 16.1993V65.4276C301.654 67.3521 342.195 85.245 373.053 113.535L407.856 78.7305ZM248.973 81.3177C156.441 81.3177 81.3177 156.441 81.3177 248.973C81.3177 341.504 156.441 416.627 248.973 416.627C341.504 416.627 416.627 341.504 416.627 248.973C416.627 156.441 341.504 81.3177 248.973 81.3177ZM204.027 229.585H235.492C237.622 229.585 239.665 230.431 241.171 231.937C242.677 233.443 243.523 235.486 243.523 237.616V351.089C243.523 353.22 242.677 355.262 241.171 356.768C239.665 358.275 237.622 359.121 235.492 359.121H204.027C201.897 359.121 199.854 358.275 198.348 356.768C196.842 355.262 195.996 353.22 195.996 351.089V237.616C195.996 235.486 196.842 233.443 198.348 231.937C199.854 230.431 201.897 229.585 204.027 229.585ZM212.058 245.648V343.058H227.461V245.648H212.058ZM182.922 216.413C183.885 218.953 184.414 221.704 184.414 224.574C184.414 237.296 174.045 247.646 161.324 247.646C148.602 247.646 138.234 237.296 138.234 224.574C138.234 211.857 148.605 201.484 161.324 201.484C165.319 201.484 169.082 202.508 172.366 204.306L198.163 181.835C197.173 179.231 196.667 176.468 196.669 173.682C196.669 160.956 207.053 150.583 219.75 150.583C232.474 150.583 242.85 160.959 242.85 173.682C242.85 174.485 242.808 175.279 242.727 176.061L262.339 185.733C266.481 181.814 272.066 179.407 278.195 179.407C281.455 179.407 284.561 180.087 287.377 181.315L315.853 151.591C314.328 148.454 313.537 145.011 313.541 141.523C313.541 128.796 323.895 118.423 336.622 118.423C349.346 118.423 359.721 128.799 359.721 141.523C359.721 154.247 349.346 164.622 336.622 164.622C333.361 164.622 330.256 163.941 327.441 162.715L298.964 192.439C300.489 195.575 301.28 199.018 301.276 202.506C301.276 215.207 290.924 225.587 278.195 225.587C265.468 225.587 255.095 215.204 255.095 202.506C255.095 201.704 255.137 200.911 255.217 200.13L235.592 190.451C231.451 194.359 225.873 196.764 219.75 196.764C215.762 196.764 212.002 195.74 208.72 193.942L182.922 216.413ZM161.324 231.584C165.192 231.584 168.352 228.442 168.352 224.574C168.352 220.704 165.194 217.547 161.324 217.547C157.453 217.547 154.297 220.704 154.297 224.574C154.297 228.442 157.456 231.584 161.324 231.584ZM219.75 180.701C223.624 180.701 226.787 177.547 226.787 173.682C226.787 169.806 223.627 166.646 219.75 166.646C215.886 166.646 212.732 169.809 212.732 173.682C212.732 177.545 215.888 180.701 219.75 180.701ZM278.195 209.524C282.065 209.524 285.213 206.368 285.213 202.506C285.213 198.633 282.068 195.47 278.195 195.47C274.319 195.47 271.158 198.63 271.158 202.506C271.158 206.371 274.322 209.524 278.195 209.524ZM336.622 148.559C340.498 148.559 343.658 145.399 343.658 141.523C343.658 137.647 340.498 134.485 336.622 134.485C332.749 134.485 329.604 137.65 329.604 141.523C329.604 145.396 332.749 148.559 336.622 148.559ZM320.9 188.294H352.363C354.493 188.294 356.536 189.14 358.042 190.646C359.549 192.152 360.395 194.195 360.395 196.325V351.089C360.395 353.22 359.549 355.262 358.042 356.768C356.536 358.275 354.493 359.121 352.363 359.121H320.9C318.769 359.121 316.727 358.275 315.22 356.768C313.714 355.262 312.868 353.22 312.868 351.089V196.325C312.868 194.195 313.714 192.152 315.22 190.646C316.727 189.14 318.769 188.294 320.9 188.294ZM328.931 204.356V343.058H344.332V204.356H328.931ZM262.453 251.039H293.918C296.048 251.039 298.091 251.885 299.597 253.391C301.103 254.897 301.949 256.94 301.949 259.07V351.089C301.949 353.22 301.103 355.262 299.597 356.768C298.091 358.275 296.048 359.121 293.918 359.121H262.453C260.323 359.121 258.28 358.275 256.774 356.768C255.268 355.262 254.422 353.22 254.422 351.089V259.07C254.422 256.94 255.268 254.897 256.774 253.391C258.28 251.885 260.323 251.039 262.453 251.039ZM270.485 267.101V343.058H285.887V267.101H270.485ZM145.582 282.687H177.067C179.197 282.687 181.24 283.533 182.746 285.04C184.252 286.546 185.098 288.589 185.098 290.719V351.089C185.098 353.22 184.252 355.262 182.746 356.768C181.24 358.275 179.197 359.121 177.067 359.121H145.582C143.452 359.121 141.409 358.275 139.903 356.768C138.396 355.262 137.55 353.22 137.55 351.089V290.719C137.55 288.589 138.396 286.546 139.903 285.04C141.409 283.533 143.452 282.687 145.582 282.687ZM153.613 298.75V343.058H169.035V298.75H153.613ZM420.589 400.975C408.202 400.975 398.144 411.033 398.144 423.421C398.144 435.808 408.202 445.866 420.589 445.866C432.977 445.866 443.035 435.808 443.035 423.421C443.035 411.033 432.977 400.975 420.589 400.975ZM49.2152 90.356C36.8279 90.356 26.7706 100.413 26.7706 112.801C26.7706 125.189 36.8279 135.246 49.2152 135.246C61.6036 135.246 71.6609 125.189 71.6609 112.801C71.6609 100.413 61.6036 90.356 49.2152 90.356ZM117.274 32.3203C109.445 32.3203 103.087 38.6771 103.087 46.5077C103.087 54.3383 109.445 60.6961 117.274 60.6961C125.105 60.6961 131.463 54.3383 131.463 46.5077C131.463 38.6771 125.105 32.3203 117.274 32.3203Z" fill="white"/>
</svg>
