<svg width="512" height="512" viewBox="0 0 512 512" fill="none" xmlns="http://www.w3.org/2000/svg">
<g clip-path="url(#clip0_790_60)">
<path d="M508.897 328.921C501.139 312.63 482.521 304.873 466.23 314.182L345.212 393.309C341.333 395.636 340.558 400.291 342.885 404.17C345.212 408.048 349.867 408.824 353.745 406.497L473.988 327.37C480.97 323.491 490.279 325.818 494.933 335.127C498.812 344.436 495.709 356.073 487.176 360.727C342.885 455.37 384.776 428.994 288.582 488.727C276.945 495.709 262.982 497.26 250.57 493.382L146.618 456.145C145.842 456.145 145.067 455.37 143.515 455.37L108.606 457.697V314.182C126.448 309.527 182.303 298.667 207.127 330.473C211.782 335.903 218.764 339.782 226.521 339.782H315.733C324.267 339.782 331.249 348.315 331.249 358.4C331.249 368.485 324.267 377.018 315.733 377.018H230.4C221.867 377.018 214.109 381.673 209.455 390.206C204.8 398.739 205.576 409.6 211.006 418.133C213.333 422.012 217.988 422.012 221.867 419.685C225.745 417.357 225.745 411.927 223.418 408.824C221.091 404.945 221.091 400.291 222.642 397.188C223.418 396.412 225.745 392.533 229.624 392.533H314.958C332.024 392.533 345.988 377.018 345.988 358.4C345.988 339.782 332.024 324.267 314.958 324.267H226.521C224.97 324.267 221.091 323.491 218.764 321.164C190.836 283.927 131.879 293.236 108.606 297.891V281.6C108.606 276.945 105.503 273.842 100.848 273.842H7.75758C3.10303 273.842 0 276.945 0 281.6V484.073C0 488.727 3.10303 491.83 7.75758 491.83H100.848C105.503 491.83 108.606 488.727 108.606 484.073V473.212L142.739 471.66L245.139 508.121C262.206 514.327 280.824 512 297.115 501.915C404.945 433.648 343.661 473.988 495.709 373.915C510.449 366.157 515.879 345.212 508.897 328.921ZM93.0909 477.091H15.5152V290.133H93.0909V477.091Z" fill="white"/>
<path d="M22.4974 165.236L45.7702 168.339C48.0974 178.424 51.9762 186.958 57.4065 195.491L43.4429 214.109C41.1156 217.212 41.1156 221.867 44.2187 224.194L63.6126 243.588C66.7156 246.691 70.5944 246.691 73.6974 244.364L92.3156 230.4C100.849 235.83 110.158 239.709 119.467 242.036L122.57 265.309C123.346 269.188 126.449 272.291 130.328 272.291H157.479C161.358 272.291 164.461 269.188 165.237 265.309L168.34 242.036C175.322 240.485 182.304 237.382 188.51 234.279V279.273C188.51 283.927 191.613 287.03 196.267 287.03H484.073C488.728 287.03 491.831 283.927 491.831 279.273V7.75758C491.831 3.10303 488.728 0 484.073 0H196.267C191.613 0 188.51 3.10303 188.51 7.75758V53.5273C182.304 50.4242 175.322 48.097 168.34 45.7697L165.237 22.497C164.461 18.6182 161.358 15.5152 157.479 15.5152H130.328C126.449 15.5152 123.346 18.6182 122.57 22.497L119.467 45.7697C109.382 48.097 100.849 51.9758 92.3156 57.4061L72.9217 43.4424C69.8187 41.1152 65.9399 41.1152 62.8368 43.4424L44.2187 62.8364C41.1156 65.9394 41.1156 69.8182 43.4429 72.9212L57.4065 91.5394C51.9762 100.073 48.0974 109.382 45.7702 118.691L22.4974 121.794C18.6187 122.57 15.5156 125.673 15.5156 129.552V156.703C16.2914 161.358 18.6187 164.461 22.4974 165.236ZM204.025 271.515V235.83L214.11 243.588C215.661 244.364 217.213 245.139 218.764 245.139C221.091 245.139 223.419 244.364 224.97 242.812L243.588 224.194C246.691 221.091 246.691 217.212 244.364 214.109L230.4 195.491C235.831 186.958 239.71 177.648 242.037 168.339L265.31 165.236C269.188 164.461 272.291 161.358 272.291 157.479V130.327C272.291 126.448 269.188 123.345 265.31 122.57L242.037 119.467C239.71 109.382 235.831 100.848 230.4 92.3152L235.831 85.3333H290.91V139.636C290.91 142.739 293.237 145.842 295.564 146.618C298.667 147.394 301.77 146.618 304.097 144.291L340.558 103.952L377.019 144.291C379.346 146.618 382.449 147.394 385.552 146.618C388.655 145.842 390.207 142.739 390.207 139.636V85.3333H476.316V271.515H204.025ZM305.649 77.5758C305.649 76.8 305.649 76.8 305.649 77.5758V15.5152H373.916V119.467L345.213 87.6606C343.661 86.1091 341.334 85.3333 339.782 85.3333C337.455 85.3333 335.128 86.1091 334.352 87.6606L305.649 119.467V77.5758ZM475.54 69.0424H389.431V15.5152H475.54V69.0424ZM290.134 15.5152V69.8182H245.14C245.14 67.4909 244.364 64.3879 242.813 62.8364L224.194 44.2182C221.091 41.1152 217.213 41.1152 214.11 43.4424L204.025 51.2V15.5152H290.134ZM31.8065 136.533L53.5277 133.43C56.6308 132.655 59.7338 130.327 60.5096 127.224C62.0611 116.364 66.7156 105.503 73.6974 96.1939C75.249 93.0909 75.249 89.9879 73.6974 86.8848L59.7338 69.0424L69.0429 59.7333L86.1096 72.9212C88.4368 75.2485 93.0914 75.2485 95.4187 72.9212C105.504 66.7152 116.364 62.0606 128 59.7333C131.104 58.9576 133.431 56.6303 134.207 52.7515L137.31 31.0303H150.497L153.6 52.7515C154.376 55.8545 156.704 58.9576 159.807 59.7333C171.443 62.0606 182.304 66.7152 191.613 72.9212C194.716 75.2485 198.594 74.4727 200.922 72.9212L218.764 59.7333L228.073 69.0424L214.885 86.8848C212.558 89.2121 212.558 93.0909 214.885 96.1939C221.091 105.503 225.746 116.364 228.073 128C228.849 131.103 231.176 133.43 235.055 134.206L256.776 137.309V150.497L235.055 153.6C231.952 154.376 228.849 156.703 228.073 159.806C225.746 171.442 221.091 182.303 214.885 191.612C213.334 194.715 213.334 197.818 214.885 200.921L228.073 218.764L218.764 228.073L200.922 214.885C198.594 212.558 194.716 212.558 191.613 214.885C182.304 221.091 171.443 225.745 159.807 228.073C156.704 228.848 154.376 231.176 153.6 235.055L150.497 256H137.31L134.207 234.279C133.431 231.176 131.104 228.073 128 227.297C116.364 224.97 105.504 220.315 96.1944 214.109C93.0914 212.558 89.9884 212.558 86.8853 214.109L69.0429 227.297L59.7338 217.988L72.9217 200.921C75.249 198.594 75.249 193.939 72.9217 190.836C66.7156 181.527 62.0611 170.667 60.5096 159.806C59.7338 156.703 57.4065 154.376 53.5277 153.6L31.8065 150.497V136.533Z" fill="white"/>
<path d="M143.514 205.576C177.647 205.576 205.574 177.649 205.574 143.515C205.574 109.382 177.647 81.4546 143.514 81.4546C109.38 81.4546 81.4531 109.382 81.4531 143.515C81.4531 177.649 109.38 205.576 143.514 205.576ZM143.514 96.9697C169.114 96.9697 190.059 117.915 190.059 143.515C190.059 169.115 169.114 190.061 143.514 190.061C117.914 190.061 96.9683 169.115 96.9683 143.515C96.9683 117.915 117.914 96.9697 143.514 96.9697Z" fill="white"/>
</g>
<defs>
<clipPath id="clip0_790_60">
<rect width="512" height="512" fill="white"/>
</clipPath>
</defs>
</svg>
