<svg width="989" height="989" viewBox="0 0 989 989" fill="none" xmlns="http://www.w3.org/2000/svg">
<path d="M543.738 330.094V322.041L518.707 323.76C511.619 324.207 506.297 325.714 502.718 328.258C499.139 330.824 497.349 334.38 497.349 338.925C497.349 343.352 499.115 346.884 502.671 349.497C506.203 352.135 510.96 353.43 516.894 353.43C520.685 353.43 524.24 352.841 527.514 351.687C530.787 350.534 533.659 348.909 536.061 346.837C538.463 344.788 540.347 342.339 541.689 339.49C543.055 336.64 543.738 333.509 543.738 330.094ZM494.5 5.89062C221.842 5.89062 5.88672 221.846 5.88672 494.504C5.88672 767.185 221.842 983.117 494.5 983.117C767.158 983.117 983.113 767.185 983.113 494.504C983.113 221.846 767.181 5.89062 494.5 5.89062ZM589.35 295.503C591.657 289.027 594.907 283.47 599.122 278.855C603.337 274.239 608.4 270.684 614.334 268.188C620.268 265.692 626.885 264.443 634.161 264.443C640.731 264.443 646.665 265.432 651.939 267.387C657.237 269.341 661.759 271.979 665.55 275.299C669.341 278.619 672.355 282.481 674.568 286.908C676.782 291.335 678.101 296.021 678.548 300.942H658.933C658.438 298.234 657.544 295.691 656.272 293.36C655 291.029 653.328 289.004 651.256 287.285C649.161 285.566 646.712 284.223 643.909 283.258C641.084 282.269 637.928 281.798 634.373 281.798C630.205 281.798 626.414 282.646 623.046 284.318C619.655 285.99 616.759 288.368 614.357 291.429C611.955 294.49 610.095 298.234 608.776 302.614C607.434 307.018 606.775 311.892 606.775 317.261C606.775 322.818 607.434 327.81 608.776 332.19C610.095 336.593 611.979 340.29 614.428 343.328C616.853 346.366 619.797 348.697 623.211 350.298C626.625 351.899 630.393 352.724 634.49 352.724C641.201 352.724 646.665 351.146 650.903 347.99C655.142 344.835 657.873 340.22 659.145 334.144H678.783C678.218 339.513 676.735 344.411 674.333 348.838C671.931 353.265 668.823 357.033 665.008 360.165C661.17 363.296 656.672 365.722 651.492 367.417C646.311 369.113 640.613 369.984 634.42 369.984C627.073 369.984 620.456 368.759 614.498 366.334C608.564 363.909 603.455 360.4 599.216 355.855C594.978 351.311 591.704 345.777 589.397 339.254C587.089 332.732 585.935 325.408 585.935 317.237C585.888 309.255 587.042 302.002 589.35 295.503ZM310.24 265.786H329.878V283.234H330.255C331.456 280.338 333.034 277.724 334.965 275.464C336.896 273.18 339.109 271.249 341.652 269.624C344.172 267.999 346.974 266.775 349.988 265.927C353.026 265.079 356.228 264.655 359.572 264.655C366.778 264.655 372.876 266.374 377.821 269.812C382.79 273.25 386.322 278.195 388.394 284.647H388.889C390.207 281.539 391.95 278.76 394.093 276.311C396.236 273.863 398.708 271.743 401.487 270.001C404.265 268.258 407.327 266.94 410.647 266.021C413.967 265.103 417.452 264.655 421.125 264.655C426.188 264.655 430.78 265.456 434.924 267.081C439.069 268.706 442.601 270.966 445.544 273.91C448.488 276.853 450.748 280.432 452.326 284.624C453.904 288.815 454.704 293.478 454.704 298.611V368.807H434.218V303.533C434.218 296.774 432.475 291.523 428.99 287.826C425.529 284.129 420.56 282.269 414.108 282.269C410.953 282.269 408.056 282.834 405.419 283.941C402.805 285.048 400.521 286.602 398.637 288.603C396.73 290.581 395.247 292.983 394.187 295.762C393.104 298.54 392.562 301.578 392.562 304.875V368.807H372.358V301.837C372.358 298.87 371.887 296.186 370.969 293.784C370.051 291.382 368.756 289.333 367.037 287.614C365.341 285.895 363.245 284.6 360.82 283.682C358.371 282.764 355.64 282.293 352.602 282.293C349.446 282.293 346.527 282.881 343.819 284.059C341.134 285.236 338.827 286.861 336.896 288.933C334.965 291.029 333.458 293.478 332.398 296.327C331.362 299.153 329.666 302.261 329.666 305.605V368.783H310.24V265.786ZM354.815 758.849C264.746 758.849 208.255 696.26 208.255 596.371C208.255 496.482 264.746 433.68 354.815 433.68C444.885 433.68 501.164 496.482 501.164 596.371C501.164 696.236 444.885 758.849 354.815 758.849ZM521.58 368.548C518.259 369.395 514.868 369.819 511.383 369.819C506.25 369.819 501.564 369.089 497.302 367.629C493.016 366.169 489.366 364.121 486.305 361.46C483.244 358.799 480.842 355.596 479.147 351.829C477.428 348.061 476.58 343.87 476.58 339.254C476.58 330.212 479.947 323.148 486.682 318.061C493.417 312.975 503.165 310.008 515.952 309.184L543.738 307.583V299.624C543.738 293.69 541.854 289.145 538.086 286.06C534.319 282.975 528.997 281.421 522.098 281.421C519.319 281.421 516.705 281.775 514.303 282.457C511.901 283.164 509.782 284.153 507.945 285.448C506.109 286.743 504.578 288.297 503.401 290.11C502.2 291.9 501.376 293.925 500.928 296.139H481.666C481.784 291.594 482.914 287.379 485.034 283.517C487.153 279.655 490.026 276.311 493.676 273.462C497.326 270.613 501.588 268.399 506.533 266.822C511.478 265.244 516.846 264.443 522.663 264.443C528.926 264.443 534.601 265.221 539.688 266.822C544.774 268.423 549.13 270.66 552.733 273.604C556.336 276.547 559.114 280.079 561.069 284.223C563.023 288.368 564.012 293.007 564.012 298.117V368.783H544.397V351.617H543.903C542.443 354.395 540.606 356.915 538.369 359.152C536.108 361.389 533.589 363.32 530.787 364.898C527.961 366.475 524.9 367.7 521.58 368.548ZM651.162 758.849C582.474 758.849 535.779 722.869 532.529 666.378H577.246C580.731 698.662 611.932 720.043 654.671 720.043C695.667 720.043 725.125 698.662 725.125 669.439C725.125 644.149 707.229 628.866 665.809 618.411L625.448 608.38C567.427 593.992 541.053 567.596 541.053 524.197C541.053 470.768 587.725 433.68 654.247 433.68C719.238 433.68 764.591 470.98 766.333 524.621H722.064C719.003 492.337 692.629 472.487 653.352 472.487C614.31 472.487 587.277 492.549 587.277 521.56C587.277 544.448 604.279 557.988 645.723 568.443L679.749 576.944C744.528 592.65 771.137 618.176 771.137 663.976C771.114 722.421 724.89 758.849 651.162 758.849ZM354.815 473.782C293.097 473.782 254.502 521.113 254.502 596.347C254.502 671.37 293.097 718.701 354.815 718.701C416.322 718.701 455.128 671.37 455.128 596.347C455.152 521.113 416.322 473.782 354.815 473.782Z" fill="#1BA2D7"/>
</svg>
