<svg width="40" height="64" viewBox="0 0 40 64" fill="none" xmlns="http://www.w3.org/2000/svg">
<path d="M31.076 35.448C29.8911 35.4486 28.7201 35.7023 27.6412 36.1921C26.5623 36.6819 25.6004 37.3964 24.82 38.288L20.9 35.512C21.316 34.366 21.556 33.136 21.556 31.848C21.5532 30.6192 21.3387 29.4 20.922 28.244L24.834 25.498C25.6142 26.3858 26.5746 27.0973 27.6512 27.5849C28.7279 28.0725 29.8961 28.3252 31.078 28.326C33.2897 28.3218 35.4095 27.4413 36.9734 25.8774C38.5373 24.3135 39.4178 22.1937 39.422 19.982C39.4178 17.7703 38.5373 15.6505 36.9734 14.0866C35.4095 12.5227 33.2897 11.6422 31.078 11.638C28.8663 11.6422 26.7465 12.5227 25.1826 14.0866C23.6187 15.6505 22.7382 17.7703 22.734 19.982C22.734 20.806 22.858 21.582 23.082 22.352L19.168 25.1C17.532 23.072 15.178 21.654 12.496 21.22V16.5C14.368 16.1031 16.0472 15.0759 17.2531 13.5901C18.4591 12.1042 19.1188 10.2496 19.122 8.336C19.1157 6.12537 18.234 4.00725 16.6699 2.44503C15.1058 0.882816 12.9866 0.00369292 10.776 0C8.56433 0.00422882 6.44446 0.884684 4.88057 2.44857C3.31668 4.01246 2.43623 6.13233 2.432 8.344C2.432 12.304 5.206 15.618 8.912 16.47V21.27C3.856 22.134 0 26.546 0 31.85C0 37.18 3.894 41.61 8.986 42.466V47.512C5.246 48.312 2.434 51.672 2.434 55.656C2.43823 57.8673 3.31841 59.9869 4.88186 61.5507C6.44532 63.1146 8.56468 63.9952 10.776 64C12.9877 63.9958 15.1075 63.1153 16.6714 61.5514C18.2353 59.9875 19.1158 57.8677 19.12 55.656C19.12 51.67 16.31 48.336 12.568 47.512V42.466C15.198 42.026 17.508 40.634 19.128 38.652L23.074 41.446C22.8483 42.2076 22.7332 42.9977 22.732 43.792C22.7362 46.0037 23.6167 48.1235 25.1806 49.6874C26.7445 51.2513 28.8643 52.1318 31.076 52.136C33.2877 52.1318 35.4075 51.2513 36.9714 49.6874C38.5353 48.1235 39.4158 46.0037 39.42 43.792C39.4158 41.5803 38.5353 39.4605 36.9714 37.8966C35.4075 36.3327 33.2877 35.4522 31.076 35.448ZM31.076 15.94C33.306 15.94 35.12 17.756 35.12 19.986C35.12 22.216 33.306 24.03 31.076 24.03C28.846 24.03 27.032 22.216 27.032 19.986C27.032 17.756 28.846 15.94 31.076 15.94ZM6.732 8.344C6.732 6.114 8.546 4.3 10.778 4.3C13.01 4.3 14.822 6.114 14.822 8.344C14.822 10.574 13.008 12.388 10.778 12.388C8.548 12.388 6.732 10.574 6.732 8.344ZM14.82 55.66C14.82 57.89 13.006 59.704 10.776 59.704C8.546 59.704 6.73 57.89 6.73 55.66C6.73 53.43 8.544 51.616 10.776 51.616C13.008 51.616 14.82 53.43 14.82 55.66ZM10.774 37.496C7.662 37.496 5.134 34.966 5.134 31.856C5.134 28.746 7.664 26.216 10.774 26.216C13.884 26.216 16.414 28.746 16.414 31.856C16.414 34.966 13.884 37.496 10.774 37.496ZM31.074 47.84C28.844 47.84 27.03 46.024 27.03 43.794C27.03 41.564 28.844 39.75 31.074 39.75C33.304 39.75 35.118 41.564 35.118 43.794C35.118 46.024 33.304 47.84 31.074 47.84Z" fill="black"/>
</svg>
