<svg width="1280" height="204" viewBox="0 0 1280 204" fill="none" xmlns="http://www.w3.org/2000/svg">
<g clip-path="url(#clip0_1455_94)">
<path d="M112.093 32.3681C118.356 24.7977 122.793 14.4909 122.793 4.0519C122.804 2.6938 122.673 1.33827 122.4 0.0078125C112.222 0.400883 99.9533 6.79206 92.6475 15.4056C86.9064 21.929 81.5546 32.3681 81.5546 42.8109C81.5599 44.0394 81.6916 45.2642 81.9476 46.4657C82.851 46.6368 83.7683 46.7241 84.6878 46.7265C93.8229 46.7265 105.305 40.5923 112.093 32.3719V32.3681ZM119.27 48.9413C104.001 48.9413 91.6043 58.2049 83.6446 58.2049C75.1634 58.2049 64.0705 49.4629 50.759 49.4629C25.576 49.4629 0 70.341 0 109.622C0 134.154 9.3959 159.991 21.1389 176.697C31.1886 190.791 39.9307 202.405 52.5883 202.405C65.1174 202.405 70.5977 194.052 86.124 194.052C101.915 194.052 105.437 202.144 119.27 202.144C132.971 202.144 142.106 189.615 150.72 177.218C160.377 162.996 164.421 149.163 164.553 148.509C163.771 148.248 137.541 137.548 137.541 107.535C137.541 81.5662 158.158 69.9517 159.333 69.0408C145.761 49.4667 125.012 48.9451 119.27 48.9451V48.9413ZM249.331 200.969H281.563L348.638 12.6654H317.189L265.772 168.473H265.118L213.706 12.6654H182.256L249.331 200.969Z" fill="url(#paint0_linear_1455_94)"/>
<path d="M377.998 42.5394C387.261 42.5394 394.438 35.2336 394.438 26.3593C394.438 17.3565 387.261 10.0469 377.998 10.0469C368.862 10.0469 361.557 17.3527 361.557 26.3593C361.557 35.2336 368.862 42.5394 377.998 42.5394ZM363.904 200.958H392.091V63.6783H363.904V200.958Z" fill="url(#paint1_linear_1455_94)"/>
<path d="M467.432 203.706C499.796 203.706 523.282 186.479 523.282 161.424V161.292C523.282 141.585 512.582 130.496 484.527 123.969L462.213 118.878C447.465 115.356 441.856 109.615 441.856 101.129V101.001C441.856 90.0404 451.381 82.863 466.521 82.863C482.441 82.863 491.837 91.2158 493.534 103.22L493.666 104.134H520.157L520.024 102.569C518.588 79.212 499.014 61.0703 466.521 61.0703C434.943 61.0703 413.54 77.9043 413.54 102.437V102.569C413.54 122.537 426.458 135.062 452.556 141.064L475.003 146.155C489.75 149.677 494.709 154.768 494.709 163.643V163.771C494.709 174.864 484.531 181.909 467.564 181.909C450.209 181.909 440.813 174.471 438.201 161.814L437.941 160.51H410.014L410.146 161.685C413.018 186.739 433.114 203.706 467.432 203.706Z" fill="url(#paint2_linear_1455_94)"/>
<path d="M558.432 42.5394C567.696 42.5394 574.873 35.2336 574.873 26.3593C574.873 17.3565 567.696 10.0469 558.432 10.0469C549.297 10.0469 541.991 17.3527 541.991 26.3593C541.991 35.2336 549.297 42.5394 558.432 42.5394ZM544.338 200.958H572.526V63.6783H544.338V200.958Z" fill="url(#paint3_linear_1455_94)"/>
<path d="M657.429 203.708C696.71 203.708 722.546 176.563 722.546 132.328V132.067C722.546 88.092 696.449 61.076 657.301 61.076C618.285 61.076 592.315 88.2205 592.315 132.067V132.328C592.315 176.435 618.02 203.708 657.429 203.708ZM657.561 180.089C635.508 180.089 621.153 162.734 621.153 132.328V132.067C621.153 102.054 635.636 84.698 657.301 84.698C679.354 84.698 693.709 102.054 693.709 132.067V132.328C693.709 162.602 679.615 180.089 657.561 180.089ZM739.244 200.968H767.432V120.974C767.432 99.5742 780.222 85.2196 800.057 85.2196C819.631 85.2196 829.288 96.8341 829.288 117.451V200.968H857.604V112.1C857.604 80.5216 840.248 61.076 810.103 61.076C789.353 61.076 775.26 70.4719 768.082 84.4334H767.428V63.6839H739.241L739.244 200.968ZM925.477 200.968H954.708V136.632H995.553C1032.48 136.632 1058.06 111.446 1058.06 74.6483V74.3875C1058.06 37.4577 1032.48 12.6641 995.553 12.6641H925.477V200.968ZM988.243 37.3292C1013.69 37.3292 1028.31 51.03 1028.31 74.5197V74.7805C1028.31 98.3988 1013.69 112.103 988.243 112.103H954.708V37.3255L988.243 37.3292ZM1075.1 200.968H1103.29V119.145C1103.29 98.6558 1114.51 86.7805 1132.66 86.7805C1138.14 86.7805 1143.09 87.4344 1145.31 88.3452V62.1154C1143.09 61.7223 1139.57 61.0722 1135.53 61.0722C1119.87 61.0722 1108.38 71.122 1103.95 87.1698H1103.3V63.6801H1075.11L1075.1 200.968ZM1214.88 203.708C1254.16 203.708 1280 176.563 1280 132.328V132.067C1280 88.092 1253.9 61.076 1214.75 61.076C1175.74 61.076 1149.77 88.2205 1149.77 132.067V132.328C1149.77 176.435 1175.48 203.708 1214.89 203.708H1214.88ZM1215.01 180.089C1192.96 180.089 1178.6 162.734 1178.6 132.328V132.067C1178.6 102.054 1193.09 84.698 1214.75 84.698C1236.8 84.698 1251.16 102.054 1251.16 132.067V132.328C1251.16 162.602 1237.06 180.089 1215.01 180.089Z" fill="url(#paint4_linear_1455_94)"/>
</g>
<defs>
<linearGradient id="paint0_linear_1455_94" x1="0" y1="101.206" x2="348.638" y2="101.206" gradientUnits="userSpaceOnUse">
<stop stop-color="#868686"/>
<stop offset="1" stop-color="#202020"/>
</linearGradient>
<linearGradient id="paint1_linear_1455_94" x1="361.557" y1="105.503" x2="394.438" y2="105.503" gradientUnits="userSpaceOnUse">
<stop stop-color="#868686"/>
<stop offset="1" stop-color="#202020"/>
</linearGradient>
<linearGradient id="paint2_linear_1455_94" x1="410.014" y1="132.388" x2="523.282" y2="132.388" gradientUnits="userSpaceOnUse">
<stop stop-color="#868686"/>
<stop offset="1" stop-color="#202020"/>
</linearGradient>
<linearGradient id="paint3_linear_1455_94" x1="541.991" y1="105.503" x2="574.873" y2="105.503" gradientUnits="userSpaceOnUse">
<stop stop-color="#868686"/>
<stop offset="1" stop-color="#202020"/>
</linearGradient>
<linearGradient id="paint4_linear_1455_94" x1="592.315" y1="108.186" x2="1280" y2="108.186" gradientUnits="userSpaceOnUse">
<stop stop-color="#868686"/>
<stop offset="1" stop-color="#202020"/>
</linearGradient>
<clipPath id="clip0_1455_94">
<rect width="1280" height="203.702" fill="white"/>
</clipPath>
</defs>
</svg>
