<svg width="624" height="320" viewBox="0 0 624 320" fill="none" xmlns="http://www.w3.org/2000/svg">
<path d="M89.0148 68.6005C89.0148 72.4875 89.4351 75.6391 90.1704 77.9503C91.0109 80.2615 92.0614 82.7828 93.5322 85.5142C94.0574 86.3547 94.2676 87.1951 94.2676 87.9305C94.2676 88.981 93.6372 90.0316 92.2715 91.0821L85.6531 95.4944C84.7076 96.1247 83.7621 96.4399 82.9217 96.4399C81.8711 96.4399 80.8206 95.9146 79.7701 94.9691C78.2993 93.3933 77.0386 91.7125 75.9881 90.0316C74.9376 88.2457 73.887 86.2496 72.7314 83.8334C64.5372 93.4984 54.2418 98.3309 41.8454 98.3309C33.0209 98.3309 25.9822 95.8096 20.8346 90.767C15.6869 85.7244 13.0605 79.0009 13.0605 70.5965C13.0605 61.6669 16.2122 54.4182 22.6205 48.9553C29.0288 43.4925 37.5382 40.7611 48.3588 40.7611C51.9307 40.7611 55.6076 41.0763 59.4946 41.6015C63.3816 42.1268 67.3736 42.9672 71.5758 43.9127V36.2438C71.5758 28.2596 69.8949 22.6917 66.6383 19.4351C63.2765 16.1784 57.6036 14.6026 49.5144 14.6026C45.8375 14.6026 42.0555 15.0228 38.1685 15.9683C34.2815 16.9137 30.4996 18.0693 26.8227 19.5401C25.1418 20.2755 23.8811 20.6957 23.1458 20.9058C22.4104 21.1159 21.8851 21.221 21.4649 21.221C19.9941 21.221 19.2588 20.1704 19.2588 17.9643V12.8166C19.2588 11.1358 19.4689 9.87511 19.9941 9.13973C20.5194 8.40435 21.4649 7.66897 22.9357 6.93359C26.6126 5.04261 31.0248 3.46679 36.1725 2.20614C41.3202 0.840435 46.783 0.210109 52.561 0.210109C65.0624 0.210109 74.2022 3.04658 80.0852 8.71951C85.8632 14.3924 88.8047 23.0069 88.8047 34.5629V68.6005H89.0148ZM46.3628 84.5688C49.8296 84.5688 53.4014 83.9384 57.1834 82.6778C60.9653 81.4171 64.3271 79.1059 67.1635 75.9543C68.8444 73.9583 70.1051 71.7521 70.7354 69.2308C71.3657 66.7095 71.7859 63.6629 71.7859 60.0911V55.6788C68.7394 54.9434 65.4827 54.3131 62.1209 53.8929C58.7592 53.4727 55.5025 53.2626 52.2458 53.2626C45.2072 53.2626 40.0595 54.6283 36.5927 57.4647C33.1259 60.3012 31.4451 64.2933 31.4451 69.546C31.4451 74.4835 32.7057 78.1604 35.3321 80.6817C37.8534 83.3081 41.5303 84.5688 46.3628 84.5688ZM130.721 95.9146C128.83 95.9146 127.57 95.5995 126.729 94.8641C125.889 94.2338 125.154 92.763 124.523 90.767L99.8354 9.55995C99.2051 7.45886 98.8899 6.09315 98.8899 5.35777C98.8899 3.6769 99.7304 2.73141 101.411 2.73141H111.707C113.703 2.73141 115.068 3.04658 115.804 3.78196C116.644 4.41228 117.274 5.88304 117.905 7.87908L135.554 77.4251L151.942 7.87908C152.468 5.77799 153.098 4.41228 153.938 3.78196C154.779 3.15163 156.25 2.73141 158.141 2.73141H166.545C168.541 2.73141 169.907 3.04658 170.747 3.78196C171.588 4.41228 172.323 5.88304 172.743 7.87908L189.342 78.2655L207.516 7.87908C208.146 5.77799 208.882 4.41228 209.617 3.78196C210.458 3.15163 211.823 2.73141 213.714 2.73141H223.484C225.165 2.73141 226.111 3.57185 226.111 5.35777C226.111 5.88304 226.006 6.40832 225.901 7.03864C225.796 7.66897 225.585 8.5094 225.165 9.665L199.847 90.872C199.217 92.9731 198.481 94.3388 197.641 94.9691C196.801 95.5995 195.435 96.0197 193.649 96.0197H184.614C182.618 96.0197 181.253 95.7045 180.412 94.9691C179.572 94.2338 178.836 92.8681 178.416 90.767L162.133 23.0069L145.954 90.6619C145.429 92.763 144.799 94.1287 143.958 94.8641C143.118 95.5995 141.647 95.9146 139.756 95.9146H130.721ZM265.716 98.7511C260.253 98.7511 254.791 98.1208 249.538 96.8601C244.285 95.5995 240.188 94.2338 237.457 92.6579C235.776 91.7125 234.62 90.6619 234.2 89.7164C233.78 88.7709 233.57 87.7204 233.57 86.7749V81.4171C233.57 79.211 234.41 78.1604 235.986 78.1604C236.616 78.1604 237.247 78.2655 237.877 78.4756C238.507 78.6857 239.453 79.1059 240.503 79.5262C244.075 81.102 247.962 82.3626 252.059 83.2031C256.261 84.0435 260.358 84.4637 264.561 84.4637C271.179 84.4637 276.327 83.3081 279.899 80.9969C283.47 78.6857 285.361 75.324 285.361 71.0167C285.361 68.0752 284.416 65.659 282.525 63.6629C280.634 61.6669 277.062 59.881 271.914 58.2001L256.682 53.4727C249.013 51.0564 243.34 47.4846 239.873 42.7571C236.406 38.1347 234.62 32.9871 234.62 27.5242C234.62 23.112 235.566 19.2249 237.457 15.8632C239.348 12.5015 241.869 9.55995 245.021 7.24875C248.172 4.8325 251.744 3.04658 255.946 1.78592C260.148 0.525272 264.561 0 269.183 0C271.494 0 273.91 0.105054 276.222 0.420217C278.638 0.73538 280.844 1.1556 283.05 1.57582C285.151 2.10109 287.147 2.62636 289.038 3.25668C290.929 3.88701 292.4 4.51734 293.451 5.14766C294.921 5.9881 295.972 6.82853 296.602 7.77402C297.233 8.61446 297.548 9.77005 297.548 11.2408V16.1784C297.548 18.3845 296.707 19.5401 295.131 19.5401C294.291 19.5401 292.925 19.1199 291.139 18.2795C285.151 15.548 278.428 14.1823 270.969 14.1823C264.981 14.1823 260.253 15.1278 256.997 17.1239C253.74 19.1199 252.059 22.1665 252.059 26.4737C252.059 29.4152 253.11 31.9365 255.211 33.9326C257.312 35.9286 261.199 37.9246 266.767 39.7105L281.684 44.438C289.248 46.8542 294.711 50.216 297.968 54.5232C301.225 58.8304 302.8 63.768 302.8 69.2308C302.8 73.7482 301.855 77.8453 300.069 81.4171C298.178 84.989 295.657 88.1406 292.4 90.6619C289.143 93.2883 285.256 95.1792 280.739 96.545C276.012 98.0157 271.074 98.7511 265.716 98.7511Z" fill="#252F3E"/>
<path fill-rule="evenodd" clip-rule="evenodd" d="M285.571 149.806C251.008 175.334 200.792 188.886 157.615 188.886C97.1038 188.886 42.5806 166.51 1.39934 129.32C-1.85734 126.379 1.08418 122.387 4.97119 124.698C49.5142 150.541 104.458 166.195 161.292 166.195C199.637 166.195 241.764 158.21 280.529 141.822C286.307 139.196 291.244 145.604 285.571 149.806Z" fill="#FF9900"/>
<path fill-rule="evenodd" clip-rule="evenodd" d="M299.964 133.419C295.552 127.746 270.759 130.688 259.518 132.053C256.157 132.474 255.631 129.532 258.678 127.326C278.428 113.459 310.89 117.451 314.672 122.073C318.454 126.801 313.621 159.262 295.132 174.81C292.295 177.227 289.564 175.966 290.825 172.814C295.027 162.414 304.377 138.987 299.964 133.419Z" fill="#FF9900"/>
<path d="M443.442 305.354C486.61 297.728 522.265 291.418 522.674 291.331L523.419 291.173L482.664 242.696C460.248 216.034 441.909 194.116 441.909 193.99C441.909 193.75 483.992 77.8628 484.228 77.4502C484.307 77.3127 512.946 126.757 553.65 197.306C591.759 263.356 623.177 317.814 623.469 318.324L624 319.252L494.477 319.235L364.954 319.219L443.442 305.354ZM288 290.571C288 290.502 307.204 257.166 330.675 216.491L373.349 142.535L423.082 100.8C450.434 77.8452 472.888 59.0361 472.978 59.0009C473.068 58.9675 472.708 59.8732 472.178 61.0143C471.648 62.1555 447.347 114.279 418.176 176.844L365.137 290.598L326.568 290.646C305.356 290.673 288 290.639 288 290.571Z" fill="#0089D6"/>
</svg>
