<svg width="406" height="282" viewBox="0 0 406 282" fill="none" xmlns="http://www.w3.org/2000/svg">
<path d="M229.471 111H271.471ZM179.471 111H221.471ZM130.471 111H172.471ZM81.4707 111H122.471ZM31.4707 111H73.4707ZM81.4707 65H122.471ZM130.471 65H172.471ZM179.471 65H221.471ZM179.471 19H221.471Z" fill="black"/>
<path d="M229.471 111H271.471M179.471 111H221.471M130.471 111H172.471M81.4707 111H122.471M31.4707 111H73.4707M81.4707 65H122.471M130.471 65H172.471M179.471 65H221.471M179.471 19H221.471" stroke="#066DA5" stroke-width="38"/>
<path d="M405.471 113C405.471 113 387.471 96 350.471 102C346.471 73 315.471 56 315.471 56C315.471 56 286.471 91 307.471 130C301.471 133 291.471 137 276.471 137H1.47123C-3.52877 156 -3.52876 282 134.471 282C233.471 282 307.471 236 342.471 152C394.471 156 405.471 113 405.471 113Z" fill="#066DA5"/>
</svg>
