<svg width="602" height="381" viewBox="0 0 602 381" fill="none" xmlns="http://www.w3.org/2000/svg">
<path d="M602 326.293C287.269 367.43 62.6302 416.839 59.3071 214.033C59.3071 214.033 66.1748 135.452 162.544 130.504C162.544 130.504 165.793 60.7106 239.417 52.8081C278.998 48.5246 323.97 89.2925 328.844 132.202C328.844 132.202 426.247 114.182 430.456 209.159C431.933 242.246 424.475 298.523 330.543 296.086C330.543 296.086 276.192 288.701 268.808 204.654C253.522 367.356 488.721 357.903 492.117 210.119C493.594 146.235 452.684 80.5037 360.524 92.8375C310.014 -34.2668 175.54 -26.9551 125.473 90.9173C53.9164 90.9173 -0.803377 146.013 0.00892678 217.948C2.74122 449.483 324.931 379.69 602 326.293Z" fill="#24339B"/>
</svg>
