<svg width="64" height="48" viewBox="0 0 64 48" fill="none" xmlns="http://www.w3.org/2000/svg">
<path d="M7.40316 30.1063L7.08716 30.9663L6.48116 30.7443L6.79716 29.8843L7.40316 30.1063ZM7.08716 30.9663L6.61716 32.2463L6.00016 32.0263L6.47016 30.7463L7.08716 30.9663ZM6.61716 32.2463L6.54116 32.3633L6.31416 32.1353L6.61716 32.2463ZM6.54116 32.3633L5.50816 33.3863L5.05416 32.9293L6.08716 31.9063L6.54116 32.3633ZM5.50816 33.3863L4.59216 34.2933L4.13816 33.8363L5.05416 32.9293L5.50816 33.3863ZM4.59216 34.2933L4.36216 34.5173L3.91516 34.0503L4.13516 33.8363L4.59216 34.2933ZM4.36216 34.5173C3.94916 34.9153 3.86716 34.9943 3.98616 35.7053L3.35016 35.8113C3.17516 34.7633 3.29716 34.6453 3.91616 34.0513L4.36216 34.5173ZM3.98616 35.7053C4.0881 36.3077 4.28559 36.8901 4.57116 37.4303L3.99816 37.7303C3.68157 37.1287 3.46283 36.4816 3.35016 35.8113L3.98616 35.7053ZM4.57116 37.4303C4.84816 37.9583 5.21816 38.4703 5.68916 38.9423L5.23216 39.3963C4.7395 38.9061 4.3235 38.3444 3.99816 37.7303L4.57116 37.4303ZM5.70016 38.9423C6.30316 39.5473 7.28716 40.2963 8.31216 40.6853L8.08516 41.2893C6.96516 40.8643 5.88516 40.0513 5.24316 39.3973L5.70016 38.9423ZM8.30016 40.6853C9.01316 40.9553 9.74016 41.0493 10.3462 40.7803L10.6062 41.3803C9.82316 41.7273 8.93016 41.6233 8.07316 41.2973L8.30016 40.6853ZM10.3462 40.7803L10.9702 40.5043L10.7882 41.1613L10.4762 41.0753L10.3462 40.7803ZM10.7882 41.1613L10.5032 42.0553L9.90316 41.8353L10.1732 40.9883L10.7882 41.1613ZM10.5032 42.0553L10.1562 42.9053L9.56816 42.6373L9.89416 41.8353L10.5032 42.0553ZM10.1562 42.9053C9.61016 44.1023 10.1822 44.7333 11.0692 45.1373L10.8012 45.7253C9.60116 45.1783 8.80116 44.3083 9.57116 42.6423L10.1562 42.9053ZM11.0692 45.1373C11.6362 45.3953 12.3222 45.5743 12.9692 45.7403L12.8072 46.3643C12.1372 46.1903 11.4072 46.0023 10.8112 45.7263L11.0692 45.1373ZM12.9692 45.7403L13.4192 45.8583L13.2552 46.4823L12.8092 46.3643L12.9692 45.7403ZM13.4192 45.8583C14.1892 46.0663 15.5162 46.4583 16.7112 46.5233L16.6712 47.1693C15.4192 47.0893 14.0492 46.6963 13.2552 46.4823L13.4192 45.8583ZM16.7112 46.5233C17.7912 46.5913 18.7532 46.4103 18.9762 45.5833L19.6002 45.7473C19.2702 46.9743 18.0382 47.2473 16.6712 47.1693L16.7112 46.5233ZM18.9762 45.5833C19.0801 45.2236 19.152 44.8556 19.1912 44.4833L19.8372 44.5363C19.8072 44.9003 19.7312 45.2733 19.6002 45.7593L18.9762 45.5833ZM19.1912 44.4833C19.2212 44.1463 19.2082 43.8193 19.1662 43.4033L19.8062 43.3433C19.8535 43.7391 19.8645 44.1385 19.8372 44.5363L19.1912 44.4833ZM19.1662 43.4033L19.1912 43.2413L19.4862 43.3713L19.1662 43.4033ZM19.1912 43.2413C19.6262 42.2713 19.8052 42.0083 20.1212 41.5453L20.6542 41.9093C20.3612 42.3373 20.1962 42.5793 19.7822 43.5043L19.1912 43.2413ZM20.1212 41.5453L20.2612 41.3373L20.7962 41.6973L20.6522 41.8973L20.1212 41.5453ZM20.2612 41.3373C20.5082 40.9713 20.6212 40.7373 20.6582 40.4743L21.2982 40.5623C21.2462 40.9243 21.1032 41.2453 20.7982 41.6983L20.2612 41.3373ZM20.6582 40.4743C20.6962 40.2083 20.6582 39.8923 20.6002 39.4073L21.2402 39.3343C21.3032 39.8663 21.3452 40.2143 21.2952 40.5643L20.6582 40.4743ZM20.6002 39.4073L20.5622 39.1023L21.2022 39.0223L21.2422 39.3353L20.6002 39.4073ZM20.5622 39.1023L20.5162 38.7823L21.1562 38.6893L21.2022 39.0193L20.5622 39.1023ZM20.5162 38.7823L20.4532 38.3523L20.8832 38.4173L20.8352 38.7373L20.5162 38.7823ZM20.8832 38.4163C21.7783 38.5511 22.6819 38.6216 23.5872 38.6273L23.5842 39.2733C22.6478 39.2672 21.7131 39.1941 20.7872 39.0543L20.8832 38.4163ZM23.5872 38.6163C24.4841 38.6211 25.3803 38.5669 26.2702 38.4543L26.3462 39.0943C25.4212 39.2093 24.5042 39.2673 23.5842 39.2613L23.5872 38.6163ZM26.2702 38.4543L26.4702 39.0543L26.3082 38.7743L26.2702 38.4543ZM26.4702 39.0543L24.7632 39.9673L24.4682 39.3913L26.1482 38.4933L26.4702 39.0543ZM24.7632 39.9673L24.6152 40.0433L24.3202 39.4673L24.4682 39.3913L24.7632 39.9673ZM24.6152 40.0433C23.9322 40.3933 23.9152 41.1313 24.1672 41.9033L23.5512 42.0953C23.2212 41.0383 23.2662 40.0103 24.3202 39.4673L24.6152 40.0433ZM24.1672 41.9033C24.4412 42.7793 25.0222 43.7013 25.3872 44.2633L24.8472 44.6133C24.4632 44.0213 23.8502 43.0483 23.5522 42.0933L24.1672 41.9033ZM25.3872 44.2633C26.1502 45.4393 26.8702 46.4303 27.6872 46.9373L27.3512 47.4873C26.4162 46.9143 25.6452 45.8603 24.8362 44.6143L25.3872 44.2633ZM27.6872 46.9373C28.4672 47.4173 29.3812 47.4603 30.5912 46.8073L30.8972 47.3773C29.4512 48.1593 28.3322 48.0893 27.3522 47.4773L27.6872 46.9373ZM30.5912 46.8073C31.1632 46.5073 31.3552 46.1623 31.6132 45.7093L32.1762 46.0273C31.8642 46.5743 31.6332 46.9803 30.8972 47.3773L30.5912 46.8073ZM31.6132 45.7093L31.9932 45.0853L32.5282 45.4433L32.1762 46.0273L31.6132 45.7093ZM31.9932 45.0853L32.1052 44.9803L32.2602 45.2643L31.9932 45.0853ZM32.1052 44.9803C32.3052 44.8763 33.1002 44.2103 33.8852 43.5633L34.2972 44.0603L32.4172 45.5483L32.1052 44.9803ZM33.8852 43.5633L34.8932 42.7333L35.2992 43.2383L34.2972 44.0603L33.8852 43.5633ZM34.8932 42.7333L35.1412 42.5333L35.3452 42.7783L35.0952 42.9853L34.8932 42.7333ZM35.3452 42.7783C35.4752 42.9333 35.6782 43.0283 35.9452 43.0953L35.7952 43.7253C35.3822 43.6253 35.0652 43.4673 34.8372 43.1953L35.3452 42.7783ZM35.9452 43.0953C36.2632 43.1713 36.6812 43.2083 37.1872 43.2453L37.1412 43.8913C36.6112 43.8533 36.1672 43.8143 35.7952 43.7253L35.9452 43.0953ZM37.1872 43.2453C37.5842 43.2753 38.8522 43.2733 39.6712 43.2733V43.9193C38.8342 43.9193 37.5392 43.9203 37.1412 43.8913L37.1872 43.2453ZM39.6712 43.2733L40.2762 43.2743L40.2732 43.9203L39.6712 43.9193V43.2733ZM40.2762 43.2743C41.0392 43.2793 41.6442 43.2443 42.0442 43.0183L42.3622 43.5813C41.8352 43.8813 41.1372 43.9253 40.2742 43.9213L40.2772 43.2753L40.2762 43.2743ZM42.0442 43.0183C42.4092 42.8113 42.6282 42.4043 42.6842 41.6423L43.3302 41.6883C43.2582 42.6883 42.9252 43.2633 42.3632 43.5823L42.0442 43.0183ZM42.6842 41.6423C42.7122 41.2423 42.7192 41.0173 42.6742 40.8173L43.3042 40.6773C43.3662 40.9603 43.3612 41.2373 43.3292 41.6773L42.6842 41.6423ZM42.6742 40.8173C42.6302 40.6173 42.5262 40.4093 42.3342 40.0673L42.9002 39.7513C43.1202 40.1453 43.2422 40.3943 43.3042 40.6773L42.6742 40.8173ZM42.3342 40.0673L42.2942 39.9173L42.6172 39.9093L42.3342 40.0673ZM42.2942 39.9173L42.2572 38.5253L42.9032 38.5103L42.9402 39.9023L42.2942 39.9173ZM42.2572 38.5253L42.2202 37.1253L42.8662 37.1103L42.9032 38.5103L42.2572 38.5253ZM42.2202 37.1253C42.2145 36.6917 42.1588 36.2601 42.0542 35.8393L42.6802 35.6823C42.7964 36.1496 42.8588 36.6287 42.8662 37.1103L42.2202 37.1253ZM42.0542 35.8393C41.9542 35.4393 41.8072 35.0563 41.6072 34.5793L42.2032 34.3293L42.6802 35.6823L42.0542 35.8393ZM41.6072 34.5793L41.2272 33.5963L41.8332 33.3743L42.2032 34.3293L41.6072 34.5793ZM41.2262 33.5973L40.5992 32.0973L41.1772 31.7973C41.4532 32.3423 41.6402 32.8453 41.8322 33.3633L41.2262 33.5973ZM40.5992 32.0973L40.5692 31.8973L40.8872 31.9533L40.5992 32.0973ZM40.5692 31.8973L40.6492 31.3973L41.2892 31.4773L41.2092 32.0073L40.5692 31.8973ZM40.6492 31.3973L40.7052 30.8773L41.3512 30.9303L41.2882 31.4783L40.6492 31.3973ZM40.7052 30.8773L40.7652 30.2013L41.2522 30.6713L41.0282 30.9053L40.7052 30.8773ZM41.2512 30.6703L42.2012 31.5853L41.7542 32.0523L40.8042 31.1373L41.2512 30.6703ZM42.2012 31.5853L42.9012 32.2693L42.4542 32.7363L41.7542 32.0523L42.2012 31.5853ZM42.9012 32.2693C43.4132 32.7633 43.8812 33.2113 44.4012 33.5193L44.0732 34.0773C43.4912 33.7343 42.9962 33.2593 42.4532 32.7373L42.9012 32.2693ZM44.4012 33.5193C44.9415 33.8427 45.5679 33.9928 46.1962 33.9493L46.2262 34.5953C45.4721 34.6457 44.7205 34.4646 44.0722 34.0763L44.4012 33.5193ZM46.1962 33.9493C46.9962 33.9123 47.8392 33.5733 48.5492 33.0493L48.9332 33.5693C48.1252 34.1653 47.1322 34.5523 46.2262 34.5953L46.1962 33.9493ZM48.5492 33.0493C49.2262 32.5493 49.7662 31.8873 49.9852 31.1663L50.6052 31.3533C50.3432 32.2133 49.7052 32.9933 48.9352 33.5693L48.5492 33.0493ZM49.9852 31.1663L50.2122 30.4193L50.8322 30.6063L50.6052 31.3533L49.9852 31.1663ZM50.2122 30.4193L50.4762 29.5493L51.0962 29.7363L50.8322 30.6063L50.2122 30.4193ZM50.4762 29.5493L50.5602 29.2723L50.8442 29.3263L50.7842 29.6433L50.4762 29.5493ZM50.8462 29.3263C52.1462 29.5733 53.5802 29.6603 54.9492 29.5263L55.0122 30.1663C53.5802 30.3163 52.0922 30.2263 50.7272 29.9683L50.8462 29.3263ZM54.9492 29.5263C56.1522 29.4003 57.3132 29.0943 58.3092 28.5623L58.6122 29.1323C57.5402 29.7043 56.2972 30.0323 55.0122 30.1673L54.9492 29.5263ZM58.3092 28.5623C59.7692 27.7823 60.8692 26.6303 61.6592 25.2623L62.2192 25.5823C61.3692 27.0523 60.1882 28.2823 58.6122 29.1323L58.3092 28.5623ZM61.6592 25.2623C62.5622 23.6983 63.0592 21.8613 63.2592 19.9613L63.8992 20.0213C63.6972 22.0143 63.1662 23.9513 62.2172 25.5943L61.6592 25.2623ZM63.2592 19.9613C63.4162 18.4113 63.3292 16.2993 63.0052 14.2563L63.6412 14.1563C63.9742 16.2513 64.0612 18.4243 63.9012 20.0233L63.2592 19.9613ZM63.0052 14.2563C62.7192 12.4543 62.2492 10.7113 61.5992 9.46827L62.1722 9.17027C62.8522 10.4743 63.3442 12.2873 63.6422 14.1553L63.0052 14.2563ZM61.6002 9.47827C61.5355 9.36286 61.4531 9.25826 61.3562 9.16827L61.8082 8.70627C61.9533 8.84507 62.0764 9.00526 62.1732 9.18127L61.6002 9.47827ZM61.3562 9.17827C61.0371 8.87511 60.6569 8.64361 60.2412 8.49927L60.4412 7.89927C60.9473 8.07541 61.41 8.35771 61.7982 8.72727L61.3562 9.17827ZM60.2412 8.49927C59.8452 8.36327 59.4472 8.32427 59.1612 8.47327L58.8632 7.90027C59.3232 7.66027 59.9012 7.69827 60.4492 7.88727L60.2412 8.49927ZM59.1612 8.47327C59.1 8.5048 59.0442 8.546 58.9962 8.59527L58.5342 8.14327C58.6342 8.04327 58.7332 7.96327 58.8632 7.90027L59.1612 8.47327ZM58.9962 8.59527C58.7322 8.86327 58.5002 9.20227 58.2662 9.54127L57.7332 9.17727C57.9832 8.81027 58.2362 8.44427 58.5342 8.14327L58.9962 8.59527ZM58.2662 9.54127C57.9602 9.98827 57.6532 10.4363 57.2662 10.7763L56.8462 10.2843C57.1822 9.99727 57.4632 9.58627 57.7432 9.17827L58.2662 9.54127ZM57.2662 10.7763C56.7792 11.1923 56.2162 11.4183 55.6912 11.6283L55.4512 11.0283C55.9282 10.8283 56.4502 10.6313 56.8462 10.2843L57.2662 10.7763ZM55.6912 11.6283L55.4532 11.7243L55.2082 11.1263L55.4512 11.0283L55.6912 11.6283ZM55.4532 11.7243L55.1532 11.8513L55.0362 11.5363L55.3392 11.4363L55.4532 11.7243ZM55.0282 11.5363C54.8281 10.9973 54.5727 10.4806 54.2662 9.99427L54.8142 9.65127C55.1443 10.1758 55.4191 10.7331 55.6342 11.3143L55.0282 11.5363ZM54.2662 9.99427C53.9608 9.51461 53.6223 9.05683 53.2532 8.62427L53.7482 8.21027C54.1365 8.66529 54.4927 9.14678 54.8142 9.65127L54.2662 9.99427ZM53.2532 8.62427C52.996 8.31514 52.704 8.03664 52.3832 7.79427L52.7832 7.28127C53.1232 7.53927 53.4352 7.82727 53.7572 8.21127L53.2532 8.62427ZM52.3832 7.79427C52.0812 7.56427 51.7392 7.34927 51.3392 7.09827L51.6822 6.55027L52.7742 7.28027L52.3832 7.79427ZM51.3392 7.09827C50.2122 6.39227 49.2692 5.56427 48.3042 4.71827L48.7282 4.23127C49.6712 5.05927 50.5962 5.87127 51.6822 6.55127L51.3392 7.09827ZM48.3042 4.71827L47.0312 3.62627L47.4432 3.12627L48.7282 4.23127L48.3042 4.71827ZM47.0312 3.62627C44.8972 1.86627 42.9312 1.01327 40.8312 0.881272L40.8712 0.235272C43.1112 0.375272 45.2072 1.27527 47.4532 3.13527L47.0312 3.62627ZM40.8302 0.882271C38.7152 0.749271 36.4542 1.34227 33.7702 2.48227L33.5202 1.88627C36.2942 0.718272 38.6452 0.106271 40.8702 0.246271L40.8302 0.882271ZM33.7702 2.48227C32.5052 3.01427 31.5702 3.64027 30.7572 4.38227L30.3202 3.90727C31.1862 3.10727 32.1802 2.44027 33.5202 1.87727L33.7702 2.48227ZM30.7572 4.38227C29.9392 5.13927 29.2352 6.03227 28.4572 7.08827L27.9392 6.70227C28.7472 5.62227 29.4712 4.70227 30.3392 3.90727L30.7572 4.38227ZM28.4572 7.08827L28.3572 7.21027L28.2072 7.21827L28.1912 6.89527L28.4572 7.08827ZM28.2152 7.21827C27.7652 7.24127 27.3892 7.29627 27.0152 7.44527L26.7752 6.84527C27.2282 6.66527 27.6752 6.59927 28.1822 6.57227L28.2152 7.21827ZM27.0152 7.44527C26.6352 7.59727 26.2432 7.85127 25.7652 8.27527L25.3382 7.79027C25.8782 7.31327 26.3382 7.02327 26.7762 6.84427L27.0152 7.44527ZM25.7652 8.27527L24.6992 9.26327L24.2492 8.79827L25.3552 7.77627L25.7652 8.27527ZM24.6992 9.26327L24.4742 9.02927L24.6992 9.26127V9.26327ZM24.6982 9.26427L23.6702 10.2993L23.2032 9.85227L24.2532 8.79727L24.6982 9.26427ZM23.6702 10.2993L23.4872 10.3943L23.4372 10.0763L23.6702 10.2993ZM23.4872 10.3943C20.9612 10.7973 18.9142 11.2383 17.0852 11.9473L16.8532 11.3433C18.7232 10.6193 20.8112 10.1683 23.3862 9.75727L23.4872 10.3943ZM17.0852 11.9473C15.2722 12.6493 13.6722 13.6173 12.0272 15.0773L11.6002 14.5823C13.3072 13.0693 14.9682 12.0643 16.8532 11.3343L17.0852 11.9473ZM12.0002 15.0623C11.3599 15.6277 10.7762 16.2539 10.2572 16.9323L9.74416 16.5323C10.2887 15.8202 10.9013 15.1627 11.5732 14.5693L12.0002 15.0623ZM10.2572 16.9323C9.75516 17.5893 9.32416 18.2853 8.94516 19.0323L8.36916 18.7393C8.7634 17.9678 9.22344 17.2317 9.74416 16.5393L10.2572 16.9323ZM8.94516 19.0323L8.89716 19.1023L8.65716 18.8863L8.94516 19.0323ZM8.89716 19.1023L7.77016 20.2743L7.33816 19.7923C7.71816 19.4503 8.06816 19.0583 8.41816 18.6723L8.89716 19.1023ZM7.77016 20.2743C7.35816 20.6443 6.91016 20.9613 6.39416 21.1603L6.16216 20.5563C6.59216 20.3903 6.97816 20.1163 7.33916 19.7913L7.77016 20.2743ZM6.39416 21.1603H6.40016L6.28516 20.8583L6.39416 21.1603ZM6.39416 21.1603C5.97916 21.3203 5.77616 21.4003 5.54616 21.3023L5.79616 20.7063C5.80616 20.7103 5.91016 20.6533 6.16216 20.5563L6.39416 21.1603ZM5.54516 21.3013C5.30316 21.1983 5.24516 20.9993 5.08516 20.5993L5.69116 20.3743C5.77616 20.6013 5.77416 20.6983 5.79716 20.7073L5.54516 21.3013ZM5.08516 20.5993L5.00016 20.3743L5.19416 20.2283L5.38716 20.4883L5.08516 20.5993ZM5.18516 20.2293C5.77916 19.7833 5.83516 18.8943 5.88916 18.0293L6.53516 18.0693C6.47216 19.0693 6.40516 20.1093 5.57116 20.7373L5.18516 20.2293ZM5.88916 18.0293L5.90916 17.7213L6.55516 17.7673L6.53516 18.0693L5.88916 18.0293ZM5.90916 17.7213L5.93216 17.4063L6.24716 17.4213L6.23216 17.7443L5.90916 17.7213ZM6.24716 17.4213C6.78016 17.4463 7.02316 17.8213 7.28516 18.2283L6.74216 18.5783C6.57516 18.3183 6.41916 18.0783 6.21716 18.0783L6.24716 17.4213ZM7.28516 18.2283L7.51316 18.5583L7.00816 18.9583C6.9133 18.835 6.82453 18.7072 6.74216 18.5753L7.28516 18.2283ZM7.58516 18.8283L7.43716 19.4883L7.01716 18.9583L7.26916 18.7583L7.58516 18.8283ZM6.95516 18.6883C7.05516 18.2003 7.14816 17.5603 7.03016 17.0363L7.66016 16.8963C7.80416 17.5363 7.71216 18.2743 7.58816 18.8283L6.95516 18.6883ZM7.03016 17.0363C6.95516 16.7033 6.79416 16.4163 6.49516 16.2623L6.79016 15.6863C7.28416 15.9423 7.54416 16.3863 7.65816 16.8863L7.03016 17.0363ZM6.49516 16.2623L6.23916 16.1303L6.33916 15.8623L6.64216 15.9743L6.49516 16.2623ZM6.33916 15.8623L6.54016 15.3753L7.14016 15.6103L6.95716 16.0873L6.33916 15.8623ZM6.54016 15.3753L6.83616 14.5903L7.43616 14.8023L7.13016 15.6103L6.54016 15.3753ZM7.08716 14.3783L7.62916 14.2843L7.44716 14.8023L7.14116 14.6963L7.08716 14.3783ZM7.18716 15.0143C6.56116 15.1143 5.18316 15.8963 4.18316 16.9343L3.71616 16.4873C4.81616 15.3543 6.35816 14.5023 7.07916 14.3873L7.18716 15.0143ZM4.18316 16.9343C3.82016 17.3103 3.51316 17.7173 3.31916 18.1313L2.73316 17.8613C2.96316 17.3733 3.31016 16.9083 3.71616 16.4873L4.18316 16.9343ZM3.32016 18.1323C3.13516 18.5273 3.05016 18.9323 3.11816 19.3243L2.48216 19.4243C2.39016 18.8923 2.49616 18.3613 2.73416 17.8543L3.32016 18.1323ZM3.11816 19.3243C3.18016 19.6813 3.37116 20.0393 3.73216 20.3873L3.28516 20.8543C2.81716 20.4043 2.56716 19.9243 2.48216 19.4343L3.11816 19.3243ZM3.73216 20.3873L3.83216 20.5433L3.51916 20.6203L3.73216 20.3873ZM3.83216 20.5433L4.06816 21.4133L3.45216 21.6053L3.20616 20.7053L3.83216 20.5433ZM4.06816 21.4133C4.13973 21.6464 4.2283 21.8741 4.33316 22.0943L3.75016 22.3723C3.63225 22.1242 3.53265 21.8679 3.45216 21.6053L4.06816 21.4133ZM4.33316 22.0943C4.56516 22.5773 4.93316 22.8713 5.35716 23.0073L5.16016 23.6233C4.57416 23.4353 4.06716 23.0313 3.76016 22.3713L4.33316 22.0943ZM5.35716 23.0073C5.85116 23.1673 6.42716 23.1073 6.96416 22.9073L7.19916 23.5073C6.52716 23.7693 5.79916 23.8273 5.15916 23.6223L5.35716 23.0073ZM6.96416 22.9073L7.52416 22.6873L7.39616 23.2743L7.08016 23.2063L6.96416 22.9073ZM7.39716 23.2773C7.24516 23.9753 7.15316 24.7073 7.12216 25.5343L6.47616 25.5113C6.50157 24.7138 6.59863 23.9203 6.76616 23.1403L7.39716 23.2773ZM7.10016 25.5423C7.07016 26.3693 7.10116 27.2973 7.19416 28.3873L6.54816 28.4403C6.45316 27.3353 6.42216 26.3833 6.45416 25.5203L7.10016 25.5423ZM7.19416 28.3873L7.27916 29.1543L6.63916 29.2403L6.54616 28.4403L7.19416 28.3873ZM7.27916 29.1543L7.41116 29.9543L6.77716 30.0743L6.64016 29.2503L7.27916 29.1543ZM7.41116 29.9543L7.39716 30.1263L7.09416 30.0263" fill="black"/>
<path fill-rule="evenodd" clip-rule="evenodd" d="M23.5866 10.5763L19.3316 11.2763L15.4486 12.9783L12.1506 15.0522L9.01259 18.8822L7.23959 20.7603L5.52559 21.3923L5.07259 20.2843L5.86559 19.1403L6.04359 17.5263L6.57359 17.5462L7.15359 18.0763L6.99759 16.4323L6.35459 16.0023L6.37459 15.3762L4.85159 16.2383L3.47159 17.8663L3.18359 19.3213L3.78359 20.4862L4.33359 22.4662L5.45359 22.9963L6.63059 22.9382L7.74659 22.2882L7.00059 26.0542L7.74559 30.2562L6.92559 32.1963L4.24059 35.0882L4.71759 36.8162L6.00059 38.8193L8.39859 40.5073L9.67059 40.6813L11.0846 40.7293L10.2026 44.3512L13.4466 45.6813L17.4886 46.2132L18.8716 45.3092L18.9776 42.8623L20.5206 40.3092L20.6266 38.2892L24.3496 38.5553L27.8066 38.2352L24.3496 40.3092L24.9346 42.8092L27.1146 46.2132L29.2426 47.1172L30.9446 46.4173L31.6446 45.0342L35.2086 42.3213L35.9086 42.9062L41.4936 43.1193L42.6106 42.2153L42.7166 40.6193L42.3446 39.9193L42.0786 35.6113L40.2166 31.8882L40.5366 30.2383L41.6536 30.8232L44.7916 33.7482L46.3336 33.8543L48.0356 33.1543L49.7376 31.8783L50.5876 29.1123L55.5876 29.4323L58.6196 28.2622L61.0666 25.9753L62.8216 22.6772L63.2476 18.7943L62.8756 14.2743L61.9186 10.2323L60.9616 8.95525L59.6316 8.52925L57.2916 11.0823L55.1646 11.8272L53.3026 8.74225L51.4406 7.04025L50.4406 6.40225L46.3986 3.05225L43.1546 1.29725L39.9106 1.03125L36.1346 1.66925L32.8366 2.89225L30.5496 4.75425L28.7416 6.93425L26.8796 7.46625L23.5866 10.5763Z" fill="#FEEB50" stroke="#1F1917" stroke-width="0.095" stroke-miterlimit="10"/>
<path fill-rule="evenodd" clip-rule="evenodd" d="M11.245 20.1729C7.60003 24.4239 8.40003 29.5799 9.42003 34.6319L7.80303 30.5469L7.20703 26.8009L7.37703 22.9709L8.90903 19.3109L11.209 15.9059L14.784 12.9259L18.7 11.3069L23.297 10.7109L19.041 15.5629C15.624 16.6709 13.608 17.4179 11.247 20.1629" fill="#FDF7BA"/>
<path fill-rule="evenodd" clip-rule="evenodd" d="M28.4014 7.22356C25.8674 9.69556 24.4834 11.5606 22.8714 14.4536L19.2114 20.5596C18.5984 21.5926 18.5414 22.4596 18.3564 23.6516L16.5684 21.5236L17.4184 18.9696L20.3124 13.7766L26.4424 7.73256L28.4004 7.23256M40.9154 1.10256C38.8854 1.86256 35.5154 2.11456 35.2814 4.44256C35.1144 6.09656 35.4064 6.92756 36.4034 8.67756C33.9404 6.12956 33.3314 6.52356 28.5734 7.31556L30.6164 4.42156L34.1914 2.20856L38.7884 1.18656L40.9164 1.10156" fill="#FDF7BA"/>
<path fill-rule="evenodd" clip-rule="evenodd" d="M46.5142 32.6022C47.1902 33.0192 47.1742 33.3223 47.0622 33.6073L48.6622 32.9673L49.6982 31.5672L50.4682 29.5853L49.4862 28.8452L45.1922 29.3932L44.8722 30.2612L44.9722 31.4943L45.3722 32.2243L46.0122 32.5443L46.5152 32.5903M46.1152 25.2503C43.9632 25.8703 43.9792 26.0422 43.3452 28.1782C44.1852 26.8322 44.8052 26.1523 46.1152 25.2503ZM60.4292 9.28225C60.0462 9.45925 59.6742 9.54425 59.4352 9.89425C58.9202 10.6473 58.4792 11.2812 57.6272 11.8102C57.1972 12.0762 56.7552 12.2503 56.3002 12.3903C55.9232 12.5073 55.6962 12.4032 55.3752 12.6332L55.9452 12.7332H57.2052L58.7582 11.7733L59.6722 10.8132L60.4282 9.28025M26.1422 14.0573C25.2952 16.3743 24.5552 18.3603 23.2722 20.4573C24.7528 18.9097 25.9635 17.125 26.8542 15.1772C27.2202 14.3992 27.2892 13.4772 28.3072 13.8272C28.3532 14.6042 28.5072 15.3802 28.5632 16.1572C29.1132 12.2122 30.6652 10.5623 34.2632 9.03125L31.2032 9.39625L28.3252 10.0363L26.8992 12.0823L26.1222 14.0462M33.1222 13.9662C33.9002 17.6282 35.0202 21.1423 35.5072 24.8623C35.8232 27.2793 35.8572 28.4402 34.6412 30.5262C33.3112 30.4402 32.4872 30.5902 31.2012 31.0112C26.0832 32.6892 23.1482 35.1562 19.6992 30.1852L23.0022 31.7412L25.3562 31.2783L29.5132 28.8582L32.7562 28.2183L33.8062 23.8333L33.0292 18.0312L32.9292 15.2913L33.1122 13.9662M41.9252 36.6232C41.4952 39.5982 42.9252 41.1972 42.3272 42.0192C42.1602 42.2522 41.9352 42.6572 41.6832 42.7692C40.7832 43.1662 39.5472 42.6952 39.4582 42.9272H36.4992L35.3112 42.4243L37.1382 40.2772L38.9202 36.3942L40.0622 32.4663H40.6562L41.9362 36.6232" fill="#EDD749"/>
<path fill-rule="evenodd" clip-rule="evenodd" d="M36.9559 27.9762C37.1959 29.3262 37.6159 29.6482 38.2509 30.9562C37.8279 33.0892 37.1489 35.6263 36.3309 37.5083C35.9859 38.3023 35.7079 38.7382 35.1009 39.3532C34.0749 40.3892 33.0369 41.2932 31.8729 42.1912C31.0349 42.8372 30.4499 42.5132 29.4169 42.3672C28.9769 43.1642 28.8569 43.6072 28.0469 44.0112C26.8029 44.6332 25.6889 43.2912 24.7119 42.5042L26.8269 45.8083L28.2889 47.1782L29.5219 47.3612L31.1659 46.3563L32.0339 44.7122L33.8609 43.3423L36.0989 41.4222L37.5149 39.4222L38.7949 37.0472L40.4399 32.1143L40.5769 30.2412L38.5209 29.3273L36.9559 27.9873M20.5699 37.4912C22.8759 37.4912 25.3099 37.3632 27.4219 36.3952C28.0199 35.4982 28.6089 34.7653 29.3419 33.9753C28.6769 35.2323 28.4679 35.9423 28.2919 37.3553L27.6069 38.3602L22.3999 38.4972L20.6999 38.3143L20.5169 38.1312L20.5629 37.4912M20.2499 35.8833L20.0699 34.2612C19.6759 36.6312 19.7699 38.2212 18.6699 40.3452C17.8549 41.2892 16.8499 42.1492 15.7019 42.6092C15.7989 43.1912 15.8279 43.5553 15.7719 43.9823C15.5699 45.5183 12.4969 44.8392 11.2339 44.7782L17.3159 46.3442L18.6859 45.7962L19.1429 43.1462L20.4229 40.7712L20.6509 39.3092L20.2499 35.8833ZM16.8339 22.5082C16.7699 23.6612 16.6959 24.1412 17.2039 25.1602C17.8499 26.4542 18.6439 27.6603 19.3459 28.9603L19.5739 26.4022L16.8339 22.5192M7.4469 31.2173L6.8539 32.4803C7.3979 34.3133 7.8819 35.4752 8.9179 37.0762C8.7379 37.7262 8.6019 38.0092 8.1879 38.5382C7.2759 38.3982 6.4659 38.3582 5.5419 38.3602L8.6019 40.7352L10.1089 40.4613L11.6159 38.9543L9.4689 35.6193L7.4469 31.2173ZM60.4329 8.68325C61.0529 11.4793 61.8559 14.0582 61.7809 16.9212C61.6809 20.4332 61.0049 24.8713 57.7509 26.9893C54.1059 29.3613 49.8279 28.2393 45.8289 27.2233L50.7169 29.2233L55.2849 29.4512L58.3909 28.5373L60.8109 26.5373L62.6379 22.7002L63.3229 18.2703L62.7749 13.9303L61.7699 9.63625L60.4299 8.68425M6.0449 17.0033C4.3999 18.0833 3.7399 18.5532 3.9219 20.5502L4.4169 22.3433L5.1169 22.8172L5.9829 23.1052L7.54991 22.7353L8.3539 20.2412L6.1279 21.3342H5.6129L5.0359 20.4482L5.7359 19.4182L6.1059 17.4602L6.5799 17.6042L7.1569 18.0583L7.0739 17.0282L6.68191 16.3682L6.2899 16.0382L6.04291 17.0082M43.1649 1.28125C44.6329 2.64525 46.4349 3.83125 47.6099 5.49625C48.0649 6.14125 48.5699 6.47125 47.6019 7.38225C48.6239 7.09025 49.0039 7.12225 49.8219 7.22225C51.3099 7.40225 52.7049 9.51825 52.7939 11.0343C52.7759 11.1763 52.3809 11.4982 51.2299 11.8142C51.2069 11.8582 50.5799 11.7282 50.5959 11.7712C50.7159 12.0982 50.8759 12.1483 51.1189 12.3013C51.1719 12.6653 51.2059 13.2263 51.4539 13.6243C52.1726 13.616 52.8901 13.6854 53.5939 13.8312C53.8339 14.2272 53.7969 14.6232 53.7769 15.0192L54.5989 14.8822L54.3709 13.0092L55.1009 11.7762L54.0509 9.40125L52.0509 7.48125L51.8569 7.47125L49.5969 6.08425L45.9099 3.06825L43.1729 1.28125M45.6379 12.5332C45.5609 12.6682 45.4439 12.8852 45.2939 13.0352C45.9059 13.6152 46.2069 14.0013 46.4239 14.8193L44.3499 15.8492L42.5949 17.5322C41.8249 17.1172 41.6329 16.7992 41.2599 16.0092C40.8259 16.1242 40.4149 16.2343 40.0569 16.1033C40.2839 16.1053 40.4239 16.0482 40.6509 15.9072L41.7679 14.7472L43.7409 13.2533L45.0409 12.8333C45.2049 12.7653 45.4809 12.6032 45.6459 12.5332" fill="#EDD749"/>
<path fill-rule="evenodd" clip-rule="evenodd" d="M47.5499 14.5936C45.3499 15.7796 43.2439 16.9796 42.1199 19.2196C42.1199 16.3646 44.9869 15.1076 47.5519 14.5946M41.6799 8.97656C40.0469 10.0906 38.8919 12.3366 39.0369 14.5286C38.5049 12.6316 38.6929 10.8286 40.3369 9.52856L41.1639 9.12656L41.6899 8.97656" fill="#EDD749"/>
<path fill-rule="evenodd" clip-rule="evenodd" d="M44.7998 25.888L46.0878 25.268L44.7708 25.513C43.8428 25.67 43.7338 25.893 43.5908 26.806L43.3608 28.2L43.9738 26.684C44.1978 26.184 44.3238 26.147 44.7998 25.888ZM27.5998 2.368C28.3298 1.275 28.7498 0.918 29.8698 0.226C28.3468 0.593 28.0558 0.876 27.5998 2.368ZM27.3598 4.768C28.6358 2.204 29.6018 1.268 32.2718 0C29.2518 0.74 28.3718 1.267 27.3598 4.768ZM0.0318154 18.123C0.311815 16.839 0.571815 16.353 1.36482 15.3C0.0798154 16.198 -0.0871846 16.567 0.0318154 18.123ZM28.6248 39.615L28.5088 38.68C28.4388 38.115 28.4418 37.657 28.4868 37.088L28.6168 35.438C28.4568 35.998 28.1368 36.556 27.9768 37.115L27.8298 37.687C25.4298 38.175 23.0668 38.207 20.6758 37.779L20.1818 35.309C20.1348 36.049 20.1648 38.097 20.1618 39.243C20.1588 40.131 20.1218 40.435 19.6638 41.191C19.2338 41.898 19.0638 42.059 18.4638 43.254C18.5138 44.008 18.5138 44.507 18.3138 45.222C17.9808 46.422 14.6198 45.49 13.7338 45.247C12.6418 44.947 10.3838 44.504 10.9518 43.047C11.4518 41.767 11.7678 40.415 12.0118 38.623C10.0118 35.741 8.15182 31.793 7.79382 28.293C7.51682 25.576 7.69381 23.893 8.27081 22.243C9.20281 19.61 10.5058 17.331 12.5968 15.495C15.4168 13.02 18.0548 12.025 22.1828 11.397C21.1898 12.497 20.2078 13.684 19.1368 14.944C18.0528 16.22 17.4088 17.508 16.7208 18.904C15.7708 20.831 15.7908 21.564 17.0508 23.257C18.1368 24.715 18.7228 25.372 19.1978 26.797C18.8058 27.604 18.6638 28.297 18.5318 29.389C19.8618 30.842 20.8498 31.839 22.1318 32.146C23.3978 32.446 24.4558 32.389 25.5888 31.81C28.1058 30.523 30.4338 28.862 33.2728 28.793C34.5858 25.563 34.4528 22.866 33.8228 19.743C33.3928 17.61 33.2198 15.59 33.0858 13.413C32.5538 15.653 32.4538 17.613 32.8488 19.853C33.3248 22.553 33.6948 25.513 32.3708 27.876C29.8038 28.073 27.6038 29.634 25.2908 30.832C24.3608 31.314 23.3928 31.362 22.3638 31.078C21.4088 30.816 20.7638 30.184 19.7338 28.996C19.7178 27.804 19.9868 27.254 20.5338 26.176C21.4138 24.443 22.3838 22.829 23.4488 21.123C22.1448 22.697 20.9088 24.023 19.8818 25.596C19.4898 24.478 18.9288 23.91 17.9988 22.652C17.0908 21.422 16.9958 20.884 17.6748 19.452C18.3538 18.02 18.9348 16.765 20.0978 15.512C22.1048 13.344 23.9438 10.932 26.1378 8.797C27.3298 7.637 27.8138 7.677 29.3948 7.437C30.8248 7.22 32.2188 6.937 33.6748 6.607C32.2748 6.737 30.9028 6.787 29.5308 6.821L29.4878 6.822C30.8378 5.098 31.6208 4.137 33.8138 3.185C39.2118 0.840999 42.6418 0.587 46.8818 4.151C47.9818 5.075 48.9418 5.971 50.0548 6.769C49.638 6.8015 49.2288 6.89866 48.8418 7.057C49.4018 6.95 50.0498 7.056 50.6418 7.162C50.8073 7.26921 50.975 7.3729 51.1448 7.473C51.9308 7.936 52.3778 8.193 52.9098 8.933C53.4718 9.716 53.9398 10.499 54.3538 11.363L53.6538 11.123C53.4283 11.019 53.1806 10.9726 52.9327 10.9879C52.6849 11.0033 52.4447 11.0799 52.2338 11.211L52.2008 11.226C51.7658 11.438 51.1008 11.679 50.6408 11.753C50.8708 11.833 51.3808 11.853 51.6208 11.767C51.6527 11.7543 51.6855 11.744 51.7188 11.736C51.5889 11.9552 51.5169 12.2039 51.5097 12.4587C51.5026 12.7134 51.5604 12.9658 51.6778 13.192L51.6788 13.195C51.7188 13.291 51.7758 13.379 51.8388 13.443C51.6252 13.5228 51.4138 13.6085 51.2048 13.7C52.2108 13.547 53.1178 13.52 54.0998 13.65L54.2998 14.62L53.9348 14.648L53.9048 14.651C53.4408 14.281 52.9228 14.351 52.2048 14.503C50.0548 15.003 50.5598 16.2 49.5708 18.018C50.5978 16.762 50.5208 15.448 52.1958 15.053C52.5958 14.961 52.8518 14.845 53.1158 14.885C52.6408 15.125 52.2298 15.52 52.0658 15.98C51.6058 17.277 51.8918 18.38 51.3858 19.582C52.0108 18.499 52.0488 17.442 52.6078 16.302C52.8078 15.902 53.5538 15.237 54.0108 15.227L54.3868 15.219C54.4868 15.939 54.5638 16.656 54.5208 17.249C54.4428 18.333 54.1608 19.941 53.9928 20.556C54.5588 19.828 54.8168 18.286 55.0658 17.201C55.3258 16.071 55.2598 14.715 55.0328 13.501C54.7328 11.835 56.4368 12.106 57.4328 11.321C58.1648 10.744 58.6688 9.821 59.3398 9.169C60.0058 8.522 61.0538 9.473 61.3158 10.106C62.4518 12.853 62.9688 17.176 62.6688 19.946C62.3318 23.054 60.8308 26.446 58.0888 27.976C54.5948 29.926 50.4748 28.736 47.0038 27.576C46.2638 27.326 45.7478 26.963 45.0968 26.552C45.2738 27.35 45.3548 28.196 45.1188 28.992C44.7438 30.257 44.1388 32.327 45.8588 32.709C46.5128 32.854 46.8088 32.833 47.7318 32.357C47.1968 32.4996 46.6352 32.5109 46.0948 32.39C45.6298 32.304 45.3828 32.01 45.2528 31.66C45.4158 31.777 45.6808 31.84 46.1328 31.96C47.4068 32.267 48.6198 31.654 48.8568 30.76C48.9948 30.244 48.9718 29.973 49.2648 29.26C49.5278 29.34 49.8008 29.415 50.0798 29.483L49.6068 31.026C49.2068 32.361 47.6028 33.438 46.1948 33.413C44.8928 33.39 44.0678 32.575 43.1698 31.775L41.3648 30.175C39.7681 29.7091 38.2696 28.9562 36.9428 27.953C38.0128 29.21 38.7388 29.907 40.2308 30.533C40.0138 32.747 39.2448 34.361 38.5888 36.479C38.2918 37.437 35.9488 41.275 35.2888 41.649C34.8258 41.916 31.9248 44.349 31.3888 44.681C30.9828 45.221 30.6258 45.966 30.0148 46.289C28.1528 47.273 26.9568 45.389 25.9548 43.796C25.4988 43.071 24.2318 40.982 25.3348 40.396C26.3788 39.843 26.9648 39.448 28.0288 38.749C28.1848 39.034 28.4538 39.309 28.6288 39.594L28.6248 39.615ZM35.0968 42.99C34.1538 43.75 32.5688 45.09 32.2618 45.268C31.7048 46.098 31.6358 46.613 30.7438 47.096C28.0878 48.533 26.6788 46.866 25.1068 44.444C24.3568 43.29 22.7198 40.644 24.4568 39.761C25.1888 39.385 25.7438 39.101 26.2968 38.781C24.4738 39.007 22.6838 39.011 20.8238 38.731L20.9088 39.365C21.0288 40.382 21.0688 40.693 20.5168 41.512C20.1138 42.109 19.9588 42.282 19.4728 43.368C19.5732 44.141 19.5053 44.9266 19.2738 45.671C18.7208 47.724 14.8858 46.599 13.3238 46.176C11.4438 45.668 8.75781 45.194 9.85981 42.776C10.1178 42.21 10.3198 41.63 10.4738 41.078C8.82981 41.806 6.54582 40.262 5.45682 39.171C4.42182 38.133 3.85982 36.928 3.66382 35.759C3.49682 34.764 3.64982 34.759 4.35982 34.065L6.30982 32.135L7.09682 29.995C6.99482 29.462 6.91882 28.93 6.87382 28.395C6.67382 26.2 6.74882 24.637 7.06182 23.199C5.91782 23.645 4.60582 23.436 4.02182 22.222C3.79982 21.76 3.66782 21.29 3.49982 20.608C0.947815 18.148 5.72982 14.928 7.12482 14.684C6.96482 15.137 6.79082 15.552 6.63682 15.964C7.58282 16.464 7.46682 17.849 7.26682 18.748C6.92682 18.318 6.73882 17.748 6.23682 17.733C6.16382 18.749 6.17682 19.873 5.38282 20.468C5.61782 21.096 5.60582 21.096 6.28282 20.84C7.23082 20.475 7.94482 19.662 8.66282 18.868C9.43582 17.361 10.4278 16.021 11.7928 14.812C15.1448 11.84 18.3128 10.868 23.4148 10.055C24.097 9.33975 24.809 8.65348 25.5488 7.998C26.5688 7.098 27.2318 6.911 28.1968 6.86C29.7938 4.724 31.0508 3.236 33.6538 2.14C39.1118 -0.157001 42.8738 -0.268 47.2538 3.344C48.7018 4.537 49.9358 5.794 51.5268 6.792C52.3318 7.296 52.9068 7.659 53.5268 8.386C54.2948 9.301 54.9218 10.216 55.3568 11.393C55.9208 11.161 56.5638 10.943 57.0828 10.499C57.7528 9.926 58.1798 8.969 58.8008 8.339C59.6248 7.504 61.5048 8.512 61.9208 9.309C63.3368 12.009 63.9158 17.012 63.6148 19.981C63.2428 23.651 61.7298 27.121 58.4948 28.848C56.2948 30.021 53.3448 30.13 50.8188 29.653L50.3188 31.269C49.8188 32.883 47.9108 34.202 46.2358 34.281C44.6278 34.357 43.7558 33.527 42.7018 32.511L41.0418 30.911C41.0108 31.2622 40.9644 31.6119 40.9028 31.959C41.3388 32.819 41.5478 33.575 41.9208 34.462C42.3208 35.438 42.5208 36.079 42.5588 37.124L42.6328 39.907C43.0468 40.642 43.0828 40.821 43.0328 41.662C42.9058 43.435 41.9288 43.604 40.3028 43.594C39.7608 43.59 37.7028 43.604 37.2028 43.566C36.1658 43.491 35.4828 43.412 35.1248 42.984L35.0968 42.99ZM40.5838 33.318C40.2568 34.488 39.8168 35.591 39.4138 36.856C39.0338 38.053 37.0838 41.531 35.9368 42.373C36.1598 42.539 36.5698 42.603 37.3008 42.667C37.8178 42.712 39.8548 42.721 40.3658 42.73C41.4918 42.75 41.9188 42.665 42.0328 41.383C42.0888 40.755 42.0398 40.638 41.7258 40.088L41.6428 37.143C41.6168 36.213 41.4378 35.677 41.0728 34.809C40.8528 34.289 40.7348 33.806 40.5848 33.317L40.5838 33.318ZM6.28382 17.258C6.53682 17.228 6.68382 17.362 6.88882 17.558C6.85282 17.091 6.76682 16.745 6.43882 16.554C6.4155 16.6302 6.39383 16.7069 6.37382 16.784C6.33404 16.9412 6.30068 17.1 6.27382 17.26L6.28382 17.258ZM7.87182 20.631C7.68683 21.1113 7.51675 21.5972 7.36182 22.088L7.28582 22.338C6.32382 22.746 5.05982 23.005 4.58582 21.994C4.35082 21.494 4.21782 21.022 4.04582 20.402C2.46182 18.762 4.82982 16.596 6.11882 15.819C5.93182 16.219 5.79882 16.524 5.71882 16.836C5.32682 18.191 5.89582 19.4 4.66682 20.382C5.24482 21.548 5.21682 22.012 6.56282 21.474C7.08282 21.266 7.50882 20.974 7.89082 20.63L7.87182 20.631ZM7.50182 31.671C8.23182 34.191 9.47181 36.668 10.8478 38.751V38.787C10.7618 39.145 10.6618 39.494 10.4528 39.774C9.46882 41.09 6.96782 39.158 6.25282 38.419C5.46082 37.611 4.93082 36.653 4.80482 35.756C4.71282 35.101 4.80182 35.086 5.25882 34.622L7.10682 32.752L7.51182 31.672L7.50182 31.671ZM54.0778 11.439C54.219 11.5783 54.3318 11.7437 54.4098 11.926C54.4524 11.8861 54.4979 11.8493 54.5458 11.816L54.3698 11.432L54.0698 11.44L54.0778 11.439ZM42.0298 15.983C41.9018 15.713 41.8298 15.43 41.8378 15.15C41.3658 15.527 40.8528 15.885 40.3198 16.09C41.0548 15.433 42.0538 13.885 42.7778 13.396C43.5978 12.841 44.7138 12.949 45.6718 12.496C45.3448 12.793 44.9258 13.032 44.4988 13.26C44.9688 13.432 45.3748 13.78 45.6068 14.266C45.7019 14.4654 45.7627 14.6794 45.7868 14.899C46.4298 14.699 47.0618 14.599 47.5868 14.595C45.6868 15.131 43.6468 16.395 42.2468 18.043C42.4003 17.6221 42.6168 17.227 42.8888 16.871C42.5094 16.6732 42.2047 16.3573 42.0208 15.971L42.0298 15.983ZM33.1778 9.078C32.1855 9.46878 31.169 9.79545 30.1348 10.056C29.1968 11.288 28.6348 11.926 28.4108 13.578C28.1568 11.953 28.1038 11.652 28.8278 10.438C28.6278 10.544 28.4238 10.691 28.1438 10.93C27.1438 11.794 25.8168 15.19 25.2898 16.402C25.6238 14.942 26.6698 11.29 27.7458 10.225C28.4538 9.525 28.6158 9.541 29.6128 9.447L33.1778 9.078ZM55.1778 12.62C56.0328 12.7 56.5218 12.833 57.2778 12.454C58.7048 11.748 59.7548 10.594 60.4358 9.216C60.0188 10.861 59.1808 12.259 57.4418 12.879C56.5878 13.183 56.0368 12.869 55.1678 12.619L55.1778 12.62ZM38.7778 12.78C39.0998 11.353 39.6718 9.98 41.8778 8.915C38.9408 9.65 38.3908 10.885 38.7778 12.78ZM0.699815 20.453C0.951815 17.6 1.50682 16.368 3.53382 14.221C0.979815 16.013 0.345815 16.828 0.699815 20.453Z" fill="black"/>
<path fill-rule="evenodd" clip-rule="evenodd" d="M42.399 16.4368C42.3061 16.239 42.295 16.0126 42.368 15.8067C42.441 15.6007 42.5923 15.4319 42.789 15.3368C42.9871 15.243 43.2143 15.2314 43.4209 15.3044C43.6275 15.3775 43.7969 15.5293 43.892 15.7268C43.9104 15.7652 43.9258 15.805 43.938 15.8458C43.545 16.1458 43.185 16.4808 42.883 16.8788C42.672 16.7978 42.4993 16.6394 42.399 16.4368ZM51.595 12.8808C51.6016 12.8005 51.6239 12.7223 51.6609 12.6507C51.6978 12.5791 51.7486 12.5155 51.8102 12.4636C51.8718 12.4117 51.9432 12.3726 52.02 12.3484C52.0969 12.3242 52.1778 12.3155 52.258 12.3228C52.3391 12.3306 52.4179 12.3542 52.4899 12.3925C52.5618 12.4307 52.6255 12.4828 52.6773 12.5456C52.7292 12.6085 52.7681 12.681 52.7919 12.7589C52.8157 12.8368 52.8239 12.9187 52.816 12.9998C52.8089 13.0701 52.7899 13.1388 52.76 13.2028C52.4383 13.2612 52.1227 13.3489 51.817 13.4648C51.6698 13.3065 51.5901 13.0969 51.595 12.8808Z" fill="#EDD749"/>
</svg>
