<svg width="620" height="429" viewBox="0 0 620 429" fill="none" xmlns="http://www.w3.org/2000/svg">
<path d="M619.002 383.279V353.244C619.002 347.66 609.607 342.323 592.741 337.532L593.151 300.126C593.151 242.527 575.279 186.318 541.943 139.094C508.49 91.7895 461.335 55.8801 406.838 36.2081L405.634 28.7119C405.01 24.6964 403.253 20.9423 400.571 17.8896C397.875 14.8252 394.369 12.5839 390.456 11.4236C338.07 -3.80785 282.431 -3.80785 230.045 11.4236C226.111 12.5778 222.599 14.8117 219.893 17.8772C217.2 20.9303 215.425 24.6784 214.805 28.6995L213.65 35.6869C158.819 55.174 111.318 91.0708 77.6021 138.499C44.0503 185.713 26.0117 242.192 25.9852 300.113V337.681C9.35456 342.459 0.0836262 347.734 0.0836262 353.269V383.316C-0.185105 385.079 0.198829 386.88 1.16337 388.38C9.45902 382.248 18.9658 377.953 29.0507 375.783C54.766 369.577 80.9158 365.233 107.277 362.801C114.656 361.975 122.126 362.717 129.199 364.978C136.271 367.238 142.787 370.967 148.319 375.919C168.756 394.408 195.337 404.64 222.896 404.626H396.202C423.76 404.642 450.339 394.405 470.767 375.907C476.29 370.928 482.802 367.173 489.877 364.887C496.952 362.6 504.43 361.835 511.822 362.639C538.17 365.06 564.32 369.379 590.035 375.572C599.592 377.384 608.627 381.305 616.471 387.039C616.905 387.474 617.439 387.858 617.811 388.28C618.789 386.808 619.212 385.035 619.002 383.279Z" fill="#FFF100"/>
<path d="M148.729 320.098C148.496 313.179 148.372 306.257 148.357 299.334C148.444 194.884 173.079 101.207 213.663 35.7891C158.835 55.2695 111.334 91.1574 77.6147 138.576C44.0634 185.782 26.0207 242.252 25.9854 300.166V337.734C66.2921 328.208 107.371 322.31 148.729 320.11V320.098Z" fill="url(#paint0_linear_1455_34)"/>
<path d="M593.131 300.05C593.186 234.745 570.276 171.501 528.408 121.383C546.576 178.881 555.63 238.87 555.241 299.169C555.241 309.346 554.968 319.399 554.496 329.389C567.351 331.366 580.088 334.051 592.647 337.432L593.131 300.05Z" fill="url(#paint1_linear_1455_34)"/>
<path d="M590.034 375.612C564.307 369.407 538.157 365.063 511.808 362.63C504.422 361.815 496.947 362.568 489.872 364.842C482.797 367.115 476.282 370.857 470.753 375.823C450.321 394.319 423.737 404.552 396.176 404.53H222.945C195.4 404.539 168.834 394.313 148.405 375.836C142.886 370.851 136.374 367.09 129.299 364.799C122.223 362.508 114.743 361.74 107.35 362.544C80.989 364.976 54.8517 369.307 29.1239 375.513C19.0524 377.713 9.55566 382.005 1.24902 388.11C14.4046 408.054 147.474 428.991 309.61 428.991C471.758 428.991 604.766 407.98 617.946 388.122C617.487 387.713 616.978 387.328 616.594 386.894C608.653 381.271 599.594 377.423 590.034 375.612Z" fill="url(#paint2_radial_1455_34)"/>
<path d="M309.524 88.2422L243.176 200.226L309.524 241.033V88.2422Z" fill="#0A0A0A"/>
<path d="M309.546 88.2422V240.958L375.882 200.201L309.546 88.2422ZM309.546 263.149V316.392C310.787 314.629 375.882 222.317 375.882 222.28L309.546 263.149Z" fill="#4B4D4D"/>
<path d="M309.549 263.135L243.2 222.328L309.549 316.403V263.11V263.135Z" fill="#0A0A0A"/>
<defs>
<linearGradient id="paint0_linear_1455_34" x1="119.824" y1="337.734" x2="119.824" y2="35.7891" gradientUnits="userSpaceOnUse">
<stop stop-color="#EDCF00"/>
<stop offset="0.33" stop-color="#F0D500"/>
<stop offset="0.77" stop-color="#F9E500"/>
<stop offset="1" stop-color="#FFF100"/>
</linearGradient>
<linearGradient id="paint1_linear_1455_34" x1="560.763" y1="339.815" x2="560.763" y2="121.383" gradientUnits="userSpaceOnUse">
<stop stop-color="#EDCF00"/>
<stop offset="0.59" stop-color="#F7E100"/>
<stop offset="1" stop-color="#FFF100"/>
</linearGradient>
<radialGradient id="paint2_radial_1455_34" cx="0" cy="0" r="1" gradientUnits="userSpaceOnUse" gradientTransform="translate(34.684 543.891) scale(230.096 228.529)">
<stop stop-color="#FFF100"/>
<stop offset="0.23" stop-color="#F9E500"/>
<stop offset="0.67" stop-color="#F0D500"/>
<stop offset="1" stop-color="#EDCF00"/>
</radialGradient>
</defs>
</svg>
