<svg width="49" height="64" viewBox="0 0 49 64" fill="none" xmlns="http://www.w3.org/2000/svg">
<path d="M47.1529 3.64021C47.1849 4.39293 46.9955 5.13797 46.6089 5.7806C46.2223 6.42322 45.6539 6.93784 44.9767 7.25531C44.2995 7.57278 43.543 7.6816 42.8069 7.56638C42.0679 7.45057 41.3803 7.11721 40.8316 6.60884C40.2808 6.09833 39.893 5.43659 39.7166 4.70656C39.54 3.97689 39.5822 3.20881 39.8383 2.49961C40.0932 1.79426 40.5511 1.18006 41.1542 0.734308C41.7552 0.290152 42.4751 0.0356203 43.2216 0.00335175C44.2201 -0.0388927 45.1956 0.319545 45.933 1.00186C46.6703 1.68417 47.1081 2.63275 47.1517 3.63893L47.1529 3.64021Z" fill="#767677"/>
<path d="M25.1492 48.3903C15.1002 48.3903 6.32485 44.7086 1.76758 39.2578C3.46376 44.1479 6.62697 48.3852 10.8181 51.3845C15.0093 54.3839 20.0184 55.993 25.1556 55.993C30.2928 55.993 35.3032 54.3826 39.4931 51.3845C43.683 48.3864 46.8449 44.1479 48.5411 39.2578C43.9736 44.7086 35.1983 48.3903 25.1492 48.3903Z" fill="#F37726"/>
<path d="M25.1458 12.9399C35.1948 12.9399 43.9714 16.6229 48.5274 22.0724C46.8313 17.1823 43.6681 12.9451 39.4769 9.9457C35.2857 6.94635 30.2779 5.33594 25.142 5.33594C20.0061 5.33594 14.9943 6.94635 10.8045 9.94442C6.61458 12.9425 3.45008 17.181 1.75391 22.0711C6.32014 16.6331 15.0967 12.9399 25.1458 12.9399Z" fill="#F37726"/>
<path d="M11.3522 58.993C11.3938 59.9409 11.1552 60.8799 10.6661 61.6928C10.1771 62.5044 9.46275 63.1522 8.60762 63.5516C7.75249 63.951 6.81543 64.0893 5.87197 63.9433C4.92852 63.7974 4.07467 63.3775 3.38211 62.7349C2.68956 62.0922 2.20183 61.2589 1.97781 60.3359C1.75603 59.4134 1.81034 58.4461 2.13398 57.5542C2.45786 56.6632 3.03648 55.89 3.79816 55.3267C4.55984 54.7635 5.46617 54.4486 6.40579 54.4102C7.66416 54.359 8.88925 54.8121 9.81863 55.6711C10.7475 56.5337 11.2986 57.7279 11.3522 58.9943V58.993Z" fill="#989798"/>
<path d="M2.91209 11.7092C2.36163 11.7348 1.81373 11.5914 1.34136 11.3021C0.868994 11.0128 0.492635 10.5878 0.25965 10.0847C0.026666 9.58158 -0.0514221 9.01576 0.0330667 8.46531C0.117556 7.91485 0.362061 7.40023 0.73586 6.99059C1.10966 6.58095 1.59611 6.29164 2.13121 6.1585C2.6663 6.02537 3.23212 6.05865 3.75058 6.25067C4.26903 6.44269 4.71964 6.78449 5.04351 7.23638C5.42476 7.76293 5.61303 8.40473 5.57666 9.05379C5.54029 9.70286 5.2815 10.3196 4.84381 10.8003C4.34456 11.3507 3.64816 11.6759 2.91081 11.7092H2.91209Z" fill="#6F7070"/>
</svg>
