<svg width="65" height="63" viewBox="0 0 65 63" fill="none" xmlns="http://www.w3.org/2000/svg">
<path d="M31.8005 0.0034899C31.2282 0.0371133 30.6684 0.18538 30.1545 0.43949L7.86452 11.0715C6.70052 11.6255 5.85452 12.6795 5.56452 13.9355L0.108516 37.7975C-0.151484 38.9175 0.0585157 40.0915 0.708516 41.0515C0.784516 41.1675 0.864516 41.2795 0.948516 41.3875L16.3485 60.5355C17.1625 61.5355 18.3845 62.1095 19.6725 62.1035H44.3725C45.6645 62.1055 46.8885 61.5035 47.7005 60.5175L63.0925 41.3655C63.9005 40.3655 64.2025 39.0455 63.8925 37.7935L58.4005 13.9115C58.1105 12.6555 57.2605 11.6015 56.1005 11.0475L33.8465 0.44149C33.2052 0.125207 32.495 -0.0253771 31.7805 0.0034899H31.8005Z" fill="#326CE5"/>
<path d="M32.0046 8.14062C31.2366 8.19463 30.6546 8.85263 30.6946 9.62063V9.99662C30.7306 10.4226 30.7946 10.8446 30.8786 11.2626C31.0013 12.0631 31.0455 12.8736 31.0106 13.6826C30.9346 13.9486 30.7826 14.1886 30.5746 14.3726L30.5446 14.9366C29.7346 15.0046 28.9306 15.1286 28.1386 15.3086C24.8066 16.0606 21.7726 17.7886 19.4306 20.2786L18.9506 19.9386C18.6866 20.0186 18.4026 19.9886 18.1606 19.8586C17.5115 19.3781 16.9106 18.8356 16.3666 18.2386C16.0934 17.9121 15.8016 17.6016 15.4926 17.3086L15.1966 17.0726C14.9326 16.8606 14.6086 16.7386 14.2706 16.7226C14.0689 16.7119 13.8675 16.7491 13.683 16.8312C13.4984 16.9132 13.3358 17.0377 13.2086 17.1946C12.7566 17.8286 12.9046 18.7066 13.5366 19.1606L13.8126 19.3806C14.1679 19.617 14.5365 19.8327 14.9166 20.0266C15.6246 20.4206 16.2926 20.8826 16.9126 21.4266C17.0712 21.6528 17.1634 21.9188 17.1786 22.1946L17.6146 22.5946C15.2606 26.1266 14.2946 30.4046 14.8986 34.6066L14.3386 34.7666C14.1926 34.9986 13.9986 35.1966 13.7666 35.3426C12.9853 35.5513 12.1855 35.6832 11.3786 35.7366C10.9504 35.7453 10.523 35.7787 10.0986 35.8366L9.74463 35.9166H9.70463C9.45896 35.9507 9.22758 36.0523 9.03624 36.2101C8.8449 36.3679 8.70111 36.5757 8.62088 36.8104C8.54065 37.0451 8.52712 37.2975 8.58181 37.5394C8.6365 37.7813 8.75725 38.0033 8.93063 38.1806C9.10562 38.3571 9.32624 38.4814 9.56782 38.5397C9.8094 38.5979 10.0624 38.5879 10.2986 38.5106H10.3246L10.6846 38.4706C11.0906 38.3506 11.4906 38.2026 11.8806 38.0346C12.6306 37.7346 13.4086 37.5046 14.2046 37.3546C14.4806 37.3706 14.7446 37.4646 14.9686 37.6246L15.5686 37.5246C16.8686 41.5586 19.6006 44.9766 23.2486 47.1306L23.0046 47.6406C23.1166 47.8746 23.1586 48.1346 23.1246 48.3926C22.7946 49.1566 22.3906 49.8886 21.9186 50.5766C21.6597 50.9179 21.4206 51.2738 21.2026 51.6426L21.0326 52.0026C20.9093 52.2166 20.8475 52.4605 20.854 52.7074C20.8605 52.9542 20.9352 53.1945 21.0697 53.4016C21.2042 53.6088 21.3933 53.7747 21.6162 53.8811C21.8391 53.9875 22.087 54.0303 22.3326 54.0046C22.5788 53.9769 22.8125 53.8815 23.0078 53.729C23.203 53.5765 23.3522 53.3728 23.4386 53.1406L23.6046 52.8006C23.7566 52.4006 23.8846 51.9926 23.9886 51.5806C24.3426 50.7066 24.5346 49.7686 25.0186 49.1886C25.1768 49.0399 25.3761 48.9423 25.5906 48.9086L25.8906 48.3626C29.8451 49.8826 34.2208 49.8933 38.1826 48.3926L38.4486 48.9026C38.7206 48.9426 38.9646 49.0926 39.1286 49.3126C39.5046 50.0286 39.8086 50.7786 40.0406 51.5526C40.1464 51.9671 40.2759 52.3751 40.4286 52.7746L40.5946 53.1146C40.6819 53.3459 40.8315 53.5486 41.0268 53.7001C41.2221 53.8517 41.4556 53.9462 41.7013 53.9734C41.947 54.0005 42.1955 53.9591 42.4192 53.8538C42.6428 53.7485 42.833 53.5833 42.9686 53.3766C43.1029 53.1687 43.177 52.9276 43.1827 52.6801C43.1883 52.4327 43.1253 52.1885 43.0006 51.9746L42.8266 51.6146C42.6086 51.2471 42.3695 50.8925 42.1106 50.5526C41.6506 49.8886 41.2546 49.1806 40.9106 48.4386C40.8785 48.303 40.874 48.1622 40.8974 48.0248C40.9207 47.8874 40.9715 47.7561 41.0466 47.6386C40.9613 47.4642 40.8871 47.2845 40.8246 47.1006C44.4646 44.9306 47.1846 41.5006 48.4706 37.4606L49.0386 37.5606C49.2426 37.3746 49.5106 37.2766 49.7846 37.2846C50.5786 37.4366 51.3566 37.6846 52.1086 37.9646C52.4986 38.1446 52.8986 38.2966 53.3046 38.4246C53.4006 38.4506 53.5406 38.4726 53.6486 38.4986H53.6746C53.9107 38.5749 54.1633 38.5841 54.4043 38.5252C54.6452 38.4664 54.8652 38.3418 55.0395 38.1654C55.2139 37.9889 55.3359 37.7676 55.3919 37.5259C55.4478 37.2842 55.4356 37.0318 55.3566 36.7966C55.2758 36.5617 55.1312 36.3539 54.9391 36.1964C54.747 36.0388 54.5148 35.9378 54.2686 35.9046L53.8806 35.8126C53.4562 35.7547 53.0289 35.7213 52.6006 35.7126C51.7926 35.6606 50.9926 35.5286 50.2126 35.3186C49.9726 35.1846 49.7726 34.9846 49.6366 34.7426L49.0966 34.5826C49.6724 30.3826 48.686 26.1174 46.3246 22.5966L46.7966 22.1606C46.7766 21.8866 46.8666 21.6146 47.0446 21.4046C47.6586 20.8766 48.3246 20.4106 49.0246 20.0126C49.4047 19.8186 49.7733 19.6029 50.1286 19.3666L50.4206 19.1306C50.6356 18.9972 50.8084 18.8056 50.9191 18.578C51.0297 18.3505 51.0737 18.0962 51.0458 17.8447C51.018 17.5932 50.9195 17.3547 50.7618 17.1569C50.6041 16.959 50.3936 16.8098 50.1546 16.7266C49.9159 16.6435 49.6584 16.6296 49.4121 16.6866C49.1658 16.7436 48.9406 16.8691 48.7626 17.0486L48.4666 17.2846C48.1578 17.5777 47.8659 17.8882 47.5926 18.2146C47.0646 18.8186 46.4806 19.3686 45.8466 19.8606C45.5908 19.9648 45.3109 19.9953 45.0386 19.9486L44.5326 20.3086C41.6126 17.2486 37.6786 15.3486 33.4626 14.9686C33.4626 14.7686 33.4366 14.4686 33.4326 14.3746C33.2066 14.2186 33.0486 13.9806 32.9966 13.7106C32.9689 12.9029 33.0198 12.0945 33.1486 11.2966C33.2346 10.8766 33.2946 10.4566 33.3326 10.0306V9.63063C33.3726 8.86263 32.7926 8.20463 32.0226 8.15063L32.0046 8.14062ZM30.3366 18.4726L29.9366 25.4586H29.9066C29.8866 25.8906 29.6326 26.2586 29.2426 26.4666C28.8526 26.6746 28.3906 26.6126 28.0426 26.3586L22.3126 22.2986C24.1364 20.5073 26.4244 19.2611 28.9186 18.7006C29.3866 18.6006 29.8586 18.5246 30.3326 18.4726H30.3366ZM33.6726 18.4726C36.6826 18.8466 39.4846 20.1986 41.6526 22.3206L35.9766 26.3546C35.6266 26.6346 35.1466 26.6906 34.7406 26.4986C34.3346 26.3066 34.0746 25.8986 34.0686 25.4506L33.6726 18.4726ZM20.2326 24.9266L25.4726 29.6026V29.6326C25.7986 29.9166 25.9406 30.3586 25.8446 30.7806C25.7486 31.2026 25.4246 31.5366 25.0106 31.6506V31.6706L18.2866 33.6046C17.9539 30.5752 18.6393 27.5213 20.2346 24.9246L20.2326 24.9266ZM43.7386 24.9266C45.3306 27.5166 46.0346 30.5546 45.7426 33.5806L39.0086 31.6406V31.6146C38.5886 31.5006 38.2686 31.1666 38.1746 30.7446C38.0806 30.3226 38.2206 29.8846 38.5466 29.5966L43.7466 24.9426L43.7386 24.9266ZM30.9306 29.9666H33.0746L34.3846 31.6306L33.9086 33.7106L31.9826 34.6366L30.0526 33.7106L29.5986 31.6306L30.9306 29.9666ZM37.7986 35.6426C37.8886 35.6326 37.9986 35.6326 38.0686 35.6426L45.0026 36.8126C44.0026 39.6926 42.0286 42.1526 39.4526 43.7986L36.7726 37.3106C36.6989 37.1366 36.6681 36.9473 36.6828 36.7589C36.6975 36.5705 36.7573 36.3883 36.8571 36.2278C36.9568 36.0672 37.0937 35.933 37.2562 35.8364C37.4186 35.7398 37.6019 35.6836 37.7906 35.6726L37.7986 35.6426ZM26.1526 35.6726C26.5446 35.6786 26.9066 35.8806 27.1206 36.2086C27.3346 36.5366 27.3686 36.9486 27.2146 37.3086V37.3346L24.5506 43.7706C22.0006 42.1366 20.0646 39.7066 19.0346 36.8566L25.9086 35.6906C25.9846 35.6826 26.0626 35.6826 26.1406 35.6906L26.1526 35.6726ZM31.9606 38.4726C32.1791 38.4657 32.3953 38.5197 32.5849 38.6285C32.7745 38.7372 32.9302 38.8965 33.0346 39.0886H33.0606L36.4486 45.2026L35.0946 45.6026C32.6026 46.1726 30.0006 46.0386 27.5786 45.2146L30.9786 39.1006C31.1846 38.7406 31.5646 38.5206 31.9786 38.5106L31.9606 38.4726Z" fill="white" stroke="white" stroke-width="0.11"/>
</svg>
