<svg width="19" height="41" viewBox="0 0 19 41" fill="none" xmlns="http://www.w3.org/2000/svg">
<path d="M9.05763 0.109863L10.1476 2.15986C10.3849 2.52965 10.6612 2.87294 10.9716 3.18386C11.8846 4.09686 12.7536 5.05386 13.5316 6.07886C15.3796 8.50586 16.6266 11.2009 17.5176 14.1189C18.0516 15.9009 18.3416 17.7269 18.3636 19.5749C18.4536 25.0979 16.5596 29.8409 12.7296 33.7829C12.1091 34.4077 11.4389 34.9813 10.7256 35.4979C10.3456 35.4979 10.1686 35.1979 10.0126 34.9409C9.71263 34.4409 9.54463 33.8939 9.45563 33.3379C9.32163 32.6699 9.23263 32.0019 9.27763 31.3109V30.9989C9.25563 30.9319 8.92163 0.266864 9.05463 0.110864L9.05763 0.109863Z" fill="#599636"/>
<path d="M9.05719 0.0442611C9.01219 -0.0457389 8.96719 0.0222615 8.92319 0.0662615C8.94519 0.511261 8.78919 0.912261 8.54319 1.29126C8.27619 1.67126 7.91919 1.95926 7.56319 2.27126C5.58119 3.98626 4.02319 6.05726 2.77519 8.37326C1.12719 11.4913 0.25919 14.8313 0.0151897 18.3503C-0.0948103 19.6203 0.41519 24.0963 0.81719 25.3873C1.90719 28.8173 3.86719 31.6893 6.41719 34.1833C7.04119 34.7833 7.70919 35.3413 8.39919 35.8753C8.59919 35.8753 8.62219 35.6973 8.66619 35.5633C8.75393 35.2789 8.82078 34.9884 8.86619 34.6943C9.06619 33.5813 9.17819 32.4673 9.31119 31.3543L9.06619 0.0442611H9.05719Z" fill="#6CAC48"/>
<path d="M10.1506 36.856C10.1956 36.344 10.4506 35.921 10.7076 35.498C10.4406 35.388 10.2396 35.164 10.0836 34.918C9.9496 34.695 9.8386 34.418 9.7496 34.183C9.4376 33.248 9.3696 32.268 9.2816 31.31V30.73C9.1716 30.82 9.1476 31.576 9.1476 31.688C9.0806 32.712 8.9476 33.715 8.7476 34.694C8.6806 35.094 8.6376 35.496 8.3916 35.852C8.3916 35.897 8.3916 35.942 8.4136 36.008C8.8136 37.188 8.9256 38.391 8.9936 39.616V40.061C8.9936 40.595 8.9716 40.484 9.4166 40.661C9.5946 40.728 9.7966 40.751 9.9736 40.884C10.1076 40.884 10.1296 40.774 10.1296 40.684L10.0626 39.949V37.899C10.0406 37.543 10.1076 37.186 10.1526 36.852L10.1506 36.856Z" fill="#C2BFBF"/>
</svg>
