<svg width="41" height="42" viewBox="0 0 41 42" fill="none" xmlns="http://www.w3.org/2000/svg">
<path fill-rule="evenodd" clip-rule="evenodd" d="M23.7741 0.891113C23.4831 0.891113 23.2072 0.955365 22.9615 1.04229C23.4906 1.39757 23.7854 1.86623 23.9328 2.40292C23.9442 2.47851 23.9631 2.52765 23.9706 2.59946C23.9782 2.67127 23.9933 2.72418 23.9933 2.78844C24.0311 3.70686 23.7552 3.82025 23.5549 4.3645C23.4128 4.69328 23.3521 5.05143 23.3777 5.40866C23.4034 5.76589 23.5147 6.11168 23.7023 6.41678C23.7356 6.4978 23.7774 6.57508 23.827 6.64733C23.4301 4.00922 25.6298 3.61237 26.038 2.79221C26.0682 2.03631 25.4711 1.5941 25.0062 1.25773C24.6374 1.02517 24.2101 0.901977 23.7741 0.902451V0.891113ZM27.0887 1.4845C27.0509 1.72261 27.0774 1.66214 27.066 1.78686L27.0434 2.05899L26.9678 2.30844C26.9448 2.39308 26.917 2.47636 26.8846 2.55788L26.7712 2.796C26.741 2.83379 26.7183 2.87914 26.6881 2.92072L26.6238 3.01521L26.4727 3.22308C26.4084 3.28733 26.3593 3.35914 26.2837 3.41206C26.2081 3.46497 26.159 3.53678 26.0871 3.5897C25.8679 3.756 25.6185 3.88072 25.3879 4.04324C25.3123 4.09615 25.2368 4.13773 25.1801 4.19442C25.1234 4.25111 25.044 4.30025 24.9835 4.36072C24.9231 4.42119 24.8588 4.48544 24.7946 4.55725C24.7303 4.62907 24.6812 4.69332 24.6434 4.76513L24.4922 4.98434L24.3788 5.22245L24.2957 5.46056L24.2201 5.72513C24.2087 5.76292 24.2087 5.81962 24.1974 5.86119C24.186 5.90277 24.186 5.94434 24.1747 5.98592L24.1634 6.25048C24.1619 6.31368 24.1657 6.37689 24.1747 6.43946C24.1747 6.52261 24.186 6.60576 24.2049 6.70403C24.2238 6.80229 24.2352 6.87033 24.2579 6.95348L24.341 7.20292C24.3637 7.25584 24.3939 7.30875 24.4166 7.35411L22.0204 6.42434L20.8109 6.11064L20.1533 5.95946C19.5259 5.83493 18.8926 5.74159 18.256 5.67977C17.6184 5.60949 16.9774 5.57416 16.336 5.57395L14.9753 5.62686C14.3358 5.67283 13.6988 5.74977 13.0667 5.85741L12.598 5.94056L11.6607 6.14844L11.192 6.27316L10.7385 6.4697L10.3983 6.62088L10.0582 6.78718C10.0279 6.79851 10.0053 6.80985 9.98258 6.81741L9.65754 6.98371C9.58195 7.01395 9.50636 7.0593 9.44967 7.08954C9.41943 7.11222 9.37408 7.12733 9.35518 7.14245L9.08305 7.29363C8.98857 7.34655 8.90542 7.39946 8.83361 7.44481L8.62573 7.59599L8.39896 7.76229L8.22132 7.91347C8.10794 7.99662 8.05502 8.04954 8.00211 8.09111L7.77534 8.31033L7.56746 8.50686L7.38983 8.69584C7.36715 8.71852 7.33691 8.73363 7.31424 8.76009C7.26132 8.82434 7.20085 8.88481 7.1366 8.94907L6.85691 9.25143L6.28998 9.7919C6.10567 9.95631 5.91128 10.109 5.70794 10.2492L5.08054 10.6461C4.86751 10.7631 4.64793 10.8679 4.4229 10.9598C4.20368 11.0543 3.96935 11.1374 3.74258 11.2092C3.30416 11.3037 2.85817 11.4813 2.46888 11.5116C2.38573 11.5116 2.29124 11.5343 2.20431 11.5418L1.93975 11.6061L1.6903 11.7006C1.60715 11.7308 1.524 11.7762 1.44085 11.8139C1.3577 11.8517 1.28967 11.9084 1.21408 11.9651C1.14013 12.0187 1.07062 12.0781 1.0062 12.1428C0.930613 12.1957 0.855024 12.2675 0.798331 12.3317L0.620692 12.5396C0.567779 12.6228 0.507307 12.6908 0.469511 12.7777C0.431716 12.8647 0.363685 12.9289 0.31833 13.0158L0.204945 13.288L0.110456 13.5601L0.0575429 13.8095C0.0273067 13.9343 0.0273067 14.059 0.0197476 14.1232C0.0121886 14.1875 -0.00292969 14.2593 -0.00292969 14.3311C-0.00292969 14.3689 -0.00292961 14.4256 0.00840897 14.4672C0.0197476 14.5428 0.0310861 14.6032 0.0462042 14.6637L0.121795 14.8527C0.152031 14.9283 0.197385 14.9888 0.23518 15.0492L0.371243 15.2382L0.548882 15.4045C0.613134 15.4688 0.673606 15.5179 0.745417 15.5708C0.994865 15.79 1.05912 15.8618 1.38038 16.0243C1.43329 16.0546 1.4862 16.0773 1.54668 16.1075C1.59959 16.2587 1.62227 16.3343 1.64117 16.4212C1.66006 16.5081 1.69408 16.5988 1.72431 16.6706L1.80746 16.8596L1.95865 17.1393L2.10983 17.3585L2.28746 17.5551C2.35172 17.6193 2.41219 17.6684 2.484 17.7327L2.69187 17.8839C2.76494 17.9353 2.84204 17.9808 2.92243 18.0199C2.99802 18.0577 3.07361 18.1031 3.16054 18.1333C3.22479 18.1636 3.2966 18.1862 3.36841 18.2089C3.44022 18.2316 3.50447 18.2467 3.54605 18.2618C3.51581 18.8288 3.50825 19.3957 3.58384 19.5469C3.67833 19.7547 4.13565 19.1198 4.59676 18.3903C4.5325 19.1462 4.49093 19.9551 4.59676 20.2045C4.70258 20.4539 5.33754 19.6527 5.8818 18.7532C13.2746 17.0448 20.0172 22.1547 20.7353 29.3661C20.5993 28.2398 19.2122 27.6162 18.581 27.7711C18.2673 28.5421 17.7382 29.5324 16.8802 30.1522C16.9544 29.4555 16.9187 28.7515 16.7744 28.0659C16.5476 29.0259 16.0941 29.9179 15.4818 30.6927C15.0043 30.7252 14.5261 30.6394 14.0897 30.4429C13.6533 30.2465 13.272 29.9454 12.9797 29.5664C12.942 29.5362 12.9268 29.4719 12.8966 29.4303L12.787 29.1733C12.7568 29.0977 12.7341 29.0221 12.7227 28.9541C12.7114 28.8861 12.7114 28.8029 12.7114 28.7273V28.5762C12.7227 28.5006 12.7416 28.425 12.7643 28.3569L12.8399 28.1377C12.8777 28.0621 12.9155 27.9865 12.9646 27.9185C13.1423 27.4196 13.1423 27.0114 12.8134 26.7733C12.7492 26.7355 12.6887 26.6977 12.6169 26.6675C12.5791 26.6562 12.5224 26.6373 12.4809 26.6297L12.3977 26.5995L12.1785 26.5465C12.1072 26.5263 12.0334 26.5161 11.9593 26.5163C11.883 26.5035 11.806 26.4959 11.7287 26.4936C11.6758 26.4936 11.6229 26.505 11.5775 26.505C11.4944 26.505 11.4264 26.5163 11.3508 26.5352L11.1316 26.573L10.9123 26.6486L10.7045 26.7431L10.5079 26.8489C8.0777 28.4363 9.52526 32.1402 11.1883 33.2212C10.5609 33.3346 9.92589 33.4706 9.75203 33.6067C10.1791 33.8977 10.6478 34.1283 11.1391 34.3626L12.8286 34.8615C13.6911 35.0465 14.5749 35.1126 15.4553 35.058C20.0739 34.733 23.861 31.2218 24.5489 26.5919L24.6131 26.864L24.7076 27.4461C24.7303 27.5519 24.7379 27.6426 24.7454 27.7258L24.7681 28.0395L24.7908 28.3796V28.5459C24.7908 28.5988 24.8021 28.6593 24.8021 28.7122C24.8021 28.7651 24.7908 28.8369 24.7908 28.9012V29.0524C24.7908 29.128 24.7794 29.1884 24.7794 29.2602C24.7794 29.298 24.7794 29.3434 24.7681 29.3963L24.7568 29.6231C24.7454 29.6533 24.7454 29.6873 24.7454 29.7176L24.7152 29.9557C24.7152 29.9859 24.7152 30.0199 24.7038 30.0502L24.666 30.3525V30.3714L24.6018 30.6625L24.5375 30.9762L24.3712 31.6187L24.2654 31.9513L24.0386 32.556L23.9139 32.8584L23.7627 33.1494C23.7514 33.1796 23.7401 33.2023 23.7325 33.225C23.0375 34.6169 22.0267 35.8271 20.7807 36.7588C20.6975 36.8117 20.6144 36.8722 20.5312 36.9365C20.5086 36.9591 20.4783 36.9667 20.4557 36.9894L20.2289 37.1406L20.2591 37.2048H20.2705L20.7089 37.1406H20.7202L21.5328 36.9894C21.6084 36.978 21.684 36.9591 21.7596 36.9365L21.9108 36.9062L22.13 36.8684L22.319 36.8155C23.3521 36.5635 24.3633 36.2286 25.3426 35.8139C23.6674 38.0967 21.4396 39.9161 18.8683 41.1015C20.0721 41.0218 21.2642 40.8153 22.4248 40.4854C26.6276 39.2458 30.1615 36.4187 32.278 32.6127C31.8509 35.0202 30.8909 37.3144 29.4736 39.3176C30.4865 38.6486 31.4125 37.8814 32.2591 37.0045C34.5949 34.5629 36.1294 31.4675 36.6434 28.1415C36.9986 29.7894 37.0969 31.4902 36.9457 33.1683C44.4746 22.6687 37.5731 11.7837 34.678 8.91505C34.6402 8.99064 34.6251 9.11159 34.6175 9.24009L34.5117 9.9393L34.3341 10.6272L34.0846 11.2962L33.7709 11.9311L33.393 12.5245L32.9659 13.0914C32.8147 13.2804 32.6408 13.4467 32.4745 13.613L32.1722 13.8776L31.9341 14.0854C31.7486 14.2332 31.5542 14.3696 31.352 14.4936L30.736 14.8489L30.0783 15.1399C29.8565 15.2239 29.6307 15.2971 29.4018 15.3591L28.7026 15.5103C28.4645 15.5481 28.2226 15.5746 27.992 15.5935L27.4931 15.6162C27.255 15.6162 27.0131 15.5935 26.7826 15.5784C26.5437 15.5607 26.3063 15.5266 26.072 15.4763C25.8339 15.4385 25.6034 15.3705 25.3728 15.2987H25.3615L26.0494 15.2155L26.7486 15.0643L27.4289 14.8451C27.6557 14.762 27.8824 14.6562 28.0865 14.5541C28.3012 14.4498 28.5105 14.335 28.7139 14.2102L29.296 13.8322C29.4832 13.6872 29.6611 13.5307 29.8289 13.3636C30.0031 13.2039 30.1672 13.0335 30.3202 12.8533L30.7586 12.2864C30.7813 12.2562 30.7964 12.2108 30.8229 12.1806L31.1253 11.6817L31.439 11.0467L31.6884 10.3777C31.764 10.1585 31.8131 9.92418 31.866 9.69741L31.9719 8.9982L32.0097 8.28765L31.9908 7.78875L31.9076 7.08954L31.7564 6.39033L31.5297 5.72135C31.4465 5.50214 31.3407 5.28292 31.2386 5.07883L30.8834 4.46277L30.5054 3.88828L30.0254 3.35914L29.7533 3.09458L28.3057 2.07411C28.2301 2.03631 28.1697 1.99851 28.0979 1.96828C27.7577 1.74907 27.4289 1.63568 27.1076 1.52985L27.0887 1.4845Z" fill="#EA2845"/>
</svg>
