<svg width="502" height="508" viewBox="0 0 502 508" fill="none" xmlns="http://www.w3.org/2000/svg">
<path d="M468.125 207.809C479.65 173.232 475.694 135.386 457.287 103.905C429.591 55.7375 373.854 30.9655 319.493 42.4915C307.498 29.0488 292.783 18.3089 276.323 10.9836C259.863 3.65831 242.034 -0.0850938 224.018 0.00146764C168.454 0.00146764 119.082 35.7825 101.879 88.5945C66.098 95.9915 35.305 118.354 17.242 150.008C-10.626 198.175 -4.26102 258.728 33.068 300.015C21.543 334.593 25.499 372.439 43.906 403.748C71.602 452.088 127.339 476.859 181.872 465.333C205.956 492.513 240.705 508.168 277.175 507.996C332.739 507.996 382.111 472.214 399.314 419.402C435.096 412.005 465.888 389.642 483.779 357.989C511.819 309.821 505.455 249.267 468.125 207.981V207.809ZM428.558 120.591C439.568 139.858 443.697 162.394 439.912 184.241C439.224 183.725 437.848 183.037 436.988 182.521L335.836 124.031C333.29 122.594 330.416 121.838 327.492 121.838C324.569 121.838 321.695 122.594 319.149 124.031L200.623 192.499V142.267L298.506 85.6705C344.093 59.3505 402.238 75.0045 428.558 120.591ZM200.623 225.011L250.511 196.111L300.398 225.011V282.641L250.511 311.541L200.623 282.641V225.011ZM223.846 33.2015C246.21 33.2015 267.713 40.9435 284.916 55.2215C284.228 55.5655 282.852 56.4255 281.819 56.9415L180.668 115.259C175.507 118.184 172.41 123.689 172.41 129.709V266.643L128.887 241.527V128.332C128.887 75.6925 171.378 33.2025 224.018 33.0305L223.846 33.2015ZM46.142 166.696C57.324 147.428 74.699 132.634 95.686 124.893V245.139C95.686 251.159 98.783 256.493 103.944 259.589L222.298 327.884L178.603 353.172L80.892 296.747C35.477 270.427 19.822 212.282 46.142 166.695V166.696ZM72.807 387.406C61.625 368.311 57.668 345.604 61.453 323.756C62.141 324.272 63.517 324.96 64.377 325.476L165.529 383.966C168.075 385.404 170.949 386.16 173.872 386.16C176.796 386.16 179.67 385.404 182.216 383.966L300.57 315.499V365.731L202.687 422.156C157.1 448.304 98.955 432.821 72.635 387.406H72.807ZM277.347 474.796C255.155 474.796 233.48 467.055 216.449 452.776C217.497 452.233 218.53 451.659 219.546 451.056L320.698 392.739C325.858 389.815 329.127 384.309 328.955 378.289V241.526L372.478 266.642V379.664C372.478 432.304 329.815 474.967 277.347 474.967V474.795V474.796ZM455.222 341.302C444.04 360.569 426.493 375.363 405.678 382.932V262.686C405.678 256.665 402.581 251.16 397.421 248.236L278.895 179.769L322.418 154.653L420.301 211.077C465.888 237.397 481.371 295.543 455.051 341.13L455.223 341.302H455.222Z" fill="black"/>
</svg>
