<svg width="2427" height="1029" viewBox="0 0 2427 1029" fill="none" xmlns="http://www.w3.org/2000/svg">
<path fill-rule="evenodd" clip-rule="evenodd" d="M482.888 758.277C321.454 758.277 272.052 623.975 272.052 530.593C272.052 437.211 321.454 302.883 482.888 302.883C644.323 302.883 693.725 437.211 693.725 530.593C693.725 623.975 644.323 758.277 482.888 758.277ZM482.888 354.697C388.922 354.697 332.296 428.793 332.296 530.593C332.296 632.406 388.922 706.476 482.888 706.476C576.854 706.476 633.48 632.406 633.48 530.593C633.48 428.806 576.854 354.697 482.888 354.697ZM726.136 470.258H770.026V509.4H771.089C782.191 493.538 803.345 462.333 853.577 462.333C927.09 462.333 979.488 524.627 979.488 602.368C979.488 668.488 941.382 754.788 847.235 754.788C810.219 754.788 785.888 737.331 773.735 717.76H772.672V856.329H726.136V470.258ZM843.746 714.582C894.523 714.582 928.919 670.602 928.919 609.786C928.919 574.353 914.6 504.109 842.683 504.109C775.512 504.109 768.106 576.545 768.106 621.511C768.119 695.024 814.123 714.582 843.746 714.582ZM1261.11 660.122C1259.54 673.351 1246.85 712.481 1211.93 735.736C1199.23 744.192 1181.26 754.788 1136.84 754.788C1059.1 754.788 1013.08 696.1 1013.08 616.219C1013.08 530.554 1054.34 462.32 1145.82 462.32C1225.69 462.32 1264.82 525.781 1264.82 623.612H1062.81C1062.81 681.263 1089.78 714.582 1143.19 714.582C1187.09 714.582 1213 680.744 1214.59 660.122H1261.11ZM1211.8 586.609C1209.16 543.77 1191.18 504.109 1134.59 504.109C1091.75 504.109 1057.9 543.77 1057.9 586.609H1211.8ZM1522.04 746.851H1475.5V576.545C1475.5 528.44 1461.74 504.109 1416.28 504.109C1389.84 504.109 1343.3 521.021 1343.3 596.129V746.851H1296.74V470.258H1340.64V509.4H1341.71C1351.76 494.589 1377.67 462.333 1425.25 462.333C1468.11 462.333 1522.04 479.79 1522.04 558.569V746.851ZM1792.15 513.732H1972.87V746.864H1912.62L1903.61 692.65C1880.7 719.147 1847.58 758.29 1768.67 758.29C1664.46 758.29 1569.87 683.61 1569.87 531.799C1569.87 413.748 1635.55 302.299 1781.32 302.909C1913.86 302.909 1966.27 389.054 1971.08 448.689H1880.72C1880.72 431.828 1849.99 377.615 1786.13 377.615C1721.68 377.615 1662.06 422.192 1662.06 533.031C1662.06 651.108 1726.51 681.833 1787.96 681.833C1807.81 681.833 1874.09 673.987 1892.78 586.635H1792.16V513.732H1792.15Z" fill="#8D3DFA"/>
<path fill-rule="evenodd" clip-rule="evenodd" d="M0.0109786 514.23C-2.42734 773.794 401.594 1030.91 910.916 1028.44C1420.24 1026 1679.82 786.024 1679.82 786.024C1716.55 744.404 1655.32 771.329 1655.32 771.329C1564.71 830.095 1296.14 956.382 883.991 906.02C443.227 852.144 305.112 730.695 281.611 607.288L269.769 537.173C269.432 491.364 277.201 439.316 299.249 392.781C343.321 299.736 477.506 161.621 883.991 122.452C1297.29 82.6088 1564.71 198.364 1655.32 257.13C1655.32 257.13 1716.55 284.068 1679.82 242.435C1679.82 242.435 1420.24 2.46868 910.916 0.0173902C401.607 -2.4339 -2.42734 254.666 0.0109786 514.23ZM2123.97 668.531H2339V746.855H2033.61V314.353H2123.97V668.531ZM2388.34 709.061V712.965H2376.06V746.855H2371.2V712.965H2358.83V709.061H2388.34ZM2399.85 709.061L2409.27 739.229H2409.46L2419.26 709.061H2426.51V746.855H2422.23V712.965H2422.02L2410.91 746.855H2407.67L2397.2 712.965H2396.99V746.855H2392.71V709.061H2399.85Z" fill="#8D3DFA"/>
</svg>
