<svg width="31" height="32" viewBox="0 0 31 32" fill="none" xmlns="http://www.w3.org/2000/svg">
<path d="M23.141 23.2646C23.338 21.6246 23.279 21.3846 24.501 21.6506L24.801 21.6776C25.741 21.7206 26.968 21.5276 27.691 21.1916C29.244 20.4716 30.165 19.2676 28.634 19.5836C25.14 20.3036 24.9 19.1216 24.9 19.1216C28.59 13.6476 30.13 6.69861 28.8 4.99861C25.17 0.358609 18.884 2.55361 18.78 2.61061L18.747 2.61661C18.057 2.47361 17.284 2.38661 16.417 2.37361C14.837 2.34761 13.637 2.78761 12.717 3.47861C12.717 3.47861 1.50502 -1.14139 2.01702 9.28861C2.12702 11.5066 5.19702 26.0746 8.85702 21.6746C10.195 20.0646 11.487 18.7046 11.487 18.7046C12.129 19.1316 12.887 19.3486 13.704 19.2706L13.766 19.2176C13.7473 19.4265 13.7557 19.6369 13.791 19.8436C12.848 20.8966 13.125 21.0836 11.241 21.4706C9.33402 21.8636 10.454 22.5636 11.186 22.7466C12.073 22.9686 14.126 23.2826 15.511 21.3416L15.456 21.5636C15.826 21.8596 15.801 23.6906 15.853 24.9986C15.905 26.3066 15.993 27.5286 16.26 28.2486C16.527 28.9686 16.84 30.8226 19.32 30.2916C21.39 29.8476 22.974 29.2096 23.118 23.2686" fill="#231F20"/>
<path d="M23.141 23.2646C23.338 21.6246 23.279 21.3846 24.501 21.6506L24.801 21.6776C25.741 21.7206 26.968 21.5276 27.691 21.1916C29.244 20.4716 30.165 19.2676 28.634 19.5836C25.14 20.3036 24.9 19.1216 24.9 19.1216C28.59 13.6476 30.13 6.69861 28.8 4.99861C25.17 0.358609 18.884 2.55361 18.78 2.61061L18.747 2.61661C18.057 2.47361 17.284 2.38661 16.417 2.37361C14.837 2.34761 13.637 2.78761 12.717 3.47861C12.717 3.47861 1.50502 -1.14139 2.01702 9.28861C2.12702 11.5066 5.19702 26.0746 8.85702 21.6746C10.195 20.0646 11.487 18.7046 11.487 18.7046C12.129 19.1316 12.887 19.3486 13.704 19.2706L13.766 19.2176C13.7473 19.4265 13.7557 19.6369 13.791 19.8436C12.848 20.8966 13.125 21.0836 11.241 21.4706C9.33402 21.8636 10.454 22.5636 11.186 22.7466C12.073 22.9686 14.126 23.2826 15.511 21.3416L15.456 21.5636C15.826 21.8596 15.801 23.6906 15.853 24.9986C15.905 26.3066 15.993 27.5286 16.26 28.2486C16.527 28.9686 16.84 30.8226 19.32 30.2916C21.39 29.8476 22.974 29.2096 23.118 23.2686" stroke="#231F20" stroke-width="2.598"/>
<path d="M28.6419 19.5836C25.1479 20.3036 24.9079 19.1216 24.9079 19.1216C28.5979 13.6476 30.1379 6.69863 28.8079 4.99763C25.1779 0.357632 18.8919 2.55263 18.7879 2.60963L18.7539 2.61563C18.0639 2.47263 17.2909 2.38563 16.4239 2.37263C14.8439 2.34663 13.6439 2.78663 12.7239 3.47763C12.7239 3.47763 1.51185 -1.14237 2.02385 9.28763C2.13385 11.5076 5.20385 26.0736 8.86385 21.6736C10.2019 20.0636 11.4939 18.7036 11.4939 18.7036C12.1359 19.1306 12.9039 19.3476 13.7099 19.2696L13.7729 19.2166C13.7529 19.4166 13.7629 19.6116 13.7979 19.8426C12.8549 20.8956 13.1319 21.0826 11.2479 21.4696C9.34085 21.8626 10.4609 22.5626 11.1929 22.7456C12.0799 22.9676 14.1329 23.2816 15.5179 21.3406L15.4629 21.5626C15.8329 21.8586 16.0929 23.4876 16.0479 24.9626C16.0029 26.4376 15.9759 27.4526 16.2679 28.2446C16.5599 29.0366 16.8479 30.8186 19.3279 30.2876C21.3979 29.8436 22.4718 28.6936 22.6208 26.7756C22.7268 25.4116 22.9669 25.6136 22.9809 24.3956L23.1729 23.8186C23.3949 21.9686 23.2079 21.3736 24.4829 21.6516L24.7829 21.6786C25.7229 21.7216 26.9509 21.5286 27.6729 21.1926C29.2259 20.4726 30.1469 19.2686 28.6159 19.5846L28.6419 19.5836Z" fill="#417BA2"/>
<path d="M15.6853 20.6433C15.5893 24.0833 15.7093 27.5463 16.0453 28.3883C16.3813 29.2303 17.1023 30.8683 19.5813 30.3363C21.6513 29.8923 22.4053 29.0333 22.7313 27.1363L23.4963 21.0733M12.7253 3.40029C12.7253 3.40029 1.50534 -1.18571 2.02534 9.24229C2.12534 11.4623 5.20534 26.0293 8.86535 21.6293C10.2033 20.0293 11.4123 18.7593 11.4123 18.7593M18.7753 2.56329C18.3753 2.68529 25.0153 0.14029 28.7833 4.96329C30.1133 6.66329 28.5833 13.6133 24.8833 19.0873" stroke="white" stroke-width="0.866" stroke-linecap="round" stroke-linejoin="round"/>
<path d="M24.8823 19.0782C24.8823 19.0782 25.1223 20.2612 28.6173 19.5402C30.1473 19.2242 29.2173 20.4272 27.6743 21.1482C26.4003 21.7382 23.5443 21.8912 23.4963 21.0742C23.3763 18.9642 25.0003 19.6062 24.8823 19.0782ZM24.8823 19.0782C24.7763 18.6022 24.0503 18.1352 23.5703 16.9712C23.1503 15.9542 17.8203 8.15921 25.0503 9.31721C25.3153 9.26221 23.1643 2.44021 16.3983 2.32921C9.63233 2.21821 9.85633 10.6492 9.85633 10.6492" stroke="white" stroke-width="0.866" stroke-linecap="round" stroke-linejoin="bevel"/>
<path d="M13.792 19.7981C12.849 20.8511 13.126 21.0381 11.242 21.4251C9.33496 21.8181 10.455 22.5181 11.187 22.7011C12.074 22.9231 14.127 23.2371 15.512 21.2961C15.934 20.7061 15.51 19.7621 14.93 19.5211C14.65 19.4051 14.275 19.2611 13.794 19.7981H13.792Z" stroke="white" stroke-width="0.866" stroke-linejoin="round"/>
<path d="M13.7296 19.7802C13.6346 19.1602 13.9336 18.4242 14.2526 17.5602C14.7326 16.2662 15.8526 14.9722 14.9556 10.8682C14.2956 7.81024 9.85759 10.2312 9.85559 10.6462C9.85359 11.0612 10.0556 12.7482 9.78159 14.7132C9.42159 17.2772 11.4116 19.4462 13.7046 19.2232" stroke="white" stroke-width="0.866" stroke-linecap="round" stroke-linejoin="round"/>
<path d="M12.6739 10.5854C12.6539 10.7274 12.9339 11.1054 13.2969 11.1554C13.6599 11.2054 13.9719 10.9104 13.9909 10.7694C14.0099 10.6284 13.7309 10.4714 13.3669 10.4194C13.0029 10.3674 12.6919 10.4424 12.6729 10.5844L12.6739 10.5854Z" fill="white" stroke="white" stroke-width="0.289"/>
<path d="M23.7477 10.2964C23.7677 10.4384 23.4877 10.8164 23.1247 10.8664C22.7617 10.9164 22.4497 10.6214 22.4297 10.4804C22.4097 10.3394 22.6897 10.1824 23.0537 10.1324C23.4177 10.0824 23.7287 10.1554 23.7487 10.2974L23.7477 10.2964Z" fill="white" stroke="white" stroke-width="0.144"/>
<path d="M25.0485 9.31641C25.1085 10.4264 24.8085 11.1844 24.7715 12.3664C24.7155 14.0864 25.5915 16.0534 24.2715 18.0234" stroke="white" stroke-width="0.866" stroke-linecap="round" stroke-linejoin="round"/>
</svg>
