<svg width="54" height="64" viewBox="0 0 54 64" fill="none" xmlns="http://www.w3.org/2000/svg">
<path d="M45.4145 18.8073L40.768 23.4538C48.5122 31.1979 48.5122 43.8099 40.768 51.554C33.0238 59.2982 20.4119 59.2982 12.6677 51.554C4.92356 43.8099 4.92356 31.1979 12.6677 23.4538L25.0584 11.0631L26.6072 9.293V0L7.79996 18.8073C5.32874 21.2536 3.367 24.1655 2.02817 27.3747C0.689344 30.5839 0 34.0267 0 37.5039C0 40.9812 0.689344 44.4239 2.02817 47.6331C3.367 50.8423 5.32874 53.7542 7.79996 56.2006C10.2463 58.6718 13.1582 60.6335 16.3674 61.9723C19.5766 63.3112 23.0193 64.0005 26.4966 64.0005C29.9739 64.0005 33.4166 63.3112 36.6258 61.9723C39.835 60.6335 42.7469 58.6718 45.1932 56.2006C55.8138 45.8012 55.8138 28.9853 45.4145 18.8073Z" fill="#EE4C2C"/>
<path d="M36.1222 17.4788C38.0774 17.4788 39.6624 15.8938 39.6624 13.9386C39.6624 11.9834 38.0774 10.3984 36.1222 10.3984C34.167 10.3984 32.582 11.9834 32.582 13.9386C32.582 15.8938 34.167 17.4788 36.1222 17.4788Z" fill="#EE4C2C"/>
</svg>
