<svg width="64" height="58" viewBox="0 0 64 58" fill="none" xmlns="http://www.w3.org/2000/svg">
<path d="M63.41 29.1652C63.41 24.9682 58.1546 20.9907 50.0971 18.5242C51.9565 10.3109 51.1302 3.77642 47.4886 1.68434C46.6492 1.19361 45.6681 0.96115 44.5963 0.96115V3.84099C45.1902 3.84099 45.6681 3.95722 46.0683 4.17674C47.8244 5.18403 48.5864 9.01949 47.9921 13.9526C47.8504 15.1666 47.6179 16.445 47.3338 17.7493C44.8027 17.1295 42.0395 16.6517 39.1342 16.3417C37.3911 13.9526 35.5833 11.7831 33.7625 9.88473C37.972 5.97179 41.9234 3.82805 44.6093 3.82805V0.948242C41.0581 0.948242 36.4097 3.47939 31.7096 7.87013C27.0092 3.50521 22.3608 0.999903 18.8098 0.999903V3.87971C21.4827 3.87971 25.4468 6.01054 29.6563 9.89764C27.8485 11.796 26.0407 13.9526 24.3233 16.3417C21.405 16.6517 18.6418 17.1295 16.111 17.7622C15.8139 16.4709 15.5944 15.2182 15.4394 14.0172C14.8327 9.08406 15.5814 5.24859 17.3249 4.2284C17.7121 3.99594 18.2156 3.89265 18.8098 3.89265V1.01281C17.725 1.01281 16.7436 1.24527 15.8916 1.73601C12.263 3.82805 11.4496 10.3496 13.3218 18.5371C5.29017 21.0166 0.0605469 24.9812 0.0605469 29.1652C0.0605469 33.3625 5.31598 37.34 13.3735 39.8064C11.514 48.0198 12.3403 54.5541 15.9819 56.6462C16.8213 57.1368 17.8024 57.3693 18.8872 57.3693C22.4381 57.3693 27.0868 54.8382 31.7869 50.4475C36.487 54.8125 41.1357 57.3179 44.6867 57.3179C45.7712 57.3179 46.7526 57.0854 47.605 56.5945C51.2333 54.5024 52.0469 47.9808 50.1744 39.7936C58.1803 37.327 63.41 33.3495 63.41 29.1652ZM46.5978 20.5517C46.12 22.2177 45.526 23.935 44.8544 25.6526C44.3252 24.6197 43.7699 23.5865 43.163 22.5532C42.569 21.5202 41.9361 20.5129 41.3035 19.5315C43.137 19.8027 44.9061 20.1384 46.5978 20.5517ZM40.6836 34.305C39.6765 36.0486 38.6436 37.7015 37.5718 39.2383C35.6477 39.4061 33.6981 39.4965 31.7353 39.4965C29.7854 39.4965 27.8355 39.4061 25.9247 39.251C24.8529 37.7142 23.8068 36.0743 22.7996 34.3437C21.8182 32.6521 20.9275 30.9345 20.1138 29.2042C20.9145 27.4736 21.8182 25.743 22.7869 24.0514C23.7941 22.3081 24.8269 20.655 25.8987 19.1182C27.8228 18.9503 29.7724 18.8599 31.7353 18.8599C33.6851 18.8599 35.635 18.9503 37.5458 19.1053C38.6176 20.6421 39.6637 22.2821 40.6709 24.0127C41.6523 25.7043 42.5431 27.4219 43.3567 29.1525C42.5431 30.8828 41.6523 32.6134 40.6836 34.305ZM44.8544 32.6264C45.5323 34.3093 46.127 36.0246 46.6365 37.7659C44.9448 38.1791 43.163 38.528 41.3165 38.7991C41.9491 37.8049 42.5817 36.7847 43.176 35.7385C43.7699 34.7055 44.3252 33.6593 44.8544 32.6264ZM31.761 46.4056C30.5601 45.1656 29.3592 43.7839 28.1713 42.273C29.3335 42.3247 30.5214 42.3634 31.7223 42.3634C32.9361 42.3634 34.137 42.3377 35.3122 42.273C34.2038 43.7135 33.0183 45.0931 31.761 46.4056ZM22.154 38.7991C20.3205 38.528 18.5514 38.1921 16.86 37.7789C17.3376 36.113 17.9318 34.3954 18.6031 32.6778C19.1326 33.711 19.6879 34.7442 20.2945 35.7771C20.9015 36.8104 21.5214 37.8176 22.154 38.7991ZM31.6966 11.9251C32.8974 13.1649 34.0983 14.5467 35.2862 16.0576C34.124 16.0059 32.9361 15.9672 31.7353 15.9672C30.5214 15.9672 29.3205 15.993 28.1456 16.0576C29.254 14.6171 30.4393 13.2376 31.6966 11.9251ZM22.141 19.5315C21.5084 20.5259 20.8758 21.546 20.2818 22.5919C19.6879 23.6252 19.1326 24.6584 18.6031 25.6913C17.9252 24.0084 17.3305 22.2931 16.8213 20.5517C18.5127 20.1513 20.2945 19.8027 22.141 19.5315ZM10.4552 35.6998C5.88416 33.7497 2.92715 31.1929 2.92715 29.1652C2.92715 27.1377 5.88416 24.568 10.4552 22.6309C11.5657 22.153 12.7795 21.7268 14.0321 21.3265C14.7681 23.8576 15.7365 26.4921 16.9374 29.1912C15.7495 31.8773 14.7938 34.4988 14.0708 37.0171C12.7925 36.6166 11.5786 36.1777 10.4552 35.6998ZM17.4022 54.1539C15.6461 53.1466 14.8841 49.3112 15.4784 44.3779C15.6204 43.1642 15.8526 41.8855 16.1367 40.5811C18.6678 41.2011 21.431 41.679 24.3363 41.9889C26.0794 44.3779 27.8872 46.5474 29.708 48.4458C25.4985 52.3589 21.5471 54.5024 18.8612 54.5024C18.2803 54.4897 17.7897 54.3733 17.4022 54.1539ZM48.0311 44.3135C48.6378 49.2465 47.8891 53.0819 46.1457 54.1022C45.7585 54.3346 45.2549 54.438 44.6607 54.438C41.9878 54.438 38.0237 52.3072 33.8142 48.4201C35.622 46.5217 37.4298 44.3652 39.1472 41.9759C42.0655 41.666 44.8287 41.1881 47.3595 40.5554C47.6566 41.8598 47.8891 43.1125 48.0311 44.3135ZM53.0024 35.6998C51.8919 36.1777 50.678 36.6039 49.4254 37.0041C48.6895 34.4731 47.721 31.8386 46.5202 29.1395C47.7083 26.4534 48.6638 23.8319 49.3868 21.3136C50.6653 21.7139 51.8789 22.153 53.0153 22.6309C57.5864 24.5807 60.5434 27.1377 60.5434 29.1652C60.5304 31.1929 57.5734 33.7627 53.0024 35.6998Z" fill="#61DAFB"/>
<circle cx="32" cy="29" r="6" fill="#61DAFB"/>
</svg>
