<svg width="400" height="400" viewBox="0 0 400 400" fill="none" xmlns="http://www.w3.org/2000/svg">
<path d="M397.264 195.101L380.476 184.701C380.335 183.071 380.177 181.441 380.001 179.814L394.426 166.351C395.154 165.684 395.697 164.841 396.004 163.903C396.311 162.965 396.372 161.963 396.179 160.995C395.987 160.027 395.549 159.124 394.907 158.375C394.265 157.625 393.441 157.053 392.514 156.714L374.064 149.814C373.604 148.221 373.124 146.633 372.626 145.051L384.126 129.064C384.704 128.266 385.069 127.333 385.184 126.355C385.3 125.376 385.163 124.384 384.788 123.474C384.412 122.563 383.809 121.763 383.037 121.151C382.265 120.539 381.349 120.135 380.376 119.976L360.914 116.814C360.164 115.339 359.376 113.889 358.576 112.439L366.751 94.5014C367.169 93.6058 367.349 92.6178 367.274 91.6325C367.198 90.6472 366.87 89.6979 366.321 88.8763C365.772 88.0547 365.021 87.3884 364.139 86.9418C363.258 86.4951 362.276 86.2832 361.289 86.3264L341.551 87.0139C340.53 85.7393 339.488 84.4808 338.426 83.2389L342.964 64.0014C343.194 63.0424 343.175 62.0403 342.907 61.091C342.64 60.1417 342.133 59.2769 341.436 58.5795C340.738 57.8821 339.874 57.3754 338.924 57.1078C337.975 56.8402 336.973 56.8208 336.014 57.0514L316.789 61.5764C315.539 60.5264 314.289 59.4889 313.001 58.4514L313.689 38.7264C313.732 37.7392 313.52 36.7575 313.073 35.876C312.627 34.9945 311.961 34.243 311.139 33.694C310.317 33.145 309.368 32.817 308.383 32.7417C307.398 32.6664 306.409 32.8462 305.514 33.2639L287.576 41.4389C286.127 40.6383 284.669 39.8549 283.201 39.0889L280.039 19.6389C279.881 18.6673 279.478 17.7522 278.868 16.9802C278.257 16.2083 277.459 15.6052 276.55 15.2283C275.641 14.8513 274.65 14.713 273.673 14.8265C272.695 14.9399 271.763 15.3013 270.964 15.8764L254.964 27.3764C253.387 26.8753 251.804 26.3961 250.214 25.9389L243.314 7.48891C242.973 6.56337 242.401 5.74065 241.652 5.09952C240.903 4.4584 240.001 4.02029 239.034 3.82713C238.067 3.63397 237.067 3.69223 236.129 3.99631C235.191 4.3004 234.346 4.84014 233.676 5.56389L220.214 20.0139C218.589 19.8389 216.964 19.6639 215.326 19.5389L204.926 2.73889C204.409 1.90153 203.686 1.21034 202.826 0.730979C201.966 0.25162 200.998 0 200.014 0C199.029 0 198.061 0.25162 197.202 0.730979C196.342 1.21034 195.619 1.90153 195.101 2.73889L184.701 19.5389C183.076 19.6639 181.439 19.8389 179.814 20.0139L166.351 5.57638C165.678 4.8622 164.833 4.33079 163.898 4.03193C162.963 3.73307 161.967 3.67654 161.004 3.86766C160.041 4.05879 159.142 4.49131 158.392 5.12468C157.641 5.75804 157.064 6.57153 156.714 7.48891L149.814 25.9389C148.214 26.4014 146.626 26.8889 145.064 27.3889L129.064 15.8764C128.268 15.2912 127.334 14.921 126.354 14.8015C125.373 14.682 124.378 14.8172 123.465 15.1941C122.552 15.5709 121.751 16.1767 121.14 16.9531C120.529 17.7295 120.128 18.6501 119.976 19.6264L116.801 39.0889C115.339 39.8514 113.889 40.6389 112.426 41.4389L94.5014 33.2639C93.6068 32.8468 92.6199 32.667 91.6357 32.7417C90.6515 32.8165 89.7032 33.1434 88.8819 33.6909C88.0606 34.2384 87.3941 34.9881 86.9466 35.8678C86.499 36.7476 86.2854 37.7277 86.3264 38.7139L87.0139 58.4639C85.7389 59.4889 84.4764 60.5264 83.2264 61.5889L64.0014 57.0514C63.043 56.8292 62.0438 56.8544 61.0978 57.1247C60.1518 57.395 59.2901 57.9015 58.5938 58.5966C57.8975 59.2917 57.3895 60.1524 57.1175 61.0979C56.8454 62.0434 56.8184 63.0426 57.0389 64.0014L61.5764 83.2389C60.5139 84.4889 59.4764 85.7389 58.4514 87.0139L38.7139 86.3264C37.729 86.2903 36.7513 86.5068 35.8738 86.9554C34.9963 87.4039 34.2481 88.0696 33.7006 88.889C33.1531 89.7085 32.8243 90.6544 32.7457 91.6368C32.6671 92.6191 32.8412 93.6053 33.2514 94.5014L41.4264 112.451C40.6389 113.889 39.8514 115.339 39.0889 116.826L19.6389 119.976C18.6653 120.133 17.7479 120.536 16.9743 121.147C16.2006 121.759 15.5963 122.558 15.2191 123.469C14.8419 124.38 14.7043 125.373 14.8193 126.352C14.9344 127.331 15.2983 128.265 15.8764 129.064L27.3764 145.051C26.8764 146.626 26.4014 148.214 25.9389 149.801L7.48891 156.714C6.56673 157.058 5.74794 157.633 5.11032 158.383C4.47271 159.133 4.03742 160.034 3.8458 160.999C3.65418 161.965 3.71259 162.964 4.01548 163.9C4.31837 164.837 4.85567 165.681 5.57638 166.351L20.0139 179.814C19.8264 181.439 19.6639 183.064 19.5264 184.701L2.73889 195.101C1.90153 195.619 1.21034 196.342 0.730979 197.202C0.25162 198.061 0 199.029 0 200.014C0 200.998 0.25162 201.966 0.730979 202.826C1.21034 203.686 1.90153 204.409 2.73889 204.926L19.5264 215.314C19.6639 216.951 19.8264 218.589 20.0139 220.214L5.57638 233.676C4.85567 234.347 4.31837 235.191 4.01548 236.127C3.71259 237.064 3.65418 238.063 3.8458 239.028C4.03742 239.994 4.47271 240.895 5.11032 241.645C5.74794 242.395 6.56673 242.969 7.48891 243.314L25.9389 250.214C26.4014 251.814 26.8889 253.401 27.3889 254.964L15.8764 270.964C15.3013 271.763 14.9399 272.695 14.8265 273.673C14.713 274.65 14.8513 275.641 15.2283 276.55C15.6052 277.459 16.2083 278.257 16.9802 278.868C17.7522 279.478 18.6673 279.881 19.6389 280.039L39.0889 283.201C39.8514 284.676 40.6264 286.139 41.4389 287.576L33.2514 305.514C32.8412 306.41 32.6671 307.396 32.7457 308.379C32.8243 309.361 33.1531 310.307 33.7006 311.126C34.2481 311.946 34.9963 312.611 35.8738 313.06C36.7513 313.508 37.729 313.725 38.7139 313.689L58.4514 313.001C59.4764 314.289 60.5139 315.539 61.5764 316.789L57.0389 336.026C56.8063 336.986 56.8249 337.99 57.0928 338.94C57.3607 339.891 57.869 340.757 58.5686 341.454C59.2683 342.151 60.1356 342.656 61.0872 342.92C62.0387 343.185 63.0424 343.2 64.0014 342.964L83.2264 338.439C84.4764 339.501 85.7389 340.526 87.0139 341.551L86.3264 361.301C86.289 362.286 86.5049 363.265 86.9534 364.142C87.4019 365.02 88.0681 365.768 88.8883 366.315C89.7084 366.862 90.6551 367.189 91.6379 367.265C92.6206 367.342 93.6065 367.165 94.5014 366.751L112.439 358.576C113.876 359.376 115.339 360.164 116.814 360.926L119.976 380.364C120.128 381.34 120.528 382.262 121.138 383.039C121.748 383.816 122.548 384.424 123.46 384.803C124.373 385.182 125.368 385.32 126.349 385.204C127.33 385.087 128.265 384.721 129.064 384.139L145.051 372.614C146.626 373.114 148.214 373.614 149.801 374.064L156.701 392.514C157.04 393.441 157.612 394.265 158.362 394.907C159.112 395.549 160.014 395.987 160.983 396.179C161.951 396.372 162.952 396.311 163.89 396.004C164.828 395.697 165.672 395.154 166.339 394.426L179.814 379.989C181.439 380.176 183.064 380.339 184.701 380.489L195.101 397.276C195.621 398.111 196.345 398.799 197.204 399.276C198.064 399.754 199.031 400.004 200.014 400.004C200.997 400.004 201.964 399.754 202.823 399.276C203.683 398.799 204.407 398.111 204.926 397.276L215.314 380.476C216.951 380.339 218.589 380.176 220.214 379.989L233.676 394.426C234.344 395.151 235.186 395.691 236.123 395.997C237.06 396.302 238.059 396.361 239.025 396.169C239.991 395.977 240.892 395.54 241.641 394.9C242.39 394.26 242.961 393.438 243.301 392.514L250.214 374.064C251.801 373.614 253.389 373.114 254.964 372.614L270.964 384.139C271.764 384.711 272.697 385.069 273.675 385.18C274.652 385.291 275.642 385.151 276.55 384.773C277.458 384.395 278.255 383.792 278.866 383.02C279.476 382.249 279.88 381.335 280.039 380.364L283.214 360.914C284.676 360.164 286.126 359.364 287.576 358.576L305.514 366.751C306.41 367.165 307.397 367.342 308.381 367.265C309.364 367.188 310.312 366.86 311.133 366.312C311.953 365.763 312.619 365.014 313.067 364.134C313.514 363.255 313.729 362.275 313.689 361.289L313.001 341.539C314.276 340.539 315.539 339.501 316.789 338.439L336.014 342.964C336.972 343.197 337.974 343.18 338.924 342.915C339.874 342.649 340.739 342.143 341.437 341.447C342.135 340.75 342.642 339.886 342.909 338.936C343.177 337.987 343.196 336.985 342.964 336.026L338.439 316.789C339.489 315.539 340.526 314.289 341.551 313.001L361.301 313.689C362.288 313.73 363.268 313.516 364.147 313.069C365.027 312.621 365.777 311.955 366.324 311.133C366.872 310.312 367.199 309.364 367.274 308.38C367.348 307.395 367.169 306.408 366.751 305.514L358.576 287.576C359.376 286.139 360.151 284.676 360.914 283.201L380.364 280.039C381.339 279.888 382.259 279.488 383.035 278.879C383.811 278.269 384.418 277.47 384.796 276.559C385.174 275.647 385.31 274.654 385.193 273.674C385.076 272.694 384.709 271.761 384.126 270.964L372.626 254.964C373.124 253.386 373.603 251.803 374.064 250.214L392.514 243.314C393.441 242.975 394.265 242.403 394.907 241.653C395.549 240.903 395.987 240.001 396.179 239.033C396.372 238.065 396.311 237.063 396.004 236.125C395.697 235.187 395.154 234.344 394.426 233.676L379.989 220.214C380.164 218.589 380.326 216.951 380.476 215.314L397.264 204.926C398.101 204.409 398.792 203.686 399.272 202.826C399.751 201.966 400.003 200.998 400.003 200.014C400.003 199.029 399.751 198.061 399.272 197.202C398.792 196.342 398.101 195.619 397.264 195.101ZM284.876 334.401C281.864 333.669 279.257 331.79 277.609 329.165C275.96 326.539 275.402 323.374 276.052 320.343C276.702 317.312 278.509 314.655 281.088 312.936C283.668 311.217 286.816 310.572 289.864 311.139C292.888 311.862 295.509 313.739 297.166 316.369C298.823 319 299.385 322.174 298.732 325.214C298.079 328.253 296.262 330.916 293.67 332.633C291.078 334.35 287.93 334.985 284.876 334.401ZM279.164 295.814C277.774 295.517 276.338 295.496 274.94 295.754C273.542 296.011 272.208 296.541 271.014 297.315C269.821 298.088 268.792 299.088 267.985 300.259C267.179 301.43 266.611 302.748 266.314 304.139L260.351 331.964C241.395 340.561 220.816 344.994 200.001 344.964C178.001 344.964 157.126 340.089 138.389 331.376L132.426 303.564C132.131 302.172 131.564 300.853 130.758 299.68C129.952 298.508 128.923 297.506 127.73 296.732C126.536 295.957 125.202 295.426 123.803 295.167C122.404 294.909 120.968 294.929 119.576 295.226L95.0139 300.501C90.4498 295.804 86.2068 290.806 82.3139 285.539H201.826C203.176 285.539 204.076 285.289 204.076 284.064V241.789C204.076 240.551 203.176 240.314 201.826 240.314H166.876V213.501H204.676C208.126 213.501 223.126 214.489 227.926 233.664C229.426 239.551 232.726 258.739 234.976 264.876C237.226 271.764 246.376 285.526 256.126 285.526H315.676C316.402 285.52 317.126 285.449 317.839 285.314C313.714 290.926 309.176 296.239 304.301 301.189L279.176 295.801L279.164 295.814ZM113.876 333.814C110.829 334.381 107.68 333.736 105.101 332.017C102.521 330.298 100.714 327.64 100.064 324.609C99.4144 321.578 99.973 318.413 101.621 315.788C103.269 313.162 105.877 311.284 108.889 310.551C110.417 310.225 111.995 310.202 113.532 310.485C115.069 310.768 116.535 311.351 117.846 312.201C119.158 313.051 120.289 314.15 121.176 315.437C122.063 316.724 122.687 318.173 123.014 319.701C123.341 321.23 123.363 322.807 123.08 324.344C122.797 325.881 122.214 327.347 121.364 328.659C120.515 329.971 119.415 331.102 118.128 331.989C116.841 332.875 115.392 333.5 113.864 333.826L113.876 333.814ZM68.5389 149.976C69.1717 151.402 69.5175 152.938 69.5566 154.498C69.5956 156.057 69.3272 157.609 68.7665 159.064C68.2059 160.52 67.3641 161.851 66.2891 162.981C65.2141 164.111 63.9271 165.019 62.5014 165.651C61.0757 166.284 59.5394 166.63 57.9801 166.669C56.4208 166.708 54.8691 166.44 53.4135 165.879C51.9579 165.318 50.627 164.477 49.4968 163.402C48.3666 162.327 47.4592 161.04 46.8264 159.614C45.5484 156.735 45.4665 153.466 46.5988 150.526C47.731 147.586 49.9846 145.217 52.8639 143.939C55.7432 142.661 59.0122 142.579 61.9518 143.711C64.8914 144.843 67.2609 147.097 68.5389 149.976ZM54.6014 183.014L80.1889 171.639C82.8148 170.469 84.8688 168.304 85.9 165.621C86.9312 162.937 86.8553 159.954 85.6889 157.326L80.4264 145.414H101.151V238.839H59.3389C54.1771 220.71 52.5767 201.755 54.6014 183.014ZM166.889 173.939V146.401H216.239C218.789 146.401 234.239 149.351 234.239 160.901C234.239 170.489 222.389 173.939 212.639 173.939H166.889ZM346.251 198.726C346.251 202.376 346.114 205.989 345.839 209.576H330.839C329.339 209.576 328.739 210.576 328.739 212.039V218.926C328.739 235.151 319.589 238.676 311.576 239.576C303.951 240.426 295.476 236.376 294.439 231.701C289.939 206.389 282.439 200.976 270.589 191.626C285.289 182.301 300.589 168.526 300.589 150.089C300.589 130.176 286.939 117.639 277.639 111.489C264.589 102.889 250.139 101.164 246.239 101.164H91.0639C112.505 77.1822 141.264 60.9505 172.876 54.9889L191.164 74.1764C195.301 78.5014 202.164 78.6764 206.476 74.5264L226.951 54.9514C247.81 58.8678 267.567 67.2731 284.854 79.5847C302.14 91.8963 316.543 107.82 327.064 126.251L313.051 157.901C311.888 160.529 311.814 163.511 312.845 166.194C313.876 168.876 315.928 171.041 318.551 172.214L345.539 184.189C346.001 188.976 346.251 193.814 346.251 198.726ZM191.176 38.6639C192.304 37.5853 193.634 36.7397 195.089 36.1754C196.544 35.6111 198.096 35.3391 199.657 35.3751C201.217 35.4111 202.755 35.7543 204.182 36.3851C205.61 37.0159 206.899 37.922 207.976 39.0514C209.055 40.1824 209.9 41.5147 210.464 42.9724C211.027 44.43 211.298 45.9844 211.261 47.5467C211.224 49.1091 210.879 50.6489 210.247 52.0781C209.615 53.5073 208.707 54.7979 207.576 55.8764C206.449 56.9538 205.119 57.7982 203.665 58.3613C202.21 58.9244 200.659 59.1951 199.1 59.1579C197.54 59.1208 196.004 58.7765 194.578 58.1448C193.152 57.513 191.864 56.6063 190.789 55.4764C188.616 53.1929 187.437 50.1413 187.509 46.9901C187.582 43.8389 188.901 40.8448 191.176 38.6639ZM330.214 150.551C331.494 147.672 333.865 145.419 336.805 144.288C339.746 143.157 343.016 143.24 345.895 144.52C348.774 145.8 351.027 148.171 352.158 151.112C353.29 154.052 353.206 157.322 351.926 160.201C351.293 161.627 350.385 162.914 349.254 163.989C348.123 165.063 346.791 165.905 345.335 166.465C343.879 167.025 342.327 167.293 340.767 167.253C339.207 167.213 337.671 166.866 336.245 166.233C334.819 165.599 333.533 164.691 332.458 163.56C331.383 162.429 330.542 161.097 329.982 159.641C329.422 158.185 329.154 156.633 329.194 155.073C329.234 153.514 329.58 151.977 330.214 150.551Z" fill="#7E003D"/>
</svg>
