<svg width="81" height="63" viewBox="0 0 81 63" fill="none" xmlns="http://www.w3.org/2000/svg">
<g clip-path="url(#clip0_257_57)">
<path d="M13.1574 48.0837C13.6462 47.5986 14.3183 47.3157 15.0311 47.3157H79.6763C80.8576 47.3157 81.4483 48.7305 80.6132 49.5592L67.843 62.2319C67.3542 62.717 66.6821 63 65.9693 63H1.32406C0.142769 63 -0.447877 61.5852 0.387175 60.7565L13.1574 48.0837Z" fill="url(#paint0_linear_257_57)"/>
<path d="M13.1574 0.768046C13.6665 0.282964 14.3386 0 15.0311 0H79.6763C80.8576 0 81.4483 1.41482 80.6132 2.2435L67.843 14.9163C67.3542 15.4013 66.6821 15.6843 65.9693 15.6843H1.32406C0.142769 15.6843 -0.447877 14.2695 0.387175 13.4408L13.1574 0.768046Z" fill="url(#paint1_linear_257_57)"/>
<path d="M67.843 24.2744C67.3542 23.7893 66.6821 23.5063 65.9693 23.5063H1.32406C0.142769 23.5063 -0.447877 24.9212 0.387175 25.7499L13.1574 38.4226C13.6462 38.9077 14.3183 39.1907 15.0311 39.1907H79.6763C80.8576 39.1907 81.4483 37.7758 80.6132 36.9472L67.843 24.2744Z" fill="url(#paint2_linear_257_57)"/>
</g>
<defs>
<linearGradient id="paint0_linear_257_57" x1="73.5008" y1="-7.57039" x2="29.2973" y2="77.748" gradientUnits="userSpaceOnUse">
<stop stop-color="#00FFA3"/>
<stop offset="1" stop-color="#DC1FFF"/>
</linearGradient>
<linearGradient id="paint1_linear_257_57" x1="53.9382" y1="-17.7058" x2="9.73468" y2="67.6127" gradientUnits="userSpaceOnUse">
<stop stop-color="#00FFA3"/>
<stop offset="1" stop-color="#DC1FFF"/>
</linearGradient>
<linearGradient id="paint2_linear_257_57" x1="63.6573" y1="-12.6702" x2="19.4537" y2="72.6482" gradientUnits="userSpaceOnUse">
<stop stop-color="#00FFA3"/>
<stop offset="1" stop-color="#DC1FFF"/>
</linearGradient>
<clipPath id="clip0_257_57">
<rect width="81" height="63" fill="white"/>
</clipPath>
</defs>
</svg>
