<svg width="404" height="442" viewBox="0 0 404 442" fill="none" xmlns="http://www.w3.org/2000/svg">
<path d="M255.378 206.55L167.03 235.399L90.1679 269.322L68.6646 274.999C63.1882 280.208 57.446 285.484 51.2354 290.826C44.424 296.702 38.0801 302.045 33.2045 305.918C27.7958 310.192 19.7822 318.205 15.7091 323.279C9.63185 330.892 4.82396 338.972 2.75366 345.183C-0.919467 356.403 0.884443 367.755 7.96279 378.24C17.0446 391.595 35.1421 405.217 56.2435 414.5C66.9956 419.242 85.0924 425.318 98.7148 428.723C121.352 434.467 165.16 440.677 189.266 441.613C194.14 441.813 200.685 441.813 200.952 441.613C201.487 441.278 205.226 434.133 209.568 425.252C224.393 395.001 235.077 366.62 240.886 342.379C244.359 327.689 247.096 308.122 248.899 284.951C249.367 278.473 249.567 256.77 249.166 249.423C248.565 237.403 247.496 227.654 245.828 218.105C245.561 216.702 245.493 215.433 245.627 215.366C245.893 215.166 246.695 214.899 257.58 211.76L255.377 206.552V206.55H255.378V206.55ZM235.211 218.37C236.013 218.37 238.149 238.871 238.683 251.827C238.817 254.565 238.749 256.368 238.616 256.368C238.083 256.368 227.33 250.024 219.652 245.217C212.974 241.009 200.286 232.595 198.283 230.992C197.614 230.525 197.681 230.458 203.157 228.588C212.439 225.449 234.477 218.37 235.211 218.37ZM190.202 233.196C190.804 233.196 192.338 234.063 196.012 236.334C209.768 244.948 228.466 255.366 236.48 258.839C238.95 259.908 239.216 259.506 233.541 263.38C221.387 271.66 206.228 279.807 187.663 288.021C184.392 289.49 181.654 290.625 181.588 290.625C181.454 290.625 181.854 288.957 182.388 286.953C186.862 270.324 189.4 253.496 189.534 240.006C189.601 233.328 189.601 233.328 190.202 233.129C190.068 233.196 190.134 233.196 190.202 233.196ZM180.92 236.735C181.32 237.135 181.053 252.094 180.519 256.167C179.317 265.917 177.447 274.999 174.376 285.217C173.641 287.686 172.973 289.757 172.84 289.89C172.572 290.224 163.423 281.276 160.418 277.803C155.209 271.793 151.137 265.783 148.131 259.907C146.595 256.901 144.192 251.026 144.392 250.825C145.46 250.09 180.653 236.468 180.92 236.735ZM137.246 253.896C137.313 253.896 137.379 253.896 137.447 253.963C137.58 254.097 138.048 255.166 138.449 256.367C140.585 262.177 145.392 270.725 149.534 276.201C154.075 282.211 160.019 288.621 164.959 292.828C166.562 294.164 168.031 295.432 168.231 295.633C168.632 296.034 168.765 295.967 157.88 300.107C145.26 304.915 131.503 309.723 115.743 314.798C111.978 316.012 108.217 317.236 104.459 318.471C103.857 318.672 104.058 318.338 105.794 315.6C113.607 303.379 125.493 279.406 132.171 262.444C133.307 259.506 134.442 256.568 134.642 255.9C134.91 254.964 135.243 254.631 136.111 254.163C136.578 254.031 137.046 253.896 137.246 253.896ZM123.892 259.439C124.091 259.573 120.686 266.718 117.347 273.262C110.869 285.883 103.79 298.305 94.3079 313.397C92.7053 316.001 91.1699 318.405 90.9691 318.672C90.6356 319.14 90.5014 319.006 89.4331 316.936C87.1627 312.462 85.2923 306.718 84.2908 301.443C83.2888 296.234 83.4896 287.152 84.6252 281.543C85.4924 277.403 85.4265 277.47 87.4297 276.468C95.9772 272.128 123.624 259.172 123.892 259.439ZM239.084 264.114V266.919C239.084 281.81 237.482 302.245 235.144 317.137C234.743 319.741 234.408 321.877 234.342 321.945C234.342 321.945 232.406 321.411 230.135 320.742C220.119 317.604 209.234 312.996 199.417 307.588C192.939 304.048 183.524 298.238 183.791 297.97C183.857 297.904 186.662 296.435 189.934 294.698C203.024 287.887 215.577 280.542 226.462 273.263C230.536 270.525 236.679 266.118 238.016 264.916L239.084 264.114ZM73.4725 283.88C73.7395 283.88 73.6727 284.414 73.272 286.818C73.0047 288.555 72.6713 291.76 72.5385 293.963C72.003 303.713 73.6068 310.925 78.4147 320.808C79.7502 323.546 80.8194 325.817 80.7516 325.883C80.2839 326.284 36.0773 339.24 22.1863 343.046C18.0464 344.181 14.441 345.183 14.1725 345.249C13.7059 345.383 13.6388 345.316 13.839 344.18C15.3747 334.364 22.8543 321.543 33.2713 310.724C40.2166 303.512 45.7596 299.306 55.242 293.896C62.0534 290.023 72.5376 284.214 73.3389 283.946C73.3395 283.88 73.406 283.88 73.4725 283.88ZM177.648 302.511C177.714 302.444 179.317 303.313 181.253 304.448C195.544 312.729 215.444 320.409 232.405 324.348L233.942 324.682L231.804 325.883C222.923 330.825 193.741 342.979 163.891 354.131C159.55 355.733 155.277 357.337 154.474 357.67C153.673 358.004 152.938 358.204 152.938 358.138C152.938 358.07 154.141 355.733 155.676 352.862C164.023 337.236 172.438 318.204 176.712 304.982C177.247 303.713 177.58 302.578 177.648 302.511ZM167.03 305.984C167.098 306.052 166.563 307.453 165.895 309.056C160.085 323.146 152.471 338.506 142.722 355.734C140.252 360.142 138.181 363.682 138.113 363.682C138.048 363.682 136.044 362.479 133.64 361.01C119.482 352.329 106.928 341.644 98.7151 331.293L97.5126 329.824L103.589 328.155C125.359 322.212 143.856 315.801 162.221 307.921C164.826 306.853 166.963 305.984 167.03 305.984ZM233.007 329.023C233.074 330.559 229.668 344.315 226.863 354.264C224.526 362.612 222.522 369.157 218.85 380.708C217.247 385.785 215.846 389.991 215.778 389.991C215.711 389.991 215.311 389.924 214.91 389.792C195.077 386.184 177.314 381.176 160.619 374.499C155.944 372.628 149.267 369.623 148.866 369.29C148.733 369.155 152.74 367.286 157.815 365.082C188.199 351.793 219.718 336.701 230.536 330.225C231.805 329.423 232.807 329.023 233.007 329.023ZM80.6851 334.232C80.8188 334.365 72.3377 346.586 60.4506 363.213C56.3106 369.023 51.5027 375.834 49.7 378.372C47.8967 380.91 45.1591 384.917 43.6231 387.321L40.8171 391.661L37.8119 389.124C34.2724 386.185 28.1296 379.908 25.3917 376.435C19.6483 369.291 15.7759 361.745 14.2399 354.867C13.5051 351.661 13.5051 350.058 14.1721 349.859C15.1736 349.592 33.0037 345.384 49.6994 341.51C58.9817 339.374 69.7322 336.837 73.6055 335.902C77.4791 334.965 80.6186 334.232 80.6851 334.232ZM89.2324 337.504L91.3685 339.908C100.986 350.659 110.802 358.607 122.689 365.551C124.826 366.754 126.428 367.821 126.294 367.889C125.828 368.223 85.0249 382.712 66.1269 389.257C55.5096 392.996 46.761 396.001 46.6951 396.001C46.6286 396.001 46.0272 395.601 45.3583 395.133L44.1571 394.265L46.0934 391.461C52.3702 382.379 60.2513 372.429 77.4132 351.728L89.2324 337.504ZM142.523 375.634C142.588 375.568 145.527 376.635 149.132 377.972C157.815 381.244 164.692 383.314 173.908 385.651C185.261 388.523 201.688 391.328 211.371 392.129C212.841 392.262 213.642 392.396 213.375 392.597C212.906 392.864 203.091 396.136 195.879 398.407C184.392 402.012 149.333 412.362 120.752 420.577C115.477 422.113 110.935 423.382 110.668 423.448C110.001 423.582 107.797 422.98 107.797 422.713C107.797 422.58 109.399 420.51 111.336 418.24C120.952 406.753 130.502 393.932 138.449 381.778C140.652 378.438 142.523 375.701 142.523 375.634ZM130.768 375.969C130.835 376.035 126.094 383.647 117.815 396.736C114.274 402.279 110.334 408.556 108.932 410.76C107.596 412.896 105.593 416.236 104.458 418.105L102.521 421.511L101.52 421.244C99.1151 420.576 82.2205 414.632 77.7461 412.83C72.2032 410.626 66.4604 407.955 62.1861 405.685C56.8446 402.813 50.1672 398.539 50.7008 398.406C50.8342 398.339 59.9831 395.868 71.001 392.863C100.251 384.916 116.477 380.308 127.096 376.97C129.033 376.369 130.702 375.901 130.768 375.969ZM213.908 395.467H213.975C214.242 396.135 203.425 426.186 199.483 435.668C198.616 437.805 198.283 438.34 197.815 438.272C196.679 438.206 180.987 436.002 171.437 434.6C154.81 432.062 126.895 427.186 119.884 425.585L118.282 425.251L128.23 422.979C149.6 418.171 159.884 415.567 170.301 412.362C183.457 408.355 196.48 403.347 209.634 397.203C211.704 396.268 213.441 395.534 213.908 395.467Z" fill="url(#paint0_linear_273_211)"/>
<path d="M164.292 0.604006C162.823 0.404768 139.115 8.95231 123.824 15.162C103.189 23.5771 87.1626 31.591 77.2789 38.5344C73.6067 41.1399 68.998 45.7471 68.2645 47.5497C67.9975 48.2177 67.8633 49.0189 67.8633 49.8202L76.8121 58.3012L98.1139 65.1126L148.799 74.1947L206.763 84.1449L207.364 79.1366C207.164 79.1366 207.03 79.07 206.831 79.07L199.216 77.8675L197.682 75.1299C189.801 61.2396 181.12 44.0106 176.045 32.391C172.106 23.3757 168.366 12.9592 166.295 5.47965C165.16 0.938737 165.027 0.671753 164.293 0.605237V0.603696H164.292V0.604006ZM163.222 4.01077H163.291C163.356 4.07667 163.624 5.94772 163.891 8.15012C165.025 17.5005 167.097 26.5142 170.369 36.2643C172.839 43.6102 172.839 43.2099 169.968 42.3412C163.157 40.472 132.639 35.1963 110.535 32.1246C106.996 31.6569 103.991 31.1897 103.991 31.1232C103.724 30.8562 119.95 22.3746 127.096 19.0365C136.245 14.8285 161.353 4.34427 163.222 4.01077ZM98.8478 33.9273L101.453 34.7945C115.609 39.6033 151.202 46.415 170.836 48.0175C173.039 48.218 174.909 48.4188 174.975 48.4188C175.042 48.4853 173.173 49.487 170.768 50.6218C161.287 55.3631 150.869 61.1731 143.656 65.6475C141.52 66.9824 139.583 68.0516 139.316 68.0516C139.049 68.0516 137.647 67.7843 136.178 67.5838L133.507 67.1826L126.83 60.6379C115.077 49.2194 105.861 40.4049 102.321 37.0652L98.8478 33.9273ZM96.1776 35.997L105.593 47.7505C110.735 54.2281 115.943 60.5717 117.08 61.9734C118.214 63.3767 119.149 64.5124 119.083 64.5789C118.816 64.7791 105.461 62.1742 98.3813 60.5723C91.1024 58.9023 88.0975 58.1011 83.6234 56.6993L79.9503 55.4968V54.5613C80.0168 50.0869 85.6937 43.4095 95.3095 36.5987L96.1776 35.997ZM176.178 52.0241C176.446 52.0241 176.779 52.6249 177.58 54.4279C179.85 59.436 186.93 72.926 188.665 75.53C189.201 76.399 190.134 76.4655 180.719 74.9295C158.082 71.2557 150.802 70.0551 150.802 69.9214C150.802 69.8549 151.47 69.3871 152.338 68.9194C159.35 65.047 166.428 60.1048 172.706 54.8292C174.242 53.5601 175.644 52.3583 175.911 52.1575C175.977 52.0241 176.112 51.9576 176.178 52.0241Z" fill="url(#paint1_linear_273_211)"/>
<path d="M68.7306 46.6147C68.7306 46.6147 67.2623 48.9529 68.6644 52.4256C69.5334 54.5618 72.0705 57.1658 74.9415 59.8375C74.9415 59.8375 104.658 88.8191 108.264 92.96C124.691 111.925 131.837 130.623 132.505 156.4C132.905 172.961 129.766 187.518 121.953 204.414C108.063 234.732 78.747 268.188 33.5381 305.317L40.1502 303.113C44.4238 299.907 50.2338 296.502 63.8562 289.023C95.3085 271.793 130.701 255.967 174.108 239.673C236.611 216.166 339.385 188.653 397.882 179.705L403.96 178.77L403.024 177.301C397.683 169.02 394.009 163.878 389.601 158.403C376.781 142.509 361.222 129.621 342.189 118.936C316.012 104.313 282.154 92.8935 239.283 84.4125C231.203 82.809 213.44 79.7376 199.016 77.534C168.431 72.7938 148.664 69.521 126.895 65.7814C119.082 64.4452 107.395 62.4423 99.6489 60.7733C95.6423 59.9043 87.9634 58.1016 81.9533 56.0316C77.1454 54.1609 70.1998 52.291 68.7306 46.6147ZM85.9606 63.3101C86.0265 63.2442 87.0947 63.6436 88.498 64.1114C91.0354 64.9786 94.3073 65.9806 98.1815 67.0498C101.112 67.8559 104.051 68.635 106.996 69.3867C111.003 70.3879 114.341 71.3231 114.408 71.3231C114.876 71.7908 121.621 93.3588 123.891 101.64C124.758 104.779 125.427 107.45 125.36 107.45C125.292 107.517 124.558 106.381 123.691 104.846C115.877 91.0889 103.523 77.1324 89.2321 65.9132C87.3633 64.5788 85.9606 63.3766 85.9606 63.3101ZM118.816 72.3919C119.15 72.3919 120.619 72.5924 122.421 72.9927C133.773 75.5302 154.141 79.4035 167.163 81.6074C169.367 81.9409 171.103 82.3425 171.103 82.4752C171.103 82.6095 170.301 83.076 169.299 83.6109C167.096 84.7456 158.214 90.0207 155.277 92.0245C147.864 96.966 141.187 102.308 136.378 107.116C134.442 109.053 132.771 110.656 132.771 110.656C132.771 110.656 132.372 109.521 132.037 108.118C129.634 98.8352 124.625 85.0785 120.084 75.3962C119.349 73.8608 118.748 72.4582 118.748 72.3251C118.748 72.4585 118.748 72.3919 118.816 72.3919ZM176.645 83.4104C177.046 83.5434 177.714 85.8142 179.049 90.8223C181.52 100.506 182.656 111.324 182.255 121.407C182.121 124.212 181.988 126.816 181.854 127.151L181.654 127.818L178.181 126.683C171.036 124.413 159.417 121.006 149.467 118.202C143.79 116.666 139.184 115.264 139.184 115.13C139.184 114.729 147.465 106.449 151.003 103.311C157.747 97.3663 176.044 83.2096 176.645 83.4104ZM181.253 84.0774C181.454 83.8782 208.9 88.6183 221.388 91.0227C230.67 92.8254 244.159 95.6305 244.96 95.9649C245.361 96.0979 243.958 96.8992 239.484 98.9024C221.855 106.85 208.765 113.994 195.745 122.676C192.339 124.947 189.467 126.816 189.401 126.816C189.334 126.816 189.267 124.88 189.267 122.542C189.267 109.855 186.73 97.0331 182.054 86.2151C181.587 85.1466 181.186 84.1452 181.253 84.0774ZM252.239 98.1017C252.439 98.3019 251.571 103.711 250.77 106.916C248.366 116.866 241.888 131.625 233.943 145.515C232.539 147.986 231.271 149.989 231.136 150.055C231.004 150.122 229.201 149.12 227.13 147.918C219.384 143.377 210.57 139.104 200.953 135.096C198.283 133.962 195.945 133.026 195.878 132.894C195.41 132.492 216.913 118.269 228.265 111.457C237.281 105.982 251.971 97.8341 252.239 98.1017ZM257.314 98.9027C257.915 98.9027 270.069 102.242 276.412 104.112C292.105 108.787 310.135 115.397 321.888 120.739L326.762 122.944L323.358 123.745C294.644 130.355 270.069 137.969 246.362 147.585C244.425 148.386 242.689 149.054 242.557 149.054C242.422 149.054 243.09 147.518 243.958 145.648C251.104 130.489 255.712 114.663 256.846 101.173C256.914 99.9038 257.113 98.9027 257.314 98.9027ZM136.312 126.683C136.511 126.482 145.794 128.686 150.802 130.088C158.415 132.225 174.575 137.634 174.575 138.035C174.575 138.102 172.772 139.638 170.636 141.508C161.888 148.787 153.473 156.465 143.389 166.215C140.384 169.088 137.847 171.425 137.714 171.425C137.58 171.425 137.514 171.023 137.58 170.489C139.116 159.27 138.783 144.846 136.646 130.222C136.445 128.351 136.245 126.75 136.312 126.683ZM331.372 126.884C331.504 127.017 327.098 133.962 324.293 137.901C320.287 143.644 314.409 151.258 301.12 167.952C294.11 176.766 286.228 186.717 283.625 190.056C280.953 193.395 278.75 196.199 278.682 196.199C278.616 196.199 277.749 194.997 276.813 193.529C269.334 182.309 260.385 172.493 249.767 163.678C247.764 162.008 245.561 160.205 244.827 159.671C244.092 159.137 243.49 158.603 243.49 158.536C243.49 158.336 254.842 153.46 263.458 149.989C278.55 143.845 299.115 136.499 314.543 131.758C322.623 129.22 331.238 126.75 331.372 126.884ZM336.513 128.218C336.78 128.152 338.383 128.953 340.32 130.088C356.548 139.37 372.44 151.324 384.995 163.611C388.534 167.084 397.282 176.166 397.148 176.233C397.148 176.233 394.076 176.5 390.471 176.766C362.357 178.904 326.364 184.846 291.772 193.194C289.435 193.727 287.365 194.195 287.231 194.195C287.099 194.195 289.702 191.591 292.975 188.453C313.275 168.887 322.558 156.533 333.509 134.495C335.044 131.224 336.38 128.419 336.513 128.218C336.447 128.218 336.447 128.218 336.513 128.218ZM187.797 143.445C188.733 143.644 197.414 147.719 203.958 150.99C209.968 153.994 218.984 158.804 219.451 159.204C219.517 159.27 216.311 160.94 212.373 162.877C199.818 169.154 189.067 175.096 177.847 181.908C174.642 183.845 171.971 185.448 171.905 185.448C171.637 185.448 171.704 185.18 173.507 181.908C179.518 170.957 184.325 157.869 187.064 145.113C187.33 144.112 187.597 143.445 187.797 143.445ZM179.116 145.047C179.317 145.248 177.046 153.461 175.644 157.935C172.906 166.416 168.298 177.034 163.825 185.047C162.755 186.916 161.153 189.654 160.284 191.19L158.615 193.861L154.876 190.256C150.536 186.049 146.996 183.444 142.456 181.107C140.651 180.173 139.25 179.37 139.25 179.238C139.25 178.703 150.669 168.353 159.417 160.873C165.693 155.464 178.916 144.847 179.116 145.047ZM232.206 166.884L235.479 169.02C242.956 173.896 251.771 180.373 258.517 186.049C262.322 189.187 269.667 195.799 271.138 197.401L271.938 198.27L266.53 199.806C235.945 208.286 212.305 215.832 184.726 225.983C181.654 227.118 179.049 228.053 178.848 228.053C178.449 228.053 178.114 228.386 184.993 222.042C202.623 205.816 218.248 187.918 229.868 170.489L232.206 166.884ZM218.249 170.356C218.382 170.489 209.234 183.377 203.757 190.656C197.213 199.338 185.593 213.895 177.58 223.377C174.242 227.318 171.371 230.59 171.237 230.657C171.036 230.723 170.969 229.722 170.969 228.186C170.969 220.105 168.9 211.491 165.293 204.145C163.757 201.074 163.49 200.339 163.825 200.006C165.093 198.87 184.526 187.785 196.813 181.174C205.093 176.767 218.047 170.223 218.249 170.356ZM133.84 191.058C134.041 191.058 135.577 191.858 137.313 192.794C141.587 195.131 145.393 197.735 148.799 200.54C148.932 200.673 147.196 202.076 144.926 203.745C138.582 208.286 128.966 215.565 123.357 220.04C117.479 224.714 117.28 224.847 117.947 223.846C122.355 217.101 124.558 213.295 126.896 208.42C128.966 204.08 131.036 198.938 132.505 194.464C133.039 192.527 133.707 191.058 133.84 191.058ZM156.345 208.687C156.678 208.621 157.08 209.221 158.882 211.893C162.689 217.568 165.627 225.182 166.363 231.325L166.495 232.661L157.347 236.201C140.985 242.544 125.894 248.822 115.676 253.495C112.805 254.832 107.797 257.235 104.525 258.839C101.253 260.507 98.5816 261.776 98.5816 261.71C98.5816 261.643 100.651 260.107 103.189 258.237C123.157 243.747 140.452 227.852 153.407 211.96C154.809 210.29 156.079 208.754 156.211 208.687L156.345 208.687ZM145.995 211.225C146.262 211.492 138.649 220.106 133.441 225.381C120.552 238.537 107.797 248.822 91.9704 258.839C89.9672 260.107 88.1645 261.242 87.9637 261.376C87.496 261.643 88.0968 260.975 95.0421 253.429C99.45 248.687 102.788 244.681 106.595 239.74C109.132 236.468 109.6 236.001 113.273 233.395C123.09 226.316 145.727 210.957 145.995 211.225Z" fill="url(#paint2_radial_273_211)"/>
<defs>
<linearGradient id="paint0_linear_273_211" x1="67.3664" y1="398.123" x2="99.3131" y2="379.246" gradientUnits="userSpaceOnUse">
<stop stop-color="#909CA9"/>
<stop offset="1" stop-color="#EDEDEE"/>
</linearGradient>
<linearGradient id="paint1_linear_273_211" x1="68.0976" y1="42.2439" x2="93.8027" y2="42.2439" gradientUnits="userSpaceOnUse">
<stop stop-color="#939FAB"/>
<stop offset="1" stop-color="#DCDEE1"/>
</linearGradient>
<radialGradient id="paint2_radial_273_211" cx="0" cy="0" r="1" gradientUnits="userSpaceOnUse" gradientTransform="translate(197.806 160.136) rotate(-171.457) scale(33.1411 66.2986)">
<stop stop-color="#EE352C"/>
<stop offset="1" stop-color="#A91D22"/>
</radialGradient>
</defs>
</svg>
