<svg width="41" height="36" viewBox="0 0 41 36" fill="none" xmlns="http://www.w3.org/2000/svg">
<path d="M40.2 9C40.2 8.2 40.1 7.4 39.9 6.6C39.6 5 38.8 3.5 37.5 2.4C36.9 1.8 36.1 1.3 35.3 1C34.5 0.6 33.7 0.4 32.8 0.2C32.1 -1.93715e-07 31.2 0 30.3 0H9.3C8.6 0 8 0.0999998 7.3 0.2C6.7 0.3 6 0.4 5.4 0.7L4.8 0.9C4.2 1.2 3.7 1.5 3.2 1.9C3 2.1 2.9 2.1 2.7 2.3C2.1 2.8 1.5 3.5 1.1 4.2C0.700002 4.9 0.399999 5.7 0.299999 6.5C0.199999 7.3 0.1 8.1 0 8.9V27.2C0 28 0.0999992 28.8 0.299999 29.6C0.599999 31.2 1.4 32.7 2.7 33.8C3.3 34.4 4 34.8 4.8 35.2C5.6 35.6 6.4 35.8 7.3 36C8.2 36 9.1 36 10 36H30.4C31.3 36 32.2 35.9 33 35.8C33.8 35.7 34.7 35.4 35.4 35C36.2 34.6 36.9 34.2 37.6 33.6C38.2 33.1 38.7 32.4 39.1 31.7C39.5 31 39.8 30.2 39.9 29.4C40 28.6 40.1 27.8 40.2 27V9Z" fill="#F05138"/>
<path d="M26.9 27.9002C23.3 29.8002 18.4 29.9002 13.5 28.0002C9.6 26.5002 6.4 24.0002 4 20.7002C5.1 21.5002 6.3 22.1002 7.5 22.6002C12.6 24.7002 17.7 24.6002 21.3 22.6002C16.6 19.2002 12.3 15.2002 8.6 10.8002C8 10.2002 7.4 9.5002 6.9 8.7002C10.8 11.8002 14.9 14.6002 19.2 17.1002C16 14.1002 13.1 10.8002 10.5 7.30019C14.9 11.3002 19.7 14.8002 24.9 17.9002L25.5 18.2002C25.6 17.9002 25.8 17.5002 25.9 17.2002C27.1 13.3002 25.7 8.9002 22.8 5.2002C29.7 9.0002 33.8 16.0002 32.1 21.9002C32.1 22.1002 32 22.2002 32 22.4002L32.1 22.5002C35.5 26.3002 34.6 30.4002 34.1 29.6002C32.1 26.2002 28.7 27.2002 26.9 27.9002Z" fill="#FEFEFE"/>
</svg>
