<svg width="61" height="64" viewBox="0 0 61 64" fill="none" xmlns="http://www.w3.org/2000/svg">
<path d="M25.92 34.453L34.56 29.44L43.093 34.453L34.56 39.36L25.92 34.56V34.453ZM0 19.627L34.56 0L60.267 14.613L51.734 29.44L34.561 19.627L8.641 34.347L0 19.627Z" fill="#F6BD3A"/>
<path d="M25.9206 54.0795V44.2665L34.4536 39.3595L43.0936 34.4525V44.2655L34.5606 49.1725V58.9855L25.9206 63.9995V54.0795ZM25.9206 34.4525L17.2806 29.5455L8.64062 34.3455V24.5325L34.5606 9.8125V29.4395L25.9206 34.4525ZM51.6276 24.5325V19.6255L60.2676 14.6125L60.3746 24.4255L51.7346 29.4385L51.6276 24.5325Z" fill="#EB8C23"/>
<path d="M17.28 58.7725V29.5465L25.813 24.7465L25.92 34.4535L34.56 39.2535V49.1735L25.92 44.5865V63.9995L17.28 58.7725ZM4.267 31.7865L0 29.2265V19.6265L8.64 24.5335V34.3465L4.267 31.7865ZM34.56 19.6265V9.8125L51.627 19.6255L51.734 29.4385L34.561 19.6255L34.56 19.6265Z" fill="#E35A2B"/>
</svg>
