<svg width="651" height="642" viewBox="0 0 651 642" fill="none" xmlns="http://www.w3.org/2000/svg">
<path d="M324.5 642C499.74 642 641.8 498.283 641.8 321C641.8 143.717 499.74 0 324.5 0C149.26 0 7.2002 143.717 7.2002 321C7.2002 498.283 149.26 642 324.5 642Z" fill="#5E464D"/>
<path d="M224.7 605.598C237.7 609.998 281.3 624.198 283.1 610.298C284.1 602.698 261.1 594.898 230 578.398C185.7 554.998 145.2 525.098 109.8 489.598C58.1001 438.998 28.4001 370.098 27.1001 297.698C24.5001 200.598 62.4001 122.098 124.9 71.3984C48.5001 130.498 2.80014 220.698 0.400138 317.098C-1.49986 387.298 18.2001 446.498 55.1001 500.398C66.6001 515.198 79.9001 528.398 94.9001 539.598C130.2 566.298 181.9 591.098 224.7 605.598Z" fill="white"/>
<path d="M646.1 247.397C626.4 154.897 565.3 90.0969 483.5 44.3969C545.9 88.8969 634.1 183.597 582.2 267.097C538.2 333.997 431.2 320.897 372.8 289.097C303.3 251.397 216.2 166.497 302.1 83.5969C357.7 29.8969 534.6 90.0969 503.5 170.297C485.3 216.997 414.6 206.597 382.8 183.797C359.4 166.997 339.6 137.997 350.1 108.097C353.5 98.4969 353 83.6969 339.4 94.5969C329.3 102.797 324.2 116.197 322.5 128.697C307.7 233.297 494.1 314.397 549.3 213.197C578 160.697 531.5 84.3969 473 53.0969C429 29.4969 383.2 12.9969 327.1 16.9969C237.4 23.2969 162 79.4969 152.6 171.197C143.2 262.297 204.1 344.297 275.8 393.397C351.2 444.897 452.6 478.897 545.4 448.197C628.5 420.797 662.8 325.297 646.1 247.397Z" fill="white"/>
<path d="M529.101 176.602C538.001 116.602 483.801 75.5016 433.801 56.8016C374.801 34.8016 296.801 44.4016 253.801 93.3016C222.401 129.202 224.401 181.302 240.601 223.502C265.101 287.102 320.501 333.102 384.901 353.002C430.701 367.102 486.001 373.302 532.401 358.402C600.101 336.602 622.101 266.102 608.101 201.402C605.101 187.402 600.501 173.802 594.401 160.902C585.901 143.002 559.801 106.602 595.801 150.902C599.601 155.802 603.101 161.002 606.201 166.302C613.601 178.502 619.501 191.602 623.801 205.302C643.501 265.602 628.001 336.002 573.501 372.402C531.701 400.302 478.501 403.602 430.001 396.602C365.001 387.202 303.601 355.702 261.001 305.202C222.101 259.102 195.501 192.902 211.501 132.402C223.201 88.1016 259.201 55.1016 302.201 41.3016C356.701 23.7016 416.601 31.9016 465.601 60.5016C490.201 74.8016 512.701 94.6016 525.101 120.602C530.801 132.302 533.801 145.102 534.101 158.102C534.201 163.402 533.801 168.602 532.901 173.802C532.601 175.702 528.601 181.002 529.101 176.602Z" fill="#3FE0C5"/>
</svg>
