<svg width="66" height="67" viewBox="0 0 66 67" fill="none" xmlns="http://www.w3.org/2000/svg">
<path d="M33 0C14.7663 0 0 14.9933 0 33.5C0 52.0067 14.7663 67 33 67C51.2212 67 66 52.0067 66 33.5C66 14.9933 51.2233 0 32.9896 0H33ZM33 1.47191C41.418 1.47191 49.3471 4.80934 55.3065 10.8498C61.2533 16.8693 64.5689 25.0161 64.5481 33.5C64.5481 42.0488 61.2658 50.0972 55.3065 56.1502C49.4241 62.1593 41.3847 65.5386 33 65.5281C24.6153 65.5386 16.5759 62.1593 10.6935 56.1502C4.74667 50.1307 1.42067 41.9839 1.44148 33.5C1.44148 24.9512 4.73419 16.9028 10.6831 10.8498C16.5655 4.83028 24.6153 1.44888 33 1.47191ZM31.3422 13.2597C25.9694 14.7107 20.996 17.4912 14.3669 25.1459C7.73779 32.8007 8.99414 39.1259 8.99414 39.1259C8.99414 39.1259 10.8246 34.7751 15.2239 30.194C17.3143 28.0248 18.864 27.2941 19.9373 27.2941C20.8899 27.2397 21.6928 28.0144 21.6928 28.9733V44.5131C21.6928 46.0499 20.7069 46.3891 19.7979 46.3661C19.0283 46.3556 18.3128 46.0834 18.3128 46.0834C22.8306 52.6913 33.6427 53.6188 33.6427 53.6188L38.3873 48.5143L38.4955 48.6127L42.8407 52.3417C50.7928 47.5868 54.6284 38.7763 54.6284 38.7763C51.0756 42.5492 48.8209 43.4327 47.4772 43.4327C46.2853 43.4223 45.8194 42.723 45.8194 42.723C45.7549 42.3963 45.6467 37.6624 45.603 32.9305C45.5593 28.0332 45.603 23.1276 45.8422 23.115C47.2171 20.5188 51.5957 15.2844 51.5957 15.2844C43.4169 16.9091 38.9635 22.3068 38.9635 22.3068C37.6427 21.2599 34.9552 21.4337 34.9552 21.4337C36.2116 22.1309 37.468 24.1598 37.468 25.839V42.3712C37.468 42.3712 34.7264 44.8021 32.6152 44.8021C31.3588 44.8021 30.5892 44.1153 30.167 43.5479C30.0047 43.3302 29.8633 43.0894 29.7551 42.8277V22.4136C29.4618 22.6313 29.1041 22.7507 28.7484 22.7632C28.2928 22.7632 27.8269 22.535 27.5128 21.8692C27.2736 21.3667 27.1218 20.6151 27.1218 19.5138C27.1218 15.7513 31.3464 13.2534 31.3464 13.2534L31.3422 13.2597Z" fill="url(#paint0_linear_549_5)"/>
<defs>
<linearGradient id="paint0_linear_549_5" x1="12.5" y1="8" x2="56" y2="55.5" gradientUnits="userSpaceOnUse">
<stop stop-color="#DC1FFF"/>
<stop offset="1" stop-color="#945DFF"/>
</linearGradient>
</defs>
</svg>
