<svg width="567" height="800" viewBox="0 0 567 800" fill="none" xmlns="http://www.w3.org/2000/svg">
<path d="M265.717 274.176C262.033 261.283 250.983 251.852 237.67 250.241C224.36 248.631 211.377 255.153 204.727 266.795L147.656 366.667H133.667C115.257 366.667 100.333 381.59 100.333 400C100.333 418.41 115.257 433.333 133.667 433.333H167C178.962 433.333 190.007 426.923 195.941 416.537L223.353 368.57L268.283 525.823C271.8 538.13 282.05 547.337 294.663 549.513C307.273 551.69 320.02 546.457 327.457 536.04L400.823 433.33C419.007 433.067 433.667 418.247 433.667 400C433.667 381.59 418.743 366.667 400.333 366.667H383.667C372.9 366.667 362.8 371.867 356.543 380.627L313.393 441.037L265.717 274.176Z" fill="#E8D5EF"/>
<path fill-rule="evenodd" clip-rule="evenodd" d="M100.333 100V133.333C45.1049 133.333 0.333252 178.105 0.333252 233.333V566.667C0.333252 621.897 45.1049 666.667 100.333 666.667V700C100.333 755.23 145.105 800 200.333 800H333.667C388.897 800 433.667 755.23 433.667 700V666.667C488.897 666.667 533.667 621.897 533.667 566.667V433.333C552.077 433.333 567 418.41 567 400C567 381.59 552.077 366.667 533.667 366.667V233.333C533.667 178.105 488.897 133.333 433.667 133.333V100C433.667 44.7717 388.897 0 333.667 0H200.333C145.105 0 100.333 44.7717 100.333 100ZM200.333 66.6667C181.924 66.6667 167 81.5907 167 100V133.333H367V100C367 81.5907 352.077 66.6667 333.667 66.6667H200.333ZM100.333 600C81.9239 600 66.9999 585.077 66.9999 566.667V233.333C66.9999 214.924 81.9239 200 100.333 200H433.667C452.077 200 467 214.924 467 233.333V566.667C467 585.077 452.077 600 433.667 600H100.333ZM167 666.667H367V700C367 718.41 352.077 733.333 333.667 733.333H200.333C181.924 733.333 167 718.41 167 700V666.667Z" fill="#E8D5EF"/>
</svg>
