<svg width="513" height="512" viewBox="0 0 513 512" fill="none" xmlns="http://www.w3.org/2000/svg">
<path d="M213.461 341.335H298.795C305.584 341.335 312.096 338.638 316.897 333.837C321.698 329.036 324.395 322.524 324.395 315.735V238.935C324.395 232.145 321.698 225.634 316.897 220.833C312.096 216.032 305.584 213.335 298.795 213.335V196.268C298.795 184.952 294.299 174.1 286.298 166.098C278.296 158.097 267.444 153.602 256.128 153.602C244.812 153.602 233.96 158.097 225.958 166.098C217.957 174.1 213.461 184.952 213.461 196.268V213.335C206.672 213.335 200.16 216.032 195.359 220.833C190.558 225.634 187.861 232.145 187.861 238.935V315.735C187.861 322.524 190.558 329.036 195.359 333.837C200.16 338.638 206.672 341.335 213.461 341.335ZM230.528 196.268C230.528 189.479 233.225 182.967 238.026 178.166C242.827 173.365 249.338 170.668 256.128 170.668C262.918 170.668 269.429 173.365 274.23 178.166C279.031 182.967 281.728 189.479 281.728 196.268V213.335H230.528V196.268ZM204.928 238.935C204.928 236.672 205.827 234.501 207.427 232.901C209.028 231.301 211.198 230.402 213.461 230.402H298.795C301.058 230.402 303.228 231.301 304.829 232.901C306.429 234.501 307.328 236.672 307.328 238.935V315.735C307.328 317.998 306.429 320.169 304.829 321.769C303.228 323.369 301.058 324.268 298.795 324.268H213.461C211.198 324.268 209.028 323.369 207.427 321.769C205.827 320.169 204.928 317.998 204.928 315.735V238.935Z" fill="#13C4A1"/>
<path d="M247.594 297.095V298.665C247.594 300.929 248.493 303.099 250.093 304.699C251.694 306.3 253.864 307.199 256.127 307.199C258.391 307.199 260.561 306.3 262.161 304.699C263.762 303.099 264.661 300.929 264.661 298.665V297.095C270.354 295.082 275.153 291.121 278.209 285.913C281.264 280.704 282.38 274.582 281.359 268.63C280.338 262.678 277.245 257.279 272.628 253.387C268.011 249.494 262.166 247.359 256.127 247.359C250.088 247.359 244.244 249.494 239.627 253.387C235.01 257.279 231.917 262.678 230.896 268.63C229.875 274.582 230.991 280.704 234.046 285.913C237.102 291.121 241.9 295.082 247.594 297.095ZM256.127 264.532C258.391 264.532 260.561 265.431 262.161 267.031C263.762 268.632 264.661 270.802 264.661 273.065C264.661 275.329 263.762 277.499 262.161 279.099C260.561 280.7 258.391 281.599 256.127 281.599C253.864 281.599 251.694 280.7 250.093 279.099C248.493 277.499 247.594 275.329 247.594 273.065C247.594 270.802 248.493 268.632 250.093 267.031C251.694 265.431 253.864 264.532 256.127 264.532Z" fill="#13C4A1"/>
<path d="M111.061 256C111.061 336.12 176.008 401.067 256.128 401.067C336.247 401.067 401.195 336.12 401.195 256C401.195 175.881 336.247 110.934 256.128 110.934C176.043 111.019 111.147 175.915 111.061 256ZM256.128 128C326.818 128 384.128 185.31 384.128 256C384.128 326.69 326.818 384 256.128 384C185.438 384 128.128 326.69 128.128 256C128.213 185.344 185.472 128.086 256.128 128ZM426.795 443.734C419.249 443.762 411.926 446.289 405.97 450.921C400.013 455.553 395.759 462.028 393.873 469.334H332.928V417.75C352.007 408.769 369.342 396.475 384.128 381.44C384.931 380.644 385.568 379.696 386.002 378.652C386.435 377.607 386.657 376.487 386.654 375.356C386.651 374.225 386.423 373.107 385.983 372.064C385.544 371.022 384.902 370.078 384.094 369.286C383.287 368.495 382.33 367.871 381.279 367.453C380.229 367.034 379.106 366.829 377.975 366.848C376.844 366.867 375.729 367.111 374.693 367.565C373.657 368.019 372.722 368.675 371.942 369.494C357.454 384.306 340.255 396.198 321.28 404.523C320.134 404.978 319.102 405.68 318.259 406.579C318.165 406.682 318.114 406.818 318.02 406.938C317.396 407.632 316.891 408.425 316.527 409.285C316.36 409.821 316.248 410.373 316.194 410.931C316.036 411.415 315.924 411.912 315.861 412.416V469.334C315.861 473.86 317.659 478.201 320.86 481.402C324.061 484.602 328.402 486.4 332.928 486.4H393.873C395.48 492.566 398.783 498.158 403.409 502.54C408.034 506.923 413.795 509.921 420.038 511.194C426.282 512.467 432.757 511.964 438.729 509.741C444.7 507.519 449.929 503.667 453.822 498.622C457.714 493.578 460.114 487.543 460.749 481.203C461.384 474.863 460.229 468.471 457.414 462.755C454.599 457.039 450.238 452.226 444.826 448.864C439.413 445.501 433.166 443.724 426.795 443.734ZM426.795 494.934C422.268 494.934 417.927 493.136 414.727 489.935C411.526 486.734 409.728 482.393 409.728 477.867C409.728 473.341 411.526 469 414.727 465.799C417.927 462.598 422.268 460.8 426.795 460.8C431.321 460.8 435.662 462.598 438.863 465.799C442.063 469 443.861 473.341 443.861 477.867C443.861 482.393 442.063 486.734 438.863 489.935C435.662 493.136 431.321 494.934 426.795 494.934ZM67.1828 349.867H108.416C108.484 349.867 108.544 349.824 108.621 349.824C109.469 349.786 110.307 349.616 111.104 349.321C111.502 349.19 111.89 349.031 112.264 348.843C112.358 348.792 112.469 348.775 112.563 348.715C112.657 348.655 112.802 348.476 112.939 348.382C113.713 347.905 114.399 347.299 114.969 346.59C115.07 346.458 115.164 346.322 115.251 346.181C115.803 345.403 116.219 344.538 116.48 343.621C116.48 343.493 116.531 343.365 116.557 343.237C116.763 342.62 116.895 341.981 116.949 341.334C116.905 341.011 116.84 340.692 116.753 340.378C116.753 340.267 116.753 340.165 116.693 340.045C116.548 339.044 116.222 338.078 115.729 337.195L115.686 337.058C106.936 321.954 100.705 305.526 97.2372 288.418C97.0131 287.32 96.5748 286.277 95.9475 285.348C95.3202 284.419 94.5161 283.623 93.581 283.005C92.646 282.387 91.5984 281.959 90.498 281.746C89.3977 281.533 88.2661 281.538 87.1679 281.762C86.0697 281.987 85.0264 282.425 84.0975 283.052C83.1687 283.679 82.3725 284.484 81.7544 285.419C81.1364 286.354 80.7085 287.401 80.4953 288.502C80.2821 289.602 80.2877 290.734 80.5119 291.832C83.3791 305.989 87.97 319.736 94.1652 332.792H67.1828C65.1058 324.748 60.1664 317.737 53.2905 313.075C46.4145 308.412 38.074 306.417 29.8324 307.464C21.5908 308.511 14.0139 312.527 8.52191 318.761C3.02995 324.995 0 333.017 0 341.325C0 349.633 3.02995 357.656 8.52191 363.889C14.0139 370.123 21.5908 374.14 29.8324 375.186C38.074 376.233 46.4145 374.238 53.2905 369.576C60.1664 364.913 65.1058 357.911 67.1828 349.867ZM34.2612 358.4C29.7348 358.4 25.3939 356.602 22.1932 353.402C18.9926 350.201 17.1945 345.86 17.1945 341.334C17.1945 336.807 18.9926 332.466 22.1932 329.266C25.3939 326.065 29.7348 324.267 34.2612 324.267C38.7876 324.267 43.1285 326.065 46.3291 329.266C49.5298 332.466 51.3279 336.807 51.3279 341.334C51.3279 345.86 49.5298 350.201 46.3291 353.402C43.1285 356.602 38.7876 358.4 34.2612 358.4Z" fill="#13C4A1"/>
<path d="M0.127956 170.667C0.117626 178.964 3.13584 186.98 8.6161 193.209C14.0964 199.439 21.6619 203.454 29.8926 204.502C38.1233 205.549 46.4534 203.557 53.3193 198.898C60.1852 194.24 65.1148 187.235 67.1829 179.2H108.646C109.491 179.149 110.319 178.978 111.112 178.697C111.487 178.577 111.853 178.429 112.205 178.253C112.66 178.013 113.089 177.727 113.485 177.4C114.205 176.856 114.828 176.196 115.328 175.445C115.439 175.283 115.584 175.164 115.686 174.993C126.628 156.005 141.312 139.437 158.848 126.293C159.744 125.621 160.5 124.779 161.071 123.814C161.642 122.85 162.017 121.783 162.176 120.674C162.334 119.564 162.272 118.434 161.994 117.349C161.716 116.263 161.227 115.243 160.555 114.347C159.882 113.45 159.04 112.695 158.076 112.124C157.111 111.553 156.044 111.178 154.935 111.019C153.825 110.861 152.696 110.922 151.61 111.2C150.525 111.479 149.504 111.968 148.608 112.64C130.65 126.168 115.402 142.958 103.663 162.133H67.1829C65.1148 154.098 60.1852 147.094 53.3193 142.435C46.4534 137.777 38.1233 135.784 29.8926 136.832C21.6619 137.879 14.0964 141.895 8.6161 148.124C3.13584 154.354 0.117626 162.37 0.127956 170.667ZM51.328 170.667C51.328 175.193 49.5299 179.534 46.3292 182.735C43.1286 185.935 38.7877 187.733 34.2613 187.733C29.7349 187.733 25.394 185.935 22.1933 182.735C18.9927 179.534 17.1946 175.193 17.1946 170.667C17.1946 166.14 18.9927 161.799 22.1933 158.599C25.394 155.398 29.7349 153.6 34.2613 153.6C38.7877 153.6 43.1286 155.398 46.3292 158.599C49.5299 161.799 51.328 166.14 51.328 170.667ZM477.995 307.2C470.449 307.228 463.126 309.756 457.17 314.388C451.213 319.02 446.959 325.494 445.073 332.8H418.082C424.285 319.754 428.87 305.999 431.735 291.84C432.188 289.621 431.741 287.313 430.492 285.424C429.243 283.535 427.294 282.219 425.075 281.767C422.856 281.314 420.548 281.761 418.659 283.01C416.77 284.259 415.454 286.208 415.002 288.427C411.54 305.534 405.314 321.962 396.57 337.067V337.178C396.06 338.08 395.724 339.07 395.58 340.096C395.58 340.19 395.58 340.275 395.52 340.369C395.435 340.685 395.358 341.009 395.307 341.333C395.358 342.004 395.49 342.666 395.699 343.305C395.946 344.346 396.396 345.329 397.022 346.197C397.107 346.325 397.175 346.453 397.269 346.573C397.847 347.285 398.539 347.896 399.317 348.382C399.454 348.476 399.539 348.621 399.684 348.706C399.829 348.792 399.889 348.783 399.983 348.834C400.358 349.031 400.751 349.193 401.161 349.321C401.954 349.607 402.785 349.773 403.627 349.816C403.703 349.816 403.763 349.858 403.84 349.858H445.073C446.678 356.025 449.981 361.618 454.606 366.002C459.23 370.386 464.991 373.385 471.235 374.659C477.478 375.933 483.954 375.431 489.927 373.209C495.899 370.988 501.129 367.136 505.022 362.091C508.915 357.047 511.316 351.012 511.951 344.671C512.587 338.331 511.431 331.939 508.616 326.222C505.802 320.505 501.44 315.692 496.027 312.33C490.614 308.967 484.367 307.19 477.995 307.2ZM477.995 358.4C473.468 358.4 469.127 356.602 465.927 353.401C462.726 350.201 460.928 345.86 460.928 341.333C460.928 336.807 462.726 332.466 465.927 329.265C469.127 326.065 473.468 324.267 477.995 324.267C482.521 324.267 486.862 326.065 490.063 329.265C493.263 332.466 495.061 336.807 495.061 341.333C495.061 345.86 493.263 350.201 490.063 353.401C486.862 356.602 482.521 358.4 477.995 358.4ZM196.395 412.561V412.416C196.34 411.937 196.246 411.463 196.113 411C196.053 410.421 195.936 409.849 195.763 409.293C195.404 408.447 194.908 407.666 194.295 406.98C194.185 406.852 194.133 406.699 194.022 406.579C193.176 405.68 192.142 404.978 190.993 404.523C168.656 394.664 148.811 379.928 132.915 361.395C132.197 360.511 131.309 359.78 130.304 359.244C129.298 358.709 128.196 358.38 127.062 358.277C125.927 358.174 124.784 358.3 123.699 358.646C122.613 358.992 121.608 359.552 120.743 360.292C119.878 361.033 119.169 361.939 118.66 362.958C118.15 363.977 117.85 365.087 117.776 366.224C117.702 367.361 117.857 368.5 118.231 369.576C118.605 370.652 119.19 371.643 119.953 372.489C136.364 391.59 156.588 407.048 179.328 417.869V469.333H118.383C116.306 461.289 111.367 454.279 104.491 449.616C97.6146 444.954 89.2741 442.959 81.0325 444.005C72.7909 445.052 65.214 449.069 59.722 455.303C54.2301 461.536 51.2001 469.559 51.2001 477.867C51.2001 486.175 54.2301 494.197 59.722 500.431C65.214 506.665 72.7909 510.681 81.0325 511.728C89.2741 512.775 97.6146 510.78 104.491 506.117C111.367 501.455 116.306 494.444 118.383 486.4H179.328C183.854 486.4 188.195 484.602 191.396 481.401C194.597 478.201 196.395 473.86 196.395 469.333V412.561ZM85.4613 494.933C80.9349 494.933 76.594 493.135 73.3933 489.935C70.1927 486.734 68.3946 482.393 68.3946 477.867C68.3946 473.34 70.1927 468.999 73.3933 465.799C76.594 462.598 80.9349 460.8 85.4613 460.8C89.9877 460.8 94.3286 462.598 97.5292 465.799C100.73 468.999 102.528 473.34 102.528 477.867C102.528 482.393 100.73 486.734 97.5292 489.935C94.3286 493.135 89.9877 494.933 85.4613 494.933ZM288.555 414.891C267.151 419.189 245.105 419.189 223.701 414.891C222.592 414.636 221.443 414.606 220.323 414.802C219.202 414.999 218.131 415.417 217.175 416.033C216.218 416.649 215.394 417.45 214.751 418.389C214.108 419.328 213.66 420.386 213.432 421.501C213.205 422.616 213.202 423.765 213.426 424.881C213.649 425.997 214.093 427.057 214.731 427.998C215.37 428.94 216.191 429.744 217.145 430.364C218.099 430.984 219.168 431.407 220.288 431.608C229.299 433.357 238.421 434.424 247.595 434.773V503.467C247.595 505.73 248.494 507.9 250.094 509.501C251.694 511.101 253.865 512 256.128 512C258.391 512 260.562 511.101 262.162 509.501C263.762 507.9 264.661 505.73 264.661 503.467V434.773C273.831 434.417 282.96 433.358 291.968 431.608C294.139 431.11 296.03 429.782 297.235 427.909C298.441 426.036 298.866 423.766 298.421 421.583C297.975 419.401 296.694 417.479 294.85 416.228C293.007 414.978 290.747 414.498 288.555 414.891ZM179.328 25.6001H118.383C116.306 17.5561 111.367 10.5457 104.491 5.88295C97.6146 1.22023 89.2741 -0.774686 81.0325 0.272136C72.7909 1.31896 65.214 5.33565 59.722 11.5693C54.2301 17.803 51.2001 25.8256 51.2001 34.1334C51.2001 42.4412 54.2301 50.4639 59.722 56.6975C65.214 62.9312 72.7909 66.9479 81.0325 67.9947C89.2741 69.0415 97.6146 67.0466 104.491 62.3839C111.367 57.7212 116.306 50.7108 118.383 42.6668H179.328V99.6012C179.328 99.9425 179.49 100.275 179.533 100.617C179.618 101.504 179.849 102.366 180.207 103.177C180.741 104.323 181.539 105.326 182.537 106.104C183.304 106.735 184.172 107.231 185.105 107.571C185.711 107.768 186.342 107.887 186.982 107.947C187.263 108.023 187.548 108.083 187.836 108.126C189.058 108.1 190.261 107.809 191.36 107.273C201.755 102.765 212.595 99.3616 223.701 97.1179C225.92 96.6653 227.869 95.3497 229.118 93.4605C230.367 91.5714 230.814 89.2634 230.362 87.0443C229.909 84.8253 228.593 82.877 226.704 81.6279C224.815 80.3789 222.507 79.9315 220.288 80.3841C212.181 82.0396 204.194 84.2668 196.395 87.0401V42.6668C196.395 38.1404 194.597 33.7994 191.396 30.5988C188.195 27.3982 183.854 25.6001 179.328 25.6001ZM85.4613 51.2001C80.9349 51.2001 76.594 49.402 73.3933 46.2014C70.1927 43.0008 68.3946 38.6598 68.3946 34.1334C68.3946 29.6071 70.1927 25.2661 73.3933 22.0655C76.594 18.8648 80.9349 17.0668 85.4613 17.0668C89.9877 17.0668 94.3286 18.8648 97.5292 22.0655C100.73 25.2661 102.528 29.6071 102.528 34.1334C102.528 38.6598 100.73 43.0008 97.5292 46.2014C94.3286 49.402 89.9877 51.2001 85.4613 51.2001ZM393.873 42.6668C395.95 50.7108 400.889 57.7212 407.765 62.3839C414.641 67.0466 422.982 69.0415 431.223 67.9947C439.465 66.9479 447.042 62.9312 452.534 56.6975C458.026 50.4639 461.056 42.4412 461.056 34.1334C461.056 25.8256 458.026 17.803 452.534 11.5693C447.042 5.33565 439.465 1.31896 431.223 0.272136C422.982 -0.774686 414.641 1.22023 407.765 5.88295C400.889 10.5457 395.95 17.5561 393.873 25.6001H332.928C328.402 25.6001 324.061 27.3982 320.86 30.5988C317.659 33.7994 315.861 38.1404 315.861 42.6668V99.5756C315.913 100.079 316.013 100.576 316.16 101.06C316.211 101.624 316.331 102.17 316.493 102.707C316.86 103.561 317.363 104.363 317.986 105.054C318.08 105.165 318.131 105.31 318.225 105.412C319.07 106.308 320.102 107.017 321.246 107.469C340.217 115.781 357.416 127.658 371.908 142.456C372.677 143.309 373.61 143.999 374.651 144.484C375.693 144.969 376.821 145.238 377.969 145.276C379.118 145.314 380.262 145.12 381.333 144.705C382.404 144.29 383.38 143.663 384.204 142.862C385.027 142.061 385.68 141.101 386.123 140.042C386.567 138.982 386.792 137.844 386.784 136.695C386.777 135.546 386.538 134.411 386.082 133.357C385.626 132.302 384.961 131.351 384.128 130.56C369.342 115.525 352.007 103.232 332.928 94.2508V42.6668H393.873ZM426.795 17.0668C431.321 17.0668 435.662 18.8648 438.863 22.0655C442.063 25.2661 443.861 29.6071 443.861 34.1334C443.861 38.6598 442.063 43.0008 438.863 46.2014C435.662 49.402 431.321 51.2001 426.795 51.2001C422.268 51.2001 417.927 49.402 414.727 46.2014C411.526 43.0008 409.728 38.6598 409.728 34.1334C409.728 29.6071 411.526 25.2661 414.727 22.0655C417.927 18.8648 422.268 17.0668 426.795 17.0668ZM256.128 8.31066e-05C253.865 8.31066e-05 251.694 0.899128 250.094 2.49944C248.494 4.09975 247.595 6.27024 247.595 8.53342V85.3334C247.595 87.5966 248.494 89.7671 250.094 91.3674C251.694 92.9677 253.865 93.8668 256.128 93.8668C267.017 93.8668 277.888 94.9505 288.555 97.1094C290.747 97.5024 293.007 97.0224 294.85 95.7719C296.694 94.5214 297.975 92.5996 298.421 90.4171C298.866 88.2345 298.441 85.9642 297.235 84.0911C296.03 82.218 294.139 80.8907 291.968 80.3926C282.96 78.6418 273.831 77.5834 264.661 77.2268V8.53342C264.661 6.27024 263.762 4.09975 262.162 2.49944C260.562 0.899128 258.391 8.31066e-05 256.128 8.31066e-05ZM445.073 179.2C447.15 187.244 452.089 194.255 458.965 198.917C465.841 203.58 474.182 205.575 482.423 204.528C490.665 203.481 498.242 199.465 503.734 193.231C509.226 186.997 512.256 178.975 512.256 170.667C512.256 162.359 509.226 154.336 503.734 148.103C498.242 141.869 490.665 137.852 482.423 136.805C474.182 135.759 465.841 137.754 458.965 142.416C452.089 147.079 447.15 154.089 445.073 162.133H403.84C403.678 162.133 403.55 162.219 403.396 162.219C402.902 162.272 402.413 162.372 401.937 162.517C401.236 162.656 400.556 162.885 399.915 163.2C399.846 163.2 399.761 163.2 399.684 163.285C399.607 163.371 399.462 163.516 399.317 163.61C398.539 164.095 397.847 164.707 397.269 165.419C397.175 165.538 397.107 165.666 397.022 165.794C396.457 166.568 396.032 167.434 395.767 168.354C395.767 168.465 395.767 168.576 395.699 168.687C395.489 169.329 395.358 169.993 395.307 170.667C395.349 170.991 395.418 171.315 395.494 171.64C395.494 171.733 395.537 171.819 395.554 171.913C395.699 172.937 396.032 173.926 396.544 174.831V174.942C410.776 199.585 418.266 227.542 418.261 256C418.261 258.263 419.16 260.434 420.761 262.034C422.361 263.634 424.531 264.533 426.795 264.533H503.595C505.858 264.533 508.028 263.634 509.629 262.034C511.229 260.434 512.128 258.263 512.128 256C512.128 253.737 511.229 251.566 509.629 249.966C508.028 248.366 505.858 247.467 503.595 247.467H435.046C433.928 223.807 428.127 200.603 417.98 179.2H445.073ZM477.995 153.6C482.521 153.6 486.862 155.398 490.063 158.599C493.263 161.799 495.061 166.14 495.061 170.667C495.061 175.193 493.263 179.534 490.063 182.735C486.862 185.935 482.521 187.733 477.995 187.733C473.468 187.733 469.127 185.935 465.927 182.735C462.726 179.534 460.928 175.193 460.928 170.667C460.928 166.14 462.726 161.799 465.927 158.599C469.127 155.398 473.468 153.6 477.995 153.6ZM8.66129 264.533H85.4613C87.7245 264.533 89.895 263.634 91.4953 262.034C93.0956 260.434 93.9946 258.263 93.9946 256C93.9766 238.758 96.7104 221.624 102.093 205.244C102.443 204.179 102.58 203.056 102.496 201.939C102.412 200.821 102.109 199.731 101.604 198.73C101.099 197.73 100.402 196.839 99.5521 196.108C98.7025 195.377 97.7173 194.821 96.6528 194.47C95.5882 194.12 94.465 193.983 93.3475 194.067C92.2299 194.151 91.1398 194.454 90.1394 194.959C89.139 195.464 88.2479 196.162 87.517 197.011C86.7861 197.861 86.2296 198.846 85.8794 199.91C80.8664 215.299 77.967 231.298 77.2608 247.467H8.66129C6.39811 247.467 4.22762 248.366 2.62731 249.966C1.027 251.566 0.127956 253.737 0.127956 256C0.127956 258.263 1.027 260.434 2.62731 262.034C4.22762 263.634 6.39811 264.533 8.66129 264.533Z" fill="#13C4A1"/>
</svg>
