<svg width="449" height="497" viewBox="0 0 449 497" fill="none" xmlns="http://www.w3.org/2000/svg">
<path d="M390.129 348.835C390.711 346.651 391.983 344.713 393.757 343.311C395.53 341.91 397.71 341.12 399.969 341.059H412.433C414.288 341.059 416.085 340.414 417.516 339.234C418.948 338.055 419.925 336.416 420.281 334.595C422.774 321.914 424.041 309.023 424.065 296.099C424.065 293.978 423.223 291.943 421.722 290.443C420.222 288.942 418.187 288.099 416.065 288.099H336.065V184.099C336.064 182.361 335.497 180.67 334.449 179.283C333.401 177.896 331.929 176.888 330.257 176.411L280.065 162.067V120.099C280.065 117.978 279.223 115.943 277.722 114.443C276.222 112.942 274.187 112.099 272.065 112.099H176.065C173.944 112.099 171.909 112.942 170.409 114.443C168.908 115.943 168.065 117.978 168.065 120.099V162.067L117.873 176.411C116.201 176.888 114.73 177.896 113.682 179.283C112.634 180.67 112.067 182.361 112.065 184.099V288.099H32.0654C29.9437 288.099 27.9089 288.942 26.4086 290.443C24.9083 291.943 24.0654 293.978 24.0654 296.099C24.0897 309.023 25.3569 321.914 27.8494 334.595C28.2055 336.416 29.1829 338.055 30.6145 339.234C32.046 340.414 33.8428 341.059 35.6974 341.059H48.1694C50.4291 341.12 52.6086 341.91 54.3822 343.311C56.1558 344.713 57.4283 346.651 58.0094 348.835C61.0094 358.263 64.8099 367.416 69.3694 376.195C70.5057 378.155 70.9772 380.429 70.7133 382.679C70.4494 384.929 69.4643 387.032 67.9054 388.675L59.0414 397.539C57.731 398.852 56.9171 400.578 56.7391 402.424C56.5611 404.27 57.0299 406.121 58.0654 407.659C72.5154 429.16 91.0045 447.649 112.505 462.099C114.044 463.135 115.894 463.604 117.74 463.426C119.586 463.248 121.313 462.434 122.625 461.123L131.497 452.259C133.147 450.718 135.246 449.743 137.488 449.479C139.73 449.214 141.998 449.672 143.961 450.787C152.745 455.354 161.904 459.16 171.337 462.163C173.518 462.746 175.452 464.018 176.851 465.79C178.25 467.562 179.038 469.739 179.097 471.995V484.459C179.097 486.318 179.744 488.118 180.926 489.552C182.108 490.985 183.753 491.962 185.577 492.315C210.988 497.361 237.143 497.361 262.553 492.315C264.378 491.962 266.022 490.985 267.205 489.552C268.387 488.118 269.034 486.318 269.033 484.459V471.995C269.092 469.737 269.879 467.559 271.278 465.785C272.676 464.012 274.611 462.738 276.793 462.155C286.221 459.158 295.375 455.357 304.153 450.795C306.118 449.677 308.389 449.215 310.634 449.479C312.879 449.742 314.981 450.717 316.633 452.259L325.505 461.123C326.817 462.435 328.543 463.25 330.389 463.43C332.235 463.609 334.086 463.142 335.625 462.107C357.127 447.655 375.616 429.163 390.065 407.659C391.101 406.121 391.57 404.27 391.392 402.424C391.214 400.578 390.4 398.852 389.089 397.539L380.225 388.659C378.665 387.017 377.68 384.913 377.416 382.663C377.152 380.413 377.624 378.138 378.761 376.179C383.32 367.399 387.121 358.246 390.121 348.819L390.129 348.835ZM280.065 178.707L320.065 190.131V288.099H280.065V178.707ZM184.065 128.099H264.065V288.099H248.065V256.099C248.065 253.978 247.223 251.943 245.722 250.443C244.222 248.942 242.187 248.099 240.065 248.099H208.065C205.944 248.099 203.909 248.942 202.409 250.443C200.908 251.943 200.065 253.978 200.065 256.099V288.099H184.065V128.099ZM232.065 264.099V288.099H216.065V264.099H232.065ZM128.065 190.131L168.065 178.707V288.099H128.065V190.131ZM334.249 304.099C332.262 331.965 319.79 358.042 299.345 377.08C278.9 396.119 252.002 406.703 224.065 406.703C196.129 406.703 169.23 396.119 148.786 377.08C128.341 358.042 115.869 331.965 113.881 304.099H334.249ZM374.881 343.979C372.156 352.538 368.703 360.849 364.561 368.819C361.87 373.799 360.84 379.508 361.623 385.114C362.406 390.719 364.961 395.928 368.913 399.979L373.033 404.107C361.63 419.839 347.805 433.664 332.073 445.067L327.945 440.939C323.896 436.98 318.685 434.423 313.076 433.641C307.467 432.859 301.755 433.895 296.777 436.595C288.811 440.741 280.503 444.194 271.945 446.915C266.531 448.535 261.775 451.841 258.372 456.352C254.969 460.864 253.095 466.345 253.025 471.995V477.755C233.844 480.865 214.287 480.865 195.105 477.755V471.995C195.035 466.345 193.162 460.864 189.759 456.352C186.355 451.841 181.6 448.535 176.185 446.915C167.625 444.192 159.315 440.74 151.345 436.595C146.368 433.898 140.658 432.864 135.051 433.646C129.444 434.427 124.235 436.983 120.185 440.939L116.057 445.067C100.326 433.664 86.5011 419.839 75.0974 404.107L79.2254 399.979C83.1772 395.928 85.7308 390.719 86.5137 385.113C87.2966 379.508 86.2678 373.799 83.5774 368.819C79.4349 360.849 75.9823 352.539 73.2574 343.979C71.6346 338.566 68.3262 333.811 63.8138 330.408C59.3014 327.005 53.8207 325.131 48.1694 325.059H42.4014C41.2907 318.119 40.5696 311.121 40.2414 304.099H97.8814C99.8635 336.22 114.02 366.376 137.467 388.42C160.913 410.464 191.884 422.737 224.065 422.737C256.247 422.737 287.218 410.464 310.664 388.42C334.11 366.376 348.267 336.22 350.249 304.099H407.889C407.561 311.121 406.84 318.119 405.729 325.059H399.969C394.318 325.131 388.837 327.005 384.325 330.408C379.813 333.811 376.504 338.566 374.881 343.979ZM232.065 104.099V46.6274C237.403 44.7403 241.902 41.0269 244.766 36.1436C247.631 31.2603 248.677 25.5215 247.72 19.9416C246.762 14.3616 243.863 9.29971 239.535 5.65058C235.206 2.00144 229.727 0 224.065 0C218.404 0 212.925 2.00144 208.596 5.65058C204.268 9.29971 201.368 14.3616 200.411 19.9416C199.454 25.5215 200.5 31.2603 203.364 36.1436C206.229 41.0269 210.728 44.7403 216.065 46.6274V104.099H232.065ZM224.065 16.0994C225.648 16.0994 227.194 16.5686 228.51 17.4477C229.826 18.3267 230.851 19.5761 231.456 21.0379C232.062 22.4998 232.22 24.1083 231.912 25.6601C231.603 27.212 230.841 28.6374 229.722 29.7563C228.603 30.8751 227.178 31.637 225.626 31.9457C224.074 32.2544 222.466 32.096 221.004 31.4905C219.542 30.885 218.293 29.8596 217.414 28.544C216.535 27.2284 216.065 25.6817 216.065 24.0994C216.068 21.9783 216.911 19.9447 218.411 18.4449C219.911 16.9451 221.944 16.1015 224.065 16.0994Z" fill="#13C4A1"/>
<path d="M304.065 104.098V160.098H320.065V107.41L333.785 93.6897C336.987 95.2545 340.501 96.0775 344.065 96.0977C348.812 96.0977 353.452 94.6901 357.399 92.0529C361.345 89.4158 364.422 85.6675 366.238 81.2821C368.055 76.8966 368.53 72.071 367.604 67.4155C366.678 62.76 364.392 58.4836 361.035 55.1271C357.679 51.7706 353.403 49.4849 348.747 48.5588C344.092 47.6328 339.266 48.1081 334.881 49.9246C330.495 51.7411 326.747 54.8172 324.11 58.764C321.473 62.7108 320.065 67.3509 320.065 72.0977C320.083 75.6611 320.903 79.1748 322.465 82.3777L306.409 98.4417C304.909 99.9416 304.065 101.976 304.065 104.098ZM344.065 64.0977C345.647 64.0977 347.194 64.5669 348.509 65.4459C349.825 66.325 350.85 67.5744 351.456 69.0362C352.061 70.498 352.22 72.1065 351.911 73.6584C351.603 75.2102 350.841 76.6357 349.722 77.7545C348.603 78.8733 347.178 79.6353 345.626 79.9439C344.074 80.2526 342.465 80.0942 341.003 79.4887C339.542 78.8832 338.292 77.8578 337.413 76.5422C336.534 75.2266 336.065 73.6799 336.065 72.0977C336.067 69.9766 336.911 67.943 338.41 66.4431C339.91 64.9433 341.944 64.0998 344.065 64.0977ZM104.065 48.0977C97.6998 48.0977 91.5953 50.6262 87.0944 55.1271C82.5935 59.628 80.0649 65.7325 80.0649 72.0977C80.0649 78.4629 82.5935 84.5674 87.0944 89.0682C91.5953 93.5691 97.6998 96.0977 104.065 96.0977C107.628 96.08 111.142 95.2597 114.345 93.6977L128.065 107.402V160.098H144.065V104.098C144.065 101.976 143.221 99.9416 141.721 98.4417L125.657 82.3777C127.222 79.1754 128.045 75.6617 128.065 72.0977C128.059 65.7344 125.528 59.6336 121.028 55.1341C116.529 50.6346 110.428 48.104 104.065 48.0977ZM104.065 80.0977C102.483 80.0977 100.936 79.6285 99.6204 78.7494C98.3048 77.8704 97.2794 76.6209 96.6739 75.1591C96.0684 73.6973 95.91 72.0888 96.2187 70.5369C96.5273 68.9851 97.2893 67.5596 98.4081 66.4408C99.5269 65.322 100.952 64.5601 102.504 64.2514C104.056 63.9427 105.665 64.1011 107.126 64.7066C108.588 65.3121 109.838 66.3375 110.717 67.6531C111.596 68.9687 112.065 70.5154 112.065 72.0977C112.063 74.2187 111.219 76.2524 109.719 77.7522C108.22 79.252 106.186 80.0955 104.065 80.0977ZM24.0649 136.098C20.1312 136.087 16.2551 137.043 12.7778 138.883C9.30053 140.722 6.32872 143.388 4.12392 146.646C1.91911 149.904 0.548919 153.654 0.133927 157.566C-0.281065 161.478 0.271871 165.431 1.74407 169.079C3.21627 172.727 5.56259 175.957 8.57653 178.486C11.5905 181.014 15.1796 182.762 19.0281 183.577C22.8765 184.392 26.8663 184.248 30.6463 183.159C34.4262 182.07 37.8805 180.068 40.7049 177.33L64.0649 189.034V248.098H80.0649V184.098C80.0649 182.613 79.6518 181.158 78.8719 179.895C78.092 178.632 76.9761 177.611 75.6489 176.946L47.7769 162.978C47.9318 162.024 48.028 161.063 48.0649 160.098C48.0586 153.734 45.528 147.634 41.0285 143.134C36.529 138.635 30.4282 136.104 24.0649 136.098ZM24.0649 168.098C22.4827 168.098 20.936 167.628 19.6204 166.749C18.3048 165.87 17.2794 164.621 16.6739 163.159C16.0684 161.697 15.91 160.089 16.2187 158.537C16.5273 156.985 17.2893 155.56 18.4081 154.441C19.5269 153.322 20.9524 152.56 22.5042 152.251C24.0561 151.943 25.6646 152.101 27.1264 152.707C28.5882 153.312 29.8377 154.338 30.7167 155.653C31.5958 156.969 32.0649 158.515 32.0649 160.098C32.0628 162.219 31.2193 164.252 29.7195 165.752C28.2196 167.252 26.186 168.096 24.0649 168.098ZM64.0649 264.098H80.0649V280.098H64.0649V264.098ZM448.065 160.098C448.065 153.732 445.536 147.628 441.035 143.127C436.535 138.626 430.43 136.098 424.065 136.098C417.7 136.098 411.595 138.626 407.094 143.127C402.594 147.628 400.065 153.732 400.065 160.098C400.102 161.063 400.198 162.024 400.353 162.978L372.481 176.946C371.154 177.611 370.038 178.632 369.258 179.895C368.478 181.158 368.065 182.613 368.065 184.098V248.098H384.065V189.034L407.425 177.33C410.805 180.613 415.078 182.826 419.71 183.692C424.341 184.558 429.125 184.039 433.463 182.2C437.801 180.36 441.5 177.282 444.098 173.351C446.695 169.42 448.075 164.809 448.065 160.098ZM416.065 160.098C416.065 158.515 416.534 156.969 417.413 155.653C418.292 154.338 419.542 153.312 421.003 152.707C422.465 152.101 424.074 151.943 425.626 152.251C427.178 152.56 428.603 153.322 429.722 154.441C430.841 155.56 431.603 156.985 431.911 158.537C432.22 160.089 432.061 161.697 431.456 163.159C430.85 164.621 429.825 165.87 428.509 166.749C427.194 167.628 425.647 168.098 424.065 168.098C421.944 168.096 419.91 167.252 418.41 165.752C416.911 164.252 416.067 162.219 416.065 160.098ZM368.065 264.098H384.065V280.098H368.065V264.098ZM200.065 152.098H248.065V168.098H200.065V152.098ZM200.065 184.098H248.065V200.098H200.065V184.098ZM200.065 216.098H248.065V232.098H200.065V216.098ZM288.065 200.098H312.065V216.098H288.065V200.098ZM288.065 232.098H312.065V248.098H288.065V232.098ZM136.065 200.098H160.065V216.098H136.065V200.098ZM136.065 232.098H160.065V248.098H136.065V232.098Z" fill="#13C4A1"/>
</svg>
