<svg width="480" height="480" viewBox="0 0 480 480" fill="none" xmlns="http://www.w3.org/2000/svg">
<path d="M464 256C468.243 256 472.313 254.314 475.314 251.314C478.314 248.313 480 244.243 480 240C480 235.757 478.314 231.687 475.314 228.686C472.313 225.686 468.243 224 464 224H416V192H464C468.243 192 472.313 190.314 475.314 187.314C478.314 184.313 480 180.243 480 176C480 171.757 478.314 167.687 475.314 164.686C472.313 161.686 468.243 160 464 160H416V112C416 85.536 394.464 64 368 64H320V16C320 11.7565 318.314 7.68687 315.314 4.68629C312.313 1.68571 308.243 0 304 0C299.757 0 295.687 1.68571 292.686 4.68629C289.686 7.68687 288 11.7565 288 16V64H256V16C256 11.7565 254.314 7.68687 251.314 4.68629C248.313 1.68571 244.243 0 240 0C235.757 0 231.687 1.68571 228.686 4.68629C225.686 7.68687 224 11.7565 224 16V64H192V16C192 11.7565 190.314 7.68687 187.314 4.68629C184.313 1.68571 180.243 0 176 0C171.757 0 167.687 1.68571 164.686 4.68629C161.686 7.68687 160 11.7565 160 16V64H112C85.536 64 64 85.536 64 112V160H16C11.7565 160 7.68687 161.686 4.68629 164.686C1.68571 167.687 0 171.757 0 176C0 180.243 1.68571 184.313 4.68629 187.314C7.68687 190.314 11.7565 192 16 192H64V224H16C11.7565 224 7.68687 225.686 4.68629 228.686C1.68571 231.687 0 235.757 0 240C0 244.243 1.68571 248.313 4.68629 251.314C7.68687 254.314 11.7565 256 16 256H64V288H16C11.7565 288 7.68687 289.686 4.68629 292.686C1.68571 295.687 0 299.757 0 304C0 308.243 1.68571 312.313 4.68629 315.314C7.68687 318.314 11.7565 320 16 320H64V368C64 394.464 85.536 416 112 416H160V464C160 468.243 161.686 472.313 164.686 475.314C167.687 478.314 171.757 480 176 480C180.243 480 184.313 478.314 187.314 475.314C190.314 472.313 192 468.243 192 464V416H224V464C224 468.243 225.686 472.313 228.686 475.314C231.687 478.314 235.757 480 240 480C244.243 480 248.313 478.314 251.314 475.314C254.314 472.313 256 468.243 256 464V416H288V464C288 468.243 289.686 472.313 292.686 475.314C295.687 478.314 299.757 480 304 480C308.243 480 312.313 478.314 315.314 475.314C318.314 472.313 320 468.243 320 464V416H368C394.464 416 416 394.464 416 368V320H464C468.243 320 472.313 318.314 475.314 315.314C478.314 312.313 480 308.243 480 304C480 299.757 478.314 295.687 475.314 292.686C472.313 289.686 468.243 288 464 288H416V256H464ZM384 368C384 376.816 376.816 384 368 384H112C103.184 384 96 376.816 96 368V112C96 103.184 103.184 96 112 96H368C376.816 96 384 103.184 384 112V368Z" fill="#13C4A1"/>
<path d="M144 176C139.757 176 135.687 177.686 132.686 180.686C129.686 183.687 128 187.757 128 192V304C128 308.243 129.686 312.313 132.686 315.314C135.687 318.314 139.757 320 144 320C148.243 320 152.313 318.314 155.314 315.314C158.314 312.313 160 308.243 160 304V192C160 187.757 158.314 183.687 155.314 180.686C152.313 177.686 148.243 176 144 176ZM224 224C197.536 224 176 245.536 176 272C176 298.464 197.536 320 224 320C250.464 320 272 298.464 272 272C272 245.536 250.464 224 224 224ZM224 288C215.184 288 208 280.816 208 272C208 263.184 215.184 256 224 256C232.816 256 240 263.184 240 272C240 280.816 232.816 288 224 288ZM336 176H272C267.757 176 263.687 177.686 260.686 180.686C257.686 183.687 256 187.757 256 192C256 196.243 257.686 200.313 260.686 203.314C263.687 206.314 267.757 208 272 208H288V304C288 308.243 289.686 312.313 292.686 315.314C295.687 318.314 299.757 320 304 320C308.243 320 312.313 318.314 315.314 315.314C318.314 312.313 320 308.243 320 304V208H336C340.243 208 344.313 206.314 347.314 203.314C350.314 200.313 352 196.243 352 192C352 187.757 350.314 183.687 347.314 180.686C344.313 177.686 340.243 176 336 176Z" fill="#13C4A1"/>
</svg>
