<svg width="511" height="512" viewBox="0 0 511 512" fill="none" xmlns="http://www.w3.org/2000/svg">
<path d="M462.509 71.5024H370.854V41.4178C370.854 37.278 367.499 33.9219 363.358 33.9219C359.217 33.9219 355.862 37.278 355.862 41.4178V71.5024H324.812C320.671 71.5024 317.316 74.8586 317.316 78.9983C317.316 83.1381 320.671 86.4942 324.812 86.4942H355.862V118.235H350.236C342.38 118.235 335.989 124.626 335.989 132.481V220.727C335.989 228.583 342.38 234.973 350.236 234.973H355.862V294.442C355.862 298.582 359.217 301.938 363.358 301.938C367.499 301.938 370.854 298.582 370.854 294.442V234.973H376.48C384.335 234.973 390.726 228.582 390.726 220.727V132.481C390.726 124.625 384.335 118.235 376.48 118.235H370.854V86.4942H462.509C480.52 86.4942 495.175 101.148 495.175 119.16V375.716H14.9918V119.161C14.9918 101.149 29.6458 86.4952 47.658 86.4952H179.058V101.124H173.432C165.577 101.124 159.186 107.516 159.186 115.37V203.616C159.186 211.472 165.578 217.863 173.432 217.863H179.058V284.1C179.058 286.088 179.848 287.994 181.254 289.4C182.66 290.806 184.566 291.595 186.554 291.595C188.542 291.595 190.449 290.806 191.855 289.4C193.261 287.994 194.05 286.088 194.05 284.1V217.863H199.676C207.532 217.863 213.922 211.471 213.922 203.616V115.37C213.922 107.515 207.531 101.124 199.676 101.124H194.05V86.4942H225.1C227.088 86.4942 228.995 85.7045 230.401 84.2987C231.807 82.893 232.596 80.9864 232.596 78.9983C232.596 77.0103 231.807 75.1037 230.401 73.6979C228.995 72.2921 227.088 71.5024 225.1 71.5024H194.05V67.8004C194.05 65.8124 193.261 63.9058 191.855 62.5C190.449 61.0942 188.542 60.3045 186.554 60.3045C184.566 60.3045 182.66 61.0942 181.254 62.5C179.848 63.9058 179.058 65.8124 179.058 67.8004V71.5024H47.658C21.3794 71.5024 0 92.8817 0 119.16V383.212C0 409.49 21.3794 430.87 47.658 430.87H161.765V468.983L137.605 497.008H128.015C126.027 497.008 124.121 497.797 122.715 499.203C121.309 500.609 120.519 502.515 120.519 504.503C120.519 506.491 121.309 508.398 122.715 509.804C124.121 511.21 126.027 511.999 128.015 511.999H381.46C385.601 511.999 388.956 508.643 388.956 504.503C388.956 500.364 385.601 497.008 381.46 497.008H372.561L348.401 468.983V430.87H462.509C488.788 430.87 510.167 409.49 510.167 383.212V119.161C510.167 92.8827 488.788 71.5024 462.509 71.5024ZM375.734 219.983H350.982V133.228H375.735V219.983H375.734ZM198.931 202.871H174.177V116.116H198.931V202.871ZM462.509 415.878H310.801C306.66 415.878 303.305 419.234 303.305 423.374C303.305 427.513 306.66 430.87 310.801 430.87H333.409V464.272H314.737C310.597 464.272 307.242 467.629 307.242 471.768C307.242 475.908 310.597 479.264 314.737 479.264H337.47L352.767 497.008H157.399L172.696 479.264H195.428C197.417 479.264 199.323 478.474 200.729 477.069C202.135 475.663 202.924 473.756 202.924 471.768C202.924 469.78 202.135 467.874 200.729 466.468C199.323 465.062 197.417 464.272 195.428 464.272H176.757V430.87H278.855C282.996 430.87 286.351 427.513 286.351 423.374C286.351 419.234 282.996 415.878 278.855 415.878H47.658C32.2254 415.878 19.2675 405.118 15.8694 390.707H494.297C490.9 405.118 477.942 415.878 462.509 415.878Z" fill="#13C4A1"/>
<path d="M78.2793 218.844C76.2913 218.844 74.3847 219.633 72.9789 221.039C71.5731 222.445 70.7834 224.352 70.7834 226.34V244.436C70.7834 252.292 77.1739 258.682 85.0296 258.682H90.6556V298.601C90.6556 300.589 91.4453 302.496 92.8511 303.902C94.2568 305.307 96.1634 306.097 98.1515 306.097C100.14 306.097 102.046 305.307 103.452 303.902C104.858 302.496 105.647 300.589 105.647 298.601V258.682H111.273C119.129 258.682 125.52 252.292 125.52 244.436V156.19C125.52 148.334 119.128 141.943 111.273 141.943H105.647V129.953C105.647 127.965 104.858 126.059 103.452 124.653C102.046 123.247 100.14 122.457 98.1515 122.457C96.1634 122.457 94.2568 123.247 92.8511 124.653C91.4453 126.059 90.6556 127.965 90.6556 129.953V141.943H85.0296C77.1739 141.943 70.7834 148.334 70.7834 156.19V194.395C70.7834 196.383 71.5731 198.29 72.9789 199.695C74.3847 201.101 76.2913 201.891 78.2793 201.891C80.2674 201.891 82.174 201.101 83.5797 199.695C84.9855 198.29 85.7752 196.383 85.7752 194.395V156.935H110.53V243.691H85.7752V226.341C85.7754 225.356 85.5816 224.381 85.2049 223.472C84.8283 222.562 84.2762 221.736 83.5801 221.04C82.884 220.343 82.0576 219.791 81.1481 219.414C80.2386 219.038 79.2638 218.844 78.2793 218.844ZM261.833 203.03H267.46V242.949C267.46 247.088 270.815 250.445 274.956 250.445C279.097 250.445 282.452 247.088 282.452 242.949V203.03H288.078C295.933 203.03 302.324 196.639 302.324 188.783V129.988C302.324 125.848 298.969 122.492 294.828 122.492C290.688 122.492 287.332 125.848 287.332 129.988V188.039H262.579V52.3095H287.332V98.0436C287.332 102.183 290.688 105.539 294.828 105.539C298.969 105.539 302.324 102.183 302.324 98.0436V51.5639C302.324 43.7092 295.933 37.3177 288.078 37.3177H282.452V7.49592C282.452 3.35617 279.097 0 274.956 0C270.815 0 267.46 3.35617 267.46 7.49592V37.3177H261.833C253.978 37.3177 247.587 43.7092 247.587 51.5639V188.783C247.587 196.64 253.978 203.03 261.833 203.03ZM406.616 205.505C407.083 206.372 407.717 207.138 408.48 207.76C409.243 208.382 410.121 208.847 411.064 209.129C412.007 209.412 412.997 209.505 413.976 209.405C414.955 209.305 415.905 209.013 416.772 208.545L451.3 189.929L448.816 196.447C448.466 197.367 448.3 198.347 448.328 199.331C448.357 200.315 448.579 201.284 448.981 202.182C449.384 203.08 449.96 203.89 450.675 204.566C451.391 205.242 452.233 205.77 453.153 206.121C454.073 206.471 455.053 206.637 456.037 206.609C457.021 206.58 457.99 206.359 458.888 205.956C459.786 205.553 460.597 204.977 461.272 204.262C461.948 203.546 462.476 202.704 462.827 201.784L471.266 179.63C471.617 178.71 471.783 177.73 471.754 176.746C471.726 175.762 471.504 174.793 471.101 173.895C470.699 172.997 470.123 172.187 469.407 171.511C468.691 170.835 467.85 170.307 466.93 169.956L443.415 160.998C441.564 160.321 439.521 160.4 437.728 161.219C435.935 162.037 434.536 163.528 433.834 165.37C433.133 167.212 433.185 169.256 433.979 171.06C434.773 172.864 436.246 174.282 438.078 175.009L443.53 177.086L409.657 195.35C407.907 196.293 406.603 197.893 406.033 199.798C405.463 201.702 405.673 203.755 406.616 205.505ZM44.3218 351.968C44.8993 353.318 45.8605 354.469 47.0861 355.278C48.3117 356.086 49.7477 356.517 51.2161 356.517C52.2292 356.516 53.2316 356.31 54.1625 355.91L150.888 314.514L159.678 337.544C160.058 338.54 160.647 339.444 161.404 340.195C162.161 340.945 163.07 341.526 164.07 341.897C165.069 342.269 166.136 342.423 167.2 342.349C168.264 342.275 169.3 341.975 170.238 341.469L330.035 255.311C330.903 254.845 331.671 254.212 332.294 253.449C332.918 252.685 333.384 251.807 333.668 250.863C333.951 249.919 334.046 248.929 333.946 247.948C333.846 246.968 333.554 246.017 333.087 245.149C332.619 244.282 331.985 243.515 331.22 242.893C330.456 242.271 329.577 241.806 328.632 241.524C327.688 241.242 326.698 241.149 325.717 241.251C324.737 241.352 323.787 241.646 322.92 242.115L170.639 324.22L162.113 301.88C161.753 300.936 161.206 300.075 160.505 299.349C159.805 298.622 158.964 298.044 158.035 297.65C157.105 297.256 156.106 297.054 155.096 297.056C154.087 297.058 153.088 297.263 152.16 297.661L48.2637 342.127C46.4363 342.909 44.9946 344.386 44.2554 346.231C43.5162 348.077 43.5401 350.14 44.3218 351.968Z" fill="#13C4A1"/>
</svg>
