<svg width="494" height="483" viewBox="0 0 494 483" fill="none" xmlns="http://www.w3.org/2000/svg">
<path d="M198.92 241.94C192.703 241.94 187.646 246.998 187.646 253.215V266.23C187.646 272.447 192.704 277.504 198.92 277.504C203.498 277.504 205.304 281.005 205.748 282.078C206.193 283.151 207.392 286.904 204.155 290.14C202.025 292.27 200.852 295.101 200.852 298.114C200.852 301.127 202.025 303.958 204.154 306.087L213.357 315.29C217.752 319.686 224.905 319.686 229.301 315.29C232.548 312.045 236.295 313.242 237.369 313.686C238.44 314.13 241.938 315.936 241.938 320.525C241.938 326.742 246.996 331.799 253.212 331.799H266.227C272.444 331.799 277.502 326.741 277.502 320.525C277.502 315.947 281.003 314.141 282.076 313.696C283.148 313.252 286.901 312.053 290.138 315.29C294.534 319.686 301.687 319.686 306.083 315.29L315.285 306.088C317.415 303.958 318.588 301.127 318.588 298.114C318.588 295.101 317.415 292.27 315.286 290.141C312.049 286.904 313.247 283.151 313.692 282.078C314.136 281.005 315.942 277.504 320.52 277.504C326.737 277.504 331.794 272.446 331.794 266.23V253.215C331.794 246.998 326.736 241.94 320.52 241.94C315.942 241.94 314.136 238.439 313.692 237.366C313.247 236.293 312.048 232.54 315.284 229.304C317.415 227.175 318.588 224.343 318.588 221.33C318.588 218.317 317.415 215.486 315.286 213.357L306.083 204.154C301.687 199.758 294.534 199.758 290.138 204.154C286.901 207.391 283.148 206.193 282.076 205.748C281.003 205.304 277.502 203.498 277.502 198.919C277.502 192.702 272.443 187.645 266.227 187.645H253.212C246.995 187.645 241.938 192.703 241.938 198.919C241.938 203.497 238.437 205.303 237.364 205.748C236.294 206.193 232.54 207.392 229.302 204.154C224.906 199.758 217.753 199.758 213.357 204.154L204.155 213.356C202.025 215.486 200.852 218.317 200.852 221.33C200.852 224.343 202.025 227.174 204.154 229.302C207.391 232.539 206.193 236.292 205.748 237.365C205.304 238.439 203.498 241.94 198.92 241.94ZM218.683 242.724C221.706 235.426 220.602 227.5 215.866 221.447L221.447 215.865C227.5 220.601 235.426 221.707 242.723 218.683C250.022 215.66 254.845 209.274 255.776 201.645H263.669C264.6 209.274 269.423 215.659 276.722 218.683C284.021 221.707 291.947 220.6 297.998 215.865L303.579 221.447C298.843 227.499 297.738 235.426 300.762 242.724C303.785 250.022 310.17 254.845 317.799 255.775V263.668C310.17 264.598 303.785 269.421 300.762 276.72C297.739 284.019 298.843 291.945 303.58 297.997L297.998 303.579C291.946 298.843 284.02 297.738 276.722 300.761C269.423 303.784 264.6 310.17 263.669 317.799H255.776C254.846 310.164 250.025 303.774 242.728 300.752C235.43 297.729 227.502 298.839 221.447 303.58L215.866 297.998C220.601 291.946 221.707 284.019 218.683 276.721C215.659 269.423 209.275 264.599 201.646 263.669V255.776C209.274 254.845 215.659 250.022 218.683 242.724ZM259.722 298.524C281.118 298.524 298.524 281.118 298.524 259.722C298.524 238.326 281.118 220.92 259.722 220.92C238.326 220.92 220.92 238.326 220.92 259.722C220.92 281.118 238.326 298.524 259.722 298.524ZM259.722 234.92C273.398 234.92 284.524 246.046 284.524 259.722C284.524 273.398 273.398 284.524 259.722 284.524C246.046 284.524 234.92 273.398 234.92 259.722C234.92 246.046 246.046 234.92 259.722 234.92ZM368.036 125.316C368.036 120.754 365.391 116.807 361.56 114.9V80.089C361.56 76.851 360.705 73.956 358.946 71.241L339.604 41.372C336.546 36.65 331.566 33.942 325.94 33.942H287.953V7C287.953 5.14349 287.215 3.36301 285.903 2.05025C284.59 0.737497 282.81 0 280.953 0H163.047C161.19 0 159.41 0.737497 158.097 2.05025C156.785 3.36301 156.047 5.14349 156.047 7V116.038C153.235 118.165 151.406 121.527 151.406 125.316V136.702C151.406 143.12 156.628 148.341 163.046 148.341H181.772C186.754 155.96 195.355 161.008 205.119 161.008C214.882 161.008 223.484 155.96 228.467 148.341H289.14C294.122 155.96 302.724 161.008 312.488 161.008C322.251 161.008 330.853 155.96 335.836 148.341H356.398C362.816 148.341 368.037 143.12 368.037 136.702L368.036 125.316ZM327.854 48.982L340.199 68.046H313.149V47.942H325.941C326.81 47.942 327.382 48.253 327.854 48.982ZM299.148 47.942V75.046C299.148 76.9025 299.885 78.683 301.198 79.9958C302.511 81.3085 304.291 82.046 306.148 82.046H347.56V113.677H332.442C327.374 108.478 320.303 105.241 312.487 105.241C304.671 105.241 297.6 108.478 292.532 113.677H287.953V47.942H299.148ZM273.953 14V113.676H225.074C220.006 108.477 212.935 105.24 205.119 105.24C197.303 105.24 190.232 108.477 185.164 113.676H170.046V14H273.953ZM165.406 134.341V127.676H177.774C177.416 129.47 177.236 131.295 177.236 133.124C177.236 133.532 177.249 133.937 177.267 134.341H165.406ZM205.119 147.008C197.464 147.008 191.236 140.78 191.236 133.124C191.236 125.469 197.464 119.241 205.119 119.241C212.774 119.241 219.003 125.469 219.003 133.124C219.003 140.78 212.774 147.008 205.119 147.008ZM232.972 134.341C232.99 133.937 233.003 133.532 233.003 133.124C233.003 131.26 232.815 129.439 232.465 127.676H285.142C284.784 129.47 284.604 131.295 284.604 133.124C284.604 133.532 284.617 133.937 284.635 134.341H232.972ZM312.487 147.008C304.832 147.008 298.603 140.78 298.603 133.124C298.603 125.469 304.832 119.241 312.487 119.241C320.142 119.241 326.371 125.469 326.371 133.124C326.371 140.78 320.143 147.008 312.487 147.008ZM354.036 134.341H340.34C340.358 133.937 340.371 133.532 340.371 133.124C340.371 131.26 340.183 129.439 339.833 127.676H354.036V134.341ZM429.533 372.068C444.923 370.38 456.939 357.306 456.939 341.474C456.939 324.502 443.129 310.694 426.156 310.694C409.183 310.694 395.373 324.502 395.373 341.474C395.373 357.306 407.389 370.38 422.778 372.068C392.109 373.825 367.696 399.321 367.696 430.419C367.696 437.238 371.281 446.686 388.358 452.973C398.446 456.687 411.869 458.733 426.154 458.733C453.121 458.733 484.612 451.317 484.612 430.419C484.611 399.321 460.199 373.825 429.533 372.068ZM409.372 341.475C409.372 332.223 416.901 324.695 426.155 324.695C435.409 324.695 442.938 332.222 442.938 341.475C442.938 350.729 435.409 358.258 426.155 358.258C416.901 358.258 409.372 350.728 409.372 341.475ZM426.153 444.733C399.953 444.733 381.695 437.189 381.695 430.419C381.695 405.906 401.639 385.963 426.155 385.963C450.668 385.963 470.611 405.906 470.611 430.419C470.611 437.189 452.354 444.733 426.153 444.733ZM143.423 346.491C142.569 345.837 141.576 345.389 140.521 345.181C139.466 344.974 138.377 345.012 137.339 345.294L95.033 356.753V352.05C95.0329 350.975 94.7851 349.914 94.3088 348.95C93.8325 347.986 93.1406 347.145 92.2866 346.491C91.4326 345.838 90.4396 345.39 89.3846 345.182C88.3295 344.975 87.2409 345.013 86.203 345.294L43.896 356.753V313.824C43.896 308.055 39.203 303.362 33.434 303.362H10.463C4.693 303.362 0 308.055 0 313.824V424.6C0 426.456 0.737498 428.237 2.05025 429.55C3.36301 430.862 5.14348 431.6 7 431.6H139.169C141.026 431.6 142.806 430.862 144.119 429.55C145.431 428.237 146.169 426.456 146.169 424.6V352.05C146.169 350.975 145.921 349.914 145.445 348.95C144.969 347.986 144.277 347.145 143.423 346.491ZM29.896 317.362V324.767H14V317.362H29.896ZM14 417.6V338.767H29.896V417.6H14ZM43.896 371.257L81.033 361.198V417.6H43.896V371.257ZM132.169 417.6H95.033V371.257L132.169 361.198V417.6ZM354.689 440.757C355.496 442.429 355.605 444.353 354.993 446.106C354.381 447.858 353.098 449.296 351.426 450.103C300 474.919 239.089 477.494 185.708 457.646L191.843 472.412C192.206 473.263 192.397 474.177 192.405 475.102C192.413 476.027 192.238 476.945 191.889 477.801C191.54 478.658 191.025 479.437 190.373 480.094C189.721 480.75 188.945 481.271 188.091 481.626C187.237 481.981 186.321 482.163 185.396 482.161C184.471 482.16 183.555 481.975 182.702 481.618C181.848 481.261 181.074 480.738 180.424 480.08C179.774 479.421 179.261 478.641 178.915 477.783L166.237 447.269C165.884 446.42 165.702 445.51 165.701 444.591C165.7 443.672 165.88 442.762 166.231 441.912C166.582 441.062 167.096 440.29 167.746 439.639C168.395 438.989 169.166 438.472 170.015 438.12L200.53 425.443C201.379 425.09 202.289 424.908 203.208 424.907C204.127 424.906 205.038 425.086 205.887 425.437C206.737 425.788 207.509 426.303 208.16 426.952C208.81 427.602 209.327 428.373 209.679 429.222C210.391 430.936 210.393 432.863 209.685 434.579C208.976 436.295 207.615 437.66 205.901 438.372L190.85 444.624C240.635 463.065 297.401 460.63 345.341 437.496C346.169 437.096 347.067 436.863 347.985 436.811C348.903 436.759 349.822 436.887 350.69 437.19C351.559 437.493 352.358 437.964 353.045 438.576C353.731 439.188 354.289 439.929 354.689 440.757ZM491.268 281.336L465.075 301.48C464.346 302.04 463.514 302.452 462.626 302.691C461.739 302.93 460.813 302.991 459.901 302.872C458.989 302.753 458.11 302.456 457.313 301.997C456.517 301.538 455.818 300.927 455.258 300.198L435.114 274.004C434.554 273.275 434.142 272.443 433.903 271.556C433.665 270.668 433.603 269.742 433.722 268.831C433.841 267.919 434.138 267.04 434.597 266.244C435.056 265.447 435.667 264.749 436.396 264.188C437.124 263.628 437.956 263.217 438.844 262.978C439.731 262.739 440.657 262.677 441.569 262.796C442.48 262.915 443.359 263.213 444.156 263.671C444.952 264.13 445.651 264.741 446.211 265.47L456.147 278.389C461.073 225.529 444.029 171.328 409.276 131.008C408.085 129.599 407.498 127.777 407.644 125.938C407.789 124.099 408.654 122.392 410.051 121.187C411.448 119.983 413.265 119.378 415.105 119.506C416.945 119.633 418.661 120.482 419.879 121.867C457.159 165.118 475.412 223.289 470.056 279.986L482.732 270.238C484.204 269.106 486.065 268.606 487.906 268.846C489.746 269.086 491.416 270.048 492.548 271.52C493.68 272.991 494.181 274.852 493.941 276.693C493.701 278.534 492.739 280.204 491.268 281.336ZM87.697 137.005L71.845 139.109C68.01 139.619 64.493 136.923 63.985 133.091C63.477 129.259 66.172 125.74 70.004 125.231L102.76 120.883C103.671 120.762 104.598 120.821 105.486 121.058C106.374 121.295 107.207 121.705 107.937 122.264C108.667 122.822 109.279 123.52 109.74 124.315C110.2 125.111 110.499 125.99 110.62 126.901L114.968 159.657C115.212 161.497 114.714 163.359 113.586 164.833C112.457 166.307 110.789 167.272 108.949 167.517C108.038 167.638 107.111 167.579 106.223 167.342C105.335 167.105 104.502 166.696 103.772 166.137C103.042 165.578 102.429 164.881 101.969 164.085C101.509 163.289 101.21 162.41 101.089 161.499L98.945 145.343C68.25 188.657 55.909 244.119 65.845 296.414C66.1701 298.229 65.766 300.099 64.7206 301.617C63.6753 303.136 62.073 304.181 60.2617 304.525C58.4505 304.869 56.5765 304.485 55.0469 303.456C53.5173 302.427 52.4554 300.835 52.092 299.028C41.433 242.932 54.711 183.429 87.697 137.005ZM319.33 133.124C319.341 134.03 319.172 134.928 318.833 135.768C318.494 136.608 317.992 137.372 317.355 138.016C316.719 138.66 315.961 139.172 315.125 139.521C314.29 139.87 313.393 140.05 312.487 140.05C311.582 140.05 310.685 139.87 309.85 139.521C309.014 139.172 308.256 138.66 307.62 138.016C306.983 137.372 306.481 136.608 306.142 135.768C305.803 134.928 305.634 134.03 305.645 133.124C305.667 131.324 306.397 129.604 307.678 128.339C308.959 127.073 310.687 126.364 312.487 126.364C314.288 126.364 316.016 127.073 317.297 128.339C318.578 129.604 319.308 131.324 319.33 133.124ZM211.963 133.124C211.974 134.03 211.805 134.928 211.466 135.768C211.127 136.608 210.624 137.372 209.988 138.017C209.351 138.661 208.593 139.172 207.757 139.522C206.921 139.871 206.025 140.05 205.119 140.05C204.213 140.05 203.317 139.87 202.481 139.521C201.645 139.172 200.887 138.66 200.251 138.016C199.614 137.372 199.112 136.607 198.773 135.767C198.434 134.928 198.265 134.029 198.276 133.123C198.298 131.322 199.029 129.603 200.31 128.337C201.591 127.072 203.319 126.362 205.12 126.362C206.921 126.362 208.649 127.072 209.93 128.338C211.211 129.604 211.941 131.323 211.963 133.124ZM59.463 377.674V386.742C59.463 387.212 59.08 387.595 58.609 387.595H49.541C49.3148 387.595 49.0978 387.505 48.9378 387.345C48.7777 387.185 48.6875 386.968 48.687 386.742V377.674C48.687 377.204 49.07 376.82 49.541 376.82H58.609C59.08 376.82 59.463 377.204 59.463 377.674ZM116.602 386.742V377.674C116.602 377.204 116.985 376.82 117.456 376.82H126.524C126.994 376.82 127.378 377.204 127.378 377.674V386.742C127.378 387.212 126.995 387.595 126.524 387.595H117.456C117.23 387.595 117.013 387.505 116.853 387.345C116.693 387.185 116.603 386.968 116.602 386.742ZM99.825 386.742V377.674C99.825 377.204 100.209 376.82 100.679 376.82H109.747C110.217 376.82 110.601 377.204 110.601 377.674V386.742C110.601 387.212 110.218 387.595 109.747 387.595H100.679C100.453 387.595 100.236 387.505 100.076 387.345C99.9157 387.185 99.8255 386.968 99.825 386.742ZM76.241 377.674V386.742C76.241 387.212 75.858 387.595 75.387 387.595H66.319C66.0928 387.595 65.8758 387.505 65.7158 387.345C65.5557 387.185 65.4655 386.968 65.465 386.742V377.674C65.465 377.204 65.848 376.82 66.319 376.82H75.387C75.857 376.82 76.241 377.204 76.241 377.674Z" fill="#13C4A1"/>
</svg>
