<svg width="508" height="512" viewBox="0 0 508 512" fill="none" xmlns="http://www.w3.org/2000/svg">
<path d="M417.979 261.061L427.828 233.101C428.586 233.162 429.348 233.201 430.117 233.201C435.596 233.2 440.951 231.574 445.506 228.53C450.062 225.486 453.612 221.16 455.709 216.098C457.806 211.037 458.355 205.467 457.287 200.093C456.219 194.72 453.582 189.783 449.709 185.908C445.835 182.033 440.899 179.394 435.524 178.324C430.15 177.255 424.58 177.804 419.517 179.901C414.455 181.998 410.128 185.549 407.085 190.106C404.041 194.663 402.418 200.019 402.419 205.499C402.419 206.272 402.457 207.038 402.519 207.799L374.573 217.65C357.466 202.613 340.508 190.016 325.279 181.142C300.185 166.517 282.888 163.678 273.87 172.697C222.738 223.858 221.788 306.476 271.006 358.786L232.472 497.999H217.542L194.442 385.67C194.404 385.422 194.354 385.176 194.29 384.933L188.325 355.933C188.3 355.8 188.275 355.666 188.243 355.533L156.768 202.493C156.73 202.236 156.678 201.981 156.611 201.73L136.811 105.463C144.553 102.322 150.969 96.597 154.968 89.2612C158.967 81.9254 160.302 73.4313 158.747 65.2222C157.193 57.0132 152.843 49.5957 146.439 44.2304C140.034 38.865 131.97 35.8826 123.615 35.7902C115.261 35.6978 107.132 38.5009 100.61 43.7233C94.0886 48.9457 89.5763 56.2652 87.8403 64.4378C86.1043 72.6104 87.2516 81.132 91.0873 88.5545C94.923 95.977 101.21 101.842 108.881 105.154L89.208 201.728C89.1421 201.979 89.0903 202.234 89.053 202.491L79.419 249.78C79.3363 250.082 79.2738 250.39 79.232 250.701L73.719 277.784C73.6459 278.057 73.5897 278.333 73.551 278.613L57.919 355.34V355.357L28.863 497.999H7C5.14348 497.999 3.36301 498.736 2.05025 500.049C0.737498 501.362 0 503.142 0 504.999C0 506.855 0.737498 508.636 2.05025 509.949C3.36301 511.261 5.14348 511.999 7 511.999H397.363C399.219 511.999 401 511.261 402.313 509.949C403.625 508.636 404.363 506.855 404.363 504.999C404.363 503.142 403.625 501.362 402.313 500.049C401 498.736 399.219 497.999 397.363 497.999H354.019L325.181 393.788C348.844 401.82 374.281 403.077 398.62 397.416C422.959 391.755 445.23 379.401 462.919 361.751C471.94 352.73 469.098 335.433 454.475 310.34C445.603 295.115 433.011 278.163 417.979 261.061ZM420.428 195.809C422.999 193.242 426.484 191.801 430.117 191.801C433.751 191.801 437.235 193.242 439.807 195.809C441.262 197.263 442.37 199.025 443.051 200.966C443.731 202.906 443.966 204.975 443.738 207.019C443.51 209.062 442.825 211.028 441.734 212.771C440.642 214.514 439.172 215.989 437.433 217.086C435.694 218.183 433.73 218.875 431.687 219.11C429.644 219.345 427.575 219.117 425.632 218.443C423.689 217.768 421.923 216.666 420.465 215.216C419.006 213.766 417.893 212.007 417.207 210.068L417.2 210.044L417.189 210.017C416.334 207.584 416.184 204.96 416.756 202.446C417.329 199.932 418.6 197.63 420.424 195.808L420.428 195.809ZM407.155 221.009C409.147 223.946 411.68 226.478 414.619 228.467L407.279 249.304C403.926 245.743 400.487 242.195 396.962 238.66C393.437 235.125 389.893 231.69 386.33 228.355L407.155 221.009ZM318.226 193.238C330.949 200.652 344.999 210.857 359.354 223.011L332.842 232.356C331.975 232.662 331.176 233.135 330.492 233.75C329.808 234.364 329.251 235.107 328.854 235.936C328.457 236.766 328.228 237.665 328.178 238.583C328.129 239.501 328.261 240.42 328.566 241.287C328.872 242.155 329.346 242.953 329.96 243.637C330.574 244.321 331.317 244.878 332.147 245.275C332.976 245.672 333.876 245.902 334.794 245.951C335.712 246.001 336.631 245.869 337.498 245.563L371.398 233.612C376.629 238.385 381.846 243.368 387.05 248.559C392.254 253.75 397.244 258.974 402.019 264.231L390.079 298.12C389.773 298.987 389.642 299.906 389.691 300.824C389.741 301.742 389.971 302.642 390.368 303.471C390.765 304.3 391.322 305.043 392.006 305.657C392.69 306.271 393.489 306.744 394.356 307.05C395.223 307.355 396.142 307.487 397.06 307.438C397.978 307.388 398.878 307.158 399.707 306.761C400.536 306.364 401.279 305.807 401.893 305.123C402.507 304.439 402.98 303.64 403.286 302.773L412.619 276.28C424.765 290.629 434.966 304.673 442.377 317.39C455.988 340.747 454.677 350.175 453.022 351.845L453.012 351.855C451.331 353.507 441.9 354.801 418.575 341.206C397.711 329.044 373.262 309.397 349.734 285.882C335.108 271.376 321.568 255.815 309.224 239.324C309.064 239.076 308.889 238.839 308.699 238.614C303.563 231.682 298.794 224.485 294.411 217.054C281.274 194.512 282.037 184.947 283.596 182.806L283.771 182.624C283.813 182.583 283.848 182.537 283.888 182.495C285.819 180.893 295.329 179.899 318.226 193.241V193.238ZM283.768 351.848C273.463 341.548 272.197 323.334 278.81 301.962C293.252 323.723 311.904 342.373 333.666 356.813C325.839 359.367 317.676 360.742 309.444 360.893C298.766 360.892 289.876 357.957 283.768 351.848ZM313.39 322.226C302.403 311.311 292.91 298.99 285.157 285.584C290.23 274.758 296.331 264.444 303.374 254.784C314.679 269.18 326.853 282.873 339.828 295.784C352.748 308.761 366.448 320.938 380.852 332.247C371.19 339.29 360.874 345.39 350.047 350.462C336.635 342.71 324.309 333.215 313.39 322.226ZM271.655 201.726C274.471 209.515 278.039 217.01 282.309 224.107C285.846 230.175 289.991 236.525 294.628 243.043C288.197 251.557 282.422 260.546 277.351 269.934C273.888 261.893 271.267 253.515 269.531 244.934C266.319 228.728 267.105 213.991 271.655 201.726ZM392.598 340.999C399.111 345.632 405.456 349.775 411.518 353.308C418.618 357.581 426.119 361.15 433.913 363.964C421.645 368.514 406.906 369.299 390.698 366.087C382.106 364.349 373.718 361.725 365.667 358.258C375.064 353.189 384.067 347.419 392.598 340.999ZM253.809 232.791C254.152 237.783 254.815 242.748 255.794 247.655C258.564 261.139 263.223 274.164 269.634 286.345C264.795 298.313 261.926 309.796 261.134 320.317C247.752 293.106 245.136 261.847 253.809 232.791ZM100.633 215.791L111.292 223.848L96.755 234.835L100.633 215.791ZM170.788 340.175L134.388 312.207L160.851 291.866L170.788 340.175ZM149.138 234.902L134.519 223.854L145.207 215.779L149.138 234.902ZM153.412 255.687L157.712 276.616L122.896 303.378L88.219 276.734L92.528 255.577L122.901 232.629L153.412 255.687ZM85.11 291.999L111.41 312.208L75.348 339.931L85.11 291.999ZM63.727 396.983L106.486 417.144L54.641 441.593L63.727 396.983ZM66.605 382.858L71.083 360.87L122.901 321.04L175.101 361.151L179.533 382.699L122.904 409.399L66.605 382.858ZM182.435 396.813L191.695 441.838L139.319 417.144L182.435 396.813ZM101.055 71.972C101.046 67.3759 102.464 62.8905 105.114 59.1354C107.764 55.3804 111.515 52.5411 115.849 51.0101C120.182 49.479 124.885 49.3318 129.305 50.5886C133.726 51.8455 137.648 54.4444 140.528 58.0262C143.408 61.608 145.104 65.9959 145.382 70.5835C145.661 75.1712 144.507 79.732 142.081 83.6357C139.656 87.5394 136.077 90.5934 131.841 92.3755C127.604 94.1576 122.919 94.5799 118.432 93.584C118.416 93.584 118.4 93.575 118.383 93.572H118.366C113.459 92.468 109.073 89.7289 105.927 85.804C102.782 81.8792 101.064 77.0017 101.055 71.972ZM123.061 108.111L142.08 200.589L122.906 215.077L103.732 200.583L122.57 108.099C122.734 108.099 122.896 108.11 123.061 108.111ZM51.152 458.72L122.904 424.885L195.222 458.985L203.245 497.999H43.153L51.152 458.72ZM339.489 497.999H247.002L282.519 369.676C290.554 376.443 299.36 382.236 308.756 386.934L339.489 497.999ZM318.046 375.856C317.76 375.699 317.463 375.562 317.158 375.446C316.558 375.162 315.966 374.868 315.371 374.574C319.845 374.227 324.287 373.558 328.665 372.574C335.717 370.962 342.621 368.763 349.306 365.999C361.482 372.402 374.5 377.056 387.976 379.823C392.959 380.818 398.001 381.486 403.071 381.823C374.948 390.251 344.717 388.131 318.046 375.859V375.856ZM484.691 260.068C483.378 261.382 481.597 262.12 479.74 262.121C477.883 262.121 476.101 261.384 474.787 260.071C473.474 258.759 472.735 256.978 472.735 255.12C472.734 253.263 473.471 251.482 474.784 250.168C480.675 244.31 485.352 237.347 488.547 229.678C491.742 222.009 493.393 213.786 493.405 205.478C493.417 197.17 491.789 188.942 488.616 181.264C485.442 173.586 480.785 166.61 474.911 160.735C469.037 154.86 462.061 150.202 454.384 147.028C446.706 143.853 438.478 142.225 430.17 142.235C421.863 142.246 413.639 143.896 405.969 147.09C398.3 150.285 391.337 154.961 385.478 160.851C384.165 162.165 382.384 162.903 380.527 162.903C378.67 162.904 376.889 162.167 375.575 160.854C374.261 159.541 373.523 157.76 373.523 155.903C373.522 154.046 374.259 152.265 375.572 150.951C390.042 136.481 409.667 128.352 430.131 128.351C450.594 128.351 470.22 136.48 484.69 150.95C499.16 165.42 507.289 185.045 507.29 205.509C507.29 225.972 499.161 245.598 484.691 260.068ZM393.067 178.352C392.416 177.702 391.9 176.931 391.548 176.082C391.195 175.233 391.013 174.323 391.012 173.404C391.012 172.484 391.192 171.574 391.543 170.724C391.894 169.875 392.409 169.103 393.059 168.452C397.927 163.584 403.705 159.722 410.066 157.087C416.426 154.453 423.242 153.096 430.127 153.096C437.011 153.096 443.828 154.451 450.188 157.086C456.548 159.72 462.327 163.581 467.195 168.448C472.064 173.316 475.925 179.095 478.56 185.455C481.195 191.815 482.551 198.632 482.551 205.516C482.552 212.4 481.196 219.217 478.562 225.577C475.928 231.938 472.067 237.717 467.199 242.585C466.549 243.235 465.777 243.751 464.928 244.102C464.079 244.454 463.168 244.635 462.249 244.635C461.33 244.635 460.419 244.454 459.57 244.102C458.721 243.751 457.949 243.235 457.299 242.585C456.649 241.935 456.133 241.163 455.781 240.314C455.43 239.465 455.249 238.554 455.249 237.635C455.249 236.716 455.43 235.805 455.781 234.956C456.133 234.107 456.649 233.335 457.299 232.685C464.504 225.481 468.553 215.709 468.553 205.52C468.554 195.331 464.507 185.559 457.302 178.353C450.098 171.148 440.327 167.1 430.137 167.099C419.948 167.099 410.176 171.146 402.971 178.35C402.321 179.001 401.549 179.517 400.7 179.869C399.85 180.222 398.939 180.403 398.019 180.403C397.1 180.404 396.189 180.223 395.339 179.871C394.489 179.519 393.717 179.003 393.067 178.352ZM190.219 11.689C189.603 11.0061 189.128 10.2087 188.821 9.3422C188.514 8.47573 188.38 7.55721 188.427 6.63907C188.475 5.72093 188.703 4.82116 189.098 3.99112C189.494 3.16108 190.049 2.41704 190.732 1.80146C191.414 1.18589 192.212 0.710851 193.078 0.403462C193.945 0.0960726 194.863 -0.0376443 195.781 0.0099457C196.7 0.0575357 197.599 0.285501 198.429 0.680825C199.259 1.07615 200.003 1.63109 200.619 2.31396C217.818 21.4382 227.334 46.2494 227.334 71.97C227.334 97.6906 217.818 122.502 200.619 141.626C199.377 143.006 197.638 143.837 195.783 143.935C193.929 144.033 192.112 143.39 190.732 142.148C189.351 140.907 188.52 139.167 188.422 137.313C188.324 135.459 188.967 133.641 190.209 132.261C205.092 115.708 213.326 94.2349 213.326 71.975C213.326 49.715 205.092 28.2419 190.209 11.689H190.219ZM45.784 141.621C28.5885 122.497 19.075 97.6886 19.075 71.971C19.075 46.2533 28.5885 21.4446 45.784 2.32096C46.3988 1.63711 47.1422 1.08103 47.9719 0.684498C48.8016 0.287963 49.7013 0.0587288 50.6196 0.00988515C51.5378 -0.0389585 52.4567 0.0935446 53.3238 0.399829C54.1909 0.706113 54.9891 1.18018 55.673 1.79496C56.3569 2.40975 56.9129 3.15321 57.3095 3.98289C57.706 4.81258 57.9352 5.71225 57.9841 6.63053C58.0329 7.5488 57.9004 8.46771 57.5941 9.33478C57.2879 10.2019 56.8138 11.0001 56.199 11.684C41.3139 28.2379 33.0791 49.7133 33.08 71.9754C33.0809 94.2375 41.3175 115.712 56.204 132.265C57.4447 133.647 58.0856 135.465 57.9859 137.319C57.8861 139.173 57.0538 140.912 55.672 142.153C54.2902 143.394 52.4722 144.035 50.6178 143.935C48.7635 143.835 47.0247 143.003 45.784 141.621ZM47.309 71.972C47.2978 53.2193 54.2411 35.1287 66.796 21.199C68.0384 19.8189 69.7782 18.9889 71.6325 18.8916C73.4869 18.7943 75.304 19.4376 76.684 20.68C78.0641 21.9224 78.894 23.6621 78.9914 25.5165C79.0887 27.3708 78.4454 29.1879 77.203 30.568C66.9747 41.9272 61.3142 56.6712 61.3131 71.9568C61.312 87.2425 66.9703 101.987 77.197 113.348C77.813 114.031 78.2884 114.828 78.5962 115.695C78.9039 116.562 79.038 117.48 78.9906 118.399C78.9433 119.317 78.7156 120.217 78.3204 121.048C77.9252 121.878 77.3704 122.622 76.6875 123.238C76.0046 123.854 75.2071 124.33 74.3405 124.638C73.4739 124.945 72.5552 125.079 71.6367 125.032C70.7183 124.985 69.8182 124.757 68.9878 124.362C68.1574 123.967 67.413 123.412 66.797 122.729C54.2333 108.811 47.2881 90.7218 47.309 71.972ZM169.209 30.565C168.594 29.8814 168.12 29.0835 167.813 28.2166C167.507 27.3498 167.374 26.431 167.422 25.5129C167.471 24.5947 167.699 23.695 168.096 22.8653C168.492 22.0355 169.047 21.2919 169.731 20.677C171.111 19.435 172.929 18.7922 174.783 18.8901C175.701 18.9386 176.601 19.1674 177.431 19.5636C178.26 19.9597 179.004 20.5154 179.619 21.199C192.166 35.1308 199.109 53.2153 199.109 71.964C199.109 90.7127 192.166 108.797 179.619 122.729C178.375 124.108 176.634 124.937 174.779 125.032C172.924 125.128 171.108 124.482 169.729 123.238C168.349 121.994 167.521 120.254 167.425 118.399C167.33 116.544 167.975 114.727 169.219 113.348C179.446 101.988 185.105 87.2428 185.104 71.957C185.103 56.6712 179.443 41.9271 169.214 30.568L169.209 30.565Z" fill="#13C4A1"/>
</svg>
