<svg width="512" height="512" viewBox="0 0 512 512" fill="none" xmlns="http://www.w3.org/2000/svg">
<path d="M76.7988 307.195H145.064V324.261H76.7988V307.195ZM511.091 405.777L485.492 354.578C484.783 353.16 483.693 351.968 482.345 351.135C480.997 350.302 479.444 349.861 477.859 349.861H426.66V324.261C426.66 321.998 425.761 319.828 424.16 318.228C422.56 316.627 420.39 315.728 418.126 315.728H247.463C245.199 315.728 243.029 316.627 241.429 318.228C239.828 319.828 238.929 321.998 238.929 324.261V477.859C238.929 480.122 239.828 482.292 241.429 483.893C243.029 485.493 245.199 486.392 247.463 486.392H282.807C287.428 504.574 305.914 515.567 324.095 510.946C330.018 509.441 335.425 506.365 339.747 502.044C344.068 497.722 347.144 492.315 348.649 486.392H410.805C415.426 504.574 433.912 515.567 452.093 510.946C458.016 509.441 463.423 506.365 467.745 502.044C472.066 497.722 475.142 492.315 476.647 486.392H503.458C505.722 486.392 507.892 485.493 509.492 483.893C511.093 482.292 511.992 480.122 511.992 477.859V409.593C511.992 408.269 511.683 406.962 511.091 405.777ZM315.728 494.925C306.302 494.925 298.662 487.285 298.662 477.859C298.662 468.433 306.302 460.792 315.728 460.792C325.154 460.792 332.795 468.433 332.795 477.859C332.785 487.281 325.15 494.916 315.728 494.925ZM409.593 469.326H348.649C344.78 454.294 331.249 443.773 315.728 443.726C300.207 443.773 286.676 454.294 282.807 469.326H255.996V332.795H409.593V469.326ZM460.792 366.927H472.584L489.652 401.06H460.792V366.927ZM443.726 494.925C434.3 494.925 426.66 487.285 426.66 477.859C426.66 468.433 434.3 460.792 443.726 460.792C453.152 460.792 460.792 468.433 460.792 477.859C460.783 487.281 453.148 494.916 443.726 494.925ZM494.925 469.326H476.647C472.778 454.294 459.247 443.773 443.726 443.726C437.716 443.76 431.824 445.4 426.66 448.475V366.927H443.726V409.593C443.726 411.856 444.625 414.027 446.225 415.627C447.826 417.227 449.996 418.127 452.259 418.127H494.925V469.326ZM187.73 119.465H204.788V136.531H187.73V119.465ZM221.863 119.465H238.921V136.531H221.863V119.465ZM255.996 119.465H273.054V136.531H255.996V119.465ZM290.129 119.465H307.186V136.531H290.129V119.465Z" fill="#13C4A1"/>
<path d="M470.067 142.531L443.63 116.09C423.975 96.4594 397.352 85.4022 369.572 85.3319H303.391L263.233 21.0791C262.466 19.8518 261.399 18.8396 260.133 18.1377C258.867 17.4358 257.443 17.0671 255.996 17.0664H230.396C229.099 17.067 227.82 17.363 226.654 17.932C225.489 18.5009 224.469 19.3278 223.671 20.35C222.873 21.3721 222.318 22.5626 222.049 23.8311C221.78 25.0996 221.803 26.4128 222.117 27.671L236.533 85.3319H168.48L144.706 6.0831C144.178 4.32493 143.098 2.78361 141.626 1.68781C140.153 0.592022 138.367 0.000145263 136.531 0L93.8651 0C91.602 0 89.4315 0.89903 87.8312 2.49931C86.2309 4.0996 85.3319 6.27005 85.3319 8.53319V93.8651H85.4119C85.398 94.9805 85.6047 96.0878 86.02 97.1231C86.4353 98.1584 87.0512 99.1015 87.8321 99.8981L141.165 153.231C152.058 164.195 165.018 172.89 179.295 178.812C193.572 184.734 208.881 187.765 224.338 187.73H226.662L205.459 235.467C204.976 236.554 204.726 237.73 204.725 238.92C204.723 240.11 204.971 241.286 205.451 242.375C205.931 243.463 206.633 244.439 207.513 245.24C208.393 246.041 209.43 246.649 210.559 247.025L236.141 255.558C237.886 256.14 239.772 256.142 241.519 255.564C243.265 254.987 244.778 253.861 245.833 252.354L291.042 187.73H451.322C465.939 187.757 477.81 175.93 477.837 161.313C477.844 157.824 477.16 154.369 475.827 151.146C474.493 147.923 472.536 144.995 470.067 142.531ZM251.266 34.1328L283.266 85.3319H254.126L241.325 34.1328H251.266ZM102.398 17.0664H130.181L150.661 85.3319H102.398V17.0664ZM235.5 237.354L224.871 233.808L252.916 170.664H282.153L235.5 237.354ZM460.076 164.814C459.381 166.562 458.172 168.057 456.609 169.101C455.045 170.146 453.202 170.691 451.322 170.664H302.981L305.528 167.022C306.422 165.743 306.948 164.244 307.049 162.686C307.15 161.129 306.823 159.574 306.102 158.19C305.381 156.806 304.295 155.646 302.961 154.836C301.627 154.027 300.096 153.598 298.536 153.597H247.37C245.718 153.597 244.103 154.076 242.718 154.977C241.334 155.877 240.24 157.159 239.57 158.668L234.242 170.664H224.338C211.123 170.693 198.035 168.1 185.829 163.037C173.624 157.973 162.544 150.539 153.23 141.165L114.464 102.398H369.572C388.177 102.478 406.277 108.453 421.273 119.465H358.394V136.531H439.93L458.021 154.622C459.356 155.913 460.267 157.579 460.634 159.399C461.001 161.219 460.806 163.107 460.076 164.814ZM209.175 488.654C203.802 482.885 196.596 479.155 188.783 478.1L221.367 386.864C221.748 385.794 221.912 384.659 221.849 383.525C221.786 382.391 221.498 381.281 221.001 380.26C220.504 379.239 219.808 378.327 218.954 377.578C218.101 376.829 217.106 376.258 216.029 375.898L195.221 368.961L179.059 280.07C178.702 278.104 177.666 276.325 176.132 275.044C174.597 273.764 172.662 273.062 170.664 273.062H136.531V247.463C136.531 245.199 135.632 243.029 134.032 241.429C132.431 239.828 130.261 238.929 127.998 238.929H93.8651C91.602 238.929 89.4315 239.828 87.8312 241.429C86.2309 243.029 85.3319 245.199 85.3319 247.463V273.062H51.1991C49.2006 273.062 47.2655 273.764 45.7312 275.044C44.1969 276.325 43.1608 278.104 42.8035 280.07L26.6417 368.961L5.8335 375.898C4.7697 376.254 3.78639 376.815 2.93975 377.551C2.0931 378.287 1.39968 379.183 0.899094 380.186C0.398505 381.19 0.100547 382.283 0.0222313 383.402C-0.056084 384.521 0.0867777 385.644 0.442659 386.708L0.495992 386.864L33.08 478.103C25.2794 479.165 18.0863 482.893 12.7209 488.654C11.196 490.575 9.26419 492.134 7.06452 493.218C4.86485 494.302 2.45209 494.885 0 494.925V511.991C4.57395 511.967 9.0932 510.995 13.2732 509.138C17.4532 507.28 21.2034 504.578 24.2876 501.2C25.8124 499.278 27.7447 497.718 29.9452 496.633C32.1457 495.548 34.5595 494.965 37.0127 494.925C38.8154 494.91 40.6041 495.244 42.2809 495.907C42.3524 495.939 42.3982 496.008 42.4708 496.038C45.1469 497.371 47.5771 499.149 49.6578 501.296C52.7748 504.646 56.5439 507.323 60.7335 509.162C64.9231 511.001 69.4446 511.964 74.0201 511.991C78.5931 511.966 83.1112 510.993 87.2898 509.135C91.4684 507.277 95.2169 504.574 98.2992 501.196C103.668 494.184 113.704 492.85 120.716 498.218C121.834 499.074 122.834 500.074 123.691 501.192C126.77 504.571 130.516 507.275 134.692 509.134C138.869 510.993 143.385 511.966 147.957 511.991C152.53 511.964 157.048 511.001 161.235 509.16C165.421 507.32 169.186 504.642 172.298 501.292C174.361 499.16 176.768 497.391 179.419 496.059C179.496 496.027 179.545 495.954 179.619 495.92C181.3 495.249 183.096 494.911 184.906 494.926C187.353 494.966 189.761 495.549 191.956 496.633C194.15 497.718 196.076 499.277 197.593 501.197C200.674 504.575 204.421 507.277 208.598 509.135C212.775 510.993 217.291 511.966 221.863 511.993V494.926C219.416 494.886 217.008 494.303 214.813 493.218C212.619 492.133 210.693 490.574 209.175 488.654ZM102.398 255.996H119.465V273.062H102.398V255.996ZM102.398 478.971C96.4359 480.815 91.0415 484.148 86.7239 488.654C81.3416 495.674 71.2873 497.001 64.2677 491.618C63.1541 490.764 62.1575 489.768 61.3035 488.654C58.655 486.066 55.7185 483.791 52.5517 481.871L19.4994 389.331L102.398 361.701V478.971ZM108.232 341.765L45.1064 362.807L58.3201 290.128H163.543L176.757 362.807L113.631 341.765C111.879 341.182 109.984 341.182 108.232 341.765ZM169.294 481.927C166.165 483.837 163.261 486.095 160.639 488.659C155.282 495.663 145.259 496.998 138.255 491.64C137.134 490.782 136.131 489.78 135.273 488.659C130.93 484.106 125.485 480.753 119.466 478.923V361.701L202.365 389.331L169.294 481.927Z" fill="#13C4A1"/>
<path d="M324.261 119.465H341.319V136.531H324.261V119.465Z" fill="#13C4A1"/>
</svg>
