<svg xmlns="http://www.w3.org/2000/svg" version="1.1" xmlns:xlink="http://www.w3.org/1999/xlink" width="512" height="512" x="0" y="0" viewBox="0 0 512 512" style="enable-background:new 0 0 512 512" xml:space="preserve"><g><path fill="#60b7ff" d="M67.839 28.278c0-6.576-7.955-18.328-10.842-23.755A38.627 38.627 0 0 0 38.801 0C17.372 0 0 17.372 0 38.801a38.627 38.627 0 0 0 4.523 18.196c5.427 2.887 15.876 16.232 22.451 16.232 21.43 0 40.865-23.522 40.865-44.951z" opacity="1" data-original="#60b7ff"></path><path fill="#918291" d="M434.399 38.801a38.627 38.627 0 0 0 4.523 18.196c5.427 2.887 17.436 13.054 24.012 13.054 21.429 0 38.367-23.295 38.367-44.724 0-6.576-7.019-15.377-9.906-20.804A38.624 38.624 0 0 0 473.199 0c-21.429 0-38.8 17.372-38.8 38.801z" opacity="1" data-original="#918291"></path><path fill="#ffe177" d="M504.48 466.735c0-6.576-10.197-22.386-13.084-27.813a38.627 38.627 0 0 0-18.196-4.523c-21.429 0-38.801 17.372-38.801 38.801a38.627 38.627 0 0 0 4.523 18.196c5.427 2.887 14.031 11.663 20.607 11.663 21.429 0 44.951-14.895 44.951-36.324z" opacity="1" data-original="#ffe177"></path><path fill="#5de1c4" d="M68.369 460.681c0-6.576-8.485-16.332-11.372-21.759a38.627 38.627 0 0 0-18.196-4.523C17.372 434.399 0 451.77 0 473.199a38.627 38.627 0 0 0 4.523 18.196c5.427 2.887 12.773 11.058 19.349 11.058 21.429.001 44.497-20.343 44.497-41.772z" opacity="1" data-original="#5de1c4"></path><path fill="#918291" d="M272.65 12.588V29.46c0 15.117 10.661 28.014 25.443 31.184a198.54 198.54 0 0 1 40.578 13.407c1.694.77 2.078 3.01.762 4.325l-29.667 29.667c-2.717 2.717-1.778 7.329 1.79 8.753 38.07 15.196 68.445 45.563 83.657 83.632 1.425 3.566 6.036 4.504 8.752 1.789l29.659-29.651c1.316-1.315 3.555-.931 4.325.762a198.35 198.35 0 0 1 13.408 40.579c3.169 14.782 16.066 25.444 31.184 25.444h1.699c.03-1.594 9.645-4.659 9.645-6.26 0-63.597-33.373-120.172-72.516-164.263-38.783-34.294-88.305-56.718-142.88-61.586-3.136-.28-5.839 2.198-5.839 5.346z" opacity="1" data-original="#918291"></path><path fill="#ffe177" d="M481.396 272.671c-14.621.522-26.951 11.015-30.041 25.422a198.54 198.54 0 0 1-13.407 40.578c-.77 1.694-3.01 2.078-4.325.762l-29.667-29.667c-2.717-2.717-7.329-1.778-8.753 1.79-15.195 38.069-45.563 68.445-83.632 83.657-3.566 1.425-4.504 6.036-1.789 8.752l29.651 29.659c1.315 1.316.931 3.555-.762 4.325a198.35 198.35 0 0 1-40.579 13.408c-14.407 3.089-24.9 15.418-25.423 30.038 102.976.002 224.661-82.804 208.727-208.724z" opacity="1" data-original="#ffe177"></path><path fill="#5de1c4" d="M213.907 451.356a198.57 198.57 0 0 1-40.579-13.407c-1.694-.77-2.078-3.01-.762-4.325l29.667-29.667c2.717-2.717 1.778-7.329-1.79-8.753-38.069-15.195-68.445-45.563-83.657-83.632-1.425-3.566-6.036-4.504-8.752-1.789l-29.659 29.651c-1.316 1.315-3.555.931-4.325-.762a198.35 198.35 0 0 1-13.408-40.579c-3.169-14.782-16.066-25.444-31.184-25.444h-16.87c-3.148 0-5.626 2.703-5.346 5.839 4.873 54.578 27.298 104.102 61.591 142.886 44.09 39.142 100.269 80.287 163.864 80.287 1.6 0 5.061-17.389 6.654-17.419v-1.702c-.001-15.118-10.663-28.014-25.444-31.184z" opacity="1" data-original="#5de1c4"></path><path fill="#60b7ff" d="M213.907 60.642a198.35 198.35 0 0 0-40.579 13.408c-1.693.77-2.077 3.009-.762 4.325l29.651 29.659c2.715 2.716 1.778 7.327-1.789 8.752-38.069 15.212-68.436 45.587-83.632 83.657-1.424 3.568-6.037 4.507-8.753 1.79l-29.667-29.667c-1.316-1.316-3.555-.931-4.325.762a198.529 198.529 0 0 0-13.407 40.579c-3.17 14.781-16.066 25.443-31.184 25.443H12.588c-3.148 0-5.626-2.703-5.346-5.838C17.946 113.52 113.511 17.955 233.512 7.241c3.136-.28 5.839 2.198 5.839 5.346v16.87c0 15.118-10.662 28.015-25.444 31.185z" opacity="1" data-original="#60b7ff"></path><path fill="#7a6d79" d="M484.241 239.351h15.171c3.148 0 5.626-2.703 5.346-5.839-5.841-65.421-36.901-123.579-83.389-164.684 39.144 44.09 62.916 102.134 62.916 165.731.001 1.601-.014 3.198-.044 4.792z" opacity="1" data-original="#7a6d79"></path><path fill="#ffc344" d="M499.412 272.65H482.54c-.383 0-.764.007-1.143.021C464.949 380.076 380.075 464.95 272.67 481.397c-.014.38-.021.762-.021 1.146v16.87c0 3.148 2.703 5.626 5.839 5.346 120.001-10.714 215.567-106.279 226.27-226.27.28-3.136-2.198-5.839-5.346-5.839z" opacity="1" data-original="#ffc344"></path><path fill="#0ed2b3" d="M68.832 421.373c41.106 46.49 99.262 77.549 164.68 83.385 3.136.28 5.838-2.198 5.838-5.346v-15.171c-1.593.03-3.19.045-4.791.045-63.595 0-121.638-23.771-165.727-62.913z" opacity="1" data-original="#0ed2b3"></path><path fill="#26a6fe" d="M56.997 4.523A38.631 38.631 0 0 1 61.52 22.72c0 21.429-17.372 38.801-38.801 38.801a38.627 38.627 0 0 1-18.196-4.523C11.044 69.256 23.947 77.602 38.8 77.602c21.429 0 38.801-17.372 38.801-38.801 0-14.853-8.346-27.757-20.604-34.278z" opacity="1" data-original="#26a6fe"></path><path fill="#7a6d79" d="M457.119 61.52a38.627 38.627 0 0 1-18.196-4.523c6.521 12.258 19.424 20.604 34.277 20.604 21.428 0 38.8-17.371 38.8-38.8 0-14.853-8.346-27.756-20.604-34.277a38.63 38.63 0 0 1 4.523 18.196c0 21.429-17.371 38.8-38.8 38.8z" opacity="1" data-original="#7a6d79"></path><path fill="#ffc344" d="M491.396 438.922a38.627 38.627 0 0 1 4.523 18.196c0 21.429-17.372 38.801-38.801 38.801a38.627 38.627 0 0 1-18.196-4.523C445.443 503.654 458.346 512 473.199 512 494.628 512 512 494.628 512 473.199c0-14.853-8.346-27.756-20.604-34.277z" opacity="1" data-original="#ffc344"></path><path fill="#0ed2b3" d="M56.997 438.922a38.627 38.627 0 0 1 4.523 18.196c0 21.429-17.372 38.801-38.801 38.801a38.627 38.627 0 0 1-18.196-4.523C11.044 503.654 23.948 512 38.801 512c21.429 0 38.801-17.372 38.801-38.801-.001-14.853-8.347-27.756-20.605-34.277z" opacity="1" data-original="#0ed2b3"></path><path fill="#fd8087" d="m331.788 283.129 6.357-12.45c14.224-12.353 15.723-34.079 14.158-54.729-1.153-15.218-15.505-24.581-25.786-34.783a61.045 61.045 0 0 0-18.255-4.007c-19.195-1.199-36.657 6.335-48.8 19.006a4.764 4.764 0 0 1-6.922 0 62.247 62.247 0 0 0-16.982-12.553 4.765 4.765 0 0 1-4.459-1.384 59.97 59.97 0 0 0-1.03-1.049c-8.094-3.125-17.007-4.603-26.329-4.02-30.602 1.912-55.583 26.531-57.9 57.105-1.565 20.649 6.983 39.367 21.206 51.72h-.001l69.216 60.114a9.382 9.382 0 0 0 4.464-2.148z" opacity="1" data-original="#fd8087"></path><path fill="#fe646f" d="M366.16 234.265c-1.834-24.198-17.865-44.666-39.644-53.098 10.281 10.201 17.05 23.943 18.203 39.161 1.565 20.649-6.983 39.367-21.206 51.72h.002l-82.79 71.902a9.359 9.359 0 0 1-4.464 2.148l13.573 11.788a9.403 9.403 0 0 0 12.332 0l82.79-71.902h-.002c14.224-12.352 22.771-31.069 21.206-51.719z" opacity="1" data-original="#fe646f"></path></g></svg>