<svg width="495" height="495" viewBox="0 0 495 495" fill="none" xmlns="http://www.w3.org/2000/svg">
<path d="M256.358 5.62685L269.875 32.7714L298.811 37.789C306.815 39.1799 309.998 49.3943 304.307 55.4188L283.724 77.2045L288.093 107.447C289.305 115.809 280.968 122.124 273.706 118.344L247.466 104.665L221.226 118.344C213.964 122.124 205.636 115.818 206.839 107.447L211.208 77.2045L190.625 55.4188C184.934 49.3943 188.117 39.1799 196.121 37.789L225.057 32.7714L238.574 5.62685C239.372 3.94342 240.631 2.52097 242.205 1.52488C243.779 0.52879 245.603 0 247.466 0C249.329 0 251.153 0.52879 252.727 1.52488C254.301 2.52097 255.56 3.94342 256.358 5.62685ZM102.758 73.8935L116.275 101.038L145.211 106.056C153.215 107.447 156.398 117.661 150.707 123.686L130.124 145.471L134.493 175.713C135.705 184.076 127.368 190.391 120.106 186.61L93.866 172.931L67.626 186.61C60.3641 190.391 52.0356 184.084 53.2388 175.713L57.6078 145.471L37.0254 123.686C31.3337 117.661 34.5166 107.447 42.5209 106.056L71.4574 101.038L84.9742 73.8935C85.7717 72.2101 87.0306 70.7876 88.6047 69.7915C90.1788 68.7955 92.0032 68.2667 93.866 68.2667C95.7287 68.2667 97.5532 68.7955 99.1273 69.7915C100.701 70.7876 101.96 72.2101 102.758 73.8935ZM409.958 73.8935L423.475 101.038L452.411 106.056C460.415 107.447 463.598 117.661 457.907 123.686L437.324 145.471L441.693 175.713C442.905 184.076 434.568 190.391 427.306 186.61L401.066 172.931L374.826 186.61C367.564 190.391 359.236 184.084 360.439 175.713L364.808 145.471L344.225 123.686C338.534 117.661 341.717 107.447 349.721 106.056L378.657 101.038L392.174 73.8935C392.972 72.2101 394.231 70.7876 395.805 69.7915C397.379 68.7955 399.203 68.2667 401.066 68.2667C402.929 68.2667 404.753 68.7955 406.327 69.7915C407.901 70.7876 409.16 72.2101 409.958 73.8935Z" fill="#F9C82B"/>
<path d="M157.013 361.808C133.803 385.019 119.467 416.933 119.467 452.261C119.467 456.955 115.627 460.795 110.933 460.795H8.53333C3.84 460.795 0 456.955 0 452.261C0 383.995 27.7333 322.213 72.5333 277.328H81.0667L153.6 349.861L157.013 361.808Z" fill="#D7342C"/>
<path d="M247.468 204.795L256.002 213.328V315.728L247.468 324.262C212.14 324.262 180.226 338.598 157.015 361.808L72.5352 277.328C117.42 232.528 179.202 204.795 247.468 204.795Z" fill="#E99E32"/>
<path d="M422.398 277.328L426.665 290.128L349.865 366.928L337.918 361.808C314.708 338.598 282.793 324.262 247.465 324.262V204.795C315.732 204.795 377.513 232.528 422.398 277.328Z" fill="#F9C82B"/>
<path d="M494.935 452.261C494.935 456.955 491.095 460.795 486.402 460.795H384.002C379.309 460.795 375.469 456.955 375.469 452.261C375.469 416.933 361.133 385.019 337.922 361.808L422.402 277.328C467.202 322.213 494.935 383.995 494.935 452.261Z" fill="#2AA869"/>
<path d="M279.213 473.254C320.173 451.067 384.599 412.838 433.239 383.739C442.114 378.363 435.885 364.966 426.157 368.294C372.482 386.726 301.826 411.387 258.477 428.539L279.213 473.254Z" fill="#0A365E"/>
<path d="M247.465 494.928C266.317 494.928 281.599 479.646 281.599 460.795C281.599 441.944 266.317 426.662 247.465 426.662C228.614 426.662 213.332 441.944 213.332 460.795C213.332 479.646 228.614 494.928 247.465 494.928Z" fill="#06293F"/>
</svg>
