<svg width="428" height="438" viewBox="0 0 428 438" fill="none" xmlns="http://www.w3.org/2000/svg">
<g clip-path="url(#clip0_798_31)">
<path fill-rule="evenodd" clip-rule="evenodd" d="M213.736 0C331.78 0 427.473 37.76 427.473 84.3407V210.083C284.976 178.945 142.774 179.32 0 210.083V84.3407C0 37.761 95.6928 0 213.736 0Z" fill="#19CFBA"/>
<path fill-rule="evenodd" clip-rule="evenodd" d="M99.4611 281.365C39.6851 266.412 0 240.077 0 210.083V84.3408C0 114.336 39.6851 140.67 99.4611 155.622V281.365Z" fill="#99F7EC"/>
<path fill-rule="evenodd" clip-rule="evenodd" d="M389.379 384.661V424.618C389.379 431.613 383.674 437.318 376.68 437.318H50.7895C43.7945 437.318 38.0898 431.613 38.0898 424.618V384.661C38.0898 359.689 52.4361 338.377 75.5713 328.978L156.633 296.046C167.061 291.809 173.527 282.203 173.527 270.948V246.859H253.943V270.948C253.943 282.203 260.408 291.81 270.836 296.046L351.898 328.978C375.033 338.377 389.379 359.689 389.379 384.661Z" fill="#FCD4A9"/>
<path fill-rule="evenodd" clip-rule="evenodd" d="M321.662 437.318H105.809V316.694L156.634 296.046C157.125 295.847 157.609 295.635 158.083 295.412L213.735 355.64L269.387 295.412C269.862 295.635 270.344 295.847 270.836 296.046L321.662 316.694V437.318Z" fill="#88C8FE"/>
<path fill-rule="evenodd" clip-rule="evenodd" d="M126.809 308.163L156.635 296.046C157.126 295.847 157.609 295.635 158.084 295.412L213.737 355.64L174.456 403.458L126.809 308.163ZM269.389 295.412C269.863 295.635 270.346 295.847 270.838 296.046L300.664 308.163L253.017 403.458L213.737 355.64L269.389 295.412Z" fill="#4187B5"/>
<path fill-rule="evenodd" clip-rule="evenodd" d="M92.5486 46.262C93.2707 45.7327 94.09 45.3509 94.9597 45.1382C95.8295 44.9256 96.7325 44.8863 97.6174 45.0226C98.5023 45.159 99.3517 45.4683 100.117 45.9329C100.882 46.3975 101.549 47.0083 102.078 47.7304C102.607 48.4526 102.989 49.2719 103.202 50.1416C103.414 51.0113 103.454 51.9144 103.317 52.7992C103.181 53.6841 102.872 54.5335 102.407 55.2988C101.942 56.0642 101.332 56.7305 100.61 57.2598L62.3632 85.342L100.61 113.423C102.033 114.505 102.975 116.103 103.232 117.872C103.489 119.642 103.041 121.441 101.984 122.883C100.927 124.325 99.3454 125.295 97.5807 125.582C95.8159 125.87 94.0088 125.453 92.5486 124.421L46.9335 90.9289C43.2051 88.2563 42.9973 82.6437 46.8137 79.8441L92.5486 46.262ZM326.862 57.2588C325.404 56.1895 324.431 54.585 324.155 52.7981C323.88 51.0111 324.326 49.188 325.394 47.7294C326.463 46.2715 328.068 45.2978 329.855 45.0225C331.642 44.7471 333.465 45.1926 334.923 46.261L380.658 79.841C384.475 82.6406 384.267 88.2542 380.538 90.9258L334.923 124.418C334.201 124.947 333.382 125.329 332.512 125.542C331.642 125.754 330.739 125.794 329.854 125.657C328.97 125.521 328.12 125.212 327.355 124.747C326.59 124.282 325.923 123.672 325.394 122.949C324.865 122.227 324.483 121.408 324.27 120.538C324.057 119.669 324.018 118.765 324.155 117.881C324.291 116.996 324.6 116.146 325.065 115.381C325.529 114.616 326.14 113.949 326.862 113.42L365.109 85.3389L326.862 57.2588Z" fill="white"/>
<path fill-rule="evenodd" clip-rule="evenodd" d="M321.661 316.694V437.317H376.681C383.676 437.317 389.38 431.613 389.38 424.618V384.66C389.38 359.689 375.034 338.377 351.899 328.977L321.661 316.694ZM105.808 437.317V316.694L75.5713 328.978C52.4361 338.377 38.0898 359.69 38.0898 384.661V424.619C38.0898 431.614 43.7945 437.318 50.7895 437.318H105.808V437.317Z" fill="#4187B5"/>
<path fill-rule="evenodd" clip-rule="evenodd" d="M427.474 210.083C427.474 240.078 387.788 266.412 328.012 281.365V155.622C387.788 140.67 427.474 114.335 427.474 84.3408V210.083Z" fill="#99F7EC"/>
<path fill-rule="evenodd" clip-rule="evenodd" d="M170.891 282.802C172.603 279.22 173.527 275.202 173.527 270.948V246.859H253.943V270.948C253.943 275.202 254.867 279.219 256.579 282.801C230.449 300.153 197.021 300.154 170.891 282.802Z" fill="#F0B16E"/>
<path d="M213.736 268.021C258.148 268.021 294.152 230.123 294.152 183.373C294.152 136.623 258.148 98.7251 213.736 98.7251C169.324 98.7251 133.32 136.623 133.32 183.373C133.32 230.123 169.324 268.021 213.736 268.021Z" fill="#FCD4A9"/>
<path fill-rule="evenodd" clip-rule="evenodd" d="M134.926 136.816H292.547C296.922 136.816 300.501 140.395 300.501 144.77V196.581C300.501 200.956 296.922 204.535 292.547 204.535H237.136C231.589 204.535 226.816 202.127 223.518 197.666L217.143 189.038C216.751 188.504 216.238 188.069 215.646 187.769C215.054 187.469 214.401 187.313 213.737 187.313C213.074 187.313 212.42 187.469 211.828 187.769C211.237 188.069 210.724 188.504 210.331 189.038L203.956 197.666C200.659 202.127 195.887 204.535 190.339 204.535H134.926C130.552 204.535 126.973 200.956 126.973 196.581V144.77C126.973 140.396 130.552 136.816 134.926 136.816Z" fill="#FA6E85"/>
<path fill-rule="evenodd" clip-rule="evenodd" d="M126.973 144.77L135.438 94.4928L192.575 69.0986H234.899L292.036 94.4928L300.502 144.77H126.973Z" fill="#847784"/>
<path fill-rule="evenodd" clip-rule="evenodd" d="M192.574 69.0986H234.898V144.771H192.574V69.0986Z" fill="#E33F65"/>
<path fill-rule="evenodd" clip-rule="evenodd" d="M193.762 244.48C192.182 243.654 190.988 242.24 190.44 240.543C189.891 238.846 190.03 237.001 190.828 235.405C191.625 233.81 193.018 232.591 194.705 232.012C196.392 231.433 198.239 231.539 199.848 232.308C209.213 237.002 218.177 236.868 227.702 232.254C229.328 231.487 231.191 231.393 232.886 231.992C234.58 232.592 235.97 233.837 236.751 235.456C237.533 237.075 237.643 238.937 237.058 240.637C236.473 242.337 235.24 243.737 233.628 244.532C220.339 250.969 206.857 251.062 193.762 244.48Z" fill="#666666"/>
</g>
<defs>
<clipPath id="clip0_798_31">
<rect width="428" height="438" fill="white"/>
</clipPath>
</defs>
</svg>
