<svg width="421" height="421" viewBox="0 0 421 421" fill="none" xmlns="http://www.w3.org/2000/svg">
<path d="M9.14286 128C11.5677 128 13.8932 127.037 15.6078 125.322C17.3225 123.608 18.2857 121.282 18.2857 118.857V47.7623C18.2954 39.9476 21.4041 32.4557 26.9299 26.9299C32.4557 21.4041 39.9476 18.2954 47.7623 18.2857H118.857C121.282 18.2857 123.608 17.3225 125.322 15.6078C127.037 13.8932 128 11.5677 128 9.14286C128 6.71802 127.037 4.3925 125.322 2.67788C123.608 0.963264 121.282 0 118.857 0H47.7623C35.0994 0.0145189 22.9593 5.05126 14.0053 14.0053C5.05126 22.9593 0.0145189 35.0994 0 47.7623V118.857C0 121.282 0.963264 123.608 2.67788 125.322C4.3925 127.037 6.71802 128 9.14286 128ZM372.809 0H301.714C299.289 0 296.964 0.963264 295.249 2.67788C293.535 4.3925 292.571 6.71802 292.571 9.14286C292.571 11.5677 293.535 13.8932 295.249 15.6078C296.964 17.3225 299.289 18.2857 301.714 18.2857H372.809C380.624 18.2954 388.116 21.4041 393.642 26.9299C399.167 32.4557 402.276 39.9476 402.286 47.7623V118.857C402.286 121.282 403.249 123.608 404.964 125.322C406.678 127.037 409.004 128 411.429 128C413.853 128 416.179 127.037 417.894 125.322C419.608 123.608 420.571 121.282 420.571 118.857V47.7623C420.557 35.0994 415.52 22.9593 406.566 14.0053C397.612 5.05126 385.472 0.0145189 372.809 0ZM118.857 402.286H47.7623C39.9476 402.276 32.4557 399.167 26.9299 393.642C21.4041 388.116 18.2954 380.624 18.2857 372.809V301.714C18.2857 299.289 17.3225 296.964 15.6078 295.249C13.8932 293.535 11.5677 292.571 9.14286 292.571C6.71802 292.571 4.3925 293.535 2.67788 295.249C0.963264 296.964 0 299.289 0 301.714V372.809C0.0145189 385.472 5.05126 397.612 14.0053 406.566C22.9593 415.52 35.0994 420.557 47.7623 420.571H118.857C121.282 420.571 123.608 419.608 125.322 417.894C127.037 416.179 128 413.853 128 411.429C128 409.004 127.037 406.678 125.322 404.964C123.608 403.249 121.282 402.286 118.857 402.286ZM411.429 292.571C409.004 292.571 406.678 293.535 404.964 295.249C403.249 296.964 402.286 299.289 402.286 301.714V372.809C402.276 380.624 399.167 388.116 393.642 393.642C388.116 399.167 380.624 402.276 372.809 402.286H301.714C299.289 402.286 296.964 403.249 295.249 404.964C293.535 406.678 292.571 409.004 292.571 411.429C292.571 413.853 293.535 416.179 295.249 417.894C296.964 419.608 299.289 420.571 301.714 420.571H372.809C385.472 420.557 397.612 415.52 406.566 406.566C415.52 397.612 420.557 385.472 420.571 372.809V301.714C420.571 299.289 419.608 296.964 417.894 295.249C416.179 293.535 413.853 292.571 411.429 292.571ZM338.286 278.857V141.714C338.286 140.109 337.863 138.533 337.061 137.143C336.258 135.753 335.104 134.599 333.714 133.797L214.857 65.2251C213.467 64.4227 211.891 64.0002 210.286 64.0002C208.681 64.0002 207.104 64.4227 205.714 65.2251L86.9486 133.797C85.5587 134.599 84.4046 135.753 83.6021 137.143C82.7997 138.533 82.3772 140.109 82.3771 141.714V278.857C82.3772 280.462 82.7997 282.039 83.6021 283.428C84.4046 284.818 85.5587 285.972 86.9486 286.775L205.806 355.346C207.196 356.149 208.772 356.571 210.377 356.571C211.982 356.571 213.559 356.149 214.949 355.346L333.806 286.775C335.179 285.961 336.314 284.802 337.1 283.413C337.886 282.024 338.295 280.453 338.286 278.857ZM210.286 83.6937L310.857 141.714L210.286 199.735L109.806 141.714L210.286 83.6937ZM100.663 157.55L201.143 215.57V331.593L100.663 273.573V157.55ZM219.429 331.593V215.57L320 157.55V273.573L219.429 331.593Z" fill="url(#paint0_linear_1139_575)"/>
<defs>
<linearGradient id="paint0_linear_1139_575" x1="15.0059" y1="27.1072" x2="415.606" y2="486.859" gradientUnits="userSpaceOnUse">
<stop stop-color="#1BA2D7"/>
<stop offset="1" stop-color="#8D3DFA"/>
</linearGradient>
</defs>
</svg>
