<svg width="483" height="490" viewBox="0 0 483 490" fill="none" xmlns="http://www.w3.org/2000/svg">
<path d="M435.588 66.4818C445.75 66.4818 453.973 58.2588 453.973 48.0964C453.973 37.934 445.75 29.7109 435.588 29.7109C425.425 29.7109 417.202 37.934 417.202 48.0964C417.202 58.2588 425.503 66.4818 435.588 66.4818ZM435.588 42.8212C438.536 42.8212 440.94 45.2261 440.94 48.174C440.94 51.1218 438.536 53.5267 435.588 53.5267C432.562 53.5267 430.235 51.1994 430.235 48.174C430.235 45.1485 432.64 42.8212 435.588 42.8212Z" fill="url(#paint0_linear_1139_535)"/>
<path d="M455.99 0H78.0412C63.6897 0 51.9758 11.7139 51.9758 26.0655V65.8618H26.0655C11.7139 65.8618 0 77.5758 0 91.9273V418.754C0 433.105 11.7139 444.819 26.0655 444.819H199.292V482.521C199.292 486.09 202.24 489.038 205.808 489.038H328.223C331.792 489.038 334.739 486.09 334.739 482.521V444.819H404.015C418.366 444.819 430.08 433.105 430.08 418.754V378.958H455.99C470.342 378.958 482.056 367.244 482.056 352.892V26.0655C482.056 11.7139 470.342 0 455.99 0ZM65.0085 26.0655C65.0085 18.8509 70.9042 13.0327 78.0412 13.0327H455.99C463.205 13.0327 469.023 18.9285 469.023 26.0655V83.2388H221.712L192.621 53.0618C190.371 50.7345 187.268 49.4158 184.087 49.4158H120.01C113.493 49.4158 108.141 54.7685 108.141 61.2849V83.2388H65.0085V26.0655ZM26.0655 431.864C18.8509 431.864 13.0327 425.969 13.0327 418.832V91.9273C13.0327 84.7127 18.9285 78.8945 26.0655 78.8945H51.9758V352.97C51.9758 367.321 63.6897 379.035 78.0412 379.035H219.539C222.099 384 223.263 389.585 222.798 395.326H212.713C205.265 395.326 199.292 401.377 199.292 408.747V431.864H26.0655ZM260.577 295.409C261.896 293.081 264.301 291.607 267.016 291.607C271.05 291.607 274.308 294.865 274.308 298.899C274.308 301.537 272.912 303.942 270.662 305.261C268.179 306.735 265.232 306.579 262.206 304.873C261.806 304.667 261.481 304.342 261.275 303.942C258.793 299.985 259.801 296.882 260.577 295.409ZM260.499 279.816C255.719 281.405 251.706 284.726 249.251 289.125C245.527 295.796 245.993 303.942 250.337 310.924C251.733 313.096 253.595 314.88 255.845 316.199C259.413 318.216 263.292 319.302 267.093 319.302C270.662 319.302 274.153 318.371 277.256 316.587C283.462 312.941 287.341 306.192 287.341 298.977C287.341 290.056 281.522 282.531 273.532 279.816V246.303L331.171 350.332C331.093 350.41 331.016 350.565 330.783 350.642C310.381 355.918 297.038 375.001 298.124 395.326H235.985C237.149 374.924 223.728 355.84 202.938 350.022L260.499 246.303V279.816ZM321.707 476.005H212.325L212.713 408.281H321.319C321.552 408.281 321.707 408.436 321.707 408.669V476.005ZM417.047 418.754C417.047 425.968 411.152 431.787 404.015 431.787H334.739V408.669C334.739 401.222 328.688 395.249 321.319 395.249H311.234C310.768 389.508 312.01 383.922 314.492 378.958H417.047V418.754ZM455.99 366.002H327.137C329.232 364.839 331.481 363.83 333.964 363.21C338.075 362.124 341.411 359.253 343.118 355.375C344.747 351.573 344.514 347.307 342.497 343.661L275.782 223.496C274.075 220.315 270.739 218.298 267.093 218.298C263.37 218.376 260.034 220.238 258.25 223.418L191.457 343.661C189.44 347.307 189.285 351.651 190.914 355.452C192.543 359.331 195.879 362.124 199.99 363.21C202.473 363.83 204.645 364.839 206.817 366.002H78.0412C70.8267 366.002 65.0085 360.107 65.0085 352.97V96.2715H109.227C115.743 96.2715 121.096 90.9188 121.096 84.4024V62.4485H183.544L212.635 92.6255C214.885 94.9527 217.988 96.2715 221.168 96.2715H469.023V352.892C469.023 360.107 463.205 366.002 455.99 366.002Z" fill="url(#paint1_linear_1139_535)"/>
<path d="M391.214 66.4818C401.377 66.4818 409.6 58.2588 409.6 48.0964C409.6 37.934 401.377 29.7109 391.214 29.7109C381.052 29.7109 372.829 37.934 372.829 48.0964C372.829 58.2588 381.052 66.4818 391.214 66.4818ZM391.214 42.8212C394.162 42.8212 396.567 45.2261 396.567 48.174C396.567 51.1218 394.162 53.5267 391.214 53.5267C388.189 53.5267 385.861 51.1994 385.861 48.174C385.861 45.1485 388.266 42.8212 391.214 42.8212ZM346.763 66.4818C356.926 66.4818 365.149 58.2588 365.149 48.0964C365.149 37.934 356.926 29.7109 346.763 29.7109C336.601 29.7109 328.378 37.934 328.378 48.0964C328.378 58.2588 336.601 66.4818 346.763 66.4818ZM346.763 42.8212C349.711 42.8212 352.116 45.2261 352.116 48.174C352.116 51.1218 349.711 53.5267 346.763 53.5267C343.738 53.5267 341.41 51.1994 341.41 48.174C341.41 45.1485 343.815 42.8212 346.763 42.8212ZM392.61 153.056C388.809 156.858 386.404 161.667 385.473 166.787H294.322V156.547C294.322 149.565 288.659 143.902 281.677 143.902H252.276C245.294 143.902 239.631 149.565 239.631 156.547V166.787H148.557C147.704 161.745 145.299 156.935 141.42 152.979C131.568 143.282 114.734 143.437 105.115 153.056C100.227 157.944 97.5898 164.382 97.5898 171.209C97.5898 178.113 100.305 184.63 105.115 189.362C110.002 194.404 116.518 196.964 123.267 196.964C127.534 196.964 131.878 195.956 135.99 193.861C140.471 191.567 144.07 187.858 146.23 183.311C146.773 182.147 147.238 180.984 147.626 179.82H210.85C176.484 196.576 150.574 228.072 141.575 266.084H131.49C124.509 266.084 118.846 271.747 118.846 278.729V308.13C118.846 315.112 124.509 320.775 131.49 320.775H160.892C167.873 320.775 173.537 315.112 173.537 308.13V278.729C173.537 271.747 167.873 266.084 160.892 266.084H154.996C165.857 225.124 198.671 193.008 239.864 183.078V185.871C239.864 192.853 245.527 198.516 252.509 198.516H281.91C288.892 198.516 294.555 192.853 294.555 185.871V183.078C335.67 193.008 368.484 225.124 379.423 266.084H374.07C367.088 266.084 361.425 271.747 361.425 278.729V308.13C361.425 315.112 367.088 320.775 374.07 320.775H403.471C410.453 320.775 416.116 315.112 416.116 308.13V278.729C416.116 271.747 410.453 266.084 403.471 266.084H392.843C383.767 228.072 357.857 196.499 323.568 179.82H386.947C388.189 183.389 390.206 186.647 392.921 189.362C397.808 194.404 404.324 196.964 411.073 196.964C415.34 196.964 419.684 195.956 423.796 193.861C428.277 191.567 431.876 187.858 434.036 183.311C439.078 172.683 437.294 161.124 429.304 152.979C419.141 143.359 402.307 143.437 392.61 153.056ZM134.361 177.803C133.43 179.665 131.878 181.294 130.017 182.225C123.267 185.638 117.449 183.466 114.269 180.13C111.864 177.803 110.545 174.622 110.545 171.209C110.545 167.873 111.864 164.693 114.269 162.21C116.673 159.805 119.854 158.487 123.267 158.487C126.603 158.487 129.861 159.805 132.189 162.133C136.223 166.322 136.998 172.14 134.361 177.803ZM160.737 307.742L131.723 308.13L131.335 279.117H160.349L160.737 307.742ZM403.238 307.742L374.225 308.13L373.837 279.117H402.85L403.238 307.742ZM252.741 185.949L252.586 176.174C252.741 175.476 252.741 174.778 252.664 174.002V173.924C252.664 173.692 252.819 173.536 252.819 173.304C252.819 172.916 252.664 172.605 252.586 172.295L252.353 157.013H281.367L281.6 172.295C281.522 172.683 281.367 172.993 281.367 173.381C281.367 173.614 281.444 173.769 281.522 174.002V174.079C281.367 175.088 281.444 176.019 281.677 176.872L281.832 185.638L252.741 185.949ZM421.934 177.803C421.003 179.665 419.452 181.294 417.59 182.225C410.841 185.638 405.023 183.466 401.842 180.13C399.437 177.803 398.118 174.622 398.118 171.209C398.118 167.873 399.437 164.693 401.842 162.21C404.247 159.805 407.427 158.487 410.841 158.487C414.176 158.487 417.435 159.805 419.762 162.133C423.796 166.322 424.572 172.14 421.934 177.803Z" fill="url(#paint2_linear_1139_535)"/>
<defs>
<linearGradient id="paint0_linear_1139_535" x1="418.514" y1="32.0809" x2="453.539" y2="72.2774" gradientUnits="userSpaceOnUse">
<stop stop-color="#1BA2D7"/>
<stop offset="1" stop-color="#8D3DFA"/>
</linearGradient>
<linearGradient id="paint1_linear_1139_535" x1="17.1997" y1="31.5201" x2="483.885" y2="559.468" gradientUnits="userSpaceOnUse">
<stop stop-color="#1BA2D7"/>
<stop offset="1" stop-color="#8D3DFA"/>
</linearGradient>
<linearGradient id="paint2_linear_1139_535" x1="109.695" y1="48.471" x2="378.127" y2="407.562" gradientUnits="userSpaceOnUse">
<stop stop-color="#1BA2D7"/>
<stop offset="1" stop-color="#8D3DFA"/>
</linearGradient>
</defs>
</svg>
