<svg width="440" height="484" viewBox="0 0 440 484" fill="none" xmlns="http://www.w3.org/2000/svg">
<path d="M23.3 107.109H90.7C94.6 107.109 97.7 110.209 97.7 114.109V181.509C97.7 185.409 94.6 188.509 90.7 188.509H23.3C19.4 188.509 16.3 185.409 16.3 181.509V114.109C16.3 110.209 19.4 107.109 23.3 107.109ZM83.6 121.109H30.3V174.409H83.6V121.109ZM394.2 93.8094L436.9 124.809C439.5 126.709 440.4 130.009 439.4 132.909L423.1 183.009C422.1 185.909 419.4 187.809 416.5 187.809H363.6C360.3 187.809 357.6 185.609 356.8 182.509L340.6 132.609C339.6 129.709 340.8 126.509 343.2 124.809L386 93.7094C388.4 91.9094 391.8 92.0094 394.2 93.8094ZM407.3 120.609L390 108.009L355.4 133.109L368.6 173.709H411.4L424.6 133.109L407.3 120.609ZM325.1 229.909C327.5 226.809 331.8 226.309 334.9 228.709C338 231.109 338.5 235.409 336.2 238.509C327.7 249.409 317.6 259.309 306.4 267.509C303.3 269.809 298.9 269.109 296.6 265.909C294.4 262.809 295 258.409 298.2 256.109C308.3 248.609 317.4 239.809 325.1 229.909ZM271.3 271.209C274.8 269.709 279 271.409 280.4 274.909C281.9 278.409 280.2 282.609 276.7 284.009C260.5 290.809 243.6 294.709 226.3 295.509C222.4 295.709 219.2 292.709 219 288.909C218.8 285.009 221.8 281.809 225.7 281.609C241.3 280.909 256.7 277.309 271.3 271.209ZM195 279.509C198.8 280.209 201.3 283.809 200.6 287.609C199.9 291.409 196.3 293.909 192.5 293.209C160.7 287.409 131.6 271.209 109.8 247.309L110.6 256.709C110.9 260.609 108 263.909 104.2 264.209C100.3 264.509 97 261.609 96.7 257.809L94 224.809C93.6 219.609 99 215.409 104.3 218.109L133.8 232.109C137.3 233.709 138.8 237.909 137.1 241.409C135.5 244.909 131.3 246.409 127.8 244.709L125.9 243.809C144.8 262.309 169 274.709 195 279.509ZM327.9 38.8095C327.6 34.9095 330.5 31.6095 334.3 31.3095C338.2 31.0095 341.5 33.9094 341.8 37.7094L344.5 70.7094C344.9 75.9094 339.5 80.1094 334.2 77.4094L304.7 63.4095C301.2 61.8095 299.7 57.6094 301.4 54.1094C303 50.6094 307.2 49.1095 310.7 50.8095L312.5 51.7095C293.6 33.4095 269.4 20.9094 243.4 16.1094C239.6 15.4094 237.1 11.8094 237.8 8.00945C238.5 4.20945 242.1 1.70945 245.9 2.40945C277.6 8.20945 306.9 24.6095 328.6 48.4095L327.9 38.8095ZM113.3 65.6094C110.9 68.7094 106.6 69.2094 103.5 66.8094C100.4 64.4094 99.9 60.1094 102.2 57.0094C110.7 46.1094 120.9 36.2094 132 28.0094C135.1 25.7094 139.5 26.4094 141.8 29.6094C144.1 32.7094 143.4 37.1095 140.2 39.4095C130.1 46.9095 121 55.7094 113.3 65.6094ZM167.1 24.3095C163.6 25.8095 159.5 24.1094 158 20.6094C156.5 17.1094 158.2 13.0094 161.7 11.5094C177.9 4.70945 194.8 0.80945 212.1 0.00944956C216 -0.19055 219.2 2.80945 219.4 6.60945C219.6 10.5094 216.6 13.7094 212.7 13.9094C197.2 14.6094 181.7 18.2095 167.1 24.3095ZM219.2 100.309C245.4 100.309 266.7 121.609 266.7 147.809C266.7 174.009 245.4 195.309 219.2 195.309C193 195.309 171.7 174.009 171.7 147.809C171.7 121.609 193 100.309 219.2 100.309ZM242.9 124.109C229.8 111.009 208.6 111.009 195.6 124.109C182.6 137.209 182.5 158.409 195.6 171.409C208.7 184.509 229.9 184.509 242.9 171.409C255.9 158.309 255.9 137.109 242.9 124.109ZM204.6 45.4095H233.7C237.6 45.4095 240.7 48.5095 240.7 52.4095V65.8094C248.1 67.8094 255.2 70.7094 261.8 74.6094L271.3 65.1094C274 62.4094 278.5 62.4094 281.2 65.1094L301.9 85.7094C304.6 88.4094 304.6 92.9094 301.9 95.6094L292.4 105.109C296.2 111.709 299.2 118.809 301.2 126.209H314.6C318.5 126.209 321.6 129.309 321.6 133.209V162.409C321.6 166.409 318.4 169.509 314 169.409H301.2C299.2 176.809 296.3 183.909 292.4 190.509L301.9 200.009C304.6 202.709 304.6 207.209 301.9 209.909L281.3 230.509C278.6 233.209 274.1 233.209 271.4 230.509L261.9 221.009C255.3 224.909 248.2 227.809 240.8 229.809V243.209C240.8 247.109 237.7 250.209 233.8 250.209H204.7C200.8 250.209 197.7 247.109 197.7 243.209V229.809C194.2 228.909 190.1 227.509 186.8 226.109C183.3 224.609 179.8 222.909 176.5 221.009L167 230.509C164.3 233.209 159.8 233.209 157.1 230.509L136.5 209.909C133.8 207.209 133.8 202.709 136.5 200.009L146 190.509C142.2 183.909 139.2 176.809 137.3 169.409H123.9C120 169.409 116.9 166.309 116.9 162.409V133.209C116.9 129.309 120 126.209 123.9 126.209H137.3C138.2 122.909 139.6 118.509 141 115.309C142.5 111.809 144.2 108.309 146.1 105.009L136.6 95.5094C133.9 92.8094 133.9 88.4094 136.6 85.6094L157.2 65.0094C159.9 62.3094 164.4 62.3094 167.1 65.0094L176.6 74.5094C183.2 70.6094 190.3 67.7094 197.7 65.7094V52.4095C197.6 48.5095 200.8 45.4095 204.6 45.4095ZM226.8 59.4095H211.6V71.0094C211.8 74.5094 209.4 77.6094 205.9 78.3094C201.1 79.2094 196.5 80.6094 192.1 82.4094C187.8 84.2094 183.7 86.4094 179.8 89.0094C177.1 91.2094 173.1 91.0094 170.6 88.4094L162.1 79.9094L151.4 90.6094L159.9 99.1094C162.2 101.409 162.6 105.209 160.7 108.009C158 112.009 155.7 116.209 153.9 120.709C152.1 125.009 150.8 129.409 149.9 134.009C149.5 137.509 146.6 140.209 143 140.209H131V155.409H143C146.3 155.409 149.2 157.809 149.9 161.109C150.8 165.909 152.2 170.509 154 174.909C155.8 179.209 158 183.309 160.6 187.209C162.7 189.909 162.5 193.909 160 196.409L151.5 204.909L162.2 215.609L170.7 207.109C173 204.809 176.8 204.409 179.6 206.309C183.6 209.009 187.8 211.309 192.3 213.209C196.6 215.009 201 216.309 205.6 217.209C209.1 217.609 211.8 220.609 211.8 224.109V236.109H227V224.109C227 220.809 229.4 217.909 232.7 217.209C237.5 216.309 242.1 214.909 246.5 213.109C250.8 211.309 254.9 209.109 258.8 206.509C261.5 204.409 265.5 204.609 268 207.109L276.5 215.609L287.2 204.909L278.7 196.409C276.4 194.109 276 190.409 277.9 187.509C283.3 179.509 287.1 170.609 288.9 161.009C289.5 157.809 292.4 155.309 295.8 155.309H307.8V140.109H295.8C292.5 140.109 289.6 137.809 288.9 134.409C288 129.609 286.6 125.009 284.8 120.609C283 116.309 280.8 112.209 278.2 108.309C276.1 105.609 276.3 101.609 278.8 99.1094L287.3 90.6094L276.3 79.9094L267.8 88.4094C265.5 90.8094 261.7 91.2094 258.9 89.3094C254.9 86.6094 250.7 84.3094 246.2 82.4094C241.9 80.6094 237.5 79.3094 232.8 78.4094C229.3 78.0094 226.6 75.0094 226.6 71.4094V59.4095H226.8ZM16 346.909L53.5 346.609C61.2 346.609 67.7 352.509 69 360.009L154.5 310.809C154.6 310.709 154.8 310.709 154.9 310.609C175.9 300.109 192.5 300.409 202.6 305.809C211.2 310.409 215.9 319.009 214.7 328.609C213.4 338.509 205.7 349.309 190.5 356.509C176.9 363.909 164.5 371.009 155.5 376.809C152.6 378.609 150.2 380.109 148.3 381.109C155.1 381.509 167.8 382.209 182.9 383.509C191.1 384.309 199.8 384.909 208.4 385.509C216.4 383.009 224.8 380.109 231.9 377.409C240.4 374.209 246.7 371.709 247.6 371.109L302.6 332.209L302.9 332.009C317.7 322.509 337.6 320.409 348.1 330.309C350.9 332.909 352.7 336.209 353.2 340.009C367.7 334.609 385.5 335.909 393.6 346.409C396.1 349.609 397.3 353.309 397.1 357.409C396.7 363.609 392.8 370.309 384 376.409C378.9 379.909 370.1 386.209 359.9 393.409C319.8 421.909 257.3 466.209 233.9 473.009C233.5 473.109 233.1 473.209 232.7 473.209C215.9 475.009 103.7 474.409 67.4 474.909C64.8 480.209 59.3 483.509 53.2 483.609L15.7 483.909C7 483.909 0 476.409 0 467.909C0.3 432.809 0.100002 397.609 0.100002 362.509C0.200002 353.709 7.3 347.009 16 346.909ZM53.4 360.609L16 360.909C15 360.909 14.1 361.509 14.1 362.509C14 396.809 12.6 434.009 14 467.909C14 468.909 14.9 470.009 15.8 470.009C28.2 470.009 40.7 469.809 53.2 469.709C54.3 469.709 55.1 469.109 55.1 467.909L55.2 372.009V362.709C55.2 361.809 54.4 360.609 53.4 360.609ZM245.8 387.109C252.9 387.109 267.9 387.009 270.9 385.309L335.5 349.209C338.4 346.209 339.6 343.809 339.4 342.109C339 337.909 325.1 334.409 310.5 343.809L255.7 382.509C254.5 383.409 250.9 385.109 245.8 387.109ZM161.1 323.109L69.2 375.909L69.1 460.909C99.7 460.509 223.2 460.809 230.8 459.309C252.4 452.609 312.9 409.609 352 381.909C361.2 375.409 369.1 369.709 376.3 364.809C383.3 360.009 386.3 355.409 379.2 352.409C373.4 349.809 364.1 350.009 354.5 354.609L277.9 397.409C264.9 404.709 199.6 399.009 181.9 397.409C163.6 395.709 147.4 393.309 138.4 390.709C138.1 390.809 137.7 390.809 137.3 390.809C133.4 390.909 130.2 387.809 130.2 384.009C130.1 378.809 137 372.309 148.2 365.009C157.4 359.009 170.1 351.709 184.1 344.109C184.3 344.009 184.5 343.809 184.8 343.709C195.3 338.709 200.5 332.209 201.2 326.709C201.7 322.809 199.8 319.809 196.4 318.009C189.4 314.609 177.5 315.009 161.1 323.109Z" fill="white"/>
</svg>
