<svg width="496" height="496" viewBox="0 0 496 496" fill="none" xmlns="http://www.w3.org/2000/svg">
<path d="M312 384C298.768 384 288 394.768 288 408C288 421.232 298.768 432 312 432C325.232 432 336 421.232 336 408C336 394.768 325.232 384 312 384ZM312 416C309.878 416 307.843 415.157 306.343 413.657C304.843 412.157 304 410.122 304 408C304 405.878 304.843 403.843 306.343 402.343C307.843 400.843 309.878 400 312 400C314.122 400 316.157 400.843 317.657 402.343C319.157 403.843 320 405.878 320 408C320 410.122 319.157 412.157 317.657 413.657C316.157 415.157 314.122 416 312 416ZM376 384C362.768 384 352 394.768 352 408C352 421.232 362.768 432 376 432C389.232 432 400 421.232 400 408C400 394.768 389.232 384 376 384ZM376 416C373.878 416 371.843 415.157 370.343 413.657C368.843 412.157 368 410.122 368 408C368 405.878 368.843 403.843 370.343 402.343C371.843 400.843 373.878 400 376 400C378.122 400 380.157 400.843 381.657 402.343C383.157 403.843 384 405.878 384 408C384 410.122 383.157 412.157 381.657 413.657C380.157 415.157 378.122 416 376 416ZM440 384C426.768 384 416 394.768 416 408C416 421.232 426.768 432 440 432C453.232 432 464 421.232 464 408C464 394.768 453.232 384 440 384ZM440 416C437.878 416 435.843 415.157 434.343 413.657C432.843 412.157 432 410.122 432 408C432 405.878 432.843 403.843 434.343 402.343C435.843 400.843 437.878 400 440 400C442.122 400 444.157 400.843 445.657 402.343C447.157 403.843 448 405.878 448 408C448 410.122 447.157 412.157 445.657 413.657C444.157 415.157 442.122 416 440 416Z" fill="white"/>
<path d="M472 352H272V224C272 215.176 264.824 208 256 208V120C256 53.832 202.168 0 136 0C69.832 0 16 53.832 16 120V208C7.176 208 0 215.176 0 224V480C0 488.824 7.176 496 16 496H256C264.824 496 272 488.824 272 480V464H472C485.232 464 496 453.232 496 440V376C496 362.768 485.232 352 472 352ZM32 120C32 62.656 78.656 16 136 16C193.344 16 240 62.656 240 120V208H208V120C208 80.296 175.704 48 136 48C96.296 48 64 80.296 64 120V208H32V120ZM192 208H80V120C80 89.128 105.128 64 136 64C166.872 64 192 89.128 192 120V208ZM80.28 328.984V360C71.456 360 64.28 352.824 64.28 344C64.28 335.176 71.456 328 80.28 328H80.36C80.352 328.336 80.28 328.648 80.28 328.984ZM84.192 312H80.288C75.448 312 70.896 313.16 66.776 315.096L65.416 312.384C64.672 310.89 64.2832 309.245 64.28 307.576C64.28 303.48 66.552 299.8 70.216 297.976L83.016 291.576L73.488 272.512C72.6202 270.771 72.2114 268.837 72.3004 266.894C72.3893 264.95 72.973 263.062 73.9962 261.407C75.0193 259.753 76.4481 258.387 78.147 257.439C79.8459 256.492 81.7586 255.993 83.704 255.992H168.112C174.475 256 180.746 257.518 186.409 260.421C192.071 263.324 196.964 267.529 200.685 272.691C204.406 277.853 206.849 283.824 207.814 290.114C208.778 296.404 208.236 302.832 206.232 308.872L204.392 314.4C200.648 312.88 196.568 312 192.28 312H186.04C183.809 309.493 181.074 307.484 178.013 306.105C174.953 304.727 171.636 304.01 168.28 304H136.28C134.158 304 132.123 303.157 130.623 301.657C129.123 300.157 128.28 298.122 128.28 296C128.28 293.878 129.123 291.843 130.623 290.343C132.123 288.843 134.158 288 136.28 288H144.28V272H136.28C131.044 272.009 125.954 273.725 121.781 276.888C117.609 280.051 114.582 284.489 113.16 289.528L110.584 290.176C104.839 291.624 99.4899 294.334 94.9245 298.109C90.3591 301.884 86.6927 306.63 84.192 312ZM192.28 328C201.104 328 208.28 335.176 208.28 344C208.28 352.824 201.104 360 192.28 360V328ZM96.28 328.984C96.28 317.992 103.704 308.448 114.344 305.728C116.228 309.974 119.303 313.582 123.196 316.116C127.09 318.649 131.635 319.998 136.28 320H168.28C170.402 320 172.437 320.843 173.937 322.343C175.437 323.843 176.28 325.878 176.28 328V360C176.28 382.056 158.336 400 136.28 400C114.224 400 96.28 382.056 96.28 360V328.984ZM114.76 411.688C121.534 414.52 128.801 415.986 136.143 416.001C143.486 416.016 150.758 414.581 157.544 411.776C159.053 417.559 162.157 422.802 166.503 426.905C170.848 431.009 176.26 433.808 182.12 434.984L201.416 438.84C221.8 442.92 236.936 459.776 239.472 480H32.8C35.336 459.776 50.472 442.92 70.864 438.84L90.16 434.984C96.0366 433.808 101.462 430.998 105.814 426.878C110.165 422.757 113.266 417.492 114.76 411.688ZM255.712 480C253.12 452.144 232.416 428.728 204.552 423.16L185.256 419.304C182.158 418.689 179.311 417.169 177.077 414.936C174.843 412.703 173.321 409.858 172.704 406.76L171.976 403.12C180.502 396.052 186.746 386.618 189.92 376.008H192.28C209.928 376.008 224.28 361.656 224.28 344.008C224.28 336.8 221.8 330.216 217.76 324.864L221.4 313.952C224.199 305.507 224.955 296.519 223.606 287.725C222.256 278.931 218.84 270.583 213.637 263.366C208.434 256.149 201.593 250.27 193.676 246.211C185.76 242.152 176.993 240.029 168.096 240.016H83.696C79.0249 240.023 74.4329 241.222 70.3548 243.499C66.2767 245.777 62.8475 249.058 60.392 253.031C57.9366 257.005 56.5361 261.54 56.3233 266.206C56.1105 270.872 57.0924 275.515 59.176 279.696L61.568 284.488C57.5148 286.83 54.1517 290.2 51.8185 294.259C49.4853 298.317 48.2647 302.919 48.28 307.6C48.28 311.72 49.256 315.848 51.104 319.552L54.16 325.656C50.3367 331.009 48.2809 337.422 48.28 344C48.28 361.648 62.632 376 80.28 376H82.64C85.79 386.503 91.9475 395.853 100.352 402.896L99.584 406.744C98.9695 409.844 97.4486 412.691 95.2141 414.926C92.9795 417.161 90.1318 418.682 87.032 419.296L67.736 423.152C39.872 428.728 19.16 452.144 16.56 480H16V224H256L256.016 480H255.712ZM480 440C480 442.122 479.157 444.157 477.657 445.657C476.157 447.157 474.122 448 472 448H272V368H472C474.122 368 476.157 368.843 477.657 370.343C479.157 371.843 480 373.878 480 376V440ZM360 144C382.056 144 400 126.056 400 104C400 81.944 382.056 64 360 64C337.944 64 320 81.944 320 104C320 126.056 337.944 144 360 144ZM360 80C373.232 80 384 90.768 384 104C384 117.232 373.232 128 360 128C346.768 128 336 117.232 336 104C336 90.768 346.768 80 360 80Z" fill="white"/>
<path d="M336 171.8V320C336 328.824 343.176 336 352 336H416C424.824 336 432 328.824 432 320V288H424C421.878 288 419.843 287.157 418.343 285.657C416.843 284.157 416 282.122 416 280C416 277.878 416.843 275.843 418.343 274.343C419.843 272.843 421.878 272 424 272H432V240C432 231.176 424.824 224 416 224H384V171.8C411.92 161.888 432 135.28 432 104C432 64.296 399.704 32 360 32C320.296 32 288 64.296 288 104C288 135.28 308.08 161.888 336 171.8ZM416 240V257.368C406.688 260.672 400 269.568 400 280C400 290.432 406.688 299.328 416 302.632V320H384V240H416ZM368 320H352V175.528C354.632 175.824 357.296 176 360 176C362.704 176 365.368 175.824 368 175.528V320ZM360 48C390.872 48 416 73.128 416 104C416 134.872 390.872 160 360 160C329.128 160 304 134.872 304 104C304 73.128 329.128 48 360 48Z" fill="white"/>
</svg>
