<svg width="498" height="428" viewBox="0 0 498 428" fill="none" xmlns="http://www.w3.org/2000/svg">
<path d="M490 206.502V314.499C490 356.36 453.848 391.001 411.986 391.001H360.297M77.763 255.223H38C21.5 255.223 8 241.723 8 225.223V164.223C8 147.723 21.5 134.223 38 134.223H71.958" stroke="white" stroke-width="15" stroke-miterlimit="22.9256" stroke-linecap="round" stroke-linejoin="round"/>
<path d="M426.68 255.223H459.999C476.499 255.223 489.999 241.723 489.999 225.223V164.223C489.999 147.723 476.499 134.223 459.999 134.223H429.998" stroke="white" stroke-width="15" stroke-miterlimit="22.9256" stroke-linecap="round" stroke-linejoin="round"/>
<path d="M190.836 174.999V185.999M307.163 174.999V185.999M249 8C348.752 8 430 86.728 430 187.003V215.997C430 262.259 392.259 300 345.997 300H152.003C105.741 300 68 262.264 68 215.997V187.003C68 86.74 149.141 8 249 8Z" stroke="white" stroke-width="15" stroke-miterlimit="22.9256" stroke-linecap="round" stroke-linejoin="round"/>
<path d="M429.999 199.468V32.4766M68 193.596V32.4766M187.5 120.999H310.5C343.225 120.999 370 147.774 370 180.499C370 213.224 343.225 239.999 310.5 239.999H187.5C154.775 239.999 128 213.224 128 180.499C128 147.774 154.775 120.999 187.5 120.999ZM294 359.999H327C343.5 359.999 357 373.499 357 389.999C357 406.499 343.5 419.999 327 419.999H294C277.5 419.999 264 406.499 264 389.999C264 373.499 277.5 359.999 294 359.999Z" stroke="white" stroke-width="15" stroke-miterlimit="22.9256" stroke-linecap="round" stroke-linejoin="round"/>
</svg>
