<svg width="432" height="407" viewBox="0 0 432 407" fill="none" xmlns="http://www.w3.org/2000/svg">
<path fill-rule="evenodd" clip-rule="evenodd" d="M67.472 265.712C75.632 273.088 80.752 283.76 80.752 295.632C80.7435 306.338 76.4856 316.604 68.9135 324.173C61.3414 331.742 51.0744 335.996 40.368 336C29.6643 335.992 19.4015 331.736 11.8329 324.167C4.26424 316.598 0.00847479 306.336 0 295.632C0.00418595 289.183 1.55197 282.83 4.51396 277.101C7.47596 271.373 11.7661 266.438 17.0258 262.707C22.2854 258.976 28.3618 256.558 34.7469 255.656C41.1321 254.753 47.6404 255.393 53.728 257.52L63.04 241.872C10.64 185.424 11.904 97.056 66.816 42.144C123.008 -14.048 214.256 -14.048 270.464 42.144C284.65 56.3025 295.714 73.2747 302.944 91.968L327.472 64.784C322.937 58.7932 320.163 51.6564 319.46 44.1756C318.758 36.6948 320.156 29.1664 323.497 22.4363C326.838 15.7062 331.989 10.0412 338.373 6.07775C344.756 2.11433 352.118 0.00957678 359.632 3.8147e-06C370.336 0.00847861 380.598 4.26425 388.167 11.8329C395.736 19.4015 399.992 29.6643 400 40.368C399.994 47.4495 398.126 54.4049 394.584 60.5371C391.042 66.6693 385.951 71.7627 379.82 75.307C373.689 78.8513 366.735 80.7218 359.653 80.7311C352.572 80.7404 345.612 78.8881 339.472 75.36L308.496 109.696C317.062 144.805 312.158 181.849 294.752 213.52L419.776 338.528C427.264 346.038 431.469 356.211 431.469 366.816C431.469 377.421 427.264 387.594 419.776 395.104C416.062 398.819 411.651 401.767 406.798 403.778C401.944 405.788 396.742 406.823 391.488 406.823C386.234 406.823 381.032 405.788 376.178 403.778C371.325 401.767 366.914 398.819 363.2 395.104L238.192 270.096C186.544 298.576 121.056 292.976 74.864 253.264L67.472 265.712ZM290.736 105.504C284.112 84.532 272.198 65.6195 256.143 50.5883C240.088 35.5571 220.433 24.914 199.07 19.6844C177.708 14.4547 155.359 14.8147 134.176 20.7298C112.993 26.6448 93.6906 37.9155 78.128 53.456C55.3095 76.2968 41.959 106.913 40.7486 139.176C39.5382 171.439 50.5571 202.97 71.6 227.456L107.024 167.872C101.553 163.489 97.3175 157.758 94.7333 151.242C92.149 144.727 91.3053 137.65 92.2851 130.709C93.2649 123.768 96.0345 117.202 100.321 111.656C104.608 106.11 110.265 101.776 116.735 99.0788C123.205 96.3819 130.266 95.4155 137.223 96.2747C144.18 97.1339 150.793 99.7891 156.412 103.979C162.032 108.169 166.464 113.75 169.273 120.172C172.082 126.595 173.17 133.637 172.432 140.608L201.552 157.552C207.589 150.39 215.933 145.555 225.148 143.879C234.364 142.202 243.876 143.79 252.048 148.368L290.736 105.504ZM286.016 227.408C276.673 240.536 265.203 252.011 252.08 261.36L273.712 282.976L307.648 249.04L286.016 227.408ZM83.184 239.28C107.572 261.121 139.397 272.794 172.123 271.901C204.849 271.008 235.991 257.618 259.152 234.48C273.374 220.271 284.045 202.907 290.297 183.8C296.55 164.693 298.207 144.38 295.136 124.512L264.208 158.784C268.852 164.75 271.729 171.9 272.511 179.421C273.294 186.941 271.95 194.53 268.632 201.325C265.315 208.119 260.158 213.846 253.747 217.855C247.336 221.863 239.929 223.993 232.368 224C226.036 223.994 219.794 222.5 214.145 219.637C208.497 216.775 203.601 212.625 199.851 207.523C196.101 202.42 193.604 196.507 192.56 190.262C191.516 184.016 191.954 177.613 193.84 171.568L167.44 156.208C162.992 164.098 156.02 170.263 147.645 173.714C139.271 177.164 129.979 177.699 121.264 175.232L83.184 239.28ZM285.024 294.288L374.512 383.792C379.038 388.164 385.101 390.583 391.394 390.528C397.686 390.473 403.706 387.949 408.156 383.5C412.605 379.05 415.129 373.03 415.184 366.738C415.239 360.445 412.82 354.382 408.448 349.856L318.96 260.352L285.024 294.288ZM16 295.632C16.1629 301.989 18.8025 308.031 23.3562 312.469C27.9098 316.907 34.0171 319.391 40.376 319.391C46.7349 319.391 52.8422 316.907 57.3958 312.469C61.9495 308.031 64.5891 301.989 64.752 295.632C64.4734 289.354 61.7834 283.426 57.2425 279.082C52.7017 274.738 46.66 272.314 40.376 272.314C34.092 272.314 28.0503 274.738 23.5095 279.082C18.9686 283.426 16.2786 289.354 16 295.632ZM335.248 40.368C335.242 45.1959 336.668 49.9172 339.346 53.9343C342.024 57.9514 345.833 61.0838 350.292 62.935C354.751 64.7862 359.659 65.2731 364.394 64.3339C369.13 63.3947 373.481 61.0718 376.896 57.6591C380.311 54.2463 382.636 49.8972 383.579 45.1622C384.521 40.4271 384.037 35.5189 382.189 31.0588C380.341 26.5987 377.211 22.7872 373.196 20.1066C369.18 17.426 364.46 15.9968 359.632 16C346.176 16 335.248 26.928 335.248 40.368ZM163.6 48.064C161.48 48.1765 159.403 47.4423 157.825 46.023C156.246 44.6037 155.296 42.6156 155.184 40.496C155.072 38.3764 155.806 36.2989 157.225 34.7206C158.644 33.1423 160.632 32.1925 162.752 32.08C178.44 31.238 194.13 33.7109 208.799 39.3375C223.468 44.9642 236.787 53.6183 247.888 64.736C248.631 65.4798 249.22 66.3626 249.621 67.3341C250.023 68.3055 250.229 69.3465 250.228 70.3977C250.228 71.4488 250.02 72.4895 249.617 73.4604C249.214 74.4313 248.624 75.3132 247.88 76.056C247.136 76.7988 246.253 77.3877 245.282 77.7893C244.311 78.1909 243.27 78.3972 242.218 78.3965C241.167 78.3957 240.126 78.1879 239.156 77.785C238.185 77.382 237.303 76.7918 236.56 76.048C227.05 66.5162 215.636 59.0972 203.064 54.2753C190.493 49.4534 177.045 47.3369 163.6 48.064ZM107.904 136.368C107.904 139.57 108.535 142.741 109.76 145.699C110.986 148.658 112.782 151.346 115.046 153.61C117.31 155.874 119.998 157.67 122.957 158.896C125.915 160.121 129.086 160.752 132.288 160.752C135.49 160.752 138.661 160.121 141.619 158.896C144.578 157.67 147.266 155.874 149.53 153.61C151.794 151.346 153.59 148.658 154.816 145.699C156.041 142.741 156.672 139.57 156.672 136.368C156.672 129.901 154.103 123.699 149.53 119.126C144.957 114.553 138.755 111.984 132.288 111.984C125.821 111.984 119.619 114.553 115.046 119.126C110.473 123.699 107.904 129.901 107.904 136.368ZM208 183.632C208.163 189.989 210.803 196.03 215.356 200.469C219.91 204.907 226.017 207.391 232.376 207.391C238.735 207.391 244.842 204.907 249.396 200.469C253.949 196.03 256.589 189.989 256.752 183.632C256.473 177.354 253.783 171.426 249.243 167.082C244.702 162.738 238.66 160.314 232.376 160.314C226.092 160.314 220.05 162.738 215.509 167.082C210.969 171.426 208.279 177.354 208 183.632Z" fill="white"/>
</svg>
