<svg width="513" height="513" viewBox="0 0 513 513" fill="none" xmlns="http://www.w3.org/2000/svg">
<path d="M441.559 438.419L495.454 394.348C505.11 387.777 507.861 374.758 501.69 364.841C495.505 354.901 482.569 351.631 472.403 357.437L362.864 424.035L267.091 396.955L339.16 366.659C351.688 361.35 357.879 347.172 353.255 334.374C348.366 320.84 333.288 313.989 319.878 319.208L269.069 338.982C202.267 297.989 157.583 348.804 157.583 348.804H127.664M127.664 479.172H181.616L367.231 499.2L429.754 448.073" stroke="white" stroke-width="15.0205" stroke-miterlimit="10"/>
<path d="M436.549 379.234L442.616 359.795C447.06 348.994 442.193 336.61 431.582 331.726C420.948 326.832 408.346 331.221 403.054 341.664L364.607 422.973M127.664 406.42V504.618H8V324.371H127.664V391.463" stroke="white" stroke-width="15.0205" stroke-miterlimit="10"/>
<path d="M67.8317 466.691C79.5146 466.691 88.9856 457.22 88.9856 445.537C88.9856 433.854 79.5146 424.383 67.8317 424.383C56.1487 424.383 46.6777 433.854 46.6777 445.537C46.6777 457.22 56.1487 466.691 67.8317 466.691Z" stroke="white" stroke-width="15.0205" stroke-miterlimit="10"/>
<path d="M423.971 141.4C429.144 129.675 432.017 116.708 432.017 103.068C432.017 50.5632 389.454 8 336.949 8C284.444 8 241.881 50.5632 241.881 103.068C241.881 137.225 259.897 167.169 286.942 183.929V212.217H386.954V183.929C398.984 176.469 409.207 166.432 416.885 154.54M286.881 212.218H387.018V247.934H286.881V212.218ZM306.909 247.934H366.991V286.038H306.909V247.934Z" stroke="white" stroke-width="15.0205" stroke-miterlimit="10"/>
<path d="M372.685 87.8363L330.2 130.32L301.214 101.334M211.778 106.136H166.842M227.077 169.116L188.161 191.584M443.88 174.211L482.796 196.679M462.121 112.019H507.057M446.822 49.0402L485.738 26.5715M230.019 43.9453L191.103 21.4766" stroke="white" stroke-width="15.0205" stroke-miterlimit="10"/>
</svg>
