<svg width="449" height="497" viewBox="0 0 449 497" fill="none" xmlns="http://www.w3.org/2000/svg">
<g clip-path="url(#clip0_297_117)">
<path d="M390.13 348.835C390.712 346.651 391.984 344.713 393.758 343.311C395.531 341.91 397.711 341.12 399.97 341.059H412.434C414.289 341.059 416.086 340.414 417.517 339.234C418.949 338.055 419.926 336.416 420.282 334.595C422.775 321.914 424.042 309.023 424.066 296.099C424.066 293.978 423.224 291.943 421.723 290.443C420.223 288.942 418.188 288.099 416.066 288.099H336.066V184.099C336.065 182.361 335.498 180.67 334.45 179.283C333.402 177.896 331.93 176.888 330.258 176.411L280.066 162.067V120.099C280.066 117.978 279.224 115.943 277.723 114.443C276.223 112.942 274.188 112.099 272.066 112.099H176.066C173.945 112.099 171.91 112.942 170.41 114.443C168.909 115.943 168.066 117.978 168.066 120.099V162.067L117.874 176.411C116.202 176.888 114.731 177.896 113.683 179.283C112.635 180.67 112.068 182.361 112.066 184.099V288.099H32.0664C29.9447 288.099 27.9099 288.942 26.4096 290.443C24.9093 291.943 24.0664 293.978 24.0664 296.099C24.0907 309.023 25.3579 321.914 27.8504 334.595C28.2065 336.416 29.1839 338.055 30.6155 339.234C32.047 340.414 33.8438 341.059 35.6984 341.059H48.1704C50.4301 341.12 52.6096 341.91 54.3832 343.311C56.1568 344.713 57.4293 346.651 58.0104 348.835C61.0104 358.263 64.8109 367.416 69.3704 376.195C70.5067 378.155 70.9782 380.429 70.7143 382.679C70.4504 384.929 69.4653 387.032 67.9064 388.675L59.0424 397.539C57.732 398.852 56.9181 400.578 56.7401 402.424C56.5621 404.27 57.0309 406.121 58.0664 407.659C72.5164 429.16 91.0055 447.649 112.506 462.099C114.045 463.135 115.895 463.604 117.741 463.426C119.587 463.248 121.314 462.434 122.626 461.123L131.498 452.259C133.148 450.718 135.247 449.743 137.489 449.479C139.731 449.214 141.999 449.672 143.962 450.787C152.746 455.354 161.905 459.16 171.338 462.163C173.519 462.746 175.453 464.018 176.852 465.79C178.251 467.562 179.039 469.739 179.098 471.995V484.459C179.098 486.318 179.745 488.118 180.927 489.552C182.109 490.985 183.754 491.962 185.578 492.315C210.989 497.361 237.144 497.361 262.554 492.315C264.379 491.962 266.023 490.985 267.206 489.552C268.388 488.118 269.035 486.318 269.034 484.459V471.995C269.093 469.737 269.88 467.559 271.279 465.785C272.677 464.012 274.612 462.738 276.794 462.155C286.222 459.158 295.376 455.357 304.154 450.795C306.119 449.677 308.39 449.215 310.635 449.479C312.88 449.742 314.982 450.717 316.634 452.259L325.506 461.123C326.818 462.435 328.544 463.25 330.39 463.43C332.236 463.609 334.087 463.142 335.626 462.107C357.128 447.655 375.617 429.163 390.066 407.659C391.102 406.121 391.571 404.27 391.393 402.424C391.215 400.578 390.401 398.852 389.09 397.539L380.226 388.659C378.666 387.017 377.681 384.913 377.417 382.663C377.153 380.413 377.625 378.138 378.762 376.179C383.321 367.399 387.122 358.246 390.122 348.819L390.13 348.835ZM280.066 178.707L320.066 190.131V288.099H280.066V178.707ZM184.066 128.099H264.066V288.099H248.066V256.099C248.066 253.978 247.224 251.943 245.723 250.443C244.223 248.942 242.188 248.099 240.066 248.099H208.066C205.945 248.099 203.91 248.942 202.41 250.443C200.909 251.943 200.066 253.978 200.066 256.099V288.099H184.066V128.099ZM232.066 264.099V288.099H216.066V264.099H232.066ZM128.066 190.131L168.066 178.707V288.099H128.066V190.131ZM334.25 304.099C332.263 331.965 319.791 358.042 299.346 377.08C278.901 396.119 252.003 406.703 224.066 406.703C196.13 406.703 169.231 396.119 148.787 377.08C128.342 358.042 115.87 331.965 113.882 304.099H334.25ZM374.882 343.979C372.157 352.538 368.704 360.849 364.562 368.819C361.871 373.799 360.841 379.508 361.624 385.114C362.407 390.719 364.962 395.928 368.914 399.979L373.034 404.107C361.631 419.839 347.806 433.664 332.074 445.067L327.946 440.939C323.897 436.98 318.686 434.423 313.077 433.641C307.468 432.859 301.756 433.895 296.778 436.595C288.812 440.741 280.504 444.194 271.946 446.915C266.532 448.535 261.776 451.841 258.373 456.352C254.97 460.864 253.096 466.345 253.026 471.995V477.755C233.845 480.865 214.288 480.865 195.106 477.755V471.995C195.036 466.345 193.163 460.864 189.76 456.352C186.356 451.841 181.601 448.535 176.186 446.915C167.626 444.192 159.316 440.74 151.346 436.595C146.369 433.898 140.659 432.864 135.052 433.646C129.445 434.427 124.236 436.983 120.186 440.939L116.058 445.067C100.327 433.664 86.5021 419.839 75.0984 404.107L79.2264 399.979C83.1782 395.928 85.7318 390.719 86.5147 385.113C87.2976 379.508 86.2688 373.799 83.5784 368.819C79.4359 360.849 75.9833 352.539 73.2584 343.979C71.6356 338.566 68.3272 333.811 63.8148 330.408C59.3024 327.005 53.8217 325.131 48.1704 325.059H42.4024C41.2917 318.119 40.5706 311.121 40.2424 304.099H97.8824C99.8645 336.22 114.021 366.376 137.468 388.42C160.914 410.464 191.885 422.737 224.066 422.737C256.248 422.737 287.219 410.464 310.665 388.42C334.111 366.376 348.268 336.22 350.25 304.099H407.89C407.562 311.121 406.841 318.119 405.73 325.059H399.97C394.319 325.131 388.838 327.005 384.326 330.408C379.814 333.811 376.505 338.566 374.882 343.979ZM232.066 104.099V46.6274C237.404 44.7403 241.903 41.0269 244.767 36.1436C247.632 31.2603 248.678 25.5215 247.721 19.9416C246.763 14.3616 243.864 9.29971 239.536 5.65058C235.207 2.00144 229.728 0 224.066 0C218.405 0 212.926 2.00144 208.597 5.65058C204.269 9.29971 201.369 14.3616 200.412 19.9416C199.455 25.5215 200.501 31.2603 203.365 36.1436C206.23 41.0269 210.729 44.7403 216.066 46.6274V104.099H232.066ZM224.066 16.0994C225.649 16.0994 227.195 16.5686 228.511 17.4477C229.827 18.3267 230.852 19.5761 231.457 21.0379C232.063 22.4998 232.221 24.1083 231.913 25.6601C231.604 27.212 230.842 28.6374 229.723 29.7563C228.604 30.8751 227.179 31.637 225.627 31.9457C224.075 32.2544 222.467 32.096 221.005 31.4905C219.543 30.885 218.294 29.8596 217.415 28.544C216.536 27.2284 216.066 25.6817 216.066 24.0994C216.069 21.9783 216.912 19.9447 218.412 18.4449C219.912 16.9451 221.945 16.1015 224.066 16.0994Z" fill="#53A6FF"/>
<path d="M304.065 104.098V160.098H320.065V107.41L333.785 93.6897C336.987 95.2545 340.501 96.0775 344.065 96.0977C348.812 96.0977 353.452 94.6901 357.399 92.0529C361.345 89.4158 364.422 85.6675 366.238 81.2821C368.055 76.8966 368.53 72.071 367.604 67.4155C366.678 62.76 364.392 58.4836 361.035 55.1271C357.679 51.7706 353.403 49.4849 348.747 48.5588C344.092 47.6328 339.266 48.1081 334.881 49.9246C330.495 51.7411 326.747 54.8172 324.11 58.764C321.473 62.7108 320.065 67.3509 320.065 72.0977C320.083 75.6611 320.903 79.1748 322.465 82.3777L306.409 98.4417C304.909 99.9416 304.065 101.976 304.065 104.098ZM344.065 64.0977C345.647 64.0977 347.194 64.5669 348.509 65.4459C349.825 66.325 350.85 67.5744 351.456 69.0362C352.061 70.498 352.22 72.1065 351.911 73.6584C351.603 75.2102 350.841 76.6357 349.722 77.7545C348.603 78.8733 347.178 79.6353 345.626 79.9439C344.074 80.2526 342.465 80.0942 341.003 79.4887C339.542 78.8832 338.292 77.8578 337.413 76.5422C336.534 75.2266 336.065 73.6799 336.065 72.0977C336.067 69.9766 336.911 67.943 338.41 66.4431C339.91 64.9433 341.944 64.0998 344.065 64.0977ZM104.065 48.0977C97.6998 48.0977 91.5953 50.6262 87.0944 55.1271C82.5935 59.628 80.0649 65.7325 80.0649 72.0977C80.0649 78.4629 82.5935 84.5674 87.0944 89.0682C91.5953 93.5691 97.6998 96.0977 104.065 96.0977C107.628 96.08 111.142 95.2597 114.345 93.6977L128.065 107.402V160.098H144.065V104.098C144.065 101.976 143.221 99.9416 141.721 98.4417L125.657 82.3777C127.222 79.1754 128.045 75.6617 128.065 72.0977C128.059 65.7344 125.528 59.6336 121.028 55.1341C116.529 50.6346 110.428 48.104 104.065 48.0977ZM104.065 80.0977C102.483 80.0977 100.936 79.6285 99.6204 78.7494C98.3048 77.8704 97.2794 76.6209 96.6739 75.1591C96.0684 73.6973 95.91 72.0888 96.2187 70.5369C96.5273 68.9851 97.2893 67.5596 98.4081 66.4408C99.5269 65.322 100.952 64.5601 102.504 64.2514C104.056 63.9427 105.665 64.1011 107.126 64.7066C108.588 65.3121 109.838 66.3375 110.717 67.6531C111.596 68.9687 112.065 70.5154 112.065 72.0977C112.063 74.2187 111.219 76.2524 109.719 77.7522C108.22 79.252 106.186 80.0955 104.065 80.0977ZM24.0649 136.098C20.1312 136.087 16.2551 137.043 12.7778 138.883C9.30053 140.722 6.32872 143.388 4.12392 146.646C1.91911 149.904 0.548919 153.654 0.133927 157.566C-0.281065 161.478 0.271871 165.431 1.74407 169.079C3.21627 172.727 5.56259 175.957 8.57653 178.486C11.5905 181.014 15.1796 182.762 19.0281 183.577C22.8765 184.392 26.8663 184.248 30.6463 183.159C34.4262 182.07 37.8805 180.068 40.7049 177.33L64.0649 189.034V248.098H80.0649V184.098C80.0649 182.613 79.6518 181.158 78.8719 179.895C78.092 178.632 76.9761 177.611 75.6489 176.946L47.7769 162.978C47.9318 162.024 48.028 161.063 48.0649 160.098C48.0586 153.734 45.528 147.634 41.0285 143.134C36.529 138.635 30.4282 136.104 24.0649 136.098ZM24.0649 168.098C22.4827 168.098 20.936 167.628 19.6204 166.749C18.3048 165.87 17.2794 164.621 16.6739 163.159C16.0684 161.697 15.91 160.089 16.2187 158.537C16.5273 156.985 17.2893 155.56 18.4081 154.441C19.5269 153.322 20.9524 152.56 22.5042 152.251C24.0561 151.943 25.6646 152.101 27.1264 152.707C28.5882 153.312 29.8377 154.338 30.7167 155.653C31.5958 156.969 32.0649 158.515 32.0649 160.098C32.0628 162.219 31.2193 164.252 29.7195 165.752C28.2196 167.252 26.186 168.096 24.0649 168.098ZM64.0649 264.098H80.0649V280.098H64.0649V264.098ZM448.065 160.098C448.065 153.732 445.536 147.628 441.035 143.127C436.535 138.626 430.43 136.098 424.065 136.098C417.7 136.098 411.595 138.626 407.094 143.127C402.594 147.628 400.065 153.732 400.065 160.098C400.102 161.063 400.198 162.024 400.353 162.978L372.481 176.946C371.154 177.611 370.038 178.632 369.258 179.895C368.478 181.158 368.065 182.613 368.065 184.098V248.098H384.065V189.034L407.425 177.33C410.805 180.613 415.078 182.826 419.71 183.692C424.341 184.558 429.125 184.039 433.463 182.2C437.801 180.36 441.5 177.282 444.098 173.351C446.695 169.42 448.075 164.809 448.065 160.098ZM416.065 160.098C416.065 158.515 416.534 156.969 417.413 155.653C418.292 154.338 419.542 153.312 421.003 152.707C422.465 152.101 424.074 151.943 425.626 152.251C427.178 152.56 428.603 153.322 429.722 154.441C430.841 155.56 431.603 156.985 431.911 158.537C432.22 160.089 432.061 161.697 431.456 163.159C430.85 164.621 429.825 165.87 428.509 166.749C427.194 167.628 425.647 168.098 424.065 168.098C421.944 168.096 419.91 167.252 418.41 165.752C416.911 164.252 416.067 162.219 416.065 160.098ZM368.065 264.098H384.065V280.098H368.065V264.098ZM200.065 152.098H248.065V168.098H200.065V152.098ZM200.065 184.098H248.065V200.098H200.065V184.098ZM200.065 216.098H248.065V232.098H200.065V216.098ZM288.065 200.098H312.065V216.098H288.065V200.098ZM288.065 232.098H312.065V248.098H288.065V232.098ZM136.065 200.098H160.065V216.098H136.065V200.098ZM136.065 232.098H160.065V248.098H136.065V232.098Z" fill="#53A6FF"/>
</g>
<defs>
<clipPath id="clip0_297_117">
<rect width="449" height="497" fill="white"/>
</clipPath>
</defs>
</svg>
