<svg width="432" height="496" viewBox="0 0 432 496" fill="none" xmlns="http://www.w3.org/2000/svg">
<g clip-path="url(#clip0_297_120)">
<path d="M432 152C431.965 127.942 422.904 104.772 406.61 87.072C390.316 69.3718 367.973 58.4294 344 56.408V48C343.987 35.2735 338.926 23.0719 329.927 14.0729C320.928 5.07392 308.726 0.0127074 296 0H120C107.274 0.0127074 95.0719 5.07392 86.0729 14.0729C77.0739 23.0719 72.0127 35.2735 72 48V248C69.8783 248 67.8434 248.843 66.3431 250.343C64.8429 251.843 64 253.878 64 256V268.168C61.9418 268.893 59.9183 269.712 57.936 270.624L45.656 258.344C44.1558 256.844 42.1213 256.002 40 256.002C37.8787 256.002 35.8442 256.844 34.344 258.344L10.344 282.344C8.84423 283.844 8.00171 285.879 8.00171 288C8.00171 290.121 8.84423 292.156 10.344 293.656L22.624 305.936C21.7135 307.919 20.8939 309.942 20.168 312H8C5.87827 312 3.84344 312.843 2.34315 314.343C0.842856 315.843 0 317.878 0 320V352C0 354.122 0.842856 356.157 2.34315 357.657C3.84344 359.157 5.87827 360 8 360H20.168C20.896 362.072 21.72 364.096 22.624 366.064L10.344 378.344C8.84423 379.844 8.00171 381.879 8.00171 384C8.00171 386.121 8.84423 388.156 10.344 389.656L34.344 413.656C35.8442 415.156 37.8787 415.998 40 415.998C42.1213 415.998 44.1558 415.156 45.656 413.656L57.936 401.376C59.904 402.28 61.936 403.104 64 403.832V416C64 418.122 64.8429 420.157 66.3431 421.657C67.8434 423.157 69.8783 424 72 424V448C72.0127 460.726 77.0739 472.928 86.0729 481.927C95.0719 490.926 107.274 495.987 120 496H296C308.726 495.987 320.928 490.926 329.927 481.927C338.926 472.928 343.987 460.726 344 448V247.592C367.973 245.571 390.316 234.628 406.61 216.928C422.904 199.228 431.965 176.058 432 152ZM276.688 16L260.688 32H155.312L139.312 16H276.688ZM88 48C88.0241 40.0571 91.0079 32.4084 96.3688 26.5475C101.73 20.6866 109.083 17.0344 116.992 16.304L146.344 45.656C147.844 47.1564 149.878 47.9995 152 48H264C266.122 47.9995 268.156 47.1564 269.656 45.656L299.008 16.304C306.917 17.0344 314.27 20.6866 319.631 26.5475C324.992 32.4084 327.976 40.0571 328 48V56.408C304.027 58.4294 281.684 69.3718 265.39 87.072C249.096 104.772 240.035 127.942 240 152C240 154.68 240.12 157.344 240.344 160H112C109.878 160 107.843 160.843 106.343 162.343C104.843 163.843 104 165.878 104 168V232H120V176H243.104C244.545 181.494 246.473 186.848 248.864 192H136V208H258.192C258.544 208.488 258.848 209 259.208 209.48L242.344 226.344C241.175 227.516 240.399 229.023 240.123 230.655C239.846 232.287 240.083 233.965 240.8 235.457C241.517 236.949 242.679 238.182 244.126 238.985C245.574 239.789 247.234 240.124 248.88 239.944L288.832 235.496C291.152 236.816 293.592 237.896 296.032 238.976V320H176C176 317.878 175.157 315.843 173.657 314.343C172.157 312.843 170.122 312 168 312H155.832C155.107 309.942 154.288 307.918 153.376 305.936L165.656 293.656C167.156 292.156 167.998 290.121 167.998 288C167.998 285.879 167.156 283.844 165.656 282.344L141.656 258.344C140.156 256.844 138.121 256.002 136 256.002C133.879 256.002 131.844 256.844 130.344 258.344L118.064 270.624C116.081 269.713 114.058 268.894 112 268.168V256C112 253.878 111.157 251.843 109.657 250.343C108.157 248.843 106.122 248 104 248H88V48ZM60.352 384.656C58.8303 383.793 57.0674 383.452 55.3335 383.686C53.5996 383.92 51.9903 384.716 50.752 385.952L40 396.688L27.312 384L38.048 373.264C39.2841 372.026 40.0801 370.416 40.3142 368.682C40.5483 366.949 40.2075 365.186 39.344 363.664C36.9124 359.375 35.0589 354.783 33.832 350.008C33.3905 348.291 32.3912 346.769 30.991 345.682C29.5907 344.594 27.8689 344.003 26.096 344H16V328H26.096C27.8668 327.998 29.587 327.409 30.9869 326.325C32.3869 325.24 33.3875 323.722 33.832 322.008C35.0589 317.233 36.9124 312.641 39.344 308.352C40.2075 306.83 40.5483 305.067 40.3142 303.334C40.0801 301.6 39.2841 299.99 38.048 298.752L27.312 288L40 275.312L50.736 286.048C51.9743 287.284 53.5836 288.08 55.3175 288.314C57.0514 288.548 58.8143 288.207 60.336 287.344C64.6249 284.912 69.2168 283.059 73.992 281.832C75.7091 281.391 77.2309 280.391 78.3183 278.991C79.4058 277.591 79.9973 275.869 80 274.096V264H96V274.096C96.0017 275.867 96.591 277.587 97.6753 278.987C98.7597 280.387 100.278 281.388 101.992 281.832C106.767 283.059 111.359 284.912 115.648 287.344C117.17 288.207 118.933 288.548 120.666 288.314C122.4 288.08 124.01 287.284 125.248 286.048L136 275.312L148.688 288L137.952 298.736C136.716 299.974 135.92 301.584 135.686 303.318C135.452 305.051 135.793 306.814 136.656 308.336C139.088 312.625 140.941 317.217 142.168 321.992C142.612 323.706 143.613 325.224 145.013 326.309C146.413 327.393 148.133 327.982 149.904 327.984H160V343.984H149.904C148.133 343.986 146.413 344.575 145.013 345.659C143.613 346.744 142.612 348.262 142.168 349.976C140.941 354.751 139.088 359.343 136.656 363.632C135.793 365.154 135.452 366.917 135.686 368.65C135.92 370.384 136.716 371.994 137.952 373.232L148.688 384L136 396.688L125.264 385.952C124.026 384.716 122.416 383.92 120.682 383.686C118.949 383.452 117.186 383.793 115.664 384.656C111.375 387.088 106.783 388.941 102.008 390.168C100.294 390.612 98.7757 391.613 97.6913 393.013C96.607 394.413 96.0178 396.133 96.016 397.904V408H80V397.904C79.9983 396.133 79.409 394.413 78.3247 393.013C77.2403 391.613 75.7221 390.612 74.008 390.168C69.2328 388.941 64.6409 387.088 60.352 384.656ZM264 480H152V472C152 469.878 152.843 467.843 154.343 466.343C155.843 464.843 157.878 464 160 464H256C258.122 464 260.157 464.843 261.657 466.343C263.157 467.843 264 469.878 264 472V480ZM296 480H280V472C280 465.635 277.471 459.53 272.971 455.029C268.47 450.529 262.365 448 256 448H160C153.635 448 147.53 450.529 143.029 455.029C138.529 459.53 136 465.635 136 472V480H120C111.513 480 103.374 476.629 97.3726 470.627C91.3714 464.626 88 456.487 88 448V424H104C106.122 424 108.157 423.157 109.657 421.657C111.157 420.157 112 418.122 112 416V403.832C114.072 403.104 116.096 402.28 118.064 401.376L130.344 413.656C131.844 415.156 133.879 415.998 136 415.998C138.121 415.998 140.156 415.156 141.656 413.656L165.656 389.656C167.156 388.156 167.998 386.121 167.998 384C167.998 381.879 167.156 379.844 165.656 378.344L153.376 366.064C154.28 364.096 155.104 362.064 155.832 360H168C170.122 360 172.157 359.157 173.657 357.657C175.157 356.157 176 354.122 176 352V336H304C306.122 336 308.157 335.157 309.657 333.657C311.157 332.157 312 330.122 312 328V244.896C317.251 246.205 322.604 247.069 328 247.48V448C328 456.487 324.629 464.626 318.627 470.627C312.626 476.629 304.487 480 296 480ZM336 232C321.442 231.977 307.167 227.974 294.72 220.424C293.471 219.666 292.037 219.265 290.576 219.264C290.282 219.264 289.988 219.28 289.696 219.312L269.792 221.528L275.624 215.688C277.061 214.251 277.897 212.321 277.962 210.29C278.027 208.258 277.317 206.279 275.976 204.752C263.937 191.013 256.967 173.564 256.229 155.311C255.49 137.058 261.027 119.104 271.917 104.437C282.807 89.7698 298.393 79.2764 316.079 74.704C333.766 70.1316 352.484 71.7562 369.118 79.3073C385.753 86.8583 399.298 99.8801 407.498 116.204C415.699 132.527 418.059 151.168 414.187 169.021C410.315 186.873 400.444 202.86 386.217 214.32C371.991 225.779 354.268 232.019 336 232Z" fill="#53A6FF"/>
<path d="M336 112C340.243 112 344.313 113.686 347.314 116.686C350.314 119.687 352 123.757 352 128H368C367.974 120.926 365.604 114.061 361.262 108.477C356.919 102.892 350.849 98.9044 344 97.136V80H328V97.136C320.467 99.0749 313.901 103.696 309.533 110.133C305.166 116.57 303.298 124.379 304.28 132.096C305.262 139.812 309.026 146.905 314.866 152.042C320.707 157.18 328.221 160.01 336 160C339.165 160 342.258 160.938 344.889 162.696C347.52 164.455 349.571 166.953 350.782 169.877C351.993 172.801 352.31 176.018 351.693 179.121C351.075 182.225 349.551 185.076 347.314 187.314C345.076 189.551 342.225 191.075 339.121 191.693C336.018 192.31 332.801 191.993 329.877 190.782C326.953 189.571 324.455 187.52 322.697 184.889C320.938 182.258 320 179.165 320 176H304C304.027 183.074 306.396 189.939 310.738 195.523C315.081 201.108 321.151 205.096 328 206.864V224H344V206.864C351.533 204.925 358.1 200.304 362.467 193.867C366.834 187.43 368.702 179.621 367.72 171.904C366.738 164.188 362.974 157.095 357.134 151.958C351.293 146.82 343.779 143.99 336 144C331.757 144 327.687 142.314 324.686 139.314C321.686 136.313 320 132.243 320 128C320 123.757 321.686 119.687 324.686 116.686C327.687 113.686 331.757 112 336 112ZM176 256H280V272H176V256ZM176 288H280V304H176V288ZM128 336C128 328.089 125.654 320.355 121.259 313.777C116.864 307.199 110.616 302.072 103.307 299.045C95.9983 296.017 87.9557 295.225 80.1964 296.769C72.4372 298.312 65.3099 302.122 59.7158 307.716C54.1217 313.31 50.312 320.437 48.7686 328.196C47.2252 335.956 48.0173 343.998 51.0448 351.307C54.0723 358.616 59.1992 364.864 65.7772 369.259C72.3552 373.654 80.0888 376 88 376C98.6048 375.987 108.772 371.769 116.27 364.27C123.769 356.772 127.987 346.605 128 336ZM64 336C64 331.253 65.4076 326.613 68.0448 322.666C70.6819 318.72 74.4302 315.643 78.8156 313.827C83.201 312.01 88.0267 311.535 92.6822 312.461C97.3377 313.387 101.614 315.673 104.971 319.029C108.327 322.386 110.613 326.662 111.539 331.318C112.465 335.973 111.99 340.799 110.173 345.184C108.357 349.57 105.28 353.318 101.334 355.955C97.3869 358.592 92.7468 360 88 360C81.6348 360 75.5303 357.471 71.0295 352.971C66.5286 348.47 64 342.365 64 336ZM136 224H224V240H136V224Z" fill="#53A6FF"/>
</g>
<defs>
<clipPath id="clip0_297_120">
<rect width="432" height="496" fill="white"/>
</clipPath>
</defs>
</svg>
