<svg width="512" height="512" viewBox="0 0 512 512" fill="none" xmlns="http://www.w3.org/2000/svg">
<g clip-path="url(#clip0_297_97)">
<path d="M387.263 56.7423L259.263 0.712404C258.186 0.242531 257.024 0 255.85 0C254.675 0 253.513 0.242531 252.436 0.712404L124.436 56.7423C122.915 57.4061 121.621 58.4991 120.711 59.8875C119.802 61.2758 119.317 62.8992 119.316 64.5588V198.532C119.359 228.638 133.823 256.9 158.228 274.547L246.693 338.351C249.357 340.279 252.561 341.317 255.85 341.317C259.138 341.317 262.342 340.279 265.006 338.351L353.471 274.556C365.499 265.858 375.295 254.435 382.059 241.223C388.822 228.01 392.36 213.384 392.383 198.541V64.5588C392.382 62.8992 391.897 61.2758 390.988 59.8875C390.079 58.4991 388.784 57.4061 387.263 56.7423ZM375.316 198.541C375.297 210.681 372.403 222.644 366.87 233.451C361.338 244.258 353.325 253.601 343.487 260.715L255.85 323.921L168.212 260.715C158.375 253.601 150.361 244.258 144.829 233.451C139.297 222.644 136.402 210.681 136.383 198.541V70.1396L255.85 17.8473L375.316 70.1396V198.541Z" fill="#53A6FF"/>
<path d="M252.438 37.9702L158.571 79.0668C157.05 79.7306 155.755 80.8236 154.846 82.2119C153.937 83.6003 153.452 85.2236 153.451 86.8833V198.542C153.464 207.98 155.713 217.281 160.015 225.683C164.316 234.084 170.548 241.347 178.198 246.875L250.859 299.287C252.312 300.335 254.059 300.899 255.851 300.899C257.643 300.899 259.39 300.335 260.843 299.287L333.504 246.875C341.154 241.347 347.386 234.084 351.687 225.683C355.989 217.281 358.238 207.98 358.251 198.542V86.8833C358.25 85.2236 357.765 83.6003 356.856 82.2119C355.947 80.8236 354.652 79.7306 353.131 79.0668L259.264 37.9702C258.188 37.5003 257.026 37.2578 255.851 37.2578C254.676 37.2578 253.514 37.5003 252.438 37.9702ZM341.184 92.4556V198.542C341.172 205.277 339.564 211.914 336.494 217.909C333.424 223.904 328.978 229.087 323.52 233.034L255.851 281.844L188.182 233.034C182.724 229.087 178.278 223.904 175.208 217.909C172.138 211.914 170.531 205.277 170.518 198.542V92.4556L255.851 55.1052L341.184 92.4556ZM70.5497 283.304L52.0921 240.176C50.6493 236.908 48.5769 233.956 45.9933 231.488C43.4096 229.021 40.3652 227.087 37.034 225.796C33.7028 224.505 30.1499 223.883 26.5783 223.965C23.0067 224.048 19.4863 224.833 16.218 226.275C12.9497 227.718 9.99763 229.79 7.53027 232.374C5.06292 234.958 3.12861 238.002 1.8378 241.333C0.546996 244.665 -0.0750401 248.217 0.00721152 251.789C0.0894631 255.361 0.874392 258.881 2.31718 262.149L35.7593 335.715C40.271 345.674 46.5474 354.735 54.2852 362.459L106.876 415.058C103.915 418.198 102.268 422.346 102.251 426.664V494.93C102.251 499.457 104.049 503.798 107.25 506.998C110.45 510.199 114.791 511.997 119.318 511.997H213.184C217.711 511.997 222.052 510.199 225.252 506.998C228.453 503.798 230.251 499.457 230.251 494.93V426.664C230.251 422.137 228.453 417.796 225.252 414.596C222.052 411.395 217.711 409.597 213.184 409.597V393.716C213.446 373.507 206.852 353.805 194.479 337.823C187.225 328.282 177.339 321.071 166.038 317.078C148.065 309.527 131.536 298.92 117.184 285.727C110.695 280.383 102.662 277.263 94.2666 276.826C85.8714 276.39 77.5578 278.661 70.5497 283.304ZM213.184 494.93H119.318V426.664H213.184V494.93ZM181.159 348.481C191.105 361.44 196.377 377.382 196.118 393.716V409.597H125.556L66.3513 350.393C60.0634 344.114 54.9611 336.751 51.29 328.658L17.8478 255.092C17.2539 253.866 16.9131 252.533 16.8456 251.172C16.7781 249.811 16.9854 248.451 17.4551 247.172C17.9248 245.893 18.6473 244.722 19.5795 243.728C20.5116 242.734 21.6344 241.939 22.8808 241.388C24.1271 240.838 25.4716 240.544 26.8339 240.525C28.1962 240.505 29.5486 240.76 30.8102 241.274C32.0718 241.789 33.2169 242.552 34.1772 243.519C35.1374 244.485 35.8932 245.635 36.3993 246.9L55.4884 291.419C60.5574 303.296 67.8638 314.088 77.0095 323.205L115.99 362.194C116.777 363.009 117.719 363.659 118.76 364.107C119.801 364.554 120.92 364.789 122.053 364.799C123.187 364.809 124.31 364.593 125.359 364.164C126.408 363.735 127.36 363.101 128.162 362.3C128.963 361.499 129.596 360.546 130.026 359.497C130.455 358.449 130.671 357.325 130.661 356.192C130.651 355.059 130.415 353.939 129.968 352.898C129.521 351.857 128.871 350.915 128.056 350.128L89.0756 311.139C85.1559 307.229 81.6316 302.942 78.554 298.339C82.5334 295.277 87.4338 293.655 92.4543 293.739C97.4747 293.823 102.318 295.607 106.193 298.8C122.145 313.439 140.582 325.114 160.636 333.275C168.807 336.246 175.937 341.529 181.159 348.481Z" fill="#53A6FF"/>
<path d="M187.586 452.264H179.053C176.79 452.264 174.619 453.163 173.019 454.763C171.419 456.364 170.52 458.534 170.52 460.797C170.52 463.061 171.419 465.231 173.019 466.831C174.619 468.432 176.79 469.331 179.053 469.331H187.586C189.849 469.331 192.02 468.432 193.62 466.831C195.221 465.231 196.12 463.061 196.12 460.797C196.12 458.534 195.221 456.364 193.62 454.763C192.02 453.163 189.849 452.264 187.586 452.264ZM475.945 335.716L509.387 262.15C510.898 258.872 511.741 255.326 511.868 251.719C511.995 248.112 511.403 244.516 510.126 241.14C508.849 237.764 506.913 234.676 504.431 232.055C501.949 229.435 498.97 227.334 495.668 225.876C492.367 224.419 488.808 223.632 485.199 223.564C481.59 223.495 478.004 224.145 474.649 225.476C471.294 226.807 468.237 228.792 465.657 231.316C463.077 233.84 461.025 236.852 459.62 240.177L441.205 283.142C434.172 278.521 425.844 276.277 417.441 276.738C409.039 277.198 401.005 280.34 394.52 285.702C380.168 298.895 363.639 309.502 345.666 317.053C334.365 321.046 324.479 328.257 317.225 337.798C304.846 353.786 298.252 373.498 298.52 393.717V409.597C293.993 409.597 289.652 411.396 286.452 414.596C283.251 417.797 281.453 422.138 281.453 426.664V494.931C281.453 499.457 283.251 503.798 286.452 506.999C289.652 510.199 293.993 511.997 298.52 511.997H392.386C396.913 511.997 401.254 510.199 404.454 506.999C407.655 503.798 409.453 499.457 409.453 494.931V426.664C409.444 422.348 407.79 418.198 404.828 415.059L457.419 362.459C465.157 354.735 471.433 345.675 475.945 335.716ZM392.386 494.931H298.52V426.664H392.386V494.931ZM386.148 409.597H315.586V393.717C315.329 377.386 320.6 361.447 330.545 348.49C335.755 341.543 342.87 336.257 351.025 333.275C371.083 325.117 389.523 313.442 405.476 298.801C409.347 295.584 414.196 293.778 419.228 293.681C424.259 293.583 429.175 295.199 433.167 298.263C430.08 302.899 426.539 307.216 422.594 311.148L383.614 350.137C382.06 351.747 381.199 353.902 381.219 356.14C381.238 358.377 382.136 360.517 383.718 362.099C385.3 363.682 387.44 364.579 389.678 364.598C391.915 364.618 394.071 363.758 395.68 362.203L434.66 323.215C443.806 314.097 451.112 303.305 456.181 291.428L475.271 246.901C475.993 245.207 477.164 243.742 478.656 242.664C480.149 241.586 481.907 240.935 483.742 240.782C485.577 240.628 487.42 240.978 489.071 241.793C490.722 242.608 492.12 243.858 493.114 245.408C494.991 248.309 495.247 251.961 493.822 255.101L460.38 328.667C456.709 336.76 451.606 344.123 445.319 350.402L386.148 409.597Z" fill="#53A6FF"/>
<path d="M332.651 452.262H324.117C321.854 452.262 319.684 453.161 318.083 454.762C316.483 456.362 315.584 458.532 315.584 460.796C315.584 463.059 316.483 465.229 318.083 466.83C319.684 468.43 321.854 469.329 324.117 469.329H332.651C334.914 469.329 337.084 468.43 338.685 466.83C340.285 465.229 341.184 463.059 341.184 460.796C341.184 458.532 340.285 456.362 338.685 454.762C337.084 453.161 334.914 452.262 332.651 452.262ZM209.771 180.902C207.96 179.544 205.684 178.961 203.444 179.281C201.203 179.601 199.182 180.798 197.824 182.609C196.466 184.42 195.883 186.695 196.203 188.936C196.523 191.176 197.72 193.198 199.531 194.556L233.664 220.156C234.592 220.852 235.653 221.352 236.78 221.624C237.908 221.897 239.08 221.936 240.224 221.741C241.368 221.545 242.459 221.118 243.433 220.486C244.406 219.854 245.24 219.03 245.884 218.065L314.15 115.665C315.406 113.782 315.863 111.477 315.42 109.258C314.976 107.038 313.67 105.085 311.787 103.829C309.904 102.573 307.599 102.117 305.379 102.56C303.159 103.003 301.207 104.31 299.951 106.193L236.685 201.092L209.771 180.902Z" fill="#53A6FF"/>
</g>
<defs>
<clipPath id="clip0_297_97">
<rect width="512" height="512" fill="white"/>
</clipPath>
</defs>
</svg>
