<svg width="512" height="512" viewBox="0 0 512 512" fill="none" xmlns="http://www.w3.org/2000/svg">
<g clip-path="url(#clip0_297_59)">
<path d="M305.55 429.419C291.891 429.419 280.776 440.534 280.776 454.193C280.776 467.852 291.891 478.967 305.55 478.967C319.209 478.967 330.324 467.852 330.324 454.193C330.324 440.534 319.209 429.419 305.55 429.419ZM305.55 462.451C303.423 462.356 301.416 461.444 299.945 459.906C298.474 458.368 297.653 456.321 297.653 454.193C297.653 452.065 298.474 450.018 299.945 448.48C301.416 446.942 303.423 446.03 305.55 445.935C307.676 446.03 309.684 446.942 311.155 448.48C312.626 450.018 313.447 452.065 313.447 454.193C313.447 456.321 312.626 458.368 311.155 459.906C309.684 461.444 307.676 462.356 305.55 462.451ZM107.356 429.419C93.6974 429.419 82.582 440.534 82.582 454.193C82.582 467.852 93.6974 478.967 107.356 478.967C121.015 478.967 132.13 467.852 132.13 454.193C132.13 440.534 121.015 429.419 107.356 429.419ZM107.356 462.451C105.23 462.356 103.222 461.444 101.751 459.906C100.28 458.368 99.4593 456.321 99.4593 454.193C99.4593 452.065 100.28 450.018 101.751 448.48C103.222 446.942 105.23 446.03 107.356 445.935C109.483 446.03 111.49 446.942 112.961 448.48C114.432 450.018 115.253 452.065 115.253 454.193C115.253 456.321 114.432 458.368 112.961 459.906C111.49 461.444 109.483 462.356 107.356 462.451ZM123.872 132.128C137.531 132.128 148.647 121.013 148.647 107.354C148.647 93.6954 137.531 82.5801 123.872 82.5801C110.214 82.5801 99.0982 93.6954 99.0982 107.354C99.0982 121.013 110.214 132.128 123.872 132.128ZM123.872 99.0962C125.508 99.0946 127.107 99.5782 128.468 100.486C129.829 101.394 130.889 102.685 131.516 104.195C132.143 105.706 132.307 107.369 131.988 108.973C131.67 110.577 130.882 112.051 129.726 113.208C128.569 114.364 127.096 115.152 125.491 115.47C123.887 115.789 122.224 115.625 120.713 114.998C119.203 114.371 117.912 113.311 117.004 111.95C116.096 110.589 115.613 108.99 115.614 107.354C115.614 102.796 119.322 99.0962 123.872 99.0962ZM454.195 297.29C440.536 297.29 429.421 308.405 429.421 322.064C429.421 335.723 440.536 346.838 454.195 346.838C467.854 346.838 478.969 335.723 478.969 322.064C478.969 308.405 467.854 297.29 454.195 297.29ZM454.195 330.322C452.069 330.227 450.061 329.315 448.59 327.777C447.119 326.239 446.298 324.192 446.298 322.064C446.298 319.936 447.119 317.889 448.59 316.351C450.061 314.813 452.069 313.901 454.195 313.806C456.321 313.901 458.329 314.813 459.8 316.351C461.271 317.889 462.092 319.936 462.092 322.064C462.092 324.192 461.271 326.239 459.8 327.777C458.329 329.315 456.321 330.227 454.195 330.322Z" fill="#53A6FF"/>
<path d="M462.088 264.861C462.212 261.905 462.452 258.948 462.452 256C462.452 218.36 452.179 181.768 432.888 149.719C441.397 134.786 445.892 117.903 445.935 100.715V99.0968C445.935 44.4532 401.482 0 346.839 0C310.189 0 278.189 20.0506 261.046 49.7135C228.751 49.0044 196.732 55.7972 167.507 69.5577C162.098 63.2832 155.4 58.248 147.871 54.7951C140.341 51.3422 132.155 49.5527 123.871 49.5484C91.9948 49.5484 66.0645 75.487 66.0645 107.355C66.09 119.856 70.1442 132.016 77.6258 142.03L81.0446 146.589C61.9802 176.998 51.2254 211.877 49.8539 247.742H33.0323C23.9236 247.742 16.5161 255.149 16.5161 264.258V429.419C7.40748 429.419 0 436.827 0 445.935V462.452C0 471.56 7.40748 478.968 16.5161 478.968H55.2052C64.5037 498.465 84.3561 512 107.355 512C130.354 512 150.206 498.465 159.505 478.968H253.399C262.697 498.465 282.55 512 305.548 512C328.547 512 348.399 498.465 357.698 478.968H379.871C388.98 478.968 396.387 471.56 396.387 462.452V439.709C396.387 437.694 396.139 435.679 395.652 433.697L390.367 412.556C402.645 402.025 413.643 390.087 423.135 376.989L454.194 418.411L500.439 356.748C507.922 346.731 511.976 334.568 512 322.065C512 292.881 490.232 268.734 462.088 264.861ZM346.839 16.5161C392.374 16.5161 429.419 53.5618 429.419 99.0968V100.707C429.419 119.123 423.151 137.249 411.772 151.725L346.839 234.38L281.906 151.725C270.496 137.164 264.284 119.206 264.258 100.707V99.0968C264.258 53.5618 301.304 16.5161 346.839 16.5161ZM123.871 66.0645C146.638 66.0645 165.161 84.5874 165.161 107.355C165.146 116.284 162.25 124.969 156.903 132.121L123.871 176.169L90.8387 132.121C85.4922 124.969 82.596 116.284 82.5806 107.355C82.5806 84.5874 101.103 66.0645 123.871 66.0645ZM33.0323 264.258H99.0968V327.168L140.387 306.523L181.677 327.168V264.258H247.742V429.419H159.505C150.206 409.922 130.354 396.387 107.355 396.387C84.3561 396.387 64.5037 409.922 55.2052 429.419H33.0323V264.258ZM115.613 264.258H165.161V300.445L140.387 288.058L115.613 300.445V264.258ZM264.258 313.806H342.198C344.039 313.806 345.827 314.422 347.278 315.554C348.729 316.687 349.761 318.272 350.208 320.058L352.776 330.323H313.806C304.698 330.323 297.29 337.73 297.29 346.839V363.355C297.29 372.463 304.698 379.871 313.806 379.871H365.163L377.55 429.419H357.698C348.399 409.922 328.547 396.387 305.548 396.387C289.379 396.387 274.762 403.076 264.258 413.82V313.806ZM361.034 363.355H313.806V346.839H356.905L361.034 363.355ZM16.5161 462.452V445.935H50.209C49.8209 448.644 49.5484 451.386 49.5484 454.194C49.5484 457.001 49.8209 459.743 50.209 462.452H16.5161ZM107.355 495.484C84.5874 495.484 66.0645 476.961 66.0645 454.194C66.0645 431.426 84.5874 412.903 107.355 412.903C130.122 412.903 148.645 431.426 148.645 454.194C148.645 476.961 130.122 495.484 107.355 495.484ZM164.501 462.452C164.889 459.743 165.161 457.001 165.161 454.194C165.161 451.386 164.889 448.644 164.501 445.935H248.403C248.014 448.644 247.742 451.386 247.742 454.194C247.742 457.001 248.014 459.743 248.403 462.452H164.501ZM305.548 495.484C282.781 495.484 264.258 476.961 264.258 454.194C264.258 431.426 282.781 412.903 305.548 412.903C328.316 412.903 346.839 431.426 346.839 454.194C346.839 476.961 328.316 495.484 305.548 495.484ZM362.694 462.452C363.082 459.743 363.355 457.001 363.355 454.194C363.355 451.386 363.082 448.644 362.694 445.935H379.871V462.452H362.694ZM385.858 394.529L366.237 316.053C364.899 310.691 361.805 305.931 357.449 302.531C353.092 299.131 347.724 297.286 342.198 297.29H264.258V264.258C264.258 255.149 256.851 247.742 247.742 247.742H66.3618C67.622 217.133 76.3147 187.291 91.6893 160.793L123.871 203.702L170.116 142.039C177.599 132.022 181.654 119.859 181.677 107.355C181.671 99.1322 179.897 91.007 176.475 83.5303C200.62 72.3307 226.874 66.402 253.49 66.1388C249.711 76.7175 247.768 87.8637 247.742 99.0968V100.707C247.742 122.814 255.265 144.566 268.916 161.932L346.839 261.103L422.565 164.724C437.918 192.695 445.957 224.092 445.935 256C445.935 258.981 445.704 261.979 445.572 264.977C417.784 269.163 396.387 293.128 396.387 322.065C396.413 334.565 400.467 346.725 407.948 356.74L412.713 363.099C404.93 374.52 395.925 385.059 385.858 394.529ZM487.226 346.83L454.194 390.879L421.161 346.83C415.815 339.679 412.919 330.993 412.903 322.065C412.903 299.297 431.426 280.774 454.194 280.774C476.961 280.774 495.484 299.297 495.484 322.065C495.468 330.993 492.572 339.679 487.226 346.83Z" fill="#53A6FF"/>
<path d="M346.84 165.162C383.267 165.162 412.905 135.524 412.905 99.0977C412.905 62.6714 383.267 33.0332 346.84 33.0332C310.414 33.0332 280.776 62.6714 280.776 99.0977C280.776 135.524 310.414 165.162 346.84 165.162ZM346.84 49.5493C374.166 49.5493 396.389 71.7718 396.389 99.0977C396.389 126.424 374.166 148.646 346.84 148.646C319.515 148.646 297.292 126.424 297.292 99.0977C297.292 71.7718 319.515 49.5493 346.84 49.5493ZM198.195 214.711H214.711V231.227H198.195V214.711ZM231.228 214.711H247.744V231.227H231.228V214.711ZM264.26 214.711H280.776V231.227H264.26V214.711Z" fill="#53A6FF"/>
</g>
<defs>
<clipPath id="clip0_297_59">
<rect width="512" height="512" fill="white"/>
</clipPath>
</defs>
</svg>
