<svg width="512" height="512" viewBox="0 0 512 512" fill="none" xmlns="http://www.w3.org/2000/svg">
<g clip-path="url(#clip0_297_83)">
<path d="M256 114C177.701 114 114 177.701 114 256C114 334.299 177.701 398 256 398C334.299 398 398 334.299 398 256C398 177.701 334.299 114 256 114ZM256 378C188.729 378 134 323.271 134 256C134 188.729 188.729 134 256 134C323.271 134 378 188.729 378 256C378 323.271 323.271 378 256 378ZM506.691 1.16794C505.088 0.316886 503.283 -0.0819972 501.47 0.0140074C499.658 0.110012 497.905 0.697288 496.401 1.71294C447.309 34.8839 418 90.0599 418 149.309V279.061C418 292.978 423.42 306.062 433.26 315.903L452 334.643V482C452 498.542 465.458 512 482 512C498.542 512 512 498.542 512 482V9.99994C512 6.30094 509.958 2.90394 506.691 1.16794ZM492 482C492 487.514 487.514 492 482 492C476.486 492 472 487.514 472 482V330.5C472 327.848 470.946 325.305 469.071 323.429L447.402 301.76C441.339 295.697 438 287.636 438 279.061V149.309C438 103.329 457.881 60.1149 492 30.2969V482Z" fill="#53A6FF"/>
<path d="M233.058 176.693C230.89 171.614 225.012 169.255 219.934 171.422C203.351 178.483 189.213 190.268 179.28 205.307C169.347 220.347 164.059 237.977 164.075 256C164.075 261.522 168.552 266 174.075 266C179.598 266 184.075 261.522 184.075 256C184.063 241.896 188.201 228.101 195.974 216.332C203.747 204.564 214.811 195.342 227.787 189.817C232.866 187.649 235.226 181.773 233.058 176.693ZM256 164.075L255.495 164.076C249.972 164.113 245.525 168.62 245.562 174.143C245.599 179.643 250.069 184.076 255.561 184.076H255.629L256 184.075C261.523 184.075 266 179.598 266 174.075C266 168.552 261.523 164.075 256 164.075ZM394.623 124.479C376.955 105.863 356.129 91.215 332.724 80.943C308.488 70.307 282.674 64.914 256 64.914C225.52 64.914 196.384 71.88 169.402 85.62C164.481 88.126 162.522 94.147 165.028 99.069C167.535 103.989 173.556 105.947 178.478 103.442C202.622 91.148 228.704 84.914 256 84.914C303.396 84.914 347.475 103.854 380.116 138.247C381.049 139.233 382.174 140.018 383.422 140.554C384.669 141.09 386.013 141.365 387.371 141.363C389.933 141.366 392.397 140.382 394.253 138.616C398.259 134.814 398.424 128.485 394.623 124.479ZM404.331 360.379C399.998 356.955 393.71 357.69 390.285 362.022C357.592 403.372 308.647 427.086 256 427.086C223.05 427.086 191.063 417.702 163.497 399.948C158.855 396.957 152.665 398.298 149.675 402.94C146.685 407.584 148.025 413.772 152.668 416.762C183.47 436.6 219.202 447.085 256 447.085C314.8 447.085 369.463 420.602 405.973 374.425C409.398 370.094 408.664 363.805 404.331 360.379ZM135.958 377.924L135.811 377.755C135.758 377.69 135.705 377.624 135.65 377.56C132.093 373.334 125.785 372.794 121.56 376.35C117.335 379.908 116.793 386.215 120.351 390.441L120.448 390.556L120.453 390.552C120.559 390.686 120.669 390.82 120.783 390.952C121.721 392.047 122.886 392.926 124.197 393.528C125.507 394.13 126.933 394.44 128.375 394.438C130.764 394.44 133.074 393.584 134.884 392.026C139.074 388.428 139.555 382.115 135.958 377.924ZM124 0C118.477 0 114 4.477 114 10V118H95.992C95.993 117.944 96 117.89 96 117.833V10C96 4.477 91.523 0 86 0C80.477 0 76 4.477 76 10V117.833C76 117.889 76.008 117.944 76.008 118H57.992C57.993 117.944 58 117.89 58 117.833V10C58 4.477 53.523 0 48 0C42.477 0 38 4.477 38 10V117.833C38 117.889 38.008 117.944 38.008 118H20V10C20 4.477 15.523 0 10 0C4.477 0 0 4.477 0 10V132C0 156.53 14.884 178.669 37 188.239V482C37 498.542 50.458 512 67 512C83.542 512 97 498.542 97 482V188.239C119.116 178.669 134 156.53 134 132V10C134 4.477 129.523 0 124 0ZM84.224 171.62C82.1412 172.222 80.3104 173.484 79.0075 175.217C77.7045 176.95 77 179.059 77 181.227V482C77 487.514 72.514 492 67 492C61.486 492 57 487.514 57 482V181.227C57 179.059 56.2955 176.95 54.9925 175.217C53.6896 173.484 51.8588 172.222 49.776 171.62C34.193 167.117 22.795 153.741 20.452 138H113.547C111.205 153.741 99.807 167.117 84.224 171.62Z" fill="#53A6FF"/>
</g>
<defs>
<clipPath id="clip0_297_83">
<rect width="512" height="512" fill="white"/>
</clipPath>
</defs>
</svg>
