<svg width="511" height="512" viewBox="0 0 511 512" fill="none" xmlns="http://www.w3.org/2000/svg">
<g clip-path="url(#clip0_297_105)">
<path d="M462.509 71.5024H370.854V41.4178C370.854 37.278 367.499 33.9219 363.358 33.9219C359.217 33.9219 355.862 37.278 355.862 41.4178V71.5024H324.812C320.671 71.5024 317.316 74.8586 317.316 78.9983C317.316 83.1381 320.671 86.4942 324.812 86.4942H355.862V118.235H350.236C342.38 118.235 335.989 124.626 335.989 132.481V220.727C335.989 228.583 342.38 234.973 350.236 234.973H355.862V294.442C355.862 298.582 359.217 301.938 363.358 301.938C367.499 301.938 370.854 298.582 370.854 294.442V234.973H376.48C384.335 234.973 390.726 228.582 390.726 220.727V132.481C390.726 124.625 384.335 118.235 376.48 118.235H370.854V86.4942H462.509C480.52 86.4942 495.175 101.148 495.175 119.16V375.716H14.9918V119.161C14.9918 101.149 29.6458 86.4952 47.658 86.4952H179.058V101.124H173.432C165.577 101.124 159.186 107.516 159.186 115.37V203.616C159.186 211.472 165.578 217.863 173.432 217.863H179.058V284.1C179.058 286.088 179.848 287.994 181.254 289.4C182.66 290.806 184.566 291.595 186.554 291.595C188.542 291.595 190.449 290.806 191.855 289.4C193.261 287.994 194.05 286.088 194.05 284.1V217.863H199.676C207.532 217.863 213.922 211.471 213.922 203.616V115.37C213.922 107.515 207.531 101.124 199.676 101.124H194.05V86.4942H225.1C227.088 86.4942 228.995 85.7045 230.401 84.2987C231.807 82.893 232.596 80.9864 232.596 78.9983C232.596 77.0103 231.807 75.1037 230.401 73.6979C228.995 72.2921 227.088 71.5024 225.1 71.5024H194.05V67.8004C194.05 65.8124 193.261 63.9058 191.855 62.5C190.449 61.0942 188.542 60.3045 186.554 60.3045C184.566 60.3045 182.66 61.0942 181.254 62.5C179.848 63.9058 179.058 65.8124 179.058 67.8004V71.5024H47.658C21.3794 71.5024 0 92.8817 0 119.16V383.212C0 409.49 21.3794 430.87 47.658 430.87H161.765V468.983L137.605 497.008H128.015C126.027 497.008 124.121 497.797 122.715 499.203C121.309 500.609 120.519 502.515 120.519 504.503C120.519 506.491 121.309 508.398 122.715 509.804C124.121 511.21 126.027 511.999 128.015 511.999H381.46C385.601 511.999 388.956 508.643 388.956 504.503C388.956 500.364 385.601 497.008 381.46 497.008H372.561L348.401 468.983V430.87H462.509C488.788 430.87 510.167 409.49 510.167 383.212V119.161C510.167 92.8827 488.788 71.5024 462.509 71.5024ZM375.734 219.983H350.982V133.228H375.735L375.734 219.983ZM198.931 202.871H174.177V116.116H198.931V202.871ZM462.509 415.878H310.801C306.66 415.878 303.305 419.234 303.305 423.374C303.305 427.513 306.66 430.87 310.801 430.87H333.409V464.272H314.737C310.597 464.272 307.242 467.629 307.242 471.768C307.242 475.908 310.597 479.264 314.737 479.264H337.47L352.767 497.008H157.399L172.696 479.264H195.428C197.417 479.264 199.323 478.474 200.729 477.069C202.135 475.663 202.924 473.756 202.924 471.768C202.924 469.78 202.135 467.874 200.729 466.468C199.323 465.062 197.417 464.272 195.428 464.272H176.757V430.87H278.855C282.996 430.87 286.351 427.513 286.351 423.374C286.351 419.234 282.996 415.878 278.855 415.878H47.658C32.2254 415.878 19.2675 405.118 15.8694 390.707H494.297C490.9 405.118 477.942 415.878 462.509 415.878Z" fill="#53A6FF"/>
<path d="M78.2803 218.844C76.2923 218.844 74.3857 219.633 72.9799 221.039C71.5741 222.445 70.7844 224.352 70.7844 226.34V244.436C70.7844 252.292 77.1749 258.682 85.0306 258.682H90.6566V298.601C90.6566 300.589 91.4463 302.496 92.8521 303.902C94.2578 305.307 96.1644 306.097 98.1525 306.097C100.141 306.097 102.047 305.307 103.453 303.902C104.859 302.496 105.648 300.589 105.648 298.601V258.682H111.274C119.13 258.682 125.521 252.292 125.521 244.436V156.19C125.521 148.334 119.129 141.943 111.274 141.943H105.648V129.953C105.648 127.965 104.859 126.059 103.453 124.653C102.047 123.247 100.141 122.457 98.1525 122.457C96.1644 122.457 94.2578 123.247 92.8521 124.653C91.4463 126.059 90.6566 127.965 90.6566 129.953V141.943H85.0306C77.1749 141.943 70.7844 148.334 70.7844 156.19V194.395C70.7844 196.383 71.5741 198.29 72.9799 199.695C74.3857 201.101 76.2923 201.891 78.2803 201.891C80.2684 201.891 82.175 201.101 83.5807 199.695C84.9865 198.29 85.7762 196.383 85.7762 194.395V156.935H110.531V243.691H85.7762V226.341C85.7764 225.356 85.5826 224.381 85.2059 223.472C84.8293 222.562 84.2772 221.736 83.5811 221.04C82.885 220.343 82.0586 219.791 81.1491 219.414C80.2396 219.038 79.2648 218.844 78.2803 218.844ZM261.834 203.03H267.461V242.949C267.461 247.088 270.816 250.445 274.957 250.445C279.098 250.445 282.453 247.088 282.453 242.949V203.03H288.079C295.934 203.03 302.325 196.639 302.325 188.783V129.988C302.325 125.848 298.97 122.492 294.829 122.492C290.689 122.492 287.333 125.848 287.333 129.988V188.039H262.58V52.3095H287.333V98.0436C287.333 102.183 290.689 105.539 294.829 105.539C298.97 105.539 302.325 102.183 302.325 98.0436V51.5639C302.325 43.7092 295.934 37.3177 288.079 37.3177H282.453V7.49592C282.453 3.35617 279.098 0 274.957 0C270.816 0 267.461 3.35617 267.461 7.49592V37.3177H261.834C253.979 37.3177 247.588 43.7092 247.588 51.5639V188.783C247.588 196.64 253.979 203.03 261.834 203.03ZM406.617 205.505C407.084 206.372 407.718 207.138 408.481 207.76C409.244 208.382 410.122 208.847 411.065 209.129C412.008 209.412 412.998 209.505 413.977 209.405C414.956 209.305 415.906 209.013 416.773 208.545L451.301 189.929L448.817 196.447C448.467 197.367 448.301 198.347 448.329 199.331C448.358 200.315 448.58 201.284 448.982 202.182C449.385 203.08 449.961 203.89 450.676 204.566C451.392 205.242 452.234 205.77 453.154 206.121C454.074 206.471 455.054 206.637 456.038 206.609C457.022 206.58 457.991 206.359 458.889 205.956C459.787 205.553 460.598 204.977 461.273 204.262C461.949 203.546 462.477 202.704 462.828 201.784L471.267 179.63C471.618 178.71 471.784 177.73 471.755 176.746C471.727 175.762 471.505 174.793 471.102 173.895C470.7 172.997 470.124 172.187 469.408 171.511C468.692 170.835 467.851 170.307 466.931 169.956L443.416 160.998C441.565 160.321 439.522 160.4 437.729 161.219C435.936 162.037 434.537 163.528 433.835 165.37C433.134 167.212 433.186 169.256 433.98 171.06C434.774 172.864 436.247 174.282 438.079 175.009L443.531 177.086L409.658 195.35C407.908 196.293 406.604 197.893 406.034 199.798C405.464 201.702 405.674 203.755 406.617 205.505ZM44.3228 351.968C44.9003 353.318 45.8615 354.469 47.0871 355.278C48.3127 356.086 49.7487 356.517 51.2171 356.517C52.2302 356.516 53.2326 356.31 54.1635 355.91L150.889 314.514L159.679 337.544C160.059 338.54 160.648 339.444 161.405 340.195C162.162 340.945 163.071 341.526 164.071 341.897C165.07 342.269 166.137 342.423 167.201 342.349C168.265 342.275 169.301 341.975 170.239 341.469L330.036 255.311C330.904 254.845 331.672 254.212 332.295 253.449C332.919 252.685 333.385 251.807 333.669 250.863C333.952 249.919 334.047 248.929 333.947 247.948C333.847 246.968 333.555 246.017 333.088 245.149C332.62 244.282 331.986 243.515 331.221 242.893C330.457 242.271 329.578 241.806 328.633 241.524C327.689 241.242 326.699 241.149 325.718 241.251C324.738 241.352 323.788 241.646 322.921 242.115L170.64 324.22L162.114 301.88C161.754 300.936 161.207 300.075 160.506 299.349C159.806 298.622 158.965 298.044 158.036 297.65C157.106 297.256 156.107 297.054 155.097 297.056C154.088 297.058 153.089 297.263 152.161 297.661L48.2647 342.127C46.4373 342.909 44.9956 344.386 44.2564 346.231C43.5172 348.077 43.5411 350.14 44.3228 351.968Z" fill="#53A6FF"/>
</g>
<defs>
<clipPath id="clip0_297_105">
<rect width="511" height="512" fill="white"/>
</clipPath>
</defs>
</svg>
