<svg width="512" height="512" viewBox="0 0 512 512" fill="none" xmlns="http://www.w3.org/2000/svg">
<g clip-path="url(#clip0_297_35)">
<path d="M125.769 153.902C56.5494 153.902 0.234375 210.217 0.234375 279.437C0.234375 322.414 20.6784 368.622 60.9994 416.778C66.6928 423.568 72.5922 430.183 78.6894 436.612C52.6554 443.718 37.0244 456.485 37.0244 471.386C37.0244 497.765 82.7464 511.999 125.765 511.999C168.785 511.999 214.506 497.764 214.506 471.386C214.506 456.497 198.88 443.727 172.863 436.618C183.257 425.645 194.441 412.735 205.053 398.335C205.651 397.542 206.085 396.639 206.331 395.677C206.577 394.715 206.63 393.714 206.486 392.732C206.343 391.75 206.006 390.806 205.495 389.954C204.985 389.103 204.31 388.362 203.511 387.773C202.712 387.184 201.804 386.759 200.839 386.524C199.875 386.288 198.873 386.246 197.893 386.4C196.912 386.554 195.971 386.901 195.126 387.421C194.28 387.94 193.546 388.623 192.965 389.428C180.153 406.815 166.285 422.095 154.184 434.232C152.779 434.945 151.634 436.082 150.91 437.481C140.07 448.134 130.948 456.037 125.772 460.355C120.653 456.079 111.67 448.283 100.969 437.769C100.212 436.107 98.8738 434.777 97.2064 434.03C63.1994 399.825 15.2494 340.729 15.2494 279.439C15.2494 218.499 64.8284 168.92 125.768 168.92C186.708 168.92 236.287 218.499 236.287 279.439C236.287 306.052 227.219 334.792 209.335 364.861C208.831 365.709 208.499 366.647 208.358 367.623C208.216 368.599 208.269 369.593 208.512 370.548C208.754 371.504 209.183 372.402 209.773 373.192C210.363 373.982 211.103 374.648 211.95 375.152C212.798 375.656 213.736 375.989 214.712 376.13C215.688 376.271 216.682 376.219 217.637 375.976C218.593 375.733 219.491 375.305 220.281 374.715C221.071 374.125 221.737 373.385 222.241 372.537C241.525 340.113 251.303 308.791 251.303 279.439C251.304 210.217 194.989 153.902 125.769 153.902ZM121.174 475.971C122.489 476.99 124.106 477.542 125.769 477.541C127.433 477.542 129.049 476.99 130.364 475.971C131.285 475.258 143.831 465.474 160.554 449.123C185.876 454.287 199.492 464.23 199.492 471.387C199.492 476.732 192.166 483.038 180.373 487.843C165.909 493.738 146.516 496.985 125.766 496.985C80.7604 496.985 52.0404 481.823 52.0404 471.387C52.0404 464.22 65.6604 454.282 90.9964 449.118C107.812 465.566 120.376 475.353 121.174 475.971Z" fill="#53A6FF"/>
<path d="M125.769 224.854C113.894 224.854 102.602 228.603 93.1135 235.696C91.5191 236.889 90.4635 238.666 90.1788 240.636C89.8941 242.607 90.4037 244.61 91.5955 246.205C92.7883 247.799 94.5652 248.855 96.5358 249.139C98.5064 249.424 100.509 248.915 102.105 247.723C108.976 242.586 117.159 239.87 125.768 239.87C147.585 239.87 165.334 257.619 165.334 279.437C165.334 301.254 147.585 319.003 125.768 319.003C103.951 319.003 86.2015 301.253 86.2015 279.437C86.2015 275.714 86.7165 272.033 87.7315 268.499C88.2809 266.585 88.0476 264.532 87.083 262.79C86.1183 261.048 84.5013 259.761 82.5875 259.211C80.6736 258.663 78.6204 258.897 76.879 259.862C75.1375 260.826 73.8501 262.443 73.2995 264.356C71.8953 269.26 71.1844 274.336 71.1875 279.437C71.1875 309.533 95.6725 334.019 125.77 334.019C155.866 334.019 180.352 309.534 180.352 279.437C180.351 249.34 155.865 224.854 125.769 224.854ZM452.959 218.121C456.975 213.816 460.877 209.405 464.66 204.892C495.918 167.559 511.767 131.67 511.767 98.219C511.767 44.062 467.706 0 413.548 0C373.985 0 338.462 23.546 323.051 59.986C322.666 60.894 322.465 61.8687 322.457 62.8545C322.45 63.8404 322.637 64.818 323.007 65.7317C323.378 66.6453 323.924 67.4771 324.616 68.1794C325.308 68.8817 326.132 69.4409 327.04 69.825C328.873 70.6003 330.94 70.6156 332.785 69.8676C334.63 69.1195 336.102 67.6694 336.879 65.836C349.937 34.964 380.031 15.015 413.548 15.015C459.427 15.015 496.752 52.341 496.752 98.22C496.752 160.263 431.614 219.704 413.545 234.995C409.563 231.63 403.295 226.122 395.946 218.918C395.218 217.482 394.047 216.319 392.607 215.6C366.684 189.499 330.344 144.632 330.344 98.22C330.344 96.2288 329.552 94.3191 328.144 92.911C326.736 91.503 324.827 90.712 322.836 90.712C320.844 90.712 318.935 91.503 317.527 92.911C316.119 94.3191 315.328 96.2288 315.328 98.22C315.328 131.67 331.177 167.559 362.436 204.893C366.217 209.403 370.116 213.812 374.131 218.116C354.777 223.931 343.604 233.829 343.604 245.748C343.604 255.8 351.758 264.659 366.566 270.692C379.236 275.855 395.921 278.699 413.547 278.699C431.172 278.699 447.857 275.855 460.528 270.692C475.333 264.658 483.487 255.799 483.487 245.747C483.486 233.85 472.305 223.943 452.959 218.121ZM413.546 263.682C378.007 263.682 358.62 251.834 358.62 245.746C358.62 241.78 367.439 234.522 386.271 230.518C398.942 242.847 408.347 250.173 408.954 250.644C410.269 251.663 411.885 252.215 413.549 252.214C415.212 252.215 416.828 251.663 418.144 250.644C418.751 250.175 428.154 242.848 440.825 230.52C449.215 232.309 456.483 234.93 461.569 238.026C465.892 240.66 468.473 243.546 468.473 245.746C468.471 251.834 449.084 263.682 413.546 263.682Z" fill="#53A6FF"/>
<path d="M413.547 54.5312C389.458 54.5312 369.859 74.1292 369.859 98.2202C369.859 122.309 389.457 141.907 413.547 141.907C437.637 141.907 457.235 122.31 457.235 98.2202C457.235 74.1302 437.637 54.5312 413.547 54.5312ZM413.548 126.891C397.736 126.891 384.875 114.029 384.875 98.2192C384.875 82.4092 397.737 69.5462 413.548 69.5462C429.358 69.5462 442.221 82.4082 442.221 98.2192C442.22 114.029 429.358 126.891 413.548 126.891ZM316.157 238.238H312.729C310.233 238.238 307.725 238.403 305.271 238.73C303.313 239.011 301.544 240.053 300.35 241.631C299.156 243.208 298.632 245.193 298.893 247.154C299.154 249.115 300.179 250.894 301.744 252.104C303.309 253.314 305.289 253.857 307.252 253.616C309.068 253.376 310.898 253.256 312.73 253.256H316.157V253.255C320.304 253.255 323.665 249.895 323.665 245.747C323.665 241.599 320.304 238.238 316.157 238.238ZM291.336 463.495H291.301L281.385 463.54C279.394 463.545 277.486 464.34 276.081 465.751C274.676 467.162 273.889 469.073 273.894 471.065C273.898 473.056 274.693 474.964 276.104 476.369C277.515 477.774 279.427 478.561 281.418 478.556H281.453L291.369 478.511C293.36 478.502 295.266 477.702 296.668 476.288C298.069 474.873 298.852 472.96 298.843 470.969C298.835 468.984 298.04 467.083 296.633 465.682C295.226 464.281 293.322 463.495 291.336 463.495ZM325.066 335.488H315.15C313.159 335.488 311.249 336.279 309.841 337.687C308.433 339.095 307.642 341.005 307.642 342.996C307.642 344.987 308.433 346.897 309.841 348.305C311.249 349.713 313.159 350.504 315.15 350.504H325.066C326.052 350.504 327.029 350.31 327.939 349.933C328.85 349.556 329.678 349.003 330.375 348.305C331.073 347.608 331.626 346.781 332.003 345.87C332.38 344.959 332.574 343.982 332.574 342.996C332.574 342.01 332.38 341.034 332.003 340.123C331.626 339.212 331.073 338.384 330.375 337.687C329.678 336.99 328.85 336.437 327.939 336.059C327.029 335.682 326.052 335.488 325.066 335.488ZM285.284 253.535C283.934 252.072 282.058 251.205 280.068 251.125C278.079 251.045 276.139 251.758 274.675 253.107C271.87 255.695 269.335 258.56 267.108 261.659C265.995 263.279 265.561 265.27 265.899 267.205C266.237 269.141 267.32 270.867 268.916 272.013C270.512 273.159 272.494 273.635 274.436 273.337C276.378 273.039 278.126 271.991 279.305 270.419C280.939 268.146 282.799 266.043 284.856 264.144C286.32 262.794 287.187 260.918 287.267 258.928C287.348 256.939 286.634 254.999 285.284 253.535ZM331.002 463.313H330.967L321.052 463.358C319.082 463.394 317.205 464.204 315.826 465.611C314.447 467.019 313.677 468.912 313.681 470.882C313.685 472.853 314.464 474.743 315.849 476.144C317.234 477.546 319.115 478.347 321.085 478.374H321.12L331.035 478.329C333.005 478.293 334.882 477.484 336.261 476.076C337.64 474.669 338.411 472.775 338.406 470.805C338.402 468.835 337.623 466.945 336.238 465.543C334.853 464.142 332.972 463.341 331.002 463.313ZM251.671 463.674H251.636L241.72 463.719C239.729 463.729 237.823 464.529 236.422 465.943C235.02 467.357 234.238 469.27 234.246 471.261C234.255 473.246 235.05 475.147 236.457 476.548C237.863 477.949 239.768 478.735 241.753 478.735H241.788L251.704 478.69C253.695 478.681 255.601 477.881 257.003 476.467C258.404 475.052 259.187 473.139 259.178 471.148C259.17 469.163 258.375 467.262 256.968 465.861C255.561 464.46 253.657 463.674 251.671 463.674ZM290.829 329.177C288.463 327.683 286.254 325.953 284.236 324.014C282.801 322.634 280.876 321.881 278.886 321.919C276.895 321.958 275.001 322.786 273.62 324.22C272.937 324.931 272.4 325.769 272.04 326.687C271.681 327.605 271.505 328.585 271.525 329.57C271.544 330.556 271.757 331.528 272.152 332.432C272.547 333.335 273.116 334.152 273.826 334.835C276.577 337.481 279.59 339.84 282.817 341.877C283.651 342.404 284.58 342.762 285.552 342.929C286.524 343.096 287.52 343.07 288.482 342.853C289.444 342.635 290.354 342.229 291.159 341.66C291.964 341.09 292.649 340.367 293.174 339.532C293.7 338.698 294.057 337.769 294.224 336.797C294.39 335.826 294.364 334.831 294.146 333.869C293.929 332.907 293.524 331.998 292.954 331.193C292.385 330.388 291.663 329.703 290.829 329.177ZM272.373 302.286C271.867 299.679 271.613 297.028 271.613 294.372L271.615 293.955C271.627 292.969 271.444 291.991 271.077 291.076C270.711 290.16 270.167 289.326 269.478 288.621C268.789 287.916 267.968 287.353 267.062 286.966C266.155 286.578 265.181 286.372 264.195 286.361L264.106 286.36C262.13 286.361 260.234 287.14 258.829 288.529C257.424 289.918 256.623 291.805 256.6 293.781L256.597 294.373C256.597 297.999 256.946 301.628 257.634 305.159C257.823 306.127 258.2 307.048 258.745 307.87C259.289 308.692 259.991 309.399 260.808 309.95C261.626 310.5 262.544 310.885 263.511 311.081C264.477 311.277 265.472 311.281 266.44 311.092C267.408 310.904 268.329 310.526 269.151 309.982C269.973 309.437 270.68 308.736 271.23 307.918C271.781 307.1 272.166 306.182 272.362 305.216C272.558 304.249 272.562 303.254 272.373 302.286ZM364.733 335.488H354.817C352.826 335.488 350.916 336.279 349.508 337.687C348.1 339.095 347.309 341.005 347.309 342.996C347.309 344.987 348.1 346.897 349.508 348.305C350.916 349.713 352.826 350.504 354.817 350.504H364.733C366.724 350.504 368.634 349.713 370.042 348.305C371.45 346.897 372.241 344.987 372.241 342.996C372.241 341.005 371.45 339.095 370.042 337.687C368.634 336.279 366.724 335.488 364.733 335.488ZM485.274 350.774C482.374 348.486 479.301 346.426 476.082 344.612C472.473 342.576 467.892 343.855 465.856 347.468C465.372 348.327 465.062 349.273 464.944 350.252C464.825 351.231 464.901 352.223 465.166 353.173C465.431 354.122 465.881 355.01 466.489 355.786C467.098 356.562 467.853 357.21 468.712 357.694C471.252 359.127 473.678 360.754 475.967 362.56C477.29 363.608 478.928 364.178 480.615 364.176C482.176 364.178 483.698 363.693 484.971 362.789C486.243 361.886 487.202 360.608 487.715 359.134C488.227 357.659 488.268 356.062 487.83 354.564C487.393 353.066 486.499 351.741 485.274 350.774ZM457.405 468.693C456.835 464.586 453.039 461.711 448.94 462.283C446.481 462.623 443.963 462.802 441.452 462.812L440.047 462.819C438.086 462.869 436.222 463.684 434.854 465.09C433.486 466.497 432.723 468.382 432.727 470.344C432.732 472.306 433.504 474.188 434.878 475.588C436.253 476.988 438.121 477.795 440.082 477.835H440.119L441.521 477.828C444.69 477.815 447.855 477.591 450.995 477.158C451.972 477.023 452.912 476.697 453.763 476.199C454.614 475.7 455.358 475.039 455.953 474.253C456.549 473.467 456.983 472.572 457.232 471.618C457.481 470.664 457.54 469.67 457.405 468.693ZM490.54 447.58C489.86 446.866 489.046 446.293 488.145 445.893C487.244 445.494 486.272 445.276 485.287 445.252C484.301 445.228 483.32 445.399 482.4 445.754C481.481 446.109 480.64 446.642 479.926 447.322C477.812 449.335 475.546 451.181 473.148 452.845C471.512 453.98 470.393 455.718 470.038 457.678C469.684 459.637 470.121 461.657 471.255 463.294C471.946 464.293 472.87 465.108 473.946 465.671C475.021 466.234 476.218 466.527 477.432 466.525C478.959 466.526 480.45 466.059 481.703 465.187C484.739 463.081 487.607 460.743 490.283 458.195C490.997 457.515 491.57 456.701 491.969 455.8C492.369 454.898 492.586 453.927 492.61 452.941C492.634 451.955 492.463 450.975 492.108 450.055C491.753 449.135 491.22 448.294 490.54 447.58ZM505.152 411.117C503.196 410.749 501.173 411.174 499.529 412.296C497.885 413.419 496.754 415.149 496.385 417.105C495.845 419.969 495.082 422.787 494.105 425.533C493.462 427.403 493.582 429.451 494.439 431.232C495.296 433.014 496.821 434.386 498.684 435.05C500.546 435.714 502.595 435.616 504.386 434.779C506.177 433.941 507.566 432.431 508.25 430.576C509.491 427.093 510.458 423.518 511.143 419.884C511.511 417.927 511.086 415.904 509.963 414.26C508.839 412.616 507.109 411.486 505.152 411.117ZM509.612 386.983C508.59 383.426 507.291 379.954 505.726 376.599C504.865 374.826 503.341 373.462 501.483 372.802C499.625 372.142 497.583 372.24 495.796 373.073C494.009 373.907 492.622 375.41 491.934 377.257C491.246 379.105 491.312 381.149 492.118 382.948C493.351 385.59 494.374 388.324 495.179 391.125C495.629 392.691 496.576 394.069 497.877 395.05C499.178 396.031 500.763 396.563 502.392 396.564C503.555 396.564 504.703 396.294 505.744 395.775C506.785 395.257 507.691 394.503 508.391 393.574C509.091 392.645 509.566 391.566 509.778 390.422C509.99 389.279 509.933 388.101 509.612 386.983ZM404.399 335.488H394.483C392.492 335.488 390.582 336.279 389.174 337.687C387.766 339.095 386.975 341.005 386.975 342.996C386.975 344.987 387.766 346.897 389.174 348.305C390.582 349.713 392.492 350.504 394.483 350.504H404.399C406.39 350.504 408.3 349.713 409.708 348.305C411.116 346.897 411.907 344.987 411.907 342.996C411.907 341.005 411.116 339.095 409.708 337.687C408.3 336.279 406.39 335.488 404.399 335.488ZM370.668 463.133H370.633L360.717 463.178C358.747 463.214 356.87 464.024 355.491 465.431C354.112 466.839 353.342 468.732 353.346 470.702C353.35 472.673 354.129 474.563 355.514 475.964C356.899 477.366 358.78 478.167 360.75 478.194H360.785L370.701 478.149C372.692 478.145 374.6 477.35 376.005 475.939C377.41 474.527 378.197 472.616 378.193 470.625C378.188 468.633 377.393 466.726 375.982 465.321C374.571 463.916 372.659 463.129 370.668 463.133ZM444.395 335.56C443.33 335.513 442.265 335.489 441.199 335.489H434.148C432.157 335.489 430.247 336.28 428.839 337.688C427.431 339.096 426.64 341.006 426.64 342.997C426.64 344.988 427.431 346.898 428.839 348.306C430.247 349.714 432.157 350.505 434.148 350.505H441.199V350.504C442.048 350.504 442.892 350.523 443.731 350.56C444.716 350.604 445.7 350.453 446.627 350.117C447.553 349.78 448.404 349.265 449.132 348.599C449.859 347.934 450.448 347.131 450.865 346.238C451.282 345.345 451.52 344.378 451.563 343.393C451.607 342.408 451.456 341.424 451.12 340.497C450.783 339.571 450.267 338.719 449.602 337.992C448.936 337.265 448.134 336.675 447.24 336.258C446.347 335.841 445.38 335.604 444.395 335.56ZM410.333 462.954H410.298L400.382 462.999C398.412 463.035 396.535 463.845 395.156 465.252C393.777 466.66 393.007 468.553 393.011 470.523C393.015 472.494 393.794 474.384 395.179 475.785C396.564 477.187 398.445 477.988 400.415 478.015H400.45L410.366 477.97C412.357 477.961 414.263 477.161 415.665 475.747C417.066 474.332 417.849 472.419 417.84 470.428C417.832 468.443 417.037 466.542 415.63 465.141C414.223 463.74 412.319 462.954 410.333 462.954Z" fill="#53A6FF"/>
</g>
<defs>
<clipPath id="clip0_297_35">
<rect width="512" height="512" fill="white"/>
</clipPath>
</defs>
</svg>
