<svg width="513" height="462" viewBox="0 0 513 462" fill="none" xmlns="http://www.w3.org/2000/svg">
<path d="M437.38 75.092L470.07 75.112C478.35 75.112 485.07 81.832 485.06 90.112L484.93 364.112M402.38 75.082L369.16 75.062M27.932 363.903L27.964 295.749M65.29 405.012H38C21.43 405.012 8 391.572 8 375.012C8 372.242 9.12 369.742 10.93 367.942C11.8574 367.012 12.9593 366.274 14.1726 365.772C15.3859 365.269 16.6866 365.011 18 365.012H283.03M283.03 405.012H100.29M452.564 365.008H495C500.523 365.008 505 369.485 505 375.008C505 391.577 491.569 405.008 475 405.008H452.819M283.032 293.904H23.112C14.766 293.904 8 287.138 8 278.792V23.112C8 14.766 14.766 8 23.112 8H352.548C360.893 8 367.657 14.765 367.657 23.109V185.329" stroke="#13C4A1" stroke-width="15" stroke-miterlimit="10" stroke-linecap="round" stroke-linejoin="round"/>
<path d="M112.38 37.0039H338.66V185.334M77.38 37.0039H37V264.904H283.03" stroke="#13C4A1" stroke-width="15" stroke-miterlimit="10" stroke-linecap="round" stroke-linejoin="round"/>
<path d="M187.828 215.996C224.855 215.996 254.871 185.98 254.871 148.953C254.871 111.926 224.855 81.9102 187.828 81.9102C150.801 81.9102 120.785 111.926 120.785 148.953C120.785 185.98 150.801 215.996 187.828 215.996Z" stroke="#13C4A1" stroke-width="15" stroke-miterlimit="10" stroke-linecap="round" stroke-linejoin="round"/>
<path d="M162.09 148.829L183.153 172.547L217.565 128.383M284.929 350.673V433.783C284.929 444.913 293.949 453.923 305.069 453.923H430.199C441.319 453.923 450.329 444.913 450.329 433.783V207.183C450.329 196.053 441.319 187.043 430.199 187.043H305.069C293.949 187.043 284.929 196.053 284.929 207.183V315.673M354.205 213.151H381.057" stroke="#13C4A1" stroke-width="15" stroke-miterlimit="10" stroke-linecap="round" stroke-linejoin="round"/>
<path d="M367.634 372.732C396.491 372.732 419.885 349.339 419.885 320.481C419.885 291.624 396.491 268.23 367.634 268.23C338.776 268.23 315.383 291.624 315.383 320.481C315.383 349.339 338.776 372.732 367.634 372.732Z" stroke="#13C4A1" stroke-width="15" stroke-miterlimit="10" stroke-linecap="round" stroke-linejoin="round"/>
<path d="M349.137 320.477L364.365 337.624L389.245 305.695" stroke="#13C4A1" stroke-width="15" stroke-miterlimit="10" stroke-linecap="round" stroke-linejoin="round"/>
</svg>
