<svg width="512" height="512" viewBox="0 0 512 512" fill="none" xmlns="http://www.w3.org/2000/svg">
<path d="M256 0C114.611 0 0 114.611 0 256C0 397.389 114.611 512 256 512C397.389 512 512 397.389 512 256C511.838 114.688 397.312 0.162133 256 0ZM256 494.933C124.041 494.933 17.0667 387.959 17.0667 256C17.0667 124.041 124.041 17.0667 256 17.0667C387.959 17.0667 494.933 124.041 494.933 256C494.78 387.9 387.9 494.78 256 494.933Z" fill="#13C4A1"/>
<path d="M255.999 34.1328C133.461 34.1328 34.1328 133.461 34.1328 255.999C34.1328 378.538 133.461 477.866 255.999 477.866C378.538 477.866 477.866 378.538 477.866 255.999C477.721 133.521 378.478 34.2779 255.999 34.1328ZM255.999 460.8C142.89 460.8 51.1995 369.109 51.1995 255.999C51.1995 142.89 142.89 51.1995 255.999 51.1995C369.109 51.1995 460.8 142.89 460.8 255.999C460.672 369.049 369.049 460.672 255.999 460.8Z" fill="#13C4A1"/>
<path d="M256.002 179.201C269.581 179.201 282.604 173.807 292.206 164.205C301.808 154.603 307.202 141.58 307.202 128.001C307.202 114.422 301.808 101.399 292.206 91.7969C282.604 82.1951 269.581 76.8008 256.002 76.8008C242.423 76.8008 229.4 82.1951 219.798 91.7969C210.196 101.399 204.802 114.422 204.802 128.001C204.802 141.58 210.196 154.603 219.798 164.205C229.4 173.807 242.423 179.201 256.002 179.201ZM256.002 93.8674C265.054 93.8674 273.736 97.4636 280.138 103.865C286.539 110.266 290.135 118.948 290.135 128.001C290.135 137.054 286.539 145.735 280.138 152.137C273.736 158.538 265.054 162.134 256.002 162.134C246.949 162.134 238.267 158.538 231.866 152.137C225.465 145.735 221.868 137.054 221.868 128.001C221.868 118.948 225.465 110.266 231.866 103.865C238.267 97.4636 246.949 93.8674 256.002 93.8674ZM374.845 187.802H374.709L285.109 195.849C282.054 196.131 278.999 196.267 275.936 196.267H236.068C233.013 196.267 229.958 196.131 226.912 195.858L137.158 187.802C130.389 187.271 123.686 189.45 118.523 193.86C113.36 198.27 110.161 204.551 109.629 211.32C109.098 218.089 111.277 224.793 115.687 229.955C120.098 235.118 126.378 238.317 133.147 238.849L205.57 245.419C207.69 245.611 209.662 246.588 211.099 248.159C212.535 249.73 213.333 251.781 213.335 253.91V273.537C213.335 277.803 212.542 282.036 210.98 286.004L169.918 390.58C168.557 393.655 167.815 396.968 167.734 400.33C167.653 403.691 168.236 407.036 169.447 410.173C170.659 413.309 172.477 416.177 174.797 418.611C177.117 421.045 179.894 422.998 182.969 424.359C186.044 425.72 189.357 426.462 192.719 426.543C196.081 426.623 199.425 426.041 202.562 424.829C205.699 423.617 208.566 421.799 211 419.479C213.434 417.159 215.387 414.382 216.748 411.307L255.882 315.623L295.383 411.563C298.215 417.625 303.308 422.337 309.57 424.69C315.833 427.044 322.768 426.853 328.891 424.157C335.015 421.461 339.839 416.475 342.332 410.267C344.826 404.058 344.789 397.12 342.231 390.938L301.024 285.978C299.468 282.012 298.67 277.789 298.668 273.528V253.902C298.67 251.773 299.468 249.722 300.905 248.151C302.342 246.58 304.314 245.603 306.434 245.411L378.737 238.849C385.507 238.333 391.795 235.148 396.217 229.996C400.64 224.844 402.835 218.146 402.319 211.376C401.803 204.605 398.618 198.317 393.466 193.895C388.314 189.472 381.616 187.286 374.845 187.802ZM377.312 221.867L304.889 228.438C298.519 228.986 292.588 231.91 288.274 236.629C283.96 241.348 281.578 247.517 281.602 253.91V273.537C281.602 279.937 282.796 286.286 285.143 292.25L326.496 397.543C326.974 398.557 327.247 399.655 327.301 400.774C327.355 401.893 327.187 403.012 326.808 404.067C326.43 405.122 325.847 406.091 325.093 406.921C324.34 407.75 323.43 408.423 322.417 408.901C321.403 409.379 320.305 409.653 319.186 409.706C318.067 409.76 316.948 409.593 315.893 409.214C314.838 408.835 313.869 408.252 313.039 407.499C312.21 406.745 311.537 405.836 311.059 404.822L271.643 309.138C270.365 306.041 268.196 303.393 265.412 301.53C262.627 299.667 259.352 298.672 256.002 298.672C252.651 298.672 249.376 299.667 246.592 301.53C243.807 303.393 241.638 306.041 240.36 309.138L201.056 404.566C200.607 405.632 199.946 406.596 199.114 407.399C198.281 408.202 197.294 408.827 196.213 409.237C195.131 409.646 193.977 409.832 192.822 409.782C191.666 409.732 190.533 409.448 189.491 408.946C188.448 408.445 187.519 407.737 186.759 406.865C185.999 405.993 185.424 404.976 185.069 403.875C184.714 402.774 184.586 401.613 184.694 400.461C184.802 399.31 185.143 398.192 185.696 397.176L226.903 292.216C229.233 286.26 230.419 279.928 230.402 273.528V253.902C230.43 247.505 228.05 241.332 223.735 236.61C219.421 231.887 213.487 228.961 207.114 228.413L134.572 221.867C132.309 221.708 130.202 220.656 128.715 218.943C127.227 217.23 126.481 214.996 126.641 212.733C126.8 210.469 127.852 208.362 129.565 206.875C131.279 205.387 133.512 204.641 135.776 204.801L225.376 212.848C228.925 213.163 232.484 213.326 236.051 213.326H275.919C279.485 213.326 283.044 213.163 286.594 212.848L376.151 204.801C377.268 204.712 378.391 204.846 379.455 205.194C380.52 205.542 381.505 206.097 382.354 206.828C383.203 207.558 383.899 208.45 384.401 209.451C384.904 210.452 385.203 211.543 385.282 212.66C385.374 213.79 385.239 214.927 384.887 216.005C384.534 217.082 383.97 218.079 383.228 218.936C382.486 219.793 381.581 220.494 380.565 220.997C379.549 221.5 378.443 221.796 377.312 221.867Z" fill="#13C4A1"/>
</svg>
