<svg width="482" height="414" viewBox="0 0 482 414" fill="none" xmlns="http://www.w3.org/2000/svg">
<path d="M191.54 157.26C159.14 189.66 159.14 242.38 191.54 274.78C207.74 290.98 229.02 299.08 250.3 299.08C271.58 299.08 292.86 290.98 309.06 274.78C341.46 242.38 341.46 189.66 309.06 157.26C276.66 124.86 223.94 124.86 191.54 157.26ZM300.57 266.29C286.71 280.15 268.51 287.08 250.3 287.08C232.1 287.08 213.88 280.15 200.03 266.29C172.31 238.57 172.31 193.46 200.03 165.74C213.89 151.88 232.09 144.95 250.3 144.95C268.5 144.95 286.71 151.88 300.57 165.74C328.3 193.46 328.3 238.57 300.57 266.29ZM446.68 75.94C427.2 75.94 411.36 91.78 411.36 111.26C411.36 116.23 412.4 120.96 414.26 125.26L354.06 164.55C353.21 162.83 352.32 161.12 351.38 159.45L366.4 143.46C367.869 141.909 368.672 139.844 368.639 137.708C368.605 135.572 367.737 133.534 366.22 132.03L334.29 100.1C332.785 98.5854 330.747 97.7188 328.612 97.6852C326.476 97.6516 324.412 98.4535 322.86 99.92L306.88 114.94C298.94 110.49 290.51 107 281.74 104.54L281.08 82.62C281.025 80.4829 280.134 78.4526 278.599 76.9645C277.065 75.4764 275.008 74.6491 272.87 74.66H227.72C223.25 74.66 219.65 78.16 219.51 82.62L218.85 104.54C210.07 107.01 201.63 110.5 193.69 114.96L177.73 99.93C176.179 98.4573 174.114 97.6504 171.975 97.6822C169.837 97.714 167.796 98.5819 166.29 100.1L154.57 111.82L99.5 56.75C104.222 50.6046 106.778 43.0699 106.77 35.32C106.77 15.84 90.93 0 71.45 0C51.97 0 36.14 15.83 36.14 35.31C36.14 54.79 51.98 70.63 71.46 70.63C78.55 70.63 85.16 68.52 90.7 64.91L146.1 120.31L134.38 132.03C132.86 133.533 131.991 135.573 131.959 137.71C131.927 139.848 132.736 141.912 134.21 143.46L149.24 159.42C144.79 167.36 141.29 175.8 138.82 184.58L116.91 185.24C114.771 185.293 112.739 186.183 111.249 187.718C109.759 189.253 108.93 191.311 108.94 193.45V210.02H70.12C67.26 193.39 52.75 180.7 35.32 180.7C15.84 180.7 0 196.54 0 216.02C0 235.5 15.84 251.34 35.32 251.34C52.75 251.34 67.26 238.65 70.12 222.02H108.94V238.6C108.94 243.07 112.44 246.67 116.9 246.81L138.82 247.47C141.29 256.25 144.78 264.69 149.24 272.63L134.21 288.59C132.737 290.139 131.931 292.203 131.962 294.34C131.994 296.476 132.862 298.516 134.38 300.02L166.31 331.95C167.814 333.468 169.854 334.336 171.99 334.367C174.127 334.399 176.191 333.592 177.74 332.12L193.7 317.09C194.63 317.61 195.57 318.12 196.51 318.61L170.24 350.89C164.18 346.01 156.49 343.07 148.12 343.07C128.64 343.07 112.8 358.91 112.8 378.39C112.8 397.87 128.64 413.71 148.12 413.71C167.6 413.71 183.44 397.87 183.44 378.39C183.44 371.67 181.55 365.38 178.28 360.03L207.8 323.76C211.41 325.18 215.1 326.44 218.85 327.5L219.53 349.43C219.586 351.565 220.476 353.593 222.008 355.081C223.541 356.568 225.594 357.397 227.73 357.39H272.89C277.35 357.39 280.96 353.89 281.1 349.43L281.78 327.5C290.535 325.04 298.968 321.549 306.9 317.1L322.88 332.12C324.43 333.591 326.495 334.396 328.632 334.362C330.768 334.329 332.807 333.459 334.31 331.94L346.03 320.22L376.31 350.5C372.792 356.103 370.927 362.584 370.93 369.2C370.93 388.68 386.77 404.52 406.25 404.52C425.73 404.52 441.57 388.68 441.57 369.2C441.57 349.72 425.73 333.88 406.25 333.88C397.97 333.88 390.35 336.75 384.32 341.54L354.51 311.73L366.23 300.01C367.748 298.506 368.616 296.466 368.647 294.33C368.679 292.193 367.872 290.129 366.4 288.58L351.38 272.6C355.82 264.67 359.31 256.25 361.78 247.48L383.71 246.8C385.846 246.743 387.876 245.852 389.363 244.318C390.851 242.783 391.679 240.727 391.67 238.59V193.44C391.67 188.98 388.17 185.37 383.71 185.23L361.78 184.55C360.94 181.56 359.97 178.62 358.9 175.72L420.84 135.3C427.29 142.24 436.49 146.59 446.69 146.59C466.17 146.59 482.01 130.75 482.01 111.27C482.01 91.79 466.16 75.94 446.68 75.94ZM48.14 35.31C48.14 22.45 58.6 11.99 71.46 11.99C84.32 11.99 94.78 22.45 94.78 35.31C94.78 48.17 84.32 58.63 71.46 58.63C58.6 58.63 48.14 48.17 48.14 35.31ZM35.32 239.34C22.46 239.34 12 228.88 12 216.02C12 203.16 22.46 192.7 35.32 192.7C48.18 192.7 58.64 203.16 58.64 216.02C58.64 228.88 48.18 239.34 35.32 239.34ZM148.11 401.71C135.25 401.71 124.79 391.25 124.79 378.39C124.79 365.53 135.25 355.07 148.11 355.07C153.61 355.07 158.67 356.99 162.66 360.19L161.96 361.05L167.63 365.67C170.02 369.33 171.42 373.7 171.42 378.39C171.43 391.25 160.97 401.71 148.11 401.71ZM406.24 345.88C419.1 345.88 429.56 356.34 429.56 369.2C429.56 382.06 419.1 392.52 406.24 392.52C393.38 392.52 382.92 382.06 382.92 369.2C382.92 356.34 393.38 345.88 406.24 345.88ZM379.66 197.11V234.92L358.59 235.57C354.89 235.68 351.8 238.17 350.88 241.75C348.444 251.308 344.652 260.467 339.62 268.95C337.73 272.13 338.17 276.07 340.7 278.77L355.13 294.13L328.4 320.86L313.04 306.43C310.35 303.9 306.4 303.47 303.22 305.35C294.737 310.382 285.578 314.174 276.02 316.61C272.44 317.52 269.95 320.62 269.84 324.31L269.19 345.38H231.38L230.73 324.31C230.61 320.61 228.13 317.52 224.55 316.61C214.97 314.17 205.81 310.38 197.33 305.34C194.15 303.45 190.2 303.88 187.51 306.42L172.19 320.85L145.46 294.12L159.9 278.79C162.43 276.1 162.87 272.15 160.98 268.97C155.937 260.472 152.138 251.296 149.7 241.72C149.27 239.987 148.282 238.444 146.889 237.327C145.496 236.21 143.775 235.583 141.99 235.54L120.93 234.91V197.11L141.99 196.48C145.69 196.37 148.79 193.88 149.7 190.3C152.14 180.71 155.94 171.54 160.98 163.05C162.87 159.87 162.43 155.92 159.9 153.23L145.46 137.9L172.19 111.17L187.52 125.61C190.21 128.15 194.16 128.58 197.34 126.69C205.84 121.64 215 117.85 224.59 115.41C228.17 114.49 230.65 111.4 230.77 107.7L231.4 86.64H269.2L269.83 107.7C269.94 111.4 272.42 114.5 276.01 115.41C285.575 117.844 294.741 121.636 303.23 126.67C306.41 128.56 310.35 128.12 313.05 125.59L328.41 111.16L355.14 137.89L340.7 153.25C339.472 154.542 338.701 156.201 338.506 157.973C338.311 159.745 338.702 161.532 339.62 163.06C344.652 171.543 348.444 180.702 350.88 190.26C351.79 193.84 354.89 196.33 358.58 196.44L379.66 197.11ZM446.68 134.58C433.82 134.58 423.36 124.12 423.36 111.26C423.36 98.4 433.82 87.94 446.68 87.94C459.54 87.94 470 98.4 470 111.26C470 124.12 459.54 134.58 446.68 134.58ZM215.88 188.31C205.19 188.31 196.5 197 196.5 207.69V237.73C196.5 241.04 199.19 243.73 202.5 243.73C205.81 243.73 208.5 241.04 208.5 237.73V228.71H223.26V237.73C223.26 241.04 225.95 243.73 229.26 243.73C232.57 243.73 235.26 241.04 235.26 237.73V207.69C235.26 197 226.56 188.31 215.88 188.31ZM208.49 216.71V207.69C208.49 203.62 211.8 200.31 215.87 200.31C219.94 200.31 223.25 203.62 223.25 207.69V216.71H208.49ZM268.57 188.31H252.27C248.96 188.31 246.27 191 246.27 194.31V237.73C246.27 241.04 248.96 243.73 252.27 243.73C255.58 243.73 258.27 241.04 258.27 237.73V222.02H268.57C277.86 222.02 285.42 214.46 285.42 205.17C285.42 195.88 277.86 188.31 268.57 188.31ZM268.57 210.02H258.27V200.31H268.57C271.25 200.31 273.42 202.49 273.42 205.16C273.42 207.83 271.25 210.02 268.57 210.02ZM298.11 188.31C301.42 188.31 304.11 191 304.11 194.31V237.73C304.11 241.04 301.42 243.73 298.11 243.73C294.8 243.73 292.11 241.04 292.11 237.73V194.31C292.11 190.99 294.79 188.31 298.11 188.31Z" fill="white"/>
</svg>
