<svg xmlns="http://www.w3.org/2000/svg" version="1.1" xmlns:xlink="http://www.w3.org/1999/xlink" width="512" height="512" x="0" y="0" viewBox="0 0 512 512" style="enable-background:new 0 0 512 512" xml:space="preserve"><g><g fill-rule="evenodd" clip-rule="evenodd"><path fill="#b4d2d7" d="M251.921 448.801 90.987 355.885a7.964 7.964 0 0 1-3.998-6.906h-.033V163.021a8 8 0 0 1 4.674-7.277l160.402-92.608a7.963 7.963 0 0 1 8.047.063l160.935 92.915a7.963 7.963 0 0 1 3.998 6.906h.033v185.958a8 8 0 0 1-4.674 7.277l-160.402 92.608a7.96 7.96 0 0 1-8.048-.062zM248 428.141V260.579l-145.045-83.742V344.4zm-137.113-265.12L256 246.802l145.113-83.781L256 79.24zm298.158 13.816L264 260.579v167.562L409.045 344.4z" opacity="1" data-original="#b4d2d7"></path><circle cx="256" cy="256" r="91.676" fill="#ffda2d" transform="rotate(-45 255.972 256.066)" opacity="1" data-original="#ffda2d"></circle><path fill="#eff4f7" d="M195.144 243.406a7.998 7.998 0 0 1-11.312 0 7.998 7.998 0 0 1 0-11.312C203.761 212.164 229.881 202.2 256 202.2s52.24 9.965 72.169 29.894a7.998 7.998 0 0 1 0 11.312 7.998 7.998 0 0 1-11.312 0c-16.804-16.804-38.83-25.206-60.856-25.206-22.026-.001-44.053 8.402-60.857 25.206zm39.678 55.222a21.111 21.111 0 0 1 6.204-14.975c3.832-3.832 9.127-6.204 14.974-6.204s11.142 2.371 14.975 6.204c3.832 3.833 6.204 9.127 6.204 14.975s-2.371 11.142-6.204 14.975A21.114 21.114 0 0 1 256 319.807a21.112 21.112 0 0 1-14.974-6.203 21.117 21.117 0 0 1-6.204-14.976zm17.516-3.662a5.163 5.163 0 0 0-1.516 3.662c0 1.431.58 2.726 1.516 3.662a5.159 5.159 0 0 0 3.662 1.516c1.43 0 2.725-.58 3.662-1.516.937-.937 1.516-2.232 1.516-3.662s-.58-2.725-1.516-3.662A5.167 5.167 0 0 0 256 293.45a5.158 5.158 0 0 0-3.662 1.516zm-21.721-16.087c7.008-7.008 16.195-10.513 25.383-10.513 9.187 0 18.374 3.504 25.383 10.513a8 8 0 0 0 11.312-11.313c-10.134-10.133-23.415-15.2-36.695-15.2-13.281 0-26.562 5.067-36.695 15.2a7.998 7.998 0 0 0 0 11.312 7.997 7.997 0 0 0 11.312.001zm-17.736-17.736c11.906-11.906 27.513-17.86 43.119-17.86 15.607 0 31.213 5.954 43.12 17.86a8 8 0 0 0 11.312-11.313C295.401 234.799 275.7 227.283 256 227.283s-39.401 7.516-54.432 22.547a8 8 0 1 0 11.313 11.313z" opacity="1" data-original="#eff4f7"></path><path fill="#64b5f6" d="m94.956 224.063-52.864-30.521V132.5l52.864-30.521L147.82 132.5v61.042z" opacity="1" data-original="#64b5f6"></path><path fill="#42a5f5" d="M94.956 101.979 42.092 132.5l52.864 30.521L147.82 132.5z" opacity="1" data-original="#42a5f5"></path><path fill="#2d90f1" d="m147.82 132.5-52.864 30.521v61.042l52.864-30.521z" opacity="1" data-original="#2d90f1"></path><path fill="#64b5f6" d="m256 131.084-52.864-30.521V39.521L256 9l52.864 30.521v61.042z" opacity="1" data-original="#64b5f6"></path><path fill="#42a5f5" d="m256 9-52.864 30.521L256 70.042l52.864-30.521z" opacity="1" data-original="#42a5f5"></path><path fill="#2d90f1" d="M308.864 39.521 256 70.042v61.042l52.864-30.521z" opacity="1" data-original="#2d90f1"></path><path fill="#64b5f6" d="m417.044 224.063-52.864-30.521V132.5l52.864-30.521 52.864 30.521v61.042z" opacity="1" data-original="#64b5f6"></path><path fill="#42a5f5" d="M417.044 101.979 364.18 132.5l52.864 30.521 52.864-30.521z" opacity="1" data-original="#42a5f5"></path><path fill="#2d90f1" d="m469.908 132.5-52.864 30.521v61.042l52.864-30.521z" opacity="1" data-original="#2d90f1"></path><path fill="#64b5f6" d="M417.044 410.021 364.18 379.5v-61.043l52.864-30.52 52.864 30.52V379.5z" opacity="1" data-original="#64b5f6"></path><path fill="#42a5f5" d="m417.044 287.937-52.864 30.52 52.864 30.522 52.864-30.522z" opacity="1" data-original="#42a5f5"></path><path fill="#2d90f1" d="m469.908 318.457-52.864 30.522v61.042l52.864-30.521z" opacity="1" data-original="#2d90f1"></path><path fill="#64b5f6" d="m256 503-52.864-30.521v-61.042L256 380.916l52.864 30.521v61.042z" opacity="1" data-original="#64b5f6"></path><path fill="#42a5f5" d="m256 380.916-52.864 30.521L256 441.958l52.864-30.521z" opacity="1" data-original="#42a5f5"></path><path fill="#2d90f1" d="M308.864 411.437 256 441.958V503l52.864-30.521z" opacity="1" data-original="#2d90f1"></path><path fill="#64b5f6" d="M94.956 410.021 42.092 379.5v-61.043l52.864-30.52 52.864 30.52V379.5z" opacity="1" data-original="#64b5f6"></path><path fill="#42a5f5" d="m94.956 287.937-52.864 30.52 52.864 30.522 52.864-30.522z" opacity="1" data-original="#42a5f5"></path><path fill="#2d90f1" d="m147.82 318.457-52.864 30.522v61.042L147.82 379.5z" opacity="1" data-original="#2d90f1"></path></g></g></svg>