<svg xmlns="http://www.w3.org/2000/svg" version="1.1" xmlns:xlink="http://www.w3.org/1999/xlink" width="512" height="512" x="0" y="0" viewBox="0 0 60 60" style="enable-background:new 0 0 512 512" xml:space="preserve"><g><path fill="#30e5e5" d="M30 59a11.033 11.033 0 0 1-5.426-1.429l-16-9.052A10.992 10.992 0 0 1 3 38.972V21.029a10.989 10.989 0 0 1 5.574-9.547l16-9.053a11.02 11.02 0 0 1 10.854 0l16 9.053A10.989 10.989 0 0 1 57 21.029v17.943a11 11 0 0 1-5.573 9.547l-16 9.052A11.033 11.033 0 0 1 30 59z" opacity="1" data-original="#30e5e5"></path><path fill="#1584e8" d="M52 21.029v17.942a5.971 5.971 0 0 1-3.036 5.2l-16 9.053a6.022 6.022 0 0 1-5.928 0l-16-9.053A5.971 5.971 0 0 1 8 38.971V21.029a5.968 5.968 0 0 1 3.036-5.195l16-9.054a6.022 6.022 0 0 1 5.928 0l16 9.054A5.968 5.968 0 0 1 52 21.029z" opacity="1" data-original="#1584e8"></path><g fill="#fff"><path d="M22 21a1 1 0 0 0-1 1v11.764l-6.1-12.211A1 1 0 0 0 13 22v16a1 1 0 0 0 2 0V26.236l6.105 12.211A1 1 0 0 0 22 39a1.067 1.067 0 0 0 .23-.026A1 1 0 0 0 23 38V22a1 1 0 0 0-1-1zM35 21h-8a1 1 0 0 0-1 1v16a1 1 0 0 0 2 0v-7h4a1 1 0 0 0 0-2h-4v-6h7a1 1 0 0 0 0-2zM46 21h-8a1 1 0 0 0 0 2h3v15a1 1 0 0 0 2 0V23h3a1 1 0 0 0 0-2z" fill="#ffffff" opacity="1" data-original="#ffffff"></path></g></g></svg>