<svg width="512" height="475" viewBox="0 0 512 475" fill="none" xmlns="http://www.w3.org/2000/svg">
<path d="M441.021 89.431C440.084 89.7356 439.217 90.2217 438.468 90.8615C437.719 91.5014 437.104 92.2825 436.657 93.1602C436.21 94.0379 435.94 94.995 435.863 95.9769C435.786 96.9589 435.903 97.9464 436.208 98.883C442.341 117.743 445.451 137.466 445.451 157.504C445.451 177.542 442.341 197.264 436.208 216.125C434.633 220.97 438.252 225.946 443.342 225.946C444.925 225.945 446.468 225.443 447.749 224.512C449.03 223.581 449.983 222.269 450.473 220.763C457.094 200.403 460.451 179.119 460.451 157.504C460.451 135.889 457.094 114.605 450.473 94.245C450.169 93.3082 449.683 92.4406 449.043 91.6917C448.403 90.9428 447.622 90.3273 446.744 89.8802C445.866 89.4332 444.909 89.1635 443.927 89.0864C442.945 89.0093 441.958 89.1264 441.021 89.431ZM70.979 89.431C69.0873 88.8163 67.029 88.9781 65.2565 89.8806C63.4841 90.7831 62.1426 92.3526 61.527 94.244C54.906 114.604 51.549 135.888 51.549 157.503C51.549 179.118 54.906 200.402 61.527 220.762C62.1422 222.654 63.4836 224.223 65.2562 225.126C67.0288 226.029 69.0873 226.19 70.979 225.575C72.8707 224.96 74.4405 223.618 75.3431 221.846C76.2457 220.073 76.4072 218.015 75.792 216.123C69.659 197.263 66.549 177.54 66.549 157.502C66.549 137.464 69.659 117.742 75.792 98.881C76.4066 96.9896 76.2448 94.9315 75.3423 93.1594C74.4397 91.3873 72.8702 90.0462 70.979 89.431ZM495.504 66.917C495.155 65.9958 494.629 65.1522 493.954 64.4346C493.279 63.717 492.47 63.1394 491.572 62.7347C490.674 62.3301 489.705 62.1064 488.72 62.0764C487.736 62.0465 486.755 62.2108 485.834 62.56C484.913 62.9087 484.069 63.4354 483.352 64.1101C482.634 64.7849 482.057 65.5943 481.652 66.4923C481.248 67.3903 481.024 68.3593 480.994 69.3438C480.964 70.3282 481.128 71.309 481.477 72.23C491.777 99.431 497 128.121 497 157.503C497 186.885 491.777 215.576 481.477 242.777C479.608 247.711 483.285 252.935 488.489 252.935C490.012 252.935 491.499 252.471 492.752 251.605C494.005 250.74 494.966 249.513 495.505 248.089C506.45 219.185 512 188.707 512 157.503C512 126.299 506.45 95.822 495.504 66.917ZM26.166 62.56C25.245 62.211 24.2642 62.0469 23.2798 62.077C22.2954 62.1072 21.3265 62.3309 20.4285 62.7355C19.5305 63.1401 18.7211 63.7176 18.0463 64.4351C17.3716 65.1526 16.8448 65.9959 16.496 66.917C5.55 95.822 0 126.299 0 157.503C0 188.707 5.55 219.185 16.496 248.089C17.2006 249.949 18.6152 251.453 20.4287 252.27C22.2421 253.087 24.3059 253.15 26.166 252.446C27.0872 252.097 27.9306 251.571 28.6482 250.896C29.3657 250.221 29.9433 249.412 30.3479 248.514C30.7525 247.616 30.9762 246.647 31.0063 245.662C31.0363 244.678 30.8721 243.697 30.523 242.776C20.223 215.576 15 186.886 15 157.503C15 128.12 20.223 99.43 30.523 72.23C30.8721 71.309 31.0363 70.3282 31.0063 69.3438C30.9762 68.3593 30.7525 67.3903 30.3479 66.4923C29.9433 65.5943 29.3657 64.7849 28.6482 64.1101C27.9306 63.4354 27.0872 62.9087 26.166 62.56ZM413.5 157.5C413.5 70.654 342.846 0 256 0C169.154 0 98.5 70.654 98.5 157.5C98.5 203.234 118.1 244.471 149.334 273.271L126.202 399.979C124.459 409.525 134.25 417.063 143.009 412.978L182.3 394.729V462.286C182.3 472.131 193.145 478.059 201.424 472.887L256 438.793L310.577 472.886C318.888 478.078 329.701 472.084 329.701 462.285V394.729L368.98 412.973C377.755 417.067 387.542 409.525 385.799 399.98L378.949 362.45C378.772 361.481 378.406 360.556 377.872 359.729C377.338 358.901 376.646 358.187 375.836 357.627C375.026 357.067 374.113 356.672 373.15 356.465C372.187 356.258 371.193 356.242 370.224 356.419C368.267 356.776 366.533 357.896 365.402 359.532C364.27 361.169 363.836 363.187 364.193 365.144L369.99 396.904L329.7 378.19V296.656C336.57 293.003 343.161 288.847 349.418 284.222L357.872 330.514C358.23 332.47 359.35 334.204 360.986 335.335C362.622 336.466 364.64 336.901 366.597 336.544C367.566 336.367 368.49 336.001 369.318 335.467C370.145 334.932 370.859 334.24 371.419 333.43C371.979 332.62 372.374 331.707 372.581 330.744C372.788 329.781 372.804 328.787 372.627 327.818L362.665 273.27C393.9 244.471 413.5 203.234 413.5 157.5ZM113.5 157.5C113.5 78.925 177.425 15 256 15C334.575 15 398.5 78.925 398.5 157.5C398.5 236.075 334.575 300 256 300C177.425 300 113.5 236.075 113.5 157.5ZM142.012 396.902L162.583 284.222C168.84 288.847 175.43 293.002 182.3 296.655V378.189L142.012 396.902ZM314.7 457.777L262.646 425.259C258.609 422.717 253.392 422.717 249.376 425.245L197.3 457.777V303.646C215.45 310.962 235.261 315 256 315C276.739 315 296.55 310.962 314.7 303.646V457.777Z" fill="url(#paint0_linear_1152_1021)"/>
<path d="M161.453 214.253C162.33 213.804 163.109 213.187 163.747 212.437C164.385 211.686 164.869 210.818 165.172 209.88C165.474 208.943 165.589 207.955 165.51 206.974C165.43 205.992 165.158 205.036 164.709 204.159C157.271 189.638 153.5 173.939 153.5 157.5C153.5 100.981 199.481 55 256 55C312.519 55 358.5 100.981 358.5 157.5C358.5 214.019 312.519 260 256 260C228.622 260 202.882 249.338 183.521 229.979C182.114 228.573 180.207 227.783 178.218 227.783C176.229 227.783 174.321 228.573 172.915 229.979C171.509 231.386 170.719 233.293 170.719 235.282C170.719 237.271 171.509 239.179 172.915 240.585C195.108 262.778 224.615 275 256 275C320.79 275 373.5 222.29 373.5 157.5C373.5 92.71 320.79 40 256 40C191.21 40 138.5 92.71 138.5 157.5C138.5 176.34 142.826 194.338 151.358 210.997C151.807 211.874 152.424 212.653 153.175 213.291C153.925 213.929 154.794 214.414 155.731 214.716C156.669 215.018 157.656 215.133 158.638 215.054C159.62 214.974 160.576 214.702 161.453 214.253Z" fill="url(#paint1_linear_1152_1021)"/>
<path d="M233.361 111.291C227.09 111.291 221.587 114.839 218.997 120.551L185.399 194.67C184.522 196.594 184.143 198.708 184.298 200.817C184.453 202.926 185.137 204.961 186.286 206.736C187.428 208.516 189.001 209.98 190.858 210.992C192.715 212.005 194.797 212.533 196.912 212.528H315.09C319.647 212.528 323.866 210.062 326.102 206.091C327.2 204.139 327.759 201.93 327.723 199.69C327.687 197.45 327.057 195.261 325.897 193.344L303.337 156.064C299.059 148.995 291.573 144.774 283.31 144.774C275.243 144.774 267.924 148.805 263.601 155.575L247.725 120.55C245.135 114.839 239.631 111.291 233.361 111.291ZM200.573 197.528L232.659 126.744C232.731 126.586 232.864 126.291 233.361 126.291C233.858 126.291 233.991 126.585 234.063 126.743L266.148 197.528H200.573ZM276.117 163.829C278.331 160.169 281.885 159.774 283.31 159.774C284.735 159.774 288.289 160.169 290.503 163.829L310.895 197.527H282.617L271.101 172.12L276.117 163.829ZM307.321 105.916C307.321 92.6773 296.55 81.9062 283.311 81.9062C270.072 81.9062 259.301 92.6773 259.301 105.916C259.301 119.155 270.072 129.926 283.311 129.926C296.55 129.926 307.321 119.156 307.321 105.916ZM274.301 105.916C274.301 100.948 278.343 96.9062 283.311 96.9062C288.279 96.9062 292.321 100.948 292.321 105.916C292.321 110.884 288.279 114.926 283.311 114.926C278.343 114.927 274.301 110.885 274.301 105.916Z" fill="url(#paint2_linear_1152_1021)"/>
<defs>
<linearGradient id="paint0_linear_1152_1021" x1="376.491" y1="457.633" x2="116.289" y2="0.107693" gradientUnits="userSpaceOnUse">
<stop offset="0.0001" stop-color="#BE42B1"/>
<stop offset="1" stop-color="#3B4BAA"/>
</linearGradient>
<linearGradient id="paint1_linear_1152_1021" x1="311.304" y1="266.504" x2="177.742" y2="48.7207" gradientUnits="userSpaceOnUse">
<stop offset="0.0001" stop-color="#BE42B1"/>
<stop offset="1" stop-color="#3B4BAA"/>
</linearGradient>
<linearGradient id="paint2_linear_1152_1021" x1="289.756" y1="207.806" x2="218.847" y2="80.8196" gradientUnits="userSpaceOnUse">
<stop offset="0.0001" stop-color="#BE42B1"/>
<stop offset="1" stop-color="#3B4BAA"/>
</linearGradient>
</defs>
</svg>
