<svg width="482" height="470" viewBox="0 0 482 470" fill="none" xmlns="http://www.w3.org/2000/svg">
<path d="M195.17 129.66H290.84C294.15 129.66 296.84 126.97 296.84 123.66V94.89C296.84 80.98 289 68.69 277.73 63.19C282.39 56.72 285.11 48.91 285.11 40.52C285.11 18.18 265.81 0 242.08 0C218.35 0 199.05 18.18 199.05 40.52C199.05 49.21 201.98 57.26 206.94 63.87C196.35 69.68 189.17 81.59 189.17 94.89V123.66C189.17 126.98 191.86 129.66 195.17 129.66ZM242.08 12.01C259.19 12.01 273.11 24.8 273.11 40.53C273.11 56.26 259.19 69.05 242.08 69.05C224.97 69.05 211.05 56.26 211.05 40.53C211.05 24.8 224.97 12.01 242.08 12.01ZM201.17 94.9C201.17 84.56 207.51 75.55 216.25 72.92C223.45 78.02 232.39 81.05 242.08 81.05C251.99 81.05 261.11 77.87 268.39 72.56C277.77 74.61 284.84 83.98 284.84 94.9V117.67H201.17V94.9ZM462.89 323.24C467.55 316.77 470.27 308.96 470.27 300.57C470.27 278.23 450.97 260.05 427.24 260.05C403.51 260.05 384.21 278.23 384.21 300.57C384.21 309.26 387.14 317.31 392.1 323.92C381.51 329.73 374.33 341.64 374.33 354.94V383.71C374.33 387.02 377.02 389.71 380.33 389.71H476C479.31 389.71 482 387.02 482 383.71V354.94C482 341.03 474.16 328.74 462.89 323.24ZM427.24 272.05C444.35 272.05 458.27 284.84 458.27 300.57C458.27 316.3 444.35 329.09 427.24 329.09C410.13 329.09 396.21 316.3 396.21 300.57C396.21 284.84 410.13 272.05 427.24 272.05ZM470 377.7H386.33V354.93C386.33 344.59 392.67 335.58 401.41 332.95C408.61 338.05 417.55 341.08 427.24 341.08C437.15 341.08 446.27 337.9 453.55 332.59C462.93 334.64 469.99 344.01 469.99 354.93V377.7H470ZM88.56 324.1C93.22 317.63 95.94 309.82 95.94 301.43C95.94 279.09 76.64 260.91 52.91 260.91C29.18 260.91 9.88 279.09 9.88 301.43C9.88 310.12 12.81 318.17 17.77 324.78C7.18 330.59 0 342.5 0 355.8V384.57C0 387.88 2.69 390.57 6 390.57H101.67C104.98 390.57 107.67 387.88 107.67 384.57V355.8C107.67 341.89 99.83 329.6 88.56 324.1ZM52.91 272.92C70.02 272.92 83.94 285.71 83.94 301.44C83.94 317.17 70.02 329.96 52.91 329.96C35.8 329.96 21.88 317.17 21.88 301.44C21.88 285.71 35.8 272.92 52.91 272.92ZM95.67 378.57H12V355.8C12 345.46 18.34 336.45 27.08 333.82C34.28 338.92 43.22 341.95 52.91 341.95C62.82 341.95 71.94 338.77 79.22 333.46C88.6 335.51 95.66 344.88 95.66 355.8V378.57H95.67ZM386 257.26C386.76 253.53 385.95 249.75 383.71 246.6L339.33 184.03C334.92 177.81 326.06 176 319.58 180L300.87 191.53C297.59 193.55 295.37 196.71 294.61 200.43C294.07 203.09 294.34 205.77 295.34 208.23C295.28 208.25 295.21 208.27 295.15 208.29C292.51 209.12 289.78 209.98 287.6 210.62C286.43 210.96 285.47 210.98 284.29 210.7L265.27 206.11C249.77 202.37 231.19 210.76 219.8 218.05C212.12 215.93 204.43 215.08 196.4 215.48L182.92 211.11C183.88 208.46 184 205.6 183.24 202.84C182.23 199.17 179.8 196.16 176.39 194.36L156.88 184.05C150.12 180.48 141.38 182.89 137.41 189.43L97.79 254.56C95.78 257.86 95.23 261.7 96.25 265.37C97.26 269.04 99.69 272.05 103.1 273.85L122.61 284.16C124.73 285.28 127.05 285.81 129.35 285.81C134.38 285.81 139.36 283.27 142.09 278.78L142.21 278.59C145.04 282.3 148.38 286.03 152.22 289.76L149.26 294.92C146.9 299.05 146.34 303.79 147.7 308.27C149.06 312.75 152.14 316.38 156.39 318.49C158.92 319.75 161.64 320.34 164.35 320.34C165.26 320.34 166.16 320.27 167.05 320.13C168.21 324.78 171.38 328.94 176.08 331.28C178.66 332.56 181.44 333.17 184.19 333.17C186.2 333.17 188.2 332.84 190.08 332.22C191.7 335.53 194.35 338.21 197.76 339.91C200.28 341.16 203 341.76 205.7 341.76C208.97 341.76 212.22 340.88 215.06 339.26C216.99 342.21 219.76 344.1 222.08 345.25C224.66 346.53 227.44 347.14 230.19 347.14C235.53 347.14 240.75 344.84 244.17 340.74C246.16 341.97 249.08 343.81 253.38 346.61L253.89 346.94C258.12 349.69 262.71 350.88 267.09 350.88C274.38 350.88 281.06 347.58 284.43 342.63C285.65 340.85 286.45 338.76 286.68 336.56C293.46 335.86 299.35 332.04 302.49 326.93C304.09 324.33 304.9 321.6 304.97 318.95C311.78 318.16 317.47 314.38 320.25 309.47C321.61 307.08 322.25 304.58 322.23 302.13C326.74 301.15 330.7 298.51 332.95 295.1C334.66 292.49 335.65 288.96 334.84 285.27C339.13 283.66 342.96 281 345.62 277.63C347.984 279.056 350.69 279.813 353.45 279.82C356.08 279.82 358.72 279.13 361.05 277.7L379.76 266.17C383.02 264.14 385.24 260.98 386 257.26ZM128.21 273.55L108.7 263.24C108.12 262.93 107.89 262.49 107.81 262.18C107.72 261.86 107.69 261.36 108.04 260.79L147.66 195.66C148.15 194.85 149.14 194.38 150.1 194.38C150.51 194.38 150.92 194.47 151.28 194.66L170.79 204.97C171.37 205.28 171.6 205.72 171.68 206.03C171.77 206.35 171.8 206.85 171.45 207.42L131.83 272.55C131.12 273.7 129.4 274.18 128.21 273.55ZM161.72 307.75C160.46 307.12 159.55 306.07 159.17 304.79C158.78 303.5 158.95 302.11 159.66 300.88L164.93 291.68C164.93 291.67 164.94 291.67 164.94 291.66L174.78 274.48C175.91 272.5 178.13 271.35 180.35 271.35C181.27 271.35 182.18 271.55 183.02 271.97C184.28 272.6 185.19 273.65 185.57 274.93C185.96 276.22 185.79 277.6 185.08 278.84L169.96 305.24C168.37 308.03 164.59 309.18 161.72 307.75ZM181.41 320.54C178.99 319.34 177.91 316.75 178.88 314.53L179.01 314.23C179.93 312.11 180.2 311.54 180.27 311.38C180.22 311.48 180.18 311.55 180.15 311.6L180.14 311.59C180.22 311.46 180.31 311.33 180.38 311.2L195.5 284.81C195.55 284.72 195.59 284.62 195.65 284.52L195.66 284.53C195.95 284.07 197.97 281.03 198.24 280.65C199.86 278.39 203.33 277.63 205.99 278.94C207.33 279.61 208.29 280.69 208.68 282C208.93 282.81 209.06 284.06 208.29 285.4L190.61 316.34C190.21 317.04 189.88 317.77 189.58 318.5L189.42 318.41C187.95 320.99 184.28 321.96 181.41 320.54ZM203.1 329.16C201.84 328.54 200.93 327.49 200.54 326.2C200.15 324.91 200.32 323.52 201.02 322.29L218.7 291.35L219.42 290.09C220.55 288.11 222.77 286.95 225 286.95C225.92 286.95 226.83 287.15 227.67 287.56C228.93 288.19 229.84 289.24 230.23 290.52C230.62 291.81 230.45 293.2 229.75 294.43L225.35 302.14L211.35 326.64C209.75 329.43 205.97 330.59 203.1 329.16ZM227.42 334.5C225.38 333.49 222.85 332.22 226.57 324.19L235.76 308.1C236.74 306.38 241.71 304.7 244.48 306.07C245.82 306.74 246.78 307.82 247.17 309.13C247.42 309.94 247.55 311.19 246.78 312.54L235.44 332.39C233.96 334.95 230.29 335.92 227.42 334.5ZM322.91 288.51C321.89 290.06 318.55 291.41 315.84 289.9C310.36 286.86 304.76 283.86 299.34 280.96C296.61 279.5 293.89 278.04 291.17 276.57C288.25 275 284.61 276.08 283.04 279C282.664 279.693 282.429 280.453 282.348 281.238C282.267 282.022 282.341 282.814 282.567 283.569C282.793 284.325 283.166 285.028 283.664 285.639C284.162 286.25 284.776 286.757 285.47 287.13C288.2 288.61 290.94 290.07 293.68 291.54C298.42 294.08 303.3 296.69 308.08 299.32C310.97 301.47 310.15 302.92 309.8 303.55C308.34 306.14 303.35 308.42 297.69 306.16L277.92 294.1C275.09 292.37 271.4 293.27 269.67 296.1C267.94 298.93 268.84 302.62 271.67 304.35L291.62 316.52C292.77 317.38 293.58 318.5 292.26 320.64C290.46 323.57 285.34 326.35 279.55 323.45L267.07 315.53C264.27 313.75 260.56 314.58 258.79 317.38C257.02 320.18 257.84 323.88 260.64 325.66L273.2 333.63C275.09 335.02 274.73 335.54 274.52 335.85C272.83 338.33 266.19 340.6 260.42 336.86L259.92 336.54C255.87 333.91 252.74 331.92 250.35 330.45L257.19 318.48C259.45 314.53 259.96 309.97 258.64 305.63C257.29 301.2 254.07 297.44 249.8 295.32C247.52 294.19 244.95 293.64 242.34 293.58C242.56 291.4 242.35 289.19 241.7 287.04C240.34 282.57 237.25 278.94 233 276.83C228.59 274.64 223.58 274.48 219.11 275.97C217.422 272.602 214.684 269.875 211.31 268.2C206.23 265.68 200.39 265.73 195.52 267.94C193.88 265.09 191.43 262.77 188.37 261.24C179.86 257 169.09 260.28 164.37 268.53L158.38 278.98C154.57 275.06 151.43 271.19 148.98 267.43L176.78 221.74L193.77 227.25C194.49 227.48 195.25 227.58 196.01 227.53C199.97 227.28 203.83 227.38 207.65 227.84C205.36 230.26 203.14 233.01 201.02 236.09C197.66 240.96 197.45 246.89 200.46 251.96C203.32 256.78 208.46 259.64 214.23 259.64H214.4C226.02 259.53 231.7 253.72 237.2 248.09C237.49 247.79 237.79 247.49 238.09 247.18C242.29 248.12 247.45 247.96 252.93 244.79L289.06 266.67L321.53 285.93C323.52 287.56 323.07 288.27 322.91 288.51ZM336.46 269.85C334.78 272.24 330.76 274.63 326.52 274.96L295.21 256.39L255.82 232.53C254.76 231.89 253.529 231.593 252.294 231.679C251.059 231.765 249.881 232.23 248.92 233.01C245.44 235.84 242.41 236.39 238.77 234.85C237.694 234.394 236.508 234.263 235.359 234.473C234.209 234.682 233.146 235.224 232.3 236.03C230.96 237.3 229.77 238.52 228.62 239.7C223.66 244.78 220.92 247.57 214.28 247.64H214.22C213.12 247.64 211.65 247.32 210.77 245.84C210.17 244.82 210.2 243.89 210.88 242.9C214.14 238.18 217.57 234.44 221.08 231.81C221.116 231.786 221.149 231.76 221.18 231.73C232.48 222.87 250.78 214.96 262.45 217.78L281.47 222.37C284.68 223.15 287.79 223.07 290.96 222.15C293.27 221.47 296.07 220.59 298.77 219.74C299.94 219.37 301.11 219 302.26 218.64L337.19 267.89C337.23 268.43 336.99 269.08 336.46 269.85ZM374.24 254.87C374.18 255.18 373.99 255.61 373.45 255.95L354.74 267.48C353.6 268.18 351.85 267.82 351.07 266.72L306.69 204.16C306.31 203.63 306.31 203.15 306.37 202.83C306.43 202.52 306.62 202.09 307.16 201.75L325.87 190.22C326.27 189.97 326.74 189.86 327.22 189.86C328.11 189.86 329.03 190.26 329.54 190.98L373.92 253.55C374.3 254.08 374.3 254.56 374.24 254.87ZM333.12 100.98L342.87 108.36C372.32 130.63 392.92 159.82 402.78 193.11L380.31 194.97C377.89 195.17 375.83 196.81 375.09 199.12C374.35 201.43 375.07 203.96 376.93 205.53L423.98 245.4C425.194 246.427 426.765 246.93 428.35 246.8C429.94 246.67 431.4 245.91 432.43 244.7L472.3 197.64C473.067 196.735 473.549 195.623 473.684 194.445C473.819 193.267 473.601 192.075 473.058 191.02C472.515 189.965 471.672 189.096 470.634 188.521C469.597 187.946 468.412 187.691 467.23 187.79L439.74 190.06C428.58 146.18 402.77 107.96 364.86 79.29L355.11 71.91C352.47 69.91 348.71 70.43 346.71 73.08L331.95 92.59C329.95 95.22 330.48 98.98 333.12 100.98ZM352.66 85.09L357.63 88.85C394.71 116.89 419.48 154.56 429.27 197.78C429.589 199.191 430.408 200.438 431.575 201.293C432.742 202.148 434.179 202.551 435.62 202.43L453.8 200.93L427.18 232.35L395.74 205.73L410.96 204.47C411.826 204.399 412.666 204.141 413.423 203.713C414.179 203.285 414.833 202.698 415.34 201.992C415.847 201.286 416.195 200.479 416.359 199.626C416.523 198.772 416.499 197.893 416.29 197.05C406.66 158.23 383.78 124.25 350.12 98.79L345.15 95.03L352.66 85.09ZM323.99 398.53C323.389 397.057 322.228 395.882 320.762 395.264C319.296 394.645 317.645 394.633 316.17 395.23L304.84 399.84C270.64 413.75 235.02 416.52 201.37 407.97L211.27 387.71C212.33 385.53 211.98 382.92 210.37 381.1C209.584 380.21 208.551 379.574 207.403 379.271C206.255 378.968 205.043 379.013 203.92 379.4L145.6 399.44C144.1 399.96 142.86 401.05 142.16 402.48C141.46 403.91 141.36 405.56 141.88 407.06L161.92 465.38C162.306 466.501 163.015 467.483 163.959 468.202C164.902 468.921 166.036 469.345 167.22 469.42C167.34 469.43 167.47 469.43 167.59 469.43C169.87 469.43 171.97 468.13 172.98 466.06L185.08 441.28C228.5 454.13 274.53 451.5 318.56 433.59L329.89 428.98C331.365 428.381 332.541 427.22 333.159 425.753C333.778 424.287 333.789 422.635 333.19 421.16L323.99 398.53ZM314.06 422.5C271 440.02 225.96 442.03 183.82 428.34C180.97 427.42 177.89 428.73 176.57 431.41L168.57 447.8L155.18 408.85L194.13 395.46L187.43 409.18C186.66 410.76 186.62 412.6 187.32 414.21C188.02 415.82 189.4 417.04 191.08 417.55C229.37 429.13 270.27 426.85 309.36 410.95L315.13 408.6L319.82 420.14L314.06 422.5ZM42.06 219.33L65.97 224.47C66.39 224.56 66.82 224.6 67.24 224.6C68.6114 224.599 69.9409 224.127 71.0071 223.265C72.0734 222.402 72.812 221.201 73.1 219.86L75.67 207.9C83.43 171.8 101.19 140.8 127.2 117.81L138.37 137.39C138.958 138.42 139.839 139.253 140.901 139.783C141.962 140.313 143.157 140.516 144.334 140.368C145.511 140.219 146.618 139.725 147.514 138.947C148.41 138.17 149.056 137.144 149.37 136L165.64 76.51C166.06 74.98 165.85 73.34 165.06 71.95C164.671 71.2649 164.15 70.6638 163.526 70.1814C162.903 69.6991 162.191 69.3451 161.43 69.14L101.94 52.87C99.6 52.23 97.1 53.06 95.62 54.98C94.8928 55.9177 94.4601 57.05 94.3764 58.2337C94.2928 59.4174 94.562 60.5993 95.15 61.63L108.82 85.59C73.75 114.24 50.01 153.77 40.02 200.24L37.45 212.2C36.76 215.45 38.82 218.64 42.06 219.33ZM51.76 202.77C61.53 157.32 85.22 118.96 120.26 91.84C121.403 90.9538 122.187 89.6853 122.47 88.2673C122.753 86.8493 122.515 85.3768 121.8 84.12L112.76 68.28L152.49 79.15L141.62 118.88L134.05 105.62C133.621 104.864 133.031 104.211 132.323 103.707C131.615 103.202 130.805 102.859 129.95 102.7C128.22 102.37 126.44 102.82 125.07 103.93C93.94 129.05 72.8 164.14 63.93 205.4L62.62 211.49L50.44 208.87L51.76 202.77Z" fill="url(#paint0_linear_1152_1026)"/>
<defs>
<linearGradient id="paint0_linear_1152_1026" x1="354.431" y1="452.458" x2="90.8818" y2="11.2121" gradientUnits="userSpaceOnUse">
<stop offset="0.0001" stop-color="#BE42B1"/>
<stop offset="1" stop-color="#3B4BAA"/>
</linearGradient>
</defs>
</svg>
