<svg width="482" height="482" viewBox="0 0 482 482" fill="none" xmlns="http://www.w3.org/2000/svg">
<path d="M212.865 34.13C211.741 33.005 211.11 31.48 211.11 29.89C211.11 28.3 211.741 26.775 212.865 25.65L236.755 1.76C237.875 0.63 239.405 0 240.995 0C242.585 0 244.115 0.63 245.235 1.76L269.125 25.65C269.963 26.4891 270.533 27.5577 270.764 28.7209C270.996 29.8841 270.877 31.0897 270.423 32.1854C269.969 33.2811 269.201 34.2178 268.215 34.8771C267.23 35.5365 266.071 35.889 264.885 35.89C263.345 35.89 261.815 35.3 260.645 34.13L246.995 20.49V89.16C246.995 92.47 244.305 95.16 240.995 95.16C237.685 95.16 234.995 92.47 234.995 89.16V20.49L221.345 34.14C220.788 34.6969 220.126 35.1385 219.398 35.4394C218.67 35.7404 217.89 35.8948 217.103 35.8939C216.315 35.8929 215.535 35.7367 214.808 35.434C214.081 35.1313 213.42 34.6882 212.865 34.13ZM348.365 139.63C349.905 139.63 351.435 139.04 352.605 137.87L401.165 89.31V108.61C401.165 111.92 403.855 114.61 407.165 114.61C410.475 114.61 413.165 111.92 413.165 108.61V74.83C413.165 71.52 410.475 68.83 407.165 68.83H373.375C370.065 68.83 367.375 71.52 367.375 74.83C367.375 78.14 370.065 80.83 373.375 80.83H392.675L344.115 129.39C342.991 130.515 342.36 132.04 342.36 133.63C342.36 135.22 342.991 136.745 344.115 137.87C344.672 138.43 345.334 138.874 346.063 139.176C346.793 139.478 347.575 139.632 348.365 139.63ZM480.235 236.76L456.345 212.87C454.005 210.53 450.205 210.53 447.855 212.87C446.731 213.995 446.1 215.52 446.1 217.11C446.1 218.7 446.731 220.225 447.855 221.35L461.505 235H392.835C389.525 235 386.835 237.69 386.835 241C386.835 244.31 389.525 247 392.835 247H461.505L447.855 260.65C447.017 261.489 446.446 262.558 446.215 263.721C445.984 264.884 446.103 266.09 446.556 267.185C447.01 268.281 447.778 269.218 448.764 269.877C449.75 270.536 450.909 270.889 452.095 270.89C453.625 270.89 455.165 270.3 456.335 269.13L480.225 245.24C480.785 244.685 481.23 244.026 481.534 243.298C481.838 242.571 481.995 241.79 481.996 241.002C481.997 240.214 481.842 239.433 481.54 238.705C481.237 237.977 480.794 237.316 480.235 236.76ZM407.165 367.38C403.855 367.38 401.165 370.07 401.165 373.38V392.68L352.605 344.12C350.265 341.78 346.465 341.78 344.115 344.12C342.991 345.245 342.36 346.77 342.36 348.36C342.36 349.95 342.991 351.475 344.115 352.6L392.675 401.16H373.375C370.065 401.16 367.375 403.85 367.375 407.16C367.375 410.47 370.065 413.16 373.375 413.16H407.165C410.475 413.16 413.165 410.47 413.165 407.16V373.37C413.165 370.07 410.475 367.38 407.165 367.38ZM260.645 447.87L246.995 461.51V392.84C246.995 389.53 244.305 386.84 240.995 386.84C237.685 386.84 234.995 389.53 234.995 392.84V461.51L221.345 447.86C219.005 445.52 215.205 445.52 212.855 447.86C211.731 448.985 211.1 450.51 211.1 452.1C211.1 453.69 211.731 455.215 212.855 456.34L236.745 480.23C237.865 481.36 239.395 481.99 240.985 481.99C242.575 481.99 244.105 481.36 245.225 480.23L269.115 456.34C270.238 455.215 270.869 453.69 270.869 452.1C270.869 450.51 270.238 448.985 269.115 447.86C266.785 445.52 262.985 445.52 260.645 447.87ZM129.385 344.13L80.8247 392.69V373.39C80.8247 370.08 78.1347 367.39 74.8247 367.39C71.5147 367.39 68.8247 370.08 68.8247 373.39V407.18C68.8247 410.49 71.5147 413.18 74.8247 413.18H108.615C111.925 413.18 114.615 410.49 114.615 407.18C114.615 403.87 111.925 401.18 108.615 401.18H89.3147L137.875 352.62C138.998 351.495 139.629 349.97 139.629 348.38C139.629 346.79 138.998 345.265 137.875 344.14C137.319 343.58 136.658 343.135 135.93 342.831C135.202 342.527 134.421 342.37 133.632 342.369C132.843 342.368 132.061 342.523 131.332 342.825C130.603 343.127 129.942 343.571 129.385 344.13ZM20.4847 247H89.1547C92.4647 247 95.1547 244.31 95.1547 241C95.1547 237.69 92.4647 235 89.1547 235H20.4847L34.1347 221.35C36.4747 219.01 36.4747 215.21 34.1347 212.87C31.7947 210.53 27.9947 210.53 25.6447 212.87L1.75472 236.76C0.631117 237.885 0 239.41 0 241C0 242.59 0.631117 244.115 1.75472 245.24L25.6447 269.13C26.2012 269.687 26.8621 270.13 27.5896 270.431C28.3172 270.733 29.0971 270.888 29.8847 270.888C30.6724 270.888 31.4523 270.733 32.1798 270.431C32.9074 270.13 33.5683 269.687 34.1247 269.13C35.2483 268.005 35.8794 266.48 35.8794 264.89C35.8794 263.3 35.2483 261.775 34.1247 260.65L20.4847 247ZM74.8247 114.62C78.1347 114.62 80.8247 111.93 80.8247 108.62V89.32L129.385 137.88C129.941 138.437 130.602 138.88 131.33 139.181C132.057 139.483 132.837 139.638 133.625 139.638C134.412 139.638 135.192 139.483 135.92 139.181C136.647 138.88 137.308 138.437 137.865 137.88C138.988 136.755 139.619 135.23 139.619 133.64C139.619 132.05 138.988 130.525 137.865 129.4L89.3047 80.84H108.605C111.915 80.84 114.605 78.15 114.605 74.84C114.605 71.53 111.915 68.84 108.605 68.84H74.8247C71.5147 68.84 68.8247 71.53 68.8247 74.84V108.63C68.8247 111.93 71.5147 114.62 74.8247 114.62ZM361.775 241C361.775 307.6 307.595 361.78 240.995 361.78C174.395 361.78 120.215 307.6 120.215 241C120.215 174.4 174.395 120.22 240.995 120.22C307.595 120.22 361.775 174.4 361.775 241ZM234.995 132.94C220.365 136.43 207.325 152.46 198.605 175.42C210.075 177.87 222.355 179.34 234.995 179.69V132.94ZM194.795 186.88C190.615 201.28 188.015 217.67 187.525 235H234.995V191.7C221.065 191.33 207.465 189.67 194.795 186.88ZM187.525 247C188.015 264.33 190.615 280.73 194.795 295.12C207.465 292.32 221.065 290.67 234.995 290.3V247H187.525ZM198.605 306.57C207.315 329.53 220.365 345.56 234.995 349.05V302.3C222.355 302.66 210.075 304.13 198.605 306.57ZM246.995 349.06C261.625 345.57 274.665 329.54 283.385 306.58C271.915 304.13 259.635 302.66 246.995 302.31V349.06ZM287.195 295.12C291.375 280.72 293.975 264.33 294.465 247H246.995V290.3C260.925 290.67 274.525 292.33 287.195 295.12ZM294.465 235C293.975 217.67 291.375 201.27 287.195 186.88C274.525 189.68 260.925 191.33 246.995 191.7V235H294.465ZM283.385 175.43C274.675 152.46 261.625 136.44 246.995 132.95V179.7C259.635 179.34 271.915 177.87 283.385 175.43ZM295.125 172.49C303.265 170.14 310.825 167.25 317.625 163.88C305.865 152.19 291.455 143.17 275.385 137.8C280.105 143.12 284.475 149.59 288.395 157.14C290.885 161.94 293.125 167.09 295.125 172.49ZM206.595 137.8C190.525 143.17 176.115 152.19 164.355 163.88C171.155 167.26 178.715 170.14 186.855 172.49C188.855 167.09 191.095 161.94 193.585 157.14C197.505 149.59 201.875 143.12 206.595 137.8ZM156.055 173.12C142.315 190.28 133.655 211.67 132.385 235H175.515C175.985 216.91 178.605 199.53 183.105 183.89C173.245 181.02 164.125 177.4 156.055 173.12ZM132.385 247C133.655 270.33 142.315 291.72 156.055 308.88C164.115 304.6 173.245 300.99 183.115 298.11C178.605 282.48 175.995 265.09 175.525 247H132.385ZM164.365 318.12C176.125 329.81 190.535 338.83 206.605 344.2C201.885 338.88 197.515 332.41 193.595 324.86C191.105 320.06 188.865 314.92 186.865 309.51C178.725 311.86 171.155 314.75 164.365 318.12ZM275.395 344.2C291.465 338.83 305.875 329.81 317.635 318.12C310.835 314.74 303.275 311.86 295.135 309.51C293.135 314.91 290.895 320.06 288.405 324.86C284.485 332.41 280.115 338.88 275.395 344.2ZM325.935 308.88C339.675 291.72 348.335 270.33 349.605 247H306.475C306.005 265.09 303.385 282.47 298.885 298.11C308.745 300.98 317.865 304.59 325.935 308.88ZM349.605 235C348.335 211.67 339.675 190.28 325.935 173.12C317.875 177.4 308.745 181.01 298.875 183.89C303.385 199.52 305.995 216.91 306.465 235H349.605Z" fill="url(#paint0_linear_1152_1029)"/>
<defs>
<linearGradient id="paint0_linear_1152_1029" x1="354.429" y1="464.564" x2="80.4923" y2="17.8832" gradientUnits="userSpaceOnUse">
<stop offset="0.0001" stop-color="#BE42B1"/>
<stop offset="1" stop-color="#3B4BAA"/>
</linearGradient>
</defs>
</svg>
