<svg width="435" height="741" viewBox="0 0 435 741" fill="none" xmlns="http://www.w3.org/2000/svg">
<path d="M217.75 8L8 376.25L217.75 508L427 375L217.75 8Z" stroke="url(#paint0_linear_589_58)" stroke-width="16" stroke-miterlimit="10" stroke-linecap="round" stroke-linejoin="round"/>
<path d="M217.75 733V573" stroke="url(#paint1_linear_589_58)" stroke-width="16" stroke-miterlimit="10" stroke-linecap="round" stroke-linejoin="round"/>
<path d="M217.75 733L8 441.25L217.75 573L427 440L217.75 733Z" stroke="url(#paint2_linear_589_58)" stroke-width="16" stroke-miterlimit="10" stroke-linecap="round" stroke-linejoin="round"/>
<path d="M217.75 278L8 376.25L217.75 508L427 375L217.75 278Z" stroke="url(#paint3_linear_589_58)" stroke-width="16" stroke-miterlimit="10" stroke-linecap="round" stroke-linejoin="round"/>
<path d="M217.75 8V508" stroke="url(#paint4_linear_589_58)" stroke-width="16" stroke-miterlimit="10" stroke-linecap="round" stroke-linejoin="round"/>
<path d="M217.75 8L8 376.25L217.75 508L427 375L217.75 8Z" stroke="url(#paint5_linear_589_58)" stroke-width="16" stroke-miterlimit="10" stroke-linecap="round" stroke-linejoin="round"/>
<defs>
<linearGradient id="paint0_linear_589_58" x1="217.5" y1="8" x2="217.5" y2="508" gradientUnits="userSpaceOnUse">
<stop stop-color="#1BA2D7"/>
<stop offset="1" stop-color="#8D3DFA"/>
</linearGradient>
<linearGradient id="paint1_linear_589_58" x1="218.25" y1="573" x2="218.25" y2="733" gradientUnits="userSpaceOnUse">
<stop stop-color="#1BA2D7"/>
<stop offset="1" stop-color="#8D3DFA"/>
</linearGradient>
<linearGradient id="paint2_linear_589_58" x1="217.5" y1="440" x2="217.5" y2="733" gradientUnits="userSpaceOnUse">
<stop stop-color="#1BA2D7"/>
<stop offset="1" stop-color="#8D3DFA"/>
</linearGradient>
<linearGradient id="paint3_linear_589_58" x1="217.5" y1="278" x2="217.5" y2="508" gradientUnits="userSpaceOnUse">
<stop stop-color="#1BA2D7"/>
<stop offset="1" stop-color="#8D3DFA"/>
</linearGradient>
<linearGradient id="paint4_linear_589_58" x1="218.25" y1="8" x2="218.25" y2="508" gradientUnits="userSpaceOnUse">
<stop stop-color="#1BA2D7"/>
<stop offset="1" stop-color="#8D3DFA"/>
</linearGradient>
<linearGradient id="paint5_linear_589_58" x1="217.5" y1="8" x2="217.5" y2="508" gradientUnits="userSpaceOnUse">
<stop stop-color="#1BA2D7"/>
<stop offset="1" stop-color="#8D3DFA"/>
</linearGradient>
</defs>
</svg>
