<svg width="480" height="480" viewBox="0 0 480 480" fill="none" xmlns="http://www.w3.org/2000/svg">
<path d="M432 264V248C436.416 248 440 244.418 440 240V192C440 187.582 436.416 184 432 184H388.8L387.25 177.99C383.714 164.245 378.217 151.081 370.928 138.902L367.728 133.55L398.4 102.825C401.488 99.7312 401.488 94.7184 398.4 91.6248L364.425 57.6C362.915 56.1602 360.909 55.357 358.823 55.357C356.737 55.357 354.731 56.1602 353.222 57.6L322.494 88.328L317.144 85.128C304.948 77.837 291.768 72.338 278.006 68.8L272 67.2376V24C272 19.5816 268.418 16 264 16H216C211.582 16 208 19.5816 208 24V67.2L201.99 68.7528C188.245 72.2885 175.079 77.7812 162.897 85.0624L157.544 88.2656L126.824 57.6C125.313 56.149 123.299 55.3387 121.204 55.3387C119.109 55.3387 117.095 56.149 115.584 57.6L81.6 91.5752C80.8599 92.3132 80.2728 93.1899 79.8722 94.1552C79.4715 95.1204 79.2653 96.1553 79.2653 97.2004C79.2653 98.2455 79.4715 99.2804 79.8722 100.246C80.2728 101.211 80.8599 102.088 81.6 102.826L112.328 133.55L109.128 138.903C101.84 151.082 96.3445 164.246 92.8096 177.991L91.24 184H48C43.5816 184 40 187.582 40 192V240C40 244.418 43.5816 248 48 248V264C34.7472 264 24 253.253 24 240V192C24 178.747 34.7472 168 48 168H78.9528C82.2523 156.939 86.7148 146.258 92.2656 136.138L70.2656 114.138C65.7656 109.647 63.2376 103.554 63.2376 97.2C63.2376 90.8464 65.7656 84.7528 70.2656 80.2656L104.266 46.2656C113.738 37.2 128.672 37.2 138.144 46.2656L160.138 68.256C170.259 62.7112 180.939 58.2543 192 54.96V24C192 10.7472 202.747 0 216 0H264C277.253 0 288 10.7472 288 24V54.96C299.061 58.2576 309.741 62.7177 319.862 68.2656L341.862 46.2656C351.338 37.2 366.269 37.2 375.744 46.2656L409.738 80.256C411.964 82.4784 413.73 85.1181 414.935 88.0239C416.14 90.9298 416.76 94.0447 416.759 97.1904C416.76 100.337 416.14 103.452 414.935 106.359C413.73 109.265 411.964 111.905 409.738 114.128L387.738 136.128C393.284 146.254 397.745 156.937 401.047 168H432C445.253 168 456 178.747 456 192V240C456 253.253 445.253 264 432 264Z" fill="url(#paint0_linear_589_31)"/>
<path d="M352 216H336C336 162.982 293.018 120 240 120C186.982 120 144 162.982 144 216H128C128 154.144 178.144 104 240 104C301.853 104 352 154.144 352 216Z" fill="url(#paint1_linear_589_31)"/>
<path d="M240 280C213.49 280 192 258.506 192 232C192 205.49 213.49 184 240 184C266.512 184 288 205.49 288 232C287.972 258.5 266.5 279.972 240 280ZM240 200C222.328 200 208 214.328 208 232C208 249.672 222.328 264 240 264C257.672 264 272 249.672 272 232C272 214.328 257.672 200 240 200ZM376 312C349.49 312 328 290.506 328 264C328 237.49 349.49 216 376 216C402.51 216 424 237.49 424 264C423.972 290.5 402.5 311.972 376 312ZM376 232C358.328 232 344 246.328 344 264C344 281.672 358.328 296 376 296C393.672 296 408 281.672 408 264C408 246.328 393.672 232 376 232ZM104 312C77.4904 312 56 290.506 56 264C56 237.49 77.4904 216 104 216C130.512 216 152 237.49 152 264C151.972 290.5 130.5 311.972 104 312ZM104 232C86.328 232 72 246.328 72 264C72 281.672 86.328 296 104 296C121.672 296 136 281.672 136 264C136 246.328 121.672 232 104 232Z" fill="url(#paint2_linear_589_31)"/>
<path d="M448.525 332.525C436.603 324.329 422.467 319.961 408 320H344C340.108 320.035 336.225 320.387 332.39 321.053C327.27 313.047 320.611 306.137 312.8 300.725C311.629 299.84 310.396 299.039 309.112 298.328C297.92 291.552 285.083 287.98 272 288H208C195.964 287.958 184.114 290.967 173.557 296.747C163 302.528 154.08 310.89 147.632 321.053C143.79 320.387 139.899 320.035 136 320H72C57.5419 319.961 43.4145 324.324 31.4968 332.51C21.7974 339.109 13.8576 347.979 8.36819 358.347C2.87878 368.716 0.00607066 380.268 0 392V424C0.028 445.844 12.7376 465.682 32.5784 474.832C39.902 478.281 47.9049 480.047 56 480H136V464H64V376H48V463.197C44.9886 462.592 42.0627 461.62 39.288 460.303C32.3479 457.104 26.4679 451.985 22.3416 445.553C18.2152 439.121 16.0149 431.642 16 424V392C16.0097 382.87 18.2492 373.881 22.5239 365.813C26.7986 357.746 32.979 350.845 40.528 345.71C49.79 339.354 60.767 335.967 72 336H136C137.41 336 138.768 336.15 140.144 336.244C137.437 343.873 136.036 351.905 136 360V440C136.028 462.082 153.922 479.972 176 480H200V352H184V464H176C162.747 464 152 453.253 152 440V360C152 329.069 177.075 304 208 304H272C282.292 304.007 292.383 306.856 301.16 312.232C301.971 312.675 302.751 313.174 303.494 313.725C310.989 318.857 317.142 325.717 321.431 333.725C325.742 341.812 327.998 350.835 328 360V440C328 453.253 317.253 464 304 464H296V352H280V480H304C326.082 479.972 343.972 462.082 344 440V360C343.963 351.905 342.564 343.875 339.862 336.244C341.241 336.15 342.6 336 344 336H408C419.242 335.97 430.226 339.361 439.494 345.725C447.036 350.862 453.21 357.762 457.481 365.826C461.751 373.89 463.989 382.875 464 392V424C463.986 431.668 461.772 439.17 457.62 445.616C453.468 452.062 447.554 457.181 440.578 460.366C437.846 461.658 434.965 462.61 432 463.198V376H416V464H344V480H424C432.046 480.051 440.002 478.306 447.288 474.894C467.194 465.772 479.968 445.897 480 424V392C479.994 380.273 477.123 368.724 471.638 358.359C466.152 347.994 458.218 339.125 448.525 332.525Z" fill="url(#paint3_linear_589_31)"/>
<path d="M208 464H272V480H208V464Z" fill="url(#paint4_linear_589_31)"/>
<defs>
<linearGradient id="paint0_linear_589_31" x1="62.25" y1="33.2749" x2="279.482" y2="385.529" gradientUnits="userSpaceOnUse">
<stop stop-color="#1BA2D7"/>
<stop offset="1" stop-color="#8D3DFA"/>
</linearGradient>
<linearGradient id="paint1_linear_589_31" x1="147.833" y1="118.117" x2="230.792" y2="282.533" gradientUnits="userSpaceOnUse">
<stop stop-color="#1BA2D7"/>
<stop offset="1" stop-color="#8D3DFA"/>
</linearGradient>
<linearGradient id="paint2_linear_589_31" x1="88.5833" y1="200.133" x2="162.253" y2="410.018" gradientUnits="userSpaceOnUse">
<stop stop-color="#1BA2D7"/>
<stop offset="1" stop-color="#8D3DFA"/>
</linearGradient>
<linearGradient id="paint3_linear_589_31" x1="42.5" y1="312.2" x2="165.24" y2="616.272" gradientUnits="userSpaceOnUse">
<stop stop-color="#1BA2D7"/>
<stop offset="1" stop-color="#8D3DFA"/>
</linearGradient>
<linearGradient id="paint4_linear_589_31" x1="213.667" y1="466.017" x2="220.656" y2="493.721" gradientUnits="userSpaceOnUse">
<stop stop-color="#1BA2D7"/>
<stop offset="1" stop-color="#8D3DFA"/>
</linearGradient>
</defs>
</svg>
