<svg width="447" height="513" viewBox="0 0 447 513" fill="none" xmlns="http://www.w3.org/2000/svg">
<path d="M279.637 406.128L227.04 375.771C225.824 375.068 224.444 374.699 223.04 374.699C221.636 374.699 220.256 375.068 219.04 375.771L166.443 406.128C165.227 406.831 164.217 407.842 163.515 409.059C162.813 410.276 162.443 411.656 162.443 413.061V473.605C162.443 475.01 162.813 476.39 163.515 477.607C164.217 478.824 165.227 479.835 166.443 480.539L219.04 510.939C220.255 511.644 221.635 512.015 223.04 512.015C224.445 512.015 225.825 511.644 227.04 510.939L279.637 480.581C280.854 479.878 281.863 478.867 282.565 477.65C283.268 476.433 283.637 475.053 283.637 473.648V413.061C283.637 411.656 283.268 410.276 282.565 409.059C281.863 407.842 280.854 406.831 279.637 406.128ZM223.051 391.931L259.648 413.061L223.051 434.192L186.453 413.061L223.051 391.931ZM178.453 426.917L215.04 448.005V490.107L178.443 469.019L178.453 426.917ZM267.637 469.019L231.04 490.149V448.005L267.637 426.875V469.019ZM166.443 105.882L219.04 136.24C220.255 136.945 221.635 137.317 223.04 137.317C224.445 137.317 225.825 136.945 227.04 136.24L279.637 105.882C280.854 105.179 281.863 104.168 282.565 102.951C283.268 101.734 283.637 100.354 283.637 98.9491V38.4051C283.637 37.0002 283.268 35.62 282.565 34.403C281.863 33.1861 280.854 32.1752 279.637 31.4718L227.04 1.0718C225.824 0.36965 224.444 0 223.04 0C221.636 0 220.256 0.36965 219.04 1.0718L166.443 31.4398C165.227 32.1432 164.217 33.1541 163.515 34.371C162.813 35.588 162.443 36.9682 162.443 38.3731V98.9491C162.443 100.354 162.813 101.734 163.515 102.951C164.217 104.168 165.227 105.179 166.443 105.882ZM178.443 52.2718L215.04 73.4025V115.504L178.443 94.3305V52.2718ZM267.637 94.3305L231.04 115.461V73.3598L267.637 52.2718V94.3305ZM223.051 17.2425L259.637 38.4051L223.051 59.5038L186.443 38.4051L223.051 17.2425ZM328.651 199.472L381.248 229.84C382.463 230.545 383.843 230.917 385.248 230.917C386.653 230.917 388.033 230.545 389.248 229.84L441.867 199.472C443.083 198.772 444.094 197.763 444.796 196.548C445.499 195.332 445.868 193.953 445.867 192.549V131.92C445.866 130.515 445.497 129.135 444.795 127.918C444.093 126.701 443.083 125.69 441.867 124.986L389.269 94.6291C388.053 93.927 386.674 93.5573 385.269 93.5573C383.865 93.5573 382.485 93.927 381.269 94.6291L328.651 124.986C327.435 125.69 326.425 126.701 325.723 127.918C325.021 129.135 324.651 130.515 324.651 131.92V192.496C324.64 193.909 325.005 195.299 325.708 196.525C326.41 197.75 327.426 198.767 328.651 199.472ZM340.651 145.829L377.248 166.96V209.061L340.651 187.93V145.829ZM429.845 187.93L393.248 209.061V166.906L429.845 145.776V187.93ZM385.248 110.842L421.845 131.973L385.248 153.104L348.651 131.973L385.248 110.842ZM117.451 124.965L64.8 94.6078C63.5838 93.9057 62.2043 93.536 60.8 93.536C59.3957 93.536 58.0162 93.9057 56.8 94.6078L4.20267 124.965C2.98649 125.669 1.9767 126.679 1.27461 127.896C0.572529 129.113 0.20285 130.494 0.20267 131.898V192.474C0.201476 193.878 0.570673 195.258 1.27299 196.473C1.9753 197.688 2.98587 198.697 4.20267 199.397L56.8 229.776C58.0172 230.475 59.3963 230.843 60.8 230.843C62.2036 230.843 63.5828 230.475 64.8 229.776L117.451 199.397C118.667 198.697 119.678 197.688 120.38 196.473C121.083 195.258 121.452 193.878 121.451 192.474V131.898C121.45 130.494 121.081 129.113 120.379 127.896C119.677 126.679 118.667 125.669 117.451 124.965ZM60.8 110.768L97.3973 131.898L60.8 153.029L24.2027 131.898L60.8 110.768ZM16.2027 145.754L52.8 166.885V208.986L16.2027 187.856V145.754ZM105.397 187.856L68.8 208.986V166.885L105.397 145.754V187.856ZM442.101 312.251L389.451 281.883C388.235 281.18 386.855 280.811 385.451 280.811C384.046 280.811 382.667 281.18 381.451 281.883L328.853 312.251C327.637 312.951 326.627 313.96 325.925 315.175C325.223 316.391 324.853 317.77 324.853 319.173V379.738C324.853 381.142 325.223 382.521 325.925 383.736C326.627 384.951 327.637 385.96 328.853 386.661L381.493 417.072C382.708 417.777 384.088 418.149 385.493 418.149C386.898 418.149 388.278 417.777 389.493 417.072L442.101 386.704C443.317 386.003 444.327 384.994 445.03 383.779C445.732 382.564 446.101 381.185 446.101 379.781V319.194C446.105 317.787 445.737 316.404 445.035 315.185C444.333 313.965 443.321 312.953 442.101 312.251ZM385.493 298.053L422.101 319.173L385.493 340.272L348.917 319.173L385.493 298.053ZM340.896 333.04L377.493 354.139V396.229L340.896 375.099V333.04ZM430.101 375.13L393.493 396.261V354.139L430.101 333.008V375.13ZM117.205 312.251L64.608 281.893C63.3918 281.191 62.0123 280.821 60.608 280.821C59.2037 280.821 57.8242 281.191 56.608 281.893L4 312.251C2.78382 312.954 1.77403 313.965 1.07195 315.182C0.369862 316.399 0.000182765 317.779 2.88966e-06 319.184V379.738C-0.00119168 381.142 0.368006 382.522 1.07032 383.737C1.77264 384.952 2.78321 385.961 4 386.661L56.6507 417.072C57.8658 417.777 59.2457 418.149 60.6507 418.149C62.0556 418.149 63.4356 417.777 64.6507 417.072L117.248 386.704C118.465 386.004 119.475 384.995 120.178 383.78C120.88 382.564 121.249 381.185 121.248 379.781V319.184C121.244 317.775 120.867 316.392 120.158 315.174C119.448 313.957 118.429 312.949 117.205 312.251ZM60.608 298.053L97.184 319.184L60.608 340.272L24 319.152L60.608 298.053ZM16 333.04L21.6213 336.24L52.608 354.139V396.272L16 375.141V333.04ZM68.608 396.272V354.139L99.5413 336.251L105.163 333.05V375.152L68.608 396.272ZM285.515 207.76V207.685C285.429 207.546 285.301 207.472 285.216 207.344C277.82 197.895 268.367 190.258 257.575 185.011C246.784 179.764 234.939 177.047 222.94 177.065C210.941 177.084 199.104 179.838 188.329 185.118C177.554 190.398 168.124 198.065 160.757 207.536C160.72 207.59 160.678 207.64 160.629 207.685C149.779 221.536 143.882 238.623 143.882 256.218C143.882 273.814 149.779 290.901 160.629 304.752L160.736 304.869C168.075 314.3 177.457 321.945 188.176 327.229C198.895 332.513 210.672 335.298 222.622 335.375C234.572 335.452 246.384 332.819 257.17 327.674C267.957 322.528 277.436 315.005 284.896 305.669C296.028 291.796 302.149 274.57 302.265 256.783C302.381 238.996 296.486 221.692 285.536 207.674L285.515 207.76ZM277.717 293.541C273.887 291.839 269.95 290.389 265.931 289.2C268.189 280.519 269.519 271.623 269.899 262.661H288.907C287.872 273.741 284.021 284.371 277.717 293.541ZM156.971 262.661H176.171C176.544 271.62 177.874 280.513 180.139 289.189C176.059 290.402 172.065 291.884 168.181 293.626C161.889 284.417 158.032 273.764 156.971 262.661ZM168.203 218.928C172.088 220.665 176.082 222.148 180.16 223.365C177.896 232.041 176.565 240.934 176.192 249.893H156.992C158.046 238.779 161.904 228.113 168.203 218.896V218.928ZM216.64 216.336C209.985 216.087 203.356 215.374 196.8 214.202C200.181 204.241 207.293 195.978 216.64 191.152V216.336ZM216.64 229.136V249.893H188.981C189.373 241.965 190.596 234.1 192.629 226.426C200.556 227.936 208.587 228.831 216.651 229.104L216.64 229.136ZM216.64 262.693V283.418C208.579 283.708 200.552 284.614 192.629 286.128C190.596 278.455 189.373 270.589 188.981 262.661L216.64 262.693ZM216.64 296.251V321.435C207.293 316.608 200.181 308.346 196.8 298.384C203.359 297.206 209.992 296.483 216.651 296.219L216.64 296.251ZM229.44 296.251C236.095 296.504 242.724 297.216 249.28 298.384C245.909 308.351 238.795 316.617 229.44 321.435V296.251ZM229.44 283.45V262.661H257.109C256.709 270.589 255.483 278.454 253.451 286.128C245.532 284.614 237.508 283.708 229.451 283.418L229.44 283.45ZM229.44 249.893V229.104C237.501 228.82 245.529 227.915 253.451 226.394C255.481 234.069 256.707 241.933 257.109 249.861L229.44 249.893ZM229.44 216.336V191.12C238.796 195.943 245.914 204.211 249.291 214.181C242.734 215.344 236.105 216.053 229.451 216.304L229.44 216.336ZM255.339 198.341C260.392 201.171 265.054 204.649 269.205 208.688C266.817 209.645 264.386 210.492 261.92 211.226C260.123 206.73 257.92 202.406 255.339 198.309V198.341ZM184.149 211.205C181.686 210.464 179.255 209.617 176.864 208.666C181.02 204.631 185.681 201.149 190.731 198.309C188.151 202.4 185.948 206.716 184.149 211.205ZM184.149 301.338C185.955 305.828 188.165 310.145 190.752 314.234C185.7 311.398 181.039 307.916 176.885 303.877C179.264 302.91 181.688 302.07 184.149 301.338ZM261.931 301.338C264.501 302.106 266.944 302.96 269.259 303.877C265.105 307.898 260.443 311.359 255.392 314.17C257.949 310.096 260.138 305.802 261.931 301.338ZM269.899 249.861C269.52 240.903 268.19 232.01 265.931 223.333C270.007 222.12 273.998 220.638 277.877 218.896C284.172 228.094 288.036 238.735 289.109 249.829L269.899 249.861Z" fill="url(#paint0_linear_589_38)"/>
<path d="M215.051 152.912V159.856C215.051 161.978 215.894 164.012 217.394 165.513C218.894 167.013 220.929 167.856 223.051 167.856C225.172 167.856 227.207 167.013 228.708 165.513C230.208 164.012 231.051 161.978 231.051 159.856V152.912C231.051 150.79 230.208 148.755 228.708 147.255C227.207 145.755 225.172 144.912 223.051 144.912C220.929 144.912 218.894 145.755 217.394 147.255C215.894 148.755 215.051 150.79 215.051 152.912ZM231.051 361.125V354.138C231.051 352.017 230.208 349.982 228.708 348.482C227.207 346.981 225.172 346.138 223.051 346.138C220.929 346.138 218.894 346.981 217.394 348.482C215.894 349.982 215.051 352.017 215.051 354.138V361.083C215.051 363.204 215.894 365.239 217.394 366.739C218.894 368.24 220.929 369.083 223.051 369.083C225.172 369.083 227.207 368.24 228.708 366.739C230.208 365.239 231.051 363.204 231.051 361.083V361.125ZM128.885 211.888L134.901 215.365C135.812 215.89 136.817 216.231 137.859 216.368C138.901 216.505 139.96 216.435 140.975 216.163C141.991 215.89 142.942 215.421 143.776 214.781C144.61 214.14 145.309 213.342 145.835 212.432C146.36 211.521 146.701 210.516 146.838 209.474C146.974 208.432 146.905 207.373 146.632 206.358C146.36 205.342 145.89 204.391 145.25 203.557C144.61 202.723 143.812 202.024 142.901 201.498L136.885 198.021C135.046 196.96 132.862 196.673 130.811 197.223C128.761 197.774 127.013 199.116 125.952 200.954C124.891 202.793 124.604 204.978 125.154 207.029C125.704 209.079 127.046 210.827 128.885 211.888ZM317.205 302.149L311.189 298.672C309.351 297.611 307.166 297.324 305.115 297.874C303.065 298.424 301.317 299.766 300.256 301.605C299.195 303.444 298.908 305.629 299.458 307.679C300.008 309.73 301.351 311.478 303.189 312.538L309.205 316.016C310.116 316.541 311.121 316.882 312.163 317.019C313.205 317.156 314.264 317.086 315.28 316.814C316.295 316.541 317.246 316.071 318.08 315.431C318.914 314.791 319.613 313.993 320.139 313.082C320.664 312.172 321.005 311.167 321.142 310.125C321.279 309.083 321.209 308.024 320.936 307.008C320.664 305.993 320.194 305.041 319.554 304.208C318.914 303.374 318.116 302.674 317.205 302.149ZM134.901 298.672L128.885 302.149C127.975 302.674 127.177 303.374 126.537 304.208C125.896 305.041 125.427 305.993 125.154 307.008C124.882 308.024 124.812 309.083 124.949 310.125C125.086 311.167 125.427 312.172 125.952 313.082C126.477 313.993 127.177 314.791 128.01 315.431C128.844 316.071 129.796 316.541 130.811 316.814C131.826 317.086 132.885 317.156 133.928 317.019C134.97 316.882 135.975 316.541 136.885 316.016L142.901 312.538C143.812 312.013 144.61 311.314 145.25 310.48C145.89 309.646 146.36 308.695 146.632 307.679C146.905 306.664 146.974 305.605 146.838 304.563C146.701 303.521 146.36 302.516 145.835 301.605C145.309 300.695 144.61 299.897 143.776 299.256C142.942 298.616 141.991 298.146 140.975 297.874C139.96 297.602 138.901 297.532 137.859 297.669C136.817 297.806 135.812 298.147 134.901 298.672ZM309.205 198.032L303.189 201.509C301.351 202.57 300.008 204.318 299.458 206.368C298.908 208.419 299.195 210.604 300.256 212.442C301.317 214.281 303.065 215.623 305.115 216.174C307.166 216.724 309.351 216.437 311.189 215.376L317.205 211.898C318.116 211.373 318.914 210.674 319.554 209.84C320.194 209.006 320.664 208.055 320.936 207.039C321.209 206.024 321.279 204.965 321.142 203.923C321.005 202.881 320.664 201.876 320.139 200.965C319.613 200.055 318.914 199.257 318.08 198.616C317.246 197.976 316.295 197.506 315.28 197.234C314.264 196.962 313.205 196.892 312.163 197.029C311.121 197.166 310.116 197.507 309.205 198.032Z" fill="url(#paint1_linear_589_38)"/>
<defs>
<linearGradient id="paint0_linear_589_38" x1="50" y1="40" x2="424.5" y2="505" gradientUnits="userSpaceOnUse">
<stop stop-color="#1BA2D7"/>
<stop offset="1" stop-color="#8D3DFA"/>
</linearGradient>
<linearGradient id="paint1_linear_589_38" x1="146.886" y1="162.425" x2="310.666" y2="366.842" gradientUnits="userSpaceOnUse">
<stop stop-color="#1BA2D7"/>
<stop offset="1" stop-color="#8D3DFA"/>
</linearGradient>
</defs>
</svg>
