<svg xmlns="http://www.w3.org/2000/svg" version="1.1" xmlns:xlink="http://www.w3.org/1999/xlink" width="512" height="512" x="0" y="0" viewBox="0 0 511.5 511.5" style="enable-background:new 0 0 512 512" xml:space="preserve"><g><path d="M413.25 471.22h45.06c25.23 0 45.69-20.43 45.69-45.63v-24.34H333.42c0 15.96-12.95 28.9-28.93 28.9h-97.48c-15.98 0-28.93-12.94-28.93-28.9H7.5v24.34c0 25.2 20.46 45.63 45.69 45.63h345.06M85.75 401.25V184.22h40M385.75 184.22h40v217.03" style="stroke-width:15;stroke-miterlimit:10;" fill="none" stroke="#000000" stroke-width="15" stroke-miterlimit="10" data-original="#000000"></path><path d="M385.75 144.22h50c16.57 0 30 13.43 30 30v227.03M45.75 401.25V174.22c0-16.57 13.43-30 30-30h50M265.257 238.444l10.568-11.706 22.298 9.236-.804 15.75 13.445 13.445 15.75-.804 9.236 22.298-11.706 10.568v19.014l11.706 10.568-9.236 22.298-15.75-.804-13.445 13.445.804 15.75-22.298 9.236-10.568-11.706h-19.014l-10.568 11.706-22.298-9.236.804-15.75-13.445-13.445-15.75.804-9.236-22.298 11.706-10.568v-19.014l-11.706-10.568 9.236-22.298 15.75.804 13.445-13.445-.804-15.75 22.298-9.236 10.568 11.706h19.014z" style="stroke-width:15;stroke-miterlimit:10;" fill="none" stroke="#000000" stroke-width="15" stroke-miterlimit="10" data-original="#000000"></path><circle cx="255.75" cy="306.738" r="28.235" style="stroke-width:15;stroke-miterlimit:10;" fill="none" stroke="#000000" stroke-width="15" stroke-miterlimit="10" data-original="#000000"></circle><path d="M125.75 401.25V40.28h30M170.75 40.28h215v360.97M210.173 196.194l-30-30 30-30" style="stroke-width:15;stroke-miterlimit:10;" fill="none" stroke="#000000" stroke-width="15" stroke-miterlimit="10" data-original="#000000"></path><path d="m301.327 136.194 30 30-30 30M277.179 137.81l-42.858 56.769M125.75 99.574h260M233.25 69.927h15M263.25 69.927h15" style="stroke-width:15;stroke-miterlimit:10;" fill="none" stroke="#000000" stroke-width="15" stroke-miterlimit="10" data-original="#000000"></path></g></svg>