<svg width="513" height="512" viewBox="0 0 513 512" fill="none" xmlns="http://www.w3.org/2000/svg">
<path d="M486.476 230.421C479.686 230.421 473.175 233.118 468.374 237.919C463.573 242.72 460.876 249.232 460.876 256.021C460.93 303.468 444.528 349.465 414.466 386.173C384.403 422.88 342.54 448.025 296.013 457.322C249.486 466.619 201.175 459.492 159.314 437.157C117.453 414.821 84.6345 378.659 66.4516 334.834C48.2688 291.01 45.8473 242.236 59.6001 196.826C73.3529 151.416 102.429 112.181 141.871 85.8091C181.314 59.437 228.682 47.5602 275.901 52.203C323.12 56.8459 367.267 77.7211 400.818 111.27C398.677 113.656 397.227 116.581 396.626 119.73C396.024 122.879 396.294 126.132 397.405 129.139C398.586 132.552 400.71 135.561 403.531 137.816C406.353 140.07 409.755 141.48 413.345 141.879L453.11 146.334C455.713 146.6 458.343 146.285 460.81 145.413C463.277 144.541 465.52 143.133 467.378 141.291C469.191 139.435 470.564 137.195 471.396 134.737C472.227 132.28 472.496 129.667 472.182 127.091L467.822 87.3599C467.384 83.7858 465.952 80.4062 463.689 77.605C461.427 74.8039 458.424 72.6934 455.022 71.5135C451.997 70.4014 448.724 70.1444 445.563 70.7706C442.402 71.3969 439.474 72.8822 437.102 75.0634C395.306 33.2293 340.315 7.15521 281.473 1.27092C222.631 -4.61337 163.567 10.0551 114.314 42.7841C65.0619 75.5132 28.6592 124.284 11.2907 180.812C-6.07771 237.339 -3.34062 298.136 19.037 352.874C41.4146 407.612 82.0526 452.915 134.047 481.086C186.041 509.257 246.185 518.558 304.26 507.41C362.335 496.262 414.76 465.353 452.628 419.932C490.496 374.511 511.471 317.382 511.99 258.248C512.076 257.54 512.076 256.789 512.076 256.021C512.076 249.232 509.378 242.72 504.577 237.919C499.777 233.118 493.265 230.421 486.476 230.421ZM494.924 257.677C494.525 313.226 474.78 366.899 439.084 409.463C403.389 452.027 353.976 480.82 299.345 490.889C244.715 500.957 188.284 491.672 139.76 464.63C91.2357 437.588 53.6531 394.48 33.4776 342.723C13.3022 290.966 11.7954 233.796 29.2164 181.048C46.6375 128.3 81.8971 83.2722 128.929 53.7117C175.961 24.1513 231.825 11.9061 286.91 19.083C341.995 26.2599 392.856 52.41 430.744 93.0346C431.525 93.8744 432.467 94.5482 433.514 95.0159C434.56 95.4836 435.691 95.7356 436.837 95.7567C439.135 95.715 441.335 94.8244 443.015 93.2564L448.733 87.5306C449.158 87.4948 449.581 87.6196 449.919 87.8804C450.168 88.0267 450.382 88.2266 450.544 88.4657C450.706 88.7049 450.813 88.9772 450.857 89.2628L454.919 129.37L415.248 124.941C414.92 124.901 414.607 124.783 414.334 124.598C414.06 124.412 413.836 124.164 413.678 123.874C413.464 123.562 413.368 123.184 413.405 122.807L418.781 117.431C420.341 115.873 421.238 113.771 421.282 111.566C421.327 109.361 420.516 107.224 419.02 105.604C383.934 67.6518 336.695 43.1461 285.462 36.321C234.23 29.4959 182.222 40.78 138.425 68.2239C94.6281 95.6677 61.7923 137.547 45.5908 186.628C29.3892 235.708 30.8396 288.905 49.6913 337.03C68.5431 385.154 103.612 425.183 148.839 450.2C194.067 475.216 246.612 483.65 297.396 474.043C348.181 464.437 394.015 437.394 426.98 397.586C459.945 357.778 477.971 307.706 477.942 256.021C477.942 253.758 478.841 251.588 480.442 249.987C482.042 248.387 484.212 247.488 486.476 247.488C488.739 247.488 490.909 248.387 492.51 249.987C494.11 251.588 495.009 253.758 495.009 256.021V256.371C494.947 256.803 494.918 257.24 494.924 257.677Z" fill="url(#paint0_linear_589_77)"/>
<path d="M153.676 392.555H205.098C219.785 403.63 237.68 409.622 256.076 409.622C274.471 409.622 292.366 403.63 307.054 392.555H358.476C365.265 392.555 371.777 389.857 376.578 385.056C381.379 380.256 384.076 373.744 384.076 366.955V309.107L433.416 203.166C434.948 199.84 435.519 196.152 435.065 192.519C434.61 188.885 433.149 185.452 430.845 182.606C428.541 179.759 425.487 177.615 422.028 176.413C418.569 175.212 414.843 175.002 411.272 175.808L375.645 184.043L374.271 148.757C374.148 145.596 373.297 142.507 371.786 139.728C370.275 136.949 368.144 134.556 365.558 132.734C362.972 130.912 360 129.711 356.875 129.224C353.75 128.737 350.554 128.976 347.536 129.924L295.696 146.223L272.366 111.168C270.581 108.484 268.16 106.282 265.319 104.76C262.477 103.237 259.304 102.44 256.08 102.44C252.856 102.44 249.683 103.237 246.841 104.76C244 106.282 241.579 108.484 239.794 111.168L216.464 146.231L164.615 129.924C161.598 128.976 158.402 128.737 155.276 129.224C152.151 129.711 149.18 130.912 146.594 132.734C144.008 134.556 141.877 136.949 140.365 139.728C138.854 142.507 138.004 145.596 137.881 148.757L136.507 184.043L100.88 175.808C97.303 174.99 93.5683 175.191 90.0999 176.389C86.6315 177.587 83.5683 179.732 81.2579 182.583C78.9476 185.434 77.4826 188.875 77.0293 192.516C76.576 196.157 77.1525 199.853 78.6933 203.183L128.076 309.107V366.955C128.076 373.744 130.773 380.256 135.574 385.056C140.375 389.857 146.886 392.555 153.676 392.555ZM145.142 366.955V315.755H171.178C169.006 337.074 175.008 358.423 187.971 375.488H153.676C151.413 375.488 149.242 374.589 147.642 372.989C146.041 371.388 145.142 369.218 145.142 366.955ZM187.809 324.288C187.809 310.786 191.813 297.587 199.314 286.361C206.815 275.135 217.477 266.385 229.951 261.218C242.425 256.051 256.151 254.699 269.394 257.333C282.636 259.967 294.8 266.469 304.348 276.016C313.895 285.563 320.397 297.727 323.031 310.97C325.665 324.212 324.313 337.938 319.146 350.412C313.979 362.887 305.229 373.548 294.003 381.05C282.776 388.551 269.578 392.555 256.076 392.555C237.977 392.534 220.624 385.335 207.826 372.537C195.028 359.739 187.829 342.387 187.809 324.288ZM367.009 366.955C367.009 369.218 366.11 371.388 364.51 372.989C362.909 374.589 360.739 375.488 358.476 375.488H324.18C337.143 358.423 343.145 337.074 340.974 315.755H367.009V366.955ZM352.648 146.189C353.162 146.018 353.71 145.972 354.245 146.055C354.781 146.138 355.289 146.348 355.728 146.667C356.177 146.972 356.546 147.379 356.806 147.856C357.066 148.332 357.208 148.863 357.221 149.406L358.715 187.942L328.165 195.008L305.569 161.003L352.648 146.189ZM154.93 149.406C154.943 148.863 155.086 148.332 155.346 147.856C155.605 147.379 155.975 146.972 156.423 146.667C156.859 146.342 157.368 146.129 157.905 146.046C158.441 145.962 158.99 146.012 159.504 146.189L206.582 161.003L183.986 195.008L153.437 187.942L154.93 149.406ZM94.5312 193.276C94.8149 192.9 95.2047 192.617 95.6504 192.465C96.0961 192.313 96.5772 192.298 97.0315 192.422L185.889 212.962C187.581 213.353 189.351 213.218 190.964 212.576C192.578 211.934 193.957 210.816 194.917 209.369L254.002 120.623C255.282 118.669 256.861 118.669 258.158 120.623L317.234 209.369C318.195 210.816 319.574 211.934 321.187 212.576C322.8 213.218 324.571 213.353 326.262 212.962L415.12 192.422C415.574 192.298 416.055 192.313 416.501 192.465C416.947 192.617 417.337 192.9 417.62 193.276C417.934 193.641 418.133 194.091 418.192 194.569C418.251 195.048 418.168 195.533 417.953 195.964L370.107 298.688H337.475C332.026 281.368 321.194 266.238 306.555 255.497C291.916 244.757 274.233 238.965 256.076 238.965C237.919 238.965 220.236 244.757 205.596 255.497C190.957 266.238 180.126 281.368 174.676 298.688H142.045L94.1984 195.964C93.9833 195.533 93.9002 195.048 93.9594 194.569C94.0186 194.091 94.2175 193.641 94.5312 193.276Z" fill="url(#paint1_linear_589_77)"/>
<path d="M256.075 315.755C254.577 315.753 253.107 315.358 251.81 314.608C250.514 313.858 249.438 312.78 248.69 311.482C247.942 310.185 247.549 308.714 247.55 307.216C247.551 305.718 247.946 304.248 248.695 302.951C249.445 301.654 250.522 300.578 251.819 299.83C253.117 299.081 254.588 298.688 256.085 298.688C257.583 298.688 259.054 299.083 260.351 299.832C261.648 300.581 262.725 301.658 263.473 302.955C264.641 304.841 266.497 306.199 268.648 306.741C270.8 307.282 273.078 306.964 274.999 305.854C276.92 304.744 278.333 302.93 278.939 300.796C279.545 298.661 279.296 296.375 278.245 294.421C275.155 289.226 270.323 285.296 264.608 283.328V281.621C264.608 279.358 263.709 277.188 262.109 275.587C260.509 273.987 258.338 273.088 256.075 273.088C253.812 273.088 251.641 273.987 250.041 275.587C248.441 277.188 247.542 279.358 247.542 281.621V283.191C241.853 285.195 237.056 289.148 234.002 294.349C230.948 299.55 229.834 305.665 230.856 311.609C231.878 317.553 234.971 322.944 239.587 326.827C244.202 330.709 250.043 332.833 256.075 332.821C257.573 332.823 259.043 333.218 260.34 333.968C261.636 334.718 262.712 335.796 263.46 337.093C264.208 338.391 264.601 339.862 264.6 341.36C264.599 342.857 264.204 344.328 263.455 345.625C262.705 346.921 261.628 347.998 260.331 348.746C259.033 349.495 257.562 349.888 256.065 349.888C254.567 349.888 253.096 349.493 251.799 348.744C250.502 347.995 249.425 346.918 248.677 345.621C247.509 343.734 245.653 342.377 243.502 341.835C241.35 341.294 239.072 341.612 237.151 342.722C235.23 343.832 233.817 345.646 233.211 347.78C232.605 349.915 232.854 352.201 233.905 354.155C236.999 359.353 241.838 363.284 247.559 365.248V366.955C247.559 369.218 248.458 371.388 250.058 372.989C251.658 374.589 253.829 375.488 256.092 375.488C258.355 375.488 260.526 374.589 262.126 372.989C263.726 371.388 264.625 369.218 264.625 366.955V365.384C270.316 363.38 275.113 359.426 278.167 354.223C281.221 349.02 282.334 342.904 281.31 336.958C280.286 331.013 277.19 325.622 272.571 321.741C267.952 317.86 262.108 315.739 256.075 315.755Z" fill="url(#paint2_linear_589_77)"/>
<defs>
<linearGradient id="paint0_linear_589_77" x1="57" y1="-21.5" x2="461" y2="535" gradientUnits="userSpaceOnUse">
<stop stop-color="#1BA2D7"/>
<stop offset="1" stop-color="#8D3DFA"/>
</linearGradient>
<linearGradient id="paint1_linear_589_77" x1="116.766" y1="89.5409" x2="345.492" y2="457.02" gradientUnits="userSpaceOnUse">
<stop stop-color="#1BA2D7"/>
<stop offset="1" stop-color="#8D3DFA"/>
</linearGradient>
<linearGradient id="paint2_linear_589_77" x1="236.185" y1="268.788" x2="315.572" y2="323.451" gradientUnits="userSpaceOnUse">
<stop stop-color="#1BA2D7"/>
<stop offset="1" stop-color="#8D3DFA"/>
</linearGradient>
</defs>
</svg>
