<svg width="480" height="480" viewBox="0 0 480 480" fill="none" xmlns="http://www.w3.org/2000/svg">
<path d="M144 368C146.83 368 149.687 367.913 152.49 367.741L151.51 351.771C149.032 351.923 146.505 352 144 352C126.105 352 109.404 348.197 96.973 341.291C86.187 335.299 80 327.538 80 320C80.0073 318.206 80.3302 316.428 80.954 314.746L65.927 309.254C64.6586 312.695 64.0063 316.333 64 320C64 346.916 99.14 368 144 368ZM8 56C16.484 56.0095 24.6178 59.384 30.6169 65.3831C36.616 71.3822 39.9905 79.516 40 88C40 90.1217 40.8429 92.1566 42.3431 93.6569C43.8434 95.1571 45.8783 96 48 96C50.1217 96 52.1566 95.1571 53.6569 93.6569C55.1571 92.1566 56 90.1217 56 88C56.0095 79.516 59.384 71.3822 65.3831 65.3831C71.3822 59.384 79.516 56.0095 88 56C90.1217 56 92.1566 55.1571 93.6569 53.6569C95.1571 52.1566 96 50.1217 96 48C96 45.8783 95.1571 43.8434 93.6569 42.3431C92.1566 40.8429 90.1217 40 88 40C79.516 39.9905 71.3822 36.616 65.3831 30.6169C59.384 24.6178 56.0095 16.484 56 8C56 5.87827 55.1571 3.84344 53.6569 2.34315C52.1566 0.842854 50.1217 0 48 0C45.8783 0 43.8434 0.842854 42.3431 2.34315C40.8429 3.84344 40 5.87827 40 8C39.9905 16.484 36.616 24.6178 30.6169 30.6169C24.6178 36.616 16.484 39.9905 8 40C5.87827 40 3.84344 40.8429 2.34315 42.3431C0.842854 43.8434 0 45.8783 0 48C0 50.1217 0.842854 52.1566 2.34315 53.6569C3.84344 55.1571 5.87827 56 8 56ZM48 34.507C51.5576 39.8556 56.1444 44.4424 61.493 48C56.1444 51.5576 51.5576 56.1444 48 61.493C44.4424 56.1444 39.8556 51.5576 34.507 48C39.8556 44.4424 44.4424 39.8556 48 34.507ZM152.975 253.865L163.855 242.135C143.675 223.416 131.094 197.923 128.512 170.52C125.93 143.117 133.528 115.722 149.856 93.5639C166.184 71.4055 190.099 56.0345 217.037 50.384C243.976 44.7336 272.051 49.1993 295.907 62.929L303.906 49.071C276.644 33.3651 244.552 28.2494 213.758 34.7006C182.963 41.1518 155.623 58.718 136.957 84.0456C118.291 109.373 109.606 140.688 112.561 172.012C115.515 203.336 129.902 232.474 152.975 253.865ZM240 272C221.79 271.999 203.854 267.567 187.739 259.087L180.261 273.231C206.99 287.33 237.845 291.519 267.366 285.056C296.886 278.592 323.168 261.894 341.56 237.916C359.953 213.937 369.269 184.226 367.861 154.039C366.452 123.852 354.41 95.1366 333.865 72.975L322.135 83.855C336.95 99.8351 346.782 119.79 350.425 141.274C354.068 162.759 351.365 184.839 342.647 204.81C333.928 224.781 319.573 241.775 301.341 253.709C283.109 265.644 261.791 272 240 272Z" fill="url(#paint0_linear_589_70)"/>
<path d="M236.115 73.007L164.115 113.007C162.868 113.7 161.829 114.714 161.105 115.943C160.382 117.173 160 118.573 160 120V200C160 201.427 160.382 202.827 161.105 204.057C161.829 205.286 162.868 206.3 164.115 206.993L236.115 246.993C237.303 247.653 238.641 248 240 248C241.359 248 242.697 247.653 243.885 246.993L315.885 206.993C317.132 206.3 318.171 205.286 318.895 204.057C319.618 202.827 320 201.427 320 200V120C320 118.573 319.618 117.173 318.895 115.943C318.171 114.714 317.132 113.7 315.885 113.007L243.885 73.007C242.696 72.3471 241.359 72.0008 240 72.0008C238.641 72.0008 237.304 72.3471 236.115 73.007ZM304 195.293L240 230.849L176 195.293V124.707L240 89.151L304 124.707V195.293Z" fill="url(#paint1_linear_589_70)"/>
<path d="M204.422 128.845L211.578 143.155L239.65 129.119L272 148.53V176H288V144C288 142.619 287.642 141.261 286.961 140.059C286.281 138.856 285.3 137.851 284.116 137.14L244.116 113.14C242.962 112.448 241.652 112.058 240.307 112.006C238.962 111.954 237.626 112.243 236.422 112.845L204.422 128.845Z" fill="url(#paint2_linear_589_70)"/>
<path d="M435.712 196.841C438.566 184.769 440.005 172.405 440 160C440 71.775 368.224 0 280 0H240C151.776 0 80 71.775 80 160C79.9834 179.15 83.4218 198.147 90.15 216.076C66.153 223.553 45.336 235.84 29.444 252.033C10.182 271.663 0 295.165 0 320V376C0 404.315 15.35 430.744 43.22 450.418C70.245 469.494 106.036 480 144 480C181.964 480 217.755 469.494 244.78 450.418C259.201 440.238 270.26 428.248 277.584 415.125C296.489 421.048 316.189 424.041 336 424C373.964 424 409.755 413.494 436.78 394.418C464.65 374.744 480 348.315 480 320V272C480 243.462 463.945 216.37 435.712 196.841ZM464 272C464 320.523 406.58 360 336 360C319.78 360.055 303.63 357.886 288 353.552V337.159C303.584 341.755 319.753 344.059 336 344C365.24 344 392.845 336.922 413.732 324.068C435.83 310.47 448 291.978 448 272C448 255.898 439.81 240.407 424.85 227.912C427.12 223.09 429.146 218.157 430.92 213.132C452.074 229.264 464 250.268 464 272ZM344 375.838C354.755 375.428 365.458 374.133 376 371.967V403.594C365.482 405.962 354.772 407.378 344 407.823V375.838ZM391.686 368C402.914 364.655 413.748 360.109 424 354.439V383.844C414.02 390.265 403.268 395.397 392 399.119V368H391.686ZM393.9 72C401.508 81.8136 407.815 92.5694 412.665 104H389.878C385.659 92.7532 380.184 82.0186 373.557 72H393.9ZM432 272C432 286.213 422.534 299.864 405.346 310.441C386.946 321.765 362.32 328 336 328C319.689 328.095 303.474 325.512 288 320.353V320C288 319.934 287.995 319.866 287.995 319.8C314.212 318.469 339.699 310.713 362.213 297.215C384.727 283.717 403.578 264.891 417.105 242.394C426.752 251.31 432 261.624 432 272ZM399.8 152C399.27 141.196 397.641 130.474 394.938 120H418.342C421.359 130.426 423.182 141.162 423.774 152H399.8ZM399.8 168H423.774C423.182 178.838 421.359 189.574 418.342 200H394.938C397.641 189.526 399.27 178.804 399.8 168ZM389.878 216H412.665C407.815 227.431 401.508 238.186 393.9 248H373.557C380.184 237.981 385.659 227.247 389.878 216ZM361.486 264H379.498C362.88 279.928 342.687 291.641 320.611 298.16C336.036 289.119 349.85 277.575 361.486 264ZM379.498 56H361.486C349.85 42.4249 336.036 30.8805 320.611 21.84C342.687 28.3586 362.88 40.0724 379.498 56ZM240 16C319.402 16 384 80.598 384 160C384 239.402 319.402 304 240 304C160.598 304 96 239.402 96 160C96 80.598 160.598 16 240 16ZM40.864 263.24C55.037 248.797 74.567 237.486 96.569 230.846C98.9832 235.715 101.644 240.457 104.541 245.055C61.181 256.55 32 286.025 32 320C32 332.767 36.257 345.445 44.312 356.665L57.31 347.335C51.132 338.729 48 329.533 48 320C48 305.848 54.926 292.383 68.03 281.062C79.946 270.769 96.26 263.106 114.497 259.128C118.361 264.012 122.504 268.669 126.906 273.074C110.068 275.214 94.789 280.491 83.472 288.262L92.528 301.452C104.979 292.902 123.74 288 144 288V287.919C162.815 302.098 184.54 311.929 207.61 316.703C207.863 317.784 207.993 318.89 208 320C208 331.19 194.285 342.495 173.871 348.13L178.129 363.554C206.423 355.742 224 339.054 224 320C224 319.733 223.99 319.467 223.982 319.2C229.251 319.727 234.591 319.993 240 320H272C272 372.935 214.58 416 144 416C73.42 416 16 372.935 16 320C16 299.442 24.598 279.815 40.864 263.24ZM56 408.735C66.0877 414.763 76.8219 419.637 88 423.263V455.119C76.7318 451.397 65.9797 446.265 56 439.844V408.735ZM104 427.647C114.522 429.982 125.231 431.38 136 431.825V463.823C125.228 463.378 114.518 461.962 104 459.594V427.647ZM152 431.825C162.769 431.38 173.478 429.982 184 427.647V459.594C173.482 461.962 162.772 463.378 152 463.823V431.825ZM200 423.263C211.178 419.637 221.912 414.763 232 408.735V439.845C222.02 446.266 211.268 451.398 200 455.119V423.263ZM16 376V371.524C22.6384 381.361 30.7304 390.135 40 397.546V427.241C24.903 412.8 16 395.102 16 376ZM248 427.241V397.546C257.27 390.135 265.362 381.361 272 371.524V376C272 395.102 263.097 412.8 248 427.241ZM288 376V370.12C301.096 373.425 314.503 375.343 328 375.842V407.826C313.102 407.209 298.342 404.71 284.072 400.386C286.669 392.518 287.995 384.286 288 376ZM464 320C464 339.102 455.097 356.8 440 371.241V344.064C449.181 337.281 457.274 329.137 464 319.914V320Z" fill="url(#paint3_linear_589_70)"/>
<path d="M82.537 369.021L74.717 382.981C94.594 394.114 118.552 400 144 400C190.938 400 233.218 378.957 249.207 347.638L234.957 340.362C221.631 366.462 185.079 384 144 384C121.607 384 99.78 378.68 82.537 369.021ZM336 448C323.075 448.014 310.175 446.841 297.464 444.496L294.536 460.226C308.213 462.75 322.092 464.014 336 464C372.801 464 408.7 455.104 437.085 438.953L429.172 425.047C403.161 439.849 370.072 448 336 448ZM443.22 415.897L452.78 428.726C458.898 424.19 464.605 419.123 469.834 413.586L458.167 402.638C453.583 407.488 448.581 411.925 443.219 415.898L443.22 415.897ZM46.301 110.006C44.8859 115.51 43.7062 121.072 42.765 126.676L58.545 129.324C59.4104 124.17 60.495 119.055 61.796 113.994L46.301 110.006ZM40.684 143.343C40.2286 148.884 40.0004 154.441 40 160C39.9917 176.863 42.1087 193.66 46.301 209.994L61.796 206.006C57.9389 190.975 55.9916 175.518 56 160C56 154.89 56.212 149.728 56.63 144.657L40.684 143.343Z" fill="url(#paint4_linear_589_70)"/>
<defs>
<linearGradient id="paint0_linear_589_70" x1="15.7166" y1="-0.766661" x2="351.517" y2="338.483" gradientUnits="userSpaceOnUse">
<stop stop-color="#1BA2D7"/>
<stop offset="1" stop-color="#8D3DFA"/>
</linearGradient>
<linearGradient id="paint1_linear_589_70" x1="166.833" y1="71.6341" x2="326.861" y2="218.61" gradientUnits="userSpaceOnUse">
<stop stop-color="#1BA2D7"/>
<stop offset="1" stop-color="#8D3DFA"/>
</linearGradient>
<linearGradient id="paint2_linear_589_70" x1="207.991" y1="111.867" x2="264.221" y2="186.052" gradientUnits="userSpaceOnUse">
<stop stop-color="#1BA2D7"/>
<stop offset="1" stop-color="#8D3DFA"/>
</linearGradient>
<linearGradient id="paint3_linear_589_70" x1="20.5" y1="-0.999992" x2="458.5" y2="441.5" gradientUnits="userSpaceOnUse">
<stop stop-color="#1BA2D7"/>
<stop offset="1" stop-color="#8D3DFA"/>
</linearGradient>
<linearGradient id="paint4_linear_589_70" x1="58.3575" y1="109.268" x2="374.765" y2="497.411" gradientUnits="userSpaceOnUse">
<stop stop-color="#1BA2D7"/>
<stop offset="1" stop-color="#8D3DFA"/>
</linearGradient>
</defs>
</svg>
