<svg width="462" height="513" viewBox="0 0 462 513" fill="none" xmlns="http://www.w3.org/2000/svg">
<path d="M427.815 292.273C420.461 288.028 412.367 285.223 403.965 284.008V228.173C414.822 226.589 425.127 222.37 433.979 215.886C442.831 209.402 449.961 200.85 454.746 190.975C459.532 181.101 461.826 170.205 461.43 159.239C461.034 148.274 457.96 137.572 452.475 128.068C446.99 118.565 439.262 110.548 429.965 104.72C420.669 98.8908 410.087 95.4267 399.143 94.6299C388.199 93.8332 377.227 95.7279 367.184 100.149C357.141 104.569 348.333 111.382 341.53 119.991L293.135 92.0445C297.191 81.8497 298.69 70.8167 297.499 59.9092C296.309 49.0017 292.466 38.5516 286.305 29.4719C280.145 20.3921 271.856 12.9588 262.16 7.82134C252.465 2.6839 241.659 -0.00140535 230.687 5.51761e-07C219.715 0.00140645 208.91 2.68948 199.216 7.82941C189.522 12.9693 181.234 20.4047 175.077 29.4861C168.919 38.5675 165.078 49.0185 163.891 59.9263C162.703 70.8341 164.204 81.8667 168.264 92.0605L119.864 119.997C113.064 111.393 104.261 104.585 94.2243 100.167C84.1873 95.7488 73.2212 93.8555 62.2839 94.6521C51.3466 95.4487 40.7707 98.9111 31.4798 104.737C22.1889 110.562 14.4657 118.574 8.98454 128.073C3.51447 137.574 0.449611 148.268 0.0567671 159.224C-0.336076 170.18 1.95501 181.066 6.73057 190.934C11.5061 200.803 18.6214 209.354 27.457 215.844C36.2926 222.335 46.5806 226.567 57.4255 228.173V283.973C46.5782 285.574 36.287 289.803 27.4485 296.293C18.61 302.782 11.4925 311.334 6.71592 321.204C1.93936 331.074 -0.35126 341.962 0.0436293 352.919C0.438518 363.877 3.50694 374.572 8.98154 384.073C14.0597 392.876 21.0696 400.413 29.4831 406.114C37.8966 411.815 47.4943 415.533 57.5531 416.987C67.6119 418.441 77.8694 417.593 87.553 414.507C97.2365 411.421 106.093 406.178 113.457 399.173C113.72 398.959 113.968 398.727 114.199 398.479C116.222 396.489 118.115 394.371 119.868 392.14L168.262 420.08C163.384 432.312 162.219 445.711 164.912 458.602C167.605 471.494 174.036 483.306 183.404 492.563C183.757 492.991 184.16 493.376 184.604 493.71C197.059 505.506 213.563 512.077 230.717 512.071C247.872 512.064 264.371 505.48 276.817 493.675C277.226 493.363 277.6 493.007 277.931 492.613C287.312 483.358 293.757 471.544 296.461 458.646C299.164 445.749 298.006 432.34 293.131 420.098L341.522 392.148C347.799 400.09 355.789 406.514 364.896 410.938C374.002 415.363 383.989 417.675 394.114 417.702C400.02 417.697 405.9 416.919 411.605 415.386C424.441 411.943 435.968 404.771 444.73 394.778C453.491 384.785 459.093 372.419 460.828 359.243C462.563 346.067 460.353 332.672 454.476 320.752C448.6 308.831 439.322 298.921 427.815 292.273ZM420.815 207.718C411.326 213.193 400.38 215.61 389.468 214.639C378.556 213.668 368.208 209.357 359.836 202.292C361.477 194.392 365.79 187.299 372.047 182.206C378.304 177.112 386.125 174.329 394.193 174.324C402.261 174.319 410.085 177.093 416.348 182.179C422.612 187.265 426.932 194.353 428.584 202.251C426.16 204.298 423.56 206.127 420.814 207.717L420.815 207.718ZM381.827 147.903C381.832 145.454 382.563 143.061 383.928 141.028C385.293 138.994 387.229 137.411 389.493 136.477C391.758 135.544 394.248 135.303 396.649 135.784C399.05 136.265 401.255 137.447 402.984 139.181C404.714 140.915 405.891 143.122 406.367 145.525C406.842 147.927 406.595 150.416 405.657 152.678C404.718 154.94 403.13 156.873 401.093 158.233C399.057 159.593 396.663 160.319 394.214 160.319C392.585 160.317 390.972 159.994 389.468 159.37C387.964 158.745 386.598 157.829 385.447 156.676C384.297 155.523 383.385 154.155 382.763 152.649C382.142 151.144 381.823 149.53 381.826 147.902L381.827 147.903ZM367.613 115.612C375.67 110.929 384.822 108.459 394.141 108.452C398.816 108.455 403.471 109.071 407.986 110.286C414.74 112.075 421.073 115.187 426.616 119.442C432.159 123.697 436.803 129.01 440.278 135.073C443.786 141.113 446.062 147.79 446.973 154.716C447.884 161.642 447.412 168.68 445.585 175.423C444.219 180.541 442.1 185.428 439.296 189.923C434.468 178.737 425.649 169.75 414.558 164.711C417.746 160.851 419.771 156.164 420.396 151.197C421.021 146.23 420.22 141.187 418.087 136.658C415.953 132.129 412.576 128.301 408.349 125.619C404.121 122.937 399.218 121.513 394.212 121.513C389.206 121.513 384.303 122.937 380.075 125.619C375.848 128.301 372.471 132.129 370.338 136.658C368.204 141.187 367.404 146.23 368.028 151.197C368.653 156.164 370.678 160.851 373.867 164.711C362.787 169.746 353.975 178.721 349.144 189.891C348.806 189.35 348.467 188.81 348.144 188.255C341.108 176.036 339.206 161.526 342.856 147.907C346.506 134.288 355.409 122.673 367.612 115.611L367.613 115.612ZM230.709 14.0725C240.206 14.0673 249.531 16.6069 257.714 21.4271C265.896 26.2472 272.638 33.1719 277.238 41.4808C281.838 49.7896 284.127 59.1792 283.868 68.6727C283.609 78.1663 280.811 87.4169 275.765 95.4625C270.931 84.3011 262.126 75.3312 251.057 70.2905C254.248 66.4285 256.275 61.7384 256.901 56.7676C257.527 51.7969 256.726 46.7507 254.591 42.2181C252.457 37.6855 249.077 33.8536 244.847 31.1697C240.616 28.4858 235.71 27.0607 230.7 27.0607C225.69 27.0607 220.783 28.4858 216.553 31.1697C212.322 33.8536 208.942 37.6855 206.808 42.2181C204.674 46.7507 203.873 51.7969 204.498 56.7676C205.124 61.7384 207.151 66.4285 210.343 70.2905C199.273 75.3304 190.467 84.298 185.629 95.4575C180.581 87.4107 177.782 78.1579 177.523 68.6623C177.265 59.1668 179.556 49.7755 184.159 41.466C188.762 33.1564 195.508 26.2325 203.694 21.4148C211.881 16.597 221.209 14.0617 230.709 14.0725ZM218.295 53.5065C218.292 51.0542 219.017 48.6561 220.377 46.6156C221.737 44.5751 223.672 42.9837 225.937 42.0427C228.201 41.1017 230.694 40.8534 233.1 41.3291C235.506 41.8047 237.716 42.9831 239.452 44.7152C241.189 46.4472 242.372 48.6552 242.853 51.0598C243.335 53.4645 243.092 55.9579 242.156 58.2247C241.221 60.4916 239.634 62.43 237.597 63.7951C235.559 65.1601 233.163 65.8904 230.711 65.8935C227.424 65.8901 224.272 64.5849 221.945 62.2634C219.618 59.942 218.306 56.7934 218.295 53.5065ZM230.711 79.8975C238.775 79.8912 246.594 82.6639 252.853 87.7488C259.112 92.8337 263.427 99.9201 265.073 107.815C255.48 115.979 243.294 120.463 230.696 120.462C218.099 120.46 205.914 115.975 196.323 107.809C197.975 99.9136 202.295 92.8285 208.558 87.7452C214.82 82.6619 222.643 79.8906 230.709 79.8975H230.711ZM21.1105 135.073C24.6023 129.023 29.2514 123.721 34.7925 119.468C40.3335 115.215 46.6579 112.095 53.4046 110.287C60.1513 108.478 67.1881 108.016 74.1133 108.927C81.0386 109.838 87.7166 112.104 93.766 115.596C99.8155 119.088 105.118 123.737 109.371 129.278C113.623 134.819 116.743 141.143 118.552 147.89C120.36 154.637 120.822 161.674 119.911 168.599C119 175.524 116.734 182.202 113.243 188.252C112.925 188.802 112.589 189.336 112.255 189.872C107.414 178.715 98.607 169.751 87.5375 164.715C90.729 160.854 92.7566 156.166 93.3836 151.197C94.0106 146.228 93.211 141.183 91.0784 136.651C88.9457 132.119 85.5678 128.287 81.3392 125.603C77.1106 122.919 72.2057 121.493 67.1971 121.492C62.1885 121.491 57.283 122.915 53.0532 125.597C48.8234 128.279 45.4438 132.11 43.3091 136.64C41.1744 141.171 40.3727 146.216 40.9975 151.185C41.6222 156.155 43.6477 160.844 46.8375 164.706C35.7443 169.746 26.9241 178.735 22.0945 189.922C19.2901 185.427 17.1705 180.54 15.8055 175.422C13.9779 168.679 13.5057 161.642 14.4163 154.716C15.327 147.79 17.6023 141.113 21.1105 135.073ZM54.7885 147.9C54.7917 145.447 55.5219 143.051 56.8869 141.014C58.2519 138.976 60.1903 137.389 62.4571 136.454C64.7239 135.518 67.2172 135.275 69.6219 135.757C72.0265 136.238 74.2345 137.421 75.9665 139.157C77.6986 140.893 78.8771 143.104 79.3529 145.51C79.8287 147.915 79.5805 150.408 78.6397 152.673C77.6988 154.937 76.1076 156.872 74.0672 158.233C72.0268 159.593 69.6289 160.318 67.1765 160.316C65.548 160.314 63.9357 159.992 62.4317 159.367C60.9278 158.742 59.5616 157.827 58.4112 156.674C57.2609 155.522 56.3488 154.154 55.7273 152.648C55.1057 151.143 54.7867 149.53 54.7885 147.902V147.9ZM32.8075 202.251C34.461 194.353 38.7826 187.266 45.0461 182.18C51.3095 177.094 59.1329 174.319 67.2013 174.322C75.2697 174.325 83.0911 177.105 89.351 182.196C95.6109 187.286 99.9276 194.376 101.576 202.275C93.2022 209.346 82.8518 213.662 71.9355 214.636C61.0192 215.61 50.0682 213.193 40.5755 207.716C37.83 206.127 35.2306 204.298 32.8075 202.251ZM40.6015 304.401C50.882 298.469 62.8511 296.147 74.6035 297.805C86.356 299.462 97.2163 305.003 105.456 313.546C113.695 322.089 118.84 333.143 120.071 344.947C121.302 356.752 118.549 368.629 112.25 378.689C107.409 367.535 98.6033 358.573 87.5365 353.537C90.727 349.676 92.7537 344.988 93.38 340.019C94.0062 335.05 93.2062 330.006 91.0734 325.475C88.9405 320.944 85.5628 317.112 81.3345 314.429C77.1062 311.745 72.2018 310.319 67.1937 310.318C62.1855 310.317 57.2804 311.74 53.0508 314.422C48.8212 317.103 45.4416 320.933 43.3065 325.463C41.1714 329.993 40.369 335.037 40.9928 340.006C41.6166 344.976 43.6409 349.665 46.8295 353.527C35.7511 358.56 26.9399 367.533 22.1085 378.702C21.7715 378.164 21.4315 377.628 21.1085 377.074C14.0804 364.846 12.1857 350.331 15.8395 336.709C19.4932 323.088 28.3976 311.469 40.6015 304.401ZM54.7885 336.72C54.7915 334.267 55.5216 331.871 56.8864 329.833C58.2513 327.796 60.1897 326.209 62.4564 325.273C64.7232 324.337 67.2166 324.094 69.6213 324.576C72.026 325.057 74.234 326.24 75.9662 327.976C77.6984 329.712 78.8769 331.923 79.3528 334.328C79.8287 336.734 79.5806 339.227 78.6398 341.492C77.6989 343.756 76.1077 345.691 74.0673 347.052C72.0269 348.412 69.6289 349.137 67.1765 349.135C65.5479 349.133 63.9355 348.811 62.4315 348.186C60.9275 347.561 59.5612 346.646 58.4109 345.493C57.2605 344.34 56.3485 342.972 55.727 341.467C55.1055 339.961 54.7866 338.348 54.7885 336.72ZM93.7785 396.535C84.2861 402.002 73.339 404.41 62.4286 403.431C51.5182 402.451 41.1748 398.133 32.8075 391.063C34.4614 383.171 38.78 376.088 45.0383 371.004C51.2966 365.919 59.1137 363.143 67.177 363.14C75.2404 363.138 83.0591 365.909 89.3205 370.99C95.582 376.071 99.9049 383.151 101.564 391.042C99.1376 393.101 96.5322 394.94 93.7785 396.535ZM196.325 485.427C197.983 477.539 202.305 470.461 208.563 465.382C214.822 460.303 222.638 457.531 230.698 457.532C238.758 457.532 246.573 460.306 252.831 465.386C259.089 470.466 263.409 477.544 265.067 485.433C255.472 493.591 243.288 498.07 230.694 498.069C218.1 498.068 205.918 493.586 196.325 485.427ZM218.295 431.114C218.298 428.662 219.027 426.267 220.391 424.23C221.754 422.193 223.691 420.606 225.956 419.67C228.221 418.733 230.713 418.489 233.117 418.967C235.521 419.446 237.729 420.627 239.462 422.36C241.196 424.093 242.376 426.301 242.855 428.705C243.334 431.109 243.09 433.601 242.154 435.866C241.217 438.131 239.63 440.068 237.594 441.432C235.557 442.796 233.162 443.525 230.711 443.529C227.418 443.529 224.26 442.221 221.931 439.892C219.603 437.564 218.295 434.406 218.295 431.114ZM275.764 473.094C270.927 461.934 262.121 452.967 251.052 447.928C254.245 444.066 256.274 439.376 256.902 434.404C257.529 429.433 256.729 424.385 254.595 419.852C252.462 415.318 249.082 411.485 244.851 408.8C240.62 406.115 235.712 404.689 230.702 404.689C225.691 404.689 220.783 406.115 216.552 408.8C212.321 411.485 208.941 415.318 206.808 419.852C204.674 424.385 203.874 429.433 204.501 434.404C205.129 439.376 207.158 444.066 210.352 447.928C199.281 452.965 190.474 461.931 185.634 473.089C180.586 465.039 177.787 455.784 177.527 446.286C177.268 436.788 179.557 427.394 184.157 419.08C188.757 410.767 195.5 403.837 203.684 399.012C211.869 394.186 221.197 391.641 230.699 391.641C240.2 391.641 249.528 394.186 257.713 399.012C265.897 403.837 272.64 410.767 277.24 419.08C281.84 427.394 284.129 436.788 283.87 446.286C283.61 455.784 280.811 465.039 275.764 473.089V473.094ZM286.628 407.689C280.505 398.462 272.195 390.894 262.438 385.658C252.682 380.422 241.781 377.681 230.708 377.68C219.635 377.678 208.734 380.416 198.976 385.649C189.218 390.882 180.906 398.448 174.781 407.673L127.363 380.297C131.781 371.388 134.166 361.609 134.346 351.666C134.526 341.724 132.496 331.865 128.403 322.802C124.309 313.739 118.254 305.699 110.675 299.26C103.097 292.822 94.1829 288.147 84.5775 285.573C80.2766 284.417 75.8724 283.687 71.4285 283.395V228.744C75.8702 228.451 80.2724 227.723 84.5715 226.57C95.6708 223.619 105.821 217.855 114.043 209.836L114.102 209.777C124.261 199.852 131.015 186.964 133.397 172.963C135.778 158.962 133.663 144.566 127.357 131.841L174.776 104.473C177.324 108.289 180.254 111.837 183.521 115.062C183.816 115.404 184.145 115.716 184.501 115.996C196.964 127.861 213.515 134.476 230.724 134.47C247.933 134.463 264.479 127.836 276.934 115.961C277.255 115.705 277.552 115.421 277.824 115.113C281.113 111.871 284.061 108.302 286.624 104.461L334.036 131.838C329.128 141.759 326.746 152.738 327.101 163.802C327.455 174.865 330.535 185.669 336.068 195.256C341.6 204.843 349.413 212.916 358.815 218.758C368.216 224.601 378.914 228.032 389.96 228.748V283.448C378.909 284.142 368.202 287.558 358.792 293.391C349.382 299.225 341.56 307.296 336.024 316.884C330.488 326.472 327.409 337.281 327.061 348.347C326.713 359.414 329.108 370.395 334.032 380.312L286.628 407.689ZM407.987 401.861C399.688 404.09 390.971 404.272 382.587 402.391C374.202 400.51 366.399 396.622 359.848 391.061C361.501 383.164 365.823 376.078 372.086 370.994C378.35 365.91 386.173 363.137 394.241 363.143C402.308 363.149 410.128 365.933 416.384 371.026C422.64 376.12 426.952 383.212 428.594 391.111C422.605 396.176 415.565 399.847 407.985 401.861H407.987ZM381.828 336.72C381.833 334.271 382.564 331.878 383.928 329.844C385.293 327.811 387.23 326.227 389.494 325.294C391.758 324.36 394.248 324.119 396.649 324.6C399.05 325.081 401.255 326.263 402.985 327.997C404.715 329.73 405.892 331.938 406.368 334.34C406.843 336.743 406.596 339.232 405.658 341.494C404.719 343.756 403.131 345.689 401.094 347.049C399.058 348.409 396.664 349.135 394.215 349.135C392.586 349.133 390.973 348.811 389.469 348.186C387.965 347.561 386.599 346.646 385.448 345.493C384.298 344.341 383.386 342.972 382.764 341.467C382.142 339.961 381.824 338.348 381.826 336.72H381.828ZM440.278 377.073C439.955 377.623 439.622 378.167 439.278 378.705C434.447 367.534 425.635 358.56 414.555 353.526C417.743 349.666 419.767 344.979 420.392 340.012C421.016 335.045 420.215 330.003 418.082 325.474C415.949 320.945 412.572 317.116 408.344 314.435C404.117 311.753 399.214 310.329 394.208 310.329C389.202 310.329 384.299 311.753 380.072 314.435C375.844 317.116 372.467 320.945 370.334 325.474C368.201 330.003 367.4 335.045 368.024 340.012C368.649 344.979 370.673 349.666 373.862 353.526C362.785 358.56 353.974 367.532 349.142 378.699C344.142 370.716 341.352 361.55 341.057 352.136C340.761 342.723 342.97 333.399 347.458 325.119C351.946 316.839 358.553 309.899 366.602 305.008C374.651 300.118 383.855 297.452 393.272 297.284C402.688 297.116 411.981 299.452 420.2 304.052C428.418 308.652 435.268 315.352 440.049 323.467C444.829 331.582 447.37 340.82 447.41 350.239C447.45 359.657 444.989 368.917 440.278 377.073ZM230.709 158.645C211.438 158.639 192.598 164.348 176.573 175.05C160.547 185.752 148.055 200.966 140.676 218.768C133.298 236.57 131.364 256.161 135.12 275.062C138.876 293.963 148.153 311.326 161.777 324.954C175.402 338.583 192.762 347.865 211.662 351.626C230.562 355.388 250.153 353.46 267.957 346.087C285.761 338.714 300.979 326.226 311.686 310.204C322.393 294.181 328.108 275.343 328.108 256.073C328.079 230.247 317.809 205.487 299.55 187.223C281.291 168.958 256.534 158.681 230.709 158.645ZM253.441 336.321C248.302 337.779 243.034 338.737 237.711 339.181V288.981H274.111C270.237 305.896 263.236 321.938 253.467 336.281C253.455 336.295 253.449 336.309 253.441 336.321ZM207.495 336.186C197.887 321.847 191.043 305.839 187.318 288.986H223.707V339.186C218.216 338.727 212.785 337.722 207.495 336.186ZM147.285 256.073C147.289 249.707 148.022 243.364 149.472 237.166H172.272C170.91 245.761 170.266 254.454 170.348 263.157C170.396 267.125 170.62 271.065 170.986 274.98H149.472C148.023 268.781 147.289 262.438 147.285 256.073ZM186.468 237.166H223.707V274.98H185.088C183.837 262.37 184.301 249.65 186.468 237.166ZM223.707 172.966V223.166H189.465C193.913 206.619 200.333 190.667 208.588 175.653C213.533 174.291 218.595 173.391 223.707 172.965V172.966ZM253.695 175.897C261.81 190.844 268.098 206.713 272.423 223.162H237.711V172.962C243.122 173.414 248.476 174.397 253.695 175.897ZM237.711 274.98V237.166H275.318C277.406 249.661 277.785 262.382 276.445 274.98H237.711ZM289.501 237.166H311.919C314.833 249.602 314.833 262.543 311.919 274.98H290.536C290.961 270.748 291.223 266.487 291.275 262.193C291.354 253.816 290.761 245.447 289.501 237.166ZM307.329 223.166H286.819C283.647 209.884 279.195 196.942 273.526 184.52C288.553 193.553 300.373 207.066 307.329 223.162V223.166ZM188.802 183.984C182.945 196.563 178.331 209.685 175.026 223.162H154.064C161.169 206.732 173.341 193.004 188.802 183.984ZM154.064 288.984H172.995C175.528 301.905 179.781 314.429 185.641 326.221C171.657 317.212 160.667 304.251 154.064 288.984ZM275.378 326.467C281.399 314.616 285.796 302.008 288.451 288.984H307.329C300.667 304.392 289.537 317.449 275.378 326.467Z" fill="url(#paint0_linear_1153_1082)"/>
<defs>
<linearGradient id="paint0_linear_1153_1082" x1="16.4653" y1="33.0047" x2="508.573" y2="541.972" gradientUnits="userSpaceOnUse">
<stop stop-color="#1BA2D7"/>
<stop offset="1" stop-color="#8D3DFA"/>
</linearGradient>
</defs>
</svg>
