<svg width="467" height="480" viewBox="0 0 467 480" fill="none" xmlns="http://www.w3.org/2000/svg">
<path fill-rule="evenodd" clip-rule="evenodd" d="M58.8391 433.212L324.857 433.211C330.502 433.211 335.361 430.83 338.819 426.368C342.277 421.907 343.374 416.61 341.967 411.143C324.76 344.286 264.076 294.883 191.849 294.883C119.621 294.883 58.9361 344.286 41.7301 411.144C40.3231 416.611 41.4191 421.908 44.8781 426.369C48.3351 430.83 53.1941 433.212 58.8391 433.212Z" fill="#8AC9FE"/>
<path fill-rule="evenodd" clip-rule="evenodd" d="M324.857 433.211C330.502 433.211 335.36 430.829 338.819 426.368C342.277 421.907 343.374 416.61 341.966 411.143C324.759 344.286 264.075 294.883 191.848 294.883C185.874 294.883 179.981 295.228 174.182 295.886C238.483 303.182 290.851 349.817 306.634 411.143C308.041 416.61 306.944 421.907 303.486 426.368C300.028 430.829 295.169 433.211 289.524 433.211H324.857Z" fill="#60B7FF"/>
<path d="M269.127 219.655C276.443 176.994 247.789 136.479 205.128 129.164C162.467 121.849 121.953 150.503 114.638 193.165C107.323 235.826 135.976 276.34 178.637 283.655C221.298 290.971 261.812 262.317 269.127 219.655Z" fill="#F6DCCD"/>
<path fill-rule="evenodd" clip-rule="evenodd" d="M191.849 128.164C235.133 128.164 270.222 163.253 270.222 206.537C270.222 249.821 235.133 284.91 191.849 284.91C188.12 284.91 184.453 284.643 180.863 284.14C218.945 278.797 248.25 246.092 248.25 206.538C248.25 166.983 218.945 134.278 180.863 128.935C184.503 128.423 188.174 128.165 191.849 128.164Z" fill="#F1CBBC"/>
<path d="M379.815 479.998C427.959 479.998 466.988 440.97 466.988 392.825C466.988 344.681 427.959 305.652 379.815 305.652C331.67 305.652 292.642 344.681 292.642 392.825C292.642 440.97 331.67 479.998 379.815 479.998Z" fill="#ECEFF1"/>
<path fill-rule="evenodd" clip-rule="evenodd" d="M379.815 305.652C427.959 305.652 466.988 344.681 466.988 392.825C466.988 440.969 427.959 479.998 379.815 479.998C377.176 479.998 374.566 479.874 371.987 479.644C416.463 475.685 451.332 438.33 451.332 392.825C451.332 347.32 416.463 309.965 371.987 306.006C374.59 305.772 377.202 305.654 379.815 305.652Z" fill="#D1D1D6"/>
<path fill-rule="evenodd" clip-rule="evenodd" d="M368.365 400.515L410.753 357.704C415.771 352.636 423.956 352.622 429.009 357.647C434.061 362.671 434.077 370.833 429.065 375.892C411.877 393.24 394.804 410.702 377.536 427.971C372.488 433.019 364.299 433.019 359.251 427.971L330.602 399.322C325.554 394.274 325.554 386.085 330.602 381.037C335.65 375.988 343.839 375.988 348.888 381.037L368.365 400.515Z" fill="#8AC9FE"/>
<path fill-rule="evenodd" clip-rule="evenodd" d="M62.4709 52.6009L76.0909 88.4749C76.2811 88.9948 76.6219 89.4463 77.0699 89.7718C77.5178 90.0972 78.0526 90.2817 78.6059 90.3019L116.933 92.1699C119.54 92.2969 120.607 95.5809 118.573 97.2159L88.6629 121.255C88.2272 121.596 87.9032 122.06 87.7322 122.587C87.5612 123.113 87.551 123.679 87.7029 124.211L97.7699 161.239C98.4549 163.758 95.6619 165.787 93.4779 164.357L61.3719 143.34C60.9125 143.031 60.3715 142.866 59.8179 142.866C59.2643 142.866 58.7232 143.031 58.2639 143.34L26.1589 164.357C23.9749 165.787 21.1819 163.757 21.8669 161.239L31.9339 124.21C32.0854 123.678 32.075 123.112 31.904 122.586C31.733 122.059 31.4092 121.596 30.9739 121.254L1.06389 97.2149C-0.970115 95.5799 0.0968845 92.2959 2.70388 92.1689L41.0309 90.3009C41.5842 90.2807 42.1189 90.0962 42.5669 89.7708C43.0148 89.4453 43.3557 88.9938 43.5459 88.4739L57.1659 52.5999C58.0859 50.1749 61.5499 50.1749 62.4709 52.6009Z" fill="#FFE177"/>
<path fill-rule="evenodd" clip-rule="evenodd" d="M62.4712 52.6008L76.0922 88.4748C76.2813 88.9916 76.6193 89.4409 77.0635 89.7659C77.5077 90.0909 78.0383 90.277 78.5882 90.3008L65.7742 89.6758C65.2209 89.6556 64.6861 89.471 64.2382 89.1456C63.7902 88.8202 63.4494 88.3687 63.2592 87.8488L53.5212 62.2007L57.1662 52.6008C58.0862 50.1747 61.5512 50.1747 62.4712 52.6008ZM104.114 91.5448L116.933 92.1698C119.54 92.2968 120.607 95.5798 118.573 97.2158L88.6642 121.255C88.2285 121.596 87.9045 122.06 87.7333 122.586C87.5621 123.113 87.5517 123.678 87.7032 124.211L97.7702 161.239C98.4552 163.757 95.6622 165.787 93.4782 164.358L84.3272 158.368L74.8712 123.586C74.7197 123.053 74.7301 122.488 74.9011 121.962C75.072 121.435 75.3958 120.972 75.8312 120.63L105.74 96.5908C107.771 94.9578 106.711 91.6828 104.114 91.5448ZM58.2642 143.341L26.1592 164.358C23.9762 165.787 21.1822 163.758 21.8672 161.239L22.8922 157.47L49.8172 139.845C50.2767 139.536 50.8177 139.371 51.3712 139.371C51.9247 139.371 52.4656 139.536 52.9252 139.845L58.2642 143.341Z" fill="#FFD064"/>
<path fill-rule="evenodd" clip-rule="evenodd" d="M194.5 1.81887L208.12 37.6929C208.31 38.2128 208.651 38.6643 209.099 38.9897C209.547 39.3152 210.082 39.4997 210.635 39.5199L248.962 41.3879C251.569 41.5149 252.636 44.7989 250.601 46.4339L220.692 70.4729C220.257 70.8144 219.932 71.278 219.761 71.8045C219.59 72.331 219.58 72.8965 219.732 73.4289L229.799 110.457C230.484 112.975 227.691 115.005 225.507 113.575L193.401 92.5579C192.942 92.2489 192.401 92.0838 191.847 92.0838C191.294 92.0838 190.753 92.2489 190.293 92.5579L158.188 113.575C156.004 115.005 153.211 112.975 153.896 110.457L163.963 73.4279C164.115 72.8955 164.104 72.3301 163.933 71.8036C163.763 71.2772 163.439 70.8136 163.003 70.4719L133.093 46.4329C131.059 44.7979 132.126 41.5139 134.733 41.3869L173.06 39.5189C173.613 39.4987 174.148 39.3142 174.596 38.9888C175.044 38.6633 175.385 38.2118 175.575 37.6919L189.195 1.81788C190.116 -0.606125 193.58 -0.606125 194.5 1.81887Z" fill="#FFE177"/>
<path fill-rule="evenodd" clip-rule="evenodd" d="M194.5 1.8195L208.12 37.6935C208.309 38.2104 208.647 38.6597 209.092 38.9846C209.536 39.3096 210.066 39.4957 210.616 39.5195L197.802 38.8945C197.249 38.8743 196.714 38.6898 196.266 38.3644C195.818 38.039 195.477 37.5875 195.287 37.0675L185.549 11.4195L189.194 1.8195C190.116 -0.6065 193.58 -0.6065 194.5 1.8195ZM236.143 40.7635L248.962 41.3885C251.568 41.5155 252.636 44.7985 250.601 46.4345L220.692 70.4735C220.257 70.8151 219.933 71.2786 219.761 71.8051C219.59 72.3316 219.58 72.8971 219.731 73.4295L229.798 110.458C230.483 112.976 227.69 115.005 225.506 113.576L216.355 107.587L206.899 72.8045C206.748 72.2721 206.758 71.7068 206.929 71.1803C207.1 70.6539 207.424 70.1903 207.859 69.8485L237.768 45.8095C239.8 44.1765 238.74 40.9015 236.143 40.7635ZM190.293 92.5595L158.187 113.576C156.004 115.005 153.211 112.977 153.895 110.458L154.919 106.689L181.844 89.0635C182.304 88.755 182.845 88.5902 183.398 88.5902C183.952 88.5902 184.493 88.755 184.952 89.0635L190.293 92.5595Z" fill="#FFD064"/>
<path fill-rule="evenodd" clip-rule="evenodd" d="M326.529 52.6009L340.149 88.4749C340.34 88.9948 340.681 89.4463 341.128 89.7718C341.576 90.0972 342.111 90.2817 342.664 90.3019L380.991 92.1699C383.598 92.2969 384.665 95.5809 382.63 97.2159L352.721 121.255C352.286 121.596 351.962 122.06 351.791 122.587C351.62 123.113 351.61 123.679 351.761 124.211L361.828 161.239C362.513 163.758 359.72 165.787 357.536 164.357L325.43 143.34C324.971 143.031 324.43 142.866 323.876 142.866C323.323 142.866 322.782 143.031 322.322 143.34L290.217 164.357C288.033 165.787 285.24 163.757 285.925 161.239L295.992 124.21C296.144 123.678 296.134 123.112 295.963 122.586C295.792 122.059 295.468 121.596 295.032 121.254L265.122 97.2149C263.088 95.5799 264.155 92.2959 266.762 92.1689L305.089 90.3009C305.643 90.2807 306.178 90.0962 306.625 89.7708C307.073 89.4453 307.414 88.9938 307.604 88.4739L321.224 52.5999C322.144 50.1749 325.608 50.1749 326.529 52.6009Z" fill="#FFE177"/>
<path fill-rule="evenodd" clip-rule="evenodd" d="M326.53 52.6008L340.15 88.4748C340.339 88.9916 340.677 89.4409 341.121 89.7659C341.565 90.0909 342.096 90.277 342.646 90.3008L329.832 89.6758C329.278 89.6556 328.744 89.471 328.296 89.1456C327.848 88.8202 327.507 88.3687 327.317 87.8488L317.579 62.2007L321.224 52.6008C322.145 50.1747 325.609 50.1747 326.53 52.6008ZM368.172 91.5448L380.991 92.1698C383.597 92.2968 384.665 95.5798 382.63 97.2158L352.721 121.255C352.285 121.596 351.961 122.06 351.79 122.586C351.619 123.113 351.608 123.678 351.76 124.211L361.827 161.239C362.512 163.757 359.719 165.787 357.535 164.358L348.384 158.368L338.928 123.586C338.776 123.053 338.786 122.488 338.957 121.962C339.128 121.435 339.452 120.971 339.888 120.63L369.797 96.5908C371.83 94.9578 370.769 91.6828 368.172 91.5448ZM322.323 143.341L290.218 164.358C288.035 165.787 285.241 163.758 285.926 161.239L286.95 157.47L313.875 139.845C314.334 139.536 314.875 139.371 315.429 139.371C315.982 139.371 316.523 139.536 316.983 139.845L322.323 143.341Z" fill="#FFD064"/>
</svg>
