<svg xmlns="http://www.w3.org/2000/svg" version="1.1" xmlns:xlink="http://www.w3.org/1999/xlink" width="512" height="512" x="0" y="0" viewBox="0 0 512 512" style="enable-background:new 0 0 512 512" xml:space="preserve"><g><path fill="#6aabff" d="M141.1 465.776v31.232c0 8.28 6.716 14.992 15 14.992H256l35.535-78.15L256 364.204s-10.09-12.933-15-12.293c-25.73 3.348-48.79 15.211-66.25 32.662-20.79 20.777-33.65 49.491-33.65 81.203z" opacity="1" data-original="#6aabff"></path><path fill="#5980ff" d="M370.9 465.776v31.232c0 8.28-6.716 14.992-15 14.992H256V364.204s10.09-12.933 15-12.293c25.73 3.348 48.79 15.211 66.25 32.662 20.79 20.777 33.65 49.491 33.65 81.203z" opacity="1" data-original="#5980ff"></path><path fill="#ff9922" d="m507.7 166.236-26.96 27.405 5.69 38.008a14.989 14.989 0 0 1-14.83 17.21c-2.29 0-4.58-.52-6.7-1.579l-34.4-17.15-34.41 17.15a15.012 15.012 0 0 1-15.51-1.279 14.989 14.989 0 0 1-6.02-14.352l5.69-38.008-26.96-27.405a15.007 15.007 0 0 1-3.57-15.141 15.02 15.02 0 0 1 11.8-10.154l37.92-6.337 17.75-34.081a14.988 14.988 0 0 1 13.31-8.075c5.59 0 10.72 3.108 13.3 8.075l17.75 34.081 37.92 6.337a15.02 15.02 0 0 1 11.8 10.154 15.008 15.008 0 0 1-3.57 15.141z" opacity="1" data-original="#ff9922"></path><path fill="#ffbb17" d="m158.71 166.236-26.96 27.405 5.69 38.008a14.989 14.989 0 0 1-14.83 17.21c-2.29 0-4.58-.52-6.7-1.579L81.5 230.13l-34.4 17.15a15.012 15.012 0 0 1-15.51-1.279 14.989 14.989 0 0 1-6.02-14.352l5.69-38.008L4.3 166.236a15.007 15.007 0 0 1-3.57-15.141 15.02 15.02 0 0 1 11.8-10.154l37.92-6.337 17.75-34.081a14.984 14.984 0 0 1 13.3-8.075c5.6 0 10.73 3.108 13.31 8.075l17.75 34.081 37.92 6.337a15.02 15.02 0 0 1 11.8 10.154 15.008 15.008 0 0 1-3.57 15.141zM256 0l55 78.503-55 66.714-37.33 18.609a15.012 15.012 0 0 1-15.51-1.279 14.989 14.989 0 0 1-6.02-14.352l6.17-41.237-29.24-29.733c-3.93-3.988-5.3-9.825-3.57-15.141s6.27-9.235 11.79-10.154l41.15-6.876 19.25-36.979A15.01 15.01 0 0 1 256 0z" opacity="1" data-original="#ffbb17"></path><path fill="#ffccbd" d="m256 238.285 35.535 58.635L256 350.941c-39.25 0-71.07-31.802-71.07-71.03 0-11.614 2.79-22.567 7.72-32.242 16.43 15.792 63.35-9.384 63.35-9.384z" opacity="1" data-original="#ffccbd"></path><path fill="#ffbda9" d="M327.07 279.911c0 39.228-31.82 71.03-71.07 71.03V238.285s46.92 25.176 63.35 9.385c4.93 9.674 7.72 20.628 7.72 32.241z" opacity="1" data-original="#ffbda9"></path><path fill="#8c4d4d" d="m256 208.882 26.674 29.403L256 273.175c-24.6 0-46.92-9.714-63.35-25.505 11.77-23.027 35.72-38.788 63.35-38.788z" opacity="1" data-original="#8c4d4d"></path><path fill="#733333" d="M319.35 247.67c-16.43 15.791-38.75 25.505-63.35 25.505v-64.294c27.63.001 51.58 15.762 63.35 38.789z" opacity="1" data-original="#733333"></path><path fill="#e6f2ff" d="m256 350.941 9.582 28.371L256 417.763c-8.28 0-15-6.716-15-14.991v-50.861c4.91-.64 9.92-.97 15-.97z" opacity="1" data-original="#e6f2ff"></path><path fill="#cce6ff" d="M271 351.911v50.861c0 8.275-6.72 14.991-15 14.991v-66.822c5.08 0 10.09.33 15 .97z" opacity="1" data-original="#cce6ff"></path><path fill="#ff9922" d="m337.93 77.226-29.24 29.733 6.17 41.237a14.989 14.989 0 0 1-14.84 17.21c-2.28 0-4.57-.52-6.69-1.579L256 145.218V0a15.01 15.01 0 0 1 13.31 8.075l19.25 36.979 41.15 6.876c5.52.92 10.06 4.837 11.79 10.154s.36 11.155-3.57 15.142z" opacity="1" data-original="#ff9922"></path></g></svg>