<svg width="512" height="481" viewBox="0 0 512 481" fill="none" xmlns="http://www.w3.org/2000/svg">
<path d="M460.68 152.61C457.459 150.79 440.91 157.758 449.656 141.173C454.952 131.148 457.878 119.671 457.692 107.503C457.043 65.5081 418.808 32.5691 376.174 39.7601C369.261 40.9351 362.419 37.4621 359.421 31.1261C344.142 -1.18393 302.27 -10.4779 275.029 13.4361C276.209 13.5851 277.376 13.7681 278.535 13.9671C277.36 13.8341 276.191 13.657 275.029 13.4361C263.387 23.6461 256 38.7291 256 55.2861C224.617 172.983 222.616 300.251 256 425.681C256.032 442.13 263.253 457.204 275.03 467.532C276.85 467.184 278.61 466.908 280.328 466.677C278.586 467.017 276.821 467.306 275.03 467.532C302.24 491.415 344.133 482.183 359.422 449.842C362.42 443.506 369.261 440.033 376.175 441.208C418.757 448.389 457.044 415.512 457.693 373.465C458.123 345.28 443.307 335.159 446.732 326.569C449.926 325.666 457.991 329.883 460.681 328.358C491.312 311.049 512.001 278.182 512.001 240.483C512 202.784 491.313 169.914 460.68 152.61Z" fill="#FFBED8"/>
<path d="M439.209 306.843C447.771 312.582 454.993 319.804 460.681 328.356C457.886 329.938 455.014 331.382 452.078 332.683C449.605 333.775 448.472 336.588 449.348 339.061C447.901 337.517 443.074 328.02 430.617 319.691C428.915 318.549 427.736 316.778 427.338 314.767C426.94 312.756 427.356 310.67 428.495 308.965C430.863 305.422 435.665 304.474 439.209 306.843ZM430.616 161.272C443.093 152.93 447.984 143.356 449.347 141.902C448.471 144.375 449.605 147.187 452.077 148.28C455.013 149.582 457.884 151.027 460.679 152.608C454.992 161.16 447.77 168.381 439.208 174.12C435.664 176.49 430.862 175.542 428.493 171.998C427.354 170.294 426.939 168.207 427.337 166.196C427.735 164.185 428.914 162.415 430.616 161.272Z" fill="#FF97C1"/>
<path d="M256 55.2842V425.679C256 442.236 248.613 457.32 236.97 467.53C35.731 480.961 25.258 9.01418 236.97 13.4332C248.613 23.6442 256 38.7272 256 55.2842Z" fill="#FFBED8"/>
<path d="M236.97 467.532C209.76 491.415 167.867 482.183 152.578 449.842C149.58 443.506 142.739 440.033 135.825 441.208C93.243 448.389 54.956 415.512 54.307 373.465C54.002 353.429 62.063 340.83 62.653 339.063C71.318 314.598 58.572 332.468 51.32 328.358C20.688 311.049 0 278.182 0 240.484C0 202.785 20.687 169.915 51.32 152.61C54.541 150.79 71.09 157.758 62.344 141.173C57.048 131.148 54.122 119.671 54.308 107.503C54.957 65.5081 93.192 32.5691 135.826 39.7601C142.739 40.9351 149.581 37.4621 152.579 31.1261C167.858 -1.18393 209.73 -10.4779 236.971 13.4361C183.374 20.2051 151.054 79.0771 177.059 128.397C178.625 131.364 177.399 135.053 174.329 136.413C143.183 150.26 119.403 177.677 110.502 211.162C96.109 265.263 123.175 321.817 174.329 344.556C177.399 345.916 178.625 349.604 177.059 352.572C151.053 401.912 183.374 460.763 236.97 467.532Z" fill="#FF97C1"/>
<path d="M240.485 147.392V85.3314C240.485 76.7624 247.431 69.8164 256 69.8164C264.569 69.8164 271.515 76.7624 271.515 85.3314V147.392C273.064 171.696 238.312 172.451 240.485 147.392Z" fill="#928CD9"/>
<path d="M178.424 159.145V116.363C178.424 107.794 185.37 100.848 193.939 100.848C202.508 100.848 209.454 107.794 209.454 116.363V147.393C216.379 168.209 186.934 179.572 178.424 159.145Z" fill="#736ACC"/>
<path d="M333.576 159.145V116.363C333.576 107.794 326.63 100.848 318.061 100.848C309.492 100.848 302.546 107.794 302.546 116.363V147.393C299.093 167.411 323.405 178.939 333.576 159.145ZM240.485 333.576V395.637C240.485 404.206 247.431 411.152 256 411.152C264.569 411.152 271.515 404.206 271.515 395.637V333.576C271.372 309.98 242.399 312.222 240.485 333.576Z" fill="#928CD9"/>
<path d="M178.424 321.821V364.603C178.424 373.172 185.37 380.118 193.939 380.118C202.508 380.118 209.454 373.172 209.454 364.603V333.573C213.384 313.948 188.497 305.197 178.424 321.821Z" fill="#736ACC"/>
<path d="M333.576 321.825V364.607C333.576 373.176 326.63 380.122 318.061 380.122C309.492 380.122 302.546 373.176 302.546 364.607V333.577C300.924 311.773 324.1 298.118 333.576 321.825Z" fill="#928CD9"/>
<path d="M162.909 287.029H124.121C115.552 287.029 108.606 280.082 108.606 271.513C108.606 262.944 115.552 255.999 124.121 255.999H162.909C175.57 262.878 176.2 280.247 162.909 287.029ZM162.909 193.938H124.121C115.552 193.938 108.606 200.883 108.606 209.452C108.606 218.021 115.552 224.967 124.121 224.967H162.909C184.934 223.961 180.883 201.409 162.909 193.938Z" fill="#736ACC"/>
<path d="M349.091 287.03H387.879C396.448 287.03 403.394 280.084 403.394 271.515C403.394 262.946 396.448 256 387.879 256H349.091C323.569 253.043 323.593 290.188 349.091 287.03ZM349.091 193.939H387.879C396.448 193.939 403.394 200.885 403.394 209.454C403.394 218.023 396.448 224.969 387.879 224.969H349.091C319.359 221.984 314.625 191.657 349.091 193.939Z" fill="#928CD9"/>
<path d="M72.791 306.847C64.229 312.586 57.007 319.808 51.319 328.36C54.1145 329.941 56.9856 331.385 59.922 332.687C62.395 333.779 63.528 336.592 62.652 339.065C64.099 337.521 68.926 328.024 81.383 319.695C83.0849 318.552 84.2641 316.781 84.6619 314.77C85.0597 312.76 84.6437 310.673 83.505 308.969C81.137 305.426 76.335 304.478 72.791 306.847ZM81.384 161.276C68.907 152.934 64.016 143.36 62.653 141.906C63.529 144.379 62.395 147.191 59.923 148.284C56.987 149.586 54.1162 151.03 51.321 152.612C57.008 161.164 64.23 168.385 72.792 174.124C76.336 176.494 81.138 175.546 83.507 172.002C84.6456 170.297 85.0615 168.21 84.6635 166.2C84.2655 164.189 83.086 162.418 81.384 161.276ZM117.354 135.782C116.49 137.772 114.946 139.434 112.834 140.515C111.033 141.462 109.679 143.08 109.064 145.02C108.449 146.959 108.624 149.063 109.551 150.874C110.478 152.685 112.081 154.058 114.014 154.695C115.946 155.331 118.051 155.18 119.873 154.274C126.065 151.106 130.481 145.803 132.449 139.534C139.98 139.217 147.259 135.717 153.095 129.339C154.478 127.827 155.204 125.827 155.113 123.78C155.022 121.732 154.122 119.805 152.61 118.422C151.098 117.038 149.098 116.312 147.051 116.403C145.004 116.494 143.076 117.395 141.693 118.907C130.754 130.865 116.676 119.768 116.33 108.373C116.131 101.84 120.534 95.4146 127.285 92.3846C129.13 91.5298 130.564 89.9821 131.276 88.0772C131.987 86.1723 131.92 84.0636 131.087 82.2083C130.254 80.353 128.724 78.9007 126.828 78.1662C124.931 77.4317 122.822 77.4743 120.957 78.2846C108.369 83.9336 100.489 95.9276 100.882 108.843C101.217 119.889 107.789 130.371 117.354 135.782ZM132.45 341.441C130.482 335.17 126.066 329.867 119.873 326.698C118.051 325.791 115.946 325.64 114.014 326.277C112.081 326.913 110.478 328.286 109.551 330.097C108.624 331.908 108.449 334.012 109.064 335.951C109.679 337.891 111.033 339.51 112.834 340.457C114.947 341.538 116.491 343.2 117.354 345.19C107.788 350.601 101.217 361.083 100.882 372.13C100.489 385.045 108.369 397.039 120.957 402.688C122.822 403.498 124.931 403.54 126.828 402.806C128.724 402.071 130.254 400.619 131.087 398.764C131.92 396.909 131.987 394.8 131.276 392.895C130.564 390.99 129.13 389.442 127.285 388.588C120.534 385.558 116.131 379.134 116.33 372.6C116.675 361.218 130.745 350.101 141.693 362.067C142.378 362.815 143.204 363.422 144.123 363.852C145.042 364.281 146.037 364.525 147.051 364.571C148.065 364.616 149.078 364.46 150.031 364.114C150.985 363.768 151.861 363.237 152.61 362.552C153.359 361.867 153.965 361.041 154.395 360.122C154.825 359.202 155.069 358.207 155.114 357.194C155.159 356.18 155.004 355.167 154.657 354.213C154.311 353.259 153.78 352.383 153.095 351.635C147.259 345.255 139.98 341.757 132.45 341.441Z" fill="#FF758F"/>
<path d="M379.551 139.532C381.52 145.802 385.935 151.104 392.127 154.272C393.03 154.734 394.016 155.014 395.028 155.095C396.039 155.176 397.057 155.058 398.022 154.746C398.988 154.434 399.883 153.934 400.656 153.277C401.428 152.619 402.064 151.815 402.526 150.912C402.988 150.008 403.268 149.023 403.349 148.011C403.431 147 403.312 145.982 403 145.016C402.688 144.051 402.189 143.156 401.531 142.383C400.873 141.61 400.069 140.975 399.166 140.513C397.053 139.432 395.509 137.77 394.646 135.78C404.212 130.369 410.783 119.887 411.118 108.839C411.511 95.9237 403.631 83.9297 391.043 78.2807C389.178 77.4704 387.069 77.4278 385.172 78.1623C383.276 78.8968 381.746 80.3491 380.913 82.2044C380.08 84.0597 380.013 86.1683 380.724 88.0733C381.436 89.9782 382.87 91.5259 384.715 92.3807C391.466 95.4107 395.869 101.835 395.67 108.369C395.323 119.805 381.227 130.84 370.307 118.903C368.924 117.391 366.996 116.49 364.949 116.399C362.902 116.308 360.902 117.034 359.39 118.418C357.878 119.801 356.977 121.728 356.887 123.776C356.796 125.823 357.522 127.823 358.905 129.335C364.741 135.716 372.02 139.216 379.551 139.532ZM394.646 345.188C395.51 343.198 397.054 341.536 399.166 340.455C400.967 339.508 402.321 337.889 402.936 335.949C403.551 334.01 403.376 331.906 402.449 330.095C401.522 328.284 399.919 326.911 397.986 326.275C396.054 325.638 393.949 325.79 392.127 326.696C385.934 329.865 381.518 335.168 379.55 341.439C372.02 341.756 364.741 345.254 358.905 351.633C357.522 353.145 356.796 355.144 356.887 357.192C356.977 359.239 357.878 361.166 359.39 362.55C360.902 363.933 362.902 364.659 364.949 364.568C366.996 364.477 368.924 363.577 370.307 362.065C381.159 350.203 395.321 361.098 395.67 372.599C395.869 379.132 391.466 385.558 384.715 388.587C382.87 389.442 381.436 390.989 380.724 392.894C380.013 394.799 380.08 396.908 380.913 398.763C381.746 400.618 383.276 402.071 385.172 402.805C387.069 403.54 389.178 403.497 391.043 402.687C403.631 397.038 411.511 385.043 411.118 372.129C410.783 361.081 404.211 350.599 394.646 345.188Z" fill="#FF97C1"/>
<path d="M349.088 193.758V287.207C349.088 312.82 328.338 333.571 302.724 333.571H258.792C137.099 333.571 150.519 147.395 258.792 147.395H302.724C328.338 147.394 349.088 168.145 349.088 193.758Z" fill="#5AD6FF"/>
<path d="M258.792 333.572H209.276C183.663 333.572 162.912 312.822 162.912 287.208V193.759C162.912 168.146 183.662 147.395 209.276 147.395H258.792C233.189 147.395 212.428 168.145 212.428 193.759V287.208C212.428 312.821 233.189 333.572 258.792 333.572Z" fill="#00BDFD"/>
<path d="M193.939 245.06C191.89 245.06 189.924 244.246 188.475 242.797C187.026 241.348 186.212 239.383 186.212 237.333V224.969C186.212 222.92 187.026 220.954 188.475 219.505C189.924 218.056 191.89 217.242 193.939 217.242C195.988 217.242 197.954 218.056 199.403 219.505C200.852 220.954 201.666 222.92 201.666 224.969V237.333C201.666 239.383 200.852 241.348 199.403 242.797C197.954 244.246 195.988 245.06 193.939 245.06ZM318.061 245.06C316.012 245.06 314.046 244.246 312.597 242.797C311.148 241.348 310.334 239.383 310.334 237.333V224.969C310.334 222.92 311.148 220.954 312.597 219.505C314.046 218.056 316.012 217.242 318.061 217.242C320.11 217.242 322.076 218.056 323.525 219.505C324.974 220.954 325.788 222.92 325.788 224.969V237.333C325.788 239.382 324.974 241.348 323.525 242.797C322.076 244.246 320.11 245.06 318.061 245.06ZM233.211 242.041C231.884 240.493 231.222 238.484 231.37 236.45C231.518 234.417 232.463 232.524 234 231.184C235.537 229.845 237.542 229.167 239.576 229.299C241.611 229.43 243.511 230.361 244.863 231.887C250.772 238.668 261.229 238.668 267.138 231.887C268.485 230.343 270.39 229.396 272.434 229.256C274.479 229.115 276.496 229.792 278.041 231.138C279.586 232.485 280.532 234.39 280.673 236.435C280.813 238.479 280.136 240.496 278.79 242.041C266.735 255.872 245.265 255.872 233.211 242.041Z" fill="#495560"/>
</svg>
