<svg width="480" height="480" viewBox="0 0 480 480" fill="none" xmlns="http://www.w3.org/2000/svg">
<path d="M346.304 122.368L423.704 44.968L435.016 56.28L357.616 133.68L346.304 122.368ZM292.872 118.44L281.6 107.128L320 68.688V40H336V72C336 74.1216 335.156 76.1561 333.656 77.656L292.872 118.44ZM369.912 201.4L358.6 190.088L402.344 146.344C403.844 144.844 405.878 144 408 144H440V160H411.312L369.912 201.4ZM188.96 120.272L146.344 77.656C144.844 76.1561 144 74.1216 144 72V40H160V68.688L200.272 108.96L188.96 120.272ZM107.304 200.976L66.328 160H45.64V144H69.64C71.7616 144 73.7961 144.844 75.296 146.344L118.616 189.664L107.304 200.976ZM45.136 56.456L56.448 45.144L132.552 121.256L121.24 132.568L45.136 56.456ZM348.432 359.84L359.744 348.52L434.576 423.352L423.264 434.664L348.432 359.84ZM336 440H320V411.312L280.888 372.2L292.2 360.888L333.656 402.344C335.156 403.844 336 405.878 336 408V440ZM440 336H408C405.878 336 403.844 335.156 402.344 333.656L358.6 289.912L369.912 278.6L411.312 320H440V336ZM160 440H144V408C144 405.878 144.844 403.844 146.344 402.344L187.8 360.888L199.112 372.2L160 411.312V440ZM69.64 336H45.64V320H66.328L107.304 279.024L118.616 290.336L75.296 333.656C73.7961 335.156 71.7616 336 69.64 336ZM43.912 424.688L119.56 349.04L130.872 360.352L55.224 436L43.912 424.688Z" fill="#E2E7F6"/>
<path d="M408 264V216L381.256 212.176C377.597 193.433 370.225 175.612 359.576 159.76L375.768 138.16L341.824 104.216L320.224 120.408C304.372 109.759 286.551 102.387 267.808 98.728L264 72H216L212.176 98.744C193.433 102.403 175.612 109.775 159.76 120.424L138.16 104.232L104.216 138.176L120.408 159.776C109.759 175.628 102.387 193.449 98.728 212.192L72 216V264L98.744 267.824C102.403 286.567 109.775 304.388 120.424 320.24L104.232 341.84L138.176 375.784L159.776 359.592C175.628 370.241 193.449 377.613 212.192 381.272L216 408H264L267.824 381.256C286.567 377.597 304.388 370.225 320.24 359.576L341.84 375.768L375.784 341.824L359.592 320.224C370.241 304.372 377.613 286.551 381.272 267.808L408 264Z" fill="#939393"/>
<path d="M240 328C288.601 328 328 288.601 328 240C328 191.399 288.601 152 240 152C191.399 152 152 191.399 152 240C152 288.601 191.399 328 240 328Z" fill="#F2F2F2"/>
<path d="M240 152C223.56 151.981 207.443 156.573 193.482 165.254C179.521 173.936 168.274 186.359 161.02 201.112C153.765 215.866 150.794 232.358 152.444 248.716C154.094 265.073 160.298 280.64 170.352 293.648C187.266 306.72 208.365 313.181 229.698 311.82C251.032 310.459 271.138 301.37 286.254 286.254C301.37 271.138 310.459 251.032 311.82 229.698C313.181 208.365 306.72 187.266 293.648 170.352C278.297 158.451 259.424 151.995 240 152Z" fill="white"/>
<path d="M239.432 205.024C238.837 203.54 237.811 202.268 236.486 201.372C235.162 200.477 233.599 199.999 232 200H216C214.401 199.999 212.838 200.477 211.514 201.372C210.189 202.268 209.163 203.54 208.568 205.024L192.568 245.024C192.193 245.971 192 246.981 192 248V280H208V256H240V280H256V248C256 246.981 255.807 245.971 255.432 245.024L239.432 205.024ZM221.416 216H226.584L236.184 240H211.816L221.416 216ZM264 200H280V280H264V200Z" fill="#5E87CA"/>
<path d="M448 64C465.673 64 480 49.6731 480 32C480 14.3269 465.673 0 448 0C430.327 0 416 14.3269 416 32C416 49.6731 430.327 64 448 64Z" fill="#559B2D"/>
<path d="M448 3.49824e-05C442.155 -0.00861318 436.419 1.58636 431.417 4.61134C426.416 7.63632 422.34 11.9754 419.633 17.1562C416.926 22.3371 415.692 28.1611 416.066 33.9945C416.44 39.8278 418.406 45.4469 421.752 50.24C427.905 54.5393 435.375 56.5352 442.852 55.8776C450.329 55.2201 457.336 51.9511 462.645 46.644C467.953 41.3368 471.223 34.3303 471.882 26.8532C472.541 19.3761 470.546 11.9057 466.248 5.75204C460.9 2.00784 454.529 -0.00032343 448 3.49824e-05Z" fill="#6BC13B"/>
<path d="M328 48C341.255 48 352 37.2548 352 24C352 10.7452 341.255 0 328 0C314.745 0 304 10.7452 304 24C304 37.2548 314.745 48 328 48Z" fill="#F0AE42"/>
<path d="M304 24C304.015 28.3945 305.25 32.6985 307.568 36.432C311.301 38.75 315.605 39.9852 320 40C326.365 40 332.47 37.4714 336.971 32.9706C341.471 28.4697 344 22.3652 344 16C343.985 11.6055 342.75 7.30148 340.432 3.568C336.699 1.25001 332.395 0.0147513 328 0C321.635 0 315.53 2.52856 311.029 7.02944C306.529 11.5303 304 17.6348 304 24Z" fill="#F9D266"/>
<path d="M456 176C469.255 176 480 165.255 480 152C480 138.745 469.255 128 456 128C442.745 128 432 138.745 432 152C432 165.255 442.745 176 456 176Z" fill="#F0AE42"/>
<path d="M432 152C432.015 156.395 433.25 160.699 435.568 164.432C439.301 166.75 443.605 167.985 448 168C454.365 168 460.47 165.471 464.971 160.971C469.471 156.47 472 150.365 472 144C471.985 139.605 470.75 135.301 468.432 131.568C464.699 129.25 460.395 128.015 456 128C449.635 128 443.53 130.529 439.029 135.029C434.529 139.53 432 145.635 432 152Z" fill="#F9D266"/>
<path d="M32 64C49.6731 64 64 49.6731 64 32C64 14.3269 49.6731 0 32 0C14.3269 0 0 14.3269 0 32C0 49.6731 14.3269 64 32 64Z" fill="#559B2D"/>
<path d="M32 3.49824e-05C26.1547 -0.00861318 20.419 1.58636 15.4174 4.61134C10.4157 7.63632 6.33959 11.9754 3.63285 17.1562C0.926116 22.3371 -0.307574 28.1611 0.0660743 33.9945C0.439722 39.8278 2.40639 45.4469 5.752 50.24C11.9049 54.5393 19.3749 56.5352 26.8522 55.8776C34.3294 55.2201 41.3365 51.9511 46.6446 46.644C51.9527 41.3368 55.2229 34.3303 55.8818 26.8532C56.5407 19.3761 54.5462 11.9057 50.248 5.75204C44.8996 2.00784 38.5288 -0.00032343 32 3.49824e-05Z" fill="#6BC13B"/>
<path d="M152 48C165.255 48 176 37.2548 176 24C176 10.7452 165.255 0 152 0C138.745 0 128 10.7452 128 24C128 37.2548 138.745 48 152 48Z" fill="#F0AE42"/>
<path d="M128 24C128.015 28.3945 129.25 32.6985 131.568 36.432C135.301 38.75 139.605 39.9852 144 40C150.365 40 156.47 37.4714 160.971 32.9706C165.471 28.4697 168 22.3652 168 16C167.985 11.6055 166.75 7.30148 164.432 3.568C160.699 1.25001 156.395 0.0147513 152 0C145.635 0 139.53 2.52856 135.029 7.02944C130.529 11.5303 128 17.6348 128 24Z" fill="#F9D266"/>
<path d="M24 176C37.2548 176 48 165.255 48 152C48 138.745 37.2548 128 24 128C10.7452 128 0 138.745 0 152C0 165.255 10.7452 176 24 176Z" fill="#F0AE42"/>
<path d="M0 152C0.0147513 156.395 1.25001 160.699 3.568 164.432C7.30148 166.75 11.6055 167.985 16 168C22.3652 168 28.4697 165.471 32.9706 160.971C37.4714 156.47 40 150.365 40 144C39.9852 139.605 38.75 135.301 36.432 131.568C32.6985 129.25 28.3945 128.015 24 128C17.6348 128 11.5303 130.529 7.02944 135.029C2.52856 139.53 0 145.635 0 152Z" fill="#F9D266"/>
<path d="M448 480C465.673 480 480 465.673 480 448C480 430.327 465.673 416 448 416C430.327 416 416 430.327 416 448C416 465.673 430.327 480 448 480Z" fill="#559B2D"/>
<path d="M448 416C442.155 415.991 436.419 417.586 431.417 420.611C426.416 423.636 422.34 427.975 419.633 433.156C416.926 438.337 415.692 444.161 416.066 449.994C416.44 455.828 418.406 461.447 421.752 466.24C427.905 470.539 435.375 472.535 442.852 471.878C450.329 471.22 457.336 467.951 462.645 462.644C467.953 457.337 471.223 450.33 471.882 442.853C472.541 435.376 470.546 427.906 466.248 421.752C460.9 418.008 454.529 416 448 416Z" fill="#6BC13B"/>
<path d="M328 480C341.255 480 352 469.255 352 456C352 442.745 341.255 432 328 432C314.745 432 304 442.745 304 456C304 469.255 314.745 480 328 480Z" fill="#F0AE42"/>
<path d="M304 456C304.015 460.395 305.25 464.699 307.568 468.432C311.301 470.75 315.605 471.985 320 472C326.365 472 332.47 469.471 336.971 464.971C341.471 460.47 344 454.365 344 448C343.985 443.605 342.75 439.301 340.432 435.568C336.699 433.25 332.395 432.015 328 432C321.635 432 315.53 434.529 311.029 439.029C306.529 443.53 304 449.635 304 456Z" fill="#F9D266"/>
<path d="M456 352C469.255 352 480 341.255 480 328C480 314.745 469.255 304 456 304C442.745 304 432 314.745 432 328C432 341.255 442.745 352 456 352Z" fill="#F0AE42"/>
<path d="M432 328C432.015 332.395 433.25 336.699 435.568 340.432C439.301 342.75 443.605 343.985 448 344C454.365 344 460.47 341.471 464.971 336.971C469.471 332.47 472 326.365 472 320C471.985 315.605 470.75 311.301 468.432 307.568C464.699 305.25 460.395 304.015 456 304C449.635 304 443.53 306.529 439.029 311.029C434.529 315.53 432 321.635 432 328Z" fill="#F9D266"/>
<path d="M32 480C49.6731 480 64 465.673 64 448C64 430.327 49.6731 416 32 416C14.3269 416 0 430.327 0 448C0 465.673 14.3269 480 32 480Z" fill="#559B2D"/>
<path d="M32 416C26.1547 415.991 20.419 417.586 15.4174 420.611C10.4157 423.636 6.33959 427.975 3.63285 433.156C0.926116 438.337 -0.307574 444.161 0.0660743 449.994C0.439722 455.828 2.40639 461.447 5.752 466.24C11.9049 470.539 19.3749 472.535 26.8522 471.878C34.3294 471.22 41.3365 467.951 46.6446 462.644C51.9527 457.337 55.2229 450.33 55.8818 442.853C56.5407 435.376 54.5462 427.906 50.248 421.752C44.8996 418.008 38.5288 416 32 416Z" fill="#6BC13B"/>
<path d="M152 480C165.255 480 176 469.255 176 456C176 442.745 165.255 432 152 432C138.745 432 128 442.745 128 456C128 469.255 138.745 480 152 480Z" fill="#F0AE42"/>
<path d="M128 456C128.015 460.395 129.25 464.699 131.568 468.432C135.301 470.75 139.605 471.985 144 472C150.365 472 156.47 469.471 160.971 464.971C165.471 460.47 168 454.365 168 448C167.985 443.605 166.75 439.301 164.432 435.568C160.699 433.25 156.395 432.015 152 432C145.635 432 139.53 434.529 135.029 439.029C130.529 443.53 128 449.635 128 456Z" fill="#F9D266"/>
<path d="M24 352C37.2548 352 48 341.255 48 328C48 314.745 37.2548 304 24 304C10.7452 304 0 314.745 0 328C0 341.255 10.7452 352 24 352Z" fill="#F0AE42"/>
<path d="M0 328C0.0147513 332.395 1.25001 336.699 3.568 340.432C7.30148 342.75 11.6055 343.985 16 344C22.3652 344 28.4697 341.471 32.9706 336.971C37.4714 332.47 40 326.365 40 320C39.9852 315.605 38.75 311.301 36.432 307.568C32.6985 305.25 28.3945 304.015 24 304C17.6348 304 11.5303 306.529 7.02944 311.029C2.52856 315.53 0 321.635 0 328Z" fill="#F9D266"/>
</svg>
