<svg width="492" height="363" viewBox="0 0 492 363" fill="none" xmlns="http://www.w3.org/2000/svg">
<path d="M491.52 158.12L491.418 193.858L246.477 336.194L0 193.858L0.102399 158.223L245.043 15.8867L491.52 158.12Z" fill="#497BFE"/>
<path d="M369.019 94.6619C368.851 94.6613 368.686 94.62 368.538 94.5415C368.39 94.463 368.264 94.3497 368.169 94.2114C368.091 94.1001 368.037 93.9745 368.008 93.8419C367.979 93.7093 367.977 93.5723 368.002 93.4389C368.027 93.3055 368.078 93.1784 368.152 93.0649C368.227 92.9514 368.323 92.8538 368.435 92.7778L393.236 75.636C393.398 75.524 393.587 75.4605 393.783 75.4533C393.979 75.446 394.173 75.4952 394.342 75.5951L419.564 90.2587L480.389 55.1355L436.296 29.5151C436.14 29.425 436.012 29.2958 435.922 29.1404C435.833 28.9849 435.786 28.8087 435.786 28.6293C435.786 28.4499 435.833 28.2737 435.922 28.1182C436.012 27.9628 436.14 27.8336 436.296 27.7435L462.858 12.4143C463.095 12.2785 463.375 12.2421 463.638 12.3131C463.768 12.3483 463.89 12.4088 463.997 12.4912C464.104 12.5735 464.194 12.6761 464.261 12.7931C464.328 12.9101 464.372 13.0392 464.389 13.173C464.407 13.3068 464.397 13.4428 464.362 13.573C464.327 13.7033 464.267 13.8254 464.184 13.9323C464.102 14.0392 463.999 14.1288 463.882 14.196L438.876 28.6344L482.98 54.2549C483.137 54.3442 483.268 54.4737 483.36 54.6302C483.451 54.7867 483.499 54.9646 483.499 55.1458C483.499 55.3269 483.451 55.5048 483.36 55.6613C483.268 55.8178 483.137 55.9473 482.98 56.0367L420.096 92.3374C419.939 92.4292 419.761 92.4776 419.579 92.4776C419.397 92.4776 419.219 92.4292 419.062 92.3374L393.871 77.6943L369.613 94.4776C369.44 94.5918 369.237 94.6523 369.029 94.6517L369.019 94.6619ZM102.175 362.11C101.994 362.108 101.818 362.058 101.663 361.967L61.6346 338.538L33.6486 354.758C33.4147 354.892 33.1373 354.929 32.8765 354.86C32.6158 354.791 32.3928 354.622 32.256 354.389C32.1879 354.273 32.1434 354.144 32.125 354.011C32.1067 353.877 32.1149 353.742 32.1491 353.611C32.1833 353.481 32.243 353.359 32.3246 353.251C32.4062 353.144 32.5082 353.054 32.6246 352.986L61.1226 336.469C61.2794 336.378 61.4579 336.329 61.6397 336.329C61.8214 336.329 61.9999 336.378 62.1568 336.469L102.175 359.898L163.748 324.335L88.0026 280.282C87.845 280.193 87.7139 280.064 87.6227 279.907C87.5315 279.751 87.4834 279.573 87.4834 279.392C87.4834 279.21 87.5315 279.032 87.6227 278.876C87.7139 278.719 87.845 278.59 88.0026 278.501L149.75 243.019C149.866 242.945 149.997 242.895 150.133 242.873C150.269 242.85 150.409 242.856 150.543 242.889C150.677 242.921 150.803 242.981 150.913 243.064C151.024 243.147 151.117 243.251 151.186 243.371C151.255 243.49 151.299 243.623 151.316 243.76C151.332 243.897 151.321 244.036 151.283 244.169C151.244 244.301 151.179 244.425 151.092 244.532C151.004 244.638 150.896 244.727 150.774 244.791L90.5626 279.402L166.318 323.444C166.476 323.533 166.607 323.663 166.698 323.819C166.789 323.976 166.837 324.154 166.837 324.335C166.837 324.516 166.789 324.694 166.698 324.85C166.607 325.007 166.476 325.136 166.318 325.226L102.687 361.977C102.531 362.066 102.354 362.111 102.175 362.11ZM400.23 337.278C400.051 337.279 399.874 337.234 399.718 337.145L336.087 300.394C335.932 300.304 335.803 300.175 335.713 300.019C335.624 299.864 335.577 299.687 335.577 299.508C335.577 299.329 335.624 299.152 335.713 298.997C335.803 298.841 335.932 298.712 336.087 298.622L411.822 254.57L351.621 219.959C351.387 219.823 351.216 219.601 351.145 219.34C351.074 219.079 351.109 218.801 351.242 218.566C351.309 218.449 351.399 218.346 351.505 218.263C351.612 218.18 351.734 218.12 351.865 218.085C351.995 218.049 352.131 218.04 352.265 218.058C352.399 218.075 352.528 218.119 352.645 218.187L414.392 253.679C414.547 253.769 414.676 253.898 414.766 254.054C414.855 254.209 414.903 254.385 414.903 254.565C414.903 254.744 414.855 254.92 414.766 255.076C414.676 255.231 414.547 255.36 414.392 255.45L338.647 299.503L400.22 335.066L440.238 311.637C440.394 311.547 440.57 311.5 440.75 311.5C440.93 311.5 441.106 311.547 441.262 311.637L469.77 328.165C469.993 328.306 470.153 328.529 470.215 328.785C470.278 329.042 470.24 329.313 470.107 329.541C469.975 329.77 469.76 329.939 469.506 330.012C469.253 330.086 468.98 330.059 468.746 329.936L440.76 313.706L400.742 337.145C400.586 337.233 400.41 337.279 400.23 337.278ZM113.521 129.191C113.341 129.192 113.165 129.147 113.009 129.058L49.3773 92.3067C49.2221 92.2167 49.0933 92.0875 49.0038 91.9321C48.9142 91.7766 48.8671 91.6004 48.8671 91.421C48.8671 91.2416 48.9142 91.0653 49.0038 90.9099C49.0933 90.7544 49.2221 90.6252 49.3773 90.5352L125.123 46.4827L64.9216 11.8715C64.6853 11.7357 64.5127 11.5117 64.4416 11.2486C64.3706 10.9855 64.4069 10.7049 64.5427 10.4687C64.6785 10.2324 64.9026 10.0597 65.1657 9.98867C65.4288 9.91761 65.7093 9.95399 65.9456 10.0898L127.693 45.5816C127.85 45.6709 127.981 45.8004 128.073 45.9569C128.164 46.1135 128.212 46.2914 128.212 46.4725C128.212 46.6536 128.164 46.8315 128.073 46.988C127.981 47.1445 127.85 47.2741 127.693 47.3634L51.9475 91.4159L113.521 126.979L153.539 103.55C153.694 103.46 153.871 103.413 154.051 103.413C154.23 103.413 154.407 103.46 154.563 103.55L183.071 120.078C183.305 120.213 183.476 120.435 183.547 120.696C183.618 120.957 183.583 121.235 183.45 121.47C183.383 121.588 183.293 121.691 183.186 121.773C183.08 121.856 182.957 121.916 182.827 121.952C182.697 121.987 182.561 121.996 182.427 121.978C182.293 121.961 182.164 121.917 182.047 121.849L154.061 105.629L114.043 129.048C113.888 129.139 113.711 129.189 113.531 129.191H113.521Z" fill="#C9CEE2"/>
<path d="M24.6068 349.116C19.3435 352.147 19.323 357.062 24.5659 360.114C29.778 363.134 38.267 363.145 43.5201 360.114C48.7732 357.082 48.804 352.157 43.5816 349.126C38.3592 346.085 29.8497 346.085 24.6068 349.116Z" fill="#F45170"/>
<path d="M452.618 8.04325C447.59 10.9514 447.57 15.6516 452.577 18.5597C457.564 21.4577 465.684 21.4577 470.702 18.5597C475.72 15.6618 475.75 10.9514 470.763 8.0535C465.756 5.14534 457.636 5.14533 452.618 8.04325Z" fill="#9AD898"/>
<path d="M451.103 7.16203C445.235 10.5515 445.215 16.0401 451.052 19.4398C456.878 22.819 466.35 22.819 472.218 19.4398C478.085 16.0606 478.116 10.5617 472.289 7.17226C466.452 3.78282 456.97 3.78283 451.103 7.16203Z" fill="#F45170"/>
<path d="M54.8248 2.53312C48.9573 5.91232 48.9368 11.4112 54.7839 14.8109C60.6002 18.1901 70.0825 18.1901 75.95 14.8109C81.8073 11.4317 81.838 5.9328 76.0216 2.54336C70.1746 -0.846079 60.6821 -0.846078 54.8248 2.53312Z" fill="#B28AFD"/>
<path d="M462.244 324.213C456.376 327.592 456.356 333.091 462.203 336.48C468.019 339.86 477.501 339.87 483.369 336.48C489.226 333.101 489.257 327.602 483.441 324.223C477.604 320.834 468.101 320.834 462.244 324.213Z" fill="#DBA660"/>
<path d="M491.54 158.152L491.469 193.818L246.487 336.175L246.559 300.519L491.54 158.152Z" fill="#497BFE"/>
<path d="M246.569 300.516L246.497 336.172L0.0102539 193.867L0.0819336 158.211L246.569 300.516Z" fill="#5094FF"/>
<path d="M491.54 158.149L246.569 300.516L0.092041 158.21L245.064 15.8438L491.54 158.149Z" fill="#57B3FE"/>
<path d="M265.738 66.6439L266.527 66.1933L266.547 71.8253L277.033 77.9181L278.6 77.017V74.1191L285.798 78.297L286.587 77.8465L286.607 83.4785L297.093 89.5815L298.66 88.6804V85.7825L305.859 89.9604L306.647 89.5098L306.667 95.1418L317.153 101.245L318.72 100.344V97.4356L325.919 101.634L326.707 101.173L326.728 106.805L337.213 112.908L338.78 111.997V109.099L345.979 113.287L346.767 112.837L346.788 118.469L357.274 124.572L358.84 123.66V120.773L366.039 124.961L366.827 124.51L366.848 130.142L377.334 136.245L378.9 135.334V132.436L386.099 136.624L386.888 136.173L386.908 141.805L397.394 147.898L398.961 146.997V144.099L406.159 148.287L406.948 147.837L406.968 153.469L417.454 159.562L419.021 158.661L418.97 139.164L408.484 133.071L398.94 138.508L398.909 127.5L388.424 121.407L378.88 126.855L378.849 115.847L368.353 109.744L358.82 115.192L358.789 104.184L348.303 98.0807L338.76 103.528L338.729 92.5204L328.233 86.4173L318.699 91.865L318.669 80.857L308.173 74.7642L298.639 80.2016L298.609 69.1937L288.113 63.1009L278.579 68.5383L278.548 57.5303L268.052 51.4375L255.242 58.7489L265.728 64.8519L265.738 66.6439Z" fill="#E3E7F0"/>
<path d="M265.738 64.8421L255.242 58.7391V60.5413L265.738 66.6443V64.8421ZM236.267 242.076L225.771 235.983L212.961 243.295L213.012 262.792L223.508 268.884L225.075 267.983L225.024 250.288L236.267 243.878V242.076ZM216.207 232.215V230.413L205.711 224.32L192.901 231.631L192.952 251.128L203.448 257.221L205.015 256.32L204.964 238.625L216.207 232.215ZM196.147 220.552V218.749L185.651 212.656L172.841 219.968L172.892 239.465L183.388 245.558L184.955 244.656L184.904 226.962L196.147 220.552ZM176.087 208.898V207.096L165.591 200.993L152.781 208.315L152.832 227.801L163.328 233.904L164.895 232.993L164.843 215.298L176.087 208.898ZM156.027 197.235V195.433L145.531 189.33L132.721 196.651L132.772 216.138L143.257 222.241L144.834 221.33L144.783 203.645L156.027 197.235ZM135.967 185.572V183.769L125.471 177.666L112.66 184.988L112.712 204.475L123.197 210.578L124.774 209.666L124.723 191.982L135.967 185.572ZM115.906 173.908V172.106L105.41 166.013L92.6002 173.325L92.6514 192.822L103.137 198.914L104.714 198.013L104.663 180.319L115.906 173.908ZM95.8565 162.245L95.8463 160.443L85.3503 154.35L72.54 161.661L72.5912 181.158L83.077 187.251L84.654 186.35L84.6028 168.655L95.8565 162.245ZM213.012 54.6226L212.982 65.6203L203.448 60.1829L192.952 66.2757L192.921 77.2837L183.388 71.8462L172.892 77.9391L172.861 88.947L163.328 83.5096L152.832 89.6024L152.801 100.61L143.257 95.1627L132.772 101.266L132.741 112.274L123.197 106.826L112.712 112.929L112.681 123.937L103.137 118.489L92.6514 124.582L92.6207 135.6L83.077 130.153L72.5912 136.246L72.54 155.743L74.1068 156.644L84.5925 150.551L84.613 144.919L85.4015 145.369L92.6002 141.181V144.079L94.1669 144.98L104.653 138.888L104.673 133.256L105.462 133.706L112.66 129.518V132.416L114.227 133.327L124.713 127.224L124.733 121.592L125.522 122.043L132.721 117.855V120.752L134.287 121.664L144.773 115.561L144.793 109.929L145.582 110.379L152.781 106.191V109.089L154.347 110L164.833 103.908L164.854 98.2757L165.642 98.716L172.841 94.5381V97.436L174.408 98.3371L184.893 92.2443L184.914 86.6123L185.702 87.0527L192.911 82.8747L192.901 85.7727L194.468 86.6738L204.953 80.581L204.974 74.949L205.762 75.3995L212.971 71.2011L212.961 74.1093L214.528 75.0104L225.014 68.9176L225.034 63.2856L225.823 63.7362L236.319 57.6331V55.8309L223.508 48.5195L213.012 54.6226ZM255.293 242.076V243.878L266.537 250.288L266.486 267.983L268.052 268.884L278.548 262.792L278.6 243.295L265.789 235.983L255.293 242.076ZM275.364 230.413L275.353 232.215L286.597 238.625L286.546 256.32L288.113 257.221L298.609 251.128L298.66 231.631L285.849 224.32L275.364 230.413ZM295.414 218.749V220.552L306.657 226.962L306.606 244.656L308.173 245.558L318.669 239.465L318.72 219.968L305.91 212.656L295.414 218.749ZM315.474 207.096V208.898L326.717 215.298L326.666 232.993L328.233 233.904L338.729 227.801L338.78 208.315L325.97 200.993L315.474 207.096ZM335.534 195.423V197.235L346.777 203.645L346.726 221.33L348.303 222.241L358.789 216.138L358.84 196.651L346.03 189.33L335.534 195.423ZM355.594 183.769V185.572L366.838 191.982L366.786 209.666L368.353 210.578L378.849 204.475L378.9 184.988L366.09 177.666L355.594 183.769ZM375.654 172.106V173.908L386.898 180.319L386.847 198.013L388.424 198.914L398.909 192.822L398.961 173.325L386.15 166.013L375.654 172.106ZM395.714 160.443V162.245L406.958 168.655L406.907 186.35L408.484 187.251L418.969 181.158L419.021 161.661L406.21 154.35L395.714 160.443Z" fill="#E3E7F0"/>
<path d="M74.1479 138.962L84.6439 132.859L84.5927 150.554L74.1069 156.647L74.1479 138.962ZM406.149 146.479L395.663 140.376V142.178L406.159 148.281L406.149 146.479Z" fill="#E3E7F0"/>
<path d="M397.343 130.194L386.857 124.102L386.908 141.796L397.394 147.889L397.343 130.194ZM386.089 134.802L375.603 128.71V130.512L386.099 136.615L386.089 134.802Z" fill="#E3E7F0"/>
<path d="M377.283 118.544L366.797 112.451L366.848 130.135L377.334 136.239L377.283 118.544ZM357.222 106.88L346.737 100.788L346.788 118.472L357.274 124.575L357.222 106.88ZM337.162 95.2171L326.676 89.1243L326.728 106.809L337.213 112.912L337.162 95.2171ZM317.102 83.5537L306.616 77.4609L306.668 95.1557L317.153 101.248L317.102 83.5537ZM305.848 88.1617L295.363 82.0689V83.8712L305.859 89.964L305.848 88.1617Z" fill="#E3E7F0"/>
<path d="M297.042 71.8897L286.556 65.7969L286.607 83.4916L297.093 89.5844L297.042 71.8897ZM285.788 76.5079L275.302 70.4049V72.2071L285.798 78.2999L285.788 76.5079Z" fill="#E3E7F0"/>
<path d="M276.982 60.2358L266.496 54.1328L266.547 71.8275L277.033 77.9203L276.982 60.2358Z" fill="#E3E7F0"/>
<path d="M278.538 57.5225L268.052 51.4297L255.242 58.741L265.728 64.8441L278.538 57.5225Z" fill="white"/>
<path d="M265.738 64.845V66.6473L276.982 60.237L277.033 77.9215L278.6 77.0204L278.549 57.5234L265.738 64.845Z" fill="#C9CEE2"/>
<path d="M298.609 69.1866L288.113 63.0938L275.302 70.4051L285.788 76.5082L298.609 69.1866Z" fill="white"/>
<path d="M285.788 76.5052V78.2972L297.052 71.887L297.093 89.5817L298.66 88.6805L298.609 69.1836L285.788 76.5052Z" fill="#C9CEE2"/>
<path d="M318.669 80.8467L308.173 74.7539L295.363 82.0653L305.848 88.1581L318.669 80.8467Z" fill="white"/>
<path d="M305.848 88.159V89.9612L317.112 83.551L317.153 101.246L318.72 100.345L318.669 80.8477L305.848 88.159Z" fill="#C9CEE2"/>
<path d="M338.729 92.5132L328.233 86.4102L315.423 93.7317L325.908 99.8246L338.729 92.5132Z" fill="white"/>
<path d="M325.908 99.8231V101.625L337.172 95.2151L337.213 112.91L338.78 111.998L338.729 92.5117L325.908 99.8231Z" fill="#C9CEE2"/>
<path d="M358.789 104.177L348.293 98.0742L335.483 105.396L345.969 111.489L358.789 104.177Z" fill="white"/>
<path d="M345.969 111.487V113.289L357.233 106.879L357.274 124.574L358.84 123.662L358.789 104.176L345.969 111.487Z" fill="#C9CEE2"/>
<path d="M378.849 115.837L368.363 109.734L355.543 117.056L366.029 123.149L378.849 115.837Z" fill="white"/>
<path d="M366.029 123.151V124.953L377.293 118.543L377.334 136.238L378.9 135.327L378.849 115.84L366.029 123.151Z" fill="#C9CEE2"/>
<path d="M398.91 127.491L388.424 121.398L375.603 128.71L386.089 134.813L398.91 127.491Z" fill="white"/>
<path d="M386.089 134.804V136.616L397.353 130.206L397.394 147.89L398.961 146.989L398.909 127.492L386.089 134.804Z" fill="#C9CEE2"/>
<path d="M417.403 141.869L406.917 135.766L406.968 153.46L417.454 159.553L417.403 141.869Z" fill="#E3E7F0"/>
<path d="M418.97 139.155L408.484 133.062L395.663 140.374L406.149 146.477L418.97 139.155Z" fill="white"/>
<path d="M406.149 146.478V148.28L417.413 141.87L417.454 159.554L419.021 158.653L418.97 139.156L406.149 146.478Z" fill="#C9CEE2"/>
<path d="M366.029 123.15L355.543 117.057V118.849L366.039 124.952L366.029 123.15ZM345.969 111.487L335.483 105.394V107.196L345.979 113.289L345.969 111.487ZM325.908 99.8233L315.423 93.7305V95.5327L325.919 101.626L325.908 99.8233Z" fill="#E3E7F0"/>
<path d="M243.477 49.9766L79.5751 145.229L79.5239 160.63L244.46 255.862L408.371 160.599L408.422 145.198L243.477 49.9766Z" fill="#4D5C75"/>
<path d="M244.501 240.459L244.449 255.86L79.5137 160.628L79.5649 145.227L244.501 240.459Z" fill="#1C2841"/>
<path d="M408.412 145.207L408.361 160.598L244.449 255.86L244.5 240.46L408.412 145.207Z" fill="#101C32"/>
<path d="M265.738 64.8452L255.242 58.7422V60.5444L265.738 66.6475V64.8452ZM223.447 249.391L212.961 243.298L213.012 262.795L223.508 268.887L223.447 249.391Z" fill="#E3E7F0"/>
<path d="M236.267 242.077L225.771 235.984L212.961 243.296L223.447 249.399L236.267 242.077Z" fill="white"/>
<path d="M223.447 249.389L223.508 268.886L225.075 267.985L225.024 250.291L236.268 243.88V242.078L223.447 249.389Z" fill="#C9CEE2"/>
<path d="M203.387 237.736L192.901 231.633L192.952 251.13L203.448 257.223L203.387 237.736Z" fill="#E3E7F0"/>
<path d="M216.207 230.413L205.711 224.32L192.901 231.632L203.387 237.735L216.207 230.413Z" fill="white"/>
<path d="M203.387 237.736L203.448 257.222L205.015 256.321L204.964 238.627L216.207 232.216V230.414L203.387 237.736Z" fill="#C9CEE2"/>
<path d="M183.327 226.072L172.841 219.969L172.892 239.466L183.388 245.558L183.327 226.072Z" fill="#E3E7F0"/>
<path d="M196.147 218.749L185.651 212.656L172.841 219.968L183.327 226.071L196.147 218.749Z" fill="white"/>
<path d="M183.327 226.072L183.388 245.558L184.955 244.657L184.904 226.962L196.147 220.552V218.75L183.327 226.072Z" fill="#C9CEE2"/>
<path d="M163.267 214.409L152.781 208.316L152.832 227.803L163.328 233.906L163.267 214.409Z" fill="#E3E7F0"/>
<path d="M176.087 207.099L165.591 200.996L152.781 208.318L163.267 214.41L176.087 207.099Z" fill="white"/>
<path d="M163.267 214.409L163.328 233.906L164.895 232.995L164.844 215.3L176.087 208.9V207.098L163.267 214.409Z" fill="#C9CEE2"/>
<path d="M143.206 202.745L132.721 196.652L132.772 216.139L143.268 222.242L143.206 202.745Z" fill="#E3E7F0"/>
<path d="M156.027 195.425L145.531 189.332L132.721 196.654L143.206 202.746L156.027 195.425Z" fill="white"/>
<path d="M143.206 202.745L143.268 222.242L144.834 221.331L144.783 203.646L156.027 197.236V195.434L143.206 202.745Z" fill="#C9CEE2"/>
<path d="M123.146 191.081L112.66 184.988L112.712 204.475L123.197 210.578L123.146 191.081Z" fill="#E3E7F0"/>
<path d="M135.967 183.771L125.471 177.668L112.66 184.99L123.146 191.082L135.967 183.771Z" fill="white"/>
<path d="M123.146 191.081L123.197 210.578L124.774 209.666L124.723 191.982L135.967 185.572V183.77L123.146 191.081Z" fill="#C9CEE2"/>
<path d="M103.086 179.417L92.6003 173.324L92.6515 192.821L103.137 198.914L103.086 179.417Z" fill="#E3E7F0"/>
<path d="M115.907 172.108L105.411 166.016L92.6003 173.327L103.086 179.42L115.907 172.108Z" fill="white"/>
<path d="M103.086 179.421L103.137 198.918L104.714 198.017L104.663 180.322L115.907 173.912V172.109L103.086 179.421Z" fill="#C9CEE2"/>
<path d="M83.0258 167.767L72.54 161.664L72.5912 181.161L83.077 187.254L83.0258 167.767Z" fill="#E3E7F0"/>
<path d="M95.8463 160.444L85.3503 154.352L72.54 161.663L83.0258 167.766L95.8463 160.444Z" fill="white"/>
<path d="M83.0259 167.767L83.0771 187.254L84.654 186.352L84.6028 168.658L95.8464 162.248V160.445L83.0259 167.767Z" fill="#C9CEE2"/>
<path d="M85.4119 143.568L95.8976 137.465V139.267L85.4016 145.37L85.4119 143.568Z" fill="#E3E7F0"/>
<path d="M94.2182 127.298L104.704 121.195L104.653 138.89L94.167 144.983L94.2182 127.298ZM105.472 131.906L115.958 125.803V127.606L105.462 133.709L105.472 131.906Z" fill="#E3E7F0"/>
<path d="M114.278 115.636L124.764 109.543L124.713 127.227L114.227 133.33L114.278 115.636ZM125.532 120.244L136.018 114.151V115.953L125.522 122.046L125.532 120.244Z" fill="#E3E7F0"/>
<path d="M134.339 103.982L144.824 97.8789L144.773 115.563L134.287 121.666L134.339 103.982ZM145.592 108.59L156.078 102.487V104.289L145.582 110.382L145.592 108.59Z" fill="#E3E7F0"/>
<path d="M154.399 92.3076L164.884 86.2148L164.833 103.91L154.347 110.002L154.399 92.3076ZM165.652 96.9156L176.138 90.8228V92.6251L165.642 98.7179L165.652 96.9156Z" fill="#E3E7F0"/>
<path d="M174.459 80.6436L184.945 74.5508L184.893 92.2455L174.408 98.3383L174.459 80.6436ZM185.713 85.2516L196.198 79.1588V80.961L185.702 87.0538L185.713 85.2516Z" fill="#E3E7F0"/>
<path d="M194.519 68.9898L205.005 62.8867L204.954 80.5814L194.468 86.6742L194.519 68.9898ZM205.773 73.5978L216.258 67.4947V69.297L205.762 75.4L205.773 73.5978Z" fill="#E3E7F0"/>
<path d="M214.579 57.3257L225.065 51.2227L225.014 68.9174L214.528 75.0102L214.579 57.3257ZM225.833 61.9337L236.319 55.8307V57.6329L225.823 63.7359L225.833 61.9337Z" fill="#E3E7F0"/>
<path d="M213.012 54.6226L223.508 48.5195L236.319 55.8309L225.833 61.9339L213.012 54.6226Z" fill="white"/>
<path d="M225.833 61.9349V63.7371L214.569 57.3269L214.528 75.0114L212.961 74.1102L213.012 54.6133L225.833 61.9349Z" fill="#C9CEE2"/>
<path d="M192.952 66.2764L203.448 60.1836L216.259 67.495L205.773 73.598L192.952 66.2764Z" fill="white"/>
<path d="M205.773 73.5989V75.4012L194.509 68.9909L194.468 86.6754L192.901 85.7743L192.952 66.2773L205.773 73.5989Z" fill="#C9CEE2"/>
<path d="M172.892 77.9405L183.388 71.8477L196.198 79.159L185.713 85.2518L172.892 77.9405Z" fill="white"/>
<path d="M185.713 85.2528V87.055L174.449 80.6448L174.408 98.3395L172.841 97.4384L172.892 77.9414L185.713 85.2528Z" fill="#C9CEE2"/>
<path d="M152.832 89.6045L163.328 83.5117L176.138 90.8231L165.653 96.9159L152.832 89.6045Z" fill="white"/>
<path d="M165.652 96.9168V98.7191L154.388 92.3088L154.347 110.004L152.781 109.102L152.832 89.6055L165.652 96.9168Z" fill="#C9CEE2"/>
<path d="M132.772 101.267L143.268 95.1641L156.078 102.486L145.592 108.578L132.772 101.267Z" fill="white"/>
<path d="M145.592 108.587V110.379L134.328 103.969L134.287 121.664L132.721 120.752L132.772 101.266L145.592 108.587Z" fill="#C9CEE2"/>
<path d="M112.712 112.931L123.197 106.828L136.018 114.15L125.532 120.243L112.712 112.931Z" fill="white"/>
<path d="M125.532 120.241V122.043L114.268 115.633L114.227 133.328L112.66 132.416L112.712 112.93L125.532 120.241Z" fill="#C9CEE2"/>
<path d="M92.6516 124.585L103.137 118.492L115.958 125.804L105.472 131.907L92.6516 124.585Z" fill="white"/>
<path d="M105.472 131.904V133.706L94.208 127.296L94.1671 144.98L92.6003 144.079L92.6515 124.582L105.472 131.904Z" fill="#C9CEE2"/>
<path d="M72.5913 136.245L83.0771 130.152L95.8975 137.464L85.4118 143.567L72.5913 136.245Z" fill="white"/>
<path d="M85.4117 143.568L85.4015 145.37L74.158 138.96L74.1068 156.644L72.54 155.743L72.5912 136.246L85.4117 143.568Z" fill="#C9CEE2"/>
<path d="M268.114 249.39L278.6 243.297L278.548 262.794L268.052 268.887L268.114 249.39Z" fill="#E3E7F0"/>
<path d="M255.293 242.077L265.789 235.984L278.6 243.296L268.114 249.399L255.293 242.077Z" fill="white"/>
<path d="M268.114 249.389L268.052 268.886L266.486 267.985L266.537 250.291L255.293 243.88V242.078L268.114 249.389Z" fill="#C9CEE2"/>
<path d="M288.164 237.736L298.66 231.633L298.609 251.13L288.113 257.223L288.164 237.736Z" fill="#E3E7F0"/>
<path d="M275.364 230.413L285.85 224.32L298.66 231.632L288.174 237.735L275.364 230.413Z" fill="white"/>
<path d="M288.164 237.736L288.113 257.222L286.546 256.321L286.597 238.627L275.354 232.216V230.414L288.164 237.736Z" fill="#C9CEE2"/>
<path d="M308.234 226.072L318.72 219.969L318.669 239.466L308.173 245.558L308.234 226.072Z" fill="#E3E7F0"/>
<path d="M295.414 218.749L305.91 212.656L318.72 219.968L308.234 226.071L295.414 218.749Z" fill="white"/>
<path d="M308.234 226.072L308.173 245.558L306.606 244.657L306.657 226.962L295.414 220.552V218.75L308.234 226.072Z" fill="#C9CEE2"/>
<path d="M328.294 214.409L338.78 208.316L338.729 227.803L328.233 233.906L328.294 214.409Z" fill="#E3E7F0"/>
<path d="M315.474 207.099L325.97 200.996L338.78 208.318L328.294 214.41L315.474 207.099Z" fill="white"/>
<path d="M328.294 214.409L328.233 233.906L326.666 232.995L326.717 215.3L315.474 208.9V207.098L328.294 214.409Z" fill="#C9CEE2"/>
<path d="M348.355 202.745L358.84 196.652L358.789 216.139L348.293 222.242L348.355 202.745Z" fill="#E3E7F0"/>
<path d="M335.534 195.425L346.03 189.332L358.84 196.654L348.355 202.746L335.534 195.425Z" fill="white"/>
<path d="M348.355 202.745L348.293 222.242L346.726 221.331L346.778 203.646L335.534 197.236V195.434L348.355 202.745Z" fill="#C9CEE2"/>
<path d="M368.415 191.081L378.89 184.988L378.839 204.475L368.353 210.578L368.415 191.081Z" fill="#E3E7F0"/>
<path d="M355.594 183.771L366.09 177.668L378.9 184.99L368.415 191.082L355.594 183.771Z" fill="white"/>
<path d="M368.415 191.081L368.364 210.578L366.787 209.666L366.838 191.982L355.594 185.572V183.77L368.415 191.081Z" fill="#C9CEE2"/>
<path d="M388.475 179.417L398.961 173.324L398.909 192.821L388.424 198.914L388.475 179.417Z" fill="#E3E7F0"/>
<path d="M375.654 172.108L386.15 166.016L398.961 173.327L388.475 179.42L375.654 172.108Z" fill="white"/>
<path d="M388.475 179.421L388.424 198.918L386.847 198.017L386.898 180.322L375.654 173.912V172.109L388.475 179.421Z" fill="#C9CEE2"/>
<path d="M408.535 167.767L419.021 161.664L418.97 181.161L408.484 187.254L408.535 167.767Z" fill="#E3E7F0"/>
<path d="M395.715 160.444L406.211 154.352L419.021 161.663L408.535 167.766L395.715 160.444Z" fill="white"/>
<path d="M408.535 167.767L408.484 187.254L406.907 186.352L406.958 168.658L395.715 162.248V160.445L408.535 167.767Z" fill="#C9CEE2"/>
<path d="M408.412 145.209L244.5 240.461L79.5647 145.229L243.476 49.9766L408.412 145.209Z" fill="#4D5C75"/>
<path d="M293.079 152.623C291.987 152.079 290.831 151.673 289.638 151.414L180.081 125.783C177.785 125.24 175.419 125.053 173.066 125.231C170.711 125.353 168.53 126.019 166.656 127.104L165.386 127.831C163.461 128.978 162.366 130.187 162.191 131.579C161.884 132.911 162.191 134.303 163.093 135.634L207.77 198.989C208.384 199.911 209.039 200.566 209.766 200.986C211.579 202.01 213.699 202.563 216.054 202.563C218.409 202.624 220.59 202.082 222.403 200.986C223.672 200.269 224.451 199.358 224.881 198.324C225.036 197.808 225.073 197.265 224.989 196.733C224.906 196.201 224.705 195.695 224.399 195.252L212.91 179.226L255.406 154.496L283.228 161.152C285.041 161.511 286.792 161.562 288.481 161.327C290.243 161.152 291.809 160.661 293.089 159.934C294.953 158.848 295.854 157.579 295.742 156.247C295.742 154.855 294.83 153.647 293.079 152.623ZM206.142 169.621L182.794 137.201L238.848 150.564L206.142 169.621ZM325.909 138.717C325.909 140.171 325.007 141.379 323.246 142.403C321.495 143.427 319.375 143.919 316.959 143.919C314.542 143.919 312.422 143.437 310.671 142.403L231.649 96.7633C229.909 95.7393 228.987 94.5208 228.936 93.1281C228.936 91.6843 229.775 90.4145 231.475 89.4417C233.216 88.4177 235.469 87.875 237.886 87.875C240.425 87.9364 242.534 88.4177 244.347 89.4417L323.308 135.03C325.059 136.054 325.97 137.324 325.909 138.717Z" fill="#FFDE9B"/>
</svg>
