<svg width="480" height="480" viewBox="0 0 480 480" fill="none" xmlns="http://www.w3.org/2000/svg">
<path d="M239.99 1.05335e-05C238.137 -0.00299761 236.341 0.638378 234.91 1.81422C234.91 1.81422 184.021 44.0248 184.021 112.027C184.021 116.019 184.142 119.889 184.354 123.638C178.45 128.032 173.373 133.437 169.356 139.603C160.437 152.968 152 174.678 152 208.029C152 216.496 163.4 219.156 167.179 211.597C167.179 211.597 176.432 192.911 199.533 186.319C204.885 198.142 209.632 204.854 209.632 204.854C211.144 206.85 213.502 208.029 215.982 208.029H263.998C266.507 208.029 268.866 206.82 270.378 204.824C270.378 204.824 275.125 198.142 280.507 186.289C303.608 192.881 312.86 211.597 312.86 211.597C316.67 219.156 328.039 216.465 328.039 208.029C328.039 174.708 319.603 152.968 310.683 139.603C306.663 133.413 301.575 127.987 295.656 123.578C295.867 119.829 296.018 115.988 296.018 111.997C296.018 43.9946 245.13 1.84446 245.13 1.84446C243.697 0.67083 241.902 0.0297477 240.05 0.030247H240.02L239.99 1.05335e-05ZM239.99 19.1097C243.164 22.0124 249.968 29.2995 257.043 39.9731H222.936C230.042 29.3297 236.845 22.0427 239.99 19.1097ZM88.7451 304.001H15.9953V71.9939C15.9953 67.3979 19.4725 64.0114 24.0383 64.0114H167.966C178.881 64.2532 178.881 47.9858 167.966 47.9858H24.0383C17.6755 48.0097 11.5797 50.5458 7.07765 55.0421C2.57563 59.5385 0.0318492 65.6311 0 71.9939V360C0 373.153 10.8853 383.977 24.0383 383.977H456.032C462.381 383.946 468.462 381.409 472.951 376.919C477.441 372.429 479.978 366.349 480.009 360V71.9939C479.978 65.6444 477.441 59.564 472.951 55.0741C468.462 50.5843 462.381 48.0479 456.032 48.0161H312.014C301.128 47.7742 301.128 64.0114 312.014 64.0114H456.032C460.597 64.0114 463.984 67.3979 463.984 71.9939V304.001H391.295C390.044 296.745 387.145 289.872 382.82 283.913C378.496 277.954 372.861 273.067 366.349 269.629C359.838 266.191 352.625 264.293 345.265 264.082C337.904 263.871 330.594 265.353 323.897 268.412C321.152 262.321 317.175 256.866 312.215 252.39C307.255 247.914 301.421 244.515 295.081 242.409C294.148 242.089 293.164 241.946 292.178 241.985C283.198 242.318 281.505 254.896 290.062 257.618C300.856 261.186 309.262 270.347 311.469 282.11C311.73 283.458 312.333 284.718 313.221 285.766C314.109 286.815 315.251 287.617 316.539 288.097C317.826 288.577 319.215 288.717 320.572 288.505C321.93 288.294 323.21 287.736 324.29 286.887C328.449 283.568 333.375 281.347 338.615 280.427C343.856 279.507 349.244 279.917 354.284 281.62C359.325 283.324 363.858 286.265 367.466 290.176C371.074 294.086 373.643 298.84 374.937 304.001H105.103C106.394 298.835 108.963 294.076 112.574 290.161C116.184 286.247 120.72 283.302 125.766 281.598C130.811 279.894 136.204 279.486 141.448 280.41C146.693 281.334 151.621 283.561 155.78 286.887C156.862 287.736 158.144 288.293 159.504 288.503C160.863 288.714 162.254 288.57 163.542 288.087C164.83 287.604 165.972 286.798 166.858 285.746C167.744 284.693 168.344 283.431 168.6 282.079C170.808 270.347 179.183 261.186 190.008 257.587C198.565 254.896 196.842 242.318 187.892 241.985C186.906 241.952 185.923 242.095 184.989 242.409C178.643 244.512 172.804 247.909 167.838 252.385C162.873 256.861 158.891 262.318 156.143 268.412C149.444 265.347 142.131 263.861 134.767 264.069C127.403 264.277 120.185 266.173 113.67 269.612C107.155 273.051 101.517 277.94 97.1901 283.902C92.8633 289.864 89.9939 296.741 88.7451 304.001ZM213.805 55.9986H266.144C275.048 73.3125 279.78 92.4684 279.963 111.937C279.963 161.676 262.093 187.952 259.22 191.974H220.759C217.917 187.982 200.047 161.707 200.047 111.967C200.047 90.0755 206.276 71.1775 213.865 55.9986H213.805ZM239.959 87.9891C233.607 88.013 227.522 90.5469 223.031 95.0385C218.539 99.53 216.005 105.615 215.982 111.967C215.982 125.15 226.776 136.005 239.959 136.005C246.322 135.966 252.414 133.42 256.913 128.921C261.413 124.421 263.958 118.33 263.998 111.967C263.95 105.612 261.4 99.5316 256.901 95.0434C252.401 90.5553 246.315 88.0208 239.959 87.9891ZM239.959 104.015C241.012 103.994 242.058 104.186 243.036 104.577C244.013 104.969 244.902 105.553 245.649 106.295C246.396 107.036 246.987 107.921 247.386 108.895C247.785 109.869 247.984 110.914 247.972 111.967C247.972 116.502 244.465 120.01 239.959 120.01C238.901 120.027 237.851 119.829 236.871 119.43C235.891 119.031 235.002 118.438 234.256 117.687C233.511 116.936 232.925 116.043 232.533 115.06C232.142 114.077 231.952 113.025 231.977 111.967C231.977 107.462 235.424 104.015 239.959 104.015ZM293.388 143.292C294.658 144.804 295.928 146.346 297.319 148.433C302.157 155.689 307.115 166.242 310.23 184.203C303.129 178.455 295.003 174.105 286.282 171.382C289.034 163.279 291.604 154.057 293.388 143.292ZM186.531 143.292C188.345 154.057 190.885 163.279 193.637 171.413C183.9 174.436 175.797 179.274 169.749 184.203C172.834 166.242 177.823 155.659 182.63 148.433C184.021 146.346 185.261 144.804 186.531 143.292ZM215.982 223.994C211.99 223.994 207.999 226.655 207.999 231.977C207.999 268.412 235.515 286.675 235.515 286.675C236.834 287.559 238.386 288.031 239.974 288.031C241.563 288.031 243.115 287.559 244.434 286.675C244.434 286.675 271.95 268.412 271.95 231.977C271.95 226.655 267.959 223.994 263.967 223.994C259.976 223.994 255.955 226.655 255.955 231.977C255.955 253.868 243.285 266.144 239.99 269.471C236.664 266.144 223.994 253.868 223.994 231.977C223.994 226.655 220.003 223.994 215.982 223.994ZM15.965 320.026H463.954V360C463.983 361.053 463.797 362.102 463.408 363.081C463.019 364.061 462.435 364.951 461.691 365.698C460.947 366.445 460.059 367.032 459.081 367.425C458.103 367.817 457.055 368.007 456.001 367.982H24.0383C22.9782 368.015 21.9225 367.832 20.9357 367.443C19.9488 367.055 19.0516 366.469 18.2988 365.722C17.546 364.975 16.9535 364.082 16.5574 363.098C16.1614 362.114 15.9701 361.06 15.9953 360L15.965 320.026ZM256.408 336.022H223.601C213.411 337.231 214.107 351.684 223.994 351.957H256.015C266.991 352.954 267.898 336.233 256.438 336.022H256.408ZM195.088 399.368C193.518 399.336 191.973 399.766 190.645 400.604C189.317 401.443 188.265 402.653 187.619 404.085C183.779 412.339 176.885 421.985 164.942 431.993H151.97C145.618 432.041 139.541 434.592 135.058 439.092C130.574 443.593 128.046 449.679 128.023 456.032V471.967C127.992 476.381 131.56 479.979 135.975 480.009H343.974C345.029 480.009 346.073 479.801 347.047 479.397C348.021 478.992 348.906 478.399 349.651 477.652C350.395 476.905 350.985 476.018 351.386 475.042C351.786 474.066 351.991 473.021 351.987 471.967V456.032C351.947 449.674 349.406 443.587 344.913 439.088C340.42 434.59 334.337 432.041 327.979 431.993H314.977C303.094 422.015 296.17 412.339 292.299 404.085C291.903 403.061 291.3 402.13 290.528 401.349C289.756 400.568 288.832 399.954 287.814 399.545C286.795 399.136 285.703 398.941 284.605 398.971C283.508 399.002 282.428 399.257 281.434 399.723C280.439 400.188 279.551 400.852 278.824 401.675C278.097 402.497 277.547 403.461 277.208 404.505C276.868 405.549 276.747 406.652 276.852 407.744C276.957 408.837 277.285 409.897 277.816 410.858C280.93 417.51 285.677 424.706 292.118 431.993H187.861C194.272 424.737 199.049 417.54 202.163 410.828C202.746 409.619 203.016 408.284 202.948 406.944C202.88 405.605 202.477 404.304 201.776 403.16C201.075 402.017 200.098 401.067 198.935 400.4C197.772 399.732 196.459 399.367 195.118 399.338L195.088 399.368ZM151.97 447.989H327.949C329.012 447.964 330.069 448.155 331.056 448.55C332.043 448.946 332.939 449.537 333.691 450.289C334.443 451.041 335.034 451.938 335.43 452.925C335.825 453.912 336.016 454.969 335.991 456.032V464.014H143.988V456.032C143.988 451.466 147.404 447.989 151.97 447.989Z" fill="url(#paint0_linear_743_13)"/>
<defs>
<linearGradient id="paint0_linear_743_13" x1="-1.00001" y1="5.50005" x2="440.005" y2="432.509" gradientUnits="userSpaceOnUse">
<stop stop-color="#8705FF"/>
<stop offset="1" stop-color="#CC00FF"/>
</linearGradient>
</defs>
</svg>
