<svg width="512" height="393" viewBox="0 0 512 393" fill="none" xmlns="http://www.w3.org/2000/svg">
<path d="M486.142 0H120.104C105.849 0 94.252 11.598 94.252 25.853V49.049L94.132 49.069C92.5188 49.3623 91.0597 50.2125 90.0092 51.4715C88.9587 52.7305 88.3836 54.3183 88.384 55.958V71.919C81.8507 73.8278 75.545 76.4436 69.579 79.72L58.299 68.44C57.1389 67.2801 55.6085 66.5643 53.9746 66.4176C52.3407 66.2708 50.7072 66.7024 49.359 67.637C38.0371 75.4769 28.2209 85.2931 20.381 96.615C19.4462 97.9631 19.0145 99.5967 19.1613 101.231C19.308 102.865 20.0239 104.395 21.184 105.555L32.465 116.835C29.188 122.8 26.5721 129.106 24.664 135.639H8.702C7.06214 135.639 5.47432 136.215 4.21537 137.265C2.95642 138.316 2.10622 139.776 1.813 141.389C0.609 148.008 0 154.906 0 161.889C0 168.853 0.61 175.741 1.813 182.36C2.10622 183.973 2.95642 185.433 4.21537 186.484C5.47432 187.534 7.06214 188.11 8.702 188.11H24.662C26.5673 194.647 29.1833 200.956 32.463 206.923L21.179 218.228C20.0198 219.389 19.3053 220.921 19.1604 222.555C19.0154 224.19 19.4492 225.823 20.386 227.17C28.2324 238.475 38.0459 248.278 49.359 256.112C50.7068 257.048 52.3406 257.48 53.9747 257.333C55.6089 257.186 57.1395 256.47 58.299 255.309L69.579 244.029C75.545 247.305 81.8507 249.921 88.384 251.83V267.792C88.384 269.432 88.9595 271.019 90.0101 272.278C91.0607 273.537 92.5198 274.388 94.133 274.681L94.252 274.701V294.012C94.252 308.267 105.849 319.865 120.104 319.865H259.001V334.973H228.727C212.753 334.973 199.757 347.969 199.757 363.943V385.883C199.757 387.74 200.495 389.521 201.807 390.834C203.12 392.147 204.901 392.885 206.758 392.885H399.486C400.405 392.885 401.316 392.704 402.165 392.352C403.015 392 403.787 391.484 404.437 390.834C405.087 390.184 405.603 389.412 405.954 388.562C406.306 387.713 406.487 386.802 406.487 385.883V363.943C406.487 347.969 393.491 334.973 377.517 334.973H347.214V319.865H486.14C500.395 319.865 511.993 308.267 511.993 294.012V25.852C511.994 11.597 500.396 0 486.142 0ZM72.182 229.32C70.839 228.476 69.2493 228.113 67.673 228.29C66.0968 228.468 64.6276 229.175 63.506 230.297L52.651 241.151C46.2003 236.111 40.3875 230.304 35.341 223.859L46.199 212.981C47.3202 211.858 48.0265 210.387 48.2022 208.809C48.3779 207.232 48.0125 205.642 47.166 204.299C42.3663 196.69 38.8952 188.321 36.901 179.549C36.5486 178.002 35.6812 176.621 34.441 175.632C33.2009 174.642 31.6614 174.104 30.075 174.104H14.725C14.245 170.103 14.002 166.014 14.002 161.887C14.002 157.746 14.245 153.647 14.725 149.641H30.075C33.342 149.641 36.175 147.381 36.901 144.196C38.9031 135.422 42.3759 127.051 47.172 119.436C48.016 118.093 48.3789 116.503 48.2012 114.926C48.0236 113.35 47.3158 111.881 46.194 110.759L35.34 99.905C40.383 93.4505 46.1965 87.637 52.651 82.594L63.505 93.448C64.6268 94.5693 66.096 95.2766 67.6721 95.454C69.2482 95.6315 70.8379 95.2687 72.181 94.425C79.7961 89.6298 88.1675 86.1575 96.941 84.155C98.4876 83.8023 99.8686 82.9348 100.858 81.6947C101.847 80.4546 102.386 78.9153 102.386 77.329V61.972C110.51 60.984 118.725 60.984 126.849 61.972V77.329C126.849 78.9154 127.387 80.4549 128.377 81.695C129.366 82.9352 130.747 83.8026 132.294 84.155C141.077 86.1557 149.458 89.628 157.083 94.425C158.426 95.2687 160.016 95.6315 161.592 95.454C163.168 95.2766 164.637 94.5693 165.759 93.448L176.609 82.598C183.052 87.6437 188.857 93.4551 193.896 99.904L183.042 110.758C181.918 111.882 181.21 113.354 181.034 114.934C180.858 116.513 181.225 118.106 182.074 119.449C186.868 127.035 190.321 135.361 192.335 144.194C192.688 145.741 193.555 147.122 194.795 148.111C196.035 149.1 197.575 149.639 199.161 149.639H214.517C215.509 157.763 215.509 165.978 214.518 174.102H199.161C197.571 174.102 196.029 174.643 194.788 175.636C193.546 176.629 192.68 178.015 192.33 179.566C190.362 188.334 186.894 196.696 182.079 204.283C181.227 205.626 180.858 207.219 181.032 208.799C181.207 210.38 181.914 211.854 183.037 212.979L193.894 223.857C188.852 230.297 183.048 236.102 176.608 241.144L165.758 230.294C164.636 229.172 163.167 228.465 161.591 228.287C160.015 228.11 158.425 228.473 157.082 229.317C149.458 234.114 141.076 237.587 132.293 239.587C130.746 239.94 129.365 240.807 128.376 242.047C127.387 243.287 126.848 244.827 126.848 246.413V261.77C118.741 262.759 110.475 262.757 102.385 261.77V246.413C102.385 244.827 101.847 243.287 100.857 242.047C99.868 240.807 98.4868 239.939 96.94 239.587C88.1672 237.586 79.7963 234.115 72.182 229.32ZM135.014 274.694L135.104 274.679C136.717 274.386 138.176 273.535 139.227 272.276C140.278 271.017 140.853 269.43 140.853 267.79V251.829C147.396 249.921 153.711 247.304 159.686 244.026L170.967 255.307C172.128 256.468 173.66 257.184 175.296 257.33C176.931 257.476 178.566 257.042 179.914 256.105C191.209 248.263 201.009 238.462 208.851 227.167C209.788 225.82 210.222 224.187 210.077 222.552C209.932 220.918 209.217 219.386 208.058 218.225L196.783 206.929C200.074 200.964 202.692 194.652 204.588 188.108H220.536C222.176 188.108 223.764 187.532 225.023 186.482C226.282 185.431 227.132 183.971 227.425 182.358C228.65 175.603 229.267 168.752 229.267 161.887C229.267 155.008 228.647 148.111 227.425 141.387C227.132 139.774 226.282 138.314 225.023 137.263C223.764 136.213 222.176 135.637 220.536 135.637H204.577C202.675 129.1 200.06 122.792 196.781 116.826L208.054 105.553C209.214 104.393 209.93 102.863 210.077 101.229C210.223 99.5947 209.792 97.9611 208.857 96.613C201.022 85.3009 191.219 75.4875 179.916 67.64C178.568 66.7025 176.933 66.2688 175.298 66.4147C173.662 66.5606 172.13 67.2767 170.969 68.438L159.688 79.719C153.713 76.441 147.398 73.8245 140.855 71.916V55.956C140.855 54.3164 140.28 52.7288 139.229 51.4699C138.179 50.211 136.72 49.3606 135.107 49.067L135.016 49.051V40.762H471.233V279.098H135.014V274.694ZM377.518 348.974C385.77 348.974 392.485 355.688 392.485 363.94V378.878H213.76V363.94C213.76 355.688 220.474 348.974 228.727 348.974H347.215H377.518ZM333.212 334.97H273.004V319.862H333.212V334.97ZM497.99 294.009C497.99 300.542 492.675 305.858 486.141 305.858H120.104C113.57 305.858 108.255 300.543 108.255 294.009V276.335C110.379 276.453 112.506 276.519 114.633 276.519C116.759 276.519 118.887 276.452 121.011 276.334V286.1C121.011 287.957 121.749 289.738 123.061 291.051C124.374 292.364 126.155 293.102 128.012 293.102H478.233C480.09 293.102 481.871 292.364 483.184 291.051C484.497 289.738 485.235 287.957 485.235 286.1V33.761C485.235 31.904 484.497 30.123 483.184 28.8098C481.871 27.4967 480.09 26.759 478.233 26.759H128.013C127.094 26.759 126.183 26.9401 125.334 27.292C124.484 27.6439 123.712 28.1597 123.062 28.8099C122.412 29.4601 121.896 30.232 121.545 31.0815C121.193 31.931 121.012 32.8415 121.012 33.761V47.417C116.763 47.1828 112.505 47.1822 108.256 47.415V25.852C108.256 19.319 113.571 14.003 120.105 14.003H486.143C492.676 14.003 497.992 19.318 497.992 25.852V294.009H497.99ZM181.105 161.887C181.105 125.218 151.286 95.385 114.632 95.385C77.964 95.385 48.132 125.218 48.132 161.887C48.132 198.54 77.964 228.36 114.632 228.36C151.286 228.36 181.105 198.541 181.105 161.887ZM62.135 161.887C62.135 132.94 85.685 109.389 114.633 109.389C143.565 109.389 167.103 132.94 167.103 161.887C167.103 190.819 143.565 214.356 114.633 214.356C85.685 214.356 62.135 190.819 62.135 161.887ZM99.533 178.545L89.64 188.455L68.017 166.871C67.3659 166.221 66.8493 165.449 66.4967 164.6C66.144 163.75 65.9623 162.839 65.9618 161.919C65.9614 160.999 66.1422 160.088 66.494 159.238C66.8457 158.388 67.3616 157.616 68.012 156.965L89.631 135.347L99.533 145.248L82.869 161.912L99.533 178.545ZM129.733 145.191L139.635 135.29L161.225 156.88C162.537 158.192 163.274 159.972 163.275 161.828C163.276 163.683 162.54 165.464 161.229 166.777L139.643 188.399L129.733 178.505L146.377 161.834L129.733 145.191ZM130.094 131.137L112.67 196.255L99.143 192.636L116.567 127.518L130.094 131.137ZM359.716 56.863H279.836C278.917 56.863 278.006 57.0441 277.157 57.396C276.307 57.7479 275.535 58.2637 274.885 58.9139C274.235 59.5641 273.719 60.336 273.368 61.1855C273.016 62.035 272.835 62.9455 272.835 63.865V143.774C272.835 145.631 273.573 147.412 274.885 148.725C276.198 150.038 277.979 150.776 279.836 150.776H359.716C360.635 150.776 361.546 150.595 362.395 150.243C363.245 149.891 364.017 149.375 364.667 148.725C365.317 148.075 365.833 147.303 366.184 146.453C366.536 145.604 366.717 144.693 366.717 143.774V63.865C366.717 62.9455 366.536 62.0349 366.185 61.1854C365.833 60.3358 365.317 59.5638 364.667 58.9136C364.017 58.2634 363.245 57.7476 362.396 57.3958C361.546 57.0439 360.636 56.8629 359.716 56.863ZM352.715 136.772H286.837V70.867H352.714L352.715 136.772ZM359.716 169.115H279.836C278.917 169.115 278.006 169.296 277.157 169.648C276.307 170 275.535 170.516 274.885 171.166C274.235 171.816 273.719 172.588 273.368 173.438C273.016 174.287 272.835 175.198 272.835 176.117V255.997C272.835 257.854 273.573 259.635 274.885 260.948C276.198 262.261 277.979 262.999 279.836 262.999H359.716C360.635 262.999 361.546 262.818 362.395 262.466C363.245 262.114 364.017 261.598 364.667 260.948C365.317 260.298 365.833 259.526 366.184 258.676C366.536 257.827 366.717 256.916 366.717 255.997V176.117C366.717 175.197 366.536 174.287 366.185 173.437C365.833 172.588 365.317 171.816 364.667 171.166C364.017 170.515 363.245 170 362.396 169.648C361.546 169.296 360.636 169.115 359.716 169.115ZM352.715 248.995H286.837V183.119H352.714L352.715 248.995ZM305.213 124.025L290.634 104.813L301.789 96.348L311.21 108.763L338.513 77.962L348.992 87.251L316.03 124.437C315.343 125.212 314.493 125.825 313.541 126.232C312.589 126.639 311.559 126.829 310.524 126.79C309.489 126.751 308.476 126.482 307.558 126.004C306.64 125.526 305.839 124.85 305.213 124.025ZM296.325 229.607L309.875 216.057L296.325 202.507L306.227 192.606L319.777 206.156L333.327 192.606L343.229 202.507L329.679 216.057L343.229 229.607L333.327 239.508L319.777 225.958L306.227 239.508L296.325 229.607ZM382.11 87.987H459.099V101.991H382.11V87.987ZM382.11 56.863H459.099V70.867H382.11V56.863ZM382.11 200.239H459.099V214.243H382.11V200.239ZM382.11 169.115H459.099V183.119H382.11V169.115Z" fill="url(#paint0_linear_743_43)"/>
<defs>
<linearGradient id="paint0_linear_743_43" x1="-1.06664" y1="4.50176" x2="350.532" y2="448.15" gradientUnits="userSpaceOnUse">
<stop stop-color="#8705FF"/>
<stop offset="1" stop-color="#CC00FF"/>
</linearGradient>
</defs>
</svg>
