<svg width="482" height="465" viewBox="0 0 482 465" fill="none" xmlns="http://www.w3.org/2000/svg">
<path fill-rule="evenodd" clip-rule="evenodd" d="M344.342 111.434C339.909 111.434 336.311 107.835 336.311 103.402C336.311 98.9691 339.909 95.3711 344.342 95.3711H405.759C410.192 95.3711 413.79 98.9691 413.79 103.402C413.79 107.835 410.192 111.434 405.759 111.434H344.342ZM76.1232 111.434C71.6899 111.434 68.0918 107.835 68.0918 103.402C68.0918 98.9691 71.6899 95.3711 76.1232 95.3711H137.54C141.973 95.3711 145.571 98.9691 145.571 103.402C145.571 107.835 141.973 111.434 137.54 111.434H76.1232Z" fill="#A79BA7"/>
<path fill-rule="evenodd" clip-rule="evenodd" d="M405.759 86.7578C414.948 86.7578 422.407 94.217 422.407 103.406C422.407 112.594 414.948 120.053 405.759 120.053C396.571 120.053 389.112 112.594 389.112 103.406C389.112 94.217 396.571 86.7578 405.759 86.7578ZM76.1236 86.7578C85.3115 86.7578 92.7706 94.217 92.7706 103.406C92.7706 112.594 85.3115 120.053 76.1236 120.053C66.9347 120.053 59.4756 112.594 59.4756 103.406C59.4756 94.217 66.9347 86.7578 76.1236 86.7578Z" fill="#8AC9FE"/>
<path fill-rule="evenodd" clip-rule="evenodd" d="M402.598 87.058C403.639 86.858 404.698 86.7575 405.759 86.7578C414.948 86.7578 422.407 94.217 422.407 103.406C422.407 112.594 414.948 120.053 405.759 120.053C404.679 120.053 403.622 119.95 402.598 119.753C410.277 118.274 416.084 111.513 416.084 103.406C416.084 95.2982 410.277 88.5368 402.598 87.058ZM72.9609 87.058C74.0032 86.8579 75.062 86.7574 76.1233 86.7578C85.3112 86.7578 92.7703 94.217 92.7703 103.406C92.7703 112.594 85.3112 120.053 76.1233 120.053C75.0421 120.053 73.9849 119.95 72.9609 119.753C80.6399 118.274 86.4476 111.513 86.4476 103.406C86.4476 95.2982 80.6399 88.5368 72.9609 87.058Z" fill="#60B7FF"/>
<path fill-rule="evenodd" clip-rule="evenodd" d="M261.526 17.1349C270.656 19.3071 279.381 22.9228 287.37 27.8458L304.163 20.3957L323.948 40.181L316.498 56.9746C321.422 64.9642 325.038 73.6886 327.21 82.8185L344.345 89.4133V117.407L327.21 124.001C325.035 133.126 321.419 141.846 316.498 149.832L323.948 166.626L304.163 186.423L287.37 178.961C279.381 183.888 270.657 187.508 261.526 189.685L254.932 206.808H226.938L220.344 189.672C211.218 187.498 202.498 183.882 194.512 178.961L177.719 186.423L157.921 166.626L165.384 149.844C160.461 141.854 156.841 133.13 154.66 124.001L137.537 117.407V89.4133L154.66 82.8185C156.837 73.6881 160.457 64.9636 165.384 56.9746L157.921 40.181L177.719 20.3957L194.5 27.8458C202.491 22.927 211.215 19.3115 220.344 17.1349L226.938 0H254.932L261.526 17.1349Z" fill="#FFE177"/>
<path fill-rule="evenodd" clip-rule="evenodd" d="M298.521 22.8995L304.164 20.3957L323.949 40.181L316.499 56.9746C321.422 64.9642 325.038 73.6886 327.211 82.8185L344.345 89.4133V117.407L327.211 124.001C325.036 133.126 321.42 141.846 316.499 149.832L323.949 166.626L304.164 186.423L298.521 183.919L315.815 166.626L308.353 149.832C313.274 141.846 316.89 133.127 319.064 124.001L336.2 117.407V89.4133L319.064 82.8185C316.892 73.6885 313.276 64.964 308.353 56.9746L315.815 40.181L298.521 22.8995ZM175.216 22.8995L177.72 20.3957L194.5 27.8458C193.314 28.5028 192.145 29.1911 190.995 29.9098L175.216 22.8995ZM261.527 17.1349C270.657 19.3071 279.381 22.9228 287.371 27.8458L282.742 29.9098C274.754 24.9876 262.517 19.3084 253.381 17.1349L246.785 0H254.932L261.527 17.1349ZM194.512 178.961L177.72 186.423L175.216 183.919L190.995 176.909C192.151 177.622 193.323 178.306 194.512 178.961ZM287.371 178.961C279.382 183.888 270.657 187.508 261.527 189.685L254.932 206.808H246.785L253.381 189.685C262.517 187.51 274.754 181.831 282.754 176.909L287.371 178.961Z" fill="#FFD064"/>
<path fill-rule="evenodd" clip-rule="evenodd" d="M240.935 44.3242C273.57 44.3242 300.022 70.7766 300.022 103.411C300.022 136.032 273.57 162.486 240.935 162.486C208.313 162.486 181.86 136.032 181.86 103.411C181.86 70.7766 208.313 44.3242 240.935 44.3242Z" fill="#ECEFF1"/>
<path fill-rule="evenodd" clip-rule="evenodd" d="M240.935 44.3242C242.279 44.3242 243.612 44.3724 244.944 44.4678C214.183 46.5208 189.854 72.1208 189.854 103.411C189.854 134.688 214.183 160.289 244.944 162.353C243.609 162.44 242.272 162.484 240.935 162.486C208.313 162.486 181.86 136.032 181.86 103.411C181.86 70.7766 208.313 44.3242 240.935 44.3242Z" fill="#D1D1D6"/>
<path fill-rule="evenodd" clip-rule="evenodd" d="M209.368 110.621C207.863 109.114 207.018 107.071 207.018 104.941C207.018 102.812 207.863 100.769 209.368 99.2622C210.875 97.7569 212.918 96.9114 215.048 96.9114C217.177 96.9114 219.22 97.7569 220.727 99.2622L230.429 108.963L261.466 80.8081C264.749 77.8295 269.832 78.0774 272.81 81.3603C275.789 84.6431 275.541 89.7259 272.258 92.7046L235.555 126.001C234.027 127.386 232.025 128.131 229.963 128.081C227.901 128.031 225.938 127.189 224.479 125.731L209.368 110.621Z" fill="#8AC9FE"/>
<path fill-rule="evenodd" clip-rule="evenodd" d="M110.953 310.817H204.654C214.278 310.818 223.507 314.641 230.312 321.446C237.117 328.251 240.94 337.48 240.941 347.103V464.271H75.6826V349.985C75.6826 346.509 74.1587 343.208 71.5134 340.953L6.25443 285.332C4.29367 283.661 2.719 281.584 1.63917 279.245C0.559332 276.906 6.88765e-05 274.36 0 271.784V196.815C-6.03875e-09 190.946 2.33156 185.317 6.4818 181.166C10.632 177.016 16.261 174.684 22.1304 174.684H22.1345C28.0041 174.684 33.6333 177.015 37.7838 181.166C41.9342 185.316 44.2659 190.945 44.2659 196.815V251.349C44.2659 253.925 44.8251 256.471 45.9047 258.81C46.9844 261.149 48.5588 263.226 50.5193 264.897L99.4063 306.564C102.627 309.309 106.721 310.817 110.953 310.817Z" fill="#FFE177"/>
<path fill-rule="evenodd" clip-rule="evenodd" d="M188.644 464.27V359.945C188.644 355.513 192.243 351.914 196.675 351.914C201.108 351.914 204.706 355.513 204.706 359.945V464.27H188.644Z" fill="#FFD064"/>
<path d="M141.427 286.703C165.013 286.703 184.133 266.973 184.133 242.635C184.133 218.296 165.013 198.566 141.427 198.566C117.84 198.566 98.7197 218.296 98.7197 242.635C98.7197 266.973 117.84 286.703 141.427 286.703Z" fill="#F6DCCD"/>
<path fill-rule="evenodd" clip-rule="evenodd" d="M146.446 286.402C144.8 286.6 143.124 286.703 141.427 286.703C117.855 286.703 98.7197 266.957 98.7197 242.635C98.7197 218.313 117.855 198.566 141.427 198.566C143.104 198.566 144.781 198.667 146.446 198.869C125.237 201.436 108.759 220.065 108.759 242.635C108.759 265.205 125.237 283.834 146.446 286.402Z" fill="#F1CBBC"/>
<path fill-rule="evenodd" clip-rule="evenodd" d="M370.929 310.817H277.228C267.605 310.818 258.375 314.641 251.57 321.446C244.766 328.251 240.942 337.48 240.941 347.103V464.271H406.2V349.985C406.2 346.509 407.724 343.208 410.369 340.953L475.628 285.332C477.589 283.661 479.164 281.584 480.243 279.245C481.323 276.906 481.883 274.36 481.883 271.784V196.815C481.883 190.946 479.551 185.317 475.401 181.166C471.251 177.016 465.622 174.684 459.752 174.684H459.748C453.879 174.684 448.249 177.015 444.099 181.166C439.948 185.316 437.617 190.945 437.617 196.815V251.349C437.617 253.925 437.058 256.471 435.978 258.81C434.898 261.149 433.324 263.226 431.363 264.897L382.476 306.564C379.255 309.309 375.162 310.817 370.929 310.817Z" fill="#8AC9FE"/>
<path fill-rule="evenodd" clip-rule="evenodd" d="M277.176 464.27V359.945C277.176 355.513 280.774 351.914 285.207 351.914C289.639 351.914 293.239 355.513 293.239 359.945V464.27H277.176Z" fill="#60B7FF"/>
<path d="M340.456 286.703C364.042 286.703 383.163 266.973 383.163 242.635C383.163 218.296 364.042 198.566 340.456 198.566C316.87 198.566 297.749 218.296 297.749 242.635C297.749 266.973 316.87 286.703 340.456 286.703Z" fill="#F6DCCD"/>
<path fill-rule="evenodd" clip-rule="evenodd" d="M335.437 286.402C356.645 283.834 373.124 265.205 373.124 242.635C373.124 220.065 356.645 201.436 335.437 198.869C337.102 198.667 338.778 198.566 340.456 198.566C364.027 198.566 383.163 218.313 383.163 242.635C383.163 266.957 364.027 286.703 340.456 286.703C338.759 286.703 337.083 286.6 335.437 286.402Z" fill="#F1CBBC"/>
</svg>
