<svg width="480" height="480" viewBox="0 0 480 480" fill="none" xmlns="http://www.w3.org/2000/svg">
<path d="M296 111.988C293.878 111.988 291.843 111.145 290.343 109.645C288.843 108.145 288 106.11 288 103.988V47.9883H120C117.878 47.9883 115.843 47.1454 114.343 45.6451C112.843 44.1448 112 42.11 112 39.9883C112 37.8665 112.843 35.8317 114.343 34.3314C115.843 32.8311 117.878 31.9883 120 31.9883H296C298.122 31.9883 300.157 32.8311 301.657 34.3314C303.157 35.8317 304 37.8665 304 39.9883V103.988C304 106.11 303.157 108.145 301.657 109.645C300.157 111.145 298.122 111.988 296 111.988ZM152 351.988H56C53.8783 351.988 51.8434 351.145 50.3431 349.645C48.8429 348.145 48 346.11 48 343.988V103.988C48 101.867 48.8429 99.8317 50.3431 98.3314C51.8434 96.8311 53.8783 95.9883 56 95.9883C58.1217 95.9883 60.1566 96.8311 61.6569 98.3314C63.1571 99.8317 64 101.867 64 103.988V335.988H152C154.122 335.988 156.157 336.831 157.657 338.331C159.157 339.832 160 341.867 160 343.988C160 346.11 159.157 348.145 157.657 349.645C156.157 351.145 154.122 351.988 152 351.988ZM424 447.988H184C181.878 447.988 179.843 447.145 178.343 445.645C176.843 444.145 176 442.11 176 439.988V199.988C176 197.867 176.843 195.832 178.343 194.331C179.843 192.831 181.878 191.988 184 191.988C186.122 191.988 188.157 192.831 189.657 194.331C191.157 195.832 192 197.867 192 199.988V431.988H416V143.988H248C245.878 143.988 243.843 143.145 242.343 141.645C240.843 140.145 240 138.11 240 135.988C240 133.867 240.843 131.832 242.343 130.331C243.843 128.831 245.878 127.988 248 127.988H424C426.122 127.988 428.157 128.831 429.657 130.331C431.157 131.832 432 133.867 432 135.988V439.988C432 442.11 431.157 444.145 429.657 445.645C428.157 447.145 426.122 447.988 424 447.988Z" fill="url(#paint0_linear_1075_561)"/>
<path d="M152 271.988H104C101.878 271.988 99.8434 271.145 98.3431 269.645C96.8429 268.145 96 266.11 96 263.988C96 261.867 96.8429 259.832 98.3431 258.331C99.8434 256.831 101.878 255.988 104 255.988H152C154.122 255.988 156.157 256.831 157.657 258.331C159.157 259.832 160 261.867 160 263.988C160 266.11 159.157 268.145 157.657 269.645C156.157 271.145 154.122 271.988 152 271.988ZM152 239.988H104C101.878 239.988 99.8434 239.145 98.3431 237.645C96.8429 236.145 96 234.11 96 231.988C96 229.867 96.8429 227.832 98.3431 226.331C99.8434 224.831 101.878 223.988 104 223.988H152C154.122 223.988 156.157 224.831 157.657 226.331C159.157 227.832 160 229.867 160 231.988C160 234.11 159.157 236.145 157.657 237.645C156.157 239.145 154.122 239.988 152 239.988ZM152 207.988H104C101.878 207.988 99.8434 207.145 98.3431 205.645C96.8429 204.145 96 202.11 96 199.988C96 197.867 96.8429 195.832 98.3431 194.331C99.8434 192.831 101.878 191.988 104 191.988H152C154.122 191.988 156.157 192.831 157.657 194.331C159.157 195.832 160 197.867 160 199.988C160 202.11 159.157 204.145 157.657 205.645C156.157 207.145 154.122 207.988 152 207.988ZM168 175.988H104C101.878 175.988 99.8434 175.145 98.3431 173.645C96.8429 172.145 96 170.11 96 167.988C96 165.867 96.8429 163.832 98.3431 162.331C99.8434 160.831 101.878 159.988 104 159.988H168C170.122 159.988 172.157 160.831 173.657 162.331C175.157 163.832 176 165.867 176 167.988C176 170.11 175.157 172.145 173.657 173.645C172.157 175.145 170.122 175.988 168 175.988ZM200 143.988H104C101.878 143.988 99.8434 143.145 98.3431 141.645C96.8429 140.145 96 138.11 96 135.988C96 133.867 96.8429 131.832 98.3431 130.331C99.8434 128.831 101.878 127.988 104 127.988H200C202.122 127.988 204.157 128.831 205.657 130.331C207.157 131.832 208 133.867 208 135.988C208 138.11 207.157 140.145 205.657 141.645C204.157 143.145 202.122 143.988 200 143.988ZM312 367.988H232C229.878 367.988 227.843 367.145 226.343 365.645C224.843 364.145 224 362.11 224 359.988C224 357.867 224.843 355.832 226.343 354.331C227.843 352.831 229.878 351.988 232 351.988H312C314.122 351.988 316.157 352.831 317.657 354.331C319.157 355.832 320 357.867 320 359.988C320 362.11 319.157 364.145 317.657 365.645C316.157 367.145 314.122 367.988 312 367.988ZM376 335.988H232C229.878 335.988 227.843 335.145 226.343 333.645C224.843 332.145 224 330.11 224 327.988C224 325.867 224.843 323.832 226.343 322.331C227.843 320.831 229.878 319.988 232 319.988H376C378.122 319.988 380.157 320.831 381.657 322.331C383.157 323.832 384 325.867 384 327.988C384 330.11 383.157 332.145 381.657 333.645C380.157 335.145 378.122 335.988 376 335.988ZM376 303.988H232C229.878 303.988 227.843 303.145 226.343 301.645C224.843 300.145 224 298.11 224 295.988C224 293.867 224.843 291.832 226.343 290.331C227.843 288.831 229.878 287.988 232 287.988H376C378.122 287.988 380.157 288.831 381.657 290.331C383.157 291.832 384 293.867 384 295.988C384 298.11 383.157 300.145 381.657 301.645C380.157 303.145 378.122 303.988 376 303.988ZM376 271.988H232C229.878 271.988 227.843 271.145 226.343 269.645C224.843 268.145 224 266.11 224 263.988C224 261.867 224.843 259.832 226.343 258.331C227.843 256.831 229.878 255.988 232 255.988H376C378.122 255.988 380.157 256.831 381.657 258.331C383.157 259.832 384 261.867 384 263.988C384 266.11 383.157 268.145 381.657 269.645C380.157 271.145 378.122 271.988 376 271.988ZM376 239.988H232C229.878 239.988 227.843 239.145 226.343 237.645C224.843 236.145 224 234.11 224 231.988C224 229.867 224.843 227.832 226.343 226.331C227.843 224.831 229.878 223.988 232 223.988H376C378.122 223.988 380.157 224.831 381.657 226.331C383.157 227.832 384 229.867 384 231.988C384 234.11 383.157 236.145 381.657 237.645C380.157 239.145 378.122 239.988 376 239.988ZM376 207.988H280C277.878 207.988 275.843 207.145 274.343 205.645C272.843 204.145 272 202.11 272 199.988C272 197.867 272.843 195.832 274.343 194.331C275.843 192.831 277.878 191.988 280 191.988H376C378.122 191.988 380.157 192.831 381.657 194.331C383.157 195.832 384 197.867 384 199.988C384 202.11 383.157 204.145 381.657 205.645C380.157 207.145 378.122 207.988 376 207.988ZM248 111.988H152C149.878 111.988 147.843 111.145 146.343 109.645C144.843 108.145 144 106.11 144 103.988C144 101.867 144.843 99.8317 146.343 98.3314C147.843 96.8311 149.878 95.9883 152 95.9883H248C250.122 95.9883 252.157 96.8311 253.657 98.3314C255.157 99.8317 256 101.867 256 103.988C256 106.11 255.157 108.145 253.657 109.645C252.157 111.145 250.122 111.988 248 111.988ZM72.08 367.988C73.776 367.988 75.472 368.516 76.88 369.588L140.88 417.588C141.871 418.335 142.674 419.302 143.228 420.413C143.781 421.524 144.069 422.747 144.069 423.988C144.069 425.229 143.781 426.453 143.228 427.564C142.674 428.674 141.871 429.641 140.88 430.388L76.88 478.372C75.688 479.267 74.2709 479.814 72.7866 479.95C71.3024 480.087 69.8093 479.809 68.4738 479.147C67.1382 478.485 66.0128 477.465 65.2229 476.201C64.433 474.937 64.0096 473.479 64 471.988V439.988C64 437.867 64.8429 435.832 66.3431 434.331C67.8434 432.831 69.8783 431.988 72 431.988C74.1217 431.988 76.1566 432.831 77.6569 434.331C79.1571 435.832 80 437.867 80 439.988V455.988L122.672 423.988L80 391.988V407.988C80 410.11 79.1571 412.145 77.6569 413.645C76.1566 415.145 74.1217 415.988 72 415.988C69.8783 415.988 67.8434 415.145 66.3431 413.645C64.8429 412.145 64 410.11 64 407.988V375.988C64.0042 374.932 64.2166 373.887 64.6252 372.913C65.0337 371.939 65.6303 371.056 66.3808 370.312C67.1313 369.569 68.021 368.982 68.9989 368.583C69.9769 368.184 71.0239 367.982 72.08 367.988Z" fill="url(#paint1_linear_1075_561)"/>
<path d="M47.8711 407.988C47.8711 410.11 48.714 412.145 50.2142 413.645C51.7145 415.145 53.7494 415.988 55.8711 415.988H72.1591C76.5591 415.988 79.8711 412.404 79.8711 407.988C79.8711 403.572 76.5591 399.988 72.1591 399.988H55.8711C53.7494 399.988 51.7145 400.831 50.2142 402.331C48.714 403.832 47.8711 405.867 47.8711 407.988Z" fill="url(#paint2_linear_1075_561)"/>
<path d="M8 207.988C12.4183 207.988 16 204.407 16 199.988C16 195.57 12.4183 191.988 8 191.988C3.58172 191.988 0 195.57 0 199.988C0 204.407 3.58172 207.988 8 207.988Z" fill="url(#paint3_linear_1075_561)"/>
<path d="M72 447.989H40C29.3939 447.98 19.2247 443.763 11.7251 436.264C4.22547 428.764 0.00847468 418.595 0 407.989V231.989C0 229.867 0.842854 227.832 2.34315 226.332C3.84344 224.832 5.87827 223.989 8 223.989C10.1217 223.989 12.1566 224.832 13.6569 226.332C15.1571 227.832 16 229.867 16 231.989V407.989C16 421.221 26.768 431.989 40 431.989H72C74.1217 431.989 76.1566 432.832 77.6569 434.332C79.1571 435.832 80 437.867 80 439.989C80 442.11 79.1571 444.145 77.6569 445.646C76.1566 447.146 74.1217 447.989 72 447.989ZM407.712 111.989C405.98 111.996 404.293 111.434 402.912 110.389L338.912 62.3887C337.921 61.6416 337.118 60.6747 336.564 59.5641C336.011 58.4535 335.723 57.2296 335.723 55.9887C335.723 54.7479 336.011 53.524 336.564 52.4134C337.118 51.3028 337.921 50.3359 338.912 49.5887L402.912 1.58874C404.12 0.703045 405.547 0.164765 407.039 0.032209C408.531 -0.100347 410.031 0.177875 411.376 0.836734C414.096 2.19673 415.904 4.96473 415.904 7.98873V39.9887C415.904 42.1105 415.061 44.1453 413.561 45.6456C412.061 47.1459 410.026 47.9887 407.904 47.9887C405.782 47.9887 403.747 47.1459 402.247 45.6456C400.747 44.1453 399.904 42.1105 399.904 39.9887V23.9887L357.232 55.9887L399.904 87.9887V71.9887C399.904 69.867 400.747 67.8322 402.247 66.3319C403.747 64.8316 405.782 63.9887 407.904 63.9887C410.026 63.9887 412.061 64.8316 413.561 66.3319C415.061 67.8322 415.904 69.867 415.904 71.9887V103.989C415.891 105.052 415.67 106.102 415.251 107.08C414.833 108.057 414.226 108.943 413.465 109.686C412.704 110.428 411.805 111.014 410.818 111.409C409.83 111.805 408.775 112.001 407.712 111.989Z" fill="url(#paint4_linear_1075_561)"/>
<path d="M431.92 71.9883C431.92 69.8665 431.077 67.8317 429.577 66.3314C428.076 64.8311 426.042 63.9883 423.92 63.9883H407.632C403.232 63.9883 399.92 67.5723 399.92 71.9883C399.92 76.4043 403.232 79.9883 407.648 79.9883H423.936C426.055 79.984 428.086 79.1393 429.582 77.6395C431.079 76.1397 431.92 74.1072 431.92 71.9883Z" fill="url(#paint5_linear_1075_561)"/>
<path d="M472 287.988C476.418 287.988 480 284.407 480 279.988C480 275.57 476.418 271.988 472 271.988C467.582 271.988 464 275.57 464 279.988C464 284.407 467.582 287.988 472 287.988Z" fill="url(#paint6_linear_1075_561)"/>
<path d="M408.001 31.9883H440.001C462.065 31.9883 480.001 49.9243 480.001 71.9883V247.988C480.001 250.11 479.158 252.145 477.658 253.645C476.157 255.145 474.122 255.988 472.001 255.988C469.879 255.988 467.844 255.145 466.344 253.645C464.843 252.145 464.001 250.11 464.001 247.988V71.9883C464.001 58.7563 453.233 47.9883 440.001 47.9883H408.001C405.879 47.9883 403.844 47.1454 402.344 45.6451C400.843 44.1448 400.001 42.11 400.001 39.9883C400.001 37.8665 400.843 35.8317 402.344 34.3314C403.844 32.8311 405.879 31.9883 408.001 31.9883ZM120.001 111.988H56.0006C54.4163 111.991 52.8668 111.523 51.5486 110.645C50.2304 109.766 49.2028 108.515 48.5961 107.052C47.9894 105.588 47.831 103.977 48.1408 102.424C48.4507 100.87 49.2149 99.4432 50.3366 98.3243L114.337 34.3243C115.845 32.867 117.866 32.0607 119.964 32.0789C122.061 32.0971 124.068 32.9385 125.551 34.4217C127.034 35.905 127.876 37.9115 127.894 40.0091C127.912 42.1066 127.106 44.1275 125.649 45.6363L75.3126 95.9883H112.001V79.9883C112.001 77.8665 112.843 75.8317 114.344 74.3314C115.844 72.8311 117.879 71.9883 120.001 71.9883C122.122 71.9883 124.157 72.8311 125.658 74.3314C127.158 75.8317 128.001 77.8665 128.001 79.9883V103.988C128.001 106.11 127.158 108.145 125.658 109.645C124.157 111.145 122.122 111.988 120.001 111.988ZM248.001 207.988H184.001C182.416 207.991 180.867 207.523 179.549 206.645C178.23 205.766 177.203 204.515 176.596 203.052C175.989 201.588 175.831 199.977 176.141 198.424C176.451 196.87 177.215 195.443 178.337 194.324L242.337 130.324C243.845 128.867 245.866 128.061 247.964 128.079C250.061 128.097 252.068 128.938 253.551 130.422C255.034 131.905 255.876 133.912 255.894 136.009C255.912 138.107 255.106 140.127 253.649 141.636L203.313 191.988H240.001V175.988C240.001 173.867 240.843 171.832 242.344 170.331C243.844 168.831 245.879 167.988 248.001 167.988C250.122 167.988 252.157 168.831 253.658 170.331C255.158 171.832 256.001 173.867 256.001 175.988V199.988C256.001 202.11 255.158 204.145 253.658 205.645C252.157 207.145 250.122 207.988 248.001 207.988Z" fill="url(#paint7_linear_1075_561)"/>
<defs>
<linearGradient id="paint0_linear_1075_561" x1="61.701" y1="58.8009" x2="461.046" y2="481.857" gradientUnits="userSpaceOnUse">
<stop stop-color="#1BA2D7"/>
<stop offset="1" stop-color="#8D3DFA"/>
</linearGradient>
<linearGradient id="paint1_linear_1075_561" x1="75.4175" y1="120.738" x2="444.286" y2="473.521" gradientUnits="userSpaceOnUse">
<stop stop-color="#1BA2D7"/>
<stop offset="1" stop-color="#8D3DFA"/>
</linearGradient>
<linearGradient id="paint2_linear_1075_561" x1="49.0128" y1="401.02" x2="60.2798" y2="426.881" gradientUnits="userSpaceOnUse">
<stop stop-color="#1BA2D7"/>
<stop offset="1" stop-color="#8D3DFA"/>
</linearGradient>
<linearGradient id="paint3_linear_1075_561" x1="0.570877" y1="193.02" x2="15.8111" y2="210.51" gradientUnits="userSpaceOnUse">
<stop stop-color="#1BA2D7"/>
<stop offset="1" stop-color="#8D3DFA"/>
</linearGradient>
<linearGradient id="paint4_linear_1075_561" x1="14.8394" y1="28.8744" x2="444.743" y2="486.921" gradientUnits="userSpaceOnUse">
<stop stop-color="#1BA2D7"/>
<stop offset="1" stop-color="#8D3DFA"/>
</linearGradient>
<linearGradient id="paint5_linear_1075_561" x1="401.062" y1="65.0195" x2="412.329" y2="90.8808" gradientUnits="userSpaceOnUse">
<stop stop-color="#1BA2D7"/>
<stop offset="1" stop-color="#8D3DFA"/>
</linearGradient>
<linearGradient id="paint6_linear_1075_561" x1="464.571" y1="273.02" x2="479.811" y2="290.51" gradientUnits="userSpaceOnUse">
<stop stop-color="#1BA2D7"/>
<stop offset="1" stop-color="#8D3DFA"/>
</linearGradient>
<linearGradient id="paint7_linear_1075_561" x1="63.4005" y1="46.4258" x2="225.031" y2="404.182" gradientUnits="userSpaceOnUse">
<stop stop-color="#1BA2D7"/>
<stop offset="1" stop-color="#8D3DFA"/>
</linearGradient>
</defs>
</svg>
