<svg width="393" height="338" viewBox="0 0 393 338" fill="none" xmlns="http://www.w3.org/2000/svg">
<path d="M348.96 53.6333C344.734 53.6333 340.733 55.2527 337.697 58.193L336.606 59.2481V46.6805C336.606 20.9408 315.665 0 289.924 0H258.458C249.528 0 242.263 7.26503 242.263 16.1949C242.263 25.1249 249.528 32.39 258.458 32.39H289.924C297.805 32.39 304.216 38.8006 304.216 46.6805V58.4047C301.403 56.2386 297.973 55.065 294.361 55.065C290.034 55.065 285.966 56.7494 282.911 59.8071C279.851 62.8658 278.166 66.933 278.166 71.2594C278.166 75.5857 279.851 79.6529 282.911 82.7114L309.041 108.842C312.182 111.983 316.336 113.557 320.494 113.556C324.563 113.556 328.635 112.048 331.756 109.025L360.224 81.4636C363.333 78.4549 365.084 74.4157 365.154 70.09C365.224 65.7646 363.606 61.6712 360.597 58.5642C357.519 55.3845 353.387 53.6333 348.96 53.6333ZM355.492 76.5752L327.024 104.138C323.363 107.682 317.455 107.635 313.851 104.031L287.721 77.9004C285.946 76.1266 284.969 73.7681 284.969 71.2594C284.969 68.7506 285.946 66.3922 287.722 64.6173C289.494 62.8447 291.851 61.8683 294.361 61.8683C296.871 61.8683 299.228 62.8447 301.001 64.618L305.213 68.8297C305.688 69.3055 306.294 69.6296 306.954 69.7608C307.614 69.8921 308.298 69.8246 308.919 69.567C309.541 69.3095 310.072 68.8735 310.446 68.3142C310.82 67.7548 311.019 67.0971 311.019 66.4243V46.6806C311.019 35.0495 301.556 25.5868 289.924 25.5868H258.458C253.279 25.5868 249.066 21.3737 249.066 16.1951C249.066 11.0166 253.279 6.80346 258.458 6.80346H289.924C311.913 6.80346 329.803 24.6922 329.803 46.6806V67.2758C329.803 67.9439 329.999 68.5972 330.368 69.1543C330.737 69.7113 331.262 70.1473 331.877 70.4078C332.492 70.6684 333.171 70.7422 333.827 70.6199C334.484 70.4975 335.09 70.1845 335.57 69.7199L342.429 63.0812C344.19 61.3759 346.51 60.4366 348.96 60.4366C351.527 60.4366 353.924 61.452 355.709 63.2964C357.453 65.0981 358.392 67.4717 358.351 69.9799C358.31 72.4881 357.296 74.8302 355.492 76.5752ZM152.337 318.558H225.394C234.324 318.558 241.589 311.293 241.589 302.363C241.589 293.433 234.324 286.168 225.394 286.168H152.337C144.457 286.168 138.046 279.758 138.046 271.878V260.153C140.859 262.32 144.289 263.493 147.901 263.493C152.228 263.493 156.295 261.809 159.351 258.751C162.411 255.693 164.095 251.625 164.095 247.299C164.095 242.973 162.411 238.905 159.351 235.847L133.22 209.716C127.008 203.503 116.818 203.421 110.505 209.533L82.0374 237.095C78.9285 240.103 77.1779 244.142 77.1081 248.468C77.0378 252.794 78.6561 256.887 81.6648 259.994C84.7425 263.174 88.8751 264.925 93.3016 264.925C97.5277 264.925 101.528 263.306 104.565 260.365L105.655 259.31V271.878C105.655 297.617 126.597 318.558 152.337 318.558ZM99.8331 255.477C98.0719 257.183 95.7521 258.122 93.3016 258.122C90.7349 258.122 88.3381 257.106 86.5531 255.262C84.8085 253.46 83.8701 251.086 83.9104 248.578C83.9514 246.07 84.9663 243.728 86.7696 241.983L115.238 214.421C118.898 210.876 124.807 210.924 128.41 214.527L154.541 240.658C156.315 242.432 157.292 244.79 157.292 247.299C157.292 249.808 156.315 252.166 154.54 253.941C152.768 255.714 150.411 256.69 147.901 256.69C145.391 256.69 143.033 255.714 141.261 253.94L137.049 249.729C136.076 248.755 134.611 248.464 133.342 248.991C132.721 249.249 132.189 249.685 131.816 250.244C131.442 250.803 131.242 251.461 131.242 252.134V271.878C131.242 283.509 140.705 292.972 152.337 292.972H225.394C230.572 292.972 234.786 297.185 234.786 302.363C234.786 307.542 230.572 311.755 225.394 311.755H152.337C130.348 311.755 112.459 293.866 112.459 271.878V251.283C112.459 250.614 112.262 249.961 111.893 249.404C111.524 248.847 110.999 248.411 110.384 248.151C109.769 247.89 109.091 247.816 108.434 247.938C107.777 248.061 107.171 248.374 106.691 248.838L99.8331 255.477ZM32.8563 196.891H219.241C237.358 196.891 252.097 182.152 252.097 164.035C252.097 162.156 250.574 160.633 248.696 160.633H235.718V27.2654C235.718 14.512 225.342 4.13632 212.589 4.13632H39.5091C26.7556 4.13632 16.38 14.512 16.38 27.2654V160.633H3.40173C1.5232 160.633 0 162.156 0 164.035C0 182.152 14.7395 196.891 32.8563 196.891ZM23.1834 27.2654C23.1834 18.2633 30.5071 10.9396 39.5091 10.9396H212.589C221.591 10.9396 228.914 18.2633 228.914 27.2654V160.633H23.1834V27.2654ZM245.073 167.436C243.401 180.2 232.454 190.087 219.241 190.087H32.8563C19.6438 190.087 8.69632 180.2 7.02425 167.436H245.073Z" fill="white"/>
<path d="M105.802 107.142H90.4476C89.6958 107.142 89.0845 106.53 89.0845 105.779V64.9969C89.0845 60.4937 85.4209 56.8301 80.9175 56.8301H65.2915C60.7886 56.8301 57.125 60.4937 57.125 64.9969V130.935C57.125 135.438 60.7886 139.102 65.2915 139.102H105.802C110.305 139.102 113.968 135.438 113.968 130.935V115.309C113.968 110.806 110.305 107.142 105.802 107.142ZM107.165 130.935C107.165 131.687 106.554 132.298 105.802 132.298H65.2915C64.5397 132.298 63.9285 131.686 63.9285 130.935V64.9967C63.9285 64.245 64.5397 63.6334 65.2915 63.6334H80.9175C81.6694 63.6334 82.2812 64.2451 82.2812 64.9967V105.779C82.2812 110.282 85.9448 113.945 90.4478 113.945H105.802C106.554 113.945 107.165 114.557 107.165 115.309V130.935H107.165ZM186.767 56.83H171.141C170.389 56.83 169.778 56.2182 169.778 55.4666V39.8405C169.778 35.3375 166.115 31.6739 161.611 31.6739H145.985C141.482 31.6739 137.818 35.3375 137.818 39.8405V55.4666C137.818 56.2184 137.207 56.83 136.455 56.83H120.829C116.326 56.83 112.662 60.4936 112.662 64.9967V80.6227C112.662 85.1259 116.326 88.7895 120.829 88.7895H186.767C191.27 88.7895 194.934 85.1259 194.934 80.6227V64.9967C194.934 60.4934 191.27 56.83 186.767 56.83ZM188.13 80.6226C188.13 81.3743 187.519 81.9859 186.767 81.9859H120.829C120.077 81.9859 119.465 81.3742 119.465 80.6226V64.9966C119.465 64.2449 120.077 63.6333 120.829 63.6333H136.455C140.958 63.6333 144.622 59.9697 144.622 55.4665V39.8405C144.622 39.0888 145.234 38.4773 145.985 38.4773H161.611C162.363 38.4773 162.975 39.0888 162.975 39.8405V55.4666C162.975 59.9698 166.639 63.6334 171.142 63.6334H186.768C187.52 63.6334 188.131 64.2451 188.131 64.9967V80.6226H188.13ZM392.328 320.211V150.489C392.328 141.208 384.778 133.658 375.497 133.658H278.299C269.018 133.658 261.468 141.209 261.468 150.489V320.211C261.468 329.492 269.019 337.042 278.299 337.042H375.497C384.778 337.042 392.328 329.492 392.328 320.211ZM268.271 164.432H385.525V306.173H268.271V164.432ZM278.299 140.461H375.497C381.026 140.461 385.525 144.96 385.525 150.489V157.629H268.271V150.489C268.271 144.96 272.77 140.461 278.299 140.461ZM268.271 320.211V312.976H385.525V320.211C385.525 325.74 381.027 330.239 375.497 330.239H278.299C272.77 330.239 268.271 325.741 268.271 320.211Z" fill="white"/>
<path d="M326.213 266.853H314.073C313.976 266.853 313.883 266.815 313.814 266.746C313.745 266.677 313.707 266.584 313.707 266.487V234.243C313.707 230.289 310.491 227.073 306.538 227.073H294.183C290.23 227.073 287.014 230.289 287.014 234.243V286.377C287.014 290.331 290.23 293.547 294.183 293.547H326.213C330.166 293.547 333.382 290.331 333.382 286.377V274.022C333.381 270.069 330.166 266.853 326.213 266.853ZM326.578 286.377C326.578 286.474 326.54 286.567 326.471 286.636C326.403 286.704 326.31 286.743 326.213 286.743H294.183C294.086 286.743 293.993 286.704 293.924 286.636C293.856 286.567 293.817 286.474 293.817 286.377V234.243C293.817 234.146 293.856 234.053 293.924 233.984C293.993 233.916 294.086 233.877 294.183 233.877H306.538C306.635 233.877 306.728 233.916 306.796 233.984C306.865 234.053 306.903 234.146 306.903 234.243V266.487C306.903 270.441 310.119 273.657 314.072 273.657H326.213C326.309 273.657 326.402 273.695 326.471 273.764C326.539 273.833 326.578 273.925 326.578 274.022L326.578 286.377ZM359.611 191.412H347.256C347.159 191.412 347.066 191.373 346.998 191.305C346.929 191.236 346.89 191.143 346.89 191.046V178.691C346.89 174.738 343.674 171.522 339.721 171.522H327.366C323.413 171.522 320.197 174.738 320.197 178.691V191.046C320.197 191.143 320.158 191.236 320.089 191.305C320.021 191.373 319.928 191.412 319.831 191.412H307.476C303.523 191.412 300.307 194.628 300.307 198.581V210.936C300.307 214.889 303.523 218.105 307.476 218.105H359.611C363.564 218.105 366.78 214.889 366.78 210.936V198.581C366.78 194.628 363.564 191.412 359.611 191.412ZM359.976 210.936C359.976 211.033 359.938 211.126 359.869 211.194C359.801 211.263 359.708 211.302 359.611 211.302H307.476C307.379 211.302 307.286 211.263 307.217 211.194C307.149 211.126 307.11 211.033 307.11 210.936V198.581C307.11 198.484 307.149 198.391 307.217 198.323C307.286 198.254 307.379 198.215 307.476 198.215H319.831C323.784 198.215 327 194.999 327 191.046V178.691C327 178.594 327.039 178.501 327.107 178.432C327.176 178.364 327.269 178.325 327.366 178.325H339.721C339.818 178.325 339.911 178.364 339.979 178.432C340.048 178.501 340.087 178.594 340.087 178.691V191.046C340.087 194.999 343.303 198.215 347.256 198.215H359.61C359.707 198.215 359.8 198.254 359.869 198.322C359.938 198.391 359.976 198.484 359.976 198.581L359.976 210.936Z" fill="white"/>
</svg>
