<svg width="512" height="511" viewBox="0 0 512 511" fill="none" xmlns="http://www.w3.org/2000/svg">
<path d="M62 44C58.4399 44 54.9598 45.0557 51.9997 47.0335C49.0397 49.0114 46.7326 51.8226 45.3702 55.1117C44.0078 58.4008 43.6513 62.02 44.3459 65.5116C45.0404 69.0033 46.7547 72.2106 49.2721 74.7279C51.7894 77.2453 54.9967 78.9596 58.4884 79.6541C61.98 80.3487 65.5992 79.9922 68.8883 78.6298C72.1774 77.2675 74.9886 74.9604 76.9665 72.0003C78.9443 69.0402 80 65.5601 80 62C79.9947 57.2277 78.0966 52.6524 74.7221 49.2779C71.3476 45.9034 66.7723 44.0053 62 44ZM62 68C60.8133 68 59.6533 67.6481 58.6666 66.9888C57.6799 66.3295 56.9109 65.3925 56.4567 64.2961C56.0026 63.1997 55.8838 61.9933 56.1153 60.8295C56.3468 59.6656 56.9183 58.5965 57.7574 57.7574C58.5965 56.9182 59.6656 56.3468 60.8295 56.1153C61.9934 55.8838 63.1997 56.0026 64.2961 56.4567C65.3925 56.9108 66.3295 57.6799 66.9888 58.6666C67.6481 59.6533 68 60.8133 68 62C68 63.5913 67.3679 65.1174 66.2426 66.2426C65.1174 67.3679 63.5913 68 62 68ZM190 44C186.44 44 182.96 45.0557 180 47.0335C177.04 49.0114 174.733 51.8226 173.37 55.1117C172.008 58.4008 171.651 62.02 172.346 65.5116C173.04 69.0033 174.755 72.2106 177.272 74.7279C179.789 77.2453 182.997 78.9596 186.488 79.6541C189.98 80.3487 193.599 79.9922 196.888 78.6298C200.177 77.2675 202.989 74.9604 204.966 72.0003C206.944 69.0402 208 65.5601 208 62C207.995 57.2277 206.097 52.6524 202.722 49.2779C199.348 45.9034 194.772 44.0053 190 44ZM190 68C188.813 68 187.653 67.6481 186.667 66.9888C185.68 66.3295 184.911 65.3925 184.457 64.2961C184.003 63.1997 183.884 61.9933 184.115 60.8295C184.347 59.6656 184.918 58.5965 185.757 57.7574C186.596 56.9182 187.666 56.3468 188.829 56.1153C189.993 55.8838 191.2 56.0026 192.296 56.4567C193.392 56.9108 194.33 57.6799 194.989 58.6666C195.648 59.6533 196 60.8133 196 62C196 63.5913 195.368 65.1174 194.243 66.2426C193.117 67.3679 191.591 68 190 68ZM126 44C122.44 44 118.96 45.0557 116 47.0335C113.04 49.0114 110.733 51.8226 109.37 55.1117C108.008 58.4008 107.651 62.02 108.346 65.5116C109.04 69.0033 110.755 72.2106 113.272 74.7279C115.789 77.2453 118.997 78.9596 122.488 79.6541C125.98 80.3487 129.599 79.9922 132.888 78.6298C136.177 77.2675 138.989 74.9604 140.966 72.0003C142.944 69.0402 144 65.5601 144 62C143.995 57.2277 142.097 52.6524 138.722 49.2779C135.348 45.9034 130.772 44.0053 126 44ZM126 68C124.813 68 123.653 67.6481 122.667 66.9888C121.68 66.3295 120.911 65.3925 120.457 64.2961C120.003 63.1997 119.884 61.9933 120.115 60.8295C120.347 59.6656 120.918 58.5965 121.757 57.7574C122.596 56.9182 123.666 56.3468 124.829 56.1153C125.993 55.8838 127.2 56.0026 128.296 56.4567C129.392 56.9108 130.33 57.6799 130.989 58.6666C131.648 59.6533 132 60.8133 132 62C132 63.5913 131.368 65.1174 130.243 66.2426C129.117 67.3679 127.591 68 126 68ZM446 44H382C377.226 44 372.648 45.8964 369.272 49.2721C365.896 52.6477 364 57.2261 364 62C364 66.7739 365.896 71.3523 369.272 74.7279C372.648 78.1036 377.226 80 382 80H446C450.774 80 455.352 78.1036 458.728 74.7279C462.104 71.3523 464 66.7739 464 62C464 57.2261 462.104 52.6477 458.728 49.2721C455.352 45.8964 450.774 44 446 44ZM446 68H382C380.409 68 378.883 67.3679 377.757 66.2426C376.632 65.1174 376 63.5913 376 62C376 60.4087 376.632 58.8826 377.757 57.7574C378.883 56.6321 380.409 56 382 56H446C447.591 56 449.117 56.6321 450.243 57.7574C451.368 58.8826 452 60.4087 452 62C452 63.5913 451.368 65.1174 450.243 66.2426C449.117 67.3679 447.591 68 446 68ZM184.088 230.96C185.58 232.893 187.442 234.511 189.564 235.72C191.687 236.928 194.028 237.703 196.452 237.999C198.877 238.296 201.336 238.108 203.687 237.447C206.038 236.785 208.234 235.664 210.149 234.147C212.063 232.63 213.657 230.748 214.838 228.611C216.02 226.473 216.765 224.122 217.03 221.694C217.296 219.266 217.077 216.81 216.386 214.467C215.694 212.125 214.545 209.943 213.004 208.048L193.816 184L213.016 159.944C216.053 156.133 217.459 151.276 216.929 146.432C216.398 141.588 213.974 137.151 210.184 134.088C206.341 131.062 201.463 129.666 196.601 130.199C191.739 130.733 187.28 133.153 184.184 136.94L155.816 172.504C153.198 175.764 151.771 179.821 151.771 184.002C151.771 188.183 153.198 192.24 155.816 195.5L184.088 230.96ZM165.2 180L193.64 144.34C194.735 143.065 196.277 142.259 197.949 142.088C199.62 141.917 201.294 142.394 202.624 143.42C203.958 144.487 204.814 146.04 205.004 147.738C205.195 149.436 204.704 151.14 203.64 152.476L181.468 180.272C180.62 181.335 180.158 182.654 180.158 184.014C180.158 185.374 180.62 186.693 181.468 187.756L203.64 215.548C204.169 216.219 204.561 216.988 204.792 217.811C205.024 218.634 205.09 219.494 204.988 220.343C204.886 221.191 204.617 222.011 204.197 222.756C203.777 223.5 203.214 224.154 202.54 224.68C201.191 225.684 199.507 226.132 197.837 225.929C196.167 225.727 194.638 224.89 193.568 223.592L165.2 188C164.291 186.865 163.796 185.454 163.796 184C163.796 182.546 164.291 181.135 165.2 180ZM301.72 233.884C305.554 236.923 310.429 238.332 315.293 237.808C320.158 237.284 324.621 234.869 327.72 231.084L356.172 195.524C358.804 192.262 360.24 188.197 360.24 184.006C360.24 179.815 358.804 175.75 356.172 172.488L327.808 137.032C326.313 135.103 324.45 133.489 322.327 132.285C320.204 131.081 317.863 130.311 315.44 130.018C313.017 129.725 310.56 129.916 308.211 130.58C305.862 131.244 303.669 132.368 301.758 133.886C299.846 135.404 298.255 137.286 297.077 139.423C295.899 141.561 295.156 143.911 294.892 146.337C294.629 148.763 294.849 151.218 295.541 153.559C296.234 155.899 297.383 158.079 298.924 159.972L318.156 184L298.928 208.028C295.914 211.845 294.518 216.691 295.04 221.527C295.562 226.362 297.961 230.799 301.72 233.884ZM308.296 215.524L330.524 187.744C331.375 186.68 331.839 185.358 331.839 183.996C331.839 182.634 331.375 181.312 330.524 180.248L308.22 152.364C307.164 151.019 306.685 149.309 306.89 147.611C307.094 145.913 307.965 144.366 309.31 143.31C310.655 142.254 312.365 141.775 314.063 141.98C315.761 142.184 317.308 143.055 318.364 144.4L346.8 179.972C347.721 181.111 348.223 182.531 348.223 183.996C348.223 185.461 347.721 186.881 346.8 188.02L318.272 223.672C317.737 224.329 317.078 224.873 316.332 225.275C315.587 225.677 314.769 225.928 313.927 226.014C313.084 226.1 312.233 226.019 311.422 225.776C310.61 225.533 309.855 225.133 309.198 224.598C308.541 224.063 307.997 223.404 307.595 222.658C307.193 221.913 306.942 221.095 306.856 220.253C306.77 219.41 306.851 218.559 307.094 217.748C307.337 216.936 307.737 216.181 308.272 215.524H308.296ZM247.48 238C251.718 238.054 255.848 236.664 259.192 234.059C262.536 231.455 264.895 227.79 265.88 223.668L282.196 152.4C283.27 147.626 282.404 142.621 279.788 138.486C277.172 134.351 273.02 131.424 268.246 130.35C263.472 129.276 258.467 130.142 254.332 132.758C250.197 135.374 247.27 139.526 246.196 144.3L229.956 215.272C229.382 217.943 229.398 220.706 230.001 223.371C230.604 226.035 231.781 228.536 233.449 230.699C235.116 232.862 237.236 234.636 239.659 235.897C242.082 237.158 244.751 237.875 247.48 238ZM241.6 218.108L257.884 147.076C258.255 145.409 259.274 143.957 260.715 143.041C262.157 142.125 263.903 141.819 265.57 142.19C267.237 142.561 268.689 143.58 269.605 145.021C270.521 146.462 270.827 148.209 270.456 149.876L254.172 220.992C253.838 222.438 253.017 223.725 251.847 224.636C250.676 225.548 249.227 226.03 247.744 226C246.795 225.956 245.866 225.707 245.022 225.271C244.178 224.834 243.438 224.219 242.854 223.469C242.271 222.719 241.856 221.851 241.64 220.926C241.423 220.001 241.41 219.039 241.6 218.108Z" fill="white"/>
<path d="M458 0H54C39.6832 0.0158811 25.9573 5.71025 15.8338 15.8338C5.71025 25.9573 0.0158811 39.6832 0 54L0 402C0.0433061 409.469 1.62229 416.849 4.63881 423.682C7.65533 430.515 12.0449 436.654 17.5348 441.719C23.0247 446.783 29.4975 450.664 36.5509 453.121C43.6044 455.578 51.0878 456.558 58.536 456C65.7367 469.031 75.635 480.376 87.5699 489.277C99.5047 498.178 113.201 504.429 127.745 507.614C142.289 510.8 157.345 510.845 171.907 507.747C186.47 504.65 200.204 498.481 212.192 489.652C224.745 479.981 240.146 474.736 255.992 474.736C271.838 474.736 287.239 479.981 299.792 489.652C311.78 498.483 325.515 504.655 340.079 507.754C354.643 510.853 369.701 510.808 384.246 507.623C398.792 504.438 412.49 498.185 424.426 489.283C436.361 480.38 446.26 469.034 453.46 456C460.909 456.559 468.392 455.579 475.446 453.123C482.5 450.666 488.974 446.785 494.464 441.72C499.954 436.656 504.344 430.516 507.361 423.683C510.378 416.85 511.957 409.469 512 402V54C511.984 39.6832 506.29 25.9573 496.166 15.8338C486.043 5.71025 472.317 0.0158811 458 0ZM453.768 417.448C451.665 433.424 445.433 448.577 435.688 461.41C425.942 474.243 413.019 484.314 398.194 490.629C383.369 496.944 367.153 499.285 351.147 497.421C335.141 495.557 319.897 489.553 306.92 480C292.304 468.806 274.408 462.74 255.998 462.74C237.588 462.74 219.692 468.806 205.076 480C192.099 489.553 176.856 495.557 160.851 497.421C144.845 499.286 128.63 496.945 113.805 490.631C98.9799 484.317 86.0569 474.247 76.3108 461.415C66.5647 448.583 60.3322 433.432 58.228 417.456C56.4806 404.007 57.6041 390.34 61.5245 377.357C65.4449 364.375 72.0731 352.37 80.972 342.136C88.6408 333.082 98.166 325.782 108.902 320.73C119.639 315.678 131.335 312.993 143.2 312.856C199.072 312.504 312.944 312.504 368.832 312.856C380.692 312.994 392.385 315.679 403.117 320.728C413.85 325.778 423.372 333.074 431.04 342.124C439.936 352.36 446.561 364.366 450.478 377.35C454.396 390.333 455.517 404 453.768 417.448ZM234 300.596V290C234 288.409 234.632 286.883 235.757 285.757C236.883 284.632 238.409 284 240 284H272C273.591 284 275.117 284.632 276.243 285.757C277.368 286.883 278 288.409 278 290V300.596C263.428 300.584 248.572 300.584 234 300.596ZM500 402C499.988 412.918 495.725 423.403 488.113 431.232C480.502 439.06 470.142 443.617 459.228 443.936C462.416 435.915 464.582 427.525 465.676 418.964C467.635 403.83 466.365 388.453 461.948 373.846C457.532 359.239 450.071 345.734 440.056 334.22C431.278 323.885 420.381 315.558 408.103 309.801C395.826 304.045 382.455 300.994 368.896 300.856C348.12 300.728 320.044 300.644 290 300.608V290C289.995 285.228 288.097 280.652 284.722 277.278C281.348 273.903 276.772 272.005 272 272H262V256C262 254.409 261.368 252.883 260.243 251.757C259.117 250.632 257.591 250 256 250C254.409 250 252.883 250.632 251.757 251.757C250.632 252.883 250 254.409 250 256V272H240C235.228 272.005 230.652 273.903 227.278 277.278C223.903 280.652 222.005 285.228 222 290V300.608C191.956 300.644 163.88 300.728 143.104 300.856C129.544 300.994 116.172 304.045 103.894 309.802C91.6158 315.559 80.7184 323.888 71.94 334.224C61.929 345.739 54.4716 359.244 50.059 373.851C45.6465 388.457 44.3789 403.832 46.34 418.964C47.4358 427.525 49.602 435.915 52.788 443.936C41.8714 443.621 31.5068 439.066 23.8922 431.237C16.2777 423.408 12.0121 412.921 12 402V120H500V402ZM500 108H12V54C12.0127 42.8648 16.4418 32.1893 24.3155 24.3155C32.1893 16.4418 42.8648 12.0127 54 12H458C469.135 12.0127 479.811 16.4418 487.684 24.3155C495.558 32.1893 499.987 42.8648 500 54V108Z" fill="white"/>
<path d="M186 380H172V366C171.995 361.228 170.097 356.652 166.722 353.278C163.348 349.903 158.772 348.005 154 348H142C137.228 348.005 132.652 349.903 129.278 353.278C125.903 356.652 124.005 361.228 124 366V380H110C105.228 380.005 100.652 381.903 97.2779 385.278C93.9034 388.652 92.0053 393.228 92 398V410C92.0053 414.772 93.9034 419.348 97.2779 422.722C100.652 426.097 105.228 427.995 110 428H124V442C124.005 446.772 125.903 451.348 129.278 454.722C132.652 458.097 137.228 459.995 142 460H154C158.772 459.995 163.348 458.097 166.722 454.722C170.097 451.348 171.995 446.772 172 442V428H186C190.772 427.995 195.348 426.097 198.722 422.722C202.097 419.348 203.995 414.772 204 410V398C203.995 393.228 202.097 388.652 198.722 385.278C195.348 381.903 190.772 380.005 186 380ZM192 410C192 411.591 191.368 413.117 190.243 414.243C189.117 415.368 187.591 416 186 416H166C164.409 416 162.883 416.632 161.757 417.757C160.632 418.883 160 420.409 160 422V442C160 443.591 159.368 445.117 158.243 446.243C157.117 447.368 155.591 448 154 448H142C140.409 448 138.883 447.368 137.757 446.243C136.632 445.117 136 443.591 136 442V422C136 420.409 135.368 418.883 134.243 417.757C133.117 416.632 131.591 416 130 416H110C108.409 416 106.883 415.368 105.757 414.243C104.632 413.117 104 411.591 104 410V398C104 396.409 104.632 394.883 105.757 393.757C106.883 392.632 108.409 392 110 392H130C131.591 392 133.117 391.368 134.243 390.243C135.368 389.117 136 387.591 136 386V366C136 364.409 136.632 362.883 137.757 361.757C138.883 360.632 140.409 360 142 360H154C155.591 360 157.117 360.632 158.243 361.757C159.368 362.883 160 364.409 160 366V386C160 387.591 160.632 389.117 161.757 390.243C162.883 391.368 164.409 392 166 392H186C187.591 392 189.117 392.632 190.243 393.757C191.368 394.883 192 396.409 192 398V410ZM324 384C319.649 384 315.395 385.29 311.777 387.708C308.16 390.125 305.34 393.561 303.675 397.581C302.01 401.601 301.574 406.024 302.423 410.292C303.272 414.56 305.367 418.48 308.444 421.556C311.52 424.633 315.44 426.728 319.708 427.577C323.976 428.426 328.399 427.99 332.419 426.325C336.439 424.66 339.875 421.84 342.292 418.223C344.71 414.605 346 410.351 346 406C345.994 400.167 343.674 394.575 339.549 390.451C335.425 386.326 329.833 384.006 324 384ZM324 416C322.022 416 320.089 415.414 318.444 414.315C316.8 413.216 315.518 411.654 314.761 409.827C314.004 408 313.806 405.989 314.192 404.049C314.578 402.109 315.53 400.327 316.929 398.929C318.327 397.53 320.109 396.578 322.049 396.192C323.989 395.806 326 396.004 327.827 396.761C329.654 397.518 331.216 398.8 332.315 400.444C333.414 402.089 334 404.022 334 406C334 408.652 332.946 411.196 331.071 413.071C329.196 414.946 326.652 416 324 416ZM404 384C399.649 384 395.395 385.29 391.777 387.708C388.16 390.125 385.34 393.561 383.675 397.581C382.01 401.601 381.574 406.024 382.423 410.292C383.272 414.56 385.367 418.48 388.444 421.556C391.52 424.633 395.44 426.728 399.708 427.577C403.976 428.426 408.399 427.99 412.419 426.325C416.439 424.66 419.875 421.84 422.292 418.223C424.71 414.605 426 410.351 426 406C425.994 400.167 423.674 394.575 419.549 390.451C415.425 386.326 409.833 384.006 404 384ZM404 416C402.022 416 400.089 415.414 398.444 414.315C396.8 413.216 395.518 411.654 394.761 409.827C394.004 408 393.806 405.989 394.192 404.049C394.578 402.109 395.53 400.327 396.929 398.929C398.327 397.53 400.109 396.578 402.049 396.192C403.989 395.806 406 396.004 407.827 396.761C409.654 397.518 411.216 398.8 412.315 400.444C413.414 402.089 414 404.022 414 406C414 408.652 412.946 411.196 411.071 413.071C409.196 414.946 406.652 416 404 416ZM364 386C368.351 386 372.605 384.71 376.223 382.292C379.84 379.875 382.66 376.439 384.325 372.419C385.99 368.399 386.426 363.976 385.577 359.708C384.728 355.44 382.633 351.52 379.556 348.444C376.48 345.367 372.56 343.272 368.292 342.423C364.024 341.574 359.601 342.01 355.581 343.675C351.561 345.34 348.125 348.16 345.708 351.777C343.29 355.395 342 359.649 342 364C342.006 369.833 344.326 375.425 348.451 379.549C352.575 383.674 358.167 385.994 364 386ZM364 354C365.978 354 367.911 354.586 369.556 355.685C371.2 356.784 372.482 358.346 373.239 360.173C373.996 362 374.194 364.011 373.808 365.951C373.422 367.891 372.47 369.673 371.071 371.071C369.673 372.47 367.891 373.422 365.951 373.808C364.011 374.194 362 373.996 360.173 373.239C358.346 372.482 356.784 371.2 355.685 369.556C354.586 367.911 354 365.978 354 364C354 361.348 355.054 358.804 356.929 356.929C358.804 355.054 361.348 354 364 354ZM364 426C359.649 426 355.395 427.29 351.777 429.708C348.16 432.125 345.34 435.561 343.675 439.581C342.01 443.601 341.574 448.024 342.423 452.292C343.272 456.56 345.367 460.48 348.444 463.556C351.52 466.633 355.44 468.728 359.708 469.577C363.976 470.426 368.399 469.99 372.419 468.325C376.439 466.66 379.875 463.84 382.292 460.223C384.71 456.605 386 452.351 386 448C385.994 442.167 383.674 436.575 379.549 432.451C375.425 428.326 369.833 426.006 364 426ZM364 458C362.022 458 360.089 457.414 358.444 456.315C356.8 455.216 355.518 453.654 354.761 451.827C354.004 450 353.806 447.989 354.192 446.049C354.578 444.109 355.53 442.327 356.929 440.929C358.327 439.53 360.109 438.578 362.049 438.192C363.989 437.806 366 438.004 367.827 438.761C369.654 439.518 371.216 440.8 372.315 442.444C373.414 444.089 374 446.022 374 448C374 450.652 372.946 453.196 371.071 455.071C369.196 456.946 366.652 458 364 458Z" fill="white"/>
</svg>
