<svg width="483" height="492" viewBox="0 0 483 492" fill="none" xmlns="http://www.w3.org/2000/svg">
<path d="M428.237 0H54.4256C24.4224 0 0 24.4224 0 54.4256V344.422C0 370.79 25.3952 393.882 54.4256 393.882H122.317C123.648 396.339 125.03 398.746 126.515 401.101L115.712 419.021C114.242 421.524 113.641 424.442 114.002 427.322C114.363 430.202 115.666 432.882 117.709 434.944L135.987 453.222C140.237 457.472 146.79 458.342 152.013 455.219L169.933 444.518C182.528 452.403 196.198 458.035 210.637 461.363L215.654 481.485C216.319 484.34 217.931 486.886 220.227 488.708C222.524 490.53 225.369 491.521 228.301 491.52H254.31C260.352 491.52 265.574 487.373 266.957 481.536L271.974 461.363C286.413 458.035 300.083 452.352 312.73 444.518L330.598 455.219C335.718 458.342 342.272 457.472 346.47 453.222L364.851 434.944C369.101 430.746 369.92 424.243 366.848 419.021L356.045 401.05C357.53 398.694 358.912 396.288 360.192 393.882H428.237C457.216 393.882 482.662 370.79 482.662 344.422V54.4256C482.662 24.4224 458.24 0 428.237 0ZM10.24 54.4256C10.24 30.0544 30.0544 10.24 54.4256 10.24H428.237C452.608 10.24 472.422 30.0544 472.422 54.4256V84.224H10.24V54.4256ZM358.042 424.243C358.707 425.37 358.554 426.803 357.683 427.674L339.251 446.003C338.831 446.463 338.263 446.761 337.645 446.846C337.028 446.93 336.4 446.795 335.872 446.464L315.29 434.074C314.455 433.587 313.502 433.339 312.536 433.357C311.57 433.376 310.627 433.659 309.811 434.176C296.69 442.785 282.065 448.846 266.701 452.045C264.806 452.454 263.27 453.888 262.81 455.782L256.973 479.13C256.666 480.41 255.59 481.28 254.31 481.28H228.301C227.021 481.28 225.946 480.41 225.638 479.078L219.802 455.782C219.574 454.846 219.081 453.995 218.381 453.332C217.682 452.67 216.806 452.222 215.859 452.045C200.448 448.87 186.01 442.88 172.851 434.227C171.981 433.664 171.008 433.357 170.035 433.357C169.114 433.357 168.192 433.613 167.373 434.074L146.79 446.413C145.613 447.13 144.23 446.976 143.258 446.003L124.979 427.674C124.541 427.24 124.258 426.673 124.175 426.062C124.092 425.451 124.212 424.83 124.518 424.294L136.96 403.661C137.933 401.971 137.933 399.821 136.806 398.182C128.118 384.666 122.194 370.831 118.886 355.174C118.701 354.231 118.251 353.359 117.589 352.661C116.927 351.964 116.081 351.468 115.149 351.232L91.7504 345.344C91.1614 345.181 90.6443 344.825 90.2821 344.333C89.92 343.841 89.7338 343.241 89.7536 342.63V316.723C89.7536 315.443 90.5728 314.317 91.8528 314.01L115.149 308.122C117.043 307.661 118.477 306.125 118.886 304.23C122.112 288.819 128.154 274.33 136.806 261.222C137.933 259.584 137.933 257.434 136.96 255.744L124.518 235.11C124.213 234.566 124.092 233.937 124.175 233.318C124.258 232.699 124.541 232.124 124.979 231.68L143.206 213.35C143.663 212.894 144.261 212.606 144.902 212.532C145.543 212.457 146.19 212.601 146.739 212.941L167.373 225.331C169.062 226.304 171.162 226.304 172.851 225.229C186.01 216.525 200.499 210.534 215.859 207.36C217.805 206.95 219.341 205.466 219.802 203.571L225.638 180.173C225.946 178.995 227.021 178.125 228.301 178.125H254.31C255.59 178.125 256.717 178.995 256.973 180.224L262.81 203.571C263.27 205.466 264.806 206.95 266.752 207.36C282.061 210.534 296.55 216.525 309.76 225.229C311.398 226.304 313.498 226.304 315.187 225.331L335.872 212.89C336.998 212.224 338.33 212.429 339.251 213.299L357.683 231.731C358.554 232.602 358.707 234.035 358.042 235.162L345.6 255.744C344.576 257.434 344.627 259.584 345.702 261.222C354.458 274.432 360.448 288.922 363.622 304.179C364.032 306.125 365.466 307.661 367.36 308.122L390.758 314.01C390.758 314.061 390.81 314.061 390.81 314.061C392.038 314.317 392.909 315.443 392.909 316.723V342.63C392.909 343.91 392.038 345.037 390.758 345.344L367.36 351.232C365.466 351.693 364.032 353.229 363.622 355.174C361.626 365.056 358.349 374.579 353.946 383.642C352.256 387.123 350.413 390.554 348.416 393.882C347.546 395.315 346.624 396.749 345.702 398.131C345.173 398.933 344.882 399.869 344.863 400.83C344.845 401.791 345.101 402.737 345.6 403.558L358.042 424.243ZM472.422 344.422C472.422 362.957 453.53 383.642 428.237 383.642H365.21C368.538 376.166 371.098 368.384 372.941 360.397L393.165 355.277C396.014 354.609 398.553 352.995 400.367 350.698C402.18 348.401 403.161 345.557 403.149 342.63V316.723C403.149 310.682 399.053 305.51 393.216 304.077L372.941 298.957C369.612 284.559 363.902 270.819 356.045 258.304L366.848 240.384C369.92 235.162 369.101 228.608 364.902 224.461L346.419 206.029C342.17 201.882 335.667 201.062 330.598 204.134L312.678 214.886C300.128 207.063 286.376 201.355 271.974 197.99L266.957 177.766C266.26 174.941 264.634 172.432 262.341 170.64C260.048 168.848 257.22 167.878 254.31 167.885H228.301C222.259 167.885 217.088 171.981 215.706 177.766L210.637 197.99C196.232 201.345 182.479 207.054 169.933 214.886L152.013 204.134C146.893 201.114 140.339 201.882 136.038 206.08L117.709 224.461C113.51 228.659 112.691 235.213 115.712 240.384L126.515 258.304C118.658 270.825 112.931 284.562 109.568 298.957L89.3952 304.077C86.5615 304.758 84.0421 306.379 82.2477 308.676C80.4532 310.972 79.4895 313.809 79.5136 316.723V342.63C79.5136 348.723 83.6096 353.894 89.344 355.277L109.568 360.397C111.462 368.384 114.022 376.166 117.35 383.642H54.4256C29.1328 383.642 10.24 362.957 10.24 344.422V94.464H472.422V344.422Z" fill="white"/>
<path d="M55.1886 141.768H135.598C136.956 141.768 138.258 141.228 139.219 140.268C140.179 139.308 140.718 138.006 140.718 136.648C140.718 135.29 140.179 133.987 139.219 133.027C138.258 132.067 136.956 131.528 135.598 131.528H55.1886C53.8307 131.528 52.5284 132.067 51.5682 133.027C50.608 133.987 50.0686 135.29 50.0686 136.648C50.0686 138.006 50.608 139.308 51.5682 140.268C52.5284 141.228 53.8307 141.768 55.1886 141.768ZM55.1886 175.155H135.598C136.956 175.155 138.258 174.616 139.219 173.656C140.179 172.695 140.718 171.393 140.718 170.035C140.718 168.677 140.179 167.375 139.219 166.415C138.258 165.455 136.956 164.915 135.598 164.915H55.1886C53.8307 164.915 52.5284 165.455 51.5682 166.415C50.608 167.375 50.0686 168.677 50.0686 170.035C50.0686 171.393 50.608 172.695 51.5682 173.656C52.5284 174.616 53.8307 175.155 55.1886 175.155ZM347.059 141.768H427.469C428.827 141.768 430.129 141.228 431.089 140.268C432.049 139.308 432.589 138.006 432.589 136.648C432.589 135.29 432.049 133.987 431.089 133.027C430.129 132.067 428.827 131.528 427.469 131.528H347.059C345.701 131.528 344.399 132.067 343.439 133.027C342.479 133.987 341.939 135.29 341.939 136.648C341.939 138.006 342.479 139.308 343.439 140.268C344.399 141.228 345.701 141.768 347.059 141.768ZM347.059 175.155H427.469C428.827 175.155 430.129 174.616 431.089 173.656C432.049 172.695 432.589 171.393 432.589 170.035C432.589 168.677 432.049 167.375 431.089 166.415C430.129 165.455 428.827 164.915 427.469 164.915H347.059C345.701 164.915 344.399 165.455 343.439 166.415C342.479 167.375 341.939 168.677 341.939 170.035C341.939 171.393 342.479 172.695 343.439 173.656C344.399 174.616 345.701 175.155 347.059 175.155ZM65.0753 28.0576C53.4017 28.0576 43.9297 37.5808 43.9297 49.2032C43.9297 60.8768 53.4017 70.3488 65.0753 70.3488C70.6882 70.3488 76.0719 68.1226 80.0456 64.1585C84.0193 60.1944 86.2585 54.8161 86.2721 49.2032C86.2721 37.5808 76.7489 28.0576 65.0753 28.0576ZM65.0753 60.1088C59.0849 60.1088 54.1697 55.1936 54.1697 49.2032C54.1697 43.2128 59.0849 38.2976 65.0753 38.2976C71.1169 38.2976 76.0321 43.2128 76.0321 49.2032C76.0321 55.1936 71.1169 60.1088 65.0753 60.1088ZM131.072 28.0576C119.398 28.0576 109.926 37.5808 109.926 49.2032C110.048 54.7308 112.329 59.991 116.282 63.8573C120.234 67.7236 125.543 69.8886 131.072 69.8886C136.601 69.8886 141.91 67.7236 145.862 63.8573C149.815 59.991 152.096 54.7308 152.218 49.2032C152.218 37.5808 142.746 28.0576 131.072 28.0576ZM131.072 60.1088C125.03 60.1088 120.166 55.1936 120.166 49.2032C120.166 43.2128 125.03 38.2976 131.072 38.2976C137.062 38.2976 141.978 43.2128 141.978 49.2032C141.978 55.1936 137.062 60.1088 131.072 60.1088ZM197.018 28.0576C185.344 28.0576 175.872 37.5808 175.872 49.2032C175.994 54.7308 178.275 59.991 182.227 63.8573C186.18 67.7236 191.489 69.8886 197.018 69.8886C202.547 69.8886 207.856 67.7236 211.808 63.8573C215.76 59.991 218.042 54.7308 218.163 49.2032C218.163 37.5808 208.691 28.0576 197.018 28.0576ZM197.018 60.1088C191.027 60.1088 186.112 55.1936 186.112 49.2032C186.112 43.2128 191.027 38.2976 197.018 38.2976C203.059 38.2976 207.923 43.2128 207.923 49.2032C207.923 55.1936 203.059 60.1088 197.018 60.1088ZM241.306 238.848C189.092 238.848 151.009 281.19 150.477 328.653V329.626C150.477 380.119 191.324 420.506 241.357 420.506C293.284 420.403 332.134 378.071 332.134 329.626V328.602C332.134 282.051 303.237 245.146 241.306 238.848ZM321.638 323.533H295.936C295.475 323.533 295.117 323.174 295.066 322.714C293.72 312.339 289.398 302.576 282.624 294.605L301.312 275.866C311.777 287.027 320.159 304.297 321.638 323.533ZM293.99 268.698V268.749L275.302 287.437C267.008 280.781 257.024 276.685 246.426 275.712V249.293C263.849 250.276 281.303 257.546 293.99 268.698ZM236.186 249.293V275.712C225.638 276.685 215.654 280.73 207.36 287.437L188.621 268.698C203.484 255.841 222.976 249.293 236.186 249.293ZM181.299 275.866L200.038 294.605C193.255 302.571 188.933 312.336 187.597 322.714C187.546 323.174 187.187 323.533 186.726 323.533H160.973C162.287 305.832 169.436 289.068 181.299 275.866ZM241.306 410.266C197.878 410.266 162.975 376.253 160.819 333.773H186.726C192.307 333.773 197.018 329.574 197.734 323.994C199.014 314.214 203.622 305.05 210.688 298.138C218.822 290.193 229.731 285.73 241.101 285.696H241.51C252.979 285.747 263.731 290.202 271.923 298.138C279.04 305.051 283.621 314.159 284.928 323.994C285.253 326.686 286.552 329.167 288.58 330.969C290.607 332.77 293.224 333.767 295.936 333.773H321.792C320.739 354.41 311.8 373.854 296.822 388.09C281.843 402.325 261.97 410.264 241.306 410.266Z" fill="white"/>
<path d="M256.716 363.418H225.945C220.978 363.418 216.934 367.462 216.934 372.378V382.413C216.934 382.822 216.985 383.232 217.087 383.642C217.65 387.994 221.388 391.373 225.945 391.373H256.716C261.273 391.373 264.959 387.994 265.522 383.642C265.625 383.232 265.676 382.822 265.676 382.413V372.378C265.676 367.462 261.682 363.418 256.716 363.418ZM255.436 381.133H227.174V373.658H255.436V381.133ZM241.305 349.542C250.162 349.542 257.33 342.323 257.33 333.517C257.337 330.169 256.289 326.904 254.335 324.185C252.381 321.467 249.621 319.433 246.445 318.372V302.193C246.445 300.835 245.906 299.532 244.946 298.572C243.985 297.612 242.683 297.073 241.325 297.073C239.967 297.073 238.665 297.612 237.705 298.572C236.745 299.532 236.205 300.835 236.205 302.193V318.356L236.185 318.362C233.016 319.432 230.263 321.47 228.315 324.19C226.367 326.909 225.323 330.172 225.33 333.517C225.33 342.323 232.498 349.542 241.305 349.542ZM241.305 327.731C244.53 327.731 247.09 330.342 247.09 333.517C247.09 336.691 244.53 339.302 241.305 339.302C238.13 339.302 235.57 336.691 235.57 333.517C235.57 330.342 238.13 327.731 241.305 327.731ZM357.078 34.6573H294.619C293.261 34.6573 291.959 34.1179 290.999 33.1577C290.039 32.1975 289.499 30.8952 289.499 29.5373C289.499 28.1794 290.039 26.8771 290.999 25.9169C291.959 24.9567 293.261 24.4173 294.619 24.4173H357.078C358.436 24.4173 359.738 24.9567 360.699 25.9169C361.659 26.8771 362.198 28.1794 362.198 29.5373C362.198 30.8952 361.659 32.1975 360.699 33.1577C359.738 34.1179 358.436 34.6573 357.078 34.6573ZM274.6 34.6573H270.264C268.906 34.6573 267.603 34.1179 266.643 33.1577C265.683 32.1975 265.144 30.8952 265.144 29.5373C265.144 28.1794 265.683 26.8771 266.643 25.9169C267.603 24.9567 268.906 24.4173 270.264 24.4173H274.6C275.958 24.4173 277.26 24.9567 278.221 25.9169C279.181 26.8771 279.72 28.1794 279.72 29.5373C279.72 30.8952 279.181 32.1975 278.221 33.1577C277.26 34.1179 275.958 34.6573 274.6 34.6573Z" fill="white"/>
</svg>
