<svg width="919" height="899" viewBox="0 0 919 899" fill="none" xmlns="http://www.w3.org/2000/svg">
<path d="M382.792 369.687L300.148 231.179L382.792 92.6706L423.234 231.179L382.792 369.687ZM200.031 356.239L96.1922 254.252H261.668L344.312 392.76L200.031 356.239ZM200.031 104.156L344.312 67.6355L261.668 206.144H94.2299C94.2299 208.106 200.031 104.156 200.031 104.156ZM411.648 0.307617L223.203 48.401L194.347 96.4944H138.495L0 231.164L138.495 365.835H194.347L221.241 413.928L409.787 462.021L459.751 279.243L432.857 231.15L461.714 183.057L411.648 0.307617Z" fill="white"/>
<path d="M690.356 437.286C564.022 437.286 461.713 540.609 461.713 668.143C461.713 795.677 564.022 899 690.356 899C816.603 899 918.999 795.677 918.999 668.143C918.999 540.609 816.618 437.286 690.284 437.286H690.356ZM690.356 447.429C748.681 447.429 803.618 470.429 844.908 512.055C886.112 553.537 909.084 609.678 908.94 668.143C908.94 727.055 886.198 782.518 844.908 824.231C804.152 865.641 748.45 888.929 690.356 888.857C632.262 888.929 576.561 865.641 535.804 824.231C494.601 782.749 471.556 726.607 471.7 668.143C471.7 609.231 494.514 553.768 535.732 512.055C576.488 470.573 632.262 447.271 690.356 447.429ZM678.87 528.662C641.644 538.661 607.186 557.822 561.255 610.573C515.325 663.324 524.03 706.912 524.03 706.912C524.03 706.912 536.712 676.93 567.193 645.36C581.677 630.412 592.413 625.377 599.85 625.377C606.451 625.002 612.014 630.34 612.014 636.948V744.037C612.014 754.628 605.182 756.965 598.884 756.806C593.552 756.734 588.594 754.859 588.594 754.859C619.897 800.395 694.809 806.787 694.809 806.787L727.683 771.61L728.432 772.288L758.538 797.986C813.635 765.218 840.21 704.503 840.21 704.503C815.595 730.503 799.972 736.592 790.662 736.592C782.404 736.52 779.176 731.701 779.176 731.701C778.729 729.45 777.98 696.827 777.677 664.218C777.374 630.47 777.677 596.664 779.334 596.577C788.861 578.686 819.198 542.615 819.198 542.615C762.53 553.811 731.675 591.008 731.675 591.008C722.523 583.794 703.903 584.991 703.903 584.991C712.608 589.796 721.313 603.777 721.313 615.349V729.277C721.313 729.277 702.318 746.028 687.69 746.028C678.985 746.028 673.653 741.296 670.727 737.386C669.603 735.885 668.623 734.226 667.874 732.422V591.744C665.842 593.244 663.363 594.067 660.898 594.153C657.742 594.153 654.514 592.581 652.338 587.992C650.68 584.53 649.628 579.35 649.628 571.76C649.628 545.832 678.899 528.619 678.899 528.619L678.87 528.662Z" fill="white"/>
<line x1="703.063" y1="239.692" x2="271.076" y2="671.679" stroke="white" stroke-width="10"/>
</svg>
