<svg width="512" height="512" viewBox="0 0 512 512" fill="none" xmlns="http://www.w3.org/2000/svg">
<path d="M305.677 501.338V370.002M207.991 501.338V370.002M257.574 501.338V410.669M401.932 228.974V228.584M207.991 340.131H207.971M401.932 179.329V98.9754C402.603 98.8754 502 122.631 502 139.002M11.668 139.002C11.668 122.631 111.065 98.8754 111.736 98.9754V179.329M11.668 220.057C11.668 203.506 51.055 188.836 111.736 179.73V260.385M401.932 260.384V179.729C462.613 188.836 502 203.506 502 220.057M11.668 301.112C11.668 284.561 51.055 269.891 111.736 260.785V359.152M401.932 349.145V260.785C462.613 269.891 502 284.561 502 301.112M216.874 187.637C216.874 165.234 235.036 147.07 257.441 147.07C279.846 147.07 298.009 165.234 298.009 187.637C298.009 210.042 279.846 228.205 257.441 228.205C235.036 228.205 216.874 210.042 216.874 187.637Z" stroke="url(#paint0_linear_824_25)" stroke-width="20" stroke-miterlimit="10" stroke-linecap="round" stroke-linejoin="round"/>
<path d="M502 389.172C502 405.723 462.612 420.395 401.932 429.502V348.841C462.612 357.949 502 372.621 502 389.172ZM502 389.172V58.9484M111.736 228.974V228.584M401.932 98.9784C461.473 89.8424 502 75.3124 502 58.9514C502 -6.31662 11.668 -6.31762 11.668 58.9514C11.668 75.3124 111.065 99.0784 111.736 98.9784M400.611 348.647C383.94 346.175 365.687 344.134 346.224 342.573M113.057 348.647C129.718 346.175 147.961 344.134 167.414 342.573M11.668 390.56V59.2514M11.668 389.172C11.668 372.621 51.056 357.949 111.736 348.842V429.503C51.056 420.394 11.668 405.723 11.668 389.172Z" stroke="url(#paint1_linear_824_25)" stroke-width="20" stroke-miterlimit="10" stroke-linecap="round" stroke-linejoin="round"/>
<path d="M305.674 284.292V359.888C305.674 371.087 314.752 380.165 325.951 380.165C337.15 380.165 346.228 371.087 346.228 359.888V278.355C346.228 250.698 323.807 228.277 296.15 228.277H256.834H217.492C189.835 228.277 167.414 250.698 167.414 278.355V359.888C167.414 371.087 176.492 380.165 187.691 380.165C198.89 380.165 207.968 371.087 207.968 359.888V284.292" stroke="url(#paint2_linear_824_25)" stroke-width="20" stroke-miterlimit="10" stroke-linecap="round" stroke-linejoin="round"/>
<path d="M305.674 287.072V368.969H207.994V284.292M10 501.338H502M305.677 304.221H346.228M167.413 304.221H207.964M311.871 129.299H361.905M341.892 169.326H361.905M201.797 129.299H151.763M171.776 169.326H151.763M296.902 89.2714H216.766C205.735 89.2714 196.793 80.3294 196.793 69.2984V69.2174C196.793 58.1864 205.735 49.2444 216.766 49.2444H296.902C307.933 49.2444 316.875 58.1864 316.875 69.2174V69.2984C316.875 80.3294 307.932 89.2714 296.902 89.2714Z" stroke="url(#paint3_linear_824_25)" stroke-width="20" stroke-miterlimit="10" stroke-linecap="round" stroke-linejoin="round"/>
<defs>
<linearGradient id="paint0_linear_824_25" x1="29.1629" y1="124.909" x2="395.268" y2="636.932" gradientUnits="userSpaceOnUse">
<stop stop-color="#1BA2D7"/>
<stop offset="1" stop-color="#8D3DFA"/>
</linearGradient>
<linearGradient id="paint1_linear_824_25" x1="29.1629" y1="37.0384" x2="415.744" y2="555.608" gradientUnits="userSpaceOnUse">
<stop stop-color="#1BA2D7"/>
<stop offset="1" stop-color="#8D3DFA"/>
</linearGradient>
<linearGradient id="paint2_linear_824_25" x1="173.794" y1="238.067" x2="313.471" y2="426.786" gradientUnits="userSpaceOnUse">
<stop stop-color="#1BA2D7"/>
<stop offset="1" stop-color="#8D3DFA"/>
</linearGradient>
<linearGradient id="paint3_linear_824_25" x1="27.5545" y1="78.3833" x2="451.745" y2="608.18" gradientUnits="userSpaceOnUse">
<stop stop-color="#1BA2D7"/>
<stop offset="1" stop-color="#8D3DFA"/>
</linearGradient>
</defs>
</svg>
