<svg width="512" height="512" viewBox="0 0 512 512" fill="none" xmlns="http://www.w3.org/2000/svg">
<path d="M109.833 496.208L94.7776 475.002C91.5816 470.498 85.3387 469.439 80.8347 472.636C76.3317 475.833 75.2717 482.075 78.4697 486.579L93.5246 507.786C94.4488 509.09 95.6726 510.153 97.0931 510.886C98.5135 511.619 100.089 512 101.688 511.998C103.69 511.998 105.711 511.398 107.468 510.151C111.971 506.954 113.031 500.712 109.833 496.208ZM225.204 499.944L208.82 421.856C200.853 383.884 178.733 351.051 146.537 329.402L111.557 305.88C97.5296 296.45 78.6757 298.478 66.9517 310.433V189.937C66.9517 174.121 56.1688 160.683 40.7288 157.256C30.7639 155.042 20.4859 157.44 12.525 163.827C4.56498 170.214 0 179.731 0 189.937V344.989C0 365.302 6.21598 384.794 17.9749 401.359L35.8079 426.48C36.7321 427.784 37.9558 428.848 39.3763 429.581C40.7968 430.314 42.3724 430.695 43.9708 430.692C45.9728 430.692 47.9938 430.092 49.7508 428.845C54.2538 425.648 55.3138 419.406 52.1158 414.902L34.2829 389.781C24.9389 376.619 19.9999 361.13 19.9999 344.988V189.937C19.9999 185.829 21.8379 181.998 25.0419 179.426C26.6132 178.159 28.4504 177.263 30.4164 176.805C32.3823 176.347 34.4263 176.339 36.3959 176.781C42.6108 178.16 46.9518 183.57 46.9518 189.937V312.953C46.9518 330.367 53.3498 346.958 64.9727 359.866C65.4707 360.463 65.9827 361.054 66.5237 361.627C73.1647 368.664 80.9727 376.956 88.3267 384.772L98.6216 395.728C98.6546 395.763 98.6906 395.793 98.7246 395.827C107.532 405.194 114.027 412.111 114.163 412.255C117.942 416.28 124.271 416.48 128.297 412.699C132.323 408.918 132.522 402.59 128.74 398.564C128.558 398.37 116.853 385.905 103.485 371.697L80.5557 347.294C80.4977 347.232 80.4447 347.167 80.3867 347.105C75.0107 340.675 75.0777 331.352 80.7127 324.99C85.6977 319.364 94.1616 318.284 100.399 322.477L135.377 345.999C163.225 364.724 182.356 393.121 189.246 425.963L205.631 504.052C206.62 508.765 210.777 512 215.408 512C216.088 512 216.779 511.93 217.471 511.785C222.876 510.651 226.338 505.349 225.204 499.944Z" fill="url(#paint0_linear_824_19)"/>
<path d="M74.0877 445.856L74.0237 445.766C70.8137 441.27 64.5697 440.226 60.0747 443.434C55.5798 446.642 54.5358 452.887 57.7428 457.382L57.8067 457.472C58.7318 458.771 59.9543 459.829 61.372 460.558C62.7897 461.288 64.3614 461.667 65.9557 461.665C67.9657 461.665 69.9947 461.061 71.7557 459.804C76.2497 456.596 77.2947 450.351 74.0877 445.856ZM499.472 163.828C491.512 157.441 481.229 155.047 471.269 157.257C455.829 160.683 445.045 174.122 445.045 189.938V310.434C433.322 298.479 414.466 296.451 400.44 305.881L365.46 329.402C333.263 351.05 311.144 383.885 303.177 421.856L286.793 499.945C285.659 505.35 289.121 510.651 294.526 511.785C295.218 511.93 295.91 512 296.589 512C301.221 512 305.377 508.764 306.366 504.051L322.75 425.962C329.641 393.121 348.771 364.723 376.618 345.999L411.599 322.478C417.834 318.284 426.298 319.364 431.285 324.99C436.913 331.344 436.988 340.652 431.632 347.082C431.568 347.152 431.507 347.224 431.443 347.294L383.257 398.564C379.476 402.59 379.675 408.918 383.7 412.699C387.726 416.48 394.054 416.281 397.835 412.255C397.971 412.111 438.833 368.665 445.474 361.628C446.009 361.057 446.526 360.469 447.025 359.867C458.647 346.959 465.046 330.368 465.046 312.954V189.937C465.046 183.57 469.387 178.16 475.603 176.781C479.616 175.891 483.752 176.856 486.957 179.426C488.534 180.686 489.807 182.285 490.68 184.105C491.553 185.925 492.004 187.919 491.999 189.937V344.989C491.999 361.131 487.06 376.62 477.716 389.782L402.165 496.209C398.968 500.712 400.027 506.955 404.53 510.152C406.218 511.354 408.238 512 410.31 511.999C411.909 512.001 413.484 511.62 414.905 510.887C416.325 510.154 417.549 509.091 418.473 507.787L494.024 401.36C505.783 384.796 511.999 365.303 511.999 344.99V189.937C511.996 179.731 507.432 170.215 499.472 163.828Z" fill="url(#paint1_linear_824_19)"/>
<path d="M382.654 191.659L364.863 187.409V184.219C376.426 176.119 384.008 162.706 384.008 147.548V124.419C384.008 99.7406 363.931 79.6637 339.252 79.6637C328.177 79.6637 318.037 83.7156 310.214 90.4036C301.504 69.0737 280.546 53.9998 256.122 53.9998C231.668 53.9998 210.688 69.1127 201.998 90.4836C194.163 83.7476 183.986 79.6617 172.866 79.6617C148.187 79.6617 128.111 99.7386 128.111 124.417V147.546C128.111 162.704 135.693 176.117 147.256 184.217V187.407L129.465 191.657C108.223 196.732 93.3867 215.529 93.3867 237.369V256.045C93.3867 261.568 97.8647 266.045 103.387 266.045H149.338C149.263 267.264 149.223 268.485 149.218 269.706V305.664C149.218 311.187 153.696 315.664 159.218 315.664H219.328C224.85 315.664 229.328 311.187 229.328 305.664C229.328 300.141 224.85 295.664 219.328 295.664H208.996V274.999C208.996 269.476 204.518 264.999 198.996 264.999C193.474 264.999 188.996 269.476 188.996 274.999V295.666H169.219V269.708C169.219 250.421 182.319 233.812 201.073 229.318L228.515 222.742L246.88 264.524C247.661 266.301 248.943 267.812 250.568 268.873C252.193 269.934 254.092 270.5 256.033 270.5H256.034C257.975 270.5 259.874 269.935 261.5 268.874C263.125 267.813 264.407 266.302 265.188 264.525L283.534 222.805L310.889 229.34C329.661 233.825 342.772 250.436 342.772 269.737V295.666H322.995V274.999C322.995 269.476 318.517 264.999 312.995 264.999C307.473 264.999 302.995 269.476 302.995 274.999V295.666H291.662C286.14 295.666 281.662 300.143 281.662 305.666C281.662 311.189 286.14 315.666 291.662 315.666H352.773C358.295 315.666 362.773 311.189 362.773 305.666V269.737C362.773 268.498 362.723 267.27 362.651 266.047H408.732C414.254 266.047 418.732 261.57 418.732 256.047V237.371C418.732 215.531 403.897 196.733 382.654 191.659ZM339.252 99.6616C352.354 99.6616 363.11 109.893 363.954 122.784H350.051C338.381 122.784 326.883 119.981 316.522 114.613C320.325 105.825 329.083 99.6616 339.252 99.6616ZM314.496 146.086C314.508 145.599 314.533 145.114 314.533 144.624V135.718C325.794 140.381 337.862 142.782 350.051 142.784H364.008V147.547C364.008 161.197 352.903 172.303 339.252 172.303C325.601 172.303 314.496 161.197 314.496 147.546V146.086ZM217.712 112.41C217.712 91.2306 234.942 73.9997 256.122 73.9997C275.225 73.9997 291.114 88.0176 294.048 106.306L277.213 96.4146C275.174 95.2162 272.776 94.7797 270.445 95.1825C268.114 95.5853 266.002 96.8013 264.483 98.6146C260.434 103.457 255.371 107.351 249.65 110.021C243.93 112.691 237.694 114.071 231.381 114.064H217.712V112.41ZM172.867 99.6616C183.036 99.6616 191.793 105.826 195.597 114.612C185.236 119.98 173.738 122.783 162.068 122.783H148.166C149.01 109.893 159.766 99.6616 172.867 99.6616ZM148.112 142.783H162.068C174.27 142.781 186.352 140.375 197.623 135.702V147.545C197.623 161.195 186.518 172.301 172.867 172.301C159.216 172.301 148.112 161.197 148.112 147.546V142.783ZM196.413 209.868C176.739 214.582 161.277 228.299 153.918 246.046H113.387V237.37C113.371 231.296 115.41 225.396 119.173 220.628C122.936 215.861 128.201 212.506 134.112 211.11L159.579 205.026C161.766 204.504 163.713 203.26 165.106 201.495C166.499 199.731 167.256 197.548 167.256 195.3V191.938C169.096 192.169 170.966 192.302 172.867 192.302C174.754 192.302 176.611 192.171 178.437 191.943V194.796C178.356 196.543 178.735 198.28 179.536 199.834C180.336 201.389 181.53 202.706 182.999 203.654C184.08 204.356 185.287 204.841 186.552 205.082L201.469 208.656L196.413 209.868ZM224.307 194.344C221.725 193.205 219.045 192.302 216.3 191.644L198.436 187.363V184.247C201.658 181.997 204.571 179.335 207.103 176.329C211.573 183.214 217.433 189.087 224.307 193.573V194.344ZM267.739 209.037L256.037 235.652L244.308 208.969V201.833C248.195 202.634 252.154 203.037 256.122 203.035C260.024 203.036 263.915 202.646 267.739 201.871V209.037ZM256.122 183.034C234.942 183.035 217.712 165.804 217.712 144.624V134.062H231.381C247.239 134.062 262.317 128.165 273.873 117.648L294.495 129.763V146.087C293.723 166.59 276.812 183.034 256.122 183.034ZM287.739 194.376V193.699C294.669 189.217 300.58 183.328 305.086 176.413C307.601 179.384 310.489 182.018 313.68 184.247V187.363L295.815 191.644C293.046 192.309 290.343 193.223 287.739 194.376ZM398.732 246.046H358.062C350.696 228.299 335.223 214.59 315.537 209.887L310.516 208.688L325.513 205.094C326.797 204.855 328.022 204.365 329.118 203.654C330.555 202.725 331.729 201.442 332.528 199.929C333.327 198.415 333.723 196.722 333.68 195.011V191.943C335.507 192.171 337.363 192.302 339.25 192.302C341.126 192.298 343 192.176 344.861 191.938V195.3C344.861 197.548 345.618 199.731 347.011 201.495C348.404 203.26 350.351 204.504 352.538 205.026L378.006 211.11C383.917 212.506 389.182 215.861 392.944 220.629C396.707 225.396 398.747 231.296 398.732 237.37V246.046Z" fill="url(#paint2_linear_824_19)"/>
<path d="M263.067 298.589C261.186 296.725 258.646 295.676 255.998 295.669C253.357 295.669 250.788 296.729 248.928 298.589C247.055 300.47 246.002 303.015 245.998 305.669C245.998 308.299 247.058 310.869 248.928 312.739C250.788 314.599 253.358 315.669 255.998 315.669C258.628 315.669 261.198 314.599 263.067 312.739C264.934 310.858 265.987 308.319 265.998 305.669C265.998 303.029 264.928 300.459 263.067 298.589ZM255.991 0C250.469 0 245.991 4.47698 245.991 9.99996V24.9629C245.991 30.4859 250.469 34.9629 255.991 34.9629C261.513 34.9629 265.991 30.4859 265.991 24.9629V9.99996C265.991 4.47698 261.514 0 255.991 0ZM219.155 32.6189L208.665 22.1389C204.758 18.2349 198.427 18.2379 194.523 22.1449C190.619 26.0519 190.623 32.3839 194.53 36.2869L205.021 46.7668C205.948 47.6959 207.05 48.4326 208.263 48.9348C209.476 49.4369 210.776 49.6945 212.088 49.6928C213.402 49.6944 214.704 49.4362 215.918 48.933C217.132 48.4299 218.234 47.6916 219.162 46.7608C223.064 42.8538 223.062 36.5219 219.155 32.6189ZM317.22 22.3949C313.313 18.4919 306.98 18.4939 303.078 22.4019L292.669 32.8209C288.766 36.7279 288.769 43.0598 292.676 46.9628C293.603 47.8919 294.705 48.6287 295.918 49.1308C297.131 49.6329 298.431 49.8905 299.744 49.8888C301.058 49.8905 302.36 49.6323 303.574 49.1289C304.788 48.6255 305.89 47.887 306.818 46.9558L317.227 36.5369C321.13 32.6299 321.127 26.2979 317.22 22.3949Z" fill="url(#paint3_linear_824_19)"/>
<defs>
<linearGradient id="paint0_linear_824_19" x1="8.04291" y1="179.367" x2="333.341" y2="416.059" gradientUnits="userSpaceOnUse">
<stop stop-color="#1BA2D7"/>
<stop offset="1" stop-color="#8D3DFA"/>
</linearGradient>
<linearGradient id="paint1_linear_824_19" x1="72.1569" y1="179.369" x2="389.963" y2="647.27" gradientUnits="userSpaceOnUse">
<stop stop-color="#1BA2D7"/>
<stop offset="1" stop-color="#8D3DFA"/>
</linearGradient>
<linearGradient id="paint2_linear_824_19" x1="104.995" y1="70.865" x2="341.496" y2="408.342" gradientUnits="userSpaceOnUse">
<stop stop-color="#1BA2D7"/>
<stop offset="1" stop-color="#8D3DFA"/>
</linearGradient>
<linearGradient id="paint3_linear_824_19" x1="196.184" y1="20.3459" x2="429.048" y2="129.181" gradientUnits="userSpaceOnUse">
<stop stop-color="#1BA2D7"/>
<stop offset="1" stop-color="#8D3DFA"/>
</linearGradient>
</defs>
</svg>
