<svg xmlns="http://www.w3.org/2000/svg" version="1.1" xmlns:xlink="http://www.w3.org/1999/xlink" width="512" height="512" x="0" y="0" viewBox="0 0 512 512" style="enable-background:new 0 0 512 512" xml:space="preserve"><g><path fill="#35a872" d="M256 24C127.87 24 24 127.87 24 256v232h464V256c0-128.13-103.87-232-232-232zM112 256c0-79.529 64.471-144 144-144s144 64.471 144 144z" opacity="1" data-original="#35a872"></path><path fill="#3dc285" d="M488 256c0-128.13-103.87-232-232-232S24 127.87 24 256h88c0-79.529 64.471-144 144-144s144 64.471 144 144z" opacity="1" data-original="#3dc285"></path><g fill="#e9eef2"><path d="M264 24.14v88.08c-2.65-.15-5.32-.22-8-.22s-5.35.07-8 .22V24.14c2.66-.09 5.32-.14 8-.14s5.34.05 8 .14zM160 148.68c-3.99 3.55-7.77 7.33-11.32 11.32L86.39 97.71c3.64-3.9 7.42-7.68 11.32-11.32zM425.61 97.71l-59.95 59.95c-.83.82-1.79 1.43-2.81 1.81-3.26-3.62-6.7-7.06-10.32-10.32a7.79 7.79 0 0 1 1.81-2.81l59.95-59.95c3.9 3.64 7.68 7.42 11.32 11.32zM209.25 119.76c-5.08 1.74-10.03 3.76-14.84 6.04l-37.22-79.76c4.81-2.27 9.72-4.38 14.71-6.32zM354.81 46.04l-37.22 79.76c-4.81-2.28-9.76-4.3-14.84-6.04l37.35-80.04c4.99 1.94 9.9 4.05 14.71 6.32zM126.12 193.74c-2.31 4.81-4.36 9.76-6.13 14.84L36.3 181.27a232.39 232.39 0 0 1 5.69-14.99zM474.03 176.53l-72.91 33.65c-1.08.5-2.22.74-3.35.74-.07 0-.13 0-.2-.01-1.63-4.62-3.49-9.13-5.57-13.52a7.9 7.9 0 0 1 2.42-1.73l73.6-33.97c2.17 4.86 4.18 9.81 6.01 14.84z" fill="#e9eef2" opacity="1" data-original="#e9eef2"></path><path d="M112 144.323h128V352H112zM272 144.323h128V352H272z" fill="#e9eef2" opacity="1" data-original="#e9eef2"></path></g><path fill="#eb423f" d="M336 208a7.974 7.974 0 0 1-5.657-2.343l-8-8a8 8 0 0 1 11.314-11.314l2.343 2.344 2.343-2.344a8 8 0 0 1 11.314 11.314l-8 8A7.974 7.974 0 0 1 336 208z" opacity="1" data-original="#eb423f"></path><path fill="#f7cca9" d="M408 288h-8v88l-26.286 26.286L360 384v-48c0-13.255-10.745-24-24-24s-24 10.745-24 24v80l48 72h96V320z" opacity="1" data-original="#f7cca9"></path><path fill="#eb423f" d="M336 312a7.974 7.974 0 0 1-5.657-2.343l-8-8a8 8 0 0 1 11.314-11.314l2.343 2.344 2.343-2.344a8 8 0 0 1 11.314 11.314l-8 8A7.974 7.974 0 0 1 336 312zM336 264a7.974 7.974 0 0 1-5.657-2.343l-8-8a8 8 0 0 1 11.314-11.314l2.343 2.344 2.343-2.344a8 8 0 0 1 11.314 11.314l-8 8A7.974 7.974 0 0 1 336 264z" opacity="1" data-original="#eb423f"></path><path fill="#95573a" d="M216 456h80v32h-80z" opacity="1" data-original="#95573a"></path><circle cx="136" cy="80" r="40" fill="#eb423f" opacity="1" data-original="#eb423f"></circle><circle cx="376" cy="80" r="40" fill="#395a8d" opacity="1" data-original="#395a8d"></circle><path fill="#e0b999" d="M384.006 424a7.987 7.987 0 0 1-6.406-3.2l-12-16a8 8 0 0 1 1.601-11.2 8 8 0 0 1 11.2 1.601l12 16A8 8 0 0 1 384.006 424z" opacity="1" data-original="#e0b999"></path><path fill="#f7cca9" d="M104 288h8v88l26.286 26.286L152 384v-48c0-13.255 10.745-24 24-24s24 10.745 24 24v80l-48 72H56V320z" opacity="1" data-original="#f7cca9"></path><path fill="#e0b999" d="M127.994 424a7.987 7.987 0 0 0 6.406-3.2l12-16a8 8 0 0 0-1.601-11.2 8 8 0 0 0-11.2 1.601l-12 16A8 8 0 0 0 127.994 424z" opacity="1" data-original="#e0b999"></path><path fill="#414649" d="M144 200a8 8 0 0 0 16 0 8 8 0 0 0 0-16 8 8 0 0 0-16 0 8 8 0 0 0 0 16zM192 200a8 8 0 0 0 16 0 8 8 0 0 0 0-16 8 8 0 0 0-16 0 8 8 0 0 0 0 16zM160 288a8 8 0 0 0-16 0 8 8 0 0 0 0 16 8 8 0 0 0 16 0 8 8 0 0 0 0-16zM208 288a8 8 0 0 0-16 0 8 8 0 0 0 0 16 8 8 0 0 0 16 0 8 8 0 0 0 0-16zM192 248a8 8 0 0 0-8-8 8 8 0 0 0-16 0 8 8 0 0 0 0 16 8 8 0 0 0 16 0 8 8 0 0 0 8-8z" opacity="1" data-original="#414649"></path></g></svg>