<svg xmlns="http://www.w3.org/2000/svg" version="1.1" xmlns:xlink="http://www.w3.org/1999/xlink" width="512" height="512" x="0" y="0" viewBox="0 0 512 512" style="enable-background:new 0 0 512 512" xml:space="preserve" class=""><g><path fill="#0ed290" d="M189.676 481.288c-9.176 0-16.641-7.465-16.641-16.641V130.641c0-9.176 7.465-16.641 16.641-16.641H422.23c9.176 0 16.641 7.465 16.641 16.641v299.382C477.506 386.714 501 329.605 501 267c0-135.31-109.69-245-245-245S11 131.69 11 267s109.69 245 245 245c43.12 0 83.628-11.154 118.824-30.712z" opacity="1" data-original="#0ed290"></path><path fill="#00c285" d="M471 160.353c0-9.743-7.898-17.641-17.641-17.641H438.87v287.312A245.753 245.753 0 0 0 471 384.522zM203.165 481.288v13.071c0 5.222 2.282 9.899 5.887 13.129A246.24 246.24 0 0 0 256 512c43.12 0 83.628-11.154 118.824-30.712z" opacity="1" data-original="#00c285"></path><g fill="#00c285"><path d="M105.421 368.288v16.65c0 9.743 7.898 17.641 17.641 17.641h49.973v-34.291zM338.965 36.431V114h34.291V51.835a243.638 243.638 0 0 0-34.291-15.404z" fill="#00c285" opacity="1" data-original="#00c285"></path></g><path fill="#efedef" d="M173.035 130.641c0-9.176 7.465-16.641 16.641-16.641h150.289V17.641C339.965 7.898 332.067 0 322.324 0H89.771C80.028 0 72.13 7.898 72.13 17.641v334.006c0 9.743 7.898 17.641 17.641 17.641h83.264z" opacity="1" data-original="#efedef"></path><path fill="#e5e1e5" d="M298 17.641V114h41.965V17.641C339.965 7.898 332.067 0 322.324 0h-41.965C290.102 0 298 7.898 298 17.641z" opacity="1" data-original="#e5e1e5"></path><path fill="#554e56" d="M127.653 106.372 110.7 88.759l-16.953 17.613c-5.314 5.521-3.371 14.899 3.658 17.66 3.656 1.436 7.448.58 10.163-1.694l-5.078 8.795h16.418l-5.078-8.795c2.716 2.274 6.508 3.13 10.163 1.694 7.031-2.761 8.974-12.14 3.66-17.66zM110.7 82.033c-11.077 0-20.089-9.012-20.089-20.089V52.83h10v9.114c0 5.563 4.525 10.089 10.089 10.089s10.089-4.526 10.089-10.089v-41.92h10v41.92c0 11.077-9.012 20.089-20.089 20.089z" opacity="1" data-original="#554e56"></path><path fill="#fe646f" d="M173.035 130.641c0-9.176 7.465-16.641 16.641-16.641h90.95l4.506-13.483c1.082-3.238-1.328-6.585-4.742-6.585H137.71c-3.417 0-5.827 3.351-4.741 6.59l12.972 38.681 5.469 1h21.625zM173.035 256.523l-1.583 1.136a28.668 28.668 0 0 1-16.812 5.406 28.724 28.724 0 0 1-17.494-5.923l11.033 32.898a15 15 0 0 0 14.222 10.23h10.635v-43.747z" opacity="1" data-original="#fe646f"></path><path fill="#fee97d" d="M173.035 165.447h-27.094v40.154c-12.257 3.725-21.179 15.113-21.179 28.587 0 16.501 13.377 29.877 29.877 29.877a29.733 29.733 0 0 0 18.395-6.344v-92.274z" opacity="1" data-original="#fee97d"></path><path fill="#fd4755" d="M189.676 114h45.305l2.43-20.068h-56.729l2.594 21.352a16.535 16.535 0 0 1 6.4-1.284z" opacity="1" data-original="#fd4755"></path><path fill="#fb2b3a" d="M145.941 139.202h27.094v27.245h-27.094z" opacity="1" data-original="#fb2b3a"></path><circle cx="154.64" cy="234.188" r="16.262" fill="#fedf30" opacity="1" data-original="#fedf30"></circle><path fill="#f9f7f8" d="M439.87 428.896V130.641c0-9.743-7.898-17.641-17.641-17.641H189.676c-9.743 0-17.641 7.898-17.641 17.641v334.006c0 9.743 7.898 17.641 17.641 17.641h183.359c25.316-13.792 47.921-31.927 66.835-53.392z" opacity="1" data-original="#f9f7f8"></path><path fill="#f9f7f8" d="M439.87 428.896V130.641c0-9.743-7.898-17.641-17.641-17.641H189.676c-9.743 0-17.641 7.898-17.641 17.641v334.006c0 9.743 7.898 17.641 17.641 17.641h183.359c25.316-13.792 47.921-31.927 66.835-53.392z" opacity="1" data-original="#f9f7f8"></path><path fill="#efedef" d="M397.714 466.877a246.364 246.364 0 0 0 42.156-37.981V130.641c0-9.743-7.898-17.641-17.641-17.641h-42c9.743 0 17.641 7.898 17.641 17.641v334.006c0 .757-.063 1.498-.156 2.23z" opacity="1" data-original="#efedef"></path><path fill="#554e56" d="m376.554 276.497-68.44-71.104a3 3 0 0 0-4.323 0l-68.44 71.104c-22.13 22.991-14.039 62.049 15.235 73.547 15.225 5.98 31.017 2.417 42.325-7.055l-18.548 32.126c-1.155 2 .289 4.5 2.598 4.5h57.981c2.309 0 3.753-2.5 2.598-4.5l-18.548-32.126c11.309 9.472 27.101 13.035 42.325 7.055 29.275-11.498 37.366-50.556 15.237-73.547z" opacity="1" data-original="#554e56"></path><g fill="#433f43"><path d="m376.554 276.497-68.44-71.104a3 3 0 0 0-4.323 0l-8.935 9.282 59.505 61.822c22.129 22.991 14.039 62.049-15.235 73.547-1.392.547-2.79.987-4.188 1.377 8.309 2.334 17.439 2.134 26.38-1.377 29.275-11.498 37.365-50.556 15.236-73.547zM337.541 375.114l-18.548-32.126h-9.287c-3.849 0-6.255 4.167-4.33 7.5l14.218 24.626c1.155 2-.289 4.5-2.598 4.5h17.947c2.309 0 3.753-2.5 2.598-4.5z" fill="#433f43" opacity="1" data-original="#433f43"></path></g><path fill="#554e56" d="m227.559 219.372-16.953-17.613-16.953 17.613c-5.314 5.521-3.371 14.899 3.658 17.66 3.656 1.436 7.448.58 10.163-1.694l-5.078 8.795h16.418l-5.078-8.795c2.716 2.274 6.508 3.13 10.163 1.694 7.031-2.761 8.973-12.14 3.66-17.66zM221.477 193.442h10.413l-16.482-56.811a5 5 0 0 0-9.604 0l-16.482 56.811h10.413l2.268-7.817h17.207zm-16.574-17.817 5.702-19.655 5.702 19.655zM384.347 369.653l16.953 17.613 16.953-17.613c5.314-5.521 3.371-14.899-3.658-17.66-3.656-1.436-7.448-.58-10.163 1.694l5.078-8.795h-16.418l5.078 8.795c-2.716-2.274-6.508-3.13-10.163-1.694-7.031 2.761-8.974 12.139-3.66 17.66zM412.171 395.583l-2.491 8.587h-16.76l-2.491-8.587h-10.413l16.482 56.81a5 5 0 0 0 9.604 0l16.482-56.81zM401.3 433.055l-5.479-18.885h10.958z" opacity="1" data-original="#554e56"></path></g></svg>