<svg width="512" height="512" viewBox="0 0 512 512" fill="none" xmlns="http://www.w3.org/2000/svg">
<path d="M224 416H40C29.3952 415.987 19.2285 411.769 11.7298 404.27C4.23106 396.772 0.0127029 386.605 0 376L0 40C0.0127029 29.3952 4.23106 19.2285 11.7298 11.7298C19.2285 4.23106 29.3952 0.0127029 40 0L56 0V16H40C33.6348 16 27.5303 18.5286 23.0294 23.0294C18.5286 27.5303 16 33.6348 16 40V376C16 382.365 18.5286 388.47 23.0294 392.971C27.5303 397.471 33.6348 400 40 400H224V416ZM72 0H88.008V16H72V0ZM472 416V400C478.365 400 484.47 397.471 488.971 392.971C493.471 388.47 496 382.365 496 376V40C496 33.6348 493.471 27.5303 488.971 23.0294C484.47 18.5286 478.365 16 472 16H104V0H472C482.605 0.0127029 492.772 4.23106 500.27 11.7298C507.769 19.2285 511.987 29.3952 512 40V376C511.987 386.605 507.769 396.772 500.27 404.27C492.772 411.769 482.605 415.987 472 416Z" fill="url(#paint0_linear_768_9)"/>
<path d="M152.24 438.224L160.256 406.224L175.776 410.12L167.76 442.12L152.24 438.224Z" fill="url(#paint1_linear_768_9)"/>
<path d="M224 480H144C141.878 480 139.843 479.157 138.343 477.657C136.843 476.157 136 474.122 136 472V456C136 449.635 138.529 443.53 143.029 439.029C147.53 434.529 153.635 432 160 432H224V448H160C157.878 448 155.843 448.843 154.343 450.343C152.843 451.843 152 453.878 152 456V464H224V480ZM8 336H224V352H8V336ZM32 368H48V384H32V368ZM64 368H112V384H64V368ZM440 512H280C269.395 511.987 259.228 507.769 251.73 500.27C244.231 492.772 240.013 482.605 240 472V152C240.013 141.395 244.231 131.228 251.73 123.73C259.228 116.231 269.395 112.013 280 112H440C450.605 112.013 460.772 116.231 468.27 123.73C475.769 131.228 479.987 141.395 480 152V472C479.987 482.605 475.769 492.772 468.27 500.27C460.772 507.769 450.605 511.987 440 512ZM280 128C273.635 128 267.53 130.529 263.029 135.029C258.529 139.53 256 145.635 256 152V472C256 478.365 258.529 484.47 263.029 488.971C267.53 493.471 273.635 496 280 496H440C446.365 496 452.47 493.471 456.971 488.971C461.471 484.47 464 478.365 464 472V152C464 145.635 461.471 139.53 456.971 135.029C452.47 130.529 446.365 128 440 128H280Z" fill="url(#paint2_linear_768_9)"/>
<path d="M400 192H320C305.008 192 298.728 178.944 296.744 168H248V152H304C306.122 152 308.157 152.843 309.657 154.343C311.157 155.843 312 157.878 312 160C312 160.136 312.448 176 320 176H400C407.552 176 408 160.136 408 160C408 157.878 408.843 155.843 410.343 154.343C411.843 152.843 413.878 152 416 152H472V168H423.256C421.272 178.944 414.992 192 400 192Z" fill="url(#paint3_linear_768_9)"/>
<path d="M328 144H392V160H328V144ZM328 472H392V488H328V472ZM248 448H472V464H248V448ZM144 224H112C109.878 224 107.843 223.157 106.343 221.657C104.843 220.157 104 218.122 104 216V204.272C99.5328 202.865 95.1986 201.066 91.048 198.896L82.744 207.2C81.2438 208.7 79.2093 209.542 77.088 209.542C74.9667 209.542 72.9322 208.7 71.432 207.2L48.8 184.568C47.3002 183.068 46.4577 181.033 46.4577 178.912C46.4577 176.791 47.3002 174.756 48.8 173.256L57.096 164.952C54.9289 160.801 53.1325 156.467 51.728 152H40C37.8783 152 35.8434 151.157 34.3431 149.657C32.8429 148.157 32 146.122 32 144V112C32 109.878 32.8429 107.843 34.3431 106.343C35.8434 104.843 37.8783 104 40 104H51.728C53.1351 99.5328 54.9341 95.1986 57.104 91.048L48.8 82.744C47.3002 81.2438 46.4577 79.2093 46.4577 77.088C46.4577 74.9667 47.3002 72.9322 48.8 71.432L71.432 48.8C72.9322 47.3002 74.9667 46.4577 77.088 46.4577C79.2093 46.4577 81.2438 47.3002 82.744 48.8L91.048 57.096C95.1989 54.9289 99.5331 53.1325 104 51.728V40C104 37.8783 104.843 35.8434 106.343 34.3431C107.843 32.8429 109.878 32 112 32H144C146.122 32 148.157 32.8429 149.657 34.3431C151.157 35.8434 152 37.8783 152 40V51.728C156.467 53.1351 160.801 54.9341 164.952 57.104L173.256 48.8C174.756 47.3002 176.791 46.4577 178.912 46.4577C181.033 46.4577 183.068 47.3002 184.568 48.8L207.2 71.432C208.7 72.9322 209.542 74.9667 209.542 77.088C209.542 79.2093 208.7 81.2438 207.2 82.744L198.904 91.048C201.071 95.1989 202.867 99.5331 204.272 104H216C218.122 104 220.157 104.843 221.657 106.343C223.157 107.843 224 109.878 224 112V144C224 146.122 223.157 148.157 221.657 149.657C220.157 151.157 218.122 152 216 152H204.272C202.865 156.467 201.066 160.801 198.896 164.952L207.2 173.256C208.7 174.756 209.542 176.791 209.542 178.912C209.542 181.033 208.7 183.068 207.2 184.568L184.568 207.2C183.068 208.7 181.033 209.542 178.912 209.542C176.791 209.542 174.756 208.7 173.256 207.2L164.952 198.904C160.801 201.071 156.467 202.867 152 204.272V216C152 218.122 151.157 220.157 149.657 221.657C148.157 223.157 146.122 224 144 224ZM120 208H136V198.16C135.998 196.346 136.613 194.585 137.744 193.166C138.875 191.747 140.455 190.755 142.224 190.352C149.237 188.757 155.928 185.978 162.008 182.136C163.543 181.167 165.363 180.75 167.167 180.952C168.971 181.154 170.653 181.964 171.936 183.248L178.912 190.224L190.224 178.912L183.248 171.936C181.964 170.653 181.154 168.971 180.952 167.167C180.75 165.363 181.167 163.543 182.136 162.008C185.978 155.928 188.757 149.237 190.352 142.224C190.755 140.455 191.747 138.875 193.166 137.744C194.585 136.613 196.346 135.998 198.16 136H208V120H198.16C196.346 120.002 194.585 119.387 193.166 118.256C191.747 117.125 190.755 115.545 190.352 113.776C188.757 106.763 185.978 100.072 182.136 93.992C181.167 92.4565 180.75 90.6373 180.952 88.8331C181.154 87.0289 181.964 85.3471 183.248 84.064L190.224 77.088L178.912 65.776L171.936 72.752C170.653 74.0363 168.971 74.8461 167.167 75.0482C165.363 75.2502 163.543 74.8326 162.008 73.864C155.928 70.0218 149.237 67.2435 142.224 65.648C140.455 65.2452 138.875 64.253 137.744 62.8342C136.613 61.4155 135.998 59.6544 136 57.84V48H120V57.84C120.002 59.6544 119.387 61.4155 118.256 62.8342C117.125 64.253 115.545 65.2452 113.776 65.648C106.763 67.2435 100.072 70.0218 93.992 73.864C92.4565 74.8326 90.6373 75.2502 88.8331 75.0482C87.0289 74.8461 85.3471 74.0363 84.064 72.752L77.088 65.776L65.776 77.088L72.752 84.064C74.0363 85.3471 74.8461 87.0289 75.0482 88.8331C75.2502 90.6373 74.8326 92.4565 73.864 93.992C70.0218 100.072 67.2435 106.763 65.648 113.776C65.2452 115.545 64.253 117.125 62.8342 118.256C61.4155 119.387 59.6544 120.002 57.84 120H48V136H57.84C59.6544 135.998 61.4155 136.613 62.8342 137.744C64.253 138.875 65.2452 140.455 65.648 142.224C67.2435 149.237 70.0218 155.928 73.864 162.008C74.8326 163.543 75.2502 165.363 75.0482 167.167C74.8461 168.971 74.0363 170.653 72.752 171.936L65.776 178.912L77.088 190.224L84.064 183.248C85.3471 181.964 87.0289 181.154 88.8331 180.952C90.6373 180.75 92.4565 181.167 93.992 182.136C100.072 185.978 106.763 188.757 113.776 190.352C115.545 190.755 117.125 191.747 118.256 193.166C119.387 194.585 120.002 196.346 120 198.16V208Z" fill="url(#paint4_linear_768_9)"/>
<path d="M128 168C120.089 168 112.355 165.654 105.777 161.259C99.1992 156.864 94.0723 150.616 91.0448 143.307C88.0173 135.998 87.2252 127.956 88.7686 120.196C90.312 112.437 94.1217 105.31 99.7158 99.7158C105.31 94.1217 112.437 90.312 120.196 88.7686C127.956 87.2252 135.998 88.0173 143.307 91.0448C150.616 94.0723 156.864 99.1992 161.259 105.777C165.654 112.355 168 120.089 168 128C167.987 138.605 163.769 148.772 156.27 156.27C148.772 163.769 138.605 167.987 128 168ZM128 104C123.253 104 118.613 105.408 114.666 108.045C110.72 110.682 107.643 114.43 105.827 118.816C104.01 123.201 103.535 128.027 104.461 132.682C105.387 137.338 107.673 141.614 111.029 144.971C114.386 148.327 118.662 150.613 123.318 151.539C127.973 152.465 132.799 151.99 137.184 150.173C141.57 148.357 145.318 145.28 147.955 141.334C150.592 137.387 152 132.747 152 128C152 121.635 149.471 115.53 144.971 111.029C140.47 106.529 134.365 104 128 104ZM136 328H120V296C120 293.878 120.843 291.843 122.343 290.343C123.843 288.843 125.878 288 128 288H139.728C141.135 283.533 142.934 279.199 145.104 275.048L136.8 266.744C135.3 265.244 134.458 263.209 134.458 261.088C134.458 258.967 135.3 256.932 136.8 255.432L159.432 232.8C160.932 231.3 162.967 230.458 165.088 230.458C167.209 230.458 169.244 231.3 170.744 232.8L179.048 241.096C183.199 238.929 187.533 237.133 192 235.728V224C192 221.878 192.843 219.843 194.343 218.343C195.843 216.843 197.878 216 200 216H232V232H208V241.84C208.002 243.654 207.387 245.415 206.256 246.834C205.125 248.253 203.545 249.245 201.776 249.648C194.763 251.243 188.072 254.022 181.992 257.864C180.457 258.833 178.637 259.25 176.833 259.048C175.029 258.846 173.347 258.036 172.064 256.752L165.088 249.776L153.776 261.088L160.752 268.064C162.036 269.347 162.846 271.029 163.048 272.833C163.25 274.637 162.833 276.457 161.864 277.992C158.022 284.072 155.243 290.763 153.648 297.776C153.245 299.545 152.253 301.125 150.834 302.256C149.415 303.387 147.654 304.002 145.84 304H136V328ZM192 312H176C176.013 301.395 180.231 291.228 187.73 283.73C195.228 276.231 205.395 272.013 216 272V288C209.635 288 203.53 290.529 199.029 295.029C194.529 299.53 192 305.635 192 312ZM360 400C342.595 400 325.581 394.839 311.11 385.169C296.638 375.5 285.359 361.756 278.699 345.676C272.038 329.596 270.295 311.902 273.691 294.832C277.086 277.762 285.468 262.082 297.775 249.775C310.082 237.468 325.762 229.086 342.832 225.691C359.902 222.295 377.596 224.038 393.676 230.699C409.756 237.359 423.5 248.638 433.169 263.11C442.839 277.581 448 294.595 448 312C447.973 335.331 438.692 357.698 422.195 374.195C405.698 390.692 383.331 399.973 360 400ZM360 240C345.76 240 331.839 244.223 319.999 252.134C308.159 260.046 298.93 271.291 293.481 284.447C288.031 297.603 286.605 312.08 289.383 326.047C292.162 340.013 299.019 352.842 309.088 362.912C319.158 372.981 331.987 379.838 345.954 382.617C359.92 385.395 374.397 383.969 387.553 378.519C400.71 373.07 411.954 363.841 419.866 352.001C427.777 340.161 432 326.24 432 312C431.977 292.912 424.384 274.612 410.886 261.114C397.388 247.616 379.088 240.023 360 240Z" fill="url(#paint5_linear_768_9)"/>
<path d="M344 368C341.879 368 339.844 367.156 338.344 365.656L298.344 325.656C296.844 324.156 296.002 322.121 296.002 320C296.002 317.879 296.844 315.844 298.344 314.344L322.344 290.344C323.844 288.844 325.879 288.002 328 288.002C330.122 288.002 332.156 288.844 333.656 290.344L344 300.688L386.344 258.344C387.844 256.844 389.879 256.002 392 256.002C394.122 256.002 396.156 256.844 397.656 258.344L421.656 282.344C423.156 283.844 423.999 285.879 423.999 288C423.999 290.121 423.156 292.156 421.656 293.656L349.656 365.656C348.156 367.156 346.122 368 344 368ZM315.312 320L344 348.688L404.688 288L392 275.312L349.656 317.656C348.156 319.156 346.122 319.998 344 319.998C341.879 319.998 339.844 319.156 338.344 317.656L328 307.312L315.312 320ZM456 32H472V48H456V32ZM336 32H440V48H336V32Z" fill="url(#paint6_linear_768_9)"/>
<defs>
<linearGradient id="paint0_linear_768_9" x1="-1.06666" y1="4.76662" x2="375.522" y2="453.55" gradientUnits="userSpaceOnUse">
<stop stop-color="#8705FF"/>
<stop offset="1" stop-color="#CC00FF"/>
</linearGradient>
<linearGradient id="paint1_linear_768_9" x1="152.191" y1="406.635" x2="182.052" y2="425.592" gradientUnits="userSpaceOnUse">
<stop stop-color="#8705FF"/>
<stop offset="1" stop-color="#CC00FF"/>
</linearGradient>
<linearGradient id="paint2_linear_768_9" x1="7.01668" y1="116.583" x2="371.464" y2="532.982" gradientUnits="userSpaceOnUse">
<stop stop-color="#8705FF"/>
<stop offset="1" stop-color="#CC00FF"/>
</linearGradient>
<linearGradient id="paint3_linear_768_9" x1="247.533" y1="152.458" x2="260.649" y2="223.577" gradientUnits="userSpaceOnUse">
<stop stop-color="#8705FF"/>
<stop offset="1" stop-color="#CC00FF"/>
</linearGradient>
<linearGradient id="paint4_linear_768_9" x1="31.0833" y1="37.2249" x2="449.281" y2="427.942" gradientUnits="userSpaceOnUse">
<stop stop-color="#8705FF"/>
<stop offset="1" stop-color="#CC00FF"/>
</linearGradient>
<linearGradient id="paint5_linear_768_9" x1="87.25" y1="91.575" x2="372.294" y2="410.033" gradientUnits="userSpaceOnUse">
<stop stop-color="#8705FF"/>
<stop offset="1" stop-color="#CC00FF"/>
</linearGradient>
<linearGradient id="paint6_linear_768_9" x1="295.635" y1="35.85" x2="544.828" y2="162.236" gradientUnits="userSpaceOnUse">
<stop stop-color="#8705FF"/>
<stop offset="1" stop-color="#CC00FF"/>
</linearGradient>
</defs>
</svg>
