<svg width="492" height="492" viewBox="0 0 492 492" fill="none" xmlns="http://www.w3.org/2000/svg">
<path d="M261.657 79.6314C261.001 79.7843 260.382 80.0652 259.834 80.4579C259.287 80.8506 258.822 81.3475 258.467 81.9201C257.118 84.0825 255.239 85.8654 253.01 87.1005C250.78 88.3356 248.272 88.9821 245.723 88.979C243.174 88.9759 240.668 88.3234 238.441 87.0829C236.214 85.8425 234.34 84.0551 232.995 81.8893C232.272 80.7412 231.123 79.927 229.8 79.6256C228.477 79.3242 227.089 79.5601 225.94 80.2817L123.699 144.486C122.55 145.206 121.734 146.352 121.428 147.672C121.123 148.993 121.354 150.381 122.071 151.532C123.574 153.937 124.371 156.716 124.371 159.552C124.371 162.388 123.574 165.168 122.071 167.573C121.356 168.723 121.126 170.109 121.431 171.429C121.736 172.748 122.551 173.893 123.699 174.613L225.228 238.357C225.825 238.731 226.493 238.979 227.189 239.083C227.886 239.188 228.597 239.148 229.278 238.965C229.958 238.783 230.594 238.462 231.144 238.022C231.695 237.582 232.149 237.034 232.478 236.411C233.749 233.991 235.662 231.967 238.006 230.561C240.35 229.155 243.036 228.421 245.77 228.439C251.54 228.439 256.486 231.644 259 236.411C259.329 237.034 259.783 237.582 260.334 238.022C260.884 238.462 261.52 238.783 262.2 238.965C262.881 239.148 263.592 239.188 264.289 239.083C264.985 238.979 265.653 238.731 266.25 238.357L366.141 175.688C366.731 175.318 367.239 174.831 367.635 174.258C368.031 173.685 368.305 173.037 368.442 172.354C368.578 171.671 368.574 170.967 368.429 170.286C368.285 169.605 368.003 168.96 367.6 168.392C365.75 165.826 364.753 162.744 364.748 159.58C364.748 156.252 365.772 153.283 367.569 150.799C367.98 150.232 368.271 149.587 368.422 148.903C368.574 148.219 368.583 147.511 368.45 146.824C368.317 146.136 368.045 145.483 367.649 144.905C367.254 144.326 366.744 143.836 366.151 143.462L265.543 80.2817C264.97 79.922 264.332 79.6794 263.665 79.5678C262.998 79.4562 262.316 79.4778 261.657 79.6314ZM228.152 90.9876C232.75 95.7185 238.668 99.2103 245.77 99.2103C252.835 99.2103 258.739 95.7287 263.331 90.9876L357.55 150.149C356.254 153.201 354.508 156.088 354.508 159.58C354.508 163.108 356.234 165.96 357.529 169.001L264.217 227.533C259.578 222.157 253.347 218.194 245.77 218.194C238.161 218.194 231.91 222.157 227.261 227.533L132.234 167.885C133.222 165.171 134.609 162.611 134.609 159.585C134.609 156.534 133.212 153.964 132.218 151.24L228.152 90.9876Z" fill="url(#paint0_linear_768_30)"/>
<path d="M129.142 165.939C127.994 165.219 126.607 164.983 125.285 165.283C123.964 165.584 122.815 166.396 122.091 167.542C120.743 169.712 118.862 171.503 116.627 172.743C114.392 173.983 111.878 174.632 109.322 174.628C107.964 174.628 106.662 175.167 105.702 176.127C104.742 177.087 104.202 178.39 104.202 179.748V298.122C104.202 299.48 104.742 300.782 105.702 301.742C106.662 302.703 107.964 303.242 109.322 303.242C117.724 303.242 124.37 309.898 124.37 318.3C124.37 320.86 123.73 323.261 122.609 325.381C122.008 326.522 121.86 327.847 122.194 329.093C122.528 330.338 123.32 331.411 124.411 332.098L225.94 395.847C226.51 396.206 227.144 396.448 227.807 396.561C228.469 396.674 229.148 396.655 229.804 396.506C230.459 396.357 231.079 396.08 231.628 395.691C232.176 395.302 232.643 394.809 233.001 394.24C234.346 392.075 236.219 390.289 238.446 389.049C240.672 387.809 243.178 387.157 245.726 387.154C248.274 387.151 250.781 387.797 253.01 389.032C255.24 390.266 257.118 392.048 258.468 394.209C258.823 394.782 259.289 395.279 259.837 395.672C260.385 396.065 261.006 396.345 261.663 396.498C262.32 396.65 263 396.671 263.665 396.559C264.331 396.448 264.967 396.206 265.538 395.847L367.734 331.745C368.305 331.387 368.8 330.92 369.19 330.37C369.58 329.82 369.858 329.199 370.007 328.541C370.157 327.884 370.175 327.203 370.061 326.539C369.946 325.874 369.702 325.239 369.341 324.669C367.858 322.337 367.083 319.625 367.109 316.861C367.106 314.884 367.494 312.925 368.249 311.098C369.005 309.27 370.114 307.61 371.512 306.211C372.91 304.813 374.571 303.704 376.398 302.949C378.226 302.193 380.184 301.806 382.162 301.808C383.52 301.808 384.822 301.269 385.782 300.309C386.742 299.349 387.282 298.046 387.282 296.688V179.594C387.282 178.865 387.126 178.145 386.825 177.481C386.524 176.817 386.084 176.225 385.536 175.745C384.988 175.265 384.343 174.907 383.646 174.696C382.948 174.484 382.214 174.425 381.491 174.52C380.934 174.594 380.373 174.63 379.812 174.628C374.733 174.628 370.335 172.155 367.56 168.34C366.797 167.29 365.665 166.569 364.392 166.322C363.118 166.075 361.798 166.32 360.699 167.009L260.813 229.683C259.708 230.377 258.91 231.467 258.582 232.73C258.253 233.992 258.42 235.333 259.046 236.477C260.183 238.561 260.823 240.932 260.823 243.492C260.823 251.888 254.116 258.544 245.775 258.544C243.794 258.56 241.829 258.181 239.996 257.431C238.162 256.68 236.496 255.572 235.095 254.171C233.693 252.77 232.585 251.104 231.833 249.271C231.082 247.438 230.702 245.473 230.717 243.492C230.717 240.932 231.368 238.535 232.484 236.416C233.088 235.273 233.238 233.943 232.903 232.694C232.568 231.445 231.772 230.37 230.676 229.683L129.142 165.939ZM126.94 176.64L222.223 236.472C221.522 238.776 220.472 240.947 220.472 243.486C220.472 257.408 231.854 268.779 245.77 268.779C259.645 268.779 271.063 257.423 271.063 243.486C271.063 240.957 269.977 238.776 269.271 236.462L363.049 177.633C366.889 181.176 371.574 183.547 377.042 184.187V292.608C365.655 295.065 356.869 304.778 356.869 316.861C356.869 319.821 358.241 322.334 359.199 325.002L263.332 385.142C258.739 380.4 252.836 376.919 245.77 376.919C238.669 376.919 232.75 380.411 228.152 385.142L132.859 325.319C133.555 323.01 134.61 320.845 134.61 318.3C134.61 306.196 125.834 296.489 114.437 294.041V183.521C119.199 182.53 123.555 180.133 126.94 176.64Z" fill="url(#paint1_linear_768_30)"/>
<path d="M129.142 165.939C127.994 165.219 126.607 164.983 125.285 165.283C123.964 165.584 122.815 166.396 122.091 167.542C120.743 169.712 118.862 171.503 116.627 172.743C114.392 173.983 111.878 174.632 109.322 174.628C107.964 174.628 106.662 175.167 105.702 176.127C104.742 177.087 104.202 178.39 104.202 179.748V298.122C104.202 299.48 104.742 300.782 105.702 301.742C106.662 302.703 107.964 303.242 109.322 303.242C117.724 303.242 124.37 309.898 124.37 318.3C124.37 320.86 123.73 323.261 122.609 325.381C122.008 326.522 121.86 327.847 122.194 329.093C122.528 330.338 123.32 331.411 124.411 332.098L225.94 395.847C226.51 396.206 227.144 396.448 227.807 396.561C228.469 396.674 229.148 396.655 229.804 396.506C230.459 396.357 231.079 396.08 231.628 395.691C232.176 395.302 232.643 394.809 233.001 394.24C234.346 392.075 236.219 390.289 238.446 389.049C240.672 387.809 243.178 387.157 245.726 387.154C248.274 387.151 250.781 387.797 253.01 389.032C255.24 390.266 257.118 392.048 258.468 394.209C258.823 394.782 259.289 395.279 259.837 395.672C260.385 396.065 261.006 396.345 261.663 396.498C262.32 396.65 263 396.671 263.665 396.559C264.331 396.448 264.967 396.206 265.538 395.847L367.734 331.745C368.305 331.387 368.8 330.92 369.19 330.37C369.58 329.82 369.858 329.199 370.007 328.541C370.157 327.884 370.175 327.203 370.061 326.539C369.946 325.874 369.702 325.239 369.341 324.669C367.858 322.337 367.083 319.625 367.109 316.861C367.106 314.884 367.494 312.925 368.249 311.098C369.005 309.27 370.114 307.61 371.512 306.211C372.91 304.813 374.571 303.704 376.398 302.949C378.226 302.193 380.184 301.806 382.162 301.808C383.52 301.808 384.822 301.269 385.782 300.309C386.742 299.349 387.282 298.046 387.282 296.688V179.594C387.282 178.865 387.126 178.145 386.825 177.481C386.524 176.817 386.084 176.225 385.536 175.745C384.988 175.265 384.343 174.907 383.646 174.696C382.948 174.484 382.214 174.425 381.491 174.52C380.934 174.594 380.373 174.63 379.812 174.628C374.733 174.628 370.335 172.155 367.56 168.34C366.797 167.29 365.665 166.569 364.392 166.322C363.118 166.075 361.798 166.32 360.699 167.009L260.813 229.683C259.708 230.377 258.91 231.467 258.582 232.73C258.253 233.992 258.42 235.333 259.046 236.477C260.183 238.561 260.823 240.932 260.823 243.492C260.823 251.888 254.116 258.544 245.775 258.544C243.794 258.56 241.829 258.181 239.996 257.431C238.162 256.68 236.496 255.572 235.095 254.171C233.693 252.77 232.585 251.104 231.833 249.271C231.082 247.438 230.702 245.473 230.717 243.492C230.717 240.932 231.368 238.535 232.484 236.416C233.088 235.273 233.238 233.943 232.903 232.694C232.568 231.445 231.772 230.37 230.676 229.683L129.142 165.939ZM126.94 176.64L222.223 236.472C221.522 238.776 220.472 240.947 220.472 243.486C220.472 257.408 231.854 268.779 245.77 268.779C259.645 268.779 271.063 257.423 271.063 243.486C271.063 240.957 269.977 238.776 269.271 236.462L363.049 177.633C366.889 181.176 371.574 183.547 377.042 184.187V292.608C365.655 295.065 356.869 304.778 356.869 316.861C356.869 319.821 358.241 322.334 359.199 325.002L263.332 385.142C258.739 380.4 252.836 376.919 245.77 376.919C238.669 376.919 232.75 380.411 228.152 385.142L132.859 325.319C133.555 323.01 134.61 320.845 134.61 318.3C134.61 306.196 125.834 296.489 114.437 294.041V183.521C119.199 182.53 123.555 180.133 126.94 176.64Z" fill="url(#paint2_linear_768_30)"/>
<path d="M261.657 79.6314C261.001 79.7843 260.382 80.0652 259.834 80.4579C259.287 80.8506 258.822 81.3475 258.467 81.9201C257.118 84.0825 255.239 85.8654 253.01 87.1005C250.78 88.3356 248.272 88.9821 245.723 88.979C243.174 88.9759 240.668 88.3234 238.441 87.0829C236.214 85.8425 234.34 84.0551 232.995 81.8893C232.272 80.7412 231.123 79.927 229.8 79.6256C228.477 79.3242 227.089 79.5601 225.94 80.2817L123.699 144.486C122.55 145.206 121.734 146.352 121.428 147.672C121.123 148.993 121.354 150.381 122.071 151.532C123.574 153.937 124.371 156.716 124.371 159.552C124.371 162.388 123.574 165.168 122.071 167.573C121.356 168.723 121.126 170.109 121.431 171.429C121.736 172.748 122.551 173.893 123.699 174.613L225.228 238.357C225.825 238.731 226.493 238.979 227.189 239.083C227.886 239.188 228.597 239.148 229.278 238.965C229.958 238.783 230.594 238.462 231.144 238.022C231.695 237.582 232.149 237.034 232.478 236.411C233.749 233.991 235.662 231.967 238.006 230.561C240.35 229.155 243.036 228.421 245.77 228.439C251.54 228.439 256.486 231.644 259 236.411C259.329 237.034 259.783 237.582 260.334 238.022C260.884 238.462 261.52 238.783 262.2 238.965C262.881 239.148 263.592 239.188 264.289 239.083C264.985 238.979 265.653 238.731 266.25 238.357L366.141 175.688C366.731 175.318 367.239 174.831 367.635 174.258C368.031 173.685 368.305 173.037 368.442 172.354C368.578 171.671 368.574 170.967 368.429 170.286C368.285 169.605 368.003 168.96 367.6 168.392C365.75 165.826 364.753 162.744 364.748 159.58C364.748 156.252 365.772 153.283 367.569 150.799C367.98 150.232 368.271 149.587 368.422 148.903C368.574 148.219 368.583 147.511 368.45 146.824C368.317 146.136 368.045 145.483 367.649 144.905C367.254 144.326 366.744 143.836 366.151 143.462L265.543 80.2817C264.97 79.922 264.332 79.6794 263.665 79.5678C262.998 79.4562 262.316 79.4778 261.657 79.6314ZM228.152 90.9876C232.75 95.7185 238.668 99.2103 245.77 99.2103C252.835 99.2103 258.739 95.7287 263.331 90.9876L357.55 150.149C356.254 153.201 354.508 156.088 354.508 159.58C354.508 163.108 356.234 165.96 357.529 169.001L264.217 227.533C259.578 222.157 253.347 218.194 245.77 218.194C238.161 218.194 231.91 222.157 227.261 227.533L132.234 167.885C133.222 165.171 134.609 162.611 134.609 159.585C134.609 156.534 133.212 153.964 132.218 151.24L228.152 90.9876Z" fill="url(#paint3_linear_768_30)"/>
<path d="M327.22 188.411C326.65 188.053 326.016 187.81 325.353 187.697C324.691 187.584 324.012 187.603 323.356 187.752C322.701 187.902 322.081 188.179 321.532 188.567C320.984 188.956 320.517 189.449 320.159 190.019C319.8 190.588 319.557 191.222 319.443 191.885C319.329 192.548 319.347 193.227 319.496 193.884C319.645 194.54 319.921 195.16 320.31 195.709C320.699 196.259 321.192 196.726 321.762 197.084L321.7 197.038C321.794 198.302 322.353 199.487 323.269 200.363C324.185 201.239 325.394 201.743 326.662 201.779C328.019 201.779 329.322 201.24 330.282 200.28C331.242 199.319 331.782 198.017 331.782 196.659V194.099C331.78 193.233 331.559 192.381 331.139 191.624C330.719 190.866 330.114 190.228 329.38 189.768L327.22 188.411ZM326.656 215.91C325.298 215.91 323.996 216.45 323.036 217.41C322.076 218.37 321.536 219.673 321.536 221.03V225.9C321.536 227.257 322.076 228.56 323.036 229.52C323.996 230.48 325.298 231.02 326.656 231.02C328.014 231.02 329.317 230.48 330.277 229.52C331.237 228.56 331.776 227.257 331.776 225.9V221.03C331.776 219.673 331.237 218.37 330.277 217.41C329.317 216.45 328.014 215.91 326.656 215.91ZM326.656 245.141C325.298 245.141 323.996 245.68 323.036 246.64C322.076 247.6 321.536 248.903 321.536 250.261V255.13C321.536 256.488 322.076 257.79 323.036 258.75C323.996 259.71 325.298 260.25 326.656 260.25C328.014 260.25 329.317 259.71 330.277 258.75C331.237 257.79 331.776 256.488 331.776 255.13V250.261C331.776 248.903 331.237 247.6 330.277 246.64C329.317 245.68 328.014 245.141 326.656 245.141ZM326.656 274.381C325.39 274.418 324.183 274.923 323.267 275.799C322.352 276.675 321.793 277.859 321.7 279.122L321.762 279.081C320.613 279.805 319.799 280.955 319.498 282.279C319.198 283.603 319.435 284.993 320.159 286.142C320.517 286.711 320.984 287.205 321.533 287.594C322.082 287.984 322.702 288.261 323.359 288.41C324.015 288.56 324.694 288.578 325.357 288.465C326.021 288.351 326.655 288.108 327.225 287.749L329.38 286.392C330.114 285.932 330.719 285.294 331.139 284.536C331.559 283.779 331.78 282.927 331.782 282.061V279.501C331.782 278.143 331.242 276.841 330.282 275.88C329.322 274.92 328.014 274.381 326.656 274.381ZM303.109 292.557C301.785 292.258 300.397 292.498 299.249 293.222L294.749 296.038C294.178 296.396 293.683 296.862 293.293 297.411C292.903 297.959 292.624 298.579 292.474 299.236C292.324 299.892 292.304 300.571 292.417 301.235C292.53 301.899 292.772 302.534 293.131 303.104C293.488 303.674 293.954 304.168 294.502 304.558C295.05 304.948 295.67 305.226 296.326 305.376C296.981 305.526 297.66 305.546 298.323 305.434C298.987 305.321 299.621 305.08 300.191 304.722L304.692 301.891C305.262 301.533 305.756 301.067 306.145 300.519C306.535 299.971 306.813 299.351 306.964 298.696C307.114 298.04 307.133 297.361 307.021 296.698C306.909 296.035 306.667 295.4 306.309 294.83C305.951 294.26 305.484 293.767 304.935 293.377C304.386 292.988 303.766 292.706 303.109 292.557ZM272.231 310.18L267.73 312.996C267.16 313.353 266.665 313.819 266.275 314.368C265.884 314.917 265.606 315.537 265.456 316.193C265.306 316.849 265.286 317.529 265.399 318.193C265.511 318.857 265.754 319.492 266.112 320.062C266.47 320.632 266.936 321.126 267.484 321.515C268.032 321.905 268.652 322.183 269.307 322.334C269.963 322.484 270.642 322.503 271.305 322.391C271.968 322.279 272.603 322.037 273.173 321.679L277.668 318.848C278.239 318.491 278.733 318.026 279.124 317.478C279.514 316.93 279.792 316.31 279.943 315.654C280.094 314.999 280.114 314.319 280.002 313.656C279.89 312.993 279.649 312.358 279.291 311.788C278.933 311.218 278.466 310.724 277.917 310.335C277.368 309.945 276.748 309.668 276.092 309.519C275.436 309.37 274.756 309.351 274.093 309.465C273.43 309.578 272.8 309.821 272.231 310.18ZM242.458 326.482C241.802 326.631 241.181 326.908 240.632 327.297C240.083 327.687 239.616 328.18 239.258 328.75C238.9 329.32 238.658 329.954 238.545 330.617C238.433 331.28 238.452 331.959 238.602 332.615C238.751 333.27 239.029 333.89 239.418 334.438C239.808 334.987 240.301 335.453 240.871 335.811L243.031 337.173C243.849 337.687 244.795 337.96 245.76 337.96C246.726 337.96 247.672 337.687 248.489 337.173L250.65 335.811C251.22 335.453 251.713 334.987 252.102 334.438C252.492 333.89 252.769 333.27 252.919 332.615C253.069 331.959 253.088 331.28 252.975 330.617C252.863 329.954 252.621 329.32 252.263 328.75C251.588 327.794 250.607 327.098 249.481 326.777C248.356 326.457 247.155 326.532 246.078 326.989L246.318 327.142C246.134 327.098 245.948 327.064 245.76 327.04C245.571 327.064 245.383 327.098 245.197 327.142L245.438 326.989C244.519 326.522 243.48 326.349 242.458 326.482ZM188.411 292.557C187.089 292.862 185.941 293.68 185.221 294.83C184.863 295.399 184.621 296.033 184.508 296.696C184.395 297.359 184.414 298.038 184.563 298.693C184.712 299.349 184.989 299.969 185.378 300.517C185.767 301.066 186.26 301.533 186.829 301.891L191.335 304.722C192.486 305.442 193.875 305.676 195.199 305.371C196.522 305.067 197.67 304.25 198.39 303.099C198.748 302.53 198.991 301.896 199.104 301.233C199.217 300.57 199.198 299.891 199.049 299.236C198.899 298.58 198.622 297.96 198.234 297.412C197.845 296.863 197.352 296.396 196.782 296.038L192.272 293.222C191.124 292.498 189.735 292.258 188.411 292.557ZM219.3 310.18C218.731 309.822 218.097 309.579 217.434 309.466C216.771 309.353 216.093 309.372 215.437 309.521C214.781 309.671 214.162 309.948 213.613 310.336C213.064 310.725 212.598 311.218 212.24 311.788C211.881 312.357 211.638 312.992 211.525 313.656C211.412 314.319 211.431 314.999 211.581 315.655C211.731 316.311 212.008 316.931 212.398 317.48C212.788 318.029 213.282 318.496 213.853 318.853L218.348 321.679C218.918 322.038 219.553 322.28 220.217 322.393C220.88 322.506 221.56 322.486 222.216 322.336C222.873 322.186 223.493 321.907 224.041 321.517C224.59 321.127 225.056 320.632 225.413 320.062C226.133 318.912 226.367 317.525 226.065 316.203C225.762 314.881 224.948 313.733 223.801 313.011L219.3 310.18ZM164.864 274.381C163.506 274.381 162.204 274.92 161.244 275.88C160.284 276.841 159.744 278.143 159.744 279.501V282.061C159.745 282.927 159.965 283.778 160.384 284.535C160.803 285.293 161.408 285.932 162.141 286.392L164.301 287.749C164.87 288.107 165.504 288.35 166.167 288.463C166.83 288.576 167.509 288.557 168.164 288.408C168.82 288.258 169.44 287.981 169.988 287.593C170.537 287.204 171.004 286.711 171.362 286.142C172.033 285.04 172.263 283.725 172.007 282.461C171.751 281.196 171.027 280.075 169.979 279.322V279.501C169.964 279.424 169.947 279.347 169.928 279.27C169.873 279.206 169.817 279.143 169.759 279.081L169.918 279.189C169.84 277.895 169.275 276.679 168.336 275.786C167.397 274.893 166.155 274.389 164.859 274.376L164.864 274.381ZM164.864 215.91C163.506 215.91 162.204 216.45 161.244 217.41C160.284 218.37 159.744 219.673 159.744 221.03V225.9C159.744 227.257 160.284 228.56 161.244 229.52C162.204 230.48 163.506 231.02 164.864 231.02C166.222 231.02 167.525 230.48 168.485 229.52C169.445 228.56 169.984 227.257 169.984 225.9V221.03C169.984 219.673 169.445 218.37 168.485 217.41C167.525 216.45 166.222 215.91 164.864 215.91ZM164.864 245.141C163.506 245.141 162.204 245.68 161.244 246.64C160.284 247.6 159.744 248.903 159.744 250.261V255.13C159.744 256.488 160.284 257.79 161.244 258.75C162.204 259.71 163.506 260.25 164.864 260.25C166.222 260.25 167.525 259.71 168.485 258.75C169.445 257.79 169.984 256.488 169.984 255.13V250.261C169.984 248.903 169.445 247.6 168.485 246.64C167.525 245.68 166.222 245.141 164.864 245.141ZM168.172 187.75C167.515 187.6 166.835 187.582 166.171 187.695C165.506 187.808 164.871 188.052 164.301 188.411L162.141 189.768C161.407 190.228 160.801 190.866 160.381 191.624C159.961 192.381 159.74 193.233 159.739 194.099V196.659C159.739 198.017 160.279 199.319 161.239 200.28C162.199 201.24 163.501 201.779 164.859 201.779C166.126 201.743 167.335 201.239 168.252 200.363C169.168 199.487 169.727 198.302 169.821 197.038L169.759 197.079C169.787 197.05 169.814 197.021 169.841 196.992C169.891 196.883 169.937 196.772 169.979 196.659V196.838C171.027 196.085 171.751 194.964 172.007 193.699C172.263 192.435 172.033 191.12 171.362 190.019C170.641 188.87 169.494 188.054 168.172 187.75ZM222.219 153.83C221.562 153.679 220.883 153.658 220.218 153.77C219.554 153.882 218.919 154.123 218.348 154.481L213.853 157.312C213.282 157.669 212.788 158.135 212.397 158.683C212.007 159.231 211.728 159.85 211.578 160.506C211.427 161.162 211.407 161.841 211.519 162.504C211.631 163.168 211.872 163.802 212.229 164.373C212.588 164.942 213.054 165.436 213.603 165.825C214.152 166.215 214.773 166.492 215.429 166.641C216.085 166.791 216.764 166.809 217.428 166.696C218.091 166.582 218.726 166.339 219.295 165.98L223.79 163.164C224.361 162.807 224.856 162.341 225.246 161.792C225.636 161.244 225.915 160.623 226.065 159.967C226.215 159.311 226.235 158.631 226.122 157.967C226.009 157.304 225.767 156.669 225.408 156.099C224.687 154.95 223.54 154.134 222.219 153.83ZM195.19 170.788C193.868 170.485 192.48 170.719 191.33 171.438L186.829 174.27C186.259 174.627 185.765 175.093 185.375 175.641C184.985 176.189 184.707 176.809 184.557 177.464C184.407 178.12 184.387 178.799 184.5 179.462C184.612 180.126 184.854 180.76 185.211 181.33C185.569 181.899 186.036 182.392 186.584 182.781C187.133 183.17 187.753 183.447 188.408 183.596C189.064 183.746 189.743 183.764 190.406 183.651C191.068 183.538 191.703 183.296 192.272 182.938L196.772 180.122C197.343 179.764 197.838 179.298 198.228 178.75C198.618 178.201 198.896 177.581 199.047 176.924C199.197 176.268 199.216 175.589 199.104 174.925C198.991 174.261 198.749 173.626 198.39 173.056C198.032 172.486 197.565 171.993 197.016 171.603C196.467 171.214 195.846 170.937 195.19 170.788ZM243.031 138.988L240.871 140.35C240.301 140.707 239.808 141.173 239.418 141.722C239.029 142.27 238.751 142.89 238.602 143.546C238.452 144.201 238.433 144.88 238.545 145.543C238.658 146.206 238.9 146.841 239.258 147.41C239.986 148.394 241.041 149.084 242.234 149.356C243.427 149.629 244.678 149.465 245.76 148.895C246.843 149.465 248.094 149.629 249.287 149.356C250.479 149.084 251.535 148.394 252.263 147.41C252.621 146.841 252.863 146.206 252.975 145.543C253.088 144.88 253.069 144.201 252.919 143.546C252.769 142.89 252.492 142.27 252.102 141.722C251.713 141.173 251.22 140.707 250.65 140.35L248.489 138.988C247.672 138.473 246.726 138.2 245.76 138.2C244.795 138.2 243.849 138.473 243.031 138.988ZM269.302 153.83C267.98 154.134 266.833 154.95 266.112 156.099C265.392 157.247 265.157 158.634 265.459 159.956C265.76 161.278 266.573 162.426 267.72 163.149L272.221 165.98C272.79 166.338 273.424 166.581 274.087 166.694C274.749 166.807 275.428 166.788 276.084 166.639C276.739 166.489 277.359 166.213 277.908 165.824C278.456 165.435 278.923 164.942 279.281 164.373C279.64 163.803 279.882 163.168 279.995 162.505C280.109 161.841 280.09 161.162 279.94 160.505C279.79 159.849 279.512 159.229 279.122 158.68C278.733 158.131 278.239 157.665 277.668 157.307L273.173 154.481C272.602 154.123 271.966 153.882 271.302 153.77C270.638 153.658 269.958 153.679 269.302 153.83ZM296.32 170.788C294.998 171.093 293.851 171.911 293.131 173.061C292.773 173.63 292.53 174.264 292.417 174.927C292.304 175.59 292.323 176.269 292.472 176.924C292.621 177.58 292.898 178.2 293.287 178.748C293.676 179.297 294.169 179.764 294.738 180.122L299.249 182.938C300.398 183.658 301.785 183.893 303.106 183.591C304.428 183.29 305.576 182.477 306.299 181.33C306.657 180.761 306.9 180.127 307.013 179.464C307.126 178.801 307.107 178.122 306.958 177.467C306.809 176.811 306.532 176.191 306.143 175.643C305.754 175.094 305.261 174.628 304.692 174.27L300.186 171.438C299.616 171.081 298.981 170.84 298.318 170.728C297.655 170.617 296.976 170.637 296.32 170.788Z" fill="url(#paint4_linear_768_30)"/>
<path d="M245.771 258.54C244.413 258.54 243.11 259.079 242.15 260.039C241.19 260.999 240.651 262.302 240.651 263.66V382.039C240.651 383.397 241.19 384.699 242.15 385.66C243.11 386.62 244.413 387.159 245.771 387.159C247.129 387.159 248.431 386.62 249.391 385.66C250.351 384.699 250.891 383.397 250.891 382.039V263.665C250.891 262.307 250.351 261.005 249.391 260.044C248.431 259.084 247.129 258.545 245.771 258.545V258.54ZM245.76 48.6401C231.854 48.6401 220.468 60.0219 220.468 73.9329C220.468 87.844 231.854 99.2257 245.76 99.2257C259.666 99.2257 271.053 87.8389 271.053 73.9329C271.053 60.027 259.661 48.6401 245.76 48.6401ZM245.76 58.8801C254.137 58.8801 260.813 65.5566 260.813 73.9329C260.813 82.3093 254.137 88.9857 245.76 88.9857C237.384 88.9857 230.708 82.3041 230.708 73.9329C230.708 65.5617 237.389 58.8801 245.76 58.8801ZM109.333 134.282C102.631 134.301 96.2099 136.971 91.4708 141.71C86.7317 146.448 84.0603 152.869 84.04 159.57C84.059 166.272 86.7298 172.695 91.469 177.434C96.2082 182.173 102.631 184.844 109.333 184.863C123.239 184.863 134.626 173.476 134.626 159.57C134.626 145.664 123.239 134.282 109.333 134.282ZM109.333 144.522C111.312 144.513 113.273 144.896 115.103 145.648C116.934 146.401 118.597 147.509 119.996 148.908C121.396 150.307 122.504 151.97 123.258 153.8C124.011 155.63 124.394 157.591 124.386 159.57C124.395 161.549 124.012 163.511 123.259 165.342C122.506 167.172 121.398 168.835 119.998 170.235C118.598 171.635 116.935 172.743 115.105 173.496C113.274 174.249 111.312 174.632 109.333 174.623C107.353 174.634 105.391 174.252 103.56 173.499C101.728 172.747 100.065 171.638 98.6647 170.238C97.2647 168.838 96.1564 167.175 95.4037 165.343C94.6511 163.512 94.2692 161.55 94.28 159.57C94.2692 157.59 94.6511 155.628 95.4037 153.797C96.1564 151.966 97.2647 150.302 98.6647 148.902C100.065 147.502 101.728 146.394 103.56 145.641C105.391 144.888 107.353 144.512 109.333 144.522Z" fill="url(#paint5_linear_768_30)"/>
<path d="M245.76 218.199C239.058 218.218 232.635 220.889 227.896 225.628C223.157 230.367 220.486 236.79 220.467 243.492C220.467 257.398 231.854 268.785 245.76 268.785C259.666 268.785 271.053 257.398 271.053 243.492C271.034 236.79 268.363 230.367 263.624 225.628C258.885 220.889 252.462 218.218 245.76 218.199ZM245.76 228.439C247.74 228.428 249.702 228.81 251.533 229.563C253.364 230.315 255.028 231.424 256.428 232.824C257.828 234.224 258.936 235.887 259.689 237.719C260.442 239.55 260.824 241.512 260.813 243.492C260.813 251.863 254.136 258.545 245.76 258.545C237.384 258.545 230.707 251.863 230.707 243.492C230.696 241.512 231.078 239.55 231.831 237.719C232.584 235.887 233.692 234.224 235.092 232.824C236.492 231.424 238.156 230.315 239.987 229.563C241.818 228.81 243.78 228.428 245.76 228.439ZM379.812 134.282C373.11 134.301 366.689 136.971 361.95 141.709C357.211 146.448 354.539 152.869 354.519 159.57C354.538 166.272 357.209 172.695 361.948 177.434C366.687 182.173 373.11 184.844 379.812 184.863C386.514 184.844 392.936 182.173 397.676 177.434C402.415 172.695 405.086 166.272 405.105 159.57C405.086 152.868 402.415 146.445 397.676 141.706C392.936 136.967 386.514 134.301 379.812 134.282ZM379.812 144.522C381.791 144.511 383.753 144.893 385.584 145.645C387.415 146.398 389.078 147.506 390.478 148.905C391.878 150.304 392.987 151.968 393.739 153.798C394.492 155.629 394.875 157.591 394.865 159.57C394.876 161.55 394.494 163.512 393.741 165.343C392.988 167.174 391.88 168.838 390.48 170.238C389.08 171.638 387.416 172.746 385.585 173.499C383.754 174.252 381.792 174.634 379.812 174.623C377.832 174.634 375.87 174.252 374.039 173.499C372.207 172.746 370.544 171.638 369.144 170.238C367.744 168.838 366.635 167.174 365.883 165.343C365.13 163.512 364.748 161.55 364.759 159.57C364.748 157.59 365.13 155.628 365.883 153.797C366.635 151.965 367.744 150.302 369.144 148.902C370.544 147.502 372.207 146.393 374.039 145.641C375.87 144.888 377.832 144.511 379.812 144.522ZM109.332 293.012C102.631 293.031 96.2095 295.702 91.4705 300.44C86.7314 305.178 84.0599 311.599 84.0397 318.3C84.0586 325.002 86.7294 331.425 91.4687 336.164C96.2079 340.903 102.63 343.574 109.332 343.593C123.238 343.593 134.625 332.206 134.625 318.3C134.625 304.394 123.238 293.012 109.332 293.012ZM109.332 303.252C117.704 303.252 124.385 309.924 124.385 318.3C124.385 326.676 117.704 333.353 109.332 333.353C107.353 333.364 105.39 332.982 103.559 332.229C101.728 331.477 100.064 330.368 98.6643 328.968C97.2644 327.568 96.156 325.905 95.4034 324.073C94.6508 322.242 94.2688 320.28 94.2797 318.3C94.2688 316.32 94.6508 314.358 95.4034 312.527C96.156 310.696 97.2644 309.032 98.6643 307.632C100.064 306.232 101.728 305.124 103.559 304.371C105.39 303.618 107.353 303.242 109.332 303.252ZM245.76 376.934C231.854 376.934 220.467 388.321 220.467 402.227C220.467 416.133 231.859 427.52 245.76 427.52C259.661 427.52 271.053 416.138 271.053 402.227C271.053 388.316 259.666 376.934 245.76 376.934ZM245.76 387.174C254.136 387.174 260.813 393.856 260.813 402.227C260.813 410.598 254.131 417.28 245.76 417.28C237.389 417.28 230.707 410.603 230.707 402.227C230.707 393.851 237.384 387.174 245.76 387.174ZM382.188 291.589C368.282 291.589 356.895 302.981 356.895 316.892C356.895 330.803 368.282 342.18 382.188 342.18C396.099 342.18 407.48 330.798 407.48 316.887C407.48 302.976 396.099 291.589 382.188 291.589ZM382.188 301.829C390.564 301.829 397.24 308.516 397.24 316.892C397.24 325.268 390.564 331.94 382.188 331.94C373.816 331.94 367.135 325.263 367.135 316.887C367.135 308.511 373.816 301.829 382.188 301.829ZM412.298 71.9821L401.398 82.8774C400.922 83.3529 400.544 83.9176 400.286 84.5392C400.029 85.1607 399.896 85.827 399.896 86.4998C399.896 87.1727 400.029 87.8389 400.286 88.4605C400.544 89.0821 400.922 89.6467 401.398 90.1222C401.873 90.5983 402.438 90.9759 403.059 91.2336C403.681 91.4912 404.347 91.6239 405.02 91.6239C405.693 91.6239 406.359 91.4912 406.981 91.2336C407.602 90.9759 408.167 90.5983 408.643 90.1222L419.538 79.2166C420.496 78.2567 421.034 76.9557 421.034 75.5994C421.034 74.243 420.496 72.942 419.538 71.9821C418.578 71.0222 417.276 70.483 415.918 70.483C414.56 70.483 413.258 71.0222 412.298 71.9821ZM86.5024 399.898C85.1446 399.898 83.8425 400.438 82.8826 401.398L71.977 412.303C71.0187 413.263 70.4804 414.564 70.4804 415.921C70.4804 417.277 71.0187 418.578 71.977 419.538C72.4525 420.014 73.0171 420.392 73.6387 420.649C74.2603 420.907 74.9265 421.04 75.5994 421.04C76.2722 421.04 76.9385 420.907 77.56 420.649C78.1816 420.392 78.7462 420.014 79.2218 419.538L90.1222 408.637C91.0821 407.677 91.6213 406.375 91.6213 405.018C91.6213 403.66 91.0821 402.358 90.1222 401.398C89.1623 400.438 87.8602 399.898 86.5024 399.898ZM470.989 240.64C469.631 240.64 468.329 241.179 467.368 242.14C466.408 243.1 465.869 244.402 465.869 245.76C465.869 247.118 466.408 248.42 467.368 249.38C468.329 250.341 469.631 250.88 470.989 250.88H486.4C487.758 250.88 489.06 250.341 490.02 249.38C490.981 248.42 491.52 247.118 491.52 245.76C491.52 244.402 490.981 243.1 490.02 242.14C489.06 241.179 487.758 240.64 486.4 240.64H470.989ZM5.12 240.64C3.76209 240.64 2.4598 241.179 1.49961 242.14C0.539427 243.1 0 244.402 0 245.76C0 247.118 0.539427 248.42 1.49961 249.38C2.4598 250.341 3.76209 250.88 5.12 250.88H20.5312C21.8891 250.88 23.1914 250.341 24.1516 249.38C25.1118 248.42 25.6512 247.118 25.6512 245.76C25.6512 244.402 25.1118 243.1 24.1516 242.14C23.1914 241.179 21.8891 240.64 20.5312 240.64H5.12ZM245.76 0C244.402 0 243.1 0.539427 242.14 1.49961C241.179 2.4598 240.64 3.76209 240.64 5.12V20.5312C240.64 21.8891 241.179 23.1914 242.14 24.1516C243.1 25.1118 244.402 25.6512 245.76 25.6512C247.118 25.6512 248.42 25.1118 249.38 24.1516C250.341 23.1914 250.88 21.8891 250.88 20.5312V5.12C250.88 3.76209 250.341 2.4598 249.38 1.49961C248.42 0.539427 247.118 0 245.76 0ZM245.76 465.869C244.402 465.869 243.1 466.408 242.14 467.368C241.179 468.329 240.64 469.631 240.64 470.989V486.4C240.64 487.758 241.179 489.06 242.14 490.02C243.1 490.981 244.402 491.52 245.76 491.52C247.118 491.52 248.42 490.981 249.38 490.02C250.341 489.06 250.88 487.758 250.88 486.4V470.989C250.88 469.631 250.341 468.329 249.38 467.368C248.42 466.408 247.118 465.869 245.76 465.869ZM401.398 401.398C400.922 401.873 400.544 402.438 400.286 403.059C400.029 403.681 399.896 404.347 399.896 405.02C399.896 405.693 400.029 406.359 400.286 406.981C400.544 407.602 400.922 408.167 401.398 408.643L412.303 419.538C413.263 420.496 414.564 421.034 415.921 421.034C417.277 421.034 418.578 420.496 419.538 419.538C420.498 418.578 421.037 417.276 421.037 415.918C421.037 414.56 420.498 413.258 419.538 412.298L408.637 401.398C407.677 400.438 406.375 399.899 405.018 399.899C403.66 399.899 402.358 400.438 401.398 401.398ZM75.6019 70.4819C74.2441 70.4822 72.942 71.0218 71.9821 71.9821C71.0222 72.9422 70.483 74.2443 70.483 75.6019C70.483 76.9596 71.0222 78.2616 71.9821 79.2218L82.8774 90.1222C83.3529 90.5983 83.9176 90.9759 84.5392 91.2336C85.1607 91.4912 85.827 91.6239 86.4998 91.6239C87.1727 91.6239 87.8389 91.4912 88.4605 91.2336C89.0821 90.9759 89.6467 90.5983 90.1222 90.1222C91.0821 89.1621 91.6213 87.86 91.6213 86.5024C91.6213 85.1448 91.0821 83.8427 90.1222 82.8826L79.2166 71.977C78.2571 71.0198 76.9572 70.4822 75.6019 70.4819Z" fill="url(#paint6_linear_768_30)"/>
<defs>
<linearGradient id="paint0_linear_768_30" x1="120.782" y1="81.3268" x2="256.254" y2="284.481" gradientUnits="userSpaceOnUse">
<stop stop-color="#8705FF"/>
<stop offset="1" stop-color="#CC00FF"/>
</linearGradient>
<linearGradient id="paint1_linear_768_30" x1="103.612" y1="167.808" x2="313.389" y2="416.207" gradientUnits="userSpaceOnUse">
<stop stop-color="#8705FF"/>
<stop offset="1" stop-color="#CC00FF"/>
</linearGradient>
<linearGradient id="paint2_linear_768_30" x1="103.612" y1="167.808" x2="313.389" y2="416.207" gradientUnits="userSpaceOnUse">
<stop stop-color="#8705FF"/>
<stop offset="1" stop-color="#CC00FF"/>
</linearGradient>
<linearGradient id="paint3_linear_768_30" x1="120.782" y1="81.3268" x2="256.254" y2="284.481" gradientUnits="userSpaceOnUse">
<stop stop-color="#8705FF"/>
<stop offset="1" stop-color="#CC00FF"/>
</linearGradient>
<linearGradient id="paint4_linear_768_30" x1="159.381" y1="140.489" x2="340.017" y2="291.123" gradientUnits="userSpaceOnUse">
<stop stop-color="#8705FF"/>
<stop offset="1" stop-color="#CC00FF"/>
</linearGradient>
<linearGradient id="paint5_linear_768_30" x1="83.6504" y1="52.519" x2="342.489" y2="190.975" gradientUnits="userSpaceOnUse">
<stop stop-color="#8705FF"/>
<stop offset="1" stop-color="#CC00FF"/>
</linearGradient>
<linearGradient id="paint6_linear_768_30" x1="-1.02399" y1="5.63194" x2="450.556" y2="442.88" gradientUnits="userSpaceOnUse">
<stop stop-color="#8705FF"/>
<stop offset="1" stop-color="#CC00FF"/>
</linearGradient>
</defs>
</svg>
