<svg xmlns="http://www.w3.org/2000/svg" version="1.1" xmlns:xlink="http://www.w3.org/1999/xlink" width="512" height="512" x="0" y="0" viewBox="0 0 512 512" style="enable-background:new 0 0 512 512" xml:space="preserve"><g><linearGradient id="a"><stop offset="0" stop-color="#43386b"></stop><stop offset="1" stop-color="#594a8e"></stop></linearGradient><linearGradient xlink:href="#a" id="i" x1="178.968" x2="344.894" y1="423.619" y2="423.619" gradientUnits="userSpaceOnUse"></linearGradient><linearGradient id="b"><stop offset="0" stop-color="#c5baeb"></stop><stop offset="1" stop-color="#d7d1eb"></stop></linearGradient><linearGradient xlink:href="#b" id="j" x1="178.968" x2="344.894" y1="455.932" y2="455.932" gradientUnits="userSpaceOnUse"></linearGradient><linearGradient id="c"><stop offset="0" stop-color="#43386b"></stop><stop offset="1" stop-color="#43386b" stop-opacity="0"></stop></linearGradient><linearGradient xlink:href="#c" id="k" x1="103.067" x2="160.1" y1="412.405" y2="511.19" gradientUnits="userSpaceOnUse"></linearGradient><linearGradient xlink:href="#b" id="l" x1="174.203" x2="343.457" y1="393.227" y2="393.227" gradientUnits="userSpaceOnUse"></linearGradient><linearGradient id="m" x1="261.312" x2="261.312" y1="464.317" y2="251.699" gradientUnits="userSpaceOnUse"><stop offset="0" stop-color="#7662bd"></stop><stop offset="1" stop-color="#a996eb"></stop></linearGradient><linearGradient xlink:href="#a" id="n" x1="350.8" x2="60.023" y1="403.362" y2="232.126" gradientUnits="userSpaceOnUse"></linearGradient><linearGradient xlink:href="#a" id="o" x1="315.023" x2="202.999" y1="317.801" y2="317.801" gradientUnits="userSpaceOnUse"></linearGradient><linearGradient xlink:href="#a" id="p" x1="171.788" x2="276.612" y1="382.908" y2="382.908" gradientUnits="userSpaceOnUse"></linearGradient><linearGradient id="d"><stop offset="0" stop-color="#f2effa"></stop><stop offset="1" stop-color="#fff"></stop></linearGradient><linearGradient xlink:href="#d" id="q" x1="129.408" x2="129.408" y1="103.194" y2="-95.434" gradientTransform="rotate(30 -455.35 428.69) skewX(-30)" gradientUnits="userSpaceOnUse"></linearGradient><linearGradient xlink:href="#d" id="r" x1="127.897" x2="127.897" y1="84.292" y2="-68.222" gradientTransform="rotate(30 -455.35 428.69) skewX(-30)" gradientUnits="userSpaceOnUse"></linearGradient><linearGradient xlink:href="#d" id="s" x1="128.81" x2="128.81" y1="-111.789" y2="-138.06" gradientTransform="rotate(30 -455.35 428.69) skewX(-30)" gradientUnits="userSpaceOnUse"></linearGradient><linearGradient xlink:href="#d" id="t" x1="16.284" x2="16.284" y1="-27.787" y2="-94.959" gradientTransform="rotate(30 -455.35 428.69) skewX(-30)" gradientUnits="userSpaceOnUse"></linearGradient><linearGradient xlink:href="#d" id="u" x1="15.579" x2="15.579" y1="103.81" y2="36.406" gradientTransform="rotate(30 -455.35 428.69) skewX(-30)" gradientUnits="userSpaceOnUse"></linearGradient><linearGradient xlink:href="#d" id="v" x1="126.983" x2="126.983" y1="145.412" y2="119.141" gradientTransform="rotate(30 -455.35 428.69) skewX(-30)" gradientUnits="userSpaceOnUse"></linearGradient><linearGradient xlink:href="#b" id="w" x1="178.968" x2="344.895" y1="476.419" y2="476.419" gradientUnits="userSpaceOnUse"></linearGradient><linearGradient xlink:href="#d" id="x" x1="239.509" x2="239.509" y1="105.136" y2="37.963" gradientTransform="rotate(30 -455.35 428.69) skewX(-30)" gradientUnits="userSpaceOnUse"></linearGradient><linearGradient xlink:href="#d" id="y" x1="236.767" x2="236.767" y1="-26.024" y2="-101.165" gradientTransform="rotate(30 -455.35 428.69) skewX(-30)" gradientUnits="userSpaceOnUse"></linearGradient><linearGradient id="z" x1="135.671" x2="24.011" y1="395.431" y2="459.898" gradientUnits="userSpaceOnUse"><stop offset=".032" stop-color="#45356d"></stop><stop offset="1" stop-color="#45356d" stop-opacity="0"></stop></linearGradient><linearGradient id="e"><stop offset="0" stop-color="#00395e"></stop><stop offset="1" stop-color="#0072bc"></stop></linearGradient><linearGradient xlink:href="#e" id="A" x1="152.97" x2="318.896" y1="363.363" y2="363.363" gradientUnits="userSpaceOnUse"></linearGradient><linearGradient xlink:href="#b" id="B" x1="152.97" x2="318.896" y1="395.675" y2="395.675" gradientUnits="userSpaceOnUse"></linearGradient><linearGradient xlink:href="#c" id="C" x1="66.917" x2="129" y1="318.85" y2="426.38" gradientUnits="userSpaceOnUse"></linearGradient><linearGradient xlink:href="#b" id="D" x1="148.204" x2="317.459" y1="332.97" y2="332.97" gradientUnits="userSpaceOnUse"></linearGradient><linearGradient id="E" x1="235.314" x2="235.314" y1="404.061" y2="191.443" gradientUnits="userSpaceOnUse"><stop offset="0" stop-color="#0072bc"></stop><stop offset="1" stop-color="#2f97f7"></stop></linearGradient><linearGradient xlink:href="#e" id="F" x1="324.802" x2="34.025" y1="343.105" y2="171.87" gradientUnits="userSpaceOnUse"></linearGradient><linearGradient xlink:href="#e" id="G" x1="289.025" x2="177.001" y1="257.544" y2="257.544" gradientUnits="userSpaceOnUse"></linearGradient><linearGradient xlink:href="#e" id="H" x1="145.791" x2="250.614" y1="322.651" y2="322.651" gradientUnits="userSpaceOnUse"></linearGradient><linearGradient xlink:href="#d" id="I" x1="54.142" x2="54.142" y1="64.012" y2="-134.616" gradientTransform="rotate(30 -455.35 428.69) skewX(-30)" gradientUnits="userSpaceOnUse"></linearGradient><linearGradient xlink:href="#d" id="J" x1="52.631" x2="52.631" y1="45.11" y2="-107.404" gradientTransform="rotate(30 -455.35 428.69) skewX(-30)" gradientUnits="userSpaceOnUse"></linearGradient><linearGradient xlink:href="#d" id="K" x1="53.545" x2="53.545" y1="-150.971" y2="-177.242" gradientTransform="rotate(30 -455.35 428.69) skewX(-30)" gradientUnits="userSpaceOnUse"></linearGradient><linearGradient xlink:href="#d" id="L" x1="-58.981" x2="-58.981" y1="-66.969" y2="-134.141" gradientTransform="rotate(30 -455.35 428.69) skewX(-30)" gradientUnits="userSpaceOnUse"></linearGradient><linearGradient xlink:href="#d" id="M" x1="-59.686" x2="-59.686" y1="64.628" y2="-2.776" gradientTransform="rotate(30 -455.35 428.69) skewX(-30)" gradientUnits="userSpaceOnUse"></linearGradient><linearGradient xlink:href="#d" id="N" x1="51.717" x2="51.717" y1="106.23" y2="79.959" gradientTransform="rotate(30 -455.35 428.69) skewX(-30)" gradientUnits="userSpaceOnUse"></linearGradient><linearGradient xlink:href="#b" id="O" x1="152.97" x2="318.897" y1="416.162" y2="416.162" gradientUnits="userSpaceOnUse"></linearGradient><linearGradient xlink:href="#d" id="P" x1="164.244" x2="164.244" y1="65.954" y2="-1.219" gradientTransform="rotate(30 -455.35 428.69) skewX(-30)" gradientUnits="userSpaceOnUse"></linearGradient><linearGradient xlink:href="#d" id="Q" x1="161.501" x2="161.501" y1="-65.206" y2="-140.347" gradientTransform="rotate(30 -455.35 428.69) skewX(-30)" gradientUnits="userSpaceOnUse"></linearGradient><linearGradient xlink:href="#c" id="R" x1="145.924" x2="-7.563" y1="320.465" y2="409.081" gradientUnits="userSpaceOnUse"></linearGradient><linearGradient id="f"><stop offset="0" stop-color="#236568"></stop><stop offset="1" stop-color="#2f878a"></stop></linearGradient><linearGradient xlink:href="#f" id="S" x1="173.06" x2="338.987" y1="306.651" y2="306.651" gradientUnits="userSpaceOnUse"></linearGradient><linearGradient xlink:href="#b" id="T" x1="173.06" x2="338.986" y1="338.963" y2="338.963" gradientUnits="userSpaceOnUse"></linearGradient><linearGradient xlink:href="#c" id="U" x1="61.88" x2="154.38" y1="206.507" y2="366.722" gradientUnits="userSpaceOnUse"></linearGradient><linearGradient xlink:href="#b" id="V" x1="168.295" x2="337.549" y1="276.258" y2="276.258" gradientUnits="userSpaceOnUse"></linearGradient><linearGradient id="W" x1="255.404" x2="255.404" y1="347.349" y2="134.731" gradientUnits="userSpaceOnUse"><stop offset="0" stop-color="#06daae"></stop><stop offset="1" stop-color="#9bf0df"></stop></linearGradient><linearGradient xlink:href="#f" id="X" x1="344.892" x2="54.116" y1="286.393" y2="115.158" gradientUnits="userSpaceOnUse"></linearGradient><linearGradient xlink:href="#f" id="Y" x1="309.115" x2="197.092" y1="200.832" y2="200.832" gradientUnits="userSpaceOnUse"></linearGradient><linearGradient xlink:href="#f" id="Z" x1="165.881" x2="270.705" y1="265.939" y2="265.939" gradientUnits="userSpaceOnUse"></linearGradient><linearGradient xlink:href="#d" id="aa" x1="9.032" x2="9.032" y1="4.856" y2="-193.772" gradientTransform="rotate(30 -455.35 428.69) skewX(-30)" gradientUnits="userSpaceOnUse"></linearGradient><linearGradient xlink:href="#d" id="ab" x1="7.521" x2="7.521" y1="-14.046" y2="-166.56" gradientTransform="rotate(30 -455.35 428.69) skewX(-30)" gradientUnits="userSpaceOnUse"></linearGradient><linearGradient xlink:href="#d" id="ac" x1="8.434" x2="8.434" y1="-210.127" y2="-236.398" gradientTransform="rotate(30 -455.35 428.69) skewX(-30)" gradientUnits="userSpaceOnUse"></linearGradient><linearGradient xlink:href="#d" id="ad" x1="-104.092" x2="-104.092" y1="-126.125" y2="-193.297" gradientTransform="rotate(30 -455.35 428.69) skewX(-30)" gradientUnits="userSpaceOnUse"></linearGradient><linearGradient xlink:href="#d" id="ae" x1="-104.797" x2="-104.797" y1="5.472" y2="-61.932" gradientTransform="rotate(30 -455.35 428.69) skewX(-30)" gradientUnits="userSpaceOnUse"></linearGradient><linearGradient xlink:href="#d" id="af" x1="6.607" x2="6.607" y1="47.074" y2="20.803" gradientTransform="rotate(30 -455.35 428.69) skewX(-30)" gradientUnits="userSpaceOnUse"></linearGradient><linearGradient xlink:href="#b" id="ag" x1="173.061" x2="338.987" y1="359.45" y2="359.45" gradientUnits="userSpaceOnUse"></linearGradient><linearGradient xlink:href="#d" id="ah" x1="119.133" x2="119.133" y1="6.798" y2="-60.375" gradientTransform="rotate(30 -455.35 428.69) skewX(-30)" gradientUnits="userSpaceOnUse"></linearGradient><linearGradient xlink:href="#d" id="ai" x1="116.39" x2="116.39" y1="-124.362" y2="-199.503" gradientTransform="rotate(30 -455.35 428.69) skewX(-30)" gradientUnits="userSpaceOnUse"></linearGradient><linearGradient xlink:href="#c" id="aj" x1="222.925" x2="-59.17" y1="231.793" y2="394.66" gradientUnits="userSpaceOnUse"></linearGradient><linearGradient id="g"><stop offset="0" stop-color="#ffa538"></stop><stop offset="1" stop-color="#ffc538"></stop></linearGradient><linearGradient xlink:href="#g" id="ak" x1="194.327" x2="360.254" y1="246.394" y2="246.394" gradientUnits="userSpaceOnUse"></linearGradient><linearGradient xlink:href="#b" id="al" x1="194.327" x2="360.253" y1="278.707" y2="278.707" gradientUnits="userSpaceOnUse"></linearGradient><linearGradient xlink:href="#c" id="am" x1="94.044" x2="144.966" y1="205.656" y2="293.854" gradientUnits="userSpaceOnUse"></linearGradient><linearGradient xlink:href="#b" id="an" x1="189.562" x2="358.816" y1="216.002" y2="216.002" gradientUnits="userSpaceOnUse"></linearGradient><linearGradient id="ao" x1="276.671" x2="276.671" y1="287.092" y2="74.474" gradientUnits="userSpaceOnUse"><stop offset="0" stop-color="#f7e041"></stop><stop offset="1" stop-color="#fcf3b3"></stop></linearGradient><linearGradient xlink:href="#g" id="ap" x1="366.159" x2="75.383" y1="226.137" y2="54.901" gradientUnits="userSpaceOnUse"></linearGradient><linearGradient xlink:href="#g" id="aq" x1="330.382" x2="218.359" y1="140.575" y2="140.575" gradientUnits="userSpaceOnUse"></linearGradient><linearGradient xlink:href="#g" id="ar" x1="187.148" x2="291.972" y1="205.682" y2="205.682" gradientUnits="userSpaceOnUse"></linearGradient><linearGradient xlink:href="#d" id="as" x1="-38.944" x2="-38.944" y1="-57.958" y2="-256.586" gradientTransform="rotate(30 -455.35 428.69) skewX(-30)" gradientUnits="userSpaceOnUse"></linearGradient><linearGradient xlink:href="#d" id="at" x1="-40.455" x2="-40.455" y1="-76.86" y2="-229.374" gradientTransform="rotate(30 -455.35 428.69) skewX(-30)" gradientUnits="userSpaceOnUse"></linearGradient><linearGradient xlink:href="#d" id="au" x1="-39.541" x2="-39.541" y1="-272.941" y2="-299.212" gradientTransform="rotate(30 -455.35 428.69) skewX(-30)" gradientUnits="userSpaceOnUse"></linearGradient><linearGradient xlink:href="#d" id="av" x1="-152.068" x2="-152.068" y1="-188.939" y2="-256.111" gradientTransform="rotate(30 -455.35 428.69) skewX(-30)" gradientUnits="userSpaceOnUse"></linearGradient><linearGradient xlink:href="#d" id="aw" x1="-152.773" x2="-152.773" y1="-57.342" y2="-124.746" gradientTransform="rotate(30 -455.35 428.69) skewX(-30)" gradientUnits="userSpaceOnUse"></linearGradient><linearGradient xlink:href="#d" id="ax" x1="-41.369" x2="-41.369" y1="-15.74" y2="-42.011" gradientTransform="rotate(30 -455.35 428.69) skewX(-30)" gradientUnits="userSpaceOnUse"></linearGradient><linearGradient xlink:href="#b" id="ay" x1="194.328" x2="360.254" y1="299.194" y2="299.194" gradientUnits="userSpaceOnUse"></linearGradient><linearGradient xlink:href="#d" id="az" x1="71.157" x2="71.157" y1="-56.016" y2="-123.189" gradientTransform="rotate(30 -455.35 428.69) skewX(-30)" gradientUnits="userSpaceOnUse"></linearGradient><linearGradient xlink:href="#d" id="aA" x1="68.415" x2="68.415" y1="-187.176" y2="-262.317" gradientTransform="rotate(30 -455.35 428.69) skewX(-30)" gradientUnits="userSpaceOnUse"></linearGradient><linearGradient xlink:href="#c" id="aB" x1="155.801" x2="78.8" y1="229.713" y2="274.17" gradientUnits="userSpaceOnUse"></linearGradient><linearGradient id="h"><stop offset="0" stop-color="#ab2c37"></stop><stop offset="1" stop-color="#ff4757"></stop></linearGradient><linearGradient xlink:href="#h" id="aC" x1="173.056" x2="338.983" y1="181.411" y2="181.411" gradientUnits="userSpaceOnUse"></linearGradient><linearGradient xlink:href="#b" id="aD" x1="168.29" x2="337.545" y1="151.019" y2="151.019" gradientUnits="userSpaceOnUse"></linearGradient><linearGradient id="aE" x1="255.4" x2="255.4" y1="222.109" y2="9.491" gradientUnits="userSpaceOnUse"><stop offset="0" stop-color="#ff4757"></stop><stop offset="1" stop-color="#ff7a85"></stop></linearGradient><linearGradient xlink:href="#h" id="aF" x1="344.888" x2="54.112" y1="161.154" y2="-10.082" gradientUnits="userSpaceOnUse"></linearGradient><linearGradient xlink:href="#h" id="aG" x1="309.111" x2="197.088" y1="75.592" y2="75.592" gradientUnits="userSpaceOnUse"></linearGradient><linearGradient xlink:href="#h" id="aH" x1="165.877" x2="270.7" y1="140.7" y2="140.7" gradientUnits="userSpaceOnUse"></linearGradient><linearGradient xlink:href="#d" id="aI" x1="-116.207" x2="-116.207" y1="-103.597" y2="-302.224" gradientTransform="rotate(30 -455.35 428.69) skewX(-30)" gradientUnits="userSpaceOnUse"></linearGradient><linearGradient xlink:href="#d" id="aJ" x1="-117.718" x2="-117.718" y1="-122.499" y2="-275.012" gradientTransform="rotate(30 -455.35 428.69) skewX(-30)" gradientUnits="userSpaceOnUse"></linearGradient><linearGradient xlink:href="#d" id="aK" x1="-116.804" x2="-116.804" y1="-318.579" y2="-344.85" gradientTransform="rotate(30 -455.35 428.69) skewX(-30)" gradientUnits="userSpaceOnUse"></linearGradient><linearGradient xlink:href="#d" id="aL" x1="-229.33" x2="-229.33" y1="-234.577" y2="-301.75" gradientTransform="rotate(30 -455.35 428.69) skewX(-30)" gradientUnits="userSpaceOnUse"></linearGradient><linearGradient xlink:href="#d" id="aM" x1="-230.035" x2="-230.035" y1="-102.981" y2="-170.385" gradientTransform="rotate(30 -455.35 428.69) skewX(-30)" gradientUnits="userSpaceOnUse"></linearGradient><linearGradient xlink:href="#b" id="aN" x1="173.056" x2="338.982" y1="213.724" y2="213.724" gradientUnits="userSpaceOnUse"></linearGradient><linearGradient xlink:href="#d" id="aO" x1="-118.632" x2="-118.632" y1="-61.379" y2="-87.65" gradientTransform="rotate(30 -455.35 428.69) skewX(-30)" gradientUnits="userSpaceOnUse"></linearGradient><linearGradient xlink:href="#b" id="aP" x1="173.056" x2="338.983" y1="234.211" y2="234.211" gradientUnits="userSpaceOnUse"></linearGradient><linearGradient xlink:href="#d" id="aQ" x1="-6.105" x2="-6.105" y1="-101.655" y2="-168.827" gradientTransform="rotate(30 -455.35 428.69) skewX(-30)" gradientUnits="userSpaceOnUse"></linearGradient><linearGradient xlink:href="#d" id="aR" x1="-8.848" x2="-8.848" y1="-232.815" y2="-307.956" gradientTransform="rotate(30 -455.35 428.69) skewX(-30)" gradientUnits="userSpaceOnUse"></linearGradient><path fill="url(#i)" d="m154.391 500.652.003.002c27.888 8.744 60.054 12.389 92.859 11.09l.013-.005 94.399-17.796.106-.01c15.023-5.312 29.346-11.778 42.529-19.389 12.561-7.252 23.314-15.103 32.261-23.33l32.617-115.977-375.717 30.407v53.955l.006-.001c.131 15.702 6.274 30.94 18.565 44.491z" opacity="1" data-original="url(#i)"></path><path fill="url(#j)" d="M92.032 464.089c7.056 7.78 16.132 15.006 27.278 21.441 10.578 6.107 22.387 11.142 35.081 15.122v-52.874l-62.359-36.566z" opacity="1" data-original="url(#j)"></path><path fill="url(#k)" d="M73.461 418.82v.779l.006-.001c.197 23.492 13.837 45.946 41.426 63.262l53.892-31.115-62.788-88.734-32.536 2.633z" opacity="1" data-original="url(#k)"></path><path fill="url(#l)" d="M416.561 451.216c21.684-19.939 32.69-42.107 32.613-63.438h.004v-52.539l-32.617 63.108z" opacity="1" data-original="url(#l)"></path><path fill="url(#m)" d="m430.594 290.117-62.35-36.562c-27.892-8.746-60.064-12.391-92.874-11.091l-94.399 17.772c-15.062 5.319-29.421 11.798-42.635 19.427-12.558 7.251-23.315 15.099-32.261 23.324L74.098 357.35c-2.684 18.974 3.214 37.629 17.939 53.865l62.354 36.563c27.892 8.746 60.064 12.391 92.874 11.091l94.399-17.772c15.062-5.32 29.421-11.798 42.636-19.427 12.559-7.251 23.315-15.099 32.261-23.324l32.593-63.061c.042-15.941-6.095-31.422-18.56-45.168z" opacity="1" data-original="url(#m)"></path><path fill="url(#n)" d="M365.221 290.677c-49.697-28.692-136.503-25.094-193.888 8.037s-63.617 83.249-13.92 111.941 136.503 25.094 193.888-8.037c57.385-33.13 63.617-83.248 13.92-111.941zm-27.571 104.06c-48.679 28.105-122.316 31.157-164.473 6.818-42.157-24.34-36.87-66.854 11.809-94.959s122.316-31.157 164.473-6.818c42.156 24.34 36.869 66.854-11.809 94.959z" opacity="1" data-original="url(#n)"></path><path fill="url(#o)" d="M171.333 303.247c57.385-33.131 144.191-36.729 193.888-8.037 21.583 12.461 32.603 28.965 33.479 46.362.954-19.044-10.029-37.355-33.479-50.894-49.697-28.692-136.503-25.094-193.888 8.037-32.462 18.742-48.541 42.919-47.4 65.579 1.069-21.315 17.094-43.55 47.4-61.047z" opacity="1" data-original="url(#o)"></path><path fill="url(#p)" d="M173.176 406.087c42.157 24.339 115.794 21.287 164.473-6.818 27.702-15.993 41.329-36.651 40.18-55.973-1.061 17.976-14.635 36.692-40.18 51.44-48.679 28.105-122.316 31.157-164.473 6.818-18.167-10.489-27.501-24.355-28.371-38.986-.961 16.279 8.337 31.952 28.371 43.519z" opacity="1" data-original="url(#p)"></path><path fill="url(#q)" d="m169.936 413.873 6.594-4.443c5.411 2.542 11.325 4.763 17.577 6.603l-5.223 4.957c-6.741-1.983-13.116-4.377-18.948-7.117zm-15.847-9.199c-4.713-3.383-8.826-7.077-12.228-10.982l8.606-2.993c3.155 3.621 6.971 7.049 11.344 10.187zm56.232 21.081 3.668-5.303c6.916 1.087 14.151 1.789 21.503 2.088l-1.999 5.465c-7.921-.322-15.718-1.079-23.172-2.25zm-76.6-44.468c-1.99-4.312-3.263-8.819-3.783-13.395l9.469-1.129c.483 4.248 1.663 8.429 3.51 12.43zm123.88 46.395.27-5.442a217.816 217.816 0 0 0 22.493-2.672l1.471 5.235a234.855 234.855 0 0 1-24.234 2.879zm-126.989-73.716c.966-4.675 2.682-9.381 5.097-13.988l9.055.874c-2.243 4.276-3.835 8.644-4.732 12.984zm174.764 65.488-3.173-4.849c7.073-2.017 13.95-4.405 20.439-7.098l4.772 4.292c-6.997 2.905-14.412 5.48-22.038 7.655zm-160.291-93.056c3.801-4.395 8.294-8.666 13.354-12.695l7.406 2.778c-4.692 3.737-8.86 7.698-12.385 11.774zm202.112 75.714-6.212-3.586.305-.176c5.703-3.293 10.958-6.85 15.619-10.572l7.417 2.77c-5.022 4.011-10.682 7.842-16.824 11.389zM181.493 305.92l-6.202-3.592c6.148-3.54 12.792-6.803 19.749-9.698l4.784 4.287c-6.455 2.687-12.623 5.716-18.331 9.003zm187.772 70.075c3.512-4.076 6.428-8.316 8.664-12.602l9.059.866c-2.41 4.62-5.553 9.19-9.34 13.584zm-149.016-86.194-3.186-4.844a225.695 225.695 0 0 1 23.531-5.37l1.485 5.233a208.894 208.894 0 0 0-21.83 4.981zm162.377 60.607c.884-4.336 1.082-8.684.589-12.926l9.468-1.136c.53 4.568.318 9.253-.634 13.923zm-118.056-68.28.255-5.441a227.048 227.048 0 0 1 24.113-.345l-1.984 5.465a210.922 210.922 0 0 0-22.384.321zm115.099 42.929c-1.862-4.005-4.413-7.873-7.583-11.496l8.599-3.001c3.419 3.908 6.169 8.078 8.177 12.396zm-71.202-41.182 3.654-5.305c7.475 1.166 14.694 2.762 21.455 4.743l-5.21 4.961c-6.271-1.838-12.966-3.318-19.899-4.399zm52.243 19.512c-4.351-3.112-9.364-6.011-14.743-8.528l6.582-4.448c5.792 2.71 11.187 5.83 15.874 9.182z" opacity="1" data-original="url(#q)"></path><path fill="url(#r)" d="M328.696 389.568c42.969-24.808 47.636-62.336 10.423-83.82-37.212-21.484-102.212-18.79-145.181 6.018s-47.636 62.336-10.423 83.82c37.212 21.484 102.212 18.79 145.181-6.018z" opacity="1" data-original="url(#r)"></path><path fill="url(#s)" d="M403.325 268.678c-10.578-6.107-22.387-11.143-35.081-15.124l-8.052 4.649c-7.902 4.562-8.76 11.464-1.917 15.415l38.065 21.977c6.843 3.951 18.797 3.456 26.699-1.107l7.564-4.367c-7.058-7.78-16.132-15.007-27.278-21.443z" opacity="1" data-original="url(#s)"></path><path fill="url(#t)" d="m180.97 260.236 2.012 5.808c1.976 5.703 11.898 8.725 22.164 6.749l57.098-10.988c10.265-1.976 16.985-8.2 15.009-13.903l-1.883-5.437c-31.988 1.267-64.577 7.238-94.4 17.771z" opacity="1" data-original="url(#t)"></path><path fill="url(#u)" d="M127.221 316.875c3.422-5.927-1.812-11.656-11.689-12.796l-9.458-1.092c-18.625 17.124-29.362 35.892-31.975 54.363l10.009 1.156c9.878 1.141 20.659-2.739 24.081-8.666z" opacity="1" data-original="url(#u)"></path><path fill="url(#v)" d="m164.36 427.715-38.065-21.977c-6.843-3.951-18.797-3.456-26.699 1.107l-7.564 4.367c7.058 7.78 16.132 15.008 27.278 21.443 10.578 6.107 22.387 11.143 35.081 15.124l8.052-4.649c7.902-4.563 8.76-11.464 1.917-15.415z" opacity="1" data-original="url(#v)"></path><path fill="url(#w)" d="M247.265 511.74c31.992-1.267 64.572-7.26 94.399-17.796v-52.847l-94.399 17.772z" opacity="1" data-original="url(#w)"></path><path fill="url(#x)" d="M339.652 435.29c-1.975-5.703-11.899-8.724-22.164-6.749l-57.098 10.988c-10.265 1.975-16.985 8.2-15.01 13.903l1.883 5.437c31.987-1.268 64.576-7.239 94.399-17.772z" opacity="1" data-original="url(#x)"></path><path fill="url(#y)" d="m449.178 335.238-8.536-.528c-9.878-1.141-20.659 2.739-24.081 8.666l-21.147 41.081c-3.422 5.927 1.812 11.656 11.69 12.796l9.458 1.092c18.624-17.123 31.646-42.652 32.616-63.107z" opacity="1" data-original="url(#y)"></path><path fill="url(#z)" d="M119.309 432.654c14.479 8.359 31.268 14.706 49.476 19.091h38.47V326.433H86.058c-24.162 37.823-13.81 79.05 33.251 106.221z" opacity="1" data-original="url(#z)"></path><path fill="url(#A)" d="m128.393 440.395.003.002c27.888 8.744 60.054 12.389 92.859 11.09l.013-.005 94.399-17.796.106-.01c15.023-5.312 29.346-11.778 42.529-19.389 12.561-7.252 23.314-15.103 32.261-23.33L423.18 274.98 47.463 305.387v53.955h.006c.132 15.702 6.274 30.94 18.565 44.491z" opacity="1" data-original="url(#A)"></path><path fill="url(#B)" d="M66.034 403.833c7.056 7.78 16.132 15.006 27.278 21.441 10.577 6.107 22.387 11.141 35.081 15.122v-52.874l-62.359-36.566z" opacity="1" data-original="url(#B)"></path><path fill="url(#C)" d="M47.468 358.563v.778h.006c.207 24.717 15.284 48.288 45.842 65.931a151.438 151.438 0 0 0 6.486 3.533l58.95-34.035-50.373-94.311-60.91 4.929v53.175z" opacity="1" data-original="url(#C)"></path><path fill="url(#D)" d="M390.563 390.959c21.684-19.939 32.69-42.106 32.613-63.438h.004v-52.539l-32.617 63.108z" opacity="1" data-original="url(#D)"></path><path fill="url(#E)" d="m404.596 229.86-62.351-36.561c-27.892-8.746-60.064-12.391-92.874-11.091l-94.399 17.771c-15.062 5.32-29.421 11.798-42.635 19.427-12.558 7.251-23.315 15.098-32.261 23.324L48.1 297.094c-2.684 18.974 3.214 37.629 17.939 53.865l62.354 36.563c27.892 8.746 60.064 12.391 92.874 11.091l94.399-17.771c15.062-5.32 29.421-11.798 42.636-19.427 12.559-7.251 23.315-15.099 32.261-23.324l32.593-63.061c.042-15.943-6.095-31.424-18.56-45.17z" opacity="1" data-original="url(#E)"></path><path fill="url(#F)" d="M339.224 230.421c-49.697-28.692-136.503-25.094-193.888 8.037s-63.617 83.249-13.921 111.941c49.697 28.692 136.503 25.094 193.888-8.037s63.617-83.249 13.921-111.941zM311.652 334.48c-48.679 28.105-122.316 31.157-164.473 6.818-42.157-24.34-36.87-66.854 11.809-94.959s122.316-31.157 164.473-6.818 36.87 66.855-11.809 94.959z" opacity="1" data-original="url(#F)"></path><path fill="url(#G)" d="M145.336 242.99c57.385-33.131 144.191-36.729 193.888-8.037 21.583 12.461 32.603 28.965 33.479 46.362.954-19.044-10.029-37.355-33.479-50.894-49.697-28.692-136.503-25.094-193.888 8.037-32.462 18.742-48.541 42.919-47.4 65.579 1.068-21.315 17.093-43.549 47.4-61.047z" opacity="1" data-original="url(#G)"></path><path fill="url(#H)" d="M147.178 345.83c42.157 24.339 115.794 21.287 164.473-6.818 27.702-15.993 41.329-36.651 40.18-55.973-1.061 17.976-14.635 36.692-40.18 51.44-48.679 28.105-122.316 31.157-164.473 6.818-18.167-10.489-27.501-24.355-28.371-38.986-.96 16.28 8.337 31.953 28.371 43.519z" opacity="1" data-original="url(#H)"></path><path fill="url(#I)" d="m143.938 353.617 6.594-4.443c5.411 2.542 11.325 4.763 17.577 6.603l-5.223 4.957c-6.741-1.983-13.115-4.378-18.948-7.117zm-15.847-9.199c-4.713-3.383-8.826-7.077-12.228-10.982l8.606-2.993c3.155 3.622 6.971 7.049 11.344 10.187zm56.232 21.081 3.668-5.303c6.916 1.086 14.151 1.789 21.503 2.088l-1.999 5.465c-7.921-.322-15.718-1.08-23.172-2.25zm-76.6-44.469c-1.99-4.312-3.263-8.819-3.783-13.395l9.469-1.129c.483 4.247 1.663 8.429 3.51 12.43zm123.88 46.396.27-5.442a217.816 217.816 0 0 0 22.493-2.672l1.471 5.235a235.065 235.065 0 0 1-24.234 2.879zm-126.989-73.717c.966-4.675 2.681-9.381 5.097-13.989l9.054.874c-2.243 4.276-3.835 8.644-4.732 12.984zm174.764 65.489-3.172-4.849c7.073-2.017 13.95-4.405 20.439-7.098l4.772 4.293c-6.997 2.904-14.413 5.479-22.039 7.654zm-160.291-93.056c3.801-4.395 8.294-8.666 13.354-12.695l7.406 2.777c-4.692 3.737-8.86 7.698-12.385 11.774zm202.112 75.713-6.212-3.587.305-.176c5.704-3.293 10.958-6.85 15.619-10.572l7.417 2.77c-5.022 4.011-10.682 7.843-16.824 11.388zm-165.704-96.191-6.202-3.592c6.148-3.54 12.792-6.803 19.749-9.698l4.784 4.287c-6.455 2.686-12.623 5.715-18.331 9.003zm187.772 70.074c3.512-4.076 6.428-8.316 8.664-12.602l9.059.866c-2.41 4.62-5.553 9.19-9.34 13.584zm-149.016-86.194-3.186-4.844a225.695 225.695 0 0 1 23.531-5.37l1.485 5.233a209.403 209.403 0 0 0-21.83 4.981zm162.377 60.607c.884-4.336 1.082-8.684.589-12.926l9.468-1.136c.53 4.568.318 9.253-.634 13.923zm-118.056-68.28.255-5.441a227.048 227.048 0 0 1 24.113-.345l-1.984 5.465a210.922 210.922 0 0 0-22.384.321zm115.099 42.93c-1.861-4.005-4.413-7.873-7.583-11.496l8.599-3.001c3.419 3.908 6.169 8.078 8.177 12.396zm-71.202-41.183 3.654-5.305c7.475 1.166 14.694 2.762 21.455 4.743l-5.21 4.961c-6.27-1.838-12.965-3.317-19.899-4.399zm52.243 19.512c-4.352-3.112-9.364-6.011-14.744-8.528l6.582-4.448c5.792 2.71 11.187 5.83 15.875 9.182z" opacity="1" data-original="url(#I)"></path><path fill="url(#J)" d="M302.698 329.311c42.969-24.808 47.636-62.336 10.424-83.82-37.212-21.485-102.212-18.79-145.181 6.018s-47.636 62.336-10.423 83.82c37.212 21.485 102.211 18.79 145.18-6.018z" opacity="1" data-original="url(#J)"></path><path fill="url(#K)" d="M377.327 208.422c-10.578-6.107-22.387-11.143-35.081-15.124l-8.052 4.649c-7.902 4.562-8.76 11.464-1.917 15.415l38.065 21.977c6.843 3.951 18.797 3.456 26.699-1.107l7.564-4.367c-7.058-7.78-16.132-15.008-27.278-21.443z" opacity="1" data-original="url(#K)"></path><path fill="url(#L)" d="m154.972 199.979 2.012 5.808c1.976 5.703 11.899 8.725 22.164 6.749l57.098-10.988c10.265-1.976 16.985-8.2 15.01-13.903l-1.883-5.437c-31.988 1.267-64.578 7.239-94.401 17.771z" opacity="1" data-original="url(#L)"></path><path fill="url(#M)" d="M101.223 256.619c3.422-5.927-1.812-11.656-11.69-12.796l-9.457-1.092C61.45 259.855 50.713 278.623 48.1 297.094l10.009 1.156c9.878 1.141 20.659-2.739 24.081-8.666z" opacity="1" data-original="url(#M)"></path><path fill="url(#N)" d="m138.362 367.458-38.065-21.977c-6.843-3.951-18.797-3.455-26.699 1.107l-7.564 4.367c7.058 7.78 16.132 15.008 27.278 21.443 10.578 6.107 22.387 11.143 35.081 15.124l8.052-4.649c7.902-4.562 8.76-11.464 1.917-15.415z" opacity="1" data-original="url(#N)"></path><path fill="url(#O)" d="M221.267 451.483c31.992-1.268 64.573-7.26 94.399-17.796V380.84l-94.399 17.772z" opacity="1" data-original="url(#O)"></path><path fill="url(#P)" d="M313.655 375.033c-1.975-5.703-11.898-8.724-22.164-6.749l-57.098 10.988c-10.265 1.975-16.985 8.2-15.01 13.903l1.883 5.437c31.987-1.267 64.576-7.239 94.399-17.771z" opacity="1" data-original="url(#P)"></path><path fill="url(#Q)" d="m423.18 274.982-8.536-.528c-9.878-1.141-20.659 2.739-24.081 8.666l-21.147 41.081c-3.422 5.927 1.812 11.656 11.689 12.796l9.458 1.092c18.625-17.124 31.647-42.652 32.617-63.107z" opacity="1" data-original="url(#Q)"></path><path fill="url(#R)" d="M216.997 221.872s-57.816.347-109.56.464c-73.84 45.26-80.594 111.683-14.121 150.062 18.622 10.751 41.062 18.178 65.436 22.372h66.927z" opacity="1" data-original="url(#R)"></path><path fill="url(#S)" d="m148.483 383.683.003.002c27.888 8.744 60.054 12.389 92.859 11.09l.013-.005 94.399-17.796.106-.01c15.023-5.312 29.346-11.778 42.529-19.389 12.561-7.252 23.314-15.103 32.261-23.33L443.27 218.27 67.553 248.675v53.955h.006c.132 15.702 6.274 30.94 18.565 44.491z" opacity="1" data-original="url(#S)"></path><path fill="url(#T)" d="M86.124 347.12c7.056 7.78 16.132 15.006 27.278 21.441 10.578 6.107 22.387 11.142 35.081 15.122V330.81l-62.359-36.566z" opacity="1" data-original="url(#T)"></path><path fill="url(#U)" d="M67.554 301.851v.778l.006-.001c.197 23.492 13.837 45.946 41.426 63.262l53.892-31.115-21.052-92.112-74.272 6.011z" opacity="1" data-original="url(#U)"></path><path fill="url(#V)" d="M410.653 334.247c21.684-19.939 32.69-42.107 32.613-63.438h.004V218.27l-32.617 63.108z" opacity="1" data-original="url(#V)"></path><path fill="url(#W)" d="m424.687 173.148-62.35-36.561c-27.892-8.746-60.064-12.391-92.874-11.091l-94.399 17.772c-15.062 5.32-29.421 11.798-42.635 19.427-12.558 7.251-23.315 15.099-32.261 23.324l-31.976 54.364c-2.684 18.974 3.214 37.629 17.939 53.865l62.354 36.563c27.892 8.746 60.064 12.391 92.874 11.091l94.399-17.771c15.062-5.32 29.421-11.798 42.636-19.427 12.559-7.251 23.315-15.098 32.261-23.324l32.593-63.061c.04-15.944-6.097-31.425-18.561-45.171z" opacity="1" data-original="url(#W)"></path><path fill="url(#X)" d="M359.314 173.709c-49.697-28.692-136.503-25.094-193.888 8.037s-63.617 83.249-13.92 111.941 136.503 25.094 193.888-8.037c57.384-33.131 63.617-83.249 13.92-111.941zm-27.572 104.059c-48.679 28.105-122.316 31.157-164.473 6.818-42.157-24.34-36.87-66.854 11.809-94.959s122.316-31.157 164.473-6.818c42.157 24.34 36.87 66.855-11.809 94.959z" opacity="1" data-original="url(#X)"></path><path fill="url(#Y)" d="M165.426 186.278c57.385-33.131 144.191-36.729 193.888-8.037 21.583 12.461 32.603 28.965 33.479 46.362.954-19.044-10.029-37.355-33.479-50.894-49.697-28.692-136.503-25.094-193.888 8.037-32.462 18.742-48.541 42.919-47.4 65.579 1.068-21.315 17.093-43.549 47.4-61.047z" opacity="1" data-original="url(#Y)"></path><path fill="url(#Z)" d="M167.269 289.118c42.157 24.339 115.794 21.287 164.473-6.818 27.702-15.993 41.329-36.651 40.18-55.972-1.061 17.976-14.635 36.692-40.18 51.44-48.679 28.105-122.316 31.157-164.473 6.818-18.167-10.489-27.501-24.355-28.371-38.986-.961 16.279 8.336 31.952 28.371 43.518z" opacity="1" data-original="url(#Z)"></path><path fill="url(#aa)" d="m164.028 296.905 6.594-4.443c5.411 2.542 11.325 4.763 17.577 6.603l-5.223 4.957c-6.741-1.983-13.115-4.378-18.948-7.117zm-15.846-9.199c-4.713-3.383-8.826-7.077-12.228-10.982l8.606-2.993c3.155 3.621 6.971 7.049 11.344 10.187zm56.232 21.081 3.668-5.303c6.916 1.086 14.151 1.789 21.503 2.088l-1.999 5.465c-7.922-.322-15.718-1.08-23.172-2.25zm-76.601-44.469c-1.99-4.312-3.263-8.819-3.783-13.395l9.469-1.129c.483 4.248 1.663 8.429 3.51 12.43zm123.88 46.396.27-5.442a217.816 217.816 0 0 0 22.493-2.672l1.471 5.235a235.065 235.065 0 0 1-24.234 2.879zm-126.989-73.717c.966-4.675 2.681-9.381 5.097-13.989l9.055.874c-2.243 4.276-3.835 8.644-4.732 12.984zm174.764 65.489-3.172-4.849c7.073-2.017 13.95-4.405 20.439-7.098l4.772 4.292c-6.997 2.905-14.412 5.48-22.039 7.655zm-160.29-93.056c3.801-4.395 8.294-8.666 13.354-12.695l7.406 2.778c-4.692 3.737-8.86 7.698-12.385 11.774zm202.111 75.713-6.212-3.586.305-.176c5.703-3.293 10.958-6.85 15.619-10.572l7.417 2.77c-5.022 4.011-10.682 7.842-16.824 11.389zm-165.704-96.191-6.202-3.592c6.148-3.54 12.792-6.803 19.749-9.698l4.784 4.287c-6.455 2.686-12.623 5.715-18.331 9.003zm187.772 70.074c3.512-4.076 6.428-8.316 8.664-12.602l9.059.866c-2.41 4.62-5.553 9.19-9.34 13.584zm-149.016-86.194-3.186-4.844a225.695 225.695 0 0 1 23.531-5.37l1.485 5.233a209.461 209.461 0 0 0-21.83 4.981zm162.377 60.607c.884-4.336 1.082-8.684.589-12.926l9.468-1.136c.53 4.568.318 9.253-.634 13.923zm-118.056-68.28.255-5.441a227.048 227.048 0 0 1 24.113-.345l-1.984 5.465a210.922 210.922 0 0 0-22.384.321zm115.099 42.93c-1.862-4.005-4.413-7.873-7.583-11.496l8.599-3.001c3.419 3.908 6.169 8.077 8.177 12.396zm-71.202-41.183 3.654-5.305c7.475 1.166 14.694 2.762 21.455 4.743l-5.21 4.961c-6.27-1.838-12.965-3.317-19.899-4.399zm52.243 19.512c-4.351-3.112-9.364-6.01-14.743-8.528l6.582-4.448c5.792 2.71 11.187 5.83 15.874 9.182z" opacity="1" data-original="url(#aa)"></path><path fill="url(#ab)" d="M322.788 272.599c42.969-24.808 47.636-62.336 10.423-83.82C296 167.295 231 169.989 188.031 194.797s-47.636 62.335-10.423 83.82c37.212 21.484 102.211 18.79 145.18-6.018z" opacity="1" data-original="url(#ab)"></path><path fill="url(#ac)" d="M397.417 151.71c-10.578-6.107-22.387-11.143-35.081-15.124l-8.052 4.649c-7.902 4.562-8.76 11.464-1.917 15.415l38.065 21.977c6.843 3.951 18.797 3.456 26.699-1.107l7.564-4.367c-7.058-7.78-16.132-15.008-27.278-21.443z" opacity="1" data-original="url(#ac)"></path><path fill="url(#ad)" d="m175.063 143.267 2.012 5.808c1.976 5.703 11.899 8.725 22.164 6.749l57.098-10.988c10.265-1.976 16.985-8.2 15.009-13.903l-1.883-5.437c-31.988 1.267-64.577 7.239-94.4 17.771z" opacity="1" data-original="url(#ad)"></path><path fill="url(#ae)" d="M121.313 199.907c3.422-5.926-1.812-11.656-11.689-12.796l-9.458-1.092c-18.625 17.124-29.362 35.892-31.975 54.364l10.009 1.156c9.878 1.141 20.659-2.739 24.081-8.666z" opacity="1" data-original="url(#ae)"></path><path fill="url(#af)" d="m158.452 310.746-38.065-21.977c-6.843-3.951-18.797-3.456-26.699 1.107l-7.564 4.367c7.058 7.78 16.132 15.008 27.278 21.443 10.578 6.107 22.387 11.143 35.081 15.124l8.052-4.649c7.902-4.562 8.761-11.464 1.917-15.415z" opacity="1" data-original="url(#af)"></path><path fill="url(#ag)" d="M241.357 394.771c31.992-1.267 64.572-7.26 94.399-17.796v-52.847L241.357 341.9z" opacity="1" data-original="url(#ag)"></path><path fill="url(#ah)" d="M333.745 318.321c-1.975-5.703-11.899-8.724-22.164-6.749l-57.098 10.988c-10.265 1.975-16.985 8.2-15.01 13.903l1.883 5.437c31.987-1.267 64.576-7.239 94.399-17.772z" opacity="1" data-original="url(#ah)"></path><path fill="url(#ai)" d="m443.27 218.27-8.536-.528c-9.878-1.141-20.659 2.739-24.081 8.666l-21.147 41.081c-3.422 5.927 1.812 11.656 11.69 12.796l9.458 1.092c18.625-17.124 31.646-42.652 32.616-63.107z" opacity="1" data-original="url(#ai)"></path><path fill="url(#aj)" d="m211.153 186.478-99.547-10.008c-58.531 44.51-59.541 103.801 1.796 139.214 14.479 8.359 31.268 14.706 49.476 19.091h88.813z" opacity="1" data-original="url(#aj)"></path><path fill="url(#ak)" d="m169.75 323.427.003.002c27.888 8.744 60.054 12.389 92.859 11.09l.013-.005 94.399-17.796.106-.01c15.023-5.312 29.346-11.778 42.529-19.389 12.561-7.252 23.314-15.103 32.261-23.33l32.617-115.977L88.82 188.419v53.955h.006c.132 15.702 6.274 30.94 18.565 44.491z" opacity="1" data-original="url(#ak)"></path><path fill="url(#al)" d="M107.391 286.864c7.056 7.78 16.132 15.006 27.278 21.441 10.577 6.107 22.387 11.141 35.081 15.122v-52.874l-62.359-36.567z" opacity="1" data-original="url(#al)"></path><path fill="url(#am)" d="M88.821 241.594v.778l.006-.001c.166 19.878 9.959 39.012 29.679 54.921l48.086-27.762-57.954-82.715-19.817 1.604z" opacity="1" data-original="url(#am)"></path><path fill="url(#an)" d="M431.92 273.99c21.684-19.939 32.69-42.107 32.613-63.438h.004v-52.539l-32.617 63.108z" opacity="1" data-original="url(#an)"></path><path fill="url(#ao)" d="M445.954 112.891 383.603 76.33c-27.892-8.746-60.064-12.391-92.874-11.091L196.33 83.011c-15.062 5.32-29.421 11.798-42.635 19.427-12.558 7.251-23.315 15.099-32.261 23.324l-31.976 54.364c-2.684 18.974 3.214 37.63 17.939 53.865l62.354 36.563c27.892 8.746 60.064 12.391 92.874 11.091l94.399-17.771c15.062-5.32 29.421-11.798 42.636-19.427 12.559-7.251 23.315-15.098 32.261-23.324l32.593-63.061c.041-15.944-6.096-31.424-18.56-45.171z" opacity="1" data-original="url(#ao)"></path><path fill="url(#ap)" d="M380.581 113.452c-49.697-28.692-136.503-25.094-193.888 8.037s-63.617 83.249-13.92 111.941 136.503 25.094 193.888-8.037c57.384-33.131 63.617-83.248 13.92-111.941zm-27.572 104.06c-48.679 28.105-122.316 31.157-164.473 6.818-42.157-24.34-36.87-66.854 11.809-94.959s122.316-31.157 164.473-6.818c42.157 24.34 36.87 66.854-11.809 94.959z" opacity="1" data-original="url(#ap)"></path><path fill="url(#aq)" d="M186.693 126.021c57.385-33.131 144.191-36.729 193.888-8.037 21.583 12.461 32.603 28.965 33.479 46.362.954-19.044-10.029-37.355-33.479-50.894-49.697-28.692-136.503-25.094-193.888 8.037-32.462 18.742-48.541 42.919-47.4 65.579 1.068-21.314 17.093-43.549 47.4-61.047z" opacity="1" data-original="url(#aq)"></path><path fill="url(#ar)" d="M188.536 228.862c42.157 24.339 115.794 21.287 164.473-6.818 27.702-15.993 41.329-36.651 40.18-55.973-1.061 17.976-14.635 36.692-40.18 51.44-48.679 28.105-122.316 31.157-164.473 6.818-18.167-10.489-27.501-24.355-28.371-38.986-.961 16.279 8.336 31.952 28.371 43.519z" opacity="1" data-original="url(#ar)"></path><path fill="url(#as)" d="m185.295 236.648 6.594-4.443c5.411 2.542 11.325 4.763 17.577 6.603l-5.223 4.957c-6.741-1.983-13.115-4.378-18.948-7.117zm-15.846-9.199c-4.713-3.383-8.826-7.077-12.228-10.982l8.606-2.993c3.155 3.621 6.971 7.049 11.344 10.187zm56.232 21.081 3.668-5.303c6.916 1.086 14.151 1.789 21.503 2.088l-1.999 5.465c-7.922-.322-15.718-1.079-23.172-2.25zm-76.601-44.468c-1.99-4.312-3.263-8.819-3.783-13.395l9.468-1.128c.483 4.247 1.663 8.429 3.51 12.43zm123.88 46.395.27-5.442a217.816 217.816 0 0 0 22.493-2.672l1.471 5.235a235.065 235.065 0 0 1-24.234 2.879zm-126.989-73.716c.966-4.675 2.682-9.381 5.097-13.988l9.055.874c-2.243 4.276-3.835 8.644-4.732 12.984zm174.764 65.488-3.173-4.849c7.073-2.017 13.95-4.405 20.439-7.098l4.772 4.292c-6.996 2.905-14.411 5.48-22.038 7.655zm-160.29-93.056c3.801-4.395 8.294-8.666 13.354-12.695l7.406 2.778c-4.692 3.737-8.86 7.698-12.385 11.774zm202.111 75.714-6.212-3.586.305-.176c5.703-3.293 10.958-6.85 15.619-10.572l7.417 2.77c-5.022 4.011-10.682 7.842-16.824 11.389zm-165.704-96.192-6.202-3.592c6.148-3.54 12.792-6.803 19.749-9.698l4.784 4.287c-6.455 2.687-12.623 5.716-18.331 9.003zm187.772 70.075c3.512-4.076 6.428-8.316 8.664-12.602l9.059.866c-2.41 4.62-5.553 9.19-9.34 13.584zm-149.016-86.194-3.186-4.844a225.695 225.695 0 0 1 23.531-5.37l1.485 5.233a208.952 208.952 0 0 0-21.83 4.981zm162.377 60.606c.884-4.336 1.082-8.684.589-12.926l9.468-1.136c.53 4.568.318 9.253-.634 13.923zm-118.056-68.28.255-5.441a227.048 227.048 0 0 1 24.113-.345l-1.984 5.465a211.188 211.188 0 0 0-22.384.321zm115.099 42.93c-1.861-4.005-4.413-7.873-7.583-11.496l8.599-3.001c3.419 3.908 6.169 8.078 8.177 12.396zm-71.202-41.183 3.654-5.305c7.475 1.166 14.694 2.762 21.455 4.743l-5.21 4.961c-6.27-1.837-12.965-3.317-19.899-4.399zm52.243 19.513c-4.351-3.112-9.364-6.01-14.743-8.528l6.582-4.448c5.792 2.71 11.187 5.83 15.874 9.182z" opacity="1" data-original="url(#as)"></path><path fill="url(#at)" d="M344.055 212.342c42.969-24.808 47.636-62.336 10.423-83.82-37.212-21.484-102.212-18.79-145.181 6.018s-47.636 62.335-10.423 83.82 102.212 18.791 145.181-6.018z" opacity="1" data-original="url(#at)"></path><path fill="url(#au)" d="M418.684 91.453c-10.578-6.107-22.387-11.143-35.081-15.124l-8.052 4.649c-7.902 4.562-8.76 11.464-1.917 15.415l38.065 21.977c6.843 3.951 18.797 3.456 26.699-1.107l7.564-4.367c-7.058-7.78-16.132-15.007-27.278-21.443z" opacity="1" data-original="url(#au)"></path><path fill="url(#av)" d="m196.33 83.011 2.012 5.808c1.976 5.703 11.899 8.724 22.164 6.749l57.098-10.988c10.265-1.976 16.985-8.2 15.009-13.903l-1.883-5.437c-31.988 1.266-64.577 7.238-94.4 17.771z" opacity="1" data-original="url(#av)"></path><path fill="url(#aw)" d="M142.58 139.65c3.422-5.927-1.812-11.656-11.689-12.796l-9.458-1.092c-18.625 17.125-29.362 35.892-31.975 54.364l10.009 1.156c9.878 1.141 20.659-2.739 24.081-8.666z" opacity="1" data-original="url(#aw)"></path><path fill="url(#ax)" d="m179.719 250.49-38.065-21.977c-6.843-3.951-18.797-3.456-26.699 1.107l-7.564 4.367c7.058 7.78 16.132 15.008 27.278 21.443 10.578 6.107 22.387 11.143 35.081 15.124l8.052-4.649c7.902-4.563 8.761-11.464 1.917-15.415z" opacity="1" data-original="url(#ax)"></path><path fill="url(#ay)" d="M262.624 334.515c31.992-1.268 64.572-7.26 94.399-17.796v-52.847l-94.399 17.772z" opacity="1" data-original="url(#ay)"></path><path fill="url(#az)" d="M355.012 258.065c-1.975-5.703-11.899-8.724-22.164-6.749l-57.098 10.989c-10.265 1.975-16.985 8.2-15.01 13.903l1.883 5.437c31.987-1.267 64.577-7.239 94.399-17.772z" opacity="1" data-original="url(#az)"></path><path fill="url(#aA)" d="m464.537 158.013-8.536-.527c-9.878-1.141-20.659 2.739-24.081 8.666l-21.147 41.081c-3.422 5.927 1.812 11.656 11.689 12.796l9.458 1.092c18.626-17.125 31.647-42.653 32.617-63.108z" opacity="1" data-original="url(#aA)"></path><path fill="url(#aB)" d="M134.668 255.429c9.695 5.597 20.426 10.292 31.923 14.102h59.088L88.831 188.217c-.311 25.182 14.752 49.264 45.837 67.212z" opacity="1" data-original="url(#aB)"></path><path fill="url(#aC)" d="m148.479 258.444.003.002c27.888 8.744 60.054 12.389 92.859 11.09l.013-.005 94.399-17.796.106-.01c15.023-5.312 29.346-11.778 42.529-19.389 12.561-7.252 23.314-15.103 32.261-23.33L443.266 93.03 67.549 123.436v53.955h.006c.132 15.702 6.274 30.94 18.565 44.491z" opacity="1" data-original="url(#aC)"></path><path fill="url(#aD)" d="M410.649 209.007c21.684-19.939 32.69-42.107 32.613-63.438h.004V93.03l-32.617 63.108z" opacity="1" data-original="url(#aD)"></path><path fill="url(#aE)" d="m424.683 47.908-62.351-36.562C334.44 2.601 302.268-1.044 269.458.256l-94.399 17.772c-15.062 5.319-29.421 11.798-42.635 19.427-12.558 7.251-23.315 15.099-32.261 23.324l-31.976 54.363c-2.684 18.974 3.214 37.63 17.939 53.865l62.354 36.563c27.892 8.746 60.064 12.391 92.874 11.091l94.399-17.771c15.062-5.32 29.421-11.798 42.635-19.427 12.559-7.251 23.315-15.099 32.261-23.324l32.593-63.061c.042-15.942-6.095-31.423-18.559-45.17z" opacity="1" data-original="url(#aE)"></path><path fill="url(#aF)" d="M359.31 48.469c-49.697-28.692-136.503-25.094-193.888 8.037s-63.617 83.249-13.921 111.941c49.697 28.693 136.503 25.094 193.888-8.037 57.385-33.13 63.618-83.248 13.921-111.941zm-27.572 104.06c-48.679 28.105-122.316 31.157-164.473 6.818-42.157-24.34-36.87-66.854 11.809-94.959S301.39 33.231 343.547 57.57c42.157 24.34 36.87 66.854-11.809 94.959z" opacity="1" data-original="url(#aF)"></path><path fill="url(#aG)" d="M165.422 61.039c57.385-33.131 144.191-36.729 193.888-8.037 21.583 12.461 32.603 28.965 33.479 46.362.954-19.044-10.029-37.355-33.479-50.894-49.697-28.692-136.503-25.094-193.888 8.037-32.462 18.742-48.541 42.919-47.4 65.579 1.068-21.315 17.093-43.55 47.4-61.047z" opacity="1" data-original="url(#aG)"></path><path fill="url(#aH)" d="M167.265 163.879c42.157 24.339 115.794 21.287 164.473-6.818 27.701-15.993 41.329-36.651 40.18-55.973-1.061 17.976-14.634 36.692-40.18 51.44-48.679 28.105-122.316 31.157-164.473 6.818-18.167-10.489-27.501-24.355-28.371-38.986-.961 16.279 8.336 31.952 28.371 43.519z" opacity="1" data-original="url(#aH)"></path><path fill="url(#aI)" d="m164.024 171.665 6.594-4.443c5.411 2.542 11.325 4.763 17.577 6.603l-5.223 4.957c-6.741-1.983-13.115-4.377-18.948-7.117zm-15.846-9.199c-4.712-3.383-8.826-7.077-12.228-10.982l8.606-2.993c3.155 3.622 6.971 7.049 11.344 10.187zm56.232 21.081 3.668-5.303c6.916 1.086 14.151 1.789 21.503 2.088l-1.999 5.465c-7.922-.322-15.719-1.079-23.172-2.25zm-76.601-44.468c-1.99-4.312-3.263-8.819-3.783-13.395l9.469-1.129c.483 4.248 1.663 8.429 3.51 12.43zm123.88 46.395.27-5.442a217.835 217.835 0 0 0 22.494-2.672l1.471 5.235a235.117 235.117 0 0 1-24.235 2.879zM124.7 111.758c.966-4.675 2.682-9.381 5.097-13.989l9.055.874c-2.243 4.276-3.835 8.644-4.732 12.984zm174.764 65.488-3.172-4.849c7.073-2.017 13.95-4.405 20.439-7.098l4.772 4.293c-6.997 2.904-14.412 5.479-22.039 7.654zM139.174 84.19c3.801-4.395 8.294-8.666 13.355-12.695l7.406 2.778c-4.692 3.737-8.86 7.698-12.385 11.774zm202.111 75.714-6.212-3.587.305-.176c5.703-3.293 10.958-6.85 15.619-10.572l7.417 2.77c-5.022 4.011-10.682 7.843-16.824 11.389zM175.581 63.712l-6.202-3.592c6.148-3.54 12.792-6.803 19.749-9.698l4.784 4.287c-6.455 2.687-12.623 5.716-18.331 9.003zm187.772 70.075c3.512-4.076 6.428-8.316 8.664-12.602l9.059.866c-2.411 4.62-5.553 9.19-9.34 13.584zM214.337 47.593l-3.186-4.844a225.695 225.695 0 0 1 23.531-5.37l1.485 5.233a208.952 208.952 0 0 0-21.83 4.981zM376.714 108.2c.884-4.336 1.082-8.684.589-12.926l9.468-1.136c.53 4.568.318 9.253-.634 13.923zM258.658 39.919l.255-5.441a227.052 227.052 0 0 1 24.113-.345l-1.984 5.465a211.188 211.188 0 0 0-22.384.321zm115.099 42.93c-1.861-4.005-4.413-7.873-7.583-11.496l8.599-3.001c3.419 3.907 6.17 8.077 8.177 12.396zm-71.202-41.182 3.654-5.305c7.475 1.166 14.694 2.762 21.455 4.743l-5.21 4.961c-6.27-1.838-12.965-3.318-19.899-4.399zm52.243 19.512c-4.352-3.112-9.364-6.011-14.743-8.528l6.582-4.448c5.792 2.71 11.187 5.83 15.874 9.182z" opacity="1" data-original="url(#aI)"></path><path fill="url(#aJ)" d="M322.784 147.359c42.969-24.808 47.636-62.336 10.423-83.82-37.212-21.485-102.212-18.79-145.181 6.018s-47.636 62.336-10.424 83.82c37.214 21.485 102.213 18.791 145.182-6.018z" opacity="1" data-original="url(#aJ)"></path><path fill="url(#aK)" d="M397.413 26.47c-10.578-6.107-22.387-11.143-35.081-15.123l-8.052 4.649c-7.902 4.562-8.76 11.464-1.917 15.415l38.065 21.977c6.844 3.951 18.797 3.456 26.699-1.107l7.564-4.367c-7.058-7.781-16.132-15.008-27.278-21.444z" opacity="1" data-original="url(#aK)"></path><path fill="url(#aL)" d="m175.059 18.028 2.012 5.808c1.976 5.703 11.899 8.724 22.164 6.749l57.098-10.988c10.265-1.976 16.985-8.2 15.009-13.903L269.459.257c-31.988 1.267-64.577 7.238-94.4 17.771z" opacity="1" data-original="url(#aL)"></path><path fill="url(#aM)" d="M121.309 74.667c3.422-5.927-1.812-11.656-11.689-12.796l-9.458-1.092C81.537 77.903 70.8 96.671 68.187 115.142l10.01 1.156c9.878 1.141 20.659-2.739 24.081-8.666z" opacity="1" data-original="url(#aM)"></path><path fill="url(#aN)" d="M86.12 221.881c7.056 7.78 16.132 15.006 27.278 21.441 10.578 6.107 22.387 11.142 35.081 15.122V205.57L86.12 169.004z" opacity="1" data-original="url(#aN)"></path><path fill="url(#aO)" d="m158.448 185.507-38.065-21.977c-6.843-3.951-18.797-3.456-26.699 1.107l-7.564 4.367c7.058 7.78 16.132 15.008 27.278 21.443 10.578 6.107 22.387 11.143 35.081 15.124l8.052-4.649c7.902-4.563 8.761-11.464 1.917-15.415z" opacity="1" data-original="url(#aO)"></path><path fill="url(#aP)" d="M241.353 269.532c31.992-1.268 64.572-7.26 94.399-17.796v-52.847l-94.399 17.772z" opacity="1" data-original="url(#aP)"></path><path fill="url(#aQ)" d="M333.741 193.082c-1.975-5.703-11.898-8.724-22.164-6.749l-57.098 10.988c-10.265 1.976-16.985 8.2-15.009 13.903l1.883 5.437c31.987-1.267 64.576-7.239 94.399-17.771z" opacity="1" data-original="url(#aQ)"></path><path fill="url(#aR)" d="m443.266 93.03-8.536-.528c-9.878-1.141-20.659 2.739-24.081 8.666l-21.147 41.081c-3.422 5.927 1.812 11.656 11.69 12.796l9.458 1.092c18.625-17.123 31.646-42.652 32.616-63.107z" opacity="1" data-original="url(#aR)"></path></g></svg>