<svg width="427" height="491" viewBox="0 0 427 491" fill="none" xmlns="http://www.w3.org/2000/svg">
<path d="M213.333 490.667C212.249 490.669 211.17 490.508 210.133 490.187C70.6987 446.603 1.21592e-07 313.984 1.21592e-07 96C-0.000376898 93.5019 0.876023 91.083 2.4764 89.1648C4.07678 87.2467 6.29961 85.9512 8.75733 85.504C9.90933 85.3333 124.693 63.808 206.933 2.13333C208.78 0.748564 211.025 0 213.333 0C215.641 0 217.887 0.748564 219.733 2.13333C301.973 63.808 416.757 85.3333 417.909 85.504C420.367 85.9512 422.59 87.2467 424.19 89.1648C425.791 91.083 426.667 93.5019 426.667 96C426.667 313.984 355.968 446.603 216.533 490.187C215.497 490.508 214.418 490.669 213.333 490.667ZM21.3333 104.704C23.1467 305.419 87.7013 427.904 213.333 468.8C338.933 427.861 403.488 305.419 405.333 104.704C376.875 98.5493 286.133 75.904 213.333 23.8827C140.565 75.8613 49.824 98.5493 21.3333 104.704Z" fill="#00ECE5"/>
<path d="M213.332 434.132C211.98 434.13 210.641 433.873 209.385 433.375C112.436 394.804 61.705 298.25 54.281 138.218C54.1692 135.81 54.8759 133.436 56.286 131.482C57.6961 129.527 59.7265 128.108 62.0464 127.455C113.143 113.485 162.15 92.7697 207.774 65.855C209.448 64.8334 211.371 64.293 213.332 64.293C215.293 64.293 217.215 64.8334 218.889 65.855C264.513 92.7697 313.521 113.485 364.617 127.455C366.937 128.108 368.967 129.527 370.377 131.482C371.787 133.436 372.494 135.81 372.382 138.218C364.916 298.218 314.228 394.804 217.278 433.375C216.022 433.873 214.683 434.13 213.332 434.132ZM76.0197 145.631C84.265 289.14 129.182 376.372 213.332 411.935C297.481 376.372 342.398 289.14 350.644 145.631C302.688 131.842 256.581 112.29 213.332 87.4017C170.083 112.29 123.975 131.842 76.0197 145.631Z" fill="#00ECE5"/>
</svg>
