<svg width="512" height="512" viewBox="0 0 512 512" fill="none" xmlns="http://www.w3.org/2000/svg">
<g clip-path="url(#clip0_297_212)">
<path d="M512 170.4C512.082 169.87 512.082 169.33 512 168.8C511.912 168.299 511.751 167.813 511.52 167.36L510.72 166.16L509.6 164.96C509.461 164.781 509.299 164.619 509.12 164.48L372 65.92V8C372 5.87827 371.157 3.84344 369.657 2.34315C368.156 0.842855 366.122 0 364 0L148 0C145.878 0 143.843 0.842855 142.343 2.34315C140.843 3.84344 140 5.87827 140 8V65.92L3.35988 164.48C3.18046 164.619 3.0192 164.781 2.87988 164.96L1.75988 166.16C1.46576 166.541 1.19845 166.942 0.959876 167.36C0.729218 167.813 0.567441 168.299 0.479876 168.8C0.397333 169.33 0.397333 169.87 0.479876 170.4C0.434454 170.611 0.434454 170.829 0.479876 171.04V504C0.479876 506.122 1.32273 508.157 2.82302 509.657C4.32331 511.157 6.35814 512 8.47988 512H504C506.122 512 508.156 511.157 509.657 509.657C511.157 508.157 512 506.122 512 504V171.04C512.045 170.829 512.045 170.611 512 170.4ZM479.44 163.04H409.04C407.754 163.06 406.492 163.389 405.36 164H372V85.6L479.44 163.04ZM372 180H401.04V496H372V180ZM140 164H106.64C105.532 163.401 104.299 163.072 103.04 163.04H32.7999L140 85.6V164ZM15.9999 179.04H95.0399V496H15.9999V179.04ZM111.04 180H140V496H111.04V180ZM248 405.36L248.64 496H198.64V405.36H248ZM264.64 496L264 405.36H313.28V496H264.64ZM329.36 496V397.36C329.36 395.238 328.517 393.203 327.017 391.703C325.516 390.203 323.482 389.36 321.36 389.36H190.64C188.518 389.36 186.483 390.203 184.983 391.703C183.483 393.203 182.64 395.238 182.64 397.36V496H156V16H356V496H329.36ZM496 496H417.04V179.04H496V496Z" fill="#00ECE5"/>
<path d="M336 89.3616H292V45.6016C292 43.4798 291.157 41.445 289.657 39.9447C288.157 38.4444 286.122 37.6016 284 37.6016H228C225.878 37.6016 223.843 38.4444 222.343 39.9447C220.843 41.445 220 43.4798 220 45.6016V89.3616H176C173.878 89.3616 171.843 90.2044 170.343 91.7047C168.843 93.205 168 95.2398 168 97.3616V153.362C168 155.483 168.843 157.518 170.343 159.018C171.843 160.519 173.878 161.362 176 161.362H220V205.042C220 207.163 220.843 209.198 222.343 210.698C223.843 212.199 225.878 213.042 228 213.042H284C286.122 213.042 288.157 212.199 289.657 210.698C291.157 209.198 292 207.163 292 205.042V161.362H336C338.122 161.362 340.157 160.519 341.657 159.018C343.157 157.518 344 155.483 344 153.362V97.3616C344 95.2398 343.157 93.205 341.657 91.7047C340.157 90.2044 338.122 89.3616 336 89.3616ZM328 145.362H284C281.878 145.362 279.843 146.204 278.343 147.705C276.843 149.205 276 151.24 276 153.362V197.042H236V153.362C236 151.24 235.157 149.205 233.657 147.705C232.157 146.204 230.122 145.362 228 145.362H184V105.362H228C230.122 105.362 232.157 104.519 233.657 103.018C235.157 101.518 236 99.4833 236 97.3616V53.6016H276V97.3616C276 99.4833 276.843 101.518 278.343 103.018C279.843 104.519 281.878 105.362 284 105.362H328V145.362ZM329.36 248.002H182.64C180.518 248.002 178.483 248.844 176.983 250.345C175.483 251.845 174.64 253.88 174.64 256.002C174.64 258.123 175.483 260.158 176.983 261.658C178.483 263.159 180.518 264.002 182.64 264.002H329.36C331.482 264.002 333.517 263.159 335.017 261.658C336.517 260.158 337.36 258.123 337.36 256.002C337.36 253.88 336.517 251.845 335.017 250.345C333.517 248.844 331.482 248.002 329.36 248.002ZM329.36 280.002H182.64C180.518 280.002 178.483 280.844 176.983 282.345C175.483 283.845 174.64 285.88 174.64 288.002C174.64 290.123 175.483 292.158 176.983 293.658C178.483 295.159 180.518 296.002 182.64 296.002H329.36C331.482 296.002 333.517 295.159 335.017 293.658C336.517 292.158 337.36 290.123 337.36 288.002C337.36 285.88 336.517 283.845 335.017 282.345C333.517 280.844 331.482 280.002 329.36 280.002ZM329.36 312.002H182.64C180.518 312.002 178.483 312.844 176.983 314.345C175.483 315.845 174.64 317.88 174.64 320.002C174.64 322.123 175.483 324.158 176.983 325.658C178.483 327.159 180.518 328.002 182.64 328.002H329.36C331.482 328.002 333.517 327.159 335.017 325.658C336.517 324.158 337.36 322.123 337.36 320.002C337.36 317.88 336.517 315.845 335.017 314.345C333.517 312.844 331.482 312.002 329.36 312.002ZM329.36 344.002H182.64C180.518 344.002 178.483 344.844 176.983 346.345C175.483 347.845 174.64 349.88 174.64 352.002C174.64 354.123 175.483 356.158 176.983 357.658C178.483 359.159 180.518 360.002 182.64 360.002H329.36C331.482 360.002 333.517 359.159 335.017 357.658C336.517 356.158 337.36 354.123 337.36 352.002C337.36 349.88 336.517 347.845 335.017 346.345C333.517 344.844 331.482 344.002 329.36 344.002ZM78.72 248.002H32C29.8783 248.002 27.8434 248.844 26.3431 250.345C24.8429 251.845 24 253.88 24 256.002C24 258.123 24.8429 260.158 26.3431 261.658C27.8434 263.159 29.8783 264.002 32 264.002H78.4C80.5217 264.002 82.5566 263.159 84.0569 261.658C85.5571 260.158 86.4 258.123 86.4 256.002C86.4 253.88 85.5571 251.845 84.0569 250.345C82.5566 248.844 80.5217 248.002 78.4 248.002H78.72ZM78.72 280.002H32C29.8783 280.002 27.8434 280.844 26.3431 282.345C24.8429 283.845 24 285.88 24 288.002C24 290.123 24.8429 292.158 26.3431 293.658C27.8434 295.159 29.8783 296.002 32 296.002H78.4C80.5217 296.002 82.5566 295.159 84.0569 293.658C85.5571 292.158 86.4 290.123 86.4 288.002C86.4 285.88 85.5571 283.845 84.0569 282.345C82.5566 280.844 80.5217 280.002 78.4 280.002H78.72ZM78.72 312.002H32C29.8783 312.002 27.8434 312.844 26.3431 314.345C24.8429 315.845 24 317.88 24 320.002C24 322.123 24.8429 324.158 26.3431 325.658C27.8434 327.159 29.8783 328.002 32 328.002H78.4C80.5217 328.002 82.5566 327.159 84.0569 325.658C85.5571 324.158 86.4 322.123 86.4 320.002C86.4 317.88 85.5571 315.845 84.0569 314.345C82.5566 312.844 80.5217 312.002 78.4 312.002H78.72ZM78.72 344.002H32C29.8783 344.002 27.8434 344.844 26.3431 346.345C24.8429 347.845 24 349.88 24 352.002C24 354.123 24.8429 356.158 26.3431 357.658C27.8434 359.159 29.8783 360.002 32 360.002H78.4C80.5217 360.002 82.5566 359.159 84.0569 357.658C85.5571 356.158 86.4 354.123 86.4 352.002C86.4 349.88 85.5571 347.845 84.0569 346.345C82.5566 344.844 80.5217 344.002 78.4 344.002H78.72ZM78.72 376.002H32C29.8783 376.002 27.8434 376.844 26.3431 378.345C24.8429 379.845 24 381.88 24 384.002C24 386.123 24.8429 388.158 26.3431 389.658C27.8434 391.159 29.8783 392.002 32 392.002H78.4C80.5217 392.002 82.5566 391.159 84.0569 389.658C85.5571 388.158 86.4 386.123 86.4 384.002C86.4 381.88 85.5571 379.845 84.0569 378.345C82.5566 376.844 80.5217 376.002 78.4 376.002H78.72ZM78.72 408.002H32C29.8783 408.002 27.8434 408.844 26.3431 410.345C24.8429 411.845 24 413.88 24 416.002C24 418.123 24.8429 420.158 26.3431 421.658C27.8434 423.159 29.8783 424.002 32 424.002H78.4C80.5217 424.002 82.5566 423.159 84.0569 421.658C85.5571 420.158 86.4 418.123 86.4 416.002C86.4 413.88 85.5571 411.845 84.0569 410.345C82.5566 408.844 80.5217 408.002 78.4 408.002H78.72ZM78.72 440.002H32C29.8783 440.002 27.8434 440.844 26.3431 442.345C24.8429 443.845 24 445.88 24 448.002C24 450.123 24.8429 452.158 26.3431 453.658C27.8434 455.159 29.8783 456.002 32 456.002H78.4C80.5217 456.002 82.5566 455.159 84.0569 453.658C85.5571 452.158 86.4 450.123 86.4 448.002C86.4 445.88 85.5571 443.845 84.0569 442.345C82.5566 440.844 80.5217 440.002 78.4 440.002H78.72ZM433.28 264.002H480C482.122 264.002 484.157 263.159 485.657 261.658C487.157 260.158 488 258.123 488 256.002C488 253.88 487.157 251.845 485.657 250.345C484.157 248.844 482.122 248.002 480 248.002H433.6C431.478 248.002 429.443 248.844 427.943 250.345C426.443 251.845 425.6 253.88 425.6 256.002C425.6 258.123 426.443 260.158 427.943 261.658C429.443 263.159 431.478 264.002 433.6 264.002H433.28ZM433.28 296.002H480C482.122 296.002 484.157 295.159 485.657 293.658C487.157 292.158 488 290.123 488 288.002C488 285.88 487.157 283.845 485.657 282.345C484.157 280.844 482.122 280.002 480 280.002H433.6C431.478 280.002 429.443 280.844 427.943 282.345C426.443 283.845 425.6 285.88 425.6 288.002C425.6 290.123 426.443 292.158 427.943 293.658C429.443 295.159 431.478 296.002 433.6 296.002H433.28ZM433.28 328.002H480C482.122 328.002 484.157 327.159 485.657 325.658C487.157 324.158 488 322.123 488 320.002C488 317.88 487.157 315.845 485.657 314.345C484.157 312.844 482.122 312.002 480 312.002H433.6C431.478 312.002 429.443 312.844 427.943 314.345C426.443 315.845 425.6 317.88 425.6 320.002C425.6 322.123 426.443 324.158 427.943 325.658C429.443 327.159 431.478 328.002 433.6 328.002H433.28ZM433.28 360.002H480C482.122 360.002 484.157 359.159 485.657 357.658C487.157 356.158 488 354.123 488 352.002C488 349.88 487.157 347.845 485.657 346.345C484.157 344.844 482.122 344.002 480 344.002H433.6C431.478 344.002 429.443 344.844 427.943 346.345C426.443 347.845 425.6 349.88 425.6 352.002C425.6 354.123 426.443 356.158 427.943 357.658C429.443 359.159 431.478 360.002 433.6 360.002H433.28ZM433.28 392.002H480C482.122 392.002 484.157 391.159 485.657 389.658C487.157 388.158 488 386.123 488 384.002C488 381.88 487.157 379.845 485.657 378.345C484.157 376.844 482.122 376.002 480 376.002H433.6C431.478 376.002 429.443 376.844 427.943 378.345C426.443 379.845 425.6 381.88 425.6 384.002C425.6 386.123 426.443 388.158 427.943 389.658C429.443 391.159 431.478 392.002 433.6 392.002H433.28ZM433.28 424.002H480C482.122 424.002 484.157 423.159 485.657 421.658C487.157 420.158 488 418.123 488 416.002C488 413.88 487.157 411.845 485.657 410.345C484.157 408.844 482.122 408.002 480 408.002H433.6C431.478 408.002 429.443 408.844 427.943 410.345C426.443 411.845 425.6 413.88 425.6 416.002C425.6 418.123 426.443 420.158 427.943 421.658C429.443 423.159 431.478 424.002 433.6 424.002H433.28ZM433.28 456.002H480C482.122 456.002 484.157 455.159 485.657 453.658C487.157 452.158 488 450.123 488 448.002C488 445.88 487.157 443.845 485.657 442.345C484.157 440.844 482.122 440.002 480 440.002H433.6C431.478 440.002 429.443 440.844 427.943 442.345C426.443 443.845 425.6 445.88 425.6 448.002C425.6 450.123 426.443 452.158 427.943 453.658C429.443 455.159 431.478 456.002 433.6 456.002H433.28Z" fill="#00ECE5"/>
</g>
<defs>
<clipPath id="clip0_297_212">
<rect width="512" height="512" fill="white"/>
</clipPath>
</defs>
</svg>
