<svg width="480" height="480" viewBox="0 0 480 480" fill="none" xmlns="http://www.w3.org/2000/svg">
<path d="M342.799 203.759C342.079 202.607 341.076 201.656 339.886 200.998C338.697 200.341 337.359 199.997 335.999 199.999H247.999V79.9995C247.989 78.2081 247.377 76.4721 246.263 75.0697C245.148 73.6672 243.595 72.6794 241.852 72.2644C240.11 71.8495 238.278 72.0315 236.651 72.7812C235.024 73.531 233.696 74.8051 232.879 76.3995L136.879 268.399C136.266 269.617 135.973 270.972 136.03 272.334C136.088 273.697 136.492 275.022 137.205 276.184C137.919 277.347 138.917 278.307 140.106 278.975C141.295 279.643 142.636 279.995 143.999 279.999H231.999V399.999C232.005 401.797 232.616 403.54 233.733 404.948C234.851 406.356 236.41 407.346 238.159 407.759C238.76 407.918 239.378 407.998 239.999 407.999C241.477 407.995 242.924 407.582 244.181 406.805C245.437 406.028 246.454 404.919 247.119 403.599L343.119 211.599C343.739 210.374 344.034 209.01 343.978 207.638C343.922 206.266 343.516 204.931 342.799 203.759ZM247.999 366.079V271.999C247.999 269.878 247.156 267.843 245.656 266.343C244.156 264.842 242.121 263.999 239.999 263.999H156.959L231.999 113.919V207.999C231.999 210.121 232.842 212.156 234.342 213.656C235.843 215.157 237.877 215.999 239.999 215.999H323.039L247.999 366.079Z" fill="#00ECE5"/>
<path d="M435.281 100.64C441.362 92.9832 444.42 83.3599 443.874 73.5973C443.328 63.8346 439.217 54.612 432.321 47.6803L409.681 25.0403C408.159 23.5952 406.14 22.7896 404.041 22.7896C401.942 22.7896 399.923 23.5952 398.401 25.0403L392.721 30.7203L370.081 8.08025L358.801 19.3603L381.441 42.0003L370.081 53.3603L347.441 30.7203L336.161 42.0003L358.801 64.6403L353.121 70.3203C351.631 71.8192 350.795 73.8468 350.795 75.9603C350.795 78.0737 351.631 80.1014 353.121 81.6003L375.761 104.24C381.821 110.351 389.712 114.314 398.232 115.527C406.753 116.74 415.436 115.137 422.961 110.96C449.78 148.633 464.131 193.757 464.001 240C463.968 276.758 454.898 312.944 437.589 345.372C420.28 377.8 395.264 405.474 364.743 425.959C334.222 446.443 299.132 459.109 262.564 462.841C225.996 466.573 189.071 461.257 155.041 447.36L148.961 462.16C185.421 477.055 224.985 482.756 264.167 478.761C303.349 474.766 340.948 461.197 373.651 439.25C406.355 417.302 433.16 387.65 451.705 352.904C470.251 318.159 479.968 279.386 480.001 240C480.146 189.996 464.495 141.223 435.281 100.64ZM421.041 92.9603C416.507 97.4209 410.401 99.9209 404.041 99.9209C397.681 99.9209 391.575 97.4209 387.041 92.9603L370.081 75.9202L404.081 42.0003L421.041 58.9603C425.536 63.476 428.06 69.5884 428.06 75.9603C428.06 82.3321 425.536 88.4445 421.041 92.9603ZM240.001 0.000252698C176.373 0.0785823 115.374 25.3894 70.3819 70.3811C25.3901 115.373 0.0793342 176.372 0.00100455 240C-0.144436 290.005 15.5066 338.777 44.721 379.36C38.6401 387.017 35.5823 396.641 36.128 406.403C36.6736 416.166 40.7848 425.388 47.681 432.32L70.321 454.96C71.0502 455.704 71.922 456.293 72.8843 456.692C73.8466 457.09 74.8795 457.29 75.921 457.28C76.9745 457.291 78.0195 457.091 78.9948 456.693C79.9701 456.294 80.8561 455.705 81.601 454.96L87.281 449.28L109.921 471.92L121.201 460.64L98.561 438L109.921 426.64L132.561 449.28L143.841 438L121.201 415.36L126.881 409.68C128.371 408.181 129.207 406.154 129.207 404.04C129.207 401.927 128.371 399.899 126.881 398.4L104.241 375.76C98.1453 369.708 90.2592 365.785 81.7552 364.574C73.2512 363.364 64.5835 364.93 57.041 369.04C30.2218 331.368 15.8706 286.244 16.001 240C16.0666 180.612 39.6877 123.675 81.6816 81.6808C123.676 39.6869 180.613 16.0659 240.001 16.0003C269.144 15.9395 298.014 21.621 324.961 32.7203L331.041 17.8403C302.148 6.0153 271.221 -0.0451023 240.001 0.000252698ZM58.961 387.04C63.495 382.58 69.6006 380.08 75.961 380.08C82.3214 380.08 88.427 382.58 92.961 387.04L109.921 404.08L75.921 438L58.961 421.04C54.4656 416.525 51.9418 410.412 51.9418 404.04C51.9418 397.668 54.4656 391.556 58.961 387.04Z" fill="#00ECE5"/>
</svg>
