<svg width="499" height="487" viewBox="0 0 499 487" fill="none" xmlns="http://www.w3.org/2000/svg">
<path d="M340.417 330.242L270.15 371.169C268.123 372.358 265.991 373.359 263.782 374.159C264.343 372.824 264.812 371.451 265.186 370.051C269.027 355.713 260.535 340.752 245.853 335.992C245.508 335.881 245.156 335.793 244.8 335.728C224.754 332.114 204.9 324.935 188.948 319.167C183.371 317.151 178.103 315.246 173.607 313.788C154.939 307.732 138.232 315.133 124.351 323.17L73.658 352.52L69.631 345.405C67.217 341.138 63.276 338.064 58.533 336.75C53.79 335.438 48.83 336.043 44.564 338.456L24.848 349.614C16.022 354.61 12.905 365.854 17.9 374.682L75.862 477.096C78.276 481.362 82.218 484.436 86.96 485.75C88.6 486.204 90.265 486.429 91.919 486.429C95.049 486.429 98.138 485.623 100.928 484.045L120.644 472.887C129.471 467.891 132.587 456.647 127.592 447.82L122.501 438.825L132.211 433.219L221.482 457.14C226.607 458.513 231.707 459.196 236.724 459.196C246.875 459.196 256.683 456.4 265.651 450.88L393.169 372.36C405.591 364.712 409.567 345.495 401.51 332.042C397.618 325.541 381.705 306.197 340.417 330.242ZM112.717 458.879L93.001 470.036C92.292 470.436 91.605 470.335 91.259 470.238C90.9684 470.16 90.6961 470.025 90.4577 469.841C90.2193 469.657 90.0196 469.428 89.87 469.167L31.908 366.754C31.294 365.67 31.692 364.236 32.775 363.622L52.491 352.465C52.8273 352.275 53.2075 352.175 53.594 352.176C53.856 352.176 54.079 352.219 54.233 352.262C54.58 352.358 55.222 352.626 55.622 353.332L113.584 455.748C114.198 456.831 113.8 458.265 112.717 458.879ZM384.73 358.652L257.213 437.172C247.542 443.126 236.923 444.613 225.65 441.591L133.158 416.807C132.137 416.534 131.072 416.464 130.024 416.602C128.977 416.74 127.966 417.084 127.051 417.612L114.574 424.816L81.585 366.528L132.415 337.099C143.771 330.525 156.02 325.005 168.64 329.098C172.882 330.474 177.791 332.249 183.475 334.304C199.843 340.222 220.176 347.574 241.344 351.459C247.698 353.745 251.251 359.868 249.638 365.886C247.923 372.284 243.137 375.073 235.407 374.2C225.167 372.088 215.4 369.302 205.068 366.351C200.124 364.939 195.013 363.479 189.751 362.07C187.706 361.568 185.546 361.887 183.733 362.959C181.921 364.031 180.6 365.771 180.055 367.805C179.51 369.839 179.784 372.005 180.818 373.84C181.852 375.674 183.563 377.031 185.585 377.618C190.719 378.993 195.766 380.435 200.647 381.829C211.405 384.902 221.567 387.804 232.541 390.048C232.594 390.059 232.806 390.098 232.862 390.107L241.604 391.528C255.101 393.687 267.089 391.579 278.25 385.079L348.517 344.152C367.489 333.103 382.503 331.633 387.702 340.313C391.214 346.175 389.686 355.602 384.73 358.652ZM57.319 370.666C57.4527 371.581 57.4049 372.513 57.1784 373.409C56.9519 374.305 56.5511 375.148 55.9988 375.889C55.4466 376.631 54.7538 377.256 53.9599 377.73C53.166 378.203 52.2867 378.516 51.372 378.649C47.525 379.212 43.951 376.549 43.389 372.702C43.119 370.855 43.5939 368.976 44.7092 367.479C45.8244 365.982 47.4888 364.989 49.336 364.719C51.1832 364.449 53.0621 364.924 54.5592 366.039C56.0563 367.155 57.049 368.819 57.319 370.666ZM165.321 94.7533C167.851 99.6863 169.244 102.404 169.576 104.286C169.908 106.168 169.527 109.199 168.838 114.699C168.627 116.367 168.421 118.036 168.221 119.705C166.885 130.89 172.944 141.384 183.298 145.819C184.478 146.324 185.566 146.785 186.581 147.214L165.748 191.959C165.128 193.293 164.884 194.771 165.045 196.233C165.205 197.695 165.763 199.085 166.658 200.252C167.552 201.419 168.75 202.319 170.12 202.854C171.49 203.389 172.98 203.538 174.429 203.285L196.879 199.362L208.329 219.066C209.068 220.338 210.141 221.384 211.432 222.089C212.723 222.793 214.183 223.131 215.652 223.064C217.122 222.997 218.545 222.529 219.767 221.71C220.989 220.891 221.963 219.753 222.583 218.419L243.974 172.475C246.506 171.738 248.224 171.339 249.486 171.339C251.397 171.339 254.316 172.24 259.613 173.875L260.532 174.158L275.742 209.473C276.323 210.825 277.264 211.991 278.462 212.845C279.66 213.699 281.069 214.208 282.536 214.317C284.003 214.427 285.472 214.131 286.783 213.464C288.094 212.797 289.197 211.783 289.972 210.532L301.988 191.168L324.314 195.74C325.755 196.035 327.249 195.93 328.634 195.435C330.019 194.941 331.242 194.076 332.17 192.936C333.099 191.795 333.696 190.422 333.899 188.965C334.102 187.508 333.902 186.024 333.32 184.673L316.43 145.458C326.315 140.842 332.055 130.609 330.751 119.704C330.551 118.035 330.345 116.367 330.134 114.699C329.444 109.198 329.064 106.168 329.396 104.286C329.728 102.404 331.122 99.6863 333.651 94.7533C334.335 93.4193 335.097 91.9332 335.943 90.2602C341.025 80.2072 338.921 68.2732 330.707 60.5642C329.481 59.4144 328.251 58.2684 327.017 57.1263C322.953 53.3553 320.714 51.2782 319.758 49.6232C318.802 47.9682 318.123 44.9902 316.89 39.5852C316.518 37.9457 316.14 36.3074 315.757 34.6702C313.187 23.7032 303.904 15.9142 292.657 15.2882C290.979 15.1959 289.3 15.1089 287.621 15.0272C282.084 14.7512 279.034 14.5992 277.237 13.9452C275.44 13.2912 273.007 11.4472 268.588 8.10025C267.393 7.19525 266.062 6.18625 264.561 5.06325C255.543 -1.68675 243.425 -1.68875 234.407 5.06325C233.062 6.07156 231.72 7.08389 230.381 8.10025C225.962 11.4482 223.527 13.2922 221.731 13.9462C219.935 14.6002 216.884 14.7522 211.347 15.0282C209.85 15.1022 208.183 15.1852 206.311 15.2892C195.063 15.9152 185.78 23.7042 183.211 34.6722C182.783 36.4982 182.412 38.1262 182.078 39.5882C180.845 44.9922 180.165 47.9702 179.21 49.6252C178.254 51.2802 176.016 53.3573 171.951 57.1283C170.717 58.2701 169.487 59.4161 168.261 60.5662C160.047 68.2752 157.943 80.2092 163.025 90.2622C163.876 91.9332 164.638 93.4193 165.321 94.7533ZM214.501 197.649L207.98 186.426C207.152 185.004 205.909 183.87 204.417 183.175C202.926 182.48 201.257 182.259 199.636 182.541L186.85 184.775L200.269 155.953C201.15 157.236 202.176 158.822 203.458 160.807C204.271 162.067 205.177 163.468 206.203 165.038C210.443 171.522 217.154 175.505 224.44 176.301L214.501 197.649ZM299.725 174.275C298.113 173.944 296.438 174.116 294.926 174.767C293.415 175.418 292.139 176.517 291.272 177.916L284.428 188.944L278.634 175.491C284.293 173.881 289.343 170.283 292.773 165.039C293.799 163.47 294.704 162.068 295.517 160.809C298.525 156.151 300.182 153.585 301.646 152.357C301.698 152.313 301.766 152.269 301.821 152.226L312.44 176.88L299.725 174.275ZM179.281 72.3002C180.485 71.1718 181.692 70.0471 182.903 68.9262C193.674 58.9342 194.508 57.4902 197.775 43.1672C198.103 41.7322 198.467 40.1342 198.887 38.3412C199.827 34.3282 203.094 31.5882 207.209 31.3592C209.046 31.2572 210.682 31.1752 212.151 31.1022C226.825 30.3712 228.392 29.8002 240.103 20.9292C241.417 19.9317 242.735 18.938 244.055 17.9482C247.355 15.4782 251.618 15.4772 254.918 17.9482C256.239 18.9378 257.556 19.9314 258.871 20.9292C270.581 29.8002 272.149 30.3712 286.823 31.1022C288.293 31.1752 289.928 31.2572 291.766 31.3592C295.881 31.5882 299.148 34.3292 300.088 38.3422C300.507 40.1342 300.872 41.7312 301.2 43.1662C304.468 57.4902 305.302 58.9342 316.073 68.9262C317.152 69.9262 318.353 71.0412 319.695 72.3002C322.7 75.1212 323.44 79.3203 321.581 82.9993C320.751 84.6413 320.003 86.0992 319.332 87.4092C312.628 100.483 312.339 102.125 314.167 116.703C314.35 118.163 314.554 119.789 314.772 121.616C315.261 125.709 313.129 129.402 309.34 131.024C307.822 131.673 306.302 132.317 304.781 132.957C291.242 138.662 289.965 139.734 281.994 152.078C281.196 153.314 280.308 154.69 279.301 156.229C277.045 159.678 273.038 161.138 269.093 159.945C267.514 159.467 265.937 158.984 264.361 158.496C257.341 156.33 253.414 155.247 249.487 155.247C245.56 155.247 241.633 156.33 234.614 158.496C233.208 158.93 231.643 159.413 229.882 159.945C225.937 161.136 221.928 159.68 219.673 156.229C218.666 154.69 217.777 153.313 216.979 152.077C209.009 139.734 207.731 138.662 194.192 132.957C192.671 132.318 191.151 131.674 189.634 131.025C185.845 129.403 183.714 125.71 184.202 121.617C184.421 119.79 184.624 118.164 184.807 116.704C186.635 102.126 186.346 100.484 179.642 87.4102C178.971 86.1012 178.223 84.6433 177.393 83.0003C175.536 79.3203 176.276 75.1212 179.281 72.3002ZM249.488 144.164C280.334 144.164 305.429 119.069 305.429 88.2223C305.429 57.3763 280.334 32.2812 249.488 32.2812C218.642 32.2812 193.547 57.3763 193.547 88.2223C193.547 119.069 218.642 144.164 249.488 144.164ZM249.488 48.3772C271.459 48.3772 289.333 66.2523 289.333 88.2223C289.333 110.193 271.458 128.067 249.488 128.067C227.518 128.067 209.643 110.192 209.643 88.2223C209.643 66.2523 227.517 48.3772 249.488 48.3772ZM234.415 108.388L221.281 95.2542C219.797 93.7398 218.971 91.701 218.982 89.5807C218.992 87.4605 219.839 85.4302 221.339 83.9309C222.838 82.4317 224.868 81.5846 226.988 81.5738C229.109 81.563 231.148 82.3893 232.662 83.8732L240.374 91.5853L266.596 67.7892C267.379 67.0788 268.293 66.5296 269.288 66.1728C270.283 65.8161 271.339 65.6588 272.394 65.7101C273.45 65.7614 274.485 66.0201 275.441 66.4716C276.397 66.923 277.254 67.5584 277.964 68.3412C278.674 69.1239 279.223 70.0388 279.58 71.0336C279.937 72.0285 280.094 73.0839 280.043 74.1396C279.991 75.1952 279.733 76.2304 279.281 77.1861C278.83 78.1417 278.195 78.9991 277.412 79.7093L245.513 108.657C244.034 110.003 242.106 110.747 240.106 110.745C239.049 110.746 238.002 110.539 237.025 110.134C236.049 109.73 235.162 109.136 234.415 108.388ZM426.964 79.7602C387.256 79.7602 354.952 112.064 354.952 151.772C354.952 191.479 387.256 223.784 426.964 223.784C466.671 223.784 498.975 191.479 498.975 151.772C498.976 112.064 466.671 79.7602 426.964 79.7602ZM426.964 207.688C396.132 207.688 371.048 182.604 371.048 151.772C371.048 120.94 396.132 95.8562 426.964 95.8562C457.796 95.8562 482.879 120.94 482.879 151.772C482.88 182.604 457.796 207.688 426.964 207.688ZM455.361 165.775C456.097 171.84 454.454 177.395 450.609 181.842C446.983 186.034 441.414 189.049 435.013 190.424V192.248C435.013 194.383 434.165 196.43 432.656 197.939C431.146 199.448 429.099 200.296 426.965 200.296C424.831 200.296 422.783 199.448 421.274 197.939C419.765 196.43 418.917 194.383 418.917 192.248V190.285C408.782 187.793 401.067 180.678 398.636 170.924C398.368 169.895 398.307 168.822 398.456 167.769C398.605 166.716 398.962 165.702 399.505 164.788C400.048 163.873 400.767 163.075 401.621 162.44C402.474 161.805 403.445 161.346 404.477 161.088C405.51 160.831 406.583 160.781 407.634 160.941C408.686 161.1 409.696 161.467 410.605 162.02C411.514 162.572 412.304 163.3 412.931 164.16C413.557 165.02 414.006 165.995 414.253 167.03C415.797 173.226 422.391 175.3 427.607 175.155C432.117 175.048 436.569 173.467 438.433 171.312C439.034 170.617 439.616 169.647 439.381 167.715C439.159 165.887 438.639 161.605 425.717 159.483C404.585 156.013 400.871 143.98 400.538 137.116C399.997 125.982 407.328 116.613 418.916 113.406V111.295C418.916 106.85 422.519 103.247 426.964 103.247C431.409 103.247 435.012 106.85 435.012 111.295V113.333C442.483 115.321 449.47 120.305 453.215 129.225C453.634 130.201 453.857 131.251 453.868 132.313C453.88 133.376 453.681 134.43 453.284 135.415C452.886 136.401 452.297 137.297 451.551 138.054C450.805 138.81 449.917 139.412 448.937 139.823C447.957 140.234 446.906 140.448 445.843 140.451C444.781 140.454 443.728 140.246 442.746 139.84C441.765 139.435 440.873 138.838 440.122 138.086C439.372 137.334 438.778 136.44 438.375 135.457C435.35 128.254 427.85 127.849 423.895 128.747C422.121 129.149 416.352 130.886 416.616 136.336C416.687 137.809 416.877 141.72 428.326 143.6C444.807 146.306 453.903 153.767 455.361 165.775ZM72.012 223.784C111.72 223.784 144.024 191.479 144.024 151.772C144.024 112.065 111.72 79.7602 72.012 79.7602C32.305 79.7602 0 112.064 0 151.772C0 191.479 32.305 223.784 72.012 223.784ZM72.012 95.8562C102.844 95.8562 127.929 120.94 127.929 151.772C127.929 182.604 102.845 207.688 72.012 207.688C41.179 207.688 16.096 182.604 16.096 151.772C16.096 120.94 41.18 95.8562 72.012 95.8562ZM40.278 179.529C39.196 183.507 40.653 187.644 43.988 190.069C47.323 192.493 51.708 192.604 55.164 190.343L72.013 179.312L88.867 190.345C90.4666 191.4 92.34 191.963 94.256 191.965C96.3363 191.962 98.3616 191.297 100.04 190.068C103.375 187.643 104.83 183.505 103.748 179.529L98.465 160.096L114.163 147.479C117.377 144.895 118.631 140.69 117.356 136.768C116.081 132.846 112.596 130.181 108.477 129.981L88.362 129.001L81.214 110.173C79.752 106.322 76.141 103.833 72.015 103.833C67.889 103.833 64.278 106.322 62.816 110.173L55.668 129.001L35.553 129.981C31.433 130.181 27.948 132.846 26.673 136.769C25.398 140.692 26.652 144.896 29.867 147.479L45.564 160.096L40.278 179.529ZM60.538 144.877C62.4505 144.784 64.2943 144.135 65.8435 143.009C67.3927 141.884 68.58 140.331 69.26 138.541L72.013 131.29L74.768 138.545C75.4479 140.334 76.6349 141.886 78.1836 143.011C79.7322 144.136 81.5753 144.784 83.487 144.877L91.235 145.255L85.192 150.112C83.6982 151.311 82.587 152.92 81.9947 154.741C81.4024 156.563 81.3549 158.517 81.858 160.365L83.893 167.851L77.403 163.603C75.8014 162.554 73.928 161.995 72.013 161.995C70.0982 161.995 68.2249 162.553 66.623 163.602L60.133 167.851L62.169 160.363C62.6712 158.516 62.6235 156.563 62.0319 154.742C61.4402 152.922 60.3302 151.313 58.838 150.114L52.792 145.254L60.538 144.877ZM165.012 280.645C166.521 282.155 167.369 284.202 167.369 286.336C167.369 288.471 166.521 290.518 165.012 292.027C163.503 293.537 161.456 294.385 159.321 294.385C157.186 294.385 155.139 293.537 153.63 292.027L115.424 253.821C113.925 252.31 113.085 250.266 113.089 248.137C113.093 246.008 113.941 243.968 115.446 242.462C116.951 240.957 118.992 240.109 121.121 240.105C123.25 240.101 125.294 240.94 126.805 242.439L165.012 280.645ZM249.488 232.17C251.622 232.17 253.67 233.018 255.179 234.527C256.688 236.037 257.536 238.084 257.536 240.218V294.249C257.536 296.384 256.688 298.431 255.179 299.94C253.67 301.449 251.622 302.297 249.488 302.297C247.354 302.297 245.307 301.449 243.797 299.94C242.288 298.431 241.44 296.384 241.44 294.249V240.218C241.44 238.084 242.288 236.037 243.797 234.527C245.307 233.018 247.354 232.17 249.488 232.17ZM333.966 280.645L372.172 242.439C373.69 240.97 375.724 240.157 377.836 240.174C379.948 240.191 381.968 241.038 383.462 242.532C384.955 244.025 385.802 246.046 385.819 248.158C385.836 250.27 385.022 252.304 383.553 253.821L345.347 292.027C343.776 293.598 341.716 294.384 339.656 294.384C337.596 294.384 335.537 293.598 333.965 292.027C332.456 290.518 331.609 288.47 331.609 286.336C331.609 284.202 332.457 282.155 333.966 280.645Z" fill="white"/>
<path d="M340.417 330.242L270.15 371.169C268.123 372.358 265.991 373.359 263.782 374.159C264.343 372.824 264.812 371.451 265.186 370.051C269.027 355.713 260.535 340.752 245.853 335.992C245.508 335.881 245.156 335.793 244.8 335.728C224.754 332.114 204.9 324.935 188.948 319.167C183.371 317.151 178.103 315.246 173.607 313.788C154.939 307.732 138.232 315.133 124.351 323.17L73.658 352.52L69.631 345.405C67.217 341.138 63.276 338.064 58.533 336.75C53.79 335.438 48.83 336.043 44.564 338.456L24.848 349.614C16.022 354.61 12.905 365.854 17.9 374.682L75.862 477.096C78.276 481.362 82.218 484.436 86.96 485.75C88.6 486.204 90.265 486.429 91.919 486.429C95.049 486.429 98.138 485.623 100.928 484.045L120.644 472.887C129.471 467.891 132.587 456.647 127.592 447.82L122.501 438.825L132.211 433.219L221.482 457.14C226.607 458.513 231.707 459.196 236.724 459.196C246.875 459.196 256.683 456.4 265.651 450.88L393.169 372.36C405.591 364.712 409.567 345.495 401.51 332.042C397.618 325.541 381.705 306.197 340.417 330.242ZM112.717 458.879L93.001 470.036C92.292 470.436 91.605 470.335 91.259 470.238C90.9684 470.16 90.6961 470.025 90.4577 469.841C90.2193 469.657 90.0196 469.428 89.87 469.167L31.908 366.754C31.294 365.67 31.692 364.236 32.775 363.622L52.491 352.465C52.8273 352.275 53.2075 352.175 53.594 352.176C53.856 352.176 54.079 352.219 54.233 352.262C54.58 352.358 55.222 352.626 55.622 353.332L113.584 455.748C114.198 456.831 113.8 458.265 112.717 458.879ZM384.73 358.652L257.213 437.172C247.542 443.126 236.923 444.613 225.65 441.591L133.158 416.807C132.137 416.534 131.072 416.464 130.024 416.602C128.977 416.74 127.966 417.084 127.051 417.612L114.574 424.816L81.585 366.528L132.415 337.099C143.771 330.525 156.02 325.005 168.64 329.098C172.882 330.474 177.791 332.249 183.475 334.304C199.843 340.222 220.176 347.574 241.344 351.459C247.698 353.745 251.251 359.868 249.638 365.886C247.923 372.284 243.137 375.073 235.407 374.2C225.167 372.088 215.4 369.302 205.068 366.351C200.124 364.939 195.013 363.479 189.751 362.07C187.706 361.568 185.546 361.887 183.733 362.959C181.921 364.031 180.6 365.771 180.055 367.805C179.51 369.839 179.784 372.005 180.818 373.84C181.852 375.674 183.563 377.031 185.585 377.618C190.719 378.993 195.766 380.435 200.647 381.829C211.405 384.902 221.567 387.804 232.541 390.048C232.594 390.059 232.806 390.098 232.862 390.107L241.604 391.528C255.101 393.687 267.089 391.579 278.25 385.079L348.517 344.152C367.489 333.103 382.503 331.633 387.702 340.313C391.214 346.175 389.686 355.602 384.73 358.652ZM57.319 370.666C57.4527 371.581 57.4049 372.513 57.1784 373.409C56.9519 374.305 56.5511 375.148 55.9988 375.889C55.4466 376.631 54.7538 377.256 53.9599 377.73C53.166 378.203 52.2867 378.516 51.372 378.649C47.525 379.212 43.951 376.549 43.389 372.702C43.119 370.855 43.5939 368.976 44.7092 367.479C45.8244 365.982 47.4888 364.989 49.336 364.719C51.1832 364.449 53.0621 364.924 54.5592 366.039C56.0563 367.155 57.049 368.819 57.319 370.666ZM165.321 94.7533C167.851 99.6863 169.244 102.404 169.576 104.286C169.908 106.168 169.527 109.199 168.838 114.699C168.627 116.367 168.421 118.036 168.221 119.705C166.885 130.89 172.944 141.384 183.298 145.819C184.478 146.324 185.566 146.785 186.581 147.214L165.748 191.959C165.128 193.293 164.884 194.771 165.045 196.233C165.205 197.695 165.763 199.085 166.658 200.252C167.552 201.419 168.75 202.319 170.12 202.854C171.49 203.389 172.98 203.538 174.429 203.285L196.879 199.362L208.329 219.066C209.068 220.338 210.141 221.384 211.432 222.089C212.723 222.793 214.183 223.131 215.652 223.064C217.122 222.997 218.545 222.529 219.767 221.71C220.989 220.891 221.963 219.753 222.583 218.419L243.974 172.475C246.506 171.738 248.224 171.339 249.486 171.339C251.397 171.339 254.316 172.24 259.613 173.875L260.532 174.158L275.742 209.473C276.323 210.825 277.264 211.991 278.462 212.845C279.66 213.699 281.069 214.208 282.536 214.317C284.003 214.427 285.472 214.131 286.783 213.464C288.094 212.797 289.197 211.783 289.972 210.532L301.988 191.168L324.314 195.74C325.755 196.035 327.249 195.93 328.634 195.435C330.019 194.941 331.242 194.076 332.17 192.936C333.099 191.795 333.696 190.422 333.899 188.965C334.102 187.508 333.902 186.024 333.32 184.673L316.43 145.458C326.315 140.842 332.055 130.609 330.751 119.704C330.551 118.035 330.345 116.367 330.134 114.699C329.444 109.198 329.064 106.168 329.396 104.286C329.728 102.404 331.122 99.6863 333.651 94.7533C334.335 93.4193 335.097 91.9332 335.943 90.2602C341.025 80.2072 338.921 68.2732 330.707 60.5642C329.481 59.4144 328.251 58.2684 327.017 57.1263C322.953 53.3553 320.714 51.2782 319.758 49.6232C318.802 47.9682 318.123 44.9902 316.89 39.5852C316.518 37.9457 316.14 36.3074 315.757 34.6702C313.187 23.7032 303.904 15.9142 292.657 15.2882C290.979 15.1959 289.3 15.1089 287.621 15.0272C282.084 14.7512 279.034 14.5992 277.237 13.9452C275.44 13.2912 273.007 11.4472 268.588 8.10025C267.393 7.19525 266.062 6.18625 264.561 5.06325C255.543 -1.68675 243.425 -1.68875 234.407 5.06325C233.062 6.07156 231.72 7.08389 230.381 8.10025C225.962 11.4482 223.527 13.2922 221.731 13.9462C219.935 14.6002 216.884 14.7522 211.347 15.0282C209.85 15.1022 208.183 15.1852 206.311 15.2892C195.063 15.9152 185.78 23.7042 183.211 34.6722C182.783 36.4982 182.412 38.1262 182.078 39.5882C180.845 44.9922 180.165 47.9702 179.21 49.6252C178.254 51.2802 176.016 53.3573 171.951 57.1283C170.717 58.2701 169.487 59.4161 168.261 60.5662C160.047 68.2752 157.943 80.2092 163.025 90.2622C163.876 91.9332 164.638 93.4193 165.321 94.7533ZM214.501 197.649L207.98 186.426C207.152 185.004 205.909 183.87 204.417 183.175C202.926 182.48 201.257 182.259 199.636 182.541L186.85 184.775L200.269 155.953C201.15 157.236 202.176 158.822 203.458 160.807C204.271 162.067 205.177 163.468 206.203 165.038C210.443 171.522 217.154 175.505 224.44 176.301L214.501 197.649ZM299.725 174.275C298.113 173.944 296.438 174.116 294.926 174.767C293.415 175.418 292.139 176.517 291.272 177.916L284.428 188.944L278.634 175.491C284.293 173.881 289.343 170.283 292.773 165.039C293.799 163.47 294.704 162.068 295.517 160.809C298.525 156.151 300.182 153.585 301.646 152.357C301.698 152.313 301.766 152.269 301.821 152.226L312.44 176.88L299.725 174.275ZM179.281 72.3002C180.485 71.1718 181.692 70.0471 182.903 68.9262C193.674 58.9342 194.508 57.4902 197.775 43.1672C198.103 41.7322 198.467 40.1342 198.887 38.3412C199.827 34.3282 203.094 31.5882 207.209 31.3592C209.046 31.2572 210.682 31.1752 212.151 31.1022C226.825 30.3712 228.392 29.8002 240.103 20.9292C241.417 19.9317 242.735 18.938 244.055 17.9482C247.355 15.4782 251.618 15.4772 254.918 17.9482C256.239 18.9378 257.556 19.9314 258.871 20.9292C270.581 29.8002 272.149 30.3712 286.823 31.1022C288.293 31.1752 289.928 31.2572 291.766 31.3592C295.881 31.5882 299.148 34.3292 300.088 38.3422C300.507 40.1342 300.872 41.7312 301.2 43.1662C304.468 57.4902 305.302 58.9342 316.073 68.9262C317.152 69.9262 318.353 71.0412 319.695 72.3002C322.7 75.1212 323.44 79.3203 321.581 82.9993C320.751 84.6413 320.003 86.0992 319.332 87.4092C312.628 100.483 312.339 102.125 314.167 116.703C314.35 118.163 314.554 119.789 314.772 121.616C315.261 125.709 313.129 129.402 309.34 131.024C307.822 131.673 306.302 132.317 304.781 132.957C291.242 138.662 289.965 139.734 281.994 152.078C281.196 153.314 280.308 154.69 279.301 156.229C277.045 159.678 273.038 161.138 269.093 159.945C267.514 159.467 265.937 158.984 264.361 158.496C257.341 156.33 253.414 155.247 249.487 155.247C245.56 155.247 241.633 156.33 234.614 158.496C233.208 158.93 231.643 159.413 229.882 159.945C225.937 161.136 221.928 159.68 219.673 156.229C218.666 154.69 217.777 153.313 216.979 152.077C209.009 139.734 207.731 138.662 194.192 132.957C192.671 132.318 191.151 131.674 189.634 131.025C185.845 129.403 183.714 125.71 184.202 121.617C184.421 119.79 184.624 118.164 184.807 116.704C186.635 102.126 186.346 100.484 179.642 87.4102C178.971 86.1012 178.223 84.6433 177.393 83.0003C175.536 79.3203 176.276 75.1212 179.281 72.3002ZM249.488 144.164C280.334 144.164 305.429 119.069 305.429 88.2223C305.429 57.3763 280.334 32.2812 249.488 32.2812C218.642 32.2812 193.547 57.3763 193.547 88.2223C193.547 119.069 218.642 144.164 249.488 144.164ZM249.488 48.3772C271.459 48.3772 289.333 66.2523 289.333 88.2223C289.333 110.193 271.458 128.067 249.488 128.067C227.518 128.067 209.643 110.192 209.643 88.2223C209.643 66.2523 227.517 48.3772 249.488 48.3772ZM234.415 108.388L221.281 95.2542C219.797 93.7398 218.971 91.701 218.982 89.5807C218.992 87.4605 219.839 85.4302 221.339 83.9309C222.838 82.4317 224.868 81.5846 226.988 81.5738C229.109 81.563 231.148 82.3893 232.662 83.8732L240.374 91.5853L266.596 67.7892C267.379 67.0788 268.293 66.5296 269.288 66.1728C270.283 65.8161 271.339 65.6588 272.394 65.7101C273.45 65.7614 274.485 66.0201 275.441 66.4716C276.397 66.923 277.254 67.5584 277.964 68.3412C278.674 69.1239 279.223 70.0388 279.58 71.0336C279.937 72.0285 280.094 73.0839 280.043 74.1396C279.991 75.1952 279.733 76.2304 279.281 77.1861C278.83 78.1417 278.195 78.9991 277.412 79.7093L245.513 108.657C244.034 110.003 242.106 110.747 240.106 110.745C239.049 110.746 238.002 110.539 237.025 110.134C236.049 109.73 235.162 109.136 234.415 108.388ZM426.964 79.7602C387.256 79.7602 354.952 112.064 354.952 151.772C354.952 191.479 387.256 223.784 426.964 223.784C466.671 223.784 498.975 191.479 498.975 151.772C498.976 112.064 466.671 79.7602 426.964 79.7602ZM426.964 207.688C396.132 207.688 371.048 182.604 371.048 151.772C371.048 120.94 396.132 95.8562 426.964 95.8562C457.796 95.8562 482.879 120.94 482.879 151.772C482.88 182.604 457.796 207.688 426.964 207.688ZM455.361 165.775C456.097 171.84 454.454 177.395 450.609 181.842C446.983 186.034 441.414 189.049 435.013 190.424V192.248C435.013 194.383 434.165 196.43 432.656 197.939C431.146 199.448 429.099 200.296 426.965 200.296C424.831 200.296 422.783 199.448 421.274 197.939C419.765 196.43 418.917 194.383 418.917 192.248V190.285C408.782 187.793 401.067 180.678 398.636 170.924C398.368 169.895 398.307 168.822 398.456 167.769C398.605 166.716 398.962 165.702 399.505 164.788C400.048 163.873 400.767 163.075 401.621 162.44C402.474 161.805 403.445 161.346 404.477 161.088C405.51 160.831 406.583 160.781 407.634 160.941C408.686 161.1 409.696 161.467 410.605 162.02C411.514 162.572 412.304 163.3 412.931 164.16C413.557 165.02 414.006 165.995 414.253 167.03C415.797 173.226 422.391 175.3 427.607 175.155C432.117 175.048 436.569 173.467 438.433 171.312C439.034 170.617 439.616 169.647 439.381 167.715C439.159 165.887 438.639 161.605 425.717 159.483C404.585 156.013 400.871 143.98 400.538 137.116C399.997 125.982 407.328 116.613 418.916 113.406V111.295C418.916 106.85 422.519 103.247 426.964 103.247C431.409 103.247 435.012 106.85 435.012 111.295V113.333C442.483 115.321 449.47 120.305 453.215 129.225C453.634 130.201 453.857 131.251 453.868 132.313C453.88 133.376 453.681 134.43 453.284 135.415C452.886 136.401 452.297 137.297 451.551 138.054C450.805 138.81 449.917 139.412 448.937 139.823C447.957 140.234 446.906 140.448 445.843 140.451C444.781 140.454 443.728 140.246 442.746 139.84C441.765 139.435 440.873 138.838 440.122 138.086C439.372 137.334 438.778 136.44 438.375 135.457C435.35 128.254 427.85 127.849 423.895 128.747C422.121 129.149 416.352 130.886 416.616 136.336C416.687 137.809 416.877 141.72 428.326 143.6C444.807 146.306 453.903 153.767 455.361 165.775ZM72.012 223.784C111.72 223.784 144.024 191.479 144.024 151.772C144.024 112.065 111.72 79.7602 72.012 79.7602C32.305 79.7602 0 112.064 0 151.772C0 191.479 32.305 223.784 72.012 223.784ZM72.012 95.8562C102.844 95.8562 127.929 120.94 127.929 151.772C127.929 182.604 102.845 207.688 72.012 207.688C41.179 207.688 16.096 182.604 16.096 151.772C16.096 120.94 41.18 95.8562 72.012 95.8562ZM40.278 179.529C39.196 183.507 40.653 187.644 43.988 190.069C47.323 192.493 51.708 192.604 55.164 190.343L72.013 179.312L88.867 190.345C90.4666 191.4 92.34 191.963 94.256 191.965C96.3363 191.962 98.3616 191.297 100.04 190.068C103.375 187.643 104.83 183.505 103.748 179.529L98.465 160.096L114.163 147.479C117.377 144.895 118.631 140.69 117.356 136.768C116.081 132.846 112.596 130.181 108.477 129.981L88.362 129.001L81.214 110.173C79.752 106.322 76.141 103.833 72.015 103.833C67.889 103.833 64.278 106.322 62.816 110.173L55.668 129.001L35.553 129.981C31.433 130.181 27.948 132.846 26.673 136.769C25.398 140.692 26.652 144.896 29.867 147.479L45.564 160.096L40.278 179.529ZM60.538 144.877C62.4505 144.784 64.2943 144.135 65.8435 143.009C67.3927 141.884 68.58 140.331 69.26 138.541L72.013 131.29L74.768 138.545C75.4479 140.334 76.6349 141.886 78.1836 143.011C79.7322 144.136 81.5753 144.784 83.487 144.877L91.235 145.255L85.192 150.112C83.6982 151.311 82.587 152.92 81.9947 154.741C81.4024 156.563 81.3549 158.517 81.858 160.365L83.893 167.851L77.403 163.603C75.8014 162.554 73.928 161.995 72.013 161.995C70.0982 161.995 68.2249 162.553 66.623 163.602L60.133 167.851L62.169 160.363C62.6712 158.516 62.6235 156.563 62.0319 154.742C61.4402 152.922 60.3302 151.313 58.838 150.114L52.792 145.254L60.538 144.877ZM165.012 280.645C166.521 282.155 167.369 284.202 167.369 286.336C167.369 288.471 166.521 290.518 165.012 292.027C163.503 293.537 161.456 294.385 159.321 294.385C157.186 294.385 155.139 293.537 153.63 292.027L115.424 253.821C113.925 252.31 113.085 250.266 113.089 248.137C113.093 246.008 113.941 243.968 115.446 242.462C116.951 240.957 118.992 240.109 121.121 240.105C123.25 240.101 125.294 240.94 126.805 242.439L165.012 280.645ZM249.488 232.17C251.622 232.17 253.67 233.018 255.179 234.527C256.688 236.037 257.536 238.084 257.536 240.218V294.249C257.536 296.384 256.688 298.431 255.179 299.94C253.67 301.449 251.622 302.297 249.488 302.297C247.354 302.297 245.307 301.449 243.797 299.94C242.288 298.431 241.44 296.384 241.44 294.249V240.218C241.44 238.084 242.288 236.037 243.797 234.527C245.307 233.018 247.354 232.17 249.488 232.17ZM333.966 280.645L372.172 242.439C373.69 240.97 375.724 240.157 377.836 240.174C379.948 240.191 381.968 241.038 383.462 242.532C384.955 244.025 385.802 246.046 385.819 248.158C385.836 250.27 385.022 252.304 383.553 253.821L345.347 292.027C343.776 293.598 341.716 294.384 339.656 294.384C337.596 294.384 335.537 293.598 333.965 292.027C332.456 290.518 331.609 288.47 331.609 286.336C331.609 284.202 332.457 282.155 333.966 280.645Z" fill="url(#paint0_linear_1065_328)"/>
<defs>
<linearGradient id="paint0_linear_1065_328" x1="17.8033" y1="31.352" x2="479.375" y2="574.741" gradientUnits="userSpaceOnUse">
<stop stop-color="#1BA2D7"/>
<stop offset="1" stop-color="#8D3DFA"/>
</linearGradient>
</defs>
</svg>
