<svg width="503" height="300" viewBox="0 0 503 300" fill="none" xmlns="http://www.w3.org/2000/svg">
<path d="M497.209 299.121H5.68889C2.50311 299.121 0 296.618 0 293.432C0 290.246 2.50311 287.743 5.68889 287.743H497.209C500.395 287.743 502.898 290.246 502.898 293.432C502.898 296.618 500.281 299.121 497.209 299.121ZM100.238 186.253C79.0756 186.253 61.8951 169.073 61.8951 147.91V121.855C61.8951 100.692 79.0756 83.5117 100.238 83.5117C121.401 83.5117 138.581 100.692 138.581 121.855V147.91C138.581 169.073 121.401 186.253 100.238 186.253ZM100.238 94.8895C85.3333 94.8895 73.2729 106.95 73.2729 121.855V147.91C73.2729 162.815 85.3333 174.875 100.238 174.875C115.143 174.875 127.204 162.815 127.204 147.91V121.855C127.204 107.064 115.143 94.8895 100.238 94.8895Z" fill="white"/>
<path d="M497.209 299.121H5.68889C2.50311 299.121 0 296.618 0 293.432C0 290.246 2.50311 287.743 5.68889 287.743H497.209C500.395 287.743 502.898 290.246 502.898 293.432C502.898 296.618 500.281 299.121 497.209 299.121ZM100.238 186.253C79.0756 186.253 61.8951 169.073 61.8951 147.91V121.855C61.8951 100.692 79.0756 83.5117 100.238 83.5117C121.401 83.5117 138.581 100.692 138.581 121.855V147.91C138.581 169.073 121.401 186.253 100.238 186.253ZM100.238 94.8895C85.3333 94.8895 73.2729 106.95 73.2729 121.855V147.91C73.2729 162.815 85.3333 174.875 100.238 174.875C115.143 174.875 127.204 162.815 127.204 147.91V121.855C127.204 107.064 115.143 94.8895 100.238 94.8895Z" fill="url(#paint0_linear_1065_336)"/>
<path d="M120.262 136.192C102.058 136.192 89.5422 126.976 86.3564 120.604C86.2427 120.377 86.1289 120.263 86.0151 120.035C85.6738 120.49 85.3324 121.059 84.8773 121.856C80.44 130.275 71.9067 132.323 68.4933 132.892C65.4213 133.347 62.4631 131.185 62.008 128.113C61.5529 125.041 63.7147 122.083 66.7867 121.628C68.9484 121.287 72.9307 120.263 74.7511 116.622C78.6196 109.34 83.0569 107.747 86.2427 107.861C89.0871 107.861 93.2969 109.226 96.4827 115.598C97.3929 117.532 108.998 129.024 131.526 123.449C134.598 122.652 137.67 124.586 138.353 127.658C139.036 130.73 137.215 133.802 134.143 134.485C129.251 135.737 124.586 136.192 120.262 136.192ZM24.6889 299.121C21.5031 299.121 19 296.618 19 293.433V229.034C19 208.668 32.6533 190.236 52.1093 184.206C52.5644 184.092 53.0196 183.978 53.4747 183.978L77.2542 182.499V175.673C77.2542 172.487 79.7573 169.984 82.9431 169.984C86.1289 169.984 88.632 172.487 88.632 175.673V187.847C88.632 190.805 86.3564 193.308 83.2844 193.536L54.9538 195.356C40.3902 200.021 30.3778 213.788 30.3778 229.034V293.433C30.3778 296.618 27.8747 299.121 24.6889 299.121ZM175.786 234.723C172.6 234.723 170.097 232.22 170.097 229.034C170.097 210.716 155.875 195.242 137.67 193.536L117.532 193.422C114.46 193.422 111.843 190.805 111.843 187.733V175.559C111.843 172.373 114.346 169.87 117.532 169.87C120.717 169.87 123.22 172.373 123.22 175.559V182.158L137.898 182.272H138.353C162.474 184.32 181.361 204.913 181.361 229.034C181.475 232.106 178.972 234.723 175.786 234.723ZM175.786 265.557H145.066C141.88 265.557 139.377 263.054 139.377 259.868C139.377 256.682 141.88 254.179 145.066 254.179H175.786C178.972 254.179 181.475 256.682 181.475 259.868C181.475 263.054 178.972 265.557 175.786 265.557Z" fill="white"/>
<path d="M120.262 136.192C102.058 136.192 89.5422 126.976 86.3564 120.604C86.2427 120.377 86.1289 120.263 86.0151 120.035C85.6738 120.49 85.3324 121.059 84.8773 121.856C80.44 130.275 71.9067 132.323 68.4933 132.892C65.4213 133.347 62.4631 131.185 62.008 128.113C61.5529 125.041 63.7147 122.083 66.7867 121.628C68.9484 121.287 72.9307 120.263 74.7511 116.622C78.6196 109.34 83.0569 107.747 86.2427 107.861C89.0871 107.861 93.2969 109.226 96.4827 115.598C97.3929 117.532 108.998 129.024 131.526 123.449C134.598 122.652 137.67 124.586 138.353 127.658C139.036 130.73 137.215 133.802 134.143 134.485C129.251 135.737 124.586 136.192 120.262 136.192ZM24.6889 299.121C21.5031 299.121 19 296.618 19 293.433V229.034C19 208.668 32.6533 190.236 52.1093 184.206C52.5644 184.092 53.0196 183.978 53.4747 183.978L77.2542 182.499V175.673C77.2542 172.487 79.7573 169.984 82.9431 169.984C86.1289 169.984 88.632 172.487 88.632 175.673V187.847C88.632 190.805 86.3564 193.308 83.2844 193.536L54.9538 195.356C40.3902 200.021 30.3778 213.788 30.3778 229.034V293.433C30.3778 296.618 27.8747 299.121 24.6889 299.121ZM175.786 234.723C172.6 234.723 170.097 232.22 170.097 229.034C170.097 210.716 155.875 195.242 137.67 193.536L117.532 193.422C114.46 193.422 111.843 190.805 111.843 187.733V175.559C111.843 172.373 114.346 169.87 117.532 169.87C120.717 169.87 123.22 172.373 123.22 175.559V182.158L137.898 182.272H138.353C162.474 184.32 181.361 204.913 181.361 229.034C181.475 232.106 178.972 234.723 175.786 234.723ZM175.786 265.557H145.066C141.88 265.557 139.377 263.054 139.377 259.868C139.377 256.682 141.88 254.179 145.066 254.179H175.786C178.972 254.179 181.475 256.682 181.475 259.868C181.475 263.054 178.972 265.557 175.786 265.557Z" fill="url(#paint1_linear_1065_336)"/>
<path d="M145.066 299.123C141.88 299.123 139.377 296.62 139.377 293.434V239.504C139.377 236.318 141.88 233.815 145.066 233.815C148.252 233.815 150.755 236.318 150.755 239.504V293.434C150.755 296.62 148.252 299.123 145.066 299.123ZM100.237 207.987C98.9858 207.987 97.6204 207.532 96.5964 206.622L79.1884 192.058C76.7991 190.01 76.4578 186.483 78.5058 184.094C80.5538 181.704 84.0809 181.363 86.4702 183.411L100.237 194.903L114.004 183.411C116.394 181.363 120.035 181.704 121.969 184.094C123.903 186.483 123.676 190.124 121.286 192.058L103.878 206.622C102.854 207.532 101.603 207.987 100.237 207.987ZM55.4089 265.559H24.6889C21.5031 265.559 19 263.056 19 259.87C19 256.684 21.5031 254.181 24.6889 254.181H55.4089C58.5947 254.181 61.0978 256.684 61.0978 259.87C61.0978 263.056 58.5947 265.559 55.4089 265.559Z" fill="white"/>
<path d="M145.066 299.123C141.88 299.123 139.377 296.62 139.377 293.434V239.504C139.377 236.318 141.88 233.815 145.066 233.815C148.252 233.815 150.755 236.318 150.755 239.504V293.434C150.755 296.62 148.252 299.123 145.066 299.123ZM100.237 207.987C98.9858 207.987 97.6204 207.532 96.5964 206.622L79.1884 192.058C76.7991 190.01 76.4578 186.483 78.5058 184.094C80.5538 181.704 84.0809 181.363 86.4702 183.411L100.237 194.903L114.004 183.411C116.394 181.363 120.035 181.704 121.969 184.094C123.903 186.483 123.676 190.124 121.286 192.058L103.878 206.622C102.854 207.532 101.603 207.987 100.237 207.987ZM55.4089 265.559H24.6889C21.5031 265.559 19 263.056 19 259.87C19 256.684 21.5031 254.181 24.6889 254.181H55.4089C58.5947 254.181 61.0978 256.684 61.0978 259.87C61.0978 263.056 58.5947 265.559 55.4089 265.559Z" fill="url(#paint2_linear_1065_336)"/>
<path d="M55.4115 299.121C52.2258 299.121 49.7227 296.618 49.7227 293.432V239.501C49.7227 236.315 52.2258 233.812 55.4115 233.812C58.5973 233.812 61.1004 236.315 61.1004 239.501V293.432C61.1004 296.618 58.5973 299.121 55.4115 299.121ZM251.451 186.253C230.288 186.253 213.108 169.073 213.108 147.91V121.855C213.108 100.692 230.288 83.5117 251.451 83.5117C272.613 83.5117 289.794 100.692 289.794 121.855V147.91C289.68 169.073 272.5 186.253 251.451 186.253ZM251.451 94.8895C236.546 94.8895 224.485 106.95 224.485 121.855V147.91C224.485 162.815 236.546 174.875 251.451 174.875C266.356 174.875 278.416 162.815 278.416 147.91V121.855C278.302 107.064 266.242 94.8895 251.451 94.8895Z" fill="white"/>
<path d="M55.4115 299.121C52.2258 299.121 49.7227 296.618 49.7227 293.432V239.501C49.7227 236.315 52.2258 233.812 55.4115 233.812C58.5973 233.812 61.1004 236.315 61.1004 239.501V293.432C61.1004 296.618 58.5973 299.121 55.4115 299.121ZM251.451 186.253C230.288 186.253 213.108 169.073 213.108 147.91V121.855C213.108 100.692 230.288 83.5117 251.451 83.5117C272.613 83.5117 289.794 100.692 289.794 121.855V147.91C289.68 169.073 272.5 186.253 251.451 186.253ZM251.451 94.8895C236.546 94.8895 224.485 106.95 224.485 121.855V147.91C224.485 162.815 236.546 174.875 251.451 174.875C266.356 174.875 278.416 162.815 278.416 147.91V121.855C278.302 107.064 266.242 94.8895 251.451 94.8895Z" fill="url(#paint3_linear_1065_336)"/>
<path d="M231.424 136.194C227.1 136.194 222.322 135.625 217.429 134.487C214.357 133.691 212.537 130.619 213.219 127.661C213.902 124.702 217.088 122.768 220.046 123.451C242.574 128.912 254.179 117.421 255.09 115.6C258.275 109.229 262.371 107.863 265.33 107.863H265.443C268.515 107.863 273.067 109.456 276.821 116.624C278.755 120.265 282.624 121.289 284.786 121.63C287.858 122.085 290.019 124.93 289.564 128.116C289.109 131.301 286.265 133.35 283.079 132.894C279.552 132.439 271.019 130.277 266.695 121.858C266.24 121.061 265.899 120.493 265.557 120.038C265.443 120.151 265.33 120.379 265.216 120.606C262.144 127.092 249.742 136.194 231.424 136.194ZM326.997 299.124C323.811 299.124 321.308 296.621 321.308 293.435V229.037C321.308 213.79 311.296 200.023 296.846 195.245L268.515 193.424C265.557 193.197 263.168 190.693 263.168 187.735V175.561C263.168 172.375 265.671 169.872 268.857 169.872C272.043 169.872 274.546 172.375 274.546 175.561V182.388L298.325 183.867C298.78 183.867 299.235 183.981 299.691 184.094C319.147 190.125 332.8 208.67 332.8 228.923V293.321C332.686 296.621 330.069 299.124 326.997 299.124ZM175.787 299.124C172.601 299.124 170.098 296.621 170.098 293.435V229.037C170.098 204.802 188.985 184.208 213.106 182.274H213.561L228.238 182.16V175.561C228.238 172.375 230.741 169.872 233.927 169.872C237.113 169.872 239.616 172.375 239.616 175.561V187.735C239.616 190.807 237.113 193.424 233.927 193.424L213.788 193.538C195.584 195.131 181.362 210.718 181.362 229.037V293.435C181.475 296.621 178.972 299.124 175.787 299.124Z" fill="white"/>
<path d="M231.424 136.194C227.1 136.194 222.322 135.625 217.429 134.487C214.357 133.691 212.537 130.619 213.219 127.661C213.902 124.702 217.088 122.768 220.046 123.451C242.574 128.912 254.179 117.421 255.09 115.6C258.275 109.229 262.371 107.863 265.33 107.863H265.443C268.515 107.863 273.067 109.456 276.821 116.624C278.755 120.265 282.624 121.289 284.786 121.63C287.858 122.085 290.019 124.93 289.564 128.116C289.109 131.301 286.265 133.35 283.079 132.894C279.552 132.439 271.019 130.277 266.695 121.858C266.24 121.061 265.899 120.493 265.557 120.038C265.443 120.151 265.33 120.379 265.216 120.606C262.144 127.092 249.742 136.194 231.424 136.194ZM326.997 299.124C323.811 299.124 321.308 296.621 321.308 293.435V229.037C321.308 213.79 311.296 200.023 296.846 195.245L268.515 193.424C265.557 193.197 263.168 190.693 263.168 187.735V175.561C263.168 172.375 265.671 169.872 268.857 169.872C272.043 169.872 274.546 172.375 274.546 175.561V182.388L298.325 183.867C298.78 183.867 299.235 183.981 299.691 184.094C319.147 190.125 332.8 208.67 332.8 228.923V293.321C332.686 296.621 330.069 299.124 326.997 299.124ZM175.787 299.124C172.601 299.124 170.098 296.621 170.098 293.435V229.037C170.098 204.802 188.985 184.208 213.106 182.274H213.561L228.238 182.16V175.561C228.238 172.375 230.741 169.872 233.927 169.872C237.113 169.872 239.616 172.375 239.616 175.561V187.735C239.616 190.807 237.113 193.424 233.927 193.424L213.788 193.538C195.584 195.131 181.362 210.718 181.362 229.037V293.435C181.475 296.621 178.972 299.124 175.787 299.124Z" fill="url(#paint4_linear_1065_336)"/>
<path d="M206.507 265.557H175.787C172.601 265.557 170.098 263.054 170.098 259.869C170.098 256.683 172.601 254.18 175.787 254.18H206.507C209.692 254.18 212.195 256.683 212.195 259.869C212.195 263.054 209.692 265.557 206.507 265.557Z" fill="white"/>
<path d="M206.507 265.557H175.787C172.601 265.557 170.098 263.054 170.098 259.869C170.098 256.683 172.601 254.18 175.787 254.18H206.507C209.692 254.18 212.195 256.683 212.195 259.869C212.195 263.054 209.692 265.557 206.507 265.557Z" fill="url(#paint5_linear_1065_336)"/>
<path d="M206.505 299.123C203.32 299.123 200.816 296.62 200.816 293.434V239.504C200.816 236.318 203.32 233.815 206.505 233.815C209.691 233.815 212.194 236.318 212.194 239.504V293.434C212.194 296.62 209.691 299.123 206.505 299.123ZM251.448 207.987C250.196 207.987 248.831 207.532 247.807 206.622L230.399 192.058C228.009 190.01 227.668 186.483 229.716 184.094C231.764 181.704 235.291 181.363 237.68 183.411L251.448 194.903L265.215 183.411C267.604 181.363 271.245 181.704 273.179 184.094C275.227 186.483 274.886 190.124 272.496 192.058L255.088 206.622C253.951 207.532 252.699 207.987 251.448 207.987ZM326.996 265.559H296.276C293.09 265.559 290.587 263.056 290.587 259.87C290.587 256.684 293.09 254.181 296.276 254.181H326.996C330.182 254.181 332.685 256.684 332.685 259.87C332.685 263.056 330.068 265.559 326.996 265.559Z" fill="white"/>
<path d="M206.505 299.123C203.32 299.123 200.816 296.62 200.816 293.434V239.504C200.816 236.318 203.32 233.815 206.505 233.815C209.691 233.815 212.194 236.318 212.194 239.504V293.434C212.194 296.62 209.691 299.123 206.505 299.123ZM251.448 207.987C250.196 207.987 248.831 207.532 247.807 206.622L230.399 192.058C228.009 190.01 227.668 186.483 229.716 184.094C231.764 181.704 235.291 181.363 237.68 183.411L251.448 194.903L265.215 183.411C267.604 181.363 271.245 181.704 273.179 184.094C275.227 186.483 274.886 190.124 272.496 192.058L255.088 206.622C253.951 207.532 252.699 207.987 251.448 207.987ZM326.996 265.559H296.276C293.09 265.559 290.587 263.056 290.587 259.87C290.587 256.684 293.09 254.181 296.276 254.181H326.996C330.182 254.181 332.685 256.684 332.685 259.87C332.685 263.056 330.068 265.559 326.996 265.559Z" fill="url(#paint6_linear_1065_336)"/>
<path d="M251.451 299.121C248.265 299.121 245.762 296.618 245.762 293.432V202.296C245.762 199.11 248.265 196.607 251.451 196.607C254.636 196.607 257.139 199.11 257.139 202.296V293.432C257.139 296.618 254.523 299.121 251.451 299.121ZM402.548 186.253C381.385 186.253 364.204 169.073 364.204 147.91V121.855C364.204 100.692 381.385 83.5117 402.548 83.5117C423.71 83.5117 440.891 100.692 440.891 121.855V147.91C440.891 169.073 423.71 186.253 402.548 186.253ZM402.548 94.8895C387.643 94.8895 375.582 106.95 375.582 121.855V147.91C375.582 162.815 387.643 174.875 402.548 174.875C417.452 174.875 429.513 162.815 429.513 147.91V121.855C429.513 107.064 417.339 94.8895 402.548 94.8895Z" fill="white"/>
<path d="M251.451 299.121C248.265 299.121 245.762 296.618 245.762 293.432V202.296C245.762 199.11 248.265 196.607 251.451 196.607C254.636 196.607 257.139 199.11 257.139 202.296V293.432C257.139 296.618 254.523 299.121 251.451 299.121ZM402.548 186.253C381.385 186.253 364.204 169.073 364.204 147.91V121.855C364.204 100.692 381.385 83.5117 402.548 83.5117C423.71 83.5117 440.891 100.692 440.891 121.855V147.91C440.891 169.073 423.71 186.253 402.548 186.253ZM402.548 94.8895C387.643 94.8895 375.582 106.95 375.582 121.855V147.91C375.582 162.815 387.643 174.875 402.548 174.875C417.452 174.875 429.513 162.815 429.513 147.91V121.855C429.513 107.064 417.339 94.8895 402.548 94.8895Z" fill="url(#paint7_linear_1065_336)"/>
<path d="M422.457 136.194C404.253 136.194 391.737 126.978 388.551 120.606C388.437 120.379 388.324 120.265 388.21 120.038C387.869 120.493 387.527 121.061 387.072 121.858C382.635 130.277 374.101 132.326 370.688 132.894C367.616 133.35 364.658 131.188 364.203 128.116C363.748 125.044 365.909 122.085 368.981 121.63C371.143 121.289 375.125 120.265 376.946 116.624C380.701 109.342 385.252 107.863 388.324 107.863H388.437C391.282 107.863 395.492 109.229 398.677 115.6C399.588 117.534 411.193 129.026 433.721 123.451C436.793 122.654 439.865 124.589 440.548 127.661C441.344 130.733 439.41 133.805 436.338 134.487C431.559 135.739 426.894 136.194 422.457 136.194ZM478.094 299.124C474.909 299.124 472.405 296.621 472.405 293.435V229.037C472.405 210.718 458.183 195.245 439.979 193.538L419.84 193.424C416.768 193.424 414.151 190.807 414.151 187.735V175.561C414.151 172.375 416.654 169.872 419.84 169.872C423.026 169.872 425.529 172.375 425.529 175.561V182.16L440.206 182.274H440.661C464.782 184.322 483.669 204.916 483.669 229.037V293.435C483.783 296.621 481.28 299.124 478.094 299.124ZM326.997 234.726C323.812 234.726 321.309 232.222 321.309 229.037C321.309 208.67 334.962 190.238 354.418 184.208C354.873 184.094 355.328 183.981 355.783 183.981L379.563 182.501V175.675C379.563 172.489 382.066 169.986 385.252 169.986C388.437 169.986 390.941 172.489 390.941 175.675V187.849C390.941 190.807 388.665 193.31 385.593 193.538L357.262 195.358C342.813 200.137 332.8 214.018 332.8 229.15C332.686 232.109 330.069 234.726 326.997 234.726Z" fill="white"/>
<path d="M422.457 136.194C404.253 136.194 391.737 126.978 388.551 120.606C388.437 120.379 388.324 120.265 388.21 120.038C387.869 120.493 387.527 121.061 387.072 121.858C382.635 130.277 374.101 132.326 370.688 132.894C367.616 133.35 364.658 131.188 364.203 128.116C363.748 125.044 365.909 122.085 368.981 121.63C371.143 121.289 375.125 120.265 376.946 116.624C380.701 109.342 385.252 107.863 388.324 107.863H388.437C391.282 107.863 395.492 109.229 398.677 115.6C399.588 117.534 411.193 129.026 433.721 123.451C436.793 122.654 439.865 124.589 440.548 127.661C441.344 130.733 439.41 133.805 436.338 134.487C431.559 135.739 426.894 136.194 422.457 136.194ZM478.094 299.124C474.909 299.124 472.405 296.621 472.405 293.435V229.037C472.405 210.718 458.183 195.245 439.979 193.538L419.84 193.424C416.768 193.424 414.151 190.807 414.151 187.735V175.561C414.151 172.375 416.654 169.872 419.84 169.872C423.026 169.872 425.529 172.375 425.529 175.561V182.16L440.206 182.274H440.661C464.782 184.322 483.669 204.916 483.669 229.037V293.435C483.783 296.621 481.28 299.124 478.094 299.124ZM326.997 234.726C323.812 234.726 321.309 232.222 321.309 229.037C321.309 208.67 334.962 190.238 354.418 184.208C354.873 184.094 355.328 183.981 355.783 183.981L379.563 182.501V175.675C379.563 172.489 382.066 169.986 385.252 169.986C388.437 169.986 390.941 172.489 390.941 175.675V187.849C390.941 190.807 388.665 193.31 385.593 193.538L357.262 195.358C342.813 200.137 332.8 214.018 332.8 229.15C332.686 232.109 330.069 234.726 326.997 234.726Z" fill="url(#paint8_linear_1065_336)"/>
<path d="M478.092 265.557H447.372C444.187 265.557 441.684 263.054 441.684 259.869C441.684 256.683 444.187 254.18 447.372 254.18H478.092C481.278 254.18 483.781 256.683 483.781 259.869C483.781 263.054 481.278 265.557 478.092 265.557Z" fill="white"/>
<path d="M478.092 265.557H447.372C444.187 265.557 441.684 263.054 441.684 259.869C441.684 256.683 444.187 254.18 447.372 254.18H478.092C481.278 254.18 483.781 256.683 483.781 259.869C483.781 263.054 481.278 265.557 478.092 265.557Z" fill="url(#paint9_linear_1065_336)"/>
<path d="M447.374 299.123C444.189 299.123 441.685 296.62 441.685 293.434V239.504C441.685 236.318 444.189 233.815 447.374 233.815C450.56 233.815 453.063 236.318 453.063 239.504V293.434C453.063 296.62 450.56 299.123 447.374 299.123ZM402.546 207.987C401.294 207.987 399.929 207.532 398.905 206.622L381.497 192.058C379.108 190.01 378.766 186.483 380.814 184.094C382.862 181.704 386.389 181.363 388.779 183.411L402.546 194.903L416.313 183.411C418.702 181.363 422.343 181.704 424.277 184.094C426.325 186.483 425.984 190.124 423.595 192.058L406.187 206.622C405.163 207.532 403.797 207.987 402.546 207.987ZM357.717 265.559H326.997C323.812 265.559 321.309 263.056 321.309 259.87C321.309 256.684 323.812 254.181 326.997 254.181H357.717C360.903 254.181 363.406 256.684 363.406 259.87C363.406 263.056 360.789 265.559 357.717 265.559Z" fill="white"/>
<path d="M447.374 299.123C444.189 299.123 441.685 296.62 441.685 293.434V239.504C441.685 236.318 444.189 233.815 447.374 233.815C450.56 233.815 453.063 236.318 453.063 239.504V293.434C453.063 296.62 450.56 299.123 447.374 299.123ZM402.546 207.987C401.294 207.987 399.929 207.532 398.905 206.622L381.497 192.058C379.108 190.01 378.766 186.483 380.814 184.094C382.862 181.704 386.389 181.363 388.779 183.411L402.546 194.903L416.313 183.411C418.702 181.363 422.343 181.704 424.277 184.094C426.325 186.483 425.984 190.124 423.595 192.058L406.187 206.622C405.163 207.532 403.797 207.987 402.546 207.987ZM357.717 265.559H326.997C323.812 265.559 321.309 263.056 321.309 259.87C321.309 256.684 323.812 254.181 326.997 254.181H357.717C360.903 254.181 363.406 256.684 363.406 259.87C363.406 263.056 360.789 265.559 357.717 265.559Z" fill="url(#paint10_linear_1065_336)"/>
<path d="M357.719 299.122C354.533 299.122 352.03 296.619 352.03 293.433V239.502C352.03 236.316 354.533 233.813 357.719 233.813C360.905 233.813 363.408 236.316 363.408 239.502V293.433C363.408 296.619 360.791 299.122 357.719 299.122ZM402.547 299.122C399.361 299.122 396.858 296.619 396.858 293.433V202.297C396.858 199.111 399.361 196.608 402.547 196.608C405.733 196.608 408.236 199.111 408.236 202.297V293.433C408.236 296.619 405.733 299.122 402.547 299.122ZM180.339 102.741C159.177 102.741 141.996 85.5609 141.996 64.3982V38.3431C141.996 17.1804 159.177 0 180.339 0C201.502 0 218.682 17.1804 218.682 38.3431V64.3982C218.682 85.5609 201.502 102.741 180.339 102.741ZM180.339 11.3778C165.434 11.3778 153.374 23.4382 153.374 38.3431V64.3982C153.374 79.3031 165.434 91.3636 180.339 91.3636C195.244 91.3636 207.305 79.3031 207.305 64.3982V38.3431C207.305 23.4382 195.244 11.3778 180.339 11.3778Z" fill="white"/>
<path d="M357.719 299.122C354.533 299.122 352.03 296.619 352.03 293.433V239.502C352.03 236.316 354.533 233.813 357.719 233.813C360.905 233.813 363.408 236.316 363.408 239.502V293.433C363.408 296.619 360.791 299.122 357.719 299.122ZM402.547 299.122C399.361 299.122 396.858 296.619 396.858 293.433V202.297C396.858 199.111 399.361 196.608 402.547 196.608C405.733 196.608 408.236 199.111 408.236 202.297V293.433C408.236 296.619 405.733 299.122 402.547 299.122ZM180.339 102.741C159.177 102.741 141.996 85.5609 141.996 64.3982V38.3431C141.996 17.1804 159.177 0 180.339 0C201.502 0 218.682 17.1804 218.682 38.3431V64.3982C218.682 85.5609 201.502 102.741 180.339 102.741ZM180.339 11.3778C165.434 11.3778 153.374 23.4382 153.374 38.3431V64.3982C153.374 79.3031 165.434 91.3636 180.339 91.3636C195.244 91.3636 207.305 79.3031 207.305 64.3982V38.3431C207.305 23.4382 195.244 11.3778 180.339 11.3778Z" fill="url(#paint11_linear_1065_336)"/>
<path d="M160.425 52.6783C156.102 52.6783 151.323 52.1094 146.43 50.9717C143.358 50.1752 141.538 47.1032 142.221 44.145C142.903 41.1868 146.089 39.2525 149.047 39.9352C171.575 45.3965 183.181 33.905 184.091 32.0845C187.277 25.713 191.373 24.3477 194.331 24.3477C197.403 24.3477 201.954 25.8268 205.822 33.1086C207.757 36.7494 211.625 37.7734 213.787 38.1148C216.859 38.5699 219.021 41.4143 218.566 44.6001C218.11 47.6721 215.266 49.8339 212.08 49.3788C208.553 48.9237 200.02 46.7619 195.696 38.3423C195.241 37.5459 194.9 36.977 194.558 36.5219C194.445 36.6357 194.331 36.8632 194.217 37.0908C191.145 43.4623 178.63 52.6783 160.425 52.6783ZM129.591 113.322C127.43 113.322 125.268 112.07 124.358 109.909C123.106 107.064 124.358 103.651 127.316 102.399C131.981 100.351 136.987 99.0997 142.221 98.6446H142.676L157.353 98.5308V91.9317C157.353 88.7459 159.856 86.2428 163.042 86.2428C166.228 86.2428 168.731 88.7459 168.731 91.9317V104.106C168.731 107.178 166.228 109.795 163.042 109.795L142.903 109.909C139.149 110.25 135.394 111.16 131.867 112.753C131.184 113.094 130.388 113.322 129.591 113.322ZM223.117 111.501H222.775L197.517 109.909C194.558 109.681 192.169 107.178 192.169 104.22V92.0454C192.169 88.8597 194.672 86.3565 197.858 86.3565C201.044 86.3565 203.547 88.8597 203.547 92.0454V98.8721L223.458 100.124C226.644 100.351 228.919 103.082 228.806 106.154C228.578 109.112 226.075 111.501 223.117 111.501Z" fill="white"/>
<path d="M160.425 52.6783C156.102 52.6783 151.323 52.1094 146.43 50.9717C143.358 50.1752 141.538 47.1032 142.221 44.145C142.903 41.1868 146.089 39.2525 149.047 39.9352C171.575 45.3965 183.181 33.905 184.091 32.0845C187.277 25.713 191.373 24.3477 194.331 24.3477C197.403 24.3477 201.954 25.8268 205.822 33.1086C207.757 36.7494 211.625 37.7734 213.787 38.1148C216.859 38.5699 219.021 41.4143 218.566 44.6001C218.11 47.6721 215.266 49.8339 212.08 49.3788C208.553 48.9237 200.02 46.7619 195.696 38.3423C195.241 37.5459 194.9 36.977 194.558 36.5219C194.445 36.6357 194.331 36.8632 194.217 37.0908C191.145 43.4623 178.63 52.6783 160.425 52.6783ZM129.591 113.322C127.43 113.322 125.268 112.07 124.358 109.909C123.106 107.064 124.358 103.651 127.316 102.399C131.981 100.351 136.987 99.0997 142.221 98.6446H142.676L157.353 98.5308V91.9317C157.353 88.7459 159.856 86.2428 163.042 86.2428C166.228 86.2428 168.731 88.7459 168.731 91.9317V104.106C168.731 107.178 166.228 109.795 163.042 109.795L142.903 109.909C139.149 110.25 135.394 111.16 131.867 112.753C131.184 113.094 130.388 113.322 129.591 113.322ZM223.117 111.501H222.775L197.517 109.909C194.558 109.681 192.169 107.178 192.169 104.22V92.0454C192.169 88.8597 194.672 86.3565 197.858 86.3565C201.044 86.3565 203.547 88.8597 203.547 92.0454V98.8721L223.458 100.124C226.644 100.351 228.919 103.082 228.806 106.154C228.578 109.112 226.075 111.501 223.117 111.501Z" fill="url(#paint12_linear_1065_336)"/>
<path d="M180.338 124.472C179.086 124.472 177.721 124.016 176.697 123.106L159.289 108.543C156.9 106.495 156.558 102.968 158.606 100.578C160.654 98.1889 164.182 97.8475 166.571 99.8955L180.338 111.387L194.105 99.8955C196.494 97.8475 200.135 98.1889 202.07 100.578C204.118 102.968 203.776 106.608 201.387 108.543L183.979 123.106C182.955 124.016 181.703 124.472 180.338 124.472Z" fill="white"/>
<path d="M180.338 124.472C179.086 124.472 177.721 124.016 176.697 123.106L159.289 108.543C156.9 106.495 156.558 102.968 158.606 100.578C160.654 98.1889 164.182 97.8475 166.571 99.8955L180.338 111.387L194.105 99.8955C196.494 97.8475 200.135 98.1889 202.07 100.578C204.118 102.968 203.776 106.608 201.387 108.543L183.979 123.106C182.955 124.016 181.703 124.472 180.338 124.472Z" fill="url(#paint13_linear_1065_336)"/>
<path d="M180.337 215.95C177.152 215.95 174.648 213.447 174.648 210.261V118.67C174.648 115.484 177.152 112.981 180.337 112.981C183.523 112.981 186.026 115.484 186.026 118.67V210.261C186.026 213.447 183.523 215.95 180.337 215.95ZM322.446 102.741C301.283 102.741 284.103 85.5609 284.103 64.3982V38.3431C284.103 17.1804 301.283 0 322.446 0C343.608 0 360.789 17.1804 360.789 38.3431V64.3982C360.789 85.5609 343.608 102.741 322.446 102.741ZM322.446 11.3778C307.541 11.3778 295.48 23.4382 295.48 38.3431V64.3982C295.48 79.3031 307.541 91.3636 322.446 91.3636C337.351 91.3636 349.411 79.3031 349.411 64.3982V38.3431C349.411 23.4382 337.237 11.3778 322.446 11.3778Z" fill="white"/>
<path d="M180.337 215.95C177.152 215.95 174.648 213.447 174.648 210.261V118.67C174.648 115.484 177.152 112.981 180.337 112.981C183.523 112.981 186.026 115.484 186.026 118.67V210.261C186.026 213.447 183.523 215.95 180.337 215.95ZM322.446 102.741C301.283 102.741 284.103 85.5609 284.103 64.3982V38.3431C284.103 17.1804 301.283 0 322.446 0C343.608 0 360.789 17.1804 360.789 38.3431V64.3982C360.789 85.5609 343.608 102.741 322.446 102.741ZM322.446 11.3778C307.541 11.3778 295.48 23.4382 295.48 38.3431V64.3982C295.48 79.3031 307.541 91.3636 322.446 91.3636C337.351 91.3636 349.411 79.3031 349.411 64.3982V38.3431C349.411 23.4382 337.237 11.3778 322.446 11.3778Z" fill="url(#paint14_linear_1065_336)"/>
<path d="M302.536 52.6783C298.213 52.6783 293.434 52.1094 288.541 50.9717C285.469 50.1752 283.649 47.1032 284.332 44.145C285.014 41.1868 288.2 39.2525 291.158 39.9352C311.98 44.9414 324.609 35.1565 326.202 32.0845C329.388 25.713 333.484 24.3477 336.442 24.3477H336.556C339.628 24.3477 344.179 25.9406 347.933 33.1086C349.868 36.7494 353.736 37.7734 355.898 38.1148C358.97 38.5699 361.132 41.4143 360.677 44.6001C360.221 47.7859 357.377 49.8339 354.191 49.3788C350.664 48.9237 342.131 46.7619 337.807 38.3423C337.352 37.5459 337.011 36.977 336.669 36.5219C336.556 36.6357 336.442 36.8632 336.328 37.0908C333.142 43.4623 320.741 52.6783 302.536 52.6783ZM373.192 113.322C372.396 113.322 371.599 113.208 370.917 112.867C369.893 112.412 368.869 112.07 367.845 111.729L339.514 109.909C336.556 109.681 334.166 107.178 334.166 104.22V92.0454C334.166 88.8597 336.669 86.3565 339.855 86.3565C343.041 86.3565 345.544 88.8597 345.544 92.0454V98.8721L369.324 100.351C369.779 100.351 370.234 100.465 370.689 100.579C372.396 101.148 373.989 101.717 375.581 102.399C378.426 103.651 379.791 107.064 378.54 109.909C377.516 112.07 375.354 113.322 373.192 113.322ZM279.325 110.819C276.709 110.819 274.319 108.998 273.75 106.381C273.068 103.309 275.002 100.237 278.074 99.5548C280.122 99.0997 282.17 98.7583 284.218 98.6446H284.673L299.35 98.5308V91.9317C299.35 88.7459 301.853 86.2428 305.039 86.2428C308.225 86.2428 310.728 88.7459 310.728 91.9317V104.106C310.728 107.178 308.225 109.795 305.039 109.795L284.901 109.909C283.421 110.022 281.942 110.25 280.463 110.591C280.122 110.705 279.781 110.819 279.325 110.819Z" fill="white"/>
<path d="M302.536 52.6783C298.213 52.6783 293.434 52.1094 288.541 50.9717C285.469 50.1752 283.649 47.1032 284.332 44.145C285.014 41.1868 288.2 39.2525 291.158 39.9352C311.98 44.9414 324.609 35.1565 326.202 32.0845C329.388 25.713 333.484 24.3477 336.442 24.3477H336.556C339.628 24.3477 344.179 25.9406 347.933 33.1086C349.868 36.7494 353.736 37.7734 355.898 38.1148C358.97 38.5699 361.132 41.4143 360.677 44.6001C360.221 47.7859 357.377 49.8339 354.191 49.3788C350.664 48.9237 342.131 46.7619 337.807 38.3423C337.352 37.5459 337.011 36.977 336.669 36.5219C336.556 36.6357 336.442 36.8632 336.328 37.0908C333.142 43.4623 320.741 52.6783 302.536 52.6783ZM373.192 113.322C372.396 113.322 371.599 113.208 370.917 112.867C369.893 112.412 368.869 112.07 367.845 111.729L339.514 109.909C336.556 109.681 334.166 107.178 334.166 104.22V92.0454C334.166 88.8597 336.669 86.3565 339.855 86.3565C343.041 86.3565 345.544 88.8597 345.544 92.0454V98.8721L369.324 100.351C369.779 100.351 370.234 100.465 370.689 100.579C372.396 101.148 373.989 101.717 375.581 102.399C378.426 103.651 379.791 107.064 378.54 109.909C377.516 112.07 375.354 113.322 373.192 113.322ZM279.325 110.819C276.709 110.819 274.319 108.998 273.75 106.381C273.068 103.309 275.002 100.237 278.074 99.5548C280.122 99.0997 282.17 98.7583 284.218 98.6446H284.673L299.35 98.5308V91.9317C299.35 88.7459 301.853 86.2428 305.039 86.2428C308.225 86.2428 310.728 88.7459 310.728 91.9317V104.106C310.728 107.178 308.225 109.795 305.039 109.795L284.901 109.909C283.421 110.022 281.942 110.25 280.463 110.591C280.122 110.705 279.781 110.819 279.325 110.819Z" fill="url(#paint15_linear_1065_336)"/>
<path d="M322.447 124.472C321.196 124.472 319.831 124.016 318.807 123.106L301.399 108.543C299.009 106.495 298.668 102.968 300.716 100.578C302.764 98.1889 306.291 97.8475 308.68 99.8955L322.447 111.387L336.214 99.8955C338.604 97.8475 342.245 98.1889 344.179 100.578C346.227 102.968 345.886 106.608 343.496 108.543L326.088 123.106C325.064 124.016 323.699 124.472 322.447 124.472Z" fill="white"/>
<path d="M322.447 124.472C321.196 124.472 319.831 124.016 318.807 123.106L301.399 108.543C299.009 106.495 298.668 102.968 300.716 100.578C302.764 98.1889 306.291 97.8475 308.68 99.8955L322.447 111.387L336.214 99.8955C338.604 97.8475 342.245 98.1889 344.179 100.578C346.227 102.968 345.886 106.608 343.496 108.543L326.088 123.106C325.064 124.016 323.699 124.472 322.447 124.472Z" fill="url(#paint16_linear_1065_336)"/>
<path d="M322.448 215.949C319.262 215.949 316.759 213.446 316.759 210.26V118.669C316.759 115.484 319.262 112.98 322.448 112.98C325.633 112.98 328.137 115.484 328.137 118.669V210.26C328.137 213.446 325.633 215.949 322.448 215.949ZM296.279 299.121C293.093 299.121 290.59 296.618 290.59 293.432V239.501C290.59 236.316 293.093 233.812 296.279 233.812C299.465 233.812 301.968 236.316 301.968 239.501V293.432C301.968 296.618 299.351 299.121 296.279 299.121Z" fill="white"/>
<path d="M322.448 215.949C319.262 215.949 316.759 213.446 316.759 210.26V118.669C316.759 115.484 319.262 112.98 322.448 112.98C325.633 112.98 328.137 115.484 328.137 118.669V210.26C328.137 213.446 325.633 215.949 322.448 215.949ZM296.279 299.121C293.093 299.121 290.59 296.618 290.59 293.432V239.501C290.59 236.316 293.093 233.812 296.279 233.812C299.465 233.812 301.968 236.316 301.968 239.501V293.432C301.968 296.618 299.351 299.121 296.279 299.121Z" fill="url(#paint17_linear_1065_336)"/>
<defs>
<linearGradient id="paint0_linear_1065_336" x1="17.9433" y1="97.4084" x2="153.872" y2="461.271" gradientUnits="userSpaceOnUse">
<stop stop-color="#1BA2D7"/>
<stop offset="1" stop-color="#8D3DFA"/>
</linearGradient>
<linearGradient id="paint1_linear_1065_336" x1="24.7971" y1="120.183" x2="208.652" y2="299.423" gradientUnits="userSpaceOnUse">
<stop stop-color="#1BA2D7"/>
<stop offset="1" stop-color="#8D3DFA"/>
</linearGradient>
<linearGradient id="paint2_linear_1065_336" x1="23.701" y1="189.611" x2="132.668" y2="330.37" gradientUnits="userSpaceOnUse">
<stop stop-color="#1BA2D7"/>
<stop offset="1" stop-color="#8D3DFA"/>
</linearGradient>
<linearGradient id="paint3_linear_1065_336" x1="58.2883" y1="97.4084" x2="259.53" y2="354.568" gradientUnits="userSpaceOnUse">
<stop stop-color="#1BA2D7"/>
<stop offset="1" stop-color="#8D3DFA"/>
</linearGradient>
<linearGradient id="paint4_linear_1065_336" x1="175.903" y1="120.191" x2="359.758" y2="299.688" gradientUnits="userSpaceOnUse">
<stop stop-color="#1BA2D7"/>
<stop offset="1" stop-color="#8D3DFA"/>
</linearGradient>
<linearGradient id="paint5_linear_1065_336" x1="171.6" y1="254.913" x2="176.482" y2="275.644" gradientUnits="userSpaceOnUse">
<stop stop-color="#1BA2D7"/>
<stop offset="1" stop-color="#8D3DFA"/>
</linearGradient>
<linearGradient id="paint6_linear_1065_336" x1="205.521" y1="189.611" x2="314.465" y2="330.461" gradientUnits="userSpaceOnUse">
<stop stop-color="#1BA2D7"/>
<stop offset="1" stop-color="#8D3DFA"/>
</linearGradient>
<linearGradient id="paint7_linear_1065_336" x1="252.724" y1="97.4084" x2="459.896" y2="312.587" gradientUnits="userSpaceOnUse">
<stop stop-color="#1BA2D7"/>
<stop offset="1" stop-color="#8D3DFA"/>
</linearGradient>
<linearGradient id="paint8_linear_1065_336" x1="327.102" y1="120.191" x2="510.948" y2="299.306" gradientUnits="userSpaceOnUse">
<stop stop-color="#1BA2D7"/>
<stop offset="1" stop-color="#8D3DFA"/>
</linearGradient>
<linearGradient id="paint9_linear_1065_336" x1="443.186" y1="254.913" x2="448.068" y2="275.644" gradientUnits="userSpaceOnUse">
<stop stop-color="#1BA2D7"/>
<stop offset="1" stop-color="#8D3DFA"/>
</linearGradient>
<linearGradient id="paint10_linear_1065_336" x1="326.01" y1="189.611" x2="434.976" y2="330.37" gradientUnits="userSpaceOnUse">
<stop stop-color="#1BA2D7"/>
<stop offset="1" stop-color="#8D3DFA"/>
</linearGradient>
<linearGradient id="paint11_linear_1065_336" x1="151.495" y1="19.2794" x2="439.054" y2="313.02" gradientUnits="userSpaceOnUse">
<stop stop-color="#1BA2D7"/>
<stop offset="1" stop-color="#8D3DFA"/>
</linearGradient>
<linearGradient id="paint12_linear_1065_336" x1="127.619" y1="30.0823" x2="209.398" y2="140.772" gradientUnits="userSpaceOnUse">
<stop stop-color="#1BA2D7"/>
<stop offset="1" stop-color="#8D3DFA"/>
</linearGradient>
<linearGradient id="paint13_linear_1065_336" x1="158.908" y1="100.221" x2="178.59" y2="140.439" gradientUnits="userSpaceOnUse">
<stop stop-color="#1BA2D7"/>
<stop offset="1" stop-color="#8D3DFA"/>
</linearGradient>
<linearGradient id="paint14_linear_1065_336" x1="181.29" y1="13.9187" x2="388.927" y2="219.321" gradientUnits="userSpaceOnUse">
<stop stop-color="#1BA2D7"/>
<stop offset="1" stop-color="#8D3DFA"/>
</linearGradient>
<linearGradient id="paint15_linear_1065_336" x1="277.374" y1="30.0823" x2="359.047" y2="141.111" gradientUnits="userSpaceOnUse">
<stop stop-color="#1BA2D7"/>
<stop offset="1" stop-color="#8D3DFA"/>
</linearGradient>
<linearGradient id="paint16_linear_1065_336" x1="301.018" y1="100.221" x2="320.699" y2="140.439" gradientUnits="userSpaceOnUse">
<stop stop-color="#1BA2D7"/>
<stop offset="1" stop-color="#8D3DFA"/>
</linearGradient>
<linearGradient id="paint17_linear_1065_336" x1="291.93" y1="124.978" x2="370.583" y2="143.186" gradientUnits="userSpaceOnUse">
<stop stop-color="#1BA2D7"/>
<stop offset="1" stop-color="#8D3DFA"/>
</linearGradient>
</defs>
</svg>
