<svg width="480" height="376" viewBox="0 0 480 376" fill="none" xmlns="http://www.w3.org/2000/svg">
<path d="M432 0H48C21.528 0 0 21.528 0 48V272C0 286.968 6.904 300.912 18.936 310.24C19.766 310.884 20.7146 311.358 21.7279 311.636C22.7411 311.913 23.799 311.988 24.8413 311.857C25.8835 311.725 26.8896 311.39 27.8022 310.869C28.7148 310.349 29.516 309.654 30.16 308.824C30.804 307.994 31.2782 307.045 31.5556 306.032C31.833 305.019 31.9081 303.961 31.7766 302.919C31.6451 301.876 31.3096 300.87 30.7893 299.958C30.2689 299.045 29.574 298.244 28.744 297.6C20.64 291.32 16 282 16 272V80H464V272C464 281.992 459.36 291.32 451.256 297.6C443.056 304.144 452.664 316.576 461.064 310.24C473.096 300.912 480 286.968 480 272V48C480 21.528 458.472 0 432 0ZM464 64H16V48C16 30.352 30.352 16 48 16H432C449.648 16 464 30.352 464 48V64Z" fill="url(#paint0_linear_1134_478)"/>
<path d="M56 32H40C29.488 32.176 29.48 47.824 40 48H56C66.512 47.824 66.52 32.176 56 32ZM96 32H80C69.488 32.176 69.48 47.824 80 48H96C106.512 47.824 106.52 32.176 96 32ZM136 32H120C109.488 32.176 109.48 47.824 120 48H136C146.512 47.824 146.52 32.176 136 32ZM197.28 131.28C191.088 122.864 178.208 132.192 184.328 140.688L198.432 160.112C204.64 168.544 217.488 159.184 211.376 150.704L197.28 131.28ZM248 144V120C247.824 109.488 232.176 109.48 232 120V144C232.176 154.512 247.824 154.52 248 144ZM282.72 131.28L268.624 150.704C262.52 159.176 275.344 168.56 281.568 160.112L295.672 140.68C301.776 132.2 288.928 122.84 282.728 131.288L282.72 131.28ZM184 224C184 254.88 209.12 280 240 280C314.192 277.184 314.168 170.8 240 168C209.12 168 184 193.12 184 224ZM240 184C262.056 184 280 201.944 280 224C278.12 276.936 201.872 276.928 200 224C200 201.944 217.944 184 240 184Z" fill="url(#paint1_linear_1134_478)"/>
<path d="M266.216 276.481C261.72 274.793 256.408 277.937 255.704 282.689C255.085 286.407 253.167 289.785 250.292 292.221C247.416 294.658 243.769 295.995 240 295.995C236.231 295.995 232.584 294.658 229.708 292.221C226.833 289.785 224.915 286.407 224.296 282.689C223.6 277.937 218.28 274.801 213.784 276.481C198.089 281.928 184.479 292.126 174.841 305.658C165.203 319.191 160.017 335.387 160 352.001C160 365.233 170.768 376.001 184 376.001H296C309.232 376.001 320 365.233 320 352.001C320 317.993 298.384 287.641 266.216 276.481ZM296 360.001H184C179.592 360.001 176 356.417 176 352.001C176.012 340.08 179.352 328.399 185.645 318.275C191.937 308.15 200.932 299.984 211.616 294.697C222.392 317.449 257.616 317.441 268.384 294.697C279.068 299.984 288.063 308.15 294.355 318.275C300.648 328.399 303.988 340.08 304 352.001C304 356.417 300.408 360.001 296 360.001Z" fill="url(#paint2_linear_1134_478)"/>
<path d="M323.36 271.999C314.975 272.068 306.842 269.133 300.432 263.727C298.807 262.377 296.714 261.724 294.609 261.911C292.504 262.098 290.559 263.111 289.198 264.727C287.837 266.344 287.171 268.433 287.345 270.539C287.52 272.645 288.52 274.596 290.128 275.967C303.352 287.327 323.08 291.039 339.584 285.375C338.292 286.511 337.41 288.04 337.072 289.727C336.56 292.701 335.102 295.43 332.913 297.507C330.725 299.584 327.924 300.899 324.928 301.255C323.883 301.375 322.873 301.698 321.953 302.209C321.034 302.719 320.225 303.405 319.571 304.228C318.917 305.051 318.432 305.995 318.143 307.006C317.854 308.017 317.768 309.075 317.888 310.119C322.176 326.375 345.592 311.135 349.616 301.703C369.016 311.447 381.504 331.767 381.36 353.359C381.36 355.12 380.66 356.809 379.415 358.054C378.17 359.3 376.481 359.999 374.72 359.999H332.72C322.24 360.159 322.184 375.823 332.72 375.999H436C441.663 375.993 447.092 373.74 451.097 369.736C455.101 365.732 457.354 360.302 457.36 354.639C457.343 340.525 452.939 326.766 444.756 315.266C436.573 303.767 425.017 295.096 411.688 290.455C467.408 258.719 423.36 176.583 365.928 206.215C353.08 186.879 324.888 178.095 302.944 188.271C301.98 188.693 301.109 189.301 300.381 190.06C299.653 190.819 299.081 191.714 298.699 192.694C298.318 193.675 298.133 194.72 298.155 195.772C298.178 196.824 298.408 197.861 298.832 198.823C304.056 209.135 315.032 198.639 323.36 199.999C370.928 201.503 370.928 270.503 323.36 271.999ZM377.568 296.663C377.416 295.783 377.008 295.023 376.592 294.263C384.955 296.572 393.79 296.556 402.144 294.215C401.678 294.969 401.342 295.797 401.152 296.663C399.12 309.759 379.608 309.751 377.568 296.663ZM413.584 308.671C421.957 313.082 428.968 319.694 433.862 327.794C438.757 335.894 441.349 345.175 441.36 354.639C441.36 357.599 438.96 359.999 436 359.999H396.248C399.336 347.503 395.392 333.839 390.576 322.559C395.271 322.373 399.843 321.003 403.866 318.574C407.889 316.146 411.232 312.739 413.584 308.671ZM375.36 235.999C375.36 230.615 374.536 225.415 373.008 220.527C393.384 207.631 422 223.775 421.36 247.999C421.656 277.919 382.6 291.471 364.36 267.871C371.487 258.776 375.359 247.554 375.36 235.999ZM367.168 290.439C365.936 290.839 364.928 291.335 363.888 291.751C358.048 288.287 351.936 283.967 345.08 283.191C347.76 281.943 350.336 280.519 352.744 278.855C356.754 283.616 361.654 287.551 367.168 290.439ZM22.6399 354.639C22.6462 360.302 24.8987 365.732 28.9031 369.736C32.9075 373.74 38.3368 375.993 43.9999 375.999H147.28C157.776 375.823 157.816 360.183 147.28 359.999H105.28C103.519 359.999 101.83 359.3 100.585 358.054C99.3395 356.809 98.6399 355.12 98.6399 353.359C98.4959 331.743 111 311.431 130.384 301.703C134.4 311.127 157.824 326.375 162.112 310.119C162.232 309.075 162.146 308.017 161.857 307.006C161.568 305.995 161.083 305.051 160.429 304.228C159.775 303.405 158.966 302.719 158.046 302.209C157.127 301.698 156.116 301.375 155.072 301.255C152.076 300.899 149.275 299.584 147.087 297.507C144.898 295.43 143.44 292.701 142.928 289.727C142.59 288.04 141.708 286.511 140.416 285.375C156.928 291.031 176.64 287.335 189.872 275.959C190.683 275.285 191.353 274.457 191.843 273.523C192.333 272.589 192.633 271.567 192.727 270.516C192.82 269.466 192.705 268.407 192.388 267.401C192.071 266.395 191.558 265.462 190.878 264.655C190.199 263.848 189.367 263.183 188.43 262.699C187.493 262.215 186.469 261.921 185.418 261.834C184.367 261.747 183.309 261.869 182.305 262.193C181.301 262.516 180.371 263.035 179.568 263.719C157.152 283.279 120 265.823 120.64 235.999C120.64 216.151 136.792 199.999 156.64 199.999C164.96 198.623 175.968 209.143 181.168 198.823C185.44 185.799 165.328 184.503 156.64 183.999C139.04 183.999 123.496 192.799 114.08 206.215C56.5919 176.575 12.6239 258.759 68.3119 290.455C54.983 295.096 43.4269 303.767 35.244 315.266C27.0612 326.766 22.6565 340.525 22.6399 354.639ZM102.432 296.663C100.392 309.759 80.8879 309.751 78.8479 296.663C78.6576 295.797 78.3222 294.969 77.8559 294.215C86.2102 296.556 95.0449 296.573 103.408 294.263C103 295.023 102.584 295.783 102.432 296.663ZM127.256 278.855C129.672 280.519 132.248 281.951 134.936 283.191C128.072 283.959 121.976 288.287 116.12 291.751C115.08 291.335 114.064 290.839 113 290.463C118.429 287.512 123.263 283.579 127.256 278.863V278.855ZM58.6399 247.999C57.9999 223.775 86.6159 207.623 106.992 220.527C101.784 236.287 105.512 255.383 115.64 267.871C97.3919 291.471 58.3439 277.911 58.6399 247.999ZM66.4159 308.671C68.7678 312.739 72.1108 316.146 76.1337 318.574C80.1566 321.003 84.7286 322.373 89.4239 322.559C84.6079 333.831 80.6639 347.503 83.7439 359.999H43.9999C42.5783 359.999 41.215 359.435 40.2098 358.429C39.2046 357.424 38.6399 356.061 38.6399 354.639C38.6507 345.175 41.2429 335.894 46.1373 327.794C51.0317 319.694 58.0429 313.082 66.4159 308.671Z" fill="url(#paint3_linear_1134_478)"/>
<defs>
<linearGradient id="paint0_linear_1134_478" x1="352.961" y1="300.709" x2="216.106" y2="-42.6151" gradientUnits="userSpaceOnUse">
<stop offset="0.0001" stop-color="#BE42B1"/>
<stop offset="1" stop-color="#3B4BAA"/>
</linearGradient>
<linearGradient id="paint1_linear_1134_478" x1="227.097" y1="271.034" x2="90.5963" y2="33.0557" gradientUnits="userSpaceOnUse">
<stop offset="0.0001" stop-color="#BE42B1"/>
<stop offset="1" stop-color="#3B4BAA"/>
</linearGradient>
<linearGradient id="paint2_linear_1134_478" x1="277.654" y1="372.386" x2="235.047" y2="261.209" gradientUnits="userSpaceOnUse">
<stop offset="0.0001" stop-color="#BE42B1"/>
<stop offset="1" stop-color="#3B4BAA"/>
</linearGradient>
<linearGradient id="paint3_linear_1134_478" x1="342.305" y1="369.058" x2="280.514" y2="140.935" gradientUnits="userSpaceOnUse">
<stop offset="0.0001" stop-color="#BE42B1"/>
<stop offset="1" stop-color="#3B4BAA"/>
</linearGradient>
</defs>
</svg>
