<svg width="513" height="513" viewBox="0 0 513 513" fill="none" xmlns="http://www.w3.org/2000/svg">
<path d="M139.345 476.615C139.344 476.615 139.344 476.615 139.345 476.615ZM510.231 342.201C507.977 347.353 503.864 351.315 498.65 353.355L469.309 364.835C466.878 365.79 464.289 366.281 461.676 366.284C458.81 366.284 455.946 365.689 453.235 364.503C449.294 362.788 445.978 359.899 443.74 356.229L410.366 370.459C411.427 376.932 410.432 383.756 407.073 389.864C403.117 397.057 396.568 402.26 388.634 404.514C388.552 404.537 388.469 404.553 388.386 404.575C391.371 412.606 391.012 421.806 386.609 429.812C381.07 439.882 370.629 445.583 359.874 445.583C357.629 445.579 355.391 445.324 353.201 444.825C353.476 450.385 352.201 455.913 349.516 460.79C343.978 470.86 333.537 476.561 322.782 476.561C321.47 476.559 320.159 476.472 318.857 476.301C319.285 482.132 318.011 487.962 315.191 493.083C309.653 503.152 299.212 508.854 288.457 508.854C283.343 508.855 278.312 507.56 273.833 505.09L263.302 499.299C259.425 504.721 253.893 508.706 247.379 510.68C244.49 511.56 241.486 512.008 238.466 512.011C233.484 512.009 228.58 510.773 224.192 508.415C217.2 504.676 212.263 498.578 209.831 491.625C208.534 492.224 207.197 492.734 205.829 493.15C202.94 494.03 199.937 494.478 196.917 494.481C191.982 494.481 187.102 493.271 182.642 490.885C176.315 487.501 171.676 482.184 169.046 476.051C166.991 477.242 164.806 478.191 162.533 478.88C159.644 479.76 156.641 480.208 153.621 480.211C148.639 480.208 143.736 478.973 139.347 476.615C132.196 472.79 126.955 466.388 124.591 458.586C123.139 453.796 122.887 448.844 123.79 444.079C123.188 444.115 122.587 444.146 121.987 444.146C117.005 444.144 112.102 442.909 107.713 440.551C100.562 436.726 95.3212 430.323 92.9572 422.521C90.5932 414.72 91.3972 406.485 95.2222 399.334L102.907 384.965C100.918 380.532 100.028 375.671 99.1622 370.928C97.5512 362.096 96.3862 357.777 92.6752 356.336C89.9332 355.272 81.6602 351.637 66.1802 344.691C62.1622 349.795 56.0112 352.713 49.6392 352.713C46.7202 352.713 43.7582 352.103 40.9352 350.812L12.2792 337.716C1.7402 332.9 -2.9158 320.406 1.9002 309.867L60.7942 181.002C65.6102 170.462 78.1052 165.807 88.6432 170.624L117.299 183.719C127.838 188.537 132.494 201.03 127.678 211.569L125.895 215.47L151.835 227.437C152.029 227.527 152.22 227.625 152.407 227.729C162.727 233.538 173.434 231.009 186.985 227.807C204.65 223.634 226.396 218.508 251.862 233.539C286.884 211.863 313.777 222.828 333.644 230.948C348.088 236.852 357.396 240.235 366.378 235.564L391.003 222.383L390.454 220.979C386.232 210.188 391.576 197.974 402.366 193.751L431.708 182.27C442.501 178.05 454.712 183.394 458.936 194.182L458.937 194.183L510.564 326.126C512.603 331.341 512.484 337.049 510.231 342.201ZM54.2302 333.784L113.123 204.919C114.253 202.446 113.119 199.402 110.645 198.272L81.9902 185.177C81.3918 184.904 80.7451 184.752 80.0876 184.731C79.4302 184.709 78.775 184.819 78.1602 185.053C77.5423 185.279 76.9753 185.624 76.492 186.071C76.0088 186.517 75.619 187.055 75.3452 187.653L16.4502 316.518C15.3202 318.991 16.4542 322.034 18.9272 323.164L47.5832 336.26C50.0572 337.391 53.1002 336.255 54.2302 333.784ZM126.257 427.503C129.952 426.383 132.98 423.917 134.791 420.557L149.075 393.856C152.763 386.962 150.055 377.975 143.158 374.302C136.278 370.638 127.305 373.268 123.586 380.222L109.328 406.88C105.632 413.791 108.358 422.753 115.256 426.442C118.64 428.251 122.548 428.627 126.257 427.503ZM166.451 456.579L185.77 420.457C189.452 413.574 186.743 404.572 179.854 400.903C173.021 397.264 164.051 399.848 160.311 406.773L140.962 442.944C139.152 446.326 138.775 450.234 139.9 453.945C141.025 457.656 143.507 460.696 146.89 462.506C150.273 464.315 154.178 464.692 157.89 463.568C161.602 462.444 164.643 459.961 166.451 456.579ZM209.747 470.849L225.369 441.637C229.057 434.74 226.351 425.755 219.453 422.082C212.524 418.392 203.579 421.085 199.88 428.002L184.258 457.214C180.499 464.242 183.159 473.017 190.187 476.776C193.57 478.585 197.476 478.963 201.188 477.837C204.899 476.713 207.939 474.231 209.747 470.849ZM251.297 488.379L264.968 462.816C268.621 455.986 265.905 446.911 259.052 443.262C252.124 439.573 243.179 442.263 239.479 449.182L225.806 474.748C222.051 481.775 224.711 490.548 231.737 494.306C235.121 496.116 239.029 496.494 242.738 495.367C246.448 494.243 249.488 491.761 251.297 488.379ZM296.574 466.429L282.755 458.829C282.684 458.79 282.62 458.743 282.55 458.703C282.194 462.784 281.013 466.751 279.077 470.362L271.079 485.318L281.542 491.072C288.527 494.913 297.331 492.357 301.171 485.374C304.789 478.797 302.698 470.579 296.574 466.429ZM387.249 362.465L309.592 318.203C296.316 310.634 279.798 317.323 260.676 325.065C231.842 336.738 195.956 351.266 165.603 309.439C164.944 308.53 164.483 307.493 164.251 306.394C164.019 305.295 164.021 304.16 164.256 303.062C164.492 301.964 164.956 300.928 165.618 300.021C166.281 299.114 167.127 298.357 168.101 297.799C191.149 284.596 210.518 270.137 225.672 254.824C229.411 251.039 233.329 247.435 237.413 244.025C220.345 236.371 205.856 239.789 190.662 243.379C175.839 246.88 160.516 250.5 144.852 241.837L119.242 230.022L73.3752 330.385C82.5232 334.489 95.3662 340.219 98.4622 341.421C109.942 345.878 112.795 356.919 114.486 365.823C118.036 362.169 122.477 359.445 127.505 357.921C135.309 355.557 143.542 356.361 150.693 360.186C157.823 363.983 163.063 370.375 165.434 378.176C166.002 380.045 166.393 381.964 166.6 383.906C173.671 382.362 180.966 383.352 187.389 386.787C194.519 390.584 199.759 396.975 202.13 404.777C202.266 405.226 202.39 405.676 202.505 406.127C202.933 405.977 203.363 405.833 203.8 405.7C211.602 403.336 219.837 404.141 226.988 407.965C234.118 411.763 239.357 418.154 241.729 425.955C241.866 426.404 241.989 426.855 242.104 427.306C242.531 427.156 242.962 427.011 243.398 426.879C251.197 424.515 259.433 425.319 266.586 429.144C270.022 430.97 273.071 433.445 275.564 436.431L315.867 458.776C322.847 462.614 331.655 460.062 335.497 453.079C339.301 446.164 336.714 437.341 329.73 433.411L281.796 406.432C280.881 405.917 280.076 405.226 279.427 404.4C278.778 403.573 278.299 402.627 278.016 401.615C277.733 400.603 277.652 399.546 277.777 398.503C277.903 397.46 278.233 396.452 278.748 395.536C279.264 394.62 279.954 393.815 280.781 393.167C281.607 392.518 282.553 392.038 283.565 391.755C284.577 391.472 285.634 391.391 286.677 391.517C287.721 391.643 288.729 391.973 289.644 392.488L352.959 427.798C359.939 431.637 368.747 429.083 372.589 422.1C376.366 415.233 373.835 406.488 366.959 402.519C366.514 402.296 309.964 370.381 309.964 370.381C308.117 369.337 306.76 367.603 306.191 365.559C305.623 363.515 305.89 361.328 306.933 359.481C307.45 358.566 308.141 357.762 308.969 357.114C309.796 356.467 310.743 355.988 311.755 355.707C312.767 355.425 313.825 355.346 314.868 355.474C315.911 355.601 316.919 355.933 317.833 356.45L373.503 387.895C376.758 389.733 380.579 390.169 384.259 389.123C388.05 388.046 391.173 385.57 393.053 382.153C396.835 375.278 394.232 366.445 387.249 362.465ZM437.595 341.456L396.874 237.388L373.843 249.715C357.749 258.086 342.416 251.82 327.588 245.759C307.336 237.481 286.394 228.922 256.127 249.845C249.787 254.227 243.367 259.689 237.045 266.078C222.701 280.572 204.934 294.283 184.143 306.911C205.542 330.12 228.464 320.844 254.672 310.235C275.728 301.711 297.5 292.895 317.516 304.303L395.172 348.565C398.475 350.444 401.4 352.92 403.799 355.866L437.595 341.456ZM495.662 331.957L444.035 200.014C443.057 197.514 440.036 196.192 437.537 197.171L408.196 208.651C405.665 209.642 404.362 212.618 405.353 215.15L456.981 347.093C457.221 347.705 457.581 348.264 458.038 348.737C458.496 349.209 459.043 349.586 459.647 349.846C460.248 350.114 460.896 350.26 461.554 350.275C462.211 350.291 462.866 350.176 463.478 349.936L492.819 338.456C494.053 337.973 495.031 337.026 495.572 335.789C496.113 334.552 496.146 333.191 495.662 331.957ZM430.379 210.348C424.241 210.348 419.234 215.354 419.234 221.492C419.234 227.63 424.241 232.637 430.379 232.637C436.517 232.637 441.524 227.63 441.524 221.492C441.524 215.354 436.518 210.348 430.379 210.348ZM88.4022 198.733C82.2562 198.39 76.9972 203.094 76.6542 209.24C76.3112 215.386 81.0152 220.645 87.1612 220.988C93.3072 221.331 98.5662 216.627 98.9092 210.481C99.2522 204.335 94.5482 199.075 88.4022 198.733ZM89.5242 146.157C85.5732 140.797 84.4822 134.343 86.4522 127.984C91.9382 110.269 104.621 96.482 120.737 89.371C114.456 82.962 110.573 74.194 110.573 64.533C110.573 44.95 126.506 29.017 146.089 29.017C165.672 29.017 181.603 44.949 181.603 64.532C181.603 74.189 177.724 82.953 171.449 89.361C179.406 92.8839 186.529 98.05 192.348 104.52C201.37 92.9832 213.363 84.1214 227.04 78.886C217.374 70.666 211.226 58.429 211.226 44.777C211.226 20.087 231.314 0 256.004 0C280.694 0 300.781 20.087 300.781 44.778C300.781 58.431 294.632 70.668 284.967 78.888C298.645 84.1237 310.638 92.9859 319.659 104.523C325.479 98.0532 332.601 92.8872 340.558 89.364C334.283 82.955 330.403 74.191 330.403 64.534C330.403 44.951 346.336 29.019 365.919 29.019C385.502 29.019 401.435 44.951 401.435 64.534C401.435 74.196 397.552 82.964 391.271 89.373C407.386 96.484 420.07 110.27 425.555 127.986C427.525 134.345 426.434 140.799 422.483 146.159C418.53 151.519 412.688 154.471 406.031 154.471H336.325V161.171C336.324 176.301 324.014 188.61 308.886 188.61H203.121C187.991 188.61 175.683 176.301 175.683 161.171V154.469H105.976C99.3162 154.468 93.4742 151.517 89.5242 146.157ZM365.911 84.049H365.926C376.683 84.045 385.435 75.292 385.435 64.534C385.435 53.773 376.68 45.019 365.919 45.019C355.158 45.019 346.403 53.773 346.403 64.534C346.403 75.292 355.154 84.045 365.911 84.049ZM328.606 118.88C331.633 125.1 333.844 131.685 335.185 138.471H406.031C407.56 138.471 408.696 137.897 409.605 136.665C410.512 135.435 410.724 134.18 410.272 132.719C404.222 113.182 386.403 100.055 365.93 100.05H365.911C350.977 100.052 337.342 107.025 328.606 118.88ZM255.983 73.555H256.024C271.883 73.544 284.782 60.639 284.782 44.778C284.781 28.91 271.872 16 256.004 16C240.136 16 227.226 28.91 227.226 44.778C227.226 60.639 240.125 73.544 255.983 73.555ZM191.683 146.907V161.17C191.683 167.478 196.814 172.609 203.121 172.609H308.885C315.193 172.609 320.323 167.477 320.324 161.17V146.907C316.615 114.186 289.046 89.565 256.023 89.555H256.003L255.982 89.554C222.959 89.565 195.39 114.187 191.683 146.907ZM146.081 84.047H146.095C156.853 84.043 165.603 75.29 165.603 64.532C165.603 53.771 156.849 45.016 146.088 45.016C135.327 45.016 126.572 53.771 126.572 64.532C126.572 75.291 135.323 84.043 146.081 84.047ZM102.402 136.664C103.31 137.895 104.445 138.469 105.975 138.469H176.822C178.163 131.683 180.374 125.099 183.4 118.879C174.664 107.024 161.028 100.051 146.095 100.048H146.076C125.602 100.053 107.783 113.18 101.733 132.717C101.282 134.177 101.494 135.432 102.402 136.664Z" fill="url(#paint0_linear_1134_487)"/>
<defs>
<linearGradient id="paint0_linear_1134_487" x1="376.5" y1="493.5" x2="85.5" y2="19" gradientUnits="userSpaceOnUse">
<stop offset="0.0001" stop-color="#BE42B1"/>
<stop offset="1" stop-color="#3B4BAA"/>
</linearGradient>
</defs>
</svg>
