<svg width="493" height="512" viewBox="0 0 493 512" fill="none" xmlns="http://www.w3.org/2000/svg">
<path d="M246.374 240.623C264.57 240.623 282.357 235.227 297.487 225.118C312.616 215.009 324.408 200.641 331.371 183.83C338.334 167.019 340.156 148.521 336.606 130.675C333.057 112.829 324.294 96.4357 311.428 83.5693C298.562 70.7028 282.169 61.9407 264.322 58.3908C246.476 54.841 227.978 56.6629 211.167 63.6262C194.356 70.5894 179.988 82.3813 169.879 97.5106C159.77 112.64 154.374 130.427 154.374 148.623C154.401 173.015 164.102 196.4 181.35 213.648C198.597 230.895 221.982 240.597 246.374 240.623ZM201.515 214.823C201.37 213.355 201.296 211.88 201.293 210.404C201.265 204.466 202.411 198.581 204.664 193.087C206.917 187.593 210.233 182.598 214.422 178.389C218.611 174.18 223.59 170.841 229.074 168.562C234.557 166.283 240.437 165.11 246.375 165.11C252.313 165.11 258.192 166.283 263.676 168.562C269.159 170.841 274.138 174.18 278.327 178.389C282.516 182.598 285.833 187.593 288.086 193.087C290.339 198.581 291.484 204.466 291.456 210.404C291.456 211.879 291.376 213.356 291.234 214.823C278.001 223.813 262.372 228.619 246.375 228.619C230.377 228.619 214.748 223.813 201.515 214.823ZM246.374 152.735C241.746 152.735 237.222 151.363 233.374 148.791C229.526 146.22 226.526 142.566 224.755 138.29C222.984 134.014 222.521 129.309 223.424 124.77C224.327 120.231 226.555 116.061 229.828 112.789C233.1 109.516 237.27 107.288 241.809 106.385C246.348 105.482 251.053 105.945 255.329 107.716C259.605 109.487 263.259 112.487 265.831 116.335C268.402 120.183 269.774 124.707 269.774 129.335C269.767 135.539 267.3 141.487 262.913 145.875C258.526 150.262 252.578 152.731 246.374 152.739V152.735ZM246.374 68.6191C262.165 68.6091 277.605 73.2751 290.748 82.0287C303.89 90.7823 314.146 103.231 320.223 117.806C326.299 132.381 327.924 148.429 324.892 163.926C321.86 179.423 314.307 193.675 303.186 204.885C302.162 194.512 298.323 184.616 292.084 176.266C285.845 167.917 277.443 161.43 267.786 157.508C273.689 153.026 278.036 146.804 280.214 139.719C282.392 132.635 282.292 125.045 279.927 118.021C277.562 110.996 273.052 104.891 267.033 100.567C261.014 96.242 253.789 93.9156 246.377 93.9156C238.965 93.9156 231.741 96.242 225.721 100.567C219.702 104.891 215.192 110.996 212.827 118.021C210.463 125.045 210.362 132.635 212.54 139.719C214.719 146.804 219.065 153.026 224.968 157.508C215.311 161.431 206.91 167.917 200.671 176.267C194.432 184.617 190.593 194.512 189.568 204.885C178.448 193.675 170.896 179.424 167.865 163.928C164.833 148.432 166.458 132.386 172.533 117.812C178.609 103.238 188.864 90.789 202.005 82.0352C215.146 73.2815 230.585 68.6146 246.374 68.6231V68.6191ZM397.835 411.568L483.046 326.357C486.563 322.939 489.25 318.761 490.9 314.144C492.551 309.526 493.121 304.592 492.567 299.719L481.019 183.329C481.101 175.556 478.126 168.062 472.735 162.461C467.345 156.861 459.97 153.602 452.199 153.387C451.937 153.38 451.675 153.377 451.413 153.377C443.711 153.389 436.316 156.399 430.795 161.77C425.274 167.14 422.061 174.448 421.835 182.147L419.357 262.172C418.528 262.094 417.697 262.055 416.864 262.054C413.439 262.041 410.046 262.707 406.88 264.014C403.715 265.321 400.84 267.243 398.422 269.669L343.886 324.207C321.943 330.614 302.711 344.05 289.148 362.451C275.585 380.852 268.441 403.199 268.814 426.055C264.943 426.954 261.489 429.135 259.014 432.244C256.539 435.354 255.188 439.209 255.18 443.183V494.373C255.186 499.038 257.042 503.51 260.34 506.809C263.639 510.107 268.111 511.963 272.776 511.968H392.55C397.217 511.964 401.691 510.109 404.991 506.809C408.291 503.509 410.146 499.035 410.15 494.368V443.178C410.145 439.147 408.757 435.239 406.219 432.107C403.68 428.975 400.145 426.808 396.202 425.968V415.528C396.178 414.79 396.312 414.055 396.593 413.373C396.875 412.69 397.298 412.075 397.835 411.568ZM348.609 335.339C349.614 335.064 350.529 334.532 351.265 333.795L406.907 278.153C409.554 275.542 413.127 274.083 416.845 274.096C420.563 274.109 424.125 275.591 426.755 278.221C429.384 280.85 430.866 284.412 430.879 288.131C430.891 291.849 429.433 295.421 426.821 298.068L384.221 340.668C383.111 341.796 382.492 343.318 382.498 344.9C382.505 346.483 383.136 347.999 384.256 349.119C385.375 350.238 386.891 350.87 388.474 350.876C390.057 350.882 391.578 350.263 392.706 349.153L435.306 306.553C440.183 301.654 442.921 295.023 442.921 288.111C442.921 281.199 440.183 274.568 435.306 269.669C434.064 268.427 432.7 267.313 431.235 266.344L433.835 182.496C433.966 177.917 435.876 173.568 439.159 170.372C442.442 167.177 446.84 165.385 451.421 165.377C451.577 165.377 451.733 165.379 451.889 165.383C456.55 165.512 460.969 167.482 464.18 170.863C467.391 174.244 469.131 178.759 469.02 183.42C469.014 183.668 469.023 183.917 469.047 184.164L480.63 300.903C481.003 304.008 480.65 307.157 479.598 310.102C478.545 313.047 476.823 315.707 474.567 317.872L389.356 403.083C387.707 404.705 386.4 406.643 385.515 408.78C384.629 410.918 384.183 413.212 384.202 415.525V425.585H280.806C280.529 405.161 287.035 385.222 299.305 368.891C311.575 352.561 328.915 340.761 348.609 335.342V335.339ZM398.145 443.18V494.37C398.145 495.105 398 495.834 397.719 496.513C397.437 497.193 397.025 497.81 396.505 498.33C395.985 498.85 395.368 499.262 394.688 499.544C394.009 499.825 393.281 499.97 392.545 499.97H272.776C271.291 499.97 269.867 499.38 268.816 498.33C267.766 497.28 267.176 495.855 267.176 494.37V443.184C267.176 442.449 267.321 441.72 267.602 441.041C267.884 440.362 268.296 439.744 268.816 439.224C269.336 438.704 269.954 438.292 270.633 438.01C271.313 437.729 272.041 437.584 272.776 437.584H392.55C394.034 437.585 395.457 438.176 396.506 439.226C397.555 440.276 398.145 441.699 398.145 443.183V443.18ZM372.024 461.668C368.61 461.667 365.302 462.85 362.662 465.016C360.023 467.181 358.216 470.195 357.549 473.543C356.882 476.891 357.398 480.367 359.006 483.378C360.615 486.389 363.219 488.749 366.373 490.056C369.527 491.363 373.036 491.536 376.303 490.545C379.57 489.554 382.393 487.461 384.29 484.623C386.187 481.784 387.041 478.376 386.706 474.978C386.372 471.581 384.869 468.404 382.455 465.99C381.089 464.615 379.463 463.525 377.673 462.784C375.882 462.042 373.962 461.663 372.024 461.668ZM373.971 478.368C373.521 478.819 372.928 479.099 372.294 479.161C371.66 479.224 371.025 479.065 370.495 478.711C369.965 478.357 369.575 477.831 369.39 477.221C369.205 476.612 369.237 475.957 369.481 475.368C369.724 474.78 370.165 474.294 370.726 473.994C371.288 473.694 371.937 473.597 372.561 473.722C373.186 473.846 373.748 474.183 374.152 474.675C374.556 475.168 374.777 475.785 374.777 476.422C374.778 476.784 374.707 477.142 374.569 477.476C374.43 477.81 374.227 478.113 373.971 478.368ZM9.72617 326.368L94.9372 411.568C95.4748 412.074 95.8988 412.688 96.1812 413.371C96.4636 414.053 96.5979 414.787 96.5752 415.525V425.97C92.6324 426.81 89.0969 428.977 86.5586 432.109C84.0203 435.241 82.6326 439.149 82.6272 443.18V494.37C82.6311 499.037 84.4867 503.511 87.7865 506.811C91.0863 510.111 95.5606 511.966 100.227 511.97H219.996C224.662 511.966 229.135 510.111 232.434 506.812C235.734 503.514 237.59 499.041 237.596 494.376V443.182C237.589 439.208 236.238 435.353 233.762 432.244C231.287 429.134 227.834 426.953 223.962 426.055C224.336 403.198 217.191 380.851 203.627 362.45C190.063 344.049 170.83 330.613 148.886 324.207L94.3502 269.668C91.9325 267.242 89.0577 265.32 85.8921 264.013C82.7265 262.706 79.333 262.04 75.9082 262.053C75.0702 262.053 74.2392 262.094 73.4152 262.171L70.9382 182.171C70.6992 174.381 67.3975 166.999 61.7497 161.629C56.1019 156.258 48.5638 153.331 40.7715 153.484C32.9793 153.637 25.5617 156.857 20.1289 162.445C14.6961 168.033 11.6864 175.539 11.7532 183.332L0.20517 299.723C-0.348432 304.595 0.221897 309.53 1.87236 314.147C3.52283 318.765 6.20953 322.943 9.72617 326.36V326.368ZM225.592 494.368C225.592 495.853 225.002 497.278 223.952 498.328C222.902 499.378 221.477 499.968 219.992 499.968H100.222C98.7378 499.967 97.3147 499.376 96.2656 498.326C95.2165 497.276 94.6272 495.852 94.6272 494.368V443.178C94.6285 441.695 95.2184 440.272 96.2674 439.223C97.3164 438.174 98.7387 437.584 100.222 437.583H219.996C221.481 437.583 222.904 438.172 223.954 439.222C225.004 440.271 225.595 441.694 225.596 443.178L225.592 494.368ZM12.1472 300.907L23.7302 184.168C23.7542 183.921 23.7632 183.672 23.7572 183.424C23.6456 178.763 25.3855 174.248 28.5959 170.867C31.8064 167.486 36.2257 165.515 40.8862 165.386C41.0432 165.386 41.1982 165.38 41.3542 165.38C45.9392 165.389 50.3402 167.184 53.6238 170.384C56.9073 173.584 58.815 177.938 58.9422 182.521L61.5372 266.346C60.072 267.315 58.7082 268.429 57.4662 269.671C52.5892 274.57 49.8512 281.201 49.8512 288.113C49.8512 295.025 52.5892 301.656 57.4662 306.555L100.066 349.155C101.194 350.265 102.716 350.884 104.299 350.878C105.881 350.872 107.398 350.24 108.517 349.121C109.636 348.001 110.268 346.485 110.274 344.902C110.281 343.32 109.661 341.798 108.551 340.67L65.9512 298.07C64.6436 296.762 63.6064 295.21 62.8987 293.502C62.1911 291.793 61.8268 289.962 61.8268 288.113C61.8268 286.264 62.1911 284.433 62.8987 282.724C63.6064 281.016 64.6436 279.464 65.9512 278.156C67.2587 276.848 68.8111 275.811 70.5195 275.104C72.2279 274.396 74.059 274.032 75.9082 274.032C77.7574 274.032 79.5884 274.396 81.2969 275.104C83.0053 275.811 84.5576 276.848 85.8652 278.156L141.507 333.798C142.243 334.535 143.159 335.067 144.163 335.342C163.857 340.762 181.197 352.562 193.466 368.893C205.736 385.224 212.241 405.164 211.963 425.588H108.575V415.528C108.594 413.215 108.148 410.921 107.263 408.783C106.377 406.646 105.071 404.708 103.421 403.086L18.2102 317.875C15.9541 315.71 14.2321 313.05 13.1799 310.105C12.1277 307.161 11.7742 304.012 12.1472 300.907ZM120.748 461.668C117.334 461.667 114.026 462.851 111.387 465.016C108.748 467.181 106.941 470.194 106.274 473.542C105.608 476.89 106.123 480.366 107.732 483.377C109.341 486.388 111.944 488.748 115.097 490.054C118.251 491.361 121.76 491.534 125.027 490.543C128.294 489.552 131.116 487.46 133.013 484.621C134.91 481.783 135.764 478.375 135.429 474.978C135.095 471.58 133.593 468.404 131.179 465.99C129.813 464.615 128.187 463.525 126.397 462.784C124.606 462.042 122.686 461.663 120.748 461.668ZM122.695 478.368C122.245 478.82 121.652 479.101 121.017 479.164C120.382 479.227 119.745 479.068 119.215 478.714C118.684 478.36 118.293 477.833 118.107 477.223C117.922 476.613 117.954 475.957 118.197 475.368C118.441 474.779 118.882 474.292 119.444 473.991C120.007 473.691 120.656 473.594 121.281 473.718C121.907 473.843 122.47 474.18 122.875 474.673C123.279 475.166 123.5 475.784 123.5 476.422C123.501 476.784 123.43 477.141 123.292 477.475C123.154 477.809 122.951 478.113 122.695 478.368ZM246.375 288.701C220.354 288.789 194.833 281.551 172.731 267.816L179.816 290.257C180.053 291.009 180.14 291.799 180.072 292.584C180.004 293.369 179.781 294.133 179.418 294.832C179.054 295.531 178.556 296.152 177.953 296.659C177.349 297.165 176.652 297.548 175.901 297.786C175.149 298.023 174.358 298.11 173.573 298.041C172.788 297.973 172.025 297.751 171.325 297.387C170.626 297.023 170.006 296.526 169.499 295.922C168.992 295.319 168.609 294.622 168.372 293.87L155.886 254.312C155.618 253.463 155.542 252.565 155.664 251.683C155.786 250.8 156.103 249.957 156.592 249.212C157.081 248.468 157.729 247.842 158.49 247.379C159.251 246.916 160.105 246.629 160.991 246.537L202.249 242.269C203.039 242.176 203.839 242.24 204.604 242.459C205.369 242.678 206.082 243.046 206.703 243.543C207.324 244.04 207.84 244.656 208.221 245.354C208.602 246.052 208.84 246.819 208.922 247.61C209.004 248.401 208.927 249.201 208.697 249.962C208.468 250.723 208.089 251.431 207.583 252.045C207.077 252.658 206.454 253.165 205.75 253.536C205.047 253.907 204.276 254.134 203.484 254.204L177.884 256.853C198.345 269.887 222.116 276.774 246.375 276.697C275.878 276.679 304.474 266.494 327.347 247.859C328.58 246.859 330.159 246.388 331.739 246.55C333.318 246.712 334.769 247.493 335.774 248.723C336.778 249.952 337.255 251.53 337.098 253.11C336.942 254.69 336.165 256.143 334.939 257.152C309.922 277.536 278.645 288.676 246.375 288.697V288.701ZM157.811 40.1011C182.827 19.7146 214.104 8.57168 246.375 8.54908C271.828 8.487 296.808 15.4219 318.586 28.5961L310.797 8.09608C310.244 6.6112 310.3 4.96759 310.954 3.52407C311.608 2.08056 312.806 0.954377 314.288 0.391389C315.769 -0.171599 317.413 -0.12567 318.861 0.51915C320.308 1.16397 321.442 2.35531 322.014 3.83308L336.748 42.6061C337.064 43.4383 337.191 44.3305 337.12 45.2179C337.049 46.1054 336.781 46.9658 336.336 47.7369C335.891 48.5079 335.28 49.1703 334.547 49.6759C333.814 50.1815 332.978 50.5177 332.099 50.6601L291.156 57.2911C290.374 57.4265 289.573 57.4055 288.8 57.2292C288.026 57.053 287.295 56.7251 286.649 56.2645C286.003 55.8038 285.455 55.2196 285.036 54.5457C284.617 53.8717 284.336 53.1214 284.209 52.3381C284.083 51.5549 284.112 50.7543 284.297 49.9826C284.482 49.2109 284.818 48.4835 285.285 47.8426C285.753 47.2016 286.343 46.6597 287.022 46.2484C287.7 45.837 288.454 45.5643 289.238 45.4461L315.977 41.1181C295.273 27.6346 271.085 20.4861 246.377 20.5491C216.873 20.5669 188.276 30.7516 165.403 49.3881C164.793 49.8898 164.091 50.2661 163.335 50.4956C162.579 50.7251 161.786 50.8032 161 50.7254C160.214 50.6476 159.452 50.4154 158.756 50.0422C158.06 49.669 157.444 49.1621 156.945 48.5506C156.445 47.9391 156.071 47.2349 155.844 46.4786C155.617 45.7222 155.542 44.9285 155.623 44.143C155.703 43.3574 155.938 42.5955 156.313 41.9009C156.689 41.2062 157.198 40.5926 157.811 40.0951V40.1011ZM354.82 216.768C367.717 196.385 374.527 172.744 374.449 148.624C374.431 119.121 364.246 90.5251 345.61 67.6531C345.108 67.0433 344.732 66.3404 344.503 65.5848C344.273 64.8293 344.195 64.0358 344.273 63.25C344.351 62.4642 344.583 61.7015 344.956 61.0056C345.329 60.3096 345.836 59.6943 346.448 59.1947C347.059 58.6951 347.763 58.3211 348.52 58.0942C349.276 57.8673 350.07 57.7919 350.855 57.8724C351.641 57.9529 352.403 58.1877 353.097 58.5633C353.792 58.9389 354.406 59.4478 354.903 60.0611C375.287 85.0775 386.428 116.354 386.449 148.624C386.543 174.788 379.228 200.444 365.349 222.624L388.286 215.768C389.811 215.312 391.455 215.481 392.855 216.237C394.256 216.994 395.299 218.275 395.754 219.8C396.21 221.325 396.041 222.969 395.285 224.369C394.529 225.77 393.247 226.812 391.722 227.268L351.979 239.141C351.126 239.396 350.227 239.458 349.347 239.322C348.467 239.186 347.628 238.856 346.892 238.356C346.155 237.856 345.539 237.198 345.088 236.43C344.637 235.662 344.363 234.804 344.285 233.917L340.655 192.598C340.576 191.808 340.655 191.01 340.886 190.25C341.118 189.491 341.498 188.785 342.004 188.173C342.511 187.562 343.133 187.057 343.836 186.688C344.539 186.319 345.309 186.093 346.1 186.023C346.891 185.954 347.688 186.042 348.444 186.282C349.201 186.523 349.902 186.912 350.508 187.426C351.113 187.939 351.611 188.568 351.971 189.276C352.332 189.983 352.548 190.755 352.608 191.547L354.82 216.768ZM137.956 80.4311C125.046 100.827 118.227 124.485 118.301 148.623C118.319 178.127 128.504 206.723 147.14 229.595C147.642 230.205 148.018 230.908 148.248 231.663C148.477 232.419 148.555 233.212 148.477 233.998C148.4 234.784 148.168 235.547 147.794 236.243C147.421 236.939 146.914 237.554 146.303 238.054C145.691 238.553 144.987 238.927 144.231 239.154C143.474 239.381 142.681 239.456 141.895 239.376C141.11 239.295 140.348 239.06 139.653 238.685C138.958 238.309 138.345 237.8 137.847 237.187C117.462 212.171 106.322 180.893 106.301 148.623C106.216 122.477 113.526 96.8388 127.386 74.6681L104.501 81.5481C102.977 82.0065 101.334 81.8408 99.9319 81.0874C98.5301 80.3339 97.4851 79.0545 97.0267 77.5306C96.5682 76.0067 96.734 74.363 97.4874 72.9613C98.2408 71.5595 99.5202 70.5145 101.044 70.0561L140.765 58.1091C141.618 57.8534 142.516 57.7905 143.396 57.925C144.276 58.0595 145.115 58.388 145.852 58.8867C146.589 59.3854 147.206 60.0419 147.658 60.8085C148.11 61.5751 148.386 62.4327 148.465 63.3191L152.171 104.632C152.313 106.217 151.82 107.793 150.8 109.014C149.78 110.236 148.317 111.002 146.732 111.144C146.549 111.16 146.368 111.168 146.189 111.168C144.692 111.166 143.249 110.605 142.145 109.594C141.04 108.583 140.354 107.195 140.22 105.704L137.956 80.4311Z" fill="url(#paint0_linear_1134_490)"/>
<defs>
<linearGradient id="paint0_linear_1134_490" x1="362.353" y1="493.461" x2="66.4637" y2="29.0808" gradientUnits="userSpaceOnUse">
<stop offset="0.0001" stop-color="#BE42B1"/>
<stop offset="1" stop-color="#3B4BAA"/>
</linearGradient>
</defs>
</svg>
