<svg width="512" height="512" viewBox="0 0 512 512" fill="none" xmlns="http://www.w3.org/2000/svg">
<path d="M504.711 134.375H504.709L504.692 134.358L471.644 129.643C469.98 129.406 468.424 128.68 467.172 127.559C465.921 126.437 465.03 124.97 464.612 123.342C464.195 121.714 464.27 119.999 464.827 118.414C465.385 116.828 466.4 115.444 467.744 114.435L494.454 94.4027C496.257 93.0508 497.449 91.0382 497.767 88.8076C498.086 86.5771 497.505 84.3113 496.154 82.5088L465.569 41.7297C464.217 39.9272 462.205 38.7355 459.974 38.4169C457.744 38.0982 455.478 38.6787 453.675 40.0306L426.974 60.0633C425.63 61.0828 424.014 61.6793 422.33 61.7769C420.646 61.8745 418.972 61.4688 417.519 60.6114C416.067 59.7541 414.903 58.4839 414.175 56.9626C413.447 55.4413 413.188 53.7377 413.432 52.0689L418.155 19.0209C418.314 17.9165 418.253 16.7918 417.977 15.7108C417.7 14.6299 417.214 13.614 416.545 12.7211C415.876 11.8281 415.038 11.0757 414.078 10.5067C413.119 9.93771 412.056 9.56332 410.952 9.40491L410.942 9.40385L360.512 2.19955C359.408 2.04096 358.283 2.10145 357.202 2.37756C356.121 2.65368 355.105 3.14002 354.212 3.80881C353.319 4.47759 352.566 5.31574 351.997 6.27537C351.428 7.23501 351.054 8.29734 350.895 9.40172V9.40385L346.172 42.4519C345.935 44.1156 345.21 45.6718 344.088 46.9234C342.967 48.175 341.499 49.0658 339.871 49.4833C338.243 49.9007 336.528 49.8259 334.943 49.2685C333.357 48.711 331.973 47.6958 330.964 46.3514L310.94 19.6411C309.588 17.8385 307.576 16.6469 305.345 16.3282C303.115 16.0096 300.849 16.5901 299.046 17.942L273.517 37.0996C261.967 35.872 250.32 35.872 238.77 37.0996C163.131 45.745 103.816 106.066 96.4425 181.84C96.2131 184.244 96.1281 186.631 96.0092 189.019H93.4605C91.5049 189.022 89.6104 189.7 88.0967 190.938C86.583 192.176 85.5429 193.899 85.1518 195.815L79.2813 223.732L55.7654 207.514C54.1297 206.385 52.1501 205.866 50.171 206.046C48.1919 206.226 46.3386 207.094 44.9334 208.499L19.4465 233.986C18.0435 235.391 17.1767 237.242 16.9967 239.219C16.8166 241.197 17.3347 243.174 18.461 244.809L34.6027 268.283L6.67759 274.153C4.78204 274.569 3.08577 275.62 1.87091 277.133C0.656051 278.647 -0.00418285 280.53 1.99416e-05 282.471V316.453C-0.0008536 318.403 0.669066 320.294 1.89733 321.808C3.1256 323.323 4.83745 324.369 6.74555 324.77L34.6707 330.641L18.529 354.114C17.4027 355.749 16.8846 357.727 17.0646 359.704C17.2446 361.681 18.1114 363.533 19.5145 364.938L45.0014 390.425C46.4066 391.83 48.2599 392.698 50.239 392.878C52.218 393.058 54.1976 392.539 55.8333 391.41L79.3068 375.226L85.1772 403.151C85.5684 405.067 86.6085 406.79 88.1222 408.028C89.6359 409.266 91.5304 409.944 93.486 409.948H127.469C129.418 409.948 131.309 409.278 132.824 408.05C134.338 406.822 135.384 405.11 135.786 403.202L141.656 375.277L165.13 391.419C166.765 392.545 168.742 393.063 170.72 392.883C172.697 392.703 174.548 391.836 175.953 390.433L189.147 377.197V401.409C189.166 407.348 190.745 413.177 193.727 418.312C196.71 423.448 200.99 427.709 206.138 430.668V477.87C206.138 496.638 221.353 511.853 240.121 511.853H274.103C292.871 511.853 308.086 496.638 308.086 477.87V430.668C313.234 427.709 317.514 423.448 320.496 418.312C323.479 413.177 325.058 407.348 325.077 401.409V367.784C325.19 360.821 327.049 353.998 330.482 347.939C333.915 341.881 338.813 336.78 344.727 333.105C351.778 328.53 358.464 323.418 364.726 317.812L353.393 305.154C347.791 310.175 341.806 314.751 335.493 318.84C327.191 324.051 320.331 331.262 315.542 339.814C310.754 348.366 308.19 357.983 308.086 367.784V401.409C308.086 410.794 300.479 418.401 291.094 418.401H223.129C213.745 418.401 206.138 410.794 206.138 401.409V367.079C206.041 357.465 203.521 348.031 198.811 339.649C194.1 331.268 187.352 324.21 179.19 319.129C111.855 276.819 91.567 187.934 133.877 120.599C146.793 100.044 164.696 83.0874 185.923 71.3065C207.149 59.5257 231.009 53.3026 255.285 53.2158C255.159 53.5184 255.048 53.8275 254.954 54.1419C254.639 56.3724 255.223 58.6368 256.577 60.4371L276.601 87.1389C277.632 88.4737 278.233 90.0904 278.324 91.7746C278.415 93.4588 277.992 95.1309 277.111 96.5691C276.261 98.0177 274.999 99.1802 273.486 99.9081C271.973 100.636 270.277 100.896 268.615 100.655L235.567 95.9319C234.463 95.7734 233.338 95.8341 232.257 96.1103C231.176 96.3866 230.16 96.8731 229.267 97.5419C228.374 98.2108 227.622 99.049 227.053 100.009C226.484 100.968 226.109 102.031 225.951 103.135L225.95 103.145L218.737 153.6C218.417 155.831 218.997 158.097 220.348 159.9C221.698 161.703 223.71 162.896 225.94 163.216L225.95 163.217L258.998 167.941C260.662 168.178 262.218 168.903 263.469 170.024C264.721 171.146 265.612 172.613 266.029 174.241C266.447 175.869 266.372 177.584 265.815 179.17C265.257 180.755 264.242 182.14 262.897 183.148L236.196 203.172C234.393 204.524 233.201 206.537 232.883 208.767C232.564 210.998 233.145 213.264 234.497 215.066L265.081 255.845C266.433 257.648 268.445 258.839 270.676 259.158C272.906 259.477 275.172 258.896 276.975 257.544L303.685 237.52C305.029 236.515 306.641 235.931 308.317 235.84C309.993 235.75 311.658 236.159 313.102 237.014C314.546 237.869 315.704 239.133 316.431 240.646C317.157 242.159 317.42 243.853 317.185 245.515L312.469 278.563C312.311 279.667 312.371 280.792 312.647 281.873C312.924 282.954 313.41 283.97 314.079 284.863C314.747 285.756 315.586 286.508 316.545 287.077C317.505 287.647 318.567 288.021 319.672 288.18H319.674L370.138 295.392C370.535 295.443 370.935 295.469 371.336 295.469C373.382 295.471 375.359 294.735 376.906 293.396C378.453 292.057 379.464 290.205 379.755 288.18L384.47 255.132C384.707 253.468 385.432 251.912 386.554 250.66C387.675 249.408 389.143 248.518 390.77 248.1C392.398 247.683 394.114 247.757 395.699 248.315C397.284 248.872 398.669 249.888 399.677 251.232L419.71 277.934C421.062 279.736 423.074 280.928 425.305 281.247C427.535 281.565 429.801 280.985 431.604 279.633L472.383 249.049C474.185 247.697 475.377 245.684 475.696 243.454C476.014 241.223 475.434 238.957 474.082 237.155L454.058 210.453C453.031 209.116 452.433 207.5 452.342 205.817C452.251 204.134 452.671 202.463 453.548 201.023C454.378 199.557 455.637 198.38 457.156 197.651C458.675 196.922 460.381 196.676 462.044 196.945L495.092 201.66C496.196 201.819 497.321 201.758 498.402 201.482C499.483 201.206 500.499 200.72 501.392 200.051C502.285 199.382 503.037 198.544 503.606 197.584C504.176 196.625 504.55 195.562 504.709 194.458V194.456L511.913 143.992C512.072 142.887 512.011 141.763 511.735 140.682C511.459 139.601 510.972 138.585 510.304 137.691C509.635 136.798 508.797 136.046 507.837 135.477C506.878 134.908 505.815 134.533 504.711 134.375ZM223.129 435.392H291.094V452.383H223.129V435.392ZM223.129 469.374H291.094V477.87C291.094 487.255 283.488 494.861 274.103 494.861H240.121C230.736 494.861 223.129 487.255 223.129 477.87V469.374ZM155.496 322.867C160.134 326.661 164.981 330.192 170.015 333.444C178.042 338.517 184.084 346.192 187.133 355.185L168.91 373.374L151.265 361.208C143.538 355.883 132.958 357.831 127.632 365.558C126.356 367.411 125.46 369.498 124.996 371.7L120.545 392.914H100.35L95.8987 371.734C93.966 362.551 84.9553 356.673 75.7726 358.606C73.5708 359.07 71.483 359.965 69.6302 361.242L51.9763 373.374L36.4973 357.929L48.6545 340.292C53.9845 332.568 52.0432 321.987 44.3196 316.657C42.4656 315.377 40.3754 314.479 38.1709 314.015L16.9913 309.555V289.369L38.1709 284.909C47.3504 282.962 53.2145 273.943 51.268 264.762C50.8064 262.585 49.9213 260.519 48.663 258.683L36.4973 240.995L51.9763 225.55L69.6387 237.716C77.3687 243.035 87.9489 241.081 93.2683 233.351C94.5427 231.5 95.4368 229.414 95.8987 227.215L97.3855 220.147C98.7465 229.935 101.002 239.578 104.123 248.955C76.1687 252.288 56.2093 277.651 59.5417 305.605C62.8741 333.559 88.2378 353.518 116.192 350.186C124.479 349.198 132.396 346.19 139.249 341.426C146.102 336.663 151.681 330.29 155.496 322.867ZM142.302 310.897C135.958 328.531 116.521 337.683 98.8871 331.34C81.2533 324.995 72.1014 305.558 78.4444 287.925C80.8129 281.341 85.1589 275.65 90.887 271.632C96.6151 267.614 103.445 265.465 110.442 265.479H110.765C118.578 282.325 129.248 297.691 142.302 310.897ZM489.043 183.615L464.405 180.098C450.47 178.108 437.561 187.792 435.571 201.726C434.615 208.417 436.357 215.215 440.414 220.622L455.341 240.528L428.154 260.917L413.219 241.02C404.775 229.758 388.8 227.474 377.539 235.919C372.131 239.974 368.555 246.011 367.598 252.702L364.157 277.373L330.523 272.565L334.04 247.927C336.035 233.993 326.357 221.08 312.423 219.086C309.108 218.611 305.732 218.794 302.487 219.625C299.243 220.455 296.195 221.917 293.516 223.927L273.61 238.854L253.221 211.668L273.118 196.733C284.38 188.288 286.664 172.313 278.219 161.052C274.164 155.644 268.127 152.069 261.436 151.111L236.799 147.594L241.607 113.96L266.245 117.477C280.179 119.472 293.092 109.794 295.086 95.8597C295.561 92.5446 295.378 89.1685 294.547 85.9243C293.717 82.6801 292.255 79.6315 290.245 76.9526L275.267 57.0304L302.453 36.6408L317.388 56.5461C325.833 67.8081 341.808 70.0924 353.069 61.6477C358.477 57.5926 362.052 51.5557 363.01 44.8646L366.527 20.2273L400.161 25.0273L396.644 49.6647C394.654 63.5996 404.337 76.5087 418.272 78.4988C424.963 79.4546 431.761 77.713 437.168 73.6563L457.074 58.7295L477.463 85.9155L457.558 100.851C446.296 109.296 444.012 125.27 452.456 136.531C456.511 141.939 462.548 145.515 469.239 146.472L493.877 149.99L489.043 183.615Z" fill="url(#paint0_linear_1134_474)"/>
<path d="M365.312 80.819C327.777 80.819 297.347 111.248 297.347 148.784C297.347 186.32 327.777 216.749 365.312 216.749C402.848 216.749 433.278 186.32 433.278 148.784C433.235 111.265 402.831 80.8604 365.312 80.819ZM365.312 199.758C337.16 199.758 314.339 176.936 314.339 148.784C314.339 120.632 337.16 97.8102 365.312 97.8102C393.465 97.8102 416.286 120.632 416.286 148.784C416.253 176.923 393.451 199.725 365.312 199.758ZM248.616 375.923H265.608V401.41H248.616V375.923ZM219.952 292.488C167.508 272 141.601 212.877 162.089 160.433C170.028 140.111 184.277 122.873 202.74 111.25L193.658 96.8757C138.08 131.889 121.408 205.329 156.422 260.907C169.982 282.432 190.087 299.042 213.784 308.298C234.76 316.335 248.611 336.47 248.616 358.932H265.608C265.634 329.461 247.473 303.03 219.952 292.488ZM418.529 316.454H477.999V333.445H418.529V316.454ZM404.597 373.949L415.473 360.895L466.451 403.366L455.574 416.42L404.597 373.949ZM367.555 384.419H384.547V443.888H367.555V384.419ZM8.67529 146.786L76.6361 129.799L80.7544 146.274L12.7936 163.263L8.67529 146.786ZM22.7876 60.0057L32.6585 46.1865L92.1226 88.6604L82.2528 102.48L22.7876 60.0057ZM95.5793 4.20853L112.04 0L129.416 67.9598L112.956 72.1683L95.5793 4.20853Z" fill="url(#paint1_linear_1134_474)"/>
<defs>
<linearGradient id="paint0_linear_1134_474" x1="376.491" y1="493.424" x2="87.3644" y2="19.8893" gradientUnits="userSpaceOnUse">
<stop offset="0.0001" stop-color="#BE42B1"/>
<stop offset="1" stop-color="#3B4BAA"/>
</linearGradient>
<linearGradient id="paint1_linear_1134_474" x1="353.785" y1="427.84" x2="108.093" y2="4.26421" gradientUnits="userSpaceOnUse">
<stop offset="0.0001" stop-color="#BE42B1"/>
<stop offset="1" stop-color="#3B4BAA"/>
</linearGradient>
</defs>
</svg>
