<svg width="496" height="496" viewBox="0 0 496 496" fill="none" xmlns="http://www.w3.org/2000/svg">
<path d="M472 96H432V80H440C441.522 80.0007 443.012 79.5675 444.296 78.7511C445.58 77.9348 446.604 76.7692 447.249 75.3911C447.894 74.013 448.133 72.4795 447.937 70.9706C447.741 69.4617 447.119 68.0399 446.144 66.872L406.144 18.872C405.368 18.0127 404.42 17.3258 403.361 16.8557C402.303 16.3856 401.158 16.1426 400 16.1426C398.842 16.1426 397.697 16.3856 396.639 16.8557C395.58 17.3258 394.632 18.0127 393.856 18.872L353.856 66.872C352.881 68.0399 352.259 69.4617 352.063 70.9706C351.867 72.4795 352.106 74.013 352.751 75.3911C353.396 76.7692 354.42 77.9348 355.704 78.7511C356.988 79.5675 358.478 80.0007 360 80H368V96H344C344 70.5392 333.886 46.1212 315.882 28.1177C297.879 10.1143 273.461 0 248 0C222.539 0 198.121 10.1143 180.118 28.1177C162.114 46.1212 152 70.5392 152 96H24C17.6348 96 11.5303 98.5286 7.02944 103.029C2.52856 107.53 0 113.635 0 120V392C0 398.365 2.52856 404.47 7.02944 408.971C11.5303 413.471 17.6348 416 24 416H196.896L186.232 448H168C161.635 448 155.53 450.529 151.029 455.029C146.529 459.53 144 465.635 144 472V488C144 490.122 144.843 492.157 146.343 493.657C147.843 495.157 149.878 496 152 496H344C346.122 496 348.157 495.157 349.657 493.657C351.157 492.157 352 490.122 352 488V472C352 465.635 349.471 459.53 344.971 455.029C340.47 450.529 334.365 448 328 448H309.768L299.104 416H472C478.365 416 484.47 413.471 488.971 408.971C493.471 404.47 496 398.365 496 392V120C496 113.635 493.471 107.53 488.971 103.029C484.47 98.5286 478.365 96 472 96ZM400 36.496L422.976 64.064C421.047 64.3129 419.275 65.2558 417.991 66.7164C416.707 68.177 416 70.0553 416 72V144H384V72C384 70.0553 383.293 68.177 382.009 66.7164C380.725 65.2558 378.953 64.3129 377.024 64.064L400 36.496ZM248 16C263.823 16 279.29 20.6919 292.446 29.4824C305.602 38.2729 315.855 50.7672 321.91 65.3853C327.965 80.0034 329.55 96.0887 326.463 111.607C323.376 127.126 315.757 141.38 304.569 152.569C293.38 163.757 279.126 171.376 263.607 174.463C248.089 177.55 232.003 175.965 217.385 169.91C202.767 163.855 190.273 153.602 181.482 140.446C172.692 127.29 168 111.823 168 96C168.023 74.7898 176.459 54.455 191.457 39.4572C206.455 24.4593 226.79 16.0233 248 16ZM24 112H153.448C157.198 134.366 168.756 154.678 186.067 169.328C203.378 183.979 225.322 192.018 248 192.018C270.678 192.018 292.622 183.979 309.933 169.328C327.244 154.678 338.802 134.366 342.552 112H368V152C368 154.122 368.843 156.157 370.343 157.657C371.843 159.157 373.878 160 376 160H424C426.122 160 428.157 159.157 429.657 157.657C431.157 156.157 432 154.122 432 152V112H472C474.122 112 476.157 112.843 477.657 114.343C479.157 115.843 480 117.878 480 120V336H16V120C16 117.878 16.8429 115.843 18.3431 114.343C19.8434 112.843 21.8783 112 24 112ZM336 472V480H160V472C160 469.878 160.843 467.843 162.343 466.343C163.843 464.843 165.878 464 168 464H328C330.122 464 332.157 464.843 333.657 466.343C335.157 467.843 336 469.878 336 472ZM292.896 448H203.104L213.768 416H282.232L292.896 448ZM472 400H24C21.8783 400 19.8434 399.157 18.3431 397.657C16.8429 396.157 16 394.122 16 392V352H480V392C480 394.122 479.157 396.157 477.657 397.657C476.157 399.157 474.122 400 472 400Z" fill="url(#paint0_linear_1134_470)"/>
<path d="M224 120H208C208 128.487 211.371 136.626 217.373 142.627C223.374 148.629 231.513 152 240 152V160H256V152C264.487 152 272.626 148.629 278.627 142.627C284.629 136.626 288 128.487 288 120C288 111.513 284.629 103.374 278.627 97.3726C272.626 91.3714 264.487 88 256 88V56C260.243 56 264.313 57.6857 267.314 60.6863C270.314 63.6869 272 67.7565 272 72V80H288V72C288 63.5131 284.629 55.3737 278.627 49.3726C272.626 43.3714 264.487 40 256 40V32H240V40C231.513 40 223.374 43.3714 217.373 49.3726C211.371 55.3737 208 63.5131 208 72C208 80.4869 211.371 88.6263 217.373 94.6274C223.374 100.629 231.513 104 240 104V136C235.757 136 231.687 134.314 228.686 131.314C225.686 128.313 224 124.243 224 120ZM224 72C224 67.7565 225.686 63.6869 228.686 60.6863C231.687 57.6857 235.757 56 240 56V88C235.757 88 231.687 86.3143 228.686 83.3137C225.686 80.3131 224 76.2435 224 72ZM256 104C260.243 104 264.313 105.686 267.314 108.686C270.314 111.687 272 115.757 272 120C272 124.243 270.314 128.313 267.314 131.314C264.313 134.314 260.243 136 256 136V104ZM56 320H200C202.122 320 204.157 319.157 205.657 317.657C207.157 316.157 208 314.122 208 312V280C208 277.878 207.157 275.843 205.657 274.343C204.157 272.843 202.122 272 200 272H160V208H168C169.522 208.001 171.012 207.567 172.296 206.751C173.58 205.935 174.604 204.769 175.249 203.391C175.894 202.013 176.133 200.479 175.937 198.971C175.741 197.462 175.119 196.04 174.144 194.872L134.144 146.872C133.368 146.013 132.42 145.326 131.361 144.856C130.303 144.386 129.158 144.143 128 144.143C126.842 144.143 125.697 144.386 124.639 144.856C123.58 145.326 122.632 146.013 121.856 146.872L81.856 194.872C80.8807 196.04 80.2586 197.462 80.0628 198.971C79.867 200.479 80.1056 202.013 80.7506 203.391C81.3956 204.769 82.4202 205.935 83.7042 206.751C84.9882 207.567 86.4784 208.001 88 208H96V272H56C53.8783 272 51.8434 272.843 50.3431 274.343C48.8429 275.843 48 277.878 48 280V312C48 314.122 48.8429 316.157 50.3431 317.657C51.8434 319.157 53.8783 320 56 320ZM105.024 192.064L128 164.496L150.976 192.064C149.047 192.313 147.275 193.256 145.991 194.716C144.707 196.177 144 198.055 144 200V272H112V200C112 198.055 111.293 196.177 110.009 194.716C108.725 193.256 106.953 192.313 105.024 192.064ZM64 288H192V304H64V288Z" fill="url(#paint1_linear_1134_470)"/>
<defs>
<linearGradient id="paint0_linear_1134_470" x1="364.726" y1="478.068" x2="82.8257" y2="18.4062" gradientUnits="userSpaceOnUse">
<stop offset="0.0001" stop-color="#BE42B1"/>
<stop offset="1" stop-color="#3B4BAA"/>
</linearGradient>
<linearGradient id="paint1_linear_1134_470" x1="224.48" y1="309.588" x2="49.145" y2="71.3388" gradientUnits="userSpaceOnUse">
<stop offset="0.0001" stop-color="#BE42B1"/>
<stop offset="1" stop-color="#3B4BAA"/>
</linearGradient>
</defs>
</svg>
