<svg width="512" height="508" viewBox="0 0 512 508" fill="none" xmlns="http://www.w3.org/2000/svg">
<path d="M305.492 146.134L291.843 135.892L337.921 77.8677C344.746 70.1845 346.454 59.0923 342.188 49.7056C337.067 35.2011 320.854 28.3723 306.346 33.4923L301.226 35.2011L295.254 18.9835L300.374 17.2789C323.412 7.89228 349.867 19.8379 358.4 42.8789C364.375 58.2379 361.813 75.3045 351.575 88.1045L305.492 146.134ZM161.281 200.747L94.721 193.067C69.121 190.506 50.3477 166.613 52.9098 141.013C54.6133 123.093 66.5588 108.585 82.7764 101.76L90.4554 98.3467L96.4255 114.56L88.7466 117.972C73.3887 123.947 65.7098 141.868 71.6799 157.226C75.9466 167.468 85.3343 175.147 96.4266 176.001L162.989 183.681L161.281 200.747Z" fill="#E8821C"/>
<path d="M225.28 212.695L192 209.283C153.6 205.87 120.32 181.121 105.813 144.43L83.623 88.1075C80.2108 79.5741 84.4774 69.3363 93.0108 65.9198H93.8662L273.92 1.07068C282.453 -2.34585 292.691 2.77521 296.108 11.3085L314.879 67.6286C325.975 101.762 319.145 139.309 295.254 166.616L272.212 193.07L363.521 432.003H397.654C404.479 432.003 411.307 436.27 413.012 443.096L418.133 455.896L292.691 505.386L287.575 492.586C285.012 485.761 286.721 478.936 291.842 473.815L316.587 449.92L225.28 212.695Z" fill="#F4A422"/>
<path d="M261.976 155.523L250.025 143.579C287.576 106.032 249.176 43.7411 249.176 42.8867L263.679 33.5C265.388 36.9123 308.909 108.59 261.976 155.523Z" fill="#EDC17C"/>
<path d="M413.014 443.947C410.454 437.118 404.481 432.852 397.654 432.852H363.521L316.587 451.626L291.843 475.518C286.722 480.638 285.013 487.468 287.576 494.293L292.692 507.093L418.134 457.601L413.014 443.947Z" fill="#E8821C"/>
<path d="M395.947 339.845L347.309 209.286C343.891 200.753 334.509 195.633 325.121 199.045H324.267L230.4 240.007C225.28 242.565 221.867 246.832 220.158 251.954L213.333 286.087L0 371.421V490.887L247.467 388.487L310.613 396.165C314.025 396.165 317.442 396.165 320 394.457L387.413 361.177C395.091 356.911 398.509 348.379 395.947 339.845Z" fill="#EFCCBF"/>
<path d="M213.333 286.086L128 320.219L162.133 423.473L247.467 388.486L213.333 286.086Z" fill="#676B7F"/>
<path d="M426.667 38.6193C426.667 66.7782 403.625 89.8193 375.467 89.8193C403.625 89.8193 426.667 112.857 426.667 141.019C426.667 112.857 449.709 89.8193 477.867 89.8193C449.709 89.8193 426.667 66.7782 426.667 38.6193ZM51.2 209.286C51.2 237.445 28.1579 260.486 0 260.486C28.1579 260.486 51.2 283.524 51.2 311.686C51.2 283.524 74.2421 260.486 102.4 260.486C74.2421 260.486 51.2 237.445 51.2 209.286ZM460.8 209.286C460.8 237.445 437.758 260.486 409.6 260.486C437.758 260.486 460.8 283.524 460.8 311.686C460.8 283.524 483.842 260.486 512 260.486C483.842 260.486 460.8 237.445 460.8 209.286Z" fill="#F4C167"/>
<path d="M162.133 423.47L0 490.883V371.416L128 320.216L162.133 423.47ZM180.053 382.507L195.413 377.386L170.667 303.148L155.309 309.12L180.053 382.507Z" fill="#4A4A56"/>
<path d="M354.134 227.203L304.643 244.27L309.758 259.628L360.109 243.415L354.134 227.203ZM370.347 270.719L321.709 286.936L326.825 302.294L376.322 286.082L370.347 270.719ZM385.709 313.386L338.776 329.603L343.892 344.961L391.679 329.603L385.709 313.386Z" fill="#D8B4AD"/>
<path d="M305.492 146.134L291.843 135.892L337.921 77.8677C344.746 70.1845 346.454 59.0923 342.188 49.7056C337.067 35.2011 320.854 28.3723 306.346 33.4923L301.226 35.2011L295.254 18.9835L300.374 17.2789C323.412 7.89228 349.867 19.8379 358.4 42.8789C364.375 58.2379 361.813 75.3045 351.575 88.1045L305.492 146.134ZM161.281 200.747L94.721 193.067C69.121 190.506 50.3477 166.613 52.9098 141.013C54.6133 123.093 66.5588 108.585 82.7764 101.76L90.4554 98.3467L96.4255 114.56L88.7466 117.972C73.3887 123.947 65.7098 141.868 71.6799 157.226C75.9466 167.468 85.3343 175.147 96.4266 176.001L162.989 183.681L161.281 200.747Z" fill="#E8821C"/>
<path d="M225.28 212.695L192 209.283C153.6 205.87 120.32 181.121 105.813 144.43L83.623 88.1075C80.2108 79.5741 84.4774 69.3363 93.0108 65.9198H93.8662L273.92 1.07068C282.453 -2.34585 292.691 2.77521 296.108 11.3085L314.879 67.6286C325.975 101.762 319.145 139.309 295.254 166.616L272.212 193.07L363.521 432.003H397.654C404.479 432.003 411.307 436.27 413.012 443.096L418.133 455.896L292.691 505.386L287.575 492.586C285.012 485.761 286.721 478.936 291.842 473.815L316.587 449.92L225.28 212.695Z" fill="#F4A422"/>
<path d="M261.976 155.523L250.025 143.579C287.576 106.032 249.176 43.7411 249.176 42.8867L263.679 33.5C265.388 36.9123 308.909 108.59 261.976 155.523Z" fill="#EDC17C"/>
<path d="M413.014 443.947C410.454 437.118 404.481 432.852 397.654 432.852H363.521L316.587 451.626L291.843 475.518C286.722 480.638 285.013 487.468 287.576 494.293L292.692 507.093L418.134 457.601L413.014 443.947Z" fill="#E8821C"/>
<path d="M395.947 339.845L347.309 209.286C343.891 200.753 334.509 195.633 325.121 199.045H324.267L230.4 240.007C225.28 242.565 221.867 246.832 220.158 251.954L213.333 286.087L0 371.421V490.887L247.467 388.487L310.613 396.165C314.025 396.165 317.442 396.165 320 394.457L387.413 361.177C395.091 356.911 398.509 348.379 395.947 339.845Z" fill="#EFCCBF"/>
<path d="M213.333 286.086L128 320.219L162.133 423.473L247.467 388.486L213.333 286.086Z" fill="#676B7F"/>
<path d="M426.667 38.6193C426.667 66.7782 403.625 89.8193 375.467 89.8193C403.625 89.8193 426.667 112.857 426.667 141.019C426.667 112.857 449.709 89.8193 477.867 89.8193C449.709 89.8193 426.667 66.7782 426.667 38.6193ZM51.2 209.286C51.2 237.445 28.1579 260.486 0 260.486C28.1579 260.486 51.2 283.524 51.2 311.686C51.2 283.524 74.2421 260.486 102.4 260.486C74.2421 260.486 51.2 237.445 51.2 209.286ZM460.8 209.286C460.8 237.445 437.758 260.486 409.6 260.486C437.758 260.486 460.8 283.524 460.8 311.686C460.8 283.524 483.842 260.486 512 260.486C483.842 260.486 460.8 237.445 460.8 209.286Z" fill="#F4C167"/>
<path d="M162.133 423.47L0 490.883V371.416L128 320.216L162.133 423.47ZM180.053 382.507L195.413 377.386L170.667 303.148L155.309 309.12L180.053 382.507Z" fill="#4A4A56"/>
<path d="M354.134 227.203L304.643 244.27L309.758 259.628L360.109 243.415L354.134 227.203ZM370.347 270.719L321.709 286.936L326.825 302.294L376.322 286.082L370.347 270.719ZM385.709 313.386L338.776 329.603L343.892 344.961L391.679 329.603L385.709 313.386Z" fill="#D8B4AD"/>
</svg>
