<svg width="512" height="496" viewBox="0 0 512 496" fill="none" xmlns="http://www.w3.org/2000/svg">
<path fill-rule="evenodd" clip-rule="evenodd" d="M222.694 318.016H289.307C311.05 324.536 329.872 337.263 329.872 351.918V438.913H182.129V351.918C182.129 337.263 200.951 324.535 222.694 318.016Z" fill="#EBD2FF"/>
<path fill-rule="evenodd" clip-rule="evenodd" d="M304.871 351.918V438.913H329.873V351.918C329.873 337.263 311.051 324.535 289.308 318.016H264.307C286.048 324.535 304.871 337.263 304.871 351.918Z" fill="#D7BEF0"/>
<path fill-rule="evenodd" clip-rule="evenodd" d="M89.4062 434.921H128.752L160.953 430.443L192.843 434.921H319.157L350.565 428.742L383.248 434.921H422.622V495.186H89.4062V434.921Z" fill="#D09080"/>
<path fill-rule="evenodd" clip-rule="evenodd" d="M0 484.217V356.035C0 340.246 12.927 327.32 28.687 327.32H76.055C76.877 327.32 77.671 327.377 78.493 327.433C85.835 326.724 93.376 329.729 98.166 336.05L136.69 387.073C138.646 389.653 140.744 391.013 144.571 391.013H192.844C204.977 391.013 214.814 400.821 214.814 412.953C214.814 425.085 204.977 434.921 192.844 434.921H128.753C125.361 434.92 122.015 434.131 118.979 432.616C115.944 431.101 113.302 428.902 111.262 426.191L104.743 417.545V495.186H10.971C8.24044 494.698 5.72498 493.385 3.76341 491.424C1.80185 489.463 0.488415 486.948 0 484.217Z" fill="#FF6978"/>
<path fill-rule="evenodd" clip-rule="evenodd" d="M512 484.217V356.035C512 340.246 499.103 327.32 483.314 327.32H435.974C435.152 327.32 434.331 327.377 433.536 327.433C426.166 326.724 418.626 329.729 413.835 336.05L375.312 387.073C373.526 389.427 371.457 391.013 367.431 391.013H319.158C307.025 391.013 297.188 400.821 297.188 412.953C297.188 425.085 307.025 434.921 319.158 434.921H383.249C386.641 434.92 389.987 434.131 393.022 432.616C396.057 431.101 398.699 428.902 400.74 426.191L407.288 417.545V495.186H501.031C503.761 494.698 506.276 493.385 508.237 491.424C510.198 489.463 511.511 486.948 512 484.217Z" fill="#CCF49F"/>
<path fill-rule="evenodd" clip-rule="evenodd" d="M227.995 194.511H353.797L385.632 226.344C388.154 228.867 391.046 227.393 391.046 224.076V194.511C407.26 194.511 420.526 181.245 420.526 165.032V90.6216C420.526 74.4076 407.26 61.1406 391.046 61.1406H227.995C211.78 61.1406 198.514 74.4076 198.514 90.6216V165.032C198.514 181.245 211.78 194.511 227.995 194.511Z" fill="#ECF4FF"/>
<path fill-rule="evenodd" clip-rule="evenodd" d="M80.646 164.778H212.998C234.514 164.778 252.116 147.175 252.116 125.66V39.118C252.116 17.602 234.514 0 212.998 0H43.371C21.855 0 4.25195 17.603 4.25195 39.118V125.659C4.25195 147.175 21.856 164.777 43.371 164.777V194.371C43.371 197.546 46.489 198.964 48.813 196.61L80.646 164.778Z" fill="#ECF4FF"/>
<path d="M56.6666 49.2662C52.5276 49.2662 49.1836 45.8932 49.1836 41.7542C49.1836 37.6152 52.5286 34.2422 56.6666 34.2422H199.676C203.843 34.2422 207.188 37.6152 207.188 41.7542C207.188 45.8932 203.843 49.2662 199.676 49.2662H56.6666ZM56.6666 130.535C55.6837 130.536 54.7102 130.343 53.8019 129.967C52.8936 129.592 52.0683 129.041 51.3733 128.346C50.6782 127.65 50.1271 126.825 49.7513 125.917C49.3756 125.009 49.1827 124.035 49.1836 123.052C49.1836 118.913 52.5286 115.54 56.6666 115.54H128.186C132.325 115.54 135.698 118.913 135.698 123.052C135.698 127.191 132.325 130.535 128.186 130.535H56.6666ZM56.6666 89.8872C52.5276 89.8872 49.1836 86.5412 49.1836 82.4032C49.1836 78.2652 52.5286 74.8912 56.6666 74.8912H199.676C200.662 74.8905 201.639 75.0844 202.551 75.4617C203.463 75.8389 204.291 76.3923 204.989 77.0899C205.687 77.7876 206.24 78.616 206.617 79.5277C206.994 80.4394 207.188 81.4165 207.188 82.4032C207.188 86.5422 203.843 89.8872 199.676 89.8872H56.6666Z" fill="#477B9E"/>
<path fill-rule="evenodd" clip-rule="evenodd" d="M297.697 295.769C297.697 318.702 278.932 337.466 256 337.466C233.068 337.466 214.303 318.701 214.303 295.769V251.095C214.303 238.254 224.82 227.766 237.66 227.766H291.49C295.77 227.766 297.697 230.204 297.697 233.974V295.769Z" fill="#FFCBBE"/>
<path fill-rule="evenodd" clip-rule="evenodd" d="M214.303 251.095V264.559H297.698V233.974C297.698 230.204 295.771 227.766 291.491 227.766H237.661C224.819 227.766 214.303 238.254 214.303 251.095Z" fill="#FFE5A0"/>
<path fill-rule="evenodd" clip-rule="evenodd" d="M10.6855 295.769C10.6855 318.702 29.4225 337.466 52.3565 337.466C75.2885 337.466 94.0536 318.701 94.0536 295.769V251.095C94.0536 238.254 83.5655 227.766 70.7245 227.766H34.0145C21.1735 227.766 10.6855 238.254 10.6855 251.095V295.769Z" fill="#FFCBBE"/>
<path fill-rule="evenodd" clip-rule="evenodd" d="M501.341 295.769C501.341 318.702 482.575 337.466 459.642 337.466C436.71 337.466 417.945 318.701 417.945 295.769V251.095C417.945 238.254 428.462 227.766 441.274 227.766H478.012C490.824 227.766 501.341 238.254 501.341 251.095V295.769Z" fill="#D8A595"/>
<path fill-rule="evenodd" clip-rule="evenodd" d="M501.341 295.762C501.341 318.695 482.575 337.459 459.642 337.459C455.305 337.459 451.081 336.779 447.142 335.532C462.76 330.571 474.496 316.625 476.141 299.815C482.661 300.921 490.881 300.353 501.285 297.207L501.342 251.088L501.341 295.762ZM94.0536 251.088V267.33C82.3186 271.695 72.6806 268.124 67.0396 264.892C62.6446 262.397 61.8806 262.397 61.3696 266.394C59.8396 278.129 54.5666 310.445 10.7136 297.206L10.6856 251.087C10.6576 238.246 21.1736 227.758 34.0146 227.758H70.7246C83.5646 227.759 94.0536 238.247 94.0536 251.088Z" fill="#D09080"/>
<path fill-rule="evenodd" clip-rule="evenodd" d="M417.943 251.088V267.33C429.707 271.695 439.316 268.124 444.986 264.892C449.351 262.397 450.116 262.397 450.627 266.394C452.157 278.129 457.458 310.445 501.283 297.206L501.34 251.087C501.34 238.246 490.823 227.758 478.011 227.758H441.273C428.46 227.759 417.943 238.247 417.943 251.088Z" fill="#477B9E"/>
<path fill-rule="evenodd" clip-rule="evenodd" d="M476.34 251.095V295.769C476.34 297.129 476.283 298.491 476.142 299.823C482.662 300.929 490.882 300.361 501.286 297.215L501.343 251.096C501.343 238.793 491.705 228.646 479.629 227.823C479.091 227.766 478.552 227.766 478.014 227.766H453.01C465.822 227.766 476.34 238.254 476.34 251.095Z" fill="#365E7D"/>
<path fill-rule="evenodd" clip-rule="evenodd" d="M69.0525 295.768C69.0525 314.335 56.7505 330.181 39.8555 335.539C43.9003 336.814 48.1163 337.464 52.3575 337.466C75.2895 337.466 94.0545 318.701 94.0545 295.769V267.337C83.6225 271.192 74.8355 268.812 69.0525 265.977V295.768Z" fill="#F7BEAF"/>
<path fill-rule="evenodd" clip-rule="evenodd" d="M45.7246 227.766C58.5656 227.766 69.0526 238.254 69.0526 251.095V265.977C74.8356 268.812 83.6226 271.193 94.0546 267.337V251.095C94.0546 238.254 83.5666 227.766 70.7256 227.766H45.7246Z" fill="#BE694F"/>
<path fill-rule="evenodd" clip-rule="evenodd" d="M272.695 295.764C272.695 314.331 260.392 330.177 243.498 335.535C247.543 336.81 251.758 337.46 255.999 337.462C278.932 337.462 297.696 318.697 297.696 295.765V264.555H272.695V295.764Z" fill="#F7BEAF"/>
<path fill-rule="evenodd" clip-rule="evenodd" d="M272.694 233.974V264.559H297.695V233.974C297.695 230.204 295.768 227.766 291.488 227.766H266.486C270.767 227.766 272.694 230.203 272.694 233.974Z" fill="#F2CE7E"/>
<path fill-rule="evenodd" clip-rule="evenodd" d="M82.7725 388.461C82.5659 388.166 82.2693 387.946 81.9271 387.833C81.5849 387.721 81.2155 387.722 80.8741 387.837C80.5328 387.952 80.2377 388.174 80.0332 388.471C79.8287 388.767 79.7257 389.122 79.7395 389.482V495.185H104.741V417.544L82.7725 388.461Z" fill="#CF4351"/>
<path fill-rule="evenodd" clip-rule="evenodd" d="M486.998 356.033V484.216C486.034 489.8 481.612 494.194 476.057 495.186H501.031C503.761 494.697 506.276 493.384 508.238 491.423C510.199 489.461 511.512 486.946 512.001 484.216V356.033C512.001 341.349 500.832 329.16 486.603 327.516C483.561 330.106 480.162 332.245 476.511 333.866C482.916 339.138 486.998 347.132 486.998 356.033Z" fill="#B3E59F"/>
<path fill-rule="evenodd" clip-rule="evenodd" d="M198.795 169.226C200.864 183.455 213.196 194.51 227.993 194.51H353.795L385.63 226.343C388.152 228.866 391.044 227.392 391.044 224.075V194.51C407.258 194.51 420.524 181.244 420.524 165.031V90.6211C420.524 75.8241 409.498 63.4941 395.24 61.4531C395.438 62.8131 395.523 64.2021 395.523 65.6201V140.029C395.523 156.243 382.285 169.509 366.07 169.509H202.99C201.573 169.509 200.184 169.396 198.795 169.226Z" fill="#DDEAFB"/>
<path fill-rule="evenodd" clip-rule="evenodd" d="M227.114 100.656C227.114 118.543 214.953 133.708 198.511 138.356C195.087 139.314 191.549 139.801 187.994 139.802H18.368C14.116 139.802 10.034 139.093 6.20703 137.846C11.338 153.437 26.106 164.775 43.37 164.775V194.369C43.37 197.544 46.488 198.962 48.812 196.608L80.645 164.775H212.996C234.512 164.775 252.114 147.172 252.114 125.657V39.1161C252.114 21.8521 240.776 7.08413 225.157 1.95312C226.457 5.87557 227.118 9.98176 227.113 14.1141V100.656H227.114Z" fill="#DDEAFB"/>
<path fill-rule="evenodd" clip-rule="evenodd" d="M382.283 434.914H407.285V495.179H382.283V434.914Z" fill="#BE694F"/>
</svg>
