<svg width="488" height="491" viewBox="0 0 488 491" fill="none" xmlns="http://www.w3.org/2000/svg">
<path d="M411.235 136.887H336.158C320.143 101.661 284.7 77.0586 243.549 77.0586C202.396 77.0586 166.953 101.661 150.938 136.887H90.4652V136.882H76.9252C75.2392 136.882 73.5922 137.056 72.0022 137.384C60.8822 139.664 52.4922 149.524 52.4922 161.309V381.035C52.4922 394.501 63.4482 405.457 76.9142 405.457H201.525L187.962 454H161.305C151.127 454 142.845 462.282 142.845 472.462C142.845 482.638 151.127 490.919 161.305 490.919H326.846C337.024 490.919 345.306 482.637 345.306 472.462C345.306 462.282 337.024 454 326.846 454H300.191L286.627 405.457H411.237C424.703 405.457 435.659 394.501 435.659 381.035V161.309C435.657 147.843 424.701 136.887 411.235 136.887ZM335.434 173.999H293.348C292.548 137.582 282.813 106.745 268.348 90.1716C305.632 100.621 333.349 133.936 335.434 173.999ZM335.434 183.625C333.349 223.692 305.632 257.009 268.347 267.457C282.812 250.884 292.548 220.043 293.348 183.625H335.434ZM248.361 87.4446C267.337 92.8906 282.671 129.886 283.727 173.999H248.361V87.4446ZM248.361 183.625H283.727C282.671 227.738 267.337 264.736 248.361 270.183V183.625ZM238.735 87.4446V173.999H203.369C204.425 129.886 219.759 92.8906 238.735 87.4446ZM238.735 183.625V270.183C219.759 264.736 204.425 227.738 203.369 183.625H238.735ZM218.748 90.1716C204.283 106.745 194.548 137.582 193.748 173.999H151.66C153.745 133.936 181.464 100.621 218.748 90.1716ZM193.748 183.625C194.548 220.043 204.284 250.884 218.749 267.457C181.464 257.009 153.745 223.692 151.66 183.625H193.748ZM243.548 280.57C299.656 280.57 345.303 234.922 345.303 178.812C345.303 176.537 345.109 174.31 344.961 172.072H386.723C394.015 172.072 399.949 178.004 399.949 185.293V332.985C399.949 340.28 394.015 346.211 386.723 346.211H100.373C93.0812 346.211 87.1472 340.279 87.1472 332.985V185.294C87.1472 178.004 93.0812 172.073 100.373 172.073H142.132C141.984 174.311 141.79 176.538 141.79 178.813C141.79 234.922 187.438 280.57 243.548 280.57ZM326.844 463.626C331.716 463.626 335.678 467.588 335.678 472.462C335.678 477.331 331.716 481.294 326.844 481.294H161.303C156.431 481.294 152.469 477.332 152.469 472.462C152.469 467.588 156.431 463.626 161.303 463.626H326.844ZM290.19 453.981H197.959L211.514 405.457H225.92V415.825C225.92 425.836 234.063 433.982 244.074 433.982C254.083 433.982 262.226 425.837 262.226 415.825V405.457H276.632L290.19 453.981ZM235.546 415.826V405.458H252.6V415.826C252.6 420.531 248.774 424.357 244.074 424.357C239.372 424.356 235.546 420.53 235.546 415.826ZM426.031 381.035C426.031 389.194 419.394 395.831 411.235 395.831C345.951 395.803 91.0842 395.831 90.4642 395.831V395.817H76.9242C68.7762 395.817 62.1492 389.19 62.1492 381.04V161.332C62.1492 154.184 67.2182 148.202 73.9382 146.813C74.9168 146.612 75.9132 146.511 76.9122 146.512H147.133C145.406 151.653 144.121 156.978 143.231 162.445H100.372C87.7712 162.445 77.5202 172.696 77.5202 185.292V332.984C77.5202 345.585 87.7712 355.836 100.372 355.836H386.723C399.324 355.836 409.575 345.585 409.575 332.984V185.294C409.575 172.698 399.324 162.447 386.723 162.447H343.862C342.972 156.98 341.687 151.654 339.96 146.514H411.234C419.393 146.514 426.03 153.151 426.03 161.31V381.035H426.031Z" fill="#59C1FF"/>
<path d="M410.142 0C367.712 0 333.191 27.472 333.191 61.243C333.191 73.412 337.607 85.087 345.982 95.117C345.512 96.847 344.13 100.955 340.074 110.078C338.666 113.246 339.392 116.813 341.928 119.168C344.461 121.523 348.076 121.993 351.119 120.357C363.697 113.626 367.953 113.015 368.876 112.973C381.188 119.196 395.446 122.486 410.141 122.486C452.571 122.486 487.089 95.014 487.089 61.243C487.089 27.472 452.573 0 410.142 0ZM410.142 112.86C396.801 112.86 383.906 109.861 372.846 104.188C371.887 103.699 370.729 103.342 369.086 103.342C365.749 103.342 360.421 104.823 350.746 109.701C356.934 95.281 356.624 92.649 354.464 90.214C346.845 81.641 342.817 71.625 342.817 61.242C342.817 32.783 373.018 9.625 410.142 9.625C447.264 9.625 477.464 32.783 477.464 61.242C477.464 89.701 447.264 112.86 410.142 112.86Z" fill="#59C1FF"/>
<path d="M410.15 59.711C420.22 59.711 428.412 51.519 428.412 41.451C428.412 31.369 420.22 23.167 410.15 23.167C400.071 23.167 391.871 31.369 391.871 41.451C391.872 51.518 400.071 59.711 410.15 59.711ZM410.15 32.793C414.911 32.793 418.786 36.675 418.786 41.451C418.786 46.212 414.911 50.085 410.15 50.085C405.379 50.085 401.497 46.212 401.497 41.451C401.497 36.675 405.38 32.793 410.15 32.793ZM410.143 60.646C393.427 60.646 379.369 72.603 376.713 89.082C376.511 90.3389 376.585 91.6247 376.929 92.8502C377.274 94.0757 377.881 95.2116 378.708 96.179C379.544 97.1641 380.585 97.9553 381.758 98.4976C382.931 99.0398 384.208 99.3201 385.5 99.319H434.783C436.075 99.3201 437.352 99.0398 438.525 98.4976C439.698 97.9553 440.739 97.1641 441.575 96.179C442.402 95.2116 443.009 94.0757 443.354 92.8502C443.698 91.6247 443.772 90.3389 443.57 89.082C440.915 72.603 426.857 60.646 410.143 60.646ZM386.384 89.693C388.645 78.384 398.492 70.272 410.143 70.272C421.792 70.272 431.639 78.384 433.9 89.693H386.384ZM118.213 112.973C119.139 113.015 123.395 113.626 135.972 120.357C139.025 121.997 142.632 121.523 145.163 119.168C147.696 116.813 148.423 113.246 147.015 110.078C142.959 100.955 141.577 96.847 141.107 95.117C149.483 85.082 153.898 73.412 153.898 61.243C153.898 27.473 119.38 0 76.95 0C34.52 0 0 27.473 0 61.243C0 95.013 34.52 122.486 76.951 122.486C91.648 122.486 105.906 119.196 118.213 112.973ZM9.626 61.243C9.626 32.784 39.827 9.626 76.951 9.626C114.073 9.626 144.273 32.784 144.273 61.243C144.273 71.626 140.247 81.642 132.626 90.219C130.469 92.649 130.158 95.281 136.344 109.701C121.912 102.42 117.151 102.698 114.239 104.192C103.187 109.86 90.294 112.859 76.951 112.859C39.827 112.86 9.626 89.702 9.626 61.243Z" fill="#59C1FF"/>
<path d="M76.9415 59.712C87.0205 59.712 95.2225 51.52 95.2225 41.452C95.2225 31.37 87.0205 23.168 76.9415 23.168C66.8715 23.168 58.6795 31.37 58.6795 41.452C58.6785 51.519 66.8715 59.712 76.9415 59.712ZM76.9415 32.794C81.7145 32.794 85.5965 36.676 85.5965 41.452C85.5965 46.213 81.7145 50.086 76.9415 50.086C72.1805 50.086 68.3055 46.213 68.3055 41.452C68.3045 36.676 72.1795 32.794 76.9415 32.794ZM108.381 96.18C109.209 95.2128 109.816 94.0771 110.161 92.8515C110.506 91.626 110.58 90.34 110.379 89.083C107.723 72.604 93.6645 60.647 76.9515 60.647C60.2385 60.647 46.1795 72.604 43.5215 89.083C43.3192 90.34 43.3932 91.6261 43.7382 92.8517C44.0832 94.0773 44.6911 95.2131 45.5195 96.18C46.3552 97.165 47.3955 97.9561 48.5679 98.4984C49.7403 99.0406 51.0168 99.321 52.3085 99.32H101.595C102.886 99.3208 104.162 99.0404 105.334 98.4981C106.506 97.9558 107.545 97.1648 108.381 96.18ZM53.1915 89.694C55.4545 78.385 65.3015 70.273 76.9505 70.273C88.5995 70.273 98.4465 78.385 100.708 89.694H53.1915Z" fill="#59C1FF"/>
</svg>
