<svg width="504" height="494" viewBox="0 0 504 494" fill="none" xmlns="http://www.w3.org/2000/svg">
<path d="M477.822 74.863H356.098L358.538 72.415C359.944 71.0266 361.059 69.3725 361.82 67.549C362.58 65.7254 362.971 63.7688 362.968 61.793C362.977 59.8081 362.592 57.8411 361.835 56.0064C361.077 54.1717 359.962 52.5059 358.555 51.106L334.772 27.323C333.376 25.9198 331.716 24.8073 329.887 24.05C328.058 23.2927 326.097 22.9055 324.118 22.911H324.086C320.063 22.919 316.291 24.493 313.489 27.317L307.766 33.021C300.206 28.8251 292.196 25.4973 283.889 23.101V15.037C283.889 6.745 277.13 0 268.823 0H235.177C226.869 0 220.111 6.745 220.111 15.037V23.117C211.794 25.497 203.776 28.8189 196.213 33.018L190.519 27.324C189.123 25.9202 187.463 24.8074 185.634 24.0499C183.805 23.2924 181.844 22.9053 179.864 22.911H179.835C175.812 22.919 172.039 24.492 169.231 27.321L145.417 51.107C144.01 52.5067 142.895 54.1723 142.138 56.0068C141.38 57.8414 140.995 59.8083 141.005 61.793C141.013 65.816 142.586 69.589 145.411 72.392L147.875 74.864H26.178C11.743 74.864 0 86.607 0 101.042V374.472C0 388.907 11.743 400.65 26.178 400.65H183.373V448.017H143.73C131.187 448.017 120.982 458.209 120.982 470.737V487.49C120.982 488.277 121.137 489.057 121.438 489.784C121.739 490.512 122.181 491.173 122.738 491.729C123.294 492.286 123.955 492.728 124.683 493.029C125.41 493.33 126.19 493.485 126.977 493.485H376.994C377.781 493.485 378.561 493.33 379.288 493.029C380.016 492.728 380.677 492.286 381.233 491.729C381.79 491.173 382.232 490.512 382.533 489.784C382.834 489.057 382.989 488.277 382.989 487.49V470.737C382.989 458.21 372.797 448.017 360.269 448.017H320.626V400.65H477.821C492.256 400.65 503.999 388.907 503.999 374.472V101.04C503.999 86.605 492.256 74.862 477.821 74.862L477.822 74.863ZM153.891 59.588L177.721 35.786C178.001 35.5048 178.333 35.2818 178.699 35.1299C179.066 34.978 179.458 34.9002 179.855 34.901H179.861C180.34 34.901 181.256 35.019 182.039 35.802L190.997 44.759C191.948 45.7091 193.19 46.3123 194.524 46.4719C195.859 46.6315 197.208 46.3381 198.356 45.639C207.387 40.1225 217.223 36.0485 227.51 33.564C228.818 33.2485 229.982 32.5021 230.814 31.4451C231.647 30.388 232.1 29.0816 232.1 27.736V15.037C232.1 13.357 233.48 11.99 235.176 11.99H268.822C270.518 11.99 271.898 13.357 271.898 15.037V27.708C271.898 29.0505 272.349 30.3541 273.178 31.41C274.007 32.466 275.166 33.2132 276.47 33.532C286.75 36.0437 296.58 40.1275 305.614 45.639C306.761 46.3373 308.108 46.6309 309.441 46.4726C310.774 46.3143 312.016 45.7134 312.967 44.766L321.977 35.786C322.256 35.5049 322.589 35.2819 322.955 35.13C323.321 34.9781 323.714 34.9003 324.11 34.901H324.116C324.596 34.901 325.512 35.019 326.295 35.802L350.076 59.583C350.863 60.37 350.979 61.29 350.978 61.769C350.978 62.1709 350.897 62.5686 350.741 62.939C350.586 63.3094 350.357 63.645 350.07 63.926L341.113 72.911C340.165 73.8619 339.564 75.1034 339.406 76.4366C339.247 77.7698 339.541 79.1176 340.24 80.264C345.753 89.2882 349.827 99.1155 352.316 109.393C352.632 110.7 353.378 111.864 354.435 112.696C355.492 113.528 356.798 113.98 358.143 113.98H370.814C371.629 113.981 372.411 114.306 372.987 114.882C373.564 115.459 373.888 116.241 373.889 117.056V150.703C373.889 152.37 372.481 153.778 370.814 153.778H358.143C356.797 153.778 355.491 154.23 354.433 155.063C353.376 155.895 352.63 157.06 352.315 158.368C349.83 168.655 345.756 178.491 340.24 187.522C339.54 188.67 339.247 190.019 339.407 191.354C339.566 192.688 340.17 193.931 341.12 194.881L350.077 203.839C350.863 204.625 350.979 205.545 350.978 206.023C350.978 206.494 350.861 207.395 350.074 208.176L326.311 231.967C325.104 233.165 323.153 233.176 321.954 231.977L312.968 223.02C312.017 222.072 310.776 221.471 309.442 221.313C308.109 221.155 306.761 221.448 305.615 222.147C296.58 227.65 286.75 231.724 276.471 234.226C275.167 234.545 274.008 235.292 273.179 236.348C272.35 237.404 271.899 238.708 271.899 240.05V252.721C271.899 254.388 270.49 255.796 268.823 255.796H235.177C234.362 255.795 233.58 255.471 233.003 254.894C232.427 254.318 232.102 253.536 232.101 252.721V240.05C232.101 238.707 231.65 237.402 230.82 236.346C229.991 235.29 228.83 234.543 227.525 234.225C217.236 231.718 207.397 227.634 198.357 222.119C197.208 221.418 195.857 221.124 194.52 221.285C193.184 221.445 191.94 222.052 190.991 223.006L182.056 231.968C180.847 233.166 178.895 233.174 177.705 231.985L153.878 208.158C153.597 207.878 153.374 207.546 153.222 207.18C153.07 206.813 152.992 206.421 152.993 206.024C152.993 205.546 153.108 204.627 153.894 203.84L162.851 194.882C163.801 193.932 164.405 192.689 164.564 191.355C164.724 190.02 164.43 188.671 163.731 187.523C158.215 178.492 154.141 168.656 151.656 158.369C151.341 157.061 150.594 155.897 149.537 155.064C148.48 154.232 147.174 153.779 145.828 153.779H133.157C131.49 153.779 130.082 152.371 130.082 150.704V117.057C130.082 115.39 131.49 113.981 133.157 113.981H145.828C147.173 113.981 148.479 113.529 149.536 112.697C150.593 111.865 151.339 110.701 151.655 109.394C154.145 99.1166 158.219 89.2894 163.731 80.265C164.43 79.1185 164.723 77.7708 164.565 76.4377C164.407 75.1045 163.806 73.863 162.858 72.912L153.878 63.903C153.597 63.6234 153.374 63.2909 153.222 62.9246C153.07 62.5583 152.992 62.1655 152.993 61.769C152.993 61.29 153.108 60.372 153.891 59.588ZM133.157 165.77H141.209C143.589 174.087 146.911 182.105 151.11 189.668L145.416 195.362C144.009 196.762 142.894 198.427 142.136 200.262C141.378 202.097 140.993 204.064 141.003 206.049C141.011 210.072 142.584 213.845 145.416 216.653L153.082 224.319L117.466 259.935C116.342 261.059 115.71 262.584 115.71 264.174V302.841C106.115 305.477 99.043 314.272 99.043 324.693C99.043 337.173 109.209 347.328 121.705 347.328C134.201 347.328 144.368 337.174 144.368 324.693C144.368 314.272 137.295 305.477 127.7 302.841V266.657L161.56 232.797L169.226 240.463C175.073 246.31 184.617 246.318 190.524 240.456L196.218 234.744C203.782 238.941 211.797 242.267 220.11 244.66V252.722C220.11 261.03 226.869 267.787 235.176 267.787H245.989V302.841C236.394 305.477 229.322 314.272 229.322 324.693C229.322 337.173 239.488 347.328 251.984 347.328C264.48 347.328 274.647 337.174 274.647 324.693C274.647 314.272 267.574 305.477 257.979 302.841V267.787H268.822C277.13 267.787 283.888 261.029 283.888 252.722V244.66C292.194 242.272 300.204 238.953 307.764 234.765L313.48 240.462C319.326 246.31 328.869 246.317 334.775 240.46L342.434 232.792L376.299 266.657V302.841C366.704 305.477 359.631 314.272 359.631 324.693C359.631 337.173 369.798 347.328 382.294 347.328C394.79 347.328 404.956 337.174 404.956 324.693C404.956 314.272 397.884 305.477 388.289 302.841V264.174C388.289 262.584 387.657 261.059 386.533 259.935L350.907 224.309L358.538 216.669C359.944 215.281 361.06 213.627 361.82 211.804C362.581 209.98 362.971 208.024 362.968 206.048C362.978 204.063 362.593 202.096 361.835 200.261C361.077 198.427 359.962 196.761 358.555 195.361L352.861 189.667C357.06 182.104 360.382 174.086 362.762 165.769H370.814C379.122 165.769 385.879 159.011 385.879 150.704V117.057C385.879 116.003 385.768 114.974 385.561 113.981H464.853V361.531H39.118V113.98H118.41C118.199 114.992 118.092 116.022 118.092 117.056V150.703C118.092 159.011 124.85 165.768 133.157 165.768V165.77ZM121.705 314.022C127.59 314.022 132.378 318.81 132.378 324.695C132.378 330.58 127.59 335.34 121.705 335.34C115.82 335.34 111.033 330.565 111.033 324.695C111.033 318.825 115.82 314.022 121.705 314.022ZM251.985 314.022C257.87 314.022 262.658 318.81 262.658 324.695C262.658 330.58 257.87 335.34 251.985 335.34C246.1 335.34 241.313 330.565 241.313 324.695C241.313 318.825 246.1 314.022 251.985 314.022ZM382.295 314.022C388.18 314.022 392.967 318.81 392.967 324.695C392.967 330.58 388.18 335.34 382.295 335.34C376.41 335.34 371.622 330.565 371.622 324.695C371.622 318.825 376.41 314.022 382.295 314.022ZM370.999 470.736V481.494H132.973V470.736C132.973 464.82 137.799 460.007 143.731 460.007H360.27C366.186 460.007 370.999 464.82 370.999 470.736ZM308.637 448.016H195.364V400.649H215.265C223.927 416.804 237.44 426.331 251.986 426.331C266.532 426.331 280.043 416.805 288.731 400.649H308.637V448.016ZM229.36 400.649H274.625C268.376 409.348 260.318 414.34 251.986 414.34C243.654 414.34 235.592 409.347 229.36 400.649ZM492.01 374.471C492.01 382.294 485.646 388.659 477.822 388.659H26.178C18.355 388.659 11.99 382.295 11.99 374.471V101.04C11.99 93.217 18.354 86.852 26.178 86.852H146.741C144.541 91.76 142.693 96.8185 141.212 101.989H33.123C32.3357 101.989 31.5561 102.144 30.8287 102.445C30.1013 102.746 29.4403 103.188 28.8836 103.745C28.3269 104.301 27.8853 104.962 27.5841 105.69C27.2828 106.417 27.1279 107.197 27.128 107.984V367.524C27.1279 368.311 27.2828 369.091 27.5841 369.818C27.8853 370.546 28.3269 371.207 28.8836 371.763C29.4403 372.32 30.1013 372.762 30.8287 373.063C31.5561 373.364 32.3357 373.519 33.123 373.519H470.849C471.636 373.519 472.416 373.364 473.143 373.063C473.871 372.762 474.532 372.32 475.088 371.763C475.645 371.207 476.087 370.546 476.388 369.818C476.689 369.091 476.844 368.311 476.844 367.524V107.985C476.844 107.198 476.689 106.418 476.388 105.691C476.087 104.963 475.645 104.302 475.088 103.746C474.532 103.189 473.871 102.747 473.143 102.446C472.416 102.145 471.636 101.99 470.849 101.99H362.76C361.279 96.8195 359.431 91.761 357.231 86.853H477.823C485.646 86.853 492.011 93.217 492.011 101.041L492.01 374.471ZM251.986 215.518C296.994 215.518 333.61 178.902 333.61 133.895C333.61 88.888 296.994 52.271 251.986 52.271C206.978 52.271 170.363 88.887 170.363 133.895C170.363 178.903 206.979 215.518 251.986 215.518ZM251.986 64.261C290.382 64.261 321.62 95.498 321.62 133.895C321.62 172.292 290.383 203.528 251.986 203.528C213.589 203.528 182.353 172.291 182.353 133.895C182.353 95.499 213.59 64.261 251.986 64.261ZM219.978 183.422C220.101 183.633 220.238 183.837 220.386 184.032L220.416 184.068C220.705 184.435 221.035 184.767 221.4 185.058C221.45 185.098 221.499 185.14 221.55 185.178C221.95 185.479 222.387 185.728 222.849 185.921C223.032 185.997 223.217 186.054 223.403 186.11C223.464 186.129 223.522 186.154 223.583 186.171C223.834 186.239 224.089 186.29 224.347 186.324C224.609 186.359 224.872 186.378 225.135 186.378H278.829C279.881 186.378 280.915 186.101 281.826 185.575C282.737 185.049 283.494 184.292 284.02 183.381L310.864 136.893C310.872 136.879 310.877 136.864 310.885 136.851C311.007 136.636 311.118 136.414 311.214 136.184L311.222 136.161C311.308 135.949 311.381 135.73 311.443 135.507C311.459 135.452 311.472 135.396 311.486 135.34C311.531 135.157 311.567 134.972 311.595 134.786C311.604 134.728 311.615 134.671 311.621 134.612C311.649 134.377 311.668 134.139 311.668 133.896C311.668 133.653 311.649 133.415 311.621 133.18C311.614 133.122 311.603 133.064 311.595 133.006C311.567 132.82 311.531 132.635 311.486 132.452C311.472 132.396 311.459 132.341 311.443 132.285C311.382 132.063 311.309 131.845 311.223 131.632L311.214 131.608C311.119 131.379 311.009 131.156 310.886 130.941C310.878 130.927 310.873 130.912 310.865 130.899L284.021 84.411C283.495 83.4999 282.738 82.7432 281.827 82.2172C280.916 81.6911 279.882 81.4141 278.83 81.414H225.142C225.126 81.414 225.111 81.417 225.095 81.417C224.847 81.4179 224.599 81.4342 224.353 81.466L224.325 81.471C224.099 81.502 223.875 81.549 223.652 81.606C223.596 81.62 223.54 81.637 223.485 81.653C223.306 81.7052 223.13 81.7653 222.957 81.833C222.9 81.855 222.842 81.876 222.785 81.9C222.57 81.991 222.361 82.0945 222.158 82.21L222.127 82.228C221.928 82.3449 221.736 82.4731 221.551 82.612C221.5 82.651 221.451 82.692 221.401 82.732C221.21 82.8839 221.028 83.0475 220.857 83.222C220.701 83.382 220.553 83.548 220.417 83.722C220.407 83.734 220.396 83.745 220.387 83.758C220.237 83.953 220.102 84.158 219.979 84.368C219.97 84.383 219.958 84.397 219.95 84.412L193.135 130.9C192.61 131.811 192.333 132.844 192.333 133.895C192.333 134.946 192.61 135.979 193.135 136.89L219.95 183.378C219.959 183.393 219.971 183.407 219.979 183.422H219.978ZM275.37 174.388H235.527L255.447 139.89H295.29L275.37 174.388ZM295.29 127.9H255.447L235.527 93.402H275.37L295.29 127.9ZM225.145 99.4L245.063 133.895L225.145 168.39L205.248 133.895L225.145 99.4Z" fill="url(#paint0_linear_822_16)"/>
<defs>
<linearGradient id="paint0_linear_822_16" x1="251.999" y1="0" x2="251.999" y2="493.485" gradientUnits="userSpaceOnUse">
<stop stop-color="#1BA2D7"/>
<stop offset="1" stop-color="#8D3DFA"/>
</linearGradient>
</defs>
</svg>
