<svg width="412" height="496" viewBox="0 0 412 496" fill="none" xmlns="http://www.w3.org/2000/svg">
<path d="M0 82.2V8C0 5.87827 0.842852 3.84344 2.34314 2.34315C3.84343 0.842854 5.87827 0 8 0H82.2C84.3217 0 86.3566 0.842854 87.8569 2.34315C89.3571 3.84344 90.2 5.87827 90.2 8C90.2 10.1217 89.3571 12.1566 87.8569 13.6569C86.3566 15.1571 84.3217 16 82.2 16H16V82.2C16 84.3217 15.1571 86.3566 13.6569 87.8569C12.1566 89.3571 10.1217 90.2 8 90.2C5.87827 90.2 3.84343 89.3571 2.34314 87.8569C0.842852 86.3566 0 84.3217 0 82.2ZM82.2 480H16V413.8C16 411.678 15.1571 409.643 13.6569 408.143C12.1566 406.643 10.1217 405.8 8 405.8C5.87827 405.8 3.84343 406.643 2.34314 408.143C0.842852 409.643 0 411.678 0 413.8V488C0 490.122 0.842852 492.157 2.34314 493.657C3.84343 495.157 5.87827 496 8 496H82.2C84.3217 496 86.3566 495.157 87.8569 493.657C89.3571 492.157 90.2 490.122 90.2 488C90.2 485.878 89.3571 483.843 87.8569 482.343C86.3566 480.843 84.3217 480 82.2 480ZM403.09 405.8C400.968 405.8 398.933 406.643 397.433 408.143C395.933 409.643 395.09 411.678 395.09 413.8V480H328.89C326.768 480 324.733 480.843 323.233 482.343C321.733 483.843 320.89 485.878 320.89 488C320.89 490.122 321.733 492.157 323.233 493.657C324.733 495.157 326.768 496 328.89 496H403.09C405.212 496 407.247 495.157 408.747 493.657C410.247 492.157 411.09 490.122 411.09 488V413.8C411.09 411.678 410.247 409.643 408.747 408.143C407.247 406.643 405.212 405.8 403.09 405.8ZM403.09 0H328.89C326.768 0 324.733 0.842854 323.233 2.34315C321.733 3.84344 320.89 5.87827 320.89 8C320.89 10.1217 321.733 12.1566 323.233 13.6569C324.733 15.1571 326.768 16 328.89 16H395.09V82.2C395.09 84.3217 395.933 86.3566 397.433 87.8569C398.933 89.3571 400.968 90.2 403.09 90.2C405.212 90.2 407.247 89.3571 408.747 87.8569C410.247 86.3566 411.09 84.3217 411.09 82.2V8C411.09 5.87827 410.247 3.84344 408.747 2.34315C407.247 0.842854 405.212 0 403.09 0ZM246.763 317.844L246.554 436.773C256.98 440.17 264.537 449.978 264.537 461.522C264.537 475.873 252.861 487.548 238.51 487.548C226.95 487.548 217.131 479.969 213.747 469.522L137.167 469.521C135.045 469.521 133.01 468.678 131.51 467.178C130.01 465.678 129.167 463.643 129.167 461.521V412.4C118.719 409.016 111.141 399.197 111.141 387.637C111.141 376.077 118.719 366.258 129.167 362.874V342.779C111.277 340.314 96.379 327.821 91.417 311.14C80.066 308.339 71.623 298.076 71.623 285.873C71.623 274.242 79.293 264.371 89.84 261.045L90.11 207.199C90.202 188.817 99.546 175.419 117.883 167.376C130.016 162.054 144.548 159.821 156.699 158.412V148.889C144.238 138.248 135.551 121.02 133.772 100.799L125.493 67.121C123.041 57.149 124.82 47.666 130.5 40.42C135.929 33.494 144.533 29.207 154.472 28.369C156.93 21.348 162.824 17.006 170.641 17.006H210.107C213.161 17.006 217.392 15.794 219.567 13.478C220.386 12.606 221.303 11.253 221.13 8.503C221.035 6.99482 221.37 5.49067 222.094 4.16463C222.819 2.83859 223.905 1.74486 225.225 1.01C226.546 0.27614 228.047 -0.0689754 229.556 0.0145493C231.064 0.0980739 232.518 0.606828 233.75 1.482C242.031 7.37 247.954 26.149 250.149 42.148C252.119 56.499 253.159 82.994 238.867 102.488C236.763 121.978 228.217 138.546 216.105 148.89V155.082C220.853 148.702 228.449 144.56 236.995 144.56C247.05 144.56 255.786 150.296 260.118 158.664C278.256 151.097 293.56 134.542 307.246 119.728C311.211 115.436 314.956 111.382 318.74 107.549C327.593 98.582 338.988 97.441 350.83 104.338C356.241 107.491 359.638 112.29 360.657 118.219C362.407 128.403 356.882 141.676 344.277 157.709C346.555 161.649 347.753 166.12 347.749 170.671C347.749 185.023 336.074 196.698 321.723 196.698C316.734 196.702 311.851 195.263 307.661 192.555C289.502 205.811 266.179 218.835 246.932 221.883L246.85 268.306C257.284 271.698 264.849 281.51 264.849 293.061C264.849 304.643 257.242 314.478 246.763 317.844ZM248.849 293.061C248.849 287.532 244.351 283.034 238.822 283.034C233.293 283.034 228.796 287.532 228.796 293.061C228.796 298.589 233.294 303.087 238.822 303.087C244.35 303.087 248.849 298.589 248.849 293.061ZM331.749 170.671C331.749 165.143 327.251 160.645 321.723 160.645C316.194 160.645 311.696 165.143 311.696 170.671C311.696 176.2 316.194 180.698 321.723 180.698C327.251 180.698 331.749 176.2 331.749 170.671ZM262.669 174.831C260.636 187.169 249.899 196.612 236.994 196.612C226.926 196.612 218.181 190.862 213.854 182.477C208.003 187.14 201.379 190.276 194.4 191.638V285.061H214.058C215.335 281.139 217.522 277.574 220.44 274.659C223.358 271.744 226.925 269.561 230.849 268.288L230.943 214.537C230.945 213.486 231.154 212.446 231.558 211.475C231.962 210.505 232.553 209.624 233.298 208.882C234.043 208.141 234.926 207.553 235.898 207.153C236.87 206.753 237.911 206.548 238.962 206.551C252.554 206.551 275.503 196.114 297.495 180.166C296.304 177.142 295.693 173.922 295.694 170.672C295.694 156.321 307.37 144.646 321.721 144.646C325.522 144.646 329.132 145.472 332.39 146.943C342.523 133.831 345.587 125.012 344.886 120.929C344.71 119.906 344.284 119.044 342.774 118.164C335.721 114.056 332.765 116.116 330.125 118.791C326.527 122.435 322.869 126.395 318.997 130.586C303.316 147.559 285.692 166.62 262.669 174.831ZM226.967 170.586C226.967 176.114 231.465 180.612 236.994 180.612C242.523 180.612 247.02 176.114 247.02 170.586C247.02 165.057 242.522 160.559 236.994 160.559C231.466 160.559 226.967 165.057 226.967 170.586ZM141.029 63.3L143.452 73.158L147.302 63.418C147.711 62.3848 148.33 61.4481 149.121 60.6675C149.911 59.8868 150.856 59.2794 151.894 58.8838C152.932 58.4882 154.042 58.3132 155.151 58.3699C156.261 58.4266 157.346 58.7137 158.339 59.213C165.057 62.595 173.985 65.139 183.478 66.377C196.655 68.095 209.515 67.065 217.038 63.69C218.032 63.2435 219.107 63.0049 220.197 62.989C221.287 62.973 222.368 63.18 223.375 63.5972C224.382 64.0144 225.293 64.633 226.052 65.4151C226.811 66.1972 227.402 67.1262 227.789 68.145L232.324 80.066C235.993 68.257 235.545 55.431 234.678 47.417C233.727 38.631 231.877 31.239 229.962 25.68C224.082 31.052 215.989 33.005 210.106 33.005H170.64C170.189 33.005 169.944 33.059 169.842 33.088C169.602 33.43 169.214 34.589 169.214 36.217C169.214 38.3387 168.371 40.3736 166.871 41.8739C165.371 43.3741 163.336 44.217 161.214 44.217H158.095C151.586 44.217 146.117 46.431 143.091 50.29C140.471 53.632 139.758 58.131 141.029 63.3ZM186.401 144.333C204.561 144.333 220.384 125.225 222.986 100.522L215.566 81.014C205.986 83.419 194.008 83.883 181.408 82.242C173.402 81.198 165.854 79.395 159.158 76.949L149.821 100.575C152.44 125.253 168.253 144.333 186.401 144.333ZM172.698 158.071V165.582C172.698 167.644 171.899 169.625 170.47 171.111C175.342 174.544 180.815 176.415 186.401 176.415C191.968 176.415 197.424 174.555 202.285 171.144C200.885 169.663 200.104 167.702 200.104 165.664V158.072C195.728 159.539 191.137 160.334 186.401 160.334C181.665 160.333 177.075 159.538 172.698 158.071ZM87.623 285.873C87.623 291.401 92.121 295.899 97.65 295.899C103.179 295.899 107.677 291.401 107.677 285.873C107.677 280.345 103.179 275.847 97.65 275.847C92.121 275.847 87.623 280.345 87.623 285.873ZM129.167 326.552V245.599C120.064 241.541 113.7 232.412 113.7 221.819C113.7 207.468 125.376 195.793 139.727 195.793C154.078 195.793 165.753 207.469 165.753 221.819C165.753 234.305 156.914 244.761 145.167 247.27V285.061H178.401V191.638C168.274 189.661 158.901 183.95 151.553 175.248C126.385 178.883 106.217 185.806 106.11 207.28L105.84 261.175C116.19 264.616 123.677 274.384 123.677 285.874C123.677 296.573 117.186 305.781 107.936 309.777C111.664 318.226 119.615 324.551 129.167 326.552ZM139.727 231.846C145.256 231.846 149.753 227.348 149.753 221.819C149.753 216.291 145.255 211.793 139.727 211.793C134.199 211.793 129.7 216.291 129.7 221.819C129.7 227.348 134.198 231.846 139.727 231.846ZM127.141 387.637C127.141 393.165 131.639 397.663 137.167 397.663C142.695 397.663 147.194 393.165 147.194 387.637C147.194 382.109 142.696 377.611 137.167 377.611C131.638 377.611 127.141 382.108 127.141 387.637ZM145.167 453.521H178.401V346.993C178.401 344.871 179.244 342.836 180.744 341.336C182.244 339.836 184.279 338.993 186.401 338.993C188.523 338.993 190.558 339.836 192.058 341.336C193.558 342.836 194.401 344.871 194.401 346.993V453.522H213.747C215.025 449.597 217.214 446.03 220.135 443.114C223.056 440.197 226.627 438.014 230.554 436.743L230.763 317.803C226.859 316.522 223.311 314.338 220.409 311.429C217.507 308.52 215.331 304.967 214.059 301.06H145.167V362.873C155.615 366.257 163.194 376.076 163.194 387.636C163.194 399.196 155.615 409.015 145.167 412.399V453.521ZM248.537 461.522C248.537 455.993 244.039 451.495 238.51 451.495C232.981 451.495 228.484 455.993 228.484 461.522C228.484 467.05 232.982 471.548 238.51 471.548C244.038 471.548 248.537 467.051 248.537 461.522Z" fill="url(#paint0_linear_822_3)"/>
<defs>
<linearGradient id="paint0_linear_822_3" x1="205.545" y1="0" x2="205.545" y2="496" gradientUnits="userSpaceOnUse">
<stop stop-color="#1BA2D7"/>
<stop offset="1" stop-color="#8D3DFA"/>
</linearGradient>
</defs>
</svg>
