<svg width="512" height="512" viewBox="0 0 512 512" fill="none" xmlns="http://www.w3.org/2000/svg">
<g clip-path="url(#clip0_1378_17)">
<path d="M477.867 231.253V221.867C477.867 163.024 454.492 106.591 412.883 64.9832C371.275 23.3752 314.843 0 256 0C197.157 0 140.725 23.3752 99.1166 64.9832C57.5085 106.591 34.1333 163.024 34.1333 221.867V231.253C24.5027 233.234 15.8494 238.474 9.63173 246.091C3.4141 253.707 0.0124119 263.235 0 273.067L0 341.333C0.0135497 352.645 4.51313 363.49 12.5117 371.488C20.5104 379.487 31.3549 383.986 42.6667 384H76.8C82.7741 383.99 88.5567 381.891 93.1463 378.067C97.7359 374.243 100.843 368.934 101.931 363.059C112.672 385.646 128.234 405.603 147.521 421.526C166.808 437.449 189.352 448.95 213.564 455.219C209.141 460.106 206.234 466.174 205.199 472.684C204.164 479.194 205.044 485.864 207.733 491.882C210.422 497.9 214.803 503.006 220.343 506.578C225.883 510.151 232.342 512.034 238.933 512H281.6C285.18 511.989 288.717 511.223 291.982 509.753C295.246 508.282 298.163 506.14 300.544 503.467H349.867C382.453 503.413 413.794 490.938 437.503 468.583C461.212 446.227 475.507 415.674 477.474 383.147C487.179 381.25 495.926 376.046 502.222 368.421C508.518 360.795 511.974 351.222 512 341.333V273.067C511.988 263.235 508.586 253.707 502.368 246.091C496.151 238.474 487.497 233.234 477.867 231.253ZM256 17.0667C310.297 17.1299 362.352 38.7273 400.746 77.121C439.139 115.515 460.737 167.57 460.8 221.867V230.4H443.733V221.867C443.733 172.077 423.954 124.326 388.748 89.1192C353.541 53.9123 305.79 34.1333 256 34.1333C206.21 34.1333 158.459 53.9123 123.252 89.1192C88.0457 124.326 68.2667 172.077 68.2667 221.867V230.4H51.2V221.867C51.2632 167.57 72.8606 115.515 111.254 77.121C149.648 38.7273 201.703 17.1299 256 17.0667ZM426.317 382.293C424.599 401.391 415.804 419.157 401.659 432.104C387.515 445.05 369.042 452.242 349.867 452.267H309.009C331.011 445.004 351.311 433.353 368.682 418.02C386.052 402.687 400.132 383.99 410.069 363.059C410.891 367.393 412.818 371.442 415.665 374.812C418.512 378.182 422.181 380.759 426.317 382.293ZM256 119.467C220.038 119.516 185.007 130.91 155.897 152.026C126.786 173.142 105.08 202.903 93.8667 237.073C91.3855 234.823 88.486 233.084 85.3333 231.953V221.867C85.3333 176.603 103.314 133.193 135.32 101.187C167.327 69.1809 210.736 51.2 256 51.2C301.264 51.2 344.673 69.1809 376.68 101.187C408.686 133.193 426.667 176.603 426.667 221.867V231.97C423.514 233.101 420.615 234.84 418.133 237.09C406.923 202.917 385.218 173.152 356.107 152.033C326.996 130.914 291.965 119.518 256 119.467ZM85.3333 358.4C85.3333 360.663 84.4343 362.834 82.834 364.434C81.2337 366.034 79.0632 366.933 76.8 366.933H42.6667C35.8771 366.933 29.3657 364.236 24.5647 359.435C19.7638 354.634 17.0667 348.123 17.0667 341.333V273.067C17.0667 266.277 19.7638 259.766 24.5647 254.965C29.3657 250.164 35.8771 247.467 42.6667 247.467H76.8C79.0632 247.467 81.2337 248.366 82.834 249.966C84.4343 251.566 85.3333 253.737 85.3333 256V358.4ZM102.4 290.133C102.4 259.754 111.408 230.057 128.286 204.798C145.164 179.538 169.153 159.851 197.22 148.225C225.287 136.6 256.17 133.558 285.966 139.485C315.761 145.411 343.13 160.04 364.612 181.522C386.093 203.003 400.722 230.372 406.649 260.167C412.575 289.963 409.534 320.847 397.908 348.914C386.282 376.98 366.595 400.969 341.336 417.847C316.076 434.725 286.379 443.733 256 443.733C215.277 443.686 176.236 427.488 147.441 398.693C118.645 369.897 102.447 330.856 102.4 290.133ZM290.133 486.4C290.133 488.663 289.234 490.834 287.634 492.434C286.034 494.034 283.863 494.933 281.6 494.933H238.933C234.407 494.933 230.066 493.135 226.865 489.935C223.665 486.734 221.867 482.393 221.867 477.867C221.867 473.34 223.665 468.999 226.865 465.799C230.066 462.598 234.407 460.8 238.933 460.8H281.6C283.863 460.8 286.034 461.699 287.634 463.299C289.234 464.9 290.133 467.07 290.133 469.333V486.4ZM349.867 486.4H307.2V469.333H349.867C373.271 469.302 395.821 460.537 413.102 444.754C430.383 428.971 441.151 407.305 443.298 384H460.365C458.199 411.837 445.624 437.835 425.145 456.813C404.666 475.791 377.787 486.355 349.867 486.4ZM494.933 341.333C494.933 348.123 492.236 354.634 487.435 359.435C482.634 364.236 476.123 366.933 469.333 366.933H435.2C432.937 366.933 430.766 366.034 429.166 364.434C427.566 362.834 426.667 360.663 426.667 358.4V256C426.667 253.737 427.566 251.566 429.166 249.966C430.766 248.366 432.937 247.467 435.2 247.467H469.333C476.123 247.467 482.634 250.164 487.435 254.965C492.236 259.766 494.933 266.277 494.933 273.067V341.333Z" fill="#13C4A1"/>
<path d="M158.618 306.349C167.791 299.676 179.2 291.382 179.2 274.622C179.389 267.631 176.801 260.851 172.004 255.762C167.207 250.674 160.59 247.692 153.6 247.469C148.262 247.797 143.119 249.594 138.738 252.662C134.358 255.729 130.91 259.948 128.777 264.852C127.852 266.9 127.772 269.231 128.556 271.338C129.339 273.444 130.922 275.157 132.961 276.103C135 277.049 137.33 277.153 139.445 276.392C141.559 275.63 143.288 274.065 144.256 272.037C144.256 271.96 148.019 264.536 153.6 264.536C156.065 264.753 158.344 265.935 159.942 267.823C161.54 269.712 162.327 272.156 162.133 274.622C162.133 282.302 157.235 286.245 148.582 292.542C139.409 299.207 128 307.51 128 324.269C128 326.532 128.899 328.703 130.499 330.303C132.1 331.903 134.27 332.802 136.533 332.802H170.667C172.93 332.802 175.1 331.903 176.701 330.303C178.301 328.703 179.2 326.532 179.2 324.269C179.2 322.006 178.301 319.835 176.701 318.235C175.1 316.635 172.93 315.736 170.667 315.736H147.84C150.965 312.108 154.595 308.946 158.618 306.349ZM247.467 298.669H238.933V290.136C238.933 287.873 238.034 285.702 236.434 284.102C234.834 282.501 232.663 281.602 230.4 281.602C228.137 281.602 225.966 282.501 224.366 284.102C222.766 285.702 221.867 287.873 221.867 290.136V298.669H213.333V256.002C213.333 253.739 212.434 251.569 210.834 249.968C209.234 248.368 207.063 247.469 204.8 247.469C202.537 247.469 200.366 248.368 198.766 249.968C197.166 251.569 196.267 253.739 196.267 256.002V307.202C196.267 309.466 197.166 311.636 198.766 313.236C200.366 314.837 202.537 315.736 204.8 315.736H221.867V324.269C221.867 326.532 222.766 328.703 224.366 330.303C225.966 331.903 228.137 332.802 230.4 332.802C232.663 332.802 234.834 331.903 236.434 330.303C238.034 328.703 238.933 326.532 238.933 324.269V315.736H247.467C249.73 315.736 251.9 314.837 253.501 313.236C255.101 311.636 256 309.466 256 307.202C256 304.939 255.101 302.769 253.501 301.168C251.9 299.568 249.73 298.669 247.467 298.669ZM271.36 341.165C271.921 341.282 272.493 341.34 273.067 341.336C275.032 341.334 276.937 340.654 278.459 339.41C279.982 338.166 281.028 336.435 281.421 334.509L298.487 249.176C298.846 246.993 298.344 244.756 297.085 242.936C295.826 241.117 293.91 239.857 291.741 239.424C289.571 238.99 287.318 239.415 285.457 240.611C283.595 241.806 282.27 243.678 281.762 245.831L264.695 331.164C264.263 333.373 264.72 335.664 265.968 337.537C267.217 339.41 269.155 340.714 271.36 341.165ZM324.267 264.536H351.573L317.073 319.746C315.874 321.67 315.487 323.992 316 326.2C316.512 328.408 317.88 330.323 319.804 331.522C321.727 332.722 324.049 333.108 326.257 332.596C328.466 332.084 330.38 330.715 331.58 328.792L374.246 260.525C375.057 259.228 375.504 257.737 375.541 256.207C375.578 254.678 375.203 253.167 374.455 251.832C373.708 250.497 372.615 249.388 371.292 248.621C369.968 247.853 368.463 247.455 366.933 247.469H324.267C322.003 247.469 319.833 248.368 318.233 249.968C316.632 251.569 315.733 253.739 315.733 256.002C315.733 258.266 316.632 260.436 318.233 262.036C319.833 263.637 322.003 264.536 324.267 264.536Z" fill="#13C4A1"/>
</g>
<defs>
<clipPath id="clip0_1378_17">
<rect width="512" height="512" fill="white"/>
</clipPath>
</defs>
</svg>
