<svg width="496" height="496" viewBox="0 0 496 496" fill="none" xmlns="http://www.w3.org/2000/svg">
<path d="M496 152C496 121.128 470.88 96 440 96C409.12 96 384 121.128 384 152C384 163.176 387.544 174 393.744 183.2C392.656 185.936 392 188.88 392 192V201.376C392 207.784 394.496 213.816 399.032 218.344L407.432 226.744L394.008 307.312C383.293 287.182 367.88 269.935 349.077 257.033C330.275 244.131 308.637 235.955 286 233.2L282.96 223.856C312.464 222.296 336 197.872 336 168V142.528C339.347 141.334 342.386 139.412 344.899 136.899C347.412 134.386 349.334 131.347 350.528 128H360C373.232 128 384 117.232 384 104V72C384 58.768 373.232 48 360 48H350.528C349.334 44.6532 347.412 41.6136 344.899 39.101C342.386 36.5884 339.347 34.6657 336 33.472V24C336 10.768 325.232 0 312 0H184C170.768 0 160 10.768 160 24V33.472C156.653 34.6657 153.614 36.5884 151.101 39.101C148.588 41.6136 146.666 44.6532 145.472 48H136C122.768 48 112 58.768 112 72V104C112 117.232 122.768 128 136 128H145.472C146.666 131.347 148.588 134.386 151.101 136.899C153.614 139.412 156.653 141.334 160 142.528V168C160 197.872 183.536 222.296 213.04 223.848L210 233.192C187.363 235.947 165.725 244.123 146.923 257.025C128.12 269.927 112.707 287.174 101.992 307.304L88.568 226.736L96.968 218.336C99.2051 216.116 100.979 213.473 102.186 210.562C103.393 207.65 104.01 204.528 104 201.376V192C104 188.88 103.344 185.928 102.256 183.192C108.456 173.992 112 163.176 112 152C112 121.128 86.88 96 56 96C25.12 96 0 121.128 0 152C0.0346199 161.001 2.23307 169.863 6.40997 177.836C10.5869 185.81 16.6198 192.662 24 197.816V354.664C24 388.488 51.512 416 85.336 416C104.536 416 122.88 406.832 134.4 391.464L144 378.664V496H352V378.656L361.6 391.456C367.327 399.059 374.737 405.231 383.25 409.49C391.762 413.748 401.146 415.977 410.664 416C444.488 416 472 388.488 472 354.664V197.824C479.381 192.669 485.414 185.815 489.591 177.84C493.768 169.865 495.966 161.003 496 152ZM440 112C462.056 112 480 129.944 480 152C479.981 160.633 477.172 169.029 471.992 175.936C471.969 167.464 468.589 159.346 462.593 153.36C456.596 147.374 448.473 144.008 440 144C432.71 144.009 425.641 146.503 419.959 151.069C414.277 155.636 410.321 162.003 408.744 169.12C407.378 169.567 406.055 170.138 404.792 170.824C401.676 165.037 400.03 158.573 400 152C400 129.944 417.944 112 440 112ZM419.312 216L410.344 207.032C408.851 205.527 408.009 203.496 408 201.376V192C408 187.584 411.592 184 416 184H424V176C424 167.176 431.176 160 440 160C448.824 160 456 167.176 456 176V216H419.312ZM266.184 224L271.184 239.376L248 273.712L224.816 239.376L229.816 224H266.184ZM237.24 286.36L214.616 304.464L209.616 249.44C210.44 249.328 211.272 249.24 212.096 249.136L237.24 286.36ZM240 304.648L248 298.248L256 304.648V388.688L248 396.688L240 388.688V304.648ZM258.76 286.36L283.896 249.144C284.728 249.24 285.552 249.328 286.376 249.448L281.376 304.472L258.76 286.36ZM328 128H278.632C277.58 128.003 276.538 127.797 275.566 127.394C274.593 126.992 273.711 126.401 272.968 125.656L259.312 112H236.688L223.032 125.656C222.289 126.401 221.407 126.992 220.434 127.394C219.462 127.797 218.42 128.003 217.368 128H168C163.592 128 160 124.416 160 120V80H336V120C336 124.416 332.408 128 328 128ZM208 56C207.998 54.4155 208.467 52.8661 209.346 51.548C210.226 50.2299 211.476 49.2022 212.94 48.5951C214.403 47.988 216.014 47.8288 217.568 48.1375C219.122 48.4462 220.55 49.2091 221.671 50.3295C222.791 51.4499 223.554 52.8775 223.863 54.4317C224.171 55.9858 224.012 57.5966 223.405 59.0602C222.798 60.5238 221.77 61.7744 220.452 62.6537C219.134 63.5331 217.585 64.0016 216 64C211.592 64 208 60.416 208 56ZM328 48C332.408 48 336 51.584 336 56V64H238.528C239.424 61.488 240 58.816 240 56C240 53.184 239.424 50.512 238.528 48H328ZM368 72V104C368 108.416 364.408 112 360 112H352V64H360C364.408 64 368 67.584 368 72ZM184 16H312C316.408 16 320 19.584 320 24V32H176V24C176 19.584 179.592 16 184 16ZM168 48H193.472C192.576 50.512 192 53.184 192 56C192 58.816 192.576 61.488 193.472 64H160V56C160 51.584 163.592 48 168 48ZM128 104V72C128 67.584 131.592 64 136 64H144V112H136C131.592 112 128 108.416 128 104ZM176 168V144H217.368C223.776 144 229.808 141.496 234.344 136.968L243.312 128H252.688L261.656 136.968C266.184 141.504 272.216 144 278.632 144H320V168C320 190.056 302.056 208 280 208H216C193.944 208 176 190.056 176 168ZM76.688 216H40V176C40 167.176 47.176 160 56 160C64.824 160 72 167.176 72 176V184H80C84.408 184 88 187.584 88 192V201.376C88 203.48 87.144 205.544 85.656 207.032L76.688 216ZM16 152C16 129.944 33.944 112 56 112C78.056 112 96 129.944 96 152C96 158.608 94.28 165.056 91.208 170.816C89.945 170.13 88.6222 169.559 87.256 169.112C85.6771 161.996 81.7205 155.631 76.0386 151.066C70.3566 146.501 63.2886 144.009 56 144C47.5289 144.008 39.4062 147.373 33.4102 153.357C27.4142 159.341 24.0334 167.457 24.008 175.928C18.827 169.025 16.0179 160.631 16 152ZM410.664 400C403.628 399.982 396.693 398.335 390.4 395.189C384.107 392.042 378.628 387.482 374.392 381.864L352 352V320H336V480H160V320H144V352L121.6 381.864C117.365 387.48 111.887 392.04 105.596 395.187C99.3045 398.333 92.3702 399.981 85.336 400C73.316 399.987 61.792 395.207 53.2926 386.707C44.7932 378.208 40.0127 366.684 40 354.664V232H73.224L96.112 369.312L111.896 366.688L106.888 336.648L107.664 334.312C114.204 314.668 125.492 296.942 140.526 282.707C155.56 268.473 173.876 258.169 193.848 252.712L201.376 335.536L224 317.44V395.312L248 419.312L272 395.312V317.44L294.624 335.536L302.152 252.712C322.124 258.169 340.44 268.473 355.474 282.707C370.508 296.942 381.796 314.668 388.336 334.312L389.112 336.648L384.104 366.688L399.888 369.312L422.776 232H456V354.664C455.987 366.684 451.207 378.208 442.707 386.707C434.208 395.207 422.684 399.987 410.664 400Z" fill="url(#paint0_linear_824_34)"/>
<path d="M288 160H272C272 168.824 264.824 176 256 176H216V192H256C273.648 192 288 177.648 288 160ZM288 352H320V368H288V352Z" fill="url(#paint1_linear_824_34)"/>
<defs>
<linearGradient id="paint0_linear_824_34" x1="17.6972" y1="31.9688" x2="490.144" y2="574.176" gradientUnits="userSpaceOnUse">
<stop stop-color="#1BA2D7"/>
<stop offset="1" stop-color="#8D3DFA"/>
</linearGradient>
<linearGradient id="paint1_linear_824_34" x1="219.711" y1="173.406" x2="392.388" y2="272.494" gradientUnits="userSpaceOnUse">
<stop stop-color="#1BA2D7"/>
<stop offset="1" stop-color="#8D3DFA"/>
</linearGradient>
</defs>
</svg>
