<svg width="512" height="512" viewBox="0 0 512 512" fill="none" xmlns="http://www.w3.org/2000/svg">
<path d="M434.091 29.8622C386.333 10.6054 322.997 0 255.75 0C188.502 0 125.166 10.6054 77.4086 29.8622C27.4908 49.9908 0 77.5998 0 107.605V415.906C0 440.572 17.9475 463.608 51.9007 482.523L63.0616 488.74V360.404C92.5173 345.464 133.505 334.049 179.169 328.128L177.239 313.239C163.666 314.999 150.604 317.196 138.135 319.795V301.54C155.248 298.053 168.164 282.887 168.164 264.76V204.701C168.164 184.003 151.326 167.164 130.628 167.164C111.918 167.164 96.3661 180.924 93.5494 198.853C91.2533 198.417 88.9216 198.197 86.5846 198.195C77.6839 198.195 69.5029 201.315 63.0616 206.51V162.221L59.1668 160.083C39.0251 149.024 15.0147 130.943 15.0147 107.605C15.0147 84.4765 39.8029 61.2158 83.0231 43.7878C129.039 25.2326 190.381 15.0147 255.75 15.0147C321.119 15.0147 382.461 25.2326 428.476 43.7878C445.727 50.7436 460.03 58.6303 471.004 67.0655H383.374V177.173H350.342V315.568C344.993 314.712 339.632 313.935 334.26 313.238L332.331 328.127C377.994 334.048 418.983 345.463 448.438 360.403V488.739L459.599 482.522C493.552 463.608 511.5 440.571 511.5 415.905V107.604C511.5 77.5998 484.009 49.9908 434.091 29.8622ZM108.106 204.7C108.106 192.281 118.209 182.178 130.628 182.178C143.046 182.178 153.15 192.281 153.15 204.7V264.759C153.15 277.178 143.046 287.281 130.628 287.281C118.209 287.281 108.106 277.178 108.106 264.759V204.7ZM115.863 299.265C118.198 300.269 120.63 301.032 123.12 301.54V323.192C112.966 325.677 103.274 328.449 94.0919 331.489V312.549C102.685 310.819 110.394 306.116 115.863 299.265ZM64.0626 235.73C64.0626 223.311 74.1664 213.208 86.5846 213.208C88.8247 213.208 90.9999 213.534 93.0909 214.166V264.759C93.0909 274.788 97.0528 283.904 103.484 290.645C101.377 293.052 98.778 294.981 95.863 296.3C92.9479 297.618 89.7841 298.298 86.5846 298.291C74.1664 298.291 64.0626 288.188 64.0626 275.769V235.73ZM63.0616 304.991C67.7181 308.756 73.2105 311.349 79.0772 312.55V336.876C73.6649 338.974 68.3235 341.251 63.0616 343.702V304.991ZM48.0469 171.047V462.614C31.1354 451.336 15.0147 435.456 15.0147 415.905V144.714C22.9744 154.086 34.0372 162.929 48.0469 171.047ZM448.438 343.703C425.314 332.9 397.144 324.26 365.357 318.196V192.188H448.438V343.703ZM496.485 415.906C496.485 435.457 480.364 451.337 463.453 462.615V171.047C477.462 162.928 488.525 154.085 496.485 144.713V415.906ZM452.333 160.082L448.438 162.22V177.173H398.389V82.0802H486.541C493.058 90.4033 496.485 99.0127 496.485 107.605C496.485 130.943 472.474 149.024 452.333 160.082Z" fill="url(#paint0_linear_824_43)"/>
<path d="M350.728 389.806L294.288 377.797V349.238C311.816 337.019 323.317 316.726 323.317 293.787V251.746C323.317 214.489 293.007 184.18 255.751 184.18C218.494 184.18 188.185 214.489 188.185 251.746V293.787C188.185 316.726 199.685 337.019 217.213 349.238V377.797L160.773 389.806C138.956 394.447 123.121 414.006 123.121 436.311V512H138.136V436.311C138.136 421.049 148.97 407.668 163.897 404.492L225.51 391.382H285.991L347.604 404.492C362.531 407.668 373.365 421.05 373.365 436.311V512H388.38V436.311C388.38 414.006 372.546 394.447 350.728 389.806ZM203.199 251.746C203.199 222.769 226.774 199.195 255.751 199.195C284.727 199.195 308.302 222.769 308.302 251.746V257.752C308.302 286.729 284.727 310.303 255.751 310.303C226.774 310.303 203.199 286.729 203.199 257.752V251.746ZM279.274 376.368H232.228V357.122C239.557 359.853 247.482 361.353 255.751 361.353C264.02 361.353 271.944 359.852 279.274 357.122V376.368ZM255.751 346.338C229.138 346.338 207.096 326.448 203.676 300.755C216.078 315.747 234.817 325.318 255.751 325.318C276.684 325.318 295.423 315.747 307.825 300.755C304.405 326.448 282.364 346.338 255.751 346.338Z" fill="url(#paint1_linear_824_43)"/>
<path d="M173.17 451.941H188.185V512H173.17V451.941ZM323.317 451.941H338.331V512H323.317V451.941ZM210.206 102.6C210.206 81.902 193.368 65.0635 172.67 65.0635C162.493 65.0635 152.817 69.2166 145.805 76.3966C142.827 75.521 139.739 75.0754 136.634 75.0733C131.596 75.0639 126.626 76.2332 122.12 78.4876C117.615 76.2332 112.644 75.0639 107.606 75.0733C89.6675 75.0733 75.0742 89.6675 75.0742 107.605C75.0742 125.543 89.6675 140.137 107.606 140.137H172.67C193.368 140.137 210.206 123.298 210.206 102.6ZM172.67 125.122H107.606C97.9476 125.122 90.0889 117.263 90.0889 107.605C90.0889 97.9466 97.9476 90.0879 107.606 90.0879C111.247 90.081 114.799 91.2175 117.76 93.3371L122.12 96.4492L126.48 93.3371C129.441 91.2175 132.993 90.081 136.634 90.0879C139.453 90.0879 142.15 90.7416 144.648 92.0298L150.467 95.0328L154.232 89.6755C158.456 83.6657 165.348 80.0782 172.67 80.0782C185.088 80.0782 195.192 90.181 195.192 102.6C195.192 115.019 185.088 125.122 172.67 125.122ZM268.263 94.5923C268.263 112.53 282.856 127.124 300.795 127.124C318.733 127.124 333.326 112.53 333.326 94.5923C333.326 76.6548 318.733 62.0606 300.795 62.0606C282.856 62.0606 268.263 76.6548 268.263 94.5923ZM300.795 77.0752C310.453 77.0752 318.312 84.9339 318.312 94.5923C318.312 104.251 310.453 112.109 300.795 112.109C291.136 112.109 283.278 104.251 283.278 94.5923C283.278 84.9339 291.136 77.0752 300.795 77.0752ZM385.878 213.208H400.892V228.223H385.878V213.208ZM415.907 213.208H430.922V228.223H415.907V213.208ZM385.878 253.247H400.892V268.262H385.878V253.247ZM415.907 253.247H430.922V268.262H415.907V253.247ZM417.909 102.1H432.924V117.114H417.909V102.1ZM447.938 102.1H462.953V117.114H447.938V102.1ZM417.909 142.139H432.924V157.153H417.909V142.139ZM415.907 293.286H430.922V308.301H415.907V293.286ZM385.878 293.286H400.892V308.301H385.878V293.286ZM293.287 32.0312H308.302V47.0459H293.287V32.0312ZM293.287 142.139H308.302V157.153H293.287V142.139ZM251.223 55.6954L261.839 45.08L272.454 55.6954L261.839 66.3107L251.223 55.6954ZM329.065 133.558L339.681 122.943L350.296 133.558L339.681 144.174L329.065 133.558ZM238.234 87.085H253.248V102.1H238.234V87.085ZM348.341 87.085H363.356V102.1H348.341V87.085ZM251.206 133.528L261.822 122.913L272.437 133.528L261.822 144.144L251.206 133.528ZM329.061 55.6874L339.677 45.072L350.292 55.6874L339.677 66.3027L329.061 55.6874Z" fill="url(#paint2_linear_824_43)"/>
<defs>
<linearGradient id="paint0_linear_824_43" x1="18.2502" y1="31.5009" x2="480.423" y2="586.617" gradientUnits="userSpaceOnUse">
<stop stop-color="#1BA2D7"/>
<stop offset="1" stop-color="#8D3DFA"/>
</linearGradient>
<linearGradient id="paint1_linear_824_43" x1="132.585" y1="205.309" x2="446.943" y2="497.233" gradientUnits="userSpaceOnUse">
<stop stop-color="#1BA2D7"/>
<stop offset="1" stop-color="#8D3DFA"/>
</linearGradient>
<linearGradient id="paint2_linear_824_43" x1="88.9137" y1="62.9668" x2="549.127" y2="489.797" gradientUnits="userSpaceOnUse">
<stop stop-color="#1BA2D7"/>
<stop offset="1" stop-color="#8D3DFA"/>
</linearGradient>
</defs>
</svg>
