<svg width="509" height="508" viewBox="0 0 509 508" fill="none" xmlns="http://www.w3.org/2000/svg">
<path d="M173.312 36.544C140.536 40.352 110.256 46.6 85.744 54.616C84.5412 55.0091 83.4934 55.7725 82.7506 56.7969C82.0077 57.8214 81.6078 59.0545 81.608 60.32V106.68C81.608 110.68 85.448 113.56 89.296 112.44C114.12 105.192 142.84 99.744 174.672 96.24C176.14 96.0785 177.497 95.3811 178.483 94.2814C179.469 93.1818 180.015 91.757 180.016 90.28V42.504C180.016 41.658 179.837 40.8216 179.491 40.0497C179.145 39.2778 178.639 38.5878 178.008 38.025C177.376 37.4622 176.633 37.0392 175.826 36.784C175.02 36.5288 174.168 36.447 173.328 36.544H173.312ZM168 84.92C140.784 88.136 115.816 92.784 93.6 98.768V64.704C114.896 58.096 140.408 52.808 168 49.28V84.92ZM173.312 115.008C140.528 118.816 110.248 125.064 85.744 133.08C84.5412 133.473 83.4934 134.236 82.7506 135.261C82.0077 136.285 81.6078 137.519 81.608 138.784V185.144C81.608 189.144 85.448 192.024 89.288 190.904C114.12 183.648 142.848 178.2 174.664 174.704C176.132 174.542 177.489 173.845 178.475 172.745C179.461 171.646 180.007 170.221 180.008 168.744V120.968C180.008 120.122 179.829 119.286 179.483 118.514C179.137 117.742 178.631 117.052 178 116.489C177.368 115.926 176.625 115.503 175.818 115.248C175.012 114.993 174.16 114.911 173.32 115.008H173.312ZM168 163.384C140.784 166.592 115.824 171.24 93.592 177.232V143.168C114.888 136.56 140.4 131.272 168 127.744V163.384ZM190 472H180V462C180 460.409 179.368 458.883 178.243 457.757C177.117 456.632 175.591 456 174 456C172.409 456 170.883 456.632 169.757 457.757C168.632 458.883 168 460.409 168 462V472H158C156.409 472 154.883 472.632 153.757 473.757C152.632 474.883 152 476.409 152 478C152 479.591 152.632 481.117 153.757 482.243C154.883 483.368 156.409 484 158 484H168V494C168 495.591 168.632 497.117 169.757 498.243C170.883 499.368 172.409 500 174 500C175.591 500 177.117 499.368 178.243 498.243C179.368 497.117 180 495.591 180 494V484H190C191.591 484 193.117 483.368 194.243 482.243C195.368 481.117 196 479.591 196 478C196 476.409 195.368 474.883 194.243 473.757C193.117 472.632 191.591 472 190 472ZM478 416H468V406C468 404.409 467.368 402.883 466.243 401.757C465.117 400.632 463.591 400 462 400C460.409 400 458.883 400.632 457.757 401.757C456.632 402.883 456 404.409 456 406V416H446C444.409 416 442.883 416.632 441.757 417.757C440.632 418.883 440 420.409 440 422C440 423.591 440.632 425.117 441.757 426.243C442.883 427.368 444.409 428 446 428H456V438C456 439.591 456.632 441.117 457.757 442.243C458.883 443.368 460.409 444 462 444C463.591 444 465.117 443.368 466.243 442.243C467.368 441.117 468 439.591 468 438V428H478C479.591 428 481.117 427.368 482.243 426.243C483.368 425.117 484 423.591 484 422C484 420.409 483.368 418.883 482.243 417.757C481.117 416.632 479.591 416 478 416ZM32 398C32 399.591 32.6321 401.117 33.7574 402.243C34.8826 403.368 36.4087 404 38 404C39.5913 404 41.1174 403.368 42.2426 402.243C43.3679 401.117 44 399.591 44 398V388H54C55.5913 388 57.1174 387.368 58.2426 386.243C59.3679 385.117 60 383.591 60 382C60 380.409 59.3679 378.883 58.2426 377.757C57.1174 376.632 55.5913 376 54 376H44V366C44 364.409 43.3679 362.883 42.2426 361.757C41.1174 360.632 39.5913 360 38 360C36.4087 360 34.8826 360.632 33.7574 361.757C32.6321 362.883 32 364.409 32 366V376H22C20.4087 376 18.8826 376.632 17.7574 377.757C16.6321 378.883 16 380.409 16 382C16 383.591 16.6321 385.117 17.7574 386.243C18.8826 387.368 20.4087 388 22 388H32V398ZM122 256C112.08 256 104 264.072 104 274C104 283.928 112.08 292 122 292C131.92 292 140 283.928 140 274C140 264.072 131.92 256 122 256ZM122 280C120.409 280 118.883 279.368 117.757 278.243C116.632 277.117 116 275.591 116 274C116 272.409 116.632 270.883 117.757 269.757C118.883 268.632 120.409 268 122 268C123.591 268 125.117 268.632 126.243 269.757C127.368 270.883 128 272.409 128 274C128 275.591 127.368 277.117 126.243 278.243C125.117 279.368 123.591 280 122 280ZM50 448C40.08 448 32 456.072 32 466C32 475.928 40.08 484 50 484C59.92 484 68 475.928 68 466C68 456.072 59.92 448 50 448ZM50 472C48.4087 472 46.8826 471.368 45.7574 470.243C44.6321 469.117 44 467.591 44 466C44 464.409 44.6321 462.883 45.7574 461.757C46.8826 460.632 48.4087 460 50 460C51.5913 460 53.1174 460.632 54.2426 461.757C55.3679 462.883 56 464.409 56 466C56 467.591 55.3679 469.117 54.2426 470.243C53.1174 471.368 51.5913 472 50 472Z" fill="url(#paint0_linear_824_38)"/>
<path d="M254 0C111.568 0 0 37.776 0 86V278C0 298.056 18.408 316.56 53.232 331.512C54.1446 331.904 55.1402 332.063 56.1296 331.976C57.1189 331.888 58.0711 331.556 58.9005 331.01C59.73 330.463 60.4108 329.72 60.882 328.845C61.3531 327.971 61.5998 326.993 61.6 326V233.928C94.328 220.496 141.96 210.056 200 205.952V326.32L165.064 317.584C159.646 316.231 153.924 316.862 148.93 319.36C143.937 321.859 140.002 326.062 137.836 331.209C135.671 336.356 135.418 342.107 137.124 347.424C138.829 352.741 142.381 357.273 147.136 360.2L240.584 417.704L256.104 503.072C256.245 503.847 256.537 504.587 256.964 505.25C257.39 505.912 257.943 506.484 258.591 506.933C259.239 507.381 259.969 507.698 260.739 507.865C261.509 508.031 262.305 508.045 263.08 507.904C263.855 507.763 264.595 507.471 265.258 507.044C265.92 506.618 266.492 506.065 266.941 505.417C267.389 504.769 267.706 504.039 267.873 503.269C268.039 502.499 268.053 501.703 267.912 500.928L251.912 412.928C251.762 412.098 251.438 411.31 250.963 410.614C250.487 409.918 249.87 409.33 249.152 408.888L153.432 349.984C151.122 348.554 149.399 346.347 148.573 343.759C147.746 341.171 147.871 338.373 148.925 335.869C149.978 333.365 151.892 331.32 154.32 330.102C156.748 328.883 159.531 328.572 162.168 329.224L204.552 339.824C205.436 340.045 206.359 340.062 207.251 339.873C208.143 339.684 208.98 339.295 209.698 338.734C210.417 338.174 210.999 337.457 211.399 336.638C211.799 335.819 212.007 334.919 212.008 334.008V162.512C211.991 158.716 213.461 155.065 216.105 152.341C218.748 149.616 222.353 148.036 226.148 147.939C229.942 147.842 233.624 149.235 236.403 151.82C239.183 154.405 240.839 157.976 241.016 161.768L247.016 278.304C247.096 279.839 247.762 281.285 248.877 282.344C249.992 283.402 251.471 283.992 253.008 283.992H253.04C254.582 283.983 256.062 283.38 257.172 282.309C258.282 281.238 258.936 279.781 259 278.24L259.168 274.232C259.319 270.4 260.95 266.777 263.717 264.123C266.485 261.469 270.174 259.991 274.008 260C281.728 260 288.008 266.28 288.008 274V278C288.008 279.591 288.64 281.117 289.765 282.243C290.891 283.368 292.417 284 294.008 284C295.599 284 297.125 283.368 298.251 282.243C299.376 281.117 300.008 279.591 300.008 278V274C300.008 266.28 306.288 260 314.008 260C321.728 260 328.008 266.28 328.008 274V278C328.008 279.591 328.64 281.117 329.765 282.243C330.891 283.368 332.417 284 334.008 284C335.599 284 337.125 283.368 338.251 282.243C339.376 281.117 340.008 279.591 340.008 278C340.008 272.488 344.496 268 350.008 268C355.856 268 360.808 272.576 361.248 278.416L367.448 359.04C367.752 362.992 367.136 367.016 365.664 370.696L352.432 403.784C352.117 404.571 351.972 405.416 352.008 406.262C352.044 407.109 352.259 407.939 352.64 408.696L400.64 504.696C401.376 506.077 402.622 507.116 404.113 507.591C405.603 508.066 407.221 507.94 408.62 507.24C410.019 506.54 411.09 505.321 411.603 503.843C412.116 502.365 412.032 500.745 411.368 499.328L364.576 405.736L376.808 375.152C378.963 369.747 379.855 363.922 379.416 358.12L373.216 277.496C372.74 271.659 370.091 266.212 365.795 262.232C361.498 258.252 355.865 256.029 350.008 256C345.056 255.995 340.248 257.667 336.368 260.744C334.243 257.163 331.288 254.144 327.753 251.943C324.218 249.741 320.206 248.421 316.055 248.093C311.903 247.765 307.734 248.44 303.897 250.059C300.06 251.679 296.669 254.196 294.008 257.4C291.57 254.459 288.514 252.093 285.057 250.468C281.6 248.843 277.828 248.001 274.008 248C267.896 248 262.264 250.024 257.752 253.448L255.208 204.008C337.448 204.128 404.216 216.608 446.416 233.928V326C446.416 326.993 446.663 327.971 447.134 328.845C447.605 329.72 448.286 330.463 449.115 331.01C449.945 331.556 450.897 331.888 451.886 331.976C452.876 332.063 453.871 331.904 454.784 331.512C489.608 316.56 508.016 298.056 508.016 278V86C508 37.776 396.432 0 254 0ZM49.6 316.664C25.272 304.792 12 291.224 12 278C12 264.776 25.392 251.152 49.6 239.288V316.664ZM49.6 226.408C33.336 233.848 20.488 242.224 12 251.328V112.96C20.336 121.968 32.904 130.376 49.6 137.912V226.4V226.408ZM252.832 160.072C252.237 153.502 249.209 147.391 244.341 142.939C239.473 138.487 233.117 136.015 226.52 136.008C221.16 136.008 216.184 137.632 212.008 140.384V45.232C239.984 43.576 268.032 43.576 296.008 45.232V161.104C281.384 160.352 266.928 159.88 252.84 160.064L252.832 160.072ZM458.408 316.664V239.296C482.608 251.16 496.008 264.752 496.008 278.008C496.008 291.264 482.736 304.792 458.408 316.664ZM496.008 251.328C487.52 242.224 474.672 233.856 458.408 226.408V137.92C475.104 130.384 487.664 121.976 496.008 112.968V251.328ZM450.04 128.496C448.961 128.957 448.041 129.726 447.395 130.706C446.749 131.686 446.406 132.834 446.408 134.008V221.336C400.296 203.328 332.064 192.072 254.584 192.016L253.552 172.016H254C269.488 172.016 285.52 172.496 301.648 173.448C302.464 173.496 303.282 173.377 304.05 173.097C304.819 172.818 305.522 172.384 306.117 171.823C306.712 171.262 307.186 170.585 307.51 169.834C307.833 169.083 308 168.274 308 167.456V39.592C307.999 38.0683 307.42 36.6017 306.379 35.4893C305.337 34.3768 303.912 33.7014 302.392 33.6C270.167 31.44 237.833 31.44 205.608 33.6C204.087 33.6996 202.661 34.3743 201.619 35.4872C200.578 36.6001 199.999 38.0677 200 39.592V193.968C144.848 197.88 96.744 207.6 61.6 221.328V134C61.5998 132.827 61.2557 131.679 60.6101 130.7C59.9646 129.72 59.046 128.951 57.968 128.488C28.328 115.76 12 100.672 12 86C12 50.264 109.24 12 254 12C398.76 12 496 50.264 496 86C496 100.664 479.672 115.76 450.032 128.488L450.04 128.496Z" fill="url(#paint1_linear_824_38)"/>
<path d="M333.344 96.24C365.176 99.744 393.896 105.192 418.72 112.44C419.615 112.702 420.558 112.752 421.476 112.587C422.393 112.421 423.259 112.043 424.005 111.484C424.752 110.925 425.357 110.2 425.774 109.366C426.191 108.532 426.408 107.612 426.408 106.68V60.32C426.407 59.0548 426.006 57.8223 425.264 56.798C424.521 55.7738 423.474 55.0102 422.272 54.616C397.76 46.608 367.472 40.352 334.704 36.544C333.863 36.447 333.012 36.5288 332.206 36.784C331.399 37.0392 330.656 37.4622 330.024 38.025C329.392 38.5878 328.887 39.2778 328.541 40.0497C328.195 40.8216 328.016 41.658 328.016 42.504V90.272C328.017 91.749 328.563 93.1737 329.549 94.2734C330.535 95.3731 331.892 96.0705 333.36 96.232L333.344 96.24ZM340 49.28C367.592 52.808 393.104 58.096 414.4 64.704V98.768C392.192 92.784 367.224 88.136 340 84.92V49.28ZM422.264 133.08C397.76 125.064 367.472 118.816 334.696 115.008C333.855 114.911 333.004 114.993 332.198 115.248C331.391 115.503 330.648 115.926 330.016 116.489C329.384 117.052 328.879 117.742 328.533 118.514C328.187 119.286 328.008 120.122 328.008 120.968V168.744C328.009 170.221 328.555 171.646 329.541 172.745C330.527 173.845 331.884 174.542 333.352 174.704C365.168 178.2 393.896 183.648 418.728 190.904C419.623 191.166 420.566 191.216 421.484 191.051C422.401 190.885 423.267 190.507 424.013 189.948C424.76 189.389 425.365 188.664 425.782 187.83C426.199 186.996 426.416 186.076 426.416 185.144V138.784C426.415 137.518 426.014 136.284 425.27 135.259C424.526 134.235 423.468 133.472 422.264 133.08ZM340 163.384V127.744C367.6 131.272 393.112 136.56 414.4 143.168V177.232C392.184 171.24 367.224 166.592 340 163.384Z" fill="url(#paint2_linear_824_38)"/>
<defs>
<linearGradient id="paint0_linear_824_38" x1="32.6981" y1="66.3782" x2="473.58" y2="577.276" gradientUnits="userSpaceOnUse">
<stop stop-color="#1BA2D7"/>
<stop offset="1" stop-color="#8D3DFA"/>
</linearGradient>
<linearGradient id="paint1_linear_824_38" x1="18.1259" y1="32.7423" x2="502.001" y2="588.082" gradientUnits="userSpaceOnUse">
<stop stop-color="#1BA2D7"/>
<stop offset="1" stop-color="#8D3DFA"/>
</linearGradient>
<linearGradient id="paint2_linear_824_38" x1="331.519" y1="46.4716" x2="473.164" y2="149.918" gradientUnits="userSpaceOnUse">
<stop stop-color="#1BA2D7"/>
<stop offset="1" stop-color="#8D3DFA"/>
</linearGradient>
</defs>
</svg>
