<svg width="512" height="480" viewBox="0 0 512 480" fill="none" xmlns="http://www.w3.org/2000/svg">
<path d="M224 248H288V264H224V248Z" fill="#13C4A1"/>
<path d="M248 224H264V288H248V224ZM456 248H472V264H456V248ZM392 248H408V264H392V248ZM424 216H440V232H424V216ZM424 280H440V296H424V280ZM73.754 125L37.754 80L73.754 35L86.246 45L58.246 80L86.246 115L73.754 125ZM198.246 125L185.754 115L213.762 80L185.754 45L198.246 35L234.238 80L198.246 125ZM101.969 106.723L157.984 42.738L170.024 53.273L114.008 117.262L101.969 106.723ZM64 336H32V304H48V320H64V336Z" fill="#13C4A1"/>
<path d="M488 0H24C10.746 0 0 10.746 0 24V344C0 357.254 10.746 368 24 368H192V408C192 421.254 181.254 432 168 432H128V480H384V432H344C330.746 432 320 421.254 320 408V368H488C501.254 368 512 357.254 512 344V24C512 10.746 501.254 0 488 0ZM368 448V464H144V448H368ZM256 416.336C269.254 416.336 280 405.59 280 392.336V368H304V408C304.031 416.683 306.914 425.116 312.207 432H199.793C205.086 425.116 207.969 416.683 208 408V368H232V392.336C232 405.59 242.746 416.336 256 416.336ZM248 392.336V368H264V392.336C264 394.458 263.157 396.493 261.657 397.993C260.157 399.493 258.122 400.336 256 400.336C253.878 400.336 251.843 399.493 250.343 397.993C248.843 396.493 248 394.458 248 392.336ZM496 344C496 346.122 495.157 348.157 493.657 349.657C492.157 351.157 490.122 352 488 352H24C21.8783 352 19.8434 351.157 18.3431 349.657C16.8429 348.157 16 346.122 16 344V272H177.602C184.227 304.566 210.305 329.637 243.109 334.969C275.91 340.305 308.589 324.789 325.191 296H362.793C369.393 307.474 378.744 317.125 390.004 324.085C401.264 331.044 414.078 335.093 427.292 335.866C440.506 336.639 453.705 334.112 465.7 328.513C477.694 322.914 488.107 314.419 496 303.793V344ZM432 320C420.082 320.028 408.396 316.71 398.271 310.422C388.147 304.134 379.992 295.13 374.734 284.434L372.52 280H315.48L313.266 284.434C299.234 312.723 266.668 326.554 236.57 317.004C206.469 307.449 187.836 277.375 192.687 246.168C197.535 214.965 224.422 191.965 256 192H432C467.348 192 496 220.652 496 256C496 291.348 467.348 320 432 320ZM496 208.207C488.579 198.224 478.927 190.113 467.816 184.521C456.704 178.93 444.439 176.012 432 176H256C211.836 176.047 176.047 211.836 176 256H16V24C16 21.8783 16.8429 19.8434 18.3431 18.3431C19.8434 16.8429 21.8783 16 24 16H488C490.122 16 492.157 16.8429 493.657 18.3431C495.157 19.8434 496 21.8783 496 24V208.207Z" fill="#13C4A1"/>
<path d="M328 248H360V264H328V248ZM240 48H304V64H240V48ZM336 48H464V64H336V48ZM352 80H464V96H352V80ZM256 80H320V96H256V80ZM240 112H400V128H240V112ZM432 112H464V128H432V112ZM48 144H128V160H48V144ZM160 144H312V160H160V144ZM336 144H464V160H336V144ZM48 176H176V192H48V176ZM48 208H112V224H48V208ZM128 208H160V224H128V208Z" fill="#13C4A1"/>
</svg>
