<svg width="513" height="512" viewBox="0 0 513 512" fill="none" xmlns="http://www.w3.org/2000/svg">
<g clip-path="url(#clip0_297_112)">
<path d="M213.459 341.335H298.793C305.582 341.335 312.094 338.638 316.895 333.837C321.696 329.036 324.393 322.524 324.393 315.735V238.935C324.393 232.145 321.696 225.634 316.895 220.833C312.094 216.032 305.582 213.335 298.793 213.335V196.268C298.793 184.952 294.297 174.1 286.296 166.098C278.294 158.097 267.442 153.602 256.126 153.602C244.81 153.602 233.958 158.097 225.956 166.098C217.955 174.1 213.459 184.952 213.459 196.268V213.335C206.67 213.335 200.158 216.032 195.357 220.833C190.556 225.634 187.859 232.145 187.859 238.935V315.735C187.859 322.524 190.556 329.036 195.357 333.837C200.158 338.638 206.67 341.335 213.459 341.335ZM230.526 196.268C230.526 189.479 233.223 182.967 238.024 178.166C242.825 173.365 249.336 170.668 256.126 170.668C262.916 170.668 269.427 173.365 274.228 178.166C279.029 182.967 281.726 189.479 281.726 196.268V213.335H230.526V196.268ZM204.926 238.935C204.926 236.672 205.825 234.501 207.425 232.901C209.026 231.301 211.196 230.402 213.459 230.402H298.793C301.056 230.402 303.226 231.301 304.827 232.901C306.427 234.501 307.326 236.672 307.326 238.935V315.735C307.326 317.998 306.427 320.169 304.827 321.769C303.226 323.369 301.056 324.268 298.793 324.268H213.459C211.196 324.268 209.026 323.369 207.425 321.769C205.825 320.169 204.926 317.998 204.926 315.735V238.935Z" fill="#53A6FF"/>
<path d="M247.594 297.095V298.665C247.594 300.929 248.493 303.099 250.093 304.699C251.694 306.3 253.864 307.199 256.127 307.199C258.391 307.199 260.561 306.3 262.161 304.699C263.762 303.099 264.661 300.929 264.661 298.665V297.095C270.354 295.082 275.153 291.121 278.209 285.913C281.264 280.704 282.38 274.582 281.359 268.63C280.338 262.678 277.245 257.279 272.628 253.387C268.011 249.494 262.166 247.359 256.127 247.359C250.088 247.359 244.244 249.494 239.627 253.387C235.01 257.279 231.917 262.678 230.896 268.63C229.875 274.582 230.991 280.704 234.046 285.913C237.102 291.121 241.9 295.082 247.594 297.095ZM256.127 264.532C258.391 264.532 260.561 265.431 262.161 267.031C263.762 268.632 264.661 270.802 264.661 273.065C264.661 275.329 263.762 277.499 262.161 279.099C260.561 280.7 258.391 281.599 256.127 281.599C253.864 281.599 251.694 280.7 250.093 279.099C248.493 277.499 247.594 275.329 247.594 273.065C247.594 270.802 248.493 268.632 250.093 267.031C251.694 265.431 253.864 264.532 256.127 264.532Z" fill="#53A6FF"/>
<path d="M111.061 256C111.061 336.12 176.008 401.067 256.128 401.067C336.247 401.067 401.195 336.12 401.195 256C401.195 175.881 336.247 110.934 256.128 110.934C176.043 111.019 111.147 175.915 111.061 256ZM256.128 128C326.818 128 384.128 185.31 384.128 256C384.128 326.69 326.818 384 256.128 384C185.438 384 128.128 326.69 128.128 256C128.213 185.344 185.472 128.086 256.128 128ZM426.795 443.734C419.249 443.762 411.926 446.289 405.97 450.921C400.013 455.553 395.759 462.028 393.873 469.334H332.928V417.75C352.007 408.769 369.342 396.475 384.128 381.44C384.931 380.644 385.568 379.696 386.002 378.652C386.435 377.607 386.657 376.487 386.654 375.356C386.651 374.225 386.423 373.107 385.983 372.064C385.544 371.022 384.902 370.078 384.094 369.286C383.287 368.495 382.33 367.871 381.279 367.453C380.229 367.034 379.106 366.829 377.975 366.848C376.844 366.867 375.729 367.111 374.693 367.565C373.657 368.019 372.722 368.675 371.942 369.494C357.454 384.306 340.255 396.198 321.28 404.523C320.134 404.978 319.102 405.68 318.259 406.579C318.165 406.682 318.114 406.818 318.02 406.938C317.396 407.632 316.891 408.425 316.527 409.285C316.36 409.821 316.248 410.373 316.194 410.931C316.036 411.415 315.924 411.912 315.861 412.416V469.334C315.861 473.86 317.659 478.201 320.86 481.402C324.061 484.602 328.402 486.4 332.928 486.4H393.873C395.48 492.566 398.783 498.158 403.409 502.54C408.034 506.923 413.795 509.921 420.038 511.194C426.282 512.467 432.757 511.964 438.729 509.741C444.7 507.519 449.929 503.667 453.822 498.622C457.714 493.578 460.114 487.543 460.749 481.203C461.384 474.863 460.229 468.471 457.414 462.755C454.599 457.039 450.238 452.226 444.826 448.864C439.413 445.501 433.166 443.724 426.795 443.734ZM426.795 494.934C422.268 494.934 417.927 493.136 414.727 489.935C411.526 486.734 409.728 482.393 409.728 477.867C409.728 473.341 411.526 469 414.727 465.799C417.927 462.598 422.268 460.8 426.795 460.8C431.321 460.8 435.662 462.598 438.863 465.799C442.063 469 443.861 473.341 443.861 477.867C443.861 482.393 442.063 486.734 438.863 489.935C435.662 493.136 431.321 494.934 426.795 494.934ZM67.1828 349.867H108.416C108.484 349.867 108.544 349.824 108.621 349.824C109.469 349.786 110.307 349.616 111.104 349.321C111.502 349.19 111.89 349.031 112.264 348.843C112.358 348.792 112.469 348.775 112.563 348.715C112.657 348.655 112.802 348.476 112.939 348.382C113.713 347.905 114.399 347.299 114.969 346.59C115.07 346.458 115.164 346.322 115.251 346.181C115.803 345.403 116.219 344.538 116.48 343.621C116.48 343.493 116.531 343.365 116.557 343.237C116.763 342.62 116.895 341.981 116.949 341.334C116.905 341.011 116.84 340.692 116.753 340.378C116.753 340.267 116.753 340.165 116.693 340.045C116.548 339.044 116.222 338.078 115.729 337.195L115.686 337.058C106.936 321.954 100.705 305.526 97.2372 288.418C97.0131 287.32 96.5748 286.277 95.9475 285.348C95.3202 284.419 94.5161 283.623 93.581 283.005C92.646 282.387 91.5984 281.959 90.498 281.746C89.3977 281.533 88.2661 281.538 87.1679 281.762C86.0697 281.987 85.0264 282.425 84.0975 283.052C83.1687 283.679 82.3725 284.484 81.7544 285.419C81.1364 286.354 80.7085 287.401 80.4953 288.502C80.2821 289.602 80.2877 290.734 80.5119 291.832C83.3791 305.989 87.97 319.736 94.1652 332.792H67.1828C65.1058 324.748 60.1664 317.737 53.2905 313.075C46.4145 308.412 38.074 306.417 29.8324 307.464C21.5908 308.511 14.0139 312.527 8.52191 318.761C3.02995 324.995 0 333.017 0 341.325C0 349.633 3.02995 357.656 8.52191 363.889C14.0139 370.123 21.5908 374.14 29.8324 375.186C38.074 376.233 46.4145 374.238 53.2905 369.576C60.1664 364.913 65.1058 357.911 67.1828 349.867ZM34.2612 358.4C29.7348 358.4 25.3939 356.602 22.1932 353.402C18.9926 350.201 17.1945 345.86 17.1945 341.334C17.1945 336.807 18.9926 332.466 22.1932 329.266C25.3939 326.065 29.7348 324.267 34.2612 324.267C38.7876 324.267 43.1285 326.065 46.3291 329.266C49.5298 332.466 51.3279 336.807 51.3279 341.334C51.3279 345.86 49.5298 350.201 46.3291 353.402C43.1285 356.602 38.7876 358.4 34.2612 358.4Z" fill="#53A6FF"/>
<path d="M0.128933 170.667C0.118603 178.964 3.13682 186.98 8.61708 193.209C14.0974 199.439 21.6629 203.454 29.8936 204.502C38.1243 205.549 46.4544 203.557 53.3203 198.898C60.1862 194.24 65.1158 187.235 67.1839 179.2H108.647C109.492 179.149 110.32 178.978 111.113 178.697C111.488 178.577 111.854 178.429 112.206 178.253C112.661 178.013 113.09 177.727 113.486 177.4C114.206 176.856 114.829 176.196 115.329 175.445C115.44 175.283 115.585 175.164 115.687 174.993C126.629 156.005 141.313 139.437 158.849 126.293C159.745 125.621 160.501 124.779 161.072 123.814C161.643 122.85 162.018 121.783 162.177 120.674C162.335 119.564 162.273 118.434 161.995 117.349C161.717 116.263 161.228 115.243 160.556 114.347C159.883 113.45 159.041 112.695 158.077 112.124C157.112 111.553 156.045 111.178 154.936 111.019C153.826 110.861 152.697 110.922 151.611 111.2C150.526 111.479 149.505 111.968 148.609 112.64C130.651 126.168 115.403 142.958 103.664 162.133H67.1839C65.1158 154.098 60.1862 147.094 53.3203 142.435C46.4544 137.777 38.1243 135.784 29.8936 136.832C21.6629 137.879 14.0974 141.895 8.61708 148.124C3.13682 154.354 0.118603 162.37 0.128933 170.667ZM51.329 170.667C51.329 175.193 49.5309 179.534 46.3302 182.735C43.1296 185.935 38.7887 187.733 34.2623 187.733C29.7359 187.733 25.395 185.935 22.1943 182.735C18.9937 179.534 17.1956 175.193 17.1956 170.667C17.1956 166.14 18.9937 161.799 22.1943 158.599C25.395 155.398 29.7359 153.6 34.2623 153.6C38.7887 153.6 43.1296 155.398 46.3302 158.599C49.5309 161.799 51.329 166.14 51.329 170.667ZM477.996 307.2C470.45 307.228 463.127 309.756 457.171 314.388C451.214 319.02 446.96 325.494 445.074 332.8H418.083C424.286 319.754 428.871 305.999 431.736 291.84C432.189 289.621 431.742 287.313 430.493 285.424C429.244 283.535 427.295 282.219 425.076 281.767C422.857 281.314 420.549 281.761 418.66 283.01C416.771 284.259 415.455 286.208 415.003 288.427C411.541 305.534 405.315 321.962 396.571 337.067V337.178C396.061 338.08 395.725 339.07 395.581 340.096C395.581 340.19 395.581 340.275 395.521 340.369C395.436 340.685 395.359 341.009 395.308 341.333C395.359 342.004 395.491 342.666 395.7 343.305C395.947 344.346 396.397 345.329 397.023 346.197C397.108 346.325 397.176 346.453 397.27 346.573C397.848 347.285 398.54 347.896 399.318 348.382C399.455 348.476 399.54 348.621 399.685 348.706C399.83 348.792 399.89 348.783 399.984 348.834C400.359 349.031 400.752 349.193 401.162 349.321C401.955 349.607 402.786 349.773 403.628 349.816C403.704 349.816 403.764 349.858 403.841 349.858H445.074C446.679 356.025 449.982 361.618 454.607 366.002C459.231 370.386 464.992 373.385 471.236 374.659C477.479 375.933 483.955 375.431 489.928 373.209C495.9 370.988 501.13 367.136 505.023 362.091C508.916 357.047 511.317 351.012 511.952 344.671C512.588 338.331 511.432 331.939 508.617 326.222C505.803 320.505 501.441 315.692 496.028 312.33C490.615 308.967 484.368 307.19 477.996 307.2ZM477.996 358.4C473.469 358.4 469.128 356.602 465.928 353.401C462.727 350.201 460.929 345.86 460.929 341.333C460.929 336.807 462.727 332.466 465.928 329.265C469.128 326.065 473.469 324.267 477.996 324.267C482.522 324.267 486.863 326.065 490.064 329.265C493.264 332.466 495.062 336.807 495.062 341.333C495.062 345.86 493.264 350.201 490.064 353.401C486.863 356.602 482.522 358.4 477.996 358.4ZM196.396 412.561V412.416C196.341 411.937 196.247 411.463 196.114 411C196.054 410.421 195.937 409.849 195.764 409.293C195.405 408.447 194.909 407.666 194.296 406.98C194.186 406.852 194.134 406.699 194.023 406.579C193.177 405.68 192.143 404.978 190.994 404.523C168.657 394.664 148.812 379.928 132.916 361.395C132.198 360.511 131.31 359.78 130.305 359.244C129.299 358.709 128.197 358.38 127.063 358.277C125.928 358.174 124.785 358.3 123.7 358.646C122.614 358.992 121.609 359.552 120.744 360.292C119.879 361.033 119.17 361.939 118.661 362.958C118.151 363.977 117.851 365.087 117.777 366.224C117.703 367.361 117.858 368.5 118.232 369.576C118.606 370.652 119.191 371.643 119.954 372.489C136.365 391.59 156.589 407.048 179.329 417.869V469.333H118.384C116.307 461.289 111.368 454.279 104.492 449.616C97.6156 444.954 89.2751 442.959 81.0335 444.005C72.7919 445.052 65.215 449.069 59.723 455.303C54.2311 461.536 51.2011 469.559 51.2011 477.867C51.2011 486.175 54.2311 494.197 59.723 500.431C65.215 506.665 72.7919 510.681 81.0335 511.728C89.2751 512.775 97.6156 510.78 104.492 506.117C111.368 501.455 116.307 494.444 118.384 486.4H179.329C183.855 486.4 188.196 484.602 191.397 481.401C194.598 478.201 196.396 473.86 196.396 469.333V412.561ZM85.4623 494.933C80.9359 494.933 76.595 493.135 73.3943 489.935C70.1937 486.734 68.3956 482.393 68.3956 477.867C68.3956 473.34 70.1937 468.999 73.3943 465.799C76.595 462.598 80.9359 460.8 85.4623 460.8C89.9887 460.8 94.3296 462.598 97.5302 465.799C100.731 468.999 102.529 473.34 102.529 477.867C102.529 482.393 100.731 486.734 97.5302 489.935C94.3296 493.135 89.9887 494.933 85.4623 494.933ZM288.556 414.891C267.152 419.189 245.106 419.189 223.702 414.891C222.593 414.636 221.444 414.606 220.324 414.802C219.203 414.999 218.132 415.417 217.176 416.033C216.219 416.649 215.395 417.45 214.752 418.389C214.109 419.328 213.661 420.386 213.433 421.501C213.206 422.616 213.203 423.765 213.427 424.881C213.65 425.997 214.094 427.057 214.732 427.998C215.371 428.94 216.192 429.744 217.146 430.364C218.1 430.984 219.169 431.407 220.289 431.608C229.3 433.357 238.422 434.424 247.596 434.773V503.467C247.596 505.73 248.495 507.9 250.095 509.501C251.695 511.101 253.866 512 256.129 512C258.392 512 260.563 511.101 262.163 509.501C263.763 507.9 264.662 505.73 264.662 503.467V434.773C273.832 434.417 282.961 433.358 291.969 431.608C294.14 431.11 296.031 429.782 297.236 427.909C298.442 426.036 298.867 423.766 298.422 421.583C297.976 419.401 296.695 417.479 294.851 416.228C293.008 414.978 290.748 414.498 288.556 414.891ZM179.329 25.6001H118.384C116.307 17.5561 111.368 10.5457 104.492 5.88295C97.6156 1.22023 89.2751 -0.774686 81.0335 0.272136C72.7919 1.31896 65.215 5.33565 59.723 11.5693C54.2311 17.803 51.2011 25.8256 51.2011 34.1334C51.2011 42.4412 54.2311 50.4639 59.723 56.6975C65.215 62.9312 72.7919 66.9479 81.0335 67.9947C89.2751 69.0415 97.6156 67.0466 104.492 62.3839C111.368 57.7212 116.307 50.7108 118.384 42.6668H179.329V99.6012C179.329 99.9425 179.491 100.275 179.534 100.617C179.619 101.504 179.85 102.366 180.208 103.177C180.742 104.323 181.54 105.326 182.538 106.104C183.305 106.735 184.173 107.231 185.106 107.571C185.712 107.768 186.343 107.887 186.983 107.947C187.264 108.023 187.549 108.083 187.837 108.126C189.059 108.1 190.262 107.809 191.361 107.273C201.756 102.765 212.596 99.3616 223.702 97.1179C225.921 96.6653 227.87 95.3497 229.119 93.4605C230.368 91.5714 230.815 89.2634 230.363 87.0443C229.91 84.8253 228.594 82.877 226.705 81.6279C224.816 80.3789 222.508 79.9315 220.289 80.3841C212.182 82.0396 204.195 84.2668 196.396 87.0401V42.6668C196.396 38.1404 194.598 33.7994 191.397 30.5988C188.196 27.3982 183.855 25.6001 179.329 25.6001ZM85.4623 51.2001C80.9359 51.2001 76.595 49.402 73.3943 46.2014C70.1937 43.0008 68.3956 38.6598 68.3956 34.1334C68.3956 29.6071 70.1937 25.2661 73.3943 22.0655C76.595 18.8648 80.9359 17.0668 85.4623 17.0668C89.9887 17.0668 94.3296 18.8648 97.5302 22.0655C100.731 25.2661 102.529 29.6071 102.529 34.1334C102.529 38.6598 100.731 43.0008 97.5302 46.2014C94.3296 49.402 89.9887 51.2001 85.4623 51.2001ZM393.874 42.6668C395.951 50.7108 400.89 57.7212 407.766 62.3839C414.642 67.0466 422.983 69.0415 431.224 67.9947C439.466 66.9479 447.043 62.9312 452.535 56.6975C458.027 50.4639 461.057 42.4412 461.057 34.1334C461.057 25.8256 458.027 17.803 452.535 11.5693C447.043 5.33565 439.466 1.31896 431.224 0.272136C422.983 -0.774686 414.642 1.22023 407.766 5.88295C400.89 10.5457 395.951 17.5561 393.874 25.6001H332.929C328.403 25.6001 324.062 27.3982 320.861 30.5988C317.66 33.7994 315.862 38.1404 315.862 42.6668V99.5756C315.914 100.079 316.014 100.576 316.161 101.06C316.212 101.624 316.332 102.17 316.494 102.707C316.861 103.561 317.364 104.363 317.987 105.054C318.081 105.165 318.132 105.31 318.226 105.412C319.071 106.308 320.103 107.017 321.247 107.469C340.218 115.781 357.417 127.658 371.909 142.456C372.678 143.309 373.611 143.999 374.652 144.484C375.694 144.969 376.822 145.238 377.97 145.276C379.119 145.314 380.263 145.12 381.334 144.705C382.405 144.29 383.381 143.663 384.205 142.862C385.028 142.061 385.681 141.101 386.124 140.042C386.568 138.982 386.793 137.844 386.785 136.695C386.778 135.546 386.539 134.411 386.083 133.357C385.627 132.302 384.962 131.351 384.129 130.56C369.343 115.525 352.008 103.232 332.929 94.2508V42.6668H393.874ZM426.796 17.0668C431.322 17.0668 435.663 18.8648 438.864 22.0655C442.064 25.2661 443.862 29.6071 443.862 34.1334C443.862 38.6598 442.064 43.0008 438.864 46.2014C435.663 49.402 431.322 51.2001 426.796 51.2001C422.269 51.2001 417.928 49.402 414.728 46.2014C411.527 43.0008 409.729 38.6598 409.729 34.1334C409.729 29.6071 411.527 25.2661 414.728 22.0655C417.928 18.8648 422.269 17.0668 426.796 17.0668ZM256.129 8.31508e-05C253.866 8.31508e-05 251.695 0.899128 250.095 2.49944C248.495 4.09975 247.596 6.27024 247.596 8.53342V85.3334C247.596 87.5966 248.495 89.7671 250.095 91.3674C251.695 92.9677 253.866 93.8668 256.129 93.8668C267.018 93.8668 277.889 94.9505 288.556 97.1094C290.748 97.5024 293.008 97.0224 294.851 95.7719C296.695 94.5214 297.976 92.5996 298.422 90.4171C298.867 88.2345 298.442 85.9642 297.236 84.0911C296.031 82.218 294.14 80.8907 291.969 80.3926C282.961 78.6418 273.832 77.5834 264.662 77.2268V8.53342C264.662 6.27024 263.763 4.09975 262.163 2.49944C260.563 0.899128 258.392 8.31508e-05 256.129 8.31508e-05ZM445.074 179.2C447.151 187.244 452.09 194.255 458.966 198.917C465.842 203.58 474.183 205.575 482.424 204.528C490.666 203.481 498.243 199.465 503.735 193.231C509.227 186.997 512.257 178.975 512.257 170.667C512.257 162.359 509.227 154.336 503.735 148.103C498.243 141.869 490.666 137.852 482.424 136.805C474.183 135.759 465.842 137.754 458.966 142.416C452.09 147.079 447.151 154.089 445.074 162.133H403.841C403.679 162.133 403.551 162.219 403.397 162.219C402.903 162.272 402.414 162.372 401.938 162.517C401.237 162.656 400.557 162.885 399.916 163.2C399.847 163.2 399.762 163.2 399.685 163.285C399.608 163.371 399.463 163.516 399.318 163.61C398.54 164.095 397.848 164.707 397.27 165.419C397.176 165.538 397.108 165.666 397.023 165.794C396.458 166.568 396.033 167.434 395.768 168.354C395.768 168.465 395.768 168.576 395.7 168.687C395.49 169.329 395.359 169.993 395.308 170.667C395.35 170.991 395.419 171.315 395.495 171.64C395.495 171.733 395.538 171.819 395.555 171.913C395.7 172.937 396.033 173.926 396.545 174.831V174.942C410.777 199.585 418.267 227.542 418.262 256C418.262 258.263 419.161 260.434 420.762 262.034C422.362 263.634 424.532 264.533 426.796 264.533H503.596C505.859 264.533 508.029 263.634 509.63 262.034C511.23 260.434 512.129 258.263 512.129 256C512.129 253.737 511.23 251.566 509.63 249.966C508.029 248.366 505.859 247.467 503.596 247.467H435.047C433.929 223.807 428.128 200.603 417.981 179.2H445.074ZM477.996 153.6C482.522 153.6 486.863 155.398 490.064 158.599C493.264 161.799 495.062 166.14 495.062 170.667C495.062 175.193 493.264 179.534 490.064 182.735C486.863 185.935 482.522 187.733 477.996 187.733C473.469 187.733 469.128 185.935 465.928 182.735C462.727 179.534 460.929 175.193 460.929 170.667C460.929 166.14 462.727 161.799 465.928 158.599C469.128 155.398 473.469 153.6 477.996 153.6ZM8.66227 264.533H85.4623C87.7255 264.533 89.896 263.634 91.4963 262.034C93.0966 260.434 93.9956 258.263 93.9956 256C93.9776 238.758 96.7114 221.624 102.094 205.244C102.444 204.179 102.581 203.056 102.497 201.939C102.413 200.821 102.11 199.731 101.605 198.73C101.1 197.73 100.403 196.839 99.5531 196.108C98.7035 195.377 97.7183 194.821 96.6538 194.47C95.5892 194.12 94.466 193.983 93.3485 194.067C92.2309 194.151 91.1408 194.454 90.1404 194.959C89.14 195.464 88.2489 196.162 87.518 197.011C86.7871 197.861 86.2306 198.846 85.8804 199.91C80.8674 215.299 77.968 231.298 77.2618 247.467H8.66227C6.39909 247.467 4.2286 248.366 2.62829 249.966C1.02798 251.566 0.128933 253.737 0.128933 256C0.128933 258.263 1.02798 260.434 2.62829 262.034C4.2286 263.634 6.39909 264.533 8.66227 264.533Z" fill="#53A6FF"/>
</g>
<defs>
<clipPath id="clip0_297_112">
<rect width="513" height="512" fill="white"/>
</clipPath>
</defs>
</svg>
