<svg width="512" height="512" viewBox="0 0 512 512" fill="none" xmlns="http://www.w3.org/2000/svg">
<g clip-path="url(#clip0_297_20)">
<path d="M447.824 317.766C454.277 297.848 457.554 277.074 457.554 255.906C457.554 234.816 454.301 214.117 447.887 194.262C461.992 188.965 474.817 180.484 485.465 169.207C503.867 149.727 513.578 124.242 512.813 97.457C511.227 42.157 464.953 -1.535 409.645 0.043C382.855 0.809 357.973 11.961 339.57 31.445C330.277 41.285 323.207 52.656 318.578 64.953C298.718 58.543 278.02 55.289 256.922 55.289C235.812 55.289 215.098 58.551 195.227 64.969C180.895 27.043 144.215 0 101.332 0C46.008 0 1 45.008 1 100.328C1 143.207 28.047 179.883 65.973 194.211C59.551 214.086 56.293 234.801 56.293 255.906C56.293 277.074 59.57 297.848 66.023 317.766C28.07 332.082 1 368.773 1 411.672C1 426.773 4.273 441.293 10.73 454.824C11.1541 455.713 11.7491 456.51 12.4812 457.169C13.2133 457.828 14.0681 458.337 14.9967 458.665C15.9253 458.994 16.9096 459.137 17.8933 459.085C18.8771 459.033 19.841 458.788 20.73 458.364C22.5244 457.506 23.905 455.971 24.5687 454.096C25.2325 452.221 25.125 450.16 24.27 448.364C18.781 436.864 16 424.52 16 411.672C16 364.625 54.281 326.348 101.332 326.348C148.387 326.348 186.668 364.625 186.668 411.672C186.668 458.722 148.387 497 101.332 497C79.872 497 59.359 489.004 43.578 474.484C40.528 471.68 35.781 471.879 32.98 474.926C32.313 475.651 31.7953 476.5 31.4566 477.425C31.1178 478.349 30.9645 479.332 31.0056 480.316C31.0466 481.3 31.2812 482.267 31.6958 483.16C32.1104 484.053 32.697 484.856 33.422 485.523C51.98 502.598 76.098 512 101.332 512C144.277 512 181.004 484.875 195.289 446.863C215.137 453.27 235.832 456.523 256.922 456.523C278.016 456.523 298.715 453.27 318.562 446.867C332.849 484.88 369.575 512 412.52 512C467.844 512 512.852 466.992 512.852 411.672C512.852 368.773 485.782 332.078 447.824 317.766ZM350.477 41.742C366.125 25.172 387.293 15.688 410.078 15.035C410.903 15.0116 411.729 14.9999 412.555 15C458.485 15 496.496 51.684 497.816 97.883C498.469 120.664 490.211 142.336 474.563 158.91C458.914 175.48 437.746 184.965 414.961 185.617C414.136 185.64 413.31 185.652 412.484 185.652C366.554 185.652 328.543 148.969 327.223 102.77C326.566 79.988 334.828 58.313 350.477 41.742ZM314.355 432.461C295.875 438.469 276.59 441.523 256.922 441.523C237.262 441.523 217.977 438.469 199.496 432.461C200.941 425.625 201.669 418.658 201.668 411.671C201.668 356.351 156.656 311.348 101.332 311.348C94.164 311.348 87.172 312.109 80.426 313.543C74.367 294.996 71.293 275.641 71.293 255.906C71.293 236.234 74.352 216.941 80.371 198.441C87.2608 199.913 94.2867 200.654 101.332 200.652C118.52 200.652 135.477 196.23 150.379 187.867C153.989 185.84 155.273 181.27 153.246 177.657C151.219 174.044 146.648 172.762 143.036 174.789C130.371 181.895 115.949 185.652 101.332 185.652C54.277 185.652 16 147.375 16 100.324C16 53.277 54.281 15 101.332 15C148.387 15 186.668 53.277 186.668 100.328C186.668 120.012 179.805 139.215 167.344 154.406C164.714 157.606 165.184 162.332 168.387 164.961C169.925 166.222 171.901 166.82 173.88 166.625C175.859 166.429 177.679 165.455 178.941 163.918C193.594 146.055 201.668 123.468 201.668 100.324C201.668 93.141 200.898 86.129 199.457 79.367C217.953 73.347 237.25 70.289 256.922 70.289C276.59 70.289 295.879 73.344 314.367 79.355C312.713 87.1904 311.995 95.1943 312.227 103.199C313.785 157.523 358.473 200.656 412.48 200.652C419.537 200.653 426.575 199.917 433.48 198.457C439.496 216.949 442.555 236.242 442.555 255.907C442.555 275.641 439.477 294.997 433.422 313.543C426.551 312.081 419.545 311.345 412.52 311.348C357.195 311.348 312.188 356.352 312.188 411.672C312.188 418.801 312.938 425.754 314.355 432.461ZM412.52 497C365.465 497 327.188 458.723 327.188 411.676C327.188 364.625 365.465 326.348 412.52 326.348C459.574 326.348 497.852 364.625 497.852 411.676C497.852 458.723 459.574 497 412.52 497Z" fill="#53A6FF"/>
<path d="M152.401 56.0554C151.139 55.1964 149.645 54.7432 148.118 54.7565C146.592 54.7697 145.105 55.2487 143.858 56.1294C141.311 57.9249 138.573 59.4328 135.694 60.6254C125.39 52.5624 110.456 52.6564 100.226 61.5514C94.9491 66.1331 91.5883 72.5321 90.8113 79.4774C85.3188 78.6602 80.0503 76.7327 75.3271 73.8125C70.6039 70.8924 66.5251 67.0407 63.3393 62.4924C62.5755 61.4079 61.5381 60.545 60.3326 59.9914C59.1272 59.4378 57.7967 59.2132 56.4763 59.3404C55.155 59.4684 53.8913 59.9448 52.8143 60.721C51.7373 61.4972 50.8857 62.5454 50.3463 63.7584C50.1323 64.2424 45.0853 75.7734 45.7293 89.8874C46.2223 100.687 50.0853 114.609 64.1753 125.359C59.0862 127.007 53.7465 127.745 48.4013 127.539C46.7164 127.474 45.0588 127.979 43.6957 128.971C42.3326 129.963 41.3435 131.386 40.8882 133.01C40.4328 134.633 40.5376 136.363 41.1857 137.919C41.8338 139.476 42.9873 140.769 44.4603 141.589C56.2263 148.125 68.8313 151.399 81.1473 151.399C92.9793 151.399 104.542 148.375 114.831 142.324C127.733 134.734 137.108 123.114 142.198 108.922C142.358 108.562 142.491 108.188 142.597 107.801C145.214 100.094 146.585 91.6524 146.585 82.6994C146.585 82.3094 146.573 81.9144 146.558 81.5234C150.849 76.4649 153.901 70.4757 155.472 64.0314C155.832 62.5475 155.731 60.9891 155.183 59.5641C154.634 58.1391 153.664 56.9151 152.402 56.0554H152.401ZM131.354 80.3594C131.503 81.1414 131.581 81.9494 131.581 82.7234C131.581 90.0744 130.487 96.8834 128.405 103.035C128.292 103.321 128.196 103.613 128.12 103.91C124.226 114.809 117.136 123.563 107.226 129.395C98.1563 134.735 87.7463 137.008 77.1363 136.238C79.5675 135.035 81.914 133.668 84.1593 132.145C85.2654 131.393 86.1505 130.36 86.7233 129.151C87.2961 127.942 87.5357 126.603 87.4173 125.27C87.2985 123.938 86.8254 122.662 86.0472 121.574C85.2689 120.485 84.2139 119.625 82.9913 119.082C68.9873 112.859 61.4993 102.961 60.7373 89.6684C60.5982 87.0887 60.6899 84.5018 61.0113 81.9384C71.3273 90.5584 84.5423 95.2624 98.3353 94.9064C100.29 94.8566 102.149 94.045 103.514 92.6447C104.88 91.2444 105.644 89.3662 105.644 87.4104V82.7584C105.617 80.8875 105.998 79.0331 106.763 77.3253C107.527 75.6174 108.656 74.0973 110.069 72.8714C115.429 68.2114 123.577 68.7774 128.237 74.1374C129.153 75.1888 130.343 75.9639 131.675 76.3754C131.212 77.6503 131.101 79.0268 131.355 80.3594H131.354ZM387.839 106.242H398.472V150.965C398.472 152.955 399.262 154.862 400.669 156.269C402.076 157.675 403.983 158.465 405.972 158.465C407.961 158.465 409.869 157.675 411.276 156.269C412.682 154.862 413.472 152.955 413.472 150.965V106.242H425.054C429.194 106.242 432.554 102.882 432.554 98.7424C432.554 94.6024 429.194 91.2424 425.054 91.2424H413.472V70.2584C413.472 63.0554 419.335 57.1914 426.542 57.1914H436.252C440.394 57.1914 443.752 53.8324 443.752 49.6914C443.752 47.7023 442.962 45.7946 441.556 44.3881C440.149 42.9816 438.241 42.1914 436.252 42.1914H426.542C411.065 42.1914 398.472 54.7814 398.472 70.2584V91.2424H387.839C383.699 91.2424 380.339 94.6024 380.339 98.7424C380.339 102.882 383.699 106.242 387.839 106.242ZM84.3153 450.46C86.1013 450.46 87.8853 450 89.4753 449.082L140.526 419.594C142.094 418.687 143.395 417.383 144.301 415.815C145.206 414.246 145.684 412.468 145.686 410.656C145.686 406.984 143.71 403.559 140.526 401.723L89.4763 372.234C87.9075 371.33 86.1285 370.854 84.3178 370.854C82.5071 370.854 80.7282 371.33 79.1593 372.234C77.5915 373.142 76.2895 374.445 75.3832 376.014C74.477 377.582 73.9984 379.361 73.9953 381.172V440.145C73.9953 443.82 75.9753 447.246 79.1593 449.082C80.7264 449.989 82.5051 450.464 84.3153 450.461V450.46ZM88.9953 389.281L126.011 410.661L88.9953 432.039V389.281ZM445.109 358.555H379.929C368.609 358.555 359.397 367.765 359.397 379.09V444.258C359.397 455.582 368.608 464.793 379.929 464.793H445.109C456.429 464.793 465.639 455.582 465.639 444.258V379.09C465.639 367.766 456.429 358.555 445.109 358.555ZM450.639 444.258C450.639 445.725 450.056 447.132 449.019 448.17C447.982 449.208 446.576 449.792 445.109 449.793H379.929C378.462 449.792 377.055 449.208 376.018 448.171C374.981 447.133 374.398 445.726 374.397 444.258V379.09C374.399 377.623 374.982 376.217 376.019 375.179C377.056 374.141 378.462 373.558 379.929 373.555H445.109C446.576 373.558 447.982 374.142 449.018 375.18C450.055 376.217 450.638 377.624 450.639 379.09V444.258Z" fill="#53A6FF"/>
<path d="M412.52 389.005C400.02 389.005 389.848 399.177 389.848 411.677C389.848 424.177 400.02 434.345 412.52 434.345C425.02 434.345 435.191 424.177 435.191 411.677C435.191 399.177 425.02 389.005 412.52 389.005ZM412.52 419.345C408.29 419.345 404.848 415.903 404.848 411.677C404.848 407.447 408.289 404.005 412.52 404.005C416.751 404.005 420.191 407.446 420.191 411.677C420.191 415.903 416.75 419.345 412.52 419.345ZM311.203 178.095C309.213 178.095 307.306 178.885 305.899 180.291C304.493 181.698 303.703 183.606 303.703 185.595V188.958C293.124 195.195 282.05 200.55 270.593 204.97C261.41 208.501 252.004 211.423 242.437 213.716C240.923 212.543 239.063 211.905 237.148 211.903H202.808C194.512 211.903 187.766 218.653 187.766 226.946V266.333C187.766 274.63 194.512 281.376 202.809 281.376H209.672L212.273 331.384C212.324 332.367 212.568 333.331 212.992 334.22C213.416 335.109 214.011 335.905 214.743 336.564C215.474 337.224 216.329 337.732 217.257 338.061C218.185 338.39 219.169 338.532 220.153 338.481C222.139 338.377 224.002 337.489 225.334 336.012C226.665 334.535 227.356 332.589 227.253 330.603L224.691 281.376H237.148C239.137 281.376 240.968 280.696 242.434 279.567C248.522 281.035 254.547 282.756 260.492 284.727C261.427 285.037 262.413 285.16 263.396 285.089C264.378 285.017 265.337 284.753 266.217 284.311C267.098 283.87 267.882 283.259 268.527 282.514C269.171 281.769 269.662 280.904 269.972 279.969C270.282 279.034 270.405 278.048 270.334 277.065C270.263 276.083 269.999 275.124 269.557 274.244C269.115 273.363 268.504 272.579 267.759 271.934C267.014 271.29 266.149 270.799 265.215 270.489C258.83 268.372 252.359 266.524 245.82 264.95V228.337C256.07 225.881 266.146 222.751 275.984 218.966C285.485 215.302 294.742 211.035 303.7 206.191V287.105C300.412 285.329 297.083 283.631 293.716 282.012C292.828 281.584 291.865 281.336 290.882 281.281C289.899 281.226 288.914 281.365 287.984 281.691C287.055 282.017 286.199 282.523 285.465 283.18C284.731 283.837 284.134 284.632 283.708 285.52C283.281 286.407 283.032 287.37 282.978 288.354C282.923 289.338 283.062 290.322 283.388 291.252C283.714 292.182 284.219 293.038 284.876 293.772C285.533 294.506 286.328 295.104 287.216 295.531C292.829 298.238 298.328 301.176 303.7 304.336V307.684C303.7 309.673 304.49 311.581 305.896 312.987C307.303 314.394 309.211 315.184 311.2 315.184C313.189 315.184 315.096 314.394 316.503 312.987C317.909 311.581 318.7 309.673 318.7 307.684V185.594C318.7 184.609 318.507 183.634 318.13 182.724C317.754 181.814 317.202 180.987 316.506 180.291C315.809 179.594 314.983 179.042 314.073 178.665C313.163 178.288 312.188 178.094 311.204 178.094L311.203 178.095ZM230.824 266.372L202.766 266.333L202.809 226.903H230.824V266.372Z" fill="#53A6FF"/>
</g>
<defs>
<clipPath id="clip0_297_20">
<rect width="512" height="512" fill="white"/>
</clipPath>
</defs>
</svg>
