<svg width="505" height="512" viewBox="0 0 505 512" fill="none" xmlns="http://www.w3.org/2000/svg">
<path d="M504.389 507.94V107.067C504.389 101.462 499.845 96.918 494.24 96.918H443.497L432.48 108.195H79.833L60.893 96.919H10.149C4.544 96.919 0 101.463 0 107.068V507.94C0 509.016 0.427643 510.049 1.18885 510.81C1.95006 511.571 2.98249 511.999 4.059 511.999H35.52L48.884 505.354L453.592 505.736L468.869 511.999H500.33C501.407 511.999 502.439 511.571 503.2 510.81C503.961 510.049 504.389 509.016 504.389 507.94Z" fill="#948393"/>
<path d="M71.9083 132.578H35.5193C34.1736 132.578 32.883 133.113 31.9315 134.064C30.9799 135.016 30.4453 136.306 30.4453 137.652V157.949C30.4453 159.295 30.9799 160.585 31.9315 161.537C32.883 162.489 34.1736 163.023 35.5193 163.023H71.9083V132.578ZM71.9083 198.545H35.5193C34.1736 198.545 32.883 199.08 31.9315 200.031C30.9799 200.983 30.4453 202.273 30.4453 203.619V223.916C30.4453 225.262 30.9799 226.552 31.9315 227.504C32.883 228.456 34.1736 228.99 35.5193 228.99H71.9083V198.545ZM71.9083 264.511H35.5193C34.1736 264.511 32.883 265.046 31.9315 265.997C30.9799 266.949 30.4453 268.239 30.4453 269.585V289.882C30.4453 291.228 30.9799 292.518 31.9315 293.47C32.883 294.422 34.1736 294.956 35.5193 294.956H71.9083V264.511ZM71.9083 330.477H35.5193C34.1736 330.477 32.883 331.012 31.9315 331.963C30.9799 332.915 30.4453 334.205 30.4453 335.551V355.848C30.4453 357.194 30.9799 358.484 31.9315 359.436C32.883 360.388 34.1736 360.922 35.5193 360.922H71.9083V330.477ZM71.9083 396.444H35.5193C34.1736 396.444 32.883 396.979 31.9315 397.93C30.9799 398.882 30.4453 400.172 30.4453 401.518V421.815C30.4453 423.161 30.9799 424.451 31.9315 425.403C32.883 426.355 34.1736 426.889 35.5193 426.889H60.8913L71.9083 396.444Z" fill="#7C6C79"/>
<path d="M432.48 132.578H468.869C470.215 132.578 471.506 133.113 472.457 134.064C473.409 135.016 473.943 136.306 473.943 137.652V157.949C473.943 159.295 473.409 160.585 472.457 161.537C471.506 162.489 470.215 163.023 468.869 163.023H432.48V132.578ZM432.48 198.545H468.869C470.215 198.545 471.506 199.08 472.457 200.031C473.409 200.983 473.943 202.273 473.943 203.619V223.916C473.943 225.262 473.409 226.552 472.457 227.504C471.506 228.456 470.215 228.99 468.869 228.99H432.48V198.545ZM432.48 264.511H468.869C470.215 264.511 471.506 265.046 472.457 265.997C473.409 266.949 473.943 268.239 473.943 269.585V289.882C473.943 291.228 473.409 292.518 472.457 293.47C471.506 294.422 470.215 294.956 468.869 294.956H432.48V264.511ZM432.48 330.477H468.869C470.215 330.477 471.506 331.012 472.457 331.963C473.409 332.915 473.943 334.205 473.943 335.551V355.848C473.943 357.194 473.409 358.484 472.457 359.436C471.506 360.388 470.215 360.922 468.869 360.922H432.48V330.477ZM432.48 396.444H468.869C470.215 396.444 471.506 396.979 472.457 397.93C473.409 398.882 473.943 400.172 473.943 401.518V421.815C473.943 423.161 473.409 424.451 472.457 425.403C471.506 426.355 470.215 426.889 468.869 426.889H443.497L432.48 396.444Z" fill="#7C6C79"/>
<path d="M433.351 411.076V105.334L423.202 96.9219H60.8945V363.324L72.9565 408.993L433.351 411.076Z" fill="#FE7143"/>
<path d="M443.496 96.9219V284.672L432.479 295.328L423.199 284.672V96.9219H443.496Z" fill="#FE5C37"/>
<path d="M423.202 426.893H397.312L380.805 356.219L397.312 315.117L412.517 304.461L423.202 315.117L433.351 364.338L423.202 426.893Z" fill="#FFCB3D"/>
<path d="M468.869 512.001H443.497L433.244 496.778L443.497 481.555H468.869C470.215 481.555 471.505 482.089 472.457 483.041C473.409 483.992 473.943 485.283 473.943 486.629V506.926C473.943 508.271 473.409 509.562 472.457 510.514C471.506 511.466 470.215 512 468.869 512.001Z" fill="#7C6C79"/>
<path d="M438.687 291.155V315.118H386.828V284.672H423.201L438.687 291.155Z" fill="#FFDA45"/>
<path d="M443.496 315.117V426.893H423.199V315.117L432.479 307.535L443.496 315.117Z" fill="#FFBE36"/>
<path d="M423.199 284.672H443.496V315.118H423.199V284.672Z" fill="#FFCB3D"/>
<path d="M60.8913 512H35.5193C34.1736 512 32.883 511.465 31.9315 510.514C30.9799 509.562 30.4453 508.271 30.4453 506.926V486.629C30.4453 485.962 30.5766 485.303 30.8316 484.687C31.0865 484.071 31.4603 483.512 31.9315 483.041C32.4026 482.57 32.962 482.196 33.5776 481.941C34.1932 481.686 34.853 481.555 35.5193 481.555H60.8913L71.0433 496.778L60.8913 512Z" fill="#7C6C79"/>
<path d="M60.8945 512V496.777L69.1365 487.398L436.303 487.016L437.449 504.973L423.202 512H60.8945Z" fill="#FE7143"/>
<path d="M390.928 421.389L389.719 239.143C389.718 238.248 389.482 237.369 389.033 236.596C388.584 235.822 387.938 235.181 387.162 234.737L377.013 221.312L339.02 199.602V413.938L357.939 426.89H377.014L390.928 421.389Z" fill="#52DEFF"/>
<path d="M397.313 235.855V426.893H377.016V221.312L394.756 231.452C395.532 231.895 396.178 232.536 396.627 233.309C397.076 234.083 397.312 234.961 397.313 235.855Z" fill="#43CAFF"/>
<path d="M443.499 481.555V512.001H423.202V503.882C423.201 501.998 422.453 500.191 421.121 498.859C419.788 497.527 417.982 496.778 416.098 496.778H60.8945V481.555H443.499Z" fill="#FE5C37"/>
<path d="M60.8945 426.893H111.627L167.445 413.94L223.263 426.893H273.15L294.875 315.117H207.478L126.556 363.323H60.8945V426.893Z" fill="#52DEFF"/>
<path d="M331.915 114.159L290.21 113.734L282.527 254.729L315.611 266.078L340.335 254.729L331.915 114.159Z" fill="#E8EDF2"/>
<path d="M340.336 254.73H282.528L280.316 295.325L311.542 302.47L342.768 295.325L340.336 254.73Z" fill="#D9E1E8"/>
<path d="M280.317 295.324L278.105 335.919L311.892 348.097L345.2 335.919L342.769 295.324H280.317Z" fill="#E8EDF2"/>
<path d="M278.104 335.922L275.891 376.516L317.694 386.145L347.631 376.516L345.199 335.922H278.104Z" fill="#D9E1E8"/>
<path d="M275.892 376.516L273.148 426.893H334.738L347.632 376.516H275.892Z" fill="#E8EDF2"/>
<path d="M348.699 254.731L338.134 268.372L325.357 254.731L317.695 114.02L341.047 114.254L348.699 254.731Z" fill="#D9E1E8"/>
<path d="M350.909 295.325L340.335 305.909L327.567 295.325L325.355 254.73H348.697L350.909 295.325Z" fill="#CAD6E0"/>
<path d="M353.124 335.919L342.77 345.738L329.782 335.919L327.57 295.324H350.912L353.124 335.919Z" fill="#D9E1E8"/>
<path d="M355.336 376.516L344.964 386.145L331.994 376.516L329.781 335.922H353.123L355.336 376.516Z" fill="#CAD6E0"/>
<path d="M357.937 426.893H334.736L331.992 376.516H355.334L357.937 426.893Z" fill="#D9E1E8"/>
<path d="M111.625 272.999V234.246C111.625 233.075 112.13 231.962 113.011 231.191L137.14 210.078L153.664 204.566L154.542 194.851L191.666 162.367C192.406 161.72 193.356 161.363 194.339 161.363H202.963L215.32 163.924C216.397 163.924 217.429 164.352 218.19 165.113C218.951 165.874 219.379 166.907 219.379 167.983L217.946 272.998H111.625V272.999Z" fill="#948393"/>
<path d="M216.515 417.186V284.669H111.625V426.891H202.964L216.515 417.186ZM223.261 165.422V194.853L219.38 200.172L223.261 210.076V225.299L219.38 232.91L223.261 240.521V272.997H202.964V161.363H219.202C219.735 161.363 220.263 161.468 220.756 161.672C221.248 161.876 221.696 162.175 222.073 162.552C222.45 162.929 222.749 163.376 222.953 163.869C223.156 164.361 223.261 164.889 223.261 165.422Z" fill="#7C6C79"/>
<path d="M202.965 284.672H223.262V426.894H202.965V284.672Z" fill="#6A5D67"/>
<path d="M213.113 194.855V210.078H137.141L154.546 194.855H213.113ZM184.555 225.301H213.113V240.524H184.555C183.555 240.525 182.565 240.328 181.641 239.946C180.718 239.564 179.879 239.003 179.172 238.296C178.465 237.59 177.904 236.75 177.522 235.827C177.14 234.903 176.943 233.913 176.944 232.913C176.943 231.914 177.139 230.924 177.522 230C177.904 229.076 178.464 228.237 179.171 227.53C179.878 226.823 180.717 226.262 181.641 225.88C182.565 225.497 183.555 225.301 184.555 225.301Z" fill="#7C6C79"/>
<path d="M202.965 225.301H223.262V240.524H202.965V225.301ZM202.965 194.855H223.262V210.078H202.965V194.855Z" fill="#6A5D67"/>
<path d="M376.504 82.7113C376.513 90.5368 375.011 98.2903 372.078 105.545C370.982 108.254 363.587 109.846 362.128 112.345C360.612 114.941 365.019 118.435 363.148 120.768C351.989 134.689 334.841 143.603 315.611 143.603C296.445 143.603 279.347 134.748 268.185 120.906C266.361 118.643 269.056 115.669 267.566 113.157C266.017 110.546 260.296 108.388 259.145 105.545C256.212 98.2903 254.709 90.5368 254.719 82.7113C254.719 62.5644 264.504 44.7014 279.581 33.6184C281.837 31.9604 284.718 35.9584 287.196 34.6194C289.795 33.2144 292 26.4874 294.809 25.4664C301.477 23.0465 308.518 21.8125 315.612 21.8204C322.706 21.8123 329.747 23.0466 336.416 25.4674C339.093 26.4404 341.542 35.0164 344.029 36.3394C346.639 37.7274 349.277 31.8804 351.643 33.6204C366.72 44.7024 376.504 62.5644 376.504 82.7113Z" fill="#F5F8F9"/>
<path d="M294.808 25.463V52.266C294.808 56.468 291.398 59.877 287.196 59.877C282.994 59.877 279.585 56.467 279.585 52.266V33.623C284.244 30.1912 289.37 27.4434 294.808 25.463ZM323.224 7.611V52.265C323.224 56.467 319.814 59.876 315.612 59.876C311.41 59.876 308.001 56.466 308.001 52.265V7.611C308.001 3.409 311.411 0 315.612 0C319.813 0 323.224 3.41 323.224 7.611ZM351.641 33.623V52.266C351.641 56.468 348.231 59.877 344.03 59.877C339.829 59.877 336.418 56.467 336.418 52.266V25.463C341.855 27.4434 346.981 30.1912 351.641 33.623ZM372.08 105.546C369.86 111.029 366.852 116.157 363.149 120.769H268.076C264.372 116.157 261.364 111.029 259.145 105.546H372.08Z" fill="#E8EDF2"/>
<path d="M144.115 111.69H102.505C94.3781 111.69 87.7891 105.102 87.7891 96.9738C87.7891 88.8468 94.3771 82.2578 102.505 82.2578H144.115C152.242 82.2578 158.831 88.8458 158.831 96.9738C158.831 105.102 152.242 111.69 144.115 111.69Z" fill="#FFDA45"/>
<path d="M123.31 177.201C122.311 177.201 121.321 177.005 120.397 176.622C119.474 176.24 118.635 175.679 117.928 174.972C117.221 174.266 116.661 173.426 116.278 172.503C115.896 171.58 115.699 170.59 115.699 169.59V147.208C115.722 145.205 116.534 143.291 117.959 141.882C119.384 140.474 121.307 139.683 123.311 139.683C125.314 139.683 127.237 140.474 128.662 141.882C130.087 143.291 130.899 145.205 130.922 147.208V169.59C130.922 170.59 130.725 171.58 130.343 172.503C129.96 173.427 129.399 174.266 128.693 174.972C127.986 175.679 127.147 176.24 126.223 176.622C125.3 177.005 124.31 177.201 123.31 177.201ZM148.682 151.83C147.683 151.83 146.693 151.634 145.769 151.251C144.846 150.869 144.007 150.308 143.3 149.601C142.593 148.895 142.032 148.056 141.65 147.132C141.267 146.209 141.07 145.219 141.07 144.219V137.06C141.07 132.856 144.478 129.449 148.682 129.449C152.886 129.449 156.293 132.856 156.293 137.06V144.219C156.293 145.219 156.096 146.209 155.714 147.132C155.332 148.055 154.771 148.895 154.064 149.601C153.357 150.308 152.518 150.869 151.595 151.251C150.671 151.634 149.682 151.83 148.682 151.83ZM97.9391 151.83C96.9396 151.83 95.9498 151.634 95.0264 151.251C94.1029 150.869 93.2638 150.308 92.557 149.601C91.8503 148.895 91.2897 148.055 90.9072 147.132C90.5248 146.209 90.328 145.219 90.3281 144.219V137.06C90.3281 135.042 91.13 133.106 92.5573 131.678C93.9847 130.251 95.9206 129.449 97.9391 129.449C99.9577 129.449 101.894 130.251 103.321 131.678C104.748 133.106 105.55 135.042 105.55 137.06V144.219C105.55 146.238 104.748 148.173 103.321 149.601C101.893 151.028 99.9576 151.83 97.9391 151.83Z" fill="#FFCB3D"/>
<path d="M185.201 351.653H149.681C148.682 351.653 147.692 351.456 146.768 351.074C145.845 350.691 145.006 350.13 144.299 349.424C143.592 348.717 143.031 347.877 142.649 346.954C142.267 346.03 142.07 345.04 142.07 344.041V323.744C142.07 321.725 142.872 319.789 144.3 318.362C145.727 316.935 147.663 316.133 149.681 316.133C151.7 316.133 153.636 316.935 155.063 318.362C156.49 319.789 157.292 321.725 157.292 323.744V336.43H177.589V323.744C177.589 321.725 178.391 319.789 179.819 318.362C181.246 316.935 183.182 316.133 185.2 316.133C187.219 316.133 189.155 316.935 190.582 318.362C192.009 319.789 192.811 321.725 192.811 323.744V344.041C192.812 345.04 192.615 346.03 192.233 346.954C191.851 347.877 191.29 348.717 190.583 349.423C189.877 350.13 189.038 350.691 188.114 351.074C187.191 351.456 186.201 351.653 185.201 351.653ZM185.201 402.396H149.681C148.682 402.396 147.692 402.199 146.769 401.817C145.845 401.434 145.006 400.874 144.299 400.167C143.592 399.46 143.032 398.621 142.649 397.698C142.267 396.774 142.07 395.784 142.07 394.785V374.488C142.07 372.469 142.872 370.533 144.3 369.106C145.727 367.679 147.663 366.877 149.681 366.877C151.7 366.877 153.636 367.679 155.063 369.106C156.49 370.533 157.292 372.469 157.292 374.488V387.174H177.589V374.488C177.589 372.469 178.391 370.533 179.819 369.106C181.246 367.679 183.182 366.877 185.2 366.877C187.219 366.877 189.155 367.679 190.582 369.106C192.009 370.533 192.811 372.469 192.811 374.488V394.785C192.812 395.784 192.615 396.774 192.233 397.697C191.85 398.621 191.29 399.46 190.583 400.167C189.876 400.874 189.037 401.434 188.114 401.817C187.191 402.199 186.201 402.396 185.201 402.396Z" fill="#6A5D67"/>
<path d="M361.262 181.66H269.966C267.948 181.66 266.012 180.858 264.585 179.43C263.157 178.003 262.355 176.067 262.355 174.049C262.355 172.03 263.157 170.094 264.585 168.667C266.012 167.239 267.948 166.438 269.966 166.438H361.262C365.466 166.438 368.873 169.845 368.873 174.049C368.873 178.253 365.467 181.66 361.262 181.66Z" fill="#D9E1E8"/>
<path d="M368.875 174.049C368.874 176.068 368.072 178.004 366.644 179.431C365.217 180.858 363.281 181.66 361.263 181.66H321.379L320.547 166.438H361.263C363.281 166.438 365.217 167.241 366.644 168.668C368.072 170.095 368.874 172.031 368.875 174.049Z" fill="#CAD6E0"/>
<path d="M225.3 266.463C233.707 266.463 237.144 269.667 237.144 278.075C237.144 286.482 233.707 290.533 225.3 290.533L202.962 293.298H109.086C100.679 293.298 93.8633 286.482 93.8633 278.075C93.8633 269.668 100.679 262.852 109.086 262.852H202.962L225.3 266.463Z" fill="#F5F8F9"/>
<path d="M241.022 278.075C241.022 282.277 239.317 286.082 236.567 288.833C235.155 290.25 233.477 291.374 231.629 292.14C229.781 292.906 227.799 293.3 225.799 293.298H202.965V262.852H225.799C234.202 262.852 241.022 269.672 241.022 278.075Z" fill="#E8EDF2"/>
</svg>
