<svg width="408" height="432" viewBox="0 0 408 432" fill="none" xmlns="http://www.w3.org/2000/svg">
<path d="M407 343.216C407.002 344.302 406.685 345.364 406.089 346.271C405.492 347.178 404.642 347.89 403.644 348.318C402.646 348.746 401.545 348.871 400.476 348.677C399.408 348.484 398.42 347.981 397.635 347.231C393.189 342.973 387.678 337.84 381.265 332.194C384.337 333.313 388.002 331.117 388.002 327.452V78.1347C388.002 -4.35123 18.9979 -4.32428 18.9979 78.1347V327.034C18.9979 329.864 21.3827 331.709 23.7945 331.602C17.664 336.991 12.5575 341.949 8.66358 346.194C5.59158 349.535 0 347.285 0 342.758V68.218C0 -19.7921 381.076 -22.6485 405.733 59.6757C408.118 67.5983 406.541 54.5557 407 343.216Z" fill="#566DF9" fill-opacity="0.188235"/>
<path d="M379.513 331.104C326.185 280.16 78.0802 274.339 26.8397 330.161C24.0642 333.192 18.998 331.158 18.998 327.035V78.1489C18.998 -4.31005 387.988 -4.31005 387.988 78.1489V327.466C387.985 328.446 387.695 329.404 387.154 330.221C386.614 331.039 385.846 331.68 384.945 332.067C384.044 332.454 383.05 332.568 382.085 332.397C381.12 332.226 380.226 331.777 379.513 331.104Z" fill="#748BFD" fill-opacity="0.188235"/>
<path d="M199.854 244.333C220.645 244.333 237.5 230.917 237.5 214.368C237.5 197.818 220.645 184.402 199.854 184.402C179.063 184.402 162.209 197.818 162.209 214.368C162.209 230.917 179.063 244.333 199.854 244.333Z" fill="white"/>
<path opacity="0.6" d="M369.812 176.615L363.911 250.801C363.345 257.349 360.003 260.609 356.217 258.238C347.413 252.773 338.196 248.002 328.65 243.969C324.298 242.083 320.162 235.562 319.623 229.202L313.694 156.983C313.155 150.637 317.655 146.541 323.584 148.077C336.802 151.527 349.386 155.744 361.283 160.662C366.632 162.844 370.365 170.08 369.812 176.615Z" fill="white"/>
<path opacity="0.7" d="M220.322 82.2429L213.855 100.19C212.265 104.488 207.172 106.981 202.469 106.091C173.194 100.378 142.884 103.429 115.335 114.863C114.372 115.293 113.331 115.52 112.276 115.529C111.222 115.537 110.177 115.328 109.207 114.912C108.238 114.497 107.365 113.886 106.643 113.117C105.921 112.348 105.367 111.437 105.014 110.443L98.5469 92.4963C96.957 88.1982 99.8404 82.7683 105.122 80.6799C139.336 67.2748 176.735 64.2246 212.669 71.9085C218.503 73.1481 221.912 77.9448 220.322 82.2429ZM97.0918 179.132C100.029 210.485 85.4101 237.473 64.4046 237.473C43.3857 237.473 28.7802 210.485 31.7175 179.132C34.6547 147.738 49.2737 123.391 64.4046 123.351C79.5356 123.391 94.1545 147.738 97.0918 179.132Z" fill="white"/>
<path opacity="0.3" d="M388.002 295.884V327.453C388.001 328.435 387.712 329.396 387.171 330.216C386.629 331.037 385.859 331.68 384.956 332.067C384.053 332.454 383.056 332.568 382.088 332.395C381.121 332.221 380.226 331.768 379.513 331.09C326.185 280.16 78.0802 274.339 26.8397 330.147C24.0642 333.192 18.998 331.158 18.998 327.048V293.903C79.926 239.402 326.643 245.263 388.002 295.884Z" fill="#5564D7"/>
<path opacity="0.5" d="M388.002 295.884V302.472C326.629 251.852 79.926 245.977 18.998 300.505V293.903C79.926 239.402 326.643 245.263 388.002 295.884Z" fill="#6D4EEA"/>
<path opacity="0.7" d="M366.741 63.2611C363.595 81.2178 360.496 99.1828 357.444 117.156C356.676 121.643 352.836 124 348.807 122.545C326.989 114.688 304.277 109.578 281.196 107.333C278.914 107.038 276.788 106.017 275.13 104.421C273.473 102.824 272.374 100.737 271.994 98.4678C269.744 80.3861 267.534 62.291 265.378 44.1823C264.812 39.6686 268.935 36.1385 274.527 36.4754C303.765 38.2674 332.113 43.6164 358.966 52.1049C364.113 53.7217 367.549 58.7878 366.741 63.2611Z" fill="white"/>
<path opacity="0.7" d="M360.246 64.0413C357.441 82.0529 354.683 100.072 351.973 118.098C351.272 122.598 347.499 125.023 343.471 123.649C321.65 116.214 298.988 111.53 276.008 109.704C273.724 109.447 271.583 108.462 269.901 106.894C268.22 105.327 267.087 103.26 266.671 101C264.084 82.9584 261.551 64.9171 259.045 46.8624C258.398 42.3487 262.427 38.7378 268.005 38.9803C297.162 40.2333 325.457 45.0569 352.31 53.0199C357.457 54.5424 360.973 59.5411 360.259 64.0413H360.246Z" fill="#8FABFE"/>
<path opacity="0.7" d="M351.366 120.185C350.765 121.68 349.601 122.88 348.124 123.525C346.647 124.17 344.976 124.209 343.47 123.634C321.649 116.204 298.987 111.524 276.008 109.702C273.726 109.444 271.588 108.46 269.907 106.896C268.226 105.331 267.092 103.269 266.67 101.012C264.084 82.9568 261.537 64.9156 259.044 46.8473C258.438 42.684 261.847 39.2751 266.805 38.9922C266.482 40.353 265.983 36.5669 273.03 95.4873C273.596 100.015 277.746 103.922 282.273 104.393C322.869 108.489 348.267 119.497 351.366 120.171V120.185Z" fill="#6F93F1"/>
<path opacity="0.7" d="M216.67 78.6061L210.202 96.5531C208.612 100.851 203.519 103.344 198.831 102.455C169.551 96.7389 139.236 99.7901 111.683 111.226C110.721 111.655 109.681 111.88 108.628 111.887C107.574 111.894 106.531 111.684 105.563 111.269C104.595 110.854 103.724 110.243 103.003 109.475C102.282 108.708 101.728 107.799 101.375 106.807L94.9081 88.8596C93.3182 84.5615 96.1881 79.1181 101.483 77.0432C135.697 63.6381 173.097 60.5879 209.03 68.2718C214.864 69.4979 218.273 74.308 216.67 78.6061Z" fill="#8FABFE"/>
<path opacity="0.7" d="M210.769 95.0291L210.23 96.5516C208.613 100.85 203.52 103.342 198.831 102.44C169.55 96.7323 139.236 99.788 111.683 111.224C110.72 111.653 109.679 111.877 108.625 111.884C107.572 111.89 106.528 111.679 105.56 111.262C104.592 110.846 103.72 110.234 103 109.465C102.28 108.695 101.727 107.785 101.376 106.792L94.9084 88.8582C93.6149 85.355 95.2722 81.1243 98.7753 78.5508C98.3699 80.0332 98.431 81.6046 98.9505 83.051L105.418 101.011C105.772 102.004 106.328 102.913 107.05 103.681C107.771 104.449 108.644 105.06 109.613 105.475C110.582 105.89 111.627 106.1 112.681 106.092C113.735 106.085 114.776 105.86 115.739 105.431C143.286 93.9931 173.597 90.9373 202.873 96.6459C205.615 97.1482 208.445 96.5687 210.769 95.0291Z" fill="#6F93F1"/>
<path opacity="0.7" d="M365.824 172.61L359.909 246.81C359.356 253.345 356.001 256.605 352.229 254.234C343.424 248.769 334.207 243.998 324.661 239.965C320.296 238.092 316.173 231.571 315.621 225.212L309.692 152.993C309.153 146.633 313.654 142.55 319.595 144.073C332.8 147.522 345.384 151.753 357.281 156.657C362.644 158.854 366.376 166.089 365.824 172.61Z" fill="#8FABFE"/>
<path opacity="0.7" d="M359.667 248.683C358.67 253.952 355.625 256.363 352.23 254.248C343.424 248.78 334.208 244.005 324.662 239.966C320.297 238.093 316.174 231.572 315.622 225.212L309.707 152.993C309.168 146.971 313.183 142.982 318.653 143.885C317.737 146.607 317.697 141.797 324.11 220.308C324.662 226.654 328.799 233.189 333.151 235.062C342.582 239.063 351.435 243.631 359.667 248.67V248.683Z" fill="#6F93F1"/>
<path opacity="0.7" d="M92.8342 179.133C95.7714 210.486 81.166 237.474 60.147 237.474C39.1415 237.474 24.5361 210.486 27.4733 179.133C30.3971 147.739 45.0161 123.392 60.147 123.352C75.2914 123.392 89.9104 147.739 92.8342 179.133Z" fill="#8FABFE"/>
<path opacity="0.7" d="M60.1468 237.473C53.0462 237.473 46.6731 234.388 41.4453 229.079C45.2179 231.302 49.3948 232.515 53.8546 232.515C74.8735 232.515 89.479 205.527 86.5417 174.174C84.5611 153.007 77.2853 135.046 68.0828 125.574C80.0878 132.257 90.4222 153.303 92.8339 179.132C95.7712 210.485 81.1523 237.473 60.1468 237.473Z" fill="#6F93F1"/>
<path opacity="0.3" d="M405.734 59.6757L387.598 73.3919C374.61 0.633963 62.6131 -2.59971 23.1217 63.7178C15.3205 62.0874 7.60004 60.4841 1.38867 59.2714C26.3419 -19.8864 381.953 -19.7517 405.734 59.6757Z" fill="#8FABFE"/>
<path d="M354.897 403.215C354.897 418.737 284.457 431.16 197.7 431.16C110.943 431.16 40.5156 418.737 40.5156 403.215C40.5156 402.137 40.9603 401.046 41.7148 399.806L42.3076 398.863L60.2546 352.918L74.0247 364.869C74.0247 364.869 77.3123 366.27 81.2062 368.13H81.3409C141.999 356.394 244.022 355.896 306.607 366.89L335.023 352.918L353.119 398.863C354.212 400.056 354.833 401.598 354.897 403.215Z" fill="#31445B"/>
<path d="M354.897 403.215C354.897 418.737 284.457 431.16 197.7 431.16C110.943 431.16 40.5156 418.737 40.5156 403.215C40.5156 402.137 40.9603 401.046 41.7148 399.806L42.3076 398.863L60.2546 352.918L74.0247 364.869C74.0247 364.869 77.3123 366.27 81.2062 368.13H81.3409C141.999 356.394 244.022 355.896 306.607 366.89L335.023 352.918L353.119 398.863C354.212 400.056 354.833 401.598 354.897 403.215Z" fill="#31445B"/>
<path opacity="0.6" d="M112.6 363.387L89.156 423.48C59.1501 418.427 40.543 411.192 40.543 403.256C40.543 402.11 41.0011 401.073 41.6882 399.806L42.2541 398.89L60.3089 352.918L73.9847 364.869C73.9847 364.869 77.3127 366.257 81.22 368.089C87.3236 367.065 95.4617 365.448 112.6 363.387ZM113.853 363.252C113.516 363.387 113.045 363.387 112.6 363.387L112.937 362.457L113.853 363.252Z" fill="#7F8EB2"/>
<path d="M354.855 403.255C354.855 411.986 332.678 419.693 297.97 424.867L273.38 362.443C284.499 363.559 295.576 365.055 306.593 366.93L334.968 352.904L353.131 398.876C354.189 400.091 354.797 401.645 354.855 403.255ZM273.38 362.443C265.565 361.635 257.4 361.082 248.898 360.503L268.772 350.734L273.38 362.443Z" fill="#1D2943"/>
<path d="M335.32 354.36C335.32 369.343 273.638 381.335 197.754 381.335C121.722 381.335 60.0527 369.343 60.0527 354.36C60.0527 339.378 121.722 327.211 197.754 327.211C273.638 327.211 335.32 339.378 335.32 354.36Z" fill="#4C5C75"/>
<path d="M326.266 354.506C326.266 366.673 268.639 376.414 197.754 376.414C126.707 376.414 69.0801 366.673 69.0801 354.506C69.0801 342.339 126.707 332.477 197.754 332.477C268.639 332.477 326.266 342.339 326.266 354.506Z" fill="#111D33"/>
<path d="M326.266 354.506C326.266 358.238 320.849 361.741 311.31 364.813H311.283C264.058 379.931 133.04 380.443 84.1436 364.84C74.5234 361.755 69.0801 358.252 69.0801 354.506C69.0801 349.103 80.5058 344.131 99.4498 340.291C174.97 324.958 326.266 333.945 326.266 354.506Z" fill="#111D33"/>
<path d="M326.266 354.508C326.266 355.882 325.538 357.216 324.15 358.509C313.142 348.269 260.676 340.482 197.754 340.482C134.697 340.482 82.2034 348.269 71.2089 358.509C69.8077 357.216 69.0801 355.882 69.0801 354.508C69.0801 342.341 126.707 332.465 197.754 332.465C268.639 332.465 326.266 342.341 326.266 354.508Z" fill="#31445B"/>
<path d="M311.701 365.675C311.634 365.486 311.526 365.271 311.432 365.082L311.701 365.688V365.675Z" fill="#F45170"/>
<path d="M311.43 365.069L311.295 364.799C264.057 379.93 133.039 380.456 84.1426 364.84C84.3177 364.489 84.6007 364.112 84.8163 363.789L97.8453 342.918L107.856 351.272C107.856 351.272 110.241 352.269 113.071 353.562H113.178C157.264 345.357 231.221 344.993 276.789 352.7L297.431 342.918L310.581 363.789C310.864 364.126 311.12 364.462 311.309 364.813C311.363 364.894 311.39 364.988 311.43 365.082V365.069Z" fill="#FFB961"/>
<path d="M311.282 364.815C300.638 368.224 284.86 371.094 265.714 373.115L252.2 351.625L248.252 353.511V349.199C258.761 350.115 268.422 351.301 276.776 352.729L297.39 342.961L310.568 363.805C310.843 364.114 311.082 364.453 311.282 364.815ZM148.156 349.118V359.87L137.66 351.086L124.321 372.509C107.6 370.542 93.7895 367.928 84.1424 364.829L97.8451 342.961L107.816 351.301C107.816 351.301 110.241 352.298 113.084 353.592C117.611 352.905 126.692 350.924 148.156 349.118Z" fill="#F3A250"/>
<path d="M297.608 344.023C297.608 354.802 252.875 363.559 197.768 363.559C142.526 363.559 97.6582 354.802 97.6582 344.023C97.6582 336.612 118.138 330.145 148.454 326.776C183.324 322.842 226.494 323.65 255.435 327.854C280.9 331.492 297.608 337.42 297.608 344.023Z" fill="#FFD475"/>
<path d="M270.565 336.938V343.082C270.565 350.116 237.905 355.734 197.713 355.734C157.453 355.734 124.793 350.116 124.793 343.082V336.938H129.064V338.784C152.104 327.601 243.227 327.574 266.294 338.784V336.938H270.565Z" fill="#5EC363"/>
<path d="M270.565 336.977C270.565 343.997 237.905 349.615 197.726 349.615C157.44 349.615 124.793 343.997 124.793 336.977C124.793 329.957 157.453 324.258 197.726 324.258C237.905 324.258 270.565 329.957 270.565 336.977Z" fill="#78E75A"/>
<path opacity="0.3" d="M251.675 333.678C251.675 338.878 227.476 343.042 197.713 343.042C167.869 343.042 143.684 338.878 143.684 333.678C143.684 328.477 167.869 324.246 197.713 324.246C227.49 324.246 251.675 328.477 251.675 333.678Z" fill="white"/>
<path opacity="0.2" d="M255.434 327.857L203.426 339.175C203.426 339.175 203.695 330.551 203.83 324.353C222.963 324.488 240.613 325.701 255.434 327.857ZM197.093 324.219L194.533 338.905L148.453 326.779C162.735 325.162 179.443 324.219 197.093 324.219Z" fill="#111D33"/>
<path d="M217.318 340.658C217.318 343.864 178.244 343.878 178.244 340.658C178.244 339.445 187.002 338.367 197.781 338.367C208.56 338.367 217.318 339.445 217.318 340.658Z" fill="#50B069"/>
<path d="M294.157 401.005C322.223 396.451 314.152 403.349 298.981 406.044C289.01 407.823 279.767 407.135 279.309 405.613C278.811 404.063 285.777 402.406 294.157 401.005ZM246.016 409.466C230.588 408.173 220.847 403.888 223.582 402.19C226.236 400.452 237.649 401.14 249.613 402.083C261.578 403.12 271.643 404.265 272.289 406.327C273.031 408.335 261.443 410.773 246.016 409.466Z" fill="white"/>
<path d="M135.424 212.158V225.214C135.424 225.214 141.487 223.88 141.918 220.889C142.322 217.884 141.42 210.137 141.42 210.137L135.424 212.158ZM262.386 213.519L262.4 225.052C262.4 225.052 257.711 226.561 256.458 225.052C255.191 223.543 255.744 217.588 256.202 216.294C256.66 214.987 257.509 213.559 257.751 213.519C258.007 213.478 262.386 213.519 262.386 213.519Z" fill="#DF3260"/>
<path d="M246.192 168.892C233.392 154.637 217.237 147.469 198.131 147.684C178.729 147.913 162.776 155.93 150.138 170.576C133.902 189.426 130.547 218.462 142.849 240.316C158.842 268.759 175.428 296.879 191.893 325.052C192.917 326.777 194.965 328.286 196.878 329C200.61 330.414 203.925 328.717 206.35 324.648C223.02 296.335 239.449 267.882 255.637 239.292C266.295 220.361 265.244 190.14 246.192 168.892ZM198.765 244.372C194.014 244.475 189.29 243.625 184.873 241.872C180.456 240.119 176.435 237.499 173.047 234.167C169.66 230.834 166.974 226.857 165.149 222.469C163.325 218.082 162.397 213.373 162.423 208.621C162.448 203.869 163.425 199.17 165.296 194.802C167.167 190.434 169.895 186.485 173.318 183.189C176.741 179.892 180.789 177.315 185.225 175.609C189.66 173.904 194.392 173.104 199.142 173.257C208.404 173.555 217.185 177.457 223.615 184.131C230.044 190.805 233.615 199.724 233.568 208.992C233.521 218.259 229.858 227.142 223.361 233.749C216.863 240.357 208.03 244.168 198.765 244.372Z" fill="#FA5F7F"/>
<path d="M249.95 240.101C249.869 242.472 248.764 248.023 247.524 253.601C245.908 260.972 244.048 268.355 244.048 268.355C244.048 268.355 237.716 281.869 229.092 287.757C223.434 291.611 215.134 295.612 208.639 295.976C204.638 296.178 181.665 287.542 175.346 278.056C169.013 268.571 154.906 260.972 150.891 249.748C146.89 238.511 150.891 208.923 151.74 204.288C152.077 202.428 157.453 202.294 163.907 202.806C163.037 207.894 163.284 213.111 164.633 218.095C165.982 223.078 168.399 227.708 171.717 231.663C175.035 235.618 179.174 238.804 183.847 240.998C188.52 243.193 193.614 244.344 198.777 244.372C222.989 244.453 240.491 220.685 232.65 197.43C238.12 199.949 242.89 203.035 243.846 206.188C246.164 213.76 248.697 215.889 249.95 225.212C251.216 234.536 250.165 234.631 249.95 240.101Z" fill="#CC104A"/>
<path d="M255.637 250.448C244.858 269.594 218.692 315.041 206.35 335.803C203.925 339.873 200.61 341.57 196.878 340.155C194.841 339.399 193.096 338.017 191.893 336.208C175.428 308.034 158.855 279.915 142.849 251.458C130.534 229.617 133.889 200.568 150.138 181.732C162.763 167.086 178.729 159.056 198.131 158.84C217.237 158.638 233.405 165.793 246.192 180.048C265.271 201.336 266.295 231.517 255.637 250.448ZM163.396 219.903C163.387 224.572 164.298 229.198 166.077 233.515C167.856 237.832 170.467 241.757 173.763 245.065C180.418 251.746 189.455 255.509 198.886 255.527C208.316 255.545 217.367 251.816 224.048 245.16C230.729 238.505 234.492 229.468 234.51 220.038C234.528 210.607 230.799 201.556 224.143 194.875C217.488 188.194 208.451 184.431 199.02 184.413C189.59 184.395 180.539 188.124 173.858 194.78C167.177 201.436 163.414 210.473 163.396 219.903Z" fill="#E93565"/>
<path d="M55.7804 82.6357L47.8175 89.2782L54.5139 81.3422C55.3223 80.3721 54.5408 78.7553 53.3821 78.6475L34.4785 76.9363L53.409 75.3599C54.5812 75.2656 55.3627 73.6353 54.5543 72.6652L47.9252 64.7157L55.8343 71.3986C56.7909 72.2205 58.4213 71.4525 58.529 70.2803L60.2537 51.3633L61.8301 70.2938C61.9244 71.466 63.5413 72.2475 64.5248 71.4256L72.4743 64.7965L65.7914 72.7191C64.9695 73.6892 65.7509 75.306 66.9097 75.4138L85.8133 77.1519L66.8962 78.7283C65.724 78.8227 64.9425 80.4395 65.7509 81.4231L72.38 89.386L64.4709 82.6761C63.5008 81.8677 61.884 82.6357 61.7762 83.8079L60.0381 102.738L58.4751 83.7944C58.3674 82.6088 56.7505 81.8273 55.7804 82.6357ZM153.424 200.571C147.401 219.542 152.993 238.189 163.26 254.533C149.8 240.79 143.588 218.019 153.424 200.571ZM222.261 173.246C235.816 176.305 246.864 187.865 248.818 201.676C242.97 188.93 234.468 180.077 222.261 173.246ZM41.4579 161.511C40.2183 153.238 44.5299 143.496 52.6545 140.209C46.9956 146.568 44.1526 153.426 41.4579 161.511ZM188.766 72.49C196.769 70.1321 206.915 71.6277 211.213 77.0576C204.207 73.9721 197.079 73.0694 188.766 72.4765V72.49ZM336.963 56.0252C344.912 58.5043 352.552 65.349 353.131 72.2475C349.008 65.8206 343.565 61.1182 336.963 56.0252ZM348.388 162.225C356.041 165.485 362.94 173.071 362.819 179.997C359.369 173.179 354.438 167.951 348.375 162.211L348.388 162.225Z" fill="white"/>
</svg>
