<svg width="404" height="461" viewBox="0 0 404 461" fill="none" xmlns="http://www.w3.org/2000/svg">
<g clip-path="url(#clip0_695_220)">
<path d="M398.848 91.392L204.8 0.768C202.752 -0.256 200.192 -0.256 198.144 0.768L4.608 91.392C2.048 92.416 0 95.488 0 98.56V181.504C0 329.984 72.704 431.872 200.192 460.544H203.264C330.24 431.36 403.456 329.984 403.456 181.504V98.56C403.456 95.488 401.92 92.928 398.848 91.392ZM308.224 390.912C281.6 415.488 248.32 432.896 209.408 443.136V365.312H225.28C229.376 365.312 232.96 361.728 232.96 357.632V340.224C241.664 337.664 249.344 334.592 257.024 329.984L269.312 342.272C272.384 345.344 276.992 345.344 280.064 342.272L291.328 331.008L308.224 347.904V390.912ZM123.392 342.272C126.464 345.344 131.584 345.344 134.144 342.272L146.432 329.984C154.112 334.08 162.304 337.664 170.496 340.224V357.632C170.496 361.728 174.08 365.312 178.176 365.312H194.048V443.648C155.136 433.408 122.368 415.488 95.232 391.424V348.416L112.128 331.52L123.392 342.272ZM297.984 252.672C295.424 263.424 291.328 273.664 285.184 283.392C283.136 286.464 283.648 290.56 286.208 293.12L296.96 303.872L274.432 326.4L263.68 315.648C261.12 313.088 257.024 312.576 253.952 314.624C244.736 320.768 233.984 324.864 223.232 327.424C219.648 328.448 217.088 331.52 217.088 335.104V350.464H185.344V335.104C185.344 331.52 182.784 328.448 179.2 327.424C168.448 324.864 157.696 320.768 148.48 314.624C145.408 312.576 141.312 313.088 138.752 315.648L128 326.4L105.472 303.872L116.224 293.12C118.784 290.56 119.296 286.464 117.248 283.392C111.104 274.176 107.008 263.424 104.448 252.672C103.424 249.088 100.352 246.528 96.768 246.528H81.408V214.784H96.768C100.352 214.784 103.424 212.224 104.448 208.64C107.008 197.888 111.104 187.136 117.248 177.92C119.296 174.848 118.784 170.752 116.224 168.192L105.472 157.44L128 134.912L138.752 145.664C141.312 148.224 145.408 148.736 148.48 146.688C157.696 140.544 168.448 136.448 179.2 133.888C182.784 132.864 185.344 129.792 185.344 126.208V110.848H217.088V126.208C217.088 129.792 219.648 132.864 223.232 133.888C233.984 136.448 244.736 140.544 253.952 146.688C257.024 148.736 261.12 148.224 263.68 145.664L274.432 134.912L296.96 157.44L286.208 168.192C283.648 170.752 283.136 174.848 285.184 177.92C291.328 187.136 295.424 197.888 297.984 208.64C299.008 212.224 302.08 214.784 305.664 214.784H321.024V246.528H305.664C301.568 246.528 298.496 249.088 297.984 252.672ZM95.232 65.792L194.048 19.712V96H178.176C174.08 96 170.496 99.584 170.496 103.68V121.088C161.792 123.648 154.112 126.72 146.432 131.328L134.144 119.04C131.072 115.968 126.464 115.968 123.392 119.04L112.128 130.304L95.232 113.408V65.792ZM280.064 119.04C276.992 115.968 272.384 115.968 269.312 119.04L257.024 131.328C249.344 127.232 241.152 123.648 232.96 121.088V103.68C232.96 99.584 229.376 96 225.28 96H209.408V20.224L308.224 66.304V113.92L291.328 130.816L280.064 119.04ZM15.36 181.504V103.168L79.872 72.96V116.48C79.872 118.528 80.896 120.576 81.92 122.112L100.864 141.056L89.6 152.32C88.064 153.856 87.552 155.904 87.552 157.952C87.552 160 88.576 162.048 89.6 163.584L101.888 175.872C97.792 183.552 94.208 191.744 91.648 199.936H74.24C70.144 199.936 66.56 203.52 66.56 207.616V254.72C66.56 258.816 70.144 262.4 74.24 262.4H91.136C93.696 271.104 96.768 278.784 101.376 286.464L89.088 298.752C87.552 300.288 87.04 302.336 87.04 304.384C87.04 306.432 88.064 308.48 89.088 310.016L100.352 321.28L81.408 340.224C79.872 341.76 79.36 343.808 79.36 345.856V376.576C37.888 328.448 15.36 262.4 15.36 181.504ZM388.096 181.504C388.096 262.4 365.568 328.448 323.584 375.552V344.832C323.584 342.784 322.56 340.736 321.536 339.2L302.592 320.256L313.856 308.992C315.392 307.456 315.904 305.408 315.904 303.36C315.904 301.312 314.88 299.264 313.856 297.728L301.568 285.44C305.664 277.76 309.248 269.568 311.808 261.376H329.216C333.312 261.376 336.896 257.792 336.896 253.696V206.592C336.896 202.496 333.312 198.912 329.216 198.912H311.808C309.248 190.208 306.176 182.528 301.568 174.848L313.856 162.56C315.392 161.024 315.904 158.976 315.904 156.928C315.904 154.88 314.88 152.832 313.856 151.296L302.592 140.032L321.536 121.088C323.072 119.552 323.584 117.504 323.584 115.456V71.936L388.096 102.144V181.504Z" fill="white"/>
<path d="M187.392 185.6C186.368 183.04 183.296 180.992 180.224 180.992C177.152 180.992 174.592 183.04 173.056 185.6L138.24 267.008C136.704 271.104 138.24 275.2 142.336 277.248C143.36 277.76 144.384 277.76 145.408 277.76C148.48 277.76 151.04 276.224 152.576 273.152L160.256 255.232H200.704L208.384 273.152C209.92 277.248 214.528 278.784 218.624 277.248C222.72 275.712 224.256 271.104 222.72 267.008L187.392 185.6ZM166.912 239.872L180.736 208.128L194.56 239.872H166.912ZM254.976 180.992C250.88 180.992 247.296 184.576 247.296 188.672V270.08C247.296 274.176 250.88 277.76 254.976 277.76C259.072 277.76 262.656 274.176 262.656 270.08V188.672C262.656 184.576 259.072 180.992 254.976 180.992Z" fill="white"/>
</g>
<defs>
<clipPath id="clip0_695_220">
<rect width="404" height="461" fill="white"/>
</clipPath>
</defs>
</svg>
