<svg width="512" height="467" viewBox="0 0 512 467" fill="none" xmlns="http://www.w3.org/2000/svg">
<path d="M7 417.281H505V459.281H7V417.281Z" fill="#995A4D"/>
<path d="M46.748 375.281H465.248V417.281H46.748V375.281Z" fill="#B37059"/>
<path d="M93.248 202.781H178.748V375.281H93.248V202.781Z" fill="#FFC080"/>
<path d="M70.748 169.031H201.248V202.783H70.748V169.031Z" fill="#B37059"/>
<path d="M54.248 135.281H217.748V169.033H54.248V135.281Z" fill="#995A4D"/>
<path d="M418.752 375.281H333.252V202.781H418.752V375.281Z" fill="#FFC080"/>
<path d="M441.252 202.779H310.752V169.027H441.252V202.779Z" fill="#B37059"/>
<path d="M457.752 169.033H294.252V135.281H457.752V169.033Z" fill="#995A4D"/>
<path d="M178.748 251.438L155.568 254.562C153.888 254.788 152.347 255.616 151.231 256.892C150.115 258.169 149.5 259.806 149.5 261.501V276.945L139.016 282.945C137.403 283.872 136.224 285.4 135.739 287.196C135.254 288.991 135.501 290.905 136.428 292.518C137.354 294.13 138.882 295.309 140.678 295.794C142.473 296.279 144.387 296.032 146 295.105L160 287.074C161.068 286.461 161.956 285.576 162.574 284.51C163.191 283.444 163.516 282.234 163.516 281.001V267.622L178.764 265.566L178.748 251.438ZM384.376 318.014L369.044 324.217L360.076 308.53C359.599 307.696 358.957 306.969 358.188 306.394L333.248 287.766V305.238L348.644 316.742L359.92 336.478C360.759 337.949 362.104 339.066 363.705 339.62C365.306 340.175 367.053 340.13 368.624 339.493L389.624 330.993C390.494 330.662 391.289 330.16 391.963 329.518C392.637 328.875 393.176 328.104 393.548 327.25C393.921 326.397 394.119 325.477 394.132 324.546C394.144 323.615 393.971 322.691 393.622 321.827C393.272 320.964 392.754 320.179 392.098 319.518C391.442 318.858 390.66 318.335 389.799 317.98C388.938 317.625 388.015 317.446 387.083 317.452C386.152 317.459 385.232 317.647 384.376 318.014Z" fill="#E69F6E"/>
<path d="M383.48 7L368 45L333.248 60.5L322 34L297 25.5V7H93.248V51.5H116L127 76.5H154.5L142.5 98H93.248V135.28H178.748C178.749 120.362 184.676 106.055 195.225 95.5064C205.774 84.958 220.082 79.032 235 79.032H277C291.918 79.032 306.225 84.9581 316.773 95.5067C327.322 106.055 333.248 120.362 333.248 135.28H418.748V7H383.48Z" fill="#FFC080"/>
<path d="M135.5 410.281H115.5C113.643 410.281 111.863 411.019 110.55 412.331C109.238 413.644 108.5 415.425 108.5 417.281C108.5 419.138 109.238 420.918 110.55 422.231C111.863 423.544 113.643 424.281 115.5 424.281H135.5C137.357 424.281 139.137 423.544 140.45 422.231C141.763 420.918 142.5 419.138 142.5 417.281C142.5 415.425 141.763 413.644 140.45 412.331C139.137 411.019 137.357 410.281 135.5 410.281Z" fill="black"/>
<path d="M505 410.28H472.248V375.28C472.248 373.424 471.511 371.643 470.198 370.33C468.885 369.018 467.105 368.28 465.248 368.28H425.748V209.78H441.248C442.167 209.781 443.078 209.6 443.927 209.248C444.777 208.897 445.549 208.381 446.199 207.731C446.849 207.081 447.365 206.309 447.716 205.459C448.068 204.61 448.249 203.699 448.248 202.78V176.032H457.748C459.605 176.032 461.385 175.295 462.698 173.982C464.011 172.669 464.748 170.889 464.748 169.032V135.28C464.748 133.423 464.011 131.643 462.698 130.33C461.385 129.017 459.605 128.28 457.748 128.28H425.748V110.14C425.748 108.283 425.011 106.503 423.698 105.19C422.385 103.877 420.605 103.14 418.748 103.14C416.891 103.14 415.111 103.877 413.798 105.19C412.485 106.503 411.748 108.283 411.748 110.14V128.28H339.864C338.123 112.82 330.753 98.5417 319.159 88.1678C307.564 77.7939 292.558 72.0502 277 72.032H235C219.442 72.0502 204.436 77.7939 192.841 88.1678C181.247 98.5417 173.877 112.82 172.136 128.28H100.248V105H142.5C143.747 104.999 144.971 104.665 146.046 104.032C147.121 103.399 148.007 102.49 148.612 101.4L160.612 79.9C161.204 78.8349 161.507 77.6339 161.493 76.4155C161.478 75.1972 161.146 74.0038 160.528 72.9533C159.911 71.9028 159.03 71.0317 157.973 70.426C156.915 69.8204 155.718 69.5012 154.5 69.5H131.568L122.408 48.7C121.863 47.4532 120.967 46.392 119.829 45.6461C118.691 44.9002 117.361 44.502 116 44.5H100.248V14H290V25.5C290 26.9617 290.458 28.3866 291.309 29.5752C292.159 30.7637 293.361 31.6564 294.744 32.128L316.78 39.62L326.804 63.22C327.168 64.0753 327.699 64.8495 328.366 65.4976C329.032 66.1456 329.821 66.6546 330.686 66.9949C331.551 67.3351 332.476 67.4999 333.405 67.4795C334.335 67.459 335.251 67.2539 336.1 66.876L370.852 51.376C372.5 50.6393 373.801 49.2954 374.484 47.624L388.188 13.984H411.748V60.14C411.748 61.9965 412.485 63.777 413.798 65.0897C415.111 66.4025 416.891 67.14 418.748 67.14C420.605 67.14 422.385 66.4025 423.698 65.0897C425.011 63.777 425.748 61.9965 425.748 60.14V7C425.749 6.0806 425.568 5.17011 425.216 4.32059C424.865 3.47108 424.349 2.6992 423.699 2.04908C423.049 1.39897 422.277 0.88337 421.427 0.531774C420.578 0.180177 419.667 -0.000524679 418.748 1.14427e-06H383.48C382.088 -0.000716003 380.728 0.413771 379.573 1.19045C378.418 1.96713 377.52 3.07069 376.996 4.36L362.596 39.752L336.928 51.204L328.464 31.264C328.079 30.3565 327.506 29.5407 326.784 28.87C326.062 28.1993 325.206 27.6888 324.272 27.372L304 20.484V7C304.001 6.0806 303.82 5.17011 303.468 4.32059C303.117 3.47108 302.601 2.6992 301.951 2.04908C301.301 1.39897 300.529 0.88337 299.679 0.531774C298.83 0.180177 297.919 -0.000524679 297 1.14427e-06H93.248C91.3915 1.14427e-06 89.611 0.737498 88.2983 2.05025C86.9855 3.36301 86.248 5.14349 86.248 7V51.5C86.2491 53.3562 86.9869 55.1361 88.2994 56.4486C89.6119 57.7611 91.3918 58.4989 93.248 58.5H111.432L120.592 79.3C121.138 80.5429 122.034 81.6002 123.17 82.343C124.307 83.0859 125.634 83.4823 126.992 83.484H142.568L138.4 91H93.248C91.3915 91 89.611 91.7375 88.2983 93.0503C86.9855 94.363 86.248 96.1435 86.248 98V128.28H54.248C52.3918 128.281 50.6119 129.019 49.2994 130.331C47.9869 131.644 47.2491 133.424 47.248 135.28V169.032C47.2491 170.888 47.9869 172.668 49.2994 173.981C50.6119 175.293 52.3918 176.031 54.248 176.032H63.748V202.78C63.748 204.637 64.4855 206.417 65.7983 207.73C67.111 209.043 68.8915 209.78 70.748 209.78H86.248V368.28H46.748C44.8918 368.281 43.1119 369.019 41.7994 370.331C40.4869 371.644 39.7491 373.424 39.748 375.28V410.28H7C5.14349 410.28 3.36301 411.018 2.05025 412.33C0.737499 413.643 1.14427e-06 415.424 1.14427e-06 417.28V459.28C-0.000524679 460.199 0.180177 461.11 0.531773 461.959C0.88337 462.809 1.39897 463.581 2.04908 464.231C2.6992 464.881 3.47108 465.397 4.32059 465.748C5.17011 466.1 6.0806 466.281 7 466.28H505C505.919 466.281 506.83 466.1 507.679 465.748C508.529 465.397 509.301 464.881 509.951 464.231C510.601 463.581 511.117 462.809 511.468 461.959C511.82 461.11 512.001 460.199 512 459.28V417.28C512 415.424 511.262 413.643 509.95 412.33C508.637 411.018 506.857 410.28 505 410.28ZM411.748 368.28H340.248V310.464L348.648 316.736L359.924 336.472C360.764 337.943 362.109 339.06 363.71 339.615C365.31 340.169 367.058 340.124 368.628 339.488L389.628 330.988C390.498 330.657 391.294 330.155 391.968 329.512C392.642 328.869 393.181 328.099 393.553 327.245C393.925 326.391 394.123 325.472 394.136 324.541C394.149 323.61 393.975 322.685 393.626 321.822C393.277 320.958 392.759 320.173 392.103 319.513C391.446 318.852 390.665 318.329 389.803 317.974C388.942 317.619 388.019 317.44 387.088 317.447C386.157 317.453 385.236 317.645 384.38 318.012L369.048 324.216L360.08 308.528C359.604 307.694 358.961 306.967 358.192 306.392L340.252 292.992V209.78H411.752L411.748 368.28ZM434.248 195.78H317.748V176.032H434.248V195.78ZM418.748 142.28H450.748V162.032H301.248V142.28H418.748ZM235 86.032H277C288.837 86.0521 300.272 90.3323 309.212 98.0898C318.153 105.847 324.003 116.564 325.692 128.28H294.248C292.392 128.281 290.612 129.019 289.299 130.331C287.987 131.644 287.249 133.424 287.248 135.28V169.032C287.249 170.888 287.987 172.668 289.299 173.981C290.612 175.293 292.392 176.031 294.248 176.032H303.748V202.78C303.748 204.637 304.485 206.417 305.798 207.73C307.111 209.043 308.891 209.78 310.748 209.78H326.248V368.28H185.748V209.78H201.248C202.167 209.781 203.078 209.6 203.927 209.248C204.777 208.897 205.549 208.381 206.199 207.731C206.849 207.081 207.365 206.309 207.716 205.459C208.068 204.61 208.249 203.699 208.248 202.78V176.032H217.748C219.605 176.032 221.385 175.295 222.698 173.982C224.011 172.669 224.748 170.889 224.748 169.032V135.28C224.748 133.423 224.011 131.643 222.698 130.33C221.385 129.017 219.605 128.28 217.748 128.28H186.308C187.997 116.564 193.847 105.847 202.788 98.0898C211.728 90.3323 223.163 86.0521 235 86.032ZM61.248 142.28H210.748V162.032H61.248V142.28ZM77.748 176.032H194.248V195.78H77.748V176.032ZM100.248 209.78H171.748V252.38L155.568 254.56C153.888 254.787 152.347 255.615 151.231 256.891C150.115 258.167 149.5 259.805 149.5 261.5V276.944L139.016 282.944C137.403 283.87 136.225 285.399 135.74 287.194C135.254 288.989 135.502 290.904 136.428 292.516C137.354 294.129 138.883 295.307 140.678 295.792C142.473 296.278 144.387 296.03 146 295.104L160 287.072C161.069 286.459 161.957 285.575 162.574 284.509C163.192 283.442 163.517 282.232 163.516 281V267.62L171.764 266.508V368.28H100.248V209.78ZM498 452.28H14V424.28H79.5C81.3565 424.28 83.137 423.543 84.4497 422.23C85.7625 420.917 86.5 419.137 86.5 417.28C86.5 415.424 85.7625 413.643 84.4497 412.33C83.137 411.018 81.3565 410.28 79.5 410.28H53.748V382.28H458.248V410.28H171.5C169.643 410.28 167.863 411.018 166.55 412.33C165.237 413.643 164.5 415.424 164.5 417.28C164.5 419.137 165.237 420.917 166.55 422.23C167.863 423.543 169.643 424.28 171.5 424.28H498V452.28Z" fill="black"/>
</svg>
