<svg width="512" height="512" viewBox="0 0 512 512" fill="none" xmlns="http://www.w3.org/2000/svg">
<path d="M217.354 142.434C216.369 142.433 215.393 142.627 214.483 143.004C213.573 143.381 212.746 143.934 212.05 144.63C211.353 145.326 210.801 146.153 210.424 147.063C210.047 147.973 209.853 148.949 209.854 149.934V198.397C209.854 202.54 213.211 205.897 217.354 205.897C221.497 205.897 224.854 202.54 224.854 198.397V149.934C224.854 147.944 224.063 146.037 222.657 144.63C221.25 143.224 219.343 142.434 217.354 142.434Z" fill="#4380A0"/>
<path d="M398.771 491.491H306.479V326.773C306.479 325.713 306.9 324.695 307.65 323.945C308.4 323.195 309.418 322.773 310.479 322.773H394.771C395.831 322.773 396.849 323.195 397.599 323.945C398.349 324.695 398.771 325.713 398.771 326.773V491.491Z" fill="#07A9F0"/>
<path d="M205.521 491.491H113.229V268.758C113.229 267.697 113.65 266.68 114.4 265.929C115.15 265.179 116.168 264.758 117.229 264.758H201.521C202.581 264.758 203.599 265.179 204.349 265.929C205.099 266.68 205.521 267.697 205.521 268.758V491.491Z" fill="#FFD54F"/>
<path d="M470.883 491.49H398.77V243.256C398.77 231.799 408.058 222.512 419.514 222.512H450.138C461.595 222.512 470.882 231.8 470.882 243.256V491.49H470.883Z" fill="#F76C57"/>
<path d="M470.879 243.261V491.491H439.979V243.261C439.979 231.851 430.769 222.601 419.369 222.521C419.419 222.521 419.469 222.511 419.509 222.511H450.139C461.599 222.511 470.879 231.801 470.879 243.261ZM72.0215 103.68H113.228V506.282H72.0215V103.68Z" fill="#E7387F"/>
<path d="M140.01 70.6102V104.52C140.01 112.23 133.77 118.47 126.07 118.47H59.1902C51.4802 118.47 45.2402 112.23 45.2402 104.52V70.6102C45.2402 62.9002 51.4802 56.6602 59.1902 56.6602H126.07C133.77 56.6602 140.01 62.9002 140.01 70.6102Z" fill="#F76C57"/>
<path d="M126.066 56.6602H95.1602C102.863 56.6602 109.108 62.9052 109.108 70.6082V104.522C109.108 112.225 102.863 118.47 95.1602 118.47H126.065C133.768 118.47 140.013 112.225 140.013 104.522V70.6082C140.014 62.9052 133.769 56.6602 126.066 56.6602Z" fill="#E7387F"/>
<path d="M306.479 280.701V491.49H205.521V192.523C205.521 191.463 205.943 190.445 206.693 189.695C207.443 188.945 208.461 188.523 209.521 188.523H234.487C235.548 188.523 236.566 188.945 237.316 189.695C238.066 190.445 238.487 191.463 238.487 192.523V212.709C238.487 233.489 255.332 250.334 276.112 250.334C292.883 250.334 306.479 263.93 306.479 280.701Z" fill="#F3F3F3"/>
<path d="M276.112 250.334C255.332 250.334 238.487 233.489 238.487 212.709V192.523C238.487 191.463 238.066 190.445 237.316 189.695C236.566 188.945 235.548 188.523 234.487 188.523H209.521C208.461 188.523 207.443 188.945 206.693 189.695C205.943 190.445 205.521 191.463 205.521 192.523V212.709C205.521 233.403 222.452 250.334 243.146 250.334H245.206C261.977 250.334 275.573 263.93 275.573 280.701V491.49H306.478V280.701C306.479 263.93 292.883 250.334 276.112 250.334Z" fill="#E4E4E4"/>
<path d="M306.48 325.34H262.182C253.648 325.34 246.729 318.422 246.729 309.887C246.729 301.353 253.647 294.434 262.182 294.434H306.48V325.34ZM306.48 382.787H262.182C253.648 382.787 246.729 375.869 246.729 367.334C246.729 358.8 253.647 351.881 262.182 351.881H306.48V382.787ZM306.48 440.234H262.182C253.648 440.234 246.729 433.316 246.729 424.781C246.729 416.247 253.647 409.328 262.182 409.328H306.48V440.234Z" fill="#71F6FC"/>
<path d="M174.615 264.758V491.491H205.52V268.758C205.52 267.697 205.099 266.68 204.349 265.929C203.599 265.179 202.581 264.758 201.52 264.758H174.615Z" fill="#FFCA28"/>
<path d="M367.865 322.773V491.491H398.77V326.773C398.77 325.713 398.349 324.695 397.599 323.945C396.849 323.195 395.831 322.773 394.77 322.773H367.865Z" fill="#5766CE"/>
<path d="M141.044 383.226H113.229V352.321H141.044C149.578 352.321 156.497 359.239 156.497 367.774C156.497 376.308 149.579 383.226 141.044 383.226ZM141.044 440.453H113.229V409.548H141.044C149.578 409.548 156.497 416.466 156.497 425.001C156.497 433.535 149.579 440.453 141.044 440.453ZM370.956 383.226H398.771V352.321H370.956C362.422 352.321 355.503 359.239 355.503 367.774C355.503 376.308 362.421 383.226 370.956 383.226ZM370.956 440.453H398.771V409.548H370.956C362.422 409.548 355.503 416.466 355.503 425.001C355.503 433.535 362.421 440.453 370.956 440.453ZM141.044 325.999H113.229V295.094H141.044C149.578 295.094 156.497 302.012 156.497 310.547C156.497 319.081 149.579 325.999 141.044 325.999Z" fill="#71F6FC"/>
<path d="M256.001 125.97C265.104 125.97 272.484 118.59 272.484 109.487C272.484 100.384 265.104 93.0039 256.001 93.0039C246.897 93.0039 239.518 100.384 239.518 109.487C239.518 118.59 246.897 125.97 256.001 125.97Z" fill="#FFCA28"/>
<path d="M288.157 65.8567C278.84 58.7907 267.733 55.0547 256.036 55.0547C244.305 55.0547 233.168 58.8117 223.832 65.9197C222.25 67.1246 221.21 68.9089 220.943 70.8801C220.676 72.8513 221.203 74.8479 222.407 76.4307C223.612 78.0135 225.397 79.0528 227.368 79.3201C229.339 79.5873 231.336 79.0606 232.918 77.8557C239.621 72.7517 247.615 70.0547 256.036 70.0547C264.432 70.0547 272.405 72.7357 279.093 77.8077C279.877 78.4132 280.773 78.8574 281.73 79.1147C282.686 79.372 283.684 79.4373 284.666 79.3068C285.648 79.1763 286.594 78.8527 287.45 78.3545C288.306 77.8563 289.055 77.1935 289.654 76.4043C290.252 75.6152 290.689 74.7152 290.938 73.7565C291.186 72.7978 291.243 71.7993 291.104 70.8187C290.965 69.838 290.633 68.8946 290.127 68.0429C289.621 67.1913 288.952 66.4482 288.157 65.8567Z" fill="#FFCA28"/>
<path d="M301.128 42.2826C288.041 32.3506 272.448 27.1016 256.037 27.1016C239.584 27.1016 223.964 32.3726 210.864 42.3436C209.281 43.5484 208.242 45.3327 207.974 47.3039C207.707 49.2751 208.234 51.2718 209.439 52.8546C210.644 54.4374 212.428 55.4767 214.399 55.744C216.37 56.0112 218.367 55.4844 219.95 54.2796C230.416 46.3126 242.894 42.1016 256.037 42.1016C269.146 42.1016 281.603 46.2956 292.061 54.2316C292.845 54.8351 293.74 55.2775 294.696 55.5334C295.651 55.7893 296.648 55.8536 297.629 55.7226C298.609 55.5916 299.554 55.2679 300.409 54.7701C301.264 54.2723 302.012 53.6103 302.61 52.8222C303.208 52.0341 303.645 51.1355 303.894 50.1781C304.143 49.2207 304.2 48.2235 304.063 47.2438C303.925 46.2641 303.595 45.3214 303.091 44.47C302.587 43.6185 301.92 42.8751 301.128 42.2826Z" fill="#FFCA28"/>
<path d="M313.591 19.383C296.891 6.702 276.989 0 256.037 0C235.043 0 215.113 6.724 198.403 19.443C196.82 20.6479 195.781 22.4322 195.513 24.4034C195.246 26.3746 195.773 28.3712 196.978 29.954C198.183 31.5368 199.967 32.5762 201.938 32.8434C203.909 33.1106 205.906 32.5839 207.489 31.379C221.565 20.664 238.353 15 256.037 15C273.685 15 290.451 20.646 304.52 31.33C305.304 31.9256 306.198 32.3609 307.151 32.611C308.104 32.861 309.096 32.921 310.072 32.7875C311.048 32.654 311.988 32.3295 312.838 31.8327C313.689 31.3359 314.433 30.6765 315.029 29.892C315.624 29.1075 316.06 28.2135 316.31 27.2608C316.56 26.3081 316.62 25.3155 316.486 24.3397C316.353 23.3638 316.028 22.4238 315.531 21.5734C315.035 20.7229 314.375 19.9786 313.591 19.383Z" fill="#FFCA28"/>
<path d="M496.547 512H15.453C6.918 512 0 505.082 0 496.547C0 488.013 6.918 481.094 15.453 481.094H496.548C505.082 481.094 512.001 488.012 512.001 496.547C512 505.082 505.082 512 496.547 512Z" fill="#4380A0"/>
<path d="M496.548 481.094H465.643C474.177 481.094 481.096 488.012 481.096 496.547C481.096 505.081 474.178 512 465.643 512H496.548C505.082 512 512.001 505.082 512.001 496.547C512.001 488.012 505.083 481.094 496.548 481.094Z" fill="#3B7191"/>
<path d="M385.808 180.186H334.102C328.446 180.186 323.861 175.601 323.861 169.945C323.861 158.343 333.266 148.938 344.868 148.938H385.808C387.293 148.938 388.718 149.528 389.768 150.578C390.818 151.628 391.408 153.052 391.408 154.538V174.587C391.408 176.072 390.818 177.496 389.768 178.546C388.717 179.596 387.293 180.186 385.808 180.186ZM82.1501 248.709H30.4441C24.7881 248.709 20.2031 244.124 20.2031 238.468C20.2031 226.866 29.6081 217.461 41.2101 217.461H82.1501C83.6353 217.461 85.0597 218.051 86.1099 219.101C87.1601 220.151 87.7501 221.575 87.7501 223.061V243.11C87.7499 244.595 87.1597 246.019 86.1096 247.069C85.0594 248.119 83.6352 248.709 82.1501 248.709ZM406.652 70.6777H458.358C464.014 70.6777 468.599 66.0927 468.599 60.4367C468.599 48.8347 459.194 39.4297 447.592 39.4297H406.652C405.167 39.4297 403.743 40.0197 402.692 41.0699C401.642 42.1201 401.052 43.5445 401.052 45.0297V65.0787C401.052 66.5637 401.642 67.9879 402.693 69.0378C403.743 70.0878 405.167 70.6777 406.652 70.6777Z" fill="#4380A0"/>
<path d="M71.5102 87.5714C71.5102 91.7114 68.1502 95.0714 64.0102 95.0714H45.2402V80.0714H64.0102C68.1502 80.0714 71.5102 83.4214 71.5102 87.5714ZM140.01 80.0714V95.0714H121.24C117.1 95.0714 113.74 91.7114 113.74 87.5714C113.74 83.4214 117.1 80.0714 121.24 80.0714H140.01ZM97.5012 80.0664H87.7512C83.6082 80.0664 80.2512 83.4234 80.2512 87.5664C80.2512 91.7094 83.6082 95.0664 87.7512 95.0664H97.5012C101.644 95.0664 105.001 91.7094 105.001 87.5664C105.001 83.4234 101.644 80.0664 97.5012 80.0664ZM470.88 257.141V272.141H425.18C421.04 272.141 417.68 268.791 417.68 264.641C417.68 260.501 421.04 257.141 425.18 257.141H470.88ZM470.88 291.641V306.641H425.18C421.04 306.641 417.68 303.291 417.68 299.141C417.68 295.001 421.04 291.641 425.18 291.641H470.88ZM470.88 326.141V341.141H425.18C421.04 341.141 417.68 337.791 417.68 333.641C417.68 329.501 421.04 326.141 425.18 326.141H470.88ZM470.88 360.641V375.641H425.18C421.04 375.641 417.68 372.281 417.68 368.141C417.68 364.001 421.04 360.641 425.18 360.641H470.88ZM470.88 395.141V410.141H425.18C421.04 410.141 417.68 406.781 417.68 402.641C417.68 398.501 421.04 395.141 425.18 395.141H470.88ZM470.88 429.641V444.641H425.18C421.04 444.641 417.68 441.281 417.68 437.141C417.68 433.001 421.04 429.641 425.18 429.641H470.88Z" fill="#71F6FC"/>
</svg>
