<svg width="480" height="480" viewBox="0 0 480 480" fill="none" xmlns="http://www.w3.org/2000/svg">
<path d="M144 285.192V232C144 183.48 104.52 144 56 144H0V160H56C95.696 160 128 192.296 128 232V288C127.999 289.817 128.617 291.581 129.752 293L154.584 324.04L141.464 328.416C139.872 328.946 138.487 329.963 137.506 331.325C136.525 332.686 135.998 334.322 136 336V361.448L102.432 368.16C100.919 368.464 99.5253 369.198 98.4201 370.276C97.315 371.354 96.5451 372.728 96.2035 374.233C95.8619 375.738 95.963 377.31 96.4947 378.759C97.0263 380.209 97.9659 381.473 99.2 382.4L127.704 403.776C126.798 409.413 123.915 414.543 119.572 418.248C115.229 421.954 109.709 423.993 104 424H32C29.8783 424 27.8434 424.843 26.3431 426.343C24.8429 427.843 24 429.878 24 432V480H40V440H104C126.056 440 144 422.056 144 400C144 398.758 143.711 397.533 143.155 396.422C142.6 395.311 141.794 394.345 140.8 393.6L123.112 380.336L145.568 375.84C147.382 375.48 149.015 374.502 150.189 373.072C151.362 371.642 152.002 369.85 152 368V341.768L170.528 335.592C171.749 335.183 172.854 334.486 173.748 333.559C174.642 332.632 175.3 331.504 175.665 330.269C176.03 329.034 176.092 327.729 175.845 326.465C175.598 325.201 175.051 324.015 174.248 323.008L144 285.192Z" fill="white"/>
<path d="M102.824 248H102.8C99.4724 248 96.2324 249.896 95.1764 253.048C93.0644 259.408 87.0564 264 80.0004 264C72.9444 264 66.9364 259.408 64.8164 253.048C63.7684 249.896 60.5204 248 57.1924 248H57.1764C51.9364 248 47.9764 253.104 49.6244 258.08C53.8564 270.8 65.8724 280 80.0004 280C94.1284 280 106.144 270.8 110.376 258.08C112.032 253.104 108.064 248 102.824 248ZM237.44 341.144C244.272 350.936 247.928 362.776 248 375.4C248.114 387.664 244.496 399.673 237.624 409.832L250.856 418.816C259.549 405.983 264.133 390.811 264 375.312C263.912 359.424 259.264 344.44 250.56 331.984L237.44 341.144ZM264.656 323.168C274.624 338.464 279.928 356.496 280 375.32C280.072 394.2 274.824 412.296 264.816 427.64L278.224 436.376C289.936 418.408 296.08 397.272 296 375.256C295.912 353.352 289.712 332.32 278.064 314.432L264.656 323.168ZM211.056 357.544C214.266 362.951 215.971 369.119 215.993 375.407C216.016 381.695 214.355 387.874 211.184 393.304L224.976 401.416C229.568 393.592 232 384.616 232 375.44C232 366.24 229.504 357.208 224.784 349.328L211.056 357.544ZM368 360C368 382.056 385.944 400 408 400C430.056 400 448 382.056 448 360V312C448 289.944 430.056 272 408 272C385.944 272 368 289.944 368 312V360ZM384 312C384 298.768 394.768 288 408 288C421.232 288 432 298.768 432 312V360C432 373.232 421.232 384 408 384C394.768 384 384 373.232 384 360V312Z" fill="white"/>
<path d="M408 416C377.12 416 352 390.872 352 360H336C336 397 364.056 427.536 400 431.528V464H376V480H440V464H416V431.528C451.944 427.536 480 397 480 360H464C464 390.872 438.88 416 408 416ZM368 208V8C368 5.87827 367.157 3.84344 365.657 2.34315C364.157 0.842854 362.122 0 360 0H200C197.878 0 195.843 0.842854 194.343 2.34315C192.843 3.84344 192 5.87827 192 8V208C192 210.122 192.843 212.157 194.343 213.657C195.843 215.157 197.878 216 200 216H360C362.122 216 364.157 215.157 365.657 213.657C367.157 212.157 368 210.122 368 208ZM352 200H208V16H352V200Z" fill="white"/>
<path d="M232 40H248V56H232V40ZM264 40H328V56H264V40ZM232 80H248V96H232V80ZM264 80H328V96H264V80ZM232 120H248V136H232V120ZM264 120H328V136H264V120ZM232 160H248V176H232V160ZM264 160H328V176H264V160Z" fill="white"/>
</svg>
