<svg width="480" height="480" viewBox="0 0 480 480" fill="none" xmlns="http://www.w3.org/2000/svg">
<path d="M342.801 203.76C342.081 202.608 341.078 201.657 339.888 200.999C338.699 200.342 337.361 199.998 336.001 200H248.001V80.0004C247.991 78.2091 247.379 76.4731 246.264 75.0706C245.15 73.6682 243.597 72.6803 241.854 72.2654C240.112 71.8505 238.28 72.0325 236.653 72.7822C235.026 73.532 233.698 74.8061 232.881 76.4004L136.881 268.4C136.268 269.618 135.975 270.973 136.032 272.335C136.089 273.698 136.494 275.023 137.207 276.185C137.921 277.348 138.919 278.308 140.108 278.976C141.297 279.644 142.637 279.996 144.001 280H232.001V400C232.007 401.798 232.618 403.541 233.735 404.949C234.853 406.357 236.412 407.347 238.161 407.76C238.762 407.919 239.38 407.999 240.001 408C241.479 407.996 242.926 407.583 244.183 406.806C245.439 406.029 246.456 404.92 247.121 403.6L343.121 211.6C343.74 210.375 344.036 209.011 343.98 207.639C343.924 206.267 343.518 204.932 342.801 203.76ZM248.001 366.08V272C248.001 269.879 247.158 267.844 245.658 266.344C244.158 264.843 242.123 264 240.001 264H156.961L232.001 113.92V208C232.001 210.122 232.844 212.157 234.344 213.657C235.845 215.158 237.879 216 240.001 216H323.041L248.001 366.08Z" fill="#13C4A1"/>
<path d="M435.281 100.64C441.362 92.9832 444.42 83.3599 443.874 73.5973C443.328 63.8346 439.217 54.612 432.321 47.6803L409.681 25.0403C408.159 23.5952 406.14 22.7896 404.041 22.7896C401.942 22.7896 399.923 23.5952 398.401 25.0403L392.721 30.7203L370.081 8.08025L358.801 19.3603L381.441 42.0003L370.081 53.3603L347.441 30.7203L336.161 42.0003L358.801 64.6403L353.121 70.3203C351.631 71.8192 350.795 73.8468 350.795 75.9603C350.795 78.0737 351.631 80.1014 353.121 81.6003L375.761 104.24C381.821 110.351 389.712 114.314 398.232 115.527C406.753 116.74 415.436 115.137 422.961 110.96C449.78 148.633 464.131 193.757 464.001 240C463.968 276.758 454.898 312.944 437.589 345.372C420.28 377.8 395.264 405.474 364.743 425.959C334.222 446.443 299.132 459.109 262.564 462.841C225.996 466.573 189.071 461.257 155.041 447.36L148.961 462.16C185.421 477.055 224.985 482.756 264.167 478.761C303.349 474.766 340.948 461.197 373.651 439.25C406.355 417.302 433.16 387.65 451.705 352.904C470.251 318.159 479.968 279.386 480.001 240C480.146 189.996 464.495 141.223 435.281 100.64ZM421.041 92.9603C416.507 97.4209 410.401 99.9209 404.041 99.9209C397.681 99.9209 391.575 97.4209 387.041 92.9603L370.081 75.9202L404.081 42.0003L421.041 58.9603C425.536 63.476 428.06 69.5884 428.06 75.9603C428.06 82.3321 425.536 88.4445 421.041 92.9603ZM240.001 0.000252698C176.373 0.0785823 115.374 25.3894 70.3819 70.3811C25.3901 115.373 0.0793342 176.372 0.00100455 240C-0.144436 290.005 15.5066 338.777 44.721 379.36C38.6401 387.017 35.5823 396.641 36.128 406.403C36.6736 416.166 40.7848 425.388 47.681 432.32L70.321 454.96C71.0502 455.704 71.922 456.293 72.8843 456.692C73.8466 457.09 74.8795 457.29 75.921 457.28C76.9745 457.291 78.0195 457.091 78.9948 456.693C79.9701 456.294 80.8561 455.705 81.601 454.96L87.281 449.28L109.921 471.92L121.201 460.64L98.561 438L109.921 426.64L132.561 449.28L143.841 438L121.201 415.36L126.881 409.68C128.371 408.181 129.207 406.154 129.207 404.04C129.207 401.927 128.371 399.899 126.881 398.4L104.241 375.76C98.1453 369.708 90.2592 365.785 81.7552 364.574C73.2512 363.364 64.5835 364.93 57.041 369.04C30.2218 331.368 15.8706 286.244 16.001 240C16.0666 180.612 39.6877 123.675 81.6816 81.6808C123.676 39.6869 180.613 16.0659 240.001 16.0003C269.144 15.9395 298.014 21.621 324.961 32.7203L331.041 17.8403C302.148 6.0153 271.221 -0.0451023 240.001 0.000252698ZM58.961 387.04C63.495 382.58 69.6006 380.08 75.961 380.08C82.3214 380.08 88.427 382.58 92.961 387.04L109.921 404.08L75.921 438L58.961 421.04C54.4656 416.525 51.9418 410.412 51.9418 404.04C51.9418 397.668 54.4656 391.556 58.961 387.04Z" fill="#13C4A1"/>
</svg>
