<svg width="496" height="496" viewBox="0 0 496 496" fill="none" xmlns="http://www.w3.org/2000/svg">
<path d="M384 376C397.232 376 408 365.232 408 352C408 338.768 397.232 328 384 328C370.768 328 360 338.768 360 352C360 365.232 370.768 376 384 376ZM384 344C385.585 343.998 387.134 344.467 388.452 345.346C389.77 346.226 390.798 347.476 391.405 348.94C392.012 350.403 392.171 352.014 391.863 353.568C391.554 355.122 390.791 356.55 389.671 357.671C388.55 358.791 387.122 359.554 385.568 359.863C384.014 360.171 382.403 360.012 380.94 359.405C379.476 358.798 378.226 357.77 377.346 356.452C376.467 355.134 375.998 353.585 376 352C376 347.584 379.592 344 384 344Z" fill="url(#paint0_linear_864_218)"/>
<path d="M465.28 318.224C464.091 315.412 463.767 312.31 464.35 309.313C464.932 306.316 466.396 303.561 468.552 301.4L480.192 289.752L446.24 255.8L434.584 267.448C430.176 271.864 423.568 273.144 417.456 270.584C414.653 269.433 412.256 267.473 410.572 264.953C408.888 262.434 407.992 259.47 408 256.44V240H391.592C390.903 227.341 388.519 214.833 384.504 202.808L477.08 110.232C483.096 104.25 487.866 97.1333 491.114 89.2951C494.361 81.4569 496.022 73.0524 496 64.568C496 28.968 467.032 0 431.432 0C414.184 0 397.968 6.72 385.776 18.912L293.296 111.4C281.094 107.355 268.4 104.984 255.56 104.352C244.52 85.064 223.776 72 200 72C193.912 72 188.04 72.912 182.448 74.504C168.64 48.544 141.816 32 112 32C67.888 32 32 67.888 32 112C32 118.128 32.752 124.16 34.12 130.064C24.2613 133.054 15.6239 139.132 9.48089 147.402C3.33791 155.673 0.0143217 165.698 0 176C0 202.472 21.528 224 48 224H106.032C104.691 231.93 104.011 239.958 104 248C104 265.608 107.256 279.936 112.512 292.176L41.144 363.552L1.432 466.8C-0.0455247 470.679 -0.369457 474.903 0.49925 478.963C1.36796 483.022 3.39222 486.744 6.32804 489.679C9.26385 492.614 12.9859 494.637 17.0455 495.504C21.1051 496.372 25.329 496.047 29.208 494.568L132.456 454.856L184.64 402.664C184.248 404.384 184 406.16 184 408C184 414.168 186.408 419.744 190.24 424C186.242 428.371 184.017 434.076 184 440C184 451.12 191.64 460.416 201.92 463.12C208.736 482.64 226.992 496 248 496C269.008 496 287.264 482.64 294.08 463.12C299.2 461.785 303.734 458.793 306.976 454.611C310.218 450.429 311.984 445.291 312 440C312 439.4 311.864 438.84 311.824 438.256L321.76 448.192L333.416 436.544C337.824 432.128 344.408 430.84 350.536 433.392C353.339 434.551 355.736 436.516 357.421 439.038C359.106 441.561 360.003 444.527 360 447.56V464H408V447.56C408 441.336 411.72 435.776 417.776 433.272C420.586 432.082 423.688 431.758 426.683 432.341C429.679 432.924 432.433 434.387 434.592 436.544L446.24 448.192L480.192 414.24L468.552 402.592C464.144 398.176 462.856 391.576 465.408 385.464C466.561 382.66 468.523 380.262 471.043 378.577C473.563 376.892 476.528 375.995 479.56 376H496V328H479.56C473.336 328 467.784 324.28 465.28 318.224ZM345.408 341.808C354.136 333.288 362.88 324.584 370.424 314.52C374.766 312.89 379.362 312.037 384 312C406.056 312 424 329.944 424 352C424 374.056 406.056 392 384 392C361.944 392 344 374.056 344 352C344 348.536 344.536 345.128 345.408 341.808ZM355.016 152.304L392 115.312L420.688 144L377.96 186.728C371.994 174.217 364.268 162.625 355.016 152.304ZM363.312 64L376 51.312L444.688 120L432 132.688L363.312 64ZM431.432 16C444.308 16.0169 456.651 21.1393 465.756 30.2439C474.861 39.3485 479.983 51.6922 480 64.568C480.017 70.9487 478.769 77.2695 476.328 83.1646C473.886 89.0597 470.3 94.4121 465.776 98.912L456 108.688L387.312 40L397.088 30.224C401.588 25.701 406.941 22.115 412.836 19.6735C418.731 17.232 425.051 15.9835 431.432 16ZM352 75.312L380.688 104L343.72 140.968C333.407 131.707 321.82 123.972 309.312 118L352 75.312ZM376 248C376 289.624 355.04 310.072 332.848 331.712C317.568 346.616 301.872 362.024 292.736 384.48C291.177 384.161 289.591 384 288 384H256V344C256 330.768 245.232 320 232 320H216C213.94 319.908 211.995 319.025 210.57 317.535C209.145 316.044 208.35 314.062 208.35 312C208.35 309.938 209.145 307.956 210.57 306.465C211.995 304.975 213.94 304.092 216 304H296C309.232 304 320 293.232 320 280C320 266.768 309.232 256 296 256H232C227.592 256 224 252.416 224 248V224H264C286.056 224 304 206.056 304 184C304 161.944 286.056 144 264 144C263.776 144 263.568 144.064 263.344 144.064C263.688 141.392 264 138.72 264 136C263.978 130.887 263.344 125.795 262.112 120.832C325.888 127.936 376 182.672 376 248ZM200 408C200 403.584 203.592 400 208 400H288C290.06 400.092 292.005 400.975 293.43 402.465C294.855 403.956 295.65 405.938 295.65 408C295.65 410.062 294.855 412.044 293.43 413.535C292.005 415.025 290.06 415.908 288 416H208C203.592 416 200 412.416 200 408ZM99.312 408L158.12 349.192C167.96 358.952 177.096 368.824 183.832 380.848L128 436.688L99.312 408ZM16 176C16 158.352 30.352 144 48 144C65.648 144 80 158.352 80 176H96C96 150.224 75.56 129.184 50.048 128.104C48.6839 122.845 47.9957 117.433 48 112C48 76.712 76.712 48 112 48C123.374 48.0026 134.54 51.0457 144.342 56.8141C154.145 62.5824 162.227 70.8664 167.752 80.808C159.131 85.8428 151.807 92.8232 146.363 101.192C140.92 109.561 137.508 119.086 136.4 129.008C122.432 132.448 112 144.984 112 160H128C128 151.176 135.176 144 144 144C152.824 144 160 151.176 160 160H176C176 145.32 166.016 133.056 152.52 129.296C155.8 106 175.808 88 200 88C226.472 88 248 109.528 248 136C248 140.208 247.312 144.328 246.24 148.344C233.12 154.912 224 168.352 224 184H240C240 170.768 250.768 160 264 160C277.232 160 288 170.768 288 184C288 197.232 277.232 208 264 208H48C30.352 208 16 193.648 16 176ZM208 224V248C208 261.232 218.768 272 232 272H296C298.06 272.092 300.005 272.975 301.43 274.465C302.855 275.956 303.65 277.938 303.65 280C303.65 282.062 302.855 284.044 301.43 285.535C300.005 287.025 298.06 287.908 296 288H216C202.768 288 192 298.768 192 312C192 325.232 202.768 336 216 336H232C236.408 336 240 339.584 240 344V384H208C206.376 384 204.792 384.168 203.264 384.48C194.128 362.024 178.432 346.616 163.152 331.712C140.96 310.072 120 289.624 120 248C120 239.912 120.968 231.896 122.464 224H208ZM146.696 337.992L88 396.688L59.312 368L120.352 306.96C127.864 318.752 137.176 328.592 146.696 337.992ZM51.048 382.36L113.64 444.952L60.648 465.336L30.664 435.352L51.048 382.36ZM23.472 479.632C20.008 480.976 16 478.216 16 474.504C16 473.824 16.128 473.16 16.36 472.536L24.376 451.688L44.304 471.616L23.472 479.632ZM248 480C242.319 479.997 236.736 478.521 231.795 475.717C226.854 472.913 222.724 468.876 219.808 464H276.192C273.276 468.876 269.146 472.913 264.205 475.717C259.264 478.521 253.681 479.997 248 480ZM288 448H208C205.94 447.908 203.995 447.025 202.57 445.535C201.145 444.044 200.35 442.062 200.35 440C200.35 437.938 201.145 435.956 202.57 434.465C203.995 432.975 205.94 432.092 208 432H288C290.06 432.092 292.005 432.975 293.43 434.465C294.855 435.956 295.65 437.938 295.65 440C295.65 442.062 294.855 444.044 293.43 445.535C292.005 447.025 290.06 447.908 288 448ZM480 360H479.56C466.832 360 455.472 367.6 450.512 379.616C448.096 385.352 447.444 391.677 448.642 397.785C449.839 403.893 452.829 409.505 457.232 413.904L457.568 414.24L446.24 425.568L445.904 425.232C436.88 416.208 423.408 413.56 411.352 418.616C405.617 420.974 400.714 424.986 397.267 430.14C393.821 435.295 391.987 441.359 392 447.56V448H376V447.56C376 434.832 368.4 423.472 356.384 418.504C350.647 416.084 344.318 415.431 338.208 416.63C332.098 417.828 326.485 420.824 322.088 425.232L321.752 425.568L310.912 414.728C311.552 412.576 312 410.352 312 408C312 402.32 309.936 397.168 306.624 393.048C311.6 379.616 319.4 368.872 328.48 358.952C331.92 386.552 355.48 408 384 408C414.88 408 440 382.872 440 352C440 321.128 414.88 296 384 296C383.216 296 382.456 296.08 381.68 296.112C387.096 284.872 390.816 271.84 391.752 256H392V256.44C392 269.168 399.6 280.536 411.608 285.488C417.344 287.911 423.672 288.566 429.783 287.369C435.893 286.172 441.507 283.177 445.904 278.768L446.24 278.432L457.568 289.76L457.232 290.096C448.224 299.112 445.584 312.576 450.616 324.64C452.972 330.377 456.983 335.283 462.138 338.731C467.293 342.179 473.358 344.013 479.56 344H480V360Z" fill="url(#paint1_linear_864_218)"/>
<defs>
<linearGradient id="paint0_linear_864_218" x1="361.713" y1="331.094" x2="407.433" y2="383.565" gradientUnits="userSpaceOnUse">
<stop stop-color="#1BA2D7"/>
<stop offset="1" stop-color="#8D3DFA"/>
</linearGradient>
<linearGradient id="paint1_linear_864_218" x1="17.6972" y1="31.9688" x2="490.144" y2="574.176" gradientUnits="userSpaceOnUse">
<stop stop-color="#1BA2D7"/>
<stop offset="1" stop-color="#8D3DFA"/>
</linearGradient>
</defs>
</svg>
