<svg width="512" height="512" viewBox="0 0 512 512" fill="none" xmlns="http://www.w3.org/2000/svg">
<path d="M338.579 297.291C329.47 297.291 322.063 289.883 322.063 280.774H305.547C305.547 298.992 320.362 313.807 338.579 313.807C356.796 313.807 371.611 298.992 371.611 280.774H355.095C355.095 289.883 347.688 297.291 338.579 297.291Z" fill="url(#paint0_linear_864_222)"/>
<path d="M512 132.715C512 96.6524 486.02 65.4369 450.956 58.5414C434.812 34.048 407.684 18.6054 378.451 16.863C376.81 11.9632 373.674 7.70104 369.485 4.67615C365.296 1.65126 360.264 0.0158539 355.097 0L322.065 0C316.958 0.0163682 311.981 1.6126 307.818 4.56968C303.654 7.52675 300.507 11.6998 298.81 16.5161H285.894C219.326 16.5161 165.161 70.6808 165.161 137.257C165.161 152.551 168.151 167.391 173.75 181.537C169.936 186.43 167.285 192.126 165.995 198.194H41.2903C18.5228 198.194 0 216.716 0 239.484V470.71C0 493.477 18.5228 512 41.2903 512H82.5806V445.935H166.004C168.064 455.759 173.641 464.493 181.686 470.495V486.284C181.686 498.812 190.555 509.713 202.314 511.645C205.873 512.248 209.521 512.065 213.002 511.109C216.482 510.153 219.712 508.448 222.464 506.112C225.212 503.79 227.42 500.896 228.935 497.633C230.45 494.37 231.234 490.815 231.234 487.218V478.959H264.258V511.992H379.871V461.51C390.454 450.74 396.382 436.244 396.379 421.145V371.588C396.379 360.748 392.1 350.345 384.471 342.644C426.859 330.562 458.554 293.079 462.03 247.742H470.71C493.477 247.742 512 229.219 512 206.452C511.967 197.426 508.947 188.665 503.412 181.537C509.053 167.454 511.967 152.428 512 137.257V132.715ZM438.858 70.3174L440.882 73.6867L444.771 74.24C473.674 78.369 495.484 103.507 495.484 132.715V137.249C495.484 148.563 493.651 159.604 490.1 170.215C484.155 166.949 477.492 165.212 470.71 165.161H460.932C459.234 160.345 456.088 156.172 451.924 153.215C447.761 150.258 442.784 148.662 437.677 148.645H412.416C411.206 137.899 407.667 127.545 402.046 118.306C396.426 109.067 388.858 101.165 379.871 95.1494V33.4864C404.059 35.6996 426.248 49.3006 438.858 70.3174ZM437.677 247.742H239.484C234.925 247.742 231.226 244.034 231.226 239.484V173.419C231.226 168.869 234.925 165.161 239.484 165.161H280.774V173.419C280.774 187.078 291.89 198.194 305.548 198.194H371.613C385.272 198.194 396.387 187.078 396.387 173.419V165.161H437.677C442.236 165.161 445.935 168.869 445.935 173.419V239.484C445.935 244.034 442.236 247.742 437.677 247.742ZM206.452 181.677H214.71V231.226H206.452C192.793 231.226 181.677 220.11 181.677 206.452C181.677 192.793 192.793 181.677 206.452 181.677ZM338.581 99.0968C367.641 99.0968 391.696 120.675 395.726 148.645H379.037C375.197 129.825 358.524 115.613 338.581 115.613C318.637 115.613 301.964 129.825 298.124 148.645H281.435C285.465 120.675 309.521 99.0968 338.581 99.0968ZM297.29 165.161H379.871V173.419C379.871 177.97 376.171 181.677 371.613 181.677H305.548C300.99 181.677 297.29 177.97 297.29 173.419V165.161ZM315.326 148.645C318.745 139.058 327.829 132.129 338.581 132.129C349.333 132.129 358.417 139.058 361.835 148.645H315.326ZM322.065 16.5161H355.097C359.655 16.5161 363.355 20.224 363.355 24.7742V86.9161C355.592 84.1579 347.276 82.5806 338.581 82.5806C329.885 82.5806 321.569 84.1579 313.806 86.9161V24.7742C313.806 20.224 317.506 16.5161 322.065 16.5161ZM285.894 33.0323H297.29V95.1494C288.303 101.165 280.736 109.067 275.115 118.306C269.494 127.545 265.955 137.899 264.745 148.645H239.484C234.377 148.662 229.4 150.258 225.237 153.215C221.073 156.172 217.927 160.345 216.229 165.161H206.452C199.668 165.21 193.004 166.95 187.062 170.223C183.494 159.599 181.676 148.465 181.677 137.257C181.677 79.7894 228.426 33.0323 285.894 33.0323ZM41.2903 214.71H165.995C167.912 224.028 172.982 232.401 180.351 238.418C187.72 244.435 196.938 247.728 206.452 247.742H215.131C218.764 295.069 253.151 333.857 298.339 344.105C289.147 349.695 281.353 357.311 275.553 366.372C269.752 375.433 266.098 385.699 264.869 396.387H256C252.122 396.397 248.301 397.32 244.846 399.082C241.391 400.844 238.4 403.395 236.115 406.528C234.547 405.137 232.877 403.868 231.118 402.729C230.834 396.656 229.216 390.721 226.381 385.343C223.545 379.966 219.56 375.278 214.71 371.613L198.879 359.738L189.779 338.911C186.687 331.825 181.694 325.734 175.352 321.313C169.01 316.892 161.567 314.314 153.849 313.865C146.131 313.416 138.44 315.114 131.628 318.769C124.816 322.425 119.15 327.896 115.258 334.575L82.5806 390.606V264.258H41.2903C27.6315 264.258 16.5161 253.143 16.5161 239.484C16.5161 225.825 27.6315 214.71 41.2903 214.71ZM313.806 396.387H281.41C282.806 387.263 286.503 378.645 292.154 371.347C297.805 364.049 305.223 358.311 313.707 354.676L318.679 352.553C315.521 358.41 313.845 364.951 313.798 371.605L313.806 396.387ZM181.686 437.677C181.686 424.019 192.801 412.903 206.46 412.903H209.292C215.915 412.903 222.134 415.488 226.816 420.17L231.226 424.58V454.194C231.226 457.1 231.82 459.859 232.745 462.452H206.46C192.801 462.452 181.686 451.336 181.686 437.677ZM191.595 395.561L168.465 378.203C167.595 377.559 166.862 376.749 166.309 375.818C165.756 374.888 165.394 373.857 165.244 372.786C165.083 371.709 165.14 370.612 165.411 369.558C165.682 368.504 166.162 367.515 166.821 366.65C168.173 364.952 170.124 363.837 172.272 363.533C174.421 363.229 176.604 363.759 178.374 365.015L204.792 384.826C208.822 387.856 211.646 392.093 213.24 396.775C211.935 396.651 210.638 396.387 209.292 396.387H206.46C202.265 396.387 198.293 397.205 194.477 398.369C193.636 397.318 192.668 396.374 191.595 395.561ZM66.0645 495.484H41.2903C27.6315 495.484 16.5161 484.369 16.5161 470.71V272.5C23.6536 277.88 32.3518 280.786 41.2903 280.774H66.0645V495.484ZM166.004 429.419H82.5806V423.399L129.536 342.891C131.896 338.851 135.329 335.542 139.453 333.332C143.578 331.122 148.234 330.096 152.905 330.369C157.576 330.642 162.081 332.202 165.921 334.877C169.76 337.552 172.784 341.238 174.658 345.526L175.393 347.202C167.168 346.674 158.679 350.002 153.625 356.732C151.662 359.333 150.234 362.298 149.423 365.455C148.612 368.611 148.435 371.897 148.901 375.123C149.354 378.346 150.442 381.447 152.102 384.246C153.762 387.046 155.961 389.488 158.571 391.432L179.208 406.916C172.476 412.781 167.84 420.682 166.004 429.419ZM214.718 487.226C214.715 488.432 214.449 489.624 213.938 490.716C213.427 491.809 212.684 492.777 211.759 493.553C210.835 494.329 209.753 494.893 208.588 495.206C207.423 495.52 206.203 495.575 205.015 495.368C201.199 494.741 198.21 490.752 198.21 486.293V478.134C200.877 478.679 203.644 478.968 206.468 478.968H214.726V487.226H214.718ZM280.774 495.484V478.968L338.572 478.959C347.45 478.959 355.832 476.887 363.355 473.294V495.484H280.774ZM379.863 371.596V421.153C379.863 443.921 361.34 462.443 338.572 462.443L256 462.452C253.81 462.452 251.709 461.582 250.161 460.033C248.612 458.484 247.742 456.384 247.742 454.194V421.161C247.742 418.971 248.612 416.871 250.161 415.322C251.709 413.773 253.81 412.903 256 412.903H317.646L331.702 434.003L345.443 424.844L330.323 402.143L330.314 371.605C330.325 365.065 332.917 358.795 337.527 354.157C342.138 349.519 348.392 346.889 354.932 346.839H355.097L355.196 346.83C361.744 346.865 368.013 349.489 372.634 354.129C377.256 358.769 379.854 365.048 379.863 371.596ZM355.196 330.314L355.089 330.306L354.932 330.323H322.065C280.394 330.323 245.281 302.088 234.62 263.763C236.197 264.085 237.816 264.258 239.484 264.258H437.677C439.346 264.258 440.964 264.085 442.541 263.763C431.889 302.055 396.825 330.273 355.196 330.314ZM470.71 231.226H462.452V181.677H470.71C484.369 181.677 495.484 192.793 495.484 206.452C495.484 220.11 484.369 231.226 470.71 231.226Z" fill="url(#paint1_linear_864_222)"/>
<path d="M24.7742 148.645H51.3652L56.0557 167.407C58.1533 175.814 65.6681 181.677 74.3226 181.677C82.977 181.677 90.4919 175.814 92.5894 167.407L97.28 148.645H123.871C137.53 148.645 148.645 137.53 148.645 123.871V90.8386C148.645 77.1798 137.53 66.0645 123.871 66.0645H24.7742C11.1154 66.0645 0 77.1798 0 90.8386V123.871C0 137.53 11.1154 148.645 24.7742 148.645ZM16.5161 90.8386C16.5161 86.2885 20.2157 82.5806 24.7742 82.5806H123.871C128.429 82.5806 132.129 86.2885 132.129 90.8386V123.871C132.129 128.421 128.429 132.129 123.871 132.129H84.3974L76.577 163.402C76.0568 165.475 72.5966 165.475 72.0764 163.402L64.2477 132.129H24.7742C20.2157 132.129 16.5161 128.421 16.5161 123.871V90.8386Z" fill="url(#paint2_linear_864_222)"/>
<path d="M66.0635 99.0967H82.5796V115.613H66.0635V99.0967ZM33.0312 99.0967H49.5474V115.613H33.0312V99.0967ZM99.0958 99.0967H115.612V115.613H99.0958V99.0967ZM123.87 297.29C142.087 297.29 156.902 282.475 156.902 264.258C156.902 246.041 142.087 231.226 123.87 231.226C105.653 231.226 90.8377 246.041 90.8377 264.258C90.8377 282.475 105.653 297.29 123.87 297.29ZM123.87 247.742C132.979 247.742 140.386 255.149 140.386 264.258C140.386 273.367 132.979 280.774 123.87 280.774C114.761 280.774 107.354 273.367 107.354 264.258C107.354 255.149 114.761 247.742 123.87 247.742ZM429.418 363.355H511.999V379.871H429.418V363.355ZM429.418 396.387H511.999V412.903H429.418V396.387ZM429.418 429.419H511.999V445.935H429.418V429.419ZM429.418 462.452H511.999V478.968H429.418V462.452Z" fill="url(#paint3_linear_864_222)"/>
<defs>
<linearGradient id="paint0_linear_864_222" x1="307.904" y1="282.903" x2="331.165" y2="336.294" gradientUnits="userSpaceOnUse">
<stop stop-color="#1BA2D7"/>
<stop offset="1" stop-color="#8D3DFA"/>
</linearGradient>
<linearGradient id="paint1_linear_864_222" x1="18.2681" y1="33.0001" x2="505.955" y2="592.697" gradientUnits="userSpaceOnUse">
<stop stop-color="#1BA2D7"/>
<stop offset="1" stop-color="#8D3DFA"/>
</linearGradient>
<linearGradient id="paint2_linear_864_222" x1="5.30363" y1="73.5161" x2="108.56" y2="225.876" gradientUnits="userSpaceOnUse">
<stop stop-color="#1BA2D7"/>
<stop offset="1" stop-color="#8D3DFA"/>
</linearGradient>
<linearGradient id="paint3_linear_864_222" x1="50.1207" y1="123.581" x2="391.796" y2="618" gradientUnits="userSpaceOnUse">
<stop stop-color="#1BA2D7"/>
<stop offset="1" stop-color="#8D3DFA"/>
</linearGradient>
</defs>
</svg>
