<svg width="491" height="486" viewBox="0 0 491 486" fill="none" xmlns="http://www.w3.org/2000/svg">
<path d="M71.2221 142.444C31.948 142.444 0 110.496 0 71.2221C0 31.948 31.948 0 71.2221 0C110.496 0 142.444 31.948 142.444 71.2221C142.444 110.496 110.496 142.444 71.2221 142.444ZM71.2221 15.9844C40.7623 15.9844 15.9844 40.7623 15.9844 71.2221C15.9844 101.682 40.7623 126.46 71.2221 126.46C101.682 126.46 126.46 101.682 126.46 71.2221C126.46 40.7623 101.682 15.9844 71.2221 15.9844Z" fill="url(#paint0_linear_864_236)"/>
<path d="M56.121 102.358C54.0709 102.358 52.0313 101.578 50.4703 100.017L34.3922 83.9389C31.2703 80.817 31.2703 75.7594 34.3922 72.6375C37.5142 69.5155 42.5718 69.5155 45.6937 72.6375L56.1106 83.0544L96.7376 42.4274C99.8596 39.3054 104.917 39.3054 108.039 42.4274C111.161 45.5493 111.161 50.6069 108.039 53.7288L61.7613 100.007C61.0244 100.753 60.1462 101.346 59.1778 101.75C58.2094 102.154 57.1702 102.361 56.121 102.358ZM202.697 140.051C201.635 140.051 200.574 139.843 199.564 139.406C198.189 138.821 197.005 137.861 196.15 136.635C195.294 135.409 194.8 133.968 194.725 132.475L193.612 111.152H172.039C167.627 111.152 164.047 107.572 164.047 103.16V10.3857C164.047 5.97339 167.627 2.39355 172.039 2.39355H313.401C317.813 2.39355 321.393 5.97339 321.393 10.3857V103.17C321.393 107.582 317.813 111.162 313.401 111.162H239.161L207.91 138.115C206.461 139.365 204.611 140.052 202.697 140.051ZM180.021 95.1779H201.188C205.444 95.1779 208.951 98.508 209.169 102.754L209.835 115.367L230.981 97.124C232.434 95.8727 234.288 95.1856 236.206 95.1883H305.409V18.3884H180.021V95.1779Z" fill="url(#paint1_linear_864_236)"/>
<path d="M285.379 50.3262H200.056C195.644 50.3262 192.064 46.7463 192.064 42.334C192.064 37.9216 195.644 34.3418 200.056 34.3418H285.379C289.791 34.3418 293.371 37.9216 293.371 42.334C293.371 46.7463 289.791 50.3262 285.379 50.3262ZM285.379 79.2146H200.056C195.644 79.2146 192.064 75.6348 192.064 71.2224C192.064 66.8101 195.644 63.2303 200.056 63.2303H285.379C289.791 63.2303 293.371 66.8101 293.371 71.2224C293.371 75.6348 289.791 79.2146 285.379 79.2146ZM245.803 409.496C221.702 409.496 200.462 396.738 189.004 375.373C186.913 371.481 188.38 366.642 192.272 364.551C196.164 362.459 201.003 363.926 203.095 367.818C211.732 383.907 227.696 393.512 245.813 393.512H245.845C263.973 393.501 279.936 383.875 288.553 367.777C290.634 363.885 295.484 362.417 299.365 364.499C303.257 366.58 304.725 371.429 302.643 375.311C291.196 396.696 269.967 409.475 245.855 409.496H245.803ZM246.885 357.266H244.825C226.853 357.266 210.64 349.107 197.933 333.674C187.412 320.885 179.68 303.392 176.152 284.4C170.481 253.846 175.861 218.745 200.68 209.192C201.755 208.775 202.907 208.598 204.058 208.672C205.208 208.745 206.328 209.068 207.341 209.619C232.181 223.012 259.54 223.012 284.38 209.629C285.394 209.084 286.514 208.763 287.664 208.69C288.813 208.616 289.964 208.791 291.04 209.202C315.86 218.755 321.229 253.857 315.558 284.41C312.03 303.402 304.288 320.895 293.767 333.685C281.071 349.107 264.857 357.266 246.885 357.266ZM244.825 341.282H246.885C275.795 341.282 294.318 311.248 299.854 281.486C304.589 256.032 299.605 233.033 288.23 225.613C260.757 239.069 230.974 239.069 203.501 225.603C192.126 233.012 187.142 256.011 191.866 281.475C197.392 311.238 215.916 341.271 244.825 341.282Z" fill="url(#paint2_linear_864_236)"/>
<path d="M395.251 485.235H96.4805C92.0681 485.235 88.4883 481.655 88.4883 477.243V468.543C88.4883 438.374 96.7823 416.208 113.839 400.776C128.491 387.507 147.243 381.451 163.779 376.102C191.544 367.131 205.988 361.377 205.093 338.482C204.927 334.07 208.361 330.355 212.773 330.188C217.175 330.022 220.901 333.456 221.067 337.868C221.702 354.196 216.28 366.497 204.51 375.467C194.76 382.897 182.095 386.987 168.691 391.316C137.118 401.525 104.473 412.077 104.473 468.543V469.25H387.259V468.543C387.259 412.087 354.614 401.525 323.04 391.316C309.637 386.987 296.983 382.887 287.221 375.457C275.441 366.486 270.03 354.186 270.665 337.858C270.831 333.446 274.536 329.97 278.959 330.178C283.371 330.344 286.805 334.06 286.639 338.472C285.754 361.366 300.198 367.121 327.963 376.091C344.499 381.44 363.241 387.497 377.904 400.765C394.96 416.198 403.254 438.364 403.254 468.522V477.222C403.243 481.655 399.664 485.235 395.251 485.235ZM309.637 271.402C307.42 271.402 305.214 270.486 303.643 268.696C300.729 265.387 301.041 260.35 304.34 257.426C305.495 256.396 332.094 232.201 316.058 206.101C311.635 198.9 300.562 193.28 284.901 190.304C267.439 186.984 261.143 181.313 257.146 175.995C255.586 177.265 253.754 179.044 252.776 179.991C251.891 180.855 251.048 181.667 250.289 182.343C243.483 188.327 233.794 189.055 226.177 184.154C220.328 180.387 210.442 175.454 196.487 173.3C196.337 174.431 195.954 175.519 195.363 176.495C191.721 182.395 187.829 187.692 184.062 192.822C167.921 214.811 159.034 226.925 187.6 253.732C188.365 254.45 188.982 255.313 189.414 256.27C189.846 257.227 190.086 258.26 190.119 259.309C190.151 260.359 189.977 261.404 189.606 262.387C189.234 263.369 188.673 264.268 187.954 265.033C187.235 265.799 186.373 266.415 185.416 266.848C184.459 267.28 183.426 267.519 182.376 267.552C181.327 267.585 180.281 267.411 179.299 267.039C178.317 266.668 177.417 266.106 176.652 265.387C137.763 228.881 154.746 205.737 171.168 183.363C174.456 178.888 177.839 174.268 180.929 169.408C181.72 165.911 183.625 162.914 186.528 160.635C190.014 157.898 194.187 156.795 198.568 157.451C215.479 160 227.613 166.067 234.814 170.709C236.406 171.739 238.279 171.593 239.705 170.344C240.173 169.928 240.881 169.252 241.62 168.523C246.615 163.674 253.452 157.024 261.215 159.137C265.649 160.344 267.824 163.445 269.26 165.495C271.154 168.201 273.745 171.905 287.866 174.59C302.113 177.306 320.928 183.519 329.649 197.724C348.141 227.82 328.088 257.769 314.892 269.393C313.451 270.693 311.577 271.409 309.637 271.402Z" fill="url(#paint3_linear_864_236)"/>
<path d="M333.936 485.234C329.524 485.234 325.944 481.655 325.944 477.242V438.936C325.944 434.524 329.524 430.944 333.936 430.944C338.348 430.944 341.928 434.524 341.928 438.936V477.242C341.928 481.655 338.348 485.234 333.936 485.234ZM157.785 485.234C153.373 485.234 149.793 481.655 149.793 477.242V438.936C149.793 434.524 153.373 430.944 157.785 430.944C162.198 430.944 165.777 434.524 165.777 438.936V477.242C165.777 481.655 162.198 485.234 157.785 485.234ZM419.301 142.444C380.026 142.444 348.078 110.496 348.078 71.2221C348.078 31.948 380.026 0 419.301 0C458.575 0 490.523 31.948 490.523 71.2221C490.523 110.496 458.575 142.444 419.301 142.444ZM419.301 15.9844C388.841 15.9844 364.063 40.7623 364.063 71.2221C364.063 101.682 388.841 126.46 419.301 126.46C449.76 126.46 474.538 101.682 474.538 71.2221C474.538 40.7623 449.76 15.9844 419.301 15.9844Z" fill="url(#paint4_linear_864_236)"/>
<path d="M396.996 101.526C394.946 101.526 392.906 100.745 391.345 99.1843C388.223 96.0624 388.223 91.0048 391.345 87.8829L435.958 43.2702C439.08 40.1482 444.138 40.1482 447.259 43.2702C450.381 46.3921 450.381 51.4497 447.259 54.5716L402.647 99.1843C401.905 99.9272 401.025 100.516 400.055 100.918C399.085 101.32 398.046 101.527 396.996 101.526Z" fill="url(#paint5_linear_864_236)"/>
<path d="M441.609 101.526C439.559 101.526 437.519 100.745 435.958 99.1843L391.345 54.5716C388.223 51.4497 388.223 46.3921 391.345 43.2702C394.467 40.1482 399.525 40.1482 402.647 43.2702L447.259 87.8829C450.381 91.0048 450.381 96.0624 447.259 99.1843C446.518 99.9272 445.637 100.516 444.668 100.918C443.698 101.32 442.658 101.527 441.609 101.526Z" fill="url(#paint6_linear_864_236)"/>
<defs>
<linearGradient id="paint0_linear_864_236" x1="5.08238" y1="9.181" x2="140.762" y2="164.895" gradientUnits="userSpaceOnUse">
<stop stop-color="#1BA2D7"/>
<stop offset="1" stop-color="#8D3DFA"/>
</linearGradient>
<linearGradient id="paint1_linear_864_236" x1="42.3745" y1="11.266" x2="136.025" y2="237.175" gradientUnits="userSpaceOnUse">
<stop stop-color="#1BA2D7"/>
<stop offset="1" stop-color="#8D3DFA"/>
</linearGradient>
<linearGradient id="paint2_linear_864_236" x1="179.215" y1="58.5217" x2="444.788" y2="175.125" gradientUnits="userSpaceOnUse">
<stop stop-color="#1BA2D7"/>
<stop offset="1" stop-color="#8D3DFA"/>
</linearGradient>
<linearGradient id="paint3_linear_864_236" x1="99.719" y1="178.405" x2="413.614" y2="524.147" gradientUnits="userSpaceOnUse">
<stop stop-color="#1BA2D7"/>
<stop offset="1" stop-color="#8D3DFA"/>
</linearGradient>
<linearGradient id="paint4_linear_864_236" x1="161.95" y1="31.275" x2="617.873" y2="398.695" gradientUnits="userSpaceOnUse">
<stop stop-color="#1BA2D7"/>
<stop offset="1" stop-color="#8D3DFA"/>
</linearGradient>
<linearGradient id="paint5_linear_864_236" x1="391.166" y1="44.8344" x2="448.886" y2="111.077" gradientUnits="userSpaceOnUse">
<stop stop-color="#1BA2D7"/>
<stop offset="1" stop-color="#8D3DFA"/>
</linearGradient>
<linearGradient id="paint6_linear_864_236" x1="391.166" y1="44.8344" x2="448.886" y2="111.077" gradientUnits="userSpaceOnUse">
<stop stop-color="#1BA2D7"/>
<stop offset="1" stop-color="#8D3DFA"/>
</linearGradient>
</defs>
</svg>
