<svg width="435" height="264" viewBox="0 0 435 264" fill="none" xmlns="http://www.w3.org/2000/svg">
<path d="M174.639 19.167C168.447 10.751 155.567 20.079 161.687 28.575L175.791 47.999C181.999 56.431 194.847 47.071 188.735 38.591L174.639 19.167ZM225.359 31.887V7.887C225.183 -2.625 209.535 -2.633 209.359 7.887V31.887C209.535 42.399 225.183 42.407 225.359 31.887ZM260.079 19.167L245.983 38.591C239.879 47.063 252.703 56.447 258.927 47.999L273.031 28.567C279.135 20.087 266.287 10.727 260.087 19.175L260.079 19.167ZM161.359 111.887C161.359 142.767 186.479 167.887 217.359 167.887C291.551 165.071 291.527 58.687 217.359 55.887C186.479 55.887 161.359 81.007 161.359 111.887ZM217.359 71.887C239.415 71.887 257.359 89.831 257.359 111.887C255.479 164.823 179.231 164.815 177.359 111.887C177.359 89.831 195.303 71.887 217.359 71.887Z" fill="url(#paint0_linear_864_199)"/>
<path d="M243.575 164.367C239.079 162.679 233.767 165.823 233.063 170.575C232.445 174.293 230.527 177.671 227.651 180.108C224.775 182.544 221.129 183.882 217.359 183.882C213.59 183.882 209.943 182.544 207.068 180.108C204.192 177.671 202.274 174.293 201.655 170.575C200.959 165.823 195.639 162.687 191.143 164.367C175.448 169.815 161.838 180.012 152.2 193.545C142.563 207.077 137.376 223.274 137.359 239.887C137.359 253.119 148.127 263.887 161.359 263.887H273.359C286.591 263.887 297.359 253.119 297.359 239.887C297.359 205.879 275.743 175.527 243.575 164.367ZM273.359 247.887H161.359C156.951 247.887 153.359 244.303 153.359 239.887C153.371 227.967 156.711 216.286 163.004 206.162C169.297 196.037 178.292 187.871 188.975 182.583C199.751 205.335 234.975 205.327 245.743 182.583C256.427 187.871 265.422 196.037 271.715 206.162C278.007 216.286 281.348 227.967 281.359 239.887C281.359 244.303 277.767 247.887 273.359 247.887Z" fill="url(#paint1_linear_864_199)"/>
<path d="M300.72 159.887C292.335 159.955 284.202 157.021 277.792 151.615C276.167 150.264 274.074 149.611 271.969 149.799C269.864 149.986 267.919 150.999 266.558 152.615C265.197 154.232 264.531 156.321 264.705 158.427C264.88 160.533 265.88 162.484 267.488 163.855C280.712 175.215 300.44 178.927 316.944 173.263C315.652 174.399 314.77 175.928 314.432 177.615C313.92 180.589 312.462 183.317 310.273 185.395C308.085 187.472 305.284 188.787 302.288 189.143C301.244 189.262 300.233 189.586 299.314 190.096C298.394 190.606 297.585 191.293 296.931 192.116C296.277 192.939 295.792 193.883 295.503 194.894C295.214 195.905 295.128 196.963 295.248 198.007C299.536 214.263 322.952 199.023 326.976 189.591C346.376 199.335 358.864 219.655 358.72 241.247C358.72 243.008 358.02 244.697 356.775 245.942C355.53 247.187 353.841 247.887 352.08 247.887H310.08C299.6 248.047 299.544 263.711 310.08 263.887H413.36C419.023 263.881 424.452 261.628 428.457 257.624C432.461 253.619 434.714 248.19 434.72 242.527C434.703 228.413 430.299 214.654 422.116 203.154C413.933 191.655 402.377 182.984 389.048 178.343C444.768 146.607 400.72 64.471 343.288 94.103C330.44 74.767 302.248 65.983 280.304 76.1589C279.34 76.581 278.47 77.1889 277.741 77.9479C277.013 78.7068 276.442 79.602 276.06 80.5821C275.678 81.5623 275.493 82.6081 275.515 83.6597C275.538 84.7114 275.768 85.7483 276.192 86.711C281.416 97.023 292.392 86.5269 300.72 87.8869C348.288 89.3909 348.288 158.391 300.72 159.887ZM354.928 184.551C354.776 183.671 354.368 182.911 353.952 182.151C362.315 184.46 371.15 184.443 379.504 182.103C379.038 182.857 378.702 183.685 378.512 184.551C376.48 197.647 356.968 197.639 354.928 184.551ZM390.944 196.559C399.317 200.97 406.328 207.581 411.223 215.681C416.117 223.781 418.709 233.063 418.72 242.527C418.72 245.487 416.32 247.887 413.36 247.887H373.608C376.696 235.391 372.752 221.727 367.936 210.447C372.631 210.261 377.203 208.89 381.226 206.462C385.249 204.034 388.592 200.627 390.944 196.559ZM352.72 123.887C352.72 118.503 351.896 113.303 350.368 108.415C370.744 95.519 399.36 111.663 398.72 135.887C399.016 165.807 359.96 179.359 341.72 155.759C348.847 146.663 352.719 135.442 352.72 123.887ZM344.528 178.327C343.296 178.727 342.288 179.223 341.248 179.639C335.408 176.175 329.296 171.855 322.44 171.079C325.12 169.831 327.696 168.407 330.104 166.743C334.115 171.504 339.014 175.438 344.528 178.327ZM0 242.527C0.0063523 248.19 2.25881 253.619 6.26321 257.624C10.2676 261.628 15.6969 263.881 21.36 263.887H124.64C135.136 263.711 135.176 248.071 124.64 247.887H82.64C80.879 247.887 79.1901 247.187 77.9448 245.942C76.6996 244.697 76 243.008 76 241.247C75.856 219.631 88.36 199.319 107.744 189.591C111.76 199.015 135.184 214.263 139.472 198.007C139.592 196.963 139.506 195.905 139.217 194.894C138.928 193.883 138.443 192.939 137.789 192.116C137.135 191.293 136.326 190.606 135.406 190.096C134.487 189.586 133.476 189.262 132.432 189.143C129.436 188.787 126.635 187.472 124.447 185.395C122.258 183.317 120.8 180.589 120.288 177.615C119.95 175.928 119.068 174.399 117.776 173.263C134.288 178.919 154 175.223 167.232 163.847C168.043 163.173 168.713 162.345 169.203 161.411C169.693 160.477 169.993 159.455 170.087 158.404C170.18 157.354 170.065 156.295 169.748 155.289C169.431 154.283 168.918 153.35 168.238 152.543C167.559 151.736 166.727 151.071 165.79 150.587C164.853 150.103 163.829 149.809 162.778 149.722C161.727 149.635 160.669 149.757 159.665 150.08C158.661 150.404 157.731 150.923 156.928 151.607C134.512 171.167 97.36 153.711 98 123.887C98 104.039 114.152 87.8869 134 87.8869C142.32 86.5109 153.328 97.031 158.528 86.711C162.8 73.687 142.688 72.3909 134 71.8869C116.4 71.8869 100.856 80.687 91.44 94.103C33.952 64.463 -10.016 146.647 45.672 178.343C32.3431 182.984 20.787 191.655 12.6041 203.154C4.42128 214.654 0.0165691 228.413 0 242.527ZM79.792 184.551C77.752 197.647 58.248 197.639 56.208 184.551C56.0177 183.685 55.6823 182.857 55.216 182.103C63.5703 184.444 72.405 184.46 80.768 182.151C80.36 182.911 79.944 183.671 79.792 184.551ZM104.616 166.743C107.032 168.407 109.608 169.839 112.296 171.079C105.432 171.847 99.336 176.175 93.48 179.639C92.44 179.223 91.424 178.727 90.36 178.351C95.789 175.4 100.623 171.467 104.616 166.751V166.743ZM36 135.887C35.36 111.663 63.976 95.511 84.352 108.415C79.144 124.175 82.872 143.271 93 155.759C74.752 179.359 35.704 165.799 36 135.887ZM43.776 196.559C46.1279 200.627 49.4709 204.034 53.4938 206.462C57.5167 208.89 62.0887 210.261 66.784 210.447C61.968 221.719 58.024 235.391 61.104 247.887H21.36C19.9384 247.887 18.5751 247.322 17.5699 246.317C16.5647 245.312 16 243.949 16 242.527C16.0108 233.063 18.603 223.781 23.4974 215.681C28.3918 207.581 35.403 200.97 43.776 196.559Z" fill="url(#paint2_linear_864_199)"/>
<defs>
<linearGradient id="paint0_linear_864_199" x1="164.165" y1="10.8209" x2="320.891" y2="133.552" gradientUnits="userSpaceOnUse">
<stop stop-color="#1BA2D7"/>
<stop offset="1" stop-color="#8D3DFA"/>
</linearGradient>
<linearGradient id="paint1_linear_864_199" x1="143.068" y1="170.35" x2="223.82" y2="318.658" gradientUnits="userSpaceOnUse">
<stop stop-color="#1BA2D7"/>
<stop offset="1" stop-color="#8D3DFA"/>
</linearGradient>
<linearGradient id="paint2_linear_864_199" x1="15.5107" y1="84.259" x2="139.282" y2="405.872" gradientUnits="userSpaceOnUse">
<stop stop-color="#1BA2D7"/>
<stop offset="1" stop-color="#8D3DFA"/>
</linearGradient>
</defs>
</svg>
