<svg width="496" height="496" viewBox="0 0 496 496" fill="none" xmlns="http://www.w3.org/2000/svg">
<path d="M248 312C283.288 312 312 283.288 312 248C312 212.712 283.288 184 248 184C212.712 184 184 212.712 184 248C184 283.288 212.712 312 248 312ZM248 200C274.472 200 296 221.528 296 248C296 274.472 274.472 296 248 296C221.528 296 200 274.472 200 248C200 221.528 221.528 200 248 200Z" fill="white"/>
<path d="M248 280C265.648 280 280 265.648 280 248C280 230.352 265.648 216 248 216C230.352 216 216 230.352 216 248C216 265.648 230.352 280 248 280ZM248 232C256.824 232 264 239.176 264 248C264 256.824 256.824 264 248 264C239.176 264 232 256.824 232 248C232 239.176 239.176 232 248 232Z" fill="white"/>
<path d="M195.44 342.512L209.424 335.824C210.672 336.376 211.928 336.904 213.192 337.392L218.336 352H277.656L282.816 337.392C284.072 336.896 285.328 336.376 286.584 335.824L300.568 342.512L342.52 300.56L335.832 286.576C336.384 285.328 336.912 284.072 337.4 282.808L352 277.664V218.344L337.392 213.184C336.893 211.918 336.37 210.662 335.824 209.416L342.512 195.432L300.56 153.48L286.576 160.168C285.333 159.615 284.076 159.092 282.808 158.6L277.664 144H218.344L213.184 158.608C211.928 159.104 210.672 159.624 209.416 160.176L195.432 153.488L153.48 195.44L160.168 209.424C159.615 210.667 159.092 211.924 158.6 213.192L144 218.336V277.656L158.608 282.816C159.104 284.072 159.624 285.328 160.176 286.584L153.488 300.568L195.44 342.512ZM160 266.336V229.656L171.136 225.728L172.392 222.064C173.44 219 174.728 215.912 176.216 212.888L177.92 209.408L172.816 198.736L198.752 172.8L209.424 177.904L212.904 176.2C215.88 174.735 218.945 173.458 222.08 172.376L225.744 171.12L229.664 160H266.344L270.272 171.136L273.936 172.392C277 173.44 280.088 174.728 283.112 176.216L286.592 177.92L297.264 172.816L323.2 198.752L318.096 209.424L319.8 212.904C321.288 215.928 322.568 219.016 323.624 222.08L324.88 225.744L336 229.664V266.344L324.864 270.272L323.608 273.936C322.529 277.073 321.252 280.138 319.784 283.112L318.08 286.592L323.184 297.264L297.248 323.2L286.576 318.096L283.096 319.8C280.12 321.265 277.055 322.542 273.92 323.624L270.256 324.88L266.336 336H229.656L225.728 324.864L222.064 323.608C218.927 322.529 215.862 321.252 212.888 319.784L209.408 318.08L198.736 323.184L172.8 297.248L177.904 286.576L176.2 283.096C174.735 280.12 173.458 277.055 172.376 273.92L171.12 270.256L160 266.336ZM104 368H24C10.768 368 0 378.768 0 392V472C0 485.232 10.768 496 24 496H104C117.232 496 128 485.232 128 472V392C128 378.768 117.232 368 104 368ZM112 472C112 476.408 108.408 480 104 480H24C19.592 480 16 476.408 16 472V392C16 387.592 19.592 384 24 384H104C108.408 384 112 387.592 112 392V472ZM472 184H392C378.768 184 368 194.768 368 208V288C368 301.232 378.768 312 392 312H472C485.232 312 496 301.232 496 288V208C496 194.768 485.232 184 472 184ZM480 288C480 292.408 476.408 296 472 296H392C387.592 296 384 292.408 384 288V208C384 203.592 387.592 200 392 200H472C476.408 200 480 203.592 480 208V288ZM72 128H152C165.232 128 176 117.232 176 104V24C176 10.768 165.232 0 152 0H72C58.768 0 48 10.768 48 24V104C48 117.232 58.768 128 72 128ZM64 24C64 19.592 67.592 16 72 16H152C156.408 16 160 19.592 160 24V104C160 108.408 156.408 112 152 112H72C67.592 112 64 108.408 64 104V24Z" fill="white"/>
<path d="M47.9997 444.688L37.6557 434.344L26.3437 445.656L47.9997 467.312L101.656 413.656L90.3437 402.344L47.9997 444.688ZM149.656 45.6557L138.344 34.3438L95.9997 76.6878L85.6557 66.3438L74.3437 77.6557L95.9997 99.3117L149.656 45.6557ZM416 260.688L405.656 250.344L394.344 261.656L416 283.312L469.656 229.656L458.344 218.344L416 260.688ZM366.056 352.24L369.936 367.76L415.408 356.392C378.68 413.288 316.152 448 248 448C218.728 448 190.52 441.824 164.168 429.64L157.456 444.16C185.827 457.304 216.732 464.076 248 464C320.472 464 387.032 427.68 426.936 367.968L432.064 408.992L447.936 407.008L438.816 334.048L366.056 352.24ZM87.7837 281.856L72.2237 278.136L62.4637 318.984C52.8957 295.304 47.9997 271.504 47.9997 248C47.9997 218.48 54.2797 190.056 66.6637 163.504L52.1597 156.736C38.8092 185.304 31.9257 216.466 31.9997 248C31.9997 273.464 37.2397 299.152 47.4797 324.632L11.8637 304.992L4.13574 319.008L70.1997 355.424L87.7837 281.856ZM260.44 65.3438L234.424 47.9997H248C284.614 47.9406 320.539 57.9563 351.841 76.9501C383.143 95.944 408.616 123.184 425.472 155.688L439.656 148.288C402.272 76.5598 328.832 31.9998 248 31.9998H234.424L260.44 14.6558L251.568 1.34375L193.576 39.9997L251.56 78.6557L260.44 65.3438Z" fill="white"/>
</svg>
