<svg width="495" height="494" viewBox="0 0 495 494" fill="none" xmlns="http://www.w3.org/2000/svg">
<path d="M492.151 319.042C488.659 308.757 480.333 301.292 468.707 298.023C456.214 294.512 439.982 295.642 420.456 301.387L331.781 327.474C327.202 318.201 318.807 310.868 308.053 307.995L244.967 291.141C198.856 258.886 174.161 268.183 137.857 285.97C117.753 295.818 97.4245 305.471 76.7185 315.252L75.0885 311.546C70.3105 300.683 57.5785 295.724 46.7115 300.49L12.9165 315.314C7.61951 317.638 3.55451 321.864 1.47051 327.213C-0.613491 332.562 -0.478491 338.425 1.85051 343.72L62.2945 481.13C65.8385 489.191 73.7585 494 82.0495 494C84.9345 494 87.8655 493.417 90.6705 492.187L124.465 477.363C129.762 475.039 133.828 470.813 135.912 465.464C137.996 460.115 137.861 454.252 135.532 448.957L129.634 435.548L159.792 420.858C167.873 416.92 176.002 416.222 184.637 418.722L255.542 439.252C260.759 440.763 266.146 441.409 271.613 441.409C290.49 441.408 310.274 433.693 326.902 427.208C328.365 426.638 329.8 426.078 331.204 425.536L464.209 374.169C485.798 365.831 499.116 339.555 492.151 319.042ZM122.867 460.381C122.141 462.243 120.712 463.721 118.841 464.542L85.0475 479.366C81.2375 481.033 76.7825 479.299 75.1085 475.494L14.6645 338.084C13.8425 336.215 13.7895 334.159 14.5155 332.296C15.2415 330.434 16.6705 328.955 18.5405 328.135L52.3345 313.311C53.2863 312.892 54.3147 312.676 55.3545 312.676C58.2575 312.676 61.0325 314.361 62.2745 317.183L122.719 454.593C123.54 456.462 123.593 458.518 122.867 460.381ZM459.166 361.108L326.161 412.475C324.742 413.023 323.293 413.588 321.815 414.164C302.341 421.759 278.107 431.21 259.436 425.804L188.531 405.274C176.577 401.813 164.845 402.821 153.66 408.271L123.993 422.723L82.3575 328.072C103.23 318.213 123.721 308.484 144.016 298.542C177.875 281.953 197.429 274.634 237.912 303.295C238.59 303.775 239.348 304.131 240.15 304.345L304.439 321.521C316.78 324.818 324.137 337.54 320.841 349.88C317.543 362.221 304.818 369.578 292.48 366.281L207.042 343.456C206.15 343.208 205.218 343.139 204.3 343.254C203.382 343.368 202.496 343.663 201.692 344.123C200.889 344.582 200.184 345.196 199.62 345.929C199.055 346.662 198.642 347.499 198.403 348.393C198.164 349.287 198.105 350.22 198.229 351.137C198.352 352.054 198.657 352.937 199.124 353.736C199.592 354.534 200.213 355.232 200.951 355.789C201.69 356.346 202.532 356.751 203.429 356.981L288.867 379.806C308.67 385.1 329.077 373.29 334.367 353.493C335.46 349.415 335.848 345.179 335.513 340.97L424.407 314.82C453.74 306.191 474.11 309.451 478.895 323.545C483.431 336.904 473.658 355.511 459.166 361.108ZM246.985 71.034C266.571 71.034 282.505 55.1 282.505 35.514C282.505 15.931 266.571 0 246.985 0C227.399 0 211.465 15.932 211.465 35.515C211.466 55.1 227.4 71.034 246.985 71.034ZM246.985 14C258.851 14 268.505 23.651 268.505 35.515C268.505 47.381 258.852 57.035 246.985 57.035C235.118 57.035 225.465 47.382 225.465 35.515C225.466 23.651 235.119 14 246.985 14ZM231.026 173.981L227.096 183.961L190.693 186.184C189.29 186.27 187.946 186.776 186.835 187.636C185.724 188.497 184.897 189.671 184.463 191.008C184.029 192.344 184.007 193.78 184.4 195.13C184.793 196.479 185.583 197.678 186.668 198.572L214.812 221.768L205.677 257.077C205.325 258.438 205.39 259.873 205.865 261.195C206.34 262.518 207.202 263.667 208.339 264.493C209.476 265.319 210.836 265.784 212.24 265.827C213.645 265.869 215.03 265.488 216.216 264.733L246.973 245.134L277.731 264.733C278.916 265.488 280.301 265.869 281.706 265.827C283.11 265.784 284.47 265.319 285.607 264.493C286.744 263.667 287.606 262.518 288.081 261.195C288.556 259.873 288.621 258.438 288.27 257.077L279.135 221.768L307.279 198.572C308.363 197.678 309.153 196.479 309.546 195.13C309.939 193.78 309.917 192.344 309.483 191.008C309.049 189.671 308.222 188.497 307.111 187.636C306 186.776 304.656 186.27 303.254 186.184L266.851 183.961L262.921 173.983C289.952 171.435 315.691 162.065 315.691 142.171C315.691 104.288 284.871 73.468 246.988 73.468C209.103 73.468 178.281 104.288 178.281 142.171C178.278 162.059 204.006 171.43 231.026 173.981ZM284.656 199.075L266.787 213.803C265.758 214.65 264.993 215.774 264.581 217.041C264.17 218.308 264.128 219.667 264.462 220.957L270.263 243.376L250.734 230.932C249.61 230.215 248.305 229.834 246.972 229.834C245.638 229.834 244.333 230.215 243.21 230.932L223.683 243.375L229.483 220.957C229.816 219.667 229.774 218.308 229.363 217.041C228.951 215.774 228.186 214.65 227.158 213.803L209.289 199.075L232.402 197.664C233.732 197.583 235.011 197.123 236.09 196.34C237.168 195.556 238 194.481 238.489 193.241L246.972 171.697L255.457 193.242C255.945 194.482 256.777 195.557 257.855 196.34C258.933 197.123 260.212 197.583 261.543 197.664L284.656 199.075ZM246.985 87.468C277.148 87.468 301.688 112.008 301.688 142.171C301.688 150.979 282.669 158.668 257.559 160.374L253.484 150.026C252.969 148.718 252.072 147.596 250.91 146.805C249.748 146.013 248.375 145.59 246.97 145.591C245.564 145.591 244.191 146.014 243.029 146.805C241.868 147.596 240.971 148.719 240.457 150.027L236.383 160.372C211.286 158.663 192.277 150.975 192.277 142.171C192.278 112.008 216.819 87.468 246.985 87.468ZM59.0195 160.568C69.0675 164.267 82.4365 166.304 96.6655 166.304C123.531 166.304 154.904 158.912 154.904 138.081C154.904 107.239 130.801 81.921 100.445 79.966C115.587 78.098 127.348 65.154 127.348 49.516C127.348 32.6 113.584 18.837 96.6655 18.837C79.7475 18.837 65.9835 32.6 65.9835 49.516C65.9835 65.155 77.7455 78.098 92.8865 79.966C62.5255 81.918 38.4245 107.237 38.4245 138.081C38.4255 144.88 41.9985 154.301 59.0195 160.568ZM79.9835 49.516C79.9835 40.32 87.4665 32.837 96.6655 32.837C105.865 32.837 113.348 40.319 113.348 49.516C113.348 58.714 105.865 66.198 96.6655 66.198C87.4665 66.198 79.9835 58.714 79.9835 49.516ZM96.6655 93.845C121.059 93.845 140.903 113.69 140.903 138.081C140.903 144.809 122.735 152.304 96.6645 152.304C70.5935 152.304 52.4255 144.809 52.4255 138.081C52.4255 113.69 72.2715 93.845 96.6655 93.845ZM447.918 204.965C447.483 203.628 446.657 202.454 445.546 201.593C444.435 200.733 443.09 200.227 441.688 200.141L413.968 198.449L403.792 172.61C403.276 171.302 402.38 170.18 401.218 169.389C400.057 168.598 398.684 168.175 397.279 168.175C395.873 168.175 394.5 168.598 393.339 169.389C392.177 170.18 391.281 171.302 390.766 172.61L380.59 198.449L352.871 200.141C351.468 200.227 350.123 200.733 349.012 201.593C347.901 202.453 347.074 203.628 346.64 204.965C346.206 206.302 346.184 207.738 346.577 209.087C346.97 210.437 347.761 211.636 348.846 212.53L370.277 230.191L363.321 257.077C362.969 258.438 363.034 259.873 363.509 261.195C363.984 262.518 364.846 263.667 365.983 264.493C367.12 265.319 368.48 265.784 369.884 265.827C371.289 265.869 372.674 265.488 373.86 264.733L397.279 249.81L420.699 264.733C421.884 265.488 423.269 265.869 424.674 265.827C426.078 265.784 427.438 265.319 428.575 264.493C429.712 263.667 430.574 262.518 431.049 261.195C431.524 259.873 431.589 258.438 431.238 257.077L424.282 230.191L445.713 212.53C446.797 211.636 447.587 210.436 447.981 209.087C448.374 207.738 448.352 206.302 447.918 204.965ZM411.937 222.224C410.908 223.072 410.143 224.195 409.731 225.463C409.319 226.73 409.278 228.089 409.612 229.379L413.233 243.375L401.042 235.606C399.918 234.889 398.613 234.508 397.28 234.508C395.946 234.508 394.641 234.889 393.518 235.606L381.328 243.374L384.949 229.379C385.282 228.089 385.24 226.73 384.829 225.463C384.417 224.195 383.652 223.072 382.624 222.224L371.47 213.032L385.898 212.151C387.228 212.07 388.507 211.61 389.585 210.827C390.663 210.043 391.495 208.968 391.984 207.728L397.281 194.279L402.578 207.728C403.066 208.968 403.898 210.043 404.976 210.827C406.054 211.61 407.333 212.07 408.664 212.151L423.093 213.032L411.937 222.224ZM147.302 204.965C146.867 203.628 146.041 202.454 144.93 201.593C143.819 200.733 142.474 200.227 141.072 200.141L113.353 198.449L103.178 172.61C102.662 171.303 101.765 170.181 100.603 169.39C99.4416 168.599 98.0688 168.176 96.6635 168.176C95.2582 168.176 93.8854 168.599 92.7236 169.39C91.5619 170.181 90.665 171.303 90.1495 172.61L79.9745 198.449L52.2555 200.141C50.8527 200.227 49.5082 200.733 48.3969 201.593C47.2856 202.453 46.4591 203.628 46.0248 204.965C45.5905 206.302 45.5687 207.738 45.9621 209.087C46.3555 210.437 47.1459 211.636 48.2305 212.53L69.6615 230.191L62.7055 257.077C62.3536 258.438 62.4194 259.873 62.8943 261.195C63.3692 262.518 64.2313 263.667 65.3684 264.493C66.5054 265.319 67.8647 265.784 69.2695 265.827C70.6742 265.869 72.0593 265.488 73.2445 264.733L96.6635 249.81L120.084 264.733C121.269 265.488 122.654 265.869 124.059 265.827C125.463 265.784 126.823 265.319 127.96 264.493C129.097 263.667 129.959 262.518 130.434 261.195C130.909 259.873 130.974 258.438 130.623 257.077L123.667 230.191L145.097 212.529C146.181 211.636 146.972 210.436 147.365 209.087C147.758 207.738 147.736 206.301 147.302 204.965ZM111.321 222.225C110.292 223.073 109.527 224.196 109.115 225.463C108.704 226.73 108.662 228.089 108.996 229.379L112.617 243.375L100.426 235.606C99.3018 234.889 97.9965 234.508 96.6635 234.508C95.3305 234.508 94.0252 234.889 92.9015 235.606L80.7115 243.374L84.3325 229.379C84.666 228.089 84.6244 226.73 84.2126 225.463C83.8007 224.195 83.0358 223.072 82.0075 222.224L70.8535 213.032L85.2815 212.151C86.6119 212.07 87.8914 211.61 88.9697 210.827C90.048 210.043 90.8802 208.968 91.3685 207.728L96.6645 194.279L101.961 207.728C102.449 208.968 103.281 210.043 104.359 210.827C105.438 211.61 106.717 212.07 108.048 212.151L122.477 213.032L111.321 222.225ZM359.635 160.568C369.683 164.267 383.052 166.304 397.281 166.304C424.146 166.304 455.519 158.912 455.519 138.081C455.519 107.239 431.416 81.921 401.06 79.966C416.202 78.098 427.963 65.154 427.963 49.516C427.963 32.6 414.199 18.837 397.281 18.837C380.363 18.837 366.6 32.6 366.6 49.516C366.6 65.155 378.362 78.098 393.503 79.966C363.142 81.918 339.041 107.237 339.041 138.081C339.041 144.88 342.614 154.301 359.635 160.568ZM380.6 49.516C380.6 40.32 388.083 32.837 397.282 32.837C406.481 32.837 413.964 40.319 413.964 49.516C413.964 58.714 406.481 66.198 397.282 66.198C388.083 66.198 380.6 58.714 380.6 49.516ZM397.281 93.845C421.674 93.845 441.518 113.69 441.518 138.081C441.518 144.809 423.35 152.304 397.28 152.304C371.209 152.304 353.041 144.809 353.041 138.081C353.041 113.69 372.887 93.845 397.281 93.845Z" fill="white"/>
</svg>
