<svg width="512" height="512" viewBox="0 0 512 512" fill="none" xmlns="http://www.w3.org/2000/svg">
<path d="M302 120H370.785L276.395 214.395L297.605 235.605L392 141.215V210H422V90H302V120ZM452 0V30H482V60H512V0H452ZM482 390H452V420H512V360H482V390ZM482 90H512V150H482V90ZM482 180H512V240H482V180ZM482 270H512V330H482V270ZM122 30H152V0H92V60H122V30ZM92 90H122V150H92V90ZM92 180H122V240H92V180ZM182 0H242V30H182V0ZM272 0H332V30H272V0ZM362 0H422V30H362V0ZM272 390H332V420H272V390ZM362 390H422V420H362V390ZM0 512H240V272H0V512ZM30 302H210V482H30V302Z" fill="url(#paint0_linear_1141_668)"/>
<defs>
<linearGradient id="paint0_linear_1141_668" x1="376.491" y1="493.489" x2="85.4975" y2="18.9999" gradientUnits="userSpaceOnUse">
<stop offset="0.0001" stop-color="#BE42B1"/>
<stop offset="1" stop-color="#3B4BAA"/>
</linearGradient>
</defs>
</svg>
