<svg width="497" height="497" viewBox="0 0 497 497" fill="none" xmlns="http://www.w3.org/2000/svg">
<path d="M266.802 251.473C274.728 247.323 281.035 240.636 284.713 232.48C288.391 224.324 289.229 215.171 287.093 206.483C284.956 197.795 279.968 190.074 272.927 184.554C265.886 179.035 257.197 176.035 248.25 176.035C239.303 176.035 230.614 179.035 223.573 184.554C216.532 190.074 211.544 197.795 209.407 206.483C207.271 215.171 208.109 224.324 211.787 232.48C215.465 240.636 221.772 247.323 229.698 251.473C218.762 255.321 209.289 262.465 202.582 271.921C195.876 281.377 192.266 292.68 192.25 304.273C192.25 306.394 193.093 308.429 194.593 309.93C196.093 311.43 198.128 312.273 200.25 312.273H296.25C298.372 312.273 300.407 311.43 301.907 309.93C303.407 308.429 304.25 306.394 304.25 304.273C304.234 292.68 300.624 281.377 293.918 271.921C287.211 262.465 277.738 255.321 266.802 251.473ZM248.25 192.273C252.997 192.273 257.637 193.68 261.584 196.317C265.53 198.955 268.607 202.703 270.423 207.088C272.24 211.474 272.715 216.299 271.789 220.955C270.863 225.61 268.577 229.887 265.221 233.243C261.864 236.6 257.588 238.886 252.932 239.812C248.277 240.738 243.451 240.262 239.066 238.446C234.68 236.629 230.932 233.553 228.295 229.606C225.658 225.66 224.25 221.02 224.25 216.273C224.25 209.908 226.779 203.803 231.279 199.302C235.78 194.801 241.885 192.273 248.25 192.273ZM209.05 296.273C210.886 287.23 215.792 279.101 222.936 273.262C230.08 267.423 239.023 264.233 248.25 264.233C257.477 264.233 266.42 267.423 273.564 273.262C280.708 279.101 285.614 287.23 287.45 296.273H209.05Z" fill="white"/>
<path d="M416.248 336.272C397.798 336.258 379.915 342.651 365.656 354.36L327.144 315.848C342.364 298.126 351.139 275.775 352.04 252.432L433.736 249.408C436.014 256.793 440.906 263.095 447.495 267.133C454.084 271.172 461.919 272.671 469.534 271.349C477.148 270.027 484.02 265.976 488.863 259.953C493.706 253.93 496.188 246.349 495.845 238.628C495.501 230.908 492.356 223.577 486.997 218.008C481.638 212.439 474.433 209.014 466.732 208.374C459.03 207.734 451.359 209.923 445.154 214.531C438.95 219.139 434.637 225.85 433.024 233.408L351.52 236.424C349.774 221.275 344.719 206.696 336.711 193.718C328.704 180.741 317.941 169.683 305.184 161.328L320.472 133.536C331.851 137.508 344.308 137.06 355.372 132.28C366.436 127.5 375.301 118.738 380.209 107.73C385.118 96.7221 385.711 84.2719 381.872 72.8471C378.033 61.4222 370.041 51.8568 359.482 46.0465C348.922 40.2363 336.565 38.6054 324.859 41.4772C313.154 44.3489 302.954 51.5136 296.283 61.5512C289.611 71.5888 286.954 83.7667 288.838 95.6711C290.723 107.576 297.011 118.338 306.456 125.824L291.16 153.632C273.172 145.395 253.196 142.498 233.609 145.286C214.021 148.074 195.647 156.43 180.672 169.36L142.16 130.848C155.173 114.933 161.571 94.6248 160.031 74.1245C158.491 53.6243 149.13 34.5003 133.885 20.7082C118.64 6.91615 98.6768 -0.488794 78.1252 0.0250608C57.5736 0.538915 38.0057 8.93226 23.469 23.469C8.93225 38.0057 0.538915 57.5736 0.0250607 78.1252C-0.488794 98.6768 6.91615 118.64 20.7082 133.885C34.5003 149.13 53.6243 158.491 74.1246 160.031C94.6248 161.571 114.933 155.173 130.848 142.16L169.36 180.672C159.169 192.438 151.781 206.363 147.752 221.398C143.724 236.434 143.16 252.187 146.104 267.472L75.8401 286.384C71.3861 277.741 63.9146 271.034 54.8431 267.535C45.7716 264.037 35.7313 263.99 26.6274 267.403C17.5235 270.817 9.9893 277.453 5.45444 286.054C0.919579 294.654 -0.300426 304.62 2.02591 314.061C4.35224 323.501 10.0631 331.759 18.0747 337.268C26.0864 342.777 35.8416 345.153 45.4892 343.946C55.1368 342.738 64.0056 338.032 70.4128 330.718C76.82 323.405 80.3198 313.995 80.2481 304.272C80.2481 303.472 80.0561 302.672 80.0001 301.872L150.312 282.944C158.406 305.67 174.121 324.893 194.784 337.344L177.848 371.152C164.393 366.646 149.731 367.404 136.813 373.273C123.895 379.142 113.679 389.687 108.222 402.785C102.765 415.883 102.473 430.561 107.403 443.866C112.333 457.172 122.12 468.115 134.794 474.495C147.468 480.874 162.088 482.216 175.712 478.25C189.336 474.284 200.951 465.305 208.221 453.12C215.491 440.934 217.875 426.448 214.893 412.575C211.912 398.703 203.786 386.475 192.152 378.352L209.048 344.544C226.716 351.787 246.044 353.997 264.891 350.929C283.737 347.86 301.366 339.634 315.824 327.16L354.336 365.672C342.857 379.737 336.505 397.289 336.326 415.443C336.147 433.597 342.151 451.271 353.35 465.559C364.55 479.848 380.278 489.9 397.949 494.062C415.621 498.224 434.182 496.249 450.582 488.462C466.981 480.674 480.242 467.538 488.184 451.212C496.127 434.887 498.277 416.345 494.282 398.636C490.286 380.926 480.384 365.103 466.202 353.769C452.02 342.435 434.403 336.264 416.248 336.272ZM464.248 224.272C467.413 224.272 470.506 225.21 473.137 226.969C475.768 228.727 477.819 231.226 479.03 234.149C480.241 237.073 480.558 240.29 479.941 243.394C479.323 246.497 477.799 249.348 475.562 251.586C473.324 253.823 470.473 255.347 467.37 255.965C464.266 256.582 461.049 256.265 458.125 255.054C455.202 253.843 452.703 251.792 450.945 249.161C449.186 246.53 448.248 243.437 448.248 240.272C448.248 236.029 449.934 231.959 452.934 228.958C455.935 225.958 460.005 224.272 464.248 224.272ZM336.248 56.2721C342.577 56.2721 348.764 58.1488 354.026 61.665C359.289 65.1812 363.39 70.179 365.812 76.0262C368.234 81.8734 368.868 88.3076 367.633 94.515C366.398 100.722 363.351 106.424 358.875 110.899C354.4 115.375 348.698 118.422 342.491 119.657C336.284 120.892 329.849 120.258 324.002 117.836C318.155 115.414 313.157 111.313 309.641 106.05C306.125 100.788 304.248 94.6011 304.248 88.2721C304.248 79.7851 307.62 71.6458 313.621 65.6446C319.622 59.6435 327.761 56.2721 336.248 56.2721ZM40.2481 328.272C35.5013 328.272 30.8612 326.864 26.9144 324.227C22.9676 321.59 19.8915 317.842 18.075 313.456C16.2585 309.071 15.7832 304.245 16.7092 299.59C17.6353 294.934 19.921 290.658 23.2775 287.302C26.634 283.945 30.9104 281.659 35.5659 280.733C40.2214 279.807 45.047 280.282 49.4325 282.099C53.8179 283.915 57.5662 286.992 60.2033 290.938C62.8405 294.885 64.2481 299.525 64.2481 304.272C64.2481 310.637 61.7195 316.742 57.2186 321.243C52.7178 325.743 46.6133 328.272 40.2481 328.272ZM200.248 424.272C200.248 432.183 197.902 439.917 193.507 446.495C189.112 453.073 182.864 458.2 175.555 461.227C168.246 464.255 160.204 465.047 152.444 463.503C144.685 461.96 137.558 458.15 131.964 452.556C126.37 446.962 122.56 439.835 121.017 432.076C119.473 424.316 120.265 416.274 123.293 408.965C126.32 401.656 131.447 395.409 138.025 391.013C144.603 386.618 152.337 384.272 160.248 384.272C170.853 384.285 181.02 388.503 188.518 396.002C196.017 403.501 200.235 413.667 200.248 424.272ZM16.2481 80.2721C16.2232 69.8733 18.7326 59.6252 23.559 50.4143C28.3855 41.2035 35.3836 33.3074 43.948 27.4094C52.5123 21.5114 62.3848 17.789 72.7112 16.5644C83.0376 15.3399 93.5068 16.65 103.213 20.3814C112.919 24.1127 121.57 30.153 128.417 37.9796C135.264 45.8061 140.1 55.1832 142.508 65.2993C144.916 75.4154 144.823 85.9659 142.237 96.0379C139.65 106.11 134.648 115.4 127.664 123.104C128.033 122.205 128.231 121.244 128.248 120.272C128.268 113.966 127.037 107.719 124.626 101.892C122.214 96.0656 118.671 90.7754 114.2 86.3281C111.012 83.1403 107.393 80.4151 103.448 78.2321C107.772 73.6989 110.67 67.9962 111.783 61.8313C112.896 55.6664 112.175 49.3104 109.709 43.5514C107.244 37.7924 103.142 32.8838 97.9128 29.4342C92.6835 25.9847 86.5567 24.1459 80.2921 24.1459C74.0275 24.1459 67.9007 25.9847 62.6714 29.4342C57.4421 32.8838 53.3403 37.7924 50.8747 43.5514C48.4091 49.3104 47.6882 55.6664 48.8012 61.8313C49.9142 67.9962 52.8123 73.6989 57.1361 78.2321C49.6042 82.3699 43.3213 88.4539 38.9435 95.8489C34.5656 103.244 32.2533 111.678 32.2481 120.272C32.2643 121.234 32.4541 122.185 32.8081 123.08C22.1593 111.365 16.2556 96.1037 16.2481 80.2721ZM80.2481 72.2721C77.0836 72.2721 73.9901 71.3337 71.3589 69.5756C68.7278 67.8175 66.677 65.3186 65.466 62.395C64.255 59.4714 63.9381 56.2543 64.5555 53.1506C65.1729 50.0469 66.6967 47.196 68.9344 44.9584C71.172 42.7207 74.0229 41.1969 77.1266 40.5795C80.2303 39.9621 83.4474 40.279 86.371 41.49C89.2946 42.701 91.7935 44.7518 93.5516 47.3829C95.3097 50.0141 96.2481 53.1076 96.2481 56.2721C96.2481 60.5155 94.5624 64.5852 91.5618 67.5858C88.5612 70.5864 84.4915 72.2721 80.2481 72.2721ZM80.2481 88.2721C87.3424 88.272 94.2355 90.6295 99.8441 94.9738C105.453 99.3181 109.458 105.403 111.232 112.272H49.2561C51.0387 105.406 55.0481 99.326 60.6563 94.9831C66.2645 90.6401 73.1549 88.2799 80.2481 88.2721ZM37.4481 127.712C38.3397 128.067 39.2885 128.257 40.2481 128.272H120.248C121.222 128.259 122.186 128.063 123.088 127.696C111.379 138.349 96.118 144.252 80.2881 144.252C64.4582 144.252 49.1972 138.349 37.4881 127.696L37.4481 127.712ZM160.248 248.272C160.248 230.867 165.409 213.853 175.079 199.382C184.748 184.91 198.492 173.631 214.572 166.971C230.652 160.31 248.346 158.567 265.416 161.963C282.486 165.358 298.166 173.74 310.473 186.047C322.781 198.354 331.162 214.034 334.557 231.104C337.953 248.174 336.21 265.868 329.549 281.948C322.889 298.028 311.61 311.772 297.138 321.441C282.667 331.111 265.653 336.272 248.248 336.272C224.917 336.245 202.55 326.964 186.053 310.467C169.556 293.97 160.276 271.603 160.248 248.272ZM373.448 463.712C374.34 464.067 375.288 464.257 376.248 464.272H456.248C457.222 464.259 458.186 464.063 459.088 463.696C447.379 474.349 432.118 480.252 416.288 480.252C400.458 480.252 385.197 474.349 373.488 463.696L373.448 463.712ZM416.248 408.272C413.084 408.272 409.99 407.334 407.359 405.576C404.728 403.817 402.677 401.319 401.466 398.395C400.255 395.471 399.938 392.254 400.556 389.151C401.173 386.047 402.697 383.196 404.934 380.958C407.172 378.721 410.023 377.197 413.127 376.579C416.23 375.962 419.447 376.279 422.371 377.49C425.295 378.701 427.794 380.752 429.552 383.383C431.31 386.014 432.248 389.108 432.248 392.272C432.248 396.516 430.562 400.585 427.562 403.586C424.561 406.586 420.492 408.272 416.248 408.272ZM416.248 424.272C423.342 424.272 430.236 426.629 435.844 430.974C441.453 435.318 445.459 441.403 447.232 448.272H385.256C387.039 441.406 391.048 435.326 396.656 430.983C402.265 426.64 409.155 424.28 416.248 424.272ZM463.656 459.104C464.028 458.205 464.229 457.245 464.248 456.272C464.268 449.966 463.037 443.719 460.626 437.892C458.214 432.066 454.671 426.775 450.2 422.328C447.012 419.14 443.393 416.415 439.448 414.232C443.772 409.699 446.67 403.996 447.783 397.831C448.896 391.666 448.175 385.31 445.709 379.551C443.244 373.792 439.142 368.884 433.913 365.434C428.683 361.985 422.557 360.146 416.292 360.146C410.028 360.146 403.901 361.985 398.671 365.434C393.442 368.884 389.34 373.792 386.875 379.551C384.409 385.31 383.688 391.666 384.801 397.831C385.914 403.996 388.812 409.699 393.136 414.232C385.604 418.37 379.321 424.454 374.943 431.849C370.566 439.244 368.253 447.678 368.248 456.272C368.264 457.234 368.454 458.185 368.808 459.08C360.489 449.899 355.014 438.5 353.048 426.267C351.081 414.035 352.707 401.494 357.729 390.168C362.751 378.842 370.952 369.216 381.337 362.46C391.723 355.704 403.846 352.108 416.236 352.108C428.626 352.108 440.749 355.704 451.135 362.46C461.52 369.216 469.722 378.842 474.743 390.168C479.765 401.494 481.391 414.035 479.425 426.267C477.458 438.5 471.983 449.899 463.664 459.08L463.656 459.104Z" fill="white"/>
</svg>
