<svg width="498" height="498" viewBox="0 0 498 498" fill="none" xmlns="http://www.w3.org/2000/svg">
<path fill-rule="evenodd" clip-rule="evenodd" d="M287.161 371.384C340.146 386.623 380.026 432.78 386.04 489.06C386.159 490.181 386.042 491.314 385.695 492.385C385.348 493.457 384.78 494.444 384.026 495.282C383.273 496.12 382.352 496.79 381.323 497.249C380.294 497.708 379.18 497.945 378.054 497.945H119.891C118.764 497.945 117.65 497.708 116.621 497.249C115.591 496.79 114.67 496.119 113.917 495.281C113.164 494.443 112.596 493.455 112.249 492.383C111.903 491.31 111.786 490.177 111.906 489.056C117.95 432.774 157.839 386.619 210.807 371.382C189.56 358.43 175.327 335.027 175.327 308.411C175.327 267.838 208.401 234.731 248.973 234.731C289.582 234.731 322.652 267.84 322.652 308.411C322.652 335.027 308.419 358.432 287.161 371.384ZM248.973 382.091C189.234 382.091 139.538 425.12 129.165 481.882H368.786C358.441 425.119 308.742 382.091 248.973 382.091ZM248.973 366.028C280.729 366.028 306.59 340.137 306.59 308.411C306.59 276.685 280.729 250.794 248.973 250.794C217.248 250.794 191.39 276.686 191.39 308.411C191.39 340.136 217.248 366.028 248.973 366.028ZM351.649 139.538H480.465C490.058 139.538 497.945 147.424 497.945 157.018V266.892C497.945 276.557 490.048 284.416 480.465 284.416H351.649C342.065 284.416 334.168 276.557 334.168 266.892V157.018C334.168 147.424 342.054 139.538 351.649 139.538ZM481.882 212.459V157.018C481.882 156.24 481.243 155.601 480.465 155.601H351.649C350.871 155.601 350.231 156.24 350.231 157.018V220.451L381.035 197.115C382.647 195.894 384.661 195.326 386.673 195.524C388.686 195.722 390.549 196.673 391.892 198.185L412.908 221.859L451.537 186.598C452.365 185.842 453.342 185.269 454.405 184.913C455.468 184.558 456.593 184.429 457.709 184.535C458.825 184.64 459.906 184.979 460.884 185.527C461.861 186.076 462.713 186.823 463.384 187.72L481.882 212.459ZM350.231 240.602V266.892C350.231 267.687 350.861 268.353 351.649 268.353H480.465C481.253 268.353 481.882 267.687 481.882 266.892V239.282L455.824 204.433L404.397 251.376C401.123 254.365 396.039 254.133 393.05 250.859C390.062 247.585 390.294 242.501 393.567 239.513L401.044 232.689L384.812 214.406L350.231 240.602ZM413.178 199.429C407.421 199.429 402.762 194.771 402.762 189.058C402.762 183.344 407.421 178.642 413.178 178.642C418.891 178.642 423.55 183.344 423.55 189.058C423.55 194.771 418.891 199.429 413.178 199.429ZM17.4803 139.538H146.296C155.89 139.538 163.777 147.424 163.777 157.018V266.892C163.777 276.557 155.88 284.416 146.296 284.416H17.4803C7.89685 284.416 0 276.557 0 266.892V157.018C0 147.424 7.88681 139.538 17.4803 139.538ZM17.4803 155.601C16.7022 155.601 16.0627 156.24 16.0627 157.018V266.892C16.0627 267.687 16.6922 268.353 17.4803 268.353H146.296C147.085 268.353 147.714 267.687 147.714 266.892V157.018C147.714 156.24 147.075 155.601 146.296 155.601H17.4803ZM111.306 200.675C113.29 201.82 114.937 203.468 116.082 205.452C117.228 207.436 117.831 209.686 117.831 211.977C117.831 214.268 117.228 216.518 116.082 218.502C114.937 220.486 113.29 222.134 111.306 223.279L68.8479 247.793C66.8638 248.938 64.6133 249.541 62.3224 249.541C60.0316 249.541 57.7811 248.937 55.7972 247.792C53.8133 246.646 52.1658 244.999 51.0203 243.015C49.8748 241.031 49.2717 238.781 49.2715 236.49V187.464C49.272 185.174 49.8753 182.923 51.0209 180.94C52.1664 178.956 53.8139 177.308 55.7977 176.163C57.7815 175.018 60.0318 174.414 62.3226 174.414C64.6133 174.414 66.8638 175.016 68.8479 176.161L111.306 200.675ZM65.3342 231.273L98.7568 211.977L65.3342 192.681V231.273ZM270.98 14.6452C276.001 16.1428 280.854 18.1543 285.463 20.6477L294.754 16.5165C296.238 15.8569 297.887 15.6624 299.483 15.9586C301.079 16.2549 302.548 17.028 303.696 18.176L319.039 33.5189C320.186 34.6657 320.958 36.1328 321.255 37.727C321.552 39.3213 321.36 40.9681 320.703 42.4508L316.586 51.7451C319.085 56.3632 321.099 61.2277 322.595 66.2608L332.068 69.9061C333.583 70.489 334.886 71.5172 335.805 72.8552C336.723 74.1932 337.215 75.7782 337.215 77.4014V99.1041C337.215 100.727 336.724 102.313 335.805 103.651C334.886 104.989 333.583 106.017 332.068 106.6L322.59 110.248C321.087 115.268 319.074 120.121 316.583 124.731L320.703 134.034C321.36 135.516 321.552 137.163 321.255 138.757C320.958 140.352 320.186 141.819 319.039 142.965L303.696 158.308C302.55 159.455 301.083 160.228 299.488 160.525C297.894 160.822 296.247 160.63 294.764 159.973L285.474 155.858C280.862 158.354 276.004 160.366 270.978 161.862L267.33 171.338C266.747 172.853 265.719 174.155 264.381 175.074C263.043 175.993 261.458 176.484 259.835 176.484H238.132C236.509 176.484 234.924 175.993 233.586 175.074C232.248 174.155 231.22 172.853 230.637 171.338L226.991 161.863C221.962 160.361 217.101 158.347 212.484 155.852L203.181 159.973C201.698 160.63 200.051 160.822 198.457 160.525C196.862 160.228 195.395 159.455 194.249 158.308L178.906 142.965C177.758 141.817 176.985 140.348 176.688 138.752C176.392 137.156 176.587 135.507 177.246 134.024L181.376 124.738C178.882 120.127 176.867 115.272 175.363 110.251L165.877 106.6C164.362 106.017 163.059 104.989 162.14 103.651C161.221 102.313 160.73 100.727 160.73 99.1041V77.4014C160.73 75.7782 161.222 74.1932 162.141 72.8552C163.059 71.5172 164.362 70.489 165.877 69.9061L175.36 66.2568C176.865 61.2286 178.881 56.3679 181.378 51.7512L177.246 42.4609C176.587 40.9773 176.392 39.3287 176.688 37.7324C176.985 36.1361 177.758 34.667 178.906 33.5189L194.249 18.176C195.397 17.028 196.866 16.2549 198.462 15.9586C200.059 15.6624 201.707 15.8569 203.191 16.5165L212.481 20.6477C217.092 18.1532 221.948 16.141 226.973 14.6432L230.639 5.14008C231.223 3.62695 232.251 2.32607 233.589 1.4086C234.926 0.491132 236.51 6.17046e-05 238.132 0H259.835C263.159 0 266.14 2.048 267.332 5.15112L270.98 14.6452ZM257.452 24.2226L254.317 16.0627H243.642L240.488 24.2327C240.019 25.4489 239.261 26.5327 238.279 27.3902C237.298 28.2478 236.122 28.8535 234.853 29.1549C228.605 30.6397 222.634 33.1142 217.167 36.4845C216.056 37.1694 214.794 37.573 213.491 37.6603C212.188 37.7476 210.884 37.516 209.691 36.9855L201.706 33.4346L194.165 40.9761L197.715 48.9613C198.246 50.1543 198.477 51.4586 198.39 52.7614C198.303 54.0641 197.899 55.3259 197.214 56.4375C193.84 61.9188 191.357 67.9014 189.86 74.1617C189.556 75.4277 188.949 76.6009 188.091 77.5801C187.233 78.5594 186.15 79.3152 184.934 79.7827L176.793 82.9169V93.5896L184.934 96.7238C186.149 97.191 187.231 97.946 188.089 98.9241C188.947 99.9022 189.554 101.074 189.859 102.339C191.364 108.591 193.831 114.576 197.208 120.037C197.896 121.149 198.302 122.413 198.39 123.718C198.479 125.023 198.247 126.329 197.715 127.524L194.165 135.508L201.712 143.056L209.701 139.516C210.89 138.99 212.189 138.76 213.487 138.846C214.784 138.932 216.041 139.332 217.15 140.011C222.632 143.37 228.596 145.864 234.869 147.35C236.14 147.651 237.318 148.257 238.302 149.116C239.285 149.975 240.044 151.061 240.514 152.28L243.647 160.422H254.32L257.454 152.28C257.922 151.062 258.681 149.977 259.663 149.118C260.646 148.259 261.822 147.653 263.092 147.351C269.337 145.872 275.305 143.4 280.767 140.029C281.878 139.342 283.139 138.936 284.442 138.847C285.745 138.758 287.05 138.987 288.244 139.516L296.233 143.056L303.786 135.503L300.247 127.513C299.72 126.324 299.49 125.025 299.576 123.728C299.662 122.431 300.062 121.174 300.742 120.065C304.101 114.582 306.595 108.617 308.081 102.362C308.383 101.092 308.99 99.9154 309.849 98.933C310.707 97.9506 311.793 97.1923 313.011 96.7238L321.153 93.5896V82.9169L313.011 79.7827C311.792 79.3139 310.706 78.5548 309.847 77.5713C308.987 76.5878 308.381 75.4095 308.08 74.1386C306.6 67.8845 304.126 61.9083 300.753 56.4375C300.069 55.3275 299.665 54.0677 299.577 52.7669C299.489 51.4661 299.719 50.1634 300.247 48.9713L303.786 40.9821L296.239 33.4346L288.254 36.9855C287.061 37.516 285.757 37.7476 284.454 37.6603C283.151 37.573 281.889 37.1694 280.778 36.4845C275.311 33.1142 269.34 30.6397 263.092 29.1549C261.822 28.8528 260.644 28.2459 259.662 27.3864C258.679 26.527 257.92 25.4411 257.452 24.2226ZM248.973 42.3565C274.325 42.3565 294.88 62.8897 294.88 88.2427C294.88 113.594 274.324 134.15 248.973 134.15C223.621 134.15 203.087 113.595 203.087 88.2427C203.087 62.8887 223.619 42.3565 248.973 42.3565ZM248.973 58.4192C232.494 58.4192 219.15 71.7643 219.15 88.2427C219.15 104.722 232.493 118.087 248.973 118.087C265.454 118.087 278.817 104.723 278.817 88.2427C278.817 71.7623 265.452 58.4192 248.973 58.4192ZM408.025 306.502C408.025 302.07 411.624 298.471 416.056 298.471C420.49 298.471 424.088 302.07 424.088 306.502V366.338C424.088 368.468 423.241 370.511 421.735 372.017C420.229 373.523 418.186 374.369 416.056 374.369H343.178C338.744 374.369 335.146 370.77 335.146 366.338C335.146 361.905 338.744 358.307 343.178 358.307H408.025V306.502ZM75.4206 306.502C75.4206 302.07 79.0187 298.471 83.452 298.471C87.8843 298.471 91.4834 302.07 91.4834 306.502V358.307H156.331C160.764 358.307 164.362 361.905 164.362 366.338C164.362 370.77 160.764 374.369 156.331 374.369H83.452C81.3219 374.369 79.2791 373.523 77.773 372.017C76.2668 370.511 75.4206 368.468 75.4206 366.338V306.502ZM240.941 188.531C240.941 184.099 244.54 180.5 248.973 180.5C253.405 180.5 257.004 184.099 257.004 188.531V222.684C257.004 227.116 253.405 230.715 248.973 230.715C244.54 230.715 240.941 227.116 240.941 222.684V188.531Z" fill="white"/>
</svg>
