<svg width="513" height="513" viewBox="0 0 513 513" fill="none" xmlns="http://www.w3.org/2000/svg">
<path d="M170.934 236.046L180.513 183.104C180.577 182.75 180.764 182.429 181.04 182.198C181.316 181.967 181.665 181.841 182.025 181.841C182.706 181.841 183.306 182.29 183.499 182.943L198.792 234.903C198.889 235.233 199.09 235.522 199.365 235.728C199.641 235.934 199.975 236.046 200.319 236.046C200.666 236.046 201.003 235.933 201.279 235.724C201.555 235.516 201.756 235.222 201.85 234.889L216.613 182.957C216.705 182.635 216.898 182.353 217.165 182.151C217.432 181.95 217.757 181.841 218.091 181.841H218.095C218.832 181.841 219.465 182.364 219.604 183.088L229.752 236.045M90.5451 181.841V236.046H109.542M139.418 181.841V236.046M256.34 181.841V236.046M361.138 181.841H338.298V236.046H361.138M358.584 208.943H338.429M281.29 181.843H311.223M296.196 183.573V236.044M386.451 336.394V282.189L423.515 336.06C423.586 336.163 423.681 336.247 423.791 336.305C423.902 336.363 424.024 336.393 424.149 336.393C424.353 336.393 424.549 336.312 424.693 336.168C424.837 336.023 424.918 335.828 424.918 335.624V282.189M280.629 282.19V336.394M110.918 282.19H88.0781V336.394H110.918M108.364 309.292H88.2081M198.825 282.19V336.394M224.76 282.191H254.693M239.666 283.922V336.393M422.451 208.973C422.451 223.925 414.153 235.815 400.987 236.045H385.218V181.84H400.537C414.978 181.841 422.451 194.022 422.451 208.973ZM172.231 309.322C172.231 324.274 163.933 336.164 150.767 336.394H134.998V282.189H150.317C164.758 282.19 172.231 294.37 172.231 309.322Z" stroke="white" stroke-width="15" stroke-miterlimit="10" stroke-linecap="round" stroke-linejoin="round"/>
<path d="M334.172 336.395C349.14 336.395 361.274 324.261 361.274 309.293C361.274 294.325 349.14 282.191 334.172 282.191C319.204 282.191 307.07 294.325 307.07 309.293C307.07 324.261 319.204 336.395 334.172 336.395Z" stroke="white" stroke-width="15" stroke-miterlimit="10" stroke-linecap="round" stroke-linejoin="round"/>
<path d="M451.013 101.834C484.807 144.277 505 198.03 505 256.5C505 393.743 393.743 505 256.5 505C119.257 505 8 393.743 8 256.5C8 119.257 119.257 8 256.5 8C322.568 8 382.614 33.783 427.125 75.836" stroke="white" stroke-width="15" stroke-miterlimit="10" stroke-linecap="round" stroke-linejoin="round"/>
<path d="M170.933 56.4604C148.641 66.0084 128.266 79.1734 110.547 95.2174H177.241M335.778 95.3924H402.472L402.451 95.2174C363.857 60.2714 312.664 38.9844 256.499 38.9844C238.421 38.9844 220.858 41.1894 204.065 45.3464M293.724 417.717L110.547 417.607L110.568 417.782C149.161 452.728 200.355 474.016 256.52 474.016C312.685 474.016 363.878 452.729 402.472 417.782L328.724 417.738" stroke="white" stroke-width="15" stroke-miterlimit="10" stroke-linecap="round" stroke-linejoin="round"/>
<path d="M51.9864 330.751C59.3641 351.049 69.7303 370.132 82.7424 387.37L430.258 387.372C457.729 350.957 474.017 305.631 474.017 256.502C474.017 207.371 457.728 162.045 430.256 125.629L313.491 125.631M199.509 125.63H82.7434L82.7444 125.629C55.2734 162.045 38.9844 207.371 38.9844 256.501C38.9844 270.332 40.2754 283.862 42.7434 296.976M255.104 134.702L232.491 146.59C230.29 147.747 227.718 145.878 228.138 143.427L232.457 118.247C232.539 117.767 232.504 117.275 232.354 116.813C232.203 116.35 231.943 115.931 231.594 115.592L213.3 97.7596C211.519 96.0236 212.502 92.9996 214.963 92.6426L240.245 88.9686C240.727 88.8986 241.184 88.7127 241.577 88.4268C241.971 88.1409 242.289 87.7637 242.504 87.3276L253.81 64.4186C254.91 62.1886 258.09 62.1886 259.19 64.4186L270.496 87.3276C270.712 87.7637 271.03 88.1409 271.423 88.4268C271.817 88.7127 272.274 88.8986 272.755 88.9686L298.037 92.6426C300.498 93.0006 301.48 96.0236 299.7 97.7596L281.406 115.592C281.058 115.931 280.798 116.35 280.647 116.813C280.497 117.275 280.461 117.767 280.543 118.247L284.862 143.427C285.282 145.878 282.71 147.747 280.509 146.59L257.896 134.702C257.466 134.475 256.987 134.357 256.5 134.357C256.014 134.357 255.535 134.475 255.104 134.702Z" stroke="white" stroke-width="15" stroke-miterlimit="10" stroke-linecap="round" stroke-linejoin="round"/>
</svg>
