<svg width="480" height="480" viewBox="0 0 480 480" fill="none" xmlns="http://www.w3.org/2000/svg">
<path d="M479.936 248.002C480.142 246.332 479.815 244.64 479.001 243.167C478.187 241.695 476.929 240.517 475.406 239.802L399.162 203.002L328.315 168.802L321.359 183.212L453.601 247.046L240.001 350.163L26.4011 247.047L158.641 183.207L151.685 168.797L5.15414 239.538C4.66551 239.742 4.19515 239.987 3.74814 240.271C2.46329 241.077 1.43411 242.232 0.780594 243.601C0.127082 244.97 -0.123821 246.496 0.0571442 248.002H0.00114445V269.959C0.0162403 274.469 1.29509 278.885 3.69259 282.705C6.0901 286.525 9.51029 289.597 13.5651 291.572L32.0011 300.472V368.002H48.0011V308.202L64.0011 315.926V392.002H80.0011V323.645L96.0011 331.369V396.689L82.3441 410.345C81.6013 411.088 81.012 411.97 80.61 412.94C80.208 413.911 80.0011 414.951 80.0011 416.002V456.002H96.0011V419.315L109.658 405.659C110.401 404.916 110.99 404.034 111.392 403.063C111.794 402.093 112.001 401.052 112.001 400.002V339.093L128.001 346.817V424.002H144.001V354.541L160.001 362.265V448.002H176.001V369.989L192.001 377.713V432.002H208.001V385.437L236.523 399.207C237.608 399.73 238.797 400.002 240.001 400.002C241.206 400.002 242.394 399.73 243.479 399.207L272.001 385.437V432.002H288.001V377.713L304.001 369.989V448.002H320.001V362.265L336.001 354.541V424.002H352.001V346.817L368.001 339.092V400.002C368.001 401.052 368.208 402.093 368.61 403.063C369.012 404.034 369.601 404.916 370.344 405.659L384.001 419.315V456.002H400.001V416.002C400.001 414.951 399.794 413.911 399.392 412.94C398.99 411.97 398.401 411.088 397.658 410.345L384.001 396.689V331.368L400.001 323.644V392.002H416.001V315.92L432.001 308.196V368.002H448.001V300.472L466.435 291.572C470.49 289.597 473.911 286.525 476.309 282.705C478.706 278.885 479.986 274.469 480.001 269.959V248.002H479.936ZM16.0011 269.96V259.792L232.001 364.067V379.257L20.5211 277.164C19.1699 276.505 18.0303 275.481 17.2314 274.208C16.4325 272.935 16.0063 271.463 16.0011 269.96ZM459.479 277.16L248.001 379.257V364.067L464.001 259.791V269.959C463.996 271.462 463.569 272.934 462.77 274.207C461.971 275.481 460.831 276.505 459.479 277.163V277.16ZM160.001 464.002H176.001V480.002H160.001V464.002Z" fill="white"/>
<path d="M32 384H48V400H32V384ZM304 464H320V480H304V464ZM432 384H448V400H432V384ZM240 264C241.051 264.001 242.092 263.795 243.062 263.392C244.033 262.99 244.915 262.4 245.657 261.656C249.346 257.968 336 170.458 336 96C336 70.5392 325.886 46.1212 307.882 28.1177C289.879 10.1143 265.461 0 240 0C214.539 0 190.121 10.1143 172.118 28.1177C154.114 46.1212 144 70.5392 144 96C144 170.458 230.654 257.968 234.343 261.656C235.085 262.4 235.967 262.99 236.938 263.392C237.908 263.795 238.949 264.001 240 264ZM240 16C261.21 16.0241 281.544 24.4604 296.542 39.4581C311.54 54.4557 319.976 74.7901 320 96C320 153.475 259.105 223.758 240 244.39C220.9 223.758 160 153.475 160 96C160.024 74.7901 168.46 54.4557 183.458 39.4581C198.456 24.4604 218.79 16.0241 240 16Z" fill="white"/>
<path d="M296 96C296 84.9243 292.716 74.0972 286.562 64.8881C280.409 55.6789 271.663 48.5013 261.43 44.2628C251.198 40.0243 239.938 38.9153 229.075 41.076C218.212 43.2368 208.234 48.5703 200.402 56.4021C192.57 64.2338 187.237 74.212 185.076 85.075C182.915 95.9379 184.024 107.198 188.263 117.43C192.501 127.663 199.679 136.409 208.888 142.562C218.097 148.716 228.924 152 240 152C254.847 151.983 269.081 146.078 279.579 135.579C290.078 125.081 295.983 110.847 296 96ZM200 96C200 88.0888 202.346 80.3552 206.741 73.7772C211.136 67.1993 217.384 62.0723 224.693 59.0448C232.002 56.0173 240.044 55.2252 247.804 56.7686C255.563 58.312 262.69 62.1217 268.284 67.7158C273.878 73.3099 277.688 80.4372 279.231 88.1964C280.775 95.9557 279.983 103.998 276.955 111.307C273.928 118.616 268.801 124.864 262.223 129.259C255.645 133.654 247.911 136 240 136C229.395 135.988 219.228 131.77 211.729 124.271C204.23 116.772 200.012 106.605 200 96Z" fill="white"/>
</svg>
