<svg width="461" height="411" viewBox="0 0 461 411" fill="none" xmlns="http://www.w3.org/2000/svg">
<path fill-rule="evenodd" clip-rule="evenodd" d="M237.908 292.915C248.923 292.915 257.884 301.057 257.884 311.077C257.884 321.097 248.923 329.245 237.908 329.245H202.544V242.626H237.908C248.923 242.626 257.884 250.773 257.884 260.793C257.884 270.808 248.923 278.961 237.908 278.961C236.072 278.983 234.319 279.728 233.029 281.034C231.739 282.34 231.015 284.102 231.015 285.938C231.015 287.774 231.739 289.536 233.029 290.842C234.319 292.148 236.072 292.893 237.908 292.915ZM271.838 260.793C271.838 244.891 259.565 231.651 243.521 229.111V220.226C243.521 216.374 240.395 213.249 236.544 213.249C232.693 213.249 229.566 216.374 229.566 220.226V228.671H219.435V220.226C219.434 218.375 218.699 216.601 217.391 215.293C216.083 213.985 214.309 213.25 212.458 213.249C211.543 213.249 210.636 213.429 209.789 213.78C208.943 214.131 208.174 214.645 207.527 215.292C206.879 215.94 206.366 216.71 206.016 217.556C205.666 218.402 205.486 219.31 205.487 220.226V228.671H195.567C193.717 228.673 191.944 229.408 190.636 230.716C189.329 232.025 188.595 233.799 188.595 235.648V336.221C188.595 338.071 189.33 339.844 190.637 341.152C191.944 342.46 193.717 343.196 195.567 343.198H205.487V351.644C205.486 352.56 205.666 353.467 206.016 354.313C206.366 355.16 206.879 355.929 207.527 356.577C208.174 357.225 208.943 357.739 209.789 358.089C210.636 358.44 211.543 358.62 212.458 358.62C214.309 358.62 216.083 357.884 217.391 356.576C218.699 355.268 219.434 353.494 219.435 351.644V343.198H229.566V351.644C229.567 353.494 230.302 355.268 231.611 356.577C232.919 357.885 234.694 358.62 236.544 358.62C238.394 358.62 240.168 357.884 241.477 356.576C242.785 355.268 243.52 353.494 243.521 351.644V342.747C259.564 340.207 271.838 326.985 271.838 311.076C271.838 300.897 266.823 291.826 258.996 285.932C266.822 280.05 271.838 270.96 271.838 260.793ZM230.217 372.943C278.188 372.943 317.228 333.915 317.228 285.932C317.228 237.96 278.188 198.926 230.217 198.926C182.239 198.926 143.212 237.96 143.212 285.932C143.212 333.915 182.239 372.943 230.217 372.943ZM230.217 184.973C174.548 184.973 129.257 230.264 129.257 285.933C129.257 341.606 174.548 386.898 230.217 386.898C285.891 386.898 331.182 341.607 331.182 285.933C331.182 230.264 285.892 184.973 230.217 184.973ZM329.004 176.351C319.517 175.386 310.397 172.658 301.806 168.216C300.161 167.365 298.922 165.897 298.36 164.133C297.798 162.37 297.959 160.455 298.808 158.81C300.588 155.386 304.791 154.045 308.214 155.814C320.041 161.929 337.549 165.878 350.239 159.683C358.181 155.756 359.644 150.698 359.949 147.092C359.68 143.599 358.24 138.67 350.193 134.532C339.685 129.373 331.011 133.805 315.894 126.83C301.899 119.461 298.709 109.259 298.493 102.001C298.493 101.837 298.493 101.661 298.504 101.492C298.843 93.8015 302.185 83.2594 316.11 76.6751C320.06 74.7315 324.381 73.4085 329.004 72.7245V65.2503C329.004 64.3343 329.185 63.4273 329.535 62.581C329.886 61.7348 330.4 60.9661 331.048 60.3186C331.696 59.6712 332.465 59.1578 333.312 58.8078C334.158 58.4578 335.066 58.2781 335.982 58.2789C337.83 58.2805 339.602 59.0156 340.909 60.3227C342.216 61.6297 342.951 63.402 342.952 65.2503V72.6139C352.972 73.644 361.91 76.331 370.104 80.767C371.732 81.6492 372.944 83.1413 373.473 84.9159C374.002 86.6904 373.805 88.6023 372.925 90.2318C372.043 91.8583 370.552 93.0683 368.778 93.5961C367.005 94.1239 365.095 93.9263 363.467 93.0468C355.525 88.7388 346.575 86.4799 336.127 86.1286C331.079 86.0744 325.986 87.3749 322.121 89.26C314.056 93.0642 312.679 97.9579 312.451 101.856C312.604 105.169 313.88 109.968 322.278 114.423C332.205 119.394 342.546 115.352 356.431 122.05C370.133 129.043 373.499 139.334 373.908 146.737C373.92 147.006 373.92 147.287 373.902 147.556C372.935 162.608 360.788 173.738 342.952 176.259V183.664C342.953 184.58 342.773 185.487 342.423 186.333C342.074 187.18 341.56 187.949 340.913 188.597C340.265 189.245 339.497 189.759 338.651 190.109C337.804 190.46 336.897 190.64 335.982 190.64C335.065 190.642 334.157 190.462 333.31 190.112C332.462 189.762 331.693 189.249 331.044 188.6C330.396 187.952 329.882 187.183 329.532 186.335C329.182 185.488 329.003 184.58 329.004 183.664V176.351ZM343.632 234.7C342.19 231.524 340.614 228.412 338.908 225.37C393.23 223.819 436.917 179.149 436.917 124.458C436.917 68.7841 391.65 23.4988 335.982 23.4988C280.308 23.4988 235.016 68.7841 235.016 124.458C235.018 137.341 237.481 150.105 242.274 162.063C238.805 161.729 235.324 161.54 231.839 161.496C227.613 149.638 225.477 137.2 225.477 124.458C225.477 63.5279 275.045 13.953 335.982 13.953C396.905 13.953 446.458 63.5279 446.458 124.458C446.457 183.235 401.67 230.796 343.632 234.7ZM248.97 124.458C248.97 76.4867 287.998 37.4467 335.982 37.4467C383.947 37.4467 422.987 76.4867 422.987 124.458C422.987 174.81 380.227 214.783 329.701 211.241C312.493 188.367 287.588 171.61 258.868 164.809C252.382 152.43 248.97 138.541 248.97 124.458ZM230.217 396.438C291.147 396.438 340.722 346.863 340.722 285.933C340.722 224.996 291.147 175.433 230.217 175.433C169.281 175.433 119.712 224.996 119.712 285.933C119.712 346.862 169.282 396.438 230.217 396.438ZM13.953 124.458C13.953 63.5279 63.5218 13.953 124.458 13.953C166.085 13.953 203.345 36.6572 222.478 73.4085C220.659 77.4308 219.061 81.5497 217.691 85.7467C202.473 49.236 166.418 23.4998 124.458 23.4998C68.7903 23.4998 23.4988 68.7852 23.4988 124.459C23.4988 179.15 67.2031 223.821 121.519 225.371C119.817 228.414 118.244 231.527 116.802 234.701C58.7581 230.796 13.953 183.235 13.953 124.458ZM130.727 211.241C80.2048 214.783 37.4528 174.809 37.4528 124.458C37.4528 76.4867 76.4805 37.4467 124.458 37.4467C172.429 37.4467 211.463 76.4867 211.463 124.458C211.463 138.552 208.045 152.43 201.56 164.809C172.846 171.61 147.946 188.368 130.727 211.241ZM335.982 0C291.405 0 252.236 23.5643 230.246 58.8698C207.563 22.3314 167.686 0 124.459 0C55.8326 0 0 55.8377 0 124.459C0 188.423 48.4137 241.788 111.594 248.257C107.808 260.149 105.765 272.804 105.765 285.933C105.765 354.565 161.591 410.392 230.218 410.392C298.839 410.392 354.677 354.565 354.677 285.933C354.677 272.804 352.623 260.15 348.836 248.257C412.045 241.787 460.448 188.361 460.448 124.459C460.446 55.8377 404.597 0 335.982 0ZM124.458 178.874L101.836 143.463L121.128 153.916C122.149 154.469 123.291 154.758 124.452 154.758C125.613 154.758 126.756 154.469 127.777 153.916L147.068 143.463L124.458 178.874ZM124.458 70.0488L91.3418 121.901L124.458 139.841L157.563 121.901L124.458 70.0488ZM173.36 120.706C174.074 121.828 174.453 123.131 174.453 124.461C174.453 125.791 174.074 127.094 173.36 128.216L130.335 195.584C127.581 199.901 121.303 199.87 118.57 195.584L75.5497 128.216C74.8331 127.095 74.4524 125.792 74.4524 124.461C74.4524 123.13 74.8331 121.827 75.5497 120.706L118.57 53.3258C121.303 49.0578 127.581 49.0271 130.335 53.3258L173.36 120.706Z" fill="white"/>
</svg>
