<svg width="488" height="512" viewBox="0 0 488 512" fill="none" xmlns="http://www.w3.org/2000/svg">
<path d="M106.29 227.281L101.496 229.915C89.5963 214.319 69.8307 205.013 48.1161 208.18C23.5483 211.759 3.83634 231.657 0.52486 256.266C-4.38043 292.726 25.7904 323.722 62.0474 320.283C86.8258 317.933 107.425 298.952 112.104 274.504C114.16 263.752 112.917 253.537 109.49 244.371L114.251 241.753C115.201 241.23 116.039 240.525 116.717 239.679C117.395 238.832 117.899 237.86 118.202 236.819C118.504 235.777 118.598 234.686 118.479 233.608C118.36 232.53 118.029 231.487 117.507 230.536C116.984 229.586 116.279 228.748 115.432 228.07C114.586 227.392 113.614 226.888 112.573 226.585C111.531 226.283 110.44 226.189 109.362 226.308C108.284 226.427 107.24 226.758 106.29 227.281ZM56.5476 304.027C34.4738 304.027 16.5166 286.099 16.5166 264.054C16.5166 242.009 34.4738 224.076 56.5476 224.076C78.6214 224.076 96.5827 242.009 96.5827 264.054C96.5827 286.099 78.6255 304.027 56.5476 304.027ZM436.439 158.611C410.472 157.942 388.617 176.349 383.885 200.785L296.49 182.931C296.7 180.726 296.845 178.508 296.845 176.27C296.835 165.506 294.31 154.893 289.47 145.278L348.383 97.8436C360.32 108.914 376.973 114.971 395.013 112.394C419.816 108.856 439.697 88.7102 442.864 63.8575C447.546 27.0885 416.579 -3.99483 379.814 0.419101C354.73 3.43329 334.336 23.4508 330.802 48.4645C328.983 61.1019 331.532 73.9817 338.028 84.9734L280.362 131.404C267.562 116.271 248.457 106.626 227.122 106.626C208.079 106.626 190.811 114.31 178.214 126.714L139.029 86.8397C148.939 75.8111 154.278 60.608 151.817 44.1745C148.414 21.4648 129.896 3.3631 107.116 0.443875C73.1256 -3.91638 44.3711 24.6648 48.4918 58.5889C51.2872 81.6083 69.6366 100.317 92.5858 103.657C104.168 105.381 115.994 103.136 126.138 97.2862L167.87 139.753C161.039 150.709 157.414 163.36 157.407 176.27C157.407 183.909 158.687 191.387 161.086 198.493L155.384 201.495C154.414 201.994 153.552 202.68 152.849 203.514C152.146 204.347 151.614 205.312 151.286 206.353C150.958 207.393 150.839 208.488 150.936 209.574C151.033 210.661 151.345 211.717 151.852 212.683C152.36 213.648 153.054 214.503 153.894 215.199C154.735 215.895 155.704 216.417 156.748 216.736C157.791 217.055 158.887 217.164 159.973 217.057C161.058 216.949 162.112 216.628 163.072 216.111L168.213 213.407C168.626 214.059 169.006 214.724 169.439 215.364C170.197 216.478 171.216 217.389 172.408 218.018C173.599 218.647 174.926 218.975 176.273 218.973C178.387 218.973 180.526 218.164 182.215 216.45C184.936 213.688 185.229 209.212 183.049 206.008C175.249 194.525 172.255 180.499 174.82 166.398C178.709 145.03 195.902 127.882 217.278 124.03C257.958 116.705 292.431 155.927 276.245 197.312C274.99 200.516 272.934 203.316 271.055 206.198C270.444 207.136 270.031 208.19 269.84 209.293C269.649 210.397 269.684 211.527 269.944 212.617C270.203 213.706 270.682 214.732 271.35 215.63C272.018 216.529 272.861 217.283 273.83 217.846C277.756 220.137 282.752 218.44 285.267 214.654C288.476 209.804 291.061 204.568 292.959 199.071L383.41 217.548C386.783 243.049 408.634 262.807 435.064 262.807C464.545 262.807 488.399 238.243 487.177 208.526C486.074 181.477 463.497 159.308 436.439 158.611ZM386.775 16.5182C408.849 16.5182 426.806 34.4506 426.806 56.4955C426.806 78.5404 408.849 96.4687 386.775 96.4687C364.701 96.4687 346.744 78.5363 346.744 56.4955C346.744 34.4547 364.701 16.5182 386.775 16.5182ZM100.258 87.6986C80.6033 87.6986 64.6157 71.7316 64.6157 52.1105C64.6157 32.4852 80.6074 16.5182 100.258 16.5182C119.908 16.5182 135.899 32.4852 135.899 52.1105C135.899 71.7316 119.912 87.6986 100.258 87.6986ZM435.068 246.286C415.414 246.286 399.427 230.319 399.427 210.698C399.427 191.073 415.418 175.106 435.068 175.106C454.718 175.106 470.71 191.073 470.71 210.698C470.71 230.324 454.718 246.286 435.068 246.286ZM409.658 402.636C405.1 402.636 401.38 398.937 401.38 394.378C401.38 389.82 405.059 386.12 409.617 386.12H409.658C411.848 386.12 413.949 386.99 415.498 388.539C417.046 390.088 417.916 392.188 417.916 394.378C417.916 396.569 417.046 398.669 415.498 400.218C413.949 401.766 411.848 402.636 409.658 402.636Z" fill="url(#paint0_linear_1125_228)"/>
<path d="M134 230.521C138.704 230.521 142.518 226.707 142.518 222.003C142.518 217.298 138.704 213.484 134 213.484C129.295 213.484 125.482 217.298 125.482 222.003C125.482 226.707 129.295 230.521 134 230.521Z" fill="url(#paint1_linear_1125_228)"/>
<path d="M324.534 512.001H247.354C237.221 512.026 227.281 509.231 218.646 503.929C210.01 498.626 203.021 491.026 198.458 481.978L132.728 352.682C124.875 335.84 131.341 315.983 147.32 307.221C163.832 298.154 184.729 304.248 193.887 320.802L193.978 320.967V182.686C193.978 163.143 209.854 147.246 229.368 147.246C246.714 147.246 262.512 161.405 262.512 176.946V250.332C267.559 247.389 273.297 245.841 279.14 245.847C293.996 245.847 306.602 255.687 310.797 269.197C316.177 265.661 322.477 263.781 328.915 263.788C346.571 263.788 361.369 276.27 364.974 292.885C370.212 289.616 376.265 287.886 382.44 287.893C401.978 287.893 417.875 303.811 417.875 323.378V366.122C417.875 368.312 417.005 370.413 415.456 371.961C413.908 373.51 411.807 374.38 409.617 374.38C407.427 374.38 405.326 373.51 403.778 371.961C402.229 370.413 401.359 368.312 401.359 366.122V323.382C401.359 312.924 392.87 304.414 382.44 304.414C378.025 304.426 373.795 306.188 370.678 309.314C367.561 312.441 365.811 316.676 365.812 321.091V349.189C365.812 351.379 364.942 353.479 363.393 355.028C361.845 356.577 359.744 357.447 357.554 357.447C355.364 357.447 353.263 356.577 351.715 355.028C350.166 353.479 349.296 351.379 349.296 349.189V300.743C349.296 289.475 340.154 280.304 328.911 280.304C324.496 280.315 320.265 282.077 317.148 285.204C314.031 288.33 312.281 292.566 312.283 296.981V325.265C312.283 327.455 311.413 329.556 309.865 331.105C308.316 332.653 306.215 333.523 304.025 333.523C301.835 333.523 299.735 332.653 298.186 331.105C296.637 329.556 295.767 327.455 295.767 325.265V279.037C295.767 269.841 288.306 262.364 279.14 262.364C269.973 262.364 262.512 269.845 262.512 279.037V298.682C262.512 300.873 261.642 302.973 260.093 304.522C258.544 306.07 256.444 306.941 254.254 306.941C252.064 306.941 249.963 306.07 248.415 304.522C246.866 302.973 245.996 300.873 245.996 298.682V176.946C245.996 171.636 239.014 163.762 229.368 163.762C218.959 163.762 210.494 172.252 210.494 182.686V352.938C210.492 354.767 209.882 356.544 208.761 357.989C207.639 359.435 206.07 360.467 204.299 360.925C202.528 361.382 200.655 361.239 198.974 360.518C197.293 359.797 195.899 358.538 195.011 356.939L179.436 328.8C174.671 320.186 163.828 317.007 155.26 321.702C146.887 326.293 143.513 336.727 147.576 345.452L213.182 474.493C216.371 480.817 221.256 486.13 227.292 489.836C233.328 493.543 240.276 495.497 247.358 495.48H324.538C366.898 495.48 401.363 460.945 401.363 418.499C401.363 416.309 402.233 414.208 403.782 412.659C405.33 411.111 407.431 410.241 409.621 410.241C411.811 410.241 413.912 411.111 415.46 412.659C417.009 414.208 417.879 416.309 417.879 418.499C417.875 470.058 376.003 512.001 324.534 512.001Z" fill="url(#paint2_linear_1125_228)"/>
<defs>
<linearGradient id="paint0_linear_1125_228" x1="17.384" y1="25.9513" x2="384.564" y2="535.875" gradientUnits="userSpaceOnUse">
<stop stop-color="#1BA2D7"/>
<stop offset="1" stop-color="#8D3DFA"/>
</linearGradient>
<linearGradient id="paint1_linear_1125_228" x1="126.09" y1="214.582" x2="142.317" y2="233.206" gradientUnits="userSpaceOnUse">
<stop stop-color="#1BA2D7"/>
<stop offset="1" stop-color="#8D3DFA"/>
</linearGradient>
<linearGradient id="paint2_linear_1125_228" x1="139.684" y1="170.756" x2="488.78" y2="487.627" gradientUnits="userSpaceOnUse">
<stop stop-color="#1BA2D7"/>
<stop offset="1" stop-color="#8D3DFA"/>
</linearGradient>
</defs>
</svg>
