<svg width="432" height="452" viewBox="0 0 432 452" fill="none" xmlns="http://www.w3.org/2000/svg">
<path d="M322.992 338.637C325.065 336.559 326.68 334.07 327.732 331.33C328.783 328.59 329.249 325.66 329.098 322.729C328.947 319.798 328.183 316.932 326.856 314.314C325.529 311.696 323.667 309.386 321.392 307.533C313.192 300.829 300.552 301.749 292.648 309.661L247.232 355.077C242.388 359.894 238.547 365.624 235.933 371.935C233.318 378.246 231.982 385.013 232 391.845V451.973H240V391.853C240 380.101 244.576 369.053 252.888 360.741L298.304 315.325C303.344 310.293 311.256 309.589 316.328 313.733C317.741 314.876 318.897 316.304 319.722 317.924C320.547 319.544 321.022 321.319 321.117 323.134C321.211 324.949 320.922 326.764 320.27 328.46C319.617 330.157 318.615 331.697 317.328 332.981L299.848 350.461C293.392 356.917 292.272 367.029 297.224 373.997C299.791 377.665 303.651 380.226 308.028 381.167C312.405 382.108 316.976 381.358 320.824 379.069L378.08 345.341C381.728 343.189 383.984 339.229 383.984 335.005V292.837C383.984 286.525 388.264 281.069 393.936 280.149C395.661 279.848 397.43 279.927 399.121 280.383C400.812 280.838 402.382 281.658 403.722 282.785C405.062 283.911 406.14 285.318 406.879 286.905C407.618 288.492 408 290.222 408 291.973V347.485C408 351.509 406 355.245 402.648 357.477L324.48 409.525C320.639 412.078 317.489 415.542 315.311 419.608C313.133 423.674 311.996 428.216 312 432.829V451.973H320V432.821C320 426.117 323.336 419.893 328.92 416.173L407.088 364.133C409.835 362.311 412.087 359.837 413.644 356.931C415.2 354.026 416.013 350.781 416.008 347.485V291.973C416.006 289.064 415.371 286.191 414.146 283.553C412.921 280.915 411.136 278.575 408.914 276.698C406.693 274.82 404.089 273.449 401.284 272.68C398.479 271.911 395.54 271.762 392.672 272.245C383.168 273.797 376.008 282.645 376.008 292.829V334.997C376.007 335.693 375.825 336.376 375.48 336.981C375.135 337.585 374.639 338.09 374.04 338.445L316.784 372.173C314.658 373.433 312.135 373.844 309.719 373.322C307.304 372.799 305.175 371.383 303.76 369.357C301.04 365.533 301.792 359.845 305.52 356.117L322.992 338.637ZM47.328 272.245C44.4603 271.764 41.5222 271.913 38.7181 272.683C35.914 273.452 33.3113 274.824 31.091 276.701C28.8708 278.579 27.0862 280.918 25.8616 283.555C24.637 286.192 24.0018 289.065 24 291.973V347.485C24 354.197 27.336 360.421 32.912 364.133L111.08 416.181C113.825 418.004 116.076 420.479 117.633 423.383C119.189 426.288 120.002 429.533 120 432.829V451.973H128V432.821C128.004 428.208 126.867 423.666 124.689 419.6C122.511 415.534 119.361 412.07 115.52 409.517L37.352 357.469C35.7038 356.377 34.3521 354.893 33.418 353.151C32.484 351.409 31.9968 349.462 32 347.485V291.973C32 284.853 38.312 278.901 46.04 280.141C51.712 281.061 56 286.517 56 292.829V334.997C56 339.229 58.264 343.189 61.904 345.333L119.168 379.069C123.016 381.35 127.584 382.095 131.958 381.155C136.332 380.214 140.189 377.658 142.76 373.997C147.72 367.029 146.592 356.909 140.144 350.461L122.664 332.981C121.38 331.696 120.379 330.155 119.728 328.459C119.077 326.763 118.789 324.949 118.883 323.134C118.977 321.32 119.452 319.545 120.275 317.926C121.099 316.306 122.253 314.878 123.664 313.733C128.728 309.581 136.648 310.285 141.688 315.325L187.104 360.741C191.203 364.817 194.452 369.665 196.664 375.006C198.877 380.346 200.008 386.072 199.992 391.853V451.973H207.992V391.853C208.011 385.021 206.675 378.254 204.06 371.942C201.446 365.631 197.605 359.901 192.76 355.085L147.344 309.669C139.44 301.757 126.808 300.829 118.6 307.541C116.325 309.394 114.463 311.704 113.136 314.322C111.809 316.94 111.045 319.806 110.894 322.737C110.743 325.668 111.209 328.598 112.26 331.338C113.312 334.078 114.927 336.567 117 338.645L134.48 356.125C138.2 359.853 138.96 365.541 136.232 369.373C134.815 371.394 132.688 372.806 130.275 373.328C127.863 373.85 125.342 373.443 123.216 372.189L65.96 338.461C65.3613 338.106 64.8651 337.601 64.5201 336.997C64.1751 336.392 63.9931 335.709 63.992 335.013V292.845C64 282.637 56.832 273.797 47.328 272.245ZM0 211.973C0 240.645 23.328 263.973 52 263.973C80.672 263.973 104 240.645 104 211.973C104 183.301 80.672 159.973 52 159.973C23.328 159.973 0 183.301 0 211.973ZM52 167.973C76.264 167.973 96 187.709 96 211.973C96 236.237 76.264 255.973 52 255.973C27.736 255.973 8 236.237 8 211.973C8 187.709 27.736 167.973 52 167.973Z" fill="url(#paint0_linear_1125_184)"/>
<path d="M36 223.973H40V227.973C40 234.589 45.384 239.973 52 239.973C58.616 239.973 64 234.589 64 227.973V223.973H68C74.616 223.973 80 218.589 80 211.973C80 205.357 74.616 199.973 68 199.973H64V195.973C64 189.357 58.616 183.973 52 183.973C45.384 183.973 40 189.357 40 195.973V199.973H36C29.384 199.973 24 205.357 24 211.973C24 218.589 29.384 223.973 36 223.973ZM36 207.973H44C45.0609 207.973 46.0783 207.551 46.8284 206.801C47.5786 206.051 48 205.034 48 203.973V195.973C48 194.912 48.4214 193.894 49.1716 193.144C49.9217 192.394 50.9391 191.973 52 191.973C53.0609 191.973 54.0783 192.394 54.8284 193.144C55.5786 193.894 56 194.912 56 195.973V203.973C56 205.034 56.4214 206.051 57.1716 206.801C57.9217 207.551 58.9391 207.973 60 207.973H68C69.0609 207.973 70.0783 208.394 70.8284 209.144C71.5786 209.894 72 210.912 72 211.973C72 213.034 71.5786 214.051 70.8284 214.801C70.0783 215.551 69.0609 215.973 68 215.973H60C58.9391 215.973 57.9217 216.394 57.1716 217.144C56.4214 217.894 56 218.912 56 219.973V227.973C56 229.034 55.5786 230.051 54.8284 230.801C54.0783 231.551 53.0609 231.973 52 231.973C50.9391 231.973 49.9217 231.551 49.1716 230.801C48.4214 230.051 48 229.034 48 227.973V219.973C48 218.912 47.5786 217.894 46.8284 217.144C46.0783 216.394 45.0609 215.973 44 215.973H36C34.9391 215.973 33.9217 215.551 33.1716 214.801C32.4214 214.051 32 213.034 32 211.973C32 210.912 32.4214 209.894 33.1716 209.144C33.9217 208.394 34.9391 207.973 36 207.973ZM380 159.973C351.328 159.973 328 183.301 328 211.973C328 240.645 351.328 263.973 380 263.973C408.672 263.973 432 240.645 432 211.973C432 183.301 408.672 159.973 380 159.973ZM380 255.973C355.736 255.973 336 236.237 336 211.973C336 187.709 355.736 167.973 380 167.973C404.264 167.973 424 187.709 424 211.973C424 236.237 404.264 255.973 380 255.973Z" fill="url(#paint1_linear_1125_184)"/>
<path d="M396 199.971H392V195.971C392 189.355 386.616 183.971 380 183.971C373.384 183.971 368 189.355 368 195.971V199.971H364C357.384 199.971 352 205.355 352 211.971C352 218.587 357.384 223.971 364 223.971H368V227.971C368 234.587 373.384 239.971 380 239.971C386.616 239.971 392 234.587 392 227.971V223.971H396C402.616 223.971 408 218.587 408 211.971C408 205.355 402.616 199.971 396 199.971ZM396 215.971H388C386.939 215.971 385.922 216.393 385.172 217.143C384.422 217.893 384 218.91 384 219.971V227.971C384 229.032 383.579 230.05 382.829 230.8C382.078 231.55 381.061 231.971 380 231.971C378.939 231.971 377.922 231.55 377.172 230.8C376.422 230.05 376 229.032 376 227.971V219.971C376 218.91 375.579 217.893 374.829 217.143C374.078 216.393 373.061 215.971 372 215.971H364C362.939 215.971 361.922 215.55 361.172 214.8C360.422 214.05 360 213.032 360 211.971C360 210.91 360.422 209.893 361.172 209.143C361.922 208.393 362.939 207.971 364 207.971H372C373.061 207.971 374.078 207.55 374.829 206.8C375.579 206.05 376 205.032 376 203.971V195.971C376 194.91 376.422 193.893 377.172 193.143C377.922 192.393 378.939 191.971 380 191.971C381.061 191.971 382.078 192.393 382.829 193.143C383.579 193.893 384 194.91 384 195.971V203.971C384 205.032 384.422 206.05 385.172 206.8C385.922 207.55 386.939 207.971 388 207.971H396C397.061 207.971 398.078 208.393 398.829 209.143C399.579 209.893 400 210.91 400 211.971C400 213.032 399.579 214.05 398.829 214.8C398.078 215.55 397.061 215.971 396 215.971ZM295.192 59.2352C285.457 68.9953 279.99 82.2179 279.99 96.0032C279.99 109.789 285.457 123.011 295.192 132.771C315.472 153.051 348.456 153.043 368.728 132.771C389 112.499 389 79.5072 368.728 59.2352C348.456 38.9633 315.472 38.9633 295.192 59.2352ZM363.08 127.123C345.92 144.283 318.008 144.283 300.856 127.123C283.704 109.963 283.696 82.0513 300.856 64.8993C309.114 56.6598 320.303 52.0325 331.968 52.0325C343.633 52.0325 354.822 56.6598 363.08 64.8993C371.318 73.1581 375.944 84.3466 375.944 96.0112C375.944 107.676 371.318 118.864 363.08 127.123Z" fill="url(#paint2_linear_1125_184)"/>
<path d="M347.968 84.0031H343.968V80.0031C343.968 73.3871 338.584 68.0031 331.968 68.0031C325.352 68.0031 319.968 73.3871 319.968 80.0031V84.0031H315.968C309.352 84.0031 303.968 89.3871 303.968 96.0031C303.968 102.619 309.352 108.003 315.968 108.003H319.968V112.003C319.968 118.619 325.352 124.003 331.968 124.003C338.584 124.003 343.968 118.619 343.968 112.003V108.003H347.968C354.584 108.003 359.968 102.619 359.968 96.0031C359.968 89.3871 354.584 84.0031 347.968 84.0031ZM347.968 100.003H339.968C338.907 100.003 337.89 100.424 337.14 101.175C336.39 101.925 335.968 102.942 335.968 104.003V112.003C335.968 113.064 335.547 114.081 334.796 114.831C334.046 115.582 333.029 116.003 331.968 116.003C330.907 116.003 329.89 115.582 329.14 114.831C328.39 114.081 327.968 113.064 327.968 112.003V104.003C327.968 102.942 327.547 101.925 326.796 101.175C326.046 100.424 325.029 100.003 323.968 100.003H315.968C314.907 100.003 313.89 99.5816 313.14 98.8315C312.39 98.0813 311.968 97.0639 311.968 96.0031C311.968 94.9422 312.39 93.9248 313.14 93.1746C313.89 92.4245 314.907 92.0031 315.968 92.0031H323.968C325.029 92.0031 326.046 91.5816 326.796 90.8315C327.547 90.0813 327.968 89.0639 327.968 88.0031V80.0031C327.968 78.9422 328.39 77.9248 329.14 77.1746C329.89 76.4245 330.907 76.0031 331.968 76.0031C333.029 76.0031 334.046 76.4245 334.796 77.1746C335.547 77.9248 335.968 78.9422 335.968 80.0031V88.0031C335.968 89.0639 336.39 90.0813 337.14 90.8315C337.89 91.5816 338.907 92.0031 339.968 92.0031H347.968C349.029 92.0031 350.046 92.4245 350.796 93.1746C351.547 93.9248 351.968 94.9422 351.968 96.0031C351.968 97.0639 351.547 98.0813 350.796 98.8315C350.046 99.5816 349.029 100.003 347.968 100.003ZM63.2641 132.779C83.5441 153.059 116.528 153.051 136.8 132.779C157.072 112.507 157.072 79.5151 136.8 59.2431C116.528 38.9711 83.5361 38.9711 63.2641 59.2431C42.9921 79.5151 42.9921 112.499 63.2641 132.779ZM68.9201 64.8911C77.1778 56.6516 88.3668 52.0243 100.032 52.0243C111.697 52.0243 122.886 56.6516 131.144 64.8911C148.304 82.0511 148.304 109.963 131.144 127.115C113.984 144.267 86.0721 144.275 68.9201 127.115C51.7681 109.955 51.7681 82.0511 68.9201 64.8911Z" fill="url(#paint3_linear_1125_184)"/>
<path d="M84.032 108.004H88.032V112.004C88.032 118.62 93.416 124.004 100.032 124.004C106.648 124.004 112.032 118.62 112.032 112.004V108.004H116.032C122.648 108.004 128.032 102.62 128.032 96.004C128.032 89.388 122.648 84.004 116.032 84.004H112.032V80.004C112.032 73.388 106.648 68.004 100.032 68.004C93.416 68.004 88.032 73.388 88.032 80.004V84.004H84.032C77.416 84.004 72.032 89.388 72.032 96.004C72.032 102.62 77.416 108.004 84.032 108.004ZM84.032 92.004H92.032C93.0928 92.004 94.1103 91.5826 94.8604 90.8324C95.6106 90.0823 96.032 89.0649 96.032 88.004V80.004C96.032 78.9431 96.4534 77.9257 97.2036 77.1756C97.9537 76.4254 98.9711 76.004 100.032 76.004C101.093 76.004 102.11 76.4254 102.86 77.1756C103.611 77.9257 104.032 78.9431 104.032 80.004V88.004C104.032 89.0649 104.453 90.0823 105.204 90.8324C105.954 91.5826 106.971 92.004 108.032 92.004H116.032C117.093 92.004 118.11 92.4254 118.86 93.1756C119.611 93.9257 120.032 94.9431 120.032 96.004C120.032 97.0649 119.611 98.0823 118.86 98.8324C118.11 99.5826 117.093 100.004 116.032 100.004H108.032C106.971 100.004 105.954 100.425 105.204 101.176C104.453 101.926 104.032 102.943 104.032 104.004V112.004C104.032 113.065 103.611 114.082 102.86 114.832C102.11 115.583 101.093 116.004 100.032 116.004C98.9711 116.004 97.9537 115.583 97.2036 114.832C96.4534 114.082 96.032 113.065 96.032 112.004V104.004C96.032 102.943 95.6106 101.926 94.8604 101.176C94.1103 100.425 93.0928 100.004 92.032 100.004H84.032C82.9711 100.004 81.9537 99.5826 81.2036 98.8324C80.4534 98.0823 80.032 97.0649 80.032 96.004C80.032 94.9431 80.4534 93.9257 81.2036 93.1756C81.9537 92.4254 82.9711 92.004 84.032 92.004ZM183.232 15.204C173.497 24.9641 168.03 38.1867 168.03 51.972C168.03 65.7573 173.497 78.9799 183.232 88.74C193.368 98.876 206.688 103.948 220 103.948C233.312 103.948 246.632 98.876 256.768 88.74C277.04 68.468 277.04 35.476 256.768 15.204C236.496 -5.068 203.504 -5.068 183.232 15.204ZM251.112 83.084C233.952 100.244 206.04 100.244 188.888 83.084C171.736 65.924 171.728 38.012 188.888 20.86C197.146 12.6206 208.335 7.99324 220 7.99324C231.665 7.99324 242.854 12.6206 251.112 20.86C259.353 29.1167 263.982 40.3061 263.982 51.972C263.982 63.6379 259.353 74.8273 251.112 83.084Z" fill="url(#paint4_linear_1125_184)"/>
<path d="M236 39.9727H232V35.9727C232 29.3567 226.616 23.9727 220 23.9727C213.384 23.9727 208 29.3567 208 35.9727V39.9727H204C197.384 39.9727 192 45.3567 192 51.9727C192 58.5887 197.384 63.9727 204 63.9727H208V67.9727C208 74.5887 213.384 79.9727 220 79.9727C226.616 79.9727 232 74.5887 232 67.9727V63.9727H236C242.616 63.9727 248 58.5887 248 51.9727C248 45.3567 242.616 39.9727 236 39.9727ZM236 55.9727H228C226.939 55.9727 225.922 56.3941 225.172 57.1442C224.422 57.8944 224 58.9118 224 59.9727V67.9727C224 69.0335 223.579 70.0509 222.829 70.8011C222.078 71.5512 221.061 71.9727 220 71.9727C218.939 71.9727 217.922 71.5512 217.172 70.8011C216.422 70.0509 216 69.0335 216 67.9727V59.9727C216 58.9118 215.579 57.8944 214.829 57.1442C214.078 56.3941 213.061 55.9727 212 55.9727H204C202.939 55.9727 201.922 55.5512 201.172 54.8011C200.422 54.0509 200 53.0335 200 51.9727C200 50.9118 200.422 49.8944 201.172 49.1442C201.922 48.3941 202.939 47.9727 204 47.9727H212C213.061 47.9727 214.078 47.5512 214.829 46.8011C215.579 46.0509 216 45.0335 216 43.9727V35.9727C216 34.9118 216.422 33.8944 217.172 33.1442C217.922 32.3941 218.939 31.9727 220 31.9727C221.061 31.9727 222.078 32.3941 222.829 33.1442C223.579 33.8944 224 34.9118 224 35.9727V43.9727C224 45.0335 224.422 46.0509 225.172 46.8011C225.922 47.5512 226.939 47.9727 228 47.9727H236C237.061 47.9727 238.078 48.3941 238.829 49.1442C239.579 49.8944 240 50.9118 240 51.9727C240 53.0335 239.579 54.0509 238.829 54.8011C238.078 55.5512 237.061 55.9727 236 55.9727ZM115.52 199.973V207.973H140.4C141.392 207.972 142.348 207.603 143.084 206.938C143.82 206.273 144.283 205.359 144.384 204.373C145.86 189.508 151.706 175.414 161.184 163.869C161.811 163.1 162.131 162.127 162.081 161.136C162.03 160.146 161.614 159.209 160.912 158.509L144.272 141.869L138.616 147.525L152.752 161.661C144.318 172.895 138.854 186.075 136.864 199.981L115.52 199.973ZM270.32 144.717C259.086 136.283 245.906 130.818 232 128.829V115.413H224V132.373C224 134.429 225.56 136.149 227.6 136.357C242.465 137.832 256.559 143.678 268.104 153.157C268.872 153.784 269.846 154.103 270.837 154.053C271.827 154.003 272.763 153.586 273.464 152.885L286.104 140.245L280.448 134.589L270.32 144.717ZM115.52 223.973H136.856C142.712 265.269 177.84 295.973 220.008 295.973C262.176 295.973 297.296 265.269 303.16 223.973H316.496V215.973H299.616C298.623 215.974 297.666 216.343 296.93 217.01C296.194 217.676 295.731 218.593 295.632 219.581C291.76 258.573 259.248 287.973 220 287.973C180.752 287.973 148.24 258.573 144.376 219.581C144.279 218.592 143.817 217.675 143.081 217.008C142.344 216.341 141.386 215.972 140.392 215.973H115.512V223.973H115.52ZM292.296 145.381L279.176 158.501C278.478 159.2 278.063 160.132 278.011 161.119C277.959 162.106 278.275 163.077 278.896 163.845C288.32 175.419 294.137 189.506 295.624 204.357C295.722 205.345 296.183 206.263 296.92 206.93C297.656 207.596 298.615 207.965 299.608 207.965H316.488V199.965H303.152C301.154 186.074 295.715 172.904 287.328 161.653L297.952 151.029L292.296 145.381ZM149.408 135.677L166.528 152.797C167.227 153.495 168.16 153.91 169.146 153.962C170.133 154.014 171.104 153.698 171.872 153.077C183.446 143.653 197.533 137.836 212.384 136.349C213.373 136.251 214.29 135.789 214.957 135.053C215.624 134.317 215.993 133.358 215.992 132.365V115.405H207.992V128.821C194.102 130.819 180.932 136.258 169.68 144.645L155.056 130.021L149.408 135.677Z" fill="url(#paint5_linear_1125_184)"/>
<path d="M220 143.973C182.504 143.973 152 174.477 152 211.973C152 249.445 182.72 279.973 220 279.973C257.112 279.973 288 249.581 288 211.973C288 174.477 257.496 143.973 220 143.973ZM200 187.973C200 176.949 208.976 167.973 220 167.973C231.024 167.973 240 176.949 240 187.973C240 198.997 231.024 207.973 220 207.973C208.976 207.973 200 198.997 200 187.973ZM220 271.973C211.862 271.967 203.811 270.3 196.339 267.076C188.867 263.852 182.131 259.137 176.544 253.221C178.13 242.838 183.387 233.37 191.362 226.534C199.336 219.699 209.497 215.952 220 215.973C230.504 215.949 240.667 219.695 248.642 226.531C256.617 233.366 261.873 242.837 263.456 253.221C257.866 259.134 251.129 263.846 243.658 267.07C236.187 270.294 228.137 271.962 220 271.973ZM269.864 245.293C267.503 237.227 263.214 229.856 257.369 223.817C251.524 217.778 244.297 213.252 236.312 210.629C239.919 208.051 242.86 204.652 244.893 200.713C246.925 196.773 247.99 192.406 248 187.973C248 172.533 235.44 159.973 220 159.973C204.56 159.973 192 172.533 192 187.973C192.01 192.406 193.075 196.773 195.107 200.713C197.14 204.652 200.081 208.051 203.688 210.629C195.703 213.252 188.476 217.778 182.631 223.817C176.786 229.856 172.497 237.227 170.136 245.293C163.519 235.441 159.99 223.84 160 211.973C160 178.885 186.912 151.973 220 151.973C253.088 151.973 280 178.885 280 211.973C280.009 223.84 276.48 235.441 269.864 245.293Z" fill="url(#paint6_linear_1125_184)"/>
<defs>
<linearGradient id="paint0_linear_1125_184" x1="14.8431" y1="178.793" x2="264.793" y2="587.474" gradientUnits="userSpaceOnUse">
<stop stop-color="#1BA2D7"/>
<stop offset="1" stop-color="#8D3DFA"/>
</linearGradient>
<linearGradient id="paint1_linear_1125_184" x1="38.5574" y1="166.676" x2="80.8913" y2="357.278" gradientUnits="userSpaceOnUse">
<stop stop-color="#1BA2D7"/>
<stop offset="1" stop-color="#8D3DFA"/>
</linearGradient>
<linearGradient id="paint2_linear_1125_184" x1="284.557" y1="56.6602" x2="465.414" y2="192.263" gradientUnits="userSpaceOnUse">
<stop stop-color="#1BA2D7"/>
<stop offset="1" stop-color="#8D3DFA"/>
</linearGradient>
<linearGradient id="paint3_linear_1125_184" x1="59.1889" y1="50.7388" x2="112.723" y2="235.096" gradientUnits="userSpaceOnUse">
<stop stop-color="#1BA2D7"/>
<stop offset="1" stop-color="#8D3DFA"/>
</linearGradient>
<linearGradient id="paint4_linear_1125_184" x1="79.1658" y1="7.99247" x2="178.91" y2="192.564" gradientUnits="userSpaceOnUse">
<stop stop-color="#1BA2D7"/>
<stop offset="1" stop-color="#8D3DFA"/>
</linearGradient>
<linearGradient id="paint5_linear_1125_184" x1="122.683" y1="41.504" x2="380.714" y2="260.318" gradientUnits="userSpaceOnUse">
<stop stop-color="#1BA2D7"/>
<stop offset="1" stop-color="#8D3DFA"/>
</linearGradient>
<linearGradient id="paint6_linear_1125_184" x1="156.852" y1="152.738" x2="286.394" y2="301.408" gradientUnits="userSpaceOnUse">
<stop stop-color="#1BA2D7"/>
<stop offset="1" stop-color="#8D3DFA"/>
</linearGradient>
</defs>
</svg>
