<svg width="513" height="513" viewBox="0 0 513 513" fill="none" xmlns="http://www.w3.org/2000/svg">
<path d="M318.625 458.406L310.416 466.614C308.094 468.936 305.338 470.777 302.305 472.034C299.272 473.29 296.021 473.937 292.738 473.937H220.261C213.631 473.936 207.272 471.302 202.583 466.614L194.374 458.406H15.5C13.5109 458.406 11.6032 459.196 10.1967 460.602C8.79018 462.009 8 463.916 8 465.906V479.999C8 493.806 19.193 505 33 505H480C493.807 505 505 493.806 505 479.999V465.906C505 463.916 504.21 462.009 502.803 460.602C501.397 459.196 499.489 458.406 497.5 458.406H318.625ZM138.312 458.406H33C19.193 458.406 8 447.213 8 433.406V250.438C8 236.63 19.193 225.438 33 225.438H138.312C152.119 225.438 163.312 236.63 163.312 250.438V433.407C163.312 447.213 152.12 458.406 138.312 458.406Z" stroke="white" stroke-width="15" stroke-miterlimit="10" stroke-linecap="round" stroke-linejoin="round"/>
<path d="M132.251 359.982V261.496C132.251 260.17 131.724 258.898 130.786 257.961C129.848 257.023 128.577 256.496 127.251 256.496H105.566C103.253 256.496 101.279 258.092 100.709 260.334C99.0015 267.056 92.9095 272.027 85.6565 272.027C78.4035 272.027 72.3115 267.055 70.6035 260.334C70.0335 258.093 68.0605 256.496 65.7475 256.496H44.0625C42.7364 256.496 41.4646 257.023 40.527 257.961C39.5893 258.898 39.0625 260.17 39.0625 261.496V422.34C39.0625 423.666 39.5893 424.938 40.527 425.876C41.4646 426.813 42.7364 427.34 44.0625 427.34H127.251C128.577 427.34 129.848 426.813 130.786 425.876C131.724 424.938 132.251 423.666 132.251 422.34V394.982M480 349.684H250.439C236.632 349.684 225.439 338.491 225.439 324.684V157.246C225.439 143.439 236.632 132.246 250.439 132.246H480C493.807 132.246 505 143.439 505 157.246V324.684C505 338.491 493.807 349.684 480 349.684Z" stroke="white" stroke-width="15" stroke-miterlimit="10" stroke-linecap="round" stroke-linejoin="round"/>
<path d="M379.259 318.622H256.501V163.309H442.875V318.622H414.259M473.938 458.403V349.685M225.438 163.309H64.0625C50.2555 163.309 39.0625 174.502 39.0625 188.309V225.434M163.312 427.341H442.875V349.685" stroke="white" stroke-width="15" stroke-miterlimit="10" stroke-linecap="round" stroke-linejoin="round"/>
<path d="M134.744 194.373H70.125V225.436M225.437 194.373H169.744M473.938 225.436V256.498M327.39 240.967L342.255 255.832L371.985 226.102M70.125 341.92L80.479 352.274L101.188 331.566M328.996 132.248C329.796 130.383 330.524 128.488 331.177 126.567C331.653 125.179 332.657 124.034 333.972 123.381L346.579 117.077C347.513 116.61 348.299 115.892 348.848 115.003C349.397 114.115 349.688 113.091 349.688 112.046V90.326C349.688 89.2814 349.397 88.2575 348.848 87.3689C348.299 86.4804 347.513 85.7622 346.579 85.295L333.972 78.992C332.658 78.3389 331.653 77.1943 331.177 75.806C330.077 72.5685 328.766 69.4064 327.253 66.34C326.606 65.0205 326.506 63.4992 326.973 62.106L331.432 48.729C331.763 47.738 331.81 46.6746 331.57 45.6579C331.33 44.6412 330.812 43.7115 330.073 42.973L314.714 27.614C313.975 26.8752 313.046 26.3567 312.029 26.1166C311.012 25.8766 309.949 25.9245 308.958 26.255L295.581 30.714C294.188 31.1824 292.666 31.0818 291.347 30.434C288.281 28.9205 285.119 27.6097 281.881 26.51C280.493 26.034 279.348 25.0302 278.695 23.716L272.392 11.109C271.925 10.1748 271.207 9.38906 270.318 8.83995C269.43 8.29083 268.406 7.99999 267.361 8H245.641C244.596 7.99999 243.573 8.29083 242.684 8.83995C241.795 9.38906 241.077 10.1748 240.61 11.109L234.307 23.716C233.654 25.0304 232.509 26.0343 231.121 26.51C227.883 27.6102 224.721 28.921 221.655 30.434C220.335 31.0808 218.814 31.1814 217.421 30.714L204.044 26.255C203.053 25.9245 201.99 25.8766 200.973 26.1166C199.956 26.3567 199.026 26.8752 198.288 27.614L182.929 42.973C182.19 43.7115 181.672 44.6412 181.432 45.6579C181.192 46.6746 181.24 47.738 181.57 48.729L186.029 62.106C186.497 63.4991 186.397 65.0208 185.749 66.34C184.236 69.4062 182.925 72.5683 181.825 75.806C181.349 77.1945 180.345 78.3393 179.03 78.992L166.423 85.295C165.489 85.7622 164.703 86.4804 164.154 87.3689C163.605 88.2575 163.314 89.2814 163.314 90.326V112.046C163.314 113.091 163.605 114.114 164.154 115.003C164.703 115.892 165.489 116.61 166.423 117.077L179.03 123.381C180.344 124.034 181.349 125.179 181.825 126.567C182.925 129.805 184.236 132.967 185.749 136.033C186.399 137.351 186.493 138.873 186.029 140.267L181.57 153.644C181.24 154.635 181.192 155.698 181.432 156.715C181.672 157.732 182.19 158.661 182.929 159.4L186.84 163.311" stroke="white" stroke-width="15" stroke-miterlimit="10" stroke-linecap="round" stroke-linejoin="round"/>
<path d="M262.269 132.249L293.332 101.186C299.397 95.1206 299.397 85.2866 293.332 79.2206C287.267 73.1556 277.433 73.1556 271.368 79.2206L249.403 101.186L238.421 90.2036C232.356 84.1386 222.522 84.1386 216.457 90.2036C210.392 96.2686 210.392 106.103 216.457 112.169L238.387 134.099L238.421 134.133C238.686 134.398 238.959 134.651 239.237 134.893" stroke="white" stroke-width="15" stroke-miterlimit="10" stroke-linecap="round" stroke-linejoin="round"/>
</svg>
