<svg width="320" height="440" viewBox="0 0 320 440" fill="none" xmlns="http://www.w3.org/2000/svg">
<path d="M216 328C216 329.582 215.531 331.129 214.652 332.445C213.773 333.76 212.523 334.786 211.061 335.391C209.6 335.997 207.991 336.155 206.439 335.846C204.887 335.538 203.462 334.776 202.343 333.657C201.224 332.538 200.462 331.113 200.154 329.561C199.845 328.009 200.003 326.4 200.609 324.939C201.214 323.477 202.24 322.227 203.555 321.348C204.871 320.469 206.418 320 208 320C210.122 320 212.157 320.843 213.657 322.343C215.157 323.843 216 325.878 216 328ZM216 360C216 361.582 215.531 363.129 214.652 364.445C213.773 365.76 212.523 366.786 211.061 367.391C209.6 367.997 207.991 368.155 206.439 367.846C204.887 367.538 203.462 366.776 202.343 365.657C201.224 364.538 200.462 363.113 200.154 361.561C199.845 360.009 200.003 358.4 200.609 356.939C201.214 355.477 202.24 354.227 203.555 353.348C204.871 352.469 206.418 352 208 352C210.122 352 212.157 352.843 213.657 354.343C215.157 355.843 216 357.878 216 360ZM200 344C200 345.582 199.531 347.129 198.652 348.445C197.773 349.76 196.523 350.786 195.061 351.391C193.6 351.997 191.991 352.155 190.439 351.846C188.887 351.538 187.462 350.776 186.343 349.657C185.224 348.538 184.462 347.113 184.154 345.561C183.845 344.009 184.003 342.4 184.609 340.939C185.214 339.477 186.24 338.227 187.555 337.348C188.871 336.469 190.418 336 192 336C194.122 336 196.157 336.843 197.657 338.343C199.157 339.843 200 341.878 200 344ZM232 344C232 345.582 231.531 347.129 230.652 348.445C229.773 349.76 228.523 350.786 227.061 351.391C225.6 351.997 223.991 352.155 222.439 351.846C220.887 351.538 219.462 350.776 218.343 349.657C217.224 348.538 216.462 347.113 216.154 345.561C215.845 344.009 216.003 342.4 216.609 340.939C217.214 339.477 218.24 338.227 219.555 337.348C220.871 336.469 222.418 336 224 336C226.122 336 228.157 336.843 229.657 338.343C231.157 339.843 232 341.878 232 344ZM128 352H120V360C120 362.122 119.157 364.157 117.657 365.657C116.157 367.157 114.122 368 112 368C109.878 368 107.843 367.157 106.343 365.657C104.843 364.157 104 362.122 104 360V352H96C93.8783 352 91.8434 351.157 90.3431 349.657C88.8428 348.157 88 346.122 88 344C88 341.878 88.8428 339.843 90.3431 338.343C91.8434 336.843 93.8783 336 96 336H104V328C104 325.878 104.843 323.843 106.343 322.343C107.843 320.843 109.878 320 112 320C114.122 320 116.157 320.843 117.657 322.343C119.157 323.843 120 325.878 120 328V336H128C130.122 336 132.157 336.843 133.657 338.343C135.157 339.843 136 341.878 136 344C136 346.122 135.157 348.157 133.657 349.657C132.157 351.157 130.122 352 128 352Z" fill="white"/>
<path d="M49.1764 438.216C23.3604 427.456 29.5764 377.088 48.5284 335.176C52.4084 326.6 73.2324 283.672 102.928 280.336C127.952 277.44 134.264 294.304 152.528 294.304H167.504C185.792 294.304 192.008 277.504 217.104 280.336C246.776 283.672 267.6 326.6 271.504 335.176C290.456 377.088 296.672 427.456 270.864 438.216C255.304 444.688 234.864 433.872 200.264 400.88C190.216 392.456 174.424 394.024 160.032 393.776C145.632 394.024 129.944 392.36 119.432 401.208C97.6004 422.032 69.4724 446.696 49.1764 438.216ZM104.8 296.232C90.4004 297.832 73.0164 320.448 63.3044 341.92C45.1444 382.088 44.2564 420.152 55.6324 424.896C60.0404 426.736 72.7844 424.728 108.392 390.776C123.112 378.376 141.024 379.168 160.096 379.168C174.92 379.488 195.576 377.256 211.256 390.448C247.256 424.752 259.984 426.712 264.392 424.896C275.76 420.152 274.872 382.088 256.712 341.92C247 320.448 229.632 297.848 215.216 296.232C196.872 294.112 191.744 310.304 167.496 310.304H152.512C128.192 310.304 123.312 294.112 104.8 296.232ZM90.2724 233.488C98.6473 223.039 109.263 214.606 121.335 208.811C133.406 203.016 146.626 200.008 160.016 200.008C173.407 200.008 186.626 203.016 198.698 208.811C210.77 214.606 221.385 223.039 229.76 233.488C236.96 241.84 225.176 253.488 218.04 245.144C211.095 236.418 202.271 229.37 192.225 224.526C182.178 219.683 171.169 217.167 160.016 217.167C148.863 217.167 137.854 219.683 127.808 224.526C117.762 229.37 108.938 236.418 101.992 245.144C94.9444 253.384 82.9844 241.952 90.2724 233.488Z" fill="white"/>
<path d="M114.4 250.912C126.504 238.81 142.92 232.011 160.036 232.011C177.152 232.011 193.568 238.81 205.672 250.912C213.208 258.464 200.872 268.944 193.416 261.432C189.046 257.024 183.847 253.525 178.118 251.137C172.388 248.749 166.243 247.519 160.036 247.519C153.829 247.519 147.684 248.749 141.954 251.137C136.225 253.525 131.026 257.024 126.656 261.432C119.28 268.872 106.776 258.552 114.4 250.912ZM128 113.488V62.512C127.973 59.8715 128.677 57.2751 130.034 55.0098C131.391 52.7444 133.348 50.8983 135.688 49.6755C138.029 48.4527 140.661 47.9009 143.296 48.081C145.93 48.2611 148.464 49.1661 150.616 50.696L185.992 76.192C187.853 77.5466 189.367 79.3221 190.411 81.3735C191.456 83.4249 192 85.6942 192 87.996C192 90.2978 191.456 92.5671 190.411 94.6185C189.367 96.6699 187.853 98.4454 185.992 99.8L150.624 125.288C148.474 126.822 145.94 127.732 143.305 127.915C140.67 128.099 138.035 127.549 135.693 126.327C133.35 125.106 131.392 123.26 130.034 120.993C128.676 118.727 127.972 116.13 128 113.488ZM142.32 62.512V113.488L177.688 88L142.32 62.512ZM8 48C9.58225 48 11.129 48.4692 12.4446 49.3482C13.7602 50.2273 14.7855 51.4767 15.391 52.9385C15.9965 54.4003 16.155 56.0089 15.8463 57.5607C15.5376 59.1126 14.7757 60.538 13.6569 61.6569C12.538 62.7757 11.1126 63.5376 9.56072 63.8463C8.00887 64.155 6.40034 63.9965 4.93853 63.391C3.47672 62.7855 2.22729 61.7602 1.34824 60.4446C0.469192 59.129 0 57.5823 0 56C0 53.8783 0.842856 51.8434 2.34315 50.3431C3.84344 48.8429 5.87827 48 8 48Z" fill="white"/>
<path d="M296 176H24C17.6348 176 11.5303 173.471 7.02943 168.971C2.52856 164.47 0 158.365 0 152V80C0 77.8783 0.842856 75.8434 2.34315 74.3431C3.84344 72.8429 5.87827 72 8 72C10.1217 72 12.1566 72.8429 13.6569 74.3431C15.1571 75.8434 16 77.8783 16 80V152C16 154.122 16.8429 156.157 18.3431 157.657C19.8434 159.157 21.8783 160 24 160H296C298.122 160 300.157 159.157 301.657 157.657C303.157 156.157 304 154.122 304 152V24C304 21.8783 303.157 19.8434 301.657 18.3431C300.157 16.8429 298.122 16 296 16H24C21.8783 16 19.8434 16.8429 18.3431 18.3431C16.8429 19.8434 16 21.8783 16 24V32C16 34.1217 15.1571 36.1566 13.6569 37.6569C12.1566 39.1571 10.1217 40 8 40C5.87827 40 3.84344 39.1571 2.34315 37.6569C0.842856 36.1566 0 34.1217 0 32V24C0 17.6348 2.52856 11.5303 7.02943 7.02944C11.5303 2.52856 17.6348 0 24 0H296C302.365 0 308.47 2.52856 312.971 7.02944C317.471 11.5303 320 17.6348 320 24V152C320 158.365 317.471 164.47 312.971 168.971C308.47 173.471 302.365 176 296 176Z" fill="white"/>
<path d="M8 48C9.58225 48 11.129 48.4692 12.4446 49.3482C13.7602 50.2273 14.7855 51.4767 15.391 52.9385C15.9965 54.4003 16.155 56.0089 15.8463 57.5607C15.5376 59.1126 14.7757 60.538 13.6569 61.6569C12.538 62.7757 11.1126 63.5376 9.56072 63.8463C8.00887 64.155 6.40034 63.9965 4.93853 63.391C3.47672 62.7855 2.22729 61.7602 1.34824 60.4446C0.469192 59.129 0 57.5823 0 56C0 53.8783 0.842856 51.8434 2.34315 50.3431C3.84344 48.8429 5.87827 48 8 48ZM280 108C277.878 108 275.843 107.157 274.343 105.657C272.843 104.157 272 102.122 272 100V76C272 73.8783 272.843 71.8434 274.343 70.3431C275.843 68.8429 277.878 68 280 68C282.122 68 284.157 68.8429 285.657 70.3431C287.157 71.8434 288 73.8783 288 76V100C288 102.122 287.157 104.157 285.657 105.657C284.157 107.157 282.122 108 280 108ZM40 128C37.8783 128 35.8434 127.157 34.3431 125.657C32.8428 124.157 32 122.122 32 120V56C32 53.8783 32.8428 51.8434 34.3431 50.3431C35.8434 48.8429 37.8783 48 40 48C42.1217 48 44.1566 48.8429 45.6569 50.3431C47.1572 51.8434 48 53.8783 48 56V120C48 122.122 47.1572 124.157 45.6569 125.657C44.1566 127.157 42.1217 128 40 128Z" fill="white"/>
</svg>
