<svg width="513" height="513" viewBox="0 0 513 513" fill="none" xmlns="http://www.w3.org/2000/svg">
<path d="M62.683 98.877L56.29 105.27C50.33 111.23 50.33 120.9 56.29 126.84L87.95 158.51C79.1687 173.573 72.4615 189.752 68.01 206.61H23.25C14.83 206.61 8 213.43 8 221.86V291.14C8 299.57 14.83 306.39 23.25 306.39H68.01C72.4615 323.248 79.1687 339.427 87.95 354.49L56.29 386.16C50.33 392.1 50.33 401.77 56.29 407.72L105.28 456.71C111.24 462.67 120.9 462.67 126.86 456.71L158.51 425.05C173.572 433.834 189.751 440.541 206.61 444.99V489.75C206.61 498.17 213.43 505 221.86 505H291.14C299.57 505 306.39 498.17 306.39 489.75V444.99C323.46 440.49 339.61 433.73 354.49 425.05L386.16 456.71C392.12 462.67 401.77 462.67 407.73 456.71L456.72 407.72C462.67 401.77 462.67 392.1 456.72 386.16L425.05 354.49C433.834 339.428 440.545 323.248 445 306.39H489.75C498.17 306.39 505 299.57 505 291.14V221.86C505 213.43 498.17 206.61 489.75 206.61H445C440.928 191.186 434.959 176.325 427.23 162.37C426.52 161.07 425.79 159.79 425.05 158.51L456.72 126.84C462.67 120.9 462.67 111.23 456.72 105.27L407.73 56.28C401.77 50.33 392.12 50.33 386.16 56.28L354.49 87.95C342.217 80.7889 329.192 75.0039 315.65 70.7C312.6 69.73 309.51 68.83 306.39 68V23.25C306.39 14.83 299.57 8 291.14 8H221.86C213.43 8 206.61 14.83 206.61 23.25V68C189.752 72.4567 173.573 79.1672 158.51 87.95L126.86 56.28C120.9 50.33 111.24 50.33 105.28 56.28L87.508 74.052" stroke="url(#paint0_linear_1147_834)" stroke-width="15" stroke-miterlimit="10" stroke-linecap="round" stroke-linejoin="round"/>
<path d="M364.406 311.441C352.652 317.722 330.533 320.213 316.265 311.441M388.319 208.858C388.319 208.858 378.635 192.873 360.306 186.199M301.037 380.5L309.619 356.367" stroke="url(#paint1_linear_1147_834)" stroke-width="15" stroke-miterlimit="10" stroke-linecap="round" stroke-linejoin="round"/>
<path d="M288.466 322.105C299.214 323.677 333.777 313.49 324.307 274.458M314.785 217.72C309.507 217.783 303.77 218.919 297.618 221.422M354.217 258.32C354.584 250.403 351.308 240.557 344.941 232.544M148.594 311.441C160.348 317.722 182.467 320.213 196.735 311.441M124.681 208.858C124.681 208.858 134.365 192.873 152.694 186.199M211.963 380.5L203.381 356.367" stroke="url(#paint2_linear_1147_834)" stroke-width="15" stroke-miterlimit="10" stroke-linecap="round" stroke-linejoin="round"/>
<path d="M224.534 322.107C213.786 323.679 179.223 313.492 188.693 274.46M158.783 258.322C157.867 238.587 179.597 206.863 215.382 221.424M256.5 148.874V388.619C256.5 388.619 266.077 400.882 281.041 396.728C295.533 392.707 300.712 381.248 301.022 380.539C301.029 380.517 301.037 380.502 301.037 380.502C301.037 380.502 371.591 389.017 364.404 311.446C364.404 311.446 428.62 280.124 388.318 208.862C388.318 208.862 400.707 135.143 318.03 130.981C318.03 130.981 301.9 109.089 278.555 117.227C265.214 121.875 256.5 134.751 256.5 148.874Z" stroke="url(#paint3_linear_1147_834)" stroke-width="15" stroke-miterlimit="10" stroke-linecap="round" stroke-linejoin="round"/>
<path d="M256.5 148.874V388.619C256.5 388.619 246.923 400.882 231.959 396.728C217.467 392.707 212.288 381.248 211.978 380.539C211.974 380.527 211.969 380.514 211.963 380.502C211.963 380.502 141.409 389.017 148.596 311.446C148.596 311.446 84.3801 280.124 124.682 208.862C124.682 208.862 112.293 135.143 194.97 130.981C194.97 130.981 211.1 109.089 234.445 117.227C247.786 121.875 256.5 134.751 256.5 148.874Z" stroke="url(#paint4_linear_1147_834)" stroke-width="15" stroke-miterlimit="10" stroke-linecap="round" stroke-linejoin="round"/>
<defs>
<linearGradient id="paint0_linear_1147_834" x1="373.461" y1="487.032" x2="90.9927" y2="26.4433" gradientUnits="userSpaceOnUse">
<stop offset="0.0001" stop-color="#BE42B1"/>
<stop offset="1" stop-color="#3B4BAA"/>
</linearGradient>
<linearGradient id="paint1_linear_1147_834" x1="365.219" y1="373.476" x2="247.094" y2="286.953" gradientUnits="userSpaceOnUse">
<stop offset="0.0001" stop-color="#BE42B1"/>
<stop offset="1" stop-color="#3B4BAA"/>
</linearGradient>
<linearGradient id="paint2_linear_1147_834" x1="293.487" y1="373.476" x2="192.165" y2="178.278" gradientUnits="userSpaceOnUse">
<stop offset="0.0001" stop-color="#BE42B1"/>
<stop offset="1" stop-color="#3B4BAA"/>
</linearGradient>
<linearGradient id="paint3_linear_1147_834" x1="337.333" y1="387.386" x2="167.265" y2="148.719" gradientUnits="userSpaceOnUse">
<stop offset="0.0001" stop-color="#BE42B1"/>
<stop offset="1" stop-color="#3B4BAA"/>
</linearGradient>
<linearGradient id="paint4_linear_1147_834" x1="218.095" y1="387.386" x2="40.9231" y2="238.822" gradientUnits="userSpaceOnUse">
<stop offset="0.0001" stop-color="#BE42B1"/>
<stop offset="1" stop-color="#3B4BAA"/>
</linearGradient>
</defs>
</svg>
