<svg width="496" height="496" viewBox="0 0 496 496" fill="none" xmlns="http://www.w3.org/2000/svg">
<path d="M456 64H432V8C432 5.87827 431.157 3.84344 429.657 2.34315C428.157 0.842854 426.122 0 424 0H72C69.8783 0 67.8434 0.842854 66.3431 2.34315C64.8429 3.84344 64 5.87827 64 8V64H40C17.944 64 0 81.944 0 104V360C0 382.056 17.944 400 40 400H156.688L161.376 404.688C166.028 409.314 169.716 414.817 172.226 420.879C174.736 426.94 176.019 433.439 176 440C176.019 446.561 174.736 453.06 172.226 459.121C169.716 465.183 166.028 470.686 161.376 475.312L156.688 480H80V496H416V480H339.312L334.624 475.312C329.972 470.686 326.284 465.183 323.774 459.121C321.264 453.06 319.981 446.561 320 440C319.981 433.439 321.264 426.94 323.774 420.879C326.284 414.817 329.972 409.314 334.624 404.688L339.312 400H456C478.056 400 496 382.056 496 360V104C496 81.944 478.056 64 456 64ZM80 16H416V240H80V16ZM40 80H64V248C64 250.122 64.8429 252.157 66.3431 253.657C67.8434 255.157 69.8783 256 72 256H424C426.122 256 428.157 255.157 429.657 253.657C431.157 252.157 432 250.122 432 248V80H456C469.232 80 480 90.768 480 104V320H16V104C16 90.768 26.768 80 40 80ZM317.592 480H178.408C187.184 468.56 192 454.664 192 440C192 425.336 187.184 411.44 178.408 400H317.592C308.816 411.44 304 425.336 304 440C304 454.664 308.816 468.56 317.592 480ZM456 384H40C26.768 384 16 373.232 16 360V336H480V360C480 373.232 469.232 384 456 384Z" fill="url(#paint0_linear_1147_846)"/>
<path d="M448 352H464V368H448V352ZM373.656 133.656C374.399 132.914 374.989 132.032 375.392 131.062C375.794 130.091 376.001 129.051 376.001 128C376.001 126.949 375.794 125.909 375.392 124.938C374.989 123.968 374.399 123.086 373.656 122.344L362.912 111.6C332.216 80.904 291.416 64 248 64C204.584 64 163.784 80.904 133.088 111.6L122.344 122.344C121.6 123.086 121.01 123.968 120.608 124.938C120.205 125.909 119.998 126.949 119.998 128C119.998 129.051 120.205 130.091 120.608 131.062C121.01 132.032 121.6 132.914 122.344 133.656L133.088 144.4C163.784 175.096 204.584 192 248 192C291.416 192 332.216 175.096 362.912 144.4L373.656 133.656ZM296 128C296 154.472 274.472 176 248 176C221.528 176 200 154.472 200 128C200 101.528 221.528 80 248 80C274.472 80 296 101.528 296 128ZM139.312 128L144.4 122.912C159.362 107.967 177.394 96.4527 197.248 89.168C188.663 100.293 184.005 113.948 184 128C184.005 142.052 188.663 155.707 197.248 166.832C177.394 159.547 159.362 148.033 144.4 133.088L139.312 128ZM351.6 133.088C336.638 148.033 318.605 159.547 298.752 166.832C307.024 156.048 312 142.608 312 128C312 113.392 307.024 99.952 298.752 89.168C318.605 96.4527 336.638 107.967 351.6 122.912L356.688 128L351.6 133.088Z" fill="url(#paint1_linear_1147_846)"/>
<path d="M248 160C265.648 160 280 145.648 280 128C280 110.352 265.648 96 248 96C230.352 96 216 110.352 216 128C216 145.648 230.352 160 248 160ZM248 112C256.824 112 264 119.176 264 128C264 136.824 256.824 144 248 144C239.176 144 232 136.824 232 128C232 119.176 239.176 112 248 112ZM112 48H152V32H104C101.878 32 99.8434 32.8429 98.3431 34.3431C96.8429 35.8434 96 37.8783 96 40V88H112V48ZM112 168H96V216C96 218.122 96.8429 220.157 98.3431 221.657C99.8434 223.157 101.878 224 104 224H152V208H112V168ZM392 32H344V48H384V88H400V40C400 37.8783 399.157 35.8434 397.657 34.3431C396.157 32.8429 394.122 32 392 32ZM384 208H344V224H392C394.122 224 396.157 223.157 397.657 221.657C399.157 220.157 400 218.122 400 216V168H384V208Z" fill="url(#paint2_linear_1147_846)"/>
<defs>
<linearGradient id="paint0_linear_1147_846" x1="364.726" y1="478.068" x2="82.8257" y2="18.4062" gradientUnits="userSpaceOnUse">
<stop offset="0.0001" stop-color="#BE42B1"/>
<stop offset="1" stop-color="#3B4BAA"/>
</linearGradient>
<linearGradient id="paint1_linear_1147_846" x1="372.954" y1="357.009" x2="210.545" y2="57.3407" gradientUnits="userSpaceOnUse">
<stop offset="0.0001" stop-color="#BE42B1"/>
<stop offset="1" stop-color="#3B4BAA"/>
</linearGradient>
<linearGradient id="paint2_linear_1147_846" x1="319.542" y1="217.059" x2="237.073" y2="4.1452" gradientUnits="userSpaceOnUse">
<stop offset="0.0001" stop-color="#BE42B1"/>
<stop offset="1" stop-color="#3B4BAA"/>
</linearGradient>
</defs>
</svg>
