<svg width="496" height="496" viewBox="0 0 496 496" fill="none" xmlns="http://www.w3.org/2000/svg">
<path d="M144 32H160V48H144V32ZM176 32H208V48H176V32Z" fill="url(#paint0_linear_1144_741)"/>
<path d="M448 16H240V0H112V16H48C21.528 16 0 37.528 0 64V416C0 442.472 21.528 464 48 464H96V384H148.192C153.189 405.34 162.668 425.372 176 442.768V496H320V442.768C333.332 425.372 342.811 405.34 347.808 384H400V464H448C474.472 464 496 442.472 496 416V64C496 37.528 474.472 16 448 16ZM128 16H224V64H128V16ZM48 32H112V80H170.904L204.752 152.528C199.484 156.174 194.998 160.836 191.557 166.241C188.117 171.646 185.793 177.684 184.72 184H160V168H112V216H160V200H184.728C185.909 206.947 188.606 213.548 192.628 219.333C196.651 225.119 201.899 229.946 208 233.472V344C208 346.122 207.157 348.157 205.657 349.657C204.157 351.157 202.122 352 200 352C197.878 352 195.843 351.157 194.343 349.657C192.843 348.157 192 346.122 192 344V296C192 278.352 177.648 264 160 264C151.176 264 144 271.176 144 280V336H96V320H128V304H96V96H48C30.352 96 16 81.648 16 64C16 46.352 30.352 32 48 32ZM320 112H400V160H320V112ZM400 176V336H352V320H384V304H352V296C352 282.768 341.232 272 328 272C324.84 272 321.84 272.648 319.072 273.76C317.71 268.677 314.713 264.183 310.543 260.974C306.373 257.764 301.262 256.016 296 256C292.84 256 289.84 256.648 287.072 257.76C285.71 252.677 282.713 248.183 278.543 244.974C274.373 241.764 269.262 240.016 264 240C261.184 240 258.512 240.576 256 241.472V233.472C263.286 229.272 269.34 223.229 273.552 215.949C277.765 208.67 279.989 200.41 280 192C279.997 184.742 278.344 177.58 275.166 171.055C271.988 164.53 267.368 158.813 261.656 154.336L284.752 112H304V176H400ZM264 192C264 200.08 260.944 207.656 255.736 213.424C254.44 201.416 244.352 192 232 192C219.648 192 209.56 201.416 208.264 213.424C202.95 207.553 200.005 199.919 200 192C200 174.352 214.352 160 232 160C249.648 160 264 174.352 264 192ZM144 184V200H128V184H144ZM80 448H48C30.352 448 16 433.648 16 416V99.752C24.7894 107.644 36.1873 112.007 48 112H80V448ZM96 368V352H144.136C144.248 357.368 144.68 362.696 145.352 368H96ZM336 348.776C336 379.992 325.256 410.616 305.752 435L304 437.192V480H192V437.192L190.248 435C170.705 410.506 160.042 380.111 160 348.776V280C168.824 280 176 287.176 176 296V344C176 357.232 186.768 368 200 368C213.232 368 224 357.232 224 344V216C224 213.878 224.843 211.843 226.343 210.343C227.843 208.843 229.878 208 232 208C234.122 208 236.157 208.843 237.657 210.343C239.157 211.843 240 213.878 240 216V352H256V264C256 261.878 256.843 259.843 258.343 258.343C259.843 256.843 261.878 256 264 256C266.122 256 268.157 256.843 269.657 258.343C271.157 259.843 272 261.878 272 264V352H288V280C288 277.878 288.843 275.843 290.343 274.343C291.843 272.843 293.878 272 296 272C298.122 272 300.157 272.843 301.657 274.343C303.157 275.843 304 277.878 304 280V352H320V296C320 293.878 320.843 291.843 322.343 290.343C323.843 288.843 325.878 288 328 288C330.122 288 332.157 288.843 333.657 290.343C335.157 291.843 336 293.878 336 296V348.776ZM350.656 368C351.328 362.696 351.752 357.368 351.872 352H400V368H350.656ZM480 416C480 433.648 465.648 448 448 448H416V112H448C459.813 112.008 471.211 107.645 480 99.752V416ZM448 96H275.248L247.616 146.664C242.596 144.911 237.318 144.011 232 144C227.584 144 223.32 144.648 219.256 145.768L188.56 80H240V32H448C465.648 32 480 46.352 480 64C480 81.648 465.648 96 448 96Z" fill="url(#paint1_linear_1144_741)"/>
<path d="M304 192H384V208H304V192ZM336 224H384V240H336V224ZM336 128H384V144H336V128Z" fill="url(#paint2_linear_1144_741)"/>
<defs>
<linearGradient id="paint0_linear_1144_741" x1="146.284" y1="33.0313" x2="152.683" y2="62.4072" gradientUnits="userSpaceOnUse">
<stop stop-color="#1BA2D7"/>
<stop offset="1" stop-color="#8D3DFA"/>
</linearGradient>
<linearGradient id="paint1_linear_1144_741" x1="17.6972" y1="31.9688" x2="490.144" y2="574.176" gradientUnits="userSpaceOnUse">
<stop stop-color="#1BA2D7"/>
<stop offset="1" stop-color="#8D3DFA"/>
</linearGradient>
<linearGradient id="paint2_linear_1144_741" x1="306.854" y1="135.219" x2="412.457" y2="221.787" gradientUnits="userSpaceOnUse">
<stop stop-color="#1BA2D7"/>
<stop offset="1" stop-color="#8D3DFA"/>
</linearGradient>
</defs>
</svg>
