<svg width="512" height="512" viewBox="0 0 512 512" fill="none" xmlns="http://www.w3.org/2000/svg">
<path d="M121.66 278.076C122.9 279.316 124.513 280.114 126.251 280.348C127.989 280.581 129.755 280.238 131.279 279.369L176.362 253.665C193.598 266.179 213.547 274.446 234.583 277.79L248.284 327.833C248.747 329.524 249.753 331.017 251.147 332.08C252.541 333.144 254.246 333.72 256 333.72C257.753 333.72 259.458 333.144 260.852 332.08C262.247 331.017 263.253 329.524 263.716 327.833L277.419 277.781C298.45 274.435 318.394 266.17 335.628 253.66L380.72 279.369C382.243 280.237 384.01 280.581 385.748 280.348C387.485 280.114 389.099 279.316 390.338 278.076C391.578 276.836 392.377 275.223 392.61 273.485C392.844 271.747 392.5 269.98 391.632 268.457L365.927 223.372C382.831 200.13 391.737 172.713 391.737 143.736C391.736 68.891 330.846 8 256 8C181.154 8 120.263 68.891 120.263 143.736C120.263 172.713 129.168 200.132 146.07 223.376L120.368 268.457C119.499 269.98 119.155 271.747 119.388 273.485C119.622 275.223 120.42 276.836 121.66 278.076ZM136.263 143.736C136.263 77.714 189.977 24 256 24C322.022 24 375.736 77.714 375.736 143.736C375.736 170.903 366.865 196.513 350.081 217.796C349.094 219.047 348.504 220.564 348.385 222.152C348.266 223.74 348.624 225.328 349.413 226.712L363.259 250.996L338.972 237.149C337.588 236.36 336.001 236.002 334.413 236.12C332.825 236.239 331.308 236.829 330.058 237.815C312.723 251.48 292.01 260.062 270.161 262.635C268.578 262.821 267.087 263.476 265.879 264.516C264.671 265.555 263.801 266.931 263.381 268.468L256 295.425L248.622 268.478C248.201 266.941 247.331 265.565 246.123 264.526C244.915 263.486 243.424 262.831 241.842 262.645C219.985 260.072 199.268 251.488 181.934 237.822C180.683 236.835 179.167 236.244 177.578 236.125C175.99 236.006 174.402 236.364 173.019 237.154L148.741 250.997L162.584 226.718C163.372 225.334 163.73 223.747 163.611 222.158C163.492 220.57 162.902 219.054 161.916 217.803C145.133 196.516 136.263 170.904 136.263 143.736ZM119.43 426.799C129.446 418.41 135.829 405.82 135.829 391.763C135.829 366.565 115.329 346.065 90.1306 346.065C64.9326 346.065 44.4326 366.565 44.4326 391.763C44.4326 405.82 50.8166 418.409 60.8316 426.799C32.4776 437.511 11.4456 463.367 8.04564 495.149C7.80364 497.406 8.53164 499.659 10.0496 501.347C11.5676 503.035 13.7306 503.999 15.9996 503.999H164.262C165.384 503.999 166.494 503.763 167.519 503.306C168.544 502.849 169.461 502.181 170.211 501.346C170.962 500.512 171.528 499.528 171.873 498.46C172.218 497.393 172.335 496.264 172.216 495.148C168.815 463.367 147.783 437.511 119.43 426.799ZM60.4326 391.763C60.4326 375.387 73.7546 362.065 90.1306 362.065C106.507 362.065 119.829 375.387 119.829 391.763C119.829 408.139 106.507 421.461 90.1306 421.461C73.7546 421.461 60.4326 408.139 60.4326 391.763ZM25.5026 487.999C32.6986 458.641 59.0686 437.461 90.1306 437.461C121.192 437.461 147.562 458.641 154.758 487.999H25.5026ZM285.298 426.798C295.314 418.409 301.697 405.819 301.697 391.762C301.697 366.564 281.197 346.064 255.999 346.064C230.801 346.064 210.301 366.564 210.301 391.762C210.301 405.819 216.685 418.408 226.7 426.798C198.347 437.51 177.315 463.366 173.914 495.147C173.794 496.263 173.91 497.392 174.255 498.46C174.6 499.528 175.166 500.512 175.916 501.347C176.667 502.182 177.584 502.849 178.61 503.306C179.635 503.763 180.745 503.999 181.868 503.998L330.131 504C332.401 504 334.564 503.035 336.081 501.348C336.831 500.513 337.397 499.53 337.743 498.462C338.088 497.394 338.205 496.265 338.085 495.149C334.684 463.367 313.652 437.51 285.298 426.798ZM226.301 391.763C226.301 375.387 239.623 362.065 255.999 362.065C272.375 362.065 285.697 375.387 285.697 391.763C285.697 408.139 272.375 421.461 255.999 421.461C239.623 421.461 226.301 408.139 226.301 391.763ZM191.372 487.999C198.569 458.641 224.939 437.461 255.999 437.461C287.06 437.461 313.431 458.642 320.627 488L191.372 487.999ZM503.954 495.147C500.553 463.366 479.52 437.51 451.168 426.798C461.184 418.409 467.567 405.819 467.567 391.762C467.567 366.564 447.067 346.064 421.869 346.064C396.671 346.064 376.171 366.564 376.171 391.762C376.171 405.819 382.555 418.408 392.57 426.798C364.216 437.51 343.184 463.366 339.783 495.147C339.663 496.263 339.779 497.392 340.124 498.46C340.469 499.528 341.035 500.512 341.785 501.347C342.536 502.182 343.453 502.849 344.479 503.306C345.504 503.763 346.614 503.999 347.737 503.998H496C497.122 503.998 498.232 503.762 499.257 503.305C500.282 502.848 501.199 502.18 501.949 501.345C502.7 500.511 503.266 499.527 503.611 498.459C503.956 497.392 504.073 496.263 503.954 495.147ZM392.171 391.763C392.171 375.387 405.493 362.065 421.869 362.065C438.245 362.065 451.567 375.387 451.567 391.763C451.567 408.139 438.245 421.461 421.869 421.461C405.493 421.461 392.171 408.139 392.171 391.763ZM357.241 487.999C364.437 458.641 390.808 437.461 421.869 437.461C452.929 437.461 479.299 458.641 486.496 487.999H357.241ZM172.334 121.032C174.849 125.935 176.234 128.637 176.564 130.509C176.894 132.381 176.516 135.392 175.831 140.859C175.62 142.518 175.416 144.177 175.218 145.837C173.89 156.956 179.912 167.388 190.205 171.795C191.378 172.298 192.458 172.756 193.468 173.182L172.76 217.66C172.143 218.986 171.902 220.455 172.062 221.908C172.221 223.361 172.776 224.742 173.665 225.902C174.555 227.063 175.745 227.957 177.106 228.489C178.468 229.02 179.949 229.169 181.39 228.918L203.707 225.018L215.088 244.605C215.822 245.869 216.889 246.907 218.173 247.608C219.456 248.308 220.907 248.643 222.367 248.577C223.827 248.511 225.242 248.045 226.456 247.232C227.671 246.418 228.64 245.287 229.257 243.962L250.52 198.292C253.038 197.56 254.746 197.163 256 197.163C257.9 197.163 260.801 198.058 266.066 199.683L266.978 199.964L282.098 235.069C282.716 236.505 283.742 237.728 285.048 238.587C286.355 239.446 287.884 239.904 289.448 239.903C292.2 239.903 294.778 238.483 296.244 236.121L308.188 216.873L330.381 221.417C331.813 221.71 333.298 221.604 334.675 221.113C336.051 220.621 337.267 219.762 338.19 218.628C339.112 217.494 339.707 216.129 339.908 214.681C340.11 213.233 339.911 211.758 339.334 210.415L322.545 171.435C332.371 166.848 338.076 156.676 336.781 145.835C336.56 143.983 336.353 142.337 336.168 140.857C335.482 135.39 335.105 132.378 335.435 130.507C335.765 128.636 337.151 125.934 339.665 121.03C340.345 119.704 341.102 118.228 341.942 116.565C346.993 106.572 344.902 94.71 336.737 87.045C335.379 85.77 334.162 84.641 333.069 83.627C329.029 79.879 326.803 77.815 325.853 76.169C324.903 74.523 324.228 71.565 323.002 66.191C322.67 64.738 322.301 63.121 321.876 61.306C319.322 50.404 310.095 42.66 298.914 42.038C297.054 41.934 295.396 41.851 293.908 41.777C288.404 41.504 285.372 41.352 283.586 40.702C281.801 40.053 279.381 38.22 274.988 34.891C273.8 33.992 272.477 32.99 270.985 31.872C262.022 25.162 249.976 25.162 241.011 31.872C239.519 32.988 238.196 33.991 237.008 34.891C232.615 38.219 230.196 40.052 228.41 40.702C226.624 41.352 223.592 41.504 218.088 41.777C216.6 41.851 214.942 41.934 213.082 42.038C201.901 42.66 192.674 50.403 190.12 61.306C189.695 63.12 189.326 64.738 188.994 66.191C187.768 71.564 187.094 74.523 186.143 76.169C185.193 77.815 182.967 79.879 178.927 83.627C177.701 84.763 176.478 85.9024 175.258 87.045C167.094 94.709 165.003 106.571 170.054 116.565C170.897 118.23 171.654 119.706 172.334 121.032ZM221.222 223.313L214.74 212.158C213.917 210.744 212.681 209.617 211.198 208.926C209.716 208.236 208.057 208.016 206.446 208.297L193.735 210.519L207.074 181.868C207.949 183.144 208.97 184.719 210.244 186.691C211.053 187.943 211.953 189.337 212.973 190.898C217.188 197.343 223.859 201.303 231.101 202.095L221.222 223.313ZM305.936 200.081C304.333 199.752 302.668 199.923 301.166 200.57C299.664 201.217 298.396 202.31 297.534 203.7L290.731 214.662L284.971 201.289C290.597 199.689 295.617 196.112 299.027 190.898C299.941 189.499 300.85 188.096 301.756 186.691C304.745 182.062 306.392 179.512 307.847 178.291C307.899 178.248 307.965 178.204 308.02 178.161L318.576 202.669L305.936 200.081ZM186.211 98.714C187.545 97.462 188.739 96.355 189.812 95.36C200.518 85.427 201.347 83.992 204.596 69.754C204.921 68.327 205.284 66.739 205.7 64.958C206.635 60.969 209.882 58.244 213.972 58.017C215.798 57.915 217.424 57.834 218.885 57.762C233.472 57.035 235.03 56.468 246.67 47.65C247.977 46.658 249.287 45.67 250.6 44.686C253.88 42.23 258.12 42.232 261.398 44.686C262.711 45.67 264.021 46.658 265.328 47.65C276.969 56.468 278.526 57.036 293.113 57.762C294.574 57.834 296.2 57.915 298.026 58.017C302.117 58.245 305.364 60.969 306.298 64.959C306.715 66.739 307.077 68.327 307.402 69.754C310.651 83.992 311.48 85.428 322.186 95.36C323.258 96.354 324.453 97.462 325.786 98.714C328.774 101.519 329.511 105.693 327.662 109.349C326.837 110.981 326.094 112.43 325.427 113.732C318.763 126.727 318.475 128.36 320.292 142.85C320.474 144.302 320.677 145.918 320.894 147.735C321.38 151.803 319.26 155.474 315.495 157.088C313.987 157.733 312.477 158.373 310.965 159.008C297.507 164.68 296.236 165.745 288.315 178.013C287.426 179.392 286.533 180.769 285.636 182.142C283.394 185.572 279.414 187.021 275.489 185.835C273.919 185.36 272.351 184.88 270.784 184.395C263.806 182.243 259.904 181.166 256.001 181.166C252.098 181.166 248.194 182.243 241.217 184.395C239.82 184.827 238.263 185.306 236.512 185.835C232.593 187.024 228.607 185.57 226.365 182.142C225.467 180.769 224.574 179.392 223.686 178.013C215.764 165.745 214.494 164.68 201.036 159.008C199.688 158.441 198.187 157.808 196.506 157.088C192.74 155.475 190.62 151.804 191.107 147.735C191.324 145.919 191.527 144.302 191.709 142.85C193.526 128.36 193.238 126.727 186.574 113.732C185.907 112.43 185.164 110.981 184.339 109.349C182.487 105.692 183.224 101.519 186.211 98.714ZM255.999 170.149C286.661 170.149 311.607 145.204 311.607 114.542C311.607 83.88 286.661 58.934 255.999 58.934C225.337 58.934 200.392 83.88 200.392 114.542C200.392 145.204 225.337 170.149 255.999 170.149ZM255.999 74.934C277.839 74.934 295.607 92.703 295.607 114.542C295.607 136.381 277.838 154.149 255.999 154.149C234.16 154.149 216.392 136.381 216.392 114.542C216.392 92.703 234.159 74.934 255.999 74.934ZM241.017 134.587L227.961 121.532C227.204 120.792 226.602 119.91 226.189 118.936C225.775 117.962 225.559 116.915 225.553 115.857C225.547 114.799 225.751 113.75 226.153 112.772C226.556 111.793 227.148 110.904 227.896 110.155C228.644 109.407 229.533 108.815 230.512 108.412C231.491 108.01 232.539 107.806 233.597 107.812C234.655 107.818 235.702 108.033 236.676 108.446C237.65 108.859 238.533 109.462 239.273 110.218L246.94 117.884L273.005 94.23C273.783 93.5239 274.692 92.978 275.681 92.6234C276.67 92.2688 277.719 92.1125 278.768 92.1634C279.817 92.2143 280.846 92.4714 281.796 92.92C282.746 93.3686 283.599 94 284.305 94.778C285.011 95.5558 285.557 96.4652 285.912 97.4541C286.266 98.4431 286.423 99.4922 286.372 100.542C286.321 101.591 286.064 102.62 285.615 103.57C285.166 104.52 284.535 105.372 283.757 106.078L252.048 134.854C250.578 136.192 248.661 136.933 246.673 136.93C245.622 136.931 244.581 136.725 243.611 136.323C242.64 135.921 241.759 135.331 241.017 134.587Z" fill="white"/>
</svg>
