<svg width="480" height="481" viewBox="0 0 480 481" fill="none" xmlns="http://www.w3.org/2000/svg">
<g clip-path="url(#clip0_1347_41)">
<path d="M389.016 149.906L338.136 99.0263C337.088 97.9693 335.765 97.2258 334.318 96.8794C332.87 96.533 331.354 96.5974 329.941 97.0654C328.528 97.5334 327.273 98.3865 326.318 99.5286C325.363 100.671 324.746 102.057 324.536 103.53C323.695 109.413 321.232 114.945 317.424 119.507C313.616 124.069 308.613 127.48 302.975 129.359C297.338 131.237 291.288 131.509 285.505 130.144C279.722 128.778 274.433 125.829 270.231 121.627C266.029 117.426 263.08 112.137 261.715 106.353C260.349 100.57 260.621 94.5206 262.5 88.883C264.378 83.2454 267.79 78.2424 272.352 74.4343C276.913 70.6262 282.445 68.1636 288.328 67.3223C289.802 67.1121 291.188 66.4949 292.33 65.5401C293.472 64.5852 294.325 63.3307 294.793 61.9175C295.261 60.5043 295.325 58.9886 294.979 57.5408C294.632 56.093 293.889 54.7706 292.832 53.7223L241.952 2.84229C240.452 1.34252 238.417 0.5 236.296 0.5C234.175 0.5 232.14 1.34252 230.64 2.84229L186.456 47.0103C184.28 38.8678 179.999 31.4416 174.043 25.4786C168.087 19.5156 160.666 15.226 152.526 13.0412C144.386 10.8564 135.814 10.8533 127.672 13.0324C119.531 15.2115 112.107 19.4958 106.146 25.4546C100.186 31.4134 95.8994 38.8365 93.7181 46.9774C91.5368 55.1184 91.5375 63.6902 93.7201 71.8308C95.9028 79.9714 100.19 87.3938 106.152 93.3516C112.113 99.3094 119.538 103.593 127.68 105.77L83.544 149.906C82.0442 151.407 81.2017 153.441 81.2017 155.562C81.2017 157.684 82.0442 159.718 83.544 161.218L127.696 205.426C118.004 208.03 109.371 213.606 103.013 221.371C96.654 229.135 92.889 238.697 92.2471 248.713C91.6052 258.728 94.1187 268.693 99.4341 277.205C104.749 285.718 112.599 292.351 121.88 296.17L103.2 350.05C100.718 355.641 99.5522 361.726 99.7907 367.838C100.029 373.95 101.666 379.926 104.576 385.306L132.656 451.706C132.76 451.962 132.88 452.21 133.016 452.45C134.983 456.055 136.009 460.096 136 464.202V471.882C136 474.004 136.843 476.039 138.343 477.539C139.843 479.039 141.878 479.882 144 479.882C146.122 479.882 148.157 479.039 149.657 477.539C151.157 476.039 152 474.004 152 471.882V464.202C151.991 457.547 150.343 450.997 147.2 445.13L119.112 378.73C119.001 378.456 118.872 378.189 118.728 377.93C116.894 374.584 115.875 370.852 115.753 367.038C115.631 363.224 116.409 359.435 118.024 355.978L137.592 299.658C138.432 299.658 139.256 299.778 140.104 299.778C150.663 299.788 160.929 296.309 169.306 289.883C177.684 283.456 183.705 274.443 186.432 264.242L200 277.754V359.882C200 362.004 200.843 364.039 202.343 365.539C203.843 367.039 205.878 367.882 208 367.882C210.122 367.882 212.157 367.039 213.657 365.539C215.157 364.039 216 362.004 216 359.882V247.882C216 241.517 218.529 235.413 223.029 230.912C227.53 226.411 233.635 223.882 240 223.882C246.365 223.882 252.47 226.411 256.971 230.912C261.471 235.413 264 241.517 264 247.882V344.77C264.014 355.946 266.615 366.967 271.6 376.97L274.528 382.842C278.399 390.622 280.414 399.193 280.414 407.882C280.414 416.572 278.399 425.143 274.528 432.922L266.528 448.922C264.867 452.258 264.002 455.932 264 459.658V471.882C264 474.004 264.843 476.039 266.343 477.539C267.843 479.039 269.878 479.882 272 479.882C274.122 479.882 276.157 479.039 277.657 477.539C279.157 476.039 280 474.004 280 471.882V459.658C279.992 458.421 280.265 457.198 280.8 456.082L288.8 440.082C293.776 430.079 296.366 419.059 296.366 407.886C296.366 396.714 293.776 385.693 288.8 375.69L285.872 369.818C283.004 364.058 281.145 357.847 280.376 351.458C285.572 356.673 291.748 360.809 298.548 363.627C305.348 366.446 312.639 367.892 320 367.882C326.365 367.882 332.47 365.354 336.971 360.853C341.471 356.352 344 350.247 344 343.882V298.282C354.325 295.727 363.508 289.812 370.104 281.467C376.699 273.122 380.332 262.821 380.432 252.184C380.532 241.548 377.093 231.18 370.655 222.713C364.218 214.245 355.148 208.159 344.872 205.41L389.016 161.202C390.511 159.703 391.35 157.672 391.35 155.554C391.35 153.437 390.511 151.406 389.016 149.906ZM320 351.882C309.395 351.87 299.228 347.651 291.73 340.153C284.231 332.654 280.013 322.487 280 311.882V270.282L286.112 264.17C288.633 273.644 294.002 282.116 301.494 288.439C308.985 294.763 318.237 298.635 328 299.53V343.882C328 346.004 327.157 348.039 325.657 349.539C324.157 351.039 322.122 351.882 320 351.882ZM321.144 206.546C319.943 207.733 319.149 209.269 318.875 210.935C318.6 212.601 318.86 214.311 319.616 215.82C320.373 217.329 321.587 218.561 323.086 219.338C324.584 220.115 326.291 220.398 327.96 220.146C334.606 219.206 341.38 220.379 347.323 223.5C353.266 226.621 358.077 231.532 361.075 237.538C364.073 243.544 365.107 250.341 364.029 256.967C362.952 263.592 359.818 269.711 355.072 274.458C350.325 279.205 344.206 282.338 337.58 283.416C330.955 284.493 324.158 283.46 318.152 280.462C312.146 277.463 307.235 272.653 304.114 266.71C300.993 260.767 299.819 253.993 300.76 247.346C301.011 245.677 300.728 243.971 299.951 242.472C299.174 240.973 297.943 239.759 296.434 239.003C294.924 238.246 293.215 237.987 291.549 238.261C289.883 238.535 288.347 239.33 287.16 240.53L280 247.706C279.977 237.098 275.74 226.933 268.222 219.448C260.704 211.963 250.521 207.771 239.912 207.794C229.303 207.818 219.138 212.054 211.654 219.572C204.169 227.09 199.977 237.274 200 247.882V255.13L185.336 240.466C184.149 239.266 182.613 238.471 180.947 238.197C179.281 237.923 177.572 238.182 176.062 238.939C174.553 239.695 173.322 240.909 172.545 242.408C171.768 243.907 171.485 245.613 171.736 247.282C172.677 253.929 171.503 260.703 168.382 266.646C165.261 272.589 160.35 277.399 154.344 280.398C148.338 283.396 141.541 284.429 134.916 283.352C128.29 282.274 122.171 279.141 117.424 274.394C112.678 269.647 109.544 263.528 108.467 256.903C107.389 250.277 108.423 243.48 111.421 237.474C114.419 231.468 119.23 226.557 125.173 223.436C131.116 220.315 137.89 219.142 144.536 220.082C146.206 220.336 147.914 220.054 149.414 219.278C150.914 218.502 152.13 217.271 152.888 215.761C153.645 214.251 153.905 212.54 153.631 210.873C153.357 209.207 152.562 207.67 151.36 206.482L100.504 155.562L151.416 104.682C152.617 103.495 153.411 101.959 153.685 100.294C153.96 98.6277 153.7 96.9179 152.944 95.4086C152.187 93.8993 150.973 92.668 149.474 91.891C147.975 91.1139 146.269 90.8308 144.6 91.0823C137.962 92.01 131.201 90.8301 125.27 87.7092C119.338 84.5882 114.537 79.6837 111.542 73.6876C108.548 67.6916 107.512 60.9066 108.58 54.2901C109.648 47.6735 112.767 41.5594 117.496 36.8103C123.595 30.9999 131.696 27.7589 140.12 27.7589C148.544 27.7589 156.645 30.9999 162.744 36.8103C166.245 40.3204 168.882 44.5958 170.448 49.2994C172.014 54.0031 172.466 59.0062 171.768 63.9143C171.517 65.5837 171.8 67.2898 172.577 68.7885C173.354 70.2872 174.585 71.5017 176.094 72.2581C177.604 73.0145 179.313 73.2741 180.979 72.9996C182.645 72.7252 184.181 71.9309 185.368 70.7303L236.32 19.8343L272.168 55.6903C265.239 58.9997 259.204 63.9233 254.572 70.0477C249.94 76.1722 246.844 83.3186 245.546 90.8871C244.247 98.4556 244.783 106.225 247.109 113.543C249.435 120.862 253.483 127.515 258.913 132.945C264.343 138.375 270.997 142.423 278.315 144.749C285.633 147.075 293.403 147.611 300.971 146.313C308.54 145.014 315.686 141.919 321.811 137.286C327.935 132.654 332.859 126.62 336.168 119.69L372.024 155.538L321.144 206.546ZM472 167.882H424C421.878 167.882 419.843 167.039 418.343 165.539C416.843 164.039 416 162.004 416 159.882C416 157.761 416.843 155.726 418.343 154.225C419.843 152.725 421.878 151.882 424 151.882H472C474.122 151.882 476.157 152.725 477.657 154.225C479.157 155.726 480 157.761 480 159.882C480 162.004 479.157 164.039 477.657 165.539C476.157 167.039 474.122 167.882 472 167.882ZM415.352 75.8823C413.591 75.8822 411.879 75.3011 410.482 74.229C409.085 73.157 408.081 71.6539 407.625 69.9529C407.169 68.2519 407.287 66.448 407.961 64.821C408.635 63.1941 409.827 61.8349 411.352 60.9543L452.952 36.9543C454.788 35.9102 456.963 35.6348 459.002 36.1883C461.041 36.7418 462.778 38.0792 463.834 39.9087C464.89 41.7382 465.18 43.9113 464.64 45.9536C464.1 47.996 462.774 49.7419 460.952 50.8103L419.352 74.8103C418.137 75.5153 416.757 75.8853 415.352 75.8823ZM456.912 283.882C455.507 283.885 454.127 283.515 452.912 282.81L411.312 258.81C410.395 258.289 409.59 257.591 408.943 256.757C408.297 255.923 407.822 254.97 407.546 253.952C407.269 252.934 407.197 251.871 407.333 250.825C407.469 249.778 407.81 248.769 408.338 247.856C408.865 246.942 409.568 246.142 410.407 245.501C411.245 244.86 412.201 244.391 413.221 244.121C414.241 243.852 415.304 243.787 416.35 243.93C417.395 244.072 418.402 244.421 419.312 244.954L460.912 268.954C462.437 269.835 463.629 271.194 464.303 272.821C464.977 274.448 465.095 276.252 464.639 277.953C464.183 279.654 463.179 281.157 461.782 282.229C460.385 283.301 458.673 283.882 456.912 283.882ZM56 167.882H8C5.87827 167.882 3.84344 167.039 2.34315 165.539C0.842854 164.039 0 162.004 0 159.882C0 157.761 0.842854 155.726 2.34315 154.225C3.84344 152.725 5.87827 151.882 8 151.882H56C58.1217 151.882 60.1566 152.725 61.6569 154.225C63.1571 155.726 64 157.761 64 159.882C64 162.004 63.1571 164.039 61.6569 165.539C60.1566 167.039 58.1217 167.882 56 167.882ZM64.648 75.8823C63.2433 75.8853 61.863 75.5153 60.648 74.8103L19.048 50.8103C17.2255 49.7419 15.8997 47.996 15.3597 45.9536C14.8197 43.9113 15.1095 41.7382 16.1658 39.9087C17.2221 38.0792 18.9591 36.7418 20.9979 36.1883C23.0366 35.6348 25.2115 35.9102 27.048 36.9543L68.648 60.9543C70.173 61.8349 71.3649 63.1941 72.0388 64.821C72.7126 66.448 72.8308 68.2519 72.375 69.9529C71.9193 71.6539 70.9149 73.157 69.5179 74.229C68.1208 75.3011 66.409 75.8822 64.648 75.8823ZM23.088 283.882C21.327 283.882 19.6152 283.301 18.2181 282.229C16.8211 281.157 15.8167 279.654 15.361 277.953C14.9052 276.252 15.0234 274.448 15.6972 272.821C16.3711 271.194 17.563 269.835 19.088 268.954L60.688 244.954C61.5982 244.421 62.6049 244.072 63.6502 243.93C64.6955 243.787 65.7588 243.852 66.7788 244.121C67.7988 244.391 68.7553 244.86 69.5934 245.501C70.4315 246.142 71.1346 246.942 71.6621 247.856C72.1896 248.769 72.5312 249.778 72.6672 250.825C72.8032 251.871 72.7309 252.934 72.4545 253.952C72.1781 254.97 71.703 255.923 71.0565 256.757C70.4101 257.591 69.6052 258.289 68.688 258.81L27.088 282.81C25.873 283.515 24.4927 283.885 23.088 283.882Z" fill="url(#paint0_linear_1347_41)"/>
</g>
<defs>
<linearGradient id="paint0_linear_1347_41" x1="17.1263" y1="31.3978" x2="473.663" y2="556.021" gradientUnits="userSpaceOnUse">
<stop stop-color="#1BA2D7"/>
<stop offset="1" stop-color="#8D3DFA"/>
</linearGradient>
<clipPath id="clip0_1347_41">
<rect width="480" height="480" fill="white" transform="translate(0 0.5)"/>
</clipPath>
</defs>
</svg>
