<svg width="512" height="512" viewBox="0 0 512 512" fill="none" xmlns="http://www.w3.org/2000/svg">
<g clip-path="url(#clip0_1597_1135)">
<path d="M318.125 457.906L309.916 466.115C307.594 468.436 304.838 470.278 301.805 471.534C298.772 472.791 295.521 473.437 292.238 473.437H219.761C213.131 473.437 206.772 470.803 202.083 466.115L193.874 457.906H15C13.0109 457.906 11.1032 458.696 9.6967 460.103C8.29018 461.509 7.5 463.417 7.5 465.406V479.5C7.5 493.307 18.693 504.5 32.5 504.5H479.5C493.307 504.5 504.5 493.307 504.5 479.5V465.406C504.5 463.417 503.71 461.509 502.303 460.103C500.897 458.696 498.989 457.906 497 457.906H318.125ZM137.812 457.906H32.5C18.693 457.906 7.5 446.713 7.5 432.906V249.938C7.5 236.131 18.693 224.938 32.5 224.938H137.812C151.619 224.938 162.812 236.131 162.812 249.938V432.907C162.812 446.713 151.62 457.906 137.812 457.906Z" stroke="white" stroke-width="15" stroke-miterlimit="10" stroke-linecap="round" stroke-linejoin="round"/>
<path d="M131.751 359.486V261C131.751 259.674 131.224 258.402 130.286 257.464C129.348 256.527 128.077 256 126.751 256H105.066C102.753 256 100.779 257.596 100.209 259.838C98.5015 266.56 92.4095 271.531 85.1565 271.531C77.9035 271.531 71.8115 266.559 70.1035 259.838C69.5335 257.597 67.5605 256 65.2475 256H43.5625C42.2364 256 40.9646 256.527 40.027 257.464C39.0893 258.402 38.5625 259.674 38.5625 261V421.844C38.5625 423.17 39.0893 424.442 40.027 425.38C40.9646 426.317 42.2364 426.844 43.5625 426.844H126.751C128.077 426.844 129.348 426.317 130.286 425.38C131.224 424.442 131.751 423.17 131.751 421.844V394.486M479.5 349.188H249.939C236.132 349.188 224.939 337.995 224.939 324.188V156.75C224.939 142.943 236.132 131.75 249.939 131.75H479.5C493.307 131.75 504.5 142.943 504.5 156.75V324.188C504.5 337.995 493.307 349.188 479.5 349.188Z" stroke="white" stroke-width="15" stroke-miterlimit="10" stroke-linecap="round" stroke-linejoin="round"/>
<path d="M378.759 318.125H256.001V162.812H442.375V318.125H413.759M473.438 457.906V349.188M224.938 162.812H63.5625C49.7555 162.812 38.5625 174.005 38.5625 187.812V224.937M162.812 426.844H442.375V349.188" stroke="white" stroke-width="15" stroke-miterlimit="10" stroke-linecap="round" stroke-linejoin="round"/>
<path d="M134.244 193.875H69.625V224.938M224.937 193.875H169.244M473.438 224.938V256M326.89 240.469L341.755 255.334L371.485 225.604M69.625 341.422L79.979 351.776L100.688 331.068M328.496 131.75C329.296 129.885 330.024 127.99 330.677 126.069C331.153 124.68 332.157 123.536 333.472 122.883L346.079 116.579C347.013 116.112 347.799 115.394 348.348 114.505C348.897 113.617 349.188 112.593 349.188 111.548V89.828C349.188 88.7834 348.897 87.7595 348.348 86.8709C347.799 85.9823 347.013 85.2642 346.079 84.797L333.472 78.494C332.158 77.8409 331.153 76.6962 330.677 75.308C329.577 72.0704 328.266 68.9083 326.753 65.842C326.106 64.5224 326.006 63.0012 326.473 61.608L330.932 48.231C331.263 47.24 331.31 46.1765 331.07 45.1599C330.83 44.1432 330.312 43.2135 329.573 42.475L314.214 27.116C313.475 26.3771 312.546 25.8586 311.529 25.6186C310.512 25.3785 309.449 25.4264 308.458 25.757L295.081 30.216C293.688 30.6844 292.166 30.5837 290.847 29.936C287.781 28.4225 284.619 27.1117 281.381 26.012C279.993 25.536 278.848 24.5321 278.195 23.218L271.892 10.611C271.425 9.67671 270.707 8.89102 269.818 8.3419C268.93 7.79279 267.906 7.50194 266.861 7.50195H245.141C244.096 7.50194 243.073 7.79279 242.184 8.3419C241.295 8.89102 240.577 9.67671 240.11 10.611L233.807 23.218C233.154 24.5323 232.009 25.5363 230.621 26.012C227.383 27.1121 224.221 28.4229 221.155 29.936C219.835 30.5828 218.314 30.6834 216.921 30.216L203.544 25.757C202.553 25.4264 201.49 25.3785 200.473 25.6186C199.456 25.8586 198.526 26.3771 197.788 27.116L182.429 42.475C181.69 43.2135 181.172 44.1432 180.932 45.1599C180.692 46.1765 180.74 47.24 181.07 48.231L185.529 61.608C185.997 63.001 185.897 64.5227 185.249 65.842C183.736 68.9081 182.425 72.0703 181.325 75.308C180.849 76.6964 179.845 77.8412 178.53 78.494L165.923 84.797C164.989 85.2642 164.203 85.9823 163.654 86.8709C163.105 87.7595 162.814 88.7834 162.814 89.828V111.548C162.814 112.593 163.105 113.616 163.654 114.505C164.203 115.394 164.989 116.112 165.923 116.579L178.53 122.883C179.844 123.536 180.849 124.681 181.325 126.069C182.425 129.306 183.736 132.469 185.249 135.535C185.899 136.853 185.993 138.375 185.529 139.769L181.07 153.146C180.74 154.137 180.692 155.2 180.932 156.217C181.172 157.234 181.69 158.163 182.429 158.902L186.34 162.813" stroke="white" stroke-width="15" stroke-miterlimit="10" stroke-linecap="round" stroke-linejoin="round"/>
<path d="M261.769 131.75L292.832 100.687C298.897 94.6218 298.897 84.7878 292.832 78.7218C286.767 72.6568 276.933 72.6568 270.868 78.7218L248.903 100.687L237.921 89.7048C231.856 83.6398 222.022 83.6398 215.957 89.7048C209.892 95.7698 209.892 105.604 215.957 111.67L237.887 133.6L237.921 133.634C238.186 133.899 238.459 134.152 238.737 134.394" stroke="white" stroke-width="15" stroke-miterlimit="10" stroke-linecap="round" stroke-linejoin="round"/>
</g>
<defs>
<clipPath id="clip0_1597_1135">
<rect width="512" height="512" fill="white"/>
</clipPath>
</defs>
</svg>
