<svg width="508" height="509" viewBox="0 0 508 509" fill="none" xmlns="http://www.w3.org/2000/svg">
<g clip-path="url(#clip0_1347_67)">
<path d="M425.28 294.5C425.28 292.909 424.648 291.383 423.523 290.257C422.397 289.132 420.871 288.5 419.28 288.5H409.28V278.5C409.28 276.909 408.648 275.383 407.523 274.257C406.397 273.132 404.871 272.5 403.28 272.5C401.689 272.5 400.163 273.132 399.037 274.257C397.912 275.383 397.28 276.909 397.28 278.5V288.5H387.28C385.689 288.5 384.163 289.132 383.037 290.257C381.912 291.383 381.28 292.909 381.28 294.5C381.28 296.091 381.912 297.617 383.037 298.743C384.163 299.868 385.689 300.5 387.28 300.5H397.28V310.5C397.28 312.091 397.912 313.617 399.037 314.743C400.163 315.868 401.689 316.5 403.28 316.5C404.871 316.5 406.397 315.868 407.523 314.743C408.648 313.617 409.28 312.091 409.28 310.5V300.5H419.28C420.871 300.5 422.397 299.868 423.523 298.743C424.648 297.617 425.28 296.091 425.28 294.5ZM459.28 456.5H449.28V446.5C449.28 444.909 448.648 443.383 447.523 442.257C446.397 441.132 444.871 440.5 443.28 440.5C441.689 440.5 440.163 441.132 439.037 442.257C437.912 443.383 437.28 444.909 437.28 446.5V456.5H427.28C425.689 456.5 424.163 457.132 423.037 458.257C421.912 459.383 421.28 460.909 421.28 462.5C421.28 464.091 421.912 465.617 423.037 466.743C424.163 467.868 425.689 468.5 427.28 468.5H437.28V478.5C437.28 480.091 437.912 481.617 439.037 482.743C440.163 483.868 441.689 484.5 443.28 484.5C444.871 484.5 446.397 483.868 447.523 482.743C448.648 481.617 449.28 480.091 449.28 478.5V468.5H459.28C460.871 468.5 462.397 467.868 463.523 466.743C464.648 465.617 465.28 464.091 465.28 462.5C465.28 460.909 464.648 459.383 463.523 458.257C462.397 457.132 460.871 456.5 459.28 456.5ZM44 374.5C44 372.909 43.3679 371.383 42.2426 370.257C41.1174 369.132 39.5913 368.5 38 368.5H28V358.5C28 356.909 27.3679 355.383 26.2426 354.257C25.1174 353.132 23.5913 352.5 22 352.5C20.4087 352.5 18.8826 353.132 17.7574 354.257C16.6321 355.383 16 356.909 16 358.5V368.5H6C4.4087 368.5 2.88258 369.132 1.75736 370.257C0.632141 371.383 0 372.909 0 374.5C0 376.091 0.632141 377.617 1.75736 378.743C2.88258 379.868 4.4087 380.5 6 380.5H16V390.5C16 392.091 16.6321 393.617 17.7574 394.743C18.8826 395.868 20.4087 396.5 22 396.5C23.5913 396.5 25.1174 395.868 26.2426 394.743C27.3679 393.617 28 392.091 28 390.5V380.5H38C39.5913 380.5 41.1174 379.868 42.2426 378.743C43.3679 377.617 44 376.091 44 374.5ZM58 456.5C48.072 456.5 40 464.572 40 474.5C40 484.428 48.072 492.5 58 492.5C67.928 492.5 76 484.428 76 474.5C76 464.572 67.928 456.5 58 456.5ZM58 480.5C56.4087 480.5 54.8826 479.868 53.7574 478.743C52.6321 477.617 52 476.091 52 474.5C52 472.909 52.6321 471.383 53.7574 470.257C54.8826 469.132 56.4087 468.5 58 468.5C59.5913 468.5 61.1174 469.132 62.2426 470.257C63.3679 471.383 64 472.909 64 474.5C64 476.091 63.3679 477.617 62.2426 478.743C61.1174 479.868 59.5913 480.5 58 480.5ZM490 360.5C480.072 360.5 472 368.572 472 378.5C472 388.428 480.072 396.5 490 396.5C499.928 396.5 508 388.428 508 378.5C508 368.572 499.928 360.5 490 360.5ZM490 384.5C488.409 384.5 486.883 383.868 485.757 382.743C484.632 381.617 484 380.091 484 378.5C484 376.909 484.632 375.383 485.757 374.257C486.883 373.132 488.409 372.5 490 372.5C491.591 372.5 493.117 373.132 494.243 374.257C495.368 375.383 496 376.909 496 378.5C496 380.091 495.368 381.617 494.243 382.743C493.117 383.868 491.591 384.5 490 384.5ZM254 256.5C184.52 256.5 128 313.02 128 382.5C128 451.98 184.52 508.5 254 508.5C323.48 508.5 380 451.98 380 382.5C380 313.02 323.48 256.5 254 256.5ZM217.76 274.508C208.968 283.988 201.4 296.916 195.656 312.556C187.41 310.243 179.307 307.443 171.392 304.172C184.197 290.649 200.116 280.465 217.76 274.508ZM200 350.5C200 356.012 195.512 360.5 190 360.5C184.488 360.5 180 356.012 180 350.5C180 344.988 184.488 340.5 190 340.5C195.512 340.5 200 344.988 200 350.5ZM163.272 313.756C172.583 317.785 182.15 321.193 191.912 323.956C191.48 325.452 191.12 327.036 190.712 328.572C190.472 328.572 190.248 328.5 190 328.5C184.167 328.504 178.573 330.823 174.448 334.948C170.323 339.073 168.004 344.667 168 350.5C168 360.652 174.952 369.14 184.312 371.66C184.232 373.324 184.168 374.932 184.12 376.5H140.304C141.473 353.751 149.477 331.883 163.272 313.756ZM163.272 451.236C149.477 433.109 141.473 411.241 140.304 388.492H184.16C184.64 407.508 187.304 425.308 191.808 441.068C182.128 443.796 172.616 447.212 163.272 451.236ZM171.392 460.828C179.257 457.58 187.305 454.796 195.496 452.492C201.144 467.948 208.672 480.836 217.504 490.396C199.962 484.432 184.13 474.283 171.392 460.828ZM248 495.844C231.6 492.348 217.032 474.692 207.504 449.484C220.822 446.61 234.38 444.992 248 444.652V495.844ZM248 432.66C232.96 433.044 218.152 434.828 203.672 438.076C199.32 423.18 196.664 406.316 196.16 388.5H248V432.66ZM248 376.5H196.128C196.184 374.876 196.256 373.196 196.344 371.46C200.857 370.108 204.815 367.34 207.634 363.566C210.453 359.792 211.984 355.211 212 350.5C212 342.868 208.088 336.14 202.168 332.196C202.632 330.428 203.056 328.62 203.56 326.9C218.08 330.164 232.92 331.956 248 332.34V376.5ZM248 320.34C234.322 320.002 220.707 318.371 207.336 315.468C217.032 289.86 231.968 272.708 248 269.22V320.34ZM336.608 304.164C328.696 307.412 320.672 310.22 312.504 312.5C306.856 297.044 299.328 284.156 290.496 274.596C308.039 280.562 323.866 290.711 336.608 304.164ZM260 269.148C276.4 272.644 290.968 290.3 300.496 315.508C287.178 318.382 273.62 320 260 320.34V269.148ZM260 332.332C274.917 331.976 289.764 330.162 304.328 326.916C308.68 341.812 311.336 358.676 311.84 376.492H260V332.332ZM260 388.492H311.872C311.816 390.116 311.744 391.796 311.656 393.532C307.143 394.884 303.185 397.652 300.366 401.426C297.547 405.2 296.016 409.781 296 414.492C296 422.124 299.912 428.852 305.832 432.796C305.368 434.564 304.944 436.372 304.44 438.092C289.84 434.831 274.956 433.008 260 432.652V388.492ZM318 404.492C323.512 404.492 328 408.98 328 414.492C328 420.004 323.512 424.492 318 424.492C312.488 424.492 308 420.004 308 414.492C308 408.98 312.488 404.492 318 404.492ZM260 495.764V444.652C273.784 445.02 287.368 446.612 300.664 449.524C290.968 475.132 276.032 492.276 260 495.764ZM290.24 490.484C299.032 481.004 306.6 468.076 312.344 452.436C320.56 454.724 328.648 457.548 336.608 460.82C323.805 474.345 307.886 484.53 290.24 490.484ZM344.728 451.228C335.417 447.199 325.85 443.791 316.088 441.028C316.52 439.532 316.88 437.948 317.288 436.412C317.528 436.412 317.752 436.484 318 436.484C323.833 436.48 329.427 434.161 333.552 430.036C337.677 425.911 339.996 420.317 340 414.484C340 404.332 333.048 395.844 323.688 393.324C323.768 391.66 323.832 390.052 323.88 388.484H367.696C366.527 411.233 358.523 433.101 344.728 451.228ZM367.696 376.484H323.84C323.36 357.468 320.696 339.668 316.192 323.908C325.917 321.15 335.45 317.754 344.728 313.74C358.523 331.867 366.527 353.735 367.696 376.484Z" fill="url(#paint0_linear_1347_67)"/>
<path d="M254 0.5C111.568 0.5 0 38.276 0 86.5V278.5C0 298.556 18.408 317.06 53.232 332.012C54.1446 332.404 55.1402 332.563 56.1296 332.476C57.1189 332.388 58.0711 332.056 58.9005 331.51C59.73 330.963 60.4108 330.22 60.882 329.345C61.3531 328.471 61.5998 327.493 61.6 326.5V234.428C88.088 223.556 124.392 214.66 168 209.46V214.5C168 216.956 169.496 219.164 171.776 220.068C199.056 230.98 226.528 236.436 254 236.436C281.472 236.436 308.952 230.98 336.224 220.068C337.338 219.624 338.293 218.855 338.966 217.863C339.639 216.871 339.999 215.699 340 214.5V209.46C347.776 210.388 355.208 211.476 362.488 212.636L360.056 229.652C359.935 230.503 359.997 231.369 360.24 232.194C360.482 233.018 360.899 233.781 361.462 234.43C362.025 235.079 362.721 235.6 363.502 235.957C364.284 236.314 365.133 236.499 365.992 236.5H397.992C398.851 236.499 399.7 236.314 400.482 235.957C401.263 235.6 401.959 235.079 402.522 234.43C403.085 233.781 403.502 233.018 403.744 232.194C403.987 231.369 404.049 230.503 403.928 229.652L402.64 220.652C419.168 224.708 433.944 229.324 446.392 234.428V326.5C446.392 327.493 446.639 328.471 447.11 329.345C447.581 330.22 448.262 330.963 449.091 331.51C449.921 332.056 450.873 332.388 451.862 332.476C452.852 332.563 453.847 332.404 454.76 332.012C489.584 317.06 507.992 298.556 507.992 278.5V86.5C508 38.276 396.432 0.5 254 0.5ZM49.6 317.164C25.272 305.292 12 291.724 12 278.5C12 265.276 25.392 251.652 49.6 239.788V317.164ZM49.6 226.908C33.336 234.348 20.488 242.724 12 251.828V113.46C20.336 122.468 32.904 130.876 49.6 138.412V226.9V226.908ZM328 210.404C278.872 229.076 229.128 229.076 180 210.404V195.204C229.16 212.868 278.856 212.868 328 195.204V210.404ZM328 182.348C278.872 201.028 229.128 201.028 180 182.348V132.676L251.592 163.996C253.128 164.668 254.872 164.668 256.4 163.996L327.992 132.676V182.34L328 182.348ZM254 151.956L140.968 102.508L254 53.06L353.32 96.508H274.696C271.728 89.468 263.736 84.508 254 84.508C241.664 84.508 232 92.412 232 102.508C232 112.604 241.664 120.508 254 120.508C263.736 120.508 271.728 115.548 274.696 108.508H353.32L254 151.956ZM264 102.508C264 105.34 259.72 108.508 254 108.508C248.28 108.508 244 105.34 244 102.508C244 99.676 248.28 96.508 254 96.508C259.72 96.508 264 99.676 264 102.508ZM366.928 181.58L364.176 200.86C356.141 199.57 348.08 198.439 340 197.468V127.436L376 111.684V169.804C373.61 170.832 371.522 172.453 369.935 174.514C368.347 176.575 367.312 179.007 366.928 181.58ZM372.92 224.508L378.808 183.276C379.032 181.7 380.408 180.508 382 180.508C383.592 180.508 384.968 181.7 385.192 183.276L391.08 224.508H372.912H372.92ZM458.408 317.172V239.804C482.608 251.668 496.008 265.26 496.008 278.516C496.008 291.772 482.736 305.3 458.408 317.172ZM496.008 251.836C487.52 242.732 474.672 234.364 458.408 226.916V138.428C475.104 130.892 487.664 122.484 496.008 113.476V251.82V251.836ZM450.04 129.004C448.961 129.465 448.041 130.234 447.395 131.214C446.749 132.194 446.406 133.342 446.408 134.516V221.844C433.04 216.62 417.664 212.044 400.864 208.084L397.08 181.58C396.695 179.008 395.659 176.578 394.072 174.518C392.484 172.459 390.397 170.839 388.008 169.812V102.5C388.009 101.334 387.67 100.193 387.032 99.2162C386.394 98.24 385.485 97.4711 384.416 97.004L256.416 41.004C255.658 40.6715 254.84 40.4999 254.012 40.4999C253.184 40.4999 252.366 40.6715 251.608 41.004L123.592 97.004C122.524 97.4718 121.615 98.2408 120.977 99.2169C120.339 100.193 119.999 101.334 119.999 102.5C119.999 103.666 120.339 104.807 120.977 105.783C121.615 106.759 122.524 107.528 123.592 107.996L168 127.42V197.452C126.264 202.404 89.76 210.82 61.6 221.82V134.492C61.5998 133.319 61.2557 132.171 60.6101 131.192C59.9646 130.212 59.046 129.443 57.968 128.98C28.328 116.252 12 101.164 12 86.492C12 50.764 109.24 12.5 254 12.5C398.76 12.5 496 50.764 496 86.5C496 101.164 479.672 116.26 450.032 128.988L450.04 129.004Z" fill="url(#paint1_linear_1347_67)"/>
</g>
<defs>
<linearGradient id="paint0_linear_1347_67" x1="18.1253" y1="272.742" x2="194.625" y2="681.079" gradientUnits="userSpaceOnUse">
<stop stop-color="#1BA2D7"/>
<stop offset="1" stop-color="#8D3DFA"/>
</linearGradient>
<linearGradient id="paint1_linear_1347_67" x1="18.1251" y1="21.8984" x2="292.679" y2="504.024" gradientUnits="userSpaceOnUse">
<stop stop-color="#1BA2D7"/>
<stop offset="1" stop-color="#8D3DFA"/>
</linearGradient>
<clipPath id="clip0_1347_67">
<rect width="508" height="508" fill="white" transform="translate(0 0.5)"/>
</clipPath>
</defs>
</svg>
