<svg width="512" height="512" viewBox="0 0 512 512" fill="none" xmlns="http://www.w3.org/2000/svg">
<path d="M427.28 296C427.28 294.409 426.648 292.883 425.523 291.757C424.397 290.632 422.871 290 421.28 290H411.28V280C411.28 278.409 410.648 276.883 409.523 275.757C408.397 274.632 406.871 274 405.28 274C403.689 274 402.163 274.632 401.037 275.757C399.912 276.883 399.28 278.409 399.28 280V290H389.28C387.689 290 386.163 290.632 385.037 291.757C383.912 292.883 383.28 294.409 383.28 296C383.28 297.591 383.912 299.117 385.037 300.243C386.163 301.368 387.689 302 389.28 302H399.28V312C399.28 313.591 399.912 315.117 401.037 316.243C402.163 317.368 403.689 318 405.28 318C406.871 318 408.397 317.368 409.523 316.243C410.648 315.117 411.28 313.591 411.28 312V302H421.28C422.871 302 424.397 301.368 425.523 300.243C426.648 299.117 427.28 297.591 427.28 296ZM461.28 458H451.28V448C451.28 446.409 450.648 444.883 449.523 443.757C448.397 442.632 446.871 442 445.28 442C443.689 442 442.163 442.632 441.037 443.757C439.912 444.883 439.28 446.409 439.28 448V458H429.28C427.689 458 426.163 458.632 425.037 459.757C423.912 460.883 423.28 462.409 423.28 464C423.28 465.591 423.912 467.117 425.037 468.243C426.163 469.368 427.689 470 429.28 470H439.28V480C439.28 481.591 439.912 483.117 441.037 484.243C442.163 485.368 443.689 486 445.28 486C446.871 486 448.397 485.368 449.523 484.243C450.648 483.117 451.28 481.591 451.28 480V470H461.28C462.871 470 464.397 469.368 465.523 468.243C466.648 467.117 467.28 465.591 467.28 464C467.28 462.409 466.648 460.883 465.523 459.757C464.397 458.632 462.871 458 461.28 458ZM46 376C46 374.409 45.3679 372.883 44.2426 371.757C43.1174 370.632 41.5913 370 40 370H30V360C30 358.409 29.3679 356.883 28.2426 355.757C27.1174 354.632 25.5913 354 24 354C22.4087 354 20.8826 354.632 19.7574 355.757C18.6321 356.883 18 358.409 18 360V370H8C6.4087 370 4.88258 370.632 3.75736 371.757C2.63214 372.883 2 374.409 2 376C2 377.591 2.63214 379.117 3.75736 380.243C4.88258 381.368 6.4087 382 8 382H18V392C18 393.591 18.6321 395.117 19.7574 396.243C20.8826 397.368 22.4087 398 24 398C25.5913 398 27.1174 397.368 28.2426 396.243C29.3679 395.117 30 393.591 30 392V382H40C41.5913 382 43.1174 381.368 44.2426 380.243C45.3679 379.117 46 377.591 46 376ZM60 458C50.072 458 42 466.072 42 476C42 485.928 50.072 494 60 494C69.928 494 78 485.928 78 476C78 466.072 69.928 458 60 458ZM60 482C58.4087 482 56.8826 481.368 55.7574 480.243C54.6321 479.117 54 477.591 54 476C54 474.409 54.6321 472.883 55.7574 471.757C56.8826 470.632 58.4087 470 60 470C61.5913 470 63.1174 470.632 64.2426 471.757C65.3679 472.883 66 474.409 66 476C66 477.591 65.3679 479.117 64.2426 480.243C63.1174 481.368 61.5913 482 60 482ZM492 362C482.072 362 474 370.072 474 380C474 389.928 482.072 398 492 398C501.928 398 510 389.928 510 380C510 370.072 501.928 362 492 362ZM492 386C490.409 386 488.883 385.368 487.757 384.243C486.632 383.117 486 381.591 486 380C486 378.409 486.632 376.883 487.757 375.757C488.883 374.632 490.409 374 492 374C493.591 374 495.117 374.632 496.243 375.757C497.368 376.883 498 378.409 498 380C498 381.591 497.368 383.117 496.243 384.243C495.117 385.368 493.591 386 492 386ZM256 258C186.52 258 130 314.52 130 384C130 453.48 186.52 510 256 510C325.48 510 382 453.48 382 384C382 314.52 325.48 258 256 258ZM219.76 276.008C210.968 285.488 203.4 298.416 197.656 314.056C189.41 311.743 181.307 308.943 173.392 305.672C186.197 292.149 202.116 281.965 219.76 276.008ZM202 352C202 357.512 197.512 362 192 362C186.488 362 182 357.512 182 352C182 346.488 186.488 342 192 342C197.512 342 202 346.488 202 352ZM165.272 315.256C174.583 319.285 184.15 322.693 193.912 325.456C193.48 326.952 193.12 328.536 192.712 330.072C192.472 330.072 192.248 330 192 330C186.167 330.004 180.573 332.323 176.448 336.448C172.323 340.573 170.004 346.167 170 352C170 362.152 176.952 370.64 186.312 373.16C186.232 374.824 186.168 376.432 186.12 378H142.304C143.473 355.251 151.477 333.383 165.272 315.256ZM165.272 452.736C151.477 434.609 143.473 412.741 142.304 389.992H186.16C186.64 409.008 189.304 426.808 193.808 442.568C184.128 445.296 174.616 448.712 165.272 452.736ZM173.392 462.328C181.257 459.08 189.305 456.296 197.496 453.992C203.144 469.448 210.672 482.336 219.504 491.896C201.962 485.932 186.13 475.783 173.392 462.328ZM250 497.344C233.6 493.848 219.032 476.192 209.504 450.984C222.822 448.11 236.38 446.492 250 446.152V497.344ZM250 434.16C234.96 434.544 220.152 436.328 205.672 439.576C201.32 424.68 198.664 407.816 198.16 390H250V434.16ZM250 378H198.128C198.184 376.376 198.256 374.696 198.344 372.96C202.857 371.608 206.815 368.84 209.634 365.066C212.453 361.292 213.984 356.711 214 352C214 344.368 210.088 337.64 204.168 333.696C204.632 331.928 205.056 330.12 205.56 328.4C220.08 331.664 234.92 333.456 250 333.84V378ZM250 321.84C236.322 321.502 222.707 319.871 209.336 316.968C219.032 291.36 233.968 274.208 250 270.72V321.84ZM338.608 305.664C330.696 308.912 322.672 311.72 314.504 314C308.856 298.544 301.328 285.656 292.496 276.096C310.039 282.062 325.866 292.211 338.608 305.664ZM262 270.648C278.4 274.144 292.968 291.8 302.496 317.008C289.178 319.882 275.62 321.5 262 321.84V270.648ZM262 333.832C276.917 333.476 291.764 331.662 306.328 328.416C310.68 343.312 313.336 360.176 313.84 377.992H262V333.832ZM262 389.992H313.872C313.816 391.616 313.744 393.296 313.656 395.032C309.143 396.384 305.185 399.152 302.366 402.926C299.547 406.7 298.016 411.281 298 415.992C298 423.624 301.912 430.352 307.832 434.296C307.368 436.064 306.944 437.872 306.44 439.592C291.84 436.331 276.956 434.508 262 434.152V389.992ZM320 405.992C325.512 405.992 330 410.48 330 415.992C330 421.504 325.512 425.992 320 425.992C314.488 425.992 310 421.504 310 415.992C310 410.48 314.488 405.992 320 405.992ZM262 497.264V446.152C275.784 446.52 289.368 448.112 302.664 451.024C292.968 476.632 278.032 493.776 262 497.264ZM292.24 491.984C301.032 482.504 308.6 469.576 314.344 453.936C322.56 456.224 330.648 459.048 338.608 462.32C325.805 475.845 309.886 486.03 292.24 491.984ZM346.728 452.728C337.417 448.699 327.85 445.291 318.088 442.528C318.52 441.032 318.88 439.448 319.288 437.912C319.528 437.912 319.752 437.984 320 437.984C325.833 437.98 331.427 435.661 335.552 431.536C339.677 427.411 341.996 421.817 342 415.984C342 405.832 335.048 397.344 325.688 394.824C325.768 393.16 325.832 391.552 325.88 389.984H369.696C368.527 412.733 360.523 434.601 346.728 452.728ZM369.696 377.984H325.84C325.36 358.968 322.696 341.168 318.192 325.408C327.917 322.65 337.45 319.254 346.728 315.24C360.523 333.367 368.527 355.235 369.696 377.984Z" fill="white"/>
<path d="M256 2C113.568 2 2 39.776 2 88V280C2 300.056 20.408 318.56 55.232 333.512C56.1446 333.904 57.1402 334.063 58.1296 333.976C59.1189 333.888 60.0711 333.556 60.9005 333.01C61.73 332.463 62.4108 331.72 62.882 330.845C63.3531 329.971 63.5998 328.993 63.6 328V235.928C90.088 225.056 126.392 216.16 170 210.96V216C170 218.456 171.496 220.664 173.776 221.568C201.056 232.48 228.528 237.936 256 237.936C283.472 237.936 310.952 232.48 338.224 221.568C339.338 221.124 340.293 220.355 340.966 219.363C341.639 218.371 341.999 217.199 342 216V210.96C349.776 211.888 357.208 212.976 364.488 214.136L362.056 231.152C361.935 232.003 361.997 232.869 362.24 233.694C362.482 234.518 362.899 235.281 363.462 235.93C364.025 236.579 364.721 237.1 365.502 237.457C366.284 237.814 367.133 237.999 367.992 238H399.992C400.851 237.999 401.7 237.814 402.482 237.457C403.263 237.1 403.959 236.579 404.522 235.93C405.085 235.281 405.502 234.518 405.744 233.694C405.987 232.869 406.049 232.003 405.928 231.152L404.64 222.152C421.168 226.208 435.944 230.824 448.392 235.928V328C448.392 328.993 448.639 329.971 449.11 330.845C449.581 331.72 450.262 332.463 451.091 333.01C451.921 333.556 452.873 333.888 453.862 333.976C454.852 334.063 455.847 333.904 456.76 333.512C491.584 318.56 509.992 300.056 509.992 280V88C510 39.776 398.432 2 256 2ZM51.6 318.664C27.272 306.792 14 293.224 14 280C14 266.776 27.392 253.152 51.6 241.288V318.664ZM51.6 228.408C35.336 235.848 22.488 244.224 14 253.328V114.96C22.336 123.968 34.904 132.376 51.6 139.912V228.4V228.408ZM330 211.904C280.872 230.576 231.128 230.576 182 211.904V196.704C231.16 214.368 280.856 214.368 330 196.704V211.904ZM330 183.848C280.872 202.528 231.128 202.528 182 183.848V134.176L253.592 165.496C255.128 166.168 256.872 166.168 258.4 165.496L329.992 134.176V183.84L330 183.848ZM256 153.456L142.968 104.008L256 54.56L355.32 98.008H276.696C273.728 90.968 265.736 86.008 256 86.008C243.664 86.008 234 93.912 234 104.008C234 114.104 243.664 122.008 256 122.008C265.736 122.008 273.728 117.048 276.696 110.008H355.32L256 153.456ZM266 104.008C266 106.84 261.72 110.008 256 110.008C250.28 110.008 246 106.84 246 104.008C246 101.176 250.28 98.008 256 98.008C261.72 98.008 266 101.176 266 104.008ZM368.928 183.08L366.176 202.36C358.141 201.07 350.08 199.939 342 198.968V128.936L378 113.184V171.304C375.61 172.332 373.522 173.953 371.935 176.014C370.347 178.075 369.312 180.507 368.928 183.08ZM374.92 226.008L380.808 184.776C381.032 183.2 382.408 182.008 384 182.008C385.592 182.008 386.968 183.2 387.192 184.776L393.08 226.008H374.912H374.92ZM460.408 318.672V241.304C484.608 253.168 498.008 266.76 498.008 280.016C498.008 293.272 484.736 306.8 460.408 318.672ZM498.008 253.336C489.52 244.232 476.672 235.864 460.408 228.416V139.928C477.104 132.392 489.664 123.984 498.008 114.976V253.32V253.336ZM452.04 130.504C450.961 130.965 450.041 131.734 449.395 132.714C448.749 133.694 448.406 134.842 448.408 136.016V223.344C435.04 218.12 419.664 213.544 402.864 209.584L399.08 183.08C398.695 180.508 397.659 178.078 396.072 176.018C394.484 173.959 392.397 172.339 390.008 171.312V104C390.009 102.834 389.67 101.692 389.032 100.716C388.394 99.74 387.485 98.9711 386.416 98.504L258.416 42.504C257.658 42.1715 256.84 41.9999 256.012 41.9999C255.184 41.9999 254.366 42.1715 253.608 42.504L125.592 98.504C124.524 98.9718 123.615 99.7408 122.977 100.717C122.339 101.693 121.999 102.834 121.999 104C121.999 105.166 122.339 106.307 122.977 107.283C123.615 108.259 124.524 109.028 125.592 109.496L170 128.92V198.952C128.264 203.904 91.76 212.32 63.6 223.32V135.992C63.5998 134.819 63.2557 133.671 62.6101 132.692C61.9646 131.712 61.046 130.943 59.968 130.48C30.328 117.752 14 102.664 14 87.992C14 52.264 111.24 14 256 14C400.76 14 498 52.264 498 88C498 102.664 481.672 117.76 452.032 130.488L452.04 130.504Z" fill="white"/>
</svg>
