<svg width="512" height="512" viewBox="0 0 512 512" fill="none" xmlns="http://www.w3.org/2000/svg">
<path fill-rule="evenodd" clip-rule="evenodd" d="M59.7991 114.549C59.7991 120.405 64.5535 125.16 70.3985 125.16C76.2435 125.16 80.999 120.406 80.999 114.549C80.999 108.75 76.2435 103.937 70.3985 103.937C64.5535 103.937 59.7991 108.75 59.7991 114.549ZM46.0335 114.549C46.0335 101.154 56.9637 90.1949 70.3985 90.1949C81.4393 90.1949 90.7864 97.6169 93.7611 107.706H144.638C146.299 107.699 147.907 108.296 149.161 109.388L184.121 139.773C188.8 143.846 186.12 151.834 179.592 151.834C177.997 151.834 176.391 151.311 175.08 150.152L142.068 121.449H93.7621C90.7874 131.539 81.4403 138.904 70.3996 138.904C56.9637 138.902 46.0335 128.001 46.0335 114.549ZM63.8695 178.101C63.8695 172.302 59.1141 167.548 53.2691 167.548C47.4302 167.548 42.6748 172.303 42.6748 178.101C42.6748 183.957 47.4302 188.713 53.2691 188.713C59.1151 188.713 63.8695 183.957 63.8695 178.101ZM53.2701 202.513C39.8403 202.513 28.9102 191.554 28.9102 178.101C28.9102 164.706 39.8403 153.747 53.2701 153.747C64.316 153.747 73.6579 161.169 76.6388 171.26H127.515C129.173 171.26 130.78 171.839 132.027 172.941L153.592 191.67C158.407 195.852 155.377 203.789 149.081 203.789C147.412 203.785 145.804 203.166 144.564 202.05L124.936 185.002H76.6388C73.6579 195.09 64.316 202.513 53.2701 202.513ZM469.325 178.101C469.325 172.302 464.576 167.548 458.731 167.548C452.886 167.548 448.131 172.303 448.131 178.101C448.131 183.957 452.886 188.713 458.731 188.713C464.576 188.713 469.325 183.957 469.325 178.101ZM483.091 178.101C483.091 191.554 472.161 202.513 458.731 202.513C447.69 202.513 438.343 195.091 435.369 185.002H387.06L367.444 202.05C364.519 204.621 360.219 204.284 357.737 201.412C355.238 198.513 355.54 194.164 358.416 191.67L379.98 172.941C381.227 171.839 382.833 171.26 384.492 171.26H435.37C438.344 161.17 447.691 153.747 458.732 153.747C472.161 153.746 483.091 164.706 483.091 178.101ZM431.008 114.549C431.008 120.405 435.763 125.16 441.608 125.16C447.453 125.16 452.207 120.406 452.207 114.549C452.207 108.75 447.453 103.937 441.608 103.937C435.763 103.937 431.008 108.75 431.008 114.549ZM327.885 139.773L362.846 109.388C364.096 108.296 365.703 107.698 367.363 107.706H418.24C421.221 97.6169 430.562 90.1949 441.609 90.1949C455.039 90.1949 465.969 101.154 465.969 114.549C465.969 128.002 455.039 138.903 441.609 138.903C430.563 138.903 421.221 131.538 418.24 121.448H369.938L336.915 150.151C334.09 152.64 329.635 152.325 327.209 149.513C324.714 146.614 325.016 142.265 327.885 139.773ZM183.768 79.061C185.53 79.061 187.293 78.423 188.633 77.0314C225.784 39.9206 286.223 39.9206 323.363 77.0314C323.998 77.6785 324.756 78.1925 325.592 78.5434C326.428 78.8943 327.325 79.0751 328.232 79.0751C329.138 79.0751 330.035 78.8943 330.871 78.5434C331.707 78.1925 332.465 77.6785 333.1 77.0314C333.739 76.3976 334.247 75.6434 334.593 74.8123C334.94 73.9813 335.118 73.0898 335.118 72.1894C335.118 71.289 334.94 70.3975 334.593 69.5665C334.247 68.7354 333.739 67.9812 333.1 67.3474C290.59 24.7859 221.418 24.7859 178.909 67.3474C174.561 71.6789 177.709 79.061 183.768 79.061ZM223.354 111.765C218.985 116.097 222.17 123.536 228.226 123.536C229.988 123.536 231.74 122.841 233.085 121.507C236.089 118.488 239.66 116.093 243.592 114.459C247.525 112.824 251.742 111.983 256.001 111.983C260.259 111.983 264.476 112.824 268.409 114.459C272.341 116.093 275.912 118.488 278.917 121.507C281.608 124.174 285.968 124.174 288.647 121.507C291.332 118.839 291.332 114.433 288.647 111.765C270.528 93.7287 241.421 93.7461 223.354 111.765ZM305.08 102.256C303.254 102.248 301.505 101.518 300.215 100.226C294.414 94.4105 287.523 89.7965 279.937 86.6483C272.35 83.5001 264.217 81.8796 256.003 81.8796C247.789 81.8796 239.656 83.5001 232.07 86.6483C224.483 89.7965 217.592 94.4105 211.791 100.226C210.496 101.508 208.746 102.226 206.924 102.226C205.101 102.226 203.352 101.508 202.056 100.226C199.365 97.5012 199.365 93.1522 202.056 90.4847C231.959 60.675 280.04 60.6771 309.951 90.4847C314.333 94.851 311.1 102.256 305.08 102.256ZM432.046 282.592C435.646 312.174 415.191 339.259 379.099 358.264C310.783 394.236 201.218 394.242 132.902 358.264C96.7614 339.23 76.4238 312.239 79.9494 282.592C76.2671 289.898 74.3594 297.437 74.3594 305.033V370.5C74.3594 394.274 92.6654 417.062 125.897 434.516C197.667 472.284 314.335 472.281 386.098 434.516C419.341 417.062 437.642 394.274 437.642 370.5V305.033C437.642 297.436 435.74 289.898 432.046 282.592ZM138.735 345.797L144.545 331.532C149.985 318.137 162.324 309.845 176.751 309.845H335.256C349.683 309.845 362.023 318.137 367.45 331.532L373.271 345.797C373.074 345.912 372.883 346.029 372.692 346.086C341.635 362.439 300.197 371.426 256.001 371.426C211.809 371.426 170.367 362.439 139.315 346.086C139.124 346.029 138.927 345.912 138.735 345.797ZM256.001 296.103C232.423 296.103 210.772 282.302 198.513 260.268H240.547C241.534 260.266 242.509 260.053 243.406 259.643C244.303 259.233 245.102 258.635 245.748 257.89L256.001 246.061L266.258 257.89C266.903 258.637 267.702 259.236 268.6 259.646C269.497 260.057 270.473 260.269 271.46 260.268H313.488C301.224 282.301 279.578 296.103 256.001 296.103ZM197.834 181.059H314.172C302.059 158.269 280.14 144.005 256.001 144.005C231.867 144.005 209.948 158.269 197.834 181.059ZM237.399 246.525L250.794 231.043C253.543 227.879 258.461 227.877 261.203 231.043L274.609 246.525H322.07C326.308 246.525 329.747 243.046 329.747 238.813V202.513C329.747 198.28 326.308 194.859 322.07 194.859H189.937C185.699 194.859 182.254 198.28 182.254 202.513V238.813C182.254 243.046 185.699 246.525 189.937 246.525H237.399ZM451.407 305.032C451.407 277.604 432.614 251.685 398.513 232.085C395.353 230.288 391.334 231.216 389.34 234.231C388.372 235.7 387.999 237.481 388.297 239.215C388.594 240.948 389.539 242.504 390.94 243.567C403.599 253.076 418.669 268.732 418.669 289.085C418.669 307.061 406.916 324.341 385.246 338.722L380.207 326.313C372.611 307.7 355.383 296.102 335.256 296.102H299.369C312.155 287.23 322.697 274.531 329.476 258.991C337.657 255.918 343.514 248.032 343.514 238.812V202.512C343.514 193.525 337.971 185.87 330.13 182.623C316.857 150.732 288.102 130.263 256.001 130.263C223.899 130.263 195.15 150.732 181.877 182.624C174.031 185.871 168.494 193.526 168.494 202.513V238.813C168.494 248.033 174.339 255.919 182.52 258.992C189.299 274.532 199.846 287.232 212.638 296.103H176.751C156.618 296.103 139.385 307.7 131.801 326.314L126.762 338.723C105.092 324.342 93.332 307.063 93.332 289.086C93.332 268.733 108.408 253.077 121.061 243.568C123.972 241.364 124.667 237.305 122.668 234.232C120.662 231.216 116.643 230.288 113.495 232.087C79.3811 251.686 60.5999 277.605 60.5999 305.033V370.5C60.5999 399.666 81.5151 426.746 119.496 446.693C195.269 486.535 316.736 486.536 392.512 446.693C430.487 426.746 451.408 399.667 451.408 370.5V305.032H451.407ZM223.239 210.399C223.239 214.227 220.16 217.3 216.362 217.3H201.257C197.459 217.3 194.379 214.227 194.379 210.399C194.377 209.494 194.552 208.598 194.897 207.761C195.241 206.924 195.747 206.163 196.386 205.522C197.025 204.881 197.784 204.372 198.62 204.025C199.455 203.678 200.352 203.5 201.257 203.499H216.362C220.16 203.498 223.239 206.573 223.239 210.399Z" fill="white"/>
</svg>
