<svg width="512" height="505" viewBox="0 0 512 505" fill="none" xmlns="http://www.w3.org/2000/svg">
<g clip-path="url(#clip0_1347_33)">
<path d="M196.067 260.443C197.36 260.443 198.632 260.109 199.757 259.472C200.883 258.836 201.825 257.919 202.492 256.811L216.023 234.336L233.953 262.828C234.642 263.924 235.604 264.823 236.744 265.438C237.883 266.052 239.163 266.361 240.458 266.334C241.752 266.307 243.018 265.945 244.131 265.283C245.244 264.622 246.167 263.683 246.81 262.559L275.675 212.123L314.443 282.773C315.079 283.932 316.01 284.902 317.141 285.585C318.272 286.268 319.564 286.64 320.885 286.664L321.018 286.665C322.317 286.665 323.594 286.327 324.723 285.685C325.853 285.043 326.796 284.119 327.461 283.003L351.614 242.457H409.856C411.845 242.457 413.753 241.667 415.159 240.26C416.566 238.854 417.356 236.946 417.356 234.957C417.356 232.968 416.566 231.06 415.159 229.654C413.753 228.247 411.845 227.457 409.856 227.457H347.352C346.053 227.457 344.776 227.794 343.647 228.436C342.517 229.078 341.574 230.003 340.909 231.119L321.285 264.061L282.388 193.175C281.747 192.007 280.806 191.03 279.662 190.346C278.518 189.662 277.213 189.295 275.88 189.283H275.812C274.491 189.283 273.193 189.632 272.05 190.295C270.907 190.957 269.959 191.91 269.303 193.057L239.995 244.267L222.229 216.036C221.554 214.963 220.617 214.078 219.507 213.465C218.397 212.852 217.149 212.531 215.881 212.531H215.807C214.526 212.543 213.27 212.884 212.159 213.519C211.047 214.155 210.116 215.065 209.456 216.162L191.828 245.443H149.203C147.214 245.443 145.306 246.233 143.9 247.64C142.493 249.046 141.703 250.954 141.703 252.943C141.703 254.932 142.493 256.84 143.9 258.246C145.306 259.653 147.214 260.443 149.203 260.443H196.067ZM423.094 52.2852C421.105 52.2852 419.197 53.0754 417.791 54.4819C416.384 55.8884 415.594 57.7961 415.594 59.7852V81.9092H393.472C391.483 81.9092 389.575 82.6994 388.169 84.1059C386.762 85.5124 385.972 87.4201 385.972 89.4092C385.972 91.3983 386.762 93.306 388.169 94.7125C389.575 96.119 391.483 96.9092 393.472 96.9092H415.594V119.034C415.594 121.023 416.384 122.931 417.791 124.337C419.197 125.744 421.105 126.534 423.094 126.534C425.083 126.534 426.991 125.744 428.397 124.337C429.804 122.931 430.594 121.023 430.594 119.034V96.9092H452.716C454.705 96.9092 456.613 96.119 458.019 94.7125C459.426 93.306 460.216 91.3983 460.216 89.4092C460.216 87.4201 459.426 85.5124 458.019 84.1059C456.613 82.6994 454.705 81.9092 452.716 81.9092H430.594V59.7852C430.594 57.7961 429.804 55.8884 428.397 54.4819C426.991 53.0754 425.083 52.2852 423.094 52.2852Z" fill="url(#paint0_linear_1347_33)"/>
<path d="M449.56 309.25C486.099 270.187 496.571 211.118 476.486 160.478C498.039 144.234 512 118.423 512 89.409C512 40.384 472.118 0.5 423.096 0.5C402.959 0.5 383.24 7.411 367.57 19.96C366.035 21.209 365.055 23.0142 364.845 24.9821C364.635 26.95 365.212 28.9212 366.449 30.466C367.686 32.0108 369.484 33.004 371.45 33.2292C373.416 33.4543 375.392 32.8932 376.946 31.668C390.154 21.09 406.112 15.5 423.095 15.5C463.845 15.5 496.999 48.656 496.999 89.409C496.999 130.179 463.846 163.347 423.095 163.347C385.152 163.347 353.809 134.609 349.647 97.758C349.639 97.673 349.625 97.587 349.614 97.501C349.316 94.8139 349.165 92.1125 349.162 89.409C349.162 77.833 351.763 66.763 356.891 56.505C357.78 54.7257 357.926 52.6661 357.298 50.7791C356.669 48.892 355.316 47.332 353.537 46.442C351.758 45.5528 349.698 45.4065 347.811 46.0355C345.924 46.6645 344.364 48.0171 343.474 49.796C337.295 62.155 334.162 75.483 334.162 89.408C334.162 90.668 334.195 91.92 334.247 93.168C315.309 99.937 297.632 111.07 282.818 125.639L274.528 133.789L274.418 133.679L266.268 125.649C239.898 99.649 205.378 85.119 171.548 85.819C143.398 86.399 118.488 97.429 99.518 117.709C98.8449 118.429 98.3203 119.275 97.9741 120.198C97.6279 121.121 97.4669 122.103 97.5003 123.089C97.5337 124.074 97.7609 125.043 98.1689 125.94C98.5769 126.838 99.1576 127.646 99.878 128.319C102.908 131.139 107.648 130.989 110.478 127.959C126.618 110.699 147.838 101.309 171.858 100.819C201.658 100.209 232.228 113.159 255.738 136.329L263.898 144.369C267.838 148.249 271.198 150.179 274.548 150.179C277.868 150.179 281.178 148.279 285.048 144.479L293.338 136.329C305.795 124.085 320.488 114.551 336.218 108.436C344.955 148.364 380.586 178.346 423.094 178.346C437.647 178.346 451.394 174.83 463.531 168.602C480.15 213.303 470.608 264.728 438.658 298.938L330.99 409.15L322.08 410.89C319.92 411.31 318.01 411.69 316.27 412.04C304.97 414.33 302.27 414.87 289.04 412.83L224.89 401.1C216.15 398.08 217.03 391.12 217.52 389.03C218.29 385.78 221.31 380.53 227.8 381.51L227.98 381.54C230.87 381.91 233.97 382.31 237.21 382.72C249.36 384.29 263.12 386.06 275.34 387.31C300.34 389.84 314.48 376.72 317.42 362.58C320.41 348.17 312.2 329.01 287.1 321C286.8 320.91 286.49 320.83 286.17 320.77L244.86 313.19C222.44 309.08 205 312.25 178.6 317.05C171.62 318.32 163.7 319.75 154.88 321.2L135.3 324.42L129.27 318.25L110.42 298.95C75.19 261.18 67.38 202.02 91.46 155.05C93.35 151.37 91.89 146.85 88.21 144.96C84.52 143.07 80 144.52 78.11 148.21C51.19 200.73 59.99 266.95 99.52 309.25C99.56 309.29 99.6 309.33 99.63 309.37L117.23 327.39L84.452 332.778V331.922C84.452 326.131 79.343 321.42 73.063 321.42H11.36C5.096 321.42 0 326.131 0 331.922V463.887C0 469.678 5.096 474.389 11.36 474.389H73.064C79.344 474.389 84.453 469.678 84.453 463.887V462.978L151.9 481.33L214.16 498.25C228.37 502.66 239.82 504.48 250.27 504.48C266.81 504.48 280.86 499.94 299.42 493.94C301.07 493.41 302.76 492.86 304.5 492.3L427.19 452.96C441.41 448.4 451.53 438.16 454.25 425.57C456.36 415.81 453.42 406.17 446.38 399.78C440.68 394.61 427.28 387.19 401.45 395.36L356.91 404.07L449.45 309.37C449.49 309.33 449.52 309.29 449.56 309.25ZM15 459.389V336.419H69.452V341.572L69.45 341.619V453.159L69.452 453.185V459.389H15ZM405.6 409.78C419.44 405.34 430.63 405.74 436.31 410.89C439.37 413.67 440.57 417.87 439.59 422.39C438.01 429.68 431.66 435.77 422.61 438.67L299.91 478.02C298.16 478.58 296.46 479.13 294.8 479.67C265.45 489.15 250.72 493.92 218.48 483.89C218.4 483.86 218.31 483.84 218.22 483.81L84.452 447.431V347.98L157.31 336.01C166.25 334.54 174.24 333.08 181.29 331.8C206.94 327.14 222.43 324.33 242.15 327.95L282.98 335.44C298.9 340.67 304.39 351.56 302.73 359.53C300.82 368.74 290.66 373.79 276.86 372.39C264.84 371.16 251.18 369.4 239.13 367.85C235.91 367.43 232.82 367.03 229.95 366.67C215.61 364.55 205.5 374.58 202.92 385.61C202.37 387.96 202.15 390.46 202.31 392.98C202.86 402.1 208.31 411.56 220.75 415.53C221.06 415.63 225.2 416.4 225.2 416.4L286.45 427.6L286.65 427.63C299.29 429.6 304.76 429.43 312.51 428.06C314.54 427.7 322.82 426.02 324.95 425.61L338.45 422.97C338.45 422.97 405.32 409.87 405.6 409.78Z" fill="url(#paint1_linear_1347_33)"/>
</g>
<defs>
<linearGradient id="paint0_linear_1347_33" x1="153.068" y1="67.3917" x2="357.875" y2="386.814" gradientUnits="userSpaceOnUse">
<stop stop-color="#1BA2D7"/>
<stop offset="1" stop-color="#8D3DFA"/>
</linearGradient>
<linearGradient id="paint1_linear_1347_33" x1="18.2681" y1="32.9832" x2="497.221" y2="591.404" gradientUnits="userSpaceOnUse">
<stop stop-color="#1BA2D7"/>
<stop offset="1" stop-color="#8D3DFA"/>
</linearGradient>
<clipPath id="clip0_1347_33">
<rect width="512" height="504" fill="white" transform="translate(0 0.5)"/>
</clipPath>
</defs>
</svg>
