<svg width="512" height="512" viewBox="0 0 512 512" fill="none" xmlns="http://www.w3.org/2000/svg">
<path d="M339.12 388.96L288 370.4V349.92C294.418 345.441 299.826 339.667 303.877 332.971C307.928 326.274 310.531 318.804 311.52 311.04C318.487 309.356 324.687 305.381 329.126 299.752C333.565 294.124 335.986 287.168 336 280V256C336 211.92 300.08 176 256 176C211.92 176 176 211.92 176 256V280C176 295.04 186.48 307.6 200.48 311.04C201.469 318.804 204.072 326.274 208.123 332.971C212.174 339.667 217.582 345.441 224 349.92V370.4L172.88 388.96C162.085 392.906 152.76 400.069 146.165 409.483C139.57 418.896 136.022 430.106 136 441.6V472C136 485.2 146.8 496 160 496H352C365.2 496 376 485.2 376 472V441.6C375.978 430.106 372.43 418.896 365.835 409.483C359.24 400.069 349.915 392.906 339.12 388.96ZM312 432C316.4 432 320 435.6 320 440C320 444.4 316.4 448 312 448C307.6 448 304 444.4 304 440C304 435.6 307.6 432 312 432ZM192 280V256C192 220.72 220.72 192 256 192C291.28 192 320 220.72 320 256V280C319.983 282.792 319.236 285.532 317.832 287.945C316.429 290.359 314.418 292.364 312 293.76V264C312 259.6 308.4 256 304 256H283.28L269.6 242.32C268.86 241.579 267.981 240.99 267.013 240.589C266.045 240.187 265.008 239.981 263.96 239.981C262.912 239.981 261.875 240.187 260.907 240.589C259.939 240.99 259.06 241.579 258.32 242.32L244.64 256H207.92C203.52 256 199.92 259.6 199.92 264V293.76C195.2 290.96 191.92 285.84 191.92 280H192ZM216 304V272H248C250.16 272 252.16 271.12 253.68 269.68L264 259.36L274.32 269.68C275.84 271.2 277.84 272 280 272H296V304C296 326.08 278.08 344 256 344C233.92 344 216 326.08 216 304ZM256 360C261.6 360 266.96 359.12 272 357.68V371.76L256 382.4L240 371.76V357.68C245.04 359.2 250.4 360 256 360ZM360 472C360 476.4 356.4 480 352 480H160C155.6 480 152 476.4 152 472V441.6C152 424.88 162.56 409.76 178.32 404L192 399.04V417.44C182.72 420.72 176 429.52 176 440V456C176 460.4 179.6 464 184 464C188.4 464 192 460.4 192 456V440C192 435.6 195.6 432 200 432C204.4 432 208 435.6 208 440V456C208 460.4 211.6 464 216 464C220.4 464 224 460.4 224 456V440C224 429.6 217.28 420.8 208 417.44V393.2L230.96 384.88L251.6 398.64C252.96 399.52 254.48 400 256 400C257.52 400 259.12 399.52 260.4 398.64L281.04 384.88L304 393.2V417.44C294.72 420.72 288 429.52 288 440C288 453.2 298.8 464 312 464C325.2 464 336 453.2 336 440C336 429.6 329.28 420.8 320 417.44V399.04L333.68 404C349.44 409.76 360 424.8 360 441.6V472ZM161.28 151.76C191.04 147.04 222.88 144.64 256 144.64C289.12 144.64 320.96 147.04 350.72 151.76C351.12 151.76 351.6 151.84 352 151.84C355.84 151.84 359.28 149.04 359.92 145.12C360.084 144.085 360.042 143.028 359.797 142.009C359.552 140.99 359.109 140.03 358.492 139.183C357.875 138.336 357.097 137.618 356.203 137.072C355.309 136.526 354.315 136.162 353.28 136C322.72 131.12 290 128.72 256 128.72C222 128.72 189.36 131.2 158.72 136C154.32 136.72 151.36 140.8 152.08 145.12C152.8 149.52 156.88 152.48 161.2 151.76H161.28ZM160 103.84C160.4 103.84 160.8 103.84 161.28 103.76C191.04 99.0401 222.88 96.6401 256 96.6401C260.4 96.6401 264 93.0401 264 88.6401C264 84.2401 260.4 80.6401 256 80.6401C222 80.6401 189.36 83.1201 158.72 87.9201C154.32 88.6401 151.36 92.7201 152.08 97.0401C152.385 98.9194 153.349 100.629 154.801 101.86C156.253 103.092 158.096 103.766 160 103.76V103.84Z" fill="white"/>
<path d="M256 16C138 16 16 48.88 16 104V280C16 308.88 49.36 333.92 109.92 350.4C110.64 350.56 111.36 350.72 112 350.72C113.76 350.72 115.44 350.16 116.88 349.04C118.88 347.52 120 345.2 120 342.72V223.6C134.56 219.92 149.68 216.72 165.36 214.48C169.76 213.84 172.8 209.76 172.16 205.44C171.52 201.12 167.44 198 163.12 198.64C148.24 200.8 133.92 203.76 120 207.12V166.64C120 163.04 117.6 159.84 114.08 158.96C63.44 145.12 32 124.08 32 103.92C32 69.84 124 31.92 256 31.92C388 31.92 480 69.84 480 103.92C480 124 448.56 145.12 397.92 158.96C394.48 159.92 392 163.04 392 166.64V207.12C378.08 203.68 363.76 200.72 348.88 198.64C344.48 197.92 340.48 201.04 339.84 205.44C339.2 209.84 342.24 213.84 346.64 214.48C362.32 216.72 377.52 219.92 392 223.6V342.72C392.003 343.942 392.286 345.147 392.826 346.242C393.367 347.338 394.152 348.295 395.12 349.04C396.56 350.08 398.24 350.72 400 350.72C400.72 350.72 401.44 350.64 402.08 350.4C462.64 333.84 496 308.88 496 280V104C496 48.88 374 16 256 16ZM104 172.8V332.08C59.28 318.32 32 298.72 32 280V136.88C46.64 150.96 70.96 163.2 104 172.8ZM408 332.08V172.8C441.04 163.2 465.36 150.96 480 136.88V280C480 298.72 452.72 318.32 408 332.08Z" fill="white"/>
</svg>
