<svg width="432" height="385" viewBox="0 0 432 385" fill="none" xmlns="http://www.w3.org/2000/svg">
<g clip-path="url(#clip0_1347_43)">
<path d="M192.001 384.5C162.612 384.489 133.617 377.731 107.252 364.747C80.8859 351.764 57.8526 332.9 39.9265 309.611C22.0003 286.322 9.65977 259.229 3.85568 230.418C-1.94842 201.608 -1.06116 171.849 6.44907 143.436C13.9594 115.022 27.8921 88.712 47.1739 66.5322C66.4557 44.3524 90.5719 26.8951 117.664 15.5052C144.757 4.11534 174.102 -0.903032 203.44 0.836733C232.778 2.5765 261.325 11.028 286.881 25.54C287.795 26.0595 288.597 26.7539 289.242 27.5834C289.887 28.4129 290.363 29.3614 290.641 30.3747C290.92 31.388 290.996 32.4462 290.866 33.4889C290.735 34.5317 290.401 35.5385 289.881 36.452C289.362 37.3655 288.667 38.1677 287.838 38.8128C287.008 39.458 286.06 39.9334 285.047 40.212C283 40.7746 280.814 40.5012 278.969 39.452C252.315 24.3178 222.17 16.407 191.519 16.5027C160.868 16.5984 130.773 24.6973 104.214 39.9977C77.6542 55.2981 55.5511 77.2694 40.0922 103.737C24.6333 130.204 16.3547 160.25 16.0757 190.9C15.7968 221.55 23.5272 251.742 38.5018 278.486C53.4764 305.231 75.1758 327.601 101.452 343.382C127.729 359.163 157.671 367.808 188.316 368.462C218.96 369.115 249.244 361.755 276.169 347.108C278.032 346.092 280.222 345.857 282.258 346.456C283.266 346.752 284.206 347.244 285.024 347.904C285.842 348.563 286.522 349.378 287.025 350.3C287.528 351.222 287.845 352.235 287.957 353.28C288.069 354.324 287.974 355.381 287.678 356.389C287.381 357.397 286.889 358.337 286.229 359.155C285.57 359.973 284.756 360.653 283.833 361.156C255.65 376.477 224.08 384.502 192.001 384.5Z" fill="url(#paint0_linear_1347_43)"/>
<path d="M192 384.5C117.008 384.5 56 298.364 56 192.5C56 86.636 117.008 0.5 192 0.5C223.36 0.5 253.912 15.812 278.04 43.62C279.353 45.2317 279.988 47.2913 279.809 49.3626C279.63 51.4339 278.651 53.3542 277.081 54.7166C275.51 56.079 273.471 56.7766 271.396 56.6615C269.32 56.5464 267.37 55.6277 265.96 54.1C244.608 29.5 219.04 16.5 192 16.5C125.832 16.5 72 95.452 72 192.5C72 289.548 125.832 368.5 192 368.5C194.122 368.5 196.157 369.343 197.657 370.843C199.157 372.343 200 374.378 200 376.5C200 378.622 199.157 380.657 197.657 382.157C196.157 383.657 194.122 384.5 192 384.5Z" fill="url(#paint1_linear_1347_43)"/>
<path d="M192 384.5C150.4 384.5 128 285.58 128 192.5C128 99.42 150.4 0.5 192 0.5C203.448 0.5 220.08 8.332 234.336 45.644C234.74 46.6311 234.942 47.6889 234.931 48.7552C234.919 49.8215 234.695 50.8749 234.271 51.8533C233.847 52.8317 233.231 53.7155 232.461 54.4526C231.69 55.1897 230.78 55.7653 229.784 56.1456C228.788 56.5259 227.725 56.7031 226.659 56.667C225.594 56.6308 224.546 56.3818 223.578 55.9349C222.61 55.4879 221.74 54.8518 221.022 54.0641C220.303 53.2764 219.749 52.3529 219.392 51.348C211.048 29.524 200.8 16.5 192 16.5C172 16.5 144 83.46 144 192.5C144 301.54 172 368.5 192 368.5C208.32 368.5 229.776 326.172 237.4 247.7C237.478 246.636 237.768 245.599 238.253 244.649C238.738 243.699 239.408 242.856 240.224 242.168C241.04 241.481 241.985 240.964 243.003 240.647C244.022 240.331 245.093 240.221 246.155 240.324C247.216 240.428 248.246 240.743 249.185 241.25C250.123 241.757 250.95 242.447 251.618 243.279C252.285 244.111 252.78 245.068 253.072 246.094C253.364 247.119 253.449 248.193 253.32 249.252C246.976 314.644 227.528 384.5 192 384.5Z" fill="url(#paint2_linear_1347_43)"/>
<path d="M192 112.5H32C29.8783 112.5 27.8434 111.657 26.3431 110.157C24.8429 108.657 24 106.622 24 104.5C24 102.378 24.8429 100.343 26.3431 98.8431C27.8434 97.3428 29.8783 96.5 32 96.5H192C194.122 96.5 196.157 97.3428 197.657 98.8431C199.157 100.343 200 102.378 200 104.5C200 106.622 199.157 108.657 197.657 110.157C196.157 111.657 194.122 112.5 192 112.5ZM240 288.5H32C29.8783 288.5 27.8434 287.657 26.3431 286.157C24.8429 284.657 24 282.622 24 280.5C24 278.378 24.8429 276.343 26.3431 274.843C27.8434 273.343 29.8783 272.5 32 272.5H240C242.122 272.5 244.157 273.343 245.657 274.843C247.157 276.343 248 278.378 248 280.5C248 282.622 247.157 284.657 245.657 286.157C244.157 287.657 242.122 288.5 240 288.5ZM192 200.5H8C5.87827 200.5 3.84344 199.657 2.34315 198.157C0.842854 196.657 0 194.622 0 192.5C0 190.378 0.842854 188.343 2.34315 186.843C3.84344 185.343 5.87827 184.5 8 184.5H192C194.122 184.5 196.157 185.343 197.657 186.843C199.157 188.343 200 190.378 200 192.5C200 194.622 199.157 196.657 197.657 198.157C196.157 199.657 194.122 200.5 192 200.5ZM256 120.5H224C221.878 120.5 219.843 119.657 218.343 118.157C216.843 116.657 216 114.622 216 112.5V80.5C216 78.3783 216.843 76.3434 218.343 74.8431C219.843 73.3428 221.878 72.5 224 72.5H256C258.122 72.5 260.157 73.3428 261.657 74.8431C263.157 76.3434 264 78.3783 264 80.5V112.5C264 114.622 263.157 116.657 261.657 118.157C260.157 119.657 258.122 120.5 256 120.5ZM232 104.5H248V88.5H232V104.5ZM304 176.5H272C269.878 176.5 267.843 175.657 266.343 174.157C264.843 172.657 264 170.622 264 168.5V136.5C264 134.378 264.843 132.343 266.343 130.843C267.843 129.343 269.878 128.5 272 128.5H304C306.122 128.5 308.157 129.343 309.657 130.843C311.157 132.343 312 134.378 312 136.5V168.5C312 170.622 311.157 172.657 309.657 174.157C308.157 175.657 306.122 176.5 304 176.5ZM280 160.5H296V144.5H280V160.5ZM248 232.5H216C213.878 232.5 211.843 231.657 210.343 230.157C208.843 228.657 208 226.622 208 224.5V192.5C208 190.378 208.843 188.343 210.343 186.843C211.843 185.343 213.878 184.5 216 184.5H248C250.122 184.5 252.157 185.343 253.657 186.843C255.157 188.343 256 190.378 256 192.5V224.5C256 226.622 255.157 228.657 253.657 230.157C252.157 231.657 250.122 232.5 248 232.5ZM224 216.5H240V200.5H224V216.5ZM360 80.5H312C309.878 80.5 307.843 79.6572 306.343 78.1569C304.843 76.6566 304 74.6217 304 72.5V24.5C304 22.3783 304.843 20.3434 306.343 18.8431C307.843 17.3429 309.878 16.5 312 16.5H360C362.122 16.5 364.157 17.3429 365.657 18.8431C367.157 20.3434 368 22.3783 368 24.5V72.5C368 74.6217 367.157 76.6566 365.657 78.1569C364.157 79.6572 362.122 80.5 360 80.5ZM320 64.5H352V32.5H320V64.5ZM360 248.5H312C309.878 248.5 307.843 247.657 306.343 246.157C304.843 244.657 304 242.622 304 240.5V192.5C304 190.378 304.843 188.343 306.343 186.843C307.843 185.343 309.878 184.5 312 184.5H360C362.122 184.5 364.157 185.343 365.657 186.843C367.157 188.343 368 190.378 368 192.5V240.5C368 242.622 367.157 244.657 365.657 246.157C364.157 247.657 362.122 248.5 360 248.5ZM320 232.5H352V200.5H320V232.5ZM312 336.5H264C261.878 336.5 259.843 335.657 258.343 334.157C256.843 332.657 256 330.622 256 328.5V280.5C256 278.378 256.843 276.343 258.343 274.843C259.843 273.343 261.878 272.5 264 272.5H312C314.122 272.5 316.157 273.343 317.657 274.843C319.157 276.343 320 278.378 320 280.5V328.5C320 330.622 319.157 332.657 317.657 334.157C316.157 335.657 314.122 336.5 312 336.5ZM272 320.5H304V288.5H272V320.5ZM424 176.5H360C357.878 176.5 355.843 175.657 354.343 174.157C352.843 172.657 352 170.622 352 168.5V104.5C352 102.378 352.843 100.343 354.343 98.8431C355.843 97.3428 357.878 96.5 360 96.5H424C426.122 96.5 428.157 97.3428 429.657 98.8431C431.157 100.343 432 102.378 432 104.5V168.5C432 170.622 431.157 172.657 429.657 174.157C428.157 175.657 426.122 176.5 424 176.5ZM368 160.5H416V112.5H368V160.5ZM424 384.5H360C357.878 384.5 355.843 383.657 354.343 382.157C352.843 380.657 352 378.622 352 376.5V312.5C352 310.378 352.843 308.343 354.343 306.843C355.843 305.343 357.878 304.5 360 304.5H424C426.122 304.5 428.157 305.343 429.657 306.843C431.157 308.343 432 310.378 432 312.5V376.5C432 378.622 431.157 380.657 429.657 382.157C428.157 383.657 426.122 384.5 424 384.5ZM368 368.5H416V320.5H368V368.5Z" fill="url(#paint3_linear_1347_43)"/>
<path d="M184 8.5H200V376.5H184V8.5Z" fill="url(#paint4_linear_1347_43)"/>
</g>
<defs>
<linearGradient id="paint0_linear_1347_43" x1="10.4518" y1="25.2501" x2="376.097" y2="343.095" gradientUnits="userSpaceOnUse">
<stop stop-color="#1BA2D7"/>
<stop offset="1" stop-color="#8D3DFA"/>
</linearGradient>
<linearGradient id="paint1_linear_1347_43" x1="63.9865" y1="25.2501" x2="405.276" y2="253.568" gradientUnits="userSpaceOnUse">
<stop stop-color="#1BA2D7"/>
<stop offset="1" stop-color="#8D3DFA"/>
</linearGradient>
<linearGradient id="paint2_linear_1347_43" x1="132.473" y1="25.2501" x2="375.123" y2="116.175" gradientUnits="userSpaceOnUse">
<stop stop-color="#1BA2D7"/>
<stop offset="1" stop-color="#8D3DFA"/>
</linearGradient>
<linearGradient id="paint3_linear_1347_43" x1="15.4137" y1="40.2188" x2="354.111" y2="496.529" gradientUnits="userSpaceOnUse">
<stop stop-color="#1BA2D7"/>
<stop offset="1" stop-color="#8D3DFA"/>
</linearGradient>
<linearGradient id="paint4_linear_1347_43" x1="184.571" y1="32.2188" x2="219.797" y2="33.9765" gradientUnits="userSpaceOnUse">
<stop stop-color="#1BA2D7"/>
<stop offset="1" stop-color="#8D3DFA"/>
</linearGradient>
<clipPath id="clip0_1347_43">
<rect width="432" height="384" fill="white" transform="translate(0 0.5)"/>
</clipPath>
</defs>
</svg>
