<svg width="512" height="512" viewBox="0 0 512 512" fill="none" xmlns="http://www.w3.org/2000/svg">
<path d="M376 504C378.122 504 380.157 503.157 381.657 501.657C383.157 500.157 384 498.122 384 496V400C384 397.878 383.157 395.843 381.657 394.343C380.157 392.843 378.122 392 376 392H328C325.878 392 323.843 392.843 322.343 394.343C320.843 395.843 320 397.878 320 400V496C320 498.122 320.843 500.157 322.343 501.657C323.843 503.157 325.878 504 328 504H376ZM336 408H368V488H336V408ZM280 440H232C229.878 440 227.843 440.843 226.343 442.343C224.843 443.843 224 445.878 224 448V496C224 498.122 224.843 500.157 226.343 501.657C227.843 503.157 229.878 504 232 504H280C282.122 504 284.157 503.157 285.657 501.657C287.157 500.157 288 498.122 288 496V448C288 445.878 287.157 443.843 285.657 442.343C284.157 440.843 282.122 440 280 440ZM272 488H240V456H272V488ZM392.84 347.576C393.504 348.906 394.526 350.024 395.791 350.806C397.056 351.587 398.513 352.001 400 352H416V496C416 498.122 416.843 500.157 418.343 501.657C419.843 503.157 421.878 504 424 504H472C474.122 504 476.157 503.157 477.657 501.657C479.157 500.157 480 498.122 480 496V352H496C497.486 352 498.942 351.586 500.206 350.805C501.47 350.024 502.491 348.907 503.155 347.578C503.82 346.249 504.101 344.761 503.968 343.282C503.834 341.802 503.291 340.389 502.4 339.2L454.4 275.2C453.622 274.255 452.645 273.494 451.539 272.971C450.432 272.449 449.224 272.178 448 272.178C446.776 272.178 445.568 272.449 444.461 272.971C443.355 273.494 442.377 274.255 441.6 275.2L393.6 339.2C392.708 340.388 392.165 341.801 392.03 343.28C391.896 344.759 392.177 346.247 392.84 347.576ZM448.04 293.336L480 336H472C469.878 336 467.843 336.843 466.343 338.343C464.843 339.843 464 341.878 464 344V488H432V344C432 341.878 431.157 339.843 429.657 338.343C428.157 336.843 426.122 336 424 336H416L448.04 293.336ZM23.48 319.408C16.6276 325.733 11.8399 333.976 9.74119 343.061C7.64248 352.147 8.33013 361.655 11.7145 370.344C15.0989 379.033 21.0229 386.501 28.7141 391.774C36.4053 397.047 45.5069 399.88 54.832 399.904H55.832C62.0861 399.797 68.2526 398.415 73.9542 395.843C79.6559 393.27 84.7728 389.562 88.992 384.944L124.8 346.032C126.939 345.446 129.219 345.674 131.2 346.672C140.011 351.307 149.221 355.139 158.72 358.12C160.588 358.734 162.208 359.933 163.342 361.539C164.476 363.146 165.063 365.074 165.016 367.04C165.01 373.652 167.63 379.996 172.3 384.677C176.97 389.357 183.308 391.992 189.92 392H226.08C232.697 391.992 239.041 389.359 243.72 384.68C248.399 380.001 251.031 373.657 251.04 367.04C250.995 365.069 251.586 363.137 252.726 361.528C253.866 359.92 255.494 358.722 257.368 358.112C266.859 355.131 276.062 351.299 284.864 346.664C286.621 345.781 288.616 345.486 290.553 345.823C292.491 346.16 294.268 347.111 295.624 348.536C300.404 353.063 306.737 355.585 313.32 355.585C319.903 355.585 326.236 353.063 331.016 348.536L356.536 323.016C361.224 318.32 363.857 311.956 363.857 305.32C363.857 298.685 361.224 292.32 356.536 287.624C354.735 285.839 353.709 283.416 353.68 280.88C353.687 279.469 354.032 278.081 354.688 276.832C359.343 267.917 363.196 258.606 366.2 249.008C366.837 247.196 368.041 245.637 369.633 244.562C371.225 243.487 373.121 242.954 375.04 243.04C381.658 243.034 388.003 240.402 392.682 235.722C397.362 231.043 399.994 224.698 400 218.08V181.92C399.994 175.302 397.362 168.957 392.682 164.278C388.003 159.598 381.658 156.966 375.04 156.96C373.069 157.005 371.137 156.414 369.528 155.274C367.92 154.134 366.722 152.506 366.112 150.632C363.129 141.14 359.3 131.936 354.672 123.128C353.786 121.374 353.489 119.38 353.824 117.443C354.16 115.507 355.111 113.73 356.536 112.376C361.214 107.675 363.84 101.312 363.84 94.68C363.84 88.0477 361.214 81.6853 356.536 76.984L331.016 51.464C326.32 46.7761 319.955 44.1432 313.32 44.1432C306.684 44.1432 300.32 46.7761 295.624 51.464C294.249 52.8613 292.471 53.7926 290.54 54.127C288.608 54.4613 286.62 54.1819 284.856 53.328C276.045 48.6925 266.835 44.861 257.336 41.88C255.468 41.2658 253.848 40.0669 252.714 38.4606C251.58 36.8542 250.993 34.9256 251.04 32.96C251.043 29.6813 250.4 26.4342 249.146 23.4045C247.893 20.3748 246.055 17.622 243.736 15.3036C241.418 12.9852 238.665 11.1468 235.635 9.89355C232.606 8.64031 229.359 7.99685 226.08 8.00001H189.92C186.613 8.01563 183.341 8.68517 180.294 9.97011C177.247 11.255 174.484 13.13 172.164 15.487C169.844 17.8441 168.013 20.6366 166.777 23.704C165.54 26.7714 164.923 30.053 164.96 33.36C164.983 35.2208 164.415 37.041 163.338 38.5589C162.262 40.0768 160.732 41.2143 158.968 41.808C149.364 44.8095 140.049 48.6676 131.136 53.336C129.379 54.2193 127.384 54.5142 125.447 54.1771C123.509 53.84 121.732 52.8888 120.376 51.464C115.596 46.9375 109.263 44.4147 102.68 44.4147C96.0968 44.4147 89.764 46.9375 84.984 51.464L59.464 76.984C54.7761 81.6802 52.1432 88.0445 52.1432 94.68C52.1432 101.316 54.7761 107.68 59.464 112.376C61.2654 114.161 62.2914 116.584 62.32 119.12C62.3106 120.513 61.9706 121.884 61.328 123.12C56.6925 131.931 52.861 141.141 49.88 150.64C49.2658 152.508 48.0669 154.128 46.4605 155.262C44.8542 156.396 42.9256 156.983 40.96 156.936C37.6793 156.933 34.4302 157.577 31.3989 158.832C28.3676 160.087 25.6137 161.927 23.295 164.248C20.9764 166.569 19.1384 169.325 17.8866 172.357C16.6348 175.39 15.9937 178.639 16 181.92V218.08C16.0063 224.698 18.6381 231.043 23.3176 235.722C27.9971 240.402 34.3421 243.034 40.96 243.04C42.9307 242.995 44.8634 243.586 46.4717 244.726C48.0799 245.866 49.2779 247.494 49.888 249.368C52.8677 258.835 56.691 268.016 61.312 276.8C61.8986 277.971 62.2213 279.256 62.2573 280.565C62.2932 281.874 62.0415 283.175 61.52 284.376L23.48 319.408ZM40.96 227.04C38.5849 227.036 36.3084 226.09 34.629 224.411C32.9496 222.732 32.0042 220.455 32 218.08V181.92C31.9979 180.743 32.2282 179.577 32.6777 178.489C33.1273 177.401 33.7872 176.412 34.6196 175.58C35.452 174.747 36.4406 174.087 37.5286 173.638C38.6167 173.188 39.7827 172.958 40.96 172.96C46.3371 173.017 51.5905 171.346 55.9469 168.194C60.3034 165.041 63.5328 160.573 65.16 155.448C67.8463 146.853 71.3085 138.52 75.504 130.552C77.3524 127.025 78.3186 123.102 78.32 119.12C78.2791 112.343 75.5685 105.856 70.776 101.064C69.9342 100.224 69.2664 99.2268 68.8107 98.1285C68.355 97.0303 68.1205 95.853 68.1205 94.664C68.1205 93.475 68.355 92.2977 68.8107 91.1995C69.2664 90.1013 69.9342 89.1037 70.776 88.264L96.376 62.664C97.2081 61.8325 98.1998 61.1778 99.2913 60.7393C100.383 60.3007 101.552 60.0874 102.728 60.112C103.907 60.1009 105.076 60.3268 106.165 60.7762C107.255 61.2255 108.244 61.8893 109.072 62.728C112.832 66.5861 117.735 69.1285 123.055 69.9774C128.375 70.8263 133.826 69.9364 138.6 67.44C146.653 63.2338 155.065 59.7534 163.736 57.04C168.793 55.3775 173.189 52.147 176.286 47.8171C179.383 43.4872 181.021 38.2832 180.96 32.96C180.962 30.5843 181.907 28.3065 183.587 26.6267C185.267 24.9468 187.544 24.0021 189.92 24H226.08C227.258 23.9958 228.425 24.2247 229.514 24.6734C230.603 25.1222 231.592 25.782 232.425 26.6149C233.258 27.4478 233.918 28.4372 234.367 29.5262C234.815 30.6152 235.044 31.7822 235.04 32.96C234.984 38.3361 236.655 43.5882 239.807 47.9433C242.96 52.2984 247.427 55.5264 252.552 57.152C261.148 59.8473 269.483 63.312 277.456 67.504C282.247 69.8989 287.668 70.7308 292.957 69.8827C298.245 69.0345 303.134 66.549 306.936 62.776C308.634 61.0799 310.936 60.1271 313.336 60.1271C315.736 60.1271 318.038 61.0799 319.736 62.776L345.336 88.376C346.985 90.0833 347.901 92.3675 347.889 94.741C347.877 97.1146 346.938 99.3895 345.272 101.08C341.413 104.845 338.872 109.754 338.026 115.078C337.18 120.402 338.074 125.857 340.576 130.632C344.754 138.57 348.202 146.871 350.88 155.432C352.503 160.553 355.726 165.019 360.074 168.174C364.423 171.328 369.668 173.006 375.04 172.96C377.415 172.964 379.692 173.91 381.371 175.589C383.05 177.268 383.996 179.545 384 181.92V218.08C383.986 219.287 383.731 220.478 383.25 221.585C382.77 222.692 382.074 223.692 381.202 224.526C380.33 225.36 379.301 226.012 378.174 226.444C377.048 226.876 375.846 227.078 374.64 227.04C369.376 227.034 364.246 228.697 359.986 231.788C355.726 234.88 352.555 239.242 350.928 244.248C348.218 252.941 344.737 261.374 340.528 269.448C338.68 272.975 337.713 276.898 337.712 280.88C337.753 287.657 340.463 294.144 345.256 298.936C346.098 299.776 346.766 300.773 347.221 301.871C347.677 302.97 347.911 304.147 347.911 305.336C347.911 306.525 347.677 307.702 347.221 308.801C346.766 309.899 346.098 310.896 345.256 311.736L319.656 337.336C318.824 338.167 317.832 338.822 316.741 339.261C315.649 339.699 314.48 339.913 313.304 339.888C312.125 339.899 310.956 339.673 309.866 339.224C308.777 338.774 307.788 338.111 306.96 337.272C303.195 333.41 298.285 330.867 292.959 330.021C287.633 329.175 282.176 330.071 277.4 332.576C269.461 336.753 261.16 340.205 252.6 342.888C247.473 344.503 243 347.721 239.839 352.069C236.677 356.417 234.995 361.665 235.04 367.04C235.038 369.416 234.093 371.693 232.413 373.373C230.733 375.053 228.456 375.998 226.08 376H189.92C188.742 376.004 187.575 375.775 186.486 375.327C185.397 374.878 184.408 374.218 183.575 373.385C182.742 372.552 182.082 371.563 181.633 370.474C181.185 369.385 180.956 368.218 180.96 367.04C181.016 361.664 179.345 356.412 176.193 352.057C173.04 347.702 168.573 344.474 163.448 342.848C154.852 340.153 146.517 336.688 138.544 332.496C138.232 332.328 137.888 332.272 137.568 332.12L158.704 309.144C184.448 320.84 213.484 323.117 240.736 315.577C267.989 308.037 291.725 291.159 307.796 267.894C323.867 244.628 331.251 216.455 328.657 188.298C326.063 160.141 313.657 133.791 293.606 113.853C273.555 93.9148 247.135 81.6574 218.964 79.2228C190.792 76.7882 162.661 84.3312 139.487 100.533C116.313 116.736 99.5698 140.567 92.1838 167.861C84.7977 195.156 87.2387 224.178 99.08 249.856L76.08 271.016C75.848 270.48 75.744 269.904 75.472 269.416C71.2943 261.478 67.8455 253.177 65.168 244.616C63.5506 239.478 60.3245 234.996 55.9657 231.831C51.6068 228.667 46.3462 226.987 40.96 227.04ZM287.688 193.6C287.696 193.502 287.696 193.403 287.688 193.304C287.666 192.228 287.43 191.166 286.995 190.182C286.56 189.197 285.933 188.309 285.152 187.568C283.624 186.135 281.595 185.358 279.501 185.404C277.407 185.451 275.415 186.317 273.952 187.816C273.685 188.085 273.439 188.374 273.216 188.68L240.8 221.112L202.592 205.832L187.312 167.624L219.72 135.224C220.059 134.981 220.38 134.714 220.68 134.424C222.18 132.924 223.022 130.889 223.022 128.768C223.022 126.647 222.18 124.612 220.68 123.112C219.19 121.634 217.179 120.801 215.08 120.792C203.437 119.763 191.711 121.303 180.728 125.302C169.746 129.301 159.775 135.662 151.52 143.936C141.903 153.771 135.032 165.955 131.592 179.273C128.151 192.591 128.262 206.578 131.912 219.84L111.568 238.552C106.595 226.306 104.026 213.217 104 200C104 179.431 110.099 159.323 121.527 142.221C132.955 125.118 149.197 111.788 168.201 103.917C187.204 96.045 208.115 93.9855 228.289 97.9983C248.463 102.011 266.994 111.916 281.539 126.461C296.084 141.006 305.989 159.537 310.002 179.711C314.015 199.885 311.955 220.796 304.083 239.799C296.212 258.803 282.882 275.045 265.779 286.473C248.677 297.901 228.569 304 208 304C195.023 304.014 182.162 301.557 170.104 296.76L188.656 276.592C200.909 279.996 213.807 280.369 226.236 277.677C238.665 274.986 250.253 269.311 260 261.143C269.747 252.974 277.361 242.557 282.185 230.79C287.008 219.023 288.897 206.26 287.688 193.6ZM146.288 228.16C147.414 227.125 148.22 225.789 148.609 224.31C148.999 222.831 148.957 221.272 148.488 219.816C144.566 208.793 143.823 196.889 146.342 185.464C148.861 174.039 154.542 163.552 162.736 155.2C171.398 146.5 182.397 140.497 194.4 137.92L172.272 160.04C171.166 161.147 170.409 162.554 170.095 164.087C169.781 165.62 169.923 167.211 170.504 168.664L189.008 214.952C189.41 215.96 190.014 216.876 190.781 217.643C191.548 218.41 192.464 219.014 193.472 219.416L239.76 237.928C241.214 238.508 242.805 238.649 244.338 238.333C245.871 238.018 247.278 237.259 248.384 236.152L270.576 213.96C267.978 225.974 261.967 236.983 253.264 245.664C244.909 253.865 234.415 259.551 222.981 262.07C211.548 264.59 199.636 263.842 188.608 259.912C187.151 259.447 185.591 259.407 184.112 259.797C182.633 260.186 181.295 260.989 180.256 262.112L77.232 374.112C74.4792 377.205 71.1237 379.703 67.3713 381.452C63.6188 383.202 59.5484 384.167 55.4098 384.288C51.2712 384.408 47.1515 383.682 43.3034 382.154C39.4554 380.626 35.9601 378.328 33.0318 375.401C30.1036 372.473 27.8041 368.979 26.2745 365.132C24.7449 361.284 24.0173 357.165 24.1365 353.026C24.2556 348.887 25.2189 344.817 26.9672 341.063C28.7156 337.31 31.2122 333.954 34.304 331.2L146.288 228.16Z" fill="white"/>
<path d="M39.0476 369.352C41.2763 371.581 43.9222 373.349 46.8343 374.555C49.7464 375.762 52.8676 376.383 56.0196 376.383C59.1717 376.383 62.2929 375.762 65.205 374.555C68.1171 373.349 70.763 371.581 72.9916 369.352C76.3466 365.995 78.6308 361.718 79.5556 357.063C80.4804 352.408 80.0042 347.583 78.1873 343.199C76.3703 338.814 73.2942 335.067 69.3477 332.43C65.4013 329.794 60.7617 328.387 56.0156 328.387C51.2695 328.387 46.63 329.794 42.6835 332.43C38.7371 335.067 35.661 338.814 33.844 343.199C32.027 347.583 31.5509 352.408 32.4757 357.063C33.4005 361.718 35.6927 365.995 39.0476 369.352ZM50.3996 346.728C51.5184 345.609 52.9438 344.847 54.4957 344.538C56.0476 344.229 57.6563 344.387 59.1183 344.993C60.5802 345.598 61.8298 346.623 62.7089 347.939C63.5881 349.255 64.0573 350.801 64.0573 352.384C64.0573 353.966 63.5881 355.513 62.7089 356.829C61.8298 358.144 60.5802 359.17 59.1183 359.775C57.6563 360.381 56.0476 360.539 54.4957 360.23C52.9438 359.921 51.5184 359.159 50.3996 358.04C48.8999 356.54 48.0573 354.505 48.0573 352.384C48.0573 350.263 48.8999 348.228 50.3996 346.728Z" fill="white"/>
</svg>
