<svg width="512" height="512" viewBox="0 0 512 512" fill="none" xmlns="http://www.w3.org/2000/svg">
<g clip-path="url(#clip0_1593_1107)">
<path d="M255.999 91.4285C165.241 91.4285 91.4766 165.193 91.4766 256C91.4766 346.758 165.241 420.571 255.999 420.571C346.757 420.571 420.571 346.758 420.571 256C420.571 165.193 346.757 91.4285 255.999 91.4285ZM255.999 402.286C175.091 402.286 109.665 336.908 109.665 256C109.665 175.092 175.091 109.714 255.999 109.714C336.907 109.714 402.285 175.092 402.285 256C402.285 336.859 336.907 402.286 255.999 402.286Z" fill="white"/>
<path d="M507.575 208.616C507.188 206.509 506.077 204.605 504.434 203.231C502.791 201.857 500.72 201.102 498.578 201.094H468.431C463.255 181.265 455.406 162.231 445.099 144.518L466.286 123.282C467.812 121.778 468.759 119.783 468.96 117.649C469.161 115.515 468.602 113.379 467.383 111.616C449.434 85.2919 426.708 62.5664 400.384 44.6172C398.628 43.4138 396.507 42.8602 394.387 43.0516C392.266 43.2429 390.279 44.1672 388.766 45.6655L368.335 66.1455C350.854 55.9055 330.484 48.6644 310.857 43.5688V13.4339C310.862 11.2954 310.117 9.22295 308.751 7.577C307.386 5.93106 305.487 4.81578 303.384 4.42515C287.745 1.47806 271.866 -0.00341317 255.951 5.90454e-06C240.044 0.0523545 224.178 1.61569 208.567 4.66896C206.478 5.05674 204.592 6.16436 203.235 7.79916C201.879 9.43397 201.139 11.4925 201.143 13.6168V43.5688C181.358 48.8067 162.375 56.7051 144.713 67.0476L123.234 45.6655C121.722 44.1651 119.735 43.2394 117.614 43.048C115.493 42.8566 113.371 43.4116 111.616 44.6172C85.3142 62.5932 62.5932 85.3142 44.6171 111.616C43.42 113.378 42.8747 115.502 43.0749 117.622C43.2752 119.743 44.2085 121.727 45.7143 123.234L67.0476 144.518C56.8076 161.95 48.7619 181.577 43.6663 201.094H13.568C11.4423 201.104 9.38537 201.849 7.74578 203.202C6.1062 204.555 4.98475 206.433 4.57143 208.518C1.57371 224.169 0.0432615 240.065 0 256C0.0487619 271.909 1.57257 287.805 4.57143 303.433C5.42476 307.724 9.19162 310.857 13.568 310.857H43.6663C48.8577 330.643 56.724 349.628 67.0476 367.287L45.7143 388.718C44.2106 390.225 43.2787 392.209 43.0785 394.329C42.8783 396.449 43.4223 398.573 44.6171 400.335C62.6036 426.656 85.3217 449.407 111.616 467.432C113.374 468.64 115.5 469.193 117.624 468.992C119.748 468.792 121.733 467.851 123.234 466.335L144.713 444.952C162.375 455.295 181.358 463.193 201.143 468.431V498.432C201.143 502.808 204.239 506.575 208.567 507.38C224.18 510.417 240.046 511.964 255.951 512C271.886 511.914 287.78 510.367 303.433 507.38C305.522 506.992 307.408 505.884 308.765 504.25C310.121 502.615 310.861 500.556 310.857 498.432V468.431C330.642 463.193 349.625 455.295 367.287 444.952L388.766 466.335C390.268 467.849 392.253 468.788 394.376 468.988C396.499 469.189 398.626 468.638 400.384 467.432C426.7 449.433 449.423 426.678 467.383 400.335C468.578 398.573 469.122 396.449 468.921 394.329C468.721 392.209 467.789 390.225 466.286 388.718L444.904 367.287C455.27 349.683 463.186 330.748 468.431 311.003L498.432 310.857C500.558 310.847 502.615 310.103 504.254 308.75C505.894 307.397 507.015 305.518 507.429 303.433C510.427 287.817 511.951 271.957 512 256.049C512 245.382 511.281 227.291 507.575 208.616ZM490.191 292.571H461.239C459.153 292.552 457.125 293.252 455.495 294.553C453.865 295.854 452.734 297.677 452.291 299.715C447.18 322.472 438.172 344.173 425.667 363.861C424.559 365.612 424.078 367.688 424.304 369.748C424.53 371.807 425.449 373.729 426.91 375.198L447.915 396.251C433.472 416.06 416.025 433.491 396.203 447.915L375.198 426.862C373.718 425.4 371.784 424.486 369.715 424.269C367.646 424.051 365.564 424.545 363.813 425.667C344.169 438.2 322.497 447.225 299.764 452.34C297.733 452.788 295.916 453.912 294.609 455.529C293.302 457.146 292.583 459.16 292.571 461.239V490.715C280.478 492.666 268.288 493.617 256 493.666C243.767 493.636 231.556 492.65 219.477 490.715L219.429 461.239C219.43 459.164 218.723 457.15 217.424 455.532C216.124 453.913 214.311 452.787 212.285 452.34C189.547 447.24 167.873 438.214 148.236 425.667C146.478 424.544 144.391 424.051 142.316 424.268C140.241 424.485 138.301 425.399 136.814 426.862L115.81 447.902C95.9989 433.465 78.5532 416.036 64.0975 396.239L85.1383 375.186C86.592 373.711 87.5019 371.786 87.7189 369.727C87.9359 367.667 87.4473 365.595 86.333 363.849C73.8258 344.168 64.8336 322.463 59.7577 299.703C59.2942 297.667 58.1499 295.851 56.514 294.555C54.8781 293.258 52.8486 292.558 50.7611 292.571H21.8088C19.907 280.478 18.3345 268.337 18.2857 256.049C18.3497 243.765 19.3687 231.505 21.3333 219.38H50.7611C52.8386 219.404 54.8623 218.719 56.498 217.438C58.1337 216.157 59.2835 214.357 59.7577 212.334C64.8357 189.574 73.8277 167.87 86.333 148.187C87.4566 146.438 87.9506 144.358 87.7334 142.291C87.5163 140.223 86.6009 138.291 85.1383 136.814L64.0975 115.712C78.4842 95.905 95.8835 78.4728 115.663 64.0488L136.814 85.0895C139.861 88.1372 144.616 88.6613 148.236 86.3817C167.878 73.8452 189.551 64.8198 212.285 59.709C214.308 59.2555 216.118 58.1278 217.416 56.5108C218.714 54.8937 219.423 52.8835 219.429 50.8099V21.8575C231.57 19.9071 243.712 18.3345 256 18.2857C268.288 18.2857 280.478 19.8095 292.571 21.7112V50.7124C292.571 55.0522 295.522 58.7581 299.715 59.709C322.495 64.7444 344.22 73.7216 363.91 86.2354C365.669 87.3446 367.75 87.8266 369.818 87.603C371.885 87.3795 373.815 86.4636 375.296 85.0042L395.301 64.9996C415.111 79.4366 432.557 96.8659 447.013 116.663L427.057 136.716C425.581 138.183 424.65 140.11 424.417 142.178C424.184 144.246 424.664 146.331 425.777 148.09C438.282 167.772 447.274 189.477 452.352 212.236C452.799 214.263 453.925 216.076 455.544 217.375C457.162 218.674 459.176 219.381 461.251 219.38H490.301C492.142 231.522 493.714 243.712 493.714 256C493.666 268.288 492.142 280.43 490.191 292.571Z" fill="white"/>
<path d="M255.524 246.857H256C261.144 246.857 265.094 250.807 265.094 256C265.094 261.144 261.144 265.143 256 265.143C250.855 265.143 246.808 261.144 246.808 256C246.808 251.002 250.575 247.101 255.524 246.857ZM256 146.286C195.523 146.286 146.285 195.474 146.285 256C146.261 270.406 149.085 284.675 154.593 297.987C160.101 311.299 168.186 323.391 178.383 333.568C179.227 334.428 180.234 335.112 181.346 335.578C182.457 336.045 183.651 336.285 184.856 336.285C186.061 336.285 187.255 336.045 188.366 335.578C189.478 335.112 190.485 334.428 191.329 333.568C193.044 331.847 194.006 329.518 194.006 327.089C194.006 324.66 193.044 322.33 191.329 320.609C182.839 312.129 176.105 302.057 171.514 290.97C166.922 279.884 164.563 268 164.571 256C164.552 243.99 166.904 232.095 171.492 220.996C176.081 209.898 182.815 199.814 191.31 191.324C199.804 182.835 209.891 176.105 220.992 171.523C232.093 166.94 243.99 164.594 256 164.62C277.095 164.559 297.558 171.814 313.904 185.149L267.812 231.29C264.13 229.505 260.092 228.576 256 228.571C248.741 228.61 241.792 231.514 236.665 236.651C231.537 241.787 228.645 248.742 228.62 256C228.62 270.994 240.957 283.429 256 283.429C271.043 283.429 283.428 270.994 283.428 256C283.424 251.924 282.494 247.901 280.71 244.236L280.758 244.187L326.863 198.095C340.215 214.436 347.495 234.898 347.465 256C347.461 268.004 345.091 279.89 340.491 290.978C335.892 302.066 329.152 312.139 320.658 320.622C317.086 324.242 317.086 330.008 320.658 333.58C324.23 337.152 329.996 337.152 333.568 333.58C343.781 323.41 351.883 311.322 357.408 298.01C362.933 284.698 365.772 270.425 365.763 256.012C365.775 230.069 356.558 204.968 339.76 185.198L344.758 180.2C346.475 178.481 347.439 176.151 347.438 173.722C347.437 171.293 346.471 168.964 344.752 167.247C343.034 165.53 340.704 164.567 338.275 164.568C335.846 164.569 333.517 165.535 331.8 167.253L326.753 172.251C306.995 155.479 281.917 146.275 256 146.286Z" fill="white"/>
</g>
<defs>
<clipPath id="clip0_1593_1107">
<rect width="512" height="512" fill="white"/>
</clipPath>
</defs>
</svg>
