<svg width="480" height="481" viewBox="0 0 480 481" fill="none" xmlns="http://www.w3.org/2000/svg">
<g clip-path="url(#clip0_1347_36)">
<path d="M352 0.5C326.684 0.5 301.937 8.00707 280.887 22.0719C259.838 36.1367 243.431 56.1276 233.743 79.5165C224.055 102.905 221.521 128.642 226.46 153.472C231.398 178.301 243.589 201.109 261.49 219.01C279.392 236.911 302.199 249.102 327.028 254.041C351.858 258.979 377.595 256.445 400.984 246.757C424.372 237.069 444.363 220.662 458.428 199.613C472.493 178.563 480 153.816 480 128.5C479.96 94.5646 466.461 62.0307 442.465 38.0348C418.469 14.0388 385.935 0.540227 352 0.5ZM352 240.5C329.849 240.5 308.194 233.931 289.776 221.625C271.358 209.318 257.003 191.826 248.526 171.361C240.049 150.895 237.831 128.376 242.152 106.65C246.474 84.924 257.141 64.9675 272.804 49.304C288.468 33.6406 308.424 22.9736 330.15 18.6521C351.876 14.3305 374.395 16.5485 394.861 25.0255C415.326 33.5025 432.818 47.8578 445.125 66.2761C457.431 84.6944 464 106.348 464 128.5C463.968 158.194 452.158 186.664 431.161 207.661C410.164 228.658 381.695 240.468 352 240.5Z" fill="url(#paint0_linear_1347_36)"/>
<path d="M423.768 64.5003C412.206 64.5299 400.753 62.2671 390.071 57.8428C379.39 53.4185 369.691 46.9204 361.536 38.7243L357.656 34.8443C356.156 33.3445 354.121 32.502 352 32.502C349.879 32.502 347.844 33.3445 346.344 34.8443L342.464 38.7243C334.277 46.9421 324.54 53.4523 313.817 57.877C303.094 62.3018 291.6 64.5531 280 64.5003C277.878 64.5003 275.843 65.3432 274.343 66.8434C272.843 68.3437 272 70.3786 272 72.5003V120.012C272.01 138.554 276.974 156.757 286.379 172.736C295.785 188.716 309.29 201.891 325.496 210.9L348.12 223.468C349.307 224.126 350.642 224.472 352 224.472C353.358 224.472 354.693 224.126 355.88 223.468L378.504 210.9C394.709 201.89 408.213 188.714 417.618 172.735C427.024 156.756 431.989 138.554 432 120.012V72.5003C431.948 70.3548 431.056 68.3153 429.517 66.8196C427.978 65.3239 425.914 64.4913 423.768 64.5003ZM416 120.012C415.995 135.704 411.797 151.11 403.841 164.635C395.884 178.16 384.458 189.313 370.744 196.94L352 207.348L333.256 196.948C319.541 189.32 308.114 178.166 300.157 164.639C292.201 151.113 288.003 135.705 288 120.012V80.2203C311.997 78.4879 334.635 68.4254 352 51.7723C369.367 68.4196 392.005 78.4763 416 80.2043V120.012Z" fill="url(#paint1_linear_1347_36)"/>
<path d="M320.496 106.852C319.654 111.58 319.892 116.436 321.192 121.059C322.491 125.682 324.818 129.951 328 133.548V152.5C328 158.865 330.529 164.97 335.029 169.471C339.53 173.971 345.635 176.5 352 176.5C358.365 176.5 364.47 173.971 368.971 169.471C373.471 164.97 376 158.865 376 152.5V133.54C380.379 128.56 383.101 122.341 383.787 115.745C384.473 109.149 383.09 102.502 379.829 96.7275C376.568 90.9529 371.591 86.3361 365.588 83.5172C359.585 80.6983 352.854 79.817 346.328 80.9956C339.913 82.1877 334.01 85.297 329.398 89.9131C324.786 94.5292 321.682 100.435 320.496 106.852ZM352 96.4996C355.762 96.4841 359.406 97.815 362.272 100.252C364.063 101.752 365.504 103.625 366.493 105.741C367.483 107.857 367.997 110.164 368 112.5C367.997 114.739 367.517 116.953 366.593 118.993C365.669 121.033 364.321 122.853 362.64 124.332C361.808 125.083 361.143 126 360.689 127.024C360.234 128.048 359.999 129.156 360 130.276V152.5C360 154.622 359.157 156.657 357.657 158.157C356.157 159.657 354.122 160.5 352 160.5C349.878 160.5 347.843 159.657 346.343 158.157C344.843 156.657 344 154.622 344 152.5V130.276C344 129.155 343.764 128.047 343.308 127.023C342.851 125.999 342.185 125.082 341.352 124.332C339.303 122.528 337.757 120.223 336.864 117.644C335.971 115.064 335.761 112.297 336.256 109.612C336.867 106.438 338.412 103.519 340.692 101.229C342.973 98.9381 345.885 97.3806 349.056 96.7556C350.029 96.5885 351.013 96.5029 352 96.4996ZM208 464.5H64V379.26C64.0069 358.667 71.2246 338.726 84.4 322.9L92.056 313.708C95.2896 320.509 100.38 326.257 106.74 330.29C113.099 334.323 120.469 336.475 128 336.5C134.365 336.5 140.47 333.971 144.971 329.471C149.471 324.97 152 318.865 152 312.5V312.044L158.008 316.332C176.05 329.192 188.561 348.4 193.032 370.1C193.4 371.904 194.38 373.526 195.805 374.692C197.231 375.858 199.015 376.497 200.856 376.5C201.394 376.497 201.93 376.441 202.456 376.332C204.533 375.903 206.354 374.666 207.52 372.895C208.685 371.123 209.1 368.961 208.672 366.884C203.395 341.229 188.604 318.521 167.272 303.324L152 292.388V287.46L161.056 284.164C171.591 280.368 180.737 273.485 187.302 264.413C193.866 255.341 197.544 244.502 197.856 233.308L198.072 226.436L214.976 213.012C216.554 211.76 217.601 209.96 217.91 207.97C218.218 205.98 217.765 203.946 216.64 202.276L203.784 183.244C209.218 180.744 213.509 176.286 215.8 170.76C218.092 165.234 218.214 159.048 216.144 153.436L205.192 123.364C204.122 120.4 202.475 117.677 200.346 115.352C198.218 113.027 195.651 111.147 192.792 109.82C192.344 109.612 191.872 109.516 191.424 109.34L197.024 100.82C200.407 95.6144 202.537 89.6959 203.248 83.5288C203.959 77.3617 203.23 71.1138 201.12 65.2756L187.44 27.6756C186.973 26.394 186.186 25.253 185.154 24.3611C184.123 23.4692 182.88 22.8559 181.544 22.5796C180.209 22.311 178.827 22.3843 177.528 22.7927C176.229 23.2011 175.054 23.9314 174.112 24.9156L154.688 45.4116C152.16 48.0885 149.047 50.1447 145.592 51.4196L63.568 79.8596C45.0268 86.2839 28.6842 97.8281 16.432 113.156L8.776 122.756C3.11872 129.842 0.0256337 138.633 0 147.7V151.612C0.000366942 158.863 1.972 165.979 5.704 172.196L15.576 188.644C13.5209 191.571 12.1267 194.911 11.4899 198.43C10.8531 201.95 10.9889 205.566 11.888 209.028C12.7079 212.307 14.2113 215.377 16.2998 218.035C18.3883 220.693 21.0148 222.88 24.0071 224.452C26.9995 226.024 30.2903 226.947 33.6639 227.159C37.0376 227.372 40.4181 226.869 43.584 225.684L44.872 225.204L88 269.612V293.612L72.104 312.692C56.5488 331.389 48.0219 354.938 48 379.26V472.5C48 474.622 48.8429 476.657 50.3431 478.157C51.8434 479.657 53.8783 480.5 56 480.5H208C210.122 480.5 212.157 479.657 213.657 478.157C215.157 476.657 216 474.622 216 472.5C216 470.378 215.157 468.343 213.657 466.843C212.157 465.343 210.122 464.5 208 464.5ZM128 320.5C121.635 320.5 115.53 317.971 111.029 313.471C106.529 308.97 104 302.865 104 296.5V284.46C111.011 290.166 119.761 293.304 128.8 293.356C131.216 293.343 133.625 293.112 136 292.668V312.5C136 314.622 135.157 316.657 133.657 318.157C132.157 319.657 130.122 320.5 128 320.5ZM185.24 216.212C184.328 216.934 183.584 217.846 183.06 218.885C182.536 219.924 182.245 221.065 182.208 222.228L181.896 232.5H168C165.878 232.5 163.843 233.343 162.343 234.843C160.843 236.343 160 238.378 160 240.5C160 242.622 160.843 244.657 162.343 246.157C163.843 247.657 165.878 248.5 168 248.5H178.072C175.869 253.252 172.748 257.521 168.889 261.062C165.029 264.603 160.508 267.345 155.584 269.132L137.056 275.884C132.868 277.425 128.331 277.761 123.961 276.853C119.591 275.945 115.564 273.83 112.336 270.748L104.48 263.316L106.152 258.516C110.03 247.462 112.007 235.831 112 224.116V200.108L130.064 193.348C132.312 196.073 135.133 198.269 138.325 199.782C141.517 201.295 145.003 202.086 148.536 202.1C151.325 202.102 154.092 201.615 156.712 200.66L188.44 189.108L199.256 205.108L185.24 216.212ZM130.312 144.612C130.757 143.659 131.385 142.804 132.16 142.094C132.936 141.384 133.844 140.835 134.832 140.476L143.712 137.276C143.712 140.002 144.177 142.707 145.088 145.276L156 175.332C156.94 177.892 158.315 180.271 160.064 182.364L151.216 185.564C149.219 186.272 147.023 186.165 145.104 185.267C143.185 184.369 141.696 182.751 140.96 180.764L130.024 150.7C129.313 148.712 129.416 146.524 130.312 144.612ZM201.136 158.9C201.495 159.888 201.656 160.938 201.609 161.989C201.562 163.04 201.309 164.071 200.863 165.023C200.417 165.976 199.788 166.831 199.011 167.54C198.234 168.25 197.325 168.799 196.336 169.156L181.296 174.636C179.299 175.346 177.102 175.24 175.182 174.342C173.263 173.443 171.774 171.824 171.04 169.836L160.104 139.764C159.745 138.775 159.584 137.726 159.631 136.675C159.678 135.624 159.931 134.593 160.377 133.641C160.823 132.688 161.452 131.833 162.229 131.124C163.006 130.414 163.915 129.865 164.904 129.508L179.928 124.028C180.809 123.712 181.737 123.55 182.672 123.548C184.313 123.549 185.914 124.055 187.257 124.996C188.601 125.938 189.623 127.27 190.184 128.812L201.136 158.9ZM16 147.7C16.008 142.249 17.8636 136.961 21.264 132.7L28.928 123.1C39.2963 110.149 53.1204 100.399 68.8 94.9796L150.936 66.4996C156.766 64.3669 162.023 60.9142 166.296 56.4116L176.8 45.2996L186.056 70.7156C187.32 74.2191 187.756 77.9676 187.33 81.6677C186.904 85.3678 185.627 88.9191 183.6 92.0436L172 109.932L159.472 114.492H159.424L129.36 125.436C124.688 127.112 120.659 130.211 117.84 134.297C115.022 138.382 113.556 143.249 113.648 148.212L28.64 179.348L19.424 163.988C17.184 160.257 16.0004 155.988 16 151.636V147.7ZM31.456 210.3C30.3694 209.702 29.4285 208.872 28.701 207.868C27.9734 206.863 27.4772 205.711 27.248 204.492C26.7679 202.576 27.0138 200.549 27.9384 198.803C28.863 197.058 30.401 195.716 32.256 195.036L117.76 163.74L123.24 178.82L37.976 210.724C36.9231 211.124 35.7971 211.295 34.6729 211.226C33.5488 211.157 32.4522 210.849 31.456 210.324V210.3ZM96 206.1V224.18C96.0024 233.172 94.6237 242.111 91.912 250.684L61.232 219.108L96 206.1Z" fill="url(#paint2_linear_1347_36)"/>
<path d="M393.533 304.5H340.277L330.093 289.22C327.916 285.953 324.807 283.416 321.169 281.939C317.532 280.462 313.534 280.112 309.695 280.936C305.857 281.76 302.355 283.719 299.644 286.558C296.933 289.398 295.138 292.987 294.493 296.86L288.661 331.868L224.797 376.588C217.542 381.557 208.975 384.262 200.182 384.362C191.389 384.462 182.763 381.951 175.397 377.148L140.445 353.844C138.68 352.666 136.519 352.238 134.438 352.654C132.357 353.07 130.527 354.295 129.349 356.06C128.172 357.825 127.743 359.986 128.159 362.067C128.575 364.148 129.8 365.978 131.565 367.156L166.517 390.46C176.58 397.008 188.358 400.426 200.362 400.284C212.367 400.142 224.06 396.445 233.965 389.66L294.245 347.46L308.797 366.9L239.325 419.004C227.631 427.738 213.433 432.471 198.837 432.5C185.52 432.517 172.499 428.574 161.429 421.172L108.437 385.844C106.672 384.666 104.511 384.238 102.43 384.654C100.349 385.07 98.5187 386.295 97.3412 388.06C96.1636 389.825 95.7355 391.986 96.1511 394.067C96.5667 396.148 97.7919 397.978 99.5572 399.156L152.549 434.484C166.247 443.643 182.359 448.521 198.837 448.5C216.891 448.465 234.454 442.61 248.917 431.804L323.501 375.868L348.957 369.468C352.685 368.548 356.329 367.32 359.853 365.796L402.397 347.612C407.154 345.574 411.061 341.955 413.458 337.369C415.855 332.782 416.595 327.509 415.553 322.44C414.51 317.371 411.75 312.817 407.738 309.548C403.726 306.28 398.708 304.496 393.533 304.5ZM396.085 332.908L353.533 351.132C350.798 352.308 347.973 353.263 345.085 353.988L323.205 359.452L304.453 334.436L310.277 299.484C310.449 298.813 310.806 298.203 311.306 297.724C311.806 297.244 312.43 296.914 313.108 296.77C313.786 296.626 314.49 296.674 315.142 296.909C315.794 297.144 316.367 297.557 316.797 298.1L329.357 316.948C330.087 318.04 331.075 318.935 332.233 319.554C333.391 320.174 334.684 320.498 335.997 320.5H393.533C395.023 320.497 396.469 321.01 397.625 321.95C398.781 322.891 399.576 324.202 399.876 325.662C400.177 327.122 399.963 328.64 399.272 329.961C398.581 331.281 397.456 332.322 396.085 332.908Z" fill="url(#paint3_linear_1347_36)"/>
</g>
<defs>
<linearGradient id="paint0_linear_1347_36" x1="233.134" y1="17.0001" x2="476.978" y2="296.849" gradientUnits="userSpaceOnUse">
<stop stop-color="#1BA2D7"/>
<stop offset="1" stop-color="#8D3DFA"/>
</linearGradient>
<linearGradient id="paint1_linear_1347_36" x1="277.709" y1="44.8751" x2="462.118" y2="221.268" gradientUnits="userSpaceOnUse">
<stop stop-color="#1BA2D7"/>
<stop offset="1" stop-color="#8D3DFA"/>
</linearGradient>
<linearGradient id="paint2_linear_1347_36" x1="13.6996" y1="51.9456" x2="453.839" y2="475.342" gradientUnits="userSpaceOnUse">
<stop stop-color="#1BA2D7"/>
<stop offset="1" stop-color="#8D3DFA"/>
</linearGradient>
<linearGradient id="paint3_linear_1347_36" x1="107.414" y1="291.328" x2="229.63" y2="558.507" gradientUnits="userSpaceOnUse">
<stop stop-color="#1BA2D7"/>
<stop offset="1" stop-color="#8D3DFA"/>
</linearGradient>
<clipPath id="clip0_1347_36">
<rect width="480" height="480" fill="white" transform="translate(0 0.5)"/>
</clipPath>
</defs>
</svg>
