<svg width="458" height="462" viewBox="0 0 458 462" fill="none" xmlns="http://www.w3.org/2000/svg">
<path d="M228.643 0C102.309 0 0 103.323 0 230.857C0 358.391 102.309 461.714 228.643 461.714C354.89 461.714 457.286 358.391 457.286 230.857C457.286 103.323 354.905 0 228.571 0H228.643ZM228.643 10.143C286.968 10.143 341.905 33.143 383.195 74.769C424.399 116.251 447.371 172.392 447.227 230.857C447.227 289.769 424.485 345.232 383.195 386.945C342.439 428.355 286.737 451.643 228.643 451.571C170.549 451.643 114.848 428.355 74.091 386.945C32.888 345.463 9.843 289.321 9.987 230.857C9.987 171.945 32.801 116.482 74.019 74.769C114.775 33.287 170.549 9.98497 228.643 10.143ZM217.157 91.376C179.931 101.375 145.473 120.536 99.542 173.287C53.612 226.038 62.317 269.626 62.317 269.626C62.317 269.626 74.999 239.644 105.48 208.074C119.964 193.126 130.7 188.091 138.137 188.091C144.738 187.716 150.301 193.054 150.301 199.662V306.751C150.301 317.342 143.469 319.679 137.171 319.52C131.839 319.448 126.881 317.573 126.881 317.573C158.184 363.109 233.096 369.501 233.096 369.501L265.97 334.324L266.719 335.002L296.825 360.7C351.922 327.932 378.497 267.217 378.497 267.217C353.882 293.217 338.259 299.306 328.949 299.306C320.691 299.234 317.463 294.415 317.463 294.415C317.016 292.164 316.267 259.541 315.964 226.932C315.661 193.184 315.964 159.378 317.621 159.291C327.148 141.4 357.485 105.329 357.485 105.329C300.817 116.525 269.962 153.722 269.962 153.722C260.81 146.508 242.19 147.705 242.19 147.705C250.895 152.51 259.6 166.491 259.6 178.063V291.991C259.6 291.991 240.605 308.742 225.977 308.742C217.272 308.742 211.94 304.01 209.014 300.1C207.89 298.599 206.91 296.94 206.161 295.136V154.458C204.129 155.958 201.65 156.781 199.185 156.867C196.029 156.867 192.801 155.295 190.625 150.706C188.967 147.244 187.915 142.064 187.915 134.474C187.915 108.546 217.186 91.333 217.186 91.333L217.157 91.376Z" fill="white"/>
</svg>
