<svg width="512" height="512" viewBox="0 0 512 512" fill="none" xmlns="http://www.w3.org/2000/svg">
<path d="M212.727 183.976V156.553C212.727 156.314 212.922 156.118 213.162 156.118H246.449C246.688 156.118 246.884 156.313 246.884 156.553V183.976H256.89V156.553C256.89 150.795 252.205 146.112 246.449 146.112H213.162C207.407 146.112 202.721 150.795 202.721 156.553V183.976H212.727ZM350.964 404.224H270.193C269.536 404.224 268.886 404.095 268.279 403.844C267.672 403.592 267.12 403.224 266.656 402.759C266.191 402.295 265.822 401.743 265.571 401.136C265.32 400.529 265.19 399.878 265.19 399.221V253.735C265.19 253.078 265.32 252.428 265.571 251.821C265.822 251.214 266.191 250.662 266.656 250.197C267.12 249.733 267.672 249.364 268.279 249.113C268.886 248.861 269.536 248.732 270.193 248.732H350.964C351.621 248.732 352.272 248.861 352.879 249.113C353.486 249.364 354.038 249.733 354.502 250.197C354.967 250.662 355.335 251.214 355.587 251.821C355.838 252.428 355.968 253.078 355.967 253.735V399.22C355.968 399.877 355.839 400.528 355.587 401.135C355.336 401.743 354.968 402.294 354.503 402.759C354.038 403.224 353.487 403.593 352.88 403.844C352.272 404.095 351.622 404.225 350.964 404.224ZM275.196 394.218H345.961V258.738H275.196V394.218ZM189.398 404.246H108.651C107.994 404.246 107.344 404.117 106.737 403.866C106.13 403.614 105.578 403.246 105.113 402.781C104.649 402.317 104.28 401.765 104.029 401.158C103.778 400.551 103.648 399.9 103.648 399.243V340.006C103.648 337.243 105.886 335.003 108.651 335.003C111.416 335.003 113.654 337.243 113.654 340.006V394.24H184.395V258.758H114.104C113.85 258.758 113.655 258.934 113.655 259.159V287.225C113.655 289.988 111.417 292.228 108.652 292.228C105.887 292.228 103.649 289.988 103.649 287.225V259.159C103.649 253.421 108.339 248.752 114.104 248.752H189.398C190.055 248.752 190.706 248.881 191.313 249.133C191.92 249.384 192.472 249.753 192.936 250.217C193.401 250.682 193.769 251.234 194.021 251.841C194.272 252.448 194.402 253.098 194.401 253.755V399.243C194.402 399.9 194.272 400.551 194.021 401.158C193.769 401.765 193.401 402.317 192.936 402.781C192.472 403.246 191.92 403.614 191.313 403.866C190.706 404.117 190.055 404.246 189.398 404.246Z" fill="white"/>
<path d="M270.192 404.224H189.421C188.764 404.224 188.113 404.095 187.506 403.844C186.899 403.592 186.348 403.224 185.883 402.759C185.418 402.295 185.05 401.743 184.799 401.136C184.547 400.529 184.418 399.878 184.418 399.221V191.884C184.418 186.129 189.099 181.446 194.854 181.446H264.754C270.509 181.446 275.195 186.129 275.195 191.884V399.22C275.195 399.877 275.066 400.528 274.815 401.135C274.563 401.742 274.195 402.294 273.73 402.759C273.266 403.224 272.714 403.592 272.107 403.844C271.5 404.095 270.849 404.224 270.192 404.224ZM194.424 394.218H265.189V191.884C265.189 191.827 265.177 191.771 265.156 191.718C265.134 191.666 265.101 191.618 265.061 191.578C265.021 191.538 264.973 191.506 264.92 191.485C264.867 191.463 264.811 191.452 264.754 191.452H194.854C194.797 191.452 194.741 191.463 194.689 191.485C194.637 191.507 194.589 191.539 194.549 191.579C194.509 191.619 194.478 191.667 194.456 191.719C194.435 191.772 194.424 191.828 194.424 191.884V394.218ZM431.739 363.67C431.082 363.67 430.431 363.799 429.824 364.051C429.217 364.302 428.666 364.671 428.201 365.135C427.736 365.6 427.368 366.152 427.117 366.759C426.865 367.366 426.736 368.016 426.736 368.673V394.24H355.946V244.777H345.94V399.243C345.94 399.9 346.069 400.551 346.321 401.158C346.572 401.765 346.94 402.317 347.405 402.781C347.87 403.246 348.421 403.614 349.028 403.866C349.635 404.117 350.286 404.246 350.943 404.246H431.739C432.396 404.246 433.047 404.117 433.654 403.866C434.261 403.614 434.812 403.246 435.277 402.781C435.742 402.317 436.11 401.765 436.361 401.158C436.613 400.551 436.742 399.9 436.742 399.243V368.673C436.742 368.016 436.613 367.366 436.362 366.758C436.11 366.151 435.742 365.6 435.277 365.135C434.813 364.67 434.261 364.302 433.654 364.051C433.047 363.799 432.396 363.67 431.739 363.67ZM426.736 244.777V315.892C426.736 318.655 428.974 320.895 431.739 320.895C434.504 320.895 436.742 318.655 436.742 315.892V244.777H426.736Z" fill="white"/>
<path d="M431.74 340.655H392.669C386.933 340.655 382.262 335.965 382.262 330.199V293.028C382.262 287.29 386.933 282.621 392.669 282.621H431.74C432.397 282.621 433.048 282.75 433.655 283.002C434.262 283.253 434.814 283.621 435.278 284.086C435.743 284.551 436.111 285.102 436.363 285.709C436.614 286.316 436.743 286.967 436.743 287.624V315.891C436.743 318.654 434.505 320.894 431.74 320.894C428.975 320.894 426.737 318.654 426.737 315.891V292.628H392.669C392.616 292.625 392.562 292.633 392.512 292.652C392.462 292.671 392.417 292.701 392.379 292.739C392.341 292.776 392.312 292.822 392.293 292.872C392.274 292.922 392.265 292.975 392.268 293.029V330.2C392.268 330.452 392.444 330.649 392.669 330.649H431.74C434.505 330.649 436.743 332.889 436.743 335.652C436.743 338.415 434.506 340.655 431.74 340.655ZM296.513 308.004C295.856 308.004 295.206 307.875 294.599 307.623C293.991 307.372 293.44 307.003 292.975 306.539C292.511 306.074 292.142 305.523 291.891 304.916C291.639 304.309 291.51 303.658 291.51 303.001V290.293C291.51 287.53 293.748 285.29 296.513 285.29C299.278 285.29 301.516 287.53 301.516 290.293V303.001C301.516 303.658 301.387 304.309 301.136 304.916C300.884 305.523 300.516 306.074 300.051 306.539C299.587 307.003 299.035 307.372 298.428 307.623C297.821 307.875 297.17 308.004 296.513 308.004ZM296.513 342.49C295.856 342.49 295.206 342.361 294.599 342.109C293.991 341.858 293.44 341.49 292.975 341.025C292.511 340.56 292.142 340.009 291.891 339.402C291.639 338.795 291.51 338.144 291.51 337.487V324.782C291.51 322.019 293.748 319.779 296.513 319.779C299.278 319.779 301.516 322.019 301.516 324.782V337.487C301.516 338.144 301.387 338.795 301.136 339.402C300.884 340.009 300.516 340.56 300.051 341.025C299.587 341.49 299.035 341.858 298.428 342.109C297.821 342.361 297.17 342.49 296.513 342.49ZM296.513 376.978C295.856 376.978 295.206 376.849 294.599 376.597C293.991 376.346 293.44 375.977 292.975 375.513C292.511 375.048 292.142 374.497 291.891 373.89C291.639 373.283 291.51 372.632 291.51 371.975V359.27C291.51 356.507 293.748 354.267 296.513 354.267C299.278 354.267 301.516 356.507 301.516 359.27V371.975C301.516 372.632 301.387 373.283 301.136 373.89C300.884 374.497 300.516 375.048 300.051 375.513C299.587 375.977 299.035 376.346 298.428 376.597C297.821 376.849 297.17 376.978 296.513 376.978ZM324.64 308.004C323.983 308.004 323.333 307.875 322.726 307.623C322.119 307.372 321.567 307.003 321.102 306.539C320.638 306.074 320.269 305.523 320.018 304.916C319.766 304.309 319.637 303.658 319.637 303.001V290.293C319.637 287.53 321.875 285.29 324.64 285.29C327.405 285.29 329.643 287.53 329.643 290.293V303.001C329.643 303.658 329.514 304.309 329.263 304.916C329.011 305.523 328.643 306.074 328.178 306.539C327.714 307.003 327.162 307.372 326.555 307.623C325.948 307.875 325.297 308.004 324.64 308.004ZM324.64 342.49C323.983 342.49 323.333 342.361 322.726 342.109C322.119 341.858 321.567 341.49 321.102 341.025C320.638 340.56 320.269 340.009 320.018 339.402C319.766 338.795 319.637 338.144 319.637 337.487V324.782C319.637 322.019 321.875 319.779 324.64 319.779C327.405 319.779 329.643 322.019 329.643 324.782V337.487C329.643 338.144 329.514 338.795 329.263 339.402C329.011 340.009 328.643 340.56 328.178 341.025C327.714 341.49 327.162 341.858 326.555 342.109C325.948 342.361 325.297 342.49 324.64 342.49ZM324.64 376.978C323.983 376.978 323.333 376.849 322.726 376.597C322.119 376.346 321.567 375.977 321.102 375.513C320.638 375.048 320.269 374.497 320.018 373.89C319.766 373.283 319.637 372.632 319.637 371.975V359.27C319.637 356.507 321.875 354.267 324.64 354.267C327.405 354.267 329.643 356.507 329.643 359.27V371.975C329.643 372.632 329.514 373.283 329.263 373.89C329.011 374.497 328.643 375.048 328.178 375.513C327.714 375.977 327.162 376.346 326.555 376.597C325.948 376.849 325.297 376.978 324.64 376.978ZM215.346 370.73C214.689 370.73 214.039 370.601 213.432 370.349C212.825 370.098 212.273 369.73 211.808 369.265C211.344 368.8 210.975 368.249 210.724 367.642C210.472 367.035 210.343 366.384 210.343 365.727V219.941C210.343 217.178 212.581 214.938 215.346 214.938C218.111 214.938 220.349 217.178 220.349 219.941V365.727C220.349 366.384 220.22 367.035 219.969 367.642C219.717 368.249 219.349 368.8 218.884 369.265C218.42 369.73 217.868 370.098 217.261 370.349C216.654 370.601 216.003 370.73 215.346 370.73ZM244.264 370.73C243.607 370.73 242.957 370.601 242.35 370.349C241.743 370.098 241.191 369.73 240.726 369.265C240.262 368.8 239.893 368.249 239.642 367.642C239.39 367.035 239.261 366.384 239.261 365.727V219.941C239.261 217.178 241.499 214.938 244.264 214.938C247.029 214.938 249.267 217.178 249.267 219.941V365.727C249.267 366.384 249.138 367.035 248.887 367.642C248.635 368.249 248.267 368.8 247.802 369.265C247.338 369.73 246.786 370.098 246.179 370.349C245.572 370.601 244.921 370.73 244.264 370.73ZM168.701 290.703H129.366C126.601 290.703 124.363 288.463 124.363 285.7C124.363 282.937 126.601 280.697 129.366 280.697H168.701C171.466 280.697 173.704 282.937 173.704 285.7C173.704 288.463 171.467 290.703 168.701 290.703ZM168.701 312.596H129.366C126.601 312.596 124.363 310.356 124.363 307.593C124.363 304.83 126.601 302.59 129.366 302.59H168.701C171.466 302.59 173.704 304.83 173.704 307.593C173.704 310.356 171.467 312.596 168.701 312.596ZM168.701 334.49H129.366C126.601 334.49 124.363 332.25 124.363 329.487C124.363 326.724 126.601 324.484 129.366 324.484H168.701C169.358 324.484 170.009 324.613 170.616 324.865C171.223 325.116 171.775 325.484 172.239 325.949C172.704 326.414 173.072 326.965 173.324 327.572C173.575 328.179 173.704 328.83 173.704 329.487C173.704 330.144 173.575 330.795 173.324 331.402C173.072 332.009 172.704 332.56 172.239 333.025C171.775 333.49 171.223 333.858 170.616 334.109C170.009 334.361 169.358 334.49 168.701 334.49ZM168.701 356.383H129.366C126.601 356.383 124.363 354.143 124.363 351.38C124.363 348.617 126.601 346.377 129.366 346.377H168.701C171.466 346.377 173.704 348.617 173.704 351.38C173.704 354.143 171.467 356.383 168.701 356.383ZM168.701 378.276H129.366C126.601 378.276 124.363 376.036 124.363 373.273C124.363 370.51 126.601 368.27 129.366 368.27H168.701C171.466 368.27 173.704 370.51 173.704 373.273C173.704 376.036 171.467 378.276 168.701 378.276ZM391.369 256.237C362.152 256.237 335.965 242.462 324.654 221.145C320.887 214.132 318.977 206.622 318.977 198.837C318.977 191.091 320.902 183.557 324.693 176.443C336.057 155.153 362.23 141.398 391.369 141.398C420.522 141.398 446.681 155.156 458.001 176.446C461.792 183.477 463.717 191.013 463.717 198.837C463.717 206.622 461.807 214.132 458.035 221.155C446.73 242.462 420.557 256.237 391.369 256.237ZM391.369 146.4C364.053 146.4 339.614 159.118 329.11 178.797C325.705 185.178 323.98 191.92 323.98 198.836C323.98 205.786 325.69 212.499 329.066 218.789C339.531 238.501 363.984 251.233 391.369 251.233C418.729 251.233 443.163 238.501 453.623 218.799C457.004 212.499 458.714 205.786 458.714 198.836C458.714 191.849 456.989 185.112 453.589 178.807C443.119 159.116 418.7 146.4 391.369 146.4Z" fill="white"/>
<path d="M391.371 258.738C361.241 258.738 334.188 244.442 322.443 222.317C318.49 214.947 316.477 207.039 316.477 198.836C316.477 190.677 318.5 182.745 322.486 175.265C334.28 153.172 361.318 138.896 391.37 138.896C421.437 138.896 448.46 153.175 460.21 175.27C464.192 182.657 466.219 190.594 466.219 198.836C466.219 207.039 464.206 214.947 460.239 222.336C448.51 244.443 421.472 258.738 391.371 258.738ZM391.371 148.902C364.964 148.902 341.395 161.099 331.315 179.975C328.11 185.989 326.483 192.336 326.483 198.836C326.483 205.368 328.095 211.686 331.271 217.607C341.311 236.522 364.9 248.732 391.371 248.732C417.818 248.732 441.386 236.523 451.412 217.627C454.602 211.686 456.215 205.369 456.215 198.836C456.215 192.27 454.593 185.93 451.393 179.994C441.343 161.097 417.789 148.902 391.371 148.902Z" fill="white"/>
<path d="M391.351 148.902C390.694 148.902 390.043 148.773 389.436 148.522C388.829 148.27 388.277 147.902 387.813 147.437C387.348 146.973 386.98 146.421 386.728 145.814C386.477 145.207 386.348 144.556 386.348 143.899V108.536C386.348 105.773 388.586 103.533 391.351 103.533C394.116 103.533 396.354 105.773 396.354 108.536V143.899C396.354 144.556 396.225 145.207 395.973 145.814C395.722 146.421 395.353 146.973 394.889 147.437C394.424 147.902 393.872 148.27 393.265 148.522C392.658 148.773 392.008 148.902 391.351 148.902ZM455.833 224.976H326.864C325.959 224.976 325.072 224.731 324.296 224.266C323.52 223.802 322.884 223.135 322.457 222.338C318.49 214.948 316.477 207.041 316.477 198.838C316.477 190.679 318.5 182.747 322.486 175.267C322.913 174.467 323.55 173.799 324.328 173.332C325.106 172.866 325.996 172.619 326.903 172.619H455.794C456.697 172.619 457.582 172.863 458.357 173.326C459.133 173.789 459.768 174.453 460.196 175.248C464.193 182.66 466.22 190.597 466.22 198.839C466.22 207.042 464.207 214.95 460.24 222.339C459.812 223.136 459.177 223.802 458.401 224.266C457.624 224.731 456.737 224.976 455.833 224.976ZM329.971 214.969H452.725C455.041 209.822 456.213 204.408 456.213 198.836C456.213 193.23 455.031 187.787 452.69 182.623H330.015C327.67 187.841 326.483 193.284 326.483 198.836C326.483 204.409 327.655 209.822 329.971 214.969ZM461.217 404.224H84.4717C81.7067 404.224 79.4688 401.984 79.4688 399.221C79.4688 396.458 81.7067 394.218 84.4717 394.218H461.217C463.982 394.218 466.22 396.458 466.22 399.221C466.22 401.984 463.982 404.224 461.217 404.224ZM144.02 230.34C144.017 229.683 144.145 229.031 144.396 228.423C144.647 227.815 145.015 227.263 145.48 226.798C145.945 226.333 146.498 225.964 147.106 225.713C147.714 225.463 148.365 225.335 149.023 225.337C149.68 225.335 150.332 225.463 150.94 225.713C151.548 225.964 152.1 226.333 152.565 226.798C153.03 227.263 153.399 227.815 153.649 228.423C153.9 229.031 154.028 229.683 154.026 230.34C154.026 233.091 151.774 235.343 149.023 235.343C146.272 235.343 144.02 233.091 144.02 230.34ZM144.02 205.325C144.023 203.999 144.552 202.729 145.489 201.792C146.427 200.854 147.697 200.326 149.023 200.322C150.348 200.326 151.619 200.854 152.556 201.792C153.494 202.729 154.022 203.999 154.026 205.325C154.026 208.076 151.774 210.328 149.023 210.328C146.272 210.328 144.02 208.076 144.02 205.325ZM144.02 180.31C144.017 179.653 144.145 179.001 144.396 178.393C144.647 177.785 145.015 177.233 145.48 176.768C145.945 176.303 146.498 175.934 147.106 175.683C147.714 175.433 148.365 175.305 149.023 175.307C149.68 175.305 150.332 175.433 150.94 175.683C151.548 175.934 152.1 176.303 152.565 176.768C153.03 177.233 153.399 177.785 153.649 178.393C153.9 179.001 154.028 179.653 154.026 180.31C154.026 183.061 151.774 185.313 149.023 185.313C146.272 185.313 144.02 183.061 144.02 180.31ZM144.02 155.295C144.017 154.638 144.145 153.986 144.396 153.378C144.647 152.77 145.015 152.218 145.48 151.753C145.945 151.288 146.498 150.919 147.106 150.668C147.714 150.418 148.365 150.29 149.023 150.292C149.68 150.29 150.332 150.418 150.94 150.668C151.548 150.919 152.1 151.288 152.565 151.753C153.03 152.218 153.399 152.77 153.649 153.378C153.9 153.986 154.028 154.638 154.026 155.295C154.026 158.046 151.774 160.298 149.023 160.298C146.272 160.298 144.02 158.046 144.02 155.295ZM144.02 130.28C144.017 129.623 144.145 128.971 144.396 128.363C144.647 127.755 145.015 127.203 145.48 126.738C145.945 126.273 146.498 125.904 147.106 125.653C147.714 125.403 148.365 125.275 149.023 125.277C149.68 125.275 150.332 125.403 150.94 125.653C151.548 125.904 152.1 126.273 152.565 126.738C153.03 127.203 153.399 127.755 153.649 128.363C153.9 128.971 154.028 129.623 154.026 130.28C154.026 133.031 151.774 135.283 149.023 135.283C146.272 135.283 144.02 133.031 144.02 130.28ZM224.82 131.531C224.823 130.205 225.351 128.934 226.288 127.997C227.226 127.059 228.497 126.531 229.823 126.528C231.148 126.532 232.419 127.06 233.356 127.998C234.294 128.935 234.822 130.205 234.826 131.531C234.826 134.282 232.574 136.534 229.823 136.534C228.497 136.531 227.227 136.002 226.289 135.065C225.352 134.127 224.823 132.857 224.82 131.531ZM224.82 106.516C224.823 105.19 225.351 103.919 226.288 102.982C227.226 102.044 228.497 101.516 229.823 101.513C231.148 101.517 232.419 102.045 233.356 102.983C234.294 103.92 234.822 105.19 234.826 106.516C234.826 109.267 232.574 111.519 229.823 111.519C228.497 111.516 227.227 110.987 226.289 110.05C225.352 109.112 224.823 107.842 224.82 106.516ZM386.367 75.9462C386.367 73.1462 388.614 70.9432 391.37 70.9432C394.121 70.9432 396.319 73.1462 396.319 75.9462H396.373C396.369 77.272 395.841 78.5424 394.903 79.4798C393.966 80.4172 392.695 80.9455 391.37 80.9492C390.712 80.9519 390.06 80.8243 389.452 80.5738C388.844 80.3233 388.291 79.9549 387.826 79.4898C387.361 79.0247 386.993 78.4721 386.742 77.8639C386.492 77.2557 386.364 76.604 386.367 75.9462ZM386.367 50.9312C386.37 49.6053 386.898 48.3346 387.836 47.3971C388.773 46.4595 390.044 45.9314 391.37 45.9282C394.121 45.9282 396.319 48.1802 396.319 50.9312H396.373C396.369 52.257 395.841 53.5273 394.903 54.4648C393.966 55.4022 392.695 55.9305 391.37 55.9342C390.712 55.9369 390.06 55.8093 389.452 55.5588C388.844 55.3083 388.291 54.9399 387.826 54.4748C387.361 54.0097 386.993 53.4571 386.742 52.8489C386.492 52.2407 386.364 51.589 386.367 50.9312ZM176.183 102.622C175.525 102.623 174.873 102.494 174.265 102.242C173.657 101.99 173.105 101.62 172.641 101.154C166.338 94.8392 157.954 91.3632 149.033 91.3632C140.117 91.3632 131.733 94.8392 125.43 101.154C124.491 102.093 123.219 102.621 121.891 102.622C120.564 102.623 119.29 102.097 118.351 101.159C117.413 100.221 116.886 98.9492 116.885 97.6228C116.884 96.2963 117.409 95.0236 118.346 94.0842C126.544 85.8762 137.444 81.3572 149.033 81.3572C160.627 81.3572 171.527 85.8762 179.725 94.0842C180.661 95.0236 181.187 96.2963 181.186 97.6228C181.185 98.9492 180.658 100.221 179.72 101.159C179.255 101.624 178.704 101.992 178.097 102.243C177.49 102.494 176.84 102.623 176.183 102.622Z" fill="white"/>
<path d="M133.518 114.272C132.238 114.272 130.958 113.783 129.981 112.809C129.043 111.871 128.516 110.598 128.516 109.271C128.516 107.943 129.043 106.671 129.981 105.732C135.067 100.639 141.839 97.8321 149.035 97.8321C156.232 97.8341 162.998 100.639 168.085 105.735C168.564 106.196 168.947 106.748 169.211 107.359C169.474 107.97 169.613 108.627 169.619 109.292C169.626 109.958 169.499 110.617 169.248 111.233C168.996 111.849 168.624 112.408 168.153 112.879C167.683 113.349 167.123 113.72 166.507 113.972C165.891 114.223 165.231 114.349 164.566 114.342C163.901 114.335 163.244 114.196 162.633 113.932C162.023 113.668 161.471 113.285 161.01 112.805C159.441 111.227 157.575 109.976 155.52 109.123C153.464 108.271 151.26 107.834 149.035 107.839H149.03C146.804 107.834 144.6 108.27 142.544 109.123C140.489 109.976 138.623 111.229 137.055 112.808C136.591 113.273 136.039 113.641 135.432 113.893C134.825 114.144 134.175 114.273 133.518 114.272ZM418.494 29.6161C417.836 29.6169 417.184 29.4876 416.576 29.2357C415.969 28.9838 415.417 28.6141 414.952 28.1481C408.649 21.8331 400.265 18.3571 391.344 18.3571C382.427 18.3571 374.044 21.8331 367.741 28.1481C366.803 29.0871 365.53 29.6152 364.203 29.6161C362.875 29.617 361.602 29.0908 360.662 28.1531C359.724 27.215 359.197 25.9431 359.196 24.6166C359.195 23.2901 359.72 22.0175 360.657 21.0781C368.855 12.8701 379.755 8.35107 391.344 8.35107C402.938 8.35107 413.838 12.8701 422.036 21.0781C422.972 22.0175 423.498 23.2901 423.497 24.6166C423.496 25.9431 422.969 27.215 422.031 28.1531C421.567 28.6176 421.015 28.986 420.408 29.237C419.801 29.4881 419.151 29.6169 418.494 29.6161Z" fill="white"/>
<path d="M375.834 41.2671C374.554 41.2671 373.274 40.7781 372.297 39.8041C371.358 38.8656 370.831 37.5928 370.831 36.2656C370.831 34.9385 371.358 33.6657 372.297 32.7271C377.383 27.6342 384.155 24.8271 391.351 24.8271C398.548 24.8291 405.314 27.6341 410.401 32.7301C410.88 33.1913 411.263 33.7434 411.526 34.3542C411.79 34.9651 411.929 35.6223 411.935 36.2875C411.941 36.9527 411.815 37.6125 411.563 38.2283C411.312 38.844 410.94 39.4034 410.469 39.8736C409.998 40.3439 409.439 40.7155 408.823 40.9668C408.207 41.2181 407.547 41.344 406.882 41.3372C406.217 41.3303 405.559 41.1909 404.949 40.9269C404.338 40.663 403.786 40.28 403.326 39.8001C401.757 38.222 399.891 36.9706 397.835 36.1182C395.78 35.2658 393.576 34.8294 391.351 34.8341H391.346C389.12 34.8288 386.916 35.2653 384.86 36.1183C382.804 36.9712 380.938 38.2237 379.371 39.8032C378.906 40.2678 378.355 40.6364 377.748 40.8876C377.141 41.1388 376.49 41.2678 375.834 41.2671ZM229.828 87.7351C216.451 87.7351 205.565 76.8721 205.565 63.5161C205.565 50.1361 216.45 39.2511 229.828 39.2511C243.181 39.2511 254.047 50.1361 254.047 63.5161C254.047 76.8711 243.181 87.7351 229.828 87.7351ZM229.828 49.2571C221.967 49.2571 215.571 55.6521 215.571 63.5161C215.571 71.3531 221.966 77.7291 229.828 77.7291C237.665 77.7291 244.041 71.3531 244.041 63.5161C244.041 55.6531 237.665 49.2571 229.828 49.2571ZM155.032 394.218C154.375 394.218 153.724 394.347 153.117 394.599C152.51 394.85 151.958 395.219 151.494 395.683C151.029 396.148 150.661 396.699 150.409 397.306C150.158 397.913 150.028 398.564 150.029 399.221V442.155C150.029 443.745 148.739 445.038 147.151 445.038H81.7266V455.044H147.151C154.255 455.044 160.035 449.262 160.035 442.155V399.221C160.035 398.564 159.905 397.913 159.654 397.306C159.403 396.699 159.034 396.148 158.57 395.683C158.105 395.219 157.553 394.85 156.946 394.599C156.339 394.347 155.689 394.218 155.032 394.218ZM410.587 469.896H386.006V454.347C386.006 449.215 381.829 445.037 376.699 445.037H349.759V399.221C349.759 396.458 347.521 394.218 344.756 394.218C341.991 394.218 339.753 396.458 339.753 399.221V445.733C339.753 450.865 343.93 455.043 349.06 455.043H376V470.592C376 475.724 380.177 479.902 385.312 479.902H410.587V469.896ZM220.35 466.184V399.221C220.35 396.458 218.112 394.218 215.347 394.218C212.582 394.218 210.344 396.458 210.344 399.221V466.184H220.35ZM293.015 434.062V399.221C293.015 396.458 290.777 394.218 288.012 394.218C285.247 394.218 283.009 396.458 283.009 399.221V434.062H293.015Z" fill="white"/>
<path d="M67.4492 471.728C55.5032 471.728 45.7812 461.998 45.7812 450.04C45.7812 438.08 55.5042 428.35 67.4492 428.35C79.3942 428.35 89.1172 438.08 89.1172 450.04C89.1182 461.998 79.3952 471.728 67.4492 471.728ZM67.4492 438.356C61.0192 438.356 55.7873 443.598 55.7873 450.04C55.7873 456.482 61.0202 461.722 67.4492 461.722C73.8782 461.722 79.1113 456.482 79.1113 450.04C79.1123 443.598 73.8792 438.356 67.4492 438.356ZM214.432 503.649C202.486 503.649 192.764 493.919 192.764 481.959C192.764 470.001 202.487 460.271 214.432 460.271C226.377 460.271 236.1 470.001 236.1 481.959C236.1 493.919 226.378 503.649 214.432 503.649ZM214.432 470.277C208.002 470.277 202.77 475.517 202.77 481.959C202.77 488.401 208.003 493.643 214.432 493.643C220.861 493.643 226.094 488.401 226.094 481.959C226.094 475.517 220.862 470.277 214.432 470.277ZM287.103 471.728C275.157 471.728 265.435 461.998 265.435 450.04C265.435 438.08 275.158 428.35 287.103 428.35C299.048 428.35 308.771 438.08 308.771 450.04C308.771 461.998 299.048 471.728 287.103 471.728ZM287.103 438.356C280.673 438.356 275.441 443.598 275.441 450.04C275.441 456.482 280.674 461.722 287.103 461.722C293.533 461.722 298.765 456.482 298.765 450.04C298.765 443.598 293.532 438.356 287.103 438.356ZM425.589 495.099C413.643 495.099 403.921 485.369 403.921 473.409C403.921 461.451 413.644 451.721 425.589 451.721C437.535 451.721 447.257 461.451 447.257 473.409C447.257 485.369 437.535 495.099 425.589 495.099ZM425.589 461.727C419.159 461.727 413.927 466.967 413.927 473.409C413.927 479.851 419.16 485.093 425.589 485.093C432.019 485.093 437.251 479.851 437.251 473.409C437.251 466.967 432.019 461.727 425.589 461.727Z" fill="white"/>
</svg>
