<svg width="512" height="512" viewBox="0 0 512 512" fill="none" xmlns="http://www.w3.org/2000/svg">
<g clip-path="url(#clip0_1593_1112)">
<path d="M486.4 512H25.6C18.8125 511.993 12.305 509.294 7.50555 504.494C2.70609 499.695 0.0067773 493.187 0 486.4L0 145.067C0.0067773 138.279 2.70609 131.772 7.50555 126.972C12.305 122.173 18.8125 119.473 25.6 119.467H384C386.263 119.467 388.434 120.366 390.034 121.966C391.634 123.566 392.533 125.737 392.533 128C392.533 130.263 391.634 132.434 390.034 134.034C388.434 135.634 386.263 136.533 384 136.533H25.6C20.8896 136.533 17.0667 140.356 17.0667 145.067V486.4C17.0667 491.11 20.8896 494.933 25.6 494.933H486.4C491.11 494.933 494.933 491.11 494.933 486.4V162.133C494.933 159.87 495.832 157.7 497.433 156.099C499.033 154.499 501.204 153.6 503.467 153.6C505.73 153.6 507.9 154.499 509.501 156.099C511.101 157.7 512 159.87 512 162.133V486.4C511.993 493.187 509.294 499.695 504.494 504.494C499.695 509.294 493.187 511.993 486.4 512Z" fill="white"/>
<path d="M255.999 401.067C190.02 401.067 136.533 347.58 136.533 281.6C136.533 215.62 190.02 162.133 255.999 162.133C321.979 162.133 375.466 215.62 375.466 281.6C375.389 347.546 321.945 400.99 255.999 401.067ZM255.999 179.2C199.449 179.2 153.599 225.05 153.599 281.6C153.599 338.15 199.449 384 255.999 384C312.55 384 358.399 338.15 358.399 281.6C358.331 225.075 312.524 179.268 255.999 179.2ZM469.333 452.267H409.599C407.336 452.267 405.166 451.368 403.566 449.767C401.965 448.167 401.066 445.996 401.066 443.733C401.066 441.47 401.965 439.3 403.566 437.699C405.166 436.099 407.336 435.2 409.599 435.2H469.333C471.596 435.2 473.767 436.099 475.367 437.699C476.967 439.3 477.866 441.47 477.866 443.733C477.866 445.996 476.967 448.167 475.367 449.767C473.767 451.368 471.596 452.267 469.333 452.267ZM358.399 452.267H42.6661C40.403 452.267 38.2325 451.368 36.6322 449.767C35.0319 448.167 34.1328 445.996 34.1328 443.733C34.1328 441.47 35.0319 439.3 36.6322 437.699C38.2325 436.099 40.403 435.2 42.6661 435.2H358.399C360.663 435.2 362.833 436.099 364.433 437.699C366.034 439.3 366.933 441.47 366.933 443.733C366.933 445.996 366.034 448.167 364.433 449.767C362.833 451.368 360.663 452.267 358.399 452.267Z" fill="white"/>
<path d="M384.001 477.867C374.948 477.867 366.266 474.271 359.865 467.869C353.464 461.468 349.867 452.786 349.867 443.733C349.867 434.681 353.464 425.999 359.865 419.597C366.266 413.196 374.948 409.6 384.001 409.6C393.054 409.6 401.735 413.196 408.137 419.597C414.538 425.999 418.134 434.681 418.134 443.733C418.134 452.786 414.538 461.468 408.137 467.869C401.735 474.271 393.054 477.867 384.001 477.867ZM384.001 426.667C379.474 426.667 375.133 428.465 371.933 431.665C368.732 434.866 366.934 439.207 366.934 443.733C366.934 448.26 368.732 452.601 371.933 455.801C375.133 459.002 379.474 460.8 384.001 460.8C388.527 460.8 392.868 459.002 396.069 455.801C399.269 452.601 401.067 448.26 401.067 443.733C401.067 439.207 399.269 434.866 396.069 431.665C392.868 428.465 388.527 426.667 384.001 426.667ZM221.85 349.867C217.33 349.853 212.998 348.05 209.803 344.852C206.608 341.654 204.81 337.321 204.801 332.8V230.4C204.802 227.447 205.569 224.544 207.027 221.976C208.485 219.408 210.585 217.263 213.121 215.749C215.657 214.236 218.542 213.406 221.495 213.342C224.447 213.277 227.366 213.98 229.966 215.381L323.866 266.581C326.574 268.048 328.834 270.219 330.408 272.865C331.981 275.511 332.81 278.534 332.806 281.613C332.801 284.692 331.964 287.712 330.383 290.354C328.802 292.995 326.535 295.16 323.824 296.619L230 347.785C227.499 349.15 224.701 349.858 221.85 349.867ZM221.867 230.426V332.8L315.691 281.626L221.867 230.426ZM503.467 136.533C501.204 136.533 499.034 135.634 497.433 134.034C495.833 132.434 494.934 130.263 494.934 128C494.866 66.7648 445.236 17.1349 384.001 17.0667C381.738 17.0667 379.567 16.1676 377.967 14.5673C376.366 12.967 375.467 10.7965 375.467 8.53333C375.467 6.27015 376.366 4.09967 377.967 2.49936C379.567 0.899045 381.738 0 384.001 0C454.657 0.0853333 511.915 57.344 512.001 128C512.001 130.263 511.102 132.434 509.501 134.034C507.901 135.634 505.731 136.533 503.467 136.533Z" fill="white"/>
<path d="M460.8 136.533C458.537 136.533 456.366 135.634 454.766 134.034C453.166 132.434 452.267 130.263 452.267 128C452.244 109.902 445.045 92.5508 432.247 79.7532C419.449 66.9556 402.099 59.756 384 59.7334C381.737 59.7334 379.566 58.8344 377.966 57.2341C376.366 55.6337 375.467 53.4633 375.467 51.2001C375.467 48.9369 376.366 46.7664 377.966 45.1661C379.566 43.5658 381.737 42.6667 384 42.6667C431.104 42.7179 469.282 80.8961 469.333 128C469.333 130.263 468.434 132.434 466.834 134.034C465.234 135.634 463.063 136.533 460.8 136.533Z" fill="white"/>
<path d="M418.133 136.533C415.87 136.533 413.7 135.634 412.099 134.034C410.499 132.434 409.6 130.263 409.6 128C409.593 121.212 406.894 114.705 402.095 109.905C397.295 105.106 390.788 102.407 384 102.4C381.737 102.4 379.566 101.501 377.966 99.9006C376.366 98.3003 375.467 96.1298 375.467 93.8666C375.467 91.6034 376.366 89.4329 377.966 87.8326C379.566 86.2323 381.737 85.3333 384 85.3333C395.312 85.3468 406.156 89.8464 414.155 97.845C422.154 105.844 426.653 116.688 426.667 128C426.667 130.263 425.768 132.434 424.167 134.034C422.567 135.634 420.397 136.533 418.133 136.533Z" fill="white"/>
</g>
<defs>
<clipPath id="clip0_1593_1112">
<rect width="512" height="512" fill="white"/>
</clipPath>
</defs>
</svg>
