<svg width="451" height="512" viewBox="0 0 451 512" fill="none" xmlns="http://www.w3.org/2000/svg">
<path fill-rule="evenodd" clip-rule="evenodd" d="M440.59 206.676H99.4179L427.118 111.746C429.664 111.006 431.813 109.287 433.094 106.965C433.728 105.815 434.129 104.551 434.275 103.246C434.42 101.941 434.307 100.62 433.941 99.359L416.793 40.16C409.941 16.516 387.926 0 363.253 0C358.055 0 352.875 0.738 347.852 2.191L40.1759 91.321C25.9459 95.441 14.1519 104.902 6.96091 117.953C-0.227089 131.003 -1.91409 146.031 2.20691 160.258L18.9609 218.094V456.348C18.9599 487.035 43.9259 512 74.6089 512H194.773C200.297 512 204.773 507.523 204.773 502C204.773 496.477 200.297 492 194.773 492H74.6129C54.9529 492 38.9609 476.008 38.9609 456.348V320.262H430.589V456.348C430.589 476.008 414.598 492 394.938 492H274.773C269.253 492 264.773 496.477 264.773 502C264.773 507.523 269.253 512 274.773 512H394.938C425.625 512 450.59 487.035 450.59 456.348V216.676C450.59 211.152 446.113 206.676 440.59 206.676ZM264.258 300.262L306.746 226.676H362.008L319.523 300.262H264.258ZM185.898 300.262L228.387 226.676H283.648L241.164 300.262H185.898ZM107.543 300.262L150.027 226.676H205.293L162.805 300.262H107.543ZM144.723 170.805L73.5739 102.469L126.883 87.027C127.266 87.5847 127.706 88.1018 128.195 88.57L199.344 156.906L146.035 172.348C145.651 171.79 145.212 171.273 144.723 170.805ZM278.723 44.965L349.87 113.3L296.562 128.741C296.179 128.182 295.739 127.665 295.249 127.198L224.101 58.862L277.409 43.421C277.793 43.9788 278.233 44.4958 278.722 44.964L278.723 44.965ZM203.457 66.77L274.605 135.102L221.297 150.547C220.914 149.988 220.474 149.471 219.984 149.004L148.836 80.668L202.145 65.227C202.523 65.77 202.961 66.289 203.457 66.77ZM353.418 21.402C356.628 20.472 359.938 20 363.254 20C379.078 20 393.191 30.578 397.582 45.727L411.949 95.317L371.829 106.937C371.442 106.38 371.001 105.864 370.512 105.395L299.367 37.062L353.418 21.402ZM24.4799 127.602C29.0899 119.23 36.6399 113.168 45.7419 110.532L51.6169 108.828C52.0021 109.385 52.442 109.902 52.9299 110.371L124.078 178.707L35.7849 204.285L21.4179 154.695C18.7809 145.598 19.8709 135.977 24.4799 127.602ZM38.9599 226.676H126.934L84.4489 300.262H38.9609L38.9599 226.676ZM342.617 300.262L385.102 226.676H430.59V300.262H342.617Z" fill="#59C1FF"/>
<path fill-rule="evenodd" clip-rule="evenodd" d="M303.922 405.112C303.923 403.357 303.461 401.633 302.583 400.112C301.705 398.592 300.443 397.33 298.922 396.452L211.066 345.729C209.546 344.852 207.822 344.391 206.066 344.391C204.311 344.391 202.587 344.852 201.066 345.729C199.546 346.607 198.284 347.869 197.406 349.389C196.528 350.91 196.066 352.634 196.066 354.389V455.835C196.067 457.59 196.529 459.314 197.407 460.833C198.284 462.353 199.546 463.615 201.066 464.491C202.586 465.371 204.311 465.834 206.066 465.834C207.822 465.834 209.547 465.371 211.066 464.491L298.922 413.772C300.443 412.895 301.705 411.633 302.583 410.113C303.461 408.592 303.923 406.868 303.922 405.112ZM216.066 438.515V371.709L273.922 405.111L216.066 438.515ZM234.773 491.999C229.266 491.999 224.773 496.491 224.773 501.999C224.773 507.507 229.266 511.999 234.773 511.999C240.285 511.999 244.773 507.507 244.773 501.999C244.773 496.491 240.285 491.999 234.773 491.999Z" fill="#59C1FF"/>
</svg>
