<svg width="512" height="479" viewBox="0 0 512 479" fill="none" xmlns="http://www.w3.org/2000/svg">
<path d="M408.491 4.89545C408.505 4.66324 408.505 4.43043 408.491 4.19821L408.212 3.59162L407.885 2.9859L407.466 2.37931V2.05248L406.346 1.25938L405.831 0.837551L405.086 0.605721L404.529 0.278893L403.875 0H107.349L106.647 0.278893L106.089 0.557786L105.483 0.932549L104.968 1.35089L104.454 1.8651V2.19193L104.036 2.79852L103.709 3.40424L103.43 4.00996C103.417 4.24246 103.417 4.47556 103.43 4.70807V5.31379C103.417 5.56344 103.417 5.81366 103.43 6.06331V217.773C103.417 218.021 103.417 218.27 103.43 218.518V219.125C103.416 219.36 103.416 219.591 103.43 219.825L103.709 220.432L104.036 221.038L104.454 221.643V221.97L105.108 222.577L105.527 222.952L106.32 223.417L106.743 223.649L107.815 224.024H108.094C108.574 224.074 109.061 224.074 109.541 224.024H401.728C402.208 224.074 402.692 224.074 403.172 224.024H403.455L404.527 223.649L404.945 223.417L405.739 222.951L406.157 222.576L406.811 221.97V221.643L407.229 221.038L407.557 220.432L407.836 219.825C407.853 219.59 407.853 219.359 407.836 219.125V218.518C407.853 218.274 407.853 218.021 407.836 217.773V6.24982C407.853 6.00027 407.853 5.74985 407.836 5.5003C407.836 5.5003 408.538 5.08196 408.49 4.89458L408.491 4.89545ZM382.692 13.6213L367.344 26.636H144.251L128.903 13.6213H382.692ZM394.73 202.286L377.095 187.123V36.9011L394.917 21.785L394.73 202.286ZM324.145 128.852C318.684 144.577 313.554 159.41 300.396 162.91C277.677 169.208 266.807 164.54 247.119 156.472C236.448 151.916 225.548 147.914 214.464 144.482C185.304 135.712 162.491 152.881 148.496 170.42V40.6321H363.099V85.5601C338.373 87.8923 330.441 110.471 324.145 128.851V128.852ZM363.099 99.6485V183.203H156.66C165.477 170.093 183.997 149.752 210.266 157.684C220.969 160.982 231.494 164.828 241.801 169.208C262.047 177.512 276.698 183.531 303.943 176.3C324.285 170.887 331.189 150.92 337.347 133.284C344.017 114.158 349.104 101.701 363.099 99.6485ZM117.052 202.286V21.7371L134.501 36.9011V187.123L117.052 202.286ZM129.087 210.402L144.251 197.199H367.344L382.696 210.215L129.087 210.402ZM6.99935 478.748H504.599C506.454 478.747 508.233 478.009 509.544 476.698C510.856 475.386 511.594 473.607 511.595 471.752C511.595 467.888 508.459 464.753 504.599 464.753H471.147V301.467C485.527 290.117 487.985 269.257 476.635 254.88C465.284 240.5 444.425 238.042 430.048 249.392C415.668 260.743 413.21 281.602 424.56 295.982C426.17 298.018 428.011 299.859 430.048 301.467V322.506C405.744 333.402 379.362 338.882 352.73 338.569C326.097 338.255 299.852 332.154 275.811 320.689V301.654C290.189 290.303 292.65 269.445 281.3 255.068C269.946 240.687 249.091 238.23 234.71 249.58C220.333 260.93 217.875 281.789 229.226 296.17C230.835 298.205 232.676 300.045 234.71 301.654V321.761C210.526 332.414 184.329 337.725 157.905 337.331C131.481 336.937 105.454 330.847 81.5981 319.477V301.654C95.975 290.303 98.4327 269.445 87.0827 255.068C75.7326 240.687 54.8731 238.23 40.4962 249.58C26.1192 260.93 23.6606 281.789 35.0116 296.17C36.619 298.206 38.4598 300.047 40.4962 301.654V464.938H6.99848C5.14204 464.939 3.36196 465.678 2.04959 466.991C0.737226 468.304 -2.30094e-07 470.084 0 471.94C0 475.801 3.13581 478.936 6.99935 478.936V478.748ZM54.4443 464.753V308.188C58.7672 309.06 63.2277 309.06 67.5549 308.188V464.752L54.4443 464.753ZM248.706 464.753V308.188C253.029 309.06 257.489 309.06 261.816 308.188V464.752L248.706 464.753ZM444.044 464.753V308.188C448.367 309.06 452.827 309.06 457.15 308.188V464.752L444.044 464.753ZM450.621 256.448C461.209 256.448 469.795 265.033 469.795 275.621C469.795 286.212 461.209 294.799 450.621 294.799C440.03 294.799 431.443 286.212 431.443 275.621C431.467 265.061 440.009 256.498 450.574 256.448H450.621ZM275.812 336.319C300.101 346.907 326.269 352.508 352.763 352.788C379.257 353.068 405.538 348.022 430.045 337.95V346.066C405.742 356.962 379.36 362.442 352.728 362.128C326.097 361.814 299.852 355.713 275.812 344.248V336.319ZM275.812 359.643C300.101 370.231 326.268 375.832 352.763 376.112C379.257 376.393 405.537 371.348 430.045 361.277V464.708H275.812V359.643ZM255.239 256.448C265.827 256.448 274.413 265.033 274.413 275.621C274.413 286.212 265.827 294.799 255.239 294.799C244.648 294.799 236.061 286.212 236.061 275.621C236.086 265.044 244.658 256.471 255.239 256.448ZM81.5501 334.965C105.655 345.483 131.613 351.094 157.91 351.47C184.206 351.846 210.315 346.981 234.71 337.157V345.277C210.526 355.93 184.327 361.241 157.903 360.846C131.478 360.451 105.45 354.36 81.5946 342.989L81.5501 334.965ZM81.5501 358.291C105.655 368.809 131.613 374.42 157.91 374.796C184.206 375.173 210.314 370.307 234.71 360.484V464.8H81.5501V358.291ZM61.0218 256.448C71.6128 256.448 80.1957 265.033 80.1957 275.621C80.1957 286.212 71.6128 294.799 61.0218 294.799C50.43 294.799 41.8479 286.212 41.8479 275.621C41.8715 265.044 50.4404 256.471 61.0218 256.448Z" fill="#59C1FF"/>
<path d="M268.256 59.9941C248.829 59.9941 233.078 75.7464 233.078 95.1722C233.078 114.598 248.83 130.348 268.256 130.348C287.682 130.348 303.432 114.598 303.432 95.1722C303.404 75.7533 287.671 60.0212 268.256 59.9941ZM268.256 116.351C256.562 116.351 247.078 106.867 247.078 95.1722C247.078 83.4743 256.562 73.9893 268.256 73.9893C279.95 73.9893 289.435 83.4743 289.435 95.1722C289.435 106.877 279.961 116.368 268.256 116.399V116.351Z" fill="#59C1FF"/>
</svg>
