<svg width="488" height="491" viewBox="0 0 488 491" fill="none" xmlns="http://www.w3.org/2000/svg">
<path d="M411.234 136.887H336.157C320.142 101.661 284.699 77.0586 243.548 77.0586C202.395 77.0586 166.952 101.661 150.937 136.887H90.4642V136.882H76.9242C75.2382 136.882 73.5912 137.056 72.0012 137.384C60.8812 139.664 52.4912 149.524 52.4912 161.309V381.035C52.4912 394.501 63.4472 405.457 76.9132 405.457H201.524L187.961 454H161.304C151.126 454 142.844 462.282 142.844 472.462C142.844 482.638 151.126 490.919 161.304 490.919H326.845C337.023 490.919 345.305 482.637 345.305 472.462C345.305 462.282 337.023 454 326.845 454H300.19L286.626 405.457H411.236C424.702 405.457 435.658 394.501 435.658 381.035V161.309C435.656 147.843 424.7 136.887 411.234 136.887ZM335.433 173.999H293.347C292.547 137.582 282.812 106.745 268.347 90.1716C305.631 100.621 333.348 133.936 335.433 173.999ZM335.433 183.625C333.348 223.692 305.631 257.009 268.346 267.457C282.811 250.884 292.547 220.043 293.347 183.625H335.433ZM248.36 87.4446C267.336 92.8906 282.67 129.886 283.726 173.999H248.36V87.4446ZM248.36 183.625H283.726C282.67 227.738 267.336 264.736 248.36 270.183V183.625ZM238.734 87.4446V173.999H203.368C204.424 129.886 219.758 92.8906 238.734 87.4446ZM238.734 183.625V270.183C219.758 264.736 204.424 227.738 203.368 183.625H238.734ZM218.747 90.1716C204.282 106.745 194.547 137.582 193.747 173.999H151.659C153.744 133.936 181.463 100.621 218.747 90.1716ZM193.747 183.625C194.547 220.043 204.283 250.884 218.748 267.457C181.463 257.009 153.744 223.692 151.659 183.625H193.747ZM243.547 280.57C299.655 280.57 345.302 234.922 345.302 178.812C345.302 176.537 345.108 174.31 344.96 172.072H386.722C394.014 172.072 399.948 178.004 399.948 185.293V332.985C399.948 340.28 394.014 346.211 386.722 346.211H100.372C93.0802 346.211 87.1462 340.279 87.1462 332.985V185.294C87.1462 178.004 93.0802 172.073 100.372 172.073H142.131C141.983 174.311 141.789 176.538 141.789 178.813C141.789 234.922 187.437 280.57 243.547 280.57ZM326.843 463.626C331.715 463.626 335.677 467.588 335.677 472.462C335.677 477.331 331.715 481.294 326.843 481.294H161.302C156.43 481.294 152.468 477.332 152.468 472.462C152.468 467.588 156.43 463.626 161.302 463.626H326.843ZM290.189 453.981H197.958L211.513 405.457H225.919V415.825C225.919 425.836 234.062 433.982 244.073 433.982C254.082 433.982 262.225 425.837 262.225 415.825V405.457H276.631L290.189 453.981ZM235.545 415.826V405.458H252.599V415.826C252.599 420.531 248.773 424.357 244.073 424.357C239.371 424.356 235.545 420.53 235.545 415.826ZM426.03 381.035C426.03 389.194 419.393 395.831 411.234 395.831C345.95 395.803 91.0832 395.831 90.4632 395.831V395.817H76.9232C68.7752 395.817 62.1482 389.19 62.1482 381.04V161.332C62.1482 154.184 67.2172 148.202 73.9372 146.813C74.9158 146.612 75.9123 146.511 76.9112 146.512H147.132C145.405 151.653 144.12 156.978 143.23 162.445H100.371C87.7702 162.445 77.5192 172.696 77.5192 185.292V332.984C77.5192 345.585 87.7702 355.836 100.371 355.836H386.722C399.323 355.836 409.574 345.585 409.574 332.984V185.294C409.574 172.698 399.323 162.447 386.722 162.447H343.861C342.971 156.98 341.686 151.654 339.959 146.514H411.233C419.392 146.514 426.029 153.151 426.029 161.31V381.035H426.03Z" fill="#13C4A1"/>
<path d="M410.143 0C367.713 0 333.192 27.472 333.192 61.243C333.192 73.412 337.608 85.087 345.983 95.117C345.513 96.847 344.131 100.955 340.075 110.078C338.667 113.246 339.393 116.813 341.929 119.168C344.462 121.523 348.077 121.993 351.12 120.357C363.698 113.626 367.954 113.015 368.877 112.973C381.189 119.196 395.447 122.486 410.142 122.486C452.572 122.486 487.09 95.014 487.09 61.243C487.09 27.472 452.574 0 410.143 0ZM410.143 112.86C396.802 112.86 383.907 109.861 372.847 104.188C371.888 103.699 370.73 103.342 369.087 103.342C365.75 103.342 360.422 104.823 350.747 109.701C356.935 95.281 356.625 92.649 354.465 90.214C346.846 81.641 342.818 71.625 342.818 61.242C342.818 32.783 373.019 9.625 410.143 9.625C447.265 9.625 477.465 32.783 477.465 61.242C477.465 89.701 447.265 112.86 410.143 112.86Z" fill="#13C4A1"/>
<path d="M410.15 59.711C420.22 59.711 428.412 51.519 428.412 41.451C428.412 31.369 420.22 23.167 410.15 23.167C400.071 23.167 391.871 31.369 391.871 41.451C391.872 51.518 400.071 59.711 410.15 59.711ZM410.15 32.793C414.911 32.793 418.786 36.675 418.786 41.451C418.786 46.212 414.911 50.085 410.15 50.085C405.379 50.085 401.497 46.212 401.497 41.451C401.497 36.675 405.38 32.793 410.15 32.793ZM410.143 60.646C393.427 60.646 379.369 72.603 376.713 89.082C376.511 90.3389 376.585 91.6247 376.929 92.8502C377.274 94.0757 377.881 95.2116 378.708 96.179C379.544 97.1641 380.585 97.9553 381.758 98.4976C382.931 99.0398 384.208 99.3201 385.5 99.319H434.783C436.075 99.3201 437.352 99.0398 438.525 98.4976C439.698 97.9553 440.739 97.1641 441.575 96.179C442.402 95.2116 443.009 94.0757 443.354 92.8502C443.698 91.6247 443.772 90.3389 443.57 89.082C440.915 72.603 426.857 60.646 410.143 60.646ZM386.384 89.693C388.645 78.384 398.492 70.272 410.143 70.272C421.792 70.272 431.639 78.384 433.9 89.693H386.384ZM118.213 112.973C119.139 113.015 123.395 113.626 135.972 120.357C139.025 121.997 142.632 121.523 145.163 119.168C147.696 116.813 148.423 113.246 147.015 110.078C142.959 100.955 141.577 96.847 141.107 95.117C149.483 85.082 153.898 73.412 153.898 61.243C153.898 27.473 119.38 0 76.95 0C34.52 0 0 27.473 0 61.243C0 95.013 34.52 122.486 76.951 122.486C91.648 122.486 105.906 119.196 118.213 112.973ZM9.626 61.243C9.626 32.784 39.827 9.626 76.951 9.626C114.073 9.626 144.273 32.784 144.273 61.243C144.273 71.626 140.247 81.642 132.626 90.219C130.469 92.649 130.158 95.281 136.344 109.701C121.912 102.42 117.151 102.698 114.239 104.192C103.187 109.86 90.294 112.859 76.951 112.859C39.827 112.86 9.626 89.702 9.626 61.243Z" fill="#13C4A1"/>
<path d="M76.942 59.712C87.021 59.712 95.223 51.52 95.223 41.452C95.223 31.37 87.021 23.168 76.942 23.168C66.872 23.168 58.68 31.37 58.68 41.452C58.679 51.519 66.872 59.712 76.942 59.712ZM76.942 32.794C81.715 32.794 85.597 36.676 85.597 41.452C85.597 46.213 81.715 50.086 76.942 50.086C72.181 50.086 68.306 46.213 68.306 41.452C68.305 36.676 72.18 32.794 76.942 32.794ZM108.381 96.18C109.209 95.2128 109.817 94.0771 110.162 92.8515C110.507 91.626 110.581 90.34 110.379 89.083C107.723 72.604 93.665 60.647 76.952 60.647C60.239 60.647 46.18 72.604 43.522 89.083C43.3197 90.34 43.3937 91.6261 43.7387 92.8517C44.0837 94.0773 44.6916 95.2131 45.52 96.18C46.3557 97.165 47.3959 97.9561 48.5684 98.4984C49.7408 99.0406 51.0173 99.321 52.309 99.32H101.595C102.886 99.3208 104.162 99.0404 105.334 98.4981C106.506 97.9558 107.546 97.1648 108.381 96.18ZM53.192 89.694C55.455 78.385 65.302 70.273 76.951 70.273C88.6 70.273 98.447 78.385 100.708 89.694H53.192Z" fill="#13C4A1"/>
</svg>
