<svg width="639" height="800" viewBox="0 0 639 800" xmlns="http://www.w3.org/2000/svg" >
<path d="M630.599 0H7.98045C3.57325 0 0 3.57325 0 7.98045V792.02C0 796.427 3.57325 800 7.98045 800H630.599C635.006 800 638.579 796.427 638.579 792.02V7.98045C638.579 3.57325 635.006 0 630.599 0ZM622.619 784.039H15.9609V15.9609H622.619V784.039Z" fill="#13C4A1"/>
<path d="M296.586 257.166C300.993 257.166 304.566 253.593 304.566 249.185V225.599L319.183 226.234C323.602 226.443 327.311 223.012 327.502 218.608C327.694 214.205 324.28 210.48 319.877 210.289L296.933 209.291C294.73 209.185 292.64 209.995 291.067 211.498C289.495 213.004 288.607 215.087 288.607 217.264V249.185C288.605 253.593 292.179 257.166 296.586 257.166Z" fill="#13C4A1"/>
<path d="M290.729 608.122C287.324 605.329 282.292 605.824 279.499 609.233C276.704 612.641 277.203 617.671 280.61 620.464L330.488 661.364C331.972 662.581 333.764 663.173 335.544 663.173C337.85 663.173 340.142 662.178 341.718 660.252C344.514 656.845 344.015 651.815 340.607 649.022L290.729 608.122Z" fill="#13C4A1"/>
<path d="M451.548 438.727C401.814 436.886 382.659 475.665 379.544 496.284L368.571 563.12C367.859 567.472 370.804 571.574 375.153 572.29C375.592 572.362 376.027 572.398 376.456 572.398C380.294 572.398 383.678 569.618 384.321 565.708L395.31 498.768C395.593 496.897 402.867 452.982 450.977 454.676C455.34 454.832 459.079 451.392 459.237 446.987C459.397 442.582 455.953 438.885 451.548 438.727Z" fill="#13C4A1"/>
<path d="M78.582 714.216C78.582 718.623 82.1553 722.197 86.5625 722.197H552.018C556.425 722.197 559.999 718.623 559.999 714.216V85.7859C559.999 81.3787 556.425 77.8054 552.018 77.8054H86.5625C82.1553 77.8054 78.582 81.3787 78.582 85.7859V714.216ZM233.876 327.422C229.528 339.921 229.943 357.556 230.699 367.903C212.32 371.312 170.934 387.884 152.593 467.136C146.988 474.136 138.886 481.606 130.339 489.485C118.263 500.613 105.177 512.686 94.5449 527.109V247.19H213.569C213.513 275.756 219.245 312.53 233.876 327.422ZM544.038 553.091C528.538 495.62 502.1 422.383 465.791 370.315C454.874 354.659 430.524 333.69 417.442 322.424L416.803 321.873C414.024 303.774 410.17 274.404 406.726 247.192H544.04V553.091H544.038ZM291.399 575.346C281.702 570.021 272.311 565.792 263.677 562.466C263.718 560.575 263.603 558.556 263.706 556.953C267.244 502.714 299.483 456.629 359.524 419.971C405.142 392.121 450.431 380.57 450.884 380.454C451.556 380.284 452.318 380.159 453.112 380.049C455.556 383.574 457.961 387.209 460.321 390.956C448.951 393.223 417.109 400.962 383.78 421.583C347.737 443.882 303.677 485.778 293.039 560.14C292.502 563.898 291.462 574.032 291.399 575.346ZM321.872 421.795C282.915 425.278 250.603 407.512 238.167 392.614C242.046 377.459 273.87 353.129 296.662 339.881C299.315 338.339 300.851 335.408 300.608 332.348L299.253 315.316C300.47 315.419 301.691 315.495 302.918 315.523L305.059 315.563C320.114 315.882 334.736 310.693 346.186 300.877L346.264 300.809L349.973 407.125C342.665 411.632 335.718 416.302 329.16 421.136C325.966 421.376 323.209 421.677 321.872 421.795ZM265.722 212.276C265.702 212.276 265.682 212.276 265.666 212.276L255.63 212.346L253.035 179.624C253.1 179.478 253.182 179.335 253.238 179.185C258.266 174.475 270.222 164.617 283.432 163.36C307.776 161.037 337.707 164.515 342.551 194.087L345.554 280.399L335.8 288.755C327.345 296.005 316.593 299.851 305.392 299.604L303.246 299.564C291.163 299.297 279.496 294.074 271.238 285.243C267.784 281.536 264.985 277.289 262.93 272.632C260.873 267.948 259.636 263.03 259.249 257.992L256.895 228.297L265.773 228.237C270.181 228.205 273.73 224.61 273.7 220.203C273.668 215.813 270.103 212.276 265.722 212.276ZM401.485 327.244C401.78 329.106 402.722 330.802 404.148 332.035L407.027 334.518C415.417 341.743 430.314 354.583 441.656 366.438C429.648 369.904 399.171 379.682 365.629 398.021L361.643 283.747C361.641 283.703 361.639 283.657 361.637 283.613L358.488 193.047C358.476 192.734 358.446 192.421 358.398 192.109C353.395 159.589 325.517 143.331 281.922 147.471C275.432 148.089 269.335 150.066 263.88 152.624C272.303 141.765 286.81 131.474 311.607 131.474C330.682 131.474 347.497 139.097 361.587 154.132C374.818 168.25 383.124 186.427 385.604 206.698C389.658 239.826 397.11 299.54 401.485 327.244ZM238.821 202.288L243.338 259.233C243.861 266.048 245.535 272.718 248.324 279.066C251.107 285.373 254.888 291.113 259.573 296.14C266.071 303.089 274.131 308.373 282.953 311.66L284.308 328.701C278.502 332.292 267.681 339.279 256.682 347.902C252.855 350.902 249.38 353.819 246.193 356.67C246.08 345.847 247.101 334.588 250.487 329.319C251.712 327.414 252.071 325.076 251.47 322.891C250.87 320.704 249.37 318.879 247.345 317.863C233.481 310.93 225.279 250.59 231.601 223.044C233.411 215.155 236.048 208.168 238.821 202.288ZM94.5429 706.236V559.487C103.83 535.66 123.628 517.374 141.153 501.222C147.84 495.061 154.245 489.136 159.715 483.24C167.889 483.683 189.331 486.295 195.222 501.479C198.293 515.946 204.168 528.515 212.741 538.646C214.319 540.51 216.572 541.471 218.838 541.471C220.66 541.471 222.489 540.851 223.99 539.584C227.354 536.737 227.772 531.701 224.927 528.336C195.378 493.415 215.207 433.927 215.411 433.328C216.839 429.163 214.623 424.628 210.457 423.195C206.271 421.761 201.746 423.981 200.314 428.147C200.076 428.841 194.464 445.365 193.042 467.004C192.842 470.038 192.758 473.013 192.744 475.944C184.758 471.303 175.838 469.103 168.777 468.075C182.2 412.797 207.039 393.414 223.333 386.631C222.436 389.334 221.931 391.966 221.833 394.525C221.765 396.277 222.278 398.001 223.287 399.433C230.793 410.067 244.402 420.276 260.624 427.445C271.635 432.309 288.097 437.592 308.379 438.147C271.396 471.836 250.652 511.866 247.781 555.914C247.76 556.259 247.722 556.614 247.678 556.971C231.196 551.986 219.886 550.625 218.717 550.497C216.975 550.304 215.185 550.697 213.675 551.621C204.978 556.935 199.123 565.229 196.743 575.604C194.552 585.156 195.541 595.846 199.262 605.076C191.633 608.583 182.978 610.379 176.139 611.306C159.568 582.549 176.528 568.467 178.663 566.861C182.194 564.276 182.984 559.322 180.423 555.762C177.849 552.185 172.859 551.377 169.284 553.949C159.057 561.311 145.674 581.593 157.93 610.516C149.237 607.105 135.706 597.526 138.004 571.093C139.002 559.623 142.894 551.136 149.578 545.871C160.687 537.112 176.502 539.347 176.716 539.382C181.035 540.039 185.127 537.092 185.819 532.751C186.514 528.395 183.545 524.307 179.194 523.615C178.27 523.466 156.527 520.19 139.842 533.222C129.473 541.322 123.506 553.598 122.103 569.708C117.489 622.788 162.68 628.167 163.135 628.213C163.414 628.243 194.546 628.105 214.286 614.947C214.631 614.718 222.428 610.037 222.428 610.037C223.776 611.787 225.578 614.042 227.711 616.583L196.17 633.165C193.546 634.543 191.902 637.265 191.902 640.227V664.169C191.902 668.576 195.476 672.149 199.883 672.149C204.29 672.149 207.863 668.576 207.863 664.169V645.048L238.813 628.775C242.929 632.945 247.634 637.313 252.831 641.584L225.582 649.525C223.208 650.217 221.292 651.969 220.387 654.269L209.414 682.201C207.799 686.305 209.82 690.935 213.922 692.545C214.88 692.924 215.87 693.1 216.839 693.1C220.026 693.1 223.034 691.179 224.269 688.036L233.81 663.752L269.327 653.403C275.117 656.951 281.281 660.133 287.797 662.639C288.739 663.002 289.707 663.173 290.658 663.173C293.865 663.173 296.889 661.226 298.108 658.056C299.69 653.942 297.639 649.325 293.523 647.743C257.53 633.897 233.66 599.192 233.429 598.851C231.479 595.972 227.896 594.683 224.564 595.661L213.972 598.775C211.59 592.62 210.892 585.322 212.302 579.169C213.501 573.946 216.017 569.788 219.8 566.773C233.299 568.978 291.997 581.122 335.55 630.539C337.129 632.329 339.329 633.243 341.542 633.243C343.415 633.243 345.299 632.586 346.815 631.249C350.121 628.335 350.44 623.293 347.525 619.985C344.766 616.855 341.945 613.894 339.096 611.037L398.614 600.233C400.511 600.018 423.599 597.807 438.001 616.214C439.576 618.227 441.922 619.277 444.292 619.277C446.012 619.277 447.744 618.724 449.204 617.581C452.675 614.864 453.288 609.848 450.571 606.378C430.023 580.125 397.68 584.245 396.31 584.436C396.198 584.452 396.088 584.47 395.974 584.49L324.214 597.514C318.588 592.889 312.902 588.704 307.23 584.929C307.308 580.711 307.35 575.7 307.587 573.122C307.972 568.95 308.465 564.846 309.069 560.808C317.156 506.709 344.912 464.576 391.699 435.449C429.552 411.887 466.412 406.047 467.034 405.951C467.491 405.884 468.245 405.788 469.103 405.668C513.71 484.503 541.492 596.784 544.04 633.544V706.23H94.5429V706.236ZM544.038 93.7663V231.23H404.719C403.502 221.473 402.383 212.402 401.449 204.758C398.554 181.104 388.796 159.824 373.234 143.217C356.006 124.832 335.273 115.511 311.607 115.511C260.143 115.511 240.404 153.745 236.99 174.534C231.839 181.242 221.173 197.141 216.045 219.466C215.289 222.758 214.699 226.754 214.28 231.228H94.5429V93.7643L544.038 93.7663Z" fill="#13C4A1"/>
</svg>
