<svg width="513" height="391" viewBox="0 0 513 391" fill="none" xmlns="http://www.w3.org/2000/svg">
<path d="M125 390.042C87.5 390.042 57 359.542 57 322.042C57 284.542 87.5 254.042 125 254.042C162.5 254.042 193 284.542 193 322.042C193 359.542 162.5 390.042 125 390.042ZM125 264.042C93 264.042 67 290.042 67 322.042C67 354.042 93 380.042 125 380.042C157 380.042 183 354.042 183 322.042C183 290.042 157 264.042 125 264.042Z" fill="#13C4A1"/>
<path d="M125 359.042C104.6 359.042 88 342.442 88 322.042C88 301.642 104.6 285.042 125 285.042C145.4 285.042 162 301.642 162 322.042C162 342.442 145.4 359.042 125 359.042ZM125 295.042C110.1 295.042 98 307.142 98 322.042C98 336.942 110.1 349.042 125 349.042C139.9 349.042 152 336.942 152 322.042C152 307.142 139.9 295.042 125 295.042ZM62 353.042H5C2.2 353.042 0 350.842 0 348.042V296.042C0 293.242 2.2 291.042 5 291.042H62C64.8 291.042 67 293.242 67 296.042V348.042C67 350.842 64.8 353.042 62 353.042ZM10 343.042H57V301.042H10V343.042Z" fill="#13C4A1"/>
<path d="M28 296.042H18V247.042C18 245.842 18.4 244.742 19.2 243.842C49.4 207.742 93.6 187.042 140.7 187.042H190.6L217 154.242C237.3 129.042 263.5 108.342 292.8 94.3424C322 80.3424 354.6 72.9424 387 72.9424V82.9424C323.7 82.9424 264.6 111.242 224.8 160.442L196.9 195.042C196 196.242 194.5 196.942 193 196.942H140.7C97.2 196.942 56.2 215.842 28 248.742V296.042Z" fill="#13C4A1"/>
<path d="M272.999 197.042H225.999C223.199 197.042 220.999 194.842 220.999 192.042V179.042C220.999 169.142 229.099 161.042 238.999 161.042H272.999C282.899 161.042 290.999 169.142 290.999 179.042C290.999 188.942 282.899 197.042 272.999 197.042ZM230.999 187.042H272.999C277.399 187.042 280.999 183.442 280.999 179.042C280.999 174.642 277.399 171.042 272.999 171.042H238.999C234.599 171.042 230.999 174.642 230.999 179.042V187.042ZM58.9992 252.042H22.9992C21.0992 252.042 19.2992 250.942 18.4992 249.142C17.6992 247.342 17.8992 245.342 19.1992 243.842C32.8992 227.442 52.9992 218.042 74.3992 218.042H82.9992C85.7992 218.042 87.9992 220.242 87.9992 223.042C87.9992 239.042 74.9992 252.042 58.9992 252.042ZM35.0992 242.042H58.9992C67.6992 242.042 75.0992 236.142 77.2992 228.042H74.2992C59.8992 228.042 46.0992 233.042 35.0992 242.042Z" fill="#13C4A1"/>
<path d="M472 390.042C471.1 390.042 470.2 389.842 469.4 389.342C467.9 388.442 467 386.842 467 385.042V344.742L447 334.542L427 344.742V385.042C427 386.742 426.1 388.442 424.6 389.342C423.1 390.242 421.3 390.342 419.7 389.542L393.4 376.042L398 367.142L417.1 376.942V341.742C417.1 339.842 418.2 338.142 419.8 337.242L444.8 324.442C446.2 323.742 447.9 323.742 449.4 324.442L474.4 337.242C476.1 338.142 477.1 339.842 477.1 341.742V376.942L502.1 364.142V308.842L469.8 292.342C468.1 291.442 467.1 289.742 467.1 287.842V102.242C467.1 100.342 468.2 98.6425 469.8 97.7425L502.1 81.2425V26.0425L477.1 13.2425V48.4425C477.1 50.3425 476 52.0425 474.4 52.9425L449.4 65.7425C448 66.4425 446.3 66.4425 444.8 65.7425L419.8 52.9425C418.1 52.0425 417.1 50.3425 417.1 48.4425V13.2425L392 26.0425V81.3425L424.3 97.8425C426 98.7425 427 100.442 427 102.342V287.942C427 289.842 425.9 291.542 424.3 292.442L392 308.842V321.042C392 323.842 389.8 326.042 387 326.042H386C384.7 330.442 382.9 334.642 380.8 338.642L390 347.842C390.9 348.742 391.5 350.042 391.5 351.342C391.5 352.642 391 353.942 390 354.842L368.8 376.042C366.8 378.042 363.7 378.042 361.7 376.042L352.5 366.842C348.5 368.942 344.3 370.742 339.9 372.042V385.042C339.9 387.842 337.7 390.042 334.9 390.042H304.9C302.1 390.042 299.9 387.842 299.9 385.042V372.042C295.5 370.742 291.3 368.942 287.3 366.842L278.1 376.042C276.1 378.042 273 378.042 271 376.042L250 354.842C248 352.842 248 349.742 250 347.742L259.2 338.542C257.1 334.542 255.3 330.342 254 325.942H241C238.2 325.942 236 323.742 236 320.942V290.942C236 288.142 238.2 285.942 241 285.942H254C255.3 281.542 257.1 277.342 259.2 273.342L250 264.142C248 262.142 248 259.042 250 257.042L271.2 235.842C273.2 233.842 276.3 233.842 278.3 235.842L287.5 245.042C291.5 242.942 295.7 241.142 300.1 239.842V226.842C300.1 224.042 302.3 221.842 305.1 221.842H335.1C337.9 221.842 340.1 224.042 340.1 226.842V239.842C344.5 241.142 348.7 242.942 352.7 245.042L361.9 235.842C363.9 233.842 367 233.842 369 235.842L390.2 257.042C391.1 257.942 391.7 259.242 391.7 260.542C391.7 261.842 391.2 263.142 390.2 264.042L381 273.242C383.1 277.242 384.9 281.442 386.2 285.842H399.2C402 285.842 404.2 288.042 404.2 290.842V291.242L417.2 284.542V105.342L384.9 88.8425C383.2 87.9425 382.2 86.2425 382.2 84.3425V22.9425C382.2 21.0425 383.3 19.3425 384.9 18.4425L419.9 0.542454C421.4 -0.257546 423.3 -0.157545 424.8 0.742455C426.3 1.64246 427.2 3.24245 427.2 5.04245V45.3425L447.2 55.5425L467.2 45.3425V5.04245C467.2 3.34245 468.1 1.64246 469.6 0.742455C471.1 -0.157545 472.9 -0.257546 474.5 0.542454L509.5 18.4425C511.2 19.3425 512.2 21.0425 512.2 22.9425V84.3425C512.2 86.2425 511.1 87.9425 509.5 88.8425L477 105.342V284.842L509.3 301.342C511 302.242 512 303.942 512 305.842V367.242C512 369.142 510.9 370.842 509.3 371.742L474.3 389.642C473.6 389.842 472.8 390.042 472 390.042ZM310 380.042H330V368.242C330 365.942 331.6 363.942 333.8 363.342C339.8 361.942 345.5 359.542 350.7 356.342C352.7 355.142 355.2 355.442 356.8 357.042L365.1 365.342L379.2 351.242L370.9 342.942C369.3 341.342 369 338.742 370.2 336.842C373.4 331.642 375.8 325.942 377.2 319.942C377.7 317.742 379.6 316.242 381.8 316.142V305.842C381.8 303.942 382.9 302.242 384.5 301.342L393.8 296.642V296.042H382C379.7 296.042 377.7 294.442 377.1 292.242C375.7 286.242 373.3 280.542 370.1 275.342C368.9 273.342 369.2 270.842 370.8 269.242L379.1 260.942L365 246.842L356.7 255.142C355.1 256.742 352.5 257.042 350.6 255.842C345.4 252.642 339.7 250.242 333.7 248.842C331.5 248.342 329.9 246.342 329.9 243.942V232.042H309.9V243.842C309.9 246.142 308.3 248.142 306.1 248.742C300.1 250.142 294.4 252.542 289.2 255.742C287.2 256.942 284.7 256.642 283.1 255.042L274.8 246.742L260.7 260.842L269 269.142C270.6 270.742 270.9 273.342 269.7 275.242C266.5 280.442 264.1 286.142 262.7 292.142C262.2 294.342 260.1 295.942 257.8 295.942H246V315.942H257.8C260.1 315.942 262.1 317.542 262.7 319.742C264.1 325.742 266.5 331.442 269.7 336.642C270.9 338.642 270.6 341.142 269 342.742L260.7 351.042L274.8 365.142L283.1 356.842C284.7 355.242 287.3 354.942 289.2 356.142C294.4 359.342 300.1 361.742 306.1 363.142C308.3 363.642 309.9 365.642 309.9 368.042V380.042H310ZM320 346.042C297.9 346.042 280 328.142 280 306.042C280 283.942 297.9 266.042 320 266.042C342.1 266.042 360 283.942 360 306.042C360 328.142 342.1 346.042 320 346.042ZM320 276.042C303.5 276.042 290 289.542 290 306.042C290 322.542 303.5 336.042 320 336.042C336.5 336.042 350 322.542 350 306.042C350 289.542 336.5 276.042 320 276.042Z" fill="#13C4A1"/>
<path d="M251.3 169.242L243.6 162.842L249.6 155.642C279.8 119.042 324.3 98.0425 371.8 98.0425H422V108.042H371.8C327.3 108.042 285.6 127.742 257.3 162.042L251.3 169.242ZM226 187.042H402V197.042H226V187.042ZM256.8 353.042H188C185.2 353.042 183 350.842 183 348.042V296.042C183 293.242 185.2 291.042 188 291.042H241V301.042H193V343.042H256.8V353.042ZM286.5 291.042H353.6V301.042H286.5V291.042Z" fill="#13C4A1"/>
</svg>
