<svg width="602" height="646" viewBox="0 0 602 646" fill="none" xmlns="http://www.w3.org/2000/svg">
<path d="M313.817 137.84C308.354 141.78 303.311 147.086 298.951 153.967C298.741 154.335 298.426 154.597 298.111 154.808C296.745 155.648 294.906 155.28 294.066 153.967C289.653 147.086 284.61 141.78 279.2 137.84C273.369 133.585 267.013 130.906 260.499 129.593H260.394C254.038 128.28 247.524 128.28 241.273 129.383C234.654 130.538 228.245 132.955 222.519 136.317C216.794 139.626 211.646 143.934 207.391 148.872C203.241 153.652 199.931 159.168 197.725 165.051C197.357 165.944 197.042 166.942 196.779 167.94C196.517 168.833 196.202 169.884 196.044 170.882C195.781 172.195 194.678 173.141 193.26 173.193C186.483 174.191 179.76 176.66 173.508 180.337C167.152 184.12 161.216 189.268 156.121 195.414C151.078 201.56 146.823 208.861 143.829 216.899C140.992 224.463 139.311 232.815 138.943 241.64C138.891 242.796 138.891 243.899 138.891 245.055C138.891 246.106 138.943 247.209 138.943 248.364C138.996 249.31 138.576 250.308 137.735 250.938C133.585 253.933 129.855 256.979 126.546 260.184C123.184 263.441 120.19 266.855 117.616 270.322C113.413 276.048 110.367 281.984 108.265 287.972C106.112 294.224 105.061 300.632 104.956 306.936C104.903 312.977 105.691 319.018 107.425 324.796C109.158 330.68 111.785 336.458 115.147 341.816C117.091 344.916 119.244 347.91 121.608 350.746C124.025 353.636 126.651 356.367 129.488 358.941C130.171 359.624 130.591 360.675 130.381 361.673C129.593 365.507 129.173 369.29 129.015 373.019C128.91 376.854 129.12 380.636 129.645 384.313C130.591 391.09 132.587 397.551 135.371 403.487C138.313 409.843 142.148 415.674 146.56 420.77C147.821 422.24 149.187 423.711 150.553 425.077L156.699 402.016C155.385 400.02 154.23 397.919 153.232 395.713C151.235 391.405 149.817 386.835 149.082 382.055V381.95C148.556 378.43 148.451 374.753 148.872 370.971C149.239 367.451 149.975 363.774 151.235 360.097L151.288 359.939C151.971 357.891 151.918 355.684 151.34 353.793L151.288 353.688C150.605 351.692 149.344 349.906 147.506 348.645L147.401 348.54C144.196 346.124 141.255 343.55 138.681 340.713C136.054 337.876 133.743 334.882 131.799 331.73C129.488 327.948 127.649 323.903 126.441 319.753C125.285 315.709 124.655 311.559 124.708 307.356C124.76 303.049 125.495 298.689 127.019 294.381C128.49 290.284 130.591 286.186 133.533 282.194C136.002 278.832 139.048 275.47 142.673 272.318C146.14 269.219 150.08 266.33 154.65 263.546C156.331 262.548 157.539 261.129 158.327 259.501L158.38 259.343C159.168 257.662 159.483 255.824 159.22 253.933C159.168 253.723 159.168 253.512 159.168 253.302V253.197C158.905 251.411 158.747 249.678 158.642 247.944C158.537 246.053 158.537 244.214 158.59 242.376C158.852 235.757 160.113 229.558 162.162 223.938C164.368 217.949 167.52 212.539 171.25 207.916C174.349 204.134 177.868 200.929 181.546 198.46C185.223 195.991 189.11 194.205 193.102 193.207C194.626 192.735 196.307 193.628 196.727 195.151C199.879 205.027 203.818 211.278 211.33 218.264L211.646 218.527C213.537 220.261 215.953 221.049 218.317 220.943C220.681 220.838 222.992 219.893 224.726 218.002L224.883 217.792C226.617 215.901 227.405 213.484 227.3 211.12C227.195 208.756 226.197 206.392 224.253 204.554C218.212 198.933 216.846 195.466 215.008 189.793C212.906 183.279 213.221 176.923 215.323 171.25C216.741 167.362 218.947 163.738 221.784 160.533C224.568 157.329 227.93 154.545 231.66 152.339L231.817 152.234C235.652 150.027 239.802 148.399 244.109 147.611C248.207 146.875 252.409 146.823 256.454 147.663C262.232 148.872 267.853 151.918 272.844 157.171C277.256 161.742 281.143 168.15 284.19 176.503L284.243 176.608C285.293 179.865 288.76 181.808 292.753 182.544C294.591 182.911 296.482 183.016 298.373 182.911H298.426C300.317 182.806 302.156 182.439 303.889 181.913C306.936 180.915 309.3 179.287 309.825 177.238V176.082C309.825 170.251 313.292 164 318.125 158.905C323.378 153.337 330.365 148.977 336.301 147.768C340.03 147.033 343.812 146.98 347.49 147.506C351.324 148.136 355.054 149.344 358.573 151.078L358.889 151.183C362.461 153.021 365.77 155.333 368.607 158.064C371.443 160.796 373.86 163.895 375.698 167.257C378.588 172.563 379.901 178.604 378.955 185.013C378.167 190.633 377.957 194.153 373.23 199.774L373.177 199.826C371.496 201.77 370.813 204.291 371.023 206.708C371.233 209.019 372.284 211.278 374.175 212.906L374.49 213.169C376.434 214.797 378.903 215.428 381.267 215.218C383.578 215.008 385.837 213.957 387.465 212.066L387.728 211.698C392.561 205.92 394.137 201.717 396.343 194.416C396.711 193.312 397.709 192.472 398.969 192.367C401.071 192.209 403.277 192.314 405.431 192.682C407.637 193.05 409.896 193.575 412.102 194.363C416.305 195.781 420.507 197.935 424.394 200.667C428.229 203.346 431.854 206.603 435.005 210.385L435.058 210.49C438.315 214.377 441.099 218.737 443.2 223.465C445.144 227.93 446.457 232.658 447.035 237.648C447.403 240.958 447.403 244.477 446.982 247.997C446.615 251.254 445.879 254.668 444.724 258.03L444.671 258.24C443.988 260.341 444.041 262.6 444.671 264.544C445.354 266.54 446.667 268.379 448.558 269.587L448.716 269.692C452.235 272.318 455.387 275.208 458.119 278.202C460.955 281.301 463.372 284.61 465.368 288.025C467.574 291.807 469.308 295.747 470.358 299.792C471.462 303.784 471.987 307.829 471.829 311.821C471.724 315.971 470.936 320.121 469.465 324.166C468.047 328.053 465.998 331.888 463.267 335.618L463.214 335.67C460.745 339.032 457.594 342.394 453.916 345.546C450.397 348.593 446.299 351.429 441.624 354.213L441.467 354.318C439.576 355.369 438.21 356.998 437.422 358.889C436.634 360.78 436.371 362.828 436.791 364.825L436.844 365.245C437.684 371.916 437.422 378.325 436.371 384.261L447.98 410.264C450.554 405.431 452.656 400.283 454.232 394.767C456.438 386.94 457.488 378.483 457.173 369.552C457.068 368.554 457.541 367.556 458.434 366.926C462.794 363.932 466.629 360.832 470.043 357.628C473.51 354.319 476.61 350.851 479.236 347.279C483.281 341.816 486.275 336.195 488.324 330.365C490.425 324.376 491.528 318.23 491.738 312.136C491.896 306.253 491.161 300.37 489.69 294.644C488.166 288.813 485.802 283.245 482.703 277.939L482.598 277.834C480.602 274.367 478.186 271.005 475.559 267.801C472.932 264.544 469.938 261.55 466.786 258.66C466.051 258.03 465.631 256.927 465.841 255.876C466.524 252.409 466.997 248.89 467.154 245.475C467.312 242.008 467.207 238.541 466.839 235.179C466.104 228.14 464.212 221.521 461.481 215.27C458.592 208.704 454.757 202.663 450.292 197.357C445.932 192.209 440.941 187.692 435.583 183.962C430.225 180.232 424.552 177.291 418.721 175.347L418.563 175.294C415.464 174.244 412.365 173.456 409.265 172.983H409.16C406.114 172.458 403.119 172.3 400.125 172.3C398.759 172.405 397.446 171.512 397.078 170.094C396.553 168.045 395.923 165.997 395.135 164.053C394.347 162.057 393.401 160.061 392.351 158.117C389.619 153.074 386.047 148.451 381.845 144.459C377.537 140.362 372.652 136.895 367.399 134.216C361.988 131.484 356.105 129.593 350.011 128.7C344.233 127.912 338.349 128.017 332.518 129.225C326.11 130.959 319.701 133.638 313.817 137.84ZM250.991 482.493C250.571 482.283 250.045 481.968 249.573 481.6C243.847 477.082 237.543 471.934 232.08 467.522C224.148 461.008 215.008 453.496 208.651 448.191C204.291 444.619 199.353 442.097 194.678 441.152C191.631 440.626 188.952 440.626 186.746 441.467C185.013 442.255 183.489 443.62 182.491 445.827C181.178 448.768 180.547 452.866 180.863 458.539C181.178 463.53 182.964 468.993 185.223 474.298C188.585 482.02 193.26 489.164 196.727 493.682C196.937 493.997 197.147 494.207 197.252 494.575L265.962 592.702C266.855 594.015 267.38 595.434 267.486 596.799C268.904 608.094 271.32 616.656 274.787 621.962C277.414 625.849 280.618 627.792 284.873 627.687H392.928C399.652 627.582 405.746 625.639 411.367 621.699C417.565 617.444 423.081 610.825 428.176 601.947C428.282 601.842 428.387 601.632 428.492 601.527C430.435 598.165 433.062 593.805 435.531 589.708C446.51 571.69 456.07 555.931 457.121 533.605L456.49 502.822C456.385 502.402 456.385 501.929 456.385 501.509C456.385 501.089 456.385 498.147 456.49 494.207C456.701 473.773 457.016 448.611 438.367 445.512H426.338C426.233 451.237 425.918 457.121 425.55 462.742C425.235 467.837 424.92 472.617 424.92 477.293C424.92 482.283 420.927 486.328 415.884 486.328C410.894 486.328 406.849 482.335 406.849 477.293C406.849 472.617 407.164 467.207 407.479 461.533C408.688 442.307 410.106 420.297 394.767 417.618H382.843C382.212 417.618 381.529 417.513 380.899 417.408C381.004 424.342 380.584 431.486 380.111 438.472C379.901 443.568 379.586 448.348 379.586 452.971C379.586 457.961 375.593 462.006 370.55 462.006C365.56 462.006 361.515 458.014 361.515 452.971C361.515 448.296 361.83 442.885 362.146 437.212C363.354 417.986 364.772 395.975 349.433 393.296H337.509C336.616 393.296 335.88 393.191 335.145 392.981V428.019C335.145 433.009 331.153 437.054 326.11 437.054C321.119 437.054 317.074 433.062 317.074 428.019V321.907C317.074 306.148 310.666 296.167 302.418 292.07C299.372 290.546 296.115 289.811 292.963 289.811C289.811 289.811 286.554 290.599 283.507 292.07C275.365 296.167 269.061 306.148 269.061 322.327V499.198C269.061 504.188 265.069 508.233 260.026 508.233C255.036 508.233 250.991 504.241 250.991 499.198V482.493ZM335.197 375.541C335.985 375.331 336.721 375.226 337.561 375.226H350.064C350.694 375.226 351.482 375.331 352.112 375.436C368.712 378.062 376.224 387.728 379.27 400.283C380.479 399.757 381.792 399.39 383.105 399.39H395.607C396.238 399.39 397.026 399.495 397.656 399.6C415.569 402.384 422.713 413.363 425.34 427.283C425.76 427.178 426.233 427.178 426.758 427.178H439.26C439.891 427.178 440.679 427.283 441.362 427.388C475.664 432.694 475.191 466.786 474.929 494.26V501.404L475.717 533.08V534.026C474.403 561.079 463.792 578.519 451.553 598.743C449.451 602.105 447.455 605.572 444.618 610.352C444.513 610.457 444.513 610.562 444.408 610.668C438 621.857 430.645 630.419 422.135 636.302C413.52 642.291 404.012 645.338 393.611 645.443H285.346C274.577 645.653 266.225 640.978 260.026 631.785C255.036 624.378 251.779 613.977 250.045 601.002L182.806 504.766L182.439 504.451C178.446 499.145 172.983 490.793 168.886 481.547C165.839 474.613 163.58 467.102 163.055 459.695C162.529 450.922 163.685 443.936 166.207 438.42C169.253 431.591 174.244 427.126 180.232 424.762C185.801 422.503 192.052 422.135 198.355 423.449C205.92 424.972 213.747 428.754 220.366 434.323C225.776 438.893 234.917 446.247 243.794 453.549L251.201 459.642V322.485C251.201 298.479 261.812 283.087 275.628 276.101C281.196 273.264 287.132 271.846 293.225 271.846C299.319 271.846 305.255 273.264 310.771 276.101C324.534 283.035 335.407 298.531 335.407 322.117V375.593L335.197 375.541ZM507.182 441.729C506.237 439.365 505.659 436.791 505.659 434.06C505.659 431.328 506.237 428.754 507.182 426.39C508.18 424.027 509.599 421.873 511.437 420.087L511.542 419.929C512.54 418.931 513.696 417.986 514.957 417.198C515.64 416.777 516.323 416.41 517.058 416.042V384.208H477.87C477.923 382.16 477.923 380.058 477.818 377.957C477.713 376.802 478.238 375.646 479.236 374.963C483.281 372.179 486.958 369.29 490.268 366.348H525.883C528.352 366.348 530.558 367.346 532.187 368.975C533.815 370.603 534.813 372.809 534.813 375.278V416.357C535.444 416.672 536.022 417.04 536.652 417.408C537.703 418.091 538.701 418.931 539.646 419.824L539.804 419.982C541.642 421.82 543.113 424.027 544.164 426.495C545.109 428.859 545.687 431.433 545.687 434.165C545.687 436.791 545.162 439.313 544.216 441.677L544.164 441.834C543.166 444.303 541.642 446.457 539.804 448.348C537.965 450.187 535.759 451.658 533.29 452.708C530.926 453.654 528.352 454.232 525.621 454.232C522.942 454.232 520.368 453.654 517.951 452.708C515.482 451.71 513.276 450.187 511.437 448.348C509.704 446.405 508.233 444.198 507.182 441.729ZM563.968 339.505H510.702C511.595 337.561 512.435 335.565 513.118 333.569C514.537 329.629 515.535 325.637 516.165 321.645H563.968C564.336 320.962 564.651 320.331 565.071 319.701C565.806 318.493 566.752 317.39 567.698 316.444C569.589 314.553 571.742 313.135 574.211 312.084C576.575 311.138 579.149 310.561 581.881 310.561C584.507 310.561 587.029 311.086 589.393 312.031L589.55 312.084C592.019 313.082 594.173 314.605 596.064 316.444C597.903 318.283 599.373 320.489 600.424 322.958C601.37 325.322 601.947 327.896 601.947 330.627C601.947 333.306 601.37 335.88 600.424 338.297C599.426 340.766 597.903 342.972 596.064 344.81C594.225 346.649 592.019 348.12 589.55 349.171C587.186 350.116 584.612 350.694 581.881 350.694C579.254 350.694 576.733 350.169 574.369 349.223L574.211 349.171C571.742 348.172 569.589 346.649 567.698 344.81C566.752 343.865 565.859 342.814 565.124 341.606L565.018 341.449C564.651 340.818 564.283 340.188 563.968 339.505ZM580.883 290.651H513.906C512.173 284.978 509.756 279.515 506.762 274.262L506.657 274.104C506.394 273.632 506.132 273.264 505.922 272.791H572.058V214.482C571.532 214.167 571.06 213.852 570.534 213.537C569.536 212.854 568.591 212.066 567.75 211.225C565.912 209.387 564.441 207.18 563.39 204.712C562.445 202.348 561.867 199.774 561.867 197.042C561.867 194.363 562.445 191.736 563.39 189.373C564.388 186.904 565.912 184.75 567.75 182.859C569.589 181.02 571.795 179.549 574.264 178.499C576.628 177.553 579.202 176.975 581.933 176.975C584.612 176.975 587.186 177.553 589.603 178.499C592.072 179.497 594.278 181.02 596.117 182.859C597.955 184.697 599.426 186.904 600.477 189.373C601.422 191.736 602 194.31 602 197.042C602 199.669 601.475 202.19 600.529 204.554L600.477 204.712C599.479 207.18 597.955 209.334 596.117 211.225C595.013 212.328 593.7 213.327 592.334 214.22C591.599 214.692 590.706 215.113 589.918 215.48V281.721C589.918 284.19 588.92 286.397 587.291 288.025C585.61 289.653 583.404 290.651 580.883 290.651ZM510.912 247.524H488.114C488.744 244.214 489.059 240.853 489.217 237.543C489.322 234.864 489.322 232.238 489.164 229.664H501.982V203.293C501.299 202.925 500.616 202.61 499.986 202.138C498.777 201.402 497.674 200.457 496.624 199.406C494.785 197.567 493.314 195.361 492.264 192.892C491.318 190.528 490.74 187.954 490.74 185.275C490.74 182.596 491.318 180.022 492.264 177.606C493.262 175.242 494.68 173.088 496.466 171.25L496.624 171.092C498.462 169.253 500.669 167.783 503.138 166.732C505.501 165.786 508.075 165.209 510.807 165.209C513.539 165.209 516.113 165.786 518.476 166.732C520.84 167.73 522.994 169.148 524.833 170.987L524.99 171.092C526.829 172.931 528.247 175.032 529.298 177.448L529.35 177.606C530.296 179.97 530.874 182.544 530.874 185.275C530.874 187.954 530.296 190.581 529.35 192.945C528.352 195.309 526.934 197.515 525.148 199.301L524.99 199.458C524.045 200.404 522.994 201.297 521.786 202.085C521.156 202.505 520.578 202.82 519.895 203.136V238.594C519.895 241.063 518.897 243.269 517.268 244.897C515.587 246.526 513.328 247.524 510.912 247.524ZM157.119 94.7651C159.483 95.7107 162.057 96.2885 164.788 96.2885C167.52 96.2885 170.094 95.7107 172.458 94.7651C174.822 93.767 177.028 92.3487 178.761 90.5101L178.919 90.4051C179.917 89.407 180.863 88.2513 181.651 86.9906C182.071 86.3077 182.439 85.6248 182.806 84.8894H214.64V112.415C220.261 109.421 226.302 107.267 232.5 106.007V75.9592C232.5 73.4902 231.502 71.2839 229.874 69.6555C228.245 68.0271 226.039 67.029 223.57 67.029H182.491C182.176 66.3986 181.861 65.8208 181.44 65.1904C180.758 64.1398 179.917 63.1417 179.024 62.1962L178.866 62.0386C177.028 60.2 174.822 58.7291 172.353 57.6785C169.989 56.733 167.415 56.1551 164.683 56.1551C162.057 56.1551 159.483 56.6805 157.171 57.626L157.014 57.6785C154.545 58.6766 152.391 60.2 150.5 62.0386C148.661 63.8771 147.191 66.0834 146.14 68.5524C145.194 70.9162 144.617 73.4902 144.617 76.2218C144.617 78.9009 145.194 81.4749 146.14 83.8913C147.138 86.3602 148.661 88.5665 150.5 90.4051C152.496 92.2436 154.65 93.7145 157.119 94.7651ZM259.396 38.0321V107.005C265.332 108.738 271.163 111.47 276.626 115.357L277.256 115.83C277.256 115.672 277.309 115.515 277.309 115.357V38.0321C277.939 37.6644 278.622 37.3492 279.252 36.929C280.461 36.1935 281.564 35.248 282.509 34.3024C284.348 32.4113 285.819 30.2576 286.869 27.7887C287.815 25.4248 288.393 22.8508 288.393 20.1192C288.393 17.4927 287.867 14.9712 286.922 12.6073L286.869 12.4497C285.871 9.9808 284.348 7.82705 282.509 5.93595C280.671 4.09738 278.464 2.62653 275.995 1.57592C273.632 0.630367 271.058 0.0525305 268.326 0.0525305C265.647 0.0525305 263.073 0.630367 260.657 1.57592C258.188 2.574 255.981 4.09738 254.143 5.93595C252.304 7.77452 250.833 9.9808 249.783 12.4497C248.837 14.8136 248.259 17.3876 248.259 20.1192C248.259 22.7457 248.785 25.2672 249.73 27.6311L249.783 27.7887C250.781 30.2576 252.304 32.4113 254.143 34.3024C255.088 35.248 256.139 36.141 257.347 36.8764L257.452 36.929C258.083 37.2967 258.713 37.6644 259.396 38.0321ZM308.197 21.0647V121.923C310.613 119.454 313.187 117.301 315.814 115.357C319.071 112.993 322.538 110.997 326.057 109.526V29.9424H384.366C384.681 30.4677 384.996 30.9405 385.312 31.4658C385.994 32.4639 386.782 33.4094 387.623 34.2499C389.461 36.0885 391.668 37.5593 394.137 38.6099C396.501 39.5555 399.075 40.1333 401.806 40.1333C404.485 40.1333 407.112 39.5555 409.476 38.6099C411.944 37.6119 414.151 36.0885 415.989 34.2499C417.828 32.4113 419.299 30.2051 420.349 27.7361C421.295 25.3723 421.873 22.7983 421.873 20.0667C421.873 17.3876 421.295 14.8136 420.349 12.3972C419.351 9.92827 417.828 7.72199 415.989 5.88342C414.046 4.04485 411.839 2.574 409.371 1.52339C407.059 0.577836 404.485 0 401.806 0C399.18 0 396.658 0.525305 394.294 1.47086L394.137 1.52339C391.668 2.52147 389.514 4.04485 387.623 5.88342C386.52 6.98656 385.522 8.29983 384.629 9.66562C384.156 10.401 383.736 11.2941 383.368 12.082H317.179C314.71 12.082 312.504 13.0801 310.876 14.7086C309.247 16.337 308.197 18.5958 308.197 21.0647ZM351.324 91.088V104.903C353.163 105.009 355.001 105.166 356.84 105.481C361.095 106.112 365.245 107.162 369.185 108.633V100.123H395.555C395.923 100.806 396.238 101.489 396.711 102.119C397.446 103.328 398.392 104.431 399.442 105.481C401.281 107.32 403.487 108.791 405.956 109.841C408.32 110.787 410.894 111.365 413.573 111.365C416.252 111.365 418.826 110.787 421.242 109.841C423.606 108.843 425.813 107.425 427.599 105.639L427.756 105.481C429.595 103.643 431.066 101.436 432.116 98.9675C433.062 96.6037 433.64 94.0297 433.64 91.2981C433.64 88.5665 433.062 85.9925 432.116 83.6286C431.118 81.2647 429.7 79.0585 427.861 77.2724L427.756 77.1148C425.918 75.2763 423.816 73.8579 421.4 72.8073L421.242 72.7548C418.879 71.8093 416.305 71.2314 413.573 71.2314C410.894 71.2314 408.267 71.8093 405.903 72.7548C403.54 73.7529 401.386 75.1712 399.547 76.9572L399.39 77.1148C398.444 78.0604 397.551 79.111 396.763 80.3717C396.343 81.0021 396.028 81.5799 395.713 82.2628H360.254C357.786 82.2628 355.579 83.2609 353.951 84.8894C352.322 86.3602 351.324 88.5665 351.324 91.088ZM94.7651 177.658C95.7107 180.022 96.2885 182.596 96.2885 185.328C96.2885 188.059 95.7107 190.633 94.7651 192.997C93.767 195.361 92.3487 197.515 90.5101 199.301L90.4051 199.458C89.407 200.457 88.2513 201.402 86.9906 202.19C86.3077 202.61 85.6248 202.978 84.8894 203.346V235.179H117.931V236.755C117.931 237.963 117.984 239.224 118.036 240.537C118.141 241.64 117.616 242.744 116.67 243.479C112.31 246.578 108.423 249.783 104.903 253.092H76.0117C73.5428 253.092 71.3365 252.094 69.708 250.466C68.0796 248.837 67.0815 246.631 67.0815 244.162V203.083C66.4511 202.768 65.8733 202.4 65.2429 202.032C64.1923 201.35 63.1942 200.509 62.2487 199.616L62.0911 199.458C60.2525 197.62 58.7817 195.414 57.7311 192.945C56.7855 190.581 56.2077 188.007 56.2077 185.275C56.2077 182.649 56.733 180.127 57.6785 177.763L57.7836 177.606C58.7817 175.137 60.3051 172.983 62.1436 171.092C63.9822 169.253 66.1885 167.783 68.6574 166.732C71.0213 165.786 73.5953 165.209 76.3269 165.209C79.0059 165.209 81.5799 165.786 83.9963 166.732C86.4653 167.73 88.6716 169.253 90.5101 171.092C92.2436 172.983 93.7145 175.189 94.7651 177.658ZM38.0321 279.883H85.4672C84.6792 281.721 83.9438 283.56 83.3134 285.398C81.8951 289.496 80.897 293.593 80.2667 297.691H38.0321C37.6644 298.373 37.3492 299.004 36.929 299.634C36.1935 300.842 35.248 301.946 34.3024 302.891C32.4113 304.782 30.2576 306.201 27.7887 307.251C25.4248 308.197 22.8508 308.775 20.1192 308.775C17.4927 308.775 14.9712 308.249 12.6073 307.304H12.3972C9.92827 306.306 7.77452 304.782 5.88342 302.944C4.04485 301.105 2.574 298.899 1.52339 296.43C0.577836 294.066 0 291.492 0 288.76C0 286.081 0.577836 283.507 1.52339 281.091C2.52147 278.622 4.04485 276.416 5.88342 274.577C7.72199 272.739 9.92827 271.268 12.3972 270.217C14.7611 269.272 17.3351 268.694 20.0667 268.694C22.6932 268.694 25.2147 269.219 27.5785 270.165L27.7361 270.217C30.2051 271.215 32.3588 272.739 34.2499 274.577C35.1955 275.523 36.0885 276.573 36.8239 277.782L36.929 277.939C37.2967 278.569 37.6644 279.252 38.0321 279.883ZM21.0647 328.789H82.7881C84.7318 334.882 87.4634 340.818 91.0354 346.386V346.439L91.1405 346.649H29.9424V404.958C30.4677 405.273 30.9405 405.588 31.4658 405.903C32.4639 406.586 33.4094 407.374 34.2499 408.215C36.0885 410.053 37.5593 412.26 38.6099 414.729C39.5555 417.092 40.1333 419.667 40.1333 422.398C40.1333 425.077 39.5555 427.704 38.6099 430.068C37.6119 432.536 36.0885 434.69 34.2499 436.581C32.4113 438.42 30.2051 439.891 27.7361 440.941C25.3723 441.887 22.7983 442.465 20.0667 442.465C17.3876 442.465 14.8136 441.887 12.3972 440.941C9.92827 439.943 7.72199 438.42 5.88342 436.581C4.04485 434.638 2.574 432.379 1.52339 429.962C0.577836 427.599 0 425.025 0 422.293C0 419.666 0.525305 417.145 1.47086 414.781L1.52339 414.624C2.52147 412.155 4.04485 410.001 5.88342 408.11C6.98656 407.007 8.29983 406.009 9.66562 405.116C10.401 404.643 11.2941 404.223 12.082 403.855V337.666C12.082 335.197 13.0801 332.991 14.7086 331.363C16.337 329.787 18.5958 328.789 21.0647 328.789ZM91.088 371.864H107.74C107.162 375.173 106.9 378.483 106.795 381.687C106.69 384.419 106.742 387.098 106.952 389.724H100.018V416.094C100.701 416.462 101.384 416.777 102.014 417.25C103.223 417.986 104.326 418.931 105.376 419.982C107.215 421.82 108.686 424.027 109.736 426.495C110.682 428.859 111.26 431.433 111.26 434.165C111.26 436.897 110.682 439.418 109.736 441.834C108.738 444.198 107.32 446.352 105.534 448.191L105.376 448.348C103.538 450.187 101.331 451.658 98.8625 452.708C96.4986 453.654 93.9246 454.232 91.193 454.232C88.4614 454.232 85.8874 453.654 83.5236 452.708C81.1597 451.71 79.0059 450.292 77.1674 448.453L77.0098 448.348C75.1712 446.51 73.7529 444.408 72.7023 441.992L72.6497 441.834C71.7042 439.471 71.1264 436.897 71.1264 434.165C71.1264 431.486 71.7042 428.859 72.6497 426.495C73.6478 424.132 75.0661 421.978 76.8522 420.139L77.0098 419.982C77.9553 419.036 79.0059 418.143 80.2141 417.355C80.8445 416.935 81.4223 416.62 82.1052 416.305V380.846C82.1052 378.377 83.1033 376.171 84.7318 374.543C86.3602 372.809 88.5665 371.864 91.088 371.864Z" fill="#13C4A1"/>
</svg>
