<svg width="510" height="512" viewBox="0 0 510 512" fill="none" xmlns="http://www.w3.org/2000/svg">
<path d="M499.029 457.522C491.118 448.246 479.458 443.01 467.343 442.656C447.499 441.074 435.861 417.973 446.643 401.083L498.71 319.521C512.028 298.661 503.804 271.162 482.508 259.552C485.898 254.23 488.113 250.644 488.85 249.245C497.977 231.912 491.12 209.846 473.786 200.728C456.254 191.505 434.479 198.259 425.251 215.784C424.646 216.932 423.363 219.736 421.521 223.906L406.556 215.368C396.381 209.611 391.864 196.982 397.846 186.402C402.59 178.007 389.609 170.668 384.861 179.061C375.095 196.338 381.809 219.113 399.268 228.382L415.539 237.665C406.736 258.118 393.105 290.398 378.373 325.475C367.946 306.724 357.381 288.02 352.67 266.876C340.676 213.049 368.057 162.241 396.423 119.637C404.162 108.014 405.789 97.1945 401.261 87.4763C390.526 64.4374 347.806 56.8638 311.788 52.8389C290.736 50.4864 289.829 36.6507 289.829 19.0596C289.829 -6.40438 219.234 -6.30197 219.234 19.0596C219.234 35.9378 218.949 50.4585 198.243 52.7007C160.746 56.7515 116.368 64.3469 105.939 87.3241C103.112 93.5524 101.654 103.709 110.767 116.719C128.227 141.646 140.567 164.12 148.492 185.425C152.726 196.804 155.69 207.926 157.419 218.752L144.778 219.03C144.681 219.032 144.585 219.036 144.488 219.042C86.9796 222.551 45.6953 239.115 21.7815 268.277C4.50753 289.339 -2.85823 316.99 1.00263 346.187V451.764C1.00263 465.343 10.0995 480.36 25.3361 491.932C42.3714 504.872 65.3616 511.998 90.0699 511.998C144.086 511.998 193.548 468.154 195.627 466.288C196.406 465.589 197.029 464.733 197.455 463.777C197.882 462.821 198.102 461.786 198.102 460.739V460.55H230.577V503.932C230.577 513.574 245.492 513.574 245.492 503.932V460.55H263.57V503.932C263.57 513.574 278.484 513.574 278.484 503.932V460.55H321.888C312.428 483.245 305.944 498.83 304.89 501.365C301.565 509.359 313.211 515.51 317.979 508.367C319.764 505.692 332.297 486.903 349.837 460.55H388.718C400.132 460.55 409.418 451.227 409.418 439.768C409.418 418.362 407.117 399.245 402.395 381.452C430.136 339.615 458.023 297.393 474.421 272.107C488.269 280.328 495.703 296.51 486.137 311.496L434.07 393.057C417.29 419.342 435.208 455.054 466.156 457.522C483.382 458.105 494.044 470.989 494.044 487.516V504.228C494.044 513.87 508.959 513.87 508.959 504.228V487.8C509.764 476.724 506.243 465.983 499.029 457.522ZM20.9612 298.49V323.067C20.9612 332.709 35.8757 332.709 35.8757 323.067V274.769C40.5091 269.622 45.8405 264.946 51.867 260.746V273.363C51.867 283.005 66.7814 283.005 66.7814 273.363V252.008C72.5682 249.164 78.8184 246.644 85.518 244.443V287.325C85.518 296.967 100.432 296.967 100.432 287.325V240.249C106.246 238.868 112.349 237.696 118.726 236.721V253.499C118.726 263.141 133.64 263.141 133.64 253.499V234.866C142.12 234.037 150.512 233.821 159.019 233.634C160.839 267.738 146.934 296.276 130.826 325.223C78.3183 330.232 44.88 351.599 32.3857 372.468C21.4862 363.504 15.9171 353.12 15.9171 345.726C15.9171 345.688 15.9121 345.651 15.9111 345.612C15.9091 345.482 15.9002 345.351 15.8912 345.219C15.8823 345.088 15.8734 344.957 15.8574 344.828C15.8525 344.79 15.8525 344.752 15.8475 344.714C14.1194 332.095 14.1433 315.349 20.9612 298.49ZM90.0699 391.047C71.6028 391.047 56.4845 386.797 44.8214 380.664C49.2698 372.751 58.0555 364.757 69.8021 358.095C80.2691 352.159 97.3969 344.856 122.238 341.255C115.261 355.061 108.909 370.367 104.703 389.573C99.8687 390.516 94.9757 391.047 90.0699 391.047ZM15.9171 451.765V377.511C20.7156 382.545 26.2598 386.923 32.1739 390.578V411.3C32.1739 420.942 47.0884 420.942 47.0884 411.3V398.044C53.0005 400.397 59.2635 402.233 65.7732 403.551V448.443C65.7732 458.085 80.6877 458.085 80.6877 448.443V405.612C86.903 406.074 93.1671 406.105 99.3725 405.443V421.822C99.3725 431.464 114.287 431.464 114.287 421.822V402.679C120.954 400.929 127.431 398.564 133.635 395.807V487.417C120.181 493.013 105.208 497.084 90.0699 497.084C41.3851 497.084 15.9171 467.581 15.9171 451.765ZM183.188 457.291C178.042 461.535 165.278 471.475 148.55 480.358V388.204C162.76 380.04 174.781 370.557 183.188 363.167V457.291ZM198.102 445.635V345.726C198.102 339.078 189.689 335.79 185.173 340.66C184.809 341.053 156.384 371.356 121.237 384.772C127.358 362.033 136.887 344.942 146.16 328.352C155.817 311.076 165.803 293.212 170.949 270.117C177.155 242.271 174.302 212.026 162.471 180.223C154.097 157.715 141.181 134.143 122.983 108.162C116.839 99.3909 118.857 94.9474 119.52 93.4868C123.283 85.1963 140.273 73.9618 199.844 67.5277C228.578 64.4235 234.149 43.9588 234.149 19.0586C234.149 15.6531 274.915 15.8967 274.915 19.0586C274.915 44.6936 280.754 64.3708 310.132 67.6599C319.896 68.7507 338.071 70.782 354.578 75.1738C377.691 81.3236 385.371 88.6834 387.743 93.7752C388.555 95.5192 391.028 100.827 384.007 111.37C353.898 156.592 324.898 210.818 338.113 270.117C344.04 296.714 358.441 319.32 370.976 343.099C356.654 377.265 342.364 411.444 328.107 445.636H198.102V445.635ZM394.504 439.768C394.504 443.004 391.909 445.635 388.719 445.635H359.763C369.407 431.139 380.056 415.117 390.983 398.654C393.345 411.389 394.504 424.973 394.504 439.768ZM348.324 435.902C387.178 342.798 434.018 231.141 438.446 222.731C443.734 212.69 456.805 208.645 466.843 213.926C476.785 219.154 480.938 232.262 475.655 242.293C474.992 243.552 472.871 246.973 469.582 252.122L458.347 245.666L461.221 240.409C465.844 231.949 452.758 224.794 448.134 233.255L435.474 256.415C430.965 264.665 443.989 271.932 448.561 263.568L451.192 258.756L461.486 264.671C437.548 301.523 388.239 375.888 348.324 435.902Z" fill="#13C4A1"/>
</svg>
