<svg xmlns="http://www.w3.org/2000/svg" version="1.1" xmlns:xlink="http://www.w3.org/1999/xlink" width="512" height="512" x="0" y="0" viewBox="0 0 464 464" style="enable-background:new 0 0 512 512" xml:space="preserve"><g><path fill="#348fd9" d="M88 32v432h320V32zm0 0" opacity="1" data-original="#348fd9"></path><path fill="#3086cd" d="m392 88-56-56H88v416h304zm0 0" opacity="1" data-original="#3086cd"></path><path fill="#60d1e0" d="M56 432h320V72L304 0H56zm0 0" opacity="1" data-original="#60d1e0"></path><path fill="#9fe4ed" d="M376 72h-72V0zm0 0" opacity="1" data-original="#9fe4ed"></path><path fill="#5ac6d4" d="M376 168 112 432h264zm0 0" opacity="1" data-original="#5ac6d4"></path><path fill="#348fd9" d="M344 400H184a8 8 0 0 1-8-8v-64a8 8 0 0 1 8-8h160a8 8 0 0 1 8 8v64a8 8 0 0 1-8 8zm-152-16h144v-48H192zm0 0" opacity="1" data-original="#348fd9"></path><path fill="#348fd9" d="M208 352h32v16h-32zM256 352h64v16h-64zm0 0" opacity="1" data-original="#348fd9"></path><path fill="#e0e0de" d="m240 256 47.996-47.996 112 112L352 368zm0 0" opacity="1" data-original="#e0e0de"></path><path fill="#95573a" d="M416 136c-26.508 0-48 21.492-48 48v4l-72 76 40 40 76-72h4c26.508 0 48-21.492 48-48s-21.492-48-48-48zm0 0" opacity="1" data-original="#95573a"></path><path fill="#ebebe9" d="m216.004 279.996 24-24 112 112-24 24zm0 0" opacity="1" data-original="#ebebe9"></path><path fill="#8f4d2e" d="M435.664 140.238C402.52 224.055 350.734 264.07 316.09 284.09L336 304l76-72h4c22.61-.027 42.137-15.832 46.875-37.941s-6.598-44.528-27.21-53.82zm0 0" opacity="1" data-original="#8f4d2e"></path><path fill="#ffb531" d="M246.953 75.2c2.504-5.208 1.445-11.427-2.64-15.513s-10.305-5.144-15.512-2.64a13.601 13.601 0 0 0-25.648 0 13.6 13.6 0 0 0-18.105 18.152 13.601 13.601 0 0 0 0 25.648c-2.47 5.204-1.396 11.4 2.682 15.466s10.274 5.124 15.47 2.64a13.601 13.601 0 0 0 25.648 0c5.203 2.469 11.398 1.395 15.465-2.683s5.125-10.274 2.64-15.47a13.602 13.602 0 0 0 0-25.6zm0 0" opacity="1" data-original="#ffb531"></path><path fill="#5ac6d4" d="M192 136A87.937 87.937 0 0 0 56 62.297v147.406A87.937 87.937 0 0 0 192 136zM320 72h56v16h-56zm0 0" opacity="1" data-original="#5ac6d4"></path><g fill="#3fb7c7"><path d="M144 224h80v16h-80zM96 256h96v16H96zM96 192h168v16H96zM96 288h48v16H96zM96 320h64v16H96zM96 352h64v16H96zM96 384h64v16H96zM96 224h32v16H96zM160 288h32v16h-32zM160 152h32v16h-32zM208 152h64v16h-64zm0 0" fill="#3fb7c7" opacity="1" data-original="#3fb7c7"></path></g><path fill="#7eb457" d="M176 120c0 48.602-39.398 88-88 88S0 168.602 0 120s39.398-88 88-88 88 39.398 88 88zm0 0" opacity="1" data-original="#7eb457"></path><path fill="#ffb531" d="M56 168a8.001 8.001 0 0 1-5.656-2.344l-24-24 11.312-11.312L56 148.688l74.344-74.344 11.312 11.312-80 80A8.001 8.001 0 0 1 56 168zm0 0" opacity="1" data-original="#ffb531"></path><path fill="#f98500" d="M190.176 118.129a86.944 86.944 0 0 0-5.281-16.8 13.394 13.394 0 0 0 5.28 16.8zM184.496 100.52a88.356 88.356 0 0 0-8.191-14.618 13.312 13.312 0 0 0 8.191 14.618zm0 0" opacity="1" data-original="#f98500"></path></g></svg>