<svg xmlns="http://www.w3.org/2000/svg" version="1.1" xmlns:xlink="http://www.w3.org/1999/xlink" width="512" height="512" x="0" y="0" viewBox="0 0 512 512" style="enable-background:new 0 0 512 512" xml:space="preserve"><g><path fill="#ffbf29" fill-rule="evenodd" d="m229.533 33.397 23.581 9.781 18.868-12.652 26.081 26.081-12.653 18.867 9.781 23.581 22.274 4.392v36.884l-22.274 4.392-9.781 23.58 12.653 18.868-26.081 26.081-18.868-12.653-23.581 9.782-4.391 22.273h-36.885l-4.391-22.273-23.581-9.782-18.868 12.653-26.081-26.081 12.653-18.868-9.781-23.58-22.274-4.392v-36.884l22.274-4.392 9.781-23.581-12.653-18.867 26.081-26.081 18.868 12.652 23.581-9.781 4.391-22.273h36.885z" opacity="1" data-original="#ffbf29"></path><path fill="#ffd064" fill-rule="evenodd" d="m229.534 33.397 23.58 9.781 8.015 3.325 16.06-10.77 20.874 20.874-12.653 18.867 9.782 23.581 22.273 4.392v36.884l-22.273 4.392-9.782 23.58 12.653 18.868-20.874 20.874-16.06-10.77-8.014 3.325-.001-.001-23.58 9.782-4.392 22.273h-27.916l-5.259-26.668-24.537-10.178-7.145 4.791-11.103 7.446-20.874-20.874 10.682-15.928-10.13-24.419-10.652-2.101-9.302-1.834v-42l19.954-3.935 10.13-24.419-10.682-15.928 20.874-20.874L167.43 47.97l24.537-10.178 5.259-26.668h27.916z" opacity="1" data-original="#ffd064"></path><circle cx="206.7" cy="121.889" r="57.336" fill="#ffbf29" opacity="1" data-original="#ffbf29"></circle><path fill="#ebf4ff" fill-rule="evenodd" d="M202.159 179.046c-29.543-2.315-52.795-27.019-52.795-57.157s23.253-54.842 52.795-57.157c30.084 0 52.796 27.019 52.796 57.157s-22.712 57.157-52.796 57.157z" opacity="1" data-original="#ebf4ff"></path><path fill="#8aabdb" fill-rule="evenodd" d="m321.338 37.336 23.581 9.782 18.867-12.653 26.081 26.081-12.652 18.868 9.781 23.58 22.273 4.392v36.885l-22.273 4.392-9.781 23.58 12.652 18.868-26.081 26.081-18.867-12.653-23.581 9.782-4.392 22.273h-36.884l-4.392-22.273-23.581-9.782-18.868 12.653-26.081-26.081 12.653-18.868-9.781-23.58-22.274-4.392v-36.885l22.274-4.392 9.781-23.58-12.653-18.868 26.081-26.081 18.868 12.653 23.581-9.782 4.392-22.273h36.884z" opacity="1" data-original="#8aabdb"></path><path fill="#9dbbe8" fill-rule="evenodd" d="m321.338 37.336 23.581 9.782 8.015 3.324 16.059-10.77 20.874 20.874-12.653 18.868 9.782 23.58 22.273 4.392v36.885l-22.273 4.392-9.782 23.58 12.653 18.867-20.874 20.875-16.059-10.77-8.015 3.325v-.001l-23.581 9.782-4.392 22.273H289.03l-5.258-26.668-24.538-10.178-7.145 4.791-11.103 7.446-20.874-20.874 10.682-15.928-10.13-24.42-10.652-2.1-9.301-1.834V104.828l19.953-3.934 10.13-24.419-10.682-15.929 20.874-20.874 18.248 12.238 24.538-10.179 5.258-26.668h27.916z" opacity="1" data-original="#9dbbe8"></path><circle cx="298.504" cy="125.829" r="57.336" fill="#8aabdb" opacity="1" data-original="#8aabdb"></circle><path fill="#ebf4ff" fill-rule="evenodd" d="M293.963 182.985c-29.543-2.315-52.795-27.019-52.795-57.157s23.253-54.842 52.795-57.157c30.084 0 52.796 27.019 52.796 57.157s-22.712 57.157-52.796 57.157z" opacity="1" data-original="#ebf4ff"></path><g fill-rule="evenodd"><path fill="#dba977" d="m88.099 380.695 45.169 22.37 27.816 29.933 110.315 60.501c21.803 12.588 36.63-15.282 17.905-26.093l13.788 7.96c8.172 4.718 18.718 1.892 23.435-6.28 4.692-8.126 1.906-18.634-6.174-23.374l5.085 2.936c8.172 4.718 18.718 1.892 23.436-6.28 4.712-8.161 1.881-18.724-6.28-23.436l5.19 2.997c8.172 4.718 18.719 1.892 23.436-6.28 4.711-8.16 1.88-18.724-6.28-23.436l-51.553-29.764-46.645-48.083c-42.679-43.994-64.594 5.666-103.637-16.051l-38.857-21.613-14.455-5.025-36.149 103.992 14.455 5.025z" opacity="1" data-original="#dba977"></path><path fill="#d19a62" d="M372.611 412.573c2.551-7.572-.505-16.222-7.67-20.359l-51.553-29.764-46.645-48.083c-42.679-43.994-64.594 5.666-103.637-16.051l-38.857-21.613-14.455-5.025-3.574 10.281 49.222 27.855c19.451 10.819 34.548 6.407 49.501 2.036 15.728-4.598 31.261-9.138 52.542 12.799 48.236 48.236 42.198 45.819 115.127 87.925zm-76.138 74.887c2.943-6.578 1.405-15.099-7.162-20.05l-24.548-14.173a6.891 6.891 0 0 0-6.867 11.95l9.702 5.602zm31.445-21.45-53.373-30.815a6.904 6.904 0 1 1 6.921-11.949c14.772 8.531 61.447 35.492 38.887 22.467 7.091 4.16 10.104 12.762 7.565 20.297zm22.346-26.719-52.028-30.039a6.905 6.905 0 0 1 6.921-11.95l43.023 24.848a21.984 21.984 0 0 1-.395-.221l-5.19-2.997c7.166 4.137 10.221 12.786 7.67 20.358z" opacity="1" data-original="#d19a62"></path><path fill="#dba977" d="m302.242 474.875.85.491c.189.109.38.213.573.315l-.929-.536a12.701 12.701 0 0 1-.494-.269z" opacity="1" data-original="#dba977"></path><path fill="#f1d0a5" d="m175.116 441.519 12.192-21.118c4.666-8.08 1.871-18.508-6.209-23.174-8.069-4.659-18.515-1.86-23.174 6.209l-12.192 21.118c-4.665 8.08-1.871 18.508 6.209 23.174 8.069 4.659 18.515 1.86 23.174-6.21z" opacity="1" data-original="#f1d0a5"></path><path fill="#e8c290" d="m175.116 441.519 12.192-21.117c4.132-7.159 2.411-16.156-3.651-21.361l-28.865 49.995c7.528 2.639 16.185-.367 20.315-7.503l.009-.015z" opacity="1" data-original="#e8c290"></path><path fill="#f1d0a5" d="m196.927 471.6 19.764-34.234c4.665-8.08 1.871-18.508-6.21-23.174-8.069-4.659-18.515-1.86-23.174 6.209l-19.764 34.234c-4.665 8.08-1.871 18.508 6.21 23.174 8.069 4.659 18.515 1.86 23.174-6.209z" opacity="1" data-original="#f1d0a5"></path><path fill="#e8c290" d="M216.706 437.34c4.114-7.153 2.39-16.136-3.666-21.335l-36.438 63.111c7.503 2.63 16.128-.347 20.274-7.432l19.829-34.344z" opacity="1" data-original="#e8c290"></path><path fill="#f1d0a5" d="m229.767 482.578 16.308-28.247c4.665-8.08 1.871-18.509-6.21-23.174-8.069-4.659-18.515-1.86-23.174 6.209l-16.308 28.247c-4.665 8.08-1.871 18.509 6.21 23.174 8.069 4.659 18.515 1.86 23.174-6.21z" opacity="1" data-original="#f1d0a5"></path><path fill="#e8c290" d="m229.767 482.578 16.308-28.247c4.132-7.157 2.411-16.155-3.65-21.36l-32.981 57.125c7.533 2.64 16.198-.371 20.324-7.517z" opacity="1" data-original="#e8c290"></path><path fill="#f1d0a5" d="m263.266 492.413 12.192-21.118c4.666-8.081 1.871-18.508-6.209-23.174-8.069-4.659-18.515-1.86-23.174 6.209l-12.192 21.118c-4.665 8.08-1.871 18.508 6.209 23.174 8.07 4.658 18.515 1.86 23.174-6.21z" opacity="1" data-original="#f1d0a5"></path><path fill="#e8c290" d="M276.195 469.863c3.161-6.915 1.263-15.123-4.448-19.98l-28.88 50.021c7.056 2.511 15.123.048 19.528-6.138l13.8-23.902z" opacity="1" data-original="#e8c290"></path><path fill="#f1d0a5" d="m199.847 339.148 55.124-34.37c18.389-11.465 38.183-16.931 58.278-10.307 17.232 5.68 34.178 4.155 50.119-4.512l24.383-13.257 11.773-6.307 36.693 106.017-12.316 4.281-50.994 21.943c-1.335-3.457-2.507-6.496-7.966-10.424l-51.553-29.764c-11.265-6.504-22.127-13.117-36.312-13.033-30.855.183-51.583 32.881-77.568 11.362-6.543-5.418-8.993-15.812.34-21.631z" opacity="1" data-original="#f1d0a5"></path></g><path fill="#ffd064" d="m382.997 263.011 50.276-17.45 45.794 131.937-50.276 17.45z" opacity="1" data-original="#ffd064"></path><path fill="#9dbbe8" d="M33.126 377.06 78.92 245.123l50.276 17.45-45.794 131.938z" opacity="1" data-original="#9dbbe8"></path><path fill="#ffbf29" fill-rule="evenodd" d="m382.905 262.761 45.842 131.875L479 377.168l-4.282-12.317-44.095 15.328-41.56-119.559z" opacity="1" data-original="#ffbf29"></path><path fill="#8aabdb" fill-rule="evenodd" d="M129.095 262.761 83.253 394.636 33 377.168l4.282-12.317 44.094 15.328 41.561-119.559z" opacity="1" data-original="#8aabdb"></path></g></svg>