<svg xmlns="http://www.w3.org/2000/svg" version="1.1" xmlns:xlink="http://www.w3.org/1999/xlink" width="512" height="512" x="0" y="0" viewBox="0 0 497.579 497.579" style="enable-background:new 0 0 512 512" xml:space="preserve"><g><path fill="#99e6fc" d="M440.902 462.907H298.411l14.416-223.951a6.442 6.442 0 0 1 6.442-6.442H434.46a6.442 6.442 0 0 1 6.442 6.442z" opacity="1" data-original="#99e6fc"></path><path fill="#bbec6c" d="M209.637 466.907H56.677V296.556a6.442 6.442 0 0 1 6.442-6.442H178.31a6.442 6.442 0 0 1 6.442 6.442z" opacity="1" data-original="#bbec6c"></path><path fill="#62dbfb" d="M389.325 414.908c-14.354 0-25.991-11.636-25.991-25.991v-149.96a6.442 6.442 0 0 1 6.442-6.442h-50.507a6.442 6.442 0 0 0-6.442 6.442v223.951h128.075v-48z" opacity="1" data-original="#62dbfb"></path><path fill="#a2e62e" d="M134.588 414.908c-15.135 0-27.403-12.269-27.403-27.403v-90.948a6.442 6.442 0 0 1 6.442-6.442H63.119a6.442 6.442 0 0 0-6.442 6.442v170.351h128.075v-52z" opacity="1" data-original="#a2e62e"></path><path fill="#fee45a" d="m254.062 4.24 15.943 32.303a5.879 5.879 0 0 0 4.427 3.216l35.649 5.18c4.823.701 6.748 6.627 3.259 10.029l-25.796 25.144a5.88 5.88 0 0 0-1.691 5.204l6.09 35.505c.824 4.803-4.218 8.466-8.531 6.198l-31.885-16.763a5.877 5.877 0 0 0-5.472 0l-31.885 16.763c-4.314 2.268-9.355-1.395-8.531-6.198l6.09-35.505a5.878 5.878 0 0 0-1.691-5.204L184.24 54.969c-3.49-3.402-1.564-9.328 3.259-10.029l35.649-5.18a5.879 5.879 0 0 0 4.427-3.216L243.517 4.24c2.157-4.37 8.388-4.37 10.545 0zM375.606 71.836h-10.741c-4.143 0-7.5-3.358-7.5-7.5s3.357-7.5 7.5-7.5h10.741a7.5 7.5 0 0 1 0 15zM351.94 19.443a7.5 7.5 0 0 1-3.105-14.331l9.781-4.439a7.501 7.501 0 0 1 6.2 13.659l-9.781 4.439a7.477 7.477 0 0 1-3.095.672zM361.711 128.671a7.48 7.48 0 0 1-3.095-.672l-9.781-4.439a7.5 7.5 0 0 1 6.2-13.659l9.781 4.439a7.5 7.5 0 0 1-3.105 14.331zM133.714 71.836h-10.741c-4.143 0-7.5-3.358-7.5-7.5s3.357-7.5 7.5-7.5h10.741c4.143 0 7.5 3.358 7.5 7.5s-3.357 7.5-7.5 7.5zM146.639 19.443a7.48 7.48 0 0 1-3.095-.672l-9.781-4.439a7.5 7.5 0 0 1-3.729-9.929 7.499 7.499 0 0 1 9.929-3.73l9.781 4.439a7.5 7.5 0 0 1-3.105 14.331zM136.868 128.671a7.5 7.5 0 0 1-3.105-14.331l9.781-4.439a7.501 7.501 0 0 1 6.2 13.659l-9.781 4.439a7.48 7.48 0 0 1-3.095.672z" opacity="1" data-original="#fee45a"></path><path fill="#f37c7c" d="M312.827 463.907H184.752V170.679a6.442 6.442 0 0 1 6.442-6.442h115.191a6.442 6.442 0 0 1 6.442 6.442z" opacity="1" data-original="#f37c7c"></path><path fill="#ee6161" d="M265.131 414.908c-16.498 0-29.872-13.374-29.872-29.872V170.679a6.442 6.442 0 0 1 6.442-6.442h-50.507a6.442 6.442 0 0 0-6.442 6.442v293.228h128.075v-49h-47.696z" opacity="1" data-original="#ee6161"></path><path fill="#d7d0d6" d="M485.339 434.907H12.24c-6.661 0-12.06 5.4-12.06 12.06v40.179c0 5.761 4.671 10.432 10.432 10.432h476.355c5.761 0 10.432-4.671 10.432-10.432v-40.179c0-6.66-5.399-12.06-12.06-12.06z" opacity="1" data-original="#d7d0d6"></path></g></svg>