<svg xmlns="http://www.w3.org/2000/svg" version="1.1" xmlns:xlink="http://www.w3.org/1999/xlink" width="512" height="512" x="0" y="0" viewBox="0 0 62 62" style="enable-background:new 0 0 512 512" xml:space="preserve"><g><path fill="#969faa" d="M36.12 57.88c.54.54.88 1.29.88 2.12 0 .55-.45 1-1 1h-4c-.55 0-1-.45-1-1a2.996 2.996 0 0 1 5.12-2.12zM26.12 57.88c.54.54.88 1.29.88 2.12 0 .55-.45 1-1 1h-4c-.55 0-1-.45-1-1a2.996 2.996 0 0 1 5.12-2.12z" opacity="1" data-original="#969faa"></path><path fill="#d3a06c" d="M37 45v8h-6v-2c0-.55-.22-1.05-.59-1.41-.36-.37-.86-.59-1.41-.59-1.1 0-2 .9-2 2v2h-6v-8h8z" opacity="1" data-original="#d3a06c"></path><path fill="#fcd770" d="M33 33h8v6h-4v6h-8v-8c1.1 0 2.1-.45 2.83-1.17C32.55 35.1 33 34.1 33 33zM15 33h10c0 2.21 1.79 4 4 4v8h-8v-6h-6z" opacity="1" data-original="#fcd770"></path><path fill="#aab2bd" d="M52.27 51.58 51 52l-1.27-.42A12.757 12.757 0 0 1 41 39.46V33l10-5 10 5v6.46c0 5.51-3.51 10.38-8.73 12.12z" opacity="1" data-original="#aab2bd"></path><path fill="#ccd1d9" d="M57 35v4.68c0 3.77-2.42 7.13-6 8.32a8.76 8.76 0 0 1-4.34-3.19A8.73 8.73 0 0 1 45 39.68V35l6-3z" opacity="1" data-original="#ccd1d9"></path><path fill="#e6e9ed" d="m5 27-1.27-.64a4.927 4.927 0 0 1-2.38-6.24L5 11l3.65 9.12c.23.58.35 1.2.35 1.83 0 .93-.26 1.83-.74 2.59a4.93 4.93 0 0 1-1.99 1.82z" opacity="1" data-original="#e6e9ed"></path><path fill="#aab2bd" d="M45 11v10c0 2.21-1.79 4-4 4V11L29 6l-12 5v14c-2.21 0-4-1.79-4-4V11c0-5.52 4.48-10 10-10h12c5.52 0 10 4.48 10 10z" opacity="1" data-original="#aab2bd"></path><path fill="#ccd1d9" d="M41 11v3l-12 5-12-5v-3l12-5z" opacity="1" data-original="#ccd1d9"></path><path fill="#f0d0b4" d="M34 57c-1.66 0-3 1.34-3 3v-7h6v7c0-.83-.34-1.58-.88-2.12S34.83 57 34 57zM24 57c-1.66 0-3 1.34-3 3v-7h6v7c0-.83-.34-1.58-.88-2.12S24.83 57 24 57zM5 33h10v6H5zM25 33h8c0 1.1-.45 2.1-1.17 2.83C31.1 36.55 30.1 37 29 37c-2.21 0-4-1.79-4-4zM29 19l12-5v11c0 4.42-3.58 8-8 8h-8c-4.42 0-8-3.58-8-8V14z" opacity="1" data-original="#f0d0b4"></path><path fill="#ff826e" d="M25 25h8c0 1.1-.45 2.1-1.17 2.83C31.1 28.55 30.1 29 29 29c-2.21 0-4-1.79-4-4z" opacity="1" data-original="#ff826e"></path><circle cx="35" cy="19" r="2" fill="#d3a06c" opacity="1" data-original="#d3a06c"></circle><circle cx="23" cy="19" r="2" fill="#d3a06c" opacity="1" data-original="#d3a06c"></circle><path d="M34 24H24v1c0 2.757 2.243 5 5 5s5-2.243 5-5zm-5 4a3.006 3.006 0 0 1-2.829-2h5.657A3.004 3.004 0 0 1 29 28zM44 34.382v5.293a9.761 9.761 0 0 0 6.684 9.273l.316.106.316-.105A9.764 9.764 0 0 0 58 39.675v-5.293l-7-3.5zm12 5.293a7.764 7.764 0 0 1-5 7.263 7.764 7.764 0 0 1-5-7.263v-4.057l5-2.5 5 2.5z" fill="#000000" opacity="1" data-original="#000000"></path><path d="M51 26.882 40.764 32h-2.12a8.991 8.991 0 0 0 3.31-6.096A5.006 5.006 0 0 0 46 21V11c0-6.065-4.935-11-11-11H23c-6.065 0-11 4.935-11 11v10a5.006 5.006 0 0 0 4.046 4.904A8.991 8.991 0 0 0 19.356 32H6v-4.382l.72-.36A5.903 5.903 0 0 0 10 21.95c0-.759-.143-1.5-.424-2.204L5 8.307.425 19.746A5.9 5.9 0 0 0 0 21.95a5.903 5.903 0 0 0 3.28 5.308l.72.36V32c-2.206 0-4 1.794-4 4s1.794 4 4 4v22h2V40h14v20c0 1.103.897 2 2 2h4c1.103 0 2-.897 2-2v-9c0-.551.449-1 1-1s1 .449 1 1v9c0 1.103.897 2 2 2h4c1.103 0 2-.897 2-2V40h2.021a13.748 13.748 0 0 0 9.397 12.527l1.582.527 1.582-.527A13.758 13.758 0 0 0 62 39.459v-7.077zM2 21.95c0-.503.095-.995.282-1.461L5 13.693l2.719 6.796c.186.467.281.958.281 1.461a3.905 3.905 0 0 1-2 3.416V21H4v4.366a3.905 3.905 0 0 1-2-3.416zM29 36a2.996 2.996 0 0 1-2.816-2h5.631A2.994 2.994 0 0 1 29 36zm7-17c0 .551-.449 1-1 1s-1-.449-1-1 .449-1 1-1 1 .449 1 1zm-12 0c0 .551-.449 1-1 1s-1-.449-1-1 .449-1 1-1 1 .449 1 1zm0-9.833v6.667L22 15v-5zm-4 5-2-.833v-1.667l2-.833zm6-5.834 2-.833v10l-2-.833zm4-.833 2 .833v8.333l-2 .834zm6 2.5v5l-2 .833V9.167zm2 .833 2 .833v1.667l-2 .833zM44 11v10a2.996 2.996 0 0 1-2 2.816V10.333l-12-5V2h5c4.962 0 9 4.038 9 9zM14 21V11c0-4.962 4.038-9 9-9h5v3.333l-12 5v13.482A2.994 2.994 0 0 1 14 21zm4 4v-9.5l3.024 1.26A2.98 2.98 0 0 0 20 19c0 1.654 1.346 3 3 3s3-1.346 3-3c0-.06-.014-.115-.018-.174L29 20.083l3.018-1.257c-.004.059-.018.114-.018.174 0 1.654 1.346 3 3 3s3-1.346 3-3a2.98 2.98 0 0 0-1.024-2.24L40 15.5V25c0 3.86-3.14 7-7 7h-8c-3.86 0-7-3.14-7-7zM2 36c0-1.103.897-2 2-2v4c-1.103 0-2-.897-2-2zm4-2h8v4H6zm10 4v-4h8.101A5.016 5.016 0 0 0 28 37.899V44h-6v-8h-2v2zm6 16h4v2.556c-.591-.344-1.268-.556-2-.556s-1.409.212-2 .556zm0 6c0-1.103.897-2 2-2s2 .897 2 2zm7-12c-1.654 0-3 1.346-3 3v1h-4v-6h14v6h-4v-1c0-1.654-1.346-3-3-3zm7 6v2.556c-.591-.344-1.268-.556-2-.556s-1.409.212-2 .556V54zm-4 6c0-1.103.897-2 2-2s2 .897 2 2zm4-24v8h-6v-6.101A5.016 5.016 0 0 0 33.899 34H40v4h-2v-2zm24 3.459a11.76 11.76 0 0 1-8.051 11.171l-.949.316-.949-.316A11.76 11.76 0 0 1 42 39.459v-5.841l9-4.5 9 4.5z" fill="#000000" opacity="1" data-original="#000000"></path><path d="M50 36v2h-2v2h2v4h2v-4h2v-2h-2v-2z" fill="#000000" opacity="1" data-original="#000000"></path></g></svg>