<svg xmlns="http://www.w3.org/2000/svg" version="1.1" xmlns:xlink="http://www.w3.org/1999/xlink" width="512" height="512" x="0" y="0" viewBox="0 0 60 60" style="enable-background:new 0 0 512 512" xml:space="preserve"><g><path fill="#f29c1f" d="m16.259 52.538-6.9 6.2a1 1 0 0 1-1.64-.48L6.5 53.84a1.012 1.012 0 0 0-.59-.67l-4.28-1.68a1 1 0 0 1-.3-1.67l10.005-8.993zM48.665 40.827 58.67 49.82a1 1 0 0 1-.3 1.67l-4.28 1.68a1.012 1.012 0 0 0-.59.67l-1.22 4.42a1 1 0 0 1-1.64.48l-6.9-6.2z" opacity="1" data-original="#f29c1f"></path><path fill="#3b97d3" d="M19.389 54.457a13.909 13.909 0 0 1-7.844-15.342L13.96 25.98C21.936 25.837 26.942 23.454 30 21c3.057 2.454 8.065 4.837 16.041 4.98l2.415 13.136a13.909 13.909 0 0 1-7.844 15.341L30 59z" opacity="1" data-original="#3b97d3"></path><path fill="#9fc9d3" d="M20.963 50.78a9.887 9.887 0 0 1-5.484-10.943L17.325 29.8A29.565 29.565 0 0 0 30 25.871 29.57 29.57 0 0 0 42.675 29.8l1.846 10.042a9.884 9.884 0 0 1-5.483 10.94L30 54.648z" opacity="1" data-original="#9fc9d3"></path><path fill="#285680" d="M28.515 34.143a1 1 0 0 0-1.372.342L25 38.056l-2.143-3.571a1 1 0 1 0-1.714 1.03L23.834 40l-2.691 4.485a1 1 0 1 0 1.714 1.03L25 41.944l2.143 3.571a1 1 0 1 0 1.714-1.03L26.166 40l2.691-4.485a1 1 0 0 0-.342-1.372zM35 34h-3a1 1 0 0 0-1 1v10a1 1 0 0 0 2 0v-3h2a4 4 0 0 0 0-8zm0 6h-2v-4h2a2 2 0 0 1 0 4z" opacity="1" data-original="#285680"></path><path fill="#f0c419" d="m33.965 18.244-3.538-1.664a1 1 0 0 0-.852 0l-3.536 1.667a1 1 0 0 1-1.421-1.006l.426-4.184a1 1 0 0 0-.237-.754l-2.72-3.157a1 1 0 0 1 .541-1.629l3.889-.861a1 1 0 0 0 .661-.5l1.939-3.553a1 1 0 0 1 1.755 0l1.942 3.551a1 1 0 0 0 .662.5l3.889.857a1 1 0 0 1 .543 1.629l-2.716 3.16a1 1 0 0 0-.237.755l.43 4.183a1 1 0 0 1-1.42 1.006z" opacity="1" data-original="#f0c419"></path><g fill="#f29c1f"><path d="m50.409 22.6-2.537-1.995a1 1 0 0 0-.83-.192l-3.154.683a1 1 0 0 1-1.158-1.3l1.127-3.3a1 1 0 0 0-.057-.796l-1.615-3.07a1 1 0 0 1 .9-1.465l3.3.031a1 1 0 0 0 .756-.335l2.223-2.5a1 1 0 0 1 1.71.394l.9 3.22a1 1 0 0 0 .533.632l2.983 1.42a1 1 0 0 1 .163 1.709l-2.8 2.052a1 1 0 0 0-.4.682l-.435 3.464a1 1 0 0 1-1.609.666zM9.591 22.6l2.537-1.995a1 1 0 0 1 .83-.192l3.154.683a1 1 0 0 0 1.158-1.3l-1.127-3.3a1 1 0 0 1 .057-.796l1.615-3.07a1 1 0 0 0-.895-1.465l-3.3.031a1 1 0 0 1-.756-.335l-2.223-2.5a1 1 0 0 0-1.71.394l-.9 3.22a1 1 0 0 1-.533.632l-2.983 1.42a1 1 0 0 0-.163 1.709l2.8 2.052a1 1 0 0 1 .4.682l.435 3.464a1 1 0 0 0 1.604.666z" fill="#f29c1f" opacity="1" data-original="#f29c1f"></path></g></g></svg>