<svg width="512" height="475" viewBox="0 0 512 475" fill="none" xmlns="http://www.w3.org/2000/svg">
<path d="M334.56 330.32L260 287.269C258.784 286.567 257.404 286.197 256 286.197C254.596 286.197 253.216 286.567 252 287.269L177.44 330.32C176.224 331.021 175.214 332.029 174.512 333.245C173.81 334.46 173.44 335.839 173.44 337.242V423.12C173.44 424.525 173.81 425.905 174.512 427.122C175.214 428.339 176.224 429.35 177.44 430.053L252 473.093C253.215 473.798 254.595 474.17 256 474.17C257.405 474.17 258.785 473.798 260 473.093L334.56 430.053C335.776 429.35 336.786 428.339 337.488 427.122C338.19 425.905 338.56 424.525 338.56 423.12V337.242C338.56 335.839 338.191 334.46 337.488 333.245C336.786 332.029 335.776 331.021 334.56 330.32ZM256 303.44L314.56 337.242L256 371.056L197.44 337.242L256 303.44ZM189.44 351.098L248 384.912V452.315L189.44 418.501V351.098ZM322.56 418.501L264 452.315V384.912L322.56 351.098V418.501ZM143.563 166.896C144.964 166.902 146.341 166.533 147.552 165.829L181.526 146.224L252 186.949C253.215 187.654 254.595 188.026 256 188.026C257.405 188.026 258.785 187.654 260 186.949L330.475 146.266L364.448 165.872C365.659 166.576 367.037 166.944 368.438 166.938C370.201 166.943 371.917 166.364 373.318 165.293C374.718 164.221 375.726 162.717 376.183 161.014C376.641 159.31 376.523 157.504 375.847 155.874C375.172 154.245 373.977 152.885 372.448 152.005L338.56 132.41V51.0451C338.56 49.6402 338.19 48.26 337.488 47.043C336.786 45.8261 335.776 44.8152 334.56 44.1118L260 1.0718C258.784 0.36965 257.404 0 256 0C254.596 0 253.216 0.36965 252 1.0718L177.44 44.1118C176.224 44.8152 175.214 45.8261 174.512 47.043C173.81 48.26 173.44 49.6402 173.44 51.0451V132.41L139.552 151.973C138.024 152.853 136.829 154.213 136.153 155.842C135.478 157.472 135.36 159.278 135.817 160.982C136.274 162.685 137.282 164.189 138.683 165.261C140.084 166.332 141.799 166.9 143.563 166.896ZM299.296 109.712C298.386 109.187 297.381 108.846 296.338 108.709C295.296 108.572 294.237 108.642 293.222 108.914C292.207 109.186 291.255 109.656 290.421 110.296C289.588 110.937 288.888 111.735 288.363 112.645C287.838 113.556 287.497 114.561 287.36 115.603C287.223 116.645 287.293 117.704 287.565 118.719C287.838 119.735 288.307 120.686 288.947 121.52C289.588 122.354 290.386 123.053 291.296 123.578L314.507 136.986L264 166.117V98.7038L305.472 74.7678L322.539 64.8905V123.162L299.296 109.712ZM256 17.2318L314.56 51.0451L256 84.8478L197.44 51.0451L256 17.2318ZM189.44 64.8905L206.507 74.7678L247.979 98.7038V166.117L197.504 136.976L220.715 123.568C221.625 123.043 222.423 122.343 223.064 121.509C223.704 120.676 224.174 119.724 224.446 118.709C224.718 117.693 224.788 116.634 224.651 115.592C224.514 114.55 224.173 113.545 223.648 112.634C223.123 111.724 222.423 110.926 221.59 110.286C220.756 109.645 219.804 109.176 218.789 108.903C217.774 108.631 216.715 108.561 215.673 108.698C214.63 108.835 213.625 109.176 212.715 109.701L189.44 123.162V64.8905ZM187.531 309.093C188.742 309.797 190.119 310.166 191.52 310.16C193.284 310.164 194.999 309.586 196.4 308.514C197.801 307.443 198.809 305.938 199.266 304.235C199.723 302.532 199.605 300.725 198.93 299.096C198.254 297.467 197.059 296.106 195.531 295.226L165.12 277.69V196.549C165.12 195.144 164.75 193.764 164.048 192.547C163.346 191.33 162.336 190.319 161.12 189.616L86.5602 146.565C85.344 145.863 83.9645 145.493 82.5602 145.493C81.1559 145.493 79.7763 145.863 78.5602 146.565L4.00017 189.562C2.77613 190.27 1.76128 191.29 1.05873 192.517C0.356176 193.744 -0.00904558 195.135 0.000170185 196.549V282.426C6.04616e-05 283.83 0.369715 285.209 1.07192 286.424C1.77413 287.639 2.7841 288.648 4.00017 289.349L78.5602 332.4C79.7753 333.105 81.1552 333.477 82.5602 333.477C83.9651 333.477 85.3451 333.105 86.5602 332.4L157.174 291.632L187.531 309.093ZM82.5602 162.682L141.12 196.496L82.5602 230.298L24.0002 196.549L82.5602 162.682ZM16.0002 210.352L33.0668 220.218L74.5602 244.165V311.557L16.0002 277.744V210.352ZM90.5602 311.557V244.165L132.032 220.218L149.099 210.352V268.453L121.803 252.698C119.964 251.638 117.779 251.351 115.729 251.901C113.678 252.451 111.93 253.793 110.87 255.632C109.809 257.471 109.522 259.656 110.072 261.706C110.622 263.756 111.964 265.504 113.803 266.565L141.152 282.352L90.5602 311.557ZM508 189.562L433.44 146.512C432.224 145.81 430.844 145.44 429.44 145.44C428.036 145.44 426.656 145.81 425.44 146.512L350.934 189.562C349.717 190.266 348.708 191.277 348.005 192.494C347.303 193.711 346.934 195.091 346.934 196.496V277.69L316.523 295.248C314.994 296.128 313.799 297.488 313.124 299.117C312.448 300.746 312.33 302.553 312.788 304.256C313.245 305.959 314.253 307.464 315.653 308.535C317.054 309.607 318.77 310.185 320.534 310.181C321.935 310.187 323.312 309.819 324.523 309.114L354.88 291.6L425.494 332.368C426.709 333.073 428.089 333.445 429.494 333.445C430.898 333.445 432.278 333.073 433.494 332.368L508.054 289.317C509.263 288.608 510.264 287.593 510.957 286.374C511.65 285.155 512.01 283.775 512 282.373V196.549C512.009 195.135 511.644 193.744 510.942 192.517C510.239 191.29 509.224 190.27 508 189.562ZM429.44 162.682L488 196.496L429.44 230.298L370.88 196.549L429.44 162.682ZM401.067 255.621C400.542 254.711 399.843 253.914 399.01 253.275C398.177 252.636 397.226 252.167 396.211 251.895C395.197 251.624 394.139 251.555 393.098 251.693C392.057 251.831 391.053 252.172 390.144 252.698L362.88 268.453V210.352L379.947 220.218L421.419 244.165V311.557L370.806 282.341L398.155 266.554C399.064 266.028 399.861 265.327 400.499 264.493C401.137 263.658 401.605 262.706 401.875 261.691C402.146 260.676 402.214 259.617 402.075 258.576C401.936 257.534 401.594 256.53 401.067 255.621ZM437.408 311.557V244.165L478.934 220.218L496 210.352V277.744L437.408 311.557Z" fill="url(#paint0_linear_1164_1265)"/>
<defs>
<linearGradient id="paint0_linear_1164_1265" x1="18.2681" y1="30.5618" x2="463.921" y2="582.824" gradientUnits="userSpaceOnUse">
<stop stop-color="#1BA2D7"/>
<stop offset="1" stop-color="#8D3DFA"/>
</linearGradient>
</defs>
</svg>
