<svg width="512" height="512" viewBox="0 0 512 512" fill="none" xmlns="http://www.w3.org/2000/svg">
<path d="M256 309.488C266.579 309.488 276.921 306.351 285.718 300.473C294.514 294.595 301.37 286.241 305.418 276.466C309.466 266.692 310.524 255.937 308.459 245.561C306.395 235.185 301.299 225.654 293.818 218.174C286.336 210.694 276.804 205.601 266.428 203.538C256.051 201.476 245.296 202.537 235.523 206.587C225.749 210.637 217.396 217.495 211.521 226.292C205.645 235.09 202.51 245.433 202.512 256.012C202.531 270.191 208.173 283.784 218.2 293.808C228.227 303.833 241.821 309.472 256 309.488ZM256 216.512C263.81 216.512 271.444 218.828 277.937 223.166C284.431 227.505 289.492 233.671 292.481 240.886C295.47 248.101 296.253 256.04 294.73 263.699C293.207 271.359 289.448 278.395 283.927 283.918C278.405 289.441 271.37 293.203 263.711 294.728C256.052 296.253 248.113 295.473 240.897 292.486C233.681 289.499 227.513 284.439 223.173 277.947C218.832 271.455 216.514 263.822 216.512 256.012C216.522 245.541 220.685 235.501 228.088 228.096C235.491 220.691 245.529 216.525 256 216.512ZM256 83.512C264.259 83.512 272.332 81.0631 279.198 76.4749C286.065 71.8867 291.417 65.3653 294.578 57.7353C297.738 50.1054 298.565 41.7097 296.954 33.6098C295.343 25.51 291.366 18.0697 285.526 12.2301C279.686 6.39039 272.246 2.41351 264.146 0.802349C256.046 -0.808816 247.651 0.0180922 240.021 3.1785C232.391 6.33892 225.869 11.6909 221.281 18.5576C216.693 25.4244 214.244 33.4975 214.244 41.756C214.257 52.8265 218.66 63.4399 226.488 71.2679C234.316 79.096 244.93 83.4993 256 83.512ZM256 14.012C261.49 14.012 266.856 15.6399 271.42 18.6897C275.985 21.7396 279.542 26.0745 281.643 31.1463C283.744 36.218 284.294 41.7988 283.223 47.1829C282.152 52.5671 279.508 57.5127 275.626 61.3945C271.745 65.2762 266.799 67.9197 261.415 68.9907C256.031 70.0617 250.45 69.512 245.378 67.4112C240.307 65.3104 235.972 61.7529 232.922 57.1884C229.872 52.624 228.244 47.2576 228.244 41.768C228.252 34.4093 231.179 27.3543 236.383 22.1509C241.586 16.9475 248.641 14.0205 256 14.012ZM256 428.488C247.741 428.488 239.668 430.937 232.802 435.525C225.935 440.113 220.583 446.635 217.423 454.265C214.262 461.895 213.435 470.29 215.046 478.39C216.658 486.49 220.634 493.93 226.474 499.77C232.314 505.61 239.754 509.587 247.854 511.198C255.954 512.809 264.349 511.982 271.979 508.822C279.609 505.661 286.131 500.309 290.719 493.442C295.307 486.576 297.756 478.503 297.756 470.244C297.743 459.174 293.34 448.56 285.512 440.732C277.684 432.904 267.071 428.501 256 428.488ZM256 498.012C250.51 498.012 245.144 496.384 240.58 493.334C236.015 490.284 232.458 485.95 230.357 480.878C228.256 475.806 227.706 470.225 228.777 464.841C229.848 459.457 232.492 454.511 236.374 450.63C240.255 446.748 245.201 444.104 250.585 443.033C255.969 441.962 261.55 442.512 266.622 444.613C271.694 446.714 276.028 450.271 279.078 454.836C282.128 459.4 283.756 464.766 283.756 470.256C283.748 477.615 280.821 484.67 275.617 489.873C270.414 495.077 263.359 498.004 256 498.012ZM407.496 146.244C417.147 146.236 426.497 142.882 433.953 136.754C441.408 130.625 446.509 122.102 448.385 112.635C450.261 103.168 448.797 93.3433 444.243 84.8346C439.688 76.3259 432.324 69.6595 423.406 65.9711C414.487 62.2826 404.566 61.8003 395.331 64.6062C386.097 67.4122 378.121 73.3328 372.763 81.3595C367.404 89.3863 364.994 99.0226 365.943 108.627C366.892 118.231 371.142 127.209 377.968 134.032C381.843 137.912 386.446 140.989 391.514 143.084C396.581 145.18 402.012 146.254 407.496 146.244ZM387.868 84.88C392.409 80.3379 398.384 77.5108 404.776 76.8806C411.168 76.2503 417.58 77.8559 422.921 81.4237C428.261 84.9916 432.2 90.3009 434.064 96.4469C435.929 102.593 435.605 109.195 433.147 115.129C430.689 121.063 426.25 125.961 420.586 128.989C414.922 132.016 408.383 132.986 402.083 131.733C395.784 130.48 390.114 127.081 386.04 122.116C381.966 117.151 379.739 110.927 379.74 104.504C379.735 100.859 380.451 97.2486 381.846 93.8808C383.24 90.5131 385.287 87.4542 387.868 84.88ZM104.504 365.74C94.8457 365.742 85.4868 369.092 78.0218 375.22C70.5568 381.349 65.4475 389.876 63.5645 399.349C61.6815 408.822 63.1413 418.654 67.6951 427.172C72.2489 435.689 79.615 442.364 88.5384 446.059C97.4618 449.755 107.39 450.242 116.633 447.438C125.875 444.633 133.859 438.711 139.224 430.681C144.59 422.65 147.005 413.007 146.058 403.395C145.112 393.784 140.861 384.798 134.032 377.968C130.163 374.078 125.562 370.995 120.493 368.896C115.425 366.797 109.99 365.724 104.504 365.74ZM124.132 427.12C119.591 431.662 113.616 434.489 107.224 435.119C100.832 435.75 94.4198 434.144 89.0792 430.576C83.7387 427.008 79.8005 421.699 77.9358 415.553C76.071 409.407 76.3952 402.805 78.8529 396.871C81.3106 390.937 85.7499 386.039 91.4142 383.011C97.0785 379.984 103.617 379.014 109.917 380.267C116.216 381.52 121.886 384.919 125.96 389.884C130.034 394.849 132.261 401.073 132.26 407.496C132.256 414.856 129.333 421.913 124.132 427.12ZM470.244 214.244C461.986 214.244 453.913 216.693 447.047 221.28C440.18 225.868 434.828 232.389 431.668 240.018C428.507 247.647 427.679 256.042 429.289 264.142C430.9 272.241 434.875 279.682 440.714 285.522C446.552 291.362 453.991 295.34 462.09 296.952C470.19 298.565 478.585 297.74 486.215 294.581C493.845 291.422 500.367 286.072 504.957 279.207C509.547 272.342 511.998 264.27 512 256.012C511.989 244.94 507.587 234.324 499.759 226.494C491.931 218.663 481.316 214.258 470.244 214.244ZM470.244 283.756C464.754 283.756 459.387 282.128 454.822 279.077C450.258 276.027 446.7 271.691 444.6 266.619C442.499 261.547 441.95 255.965 443.022 250.581C444.094 245.196 446.739 240.251 450.622 236.369C454.505 232.488 459.452 229.845 464.836 228.776C470.221 227.706 475.803 228.258 480.874 230.36C485.946 232.463 490.28 236.022 493.328 240.588C496.377 245.154 498.002 250.522 498 256.012C497.988 263.369 495.06 270.421 489.857 275.621C484.654 280.822 477.601 283.748 470.244 283.756ZM83.512 256.012C83.5144 247.753 81.0675 239.679 76.4807 232.81C71.8939 225.942 65.3734 220.588 57.7437 217.426C50.114 214.264 41.7178 213.435 33.6172 215.045C25.5165 216.655 18.0752 220.631 12.2343 226.47C6.39343 232.309 2.41536 239.749 0.803227 247.849C-0.80891 255.95 0.0172966 264.346 3.17736 271.977C6.33742 279.607 11.6894 286.129 18.5564 290.718C25.4234 295.307 33.4969 297.756 41.756 297.756C52.8244 297.743 63.436 293.342 71.2637 285.516C79.0914 277.691 83.4961 267.08 83.512 256.012ZM41.756 283.756C36.2659 283.756 30.8991 282.128 26.3344 279.077C21.7697 276.027 18.2121 271.691 16.1117 266.619C14.0112 261.547 13.4623 255.965 14.5342 250.581C15.6062 245.196 18.2509 240.251 22.1338 236.369C26.0168 232.488 30.9635 229.845 36.3484 228.776C41.7334 227.706 47.3146 228.258 52.3861 230.36C57.4576 232.463 61.7917 236.022 64.8401 240.588C67.8885 245.154 69.5144 250.522 69.512 256.012C69.5004 263.369 66.572 270.421 61.3689 275.621C56.1658 280.822 49.1127 283.748 41.756 283.756ZM377.968 377.968C372.128 383.808 368.151 391.248 366.54 399.348C364.929 407.448 365.756 415.843 368.917 423.473C372.077 431.103 377.429 437.625 384.296 442.213C391.162 446.801 399.235 449.25 407.494 449.25C415.753 449.25 423.826 446.801 430.692 442.213C437.559 437.625 442.911 431.103 446.072 423.473C449.232 415.843 450.059 407.448 448.448 399.348C446.837 391.248 442.86 383.808 437.02 377.968C433.162 374.056 428.565 370.95 423.496 368.831C418.428 366.711 412.988 365.619 407.494 365.619C402 365.619 396.56 366.711 391.492 368.831C386.423 370.95 381.826 374.056 377.968 377.968ZM427.12 427.12C422.579 431.662 416.604 434.489 410.212 435.119C403.82 435.75 397.408 434.144 392.067 430.576C386.727 427.008 382.789 421.699 380.924 415.553C379.059 409.407 379.383 402.805 381.841 396.871C384.299 390.937 388.738 386.039 394.402 383.011C400.067 379.984 406.605 379.014 412.905 380.267C419.204 381.52 424.874 384.919 428.948 389.884C433.022 394.849 435.249 401.073 435.248 407.496C435.244 414.856 432.321 421.913 427.12 427.12ZM104.504 146.264C114.166 146.265 123.529 142.916 130.998 136.788C138.467 130.66 143.58 122.131 145.466 112.655C147.352 103.18 145.894 93.3431 141.34 84.8219C136.787 76.3007 129.419 69.6221 120.494 65.9241C111.568 62.226 101.636 61.7374 92.3899 64.5414C83.1442 67.3454 75.1568 73.2685 69.7886 81.3016C64.4205 89.3346 62.0039 98.9805 62.9505 108.596C63.8971 118.211 68.1484 127.2 74.98 134.032C78.8478 137.922 83.4488 141.006 88.5166 143.106C93.5845 145.205 99.0185 146.279 104.504 146.264ZM84.88 84.88C88.7619 80.9968 93.7083 78.352 99.0935 77.2801C104.479 76.2082 110.061 76.7574 115.134 78.8582C120.207 80.959 124.543 84.5171 127.594 89.0824C130.644 93.6477 132.273 99.0152 132.273 104.506C132.273 109.997 130.644 115.364 127.594 119.93C124.543 124.495 120.207 128.053 115.134 130.154C110.061 132.255 104.479 132.804 99.0935 131.732C93.7083 130.66 88.7619 128.015 84.88 124.132C82.2922 121.561 80.2386 118.503 78.8372 115.135C77.4357 111.766 76.7143 108.154 76.7143 104.506C76.7143 100.858 77.4357 97.2458 78.8372 93.8775C80.2386 90.5093 82.2922 87.4515 84.88 84.88Z" fill="url(#paint0_linear_1164_1268)"/>
<path d="M367.728 286.639C368.377 287.289 369.148 287.805 369.997 288.158C370.846 288.51 371.756 288.691 372.676 288.691C373.595 288.691 374.505 288.51 375.354 288.158C376.203 287.805 376.974 287.289 377.624 286.639L403.312 260.951C403.962 260.302 404.478 259.53 404.83 258.681C405.182 257.832 405.363 256.922 405.363 256.003C405.363 255.084 405.182 254.174 404.83 253.325C404.478 252.476 403.962 251.704 403.312 251.055L377.624 225.367C376.303 224.092 374.535 223.387 372.699 223.403C370.864 223.42 369.108 224.156 367.811 225.454C366.513 226.752 365.777 228.508 365.762 230.344C365.746 232.179 366.452 233.947 367.728 235.267L381.528 249.067H341.128C339.692 231.271 332.695 214.378 321.128 200.779L349.628 172.279V191.615C349.628 193.471 350.365 195.252 351.678 196.565C352.991 197.877 354.771 198.615 356.628 198.615C358.484 198.615 360.265 197.877 361.577 196.565C362.89 195.252 363.628 193.471 363.628 191.615V155.291C363.628 153.434 362.89 151.654 361.577 150.341C360.265 149.028 358.484 148.291 356.628 148.291H320.32C318.463 148.291 316.683 149.028 315.37 150.341C314.057 151.654 313.32 153.434 313.32 155.291C313.32 157.147 314.057 158.928 315.37 160.241C316.683 161.553 318.463 162.291 320.32 162.291H339.84L311.248 190.883C297.663 179.317 280.783 172.32 263 170.883V130.539L276.676 144.215C277.988 145.528 279.769 146.265 281.626 146.265C283.482 146.265 285.263 145.528 286.576 144.215C287.888 142.902 288.626 141.122 288.626 139.265C288.626 137.408 287.888 135.628 286.576 134.315L260.888 108.627C259.574 107.315 257.794 106.578 255.938 106.578C254.081 106.578 252.301 107.315 250.988 108.627L225.3 134.315C223.987 135.628 223.249 137.408 223.249 139.265C223.249 141.122 223.987 142.902 225.3 144.215C226.612 145.528 228.393 146.265 230.25 146.265C232.106 146.265 233.887 145.528 235.2 144.215L249 130.415V170.871C231.185 172.316 214.279 179.338 200.684 190.939L172.036 162.291H191.556C193.412 162.291 195.193 161.553 196.505 160.241C197.818 158.928 198.556 157.147 198.556 155.291C198.556 153.434 197.818 151.654 196.505 150.341C195.193 149.028 193.412 148.291 191.556 148.291H155.228C153.371 148.292 151.591 149.03 150.279 150.342C148.966 151.655 148.229 153.435 148.228 155.291V191.615C148.228 193.471 148.965 195.252 150.278 196.565C151.591 197.877 153.371 198.615 155.228 198.615C157.084 198.615 158.865 197.877 160.177 196.565C161.49 195.252 162.228 193.471 162.228 191.615V172.279L190.8 200.847C179.269 214.436 172.298 231.303 170.872 249.067H130.348L144.148 235.267C145.46 233.954 146.198 232.174 146.198 230.317C146.198 228.46 145.46 226.68 144.148 225.367C142.835 224.054 141.054 223.317 139.198 223.317C137.341 223.317 135.56 224.054 134.248 225.367L108.564 251.055C107.913 251.704 107.397 252.476 107.045 253.325C106.693 254.174 106.512 255.084 106.512 256.003C106.512 256.922 106.693 257.832 107.045 258.681C107.397 259.53 107.913 260.302 108.564 260.951L134.248 286.639C134.893 287.308 135.665 287.841 136.519 288.208C137.373 288.575 138.292 288.768 139.221 288.777C140.151 288.785 141.073 288.608 141.933 288.256C142.793 287.904 143.575 287.385 144.232 286.728C144.89 286.071 145.41 285.289 145.762 284.429C146.114 283.569 146.291 282.647 146.283 281.718C146.275 280.788 146.082 279.87 145.716 279.015C145.349 278.161 144.816 277.389 144.148 276.743L130.472 263.067H170.872C172.325 280.827 179.321 297.682 190.872 311.251L162.224 339.903V320.387C162.224 318.53 161.486 316.75 160.173 315.437C158.861 314.124 157.08 313.387 155.224 313.387C153.367 313.387 151.587 314.124 150.274 315.437C148.961 316.75 148.224 318.53 148.224 320.387V356.715C148.225 358.571 148.962 360.351 150.275 361.664C151.587 362.976 153.367 363.714 155.224 363.715H191.552C193.408 363.715 195.189 362.977 196.501 361.665C197.814 360.352 198.552 358.572 198.552 356.715C198.552 354.858 197.814 353.078 196.501 351.765C195.189 350.452 193.408 349.715 191.552 349.715H172.212L200.776 321.151C214.356 332.709 231.226 339.705 249 341.151V381.591L235.2 367.791C233.887 366.478 232.106 365.741 230.25 365.741C228.393 365.741 226.612 366.478 225.3 367.791C223.987 369.104 223.249 370.884 223.249 372.741C223.249 374.598 223.987 376.378 225.3 377.691L250.988 403.379C251.637 404.03 252.409 404.546 253.258 404.898C254.108 405.25 255.018 405.431 255.938 405.431C256.857 405.431 257.767 405.25 258.617 404.898C259.466 404.546 260.238 404.03 260.888 403.379L286.576 377.691C287.888 376.378 288.626 374.598 288.626 372.741C288.626 370.884 287.888 369.104 286.576 367.791C285.263 366.478 283.482 365.741 281.626 365.741C279.769 365.741 277.988 366.478 276.676 367.791L263 381.467V341.135C280.741 339.701 297.585 332.734 311.156 321.215L339.664 349.723H320.32C318.463 349.723 316.683 350.46 315.37 351.773C314.057 353.086 313.32 354.866 313.32 356.723C313.32 358.58 314.057 360.36 315.37 361.673C316.683 362.985 318.463 363.723 320.32 363.723H356.648C358.504 363.723 360.285 362.985 361.597 361.673C362.91 360.36 363.648 358.58 363.648 356.723V320.387C363.648 318.53 362.91 316.75 361.597 315.437C360.285 314.124 358.504 313.387 356.648 313.387C354.791 313.387 353.011 314.124 351.698 315.437C350.385 316.75 349.648 318.53 349.648 320.387V339.903L321.064 311.315C332.65 297.737 339.671 280.857 341.132 263.067H381.404L367.728 276.743C367.077 277.392 366.561 278.164 366.209 279.013C365.857 279.862 365.676 280.772 365.676 281.691C365.676 282.61 365.857 283.52 366.209 284.369C366.561 285.218 367.077 285.99 367.728 286.639ZM256 184.515C265.377 184.51 274.664 186.356 283.327 189.946C291.99 193.537 299.859 198.802 306.484 205.439L306.532 205.499L306.58 205.539C319.875 218.823 327.382 236.821 327.468 255.615C327.468 255.763 327.424 255.903 327.424 256.051C327.424 256.199 327.456 256.311 327.464 256.451C327.361 275.26 319.827 293.266 306.504 306.543L306.444 306.587V306.611C298.122 314.905 287.884 321.019 276.636 324.412C265.388 327.806 253.476 328.375 241.956 326.067C230.436 323.76 219.662 318.649 210.589 311.185C201.515 303.722 194.421 294.137 189.935 283.278C185.448 272.42 183.708 260.622 184.868 248.931C186.028 237.239 190.052 226.014 196.585 216.249C203.117 206.483 211.956 198.479 222.319 192.944C232.683 187.409 244.251 184.514 256 184.515Z" fill="url(#paint1_linear_1164_1268)"/>
<defs>
<linearGradient id="paint0_linear_1164_1268" x1="18.2681" y1="33.0001" x2="505.955" y2="592.697" gradientUnits="userSpaceOnUse">
<stop stop-color="#1BA2D7"/>
<stop offset="1" stop-color="#8D3DFA"/>
</linearGradient>
<linearGradient id="paint1_linear_1164_1268" x1="117.175" y1="125.84" x2="401.836" y2="452.533" gradientUnits="userSpaceOnUse">
<stop stop-color="#1BA2D7"/>
<stop offset="1" stop-color="#8D3DFA"/>
</linearGradient>
</defs>
</svg>
