<svg width="449" height="481" viewBox="0 0 449 481" fill="none" xmlns="http://www.w3.org/2000/svg">
<path d="M192.104 208.102V272.102C192.104 274.223 191.261 276.258 189.76 277.758C188.26 279.259 186.225 280.102 184.104 280.102C182.707 280.093 181.338 279.719 180.131 279.018C178.924 278.316 177.922 277.311 177.224 276.102L144.104 232.102V272.102C144.104 274.223 143.261 276.258 141.76 277.758C140.26 279.259 138.225 280.102 136.104 280.102C133.982 280.102 131.947 279.259 130.447 277.758C128.946 276.258 128.104 274.223 128.104 272.102V208.102C128.104 205.98 128.946 203.945 130.447 202.445C131.947 200.944 133.982 200.102 136.104 200.102C137.5 200.11 138.869 200.484 140.076 201.185C141.283 201.887 142.285 202.892 142.984 204.102L176.104 248.102V208.102C176.104 205.98 176.946 203.945 178.447 202.445C179.947 200.944 181.982 200.102 184.104 200.102C186.225 200.102 188.26 200.944 189.76 202.445C191.261 203.945 192.104 205.98 192.104 208.102ZM248.104 216.102C250.225 216.102 252.26 215.259 253.76 213.758C255.261 212.258 256.104 210.223 256.104 208.102C256.104 205.98 255.261 203.945 253.76 202.445C252.26 200.944 250.225 200.102 248.104 200.102H216.104C213.982 200.102 211.947 200.944 210.447 202.445C208.946 203.945 208.104 205.98 208.104 208.102V272.102C208.104 274.223 208.946 276.258 210.447 277.758C211.947 279.259 213.982 280.102 216.104 280.102C218.225 280.102 220.26 279.259 221.76 277.758C223.261 276.258 224.104 274.223 224.104 272.102V248.102H248.104C250.225 248.102 252.26 247.259 253.76 245.758C255.261 244.258 256.104 242.223 256.104 240.102C256.104 237.98 255.261 235.945 253.76 234.445C252.26 232.944 250.225 232.102 248.104 232.102H224.104V216.102H248.104ZM296.104 280.102C298.225 280.102 300.26 279.259 301.76 277.758C303.261 276.258 304.104 274.223 304.104 272.102V216.102H312.104C314.225 216.102 316.26 215.259 317.76 213.758C319.261 212.258 320.104 210.223 320.104 208.102C320.104 205.98 319.261 203.945 317.76 202.445C316.26 200.944 314.225 200.102 312.104 200.102H280.104C277.982 200.102 275.947 200.944 274.447 202.445C272.946 203.945 272.104 205.98 272.104 208.102C272.104 210.223 272.946 212.258 274.447 213.758C275.947 215.259 277.982 216.102 280.104 216.102H288.104V272.102C288.104 274.223 288.946 276.258 290.447 277.758C291.947 279.259 293.982 280.102 296.104 280.102ZM0.103516 112.102H32.1035V144.102H0.103516V112.102ZM408.104 384.102H440.104V416.102H408.104V384.102Z" fill="url(#paint0_linear_1164_1261)"/>
<path d="M416.104 248.104C409.027 248.127 402.158 250.495 396.571 254.837C390.983 259.18 386.993 265.252 385.224 272.104H352.104V208.104H385.224C387.171 215.645 391.802 222.217 398.248 226.589C404.694 230.96 412.513 232.83 420.24 231.849C427.966 230.867 435.07 227.102 440.218 221.258C445.367 215.414 448.208 207.892 448.208 200.104C448.208 192.315 445.367 184.794 440.218 178.95C435.07 173.106 427.966 169.34 420.24 168.359C412.513 167.378 404.694 169.248 398.248 173.619C391.802 177.99 387.171 184.563 385.224 192.104H352.104V184.664C352.07 177.582 350.155 170.636 346.557 164.535C342.959 158.435 337.806 153.4 331.624 149.944L304.104 134.744V99.3839L320.104 83.3839C326.922 87.3586 334.956 88.7082 342.698 87.1794C350.441 85.6506 357.359 81.3485 362.154 75.0807C366.95 68.8128 369.293 61.0102 368.743 53.1374C368.194 45.2647 364.79 37.8631 359.17 32.3221C353.551 26.7811 346.102 23.4817 338.222 23.0432C330.343 22.6047 322.574 25.0572 316.374 29.9405C310.174 34.8237 305.97 41.8019 304.55 49.565C303.131 57.3282 304.594 65.3426 308.664 72.1039L290.424 90.2639C289.663 91.0303 289.065 91.9429 288.666 92.9465C288.268 93.9502 288.076 95.0242 288.104 96.1039V125.864L243.224 100.984C239.736 99.1073 235.988 97.7593 232.104 96.9839V62.9839C239.645 61.0367 246.217 56.406 250.589 49.9598C254.96 43.5136 256.83 35.6944 255.849 27.9679C254.867 20.2413 251.102 13.138 245.258 7.98929C239.414 2.84058 231.892 0 224.104 0C216.315 0 208.794 2.84058 202.95 7.98929C197.106 13.138 193.34 20.2413 192.359 27.9679C191.378 35.6944 193.248 43.5136 197.619 49.9598C201.99 56.406 208.563 61.0367 216.104 62.9839V96.9839C212.207 97.7555 208.455 99.1322 204.984 101.064L160.104 125.864V96.1039C160.11 95.051 159.908 94.0073 159.51 93.0326C159.112 92.0579 158.525 91.1714 157.784 90.4239L139.544 72.1039C143.552 65.3112 144.944 57.2899 143.461 49.5438C141.977 41.7978 137.719 34.8589 131.484 30.0281C125.25 25.1973 117.468 22.8064 109.597 23.3036C101.725 23.8008 94.3058 27.152 88.7289 32.7289C83.152 38.3058 79.8008 45.7253 79.3036 53.5966C78.8064 61.4678 81.1973 69.2501 86.0281 75.4844C90.8589 81.7187 97.7978 85.9769 105.544 87.4606C113.29 88.9444 121.311 87.5518 128.104 83.5439L144.104 99.5439V134.904L121.224 147.624C119.378 148.685 118.029 150.435 117.474 152.491C116.919 154.546 117.203 156.738 118.264 158.584C119.325 160.43 121.075 161.779 123.131 162.334C125.186 162.889 127.378 162.605 129.224 161.544L212.984 115.224C216.496 113.319 220.428 112.322 224.424 112.322C228.419 112.322 232.352 113.319 235.864 115.224L323.864 164.104C327.524 166.161 330.581 169.142 332.729 172.75C334.877 176.358 336.04 180.466 336.104 184.664V295.544C336.076 299.762 334.938 303.897 332.803 307.535C330.668 311.172 327.613 314.183 323.944 316.264L235.944 365.144C232.432 367.048 228.499 368.046 224.504 368.046C220.508 368.046 216.576 367.048 213.064 365.144L125.064 316.264C121.246 314.288 118.029 311.322 115.749 307.677C113.469 304.032 112.21 299.842 112.104 295.544V184.664C112.065 183.451 112.199 182.239 112.504 181.064C112.971 178.942 112.575 176.722 111.405 174.892C110.235 173.061 108.386 171.771 106.264 171.304C104.142 170.837 101.922 171.232 100.092 172.403C98.2612 173.573 96.9706 175.422 96.5039 177.544C96.0105 179.885 95.7691 182.272 95.7839 184.664V192.104H62.9839C61.0367 184.563 56.406 177.99 49.9598 173.619C43.5136 169.248 35.6944 167.378 27.9679 168.359C20.2413 169.34 13.138 173.106 7.98929 178.95C2.84058 184.794 0 192.315 0 200.104C0 207.892 2.84058 215.414 7.98929 221.258C13.138 227.102 20.2413 230.867 27.9679 231.849C35.6944 232.83 43.5136 230.96 49.9598 226.589C56.406 222.217 61.0367 215.645 62.9839 208.104H96.1039V272.104H62.9839C61.0367 264.563 56.406 257.99 49.9598 253.619C43.5136 249.248 35.6944 247.378 27.9679 248.359C20.2413 249.34 13.138 253.106 7.98929 258.95C2.84058 264.794 0 272.315 0 280.104C0 287.892 2.84058 295.414 7.98929 301.258C13.138 307.102 20.2413 310.867 27.9679 311.849C35.6944 312.83 43.5136 310.96 49.9598 306.589C56.406 302.217 61.0367 295.645 62.9839 288.104H96.1039V295.544C96.1382 302.626 98.0523 309.572 101.651 315.672C105.249 321.772 110.402 326.808 116.584 330.264L144.104 345.464V380.824L128.104 396.824C121.286 392.849 113.252 391.5 105.509 393.028C97.7669 394.557 90.8487 398.859 86.0533 405.127C81.2578 411.395 78.9149 419.198 79.4644 427.07C80.0138 434.943 83.4178 442.345 89.0374 447.886C94.657 453.427 102.106 456.726 109.985 457.164C117.865 457.603 125.634 455.151 131.834 450.267C138.033 445.384 142.238 438.406 143.657 430.643C145.077 422.88 143.614 414.865 139.544 408.104L157.784 389.944C158.545 389.177 159.143 388.265 159.541 387.261C159.94 386.257 160.131 385.184 160.104 384.104V354.344L204.984 379.224C208.472 381.1 212.22 382.448 216.104 383.224V417.224C208.563 419.171 201.99 423.802 197.619 430.248C193.248 436.694 191.378 444.513 192.359 452.24C193.34 459.966 197.106 467.07 202.95 472.218C208.794 477.367 216.315 480.208 224.104 480.208C231.892 480.208 239.414 477.367 245.258 472.218C251.102 467.07 254.867 459.966 255.849 452.24C256.83 444.513 254.96 436.694 250.589 430.248C246.217 423.802 239.645 419.171 232.104 417.224V383.224C236.001 382.452 239.753 381.076 243.224 379.144L288.104 354.344V384.104C288.098 385.157 288.3 386.2 288.698 387.175C289.096 388.15 289.682 389.036 290.424 389.784L308.664 408.104C304.656 414.897 303.263 422.918 304.747 430.664C306.231 438.41 310.489 445.349 316.723 450.18C322.958 455.01 330.74 457.401 338.611 456.904C346.482 456.407 353.902 453.056 359.479 447.479C365.056 441.902 368.407 434.482 368.904 426.611C369.401 418.74 367.01 410.958 362.18 404.723C357.349 398.489 350.41 394.231 342.664 392.747C334.918 391.263 326.897 392.656 320.104 396.664L304.104 380.664V345.464L331.704 330.184C337.859 326.724 342.989 321.697 346.572 315.613C350.155 309.529 352.063 302.605 352.104 295.544V288.104H385.224C386.721 293.903 389.816 299.166 394.157 303.293C398.497 307.42 403.909 310.247 409.776 311.451C415.643 312.654 421.73 312.188 427.345 310.103C432.96 308.018 437.878 304.4 441.538 299.659C445.198 294.917 447.454 289.244 448.049 283.284C448.645 277.325 447.555 271.317 444.905 265.946C442.255 260.575 438.151 256.055 433.06 252.901C427.968 249.746 422.093 248.084 416.104 248.104ZM416.104 184.104C419.268 184.104 422.362 185.042 424.993 186.8C427.624 188.558 429.675 191.057 430.886 193.981C432.097 196.905 432.414 200.122 431.796 203.225C431.179 206.329 429.655 209.18 427.418 211.418C425.18 213.655 422.329 215.179 419.225 215.796C416.122 216.414 412.905 216.097 409.981 214.886C407.057 213.675 404.558 211.624 402.8 208.993C401.042 206.362 400.104 203.268 400.104 200.104C400.104 195.86 401.79 191.791 404.79 188.79C407.791 185.79 411.86 184.104 416.104 184.104ZM336.104 40.1039C338.732 40.106 341.319 40.7553 343.636 41.9945C345.953 43.2337 347.93 45.0247 349.391 47.2091C350.852 49.3935 351.752 51.9041 352.012 54.5191C352.273 57.134 351.885 59.7729 350.883 62.2024C349.882 64.6319 348.297 66.7773 346.269 68.449C344.242 70.1207 341.834 71.2673 339.258 71.7874C336.682 72.3075 334.017 72.1851 331.5 71.431C328.983 70.677 326.69 69.3144 324.824 67.4639C322.572 65.2307 321.035 62.3789 320.408 59.2704C319.78 56.162 320.09 52.9371 321.299 50.0053C322.508 47.0736 324.56 44.5671 327.196 42.8041C329.832 41.0412 332.933 40.1013 336.104 40.1039ZM96.1039 56.1039C96.106 53.476 96.7553 50.889 97.9945 48.5717C99.2337 46.2543 101.025 44.2778 103.209 42.8169C105.393 41.356 107.904 40.4556 110.519 40.1953C113.134 39.935 115.773 40.3228 118.202 41.3245C120.632 42.3261 122.777 43.9108 124.449 45.9384C126.121 47.966 127.267 50.3742 127.787 52.9501C128.307 55.526 128.185 58.1904 127.431 60.7078C126.677 63.2252 125.314 65.5181 123.464 67.3839C121.231 69.6354 118.379 71.1726 115.27 71.8002C112.162 72.4278 108.937 72.1175 106.005 70.9088C103.074 69.7001 100.567 67.6474 98.8041 65.0114C97.0412 62.3754 96.1013 59.275 96.1039 56.1039ZM208.104 32.1039C208.104 28.9394 209.042 25.8459 210.8 23.2147C212.558 20.5836 215.057 18.5328 217.981 17.3218C220.905 16.1108 224.122 15.7939 227.225 16.4113C230.329 17.0287 233.18 18.5525 235.418 20.7902C237.655 23.0278 239.179 25.8787 239.796 28.9824C240.414 32.0861 240.097 35.3032 238.886 38.2268C237.675 41.1504 235.624 43.6493 232.993 45.4074C230.362 47.1655 227.268 48.1039 224.104 48.1039C219.86 48.1039 215.791 46.4182 212.79 43.4176C209.79 40.417 208.104 36.3473 208.104 32.1039ZM32.1039 216.104C28.9394 216.104 25.8459 215.165 23.2147 213.407C20.5836 211.649 18.5328 209.15 17.3218 206.227C16.1108 203.303 15.7939 200.086 16.4113 196.982C17.0287 193.879 18.5525 191.028 20.7902 188.79C23.0278 186.553 25.8787 185.029 28.9824 184.411C32.0861 183.794 35.3032 184.111 38.2268 185.322C41.1504 186.533 43.6493 188.584 45.4074 191.215C47.1655 193.846 48.1039 196.939 48.1039 200.104C48.1039 204.347 46.4182 208.417 43.4176 211.418C40.417 214.418 36.3473 216.104 32.1039 216.104ZM32.1039 296.104C28.9394 296.104 25.8459 295.166 23.2147 293.407C20.5836 291.649 18.5328 289.15 17.3218 286.227C16.1108 283.303 15.7939 280.086 16.4113 276.982C17.0287 273.879 18.5525 271.028 20.7902 268.79C23.0278 266.553 25.8787 265.029 28.9824 264.411C32.0861 263.794 35.3032 264.111 38.2268 265.322C41.1504 266.533 43.6493 268.584 45.4074 271.215C47.1655 273.846 48.1039 276.939 48.1039 280.104C48.1039 284.347 46.4182 288.417 43.4176 291.418C40.417 294.418 36.3473 296.104 32.1039 296.104ZM112.104 440.104C109.476 440.102 106.889 439.452 104.572 438.213C102.254 436.974 100.278 435.183 98.8169 432.999C97.356 430.814 96.4556 428.304 96.1953 425.689C95.935 423.074 96.3228 420.435 97.3245 418.005C98.3261 415.576 99.9108 413.43 101.938 411.759C103.966 410.087 106.374 408.94 108.95 408.42C111.526 407.9 114.19 408.023 116.708 408.777C119.225 409.531 121.518 410.893 123.384 412.744C125.635 414.977 127.173 417.829 127.8 420.937C128.428 424.046 128.118 427.271 126.909 430.202C125.7 433.134 123.647 435.641 121.011 437.404C118.375 439.167 115.275 440.106 112.104 440.104ZM240.104 448.104C240.104 451.268 239.165 454.362 237.407 456.993C235.649 459.624 233.15 461.675 230.227 462.886C227.303 464.097 224.086 464.414 220.982 463.796C217.879 463.179 215.028 461.655 212.79 459.418C210.553 457.18 209.029 454.329 208.411 451.225C207.794 448.122 208.111 444.905 209.322 441.981C210.533 439.057 212.584 436.558 215.215 434.8C217.846 433.042 220.939 432.104 224.104 432.104C228.347 432.104 232.417 433.79 235.418 436.79C238.418 439.791 240.104 443.86 240.104 448.104ZM352.104 424.104C352.102 426.732 351.452 429.319 350.213 431.636C348.974 433.953 347.183 435.93 344.999 437.391C342.814 438.852 340.304 439.752 337.689 440.012C335.074 440.273 332.435 439.885 330.005 438.883C327.576 437.882 325.43 436.297 323.759 434.269C322.087 432.242 320.94 429.834 320.42 427.258C319.9 424.682 320.023 422.017 320.777 419.5C321.531 416.983 322.893 414.69 324.744 412.824C326.977 410.572 329.829 409.035 332.937 408.408C336.046 407.78 339.271 408.09 342.202 409.299C345.134 410.508 347.641 412.56 349.404 415.196C351.167 417.832 352.106 420.933 352.104 424.104ZM416.104 296.104C412.939 296.104 409.846 295.166 407.215 293.407C404.584 291.649 402.533 289.15 401.322 286.227C400.111 283.303 399.794 280.086 400.411 276.982C401.029 273.879 402.553 271.028 404.79 268.79C407.028 266.553 409.879 265.029 412.982 264.411C416.086 263.794 419.303 264.111 422.227 265.322C425.15 266.533 427.649 268.584 429.407 271.215C431.166 273.846 432.104 276.939 432.104 280.104C432.104 284.347 430.418 288.417 427.418 291.418C424.417 294.418 420.347 296.104 416.104 296.104Z" fill="url(#paint1_linear_1164_1261)"/>
<defs>
<linearGradient id="paint0_linear_1164_1261" x1="15.8026" y1="131.695" x2="274.134" y2="560.805" gradientUnits="userSpaceOnUse">
<stop stop-color="#1BA2D7"/>
<stop offset="1" stop-color="#8D3DFA"/>
</linearGradient>
<linearGradient id="paint1_linear_1164_1261" x1="15.992" y1="30.951" x2="476.652" y2="524.4" gradientUnits="userSpaceOnUse">
<stop stop-color="#1BA2D7"/>
<stop offset="1" stop-color="#8D3DFA"/>
</linearGradient>
</defs>
</svg>
