<svg width="487" height="361" viewBox="0 0 487 361" fill="none" xmlns="http://www.w3.org/2000/svg">
<path d="M210.697 189.959H179.231C174.958 189.959 171.461 193.455 171.461 197.728C171.461 199.282 171.85 200.836 173.015 202.39C174.181 204.332 176.511 205.497 179.231 205.497H210.697C214.97 205.497 218.466 202.001 218.466 197.728C218.466 193.455 214.97 189.959 210.697 189.959ZM260.809 189.959H241.774C237.501 189.959 234.005 193.455 234.005 197.728C234.005 202.001 237.501 205.497 241.774 205.497H254.982C256.536 201.613 258.478 197.339 260.809 189.959ZM202.927 268.817H179.231C175.346 268.817 172.238 271.537 171.461 275.033V276.587C171.461 279.306 173.015 281.637 174.958 283.191C184.281 279.306 188.165 277.752 202.927 271.537V268.817ZM215.747 150.335V110.711H252.651C251.097 106.827 249.155 102.165 246.047 95.1726H231.285V92.4533L225.847 92.8418L215.747 82.7416V95.1726H208.366C204.093 95.1726 200.596 98.6688 200.596 102.942V158.104C200.596 161.989 203.316 165.097 207.2 165.874H247.212V150.335H215.747ZM134.168 47.7795H126.399C124.068 47.7795 121.349 47.7795 118.241 47.3911L105.422 33.4062C85.9985 41.5641 85.6101 41.5641 66.1867 49.7219L66.9636 68.7568L43.2671 92.4533L24.2322 91.6764C16.0744 111.1 16.0744 111.488 7.91658 130.912L21.9014 143.731V177.139L7.13965 190.347C15.2975 209.77 15.2975 210.159 23.4553 229.582L42.4902 228.805L66.1867 252.502L65.4098 271.537C84.8331 279.695 85.2216 279.695 104.645 287.852L117.464 273.868H141.938V47.7795H134.168ZM117.464 264.544C115.134 264.544 113.191 265.71 111.637 267.264L102.703 277.364L73.5676 265.321L74.3445 252.113C74.3445 250.171 73.5676 247.84 72.0137 246.286L48.3172 222.59C46.7633 221.036 44.821 220.259 42.4902 220.259L28.8938 221.036L16.8513 191.901L26.9515 182.966C28.8938 181.412 29.6708 179.47 29.6708 177.139V143.731C29.6708 141.4 28.5054 139.458 26.9515 137.904L16.8513 128.969L28.8938 99.8342L42.4902 100.611C44.4325 100.611 46.7633 99.8342 48.3172 98.2803L72.0137 74.5838C73.5676 73.0299 74.3445 71.0876 74.3445 68.7568L73.5676 55.1604L102.703 43.1179L111.637 53.2181C113.191 55.1604 115.134 55.9374 117.464 55.9374H126.399V87.7917C89.8832 91.6764 61.1366 122.754 61.1366 160.435C61.1366 198.116 89.8832 229.194 126.399 233.078V264.544H117.464ZM126.399 217.151C98.4295 213.267 76.6753 189.182 76.6753 160.047C76.6753 131.3 98.041 106.827 126.399 102.942V217.151ZM179.231 229.582C174.958 229.582 171.461 233.078 171.461 237.352C171.461 241.625 174.958 245.121 179.231 245.121H209.531L225.07 229.582H179.231Z" fill="url(#paint0_linear_1164_1237)"/>
<path d="M249.543 189.959L251.485 191.513L245.658 205.498H261.585L267.024 192.679C267.413 191.902 267.412 190.736 267.412 189.959H249.543ZM238.666 150.336V165.875H253.428V150.336H238.666ZM209.919 268.818H186.223L171.461 275.034V276.588C171.461 279.307 173.015 281.638 174.957 283.192C176.123 283.969 177.677 284.357 179.23 284.357H188.554L205.258 277.365C207.977 276.199 209.919 273.092 209.919 269.984V268.818ZM253.428 95.1735H231.285V85.0733H227.789L217.689 74.9732C216.912 76.9155 216.523 78.8578 216.135 80.8002C216.135 81.5771 215.746 81.9656 215.746 82.7425V94.0081L216.912 95.1735L220.019 98.2812C221.573 99.8351 223.516 100.612 225.846 100.612L239.443 99.8351L244.104 110.712H260.032L253.428 95.1735ZM120.572 40.788L110.083 29.134C108.141 26.8032 104.645 26.0263 101.537 27.1917L62.3017 43.5073C59.5825 44.6727 57.6401 47.7804 57.6401 50.8882L58.4171 66.4269L39.7706 85.0733L24.2319 84.2964C21.1242 83.9079 18.0165 85.8502 16.8511 88.958L0.535422 128.193C-0.62998 130.912 0.146955 134.409 2.47776 136.739L14.1318 147.228V173.644L2.47776 184.132C0.146955 186.075 -0.62998 189.571 0.535422 192.679L17.2395 232.302C18.4049 235.022 21.1242 236.964 24.6204 236.964L40.1591 236.187L58.8055 254.834L58.0286 270.372C57.6401 273.48 59.5825 276.588 62.6902 277.753L101.925 293.68C104.645 294.846 108.141 294.069 110.472 291.738L120.96 280.084H141.938V264.545H117.464C115.133 264.545 113.191 265.711 111.637 267.265L102.702 277.365L73.5673 265.322L74.3442 252.114C74.3442 250.172 73.5673 247.841 72.0134 246.287L48.3169 222.591C46.763 221.037 44.8207 220.26 42.4899 220.26L28.8935 221.037L16.8511 191.902L26.9512 182.967C28.8935 181.413 29.6705 179.471 29.6705 177.14V143.732C29.6705 141.401 28.5051 139.459 26.9512 137.905L16.8511 128.97L28.8935 99.8351L42.4899 100.612C44.4322 100.612 46.763 99.8351 48.3169 98.2812L72.0134 74.5847C73.5673 73.0308 74.3442 71.0885 74.3442 68.7577L73.5673 55.1613L102.702 43.1188L111.637 53.219C113.191 55.1613 115.133 55.9383 117.464 55.9383H141.938V40.788H120.572ZM212.639 229.583L197.1 245.122H218.466L227.789 235.799L243.328 236.576C246.435 236.964 249.543 235.022 250.708 231.914L251.485 229.583H212.639Z" fill="url(#paint1_linear_1164_1237)"/>
<path d="M134.168 95.1719C131.449 95.1719 129.118 95.1719 126.398 95.5603C94.1557 99.445 68.9053 127.026 68.9053 160.434C68.9053 193.843 94.1557 221.424 126.398 225.308C129.118 225.697 131.449 225.697 134.168 225.697C136.887 225.697 139.218 225.697 141.937 225.308V95.5603C139.218 95.1719 136.887 95.1719 134.168 95.1719ZM76.6746 160.046C76.6746 131.299 98.0403 106.826 126.398 102.941V216.762C98.4288 213.266 76.6746 188.793 76.6746 160.046ZM192.438 189.958C189.719 195.785 185.834 200.835 181.561 205.497H179.618C176.899 205.497 174.568 204.331 173.403 202.389C172.626 201.223 171.849 199.67 171.849 197.727C171.849 193.454 175.345 189.958 179.618 189.958H192.438Z" fill="url(#paint2_linear_1164_1237)"/>
<path d="M200.597 130.138V158.107C200.597 161.992 203.316 165.1 207.2 165.877V160.438C207.2 149.561 204.87 139.072 200.597 130.138ZM134.169 87.4063C131.449 87.4063 129.119 87.4062 126.399 87.7947C89.8833 91.6794 61.1367 122.757 61.1367 160.438C61.1367 198.119 89.8833 229.197 126.399 233.082C129.119 233.47 131.449 233.47 134.169 233.47C136.888 233.47 139.219 233.47 141.938 233.082V217.154C139.219 217.543 136.888 217.543 134.169 217.543C131.449 217.543 129.119 217.543 126.399 217.154C98.4296 213.27 76.6754 189.185 76.6754 160.05C76.6754 131.303 98.0411 106.83 126.399 102.945C129.119 102.556 131.449 102.556 134.169 102.556C136.888 102.556 139.607 102.945 141.938 102.945V87.7947C139.219 87.4062 136.888 87.4063 134.169 87.4063ZM183.115 189.962C180.396 194.623 176.9 198.508 173.015 202.393C174.181 204.335 176.512 205.5 179.231 205.5H191.662C195.546 200.839 198.654 195.4 200.985 189.962H183.115Z" fill="url(#paint3_linear_1164_1237)"/>
<path d="M210.696 189.957H179.23C174.957 189.957 171.461 193.453 171.461 197.726C171.461 199.28 171.849 200.834 173.015 202.388C174.18 204.33 176.511 205.496 179.23 205.496H210.696C214.969 205.496 218.465 201.999 218.465 197.726C218.465 193.453 214.969 189.957 210.696 189.957ZM322.575 268.816H256.535C252.262 268.816 248.766 272.312 248.766 276.585C248.766 280.858 252.262 284.354 256.535 284.354H322.575C326.848 284.354 330.344 280.858 330.344 276.585C330.344 272.312 326.848 268.816 322.575 268.816ZM322.575 229.58H302.374C298.101 229.58 294.605 233.077 294.605 237.35C294.605 241.623 298.101 245.119 302.374 245.119H322.575C326.848 245.119 330.344 241.623 330.344 237.35C330.344 233.077 326.848 229.58 322.575 229.58ZM322.575 229.58H302.374C298.101 229.58 294.605 233.077 294.605 237.35C294.605 241.623 298.101 245.119 302.374 245.119H322.575C326.848 245.119 330.344 241.623 330.344 237.35C330.344 233.077 326.848 229.58 322.575 229.58ZM322.575 268.816H256.535C252.262 268.816 248.766 272.312 248.766 276.585C248.766 280.858 252.262 284.354 256.535 284.354H322.575C326.848 284.354 330.344 280.858 330.344 276.585C330.344 272.312 326.848 268.816 322.575 268.816ZM322.575 189.957H241.773C237.5 189.957 234.004 193.453 234.004 197.726C234.004 201.999 237.5 205.496 241.773 205.496H322.575C326.848 205.496 330.344 201.999 330.344 197.726C330.344 193.453 326.848 189.957 322.575 189.957ZM225.069 268.816H209.919V269.981C209.919 273.089 207.977 276.197 205.257 277.362L188.553 284.354H225.458C229.731 284.354 232.839 280.858 232.839 276.585C232.839 272.312 229.342 268.816 225.069 268.816ZM271.297 229.58H179.23C174.957 229.58 171.461 233.077 171.461 237.35C171.461 241.623 174.957 245.119 179.23 245.119H271.297C275.57 245.119 279.066 241.623 279.066 237.35C279.066 233.077 275.57 229.58 271.297 229.58ZM293.828 95.1708H286.447V87.013C286.447 67.5896 270.52 51.6624 251.097 51.6624C235.558 51.6624 222.739 61.3741 217.688 74.9705L227.789 85.0706H231.285C232.45 75.359 240.996 67.5896 251.097 67.5896C261.974 67.5896 270.908 76.5244 270.908 87.4014V95.1708H246.047C249.154 102.163 250.708 106.825 252.651 110.709H285.67V150.333H215.746V110.709H244.104L239.443 99.8324L225.846 100.609C223.515 100.609 221.573 99.8324 220.019 98.2785L216.912 95.1708L215.746 94.0054V95.1708H208.365C204.092 95.1708 200.596 98.667 200.596 102.94V158.103C200.596 161.987 203.315 165.095 207.2 165.872H293.828C298.101 165.872 301.597 162.376 301.597 158.103V102.94C301.597 98.667 298.101 95.1708 293.828 95.1708ZM210.696 189.957H179.23C174.957 189.957 171.461 193.453 171.461 197.726C171.461 199.28 171.849 200.834 173.015 202.388C174.18 204.33 176.511 205.496 179.23 205.496H210.696C214.969 205.496 218.465 201.999 218.465 197.726C218.465 193.453 214.969 189.957 210.696 189.957ZM179.23 268.816C175.346 268.816 172.238 271.535 171.461 275.031L186.223 268.816H179.23ZM134.168 102.552V217.538C136.887 217.538 139.218 217.538 141.937 217.15V102.94C139.218 102.94 136.887 102.552 134.168 102.552ZM210.696 189.957H179.23C174.957 189.957 171.461 193.453 171.461 197.726C171.461 199.28 171.849 200.834 173.015 202.388C174.18 204.33 176.511 205.496 179.23 205.496H210.696C214.969 205.496 218.465 201.999 218.465 197.726C218.465 193.453 214.969 189.957 210.696 189.957ZM322.575 189.957H241.773C237.5 189.957 234.004 193.453 234.004 197.726C234.004 201.999 237.5 205.496 241.773 205.496H322.575C326.848 205.496 330.344 201.999 330.344 197.726C330.344 193.453 326.848 189.957 322.575 189.957ZM322.575 268.816H256.535C252.262 268.816 248.766 272.312 248.766 276.585C248.766 280.858 252.262 284.354 256.535 284.354H322.575C326.848 284.354 330.344 280.858 330.344 276.585C330.344 272.312 326.848 268.816 322.575 268.816ZM322.575 229.58H302.374C298.101 229.58 294.605 233.077 294.605 237.35C294.605 241.623 298.101 245.119 302.374 245.119H322.575C326.848 245.119 330.344 241.623 330.344 237.35C330.344 233.077 326.848 229.58 322.575 229.58ZM322.575 229.58H302.374C298.101 229.58 294.605 233.077 294.605 237.35C294.605 241.623 298.101 245.119 302.374 245.119H322.575C326.848 245.119 330.344 241.623 330.344 237.35C330.344 233.077 326.848 229.58 322.575 229.58ZM322.575 268.816H256.535C252.262 268.816 248.766 272.312 248.766 276.585C248.766 280.858 252.262 284.354 256.535 284.354H322.575C326.848 284.354 330.344 280.858 330.344 276.585C330.344 272.312 326.848 268.816 322.575 268.816ZM322.575 189.957H241.773C237.5 189.957 234.004 193.453 234.004 197.726C234.004 201.999 237.5 205.496 241.773 205.496H322.575C326.848 205.496 330.344 201.999 330.344 197.726C330.344 193.453 326.848 189.957 322.575 189.957ZM225.069 268.816H209.919V269.981C209.919 273.089 207.977 276.197 205.257 277.362L188.553 284.354H225.458C229.731 284.354 232.839 280.858 232.839 276.585C232.839 272.312 229.342 268.816 225.069 268.816ZM271.297 229.58H179.23C174.957 229.58 171.461 233.077 171.461 237.35C171.461 241.623 174.957 245.119 179.23 245.119H271.297C275.57 245.119 279.066 241.623 279.066 237.35C279.066 233.077 275.57 229.58 271.297 229.58ZM293.828 95.1708H286.447V87.013C286.447 67.5896 270.52 51.6624 251.097 51.6624C235.558 51.6624 222.739 61.3741 217.688 74.9705L227.789 85.0706H231.285C232.45 75.359 240.996 67.5896 251.097 67.5896C261.974 67.5896 270.908 76.5244 270.908 87.4014V95.1708H246.047C249.154 102.163 250.708 106.825 252.651 110.709H285.67V150.333H215.746V110.709H244.104L239.443 99.8324L225.846 100.609C223.515 100.609 221.573 99.8324 220.019 98.2785L216.912 95.1708L215.746 94.0054V95.1708H208.365C204.092 95.1708 200.596 98.667 200.596 102.94V158.103C200.596 161.987 203.315 165.095 207.2 165.872H293.828C298.101 165.872 301.597 162.376 301.597 158.103V102.94C301.597 98.667 298.101 95.1708 293.828 95.1708ZM210.696 189.957H179.23C174.957 189.957 171.461 193.453 171.461 197.726C171.461 199.28 171.849 200.834 173.015 202.388C174.18 204.33 176.511 205.496 179.23 205.496H210.696C214.969 205.496 218.465 201.999 218.465 197.726C218.465 193.453 214.969 189.957 210.696 189.957ZM179.23 268.816C175.346 268.816 172.238 271.535 171.461 275.031L186.223 268.816H179.23ZM134.168 102.552V217.538C136.887 217.538 139.218 217.538 141.937 217.15V102.94C139.218 102.94 136.887 102.552 134.168 102.552ZM210.696 189.957H179.23C174.957 189.957 171.461 193.453 171.461 197.726C171.461 199.28 171.849 200.834 173.015 202.388C174.18 204.33 176.511 205.496 179.23 205.496H210.696C214.969 205.496 218.465 201.999 218.465 197.726C218.465 193.453 214.969 189.957 210.696 189.957ZM322.575 189.957H241.773C237.5 189.957 234.004 193.453 234.004 197.726C234.004 201.999 237.5 205.496 241.773 205.496H322.575C326.848 205.496 330.344 201.999 330.344 197.726C330.344 193.453 326.848 189.957 322.575 189.957ZM322.575 268.816H256.535C252.262 268.816 248.766 272.312 248.766 276.585C248.766 280.858 252.262 284.354 256.535 284.354H322.575C326.848 284.354 330.344 280.858 330.344 276.585C330.344 272.312 326.848 268.816 322.575 268.816ZM322.575 229.58H302.374C298.101 229.58 294.605 233.077 294.605 237.35C294.605 241.623 298.101 245.119 302.374 245.119H322.575C326.848 245.119 330.344 241.623 330.344 237.35C330.344 233.077 326.848 229.58 322.575 229.58ZM322.575 229.58H302.374C298.101 229.58 294.605 233.077 294.605 237.35C294.605 241.623 298.101 245.119 302.374 245.119H322.575C326.848 245.119 330.344 241.623 330.344 237.35C330.344 233.077 326.848 229.58 322.575 229.58ZM322.575 268.816H256.535C252.262 268.816 248.766 272.312 248.766 276.585C248.766 280.858 252.262 284.354 256.535 284.354H322.575C326.848 284.354 330.344 280.858 330.344 276.585C330.344 272.312 326.848 268.816 322.575 268.816ZM322.575 189.957H241.773C237.5 189.957 234.004 193.453 234.004 197.726C234.004 201.999 237.5 205.496 241.773 205.496H322.575C326.848 205.496 330.344 201.999 330.344 197.726C330.344 193.453 326.848 189.957 322.575 189.957ZM225.069 268.816H209.919V269.981C209.919 273.089 207.977 276.197 205.257 277.362L188.553 284.354H225.458C229.731 284.354 232.839 280.858 232.839 276.585C232.839 272.312 229.342 268.816 225.069 268.816ZM271.297 229.58H179.23C174.957 229.58 171.461 233.077 171.461 237.35C171.461 241.623 174.957 245.119 179.23 245.119H271.297C275.57 245.119 279.066 241.623 279.066 237.35C279.066 233.077 275.57 229.58 271.297 229.58ZM293.828 95.1708H286.447V87.013C286.447 67.5896 270.52 51.6624 251.097 51.6624C235.558 51.6624 222.739 61.3741 217.688 74.9705L227.789 85.0706H231.285C232.45 75.359 240.996 67.5896 251.097 67.5896C261.974 67.5896 270.908 76.5244 270.908 87.4014V95.1708H246.047C249.154 102.163 250.708 106.825 252.651 110.709H285.67V150.333H215.746V110.709H244.104L239.443 99.8324L225.846 100.609C223.515 100.609 221.573 99.8324 220.019 98.2785L216.912 95.1708L215.746 94.0054V95.1708H208.365C204.092 95.1708 200.596 98.667 200.596 102.94V158.103C200.596 161.987 203.315 165.095 207.2 165.872H293.828C298.101 165.872 301.597 162.376 301.597 158.103V102.94C301.597 98.667 298.101 95.1708 293.828 95.1708ZM210.696 189.957H179.23C174.957 189.957 171.461 193.453 171.461 197.726C171.461 199.28 171.849 200.834 173.015 202.388C174.18 204.33 176.511 205.496 179.23 205.496H210.696C214.969 205.496 218.465 201.999 218.465 197.726C218.465 193.453 214.969 189.957 210.696 189.957ZM179.23 268.816C175.346 268.816 172.238 271.535 171.461 275.031L186.223 268.816H179.23ZM134.168 102.552V217.538C136.887 217.538 139.218 217.538 141.937 217.15V102.94C139.218 102.94 136.887 102.552 134.168 102.552ZM210.696 189.957H179.23C174.957 189.957 171.461 193.453 171.461 197.726C171.461 199.28 171.849 200.834 173.015 202.388C174.18 204.33 176.511 205.496 179.23 205.496H210.696C214.969 205.496 218.465 201.999 218.465 197.726C218.465 193.453 214.969 189.957 210.696 189.957ZM271.297 229.58H179.23C174.957 229.58 171.461 233.077 171.461 237.35C171.461 241.623 174.957 245.119 179.23 245.119H271.297C275.57 245.119 279.066 241.623 279.066 237.35C279.066 233.077 275.57 229.58 271.297 229.58ZM225.069 268.816H179.23C175.346 268.816 172.238 271.535 171.461 275.031V276.585C171.461 279.304 173.015 281.635 174.957 283.189C176.122 283.966 177.676 284.354 179.23 284.354H225.458C229.731 284.354 232.839 280.858 232.839 276.585C232.839 272.312 229.342 268.816 225.069 268.816ZM322.575 189.957H241.773C237.5 189.957 234.004 193.453 234.004 197.726C234.004 201.999 237.5 205.496 241.773 205.496H322.575C326.848 205.496 330.344 201.999 330.344 197.726C330.344 193.453 326.848 189.957 322.575 189.957ZM322.575 268.816H256.535C252.262 268.816 248.766 272.312 248.766 276.585C248.766 280.858 252.262 284.354 256.535 284.354H322.575C326.848 284.354 330.344 280.858 330.344 276.585C330.344 272.312 326.848 268.816 322.575 268.816ZM322.575 229.58H302.374C298.101 229.58 294.605 233.077 294.605 237.35C294.605 241.623 298.101 245.119 302.374 245.119H322.575C326.848 245.119 330.344 241.623 330.344 237.35C330.344 233.077 326.848 229.58 322.575 229.58ZM322.575 229.58H302.374C298.101 229.58 294.605 233.077 294.605 237.35C294.605 241.623 298.101 245.119 302.374 245.119H322.575C326.848 245.119 330.344 241.623 330.344 237.35C330.344 233.077 326.848 229.58 322.575 229.58ZM322.575 268.816H256.535C252.262 268.816 248.766 272.312 248.766 276.585C248.766 280.858 252.262 284.354 256.535 284.354H322.575C326.848 284.354 330.344 280.858 330.344 276.585C330.344 272.312 326.848 268.816 322.575 268.816ZM322.575 189.957H241.773C237.5 189.957 234.004 193.453 234.004 197.726C234.004 201.999 237.5 205.496 241.773 205.496H322.575C326.848 205.496 330.344 201.999 330.344 197.726C330.344 193.453 326.848 189.957 322.575 189.957ZM225.069 268.816H179.23C175.346 268.816 172.238 271.535 171.461 275.031V276.585C171.461 279.304 173.015 281.635 174.957 283.189C176.122 283.966 177.676 284.354 179.23 284.354H225.458C229.731 284.354 232.839 280.858 232.839 276.585C232.839 272.312 229.342 268.816 225.069 268.816ZM271.297 229.58H179.23C174.957 229.58 171.461 233.077 171.461 237.35C171.461 241.623 174.957 245.119 179.23 245.119H271.297C275.57 245.119 279.066 241.623 279.066 237.35C279.066 233.077 275.57 229.58 271.297 229.58ZM293.828 95.1708H286.447V87.013C286.447 67.5896 270.52 51.6624 251.097 51.6624C235.558 51.6624 222.739 61.3741 217.688 74.9705L227.789 85.0706H231.285C232.45 75.359 240.996 67.5896 251.097 67.5896C261.974 67.5896 270.908 76.5244 270.908 87.4014V95.1708H246.047C249.154 102.163 250.708 106.825 252.651 110.709H285.67V150.333H215.746V110.709H244.104L239.443 99.8324L225.846 100.609C223.515 100.609 221.573 99.8324 220.019 98.2785L216.912 95.1708L215.746 94.0054V95.1708H208.365C204.092 95.1708 200.596 98.667 200.596 102.94V158.103C200.596 161.987 203.315 165.095 207.2 165.872H293.828C298.101 165.872 301.597 162.376 301.597 158.103V102.94C301.597 98.667 298.101 95.1708 293.828 95.1708ZM210.696 189.957H179.23C174.957 189.957 171.461 193.453 171.461 197.726C171.461 199.28 171.849 200.834 173.015 202.388C174.18 204.33 176.511 205.496 179.23 205.496H210.696C214.969 205.496 218.465 201.999 218.465 197.726C218.465 193.453 214.969 189.957 210.696 189.957ZM134.168 102.552V217.538C136.887 217.538 139.218 217.538 141.937 217.15V102.94C139.218 102.94 136.887 102.552 134.168 102.552ZM210.696 189.957H179.23C174.957 189.957 171.461 193.453 171.461 197.726C171.461 199.28 171.849 200.834 173.015 202.388C174.18 204.33 176.511 205.496 179.23 205.496H210.696C214.969 205.496 218.465 201.999 218.465 197.726C218.465 193.453 214.969 189.957 210.696 189.957ZM271.297 229.58H179.23C174.957 229.58 171.461 233.077 171.461 237.35C171.461 241.623 174.957 245.119 179.23 245.119H271.297C275.57 245.119 279.066 241.623 279.066 237.35C279.066 233.077 275.57 229.58 271.297 229.58ZM225.069 268.816H179.23C175.346 268.816 172.238 271.535 171.461 275.031V276.585C171.461 279.304 173.015 281.635 174.957 283.189C176.122 283.966 177.676 284.354 179.23 284.354H225.458C229.731 284.354 232.839 280.858 232.839 276.585C232.839 272.312 229.342 268.816 225.069 268.816ZM322.575 189.957H241.773C237.5 189.957 234.004 193.453 234.004 197.726C234.004 201.999 237.5 205.496 241.773 205.496H322.575C326.848 205.496 330.344 201.999 330.344 197.726C330.344 193.453 326.848 189.957 322.575 189.957ZM322.575 268.816H256.535C252.262 268.816 248.766 272.312 248.766 276.585C248.766 280.858 252.262 284.354 256.535 284.354H322.575C326.848 284.354 330.344 280.858 330.344 276.585C330.344 272.312 326.848 268.816 322.575 268.816ZM322.575 229.58H302.374C298.101 229.58 294.605 233.077 294.605 237.35C294.605 241.623 298.101 245.119 302.374 245.119H322.575C326.848 245.119 330.344 241.623 330.344 237.35C330.344 233.077 326.848 229.58 322.575 229.58ZM322.575 229.58H302.374C298.101 229.58 294.605 233.077 294.605 237.35C294.605 241.623 298.101 245.119 302.374 245.119H322.575C326.848 245.119 330.344 241.623 330.344 237.35C330.344 233.077 326.848 229.58 322.575 229.58ZM322.575 268.816H256.535C252.262 268.816 248.766 272.312 248.766 276.585C248.766 280.858 252.262 284.354 256.535 284.354H322.575C326.848 284.354 330.344 280.858 330.344 276.585C330.344 272.312 326.848 268.816 322.575 268.816ZM322.575 189.957H241.773C237.5 189.957 234.004 193.453 234.004 197.726C234.004 201.999 237.5 205.496 241.773 205.496H322.575C326.848 205.496 330.344 201.999 330.344 197.726C330.344 193.453 326.848 189.957 322.575 189.957ZM225.069 268.816H179.23C175.346 268.816 172.238 271.535 171.461 275.031V276.585C171.461 279.304 173.015 281.635 174.957 283.189C176.122 283.966 177.676 284.354 179.23 284.354H225.458C229.731 284.354 232.839 280.858 232.839 276.585C232.839 272.312 229.342 268.816 225.069 268.816ZM271.297 229.58H179.23C174.957 229.58 171.461 233.077 171.461 237.35C171.461 241.623 174.957 245.119 179.23 245.119H271.297C275.57 245.119 279.066 241.623 279.066 237.35C279.066 233.077 275.57 229.58 271.297 229.58ZM293.828 95.1708H286.447V87.013C286.447 67.5896 270.52 51.6624 251.097 51.6624C235.558 51.6624 222.739 61.3741 217.688 74.9705L227.789 85.0706H231.285C232.45 75.359 240.996 67.5896 251.097 67.5896C261.974 67.5896 270.908 76.5244 270.908 87.4014V95.1708H246.047C249.154 102.163 250.708 106.825 252.651 110.709H285.67V150.333H215.746V110.709H244.104L239.443 99.8324L225.846 100.609C223.515 100.609 221.573 99.8324 220.019 98.2785L216.912 95.1708L215.746 94.0054V95.1708H208.365C204.092 95.1708 200.596 98.667 200.596 102.94V158.103C200.596 161.987 203.315 165.095 207.2 165.872H293.828C298.101 165.872 301.597 162.376 301.597 158.103V102.94C301.597 98.667 298.101 95.1708 293.828 95.1708ZM210.696 189.957H179.23C174.957 189.957 171.461 193.453 171.461 197.726C171.461 199.28 171.849 200.834 173.015 202.388C174.18 204.33 176.511 205.496 179.23 205.496H210.696C214.969 205.496 218.465 201.999 218.465 197.726C218.465 193.453 214.969 189.957 210.696 189.957ZM134.168 102.552V217.538C136.887 217.538 139.218 217.538 141.937 217.15V102.94C139.218 102.94 136.887 102.552 134.168 102.552ZM210.696 189.957H179.23C174.957 189.957 171.461 193.453 171.461 197.726C171.461 199.28 171.849 200.834 173.015 202.388C174.18 204.33 176.511 205.496 179.23 205.496H210.696C214.969 205.496 218.465 201.999 218.465 197.726C218.465 193.453 214.969 189.957 210.696 189.957ZM271.297 229.58H179.23C174.957 229.58 171.461 233.077 171.461 237.35C171.461 241.623 174.957 245.119 179.23 245.119H271.297C275.57 245.119 279.066 241.623 279.066 237.35C279.066 233.077 275.57 229.58 271.297 229.58ZM225.069 268.816H179.23C175.346 268.816 172.238 271.535 171.461 275.031V276.585C171.461 279.304 173.015 281.635 174.957 283.189C176.122 283.966 177.676 284.354 179.23 284.354H225.458C229.731 284.354 232.839 280.858 232.839 276.585C232.839 272.312 229.342 268.816 225.069 268.816ZM322.575 189.957H241.773C237.5 189.957 234.004 193.453 234.004 197.726C234.004 201.999 237.5 205.496 241.773 205.496H322.575C326.848 205.496 330.344 201.999 330.344 197.726C330.344 193.453 326.848 189.957 322.575 189.957ZM322.575 268.816H256.535C252.262 268.816 248.766 272.312 248.766 276.585C248.766 280.858 252.262 284.354 256.535 284.354H322.575C326.848 284.354 330.344 280.858 330.344 276.585C330.344 272.312 326.848 268.816 322.575 268.816ZM322.575 229.58H302.374C298.101 229.58 294.605 233.077 294.605 237.35C294.605 241.623 298.101 245.119 302.374 245.119H322.575C326.848 245.119 330.344 241.623 330.344 237.35C330.344 233.077 326.848 229.58 322.575 229.58ZM322.575 229.58H302.374C298.101 229.58 294.605 233.077 294.605 237.35C294.605 241.623 298.101 245.119 302.374 245.119H322.575C326.848 245.119 330.344 241.623 330.344 237.35C330.344 233.077 326.848 229.58 322.575 229.58ZM322.575 268.816H256.535C252.262 268.816 248.766 272.312 248.766 276.585C248.766 280.858 252.262 284.354 256.535 284.354H322.575C326.848 284.354 330.344 280.858 330.344 276.585C330.344 272.312 326.848 268.816 322.575 268.816ZM322.575 189.957H241.773C237.5 189.957 234.004 193.453 234.004 197.726C234.004 201.999 237.5 205.496 241.773 205.496H322.575C326.848 205.496 330.344 201.999 330.344 197.726C330.344 193.453 326.848 189.957 322.575 189.957ZM225.069 268.816H179.23C175.346 268.816 172.238 271.535 171.461 275.031V276.585C171.461 279.304 173.015 281.635 174.957 283.189C176.122 283.966 177.676 284.354 179.23 284.354H225.458C229.731 284.354 232.839 280.858 232.839 276.585C232.839 272.312 229.342 268.816 225.069 268.816ZM271.297 229.58H179.23C174.957 229.58 171.461 233.077 171.461 237.35C171.461 241.623 174.957 245.119 179.23 245.119H271.297C275.57 245.119 279.066 241.623 279.066 237.35C279.066 233.077 275.57 229.58 271.297 229.58ZM293.828 95.1708H286.447V87.013C286.447 67.5896 270.52 51.6624 251.097 51.6624C235.558 51.6624 222.739 61.3741 217.688 74.9705L227.789 85.0706H231.285C232.45 75.359 240.996 67.5896 251.097 67.5896C261.974 67.5896 270.908 76.5244 270.908 87.4014V95.1708H246.047C249.154 102.163 250.708 106.825 252.651 110.709H285.67V150.333H215.746V110.709H244.104L239.443 99.8324L225.846 100.609C223.515 100.609 221.573 99.8324 220.019 98.2785L216.912 95.1708L215.746 94.0054V95.1708H208.365C204.092 95.1708 200.596 98.667 200.596 102.94V158.103C200.596 161.987 203.315 165.095 207.2 165.872H293.828C298.101 165.872 301.597 162.376 301.597 158.103V102.94C301.597 98.667 298.101 95.1708 293.828 95.1708ZM210.696 189.957H179.23C174.957 189.957 171.461 193.453 171.461 197.726C171.461 199.28 171.849 200.834 173.015 202.388C174.18 204.33 176.511 205.496 179.23 205.496H210.696C214.969 205.496 218.465 201.999 218.465 197.726C218.465 193.453 214.969 189.957 210.696 189.957ZM134.168 102.552V217.538C136.887 217.538 139.218 217.538 141.937 217.15V102.94C139.218 102.94 136.887 102.552 134.168 102.552ZM210.696 189.957H179.23C174.957 189.957 171.461 193.453 171.461 197.726C171.461 199.28 171.849 200.834 173.015 202.388C174.18 204.33 176.511 205.496 179.23 205.496H210.696C214.969 205.496 218.465 201.999 218.465 197.726C218.465 193.453 214.969 189.957 210.696 189.957ZM271.297 229.58H179.23C174.957 229.58 171.461 233.077 171.461 237.35C171.461 241.623 174.957 245.119 179.23 245.119H271.297C275.57 245.119 279.066 241.623 279.066 237.35C279.066 233.077 275.57 229.58 271.297 229.58ZM225.069 268.816H179.23C175.346 268.816 172.238 271.535 171.461 275.031V276.585C171.461 279.304 173.015 281.635 174.957 283.189C176.122 283.966 177.676 284.354 179.23 284.354H225.458C229.731 284.354 232.839 280.858 232.839 276.585C232.839 272.312 229.342 268.816 225.069 268.816ZM322.575 189.957H241.773C237.5 189.957 234.004 193.453 234.004 197.726C234.004 201.999 237.5 205.496 241.773 205.496H322.575C326.848 205.496 330.344 201.999 330.344 197.726C330.344 193.453 326.848 189.957 322.575 189.957ZM322.575 268.816H256.535C252.262 268.816 248.766 272.312 248.766 276.585C248.766 280.858 252.262 284.354 256.535 284.354H322.575C326.848 284.354 330.344 280.858 330.344 276.585C330.344 272.312 326.848 268.816 322.575 268.816ZM322.575 229.58H302.374C298.101 229.58 294.605 233.077 294.605 237.35C294.605 241.623 298.101 245.119 302.374 245.119H322.575C326.848 245.119 330.344 241.623 330.344 237.35C330.344 233.077 326.848 229.58 322.575 229.58ZM322.575 229.58H302.374C298.101 229.58 294.605 233.077 294.605 237.35C294.605 241.623 298.101 245.119 302.374 245.119H322.575C326.848 245.119 330.344 241.623 330.344 237.35C330.344 233.077 326.848 229.58 322.575 229.58ZM322.575 268.816H256.535C252.262 268.816 248.766 272.312 248.766 276.585C248.766 280.858 252.262 284.354 256.535 284.354H322.575C326.848 284.354 330.344 280.858 330.344 276.585C330.344 272.312 326.848 268.816 322.575 268.816ZM322.575 189.957H241.773C237.5 189.957 234.004 193.453 234.004 197.726C234.004 201.999 237.5 205.496 241.773 205.496H322.575C326.848 205.496 330.344 201.999 330.344 197.726C330.344 193.453 326.848 189.957 322.575 189.957ZM225.069 268.816H179.23C175.346 268.816 172.238 271.535 171.461 275.031V276.585C171.461 279.304 173.015 281.635 174.957 283.189C176.122 283.966 177.676 284.354 179.23 284.354H225.458C229.731 284.354 232.839 280.858 232.839 276.585C232.839 272.312 229.342 268.816 225.069 268.816ZM271.297 229.58H179.23C174.957 229.58 171.461 233.077 171.461 237.35C171.461 241.623 174.957 245.119 179.23 245.119H271.297C275.57 245.119 279.066 241.623 279.066 237.35C279.066 233.077 275.57 229.58 271.297 229.58ZM293.828 95.1708H286.447V87.013C286.447 67.5896 270.52 51.6624 251.097 51.6624C235.558 51.6624 222.739 61.3741 217.688 74.9705L227.789 85.0706H231.285C232.45 75.359 240.996 67.5896 251.097 67.5896C261.974 67.5896 270.908 76.5244 270.908 87.4014V95.1708H246.047C249.154 102.163 250.708 106.825 252.651 110.709H285.67V150.333H215.746V110.709H244.104L239.443 99.8324L225.846 100.609C223.515 100.609 221.573 99.8324 220.019 98.2785L216.912 95.1708L215.746 94.0054V95.1708H208.365C204.092 95.1708 200.596 98.667 200.596 102.94V158.103C200.596 161.987 203.315 165.095 207.2 165.872H293.828C298.101 165.872 301.597 162.376 301.597 158.103V102.94C301.597 98.667 298.101 95.1708 293.828 95.1708ZM210.696 189.957H179.23C174.957 189.957 171.461 193.453 171.461 197.726C171.461 199.28 171.849 200.834 173.015 202.388C174.18 204.33 176.511 205.496 179.23 205.496H210.696C214.969 205.496 218.465 201.999 218.465 197.726C218.465 193.453 214.969 189.957 210.696 189.957ZM134.168 102.552V217.538C136.887 217.538 139.218 217.538 141.937 217.15V102.94C139.218 102.94 136.887 102.552 134.168 102.552ZM210.696 189.957H179.23C174.957 189.957 171.461 193.453 171.461 197.726C171.461 199.28 171.849 200.834 173.015 202.388C174.18 204.33 176.511 205.496 179.23 205.496H210.696C214.969 205.496 218.465 201.999 218.465 197.726C218.465 193.453 214.969 189.957 210.696 189.957ZM271.297 229.58H179.23C174.957 229.58 171.461 233.077 171.461 237.35C171.461 241.623 174.957 245.119 179.23 245.119H271.297C275.57 245.119 279.066 241.623 279.066 237.35C279.066 233.077 275.57 229.58 271.297 229.58ZM225.069 268.816H179.23C175.346 268.816 172.238 271.535 171.461 275.031V276.585C171.461 279.304 173.015 281.635 174.957 283.189C176.122 283.966 177.676 284.354 179.23 284.354H225.458C229.731 284.354 232.839 280.858 232.839 276.585C232.839 272.312 229.342 268.816 225.069 268.816ZM322.575 189.957H241.773C237.5 189.957 234.004 193.453 234.004 197.726C234.004 201.999 237.5 205.496 241.773 205.496H322.575C326.848 205.496 330.344 201.999 330.344 197.726C330.344 193.453 326.848 189.957 322.575 189.957ZM322.575 268.816H256.535C252.262 268.816 248.766 272.312 248.766 276.585C248.766 280.858 252.262 284.354 256.535 284.354H322.575C326.848 284.354 330.344 280.858 330.344 276.585C330.344 272.312 326.848 268.816 322.575 268.816ZM322.575 229.58H302.374C298.101 229.58 294.605 233.077 294.605 237.35C294.605 241.623 298.101 245.119 302.374 245.119H322.575C326.848 245.119 330.344 241.623 330.344 237.35C330.344 233.077 326.848 229.58 322.575 229.58ZM322.575 229.58H302.374C298.101 229.58 294.605 233.077 294.605 237.35C294.605 241.623 298.101 245.119 302.374 245.119H322.575C326.848 245.119 330.344 241.623 330.344 237.35C330.344 233.077 326.848 229.58 322.575 229.58ZM322.575 268.816H256.535C252.262 268.816 248.766 272.312 248.766 276.585C248.766 280.858 252.262 284.354 256.535 284.354H322.575C326.848 284.354 330.344 280.858 330.344 276.585C330.344 272.312 326.848 268.816 322.575 268.816ZM322.575 189.957H241.773C237.5 189.957 234.004 193.453 234.004 197.726C234.004 201.999 237.5 205.496 241.773 205.496H322.575C326.848 205.496 330.344 201.999 330.344 197.726C330.344 193.453 326.848 189.957 322.575 189.957ZM225.069 268.816H179.23C175.346 268.816 172.238 271.535 171.461 275.031V276.585C171.461 279.304 173.015 281.635 174.957 283.189C176.122 283.966 177.676 284.354 179.23 284.354H225.458C229.731 284.354 232.839 280.858 232.839 276.585C232.839 272.312 229.342 268.816 225.069 268.816ZM271.297 229.58H179.23C174.957 229.58 171.461 233.077 171.461 237.35C171.461 241.623 174.957 245.119 179.23 245.119H271.297C275.57 245.119 279.066 241.623 279.066 237.35C279.066 233.077 275.57 229.58 271.297 229.58ZM293.828 95.1708H286.447V87.013C286.447 67.5896 270.52 51.6624 251.097 51.6624C235.558 51.6624 222.739 61.3741 217.688 74.9705L227.789 85.0706H231.285C232.45 75.359 240.996 67.5896 251.097 67.5896C261.974 67.5896 270.908 76.5244 270.908 87.4014V95.1708H246.047C249.154 102.163 250.708 106.825 252.651 110.709H285.67V150.333H215.746V110.709H244.104L239.443 99.8324L225.846 100.609C223.515 100.609 221.573 99.8324 220.019 98.2785L216.912 95.1708L215.746 94.0054V95.1708H208.365C204.092 95.1708 200.596 98.667 200.596 102.94V158.103C200.596 161.987 203.315 165.095 207.2 165.872H293.828C298.101 165.872 301.597 162.376 301.597 158.103V102.94C301.597 98.667 298.101 95.1708 293.828 95.1708ZM210.696 189.957H179.23C174.957 189.957 171.461 193.453 171.461 197.726C171.461 199.28 171.849 200.834 173.015 202.388C174.18 204.33 176.511 205.496 179.23 205.496H210.696C214.969 205.496 218.465 201.999 218.465 197.726C218.465 193.453 214.969 189.957 210.696 189.957ZM134.168 102.552V217.538C136.887 217.538 139.218 217.538 141.937 217.15V102.94C139.218 102.94 136.887 102.552 134.168 102.552ZM210.696 189.957H179.23C174.957 189.957 171.461 193.453 171.461 197.726C171.461 199.28 171.849 200.834 173.015 202.388C174.18 204.33 176.511 205.496 179.23 205.496H210.696C214.969 205.496 218.465 201.999 218.465 197.726C218.465 193.453 214.969 189.957 210.696 189.957ZM271.297 229.58H179.23C174.957 229.58 171.461 233.077 171.461 237.35C171.461 241.623 174.957 245.119 179.23 245.119H271.297C275.57 245.119 279.066 241.623 279.066 237.35C279.066 233.077 275.57 229.58 271.297 229.58ZM225.069 268.816H179.23C175.346 268.816 172.238 271.535 171.461 275.031V276.585C171.461 279.304 173.015 281.635 174.957 283.189C176.122 283.966 177.676 284.354 179.23 284.354H225.458C229.731 284.354 232.839 280.858 232.839 276.585C232.839 272.312 229.342 268.816 225.069 268.816ZM322.575 189.957H241.773C237.5 189.957 234.004 193.453 234.004 197.726C234.004 201.999 237.5 205.496 241.773 205.496H322.575C326.848 205.496 330.344 201.999 330.344 197.726C330.344 193.453 326.848 189.957 322.575 189.957ZM322.575 268.816H256.535C252.262 268.816 248.766 272.312 248.766 276.585C248.766 280.858 252.262 284.354 256.535 284.354H322.575C326.848 284.354 330.344 280.858 330.344 276.585C330.344 272.312 326.848 268.816 322.575 268.816ZM322.575 229.58H302.374C298.101 229.58 294.605 233.077 294.605 237.35C294.605 241.623 298.101 245.119 302.374 245.119H322.575C326.848 245.119 330.344 241.623 330.344 237.35C330.344 233.077 326.848 229.58 322.575 229.58ZM322.575 229.58H302.374C298.101 229.58 294.605 233.077 294.605 237.35C294.605 241.623 298.101 245.119 302.374 245.119H322.575C326.848 245.119 330.344 241.623 330.344 237.35C330.344 233.077 326.848 229.58 322.575 229.58ZM322.575 268.816H256.535C252.262 268.816 248.766 272.312 248.766 276.585C248.766 280.858 252.262 284.354 256.535 284.354H322.575C326.848 284.354 330.344 280.858 330.344 276.585C330.344 272.312 326.848 268.816 322.575 268.816ZM241.773 189.957C237.5 189.957 234.004 193.453 234.004 197.726C234.004 201.999 237.5 205.496 241.773 205.496H322.575C326.848 205.496 330.344 201.999 330.344 197.726C330.344 193.453 326.848 189.957 322.575 189.957H241.773ZM225.069 268.816H179.23C175.346 268.816 172.238 271.535 171.461 275.031V276.585C171.461 279.304 173.015 281.635 174.957 283.189C176.122 283.966 177.676 284.354 179.23 284.354H225.458C229.731 284.354 232.839 280.858 232.839 276.585C232.839 272.312 229.342 268.816 225.069 268.816ZM179.23 245.119H271.297C275.57 245.119 279.066 241.623 279.066 237.35C279.066 233.077 275.57 229.58 271.297 229.58H179.23C174.957 229.58 171.461 233.077 171.461 237.35C171.461 241.623 174.957 245.119 179.23 245.119ZM206.811 165.872H293.44C297.713 165.872 301.209 162.376 301.209 158.103V102.94C301.209 98.667 297.713 95.1708 293.44 95.1708H286.059V87.013C286.059 67.5896 270.132 51.6624 250.708 51.6624C235.169 51.6624 222.35 61.3741 217.3 74.9705L227.4 85.0706H230.896C232.062 75.359 240.608 67.5896 250.708 67.5896C261.585 67.5896 270.52 76.5244 270.52 87.4014V95.1708H245.658C248.766 102.163 250.32 106.825 252.262 110.709H285.282V150.333H215.358V110.709H243.716L239.443 99.8324L225.846 100.609C223.515 100.609 221.573 99.8324 220.019 98.2785L216.912 95.1708L215.746 94.0054V95.1708H208.365C204.092 95.1708 200.596 98.667 200.596 102.94V158.103C200.596 161.987 203.315 165.095 206.811 165.872ZM179.23 205.496H210.696C214.969 205.496 218.465 201.999 218.465 197.726C218.465 193.453 214.969 189.957 210.696 189.957H179.23C174.957 189.957 171.461 193.453 171.461 197.726C171.461 199.28 171.849 200.834 173.015 202.388C174.18 204.33 176.511 205.496 179.23 205.496ZM134.168 217.538C136.887 217.538 139.218 217.538 141.937 217.15V102.94C139.607 102.552 136.887 102.552 134.168 102.552V217.538ZM302.374 7.76562H134.168V320.87H367.637V73.0281L302.374 7.76562ZM348.99 65.2588H310.144V26.4121L348.99 65.2588ZM359.868 313.101H141.937V15.535H294.605V73.0281C294.605 77.3013 298.101 80.7975 302.374 80.7975H359.868V313.101ZM322.575 229.58H302.374C298.101 229.58 294.605 233.077 294.605 237.35C294.605 241.623 298.101 245.119 302.374 245.119H322.575C326.848 245.119 330.344 241.623 330.344 237.35C330.344 233.077 326.848 229.58 322.575 229.58ZM322.575 268.816H256.535C252.262 268.816 248.766 272.312 248.766 276.585C248.766 280.858 252.262 284.354 256.535 284.354H322.575C326.848 284.354 330.344 280.858 330.344 276.585C330.344 272.312 326.848 268.816 322.575 268.816ZM241.773 189.957C237.5 189.957 234.004 193.453 234.004 197.726C234.004 201.999 237.5 205.496 241.773 205.496H322.575C326.848 205.496 330.344 201.999 330.344 197.726C330.344 193.453 326.848 189.957 322.575 189.957H241.773ZM225.069 268.816H179.23C175.346 268.816 172.238 271.535 171.461 275.031V276.585C171.461 279.304 173.015 281.635 174.957 283.189C176.122 283.966 177.676 284.354 179.23 284.354H225.458C229.731 284.354 232.839 280.858 232.839 276.585C232.839 272.312 229.342 268.816 225.069 268.816ZM179.23 245.119H271.297C275.57 245.119 279.066 241.623 279.066 237.35C279.066 233.077 275.57 229.58 271.297 229.58H179.23C174.957 229.58 171.461 233.077 171.461 237.35C171.461 241.623 174.957 245.119 179.23 245.119ZM206.811 165.872H293.44C297.713 165.872 301.209 162.376 301.209 158.103V102.94C301.209 98.667 297.713 95.1708 293.44 95.1708H286.059V87.013C286.059 67.5896 270.132 51.6624 250.708 51.6624C235.169 51.6624 222.35 61.3741 217.3 74.9705C216.523 76.9128 216.135 78.8552 215.746 80.7975C215.746 81.5744 215.358 81.9629 215.358 82.7398V95.1708H208.365C204.092 95.1708 200.596 98.667 200.596 102.94V158.103C200.596 161.987 203.315 165.095 206.811 165.872ZM251.097 67.2011C261.974 67.2011 270.908 76.1359 270.908 87.013V95.1708H231.285V85.0706C232.45 74.9705 240.996 67.2011 251.097 67.2011ZM215.746 110.709H285.67V150.333H215.746V110.709ZM179.23 205.496H210.696C214.969 205.496 218.465 201.999 218.465 197.726C218.465 193.453 214.969 189.957 210.696 189.957H179.23C174.957 189.957 171.461 193.453 171.461 197.726C171.461 199.28 171.849 200.834 173.015 202.388C174.18 204.33 176.511 205.496 179.23 205.496ZM134.168 102.552V217.538C136.887 217.538 139.218 217.538 141.937 217.15V102.94C139.218 102.94 136.887 102.552 134.168 102.552ZM210.696 189.957H179.23C174.957 189.957 171.461 193.453 171.461 197.726C171.461 199.28 171.849 200.834 173.015 202.388C174.18 204.33 176.511 205.496 179.23 205.496H210.696C214.969 205.496 218.465 201.999 218.465 197.726C218.465 193.453 214.969 189.957 210.696 189.957ZM293.828 95.1708H286.447V87.013C286.447 67.5896 270.52 51.6624 251.097 51.6624C235.558 51.6624 222.739 61.3741 217.688 74.9705L227.789 85.0706H231.285C232.45 75.359 240.996 67.5896 251.097 67.5896C261.974 67.5896 270.908 76.5244 270.908 87.4014V95.1708H246.047C249.154 102.163 250.708 106.825 252.651 110.709H285.67V150.333H215.746V110.709H244.104L239.443 99.8324L225.846 100.609C223.515 100.609 221.573 99.8324 220.019 98.2785L216.912 95.1708L215.746 94.0054V95.1708H208.365C204.092 95.1708 200.596 98.667 200.596 102.94V158.103C200.596 161.987 203.315 165.095 207.2 165.872H293.828C298.101 165.872 301.597 162.376 301.597 158.103V102.94C301.597 98.667 298.101 95.1708 293.828 95.1708ZM271.297 229.58H179.23C174.957 229.58 171.461 233.077 171.461 237.35C171.461 241.623 174.957 245.119 179.23 245.119H271.297C275.57 245.119 279.066 241.623 279.066 237.35C279.066 233.077 275.57 229.58 271.297 229.58ZM225.069 268.816H179.23C175.346 268.816 172.238 271.535 171.461 275.031V276.585C171.461 279.304 173.015 281.635 174.957 283.189C176.122 283.966 177.676 284.354 179.23 284.354H225.458C229.731 284.354 232.839 280.858 232.839 276.585C232.839 272.312 229.342 268.816 225.069 268.816ZM322.575 189.957H241.773C237.5 189.957 234.004 193.453 234.004 197.726C234.004 201.999 237.5 205.496 241.773 205.496H322.575C326.848 205.496 330.344 201.999 330.344 197.726C330.344 193.453 326.848 189.957 322.575 189.957ZM322.575 268.816H256.535C252.262 268.816 248.766 272.312 248.766 276.585C248.766 280.858 252.262 284.354 256.535 284.354H322.575C326.848 284.354 330.344 280.858 330.344 276.585C330.344 272.312 326.848 268.816 322.575 268.816ZM322.575 229.58H302.374C298.101 229.58 294.605 233.077 294.605 237.35C294.605 241.623 298.101 245.119 302.374 245.119H322.575C326.848 245.119 330.344 241.623 330.344 237.35C330.344 233.077 326.848 229.58 322.575 229.58ZM322.575 229.58H302.374C298.101 229.58 294.605 233.077 294.605 237.35C294.605 241.623 298.101 245.119 302.374 245.119H322.575C326.848 245.119 330.344 241.623 330.344 237.35C330.344 233.077 326.848 229.58 322.575 229.58ZM322.575 268.816H256.535C252.262 268.816 248.766 272.312 248.766 276.585C248.766 280.858 252.262 284.354 256.535 284.354H322.575C326.848 284.354 330.344 280.858 330.344 276.585C330.344 272.312 326.848 268.816 322.575 268.816ZM322.575 189.957H241.773C237.5 189.957 234.004 193.453 234.004 197.726C234.004 201.999 237.5 205.496 241.773 205.496H322.575C326.848 205.496 330.344 201.999 330.344 197.726C330.344 193.453 326.848 189.957 322.575 189.957ZM225.069 268.816H179.23C175.346 268.816 172.238 271.535 171.461 275.031V276.585C171.461 279.304 173.015 281.635 174.957 283.189C176.122 283.966 177.676 284.354 179.23 284.354H225.458C229.731 284.354 232.839 280.858 232.839 276.585C232.839 272.312 229.342 268.816 225.069 268.816ZM271.297 229.58H179.23C174.957 229.58 171.461 233.077 171.461 237.35C171.461 241.623 174.957 245.119 179.23 245.119H271.297C275.57 245.119 279.066 241.623 279.066 237.35C279.066 233.077 275.57 229.58 271.297 229.58ZM210.696 189.957H179.23C174.957 189.957 171.461 193.453 171.461 197.726C171.461 199.28 171.849 200.834 173.015 202.388C174.18 204.33 176.511 205.496 179.23 205.496H210.696C214.969 205.496 218.465 201.999 218.465 197.726C218.465 193.453 214.969 189.957 210.696 189.957ZM134.168 102.552V217.538C136.887 217.538 139.218 217.538 141.937 217.15V102.94C139.218 102.94 136.887 102.552 134.168 102.552ZM210.696 189.957H179.23C174.957 189.957 171.461 193.453 171.461 197.726C171.461 199.28 171.849 200.834 173.015 202.388C174.18 204.33 176.511 205.496 179.23 205.496H210.696C214.969 205.496 218.465 201.999 218.465 197.726C218.465 193.453 214.969 189.957 210.696 189.957ZM293.828 95.1708H286.447V87.013C286.447 67.5896 270.52 51.6624 251.097 51.6624C235.558 51.6624 222.739 61.3741 217.688 74.9705L227.789 85.0706H231.285C232.45 75.359 240.996 67.5896 251.097 67.5896C261.974 67.5896 270.908 76.5244 270.908 87.4014V95.1708H246.047C249.154 102.163 250.708 106.825 252.651 110.709H285.67V150.333H215.746V110.709H244.104L239.443 99.8324L225.846 100.609C223.515 100.609 221.573 99.8324 220.019 98.2785L216.912 95.1708L215.746 94.0054V95.1708H208.365C204.092 95.1708 200.596 98.667 200.596 102.94V158.103C200.596 161.987 203.315 165.095 207.2 165.872H293.828C298.101 165.872 301.597 162.376 301.597 158.103V102.94C301.597 98.667 298.101 95.1708 293.828 95.1708ZM271.297 229.58H179.23C174.957 229.58 171.461 233.077 171.461 237.35C171.461 241.623 174.957 245.119 179.23 245.119H271.297C275.57 245.119 279.066 241.623 279.066 237.35C279.066 233.077 275.57 229.58 271.297 229.58ZM225.069 268.816H179.23C175.346 268.816 172.238 271.535 171.461 275.031V276.585C171.461 279.304 173.015 281.635 174.957 283.189C176.122 283.966 177.676 284.354 179.23 284.354H225.458C229.731 284.354 232.839 280.858 232.839 276.585C232.839 272.312 229.342 268.816 225.069 268.816ZM322.575 189.957H241.773C237.5 189.957 234.004 193.453 234.004 197.726C234.004 201.999 237.5 205.496 241.773 205.496H322.575C326.848 205.496 330.344 201.999 330.344 197.726C330.344 193.453 326.848 189.957 322.575 189.957ZM322.575 268.816H256.535C252.262 268.816 248.766 272.312 248.766 276.585C248.766 280.858 252.262 284.354 256.535 284.354H322.575C326.848 284.354 330.344 280.858 330.344 276.585C330.344 272.312 326.848 268.816 322.575 268.816ZM322.575 229.58H302.374C298.101 229.58 294.605 233.077 294.605 237.35C294.605 241.623 298.101 245.119 302.374 245.119H322.575C326.848 245.119 330.344 241.623 330.344 237.35C330.344 233.077 326.848 229.58 322.575 229.58ZM322.575 229.58H302.374C298.101 229.58 294.605 233.077 294.605 237.35C294.605 241.623 298.101 245.119 302.374 245.119H322.575C326.848 245.119 330.344 241.623 330.344 237.35C330.344 233.077 326.848 229.58 322.575 229.58ZM322.575 268.816H256.535C252.262 268.816 248.766 272.312 248.766 276.585C248.766 280.858 252.262 284.354 256.535 284.354H322.575C326.848 284.354 330.344 280.858 330.344 276.585C330.344 272.312 326.848 268.816 322.575 268.816ZM322.575 189.957H241.773C237.5 189.957 234.004 193.453 234.004 197.726C234.004 201.999 237.5 205.496 241.773 205.496H322.575C326.848 205.496 330.344 201.999 330.344 197.726C330.344 193.453 326.848 189.957 322.575 189.957ZM225.069 268.816H179.23C175.346 268.816 172.238 271.535 171.461 275.031V276.585C171.461 279.304 173.015 281.635 174.957 283.189C176.122 283.966 177.676 284.354 179.23 284.354H225.458C229.731 284.354 232.839 280.858 232.839 276.585C232.839 272.312 229.342 268.816 225.069 268.816ZM271.297 229.58H179.23C174.957 229.58 171.461 233.077 171.461 237.35C171.461 241.623 174.957 245.119 179.23 245.119H271.297C275.57 245.119 279.066 241.623 279.066 237.35C279.066 233.077 275.57 229.58 271.297 229.58ZM210.696 189.957H179.23C174.957 189.957 171.461 193.453 171.461 197.726C171.461 199.28 171.849 200.834 173.015 202.388C174.18 204.33 176.511 205.496 179.23 205.496H210.696C214.969 205.496 218.465 201.999 218.465 197.726C218.465 193.453 214.969 189.957 210.696 189.957ZM134.168 102.552V217.538C136.887 217.538 139.218 217.538 141.937 217.15V102.94C139.218 102.94 136.887 102.552 134.168 102.552ZM210.696 189.957H179.23C174.957 189.957 171.461 193.453 171.461 197.726C171.461 199.28 171.849 200.834 173.015 202.388C174.18 204.33 176.511 205.496 179.23 205.496H210.696C214.969 205.496 218.465 201.999 218.465 197.726C218.465 193.453 214.969 189.957 210.696 189.957ZM293.828 95.1708H286.447V87.013C286.447 67.5896 270.52 51.6624 251.097 51.6624C235.558 51.6624 222.739 61.3741 217.688 74.9705L227.789 85.0706H231.285C232.45 75.359 240.996 67.5896 251.097 67.5896C261.974 67.5896 270.908 76.5244 270.908 87.4014V95.1708H246.047C249.154 102.163 250.708 106.825 252.651 110.709H285.67V150.333H215.746V110.709H244.104L239.443 99.8324L225.846 100.609C223.515 100.609 221.573 99.8324 220.019 98.2785L216.912 95.1708L215.746 94.0054V95.1708H208.365C204.092 95.1708 200.596 98.667 200.596 102.94V158.103C200.596 161.987 203.315 165.095 207.2 165.872H293.828C298.101 165.872 301.597 162.376 301.597 158.103V102.94C301.597 98.667 298.101 95.1708 293.828 95.1708ZM271.297 229.58H179.23C174.957 229.58 171.461 233.077 171.461 237.35C171.461 241.623 174.957 245.119 179.23 245.119H271.297C275.57 245.119 279.066 241.623 279.066 237.35C279.066 233.077 275.57 229.58 271.297 229.58ZM225.069 268.816H179.23C175.346 268.816 172.238 271.535 171.461 275.031V276.585C171.461 279.304 173.015 281.635 174.957 283.189C176.122 283.966 177.676 284.354 179.23 284.354H225.458C229.731 284.354 232.839 280.858 232.839 276.585C232.839 272.312 229.342 268.816 225.069 268.816ZM322.575 189.957H241.773C237.5 189.957 234.004 193.453 234.004 197.726C234.004 201.999 237.5 205.496 241.773 205.496H322.575C326.848 205.496 330.344 201.999 330.344 197.726C330.344 193.453 326.848 189.957 322.575 189.957ZM322.575 268.816H256.535C252.262 268.816 248.766 272.312 248.766 276.585C248.766 280.858 252.262 284.354 256.535 284.354H322.575C326.848 284.354 330.344 280.858 330.344 276.585C330.344 272.312 326.848 268.816 322.575 268.816ZM322.575 229.58H302.374C298.101 229.58 294.605 233.077 294.605 237.35C294.605 241.623 298.101 245.119 302.374 245.119H322.575C326.848 245.119 330.344 241.623 330.344 237.35C330.344 233.077 326.848 229.58 322.575 229.58ZM322.575 229.58H302.374C298.101 229.58 294.605 233.077 294.605 237.35C294.605 241.623 298.101 245.119 302.374 245.119H322.575C326.848 245.119 330.344 241.623 330.344 237.35C330.344 233.077 326.848 229.58 322.575 229.58ZM322.575 268.816H256.535C252.262 268.816 248.766 272.312 248.766 276.585C248.766 280.858 252.262 284.354 256.535 284.354H322.575C326.848 284.354 330.344 280.858 330.344 276.585C330.344 272.312 326.848 268.816 322.575 268.816ZM322.575 189.957H241.773C237.5 189.957 234.004 193.453 234.004 197.726C234.004 201.999 237.5 205.496 241.773 205.496H322.575C326.848 205.496 330.344 201.999 330.344 197.726C330.344 193.453 326.848 189.957 322.575 189.957ZM225.069 268.816H179.23C175.346 268.816 172.238 271.535 171.461 275.031V276.585C171.461 279.304 173.015 281.635 174.957 283.189C176.122 283.966 177.676 284.354 179.23 284.354H225.458C229.731 284.354 232.839 280.858 232.839 276.585C232.839 272.312 229.342 268.816 225.069 268.816ZM271.297 229.58H179.23C174.957 229.58 171.461 233.077 171.461 237.35C171.461 241.623 174.957 245.119 179.23 245.119H271.297C275.57 245.119 279.066 241.623 279.066 237.35C279.066 233.077 275.57 229.58 271.297 229.58ZM210.696 189.957H179.23C174.957 189.957 171.461 193.453 171.461 197.726C171.461 199.28 171.849 200.834 173.015 202.388C174.18 204.33 176.511 205.496 179.23 205.496H210.696C214.969 205.496 218.465 201.999 218.465 197.726C218.465 193.453 214.969 189.957 210.696 189.957ZM134.168 102.552V217.538C136.887 217.538 139.218 217.538 141.937 217.15V102.94C139.218 102.94 136.887 102.552 134.168 102.552ZM210.696 189.957H179.23C174.957 189.957 171.461 193.453 171.461 197.726C171.461 199.28 171.849 200.834 173.015 202.388C174.18 204.33 176.511 205.496 179.23 205.496H210.696C214.969 205.496 218.465 201.999 218.465 197.726C218.465 193.453 214.969 189.957 210.696 189.957ZM293.828 95.1708H286.447V87.013C286.447 67.5896 270.52 51.6624 251.097 51.6624C235.558 51.6624 222.739 61.3741 217.688 74.9705L227.789 85.0706H231.285C232.45 75.359 240.996 67.5896 251.097 67.5896C261.974 67.5896 270.908 76.5244 270.908 87.4014V95.1708H246.047C249.154 102.163 250.708 106.825 252.651 110.709H285.67V150.333H215.746V110.709H244.104L239.443 99.8324L225.846 100.609C223.515 100.609 221.573 99.8324 220.019 98.2785L216.912 95.1708L215.746 94.0054V95.1708H208.365C204.092 95.1708 200.596 98.667 200.596 102.94V158.103C200.596 161.987 203.315 165.095 207.2 165.872H293.828C298.101 165.872 301.597 162.376 301.597 158.103V102.94C301.597 98.667 298.101 95.1708 293.828 95.1708ZM271.297 229.58H179.23C174.957 229.58 171.461 233.077 171.461 237.35C171.461 241.623 174.957 245.119 179.23 245.119H271.297C275.57 245.119 279.066 241.623 279.066 237.35C279.066 233.077 275.57 229.58 271.297 229.58ZM225.069 268.816H179.23C175.346 268.816 172.238 271.535 171.461 275.031V276.585C171.461 279.304 173.015 281.635 174.957 283.189C176.122 283.966 177.676 284.354 179.23 284.354H225.458C229.731 284.354 232.839 280.858 232.839 276.585C232.839 272.312 229.342 268.816 225.069 268.816ZM322.575 189.957H241.773C237.5 189.957 234.004 193.453 234.004 197.726C234.004 201.999 237.5 205.496 241.773 205.496H322.575C326.848 205.496 330.344 201.999 330.344 197.726C330.344 193.453 326.848 189.957 322.575 189.957ZM322.575 268.816H256.535C252.262 268.816 248.766 272.312 248.766 276.585C248.766 280.858 252.262 284.354 256.535 284.354H322.575C326.848 284.354 330.344 280.858 330.344 276.585C330.344 272.312 326.848 268.816 322.575 268.816ZM322.575 229.58H302.374C298.101 229.58 294.605 233.077 294.605 237.35C294.605 241.623 298.101 245.119 302.374 245.119H322.575C326.848 245.119 330.344 241.623 330.344 237.35C330.344 233.077 326.848 229.58 322.575 229.58ZM322.575 229.58H302.374C298.101 229.58 294.605 233.077 294.605 237.35C294.605 241.623 298.101 245.119 302.374 245.119H322.575C326.848 245.119 330.344 241.623 330.344 237.35C330.344 233.077 326.848 229.58 322.575 229.58ZM322.575 268.816H256.535C252.262 268.816 248.766 272.312 248.766 276.585C248.766 280.858 252.262 284.354 256.535 284.354H322.575C326.848 284.354 330.344 280.858 330.344 276.585C330.344 272.312 326.848 268.816 322.575 268.816ZM322.575 189.957H241.773C237.5 189.957 234.004 193.453 234.004 197.726C234.004 201.999 237.5 205.496 241.773 205.496H322.575C326.848 205.496 330.344 201.999 330.344 197.726C330.344 193.453 326.848 189.957 322.575 189.957ZM225.069 268.816H179.23C175.346 268.816 172.238 271.535 171.461 275.031V276.585C171.461 279.304 173.015 281.635 174.957 283.189C176.122 283.966 177.676 284.354 179.23 284.354H225.458C229.731 284.354 232.839 280.858 232.839 276.585C232.839 272.312 229.342 268.816 225.069 268.816ZM271.297 229.58H179.23C174.957 229.58 171.461 233.077 171.461 237.35C171.461 241.623 174.957 245.119 179.23 245.119H271.297C275.57 245.119 279.066 241.623 279.066 237.35C279.066 233.077 275.57 229.58 271.297 229.58ZM210.696 189.957H179.23C174.957 189.957 171.461 193.453 171.461 197.726C171.461 199.28 171.849 200.834 173.015 202.388C174.18 204.33 176.511 205.496 179.23 205.496H210.696C214.969 205.496 218.465 201.999 218.465 197.726C218.465 193.453 214.969 189.957 210.696 189.957ZM134.168 102.552V217.538C136.887 217.538 139.218 217.538 141.937 217.15V102.94C139.218 102.94 136.887 102.552 134.168 102.552ZM210.696 189.957H179.23C174.957 189.957 171.461 193.453 171.461 197.726C171.461 199.28 171.849 200.834 173.015 202.388C174.18 204.33 176.511 205.496 179.23 205.496H210.696C214.969 205.496 218.465 201.999 218.465 197.726C218.465 193.453 214.969 189.957 210.696 189.957ZM293.828 95.1708H286.447V87.013C286.447 67.5896 270.52 51.6624 251.097 51.6624C235.558 51.6624 222.739 61.3741 217.688 74.9705L227.789 85.0706H231.285C232.45 75.359 240.996 67.5896 251.097 67.5896C261.974 67.5896 270.908 76.5244 270.908 87.4014V95.1708H246.047C249.154 102.163 250.708 106.825 252.651 110.709H285.67V150.333H215.746V110.709H244.104L239.443 99.8324L225.846 100.609C223.515 100.609 221.573 99.8324 220.019 98.2785L216.912 95.1708L215.746 94.0054V95.1708H208.365C204.092 95.1708 200.596 98.667 200.596 102.94V158.103C200.596 161.987 203.315 165.095 207.2 165.872H293.828C298.101 165.872 301.597 162.376 301.597 158.103V102.94C301.597 98.667 298.101 95.1708 293.828 95.1708ZM271.297 229.58H179.23C174.957 229.58 171.461 233.077 171.461 237.35C171.461 241.623 174.957 245.119 179.23 245.119H271.297C275.57 245.119 279.066 241.623 279.066 237.35C279.066 233.077 275.57 229.58 271.297 229.58ZM225.069 268.816H179.23C175.346 268.816 172.238 271.535 171.461 275.031V276.585C171.461 279.304 173.015 281.635 174.957 283.189C176.122 283.966 177.676 284.354 179.23 284.354H225.458C229.731 284.354 232.839 280.858 232.839 276.585C232.839 272.312 229.342 268.816 225.069 268.816ZM322.575 189.957H241.773C237.5 189.957 234.004 193.453 234.004 197.726C234.004 201.999 237.5 205.496 241.773 205.496H322.575C326.848 205.496 330.344 201.999 330.344 197.726C330.344 193.453 326.848 189.957 322.575 189.957ZM322.575 268.816H256.535C252.262 268.816 248.766 272.312 248.766 276.585C248.766 280.858 252.262 284.354 256.535 284.354H322.575C326.848 284.354 330.344 280.858 330.344 276.585C330.344 272.312 326.848 268.816 322.575 268.816ZM322.575 229.58H302.374C298.101 229.58 294.605 233.077 294.605 237.35C294.605 241.623 298.101 245.119 302.374 245.119H322.575C326.848 245.119 330.344 241.623 330.344 237.35C330.344 233.077 326.848 229.58 322.575 229.58ZM322.575 229.58H302.374C298.101 229.58 294.605 233.077 294.605 237.35C294.605 241.623 298.101 245.119 302.374 245.119H322.575C326.848 245.119 330.344 241.623 330.344 237.35C330.344 233.077 326.848 229.58 322.575 229.58ZM322.575 268.816H256.535C252.262 268.816 248.766 272.312 248.766 276.585C248.766 280.858 252.262 284.354 256.535 284.354H322.575C326.848 284.354 330.344 280.858 330.344 276.585C330.344 272.312 326.848 268.816 322.575 268.816ZM322.575 189.957H241.773C237.5 189.957 234.004 193.453 234.004 197.726C234.004 201.999 237.5 205.496 241.773 205.496H322.575C326.848 205.496 330.344 201.999 330.344 197.726C330.344 193.453 326.848 189.957 322.575 189.957ZM225.069 268.816H179.23C175.346 268.816 172.238 271.535 171.461 275.031V276.585C171.461 279.304 173.015 281.635 174.957 283.189C176.122 283.966 177.676 284.354 179.23 284.354H225.458C229.731 284.354 232.839 280.858 232.839 276.585C232.839 272.312 229.342 268.816 225.069 268.816ZM271.297 229.58H179.23C174.957 229.58 171.461 233.077 171.461 237.35C171.461 241.623 174.957 245.119 179.23 245.119H271.297C275.57 245.119 279.066 241.623 279.066 237.35C279.066 233.077 275.57 229.58 271.297 229.58ZM210.696 189.957H179.23C174.957 189.957 171.461 193.453 171.461 197.726C171.461 199.28 171.849 200.834 173.015 202.388C174.18 204.33 176.511 205.496 179.23 205.496H210.696C214.969 205.496 218.465 201.999 218.465 197.726C218.465 193.453 214.969 189.957 210.696 189.957ZM134.168 102.552V217.538C136.887 217.538 139.218 217.538 141.937 217.15V102.94C139.218 102.94 136.887 102.552 134.168 102.552ZM179.23 268.816C175.346 268.816 172.238 271.535 171.461 275.031L186.223 268.816H179.23ZM210.696 189.957H179.23C174.957 189.957 171.461 193.453 171.461 197.726C171.461 199.28 171.849 200.834 173.015 202.388C174.18 204.33 176.511 205.496 179.23 205.496H210.696C214.969 205.496 218.465 201.999 218.465 197.726C218.465 193.453 214.969 189.957 210.696 189.957ZM293.828 95.1708H286.447V87.013C286.447 67.5896 270.52 51.6624 251.097 51.6624C235.558 51.6624 222.739 61.3741 217.688 74.9705L227.789 85.0706H231.285C232.45 75.359 240.996 67.5896 251.097 67.5896C261.974 67.5896 270.908 76.5244 270.908 87.4014V95.1708H246.047C249.154 102.163 250.708 106.825 252.651 110.709H285.67V150.333H215.746V110.709H244.104L239.443 99.8324L225.846 100.609C223.515 100.609 221.573 99.8324 220.019 98.2785L216.912 95.1708L215.746 94.0054V95.1708H208.365C204.092 95.1708 200.596 98.667 200.596 102.94V158.103C200.596 161.987 203.315 165.095 207.2 165.872H293.828C298.101 165.872 301.597 162.376 301.597 158.103V102.94C301.597 98.667 298.101 95.1708 293.828 95.1708ZM271.297 229.58H179.23C174.957 229.58 171.461 233.077 171.461 237.35C171.461 241.623 174.957 245.119 179.23 245.119H271.297C275.57 245.119 279.066 241.623 279.066 237.35C279.066 233.077 275.57 229.58 271.297 229.58ZM225.069 268.816H209.919V269.981C209.919 273.089 207.977 276.197 205.257 277.362L188.553 284.354H225.458C229.731 284.354 232.839 280.858 232.839 276.585C232.839 272.312 229.342 268.816 225.069 268.816ZM322.575 189.957H241.773C237.5 189.957 234.004 193.453 234.004 197.726C234.004 201.999 237.5 205.496 241.773 205.496H322.575C326.848 205.496 330.344 201.999 330.344 197.726C330.344 193.453 326.848 189.957 322.575 189.957ZM322.575 268.816H256.535C252.262 268.816 248.766 272.312 248.766 276.585C248.766 280.858 252.262 284.354 256.535 284.354H322.575C326.848 284.354 330.344 280.858 330.344 276.585C330.344 272.312 326.848 268.816 322.575 268.816ZM322.575 229.58H302.374C298.101 229.58 294.605 233.077 294.605 237.35C294.605 241.623 298.101 245.119 302.374 245.119H322.575C326.848 245.119 330.344 241.623 330.344 237.35C330.344 233.077 326.848 229.58 322.575 229.58ZM322.575 229.58H302.374C298.101 229.58 294.605 233.077 294.605 237.35C294.605 241.623 298.101 245.119 302.374 245.119H322.575C326.848 245.119 330.344 241.623 330.344 237.35C330.344 233.077 326.848 229.58 322.575 229.58ZM322.575 268.816H256.535C252.262 268.816 248.766 272.312 248.766 276.585C248.766 280.858 252.262 284.354 256.535 284.354H322.575C326.848 284.354 330.344 280.858 330.344 276.585C330.344 272.312 326.848 268.816 322.575 268.816ZM271.297 229.58H179.23C174.957 229.58 171.461 233.077 171.461 237.35C171.461 241.623 174.957 245.119 179.23 245.119H271.297C275.57 245.119 279.066 241.623 279.066 237.35C279.066 233.077 275.57 229.58 271.297 229.58ZM322.575 189.957H241.773C237.5 189.957 234.004 193.453 234.004 197.726C234.004 201.999 237.5 205.496 241.773 205.496H322.575C326.848 205.496 330.344 201.999 330.344 197.726C330.344 193.453 326.848 189.957 322.575 189.957ZM210.696 189.957H179.23C174.957 189.957 171.461 193.453 171.461 197.726C171.461 199.28 171.849 200.834 173.015 202.388C174.18 204.33 176.511 205.496 179.23 205.496H210.696C214.969 205.496 218.465 201.999 218.465 197.726C218.465 193.453 214.969 189.957 210.696 189.957ZM134.168 102.552V217.538C136.887 217.538 139.218 217.538 141.937 217.15V102.94C139.218 102.94 136.887 102.552 134.168 102.552ZM179.23 268.816C175.346 268.816 172.238 271.535 171.461 275.031L186.223 268.816H179.23ZM210.696 189.957H179.23C174.957 189.957 171.461 193.453 171.461 197.726C171.461 199.28 171.849 200.834 173.015 202.388C174.18 204.33 176.511 205.496 179.23 205.496H210.696C214.969 205.496 218.465 201.999 218.465 197.726C218.465 193.453 214.969 189.957 210.696 189.957ZM293.828 95.1708H286.447V87.013C286.447 67.5896 270.52 51.6624 251.097 51.6624C235.558 51.6624 222.739 61.3741 217.688 74.9705L227.789 85.0706H231.285C232.45 75.359 240.996 67.5896 251.097 67.5896C261.974 67.5896 270.908 76.5244 270.908 87.4014V95.1708H246.047C249.154 102.163 250.708 106.825 252.651 110.709H285.67V150.333H215.746V110.709H244.104L239.443 99.8324L225.846 100.609C223.515 100.609 221.573 99.8324 220.019 98.2785L216.912 95.1708L215.746 94.0054V95.1708H208.365C204.092 95.1708 200.596 98.667 200.596 102.94V158.103C200.596 161.987 203.315 165.095 207.2 165.872H293.828C298.101 165.872 301.597 162.376 301.597 158.103V102.94C301.597 98.667 298.101 95.1708 293.828 95.1708ZM271.297 229.58H179.23C174.957 229.58 171.461 233.077 171.461 237.35C171.461 241.623 174.957 245.119 179.23 245.119H271.297C275.57 245.119 279.066 241.623 279.066 237.35C279.066 233.077 275.57 229.58 271.297 229.58ZM225.069 268.816H209.919V269.981C209.919 273.089 207.977 276.197 205.257 277.362L188.553 284.354H225.458C229.731 284.354 232.839 280.858 232.839 276.585C232.839 272.312 229.342 268.816 225.069 268.816ZM322.575 189.957H241.773C237.5 189.957 234.004 193.453 234.004 197.726C234.004 201.999 237.5 205.496 241.773 205.496H322.575C326.848 205.496 330.344 201.999 330.344 197.726C330.344 193.453 326.848 189.957 322.575 189.957ZM322.575 268.816H256.535C252.262 268.816 248.766 272.312 248.766 276.585C248.766 280.858 252.262 284.354 256.535 284.354H322.575C326.848 284.354 330.344 280.858 330.344 276.585C330.344 272.312 326.848 268.816 322.575 268.816ZM322.575 229.58H302.374C298.101 229.58 294.605 233.077 294.605 237.35C294.605 241.623 298.101 245.119 302.374 245.119H322.575C326.848 245.119 330.344 241.623 330.344 237.35C330.344 233.077 326.848 229.58 322.575 229.58ZM322.575 229.58H302.374C298.101 229.58 294.605 233.077 294.605 237.35C294.605 241.623 298.101 245.119 302.374 245.119H322.575C326.848 245.119 330.344 241.623 330.344 237.35C330.344 233.077 326.848 229.58 322.575 229.58ZM322.575 268.816H256.535C252.262 268.816 248.766 272.312 248.766 276.585C248.766 280.858 252.262 284.354 256.535 284.354H322.575C326.848 284.354 330.344 280.858 330.344 276.585C330.344 272.312 326.848 268.816 322.575 268.816ZM322.575 189.957H241.773C237.5 189.957 234.004 193.453 234.004 197.726C234.004 201.999 237.5 205.496 241.773 205.496H322.575C326.848 205.496 330.344 201.999 330.344 197.726C330.344 193.453 326.848 189.957 322.575 189.957ZM210.696 189.957H179.23C174.957 189.957 171.461 193.453 171.461 197.726C171.461 199.28 171.849 200.834 173.015 202.388C174.18 204.33 176.511 205.496 179.23 205.496H210.696C214.969 205.496 218.465 201.999 218.465 197.726C218.465 193.453 214.969 189.957 210.696 189.957ZM134.168 102.552V217.538C136.887 217.538 139.218 217.538 141.937 217.15V102.94C139.218 102.94 136.887 102.552 134.168 102.552ZM179.23 268.816C175.346 268.816 172.238 271.535 171.461 275.031L186.223 268.816H179.23ZM210.696 189.957H179.23C174.957 189.957 171.461 193.453 171.461 197.726C171.461 199.28 171.849 200.834 173.015 202.388C174.18 204.33 176.511 205.496 179.23 205.496H210.696C214.969 205.496 218.465 201.999 218.465 197.726C218.465 193.453 214.969 189.957 210.696 189.957ZM293.828 95.1708H286.447V87.013C286.447 67.5896 270.52 51.6624 251.097 51.6624C235.558 51.6624 222.739 61.3741 217.688 74.9705L227.789 85.0706H231.285C232.45 75.359 240.996 67.5896 251.097 67.5896C261.974 67.5896 270.908 76.5244 270.908 87.4014V95.1708H246.047C249.154 102.163 250.708 106.825 252.651 110.709H285.67V150.333H215.746V110.709H244.104L239.443 99.8324L225.846 100.609C223.515 100.609 221.573 99.8324 220.019 98.2785L216.912 95.1708L215.746 94.0054V95.1708H208.365C204.092 95.1708 200.596 98.667 200.596 102.94V158.103C200.596 161.987 203.315 165.095 207.2 165.872H293.828C298.101 165.872 301.597 162.376 301.597 158.103V102.94C301.597 98.667 298.101 95.1708 293.828 95.1708ZM271.297 229.58H179.23C174.957 229.58 171.461 233.077 171.461 237.35C171.461 241.623 174.957 245.119 179.23 245.119H271.297C275.57 245.119 279.066 241.623 279.066 237.35C279.066 233.077 275.57 229.58 271.297 229.58ZM225.069 268.816H209.919V269.981C209.919 273.089 207.977 276.197 205.257 277.362L188.553 284.354H225.458C229.731 284.354 232.839 280.858 232.839 276.585C232.839 272.312 229.342 268.816 225.069 268.816ZM322.575 189.957H241.773C237.5 189.957 234.004 193.453 234.004 197.726C234.004 201.999 237.5 205.496 241.773 205.496H322.575C326.848 205.496 330.344 201.999 330.344 197.726C330.344 193.453 326.848 189.957 322.575 189.957ZM322.575 268.816H256.535C252.262 268.816 248.766 272.312 248.766 276.585C248.766 280.858 252.262 284.354 256.535 284.354H322.575C326.848 284.354 330.344 280.858 330.344 276.585C330.344 272.312 326.848 268.816 322.575 268.816ZM322.575 229.58H302.374C298.101 229.58 294.605 233.077 294.605 237.35C294.605 241.623 298.101 245.119 302.374 245.119H322.575C326.848 245.119 330.344 241.623 330.344 237.35C330.344 233.077 326.848 229.58 322.575 229.58ZM322.575 229.58H302.374C298.101 229.58 294.605 233.077 294.605 237.35C294.605 241.623 298.101 245.119 302.374 245.119H322.575C326.848 245.119 330.344 241.623 330.344 237.35C330.344 233.077 326.848 229.58 322.575 229.58ZM322.575 268.816H256.535C252.262 268.816 248.766 272.312 248.766 276.585C248.766 280.858 252.262 284.354 256.535 284.354H322.575C326.848 284.354 330.344 280.858 330.344 276.585C330.344 272.312 326.848 268.816 322.575 268.816ZM322.575 189.957H241.773C237.5 189.957 234.004 193.453 234.004 197.726C234.004 201.999 237.5 205.496 241.773 205.496H322.575C326.848 205.496 330.344 201.999 330.344 197.726C330.344 193.453 326.848 189.957 322.575 189.957ZM210.696 189.957H179.23C174.957 189.957 171.461 193.453 171.461 197.726C171.461 199.28 171.849 200.834 173.015 202.388C174.18 204.33 176.511 205.496 179.23 205.496H210.696C214.969 205.496 218.465 201.999 218.465 197.726C218.465 193.453 214.969 189.957 210.696 189.957Z" fill="url(#paint4_linear_1164_1237)"/>
<path d="M134.168 102.555V217.542C136.887 217.542 139.218 217.542 141.937 217.153V102.944C139.218 102.944 136.887 102.555 134.168 102.555ZM134.168 102.555V217.542C136.887 217.542 139.218 217.542 141.937 217.153V102.944C139.218 102.944 136.887 102.555 134.168 102.555ZM134.168 102.555V217.542C136.887 217.542 139.218 217.542 141.937 217.153V102.944C139.218 102.944 136.887 102.555 134.168 102.555ZM134.168 102.555V217.542C136.887 217.542 139.218 217.542 141.937 217.153V102.944C139.218 102.944 136.887 102.555 134.168 102.555ZM134.168 102.555V217.542C136.887 217.542 139.218 217.542 141.937 217.153V102.944C139.218 102.944 136.887 102.555 134.168 102.555ZM134.168 102.555V217.542C136.887 217.542 139.218 217.542 141.937 217.153V102.944C139.218 102.944 136.887 102.555 134.168 102.555ZM134.168 102.555V217.542C136.887 217.542 139.218 217.542 141.937 217.153V102.944C139.218 102.944 136.887 102.555 134.168 102.555ZM134.168 102.555V217.542C136.887 217.542 139.218 217.542 141.937 217.153V102.944C139.218 102.944 136.887 102.555 134.168 102.555ZM134.168 102.555V217.542C136.887 217.542 139.218 217.542 141.937 217.153V102.944C139.218 102.944 136.887 102.555 134.168 102.555ZM374.629 69.9241C374.629 69.5357 374.241 69.1472 373.852 69.1472L372.687 67.9818L307.813 2.33081C306.259 0.776936 304.316 0 302.374 0H134.168C129.895 0 126.398 3.49621 126.398 7.76935V320.874C126.398 325.147 129.895 328.643 134.168 328.643H367.637C371.91 328.643 375.406 325.147 375.406 320.874V73.0319C375.406 71.8665 375.018 70.7011 374.629 69.9241ZM359.867 313.105H141.937V15.5387H299.266L302.374 18.6464L359.867 76.1396V313.105ZM134.168 102.555V217.542C136.887 217.542 139.218 217.542 141.937 217.153V102.944C139.218 102.944 136.887 102.555 134.168 102.555ZM134.168 102.555V217.542C136.887 217.542 139.218 217.542 141.937 217.153V102.944C139.218 102.944 136.887 102.555 134.168 102.555ZM134.168 102.555V217.542C136.887 217.542 139.218 217.542 141.937 217.153V102.944C139.218 102.944 136.887 102.555 134.168 102.555ZM134.168 102.555V217.542C136.887 217.542 139.218 217.542 141.937 217.153V102.944C139.218 102.944 136.887 102.555 134.168 102.555ZM134.168 102.555V217.542C136.887 217.542 139.218 217.542 141.937 217.153V102.944C139.218 102.944 136.887 102.555 134.168 102.555ZM134.168 102.555V217.542C136.887 217.542 139.218 217.542 141.937 217.153V102.944C139.218 102.944 136.887 102.555 134.168 102.555ZM134.168 102.555V217.542C136.887 217.542 139.218 217.542 141.937 217.153V102.944C139.218 102.944 136.887 102.555 134.168 102.555ZM134.168 102.555V217.542C136.887 217.542 139.218 217.542 141.937 217.153V102.944C139.218 102.944 136.887 102.555 134.168 102.555Z" fill="url(#paint5_linear_1164_1237)"/>
<path d="M302.375 7.76562V73.0281H367.638L302.375 7.76562ZM310.144 65.2588V26.4121L348.991 65.2588H310.144Z" fill="url(#paint6_linear_1164_1237)"/>
<path d="M374.63 69.9213C374.63 69.5329 374.241 69.1444 373.853 69.1444L372.687 67.979L307.813 2.32799C305.483 0.385654 301.986 -0.391279 299.267 0.774123C296.548 1.93953 294.605 4.65879 294.605 7.76653V73.0291C294.605 77.3022 298.102 80.7984 302.375 80.7984H367.637C370.745 80.7984 373.464 78.8561 374.63 76.1368C375.407 73.806 375.407 71.8637 374.63 69.9213ZM310.144 65.2597V26.413L348.991 65.2597H310.144ZM454.266 329.029C453.489 329.806 452.712 330.971 452.323 332.137L444.942 329.029L442.223 327.864L437.561 325.921C437.95 325.144 437.95 324.756 438.338 323.979L419.304 304.944H386.284L375.018 300.282L367.249 297.175H422.411L448.439 323.202L454.266 329.029Z" fill="url(#paint7_linear_1164_1237)"/>
<path d="M462.424 326.314H460.87C458.539 326.314 456.208 327.091 454.266 329.033C453.489 329.81 452.712 330.976 452.323 332.141C451.546 333.695 451.546 335.637 451.935 337.58L444.943 330.199L443 328.256L439.116 324.372L420.081 305.337H367.638C363.364 305.337 359.868 301.841 359.868 297.567C359.868 293.294 363.364 289.798 367.638 289.798H422.8C424.742 289.798 426.685 290.575 428.238 292.129L449.604 313.495L462.424 326.314ZM454.266 65.264L448.439 71.091L422.411 97.1183H367.638L375.407 94.0106L386.672 89.349H419.692L438.727 70.3141C438.339 69.5371 437.95 69.1487 437.95 68.3717L442.612 66.4294L445.331 65.264L452.712 62.1562C452.712 63.3217 453.489 64.4871 454.266 65.264Z" fill="url(#paint8_linear_1164_1237)"/>
<path d="M463.2 67.5923L455.431 75.3617L449.604 81.1887L428.238 102.554C427.073 103.72 424.742 104.885 422.8 104.885H367.638C363.364 104.885 359.868 101.389 359.868 97.1159C359.868 92.8427 363.364 89.3465 367.638 89.3465H419.692L438.727 70.3116L442.223 66.8154L444.166 64.4846L451.158 57.4922C450.77 59.4345 451.158 60.9884 451.935 62.5423C452.323 63.7077 453.1 64.4846 453.877 65.2615C456.597 67.5923 460.093 68.3693 463.2 67.5923ZM367.638 147.228H399.103ZM399.103 154.998H367.638C363.364 154.998 359.868 151.501 359.868 147.228C359.868 142.955 363.364 139.459 367.638 139.459H399.103C403.377 139.459 406.873 142.955 406.873 147.228C406.873 151.501 403.377 154.998 399.103 154.998ZM367.638 247.841H399.103ZM399.103 255.611H367.638C363.364 255.611 359.868 252.114 359.868 247.841C359.868 243.568 363.364 240.072 367.638 240.072H399.103C403.377 240.072 406.873 243.568 406.873 247.841C406.873 252.114 403.377 255.611 399.103 255.611ZM455.82 205.498H367.638C363.364 205.498 359.868 202.002 359.868 197.729C359.868 193.456 363.364 189.96 367.638 189.96H455.82C455.431 190.348 455.043 190.736 454.266 191.125C452.323 192.679 451.546 195.398 451.546 197.729C451.546 200.06 452.323 202.391 454.266 204.333C454.654 204.721 455.043 205.11 455.82 205.498ZM469.804 200.06C470.193 198.506 470.193 196.564 469.804 195.01C470.193 195.787 470.193 196.564 470.193 197.34C470.193 198.506 469.804 199.283 469.804 200.06Z" fill="url(#paint9_linear_1164_1237)"/>
<path d="M460.869 41.9531C451.546 41.9531 443.776 49.7225 443.776 59.0457C443.776 60.988 444.165 62.5419 444.553 64.4842C444.553 64.8727 444.942 65.2612 444.942 65.6496C445.719 67.592 446.884 69.5343 448.826 71.4767C450.769 73.419 453.1 74.5844 455.43 75.7498C456.984 76.1383 458.927 76.5267 460.869 76.5267C470.192 76.5267 477.962 68.7574 477.962 59.4342C477.962 49.7225 470.192 41.9531 460.869 41.9531ZM467.473 65.2612C466.307 66.4266 464.754 67.2035 463.2 67.592C460.092 68.3689 456.984 67.592 454.653 65.2612C453.877 64.4842 453.1 63.3188 452.711 62.5419C451.934 60.988 451.934 59.0457 451.934 57.4918C452.323 55.5495 453.1 53.6072 454.265 52.4417C455.819 50.8879 458.538 49.7225 460.869 49.7225C463.588 49.7225 465.919 50.8879 467.473 52.4417C470.969 55.5495 470.969 61.765 467.473 65.2612Z" fill="url(#paint10_linear_1164_1237)"/>
<path d="M478.351 41.1778C473.689 36.5161 467.474 33.7969 460.87 33.7969C454.266 33.7969 448.05 36.5161 443.389 41.1778C436.008 48.5586 434.065 59.4357 437.95 68.3705C438.339 69.1474 438.339 69.5359 438.727 70.3128C439.892 72.6436 441.446 74.5859 443.389 76.5283C445.331 78.4706 447.273 80.0245 449.604 81.1899C453.1 83.1322 456.985 83.9092 460.87 83.9092C467.474 83.9092 474.078 81.1899 478.351 76.5283C483.012 71.8667 485.732 65.2627 485.732 58.6588C485.732 52.4433 483.012 45.8394 478.351 41.1778ZM467.474 65.2627C466.308 66.4281 464.754 67.2051 463.201 67.5935C460.093 68.3705 456.985 67.5935 454.654 65.2627C453.877 64.4858 453.1 63.3204 452.712 62.5435C451.935 60.9896 451.935 59.0472 451.935 57.4934C452.323 55.551 453.1 53.6087 454.266 52.4433C455.82 50.8894 458.539 49.724 460.87 49.724C463.589 49.724 465.92 50.8894 467.474 52.4433C470.97 55.551 470.97 61.7665 467.474 65.2627ZM460.87 180.638C454.266 180.638 448.439 184.522 445.719 189.961C444.554 192.292 443.777 195.011 443.777 197.73C443.777 200.449 444.554 203.169 445.719 205.499C448.439 210.938 454.266 214.823 460.87 214.823C470.193 214.823 477.962 207.053 477.962 197.73C477.962 188.407 470.193 180.638 460.87 180.638ZM469.804 200.449C469.416 202.003 468.639 203.169 467.474 204.334C464.366 207.442 459.316 207.83 455.82 205.499C455.431 205.111 454.654 204.723 454.266 204.334C452.323 202.392 451.546 200.061 451.546 197.73C451.546 195.399 452.323 193.068 454.266 191.126C454.654 190.738 455.043 190.349 455.82 189.961C457.373 188.795 459.316 188.407 460.87 188.407C463.201 188.407 465.92 189.184 467.474 191.126C468.251 192.292 469.028 193.457 469.416 194.622V195.011C470.193 196.953 470.193 198.507 469.804 200.449Z" fill="url(#paint11_linear_1164_1237)"/>
<path d="M478.739 179.862C469.028 170.15 453.1 170.15 443.389 179.862C440.281 182.97 438.339 186.466 437.173 189.962C436.396 192.681 436.008 195.012 436.008 197.731C436.008 200.451 436.396 203.17 437.173 205.501C438.339 208.997 440.281 212.493 443 215.212C447.662 220.262 454.266 222.593 460.481 222.593C467.085 222.593 473.301 220.262 478.351 215.212C483.012 210.551 485.732 203.947 485.732 197.731C486.12 191.127 483.401 184.523 478.739 179.862ZM455.82 205.501C455.431 205.112 454.654 204.724 454.266 204.335C452.323 202.393 451.547 200.062 451.547 197.731C451.547 195.401 452.323 193.07 454.266 191.127C454.654 190.739 455.043 190.351 455.82 189.962C457.374 188.797 459.316 188.408 460.87 188.408C463.201 188.408 465.92 189.185 467.474 191.127C468.251 192.293 469.028 193.458 469.416 194.624V195.012C469.804 196.566 469.804 198.508 469.416 200.062C469.028 201.616 468.251 202.781 467.085 203.947C464.366 207.443 459.316 207.832 455.82 205.501ZM460.87 318.545C458.927 318.545 457.374 318.933 455.431 319.322C452.712 320.099 450.381 321.652 448.827 323.595C447.273 325.149 445.72 327.091 444.943 329.422C444.943 329.81 444.554 330.199 444.554 330.587C444.166 332.141 443.777 334.083 443.777 336.026C443.777 345.349 451.547 353.118 460.87 353.118C470.193 353.118 477.962 345.349 477.962 336.026C477.962 326.703 470.193 318.545 460.87 318.545ZM467.474 342.241C463.977 345.737 457.762 345.737 454.266 342.241C453.1 341.076 452.323 339.134 451.935 337.58C451.547 335.637 451.935 334.083 452.323 332.141C452.712 330.976 453.489 329.81 454.266 329.033C456.208 327.091 458.539 326.314 460.87 326.314H462.424C464.366 326.703 466.308 327.479 467.474 329.033C470.97 332.53 470.97 338.745 467.474 342.241Z" fill="url(#paint12_linear_1164_1237)"/>
<path d="M478.739 317.764C470.969 309.994 458.927 308.44 449.604 313.491C447.273 314.656 445.33 316.21 443.777 317.764C441.834 319.706 440.28 321.648 439.115 323.979C438.726 324.756 438.726 325.145 438.338 325.922C434.842 334.856 436.784 345.733 443.777 352.726C448.438 357.776 455.042 360.107 461.258 360.107C467.862 360.107 474.077 357.776 479.127 352.726C483.789 348.064 486.508 341.46 486.508 335.245C486.12 329.029 483.4 322.425 478.739 317.764ZM467.473 342.237C463.977 345.733 457.761 345.733 454.265 342.237C453.1 341.072 452.323 339.129 451.934 337.576C451.546 335.633 451.934 334.079 452.323 332.137C452.711 330.972 453.488 329.806 454.265 329.029C456.208 327.087 458.538 326.31 460.869 326.31H462.423C464.365 326.698 466.308 327.475 467.473 329.029C470.969 332.525 470.969 338.741 467.473 342.237ZM330.344 197.727C330.344 202 326.848 205.497 322.575 205.497H241.774C237.5 205.497 234.004 202 234.004 197.727C234.004 193.454 237.5 189.958 241.774 189.958H322.575C326.848 189.958 330.344 193.454 330.344 197.727ZM218.465 197.727C218.465 202 214.969 205.497 210.696 205.497H179.23C176.511 205.497 174.18 204.331 173.015 202.389C172.238 201.223 171.461 199.67 171.461 197.727C171.461 193.454 174.957 189.958 179.23 189.958H210.696C214.969 189.958 218.465 193.454 218.465 197.727ZM330.344 237.351C330.344 241.624 326.848 245.12 322.575 245.12H302.374C298.101 245.12 294.605 241.624 294.605 237.351C294.605 233.078 298.101 229.582 302.374 229.582H322.575C326.848 229.582 330.344 233.078 330.344 237.351ZM279.066 237.351C279.066 241.624 275.57 245.12 271.297 245.12H179.23C174.957 245.12 171.461 241.624 171.461 237.351C171.461 233.078 174.957 229.582 179.23 229.582H271.297C275.57 229.582 279.066 233.078 279.066 237.351ZM330.344 276.586C330.344 280.859 326.848 284.355 322.575 284.355H256.535C252.262 284.355 248.766 280.859 248.766 276.586C248.766 272.313 252.262 268.817 256.535 268.817H322.575C326.848 268.817 330.344 272.313 330.344 276.586ZM232.839 276.586C232.839 280.859 229.731 284.355 225.458 284.355H179.23C177.676 284.355 176.123 283.967 174.957 283.19C173.015 281.636 171.461 279.305 171.461 276.586V275.032C172.238 271.536 175.346 268.817 179.23 268.817H225.069C229.343 268.817 232.839 272.313 232.839 276.586ZM293.828 95.1719H208.365C204.092 95.1719 200.596 98.6681 200.596 102.941V158.104C200.596 161.988 203.315 165.096 207.2 165.873H293.828C298.101 165.873 301.598 162.377 301.598 158.104V102.941C301.598 98.6681 298.101 95.1719 293.828 95.1719ZM285.67 150.334H215.746V110.711H285.67V150.334Z" fill="url(#paint13_linear_1164_1237)"/>
<path d="M251.097 51.6641C235.558 51.6641 222.739 61.3757 217.688 74.9721C216.911 76.9144 216.523 78.8568 216.135 80.7991C216.135 81.5761 215.746 81.9645 215.746 82.7415V102.942C215.746 107.215 219.242 110.711 223.515 110.711H278.678C282.951 110.711 286.447 107.215 286.447 102.942V87.0146C286.447 67.5912 270.52 51.6641 251.097 51.6641ZM231.285 95.1724V85.0723C232.45 75.3606 240.996 67.5912 251.097 67.5912C261.974 67.5912 270.908 76.526 270.908 87.4031V95.1724H231.285Z" fill="url(#paint14_linear_1164_1237)"/>
<defs>
<linearGradient id="paint0_linear_1164_1237" x1="16.1905" y1="49.8061" x2="258.654" y2="327.222" gradientUnits="userSpaceOnUse">
<stop stop-color="#1BA2D7"/>
<stop offset="1" stop-color="#8D3DFA"/>
</linearGradient>
<linearGradient id="paint1_linear_1164_1237" x1="9.54122" y1="43.9013" x2="264.414" y2="336.248" gradientUnits="userSpaceOnUse">
<stop stop-color="#1BA2D7"/>
<stop offset="1" stop-color="#8D3DFA"/>
</linearGradient>
<linearGradient id="paint2_linear_1164_1237" x1="73.3129" y1="103.585" x2="198.393" y2="239.444" gradientUnits="userSpaceOnUse">
<stop stop-color="#1BA2D7"/>
<stop offset="1" stop-color="#8D3DFA"/>
</linearGradient>
<linearGradient id="paint3_linear_1164_1237" x1="66.3482" y1="96.8205" x2="205.476" y2="256.491" gradientUnits="userSpaceOnUse">
<stop stop-color="#1BA2D7"/>
<stop offset="1" stop-color="#8D3DFA"/>
</linearGradient>
<linearGradient id="paint4_linear_1164_1237" x1="142.498" y1="27.9463" x2="439.951" y2="282.495" gradientUnits="userSpaceOnUse">
<stop stop-color="#1BA2D7"/>
<stop offset="1" stop-color="#8D3DFA"/>
</linearGradient>
<linearGradient id="paint5_linear_1164_1237" x1="135.283" y1="21.1822" x2="448.232" y2="293.31" gradientUnits="userSpaceOnUse">
<stop stop-color="#1BA2D7"/>
<stop offset="1" stop-color="#8D3DFA"/>
</linearGradient>
<linearGradient id="paint6_linear_1164_1237" x1="304.704" y1="11.972" x2="366.867" y2="83.3143" gradientUnits="userSpaceOnUse">
<stop stop-color="#1BA2D7"/>
<stop offset="1" stop-color="#8D3DFA"/>
</linearGradient>
<linearGradient id="paint7_linear_1164_1237" x1="300.302" y1="21.6193" x2="570.375" y2="170.716" gradientUnits="userSpaceOnUse">
<stop stop-color="#1BA2D7"/>
<stop offset="1" stop-color="#8D3DFA"/>
</linearGradient>
<linearGradient id="paint8_linear_1164_1237" x1="363.527" y1="79.9082" x2="554.924" y2="161.699" gradientUnits="userSpaceOnUse">
<stop stop-color="#1BA2D7"/>
<stop offset="1" stop-color="#8D3DFA"/>
</linearGradient>
<linearGradient id="paint9_linear_1164_1237" x1="363.805" y1="70.2616" x2="536.689" y2="180.75" gradientUnits="userSpaceOnUse">
<stop stop-color="#1BA2D7"/>
<stop offset="1" stop-color="#8D3DFA"/>
</linearGradient>
<linearGradient id="paint10_linear_1164_1237" x1="444.996" y1="44.1815" x2="477.977" y2="81.6068" gradientUnits="userSpaceOnUse">
<stop stop-color="#1BA2D7"/>
<stop offset="1" stop-color="#8D3DFA"/>
</linearGradient>
<linearGradient id="paint11_linear_1164_1237" x1="437.768" y1="45.4646" x2="537.617" y2="76.9498" gradientUnits="userSpaceOnUse">
<stop stop-color="#1BA2D7"/>
<stop offset="1" stop-color="#8D3DFA"/>
</linearGradient>
<linearGradient id="paint12_linear_1164_1237" x1="437.783" y1="184.215" x2="537.62" y2="215.795" gradientUnits="userSpaceOnUse">
<stop stop-color="#1BA2D7"/>
<stop offset="1" stop-color="#8D3DFA"/>
</linearGradient>
<linearGradient id="paint13_linear_1164_1237" x1="182.702" y1="112.248" x2="425.613" y2="443.758" gradientUnits="userSpaceOnUse">
<stop stop-color="#1BA2D7"/>
<stop offset="1" stop-color="#8D3DFA"/>
</linearGradient>
<linearGradient id="paint14_linear_1164_1237" x1="218.269" y1="55.4698" x2="272.294" y2="129.71" gradientUnits="userSpaceOnUse">
<stop stop-color="#1BA2D7"/>
<stop offset="1" stop-color="#8D3DFA"/>
</linearGradient>
</defs>
</svg>
