<svg width="414" height="510" viewBox="0 0 414 510" fill="none" xmlns="http://www.w3.org/2000/svg">
<path d="M165.254 60.6006H204.886C206.295 60.6006 207.646 60.0409 208.642 59.0447C209.638 58.0485 210.198 56.6974 210.198 55.2886C210.198 53.8797 209.638 52.5286 208.642 51.5324C207.646 50.5362 206.295 49.9766 204.886 49.9766H165.254C163.845 49.9766 162.494 50.5362 161.498 51.5324C160.502 52.5286 159.942 53.8797 159.942 55.2886C159.942 56.6974 160.502 58.0485 161.498 59.0447C162.494 60.0409 163.845 60.6006 165.254 60.6006ZM113.56 60.6006H140.444C141.853 60.6006 143.204 60.0409 144.2 59.0447C145.196 58.0485 145.756 56.6974 145.756 55.2886C145.756 53.8797 145.196 52.5286 144.2 51.5324C143.204 50.5362 141.853 49.9766 140.444 49.9766H113.56C112.151 49.9766 110.8 50.5362 109.804 51.5324C108.808 52.5286 108.248 53.8797 108.248 55.2886C108.248 56.6974 108.808 58.0485 109.804 59.0447C110.8 60.0409 112.151 60.6006 113.56 60.6006ZM49.8061 60.6006H90.2971C91.706 60.6006 93.0571 60.0409 94.0533 59.0447C95.0495 58.0485 95.6091 56.6974 95.6091 55.2886C95.6091 53.8797 95.0495 52.5286 94.0533 51.5324C93.0571 50.5362 91.706 49.9766 90.2971 49.9766H49.8061C48.3973 49.9766 47.0462 50.5362 46.05 51.5324C45.0538 52.5286 44.4941 53.8797 44.4941 55.2886C44.4941 56.6974 45.0538 58.0485 46.05 59.0447C47.0462 60.0409 48.3973 60.6006 49.8061 60.6006ZM49.8061 104.378H204.886C206.295 104.378 207.646 103.818 208.642 102.822C209.638 101.826 210.198 100.474 210.198 99.0656C210.198 97.6567 209.638 96.3056 208.642 95.3094C207.646 94.3132 206.295 93.7536 204.886 93.7536H49.8061C48.3973 93.7536 47.0462 94.3132 46.05 95.3094C45.0538 96.3056 44.4941 97.6567 44.4941 99.0656C44.4941 100.474 45.0538 101.826 46.05 102.822C47.0462 103.818 48.3973 104.378 49.8061 104.378ZM268.684 148.155H293.872C295.281 148.155 296.632 147.595 297.628 146.599C298.624 145.603 299.184 144.251 299.184 142.843C299.184 141.434 298.624 140.083 297.628 139.086C296.632 138.09 295.281 137.531 293.872 137.531H268.684C267.275 137.531 265.924 138.09 264.928 139.086C263.932 140.083 263.372 141.434 263.372 142.843C263.372 144.251 263.932 145.603 264.928 146.599C265.924 147.595 267.275 148.155 268.684 148.155ZM182.017 142.843C182.017 143.54 182.155 144.231 182.422 144.875C182.688 145.52 183.08 146.105 183.573 146.599C184.066 147.092 184.652 147.483 185.296 147.75C185.941 148.017 186.632 148.155 187.329 148.155H245.574C246.983 148.155 248.334 147.595 249.33 146.599C250.326 145.603 250.886 144.251 250.886 142.843C250.886 141.434 250.326 140.083 249.33 139.086C248.334 138.09 246.983 137.531 245.574 137.531H187.329C185.92 137.531 184.569 138.091 183.573 139.087C182.577 140.083 182.017 141.434 182.017 142.843ZM49.8061 148.155H161.342C162.751 148.155 164.102 147.595 165.098 146.599C166.094 145.603 166.654 144.251 166.654 142.843C166.654 141.434 166.094 140.083 165.098 139.086C164.102 138.09 162.751 137.531 161.342 137.531H49.8061C48.3973 137.531 47.0462 138.09 46.05 139.086C45.0538 140.083 44.4941 141.434 44.4941 142.843C44.4941 144.251 45.0538 145.603 46.05 146.599C47.0462 147.595 48.3973 148.155 49.8061 148.155ZM293.872 181.306H215.565C214.156 181.306 212.805 181.865 211.809 182.861C210.813 183.858 210.253 185.209 210.253 186.618C210.253 188.026 210.813 189.378 211.809 190.374C212.805 191.37 214.156 191.93 215.565 191.93H293.873C294.571 191.929 295.261 191.792 295.906 191.525C296.55 191.258 297.136 190.867 297.629 190.373C298.122 189.88 298.514 189.294 298.78 188.65C299.047 188.005 299.185 187.315 299.185 186.617C299.185 185.919 299.047 185.229 298.78 184.584C298.513 183.94 298.122 183.354 297.628 182.861C297.135 182.368 296.55 181.977 295.905 181.71C295.26 181.443 294.57 181.306 293.872 181.306ZM192.454 181.306H134.209C132.8 181.306 131.449 181.865 130.453 182.861C129.457 183.858 128.897 185.209 128.897 186.618C128.897 188.026 129.457 189.378 130.453 190.374C131.449 191.37 132.8 191.93 134.209 191.93H192.454C193.863 191.93 195.214 191.37 196.21 190.374C197.206 189.378 197.766 188.026 197.766 186.618C197.766 185.209 197.206 183.858 196.21 182.861C195.214 181.865 193.863 181.306 192.454 181.306ZM49.8061 191.93H113.534C114.943 191.93 116.294 191.37 117.29 190.374C118.286 189.378 118.846 188.026 118.846 186.618C118.846 185.209 118.286 183.858 117.29 182.861C116.294 181.865 114.943 181.306 113.534 181.306H49.8061C48.3973 181.306 47.0462 181.865 46.05 182.861C45.0538 183.858 44.4941 185.209 44.4941 186.618C44.4941 188.026 45.0538 189.378 46.05 190.374C47.0462 191.37 48.3973 191.93 49.8061 191.93ZM293.872 225.083H268.684C267.275 225.083 265.924 225.642 264.928 226.638C263.932 227.635 263.372 228.986 263.372 230.395C263.372 231.803 263.932 233.155 264.928 234.151C265.924 235.147 267.275 235.707 268.684 235.707H293.872C295.281 235.707 296.632 235.147 297.628 234.151C298.624 233.155 299.184 231.803 299.184 230.395C299.184 228.986 298.624 227.635 297.628 226.638C296.632 225.642 295.281 225.083 293.872 225.083ZM182.017 230.395C182.017 231.092 182.155 231.783 182.422 232.427C182.688 233.072 183.08 233.657 183.573 234.151C184.066 234.644 184.652 235.035 185.296 235.302C185.941 235.569 186.632 235.707 187.329 235.707H245.574C246.983 235.707 248.334 235.147 249.33 234.151C250.326 233.155 250.886 231.803 250.886 230.395C250.886 228.986 250.326 227.635 249.33 226.638C248.334 225.642 246.983 225.083 245.574 225.083H187.329C185.92 225.083 184.569 225.643 183.573 226.639C182.577 227.635 182.017 228.986 182.017 230.395ZM49.8061 235.707H161.342C162.751 235.707 164.102 235.147 165.098 234.151C166.094 233.155 166.654 231.803 166.654 230.395C166.654 228.986 166.094 227.635 165.098 226.638C164.102 225.642 162.751 225.083 161.342 225.083H49.8061C48.3973 225.083 47.0462 225.642 46.05 226.638C45.0538 227.635 44.4941 228.986 44.4941 230.395C44.4941 231.803 45.0538 233.155 46.05 234.151C47.0462 235.147 48.3973 235.707 49.8061 235.707ZM371.386 272.383C372.084 272.383 372.774 272.245 373.419 271.978C374.063 271.711 374.649 271.32 375.142 270.827C375.636 270.333 376.027 269.748 376.294 269.103C376.561 268.459 376.698 267.768 376.698 267.071V249.278C376.698 247.869 376.138 246.518 375.142 245.521C374.146 244.525 372.795 243.966 371.386 243.966C369.977 243.966 368.626 244.525 367.63 245.521C366.634 246.518 366.074 247.869 366.074 249.278V267.071C366.074 268.479 366.634 269.83 367.63 270.826C368.626 271.823 369.977 272.382 371.386 272.383Z" fill="url(#paint0_linear_1152_911)"/>
<path d="M366.075 191.147V227.923C366.075 229.332 366.634 230.683 367.63 231.679C368.627 232.675 369.978 233.235 371.387 233.235C372.795 233.235 374.147 232.675 375.143 231.679C376.139 230.683 376.699 229.332 376.699 227.923V196.386H402.408V464.812H376.699V313.55C376.699 312.141 376.139 310.79 375.143 309.794C374.147 308.797 372.795 308.238 371.387 308.238C369.978 308.238 368.627 308.797 367.63 309.794C366.634 310.79 366.075 312.141 366.075 313.55L366.057 486.472C366.057 498.885 376.262 509.951 389.538 509.951C402.477 509.951 413.032 499.41 413.032 486.457C413.032 485.909 413.001 190.419 413.013 190.962C412.985 189.642 412.441 188.854 412.246 188.317L394.85 159.655V151.699C394.85 150.29 394.29 148.939 393.294 147.943C392.298 146.946 390.946 146.387 389.538 146.387C388.129 146.387 386.778 146.946 385.781 147.943C384.785 148.939 384.226 150.29 384.226 151.699V159.655L366.827 188.318C366.505 188.848 366.061 190.1 366.075 191.147ZM389.538 171.38L398.255 185.744H380.819L389.538 171.38ZM402.393 475.436V486.472C402.393 493.56 396.635 499.311 389.554 499.311C382.296 499.311 376.699 493.431 376.699 486.456V475.436H402.393Z" fill="url(#paint1_linear_1152_911)"/>
<path d="M394.85 440.248V363.183C394.85 361.774 394.29 360.423 393.294 359.426C392.298 358.43 390.947 357.871 389.538 357.871C388.129 357.871 386.778 358.43 385.782 359.426C384.786 360.423 384.226 361.774 384.226 363.183V440.248C384.226 441.656 384.786 443.008 385.782 444.004C386.778 445 388.129 445.56 389.538 445.56C390.947 445.56 392.298 445 393.294 444.004C394.29 443.008 394.85 441.656 394.85 440.248ZM260.308 350.746C261.047 350.649 261.757 350.399 262.392 350.011C263.028 349.622 263.575 349.104 263.998 348.491C264.42 347.878 264.709 347.182 264.846 346.45C264.982 345.718 264.963 344.965 264.79 344.241C262.523 334.782 258.775 325.693 253.65 317.227C253.262 316.586 252.742 316.035 252.125 315.609C251.509 315.183 250.809 314.893 250.073 314.756C249.336 314.62 248.579 314.641 247.851 314.817C247.123 314.994 246.44 315.323 245.848 315.782C230.664 327.586 211.249 308.078 222.974 292.957C223.429 292.369 223.756 291.692 223.933 290.971C224.11 290.249 224.134 289.498 224.003 288.766C223.872 288.035 223.589 287.339 223.173 286.723C222.756 286.108 222.215 285.587 221.584 285.194C213.567 280.196 204.476 276.404 194.568 273.924C191.455 273.161 188.399 275.266 188.008 278.424C185.648 297.495 158.049 297.569 155.68 278.424C155.294 275.271 152.23 273.167 149.144 273.919C139.43 276.305 130.337 280.095 122.117 285.186C119.409 286.862 118.789 290.507 120.737 292.985C132.555 308.012 113.025 327.644 97.92 315.753C95.39 313.755 91.732 314.477 90.095 317.167C84.939 325.649 81.17 334.758 78.898 344.24C78.7238 344.969 78.7058 345.727 78.8454 346.464C78.985 347.201 79.2789 347.9 79.7079 348.515C80.1369 349.13 80.6913 349.648 81.3345 350.033C81.9777 350.419 82.6953 350.664 83.44 350.753C102.5 353.014 102.531 380.711 83.411 383.071C80.259 383.462 78.15 386.522 78.906 389.61C81.277 399.266 85.045 408.352 90.103 416.613C90.4934 417.25 91.0137 417.797 91.63 418.22C92.2462 418.642 92.9446 418.93 93.6795 419.064C94.4145 419.198 95.1695 419.176 95.8953 418.999C96.6211 418.822 97.3015 418.494 97.892 418.037C113.067 406.263 132.507 425.717 120.766 440.865C120.308 441.456 119.981 442.137 119.804 442.864C119.628 443.59 119.606 444.346 119.742 445.081C119.877 445.816 120.166 446.515 120.59 447.131C121.013 447.747 121.562 448.267 122.2 448.657C130.554 453.757 139.655 457.519 149.172 459.805C149.897 459.978 150.649 459.996 151.381 459.86C152.114 459.723 152.809 459.434 153.422 459.012C154.036 458.589 154.553 458.042 154.942 457.407C155.33 456.771 155.581 456.061 155.677 455.323C158.158 436.255 185.647 436.401 188.008 455.297C188.404 458.473 191.484 460.537 194.511 459.805C204.05 457.529 213.171 453.767 221.54 448.657C224.256 446.999 224.906 443.36 222.974 440.865C211.262 425.756 230.639 406.223 245.848 418.037C246.44 418.496 247.123 418.825 247.851 419.002C248.579 419.178 249.336 419.199 250.073 419.063C250.81 418.926 251.509 418.636 252.126 418.21C252.742 417.784 253.262 417.232 253.65 416.592C258.783 408.116 262.531 399.009 264.79 389.524C265.529 386.439 263.403 383.393 260.256 383.019C241.399 380.752 241.082 353.244 260.308 350.746ZM253.066 392.165C251.545 397.104 249.571 401.893 247.168 406.469C224.296 395.805 200.879 419.52 211.416 442.19C206.847 444.597 202.063 446.571 197.127 448.088C188.565 424.627 155.288 424.407 146.58 448.085C141.654 446.568 136.881 444.595 132.322 442.192C142.916 419.406 119.323 395.854 96.554 406.479C94.1492 401.908 92.1705 397.126 90.643 392.193C114.337 383.589 114.3 350.095 90.63 341.599C92.1575 336.667 94.1379 331.887 96.546 327.32C119.308 338.062 143 314.292 132.285 291.589C136.847 289.172 141.625 287.186 146.556 285.657C155.133 309.309 188.513 309.347 197.121 285.67C202.194 287.252 206.98 289.234 211.431 291.597C200.813 314.352 224.365 337.98 247.168 327.349C249.571 331.923 251.547 336.709 253.071 341.646C229.267 350.369 229.598 383.706 253.066 392.165Z" fill="url(#paint2_linear_1152_911)"/>
<path d="M171.817 331.398C152.25 331.398 136.332 347.316 136.332 366.88C136.332 386.447 152.25 402.365 171.817 402.365C191.413 402.365 207.354 386.447 207.354 366.88C207.354 347.315 191.413 331.398 171.817 331.398ZM171.817 391.741C158.109 391.741 146.956 380.588 146.956 366.88C146.956 353.172 158.109 342.022 171.817 342.022C185.553 342.022 196.73 353.173 196.73 366.88C196.73 380.588 185.553 391.741 171.817 391.741Z" fill="url(#paint3_linear_1152_911)"/>
<path d="M24.617 509.95H319.064C332.637 509.95 343.681 498.908 343.681 485.335V99.449C343.681 98.041 343.121 96.689 342.125 95.693L247.986 1.558C246.988 0.56414 245.638 0.00427237 244.229 0H24.617C11.044 0 0 11.042 0 24.615V485.336C0 498.909 11.044 509.95 24.617 509.95ZM10.624 24.614C10.624 16.9 16.901 10.623 24.617 10.623H238.917V80.146C238.917 93.719 249.961 104.761 263.534 104.761H317.121C318.53 104.761 319.881 104.201 320.877 103.205C321.873 102.209 322.433 100.858 322.433 99.449C322.433 98.0402 321.873 96.689 320.877 95.6928C319.881 94.6967 318.53 94.137 317.121 94.137H263.534C255.818 94.137 249.541 87.86 249.541 80.146V18.135L333.057 101.649V485.336C333.057 493.05 326.78 499.327 319.064 499.327H24.617C16.901 499.327 10.624 493.05 10.624 485.336V24.614Z" fill="url(#paint4_linear_1152_911)"/>
<defs>
<linearGradient id="paint0_linear_1152_911" x1="56.3471" y1="64.3114" x2="242.505" y2="383.43" gradientUnits="userSpaceOnUse">
<stop stop-color="#1BA2D7"/>
<stop offset="1" stop-color="#8D3DFA"/>
</linearGradient>
<linearGradient id="paint1_linear_1152_911" x1="367.733" y1="169.82" x2="469.18" y2="184.863" gradientUnits="userSpaceOnUse">
<stop stop-color="#1BA2D7"/>
<stop offset="1" stop-color="#8D3DFA"/>
</linearGradient>
<linearGradient id="paint2_linear_1152_911" x1="90.0303" y1="285.766" x2="235.484" y2="569.174" gradientUnits="userSpaceOnUse">
<stop stop-color="#1BA2D7"/>
<stop offset="1" stop-color="#8D3DFA"/>
</linearGradient>
<linearGradient id="paint3_linear_1152_911" x1="138.866" y1="335.972" x2="206.456" y2="413.603" gradientUnits="userSpaceOnUse">
<stop stop-color="#1BA2D7"/>
<stop offset="1" stop-color="#8D3DFA"/>
</linearGradient>
<linearGradient id="paint4_linear_1152_911" x1="12.2625" y1="32.868" x2="486.866" y2="399.957" gradientUnits="userSpaceOnUse">
<stop stop-color="#1BA2D7"/>
<stop offset="1" stop-color="#8D3DFA"/>
</linearGradient>
</defs>
</svg>
