<svg width="384" height="448" viewBox="0 0 384 448" fill="none" xmlns="http://www.w3.org/2000/svg">
<path d="M176.005 32H144.005C139.761 32 135.692 30.3143 132.691 27.3137C129.691 24.3131 128.005 20.2435 128.005 16C128.005 11.7565 129.691 7.68687 132.691 4.68629C135.692 1.68571 139.761 0 144.005 0H176.005C180.248 0 184.318 1.68571 187.319 4.68629C190.319 7.68687 192.005 11.7565 192.005 16C192.005 20.2435 190.319 24.3131 187.319 27.3137C184.318 30.3143 180.248 32 176.005 32Z" fill="#FA6450"/>
<path d="M144.005 16C144.005 11.7565 145.691 7.68687 148.691 4.68629C151.692 1.68571 155.761 0 160.005 0H144.005C139.761 0 135.692 1.68571 132.691 4.68629C129.691 7.68687 128.005 11.7565 128.005 16C128.005 20.2435 129.691 24.3131 132.691 27.3137C135.692 30.3143 139.761 32 144.005 32H160.005C155.761 32 151.692 30.3143 148.691 27.3137C145.691 24.3131 144.005 20.2435 144.005 16Z" fill="#DC4632"/>
<path d="M144.005 32H176.005V80H144.005V32Z" fill="#505050"/>
<path d="M144.005 32H160.005V80H144.005V32Z" fill="#3C3C3C"/>
<path d="M281.381 136.569L247.437 102.625L281.381 68.6807C284.381 65.6811 288.45 63.9961 292.693 63.9961C296.935 63.9961 301.004 65.6811 304.005 68.6807L315.317 80.0007C318.316 83.0011 320.001 87.07 320.001 91.3127C320.001 95.5553 318.316 99.6242 315.317 102.625L281.381 136.569Z" fill="#505050"/>
<path d="M297.381 68.6862C298.389 67.6782 299.517 66.8942 300.693 66.2142C297.652 64.4379 294.109 63.7172 290.616 64.1643C287.123 64.6115 283.876 66.2013 281.381 68.6862L247.437 102.63L255.981 111.174L297.381 68.6862Z" fill="#3C3C3C"/>
<path d="M208.005 272H312.661C317.421 256.848 320.005 240.728 320.005 224C320.005 135.632 248.373 64 160.005 64C71.6369 64 0.00488281 135.632 0.00488281 224C0.00488281 312.368 71.6369 384 160.005 384C176.733 384 192.853 381.416 208.005 376.656V272Z" fill="#FA6450"/>
<path d="M208.005 272H278.613C284.812 256.756 288.001 240.456 288.005 224C288.005 153.304 230.701 96 160.005 96C89.3089 96 32.0049 153.304 32.0049 224C32.0049 294.696 89.3089 352 160.005 352C176.997 352 193.173 348.616 208.005 342.608V272Z" fill="#F0F0F0"/>
<path d="M72.5726 102.624L38.6286 136.568L4.68458 102.624C1.68504 99.624 0 95.5551 0 91.3125C0 87.0699 1.68504 83.0009 4.68458 80.0005L16.0046 68.6885C19.005 65.689 23.074 64.0039 27.3166 64.0039C31.5592 64.0039 35.6281 65.689 38.6286 68.6885L72.5726 102.624Z" fill="#505050"/>
<path d="M20.6924 102.622C17.6929 99.6217 16.0078 95.5528 16.0078 91.3102C16.0078 87.0676 17.6929 82.9986 20.6924 79.9982L32.0044 68.6862C33.0124 67.6782 34.1404 66.8942 35.3164 66.2142C32.2757 64.4379 28.7328 63.7172 25.2398 64.1643C21.7468 64.6115 18.4997 66.2013 16.0044 68.6862L4.6924 79.9982C1.69286 82.9986 0.0078125 87.0676 0.0078125 91.3102C0.0078125 95.5528 1.69286 99.6217 4.6924 102.622L38.6364 136.566L46.6364 128.566L20.6924 102.622Z" fill="#3C3C3C"/>
<path d="M32.0049 224C32.0049 141.04 95.1569 72.84 176.005 64.808C170.688 64.2761 165.348 64.0064 160.005 64C71.6369 64 0.00488281 135.632 0.00488281 224C0.00488281 312.368 71.6369 384 160.005 384C165.405 384 170.741 383.712 176.005 383.192C95.1569 375.16 32.0049 306.96 32.0049 224Z" fill="#DC4632"/>
<path d="M224.005 288H384.005V448H224.005V288Z" fill="#FAB400"/>
<path d="M224.005 288H240.005V448H224.005V288Z" fill="#DC9600"/>
<path d="M288.005 288V333.712L304.005 322.288L320.005 333.712V288H288.005Z" fill="#FA6450"/>
<path d="M336.005 413.711H368.005V425.143H336.005V413.711ZM336.005 390.855H368.005V402.287H336.005V390.855Z" fill="#F0F0F0"/>
<path d="M164.005 228H112.005V220H156.005V144H164.005V228Z" fill="#505050"/>
<path d="M160.004 240C157.874 240.048 155.755 239.67 153.772 238.888C151.789 238.106 149.983 236.936 148.459 235.446C146.935 233.956 145.724 232.177 144.897 230.213C144.069 228.249 143.643 226.139 143.643 224.008C143.642 221.877 144.067 219.767 144.893 217.802C145.72 215.837 146.93 214.058 148.453 212.567C149.977 211.077 151.782 209.906 153.765 209.123C155.747 208.34 157.866 207.961 159.996 208.008C164.177 208.1 168.155 209.826 171.079 212.815C174.004 215.803 175.642 219.818 175.643 224C175.644 228.181 174.008 232.197 171.085 235.188C168.162 238.178 164.185 239.905 160.004 240Z" fill="#FA6450"/>
<path d="M156.005 96H164.005V112H156.005V96ZM156.005 336H164.005V352H156.005V336ZM236.325 141.992L247.637 130.68L253.293 136.336L241.981 147.648L236.325 141.992ZM66.6129 311.648L77.9249 300.336L83.5809 305.992L72.2689 317.304L66.6129 311.648ZM272.005 220H288.005V228H272.005V220ZM32.0049 220H48.0049V228H32.0049V220ZM66.6449 136.32L72.3009 130.664L83.6129 141.976L77.9569 147.632L66.6449 136.32Z" fill="#505050"/>
</svg>
