<svg width="461" height="512" viewBox="0 0 461 512" fill="none" xmlns="http://www.w3.org/2000/svg">
<path d="M190.49 501.18C202.607 508.23 216.377 511.944 230.396 511.944C244.415 511.944 258.184 508.23 270.302 501.18L421.171 413.287C433.219 406.22 443.213 396.129 450.164 384.014C457.114 371.898 460.781 358.177 460.8 344.21V167.723C460.788 153.748 457.125 140.019 450.174 127.895C443.223 115.771 433.225 105.674 421.171 98.6033L270.31 10.7526C258.19 3.70978 244.422 0 230.404 0C216.386 0 202.618 3.70978 190.498 10.7526L39.6203 98.6374C27.5726 105.706 17.5797 115.799 10.6306 127.916C3.68145 140.033 0.0170396 153.755 0 167.723V344.21C0.01197 358.185 3.67485 371.914 10.6258 384.038C17.5767 396.162 27.5745 406.259 39.6288 413.33L190.49 501.18ZM17.0667 344.21V167.723C17.0752 156.738 19.9526 145.946 25.4141 136.415C30.8756 126.884 38.7318 118.945 48.2048 113.383L199.091 25.4896C208.6 19.9603 219.404 17.0475 230.404 17.0475C241.404 17.0475 252.208 19.9603 261.717 25.4896L412.587 113.383C422.062 118.943 429.92 126.882 435.383 136.413C440.846 145.944 443.725 156.737 443.733 167.723V344.21C443.726 355.195 440.849 365.987 435.387 375.519C429.925 385.05 422.069 392.989 412.595 398.55L261.709 486.443C252.198 491.968 241.395 494.879 230.396 494.879C219.397 494.879 208.593 491.968 199.083 486.443L48.2048 398.55C38.7312 392.989 30.8746 385.05 25.413 375.519C19.9514 365.987 17.0743 355.195 17.0667 344.21Z" fill="white"/>
<path d="M207.684 471.689C214.578 475.713 222.417 477.833 230.399 477.833C238.382 477.833 246.221 475.713 253.115 471.689L404.002 383.796C410.899 379.742 416.619 373.957 420.594 367.014C424.569 360.071 426.662 352.21 426.666 344.21V167.723C426.664 159.72 424.57 151.857 420.593 144.912C416.616 137.967 410.894 132.181 403.993 128.129L253.115 40.2438C246.196 36.2927 238.367 34.2146 230.399 34.2146C222.432 34.2146 214.602 36.2927 207.684 40.2438L56.8144 128.137C49.9137 132.189 44.1909 137.973 40.2126 144.916C36.2344 151.859 34.1386 159.721 34.1328 167.723V344.21C34.1354 352.213 36.2288 360.076 40.2057 367.021C44.1826 373.966 49.9049 379.752 56.8059 383.804L207.684 471.689ZM51.1995 167.723C51.1978 162.704 52.507 157.77 54.9974 153.412C57.4879 149.054 61.0734 145.421 65.3989 142.874L216.268 54.9808C220.557 52.4775 225.434 51.1584 230.399 51.1584C235.365 51.1584 240.242 52.4775 244.531 54.9808L395.4 142.874C399.726 145.421 403.311 149.054 405.802 153.412C408.292 157.77 409.601 162.704 409.599 167.723V344.21C409.601 349.228 408.293 354.161 405.804 358.519C403.315 362.877 399.732 366.51 395.409 369.059L244.531 456.952C240.226 459.409 235.356 460.702 230.399 460.702C225.443 460.702 220.573 459.409 216.268 456.952L65.3989 369.059C61.0734 366.512 57.4879 362.879 54.9974 358.521C52.507 354.163 51.1978 349.229 51.1995 344.21V167.723Z" fill="white"/>
<path d="M110.934 247.433C113.197 247.433 115.368 246.534 116.968 244.934C118.568 243.334 119.467 241.163 119.467 238.9V184.372L154.821 243.295C155.579 244.557 156.651 245.601 157.933 246.326C159.214 247.052 160.662 247.433 162.134 247.433C162.904 247.432 163.67 247.329 164.412 247.126C166.211 246.628 167.797 245.553 168.927 244.067C170.056 242.582 170.668 240.766 170.667 238.9V153.567C170.667 151.303 169.768 149.133 168.168 147.533C166.568 145.932 164.397 145.033 162.134 145.033C159.871 145.033 157.7 145.932 156.1 147.533C154.5 149.133 153.601 151.303 153.601 153.567V208.095L118.247 149.172C117.286 147.573 115.827 146.334 114.095 145.643C112.362 144.952 110.451 144.848 108.654 145.346C106.856 145.845 105.272 146.918 104.142 148.403C103.013 149.888 102.401 151.701 102.401 153.567V238.9C102.401 241.163 103.3 243.334 104.9 244.934C106.5 246.534 108.671 247.433 110.934 247.433ZM204.801 247.433C207.064 247.433 209.234 246.534 210.835 244.934C212.435 243.334 213.334 241.163 213.334 238.9V204.767H230.401C232.664 204.767 234.834 203.868 236.435 202.267C238.035 200.667 238.934 198.496 238.934 196.233C238.934 193.97 238.035 191.8 236.435 190.199C234.834 188.599 232.664 187.7 230.401 187.7H213.334V162.1H256.001C258.264 162.1 260.434 161.201 262.035 159.601C263.635 158 264.534 155.83 264.534 153.567C264.534 151.303 263.635 149.133 262.035 147.533C260.434 145.932 258.264 145.033 256.001 145.033H204.801C202.537 145.033 200.367 145.932 198.767 147.533C197.166 149.133 196.267 151.303 196.267 153.567V238.9C196.267 241.163 197.166 243.334 198.767 244.934C200.367 246.534 202.537 247.433 204.801 247.433ZM290.134 162.1H307.201V238.9C307.201 241.163 308.1 243.334 309.7 244.934C311.3 246.534 313.471 247.433 315.734 247.433C317.997 247.433 320.168 246.534 321.768 244.934C323.368 243.334 324.267 241.163 324.267 238.9V162.1H341.334C343.597 162.1 345.768 161.201 347.368 159.601C348.968 158 349.867 155.83 349.867 153.567C349.867 151.303 348.968 149.133 347.368 147.533C345.768 145.932 343.597 145.033 341.334 145.033H290.134C287.871 145.033 285.7 145.932 284.1 147.533C282.5 149.133 281.601 151.303 281.601 153.567C281.601 155.83 282.5 158 284.1 159.601C285.7 161.201 287.871 162.1 290.134 162.1ZM179.201 290.1H264.534C266.797 290.1 268.968 289.201 270.568 287.601C272.168 286 273.067 283.83 273.067 281.567C273.067 279.303 272.168 277.133 270.568 275.533C268.968 273.932 266.797 273.033 264.534 273.033H179.201C176.937 273.033 174.767 273.932 173.167 275.533C171.566 277.133 170.667 279.303 170.667 281.567C170.667 283.83 171.566 286 173.167 287.601C174.767 289.201 176.937 290.1 179.201 290.1ZM256.001 307.167H204.801C202.537 307.167 200.367 308.066 198.767 309.666C197.166 311.266 196.267 313.437 196.267 315.7C196.267 317.963 197.166 320.134 198.767 321.734C200.367 323.334 202.537 324.233 204.801 324.233H256.001C258.264 324.233 260.434 323.334 262.035 321.734C263.635 320.134 264.534 317.963 264.534 315.7C264.534 313.437 263.635 311.266 262.035 309.666C260.434 308.066 258.264 307.167 256.001 307.167ZM290.134 324.233H366.934C369.197 324.233 371.368 323.334 372.968 321.734C374.568 320.134 375.467 317.963 375.467 315.7C375.467 313.437 374.568 311.266 372.968 309.666C371.368 308.066 369.197 307.167 366.934 307.167H290.134C287.871 307.167 285.7 308.066 284.1 309.666C282.5 311.266 281.601 313.437 281.601 315.7C281.601 317.963 282.5 320.134 284.1 321.734C285.7 323.334 287.871 324.233 290.134 324.233ZM256.001 375.433H204.801C202.537 375.433 200.367 376.332 198.767 377.933C197.166 379.533 196.267 381.703 196.267 383.967C196.267 386.23 197.166 388.4 198.767 390.001C200.367 391.601 202.537 392.5 204.801 392.5H256.001C258.264 392.5 260.434 391.601 262.035 390.001C263.635 388.4 264.534 386.23 264.534 383.967C264.534 381.703 263.635 379.533 262.035 377.933C260.434 376.332 258.264 375.433 256.001 375.433ZM324.267 375.433H290.134C287.871 375.433 285.7 376.332 284.1 377.933C282.5 379.533 281.601 381.703 281.601 383.967C281.601 386.23 282.5 388.4 284.1 390.001C285.7 391.601 287.871 392.5 290.134 392.5H324.267C326.531 392.5 328.701 391.601 330.301 390.001C331.902 388.4 332.801 386.23 332.801 383.967C332.801 381.703 331.902 379.533 330.301 377.933C328.701 376.332 326.531 375.433 324.267 375.433ZM247.467 358.367C249.731 358.367 251.901 357.468 253.501 355.867C255.102 354.267 256.001 352.096 256.001 349.833C256.001 347.57 255.102 345.4 253.501 343.799C251.901 342.199 249.731 341.3 247.467 341.3H196.267C194.004 341.3 191.834 342.199 190.233 343.799C188.633 345.4 187.734 347.57 187.734 349.833C187.734 352.096 188.633 354.267 190.233 355.867C191.834 357.468 194.004 358.367 196.267 358.367H247.467ZM281.601 358.367H358.401C360.664 358.367 362.834 357.468 364.435 355.867C366.035 354.267 366.934 352.096 366.934 349.833C366.934 347.57 366.035 345.4 364.435 343.799C362.834 342.199 360.664 341.3 358.401 341.3H281.601C279.337 341.3 277.167 342.199 275.567 343.799C273.966 345.4 273.067 347.57 273.067 349.833C273.067 352.096 273.966 354.267 275.567 355.867C277.167 357.468 279.337 358.367 281.601 358.367ZM145.067 273.033C142.804 273.033 140.634 273.932 139.033 275.533C137.433 277.133 136.534 279.303 136.534 281.567V383.967C136.534 386.23 137.433 388.4 139.033 390.001C140.634 391.601 142.804 392.5 145.067 392.5C147.331 392.5 149.501 391.601 151.101 390.001C152.702 388.4 153.601 386.23 153.601 383.967V281.567C153.601 279.303 152.702 277.133 151.101 275.533C149.501 273.932 147.331 273.033 145.067 273.033ZM93.8673 290.1H110.934C113.197 290.1 115.368 289.201 116.968 287.601C118.568 286 119.467 283.83 119.467 281.567C119.467 279.303 118.568 277.133 116.968 275.533C115.368 273.932 113.197 273.033 110.934 273.033H93.8673C91.6041 273.033 89.4337 273.932 87.8333 275.533C86.233 277.133 85.334 279.303 85.334 281.567C85.334 283.83 86.233 286 87.8333 287.601C89.4337 289.201 91.6041 290.1 93.8673 290.1ZM93.8673 324.233H110.934C113.197 324.233 115.368 323.334 116.968 321.734C118.568 320.134 119.467 317.963 119.467 315.7C119.467 313.437 118.568 311.266 116.968 309.666C115.368 308.066 113.197 307.167 110.934 307.167H93.8673C91.6041 307.167 89.4337 308.066 87.8333 309.666C86.233 311.266 85.334 313.437 85.334 315.7C85.334 317.963 86.233 320.134 87.8333 321.734C89.4337 323.334 91.6041 324.233 93.8673 324.233ZM93.8673 358.367H110.934C113.197 358.367 115.368 357.468 116.968 355.867C118.568 354.267 119.467 352.096 119.467 349.833C119.467 347.57 118.568 345.4 116.968 343.799C115.368 342.199 113.197 341.3 110.934 341.3H93.8673C91.6041 341.3 89.4337 342.199 87.8333 343.799C86.233 345.4 85.334 347.57 85.334 349.833C85.334 352.096 86.233 354.267 87.8333 355.867C89.4337 357.468 91.6041 358.367 93.8673 358.367Z" fill="white"/>
</svg>
