<svg width="512" height="512" viewBox="0 0 512 512" fill="none" xmlns="http://www.w3.org/2000/svg">
<path d="M110.133 287.601H29.4662C17.3329 287.601 7.59961 297.468 7.59961 309.468V337.068C7.59961 349.201 17.4663 358.934 29.4662 358.934H223.466" stroke="white" stroke-width="20" stroke-miterlimit="10" stroke-linecap="round" stroke-linejoin="round"/>
<path d="M197.332 216.135H307.198C314.932 216.135 321.732 220.135 325.598 226.135" stroke="white" stroke-width="20" stroke-miterlimit="10" stroke-linecap="round" stroke-linejoin="round"/>
<path d="M244.399 287.601H197.332" stroke="white" stroke-width="20" stroke-miterlimit="10" stroke-linecap="round" stroke-linejoin="round"/>
<path d="M110.132 287.601H70.1322C57.9989 287.601 48.2656 277.735 48.2656 265.735V238.135C48.2656 226.001 58.1323 216.268 70.1322 216.268H110.265" stroke="white" stroke-width="20" stroke-miterlimit="10" stroke-linecap="round" stroke-linejoin="round"/>
<path d="M242.399 144.668H278.665C290.798 144.668 300.532 154.535 300.532 166.535V194.135C300.532 206.268 290.665 216.001 278.665 216.001H197.332" stroke="white" stroke-width="20" stroke-miterlimit="10" stroke-linecap="round" stroke-linejoin="round"/>
<path d="M65.0662 144.668H41.4662C29.3329 144.668 19.5996 154.535 19.5996 166.535V194.135C19.5996 206.268 29.4663 216.001 41.4662 216.001H110.133" stroke="white" stroke-width="20" stroke-miterlimit="10" stroke-linecap="round" stroke-linejoin="round"/>
<path d="M223.466 358.934H49.4662C37.3329 358.934 27.5996 368.801 27.5996 380.801V408.401C27.5996 420.534 37.4662 430.268 49.4662 430.268H241.599" stroke="white" stroke-width="20" stroke-miterlimit="10" stroke-linecap="round" stroke-linejoin="round"/>
<path d="M293.333 482.934C291.866 493.601 282.666 501.867 271.599 501.867H34.3998C22.2665 501.867 12.5332 492.001 12.5332 480.001V452.401C12.5332 440.268 22.3998 430.534 34.3998 430.534H241.466" stroke="white" stroke-width="20" stroke-miterlimit="10" stroke-linecap="round" stroke-linejoin="round"/>
<path d="M466.264 265.068C489.998 290.268 504.531 324.135 504.531 361.468C504.531 439.068 441.598 502.001 363.998 502.001C286.398 502.001 223.465 439.068 223.465 361.468C223.465 283.868 286.398 220.935 363.998 220.935C393.598 220.935 420.931 230.001 443.598 245.601" stroke="white" stroke-width="20" stroke-miterlimit="10" stroke-linecap="round" stroke-linejoin="round"/>
<path d="M388.399 316.801C388.399 316.801 374.532 306.268 353.065 311.601C333.332 316.535 328.532 338.668 341.865 347.335C349.599 352.268 361.065 356.401 376.665 360.935C411.465 371.068 398.665 411.601 363.199 411.734C349.332 411.868 342.932 411.068 330.799 404.534" stroke="white" stroke-width="20" stroke-miterlimit="10" stroke-linecap="round" stroke-linejoin="round"/>
<path d="M363.199 296.401V426.401" stroke="white" stroke-width="20" stroke-miterlimit="10" stroke-linecap="round" stroke-linejoin="round"/>
<path d="M458.798 361.334C458.798 413.734 416.265 456.268 363.865 456.268C311.465 456.268 268.932 413.734 268.932 361.334C268.932 308.935 311.465 266.401 363.865 266.401C416.398 266.535 458.798 308.935 458.798 361.334Z" stroke="white" stroke-width="20" stroke-miterlimit="10" stroke-linecap="round" stroke-linejoin="round"/>
<path d="M79.6003 192.535C82.9336 193.735 86.5336 194.401 90.2669 194.401H110V310.134C110 320.934 118.8 329.734 129.6 329.734H177.6C188.4 329.734 197.2 320.934 197.2 310.134V194.401H216.933C240.933 194.401 256 168.401 244 147.602L180.667 37.8684C168.667 17.0685 138.667 17.0685 126.667 37.8684L63.3337 147.602C59.2003 154.802 58.267 162.801 59.867 170.001" stroke="white" stroke-width="20" stroke-miterlimit="10" stroke-linecap="round" stroke-linejoin="round"/>
<path d="M373.332 164.935L372.799 162.802C370.799 155.202 374.932 147.468 382.399 144.935L405.199 137.202C413.332 134.402 422.132 139.068 424.399 147.468L425.865 152.802C428.132 161.068 422.799 169.602 414.399 171.202L390.799 175.868C382.932 177.202 375.332 172.402 373.332 164.935Z" stroke="white" stroke-width="20" stroke-miterlimit="10" stroke-linecap="round" stroke-linejoin="round"/>
<path d="M336.932 100.802L335.332 99.2017C329.865 93.7351 329.465 84.8018 334.665 78.9351L350.398 60.8018C355.998 54.2685 365.998 54.0019 372.132 60.0018L375.998 63.8685C382.131 70.0018 381.731 79.8685 375.198 85.6018L357.332 101.468C351.332 106.668 342.532 106.402 336.932 100.802Z" stroke="white" stroke-width="20" stroke-miterlimit="10" stroke-linecap="round" stroke-linejoin="round"/>
<path d="M273.466 63.4684L271.332 62.935C263.732 60.9351 259.066 53.335 260.532 45.7351L265.199 22.1351C266.799 13.7352 275.332 8.40184 283.599 10.6685L288.932 12.1352C297.199 14.4018 301.999 23.2018 299.199 31.3351L291.466 54.1351C288.932 61.335 281.066 65.4684 273.466 63.4684Z" stroke="white" stroke-width="20" stroke-miterlimit="10" stroke-linecap="round" stroke-linejoin="round"/>
</svg>
