<svg width="504" height="505" viewBox="0 0 504 505" fill="none" xmlns="http://www.w3.org/2000/svg">
<path d="M339.902 347.48C341.493 347.166 342.925 346.31 343.955 345.057C344.985 343.805 345.548 342.234 345.548 340.612V311.792C345.548 310.17 344.985 308.599 343.955 307.347C342.926 306.094 341.493 305.238 339.902 304.924L328.358 302.649L322.648 288.866L329.201 279.093C330.104 277.746 330.512 276.128 330.354 274.514C330.197 272.9 329.484 271.391 328.338 270.244L307.959 249.865C306.812 248.718 305.303 248.006 303.689 247.848C302.075 247.691 300.457 248.099 299.11 249.002L289.337 255.555L275.554 249.845L273.279 238.301C272.965 236.71 272.109 235.278 270.856 234.248C269.604 233.218 268.033 232.655 266.411 232.655H237.591C235.969 232.655 234.398 233.218 233.146 234.248C231.893 235.277 231.037 236.71 230.723 238.301L228.448 249.845L214.665 255.555L204.892 249.002C203.545 248.099 201.927 247.692 200.313 247.849C198.699 248.006 197.19 248.719 196.043 249.865L175.664 270.244C174.517 271.391 173.805 272.9 173.647 274.514C173.49 276.128 173.898 277.746 174.801 279.093L181.354 288.866L175.644 302.649L164.1 304.924C162.509 305.238 161.077 306.094 160.047 307.347C159.017 308.599 158.454 310.17 158.454 311.792V340.612C158.454 342.234 159.017 343.805 160.047 345.057C161.076 346.31 162.509 347.166 164.1 347.48L175.644 349.755L181.354 363.538L174.801 373.311C173.898 374.658 173.49 376.276 173.648 377.89C173.805 379.504 174.518 381.013 175.664 382.16L196.043 402.539C197.19 403.685 198.699 404.398 200.313 404.555C201.927 404.712 203.545 404.305 204.892 403.402L214.665 396.849L228.448 402.558L230.723 414.102C231.037 415.693 231.893 417.126 233.146 418.155C234.398 419.185 235.969 419.748 237.591 419.748H266.411C268.033 419.748 269.604 419.185 270.856 418.155C272.109 417.126 272.965 415.693 273.279 414.102L275.554 402.558L289.337 396.848L299.11 403.401C300.457 404.304 302.075 404.712 303.689 404.554C305.303 404.397 306.812 403.684 307.959 402.538L328.338 382.159C329.485 381.012 330.197 379.503 330.355 377.889C330.512 376.275 330.104 374.657 329.201 373.31L322.648 363.537L328.358 349.754L339.902 347.479V347.48ZM321.972 336.745C320.841 336.968 319.782 337.467 318.89 338.198C317.998 338.929 317.3 339.869 316.859 340.934L308.279 361.645C307.838 362.71 307.667 363.868 307.781 365.015C307.894 366.163 308.29 367.264 308.932 368.222L314.369 376.329L302.128 388.57L294.021 383.133C293.064 382.49 291.962 382.094 290.815 381.98C289.667 381.866 288.509 382.038 287.444 382.48L266.733 391.06C265.668 391.501 264.728 392.199 263.997 393.091C263.266 393.983 262.767 395.042 262.544 396.173L260.656 405.748H243.345L241.457 396.172C241.234 395.041 240.735 393.982 240.004 393.09C239.273 392.198 238.334 391.5 237.268 391.059L216.557 382.48C215.492 382.038 214.334 381.866 213.186 381.98C212.039 382.094 210.937 382.49 209.98 383.133L201.873 388.57L189.632 376.329L195.069 368.222C195.712 367.264 196.107 366.163 196.221 365.016C196.335 363.868 196.164 362.71 195.722 361.645L187.142 340.934C186.701 339.869 186.003 338.929 185.111 338.198C184.219 337.467 183.16 336.968 182.029 336.745L172.454 334.857V317.546L182.029 315.658C183.16 315.435 184.219 314.936 185.111 314.205C186.003 313.474 186.701 312.534 187.142 311.469L195.722 290.758C196.163 289.693 196.334 288.535 196.22 287.388C196.107 286.24 195.711 285.139 195.069 284.181L189.632 276.074L201.873 263.833L209.98 269.27C210.937 269.913 212.039 270.309 213.186 270.423C214.334 270.536 215.492 270.365 216.557 269.923L237.268 261.343C238.333 260.902 239.273 260.204 240.004 259.312C240.735 258.42 241.234 257.361 241.457 256.23L243.345 246.655H260.656L262.544 256.23C262.767 257.361 263.266 258.42 263.997 259.312C264.728 260.204 265.668 260.902 266.733 261.343L287.444 269.923C288.509 270.364 289.667 270.535 290.814 270.421C291.962 270.308 293.063 269.912 294.021 269.27L302.128 263.833L314.369 276.074L308.932 284.181C308.289 285.139 307.894 286.24 307.78 287.388C307.666 288.535 307.837 289.693 308.279 290.758L316.859 311.469C317.3 312.534 317.998 313.474 318.89 314.205C319.782 314.936 320.841 315.435 321.972 315.658L331.547 317.546V334.857L321.972 336.745ZM251.999 274.817C223.666 274.817 200.615 297.868 200.615 326.202C200.615 354.536 223.666 377.586 251.999 377.586C280.332 377.586 303.383 354.535 303.383 326.202C303.383 297.869 280.332 274.817 251.999 274.817ZM251.999 363.586C231.386 363.586 214.615 346.815 214.615 326.202C214.615 305.589 231.386 288.817 251.999 288.817C272.612 288.817 289.383 305.588 289.383 326.202C289.383 346.816 272.612 363.586 251.999 363.586ZM435.476 303.755H359.608C357.751 303.755 355.971 304.493 354.658 305.805C353.346 307.118 352.608 308.898 352.608 310.755C352.608 312.612 353.346 314.392 354.658 315.705C355.971 317.017 357.751 317.755 359.608 317.755H438.376C439.295 317.755 440.206 317.574 441.055 317.222C441.904 316.871 442.676 316.355 443.326 315.705L467.071 291.96C470.74 293.979 474.862 295.036 479.05 295.031C492.808 295.031 504 283.839 504 270.081C504 256.323 492.808 245.131 479.05 245.131C465.292 245.131 454.1 256.323 454.1 270.081C454.1 274.42 455.215 278.502 457.171 282.06L435.476 303.755ZM479.049 259.131C485.087 259.131 489.999 264.043 489.999 270.081C489.999 276.119 485.087 281.031 479.049 281.031C473.011 281.031 468.099 276.119 468.099 270.081C468.099 264.043 473.011 259.131 479.049 259.131ZM424.369 408.797V372.543C424.369 370.686 423.632 368.906 422.319 367.593C421.006 366.281 419.226 365.543 417.369 365.543H342.074C340.217 365.543 338.437 366.281 337.124 367.593C335.812 368.906 335.074 370.686 335.074 372.543C335.074 374.4 335.812 376.18 337.124 377.493C338.437 378.806 340.217 379.543 342.074 379.543H410.369V408.797C400.009 411.831 392.419 421.413 392.419 432.741C392.419 446.499 403.611 457.691 417.369 457.691C431.127 457.691 442.318 446.499 442.318 432.741C442.318 421.413 434.728 411.832 424.369 408.797ZM417.369 443.691C411.331 443.691 406.419 438.779 406.419 432.741C406.419 426.703 411.331 421.791 417.369 421.791C423.407 421.791 428.318 426.703 428.318 432.741C428.318 438.779 423.406 443.691 417.369 443.691ZM479.049 357.374C474.861 357.369 470.739 358.426 467.07 360.445L443.324 336.7C442.011 335.388 440.231 334.65 438.375 334.65H359.607C357.75 334.65 355.97 335.388 354.657 336.7C353.345 338.013 352.607 339.793 352.607 341.65C352.607 343.507 353.345 345.287 354.657 346.6C355.97 347.913 357.75 348.65 359.607 348.65H435.475L457.17 370.344C455.151 374.013 454.094 378.135 454.098 382.323C454.098 396.081 465.29 407.273 479.048 407.273C492.806 407.273 503.998 396.081 503.998 382.323C503.998 368.565 492.806 357.374 479.048 357.374H479.049ZM479.049 393.273C473.011 393.273 468.099 388.361 468.099 382.323C468.099 376.285 473.011 371.374 479.049 371.374C485.087 371.374 489.999 376.286 489.999 382.323C489.999 388.36 485.087 393.273 479.049 393.273ZM410.369 243.608V272.862H342.074C340.217 272.862 338.437 273.6 337.124 274.912C335.812 276.225 335.074 278.005 335.074 279.862C335.074 281.719 335.812 283.499 337.124 284.812C338.437 286.125 340.217 286.862 342.074 286.862H417.369C419.226 286.862 421.006 286.125 422.319 284.812C423.632 283.499 424.369 281.719 424.369 279.862V243.608C434.728 240.574 442.318 230.992 442.318 219.664C442.318 205.906 431.126 194.714 417.369 194.714C403.612 194.714 392.419 205.906 392.419 219.664C392.419 230.992 400.009 240.574 410.369 243.608ZM417.369 208.714C423.406 208.714 428.318 213.626 428.318 219.664C428.318 225.702 423.406 230.614 417.369 230.614C411.332 230.614 406.419 225.702 406.419 219.664C406.419 213.626 411.331 208.714 417.369 208.714ZM68.523 348.649H144.391C146.248 348.649 148.028 347.912 149.341 346.599C150.653 345.286 151.391 343.506 151.391 341.649C151.391 339.793 150.653 338.012 149.341 336.699C148.028 335.386 146.248 334.649 144.391 334.649H65.624C64.7049 334.649 63.7947 334.83 62.9455 335.182C62.0964 335.533 61.3248 336.049 60.675 336.699L36.929 360.444C33.2595 358.425 29.1383 357.368 24.95 357.373C11.192 357.373 0 368.565 0 382.322C0 396.079 11.192 407.272 24.95 407.272C38.708 407.272 49.899 396.08 49.899 382.322C49.899 377.983 48.784 373.901 46.828 370.343L68.523 348.649ZM24.95 393.272C18.912 393.272 14 388.36 14 382.322C14 376.284 18.912 371.373 24.95 371.373C30.988 371.373 35.899 376.285 35.899 382.322C35.899 388.359 30.987 393.272 24.95 393.272ZM93.63 408.796V379.542H161.925C163.782 379.542 165.562 378.805 166.875 377.492C168.187 376.179 168.925 374.399 168.925 372.542C168.925 370.685 168.187 368.905 166.875 367.592C165.562 366.28 163.782 365.542 161.925 365.542H86.63C84.7735 365.542 82.993 366.28 81.6803 367.592C80.3675 368.905 79.63 370.685 79.63 372.542V408.796C69.27 411.83 61.68 421.412 61.68 432.74C61.68 446.498 72.872 457.69 86.63 457.69C100.388 457.69 111.58 446.498 111.58 432.74C111.58 421.412 103.99 411.83 93.63 408.796ZM86.63 443.69C80.592 443.69 75.68 438.778 75.68 432.74C75.68 426.702 80.592 421.79 86.63 421.79C92.668 421.79 97.58 426.702 97.58 432.74C97.58 438.778 92.668 443.69 86.63 443.69ZM79.63 243.607V279.861C79.63 281.718 80.3675 283.498 81.6803 284.811C82.993 286.124 84.7735 286.861 86.63 286.861H161.925C163.782 286.861 165.562 286.124 166.875 284.811C168.187 283.498 168.925 281.718 168.925 279.861C168.925 278.004 168.187 276.224 166.875 274.911C165.562 273.599 163.782 272.861 161.925 272.861H93.63V243.607C103.99 240.573 111.58 230.991 111.58 219.663C111.58 205.905 100.388 194.713 86.63 194.713C72.872 194.713 61.68 205.905 61.68 219.663C61.68 230.991 69.27 240.573 79.63 243.607ZM86.63 208.713C92.668 208.713 97.58 213.625 97.58 219.663C97.58 225.701 92.668 230.613 86.63 230.613C80.592 230.613 75.68 225.701 75.68 219.663C75.68 213.625 80.592 208.713 86.63 208.713ZM24.95 295.03C29.289 295.03 33.371 293.915 36.929 291.959L60.675 315.704C61.9876 317.016 63.7678 317.754 65.624 317.754H144.392C146.249 317.754 148.029 317.017 149.342 315.704C150.655 314.391 151.392 312.611 151.392 310.754C151.392 308.897 150.655 307.117 149.342 305.804C148.029 304.492 146.249 303.754 144.392 303.754H68.523L46.828 282.06C48.847 278.39 49.9035 274.269 49.899 270.081C49.899 256.323 38.707 245.131 24.95 245.131C11.193 245.131 0 256.323 0 270.081C0 283.839 11.192 295.031 24.95 295.031V295.03ZM24.95 259.13C30.987 259.13 35.899 264.042 35.899 270.08C35.899 276.118 30.987 281.03 24.95 281.03C18.913 281.03 14 276.118 14 270.08C14 264.042 18.912 259.13 24.95 259.13ZM126.487 133.773H135.015V204.464C135.015 211.515 140.751 217.251 147.802 217.251H178.256C185.307 217.251 191.043 211.515 191.043 204.464V133.773H199.571C204.25 133.773 208.338 131.118 210.239 126.848C212.145 122.574 211.384 117.757 208.254 114.282L171.712 73.669C169.468 71.175 166.384 69.801 163.028 69.801C159.672 69.801 156.587 71.176 154.345 73.669L117.803 114.281C114.674 117.759 113.912 122.573 115.815 126.844C117.718 131.117 121.806 133.773 126.486 133.773H126.487ZM163.029 84.949L194.363 119.773H184.044C182.187 119.773 180.407 120.51 179.094 121.823C177.781 123.136 177.044 124.916 177.044 126.773V203.252H149.016V126.773C149.016 124.916 148.278 123.136 146.966 121.823C145.653 120.51 143.873 119.773 142.016 119.773H131.697L163.029 84.949ZM215.457 63.973H223.985V204.464C223.985 211.515 229.721 217.251 236.772 217.251H267.226C274.277 217.251 280.013 211.515 280.013 204.464V63.973H288.541C293.22 63.973 297.309 61.318 299.211 57.044C301.114 52.772 300.353 47.957 297.224 44.481L260.68 3.865C258.436 1.373 255.353 0 252 0C248.647 0 245.564 1.373 243.316 3.868L206.775 44.48C203.644 47.959 202.883 52.775 204.787 57.043C206.69 61.317 210.778 63.973 215.457 63.973ZM252 15.148L283.334 49.973H273.014C271.157 49.973 269.377 50.7105 268.064 52.0233C266.751 53.336 266.014 55.1165 266.014 56.973V203.252H237.986V56.973C237.986 55.1165 237.248 53.336 235.936 52.0233C234.623 50.7105 232.843 49.973 230.986 49.973H220.667L252.001 15.148H252ZM293.757 126.844C295.66 131.117 299.748 133.773 304.428 133.773H312.956V204.464C312.956 211.515 318.692 217.251 325.743 217.251H356.197C363.248 217.251 368.984 211.515 368.984 204.464V133.773H377.512C382.191 133.773 386.279 131.118 388.18 126.848C390.086 122.574 389.325 117.757 386.195 114.282L349.653 73.669C347.409 71.175 344.325 69.801 340.969 69.801C337.613 69.801 334.528 71.176 332.286 73.669L295.744 114.281C292.615 117.759 291.854 122.573 293.757 126.844ZM340.97 84.948L372.304 119.772H361.985C360.128 119.772 358.348 120.509 357.035 121.822C355.722 123.135 354.985 124.915 354.985 126.772V203.251H326.957V126.772C326.957 124.915 326.219 123.135 324.907 121.822C323.594 120.509 321.814 119.772 319.957 119.772H309.638L340.971 84.948H340.97ZM344.401 412.137C330.643 412.137 319.451 423.329 319.451 437.087C319.451 448.415 327.041 457.997 337.401 461.031V490.087H166.6V461.031C176.96 457.997 184.55 448.415 184.55 437.087C184.55 423.329 173.358 412.137 159.6 412.137C145.842 412.137 134.65 423.329 134.65 437.087C134.65 448.415 142.24 457.997 152.6 461.031V497.087C152.6 498.944 153.337 500.724 154.65 502.037C155.963 503.349 157.743 504.087 159.6 504.087H344.401C346.258 504.087 348.038 503.349 349.351 502.037C350.663 500.724 351.401 498.944 351.401 497.087V461.031C361.76 457.997 369.35 448.415 369.35 437.087C369.35 423.329 358.158 412.137 344.401 412.137ZM148.65 437.087C148.65 431.049 153.562 426.137 159.6 426.137C165.638 426.137 170.55 431.049 170.55 437.087C170.55 443.125 165.638 448.037 159.6 448.037C153.562 448.037 148.65 443.125 148.65 437.087ZM344.401 448.037C338.363 448.037 333.451 443.125 333.451 437.087C333.451 431.049 338.363 426.137 344.401 426.137C350.439 426.137 355.35 431.049 355.35 437.087C355.35 443.125 350.438 448.037 344.401 448.037Z" fill="white"/>
</svg>
