<svg width="513" height="512" viewBox="0 0 513 512" fill="none" xmlns="http://www.w3.org/2000/svg">
<path d="M177.762 120.221C176.291 124.748 177.739 129.6 181.449 132.583L214.484 159.135L203.365 200.034C202.117 204.626 203.798 209.402 207.651 212.204C211.505 215 216.564 215.123 220.547 212.517L256.008 189.304L291.47 212.518C293.319 213.736 295.483 214.387 297.696 214.391C300.095 214.387 302.43 213.622 304.364 212.204C308.219 209.405 309.901 204.626 308.65 200.034L297.531 159.136L330.564 132.585C334.277 129.603 335.725 124.75 334.253 120.221C332.782 115.691 328.758 112.616 324.003 112.386L281.67 110.322L266.626 70.7C264.937 66.249 260.768 63.372 256.007 63.372C251.246 63.372 247.077 66.248 245.389 70.699L230.344 110.323L188.014 112.386C183.257 112.616 179.233 115.691 177.762 120.221ZM234.158 126.155C236.366 126.048 238.494 125.299 240.281 124C242.069 122.701 243.439 120.908 244.222 118.842L256.006 87.807L267.79 118.845C268.575 120.91 269.945 122.702 271.733 124C273.52 125.298 275.648 126.047 277.854 126.155L311.011 127.772L285.135 148.569C283.413 149.953 282.132 151.81 281.449 153.912C280.766 156.013 280.711 158.269 281.291 160.401L290 192.435L262.224 174.252C260.375 173.042 258.213 172.398 256.004 172.398C253.794 172.398 251.632 173.043 249.783 174.253L222.009 192.435L230.718 160.403C231.299 158.27 231.244 156.015 230.561 153.912C229.878 151.81 228.597 149.953 226.873 148.569L200.998 127.773L234.158 126.155ZM248.006 37.358V8C248.006 5.87827 248.849 3.84344 250.349 2.34315C251.85 0.842855 253.885 0 256.006 0C258.128 0 260.163 0.842855 261.663 2.34315C263.163 3.84344 264.006 5.87827 264.006 8V37.358C264.006 39.4797 263.163 41.5146 261.663 43.0149C260.163 44.5151 258.128 45.358 256.006 45.358C253.885 45.358 251.85 44.5151 250.349 43.0149C248.849 41.5146 248.006 39.4797 248.006 37.358ZM296.725 84.756C295.306 83.1793 294.57 81.1032 294.681 78.9844C294.792 76.8656 295.741 74.8777 297.317 73.458L330.032 44C330.813 43.297 331.725 42.7546 332.715 42.4038C333.705 42.0531 334.755 41.9008 335.804 41.9558C336.853 42.0107 337.881 42.2717 338.83 42.724C339.778 43.1762 340.628 43.8108 341.331 44.5915C342.034 45.3722 342.576 46.2837 342.927 47.2741C343.278 48.2644 343.43 49.3141 343.375 50.3633C343.32 51.4124 343.059 52.4405 342.607 53.3888C342.155 54.337 341.52 55.187 340.739 55.89L308.023 85.348C306.556 86.6729 304.649 87.4053 302.672 87.403C301.551 87.4046 300.441 87.1696 299.417 86.7135C298.392 86.2574 297.475 85.5904 296.725 84.756ZM170.681 44.592C171.384 43.8112 172.234 43.1764 173.183 42.7241C174.131 42.2718 175.159 42.0106 176.208 41.9557C177.257 41.9007 178.307 42.0529 179.298 42.4037C180.288 42.7545 181.2 43.2969 181.98 44L214.696 73.458C216.273 74.8778 217.221 76.8659 217.332 78.9847C217.443 81.1036 216.708 83.1798 215.288 84.7565C213.868 86.3332 211.88 87.2813 209.761 87.3922C207.642 87.5032 205.566 86.7678 203.989 85.348L171.273 55.89C169.697 54.4703 168.748 52.4824 168.637 50.3636C168.526 48.2448 169.262 46.1687 170.681 44.592ZM358.64 132.583L391.675 159.135L380.556 200.034C379.308 204.626 380.989 209.402 384.842 212.204C388.693 215 393.753 215.122 397.738 212.517L433.199 189.304L468.661 212.518C470.51 213.736 472.674 214.387 474.887 214.391C477.286 214.387 479.621 213.622 481.555 212.204C485.408 209.407 487.09 204.63 485.841 200.034L474.722 159.136L507.755 132.585C511.467 129.604 512.915 124.751 511.443 120.221C509.972 115.691 505.948 112.616 501.194 112.386L458.861 110.322L443.818 70.7C442.129 66.249 437.96 63.372 433.199 63.372C428.437 63.372 424.268 66.248 422.579 70.699L407.536 110.322L365.206 112.385C360.448 112.615 356.424 115.691 354.953 120.221C353.481 124.75 354.929 129.603 358.64 132.583ZM411.348 126.155C413.556 126.048 415.685 125.299 417.473 124C419.261 122.7 420.631 120.908 421.415 118.841L433.198 87.806L444.98 118.84C445.764 120.906 447.134 122.699 448.922 123.998C450.71 125.298 452.839 126.047 455.046 126.154L488.203 127.771L462.33 148.566C460.607 149.95 459.325 151.807 458.641 153.909C457.958 156.011 457.903 158.267 458.483 160.4L467.192 192.434L439.416 174.251C437.568 173.04 435.406 172.395 433.196 172.396C430.986 172.396 428.824 173.041 426.975 174.252L399.201 192.434L407.91 160.402C408.49 158.269 408.435 156.014 407.753 153.912C407.07 151.81 405.788 149.953 404.065 148.568L378.19 127.771L411.348 126.155ZM4.2563 132.583L37.2913 159.135L26.1723 200.034C24.9243 204.626 26.6053 209.402 30.4583 212.204C34.3123 215 39.3713 215.123 43.3543 212.517L78.8153 189.304L114.277 212.518C116.126 213.736 118.29 214.387 120.503 214.391C122.902 214.387 125.237 213.622 127.171 212.204C131.024 209.407 132.706 204.63 131.457 200.034L120.338 159.136L153.371 132.585C157.081 129.606 158.53 124.754 157.059 120.216C155.585 115.689 151.561 112.615 146.81 112.385L104.477 110.321L89.4343 70.7C87.7453 66.249 83.5763 63.372 78.8153 63.372C74.0533 63.372 69.8843 66.248 68.1953 70.699L53.1523 110.322L10.8223 112.385C6.0653 112.615 2.0413 115.691 0.571298 120.216C-0.903702 124.747 0.543298 129.602 4.2563 132.583ZM56.9643 126.155C59.172 126.048 61.3005 125.299 63.0887 124C64.877 122.7 66.2472 120.908 67.0313 118.841L78.8143 87.806L90.5963 118.84C91.3803 120.906 92.7503 122.699 94.5383 123.998C96.3264 125.298 98.4547 126.047 100.662 126.154L133.819 127.771L107.946 148.566C106.223 149.95 104.941 151.807 104.257 153.909C103.574 156.011 103.519 158.267 104.099 160.4L112.808 192.434L85.0323 174.251C83.1835 173.04 81.0216 172.395 78.8117 172.396C76.6017 172.396 74.4399 173.041 72.5913 174.252L44.8173 192.434L53.5263 160.402C54.1063 158.269 54.0515 156.014 53.3685 153.912C52.6855 151.81 51.4041 149.953 49.6813 148.568L23.8063 127.771L56.9643 126.155ZM510.747 424.933C505.118 406.755 493.589 390.433 478.282 378.971C471.054 373.551 463.057 369.241 454.556 366.184C466.227 357.024 473.747 342.804 473.747 326.851C473.747 299.285 451.32 276.859 423.755 276.859C396.189 276.859 373.762 299.285 373.762 326.851C373.762 342.785 381.264 356.991 392.912 366.152C377.301 371.724 363.471 381.514 352.88 394.706C347.891 387.724 342.165 381.3 335.801 375.544C323.001 363.958 307.829 355.302 291.341 350.18C308.676 338.688 320.136 319.011 320.136 296.7C320.136 261.34 291.367 232.572 256.007 232.572C220.647 232.572 191.878 261.34 191.878 296.7C191.878 319.011 203.337 338.688 220.672 350.18C204.184 355.302 189.011 363.957 176.211 375.544C169.848 381.3 164.122 387.724 159.133 394.705C148.543 381.512 134.713 371.722 119.101 366.149C130.748 356.988 138.251 342.782 138.251 326.848C138.251 299.282 115.824 276.856 88.2593 276.856C60.6933 276.856 38.2663 299.282 38.2663 326.848C38.2663 342.8 45.7863 357.021 57.4563 366.181C48.9549 369.239 40.9577 373.548 33.7293 378.968C18.4223 390.429 6.8933 406.752 1.2643 424.929C-1.3367 433.325 0.104298 441.846 5.3213 448.924C10.5373 456 18.2513 459.896 27.0413 459.896H137.634V474.334C137.634 495.104 154.531 512.001 175.301 512.001H336.711C357.48 512.001 374.378 495.104 374.379 474.334V459.9H484.971C493.762 459.9 501.476 456.003 506.691 448.928C511.907 441.85 513.348 433.328 510.747 424.933ZM423.755 292.859C442.498 292.859 457.747 308.108 457.747 326.851C457.747 345.595 442.498 360.844 423.755 360.844C405.011 360.844 389.762 345.595 389.762 326.851C389.762 308.108 405.011 292.859 423.755 292.859ZM207.878 296.7C207.878 270.162 229.469 248.572 256.007 248.572C282.545 248.572 304.136 270.162 304.136 296.7C304.136 323.23 282.559 344.814 256.033 344.828H255.98C229.454 344.813 207.878 323.229 207.878 296.7ZM88.2593 292.855C107.002 292.855 122.251 308.104 122.251 326.847C122.251 345.591 107.002 360.84 88.2593 360.84C69.5153 360.84 54.2663 345.591 54.2663 326.847C54.2663 308.104 69.5153 292.855 88.2593 292.855ZM138.673 443.895H27.0423C23.3603 443.895 20.3863 442.393 18.2013 439.429C16.0153 436.465 15.4603 433.179 16.5493 429.662C26.3333 398.067 55.1523 376.84 88.2593 376.84C113.302 376.84 136.115 388.94 150.146 409.423C144.571 420.255 140.701 431.882 138.673 443.895ZM358.379 474.333C358.378 486.28 348.658 496 336.711 496H175.301C163.354 496 153.634 486.28 153.634 474.333V452.33C159.426 400.142 203.35 360.841 255.98 360.828L256.007 360.829L256.033 360.828C308.662 360.842 352.585 400.142 358.379 452.33V474.333ZM493.812 439.434C491.627 442.397 488.654 443.899 484.971 443.899H373.341C371.313 431.886 367.443 420.258 361.868 409.425C375.9 388.943 398.712 376.844 423.754 376.844C456.861 376.844 485.68 398.072 495.464 429.667C496.553 433.182 495.997 436.468 493.812 439.434Z" fill="white"/>
</svg>
