<svg width="494" height="466" viewBox="0 0 494 466" fill="none" xmlns="http://www.w3.org/2000/svg">
<path d="M258.139 351.025H235.86C227.965 351.025 221.543 344.602 221.543 336.708C221.543 328.011 215.913 322.58 210.645 320.397C205.378 318.215 197.556 318.074 191.407 324.224C188.703 326.928 185.107 328.417 181.282 328.417C177.457 328.417 173.861 326.927 171.158 324.223L155.404 308.47C149.822 302.887 149.822 293.804 155.404 288.221C161.544 282.082 161.397 274.261 159.214 268.989C157.029 263.718 151.603 258.084 142.921 258.084C135.026 258.084 128.604 251.661 128.604 243.767V221.489C128.604 213.594 135.027 207.172 142.921 207.172C151.603 207.172 157.029 201.538 159.214 196.267C161.398 190.995 161.544 183.174 155.404 177.036C152.7 174.332 151.211 170.736 151.211 166.911C151.211 163.086 152.701 159.49 155.405 156.787L171.158 141.033C173.861 138.33 177.457 136.84 181.282 136.84C185.107 136.84 188.703 138.329 191.407 141.033C197.545 147.173 205.366 147.024 210.638 144.843C215.909 142.659 221.543 137.233 221.543 128.551C221.543 120.655 227.966 114.233 235.86 114.233H258.138C266.033 114.233 272.454 120.656 272.454 128.551C272.454 137.233 278.088 142.658 283.359 144.843C288.632 147.026 296.455 147.172 302.592 141.033C308.176 135.452 317.257 135.451 322.841 141.033L338.595 156.787C341.298 159.49 342.788 163.086 342.788 166.911C342.788 170.736 341.299 174.332 338.595 177.036C332.455 183.175 332.602 190.995 334.785 196.267C336.969 201.538 342.395 207.172 351.077 207.172C358.972 207.172 365.394 213.595 365.394 221.489V243.767C365.394 251.662 358.971 258.084 351.077 258.084C342.395 258.084 336.97 263.718 334.785 268.989C332.601 274.261 332.455 282.083 338.595 288.221C344.177 293.804 344.177 302.887 338.595 308.47L322.841 324.224C317.256 329.807 308.175 329.805 302.592 324.224C296.453 318.084 288.633 318.232 283.359 320.414C278.088 322.599 272.454 328.025 272.454 336.707C272.455 344.602 266.033 351.025 258.139 351.025ZM203.688 304.973C207.795 304.973 211.963 305.789 216.002 307.463C228.056 312.455 235.543 323.661 235.543 336.707C235.543 336.882 235.686 337.024 235.86 337.024H258.138C258.222 337.024 258.302 336.991 258.361 336.931C258.421 336.872 258.454 336.791 258.454 336.707C258.454 323.674 265.945 312.475 278.003 307.48C290.062 302.483 303.276 305.108 312.493 314.323C312.522 314.353 312.557 314.377 312.595 314.393C312.634 314.409 312.675 314.417 312.717 314.417C312.758 314.417 312.799 314.409 312.838 314.393C312.876 314.377 312.911 314.353 312.941 314.323L328.695 298.569C328.724 298.54 328.747 298.505 328.763 298.467C328.779 298.428 328.788 298.387 328.788 298.345C328.788 298.304 328.779 298.263 328.763 298.224C328.747 298.186 328.724 298.151 328.695 298.121C319.479 288.904 316.857 275.689 321.852 263.631C326.846 251.573 338.044 244.083 351.078 244.083C351.162 244.083 351.242 244.05 351.301 243.99C351.361 243.931 351.394 243.85 351.395 243.766V221.488C351.394 221.404 351.361 221.324 351.301 221.265C351.242 221.205 351.162 221.172 351.078 221.171C338.045 221.171 326.847 213.681 321.852 201.623C316.857 189.565 319.479 176.35 328.695 167.134C328.725 167.106 328.75 167.071 328.766 167.032C328.782 166.993 328.79 166.951 328.789 166.909C328.79 166.868 328.782 166.826 328.766 166.787C328.75 166.749 328.726 166.714 328.696 166.685L312.941 150.931C312.911 150.902 312.876 150.878 312.838 150.862C312.799 150.846 312.758 150.837 312.717 150.837C312.675 150.837 312.634 150.846 312.595 150.862C312.557 150.878 312.522 150.902 312.493 150.931C303.275 160.147 290.059 162.769 278.003 157.774C265.945 152.78 258.454 141.582 258.454 128.548C258.454 128.464 258.421 128.383 258.362 128.324C258.302 128.264 258.222 128.231 258.138 128.23H235.86C235.775 128.231 235.695 128.264 235.635 128.324C235.576 128.383 235.543 128.464 235.543 128.548C235.543 141.581 228.053 152.779 215.995 157.774C203.936 162.77 190.722 160.145 181.506 150.931C181.477 150.9 181.442 150.876 181.403 150.86C181.364 150.844 181.323 150.836 181.281 150.837C181.239 150.836 181.197 150.843 181.158 150.86C181.12 150.876 181.085 150.9 181.057 150.93L165.303 166.685C165.272 166.714 165.247 166.748 165.231 166.787C165.215 166.826 165.207 166.867 165.209 166.909C165.207 166.951 165.214 166.993 165.231 167.032C165.247 167.071 165.271 167.106 165.303 167.134C174.518 176.35 177.141 189.566 172.146 201.623C167.152 213.681 155.953 221.171 142.919 221.171C142.835 221.172 142.754 221.205 142.695 221.265C142.635 221.324 142.602 221.404 142.602 221.488V243.766C142.602 243.941 142.745 244.083 142.919 244.083C155.952 244.083 167.151 251.573 172.146 263.631C177.141 275.69 174.519 288.905 165.303 298.121C165.273 298.151 165.25 298.186 165.234 298.224C165.218 298.263 165.209 298.304 165.209 298.345C165.209 298.387 165.218 298.428 165.234 298.467C165.25 298.505 165.273 298.54 165.303 298.569L181.057 314.323C181.085 314.354 181.12 314.379 181.158 314.395C181.197 314.411 181.239 314.419 181.281 314.417C181.323 314.419 181.365 314.411 181.403 314.395C181.442 314.379 181.477 314.354 181.506 314.323C187.64 308.191 195.54 304.973 203.688 304.973ZM247 294.066C213.123 294.066 185.562 266.504 185.562 232.628C185.562 198.752 213.123 171.19 247 171.19C280.877 171.19 308.438 198.751 308.438 232.628C308.438 266.505 280.877 294.066 247 294.066ZM247 185.19C220.843 185.19 199.562 206.47 199.562 232.628C199.562 258.786 220.842 280.066 247 280.066C273.158 280.066 294.438 258.785 294.438 232.628C294.438 206.471 273.157 185.19 247 185.19Z" fill="white"/>
<path d="M442.741 465.254C440.885 465.254 439.105 464.516 437.793 463.203C436.48 461.891 435.743 460.111 435.743 458.254V436.758H247C134.441 436.758 42.8683 345.185 42.8683 232.627C42.8683 184.362 60.0373 137.522 91.2133 100.734C91.8703 99.9588 92.6883 99.3357 93.6105 98.9083C94.5327 98.4809 95.5369 98.2594 96.5533 98.2593H158.02C159.509 98.2593 160.959 98.7339 162.16 99.6143C163.361 100.495 164.249 101.735 164.697 103.155C165.144 104.575 165.128 106.101 164.649 107.51C164.17 108.92 163.254 110.141 162.034 110.994C122.335 138.781 98.6343 184.252 98.6343 232.627C98.6343 314.437 165.192 380.994 247.001 380.994H435.744V359.498C435.744 358.081 436.174 356.697 436.978 355.53C437.781 354.363 438.92 353.466 440.243 352.96C441.567 352.454 443.013 352.361 444.39 352.694C445.768 353.028 447.012 353.771 447.957 354.826L492.214 404.204C493.365 405.488 494.002 407.152 494.002 408.876C494.002 410.601 493.365 412.264 492.214 413.548L447.957 462.926C447.3 463.659 446.496 464.245 445.597 464.646C444.699 465.047 443.725 465.255 442.741 465.254ZM99.8323 112.26C72.1033 146.135 56.8683 188.748 56.8683 232.627C56.8683 337.466 142.161 422.758 247 422.758H442.743C444.6 422.758 446.38 423.496 447.693 424.809C449.006 426.121 449.743 427.902 449.743 429.758V439.956L477.599 408.876L449.743 377.796V387.994C449.743 389.851 449.006 391.631 447.693 392.944C446.38 394.257 444.6 394.994 442.743 394.994H247C157.471 394.994 84.6333 322.156 84.6333 232.627C84.6333 186.534 104.291 142.855 138.047 112.26H99.8323ZM51.2583 465.254C50.2742 465.255 49.3012 465.047 48.4026 464.646C47.5041 464.245 46.7001 463.659 46.0433 462.926L1.78728 413.548C0.636429 412.264 0 410.601 0 408.876C0 407.152 0.636429 405.488 1.78728 404.204L46.0433 354.826C46.989 353.771 48.2329 353.028 49.6103 352.694C50.9876 352.361 52.4337 352.454 53.7573 352.96C55.0809 353.466 56.2197 354.363 57.023 355.53C57.8263 356.697 58.2563 358.081 58.2563 359.498V380.994H84.0813C85.9943 380.994 87.8243 381.777 89.1453 383.162C104.475 399.238 122.164 412.884 141.604 423.632C142.963 424.383 144.033 425.564 144.647 426.99C145.26 428.415 145.383 430.004 144.995 431.507C144.607 433.01 143.731 434.341 142.504 435.292C141.277 436.242 139.769 436.758 138.217 436.758H58.2563V458.254C58.2563 460.111 57.5191 461.891 56.2067 463.203C54.8944 464.516 53.1145 465.254 51.2583 465.254ZM16.3993 408.876L44.2553 439.956V429.758C44.2553 427.902 44.9928 426.121 46.3055 424.809C47.6183 423.496 49.3988 422.758 51.2553 422.758H113.815C102.083 414.53 91.135 405.236 81.1113 394.994H51.2563C49.3998 394.994 47.6193 394.257 46.3065 392.944C44.9938 391.631 44.2563 389.851 44.2563 387.994V377.796L16.3993 408.876ZM397.447 366.994H335.98C334.491 366.994 333.041 366.52 331.841 365.639C330.64 364.759 329.751 363.519 329.304 362.099C328.856 360.679 328.873 359.153 329.352 357.743C329.831 356.333 330.746 355.113 331.966 354.259C371.664 326.472 395.365 281.002 395.365 232.626C395.365 150.816 328.808 84.2603 246.999 84.2603H58.2563V105.755C58.2563 107.172 57.8263 108.556 57.023 109.724C56.2197 110.891 55.0809 111.787 53.7573 112.294C52.4337 112.8 50.9876 112.893 49.6103 112.559C48.2329 112.226 46.989 111.483 46.0433 110.427L1.78728 61.0503C0.636429 59.7663 0 58.1026 0 56.3783C0 54.654 0.636429 52.9904 1.78728 51.7063L46.0433 2.32832C46.989 1.27296 48.2329 0.529516 49.6103 0.196282C50.9876 -0.136951 52.4337 -0.044275 53.7573 0.462054C55.0809 0.968384 56.2197 1.86452 57.023 3.03197C57.8263 4.19942 58.2563 5.58319 58.2563 7.00032V28.4963H247C359.558 28.4963 451.131 120.069 451.131 232.627C451.131 280.892 433.962 327.731 402.787 364.52C402.13 365.296 401.312 365.919 400.39 366.346C399.468 366.773 398.464 366.994 397.447 366.994ZM355.953 352.994H394.168C421.897 319.119 437.131 276.505 437.131 232.627C437.131 127.788 351.839 42.4963 247 42.4963H51.2563C49.3998 42.4963 47.6193 41.7588 46.3065 40.4461C44.9938 39.1333 44.2563 37.3528 44.2563 35.4963V25.2983L16.4003 56.3783L44.2563 87.4583V77.2613C44.2563 75.4048 44.9938 73.6243 46.3065 72.3116C47.6193 70.9988 49.3998 70.2613 51.2563 70.2613H247C336.529 70.2613 409.366 143.098 409.366 232.627C409.366 278.72 389.709 322.4 355.953 352.994ZM442.741 112.756C440.885 112.756 439.105 112.018 437.793 110.705C436.48 109.393 435.743 107.612 435.743 105.756V84.2613H409.919C408.972 84.2615 408.035 84.0694 407.164 83.6965C406.294 83.3237 405.508 82.7779 404.854 82.0923C389.525 66.0162 371.836 52.3693 352.396 41.6213C351.038 40.8706 349.967 39.6897 349.353 38.2641C348.739 36.8386 348.616 35.2494 349.004 33.7465C349.392 32.2436 350.269 30.9122 351.496 29.9618C352.723 29.0114 354.231 28.4959 355.783 28.4963H435.743V7.00032C435.743 5.58319 436.173 4.19942 436.977 3.03197C437.78 1.86452 438.919 0.968384 440.242 0.462054C441.566 -0.044275 443.012 -0.136951 444.389 0.196282C445.767 0.529516 447.011 1.27296 447.956 2.32832L492.213 51.7063C493.364 52.9904 494.001 54.654 494.001 56.3783C494.001 58.1026 493.364 59.7663 492.213 61.0503L447.956 110.428C447.299 111.161 446.496 111.747 445.597 112.148C444.698 112.549 443.725 112.757 442.741 112.756ZM412.889 70.2613H442.743C444.6 70.2613 446.38 70.9988 447.693 72.3116C449.006 73.6243 449.743 75.4048 449.743 77.2613V87.4583L477.599 56.3783L449.743 25.2983V35.4963C449.743 37.3528 449.006 39.1333 447.693 40.4461C446.38 41.7588 444.6 42.4963 442.743 42.4963H380.184C391.918 50.724 402.866 60.0186 412.889 70.2613Z" fill="white"/>
</svg>
