<svg width="512" height="512" viewBox="0 0 512 512" fill="none" xmlns="http://www.w3.org/2000/svg">
<path d="M487.226 429.42H478.968V156.904C478.968 134.136 460.445 115.613 437.677 115.613H412.903V132.129H437.677C451.336 132.129 462.452 143.245 462.452 156.904V429.42H49.5484V156.904C49.5484 143.245 60.6637 132.129 74.3226 132.129H99.0968V115.613H74.3226C51.5551 115.613 33.0323 134.136 33.0323 156.904V429.42H24.7742C11.1154 429.42 0 440.535 0 454.194C0 486.062 25.9386 512 57.8064 512H454.194C486.061 512 512 486.062 512 454.194C512 440.535 500.885 429.42 487.226 429.42ZM206.452 445.936H305.548V454.194C305.548 456.384 304.678 458.485 303.13 460.033C301.581 461.582 299.48 462.452 297.29 462.452H214.71C212.519 462.452 210.419 461.582 208.87 460.033C207.322 458.485 206.452 456.384 206.452 454.194V445.936ZM379.871 495.484H363.355V478.968H379.871V495.484ZM445.935 495.484H429.419V478.968H445.935V495.484ZM462.452 494.65V462.452H412.903V495.484H396.387V462.452H346.839V495.484H57.8064C35.039 495.484 16.5161 476.961 16.5161 454.194C16.5161 452.004 17.3862 449.903 18.9349 448.355C20.4835 446.806 22.584 445.936 24.7742 445.936H189.935V454.194C189.935 467.853 201.051 478.968 214.71 478.968H297.29C310.949 478.968 322.065 467.853 322.065 454.194V445.936H487.226C489.416 445.936 491.516 446.806 493.065 448.355C494.614 449.903 495.484 452.004 495.484 454.194C495.468 463.707 492.175 472.924 486.158 480.293C480.142 487.662 471.769 492.732 462.452 494.65Z" fill="url(#paint0_linear_1147_841)"/>
<path d="M181.677 165.16V148.644H82.5806C73.4719 148.644 66.0645 156.052 66.0645 165.16V396.386C66.0645 405.495 73.4719 412.902 82.5806 412.902H429.419C438.528 412.902 445.935 405.495 445.935 396.386V165.16C445.935 156.052 438.528 148.644 429.419 148.644H330.323V165.16H429.419V396.386H396.387V349.076L373.809 341.842C371.776 335.513 369.238 329.357 366.22 323.434L377.055 302.385L333.502 258.832L312.452 269.666C306.589 266.677 300.428 264.133 294.045 262.077L286.794 239.483H225.197L217.963 262.06C211.635 264.094 205.479 266.632 199.556 269.65L178.506 258.815L134.953 302.368L145.788 323.418C142.798 329.281 140.255 335.442 138.199 341.825L115.613 349.076V396.386H82.5806V165.16H181.677ZM181.677 379.87C181.677 338.885 215.015 305.547 256 305.547C296.985 305.547 330.323 338.885 330.323 379.87C330.323 385.477 329.497 390.977 328.266 396.386H293.814C296.099 391.179 297.282 385.556 297.29 379.87C297.29 357.102 278.767 338.58 256 338.58C233.232 338.58 214.71 357.102 214.71 379.87C214.71 385.618 215.932 391.225 218.186 396.386H183.742C182.438 390.975 181.745 385.435 181.677 379.87ZM231.226 379.87C231.226 366.211 242.341 355.096 256 355.096C269.659 355.096 280.774 366.211 280.774 379.87C280.774 386.03 278.363 391.852 274.267 396.386H237.725C233.586 391.877 231.27 385.991 231.226 379.87ZM132.129 361.116L151.585 354.889L152.791 350.62C155.047 342.574 158.243 334.821 162.312 327.522L164.476 323.649L155.144 305.531L181.669 279.006L199.787 288.338L203.66 286.174C210.959 282.104 218.712 278.909 226.758 276.652L231.028 275.447L237.246 255.999H274.746L280.972 275.455L285.242 276.661C293.401 278.965 301.18 282.169 308.34 286.182L312.213 288.346L330.331 279.014L356.856 305.539L347.524 323.657L349.688 327.53C353.757 334.829 356.953 342.582 359.209 350.628L360.415 354.898L379.871 361.116V396.386H345.278C346.277 390.961 346.839 385.444 346.839 379.87C346.839 329.785 306.085 289.031 256 289.031C205.915 289.031 165.161 329.785 165.161 379.87C165.161 385.444 165.731 390.961 166.722 396.386H132.129V361.116ZM107.355 33.0312H140.387V49.5474H107.355V33.0312ZM239.484 33.0312H272.516V49.5474H239.484V33.0312ZM371.613 33.0312H404.645V49.5474H371.613V33.0312Z" fill="url(#paint1_linear_1147_841)"/>
<path d="M247.742 222.968H264.258V82.5806H305.548V0H206.451V82.5806H247.742V222.968ZM222.967 16.5161H289.032V66.0645H222.967V16.5161ZM379.871 115.613H297.29V222.968H313.806V132.129H396.387V82.5806H437.677V0H338.58V82.5806H379.871V115.613ZM355.096 16.5161H421.161V66.0645H355.096V16.5161ZM115.613 132.129H198.193V222.968H214.709V115.613H132.129V82.5806H173.419V0H74.3223V82.5806H115.613V132.129ZM90.8384 16.5161H156.903V66.0645H90.8384V16.5161Z" fill="url(#paint2_linear_1147_841)"/>
<defs>
<linearGradient id="paint0_linear_1147_841" x1="376.491" y1="497.67" x2="180.631" y2="85.154" gradientUnits="userSpaceOnUse">
<stop offset="0.0001" stop-color="#BE42B1"/>
<stop offset="1" stop-color="#3B4BAA"/>
</linearGradient>
<linearGradient id="paint1_linear_1147_841" x1="345.397" y1="399.169" x2="129.498" y2="47.128" gradientUnits="userSpaceOnUse">
<stop offset="0.0001" stop-color="#BE42B1"/>
<stop offset="1" stop-color="#3B4BAA"/>
</linearGradient>
<linearGradient id="paint2_linear_1147_841" x1="341.51" y1="214.907" x2="247.776" y2="-34.1675" gradientUnits="userSpaceOnUse">
<stop offset="0.0001" stop-color="#BE42B1"/>
<stop offset="1" stop-color="#3B4BAA"/>
</linearGradient>
</defs>
</svg>
