<svg width="496" height="457" viewBox="0 0 496 457" fill="none" xmlns="http://www.w3.org/2000/svg">
<path d="M495.417 420.694L479.397 381.069C477.741 376.973 473.075 374.994 468.982 376.651C468.008 377.044 467.121 377.626 466.372 378.362C465.622 379.099 465.026 379.976 464.615 380.943C464.205 381.91 463.989 382.949 463.98 384C463.971 385.05 464.169 386.092 464.563 387.067L471.871 405.144L397.202 362.033V203.606C397.202 202.201 396.833 200.822 396.131 199.605C395.429 198.389 394.419 197.379 393.202 196.678L256 117.464V31.2415L268.002 46.6095C268.75 47.5693 269.708 48.3454 270.802 48.8787C271.895 49.412 273.096 49.6883 274.313 49.6865C275.812 49.6854 277.28 49.2634 278.55 48.4687C279.82 47.674 280.842 46.5385 281.498 45.1915C282.155 43.8445 282.42 42.3402 282.263 40.85C282.107 39.3598 281.535 37.9435 280.612 36.7625L254.305 3.07652C253.557 2.11832 252.6 1.34324 251.508 0.810152C250.415 0.277067 249.215 0 248 0C246.784 0 245.584 0.277067 244.492 0.810152C243.399 1.34324 242.442 2.11832 241.694 3.07652L215.388 36.7625C214.742 37.5906 214.265 38.5379 213.984 39.5503C213.704 40.5628 213.625 41.6205 213.754 42.6632C213.882 43.7059 214.214 44.7132 214.732 45.6274C215.25 46.5416 215.942 47.345 216.77 47.9915C218.442 49.2974 220.565 49.8856 222.671 49.6266C224.777 49.3676 226.693 48.2827 227.999 46.6105L239.999 31.2435V117.465L102.799 196.677C101.583 197.378 100.573 198.388 99.8708 199.604C99.1687 200.821 98.7991 202.2 98.7992 203.605V362.032L24.1292 405.143L31.4372 387.066C32.2326 385.098 32.214 382.896 31.3855 380.943C30.5569 378.989 28.9864 377.445 27.0192 376.65C25.0521 375.854 22.8496 375.873 20.8962 376.701C18.9429 377.53 17.3986 379.1 16.6032 381.068L0.583248 420.693C0.127601 421.819 -0.0652245 423.036 0.0194174 424.248C0.104059 425.461 0.463943 426.638 1.07173 427.691C1.67952 428.744 2.51923 429.644 3.52709 430.324C4.53494 431.004 5.68443 431.445 6.88825 431.614L49.2142 437.553C51.3035 437.822 53.4149 437.257 55.0901 435.98C56.7652 434.702 57.8688 432.816 58.1614 430.729C58.454 428.643 57.9119 426.526 56.6528 424.837C55.3936 423.148 53.5192 422.024 51.4362 421.709L32.1272 419L106.796 375.889L244 455.102C245.216 455.804 246.596 456.173 248 456.173C249.405 456.173 250.784 455.804 252 455.102L389.202 375.889L463.871 418.999L444.562 421.708C442.479 422.023 440.605 423.147 439.346 424.836C438.087 426.525 437.544 428.642 437.837 430.728C438.13 432.815 439.233 434.701 440.908 435.979C442.584 437.256 444.695 437.821 446.784 437.552L489.11 431.613C490.314 431.444 491.463 431.003 492.471 430.323C493.479 429.644 494.319 428.743 494.926 427.691C495.535 426.638 495.896 425.461 495.981 424.249C496.066 423.036 495.873 421.82 495.417 420.694ZM129.314 353.65C128.253 351.813 126.505 350.472 124.456 349.924C122.406 349.375 120.223 349.662 118.385 350.723L114.798 352.794V217.462L173.185 251.172C168.049 262.109 165.39 274.045 165.399 286.129C165.399 328.975 198.193 364.297 239.999 368.334V434.318L122.797 366.651L126.387 364.578C127.297 364.052 128.095 363.353 128.734 362.52C129.374 361.686 129.843 360.735 130.115 359.72C130.386 358.705 130.456 357.647 130.318 356.605C130.181 355.563 129.84 354.559 129.314 353.65ZM248 148.083C250.122 148.083 252.157 147.24 253.657 145.739C255.157 144.239 256 142.204 256 140.083V135.94L373.202 203.606L314.648 237.412C299.605 216.889 275.338 203.529 248 203.529C220.662 203.529 196.396 216.889 181.353 237.412L122.799 203.606L240 135.939V140.082C240 141.132 240.207 142.173 240.609 143.143C241.011 144.114 241.6 144.996 242.343 145.739C243.086 146.482 243.968 147.071 244.939 147.473C245.909 147.876 246.95 148.083 248 148.083ZM248 352.728C231.508 352.728 216.409 346.689 204.764 336.724C208.819 316.288 226.746 301.327 247.991 301.322H248.011C269.256 301.327 287.183 316.288 291.237 336.723C279.592 346.689 264.492 352.728 248 352.728ZM229.661 266.983C229.661 256.871 237.889 248.644 248.001 248.644C258.113 248.644 266.34 256.871 266.34 266.983C266.34 277.093 258.117 285.318 248.008 285.322H247.994C237.885 285.319 229.661 277.094 229.661 266.983ZM303.655 322.647C297.838 308.351 286.725 296.943 272.836 290.661C278.717 284.495 282.34 276.157 282.34 266.983C282.34 248.048 266.936 232.644 248.001 232.644C229.066 232.644 213.661 248.049 213.661 266.983C213.661 276.157 217.284 284.495 223.165 290.661C209.276 296.943 198.164 308.351 192.346 322.647C185.436 312.152 181.4 299.605 181.4 286.128C181.4 249.405 211.276 219.528 248 219.528C284.724 219.528 314.601 249.404 314.601 286.128C314.601 299.606 310.564 312.152 303.655 322.647ZM256 368.334C297.805 364.297 330.601 328.975 330.601 286.129C330.61 274.045 327.952 262.109 322.815 251.172L381.202 217.462V352.796L377.613 350.724C376.704 350.198 375.699 349.857 374.658 349.72C373.616 349.582 372.558 349.652 371.543 349.923C370.528 350.195 369.577 350.664 368.743 351.304C367.91 351.943 367.211 352.741 366.685 353.651C365.624 355.488 365.337 357.672 365.886 359.721C366.435 361.77 367.776 363.518 369.613 364.579L373.202 366.652L256 434.318V368.334ZM141.742 346.477C140.681 344.639 140.394 342.456 140.943 340.406C141.492 338.357 142.833 336.609 144.67 335.549L160.258 326.549C161.169 326.008 162.177 325.653 163.226 325.505C164.274 325.357 165.342 325.419 166.366 325.687C167.391 325.954 168.352 326.423 169.194 327.065C170.036 327.707 170.742 328.509 171.272 329.426C171.801 330.343 172.143 331.356 172.278 332.407C172.413 333.457 172.339 334.523 172.058 335.544C171.778 336.566 171.298 337.521 170.645 338.355C169.993 339.189 169.182 339.885 168.258 340.404L152.67 349.404C151.457 350.106 150.08 350.476 148.678 350.477C147.272 350.479 145.891 350.11 144.673 349.408C143.455 348.706 142.444 347.695 141.742 346.477ZM354.259 346.477C353.734 347.387 353.035 348.184 352.202 348.824C351.368 349.464 350.417 349.933 349.402 350.205C348.387 350.477 347.329 350.546 346.287 350.409C345.245 350.271 344.241 349.93 343.331 349.405L327.742 340.405C326.825 339.883 326.02 339.185 325.374 338.352C324.727 337.518 324.252 336.564 323.976 335.546C323.699 334.528 323.627 333.465 323.763 332.419C323.899 331.373 324.241 330.364 324.768 329.45C325.296 328.536 325.999 327.736 326.837 327.095C327.675 326.454 328.631 325.985 329.651 325.716C330.671 325.446 331.735 325.381 332.78 325.524C333.825 325.667 334.832 326.015 335.742 326.549L351.331 335.549C353.169 336.609 354.509 338.357 355.058 340.406C355.608 342.456 355.32 344.639 354.259 346.477ZM240 170.432C240 168.31 240.843 166.275 242.343 164.775C243.844 163.274 245.879 162.432 248 162.432C250.122 162.432 252.157 163.274 253.657 164.775C255.157 166.275 256 168.31 256 170.432V188.433C256 190.554 255.157 192.589 253.657 194.089C252.156 195.589 250.122 196.432 248 196.432H247.999C246.949 196.431 245.908 196.224 244.938 195.822C243.967 195.42 243.085 194.831 242.343 194.088C241.6 193.345 241.011 192.463 240.609 191.492C240.207 190.521 240 189.481 240 188.431V170.432Z" fill="url(#paint0_linear_1145_827)"/>
<defs>
<linearGradient id="paint0_linear_1145_827" x1="364.726" y1="439.681" x2="115.792" y2="-1.66565" gradientUnits="userSpaceOnUse">
<stop offset="0.0001" stop-color="#BE42B1"/>
<stop offset="1" stop-color="#3B4BAA"/>
</linearGradient>
</defs>
</svg>
