<svg width="489" height="496" viewBox="0 0 489 496" fill="none" xmlns="http://www.w3.org/2000/svg">
<path d="M444.518 49.912H407.178L410.49 42.455C411.146 40.9776 411.339 39.3361 411.044 37.7467C410.748 36.1574 409.978 34.6949 408.835 33.552L393.464 18.18C392.32 17.0375 390.858 16.268 389.268 15.9728C387.679 15.6776 386.038 15.8704 384.56 16.526L375.238 20.667C370.612 18.1626 365.741 16.1425 360.7 14.639L357.038 5.127C356.457 3.61807 355.433 2.32048 354.1 1.40524C352.768 0.490001 351.189 6.38148e-05 349.572 2.98691e-10H327.835C326.218 -1.39664e-05 324.64 0.489777 323.307 1.40483C321.974 2.31988 320.95 3.61726 320.369 5.126L316.708 14.638C311.667 16.1414 306.796 18.1615 302.17 20.666L292.848 16.525C291.371 15.8683 289.729 15.6749 288.139 15.9701C286.55 16.2654 285.087 17.0356 283.944 18.179L268.573 33.55C267.43 34.6932 266.66 36.1559 266.364 37.7453C266.069 39.3347 266.262 40.9764 266.918 42.454L270.23 49.911H245.371V33.501C245.371 19.284 233.805 7.719 219.589 7.719H212.476C198.26 7.719 186.694 19.284 186.694 33.501V49.912H44.352C19.896 49.912 0 69.808 0 94.266V344.353C0 368.809 19.896 388.706 44.352 388.706H162.127V430.462H114.794C93.289 430.462 75.793 445.162 75.793 463.232V488C75.793 490.122 76.6359 492.157 78.1361 493.657C79.6364 495.157 81.6713 496 83.793 496H405.079C407.201 496 409.236 495.157 410.736 493.657C412.236 492.157 413.079 490.122 413.079 488V463.23C413.079 445.161 395.583 430.46 374.078 430.46H326.744V388.704H444.519C468.975 388.704 488.872 368.808 488.872 344.351V94.266C488.871 69.809 468.974 49.912 444.518 49.912ZM279.48 74.173C280.97 67.9087 283.451 61.9228 286.831 56.442C287.513 55.3355 287.915 54.0796 288.002 52.7829C288.089 51.4861 287.859 50.1877 287.331 49L283.77 40.981L291.373 33.378L299.394 36.94C300.581 37.4677 301.88 37.6981 303.176 37.6111C304.473 37.5242 305.729 37.1225 306.835 36.441C312.315 33.0628 318.3 30.5812 324.563 29.09C325.827 28.7896 326.999 28.1857 327.977 27.3305C328.955 26.4753 329.71 25.3946 330.177 24.182L333.328 16H344.08L347.23 24.183C347.697 25.3956 348.452 26.4761 349.43 27.3313C350.408 28.1865 351.58 28.7904 352.844 29.091C359.107 30.5822 365.092 33.0637 370.572 36.442C371.678 37.1238 372.934 37.5256 374.231 37.6125C375.527 37.6995 376.826 37.469 378.013 36.941L386.035 33.379L393.638 40.982L390.076 49.003C389.548 50.1906 389.318 51.4888 389.405 52.7854C389.492 54.0819 389.894 55.3377 390.576 56.444C393.955 61.9245 396.436 67.9096 397.927 74.173C398.228 75.4369 398.832 76.6085 399.688 77.5864C400.543 78.5644 401.623 79.3194 402.836 79.786L411.017 82.935V93.687L402.838 96.835C401.625 97.3016 400.545 98.0566 399.69 99.0346C398.834 100.013 398.23 101.184 397.929 102.448C396.439 108.713 393.957 114.7 390.577 120.181C389.896 121.288 389.494 122.544 389.407 123.84C389.32 125.137 389.551 126.435 390.078 127.623L393.639 135.641L386.036 143.244L378.014 139.682C376.826 139.155 375.528 138.924 374.232 139.011C372.935 139.098 371.679 139.5 370.573 140.181C365.093 143.559 359.108 146.041 352.845 147.532C351.581 147.832 350.409 148.436 349.431 149.292C348.453 150.147 347.698 151.227 347.231 152.44L344.082 160.623H333.33L330.182 152.443C329.715 151.23 328.96 150.15 327.982 149.294C327.004 148.439 325.832 147.835 324.568 147.535C318.303 146.045 312.317 143.563 306.836 140.183C305.729 139.502 304.473 139.1 303.176 139.013C301.88 138.926 300.581 139.156 299.393 139.683L291.376 143.245L283.773 135.642L287.336 127.62C287.864 126.432 288.094 125.134 288.007 123.838C287.92 122.541 287.518 121.285 286.836 120.179C283.458 114.699 280.976 108.714 279.486 102.451C279.185 101.187 278.581 100.015 277.726 99.037C276.87 98.0588 275.79 97.3037 274.577 96.837L266.395 93.688V82.936L274.574 79.788C275.786 79.3205 276.866 78.565 277.721 77.5868C278.576 76.6085 279.179 75.4368 279.48 74.173ZM187.766 218.166L209.104 255.125C209.806 256.342 210.816 257.352 212.032 258.054C213.248 258.757 214.628 259.127 216.032 259.127C217.436 259.127 218.816 258.757 220.032 258.054C221.248 257.352 222.258 256.342 222.96 255.125L244.298 218.166C245 216.95 245.37 215.57 245.37 214.166V96.312H250.392V99.181C250.392 100.798 250.882 102.376 251.797 103.709C252.712 105.042 254.009 106.066 255.518 106.647L265.03 110.308C266.533 115.349 268.553 120.221 271.057 124.846L266.917 134.168C266.261 135.645 266.068 137.287 266.363 138.876C266.659 140.466 267.429 141.928 268.572 143.071L283.943 158.443C285.086 159.586 286.549 160.356 288.138 160.651C289.728 160.947 291.37 160.753 292.847 160.097L302.164 155.958C306.791 158.463 311.665 160.484 316.708 161.987L320.368 171.496C320.949 173.005 321.973 174.302 323.306 175.217C324.639 176.132 326.217 176.622 327.834 176.622H349.571C351.188 176.622 352.766 176.132 354.099 175.217C355.432 174.302 356.456 173.005 357.037 171.496L360.698 161.984C365.739 160.48 370.611 158.46 375.237 155.956L384.559 160.097C386.036 160.754 387.678 160.947 389.268 160.652C390.857 160.357 392.32 159.586 393.463 158.443L408.834 143.072C409.977 141.929 410.747 140.466 411.042 138.877C411.337 137.287 411.144 135.645 410.488 134.168L406.35 124.851C408.855 120.224 410.876 115.35 412.379 110.307L421.887 106.647C423.396 106.066 424.693 105.042 425.609 103.709C426.524 102.377 427.013 100.798 427.013 99.181V96.312H442.47V311.47H46.398V96.312H186.694V214.166C186.694 215.57 187.063 216.95 187.766 218.166ZM208.55 222.166H223.514L216.032 235.125L208.55 222.166ZM265.159 65.912C265.118 66.048 265.068 66.18 265.027 66.316L255.519 69.976C254.01 70.5565 252.713 71.5808 251.797 72.9136C250.882 74.2464 250.393 75.8253 250.393 77.442V80.311H245.371V65.912H265.159ZM212.476 23.719H219.589C224.983 23.719 229.371 28.108 229.371 33.501V206.166H202.694V33.501C202.694 28.107 207.082 23.719 212.476 23.719ZM397.078 463.23V480H91.792V463.23C91.792 454.14 102.325 446.46 114.793 446.46H374.077C386.545 446.461 397.078 454.141 397.078 463.23ZM310.743 430.461H178.126V388.705H310.743V430.461ZM472.871 344.353C472.871 359.987 460.152 372.706 444.518 372.706H44.352C28.719 372.706 16 359.987 16 344.353V94.266C16 78.632 28.719 65.912 44.352 65.912H186.695V80.311H43.44C36.249 80.311 30.398 86.162 30.398 93.352V319.47C30.398 321.592 31.2409 323.627 32.7411 325.127C34.2414 326.627 36.2763 327.47 38.398 327.47H450.471C452.593 327.47 454.628 326.627 456.128 325.127C457.628 323.627 458.471 321.592 458.471 319.47V93.353C458.471 86.163 452.62 80.312 445.429 80.312H427.015V77.444C427.015 75.8273 426.525 74.2486 425.61 72.9158C424.695 71.5831 423.398 70.5588 421.889 69.978L412.378 66.317C412.337 66.181 412.287 66.048 412.246 65.913H444.517C460.151 65.913 472.87 78.633 472.87 94.267V344.353H472.871ZM338.704 134.222C364.019 134.222 384.614 113.626 384.614 88.312C384.614 62.998 364.019 42.402 338.704 42.402C313.389 42.402 292.793 62.998 292.793 88.312C292.793 113.626 313.389 134.222 338.704 134.222ZM338.704 58.401C355.197 58.401 368.614 71.819 368.614 88.311C368.614 104.803 355.197 118.221 338.704 118.221C322.211 118.221 308.793 104.803 308.793 88.311C308.793 71.819 322.211 58.401 338.704 58.401ZM325.555 283.295L346.157 206.409C346.706 204.36 348.047 202.612 349.884 201.551C351.722 200.49 353.906 200.203 355.955 200.752C358.004 201.301 359.752 202.642 360.813 204.479C361.874 206.317 362.161 208.501 361.612 210.55L341.01 287.436C340.554 289.136 339.551 290.639 338.154 291.712C336.758 292.784 335.047 293.366 333.287 293.368C332.059 293.368 330.848 293.086 329.747 292.544C328.646 292.001 327.684 291.212 326.937 290.238C326.189 289.265 325.676 288.132 325.436 286.928C325.197 285.724 325.237 284.481 325.555 283.295ZM271.548 246.923C271.548 245.758 271.803 244.606 272.294 243.55C272.785 242.493 273.502 241.557 274.393 240.806L307.961 212.518C308.764 211.841 309.693 211.328 310.694 211.01C311.696 210.692 312.75 210.574 313.797 210.663C314.844 210.753 315.863 211.047 316.796 211.531C317.729 212.014 318.557 212.676 319.234 213.48C320.601 215.102 321.268 217.201 321.087 219.315C320.907 221.429 319.894 223.385 318.272 224.752L291.963 246.923L318.272 269.093C319.527 270.15 320.427 271.568 320.849 273.153C321.271 274.739 321.195 276.416 320.632 277.957C320.068 279.498 319.045 280.829 317.7 281.769C316.354 282.708 314.753 283.211 313.112 283.21C311.292 283.21 309.462 282.592 307.961 281.327L274.393 253.04C273.502 252.289 272.785 251.353 272.294 250.296C271.802 249.24 271.548 248.088 271.548 246.923ZM368.894 269.093L395.203 246.923L368.894 224.752C368.091 224.075 367.428 223.247 366.945 222.314C366.462 221.381 366.168 220.362 366.078 219.315C365.989 218.269 366.107 217.214 366.425 216.213C366.743 215.212 367.255 214.283 367.932 213.48C368.609 212.677 369.438 212.014 370.371 211.531C371.304 211.048 372.322 210.754 373.369 210.664C374.416 210.575 375.47 210.693 376.471 211.011C377.473 211.329 378.402 211.841 379.205 212.518L412.773 240.806C413.664 241.557 414.38 242.493 414.871 243.55C415.363 244.607 415.617 245.758 415.617 246.923C415.617 248.088 415.363 249.239 414.871 250.296C414.38 251.353 413.664 252.289 412.773 253.04L379.205 281.327C377.765 282.544 375.94 283.212 374.054 283.21C372.413 283.211 370.812 282.707 369.467 281.768C368.123 280.828 367.099 279.497 366.536 277.956C365.973 276.416 365.897 274.739 366.319 273.153C366.74 271.568 367.64 270.15 368.894 269.093ZM73.554 275.65H240.11C242.232 275.65 244.267 276.493 245.767 277.993C247.267 279.493 248.11 281.528 248.11 283.65C248.11 285.772 247.267 287.807 245.767 289.307C244.267 290.807 242.232 291.65 240.11 291.65H73.554C71.4323 291.65 69.3974 290.807 67.8971 289.307C66.3968 287.807 65.554 285.772 65.554 283.65C65.554 281.528 66.3968 279.493 67.8971 277.993C69.3974 276.493 71.4323 275.65 73.554 275.65ZM64.985 219.127C64.985 217.005 65.8278 214.97 67.3281 213.47C68.8284 211.97 70.8633 211.127 72.985 211.127H159.538C161.66 211.127 163.695 211.97 165.195 213.47C166.695 214.97 167.538 217.005 167.538 219.127C167.538 221.249 166.695 223.284 165.195 224.784C163.695 226.284 161.66 227.127 159.538 227.127H72.985C70.8633 227.127 68.8284 226.284 67.3281 224.784C65.8278 223.284 64.985 221.249 64.985 219.127ZM65.269 251.389C65.269 249.267 66.1119 247.232 67.6121 245.732C69.1124 244.232 71.1473 243.389 73.269 243.389H159.822C161.944 243.389 163.979 244.232 165.479 245.732C166.979 247.232 167.822 249.267 167.822 251.389C167.822 253.511 166.979 255.546 165.479 257.046C163.979 258.546 161.944 259.389 159.822 259.389H73.269C71.1473 259.389 69.1124 258.546 67.6121 257.046C66.1119 255.546 65.269 253.511 65.269 251.389ZM65.554 122.343C65.554 120.221 66.3968 118.186 67.8971 116.686C69.3974 115.186 71.4323 114.343 73.554 114.343H160.107C162.229 114.343 164.264 115.186 165.764 116.686C167.264 118.186 168.107 120.221 168.107 122.343C168.107 124.465 167.264 126.5 165.764 128C164.264 129.5 162.229 130.343 160.107 130.343H73.554C71.4323 130.343 69.3974 129.5 67.8971 128C66.3968 126.5 65.554 124.465 65.554 122.343ZM65.269 154.605C65.269 152.483 66.1119 150.448 67.6121 148.948C69.1124 147.448 71.1473 146.605 73.269 146.605H159.822C161.944 146.605 163.979 147.448 165.479 148.948C166.979 150.448 167.822 152.483 167.822 154.605C167.822 156.727 166.979 158.762 165.479 160.262C163.979 161.762 161.944 162.605 159.822 162.605H73.269C71.1473 162.605 69.1124 161.762 67.6121 160.262C66.1119 158.762 65.269 156.727 65.269 154.605ZM64.985 186.866C64.985 184.744 65.8278 182.709 67.3281 181.209C68.8284 179.709 70.8633 178.866 72.985 178.866H159.538C161.66 178.866 163.695 179.709 165.195 181.209C166.695 182.709 167.538 184.744 167.538 186.866C167.538 188.988 166.695 191.023 165.195 192.523C163.695 194.023 161.66 194.866 159.538 194.866H72.985C70.8633 194.866 68.8284 194.023 67.3281 192.523C65.8278 191.023 64.985 188.988 64.985 186.866Z" fill="url(#paint0_linear_1143_726)"/>
<defs>
<linearGradient id="paint0_linear_1143_726" x1="-1.01847" y1="5.68327" x2="454.417" y2="440.327" gradientUnits="userSpaceOnUse">
<stop stop-color="#8705FF"/>
<stop offset="1" stop-color="#CC00FF"/>
</linearGradient>
</defs>
</svg>
