<svg width="497" height="460" viewBox="0 0 497 460" fill="none" xmlns="http://www.w3.org/2000/svg">
<path d="M494.66 350.746C489.25 330.536 468.24 318.256 446.83 322.746L297.61 354.426C300.546 346.354 300.552 337.508 297.627 329.432C294.703 321.357 289.033 314.566 281.61 310.246L195.11 260.296C191.639 258.128 188.378 255.64 185.37 252.866C177.77 246.296 168.31 238.126 150.68 236.246C133.93 234.466 112.13 238.396 82.68 248.586C81.697 242.341 78.5185 236.651 73.716 232.54C68.9135 228.428 62.802 226.165 56.48 226.156H26.52C19.4889 226.164 12.748 228.96 7.7763 233.932C2.80455 238.904 0.00794027 245.645 0 252.676V400.086C0.00794027 407.117 2.80455 413.858 7.7763 418.829C12.748 423.801 19.4889 426.598 26.52 426.606H56.39C63.3473 426.596 70.0229 423.856 74.9806 418.975C79.9384 414.094 82.7821 407.462 82.9 400.506C106.76 397.156 137.07 414.456 166.45 431.236C191.77 445.696 215.91 459.486 236.08 459.486C239.875 459.517 243.652 458.967 247.28 457.856L466.8 399.036C476.895 396.322 485.501 389.712 490.725 380.657C495.949 371.602 497.364 360.844 494.66 350.746ZM56.39 410.606H26.52C23.7307 410.603 21.0565 409.494 19.0842 407.522C17.1119 405.549 16.0026 402.875 16 400.086V252.676C16.0026 249.886 17.1119 247.212 19.0842 245.24C21.0565 243.268 23.7307 242.158 26.52 242.156H56.39C59.1793 242.158 61.8535 243.268 63.8258 245.24C65.7981 247.212 66.9074 249.886 66.91 252.676V400.086C66.9074 402.875 65.7981 405.549 63.8258 407.522C61.8535 409.494 59.1793 410.603 56.39 410.606ZM462.66 383.606L243 442.446L242.63 442.556C227.2 447.486 200.36 432.166 174.41 417.346C143.48 399.666 111.6 381.486 82.94 384.346V265.436C148.29 241.996 161.81 253.666 174.94 264.966C178.7 268.416 182.786 271.494 187.14 274.156L273.64 324.096C275.976 325.451 278.021 327.253 279.66 329.399C281.3 331.545 282.5 333.992 283.193 336.602C283.886 339.212 284.059 341.933 283.701 344.609C283.342 347.286 282.46 349.865 281.105 352.201C279.75 354.536 277.948 356.582 275.802 358.221C273.656 359.86 271.208 361.061 268.599 361.754C265.989 362.447 263.268 362.62 260.592 362.261C257.915 361.903 255.336 361.021 253 359.666L180.78 317.976C178.947 316.981 176.799 316.74 174.792 317.306C172.785 317.872 171.078 319.199 170.035 321.005C168.992 322.81 168.695 324.952 169.208 326.973C169.721 328.994 171.002 330.736 172.78 331.826L245 373.526C250.534 376.729 256.816 378.416 263.21 378.416C268.948 378.407 274.605 377.058 279.73 374.476C280.106 374.45 280.48 374.4 280.85 374.326L450.11 338.486C463.42 335.666 475.91 342.736 479.18 354.926C480.776 360.915 479.934 367.293 476.838 372.663C473.741 378.033 468.643 381.957 462.66 383.576V383.606ZM54.79 271.046C54.7979 273.686 54.022 276.27 52.5606 278.469C51.0991 280.668 49.0179 282.384 46.5805 283.4C44.143 284.415 41.459 284.685 38.8684 284.174C36.2778 283.663 33.8971 282.394 32.0279 280.529C30.1587 278.664 28.885 276.286 28.3681 273.697C27.8513 271.107 28.1145 268.423 29.1245 265.983C30.1346 263.543 31.8459 261.458 34.0418 259.992C36.2378 258.525 38.8195 257.744 41.46 257.746C44.9877 257.754 48.3691 259.156 50.8664 261.648C53.3637 264.14 54.7742 267.518 54.79 271.046ZM212.73 183.156H226.27C228.953 192.8 232.801 202.082 237.73 210.796L228.16 220.376C225.649 222.854 224.127 226.162 223.879 229.681C223.63 233.2 224.672 236.689 226.81 239.496C235.273 250.726 245.267 260.716 256.5 269.176C259.304 271.319 262.793 272.365 266.313 272.119C269.834 271.872 273.143 270.349 275.62 267.836L285.2 258.266C293.912 263.195 303.19 267.05 312.83 269.746V283.286C312.809 286.814 314.074 290.229 316.39 292.891C318.706 295.552 321.913 297.279 325.41 297.746C339.341 299.708 353.479 299.708 367.41 297.746C370.912 297.28 374.124 295.552 376.443 292.886C378.761 290.22 380.026 286.799 380 283.266V269.746C389.643 267.059 398.925 263.211 407.64 258.286L417.21 267.856C419.687 270.369 422.996 271.892 426.517 272.139C430.037 272.385 433.526 271.339 436.33 269.196C447.56 260.731 457.547 250.734 466 239.496C468.139 236.69 469.183 233.202 468.936 229.683C468.69 226.164 467.169 222.855 464.66 220.376L455.08 210.796C460.009 202.086 463.858 192.807 466.54 183.166H480.09C483.619 183.189 487.035 181.924 489.697 179.608C492.359 177.292 494.085 174.084 494.55 170.586C496.512 156.654 496.512 142.517 494.55 128.586C494.083 125.09 492.356 121.884 489.694 119.57C487.032 117.256 483.617 115.992 480.09 116.016H466.53C463.842 106.371 459.99 97.0898 455.06 88.3757L464.64 78.8057C467.136 76.3322 468.65 73.0366 468.9 69.5312C469.151 66.0258 468.12 62.5487 466 59.7457C457.542 48.5078 447.548 38.5136 436.31 30.0557C433.506 27.9125 430.017 26.8661 426.497 27.1128C422.976 27.3595 419.667 28.8824 417.19 31.3957L407.62 40.9757C398.913 36.0351 389.639 32.1702 380 29.4657V15.9257C380.024 12.3974 378.761 8.9813 376.447 6.31758C374.133 3.65386 370.927 1.92528 367.43 1.45571C353.497 -0.485238 339.363 -0.485238 325.43 1.45571C321.934 1.92732 318.729 3.65649 316.416 6.31976C314.102 8.98303 312.838 12.398 312.86 15.9257V29.4657C303.209 32.1537 293.921 36.0053 285.2 40.9357L275.62 31.3557C273.141 28.8463 269.832 27.326 266.313 27.0794C262.794 26.8328 259.305 27.8766 256.5 30.0157C245.259 38.4858 235.265 48.4937 226.81 59.7457C224.67 62.5513 223.627 66.0409 223.875 69.5606C224.124 73.0803 225.647 76.3887 228.16 78.8657L237.73 88.4357C232.799 97.1483 228.951 106.43 226.27 116.076H212.73C209.202 116.052 205.786 117.315 203.122 119.629C200.458 121.943 198.73 125.149 198.26 128.646C196.298 142.577 196.298 156.714 198.26 170.646C198.741 174.133 200.475 177.325 203.137 179.628C205.8 181.93 209.21 183.184 212.73 183.156ZM213.94 132.036H232.5C234.32 132.036 236.085 131.416 237.505 130.278C238.925 129.14 239.914 127.552 240.31 125.776C243.036 113.592 247.854 101.973 254.55 91.4357C255.523 89.9004 255.945 88.0794 255.745 86.2726C255.545 84.4659 254.735 82.7811 253.45 81.4957L240.33 68.3657C247.484 59.0316 255.836 50.6798 265.17 43.5257L278.29 56.6557C279.576 57.9435 281.263 58.7543 283.072 58.9543C284.881 59.1543 286.704 58.7315 288.24 57.7557C298.778 51.0599 310.396 46.2418 322.58 43.5157C324.348 43.1195 325.928 42.1351 327.064 40.7236C328.199 39.3121 328.822 37.5571 328.83 35.7457V17.1357C340.491 15.6157 352.299 15.6157 363.96 17.1357V35.7457C363.96 37.5654 364.58 39.3308 365.718 40.7506C366.856 42.1705 368.444 43.1599 370.22 43.5557C382.397 46.2659 394.013 51.067 404.55 57.7457C406.086 58.7215 407.909 59.1443 409.718 58.9443C411.527 58.7443 413.214 57.9335 414.5 56.6457L427.63 43.5157C436.959 50.6727 445.307 59.0242 452.46 68.3557L439.34 81.4857C438.055 82.7711 437.245 84.4559 437.045 86.2626C436.845 88.0694 437.267 89.8904 438.24 91.4257C444.937 101.956 449.755 113.568 452.48 125.746C452.878 127.52 453.868 129.106 455.288 130.242C456.707 131.378 458.472 131.997 460.29 131.996H478.85C480.383 143.656 480.383 155.466 478.85 167.126H460.28C458.463 167.127 456.701 167.747 455.284 168.883C453.866 170.019 452.877 171.603 452.48 173.376C449.757 185.57 444.939 197.199 438.24 207.746C437.267 209.281 436.845 211.102 437.045 212.909C437.245 214.716 438.055 216.4 439.34 217.686L452.47 230.816C445.311 240.145 436.959 248.496 427.63 255.656L414.5 242.536C413.213 241.252 411.528 240.444 409.721 240.246C407.915 240.048 406.094 240.471 404.56 241.446C394.02 248.144 382.398 252.962 370.21 255.686C368.437 256.083 366.853 257.072 365.717 258.49C364.581 259.907 363.961 261.669 363.96 263.486V282.056C352.299 283.576 340.491 283.576 328.83 282.056V263.486C328.831 261.667 328.212 259.903 327.076 258.483C325.94 257.064 324.354 256.073 322.58 255.676C310.393 252.961 298.772 248.142 288.24 241.436C286.704 240.46 284.881 240.037 283.072 240.237C281.263 240.437 279.576 241.248 278.29 242.536L265.17 255.666C255.836 248.512 247.484 240.16 240.33 230.826L253.45 217.746C254.735 216.46 255.545 214.776 255.745 212.969C255.945 211.162 255.523 209.341 254.55 207.806C247.852 197.269 243.034 185.65 240.31 173.466C239.914 171.69 238.925 170.102 237.505 168.963C236.085 167.825 234.32 167.205 232.5 167.206H213.94C212.407 155.549 212.407 143.742 213.94 132.086V132.036ZM346.4 229.746C362.244 229.746 377.733 225.047 390.907 216.245C404.081 207.442 414.349 194.931 420.412 180.292C426.475 165.654 428.062 149.547 424.971 134.007C421.88 118.467 414.25 104.193 403.046 92.9894C391.843 81.7858 377.569 74.1561 362.029 71.065C346.489 67.9739 330.381 69.5604 315.743 75.6237C301.105 81.6871 288.594 91.955 279.791 105.129C270.988 118.303 266.29 133.791 266.29 149.636C266.314 170.875 274.762 191.237 289.78 206.256C304.798 221.274 325.161 229.722 346.4 229.746ZM346.4 85.5257C359.08 85.5257 371.475 89.2857 382.018 96.3302C392.56 103.375 400.778 113.387 405.63 125.102C410.482 136.816 411.752 149.707 409.278 162.143C406.804 174.579 400.699 186.002 391.733 194.968C382.767 203.934 371.343 210.04 358.907 212.514C346.471 214.988 333.581 213.718 321.866 208.866C310.152 204.013 300.139 195.796 293.094 185.253C286.05 174.71 282.29 162.315 282.29 149.636C282.298 132.631 289.054 116.325 301.074 104.298C313.094 92.2701 329.396 85.5043 346.4 85.4857V85.5257ZM313.13 157.206C312.387 156.462 311.798 155.58 311.397 154.609C310.995 153.638 310.789 152.598 310.789 151.547C310.79 150.496 310.997 149.456 311.399 148.486C311.802 147.515 312.392 146.633 313.135 145.891C313.878 145.148 314.761 144.559 315.731 144.157C316.702 143.756 317.743 143.549 318.794 143.55C319.844 143.55 320.885 143.758 321.855 144.16C322.826 144.563 323.707 145.152 324.45 145.896L337.3 158.746L368 123.516C369.439 122.095 371.362 121.272 373.383 121.213C375.405 121.153 377.373 121.861 378.894 123.194C380.414 124.526 381.373 126.386 381.579 128.397C381.784 130.409 381.22 132.423 380 134.036L343.7 175.676C342.979 176.503 342.096 177.173 341.105 177.645C340.114 178.116 339.037 178.378 337.94 178.416H337.67C336.619 178.417 335.578 178.21 334.607 177.809C333.636 177.407 332.754 176.818 332.01 176.076L313.13 157.206Z" fill="url(#paint0_linear_1143_735)"/>
<defs>
<linearGradient id="paint0_linear_1143_735" x1="-1.03337" y1="5.2649" x2="420.923" y2="446.315" gradientUnits="userSpaceOnUse">
<stop stop-color="#8705FF"/>
<stop offset="1" stop-color="#CC00FF"/>
</linearGradient>
</defs>
</svg>
