<svg width="429" height="459" viewBox="0 0 429 459" fill="none" xmlns="http://www.w3.org/2000/svg">
<path fill-rule="evenodd" clip-rule="evenodd" d="M220.669 4.52313L233.753 45.0551L276.405 44.9732C282.664 44.967 285.253 53.028 280.205 56.6929L280.214 56.7051L245.669 81.703L258.925 122.234C260.841 128.11 254.013 133.486 248.549 129.182L214.485 104.333L180.026 129.472C174.966 133.158 168.141 128.167 170.062 122.239L170.045 122.234L183.3 81.703L148.756 56.7051C143.736 53.0699 146.121 44.7192 153.038 44.9742L195.217 45.0551L208.314 4.48114C210.253 -1.541 218.789 -1.46011 220.669 4.52313ZM323.58 69.8902C322.726 69.8902 321.881 70.0583 321.092 70.385C320.304 70.7117 319.587 71.1906 318.983 71.7942C318.38 72.3979 317.901 73.1145 317.574 73.9033C317.248 74.692 317.079 75.5373 317.079 76.391C317.079 77.2447 317.248 78.0901 317.574 78.8788C317.901 79.6675 318.38 80.3842 318.983 80.9878C319.587 81.5915 320.304 82.0703 321.092 82.397C321.881 82.7237 322.726 82.8919 323.58 82.8919H375.543C376.397 82.8919 377.242 82.7237 378.031 82.397C378.82 82.0703 379.536 81.5915 380.14 80.9878C380.744 80.3842 381.222 79.6675 381.549 78.8788C381.876 78.0901 382.044 77.2447 382.044 76.391C382.044 75.5373 381.876 74.692 381.549 73.9033C381.222 73.1145 380.744 72.3979 380.14 71.7942C379.536 71.1906 378.82 70.7117 378.031 70.385C377.242 70.0583 376.397 69.8902 375.543 69.8902H323.58ZM307.897 28.8124C306.341 29.531 305.134 30.8364 304.539 32.4429C303.944 34.0494 304.01 35.8262 304.722 37.3845C305.433 38.9428 306.734 40.1556 308.337 40.7576C309.941 41.3596 311.718 41.3017 313.28 40.5966L358.887 19.6875C360.432 18.9629 361.629 17.6575 362.218 16.0551C362.806 14.4527 362.738 12.6828 362.029 11.1302C361.319 9.57764 360.025 8.36783 358.429 7.76377C356.832 7.15972 355.062 7.21025 353.503 7.90437L307.897 28.8124ZM316.967 108.304C315.405 107.591 313.623 107.527 312.013 108.127C310.403 108.727 309.098 109.942 308.384 111.504C307.67 113.067 307.606 114.849 308.206 116.459C308.807 118.068 310.022 119.374 311.584 120.088L360.363 142.452C361.137 142.805 361.973 143.003 362.823 143.034C363.673 143.064 364.521 142.927 365.318 142.63C366.115 142.333 366.845 141.881 367.468 141.302C368.091 140.722 368.593 140.026 368.946 139.252C369.3 138.478 369.498 137.642 369.528 136.792C369.559 135.942 369.421 135.094 369.124 134.297C368.827 133.5 368.376 132.77 367.796 132.147C367.217 131.524 366.52 131.022 365.746 130.669L316.967 108.304ZM103.095 69.8902C103.955 69.8794 104.809 70.0395 105.607 70.3614C106.406 70.6832 107.132 71.1604 107.744 71.7651C108.357 72.3698 108.843 73.0901 109.175 73.8842C109.507 74.6783 109.678 75.5304 109.678 76.391C109.678 77.2517 109.507 78.1037 109.175 78.8978C108.843 79.6919 108.357 80.4122 107.744 81.017C107.132 81.6217 106.406 82.0988 105.607 82.4207C104.809 82.7425 103.955 82.9027 103.095 82.8919H51.1317C50.278 82.8919 49.4326 82.7237 48.6439 82.397C47.8552 82.0703 47.1385 81.5915 46.5349 80.9878C45.9312 80.3842 45.4524 79.6675 45.1257 78.8788C44.799 78.0901 44.6308 77.2447 44.6308 76.391C44.6308 75.5373 44.799 74.692 45.1257 73.9033C45.4524 73.1145 45.9312 72.3979 46.5349 71.7942C47.1385 71.1906 47.8552 70.7117 48.6439 70.385C49.4326 70.0583 50.278 69.8902 51.1317 69.8902H103.095ZM118.778 28.8124C120.333 29.531 121.541 30.8364 122.136 32.4429C122.731 34.0494 122.665 35.8262 121.953 37.3845C121.241 38.9428 119.941 40.1556 118.337 40.7576C116.733 41.3596 114.956 41.3017 113.395 40.5966L67.7881 19.6875C66.2425 18.9629 65.0455 17.6575 64.4572 16.0551C63.8689 14.4527 63.9368 12.6828 64.6462 11.1302C65.3557 9.57764 66.6493 8.36783 68.2458 7.76377C69.8423 7.15972 71.6128 7.21025 73.1723 7.90437L118.778 28.8124ZM109.708 108.304C111.27 107.591 113.052 107.527 114.662 108.127C116.272 108.727 117.577 109.942 118.291 111.504C119.005 113.067 119.068 114.849 118.468 116.459C117.868 118.068 116.653 119.374 115.091 120.088L66.3115 142.452C65.5378 142.805 64.702 143.003 63.8519 143.034C63.0019 143.064 62.1541 142.927 61.3571 142.63C60.56 142.333 59.8293 141.881 59.2067 141.302C58.5841 140.722 58.0817 140.026 57.7283 139.252C57.3748 138.478 57.1771 137.642 57.1466 136.792C57.1161 135.942 57.2533 135.094 57.5505 134.297C57.8476 133.5 58.2989 132.77 58.8784 132.147C59.458 131.524 60.1546 131.022 60.9283 130.669L109.708 108.304ZM70.3337 327.715L41.5112 246.655L15.8938 255.764C13.6052 256.577 12.4316 259.123 13.2406 261.399L39.112 334.16C39.926 336.45 42.4717 337.622 44.747 336.813L70.3337 327.715ZM52.9964 240.213L53.9774 242.973L67.0877 238.312L132.867 193.617L129.281 186.58C128.587 185.344 128.316 183.914 128.51 182.509C128.703 181.104 129.351 179.801 130.353 178.799L149.232 159.92C150.203 158.952 151.455 158.315 152.81 158.101C154.164 157.887 155.552 158.106 156.775 158.727L173.277 167.135C178.363 164.399 183.712 162.186 189.244 160.529L194.837 143.315C195.194 141.915 196.007 140.674 197.148 139.787C198.289 138.901 199.693 138.419 201.137 138.419H227.835V138.43C229.205 138.43 230.54 138.864 231.649 139.669C232.757 140.475 233.582 141.611 234.006 142.914L239.729 160.527C245.26 162.185 250.609 164.399 255.694 167.134L271.958 158.847C273.195 158.153 274.624 157.882 276.029 158.075C277.434 158.269 278.737 158.916 279.74 159.919L298.618 178.798C299.587 179.768 300.224 181.02 300.438 182.375C300.653 183.729 300.434 185.117 299.812 186.339L296.105 193.616L361.885 238.311L374.995 242.972C376.353 239.153 377.249 236.12 381.511 234.094C382.778 233.488 384.153 233.139 385.555 233.066C386.958 232.993 388.361 233.198 389.685 233.669L417.395 243.522C426.415 246.729 431.181 256.686 427.971 265.715L402.1 338.476C398.892 347.497 388.936 352.262 379.906 349.052L352.18 339.193C346.728 337.249 343.778 331.288 345.552 325.79C310.828 327.922 298.644 297.905 297.67 297.556L299.69 301.522C300.385 302.759 300.656 304.188 300.462 305.593C300.268 306.998 299.621 308.301 298.618 309.303L279.74 328.182C278.769 329.15 277.517 329.787 276.162 330.002C274.808 330.216 273.42 329.997 272.198 329.375L263.372 324.878L247.093 387.282V401.201C251.139 401.201 254.297 401.026 257.625 404.355C259.558 406.287 260.779 409.071 260.779 411.954V441.365C260.779 450.953 252.973 458.76 243.385 458.76H166.161C156.572 458.76 148.766 450.954 148.766 441.365V411.954C148.766 406.181 153.44 401.385 159.189 401.207C155.733 393.113 154.406 385.079 155.24 377.106C156.337 366.606 161.147 356.474 169.733 346.715V322.773L157.014 329.254C155.778 329.948 154.348 330.219 152.943 330.026C151.539 329.832 150.236 329.185 149.233 328.182L130.354 309.303C129.386 308.333 128.749 307.081 128.535 305.726C128.32 304.372 128.539 302.984 129.16 301.762L131.303 297.557C130.332 297.9 118.148 327.922 83.4205 325.79C85.195 331.288 82.2449 337.249 76.7931 339.193L49.0663 349.052C40.0377 352.262 30.0803 347.497 26.8731 338.475L1.00176 265.714C-2.20848 256.685 2.55721 246.728 11.5776 243.521L39.2881 233.668C44.8648 231.686 51.017 234.644 52.9964 240.213ZM58.3253 255.201L72.1411 250.288L72.136 250.274C72.648 250.093 73.1446 249.845 73.6146 249.526L135.145 207.719L134.369 209.46L130.963 218.806L113.346 224.531C111.973 224.977 110.788 225.869 109.979 227.064C109.169 228.26 108.781 229.691 108.876 231.131V256.97C108.781 258.41 109.169 259.842 109.979 261.037C110.788 262.232 111.973 263.124 113.346 263.571C115.996 264.432 118.075 265.477 120.687 264.552L154.391 252.568C155.737 252.091 157.163 251.884 158.589 251.96C160.015 252.036 161.412 252.392 162.7 253.009C171.467 257.177 170.611 269.804 161.684 272.978L124.558 286.179L124.56 286.184C122.999 286.731 121.708 287.857 120.952 289.328C111.593 307.476 98.249 315.546 78.5821 312.175L58.3253 255.201ZM142.643 225.088C142.431 226.236 141.913 227.307 141.142 228.185C140.372 229.064 139.379 229.718 138.268 230.079L121.83 235.42V250.371L150.077 240.327C152.029 239.631 154.064 239.196 156.13 239.031C158.685 208.915 183.952 185.48 214.486 185.48C245.029 185.48 270.295 208.923 272.844 239.047L275.588 239.482L275.595 239.462L283.995 242.138L307.115 250.36V235.41L290.702 230.077C289.591 229.716 288.598 229.062 287.828 228.183C287.057 227.305 286.539 226.235 286.326 225.087C285.05 219.397 281.459 211.382 278.448 206.29C277.892 205.35 277.583 204.285 277.548 203.193C277.514 202.102 277.755 201.019 278.251 200.046L278.246 200.043L286.088 184.651L273.882 172.446L258.492 180.289C257.471 180.808 256.33 181.049 255.186 180.985C254.042 180.922 252.936 180.557 251.978 179.928C246.751 176.685 238.98 173.618 233.027 172.096C231.968 171.826 230.995 171.294 230.199 170.547C229.402 169.8 228.807 168.863 228.47 167.825L228.456 167.83L223.124 151.419H205.847L200.515 167.83C200.154 168.941 199.5 169.934 198.622 170.704C197.743 171.474 196.674 171.993 195.525 172.205C189.834 173.482 181.82 177.072 176.725 180.085C175.785 180.641 174.72 180.95 173.628 180.985C172.537 181.019 171.454 180.778 170.481 180.282L170.478 180.289L155.088 172.447L142.882 184.652L150.725 200.044C152.359 203.254 151.025 205.347 149.628 207.843C146.647 213.174 144.189 219.179 142.643 225.088ZM168.981 241.647C180.499 247.615 185.069 261.538 179.429 273.193C183.274 277.812 187.991 281.629 193.31 284.427C194.594 285.102 195.909 285.714 197.251 286.262C199.6 286.636 201.879 287.362 204.011 288.416C207.445 289.217 210.96 289.621 214.486 289.618C228.249 289.618 240.934 283.529 249.543 273.194C243.91 261.527 248.464 247.605 259.991 241.644C258.735 217.537 238.788 198.484 214.486 198.484C190.184 198.484 170.234 217.537 168.981 241.647ZM170.711 282.935C169.236 283.865 167.663 284.628 166.02 285.213L149.11 291.226L142.882 303.448L155.087 315.653L169.788 308.163C170.269 301.142 173.826 294.877 179.218 290.795C176.131 288.461 173.282 285.828 170.711 282.935ZM350.386 312.175L370.645 255.201L356.828 250.289L356.834 250.275C356.311 250.09 355.814 249.839 355.355 249.527L293.824 207.72C295.475 211.313 296.872 215.019 298.005 218.808L315.22 224.403C316.62 224.76 317.862 225.573 318.748 226.714C319.635 227.855 320.116 229.258 320.116 230.703V257.402H320.105C320.104 258.772 319.67 260.107 318.865 261.216C318.059 262.324 316.924 263.149 315.621 263.573C312.971 264.434 310.891 265.478 308.28 264.554C303.762 262.954 275.468 252.69 272.1 251.99C269.739 251.744 267.38 252.301 265.37 253.495C257.457 258.196 258.792 269.962 267.283 272.981L304.409 286.183L304.407 286.187C305.967 286.734 307.258 287.859 308.014 289.33C317.376 307.476 330.721 315.547 350.386 312.175ZM387.459 246.654L358.637 327.715L384.223 336.812C386.498 337.621 389.045 336.449 389.858 334.159L415.729 261.398C416.538 259.122 415.364 256.576 413.076 255.762L387.459 246.654ZM279.86 291.226L262.967 285.22C261.318 284.634 259.739 283.868 258.259 282.935C247.612 294.919 232.469 302.134 216.161 302.596C216.219 302.947 216.247 303.3 216.247 303.649H216.252V336.681H223.123L228.456 320.269C229.417 317.312 231.479 316.425 233.892 315.774L239.078 314.155L239.962 313.837L240.11 313.782L241.579 313.221L242.02 313.046L247.81 310.438L248.538 310.066L248.828 309.916L252.244 308.014C253.184 307.458 254.249 307.148 255.341 307.113C256.433 307.079 257.515 307.321 258.489 307.817L258.492 307.811L273.883 315.654L286.09 303.449L279.86 291.226ZM173.613 401.203H234.091V386.535H234.111C234.111 385.998 234.179 385.453 234.319 384.909L250.307 323.625L241.172 327.127L240.65 327.292L240.125 327.454L239.73 327.573L234.137 344.788C233.78 346.188 232.967 347.429 231.826 348.316C230.685 349.203 229.281 349.684 227.836 349.684H209.753C208.9 349.684 208.054 349.516 207.266 349.189C206.477 348.862 205.76 348.383 205.157 347.78C204.553 347.176 204.074 346.459 203.748 345.67C203.421 344.882 203.253 344.036 203.253 343.182V304.98C203.009 303.95 200.416 301.107 199.32 300.627C197.585 300.161 195.873 299.615 194.189 298.992C193.98 298.98 193.771 298.974 193.562 298.974C187.621 298.974 182.736 303.86 182.736 309.8V349.204H182.721C182.721 350.798 182.137 352.395 180.959 353.648C167.013 368.5 163.89 383.852 173.613 401.203ZM247.777 414.205H161.767V441.366C161.767 443.777 163.748 445.759 166.16 445.759H243.384C245.795 445.759 247.777 443.777 247.777 441.366V414.205ZM222.866 53.5205L214.485 27.5601L206.105 53.5205L206.101 53.5195C205.681 54.8252 204.858 55.9641 203.75 56.7722C202.642 57.5802 201.306 58.0157 199.934 58.0159L172.642 57.9636L194.75 73.9616C195.86 74.7678 196.686 75.9048 197.111 77.2095C197.535 78.5143 197.535 79.9199 197.111 81.2248L188.622 107.18L210.571 91.1699C211.679 90.329 213.028 89.8675 214.419 89.8537C215.81 89.8398 217.169 90.2744 218.294 91.0931L240.346 107.18L231.935 81.4614C231.447 80.1332 231.406 78.682 231.818 77.3283C232.231 75.9747 233.074 74.7929 234.22 73.9626L256.328 57.9647L229.335 58.0159C227.913 58.0807 226.509 57.6756 225.34 56.8632C224.17 56.0508 223.301 54.8761 222.866 53.5205Z" fill="white"/>
</svg>
