<svg width="416" height="496" viewBox="0 0 416 496" fill="none" xmlns="http://www.w3.org/2000/svg">
<path d="M410.419 86.2025L210.785 0.646462C209.789 0.219928 208.717 0 207.633 0C206.55 0 205.478 0.219928 204.482 0.646462L4.849 86.2025C3.40999 86.8192 2.18355 87.8446 1.32163 89.1517C0.45971 90.4587 0.000190109 91.9898 0 93.5555V256.539C0 314.841 19.531 368.507 56.48 411.735C92.662 454.066 142.186 482.697 199.697 494.533L206.021 495.834C207.085 496.055 208.183 496.055 209.247 495.834L215.571 494.533C273.082 482.697 322.606 454.066 358.788 411.735C395.738 368.506 415.269 314.84 415.269 256.539V93.5565C415.269 91.9906 414.809 90.4593 413.947 89.1521C413.085 87.8449 411.858 86.8194 410.419 86.2025ZM399.268 256.539C399.268 366.507 324.149 455.852 212.345 478.862L207.634 479.832L202.923 478.862C91.119 455.852 16 366.507 16 256.539V98.8305L207.634 16.7025L399.268 98.8305V256.539ZM204.482 34.7755L36.218 106.888C34.779 107.505 33.5525 108.531 32.6906 109.838C31.8287 111.145 31.3692 112.676 31.369 114.241V256.539C31.369 307.65 48.527 354.537 80.988 392.128C112.554 428.683 155.79 453.47 206.021 463.808C207.085 464.027 208.183 464.027 209.247 463.808C259.478 453.47 302.713 428.683 334.28 392.128C366.741 354.537 383.899 307.65 383.899 256.539V114.241C383.899 112.676 383.439 111.145 382.578 109.838C381.716 108.531 380.489 107.505 379.05 106.888L210.785 34.7755C209.789 34.3489 208.717 34.129 207.633 34.129C206.55 34.129 205.478 34.3489 204.482 34.7755ZM367.898 119.516V256.539C367.898 350.686 303.567 427.353 207.634 447.798C111.7 427.353 47.37 350.686 47.37 256.539V119.516L207.634 50.8325L367.898 119.516ZM183.811 98.3435C177.509 103.117 174.345 105.514 171.563 106.527C168.781 107.539 164.817 107.737 156.92 108.13C154.928 108.229 152.711 108.34 150.221 108.478C136.445 109.244 125.075 118.785 121.928 132.218C121.359 134.646 120.866 136.811 120.422 138.755C118.663 146.464 117.78 150.334 116.3 152.898C114.82 155.461 111.911 158.161 106.114 163.538C104.652 164.894 103.024 166.405 101.205 168.112C91.144 177.554 88.567 192.171 94.792 204.484C95.917 206.71 96.93 208.686 97.84 210.46C101.447 217.496 103.258 221.027 103.773 223.943C104.288 226.859 103.793 230.797 102.809 238.642C102.561 240.621 102.285 242.824 101.989 245.3C100.351 259 107.773 271.854 120.456 277.285C122.749 278.267 124.796 279.13 126.634 279.904L127.43 280.24L98.457 342.47C97.84 343.796 97.598 345.265 97.7572 346.718C97.9165 348.172 98.471 349.553 99.3604 350.714C100.25 351.874 101.44 352.768 102.802 353.3C104.164 353.831 105.646 353.979 107.086 353.727L138.895 348.169L155.118 376.087C155.853 377.352 156.919 378.39 158.203 379.091C159.486 379.791 160.937 380.127 162.398 380.06C163.858 379.994 165.273 379.529 166.488 378.715C167.703 377.901 168.671 376.77 169.288 375.444L198.33 313.063C202.724 311.75 205.413 311.092 207.633 311.092C210.594 311.092 214.386 312.262 221.942 314.593L224.37 315.341L245.15 363.587C245.728 364.93 246.664 366.089 247.854 366.937C249.045 367.786 250.445 368.292 251.903 368.4C253.361 368.509 254.821 368.216 256.124 367.553C257.428 366.89 258.524 365.883 259.295 364.64L276.321 337.203L307.954 343.682C309.386 343.975 310.871 343.87 312.248 343.378C313.625 342.886 314.84 342.027 315.763 340.893C316.686 339.759 317.28 338.394 317.482 336.947C317.683 335.499 317.485 334.023 316.907 332.68L293.322 277.92L294.812 277.284C307.495 271.852 314.916 258.999 313.279 245.299C312.983 242.822 312.707 240.619 312.459 238.641C311.475 230.795 310.981 226.858 311.495 223.942C312.009 221.026 313.82 217.495 317.428 210.459C318.338 208.685 319.351 206.709 320.476 204.482C326.7 192.168 324.122 177.551 314.062 168.11C312.431 166.581 310.794 165.056 309.153 163.536C303.357 158.159 300.447 155.459 298.967 152.895C297.487 150.332 296.604 146.462 294.845 138.754C294.349 136.574 293.847 134.394 293.339 132.216C290.192 118.782 278.822 109.242 265.046 108.476C262.556 108.338 260.338 108.227 258.347 108.128C250.45 107.735 246.486 107.537 243.704 106.525C240.922 105.512 237.759 103.115 231.456 98.3415C229.867 97.1365 228.096 95.7965 226.1 94.3015C215.056 86.0335 200.212 86.0335 189.167 94.3015C187.378 95.6434 185.592 96.9907 183.811 98.3435ZM161.251 354.796L149.927 335.309C149.105 333.895 147.869 332.767 146.386 332.076C144.903 331.386 143.244 331.167 141.633 331.448L119.431 335.327L141.453 288.025C143.242 290.074 145.272 293.216 148.553 298.297C149.635 299.972 150.839 301.838 152.204 303.925C158.038 312.845 167.688 317.904 177.865 317.903C178.055 317.903 178.246 317.886 178.436 317.882L161.251 354.796ZM274.068 320.411C272.465 320.083 270.801 320.254 269.298 320.901C267.796 321.548 266.528 322.64 265.666 324.03L253.782 343.181L242.69 317.428C250.845 315.994 258.252 311.28 263.062 303.926C264.427 301.838 265.632 299.972 266.714 298.297C271.003 291.655 273.156 288.321 275.423 286.419C276.27 285.708 277.312 285.048 278.663 284.339L296.147 324.934L274.068 320.411ZM198.755 107.111C201.452 105.092 204.543 104.083 207.634 104.083C210.724 104.083 213.816 105.092 216.512 107.111C218.481 108.585 220.226 109.907 221.794 111.095C236.922 122.557 238.594 123.165 257.551 124.11C259.515 124.208 261.702 124.317 264.157 124.453C270.884 124.827 276.224 129.307 277.761 135.867C278.322 138.262 278.809 140.397 279.246 142.314C283.467 160.818 284.356 162.358 298.271 175.267C299.712 176.605 301.318 178.094 303.112 179.778C308.024 184.388 309.235 191.253 306.195 197.265C305.086 199.46 304.086 201.409 303.189 203.159C294.528 220.048 294.219 221.8 296.582 240.633C296.827 242.584 297.099 244.757 297.391 247.198C298.19 253.888 294.705 259.924 288.512 262.576C286.484 263.443 284.454 264.304 282.421 265.159C264.93 272.53 263.568 273.673 253.273 289.617C252.206 291.269 251.018 293.109 249.671 295.168C245.983 300.806 239.434 303.19 232.984 301.242C230.63 300.531 228.537 299.885 226.658 299.305C208.521 293.708 206.743 293.708 188.607 299.305C186.728 299.885 184.635 300.531 182.281 301.242C175.832 303.19 169.282 300.806 165.595 295.168C164.249 293.11 163.061 291.27 161.994 289.618C151.698 273.673 150.336 272.53 132.846 265.16C131.034 264.396 129.015 263.546 126.754 262.577C120.561 259.925 117.076 253.889 117.875 247.199C118.167 244.757 118.439 242.584 118.684 240.633C121.046 221.8 120.737 220.049 112.077 203.16C111.069 201.199 110.067 199.234 109.071 197.266C106.031 191.254 107.241 184.39 112.154 179.779C113.948 178.095 115.554 176.606 116.996 175.268C130.91 162.36 131.799 160.82 136.02 142.314C136.458 140.397 136.945 138.262 137.505 135.868C139.042 129.308 144.381 124.828 151.109 124.454C153.565 124.317 155.752 124.208 157.715 124.111C176.672 123.167 178.343 122.558 193.472 111.096C195.04 109.908 196.786 108.585 198.755 107.111ZM135.775 202.998C135.775 242.621 168.01 274.857 207.633 274.857C247.256 274.857 279.491 242.621 279.491 202.998C279.491 163.375 247.256 131.14 207.633 131.14C168.011 131.14 135.775 163.375 135.775 202.998ZM207.633 147.14C238.433 147.14 263.491 172.198 263.491 202.998C263.491 233.799 238.433 258.857 207.633 258.857C176.833 258.857 151.775 233.799 151.775 202.998C151.775 172.198 176.833 147.14 207.633 147.14ZM167.488 199.396C168.988 197.896 171.023 197.054 173.145 197.054C175.266 197.054 177.301 197.896 178.801 199.396L193.529 214.124L236.746 174.904C238.317 173.479 240.391 172.735 242.51 172.838C244.629 172.941 246.621 173.881 248.047 175.452C249.473 177.024 250.216 179.097 250.114 181.216C250.011 183.336 249.07 185.328 247.499 186.753L198.638 231.095C197.168 232.433 195.251 233.173 193.263 233.171C192.212 233.173 191.171 232.966 190.2 232.564C189.229 232.162 188.347 231.572 187.605 230.828L167.488 210.711C165.988 209.211 165.145 207.176 165.145 205.054C165.145 202.932 165.988 200.897 167.488 199.396Z" fill="white"/>
</svg>
