<svg width="496" height="496" viewBox="0 0 496 496" fill="none" xmlns="http://www.w3.org/2000/svg">
<path d="M281.768 129.035L281.769 129.041C281.81 129.349 281.873 129.656 281.95 129.96C281.97 130.037 281.992 130.113 282.014 130.189C282.081 130.425 282.16 130.659 282.251 130.892C282.282 130.972 282.311 131.052 282.344 131.131C282.469 131.426 282.609 131.718 282.773 132.002L323.033 201.733C323.735 202.95 324.744 203.96 325.961 204.662C327.177 205.364 328.556 205.734 329.961 205.733H410.465L410.487 205.734C410.837 205.734 411.188 205.709 411.538 205.662L411.553 205.659C411.888 205.614 412.223 205.547 412.555 205.458C412.658 205.43 412.755 205.388 412.856 205.357C413.085 205.286 413.314 205.217 413.538 205.124C413.852 204.994 414.157 204.843 414.452 204.675C414.461 204.67 414.471 204.667 414.48 204.661C414.755 204.501 415.02 204.324 415.274 204.131C415.339 204.082 415.401 204.029 415.464 203.979C415.72 203.776 415.963 203.557 416.193 203.323C416.406 203.106 416.608 202.88 416.792 202.643L416.822 202.607C417.021 202.345 417.205 202.071 417.371 201.786C417.382 201.767 417.396 201.751 417.407 201.732L457.667 132.002C458.369 130.786 458.739 129.407 458.739 128.002C458.739 126.598 458.369 125.218 457.667 124.002L417.407 54.2715C417.243 53.9921 417.062 53.7226 416.867 53.4645C416.816 53.3955 416.761 53.3315 416.707 53.2645C416.553 53.0717 416.389 52.8865 416.218 52.7095C416.162 52.6515 416.107 52.5935 416.05 52.5375C415.827 52.319 415.593 52.1136 415.347 51.9225L415.34 51.9165C415.084 51.7226 414.817 51.5446 414.54 51.3835C414.476 51.3455 414.411 51.3125 414.346 51.2765C414.133 51.1591 413.915 51.0513 413.693 50.9535C413.61 50.9175 413.529 50.8805 413.445 50.8475C413.177 50.7399 412.904 50.6464 412.627 50.5675C412.603 50.5605 412.581 50.5515 412.557 50.5455C412.255 50.4665 411.95 50.4051 411.642 50.3615C411.556 50.3485 411.468 50.3405 411.381 50.3305C411.13 50.3018 410.879 50.2851 410.627 50.2805C410.578 50.2795 410.53 50.2705 410.481 50.2705H329.962C328.557 50.2705 327.178 50.6402 325.962 51.3423C324.746 52.0445 323.736 53.0544 323.034 54.2705L282.773 124.002C282.751 124.04 282.736 124.081 282.715 124.12C282.588 124.349 282.473 124.583 282.37 124.822C282.337 124.897 282.303 124.972 282.273 125.048C282.157 125.34 282.053 125.637 281.972 125.941L281.961 125.992C281.888 126.279 281.83 126.569 281.79 126.861C281.778 126.948 281.769 127.035 281.759 127.122C281.732 127.366 281.716 127.611 281.711 127.856C281.71 127.929 281.706 128 281.707 128.073C281.708 128.393 281.726 128.714 281.768 129.035ZM320.288 91.0255H382.331L379.893 95.2475H317.85L320.288 91.0255ZM402.803 110.484L400.365 114.706L393.75 103.247L396.188 99.0255L402.803 110.484ZM370.656 111.247L365.601 120.002H303.557L308.612 111.247H370.656ZM303.557 136.002H365.602L396.623 189.733H334.58L303.557 136.002ZM410.479 181.734L379.458 128.002L384.512 119.248L393.436 134.706C394.138 135.922 395.148 136.932 396.364 137.634C397.581 138.336 398.96 138.705 400.364 138.705C401.768 138.705 403.148 138.336 404.364 137.634C405.58 136.932 406.59 135.922 407.293 134.706L418.969 114.484C419.671 113.269 420.041 111.889 420.041 110.484C420.041 109.08 419.671 107.7 418.969 106.484L405.425 83.0255L410.48 74.2705L441.502 128.002L410.479 181.734ZM334.58 66.2715H396.623L391.569 75.0255H329.526L334.58 66.2715ZM273.78 54.5735C272.839 53.531 272.189 52.2592 271.896 50.886C271.602 49.5128 271.675 48.0865 272.108 46.7505L281.497 17.7455C282.157 15.7361 283.587 14.0702 285.473 13.1122C287.359 12.1543 289.548 11.9823 291.56 12.6338C293.573 13.2853 295.245 14.7073 296.212 16.5888C297.179 18.4703 297.361 20.658 296.719 22.6735L296.493 23.3705C327.171 1.71249 366.128 -5.57951 403.342 4.39249C426.92 10.7105 448.062 23.5185 464.484 41.4345C480.446 58.8379 491.297 80.3086 495.841 103.482C496.234 105.558 495.789 107.705 494.605 109.455C493.42 111.205 491.592 112.415 489.519 112.821C487.445 113.227 485.295 112.797 483.538 111.624C481.781 110.451 480.559 108.63 480.14 106.559C471.846 64.2295 440.832 31.0035 399.202 19.8485C367.459 11.3425 334.27 17.1925 307.755 35.0445L307.862 35.0215C312.183 34.0955 316.433 36.8525 317.357 41.1725C317.8 43.2473 317.401 45.4132 316.247 47.1938C315.094 48.9745 313.28 50.224 311.206 50.6675L281.393 57.0385C280.019 57.3319 278.592 57.2585 277.256 56.8258C275.92 56.3931 274.721 55.6163 273.78 54.5735ZM275.957 214.571C259.994 197.168 249.143 175.697 244.6 152.522C244.192 150.44 244.627 148.282 245.811 146.521C246.995 144.76 248.83 143.542 250.912 143.133C255.248 142.278 259.45 145.109 260.301 149.445C268.595 191.776 299.609 225.002 341.239 236.156C372.995 244.664 406.179 238.813 432.693 220.958L432.579 220.982C431.551 221.202 430.491 221.218 429.457 221.028C428.424 220.838 427.438 220.446 426.557 219.874C425.675 219.303 424.914 218.564 424.318 217.699C423.722 216.833 423.303 215.859 423.084 214.831C422.64 212.757 423.039 210.591 424.193 208.81C425.346 207.03 427.16 205.78 429.235 205.336L459.048 198.965C460.421 198.672 461.847 198.745 463.183 199.178C464.519 199.61 465.718 200.387 466.659 201.429C467.599 202.472 468.249 203.744 468.543 205.117C468.836 206.49 468.763 207.916 468.331 209.252L458.942 238.257C458.624 239.264 458.111 240.199 457.431 241.006C456.751 241.814 455.917 242.479 454.979 242.963C454.041 243.447 453.016 243.74 451.964 243.826C450.911 243.912 449.852 243.789 448.848 243.464C447.843 243.139 446.913 242.618 446.111 241.932C445.309 241.246 444.65 240.407 444.173 239.465C443.697 238.523 443.411 237.496 443.333 236.443C443.255 235.39 443.387 234.332 443.72 233.33L443.945 232.637C422.425 247.841 396.725 256.005 370.377 256.007C359.139 256.003 347.951 254.526 337.099 251.611C313.52 245.294 292.378 232.486 275.957 214.571ZM112.8 338.453C112.82 338.464 112.841 338.472 112.86 338.483C113.145 338.645 113.438 338.792 113.743 338.918L113.793 338.936C114.375 339.171 114.982 339.335 115.603 339.427C115.685 339.439 115.766 339.454 115.848 339.464C116.16 339.501 116.477 339.526 116.799 339.526C117.121 339.526 117.438 339.501 117.75 339.464C117.832 339.454 117.913 339.439 117.995 339.427C118.318 339.379 118.638 339.311 118.953 339.224C119.244 339.143 119.529 339.048 119.805 338.936C119.822 338.929 119.839 338.925 119.855 338.918C120.16 338.792 120.454 338.645 120.738 338.483C120.758 338.472 120.779 338.465 120.798 338.453L185.224 301.258C186.44 300.556 187.45 299.546 188.152 298.33C188.854 297.113 189.224 295.734 189.224 294.329V219.936C189.224 219.608 189.198 219.286 189.16 218.968C189.15 218.883 189.135 218.799 189.121 218.714C189.083 218.47 189.035 218.228 188.975 217.988C188.955 217.911 188.937 217.833 188.915 217.757C188.831 217.458 188.731 217.163 188.614 216.874L188.61 216.864C188.485 216.569 188.343 216.28 188.184 216.001C188.148 215.938 188.108 215.877 188.071 215.814C187.945 215.605 187.809 215.401 187.664 215.204C187.439 214.897 187.194 214.606 186.93 214.333C186.915 214.317 186.902 214.3 186.886 214.284C186.663 214.065 186.429 213.858 186.183 213.665C186.116 213.612 186.046 213.562 185.977 213.511C185.771 213.36 185.559 213.218 185.341 213.085C185.3 213.061 185.265 213.03 185.224 213.006L120.8 175.812C119.583 175.11 118.204 174.741 116.8 174.741C115.395 174.741 114.016 175.11 112.8 175.812L48.3726 213.008C48.3316 213.032 48.2956 213.062 48.2556 213.087C48.0369 213.219 47.8247 213.361 47.6196 213.513C47.5506 213.564 47.4806 213.614 47.4136 213.667C47.1675 213.86 46.9328 214.067 46.7106 214.286C46.6946 214.302 46.6816 214.319 46.6666 214.335C46.2309 214.784 45.8481 215.281 45.5256 215.816C45.4876 215.878 45.4476 215.939 45.4126 216.003C45.2531 216.282 45.1108 216.57 44.9866 216.866L44.9826 216.876C44.8648 217.165 44.7643 217.459 44.6816 217.759C44.6596 217.836 44.6416 217.913 44.6216 217.99C44.5616 218.228 44.5136 218.47 44.4756 218.716C44.4626 218.801 44.4476 218.885 44.4366 218.97C44.3976 219.288 44.3726 219.61 44.3726 219.938V294.332C44.3724 295.736 44.742 297.115 45.4442 298.332C46.1463 299.548 47.1563 300.558 48.3726 301.259L112.8 338.453ZM60.3726 233.792L108.8 261.751V317.669L60.3726 289.711V233.792ZM75.2436 215.969L123.671 243.928L116.799 247.895L68.3716 219.936L75.2436 215.969ZM93.9276 205.182L142.355 233.141L139.672 234.69L91.2446 206.731L93.9276 205.182ZM147.671 248.548L150.355 246.998V257.818L147.671 259.367V248.548ZM124.8 317.669V261.751L131.671 257.785V273.223C131.67 274.273 131.877 275.314 132.279 276.284C132.681 277.255 133.27 278.137 134.013 278.88C134.756 279.623 135.638 280.212 136.609 280.614C137.58 281.016 138.62 281.223 139.671 281.223C141.075 281.223 142.454 280.853 143.671 280.151L162.355 269.366C164.83 267.936 166.355 265.295 166.355 262.436V237.76L173.226 233.793V289.711L124.8 317.669ZM116.8 191.977L165.226 219.936L158.355 223.903L109.929 195.944L116.8 191.977ZM206.353 324.566C207.293 325.609 207.943 326.881 208.237 328.254C208.53 329.627 208.457 331.053 208.025 332.389L199.35 359.188C198.695 361.205 197.266 362.881 195.377 363.846C193.488 364.811 191.293 364.987 189.275 364.335C187.428 363.736 185.862 362.488 184.868 360.821C183.874 359.154 183.519 357.183 183.87 355.275C164.164 368.779 140.834 376.006 116.945 376.005C106.509 376.003 96.1191 374.63 86.0406 371.924C64.1446 366.057 44.5096 354.162 29.2596 337.526C14.4353 321.363 4.35874 301.424 0.1396 279.902C-0.25333 277.827 0.190894 275.68 1.37531 273.93C2.55973 272.18 4.38816 270.97 6.4615 270.564C8.53485 270.158 10.6847 270.588 12.4419 271.761C14.1991 272.934 15.4209 274.755 15.8406 276.826C23.4576 315.707 51.9436 346.224 90.1816 356.47C118.581 364.077 148.219 359.185 172.238 343.788C170.52 343.651 168.892 342.963 167.596 341.827C166.301 340.691 165.406 339.167 165.047 337.482C164.603 335.407 165.002 333.241 166.156 331.46C167.309 329.68 169.123 328.43 171.198 327.987L198.743 322.1C200.116 321.808 201.542 321.882 202.878 322.315C204.213 322.748 205.412 323.524 206.353 324.566ZM233.459 234.36C233.852 236.436 233.407 238.583 232.223 240.333C231.038 242.083 229.21 243.293 227.137 243.699C225.063 244.105 222.913 243.675 221.156 242.502C219.399 241.329 218.177 239.508 217.758 237.437C210.141 198.557 181.655 168.04 143.418 157.794C115.035 150.188 85.3896 155.082 61.3666 170.476C63.2811 170.631 65.0761 171.469 66.4241 172.837C67.772 174.205 68.5828 176.012 68.7085 177.929C68.8341 179.846 68.2663 181.743 67.1086 183.276C65.9508 184.808 64.2805 185.873 62.4026 186.276L34.8566 192.162C33.4833 192.456 32.0568 192.383 30.7206 191.951C29.3845 191.519 28.1857 190.742 27.2448 189.699C26.3039 188.657 25.6542 187.385 25.3608 186.011C25.0674 184.638 25.1408 183.212 25.5736 181.875L34.2486 155.077C34.8759 153.146 36.2138 151.526 37.9912 150.545C39.7687 149.564 41.8527 149.295 43.821 149.793C45.7893 150.291 47.4946 151.519 48.5914 153.227C49.6881 154.936 50.0943 156.998 49.7276 158.994C77.9966 139.635 113.558 133.228 147.559 142.339C169.455 148.206 189.089 160.101 204.339 176.739C219.163 192.901 229.239 212.84 233.459 234.36ZM483.455 404.81C482.779 403.639 482.429 402.428 482.414 401.217C482.309 391.858 480.079 383.723 475.397 375.615L436.507 308.257C433.208 302.544 427.865 298.452 421.463 296.737C415.061 295.023 408.387 295.894 402.672 299.194C400.372 300.524 398.304 302.218 396.549 304.212C394.152 302.553 391.486 301.321 388.67 300.572C382.167 298.829 375.386 299.715 369.58 303.066C365.905 305.187 362.892 308.2 360.738 311.732C352.929 307.912 343.403 307.899 335.397 312.521C332.272 314.326 329.546 316.748 327.387 319.639L301.523 274.841C297.986 268.715 292.255 264.326 285.385 262.486C278.515 260.646 271.357 261.579 265.228 265.117C252.54 272.443 248.176 288.723 255.502 301.411L295.684 371.009C276.705 382.781 271.119 404.007 282.169 423.146C282.287 423.35 282.414 423.549 282.55 423.743L301.326 450.484C309.39 461.969 322.655 468.33 338.679 468.393L360.489 468.478C363.252 468.489 365.44 469.758 366.821 472.15L378.284 492.003C378.448 492.286 378.633 492.552 378.828 492.811C378.888 492.891 378.951 492.968 379.014 493.046C379.158 493.222 379.308 493.39 379.466 493.553C379.538 493.628 379.608 493.705 379.682 493.776C379.898 493.983 380.124 494.181 380.362 494.362C380.431 494.415 380.505 494.459 380.576 494.509C380.849 494.709 381.137 494.887 381.437 495.044C381.629 495.147 381.826 495.241 382.027 495.329C382.112 495.366 382.196 495.406 382.283 495.44C382.563 495.55 382.848 495.65 383.142 495.729L383.163 495.733C383.376 495.79 383.595 495.823 383.812 495.862C383.936 495.884 384.057 495.919 384.181 495.935C385.564 496.117 386.971 495.931 388.261 495.397C388.586 495.263 388.905 495.108 389.213 494.93L491.99 435.592C492.899 435.067 493.697 434.368 494.336 433.535C494.976 432.701 495.445 431.75 495.717 430.735C495.989 429.721 496.058 428.662 495.921 427.621C495.783 426.579 495.442 425.575 494.917 424.665L483.455 404.81ZM388.141 477.074L384.678 471.077L473.599 419.738L477.061 425.736L388.141 477.074ZM360.553 452.478L338.742 452.393C331.182 452.363 320.827 450.413 314.422 441.29L295.86 414.854C289.42 403.423 292.42 392.081 303.689 384.875L319.482 412.228C320.007 413.137 320.706 413.935 321.539 414.575C322.373 415.214 323.324 415.684 324.339 415.956C325.354 416.227 326.412 416.297 327.454 416.159C328.496 416.022 329.5 415.681 330.41 415.156C332.247 414.095 333.588 412.347 334.137 410.298C334.686 408.248 334.398 406.065 333.338 404.228L269.359 293.413C266.445 288.366 268.181 281.888 273.229 278.974C275.656 277.572 278.5 277.204 281.245 277.941C283.986 278.675 286.266 280.417 287.668 282.842L323.924 345.639C324.911 347.349 326.496 348.633 328.374 349.245C330.251 349.856 332.288 349.751 334.093 348.951C335.898 348.151 337.343 346.712 338.151 344.91C338.959 343.108 339.071 341.071 338.468 339.191C336.904 334.32 338.977 328.932 343.399 326.379C348.51 323.43 355.149 325.138 358.196 330.193C359.122 331.728 360.538 332.908 362.215 333.542C363.893 334.177 365.735 334.23 367.445 333.692C369.156 333.154 370.637 332.057 371.65 330.577C372.662 329.097 373.148 327.319 373.03 325.53C372.797 322.033 374.583 318.655 377.581 316.924C378.622 316.323 379.773 315.934 380.966 315.78C382.159 315.626 383.37 315.711 384.531 316.029C386.908 316.666 388.885 318.174 390.099 320.276L391.492 322.69C392.331 324.145 393.606 325.299 395.138 325.988C396.67 326.677 398.38 326.865 400.026 326.527C401.671 326.191 403.168 325.344 404.306 324.109C405.444 322.873 406.163 321.311 406.364 319.643C406.7 316.841 408.271 314.439 410.674 313.052C412.688 311.89 415.047 311.584 417.325 312.194C419.598 312.802 421.49 314.246 422.652 316.258L461.543 383.616C464.839 389.325 466.343 394.808 466.417 401.402C466.432 402.67 466.567 403.936 466.797 405.191L375.472 457.919C371.373 454.46 366.162 452.5 360.553 452.478Z" fill="url(#paint0_linear_982_26)"/>
<defs>
<linearGradient id="paint0_linear_982_26" x1="17.6968" y1="31.969" x2="490.147" y2="574.166" gradientUnits="userSpaceOnUse">
<stop stop-color="#1BA2D7"/>
<stop offset="1" stop-color="#8D3DFA"/>
</linearGradient>
</defs>
</svg>
