<svg width="496" height="496" viewBox="0 0 496 496" fill="none" xmlns="http://www.w3.org/2000/svg">
<path d="M80 168C110.88 168 136 142.88 136 112C136 81.12 110.88 56 80 56C49.12 56 24 81.12 24 112C24 142.88 49.12 168 80 168ZM80 72C102.08 72 120 89.92 120 112C120 134.08 102.08 152 80 152C57.92 152 40 134.08 40 112C40 89.92 57.92 72 80 72Z" fill="url(#paint0_linear_822_6)"/>
<path d="M144 352C148.4 352 152 348.4 152 344V299.6L208 256.08V408.08C208 412.48 211.6 416.08 216 416.08H456C460.4 416.08 464 412.48 464 408.08V8C464 3.6 460.4 0 456 0H216C211.6 0 208 3.6 208 8V194.72L152 234.72V232C152 201.12 126.88 176 96 176H64C33.12 176 8 201.12 8 232V344C8 348.4 11.6 352 16 352V480H0V496H496V480H144V352ZM224 16H448V400H224V243.6L238.64 232.16C238.64 232.16 238.72 232 238.8 232H383.92V216H247.68C247.68 215.52 247.92 215.12 247.92 214.64C248.118 211.225 247.593 207.807 246.38 204.609C245.167 201.411 243.293 198.505 240.88 196.08C236.24 191.44 230.16 189.12 223.92 189.04V16H224ZM151.04 255.04L219.12 206.4C222.4 204.08 226.8 204.4 229.6 207.28C231.28 208.96 232.16 211.2 232 213.6C231.84 216 230.72 218.08 228.88 219.52L146.08 283.92L102.64 254.96C99.84 253.04 98 250 97.68 246.64C97.36 243.28 98.56 239.92 100.96 237.52C102.855 235.605 105.373 234.43 108.058 234.21C110.743 233.99 113.419 234.739 115.6 236.32L141.84 255.04C144.64 257.04 148.32 257.04 151.12 255.04H151.04ZM65.92 480L80 414.16L94.08 480H65.84H65.92ZM128 480H110.48L87.84 374.32C87.04 370.64 83.76 368 80 368C76.24 368 72.96 370.64 72.16 374.32L49.52 480H32V352H128V480ZM136 336H24V232C24 209.92 41.92 192 64 192H96C117.84 192 135.52 209.52 135.92 231.28L124.8 223.28C119.548 219.497 113.12 217.71 106.67 218.238C100.219 218.765 94.1672 221.574 89.6 226.16C83.76 232 80.88 240 81.76 248.16C82.64 256.32 86.96 263.68 93.84 268.24L136.16 296.4V335.92L136 336Z" fill="url(#paint1_linear_822_6)"/>
<path d="M261.68 96.0001H262C263.216 95.9509 264.404 95.6222 265.472 95.0395C266.541 94.4568 267.46 93.6358 268.16 92.6401L302.48 44.6401L289.44 35.3601L261.12 75.0401L254.08 66.8001L241.92 77.2001L255.6 93.2001C257.12 94.9601 259.36 96.0001 261.68 96.0001ZM296 80.0001H328V96.0001H296V80.0001ZM344 80.0001H432V96.0001H344V80.0001ZM400 112H432V128H400V112ZM240 112H384V128H240V112ZM261.68 312H262C263.216 311.951 264.404 311.622 265.472 311.039C266.541 310.457 267.46 309.636 268.16 308.64L302.48 260.64L289.44 251.36L261.12 291.04L254.08 282.8L241.92 293.2L255.6 309.2C257.12 310.96 259.36 312 261.68 312ZM296 296H328V312H296V296ZM344 296H432V312H344V296ZM400 328H432V344H400V328ZM240 328H384V344H240V328ZM296 184H328V200H296V184ZM344 184H432V200H344V184ZM400 216H432V232H400V216ZM275.28 144.4L264 155.68L252.72 144.4L241.36 155.68L252.72 167.04L241.36 178.32L252.72 189.68L264 178.32L275.28 189.68L286.64 178.32L275.28 167.04L286.64 155.68L275.28 144.4Z" fill="url(#paint2_linear_822_6)"/>
<defs>
<linearGradient id="paint0_linear_822_6" x1="80" y1="56" x2="80" y2="168" gradientUnits="userSpaceOnUse">
<stop stop-color="#1BA2D7"/>
<stop offset="1" stop-color="#8D3DFA"/>
</linearGradient>
<linearGradient id="paint1_linear_822_6" x1="248" y1="0" x2="248" y2="496" gradientUnits="userSpaceOnUse">
<stop stop-color="#1BA2D7"/>
<stop offset="1" stop-color="#8D3DFA"/>
</linearGradient>
<linearGradient id="paint2_linear_822_6" x1="336" y1="35.3601" x2="336" y2="344" gradientUnits="userSpaceOnUse">
<stop stop-color="#1BA2D7"/>
<stop offset="1" stop-color="#8D3DFA"/>
</linearGradient>
</defs>
</svg>
