<svg xmlns="http://www.w3.org/2000/svg" version="1.1" xmlns:xlink="http://www.w3.org/1999/xlink" width="512" height="512" x="0" y="0" viewBox="0 0 512 512" style="enable-background:new 0 0 512 512" xml:space="preserve"><g><path fill="#eff6ff" d="m256 335.296 20.307 45.427L256 473.509l-72-137.734c3.65-.319 7.35-.479 11.08-.479z" opacity="1" data-original="#eff6ff"></path><path fill="#daebff" d="m328 335.775-72 137.734V335.296h60.92c3.73 0 7.43.16 11.08.479z" opacity="1" data-original="#daebff"></path><path fill="#80d4ff" d="m256 441.466 37.26 27.746L256 512H83c-8.28 0-15-6.708-15-14.973v-34.878c0-66.222 51.1-120.754 116-126.374z" opacity="1" data-original="#80d4ff"></path><path fill="#66b3ff" d="M444 462.149v34.878c0 8.265-6.72 14.973-15 14.973H256v-70.534l72-105.691c64.9 5.62 116 60.153 116 126.374z" opacity="1" data-original="#66b3ff"></path><path fill="#5f55b3" d="m445 195.955-.33 47.365c0 32.083-26.21 58.246-58.43 58.246h-28.75c5.6-9.233 9.97-19.285 12.88-29.946h15.87c15.68 0 28.43-12.727 28.43-28.389l.29-47.755c.05-8.275 6.84-14.963 15.09-14.883 8.29.05 15 7.097 14.95 15.362zM158.7 163.374v63.377c0 8.265-6.72 14.973-15 14.973h-30.86c-25.27 0-45.84-20.533-45.84-45.768v-1.797c0-25.235 20.57-45.758 45.84-45.758h30.86c8.28-.001 15 6.697 15 14.973z" opacity="1" data-original="#5f55b3"></path><path fill="#453d86" d="M353.3 163.374v63.377c0 8.265 6.72 14.973 15 14.973h30.86c25.27 0 45.84-20.533 45.84-45.768v-1.797c0-25.235-20.57-45.758-45.84-45.758H368.3c-8.28-.001-15 6.697-15 14.973z" opacity="1" data-original="#453d86"></path><path fill="#ffd9b3" d="m256 121.559 59.87 105.935L256 358.764c-65.5 0-118.59-53.075-118.59-118.558v-48.553c0-74.449 49.69-70.044 49.69-70.044z" opacity="1" data-original="#ffd9b3"></path><path fill="#ffbb99" d="M374.59 133.906v106.3c0 10.881-1.46 21.412-4.22 31.414l-24.64 14.973 11.76 14.973c-20.77 34.289-58.45 57.198-101.49 57.198V121.559z" opacity="1" data-original="#ffbb99"></path><path fill="#b95d4c" d="m256 25.58 54.423 53.638L256 141.972h-68.9c-27.45 0-49.69 22.24-49.69 49.681V99.398c0-40.757 33.05-73.818 73.82-73.818z" opacity="1" data-original="#b95d4c"></path><path fill="#5f55b3" d="M370.37 271.62a117.264 117.264 0 0 1-12.88 29.946h-81.12c-8.29 0-15-6.698-15-14.973 0-8.265 6.71-14.973 15-14.973z" opacity="1" data-original="#5f55b3"></path><path fill="#873f2e" d="M397.15 15.368V92.29c0 17.429-8.98 32.761-22.56 41.616a49.402 49.402 0 0 1-27.13 8.066H256V25.58h79.55c11.83 0 24.02-8.066 34.61-20.254 9.33-10.731 26.99-4.162 26.99 10.042z" opacity="1" data-original="#873f2e"></path></g></svg>
