<svg width="474" height="440" viewBox="0 0 474 440" fill="none" xmlns="http://www.w3.org/2000/svg">
<path d="M356.641 439.76H116.641C98.9606 439.76 84.6406 425.36 84.6406 407.76V290C84.6406 285.6 88.2406 282 92.6406 282C97.0406 282 100.641 285.6 100.641 290V407.68C100.641 411.923 102.326 415.993 105.327 418.994C108.328 421.994 112.397 423.68 116.641 423.68H356.641C360.884 423.68 364.954 421.994 367.954 418.994C370.955 415.993 372.641 411.923 372.641 407.68V290C372.641 285.6 376.241 282 380.641 282C385.041 282 388.641 285.6 388.641 290V407.68C388.65 411.889 387.829 416.058 386.226 419.949C384.622 423.84 382.266 427.377 379.294 430.357C376.322 433.337 372.791 435.701 368.904 437.314C365.017 438.928 360.849 439.759 356.641 439.76ZM380.721 130.88C376.321 130.88 372.721 127.28 372.721 122.88V32C372.721 27.7565 371.035 23.6869 368.034 20.6863C365.034 17.6857 360.964 16 356.721 16H116.641C112.397 16 108.328 17.6857 105.327 20.6863C102.326 23.6869 100.641 27.7565 100.641 32V122.88C100.641 127.28 97.0406 130.88 92.6406 130.88C88.2406 130.88 84.6406 127.28 84.6406 122.88V32C84.6406 14.32 99.0406 0 116.641 0H356.641C374.321 0 388.641 14.4 388.641 32V122.88C388.721 127.28 385.121 130.88 380.721 130.88Z" fill="url(#paint0_linear_792_116)"/>
<path d="M380.721 395.12H92.5605C88.1605 395.12 84.5605 391.52 84.5605 387.12C84.5605 382.72 88.1605 379.12 92.5605 379.12H380.721C385.121 379.12 388.721 382.72 388.721 387.12C388.721 391.52 385.121 395.12 380.721 395.12ZM293.361 298H179.921C158.481 298 141.041 280.56 141.041 259.12V145.6C141.041 124.16 158.481 106.72 179.921 106.72H293.441C314.881 106.72 332.321 124.16 332.321 145.6V259.12C332.278 269.432 328.157 279.309 320.858 286.594C313.558 293.878 303.673 297.979 293.361 298ZM179.921 122.8C173.852 122.8 168.033 125.211 163.742 129.501C159.451 133.792 157.041 139.612 157.041 145.68V259.2C157.041 265.268 159.451 271.088 163.742 275.379C168.033 279.669 173.852 282.08 179.921 282.08H293.441C299.509 282.08 305.328 279.669 309.619 275.379C313.91 271.088 316.321 265.268 316.321 259.2V145.6C316.321 139.532 313.91 133.712 309.619 129.421C305.328 125.131 299.509 122.72 293.441 122.72H179.921V122.8Z" fill="url(#paint1_linear_792_116)"/>
<path d="M274.08 247.84H199.2C194.8 247.84 191.2 244.24 191.2 239.84V164.96C191.2 160.56 194.8 156.96 199.2 156.96H274.08C278.48 156.96 282.08 160.56 282.08 164.96V239.84C282.08 244.24 278.48 247.84 274.08 247.84ZM207.2 231.84H266.08V172.96H207.2V231.84ZM149.04 168.08H59.5201C58.4037 168.077 57.3003 167.841 56.2807 167.386C55.2611 166.932 54.348 166.269 53.6001 165.44L32.8801 142.48C31.4585 140.91 30.7189 138.839 30.8239 136.724C30.9289 134.609 31.87 132.622 33.4401 131.2C35.0102 129.778 37.0806 129.039 39.1961 129.144C41.3115 129.249 43.2985 130.19 44.7201 131.76L63.1201 152.08H149.04C153.44 152.08 157.04 155.68 157.04 160.08C157.04 164.48 153.44 168.08 149.04 168.08ZM34.8001 229.12C20.0801 229.12 8.08008 217.12 8.08008 202.4C8.08008 187.68 20.0801 175.68 34.8001 175.68C49.5201 175.68 61.5201 187.68 61.5201 202.4C61.5201 217.12 49.5201 229.12 34.8001 229.12ZM34.8001 191.68C33.3923 191.68 31.9983 191.957 30.6977 192.496C29.3971 193.035 28.2153 193.824 27.2199 194.82C26.2244 195.815 25.4348 196.997 24.8961 198.298C24.3574 199.598 24.0801 200.992 24.0801 202.4C24.0801 203.808 24.3574 205.202 24.8961 206.502C25.4348 207.803 26.2244 208.985 27.2199 209.98C28.2153 210.976 29.3971 211.765 30.6977 212.304C31.9983 212.843 33.3923 213.12 34.8001 213.12C37.6432 213.12 40.3699 211.991 42.3803 209.98C44.3907 207.97 45.5201 205.243 45.5201 202.4C45.5201 199.557 44.3907 196.83 42.3803 194.82C40.3699 192.809 37.6432 191.68 34.8001 191.68Z" fill="url(#paint2_linear_792_116)"/>
<path d="M26.72 149.6C12 149.6 0 137.6 0 122.88C0 108.16 12 96.1599 26.72 96.1599C41.44 96.1599 53.44 108.16 53.44 122.88C53.44 137.6 41.44 149.6 26.72 149.6ZM26.72 112.16C25.3122 112.16 23.9182 112.437 22.6176 112.976C21.317 113.515 20.1353 114.304 19.1398 115.3C18.1444 116.295 17.3547 117.477 16.816 118.778C16.2773 120.078 16 121.472 16 122.88C16 124.288 16.2773 125.682 16.816 126.982C17.3547 128.283 18.1444 129.465 19.1398 130.46C20.1353 131.456 21.317 132.245 22.6176 132.784C23.9182 133.323 25.3122 133.6 26.72 133.6C29.5631 133.6 32.2898 132.47 34.3002 130.46C36.3106 128.45 37.44 125.723 37.44 122.88C37.44 120.037 36.3106 117.31 34.3002 115.3C32.2898 113.289 29.5631 112.16 26.72 112.16ZM149.04 210.4H53.52C49.12 210.4 45.52 206.8 45.52 202.4C45.52 198 49.12 194.4 53.52 194.4H149.04C153.44 194.4 157.04 198 157.04 202.4C157.04 206.8 153.44 210.4 149.04 210.4ZM38.8 275.6C36.8114 275.627 34.89 274.881 33.44 273.52C30.16 270.56 29.92 265.52 32.88 262.24L53.6 239.28C54.348 238.451 55.2611 237.788 56.2806 237.333C57.3002 236.879 58.4036 236.643 59.52 236.64H149.04C153.44 236.64 157.04 240.24 157.04 244.64C157.04 249.04 153.44 252.64 149.04 252.64H63.12L44.72 272.96C43.12 274.72 40.96 275.6 38.8 275.6Z" fill="url(#paint3_linear_792_116)"/>
<path d="M26.72 308.64C12 308.64 0 296.64 0 281.92C0 267.2 12 255.2 26.72 255.2C41.44 255.2 53.44 267.2 53.44 281.92C53.44 296.64 41.44 308.64 26.72 308.64ZM26.72 271.2C23.8769 271.2 21.1502 272.329 19.1398 274.34C17.1294 276.35 16 279.077 16 281.92C16 284.763 17.1294 287.49 19.1398 289.5C21.1502 291.511 23.8769 292.64 26.72 292.64C29.5631 292.64 32.2898 291.511 34.3002 289.5C36.3106 287.49 37.44 284.763 37.44 281.92C37.44 279.077 36.3106 276.35 34.3002 274.34C32.2898 272.329 29.5631 271.2 26.72 271.2ZM413.76 168.08H324.24C319.84 168.08 316.24 164.48 316.24 160.08C316.24 155.68 319.84 152.08 324.24 152.08H410.16L428.56 131.76C429.264 130.983 430.114 130.351 431.062 129.903C432.01 129.454 433.037 129.196 434.084 129.144C435.131 129.092 436.179 129.247 437.167 129.599C438.154 129.952 439.063 130.496 439.84 131.2C440.617 131.904 441.249 132.754 441.698 133.702C442.146 134.65 442.404 135.677 442.456 136.724C442.508 137.771 442.353 138.819 442.001 139.807C441.648 140.794 441.104 141.703 440.4 142.48L419.68 165.44C418.932 166.269 418.019 166.932 416.999 167.386C415.98 167.841 414.876 168.077 413.76 168.08ZM438.48 229.12C423.76 229.12 411.76 217.12 411.76 202.4C411.76 187.68 423.76 175.68 438.48 175.68C453.2 175.68 465.2 187.68 465.2 202.4C465.2 217.12 453.2 229.12 438.48 229.12ZM438.48 191.68C437.072 191.68 435.678 191.957 434.378 192.496C433.077 193.035 431.895 193.824 430.9 194.82C429.904 195.815 429.115 196.997 428.576 198.298C428.037 199.598 427.76 200.992 427.76 202.4C427.76 203.808 428.037 205.202 428.576 206.502C429.115 207.803 429.904 208.985 430.9 209.98C431.895 210.976 433.077 211.765 434.378 212.304C435.678 212.843 437.072 213.12 438.48 213.12C441.323 213.12 444.05 211.991 446.06 209.98C448.071 207.97 449.2 205.243 449.2 202.4C449.2 199.557 448.071 196.83 446.06 194.82C444.05 192.809 441.323 191.68 438.48 191.68Z" fill="url(#paint4_linear_792_116)"/>
<path d="M446.56 149.6C431.84 149.6 419.84 137.6 419.84 122.88C419.84 108.16 431.84 96.1599 446.56 96.1599C461.28 96.1599 473.28 108.16 473.28 122.88C473.28 137.6 461.28 149.6 446.56 149.6ZM446.56 112.16C445.152 112.16 443.758 112.437 442.458 112.976C441.157 113.515 439.975 114.304 438.98 115.3C437.985 116.295 437.195 117.477 436.656 118.778C436.118 120.078 435.84 121.472 435.84 122.88C435.84 124.288 436.118 125.682 436.656 126.982C437.195 128.283 437.985 129.465 438.98 130.46C439.975 131.456 441.157 132.245 442.458 132.784C443.758 133.323 445.152 133.6 446.56 133.6C449.403 133.6 452.13 132.47 454.14 130.46C456.151 128.45 457.28 125.723 457.28 122.88C457.28 120.037 456.151 117.31 454.14 115.3C452.13 113.289 449.403 112.16 446.56 112.16ZM419.76 210.4H324.24C319.84 210.4 316.24 206.8 316.24 202.4C316.24 198 319.84 194.4 324.24 194.4H419.76C424.16 194.4 427.76 198 427.76 202.4C427.76 206.8 424.16 210.4 419.76 210.4ZM434.48 275.6C432.32 275.6 430.16 274.72 428.56 272.96L410.16 252.64H324.24C319.84 252.64 316.24 249.04 316.24 244.64C316.24 240.24 319.84 236.64 324.24 236.64H413.76C414.877 236.643 415.98 236.879 417 237.333C418.019 237.788 418.932 238.451 419.68 239.28L440.4 262.24C443.36 265.52 443.12 270.56 439.84 273.52C438.39 274.881 436.469 275.627 434.48 275.6Z" fill="url(#paint5_linear_792_116)"/>
<path d="M446.561 308.64C431.841 308.64 419.841 296.64 419.841 281.92C419.841 267.2 431.841 255.2 446.561 255.2C461.281 255.2 473.281 267.2 473.281 281.92C473.281 296.64 461.281 308.64 446.561 308.64ZM446.561 271.2C443.717 271.2 440.991 272.329 438.98 274.34C436.97 276.35 435.841 279.077 435.841 281.92C435.841 284.763 436.97 287.49 438.98 289.5C440.991 291.51 443.717 292.64 446.561 292.64C449.404 292.64 452.13 291.51 454.141 289.5C456.151 287.49 457.281 284.763 457.281 281.92C457.281 279.077 456.151 276.35 454.141 274.34C452.13 272.329 449.404 271.2 446.561 271.2ZM380.721 62.8799H92.5605C88.1605 62.8799 84.5605 59.2799 84.5605 54.8799C84.5605 50.4799 88.1605 46.8799 92.5605 46.8799H380.721C385.121 46.8799 388.721 50.4799 388.721 54.8799C388.721 59.2799 385.121 62.8799 380.721 62.8799Z" fill="url(#paint6_linear_792_116)"/>
<defs>
<linearGradient id="paint0_linear_792_116" x1="95.4873" y1="28.344" x2="507.262" y2="355.031" gradientUnits="userSpaceOnUse">
<stop stop-color="#1BA2D7"/>
<stop offset="1" stop-color="#8D3DFA"/>
</linearGradient>
<linearGradient id="paint1_linear_792_116" x1="95.4129" y1="125.308" x2="367.748" y2="454.935" gradientUnits="userSpaceOnUse">
<stop stop-color="#1BA2D7"/>
<stop offset="1" stop-color="#8D3DFA"/>
</linearGradient>
<linearGradient id="paint2_linear_792_116" x1="17.8563" y1="136.785" x2="93.2843" y2="336.598" gradientUnits="userSpaceOnUse">
<stop stop-color="#1BA2D7"/>
<stop offset="1" stop-color="#8D3DFA"/>
</linearGradient>
<linearGradient id="paint3_linear_792_116" x1="5.60315" y1="107.725" x2="178.145" y2="281.024" gradientUnits="userSpaceOnUse">
<stop stop-color="#1BA2D7"/>
<stop offset="1" stop-color="#8D3DFA"/>
</linearGradient>
<linearGradient id="paint4_linear_792_116" x1="16.5982" y1="140.704" x2="120.878" y2="450.854" gradientUnits="userSpaceOnUse">
<stop stop-color="#1BA2D7"/>
<stop offset="1" stop-color="#8D3DFA"/>
</linearGradient>
<linearGradient id="paint5_linear_792_116" x1="321.843" y1="107.725" x2="494.385" y2="281.024" gradientUnits="userSpaceOnUse">
<stop stop-color="#1BA2D7"/>
<stop offset="1" stop-color="#8D3DFA"/>
</linearGradient>
<linearGradient id="paint6_linear_792_116" x1="98.43" y1="63.7512" x2="318.153" y2="438.225" gradientUnits="userSpaceOnUse">
<stop stop-color="#1BA2D7"/>
<stop offset="1" stop-color="#8D3DFA"/>
</linearGradient>
</defs>
</svg>
