<svg width="497" height="447" viewBox="0 0 497 447" fill="none" xmlns="http://www.w3.org/2000/svg">
<path d="M490.261 216.715C491.063 215.151 491.956 213.409 492.948 211.447C498.621 200.224 496.272 186.902 487.103 178.298C485.665 176.951 484.223 175.607 482.778 174.268C477.746 169.6 475.22 167.256 473.989 165.124C472.759 162.992 471.992 159.633 470.465 152.941C470.074 151.228 469.639 149.32 469.138 147.18C466.27 134.936 455.908 126.242 443.352 125.543C441.158 125.421 439.204 125.324 437.449 125.236C430.594 124.894 427.152 124.723 424.839 123.881C422.526 123.039 419.779 120.959 414.308 116.813C412.908 115.752 411.348 114.57 409.588 113.253C399.523 105.718 385.995 105.718 375.928 113.253C374.168 114.57 372.609 115.752 371.208 116.813C365.736 120.959 362.99 123.039 360.677 123.881C358.364 124.723 354.922 124.894 348.067 125.236C346.312 125.323 344.358 125.421 342.164 125.543C329.608 126.241 319.246 134.936 316.378 147.18C315.877 149.32 315.441 151.228 315.051 152.941C313.525 159.633 312.758 162.992 311.528 165.124C310.297 167.256 307.771 169.6 302.738 174.268C301.45 175.463 300.015 176.794 298.413 178.298C289.244 186.902 286.895 200.224 292.568 211.448C293.559 213.408 294.452 215.149 295.254 216.713C298.387 222.821 299.959 225.887 300.387 228.312C300.814 230.736 300.385 234.155 299.532 240.965C299.313 242.709 299.069 244.651 298.808 246.834C297.316 259.319 304.079 271.034 315.638 275.985C317.572 276.813 319.302 277.542 320.867 278.202L295.782 332.084C295.165 333.41 294.923 334.879 295.082 336.332C295.241 337.786 295.796 339.167 296.686 340.328C297.575 341.488 298.766 342.383 300.128 342.914C301.49 343.445 302.972 343.593 304.412 343.341L331.757 338.564L345.703 362.564C346.437 363.828 347.504 364.867 348.788 365.567C350.071 366.268 351.522 366.603 352.983 366.537C354.443 366.471 355.858 366.005 357.073 365.191C358.287 364.378 359.256 363.247 359.873 361.921L385.257 307.397C388.787 306.351 390.992 305.824 392.76 305.824C395.222 305.824 398.514 306.84 405.073 308.864L406.789 309.393L424.907 351.459C425.485 352.802 426.42 353.961 427.611 354.81C428.802 355.659 430.202 356.166 431.661 356.274C433.119 356.383 434.579 356.089 435.883 355.426C437.186 354.763 438.282 353.755 439.053 352.512L453.689 328.926L480.881 334.496C482.313 334.789 483.798 334.684 485.175 334.192C486.552 333.701 487.768 332.841 488.691 331.707C489.613 330.573 490.208 329.208 490.41 327.76C490.611 326.313 490.413 324.837 489.835 323.494L469.452 276.17L469.883 275.986C481.442 271.035 488.205 259.32 486.713 246.835C486.478 244.879 486.237 242.924 485.99 240.97C485.136 234.158 484.707 230.739 485.135 228.315C485.557 225.888 487.129 222.822 490.261 216.715ZM351.832 341.272L342.785 325.703C341.962 324.289 340.727 323.161 339.244 322.471C337.761 321.781 336.102 321.561 334.491 321.842L316.753 324.941L334.72 286.349C336.047 288.087 337.639 290.553 339.943 294.12C340.896 295.597 341.958 297.24 343.161 299.079C348.287 306.918 356.649 311.478 365.556 311.795L351.832 341.272ZM451.433 312.13C449.83 311.802 448.166 311.973 446.663 312.62C445.161 313.267 443.893 314.359 443.03 315.749L433.536 331.05L424.966 311.153C431.929 309.615 438.203 305.426 442.353 299.079C443.431 297.429 444.504 295.776 445.571 294.119C449.295 288.353 451.164 285.459 453.05 283.876C453.605 283.421 454.199 283.014 454.824 282.66L469.074 315.743L451.433 312.13ZM478.668 204.23C477.691 206.161 476.813 207.875 476.023 209.415C468.271 224.533 467.995 226.1 470.109 242.959C470.325 244.675 470.564 246.585 470.821 248.732C471.473 254.189 468.631 259.113 463.579 261.276C461.591 262.128 459.815 262.876 458.222 263.547C442.565 270.145 441.346 271.168 432.13 285.44C431.079 287.071 430.023 288.699 428.962 290.323C425.954 294.924 420.608 296.866 415.351 295.278C413.495 294.716 411.641 294.148 409.788 293.574C401.67 291.069 397.214 289.817 392.757 289.817C388.3 289.817 383.844 291.069 375.726 293.574C374.074 294.084 372.233 294.652 370.163 295.278C364.905 296.865 359.559 294.923 356.552 290.323C355.367 288.512 354.323 286.894 353.385 285.441C344.169 271.169 342.949 270.146 327.294 263.548C325.699 262.876 323.924 262.128 321.935 261.277C316.883 259.113 314.04 254.189 314.693 248.733C314.95 246.585 315.19 244.673 315.405 242.956C317.519 226.099 317.243 224.531 309.49 209.412C308.701 207.873 307.822 206.16 306.846 204.23C304.367 199.325 305.354 193.726 309.361 189.965C310.776 188.638 312.195 187.316 313.619 185.998C326.075 174.442 326.871 173.064 330.649 156.499C331.034 154.812 331.462 152.935 331.956 150.829C333.21 145.478 337.565 141.823 343.053 141.518C345.213 141.397 347.136 141.302 348.864 141.216C365.833 140.371 367.329 139.826 380.871 129.567C382.25 128.523 383.785 127.359 385.517 126.063C389.917 122.769 395.603 122.771 400.001 126.063C401.553 127.226 403.102 128.394 404.647 129.567C418.189 139.827 419.685 140.371 436.654 141.216C438.382 141.302 440.304 141.398 442.465 141.518C447.952 141.823 452.308 145.477 453.562 150.829C454.055 152.935 454.484 154.813 454.869 156.499C458.648 173.063 459.444 174.441 471.899 185.997C473.323 187.314 474.742 188.637 476.157 189.964C480.161 193.725 481.148 199.324 478.668 204.23ZM392.756 145.492C357.347 145.492 328.54 174.299 328.54 209.708C328.54 245.117 357.347 273.924 392.756 273.924C428.165 273.924 456.973 245.117 456.973 209.708C456.973 174.299 428.166 145.492 392.756 145.492ZM392.756 257.924C366.17 257.924 344.54 236.294 344.54 209.708C344.54 183.122 366.17 161.492 392.756 161.492C419.343 161.492 440.973 183.121 440.973 209.708C440.973 236.295 419.343 257.924 392.756 257.924ZM392.756 52.448C372.376 52.448 353.177 61.178 338.694 77.031C337.945 77.8527 337.032 78.5088 336.015 78.9572C334.998 79.4056 333.898 79.6365 332.786 79.635C330.789 79.6372 328.864 78.8899 327.392 77.541C326.616 76.8325 325.988 75.9781 325.542 75.0267C325.097 74.0753 324.843 73.0454 324.795 71.9958C324.748 70.9463 324.908 69.8977 325.265 68.91C325.623 67.9222 326.172 67.0146 326.881 66.239C344.433 47.028 367.827 36.448 392.756 36.448C417.684 36.448 441.078 47.028 458.631 66.239C460.062 67.8055 460.812 69.8764 460.716 71.996C460.621 74.1156 459.687 76.1104 458.12 77.5415C456.554 78.9726 454.483 79.7228 452.363 79.6271C450.244 79.5313 448.249 78.5975 446.818 77.031C432.334 61.178 413.135 52.448 392.756 52.448ZM303.844 51.769C302.278 50.3379 301.344 48.3431 301.248 46.2236C301.153 44.1041 301.903 42.0334 303.334 40.467C327.178 14.372 358.935 0 392.756 0C426.577 0 458.334 14.372 482.178 40.467C483.609 42.0335 484.359 44.1044 484.263 46.224C484.168 48.3436 483.234 50.3384 481.667 51.7695C480.101 53.2006 478.03 53.9508 475.91 53.8551C473.791 53.7593 471.796 52.8255 470.365 51.259C449.591 28.522 422.028 16 392.756 16C363.484 16 335.921 28.522 315.147 51.259C313.716 52.8254 311.721 53.7591 309.601 53.8547C307.481 53.9504 305.41 53.2001 303.844 51.769ZM435.084 92.012C436.515 93.5785 437.265 95.6494 437.169 97.769C437.074 99.8886 436.14 101.883 434.573 103.314C433.007 104.746 430.936 105.496 428.816 105.4C426.697 105.304 424.702 104.371 423.271 102.804C415.076 93.835 404.239 88.895 392.756 88.895C381.273 88.895 370.436 93.834 362.241 102.804C361.492 103.626 360.579 104.282 359.562 104.73C358.545 105.179 357.445 105.41 356.333 105.408C354.336 105.41 352.411 104.663 350.939 103.314C350.163 102.606 349.535 101.751 349.089 100.8C348.644 99.8483 348.39 98.8184 348.342 97.7689C348.295 96.7193 348.455 95.6707 348.812 94.683C349.17 93.6952 349.719 92.7876 350.428 92.012C361.691 79.684 376.723 72.895 392.755 72.895C408.788 72.896 423.82 79.685 435.084 92.012ZM220.413 289.675C225.209 285.41 228.666 279.842 230.367 273.499C232.662 264.933 231.484 255.986 227.05 248.306C222.616 240.626 215.457 235.132 206.891 232.837C200.554 231.138 194.005 231.348 187.907 233.371L163.96 191.893C160.198 185.377 153.461 181.461 145.936 181.417H145.811C138.337 181.417 131.609 185.25 127.794 191.687C125.022 196.364 122.271 201.13 119.358 206.176C104.062 232.674 86.7419 262.677 63.4099 283.659L25.3139 305.653C1.12791 319.616 -7.18809 350.653 6.77591 374.84C13.5159 386.515 24.4429 394.878 37.5439 398.388C41.8702 399.552 46.3306 400.144 50.8109 400.148C59.5729 400.148 68.2039 397.859 75.9629 393.379L80.4439 390.792L103.638 430.968C107.828 438.225 114.61 443.421 122.733 445.597C125.412 446.317 128.173 446.683 130.947 446.686C136.389 446.686 141.755 445.262 146.583 442.475L153.687 438.373C155.524 437.312 156.865 435.565 157.414 433.515C157.963 431.466 157.676 429.282 156.615 427.445L122.573 368.482C155.336 358.354 189.254 358.717 223.965 360.144C231.72 360.459 238.736 356.69 242.749 350.057C246.764 343.422 246.845 335.452 242.967 328.737L220.413 289.675ZM213.194 256.306C214.329 258.26 215.065 260.42 215.36 262.66C215.655 264.9 215.503 267.177 214.912 269.358C214.346 271.475 213.379 273.463 212.065 275.216L196.254 247.831C202.879 247.048 209.653 250.173 213.194 256.306ZM41.6829 382.932C32.7109 380.528 25.2349 374.812 20.6309 366.838C11.0779 350.293 16.7679 329.06 33.3129 319.508L65.1959 301.101L99.8429 361.113L79.3729 372.931L79.3709 372.932L79.3689 372.933L67.9619 379.519C59.9889 384.125 50.6579 385.337 41.6829 382.932ZM138.582 428.616C135.025 430.669 130.864 431.21 126.873 430.14C122.878 429.07 119.548 426.522 117.494 422.966L94.2989 382.79L107.844 374.97L138.758 428.516L138.582 428.616ZM114.384 354.298L78.2429 291.697C97.5339 273.076 112.492 249.584 125.652 227.184L192.748 343.397C166.337 343.44 140.267 345.724 114.384 354.298ZM229.057 341.773C228.051 343.434 226.563 344.227 224.619 344.156C220.209 343.972 215.798 343.814 211.387 343.682L134.915 211.228C137.184 207.302 139.373 203.527 141.557 199.842C142.512 198.232 143.942 197.415 145.806 197.415H145.843C147.728 197.426 149.16 198.258 150.103 199.89L177.713 247.712L177.716 247.719C177.717 247.721 177.718 247.722 177.719 247.724L229.109 336.735C230.08 338.417 230.062 340.112 229.057 341.773ZM279.277 287.926C278.727 289.975 277.386 291.722 275.549 292.782C273.712 293.843 271.528 294.131 269.479 293.583L252.301 288.98C250.251 288.431 248.504 287.09 247.443 285.253C246.382 283.415 246.095 281.231 246.644 279.182C247.193 277.133 248.534 275.385 250.371 274.324C252.209 273.263 254.392 272.976 256.442 273.525L273.62 278.128C275.669 278.677 277.416 280.018 278.477 281.856C279.538 283.693 279.826 285.877 279.277 287.926ZM242.893 239.157C242.368 238.247 242.027 237.243 241.89 236.201C241.753 235.16 241.822 234.101 242.094 233.086C242.366 232.072 242.835 231.12 243.475 230.287C244.115 229.454 244.912 228.754 245.822 228.229L261.223 219.337C262.133 218.803 263.14 218.455 264.185 218.312C265.23 218.169 266.294 218.235 267.314 218.504C268.334 218.774 269.29 219.243 270.128 219.884C270.966 220.524 271.669 221.325 272.197 222.238C272.725 223.152 273.066 224.161 273.202 225.207C273.338 226.254 273.266 227.316 272.989 228.335C272.713 229.353 272.238 230.306 271.591 231.14C270.945 231.974 270.14 232.672 269.223 233.193L253.822 242.085C252.912 242.611 251.908 242.952 250.866 243.09C249.824 243.227 248.766 243.158 247.751 242.886C246.736 242.614 245.784 242.145 244.951 241.505C244.117 240.865 243.418 240.067 242.893 239.157ZM205.751 204.406L210.354 187.229C210.626 186.214 211.095 185.263 211.734 184.429C212.374 183.596 213.171 182.897 214.081 182.371C214.991 181.846 215.996 181.505 217.037 181.368C218.079 181.231 219.137 181.3 220.152 181.572C221.167 181.844 222.118 182.313 222.951 182.953C223.785 183.592 224.484 184.39 225.01 185.299C225.535 186.209 225.876 187.214 226.013 188.255C226.15 189.297 226.081 190.355 225.809 191.37L221.206 208.547C220.75 210.247 219.747 211.75 218.35 212.823C216.954 213.895 215.243 214.477 213.483 214.479C212.255 214.48 211.044 214.198 209.942 213.655C208.841 213.113 207.879 212.324 207.132 211.35C206.384 210.376 205.871 209.243 205.631 208.039C205.392 206.835 205.433 205.592 205.751 204.406Z" fill="url(#paint0_linear_1118_34)"/>
<defs>
<linearGradient id="paint0_linear_1118_34" x1="17.6976" y1="28.7904" x2="434.89" y2="560.456" gradientUnits="userSpaceOnUse">
<stop stop-color="#1BA2D7"/>
<stop offset="1" stop-color="#8D3DFA"/>
</linearGradient>
</defs>
</svg>
