<svg width="495" height="496" viewBox="0 0 495 496" fill="none" xmlns="http://www.w3.org/2000/svg">
<path d="M153.892 315.404C152.91 314.245 151.687 313.314 150.309 312.676C148.93 312.039 147.429 311.709 145.911 311.711C144.393 311.71 142.893 312.04 141.515 312.678C140.137 313.315 138.915 314.246 137.934 315.404L103.963 355.413C101.33 358.512 100.731 362.897 102.437 366.586C104.143 370.275 107.873 372.658 111.94 372.658H120.321V487.986C120.321 490.107 121.164 492.142 122.664 493.643C124.164 495.143 126.199 495.986 128.321 495.986H163.505C165.626 495.986 167.661 495.143 169.162 493.643C170.662 492.142 171.505 490.107 171.505 487.986V372.658H179.886C183.951 372.658 187.681 370.275 189.388 366.589C190.223 364.774 190.523 362.759 190.253 360.78C189.984 358.801 189.155 356.94 187.865 355.416L153.892 315.404ZM163.505 356.658C161.383 356.658 159.348 357.501 157.848 359.001C156.348 360.501 155.505 362.536 155.505 364.658V479.986H136.321V364.658C136.321 362.536 135.478 360.501 133.978 359.001C132.477 357.501 130.442 356.658 128.321 356.658H123.895L145.913 330.726L167.931 356.658H163.505ZM52.4147 370.045C51.4326 368.886 50.2099 367.956 48.8315 367.318C47.4531 366.681 45.9524 366.351 44.4337 366.353C42.9156 366.352 41.4156 366.681 40.038 367.319C38.6603 367.957 37.4382 368.887 36.4567 370.045L2.48367 410.057C1.19392 411.582 0.365692 413.443 0.0961186 415.422C-0.173455 417.401 0.126798 419.415 0.961669 421.23C1.8045 423.04 3.14609 424.573 4.82908 425.648C6.51207 426.723 8.46669 427.295 10.4637 427.299H18.8437V487.987C18.8437 490.108 19.6865 492.143 21.1868 493.644C22.6871 495.144 24.7219 495.987 26.8437 495.987H62.0277C64.1494 495.987 66.1842 495.144 67.6845 493.644C69.1848 492.143 70.0277 490.108 70.0277 487.987V427.299H78.4077C82.4737 427.299 86.2037 424.916 87.9107 421.229C88.7453 419.414 89.0453 417.4 88.7753 415.421C88.5054 413.442 87.6768 411.581 86.3867 410.057L52.4147 370.045ZM62.0287 411.299C59.9069 411.299 57.8721 412.142 56.3718 413.642C54.8715 415.142 54.0287 417.177 54.0287 419.299V479.987H34.8447V419.299C34.8447 417.177 34.0018 415.142 32.5015 413.642C31.0012 412.142 28.9664 411.299 26.8447 411.299H22.4197L44.4367 385.367L66.4547 411.299H62.0287ZM255.369 260.762C254.387 259.603 253.165 258.673 251.787 258.035C250.409 257.397 248.908 257.067 247.39 257.069H247.387C245.869 257.068 244.369 257.398 242.992 258.036C241.615 258.674 240.393 259.604 239.412 260.762L205.44 300.772C202.808 303.872 202.21 308.256 203.916 311.945C205.622 315.634 209.352 318.016 213.418 318.016H221.799V487.986C221.799 490.107 222.642 492.142 224.142 493.643C225.642 495.143 227.677 495.986 229.799 495.986H264.983C267.104 495.986 269.139 495.143 270.64 493.643C272.14 492.142 272.983 490.107 272.983 487.986V318.016H281.363C285.429 318.016 289.16 315.633 290.866 311.945C292.572 308.257 291.974 303.872 289.343 300.774L255.369 260.762ZM264.982 302.016C262.86 302.016 260.825 302.859 259.325 304.359C257.825 305.859 256.982 307.894 256.982 310.016V479.986H237.798V310.016C237.798 307.894 236.955 305.859 235.455 304.359C233.954 302.859 231.919 302.016 229.798 302.016H225.373L247.39 276.086L269.408 302.017L264.982 302.016ZM492.295 410.056L458.322 370.044V370.043C457.34 368.884 456.117 367.954 454.738 367.317C453.36 366.679 451.859 366.35 450.341 366.352C448.823 366.351 447.323 366.68 445.945 367.318C444.567 367.956 443.345 368.886 442.364 370.044L408.392 410.055C405.76 413.155 405.162 417.539 406.868 421.227C408.574 424.915 412.305 427.298 416.37 427.298H424.751V487.986C424.751 490.107 425.594 492.142 427.094 493.643C428.594 495.143 430.629 495.986 432.751 495.986H467.935C470.056 495.986 472.091 495.143 473.592 493.643C475.092 492.142 475.935 490.107 475.935 487.986V427.298H484.315C488.38 427.298 492.109 424.916 493.816 421.23C494.651 419.415 494.952 417.4 494.682 415.421C494.413 413.442 493.585 411.581 492.295 410.056ZM467.936 411.299C465.814 411.299 463.779 412.142 462.279 413.642C460.779 415.142 459.936 417.177 459.936 419.299V479.987H440.752V419.299C440.752 417.177 439.909 415.142 438.409 413.642C436.908 412.142 434.873 411.299 432.752 411.299H428.326L450.344 385.367L472.362 411.299H467.936ZM356.846 315.404C355.864 314.245 354.641 313.315 353.263 312.677C351.885 312.039 350.384 311.709 348.866 311.711C345.785 311.711 342.876 313.059 340.888 315.404L306.918 355.413C304.285 358.512 303.686 362.897 305.392 366.586C307.098 370.275 310.828 372.658 314.895 372.658H323.276V487.986C323.276 490.107 324.119 492.142 325.619 493.643C327.119 495.143 329.154 495.986 331.276 495.986H366.46C368.581 495.986 370.616 495.143 372.117 493.643C373.617 492.142 374.46 490.107 374.46 487.986V372.658H382.84C386.905 372.658 390.635 370.275 392.342 366.589C393.177 364.774 393.477 362.759 393.207 360.78C392.938 358.801 392.109 356.94 390.819 355.416L356.846 315.404ZM366.459 356.658C364.337 356.658 362.302 357.501 360.802 359.001C359.302 360.501 358.459 362.536 358.459 364.658V479.986H339.275V364.658C339.275 362.536 338.432 360.501 336.932 359.001C335.431 357.501 333.396 356.658 331.275 356.658H326.849L348.866 330.727L370.884 356.658H366.459ZM306.584 273.843L318.742 252.92L342.581 257.086C344.369 257.402 346.211 257.221 347.903 256.561C349.595 255.901 351.073 254.789 352.176 253.345C353.283 251.905 353.974 250.188 354.171 248.382C354.369 246.576 354.066 244.75 353.296 243.105L325.378 183.139L330.572 180.915C342.808 175.674 349.968 163.273 348.388 150.057L346.447 133.818C346.102 130.929 346.514 128.589 347.826 125.994L355.204 111.399C361.209 99.5188 358.723 85.4168 349.016 76.3078L337.092 65.1158C334.971 63.1248 333.783 61.0677 333.12 58.2347L329.39 42.3118C326.354 29.3518 315.385 20.1478 302.094 19.4078L285.766 18.4998C282.862 18.3378 280.629 17.5258 278.3 15.7828L265.208 5.98275C254.551 -1.99425 240.232 -1.99425 229.576 5.98275L216.483 15.7828C214.155 17.5258 211.922 18.3388 209.018 18.4998L192.69 19.4078C179.399 20.1478 168.429 29.3518 165.394 42.3118L161.664 58.2337C161 61.0667 159.812 63.1248 157.692 65.1148L145.767 76.3058C136.061 85.4148 133.575 99.5168 139.579 111.397L146.957 125.993C148.269 128.589 148.682 130.929 148.336 133.817L146.395 150.055C144.815 163.272 151.975 175.673 164.211 180.914L169.406 183.139L141.487 243.105C140.717 244.75 140.414 246.575 140.611 248.381C140.808 250.187 141.498 251.904 142.606 253.344C143.709 254.788 145.187 255.9 146.88 256.56C148.573 257.22 150.415 257.402 152.204 257.086L176.041 252.92L188.2 273.845C189.109 275.417 190.434 276.708 192.029 277.578C193.623 278.448 195.426 278.862 197.241 278.776C199.055 278.696 200.813 278.119 202.322 277.108C203.83 276.097 205.032 274.691 205.796 273.043L231.84 217.102L243.421 213.602C246.205 212.76 248.581 212.76 251.365 213.602L262.945 217.102L288.99 273.044C289.786 274.762 291.059 276.217 292.656 277.234C294.254 278.252 296.11 278.79 298.004 278.786C299.742 278.788 301.45 278.332 302.956 277.464C304.462 276.596 305.713 275.347 306.584 273.843ZM196.192 255.758L187.071 240.062C186.248 238.648 185.012 237.521 183.529 236.83C182.046 236.14 180.388 235.92 178.777 236.201L160.894 239.326L183.685 190.373C184.269 190.989 184.813 191.673 185.328 192.461L194.279 206.148C198.791 213.047 205.67 217.544 213.278 219.059L196.192 255.758ZM247.39 196.974C244.536 196.974 241.683 197.412 238.789 198.286L223.134 203.017C217.158 204.827 211.088 202.615 207.67 197.388L198.719 183.702C195.41 178.642 191.1 175.025 185.541 172.644L170.508 166.206C164.768 163.748 161.538 158.154 162.279 151.954L164.22 135.715C164.938 129.711 163.96 124.17 161.233 118.775L153.856 104.18C151.039 98.6067 152.161 92.2458 156.713 87.9728L168.638 76.7808C173.046 72.6438 175.859 67.7708 177.239 61.8838L180.969 45.9608C182.393 39.8818 187.342 35.7298 193.576 35.3828L209.904 34.4748C215.942 34.1388 221.23 32.2137 226.069 28.5907L239.162 18.7908C244.161 15.0498 250.62 15.0498 255.618 18.7908L268.71 28.5898C273.55 32.2138 278.837 34.1378 284.876 34.4748L301.204 35.3828C307.438 35.7298 312.387 39.8818 313.811 45.9608L317.541 61.8828C318.919 67.7698 321.732 72.6428 326.142 76.7808L338.067 87.9728C342.62 92.2448 343.741 98.6067 340.924 104.18L333.546 118.775C330.818 124.171 329.841 129.712 330.559 135.715L332.5 151.954C333.241 158.154 330.011 163.748 324.271 166.206L309.238 172.644C303.68 175.024 299.37 178.641 296.06 183.701L287.109 197.388C283.692 202.614 277.621 204.826 271.645 203.017L255.99 198.286C253.097 197.412 250.244 196.974 247.39 196.974ZM281.502 219.057C289.11 217.541 295.989 213.044 300.501 206.146L309.452 192.459C309.935 191.714 310.485 191.015 311.096 190.371L333.887 239.324L316.004 236.199C314.392 235.918 312.734 236.137 311.251 236.827C309.768 237.518 308.532 238.646 307.71 240.06L298.589 255.756L281.502 219.057ZM311.936 109.813C311.936 74.2218 282.981 45.2668 247.39 45.2668C211.799 45.2668 182.844 74.2228 182.844 109.813C182.844 145.403 211.8 174.359 247.39 174.359C282.98 174.359 311.936 145.404 311.936 109.813ZM247.39 158.359C220.621 158.359 198.844 136.582 198.844 109.813C198.844 83.0438 220.621 61.2658 247.39 61.2658C274.159 61.2658 295.936 83.0438 295.936 109.812C295.936 136.58 274.159 158.359 247.39 158.359Z" fill="url(#paint0_linear_1118_28)"/>
<defs>
<linearGradient id="paint0_linear_1118_28" x1="17.6536" y1="31.968" x2="490.244" y2="573.018" gradientUnits="userSpaceOnUse">
<stop stop-color="#1BA2D7"/>
<stop offset="1" stop-color="#8D3DFA"/>
</linearGradient>
</defs>
</svg>
