<svg width="513" height="462" viewBox="0 0 513 462" fill="none" xmlns="http://www.w3.org/2000/svg">
<path d="M437.38 75.092L470.07 75.112C478.35 75.112 485.07 81.832 485.06 90.112L484.93 364.112M402.38 75.082L369.16 75.062M27.932 363.903L27.964 295.749M65.29 405.012H38C21.43 405.012 8 391.572 8 375.012C8 372.242 9.12 369.742 10.93 367.942C11.8574 367.012 12.9593 366.274 14.1726 365.772C15.3859 365.269 16.6866 365.011 18 365.012H283.03M283.03 405.012H100.29M452.564 365.008H495C500.523 365.008 505 369.485 505 375.008C505 391.577 491.569 405.008 475 405.008H452.819M283.032 293.904H23.112C14.766 293.904 8 287.138 8 278.792V23.112C8 14.766 14.766 8 23.112 8H352.548C360.893 8 367.657 14.765 367.657 23.109V185.329" stroke="url(#paint0_linear_1118_2)" stroke-width="15" stroke-miterlimit="10" stroke-linecap="round" stroke-linejoin="round"/>
<path d="M112.38 37.002H338.66V185.332M77.38 37.002H37V264.902H283.03" stroke="url(#paint1_linear_1118_2)" stroke-width="15" stroke-miterlimit="10" stroke-linecap="round" stroke-linejoin="round"/>
<path d="M187.828 215.994C224.855 215.994 254.871 185.978 254.871 148.951C254.871 111.924 224.855 81.9082 187.828 81.9082C150.801 81.9082 120.785 111.924 120.785 148.951C120.785 185.978 150.801 215.994 187.828 215.994Z" stroke="url(#paint2_linear_1118_2)" stroke-width="15" stroke-miterlimit="10" stroke-linecap="round" stroke-linejoin="round"/>
<path d="M162.091 148.829L183.154 172.547L217.566 128.383M284.93 350.673V433.783C284.93 444.913 293.95 453.923 305.07 453.923H430.2C441.32 453.923 450.33 444.913 450.33 433.783V207.183C450.33 196.053 441.32 187.043 430.2 187.043H305.07C293.95 187.043 284.93 196.053 284.93 207.183V315.673M354.206 213.151H381.058" stroke="url(#paint3_linear_1118_2)" stroke-width="15" stroke-miterlimit="10" stroke-linecap="round" stroke-linejoin="round"/>
<path d="M367.632 372.732C396.489 372.732 419.883 349.339 419.883 320.481C419.883 291.624 396.489 268.23 367.632 268.23C338.774 268.23 315.381 291.624 315.381 320.481C315.381 349.339 338.774 372.732 367.632 372.732Z" stroke="url(#paint4_linear_1118_2)" stroke-width="15" stroke-miterlimit="10" stroke-linecap="round" stroke-linejoin="round"/>
<path d="M349.137 320.477L364.365 337.624L389.245 305.695" stroke="url(#paint5_linear_1118_2)" stroke-width="15" stroke-miterlimit="10" stroke-linecap="round" stroke-linejoin="round"/>
<defs>
<linearGradient id="paint0_linear_1118_2" x1="25.7329" y1="33.5887" x2="383.725" y2="547.914" gradientUnits="userSpaceOnUse">
<stop stop-color="#1BA2D7"/>
<stop offset="1" stop-color="#8D3DFA"/>
</linearGradient>
<linearGradient id="paint1_linear_1118_2" x1="47.7632" y1="51.6909" x2="249.05" y2="357.466" gradientUnits="userSpaceOnUse">
<stop stop-color="#1BA2D7"/>
<stop offset="1" stop-color="#8D3DFA"/>
</linearGradient>
<linearGradient id="paint2_linear_1118_2" x1="125.569" y1="90.5505" x2="253.288" y2="237.128" gradientUnits="userSpaceOnUse">
<stop stop-color="#1BA2D7"/>
<stop offset="1" stop-color="#8D3DFA"/>
</linearGradient>
<linearGradient id="paint3_linear_1118_2" x1="172.375" y1="149.365" x2="485.361" y2="467.408" gradientUnits="userSpaceOnUse">
<stop stop-color="#1BA2D7"/>
<stop offset="1" stop-color="#8D3DFA"/>
</linearGradient>
<linearGradient id="paint4_linear_1118_2" x1="319.109" y1="274.966" x2="418.649" y2="389.203" gradientUnits="userSpaceOnUse">
<stop stop-color="#1BA2D7"/>
<stop offset="1" stop-color="#8D3DFA"/>
</linearGradient>
<linearGradient id="paint5_linear_1118_2" x1="350.568" y1="307.753" x2="379.325" y2="349.21" gradientUnits="userSpaceOnUse">
<stop stop-color="#1BA2D7"/>
<stop offset="1" stop-color="#8D3DFA"/>
</linearGradient>
</defs>
</svg>
