<svg width="512" height="469" viewBox="0 0 512 469" fill="none" xmlns="http://www.w3.org/2000/svg">
<path d="M33 385.331H217.5V418.331H206.217C197.468 418.341 189.08 421.821 182.894 428.008C176.707 434.194 173.227 442.582 173.217 451.331V460.572C173.217 462.694 174.06 464.729 175.56 466.229C177.06 467.729 179.095 468.572 181.217 468.572H330.783C332.905 468.572 334.94 467.729 336.44 466.229C337.94 464.729 338.783 462.694 338.783 460.572V451.331C338.773 442.582 335.293 434.194 329.106 428.008C322.92 421.821 314.532 418.341 305.783 418.331H294.5V385.331H479C487.749 385.321 496.137 381.841 502.323 375.654C508.51 369.468 511.99 361.08 512 352.331V33C511.99 24.2509 508.51 15.8629 502.324 9.67629C496.137 3.48971 487.749 0.00979318 479 0H33C24.2509 0.00979318 15.8629 3.48971 9.67629 9.67629C3.48971 15.8629 0.00979318 24.2509 0 33L0 352.331C0.0100573 361.08 3.49006 369.468 9.67658 375.654C15.8631 381.841 24.2509 385.321 33 385.331ZM322.783 451.331V452.572H189.217V451.331C189.222 446.824 191.015 442.503 194.202 439.316C197.389 436.129 201.71 434.336 206.217 434.331H305.783C310.29 434.336 314.611 436.129 317.798 439.315C320.985 442.502 322.778 446.823 322.783 451.33V451.331ZM278.5 418.331H233.5V385.331H278.5V418.331ZM479 369.331H33C28.4929 369.326 24.1718 367.533 20.9847 364.346C17.7977 361.159 16.005 356.838 16 352.331V337.578H496V352.331C495.995 356.838 494.202 361.159 491.015 364.346C487.828 367.533 483.507 369.326 479 369.331ZM33 16.001H479C483.507 16.006 487.828 17.7987 491.015 20.9857C494.202 24.1728 495.995 28.4939 496 33.001V321.578H16V33C16.0053 28.493 17.7981 24.1722 20.9851 20.9854C24.1721 17.7986 28.493 16.006 33 16.001ZM264 353.017V353.892C264 356.014 263.157 358.049 261.657 359.549C260.157 361.049 258.122 361.892 256 361.892C253.878 361.892 251.843 361.049 250.343 359.549C248.843 358.049 248 356.014 248 353.892V353.017C248 350.895 248.843 348.86 250.343 347.36C251.843 345.86 253.878 345.017 256 345.017C258.122 345.017 260.157 345.86 261.657 347.36C263.157 348.86 264 350.895 264 353.017ZM216.091 167.642V231.959C210.883 233.399 206.29 236.506 203.015 240.804C199.74 245.103 197.963 250.355 197.956 255.759V272.446C197.956 274.568 198.799 276.603 200.299 278.103C201.799 279.603 203.834 280.446 205.956 280.446H452.6C454.722 280.446 456.757 279.603 458.257 278.103C459.757 276.603 460.6 274.568 460.6 272.446V255.756C460.595 250.998 459.216 246.343 456.63 242.349C454.044 238.356 450.36 235.193 446.021 233.242V100.895C446.021 98.7733 445.178 96.7384 443.678 95.2381C442.178 93.7379 440.143 92.895 438.021 92.895H404.649C402.527 92.895 400.492 93.7379 398.992 95.2381C397.492 96.7384 396.649 98.7733 396.649 100.895V231.069H385.837V146.478C385.837 144.356 384.994 142.321 383.494 140.821C381.994 139.321 379.959 138.478 377.837 138.478H344.463C342.341 138.478 340.306 139.321 338.806 140.821C337.306 142.321 336.463 144.356 336.463 146.478V231.069H325.651V122.869C325.651 120.747 324.808 118.712 323.308 117.212C321.808 115.712 319.773 114.869 317.651 114.869H284.277C282.155 114.869 280.12 115.712 278.62 117.212C277.12 118.712 276.277 120.747 276.277 122.869V231.069H265.465V167.642C265.465 165.52 264.622 163.485 263.122 161.985C261.622 160.485 259.587 159.642 257.465 159.642H224.091C221.969 159.642 219.934 160.485 218.434 161.985C216.934 163.485 216.091 165.52 216.091 167.642ZM444.602 264.442H213.956V255.756C213.959 253.453 214.876 251.246 216.504 249.617C218.133 247.989 220.34 247.072 222.643 247.069H435.915C438.218 247.072 440.425 247.989 442.054 249.617C443.682 251.246 444.599 253.453 444.602 255.756V264.442ZM412.649 108.895H430.023V231.069H412.649V108.895ZM352.463 154.478H369.837V231.069H352.463V154.478ZM292.277 130.872H309.651V231.072H292.277V130.872ZM249.465 175.642V231.069H232.091V175.642H249.465ZM228.055 135.636C226.691 134.011 226.028 131.911 226.212 129.797C226.396 127.683 227.412 125.729 229.037 124.365L293.656 70.104C294.802 69.1414 296.196 68.5198 297.678 68.3098C299.16 68.0998 300.671 68.3098 302.04 68.916L362.052 95.486L408.376 55.88L398.548 55.008C397.496 54.9221 396.472 54.629 395.534 54.1455C394.596 53.662 393.763 52.9977 393.082 52.1908C392.402 51.384 391.888 50.4505 391.571 49.4442C391.253 48.4379 391.137 47.3787 391.23 46.3275C391.324 45.2763 391.624 44.254 392.114 43.3194C392.604 42.3848 393.274 41.5564 394.086 40.8819C394.897 40.2074 395.834 39.7001 396.843 39.3893C397.851 39.0785 398.912 38.9704 399.962 39.071L428.747 41.625C429.794 41.7178 430.811 42.0158 431.743 42.5021C432.674 42.9883 433.501 43.6533 434.175 44.4589C434.849 45.2646 435.358 46.1951 435.673 47.1975C435.988 48.1999 436.102 49.2545 436.009 50.301L433.455 79.086C433.278 81.076 432.364 82.928 430.891 84.2776C429.418 85.6272 427.493 86.3768 425.495 86.379C425.258 86.379 425.02 86.369 424.779 86.348C423.732 86.2552 422.715 85.9572 421.783 85.4709C420.852 84.9847 420.025 84.3197 419.351 83.5141C418.677 82.7084 418.168 81.7779 417.853 80.7755C417.538 79.7731 417.424 78.7185 417.517 77.672L418.339 68.413L368.619 110.922C367.472 111.902 366.071 112.538 364.579 112.757C363.086 112.975 361.562 112.767 360.182 112.156L300.124 85.566L239.324 136.618C237.699 137.982 235.599 138.645 233.485 138.461C231.371 138.277 229.417 137.261 228.053 135.636H228.055ZM153.973 165.8C168.315 165.834 182.16 160.545 192.827 150.957C203.494 141.369 210.223 128.165 211.713 113.9C211.831 112.785 211.713 111.657 211.367 110.59C211.021 109.523 210.454 108.541 209.704 107.708C208.954 106.874 208.037 106.207 207.012 105.751C205.988 105.295 204.879 105.059 203.757 105.059H156.647V57.949C156.647 56.8275 156.411 55.7184 155.955 54.6939C155.499 53.6694 154.832 52.7522 153.998 52.002C153.165 51.2518 152.183 50.6852 151.116 50.3391C150.049 49.993 148.921 49.8751 147.806 49.993C133.025 51.5731 119.413 58.7616 109.774 70.0778C100.135 81.3939 95.2022 95.9759 95.9927 110.82C96.7832 125.664 103.236 139.64 114.023 149.868C124.809 160.096 139.108 165.799 153.973 165.8ZM140.647 67.807V113.059C140.647 115.181 141.49 117.216 142.99 118.716C144.49 120.216 146.525 121.059 148.647 121.059H193.9C191.627 127.859 187.654 133.965 182.358 138.799C177.062 143.632 170.619 147.032 163.64 148.676C156.662 150.321 149.378 150.154 142.482 148.194C135.585 146.233 129.304 142.543 124.234 137.473C119.164 132.403 115.474 126.122 113.513 119.225C111.553 112.329 111.386 105.045 113.031 98.0666C114.675 91.0878 118.075 84.6449 122.908 79.3491C127.742 74.0533 133.847 70.0803 140.647 67.807ZM167.929 101.314H212.387C213.509 101.314 214.618 101.078 215.642 100.622C216.667 100.166 217.584 99.4991 218.334 98.6654C219.084 97.8317 219.651 96.8496 219.997 95.7828C220.343 94.716 220.461 93.5883 220.343 92.473C218.894 79.2928 212.995 67.0004 203.619 57.6243C194.243 48.2483 181.951 42.349 168.771 40.9C167.656 40.7819 166.528 40.8998 165.461 41.2458C164.394 41.5918 163.412 42.1584 162.578 42.9086C161.744 43.6589 161.077 44.576 160.621 45.6006C160.165 46.6252 159.929 47.7344 159.929 48.856V93.314C159.929 95.4357 160.772 97.4706 162.272 98.9709C163.772 100.471 165.807 101.314 167.929 101.314ZM175.929 58.74C182.102 60.8294 187.711 64.3138 192.319 68.9225C196.928 73.5313 200.411 79.1403 202.5 85.314H175.929V58.74ZM56.938 250.644L66.53 253.744C66.75 254.518 66.9877 255.287 67.243 256.052L61.058 264.015C59.9414 265.452 59.3484 267.228 59.3767 269.047C59.4051 270.867 60.0532 272.623 61.214 274.025L72.781 287.995C73.9414 289.396 75.5445 290.359 77.326 290.727C79.1076 291.094 80.9611 290.843 82.581 290.016L91.559 285.425C92.2623 285.819 92.9737 286.196 93.693 286.556L94.95 296.556C95.1768 298.362 96.0126 300.036 97.3194 301.303C98.6262 302.57 100.326 303.353 102.138 303.524L120.196 305.224C120.449 305.248 120.7 305.26 120.951 305.26C122.642 305.259 124.288 304.722 125.655 303.727C127.022 302.732 128.038 301.33 128.558 299.721L131.658 290.128C132.432 289.908 133.201 289.67 133.965 289.415L141.929 295.601C143.366 296.717 145.141 297.31 146.961 297.282C148.781 297.254 150.536 296.606 151.938 295.445L165.909 283.877C167.31 282.717 168.273 281.113 168.641 279.332C169.008 277.55 168.757 275.697 167.93 274.077L163.339 265.099C163.732 264.395 164.109 263.684 164.47 262.965L174.47 261.707C176.276 261.48 177.95 260.644 179.216 259.338C180.483 258.031 181.266 256.332 181.437 254.52L183.137 236.461C183.308 234.65 182.856 232.834 181.856 231.314C180.856 229.794 179.368 228.661 177.637 228.1L168.044 225C167.825 224.226 167.588 223.457 167.332 222.693L173.518 214.729C174.634 213.292 175.227 211.517 175.198 209.697C175.17 207.877 174.522 206.122 173.361 204.72L161.8 190.748C160.64 189.347 159.036 188.384 157.255 188.016C155.473 187.649 153.62 187.9 152 188.727L143.022 193.318C142.319 192.924 141.608 192.547 140.888 192.187L139.631 182.187C139.404 180.381 138.568 178.707 137.261 177.44C135.955 176.174 134.255 175.391 132.443 175.22L114.385 173.52C112.574 173.349 110.758 173.801 109.238 174.801C107.718 175.801 106.585 177.289 106.024 179.02L102.924 188.613C102.15 188.832 101.381 189.069 100.617 189.326L92.653 183.139C91.2155 182.023 89.4403 181.43 87.6204 181.458C85.8005 181.487 84.0448 182.135 82.643 183.296L68.673 194.863C67.2722 196.023 66.3086 197.626 65.9412 199.408C65.5738 201.19 65.8245 203.043 66.652 204.663L71.243 213.641C70.8497 214.344 70.473 215.055 70.113 215.775L60.113 217.032C58.3071 217.259 56.6325 218.095 55.3657 219.401C54.0989 220.708 53.3156 222.408 53.145 224.22L51.434 242.286C51.2644 244.097 51.7172 245.912 52.7178 247.432C53.7183 248.951 55.2069 250.084 56.938 250.644ZM68.462 232.112L76.573 231.093C78.0044 230.913 79.3606 230.349 80.4978 229.462C81.635 228.574 82.511 227.395 83.033 226.05C84.06 223.408 85.3913 220.895 87 218.561C87.8187 217.373 88.3007 215.985 88.3948 214.545C88.489 213.105 88.1919 211.666 87.535 210.381L83.81 203.097L87.896 199.713L94.358 204.731C95.4978 205.616 96.8556 206.176 98.2877 206.352C99.7198 206.528 101.173 206.313 102.493 205.731C105.087 204.587 107.805 203.748 110.593 203.231C112.011 202.969 113.332 202.328 114.416 201.376C115.5 200.425 116.306 199.198 116.75 197.826L119.266 190.048L124.548 190.548L125.567 198.659C125.747 200.09 126.311 201.447 127.198 202.584C128.086 203.721 129.265 204.597 130.61 205.119C133.252 206.146 135.766 207.477 138.1 209.086C139.288 209.905 140.676 210.387 142.116 210.481C143.557 210.575 144.995 210.278 146.28 209.62L153.565 205.895L156.948 209.982L151.93 216.444C151.045 217.584 150.485 218.942 150.309 220.374C150.133 221.806 150.347 223.26 150.93 224.58C152.074 227.174 152.913 229.892 153.43 232.68C153.692 234.098 154.333 235.419 155.285 236.503C156.236 237.587 157.463 238.393 158.835 238.837L166.613 241.352L166.113 246.634L158.003 247.654C156.571 247.834 155.215 248.397 154.078 249.285C152.94 250.173 152.064 251.352 151.542 252.697C150.515 255.339 149.183 257.852 147.574 260.186C146.755 261.375 146.274 262.762 146.18 264.202C146.086 265.642 146.383 267.081 147.04 268.366L150.765 275.65L146.679 279.034L140.217 274.015C139.077 273.13 137.719 272.57 136.286 272.393C134.854 272.217 133.4 272.432 132.08 273.015C129.486 274.16 126.768 274.999 123.98 275.515C122.561 275.777 121.24 276.418 120.156 277.37C119.071 278.321 118.265 279.548 117.821 280.921L115.307 288.699L110.024 288.199L109.01 280.086C108.83 278.655 108.266 277.298 107.379 276.161C106.491 275.024 105.312 274.148 103.967 273.626C101.325 272.598 98.8121 271.267 96.478 269.658C95.2895 268.839 93.9017 268.358 92.4616 268.264C91.0215 268.17 89.5829 268.467 88.298 269.124L81.014 272.848L77.629 268.762L82.648 262.3C83.5332 261.16 84.0935 259.802 84.2695 258.369C84.4456 256.937 84.2308 255.483 83.648 254.163C82.5028 251.569 81.6638 248.851 81.148 246.063C80.8857 244.645 80.2449 243.324 79.2935 242.24C78.342 241.156 77.1152 240.35 75.743 239.906L67.965 237.39L68.462 232.112ZM114.577 268.186C115.496 268.272 116.407 268.315 117.31 268.314C124.871 268.311 132.131 265.35 137.539 260.064C142.946 254.778 146.071 247.587 146.246 240.028C146.421 232.469 143.632 225.141 138.476 219.61C133.32 214.08 126.205 210.785 118.651 210.432C111.098 210.078 103.706 212.693 98.0557 217.717C92.4049 222.741 88.9436 229.777 88.4115 237.319C87.8794 244.862 90.3187 252.313 95.2081 258.081C100.097 263.849 107.049 267.476 114.577 268.186ZM104.4 238.16C104.706 234.954 106.194 231.978 108.574 229.809C110.955 227.64 114.057 226.436 117.277 226.429C117.681 226.429 118.088 226.448 118.499 226.487C121.047 226.727 123.467 227.718 125.452 229.333C127.438 230.949 128.9 233.117 129.653 235.563C130.406 238.009 130.417 240.624 129.685 243.076C128.952 245.528 127.509 247.709 125.537 249.341C123.566 250.973 121.154 251.984 118.608 252.246C116.062 252.508 113.495 252.009 111.233 250.812C108.97 249.615 107.114 247.775 105.897 245.523C104.681 243.27 104.16 240.708 104.4 238.16Z" fill="url(#paint0_linear_1118_31)"/>
<defs>
<linearGradient id="paint0_linear_1118_31" x1="18.2681" y1="30.201" x2="457.527" y2="581.042" gradientUnits="userSpaceOnUse">
<stop stop-color="#1BA2D7"/>
<stop offset="1" stop-color="#8D3DFA"/>
</linearGradient>
</defs>
</svg>
