<svg width="512" height="512" viewBox="0 0 512 512" fill="none" xmlns="http://www.w3.org/2000/svg">
<g clip-path="url(#clip0_1062_241)">
<path d="M230.399 247.469H179.199C178.079 247.468 176.968 247.688 175.933 248.116C174.897 248.545 173.956 249.173 173.163 249.966C172.371 250.759 171.742 251.7 171.314 252.735C170.885 253.771 170.665 254.881 170.666 256.002V324.269C170.665 325.39 170.885 326.5 171.314 327.536C171.742 328.571 172.371 329.512 173.163 330.305C173.956 331.098 174.897 331.726 175.933 332.155C176.968 332.583 178.079 332.803 179.199 332.802H230.399C231.52 332.803 232.63 332.583 233.666 332.155C234.702 331.726 235.643 331.098 236.435 330.305C237.228 329.512 237.856 328.571 238.285 327.536C238.713 326.5 238.933 325.39 238.933 324.269V256.002C238.934 254.881 238.714 253.771 238.285 252.735C237.857 251.699 237.228 250.758 236.436 249.966C235.643 249.173 234.702 248.544 233.666 248.116C232.63 247.688 231.52 247.468 230.399 247.469ZM221.866 315.735H187.732V264.536H221.866V315.735ZM332.798 247.469H281.599C280.478 247.468 279.368 247.688 278.332 248.116C277.296 248.545 276.355 249.173 275.562 249.966C274.77 250.759 274.141 251.7 273.713 252.735C273.284 253.771 273.064 254.881 273.065 256.002V324.269C273.064 325.39 273.284 326.5 273.713 327.536C274.141 328.571 274.77 329.512 275.562 330.305C276.355 331.098 277.296 331.726 278.332 332.155C279.368 332.583 280.478 332.803 281.599 332.802H332.798C333.919 332.803 335.029 332.583 336.065 332.155C337.101 331.726 338.042 331.098 338.834 330.305C339.627 329.512 340.256 328.571 340.684 327.536C341.113 326.5 341.333 325.39 341.332 324.269V256.002C341.333 254.881 341.113 253.771 340.684 252.735C340.256 251.699 339.627 250.758 338.835 249.966C338.042 249.173 337.101 248.544 336.065 248.116C335.029 247.688 333.919 247.468 332.798 247.469ZM324.265 315.735H290.132V264.536H324.266L324.265 315.735ZM34.1328 332.801H51.1998V384H34.1328V332.801ZM85.3324 332.801H102.399V384H85.3324V332.801Z" fill="white"/>
<path d="M503.466 247.467H477.866C476.745 247.466 475.635 247.686 474.599 248.115C473.563 248.543 472.622 249.172 471.83 249.964C471.037 250.757 470.409 251.698 469.98 252.734C469.552 253.77 469.332 254.88 469.332 256.001V281.601H460.799V256.001C460.8 254.88 460.58 253.77 460.151 252.734C459.723 251.698 459.094 250.757 458.302 249.964C457.509 249.172 456.568 248.543 455.532 248.115C454.496 247.686 453.386 247.466 452.265 247.467H426.665C425.544 247.466 424.434 247.686 423.398 248.115C422.362 248.543 421.421 249.172 420.629 249.964C419.836 250.757 419.208 251.698 418.779 252.734C418.351 253.77 418.13 254.88 418.131 256.001V281.601H409.598V256.001C409.599 254.88 409.379 253.77 408.95 252.734C408.522 251.698 407.893 250.757 407.101 249.964C406.308 249.172 405.367 248.543 404.331 248.115C403.295 247.686 402.185 247.466 401.064 247.467H384V153.6H366.933V187.734H349.866V170.667C349.866 169.082 349.424 167.528 348.591 166.179C347.758 164.83 346.565 163.74 345.148 163.03L332.799 156.861V78.8145L348.97 46.4824L348.893 46.439C349.464 45.2951 349.866 44.0413 349.866 42.6675V8.5335C349.867 7.4126 349.647 6.30251 349.219 5.26675C348.79 4.23099 348.162 3.28989 347.369 2.49729C346.576 1.70469 345.635 1.07615 344.6 0.64764C343.564 0.219129 342.454 -0.000947897 341.333 3.06876e-06H307.199C306.078 -0.000947897 304.968 0.219129 303.932 0.64764C302.896 1.07615 301.955 1.70469 301.163 2.49729C300.37 3.28989 299.741 4.23099 299.313 5.26675C298.884 6.30251 298.664 7.4126 298.665 8.5335V34.134H281.598V8.5335C281.599 7.4126 281.379 6.30251 280.951 5.26675C280.522 4.23099 279.894 3.28989 279.101 2.49729C278.308 1.70469 277.367 1.07615 276.332 0.64764C275.296 0.219129 274.186 -0.000947897 273.065 3.06876e-06H238.931C237.81 -0.000947897 236.7 0.219129 235.664 0.64764C234.628 1.07615 233.687 1.70469 232.895 2.49729C232.102 3.28989 231.473 4.23099 231.045 5.26675C230.616 6.30251 230.396 7.4126 230.397 8.5335V34.134H213.33V8.5335C213.331 7.4126 213.111 6.30251 212.683 5.26675C212.254 4.23099 211.626 3.28989 210.833 2.49729C210.04 1.70469 209.099 1.07615 208.064 0.64764C207.028 0.219129 205.918 -0.000947897 204.797 3.06876e-06H170.663C169.542 -0.000947897 168.432 0.219129 167.396 0.64764C166.36 1.07615 165.419 1.70469 164.627 2.49729C163.834 3.28989 163.205 4.23099 162.777 5.26675C162.348 6.30251 162.128 7.4126 162.129 8.5335V42.6675C162.129 44.0413 162.53 45.2951 163.111 46.4476L163.035 46.491L179.196 78.816V156.861L166.848 163.039C165.43 163.746 164.237 164.834 163.404 166.182C162.57 167.529 162.129 169.083 162.129 170.667V187.734H145.062V153.6H128V247.466H110.933C109.812 247.465 108.702 247.685 107.666 248.113C106.63 248.542 105.689 249.17 104.896 249.963C104.104 250.756 103.475 251.697 103.047 252.733C102.618 253.768 102.398 254.878 102.399 255.999V281.6H93.8671V255.999C93.868 254.878 93.6479 253.768 93.2194 252.733C92.7909 251.697 92.1624 250.756 91.3698 249.963C90.5772 249.17 89.6361 248.542 88.6003 248.113C87.5646 247.685 86.4545 247.465 85.3336 247.466H59.7331C58.6122 247.465 57.5021 247.685 56.4663 248.113C55.4306 248.542 54.4895 249.17 53.6969 249.963C52.9043 250.756 52.2757 251.697 51.8472 252.733C51.4187 253.768 51.1986 254.878 51.1996 255.999V281.6H42.6661V255.999C42.667 254.878 42.4469 253.768 42.0184 252.733C41.5899 251.697 40.9614 250.756 40.1688 249.963C39.3762 249.17 38.4351 248.542 37.3993 248.113C36.3636 247.685 35.2535 247.465 34.1326 247.466H8.5335C7.4126 247.465 6.30251 247.685 5.26675 248.113C4.23099 248.542 3.28989 249.17 2.49729 249.963C1.70469 250.756 1.07615 251.697 0.64764 252.733C0.219129 253.768 -0.000947897 254.878 3.06876e-06 255.999V503.466C-0.000947897 504.587 0.219129 505.697 0.64764 506.733C1.07615 507.769 1.70469 508.71 2.49729 509.503C3.28989 510.295 4.23099 510.924 5.26675 511.352C6.30251 511.781 7.4126 512.001 8.5335 512H503.466C504.587 512.001 505.697 511.781 506.733 511.352C507.769 510.924 508.71 510.295 509.503 509.503C510.295 508.71 510.924 507.769 511.352 506.733C511.781 505.697 512.001 504.587 512 503.466V255.999C512 251.281 508.185 247.467 503.466 247.467ZM276.881 163.029L259.814 154.495C258.629 153.902 257.321 153.593 255.996 153.593C254.67 153.593 253.363 153.902 252.177 154.495L235.11 163.029C233.695 163.74 232.505 164.831 231.673 166.18C230.841 167.528 230.401 169.081 230.4 170.666V187.733H213.333V170.666C213.333 169.08 212.891 167.526 212.058 166.178C211.224 164.829 210.032 163.739 208.615 163.029L196.266 156.86V85.3336H315.732V156.86L303.384 163.037C301.966 163.744 300.773 164.833 299.94 166.18C299.106 167.528 298.665 169.081 298.665 170.666V187.733H281.598V170.666C281.598 169.08 281.157 167.526 280.324 166.177C279.491 164.829 278.299 163.738 276.881 163.029ZM315.734 17.067H332.801V34.134H315.734V17.067ZM247.467 17.067H264.534V34.134H247.467V17.067ZM327.527 51.1996L318.993 68.2666H193.007L184.473 51.1996H327.527ZM179.199 17.067H196.266V34.134H179.199V17.067ZM17.067 264.533H25.6005V290.133C25.5996 291.254 25.8196 292.364 26.2481 293.4C26.6767 294.436 27.3052 295.377 28.0978 296.169C28.8904 296.962 29.8315 297.591 30.8673 298.019C31.903 298.448 33.0131 298.668 34.134 298.667H59.7345C60.8554 298.668 61.9655 298.448 63.0013 298.019C64.037 297.591 64.9781 296.962 65.7707 296.169C66.5633 295.377 67.1919 294.436 67.6204 293.4C68.0489 292.364 68.269 291.254 68.268 290.133V264.533H76.8015V290.133C76.8006 291.254 77.0206 292.364 77.4492 293.4C77.8777 294.436 78.5062 295.377 79.2988 296.169C80.0914 296.962 81.0325 297.591 82.0683 298.019C83.104 298.448 84.2141 298.668 85.335 298.667H110.936C112.056 298.668 113.167 298.448 114.202 298.019C115.238 297.591 116.179 296.962 116.972 296.169C117.764 295.377 118.393 294.436 118.821 293.4C119.25 292.364 119.47 291.254 119.469 290.133V264.533H128.003V494.933H17.067V264.533ZM298.667 494.933H264.533V376.329C283.98 380.297 298.667 397.526 298.667 418.133V494.933ZM247.467 494.933H213.333V418.133C213.333 397.533 228.018 380.297 247.467 376.329V494.933ZM366.933 494.933H315.734V418.133C315.734 385.204 288.93 358.4 256.001 358.4C223.071 358.4 196.268 385.204 196.268 418.133V494.933H145.068V204.8H170.669C171.789 204.801 172.9 204.581 173.935 204.152C174.971 203.724 175.912 203.095 176.705 202.302C177.497 201.51 178.126 200.569 178.554 199.533C178.983 198.497 179.203 197.387 179.202 196.266V175.94L187.736 171.674L196.269 175.94V196.266C196.268 197.387 196.488 198.497 196.917 199.533C197.345 200.569 197.974 201.51 198.766 202.302C199.559 203.095 200.5 203.724 201.536 204.152C202.572 204.581 203.682 204.801 204.803 204.8H238.937C240.058 204.801 241.168 204.581 242.203 204.152C243.239 203.724 244.18 203.095 244.973 202.302C245.765 201.51 246.394 200.569 246.822 199.533C247.251 198.497 247.471 197.387 247.47 196.266V175.94L256.004 171.674L264.537 175.94V196.266C264.536 197.387 264.756 198.497 265.185 199.533C265.613 200.569 266.242 201.51 267.034 202.302C267.827 203.095 268.768 203.724 269.804 204.152C270.84 204.581 271.95 204.801 273.071 204.8H307.205C308.326 204.801 309.436 204.581 310.471 204.152C311.507 203.724 312.448 203.095 313.241 202.302C314.033 201.51 314.662 200.569 315.09 199.533C315.519 198.497 315.739 197.387 315.738 196.266V175.94L324.272 171.674L332.805 175.94V196.266C332.804 197.387 333.024 198.497 333.453 199.533C333.881 200.569 334.51 201.51 335.302 202.302C336.095 203.095 337.036 203.724 338.072 204.152C339.108 204.581 340.218 204.801 341.339 204.8H366.939V494.933H366.933ZM494.933 494.933H384V264.533H392.534V290.133C392.533 291.254 392.753 292.364 393.181 293.4C393.61 294.436 394.239 295.377 395.031 296.169C395.824 296.962 396.765 297.591 397.801 298.019C398.836 298.448 399.946 298.668 401.067 298.667H426.668C427.789 298.668 428.899 298.448 429.935 298.019C430.97 297.591 431.911 296.962 432.704 296.169C433.497 295.377 434.125 294.436 434.554 293.4C434.982 292.364 435.202 291.254 435.201 290.133V264.533H443.735V290.133C443.734 291.254 443.954 292.364 444.383 293.4C444.811 294.436 445.44 295.377 446.232 296.169C447.025 296.962 447.966 297.591 449.002 298.019C450.037 298.448 451.147 298.668 452.268 298.667H477.869C478.99 298.668 480.1 298.448 481.136 298.019C482.171 297.591 483.112 296.962 483.905 296.169C484.698 295.377 485.326 294.436 485.755 293.4C486.183 292.364 486.403 291.254 486.402 290.133V264.533H494.936V494.933H494.933Z" fill="white"/>
<path d="M460.798 332.8H477.865V384H460.798V332.8ZM409.598 332.8H426.665V384H409.598V332.8ZM213.332 110.934H230.399V128.001H213.332V110.934ZM247.466 110.934H264.533V128.001H247.466V110.934ZM281.599 110.934H298.666V128.001H281.599V110.934ZM230.399 426.667H238.933V443.734H230.399V426.667ZM273.065 426.667H281.599V443.734H273.065V426.667Z" fill="white"/>
</g>
<defs>
<clipPath id="clip0_1062_241">
<rect width="512" height="512" fill="white"/>
</clipPath>
</defs>
</svg>
