<svg width="481" height="512" viewBox="0 0 481 512" fill="none" xmlns="http://www.w3.org/2000/svg">
<path d="M417.881 301.534C411.698 301.534 405.575 302.519 399.741 304.412V206.24C399.741 204.251 398.951 202.343 397.545 200.937C396.138 199.53 394.231 198.74 392.241 198.74H290.841C290.878 198.123 290.901 197.503 290.901 196.88V186.886C300.423 183.733 307.314 174.752 307.314 164.186C307.319 158.568 305.335 153.129 301.715 148.833C306.41 143.727 310.49 138.088 313.871 132.032C314.353 131.172 314.661 130.225 314.776 129.245C314.892 128.266 314.813 127.274 314.544 126.325C314.276 125.376 313.823 124.489 313.211 123.716C312.6 122.942 311.842 122.297 310.98 121.817C310.119 121.337 309.172 121.031 308.192 120.917C307.213 120.804 306.22 120.884 305.272 121.155C304.324 121.425 303.438 121.88 302.665 122.493C301.893 123.106 301.249 123.865 300.77 124.727C297.472 130.634 293.378 136.059 288.602 140.852C286.896 140.47 285.153 140.277 283.404 140.276H243.753V105.852C257.687 102.471 268.068 89.898 268.068 74.939C268.068 70.797 264.711 67.439 260.568 67.439C256.425 67.439 253.067 70.797 253.067 74.939C253.067 84.21 245.524 91.753 236.253 91.753C226.982 91.753 219.439 84.21 219.439 74.939C219.439 72.9499 218.649 71.0422 217.243 69.6357C215.836 68.2292 213.929 67.439 211.939 67.439C209.95 67.439 208.043 68.2292 206.636 69.6357C205.23 71.0422 204.439 72.9499 204.439 74.939C204.439 89.898 214.82 102.471 228.753 105.852V140.276H189.102C187.313 140.276 185.572 140.48 183.895 140.854C170.203 127.067 162.422 108.344 162.422 88.83C162.422 48.12 195.542 15 236.252 15C276.962 15 310.083 48.12 310.083 88.83C310.083 92.169 309.854 95.566 309.4 98.928C309.135 100.899 309.663 102.896 310.869 104.477C312.075 106.059 313.86 107.097 315.831 107.363C317.803 107.629 319.799 107.1 321.381 105.894C322.963 104.688 324.001 102.903 324.266 100.932C324.808 96.908 325.083 92.836 325.083 88.83C325.083 39.849 285.233 0 236.252 0C187.271 0 147.422 39.849 147.422 88.83C147.422 111.112 155.849 132.537 170.785 148.841C167.17 153.137 165.188 158.572 165.192 164.187C165.192 174.751 172.082 183.732 181.602 186.885V196.88C181.602 197.504 181.626 198.123 181.662 198.74H88.0325C86.0434 198.74 84.1357 199.53 82.7292 200.937C81.3226 202.343 80.5325 204.251 80.5325 206.24V304.41C74.6723 302.508 68.5497 301.537 62.3885 301.534C30.0215 301.534 3.68848 327.867 3.68848 360.234C3.68848 392.601 30.0215 418.934 62.3885 418.934C71.6405 418.934 80.5565 416.808 88.6455 412.743C95.4785 432.462 106.503 450.656 121.25 466.142C122.622 467.583 124.51 468.419 126.498 468.468C128.487 468.516 130.413 467.773 131.854 466.401C133.294 465.03 134.131 463.142 134.18 461.154C134.228 459.165 133.485 457.239 132.113 455.798C108.524 431.026 95.5325 398.546 95.5325 364.34V322.556C101.774 321.111 107.415 317.816 112.365 312.687C134.365 289.888 136.607 234.351 136.652 213.74H343.63C343.674 234.351 345.917 289.889 367.917 312.687C372.864 317.814 378.503 321.108 384.742 322.554V364.339C384.742 437.488 325.231 496.999 252.083 496.999H228.203C201.318 496.999 175.438 489.005 153.362 473.881C152.55 473.324 151.636 472.933 150.672 472.73C149.708 472.527 148.714 472.515 147.746 472.696C146.778 472.877 145.855 473.247 145.029 473.785C144.204 474.322 143.493 475.017 142.936 475.83C142.38 476.643 141.989 477.557 141.785 478.52C141.582 479.484 141.571 480.479 141.752 481.447C141.933 482.415 142.303 483.338 142.84 484.163C143.378 484.988 144.073 485.699 144.885 486.256C169.466 503.098 198.278 512 228.201 512H252.081C316.561 512 371.512 470.451 391.59 412.723C399.699 416.802 408.627 418.935 417.88 418.935C450.247 418.935 476.581 392.602 476.581 360.235C476.581 327.868 450.248 301.534 417.881 301.534ZM189.101 155.276H283.404C288.317 155.276 292.314 159.273 292.314 164.186C292.314 169.099 288.317 173.096 283.404 173.096H189.101C184.188 173.096 180.191 169.099 180.191 164.186C180.191 159.273 184.188 155.276 189.101 155.276ZM196.601 196.88V188.1H275.901V196.88C275.901 197.508 275.855 198.127 275.784 198.74H196.719C196.644 198.123 196.604 197.502 196.601 196.88ZM62.3875 403.935C38.2915 403.935 18.6875 384.331 18.6875 360.235C18.6875 336.139 38.2915 316.535 62.3875 316.535C68.649 316.542 74.8362 317.892 80.5315 320.494V347.008C76.0915 344.705 70.9865 343.233 65.2895 342.661C55.8615 341.715 47.9735 343.612 47.6425 343.693C43.6305 344.677 41.1835 348.718 42.1535 352.735C43.1235 356.751 47.1745 359.224 51.1925 358.267C52.0575 358.062 71.7895 353.556 80.5575 366.501C80.7053 377.106 81.9913 387.664 84.3935 397.994C77.7475 401.89 70.2305 403.935 62.3875 403.935ZM101.57 302.271C99.6695 304.241 97.6635 305.713 95.5315 306.729V213.74H121.672C121.658 237.784 118.197 285.041 101.57 302.271ZM378.715 302.276C362.108 285.075 358.634 237.797 358.611 213.74H384.742V306.725C382.614 305.71 380.612 304.241 378.715 302.276ZM417.881 403.935C410.051 403.935 402.532 401.888 395.87 397.988C398.28 387.664 399.568 377.11 399.714 366.51C408.465 353.571 428.165 358.049 429.081 358.266C431.011 358.728 433.044 358.407 434.737 357.373C436.43 356.339 437.644 354.676 438.114 352.749C438.584 350.821 438.271 348.786 437.244 347.089C436.217 345.392 434.56 344.171 432.634 343.693C432.304 343.611 424.416 341.714 414.988 342.661C409.289 343.233 404.182 344.706 399.742 347.01V320.497C405.436 317.894 411.622 316.542 417.882 316.535C441.979 316.535 461.582 336.139 461.582 360.235C461.582 384.331 441.977 403.935 417.881 403.935Z" fill="url(#paint0_linear_1152_907)"/>
<path d="M167.894 308.879C158.561 308.879 150.969 319.287 150.969 332.08C150.969 344.873 158.561 355.281 167.894 355.281C177.226 355.281 184.818 344.873 184.818 332.08C184.818 319.287 177.226 308.879 167.894 308.879ZM312.384 308.879C303.052 308.879 295.459 319.287 295.459 332.08C295.459 344.873 303.052 355.281 312.384 355.281C321.716 355.281 329.308 344.873 329.308 332.08C329.308 319.287 321.716 308.879 312.384 308.879ZM195.002 287.414C196.409 286.007 197.199 284.1 197.199 282.111C197.199 280.122 196.409 278.214 195.002 276.808C180.607 262.412 157.184 262.413 142.79 276.808C141.384 278.214 140.594 280.122 140.594 282.111C140.594 284.1 141.384 286.007 142.79 287.414C144.197 288.82 146.104 289.61 148.093 289.61C150.082 289.61 151.99 288.82 153.396 287.414C161.943 278.868 175.849 278.867 184.396 287.414C185.86 288.878 187.78 289.611 189.699 289.611C191.618 289.611 193.537 288.878 195.002 287.414ZM338.949 287.414C340.356 286.007 341.146 284.1 341.146 282.111C341.146 280.122 340.356 278.214 338.949 276.808C331.975 269.835 322.704 265.995 312.843 265.995C302.981 265.995 293.709 269.835 286.737 276.808C285.689 277.857 284.974 279.193 284.685 280.648C284.396 282.103 284.544 283.611 285.112 284.981C285.68 286.352 286.641 287.523 287.875 288.347C289.108 289.171 290.558 289.611 292.041 289.611C293.027 289.612 294.002 289.419 294.913 289.041C295.823 288.664 296.65 288.111 297.345 287.414C299.376 285.372 301.791 283.753 304.452 282.651C307.112 281.549 309.965 280.986 312.844 280.994C318.698 280.994 324.203 283.274 328.343 287.414C329.75 288.82 331.658 289.61 333.646 289.61C335.635 289.61 337.543 288.82 338.949 287.414ZM240.138 404.395C257.096 404.395 272.304 393.065 277.12 376.843C277.409 375.896 277.507 374.902 277.41 373.918C277.312 372.933 277.021 371.977 276.552 371.106C276.084 370.234 275.448 369.464 274.68 368.839C273.913 368.215 273.03 367.748 272.081 367.467C271.133 367.185 270.138 367.094 269.154 367.198C268.17 367.303 267.217 367.601 266.349 368.076C265.48 368.55 264.715 369.192 264.096 369.964C263.477 370.736 263.016 371.622 262.741 372.573C259.8 382.477 250.505 389.395 240.137 389.395C229.782 389.395 220.486 382.474 217.532 372.565C217.251 371.621 216.786 370.742 216.165 369.977C215.544 369.213 214.778 368.579 213.912 368.11C213.045 367.642 212.095 367.349 211.115 367.248C210.135 367.146 209.145 367.239 208.201 367.521C207.258 367.802 206.378 368.267 205.614 368.888C204.85 369.509 204.215 370.275 203.747 371.142C202.801 372.891 202.589 374.945 203.157 376.852C207.994 393.068 223.201 404.395 240.138 404.395ZM396.704 49.8567C400.84 58.0017 409.175 62.7797 417.838 62.7797C420.91 62.7797 424.026 62.1777 427.008 60.9127L451.024 50.7217C457.03 48.1727 461.757 43.1957 463.994 37.0667C466.231 30.9377 465.819 24.0857 462.865 18.2667L460.16 12.9397C458.69 10.0537 456.644 7.49949 454.148 5.43476C451.652 3.37003 448.76 1.83852 445.649 0.934703C442.536 0.0397386 439.273 -0.207876 436.061 0.207136C432.848 0.622148 429.755 1.69098 426.971 3.3477L404.571 16.7227C393.948 23.0677 390.014 36.6797 395.616 47.7127L396.704 49.8567ZM412.261 29.6017L434.66 16.2267C435.675 15.6157 436.805 15.2219 437.979 15.0701C439.154 14.9183 440.347 15.0118 441.483 15.3447C442.623 15.6686 443.682 16.2257 444.595 16.9807C445.507 17.7358 446.253 18.6722 446.784 19.7307L449.489 25.0587C450.03 26.1125 450.346 27.2671 450.417 28.4494C450.488 29.6317 450.312 30.8158 449.901 31.9267C449.501 33.041 448.872 34.0598 448.057 34.9184C447.242 35.7771 446.257 36.4569 445.164 36.9147L421.148 47.1057C416.986 48.8717 412.125 47.0967 410.079 43.0667L408.99 40.9217C406.943 36.8917 408.381 31.9187 412.261 29.6017ZM430.204 81.2867C417.831 81.4687 407.617 91.2907 406.952 103.647V103.648L406.823 106.048C406.158 118.404 415.258 129.266 427.539 130.775L453.434 133.957C454.387 134.074 455.34 134.132 456.292 134.132C461.849 134.13 467.228 132.178 471.492 128.617C473.972 126.533 475.999 123.963 477.448 121.066C478.896 118.168 479.736 115.005 479.915 111.771L480.236 105.804C480.406 102.569 479.911 99.3344 478.782 96.2986C477.653 93.2628 475.914 90.4905 473.672 88.1527C469.149 83.4507 462.814 80.7947 456.289 80.9037L430.204 81.2867ZM462.859 98.5497C463.684 99.3996 464.323 100.412 464.736 101.522C465.149 102.632 465.326 103.815 465.257 104.998L464.936 110.964C464.806 113.38 463.713 115.565 461.859 117.118C460.005 118.671 457.661 119.363 455.263 119.069L429.367 115.887C424.882 115.336 421.557 111.368 421.801 106.853L421.93 104.452C422.173 99.9387 425.905 96.3517 430.424 96.2847L456.509 95.9007C458.916 95.8897 461.183 96.8067 462.859 98.5497ZM395.231 192.256L416.065 207.959C418.655 209.904 421.616 211.299 424.766 212.056C427.915 212.814 431.186 212.918 434.377 212.363C437.567 211.798 440.606 210.586 443.309 208.801C446.012 207.016 448.32 204.697 450.092 201.986L453.354 196.979C456.916 191.512 458.06 184.744 456.495 178.41C454.93 172.076 450.764 166.62 445.066 163.441L422.284 150.731C411.477 144.703 397.721 148.102 390.968 158.47L389.656 160.484C382.899 170.853 385.35 184.809 395.231 192.256ZM402.223 168.671L403.535 166.656C406.003 162.869 411.028 161.628 414.974 163.83L437.756 176.54C439.868 177.718 441.352 179.66 441.932 182.008C442.512 184.356 442.105 186.765 440.785 188.791L437.523 193.798C436.881 194.793 436.04 195.644 435.051 196.296C434.063 196.949 432.95 197.389 431.782 197.589C430.617 197.799 429.421 197.764 428.269 197.487C427.118 197.21 426.037 196.697 425.094 195.98L404.26 180.277C400.65 177.557 399.755 172.46 402.223 168.671ZM29.2444 50.7217L53.2594 60.9117C56.1597 62.1448 59.2789 62.7802 62.4304 62.7797C71.0934 62.7797 79.4294 58.0007 83.5644 49.8567L84.6534 47.7117C90.2554 36.6787 86.3204 23.0657 75.6964 16.7217L53.2974 3.3477C50.5142 1.69118 47.421 0.622449 44.2088 0.20744C40.9965 -0.20757 37.7333 0.0399403 34.6204 0.934703C31.51 1.83836 28.6178 3.36969 26.122 5.43425C23.6263 7.4988 21.58 10.0528 20.1094 12.9387L17.4034 18.2677C14.4494 24.0857 14.0384 30.9377 16.2744 37.0667C18.5104 43.1957 23.2384 48.1727 29.2444 50.7217ZM30.7784 25.0587L33.4844 19.7307C34.016 18.6723 34.7618 17.736 35.6743 16.981C36.5868 16.2259 37.6462 15.6688 38.7854 15.3447C39.9217 15.0117 41.1147 14.9182 42.289 15.07C43.4632 15.2218 44.5932 15.6157 45.6074 16.2267L68.0064 29.6017C71.8874 31.9187 73.3244 36.8917 71.2784 40.9217L70.1894 43.0667C68.1444 47.0967 63.2824 48.8717 59.1194 47.1047L35.1034 36.9137C32.8774 35.9697 31.1944 34.1977 30.3654 31.9257C29.5364 29.6537 29.6834 27.2147 30.7784 25.0587ZM23.9764 134.132C24.9284 134.132 25.8824 134.074 26.8344 133.957L52.7274 130.775C65.0094 129.266 74.1094 118.405 73.4444 106.048L73.3154 103.647C72.6504 91.2907 62.4384 81.4687 50.0644 81.2867L23.9784 80.9027C20.7395 80.8593 17.5261 81.4803 14.5365 82.7272C11.5469 83.9742 8.84459 85.8207 6.59643 88.1527C4.35488 90.4906 2.61602 93.2629 1.48709 96.2987C0.358163 99.3344 -0.136901 102.569 0.0324312 105.804L0.353431 111.77C0.532338 115.004 1.37183 118.167 2.82013 121.064C4.26844 123.961 6.29485 126.531 8.77443 128.615C13.0393 132.177 18.4194 134.13 23.9764 134.132ZM17.4084 98.5497C18.2102 97.7087 19.175 97.04 20.2439 96.5845C21.3129 96.129 22.4635 95.8964 23.6254 95.9007L23.7574 95.9017L49.8434 96.2857C54.3634 96.3527 58.0934 99.9397 58.3364 104.454L58.4654 106.855C58.7084 111.369 55.3844 115.336 50.8974 115.887L25.0044 119.069C23.8296 119.218 22.6365 119.122 21.5009 118.786C20.3652 118.45 19.3118 117.881 18.4074 117.117C17.4963 116.36 16.7524 115.423 16.2229 114.363C15.6934 113.304 15.3898 112.146 15.3314 110.964L15.0104 104.997C14.9415 103.815 15.1191 102.631 15.5319 101.521C15.9447 100.411 16.5837 99.3994 17.4084 98.5497ZM57.9854 150.731L35.2014 163.441C29.5044 166.62 25.3384 172.076 23.7734 178.41C22.2084 184.744 23.3534 191.512 26.9144 196.978L30.1764 201.985C31.9483 204.696 34.2569 207.016 36.9599 208.801C39.6629 210.585 42.7029 211.797 45.8924 212.362C47.2404 212.599 48.5974 212.715 49.9514 212.715C55.092 212.715 60.0934 211.045 64.2034 207.958L85.0374 192.255C94.9194 184.807 97.3694 170.852 90.6144 160.483L89.3024 158.468C82.5474 148.102 68.7934 144.702 57.9854 150.731ZM76.0084 180.278L55.1744 195.981C54.2318 196.698 53.1505 197.211 51.999 197.488C50.8475 197.765 49.651 197.8 48.4854 197.59C47.3182 197.39 46.2053 196.95 45.2172 196.297C44.229 195.645 43.3873 194.794 42.7454 193.799L39.4834 188.792C38.1634 186.766 37.7554 184.356 38.3364 182.009C38.9174 179.662 40.3994 177.719 42.5104 176.541L65.2944 163.831C66.5732 163.116 68.0137 162.742 69.4784 162.743C72.3144 162.743 75.0904 164.137 76.7334 166.658L78.0454 168.673C80.5134 172.46 79.6184 177.557 76.0084 180.278Z" fill="url(#paint1_linear_1152_907)"/>
<defs>
<linearGradient id="paint0_linear_1152_907" x1="20.5612" y1="33.0001" x2="512.046" y2="553.972" gradientUnits="userSpaceOnUse">
<stop stop-color="#1BA2D7"/>
<stop offset="1" stop-color="#8D3DFA"/>
</linearGradient>
<linearGradient id="paint1_linear_1152_907" x1="17.1359" y1="26.0755" x2="388.044" y2="531.632" gradientUnits="userSpaceOnUse">
<stop stop-color="#1BA2D7"/>
<stop offset="1" stop-color="#8D3DFA"/>
</linearGradient>
</defs>
</svg>
