<svg width="480" height="488" viewBox="0 0 480 488" fill="none" xmlns="http://www.w3.org/2000/svg">
<path d="M280 424H264V345.6C264 343.478 263.157 341.443 261.657 339.943C260.157 338.443 258.122 337.6 256 337.6C253.878 337.6 251.843 338.443 250.343 339.943C248.843 341.443 248 343.478 248 345.6V424H40V264H106.56C108.682 264 110.717 263.157 112.217 261.657C113.717 260.157 114.56 258.122 114.56 256C114.56 253.878 113.717 251.843 112.217 250.343C110.717 248.843 108.682 248 106.56 248H32C29.8783 248 27.8434 248.843 26.3431 250.343C24.8429 251.843 24 253.878 24 256V424H8C5.87827 424 3.84344 424.843 2.34315 426.343C0.842854 427.843 0 429.878 0 432V448C0 458.609 4.21427 468.783 11.7157 476.284C19.2172 483.786 29.3913 488 40 488H248C258.609 488 268.783 483.786 276.284 476.284C283.786 468.783 288 458.609 288 448V432C288 429.878 287.157 427.843 285.657 426.343C284.157 424.843 282.122 424 280 424ZM272 448C272 454.365 269.471 460.47 264.971 464.971C260.47 469.471 254.365 472 248 472H232V464C232 461.878 231.157 459.843 229.657 458.343C228.157 456.843 226.122 456 224 456C221.878 456 219.843 456.843 218.343 458.343C216.843 459.843 216 461.878 216 464V472H72V464C72 461.878 71.1571 459.843 69.6569 458.343C68.1566 456.843 66.1217 456 64 456C61.8783 456 59.8434 456.843 58.3431 458.343C56.8429 459.843 56 461.878 56 464V472H40C33.6348 472 27.5303 469.471 23.0294 464.971C18.5286 460.47 16 454.365 16 448V440H272V448ZM416 56H432C434.122 56 436.157 55.1571 437.657 53.6569C439.157 52.1566 440 50.1217 440 48C440 45.8783 439.157 43.8434 437.657 42.3431C436.157 40.8429 434.122 40 432 40H416C409.635 40 403.53 42.5286 399.029 47.0294C394.529 51.5303 392 57.6348 392 64V72H384C381.878 72 379.843 72.8429 378.343 74.3431C376.843 75.8434 376 77.8783 376 80C376 82.1217 376.843 84.1566 378.343 85.6569C379.843 87.1571 381.878 88 384 88H392V112C392 114.122 392.843 116.157 394.343 117.657C395.843 119.157 397.878 120 400 120C402.122 120 404.157 119.157 405.657 117.657C407.157 116.157 408 114.122 408 112V88H416C418.122 88 420.157 87.1571 421.657 85.6569C423.157 84.1566 424 82.1217 424 80C424 77.8783 423.157 75.8434 421.657 74.3431C420.157 72.8429 418.122 72 416 72H408V64C408 61.8783 408.843 59.8434 410.343 58.3431C411.843 56.8429 413.878 56 416 56Z" fill="#25E9EA"/>
<path d="M456 8H360C353.635 8 347.53 10.5286 343.029 15.0294C338.529 19.5303 336 25.6348 336 32V48C336 50.1217 336.843 52.1566 338.343 53.6569C339.843 55.1571 341.878 56 344 56C346.122 56 348.157 55.1571 349.657 53.6569C351.157 52.1566 352 50.1217 352 48V32C352 29.8783 352.843 27.8434 354.343 26.3431C355.843 24.8429 357.878 24 360 24H456C458.122 24 460.157 24.8429 461.657 26.3431C463.157 27.8434 464 29.8783 464 32V128C464 130.122 463.157 132.157 461.657 133.657C460.157 135.157 458.122 136 456 136H360C357.878 136 355.843 135.157 354.343 133.657C352.843 132.157 352 130.122 352 128V80C352 77.8783 351.157 75.8434 349.657 74.3431C348.157 72.8429 346.122 72 344 72C341.878 72 339.843 72.8429 338.343 74.3431C336.843 75.8434 336 77.8783 336 80V128C336 134.365 338.529 140.47 343.029 144.971C347.53 149.471 353.635 152 360 152H456C462.365 152 468.47 149.471 472.971 144.971C477.471 140.47 480 134.365 480 128V32C480 25.6348 477.471 19.5303 472.971 15.0294C468.47 10.5286 462.365 8 456 8ZM376 328C376 334.329 377.877 340.516 381.393 345.778C384.909 351.041 389.907 355.142 395.754 357.564C401.601 359.986 408.035 360.62 414.243 359.385C420.45 358.15 426.152 355.103 430.627 350.627C435.103 346.152 438.15 340.45 439.385 334.243C440.62 328.035 439.986 321.601 437.564 315.754C435.142 309.907 431.041 304.909 425.778 301.393C420.516 297.877 414.329 296 408 296C399.513 296 391.374 299.371 385.373 305.373C379.371 311.374 376 319.513 376 328ZM424 328C424 331.165 423.062 334.258 421.304 336.889C419.545 339.52 417.047 341.571 414.123 342.782C411.199 343.993 407.982 344.31 404.879 343.693C401.775 343.075 398.924 341.551 396.686 339.314C394.449 337.076 392.925 334.225 392.307 331.121C391.69 328.018 392.007 324.801 393.218 321.877C394.429 318.953 396.48 316.455 399.111 314.696C401.742 312.938 404.835 312 408 312C412.243 312 416.313 313.686 419.314 316.686C422.314 319.687 424 323.757 424 328Z" fill="#25E9EA"/>
<path d="M456 255.999H360C353.635 255.999 347.53 258.528 343.029 263.029C338.529 267.53 336 273.634 336 279.999V375.999C336 382.364 338.529 388.469 343.029 392.97C347.53 397.471 353.635 399.999 360 399.999H456C462.365 399.999 468.47 397.471 472.971 392.97C477.471 388.469 480 382.364 480 375.999V359.999C480 357.878 479.157 355.843 477.657 354.342C476.157 352.842 474.122 351.999 472 351.999C469.878 351.999 467.843 352.842 466.343 354.342C464.843 355.843 464 357.878 464 359.999V375.999C464 378.121 463.157 380.156 461.657 381.656C460.157 383.156 458.122 383.999 456 383.999H360C357.878 383.999 355.843 383.156 354.343 381.656C352.843 380.156 352 378.121 352 375.999V279.999C352 277.877 352.843 275.843 354.343 274.342C355.843 272.842 357.878 271.999 360 271.999H456C458.122 271.999 460.157 272.842 461.657 274.342C463.157 275.843 464 277.877 464 279.999V327.999C464 330.121 464.843 332.156 466.343 333.656C467.843 335.156 469.878 335.999 472 335.999C474.122 335.999 476.157 335.156 477.657 333.656C479.157 332.156 480 330.121 480 327.999V279.999C480 273.634 477.471 267.53 472.971 263.029C468.47 258.528 462.365 255.999 456 255.999ZM179.76 102.799C181.033 103.588 182.502 104.004 184 103.999C185.252 103.992 186.485 103.69 187.6 103.119L235.6 79.1192C236.91 78.4479 238.01 77.4279 238.778 76.1717C239.546 74.9154 239.952 73.4716 239.952 71.9992C239.952 70.5269 239.546 69.083 238.778 67.8268C238.01 66.5705 236.91 65.5506 235.6 64.8792L187.6 40.8792C186.382 40.2656 185.028 39.9734 183.665 40.0304C182.303 40.0875 180.977 40.492 179.815 41.2053C178.653 41.9187 177.692 42.9174 177.025 44.1064C176.357 45.2955 176.004 46.6355 176 47.9992V95.9992C175.997 97.3588 176.341 98.6966 176.999 99.8864C177.657 101.076 178.607 102.079 179.76 102.799ZM192 60.9592L214.08 71.9992L192 83.0392V60.9592Z" fill="#25E9EA"/>
<path d="M200 144C214.24 144 228.161 139.777 240.001 131.866C251.841 123.954 261.07 112.71 266.519 99.5532C271.969 86.397 273.395 71.9202 270.617 57.9535C267.838 43.9869 260.981 31.1577 250.912 21.0883C240.842 11.019 228.013 4.16163 214.047 1.38349C200.08 -1.39464 185.603 0.0311961 172.447 5.48071C159.291 10.9302 148.046 20.1586 140.134 31.999C132.223 43.8393 128 57.7598 128 72C128 91.0956 135.586 109.409 149.088 122.912C162.591 136.414 180.904 144 200 144ZM200 16C211.076 16 221.903 19.2844 231.112 25.4377C240.321 31.5911 247.499 40.3371 251.737 50.5698C255.976 60.8024 257.085 72.0622 254.924 82.9251C252.763 93.788 247.43 103.766 239.598 111.598C231.766 119.43 221.788 124.763 210.925 126.924C200.062 129.085 188.802 127.976 178.57 123.737C168.337 119.499 159.591 112.321 153.438 103.112C147.284 93.9028 144 83.0758 144 72C144 57.1479 149.9 42.9041 160.402 32.4021C170.904 21.9 185.148 16 200 16ZM280 176C281.242 176 282.467 175.711 283.578 175.155C284.689 174.6 285.655 173.794 286.4 172.8L310.4 140.8C311.673 139.103 312.22 136.969 311.92 134.869C311.62 132.768 310.497 130.873 308.8 129.6C307.103 128.327 304.969 127.78 302.869 128.08C300.768 128.38 298.873 129.503 297.6 131.2L273.6 163.2C272.327 164.897 271.78 167.031 272.08 169.131C272.38 171.232 273.503 173.127 275.2 174.4C276.585 175.439 278.269 176 280 176ZM297.6 204.8C298.345 205.794 299.311 206.6 300.422 207.155C301.533 207.711 302.758 208 304 208C305.731 208 307.415 207.439 308.8 206.4L340.8 182.4C342.497 181.127 343.62 179.232 343.92 177.131C344.22 175.031 343.673 172.897 342.4 171.2C341.127 169.503 339.232 168.38 337.131 168.08C335.031 167.78 332.897 168.327 331.2 169.6L299.2 193.6C297.503 194.873 296.38 196.768 296.08 198.869C295.78 200.969 296.327 203.103 297.6 204.8ZM376 222.4C375.81 221.339 375.407 220.328 374.817 219.427C374.226 218.526 373.46 217.753 372.563 217.155C371.667 216.558 370.659 216.147 369.599 215.949C368.54 215.75 367.452 215.768 366.4 216L326.4 224C325.349 224.105 324.33 224.416 323.399 224.915C322.469 225.414 321.646 226.092 320.977 226.909C319.627 228.559 318.988 230.678 319.2 232.8C319.412 234.922 320.459 236.872 322.109 238.223C323.759 239.573 325.878 240.212 328 240H329.6L369.6 232C370.661 231.81 371.672 231.407 372.573 230.817C373.474 230.226 374.247 229.46 374.845 228.563C375.442 227.667 375.853 226.659 376.051 225.6C376.25 224.54 376.232 223.452 376 222.4ZM8 224H104C106.122 224 108.157 223.157 109.657 221.657C111.157 220.157 112 218.122 112 216V88C112 85.8783 111.157 83.8435 109.657 82.3432C108.157 80.8429 106.122 80 104 80H8C5.87827 80 3.84344 80.8429 2.34315 82.3432C0.842854 83.8435 0 85.8783 0 88V216C0 218.122 0.842854 220.157 2.34315 221.657C3.84344 223.157 5.87827 224 8 224ZM16 96H96V208H16V96Z" fill="#25E9EA"/>
<path d="M72 112H56C53.8783 112 51.8434 112.843 50.3431 114.343C48.8429 115.843 48 117.878 48 120C48 122.122 48.8429 124.157 50.3431 125.657C51.8434 127.157 53.8783 128 56 128H72C74.1217 128 76.1566 127.157 77.6569 125.657C79.1571 124.157 80 122.122 80 120C80 117.878 79.1571 115.843 77.6569 114.343C76.1566 112.843 74.1217 112 72 112ZM72 144H40C37.8783 144 35.8434 144.843 34.3431 146.343C32.8429 147.843 32 149.878 32 152C32 154.122 32.8429 156.157 34.3431 157.657C35.8434 159.157 37.8783 160 40 160H72C74.1217 160 76.1566 159.157 77.6569 157.657C79.1571 156.157 80 154.122 80 152C80 149.878 79.1571 147.843 77.6569 146.343C76.1566 144.843 74.1217 144 72 144ZM72 176H40C37.8783 176 35.8434 176.843 34.3431 178.343C32.8429 179.843 32 181.878 32 184C32 186.122 32.8429 188.157 34.3431 189.657C35.8434 191.157 37.8783 192 40 192H72C74.1217 192 76.1566 191.157 77.6569 189.657C79.1571 188.157 80 186.122 80 184C80 181.878 79.1571 179.843 77.6569 178.343C76.1566 176.843 74.1217 176 72 176ZM272.96 221.6C272.435 220.686 271.735 219.884 270.899 219.241C270.064 218.598 269.111 218.125 268.093 217.85C267.075 217.575 266.013 217.504 264.968 217.639C263.923 217.775 262.914 218.115 262 218.64C261.086 219.165 260.284 219.865 259.641 220.701C258.998 221.536 258.525 222.489 258.25 223.507C257.975 224.525 257.904 225.587 258.039 226.632C258.175 227.677 258.515 228.686 259.04 229.6L294.32 290.64L166.32 338.64H165.12L144.32 350.64L130.48 358.64C128.658 359.693 126.646 360.377 124.559 360.651C122.473 360.926 120.353 360.786 118.32 360.24C114.237 359.137 110.756 356.462 108.64 352.8L92.64 325.12C90.7577 321.499 90.3305 317.295 91.4458 313.368C92.5612 309.442 95.1348 306.091 98.64 304L126.32 288L146.32 322.64C147.025 323.861 148.04 324.874 149.262 325.576C150.484 326.279 151.87 326.646 153.28 326.64C154.687 326.646 156.071 326.28 157.291 325.58C158.512 324.88 159.526 323.871 160.232 322.654C160.938 321.437 161.31 320.055 161.312 318.648C161.313 317.241 160.944 315.859 160.24 314.64L139.6 278.96L240 196.16L243.28 201.84C243.805 202.754 244.505 203.556 245.341 204.199C246.176 204.842 247.129 205.315 248.147 205.59C249.165 205.865 250.227 205.936 251.272 205.801C252.317 205.665 253.326 205.325 254.24 204.8C255.154 204.275 255.956 203.575 256.599 202.739C257.242 201.904 257.715 200.951 257.99 199.933C258.265 198.915 258.336 197.853 258.201 196.808C258.065 195.763 257.725 194.754 257.2 193.84L249.2 180C248.614 178.998 247.816 178.135 246.863 177.472C245.91 176.809 244.824 176.361 243.68 176.16C242.53 175.943 241.347 175.981 240.213 176.272C239.08 176.562 238.024 177.097 237.12 177.84L125.12 270.16L91.04 289.84C84.9241 293.402 80.1618 298.892 77.4983 305.449C74.8347 312.007 74.4204 319.262 76.32 326.08L68.32 330.64C64.198 333.007 60.8718 336.545 58.763 340.805C56.6541 345.065 55.8577 349.855 56.4747 354.568C57.0917 359.281 59.0943 363.704 62.2286 367.278C65.3628 370.851 69.4876 373.414 74.08 374.64C76.1159 375.179 78.2139 375.448 80.32 375.44C84.5286 375.423 88.6616 374.32 92.32 372.24L100.32 367.68C104.163 371.65 108.996 374.522 114.32 376C117.054 376.765 119.881 377.142 122.72 377.12C128.343 377.133 133.867 375.641 138.72 372.8L145.68 368.8L161.68 396.56C164.86 402.058 170.089 406.071 176.222 407.72C182.355 409.37 188.892 408.521 194.4 405.36C197.133 403.785 199.528 401.688 201.45 399.187C203.371 396.685 204.781 393.83 205.598 390.784C206.416 387.738 206.625 384.56 206.213 381.433C205.801 378.306 204.778 375.291 203.2 372.56L188.64 347.2L308.64 302.16C309.728 301.751 310.714 301.11 311.529 300.281C312.345 299.452 312.969 298.455 313.36 297.36C313.749 296.278 313.901 295.125 313.804 293.979C313.708 292.833 313.365 291.722 312.8 290.72L272.96 221.6ZM84 358.32C83.089 358.847 82.083 359.188 81.0397 359.326C79.9964 359.463 78.9362 359.393 77.92 359.12C75.8704 358.588 74.1155 357.264 73.04 355.44C72.5133 354.529 72.1716 353.523 72.0343 352.48C71.897 351.436 71.9669 350.376 72.24 349.36C72.5131 348.338 72.986 347.381 73.6314 346.544C74.2768 345.706 75.0819 345.005 76 344.48L82.96 340.48L90.96 354.32L84 358.32ZM189.28 380.72C189.807 381.631 190.148 382.637 190.286 383.68C190.423 384.724 190.353 385.784 190.08 386.8C189.509 388.834 188.158 390.559 186.32 391.6C184.493 392.65 182.325 392.936 180.288 392.397C178.251 391.858 176.509 390.536 175.44 388.72L159.44 360.96L172.72 353.36H173.36L189.28 380.72Z" fill="#25E9EA"/>
</svg>
