<svg width="512" height="512" viewBox="0 0 512 512" fill="none" xmlns="http://www.w3.org/2000/svg">
<path d="M486.397 459.504V450.971C486.362 445.707 484.705 440.581 481.65 436.294C478.596 432.006 474.294 428.765 469.33 427.012V416.838C469.313 411.561 467.664 406.419 464.608 402.117C461.553 397.814 457.24 394.564 452.263 392.81V261.667C457.24 259.914 461.553 256.663 464.609 252.361C467.664 248.058 469.314 242.916 469.33 237.639V222.589L484.88 191.489L509.495 166.873C510.409 165.96 511.104 164.852 511.527 163.631C511.95 162.411 512.091 161.11 511.937 159.828C511.784 158.545 511.341 157.314 510.643 156.228C509.944 155.142 509.008 154.228 507.904 153.557L260.441 2.54521C259.104 1.72758 257.567 1.29492 255.999 1.29492C254.432 1.29492 252.895 1.72758 251.558 2.54521L4.09326 153.557C2.98994 154.228 2.05361 155.142 1.35496 156.228C0.656314 157.314 0.213615 158.545 0.0602883 159.828C-0.093038 161.11 0.0470171 162.411 0.469879 163.631C0.89274 164.852 1.58735 165.96 2.50128 166.873L27.117 191.489L42.6669 222.589V237.639C42.6831 242.916 44.3324 248.058 47.3882 252.36C50.444 256.662 54.7565 259.913 59.7337 261.666V392.809C54.7565 394.563 50.4439 397.813 47.3881 402.115C44.3323 406.418 42.6831 411.56 42.6669 416.837V427.011C37.703 428.764 33.4006 432.005 30.3463 436.293C27.292 440.58 25.6346 445.706 25.6 450.97V459.503C11.4682 459.518 0.0152994 470.971 0.000299509 485.103V502.169C-9.45198e-05 503.29 0.220214 504.399 0.648644 505.434C1.07707 506.469 1.70523 507.41 2.49724 508.203C3.28925 508.995 4.2296 509.623 5.26457 510.052C6.29955 510.481 7.40888 510.702 8.52922 510.702H503.463C504.584 510.703 505.693 510.482 506.728 510.054C507.764 509.625 508.704 508.997 509.497 508.205C510.289 507.413 510.917 506.473 511.346 505.438C511.775 504.403 511.996 503.294 511.996 502.173V485.103C511.981 470.972 500.528 459.519 486.397 459.504ZM452.264 237.639C452.262 239.901 451.362 242.071 449.763 243.671C448.163 245.27 445.993 246.17 443.731 246.172H392.531C390.269 246.17 388.1 245.27 386.5 243.671C384.9 242.071 384 239.901 383.999 237.639V229.106H452.265V237.639H452.264ZM213.333 392.81V261.667C218.31 259.914 222.623 256.663 225.679 252.361C228.735 248.058 230.384 242.916 230.4 237.639V229.106H281.6V237.639C281.616 242.916 283.265 248.058 286.321 252.36C289.377 256.662 293.689 259.913 298.666 261.666V392.809C293.689 394.563 289.377 397.813 286.321 402.115C283.265 406.418 281.616 411.56 281.6 416.837V425.37H230.4V416.837C230.383 411.56 228.734 406.418 225.678 402.116C222.622 397.814 218.31 394.564 213.333 392.81ZM68.2676 246.173C66.0051 246.171 63.8358 245.271 62.236 243.672C60.6362 242.072 59.7366 239.902 59.7347 237.64V229.107H128.001V237.64C127.999 239.902 127.1 242.072 125.5 243.672C123.9 245.271 121.731 246.171 119.468 246.173H68.2676ZM110.933 263.239V391.237H76.8005V263.239H110.933ZM128 261.667C131.151 260.548 134.05 258.82 136.533 256.581C139.016 258.82 141.915 260.547 145.066 261.666V392.809C141.915 393.928 139.016 395.656 136.533 397.895C134.05 395.657 131.151 393.928 128 392.809V261.667ZM145.067 416.837C145.069 414.575 145.969 412.406 147.569 410.806C149.168 409.206 151.337 408.307 153.6 408.304H204.799C207.062 408.306 209.231 409.206 210.831 410.806C212.431 412.405 213.33 414.575 213.332 416.837V425.37H145.067V416.837ZM162.133 391.237V263.239H196.265V391.237H162.133ZM204.799 246.173H153.6C151.337 246.171 149.168 245.271 147.568 243.672C145.968 242.072 145.069 239.902 145.067 237.64V229.107H213.333V237.64C213.331 239.902 212.431 242.071 210.831 243.671C209.231 245.271 207.062 246.17 204.799 246.173ZM298.665 416.837C298.667 414.575 299.567 412.405 301.167 410.806C302.766 409.206 304.936 408.306 307.198 408.304H358.398C360.66 408.306 362.83 409.206 364.429 410.806C366.029 412.405 366.929 414.575 366.931 416.837V425.37H298.665V416.837ZM315.731 391.237V263.239H349.864V391.237H315.731ZM358.398 246.173H307.198C304.936 246.171 302.766 245.271 301.167 243.672C299.567 242.072 298.667 239.902 298.665 237.64V229.107H366.932V237.64C366.929 239.902 366.029 242.071 364.429 243.671C362.829 245.271 360.66 246.17 358.398 246.173ZM366.931 261.667C370.081 260.548 372.981 258.82 375.464 256.581C377.946 258.82 380.846 260.547 383.997 261.666V392.809C380.846 393.928 377.947 395.656 375.464 397.895C372.981 395.657 370.081 393.928 366.931 392.809V261.667ZM383.998 416.837C384 414.575 384.9 412.406 386.499 410.806C388.099 409.206 390.268 408.307 392.53 408.304H443.73C445.992 408.306 448.162 409.206 449.762 410.806C451.361 412.405 452.261 414.575 452.263 416.837V425.37H383.997L383.998 416.837ZM401.064 391.237V263.239H435.197V391.237H401.064ZM35.401 175.64L22.2341 162.473L255.999 19.824L489.763 162.473L476.597 175.64L260.474 42.6408C259.129 41.8112 257.579 41.3719 255.999 41.3719C254.418 41.3719 252.869 41.8112 251.524 42.6408L35.401 175.64ZM447.714 177.906H64.2837L255.999 59.9287L447.714 177.906ZM56.4757 212.039L47.9428 194.972H464.056L455.523 212.039H56.4757ZM59.7337 416.837C59.7356 414.575 60.6352 412.405 62.235 410.806C63.8348 409.206 66.0041 408.306 68.2666 408.304H119.466C121.729 408.306 123.898 409.206 125.498 410.806C127.098 412.405 127.997 414.575 127.999 416.837V425.37H59.7337V416.837ZM494.929 493.636H17.0681V485.104C17.07 482.841 17.9696 480.672 19.5694 479.072C21.1692 477.472 23.3385 476.572 25.601 476.571H204.799C207.062 476.571 209.233 475.672 210.833 474.071C212.433 472.471 213.332 470.301 213.332 468.038C213.332 465.775 212.433 463.604 210.833 462.004C209.233 460.404 207.062 459.505 204.799 459.505H42.6679V450.972C42.7152 448.665 43.6752 446.472 45.3374 444.872C46.9996 443.273 49.2283 442.398 51.5348 442.439H460.464C462.77 442.398 464.999 443.273 466.661 444.873C468.323 446.472 469.283 448.666 469.331 450.972V459.505H307.198C302.485 459.505 298.665 463.325 298.665 468.038C298.665 472.751 302.485 476.571 307.198 476.571H486.397C488.659 476.572 490.828 477.472 492.428 479.072C494.028 480.672 494.928 482.841 494.929 485.104V493.636Z" fill="#25E9EA"/>
<path d="M256 88.3066C237.157 88.3266 221.887 103.597 221.867 122.44C221.867 141.291 237.149 156.573 256 156.573C274.851 156.573 290.133 141.291 290.133 122.44C290.133 103.589 274.851 88.3066 256 88.3066ZM256 139.507C246.574 139.507 238.933 131.866 238.933 122.44C238.933 113.014 246.574 105.373 256 105.373C265.421 105.384 273.056 113.018 273.067 122.44C273.067 131.866 265.426 139.507 256 139.507Z" fill="#25E9EA"/>
</svg>
