<svg width="512" height="512" viewBox="0 0 512 512" fill="none" xmlns="http://www.w3.org/2000/svg">
<path d="M446.824 317.766C453.277 297.848 456.554 277.074 456.554 255.906C456.554 234.816 453.301 214.117 446.887 194.262C460.992 188.965 473.817 180.484 484.465 169.207C502.867 149.727 512.578 124.242 511.813 97.457C510.227 42.157 463.953 -1.535 408.645 0.043C381.855 0.809 356.973 11.961 338.57 31.445C329.277 41.285 322.207 52.656 317.578 64.953C297.718 58.543 277.02 55.289 255.922 55.289C234.812 55.289 214.098 58.551 194.227 64.969C179.895 27.043 143.215 0 100.332 0C45.008 0 0 45.008 0 100.328C0 143.207 27.047 179.883 64.973 194.211C58.551 214.086 55.293 234.801 55.293 255.906C55.293 277.074 58.57 297.848 65.023 317.766C27.07 332.082 0 368.773 0 411.672C0 426.773 3.273 441.293 9.73 454.824C10.1541 455.713 10.7491 456.51 11.4812 457.169C12.2133 457.828 13.0681 458.337 13.9967 458.665C14.9253 458.994 15.9096 459.137 16.8933 459.085C17.8771 459.033 18.841 458.788 19.73 458.364C21.5244 457.506 22.905 455.971 23.5687 454.096C24.2325 452.221 24.125 450.16 23.27 448.364C17.781 436.864 15 424.52 15 411.672C15 364.625 53.281 326.348 100.332 326.348C147.387 326.348 185.668 364.625 185.668 411.672C185.668 458.722 147.387 497 100.332 497C78.872 497 58.359 489.004 42.578 474.484C39.528 471.68 34.781 471.879 31.98 474.926C31.313 475.651 30.7953 476.5 30.4566 477.425C30.1178 478.349 29.9645 479.332 30.0056 480.316C30.0466 481.3 30.2812 482.267 30.6958 483.16C31.1104 484.053 31.697 484.856 32.422 485.523C50.98 502.598 75.098 512 100.332 512C143.277 512 180.004 484.875 194.289 446.863C214.137 453.27 234.832 456.523 255.922 456.523C277.016 456.523 297.715 453.27 317.562 446.867C331.849 484.88 368.575 512 411.52 512C466.844 512 511.852 466.992 511.852 411.672C511.852 368.773 484.782 332.078 446.824 317.766ZM349.477 41.742C365.125 25.172 386.293 15.688 409.078 15.035C409.903 15.0116 410.729 14.9999 411.555 15C457.485 15 495.496 51.684 496.816 97.883C497.469 120.664 489.211 142.336 473.563 158.91C457.914 175.48 436.746 184.965 413.961 185.617C413.136 185.64 412.31 185.652 411.484 185.652C365.554 185.652 327.543 148.969 326.223 102.77C325.566 79.988 333.828 58.313 349.477 41.742ZM313.355 432.461C294.875 438.469 275.59 441.523 255.922 441.523C236.262 441.523 216.977 438.469 198.496 432.461C199.941 425.625 200.669 418.658 200.668 411.671C200.668 356.351 155.656 311.348 100.332 311.348C93.164 311.348 86.172 312.109 79.426 313.543C73.367 294.996 70.293 275.641 70.293 255.906C70.293 236.234 73.352 216.941 79.371 198.441C86.2608 199.913 93.2867 200.654 100.332 200.652C117.52 200.652 134.477 196.23 149.379 187.867C152.989 185.84 154.273 181.27 152.246 177.657C150.219 174.044 145.648 172.762 142.036 174.789C129.371 181.895 114.949 185.652 100.332 185.652C53.277 185.652 15 147.375 15 100.324C15 53.277 53.281 15 100.332 15C147.387 15 185.668 53.277 185.668 100.328C185.668 120.012 178.805 139.215 166.344 154.406C163.714 157.606 164.184 162.332 167.387 164.961C168.925 166.222 170.901 166.82 172.88 166.625C174.859 166.429 176.679 165.455 177.941 163.918C192.594 146.055 200.668 123.468 200.668 100.324C200.668 93.141 199.898 86.129 198.457 79.367C216.953 73.347 236.25 70.289 255.922 70.289C275.59 70.289 294.879 73.344 313.367 79.355C311.713 87.1904 310.995 95.1943 311.227 103.199C312.785 157.523 357.473 200.656 411.48 200.652C418.537 200.653 425.575 199.917 432.48 198.457C438.496 216.949 441.555 236.242 441.555 255.907C441.555 275.641 438.477 294.997 432.422 313.543C425.551 312.081 418.545 311.345 411.52 311.348C356.195 311.348 311.188 356.352 311.188 411.672C311.188 418.801 311.938 425.754 313.355 432.461ZM411.52 497C364.465 497 326.188 458.723 326.188 411.676C326.188 364.625 364.465 326.348 411.52 326.348C458.574 326.348 496.852 364.625 496.852 411.676C496.852 458.723 458.574 497 411.52 497Z" fill="#25E9EA"/>
<path d="M151.401 56.0554C150.139 55.1964 148.645 54.7432 147.118 54.7565C145.592 54.7697 144.105 55.2487 142.858 56.1294C140.311 57.9249 137.573 59.4328 134.694 60.6254C124.39 52.5624 109.456 52.6564 99.2263 61.5514C93.9491 66.1331 90.5883 72.5321 89.8113 79.4774C84.3188 78.6602 79.0503 76.7327 74.3271 73.8125C69.6039 70.8924 65.5251 67.0407 62.3393 62.4924C61.5755 61.4079 60.5381 60.545 59.3326 59.9914C58.1272 59.4378 56.7967 59.2132 55.4763 59.3404C54.155 59.4684 52.8913 59.9448 51.8143 60.721C50.7373 61.4972 49.8857 62.5454 49.3463 63.7584C49.1323 64.2424 44.0853 75.7734 44.7293 89.8874C45.2223 100.687 49.0853 114.609 63.1753 125.359C58.0862 127.007 52.7465 127.745 47.4013 127.539C45.7164 127.474 44.0588 127.979 42.6957 128.971C41.3326 129.963 40.3435 131.386 39.8882 133.01C39.4328 134.633 39.5376 136.363 40.1857 137.919C40.8338 139.476 41.9873 140.769 43.4603 141.589C55.2263 148.125 67.8313 151.399 80.1473 151.399C91.9793 151.399 103.542 148.375 113.831 142.324C126.733 134.734 136.108 123.114 141.198 108.922C141.358 108.562 141.491 108.188 141.597 107.801C144.214 100.094 145.585 91.6524 145.585 82.6994C145.585 82.3094 145.573 81.9144 145.558 81.5234C149.849 76.4649 152.901 70.4757 154.472 64.0314C154.832 62.5475 154.731 60.9891 154.183 59.5641C153.634 58.1391 152.664 56.9151 151.402 56.0554H151.401ZM130.354 80.3594C130.503 81.1414 130.581 81.9494 130.581 82.7234C130.581 90.0744 129.487 96.8834 127.405 103.035C127.292 103.321 127.196 103.613 127.12 103.91C123.226 114.809 116.136 123.563 106.226 129.395C97.1563 134.735 86.7463 137.008 76.1363 136.238C78.5675 135.035 80.914 133.668 83.1593 132.145C84.2654 131.393 85.1505 130.36 85.7233 129.151C86.2961 127.942 86.5357 126.603 86.4173 125.27C86.2985 123.938 85.8254 122.662 85.0472 121.574C84.2689 120.485 83.2139 119.625 81.9913 119.082C67.9873 112.859 60.4993 102.961 59.7373 89.6684C59.5982 87.0887 59.6899 84.5018 60.0113 81.9384C70.3273 90.5584 83.5423 95.2624 97.3353 94.9064C99.2905 94.8566 101.149 94.045 102.514 92.6447C103.88 91.2444 104.644 89.3662 104.644 87.4104V82.7584C104.617 80.8875 104.998 79.0331 105.763 77.3253C106.527 75.6174 107.656 74.0973 109.069 72.8714C114.429 68.2114 122.577 68.7774 127.237 74.1374C128.153 75.1888 129.343 75.9639 130.675 76.3754C130.212 77.6503 130.101 79.0268 130.355 80.3594H130.354ZM386.839 106.242H397.472V150.965C397.472 152.955 398.262 154.862 399.669 156.269C401.076 157.675 402.983 158.465 404.972 158.465C406.961 158.465 408.869 157.675 410.276 156.269C411.682 154.862 412.472 152.955 412.472 150.965V106.242H424.054C428.194 106.242 431.554 102.882 431.554 98.7424C431.554 94.6024 428.194 91.2424 424.054 91.2424H412.472V70.2584C412.472 63.0554 418.335 57.1914 425.542 57.1914H435.252C439.394 57.1914 442.752 53.8324 442.752 49.6914C442.752 47.7023 441.962 45.7946 440.556 44.3881C439.149 42.9816 437.241 42.1914 435.252 42.1914H425.542C410.065 42.1914 397.472 54.7814 397.472 70.2584V91.2424H386.839C382.699 91.2424 379.339 94.6024 379.339 98.7424C379.339 102.882 382.699 106.242 386.839 106.242ZM83.3153 450.46C85.1013 450.46 86.8853 450 88.4753 449.082L139.526 419.594C141.094 418.687 142.395 417.383 143.301 415.815C144.206 414.246 144.684 412.468 144.686 410.656C144.686 406.984 142.71 403.559 139.526 401.723L88.4763 372.234C86.9075 371.33 85.1285 370.854 83.3178 370.854C81.5071 370.854 79.7282 371.33 78.1593 372.234C76.5915 373.142 75.2895 374.445 74.3832 376.014C73.477 377.582 72.9984 379.361 72.9953 381.172V440.145C72.9953 443.82 74.9753 447.246 78.1593 449.082C79.7264 449.989 81.5051 450.464 83.3153 450.461V450.46ZM87.9953 389.281L125.011 410.661L87.9953 432.039V389.281ZM444.109 358.555H378.929C367.609 358.555 358.397 367.765 358.397 379.09V444.258C358.397 455.582 367.608 464.793 378.929 464.793H444.109C455.429 464.793 464.639 455.582 464.639 444.258V379.09C464.639 367.766 455.429 358.555 444.109 358.555ZM449.639 444.258C449.639 445.725 449.056 447.132 448.019 448.17C446.982 449.208 445.576 449.792 444.109 449.793H378.929C377.462 449.792 376.055 449.208 375.018 448.171C373.981 447.133 373.398 445.726 373.397 444.258V379.09C373.399 377.623 373.982 376.217 375.019 375.179C376.056 374.141 377.462 373.558 378.929 373.555H444.109C445.576 373.558 446.982 374.142 448.018 375.18C449.055 376.217 449.638 377.624 449.639 379.09V444.258Z" fill="#25E9EA"/>
<path d="M411.52 389.005C399.02 389.005 388.848 399.177 388.848 411.677C388.848 424.177 399.02 434.345 411.52 434.345C424.02 434.345 434.191 424.177 434.191 411.677C434.191 399.177 424.02 389.005 411.52 389.005ZM411.52 419.345C407.29 419.345 403.848 415.903 403.848 411.677C403.848 407.447 407.289 404.005 411.52 404.005C415.751 404.005 419.191 407.446 419.191 411.677C419.191 415.903 415.75 419.345 411.52 419.345ZM310.203 178.095C308.213 178.095 306.306 178.885 304.899 180.291C303.493 181.698 302.703 183.606 302.703 185.595V188.958C292.124 195.195 281.05 200.55 269.593 204.97C260.41 208.501 251.004 211.423 241.437 213.716C239.923 212.543 238.063 211.905 236.148 211.903H201.808C193.512 211.903 186.766 218.653 186.766 226.946V266.333C186.766 274.63 193.512 281.376 201.809 281.376H208.672L211.273 331.384C211.324 332.367 211.568 333.331 211.992 334.22C212.416 335.109 213.011 335.905 213.743 336.564C214.474 337.224 215.329 337.732 216.257 338.061C217.185 338.39 218.169 338.532 219.153 338.481C221.139 338.377 223.002 337.489 224.334 336.012C225.665 334.535 226.356 332.589 226.253 330.603L223.691 281.376H236.148C238.137 281.376 239.968 280.696 241.434 279.567C247.522 281.035 253.547 282.756 259.492 284.727C260.427 285.037 261.413 285.16 262.396 285.089C263.378 285.017 264.337 284.753 265.217 284.311C266.098 283.87 266.882 283.259 267.527 282.514C268.171 281.769 268.662 280.904 268.972 279.969C269.282 279.034 269.405 278.048 269.334 277.065C269.263 276.083 268.999 275.124 268.557 274.244C268.115 273.363 267.504 272.579 266.759 271.934C266.014 271.29 265.149 270.799 264.215 270.489C257.83 268.372 251.359 266.524 244.82 264.95V228.337C255.07 225.881 265.146 222.751 274.984 218.966C284.485 215.302 293.742 211.035 302.7 206.191V287.105C299.412 285.329 296.083 283.631 292.716 282.012C291.828 281.584 290.865 281.336 289.882 281.281C288.899 281.226 287.914 281.365 286.984 281.691C286.055 282.017 285.199 282.523 284.465 283.18C283.731 283.837 283.134 284.632 282.708 285.52C282.281 286.407 282.032 287.37 281.978 288.354C281.923 289.338 282.062 290.322 282.388 291.252C282.714 292.182 283.219 293.038 283.876 293.772C284.533 294.506 285.328 295.104 286.216 295.531C291.829 298.238 297.328 301.176 302.7 304.336V307.684C302.7 309.673 303.49 311.581 304.896 312.987C306.303 314.394 308.211 315.184 310.2 315.184C312.189 315.184 314.096 314.394 315.503 312.987C316.909 311.581 317.7 309.673 317.7 307.684V185.594C317.7 184.609 317.507 183.634 317.13 182.724C316.754 181.814 316.202 180.987 315.506 180.291C314.809 179.594 313.983 179.042 313.073 178.665C312.163 178.288 311.188 178.094 310.204 178.094L310.203 178.095ZM229.824 266.372L201.766 266.333L201.809 226.903H229.824V266.372Z" fill="#25E9EA"/>
</svg>
