<svg width="477" height="479" viewBox="0 0 477 479" fill="none" xmlns="http://www.w3.org/2000/svg">
<path d="M286.08 86.4102H262.08V62.4102C262.08 60.2884 261.237 58.2536 259.737 56.7533C258.237 55.253 256.202 54.4102 254.08 54.4102H222.08C219.958 54.4102 217.923 55.253 216.423 56.7533C214.923 58.2536 214.08 60.2884 214.08 62.4102V86.4102H190.08C187.958 86.4102 185.923 87.253 184.423 88.7533C182.923 90.2536 182.08 92.2884 182.08 94.4102V126.41C182.08 128.532 182.923 130.567 184.423 132.067C185.923 133.567 187.958 134.41 190.08 134.41H214.08V158.41C214.08 160.532 214.923 162.567 216.423 164.067C217.923 165.567 219.958 166.41 222.08 166.41H254.08C256.202 166.41 258.237 165.567 259.737 164.067C261.237 162.567 262.08 160.532 262.08 158.41V134.41H286.08C288.202 134.41 290.237 133.567 291.737 132.067C293.237 130.567 294.08 128.532 294.08 126.41V94.4102C294.08 92.2884 293.237 90.2536 291.737 88.7533C290.237 87.253 288.202 86.4102 286.08 86.4102ZM278.08 118.41H254.08C251.958 118.41 249.923 119.253 248.423 120.753C246.923 122.254 246.08 124.288 246.08 126.41V150.41H230.08V126.41C230.08 124.288 229.237 122.254 227.737 120.753C226.237 119.253 224.202 118.41 222.08 118.41H198.08V102.41H222.08C224.202 102.41 226.237 101.567 227.737 100.067C229.237 98.5667 230.08 96.5319 230.08 94.4102V70.4102H246.08V94.4102C246.08 96.5319 246.923 98.5667 248.423 100.067C249.923 101.567 251.958 102.41 254.08 102.41H278.08V118.41ZM459.92 129.29C460.082 127.883 460.162 126.467 460.16 125.05C460.121 117.717 457.577 110.618 452.951 104.928C448.324 99.2393 441.891 95.3023 434.72 93.7702C426.608 92.2261 418.213 93.8209 411.232 98.232C404.252 102.643 399.208 109.541 397.12 117.53L361.92 218.81C361.398 219.017 360.891 219.258 360.4 219.53L289.68 260.97C278.858 267.327 269.882 276.397 263.639 287.284C257.396 298.172 254.101 310.5 254.08 323.05V398.41C251.958 398.41 249.923 399.253 248.423 400.753C246.923 402.254 246.08 404.288 246.08 406.41V470.41C246.08 472.532 246.923 474.567 248.423 476.067C249.923 477.567 251.958 478.41 254.08 478.41H366.08C368.202 478.41 370.237 477.567 371.737 476.067C373.237 474.567 374.08 472.532 374.08 470.41V406.41C374.08 404.288 373.237 402.254 371.737 400.753C370.237 399.253 368.202 398.41 366.08 398.41V380.81C366.095 377.431 366.814 374.093 368.192 371.007C369.569 367.922 371.574 365.157 374.08 362.89L428.16 314.81C434.075 309.634 438.31 302.809 440.32 295.21L475.04 165.37C475.781 162.659 476.158 159.861 476.16 157.05C476.129 151.405 474.611 145.867 471.76 140.994C468.91 136.121 464.826 132.084 459.92 129.29ZM412.4 122.25C413.382 118.113 415.887 114.498 419.416 112.126C422.945 109.753 427.238 108.798 431.44 109.45C435.026 110.201 438.245 112.16 440.56 114.999C442.876 117.839 444.146 121.387 444.16 125.05V125.21C437.014 125.343 430.107 127.806 424.49 132.225C418.872 136.644 414.852 142.776 413.04 149.69L390.72 218.57C387.341 216.967 383.718 215.94 380 215.53L412.4 122.25ZM358.08 462.41H262.08V414.41H358.08V462.41ZM459.6 161.21L424.8 291.13C423.596 295.645 421.092 299.706 417.6 302.81L363.44 350.89C359.249 354.669 355.895 359.284 353.595 364.437C351.294 369.59 350.096 375.167 350.08 380.81V398.41H270.08V323.05C270.12 313.29 272.691 303.706 277.543 295.237C282.394 286.768 289.36 279.702 297.76 274.73L368.4 233.37C370.221 232.309 372.234 231.618 374.324 231.337C376.413 231.057 378.537 231.191 380.574 231.734C382.611 232.277 384.52 233.217 386.193 234.5C387.865 235.783 389.268 237.383 390.32 239.21C392.398 242.907 392.971 247.262 391.92 251.37C391.364 253.399 390.414 255.298 389.124 256.959C387.833 258.62 386.228 260.01 384.4 261.05L338.56 287.53C336.819 288.637 335.572 290.374 335.081 292.378C334.591 294.382 334.893 296.499 335.926 298.285C336.958 300.071 338.641 301.39 340.623 301.965C342.605 302.54 344.732 302.327 346.56 301.37L392.4 274.89C396.064 272.811 399.275 270.02 401.844 266.682C404.414 263.343 406.289 259.524 407.36 255.45C409.538 247.265 408.387 238.55 404.16 231.21L403.68 230.49L428.4 154.25C429.382 150.113 431.887 146.498 435.416 144.126C438.945 141.753 443.238 140.798 447.44 141.45C451.026 142.201 454.245 144.16 456.56 146.999C458.876 149.839 460.146 153.387 460.16 157.05C460.187 158.457 459.998 159.86 459.6 161.21ZM222.08 398.41V323.05C222.059 310.5 218.764 298.172 212.521 287.284C206.278 276.397 197.302 267.327 186.48 260.97L115.76 219.45C115.28 219.21 114.72 219.05 114.24 218.81L79.28 118.09C77.2481 109.984 72.204 102.958 65.1743 98.4396C58.1445 93.9215 49.6574 92.2518 41.44 93.7702C34.2687 95.3023 27.8364 99.2393 23.2095 104.928C18.5825 110.618 16.0388 117.717 16 125.05C15.9979 126.467 16.0781 127.883 16.24 129.29C11.3341 132.084 7.25042 136.121 4.39961 140.994C1.5488 145.867 0.0313919 151.405 0 157.05C0.0155381 159.855 0.364657 162.648 1.04 165.37L35.84 295.13C37.8287 302.761 42.0653 309.618 48 314.81L102 362.89C104.531 365.141 106.558 367.901 107.95 370.989C109.343 374.076 110.068 377.423 110.08 380.81V398.41C107.958 398.41 105.923 399.253 104.423 400.753C102.923 402.254 102.08 404.288 102.08 406.41V470.41C102.08 472.532 102.923 474.567 104.423 476.067C105.923 477.567 107.958 478.41 110.08 478.41H222.08C224.202 478.41 226.237 477.567 227.737 476.067C229.237 474.567 230.08 472.532 230.08 470.41V406.41C230.08 404.288 229.237 402.254 227.737 400.753C226.237 399.253 224.202 398.41 222.08 398.41ZM32 125.05C32.0099 121.398 33.2691 117.859 35.5685 115.021C37.8679 112.183 41.069 110.217 44.64 109.45C48.9573 108.824 53.3519 109.852 56.9424 112.33C60.533 114.808 63.054 118.551 64 122.81L96.16 215.53C92.4424 215.94 88.8192 216.967 85.44 218.57L63.28 150.09C61.4766 143.108 57.4483 136.903 51.8046 132.414C46.1609 127.925 39.2088 125.396 32 125.21V125.05ZM112.64 350.89L58.56 302.81C55.0484 299.69 52.5425 295.597 51.36 291.05L16.48 161.21C16.1488 159.849 15.9876 158.451 16 157.05C16.0099 153.398 17.2691 149.859 19.5685 147.021C21.8679 144.183 25.069 142.217 28.64 141.45C32.9269 140.807 37.2984 141.81 40.8753 144.259C44.4522 146.708 46.9692 150.421 47.92 154.65L72.48 230.49L72 231.21C67.7727 238.55 66.6223 247.265 68.8 255.45C69.8711 259.524 71.7465 263.343 74.3157 266.682C76.8848 270.02 80.096 272.811 83.76 274.89L129.6 301.37C131.428 302.327 133.555 302.54 135.537 301.965C137.519 301.39 139.202 300.071 140.234 298.285C141.267 296.499 141.569 294.382 141.078 292.378C140.588 290.374 139.341 288.637 137.6 287.53L91.76 261.05C89.9318 260.01 88.3266 258.62 87.0363 256.959C85.7459 255.298 84.7957 253.399 84.24 251.37C83.189 247.262 83.7621 242.907 85.84 239.21C86.8853 237.387 88.2794 235.788 89.9426 234.504C91.6059 233.22 93.5058 232.276 95.5339 231.727C97.5619 231.177 99.6784 231.032 101.762 231.3C103.846 231.569 105.857 232.245 107.68 233.29L178.4 274.73C186.8 279.702 193.766 286.768 198.617 295.237C203.469 303.706 206.04 313.29 206.08 323.05V398.41H126.08V380.81C126.066 375.159 124.863 369.574 122.547 364.419C120.231 359.264 116.856 354.654 112.64 350.89ZM214.08 462.41H118.08V414.41H214.08V462.41Z" fill="#25E9EA"/>
<path d="M351.258 23.4668C343.831 16.0271 335.01 10.125 325.3 6.09828C315.589 2.07155 305.18 -0.000742867 294.668 1.99761e-07C284.156 0.000743266 273.747 2.07451 264.037 6.10261C254.327 10.1307 245.507 16.0341 238.082 23.4748C230.657 16.0339 221.837 10.1305 212.128 6.10257C202.418 2.07466 192.009 0.00135823 181.498 0.00135823C170.986 0.00135823 160.577 2.07466 150.868 6.10257C141.158 10.1305 132.339 16.0339 124.914 23.4748C109.94 38.4803 101.531 58.8127 101.531 80.0108C101.531 101.209 109.94 121.541 124.914 136.547L232.434 244.067C233.934 245.567 235.968 246.409 238.09 246.409C240.211 246.409 242.245 245.567 243.746 244.067L351.266 136.547C366.238 121.539 374.646 101.205 374.645 80.0052C374.643 58.8057 366.232 38.4726 351.258 23.4668ZM238.082 227.099L136.218 125.235C127.275 116.28 121.188 104.874 118.726 92.4601C116.264 80.0459 117.538 67.1806 122.387 55.4905C127.236 43.8004 135.442 33.8103 145.967 26.7831C156.493 19.7559 168.866 16.0072 181.522 16.0108C189.929 15.982 198.257 17.6273 206.022 20.851C213.786 24.0746 220.831 28.812 226.746 34.7868L232.426 40.4669C233.926 41.9666 235.96 42.8091 238.082 42.8091C240.203 42.8091 242.237 41.9666 243.738 40.4669L249.434 34.7709C255.373 28.8209 262.427 24.1005 270.193 20.8798C277.958 17.6591 286.283 16.0013 294.69 16.0013C303.097 16.0013 311.421 17.6591 319.187 20.8798C326.952 24.1005 334.006 28.8209 339.946 34.7709C351.929 46.7707 358.66 63.0361 358.66 79.9949C358.66 96.9536 351.929 113.219 339.946 125.219L238.082 227.099Z" fill="#25E9EA"/>
</svg>
