<svg width="496" height="494" viewBox="0 0 496 494" fill="none" xmlns="http://www.w3.org/2000/svg">
<path d="M456.286 384.721H460.331V305.826C460.331 303.704 459.488 301.669 457.988 300.169C456.488 298.669 454.453 297.826 452.331 297.826H367.801C365.679 297.826 363.644 298.669 362.144 300.169C360.644 301.669 359.801 303.704 359.801 305.826V382.357H341.338V305.826C341.338 303.704 340.495 301.669 338.995 300.169C337.495 298.669 335.46 297.826 333.338 297.826H248.808C246.686 297.826 244.651 298.669 243.151 300.169C241.651 301.669 240.808 303.704 240.808 305.826V382.357H205.873V376.801C205.873 364.915 196.203 355.245 184.317 355.245H178.738L159.392 282.121L160.194 280.039C168.593 277.69 176.678 274.338 184.275 270.056L199.71 276.911C201.187 277.567 202.829 277.76 204.419 277.465C206.008 277.17 207.471 276.4 208.614 275.257L231.244 252.627C232.387 251.484 233.157 250.021 233.452 248.432C233.747 246.842 233.554 245.2 232.898 243.723L226.041 228.283C230.321 220.688 233.671 212.606 236.02 204.21L251.776 198.146C253.285 197.565 254.583 196.541 255.498 195.208C256.413 193.876 256.903 192.297 256.903 190.68V158.677C256.903 157.06 256.413 155.482 255.498 154.149C254.583 152.816 253.286 151.792 251.777 151.211L236.026 145.149C234.67 140.315 232.98 135.581 230.969 130.981L295.327 77.055L360.571 134.224C360.892 142.024 363.953 149.128 368.813 154.599C346.244 164.174 330.375 186.557 330.375 212.577C330.375 234.959 342.419 255.841 361.806 267.074C363.022 267.779 364.402 268.15 365.807 268.152C367.213 268.154 368.594 267.785 369.812 267.083C371.029 266.382 372.041 265.372 372.744 264.155C373.447 262.938 373.817 261.557 373.817 260.152V216.407L392.756 205.472L411.695 216.407V260.787C411.695 262.176 412.057 263.542 412.745 264.749C413.433 265.956 414.423 266.963 415.619 267.671C416.814 268.379 418.173 268.763 419.562 268.786C420.952 268.809 422.323 268.47 423.541 267.802C443.726 256.736 456.265 235.575 456.265 212.578C456.265 186.557 440.396 164.175 417.827 154.6C422.97 148.81 426.098 141.191 426.098 132.856C426.098 115.189 412.048 100.743 394.536 100.101L335.05 36.267C334.497 16.177 317.994 0 297.773 0C284.509 0 272.848 6.965 266.232 17.423L171.995 73.372C168.143 71.7957 164.203 70.4424 160.195 69.319L154.131 53.564C153.55 52.0551 152.526 50.7576 151.193 49.8425C149.861 48.9274 148.282 48.4377 146.665 48.438H114.662C113.045 48.438 111.467 48.9278 110.134 49.8428C108.801 50.7579 107.777 52.0553 107.196 53.564L101.13 69.319C92.7346 71.6681 84.6524 75.0192 77.058 79.3L61.617 72.442C60.1394 71.7859 58.4977 71.5928 56.9083 71.8882C55.3188 72.1837 53.8561 72.9538 52.713 74.097L30.083 96.727C28.9399 97.8702 28.17 99.333 27.8748 100.922C27.5795 102.512 27.7727 104.154 28.429 105.631L35.286 121.069C31.0044 128.664 27.6532 136.748 25.305 145.145L9.55 151.209C8.04126 151.79 6.74388 152.814 5.82883 154.147C4.91378 155.48 4.42399 157.058 4.424 158.675V190.678C4.42406 192.295 4.914 193.874 5.82924 195.206C6.74448 196.539 8.04207 197.563 9.551 198.144L25.302 204.206C27.6511 212.605 31.0026 220.69 35.284 228.288L28.429 243.722C27.7729 245.2 27.5798 246.841 27.8752 248.431C28.1707 250.02 28.9408 251.483 30.084 252.626L52.715 275.256C53.5231 276.059 54.4939 276.68 55.562 277.076L60.238 355.244H57.224C45.339 355.244 35.67 364.914 35.67 376.8V386.116C14.825 394.198 0 414.453 0 438.117C0 468.863 25.014 493.877 55.76 493.877H440.239C470.985 493.877 496 468.863 496 438.116C496 412.948 479.233 391.631 456.286 384.721ZM403.914 313.826H416.217V332.314H403.914V313.826ZM375.801 313.826H387.914V340.314C387.914 342.436 388.757 344.471 390.257 345.971C391.757 347.471 393.792 348.314 395.914 348.314H424.217C426.339 348.314 428.374 347.471 429.874 345.971C431.374 344.471 432.217 342.436 432.217 340.314V313.826H444.331V382.523C442.969 382.418 441.605 382.362 440.239 382.357H375.801V313.826ZM284.921 313.826H297.224V332.314H284.921V313.826ZM256.808 313.826H268.921V340.314C268.921 342.436 269.764 344.471 271.264 345.971C272.764 347.471 274.799 348.314 276.921 348.314H305.224C307.346 348.314 309.381 347.471 310.881 345.971C312.381 344.471 313.224 342.436 313.224 340.314V313.826H325.338V382.357H256.808V313.826ZM231.242 96.727L208.611 74.097C207.711 73.2001 206.609 72.5315 205.398 72.147L260.532 39.414C261.257 52.354 268.609 63.545 279.239 69.658L230.875 110.183L232.897 105.631C233.553 104.153 233.746 102.512 233.451 100.922C233.156 99.3327 232.385 97.87 231.242 96.727ZM440.266 212.574C440.266 224.436 435.775 235.859 427.697 244.546V211.785C427.697 210.381 427.328 209.001 426.625 207.785C425.923 206.569 424.913 205.559 423.697 204.857L396.758 189.303C395.542 188.601 394.162 188.231 392.758 188.231C391.354 188.231 389.974 188.601 388.758 189.303L361.819 204.857C360.603 205.559 359.593 206.569 358.891 207.785C358.188 209.001 357.819 210.381 357.819 211.785V243.261C350.562 234.841 346.378 223.969 346.378 212.574C346.378 186.689 367.438 165.629 393.322 165.629C419.206 165.63 440.266 186.689 440.266 212.574ZM393.32 116.075C402.571 116.075 410.097 123.601 410.097 132.852C410.097 142.103 402.571 149.629 393.32 149.629C384.069 149.629 376.543 142.103 376.543 132.852C376.543 123.601 384.069 116.075 393.32 116.075ZM364.822 116.673L313.061 71.318C320.542 67.9369 326.708 62.1968 330.615 54.977L376.809 104.546C371.821 107.47 367.687 111.651 364.822 116.673ZM297.772 16C309.519 16 319.076 25.557 319.076 37.304C319.076 49.051 309.519 58.608 297.772 58.608C286.025 58.608 276.468 49.051 276.468 37.304C276.468 25.557 286.025 16 297.772 16ZM45.28 245.197L51.576 231.022C52.1033 229.834 52.3334 228.536 52.2463 227.239C52.1591 225.943 51.7575 224.687 51.076 223.58C45.89 215.168 42.0817 205.98 39.795 196.366C39.4944 195.102 38.8902 193.93 38.0349 192.952C37.1795 191.974 36.0987 191.219 34.886 190.753L20.423 185.186V164.168L34.89 158.599C36.1026 158.132 37.1831 157.377 38.0383 156.399C38.8935 155.421 39.4974 154.249 39.798 152.985C42.0847 143.373 45.8927 134.188 51.078 125.778C51.7595 124.671 52.1611 123.415 52.2482 122.119C52.3354 120.822 52.1053 119.524 51.578 118.336L45.28 104.156L60.141 89.294L74.323 95.592C75.5106 96.1192 76.8088 96.3492 78.1053 96.2621C79.4018 96.175 80.6576 95.7734 81.764 95.092C90.1741 89.9074 99.3585 86.0998 108.97 83.813C110.234 83.512 111.405 82.9078 112.383 82.0525C113.361 81.1972 114.116 80.1165 114.583 78.904L120.152 64.436H141.17L146.739 78.904C147.206 80.1165 147.961 81.1972 148.939 82.0525C149.917 82.9078 151.088 83.512 152.352 83.813C161.964 86.1005 171.148 89.9081 179.559 95.092C180.665 95.7735 181.921 96.1751 183.218 96.262C184.514 96.3489 185.812 96.1186 187 95.591L201.181 89.293L216.043 104.155L209.747 118.33C209.22 119.518 208.99 120.816 209.077 122.113C209.164 123.409 209.566 124.665 210.247 125.772C215.433 134.184 219.241 143.37 221.527 152.984C221.828 154.248 222.432 155.42 223.287 156.398C224.143 157.376 225.223 158.131 226.436 158.598L240.9 164.165V185.183L226.432 190.752C225.219 191.218 224.138 191.973 223.283 192.952C222.428 193.93 221.823 195.102 221.523 196.366C219.236 205.978 215.428 215.162 210.244 223.573C209.563 224.68 209.162 225.935 209.075 227.232C208.988 228.528 209.218 229.826 209.745 231.014L216.043 245.195L201.182 260.057L187.006 253.762C185.818 253.234 184.52 253.004 183.223 253.091C181.926 253.178 180.67 253.58 179.564 254.262C171.152 259.448 161.966 263.256 152.352 265.543C151.088 265.844 149.916 266.448 148.938 267.303C147.96 268.159 147.205 269.239 146.738 270.452L141.171 284.915H120.153L114.584 270.447C114.117 269.235 113.362 268.154 112.384 267.299C111.406 266.443 110.235 265.839 108.971 265.538C99.3597 263.251 90.1754 259.443 81.765 254.259C80.6585 253.578 79.4028 253.176 78.1063 253.089C76.8099 253.002 75.5117 253.232 74.324 253.759L60.142 260.057L45.28 245.197ZM71.322 272.601L77.059 270.053C84.6535 274.334 92.7356 277.684 101.131 280.033L107.195 295.788C107.776 297.297 108.8 298.594 110.133 299.51C111.465 300.425 113.044 300.914 114.661 300.914H146.665C147.046 300.914 147.421 300.88 147.791 300.828L162.188 355.243H76.265L71.322 272.601ZM51.669 376.801C51.6703 375.328 52.2558 373.916 53.2971 372.874C54.3383 371.833 55.7502 371.247 57.223 371.245H184.318C185.791 371.247 187.203 371.832 188.245 372.874C189.287 373.916 189.872 375.328 189.874 376.801V382.357H55.76C54.383 382.357 53.022 382.425 51.669 382.523V376.801ZM440.239 477.878H55.76C33.836 477.878 16 460.042 16 438.117C16 416.193 33.836 398.357 55.76 398.357H440.239C462.163 398.357 480 416.193 480 438.118C480 460.041 462.163 477.878 440.239 477.878ZM274.84 412.869C274.84 414.991 273.997 417.026 272.497 418.526C270.997 420.026 268.962 420.869 266.84 420.869H229.16C227.038 420.869 225.003 420.026 223.503 418.526C222.003 417.026 221.16 414.991 221.16 412.869C221.16 410.747 222.003 408.712 223.503 407.212C225.003 405.712 227.038 404.869 229.16 404.869H266.84C268.962 404.869 270.997 405.712 272.497 407.212C273.997 408.712 274.84 410.747 274.84 412.869ZM402.999 463.365C402.999 465.487 402.156 467.522 400.656 469.022C399.156 470.522 397.121 471.365 394.999 471.365H357.319C355.197 471.365 353.162 470.522 351.662 469.022C350.162 467.522 349.319 465.487 349.319 463.365C349.319 461.243 350.162 459.208 351.662 457.708C353.162 456.208 355.197 455.365 357.319 455.365H394.999C397.121 455.365 399.156 456.208 400.656 457.708C402.156 459.208 402.999 461.243 402.999 463.365ZM146.68 412.869C146.68 414.991 145.837 417.026 144.337 418.526C142.837 420.026 140.802 420.869 138.68 420.869H101C98.8783 420.869 96.8434 420.026 95.3431 418.526C93.8429 417.026 93 414.991 93 412.869C93 410.747 93.8429 408.712 95.3431 407.212C96.8434 405.712 98.8783 404.869 101 404.869H138.68C140.802 404.869 142.837 405.712 144.337 407.212C145.837 408.712 146.68 410.747 146.68 412.869ZM402.999 412.869C402.999 414.991 402.156 417.026 400.656 418.526C399.156 420.026 397.121 420.869 394.999 420.869H357.319C355.197 420.869 353.162 420.026 351.662 418.526C350.162 417.026 349.319 414.991 349.319 412.869C349.319 410.747 350.162 408.712 351.662 407.212C353.162 405.712 355.197 404.869 357.319 404.869H394.999C397.121 404.869 399.156 405.712 400.656 407.212C402.156 408.712 402.999 410.747 402.999 412.869ZM274.84 463.365C274.84 465.487 273.997 467.522 272.497 469.022C270.997 470.522 268.962 471.365 266.84 471.365H229.16C227.038 471.365 225.003 470.522 223.503 469.022C222.003 467.522 221.16 465.487 221.16 463.365C221.16 461.243 222.003 459.208 223.503 457.708C225.003 456.208 227.038 455.365 229.16 455.365H266.84C268.962 455.365 270.997 456.208 272.497 457.708C273.997 459.208 274.84 461.243 274.84 463.365ZM146.68 463.365C146.68 465.487 145.837 467.522 144.337 469.022C142.837 470.522 140.802 471.365 138.68 471.365H101C98.8783 471.365 96.8434 470.522 95.3431 469.022C93.8429 467.522 93 465.487 93 463.365C93 461.243 93.8429 459.208 95.3431 457.708C96.8434 456.208 98.8783 455.365 101 455.365H138.68C140.802 455.365 142.837 456.208 144.337 457.708C145.837 459.208 146.68 461.243 146.68 463.365ZM55.76 404.869C37.427 404.869 22.512 419.784 22.512 438.117C22.512 456.45 37.427 471.365 55.76 471.365C74.094 471.365 89.009 456.45 89.009 438.117C89.009 419.784 74.094 404.869 55.76 404.869ZM55.76 455.366C46.249 455.366 38.512 447.629 38.512 438.118C38.512 428.607 46.249 420.87 55.76 420.87C65.271 420.87 73.009 428.607 73.009 438.118C73.009 447.629 65.271 455.366 55.76 455.366ZM183.92 404.869C165.587 404.869 150.672 419.784 150.672 438.117C150.672 456.45 165.587 471.365 183.92 471.365C202.253 471.365 217.168 456.45 217.168 438.117C217.168 419.784 202.253 404.869 183.92 404.869ZM183.92 455.366C174.409 455.366 166.672 447.629 166.672 438.118C166.672 428.607 174.409 420.87 183.92 420.87C193.431 420.87 201.168 428.607 201.168 438.118C201.168 447.629 193.431 455.366 183.92 455.366ZM312.08 404.869C293.746 404.869 278.831 419.784 278.831 438.117C278.831 456.45 293.746 471.365 312.08 471.365C330.413 471.365 345.328 456.45 345.328 438.117C345.328 419.784 330.413 404.869 312.08 404.869ZM312.08 455.366C302.569 455.366 294.831 447.629 294.831 438.118C294.831 428.607 302.569 420.87 312.08 420.87C321.591 420.87 329.328 428.607 329.328 438.118C329.328 447.629 321.591 455.366 312.08 455.366ZM440.239 404.869C421.906 404.869 406.991 419.784 406.991 438.117C406.991 456.45 421.906 471.365 440.239 471.365C458.572 471.365 473.487 456.45 473.487 438.117C473.487 419.784 458.572 404.869 440.239 404.869ZM440.239 455.366C430.728 455.366 422.991 447.629 422.991 438.118C422.991 428.607 430.728 420.87 440.239 420.87C449.75 420.87 457.487 428.607 457.487 438.118C457.487 447.629 449.75 455.366 440.239 455.366ZM286.774 37.304C286.774 31.229 291.698 26.305 297.773 26.305C303.847 26.305 308.772 31.229 308.772 37.304C308.772 43.379 303.848 48.303 297.773 48.303C291.698 48.303 286.774 43.379 286.774 37.304ZM130.662 238.491C165.85 238.491 194.476 209.865 194.476 174.678C194.476 139.49 165.849 110.864 130.662 110.864C95.475 110.864 66.849 139.491 66.849 174.678C66.849 209.864 95.476 238.491 130.662 238.491ZM130.662 126.863C157.027 126.863 178.476 148.312 178.476 174.677C178.476 201.041 157.027 222.49 130.662 222.49C104.298 222.49 82.849 201.041 82.849 174.677C82.849 148.312 104.298 126.863 130.662 126.863Z" fill="#25E9EA"/>
</svg>
