<svg width="639" height="800" viewBox="0 0 639 800" fill="none" xmlns="http://www.w3.org/2000/svg">
<path d="M630.599 0H7.98045C3.57325 0 0 3.57325 0 7.98045V792.02C0 796.427 3.57325 800 7.98045 800H630.599C635.006 800 638.579 796.427 638.579 792.02V7.98045C638.579 3.57325 635.006 0 630.599 0ZM622.619 784.039H15.9609V15.9609H622.619V784.039Z" fill="#00ECE5"/>
<path d="M296.584 257.165C300.991 257.165 304.564 253.592 304.564 249.185V225.598L319.181 226.233C323.6 226.442 327.309 223.011 327.5 218.608C327.692 214.204 324.278 210.48 319.875 210.288L296.931 209.29C294.728 209.185 292.638 209.995 291.065 211.497C289.493 213.003 288.605 215.086 288.605 217.263V249.185C288.603 253.592 292.177 257.165 296.584 257.165Z" fill="#00ECE5"/>
<path d="M290.731 608.122C287.326 605.329 282.294 605.823 279.501 609.233C276.706 612.641 277.205 617.67 280.612 620.464L330.49 661.363C331.974 662.58 333.766 663.173 335.546 663.173C337.852 663.173 340.144 662.177 341.72 660.252C344.516 656.844 344.017 651.815 340.609 649.022L290.731 608.122Z" fill="#00ECE5"/>
<path d="M451.548 438.727C401.814 436.886 382.659 475.665 379.544 496.284L368.571 563.121C367.859 567.472 370.804 571.574 375.153 572.29C375.592 572.362 376.027 572.398 376.456 572.398C380.294 572.398 383.678 569.619 384.321 565.708L395.31 498.768C395.593 496.897 402.867 452.982 450.977 454.676C455.34 454.832 459.079 451.392 459.237 446.987C459.397 442.582 455.953 438.885 451.548 438.727Z" fill="#00ECE5"/>
<path d="M78.582 714.215C78.582 718.623 82.1553 722.196 86.5625 722.196H552.018C556.425 722.196 559.999 718.623 559.999 714.215V85.7851C559.999 81.3779 556.425 77.8047 552.018 77.8047H86.5625C82.1553 77.8047 78.582 81.3779 78.582 85.7851V714.215ZM233.876 327.421C229.528 339.92 229.943 357.555 230.699 367.902C212.32 371.312 170.934 387.883 152.593 467.135C146.988 474.136 138.886 481.605 130.339 489.484C118.263 500.613 105.177 512.685 94.5449 527.108V247.19H213.569C213.513 275.756 219.245 312.53 233.876 327.421ZM544.038 553.09C528.538 495.619 502.1 422.382 465.791 370.314C454.874 354.658 430.524 333.69 417.442 322.423L416.803 321.873C414.024 303.773 410.17 274.403 406.726 247.192H544.04V553.09H544.038ZM291.399 575.346C281.702 570.021 272.311 565.791 263.677 562.465C263.718 560.574 263.603 558.555 263.706 556.953C267.244 502.714 299.483 456.629 359.524 419.97C405.142 392.121 450.431 380.569 450.884 380.453C451.556 380.284 452.318 380.158 453.112 380.048C455.556 383.574 457.961 387.209 460.321 390.955C448.951 393.222 417.109 400.961 383.78 421.582C347.737 443.882 303.677 485.777 293.039 560.139C292.502 563.898 291.462 574.031 291.399 575.346ZM321.872 421.794C282.915 425.277 250.603 407.511 238.167 392.613C242.046 377.458 273.87 353.128 296.662 339.881C299.315 338.338 300.851 335.408 300.608 332.347L299.253 315.315C300.47 315.419 301.691 315.494 302.918 315.522L305.059 315.562C320.114 315.881 334.736 310.692 346.186 300.876L346.264 300.808L349.973 407.124C342.665 411.631 335.718 416.301 329.16 421.135C325.966 421.375 323.209 421.676 321.872 421.794ZM265.722 212.275C265.702 212.275 265.682 212.275 265.666 212.275L255.63 212.345L253.035 179.623C253.1 179.478 253.182 179.334 253.238 179.184C258.266 174.474 270.222 164.616 283.432 163.359C307.776 161.037 337.707 164.514 342.551 194.086L345.554 280.398L335.8 288.754C327.345 296.004 316.593 299.851 305.392 299.603L303.246 299.563C291.163 299.296 279.496 294.073 271.238 285.242C267.784 281.536 264.985 277.288 262.93 272.631C260.873 267.947 259.636 263.029 259.249 257.991L256.895 228.296L265.773 228.236C270.181 228.204 273.73 224.609 273.7 220.202C273.668 215.813 270.103 212.275 265.722 212.275ZM401.485 327.244C401.78 329.105 402.722 330.801 404.148 332.034L407.027 334.518C415.417 341.742 430.314 354.583 441.656 366.438C429.648 369.903 399.171 379.681 365.629 398.02L361.643 283.746C361.641 283.702 361.639 283.656 361.637 283.612L358.488 193.046C358.476 192.733 358.446 192.42 358.398 192.109C353.395 159.588 325.517 143.33 281.922 147.47C275.432 148.088 269.335 150.066 263.88 152.623C272.303 141.764 286.81 131.473 311.607 131.473C330.682 131.473 347.497 139.097 361.587 154.132C374.818 168.249 383.124 186.427 385.604 206.697C389.658 239.826 397.11 299.539 401.485 327.244ZM238.821 202.288L243.338 259.232C243.861 266.047 245.535 272.717 248.324 279.066C251.107 285.372 254.888 291.112 259.573 296.14C266.071 303.089 274.131 308.372 282.953 311.66L284.308 328.7C278.502 332.291 267.681 339.278 256.682 347.901C252.855 350.902 249.38 353.818 246.193 356.669C246.08 345.846 247.101 334.588 250.487 329.318C251.712 327.413 252.071 325.075 251.47 322.89C250.87 320.704 249.37 318.878 247.345 317.863C233.481 310.93 225.279 250.589 231.601 223.043C233.411 215.154 236.048 208.167 238.821 202.288ZM94.5429 706.235V559.486C103.83 535.659 123.628 517.374 141.153 501.221C147.84 495.06 154.245 489.135 159.715 483.239C167.889 483.682 189.331 486.294 195.222 501.479C198.293 515.945 204.168 528.514 212.741 538.646C214.319 540.509 216.572 541.471 218.838 541.471C220.66 541.471 222.489 540.85 223.99 539.583C227.354 536.736 227.772 531.701 224.927 528.335C195.378 493.414 215.207 433.926 215.411 433.328C216.839 429.162 214.623 424.627 210.457 423.194C206.271 421.76 201.746 423.981 200.314 428.146C200.076 428.841 194.464 445.364 193.042 467.003C192.842 470.038 192.758 473.012 192.744 475.943C184.758 471.303 175.838 469.102 168.777 468.074C182.2 412.796 207.039 393.413 223.333 386.63C222.436 389.333 221.931 391.965 221.833 394.525C221.765 396.276 222.278 398 223.287 399.433C230.793 410.067 244.402 420.276 260.624 427.444C271.635 432.308 288.097 437.591 308.379 438.146C271.396 471.835 250.652 511.865 247.781 555.913C247.76 556.258 247.722 556.614 247.678 556.971C231.196 551.985 219.886 550.624 218.717 550.497C216.975 550.303 215.185 550.696 213.675 551.62C204.978 556.935 199.123 565.228 196.743 575.603C194.552 585.156 195.541 595.845 199.262 605.075C191.633 608.582 182.978 610.378 176.139 611.306C159.568 582.548 176.528 568.467 178.663 566.86C182.194 564.275 182.984 559.321 180.423 555.762C177.849 552.184 172.859 551.376 169.284 553.948C159.057 561.31 145.674 581.592 157.93 610.515C149.237 607.104 135.706 597.525 138.004 571.092C139.002 559.622 142.894 551.135 149.578 545.87C160.687 537.111 176.502 539.346 176.716 539.382C181.035 540.038 185.127 537.091 185.819 532.75C186.514 528.395 183.545 524.307 179.194 523.614C178.27 523.465 156.527 520.189 139.842 533.221C129.473 541.321 123.506 553.597 122.103 569.707C117.489 622.787 162.68 628.166 163.135 628.212C163.414 628.242 194.546 628.104 214.286 614.947C214.631 614.717 222.428 610.037 222.428 610.037C223.776 611.786 225.578 614.041 227.711 616.583L196.17 633.164C193.546 634.543 191.902 637.264 191.902 640.227V664.168C191.902 668.575 195.476 672.149 199.883 672.149C204.29 672.149 207.863 668.575 207.863 664.168V645.047L238.813 628.775C242.929 632.944 247.634 637.312 252.831 641.583L225.582 649.524C223.208 650.216 221.292 651.968 220.387 654.268L209.414 682.2C207.799 686.304 209.82 690.934 213.922 692.544C214.88 692.924 215.87 693.099 216.839 693.099C220.026 693.099 223.034 691.178 224.269 688.036L233.81 663.751L269.327 653.402C275.117 656.95 281.281 660.132 287.797 662.638C288.739 663.001 289.707 663.172 290.658 663.172C293.865 663.172 296.889 661.225 298.108 658.055C299.69 653.941 297.639 649.324 293.523 647.742C257.53 633.896 233.66 599.191 233.429 598.85C231.479 595.971 227.896 594.682 224.564 595.66L213.972 598.774C211.59 592.619 210.892 585.321 212.302 579.168C213.501 573.945 216.017 569.787 219.8 566.773C233.299 568.977 291.997 581.122 335.55 630.538C337.129 632.328 339.329 633.242 341.542 633.242C343.415 633.242 345.299 632.585 346.815 631.249C350.121 628.334 350.44 623.292 347.525 619.984C344.766 616.854 341.945 613.893 339.096 611.036L398.614 600.233C400.511 600.017 423.599 597.807 438.001 616.214C439.576 618.227 441.922 619.276 444.292 619.276C446.012 619.276 447.744 618.723 449.204 617.58C452.675 614.863 453.288 609.847 450.571 606.378C430.023 580.124 397.68 584.244 396.31 584.435C396.198 584.451 396.088 584.469 395.974 584.489L324.214 597.513C318.588 592.889 312.902 588.703 307.23 584.928C307.308 580.711 307.35 575.699 307.587 573.121C307.972 568.949 308.465 564.845 309.069 560.807C317.156 506.708 344.912 464.575 391.699 435.448C429.552 411.886 466.412 406.046 467.034 405.951C467.491 405.883 468.245 405.787 469.103 405.667C513.71 484.502 541.492 596.783 544.04 633.543V706.229H94.5429V706.235ZM544.038 93.7656V231.229H404.719C403.502 221.473 402.383 212.401 401.449 204.758C398.554 181.104 388.796 159.824 373.234 143.216C356.006 124.831 335.273 115.51 311.607 115.51C260.143 115.51 240.404 153.745 236.99 174.534C231.839 181.241 221.173 197.14 216.045 219.466C215.289 222.758 214.699 226.754 214.28 231.227H94.5429V93.7636L544.038 93.7656Z" fill="#00ECE5"/>
</svg>
