<svg width="512" height="419" viewBox="0 0 512 419" fill="none" xmlns="http://www.w3.org/2000/svg">
<path d="M492.502 94.909L284.741 5.86654C266.476 -1.96113 245.514 -1.955 227.226 5.88186L19.5099 94.9039C7.47623 100.06 0 111.396 0 124.487C0 137.571 7.47112 148.901 19.4976 154.055L44.0513 164.579C44.0258 164.832 44.0125 165.089 44.0125 165.349V281.542C34.5216 284.748 27.6665 293.73 27.6665 304.289C27.6665 310.411 29.9734 316.002 33.7585 320.248C29.5719 324.352 26.792 329.916 26.2179 336.22L20.3354 400.932C20.1385 403.123 20.3994 405.331 21.1013 407.416C21.8032 409.501 22.9308 411.417 24.4127 413.043C25.8977 414.666 27.704 415.963 29.7168 416.851C31.7297 417.738 33.9052 418.198 36.1051 418.2H67.2431C71.6811 418.2 75.9433 416.32 78.9356 413.043C80.4176 411.417 81.5453 409.501 82.2472 407.416C82.9491 405.331 83.2098 403.123 83.0129 400.932L77.1304 336.22C76.5573 329.917 73.7764 324.353 69.5898 320.248C73.3749 316.003 75.6817 310.412 75.6817 304.289C75.6817 293.731 68.8267 284.749 59.3358 281.542V171.129L101.261 189.097C101.235 189.353 101.222 189.61 101.222 189.867V248.368C101.222 272.784 117.94 295.371 148.298 311.97C177.191 327.768 215.441 336.469 255.998 336.469C296.555 336.469 334.805 327.768 363.698 311.97C394.055 295.371 410.774 272.784 410.774 248.368V189.867C410.774 189.607 410.76 189.351 410.735 189.098L492.489 154.061C504.523 148.904 511.999 137.567 511.999 124.477C512 111.393 504.529 100.063 492.502 94.909ZM67.6201 402.709C67.4689 402.876 67.3044 402.876 67.2431 402.876H36.1051C36.0428 402.876 35.8794 402.876 35.7282 402.709C35.5759 402.543 35.5913 402.38 35.5964 402.319L41.4789 337.608C41.6994 335.059 42.8704 332.687 44.7593 330.962C46.6482 329.237 49.1168 328.286 51.6746 328.297C54.2323 328.286 56.7006 329.238 58.5893 330.963C60.478 332.687 61.6489 335.059 61.8694 337.608L67.7519 402.318C67.758 402.38 67.7723 402.543 67.6201 402.709ZM51.6746 312.973C46.8863 312.973 42.9909 309.078 42.9909 304.289C42.9909 299.501 46.8863 295.606 51.6746 295.606C56.463 295.606 60.3584 299.501 60.3584 304.289C60.3584 309.078 56.463 312.973 51.6746 312.973ZM395.45 215.677C395.45 235.49 379.143 254.835 350.71 268.75C349.807 269.193 348.999 269.808 348.333 270.563C347.668 271.317 347.157 272.196 346.831 273.147C346.504 274.099 346.369 275.106 346.432 276.11C346.495 277.114 346.755 278.096 347.197 279C347.639 279.904 348.255 280.712 349.01 281.378C349.765 282.044 350.643 282.554 351.595 282.88C352.547 283.207 353.554 283.342 354.558 283.279C355.562 283.216 356.544 282.956 357.448 282.514C373.219 274.795 385.854 265.392 394.863 254.937C391.99 271.095 378.573 286.373 356.349 298.525C329.67 313.113 294.033 321.146 256 321.146C217.967 321.146 182.33 313.113 155.651 298.525C133.508 286.417 120.104 271.205 117.166 255.112C124.911 264.04 135.361 272.204 148.299 279.279C177.192 295.077 215.442 303.779 255.999 303.779C267.345 303.779 278.662 303.088 289.634 301.727C290.632 301.603 291.597 301.284 292.472 300.787C293.347 300.291 294.116 299.627 294.734 298.833C295.353 298.04 295.809 297.132 296.077 296.162C296.345 295.192 296.419 294.179 296.295 293.18C296.171 292.181 295.853 291.217 295.356 290.341C294.86 289.466 294.196 288.697 293.402 288.078C292.608 287.46 291.7 287.004 290.73 286.736C289.76 286.469 288.747 286.395 287.748 286.519C277.399 287.803 266.717 288.454 255.999 288.454C217.966 288.454 182.329 280.421 155.65 265.833C130.435 252.046 116.548 234.234 116.548 215.677V195.649L227.259 243.098C236.386 247.01 246.185 248.966 255.99 248.966C265.806 248.966 275.625 247.005 284.774 243.084L395.45 195.651V215.677ZM486.453 139.976L278.736 228.997C264.286 235.19 247.724 235.195 233.295 229.012L74.5457 160.975L220.003 135.678C226.546 143.421 239.879 148.491 255.999 148.491C279.005 148.491 296.353 138.17 296.353 124.483C296.353 110.796 279.005 100.475 255.999 100.475C235.105 100.475 218.879 108.989 216.077 120.805L50.3619 149.625C49.8852 149.709 49.4176 149.838 48.9653 150.01L25.5354 139.968C19.1411 137.23 15.3243 131.441 15.3243 124.487C15.3243 117.526 19.1462 111.731 25.5467 108.988L233.263 19.9659C240.453 16.8937 248.192 15.3123 256.011 15.3176C263.755 15.3176 271.497 16.8622 278.705 19.9506L486.466 108.993C492.859 111.733 496.676 117.522 496.676 124.476C496.676 131.439 492.854 137.233 486.453 139.976ZM230.969 124.484C230.969 122.252 239.575 115.8 255.999 115.8C272.423 115.8 281.029 122.252 281.029 124.484C281.029 126.716 272.423 133.168 255.999 133.168C239.575 133.168 230.969 126.715 230.969 124.484Z" fill="#00ECE5"/>
<path d="M313.202 297.471C313.773 297.471 314.354 297.406 314.934 297.272C320.636 295.958 326.284 294.42 331.865 292.66C335.9 291.384 338.136 287.079 336.86 283.044C335.584 279.01 331.28 276.771 327.243 278.048C322.049 279.686 316.792 281.117 311.485 282.34C309.505 282.798 307.788 284.023 306.711 285.746C305.634 287.469 305.286 289.55 305.743 291.53C306.133 293.217 307.082 294.722 308.437 295.801C309.791 296.88 311.471 297.468 313.202 297.471Z" fill="#00ECE5"/>
</svg>
