<svg width="512" height="511" viewBox="0 0 512 511" fill="none" xmlns="http://www.w3.org/2000/svg">
<path d="M504.507 223.919C502.52 223.919 500.614 224.708 499.209 226.113C497.804 227.519 497.015 229.424 497.015 231.412V279.491C497.015 288.867 512 289.294 512 279.491V231.412C512 229.424 511.211 227.519 509.805 226.113C508.4 224.708 506.495 223.919 504.507 223.919ZM473.476 175.045C471.488 175.045 469.583 175.834 468.178 177.239C466.772 178.644 465.983 180.55 465.983 182.537V328.366C465.983 337.743 480.968 338.169 480.968 328.366V182.537C480.968 180.55 480.179 178.644 478.774 177.239C477.369 175.834 475.463 175.045 473.476 175.045ZM442.443 191.362C440.456 191.362 438.55 192.151 437.145 193.556C435.74 194.961 434.95 196.867 434.95 198.854V312.048C434.95 321.425 449.936 321.851 449.936 312.048V198.854C449.936 196.867 449.146 194.961 447.741 193.556C446.336 192.151 444.43 191.362 442.443 191.362ZM411.411 141.055C409.424 141.055 407.518 141.844 406.113 143.249C404.708 144.654 403.919 146.56 403.919 148.547V362.356C403.919 371.732 418.904 372.159 418.904 362.356V148.547C418.904 146.56 418.115 144.654 416.709 143.249C415.304 141.844 413.398 141.055 411.411 141.055ZM7.49268 223.919C5.5055 223.919 3.59971 224.708 2.19456 226.113C0.789405 227.519 0 229.424 0 231.412L0 279.491C0 288.867 14.9854 289.294 14.9854 279.491V231.412C14.9854 229.424 14.196 227.519 12.7908 226.113C11.3857 224.708 9.47987 223.919 7.49268 223.919ZM38.5254 175.045C36.5382 175.045 34.6324 175.834 33.2273 177.239C31.8221 178.644 31.0327 180.55 31.0327 182.537V328.366C31.0327 337.743 46.0181 338.169 46.0181 328.366V182.537C46.0181 180.55 45.2287 178.644 43.8235 177.239C42.4184 175.834 40.5126 175.045 38.5254 175.045ZM69.5571 191.362C67.5699 191.362 65.6641 192.151 64.2589 193.556C62.8538 194.961 62.0644 196.867 62.0644 198.854V312.048C62.0644 321.425 77.0498 321.851 77.0498 312.048V198.854C77.0498 196.867 76.2603 194.961 74.8552 193.556C73.45 192.151 71.5443 191.362 69.5571 191.362ZM100.59 141.055C98.6026 141.055 96.6968 141.844 95.2916 143.249C93.8865 144.654 93.0971 146.56 93.0971 148.547V362.356C93.0971 371.732 108.082 372.159 108.082 362.356V148.547C108.082 146.56 107.293 144.654 105.888 143.249C104.483 141.844 102.577 141.055 100.59 141.055ZM387.655 200.612C387.797 200.036 387.869 199.447 387.871 198.854V118.22C387.871 108.843 372.886 108.417 372.886 118.22V173.864C368.102 167.041 362.732 160.649 356.839 154.758V52.6491C356.839 43.2723 341.853 42.8457 341.853 52.6491V141.735C336.745 137.881 331.384 134.375 325.806 131.24V73.1291C325.806 63.7523 310.82 63.3257 310.82 73.1291V123.935C305.588 121.755 300.23 119.891 294.773 118.355V30.6706C294.773 21.2937 279.788 20.8671 279.788 30.6706V115.013C274.312 114.097 268.787 113.501 263.241 113.23V7.19349C263.241 -2.18335 248.256 -2.60994 248.256 7.19349V113.285C242.82 113.588 237.466 114.198 232.208 115.096V30.6706C232.208 21.2937 217.223 20.8671 217.223 30.6706V118.493C211.765 120.051 206.406 121.937 201.176 124.14V73.1291C201.176 63.7523 186.19 63.3257 186.19 73.1291V131.521C180.609 134.69 175.248 138.23 170.143 142.119V52.6491C170.143 43.2723 155.157 42.8457 155.157 52.6491V155.268C149.254 161.225 143.885 167.689 139.11 174.584V118.22C139.11 108.843 124.125 108.417 124.125 118.22V201.004C124.125 201.388 124.163 201.761 124.219 202.13C117.539 218.608 113.851 236.605 113.851 255.451C113.851 273.854 117.311 291.729 124.125 308.628V392.682C124.125 402.059 139.11 402.485 139.11 392.682V310.147C139.11 291.823 128.836 284.423 128.836 255.451C128.836 185.198 185.992 128.041 256.246 128.041C326.499 128.041 383.655 185.197 383.655 255.451C383.655 325.705 326.503 382.861 256.25 382.861C223.526 382.861 192.422 370.477 168.67 347.989C163.958 343.526 155.161 346.897 155.161 353.429V458.253C155.161 467.63 170.147 468.056 170.147 458.253V368.867C175.251 372.754 180.612 376.29 186.194 379.453V437.774C186.194 447.151 201.18 447.577 201.18 437.774V386.808C206.411 389.001 211.77 390.877 217.227 392.426V480.233C217.227 489.609 232.212 490.036 232.212 480.233V395.821C237.523 396.721 242.881 397.321 248.26 397.617V503.709C248.26 513.085 263.245 513.512 263.245 503.709V397.672C268.791 397.401 274.316 396.805 279.792 395.889V480.232C279.792 489.608 294.777 490.035 294.777 480.232V392.547C300.233 391.011 305.592 389.147 310.824 386.967V437.773C310.824 447.15 325.81 447.576 325.81 437.773V379.661C331.388 376.526 336.749 373.019 341.857 369.166V458.252C341.857 467.629 356.843 468.055 356.843 458.252V356.143C362.736 350.252 368.105 343.859 372.89 337.037V392.681C372.89 402.058 387.875 402.484 387.875 392.681V312.047C387.875 311.44 387.795 310.854 387.659 310.289C394.734 293.402 398.649 274.875 398.649 255.45C398.649 236.025 394.73 217.499 387.655 200.612Z" fill="#00ECE5"/>
<path d="M283.557 196.91C292.388 193.757 287.749 179.5 278.517 182.798L224.782 201.989C221.828 203.043 219.809 205.925 219.809 209.046V280.763C215.908 278.745 211.58 277.693 207.188 277.696C191.967 277.696 179.582 290.08 179.582 305.303C179.582 320.525 191.966 332.909 207.188 332.909C222.41 332.909 234.794 320.525 234.794 305.303V240.186L300.261 216.805V252.031C296.36 250.013 292.032 248.961 287.64 248.965C272.419 248.965 260.034 261.348 260.034 276.571C260.034 291.793 272.418 304.177 287.64 304.177C302.863 304.177 315.247 291.793 315.247 276.571V180.315C315.247 170.938 300.261 170.511 300.261 180.315V200.894L234.794 224.276V214.328L283.557 196.91ZM287.641 289.189C280.682 289.189 275.021 283.528 275.021 276.569C275.021 269.609 280.682 263.948 287.641 263.948C294.601 263.948 300.262 269.609 300.262 276.569C300.262 283.528 294.601 289.189 287.641 289.189ZM207.189 317.923C200.23 317.923 194.568 312.262 194.568 305.303C194.568 298.343 200.23 292.682 207.189 292.682C214.148 292.682 219.81 298.343 219.81 305.303C219.81 312.262 214.147 317.923 207.189 317.923Z" fill="#00ECE5"/>
</svg>
