<svg width="512" height="445" viewBox="0 0 512 445" fill="none" xmlns="http://www.w3.org/2000/svg">
<path d="M492.21 0H272.27C261.38 0 252.51 8.86 252.51 19.76V162.75L245.94 159.22C237.82 154.83 228.15 154.88 220.06 159.34L208.72 165.42V106.64C208.72 97.09 200.95 89.32 191.4 89.32H17.32C7.77 89.32 0 97.09 0 106.64V436.28C0 440.7 3.58 444.27 7.99 444.27H490.85C502.51 444.27 512 434.8 512 423.15V19.76C512 8.87 503.12 0 492.21 0ZM227.66 173.41C227.69 173.39 227.72 173.37 227.76 173.36C231.07 171.52 235.03 171.5 238.36 173.3L386.57 252.81C389.17 254.21 391.07 256.54 391.92 259.37C392.77 262.2 392.46 265.2 391.05 267.82C388.18 273.18 381.46 275.19 376.07 272.31L363.3 265.46C363.01 265.28 362.7 265.11 362.38 264.97L236.9 197.62C235.738 196.995 234.439 196.668 233.12 196.668C231.801 196.668 230.502 196.995 229.34 197.62L103.61 265.08C103.45 265.16 103.29 265.24 103.13 265.34L90.14 272.31C84.76 275.19 78.04 273.17 75.16 267.8C73.76 265.2 73.46 262.21 74.31 259.38C75.16 256.55 77.07 254.21 79.66 252.81L125.13 228.42C125.2 228.38 125.26 228.35 125.33 228.31L165.62 206.7C165.78 206.62 165.95 206.53 166.1 206.44L227.66 173.41ZM425.14 428.29H366.84C366.99 427.34 367.09 426.37 367.09 425.37V344.95H424.18C424.69 344.95 425.14 345.4 425.14 345.91V428.29ZM351.1 425.37C351.1 426.95 349.76 428.29 348.18 428.29H280.15V350.54C280.15 346.12 276.57 342.55 272.16 342.55H194.07C189.66 342.55 186.08 346.13 186.08 350.54V428.29H118.08C116.5 428.29 115.16 426.95 115.16 425.37V277.04L233.14 213.74L351.12 277.05V425.37H351.1ZM154.09 194.74L129.43 207.97V166.09H154.09V194.74ZM15.99 106.64C15.99 105.91 16.59 105.31 17.32 105.31H191.4C192.13 105.31 192.73 105.91 192.73 106.64V174.01L170.08 186.16V165.83C170.08 157.16 163.01 150.1 154.32 150.1H129.18C120.51 150.1 113.45 157.16 113.45 165.83V216.55L72.1 238.73C65.74 242.15 61.09 247.85 59 254.77C56.92 261.7 57.65 269.02 61.08 275.38C68.13 288.49 84.56 293.43 97.69 286.4L99.15 285.61V425.36C99.15 426.36 99.25 427.32 99.4 428.28H15.99V106.64ZM202.06 428.29V358.53H264.17V428.29H202.06ZM496.01 423.16C496.01 425.99 493.7 428.29 490.85 428.29H441.13V345.92C441.13 336.57 433.53 328.97 424.18 328.97H367.09V285.64L368.53 286.41H368.54C372.461 288.514 376.84 289.617 381.29 289.62C386.92 289.62 392.44 287.85 397.03 284.59C398.39 289.86 403.17 293.77 408.84 293.77H448.41C455.15 293.77 460.63 288.28 460.63 281.52V241.98C460.63 235.23 455.15 229.73 448.41 229.73H408.84C402.66 229.73 397.55 234.36 396.75 240.33C395.92 239.75 395.05 239.21 394.14 238.73L320.72 199.34H355.67C362.41 199.34 367.89 193.85 367.89 187.09V147.52C367.89 140.78 362.41 135.3 355.67 135.3H316.1C309.35 135.3 303.85 140.78 303.85 147.52V187.09C303.85 188.3 304.03 189.46 304.36 190.56L268.5 171.33V19.76C268.5 17.68 270.19 15.99 272.27 15.99H492.21C494.3 15.99 496.01 17.68 496.01 19.76V423.16ZM412.61 277.77V245.71H444.64V277.77H412.61ZM319.84 183.35V151.29H351.9V183.35H319.84ZM355.67 40.88H316.1C309.35 40.88 303.85 46.36 303.85 53.1V92.67C303.85 99.41 309.34 104.89 316.1 104.89H355.67C362.41 104.89 367.89 99.41 367.89 92.67V53.1C367.88 46.36 362.4 40.88 355.67 40.88ZM351.9 88.9H319.84V56.87H351.9V88.9ZM448.42 40.88H408.85C402.11 40.88 396.63 46.36 396.63 53.1V92.67C396.63 99.41 402.11 104.89 408.85 104.89H448.42C455.16 104.89 460.64 99.41 460.64 92.67V53.1C460.63 46.36 455.15 40.88 448.42 40.88ZM444.65 88.9H412.62V56.87H444.65V88.9ZM448.42 135.3H408.85C402.11 135.3 396.63 140.78 396.63 147.52V187.09C396.63 193.84 402.11 199.34 408.85 199.34H448.42C455.16 199.34 460.64 193.85 460.64 187.09V147.52C460.63 140.78 455.15 135.3 448.42 135.3ZM444.65 183.35H412.62V151.29H444.65V183.35Z" fill="#00ECE5"/>
</svg>
