<svg width="432" height="512" viewBox="0 0 432 512" fill="none" xmlns="http://www.w3.org/2000/svg">
<path d="M416.749 161.731L379.772 146.799C373.838 144.398 367.495 143.166 361.094 143.171H361.004L336.868 143.211L316.35 123.3C321.961 119.623 325.68 113.29 325.68 106.096C325.68 94.756 316.453 85.529 305.113 85.529H278.63C278.259 85.5319 277.889 85.5623 277.523 85.62L193.721 4.295C190.909 1.55453 187.137 0.0230108 183.211 0.028L140.222 0H140.217C138.427 0.00201539 136.67 0.47629 135.122 1.37492C133.574 2.27355 132.291 3.56472 131.402 5.118C130.516 6.67341 130.056 8.43512 130.069 10.2251C130.083 12.015 130.568 13.7698 131.477 15.312L207.128 143.411L165.358 143.476C164.156 143.477 162.956 143.568 161.768 143.746C161.709 143.755 161.65 143.764 161.591 143.775L91.5138 156.035L41.7638 118.858C39.7007 117.321 37.1977 116.487 34.6248 116.482H34.6018L10.4108 116.524C6.57578 116.532 3.06378 118.635 1.24678 122.012C-0.570219 125.389 -0.390217 129.477 1.71478 132.679L35.7358 184.477L1.89378 236.395C0.865926 237.97 0.283518 239.794 0.20834 241.673C0.133163 243.552 0.568022 245.416 1.46678 247.068C2.36142 248.717 3.68488 250.094 5.29738 251.054C6.90987 252.013 8.75152 252.519 10.6278 252.518H10.6488L34.8388 252.476C37.4175 252.467 39.9246 251.626 41.9878 250.079L91.6118 212.727L161.731 224.743C161.792 224.754 161.854 224.763 161.916 224.772C163.096 224.943 164.313 225.016 165.493 225.029L207.354 224.964L169.672 288.771C162.823 285.35 158.829 281.885 157.065 280.12C155.091 278.144 153.264 276.027 151.598 273.785C148.403 269.484 143.497 267.012 138.138 266.998H138.096C132.741 266.998 127.825 269.455 124.606 273.743C122.91 275.997 121.058 278.128 119.062 280.12C112.458 286.725 96.1808 297.842 61.3708 298.095L50.0448 298.177C43.1688 298.227 37.5738 303.862 37.5738 310.739V351.687C37.5738 355.796 40.9038 359.126 45.0128 359.126C49.1218 359.126 52.4518 355.796 52.4518 351.687V313.04L61.4788 312.974C101.595 312.682 121.367 298.857 129.582 290.643C132.073 288.153 134.386 285.491 136.504 282.676C137.025 281.982 137.724 281.876 138.097 281.876H138.102C138.405 281.872 138.705 281.941 138.976 282.078C139.247 282.215 139.481 282.415 139.658 282.662C141.757 285.485 144.058 288.151 146.544 290.641C153.159 297.255 173.035 312.672 214.649 312.974L223.676 313.04V386.878C223.676 401.811 220.205 416.791 213.638 430.2C207.071 443.609 197.365 455.536 185.568 464.693L148.308 493.611C145.347 495.908 141.805 497.122 138.063 497.122C134.321 497.122 130.779 495.908 127.82 493.612L90.5588 464.693C78.7628 455.537 69.0558 443.61 62.4888 430.2C55.9228 416.791 52.4508 401.811 52.4508 386.878C52.4508 382.769 49.1208 379.439 45.0118 379.439C40.9028 379.439 37.5728 382.769 37.5728 386.878C37.5728 404.066 41.5678 421.31 49.1268 436.744C56.6858 452.179 67.8578 465.907 81.4348 476.446L118.697 505.365C124.21 509.643 131.087 512 138.061 512C145.035 512 151.913 509.643 157.427 505.364L194.688 476.446C208.266 465.908 219.437 452.179 226.996 436.744C234.555 421.309 238.55 404.066 238.55 386.878V310.741C238.55 303.864 232.955 298.23 226.079 298.179L214.753 298.097C202.155 298.006 191.948 296.382 183.789 294.117L224.644 224.938L316.278 224.795L254.808 284.449C253.746 285.481 253.016 286.806 252.711 288.254C252.406 289.703 252.54 291.21 253.097 292.582C253.653 293.954 254.607 295.129 255.834 295.956C257.062 296.784 258.509 297.226 259.99 297.226C261.924 297.228 263.783 296.474 265.17 295.125L276.026 284.59H305.107C316.447 284.59 325.674 275.364 325.674 264.024C325.674 256.471 321.569 249.873 315.484 246.297L337.675 224.762L361.138 224.725C367.57 224.72 373.94 223.465 379.894 221.03L416.819 205.971C426 202.226 431.694 193.741 431.676 183.826C431.665 173.91 425.942 165.443 416.749 161.731ZM305.113 258.333C306.621 258.335 308.068 258.935 309.134 260.001C310.201 261.068 310.801 262.514 310.803 264.023C310.801 265.531 310.201 266.978 309.134 268.044C308.067 269.111 306.621 269.71 305.113 269.712H291.362L303.086 258.334H305.113V258.333ZM305.113 100.406C306.621 100.408 308.068 101.008 309.134 102.074C310.201 103.141 310.801 104.587 310.803 106.096C310.801 107.605 310.201 109.051 309.134 110.118C308.068 111.184 306.621 111.784 305.113 111.786H304.484L292.758 100.407L305.113 100.406ZM411.207 192.195L374.282 207.254C370.103 208.962 365.633 209.843 361.119 209.847L165.474 210.153H165.464C165.021 210.153 164.578 210.123 164.139 210.063L90.9608 197.522C89.9614 197.351 88.9377 197.386 87.9523 197.625C86.967 197.864 86.0409 198.301 85.2308 198.911L33.8278 237.602L18.8518 237.627L50.8588 188.525C51.6491 187.313 52.0686 185.897 52.066 184.45C52.0633 183.003 51.6386 181.588 50.8438 180.379L18.6668 131.388L33.6418 131.363L85.1798 169.876C85.9922 170.482 86.9198 170.916 87.9057 171.152C88.8916 171.387 89.9152 171.419 90.9138 171.245L164.052 158.449C164.491 158.387 164.933 158.356 165.377 158.355L278.64 158.178C280.613 158.176 282.504 157.391 283.898 155.995C285.292 154.599 286.074 152.706 286.072 150.734C286.071 148.761 285.285 146.869 283.889 145.475C282.493 144.082 280.601 143.299 278.628 143.301H278.616L224.388 143.386L148.502 14.883L183.2 14.905C183.26 14.905 183.316 14.927 183.359 14.969L315.541 143.246L313.758 143.249C311.8 143.273 309.931 144.069 308.555 145.462C307.18 146.856 306.41 148.736 306.411 150.694C306.413 152.652 307.187 154.53 308.564 155.922C309.942 157.313 311.813 158.105 313.771 158.126H313.784L361.031 158.048H361.094C365.606 158.048 370.017 158.905 374.203 160.594L411.179 175.525C416.391 177.63 416.804 182.429 416.807 183.85C416.807 185.271 416.411 190.072 411.207 192.195Z" fill="#00ECE5"/>
<path d="M194.744 173.998C189.419 174.001 185.105 178.321 185.109 183.646C185.112 188.971 189.432 193.285 194.757 193.281C200.082 193.278 204.396 188.958 204.393 183.633C204.389 178.308 200.069 173.994 194.744 173.998ZM230.425 173.975C225.1 173.978 220.786 178.298 220.79 183.623C220.793 188.948 225.113 193.262 230.438 193.258C235.763 193.255 240.077 188.935 240.074 183.61C240.07 178.286 235.751 173.972 230.425 173.975ZM265.466 173.953C260.141 173.956 255.827 178.276 255.83 183.601C255.833 188.926 260.153 193.24 265.478 193.236C270.803 193.233 275.117 188.913 275.113 183.588C275.11 178.263 270.791 173.949 265.466 173.953ZM301.147 173.93C295.822 173.933 291.508 178.253 291.512 183.578C291.515 188.903 295.835 193.217 301.16 193.213C306.485 193.21 310.799 188.89 310.796 183.565C310.791 178.241 306.472 173.927 301.147 173.93ZM110.045 316.283C99.1897 320.245 87.0907 322.998 74.0837 324.466C71.4721 324.76 69.0606 326.007 67.3106 327.968C65.5605 329.928 64.5946 332.466 64.5977 335.094V386.242C64.5977 413.523 76.9577 438.764 98.5087 455.49L131.505 481.098C133.437 482.599 135.752 483.349 138.067 483.349C140.382 483.349 142.696 482.599 144.626 481.1L177.623 455.49C199.174 438.764 211.535 413.525 211.535 386.242V335.094C211.535 329.644 207.455 325.074 202.048 324.466C189.042 322.999 176.943 320.245 166.088 316.283C158.868 313.648 152.354 310.515 146.729 306.969C141.467 303.651 134.667 303.652 129.405 306.968C123.778 310.514 117.265 313.649 110.045 316.283ZM138.794 319.554C145.313 323.663 152.78 327.264 160.987 330.26C171.895 334.24 183.879 337.107 196.657 338.794V386.242C196.657 408.894 186.395 429.85 168.5 443.737L138.065 467.358L107.63 443.737C89.7357 429.849 79.4737 408.894 79.4737 386.242V338.794C92.2527 337.107 104.235 334.241 115.144 330.26C123.353 327.264 130.82 323.662 137.337 319.554C137.554 319.415 137.807 319.341 138.065 319.341C138.323 319.341 138.576 319.415 138.794 319.554Z" fill="#00ECE5"/>
<path d="M104.911 374.175C103.345 375.375 102.32 377.147 102.061 379.103C101.801 381.059 102.33 383.037 103.529 384.604L127.373 415.738C128.062 416.637 128.948 417.368 129.963 417.873C130.977 418.378 132.094 418.645 133.227 418.653H133.278C134.403 418.653 135.513 418.398 136.525 417.906C137.537 417.415 138.425 416.701 139.121 415.818L182.121 361.251C182.726 360.484 183.173 359.605 183.438 358.665C183.703 357.724 183.781 356.741 183.665 355.771C183.55 354.801 183.245 353.863 182.768 353.011C182.29 352.159 181.649 351.409 180.882 350.805C180.115 350.2 179.236 349.753 178.296 349.488C177.356 349.223 176.372 349.146 175.402 349.261C174.432 349.376 173.495 349.681 172.642 350.158C171.79 350.636 171.041 351.277 170.436 352.044L133.363 399.09L115.34 375.557C114.14 373.991 112.367 372.965 110.412 372.706C108.456 372.447 106.477 372.975 104.911 374.175Z" fill="#00ECE5"/>
</svg>
