<svg width="498" height="486" viewBox="0 0 498 486" fill="none" xmlns="http://www.w3.org/2000/svg">
<path fill-rule="evenodd" clip-rule="evenodd" d="M245.941 398.106L251.907 446.71C252.16 448.771 251.605 450.851 250.358 452.512L228.16 482.074C227.412 483.071 226.442 483.88 225.327 484.437C224.213 484.994 222.983 485.284 221.737 485.284H8.03131C6.91629 485.284 5.81343 485.052 4.79299 484.603C3.77256 484.153 2.85692 483.496 2.10439 482.673C1.35187 481.85 0.778963 480.88 0.42217 479.824C0.0653771 478.767 -0.0674807 477.648 0.03206 476.537L20.6988 245.267C20.8774 243.269 21.7975 241.409 23.2781 240.055C24.7588 238.701 26.6926 237.95 28.699 237.951H63.243V236.962C63.243 210.781 84.6697 189.355 110.85 189.355C137.032 189.355 158.437 210.78 158.437 236.962V237.951H219.172C221.133 237.951 223.026 238.668 224.494 239.967C225.962 241.266 226.905 243.057 227.144 245.003L243.968 382.043H392.254C407.917 382.043 421.081 371.259 424.145 355.89L424.146 355.885L449.486 229.259H169.189C164.756 229.259 161.157 225.66 161.157 221.227C161.157 216.795 164.756 213.196 169.189 213.196H477.748C480.029 213.196 481.882 211.311 481.882 209.032V188.246C481.879 187.151 481.443 186.101 480.668 185.326C479.894 184.552 478.844 184.115 477.748 184.112H104.046C99.6131 184.112 96.015 180.513 96.015 176.081C96.015 171.649 99.6131 168.049 104.046 168.049H124.079V95.9679C124.079 82.9992 134.174 72.3707 146.929 71.5184V62.8806C146.929 52.8625 154.572 44.6143 164.341 43.6565V16.0627H132.783C128.349 16.0627 124.751 12.4647 124.751 8.03137C124.751 3.59906 128.349 0 132.783 0H199.12C203.552 0 207.151 3.59906 207.151 8.03137V43.5983C217.263 44.2107 225.287 52.6165 225.287 62.8806V71.4632H225.455C226.282 71.4632 227.099 71.5043 227.904 71.5846C231.855 58.6401 236.688 47.2506 242.178 37.897C253.884 17.9541 268.938 7.00135 284.551 7.00135C300.165 7.00135 315.22 17.9541 326.926 37.897C332.652 47.6542 337.665 59.6249 341.705 73.2662C343.961 68.7847 346.365 64.5883 348.902 60.7091C343.757 57.7205 340.294 52.1497 340.294 45.7768V27.3308C340.294 17.8076 348.025 10.0754 357.549 10.0754H438.532C448.055 10.0754 455.786 17.8076 455.786 27.3308V45.7768C455.786 52.1547 452.319 57.7295 447.167 60.7162C456.449 74.9658 463.972 93.5163 468.848 114.827C468.94 115.095 469.017 115.37 469.079 115.651C472.684 131.76 474.78 149.456 474.997 168.049H477.748C488.862 168.049 497.945 177.133 497.945 188.246V209.032C497.945 220.139 488.857 229.259 477.748 229.259H465.867L439.897 359.031C435.32 381.992 415.656 398.106 392.254 398.106H245.941ZM439.724 27.3308C439.724 26.6722 439.19 26.1381 438.532 26.1381H357.549C356.891 26.1381 356.357 26.6722 356.357 27.3308V45.7768C356.357 46.4344 356.891 46.9685 357.549 46.9685H438.532C439.19 46.9685 439.724 46.4344 439.724 45.7768V27.3308ZM232.832 168.049H336.272C336.461 163.602 336.558 159.092 336.558 154.531C336.558 110.023 327.434 70.4934 313.073 46.0278C304.9 32.1034 295.454 23.0641 284.551 23.0641C273.65 23.0641 264.204 32.1034 256.031 46.0278C241.67 70.4934 232.546 110.023 232.546 154.531C232.546 159.092 232.643 163.602 232.832 168.049ZM311.488 103.2C315.874 102.559 319.955 105.599 320.596 109.985C321.238 114.371 318.198 118.453 313.812 119.094C303.446 120.61 296.065 121.422 284.551 121.422C273.24 121.422 265.806 120.869 255.597 119.403C253.489 119.099 251.588 117.971 250.312 116.267C249.035 114.562 248.487 112.42 248.789 110.312C249.092 108.204 250.221 106.303 251.925 105.026C253.63 103.749 255.772 103.202 257.88 103.503C267.284 104.854 274.132 105.36 284.551 105.36C295.151 105.36 301.944 104.596 311.488 103.2ZM311.488 145.461C313.595 145.154 315.738 145.696 317.446 146.968C319.154 148.241 320.287 150.139 320.596 152.246C320.904 154.353 320.362 156.497 319.089 158.205C317.817 159.913 315.919 161.046 313.812 161.355C303.446 162.871 296.065 163.683 284.551 163.683C273.24 163.683 265.806 163.13 255.597 161.665C253.489 161.361 251.588 160.232 250.312 158.528C249.035 156.823 248.487 154.681 248.789 152.573C249.092 150.465 250.221 148.564 251.925 147.287C253.63 146.01 255.772 145.463 257.88 145.764C267.284 147.115 274.132 147.621 284.551 147.621C295.151 147.621 301.944 146.857 311.488 145.461ZM19.211 442.382L16.8126 469.221H213.006L210.758 442.382H19.211ZM352.348 168.049H458.934C458.747 153.086 457.272 138.744 454.71 125.436H351.334C352.196 135.11 352.625 144.818 352.62 154.531C352.62 159.089 352.528 163.599 352.348 168.049ZM162.992 71.4632H209.224V62.8806C209.224 62.0174 208.88 61.1897 208.27 60.5794C207.66 59.9691 206.832 59.6262 205.969 59.6259H166.246C165.383 59.6264 164.556 59.9695 163.946 60.5798C163.335 61.1901 162.992 62.0176 162.992 62.8806V71.4632ZM227.98 455.562L235.57 445.455L212.066 254.013H211.106L227.98 455.562ZM142.374 237.951V236.962C142.374 219.616 128.197 205.417 110.85 205.417C93.5032 205.417 79.3057 219.615 79.3057 236.962V237.951H142.374ZM140.141 168.049H216.756C216.574 163.545 216.483 159.038 216.484 154.531C216.484 130.347 219.097 107.555 223.674 87.5259H148.582C143.924 87.5259 140.141 91.3087 140.141 95.9679V168.049ZM180.404 43.5632H191.088V16.0627H180.404V43.5632ZM347.97 100.061C348.521 103.156 349.019 106.261 349.466 109.373H451.017C445.816 90.5567 438.285 74.6014 429.098 63.0312H366.984C359.386 72.6197 352.934 85.2761 347.97 100.061ZM63.243 254.013H36.0437L20.6466 426.319H209.414L194.987 254.013H158.437V270.078C163.57 272.918 167.061 278.383 167.061 284.646C167.061 293.822 159.567 301.314 150.392 301.314C141.217 301.314 133.751 293.822 133.751 284.646C133.751 278.375 137.238 272.903 142.374 270.067V254.013H79.3057V270.069C84.4338 272.904 87.9133 278.368 87.9133 284.63C87.9133 293.798 80.4552 301.283 71.2874 301.283C62.1206 301.283 54.6354 293.798 54.6354 284.63C54.6354 278.376 58.119 272.918 63.243 270.08V254.013ZM256.56 247.297C267.513 246.529 277.081 254.878 277.848 265.779L282.861 337.114C283.665 348.067 275.332 357.644 264.377 358.412C253.424 359.179 243.857 350.832 243.089 339.932L238.045 268.59V268.586C237.278 257.636 245.611 248.064 256.56 247.297ZM257.684 263.321C255.55 263.47 253.919 265.328 254.068 267.462L259.111 338.801C259.261 340.921 261.125 342.537 263.254 342.388C265.372 342.24 266.999 340.402 266.841 338.283L266.838 338.247L261.826 266.908C261.676 264.788 259.812 263.171 257.684 263.321ZM325.173 247.297C336.122 248.064 344.455 257.636 343.689 268.586V268.59L338.645 339.93C337.877 350.832 328.309 359.179 317.356 358.412C306.401 357.644 298.068 348.067 298.872 337.114L303.885 265.779C304.652 254.878 314.22 246.529 325.173 247.297ZM324.05 263.321C321.921 263.171 320.057 264.788 319.908 266.908L314.895 338.247L314.892 338.283C314.734 340.402 316.362 342.24 318.479 342.388C320.608 342.537 322.473 340.921 322.622 338.801L327.665 267.462C327.814 265.328 326.183 263.47 324.05 263.321ZM390.354 248.271C401.188 250.06 408.555 260.326 406.818 271.16C406.816 271.168 406.815 271.176 406.814 271.183L395.29 341.73L395.288 341.744C393.499 352.578 383.233 359.945 372.399 358.208L372.362 358.202C361.528 356.413 354.16 346.147 355.898 335.312L355.902 335.29L367.425 264.742L367.427 264.729C369.218 253.885 379.509 246.481 390.354 248.271ZM387.737 264.119C385.622 263.77 383.626 265.229 383.276 267.343L371.756 337.871C371.596 338.89 371.843 339.932 372.445 340.771C373.046 341.609 373.954 342.177 374.971 342.352C377.085 342.676 379.089 341.244 379.439 339.13L390.96 268.601C391.291 266.481 389.858 264.469 387.737 264.119Z" fill="#00ECE5"/>
</svg>
