<svg width="512" height="473" viewBox="0 0 512 473" fill="none" xmlns="http://www.w3.org/2000/svg">
<path d="M450.567 290.949H436.437V276.205H450.567V290.949ZM421.693 290.949H406.949V276.205H421.693V290.949ZM392.205 290.949H377.461V276.205H392.205V290.949Z" fill="#00ECE5"/>
<path d="M467.768 384.327V356.641H512V309.07H482.512V258.019H504.628V243.275H466.903L447.999 121.033L433.428 123.287L451.983 243.276H435.075L408.018 68.3138H350.589L323.532 243.276H306.624L336.263 51.604H422.342L431.137 108.481L445.708 106.228L434.98 36.86H386.676V0H371.932V36.86H323.626L301.738 178.402H290.289L286.293 143.017H293.421V128.273H284.628L281.335 99.1121H284.575V84.3681H279.67L275.311 45.7673H218.029L213.67 84.3681H208.765V99.1121H212.005L208.712 128.273H199.919V143.017H207.047L203.202 177.068L42.1374 47.7302L0 87.1616L139.607 243.276H136.151V258.02H158.267V309.071H128.779V356.642H172.888V428.347C167.135 431.811 162.223 435.763 157.547 439.526C145.527 449.201 135.146 457.556 113.319 457.556C91.4924 457.556 81.1107 449.201 69.0913 439.526C56.6936 429.549 42.6416 418.239 15.6188 418.239V432.983C37.4458 432.983 47.8266 441.338 59.8469 451.013C72.2446 460.991 86.2966 472.3 113.319 472.3C140.342 472.3 154.394 460.991 166.792 451.013C178.812 441.338 189.193 432.983 211.019 432.983C232.847 432.983 243.228 441.338 255.248 451.013C267.646 460.991 281.698 472.3 308.722 472.3C335.746 472.3 349.799 460.991 362.197 451.013C374.218 441.338 384.6 432.983 406.429 432.983C428.258 432.983 438.64 441.338 450.661 451.013C463.059 460.991 477.112 472.3 504.137 472.3V457.556C487.127 457.556 477.069 452.482 467.768 445.665V399.01H453.024V434.115C442.456 426.16 429.582 418.79 408.792 418.269V356.641H453.024V384.327H467.768ZM413.468 200.027H386.676V170.6H408.918L413.468 200.027ZM406.637 155.857H386.676V126.308H402.068L406.637 155.857ZM371.932 155.857H351.971L356.54 126.308H371.932V155.857ZM371.932 170.601V200.028H345.14L349.691 170.601H371.932ZM371.932 214.771V243.276H338.452L342.861 214.771H371.932ZM467.768 258.02V309.071H349.816V258.02H467.768ZM386.676 243.276V214.771H415.748L420.157 243.276H386.676ZM399.788 111.563H386.676V83.0578H395.38L399.788 111.563ZM371.932 83.0578V111.563H358.82L363.228 83.0578H371.932ZM231.202 60.5123H262.138L264.833 84.3691H228.508L231.202 60.5123ZM226.842 99.1121H266.497L269.79 128.273H223.549L226.842 99.1121ZM271.455 143.017L275.45 178.402H217.888L221.883 143.017H271.455ZM159.386 243.276L158.616 242.415L158.322 159.936L181.318 178.402H169.202V193.146H187.755V243.276H159.386ZM91.9475 118.152L95.7996 172.17L67.7467 140.799L91.9475 118.152ZM63.2783 124.786L53.6436 75.8785L86.9562 102.629L63.2783 124.786ZM106.755 118.528L139.651 144.944L110.579 172.15L106.755 118.528ZM143.584 161.457L143.813 225.861L112.353 190.681L143.584 161.457ZM37.8419 71.9419L46.7896 117.364L20.5993 88.0767L37.8419 71.9419ZM173.011 258.02H229.407V243.276H202.499V193.146H299.457L291.705 243.276H245.134V258.02H335.072V309.071H305.584V275.221H290.84V309.071H261.475V275.221H246.731V309.071H217.12V275.221H202.376V309.071H173.011V258.02ZM143.523 341.897V323.814H313.018V341.897H143.523ZM320.454 390.653L265.253 356.641H375.475L320.454 390.653ZM394.048 362.493V419.114C386.9 420.166 380.818 422.103 375.469 424.551L334.498 399.307L394.048 362.493ZM254.181 431.623C251.807 429.965 249.301 428.365 246.609 426.883V362.469L306.425 399.326L254.181 431.623ZM187.632 421.629V356.641H231.864V420.88C225.851 419.231 219.005 418.238 211.019 418.238C201.887 418.238 194.239 419.533 187.632 421.629ZM308.723 457.555C288.206 457.555 277.801 450.174 266.644 441.252L320.469 407.979L361.218 433.087C358.315 435.212 355.597 437.399 352.955 439.525C340.933 449.2 330.552 457.555 308.723 457.555ZM327.762 341.897V323.814H497.256V341.897H327.762Z" fill="#00ECE5"/>
<path d="M224.613 207.398H278.675V222.142H224.613V207.398Z" fill="#00ECE5"/>
</svg>
