<svg width="487" height="361" viewBox="0 0 487 361" fill="none" xmlns="http://www.w3.org/2000/svg">
<path d="M210.697 189.959H179.231C174.958 189.959 171.461 193.455 171.461 197.728C171.461 199.282 171.85 200.836 173.015 202.39C174.181 204.332 176.511 205.497 179.231 205.497H210.697C214.97 205.497 218.466 202.001 218.466 197.728C218.466 193.455 214.97 189.959 210.697 189.959ZM260.809 189.959H241.774C237.501 189.959 234.005 193.455 234.005 197.728C234.005 202.001 237.501 205.497 241.774 205.497H254.982C256.536 201.613 258.478 197.339 260.809 189.959ZM202.927 268.817H179.231C175.346 268.817 172.238 271.537 171.461 275.033V276.587C171.461 279.306 173.015 281.637 174.958 283.191C184.281 279.306 188.165 277.752 202.927 271.537V268.817ZM215.747 150.335V110.711H252.651C251.097 106.827 249.155 102.165 246.047 95.1726H231.285V92.4533L225.847 92.8418L215.747 82.7416V95.1726H208.366C204.093 95.1726 200.596 98.6688 200.596 102.942V158.104C200.596 161.989 203.316 165.097 207.2 165.874H247.212V150.335H215.747ZM134.168 47.7795H126.399C124.068 47.7795 121.349 47.7795 118.241 47.3911L105.422 33.4062C85.9985 41.5641 85.6101 41.5641 66.1867 49.7219L66.9636 68.7568L43.2671 92.4533L24.2322 91.6764C16.0744 111.1 16.0744 111.488 7.91658 130.912L21.9014 143.731V177.139L7.13965 190.347C15.2975 209.77 15.2975 210.159 23.4553 229.582L42.4902 228.805L66.1867 252.502L65.4098 271.537C84.8331 279.695 85.2216 279.695 104.645 287.852L117.464 273.868H141.938V47.7795H134.168ZM117.464 264.544C115.134 264.544 113.191 265.71 111.637 267.264L102.703 277.364L73.5676 265.321L74.3445 252.113C74.3445 250.171 73.5676 247.84 72.0137 246.286L48.3172 222.59C46.7633 221.036 44.821 220.259 42.4902 220.259L28.8938 221.036L16.8513 191.901L26.9515 182.966C28.8938 181.412 29.6708 179.47 29.6708 177.139V143.731C29.6708 141.4 28.5054 139.458 26.9515 137.904L16.8513 128.969L28.8938 99.8342L42.4902 100.611C44.4325 100.611 46.7633 99.8342 48.3172 98.2803L72.0137 74.5838C73.5676 73.0299 74.3445 71.0876 74.3445 68.7568L73.5676 55.1604L102.703 43.1179L111.637 53.2181C113.191 55.1604 115.134 55.9374 117.464 55.9374H126.399V87.7917C89.8832 91.6764 61.1366 122.754 61.1366 160.435C61.1366 198.116 89.8832 229.194 126.399 233.078V264.544H117.464ZM126.399 217.151C98.4295 213.267 76.6753 189.182 76.6753 160.047C76.6753 131.3 98.041 106.827 126.399 102.942V217.151ZM179.231 229.582C174.958 229.582 171.461 233.078 171.461 237.352C171.461 241.625 174.958 245.121 179.231 245.121H209.531L225.07 229.582H179.231Z" fill="url(#paint0_linear_1079_662)"/>
<path d="M249.543 189.959L251.485 191.513L245.658 205.498H261.585L267.024 192.679C267.413 191.902 267.412 190.736 267.412 189.959H249.543ZM238.666 150.336V165.875H253.428V150.336H238.666ZM209.919 268.818H186.223L171.461 275.034V276.588C171.461 279.307 173.015 281.638 174.957 283.192C176.123 283.969 177.677 284.357 179.23 284.357H188.554L205.258 277.365C207.977 276.199 209.919 273.092 209.919 269.984V268.818ZM253.428 95.1735H231.285V85.0733H227.789L217.689 74.9732C216.912 76.9155 216.523 78.8578 216.135 80.8002C216.135 81.5771 215.746 81.9656 215.746 82.7425V94.0081L216.912 95.1735L220.019 98.2812C221.573 99.8351 223.516 100.612 225.846 100.612L239.443 99.8351L244.104 110.712H260.032L253.428 95.1735ZM120.572 40.788L110.083 29.134C108.141 26.8032 104.645 26.0263 101.537 27.1917L62.3017 43.5073C59.5825 44.6727 57.6401 47.7804 57.6401 50.8882L58.4171 66.4269L39.7706 85.0733L24.2319 84.2964C21.1242 83.9079 18.0165 85.8502 16.8511 88.958L0.535422 128.193C-0.62998 130.912 0.146955 134.409 2.47776 136.739L14.1318 147.228V173.644L2.47776 184.132C0.146955 186.075 -0.62998 189.571 0.535422 192.679L17.2395 232.302C18.4049 235.022 21.1242 236.964 24.6204 236.964L40.1591 236.187L58.8055 254.834L58.0286 270.372C57.6401 273.48 59.5825 276.588 62.6902 277.753L101.925 293.68C104.645 294.846 108.141 294.069 110.472 291.738L120.96 280.084H141.938V264.545H117.464C115.133 264.545 113.191 265.711 111.637 267.265L102.702 277.365L73.5673 265.322L74.3442 252.114C74.3442 250.172 73.5673 247.841 72.0134 246.287L48.3169 222.591C46.763 221.037 44.8207 220.26 42.4899 220.26L28.8935 221.037L16.8511 191.902L26.9512 182.967C28.8935 181.413 29.6705 179.471 29.6705 177.14V143.732C29.6705 141.401 28.5051 139.459 26.9512 137.905L16.8511 128.97L28.8935 99.8351L42.4899 100.612C44.4322 100.612 46.763 99.8351 48.3169 98.2812L72.0134 74.5847C73.5673 73.0308 74.3442 71.0885 74.3442 68.7577L73.5673 55.1613L102.702 43.1188L111.637 53.219C113.191 55.1613 115.133 55.9383 117.464 55.9383H141.938V40.788H120.572ZM212.639 229.583L197.1 245.122H218.466L227.789 235.799L243.328 236.576C246.435 236.964 249.543 235.022 250.708 231.914L251.485 229.583H212.639Z" fill="url(#paint1_linear_1079_662)"/>
<path d="M134.168 95.1758C131.449 95.1758 129.118 95.1758 126.398 95.5642C94.1557 99.4489 68.9053 127.03 68.9053 160.438C68.9053 193.847 94.1557 221.428 126.398 225.312C129.118 225.701 131.449 225.701 134.168 225.701C136.887 225.701 139.218 225.701 141.937 225.312V95.5642C139.218 95.1758 136.887 95.1758 134.168 95.1758ZM76.6746 160.05C76.6746 131.303 98.0403 106.83 126.398 102.945V216.766C98.4288 213.27 76.6746 188.796 76.6746 160.05ZM192.438 189.962C189.719 195.789 185.834 200.839 181.561 205.501H179.618C176.899 205.501 174.568 204.335 173.403 202.393C172.626 201.227 171.849 199.674 171.849 197.731C171.849 193.458 175.345 189.962 179.618 189.962H192.438Z" fill="url(#paint2_linear_1079_662)"/>
<path d="M200.597 130.138V158.107C200.597 161.992 203.316 165.1 207.2 165.877V160.438C207.2 149.561 204.87 139.072 200.597 130.138ZM134.169 87.4063C131.449 87.4063 129.119 87.4062 126.399 87.7947C89.8833 91.6794 61.1367 122.757 61.1367 160.438C61.1367 198.119 89.8833 229.197 126.399 233.082C129.119 233.47 131.449 233.47 134.169 233.47C136.888 233.47 139.219 233.47 141.938 233.082V217.154C139.219 217.543 136.888 217.543 134.169 217.543C131.449 217.543 129.119 217.543 126.399 217.154C98.4296 213.27 76.6754 189.185 76.6754 160.05C76.6754 131.303 98.0411 106.83 126.399 102.945C129.119 102.556 131.449 102.556 134.169 102.556C136.888 102.556 139.607 102.945 141.938 102.945V87.7947C139.219 87.4062 136.888 87.4063 134.169 87.4063ZM183.115 189.962C180.396 194.623 176.9 198.508 173.015 202.393C174.181 204.335 176.512 205.5 179.231 205.5H191.662C195.546 200.839 198.654 195.4 200.985 189.962H183.115Z" fill="url(#paint3_linear_1079_662)"/>
<path d="M210.696 189.961H179.23C174.957 189.961 171.461 193.457 171.461 197.73C171.461 199.284 171.849 200.838 173.015 202.392C174.18 204.334 176.511 205.499 179.23 205.499H210.696C214.969 205.499 218.465 202.003 218.465 197.73C218.465 193.457 214.969 189.961 210.696 189.961ZM322.575 268.82H256.535C252.262 268.82 248.766 272.316 248.766 276.589C248.766 280.862 252.262 284.358 256.535 284.358H322.575C326.848 284.358 330.344 280.862 330.344 276.589C330.344 272.316 326.848 268.82 322.575 268.82ZM322.575 229.584H302.374C298.101 229.584 294.605 233.081 294.605 237.354C294.605 241.627 298.101 245.123 302.374 245.123H322.575C326.848 245.123 330.344 241.627 330.344 237.354C330.344 233.081 326.848 229.584 322.575 229.584ZM322.575 229.584H302.374C298.101 229.584 294.605 233.081 294.605 237.354C294.605 241.627 298.101 245.123 302.374 245.123H322.575C326.848 245.123 330.344 241.627 330.344 237.354C330.344 233.081 326.848 229.584 322.575 229.584ZM322.575 268.82H256.535C252.262 268.82 248.766 272.316 248.766 276.589C248.766 280.862 252.262 284.358 256.535 284.358H322.575C326.848 284.358 330.344 280.862 330.344 276.589C330.344 272.316 326.848 268.82 322.575 268.82ZM322.575 189.961H241.773C237.5 189.961 234.004 193.457 234.004 197.73C234.004 202.003 237.5 205.499 241.773 205.499H322.575C326.848 205.499 330.344 202.003 330.344 197.73C330.344 193.457 326.848 189.961 322.575 189.961ZM225.069 268.82H209.919V269.985C209.919 273.093 207.977 276.2 205.257 277.366L188.553 284.358H225.458C229.731 284.358 232.839 280.862 232.839 276.589C232.839 272.316 229.342 268.82 225.069 268.82ZM271.297 229.584H179.23C174.957 229.584 171.461 233.081 171.461 237.354C171.461 241.627 174.957 245.123 179.23 245.123H271.297C275.57 245.123 279.066 241.627 279.066 237.354C279.066 233.081 275.57 229.584 271.297 229.584ZM293.828 95.1747H286.447V87.0169C286.447 67.5935 270.52 51.6663 251.097 51.6663C235.558 51.6663 222.739 61.378 217.688 74.9744L227.789 85.0745H231.285C232.45 75.3629 240.996 67.5935 251.097 67.5935C261.974 67.5935 270.908 76.5283 270.908 87.4053V95.1747H246.047C249.154 102.167 250.708 106.829 252.651 110.713H285.67V150.337H215.746V110.713H244.104L239.443 99.8363L225.846 100.613C223.515 100.613 221.573 99.8363 220.019 98.2824L216.912 95.1747L215.746 94.0093V95.1747H208.365C204.092 95.1747 200.596 98.6709 200.596 102.944V158.106C200.596 161.991 203.315 165.099 207.2 165.876H293.828C298.101 165.876 301.597 162.38 301.597 158.106V102.944C301.597 98.6709 298.101 95.1747 293.828 95.1747ZM210.696 189.961H179.23C174.957 189.961 171.461 193.457 171.461 197.73C171.461 199.284 171.849 200.838 173.015 202.392C174.18 204.334 176.511 205.499 179.23 205.499H210.696C214.969 205.499 218.465 202.003 218.465 197.73C218.465 193.457 214.969 189.961 210.696 189.961ZM179.23 268.82C175.346 268.82 172.238 271.539 171.461 275.035L186.223 268.82H179.23ZM134.168 102.556V217.542C136.887 217.542 139.218 217.542 141.937 217.153V102.944C139.218 102.944 136.887 102.556 134.168 102.556ZM210.696 189.961H179.23C174.957 189.961 171.461 193.457 171.461 197.73C171.461 199.284 171.849 200.838 173.015 202.392C174.18 204.334 176.511 205.499 179.23 205.499H210.696C214.969 205.499 218.465 202.003 218.465 197.73C218.465 193.457 214.969 189.961 210.696 189.961ZM322.575 189.961H241.773C237.5 189.961 234.004 193.457 234.004 197.73C234.004 202.003 237.5 205.499 241.773 205.499H322.575C326.848 205.499 330.344 202.003 330.344 197.73C330.344 193.457 326.848 189.961 322.575 189.961ZM322.575 268.82H256.535C252.262 268.82 248.766 272.316 248.766 276.589C248.766 280.862 252.262 284.358 256.535 284.358H322.575C326.848 284.358 330.344 280.862 330.344 276.589C330.344 272.316 326.848 268.82 322.575 268.82ZM322.575 229.584H302.374C298.101 229.584 294.605 233.081 294.605 237.354C294.605 241.627 298.101 245.123 302.374 245.123H322.575C326.848 245.123 330.344 241.627 330.344 237.354C330.344 233.081 326.848 229.584 322.575 229.584ZM322.575 229.584H302.374C298.101 229.584 294.605 233.081 294.605 237.354C294.605 241.627 298.101 245.123 302.374 245.123H322.575C326.848 245.123 330.344 241.627 330.344 237.354C330.344 233.081 326.848 229.584 322.575 229.584ZM322.575 268.82H256.535C252.262 268.82 248.766 272.316 248.766 276.589C248.766 280.862 252.262 284.358 256.535 284.358H322.575C326.848 284.358 330.344 280.862 330.344 276.589C330.344 272.316 326.848 268.82 322.575 268.82ZM322.575 189.961H241.773C237.5 189.961 234.004 193.457 234.004 197.73C234.004 202.003 237.5 205.499 241.773 205.499H322.575C326.848 205.499 330.344 202.003 330.344 197.73C330.344 193.457 326.848 189.961 322.575 189.961ZM225.069 268.82H209.919V269.985C209.919 273.093 207.977 276.2 205.257 277.366L188.553 284.358H225.458C229.731 284.358 232.839 280.862 232.839 276.589C232.839 272.316 229.342 268.82 225.069 268.82ZM271.297 229.584H179.23C174.957 229.584 171.461 233.081 171.461 237.354C171.461 241.627 174.957 245.123 179.23 245.123H271.297C275.57 245.123 279.066 241.627 279.066 237.354C279.066 233.081 275.57 229.584 271.297 229.584ZM293.828 95.1747H286.447V87.0169C286.447 67.5935 270.52 51.6663 251.097 51.6663C235.558 51.6663 222.739 61.378 217.688 74.9744L227.789 85.0745H231.285C232.45 75.3629 240.996 67.5935 251.097 67.5935C261.974 67.5935 270.908 76.5283 270.908 87.4053V95.1747H246.047C249.154 102.167 250.708 106.829 252.651 110.713H285.67V150.337H215.746V110.713H244.104L239.443 99.8363L225.846 100.613C223.515 100.613 221.573 99.8363 220.019 98.2824L216.912 95.1747L215.746 94.0093V95.1747H208.365C204.092 95.1747 200.596 98.6709 200.596 102.944V158.106C200.596 161.991 203.315 165.099 207.2 165.876H293.828C298.101 165.876 301.597 162.38 301.597 158.106V102.944C301.597 98.6709 298.101 95.1747 293.828 95.1747ZM210.696 189.961H179.23C174.957 189.961 171.461 193.457 171.461 197.73C171.461 199.284 171.849 200.838 173.015 202.392C174.18 204.334 176.511 205.499 179.23 205.499H210.696C214.969 205.499 218.465 202.003 218.465 197.73C218.465 193.457 214.969 189.961 210.696 189.961ZM179.23 268.82C175.346 268.82 172.238 271.539 171.461 275.035L186.223 268.82H179.23ZM134.168 102.556V217.542C136.887 217.542 139.218 217.542 141.937 217.153V102.944C139.218 102.944 136.887 102.556 134.168 102.556ZM210.696 189.961H179.23C174.957 189.961 171.461 193.457 171.461 197.73C171.461 199.284 171.849 200.838 173.015 202.392C174.18 204.334 176.511 205.499 179.23 205.499H210.696C214.969 205.499 218.465 202.003 218.465 197.73C218.465 193.457 214.969 189.961 210.696 189.961ZM322.575 189.961H241.773C237.5 189.961 234.004 193.457 234.004 197.73C234.004 202.003 237.5 205.499 241.773 205.499H322.575C326.848 205.499 330.344 202.003 330.344 197.73C330.344 193.457 326.848 189.961 322.575 189.961ZM322.575 268.82H256.535C252.262 268.82 248.766 272.316 248.766 276.589C248.766 280.862 252.262 284.358 256.535 284.358H322.575C326.848 284.358 330.344 280.862 330.344 276.589C330.344 272.316 326.848 268.82 322.575 268.82ZM322.575 229.584H302.374C298.101 229.584 294.605 233.081 294.605 237.354C294.605 241.627 298.101 245.123 302.374 245.123H322.575C326.848 245.123 330.344 241.627 330.344 237.354C330.344 233.081 326.848 229.584 322.575 229.584ZM322.575 229.584H302.374C298.101 229.584 294.605 233.081 294.605 237.354C294.605 241.627 298.101 245.123 302.374 245.123H322.575C326.848 245.123 330.344 241.627 330.344 237.354C330.344 233.081 326.848 229.584 322.575 229.584ZM322.575 268.82H256.535C252.262 268.82 248.766 272.316 248.766 276.589C248.766 280.862 252.262 284.358 256.535 284.358H322.575C326.848 284.358 330.344 280.862 330.344 276.589C330.344 272.316 326.848 268.82 322.575 268.82ZM322.575 189.961H241.773C237.5 189.961 234.004 193.457 234.004 197.73C234.004 202.003 237.5 205.499 241.773 205.499H322.575C326.848 205.499 330.344 202.003 330.344 197.73C330.344 193.457 326.848 189.961 322.575 189.961ZM225.069 268.82H209.919V269.985C209.919 273.093 207.977 276.2 205.257 277.366L188.553 284.358H225.458C229.731 284.358 232.839 280.862 232.839 276.589C232.839 272.316 229.342 268.82 225.069 268.82ZM271.297 229.584H179.23C174.957 229.584 171.461 233.081 171.461 237.354C171.461 241.627 174.957 245.123 179.23 245.123H271.297C275.57 245.123 279.066 241.627 279.066 237.354C279.066 233.081 275.57 229.584 271.297 229.584ZM293.828 95.1747H286.447V87.0169C286.447 67.5935 270.52 51.6663 251.097 51.6663C235.558 51.6663 222.739 61.378 217.688 74.9744L227.789 85.0745H231.285C232.45 75.3629 240.996 67.5935 251.097 67.5935C261.974 67.5935 270.908 76.5283 270.908 87.4053V95.1747H246.047C249.154 102.167 250.708 106.829 252.651 110.713H285.67V150.337H215.746V110.713H244.104L239.443 99.8363L225.846 100.613C223.515 100.613 221.573 99.8363 220.019 98.2824L216.912 95.1747L215.746 94.0093V95.1747H208.365C204.092 95.1747 200.596 98.6709 200.596 102.944V158.106C200.596 161.991 203.315 165.099 207.2 165.876H293.828C298.101 165.876 301.597 162.38 301.597 158.106V102.944C301.597 98.6709 298.101 95.1747 293.828 95.1747ZM210.696 189.961H179.23C174.957 189.961 171.461 193.457 171.461 197.73C171.461 199.284 171.849 200.838 173.015 202.392C174.18 204.334 176.511 205.499 179.23 205.499H210.696C214.969 205.499 218.465 202.003 218.465 197.73C218.465 193.457 214.969 189.961 210.696 189.961ZM179.23 268.82C175.346 268.82 172.238 271.539 171.461 275.035L186.223 268.82H179.23ZM134.168 102.556V217.542C136.887 217.542 139.218 217.542 141.937 217.153V102.944C139.218 102.944 136.887 102.556 134.168 102.556ZM210.696 189.961H179.23C174.957 189.961 171.461 193.457 171.461 197.73C171.461 199.284 171.849 200.838 173.015 202.392C174.18 204.334 176.511 205.499 179.23 205.499H210.696C214.969 205.499 218.465 202.003 218.465 197.73C218.465 193.457 214.969 189.961 210.696 189.961ZM271.297 229.584H179.23C174.957 229.584 171.461 233.081 171.461 237.354C171.461 241.627 174.957 245.123 179.23 245.123H271.297C275.57 245.123 279.066 241.627 279.066 237.354C279.066 233.081 275.57 229.584 271.297 229.584ZM225.069 268.82H179.23C175.346 268.82 172.238 271.539 171.461 275.035V276.589C171.461 279.308 173.015 281.639 174.957 283.193C176.122 283.97 177.676 284.358 179.23 284.358H225.458C229.731 284.358 232.839 280.862 232.839 276.589C232.839 272.316 229.342 268.82 225.069 268.82ZM322.575 189.961H241.773C237.5 189.961 234.004 193.457 234.004 197.73C234.004 202.003 237.5 205.499 241.773 205.499H322.575C326.848 205.499 330.344 202.003 330.344 197.73C330.344 193.457 326.848 189.961 322.575 189.961ZM322.575 268.82H256.535C252.262 268.82 248.766 272.316 248.766 276.589C248.766 280.862 252.262 284.358 256.535 284.358H322.575C326.848 284.358 330.344 280.862 330.344 276.589C330.344 272.316 326.848 268.82 322.575 268.82ZM322.575 229.584H302.374C298.101 229.584 294.605 233.081 294.605 237.354C294.605 241.627 298.101 245.123 302.374 245.123H322.575C326.848 245.123 330.344 241.627 330.344 237.354C330.344 233.081 326.848 229.584 322.575 229.584ZM322.575 229.584H302.374C298.101 229.584 294.605 233.081 294.605 237.354C294.605 241.627 298.101 245.123 302.374 245.123H322.575C326.848 245.123 330.344 241.627 330.344 237.354C330.344 233.081 326.848 229.584 322.575 229.584ZM322.575 268.82H256.535C252.262 268.82 248.766 272.316 248.766 276.589C248.766 280.862 252.262 284.358 256.535 284.358H322.575C326.848 284.358 330.344 280.862 330.344 276.589C330.344 272.316 326.848 268.82 322.575 268.82ZM322.575 189.961H241.773C237.5 189.961 234.004 193.457 234.004 197.73C234.004 202.003 237.5 205.499 241.773 205.499H322.575C326.848 205.499 330.344 202.003 330.344 197.73C330.344 193.457 326.848 189.961 322.575 189.961ZM225.069 268.82H179.23C175.346 268.82 172.238 271.539 171.461 275.035V276.589C171.461 279.308 173.015 281.639 174.957 283.193C176.122 283.97 177.676 284.358 179.23 284.358H225.458C229.731 284.358 232.839 280.862 232.839 276.589C232.839 272.316 229.342 268.82 225.069 268.82ZM271.297 229.584H179.23C174.957 229.584 171.461 233.081 171.461 237.354C171.461 241.627 174.957 245.123 179.23 245.123H271.297C275.57 245.123 279.066 241.627 279.066 237.354C279.066 233.081 275.57 229.584 271.297 229.584ZM293.828 95.1747H286.447V87.0169C286.447 67.5935 270.52 51.6663 251.097 51.6663C235.558 51.6663 222.739 61.378 217.688 74.9744L227.789 85.0745H231.285C232.45 75.3629 240.996 67.5935 251.097 67.5935C261.974 67.5935 270.908 76.5283 270.908 87.4053V95.1747H246.047C249.154 102.167 250.708 106.829 252.651 110.713H285.67V150.337H215.746V110.713H244.104L239.443 99.8363L225.846 100.613C223.515 100.613 221.573 99.8363 220.019 98.2824L216.912 95.1747L215.746 94.0093V95.1747H208.365C204.092 95.1747 200.596 98.6709 200.596 102.944V158.106C200.596 161.991 203.315 165.099 207.2 165.876H293.828C298.101 165.876 301.597 162.38 301.597 158.106V102.944C301.597 98.6709 298.101 95.1747 293.828 95.1747ZM210.696 189.961H179.23C174.957 189.961 171.461 193.457 171.461 197.73C171.461 199.284 171.849 200.838 173.015 202.392C174.18 204.334 176.511 205.499 179.23 205.499H210.696C214.969 205.499 218.465 202.003 218.465 197.73C218.465 193.457 214.969 189.961 210.696 189.961ZM134.168 102.556V217.542C136.887 217.542 139.218 217.542 141.937 217.153V102.944C139.218 102.944 136.887 102.556 134.168 102.556ZM210.696 189.961H179.23C174.957 189.961 171.461 193.457 171.461 197.73C171.461 199.284 171.849 200.838 173.015 202.392C174.18 204.334 176.511 205.499 179.23 205.499H210.696C214.969 205.499 218.465 202.003 218.465 197.73C218.465 193.457 214.969 189.961 210.696 189.961ZM271.297 229.584H179.23C174.957 229.584 171.461 233.081 171.461 237.354C171.461 241.627 174.957 245.123 179.23 245.123H271.297C275.57 245.123 279.066 241.627 279.066 237.354C279.066 233.081 275.57 229.584 271.297 229.584ZM225.069 268.82H179.23C175.346 268.82 172.238 271.539 171.461 275.035V276.589C171.461 279.308 173.015 281.639 174.957 283.193C176.122 283.97 177.676 284.358 179.23 284.358H225.458C229.731 284.358 232.839 280.862 232.839 276.589C232.839 272.316 229.342 268.82 225.069 268.82ZM322.575 189.961H241.773C237.5 189.961 234.004 193.457 234.004 197.73C234.004 202.003 237.5 205.499 241.773 205.499H322.575C326.848 205.499 330.344 202.003 330.344 197.73C330.344 193.457 326.848 189.961 322.575 189.961ZM322.575 268.82H256.535C252.262 268.82 248.766 272.316 248.766 276.589C248.766 280.862 252.262 284.358 256.535 284.358H322.575C326.848 284.358 330.344 280.862 330.344 276.589C330.344 272.316 326.848 268.82 322.575 268.82ZM322.575 229.584H302.374C298.101 229.584 294.605 233.081 294.605 237.354C294.605 241.627 298.101 245.123 302.374 245.123H322.575C326.848 245.123 330.344 241.627 330.344 237.354C330.344 233.081 326.848 229.584 322.575 229.584ZM322.575 229.584H302.374C298.101 229.584 294.605 233.081 294.605 237.354C294.605 241.627 298.101 245.123 302.374 245.123H322.575C326.848 245.123 330.344 241.627 330.344 237.354C330.344 233.081 326.848 229.584 322.575 229.584ZM322.575 268.82H256.535C252.262 268.82 248.766 272.316 248.766 276.589C248.766 280.862 252.262 284.358 256.535 284.358H322.575C326.848 284.358 330.344 280.862 330.344 276.589C330.344 272.316 326.848 268.82 322.575 268.82ZM322.575 189.961H241.773C237.5 189.961 234.004 193.457 234.004 197.73C234.004 202.003 237.5 205.499 241.773 205.499H322.575C326.848 205.499 330.344 202.003 330.344 197.73C330.344 193.457 326.848 189.961 322.575 189.961ZM225.069 268.82H179.23C175.346 268.82 172.238 271.539 171.461 275.035V276.589C171.461 279.308 173.015 281.639 174.957 283.193C176.122 283.97 177.676 284.358 179.23 284.358H225.458C229.731 284.358 232.839 280.862 232.839 276.589C232.839 272.316 229.342 268.82 225.069 268.82ZM271.297 229.584H179.23C174.957 229.584 171.461 233.081 171.461 237.354C171.461 241.627 174.957 245.123 179.23 245.123H271.297C275.57 245.123 279.066 241.627 279.066 237.354C279.066 233.081 275.57 229.584 271.297 229.584ZM293.828 95.1747H286.447V87.0169C286.447 67.5935 270.52 51.6663 251.097 51.6663C235.558 51.6663 222.739 61.378 217.688 74.9744L227.789 85.0745H231.285C232.45 75.3629 240.996 67.5935 251.097 67.5935C261.974 67.5935 270.908 76.5283 270.908 87.4053V95.1747H246.047C249.154 102.167 250.708 106.829 252.651 110.713H285.67V150.337H215.746V110.713H244.104L239.443 99.8363L225.846 100.613C223.515 100.613 221.573 99.8363 220.019 98.2824L216.912 95.1747L215.746 94.0093V95.1747H208.365C204.092 95.1747 200.596 98.6709 200.596 102.944V158.106C200.596 161.991 203.315 165.099 207.2 165.876H293.828C298.101 165.876 301.597 162.38 301.597 158.106V102.944C301.597 98.6709 298.101 95.1747 293.828 95.1747ZM210.696 189.961H179.23C174.957 189.961 171.461 193.457 171.461 197.73C171.461 199.284 171.849 200.838 173.015 202.392C174.18 204.334 176.511 205.499 179.23 205.499H210.696C214.969 205.499 218.465 202.003 218.465 197.73C218.465 193.457 214.969 189.961 210.696 189.961ZM134.168 102.556V217.542C136.887 217.542 139.218 217.542 141.937 217.153V102.944C139.218 102.944 136.887 102.556 134.168 102.556ZM210.696 189.961H179.23C174.957 189.961 171.461 193.457 171.461 197.73C171.461 199.284 171.849 200.838 173.015 202.392C174.18 204.334 176.511 205.499 179.23 205.499H210.696C214.969 205.499 218.465 202.003 218.465 197.73C218.465 193.457 214.969 189.961 210.696 189.961ZM271.297 229.584H179.23C174.957 229.584 171.461 233.081 171.461 237.354C171.461 241.627 174.957 245.123 179.23 245.123H271.297C275.57 245.123 279.066 241.627 279.066 237.354C279.066 233.081 275.57 229.584 271.297 229.584ZM225.069 268.82H179.23C175.346 268.82 172.238 271.539 171.461 275.035V276.589C171.461 279.308 173.015 281.639 174.957 283.193C176.122 283.97 177.676 284.358 179.23 284.358H225.458C229.731 284.358 232.839 280.862 232.839 276.589C232.839 272.316 229.342 268.82 225.069 268.82ZM322.575 189.961H241.773C237.5 189.961 234.004 193.457 234.004 197.73C234.004 202.003 237.5 205.499 241.773 205.499H322.575C326.848 205.499 330.344 202.003 330.344 197.73C330.344 193.457 326.848 189.961 322.575 189.961ZM322.575 268.82H256.535C252.262 268.82 248.766 272.316 248.766 276.589C248.766 280.862 252.262 284.358 256.535 284.358H322.575C326.848 284.358 330.344 280.862 330.344 276.589C330.344 272.316 326.848 268.82 322.575 268.82ZM322.575 229.584H302.374C298.101 229.584 294.605 233.081 294.605 237.354C294.605 241.627 298.101 245.123 302.374 245.123H322.575C326.848 245.123 330.344 241.627 330.344 237.354C330.344 233.081 326.848 229.584 322.575 229.584ZM322.575 229.584H302.374C298.101 229.584 294.605 233.081 294.605 237.354C294.605 241.627 298.101 245.123 302.374 245.123H322.575C326.848 245.123 330.344 241.627 330.344 237.354C330.344 233.081 326.848 229.584 322.575 229.584ZM322.575 268.82H256.535C252.262 268.82 248.766 272.316 248.766 276.589C248.766 280.862 252.262 284.358 256.535 284.358H322.575C326.848 284.358 330.344 280.862 330.344 276.589C330.344 272.316 326.848 268.82 322.575 268.82ZM322.575 189.961H241.773C237.5 189.961 234.004 193.457 234.004 197.73C234.004 202.003 237.5 205.499 241.773 205.499H322.575C326.848 205.499 330.344 202.003 330.344 197.73C330.344 193.457 326.848 189.961 322.575 189.961ZM225.069 268.82H179.23C175.346 268.82 172.238 271.539 171.461 275.035V276.589C171.461 279.308 173.015 281.639 174.957 283.193C176.122 283.97 177.676 284.358 179.23 284.358H225.458C229.731 284.358 232.839 280.862 232.839 276.589C232.839 272.316 229.342 268.82 225.069 268.82ZM271.297 229.584H179.23C174.957 229.584 171.461 233.081 171.461 237.354C171.461 241.627 174.957 245.123 179.23 245.123H271.297C275.57 245.123 279.066 241.627 279.066 237.354C279.066 233.081 275.57 229.584 271.297 229.584ZM293.828 95.1747H286.447V87.0169C286.447 67.5935 270.52 51.6663 251.097 51.6663C235.558 51.6663 222.739 61.378 217.688 74.9744L227.789 85.0745H231.285C232.45 75.3629 240.996 67.5935 251.097 67.5935C261.974 67.5935 270.908 76.5283 270.908 87.4053V95.1747H246.047C249.154 102.167 250.708 106.829 252.651 110.713H285.67V150.337H215.746V110.713H244.104L239.443 99.8363L225.846 100.613C223.515 100.613 221.573 99.8363 220.019 98.2824L216.912 95.1747L215.746 94.0093V95.1747H208.365C204.092 95.1747 200.596 98.6709 200.596 102.944V158.106C200.596 161.991 203.315 165.099 207.2 165.876H293.828C298.101 165.876 301.597 162.38 301.597 158.106V102.944C301.597 98.6709 298.101 95.1747 293.828 95.1747ZM210.696 189.961H179.23C174.957 189.961 171.461 193.457 171.461 197.73C171.461 199.284 171.849 200.838 173.015 202.392C174.18 204.334 176.511 205.499 179.23 205.499H210.696C214.969 205.499 218.465 202.003 218.465 197.73C218.465 193.457 214.969 189.961 210.696 189.961ZM134.168 102.556V217.542C136.887 217.542 139.218 217.542 141.937 217.153V102.944C139.218 102.944 136.887 102.556 134.168 102.556ZM210.696 189.961H179.23C174.957 189.961 171.461 193.457 171.461 197.73C171.461 199.284 171.849 200.838 173.015 202.392C174.18 204.334 176.511 205.499 179.23 205.499H210.696C214.969 205.499 218.465 202.003 218.465 197.73C218.465 193.457 214.969 189.961 210.696 189.961ZM271.297 229.584H179.23C174.957 229.584 171.461 233.081 171.461 237.354C171.461 241.627 174.957 245.123 179.23 245.123H271.297C275.57 245.123 279.066 241.627 279.066 237.354C279.066 233.081 275.57 229.584 271.297 229.584ZM225.069 268.82H179.23C175.346 268.82 172.238 271.539 171.461 275.035V276.589C171.461 279.308 173.015 281.639 174.957 283.193C176.122 283.97 177.676 284.358 179.23 284.358H225.458C229.731 284.358 232.839 280.862 232.839 276.589C232.839 272.316 229.342 268.82 225.069 268.82ZM322.575 189.961H241.773C237.5 189.961 234.004 193.457 234.004 197.73C234.004 202.003 237.5 205.499 241.773 205.499H322.575C326.848 205.499 330.344 202.003 330.344 197.73C330.344 193.457 326.848 189.961 322.575 189.961ZM322.575 268.82H256.535C252.262 268.82 248.766 272.316 248.766 276.589C248.766 280.862 252.262 284.358 256.535 284.358H322.575C326.848 284.358 330.344 280.862 330.344 276.589C330.344 272.316 326.848 268.82 322.575 268.82ZM322.575 229.584H302.374C298.101 229.584 294.605 233.081 294.605 237.354C294.605 241.627 298.101 245.123 302.374 245.123H322.575C326.848 245.123 330.344 241.627 330.344 237.354C330.344 233.081 326.848 229.584 322.575 229.584ZM322.575 229.584H302.374C298.101 229.584 294.605 233.081 294.605 237.354C294.605 241.627 298.101 245.123 302.374 245.123H322.575C326.848 245.123 330.344 241.627 330.344 237.354C330.344 233.081 326.848 229.584 322.575 229.584ZM322.575 268.82H256.535C252.262 268.82 248.766 272.316 248.766 276.589C248.766 280.862 252.262 284.358 256.535 284.358H322.575C326.848 284.358 330.344 280.862 330.344 276.589C330.344 272.316 326.848 268.82 322.575 268.82ZM322.575 189.961H241.773C237.5 189.961 234.004 193.457 234.004 197.73C234.004 202.003 237.5 205.499 241.773 205.499H322.575C326.848 205.499 330.344 202.003 330.344 197.73C330.344 193.457 326.848 189.961 322.575 189.961ZM225.069 268.82H179.23C175.346 268.82 172.238 271.539 171.461 275.035V276.589C171.461 279.308 173.015 281.639 174.957 283.193C176.122 283.97 177.676 284.358 179.23 284.358H225.458C229.731 284.358 232.839 280.862 232.839 276.589C232.839 272.316 229.342 268.82 225.069 268.82ZM271.297 229.584H179.23C174.957 229.584 171.461 233.081 171.461 237.354C171.461 241.627 174.957 245.123 179.23 245.123H271.297C275.57 245.123 279.066 241.627 279.066 237.354C279.066 233.081 275.57 229.584 271.297 229.584ZM293.828 95.1747H286.447V87.0169C286.447 67.5935 270.52 51.6663 251.097 51.6663C235.558 51.6663 222.739 61.378 217.688 74.9744L227.789 85.0745H231.285C232.45 75.3629 240.996 67.5935 251.097 67.5935C261.974 67.5935 270.908 76.5283 270.908 87.4053V95.1747H246.047C249.154 102.167 250.708 106.829 252.651 110.713H285.67V150.337H215.746V110.713H244.104L239.443 99.8363L225.846 100.613C223.515 100.613 221.573 99.8363 220.019 98.2824L216.912 95.1747L215.746 94.0093V95.1747H208.365C204.092 95.1747 200.596 98.6709 200.596 102.944V158.106C200.596 161.991 203.315 165.099 207.2 165.876H293.828C298.101 165.876 301.597 162.38 301.597 158.106V102.944C301.597 98.6709 298.101 95.1747 293.828 95.1747ZM210.696 189.961H179.23C174.957 189.961 171.461 193.457 171.461 197.73C171.461 199.284 171.849 200.838 173.015 202.392C174.18 204.334 176.511 205.499 179.23 205.499H210.696C214.969 205.499 218.465 202.003 218.465 197.73C218.465 193.457 214.969 189.961 210.696 189.961ZM134.168 102.556V217.542C136.887 217.542 139.218 217.542 141.937 217.153V102.944C139.218 102.944 136.887 102.556 134.168 102.556ZM210.696 189.961H179.23C174.957 189.961 171.461 193.457 171.461 197.73C171.461 199.284 171.849 200.838 173.015 202.392C174.18 204.334 176.511 205.499 179.23 205.499H210.696C214.969 205.499 218.465 202.003 218.465 197.73C218.465 193.457 214.969 189.961 210.696 189.961ZM271.297 229.584H179.23C174.957 229.584 171.461 233.081 171.461 237.354C171.461 241.627 174.957 245.123 179.23 245.123H271.297C275.57 245.123 279.066 241.627 279.066 237.354C279.066 233.081 275.57 229.584 271.297 229.584ZM225.069 268.82H179.23C175.346 268.82 172.238 271.539 171.461 275.035V276.589C171.461 279.308 173.015 281.639 174.957 283.193C176.122 283.97 177.676 284.358 179.23 284.358H225.458C229.731 284.358 232.839 280.862 232.839 276.589C232.839 272.316 229.342 268.82 225.069 268.82ZM322.575 189.961H241.773C237.5 189.961 234.004 193.457 234.004 197.73C234.004 202.003 237.5 205.499 241.773 205.499H322.575C326.848 205.499 330.344 202.003 330.344 197.73C330.344 193.457 326.848 189.961 322.575 189.961ZM322.575 268.82H256.535C252.262 268.82 248.766 272.316 248.766 276.589C248.766 280.862 252.262 284.358 256.535 284.358H322.575C326.848 284.358 330.344 280.862 330.344 276.589C330.344 272.316 326.848 268.82 322.575 268.82ZM322.575 229.584H302.374C298.101 229.584 294.605 233.081 294.605 237.354C294.605 241.627 298.101 245.123 302.374 245.123H322.575C326.848 245.123 330.344 241.627 330.344 237.354C330.344 233.081 326.848 229.584 322.575 229.584ZM322.575 229.584H302.374C298.101 229.584 294.605 233.081 294.605 237.354C294.605 241.627 298.101 245.123 302.374 245.123H322.575C326.848 245.123 330.344 241.627 330.344 237.354C330.344 233.081 326.848 229.584 322.575 229.584ZM322.575 268.82H256.535C252.262 268.82 248.766 272.316 248.766 276.589C248.766 280.862 252.262 284.358 256.535 284.358H322.575C326.848 284.358 330.344 280.862 330.344 276.589C330.344 272.316 326.848 268.82 322.575 268.82ZM322.575 189.961H241.773C237.5 189.961 234.004 193.457 234.004 197.73C234.004 202.003 237.5 205.499 241.773 205.499H322.575C326.848 205.499 330.344 202.003 330.344 197.73C330.344 193.457 326.848 189.961 322.575 189.961ZM225.069 268.82H179.23C175.346 268.82 172.238 271.539 171.461 275.035V276.589C171.461 279.308 173.015 281.639 174.957 283.193C176.122 283.97 177.676 284.358 179.23 284.358H225.458C229.731 284.358 232.839 280.862 232.839 276.589C232.839 272.316 229.342 268.82 225.069 268.82ZM271.297 229.584H179.23C174.957 229.584 171.461 233.081 171.461 237.354C171.461 241.627 174.957 245.123 179.23 245.123H271.297C275.57 245.123 279.066 241.627 279.066 237.354C279.066 233.081 275.57 229.584 271.297 229.584ZM293.828 95.1747H286.447V87.0169C286.447 67.5935 270.52 51.6663 251.097 51.6663C235.558 51.6663 222.739 61.378 217.688 74.9744L227.789 85.0745H231.285C232.45 75.3629 240.996 67.5935 251.097 67.5935C261.974 67.5935 270.908 76.5283 270.908 87.4053V95.1747H246.047C249.154 102.167 250.708 106.829 252.651 110.713H285.67V150.337H215.746V110.713H244.104L239.443 99.8363L225.846 100.613C223.515 100.613 221.573 99.8363 220.019 98.2824L216.912 95.1747L215.746 94.0093V95.1747H208.365C204.092 95.1747 200.596 98.6709 200.596 102.944V158.106C200.596 161.991 203.315 165.099 207.2 165.876H293.828C298.101 165.876 301.597 162.38 301.597 158.106V102.944C301.597 98.6709 298.101 95.1747 293.828 95.1747ZM210.696 189.961H179.23C174.957 189.961 171.461 193.457 171.461 197.73C171.461 199.284 171.849 200.838 173.015 202.392C174.18 204.334 176.511 205.499 179.23 205.499H210.696C214.969 205.499 218.465 202.003 218.465 197.73C218.465 193.457 214.969 189.961 210.696 189.961ZM134.168 102.556V217.542C136.887 217.542 139.218 217.542 141.937 217.153V102.944C139.218 102.944 136.887 102.556 134.168 102.556ZM210.696 189.961H179.23C174.957 189.961 171.461 193.457 171.461 197.73C171.461 199.284 171.849 200.838 173.015 202.392C174.18 204.334 176.511 205.499 179.23 205.499H210.696C214.969 205.499 218.465 202.003 218.465 197.73C218.465 193.457 214.969 189.961 210.696 189.961ZM271.297 229.584H179.23C174.957 229.584 171.461 233.081 171.461 237.354C171.461 241.627 174.957 245.123 179.23 245.123H271.297C275.57 245.123 279.066 241.627 279.066 237.354C279.066 233.081 275.57 229.584 271.297 229.584ZM225.069 268.82H179.23C175.346 268.82 172.238 271.539 171.461 275.035V276.589C171.461 279.308 173.015 281.639 174.957 283.193C176.122 283.97 177.676 284.358 179.23 284.358H225.458C229.731 284.358 232.839 280.862 232.839 276.589C232.839 272.316 229.342 268.82 225.069 268.82ZM322.575 189.961H241.773C237.5 189.961 234.004 193.457 234.004 197.73C234.004 202.003 237.5 205.499 241.773 205.499H322.575C326.848 205.499 330.344 202.003 330.344 197.73C330.344 193.457 326.848 189.961 322.575 189.961ZM322.575 268.82H256.535C252.262 268.82 248.766 272.316 248.766 276.589C248.766 280.862 252.262 284.358 256.535 284.358H322.575C326.848 284.358 330.344 280.862 330.344 276.589C330.344 272.316 326.848 268.82 322.575 268.82ZM322.575 229.584H302.374C298.101 229.584 294.605 233.081 294.605 237.354C294.605 241.627 298.101 245.123 302.374 245.123H322.575C326.848 245.123 330.344 241.627 330.344 237.354C330.344 233.081 326.848 229.584 322.575 229.584ZM322.575 229.584H302.374C298.101 229.584 294.605 233.081 294.605 237.354C294.605 241.627 298.101 245.123 302.374 245.123H322.575C326.848 245.123 330.344 241.627 330.344 237.354C330.344 233.081 326.848 229.584 322.575 229.584ZM322.575 268.82H256.535C252.262 268.82 248.766 272.316 248.766 276.589C248.766 280.862 252.262 284.358 256.535 284.358H322.575C326.848 284.358 330.344 280.862 330.344 276.589C330.344 272.316 326.848 268.82 322.575 268.82ZM241.773 189.961C237.5 189.961 234.004 193.457 234.004 197.73C234.004 202.003 237.5 205.499 241.773 205.499H322.575C326.848 205.499 330.344 202.003 330.344 197.73C330.344 193.457 326.848 189.961 322.575 189.961H241.773ZM225.069 268.82H179.23C175.346 268.82 172.238 271.539 171.461 275.035V276.589C171.461 279.308 173.015 281.639 174.957 283.193C176.122 283.97 177.676 284.358 179.23 284.358H225.458C229.731 284.358 232.839 280.862 232.839 276.589C232.839 272.316 229.342 268.82 225.069 268.82ZM179.23 245.123H271.297C275.57 245.123 279.066 241.627 279.066 237.354C279.066 233.081 275.57 229.584 271.297 229.584H179.23C174.957 229.584 171.461 233.081 171.461 237.354C171.461 241.627 174.957 245.123 179.23 245.123ZM206.811 165.876H293.44C297.713 165.876 301.209 162.38 301.209 158.106V102.944C301.209 98.6709 297.713 95.1747 293.44 95.1747H286.059V87.0169C286.059 67.5935 270.132 51.6663 250.708 51.6663C235.169 51.6663 222.35 61.378 217.3 74.9744L227.4 85.0745H230.896C232.062 75.3629 240.608 67.5935 250.708 67.5935C261.585 67.5935 270.52 76.5283 270.52 87.4053V95.1747H245.658C248.766 102.167 250.32 106.829 252.262 110.713H285.282V150.337H215.358V110.713H243.716L239.443 99.8363L225.846 100.613C223.515 100.613 221.573 99.8363 220.019 98.2824L216.912 95.1747L215.746 94.0093V95.1747H208.365C204.092 95.1747 200.596 98.6709 200.596 102.944V158.106C200.596 161.991 203.315 165.099 206.811 165.876ZM179.23 205.499H210.696C214.969 205.499 218.465 202.003 218.465 197.73C218.465 193.457 214.969 189.961 210.696 189.961H179.23C174.957 189.961 171.461 193.457 171.461 197.73C171.461 199.284 171.849 200.838 173.015 202.392C174.18 204.334 176.511 205.499 179.23 205.499ZM134.168 217.542C136.887 217.542 139.218 217.542 141.937 217.153V102.944C139.607 102.556 136.887 102.556 134.168 102.556V217.542ZM302.374 7.76953H134.168V320.874H367.637V73.032L302.374 7.76953ZM348.99 65.2627H310.144V26.416L348.99 65.2627ZM359.868 313.105H141.937V15.5389H294.605V73.032C294.605 77.3052 298.101 80.8014 302.374 80.8014H359.868V313.105ZM322.575 229.584H302.374C298.101 229.584 294.605 233.081 294.605 237.354C294.605 241.627 298.101 245.123 302.374 245.123H322.575C326.848 245.123 330.344 241.627 330.344 237.354C330.344 233.081 326.848 229.584 322.575 229.584ZM322.575 268.82H256.535C252.262 268.82 248.766 272.316 248.766 276.589C248.766 280.862 252.262 284.358 256.535 284.358H322.575C326.848 284.358 330.344 280.862 330.344 276.589C330.344 272.316 326.848 268.82 322.575 268.82ZM241.773 189.961C237.5 189.961 234.004 193.457 234.004 197.73C234.004 202.003 237.5 205.499 241.773 205.499H322.575C326.848 205.499 330.344 202.003 330.344 197.73C330.344 193.457 326.848 189.961 322.575 189.961H241.773ZM225.069 268.82H179.23C175.346 268.82 172.238 271.539 171.461 275.035V276.589C171.461 279.308 173.015 281.639 174.957 283.193C176.122 283.97 177.676 284.358 179.23 284.358H225.458C229.731 284.358 232.839 280.862 232.839 276.589C232.839 272.316 229.342 268.82 225.069 268.82ZM179.23 245.123H271.297C275.57 245.123 279.066 241.627 279.066 237.354C279.066 233.081 275.57 229.584 271.297 229.584H179.23C174.957 229.584 171.461 233.081 171.461 237.354C171.461 241.627 174.957 245.123 179.23 245.123ZM206.811 165.876H293.44C297.713 165.876 301.209 162.38 301.209 158.106V102.944C301.209 98.6709 297.713 95.1747 293.44 95.1747H286.059V87.0169C286.059 67.5935 270.132 51.6663 250.708 51.6663C235.169 51.6663 222.35 61.378 217.3 74.9744C216.523 76.9167 216.135 78.8591 215.746 80.8014C215.746 81.5783 215.358 81.9668 215.358 82.7437V95.1747H208.365C204.092 95.1747 200.596 98.6709 200.596 102.944V158.106C200.596 161.991 203.315 165.099 206.811 165.876ZM251.097 67.205C261.974 67.205 270.908 76.1398 270.908 87.0169V95.1747H231.285V85.0745C232.45 74.9744 240.996 67.205 251.097 67.205ZM215.746 110.713H285.67V150.337H215.746V110.713ZM179.23 205.499H210.696C214.969 205.499 218.465 202.003 218.465 197.73C218.465 193.457 214.969 189.961 210.696 189.961H179.23C174.957 189.961 171.461 193.457 171.461 197.73C171.461 199.284 171.849 200.838 173.015 202.392C174.18 204.334 176.511 205.499 179.23 205.499ZM134.168 102.556V217.542C136.887 217.542 139.218 217.542 141.937 217.153V102.944C139.218 102.944 136.887 102.556 134.168 102.556ZM210.696 189.961H179.23C174.957 189.961 171.461 193.457 171.461 197.73C171.461 199.284 171.849 200.838 173.015 202.392C174.18 204.334 176.511 205.499 179.23 205.499H210.696C214.969 205.499 218.465 202.003 218.465 197.73C218.465 193.457 214.969 189.961 210.696 189.961ZM293.828 95.1747H286.447V87.0169C286.447 67.5935 270.52 51.6663 251.097 51.6663C235.558 51.6663 222.739 61.378 217.688 74.9744L227.789 85.0745H231.285C232.45 75.3629 240.996 67.5935 251.097 67.5935C261.974 67.5935 270.908 76.5283 270.908 87.4053V95.1747H246.047C249.154 102.167 250.708 106.829 252.651 110.713H285.67V150.337H215.746V110.713H244.104L239.443 99.8363L225.846 100.613C223.515 100.613 221.573 99.8363 220.019 98.2824L216.912 95.1747L215.746 94.0093V95.1747H208.365C204.092 95.1747 200.596 98.6709 200.596 102.944V158.106C200.596 161.991 203.315 165.099 207.2 165.876H293.828C298.101 165.876 301.597 162.38 301.597 158.106V102.944C301.597 98.6709 298.101 95.1747 293.828 95.1747ZM271.297 229.584H179.23C174.957 229.584 171.461 233.081 171.461 237.354C171.461 241.627 174.957 245.123 179.23 245.123H271.297C275.57 245.123 279.066 241.627 279.066 237.354C279.066 233.081 275.57 229.584 271.297 229.584ZM225.069 268.82H179.23C175.346 268.82 172.238 271.539 171.461 275.035V276.589C171.461 279.308 173.015 281.639 174.957 283.193C176.122 283.97 177.676 284.358 179.23 284.358H225.458C229.731 284.358 232.839 280.862 232.839 276.589C232.839 272.316 229.342 268.82 225.069 268.82ZM322.575 189.961H241.773C237.5 189.961 234.004 193.457 234.004 197.73C234.004 202.003 237.5 205.499 241.773 205.499H322.575C326.848 205.499 330.344 202.003 330.344 197.73C330.344 193.457 326.848 189.961 322.575 189.961ZM322.575 268.82H256.535C252.262 268.82 248.766 272.316 248.766 276.589C248.766 280.862 252.262 284.358 256.535 284.358H322.575C326.848 284.358 330.344 280.862 330.344 276.589C330.344 272.316 326.848 268.82 322.575 268.82ZM322.575 229.584H302.374C298.101 229.584 294.605 233.081 294.605 237.354C294.605 241.627 298.101 245.123 302.374 245.123H322.575C326.848 245.123 330.344 241.627 330.344 237.354C330.344 233.081 326.848 229.584 322.575 229.584ZM322.575 229.584H302.374C298.101 229.584 294.605 233.081 294.605 237.354C294.605 241.627 298.101 245.123 302.374 245.123H322.575C326.848 245.123 330.344 241.627 330.344 237.354C330.344 233.081 326.848 229.584 322.575 229.584ZM322.575 268.82H256.535C252.262 268.82 248.766 272.316 248.766 276.589C248.766 280.862 252.262 284.358 256.535 284.358H322.575C326.848 284.358 330.344 280.862 330.344 276.589C330.344 272.316 326.848 268.82 322.575 268.82ZM322.575 189.961H241.773C237.5 189.961 234.004 193.457 234.004 197.73C234.004 202.003 237.5 205.499 241.773 205.499H322.575C326.848 205.499 330.344 202.003 330.344 197.73C330.344 193.457 326.848 189.961 322.575 189.961ZM225.069 268.82H179.23C175.346 268.82 172.238 271.539 171.461 275.035V276.589C171.461 279.308 173.015 281.639 174.957 283.193C176.122 283.97 177.676 284.358 179.23 284.358H225.458C229.731 284.358 232.839 280.862 232.839 276.589C232.839 272.316 229.342 268.82 225.069 268.82ZM271.297 229.584H179.23C174.957 229.584 171.461 233.081 171.461 237.354C171.461 241.627 174.957 245.123 179.23 245.123H271.297C275.57 245.123 279.066 241.627 279.066 237.354C279.066 233.081 275.57 229.584 271.297 229.584ZM210.696 189.961H179.23C174.957 189.961 171.461 193.457 171.461 197.73C171.461 199.284 171.849 200.838 173.015 202.392C174.18 204.334 176.511 205.499 179.23 205.499H210.696C214.969 205.499 218.465 202.003 218.465 197.73C218.465 193.457 214.969 189.961 210.696 189.961ZM134.168 102.556V217.542C136.887 217.542 139.218 217.542 141.937 217.153V102.944C139.218 102.944 136.887 102.556 134.168 102.556ZM210.696 189.961H179.23C174.957 189.961 171.461 193.457 171.461 197.73C171.461 199.284 171.849 200.838 173.015 202.392C174.18 204.334 176.511 205.499 179.23 205.499H210.696C214.969 205.499 218.465 202.003 218.465 197.73C218.465 193.457 214.969 189.961 210.696 189.961ZM293.828 95.1747H286.447V87.0169C286.447 67.5935 270.52 51.6663 251.097 51.6663C235.558 51.6663 222.739 61.378 217.688 74.9744L227.789 85.0745H231.285C232.45 75.3629 240.996 67.5935 251.097 67.5935C261.974 67.5935 270.908 76.5283 270.908 87.4053V95.1747H246.047C249.154 102.167 250.708 106.829 252.651 110.713H285.67V150.337H215.746V110.713H244.104L239.443 99.8363L225.846 100.613C223.515 100.613 221.573 99.8363 220.019 98.2824L216.912 95.1747L215.746 94.0093V95.1747H208.365C204.092 95.1747 200.596 98.6709 200.596 102.944V158.106C200.596 161.991 203.315 165.099 207.2 165.876H293.828C298.101 165.876 301.597 162.38 301.597 158.106V102.944C301.597 98.6709 298.101 95.1747 293.828 95.1747ZM271.297 229.584H179.23C174.957 229.584 171.461 233.081 171.461 237.354C171.461 241.627 174.957 245.123 179.23 245.123H271.297C275.57 245.123 279.066 241.627 279.066 237.354C279.066 233.081 275.57 229.584 271.297 229.584ZM225.069 268.82H179.23C175.346 268.82 172.238 271.539 171.461 275.035V276.589C171.461 279.308 173.015 281.639 174.957 283.193C176.122 283.97 177.676 284.358 179.23 284.358H225.458C229.731 284.358 232.839 280.862 232.839 276.589C232.839 272.316 229.342 268.82 225.069 268.82ZM322.575 189.961H241.773C237.5 189.961 234.004 193.457 234.004 197.73C234.004 202.003 237.5 205.499 241.773 205.499H322.575C326.848 205.499 330.344 202.003 330.344 197.73C330.344 193.457 326.848 189.961 322.575 189.961ZM322.575 268.82H256.535C252.262 268.82 248.766 272.316 248.766 276.589C248.766 280.862 252.262 284.358 256.535 284.358H322.575C326.848 284.358 330.344 280.862 330.344 276.589C330.344 272.316 326.848 268.82 322.575 268.82ZM322.575 229.584H302.374C298.101 229.584 294.605 233.081 294.605 237.354C294.605 241.627 298.101 245.123 302.374 245.123H322.575C326.848 245.123 330.344 241.627 330.344 237.354C330.344 233.081 326.848 229.584 322.575 229.584ZM322.575 229.584H302.374C298.101 229.584 294.605 233.081 294.605 237.354C294.605 241.627 298.101 245.123 302.374 245.123H322.575C326.848 245.123 330.344 241.627 330.344 237.354C330.344 233.081 326.848 229.584 322.575 229.584ZM322.575 268.82H256.535C252.262 268.82 248.766 272.316 248.766 276.589C248.766 280.862 252.262 284.358 256.535 284.358H322.575C326.848 284.358 330.344 280.862 330.344 276.589C330.344 272.316 326.848 268.82 322.575 268.82ZM322.575 189.961H241.773C237.5 189.961 234.004 193.457 234.004 197.73C234.004 202.003 237.5 205.499 241.773 205.499H322.575C326.848 205.499 330.344 202.003 330.344 197.73C330.344 193.457 326.848 189.961 322.575 189.961ZM225.069 268.82H179.23C175.346 268.82 172.238 271.539 171.461 275.035V276.589C171.461 279.308 173.015 281.639 174.957 283.193C176.122 283.97 177.676 284.358 179.23 284.358H225.458C229.731 284.358 232.839 280.862 232.839 276.589C232.839 272.316 229.342 268.82 225.069 268.82ZM271.297 229.584H179.23C174.957 229.584 171.461 233.081 171.461 237.354C171.461 241.627 174.957 245.123 179.23 245.123H271.297C275.57 245.123 279.066 241.627 279.066 237.354C279.066 233.081 275.57 229.584 271.297 229.584ZM210.696 189.961H179.23C174.957 189.961 171.461 193.457 171.461 197.73C171.461 199.284 171.849 200.838 173.015 202.392C174.18 204.334 176.511 205.499 179.23 205.499H210.696C214.969 205.499 218.465 202.003 218.465 197.73C218.465 193.457 214.969 189.961 210.696 189.961ZM134.168 102.556V217.542C136.887 217.542 139.218 217.542 141.937 217.153V102.944C139.218 102.944 136.887 102.556 134.168 102.556ZM210.696 189.961H179.23C174.957 189.961 171.461 193.457 171.461 197.73C171.461 199.284 171.849 200.838 173.015 202.392C174.18 204.334 176.511 205.499 179.23 205.499H210.696C214.969 205.499 218.465 202.003 218.465 197.73C218.465 193.457 214.969 189.961 210.696 189.961ZM293.828 95.1747H286.447V87.0169C286.447 67.5935 270.52 51.6663 251.097 51.6663C235.558 51.6663 222.739 61.378 217.688 74.9744L227.789 85.0745H231.285C232.45 75.3629 240.996 67.5935 251.097 67.5935C261.974 67.5935 270.908 76.5283 270.908 87.4053V95.1747H246.047C249.154 102.167 250.708 106.829 252.651 110.713H285.67V150.337H215.746V110.713H244.104L239.443 99.8363L225.846 100.613C223.515 100.613 221.573 99.8363 220.019 98.2824L216.912 95.1747L215.746 94.0093V95.1747H208.365C204.092 95.1747 200.596 98.6709 200.596 102.944V158.106C200.596 161.991 203.315 165.099 207.2 165.876H293.828C298.101 165.876 301.597 162.38 301.597 158.106V102.944C301.597 98.6709 298.101 95.1747 293.828 95.1747ZM271.297 229.584H179.23C174.957 229.584 171.461 233.081 171.461 237.354C171.461 241.627 174.957 245.123 179.23 245.123H271.297C275.57 245.123 279.066 241.627 279.066 237.354C279.066 233.081 275.57 229.584 271.297 229.584ZM225.069 268.82H179.23C175.346 268.82 172.238 271.539 171.461 275.035V276.589C171.461 279.308 173.015 281.639 174.957 283.193C176.122 283.97 177.676 284.358 179.23 284.358H225.458C229.731 284.358 232.839 280.862 232.839 276.589C232.839 272.316 229.342 268.82 225.069 268.82ZM322.575 189.961H241.773C237.5 189.961 234.004 193.457 234.004 197.73C234.004 202.003 237.5 205.499 241.773 205.499H322.575C326.848 205.499 330.344 202.003 330.344 197.73C330.344 193.457 326.848 189.961 322.575 189.961ZM322.575 268.82H256.535C252.262 268.82 248.766 272.316 248.766 276.589C248.766 280.862 252.262 284.358 256.535 284.358H322.575C326.848 284.358 330.344 280.862 330.344 276.589C330.344 272.316 326.848 268.82 322.575 268.82ZM322.575 229.584H302.374C298.101 229.584 294.605 233.081 294.605 237.354C294.605 241.627 298.101 245.123 302.374 245.123H322.575C326.848 245.123 330.344 241.627 330.344 237.354C330.344 233.081 326.848 229.584 322.575 229.584ZM322.575 229.584H302.374C298.101 229.584 294.605 233.081 294.605 237.354C294.605 241.627 298.101 245.123 302.374 245.123H322.575C326.848 245.123 330.344 241.627 330.344 237.354C330.344 233.081 326.848 229.584 322.575 229.584ZM322.575 268.82H256.535C252.262 268.82 248.766 272.316 248.766 276.589C248.766 280.862 252.262 284.358 256.535 284.358H322.575C326.848 284.358 330.344 280.862 330.344 276.589C330.344 272.316 326.848 268.82 322.575 268.82ZM322.575 189.961H241.773C237.5 189.961 234.004 193.457 234.004 197.73C234.004 202.003 237.5 205.499 241.773 205.499H322.575C326.848 205.499 330.344 202.003 330.344 197.73C330.344 193.457 326.848 189.961 322.575 189.961ZM225.069 268.82H179.23C175.346 268.82 172.238 271.539 171.461 275.035V276.589C171.461 279.308 173.015 281.639 174.957 283.193C176.122 283.97 177.676 284.358 179.23 284.358H225.458C229.731 284.358 232.839 280.862 232.839 276.589C232.839 272.316 229.342 268.82 225.069 268.82ZM271.297 229.584H179.23C174.957 229.584 171.461 233.081 171.461 237.354C171.461 241.627 174.957 245.123 179.23 245.123H271.297C275.57 245.123 279.066 241.627 279.066 237.354C279.066 233.081 275.57 229.584 271.297 229.584ZM210.696 189.961H179.23C174.957 189.961 171.461 193.457 171.461 197.73C171.461 199.284 171.849 200.838 173.015 202.392C174.18 204.334 176.511 205.499 179.23 205.499H210.696C214.969 205.499 218.465 202.003 218.465 197.73C218.465 193.457 214.969 189.961 210.696 189.961ZM134.168 102.556V217.542C136.887 217.542 139.218 217.542 141.937 217.153V102.944C139.218 102.944 136.887 102.556 134.168 102.556ZM210.696 189.961H179.23C174.957 189.961 171.461 193.457 171.461 197.73C171.461 199.284 171.849 200.838 173.015 202.392C174.18 204.334 176.511 205.499 179.23 205.499H210.696C214.969 205.499 218.465 202.003 218.465 197.73C218.465 193.457 214.969 189.961 210.696 189.961ZM293.828 95.1747H286.447V87.0169C286.447 67.5935 270.52 51.6663 251.097 51.6663C235.558 51.6663 222.739 61.378 217.688 74.9744L227.789 85.0745H231.285C232.45 75.3629 240.996 67.5935 251.097 67.5935C261.974 67.5935 270.908 76.5283 270.908 87.4053V95.1747H246.047C249.154 102.167 250.708 106.829 252.651 110.713H285.67V150.337H215.746V110.713H244.104L239.443 99.8363L225.846 100.613C223.515 100.613 221.573 99.8363 220.019 98.2824L216.912 95.1747L215.746 94.0093V95.1747H208.365C204.092 95.1747 200.596 98.6709 200.596 102.944V158.106C200.596 161.991 203.315 165.099 207.2 165.876H293.828C298.101 165.876 301.597 162.38 301.597 158.106V102.944C301.597 98.6709 298.101 95.1747 293.828 95.1747ZM271.297 229.584H179.23C174.957 229.584 171.461 233.081 171.461 237.354C171.461 241.627 174.957 245.123 179.23 245.123H271.297C275.57 245.123 279.066 241.627 279.066 237.354C279.066 233.081 275.57 229.584 271.297 229.584ZM225.069 268.82H179.23C175.346 268.82 172.238 271.539 171.461 275.035V276.589C171.461 279.308 173.015 281.639 174.957 283.193C176.122 283.97 177.676 284.358 179.23 284.358H225.458C229.731 284.358 232.839 280.862 232.839 276.589C232.839 272.316 229.342 268.82 225.069 268.82ZM322.575 189.961H241.773C237.5 189.961 234.004 193.457 234.004 197.73C234.004 202.003 237.5 205.499 241.773 205.499H322.575C326.848 205.499 330.344 202.003 330.344 197.73C330.344 193.457 326.848 189.961 322.575 189.961ZM322.575 268.82H256.535C252.262 268.82 248.766 272.316 248.766 276.589C248.766 280.862 252.262 284.358 256.535 284.358H322.575C326.848 284.358 330.344 280.862 330.344 276.589C330.344 272.316 326.848 268.82 322.575 268.82ZM322.575 229.584H302.374C298.101 229.584 294.605 233.081 294.605 237.354C294.605 241.627 298.101 245.123 302.374 245.123H322.575C326.848 245.123 330.344 241.627 330.344 237.354C330.344 233.081 326.848 229.584 322.575 229.584ZM322.575 229.584H302.374C298.101 229.584 294.605 233.081 294.605 237.354C294.605 241.627 298.101 245.123 302.374 245.123H322.575C326.848 245.123 330.344 241.627 330.344 237.354C330.344 233.081 326.848 229.584 322.575 229.584ZM322.575 268.82H256.535C252.262 268.82 248.766 272.316 248.766 276.589C248.766 280.862 252.262 284.358 256.535 284.358H322.575C326.848 284.358 330.344 280.862 330.344 276.589C330.344 272.316 326.848 268.82 322.575 268.82ZM322.575 189.961H241.773C237.5 189.961 234.004 193.457 234.004 197.73C234.004 202.003 237.5 205.499 241.773 205.499H322.575C326.848 205.499 330.344 202.003 330.344 197.73C330.344 193.457 326.848 189.961 322.575 189.961ZM225.069 268.82H179.23C175.346 268.82 172.238 271.539 171.461 275.035V276.589C171.461 279.308 173.015 281.639 174.957 283.193C176.122 283.97 177.676 284.358 179.23 284.358H225.458C229.731 284.358 232.839 280.862 232.839 276.589C232.839 272.316 229.342 268.82 225.069 268.82ZM271.297 229.584H179.23C174.957 229.584 171.461 233.081 171.461 237.354C171.461 241.627 174.957 245.123 179.23 245.123H271.297C275.57 245.123 279.066 241.627 279.066 237.354C279.066 233.081 275.57 229.584 271.297 229.584ZM210.696 189.961H179.23C174.957 189.961 171.461 193.457 171.461 197.73C171.461 199.284 171.849 200.838 173.015 202.392C174.18 204.334 176.511 205.499 179.23 205.499H210.696C214.969 205.499 218.465 202.003 218.465 197.73C218.465 193.457 214.969 189.961 210.696 189.961ZM134.168 102.556V217.542C136.887 217.542 139.218 217.542 141.937 217.153V102.944C139.218 102.944 136.887 102.556 134.168 102.556ZM210.696 189.961H179.23C174.957 189.961 171.461 193.457 171.461 197.73C171.461 199.284 171.849 200.838 173.015 202.392C174.18 204.334 176.511 205.499 179.23 205.499H210.696C214.969 205.499 218.465 202.003 218.465 197.73C218.465 193.457 214.969 189.961 210.696 189.961ZM293.828 95.1747H286.447V87.0169C286.447 67.5935 270.52 51.6663 251.097 51.6663C235.558 51.6663 222.739 61.378 217.688 74.9744L227.789 85.0745H231.285C232.45 75.3629 240.996 67.5935 251.097 67.5935C261.974 67.5935 270.908 76.5283 270.908 87.4053V95.1747H246.047C249.154 102.167 250.708 106.829 252.651 110.713H285.67V150.337H215.746V110.713H244.104L239.443 99.8363L225.846 100.613C223.515 100.613 221.573 99.8363 220.019 98.2824L216.912 95.1747L215.746 94.0093V95.1747H208.365C204.092 95.1747 200.596 98.6709 200.596 102.944V158.106C200.596 161.991 203.315 165.099 207.2 165.876H293.828C298.101 165.876 301.597 162.38 301.597 158.106V102.944C301.597 98.6709 298.101 95.1747 293.828 95.1747ZM271.297 229.584H179.23C174.957 229.584 171.461 233.081 171.461 237.354C171.461 241.627 174.957 245.123 179.23 245.123H271.297C275.57 245.123 279.066 241.627 279.066 237.354C279.066 233.081 275.57 229.584 271.297 229.584ZM225.069 268.82H179.23C175.346 268.82 172.238 271.539 171.461 275.035V276.589C171.461 279.308 173.015 281.639 174.957 283.193C176.122 283.97 177.676 284.358 179.23 284.358H225.458C229.731 284.358 232.839 280.862 232.839 276.589C232.839 272.316 229.342 268.82 225.069 268.82ZM322.575 189.961H241.773C237.5 189.961 234.004 193.457 234.004 197.73C234.004 202.003 237.5 205.499 241.773 205.499H322.575C326.848 205.499 330.344 202.003 330.344 197.73C330.344 193.457 326.848 189.961 322.575 189.961ZM322.575 268.82H256.535C252.262 268.82 248.766 272.316 248.766 276.589C248.766 280.862 252.262 284.358 256.535 284.358H322.575C326.848 284.358 330.344 280.862 330.344 276.589C330.344 272.316 326.848 268.82 322.575 268.82ZM322.575 229.584H302.374C298.101 229.584 294.605 233.081 294.605 237.354C294.605 241.627 298.101 245.123 302.374 245.123H322.575C326.848 245.123 330.344 241.627 330.344 237.354C330.344 233.081 326.848 229.584 322.575 229.584ZM322.575 229.584H302.374C298.101 229.584 294.605 233.081 294.605 237.354C294.605 241.627 298.101 245.123 302.374 245.123H322.575C326.848 245.123 330.344 241.627 330.344 237.354C330.344 233.081 326.848 229.584 322.575 229.584ZM322.575 268.82H256.535C252.262 268.82 248.766 272.316 248.766 276.589C248.766 280.862 252.262 284.358 256.535 284.358H322.575C326.848 284.358 330.344 280.862 330.344 276.589C330.344 272.316 326.848 268.82 322.575 268.82ZM322.575 189.961H241.773C237.5 189.961 234.004 193.457 234.004 197.73C234.004 202.003 237.5 205.499 241.773 205.499H322.575C326.848 205.499 330.344 202.003 330.344 197.73C330.344 193.457 326.848 189.961 322.575 189.961ZM225.069 268.82H179.23C175.346 268.82 172.238 271.539 171.461 275.035V276.589C171.461 279.308 173.015 281.639 174.957 283.193C176.122 283.97 177.676 284.358 179.23 284.358H225.458C229.731 284.358 232.839 280.862 232.839 276.589C232.839 272.316 229.342 268.82 225.069 268.82ZM271.297 229.584H179.23C174.957 229.584 171.461 233.081 171.461 237.354C171.461 241.627 174.957 245.123 179.23 245.123H271.297C275.57 245.123 279.066 241.627 279.066 237.354C279.066 233.081 275.57 229.584 271.297 229.584ZM210.696 189.961H179.23C174.957 189.961 171.461 193.457 171.461 197.73C171.461 199.284 171.849 200.838 173.015 202.392C174.18 204.334 176.511 205.499 179.23 205.499H210.696C214.969 205.499 218.465 202.003 218.465 197.73C218.465 193.457 214.969 189.961 210.696 189.961ZM134.168 102.556V217.542C136.887 217.542 139.218 217.542 141.937 217.153V102.944C139.218 102.944 136.887 102.556 134.168 102.556ZM179.23 268.82C175.346 268.82 172.238 271.539 171.461 275.035L186.223 268.82H179.23ZM210.696 189.961H179.23C174.957 189.961 171.461 193.457 171.461 197.73C171.461 199.284 171.849 200.838 173.015 202.392C174.18 204.334 176.511 205.499 179.23 205.499H210.696C214.969 205.499 218.465 202.003 218.465 197.73C218.465 193.457 214.969 189.961 210.696 189.961ZM293.828 95.1747H286.447V87.0169C286.447 67.5935 270.52 51.6663 251.097 51.6663C235.558 51.6663 222.739 61.378 217.688 74.9744L227.789 85.0745H231.285C232.45 75.3629 240.996 67.5935 251.097 67.5935C261.974 67.5935 270.908 76.5283 270.908 87.4053V95.1747H246.047C249.154 102.167 250.708 106.829 252.651 110.713H285.67V150.337H215.746V110.713H244.104L239.443 99.8363L225.846 100.613C223.515 100.613 221.573 99.8363 220.019 98.2824L216.912 95.1747L215.746 94.0093V95.1747H208.365C204.092 95.1747 200.596 98.6709 200.596 102.944V158.106C200.596 161.991 203.315 165.099 207.2 165.876H293.828C298.101 165.876 301.597 162.38 301.597 158.106V102.944C301.597 98.6709 298.101 95.1747 293.828 95.1747ZM271.297 229.584H179.23C174.957 229.584 171.461 233.081 171.461 237.354C171.461 241.627 174.957 245.123 179.23 245.123H271.297C275.57 245.123 279.066 241.627 279.066 237.354C279.066 233.081 275.57 229.584 271.297 229.584ZM225.069 268.82H209.919V269.985C209.919 273.093 207.977 276.2 205.257 277.366L188.553 284.358H225.458C229.731 284.358 232.839 280.862 232.839 276.589C232.839 272.316 229.342 268.82 225.069 268.82ZM322.575 189.961H241.773C237.5 189.961 234.004 193.457 234.004 197.73C234.004 202.003 237.5 205.499 241.773 205.499H322.575C326.848 205.499 330.344 202.003 330.344 197.73C330.344 193.457 326.848 189.961 322.575 189.961ZM322.575 268.82H256.535C252.262 268.82 248.766 272.316 248.766 276.589C248.766 280.862 252.262 284.358 256.535 284.358H322.575C326.848 284.358 330.344 280.862 330.344 276.589C330.344 272.316 326.848 268.82 322.575 268.82ZM322.575 229.584H302.374C298.101 229.584 294.605 233.081 294.605 237.354C294.605 241.627 298.101 245.123 302.374 245.123H322.575C326.848 245.123 330.344 241.627 330.344 237.354C330.344 233.081 326.848 229.584 322.575 229.584ZM322.575 229.584H302.374C298.101 229.584 294.605 233.081 294.605 237.354C294.605 241.627 298.101 245.123 302.374 245.123H322.575C326.848 245.123 330.344 241.627 330.344 237.354C330.344 233.081 326.848 229.584 322.575 229.584ZM322.575 268.82H256.535C252.262 268.82 248.766 272.316 248.766 276.589C248.766 280.862 252.262 284.358 256.535 284.358H322.575C326.848 284.358 330.344 280.862 330.344 276.589C330.344 272.316 326.848 268.82 322.575 268.82ZM271.297 229.584H179.23C174.957 229.584 171.461 233.081 171.461 237.354C171.461 241.627 174.957 245.123 179.23 245.123H271.297C275.57 245.123 279.066 241.627 279.066 237.354C279.066 233.081 275.57 229.584 271.297 229.584ZM322.575 189.961H241.773C237.5 189.961 234.004 193.457 234.004 197.73C234.004 202.003 237.5 205.499 241.773 205.499H322.575C326.848 205.499 330.344 202.003 330.344 197.73C330.344 193.457 326.848 189.961 322.575 189.961ZM210.696 189.961H179.23C174.957 189.961 171.461 193.457 171.461 197.73C171.461 199.284 171.849 200.838 173.015 202.392C174.18 204.334 176.511 205.499 179.23 205.499H210.696C214.969 205.499 218.465 202.003 218.465 197.73C218.465 193.457 214.969 189.961 210.696 189.961ZM134.168 102.556V217.542C136.887 217.542 139.218 217.542 141.937 217.153V102.944C139.218 102.944 136.887 102.556 134.168 102.556ZM179.23 268.82C175.346 268.82 172.238 271.539 171.461 275.035L186.223 268.82H179.23ZM210.696 189.961H179.23C174.957 189.961 171.461 193.457 171.461 197.73C171.461 199.284 171.849 200.838 173.015 202.392C174.18 204.334 176.511 205.499 179.23 205.499H210.696C214.969 205.499 218.465 202.003 218.465 197.73C218.465 193.457 214.969 189.961 210.696 189.961ZM293.828 95.1747H286.447V87.0169C286.447 67.5935 270.52 51.6663 251.097 51.6663C235.558 51.6663 222.739 61.378 217.688 74.9744L227.789 85.0745H231.285C232.45 75.3629 240.996 67.5935 251.097 67.5935C261.974 67.5935 270.908 76.5283 270.908 87.4053V95.1747H246.047C249.154 102.167 250.708 106.829 252.651 110.713H285.67V150.337H215.746V110.713H244.104L239.443 99.8363L225.846 100.613C223.515 100.613 221.573 99.8363 220.019 98.2824L216.912 95.1747L215.746 94.0093V95.1747H208.365C204.092 95.1747 200.596 98.6709 200.596 102.944V158.106C200.596 161.991 203.315 165.099 207.2 165.876H293.828C298.101 165.876 301.597 162.38 301.597 158.106V102.944C301.597 98.6709 298.101 95.1747 293.828 95.1747ZM271.297 229.584H179.23C174.957 229.584 171.461 233.081 171.461 237.354C171.461 241.627 174.957 245.123 179.23 245.123H271.297C275.57 245.123 279.066 241.627 279.066 237.354C279.066 233.081 275.57 229.584 271.297 229.584ZM225.069 268.82H209.919V269.985C209.919 273.093 207.977 276.2 205.257 277.366L188.553 284.358H225.458C229.731 284.358 232.839 280.862 232.839 276.589C232.839 272.316 229.342 268.82 225.069 268.82ZM322.575 189.961H241.773C237.5 189.961 234.004 193.457 234.004 197.73C234.004 202.003 237.5 205.499 241.773 205.499H322.575C326.848 205.499 330.344 202.003 330.344 197.73C330.344 193.457 326.848 189.961 322.575 189.961ZM322.575 268.82H256.535C252.262 268.82 248.766 272.316 248.766 276.589C248.766 280.862 252.262 284.358 256.535 284.358H322.575C326.848 284.358 330.344 280.862 330.344 276.589C330.344 272.316 326.848 268.82 322.575 268.82ZM322.575 229.584H302.374C298.101 229.584 294.605 233.081 294.605 237.354C294.605 241.627 298.101 245.123 302.374 245.123H322.575C326.848 245.123 330.344 241.627 330.344 237.354C330.344 233.081 326.848 229.584 322.575 229.584ZM322.575 229.584H302.374C298.101 229.584 294.605 233.081 294.605 237.354C294.605 241.627 298.101 245.123 302.374 245.123H322.575C326.848 245.123 330.344 241.627 330.344 237.354C330.344 233.081 326.848 229.584 322.575 229.584ZM322.575 268.82H256.535C252.262 268.82 248.766 272.316 248.766 276.589C248.766 280.862 252.262 284.358 256.535 284.358H322.575C326.848 284.358 330.344 280.862 330.344 276.589C330.344 272.316 326.848 268.82 322.575 268.82ZM322.575 189.961H241.773C237.5 189.961 234.004 193.457 234.004 197.73C234.004 202.003 237.5 205.499 241.773 205.499H322.575C326.848 205.499 330.344 202.003 330.344 197.73C330.344 193.457 326.848 189.961 322.575 189.961ZM210.696 189.961H179.23C174.957 189.961 171.461 193.457 171.461 197.73C171.461 199.284 171.849 200.838 173.015 202.392C174.18 204.334 176.511 205.499 179.23 205.499H210.696C214.969 205.499 218.465 202.003 218.465 197.73C218.465 193.457 214.969 189.961 210.696 189.961ZM134.168 102.556V217.542C136.887 217.542 139.218 217.542 141.937 217.153V102.944C139.218 102.944 136.887 102.556 134.168 102.556ZM179.23 268.82C175.346 268.82 172.238 271.539 171.461 275.035L186.223 268.82H179.23ZM210.696 189.961H179.23C174.957 189.961 171.461 193.457 171.461 197.73C171.461 199.284 171.849 200.838 173.015 202.392C174.18 204.334 176.511 205.499 179.23 205.499H210.696C214.969 205.499 218.465 202.003 218.465 197.73C218.465 193.457 214.969 189.961 210.696 189.961ZM293.828 95.1747H286.447V87.0169C286.447 67.5935 270.52 51.6663 251.097 51.6663C235.558 51.6663 222.739 61.378 217.688 74.9744L227.789 85.0745H231.285C232.45 75.3629 240.996 67.5935 251.097 67.5935C261.974 67.5935 270.908 76.5283 270.908 87.4053V95.1747H246.047C249.154 102.167 250.708 106.829 252.651 110.713H285.67V150.337H215.746V110.713H244.104L239.443 99.8363L225.846 100.613C223.515 100.613 221.573 99.8363 220.019 98.2824L216.912 95.1747L215.746 94.0093V95.1747H208.365C204.092 95.1747 200.596 98.6709 200.596 102.944V158.106C200.596 161.991 203.315 165.099 207.2 165.876H293.828C298.101 165.876 301.597 162.38 301.597 158.106V102.944C301.597 98.6709 298.101 95.1747 293.828 95.1747ZM271.297 229.584H179.23C174.957 229.584 171.461 233.081 171.461 237.354C171.461 241.627 174.957 245.123 179.23 245.123H271.297C275.57 245.123 279.066 241.627 279.066 237.354C279.066 233.081 275.57 229.584 271.297 229.584ZM225.069 268.82H209.919V269.985C209.919 273.093 207.977 276.2 205.257 277.366L188.553 284.358H225.458C229.731 284.358 232.839 280.862 232.839 276.589C232.839 272.316 229.342 268.82 225.069 268.82ZM322.575 189.961H241.773C237.5 189.961 234.004 193.457 234.004 197.73C234.004 202.003 237.5 205.499 241.773 205.499H322.575C326.848 205.499 330.344 202.003 330.344 197.73C330.344 193.457 326.848 189.961 322.575 189.961ZM322.575 268.82H256.535C252.262 268.82 248.766 272.316 248.766 276.589C248.766 280.862 252.262 284.358 256.535 284.358H322.575C326.848 284.358 330.344 280.862 330.344 276.589C330.344 272.316 326.848 268.82 322.575 268.82ZM322.575 229.584H302.374C298.101 229.584 294.605 233.081 294.605 237.354C294.605 241.627 298.101 245.123 302.374 245.123H322.575C326.848 245.123 330.344 241.627 330.344 237.354C330.344 233.081 326.848 229.584 322.575 229.584ZM322.575 229.584H302.374C298.101 229.584 294.605 233.081 294.605 237.354C294.605 241.627 298.101 245.123 302.374 245.123H322.575C326.848 245.123 330.344 241.627 330.344 237.354C330.344 233.081 326.848 229.584 322.575 229.584ZM322.575 268.82H256.535C252.262 268.82 248.766 272.316 248.766 276.589C248.766 280.862 252.262 284.358 256.535 284.358H322.575C326.848 284.358 330.344 280.862 330.344 276.589C330.344 272.316 326.848 268.82 322.575 268.82ZM322.575 189.961H241.773C237.5 189.961 234.004 193.457 234.004 197.73C234.004 202.003 237.5 205.499 241.773 205.499H322.575C326.848 205.499 330.344 202.003 330.344 197.73C330.344 193.457 326.848 189.961 322.575 189.961ZM210.696 189.961H179.23C174.957 189.961 171.461 193.457 171.461 197.73C171.461 199.284 171.849 200.838 173.015 202.392C174.18 204.334 176.511 205.499 179.23 205.499H210.696C214.969 205.499 218.465 202.003 218.465 197.73C218.465 193.457 214.969 189.961 210.696 189.961Z" fill="url(#paint4_linear_1079_662)"/>
<path d="M134.168 102.555V217.542C136.887 217.542 139.218 217.542 141.937 217.153V102.944C139.218 102.944 136.887 102.555 134.168 102.555ZM134.168 102.555V217.542C136.887 217.542 139.218 217.542 141.937 217.153V102.944C139.218 102.944 136.887 102.555 134.168 102.555ZM134.168 102.555V217.542C136.887 217.542 139.218 217.542 141.937 217.153V102.944C139.218 102.944 136.887 102.555 134.168 102.555ZM134.168 102.555V217.542C136.887 217.542 139.218 217.542 141.937 217.153V102.944C139.218 102.944 136.887 102.555 134.168 102.555ZM134.168 102.555V217.542C136.887 217.542 139.218 217.542 141.937 217.153V102.944C139.218 102.944 136.887 102.555 134.168 102.555ZM134.168 102.555V217.542C136.887 217.542 139.218 217.542 141.937 217.153V102.944C139.218 102.944 136.887 102.555 134.168 102.555ZM134.168 102.555V217.542C136.887 217.542 139.218 217.542 141.937 217.153V102.944C139.218 102.944 136.887 102.555 134.168 102.555ZM134.168 102.555V217.542C136.887 217.542 139.218 217.542 141.937 217.153V102.944C139.218 102.944 136.887 102.555 134.168 102.555ZM134.168 102.555V217.542C136.887 217.542 139.218 217.542 141.937 217.153V102.944C139.218 102.944 136.887 102.555 134.168 102.555ZM374.629 69.9241C374.629 69.5357 374.241 69.1472 373.852 69.1472L372.687 67.9818L307.813 2.33081C306.259 0.776936 304.316 0 302.374 0H134.168C129.895 0 126.398 3.49621 126.398 7.76935V320.874C126.398 325.147 129.895 328.643 134.168 328.643H367.637C371.91 328.643 375.406 325.147 375.406 320.874V73.0319C375.406 71.8665 375.018 70.7011 374.629 69.9241ZM359.867 313.105H141.937V15.5387H299.266L302.374 18.6464L359.867 76.1396V313.105ZM134.168 102.555V217.542C136.887 217.542 139.218 217.542 141.937 217.153V102.944C139.218 102.944 136.887 102.555 134.168 102.555ZM134.168 102.555V217.542C136.887 217.542 139.218 217.542 141.937 217.153V102.944C139.218 102.944 136.887 102.555 134.168 102.555ZM134.168 102.555V217.542C136.887 217.542 139.218 217.542 141.937 217.153V102.944C139.218 102.944 136.887 102.555 134.168 102.555ZM134.168 102.555V217.542C136.887 217.542 139.218 217.542 141.937 217.153V102.944C139.218 102.944 136.887 102.555 134.168 102.555ZM134.168 102.555V217.542C136.887 217.542 139.218 217.542 141.937 217.153V102.944C139.218 102.944 136.887 102.555 134.168 102.555ZM134.168 102.555V217.542C136.887 217.542 139.218 217.542 141.937 217.153V102.944C139.218 102.944 136.887 102.555 134.168 102.555ZM134.168 102.555V217.542C136.887 217.542 139.218 217.542 141.937 217.153V102.944C139.218 102.944 136.887 102.555 134.168 102.555ZM134.168 102.555V217.542C136.887 217.542 139.218 217.542 141.937 217.153V102.944C139.218 102.944 136.887 102.555 134.168 102.555Z" fill="url(#paint5_linear_1079_662)"/>
<path d="M302.375 7.76953V73.0321H367.638L302.375 7.76953ZM310.144 65.2627V26.416L348.991 65.2627H310.144Z" fill="url(#paint6_linear_1079_662)"/>
<path d="M374.63 69.9252C374.63 69.5368 374.241 69.1483 373.853 69.1483L372.687 67.9829L307.813 2.3319C305.483 0.389561 301.986 -0.387373 299.267 0.778029C296.548 1.94343 294.605 4.6627 294.605 7.77044V73.033C294.605 77.3061 298.102 80.8023 302.375 80.8023H367.637C370.745 80.8023 373.464 78.86 374.63 76.1407C375.407 73.8099 375.407 71.8676 374.63 69.9252ZM310.144 65.2636V26.4169L348.991 65.2636H310.144ZM454.266 329.033C453.489 329.81 452.712 330.975 452.323 332.141L444.942 329.033L442.223 327.868L437.561 325.925C437.95 325.148 437.95 324.76 438.338 323.983L419.304 304.948H386.284L375.018 300.286L367.249 297.179H422.411L448.439 323.206L454.266 329.033Z" fill="url(#paint7_linear_1079_662)"/>
<path d="M462.424 326.314H460.87C458.539 326.314 456.208 327.091 454.266 329.033C453.489 329.81 452.712 330.976 452.323 332.141C451.546 333.695 451.546 335.637 451.935 337.58L444.943 330.199L443 328.256L439.116 324.372L420.081 305.337H367.638C363.364 305.337 359.868 301.841 359.868 297.567C359.868 293.294 363.364 289.798 367.638 289.798H422.8C424.742 289.798 426.685 290.575 428.238 292.129L449.604 313.495L462.424 326.314ZM454.266 65.264L448.439 71.091L422.411 97.1183H367.638L375.407 94.0106L386.672 89.349H419.692L438.727 70.3141C438.339 69.5371 437.95 69.1487 437.95 68.3717L442.612 66.4294L445.331 65.264L452.712 62.1562C452.712 63.3217 453.489 64.4871 454.266 65.264Z" fill="url(#paint8_linear_1079_662)"/>
<path d="M463.2 67.5923L455.431 75.3617L449.604 81.1887L428.238 102.554C427.073 103.72 424.742 104.885 422.8 104.885H367.638C363.364 104.885 359.868 101.389 359.868 97.1159C359.868 92.8427 363.364 89.3465 367.638 89.3465H419.692L438.727 70.3116L442.223 66.8154L444.166 64.4846L451.158 57.4922C450.77 59.4345 451.158 60.9884 451.935 62.5423C452.323 63.7077 453.1 64.4846 453.877 65.2615C456.597 67.5923 460.093 68.3693 463.2 67.5923ZM367.638 147.228H399.103ZM399.103 154.998H367.638C363.364 154.998 359.868 151.501 359.868 147.228C359.868 142.955 363.364 139.459 367.638 139.459H399.103C403.377 139.459 406.873 142.955 406.873 147.228C406.873 151.501 403.377 154.998 399.103 154.998ZM367.638 247.841H399.103ZM399.103 255.611H367.638C363.364 255.611 359.868 252.114 359.868 247.841C359.868 243.568 363.364 240.072 367.638 240.072H399.103C403.377 240.072 406.873 243.568 406.873 247.841C406.873 252.114 403.377 255.611 399.103 255.611ZM455.82 205.498H367.638C363.364 205.498 359.868 202.002 359.868 197.729C359.868 193.456 363.364 189.96 367.638 189.96H455.82C455.431 190.348 455.043 190.736 454.266 191.125C452.323 192.679 451.546 195.398 451.546 197.729C451.546 200.06 452.323 202.391 454.266 204.333C454.654 204.721 455.043 205.11 455.82 205.498ZM469.804 200.06C470.193 198.506 470.193 196.564 469.804 195.01C470.193 195.787 470.193 196.564 470.193 197.34C470.193 198.506 469.804 199.283 469.804 200.06Z" fill="url(#paint9_linear_1079_662)"/>
<path d="M460.869 41.9531C451.546 41.9531 443.776 49.7225 443.776 59.0457C443.776 60.988 444.165 62.5419 444.553 64.4842C444.553 64.8727 444.942 65.2612 444.942 65.6496C445.719 67.592 446.884 69.5343 448.826 71.4767C450.769 73.419 453.1 74.5844 455.43 75.7498C456.984 76.1383 458.927 76.5267 460.869 76.5267C470.192 76.5267 477.962 68.7574 477.962 59.4342C477.962 49.7225 470.192 41.9531 460.869 41.9531ZM467.473 65.2612C466.307 66.4266 464.754 67.2035 463.2 67.592C460.092 68.3689 456.984 67.592 454.653 65.2612C453.877 64.4842 453.1 63.3188 452.711 62.5419C451.934 60.988 451.934 59.0457 451.934 57.4918C452.323 55.5495 453.1 53.6072 454.265 52.4417C455.819 50.8879 458.538 49.7225 460.869 49.7225C463.588 49.7225 465.919 50.8879 467.473 52.4417C470.969 55.5495 470.969 61.765 467.473 65.2612Z" fill="url(#paint10_linear_1079_662)"/>
<path d="M478.351 41.1778C473.689 36.5161 467.474 33.7969 460.87 33.7969C454.266 33.7969 448.05 36.5161 443.389 41.1778C436.008 48.5586 434.065 59.4357 437.95 68.3705C438.339 69.1474 438.339 69.5359 438.727 70.3128C439.892 72.6436 441.446 74.5859 443.389 76.5283C445.331 78.4706 447.273 80.0245 449.604 81.1899C453.1 83.1322 456.985 83.9092 460.87 83.9092C467.474 83.9092 474.078 81.1899 478.351 76.5283C483.012 71.8667 485.732 65.2627 485.732 58.6588C485.732 52.4433 483.012 45.8394 478.351 41.1778ZM467.474 65.2627C466.308 66.4281 464.754 67.2051 463.201 67.5935C460.093 68.3705 456.985 67.5935 454.654 65.2627C453.877 64.4858 453.1 63.3204 452.712 62.5435C451.935 60.9896 451.935 59.0472 451.935 57.4934C452.323 55.551 453.1 53.6087 454.266 52.4433C455.82 50.8894 458.539 49.724 460.87 49.724C463.589 49.724 465.92 50.8894 467.474 52.4433C470.97 55.551 470.97 61.7665 467.474 65.2627ZM460.87 180.638C454.266 180.638 448.439 184.522 445.719 189.961C444.554 192.292 443.777 195.011 443.777 197.73C443.777 200.449 444.554 203.169 445.719 205.499C448.439 210.938 454.266 214.823 460.87 214.823C470.193 214.823 477.962 207.053 477.962 197.73C477.962 188.407 470.193 180.638 460.87 180.638ZM469.804 200.449C469.416 202.003 468.639 203.169 467.474 204.334C464.366 207.442 459.316 207.83 455.82 205.499C455.431 205.111 454.654 204.723 454.266 204.334C452.323 202.392 451.546 200.061 451.546 197.73C451.546 195.399 452.323 193.068 454.266 191.126C454.654 190.738 455.043 190.349 455.82 189.961C457.373 188.795 459.316 188.407 460.87 188.407C463.201 188.407 465.92 189.184 467.474 191.126C468.251 192.292 469.028 193.457 469.416 194.622V195.011C470.193 196.953 470.193 198.507 469.804 200.449Z" fill="url(#paint11_linear_1079_662)"/>
<path d="M478.739 179.862C469.028 170.15 453.1 170.15 443.389 179.862C440.281 182.97 438.339 186.466 437.173 189.962C436.396 192.681 436.008 195.012 436.008 197.731C436.008 200.451 436.396 203.17 437.173 205.501C438.339 208.997 440.281 212.493 443 215.212C447.662 220.262 454.266 222.593 460.481 222.593C467.085 222.593 473.301 220.262 478.351 215.212C483.012 210.551 485.732 203.947 485.732 197.731C486.12 191.127 483.401 184.523 478.739 179.862ZM455.82 205.501C455.431 205.112 454.654 204.724 454.266 204.335C452.323 202.393 451.547 200.062 451.547 197.731C451.547 195.401 452.323 193.07 454.266 191.127C454.654 190.739 455.043 190.351 455.82 189.962C457.374 188.797 459.316 188.408 460.87 188.408C463.201 188.408 465.92 189.185 467.474 191.127C468.251 192.293 469.028 193.458 469.416 194.624V195.012C469.804 196.566 469.804 198.508 469.416 200.062C469.028 201.616 468.251 202.781 467.085 203.947C464.366 207.443 459.316 207.832 455.82 205.501ZM460.87 318.545C458.927 318.545 457.374 318.933 455.431 319.322C452.712 320.099 450.381 321.652 448.827 323.595C447.273 325.149 445.72 327.091 444.943 329.422C444.943 329.81 444.554 330.199 444.554 330.587C444.166 332.141 443.777 334.083 443.777 336.026C443.777 345.349 451.547 353.118 460.87 353.118C470.193 353.118 477.962 345.349 477.962 336.026C477.962 326.703 470.193 318.545 460.87 318.545ZM467.474 342.241C463.977 345.737 457.762 345.737 454.266 342.241C453.1 341.076 452.323 339.134 451.935 337.58C451.547 335.637 451.935 334.083 452.323 332.141C452.712 330.976 453.489 329.81 454.266 329.033C456.208 327.091 458.539 326.314 460.87 326.314H462.424C464.366 326.703 466.308 327.479 467.474 329.033C470.97 332.53 470.97 338.745 467.474 342.241Z" fill="url(#paint12_linear_1079_662)"/>
<path d="M478.739 317.768C470.969 309.998 458.927 308.444 449.604 313.494C447.273 314.66 445.33 316.214 443.777 317.768C441.834 319.71 440.28 321.652 439.115 323.983C438.726 324.76 438.726 325.148 438.338 325.925C434.842 334.86 436.784 345.737 443.777 352.73C448.438 357.78 455.042 360.111 461.258 360.111C467.862 360.111 474.077 357.78 479.127 352.73C483.789 348.068 486.508 341.464 486.508 335.249C486.12 329.033 483.4 322.429 478.739 317.768ZM467.473 342.241C463.977 345.737 457.761 345.737 454.265 342.241C453.1 341.076 452.323 339.133 451.934 337.579C451.546 335.637 451.934 334.083 452.323 332.141C452.711 330.975 453.488 329.81 454.265 329.033C456.208 327.091 458.538 326.314 460.869 326.314H462.423C464.365 326.702 466.308 327.479 467.473 329.033C470.969 332.529 470.969 338.745 467.473 342.241ZM330.344 197.731C330.344 202.004 326.848 205.501 322.575 205.501H241.774C237.5 205.501 234.004 202.004 234.004 197.731C234.004 193.458 237.5 189.962 241.774 189.962H322.575C326.848 189.962 330.344 193.458 330.344 197.731ZM218.465 197.731C218.465 202.004 214.969 205.501 210.696 205.501H179.23C176.511 205.501 174.18 204.335 173.015 202.393C172.238 201.227 171.461 199.674 171.461 197.731C171.461 193.458 174.957 189.962 179.23 189.962H210.696C214.969 189.962 218.465 193.458 218.465 197.731ZM330.344 237.355C330.344 241.628 326.848 245.124 322.575 245.124H302.374C298.101 245.124 294.605 241.628 294.605 237.355C294.605 233.082 298.101 229.585 302.374 229.585H322.575C326.848 229.585 330.344 233.082 330.344 237.355ZM279.066 237.355C279.066 241.628 275.57 245.124 271.297 245.124H179.23C174.957 245.124 171.461 241.628 171.461 237.355C171.461 233.082 174.957 229.585 179.23 229.585H271.297C275.57 229.585 279.066 233.082 279.066 237.355ZM330.344 276.59C330.344 280.863 326.848 284.359 322.575 284.359H256.535C252.262 284.359 248.766 280.863 248.766 276.59C248.766 272.317 252.262 268.821 256.535 268.821H322.575C326.848 268.821 330.344 272.317 330.344 276.59ZM232.839 276.59C232.839 280.863 229.731 284.359 225.458 284.359H179.23C177.676 284.359 176.123 283.971 174.957 283.194C173.015 281.64 171.461 279.309 171.461 276.59V275.036C172.238 271.54 175.346 268.821 179.23 268.821H225.069C229.343 268.821 232.839 272.317 232.839 276.59ZM293.828 95.1758H208.365C204.092 95.1758 200.596 98.672 200.596 102.945V158.108C200.596 161.992 203.315 165.1 207.2 165.877H293.828C298.101 165.877 301.598 162.381 301.598 158.108V102.945C301.598 98.672 298.101 95.1758 293.828 95.1758ZM285.67 150.338H215.746V110.714H285.67V150.338Z" fill="url(#paint13_linear_1079_662)"/>
<path d="M251.097 51.668C235.558 51.668 222.739 61.3797 217.688 74.976C216.911 76.9183 216.523 78.8607 216.135 80.803C216.135 81.58 215.746 81.9684 215.746 82.7454V102.946C215.746 107.219 219.242 110.715 223.515 110.715H278.678C282.951 110.715 286.447 107.219 286.447 102.946V87.0185C286.447 67.5951 270.52 51.668 251.097 51.668ZM231.285 95.1763V85.0762C232.45 75.3645 240.996 67.5951 251.097 67.5951C261.974 67.5951 270.908 76.5299 270.908 87.407V95.1763H231.285Z" fill="url(#paint14_linear_1079_662)"/>
<defs>
<linearGradient id="paint0_linear_1079_662" x1="6.61118" y1="36.3217" x2="240.357" y2="261.958" gradientUnits="userSpaceOnUse">
<stop stop-color="#8705FF"/>
<stop offset="1" stop-color="#CC00FF"/>
</linearGradient>
<linearGradient id="paint1_linear_1079_662" x1="-0.557104" y1="29.722" x2="245.257" y2="267.604" gradientUnits="userSpaceOnUse">
<stop stop-color="#8705FF"/>
<stop offset="1" stop-color="#CC00FF"/>
</linearGradient>
<linearGradient id="paint2_linear_1079_662" x1="68.6479" y1="96.6714" x2="188.173" y2="206.203" gradientUnits="userSpaceOnUse">
<stop stop-color="#8705FF"/>
<stop offset="1" stop-color="#CC00FF"/>
</linearGradient>
<linearGradient id="paint3_linear_1079_662" x1="60.8324" y1="89.0799" x2="195.027" y2="219.016" gradientUnits="userSpaceOnUse">
<stop stop-color="#8705FF"/>
<stop offset="1" stop-color="#CC00FF"/>
</linearGradient>
<linearGradient id="paint4_linear_1079_662" x1="133.682" y1="11.3572" x2="406.871" y2="208.598" gradientUnits="userSpaceOnUse">
<stop stop-color="#8705FF"/>
<stop offset="1" stop-color="#CC00FF"/>
</linearGradient>
<linearGradient id="paint5_linear_1079_662" x1="125.88" y1="3.76567" x2="414.041" y2="215.171" gradientUnits="userSpaceOnUse">
<stop stop-color="#8705FF"/>
<stop offset="1" stop-color="#CC00FF"/>
</linearGradient>
<linearGradient id="paint6_linear_1079_662" x1="302.239" y1="8.51732" x2="362.198" y2="66.5738" gradientUnits="userSpaceOnUse">
<stop stop-color="#8705FF"/>
<stop offset="1" stop-color="#CC00FF"/>
</linearGradient>
<linearGradient id="paint7_linear_1079_662" x1="294.273" y1="4.03357" x2="527.818" y2="112.811" gradientUnits="userSpaceOnUse">
<stop stop-color="#8705FF"/>
<stop offset="1" stop-color="#CC00FF"/>
</linearGradient>
<linearGradient id="paint8_linear_1079_662" x1="359.655" y1="65.3121" x2="521.212" y2="123.56" gradientUnits="userSpaceOnUse">
<stop stop-color="#8705FF"/>
<stop offset="1" stop-color="#CC00FF"/>
</linearGradient>
<linearGradient id="paint9_linear_1079_662" x1="359.638" y1="59.7623" x2="511.792" y2="141.802" gradientUnits="userSpaceOnUse">
<stop stop-color="#8705FF"/>
<stop offset="1" stop-color="#CC00FF"/>
</linearGradient>
<linearGradient id="paint10_linear_1079_662" x1="443.705" y1="42.3493" x2="475.456" y2="72.7468" gradientUnits="userSpaceOnUse">
<stop stop-color="#8705FF"/>
<stop offset="1" stop-color="#CC00FF"/>
</linearGradient>
<linearGradient id="paint11_linear_1079_662" x1="435.89" y1="35.8711" x2="518.576" y2="57.869" gradientUnits="userSpaceOnUse">
<stop stop-color="#8705FF"/>
<stop offset="1" stop-color="#CC00FF"/>
</linearGradient>
<linearGradient id="paint12_linear_1079_662" x1="435.904" y1="174.647" x2="518.593" y2="196.714" gradientUnits="userSpaceOnUse">
<stop stop-color="#8705FF"/>
<stop offset="1" stop-color="#CC00FF"/>
</linearGradient>
<linearGradient id="paint13_linear_1079_662" x1="170.805" y1="98.2115" x2="411.937" y2="375.854" gradientUnits="userSpaceOnUse">
<stop stop-color="#8705FF"/>
<stop offset="1" stop-color="#CC00FF"/>
</linearGradient>
<linearGradient id="paint14_linear_1079_662" x1="215.599" y1="52.3445" x2="269.288" y2="114.59" gradientUnits="userSpaceOnUse">
<stop stop-color="#8705FF"/>
<stop offset="1" stop-color="#CC00FF"/>
</linearGradient>
</defs>
</svg>
