<svg width="512" height="512" viewBox="0 0 512 512" fill="none" xmlns="http://www.w3.org/2000/svg">
<g clip-path="url(#clip0_766_2)">
<path d="M82.52 304.616L163.88 353.416C165.123 354.162 166.546 354.556 167.996 354.556C169.446 354.556 170.869 354.162 172.112 353.416L253.472 304.616C268.843 295.342 281.566 282.265 290.416 266.646C299.266 251.027 303.944 233.392 304 215.44V79.9199C304 75.6719 300.68 72.1679 296.44 71.9279C264.464 70.1679 216.888 62.8959 171.84 38.2559C170.663 37.6138 169.344 37.2773 168.004 37.2773C166.664 37.2773 165.345 37.6138 164.168 38.2559C119.12 62.9039 71.536 70.1679 39.56 71.9359C37.5182 72.0484 35.597 72.9384 34.191 74.4233C32.785 75.9081 32.001 77.875 32 79.9199V215.44C32 251.752 51.36 285.92 82.52 304.616ZM48 87.4079C80.352 84.9199 124.952 76.9679 168 54.3599C211.048 76.9679 255.648 84.9199 288 87.4079V215.44C288 246.16 271.616 275.072 245.24 290.896L168 337.232L90.76 290.896C77.7534 283.049 66.9869 271.984 59.4976 258.768C52.0083 245.552 48.0486 230.63 48 215.44V87.4079Z" fill="url(#paint0_linear_766_2)"/>
<path d="M66.04 332.056L163.88 390.776C165.123 391.522 166.546 391.916 167.996 391.916C169.446 391.916 170.869 391.522 172.112 390.776L269.952 332.056C289.448 320.36 305.696 303.696 316.248 285.776C329.192 264.6 336.028 240.258 336 215.44V47.9196C336 43.6796 332.056 39.6156 327.28 39.9516C326.432 40.0316 241.12 47.0557 172.44 1.26365C171.112 0.426605 169.574 -0.0175781 168.004 -0.0175781C166.434 -0.0175781 164.896 0.426605 163.568 1.26365C94.872 47.0557 9.576 40.0396 8.72 39.9516C3.936 39.6156 0 43.6156 0 47.9196V215.44C0 262.944 25.304 307.632 66.04 332.056ZM16 56.3517C66.576 57.8877 123.608 45.3997 168 17.3517C212.208 45.2796 269.168 57.8957 320 56.3517V215.44C320 237.416 313.984 258.848 302.544 277.536C293.384 293.064 279.104 307.912 261.72 318.336L168 374.592L74.272 318.336C38.328 296.784 16 257.352 16 215.44V56.3517Z" fill="url(#paint1_linear_766_2)"/>
<path d="M104 216H144V256C144 258.122 144.843 260.157 146.343 261.657C147.843 263.157 149.878 264 152 264H184C186.122 264 188.157 263.157 189.657 261.657C191.157 260.157 192 258.122 192 256V216H232C234.122 216 236.157 215.157 237.657 213.657C239.157 212.157 240 210.122 240 208V176C240 173.878 239.157 171.843 237.657 170.343C236.157 168.843 234.122 168 232 168H192V128C192 125.878 191.157 123.843 189.657 122.343C188.157 120.843 186.122 120 184 120H152C149.878 120 147.843 120.843 146.343 122.343C144.843 123.843 144 125.878 144 128V168H104C101.878 168 99.8434 168.843 98.3431 170.343C96.8429 171.843 96 173.878 96 176V208C96 210.122 96.8429 212.157 98.3431 213.657C99.8434 215.157 101.878 216 104 216ZM112 184H152C154.122 184 156.157 183.157 157.657 181.657C159.157 180.157 160 178.122 160 176V136H176V176C176 178.122 176.843 180.157 178.343 181.657C179.843 183.157 181.878 184 184 184H224V200H184C181.878 200 179.843 200.843 178.343 202.343C176.843 203.843 176 205.878 176 208V248H160V208C160 205.878 159.157 203.843 157.657 202.343C156.157 200.843 154.122 200 152 200H112V184ZM357.784 241.112C369.3 242.867 380.287 247.142 389.96 253.632L389.104 254.488C381.616 261.976 392.936 273.288 400.416 265.8L408.28 257.936C408.304 257.912 408.336 257.904 408.36 257.872L408.384 257.832L436.56 229.656C438.264 227.952 439.552 224.432 438.392 221.264C437.12 217.723 436.88 213.894 437.702 210.222C438.524 206.551 440.372 203.189 443.032 200.528C446.786 196.782 451.873 194.678 457.176 194.678C462.479 194.678 467.566 196.782 471.32 200.528C475.066 204.281 477.169 209.366 477.169 214.668C477.169 219.97 475.066 225.055 471.32 228.808C468.657 231.467 465.294 233.315 461.621 234.138C457.949 234.96 454.119 234.724 450.576 233.456C447.504 232.32 443.832 233.488 441.888 235.68L412.768 264.808C410.16 267.416 409.896 272.184 411.84 275C430.48 302.048 430.44 338.36 411.728 365.352C411.384 366.264 410.216 367.848 410.44 370.536C410.608 372.6 411.856 374.728 412.656 375.52L440.264 403.128C443.088 405.952 446.488 405.304 448.664 404.976C452.207 403.708 456.037 403.472 459.709 404.294C463.382 405.117 466.745 406.965 469.408 409.624C473.154 413.378 475.258 418.465 475.258 423.768C475.258 429.071 473.154 434.158 469.408 437.912C465.652 441.654 460.566 443.755 455.264 443.755C449.962 443.755 444.876 441.654 441.12 437.912C438.46 435.251 436.612 431.889 435.79 428.218C434.968 424.546 435.208 420.717 436.48 417.176C437.576 414.168 436.384 410.544 434.624 408.776L398.472 372.624C390.984 365.136 379.68 376.456 387.16 383.936L389.8 386.576C380.992 392.463 371.066 396.475 360.64 398.36C356.96 399.008 354 402.824 354 406.232V444.312C354 446.456 355.528 449.808 358.032 451.248C367.36 456.616 371.872 467.432 369.264 478.184C367.264 486.432 360.336 493.304 352.032 495.28C348.482 496.191 344.77 496.279 341.182 495.535C337.593 494.792 334.221 493.237 331.325 490.991C328.429 488.744 326.086 485.865 324.474 482.573C322.861 479.282 322.024 475.665 322.024 472C322.024 463.456 326.616 455.504 334.008 451.256C337.592 449.2 337.792 445.12 338 444.32V406.24C338 399.84 330.688 397.992 331.496 398.368C318.416 396 305.848 390.104 295.144 381.328C286.992 374.6 276.8 386.976 285 393.696C295.829 402.554 308.453 408.953 322 412.448V440.08C317.05 443.802 313.03 448.622 310.258 454.161C307.486 459.7 306.037 465.806 306.024 472C306.024 484.32 311.568 495.76 321.232 503.4C343.752 521.2 378 510.088 384.808 481.96C388.72 465.864 382.76 449.68 369.992 440.136V412.504C381.209 409.646 391.797 404.728 401.216 398L420.016 416.8C418.858 422.591 419.145 428.578 420.852 434.232C422.558 439.886 425.632 445.032 429.8 449.216C436.558 455.956 445.712 459.74 455.256 459.74C464.8 459.74 473.954 455.956 480.712 449.216C487.452 442.458 491.236 433.304 491.236 423.76C491.236 414.216 487.452 405.062 480.712 398.304C476.526 394.134 471.377 391.06 465.72 389.354C460.064 387.647 454.074 387.361 448.28 388.52L428.512 368.752C435.815 356.369 440.221 342.495 441.4 328.168H449.12C450.842 335.042 454.818 341.142 460.412 345.492C466.007 349.842 472.897 352.193 479.984 352.168C497.664 352.168 511.984 337.856 511.984 320.168C511.995 315.963 511.172 311.798 509.563 307.913C507.953 304.028 505.59 300.501 502.608 297.536C490.528 285.448 469.44 285.448 457.36 297.536C453.346 301.582 450.499 306.638 449.12 312.168H441.408C440.247 297.847 435.866 283.974 428.592 271.584L450.304 249.872C452.6 250.328 454.904 250.616 457.216 250.616C466.74 250.616 475.877 246.842 482.624 240.12C489.364 233.362 493.148 224.208 493.148 214.664C493.148 205.12 489.364 195.966 482.624 189.208C475.866 182.468 466.712 178.684 457.168 178.684C447.624 178.684 438.47 182.468 431.712 189.208C427.542 193.394 424.467 198.543 422.761 204.199C421.054 209.856 420.768 215.846 421.928 221.64L401.368 242.2C389.152 233.456 375.12 227.52 360.128 225.28C349.744 223.672 347.256 239.544 357.784 241.112ZM480 304.176C494.24 304.176 501.328 321.472 491.312 331.488C481.688 341.112 464.048 334.76 464.008 320.224L464.016 320.168L464.008 320.112C464.019 315.879 465.709 311.823 468.707 308.835C471.705 305.848 475.767 304.172 480 304.176Z" fill="url(#paint2_linear_766_2)"/>
<path d="M280.431 365.032C278.66 362.522 277.062 359.895 275.647 357.168C270.743 347.784 256.559 355.224 261.479 364.592C262.215 366 262.975 367.304 263.735 368.592L217.255 415.072C211.454 413.923 205.46 414.213 199.797 415.916C194.133 417.618 188.973 420.683 184.767 424.84C170.775 438.824 170.767 461.656 184.791 475.768C198.783 489.672 221.615 489.808 235.655 475.776C239.842 471.605 242.933 466.464 244.653 460.81C246.372 455.155 246.667 449.164 245.511 443.368L276.439 412.44C283.927 404.952 272.607 393.648 265.127 401.128L231.175 435.072C229.503 437.344 227.679 439.904 229.047 443.688C231.647 450.888 229.823 459.024 224.359 464.432C220.601 468.159 215.524 470.252 210.231 470.255C204.938 470.258 199.858 468.171 196.095 464.448C188.303 456.616 188.295 443.912 196.039 436.176C198.716 433.512 202.093 431.661 205.778 430.837C209.464 430.013 213.307 430.25 216.863 431.52C219.079 432.336 223.015 431.928 225.295 429.648L279.471 375.472C282.111 372.832 282.511 367.944 280.431 365.032ZM360.039 272.208C355.615 272.208 351.999 275.832 351.999 280.248C351.999 284.664 355.615 288.288 360.039 288.288C364.463 288.288 368.079 284.664 368.079 280.248C368.079 275.832 364.463 272.208 360.039 272.208ZM307.711 360.296C307.711 373.528 318.479 384.296 331.711 384.296C344.943 384.296 355.711 373.528 355.711 360.296C355.711 347.064 344.943 336.296 331.711 336.296C318.479 336.296 307.711 347.056 307.711 360.296ZM339.711 360.296C339.619 362.356 338.736 364.301 337.246 365.726C335.756 367.151 333.773 367.946 331.711 367.946C329.65 367.946 327.667 367.151 326.177 365.726C324.687 364.301 323.804 362.356 323.711 360.296C323.711 358.174 324.554 356.139 326.055 354.639C327.555 353.139 329.59 352.296 331.711 352.296C333.833 352.296 335.868 353.139 337.368 354.639C338.869 356.139 339.711 358.174 339.711 360.296ZM379.999 344.296C391.031 344.296 399.999 335.32 399.999 324.296C399.999 313.272 391.031 304.296 379.999 304.296C368.967 304.296 359.999 313.272 359.999 324.296C359.999 335.32 368.967 344.296 379.999 344.296ZM379.999 320.296C380.526 320.297 381.047 320.402 381.533 320.604C382.018 320.807 382.46 321.103 382.831 321.476C383.203 321.849 383.497 322.291 383.697 322.778C383.898 323.264 384 323.786 383.999 324.312C383.998 324.838 383.894 325.359 383.691 325.845C383.489 326.331 383.193 326.772 382.82 327.144C382.447 327.515 382.005 327.81 381.518 328.01C381.031 328.21 380.51 328.313 379.983 328.312C378.92 328.31 377.902 327.886 377.152 327.132C376.402 326.379 375.981 325.359 375.983 324.296C375.986 323.233 376.41 322.214 377.163 321.464C377.916 320.714 378.936 320.294 379.999 320.296Z" fill="url(#paint3_linear_766_2)"/>
</g>
<defs>
<linearGradient id="paint0_linear_766_2" x1="41.7049" y1="57.727" x2="346.747" y2="357.851" gradientUnits="userSpaceOnUse">
<stop stop-color="#1BA2D7"/>
<stop offset="1" stop-color="#8D3DFA"/>
</linearGradient>
<linearGradient id="paint1_linear_766_2" x1="11.9884" y1="25.2438" x2="388.806" y2="395.985" gradientUnits="userSpaceOnUse">
<stop stop-color="#1BA2D7"/>
<stop offset="1" stop-color="#8D3DFA"/>
</linearGradient>
<linearGradient id="paint2_linear_766_2" x1="110.842" y1="145.266" x2="480.573" y2="595.548" gradientUnits="userSpaceOnUse">
<stop stop-color="#1BA2D7"/>
<stop offset="1" stop-color="#8D3DFA"/>
</linearGradient>
<linearGradient id="paint3_linear_766_2" x1="182.327" y1="286.004" x2="384.446" y2="530.632" gradientUnits="userSpaceOnUse">
<stop stop-color="#1BA2D7"/>
<stop offset="1" stop-color="#8D3DFA"/>
</linearGradient>
<clipPath id="clip0_766_2">
<rect width="512" height="512" fill="white"/>
</clipPath>
</defs>
</svg>
