<svg width="408" height="440" viewBox="0 0 408 440" fill="none" xmlns="http://www.w3.org/2000/svg">
<path d="M407.479 133.954C407.433 125.3 400.619 118.102 391.963 117.568C318.089 112.994 265.529 74.6961 253.591 63.0561L244.031 41.8861C243.715 41.1857 243.256 40.5593 242.683 40.0473C242.11 39.5353 241.436 39.1491 240.705 38.9135C239.973 38.678 239.201 38.5983 238.437 38.6797C237.673 38.7611 236.934 39.0018 236.269 39.3861L214.113 52.1781C213.398 52.5906 212.785 53.1586 212.32 53.84C211.855 54.5214 211.549 55.2988 211.425 56.1145C211.301 56.9302 211.362 57.7635 211.603 58.5524C211.845 59.3413 212.261 60.0658 212.821 60.6721C214.375 62.3563 215.629 64.2952 216.527 66.4041C217.619 68.9808 218.163 71.7569 218.124 74.5553C218.084 77.3538 217.462 80.1134 216.297 82.6581C214.133 83.9577 211.949 85.2225 209.745 86.4521L195.721 62.1641L186.195 67.6641L200.015 91.6001C197.337 92.9427 194.636 94.2376 191.913 95.4841C186.95 94.5675 182.51 91.828 179.465 87.8041C178.086 85.9716 177.033 83.9156 176.351 81.7261C176.105 80.9386 175.686 80.2163 175.124 79.6128C174.562 79.0092 173.871 78.5399 173.103 78.2395C172.334 77.9392 171.508 77.8154 170.686 77.8775C169.863 77.9396 169.065 78.1858 168.351 78.5981L146.195 91.3901C145.53 91.7743 144.952 92.2936 144.5 92.9146C144.047 93.5356 143.73 94.2444 143.569 94.9955C143.407 95.7465 143.404 96.5231 143.561 97.2752C143.718 98.0273 144.031 98.7382 144.479 99.3621L152.007 109.84C139.057 113.306 125.842 115.688 112.497 116.96C109.462 113.983 106.404 111.031 103.321 108.104L112.501 68.0581C112.769 66.8873 112.647 65.6609 112.153 64.5661L100.589 38.9581C100.273 38.2576 99.8132 37.6312 99.2401 37.1192C98.667 36.6072 97.993 36.221 97.2615 35.9854C96.53 35.7499 95.7572 35.6702 94.993 35.7517C94.2289 35.8331 93.4902 36.0737 92.8248 36.4581L70.6708 49.2501C69.9563 49.6625 69.3438 50.2302 68.8785 50.9114C68.4132 51.5925 68.1071 52.3696 67.9829 53.1851C67.8586 54.0006 67.9194 54.8336 68.1607 55.6224C68.4019 56.4112 68.8176 57.1357 69.3768 57.7421C70.9315 59.427 72.185 61.3666 73.0828 63.4761C78.0628 73.8021 70.7608 83.4881 70.7608 83.4881L67.3968 85.4241L52.2768 59.2361L42.7508 64.7361L57.8708 90.9241L54.5748 92.8261L54.5148 92.8681C54.5148 92.8681 42.4908 94.3681 36.0208 84.8741C34.6431 83.042 33.5904 80.9867 32.9088 78.7981C32.6638 78.0103 32.2446 77.2878 31.6824 76.6841C31.1202 76.0803 30.4293 75.6108 29.6609 75.3104C28.8926 75.01 28.0665 74.8863 27.2439 74.9486C26.4212 75.0109 25.6231 75.2575 24.9088 75.6701L2.75078 88.4641C2.08534 88.8482 1.50775 89.3674 1.05523 89.9883C0.602708 90.6091 0.285291 91.318 0.123434 92.069C-0.0384228 92.8201 -0.04113 93.5967 0.115492 94.3489C0.272114 95.1011 0.58459 95.8121 1.03278 96.4361L17.4288 119.256C18.1288 120.23 19.1308 120.95 20.2788 121.302L59.5488 133.376C66.0688 160.498 75.9148 195.528 85.6888 207.848C88.0248 210.792 90.7608 213.5 93.7288 215.996C98.5748 257.67 108.473 305.884 128.437 343.91C128.501 344.03 168.653 415.336 246.729 438.998C247.265 439.166 249.485 439.166 250.019 438.998C327.331 415.892 368.249 344.032 368.313 343.91C405.299 273.462 407.641 165.398 407.477 133.956L407.479 133.954ZM25.2828 111.33L13.5148 94.9501L25.1048 88.2581C25.7446 89.3746 26.4526 90.4507 27.2248 91.4801C33.1488 99.3661 42.5408 104.042 52.4248 103.894L52.9808 103.888C53.7988 107.876 55.0568 113.846 56.6648 120.978L25.2828 111.33ZM224.797 90.1201C227.276 85.9183 228.735 81.1933 229.056 76.325C229.377 71.4567 228.551 66.5811 226.645 62.0901C226.14 60.9063 225.563 59.7548 224.917 58.6421L236.507 51.9501L244.807 70.3341L237.473 102.334C232.099 97.3741 224.797 90.1201 224.797 90.1201ZM221.843 129.408L231.369 123.908L216.543 98.2241C234.291 113.904 270.413 147.608 283.757 167.414L233.329 196.528C222.853 175.072 211.721 126.936 207.015 103.722L221.843 129.408ZM253.877 266.17H351.101C345.837 286.994 338.999 306.954 330.301 323.96C315.725 346.922 290.929 376.98 253.877 394.22V266.17ZM239.315 205.774L288.767 177.222C294.783 195.628 289.185 221.504 287.329 228.984L284.861 230.41C277.453 228.274 252.247 220.186 239.315 205.774ZM253.877 255.17V229.898C268.781 237.714 283.323 241.418 284.291 241.658C284.731 241.768 287.039 242.206 288.371 241.084L294.819 237.362C296.053 236.65 296.963 235.486 297.357 234.116C297.799 232.57 308.101 195.976 298.189 170.906C293.069 157.956 272.553 136.054 253.877 117.87V116.026C278.641 132.742 319.757 150.54 365.677 157.792C364.969 185.708 361.353 221.098 353.721 255.172L253.877 255.17ZM229.135 210.774C232.907 215.528 237.701 219.682 242.877 223.278V255.17H210.179L191.595 222.982L182.069 228.482L197.477 255.17H143.033C141.788 249.603 140.646 244.014 139.609 238.404C140.275 238.584 142.255 239.704 144.929 238.156L151.377 234.432C152.611 233.719 153.52 232.556 153.913 231.186C154.357 229.64 164.657 193.046 154.745 167.978C153.269 164.244 150.507 159.762 146.885 154.844C166.168 150.713 185.019 144.771 203.185 137.096C209.705 164.104 219.455 198.576 229.135 210.774ZM242.877 266.17V394.22C205.825 376.98 181.029 346.924 166.455 323.96C157.755 306.954 150.915 286.994 145.653 266.17H242.877ZM168.547 91.1881C169.185 92.3001 169.893 93.3741 170.669 94.4081C176.593 102.294 186.029 106.956 195.869 106.822C195.869 106.822 198.501 116.774 200.109 123.908L168.727 114.26L156.957 97.8801L168.547 91.1881ZM158.907 119.448L160.873 122.182C161.573 123.158 162.575 123.876 163.725 124.23L187.335 131.49C172.569 137.034 156.259 141.85 139.185 145.186C134.157 139.268 128.387 133.046 122.429 126.922C134.755 125.324 146.948 122.825 158.909 119.446L158.907 119.448ZM81.3548 87.1901C83.8351 82.9886 85.2946 78.2637 85.6159 73.3953C85.9372 68.5269 85.1114 63.6511 83.2048 59.1601C82.6998 57.9762 82.1221 56.8246 81.4748 55.7121L93.0648 49.0201L101.367 67.4021L94.0308 99.4041C89.7484 95.4508 85.4282 91.5386 81.0708 87.6681L81.3548 87.1901ZM89.8848 193.598C79.4088 172.142 68.2788 124.004 63.5708 100.792L78.4028 126.478L87.9288 120.978L73.0988 95.2941C90.8488 110.974 126.969 144.682 140.315 164.484L89.8848 193.598ZM95.8728 202.842L145.327 174.29C151.341 192.698 145.743 218.574 143.887 226.054L141.421 227.478C134.011 225.344 108.805 217.254 95.8728 202.842ZM358.673 338.612C342.851 363.92 307.663 408.776 248.379 427.972C189.095 408.778 153.907 363.92 138.085 338.612C120.607 305.236 111.145 262.848 106.059 224.552C113.585 228.924 121.339 232.222 127.625 234.532C133.413 268.066 142.785 301.922 156.785 329.202C156.859 329.35 189.221 385.322 246.159 407.634C246.811 407.894 249.949 407.894 250.599 407.634C309.273 383.93 339.899 329.35 339.975 329.202C366.011 278.468 376.055 204.988 376.771 153.142C376.79 151.803 376.319 150.503 375.448 149.486C374.577 148.469 373.365 147.805 372.039 147.618C320.421 140.36 273.539 118.314 251.819 100.9C251.101 100.325 250.25 99.94 249.345 99.7801L254.307 78.1281C275.663 94.8641 324.877 124.434 391.287 128.544C394.183 128.724 396.467 131.124 396.481 134.008C396.641 164.782 394.387 270.412 358.673 338.612ZM23.1988 195.946L32.7248 190.446L52.7988 225.214L43.2728 230.714L23.1988 195.946Z" fill="url(#paint0_linear_749_62)"/>
<path d="M35.4219 164.822L44.9459 159.322L75.4419 212.14L65.9159 217.64L35.4219 164.822ZM193.166 197.998L202.692 192.498L233.188 245.314L223.662 250.814L193.166 197.998ZM268.666 11.124L278.192 5.624L298.266 40.392L288.74 45.892L268.666 11.124ZM236.718 5.5L246.244 0L276.74 52.816L267.214 58.316L236.718 5.5Z" fill="url(#paint1_linear_749_62)"/>
<defs>
<linearGradient id="paint0_linear_749_62" x1="14.5389" y1="61.7214" x2="398.238" y2="506.531" gradientUnits="userSpaceOnUse">
<stop stop-color="#1BA2D7"/>
<stop offset="1" stop-color="#8D3DFA"/>
</linearGradient>
<linearGradient id="paint1_linear_749_62" x1="44.8001" y1="16.1658" x2="281.923" y2="301.354" gradientUnits="userSpaceOnUse">
<stop stop-color="#1BA2D7"/>
<stop offset="1" stop-color="#8D3DFA"/>
</linearGradient>
</defs>
</svg>
