<svg width="512" height="457" viewBox="0 0 512 457" fill="none" xmlns="http://www.w3.org/2000/svg">
<path d="M399.62 306.27C395.647 302.43 389.315 302.535 385.472 306.508C381.632 310.48 381.742 316.816 385.714 320.656L401.077 335.504C402.942 337.307 405.435 338.315 408.03 338.316H408.206C410.862 338.267 413.389 337.165 415.233 335.254L462.203 286.512C466.034 282.532 465.921 276.199 461.94 272.363C460.028 270.522 457.464 269.516 454.811 269.566C452.158 269.616 449.633 270.718 447.792 272.629L407.776 314.152L399.62 306.27Z" fill="url(#paint0_linear_749_11)"/>
<path d="M471.184 183.414C493.688 183.414 512 165.59 512 143.68V39.734C512 17.824 493.691 0 471.184 0H81.238C58.746 0 40.45 17.824 40.45 39.734V66.114C18.051 66.69 0 85.073 0 107.604V336.584C0 359.479 18.629 378.104 41.523 378.104H166.391L161.421 398.788H142.52C126.469 398.788 113.41 411.847 113.41 427.898C113.41 443.944 126.469 457.003 142.52 457.003H289.687C305.738 457.003 318.797 443.944 318.797 427.897C318.797 411.847 305.738 398.788 289.687 398.788H270.793L265.836 378.104H362.684C367.211 383.659 372.234 389.093 377.77 394.39C380.39 396.901 388.094 403.522 395.75 409.413C410.668 420.89 416.309 422.749 420.195 423.05C420.605 423.081 421.117 423.12 421.75 423.12C426.297 423.12 437.008 421.093 460.117 399.558C474.762 385.909 487.918 370.206 494.449 358.569C514.805 322.28 513.141 269.581 510.336 241.397C510.153 239.561 509.466 237.811 508.35 236.34C507.235 234.87 505.735 233.736 504.016 233.065L432.207 205.058V183.413L471.184 183.414ZM298.789 427.894C298.789 432.91 294.707 436.992 289.688 436.992H142.52C137.504 436.992 133.422 432.91 133.422 427.895C133.422 422.88 137.504 418.801 142.52 418.801H169.266C169.281 418.801 169.296 418.805 169.313 418.805C169.336 418.805 169.359 418.801 169.383 418.801H262.824C262.848 418.801 262.871 418.805 262.894 418.805C262.91 418.805 262.926 418.801 262.945 418.801H289.688C294.707 418.801 298.789 422.882 298.789 427.894ZM250.219 398.789H182L186.973 378.105H245.262L250.219 398.789ZM477 348.777C471.766 358.102 460.363 371.742 447.957 383.523C433.317 397.43 424.609 402.074 421.828 402.949C415.68 400.25 397.262 385.363 391.618 379.941C367.34 356.715 354.285 330.965 352.828 303.406C352.137 290.492 351.688 263.238 352.613 248.949L422.153 222.613L490.973 249.457C494.328 290.879 489.309 326.836 477 348.777ZM412.195 204.984L339.719 232.438C338.05 233.068 336.58 234.134 335.463 235.524C334.345 236.914 333.62 238.579 333.363 240.344C331.309 254.375 332.148 291.398 332.843 304.469C332.949 306.438 333.105 308.395 333.305 310.344H255.844C250.316 310.344 245.84 314.824 245.84 320.352C245.84 325.875 250.316 330.355 255.844 330.355H337.148C339.848 339.867 343.762 349.121 348.887 358.098H41.523C29.66 358.098 20.012 348.449 20.012 336.59V330.355H177.496C183.023 330.355 187.504 325.879 187.504 320.352C187.504 314.824 183.024 310.348 177.496 310.348H20.012V107.605C20.012 96.109 29.086 86.719 40.449 86.152V143.68C40.449 165.59 58.746 183.414 81.239 183.414H256.438C261.965 183.414 266.445 178.934 266.445 173.41C266.445 167.883 261.965 163.402 256.438 163.402H81.238C69.781 163.402 60.461 154.559 60.461 143.68V39.734C60.461 28.859 69.781 20.012 81.238 20.012H471.184C482.656 20.012 491.988 28.859 491.988 39.734V143.68C491.988 154.559 482.656 163.402 471.184 163.402H336.289C330.762 163.402 326.281 167.882 326.281 173.41C326.281 178.934 330.761 183.414 336.289 183.414H412.199V204.984H412.195Z" fill="url(#paint1_linear_749_11)"/>
<path d="M367.355 109.336C364.66 109.336 362.34 110.328 360.41 112.168C358.453 114.066 357.46 116.391 357.46 119.113C357.46 121.777 358.48 124.102 360.27 126.027L360.324 126.082C362.281 127.953 364.633 128.918 367.355 128.918C370.02 128.918 372.285 127.926 374.184 126.055C376.054 124.184 377.02 121.891 377.02 119.227C377.02 116.531 376.086 114.18 374.184 112.254C372.316 110.324 370.02 109.336 367.355 109.336ZM422.797 120.441C422.797 131.863 437.254 133.988 440.824 124.723L468.464 56.1683C468.877 55.2207 469.089 54.1979 469.086 53.1643C469.086 48.2893 466.395 44.0663 461.406 43.2193C456.926 42.4533 452.504 44.8323 450.946 49.1413L423.395 117.551C422.996 118.462 422.792 119.447 422.797 120.441ZM339.121 108.77C339.121 102.477 336.684 97.3753 331.242 94.0593C327.898 91.9343 323.504 90.5743 319.68 89.4963C318.23 89.1023 314.605 88.1093 313.441 87.3163C313.047 86.9763 312.563 86.4923 312.563 85.9533C312.563 85.1333 312.988 84.5933 313.613 84.1133C314.605 83.3753 315.766 83.1213 316.957 83.1213C318.203 83.1213 319.648 83.4883 320.84 83.8283L323.05 84.5663C324.496 85.0463 326.281 85.6133 327.813 85.6133C329.938 85.6133 331.753 84.7933 333.199 83.2343C334.589 81.7043 335.297 79.8363 335.297 77.7663C335.297 74.1683 332.859 71.6993 329.855 70.0863C326.254 68.1333 322.059 67.4803 317.977 67.4803C312.023 67.4803 306.469 69.0403 301.879 72.9223C297.539 76.6323 295.359 81.4223 295.359 87.1173C295.359 92.5593 297.371 97.1213 302.019 100.152C305.137 102.195 309.844 103.555 313.441 104.602C315.652 105.227 317.977 105.906 320.074 106.844C320.559 107.07 321.266 107.438 321.551 107.918C321.805 108.402 321.918 108.968 321.918 109.535C321.918 110.723 321.438 111.575 320.5 112.281C319.254 113.219 317.781 113.559 316.25 113.559C313.812 113.559 311.004 112.679 308.71 111.859C306.98 111.234 304.344 110.269 302.5 110.269C300.402 110.269 298.59 111.066 297.172 112.621C295.754 114.184 295.132 116.109 295.132 118.207V118.602C295.132 122.598 298.222 125.094 301.535 126.652C305.875 128.719 310.863 129.344 315.625 129.344C321.832 129.344 327.844 127.84 332.575 123.676C337.023 119.734 339.121 114.66 339.121 108.77ZM174.066 70.4803H170.296L170.383 62.2903C170.383 59.8243 169.531 57.7003 167.719 56.0593C166.047 54.3873 164.008 53.4223 161.625 53.4223C159.187 53.4223 157.062 54.3013 155.332 56.0273C153.632 57.7273 152.754 59.8553 152.754 62.2893V70.4803H151.195C148.985 70.4803 147.027 71.2193 145.41 72.7463C143.77 74.2503 142.945 76.1763 142.945 78.4143C142.945 80.5983 143.77 82.4413 145.27 84.0003C146.855 85.7003 148.898 86.4653 151.195 86.4653H152.867V119.48C152.867 120.672 153.035 121.86 153.488 122.965C153.914 124.043 154.566 124.977 155.391 125.801C157.063 127.527 159.188 128.437 161.625 128.437C164.09 128.437 166.219 127.586 167.918 125.773C169.562 124.016 170.383 121.891 170.383 119.453L170.27 86.5783H173.984C176.223 86.5783 178.152 85.7583 179.738 84.1723C181.297 82.6413 182.118 80.7423 182.118 78.5323C182.118 76.3223 181.355 74.3913 179.797 72.8053C178.234 71.2463 176.277 70.4803 174.067 70.4803H174.066ZM104.195 71.7583V54.6403C104.195 52.1753 103.289 50.1043 101.563 48.4053C99.8052 46.7023 97.7892 45.7693 95.3242 45.7693C92.8872 45.7693 90.7622 46.6753 89.0042 48.4053C87.3042 50.1323 86.3672 52.2023 86.3672 54.6403V119.679C86.3672 122.085 87.3052 124.183 89.0042 125.882C90.7622 127.64 92.8872 128.519 95.3242 128.519C97.7612 128.519 99.8912 127.671 101.617 125.94C103.347 124.21 104.195 122.112 104.195 119.679V92.8123C104.195 90.5473 105.02 88.6763 106.665 87.1173C108.309 85.5003 110.289 84.7343 112.585 84.7343C114.825 84.7343 116.668 85.5593 118.227 87.1443C119.785 88.7623 120.582 90.6603 120.582 92.9263V119.68C120.582 122.145 121.488 124.27 123.219 125.996C124.973 127.726 127.102 128.633 129.539 128.633C132.004 128.633 134.129 127.781 135.773 125.969C137.503 124.239 138.41 122.113 138.41 119.679V90.3763C138.41 71.4743 119.531 62.7193 104.195 71.7583ZM286.883 87.8243C286.371 86.2383 285.605 84.7343 284.727 83.2893C283.509 81.3141 282.063 79.4892 280.418 77.8523C275.09 72.5233 268.656 69.8283 261.145 69.8283C256.129 69.8283 251.422 70.9923 247.113 73.4023C245.07 70.0593 240.34 68.4423 236.653 69.6053C232.57 70.8793 231.098 74.7623 231.098 78.7303V141.926C231.098 144.418 231.922 146.574 233.734 148.273C235.492 150.003 237.59 150.906 240.054 150.906C242.52 150.906 244.563 150 246.289 148.242C247.965 146.516 248.926 144.477 248.926 142.039V121.719C252.754 123.531 256.863 124.383 261.145 124.383C268.684 124.383 275.23 121.859 280.563 116.503C285.891 111.176 288.441 104.633 288.441 97.0933C288.441 93.9453 287.961 90.8013 286.883 87.8243ZM260.89 107.32C255.05 107.32 250.347 102.617 250.347 96.8093C250.347 90.9693 255.05 86.2663 260.89 86.2663C266.698 86.2663 271.405 90.9693 271.405 96.8093C271.405 102.617 266.698 107.32 260.89 107.32ZM216.16 70.4803H212.363L212.449 62.2903C212.449 59.8243 211.598 57.7003 209.812 56.0593C208.109 54.3873 206.07 53.4223 203.687 53.4223C201.25 53.4223 199.152 54.3013 197.426 56.0273C195.696 57.7273 194.816 59.8553 194.816 62.2893V70.4803H193.286C191.074 70.4803 189.117 71.2193 187.504 72.7463C185.859 74.2503 185.039 76.1763 185.039 78.4143C185.039 80.5983 185.859 82.4413 187.336 84.0003C188.949 85.7003 190.961 86.4653 193.286 86.4653H194.93V119.48C194.93 120.672 195.129 121.86 195.582 122.965C196.008 124.043 196.66 124.977 197.48 125.801C199.152 127.527 201.254 128.437 203.691 128.437C206.156 128.437 208.309 127.586 209.984 125.773C211.656 124.016 212.477 121.891 212.449 119.453L212.363 86.5783H216.051C218.289 86.5783 220.242 85.7583 221.805 84.1723C223.363 82.6413 224.211 80.7423 224.211 78.5323C224.211 76.3223 223.445 74.3913 221.859 72.8053C220.301 71.2463 218.371 70.4803 216.16 70.4803ZM404.969 122.684L432.605 54.1023C433.023 53.1658 433.236 52.1508 433.23 51.1253C433.23 46.2233 430.566 42.0273 425.547 41.1803C421.067 40.4143 416.676 42.7933 415.09 47.1023L387.566 115.512C387.158 116.421 386.945 117.406 386.941 118.402C386.941 129.797 401.398 131.949 404.969 122.684ZM367.355 96.3283C370.02 96.3283 372.344 95.4223 374.242 93.5513C376.113 91.6523 377.02 89.3283 377.02 86.6643C377.02 84.0003 376.059 81.7043 374.188 79.8363C372.289 77.9343 370.02 76.9733 367.355 76.9733C364.691 76.9733 362.367 77.9063 360.383 79.6913C358.343 81.5353 357.352 83.8873 357.352 86.6643C357.352 89.4143 358.344 91.7663 360.382 93.6373C362.367 95.3913 364.692 96.3283 367.355 96.3283ZM296.547 163.406H296.352C290.824 163.406 286.344 167.883 286.344 173.41C286.344 178.934 290.824 183.414 296.352 183.414H296.547C302.074 183.414 306.555 178.938 306.555 173.41C306.555 167.882 302.075 163.406 296.547 163.406ZM216.105 310.344H215.906C210.379 310.344 205.902 314.824 205.902 320.348C205.902 325.875 210.379 330.355 215.906 330.355H216.106C221.629 330.355 226.109 325.875 226.109 320.348C226.109 314.824 221.629 310.344 216.105 310.344Z" fill="url(#paint2_linear_749_11)"/>
<defs>
<linearGradient id="paint0_linear_749_11" x1="385.6" y1="273.996" x2="448.499" y2="360.451" gradientUnits="userSpaceOnUse">
<stop stop-color="#1BA2D7"/>
<stop offset="1" stop-color="#8D3DFA"/>
</linearGradient>
<linearGradient id="paint1_linear_749_11" x1="18.2681" y1="29.4554" x2="444.179" y2="577.078" gradientUnits="userSpaceOnUse">
<stop stop-color="#1BA2D7"/>
<stop offset="1" stop-color="#8D3DFA"/>
</linearGradient>
<linearGradient id="paint2_linear_749_11" x1="100.023" y1="59.6855" x2="355.617" y2="447.72" gradientUnits="userSpaceOnUse">
<stop stop-color="#1BA2D7"/>
<stop offset="1" stop-color="#8D3DFA"/>
</linearGradient>
</defs>
</svg>
