<svg width="512" height="226" viewBox="0 0 512 226" fill="none" xmlns="http://www.w3.org/2000/svg">
<path d="M399.36 0C322.355 0 284.344 54.272 247.603 106.762C212.316 157.184 178.995 204.8 112.64 204.8C61.829 204.8 20.48 163.451 20.48 112.64C20.48 61.829 61.829 20.48 112.64 20.48C165.724 20.48 196.813 50.954 222.536 83.927C225.997 88.33 232.428 89.19 236.892 85.709C241.356 82.228 242.155 75.776 238.674 71.312C211.169 36.066 174.674 0.000991821 112.64 0.000991821C50.524 -8.17876e-06 0 50.545 0 112.64C0 174.735 50.524 225.28 112.64 225.28C189.645 225.28 227.656 171.008 264.397 118.518C299.684 68.096 333.005 20.48 399.36 20.48C450.171 20.48 491.52 61.829 491.52 112.64C491.52 163.451 450.171 204.8 399.36 204.8C346.276 204.8 315.187 174.326 289.464 141.353C285.962 136.909 279.552 136.09 275.107 139.571C270.642 143.053 269.844 149.504 273.325 153.968C300.83 189.214 337.325 225.279 399.359 225.279C461.476 225.28 512 174.735 512 112.64C512 50.545 461.476 0 399.36 0Z" fill="url(#paint0_linear_749_20)"/>
<defs>
<linearGradient id="paint0_linear_749_20" x1="18.2681" y1="14.52" x2="163.082" y2="392.241" gradientUnits="userSpaceOnUse">
<stop stop-color="#1BA2D7"/>
<stop offset="1" stop-color="#8D3DFA"/>
</linearGradient>
</defs>
</svg>
