<svg width="464" height="480" viewBox="0 0 464 480" fill="none" xmlns="http://www.w3.org/2000/svg">
<path d="M456 48C458.122 48 460.157 47.1571 461.657 45.6569C463.157 44.1566 464 42.1217 464 40V8C464 5.87827 463.157 3.84344 461.657 2.34315C460.157 0.842854 458.122 0 456 0H424C421.878 0 419.843 0.842854 418.343 2.34315C416.843 3.84344 416 5.87827 416 8V16H320V8C320 5.87827 319.157 3.84344 317.657 2.34315C316.157 0.842854 314.122 0 312 0H280C277.878 0 275.843 0.842854 274.343 2.34315C272.843 3.84344 272 5.87827 272 8V16H176V8C176 5.87827 175.157 3.84344 173.657 2.34315C172.157 0.842854 170.122 0 168 0H136C133.878 0 131.843 0.842854 130.343 2.34315C128.843 3.84344 128 5.87827 128 8V40C128 42.1217 128.843 44.1566 130.343 45.6569C131.843 47.1571 133.878 48 136 48H144V176H136C133.878 176 131.843 176.843 130.343 178.343C128.843 179.843 128 181.878 128 184V216C128 218.122 128.843 220.157 130.343 221.657C131.843 223.157 133.878 224 136 224H144V240H8C5.87827 240 3.84344 240.843 2.34315 242.343C0.842854 243.843 0 245.878 0 248V472C0 474.122 0.842854 476.157 2.34315 477.657C3.84344 479.157 5.87827 480 8 480H216C218.122 480 220.157 479.157 221.657 477.657C223.157 476.157 224 474.122 224 472V384H272V392C272 394.122 272.843 396.157 274.343 397.657C275.843 399.157 277.878 400 280 400H312C314.122 400 316.157 399.157 317.657 397.657C319.157 396.157 320 394.122 320 392V384H416V392C416 394.122 416.843 396.157 418.343 397.657C419.843 399.157 421.878 400 424 400H456C458.122 400 460.157 399.157 461.657 397.657C463.157 396.157 464 394.122 464 392V360C464 357.878 463.157 355.843 461.657 354.343C460.157 352.843 458.122 352 456 352H448V224H456C458.122 224 460.157 223.157 461.657 221.657C463.157 220.157 464 218.122 464 216V184C464 181.878 463.157 179.843 461.657 178.343C460.157 176.843 458.122 176 456 176H448V48H456ZM432 16H448V32H432V16ZM288 16H304V32H288V16ZM144 16H160V32H144V16ZM144 192H160V208H144V192ZM208 464H16V256H208V464ZM341.657 98.343L323.313 80H384V140.686L365.657 122.343C364.914 121.6 364.032 121.011 363.062 120.609C362.091 120.207 361.051 120 360 120C358.949 120 357.909 120.207 356.938 120.609C355.968 121.011 355.086 121.6 354.343 122.343L224 252.686V248C224 245.878 223.157 243.843 221.657 242.343C220.157 240.843 218.122 240 216 240H211.314L341.657 109.657C342.4 108.914 342.989 108.032 343.391 107.062C343.793 106.091 344 105.051 344 104C344 102.949 343.793 101.909 343.391 100.938C342.989 99.9678 342.4 99.0859 341.657 98.343ZM304 384H288V368H304V384ZM448 384H432V368H448V384ZM448 208H432V192H448V208ZM432 176H424C421.878 176 419.843 176.843 418.343 178.343C416.843 179.843 416 181.878 416 184V216C416 218.122 416.843 220.157 418.343 221.657C419.843 223.157 421.878 224 424 224H432V352H424C421.878 352 419.843 352.843 418.343 354.343C416.843 355.843 416 357.878 416 360V368H320V360C320 357.878 319.157 355.843 317.657 354.343C316.157 352.843 314.122 352 312 352H280C277.878 352 275.843 352.843 274.343 354.343C272.843 355.843 272 357.878 272 360V368H224V275.314L360 139.314L386.343 165.657C387.462 166.776 388.887 167.538 390.439 167.847C391.991 168.155 393.6 167.997 395.061 167.391C396.523 166.786 397.773 165.76 398.652 164.445C399.531 163.129 400 161.582 400 160V72C400 69.8783 399.157 67.8434 397.657 66.3431C396.157 64.8429 394.122 64 392 64H304C302.418 63.9999 300.871 64.4691 299.555 65.3482C298.24 66.2272 297.214 67.4766 296.609 68.9385C296.003 70.4003 295.845 72.0089 296.153 73.5608C296.462 75.1127 297.224 76.5382 298.343 77.657L324.686 104L188.686 240H160V224H168C170.122 224 172.157 223.157 173.657 221.657C175.157 220.157 176 218.122 176 216V184C176 181.878 175.157 179.843 173.657 178.343C172.157 176.843 170.122 176 168 176H160V48H168C170.122 48 172.157 47.1571 173.657 45.6569C175.157 44.1566 176 42.1217 176 40V32H272V40C272 42.1217 272.843 44.1566 274.343 45.6569C275.843 47.1571 277.878 48 280 48H312C314.122 48 316.157 47.1571 317.657 45.6569C319.157 44.1566 320 42.1217 320 40V32H416V40C416 42.1217 416.843 44.1566 418.343 45.6569C419.843 47.1571 421.878 48 424 48H432V176Z" fill="url(#paint0_linear_749_23)"/>
<path d="M157.087 290.872C151.194 284.907 144.177 280.169 136.442 276.932C128.708 273.694 120.408 272.021 112.024 272.01H111.983C99.0293 272.009 86.3809 275.94 75.71 283.283C65.0391 290.626 56.8482 301.035 52.2206 313.134C47.5929 325.232 46.7463 338.45 49.7929 351.04C52.8394 363.63 59.6355 374.999 69.2825 383.643C70.1311 384.396 70.8114 385.32 71.2792 386.354C71.7469 387.387 71.9917 388.508 71.9975 389.643V392C71.9934 395.579 72.7953 399.114 74.3435 402.341C73.5992 403.083 73.009 403.965 72.6069 404.936C72.2048 405.907 71.9987 406.949 72.0005 408V424C72.008 430.363 74.5389 436.463 79.0382 440.962C83.5374 445.461 89.6376 447.992 96.0005 448H128.001C134.363 447.992 140.464 445.461 144.963 440.962C149.462 436.463 151.993 430.363 152.001 424V408C152.002 406.948 151.795 405.907 151.393 404.936C150.99 403.965 150.399 403.083 149.655 402.341C151.203 399.114 152.005 395.579 152.001 392V389.639C152.006 388.504 152.251 387.384 152.719 386.35C153.186 385.316 153.866 384.392 154.715 383.639C161.205 377.851 166.441 370.795 170.099 362.905C173.756 355.016 175.758 346.46 175.98 337.767C176.202 329.073 174.64 320.427 171.391 312.36C168.141 304.294 163.273 296.979 157.087 290.868V290.872ZM136.001 424C135.998 426.121 135.155 428.154 133.655 429.654C132.155 431.154 130.122 431.997 128.001 432H96.0005C93.8795 431.997 91.8461 431.154 90.3463 429.654C88.8465 428.154 88.0029 426.121 88.0005 424V416H136.001V424ZM104.001 336H120.001L112.001 346.667L104.001 336ZM144.033 371.73C141.513 373.985 139.495 376.745 138.112 379.83C136.728 382.915 136.009 386.257 136.001 389.639V392C135.998 394.121 135.155 396.154 133.655 397.654C132.155 399.154 130.122 399.997 128.001 400H120.001V362.666L142.401 332.8C143.292 331.611 143.835 330.198 143.968 328.718C144.102 327.239 143.82 325.751 143.156 324.422C142.492 323.093 141.47 321.976 140.206 321.195C138.943 320.413 137.486 320 136.001 320H88.0005C86.5148 320 85.0585 320.413 83.7947 321.195C82.5309 321.976 81.5095 323.093 80.8451 324.422C80.1807 325.751 79.8994 327.239 80.0329 328.718C80.1663 330.198 80.7091 331.611 81.6005 332.8L104.001 362.666V400H96.0005C93.8795 399.997 91.8461 399.154 90.3463 397.654C88.8465 396.154 88.0029 394.121 88.0005 392V389.639C87.9925 386.257 87.2731 382.915 85.8892 379.83C84.5052 376.744 82.4877 373.985 79.9675 371.73C74.9488 367.227 70.9335 361.719 68.1827 355.564C65.4318 349.408 64.0069 342.742 64.0005 336C64.1332 323.314 69.2315 311.185 78.2021 302.213C87.1728 293.242 99.3015 288.143 111.988 288.01H112.019C121.733 288.009 131.219 290.958 139.222 296.465C147.224 301.972 153.367 309.779 156.836 318.853C160.306 327.926 160.94 337.84 158.653 347.281C156.367 356.723 151.269 365.248 144.033 371.73Z" fill="url(#paint1_linear_749_23)"/>
<defs>
<linearGradient id="paint0_linear_749_23" x1="16.5554" y1="30.9376" x2="475.628" y2="540.234" gradientUnits="userSpaceOnUse">
<stop stop-color="#1BA2D7"/>
<stop offset="1" stop-color="#8D3DFA"/>
</linearGradient>
<linearGradient id="paint1_linear_749_23" x1="52.5652" y1="283.353" x2="219.066" y2="422.335" gradientUnits="userSpaceOnUse">
<stop stop-color="#1BA2D7"/>
<stop offset="1" stop-color="#8D3DFA"/>
</linearGradient>
</defs>
</svg>
