<svg width="512" height="467" viewBox="0 0 512 467" fill="none" xmlns="http://www.w3.org/2000/svg">
<path fill-rule="evenodd" clip-rule="evenodd" d="M366.228 269.047H328.736C317.638 287.044 297.842 298.142 276.546 298.142H235.454C214.158 298.142 194.362 287.044 182.964 269.047H145.772C135.574 269.047 127.175 260.949 127.175 250.751V202.76C127.175 192.562 135.574 184.464 145.772 184.464H173.366C173.366 167.667 177.565 168.267 179.065 164.368V135.274C179.065 105.879 200.061 80.0844 228.855 74.3855C240.853 71.9859 263.948 72.2859 275.946 73.1857C307.74 75.8852 332.935 103.18 332.935 135.274V164.368C334.435 168.867 338.034 166.467 338.634 184.464H366.228C376.426 184.464 384.525 192.562 384.525 202.76V250.751C384.525 260.949 376.426 269.047 366.228 269.047ZM361.429 466.709H150.571C142.172 466.709 135.274 460.11 135.274 451.712V444.213C135.274 435.515 142.172 428.916 150.571 428.916H160.469L218.957 370.428H36.2929C16.1968 370.428 0 354.231 0 334.135V36.5929C0 16.4968 16.4968 0 36.5929 0H475.407C495.503 0 512 16.4968 512 36.5929V334.135C512 354.231 495.503 370.428 475.707 370.428H293.043L351.231 428.916H361.429C369.828 428.916 376.726 435.515 376.726 444.213V451.712C376.726 459.81 369.828 466.709 361.429 466.709ZM177.565 428.916H334.435L275.946 370.428H236.054L177.565 428.916ZM150.571 440.614C146.071 440.614 147.271 446.613 147.271 451.412C147.271 453.211 148.771 454.711 150.571 454.711H361.429C365.629 454.711 364.729 448.712 364.729 443.913C364.729 439.114 355.131 440.914 348.532 440.614H150.571ZM232.455 358.43H475.707C488.905 358.43 499.702 347.632 499.702 334.135V327.536H11.9977V334.135C11.9977 347.632 22.7955 358.43 36.2929 358.43H232.455ZM11.9977 315.538H499.702V55.1892H11.9977V315.538ZM11.9977 43.1916H499.702V36.5929C499.702 23.0955 488.905 11.9977 475.107 11.9977H36.5929C23.0955 11.9977 11.9977 23.0955 11.9977 36.5929V43.1916ZM349.732 240.853C348.532 240.853 345.832 239.653 342.233 237.554C342.233 242.053 342.833 248.951 336.234 248.951C329.936 248.951 330.236 242.053 330.236 237.554C326.636 239.653 323.937 240.853 322.737 240.853C316.738 240.853 314.639 233.054 319.738 229.755L324.837 226.756C322.437 225.256 320.637 224.056 319.738 223.456C313.139 219.557 319.438 209.359 326.036 213.258L330.236 215.958V210.559C330.236 202.76 342.233 202.76 342.233 210.559V215.958L346.432 213.258C353.331 209.359 359.63 219.557 352.731 223.456C351.831 224.056 350.032 225.256 347.632 226.756L352.731 229.755C358.13 233.054 355.731 240.853 349.732 240.853ZM296.042 240.853C295.142 240.853 292.143 239.653 288.844 237.554C288.844 242.053 289.144 248.951 282.845 248.951C276.246 248.951 276.846 242.053 276.846 237.554C273.247 239.653 270.247 240.853 269.347 240.853C263.349 240.853 260.949 233.054 266.048 229.755L271.147 226.756C269.047 225.256 267.248 224.056 266.048 223.456C259.449 219.557 265.748 209.359 272.347 213.258L276.846 215.958V210.559C276.846 202.76 288.844 202.76 288.844 210.559V215.958L293.043 213.258C299.641 209.359 305.94 219.557 299.342 223.456C298.142 224.056 296.342 225.256 294.243 226.756L299.342 229.755C304.441 233.054 302.041 240.853 296.042 240.853ZM242.653 240.853C241.453 240.853 238.753 239.653 235.154 237.554C235.154 242.053 235.754 248.951 229.155 248.951C222.856 248.951 223.156 242.053 223.156 237.554C219.557 239.653 216.858 240.853 215.658 240.853C209.659 240.853 207.559 233.054 212.658 229.755L217.757 226.756C215.358 225.256 213.558 224.056 212.658 223.456C205.76 219.557 212.059 209.359 218.957 213.258L223.156 215.958V210.559C223.156 202.76 235.154 202.76 235.154 210.559V215.958L239.353 213.258C246.252 209.359 252.551 219.557 245.652 223.456C244.752 224.056 242.953 225.256 240.853 226.756L245.652 229.755C250.751 233.054 248.651 240.853 242.653 240.853ZM188.963 240.853C188.063 240.853 185.064 239.653 181.765 237.554C181.765 242.053 182.064 248.951 175.766 248.951C169.167 248.951 169.767 242.053 169.767 237.554C166.168 239.653 163.468 240.853 162.268 240.853C156.269 240.853 153.87 233.054 158.969 229.755L164.068 226.756C161.968 225.256 160.169 224.056 158.969 223.456C152.37 219.557 158.669 209.359 165.268 213.258L169.767 215.958V210.559C169.767 202.76 181.765 202.76 181.765 210.559V215.958L185.964 213.258C192.562 209.359 198.861 219.557 192.262 223.456C191.363 224.056 189.563 225.256 187.163 226.756L192.262 229.755C197.361 233.054 194.962 240.853 188.963 240.853ZM297.242 155.37V138.573C297.242 121.476 285.544 106.779 270.847 105.279C262.749 104.38 248.052 104.08 239.953 105.279C225.556 107.379 214.758 121.776 214.758 138.573V155.37H297.242ZM202.76 155.37V138.573C202.76 115.777 218.057 96.5811 238.453 93.5817C247.452 92.082 263.349 92.382 272.347 93.2818C293.043 95.6813 309.24 115.477 309.24 138.573V155.37C313.139 155.37 317.038 155.37 320.937 156.269V135.274C320.937 109.479 300.541 87.5829 275.046 85.1834C263.649 84.2835 241.453 83.9836 231.255 86.0832C207.859 90.8823 191.063 111.578 191.063 135.274V156.269C194.662 155.37 198.861 155.37 202.76 155.37ZM323.037 171.267C317.038 166.168 310.439 167.367 303.241 167.367H197.961C188.063 167.367 185.364 175.766 185.364 184.464H326.336C326.636 179.365 326.336 174.866 323.037 171.267ZM314.039 269.047H197.961C207.26 279.845 221.057 286.144 235.454 286.144H276.546C290.943 286.144 304.441 279.845 314.039 269.047ZM186.264 257.05H366.228C369.828 257.05 372.527 254.05 372.527 250.751V202.76C372.527 199.161 369.828 196.462 366.228 196.462H145.772C142.172 196.462 139.173 199.161 139.173 202.76V250.751C139.173 254.05 142.172 257.05 145.772 257.05H186.264Z" fill="url(#paint0_linear_752_96)"/>
<defs>
<linearGradient id="paint0_linear_752_96" x1="18.2681" y1="30.0809" x2="455.389" y2="580.43" gradientUnits="userSpaceOnUse">
<stop stop-color="#1BA2D7"/>
<stop offset="1" stop-color="#8D3DFA"/>
</linearGradient>
</defs>
</svg>
