<svg width="512" height="512" viewBox="0 0 512 512" fill="none" xmlns="http://www.w3.org/2000/svg">
<path d="M179.2 443.733C210.747 443.953 242.222 440.722 273.067 434.099V469.333C273.08 480.645 277.58 491.49 285.578 499.488C293.577 507.487 304.422 511.986 315.733 512H469.333C480.645 511.986 491.49 507.487 499.488 499.488C507.487 491.49 511.986 480.645 512 469.333V315.733C511.986 304.422 507.487 293.577 499.488 285.578C491.49 277.58 480.645 273.08 469.333 273.067V204.8C469.313 186.701 462.114 169.349 449.316 156.551C436.518 143.753 419.166 136.554 401.067 136.533H384C375.222 136.536 366.527 138.243 358.4 141.559V68.2667C358.4 23.8933 266.078 0 179.2 0C92.3221 0 0 23.8933 0 68.2667V375.467C0 419.84 92.3221 443.733 179.2 443.733ZM179.2 426.667C83.6267 426.667 17.0667 399.684 17.0667 375.467V303.454C47.7099 328.226 114.927 341.333 179.2 341.333C210.746 341.547 242.222 338.317 273.067 331.699V416.538C242.274 423.526 210.775 426.925 179.2 426.667ZM494.933 315.733V469.333C494.933 476.123 492.236 482.634 487.435 487.435C482.634 492.236 476.123 494.933 469.333 494.933H315.733C308.944 494.933 302.432 492.236 297.631 487.435C292.83 482.634 290.133 476.123 290.133 469.333V315.733C290.133 308.944 292.83 302.432 297.631 297.631C302.432 292.83 308.944 290.133 315.733 290.133H469.333C476.123 290.133 482.634 292.83 487.435 297.631C492.236 302.432 494.933 308.944 494.933 315.733ZM418.133 273.067H366.933V204.8C366.933 200.274 368.731 195.933 371.932 192.732C375.133 189.531 379.474 187.733 384 187.733H401.067C405.593 187.733 409.934 189.531 413.135 192.732C416.335 195.933 418.133 200.274 418.133 204.8V273.067ZM401.067 153.6C414.642 153.614 427.657 159.012 437.256 168.611C446.855 178.21 452.253 191.225 452.267 204.8V273.067H435.2V204.8C435.2 195.747 431.604 187.065 425.203 180.664C418.801 174.263 410.119 170.667 401.067 170.667H384C374.947 170.667 366.265 174.263 359.864 180.664C353.463 187.065 349.867 195.747 349.867 204.8V273.067H332.8V204.8C332.814 191.225 338.212 178.21 347.811 168.611C357.41 159.012 370.425 153.614 384 153.6H401.067ZM179.2 17.0667C274.773 17.0667 341.333 44.0491 341.333 68.2667C341.333 92.4843 274.773 119.467 179.2 119.467C83.6267 119.467 17.0667 92.4843 17.0667 68.2667C17.0667 44.0491 83.6267 17.0667 179.2 17.0667ZM17.0667 98.6539C47.7099 123.426 114.927 136.533 179.2 136.533C243.473 136.533 310.69 123.426 341.333 98.6539V151.561C327.403 162.72 318.402 178.896 316.262 196.617C285.943 212.258 234.121 221.867 179.2 221.867C83.6267 221.867 17.0667 194.884 17.0667 170.667V98.6539ZM17.0667 201.054C47.7099 225.826 114.927 238.933 179.2 238.933C232.798 238.933 282.402 230.4 315.733 215.817V273.067C304.722 273.1 294.151 277.39 286.229 285.038C278.307 292.686 273.649 303.1 273.229 314.103C242.383 321.107 210.83 324.518 179.2 324.267C83.6267 324.267 17.0667 297.284 17.0667 273.067V201.054Z" fill="url(#paint0_linear_749_7)"/>
<path d="M392.533 332.8C383.578 332.8 374.851 335.617 367.586 340.853C360.321 346.09 354.888 353.479 352.056 361.974C349.225 370.47 349.137 379.641 351.808 388.188C354.478 396.736 359.769 404.227 366.933 409.6V426.666C366.933 431.193 368.732 435.534 371.932 438.734C375.133 441.935 379.474 443.733 384 443.733H401.067C405.593 443.733 409.934 441.935 413.135 438.734C416.335 435.534 418.133 431.193 418.133 426.666V409.6C425.297 404.227 430.589 396.736 433.259 388.188C435.929 379.641 435.842 370.47 433.011 361.974C430.179 353.479 424.746 346.09 417.481 340.853C410.216 335.617 401.488 332.8 392.533 332.8ZM405.333 397.593C404.035 398.343 402.957 399.422 402.208 400.72C401.459 402.019 401.065 403.492 401.067 404.992V426.666H384V404.992C384.002 403.492 383.608 402.019 382.859 400.72C382.11 399.422 381.032 398.343 379.733 397.593C374.853 394.776 371.039 390.426 368.882 385.22C366.726 380.013 366.347 374.241 367.806 368.797C369.264 363.354 372.478 358.544 376.949 355.113C381.42 351.683 386.898 349.823 392.533 349.823C398.169 349.823 403.647 351.683 408.118 355.113C412.589 358.544 415.803 363.354 417.261 368.797C418.72 374.241 418.341 380.013 416.185 385.22C414.028 390.426 410.214 394.776 405.333 397.593ZM39.0487 163.038C41.9073 164.377 44.9281 165.666 48.0684 166.912C50.1619 167.689 52.4768 167.615 54.5162 166.705C56.5556 165.795 58.1571 164.122 58.9769 162.045C59.7966 159.967 59.7694 157.651 58.9009 155.594C58.0325 153.537 56.3922 151.901 54.3319 151.04C51.5216 149.93 48.8393 148.776 46.2849 147.575C44.2345 146.616 41.8868 146.51 39.7584 147.281C37.63 148.053 35.8952 149.638 34.9356 151.688C33.976 153.739 33.8703 156.086 34.6416 158.215C35.413 160.343 36.9982 162.078 39.0487 163.038ZM83.3964 177.664C86.2693 178.341 89.1991 178.978 92.1857 179.575C92.7474 179.689 93.3194 179.743 93.8924 179.737C96.0086 179.74 98.0501 178.955 99.6206 177.537C101.191 176.118 102.178 174.167 102.391 172.062C102.604 169.956 102.027 167.847 100.771 166.143C99.5164 164.439 97.6729 163.262 95.5991 162.841C92.7831 162.278 90.0268 161.672 87.3217 161.049C86.2186 160.76 85.0686 160.694 83.9397 160.856C82.8108 161.019 81.7259 161.406 80.7491 161.994C79.7723 162.583 78.9234 163.362 78.2527 164.284C77.5819 165.207 77.1029 166.254 76.8439 167.365C76.5849 168.476 76.5512 169.627 76.7447 170.751C76.9383 171.875 77.3552 172.949 77.9709 173.909C78.5865 174.869 79.3883 175.696 80.329 176.341C81.2697 176.986 82.3301 177.436 83.4476 177.664H83.3964Z" fill="url(#paint1_linear_749_7)"/>
<defs>
<linearGradient id="paint0_linear_749_7" x1="18.2681" y1="33.0001" x2="505.955" y2="592.697" gradientUnits="userSpaceOnUse">
<stop stop-color="#1BA2D7"/>
<stop offset="1" stop-color="#8D3DFA"/>
</linearGradient>
<linearGradient id="paint1_linear_749_7" x1="48.4409" y1="165.911" x2="308.602" y2="569.159" gradientUnits="userSpaceOnUse">
<stop stop-color="#1BA2D7"/>
<stop offset="1" stop-color="#8D3DFA"/>
</linearGradient>
</defs>
</svg>
