<svg width="480" height="480" viewBox="0 0 480 480" fill="none" xmlns="http://www.w3.org/2000/svg">
<path d="M406.886 26.295C362.183 9.338 302.915 0 240 0C177.085 0 117.817 9.338 73.114 26.295C25.966 44.179 0 68.934 0 96V432C0 434.122 0.842854 436.157 2.34315 437.657C3.84344 439.157 5.87827 440 8 440C10.1217 440 12.1566 439.157 13.6569 437.657C15.1571 436.157 16 434.122 16 432C16 414.007 34.752 396 68.802 381.296C102.897 366.572 149.225 356.723 200 353.326V440C200 442.122 200.843 444.157 202.343 445.657C203.843 447.157 205.878 448 208 448H272C274.122 448 276.157 447.157 277.657 445.657C279.157 444.157 280 442.122 280 440V353.326C330.775 356.723 377.103 366.572 411.198 381.296C445.248 396 464 414.006 464 432C464 434.122 464.843 436.157 466.343 437.657C467.843 439.157 469.878 440 472 440C474.122 440 476.157 439.157 477.657 437.657C479.157 436.157 480 434.122 480 432V96C480 68.934 454.034 44.179 406.886 26.295ZM312 20.356V116.251C303.71 115.243 295.271 114.41 286.684 113.752L281.892 94.582C280.923 90.6601 278.975 87.0481 276.23 84.0838C273.485 81.1195 270.034 78.8997 266.198 77.632L259.28 75.327L261.465 70.957C263.128 67.6228 263.995 63.9488 264 60.223V40C264 37.8783 263.157 35.8434 261.657 34.3431C260.157 32.8429 258.122 32 256 32H240C233.637 32.0071 227.537 34.538 223.037 39.0373C218.538 43.5367 216.007 49.637 216 56V60.223C216.005 63.948 216.872 67.6214 218.534 70.955L220.72 75.327L213.803 77.633C209.967 78.9001 206.516 81.1193 203.771 84.0831C201.026 87.0469 199.078 90.6585 198.109 94.58L193.316 113.752C184.736 114.405 176.297 115.238 168 116.25V20.356C215.824 14.5481 264.176 14.5481 312 20.356ZM312 134.59L282.945 214.49L264 209.754V201.889L268.62 192.646C270.837 188.201 271.994 183.302 272 178.334V144C272 141.878 271.157 139.843 269.657 138.343C268.157 136.843 266.122 136 264 136H240C231.516 136.01 223.382 139.384 217.383 145.383C211.384 151.382 208.01 159.516 208 168V178.334C208.006 183.301 209.162 188.199 211.379 192.644L216 201.89V209.755L190.06 216.24C188.697 216.581 187.448 217.274 186.438 218.251C185.429 219.227 184.694 220.452 184.308 221.803L168 278.878V132.356C215.824 126.548 264.176 126.548 312 132.356V134.59ZM232 328V401.376C226.824 399.541 221.176 399.541 216 401.376V304H264V401.376C258.824 399.541 253.176 399.541 248 401.376V328H232ZM265.583 288H214.417L201.5 229.871L221.545 224.86L223.029 226.344C227.534 230.838 233.637 233.362 240 233.362C246.363 233.362 252.466 230.838 256.971 226.344L258.455 224.86L278.5 229.87L265.583 288ZM256 178.334C255.997 180.818 255.418 183.267 254.31 185.49L248.845 196.423C248.289 197.533 248 198.758 248 200V212.686L245.656 215.029C244.913 215.772 244.032 216.361 243.061 216.763C242.091 217.166 241.05 217.373 240 217.373C238.95 217.373 237.909 217.166 236.939 216.763C235.968 216.361 235.087 215.772 234.344 215.029L232 212.686V200C232 198.758 231.711 197.533 231.155 196.423L225.688 185.488C224.58 183.266 224.003 180.817 224 178.334V168C224.005 163.758 225.692 159.691 228.692 156.692C231.691 153.692 235.758 152.005 240 152H256V178.334ZM234.53 87.59C236.122 87.0589 237.506 86.0409 238.488 84.68C239.469 83.319 239.998 81.684 240 80.006C240.002 81.684 240.531 83.319 241.512 84.68C242.494 86.0409 243.878 87.0589 245.47 87.59L261.139 92.813C262.417 93.2354 263.567 93.975 264.482 94.9628C265.397 95.9505 266.046 97.1541 266.369 98.461L269.933 112.716C260.078 112.243 250.101 112.004 240 112C229.913 112 219.936 112.239 210.067 112.716L213.632 98.46C213.955 97.1532 214.604 95.9497 215.519 94.9621C216.433 93.9744 217.584 93.235 218.862 92.813L234.53 87.59ZM232 60.223V56C232.003 53.8791 232.846 51.8458 234.346 50.3461C235.846 48.8464 237.879 48.0026 240 48H248V60.223C247.998 61.4649 247.709 62.6895 247.155 63.801L240.845 76.423C240.29 77.5313 240.001 78.7535 240 79.993C239.999 78.7535 239.71 77.5313 239.155 76.423L232.844 63.799C232.29 62.6881 232.002 61.4642 232 60.223ZM16 96C16 76.344 38.886 56.39 78.788 41.254C100.095 33.172 124.93 26.895 152 22.619V118.443C144.445 119.598 137.057 120.902 129.836 122.353L129.475 120.187C128.764 115.882 126.889 111.853 124.055 108.536C121.22 105.218 117.533 102.738 113.392 101.364L107.28 99.327L109.466 94.957C111.128 91.6226 111.995 87.9486 112 84.223V64C112 61.8783 111.157 59.8434 109.657 58.3431C108.157 56.8429 106.122 56 104 56H88C81.637 56.0071 75.5367 58.538 71.0373 63.0373C66.538 67.5367 64.0071 73.637 64 80V84.223C64.0045 87.948 64.8719 91.6214 66.534 94.955L68.72 99.327L62.608 101.364C58.4666 102.738 54.7794 105.218 51.9448 108.536C49.1101 111.853 47.2357 115.882 46.524 120.187L40.988 153.409C31.815 158.624 23.4062 165.08 16 172.596V96ZM82.53 111.59C84.1208 111.059 85.5046 110.042 86.4861 108.682C87.4676 107.323 87.9972 105.689 88 104.012C88.0028 105.689 88.5324 107.323 89.5139 108.682C90.4954 110.042 91.8792 111.059 93.47 111.59L108.331 116.544C109.711 117.002 110.94 117.828 111.885 118.934C112.83 120.039 113.455 121.382 113.692 122.817L114.189 125.8C100.249 129.099 86.5298 133.272 73.114 138.295C68.0707 140.208 63.2767 142.2 58.732 144.269L62.307 122.817C62.5444 121.382 63.1694 120.039 64.1144 118.934C65.0594 117.828 66.2885 117.002 67.669 116.544L82.53 111.59ZM80 84.223V80C80.0026 77.8791 80.8464 75.8458 82.3461 74.3461C83.8458 72.8464 85.8791 72.0026 88 72H96V84.223C95.9984 85.4649 95.7092 86.6896 95.155 87.801L88.845 100.423C88.2911 101.53 88.0018 102.75 88 103.988C87.9982 102.75 87.7089 101.53 87.155 100.423L80.845 87.799C80.2906 86.6884 80.0014 85.4643 80 84.223ZM16 208C16 188.344 38.886 168.39 78.788 153.254C100.095 145.172 124.93 138.895 152 134.619V230.459C144.415 231.619 137.027 232.92 129.837 234.363L129.475 232.187C128.764 227.882 126.889 223.853 124.055 220.536C121.22 217.218 117.533 214.738 113.392 213.364L107.28 211.327L109.466 206.957C111.128 203.623 111.995 199.949 112 196.223V176C112 173.878 111.157 171.843 109.657 170.343C108.157 168.843 106.122 168 104 168H88C81.637 168.007 75.5367 170.538 71.0373 175.037C66.538 179.537 64.0071 185.637 64 192V196.223C64.0045 199.948 64.8719 203.621 66.534 206.955L68.72 211.327L62.608 213.364C58.4666 214.738 54.7794 217.218 51.9448 220.536C49.1101 223.853 47.2357 227.882 46.524 232.187L40.992 265.384C31.818 270.585 23.4076 277.031 16 284.537V208ZM82.53 223.59C84.1208 223.059 85.5046 222.042 86.4861 220.682C87.4676 219.323 87.9972 217.689 88 216.012C88.0028 217.689 88.5324 219.323 89.5139 220.682C90.4954 222.042 91.8792 223.059 93.47 223.59L108.331 228.544C109.711 229.002 110.94 229.828 111.885 230.934C112.83 232.039 113.455 233.382 113.692 234.817L114.19 237.804C93.414 242.784 74.737 248.991 58.735 256.252L62.307 234.817C62.5444 233.382 63.1694 232.039 64.1144 230.934C65.0594 229.828 66.2885 229.002 67.669 228.544L82.53 223.59ZM80 196.223V192C80.0026 189.879 80.8464 187.846 82.3461 186.346C83.8458 184.846 85.8791 184.003 88 184H96V196.223C95.9984 197.465 95.7092 198.69 95.155 199.801L88.845 212.423C88.2911 213.53 88.0018 214.75 88 215.988C87.9982 214.75 87.7089 213.53 87.155 212.423L80.845 199.799C80.2906 198.688 80.0014 197.464 80 196.223ZM16 396.397V320C16 289.073 71.462 259.413 152 246.654V342.468C144.44 343.627 137.054 344.933 129.842 346.388L129.475 344.187C128.764 339.882 126.889 335.853 124.055 332.536C121.22 329.218 117.533 326.738 113.392 325.364L107.28 323.327L109.466 318.957C111.128 315.623 111.995 311.949 112 308.223V288C112 285.878 111.157 283.843 109.657 282.343C108.157 280.843 106.122 280 104 280H88C81.637 280.007 75.5367 282.538 71.0373 287.037C66.538 291.537 64.0071 297.637 64 304V308.223C64.0045 311.948 64.8719 315.621 66.534 318.955L68.72 323.327L62.608 325.364C58.4666 326.738 54.7794 329.218 51.9448 332.536C49.1101 335.853 47.2357 339.882 46.524 344.187L40.997 377.352C30.803 383.304 22.443 389.674 16 396.397ZM96 296V308.223C95.9984 309.465 95.7092 310.69 95.155 311.801L88.845 324.423C88.2911 325.53 88.0018 326.75 88 327.988C87.9982 326.75 87.7089 325.53 87.155 324.423L80.845 311.799C80.2906 310.688 80.0014 309.464 80 308.223V304C80.0026 301.879 80.8464 299.846 82.3461 298.346C83.8458 296.846 85.8791 296.003 88 296H96ZM62.458 366.607C61.198 367.151 59.957 367.7 58.735 368.253L62.307 346.817C62.5444 345.382 63.1694 344.039 64.1144 342.934C65.0594 341.828 66.2885 341.002 67.669 340.544L82.53 335.59C84.1208 335.059 85.5046 334.042 86.4861 332.682C87.4676 331.323 87.9972 329.689 88 328.012C88.0028 329.689 88.5324 331.323 89.5139 332.682C90.4954 334.042 91.8792 335.059 93.47 335.59L108.331 340.544C109.711 341.002 110.94 341.828 111.885 342.934C112.83 344.039 113.455 345.382 113.692 346.817L114.194 349.83C96.5034 353.942 79.1954 359.555 62.458 366.607ZM168 340.272V337.122L191.03 256.515L200 296.878V337.292C189.307 337.984 178.637 338.978 168 340.272ZM216 424C216 421.878 216.843 419.843 218.343 418.343C219.843 416.843 221.878 416 224 416C226.122 416 228.157 416.843 229.657 418.343C231.157 419.843 232 421.878 232 424V432H216V424ZM248 424C248 421.878 248.843 419.843 250.343 418.343C251.843 416.843 253.878 416 256 416C258.122 416 260.157 416.843 261.657 418.343C263.157 419.843 264 421.878 264 424V432H248V424ZM280 296.878L295.696 226.246L312 181.41V340.272C301.363 338.978 290.693 337.984 280 337.292V296.878ZM365.805 349.83L366.307 346.817C366.544 345.382 367.169 344.039 368.114 342.934C369.059 341.828 370.289 341.002 371.669 340.544L386.53 335.59C388.121 335.059 389.505 334.042 390.486 332.682C391.468 331.323 391.997 329.689 392 328.012C392.003 329.689 392.532 331.323 393.514 332.682C394.495 334.042 395.879 335.059 397.47 335.59L412.331 340.544C413.711 341.002 414.94 341.828 415.885 342.934C416.83 344.039 417.455 345.382 417.692 346.817L421.265 368.253C420.042 367.7 418.801 367.151 417.542 366.607C400.804 359.555 383.496 353.942 365.805 349.83ZM384 308.223V304C384.003 301.879 384.846 299.846 386.346 298.346C387.846 296.846 389.879 296.003 392 296H400V308.223C399.998 309.465 399.709 310.69 399.155 311.801L392.845 324.423C392.291 325.53 392.002 326.75 392 327.988C391.998 326.75 391.709 325.53 391.155 324.423L384.845 311.799C384.291 310.688 384.001 309.464 384 308.223ZM464 396.397C457.557 389.674 449.197 383.304 439.003 377.352L433.475 344.187C432.764 339.882 430.889 335.853 428.055 332.536C425.22 329.218 421.533 326.738 417.392 325.364L411.28 323.327L413.466 318.957C415.128 315.623 415.995 311.949 416 308.223V288C416 285.878 415.157 283.843 413.657 282.343C412.157 280.843 410.122 280 408 280H392C385.637 280.007 379.537 282.538 375.037 287.037C370.538 291.537 368.007 297.637 368 304V308.223C368.005 311.948 368.872 315.621 370.534 318.955L372.72 323.327L366.608 325.364C362.467 326.738 358.779 329.218 355.945 332.536C353.11 335.853 351.236 339.882 350.524 344.187L350.157 346.388C342.952 344.939 335.566 343.632 328 342.468V246.654C408.538 259.413 464 289.073 464 320V396.397ZM386.53 223.59C388.121 223.059 389.505 222.042 390.486 220.682C391.468 219.323 391.997 217.689 392 216.012C392.003 217.689 392.532 219.323 393.514 220.682C394.495 222.042 395.879 223.059 397.47 223.59L412.331 228.544C413.711 229.002 414.94 229.828 415.885 230.934C416.83 232.039 417.455 233.382 417.692 234.817L421.265 256.252C405.263 248.991 386.585 242.785 365.809 237.803L366.307 234.817C366.544 233.382 367.169 232.039 368.114 230.934C369.059 229.828 370.289 229.002 371.669 228.544L386.53 223.59ZM384 196.223V192C384.003 189.879 384.846 187.846 386.346 186.346C387.846 184.846 389.879 184.003 392 184H400V196.223C399.998 197.465 399.709 198.69 399.155 199.801L392.845 212.423C392.291 213.53 392.002 214.75 392 215.988C391.998 214.75 391.709 213.53 391.155 212.423L384.845 199.799C384.291 198.688 384.001 197.464 384 196.223ZM464 284.537C456.592 277.031 448.182 270.585 439.008 265.384L433.475 232.187C432.764 227.882 430.889 223.853 428.055 220.536C425.22 217.218 421.533 214.738 417.392 213.364L411.28 211.327L413.466 206.957C415.128 203.623 415.995 199.949 416 196.223V176C416 173.878 415.157 171.843 413.657 170.343C412.157 168.843 410.122 168 408 168H392C385.637 168.007 379.537 170.538 375.037 175.037C370.538 179.537 368.007 185.637 368 192V196.223C368.005 199.948 368.872 203.621 370.534 206.955L372.72 211.327L366.608 213.364C362.467 214.738 358.779 217.218 355.945 220.536C353.11 223.853 351.236 227.882 350.524 232.187L350.162 234.363C342.981 232.922 335.594 231.62 328 230.459V134.619C355.07 138.895 379.905 145.172 401.212 153.254C441.114 168.39 464 188.344 464 208V284.537ZM386.53 111.59C388.121 111.059 389.505 110.042 390.486 108.682C391.468 107.323 391.997 105.689 392 104.012C392.003 105.689 392.532 107.323 393.514 108.682C394.495 110.042 395.879 111.059 397.47 111.59L412.331 116.544C413.711 117.002 414.94 117.828 415.885 118.934C416.83 120.039 417.455 121.382 417.692 122.817L421.268 144.269C416.715 142.204 411.921 140.213 406.886 138.295C393.47 133.272 379.751 129.099 365.81 125.8L366.307 122.817C366.544 121.382 367.169 120.039 368.114 118.934C369.059 117.828 370.289 117.002 371.669 116.544L386.53 111.59ZM384 84.223V80C384.003 77.8791 384.846 75.8458 386.346 74.3461C387.846 72.8464 389.879 72.0026 392 72H400V84.223C399.998 85.4649 399.709 86.6896 399.155 87.801L392.845 100.423C392.291 101.53 392.002 102.75 392 103.988C391.998 102.75 391.709 101.53 391.155 100.423L384.845 87.799C384.291 86.6884 384.001 85.4643 384 84.223ZM439.012 153.409L433.475 120.187C432.764 115.882 430.889 111.853 428.055 108.536C425.22 105.218 421.533 102.738 417.392 101.364L411.28 99.327L413.466 94.957C415.128 91.6226 415.995 87.9486 416 84.223V64C416 61.8783 415.157 59.8434 413.657 58.3431C412.157 56.8429 410.122 56 408 56H392C385.637 56.0071 379.537 58.538 375.037 63.0373C370.538 67.5367 368.007 73.637 368 80V84.223C368.005 87.948 368.872 91.6214 370.534 94.955L372.72 99.327L366.608 101.364C362.467 102.738 358.779 105.218 355.945 108.536C353.11 111.853 351.236 115.882 350.524 120.187L350.164 122.353C342.953 120.901 335.565 119.598 328 118.443V22.619C355.07 26.895 379.905 33.172 401.212 41.254C441.114 56.39 464 76.344 464 96V172.596C456.594 165.08 448.185 158.623 439.012 153.409Z" fill="black"/>
<path d="M406.886 26.295C362.183 9.338 302.915 0 240 0C177.085 0 117.817 9.338 73.114 26.295C25.966 44.179 0 68.934 0 96V432C0 434.122 0.842854 436.157 2.34315 437.657C3.84344 439.157 5.87827 440 8 440C10.1217 440 12.1566 439.157 13.6569 437.657C15.1571 436.157 16 434.122 16 432C16 414.007 34.752 396 68.802 381.296C102.897 366.572 149.225 356.723 200 353.326V440C200 442.122 200.843 444.157 202.343 445.657C203.843 447.157 205.878 448 208 448H272C274.122 448 276.157 447.157 277.657 445.657C279.157 444.157 280 442.122 280 440V353.326C330.775 356.723 377.103 366.572 411.198 381.296C445.248 396 464 414.006 464 432C464 434.122 464.843 436.157 466.343 437.657C467.843 439.157 469.878 440 472 440C474.122 440 476.157 439.157 477.657 437.657C479.157 436.157 480 434.122 480 432V96C480 68.934 454.034 44.179 406.886 26.295ZM312 20.356V116.251C303.71 115.243 295.271 114.41 286.684 113.752L281.892 94.582C280.923 90.6601 278.975 87.0481 276.23 84.0838C273.485 81.1195 270.034 78.8997 266.198 77.632L259.28 75.327L261.465 70.957C263.128 67.6228 263.995 63.9488 264 60.223V40C264 37.8783 263.157 35.8434 261.657 34.3431C260.157 32.8429 258.122 32 256 32H240C233.637 32.0071 227.537 34.538 223.037 39.0373C218.538 43.5367 216.007 49.637 216 56V60.223C216.005 63.948 216.872 67.6214 218.534 70.955L220.72 75.327L213.803 77.633C209.967 78.9001 206.516 81.1193 203.771 84.0831C201.026 87.0469 199.078 90.6585 198.109 94.58L193.316 113.752C184.736 114.405 176.297 115.238 168 116.25V20.356C215.824 14.5481 264.176 14.5481 312 20.356ZM312 134.59L282.945 214.49L264 209.754V201.889L268.62 192.646C270.837 188.201 271.994 183.302 272 178.334V144C272 141.878 271.157 139.843 269.657 138.343C268.157 136.843 266.122 136 264 136H240C231.516 136.01 223.382 139.384 217.383 145.383C211.384 151.382 208.01 159.516 208 168V178.334C208.006 183.301 209.162 188.199 211.379 192.644L216 201.89V209.755L190.06 216.24C188.697 216.581 187.448 217.274 186.438 218.251C185.429 219.227 184.694 220.452 184.308 221.803L168 278.878V132.356C215.824 126.548 264.176 126.548 312 132.356V134.59ZM232 328V401.376C226.824 399.541 221.176 399.541 216 401.376V304H264V401.376C258.824 399.541 253.176 399.541 248 401.376V328H232ZM265.583 288H214.417L201.5 229.871L221.545 224.86L223.029 226.344C227.534 230.838 233.637 233.362 240 233.362C246.363 233.362 252.466 230.838 256.971 226.344L258.455 224.86L278.5 229.87L265.583 288ZM256 178.334C255.997 180.818 255.418 183.267 254.31 185.49L248.845 196.423C248.289 197.533 248 198.758 248 200V212.686L245.656 215.029C244.913 215.772 244.032 216.361 243.061 216.763C242.091 217.166 241.05 217.373 240 217.373C238.95 217.373 237.909 217.166 236.939 216.763C235.968 216.361 235.087 215.772 234.344 215.029L232 212.686V200C232 198.758 231.711 197.533 231.155 196.423L225.688 185.488C224.58 183.266 224.003 180.817 224 178.334V168C224.005 163.758 225.692 159.691 228.692 156.692C231.691 153.692 235.758 152.005 240 152H256V178.334ZM234.53 87.59C236.122 87.0589 237.506 86.0409 238.488 84.68C239.469 83.319 239.998 81.684 240 80.006C240.002 81.684 240.531 83.319 241.512 84.68C242.494 86.0409 243.878 87.0589 245.47 87.59L261.139 92.813C262.417 93.2354 263.567 93.975 264.482 94.9628C265.397 95.9505 266.046 97.1541 266.369 98.461L269.933 112.716C260.078 112.243 250.101 112.004 240 112C229.913 112 219.936 112.239 210.067 112.716L213.632 98.46C213.955 97.1532 214.604 95.9497 215.519 94.9621C216.433 93.9744 217.584 93.235 218.862 92.813L234.53 87.59ZM232 60.223V56C232.003 53.8791 232.846 51.8458 234.346 50.3461C235.846 48.8464 237.879 48.0026 240 48H248V60.223C247.998 61.4649 247.709 62.6895 247.155 63.801L240.845 76.423C240.29 77.5313 240.001 78.7535 240 79.993C239.999 78.7535 239.71 77.5313 239.155 76.423L232.844 63.799C232.29 62.6881 232.002 61.4642 232 60.223ZM16 96C16 76.344 38.886 56.39 78.788 41.254C100.095 33.172 124.93 26.895 152 22.619V118.443C144.445 119.598 137.057 120.902 129.836 122.353L129.475 120.187C128.764 115.882 126.889 111.853 124.055 108.536C121.22 105.218 117.533 102.738 113.392 101.364L107.28 99.327L109.466 94.957C111.128 91.6226 111.995 87.9486 112 84.223V64C112 61.8783 111.157 59.8434 109.657 58.3431C108.157 56.8429 106.122 56 104 56H88C81.637 56.0071 75.5367 58.538 71.0373 63.0373C66.538 67.5367 64.0071 73.637 64 80V84.223C64.0045 87.948 64.8719 91.6214 66.534 94.955L68.72 99.327L62.608 101.364C58.4666 102.738 54.7794 105.218 51.9448 108.536C49.1101 111.853 47.2357 115.882 46.524 120.187L40.988 153.409C31.815 158.624 23.4062 165.08 16 172.596V96ZM82.53 111.59C84.1208 111.059 85.5046 110.042 86.4861 108.682C87.4676 107.323 87.9972 105.689 88 104.012C88.0028 105.689 88.5324 107.323 89.5139 108.682C90.4954 110.042 91.8792 111.059 93.47 111.59L108.331 116.544C109.711 117.002 110.94 117.828 111.885 118.934C112.83 120.039 113.455 121.382 113.692 122.817L114.189 125.8C100.249 129.099 86.5298 133.272 73.114 138.295C68.0707 140.208 63.2767 142.2 58.732 144.269L62.307 122.817C62.5444 121.382 63.1694 120.039 64.1144 118.934C65.0594 117.828 66.2885 117.002 67.669 116.544L82.53 111.59ZM80 84.223V80C80.0026 77.8791 80.8464 75.8458 82.3461 74.3461C83.8458 72.8464 85.8791 72.0026 88 72H96V84.223C95.9984 85.4649 95.7092 86.6896 95.155 87.801L88.845 100.423C88.2911 101.53 88.0018 102.75 88 103.988C87.9982 102.75 87.7089 101.53 87.155 100.423L80.845 87.799C80.2906 86.6884 80.0014 85.4643 80 84.223ZM16 208C16 188.344 38.886 168.39 78.788 153.254C100.095 145.172 124.93 138.895 152 134.619V230.459C144.415 231.619 137.027 232.92 129.837 234.363L129.475 232.187C128.764 227.882 126.889 223.853 124.055 220.536C121.22 217.218 117.533 214.738 113.392 213.364L107.28 211.327L109.466 206.957C111.128 203.623 111.995 199.949 112 196.223V176C112 173.878 111.157 171.843 109.657 170.343C108.157 168.843 106.122 168 104 168H88C81.637 168.007 75.5367 170.538 71.0373 175.037C66.538 179.537 64.0071 185.637 64 192V196.223C64.0045 199.948 64.8719 203.621 66.534 206.955L68.72 211.327L62.608 213.364C58.4666 214.738 54.7794 217.218 51.9448 220.536C49.1101 223.853 47.2357 227.882 46.524 232.187L40.992 265.384C31.818 270.585 23.4076 277.031 16 284.537V208ZM82.53 223.59C84.1208 223.059 85.5046 222.042 86.4861 220.682C87.4676 219.323 87.9972 217.689 88 216.012C88.0028 217.689 88.5324 219.323 89.5139 220.682C90.4954 222.042 91.8792 223.059 93.47 223.59L108.331 228.544C109.711 229.002 110.94 229.828 111.885 230.934C112.83 232.039 113.455 233.382 113.692 234.817L114.19 237.804C93.414 242.784 74.737 248.991 58.735 256.252L62.307 234.817C62.5444 233.382 63.1694 232.039 64.1144 230.934C65.0594 229.828 66.2885 229.002 67.669 228.544L82.53 223.59ZM80 196.223V192C80.0026 189.879 80.8464 187.846 82.3461 186.346C83.8458 184.846 85.8791 184.003 88 184H96V196.223C95.9984 197.465 95.7092 198.69 95.155 199.801L88.845 212.423C88.2911 213.53 88.0018 214.75 88 215.988C87.9982 214.75 87.7089 213.53 87.155 212.423L80.845 199.799C80.2906 198.688 80.0014 197.464 80 196.223ZM16 396.397V320C16 289.073 71.462 259.413 152 246.654V342.468C144.44 343.627 137.054 344.933 129.842 346.388L129.475 344.187C128.764 339.882 126.889 335.853 124.055 332.536C121.22 329.218 117.533 326.738 113.392 325.364L107.28 323.327L109.466 318.957C111.128 315.623 111.995 311.949 112 308.223V288C112 285.878 111.157 283.843 109.657 282.343C108.157 280.843 106.122 280 104 280H88C81.637 280.007 75.5367 282.538 71.0373 287.037C66.538 291.537 64.0071 297.637 64 304V308.223C64.0045 311.948 64.8719 315.621 66.534 318.955L68.72 323.327L62.608 325.364C58.4666 326.738 54.7794 329.218 51.9448 332.536C49.1101 335.853 47.2357 339.882 46.524 344.187L40.997 377.352C30.803 383.304 22.443 389.674 16 396.397ZM96 296V308.223C95.9984 309.465 95.7092 310.69 95.155 311.801L88.845 324.423C88.2911 325.53 88.0018 326.75 88 327.988C87.9982 326.75 87.7089 325.53 87.155 324.423L80.845 311.799C80.2906 310.688 80.0014 309.464 80 308.223V304C80.0026 301.879 80.8464 299.846 82.3461 298.346C83.8458 296.846 85.8791 296.003 88 296H96ZM62.458 366.607C61.198 367.151 59.957 367.7 58.735 368.253L62.307 346.817C62.5444 345.382 63.1694 344.039 64.1144 342.934C65.0594 341.828 66.2885 341.002 67.669 340.544L82.53 335.59C84.1208 335.059 85.5046 334.042 86.4861 332.682C87.4676 331.323 87.9972 329.689 88 328.012C88.0028 329.689 88.5324 331.323 89.5139 332.682C90.4954 334.042 91.8792 335.059 93.47 335.59L108.331 340.544C109.711 341.002 110.94 341.828 111.885 342.934C112.83 344.039 113.455 345.382 113.692 346.817L114.194 349.83C96.5034 353.942 79.1954 359.555 62.458 366.607ZM168 340.272V337.122L191.03 256.515L200 296.878V337.292C189.307 337.984 178.637 338.978 168 340.272ZM216 424C216 421.878 216.843 419.843 218.343 418.343C219.843 416.843 221.878 416 224 416C226.122 416 228.157 416.843 229.657 418.343C231.157 419.843 232 421.878 232 424V432H216V424ZM248 424C248 421.878 248.843 419.843 250.343 418.343C251.843 416.843 253.878 416 256 416C258.122 416 260.157 416.843 261.657 418.343C263.157 419.843 264 421.878 264 424V432H248V424ZM280 296.878L295.696 226.246L312 181.41V340.272C301.363 338.978 290.693 337.984 280 337.292V296.878ZM365.805 349.83L366.307 346.817C366.544 345.382 367.169 344.039 368.114 342.934C369.059 341.828 370.289 341.002 371.669 340.544L386.53 335.59C388.121 335.059 389.505 334.042 390.486 332.682C391.468 331.323 391.997 329.689 392 328.012C392.003 329.689 392.532 331.323 393.514 332.682C394.495 334.042 395.879 335.059 397.47 335.59L412.331 340.544C413.711 341.002 414.94 341.828 415.885 342.934C416.83 344.039 417.455 345.382 417.692 346.817L421.265 368.253C420.042 367.7 418.801 367.151 417.542 366.607C400.804 359.555 383.496 353.942 365.805 349.83ZM384 308.223V304C384.003 301.879 384.846 299.846 386.346 298.346C387.846 296.846 389.879 296.003 392 296H400V308.223C399.998 309.465 399.709 310.69 399.155 311.801L392.845 324.423C392.291 325.53 392.002 326.75 392 327.988C391.998 326.75 391.709 325.53 391.155 324.423L384.845 311.799C384.291 310.688 384.001 309.464 384 308.223ZM464 396.397C457.557 389.674 449.197 383.304 439.003 377.352L433.475 344.187C432.764 339.882 430.889 335.853 428.055 332.536C425.22 329.218 421.533 326.738 417.392 325.364L411.28 323.327L413.466 318.957C415.128 315.623 415.995 311.949 416 308.223V288C416 285.878 415.157 283.843 413.657 282.343C412.157 280.843 410.122 280 408 280H392C385.637 280.007 379.537 282.538 375.037 287.037C370.538 291.537 368.007 297.637 368 304V308.223C368.005 311.948 368.872 315.621 370.534 318.955L372.72 323.327L366.608 325.364C362.467 326.738 358.779 329.218 355.945 332.536C353.11 335.853 351.236 339.882 350.524 344.187L350.157 346.388C342.952 344.939 335.566 343.632 328 342.468V246.654C408.538 259.413 464 289.073 464 320V396.397ZM386.53 223.59C388.121 223.059 389.505 222.042 390.486 220.682C391.468 219.323 391.997 217.689 392 216.012C392.003 217.689 392.532 219.323 393.514 220.682C394.495 222.042 395.879 223.059 397.47 223.59L412.331 228.544C413.711 229.002 414.94 229.828 415.885 230.934C416.83 232.039 417.455 233.382 417.692 234.817L421.265 256.252C405.263 248.991 386.585 242.785 365.809 237.803L366.307 234.817C366.544 233.382 367.169 232.039 368.114 230.934C369.059 229.828 370.289 229.002 371.669 228.544L386.53 223.59ZM384 196.223V192C384.003 189.879 384.846 187.846 386.346 186.346C387.846 184.846 389.879 184.003 392 184H400V196.223C399.998 197.465 399.709 198.69 399.155 199.801L392.845 212.423C392.291 213.53 392.002 214.75 392 215.988C391.998 214.75 391.709 213.53 391.155 212.423L384.845 199.799C384.291 198.688 384.001 197.464 384 196.223ZM464 284.537C456.592 277.031 448.182 270.585 439.008 265.384L433.475 232.187C432.764 227.882 430.889 223.853 428.055 220.536C425.22 217.218 421.533 214.738 417.392 213.364L411.28 211.327L413.466 206.957C415.128 203.623 415.995 199.949 416 196.223V176C416 173.878 415.157 171.843 413.657 170.343C412.157 168.843 410.122 168 408 168H392C385.637 168.007 379.537 170.538 375.037 175.037C370.538 179.537 368.007 185.637 368 192V196.223C368.005 199.948 368.872 203.621 370.534 206.955L372.72 211.327L366.608 213.364C362.467 214.738 358.779 217.218 355.945 220.536C353.11 223.853 351.236 227.882 350.524 232.187L350.162 234.363C342.981 232.922 335.594 231.62 328 230.459V134.619C355.07 138.895 379.905 145.172 401.212 153.254C441.114 168.39 464 188.344 464 208V284.537ZM386.53 111.59C388.121 111.059 389.505 110.042 390.486 108.682C391.468 107.323 391.997 105.689 392 104.012C392.003 105.689 392.532 107.323 393.514 108.682C394.495 110.042 395.879 111.059 397.47 111.59L412.331 116.544C413.711 117.002 414.94 117.828 415.885 118.934C416.83 120.039 417.455 121.382 417.692 122.817L421.268 144.269C416.715 142.204 411.921 140.213 406.886 138.295C393.47 133.272 379.751 129.099 365.81 125.8L366.307 122.817C366.544 121.382 367.169 120.039 368.114 118.934C369.059 117.828 370.289 117.002 371.669 116.544L386.53 111.59ZM384 84.223V80C384.003 77.8791 384.846 75.8458 386.346 74.3461C387.846 72.8464 389.879 72.0026 392 72H400V84.223C399.998 85.4649 399.709 86.6896 399.155 87.801L392.845 100.423C392.291 101.53 392.002 102.75 392 103.988C391.998 102.75 391.709 101.53 391.155 100.423L384.845 87.799C384.291 86.6884 384.001 85.4643 384 84.223ZM439.012 153.409L433.475 120.187C432.764 115.882 430.889 111.853 428.055 108.536C425.22 105.218 421.533 102.738 417.392 101.364L411.28 99.327L413.466 94.957C415.128 91.6226 415.995 87.9486 416 84.223V64C416 61.8783 415.157 59.8434 413.657 58.3431C412.157 56.8429 410.122 56 408 56H392C385.637 56.0071 379.537 58.538 375.037 63.0373C370.538 67.5367 368.007 73.637 368 80V84.223C368.005 87.948 368.872 91.6214 370.534 94.955L372.72 99.327L366.608 101.364C362.467 102.738 358.779 105.218 355.945 108.536C353.11 111.853 351.236 115.882 350.524 120.187L350.164 122.353C342.953 120.901 335.565 119.598 328 118.443V22.619C355.07 26.895 379.905 33.172 401.212 41.254C441.114 56.39 464 76.344 464 96V172.596C456.594 165.08 448.185 158.623 439.012 153.409Z" fill="url(#paint0_linear_750_92)"/>
<path d="M298.297 391.844L293.703 407.17C314.537 413.415 328 423.162 328 432C328 447.105 290.366 464 240 464C189.634 464 152 447.105 152 432C152 423.161 165.463 413.415 186.297 407.17L181.703 391.844C152.658 400.55 136 415.187 136 432V480H152V458.304C170.107 471.554 202.07 480 240 480C277.93 480 309.893 471.554 328 458.304V480H344V432C344 415.187 327.342 400.55 298.297 391.844Z" fill="black"/>
<path d="M298.297 391.844L293.703 407.17C314.537 413.415 328 423.162 328 432C328 447.105 290.366 464 240 464C189.634 464 152 447.105 152 432C152 423.161 165.463 413.415 186.297 407.17L181.703 391.844C152.658 400.55 136 415.187 136 432V480H152V458.304C170.107 471.554 202.07 480 240 480C277.93 480 309.893 471.554 328 458.304V480H344V432C344 415.187 327.342 400.55 298.297 391.844Z" fill="url(#paint1_linear_750_92)"/>
<defs>
<linearGradient id="paint0_linear_750_92" x1="17.1263" y1="28.8751" x2="438.863" y2="547.456" gradientUnits="userSpaceOnUse">
<stop stop-color="#1BA2D7"/>
<stop offset="1" stop-color="#8D3DFA"/>
</linearGradient>
<linearGradient id="paint1_linear_750_92" x1="143.421" y1="397.526" x2="198.516" y2="546.714" gradientUnits="userSpaceOnUse">
<stop stop-color="#1BA2D7"/>
<stop offset="1" stop-color="#8D3DFA"/>
</linearGradient>
</defs>
</svg>
