<svg width="512" height="509" viewBox="0 0 512 509" fill="none" xmlns="http://www.w3.org/2000/svg">
<path d="M426.488 36.1198C425.288 35.7269 424.012 35.6243 422.764 35.8204C421.517 36.0165 420.334 36.5057 419.312 37.2478C418.286 37.9865 417.451 38.9587 416.875 40.084C416.299 41.2094 415.999 42.4556 416 43.7198V167.512C391.36 175.104 361.712 181.128 328 184.72V180.44C328 154.488 310.224 132.664 286.224 126.344C292.232 119.344 296 110.368 296 100.44C296 78.3838 278.056 60.4398 256 60.4398C233.944 60.4398 216 78.3838 216 100.44C216 110.368 219.768 119.344 225.776 126.344C201.776 132.664 184 154.488 184 180.44V184.72C150.288 181.128 120.64 175.104 96 167.512V43.7198C95.9986 42.457 95.6986 41.2125 95.1245 40.0878C94.5503 38.9631 93.7184 37.9901 92.6965 37.2483C91.6746 36.5064 90.4918 36.0168 89.2446 35.8193C87.9973 35.6218 86.7211 35.722 85.52 36.1118C30.368 54.1598 0 79.8398 0 108.44V412.44C0 466.272 112.448 508.44 256 508.44C399.552 508.44 512 466.272 512 412.44V108.44C512 79.8398 481.632 54.1598 426.488 36.1198ZM432 54.9678C472.296 69.8798 496 89.5118 496 108.44C496 127.368 472.296 146.992 432 161.912V54.9678ZM256 76.4398C269.232 76.4398 280 87.2078 280 100.44C280 113.672 269.232 124.44 256 124.44C242.768 124.44 232 113.672 232 100.44C232 87.2078 242.768 76.4398 256 76.4398ZM200 180.44C200 158.384 217.944 140.44 240 140.44H272C294.056 140.44 312 158.384 312 180.44V186.216C294.28 187.648 275.6 188.44 256 188.44C236.4 188.44 217.72 187.648 200 186.216V180.44ZM80 54.9678V161.904C39.704 146.992 16 127.36 16 108.44C16 89.5198 39.704 69.8878 80 54.9678ZM256 492.44C112.44 492.44 16 451.072 16 412.44V142.864C30.256 157.424 53.744 170.368 85.512 180.76C85.84 180.864 86.184 180.856 86.52 180.92C131.368 195.616 190.416 204.44 256 204.44C321.584 204.44 380.632 195.616 425.48 180.92C425.816 180.856 426.16 180.864 426.488 180.76C458.256 170.368 481.752 157.432 496 142.864V412.44C496 451.072 399.56 492.44 256 492.44Z" fill="url(#paint0_linear_749_16)"/>
<path d="M170.344 58.096L181.656 46.784L169.064 34.192C196.712 30.448 225.816 28.44 256 28.44C286.184 28.44 315.288 30.448 342.936 34.192L330.344 46.784L341.656 58.096L365.656 34.096C366.964 32.7882 367.779 31.0675 367.961 29.2268C368.143 27.386 367.682 25.539 366.656 24L350.656 0L337.344 8.872L343.496 18.112C315.616 14.416 286.32 12.44 256 12.44C225.68 12.44 196.384 14.416 168.504 18.112L174.656 8.872L161.344 0L145.344 24C144.318 25.539 143.857 27.386 144.039 29.2268C144.221 31.0675 145.036 32.7882 146.344 34.096L170.344 58.096ZM310.856 272.32C307.968 267.504 300.024 267.504 297.136 272.32L241.256 365.48L206.968 304.52C204.136 299.488 195.856 299.488 193.032 304.52L121.032 432.52C120.348 433.737 119.994 435.112 120.006 436.508C120.018 437.904 120.395 439.272 121.099 440.477C121.804 441.683 122.811 442.682 124.022 443.378C125.233 444.073 126.604 444.439 128 444.44H400C401.416 444.44 402.806 444.064 404.03 443.35C405.253 442.637 406.264 441.611 406.962 440.379C407.659 439.146 408.016 437.751 407.998 436.335C407.979 434.919 407.585 433.534 406.856 432.32L310.856 272.32ZM141.68 428.44L200 324.76L258.32 428.44H141.68ZM276.672 428.44L250.288 381.536L304 291.984L385.864 428.44H276.672ZM168 276.44C168 254.384 150.056 236.44 128 236.44C105.944 236.44 88 254.384 88 276.44C88 298.496 105.944 316.44 128 316.44C150.056 316.44 168 298.496 168 276.44ZM104 276.44C104 263.208 114.768 252.44 128 252.44C141.232 252.44 152 263.208 152 276.44C152 289.672 141.232 300.44 128 300.44C114.768 300.44 104 289.672 104 276.44Z" fill="url(#paint1_linear_749_16)"/>
<defs>
<linearGradient id="paint0_linear_749_16" x1="18.2681" y1="66.189" x2="462.268" y2="618.091" gradientUnits="userSpaceOnUse">
<stop stop-color="#1BA2D7"/>
<stop offset="1" stop-color="#8D3DFA"/>
</linearGradient>
<linearGradient id="paint1_linear_749_16" x1="99.4175" y1="28.6456" x2="519.113" y2="375.447" gradientUnits="userSpaceOnUse">
<stop stop-color="#1BA2D7"/>
<stop offset="1" stop-color="#8D3DFA"/>
</linearGradient>
</defs>
</svg>
