<svg width="480" height="480" viewBox="0 0 480 480" fill="none" xmlns="http://www.w3.org/2000/svg">
<path d="M6.10352e-05 240C0.0167358 254.847 5.92207 269.081 16.4205 279.58C26.9189 290.078 41.1531 295.983 56.0001 296H232C233.679 296 235.316 295.472 236.678 294.49C238.04 293.508 239.059 292.123 239.59 290.53C240.12 288.937 240.137 287.217 239.636 285.615C239.136 284.012 238.143 282.607 236.8 281.6L224 272C219.043 268.264 215.019 263.43 212.243 257.879C209.467 252.327 208.015 246.207 208 240C207.983 225.153 202.078 210.919 191.58 200.42C181.081 189.922 166.847 184.017 152 184H56.0001C41.1531 184.017 26.9189 189.922 16.4205 200.42C5.92207 210.919 0.0167358 225.153 6.10352e-05 240ZM56.0001 200H152C162.605 200.012 172.772 204.23 180.271 211.729C187.77 219.228 191.988 229.395 192 240C192.019 247.448 193.515 254.819 196.402 261.685C199.289 268.551 203.509 274.776 208.818 280H56.0001C45.3914 280 35.2172 275.786 27.7158 268.284C20.2143 260.783 16.0001 250.609 16.0001 240C16.0001 229.391 20.2143 219.217 27.7158 211.716C35.2172 204.214 45.3914 200 56.0001 200ZM448 256C447.976 234.79 439.54 214.456 424.542 199.458C409.544 184.46 389.21 176.024 368 176H336C314.79 176.024 294.456 184.46 279.458 199.458C264.46 214.456 256.024 234.79 256 256C256.017 270.847 261.922 285.081 272.421 295.58C282.919 306.078 297.153 311.983 312 312H392C406.847 311.983 421.081 306.078 431.58 295.58C442.078 285.081 447.983 270.847 448 256ZM392 296H312C301.395 295.988 291.228 291.77 283.729 284.271C276.23 276.772 272.012 266.605 272 256C272.019 239.032 278.768 222.764 290.766 210.766C302.764 198.768 319.032 192.019 336 192H368C384.968 192.019 401.236 198.768 413.234 210.766C425.232 222.764 431.981 239.032 432 256C431.988 266.605 427.77 276.772 420.271 284.271C412.772 291.77 402.605 295.988 392 296Z" fill="url(#paint0_linear_1107_1340)"/>
<path d="M384 216H320C311.513 216 303.374 219.371 297.373 225.373C291.371 231.374 288 239.513 288 248C288 256.487 291.371 264.626 297.373 270.627C303.374 276.629 311.513 280 320 280H384C392.487 280 400.626 276.629 406.627 270.627C412.629 264.626 416 256.487 416 248C416 239.513 412.629 231.374 406.627 225.373C400.626 219.371 392.487 216 384 216ZM384 264H320C315.757 264 311.687 262.314 308.686 259.314C305.686 256.313 304 252.243 304 248C304 243.757 305.686 239.687 308.686 236.686C311.687 233.686 315.757 232 320 232H384C388.243 232 392.313 233.686 395.314 236.686C398.314 239.687 400 243.757 400 248C400 252.243 398.314 256.313 395.314 259.314C392.313 262.314 388.243 264 384 264ZM388.015 328H315.985C310.338 328 304.754 329.196 299.602 331.509C294.45 333.822 289.847 337.199 286.094 341.42C282.341 345.64 279.525 350.607 277.829 355.994C276.134 361.381 275.599 367.065 276.259 372.674L286.392 458.804C287.08 464.643 289.887 470.026 294.28 473.933C298.674 477.84 304.349 479.999 310.228 480H393.772C399.652 479.999 405.327 477.84 409.721 473.932C414.114 470.024 416.921 464.64 417.608 458.8L427.741 372.67C428.4 367.062 427.865 361.377 426.169 355.991C424.474 350.604 421.657 345.638 417.904 341.418C414.152 337.199 409.548 333.821 404.397 331.509C399.245 329.196 393.662 328 388.015 328ZM411.85 370.805L401.717 456.935C401.488 458.881 400.552 460.676 399.088 461.978C397.623 463.281 395.732 464 393.772 464H310.228C308.268 464 306.377 463.281 304.912 461.978C303.448 460.676 302.512 458.881 302.283 456.935L292.15 370.805C291.754 367.44 292.075 364.029 293.092 360.797C294.109 357.564 295.799 354.584 298.05 352.052C300.302 349.52 303.064 347.493 306.155 346.105C309.247 344.718 312.597 344 315.985 344H388.015C391.403 344 394.753 344.718 397.845 346.105C400.936 347.493 403.698 349.52 405.95 352.052C408.201 354.584 409.891 357.564 410.908 360.797C411.925 364.029 412.246 367.44 411.85 370.805ZM224 368V398.5C224.001 405.439 224.822 412.354 226.445 419.1L238.1 467.516C238.154 467.737 238.216 467.956 238.289 468.173C239.589 472.069 242.232 475.376 245.747 477.502C249.262 479.627 253.418 480.433 257.472 479.775C261.527 479.117 265.215 477.037 267.876 473.909C270.538 470.781 272 466.807 272 462.7V368C272 361.635 269.471 355.53 264.971 351.029C260.47 346.529 254.365 344 248 344C241.635 344 235.53 346.529 231.029 351.029C226.529 355.53 224 361.635 224 368ZM256 368V462.7C255.998 462.991 255.899 463.274 255.717 463.501C255.536 463.729 255.283 463.89 255 463.957C254.717 464.024 254.419 463.994 254.154 463.872C253.89 463.75 253.674 463.542 253.542 463.283L242 415.359C240.672 409.839 240 404.181 240 398.503V368C240 365.878 240.843 363.843 242.343 362.343C243.843 360.843 245.878 360 248 360C250.122 360 252.157 360.843 253.657 362.343C255.157 363.843 256 365.878 256 368ZM456 344C449.637 344.007 443.537 346.538 439.037 351.037C434.538 355.537 432.007 361.637 432 368V462.7C432.003 466.806 433.466 470.776 436.128 473.903C438.789 477.029 442.476 479.106 446.528 479.764C450.581 480.422 454.736 479.617 458.249 477.493C461.763 475.369 464.407 472.065 465.708 468.171C465.781 467.954 465.843 467.735 465.897 467.514L477.555 419.103C479.178 412.356 479.999 405.44 480 398.5V368C479.993 361.637 477.462 355.537 472.963 351.037C468.463 346.538 462.363 344.007 456 344ZM464 398.5C464 404.178 463.328 409.836 462 415.356L450.459 463.282C450.327 463.542 450.111 463.75 449.847 463.873C449.582 463.995 449.284 464.025 449.001 463.958C448.717 463.891 448.464 463.731 448.282 463.502C448.101 463.274 448.002 462.992 448 462.7V368C448 365.878 448.843 363.843 450.343 362.343C451.843 360.843 453.878 360 456 360C458.122 360 460.157 360.843 461.657 362.343C463.157 363.843 464 365.878 464 368V398.5Z" fill="url(#paint1_linear_1107_1340)"/>
<path d="M320 256C324.418 256 328 252.418 328 248C328 243.582 324.418 240 320 240C315.582 240 312 243.582 312 248C312 252.418 315.582 256 320 256Z" fill="url(#paint2_linear_1107_1340)"/>
<path d="M384 256C388.418 256 392 252.418 392 248C392 243.582 388.418 240 384 240C379.582 240 376 243.582 376 248C376 252.418 379.582 256 384 256Z" fill="url(#paint3_linear_1107_1340)"/>
<path d="M80 0C64.1775 0 48.7103 4.69192 35.5544 13.4824C22.3985 22.2729 12.1447 34.7672 6.08967 49.3853C0.0346627 64.0034 -1.5496 80.0887 1.53721 95.6072C4.62403 111.126 12.2433 125.38 23.4315 136.569C34.6197 147.757 48.8743 155.376 64.3928 158.463C79.9113 161.55 95.9966 159.965 110.615 153.91C125.233 147.855 137.727 137.602 146.518 124.446C155.308 111.29 160 95.8225 160 80C159.976 58.7901 151.54 38.4557 136.542 23.4581C121.544 8.46037 101.21 0.0240852 80 0ZM56 139.313V120C56 113.635 58.5286 107.53 63.0295 103.029C67.5303 98.5286 73.6348 96 80 96C86.3652 96 92.4697 98.5286 96.9706 103.029C101.471 107.53 104 113.635 104 120V139.313C88.6103 145.562 71.3898 145.562 56 139.313ZM64 64C64 60.8355 64.9384 57.7421 66.6965 55.1109C68.4546 52.4797 70.9535 50.4289 73.8771 49.2179C76.8007 48.0069 80.0178 47.6901 83.1215 48.3074C86.2252 48.9248 89.0761 50.4487 91.3137 52.6863C93.5514 54.9239 95.0752 57.7749 95.6926 60.8786C96.31 63.9823 95.9931 67.1993 94.7821 70.1229C93.5711 73.0466 91.5203 75.5454 88.8892 77.3035C86.258 79.0616 83.1645 80 80 80C75.7581 79.995 71.6914 78.3076 68.6919 75.3082C65.6924 72.3087 64.0051 68.2419 64 64ZM120 129.907V120C119.998 113.454 118.389 107.009 115.315 101.229C112.241 95.4503 107.795 90.5141 102.368 86.854C106.916 82.4083 110.037 76.7081 111.331 70.4811C112.625 64.2541 112.034 57.7827 109.634 51.893C107.233 46.0032 103.132 40.9624 97.854 37.4139C92.5759 33.8653 86.3601 31.9701 80 31.9701C73.64 31.9701 67.4241 33.8653 62.146 37.4139C56.8679 40.9624 52.7669 46.0032 50.3666 51.893C47.9662 57.7827 47.3754 64.2541 48.6694 70.4811C49.9635 76.7081 53.0838 82.4083 57.632 86.854C52.2049 90.5141 47.7592 95.4503 44.6849 101.229C41.6107 107.009 40.002 113.454 40 120V129.907C29.6492 121.62 22.128 110.322 18.4757 97.5753C14.8234 84.8286 15.2205 71.2621 19.612 58.7508C24.0034 46.2394 32.1725 35.401 42.9903 27.7332C53.8081 20.0655 66.7404 15.947 80 15.947C93.2597 15.947 106.192 20.0655 117.01 27.7332C127.828 35.401 135.997 46.2394 140.388 58.7508C144.78 71.2621 145.177 84.8286 141.524 97.5753C137.872 110.322 130.351 121.62 120 129.907ZM424 0H264C249.153 0.0166748 234.919 5.92201 224.42 16.4204C213.922 26.9189 208.017 41.153 208 56C207.985 62.2072 206.533 68.3266 203.757 73.8785C200.981 79.4304 196.957 84.2639 192 88L179.2 97.6C177.857 98.6074 176.865 100.012 176.364 101.615C175.863 103.217 175.88 104.937 176.411 106.53C176.942 108.123 177.96 109.508 179.322 110.49C180.684 111.472 182.321 112 184 112H424C438.852 112 453.096 106.1 463.598 95.598C474.1 85.0959 480 70.8521 480 56C480 41.1479 474.1 26.9041 463.598 16.402C453.096 5.89998 438.852 0 424 0ZM424 96H207.183C212.492 90.776 216.712 84.5507 219.599 77.6847C222.485 70.8186 223.981 63.4482 224 56C224.012 45.395 228.23 35.2278 235.729 27.7289C243.228 20.23 253.395 16.0119 264 16H424C434.609 16 444.783 20.2143 452.284 27.7157C459.786 35.2172 464 45.3913 464 56C464 66.6087 459.786 76.7828 452.284 84.2843C444.783 91.7857 434.609 96 424 96Z" fill="url(#paint4_linear_1107_1340)"/>
<defs>
<linearGradient id="paint0_linear_1107_1340" x1="15.9846" y1="184.766" x2="80.6428" y2="429.207" gradientUnits="userSpaceOnUse">
<stop stop-color="#1BA2D7"/>
<stop offset="1" stop-color="#8D3DFA"/>
</linearGradient>
<linearGradient id="paint1_linear_1107_1340" x1="233.134" y1="233.016" x2="485.541" y2="513.914" gradientUnits="userSpaceOnUse">
<stop stop-color="#1BA2D7"/>
<stop offset="1" stop-color="#8D3DFA"/>
</linearGradient>
<linearGradient id="paint2_linear_1107_1340" x1="312.571" y1="241.031" x2="327.811" y2="258.522" gradientUnits="userSpaceOnUse">
<stop stop-color="#1BA2D7"/>
<stop offset="1" stop-color="#8D3DFA"/>
</linearGradient>
<linearGradient id="paint3_linear_1107_1340" x1="376.571" y1="241.031" x2="391.811" y2="258.522" gradientUnits="userSpaceOnUse">
<stop stop-color="#1BA2D7"/>
<stop offset="1" stop-color="#8D3DFA"/>
</linearGradient>
<linearGradient id="paint4_linear_1107_1340" x1="17.1263" y1="10.3125" x2="99.544" y2="294.074" gradientUnits="userSpaceOnUse">
<stop stop-color="#1BA2D7"/>
<stop offset="1" stop-color="#8D3DFA"/>
</linearGradient>
</defs>
</svg>
