<svg width="512" height="482" viewBox="0 0 512 482" fill="none" xmlns="http://www.w3.org/2000/svg">
<path d="M481.748 0H30.245C13.568 0 0 13.568 0 30.246V361.021C0 377.699 13.568 391.267 30.245 391.267H203.215V413.15H164.211C145.423 413.15 130.138 428.448 130.138 447.251V474.35C130.138 476.207 130.876 477.988 132.189 479.3C133.501 480.613 135.282 481.351 137.139 481.351H374.853C376.71 481.351 378.491 480.613 379.804 479.301C381.117 477.988 381.855 476.207 381.855 474.35V447.251C381.855 428.448 366.557 413.15 347.753 413.15H308.749V391.267H396.126L430.834 451.369C435.149 458.865 442.158 464.238 450.566 466.496C453.351 467.248 456.222 467.63 459.106 467.632C464.773 467.631 470.34 466.133 475.243 463.291C490.755 454.324 496.101 434.397 487.157 418.862L471.221 391.267H481.745C498.423 391.267 511.991 377.699 511.991 361.021V30.246C511.994 13.568 498.426 0 481.748 0ZM347.754 427.153C358.836 427.153 367.852 436.169 367.852 447.251V467.349H144.142V447.251C144.142 436.169 153.145 427.153 164.212 427.153H308.751H347.754ZM294.746 413.15H217.219V391.267H294.746V413.15ZM430.863 321.377C430.403 320.581 429.791 319.883 429.062 319.323C428.332 318.763 427.5 318.353 426.612 318.115C425.724 317.877 424.797 317.816 423.886 317.936C422.974 318.057 422.095 318.355 421.299 318.815L420.047 319.538L410.951 303.791C426.319 289.737 437.404 271.573 442.93 250.95C450.567 222.453 446.644 192.662 431.886 167.064C417.144 141.496 393.305 123.202 364.76 115.552C336.224 107.906 306.433 111.83 280.874 126.596C255.306 141.337 237.013 165.177 229.363 193.722C221.717 222.256 225.639 252.049 240.406 277.608C255.148 303.176 278.987 321.47 307.532 329.12C316.925 331.646 326.608 332.929 336.335 332.936C347.508 332.936 358.592 331.213 369.271 327.837L378.361 343.603L377.21 344.268H46.998V46.999H464.994V344.269H444.082L430.863 321.377ZM390.488 336.603L382.478 322.709C385.526 321.299 388.509 319.752 391.419 318.075C394.327 316.397 397.157 314.589 399.903 312.657L407.922 326.539L390.488 336.603ZM384.418 305.947C362.095 318.845 336.076 322.271 311.157 315.593C286.227 308.913 265.409 292.939 252.534 270.608C239.637 248.284 236.211 222.266 242.888 197.346C249.569 172.416 265.542 151.598 287.873 138.723C302.742 130.132 319.248 125.744 335.978 125.744C344.473 125.751 352.93 126.871 361.133 129.077C386.063 135.757 406.881 151.731 419.753 174.056C432.644 196.416 436.071 222.436 429.402 247.323C422.724 272.254 406.75 293.073 384.418 305.947ZM468.241 451.165C463.986 453.62 458.998 454.262 454.202 452.973C449.408 451.685 445.419 448.634 442.967 444.374L390.173 352.955L422.237 334.444L435.854 358.024V358.272H435.998L475.028 425.857C480.122 434.704 477.076 446.058 468.241 451.165ZM497.99 361.021C497.99 369.977 490.704 377.264 481.748 377.264H463.137L452.169 358.271H471.996C473.853 358.271 475.634 357.533 476.947 356.221C478.26 354.908 478.998 353.127 478.998 351.27V39.997C478.998 39.0775 478.817 38.1671 478.465 37.3176C478.113 36.4681 477.597 35.6963 476.947 35.0462C476.297 34.3961 475.525 33.8804 474.675 33.5286C473.826 33.1769 472.915 32.9959 471.996 32.996H39.997C38.1402 32.996 36.3595 33.7336 35.0465 35.0465C33.7336 36.3595 32.996 38.1402 32.996 39.997V351.269C32.996 353.126 33.7336 354.907 35.0465 356.219C36.3595 357.532 38.1402 358.27 39.997 358.27H377.073L388.041 377.263H30.245C21.289 377.263 14.003 369.976 14.003 361.02V30.246C14.003 21.29 21.289 14.003 30.245 14.003H481.748C490.704 14.003 497.99 21.29 497.99 30.246V361.021ZM70.185 156.586H94.421V180.822C94.421 181.741 94.6021 182.652 94.9539 183.501C95.3058 184.351 95.8214 185.122 96.4715 185.772C97.1217 186.423 97.8934 186.938 98.7428 187.29C99.5922 187.642 100.503 187.823 101.422 187.823H147.882C149.739 187.823 151.52 187.085 152.832 185.772C154.145 184.46 154.883 182.679 154.883 180.822V156.586H179.119C180.976 156.586 182.757 155.848 184.07 154.536C185.383 153.223 186.121 151.442 186.121 149.585V103.097C186.121 102.178 185.94 101.267 185.588 100.418C185.236 99.5681 184.72 98.7963 184.07 98.1462C183.42 97.4961 182.648 96.9804 181.798 96.6286C180.949 96.2769 180.038 96.0959 179.119 96.096H154.883V71.887C154.883 70.0302 154.145 68.2495 152.832 66.9365C151.52 65.6236 149.739 64.886 147.882 64.886H101.422C100.503 64.886 99.5922 65.0671 98.7428 65.4189C97.8934 65.7708 97.1217 66.2864 96.4715 66.9365C95.8214 67.5866 95.3058 68.3584 94.9539 69.2078C94.6021 70.0572 94.421 70.9676 94.421 71.887V96.095H70.185C68.3282 96.095 66.5475 96.8326 65.2346 98.1455C63.9216 99.4585 63.184 101.239 63.184 103.096V149.584C63.184 151.441 63.9216 153.222 65.2345 154.535C66.5474 155.848 68.3281 156.586 70.185 156.586ZM77.187 110.098H101.423C103.28 110.098 105.061 109.36 106.373 108.047C107.686 106.735 108.424 104.954 108.424 103.097V78.889H140.881V103.097C140.881 104.954 141.619 106.735 142.932 108.047C144.244 109.36 146.025 110.098 147.882 110.098H172.118V142.583H147.882C146.025 142.583 144.244 143.321 142.932 144.634C141.619 145.946 140.881 147.727 140.881 149.584V173.82H108.424V149.584C108.424 147.727 107.686 145.946 106.373 144.634C105.061 143.321 103.28 142.583 101.423 142.583H77.187V110.098ZM367.096 225.071H400.394V239.074H361.644C360.086 239.074 358.572 238.554 357.342 237.597C356.113 236.639 355.238 235.299 354.856 233.788L346.673 201.408L335.506 271.471C335.261 273.019 334.503 274.44 333.353 275.507C332.204 276.573 330.731 277.222 329.168 277.351C327.606 277.48 326.046 277.081 324.737 276.218C323.429 275.355 322.448 274.077 321.952 272.59L306.924 227.652L303.544 234.999C302.985 236.215 302.088 237.246 300.961 237.968C299.834 238.69 298.523 239.074 297.184 239.074H259.795V225.071H292.697L301.594 205.732C302.182 204.458 303.138 203.389 304.34 202.665C305.542 201.94 306.933 201.593 308.334 201.667C309.735 201.743 311.082 202.239 312.198 203.09C313.314 203.94 314.149 205.107 314.594 206.438L326.172 241.06L338.203 165.576C338.457 163.984 339.252 162.528 340.454 161.454C341.657 160.381 343.193 159.755 344.804 159.683C346.416 159.606 348.004 160.089 349.299 161.052C350.594 162.015 351.516 163.396 351.906 164.962L367.096 225.071ZM190.998 218.381H63.184V204.378H190.998V218.381ZM190.998 252.114H63.184V238.111H190.998V252.114ZM190.998 285.874H63.184V271.871H190.998V285.874ZM63.184 305.632H246.501V319.635H63.184V305.632Z" fill="url(#paint0_linear_1107_1353)"/>
<defs>
<linearGradient id="paint0_linear_1107_1353" x1="18.2677" y1="31.0247" x2="472.062" y2="584.976" gradientUnits="userSpaceOnUse">
<stop stop-color="#1BA2D7"/>
<stop offset="1" stop-color="#8D3DFA"/>
</linearGradient>
</defs>
</svg>
