<svg width="498" height="467" viewBox="0 0 498 467" fill="none" xmlns="http://www.w3.org/2000/svg">
<path fill-rule="evenodd" clip-rule="evenodd" d="M188.26 239.228H8.03137C3.59906 239.228 0 235.629 0 231.197C0 226.765 3.59906 223.166 8.03137 223.166H199.671L210.073 208.526C210.815 207.48 211.796 206.627 212.935 206.039C214.074 205.451 215.338 205.144 216.62 205.144C217.902 205.144 219.165 205.451 220.304 206.039C221.443 206.627 222.425 207.48 223.167 208.526L233.567 223.166H489.914C494.346 223.166 497.945 226.765 497.945 231.197C497.945 235.629 494.346 239.228 489.914 239.228H306.026L363.72 316.26V253.101C363.72 248.667 367.319 245.069 371.751 245.069C376.185 245.069 379.783 248.667 379.783 253.101V338.826C379.783 340.956 378.936 342.998 377.43 344.505C375.924 346.011 373.881 346.857 371.751 346.857H325.214C330.249 357.876 332.849 369.851 332.836 381.965C332.836 428.71 294.725 466.82 247.981 466.82C201.236 466.82 163.102 428.709 163.102 381.965C163.09 369.85 165.691 357.875 170.728 346.857H126.194C124.064 346.857 122.021 346.011 120.515 344.505C119.009 342.998 118.163 340.956 118.163 338.826V253.101C118.163 248.667 121.761 245.069 126.194 245.069C130.626 245.069 134.225 248.667 134.225 253.101V315.293L188.26 239.228ZM284.165 239.228H244.979L264.054 266.08L284.165 239.228ZM354.537 330.794L295.096 251.429L260.238 297.972C282.745 301.253 302.434 313.427 315.609 330.794H354.537ZM240.593 297.406L253.942 279.582L225.275 239.228H207.964L142.916 330.794H180.338C194.46 312.185 216.062 299.539 240.593 297.406ZM190.938 343.549C183.51 354.533 179.165 367.759 179.165 381.965C179.165 419.862 210.084 450.757 247.981 450.757C285.877 450.757 316.773 419.861 316.773 381.965C316.773 367.755 312.429 354.526 305.001 343.541C304.907 343.407 304.815 343.271 304.724 343.134C292.309 325.05 271.493 313.149 247.981 313.149C224.471 313.149 203.648 325.047 191.225 343.128C191.131 343.27 191.035 343.41 190.938 343.549ZM237.863 377.34L269.531 345.343L269.545 345.328C277.092 337.741 289.411 337.705 296.997 345.253C304.58 352.796 304.63 365.068 297.087 372.69L297.084 372.693C281.921 387.994 266.873 403.385 251.642 418.616C244.06 426.198 231.749 426.198 224.168 418.616L198.926 393.353C191.348 385.774 191.333 373.509 198.912 365.892L198.926 365.877C206.508 358.296 218.819 358.296 226.401 365.877L237.863 377.34ZM232.214 394.407L215.043 377.236C214.413 376.606 213.559 376.252 212.669 376.251C211.778 376.249 210.923 376.601 210.291 377.229C208.981 378.553 208.969 380.679 210.284 381.994L235.525 407.258C236.156 407.889 237.012 408.243 237.904 408.243C238.797 408.243 239.652 407.889 240.284 407.258C255.497 392.045 270.527 376.671 285.671 361.39C286.977 360.071 286.981 357.946 285.669 356.64C285.039 356.016 284.186 355.667 283.299 355.669C282.412 355.672 281.562 356.026 280.935 356.654L243.602 394.378C242.857 395.13 241.971 395.727 240.995 396.136C240.019 396.545 238.972 396.756 237.914 396.759C236.856 396.762 235.807 396.555 234.829 396.152C233.851 395.748 232.962 395.155 232.214 394.407ZM134.225 208.082C134.225 212.515 130.626 216.113 126.194 216.113C121.761 216.113 118.163 212.515 118.163 208.082V123.569C118.163 121.439 119.009 119.396 120.515 117.89C122.021 116.383 124.064 115.537 126.194 115.537H371.751C373.881 115.537 375.924 116.383 377.43 117.89C378.936 119.396 379.783 121.439 379.783 123.569V208.082C379.783 212.515 376.185 216.113 371.751 216.113C367.319 216.113 363.72 212.515 363.72 208.082V131.6H134.225V208.082ZM314.107 149.245C332.517 149.245 347.462 164.191 347.462 182.6C347.462 201.01 332.517 215.957 314.107 215.957C295.698 215.957 280.752 201.01 280.752 182.6C280.752 164.191 295.698 149.245 314.107 149.245ZM314.107 165.308C304.563 165.308 296.814 173.057 296.814 182.6C296.814 192.145 304.563 199.894 314.107 199.894C323.651 199.894 331.4 192.145 331.4 182.6C331.4 173.057 323.651 165.308 314.107 165.308ZM33.4266 157.276C33.4266 161.709 29.8285 165.308 25.3952 165.308C20.9629 165.308 17.3638 161.709 17.3638 157.276V8.03137C17.3638 5.90132 18.21 3.85851 19.7162 2.35233C21.2223 0.84616 23.2652 0 25.3952 0H160.699C165.131 0 168.73 3.59806 168.73 8.03137C168.73 12.4637 165.131 16.0627 160.699 16.0627H33.4266V157.276ZM480.581 157.276C480.581 161.709 476.982 165.308 472.55 165.308C468.117 165.308 464.519 161.709 464.519 157.276V16.0627H337.246C332.814 16.0627 329.215 12.4637 329.215 8.03137C329.215 3.59806 332.814 0 337.246 0H472.55C474.68 0 476.723 0.84616 478.229 2.35233C479.735 3.85851 480.581 5.90132 480.581 8.03137V157.276ZM17.3638 305.118C17.3638 300.686 20.9629 297.087 25.3952 297.087C29.8285 297.087 33.4266 300.686 33.4266 305.118V446.331H160.699C165.131 446.331 168.73 449.931 168.73 454.363C168.73 458.796 165.131 462.394 160.699 462.394H25.3952C23.2652 462.394 21.2223 461.548 19.7162 460.042C18.21 458.536 17.3638 456.493 17.3638 454.363V305.118ZM464.519 305.118C464.519 300.686 468.117 297.087 472.55 297.087C476.982 297.087 480.581 300.686 480.581 305.118V454.363C480.581 456.493 479.735 458.536 478.229 460.042C476.723 461.548 474.68 462.394 472.55 462.394H337.246C332.814 462.394 329.215 458.796 329.215 454.363C329.215 449.931 332.814 446.331 337.246 446.331H464.519V305.118Z" fill="url(#paint0_linear_1107_1363)"/>
<defs>
<linearGradient id="paint0_linear_1107_1363" x1="17.7666" y1="30.0881" x2="457.613" y2="568.539" gradientUnits="userSpaceOnUse">
<stop stop-color="#1BA2D7"/>
<stop offset="1" stop-color="#8D3DFA"/>
</linearGradient>
</defs>
</svg>
