<svg width="497" height="449" viewBox="0 0 497 449" fill="none" xmlns="http://www.w3.org/2000/svg">
<g clip-path="url(#clip0_695_212)">
<path d="M1.28 435.84C0.417117 437.171 -0.0218816 438.732 0.0209675 440.317C0.0638166 441.903 0.586499 443.438 1.52 444.72C3.04 446.88 5.52 448.16 8.08 448.16C8.64 448.16 9.2 448.16 9.84 448L83.36 431.68C104.56 442.48 128.32 448.16 152.16 448.16C235.12 448.16 302.72 381.28 304 298.56C340 308.32 379.44 304.64 412.88 287.68L486.4 303.92C486.96 304.08 487.52 304.08 488.16 304.08C490.72 304.08 493.2 302.8 494.72 300.64C496.56 298 496.64 294.48 494.96 291.76L464.96 244.32C485.205 217.802 496.168 185.363 496.16 152C496.16 68.16 428 0 344.16 0C260.32 0 193.6 66.88 192.32 149.52C179.52 146 166.08 144 152.16 144C68.16 144.08 0 212.24 0 296.08C0 329.44 11.04 362 31.28 388.4L1.28 435.84ZM344 16.08C418.96 16.08 480 77.12 480 152.08C480 183.68 468.96 214.48 448.8 238.72C446.56 241.36 446.32 245.2 448.16 248.08L470.96 284.08L413.36 271.36C411.52 270.96 409.52 271.2 407.84 272.08C375.92 289.04 337.44 292.32 303.2 281.6C297.76 223.92 259.84 175.52 208 154.88C208 153.92 207.92 152.96 207.92 152C207.92 77.04 268.96 16 343.92 16L344 16.08ZM16 296.08C16 221.12 77.04 160.08 152 160.08C226.96 160.08 288 221.12 288 296.08C288 371.04 226.96 432.08 152 432.08C129.76 432.08 107.68 426.56 88.08 416.08C86.9251 415.455 85.6333 415.125 84.32 415.12C83.76 415.12 83.2 415.12 82.56 415.28L24.96 428L47.76 392C49.6 389.04 49.36 385.28 47.2 382.64C27.04 358.32 16 327.52 16 295.92V296.08Z" fill="white"/>
<path d="M280 96.0801H408V112.08H280V96.0801ZM280 144.08H408V160.08H280V144.08ZM312 192.08H408V208.08H312V192.08ZM101.28 312.08H130.24L138.64 344.08H155.2L131.52 254.08C130.56 250.56 127.44 248.08 123.76 248.08H107.76C104.16 248.08 100.96 250.56 100 254.08L76.3203 344.08H92.8803L101.28 312.08ZM113.92 264.08H117.6L126 296.08H105.52L113.92 264.08ZM227.68 328.08H207.68V264.08H227.68V248.08H171.68V264.08H191.68V328.08H171.68V344.08H227.68V328.08Z" fill="white"/>
</g>
<defs>
<clipPath id="clip0_695_212">
<rect width="497" height="449" fill="white"/>
</clipPath>
</defs>
</svg>
