<svg width="496" height="496" viewBox="0 0 496 496" fill="none" xmlns="http://www.w3.org/2000/svg">
<g clip-path="url(#clip0_695_215)">
<path d="M496 280.441V215.559C496 213.657 495.322 211.816 494.088 210.369C492.853 208.921 491.144 207.961 489.265 207.66L449.576 201.307C444.438 179.019 435.698 157.938 423.538 138.503L447.125 105.925C448.241 104.384 448.771 102.496 448.62 100.6C448.47 98.7031 447.648 96.9224 446.303 95.577L400.424 49.699C399.078 48.3539 397.298 47.5323 395.401 47.3814C393.505 47.2306 391.616 47.7605 390.075 48.876L357.497 72.463C338.056 60.301 316.977 51.562 294.693 46.424L288.34 6.736C288.039 4.85717 287.079 3.14701 285.631 1.91248C284.183 0.677947 282.343 -0.000115838 280.44 1.48434e-08H215.558C213.656 8.39165e-05 211.815 0.678113 210.368 1.91242C208.92 3.14673 207.96 4.85652 207.659 6.735L201.306 46.423C179.019 51.561 157.938 60.3 138.501 72.461L105.924 48.875C104.383 47.7595 102.495 47.2296 100.598 47.3804C98.7013 47.5313 96.9206 48.3529 95.575 49.698L49.696 95.576C48.3507 96.9215 47.529 98.7024 47.3783 100.599C47.2277 102.496 47.758 104.384 48.874 105.925L72.461 138.502C60.295 157.95 51.556 179.027 46.422 201.306L6.734 207.659C4.85554 207.96 3.14585 208.921 1.91172 210.369C0.677588 211.816 -0.000191957 213.657 4.07799e-08 215.559V280.441C-0.000118836 282.343 0.677838 284.184 1.91218 285.631C3.14653 287.079 4.85644 288.039 6.735 288.34L46.423 294.693C51.561 316.979 60.301 338.06 72.462 357.497L48.875 390.075C47.7592 391.616 47.2291 393.504 47.3798 395.4C47.5304 397.297 48.352 399.078 49.697 400.423L95.576 446.301C96.9216 447.646 98.7023 448.468 100.599 448.619C102.496 448.769 104.384 448.24 105.925 447.124L138.502 423.537C157.95 435.703 179.03 444.443 201.307 449.576L207.66 489.264C207.961 491.142 208.921 492.852 210.369 494.087C211.816 495.321 213.657 495.999 215.559 495.999H280.441C282.343 495.999 284.184 495.321 285.631 494.087C287.079 492.852 288.039 491.142 288.34 489.264L294.04 453.659C314.877 479.463 346.754 495.999 382.426 495.999C445.051 496 496 445.051 496 382.426C496 346.754 479.463 314.876 453.659 294.039L489.264 288.34C491.143 288.04 492.853 287.08 494.088 285.632C495.323 284.184 496 282.344 496 280.441ZM390.903 269.169C388.082 268.959 385.255 268.853 382.426 268.853C365.252 268.853 348.961 272.692 334.353 279.545V266.895C334.353 247.992 320.039 233.601 295.079 227.41C286.507 225.283 277.805 223.72 269.028 222.731C282.277 213.432 291.26 195.646 291.26 175.265C291.26 147.699 274.684 130.574 248.001 130.574C221.317 130.574 204.741 147.699 204.741 175.265C204.741 195.602 213.686 213.354 226.888 222.669C218.11 223.641 209.411 225.231 200.856 227.426C175.572 233.925 161.647 247.942 161.647 266.895V338.072C161.647 340.194 162.49 342.229 163.99 343.729C165.49 345.229 167.525 346.072 169.647 346.072H274.82C270.952 357.491 268.853 369.718 268.853 382.426C268.853 385.277 268.961 388.104 269.169 390.903C262.16 391.933 255.085 392.451 248 392.452C168.349 392.452 103.548 327.651 103.548 247.999C103.548 168.347 168.349 103.547 248 103.547C327.651 103.547 392.452 168.349 392.452 248C392.452 255.079 391.931 262.171 390.903 269.169ZM290.748 275.257C288.626 275.257 286.591 276.1 285.091 277.6C283.591 279.1 282.748 281.135 282.748 283.257V328.035C282.379 328.709 282.019 329.389 281.663 330.071H213.25V283.257C213.25 281.135 212.407 279.1 210.907 277.6C209.407 276.1 207.372 275.257 205.25 275.257C203.128 275.257 201.093 276.1 199.593 277.6C198.093 279.1 197.25 281.135 197.25 283.257V330.071H177.646V266.894C177.646 252.857 192.433 246.11 204.838 242.921C232.964 235.688 262.027 235.694 291.226 242.938C301.357 245.451 318.352 251.904 318.352 266.894V288.703C311.193 293.613 304.616 299.321 298.748 305.718V283.256C298.748 281.134 297.905 279.1 296.405 277.6C294.904 276.1 292.87 275.257 290.748 275.257ZM248 213.605C232.969 213.605 220.74 196.405 220.74 175.264C220.74 150.3 237.819 146.573 248 146.573C258.181 146.573 275.259 150.301 275.259 175.264C275.259 196.406 263.03 213.605 248 213.605ZM480 382.426C480 436.229 436.229 480 382.426 480C328.624 480 284.853 436.229 284.853 382.426C284.853 328.623 328.624 284.853 382.426 284.853C436.229 284.853 480 328.624 480 382.426ZM480 273.62L441.649 279.758C439.686 280.075 437.911 281.113 436.672 282.668C427.274 277.536 417.194 273.769 406.734 271.481C407.876 263.706 408.45 255.858 408.452 248C408.452 159.526 336.473 87.548 247.999 87.548C159.525 87.548 87.547 159.527 87.547 248C87.547 336.473 159.526 408.453 247.999 408.453C255.851 408.453 263.717 407.875 271.48 406.735C273.769 417.195 277.537 427.276 282.668 436.674C281.112 437.913 280.075 439.688 279.758 441.651L273.619 480H222.38L216.241 441.65C215.984 440.042 215.241 438.55 214.113 437.375C212.985 436.2 211.526 435.397 209.929 435.074C185.853 430.202 163.22 420.819 142.659 407.185C141.302 406.285 139.702 405.821 138.074 405.855C136.445 405.888 134.866 406.418 133.547 407.373L102.067 430.166L65.836 393.934L88.628 362.453C89.5833 361.134 90.1132 359.554 90.1468 357.926C90.1804 356.297 89.7161 354.698 88.816 353.34C75.188 332.794 65.804 310.161 60.927 286.071C60.6038 284.475 59.801 283.015 58.6259 281.887C57.4508 280.759 55.9594 280.017 54.351 279.759L16 273.62V222.38L54.35 216.241C55.9585 215.984 57.45 215.241 58.6252 214.113C59.8003 212.985 60.6031 211.526 60.926 209.929C65.799 185.852 75.182 163.22 88.815 142.66C89.7155 141.303 90.18 139.703 90.1464 138.074C90.1128 136.446 89.5827 134.866 88.627 133.547L65.835 102.068L102.066 65.836L133.546 88.628C134.865 89.5832 136.445 90.1129 138.073 90.1463C139.702 90.1797 141.302 89.7152 142.659 88.815C163.205 75.188 185.838 65.804 209.929 60.926C211.525 60.6025 212.985 59.7996 214.113 58.6246C215.241 57.4495 215.983 55.9582 216.241 54.35L222.38 16H273.619L279.758 54.35C280.016 55.9584 280.758 57.4498 281.886 58.6249C283.014 59.8 284.474 60.6028 286.07 60.926C310.155 65.803 332.788 75.187 353.34 88.815C354.697 89.7149 356.297 90.179 357.925 90.1454C359.554 90.1118 361.133 89.5821 362.452 88.627L393.932 65.835L430.164 102.067L407.372 133.547C406.417 134.866 405.887 136.446 405.853 138.074C405.82 139.703 406.284 141.302 407.184 142.66C420.811 163.204 430.194 185.837 435.073 209.929C435.396 211.525 436.199 212.985 437.374 214.113C438.549 215.241 440.041 215.983 441.649 216.241L480 222.38V273.62ZM414.633 338.387L366.831 386.885L350.221 370.275C345.776 365.83 339.866 363.381 333.579 363.381C327.292 363.381 321.382 365.829 316.937 370.274C314.744 372.454 313.006 375.048 311.822 377.904C310.639 380.761 310.034 383.824 310.042 386.916C310.033 390.008 310.638 393.071 311.822 395.928C313.005 398.784 314.743 401.378 316.936 403.558L350.254 436.876C354.843 441.464 360.869 443.758 366.896 443.757C372.923 443.757 378.951 441.463 383.539 436.875C400.531 419.882 435.221 384.372 447.974 371.492C450.156 369.31 451.884 366.716 453.057 363.862C454.23 361.007 454.826 357.948 454.809 354.862C454.809 351.776 454.196 348.72 453.007 345.872C451.818 343.024 450.076 340.44 447.882 338.27C438.698 329.136 423.793 329.177 414.633 338.387ZM436.616 360.224C423.812 373.155 389.151 408.637 372.224 425.563C369.286 428.501 364.505 428.501 361.568 425.563L328.251 392.245H328.25C327.548 391.547 326.992 390.717 326.613 389.802C326.234 388.888 326.04 387.907 326.043 386.917C326.043 384.905 326.827 383.012 328.251 381.589C328.949 380.887 329.779 380.331 330.694 379.952C331.608 379.573 332.589 379.379 333.579 379.382C335.592 379.382 337.483 380.166 338.907 381.589L361.216 403.897C362.716 405.397 364.751 406.24 366.872 406.24H366.901C367.956 406.236 369 406.023 369.973 405.614C370.946 405.205 371.828 404.608 372.569 403.856L426.002 349.646C428.915 346.716 433.669 346.704 436.6 349.617C437.3 350.309 437.855 351.133 438.234 352.041C438.614 352.949 438.809 353.924 438.809 354.908C438.813 356.908 438.04 358.792 436.616 360.224Z" fill="white"/>
</g>
<defs>
<clipPath id="clip0_695_215">
<rect width="496" height="496" fill="white"/>
</clipPath>
</defs>
</svg>
