<svg width="496" height="496" viewBox="0 0 496 496" fill="none" xmlns="http://www.w3.org/2000/svg">
<g clip-path="url(#clip0_695_232)">
<path d="M272 416H416V272H272V416ZM288 288H400V400H288V288Z" fill="white"/>
<path d="M432 240V192H384V240H368V192H337.88C347.022 180.674 352.006 166.556 352 152C352 133.064 343.56 115.848 330.008 104H392C396.408 104 400 107.592 400 112V129.472C395.334 131.117 391.292 134.165 388.427 138.198C385.562 142.232 384.016 147.053 384 152C384 165.232 394.768 176 408 176C421.232 176 432 165.232 432 152C431.984 147.053 430.438 142.232 427.573 138.198C424.708 134.165 420.666 131.117 416 129.472V112C416 98.7681 405.232 88.0001 392 88.0001H306.432C303.621 82.0333 299.768 76.6153 295.056 72.0001H456C460.408 72.0001 464 75.5921 464 80.0001V97.4721C459.334 99.1167 455.292 102.165 452.427 106.198C449.562 110.232 448.016 115.053 448 120C448 133.232 458.768 144 472 144C485.232 144 496 133.232 496 120C495.984 115.053 494.438 110.232 491.573 106.198C488.708 102.165 484.666 99.1167 480 97.4721V80.0001C480 66.7681 469.232 56.0001 456 56.0001H256V56.1121C255.392 56.1121 254.808 56.0081 254.192 56.0321C250.592 40.1109 241.68 25.889 228.923 15.7055C216.166 5.52195 200.323 -0.0168413 184 6.00317e-05C170.224 -0.0177464 156.734 3.92607 145.137 11.3614C133.54 18.7968 124.325 29.41 118.592 41.9361C113.835 40.6461 108.928 39.9951 104 40.0001C75.368 40.0001 51.68 61.6081 48.416 89.9921C20.4 97.0321 0 122.608 0 152C0 175.624 12.904 196.256 32 207.344V392C32 405.232 42.768 416 56 416H97.472C99.1166 420.666 102.165 424.709 106.198 427.573C110.232 430.438 115.053 431.984 120 432C133.232 432 144 421.232 144 408C144 394.768 133.232 384 120 384C115.053 384.016 110.232 385.562 106.198 388.427C102.165 391.292 99.1166 395.334 97.472 400H56C51.592 400 48 396.408 48 392V213.896C53.2224 215.274 58.599 215.981 64 216V328C64 341.232 74.768 352 88 352H113.472C115.117 356.666 118.165 360.709 122.198 363.573C126.232 366.438 131.053 367.984 136 368C149.232 368 160 357.232 160 344C160 330.768 149.232 320 136 320C131.053 320.016 126.232 321.562 122.198 324.427C118.165 327.292 115.117 331.334 113.472 336H88C83.592 336 80 332.408 80 328V216H96V264C96 277.232 106.768 288 120 288H129.472C131.117 292.666 134.165 296.709 138.198 299.573C142.232 302.438 147.053 303.984 152 304C165.232 304 176 293.232 176 280C176 266.768 165.232 256 152 256C147.053 256.016 142.232 257.562 138.198 260.427C134.165 263.292 131.117 267.334 129.472 272H120C115.592 272 112 268.408 112 264V216H256V240C247.176 240 240 247.176 240 256H192V304H240V320H192V368H240V384H192V432H240C240 440.824 247.176 448 256 448V496H304V448H320V496H368V448H384V496H432V448C440.824 448 448 440.824 448 432H496V384H448V368H496V320H448V304H496V256H448C448 247.176 440.824 240 432 240ZM408 160C403.592 160 400 156.408 400 152C400 147.592 403.592 144 408 144C412.408 144 416 147.592 416 152C416 156.408 412.408 160 408 160ZM472 128C467.592 128 464 124.408 464 120C464 115.592 467.592 112 472 112C476.408 112 480 115.592 480 120C480 124.408 476.408 128 472 128ZM120 400C124.408 400 128 403.592 128 408C128 412.408 124.408 416 120 416C115.592 416 112 412.408 112 408C112 403.592 115.592 400 120 400ZM136 336C140.408 336 144 339.592 144 344C144 348.408 140.408 352 136 352C131.592 352 128 348.408 128 344C128 339.592 131.592 336 136 336ZM152 272C156.408 272 160 275.592 160 280C160 284.408 156.408 288 152 288C147.592 288 144 284.408 144 280C144 275.592 147.592 272 152 272ZM208 288V272H240V288H208ZM208 352V336H240V352H208ZM208 416V400H240V416H208ZM400 208H416V240H400V208ZM352 240H336V208H352V240ZM320 207.344V240H304V213.896C309.606 212.449 314.989 210.245 320 207.344ZM16 152C16 128.304 33.696 107.904 57.16 104.552L64 102.936V96.0001C64 73.9441 81.944 56.0001 104 56.0001C109.512 55.9938 114.964 57.1382 120.008 59.3601L128.072 62.8881L130.824 54.5281C134.486 43.3149 141.602 33.5484 151.155 26.6275C160.707 19.7066 172.204 15.9865 184 16.0001C197.759 15.9854 211.041 21.0454 221.302 30.2116C231.563 39.3779 238.084 52.0064 239.616 65.6801L240.568 74.1601L248.968 72.6641C258.571 70.9006 268.487 72.7284 276.829 77.7996C285.172 82.8709 291.36 90.8318 294.216 100.168L295.544 104.448L299.888 105.552C310.214 108.178 319.371 114.17 325.911 122.582C332.451 130.993 336.001 141.345 336 152C336 178.472 314.472 200 288 200H64C37.528 200 16 178.472 16 152ZM272 216H288V240H272V216ZM288 480H272V448H288V480ZM352 480H336V448H352V480ZM416 480H400V448H416V480ZM256 432V256H432L432.008 432H256ZM480 400V416H448V400H480ZM480 336V352H448V336H480ZM480 272V288H448V272H480Z" fill="white"/>
<path d="M120.248 152H151.752L160.24 185.944L175.76 182.064L150.248 80H121.752L96.2402 182.056L111.76 185.936L120.248 152ZM137.752 96L147.752 136H124.248L134.248 96H137.752ZM240 168H224V96H240V80H192V96H208V168H192V184H240V168Z" fill="white"/>
</g>
<defs>
<clipPath id="clip0_695_232">
<rect width="496" height="496" fill="white"/>
</clipPath>
</defs>
</svg>
