<svg width="517" height="446" viewBox="0 0 517 446" fill="none" xmlns="http://www.w3.org/2000/svg">
<path d="M247.999 298V316.134C247.999 324.4 241.333 331.2 232.933 331.2H188.933C181.733 331.2 175.866 325.334 175.866 318.134V163.067C175.866 154.801 182.533 148.001 190.933 148.001H232.933C241.199 148.001 247.999 154.667 247.999 163.067V262.934" stroke="url(#paint0_linear_634_98)" stroke-width="20" stroke-miterlimit="10" stroke-linecap="round" stroke-linejoin="round"/>
<path d="M247.999 164.134H263.732C269.466 164.134 275.066 162.534 279.866 159.467L320.799 133.334C335.199 124.134 343.999 108.267 343.999 91.2005V67.6006C343.999 52.4007 356.265 40.134 371.465 40.134C386.665 40.134 398.932 52.4007 398.932 67.6006V159.067C398.932 161.867 401.199 164 403.999 164H465.865C478.132 164 488.398 173.467 488.932 185.734C489.332 198.534 479.198 209.067 466.398 209.067H484.398C497.065 209.067 507.332 219.6 506.932 232.4C506.532 244.533 496.132 254.133 483.865 254.133H466.532C479.198 254.133 489.465 264.667 489.065 277.467C488.665 289.6 478.265 299.2 465.998 299.2H439.599C449.199 299.2 456.932 306.8 457.065 316.4C457.198 326.267 448.932 334.267 439.065 334.267H287.332C278.666 334.267 270.132 332 262.666 327.733L247.999 319.467" stroke="url(#paint1_linear_634_98)" stroke-width="20" stroke-miterlimit="10" stroke-linecap="round" stroke-linejoin="round"/>
<path d="M466.532 209.2H425.466" stroke="url(#paint2_linear_634_98)" stroke-width="20" stroke-miterlimit="10" stroke-linecap="round" stroke-linejoin="round"/>
<path d="M466.532 254.134H425.466" stroke="url(#paint3_linear_634_98)" stroke-width="20" stroke-miterlimit="10" stroke-linecap="round" stroke-linejoin="round"/>
<path d="M438.532 299.2H425.466" stroke="url(#paint4_linear_634_98)" stroke-width="20" stroke-miterlimit="10" stroke-linecap="round" stroke-linejoin="round"/>
<path d="M329.599 334.267C304.133 393.6 245.199 435.066 176.533 435.066C84.5331 435.066 10 360.533 10 268.533V118.667C10 115.867 12.2667 113.601 15.0667 113.601H17.0666C66.7999 113.601 107.066 73.334 107.066 23.6008V15.0674C107.066 12.2675 109.333 10.0008 112.133 10.0008H241.199C243.999 10.0008 246.266 12.2675 246.266 15.0674V25.8674C246.266 75.6006 286.533 115.867 336.266 115.867" stroke="url(#paint5_linear_634_98)" stroke-width="20" stroke-miterlimit="10" stroke-linecap="round" stroke-linejoin="round"/>
<path d="M176 311.2V405.2C100.933 405.2 40 344.267 40 269.201V137.734C92.3999 137.734 134.8 95.3343 134.8 42.9344V39.7344H176V113.201" stroke="url(#paint6_linear_634_98)" stroke-width="20" stroke-miterlimit="10" stroke-linecap="round" stroke-linejoin="round"/>
<path d="M175.6 163.2H133.066C126.4 163.2 121.066 168.534 121.066 175.2V304.267C121.066 310.933 126.4 316.267 133.066 316.267H175.6" stroke="url(#paint7_linear_634_98)" stroke-width="20" stroke-miterlimit="10" stroke-linecap="round" stroke-linejoin="round"/>
<defs>
<linearGradient id="paint0_linear_634_98" x1="211.933" y1="331.2" x2="211.933" y2="148.001" gradientUnits="userSpaceOnUse">
<stop stop-color="#8D3DFA"/>
<stop offset="1" stop-color="#1BA2D7"/>
</linearGradient>
<linearGradient id="paint1_linear_634_98" x1="377.471" y1="334.267" x2="377.471" y2="40.134" gradientUnits="userSpaceOnUse">
<stop stop-color="#8D3DFA"/>
<stop offset="1" stop-color="#1BA2D7"/>
</linearGradient>
<linearGradient id="paint2_linear_634_98" x1="445.999" y1="209.2" x2="445.999" y2="208.2" gradientUnits="userSpaceOnUse">
<stop stop-color="#8D3DFA"/>
<stop offset="1" stop-color="#1BA2D7"/>
</linearGradient>
<linearGradient id="paint3_linear_634_98" x1="445.999" y1="254.134" x2="445.999" y2="253.134" gradientUnits="userSpaceOnUse">
<stop stop-color="#8D3DFA"/>
<stop offset="1" stop-color="#1BA2D7"/>
</linearGradient>
<linearGradient id="paint4_linear_634_98" x1="431.999" y1="299.2" x2="431.999" y2="298.2" gradientUnits="userSpaceOnUse">
<stop stop-color="#8D3DFA"/>
<stop offset="1" stop-color="#1BA2D7"/>
</linearGradient>
<linearGradient id="paint5_linear_634_98" x1="173.133" y1="435.066" x2="173.133" y2="10.0008" gradientUnits="userSpaceOnUse">
<stop stop-color="#8D3DFA"/>
<stop offset="1" stop-color="#1BA2D7"/>
</linearGradient>
<linearGradient id="paint6_linear_634_98" x1="108" y1="405.2" x2="108" y2="39.7344" gradientUnits="userSpaceOnUse">
<stop stop-color="#8D3DFA"/>
<stop offset="1" stop-color="#1BA2D7"/>
</linearGradient>
<linearGradient id="paint7_linear_634_98" x1="148.333" y1="316.267" x2="148.333" y2="163.2" gradientUnits="userSpaceOnUse">
<stop stop-color="#8D3DFA"/>
<stop offset="1" stop-color="#1BA2D7"/>
</linearGradient>
</defs>
</svg>
