<svg width="508" height="508" viewBox="0 0 508 508" fill="none" xmlns="http://www.w3.org/2000/svg">
<path d="M266.878 232.352L239.488 275.652M210.774 275.652L189.905 254.002L210.774 232.352M297.226 232.352L318.095 254.002L297.226 275.652" stroke="url(#paint0_linear_1079_642)" stroke-width="15" stroke-miterlimit="10" stroke-linecap="round" stroke-linejoin="round"/>
<path d="M355.699 308.651V161.009C355.699 155.486 351.222 151.009 345.699 151.009H162.301C156.778 151.009 152.301 155.486 152.301 161.009V344.407C152.301 349.93 156.778 354.407 162.301 354.407H309.387M358.442 254H404.578M149.558 254H103.422M254 149.558V103.422M254 358.442V404.578M52.729 103.422V204.932M103.422 52.729H203.957M455.271 103.422V204.932M404.578 52.729H304.043M52.729 404.578V303.068M103.422 455.271H203.957M455.271 404.578V303.068M404.578 455.271H304.043M490 298.729H420.541C415.018 298.729 410.541 294.252 410.541 288.729V219.27C410.541 213.747 415.018 209.27 420.541 209.27H490C495.523 209.27 500 213.747 500 219.27V288.729C500 294.252 495.523 298.729 490 298.729ZM18 209.271H87.459C92.982 209.271 97.459 213.748 97.459 219.271V288.73C97.459 294.253 92.982 298.73 87.459 298.73H18C12.477 298.73 8 294.253 8 288.73V219.271C8 213.748 12.477 209.271 18 209.271ZM298.729 18V87.459C298.729 92.982 294.252 97.459 288.729 97.459H219.27C213.747 97.459 209.27 92.982 209.27 87.459V18C209.27 12.477 213.747 8 219.27 8H288.729C294.252 8 298.729 12.477 298.729 18ZM209.271 490V420.541C209.271 415.018 213.748 410.541 219.271 410.541H288.73C294.253 410.541 298.73 415.018 298.73 420.541V490C298.73 495.523 294.253 500 288.73 500H219.271C213.748 500 209.271 495.523 209.271 490ZM97.459 18V87.459C97.459 92.982 92.982 97.459 87.459 97.459H18C12.477 97.459 8 92.982 8 87.459V18C8 12.477 12.477 8 18 8H87.459C92.982 8 97.459 12.477 97.459 18ZM410.541 18V87.459C410.541 92.982 415.018 97.459 420.541 97.459H490C495.523 97.459 500 92.982 500 87.459V18C500 12.477 495.523 8 490 8H420.541C415.018 8 410.541 12.477 410.541 18ZM97.459 490V420.541C97.459 415.018 92.982 410.541 87.459 410.541H18C12.477 410.541 8 415.018 8 420.541V490C8 495.523 12.477 500 18 500H87.459C92.982 500 97.459 495.523 97.459 490ZM410.541 490V420.541C410.541 415.018 415.018 410.541 420.541 410.541H490C495.523 410.541 500 415.018 500 420.541V490C500 495.523 495.523 500 490 500H420.541C415.018 500 410.541 495.523 410.541 490Z" stroke="url(#paint1_linear_1079_642)" stroke-width="15" stroke-miterlimit="10" stroke-linecap="round" stroke-linejoin="round"/>
<defs>
<linearGradient id="paint0_linear_1079_642" x1="189.638" y1="232.848" x2="214.395" y2="303.816" gradientUnits="userSpaceOnUse">
<stop stop-color="#8705FF"/>
<stop offset="1" stop-color="#CC00FF"/>
</linearGradient>
<linearGradient id="paint1_linear_1079_642" x1="6.97501" y1="13.6374" x2="458.996" y2="451.313" gradientUnits="userSpaceOnUse">
<stop stop-color="#8705FF"/>
<stop offset="1" stop-color="#CC00FF"/>
</linearGradient>
</defs>
</svg>
