<svg width="512" height="512" viewBox="0 0 512 512" fill="none" xmlns="http://www.w3.org/2000/svg">
<path d="M256 133.242L316.795 82.5806H396.387V0H198.193V82.5806H256V133.242ZM214.709 66.0645V16.5161H379.871V66.0645H310.818L272.516 97.984V66.0645H214.709Z" fill="url(#paint0_linear_1079_685)"/>
<path d="M231.226 33.0312H247.742V49.5474H231.226V33.0312ZM264.258 33.0312H330.323V49.5474H264.258V33.0312ZM346.839 33.0312H363.355V49.5474H346.839V33.0312ZM420.375 495.483L413.698 428.632C441.27 424.274 462.452 400.398 462.452 371.612V264.257H429.419V252.845C429.419 241.62 423.25 231.54 413.331 226.37C423.195 217.31 429.419 204.354 429.419 189.934V173.418C429.419 146.091 407.198 123.87 379.871 123.87C352.544 123.87 330.323 146.091 330.323 173.418V189.934C330.323 211.313 343.956 229.515 362.968 236.451L318.645 280.773H272.334C271.412 267.007 261.956 255.008 248.561 251.176L214.71 241.514V226.765C224.819 217.689 231.226 204.568 231.226 189.934V173.418C231.226 146.091 209.004 123.87 181.677 123.87C154.35 123.87 132.129 146.091 132.129 173.418V189.934C132.129 204.56 138.536 217.681 148.645 226.765V241.524L114.794 251.185C100.69 255.204 90.8387 268.268 90.8387 282.947V313.805H57.8064V363.354H74.3226V495.483H0V511.999H512V495.483H420.375ZM346.839 363.354V325.482L405.355 266.967C409.584 262.737 412.101 257.055 412.666 251.128C412.738 251.705 412.903 252.249 412.903 252.845V355.096C412.903 368.753 401.786 379.87 388.129 379.87H322.065V363.354H346.839ZM322.065 429.418H364.141L370.746 495.483H322.065V429.418ZM380.738 429.418H397.174L403.778 495.483H387.342L380.738 429.418ZM429.419 355.096V280.773H445.935V371.612C445.935 394.378 427.412 412.902 404.645 412.902H322.065V396.386H388.129C410.895 396.386 429.419 377.862 429.419 355.096ZM346.839 189.934V173.418C346.839 155.201 361.654 140.386 379.871 140.386C398.088 140.386 412.903 155.201 412.903 173.418V189.934C412.903 208.152 398.088 222.967 379.871 222.967C361.654 222.967 346.839 208.152 346.839 189.934ZM325.483 297.289L380.58 242.193C382.321 240.462 384.674 239.489 387.129 239.483C392.234 239.483 396.387 243.636 396.387 248.741C396.381 251.196 395.408 253.549 393.677 255.29L335.161 313.805H247.742C243.186 313.805 239.484 310.104 239.484 305.547C239.484 300.991 243.186 297.289 247.742 297.289H325.483ZM148.645 173.418C148.645 155.201 163.46 140.386 181.677 140.386C199.895 140.386 214.71 155.201 214.71 173.418V189.934C214.71 208.152 199.895 222.967 181.677 222.967C163.46 222.967 148.645 208.152 148.645 189.934V173.418ZM181.677 239.483C187.476 239.483 193.016 238.427 198.194 236.593V245.463C196.146 248.624 190.456 255.999 181.677 255.999C172.899 255.999 167.209 248.624 165.161 245.463V236.592C170.339 238.427 175.879 239.483 181.677 239.483ZM107.355 282.946C107.355 275.604 112.286 269.08 119.331 267.064L153.351 257.346C158.141 263.588 167.463 272.515 181.677 272.515C195.892 272.515 205.213 263.588 210.004 257.338L244.024 267.055C250.351 268.866 254.762 274.366 255.645 280.765H247.742C234.085 280.765 222.968 291.882 222.968 305.539C222.968 308.447 223.56 311.204 224.488 313.797H107.355V282.946ZM74.3226 330.322H330.323V346.838H74.3226V330.322ZM90.8387 396.386H115.613V379.87H90.8387V363.354H305.548V379.87H132.129V396.386H305.548V495.483H285.879L269.363 462.451H127.025L110.508 495.483H90.8387V396.386ZM267.412 495.483H128.975L137.234 478.967H259.154L267.412 495.483Z" fill="url(#paint1_linear_1079_685)"/>
<defs>
<linearGradient id="paint0_linear_1079_685" x1="197.78" y1="1.52671" x2="312.537" y2="166.806" gradientUnits="userSpaceOnUse">
<stop stop-color="#8705FF"/>
<stop offset="1" stop-color="#CC00FF"/>
</linearGradient>
<linearGradient id="paint1_linear_1079_685" x1="-1.06666" y1="38.5194" x2="438.949" y2="493.953" gradientUnits="userSpaceOnUse">
<stop stop-color="#8705FF"/>
<stop offset="1" stop-color="#CC00FF"/>
</linearGradient>
</defs>
</svg>
