<svg width="393" height="512" viewBox="0 0 393 512" fill="none" xmlns="http://www.w3.org/2000/svg">
<path d="M358.4 324.267C367.453 324.267 376.135 320.67 382.536 314.269C388.937 307.868 392.533 299.186 392.533 290.133V34.1333C392.533 25.0806 388.937 16.3987 382.536 9.99742C376.135 3.59618 367.453 0 358.4 0L34.1333 0C25.0806 0 16.3987 3.59618 9.99742 9.99742C3.59618 16.3987 0 25.0806 0 34.1333V290.133C0 299.186 3.59618 307.868 9.99742 314.269C16.3987 320.67 25.0806 324.267 34.1333 324.267H153.6V358.4H110.933C101.881 358.4 93.1987 361.996 86.7974 368.397C80.3962 374.799 76.8 383.481 76.8 392.533V477.867C76.8 486.919 80.3962 495.601 86.7974 502.003C93.1987 508.404 101.881 512 110.933 512H281.6C290.653 512 299.335 508.404 305.736 502.003C312.137 495.601 315.733 486.919 315.733 477.867V392.533C315.733 383.481 312.137 374.799 305.736 368.397C299.335 361.996 290.653 358.4 281.6 358.4H238.933V324.267H358.4ZM34.1333 17.0667H358.4C362.926 17.0667 367.267 18.8648 370.468 22.0654C373.669 25.266 375.467 29.607 375.467 34.1333V68.2667H17.0667V34.1333C17.0667 29.607 18.8648 25.266 22.0654 22.0654C25.266 18.8648 29.607 17.0667 34.1333 17.0667ZM34.1333 307.2C29.607 307.2 25.266 305.402 22.0654 302.201C18.8648 299.001 17.0667 294.66 17.0667 290.133V85.3333H375.467V290.133C375.467 294.66 373.669 299.001 370.468 302.201C367.267 305.402 362.926 307.2 358.4 307.2H238.933V230.4H249.003C251.882 230.396 254.702 229.587 257.145 228.064C259.588 226.541 261.556 224.365 262.827 221.781C264.212 219.057 264.807 215.999 264.543 212.953C264.279 209.908 263.167 206.998 261.333 204.553L208.546 134.229C207.081 132.375 205.215 130.877 203.089 129.847C200.962 128.817 198.63 128.282 196.267 128.282C193.904 128.282 191.571 128.817 189.445 129.847C187.318 130.877 185.452 132.375 183.987 134.229L131.209 204.587C129.387 207.032 128.285 209.938 128.027 212.976C127.769 216.014 128.366 219.064 129.749 221.781C131.017 224.358 132.978 226.53 135.413 228.053C137.848 229.575 140.659 230.388 143.531 230.4H153.6V307.2H34.1333ZM298.667 392.533V477.867C298.667 482.393 296.869 486.734 293.668 489.935C290.467 493.135 286.126 494.933 281.6 494.933H110.933C106.407 494.933 102.066 493.135 98.8654 489.935C95.6648 486.734 93.8667 482.393 93.8667 477.867V392.533C93.8667 388.007 95.6648 383.666 98.8654 380.465C102.066 377.265 106.407 375.467 110.933 375.467H281.6C286.126 375.467 290.467 377.265 293.668 380.465C296.869 383.666 298.667 388.007 298.667 392.533ZM170.667 358.4V221.867C170.667 219.603 169.768 217.433 168.167 215.833C166.567 214.232 164.397 213.333 162.133 213.333H145.98L196.267 146.287L246.955 213.333H230.4C228.137 213.333 225.966 214.232 224.366 215.833C222.766 217.433 221.867 219.603 221.867 221.867V358.4H170.667Z" fill="url(#paint0_linear_1079_638)"/>
<path d="M160.7 413.397C160.078 412.464 159.278 411.664 158.347 411.04C157.416 410.417 156.371 409.983 155.271 409.763C154.172 409.544 153.041 409.543 151.941 409.761C150.842 409.979 149.796 410.411 148.864 411.033L123.264 428.1C122.095 428.879 121.137 429.935 120.474 431.173C119.811 432.412 119.465 433.795 119.465 435.2C119.465 436.604 119.811 437.987 120.474 439.226C121.137 440.464 122.095 441.52 123.264 442.299L148.864 459.366C150.747 460.622 153.052 461.079 155.271 460.635C157.491 460.192 159.444 458.885 160.7 457.002C161.956 455.119 162.412 452.814 161.969 450.595C161.526 448.375 160.219 446.422 158.336 445.166L143.36 435.2L158.31 425.233C159.245 424.613 160.048 423.815 160.674 422.884C161.3 421.954 161.736 420.909 161.958 419.81C162.18 418.711 162.183 417.579 161.967 416.478C161.751 415.378 161.321 414.331 160.7 413.397ZM231.834 457.002C232.455 457.935 233.255 458.735 234.186 459.359C235.118 459.982 236.163 460.416 237.262 460.636C238.361 460.855 239.492 460.856 240.592 460.638C241.691 460.42 242.737 459.988 243.669 459.366L269.269 442.299C270.438 441.52 271.396 440.464 272.059 439.226C272.722 437.987 273.069 436.604 273.069 435.2C273.069 433.795 272.722 432.412 272.059 431.173C271.396 429.935 270.438 428.879 269.269 428.1L243.669 411.033C241.786 409.777 239.482 409.32 237.262 409.764C235.042 410.207 233.09 411.514 231.834 413.397C230.578 415.28 230.121 417.585 230.564 419.804C231.007 422.024 232.314 423.977 234.197 425.233L249.173 435.2L234.223 445.166C233.288 445.786 232.485 446.584 231.859 447.515C231.233 448.445 230.797 449.49 230.575 450.589C230.353 451.688 230.35 452.82 230.566 453.921C230.782 455.021 231.213 456.068 231.834 457.002ZM207.497 401.51C205.351 400.796 203.01 400.964 200.988 401.975C198.965 402.986 197.427 404.758 196.71 406.903L179.644 458.103C179.29 459.168 179.149 460.291 179.229 461.411C179.309 462.53 179.609 463.622 180.111 464.625C180.614 465.628 181.309 466.523 182.157 467.257C183.005 467.992 183.989 468.552 185.054 468.906C186.118 469.26 187.242 469.401 188.361 469.321C189.48 469.241 190.573 468.941 191.576 468.439C192.579 467.936 193.473 467.241 194.208 466.393C194.943 465.545 195.503 464.561 195.857 463.496L212.924 412.296C213.276 411.231 213.415 410.108 213.333 408.989C213.251 407.871 212.95 406.78 212.446 405.778C211.942 404.776 211.245 403.884 210.396 403.151C209.547 402.419 208.561 401.861 207.497 401.51ZM42.6666 51.1995H51.2C53.4631 51.1995 55.6336 50.3004 57.2339 48.7001C58.8343 47.0998 59.7333 44.9293 59.7333 42.6661C59.7333 40.403 58.8343 38.2325 57.2339 36.6322C55.6336 35.0319 53.4631 34.1328 51.2 34.1328H42.6666C40.4035 34.1328 38.233 35.0319 36.6327 36.6322C35.0323 38.2325 34.1333 40.403 34.1333 42.6661C34.1333 44.9293 35.0323 47.0998 36.6327 48.7001C38.233 50.3004 40.4035 51.1995 42.6666 51.1995ZM85.3333 51.1995H93.8666C96.1298 51.1995 98.3003 50.3004 99.9006 48.7001C101.501 47.0998 102.4 44.9293 102.4 42.6661C102.4 40.403 101.501 38.2325 99.9006 36.6322C98.3003 35.0319 96.1298 34.1328 93.8666 34.1328H85.3333C83.0701 34.1328 80.8996 35.0319 79.2993 36.6322C77.699 38.2325 76.8 40.403 76.8 42.6661C76.8 44.9293 77.699 47.0998 79.2993 48.7001C80.8996 50.3004 83.0701 51.1995 85.3333 51.1995ZM128 51.1995H136.533C138.796 51.1995 140.967 50.3004 142.567 48.7001C144.168 47.0998 145.067 44.9293 145.067 42.6661C145.067 40.403 144.168 38.2325 142.567 36.6322C140.967 35.0319 138.796 34.1328 136.533 34.1328H128C125.737 34.1328 123.566 35.0319 121.966 36.6322C120.366 38.2325 119.467 40.403 119.467 42.6661C119.467 44.9293 120.366 47.0998 121.966 48.7001C123.566 50.3004 125.737 51.1995 128 51.1995ZM315.733 51.1995H349.867C352.13 51.1995 354.3 50.3004 355.901 48.7001C357.501 47.0998 358.4 44.9293 358.4 42.6661C358.4 40.403 357.501 38.2325 355.901 36.6322C354.3 35.0319 352.13 34.1328 349.867 34.1328H315.733C313.47 34.1328 311.3 35.0319 309.699 36.6322C308.099 38.2325 307.2 40.403 307.2 42.6661C307.2 44.9293 308.099 47.0998 309.699 48.7001C311.3 50.3004 313.47 51.1995 315.733 51.1995Z" fill="url(#paint1_linear_1079_638)"/>
<defs>
<linearGradient id="paint0_linear_1079_638" x1="-0.817769" y1="5.86661" x2="449.678" y2="340.285" gradientUnits="userSpaceOnUse">
<stop stop-color="#8705FF"/>
<stop offset="1" stop-color="#CC00FF"/>
</linearGradient>
<linearGradient id="paint1_linear_1079_638" x1="33.4578" y1="39.1195" x2="413.094" y2="313.002" gradientUnits="userSpaceOnUse">
<stop stop-color="#8705FF"/>
<stop offset="1" stop-color="#CC00FF"/>
</linearGradient>
</defs>
</svg>
