<svg width="512" height="497" viewBox="0 0 512 497" fill="none" xmlns="http://www.w3.org/2000/svg">
<path d="M167.126 125.451L196.8 177.806V190.661C192.799 193.427 190.169 198.04 190.169 203.26V218.533C190.169 226.976 197.039 233.845 205.481 233.845H207.038C208.084 251.807 223.023 266.101 241.243 266.101C259.463 266.101 274.402 251.807 275.448 233.845H277.004C285.447 233.845 292.316 226.975 292.316 218.533V203.26C292.316 198.039 289.686 193.426 285.685 190.661V177.808L315.36 125.451C315.415 125.356 315.466 125.26 315.516 125.162C321.516 114.195 324.941 102.29 325.696 89.7736C325.766 88.7854 325.639 87.7932 325.323 86.8543C325.007 85.9155 324.508 85.0486 323.854 84.3038C323.201 83.559 322.407 82.9512 321.517 82.5154C320.627 82.0796 319.66 81.8245 318.671 81.7648C317.682 81.7052 316.692 81.8422 315.756 82.1679C314.82 82.4936 313.959 83.0016 313.221 83.6625C312.483 84.3233 311.883 85.1239 311.456 86.018C311.03 86.9121 310.785 87.8819 310.735 88.8713C310.11 99.2314 307.262 109.08 302.272 118.141L302.208 118.26L272.512 170.652C271.324 172.752 270.698 175.124 270.697 177.537V187.949H248.736V129.045L286.837 91.4423C289.041 89.268 290.26 86.3642 290.27 83.2686C290.28 80.1729 289.08 77.2631 286.89 75.0758L273.24 61.4252C272.171 60.3504 270.9 59.4983 269.5 58.9182C268.1 58.3381 266.599 58.0416 265.083 58.0458C263.567 58.0419 262.066 58.3385 260.666 58.9183C259.266 59.4982 257.994 60.3499 256.925 61.4242L254.36 63.9893L247.923 59.4177C245.971 58.0331 243.637 57.2893 241.243 57.2893C238.85 57.2893 236.515 58.0331 234.563 59.4177L228.125 63.9903L225.56 61.4262C224.491 60.3515 223.22 59.4994 221.82 58.9193C220.419 58.3393 218.918 58.0427 217.402 58.0468C215.887 58.0428 214.386 58.3393 212.986 58.9192C211.585 59.4991 210.314 60.3509 209.245 61.4252L195.595 75.0758C193.406 77.2641 192.205 80.1749 192.215 83.2706C192.225 86.3662 193.445 89.269 195.649 91.4433L233.749 129.045V187.95H211.789V177.538C211.789 175.13 211.162 172.749 209.974 170.654L180.27 118.246L180.214 118.141C174.592 107.933 171.62 96.3386 171.62 84.6125C171.62 65.9278 178.922 48.3851 192.177 35.2162C205.32 22.1601 222.726 14.9886 241.241 14.9886C241.399 14.9886 241.561 14.9886 241.72 14.9906C270.195 15.1804 296.167 33.2886 306.349 60.0493C307.055 61.907 308.471 63.4079 310.285 64.2218C312.098 65.0356 314.16 65.0958 316.018 64.389C317.876 63.6822 319.377 62.2663 320.191 60.4529C321.004 58.6395 321.065 56.5771 320.358 54.7193C307.993 22.2221 276.431 0.232823 241.82 0.00199881L241.239 0C218.741 0 197.586 8.71736 181.616 24.5823C165.505 40.5861 156.633 61.9048 156.633 84.6125C156.633 98.7858 160.209 112.806 166.978 125.175C167.024 125.268 167.074 125.361 167.126 125.451ZM208.652 83.2156L217.403 74.4633L219.591 76.6496C221.514 78.5824 224.062 79.7689 226.78 79.9975C229.497 80.2261 232.208 79.4819 234.427 77.8977L241.244 73.0564L248.061 77.8977C250.281 79.4824 252.991 80.2268 255.709 79.9982C258.427 79.7696 260.975 78.5828 262.899 76.6496L265.085 74.4633L273.837 83.2156L241.245 115.381L208.652 83.2156ZM241.243 251.113C231.292 251.113 223.077 243.534 222.068 233.845H260.42C259.41 243.534 251.196 251.113 241.243 251.113ZM277.329 218.533C277.328 218.618 277.294 218.701 277.234 218.761C277.173 218.822 277.091 218.856 277.005 218.856H205.482C205.397 218.856 205.314 218.822 205.254 218.761C205.193 218.701 205.159 218.618 205.159 218.533V203.26C205.159 203.081 205.304 202.936 205.482 202.936H277.005C277.184 202.936 277.329 203.082 277.329 203.26V218.533ZM338.737 35.6908C340.043 35.6905 341.326 35.3476 342.458 34.6966L351.271 29.6434C352.135 29.1592 352.894 28.5086 353.505 27.7292C354.116 26.9497 354.567 26.057 354.83 25.1024C355.094 24.1479 355.166 23.1506 355.042 22.1681C354.918 21.1855 354.601 20.2373 354.108 19.3782C353.616 18.5191 352.958 17.7662 352.172 17.1629C351.387 16.5596 350.49 16.118 349.533 15.8635C348.576 15.609 347.578 15.5467 346.597 15.6802C345.615 15.8137 344.67 16.1404 343.816 16.6413L335.003 21.6945C333.569 22.5162 332.447 23.7886 331.812 25.3139C331.176 26.8392 331.062 28.5318 331.488 30.1284C331.914 31.725 332.856 33.136 334.167 34.142C335.478 35.148 337.084 35.6925 338.737 35.6908ZM338.686 91.856C337.896 93.6798 337.863 95.7426 338.593 97.5909C339.324 99.4392 340.759 100.922 342.582 101.713L353.063 106.254C354.034 106.675 355.044 106.874 356.04 106.874C357.763 106.874 359.434 106.28 360.771 105.192C362.108 104.104 363.03 102.589 363.38 100.901C363.731 99.2139 363.489 97.457 362.695 95.9269C361.902 94.3967 360.606 93.1867 359.024 92.5005L348.543 87.959C346.719 87.1689 344.656 87.1356 342.808 87.8664C340.959 88.5972 339.477 90.0323 338.686 91.856ZM132.267 29.6444L141.081 34.6976C141.935 35.1872 142.877 35.5039 143.853 35.6295C144.829 35.7551 145.821 35.6872 146.771 35.4296C147.721 35.172 148.61 34.7298 149.389 34.1283C150.168 33.5267 150.821 32.7776 151.311 31.9237C151.8 31.0698 152.117 30.1279 152.242 29.1517C152.368 28.1756 152.299 27.1842 152.042 26.2344C151.784 25.2845 151.342 24.3947 150.74 23.6157C150.139 22.8367 149.39 22.1839 148.536 21.6945L139.721 16.6413C138.867 16.144 137.923 15.8205 136.943 15.6895C135.964 15.5586 134.968 15.6227 134.013 15.8782C133.058 16.1337 132.163 16.5756 131.38 17.1784C130.597 17.7812 129.94 18.533 129.449 19.3905C128.957 20.248 128.64 21.1943 128.516 22.1748C128.391 23.1554 128.462 24.1509 128.724 25.1039C128.986 26.057 129.434 26.9489 130.042 27.7281C130.65 28.5074 131.406 29.1586 132.267 29.6444ZM127.499 106.874C128.493 106.874 129.504 106.675 130.474 106.254L140.956 101.713C141.859 101.321 142.676 100.756 143.36 100.049C144.045 99.3417 144.584 98.5066 144.945 97.5914C145.307 96.6761 145.485 95.6985 145.469 94.7145C145.453 93.7304 145.244 92.7591 144.853 91.856C144.461 90.953 143.896 90.1358 143.189 89.4512C142.482 88.7666 141.647 88.228 140.731 87.8662C139.816 87.5043 138.839 87.3262 137.854 87.3422C136.87 87.3581 135.899 87.5677 134.996 87.959L124.515 92.5005C122.932 93.1851 121.633 94.3947 120.839 95.9253C120.044 97.4559 119.801 99.2139 120.152 100.903C120.502 102.591 121.424 104.107 122.763 105.195C124.101 106.283 125.774 106.876 127.499 106.874ZM321.74 146.568C321.74 148.556 322.529 150.462 323.935 151.868C325.34 153.273 327.246 154.063 329.234 154.063H457.806V327.029C457.806 331.168 461.161 334.523 465.3 334.523C469.44 334.523 472.795 331.168 472.795 327.029V153.27C472.795 145.443 466.427 139.074 458.6 139.074H329.234C327.246 139.074 325.34 139.864 323.935 141.269C322.529 142.675 321.74 144.581 321.74 146.568Z" fill="url(#paint0_linear_1079_657)"/>
<path d="M465.301 442.667C463.313 442.667 461.407 443.457 460.001 444.862C458.596 446.268 457.806 448.174 457.806 450.162V481.297H61.8099C36.9738 481.297 16.4395 461.894 15.0615 437.124C14.3521 424.37 18.8656 412.163 27.7698 402.75C36.8439 393.156 49.6242 387.654 62.8321 387.654H70.5473C77.0363 387.654 82.3163 382.374 82.3163 375.885V223.364C82.3163 221.376 81.5267 219.47 80.1213 218.064C78.7158 216.659 76.8096 215.869 74.822 215.869C72.8344 215.869 70.9282 216.659 69.5227 218.064C68.1173 219.47 67.3277 221.376 67.3277 223.364V372.666H62.8321C45.5223 372.666 28.7741 379.876 16.8801 392.45C16.234 393.137 15.603 393.838 14.9876 394.552V170.72C14.9876 144.819 36.0595 123.747 61.9598 123.747H67.3267V191.426C67.3267 193.413 68.1163 195.32 69.5217 196.725C70.9272 198.131 72.8334 198.92 74.821 198.92C76.8086 198.92 78.7148 198.131 80.1203 196.725C81.5257 195.32 82.3153 193.413 82.3153 191.426V154.064H153.25C155.238 154.064 157.144 153.275 158.55 151.869C159.955 150.464 160.745 148.558 160.745 146.57C160.745 144.582 159.955 142.676 158.55 141.271C157.144 139.865 155.238 139.076 153.25 139.076H82.3163V120.527C82.3163 114.038 77.0363 108.758 70.5473 108.758H61.9608C27.7958 108.759 0 136.555 0 170.72C0 170.72 0.0339741 436.827 0.0969262 437.956C1.91554 470.664 29.0239 496.286 61.8099 496.286H458.6C466.427 496.286 472.795 489.917 472.795 482.089V450.162C472.795 448.174 472.005 446.268 470.6 444.862C469.194 443.457 467.288 442.667 465.301 442.667Z" fill="url(#paint1_linear_1079_657)"/>
<path d="M484.708 349.513H170.314C169.056 349.513 167.818 349.83 166.714 350.434L114.658 378.947C112.927 379.894 111.483 381.29 110.477 382.988C109.471 384.686 108.94 386.623 108.941 388.596C108.941 392.616 111.131 396.314 114.659 398.246L166.715 426.757C167.819 427.362 169.057 427.679 170.315 427.679H214.47C216.457 427.679 218.363 426.889 219.769 425.484C221.174 424.078 221.964 422.172 221.964 420.184C221.964 418.197 221.174 416.29 219.769 414.885C218.363 413.48 216.457 412.69 214.47 412.69H177.809V364.502H406.44V412.69H246.407C244.42 412.69 242.513 413.48 241.108 414.885C239.702 416.29 238.913 418.197 238.913 420.184C238.913 422.172 239.702 424.078 241.108 425.484C242.513 426.889 244.42 427.679 246.407 427.679H484.708C499.757 427.679 512 415.436 512 400.386V376.804C512 361.756 499.757 349.513 484.708 349.513ZM162.82 369.657V407.534L128.241 388.595L162.82 369.657ZM421.428 364.502H438.62V412.69H421.428V364.502ZM497.011 400.386C497.011 407.17 491.493 412.69 484.708 412.69H453.608V364.502H484.708C491.492 364.502 497.011 370.02 497.011 376.805V400.386ZM383.092 295.027H151.571C128.065 295.027 108.941 314.15 108.941 337.657V345.363C108.941 347.351 109.73 349.257 111.136 350.663C112.541 352.068 114.448 352.858 116.435 352.858C118.423 352.858 120.329 352.068 121.734 350.663C123.14 349.257 123.929 347.351 123.929 345.363V337.657C123.929 322.416 136.329 310.015 151.571 310.015H383.092C405.344 310.015 423.447 291.912 423.447 269.66C423.447 247.408 405.344 229.305 383.092 229.305H310.47C306.331 229.305 302.976 232.66 302.976 236.799C302.976 240.938 306.331 244.293 310.47 244.293H383.092C397.079 244.293 408.459 255.673 408.459 269.66C408.459 283.647 397.079 295.027 383.092 295.027Z" fill="url(#paint2_linear_1079_657)"/>
<defs>
<linearGradient id="paint0_linear_1079_657" x1="119.26" y1="3.83304" x2="426.693" y2="317.772" gradientUnits="userSpaceOnUse">
<stop stop-color="#8705FF"/>
<stop offset="1" stop-color="#CC00FF"/>
</linearGradient>
<linearGradient id="paint1_linear_1079_657" x1="-0.984979" y1="113.198" x2="350.35" y2="528.233" gradientUnits="userSpaceOnUse">
<stop stop-color="#8705FF"/>
<stop offset="1" stop-color="#CC00FF"/>
</linearGradient>
<linearGradient id="paint2_linear_1079_657" x1="108.101" y1="231.578" x2="255.416" y2="521.395" gradientUnits="userSpaceOnUse">
<stop stop-color="#8705FF"/>
<stop offset="1" stop-color="#CC00FF"/>
</linearGradient>
</defs>
</svg>
