<svg width="513" height="513" viewBox="0 0 513 513" fill="none" xmlns="http://www.w3.org/2000/svg">
<path d="M304.04 115.05C309.13 123.44 312.06 133.28 312.06 143.81C312.06 174.5 287.18 199.37 256.5 199.37C225.82 199.37 200.94 174.5 200.94 143.81C200.94 113.13 225.82 88.25 256.5 88.25C264.06 88.25 271.27 89.76 277.84 92.5M451.966 363.577V401.91C451.966 405.675 447.77 407.921 444.637 405.832L436.903 400.676C436.129 400.16 435.219 399.884 434.288 399.884C433.357 399.884 432.447 400.16 431.673 400.676L423.939 405.832C420.806 407.921 416.61 405.675 416.61 401.91V363.577M385.415 122.589L354.159 117.964C351.845 109.237 348.365 100.861 343.813 93.064L362.664 67.664C363.819 66.1075 364.377 64.1876 364.234 62.2544C364.092 60.3212 363.26 58.5036 361.889 57.133L343.179 38.423C341.808 37.0522 339.991 36.2198 338.058 36.0775C336.124 35.9353 334.205 36.4926 332.648 37.648L307.249 56.5C299.452 51.9475 291.076 48.4674 282.349 46.154L277.724 14.898C277.44 12.9806 276.477 11.2289 275.01 9.96263C273.542 8.69634 271.668 7.99978 269.73 8H243.27C241.332 7.99978 239.458 8.69634 237.99 9.96263C236.523 11.2289 235.56 12.9806 235.276 14.898L230.651 46.154C221.924 48.4676 213.548 51.9477 205.751 56.5L180.351 37.649C178.795 36.4936 176.875 35.9363 174.941 36.0785C173.008 36.2208 171.191 37.0532 169.82 38.424L151.11 57.134C149.739 58.5046 148.907 60.3222 148.765 62.2554C148.622 64.1886 149.18 66.1085 150.335 67.665L169.186 93.065C164.634 100.862 161.153 109.238 158.84 117.965L127.584 122.59C125.667 122.874 123.915 123.837 122.649 125.304C121.382 126.772 120.686 128.646 120.686 130.584V157.044C120.686 158.982 121.382 160.856 122.649 162.324C123.915 163.791 125.667 164.754 127.584 165.038L158.84 169.663C161.154 178.39 164.634 186.766 169.186 194.563L150.335 219.963C149.18 221.519 148.622 223.439 148.765 225.373C148.907 227.306 149.739 229.123 151.11 230.494L169.82 249.204C171.191 250.575 173.008 251.407 174.941 251.549C176.875 251.692 178.795 251.134 180.351 249.979L205.751 231.128C213.548 235.68 221.924 239.16 230.651 241.474L235.276 272.73C235.56 274.647 236.523 276.399 237.99 277.665C239.458 278.932 241.332 279.628 243.27 279.628H269.73C271.668 279.628 273.542 278.932 275.01 277.665C276.477 276.399 277.44 274.647 277.724 272.73L282.349 241.474C291.076 239.16 299.452 235.68 307.249 231.128L332.649 249.979C334.206 251.134 336.125 251.692 338.059 251.549C339.992 251.407 341.809 250.575 343.18 249.204L361.89 230.494C363.261 229.123 364.093 227.306 364.235 225.373C364.378 223.439 363.82 221.519 362.665 219.963L343.814 194.563C348.366 186.766 351.846 178.39 354.16 169.663L385.416 165.038C387.333 164.754 389.085 163.791 390.351 162.324C391.618 160.856 392.314 158.982 392.314 157.044V130.584C392.314 128.646 391.617 126.772 390.35 125.304C389.084 123.837 387.332 122.873 385.415 122.589Z" stroke="url(#paint0_linear_1079_679)" stroke-width="15" stroke-miterlimit="10" stroke-linecap="round" stroke-linejoin="round"/>
<path d="M363.58 430.881V495.571C363.58 500.781 367.8 505.001 373.01 505.001H495.57C500.78 505.001 505 500.781 505 495.571V373.011C505 367.801 500.78 363.581 495.57 363.581H373.01C367.8 363.581 363.58 367.801 363.58 373.011V395.881M474.358 474.359H450.788M274.178 363.578V401.911C274.178 405.676 269.982 407.922 266.849 405.833L259.115 400.677C258.34 400.161 257.431 399.885 256.5 399.885C255.569 399.885 254.659 400.161 253.885 400.677L246.151 405.833C243.018 407.922 238.822 405.676 238.822 401.911V363.578" stroke="url(#paint1_linear_1079_679)" stroke-width="15" stroke-miterlimit="10" stroke-linecap="round" stroke-linejoin="round"/>
<path d="M296.57 474.359H272.999M96.3892 363.578V401.911C96.3892 405.676 92.1932 407.922 89.0602 405.833L81.3262 400.677C80.5519 400.161 79.642 399.885 78.7112 399.885C77.7805 399.885 76.8705 400.161 76.0962 400.677L68.3622 405.833C65.2292 407.922 61.0332 405.676 61.0332 401.911V363.578M317.783 505.001H195.217C192.717 505.001 190.319 504.008 188.551 502.24C186.783 500.472 185.789 498.074 185.789 495.573V373.006C185.789 370.506 186.783 368.108 188.551 366.34C190.319 364.571 192.717 363.578 195.217 363.578H317.783C320.284 363.578 322.682 364.571 324.45 366.34C326.218 368.108 327.211 370.506 327.211 373.006V495.572C327.211 496.81 326.968 498.036 326.494 499.18C326.02 500.324 325.326 501.364 324.45 502.239C323.575 503.115 322.535 503.809 321.391 504.283C320.247 504.757 319.021 505.001 317.783 505.001Z" stroke="url(#paint2_linear_1079_679)" stroke-width="15" stroke-miterlimit="10" stroke-linecap="round" stroke-linejoin="round"/>
<path d="M149.42 475.499V495.569C149.42 500.779 145.2 504.999 139.99 504.999H17.43C12.22 504.999 8 500.779 8 495.569V373.009C8 367.799 12.22 363.579 17.43 363.579H139.99C145.2 363.579 149.42 367.799 149.42 373.009V440.499M118.781 474.357H95.211M256.5 279.625V363.576M78.711 363.576V321.601H434.289V363.576" stroke="url(#paint3_linear_1079_679)" stroke-width="15" stroke-miterlimit="10" stroke-linecap="round" stroke-linejoin="round"/>
<defs>
<linearGradient id="paint0_linear_1079_679" x1="119.996" y1="12.5676" x2="477.94" y2="300.594" gradientUnits="userSpaceOnUse">
<stop stop-color="#8705FF"/>
<stop offset="1" stop-color="#CC00FF"/>
</linearGradient>
<linearGradient id="paint1_linear_1079_679" x1="238.267" y1="365.199" x2="347.919" y2="565.028" gradientUnits="userSpaceOnUse">
<stop stop-color="#8705FF"/>
<stop offset="1" stop-color="#CC00FF"/>
</linearGradient>
<linearGradient id="paint2_linear_1079_679" x1="60.4787" y1="365.199" x2="170.13" y2="565.028" gradientUnits="userSpaceOnUse">
<stop stop-color="#8705FF"/>
<stop offset="1" stop-color="#CC00FF"/>
</linearGradient>
<linearGradient id="paint3_linear_1079_679" x1="7.11191" y1="282.207" x2="181.389" y2="601.386" gradientUnits="userSpaceOnUse">
<stop stop-color="#8705FF"/>
<stop offset="1" stop-color="#CC00FF"/>
</linearGradient>
</defs>
</svg>
