<svg width="513" height="512" viewBox="0 0 513 512" fill="none" xmlns="http://www.w3.org/2000/svg">
<path d="M499.32 204.02C492.29 191.71 482.76 181.99 471.97 175.98C474.77 167.83 476.18 159.29 476.18 150.52C476.18 107.16 440.89 71.89 397.52 71.89C392.15 71.89 386.85 72.43 381.66 73.49C381.87 71.3 381.98 69.09 381.98 66.87C381.99 30 352 0 315.13 0C289.71 0 267.56 14.26 256.25 35.2C244.94 14.26 222.79 0 197.37 0C160.5 0 130.5 30 130.5 66.87C130.5 69.09 130.61 71.3 130.82 73.5C125.592 72.4261 120.268 71.8867 114.93 71.89C71.57 71.89 36.3 107.16 36.3 150.52C36.3 159.29 37.71 167.82 40.51 175.98C29.72 181.99 20.19 191.71 13.16 204.02C4.56 219.11 0 237.09 0 256C0 274.93 4.56 292.91 13.18 308C20.21 320.31 29.74 330.03 40.52 336.04C37.72 344.17 36.31 352.7 36.31 361.47C36.31 404.84 71.58 440.13 114.94 440.13C120.32 440.13 125.63 439.59 130.82 438.52C130.608 440.714 130.501 442.916 130.5 445.12C130.5 481.99 160.5 511.99 197.37 511.99C222.79 511.99 244.94 497.73 256.25 476.79C267.56 497.73 289.71 511.99 315.13 511.99C352 511.99 382 481.99 382 445.12C382 442.91 381.89 440.71 381.68 438.53C386.86 439.59 392.16 440.13 397.54 440.13C440.91 440.13 476.2 404.84 476.2 361.47C476.2 352.69 474.79 344.17 471.99 336.04C482.77 330.03 492.3 320.3 499.33 308C507.95 292.91 512.51 274.93 512.51 256C512.5 237.09 507.94 219.11 499.32 204.02ZM327.88 324.06C327.88 326.01 326.24 327.66 324.31 327.66H188.19C186.24 327.66 184.59 326.01 184.59 324.06V187.97C184.59 186.02 186.24 184.37 188.19 184.37H324.31C326.25 184.37 327.88 186.02 327.88 187.97V324.06ZM197.37 496.01C169.31 496.01 146.49 473.18 146.49 445.13C146.49 439.78 147.31 434.52 148.94 429.5C149.09 429.05 149.18 428.59 149.24 428.13C149.49 427.72 149.72 427.29 149.9 426.82C155.42 412.48 167.46 401.17 182.11 396.57C186.32 395.25 188.66 390.76 187.34 386.55C186.02 382.34 181.52 380 177.32 381.32C158.15 387.35 142.39 402.11 135.09 420.83C128.604 423.035 121.8 424.156 114.95 424.15C80.41 424.15 52.3 396.03 52.3 361.48C52.3 352.34 54.22 343.56 58 335.38C58.93 333.37 58.98 331.06 58.15 329.01C57.32 326.96 55.67 325.35 53.6 324.56C31.46 316.11 16 287.92 16 256C16 224.1 31.46 195.92 53.6 187.47C55.67 186.68 57.32 185.07 58.15 183.02C58.99 180.97 58.94 178.67 58.01 176.66C54.23 168.45 52.31 159.65 52.31 150.52C52.31 115.98 80.41 87.87 114.96 87.87C121.86 87.87 128.61 88.99 135.08 91.19C142.43 110.02 157.89 124.58 177.34 130.68C178.14 130.93 178.94 131.05 179.73 131.05C183.13 131.05 186.28 128.86 187.36 125.45C187.674 124.448 187.788 123.394 187.695 122.348C187.602 121.302 187.303 120.285 186.817 119.354C186.33 118.424 185.665 117.598 184.859 116.925C184.053 116.251 183.122 115.743 182.12 115.43C166.19 110.44 153.78 97.97 148.8 82.02C147.274 77.115 146.502 72.0068 146.51 66.87C146.51 38.81 169.34 15.99 197.39 15.99C225.44 15.99 248.27 38.82 248.27 66.87V168.38H188.2C177.4 168.38 168.61 177.17 168.61 187.97V191.34H108.45V175.22C119.41 171.81 127.39 161.57 127.39 149.5C127.39 134.65 115.31 122.57 100.46 122.57C85.61 122.57 73.53 134.65 73.53 149.5C73.53 161.57 81.51 171.8 92.47 175.22V199.34C92.47 203.76 96.05 207.33 100.46 207.33H168.61V248.01H83.94C80.53 237.05 70.29 229.07 58.22 229.07C43.37 229.07 31.29 241.15 31.29 256C31.29 270.85 43.37 282.93 58.22 282.93C70.29 282.93 80.52 274.95 83.94 263.99H168.6V304.7H100.45C96.03 304.7 92.46 308.28 92.46 312.69V336.8C81.5 340.21 73.52 350.44 73.52 362.49C73.52 377.34 85.6 389.42 100.45 389.42C115.3 389.42 127.38 377.34 127.38 362.49C127.38 350.44 119.4 340.21 108.44 336.8V320.68H168.59V324.05C168.59 334.85 177.38 343.64 188.18 343.64H248.25V445.12C248.26 473.18 225.43 496.01 197.37 496.01ZM100.46 160.44C94.43 160.44 89.52 155.53 89.52 149.5C89.52 143.47 94.43 138.56 100.46 138.56C106.49 138.56 111.4 143.47 111.4 149.5C111.4 155.53 106.49 160.44 100.46 160.44ZM69.16 256C69.16 262.03 64.25 266.94 58.22 266.94C52.19 266.94 47.28 262.03 47.28 256C47.28 249.97 52.19 245.06 58.22 245.06C64.25 245.06 69.16 249.97 69.16 256ZM100.46 351.58C106.49 351.58 111.4 356.48 111.4 362.49C111.4 368.52 106.49 373.43 100.46 373.43C94.43 373.43 89.52 368.52 89.52 362.49C89.52 356.48 94.42 351.58 100.46 351.58ZM458.91 324.56C456.84 325.35 455.19 326.96 454.36 329.01C453.52 331.06 453.58 333.37 454.51 335.38C458.29 343.56 460.21 352.34 460.21 361.48C460.21 396.04 432.09 424.15 397.54 424.15C390.63 424.15 383.88 423.03 377.43 420.83C373.799 411.5 368.118 403.106 360.807 396.267C353.496 389.429 344.741 384.32 335.19 381.32C330.98 380 326.49 382.34 325.17 386.55C323.85 390.76 326.19 395.25 330.4 396.57C338.293 399.05 345.461 403.418 351.284 409.296C357.106 415.174 361.406 422.384 363.81 430.3C365.27 435.08 366.01 440.06 366.01 445.12C366.01 473.18 343.18 496 315.13 496C287.08 496 264.25 473.17 264.25 445.12V343.65H324.32C335.1 343.65 343.88 334.86 343.88 324.06V320.69H404.06V336.81C393.1 340.22 385.12 350.45 385.12 362.5C385.12 377.35 397.2 389.43 412.05 389.43C426.9 389.43 438.98 377.35 438.98 362.5C438.98 350.45 431 340.22 420.04 336.81V312.7C420.04 308.28 416.46 304.71 412.05 304.71H343.88V264H428.57C431.98 274.96 442.22 282.94 454.29 282.94C469.14 282.94 481.22 270.86 481.22 256.01C481.22 241.16 469.14 229.08 454.29 229.08C442.22 229.08 431.99 237.06 428.57 248.02H343.88V207.34H412.05C416.47 207.34 420.04 203.76 420.04 199.35V175.23C431 171.82 438.98 161.58 438.98 149.51C438.98 134.66 426.9 122.58 412.05 122.58C397.2 122.58 385.12 134.66 385.12 149.51C385.12 161.58 393.1 171.81 404.06 175.23V191.35H343.88V187.98C343.88 177.18 335.11 168.39 324.32 168.39H264.25V66.87C264.25 38.81 287.08 15.99 315.13 15.99C343.18 15.99 366.01 38.82 366.01 66.87C366.01 72.21 365.19 77.44 363.59 82.44C363.57 82.49 363.55 82.53 363.54 82.58C358.46 98.23 346.07 110.51 330.4 115.43C326.19 116.75 323.85 121.24 325.17 125.45C325.483 126.452 325.991 127.383 326.665 128.188C327.338 128.993 328.164 129.658 329.095 130.144C330.026 130.63 331.043 130.927 332.089 131.019C333.135 131.111 334.189 130.996 335.19 130.68C354.55 124.6 370.09 109.99 377.43 91.19C383.88 88.99 390.63 87.87 397.54 87.87C432.1 87.87 460.21 115.97 460.21 150.52C460.21 159.65 458.29 168.44 454.51 176.66C453.58 178.67 453.53 180.97 454.37 183.02C455.21 185.07 456.85 186.68 458.92 187.47C481.06 195.92 496.52 224.1 496.52 256C496.51 287.92 481.05 316.11 458.91 324.56ZM412.04 351.58C418.07 351.58 422.98 356.48 422.98 362.49C422.98 368.52 418.07 373.43 412.04 373.43C406.01 373.43 401.1 368.52 401.1 362.49C401.1 356.48 406.01 351.58 412.04 351.58ZM443.34 256C443.34 249.97 448.25 245.06 454.28 245.06C460.31 245.06 465.22 249.97 465.22 256C465.22 262.03 460.31 266.94 454.28 266.94C448.25 266.94 443.34 262.03 443.34 256ZM412.04 160.44C406.01 160.44 401.1 155.53 401.1 149.5C401.1 143.47 406.01 138.56 412.04 138.56C418.07 138.56 422.98 143.47 422.98 149.5C422.98 155.53 418.08 160.44 412.04 160.44ZM301.09 203.19H211.4C206.99 203.19 203.41 206.77 203.41 211.18V300.84C203.41 305.26 206.99 308.83 211.4 308.83H301.09C305.5 308.83 309.08 305.25 309.08 300.84V211.18C309.09 206.77 305.51 203.19 301.09 203.19ZM293.1 292.85H219.4V219.18H293.1V292.85Z" fill="url(#paint0_linear_693_182)"/>
<defs>
<linearGradient id="paint0_linear_693_182" x1="70.3912" y1="-0.999989" x2="449.025" y2="542.416" gradientUnits="userSpaceOnUse">
<stop stop-color="#8705FF"/>
<stop offset="1" stop-color="#CC00FF"/>
</linearGradient>
</defs>
</svg>
