<svg width="513" height="513" viewBox="0 0 513 513" fill="none" xmlns="http://www.w3.org/2000/svg">
<g clip-path="url(#clip0_1347_31)">
<path d="M499.32 204.52C492.29 192.21 482.76 182.49 471.97 176.48C474.77 168.33 476.18 159.79 476.18 151.02C476.18 107.66 440.89 72.39 397.52 72.39C392.15 72.39 386.85 72.93 381.66 73.99C381.87 71.8 381.98 69.59 381.98 67.37C381.99 30.5 352 0.5 315.13 0.5C289.71 0.5 267.56 14.76 256.25 35.7C244.94 14.76 222.79 0.5 197.37 0.5C160.5 0.5 130.5 30.5 130.5 67.37C130.5 69.59 130.61 71.8 130.82 74C125.592 72.9261 120.268 72.3867 114.93 72.39C71.57 72.39 36.3 107.66 36.3 151.02C36.3 159.79 37.71 168.32 40.51 176.48C29.72 182.49 20.19 192.21 13.16 204.52C4.56 219.61 0 237.59 0 256.5C0 275.43 4.56 293.41 13.18 308.5C20.21 320.81 29.74 330.53 40.52 336.54C37.72 344.67 36.31 353.2 36.31 361.97C36.31 405.34 71.58 440.63 114.94 440.63C120.32 440.63 125.63 440.09 130.82 439.02C130.608 441.214 130.501 443.416 130.5 445.62C130.5 482.49 160.5 512.49 197.37 512.49C222.79 512.49 244.94 498.23 256.25 477.29C267.56 498.23 289.71 512.49 315.13 512.49C352 512.49 382 482.49 382 445.62C382 443.41 381.89 441.21 381.68 439.03C386.86 440.09 392.16 440.63 397.54 440.63C440.91 440.63 476.2 405.34 476.2 361.97C476.2 353.19 474.79 344.67 471.99 336.54C482.77 330.53 492.3 320.8 499.33 308.5C507.95 293.41 512.51 275.43 512.51 256.5C512.5 237.59 507.94 219.61 499.32 204.52ZM327.88 324.56C327.88 326.51 326.24 328.16 324.31 328.16H188.19C186.24 328.16 184.59 326.51 184.59 324.56V188.47C184.59 186.52 186.24 184.87 188.19 184.87H324.31C326.25 184.87 327.88 186.52 327.88 188.47V324.56ZM197.37 496.51C169.31 496.51 146.49 473.68 146.49 445.63C146.49 440.28 147.31 435.02 148.94 430C149.09 429.55 149.18 429.09 149.24 428.63C149.49 428.22 149.72 427.79 149.9 427.32C155.42 412.98 167.46 401.67 182.11 397.07C186.32 395.75 188.66 391.26 187.34 387.05C186.02 382.84 181.52 380.5 177.32 381.82C158.15 387.85 142.39 402.61 135.09 421.33C128.604 423.535 121.8 424.656 114.95 424.65C80.41 424.65 52.3 396.53 52.3 361.98C52.3 352.84 54.22 344.06 58 335.88C58.93 333.87 58.98 331.56 58.15 329.51C57.32 327.46 55.67 325.85 53.6 325.06C31.46 316.61 16 288.42 16 256.5C16 224.6 31.46 196.42 53.6 187.97C55.67 187.18 57.32 185.57 58.15 183.52C58.99 181.47 58.94 179.17 58.01 177.16C54.23 168.95 52.31 160.15 52.31 151.02C52.31 116.48 80.41 88.37 114.96 88.37C121.86 88.37 128.61 89.49 135.08 91.69C142.43 110.52 157.89 125.08 177.34 131.18C178.14 131.43 178.94 131.55 179.73 131.55C183.13 131.55 186.28 129.36 187.36 125.95C187.674 124.948 187.788 123.894 187.695 122.848C187.602 121.802 187.303 120.785 186.817 119.854C186.33 118.924 185.665 118.098 184.859 117.425C184.053 116.751 183.122 116.243 182.12 115.93C166.19 110.94 153.78 98.47 148.8 82.52C147.274 77.615 146.502 72.5068 146.51 67.37C146.51 39.31 169.34 16.49 197.39 16.49C225.44 16.49 248.27 39.32 248.27 67.37V168.88H188.2C177.4 168.88 168.61 177.67 168.61 188.47V191.84H108.45V175.72C119.41 172.31 127.39 162.07 127.39 150C127.39 135.15 115.31 123.07 100.46 123.07C85.61 123.07 73.53 135.15 73.53 150C73.53 162.07 81.51 172.3 92.47 175.72V199.84C92.47 204.26 96.05 207.83 100.46 207.83H168.61V248.51H83.94C80.53 237.55 70.29 229.57 58.22 229.57C43.37 229.57 31.29 241.65 31.29 256.5C31.29 271.35 43.37 283.43 58.22 283.43C70.29 283.43 80.52 275.45 83.94 264.49H168.6V305.2H100.45C96.03 305.2 92.46 308.78 92.46 313.19V337.3C81.5 340.71 73.52 350.94 73.52 362.99C73.52 377.84 85.6 389.92 100.45 389.92C115.3 389.92 127.38 377.84 127.38 362.99C127.38 350.94 119.4 340.71 108.44 337.3V321.18H168.59V324.55C168.59 335.35 177.38 344.14 188.18 344.14H248.25V445.62C248.26 473.68 225.43 496.51 197.37 496.51ZM100.46 160.94C94.43 160.94 89.52 156.03 89.52 150C89.52 143.97 94.43 139.06 100.46 139.06C106.49 139.06 111.4 143.97 111.4 150C111.4 156.03 106.49 160.94 100.46 160.94ZM69.16 256.5C69.16 262.53 64.25 267.44 58.22 267.44C52.19 267.44 47.28 262.53 47.28 256.5C47.28 250.47 52.19 245.56 58.22 245.56C64.25 245.56 69.16 250.47 69.16 256.5ZM100.46 352.08C106.49 352.08 111.4 356.98 111.4 362.99C111.4 369.02 106.49 373.93 100.46 373.93C94.43 373.93 89.52 369.02 89.52 362.99C89.52 356.98 94.42 352.08 100.46 352.08ZM458.91 325.06C456.84 325.85 455.19 327.46 454.36 329.51C453.52 331.56 453.58 333.87 454.51 335.88C458.29 344.06 460.21 352.84 460.21 361.98C460.21 396.54 432.09 424.65 397.54 424.65C390.63 424.65 383.88 423.53 377.43 421.33C373.799 412 368.118 403.606 360.807 396.767C353.496 389.929 344.741 384.82 335.19 381.82C330.98 380.5 326.49 382.84 325.17 387.05C323.85 391.26 326.19 395.75 330.4 397.07C338.293 399.55 345.461 403.918 351.284 409.796C357.106 415.674 361.406 422.884 363.81 430.8C365.27 435.58 366.01 440.56 366.01 445.62C366.01 473.68 343.18 496.5 315.13 496.5C287.08 496.5 264.25 473.67 264.25 445.62V344.15H324.32C335.1 344.15 343.88 335.36 343.88 324.56V321.19H404.06V337.31C393.1 340.72 385.12 350.95 385.12 363C385.12 377.85 397.2 389.93 412.05 389.93C426.9 389.93 438.98 377.85 438.98 363C438.98 350.95 431 340.72 420.04 337.31V313.2C420.04 308.78 416.46 305.21 412.05 305.21H343.88V264.5H428.57C431.98 275.46 442.22 283.44 454.29 283.44C469.14 283.44 481.22 271.36 481.22 256.51C481.22 241.66 469.14 229.58 454.29 229.58C442.22 229.58 431.99 237.56 428.57 248.52H343.88V207.84H412.05C416.47 207.84 420.04 204.26 420.04 199.85V175.73C431 172.32 438.98 162.08 438.98 150.01C438.98 135.16 426.9 123.08 412.05 123.08C397.2 123.08 385.12 135.16 385.12 150.01C385.12 162.08 393.1 172.31 404.06 175.73V191.85H343.88V188.48C343.88 177.68 335.11 168.89 324.32 168.89H264.25V67.37C264.25 39.31 287.08 16.49 315.13 16.49C343.18 16.49 366.01 39.32 366.01 67.37C366.01 72.71 365.19 77.94 363.59 82.94C363.57 82.99 363.55 83.03 363.54 83.08C358.46 98.73 346.07 111.01 330.4 115.93C326.19 117.25 323.85 121.74 325.17 125.95C325.483 126.952 325.991 127.883 326.665 128.688C327.338 129.493 328.164 130.158 329.095 130.644C330.026 131.13 331.043 131.427 332.089 131.519C333.135 131.611 334.189 131.496 335.19 131.18C354.55 125.1 370.09 110.49 377.43 91.69C383.88 89.49 390.63 88.37 397.54 88.37C432.1 88.37 460.21 116.47 460.21 151.02C460.21 160.15 458.29 168.94 454.51 177.16C453.58 179.17 453.53 181.47 454.37 183.52C455.21 185.57 456.85 187.18 458.92 187.97C481.06 196.42 496.52 224.6 496.52 256.5C496.51 288.42 481.05 316.61 458.91 325.06ZM412.04 352.08C418.07 352.08 422.98 356.98 422.98 362.99C422.98 369.02 418.07 373.93 412.04 373.93C406.01 373.93 401.1 369.02 401.1 362.99C401.1 356.98 406.01 352.08 412.04 352.08ZM443.34 256.5C443.34 250.47 448.25 245.56 454.28 245.56C460.31 245.56 465.22 250.47 465.22 256.5C465.22 262.53 460.31 267.44 454.28 267.44C448.25 267.44 443.34 262.53 443.34 256.5ZM412.04 160.94C406.01 160.94 401.1 156.03 401.1 150C401.1 143.97 406.01 139.06 412.04 139.06C418.07 139.06 422.98 143.97 422.98 150C422.98 156.03 418.08 160.94 412.04 160.94ZM301.09 203.69H211.4C206.99 203.69 203.41 207.27 203.41 211.68V301.34C203.41 305.76 206.99 309.33 211.4 309.33H301.09C305.5 309.33 309.08 305.75 309.08 301.34V211.68C309.09 207.27 305.51 203.69 301.09 203.69ZM293.1 293.35H219.4V219.68H293.1V293.35Z" fill="url(#paint0_linear_1347_31)"/>
</g>
<defs>
<linearGradient id="paint0_linear_1347_31" x1="18.2863" y1="33.4995" x2="505.895" y2="593.676" gradientUnits="userSpaceOnUse">
<stop stop-color="#1BA2D7"/>
<stop offset="1" stop-color="#8D3DFA"/>
</linearGradient>
<clipPath id="clip0_1347_31">
<rect width="513" height="512" fill="white" transform="translate(0 0.5)"/>
</clipPath>
</defs>
</svg>
