<svg xmlns="http://www.w3.org/2000/svg" version="1.1" xmlns:xlink="http://www.w3.org/1999/xlink" width="512" height="512" x="0" y="0" viewBox="0 0 682.667 682.667" style="enable-background:new 0 0 512 512" xml:space="preserve"><g><defs><clipPath id="a" clipPathUnits="userSpaceOnUse"><path d="M0 512h512V0H0Z" fill="#000000" opacity="1" data-original="#000000"></path></clipPath></defs><path d="M0 0v-235.845h-439.962v60.452" style="stroke-width:15;stroke-linecap:round;stroke-linejoin:round;stroke-miterlimit:10;stroke-dasharray:none;stroke-opacity:1" transform="matrix(1.33333 0 0 -1.33333 634.676 255.977)" fill="none" stroke="#000000" stroke-width="15" stroke-linecap="round" stroke-linejoin="round" stroke-miterlimit="10" stroke-dasharray="none" stroke-opacity="" data-original="#000000"></path><path d="M0 0h60.49" style="stroke-width:15;stroke-linecap:round;stroke-linejoin:round;stroke-miterlimit:10;stroke-dasharray:none;stroke-opacity:1" transform="matrix(1.33333 0 0 -1.33333 373.529 190.311)" fill="none" stroke="#000000" stroke-width="15" stroke-linecap="round" stroke-linejoin="round" stroke-miterlimit="10" stroke-dasharray="none" stroke-opacity="" data-original="#000000"></path><g clip-path="url(#a)" transform="matrix(1.33333 0 0 -1.33333 0 682.667)"><path d="M0 0v176.923c0 7.231 5.862 13.094 13.094 13.094h71.052" style="stroke-width:15;stroke-linecap:round;stroke-linejoin:round;stroke-miterlimit:10;stroke-dasharray:none;stroke-opacity:1" transform="translate(36.044 179.25)" fill="none" stroke="#000000" stroke-width="15" stroke-linecap="round" stroke-linejoin="round" stroke-miterlimit="10" stroke-dasharray="none" stroke-opacity="" data-original="#000000"></path><path d="M0 0v-169.182c0-6.628-5.373-12-12-12h-349.101c-6.627 0-12 5.372-12 12V17.861c0 6.628 5.373 12 12 12h38.716" style="stroke-width:15;stroke-linecap:round;stroke-linejoin:round;stroke-miterlimit:10;stroke-dasharray:none;stroke-opacity:1" transform="translate(442.576 302.38)" fill="none" stroke="#000000" stroke-width="15" stroke-linecap="round" stroke-linejoin="round" stroke-miterlimit="10" stroke-dasharray="none" stroke-opacity="" data-original="#000000"></path><path d="M0 0h76.104" style="stroke-width:15;stroke-linecap:round;stroke-linejoin:round;stroke-miterlimit:10;stroke-dasharray:none;stroke-opacity:1" transform="translate(280.147 332.241)" fill="none" stroke="#000000" stroke-width="15" stroke-linecap="round" stroke-linejoin="round" stroke-miterlimit="10" stroke-dasharray="none" stroke-opacity="" data-original="#000000"></path><path d="M0 0h-207.771v-20.329c0-3.5-2.837-6.338-6.337-6.338h-51.793a6.338 6.338 0 0 0-6.337 6.338V0h-207.771a8.175 8.175 0 0 1-8.175-8.176v-22.998c0-14.047 11.386-25.432 25.433-25.432h445.493c14.046 0 25.433 11.386 25.433 25.432v22.998A8.175 8.175 0 0 1 0 0Z" style="stroke-width:15;stroke-linecap:round;stroke-linejoin:round;stroke-miterlimit:10;stroke-dasharray:none;stroke-opacity:1" transform="translate(495.93 84.205)" fill="none" stroke="#000000" stroke-width="15" stroke-linecap="round" stroke-linejoin="round" stroke-miterlimit="10" stroke-dasharray="none" stroke-opacity="" data-original="#000000"></path><path d="M0 0c14.27 11.887 32.623 19.038 52.647 19.038 45.457 0 82.306-36.85 82.306-82.306 0-45.456-36.849-82.305-82.306-82.305-45.456 0-82.305 36.849-82.305 82.305 0 12.81 2.927 24.937 8.147 35.747" style="stroke-width:15;stroke-linecap:round;stroke-linejoin:round;stroke-miterlimit:10;stroke-dasharray:none;stroke-opacity:1" transform="translate(369.3 445.347)" fill="none" stroke="#000000" stroke-width="15" stroke-linecap="round" stroke-linejoin="round" stroke-miterlimit="10" stroke-dasharray="none" stroke-opacity="" data-original="#000000"></path><path d="m0 0-36.533-36.533a.81.81 0 0 0-1.147 0l-9.79 9.789c-5.493 5.494-14.4 5.494-19.894 0-5.494-5.493-5.494-14.401 0-19.895l24.819-24.819a7.69 7.69 0 0 1 10.875 0l51.566 51.562c5.493 5.495 5.493 14.402 0 19.896C14.401 5.493 5.494 5.493 0 0Z" style="stroke-width:15;stroke-linecap:round;stroke-linejoin:round;stroke-miterlimit:10;stroke-dasharray:none;stroke-opacity:1" transform="translate(445.683 416.874)" fill="none" stroke="#000000" stroke-width="15" stroke-linecap="round" stroke-linejoin="round" stroke-miterlimit="10" stroke-dasharray="none" stroke-opacity="" data-original="#000000"></path><path d="M0 0h-132.464c-7.592 0-13.745 6.154-13.745 13.745v241.554c0 7.592 6.153 13.745 13.745 13.745H0c7.592 0 13.746-6.153 13.746-13.745V13.745C13.746 6.154 7.592 0 0 0Z" style="stroke-width:15;stroke-linecap:round;stroke-linejoin:round;stroke-miterlimit:10;stroke-dasharray:none;stroke-opacity:1" transform="translate(266.4 215.357)" fill="none" stroke="#000000" stroke-width="15" stroke-linecap="round" stroke-linejoin="round" stroke-miterlimit="10" stroke-dasharray="none" stroke-opacity="" data-original="#000000"></path><path d="M0 0h-132.464c-7.592 0-13.745 6.154-13.745 13.745v32.523H13.746V13.745C13.746 6.154 7.592 0 0 0Z" style="stroke-width:15;stroke-linecap:round;stroke-linejoin:round;stroke-miterlimit:10;stroke-dasharray:none;stroke-opacity:1" transform="translate(266.4 215.357)" fill="none" stroke="#000000" stroke-width="15" stroke-linecap="round" stroke-linejoin="round" stroke-miterlimit="10" stroke-dasharray="none" stroke-opacity="" data-original="#000000"></path><path d="M0 0h-44.162l4.295-18.963a8.592 8.592 0 0 1 8.379-6.694h62.976a8.591 8.591 0 0 1 8.379 6.694L44.162 0Z" style="stroke-width:15;stroke-linecap:round;stroke-linejoin:round;stroke-miterlimit:10;stroke-dasharray:none;stroke-opacity:1" transform="translate(200.168 484.401)" fill="none" stroke="#000000" stroke-width="15" stroke-linecap="round" stroke-linejoin="round" stroke-miterlimit="10" stroke-dasharray="none" stroke-opacity="" data-original="#000000"></path><path d="M0 0c0-6.375-5.168-11.543-11.543-11.543-6.375 0-11.543 5.168-11.543 11.543 0 6.376 5.168 11.544 11.543 11.544C-5.168 11.544 0 6.376 0 0" style="fill-opacity:1;fill-rule:nonzero;stroke:none" transform="translate(171.755 357.723)" fill="#000000" data-original="#000000"></path><path d="M0 0c0-6.375-5.168-11.543-11.543-11.543-6.375 0-11.543 5.168-11.543 11.543 0 6.376 5.168 11.544 11.543 11.544C-5.168 11.544 0 6.376 0 0" style="fill-opacity:1;fill-rule:nonzero;stroke:none" transform="translate(211.712 357.723)" fill="#000000" data-original="#000000"></path><path d="M0 0c0-6.375-5.168-11.543-11.543-11.543-6.375 0-11.543 5.168-11.543 11.543 0 6.376 5.168 11.544 11.543 11.544C-5.168 11.544 0 6.376 0 0" style="fill-opacity:1;fill-rule:nonzero;stroke:none" transform="translate(251.668 357.723)" fill="#000000" data-original="#000000"></path></g></g></svg>