<svg width="510" height="480" viewBox="0 0 510 480" fill="none" xmlns="http://www.w3.org/2000/svg">
<path d="M349.9 479.5C330.931 479.5 315.5 464.068 315.5 445.1V374.5H157.47C153.61 374.5 150.47 371.359 150.47 367.5C150.47 363.641 153.61 360.5 157.47 360.5H315.5V299.5H299.5V306.15C299.5 323.161 285.661 337 268.65 337H241.35C224.339 337 210.5 323.161 210.5 306.15V299.5H14.5V334.5C14.5 348.837 26.164 360.5 40.5 360.5H97.53C101.39 360.5 104.53 363.641 104.53 367.5C104.53 371.359 101.39 374.5 97.53 374.5H40.5C18.444 374.5 0.5 356.556 0.5 334.5V292.5C0.5 288.641 3.64 285.5 7.5 285.5H23V47.55C23 21.606 44.106 0.5 70.05 0.5H439.95C465.893 0.5 487 21.606 487 47.55V182.629L487.322 182.752C500.587 187.813 509.5 200.732 509.5 214.901V445.1C509.5 464.069 494.068 479.5 475.1 479.5H349.9ZM329.5 445.1C329.5 456.349 338.651 465.5 349.9 465.5H475.1C486.349 465.5 495.5 456.349 495.5 445.1V427H329.5V445.1ZM349.9 194.5C338.651 194.5 329.5 203.651 329.5 214.9V413H495.5V214.9C495.5 205.849 489.409 197.788 480.689 195.296L480.603 195.272L480.515 195.279C480.333 195.292 480.151 195.299 479.969 195.299C478.95 195.302 477.943 195.075 477.024 194.634L476.943 194.595L476.854 194.588C475.956 194.511 475.754 194.493 473.508 194.493L470.753 194.497C468.525 194.501 465.287 194.507 460.481 194.507C457.594 194.507 449.5 194.498 449.5 194.498V196.166C449.5 211.789 436.79 224.499 421.167 224.499H403.833C388.21 224.499 375.5 211.789 375.5 196.166V194.5H349.9ZM224.5 306.15C224.5 315.441 232.059 323 241.35 323H268.651C277.942 323 285.501 315.441 285.501 306.15V299.5H224.501V306.15H224.5ZM74.5 285.5H315.5V214.9C315.5 195.932 330.932 180.5 349.9 180.5H435.5V52H412.5C408.641 52 405.5 48.86 405.5 45C405.5 41.14 408.641 38 412.5 38H437.15C443.96 38 449.5 43.54 449.5 50.35V180.5H473V47.55C473 29.326 458.174 14.5 439.95 14.5H70.05C51.826 14.5 37 29.326 37 47.55V285.5H60.5V50.35C60.5 43.54 66.04 38 72.85 38H352.5C356.359 38 359.5 41.14 359.5 45C359.5 48.86 356.359 52 352.5 52H74.5V285.5ZM389.5 196.167C389.5 204.07 395.93 210.5 403.833 210.5H421.167C429.07 210.5 435.5 204.07 435.5 196.167V194.5H389.5V196.167Z" fill="url(#paint0_linear_693_192)"/>
<path d="M439.95 1C465.618 1 486.5 21.882 486.5 47.55V182.973L487.144 183.219C500.217 188.206 509 200.938 509 214.9V445.1C509 463.793 493.792 479 475.1 479H349.9C331.207 479 316 463.792 316 445.1V374H157.47C153.886 374 150.97 371.084 150.97 367.5C150.97 363.916 153.886 361 157.47 361H316V299H299V306.15C299 322.885 285.385 336.5 268.65 336.5H241.35C224.615 336.5 211 322.885 211 306.15V299H14V334.5C14 349.112 25.888 361 40.5 361H97.53C101.114 361 104.03 363.916 104.03 367.5C104.03 371.084 101.114 374 97.53 374H40.5C18.72 374 1 356.28 1 334.5V292.5C1 288.916 3.916 286 7.5 286H23.5V47.55C23.5 21.882 44.382 1 70.05 1H439.95ZM36.5 286H61V50.35C61 43.816 66.316 38.5 72.85 38.5H352.5C356.084 38.5 359 41.416 359 45C359 48.584 356.084 51.5 352.5 51.5H74V286H316V214.9C316 196.207 331.208 181 349.9 181H436V51.5H412.5C408.916 51.5 406 48.584 406 45C406 41.416 408.916 38.5 412.5 38.5H437.15C443.684 38.5 449 43.816 449 50.35V181H473.5V47.55C473.5 29.05 458.45 14 439.95 14H70.05C51.55 14 36.5 29.05 36.5 47.55V285V286ZM460.48 194.008C457.594 194.008 454.14 194.006 450.002 194L449 193.999V196.167C449 211.514 436.514 224 421.167 224H403.833C388.486 224 376 211.514 376 196.167V194H349.9C338.375 194 329 203.376 329 214.9V413.5H496V214.9C496 205.627 489.76 197.368 480.826 194.816L480.656 194.767L480.479 194.78C480.31 194.792 480.141 194.799 479.971 194.799C479.025 194.802 478.091 194.591 477.238 194.182L477.026 194.101L476.847 194.086C475.982 194.012 475.776 193.994 473.511 193.994C472.817 193.994 471.926 193.996 470.756 193.998C468.529 194.002 465.29 194.008 460.48 194.008ZM403.833 211H421.167C429.346 211 436 204.346 436 196.167V194H389V196.167C389 204.346 395.654 211 403.833 211ZM241.35 323.5H268.651C278.218 323.5 286.001 315.717 286.001 306.15V299H224.001V306.15C224 315.717 231.783 323.5 241.35 323.5ZM349.9 466H475.1C486.625 466 496 456.624 496 445.1V426.5H329V445.1C329 456.624 338.376 466 349.9 466ZM439.95 0H70.05C43.831 0 22.5 21.331 22.5 47.55V285H7.5C6.51505 285 5.53972 285.194 4.62972 285.571C3.71972 285.948 2.89287 286.5 2.19641 287.196C1.49994 287.893 0.9475 288.72 0.570636 289.63C0.193772 290.54 -0.000131286 291.515 6.66906e-08 292.5V334.5C6.66906e-08 356.832 18.168 375 40.5 375H97.53C101.673 375 105.03 371.643 105.03 367.5C105.03 363.357 101.673 360 97.53 360H40.5C26.439 360 15 348.561 15 334.5V300H210V306.15C210 323.436 224.063 337.5 241.35 337.5H268.651C285.937 337.5 300.001 323.437 300.001 306.15V300H315.001V360H157.47C153.327 360 149.97 363.357 149.97 367.5C149.97 371.643 153.327 375 157.47 375H315V445.1C315 464.344 330.656 480 349.9 480H475.1C494.344 480 510 464.344 510 445.1V214.9C510 200.022 500.639 187.296 487.5 182.284V47.55C487.5 21.331 466.169 0 439.95 0ZM37.5 285V47.55C37.5 29.602 52.102 15 70.05 15H439.95C457.898 15 472.5 29.602 472.5 47.55V180H450V50.35C450 43.265 444.235 37.5 437.15 37.5H412.5C408.357 37.5 405 40.857 405 45C405 49.143 408.357 52.5 412.5 52.5H435V180H349.9C330.656 180 315 195.656 315 214.9V285H75V52.5H352.5C356.643 52.5 360 49.143 360 45C360 40.857 356.643 37.5 352.5 37.5H72.85C65.765 37.5 60 43.265 60 50.35V285H37.5ZM460.48 195.008C467.813 195.008 471.496 194.994 473.512 194.994C475.778 194.994 475.939 195.012 476.812 195.086C477.798 195.557 478.878 195.8 479.971 195.798C480.162 195.798 480.356 195.791 480.552 195.777C488.879 198.156 495 205.82 495 214.9V412.5H330V214.9C330 203.927 338.928 195 349.9 195H375V196.167C375 212.065 387.935 225 403.833 225H421.167C437.065 225 450 212.065 450 196.167V195C454.139 195.006 457.593 195.008 460.48 195.008ZM403.833 210C396.205 210 390 203.795 390 196.167V195H435V196.167C435 203.795 428.795 210 421.167 210H403.833ZM241.35 322.5C232.334 322.5 225 315.166 225 306.15V300H285V306.15C285 315.166 277.666 322.5 268.65 322.5H241.35ZM349.9 465C338.927 465 330 456.072 330 445.1V427.5H495V445.1C495 456.073 486.072 465 475.1 465H349.9Z" fill="url(#paint1_linear_693_192)"/>
<path d="M187.5 247C142.285 247 105.5 210.215 105.5 165C105.5 119.785 142.285 83 187.5 83C232.715 83 269.5 119.785 269.5 165C269.5 210.215 232.715 247 187.5 247ZM187.5 97C150.005 97 119.5 127.505 119.5 165C119.5 202.495 150.005 233 187.5 233C224.995 233 255.5 202.495 255.5 165C255.5 127.505 224.995 97 187.5 97Z" fill="url(#paint2_linear_693_192)"/>
<path d="M187.5 83.5C232.439 83.5 269 120.061 269 165C269 209.939 232.439 246.5 187.5 246.5C142.561 246.5 106 209.939 106 165C106 120.061 142.561 83.5 187.5 83.5ZM187.5 233.5C225.271 233.5 256 202.771 256 165C256 127.229 225.271 96.5 187.5 96.5C149.729 96.5 119 127.229 119 165C119 202.771 149.729 233.5 187.5 233.5ZM187.5 82.5C142.01 82.5 105 119.51 105 165C105 210.49 142.01 247.5 187.5 247.5C232.99 247.5 270 210.49 270 165C270 119.51 232.99 82.5 187.5 82.5ZM187.5 232.5C150.28 232.5 120 202.22 120 165C120 127.78 150.28 97.5 187.5 97.5C224.72 97.5 255 127.78 255 165C255 202.22 224.72 232.5 187.5 232.5Z" fill="url(#paint3_linear_693_192)"/>
<path d="M180.001 187C179.081 187.002 178.17 186.823 177.32 186.471C176.471 186.119 175.699 185.602 175.051 184.95L152.551 162.45C149.822 159.721 149.822 155.279 152.551 152.55C153.873 151.229 155.632 150.501 157.501 150.501C159.37 150.501 161.129 151.229 162.451 152.55L180.001 170.101L212.551 137.55C213.873 136.229 215.632 135.501 217.501 135.501C219.37 135.501 221.129 136.229 222.451 137.55C225.18 140.279 225.18 144.721 222.451 147.45L184.951 184.95C184.302 185.602 183.531 186.119 182.681 186.471C181.831 186.823 180.92 187.002 180.001 187Z" fill="url(#paint4_linear_693_192)"/>
<path d="M217.5 136C219.236 136 220.869 136.676 222.096 137.903C223.313 139.123 223.997 140.776 223.997 142.5C223.997 144.223 223.313 145.876 222.096 147.096L184.596 184.596C183.368 185.824 181.735 186.5 179.999 186.5C178.263 186.5 176.63 185.824 175.402 184.597L152.902 162.097C151.685 160.877 151.002 159.224 151.002 157.501C151.002 155.777 151.685 154.124 152.902 152.904C154.13 151.677 155.763 151.001 157.499 151.001C159.235 151.001 160.868 151.677 162.096 152.904L179.292 170.101L179.999 170.808L180.706 170.101L212.902 137.904C213.505 137.299 214.222 136.819 215.011 136.492C215.8 136.165 216.646 135.998 217.5 136ZM217.5 135C216.515 134.999 215.54 135.192 214.629 135.569C213.719 135.946 212.892 136.499 212.196 137.196L180 169.394L162.804 152.197C162.108 151.5 161.282 150.947 160.371 150.57C159.461 150.193 158.486 150 157.5 150.001C156.017 150.001 154.567 150.441 153.334 151.265C152.1 152.089 151.139 153.26 150.571 154.63C150.003 156.001 149.855 157.509 150.144 158.964C150.433 160.419 151.148 161.755 152.196 162.804L174.696 185.304C176.161 186.768 178.081 187.5 180 187.5C181.919 187.5 183.838 186.768 185.304 185.304L222.804 147.804C223.854 146.755 224.568 145.419 224.858 143.964C225.147 142.509 224.999 141 224.431 139.63C223.863 138.259 222.902 137.088 221.668 136.264C220.434 135.439 218.984 135 217.5 135ZM375 389.5C362.869 389.5 353 379.631 353 367.5C353 355.369 362.869 345.5 375 345.5C387.131 345.5 397 355.369 397 367.5C397 379.631 387.131 389.5 375 389.5ZM375 359.5C370.589 359.5 367 363.089 367 367.5C367 371.911 370.589 375.5 375 375.5C379.411 375.5 383 371.911 383 367.5C383 363.089 379.411 359.5 375 359.5Z" fill="url(#paint5_linear_693_192)"/>
<path d="M375 346C386.855 346 396.5 355.645 396.5 367.5C396.5 379.355 386.855 389 375 389C363.145 389 353.5 379.355 353.5 367.5C353.5 355.645 363.145 346 375 346ZM375 376C379.687 376 383.5 372.187 383.5 367.5C383.5 362.813 379.687 359 375 359C370.313 359 366.5 362.813 366.5 367.5C366.5 372.187 370.313 376 375 376ZM375 345C362.594 345 352.5 355.094 352.5 367.5C352.5 379.906 362.594 390 375 390C387.406 390 397.5 379.906 397.5 367.5C397.5 355.094 387.406 345 375 345ZM375 375C370.864 375 367.5 371.636 367.5 367.5C367.5 363.364 370.864 360 375 360C379.136 360 382.5 363.364 382.5 367.5C382.5 371.636 379.136 375 375 375ZM450 389.5C437.869 389.5 428 379.631 428 367.5C428 355.369 437.869 345.5 450 345.5C462.131 345.5 472 355.369 472 367.5C472 379.631 462.131 389.5 450 389.5ZM450 359.5C445.589 359.5 442 363.089 442 367.5C442 371.911 445.589 375.5 450 375.5C454.411 375.5 458 371.911 458 367.5C458 363.089 454.411 359.5 450 359.5Z" fill="url(#paint6_linear_693_192)"/>
<path d="M450 346C461.855 346 471.5 355.645 471.5 367.5C471.5 379.355 461.855 389 450 389C438.145 389 428.5 379.355 428.5 367.5C428.5 355.645 438.145 346 450 346ZM450 376C454.687 376 458.5 372.187 458.5 367.5C458.5 362.813 454.687 359 450 359C445.313 359 441.5 362.813 441.5 367.5C441.5 372.187 445.313 376 450 376ZM450 345C437.594 345 427.5 355.094 427.5 367.5C427.5 379.906 437.594 390 450 390C462.406 390 472.5 379.906 472.5 367.5C472.5 355.094 462.406 345 450 345ZM450 375C445.864 375 442.5 371.636 442.5 367.5C442.5 363.364 445.864 360 450 360C454.136 360 457.5 363.364 457.5 367.5C457.5 371.636 454.136 375 450 375ZM375 322C362.869 322 353 312.131 353 300C353 287.869 362.869 278 375 278C387.131 278 397 287.869 397 300C397 312.131 387.131 322 375 322ZM375 292C370.589 292 367 295.589 367 300C367 304.411 370.589 308 375 308C379.411 308 383 304.411 383 300C383 295.589 379.411 292 375 292Z" fill="url(#paint7_linear_693_192)"/>
<path d="M375 278.5C386.855 278.5 396.5 288.145 396.5 300C396.5 311.855 386.855 321.5 375 321.5C363.145 321.5 353.5 311.855 353.5 300C353.5 288.145 363.145 278.5 375 278.5ZM375 308.5C379.687 308.5 383.5 304.687 383.5 300C383.5 295.313 379.687 291.5 375 291.5C370.313 291.5 366.5 295.313 366.5 300C366.5 304.687 370.313 308.5 375 308.5ZM375 277.5C362.594 277.5 352.5 287.594 352.5 300C352.5 312.406 362.594 322.5 375 322.5C387.406 322.5 397.5 312.406 397.5 300C397.5 287.594 387.406 277.5 375 277.5ZM375 307.5C370.864 307.5 367.5 304.136 367.5 300C367.5 295.864 370.864 292.5 375 292.5C379.136 292.5 382.5 295.864 382.5 300C382.5 304.136 379.136 307.5 375 307.5ZM450 322C437.869 322 428 312.131 428 300C428 287.869 437.869 278 450 278C462.131 278 472 287.869 472 300C472 312.131 462.131 322 450 322ZM450 292C445.589 292 442 295.589 442 300C442 304.411 445.589 308 450 308C454.411 308 458 304.411 458 300C458 295.589 454.411 292 450 292Z" fill="url(#paint8_linear_693_192)"/>
<path d="M450 278.5C461.855 278.5 471.5 288.145 471.5 300C471.5 311.855 461.855 321.5 450 321.5C438.145 321.5 428.5 311.855 428.5 300C428.5 288.145 438.145 278.5 450 278.5ZM450 308.5C454.687 308.5 458.5 304.687 458.5 300C458.5 295.313 454.687 291.5 450 291.5C445.313 291.5 441.5 295.313 441.5 300C441.5 304.687 445.313 308.5 450 308.5ZM450 277.5C437.594 277.5 427.5 287.594 427.5 300C427.5 312.406 437.594 322.5 450 322.5C462.406 322.5 472.5 312.406 472.5 300C472.5 287.594 462.406 277.5 450 277.5ZM450 307.5C445.864 307.5 442.5 304.136 442.5 300C442.5 295.864 445.864 292.5 450 292.5C454.136 292.5 457.5 295.864 457.5 300C457.5 304.136 454.136 307.5 450 307.5Z" fill="url(#paint9_linear_693_192)"/>
<path d="M382.5 52C386.366 52 389.5 48.866 389.5 45C389.5 41.134 386.366 38 382.5 38C378.634 38 375.5 41.134 375.5 45C375.5 48.866 378.634 52 382.5 52Z" fill="url(#paint10_linear_693_192)"/>
<path d="M382.5 38.5C386.084 38.5 389 41.416 389 45C389 48.584 386.084 51.5 382.5 51.5C378.916 51.5 376 48.584 376 45C376 41.416 378.916 38.5 382.5 38.5ZM382.5 37.5C380.511 37.5 378.603 38.2902 377.197 39.6967C375.79 41.1032 375 43.0109 375 45C375 46.9891 375.79 48.8968 377.197 50.3033C378.603 51.7098 380.511 52.5 382.5 52.5C384.489 52.5 386.397 51.7098 387.803 50.3033C389.21 48.8968 390 46.9891 390 45C390 43.0109 389.21 41.1032 387.803 39.6967C386.397 38.2902 384.489 37.5 382.5 37.5Z" fill="url(#paint11_linear_693_192)"/>
<path d="M127.5 375.811C131.366 375.811 134.5 372.677 134.5 368.811C134.5 364.945 131.366 361.811 127.5 361.811C123.634 361.811 120.5 364.945 120.5 368.811C120.5 372.677 123.634 375.811 127.5 375.811Z" fill="url(#paint12_linear_693_192)"/>
<path d="M127.5 362.31C131.084 362.31 134 365.226 134 368.81C134 372.394 131.084 375.31 127.5 375.31C123.916 375.31 121 372.394 121 368.81C121 365.226 123.916 362.31 127.5 362.31ZM127.5 361.31C125.511 361.31 123.603 362.1 122.197 363.507C120.79 364.913 120 366.821 120 368.81C120 370.799 120.79 372.707 122.197 374.113C123.603 375.52 125.511 376.31 127.5 376.31C129.489 376.31 131.397 375.52 132.803 374.113C134.21 372.707 135 370.799 135 368.81C135 366.821 134.21 364.913 132.803 363.507C131.397 362.1 129.489 361.31 127.5 361.31Z" fill="url(#paint13_linear_693_192)"/>
<defs>
<linearGradient id="paint0_linear_693_192" x1="70.4092" y1="-0.435555" x2="416.855" y2="527.39" gradientUnits="userSpaceOnUse">
<stop stop-color="#8705FF"/>
<stop offset="1" stop-color="#CC00FF"/>
</linearGradient>
<linearGradient id="paint1_linear_693_192" x1="70.0465" y1="-0.937508" x2="417.233" y2="527.951" gradientUnits="userSpaceOnUse">
<stop stop-color="#8705FF"/>
<stop offset="1" stop-color="#CC00FF"/>
</linearGradient>
<linearGradient id="paint2_linear_693_192" x1="128.025" y1="82.6797" x2="249.351" y2="256.631" gradientUnits="userSpaceOnUse">
<stop stop-color="#8705FF"/>
<stop offset="1" stop-color="#CC00FF"/>
</linearGradient>
<linearGradient id="paint3_linear_693_192" x1="127.662" y1="82.1777" x2="249.728" y2="257.189" gradientUnits="userSpaceOnUse">
<stop stop-color="#8705FF"/>
<stop offset="1" stop-color="#CC00FF"/>
</linearGradient>
<linearGradient id="paint4_linear_693_192" x1="160.667" y1="135.4" x2="192.565" y2="201.112" gradientUnits="userSpaceOnUse">
<stop stop-color="#8705FF"/>
<stop offset="1" stop-color="#CC00FF"/>
</linearGradient>
<linearGradient id="paint5_linear_693_192" x1="183.925" y1="134.503" x2="374.082" y2="399.107" gradientUnits="userSpaceOnUse">
<stop stop-color="#8705FF"/>
<stop offset="1" stop-color="#CC00FF"/>
</linearGradient>
<linearGradient id="paint6_linear_693_192" x1="368.913" y1="344.912" x2="386.345" y2="411.283" gradientUnits="userSpaceOnUse">
<stop stop-color="#8705FF"/>
<stop offset="1" stop-color="#CC00FF"/>
</linearGradient>
<linearGradient id="paint7_linear_693_192" x1="369.413" y1="277.781" x2="450.287" y2="401.5" gradientUnits="userSpaceOnUse">
<stop stop-color="#8705FF"/>
<stop offset="1" stop-color="#CC00FF"/>
</linearGradient>
<linearGradient id="paint8_linear_693_192" x1="368.913" y1="277.412" x2="386.345" y2="343.783" gradientUnits="userSpaceOnUse">
<stop stop-color="#8705FF"/>
<stop offset="1" stop-color="#CC00FF"/>
</linearGradient>
<linearGradient id="paint9_linear_693_192" x1="433.681" y1="277.412" x2="466.971" y2="325.143" gradientUnits="userSpaceOnUse">
<stop stop-color="#8705FF"/>
<stop offset="1" stop-color="#CC00FF"/>
</linearGradient>
<linearGradient id="paint10_linear_693_192" x1="377.423" y1="37.9727" x2="387.78" y2="52.8221" gradientUnits="userSpaceOnUse">
<stop stop-color="#8705FF"/>
<stop offset="1" stop-color="#CC00FF"/>
</linearGradient>
<linearGradient id="paint11_linear_693_192" x1="377.06" y1="37.4707" x2="388.157" y2="53.3808" gradientUnits="userSpaceOnUse">
<stop stop-color="#8705FF"/>
<stop offset="1" stop-color="#CC00FF"/>
</linearGradient>
<linearGradient id="paint12_linear_693_192" x1="122.423" y1="361.784" x2="132.78" y2="376.633" gradientUnits="userSpaceOnUse">
<stop stop-color="#8705FF"/>
<stop offset="1" stop-color="#CC00FF"/>
</linearGradient>
<linearGradient id="paint13_linear_693_192" x1="122.06" y1="361.281" x2="133.157" y2="377.191" gradientUnits="userSpaceOnUse">
<stop stop-color="#8705FF"/>
<stop offset="1" stop-color="#CC00FF"/>
</linearGradient>
</defs>
</svg>
