<svg width="512" height="512" viewBox="0 0 512 512" fill="none" xmlns="http://www.w3.org/2000/svg">
<path d="M491.12 200.64L384 154.72V80C383.984 77.8791 383.154 75.8455 381.68 74.32L325.68 18.32C324.155 16.8464 322.121 16.0158 320 16H40C33.6406 16.019 27.5472 18.5537 23.0504 23.0504C18.5537 27.5472 16.019 33.6406 16 40V472C16.019 478.359 18.5537 484.453 23.0504 488.95C27.5472 493.446 33.6406 495.981 40 496H360C366.359 495.981 372.453 493.446 376.95 488.95C381.446 484.453 383.981 478.359 384 472V452.08L425.68 422.4C447.406 406.823 465.114 386.3 477.342 362.527C489.569 338.754 495.965 312.413 496 285.68V208C495.999 206.43 495.535 204.894 494.668 203.586C493.8 202.277 492.566 201.252 491.12 200.64ZM328 43.28L356.72 72H328V43.28ZM368 472C368 474.122 367.157 476.157 365.657 477.657C364.157 479.157 362.122 480 360 480H40C37.8783 480 35.8434 479.157 34.3431 477.657C32.8429 476.157 32 474.122 32 472V40C32 37.8783 32.8429 35.8434 34.3431 34.3431C35.8434 32.8429 37.8783 32 40 32H312V80C312 82.1217 312.843 84.1566 314.343 85.6569C315.843 87.1571 317.878 88 320 88H368V154.72L316.64 176.72L281.68 141.76C285.521 138.188 287.794 133.241 288 128C288 118.56 280.16 112.4 273.92 107.44C271.105 105.535 268.619 103.184 266.56 100.48C265.935 96.9019 265.989 93.238 266.72 89.68C267.6 81.44 268.64 72.16 262.24 65.76C255.84 59.36 246.48 60.4 238.32 61.28C234.789 62.0111 231.151 62.0654 227.6 61.44C224.848 59.4087 222.467 56.919 220.56 54.08C215.6 47.76 209.44 40 200 40C190.56 40 184.4 47.84 179.44 54.08C177.535 56.8952 175.184 59.3811 172.48 61.44C168.902 62.065 165.238 62.0107 161.68 61.28C153.44 60.4 144.16 59.36 137.76 65.76C131.36 72.16 132.4 81.44 133.28 89.68C134.011 93.211 134.065 96.8487 133.44 100.4C131.409 103.152 128.919 105.533 126.08 107.44C119.76 112.4 112 118.56 112 128C112.206 133.241 114.479 138.188 118.32 141.76L69.84 190.24C68.7805 191.313 68.0457 192.663 67.7201 194.135C67.3946 195.607 67.4916 197.141 68 198.56C68.4888 199.981 69.3734 201.233 70.5498 202.169C71.7261 203.104 73.1452 203.684 74.64 203.84L119.2 208.8L124.16 253.36C124.316 254.855 124.896 256.274 125.831 257.45C126.767 258.627 128.019 259.511 129.44 260C130.285 260.314 131.179 260.476 132.08 260.48C134.205 260.486 136.247 259.652 137.76 258.16L186.24 209.68C187.943 211.663 190.054 213.255 192.429 214.346C194.804 215.437 197.386 216.002 200 216.002C202.614 216.002 205.196 215.437 207.571 214.346C209.946 213.255 212.057 211.663 213.76 209.68L256 251.84V285.68C256.025 291.801 256.372 297.916 257.04 304H64V320H259.6C260.8 325.44 262.16 330.72 263.76 336H64V352H269.76C272.126 357.465 274.769 362.805 277.68 368H64V384H287.92C291.936 389.617 296.319 394.962 301.04 400H64V416H318C320.72 418.16 323.52 420.32 326.32 422.4L368 452.08V472ZM137.76 190.24C144.16 196.64 153.44 195.6 161.68 194.72C165.215 194.029 168.846 193.975 172.4 194.56C173.702 195.284 174.845 196.264 175.76 197.44L138.24 235.04L134.4 200.64C134.195 198.844 133.387 197.17 132.109 195.891C130.83 194.613 129.156 193.805 127.36 193.6L92.96 189.76L130.56 152.24C131.73 153.129 132.709 154.245 133.44 155.52C134.065 159.098 134.011 162.762 133.28 166.32C132.4 174.56 131.36 183.84 137.76 190.24ZM169.04 178.08C165.99 178.161 162.945 178.401 159.92 178.8C156.358 179.491 152.701 179.545 149.12 178.96C148.461 175.361 148.488 171.669 149.2 168.08C150.456 161.885 150.126 155.473 148.24 149.44C145.364 143.996 141.152 139.371 136 136C133.36 133.92 128 129.68 128 128C128 126.32 133.36 122.08 136 120C141.152 116.629 145.364 112.004 148.24 106.56C150.126 100.527 150.456 94.115 149.2 87.92C148.509 84.3577 148.455 80.7012 149.04 77.12C152.639 76.4608 156.331 76.4879 159.92 77.2C166.115 78.4559 172.527 78.1257 178.56 76.24C184.004 73.3641 188.629 69.1524 192 64C194.08 61.36 198.32 56 200 56C201.68 56 205.92 61.36 208 64C211.371 69.1524 215.996 73.3641 221.44 76.24C227.473 78.1257 233.885 78.4559 240.08 77.2C243.642 76.5092 247.299 76.4551 250.88 77.04C251.539 80.6393 251.512 84.3308 250.8 87.92C249.544 94.115 249.874 100.527 251.76 106.56C254.636 112.004 258.848 116.629 264 120C266.64 122.08 272 126.32 272 128C272 129.68 266.64 133.92 264 136C258.848 139.371 254.636 143.996 251.76 149.44C249.874 155.473 249.544 161.885 250.8 168.08C251.491 171.642 251.545 175.299 250.96 178.88C247.357 179.499 243.673 179.471 240.08 178.8C233.885 177.544 227.473 177.874 221.44 179.76C215.996 182.636 211.371 186.848 208 192C205.92 194.64 201.68 200 200 200C198.32 200 194.08 194.64 192 192C188.629 186.848 184.004 182.636 178.56 179.76C175.532 178.565 172.294 177.993 169.04 178.08ZM227.52 194.56C231.098 193.935 234.762 193.989 238.32 194.72C246.48 195.6 255.84 196.64 262.24 190.24C268.64 183.84 267.6 174.56 266.72 166.32C265.989 162.789 265.935 159.151 266.56 155.6C267.284 154.298 268.264 153.155 269.44 152.24L300.8 183.52L260.88 200.64C259.434 201.252 258.2 202.277 257.332 203.586C256.465 204.894 256.001 206.43 256 208V229.28L224.24 197.44C225.129 196.27 226.245 195.291 227.52 194.56ZM480 285.68C479.981 309.873 474.194 333.713 463.119 355.222C452.044 376.731 436.001 395.29 416.32 409.36L376 438.16L335.68 409.36C315.999 395.29 299.956 376.731 288.881 355.222C277.806 333.713 272.019 309.873 272 285.68V213.28L376 168.72L480 213.28V285.68Z" fill="white"/>
<path d="M373.032 192.568L293.032 224.568C291.547 225.162 290.273 226.187 289.376 227.512C288.479 228.837 288 230.4 288 232V282.48C287.95 302.885 292.515 323.036 301.354 341.427C310.193 359.818 323.076 375.972 339.04 388.68L371 414.28C372.419 415.416 374.183 416.035 376 416.035C377.818 416.035 379.582 415.416 381 414.28L412.96 388.68C428.925 375.972 441.808 359.818 450.647 341.427C459.486 323.036 464.051 302.885 464 282.48V232C464.001 230.4 463.522 228.837 462.625 227.512C461.728 226.187 460.454 225.162 458.968 224.568L378.968 192.568C377.063 191.807 374.938 191.807 373.032 192.568ZM448 237.416V282.48C448.044 300.483 444.015 318.263 436.215 334.488C428.416 350.714 417.047 364.965 402.96 376.176L376 397.76L349.04 376.16C334.956 364.951 323.589 350.702 315.789 334.48C307.989 318.257 303.959 300.48 304 282.48V237.416L376 208.616L448 237.416Z" fill="white"/>
<path d="M341.656 298.344L330.344 309.656L354.344 333.656C355.844 335.156 357.878 336 360 336H360.264C361.36 335.964 362.437 335.704 363.427 335.234C364.418 334.765 365.302 334.097 366.024 333.272L422.024 269.272L409.976 258.744L359.576 316.344L341.656 298.344ZM240 128C240 120.089 237.654 112.355 233.259 105.777C228.864 99.1992 222.616 94.0723 215.307 91.0448C207.998 88.0173 199.956 87.2252 192.196 88.7686C184.437 90.312 177.31 94.1217 171.716 99.7158C166.122 105.31 162.312 112.437 160.769 120.196C159.225 127.956 160.017 135.998 163.045 143.307C166.072 150.616 171.199 156.864 177.777 161.259C184.355 165.654 192.089 168 200 168C210.605 167.987 220.772 163.769 228.27 156.27C235.769 148.772 239.987 138.605 240 128ZM176 128C176 123.253 177.408 118.613 180.045 114.666C182.682 110.72 186.43 107.643 190.816 105.827C195.201 104.01 200.027 103.535 204.682 104.461C209.338 105.387 213.614 107.673 216.971 111.029C220.327 114.386 222.613 118.662 223.539 123.318C224.465 127.973 223.99 132.799 222.173 137.184C220.357 141.57 217.28 145.318 213.334 147.955C209.387 150.592 204.747 152 200 152C193.635 152 187.53 149.471 183.029 144.971C178.529 140.47 176 134.365 176 128Z" fill="white"/>
</svg>
