<svg width="508" height="508" viewBox="0 0 508 508" fill="none" xmlns="http://www.w3.org/2000/svg">
<path d="M425.28 294C425.28 292.409 424.648 290.883 423.523 289.757C422.397 288.632 420.871 288 419.28 288H409.28V278C409.28 276.409 408.648 274.883 407.523 273.757C406.397 272.632 404.871 272 403.28 272C401.689 272 400.163 272.632 399.037 273.757C397.912 274.883 397.28 276.409 397.28 278V288H387.28C385.689 288 384.163 288.632 383.037 289.757C381.912 290.883 381.28 292.409 381.28 294C381.28 295.591 381.912 297.117 383.037 298.243C384.163 299.368 385.689 300 387.28 300H397.28V310C397.28 311.591 397.912 313.117 399.037 314.243C400.163 315.368 401.689 316 403.28 316C404.871 316 406.397 315.368 407.523 314.243C408.648 313.117 409.28 311.591 409.28 310V300H419.28C420.871 300 422.397 299.368 423.523 298.243C424.648 297.117 425.28 295.591 425.28 294ZM459.28 456H449.28V446C449.28 444.409 448.648 442.883 447.523 441.757C446.397 440.632 444.871 440 443.28 440C441.689 440 440.163 440.632 439.037 441.757C437.912 442.883 437.28 444.409 437.28 446V456H427.28C425.689 456 424.163 456.632 423.037 457.757C421.912 458.883 421.28 460.409 421.28 462C421.28 463.591 421.912 465.117 423.037 466.243C424.163 467.368 425.689 468 427.28 468H437.28V478C437.28 479.591 437.912 481.117 439.037 482.243C440.163 483.368 441.689 484 443.28 484C444.871 484 446.397 483.368 447.523 482.243C448.648 481.117 449.28 479.591 449.28 478V468H459.28C460.871 468 462.397 467.368 463.523 466.243C464.648 465.117 465.28 463.591 465.28 462C465.28 460.409 464.648 458.883 463.523 457.757C462.397 456.632 460.871 456 459.28 456ZM44 374C44 372.409 43.3679 370.883 42.2426 369.757C41.1174 368.632 39.5913 368 38 368H28V358C28 356.409 27.3679 354.883 26.2426 353.757C25.1174 352.632 23.5913 352 22 352C20.4087 352 18.8826 352.632 17.7574 353.757C16.6321 354.883 16 356.409 16 358V368H6C4.4087 368 2.88258 368.632 1.75736 369.757C0.632141 370.883 0 372.409 0 374C0 375.591 0.632141 377.117 1.75736 378.243C2.88258 379.368 4.4087 380 6 380H16V390C16 391.591 16.6321 393.117 17.7574 394.243C18.8826 395.368 20.4087 396 22 396C23.5913 396 25.1174 395.368 26.2426 394.243C27.3679 393.117 28 391.591 28 390V380H38C39.5913 380 41.1174 379.368 42.2426 378.243C43.3679 377.117 44 375.591 44 374ZM58 456C48.072 456 40 464.072 40 474C40 483.928 48.072 492 58 492C67.928 492 76 483.928 76 474C76 464.072 67.928 456 58 456ZM58 480C56.4087 480 54.8826 479.368 53.7574 478.243C52.6321 477.117 52 475.591 52 474C52 472.409 52.6321 470.883 53.7574 469.757C54.8826 468.632 56.4087 468 58 468C59.5913 468 61.1174 468.632 62.2426 469.757C63.3679 470.883 64 472.409 64 474C64 475.591 63.3679 477.117 62.2426 478.243C61.1174 479.368 59.5913 480 58 480ZM490 360C480.072 360 472 368.072 472 378C472 387.928 480.072 396 490 396C499.928 396 508 387.928 508 378C508 368.072 499.928 360 490 360ZM490 384C488.409 384 486.883 383.368 485.757 382.243C484.632 381.117 484 379.591 484 378C484 376.409 484.632 374.883 485.757 373.757C486.883 372.632 488.409 372 490 372C491.591 372 493.117 372.632 494.243 373.757C495.368 374.883 496 376.409 496 378C496 379.591 495.368 381.117 494.243 382.243C493.117 383.368 491.591 384 490 384ZM254 256C184.52 256 128 312.52 128 382C128 451.48 184.52 508 254 508C323.48 508 380 451.48 380 382C380 312.52 323.48 256 254 256ZM217.76 274.008C208.968 283.488 201.4 296.416 195.656 312.056C187.41 309.743 179.307 306.943 171.392 303.672C184.197 290.149 200.116 279.965 217.76 274.008ZM200 350C200 355.512 195.512 360 190 360C184.488 360 180 355.512 180 350C180 344.488 184.488 340 190 340C195.512 340 200 344.488 200 350ZM163.272 313.256C172.583 317.285 182.15 320.693 191.912 323.456C191.48 324.952 191.12 326.536 190.712 328.072C190.472 328.072 190.248 328 190 328C184.167 328.004 178.573 330.323 174.448 334.448C170.323 338.573 168.004 344.167 168 350C168 360.152 174.952 368.64 184.312 371.16C184.232 372.824 184.168 374.432 184.12 376H140.304C141.473 353.251 149.477 331.383 163.272 313.256ZM163.272 450.736C149.477 432.609 141.473 410.741 140.304 387.992H184.16C184.64 407.008 187.304 424.808 191.808 440.568C182.128 443.296 172.616 446.712 163.272 450.736ZM171.392 460.328C179.257 457.08 187.305 454.296 195.496 451.992C201.144 467.448 208.672 480.336 217.504 489.896C199.962 483.932 184.13 473.783 171.392 460.328ZM248 495.344C231.6 491.848 217.032 474.192 207.504 448.984C220.822 446.11 234.38 444.492 248 444.152V495.344ZM248 432.16C232.96 432.544 218.152 434.328 203.672 437.576C199.32 422.68 196.664 405.816 196.16 388H248V432.16ZM248 376H196.128C196.184 374.376 196.256 372.696 196.344 370.96C200.857 369.608 204.815 366.84 207.634 363.066C210.453 359.292 211.984 354.711 212 350C212 342.368 208.088 335.64 202.168 331.696C202.632 329.928 203.056 328.12 203.56 326.4C218.08 329.664 232.92 331.456 248 331.84V376ZM248 319.84C234.322 319.502 220.707 317.871 207.336 314.968C217.032 289.36 231.968 272.208 248 268.72V319.84ZM336.608 303.664C328.696 306.912 320.672 309.72 312.504 312C306.856 296.544 299.328 283.656 290.496 274.096C308.039 280.062 323.866 290.211 336.608 303.664ZM260 268.648C276.4 272.144 290.968 289.8 300.496 315.008C287.178 317.882 273.62 319.5 260 319.84V268.648ZM260 331.832C274.917 331.476 289.764 329.662 304.328 326.416C308.68 341.312 311.336 358.176 311.84 375.992H260V331.832ZM260 387.992H311.872C311.816 389.616 311.744 391.296 311.656 393.032C307.143 394.384 303.185 397.152 300.366 400.926C297.547 404.7 296.016 409.281 296 413.992C296 421.624 299.912 428.352 305.832 432.296C305.368 434.064 304.944 435.872 304.44 437.592C289.84 434.331 274.956 432.508 260 432.152V387.992ZM318 403.992C323.512 403.992 328 408.48 328 413.992C328 419.504 323.512 423.992 318 423.992C312.488 423.992 308 419.504 308 413.992C308 408.48 312.488 403.992 318 403.992ZM260 495.264V444.152C273.784 444.52 287.368 446.112 300.664 449.024C290.968 474.632 276.032 491.776 260 495.264ZM290.24 489.984C299.032 480.504 306.6 467.576 312.344 451.936C320.56 454.224 328.648 457.048 336.608 460.32C323.805 473.845 307.886 484.03 290.24 489.984ZM344.728 450.728C335.417 446.699 325.85 443.291 316.088 440.528C316.52 439.032 316.88 437.448 317.288 435.912C317.528 435.912 317.752 435.984 318 435.984C323.833 435.98 329.427 433.661 333.552 429.536C337.677 425.411 339.996 419.817 340 413.984C340 403.832 333.048 395.344 323.688 392.824C323.768 391.16 323.832 389.552 323.88 387.984H367.696C366.527 410.733 358.523 432.601 344.728 450.728ZM367.696 375.984H323.84C323.36 356.968 320.696 339.168 316.192 323.408C325.917 320.65 335.45 317.254 344.728 313.24C358.523 331.367 366.527 353.235 367.696 375.984Z" fill="url(#paint0_linear_693_140)"/>
<path d="M254 0C111.568 0 0 37.776 0 86V278C0 298.056 18.408 316.56 53.232 331.512C54.1446 331.904 55.1402 332.063 56.1296 331.976C57.1189 331.888 58.0711 331.556 58.9005 331.01C59.73 330.463 60.4108 329.72 60.882 328.845C61.3531 327.971 61.5998 326.993 61.6 326V233.928C88.088 223.056 124.392 214.16 168 208.96V214C168 216.456 169.496 218.664 171.776 219.568C199.056 230.48 226.528 235.936 254 235.936C281.472 235.936 308.952 230.48 336.224 219.568C337.338 219.124 338.293 218.355 338.966 217.363C339.639 216.371 339.999 215.199 340 214V208.96C347.776 209.888 355.208 210.976 362.488 212.136L360.056 229.152C359.935 230.003 359.997 230.869 360.24 231.694C360.482 232.518 360.899 233.281 361.462 233.93C362.025 234.579 362.721 235.1 363.502 235.457C364.284 235.814 365.133 235.999 365.992 236H397.992C398.851 235.999 399.7 235.814 400.482 235.457C401.263 235.1 401.959 234.579 402.522 233.93C403.085 233.281 403.502 232.518 403.744 231.694C403.987 230.869 404.049 230.003 403.928 229.152L402.64 220.152C419.168 224.208 433.944 228.824 446.392 233.928V326C446.392 326.993 446.639 327.971 447.11 328.845C447.581 329.72 448.262 330.463 449.091 331.01C449.921 331.556 450.873 331.888 451.862 331.976C452.852 332.063 453.847 331.904 454.76 331.512C489.584 316.56 507.992 298.056 507.992 278V86C508 37.776 396.432 0 254 0ZM49.6 316.664C25.272 304.792 12 291.224 12 278C12 264.776 25.392 251.152 49.6 239.288V316.664ZM49.6 226.408C33.336 233.848 20.488 242.224 12 251.328V112.96C20.336 121.968 32.904 130.376 49.6 137.912V226.4V226.408ZM328 209.904C278.872 228.576 229.128 228.576 180 209.904V194.704C229.16 212.368 278.856 212.368 328 194.704V209.904ZM328 181.848C278.872 200.528 229.128 200.528 180 181.848V132.176L251.592 163.496C253.128 164.168 254.872 164.168 256.4 163.496L327.992 132.176V181.84L328 181.848ZM254 151.456L140.968 102.008L254 52.56L353.32 96.008H274.696C271.728 88.968 263.736 84.008 254 84.008C241.664 84.008 232 91.912 232 102.008C232 112.104 241.664 120.008 254 120.008C263.736 120.008 271.728 115.048 274.696 108.008H353.32L254 151.456ZM264 102.008C264 104.84 259.72 108.008 254 108.008C248.28 108.008 244 104.84 244 102.008C244 99.176 248.28 96.008 254 96.008C259.72 96.008 264 99.176 264 102.008ZM366.928 181.08L364.176 200.36C356.141 199.07 348.08 197.939 340 196.968V126.936L376 111.184V169.304C373.61 170.332 371.522 171.953 369.935 174.014C368.347 176.075 367.312 178.507 366.928 181.08ZM372.92 224.008L378.808 182.776C379.032 181.2 380.408 180.008 382 180.008C383.592 180.008 384.968 181.2 385.192 182.776L391.08 224.008H372.912H372.92ZM458.408 316.672V239.304C482.608 251.168 496.008 264.76 496.008 278.016C496.008 291.272 482.736 304.8 458.408 316.672ZM496.008 251.336C487.52 242.232 474.672 233.864 458.408 226.416V137.928C475.104 130.392 487.664 121.984 496.008 112.976V251.32V251.336ZM450.04 128.504C448.961 128.965 448.041 129.734 447.395 130.714C446.749 131.694 446.406 132.842 446.408 134.016V221.344C433.04 216.12 417.664 211.544 400.864 207.584L397.08 181.08C396.695 178.508 395.659 176.078 394.072 174.018C392.484 171.959 390.397 170.339 388.008 169.312V102C388.009 100.834 387.67 99.6925 387.032 98.7162C386.394 97.74 385.485 96.9711 384.416 96.504L256.416 40.504C255.658 40.1715 254.84 39.9999 254.012 39.9999C253.184 39.9999 252.366 40.1715 251.608 40.504L123.592 96.504C122.524 96.9718 121.615 97.7408 120.977 98.7169C120.339 99.693 119.999 100.834 119.999 102C119.999 103.166 120.339 104.307 120.977 105.283C121.615 106.259 122.524 107.028 123.592 107.496L168 126.92V196.952C126.264 201.904 89.76 210.32 61.6 221.32V133.992C61.5998 132.819 61.2557 131.671 60.6101 130.692C59.9646 129.712 59.046 128.943 57.968 128.48C28.328 115.752 12 100.664 12 85.992C12 50.264 109.24 12 254 12C398.76 12 496 50.264 496 86C496 100.664 479.672 115.76 450.032 128.488L450.04 128.504Z" fill="url(#paint1_linear_693_140)"/>
<defs>
<linearGradient id="paint0_linear_693_140" x1="69.7718" y1="255.508" x2="192.543" y2="610.349" gradientUnits="userSpaceOnUse">
<stop stop-color="#8705FF"/>
<stop offset="1" stop-color="#CC00FF"/>
</linearGradient>
<linearGradient id="paint1_linear_693_140" x1="69.7707" y1="-0.648441" x2="267.328" y2="432.748" gradientUnits="userSpaceOnUse">
<stop stop-color="#8705FF"/>
<stop offset="1" stop-color="#CC00FF"/>
</linearGradient>
</defs>
</svg>
