<svg width="512" height="504" viewBox="0 0 512 504" fill="none" xmlns="http://www.w3.org/2000/svg">
<path d="M196.069 259.943C197.362 259.943 198.634 259.609 199.759 258.972C200.885 258.336 201.827 257.419 202.494 256.311L216.025 233.836L233.955 262.328C234.644 263.424 235.606 264.323 236.746 264.938C237.885 265.552 239.165 265.861 240.46 265.834C241.754 265.807 243.02 265.445 244.133 264.783C245.246 264.122 246.169 263.183 246.812 262.059L275.677 211.623L314.445 282.273C315.081 283.432 316.012 284.402 317.143 285.085C318.274 285.768 319.566 286.14 320.887 286.164L321.02 286.165C322.319 286.165 323.596 285.827 324.725 285.185C325.855 284.543 326.798 283.619 327.463 282.503L351.616 241.957H409.858C411.847 241.957 413.755 241.167 415.161 239.76C416.568 238.354 417.358 236.446 417.358 234.457C417.358 232.468 416.568 230.56 415.161 229.154C413.755 227.747 411.847 226.957 409.858 226.957H347.354C346.055 226.957 344.778 227.294 343.649 227.936C342.519 228.578 341.576 229.503 340.911 230.619L321.287 263.561L282.39 192.675C281.749 191.507 280.808 190.53 279.664 189.846C278.52 189.162 277.215 188.795 275.882 188.783H275.814C274.493 188.783 273.195 189.132 272.052 189.795C270.909 190.457 269.961 191.41 269.305 192.557L239.997 243.767L222.231 215.536C221.556 214.463 220.619 213.578 219.509 212.965C218.399 212.352 217.151 212.031 215.883 212.031H215.809C214.528 212.043 213.272 212.384 212.161 213.019C211.049 213.655 210.118 214.565 209.458 215.662L191.83 244.943H149.205C147.216 244.943 145.308 245.733 143.902 247.14C142.495 248.546 141.705 250.454 141.705 252.443C141.705 254.432 142.495 256.34 143.902 257.746C145.308 259.153 147.216 259.943 149.205 259.943H196.069ZM423.096 51.785C421.107 51.785 419.199 52.5752 417.793 53.9817C416.386 55.3882 415.596 57.2959 415.596 59.285V81.409H393.474C391.485 81.409 389.577 82.1992 388.171 83.6057C386.764 85.0122 385.974 86.9199 385.974 88.909C385.974 90.8981 386.764 92.8058 388.171 94.2123C389.577 95.6188 391.485 96.409 393.474 96.409H415.596V118.534C415.596 120.523 416.386 122.431 417.793 123.837C419.199 125.244 421.107 126.034 423.096 126.034C425.085 126.034 426.993 125.244 428.399 123.837C429.806 122.431 430.596 120.523 430.596 118.534V96.409H452.718C454.707 96.409 456.615 95.6188 458.021 94.2123C459.428 92.8058 460.218 90.8981 460.218 88.909C460.218 86.9199 459.428 85.0122 458.021 83.6057C456.615 82.1992 454.707 81.409 452.718 81.409H430.596V59.285C430.596 57.2959 429.806 55.3882 428.399 53.9817C426.993 52.5752 425.085 51.785 423.096 51.785Z" fill="url(#paint0_linear_693_144)"/>
<path d="M449.56 308.75C486.099 269.687 496.571 210.618 476.486 159.978C498.039 143.734 512 117.923 512 88.909C512 39.884 472.118 0 423.096 0C402.959 0 383.24 6.911 367.57 19.46C366.035 20.709 365.055 22.5142 364.845 24.4821C364.635 26.45 365.212 28.4212 366.449 29.966C367.686 31.5108 369.484 32.504 371.45 32.7292C373.416 32.9543 375.392 32.3932 376.946 31.168C390.154 20.59 406.112 15 423.095 15C463.845 15 496.999 48.156 496.999 88.909C496.999 129.679 463.846 162.847 423.095 162.847C385.152 162.847 353.809 134.109 349.647 97.258C349.639 97.173 349.625 97.087 349.614 97.001C349.316 94.3139 349.165 91.6125 349.162 88.909C349.162 77.333 351.763 66.263 356.891 56.005C357.78 54.2257 357.926 52.1661 357.298 50.2791C356.669 48.392 355.316 46.832 353.537 45.942C351.758 45.0528 349.698 44.9065 347.811 45.5355C345.924 46.1645 344.364 47.5171 343.474 49.296C337.295 61.655 334.162 74.983 334.162 88.908C334.162 90.168 334.195 91.42 334.247 92.668C315.309 99.437 297.632 110.57 282.818 125.139L274.528 133.289L274.418 133.179L266.268 125.149C239.898 99.149 205.378 84.619 171.548 85.319C143.398 85.899 118.488 96.929 99.518 117.209C98.8449 117.929 98.3203 118.775 97.9741 119.698C97.6279 120.621 97.4669 121.603 97.5003 122.589C97.5337 123.574 97.7609 124.543 98.1689 125.44C98.5769 126.338 99.1576 127.146 99.878 127.819C102.908 130.639 107.648 130.489 110.478 127.459C126.618 110.199 147.838 100.809 171.858 100.319C201.658 99.709 232.228 112.659 255.738 135.829L263.898 143.869C267.838 147.749 271.198 149.679 274.548 149.679C277.868 149.679 281.178 147.779 285.048 143.979L293.338 135.829C305.795 123.585 320.488 114.051 336.218 107.936C344.955 147.864 380.586 177.846 423.094 177.846C437.647 177.846 451.394 174.33 463.531 168.102C480.15 212.803 470.608 264.228 438.658 298.438L330.99 408.65L322.08 410.39C319.92 410.81 318.01 411.19 316.27 411.54C304.97 413.83 302.27 414.37 289.04 412.33L224.89 400.6C216.15 397.58 217.03 390.62 217.52 388.53C218.29 385.28 221.31 380.03 227.8 381.01L227.98 381.04C230.87 381.41 233.97 381.81 237.21 382.22C249.36 383.79 263.12 385.56 275.34 386.81C300.34 389.34 314.48 376.22 317.42 362.08C320.41 347.67 312.2 328.51 287.1 320.5C286.8 320.41 286.49 320.33 286.17 320.27L244.86 312.69C222.44 308.58 205 311.75 178.6 316.55C171.62 317.82 163.7 319.25 154.88 320.7L135.3 323.92L129.27 317.75L110.42 298.45C75.19 260.68 67.38 201.52 91.46 154.55C93.35 150.87 91.89 146.35 88.21 144.46C84.52 142.57 80 144.02 78.11 147.71C51.19 200.23 59.99 266.45 99.52 308.75C99.56 308.79 99.6 308.83 99.63 308.87L117.23 326.89L84.452 332.278V331.422C84.452 325.631 79.343 320.92 73.063 320.92H11.36C5.096 320.92 0 325.631 0 331.422V463.387C0 469.178 5.096 473.889 11.36 473.889H73.064C79.344 473.889 84.453 469.178 84.453 463.387V462.478L151.9 480.83L214.16 497.75C228.37 502.16 239.82 503.98 250.27 503.98C266.81 503.98 280.86 499.44 299.42 493.44C301.07 492.91 302.76 492.36 304.5 491.8L427.19 452.46C441.41 447.9 451.53 437.66 454.25 425.07C456.36 415.31 453.42 405.67 446.38 399.28C440.68 394.11 427.28 386.69 401.45 394.86L356.91 403.57L449.45 308.87C449.49 308.83 449.52 308.79 449.56 308.75ZM15 458.889V335.919H69.452V341.072L69.45 341.119V452.659L69.452 452.685V458.889H15ZM405.6 409.28C419.44 404.84 430.63 405.24 436.31 410.39C439.37 413.17 440.57 417.37 439.59 421.89C438.01 429.18 431.66 435.27 422.61 438.17L299.91 477.52C298.16 478.08 296.46 478.63 294.8 479.17C265.45 488.65 250.72 493.42 218.48 483.39C218.4 483.36 218.31 483.34 218.22 483.31L84.452 446.931V347.48L157.31 335.51C166.25 334.04 174.24 332.58 181.29 331.3C206.94 326.64 222.43 323.83 242.15 327.45L282.98 334.94C298.9 340.17 304.39 351.06 302.73 359.03C300.82 368.24 290.66 373.29 276.86 371.89C264.84 370.66 251.18 368.9 239.13 367.35C235.91 366.93 232.82 366.53 229.95 366.17C215.61 364.05 205.5 374.08 202.92 385.11C202.37 387.46 202.15 389.96 202.31 392.48C202.86 401.6 208.31 411.06 220.75 415.03C221.06 415.13 225.2 415.9 225.2 415.9L286.45 427.1L286.65 427.13C299.29 429.1 304.76 428.93 312.51 427.56C314.54 427.2 322.82 425.52 324.95 425.11L338.45 422.47C338.45 422.47 405.32 409.37 405.6 409.28Z" fill="url(#paint1_linear_693_144)"/>
<defs>
<linearGradient id="paint0_linear_693_144" x1="185.452" y1="51.3272" x2="335.57" y2="343.818" gradientUnits="userSpaceOnUse">
<stop stop-color="#8705FF"/>
<stop offset="1" stop-color="#CC00FF"/>
</linearGradient>
<linearGradient id="paint1_linear_693_144" x1="70.3212" y1="-0.984345" x2="441.093" y2="539.069" gradientUnits="userSpaceOnUse">
<stop stop-color="#8705FF"/>
<stop offset="1" stop-color="#CC00FF"/>
</linearGradient>
</defs>
</svg>
