<svg width="432" height="384" viewBox="0 0 432 384" fill="none" xmlns="http://www.w3.org/2000/svg">
<path d="M191.999 384C162.61 383.989 133.615 377.231 107.25 364.247C80.8839 351.264 57.8506 332.4 39.9245 309.111C21.9983 285.822 9.65782 258.729 3.85373 229.918C-1.95037 201.108 -1.06311 171.349 6.44712 142.936C13.9574 114.522 27.8901 88.212 47.1719 66.0322C66.4537 43.8524 90.5699 26.3951 117.662 15.0052C144.755 3.61534 174.1 -1.40303 203.438 0.336735C232.776 2.0765 261.323 10.528 286.879 25.04C287.793 25.5595 288.595 26.2539 289.24 27.0834C289.885 27.9129 290.361 28.8614 290.639 29.8747C290.918 30.888 290.994 31.9462 290.864 32.9889C290.733 34.0317 290.399 35.0385 289.879 35.952C289.36 36.8655 288.665 37.6677 287.836 38.3128C287.006 38.958 286.058 39.4334 285.045 39.712C282.998 40.2746 280.812 40.0012 278.967 38.952C252.313 23.8178 222.168 15.907 191.517 16.0027C160.866 16.0984 130.771 24.1973 104.212 39.4977C77.6522 54.7981 55.5491 76.7694 40.0902 103.237C24.6313 129.704 16.3527 159.75 16.0737 190.4C15.7948 221.05 23.5252 251.242 38.4998 277.986C53.4744 304.731 75.1739 327.101 101.45 342.882C127.727 358.663 157.669 367.308 188.314 367.962C218.958 368.615 249.242 361.255 276.167 346.608C278.03 345.592 280.22 345.357 282.256 345.956C283.264 346.252 284.204 346.744 285.022 347.404C285.84 348.063 286.52 348.878 287.023 349.8C287.526 350.722 287.843 351.735 287.955 352.78C288.067 353.824 287.972 354.881 287.676 355.889C287.379 356.897 286.887 357.837 286.227 358.655C285.568 359.473 284.754 360.153 283.831 360.656C255.648 375.977 224.078 384.002 191.999 384Z" fill="url(#paint0_linear_693_185)"/>
<path d="M192 384C117.008 384 56 297.864 56 192C56 86.136 117.008 0 192 0C223.36 0 253.912 15.312 278.04 43.12C279.353 44.7317 279.988 46.7913 279.809 48.8626C279.63 50.9339 278.651 52.8542 277.081 54.2166C275.51 55.579 273.471 56.2766 271.396 56.1615C269.32 56.0464 267.37 55.1277 265.96 53.6C244.608 29 219.04 16 192 16C125.832 16 72 94.952 72 192C72 289.048 125.832 368 192 368C194.122 368 196.157 368.843 197.657 370.343C199.157 371.843 200 373.878 200 376C200 378.122 199.157 380.157 197.657 381.657C196.157 383.157 194.122 384 192 384Z" fill="url(#paint1_linear_693_185)"/>
<path d="M192 384C150.4 384 128 285.08 128 192C128 98.92 150.4 0 192 0C203.448 0 220.08 7.832 234.336 45.144C234.74 46.1311 234.942 47.1889 234.931 48.2552C234.919 49.3215 234.695 50.3749 234.271 51.3533C233.847 52.3317 233.231 53.2155 232.461 53.9526C231.69 54.6897 230.78 55.2653 229.784 55.6456C228.788 56.0259 227.725 56.2031 226.659 56.167C225.594 56.1308 224.546 55.8818 223.578 55.4349C222.61 54.9879 221.74 54.3518 221.022 53.5641C220.303 52.7764 219.749 51.8529 219.392 50.848C211.048 29.024 200.8 16 192 16C172 16 144 82.96 144 192C144 301.04 172 368 192 368C208.32 368 229.776 325.672 237.4 247.2C237.478 246.136 237.768 245.099 238.253 244.149C238.738 243.199 239.408 242.356 240.224 241.668C241.04 240.981 241.985 240.464 243.003 240.147C244.022 239.831 245.093 239.721 246.155 239.824C247.216 239.928 248.246 240.243 249.185 240.75C250.123 241.257 250.95 241.947 251.618 242.779C252.285 243.611 252.78 244.568 253.072 245.594C253.364 246.619 253.449 247.693 253.32 248.752C246.976 314.144 227.528 384 192 384Z" fill="url(#paint2_linear_693_185)"/>
<path d="M192 112H32C29.8783 112 27.8434 111.157 26.3431 109.657C24.8429 108.157 24 106.122 24 104C24 101.878 24.8429 99.8434 26.3431 98.3431C27.8434 96.8428 29.8783 96 32 96H192C194.122 96 196.157 96.8428 197.657 98.3431C199.157 99.8434 200 101.878 200 104C200 106.122 199.157 108.157 197.657 109.657C196.157 111.157 194.122 112 192 112ZM240 288H32C29.8783 288 27.8434 287.157 26.3431 285.657C24.8429 284.157 24 282.122 24 280C24 277.878 24.8429 275.843 26.3431 274.343C27.8434 272.843 29.8783 272 32 272H240C242.122 272 244.157 272.843 245.657 274.343C247.157 275.843 248 277.878 248 280C248 282.122 247.157 284.157 245.657 285.657C244.157 287.157 242.122 288 240 288ZM192 200H8C5.87827 200 3.84344 199.157 2.34315 197.657C0.842854 196.157 0 194.122 0 192C0 189.878 0.842854 187.843 2.34315 186.343C3.84344 184.843 5.87827 184 8 184H192C194.122 184 196.157 184.843 197.657 186.343C199.157 187.843 200 189.878 200 192C200 194.122 199.157 196.157 197.657 197.657C196.157 199.157 194.122 200 192 200ZM256 120H224C221.878 120 219.843 119.157 218.343 117.657C216.843 116.157 216 114.122 216 112V80C216 77.8783 216.843 75.8434 218.343 74.3431C219.843 72.8428 221.878 72 224 72H256C258.122 72 260.157 72.8428 261.657 74.3431C263.157 75.8434 264 77.8783 264 80V112C264 114.122 263.157 116.157 261.657 117.657C260.157 119.157 258.122 120 256 120ZM232 104H248V88H232V104ZM304 176H272C269.878 176 267.843 175.157 266.343 173.657C264.843 172.157 264 170.122 264 168V136C264 133.878 264.843 131.843 266.343 130.343C267.843 128.843 269.878 128 272 128H304C306.122 128 308.157 128.843 309.657 130.343C311.157 131.843 312 133.878 312 136V168C312 170.122 311.157 172.157 309.657 173.657C308.157 175.157 306.122 176 304 176ZM280 160H296V144H280V160ZM248 232H216C213.878 232 211.843 231.157 210.343 229.657C208.843 228.157 208 226.122 208 224V192C208 189.878 208.843 187.843 210.343 186.343C211.843 184.843 213.878 184 216 184H248C250.122 184 252.157 184.843 253.657 186.343C255.157 187.843 256 189.878 256 192V224C256 226.122 255.157 228.157 253.657 229.657C252.157 231.157 250.122 232 248 232ZM224 216H240V200H224V216ZM360 80H312C309.878 80 307.843 79.1572 306.343 77.6569C304.843 76.1566 304 74.1217 304 72V24C304 21.8783 304.843 19.8434 306.343 18.3431C307.843 16.8429 309.878 16 312 16H360C362.122 16 364.157 16.8429 365.657 18.3431C367.157 19.8434 368 21.8783 368 24V72C368 74.1217 367.157 76.1566 365.657 77.6569C364.157 79.1572 362.122 80 360 80ZM320 64H352V32H320V64ZM360 248H312C309.878 248 307.843 247.157 306.343 245.657C304.843 244.157 304 242.122 304 240V192C304 189.878 304.843 187.843 306.343 186.343C307.843 184.843 309.878 184 312 184H360C362.122 184 364.157 184.843 365.657 186.343C367.157 187.843 368 189.878 368 192V240C368 242.122 367.157 244.157 365.657 245.657C364.157 247.157 362.122 248 360 248ZM320 232H352V200H320V232ZM312 336H264C261.878 336 259.843 335.157 258.343 333.657C256.843 332.157 256 330.122 256 328V280C256 277.878 256.843 275.843 258.343 274.343C259.843 272.843 261.878 272 264 272H312C314.122 272 316.157 272.843 317.657 274.343C319.157 275.843 320 277.878 320 280V328C320 330.122 319.157 332.157 317.657 333.657C316.157 335.157 314.122 336 312 336ZM272 320H304V288H272V320ZM424 176H360C357.878 176 355.843 175.157 354.343 173.657C352.843 172.157 352 170.122 352 168V104C352 101.878 352.843 99.8434 354.343 98.3431C355.843 96.8428 357.878 96 360 96H424C426.122 96 428.157 96.8428 429.657 98.3431C431.157 99.8434 432 101.878 432 104V168C432 170.122 431.157 172.157 429.657 173.657C428.157 175.157 426.122 176 424 176ZM368 160H416V112H368V160ZM424 384H360C357.878 384 355.843 383.157 354.343 381.657C352.843 380.157 352 378.122 352 376V312C352 309.878 352.843 307.843 354.343 306.343C355.843 304.843 357.878 304 360 304H424C426.122 304 428.157 304.843 429.657 306.343C431.157 307.843 432 309.878 432 312V376C432 378.122 431.157 380.157 429.657 381.657C428.157 383.157 426.122 384 424 384ZM368 368H416V320H368V368Z" fill="url(#paint3_linear_693_185)"/>
<path d="M184 8H200V376H184V8Z" fill="url(#paint4_linear_693_185)"/>
<defs>
<linearGradient id="paint0_linear_693_185" x1="40.0198" y1="-0.750007" x2="341.712" y2="326.877" gradientUnits="userSpaceOnUse">
<stop stop-color="#8705FF"/>
<stop offset="1" stop-color="#CC00FF"/>
</linearGradient>
<linearGradient id="paint1_linear_693_185" x1="86.7433" y1="-0.750007" x2="384.654" y2="248.229" gradientUnits="userSpaceOnUse">
<stop stop-color="#8705FF"/>
<stop offset="1" stop-color="#CC00FF"/>
</linearGradient>
<linearGradient id="paint2_linear_693_185" x1="145.22" y1="-0.750007" x2="377.697" y2="108.079" gradientUnits="userSpaceOnUse">
<stop stop-color="#8705FF"/>
<stop offset="1" stop-color="#CC00FF"/>
</linearGradient>
<linearGradient id="paint3_linear_693_185" x1="59.3335" y1="15.2812" x2="314.121" y2="444.112" gradientUnits="userSpaceOnUse">
<stop stop-color="#8705FF"/>
<stop offset="1" stop-color="#CC00FF"/>
</linearGradient>
<linearGradient id="paint4_linear_693_185" x1="186.198" y1="7.28124" x2="222.226" y2="9.52715" gradientUnits="userSpaceOnUse">
<stop stop-color="#8705FF"/>
<stop offset="1" stop-color="#CC00FF"/>
</linearGradient>
</defs>
</svg>
