<svg width="480" height="480" viewBox="0 0 480 480" fill="none" xmlns="http://www.w3.org/2000/svg">
<path d="M352 0C326.684 0 301.937 7.50707 280.887 21.5719C259.838 35.6367 243.431 55.6276 233.743 79.0165C224.055 102.405 221.521 128.142 226.46 152.972C231.398 177.801 243.589 200.609 261.49 218.51C279.392 236.411 302.199 248.602 327.028 253.541C351.858 258.479 377.595 255.945 400.984 246.257C424.372 236.569 444.363 220.162 458.428 199.113C472.493 178.063 480 153.316 480 128C479.96 94.0646 466.461 61.5307 442.465 37.5348C418.469 13.5388 385.935 0.0402266 352 0ZM352 240C329.849 240 308.194 233.431 289.776 221.125C271.358 208.818 257.003 191.326 248.526 170.861C240.049 150.395 237.831 127.876 242.152 106.15C246.474 84.424 257.141 64.4675 272.804 48.804C288.468 33.1406 308.424 22.4736 330.15 18.1521C351.876 13.8305 374.395 16.0485 394.861 24.5255C415.326 33.0025 432.818 47.3578 445.125 65.7761C457.431 84.1944 464 105.848 464 128C463.968 157.694 452.158 186.164 431.161 207.161C410.164 228.158 381.695 239.968 352 240Z" fill="url(#paint0_linear_693_168)"/>
<path d="M423.768 64C412.206 64.0296 400.753 61.7668 390.071 57.3425C379.39 52.9182 369.691 46.4201 361.536 38.224L357.656 34.344C356.156 32.8442 354.121 32.0017 352 32.0017C349.879 32.0017 347.844 32.8442 346.344 34.344L342.464 38.224C334.277 46.4418 324.54 52.952 313.817 57.3767C303.094 61.8015 291.6 64.0528 280 64C277.878 64 275.843 64.8429 274.343 66.3431C272.843 67.8434 272 69.8783 272 72V119.512C272.01 138.054 276.974 156.257 286.379 172.236C295.785 188.216 309.29 201.391 325.496 210.4L348.12 222.968C349.307 223.626 350.642 223.972 352 223.972C353.358 223.972 354.693 223.626 355.88 222.968L378.504 210.4C394.709 201.39 408.213 188.214 417.618 172.235C427.024 156.256 431.989 138.054 432 119.512V72C431.948 69.8545 431.056 67.8151 429.517 66.3194C427.978 64.8237 425.914 63.991 423.768 64ZM416 119.512C415.995 135.204 411.797 150.61 403.841 164.135C395.884 177.66 384.458 188.813 370.744 196.44L352 206.848L333.256 196.448C319.541 188.82 308.114 177.666 300.157 164.139C292.201 150.613 288.003 135.205 288 119.512V79.72C311.997 77.9876 334.635 67.9251 352 51.272C369.367 67.9193 392.005 77.976 416 79.704V119.512Z" fill="url(#paint1_linear_693_168)"/>
<path d="M320.496 106.352C319.654 111.08 319.892 115.936 321.192 120.559C322.491 125.182 324.818 129.451 328 133.048V152C328 158.365 330.529 164.47 335.029 168.971C339.53 173.471 345.635 176 352 176C358.365 176 364.47 173.471 368.971 168.971C373.471 164.47 376 158.365 376 152V133.04C380.379 128.06 383.101 121.841 383.787 115.245C384.473 108.649 383.09 102.002 379.829 96.2279C376.568 90.4533 371.591 85.8365 365.588 83.0176C359.585 80.1987 352.854 79.3174 346.328 80.496C339.913 81.6881 334.01 84.7974 329.398 89.4135C324.786 94.0296 321.682 99.9356 320.496 106.352ZM352 96C355.762 95.9845 359.406 97.3154 362.272 99.752C364.063 101.252 365.504 103.125 366.493 105.241C367.483 107.357 367.997 109.664 368 112C367.997 114.239 367.517 116.453 366.593 118.493C365.669 120.533 364.321 122.353 362.64 123.832C361.808 124.583 361.143 125.5 360.689 126.524C360.234 127.548 359.999 128.656 360 129.776V152C360 154.122 359.157 156.157 357.657 157.657C356.157 159.157 354.122 160 352 160C349.878 160 347.843 159.157 346.343 157.657C344.843 156.157 344 154.122 344 152V129.776C344 128.655 343.764 127.547 343.308 126.523C342.851 125.499 342.185 124.582 341.352 123.832C339.303 122.028 337.757 119.723 336.864 117.144C335.971 114.564 335.761 111.797 336.256 109.112C336.867 105.938 338.412 103.019 340.692 100.729C342.973 98.4385 345.885 96.881 349.056 96.256C350.029 96.0889 351.013 96.0033 352 96ZM208 464H64V378.76C64.0069 358.167 71.2246 338.226 84.4 322.4L92.056 313.208C95.2896 320.009 100.38 325.757 106.74 329.79C113.099 333.823 120.469 335.975 128 336C134.365 336 140.47 333.471 144.971 328.971C149.471 324.47 152 318.365 152 312V311.544L158.008 315.832C176.05 328.692 188.561 347.9 193.032 369.6C193.4 371.404 194.38 373.026 195.805 374.192C197.231 375.358 199.015 375.997 200.856 376C201.394 375.997 201.93 375.941 202.456 375.832C204.533 375.403 206.354 374.166 207.52 372.395C208.685 370.623 209.1 368.461 208.672 366.384C203.395 340.729 188.604 318.021 167.272 302.824L152 291.888V286.96L161.056 283.664C171.591 279.868 180.737 272.985 187.302 263.913C193.866 254.841 197.544 244.002 197.856 232.808L198.072 225.936L214.976 212.512C216.554 211.26 217.601 209.46 217.91 207.47C218.218 205.48 217.765 203.446 216.64 201.776L203.784 182.744C209.218 180.244 213.509 175.786 215.8 170.26C218.092 164.734 218.214 158.548 216.144 152.936L205.192 122.864C204.122 119.9 202.475 117.177 200.346 114.852C198.218 112.527 195.651 110.647 192.792 109.32C192.344 109.112 191.872 109.016 191.424 108.84L197.024 100.32C200.407 95.1148 202.537 89.1963 203.248 83.0292C203.959 76.8621 203.23 70.6142 201.12 64.776L187.44 27.176C186.973 25.8944 186.186 24.7534 185.154 23.8615C184.123 22.9696 182.88 22.3563 181.544 22.08C180.209 21.8114 178.827 21.8847 177.528 22.2931C176.229 22.7015 175.054 23.4318 174.112 24.416L154.688 44.912C152.16 47.5889 149.047 49.6451 145.592 50.92L63.568 79.36C45.0268 85.7843 28.6842 97.3285 16.432 112.656L8.776 122.256C3.11872 129.342 0.0256337 138.133 0 147.2V151.112C0.000366942 158.363 1.972 165.479 5.704 171.696L15.576 188.144C13.5209 191.071 12.1267 194.411 11.4899 197.93C10.8531 201.45 10.9889 205.066 11.888 208.528C12.7079 211.807 14.2113 214.877 16.2998 217.535C18.3883 220.193 21.0148 222.38 24.0071 223.952C26.9995 225.524 30.2903 226.447 33.6639 226.659C37.0376 226.872 40.4181 226.369 43.584 225.184L44.872 224.704L88 269.112V293.112L72.104 312.192C56.5488 330.889 48.0219 354.438 48 378.76V472C48 474.122 48.8429 476.157 50.3431 477.657C51.8434 479.157 53.8783 480 56 480H208C210.122 480 212.157 479.157 213.657 477.657C215.157 476.157 216 474.122 216 472C216 469.878 215.157 467.843 213.657 466.343C212.157 464.843 210.122 464 208 464ZM128 320C121.635 320 115.53 317.471 111.029 312.971C106.529 308.47 104 302.365 104 296V283.96C111.011 289.666 119.761 292.804 128.8 292.856C131.216 292.843 133.625 292.612 136 292.168V312C136 314.122 135.157 316.157 133.657 317.657C132.157 319.157 130.122 320 128 320ZM185.24 215.712C184.328 216.434 183.584 217.346 183.06 218.385C182.536 219.424 182.245 220.565 182.208 221.728L181.896 232H168C165.878 232 163.843 232.843 162.343 234.343C160.843 235.843 160 237.878 160 240C160 242.122 160.843 244.157 162.343 245.657C163.843 247.157 165.878 248 168 248H178.072C175.869 252.752 172.748 257.021 168.889 260.562C165.029 264.103 160.508 266.845 155.584 268.632L137.056 275.384C132.868 276.925 128.331 277.261 123.961 276.353C119.591 275.445 115.564 273.33 112.336 270.248L104.48 262.816L106.152 258.016C110.03 246.962 112.007 235.331 112 223.616V199.608L130.064 192.848C132.312 195.573 135.133 197.769 138.325 199.282C141.517 200.795 145.003 201.586 148.536 201.6C151.325 201.602 154.092 201.115 156.712 200.16L188.44 188.608L199.256 204.608L185.24 215.712ZM130.312 144.112C130.757 143.159 131.385 142.304 132.16 141.594C132.936 140.884 133.844 140.335 134.832 139.976L143.712 136.776C143.712 139.502 144.177 142.207 145.088 144.776L156 174.832C156.94 177.392 158.315 179.771 160.064 181.864L151.216 185.064C149.219 185.772 147.023 185.665 145.104 184.767C143.185 183.869 141.696 182.251 140.96 180.264L130.024 150.2C129.313 148.212 129.416 146.024 130.312 144.112ZM201.136 158.4C201.495 159.388 201.656 160.438 201.609 161.489C201.562 162.54 201.309 163.571 200.863 164.523C200.417 165.476 199.788 166.331 199.011 167.04C198.234 167.75 197.325 168.299 196.336 168.656L181.296 174.136C179.299 174.846 177.102 174.74 175.182 173.842C173.263 172.943 171.774 171.324 171.04 169.336L160.104 139.264C159.745 138.275 159.584 137.226 159.631 136.175C159.678 135.124 159.931 134.093 160.377 133.141C160.823 132.188 161.452 131.333 162.229 130.624C163.006 129.914 163.915 129.365 164.904 129.008L179.928 123.528C180.809 123.212 181.737 123.05 182.672 123.048C184.313 123.049 185.914 123.555 187.257 124.496C188.601 125.438 189.623 126.77 190.184 128.312L201.136 158.4ZM16 147.2C16.008 141.749 17.8636 136.461 21.264 132.2L28.928 122.6C39.2963 109.649 53.1204 99.8997 68.8 94.48L150.936 66C156.766 63.8673 162.023 60.4146 166.296 55.912L176.8 44.8L186.056 70.216C187.32 73.7195 187.756 77.468 187.33 81.1681C186.904 84.8682 185.627 88.4195 183.6 91.544L172 109.432L159.472 113.992H159.424L129.36 124.936C124.688 126.612 120.659 129.711 117.84 133.797C115.022 137.882 113.556 142.749 113.648 147.712L28.64 178.848L19.424 163.488C17.184 159.757 16.0004 155.488 16 151.136V147.2ZM31.456 209.8C30.3694 209.202 29.4285 208.372 28.701 207.368C27.9734 206.363 27.4772 205.211 27.248 203.992C26.7679 202.076 27.0138 200.049 27.9384 198.303C28.863 196.558 30.401 195.216 32.256 194.536L117.76 163.24L123.24 178.32L37.976 210.224C36.9231 210.624 35.7971 210.795 34.6729 210.726C33.5488 210.657 32.4522 210.349 31.456 209.824V209.8ZM96 205.6V223.68C96.0024 232.672 94.6237 241.611 91.912 250.184L61.232 218.608L96 205.6Z" fill="url(#paint2_linear_693_168)"/>
<path d="M393.535 304H340.279L330.095 288.72C327.918 285.453 324.809 282.916 321.171 281.439C317.534 279.962 313.536 279.612 309.697 280.436C305.859 281.26 302.357 283.219 299.646 286.058C296.935 288.898 295.14 292.487 294.495 296.36L288.663 331.368L224.799 376.088C217.544 381.057 208.977 383.762 200.184 383.862C191.391 383.962 182.765 381.451 175.399 376.648L140.447 353.344C138.682 352.166 136.521 351.738 134.44 352.154C132.359 352.57 130.529 353.795 129.351 355.56C128.174 357.325 127.745 359.486 128.161 361.567C128.577 363.648 129.802 365.478 131.567 366.656L166.519 389.96C176.582 396.508 188.36 399.926 200.364 399.784C212.369 399.642 224.062 395.945 233.967 389.16L294.247 346.96L308.799 366.4L239.327 418.504C227.633 427.238 213.435 431.971 198.839 432C185.522 432.017 172.501 428.074 161.431 420.672L108.439 385.344C106.674 384.166 104.513 383.738 102.432 384.154C100.351 384.57 98.5206 385.795 97.3431 387.56C96.1655 389.325 95.7374 391.486 96.153 393.567C96.5686 395.648 97.7938 397.478 99.5591 398.656L152.551 433.984C166.249 443.143 182.361 448.021 198.839 448C216.893 447.965 234.456 442.11 248.919 431.304L323.503 375.368L348.959 368.968C352.687 368.048 356.331 366.82 359.855 365.296L402.399 347.112C407.156 345.074 411.063 341.455 413.46 336.869C415.857 332.282 416.597 327.009 415.555 321.94C414.512 316.871 411.752 312.317 407.74 309.048C403.728 305.78 398.71 303.996 393.535 304ZM396.087 332.408L353.535 350.632C350.8 351.808 347.975 352.763 345.087 353.488L323.207 358.952L304.455 333.936L310.279 298.984C310.451 298.313 310.808 297.703 311.308 297.224C311.808 296.744 312.432 296.414 313.11 296.27C313.788 296.126 314.492 296.174 315.144 296.409C315.796 296.644 316.369 297.057 316.799 297.6L329.359 316.448C330.089 317.54 331.077 318.435 332.235 319.054C333.393 319.674 334.686 319.998 335.999 320H393.535C395.025 319.997 396.471 320.51 397.627 321.45C398.783 322.391 399.578 323.702 399.878 325.162C400.179 326.622 399.965 328.14 399.274 329.461C398.583 330.781 397.458 331.822 396.087 332.408Z" fill="url(#paint3_linear_693_168)"/>
<defs>
<linearGradient id="paint0_linear_693_168" x1="259.161" y1="-0.500005" x2="448.548" y2="271.033" gradientUnits="userSpaceOnUse">
<stop stop-color="#8705FF"/>
<stop offset="1" stop-color="#CC00FF"/>
</linearGradient>
<linearGradient id="paint1_linear_693_168" x1="293.975" y1="31.6268" x2="442.942" y2="209.638" gradientUnits="userSpaceOnUse">
<stop stop-color="#8705FF"/>
<stop offset="1" stop-color="#CC00FF"/>
</linearGradient>
<linearGradient id="paint2_linear_693_168" x1="52.7352" y1="21.0266" x2="407.838" y2="447.775" gradientUnits="userSpaceOnUse">
<stop stop-color="#8705FF"/>
<stop offset="1" stop-color="#CC00FF"/>
</linearGradient>
<linearGradient id="paint3_linear_693_168" x1="139.951" y1="279.672" x2="225.472" y2="513.237" gradientUnits="userSpaceOnUse">
<stop stop-color="#8705FF"/>
<stop offset="1" stop-color="#CC00FF"/>
</linearGradient>
</defs>
</svg>
