<svg width="513" height="513" viewBox="0 0 513 513" fill="none" xmlns="http://www.w3.org/2000/svg">
<path d="M292.633 215.996L230.399 278.23L219.366 267.196C217.756 265.642 215.601 264.782 213.363 264.801C211.126 264.821 208.986 265.718 207.404 267.3C205.822 268.882 204.924 271.023 204.905 273.26C204.885 275.497 205.745 277.653 207.3 279.262L224.366 296.329C225.967 297.929 228.137 298.827 230.399 298.827C232.662 298.827 234.832 297.929 236.433 296.329L304.699 228.062C306.254 226.453 307.114 224.297 307.094 222.06C307.075 219.823 306.177 217.682 304.595 216.1C303.013 214.518 300.873 213.621 298.635 213.601C296.398 213.582 294.242 214.442 292.633 215.996Z" fill="url(#paint0_linear_693_174)"/>
<path d="M392.533 273.229H391.347C394.101 252.564 392.056 231.542 385.37 211.795C378.684 192.048 367.538 174.108 352.796 159.366C338.055 144.624 320.114 133.478 300.367 126.792C280.62 120.107 259.599 118.061 238.933 120.815V119.629C238.961 99.401 233.852 79.4969 224.084 61.7828C214.317 44.0688 200.212 29.1248 183.091 18.3518C165.97 7.57882 146.394 1.32955 126.198 0.189805C106.002 -0.949937 85.8468 3.05718 67.6225 11.8355C49.3982 20.6139 33.7013 33.876 22.0032 50.3787C10.3051 66.8814 2.98888 86.0843 0.740378 106.187C-1.50813 126.29 1.38471 146.635 9.14772 165.314C16.9107 183.994 29.2897 200.396 45.1242 212.984C45.2607 213.129 45.457 213.206 45.6021 213.342C56.4471 221.936 68.7045 228.577 81.8261 232.969C81.9967 233.046 82.1759 233.097 82.3551 233.165C94.3359 237.091 106.863 239.096 119.467 239.096H120.653C117.899 259.761 119.944 280.783 126.63 300.53C133.315 320.277 144.462 338.217 159.203 352.959C173.945 367.701 191.886 378.847 211.633 385.533C231.379 392.218 252.401 394.264 273.067 391.51V392.696C273.076 410.65 277.138 428.37 284.952 444.534C292.765 460.699 304.127 474.89 318.191 486.051C318.327 486.196 318.524 486.272 318.669 486.409C329.514 495.003 341.771 501.644 354.893 506.036C355.063 506.113 355.243 506.164 355.422 506.232C379.527 514.2 405.557 514.2 429.662 506.232C429.841 506.164 430.02 506.113 430.191 506.036C443.311 501.646 455.566 495.004 466.406 486.409C466.56 486.272 466.756 486.196 466.893 486.051C486.297 470.64 500.424 449.571 507.314 425.769C514.203 401.966 513.513 376.609 505.34 353.216C497.166 329.823 481.915 309.554 461.701 295.221C441.487 280.888 417.313 273.202 392.533 273.229ZM392.533 409.763C385.679 409.803 378.916 408.183 372.824 405.041C366.732 401.899 361.491 397.328 357.55 391.719C353.608 386.111 351.084 379.632 350.191 372.835C349.299 366.039 350.066 359.127 352.427 352.692C359.031 346.065 364.938 338.78 370.056 330.949C376.78 326.69 384.575 324.429 392.533 324.429C403.849 324.429 414.702 328.925 422.703 336.926C430.705 344.928 435.2 355.78 435.2 367.096C435.2 378.412 430.705 389.264 422.703 397.266C414.702 405.267 403.849 409.763 392.533 409.763ZM17.0666 119.629C17.0666 63.0789 62.9162 17.2293 119.467 17.2293C176.017 17.2293 221.867 63.0789 221.867 119.629C221.867 121.225 221.815 122.701 221.756 124.152C203.729 128.833 186.856 137.169 172.186 148.643C167.583 145.166 162.49 142.391 157.073 140.408C166.668 132.637 173.62 122.084 176.971 110.2C180.322 98.3165 179.908 85.6863 175.786 74.0475C171.664 62.4086 164.037 52.3331 153.954 45.2071C143.87 38.0811 131.827 34.2549 119.479 34.2549C107.132 34.2549 95.0885 38.0811 85.0052 45.2071C74.9219 52.3331 67.2946 62.4086 63.1727 74.0475C59.0509 85.6863 58.6371 98.3165 61.9882 110.2C65.3393 122.084 72.2906 132.637 81.8858 140.408C71.7847 144.125 62.8734 150.498 56.0912 158.856C49.3089 167.213 44.907 177.246 43.3493 187.896C26.44 169.178 17.075 144.854 17.0666 119.629ZM76.7999 94.0293C76.7999 82.7134 81.2952 71.8609 89.2967 63.8594C97.2983 55.8578 108.151 51.3626 119.467 51.3626C130.783 51.3626 141.635 55.8578 149.636 63.8594C157.638 71.8609 162.133 82.7134 162.133 94.0293C162.133 105.345 157.638 116.198 149.636 124.199C141.635 132.201 130.783 136.696 119.467 136.696C108.151 136.696 97.2983 132.201 89.2967 124.199C81.2952 116.198 76.7999 105.345 76.7999 94.0293ZM119.467 222.029C110.825 221.997 102.222 220.865 93.8666 218.659V196.429C93.8666 194.166 92.9676 191.996 91.3672 190.395C89.7669 188.795 87.5964 187.896 85.3333 187.896C83.0701 187.896 80.8996 188.795 79.2993 190.395C77.699 191.996 76.7999 194.166 76.7999 196.429V212.643C70.803 209.878 65.0875 206.54 59.7333 202.676V196.429C59.7468 185.118 64.2464 174.273 72.245 166.274C80.2436 158.276 91.0882 153.776 102.4 153.763H136.533C144.478 153.763 152.26 155.998 158.984 160.239C142.089 177.356 130.019 198.634 123.998 221.918C122.53 221.978 121.054 222.029 119.467 222.029ZM136.533 256.163C136.533 190.183 190.02 136.696 256 136.696C321.98 136.696 375.467 190.183 375.467 256.163C375.467 322.142 321.98 375.629 256 375.629C190.046 375.561 136.602 322.117 136.533 256.163ZM290.133 392.696C290.133 391.1 290.184 389.624 290.244 388.173C305.477 384.267 319.914 377.742 332.911 368.888C333.165 377.47 335.268 385.895 339.078 393.589C342.888 401.283 348.315 408.063 354.987 413.466C344.878 417.179 335.959 423.551 329.17 431.911C322.382 440.27 317.975 450.307 316.416 460.963C299.507 442.245 290.142 417.92 290.133 392.696ZM366.933 491.683V469.496C366.933 467.233 366.034 465.062 364.434 463.462C362.834 461.862 360.663 460.963 358.4 460.963C356.137 460.963 353.966 461.862 352.366 463.462C350.766 465.062 349.867 467.233 349.867 469.496V485.709C343.87 482.945 338.154 479.607 332.8 475.742V469.496C332.814 458.184 337.313 447.34 345.312 439.341C353.31 431.342 364.155 426.843 375.467 426.829H409.6C420.912 426.843 431.756 431.342 439.755 439.341C447.753 447.34 452.253 458.184 452.267 469.496V475.7C446.914 479.579 441.199 482.931 435.2 485.709V469.496C435.2 467.233 434.301 465.062 432.701 463.462C431.1 461.862 428.93 460.963 426.667 460.963C424.403 460.963 422.233 461.862 420.633 463.462C419.032 465.062 418.133 467.233 418.133 469.496V491.683C401.362 496.177 383.704 496.177 366.933 491.683ZM468.651 460.963C467.091 450.307 462.685 440.27 455.896 431.911C449.108 423.551 440.189 417.179 430.08 413.466C439.653 405.693 446.585 395.147 449.925 383.277C453.266 371.407 452.851 358.794 448.737 347.169C444.623 335.544 437.013 325.477 426.95 318.35C416.887 311.223 404.865 307.385 392.533 307.363C389.035 307.388 385.553 307.73 382.114 308.378C384.495 302.533 386.466 296.525 388.011 290.407C408.156 289.481 428.125 294.533 445.406 304.929C462.686 315.325 476.506 330.6 485.126 348.832C493.746 367.063 496.781 387.437 493.849 407.389C490.918 427.342 482.151 445.981 468.651 460.963ZM304.7 11.1962C303.099 9.59645 300.929 8.69776 298.667 8.69776C296.404 8.69776 294.234 9.59645 292.634 11.1962L267.034 36.7962C265.434 38.3964 264.535 40.5665 264.535 42.8293C264.535 45.092 265.434 47.2621 267.034 48.8623L292.634 74.4623C294.243 76.0168 296.399 76.8769 298.636 76.8574C300.873 76.838 303.014 75.9405 304.596 74.3584C306.178 72.7762 307.075 70.636 307.095 68.3986C307.114 66.1612 306.254 64.0056 304.7 62.3962L294.084 51.7807C402.074 58.4965 486.255 147.968 486.4 256.163C486.4 258.426 487.299 260.596 488.899 262.197C490.5 263.797 492.67 264.696 494.933 264.696C497.196 264.696 499.367 263.797 500.967 262.197C502.568 260.596 503.467 258.426 503.467 256.163C503.33 138.249 411.085 40.9946 293.35 34.6117L304.7 23.2623C306.299 21.6621 307.198 19.492 307.198 17.2293C307.198 14.9665 306.299 12.7964 304.7 11.1962ZM25.5999 256.163C25.5999 253.899 24.7009 251.729 23.1006 250.129C21.5003 248.528 19.3298 247.629 17.0666 247.629C14.8034 247.629 12.6329 248.528 11.0326 250.129C9.4323 251.729 8.53326 253.899 8.53326 256.163C8.66979 374.076 100.915 471.331 218.65 477.714L207.3 489.063C206.485 489.85 205.835 490.792 205.388 491.833C204.941 492.874 204.705 493.994 204.695 495.127C204.686 496.26 204.901 497.383 205.331 498.432C205.76 499.481 206.393 500.434 207.194 501.235C207.996 502.036 208.948 502.67 209.997 503.099C211.046 503.528 212.169 503.744 213.303 503.734C214.436 503.724 215.555 503.489 216.596 503.041C217.638 502.594 218.579 501.944 219.366 501.129L244.966 475.529C246.566 473.929 247.465 471.759 247.465 469.496C247.465 467.233 246.566 465.063 244.966 463.463L219.366 437.863C217.757 436.308 215.601 435.448 213.364 435.468C211.127 435.487 208.986 436.385 207.404 437.967C205.822 439.549 204.925 441.689 204.905 443.927C204.886 446.164 205.746 448.32 207.3 449.929L217.916 460.544C109.926 453.829 25.745 364.357 25.5999 256.163Z" fill="url(#paint1_linear_693_174)"/>
<defs>
<linearGradient id="paint0_linear_693_174" x1="218.94" y1="213.434" x2="277.342" y2="313.836" gradientUnits="userSpaceOnUse">
<stop stop-color="#8705FF"/>
<stop offset="1" stop-color="#CC00FF"/>
</linearGradient>
<linearGradient id="paint1_linear_693_174" x1="70.3239" y1="-1.00042" x2="449.3" y2="542.156" gradientUnits="userSpaceOnUse">
<stop stop-color="#8705FF"/>
<stop offset="1" stop-color="#CC00FF"/>
</linearGradient>
</defs>
</svg>
