<svg width="513" height="514" viewBox="0 0 513 514" fill="none" xmlns="http://www.w3.org/2000/svg">
<g clip-path="url(#clip0_1347_64)">
<path d="M292.635 216.496L230.401 278.73L219.368 267.696C217.758 266.142 215.603 265.282 213.365 265.301C211.128 265.321 208.988 266.218 207.406 267.8C205.824 269.382 204.926 271.523 204.907 273.76C204.887 275.997 205.747 278.153 207.302 279.762L224.368 296.829C225.969 298.429 228.139 299.327 230.401 299.327C232.664 299.327 234.834 298.429 236.435 296.829L304.701 228.562C306.256 226.953 307.116 224.797 307.096 222.56C307.077 220.323 306.179 218.182 304.597 216.6C303.015 215.018 300.875 214.121 298.637 214.101C296.4 214.082 294.244 214.942 292.635 216.496Z" fill="url(#paint0_linear_1347_64)"/>
<path d="M392.533 273.729H391.347C394.101 253.064 392.056 232.042 385.37 212.295C378.684 192.548 367.538 174.608 352.796 159.866C338.055 145.124 320.114 133.978 300.367 127.292C280.62 120.607 259.599 118.561 238.933 121.315V120.129C238.961 99.901 233.852 79.9969 224.084 62.2828C214.317 44.5688 200.212 29.6248 183.091 18.8518C165.97 8.07882 146.394 1.82955 126.198 0.689805C106.002 -0.449937 85.8468 3.55718 67.6225 12.3355C49.3982 21.1139 33.7013 34.376 22.0032 50.8787C10.3051 67.3814 2.98888 86.5843 0.740379 106.687C-1.50813 126.79 1.38471 147.135 9.14772 165.814C16.9107 184.494 29.2897 200.896 45.1242 213.484C45.2607 213.629 45.457 213.706 45.6021 213.842C56.4471 222.436 68.7045 229.077 81.8261 233.469C81.9967 233.546 82.1759 233.597 82.3551 233.665C94.3359 237.591 106.863 239.596 119.467 239.596H120.653C117.899 260.261 119.944 281.283 126.63 301.03C133.315 320.777 144.462 338.717 159.203 353.459C173.945 368.201 191.886 379.347 211.633 386.033C231.379 392.718 252.401 394.764 273.067 392.01V393.196C273.076 411.15 277.138 428.87 284.952 445.034C292.765 461.199 304.127 475.39 318.191 486.551C318.327 486.696 318.524 486.772 318.669 486.909C329.514 495.503 341.771 502.144 354.893 506.536C355.063 506.613 355.243 506.664 355.422 506.732C379.527 514.7 405.557 514.7 429.662 506.732C429.841 506.664 430.02 506.613 430.191 506.536C443.311 502.146 455.566 495.504 466.406 486.909C466.56 486.772 466.756 486.696 466.893 486.551C486.297 471.14 500.424 450.071 507.314 426.269C514.203 402.466 513.513 377.109 505.34 353.716C497.166 330.323 481.915 310.054 461.701 295.721C441.487 281.388 417.313 273.702 392.533 273.729ZM392.533 410.263C385.679 410.303 378.916 408.683 372.824 405.541C366.732 402.399 361.491 397.828 357.55 392.219C353.608 386.611 351.084 380.132 350.191 373.335C349.299 366.539 350.066 359.627 352.427 353.192C359.031 346.565 364.938 339.28 370.056 331.449C376.78 327.19 384.575 324.929 392.533 324.929C403.849 324.929 414.702 329.425 422.703 337.426C430.705 345.428 435.2 356.28 435.2 367.596C435.2 378.912 430.705 389.764 422.703 397.766C414.702 405.767 403.849 410.263 392.533 410.263ZM17.0666 120.129C17.0666 63.5789 62.9162 17.7293 119.467 17.7293C176.017 17.7293 221.867 63.5789 221.867 120.129C221.867 121.725 221.815 123.201 221.756 124.652C203.729 129.333 186.856 137.669 172.186 149.143C167.583 145.666 162.49 142.891 157.073 140.908C166.668 133.137 173.62 122.584 176.971 110.7C180.322 98.8165 179.908 86.1863 175.786 74.5475C171.664 62.9086 164.037 52.8331 153.954 45.7071C143.87 38.5811 131.827 34.7549 119.479 34.7549C107.132 34.7549 95.0885 38.5811 85.0052 45.7071C74.9219 52.8331 67.2946 62.9086 63.1727 74.5475C59.0509 86.1863 58.6371 98.8165 61.9882 110.7C65.3393 122.584 72.2906 133.137 81.8858 140.908C71.7847 144.625 62.8734 150.998 56.0912 159.356C49.3089 167.713 44.907 177.746 43.3493 188.396C26.44 169.678 17.075 145.354 17.0666 120.129ZM76.7999 94.5293C76.7999 83.2134 81.2952 72.3609 89.2967 64.3594C97.2983 56.3578 108.151 51.8626 119.467 51.8626C130.783 51.8626 141.635 56.3578 149.636 64.3594C157.638 72.3609 162.133 83.2134 162.133 94.5293C162.133 105.845 157.638 116.698 149.636 124.699C141.635 132.701 130.783 137.196 119.467 137.196C108.151 137.196 97.2983 132.701 89.2967 124.699C81.2952 116.698 76.7999 105.845 76.7999 94.5293ZM119.467 222.529C110.825 222.497 102.222 221.365 93.8666 219.159V196.929C93.8666 194.666 92.9676 192.496 91.3672 190.895C89.7669 189.295 87.5964 188.396 85.3333 188.396C83.0701 188.396 80.8996 189.295 79.2993 190.895C77.699 192.496 76.7999 194.666 76.7999 196.929V213.143C70.803 210.378 65.0875 207.04 59.7333 203.176V196.929C59.7468 185.618 64.2464 174.773 72.245 166.774C80.2436 158.776 91.0882 154.276 102.4 154.263H136.533C144.478 154.263 152.26 156.498 158.984 160.739C142.089 177.856 130.019 199.134 123.998 222.418C122.53 222.478 121.054 222.529 119.467 222.529ZM136.533 256.663C136.533 190.683 190.02 137.196 256 137.196C321.98 137.196 375.467 190.683 375.467 256.663C375.467 322.642 321.98 376.129 256 376.129C190.046 376.061 136.602 322.617 136.533 256.663ZM290.133 393.196C290.133 391.6 290.184 390.124 290.244 388.673C305.477 384.767 319.914 378.242 332.911 369.388C333.165 377.97 335.268 386.395 339.078 394.089C342.888 401.783 348.315 408.563 354.987 413.966C344.878 417.679 335.959 424.051 329.17 432.411C322.382 440.77 317.975 450.807 316.416 461.463C299.507 442.745 290.142 418.42 290.133 393.196ZM366.933 492.183V469.996C366.933 467.733 366.034 465.562 364.434 463.962C362.834 462.362 360.663 461.463 358.4 461.463C356.137 461.463 353.966 462.362 352.366 463.962C350.766 465.562 349.867 467.733 349.867 469.996V486.209C343.87 483.445 338.154 480.107 332.8 476.242V469.996C332.814 458.684 337.313 447.84 345.312 439.841C353.31 431.842 364.155 427.343 375.467 427.329H409.6C420.912 427.343 431.756 431.842 439.755 439.841C447.753 447.84 452.253 458.684 452.267 469.996V476.2C446.914 480.079 441.199 483.431 435.2 486.209V469.996C435.2 467.733 434.301 465.562 432.701 463.962C431.1 462.362 428.93 461.463 426.667 461.463C424.403 461.463 422.233 462.362 420.633 463.962C419.032 465.562 418.133 467.733 418.133 469.996V492.183C401.362 496.677 383.704 496.677 366.933 492.183ZM468.651 461.463C467.091 450.807 462.685 440.77 455.896 432.411C449.108 424.051 440.189 417.679 430.08 413.966C439.653 406.193 446.585 395.647 449.925 383.777C453.266 371.907 452.851 359.294 448.737 347.669C444.623 336.044 437.013 325.977 426.95 318.85C416.887 311.723 404.865 307.885 392.533 307.863C389.035 307.888 385.553 308.23 382.114 308.878C384.495 303.033 386.466 297.025 388.011 290.907C408.156 289.981 428.125 295.033 445.406 305.429C462.686 315.825 476.506 331.1 485.126 349.332C493.746 367.563 496.781 387.937 493.849 407.889C490.918 427.842 482.151 446.481 468.651 461.463ZM304.7 11.6962C303.099 10.0965 300.929 9.19776 298.667 9.19776C296.404 9.19776 294.234 10.0965 292.634 11.6962L267.034 37.2962C265.434 38.8964 264.535 41.0665 264.535 43.3293C264.535 45.592 265.434 47.7621 267.034 49.3623L292.634 74.9623C294.243 76.5168 296.399 77.3769 298.636 77.3574C300.873 77.338 303.014 76.4405 304.596 74.8584C306.178 73.2762 307.075 71.136 307.095 68.8986C307.114 66.6612 306.254 64.5056 304.7 62.8962L294.084 52.2807C402.074 58.9965 486.255 148.468 486.4 256.663C486.4 258.926 487.299 261.096 488.899 262.697C490.5 264.297 492.67 265.196 494.933 265.196C497.196 265.196 499.367 264.297 500.967 262.697C502.568 261.096 503.467 258.926 503.467 256.663C503.33 138.749 411.085 41.4946 293.35 35.1117L304.7 23.7623C306.299 22.1621 307.198 19.992 307.198 17.7293C307.198 15.4665 306.299 13.2964 304.7 11.6962ZM25.5999 256.663C25.5999 254.399 24.7009 252.229 23.1006 250.629C21.5003 249.028 19.3298 248.129 17.0666 248.129C14.8034 248.129 12.6329 249.028 11.0326 250.629C9.4323 252.229 8.53326 254.399 8.53326 256.663C8.66979 374.576 100.915 471.831 218.65 478.214L207.3 489.563C206.485 490.35 205.835 491.292 205.388 492.333C204.941 493.374 204.705 494.494 204.695 495.627C204.686 496.76 204.901 497.883 205.331 498.932C205.76 499.981 206.393 500.934 207.194 501.735C207.996 502.536 208.948 503.17 209.997 503.599C211.046 504.028 212.169 504.244 213.303 504.234C214.436 504.224 215.555 503.989 216.596 503.541C217.638 503.094 218.579 502.444 219.366 501.629L244.966 476.029C246.566 474.429 247.465 472.259 247.465 469.996C247.465 467.733 246.566 465.563 244.966 463.963L219.366 438.363C217.757 436.808 215.601 435.948 213.364 435.968C211.127 435.987 208.986 436.885 207.404 438.467C205.822 440.049 204.925 442.189 204.905 444.427C204.886 446.664 205.746 448.82 207.3 450.429L217.916 461.044C109.926 454.329 25.745 364.857 25.5999 256.663Z" fill="url(#paint1_linear_1347_64)"/>
</g>
<defs>
<linearGradient id="paint0_linear_1347_64" x1="208.552" y1="219.594" x2="286.497" y2="326.852" gradientUnits="userSpaceOnUse">
<stop stop-color="#1BA2D7"/>
<stop offset="1" stop-color="#8D3DFA"/>
</linearGradient>
<linearGradient id="paint1_linear_1347_64" x1="18.2687" y1="33.5135" x2="506.178" y2="593.26" gradientUnits="userSpaceOnUse">
<stop stop-color="#1BA2D7"/>
<stop offset="1" stop-color="#8D3DFA"/>
</linearGradient>
<clipPath id="clip0_1347_64">
<rect width="513" height="513" fill="white" transform="translate(0 0.5)"/>
</clipPath>
</defs>
</svg>
