<svg width="239" height="408" viewBox="0 0 239 408" fill="none" xmlns="http://www.w3.org/2000/svg">
<path d="M43.8008 247.468C43.8008 247.468 45.5008 261.168 56.1008 264.768C56.4008 264.868 56.7008 264.968 57.1008 265.068C58.2008 265.368 59.6008 265.668 61.4008 265.968C67.7008 267.068 77.9008 268.368 89.4008 270.168C90.7008 270.368 92.0008 270.568 93.4008 270.768C96.4008 271.268 99.4008 271.768 102.501 272.268L106.501 272.968C111.101 273.868 115.701 274.768 120.301 275.868C132.401 278.768 143.701 282.368 151.501 286.968C154.901 288.968 157.601 291.068 159.501 293.468C158.901 291.768 142.901 242.968 169.201 205.968C196.001 168.368 149.801 151.868 149.801 151.868C149.801 151.868 113.601 148.068 96.0008 146.068C95.3008 145.968 94.7008 145.868 94.1008 145.868C91.6008 145.568 89.1008 145.268 86.6008 144.868C83.8008 144.168 51.1008 161.768 51.1008 161.768L49.6008 165.168C49.6008 165.168 59.3008 182.768 59.9008 191.668C61.9008 221.468 43.8008 247.468 43.8008 247.468Z" fill="#272D4F"/>
<path d="M89.3984 270.168C90.6984 270.368 91.9984 270.568 93.3984 270.768C103.898 238.768 100.598 204.768 94.8984 171.668L90.9984 172.368C96.5984 204.868 99.8984 238.768 89.3984 270.168Z" fill="white"/>
<path d="M116.398 275.068C117.698 275.368 118.998 275.668 120.298 275.968C129.398 234.968 159.098 227.868 139.698 198.968C134.398 190.968 125.698 182.068 126.398 171.968L122.398 171.668C121.298 186.868 135.698 196.468 140.498 208.868C148.298 229.068 124.998 236.768 116.398 275.068Z" fill="#64B5F4"/>
<path d="M104.001 243.668C102.701 253.168 102.101 262.768 102.401 272.368L106.401 273.068C106.101 263.468 106.601 253.768 107.901 244.268C109.101 235.968 110.801 230.268 117.501 226.268C124.001 221.968 127.301 216.768 122.901 203.168C116.501 183.068 107.301 163.868 95.8008 146.068C95.6008 145.768 95.4008 145.368 95.1008 145.068L93.9008 145.868L91.8008 147.268C103.501 164.968 112.701 184.168 119.101 204.368C120.801 209.568 122.201 215.968 118.801 220.068C118.001 220.968 117.001 221.768 115.901 222.468C110.301 226.468 106.101 229.068 104.001 243.668Z" fill="#FEC400"/>
<path d="M57.1016 265.068C58.2016 265.368 59.6016 265.668 61.4016 265.968L72.4016 250.668C78.3016 242.468 86.4016 231.468 96.2016 228.968C110.802 224.068 136.402 233.968 144.002 197.968C144.802 194.368 145.302 190.668 145.802 187.068C146.602 181.368 147.402 175.468 149.302 170.068L145.502 168.768C143.602 174.568 142.702 180.668 141.902 186.468C141.402 189.968 140.902 193.668 140.102 197.168C133.602 229.868 111.202 219.568 94.0016 225.468C83.5016 229.168 76.5016 238.068 69.1016 248.368L57.1016 265.068Z" fill="#FF4F5A"/>
<path d="M17.8984 96.8682C17.8984 146.268 57.8984 186.268 107.298 186.268C117.898 186.268 127.998 184.468 137.398 181.068C135.198 175.768 134.498 171.968 134.498 171.968C134.098 170.368 133.798 167.968 133.698 165.068C132.998 152.668 134.298 131.668 134.298 131.668C135.498 129.468 136.598 127.368 137.498 125.268C159.698 76.1682 113.098 63.3682 113.098 63.3682L112.198 7.76815C110.598 7.66815 108.998 7.66816 107.398 7.66816C57.8984 7.56816 17.8984 47.5682 17.8984 96.8682Z" fill="#FEC400"/>
<path d="M61.4992 117.068C62.0992 119.068 62.8992 120.968 63.9992 122.868L57.3992 137.768C56.8992 138.868 57.1992 140.068 57.9992 140.968L71.9992 154.968C72.7992 155.768 74.0992 156.068 75.1992 155.568L90.0992 148.968C91.9992 150.068 93.8992 150.868 95.8992 151.468L101.799 166.568C102.199 167.668 103.299 168.368 104.499 168.368H124.299C125.499 168.368 126.499 167.668 126.999 166.568L132.899 151.368C134.899 150.768 136.799 149.968 138.699 148.968L153.599 155.568C154.699 156.068 155.899 155.768 156.799 154.968L170.799 140.968C171.599 140.168 171.899 138.868 171.399 137.768L164.799 122.768C165.799 120.968 166.599 118.968 167.199 117.068L182.299 111.168C183.399 110.768 184.099 109.668 184.099 108.468V88.6683C184.099 87.4683 183.399 86.4683 182.299 85.9683L167.199 80.1683C166.599 78.1683 165.799 76.2683 164.799 74.3683L171.399 59.4683C171.899 58.3683 171.599 57.1683 170.799 56.2683L156.799 42.2683C155.999 41.4683 154.699 41.1683 153.599 41.6683L138.699 48.2683C136.799 47.3683 134.899 46.5683 132.999 45.9683L127.099 30.7683C126.699 29.6683 125.599 28.9683 124.399 28.9683H104.599C103.399 28.9683 102.399 29.6683 101.899 30.7683L95.9992 45.8683C93.9992 46.5683 92.0992 47.3683 90.2992 48.2683L75.2992 41.6683C74.1992 41.1683 72.9992 41.4683 72.0992 42.2683L58.0992 56.2683C57.2992 57.0683 56.9992 58.3683 57.4992 59.4683L64.0992 74.3683C63.0992 76.2683 62.2992 78.1683 61.5992 80.2683L46.4992 86.0683C45.3992 86.4683 44.6992 87.5683 44.6992 88.7683V108.568C44.6992 109.768 45.3992 110.768 46.4992 111.268L61.4992 117.068Z" fill="white"/>
<path d="M146.802 101.968C146.302 123.368 128.502 140.368 107.002 139.868C86.3016 139.368 69.6016 122.668 69.1016 101.968C69.1016 80.4684 86.4016 63.0684 107.902 63.0684C129.402 63.0684 146.802 80.4684 146.802 101.968Z" fill="#272D4F"/>
<path d="M126.6 102.368C126.6 112.568 118.3 120.868 108.1 120.868C97.8997 120.668 89.7997 112.168 89.9997 101.968C90.1997 92.0682 98.1997 84.0682 108.1 83.8682C118.3 83.8682 126.6 92.1682 126.6 102.368Z" fill="white"/>
<path d="M111.898 0.168262L111.998 7.66826L112.898 63.2683C112.898 63.2683 159.498 76.1683 137.298 125.168C136.398 127.268 135.298 129.368 134.098 131.568C134.098 131.568 132.898 152.668 133.498 164.968C133.698 167.868 133.898 170.368 134.298 171.868C134.298 171.868 134.898 175.668 137.198 180.968C140.998 190.068 149.598 203.568 167.998 209.968C180.898 214.468 217.298 219.268 222.298 205.168C227.298 191.168 219.398 180.268 219.898 177.868C220.398 175.468 225.198 171.268 221.798 166.968C221.798 166.968 226.198 160.368 223.998 156.668C221.798 152.968 220.698 142.068 220.698 142.068C220.698 142.068 238.398 142.068 238.198 131.768C237.898 121.468 213.798 90.4683 213.798 90.4683C213.798 90.4683 220.398 76.4683 219.598 74.0683C218.998 71.7683 198.798 -4.03174 111.898 0.168262Z" fill="#B3D4FF"/>
<path d="M52.801 145.668C57.201 150.568 62.201 154.868 67.801 158.368C79.601 165.968 93.201 169.968 107.201 169.968C116.201 169.968 125.201 168.268 133.601 165.068C133.401 159.568 133.301 154.068 133.501 148.568C133.501 147.868 133.501 147.168 133.501 146.368C133.701 138.268 134.101 131.568 134.101 131.568C135.301 129.368 136.401 127.268 137.301 125.168C129.501 133.568 118.601 138.268 107.201 138.268C96.601 138.268 86.301 134.168 78.601 126.868C76.301 124.668 72.901 124.268 70.201 125.868L54.701 134.868C50.801 137.168 49.901 142.368 52.801 145.668Z" fill="#64B5F4"/>
<path d="M66.3008 157.168L66.9008 157.868L67.6008 158.668L67.8008 158.468L81.2008 146.268C82.5008 145.068 84.5008 144.868 86.0008 145.768C92.9008 149.668 110.901 157.368 133.501 148.568C133.501 147.868 133.501 147.168 133.501 146.368C111.301 155.368 93.7008 147.768 87.0008 143.968C84.7008 142.668 81.8008 142.968 79.8008 144.768L66.3008 157.168ZM178.801 95.1685C178.801 95.1685 198.301 106.968 202.501 105.668C202.701 105.568 202.901 105.568 203.101 105.468C203.701 105.068 204.301 104.568 204.701 103.968C207.001 100.568 207.501 93.7685 207.501 93.7685C207.501 93.7685 207.601 88.7685 205.101 86.0685C204.601 85.4685 203.901 84.9685 203.101 84.7685C202.801 84.6685 202.401 84.5685 202.001 84.4685C196.401 83.7685 178.801 95.1685 178.801 95.1685Z" fill="#222333"/>
<path d="M219.999 177.968C220.499 175.568 225.299 171.368 221.899 167.068C221.899 167.068 226.299 160.468 224.099 156.768C224.099 156.768 213.399 159.568 208.399 164.968C203.299 170.468 216.199 177.268 219.999 177.968Z" fill="#7D9CE3"/>
<path d="M182.299 172.968C205.799 165.368 221.499 168.068 221.699 168.068L222.099 166.068C221.399 165.968 205.699 163.168 181.699 170.968L182.299 172.968Z" fill="#222333"/>
<path d="M183.098 213.568L185.098 213.468L183.198 162.968C183.098 158.668 181.298 154.568 178.298 151.568L141.798 114.468L140.398 115.868L176.898 152.968C179.598 155.668 181.098 159.268 181.298 163.068L183.098 213.568Z" fill="#222333"/>
<path d="M0 407.668H202C202 407.668 183.5 314.168 159.5 293.568C157 291.468 154.4 289.268 151.5 287.068C126.3 272.168 65.4 267.968 56.1 264.868C45.5 261.268 43.8 247.568 43.8 247.568C43.8 247.568 37.3 253.168 23.4 286.268C9.49999 319.268 0 407.668 0 407.668Z" fill="#B3D4FF"/>
<path d="M197.398 95.1682C197.398 99.8682 199.698 103.768 202.998 105.468C203.598 105.068 204.198 104.568 204.598 103.968C201.598 102.868 199.398 99.3682 199.398 95.1682C199.398 90.7682 201.798 87.0682 204.998 86.1682C204.498 85.5682 203.798 85.0682 202.998 84.8682C199.698 86.4682 197.398 90.4682 197.398 95.1682Z" fill="#F8C51A"/>
</svg>
