<svg width="492" height="418" viewBox="0 0 492 418" fill="none" xmlns="http://www.w3.org/2000/svg">
<path d="M359.231 125.569C359.231 126.273 359.369 126.971 359.639 127.622C359.909 128.273 360.304 128.865 360.802 129.363C361.3 129.861 361.892 130.256 362.543 130.526C363.194 130.796 363.892 130.934 364.596 130.934C437.909 130.934 463.28 85.2743 475.89 85.2743C478.103 85.2743 486.459 78.0516 490.177 72.0612C491.439 70.0292 491.519 66.2188 491.519 65.4678C491.519 50.5709 478.613 37.1087 456.083 25.9687C434.336 15.2167 403.147 6.28972 365.87 0.153683C365.08 -0.0390015 364.256 -0.0497401 363.462 0.122272C362.667 0.294284 361.922 0.644553 361.283 1.14664C360.644 1.64872 360.127 2.2895 359.771 3.02061C359.415 3.75171 359.231 4.55402 359.231 5.36698V125.569ZM0 65.4678C0 66.1164 1.29252 71.2716 2.61575 73.6041C7.34436 81.9326 17.9405 94.3298 20.2559 94.3298C20.5449 94.3298 97.2993 130.934 126.921 130.934C128.344 130.934 129.709 130.369 130.715 129.362C131.721 128.356 132.287 126.992 132.287 125.569V5.46142C132.301 4.67536 132.142 3.89586 131.821 3.17804C131.501 2.46021 131.026 1.8216 130.432 1.30735C129.837 0.79311 129.137 0.415797 128.38 0.20209C127.623 -0.0116173 126.829 -0.0564971 126.053 0.070627L126.056 0.0842815C88.5999 6.22487 57.2632 15.1769 35.4372 25.9687C12.9058 37.1087 0 50.5709 0 65.4678Z" fill="#3B566A"/>
<path d="M0.386719 65.4678C0.386719 75.8796 21.8168 86.1344 40.5093 95.3936C61.3671 105.726 91.6046 114.343 127.975 120.305C145.531 123.184 164.56 125.439 184.7 126.968C204.126 128.443 224.588 129.229 245.759 129.229C266.957 129.229 287.455 128.442 306.92 126.962C327.1 125.43 346.171 123.168 363.769 120.284C400.173 114.317 430.46 105.697 451.353 95.3652C470.068 86.1105 491.519 75.8659 491.519 65.4678V342.754C491.519 364.534 463.121 383.589 417.209 396.792C373.256 409.431 312.633 417.249 245.759 417.249C178.959 417.249 118.451 409.429 74.5539 396.786C28.7072 383.58 0.386719 364.525 0.386719 342.754V65.4678Z" fill="#B5D5F5"/>
<path d="M54.2639 144.771C54.2639 143.348 53.6985 141.983 52.6921 140.977C51.6858 139.97 50.3208 139.405 48.8976 139.405C47.4743 139.405 46.1094 139.97 45.103 140.977C44.0966 141.983 43.5312 143.348 43.5312 144.771V332.578C43.5312 334.002 44.0966 335.367 45.103 336.373C46.1094 337.379 47.4743 337.945 48.8976 337.945C50.3208 337.945 51.6858 337.379 52.6921 336.373C53.6985 335.367 54.2639 334.002 54.2639 332.578V144.771ZM447.991 144.771C447.991 143.348 447.425 141.983 446.419 140.977C445.413 139.97 444.048 139.405 442.624 139.405C441.201 139.405 439.836 139.97 438.83 140.977C437.823 141.983 437.258 143.348 437.258 144.771V332.578C437.258 334.002 437.823 335.367 438.83 336.373C439.836 337.379 441.201 337.945 442.624 337.945C444.048 337.945 445.413 337.379 446.419 336.373C447.425 335.367 447.991 334.002 447.991 332.578V144.771Z" fill="white"/>
<path d="M93.8639 227.835C92.8392 227.836 91.8566 228.243 91.132 228.967C90.4075 229.692 90.0003 230.675 90 231.699V295.906C90 296.931 90.4071 297.914 91.1317 298.639C91.8563 299.363 92.8391 299.77 93.8639 299.77H118.788C119.813 299.77 120.795 299.363 121.52 298.638C122.244 297.914 122.652 296.931 122.652 295.906V238.963C122.652 237.938 122.244 236.956 121.52 236.231C120.795 235.507 119.813 235.099 118.788 235.099C108.525 235.098 100.924 227.835 93.8639 227.835Z" fill="#484A4E"/>
<path d="M97.5681 291.285H115.083C116.942 291.285 118.709 291.657 120.357 292.39C122.012 293.131 123.491 294.215 124.698 295.568C125.953 296.961 126.862 298.519 127.415 300.216C127.964 301.901 128.147 303.693 127.954 305.564L123.781 345.759C123.459 348.947 121.963 351.902 119.585 354.049C117.207 356.196 114.115 357.383 110.911 357.379H101.739C98.5359 357.385 95.4451 356.199 93.0671 354.053C90.6873 351.904 89.1907 348.949 88.8675 345.759L84.6964 305.564C84.5019 303.693 84.6851 301.903 85.2346 300.216C85.7876 298.52 86.6967 296.961 87.9516 295.568C89.158 294.214 90.6377 293.131 92.2934 292.39C93.9541 291.654 95.7517 291.277 97.5681 291.285Z" fill="#FFC107"/>
<path d="M353.12 245.914C353.12 244.889 352.713 243.906 351.989 243.182C351.264 242.457 350.281 242.05 349.256 242.05H142.645C141.62 242.05 140.638 242.457 139.913 243.182C139.189 243.906 138.782 244.889 138.781 245.914V313.9C138.781 318.344 140.326 322.458 143.105 325.86C145.788 329.144 149.604 331.728 154.253 333.242L237.52 360.341C240.248 361.241 243.103 361.702 245.976 361.708C248.818 361.708 251.633 361.251 254.433 360.34L337.651 333.243C342.3 331.729 346.115 329.146 348.797 325.861C351.575 322.459 353.119 318.345 353.119 313.902L353.12 245.914Z" fill="#505257"/>
<path d="M353.12 245.914C353.12 244.889 352.713 243.906 351.989 243.182C351.264 242.457 350.281 242.05 349.256 242.05H142.645C141.62 242.05 140.638 242.457 139.913 243.182C139.189 243.906 138.782 244.889 138.781 245.914V254.941L242.913 285.283C244.822 285.839 246.754 285.949 248.681 285.388L254.29 283.754L254.286 283.74L353.12 254.941V245.914Z" fill="#4B4C51"/>
<path d="M249.806 242.051H242.109L242.126 361.426C244.678 361.801 247.271 361.802 249.824 361.428L249.806 242.051Z" fill="#484A4E"/>
<path d="M249.806 242.051H242.109L242.115 285.051L242.915 285.284C244.824 285.84 246.756 285.95 248.683 285.389L249.812 285.06L249.806 242.051Z" fill="#434549"/>
<path d="M247.342 176.236L412.054 224.231L412.064 224.22C412.894 224.462 413.62 224.975 414.124 225.678C414.628 226.38 414.882 227.232 414.845 228.096C414.807 228.96 414.481 229.787 413.918 230.444C413.356 231.101 412.589 231.55 411.741 231.719L247.03 279.713L247.034 279.726C246.222 279.964 245.354 279.927 244.565 279.622L79.8533 231.627L79.8442 231.638C79.0134 231.397 78.2877 230.884 77.7833 230.181C77.2789 229.478 77.0249 228.627 77.0622 227.762C77.0994 226.898 77.4257 226.071 77.9887 225.415C78.5517 224.758 79.3189 224.309 80.1673 224.14L244.877 176.147L244.873 176.133C245.685 175.895 246.553 175.931 247.342 176.236Z" fill="#626368"/>
</svg>
