<svg width="480" height="480" viewBox="0 0 480 480" fill="none" xmlns="http://www.w3.org/2000/svg">
<path d="M200 80H280V96H200V80ZM200 112H280V128H200V112Z" fill="url(#paint0_linear_620_16)"/>
<path d="M440 416V352C440 350.269 439.439 348.585 438.4 347.2C437.361 345.815 435.902 344.805 434.24 344.32L248 290V192H304C306.122 192 308.157 191.157 309.657 189.657C311.157 188.157 312 186.122 312 184V56C312.001 54.9493 311.795 53.9088 311.392 52.9381C310.99 51.9675 310.4 51.0859 309.656 50.344L261.656 2.34401C260.914 1.59967 260.033 1.00937 259.062 0.607083C258.091 0.204801 257.051 -0.00151559 256 8.38139e-06H176C173.878 8.38139e-06 171.843 0.842863 170.343 2.34315C168.843 3.84344 168 5.87828 168 8.00001V184C168 186.122 168.843 188.157 170.343 189.657C171.843 191.157 173.878 192 176 192H232V290L45.76 344.32C44.0983 344.805 42.6386 345.815 41.6 347.2C40.5614 348.585 40 350.269 40 352V416C40 417.731 40.5614 419.415 41.6 420.8C42.6386 422.185 44.0983 423.195 45.76 423.68L237.76 479.68C239.222 480.113 240.778 480.113 242.24 479.68L434.24 423.68C435.902 423.195 437.361 422.185 438.4 420.8C439.439 419.415 440 417.731 440 416ZM264 27.312L284.688 48H264V27.312ZM184 16H248V56C248 58.1217 248.843 60.1566 250.343 61.6569C251.843 63.1572 253.878 64 256 64H296V176H184V16ZM232 306.664V348.688L213.656 330.344L202.344 341.656L234.344 373.656C235.085 374.401 235.967 374.993 236.937 375.397C237.908 375.8 238.949 376.008 240 376.008C241.051 376.008 242.092 375.8 243.063 375.397C244.034 374.993 244.915 374.401 245.656 373.656L277.656 341.656L266.344 330.344L248 348.688V306.664L403.432 352L240 399.664L76.568 352L232 306.664ZM56 362.664L232 414V461.336L56 410V362.664ZM248 461.336V414L424 362.664V410L248 461.336Z" fill="url(#paint1_linear_620_16)"/>
<path d="M200 48H232V64H200V48ZM8 192H64C64 214.056 81.944 232 104 232H128C141.232 232 152 242.768 152 256V268.688L133.656 250.344L122.344 261.656L154.344 293.656C155.085 294.401 155.967 294.993 156.937 295.397C157.908 295.8 158.949 296.008 160 296.008C161.051 296.008 162.092 295.8 163.063 295.397C164.033 294.993 164.915 294.401 165.656 293.656L197.656 261.656L186.344 250.344L168 268.688V256C168 233.944 150.056 216 128 216H104C90.768 216 80 205.232 80 192H136C138.122 192 140.157 191.157 141.657 189.657C143.157 188.157 144 186.122 144 184V56C144.001 54.9493 143.795 53.9088 143.392 52.9381C142.99 51.9675 142.4 51.0859 141.656 50.344L93.656 2.34401C92.9144 1.59967 92.0328 1.00937 91.0621 0.607083C90.0914 0.204801 89.0508 -0.00151559 88 8.38139e-06H8C5.87827 8.38139e-06 3.84344 0.842863 2.34315 2.34315C0.842854 3.84344 0 5.87828 0 8.00001V184C0 186.122 0.842854 188.157 2.34315 189.657C3.84344 191.157 5.87827 192 8 192ZM96 27.312L116.688 48H96V27.312ZM16 16H80V56C80 58.1217 80.8429 60.1566 82.3431 61.6569C83.8434 63.1572 85.8783 64 88 64H128V176H16V16Z" fill="url(#paint2_linear_620_16)"/>
<path d="M32 80H112V96H32V80ZM32 112H112V128H32V112ZM32 144H112V160H32V144ZM32 48H64V64H32V48ZM480 184V56C480.001 54.9493 479.795 53.9088 479.392 52.9381C478.99 51.9675 478.4 51.0859 477.656 50.344L429.656 2.34401C428.914 1.59967 428.033 1.00937 427.062 0.607083C426.091 0.204801 425.051 -0.00151559 424 8.38139e-06H344C341.878 8.38139e-06 339.843 0.842863 338.343 2.34315C336.843 3.84344 336 5.87828 336 8.00001V184C336 186.122 336.843 188.157 338.343 189.657C339.843 191.157 341.878 192 344 192H400C400 205.232 389.232 216 376 216H352C329.944 216 312 233.944 312 256V268.688L293.656 250.344L282.344 261.656L314.344 293.656C315.085 294.401 315.966 294.993 316.937 295.397C317.908 295.8 318.949 296.008 320 296.008C321.051 296.008 322.092 295.8 323.063 295.397C324.034 294.993 324.915 294.401 325.656 293.656L357.656 261.656L346.344 250.344L328 268.688V256C328 242.768 338.768 232 352 232H376C398.056 232 416 214.056 416 192H472C474.122 192 476.157 191.157 477.657 189.657C479.157 188.157 480 186.122 480 184ZM432 27.312L452.688 48H432V27.312ZM352 176V16H416V56C416 58.1217 416.843 60.1566 418.343 61.6569C419.843 63.1572 421.878 64 424 64H464V176H352Z" fill="url(#paint3_linear_620_16)"/>
<path d="M368 80H448V96H368V80ZM368 112H448V128H368V112ZM368 144H448V160H368V144ZM368 48H400V64H368V48ZM200 144H216V160H200V144ZM232 144H248V160H232V144ZM264 144H280V160H264V144Z" fill="url(#paint4_linear_620_16)"/>
<defs>
<linearGradient id="paint0_linear_620_16" x1="199.833" y1="80.55" x2="239.344" y2="144.312" gradientUnits="userSpaceOnUse">
<stop stop-color="#8705FF"/>
<stop offset="1" stop-color="#CC00FF"/>
</linearGradient>
<linearGradient id="paint1_linear_620_16" x1="39.1667" y1="5.49999" x2="470.429" y2="353.476" gradientUnits="userSpaceOnUse">
<stop stop-color="#8705FF"/>
<stop offset="1" stop-color="#CC00FF"/>
</linearGradient>
<linearGradient id="paint2_linear_620_16" x1="-0.483328" y1="3.39173" x2="261.576" y2="202.265" gradientUnits="userSpaceOnUse">
<stop stop-color="#8705FF"/>
<stop offset="1" stop-color="#CC00FF"/>
</linearGradient>
<linearGradient id="paint3_linear_620_16" x1="31.0667" y1="3.39173" x2="284.436" y2="374.688" gradientUnits="userSpaceOnUse">
<stop stop-color="#8705FF"/>
<stop offset="1" stop-color="#CC00FF"/>
</linearGradient>
<linearGradient id="paint4_linear_620_16" x1="199.483" y1="49.2833" x2="278.361" y2="218.399" gradientUnits="userSpaceOnUse">
<stop stop-color="#8705FF"/>
<stop offset="1" stop-color="#CC00FF"/>
</linearGradient>
</defs>
</svg>
