<svg width="513" height="513" viewBox="0 0 513 513" fill="none" xmlns="http://www.w3.org/2000/svg">
<path d="M507.678 372.642L455.198 346.402L421.798 259.522C421.405 258.495 420.804 257.56 420.034 256.775C419.263 255.991 418.338 255.373 417.318 254.962L210.078 172.122C208.629 171.545 207.043 171.404 205.515 171.717C203.987 172.03 202.584 172.782 201.478 173.882L173.838 201.522C172.753 202.629 172.013 204.027 171.708 205.547C171.402 207.066 171.545 208.642 172.118 210.082L254.958 417.322C255.37 418.342 255.987 419.266 256.771 420.037C257.556 420.808 258.491 421.409 259.518 421.802L346.398 455.202L372.638 507.682C373.191 508.839 374.013 509.847 375.037 510.619C376.06 511.392 377.254 511.907 378.518 512.122C378.944 512.162 379.373 512.162 379.798 512.122C381.917 512.113 383.945 511.264 385.438 509.762L509.758 385.442C510.673 384.559 511.365 383.471 511.775 382.267C512.185 381.064 512.303 379.78 512.118 378.522C511.904 377.258 511.388 376.064 510.616 375.04C509.843 374.017 508.835 373.195 507.678 372.642ZM188.878 209.042L193.318 204.642L296.478 307.802C289.68 317.436 286.743 329.27 288.25 340.964C289.757 352.658 295.597 363.362 304.615 370.957C313.634 378.553 325.174 382.488 336.954 381.985C348.735 381.482 359.897 376.576 368.235 368.239C376.572 359.901 381.478 348.738 381.981 336.958C382.485 325.178 378.549 313.638 370.954 304.619C363.358 295.601 352.655 289.761 340.96 288.254C329.266 286.747 317.432 289.683 307.798 296.482L204.638 193.322L209.038 188.882L408.118 268.522L439.518 350.202L350.198 439.522L268.518 408.122L188.878 209.042ZM334.918 303.842C342.108 303.853 349.072 306.356 354.623 310.925C360.175 315.494 363.97 321.847 365.363 328.901C366.756 335.954 365.66 343.273 362.263 349.609C358.865 355.946 353.376 360.908 346.729 363.651C340.083 366.394 332.692 366.748 325.814 364.653C318.936 362.557 312.998 358.142 309.01 352.159C305.022 346.176 303.232 338.996 303.945 331.841C304.658 324.687 307.829 318.001 312.918 312.922C318.759 307.1 326.672 303.834 334.918 303.842ZM381.998 490.602L361.998 450.602L450.518 362.082L490.518 382.082L381.998 490.602Z" fill="url(#paint0_linear_1495_103)"/>
<path d="M153.118 428.124C151.589 426.678 149.563 425.873 147.458 425.873C145.353 425.873 143.328 426.678 141.798 428.124L131.638 438.284C104.526 401.486 89.5683 357.146 88.8513 311.444C88.1343 265.742 101.693 220.955 127.638 183.324C135.412 187.601 144.362 189.244 153.147 188.007C161.933 186.77 170.081 182.718 176.37 176.461C182.659 170.203 186.751 162.075 188.033 153.296C189.314 144.517 187.716 135.559 183.478 127.764C221.109 101.819 265.896 88.2601 311.598 88.9771C357.3 89.6941 401.64 104.651 438.438 131.764L428.118 141.804C426.631 143.304 425.797 145.332 425.798 147.444C425.792 148.497 425.994 149.541 426.392 150.515C426.79 151.49 427.377 152.377 428.118 153.124L463.398 188.124C464.897 189.614 466.925 190.45 469.038 190.45C471.152 190.45 473.179 189.614 474.678 188.124L509.758 153.044C510.502 152.301 511.092 151.419 511.495 150.448C511.897 149.476 512.105 148.435 512.105 147.384C512.105 146.333 511.897 145.292 511.495 144.321C511.092 143.349 510.502 142.467 509.758 141.724L474.678 106.644C473.179 105.154 471.152 104.318 469.038 104.318C466.925 104.318 464.897 105.154 463.398 106.644L449.838 120.124C416.419 94.976 376.908 79.176 335.362 74.3466C293.817 69.5173 251.736 75.8326 213.438 92.6441L259.558 46.6441C264.788 49.1428 270.733 49.7084 276.34 48.2406C281.947 46.7728 286.852 43.3664 290.186 38.6257C293.52 33.8851 295.067 28.1167 294.553 22.3439C294.039 16.5711 291.496 11.1671 287.376 7.0906C283.257 3.01411 277.826 0.528665 272.048 0.0752019C266.27 -0.378262 260.519 1.22957 255.813 4.61346C251.108 7.99736 247.754 12.9385 246.345 18.5604C244.936 24.1823 245.565 30.1214 248.118 35.3241L170.278 113.284C162.375 107.983 152.876 105.59 143.404 106.514C133.932 107.438 125.075 111.622 118.346 118.352C111.616 125.081 107.432 133.938 106.508 143.41C105.584 152.882 107.977 162.381 113.278 170.284L35.3184 248.124C30.0953 245.579 24.139 244.968 18.508 246.4C12.877 247.832 7.93588 251.213 4.56275 255.944C1.18962 260.675 -0.397087 266.448 0.0845736 272.238C0.566234 278.029 3.08507 283.461 7.19349 287.569C11.3019 291.677 16.7338 294.196 22.524 294.678C28.3142 295.16 34.0877 293.573 38.8184 290.2C43.5492 286.827 46.9309 281.886 48.3627 276.255C49.7944 270.623 49.1835 264.667 46.6384 259.444L92.7584 213.444C75.9301 251.731 69.5948 293.807 74.403 335.352C79.2112 376.897 94.9897 416.413 120.118 449.844L106.598 463.404C105.108 464.903 104.272 466.931 104.272 469.044C104.272 471.158 105.108 473.185 106.598 474.684L141.678 509.764C143.172 511.267 145.2 512.115 147.318 512.124C148.374 512.125 149.419 511.917 150.394 511.512C151.369 511.107 152.254 510.513 152.998 509.764L188.118 474.684C189.608 473.185 190.445 471.158 190.445 469.044C190.445 466.931 189.608 464.903 188.118 463.404L153.118 428.124ZM469.118 123.524L492.878 147.284L469.118 171.044L445.358 147.284L469.118 123.524ZM264.118 18.6441C265.307 17.4457 266.825 16.6273 268.48 16.293C270.134 15.9586 271.851 16.1233 273.412 16.7661C274.973 17.4089 276.307 18.5009 277.247 19.9035C278.186 21.3061 278.687 22.9561 278.687 24.6441C278.687 26.3322 278.186 27.9822 277.247 29.3848C276.307 30.7874 274.973 31.8794 273.412 32.5222C271.851 33.165 270.134 33.3297 268.48 32.9953C266.825 32.6609 265.307 31.8426 264.118 30.6441C263.33 29.8566 262.704 28.9213 262.277 27.8917C261.851 26.8622 261.631 25.7586 261.631 24.6441C261.631 23.5296 261.851 22.4261 262.277 21.3965C262.704 20.367 263.33 19.4317 264.118 18.6441ZM129.718 129.724C132.041 127.39 134.803 125.538 137.844 124.274C140.885 123.01 144.145 122.359 147.438 122.359C150.732 122.359 153.992 123.01 157.033 124.274C160.074 125.538 162.835 127.39 165.158 129.724C168.67 133.23 171.063 137.699 172.034 142.565C173.004 147.431 172.51 152.476 170.613 157.061C168.716 161.646 165.502 165.565 161.376 168.323C157.251 171.081 152.4 172.553 147.438 172.553C142.476 172.553 137.626 171.081 133.5 168.323C129.375 165.565 126.161 161.646 124.264 157.061C122.367 152.476 121.872 147.431 122.843 142.565C123.814 137.699 126.207 133.23 129.718 129.724ZM30.6784 276.124C29.0451 277.486 26.9616 278.188 24.8371 278.092C22.7126 277.996 20.7009 277.109 19.1971 275.605C17.6934 274.102 16.8064 272.09 16.7104 269.965C16.6144 267.841 17.3163 265.757 18.6784 264.124C20.2792 262.551 22.4339 261.669 24.6784 261.669C26.9228 261.669 29.0775 262.551 30.6784 264.124C31.4669 264.912 32.0925 265.847 32.5193 266.877C32.9461 267.906 33.1658 269.01 33.1658 270.124C33.1658 271.239 32.9461 272.342 32.5193 273.372C32.0925 274.401 31.4669 275.337 30.6784 276.124ZM147.438 492.644L123.678 468.884L147.438 445.124L171.198 468.884L147.438 492.644Z" fill="url(#paint1_linear_1495_103)"/>
<defs>
<linearGradient id="paint0_linear_1495_103" x1="170.841" y1="175.457" x2="483.763" y2="478.498" gradientUnits="userSpaceOnUse">
<stop stop-color="#8705FF"/>
<stop offset="1" stop-color="#CC00FF"/>
</linearGradient>
<linearGradient id="paint1_linear_1495_103" x1="-1.06687" y1="5.86803" x2="469.442" y2="461.427" gradientUnits="userSpaceOnUse">
<stop stop-color="#8705FF"/>
<stop offset="1" stop-color="#CC00FF"/>
</linearGradient>
</defs>
</svg>
