<svg width="496" height="496" viewBox="0 0 496 496" fill="none" xmlns="http://www.w3.org/2000/svg">
<path d="M376 416C398.056 416 416 398.056 416 376C416 353.944 398.056 336 376 336C353.944 336 336 353.944 336 376C336 398.056 353.944 416 376 416ZM376 352C389.232 352 400 362.768 400 376C400 389.232 389.232 400 376 400C362.768 400 352 389.232 352 376C352 362.768 362.768 352 376 352Z" fill="url(#paint0_linear_1495_107)"/>
<path d="M496 406.216V345.776L473.584 340.072C472.618 337.482 471.55 334.93 470.384 332.424L482.224 312.512L448 278.296V144H384V256H345.784L340.08 278.416C337.528 279.368 334.968 280.44 332.432 281.616L328 278.984V232H264V304C252.746 304.026 241.653 306.681 231.607 311.753C221.561 316.826 212.839 324.175 206.136 333.216C204.36 335.616 202.24 337.512 200 339.144V168H136V344H88V280H24V345.136C10.24 348.712 0 361.128 0 376C0 393.648 14.352 408 32 408H186.128C193.768 408 201.064 411.928 206.128 418.784C212.833 427.824 221.557 435.173 231.604 440.245C241.652 445.317 252.745 447.973 264 448C268.408 448 272.728 447.464 276.984 446.696L312.512 482.224L332.424 470.392C334.96 471.568 337.52 472.64 340.072 473.592L345.784 496H406.224L411.928 473.584C414.48 472.632 417.04 471.56 419.576 470.384L439.488 482.216L482.224 439.48L470.384 419.568C471.56 417.032 472.632 414.464 473.584 411.92L496 406.216ZM400 160H432V274.232L419.568 281.616C417.061 280.452 414.509 279.384 411.92 278.416L406.216 256H400V160ZM312 248V270.296L280 302.296V248H312ZM152 184H184V344H152V184ZM72 296V344H40V296H72ZM218.992 409.264C210.872 398.288 198.896 392 186.128 392H32C23.176 392 16 384.824 16 376C16 367.176 23.176 360 32 360H186.128C198.896 360 210.872 353.712 218.992 342.736C224.164 335.66 230.94 329.91 238.763 325.958C246.587 322.006 255.235 319.964 264 320C282.648 320 300.056 329.088 310.512 344H280.776C274.207 344.011 267.91 346.625 263.266 351.271C258.621 355.917 256.008 362.215 256 368.784V383.224C256.011 389.793 258.625 396.09 263.271 400.734C267.917 405.379 274.215 407.992 280.784 408H310.52C300.064 422.912 282.648 432 264.008 432C255.242 432.036 246.592 429.995 238.767 426.043C230.943 422.091 224.166 416.341 218.992 409.264ZM305.856 392H280.776C278.448 391.998 276.216 391.071 274.57 389.424C272.924 387.777 272 385.544 272 383.216V368.776C272 363.936 275.936 360 280.784 360H305.864C304.672 365.224 304 370.56 304 376C304 381.44 304.672 386.776 305.856 392ZM322.496 392.504C319.171 381.752 319.171 370.248 322.496 359.496C324.087 358.988 325.477 357.989 326.466 356.642C327.454 355.295 327.991 353.671 328 352V347.32C332.959 339.007 339.987 332.121 348.399 327.333C356.811 322.545 366.321 320.019 376 320C406.88 320 432 345.128 432 376C432 406.872 406.88 432 376 432C366.321 431.981 356.811 429.455 348.399 424.667C339.987 419.879 332.959 412.993 328 404.68V400C327.991 398.329 327.454 396.705 326.466 395.358C325.477 394.011 324.087 393.012 322.496 392.504ZM462.112 436.968L436.968 462.112L420.2 452.144L416.256 454.192C411.792 456.496 407.264 458.392 402.792 459.824L398.568 461.168L393.784 480H358.224L353.432 461.168L349.208 459.824C344.572 458.323 340.068 456.439 335.744 454.192L331.8 452.144L315.032 462.112L294.248 441.328C304.34 436.765 313.25 429.944 320.288 421.392C327.019 429.683 335.51 436.372 345.146 440.974C354.782 445.576 365.321 447.976 376 448C415.696 448 448 415.704 448 376C448 336.296 415.696 304 376 304C365.321 304.024 354.782 306.424 345.146 311.026C335.51 315.628 327.019 322.317 320.288 330.608C313.248 322.058 304.339 315.237 294.248 310.672L315.032 289.888L331.8 299.856L335.744 297.808C340.068 295.561 344.572 293.677 349.208 292.176L353.432 290.832L358.216 272H393.776L398.568 290.832L402.792 292.176C407.264 293.608 411.792 295.504 416.256 297.808L420.2 299.856L436.968 289.888L462.112 315.032L452.144 331.792L454.176 335.728C456.488 340.208 458.376 344.736 459.808 349.216L461.16 353.44L480 358.216V393.776L461.168 398.56L459.816 402.784C458.384 407.264 456.496 411.792 454.184 416.272L452.152 420.208L462.112 436.968ZM416 96C433.648 96 448 81.648 448 64C448 46.352 433.648 32 416 32C398.352 32 384 46.352 384 64C384 81.648 398.352 96 416 96ZM416 48C424.824 48 432 55.176 432 64C432 72.824 424.824 80 416 80C407.176 80 400 72.824 400 64C400 55.176 407.176 48 416 48ZM168 120C185.648 120 200 105.648 200 88C200 70.352 185.648 56 168 56C150.352 56 136 70.352 136 88C136 105.648 150.352 120 168 120ZM168 72C176.824 72 184 79.176 184 88C184 96.824 176.824 104 168 104C159.176 104 152 96.824 152 88C152 79.176 159.176 72 168 72Z" fill="url(#paint1_linear_1495_107)"/>
<path d="M296 184C309.232 184 320 173.232 320 160C320 146.768 309.232 136 296 136C282.768 136 272 146.768 272 160C272 173.232 282.768 184 296 184ZM296 152C297.585 151.998 299.134 152.467 300.452 153.346C301.77 154.226 302.798 155.476 303.405 156.94C304.012 158.403 304.171 160.014 303.863 161.568C303.554 163.122 302.791 164.55 301.671 165.671C300.55 166.791 299.122 167.554 297.568 167.863C296.014 168.171 294.403 168.012 292.94 167.405C291.476 166.798 290.226 165.77 289.346 164.452C288.467 163.134 287.998 161.585 288 160C288 155.584 291.592 152 296 152ZM56 232C69.232 232 80 221.232 80 208C80 194.768 69.232 184 56 184C42.768 184 32 194.768 32 208C32 221.232 42.768 232 56 232ZM56 200C57.5845 199.998 59.1339 200.467 60.452 201.346C61.7701 202.226 62.7978 203.476 63.4049 204.94C64.012 206.403 64.1712 208.014 63.8625 209.568C63.5538 211.122 62.7909 212.55 61.6705 213.671C60.5501 214.791 59.1225 215.554 57.5683 215.863C56.0142 216.171 54.4034 216.012 52.9398 215.405C51.4762 214.798 50.2256 213.77 49.3463 212.452C48.4669 211.134 47.9984 209.585 48 208C48 203.584 51.592 200 56 200Z" fill="url(#paint2_linear_1495_107)"/>
<path d="M56 264C86.88 264 112 238.872 112 208C112.003 195.255 107.638 182.893 99.632 172.976L130.592 139.808C141.455 147.732 154.554 152.001 168 152C189.032 152 207.664 141.76 219.336 126.048L243.816 139.824C241.303 146.254 240.009 153.096 240 160C240 190.872 265.12 216 296 216C326.88 216 352 190.872 352 160C351.994 150.031 349.308 140.247 344.224 131.672L371.472 109.872C383.378 121.497 399.36 128.003 416 128C451.288 128 480 99.288 480 64C480 28.712 451.288 0 416 0C380.712 0 352 28.712 352 64C352.007 75.7848 355.292 87.3355 361.488 97.36L334.216 119.176C323.875 109.435 310.207 104.007 296 104C287.428 104.006 278.972 105.984 271.287 109.781C263.602 113.577 256.893 119.091 251.68 125.896L227.232 112.144C230.288 104.688 232 96.544 232 88C232 52.712 203.288 24 168 24C132.712 24 104 52.712 104 88C103.989 102.964 109.249 117.455 118.856 128.928L87.936 162.056C78.5742 155.507 67.4248 151.997 56 152C25.12 152 0 177.128 0 208C0 238.872 25.12 264 56 264ZM416 16C442.472 16 464 37.528 464 64C464 90.472 442.472 112 416 112C389.528 112 368 90.472 368 64C368 37.528 389.528 16 416 16ZM296 120C318.056 120 336 137.944 336 160C336 182.056 318.056 200 296 200C273.944 200 256 182.056 256 160C256 137.944 273.944 120 296 120ZM168 40C194.472 40 216 61.528 216 88C216 114.472 194.472 136 168 136C141.528 136 120 114.472 120 88C120 61.528 141.528 40 168 40ZM56 168C78.056 168 96 185.944 96 208C96 230.056 78.056 248 56 248C33.944 248 16 230.056 16 208C16 185.944 33.944 168 56 168Z" fill="url(#paint3_linear_1495_107)"/>
<defs>
<linearGradient id="paint0_linear_1495_107" x1="335.833" y1="336.917" x2="409.333" y2="408.083" gradientUnits="userSpaceOnUse">
<stop stop-color="#8705FF"/>
<stop offset="1" stop-color="#CC00FF"/>
</linearGradient>
<linearGradient id="paint1_linear_1495_107" x1="-1.03332" y1="37.3166" x2="425.232" y2="478.518" gradientUnits="userSpaceOnUse">
<stop stop-color="#8705FF"/>
<stop offset="1" stop-color="#CC00FF"/>
</linearGradient>
<linearGradient id="paint2_linear_1495_107" x1="31.4" y1="137.1" x2="85.7206" y2="294.89" gradientUnits="userSpaceOnUse">
<stop stop-color="#8705FF"/>
<stop offset="1" stop-color="#CC00FF"/>
</linearGradient>
<linearGradient id="paint3_linear_1495_107" x1="-0.99999" y1="3.02497" x2="207.438" y2="369.975" gradientUnits="userSpaceOnUse">
<stop stop-color="#8705FF"/>
<stop offset="1" stop-color="#CC00FF"/>
</linearGradient>
</defs>
</svg>
