<svg width="444" height="410" viewBox="0 0 444 410" fill="none" xmlns="http://www.w3.org/2000/svg">
<path d="M317.721 290.389C306.696 287.727 302.686 304.23 313.591 306.961C351.138 316.314 375.39 331.093 375.39 344.61C375.39 367.24 309.7 392.533 221.79 392.533C133.879 392.533 68.1897 367.24 68.1897 344.61C68.1897 331.093 92.4415 316.296 129.988 306.944C140.911 304.213 136.866 287.71 125.858 290.372C77.6617 302.404 51.123 321.672 51.123 344.61C51.123 386.833 139.051 409.6 221.79 409.6C304.529 409.6 392.456 386.833 392.456 344.61C392.456 321.672 365.918 302.404 317.721 290.389ZM221.79 170.667C250.018 170.667 272.99 147.695 272.99 119.467C272.99 91.2383 250.018 68.2666 221.79 68.2666C193.561 68.2666 170.59 91.2383 170.59 119.467C170.59 147.695 193.561 170.667 221.79 170.667ZM221.79 85.3333C240.614 85.3333 255.923 100.642 255.923 119.467C255.923 138.291 240.614 153.6 221.79 153.6C202.965 153.6 187.656 138.291 187.656 119.467C187.656 100.642 202.965 85.3333 221.79 85.3333ZM376.584 158.106C386.739 147.812 392.432 133.934 392.432 119.475C392.432 105.016 386.739 91.1381 376.584 80.8447C368.648 72.8234 356.514 84.8383 364.467 92.8597C371.466 99.9503 375.39 109.512 375.39 119.475C375.39 129.438 371.466 139 364.467 146.091C356.412 154.214 368.751 166.007 376.584 158.106ZM79.1124 146.091C72.1249 138.991 68.2087 129.428 68.2087 119.467C68.2087 109.505 72.1249 99.9426 79.1124 92.8426C87.0484 84.8213 74.9652 72.8234 66.995 80.8277C56.8404 91.121 51.147 104.999 51.147 119.458C51.147 133.917 56.8404 147.795 66.995 158.088C74.931 166.11 87.0654 154.112 79.1124 146.091Z" fill="url(#paint0_linear_621_56)"/>
<path d="M411.708 41.6768C403.755 33.6555 391.654 45.6875 399.59 53.6917C435.516 89.9584 435.516 148.975 399.59 185.242C391.535 193.365 403.874 205.158 411.708 197.257C454.221 154.368 454.221 84.5653 411.708 41.6768ZM31.872 41.6768C-10.624 84.5653 -10.624 154.368 31.872 197.257C39.7056 205.158 52.0448 193.365 43.9893 185.242C8.064 148.975 8.064 89.9584 43.9893 53.6917C51.9253 45.6704 39.808 33.6725 31.872 41.6768ZM214.315 353.98C215.051 355.318 216.134 356.433 217.448 357.21C218.763 357.987 220.263 358.397 221.79 358.397C223.317 358.397 224.816 357.987 226.131 357.21C227.446 356.433 228.528 355.318 229.265 353.98C316.066 187.785 341.257 170.871 341.257 119.467C341.257 53.5893 287.667 0 221.79 0C155.913 0 102.323 53.5893 102.323 119.467C102.323 170.906 126.302 185.446 214.315 353.98ZM221.79 17.0667C278.263 17.0667 324.19 62.9931 324.19 119.467C324.19 163.959 303.846 175.343 221.79 332.151C139.819 175.531 119.39 163.977 119.39 119.467C119.39 62.9931 165.316 17.0667 221.79 17.0667Z" fill="url(#paint1_linear_621_56)"/>
<defs>
<linearGradient id="paint0_linear_621_56" x1="84.5952" y1="97.8499" x2="406.189" y2="355.359" gradientUnits="userSpaceOnUse">
<stop stop-color="#8705FF"/>
<stop offset="1" stop-color="#CC00FF"/>
</linearGradient>
<linearGradient id="paint1_linear_621_56" x1="43.5" y1="31.0623" x2="389.531" y2="374.002" gradientUnits="userSpaceOnUse">
<stop stop-color="#8705FF"/>
<stop offset="1" stop-color="#CC00FF"/>
</linearGradient>
</defs>
</svg>
