<svg width="512" height="513" viewBox="0 0 512 513" fill="none" xmlns="http://www.w3.org/2000/svg">
<path d="M162.133 426.798H349.867C364.004 426.798 375.465 415.337 375.465 401.196V247.595C375.465 233.458 364.004 221.997 349.867 221.997V177.86C349.867 126.02 307.84 83.9966 256 83.9966C204.16 83.9966 162.133 126.021 162.133 177.86V221.997C147.996 221.997 136.535 233.458 136.535 247.595V401.196C136.535 415.337 147.996 426.798 162.133 426.798ZM179.199 177.86C179.199 135.446 213.586 101.064 256 101.064C298.414 101.064 332.8 135.446 332.8 177.86V221.997H315.734V177.86C315.734 144.872 288.988 118.13 256 118.13C223.012 118.13 196.266 144.872 196.266 177.86V221.997H179.199V177.86ZM298.668 221.997H213.332V177.86C213.332 154.298 232.437 135.196 256 135.196C279.563 135.196 298.668 154.298 298.668 177.86V221.997ZM162.133 239.064H349.867C354.578 239.064 358.398 242.884 358.398 247.594V273.196H324.266C323.145 273.196 322.036 273.417 321 273.846C319.965 274.275 319.024 274.904 318.232 275.696C317.44 276.489 316.811 277.43 316.383 278.465C315.954 279.501 315.734 280.611 315.734 281.732C315.734 286.442 319.554 290.262 324.266 290.262H358.398V315.864H324.266C322.003 315.864 319.833 316.762 318.233 318.363C316.633 319.963 315.734 322.133 315.734 324.396C315.734 325.516 315.954 326.626 316.383 327.661C316.812 328.697 317.44 329.638 318.232 330.43C319.025 331.223 319.965 331.852 321.001 332.281C322.036 332.71 323.145 332.93 324.266 332.931H358.398V367.064H324.266C322.004 367.064 319.834 367.962 318.234 369.562C316.634 371.161 315.735 373.331 315.734 375.594C315.734 376.714 315.954 377.824 316.383 378.86C316.811 379.895 317.44 380.836 318.232 381.629C319.024 382.422 319.965 383.05 321 383.479C322.036 383.909 323.145 384.129 324.266 384.13H358.398V401.196C358.399 402.316 358.178 403.426 357.75 404.461C357.321 405.497 356.693 406.438 355.901 407.23C355.109 408.023 354.168 408.652 353.133 409.081C352.098 409.51 350.989 409.731 349.868 409.732H162.132C161.012 409.731 159.902 409.51 158.867 409.081C157.831 408.652 156.891 408.023 156.099 407.231C155.306 406.438 154.678 405.497 154.25 404.461C153.821 403.426 153.601 402.316 153.601 401.196V384.13H187.733C192.444 384.13 196.265 380.31 196.265 375.595C196.265 370.884 192.445 367.064 187.733 367.064H153.601V332.93H187.733C192.444 332.93 196.265 329.11 196.265 324.395C196.265 319.684 192.445 315.863 187.733 315.863H153.601V290.262H187.733C192.444 290.262 196.265 286.442 196.265 281.731C196.266 280.61 196.045 279.5 195.617 278.464C195.188 277.429 194.56 276.488 193.767 275.695C192.975 274.903 192.034 274.274 190.999 273.845C189.964 273.416 188.854 273.195 187.733 273.195H153.601V247.594C153.601 242.883 157.421 239.063 162.131 239.063L162.133 239.064Z" fill="url(#paint0_linear_749_58)"/>
<path d="M230.398 340.74V367.13C230.438 376.505 238.028 384.09 247.398 384.13H264.602C273.972 384.09 281.562 376.505 281.602 367.13V340.61C281.72 338.34 282.652 336.189 284.227 334.552C290.234 327.944 293.614 319.364 293.727 310.435C293.721 304.931 292.487 299.499 290.114 294.533C287.741 289.567 284.29 285.194 280.012 281.732C275.591 278.15 270.428 275.598 264.897 274.262C259.366 272.926 253.607 272.84 248.039 274.009C240.816 275.512 234.199 279.117 229.019 284.37C223.838 289.622 220.326 296.289 218.922 303.532C217.933 309.041 218.217 314.703 219.753 320.086C221.288 325.469 224.035 330.429 227.782 334.587C229.365 336.257 230.293 338.441 230.398 340.74ZM235.699 306.657C236.495 302.759 238.409 299.178 241.206 296.35C244.004 293.522 247.564 291.57 251.453 290.732C252.966 290.423 254.507 290.266 256.051 290.262C260.854 290.242 265.514 291.899 269.227 294.946C271.545 296.816 273.415 299.18 274.701 301.866C275.987 304.552 276.656 307.492 276.66 310.47C276.538 315.227 274.687 319.778 271.453 323.27C267.109 328.012 264.649 334.179 264.535 340.61L264.602 367.064L247.465 367.13V340.74C247.37 334.286 244.925 328.088 240.59 323.306C238.553 321.091 237.052 318.438 236.204 315.551C235.356 312.664 235.183 309.621 235.699 306.657ZM409.602 145.196V93.9966C409.614 92.8682 409.403 91.7486 408.979 90.7026C408.556 89.6565 407.929 88.7048 407.136 87.9026C406.342 87.1003 405.397 86.4634 404.356 86.0287C403.314 85.5941 402.197 85.3703 401.069 85.3703C399.94 85.3703 398.823 85.5941 397.781 86.0287C396.74 86.4634 395.795 87.1003 395.001 87.9026C394.208 88.7048 393.581 89.6565 393.158 90.7026C392.734 91.7486 392.523 92.8682 392.535 93.9966V145.197C392.535 147.46 393.434 149.63 395.034 151.231C396.635 152.831 398.805 153.73 401.069 153.73C403.332 153.73 405.502 152.831 407.103 151.231C408.703 149.63 409.602 147.46 409.602 145.197V145.196ZM358.398 93.9966V145.197C358.386 146.325 358.597 147.445 359.021 148.491C359.444 149.537 360.071 150.488 360.864 151.291C361.658 152.093 362.603 152.73 363.644 153.165C364.686 153.599 365.803 153.823 366.931 153.823C368.06 153.823 369.177 153.599 370.219 153.165C371.26 152.73 372.205 152.093 372.999 151.291C373.792 150.488 374.419 149.537 374.842 148.491C375.266 147.445 375.477 146.325 375.465 145.197V93.9966C375.465 91.7334 374.566 89.5629 372.966 87.9625C371.365 86.3622 369.195 85.4631 366.931 85.4631C364.668 85.4631 362.498 86.3622 360.897 87.9625C359.297 89.5629 358.398 91.7334 358.398 93.9966ZM426.668 93.9966V145.197C426.668 147.46 427.567 149.63 429.167 151.23C430.768 152.831 432.938 153.73 435.201 153.73C437.464 153.73 439.634 152.831 441.235 151.23C442.835 149.63 443.734 147.46 443.734 145.197V93.9966C443.751 92.8651 443.543 91.7414 443.122 90.6909C442.701 89.6405 442.076 88.6842 441.281 87.8779C440.487 87.0716 439.541 86.4312 438.497 85.9942C437.453 85.5571 436.333 85.332 435.201 85.332C434.069 85.332 432.949 85.5571 431.905 85.9942C430.861 86.4312 429.915 87.0716 429.121 87.8779C428.326 88.6842 427.701 89.6405 427.28 90.6909C426.859 91.7414 426.651 92.8651 426.668 93.9966ZM409.602 273.196C409.602 268.486 405.782 264.666 401.066 264.666C398.804 264.666 396.635 265.565 395.035 267.165C393.435 268.764 392.537 270.934 392.536 273.196V324.396C392.536 326.659 393.435 328.829 395.035 330.429C396.635 332.03 398.806 332.929 401.069 332.929C403.332 332.929 405.503 332.03 407.103 330.429C408.703 328.829 409.602 326.659 409.602 324.396V273.196ZM443.734 324.396C443.734 326.659 444.633 328.829 446.233 330.43C447.834 332.03 450.004 332.929 452.267 332.929C454.531 332.929 456.701 332.03 458.302 330.43C459.902 328.829 460.801 326.659 460.801 324.396V273.196C460.801 268.486 456.981 264.666 452.266 264.666C450.004 264.666 447.834 265.564 446.234 267.164C444.634 268.764 443.735 270.933 443.734 273.196V324.396ZM503.465 264.665C501.203 264.665 499.033 265.564 497.433 267.164C495.833 268.763 494.934 270.933 494.934 273.196V324.396C494.934 326.659 495.833 328.829 497.433 330.429C499.034 332.03 501.204 332.929 503.467 332.929C505.73 332.929 507.9 332.03 509.501 330.429C511.101 328.829 512 326.659 512 324.396V273.196C512 268.486 508.18 264.666 503.465 264.666V264.665ZM494.934 85.4616H477.867C468.441 85.4616 460.801 93.1016 460.801 102.528V136.665C460.801 146.091 468.441 153.732 477.867 153.732H494.934C504.359 153.732 512 146.091 512 136.665V102.528C512 93.1026 504.36 85.4616 494.934 85.4616ZM477.867 136.665V102.528H494.934V136.665H477.867ZM503.465 179.33C501.202 179.33 499.032 180.23 497.432 181.83C495.832 183.43 494.934 185.601 494.934 187.864V239.064C494.934 243.774 498.754 247.594 503.464 247.594C504.585 247.594 505.694 247.374 506.73 246.945C507.765 246.517 508.706 245.889 509.499 245.096C510.291 244.304 510.92 243.364 511.349 242.329C511.778 241.294 512 240.184 512 239.064V187.864C512 186.743 511.779 185.633 511.351 184.597C510.922 183.562 510.293 182.621 509.5 181.828C508.708 181.036 507.767 180.407 506.731 179.978C505.696 179.549 504.586 179.33 503.465 179.33ZM469.332 247.595C470.453 247.595 471.562 247.374 472.598 246.946C473.633 246.517 474.574 245.889 475.366 245.097C476.159 244.305 476.788 243.364 477.217 242.329C477.646 241.294 477.867 240.184 477.867 239.064V187.864C477.884 186.732 477.676 185.608 477.255 184.558C476.834 183.507 476.209 182.551 475.414 181.745C474.62 180.939 473.674 180.298 472.63 179.861C471.586 179.424 470.466 179.199 469.334 179.199C468.202 179.199 467.082 179.424 466.038 179.861C464.994 180.298 464.048 180.939 463.254 181.745C462.459 182.551 461.834 183.507 461.413 184.558C460.992 185.608 460.784 186.732 460.801 187.864V239.064C460.801 243.774 464.621 247.595 469.332 247.595ZM426.668 247.595C436.094 247.595 443.734 239.955 443.734 230.528V196.396C443.734 186.97 436.094 179.329 426.668 179.329H409.602C400.176 179.329 392.535 186.969 392.535 196.396V230.528C392.535 239.954 400.175 247.595 409.602 247.595H426.668ZM409.602 196.395H426.668V230.528H409.602V196.395ZM401.066 358.528C399.945 358.528 398.836 358.749 397.801 359.178C396.766 359.608 395.825 360.236 395.033 361.029C394.241 361.822 393.613 362.763 393.184 363.798C392.756 364.833 392.536 365.943 392.536 367.064V418.263C392.536 420.526 393.435 422.696 395.035 424.296C396.635 425.897 398.806 426.796 401.069 426.796C403.332 426.796 405.503 425.897 407.103 424.296C408.703 422.696 409.602 420.526 409.602 418.263V367.063C409.602 365.942 409.381 364.832 408.952 363.796C408.524 362.76 407.895 361.819 407.102 361.027C406.309 360.234 405.368 359.606 404.333 359.177C403.297 358.748 402.187 358.527 401.066 358.528ZM426.668 367.064V418.263C426.668 420.526 427.567 422.696 429.167 424.296C430.768 425.897 432.938 426.796 435.201 426.796C437.464 426.796 439.634 425.897 441.235 424.296C442.835 422.696 443.734 420.526 443.734 418.263V367.063C443.751 365.931 443.543 364.807 443.122 363.757C442.701 362.706 442.076 361.75 441.281 360.944C440.487 360.138 439.541 359.497 438.497 359.06C437.453 358.623 436.333 358.398 435.201 358.398C434.069 358.398 432.949 358.623 431.905 359.06C430.861 359.497 429.915 360.138 429.121 360.944C428.326 361.75 427.701 362.706 427.28 363.757C426.859 364.807 426.651 365.932 426.668 367.064ZM494.934 358.528H477.867C468.441 358.528 460.801 366.169 460.801 375.595V409.732C460.801 419.157 468.441 426.798 477.867 426.798H494.934C504.359 426.798 512 419.158 512 409.732V375.595C512 366.169 504.36 358.528 494.934 358.528ZM477.867 409.732V375.595H494.934V409.732H477.867ZM110.934 153.732C115.644 153.732 119.464 149.912 119.464 145.196V93.9966C119.464 91.7335 118.565 89.5631 116.965 87.9629C115.364 86.3627 113.194 85.4636 110.931 85.4636C108.668 85.4636 106.498 86.3627 104.897 87.9629C103.297 89.5631 102.398 91.7335 102.398 93.9966V145.197C102.398 146.318 102.619 147.428 103.048 148.463C103.476 149.499 104.105 150.44 104.898 151.232C105.691 152.025 106.632 152.654 107.667 153.083C108.703 153.511 109.813 153.732 110.934 153.732ZM145.066 153.732C146.187 153.732 147.297 153.511 148.333 153.082C149.369 152.654 150.31 152.025 151.102 151.232C151.895 150.439 152.524 149.498 152.953 148.463C153.382 147.427 153.602 146.317 153.602 145.196V93.9966C153.614 92.8682 153.403 91.7486 152.979 90.7026C152.556 89.6565 151.929 88.7048 151.136 87.9026C150.342 87.1003 149.397 86.4634 148.356 86.0287C147.314 85.5941 146.197 85.3703 145.068 85.3703C143.94 85.3703 142.823 85.5941 141.781 86.0287C140.74 86.4634 139.795 87.1003 139.001 87.9026C138.208 88.7048 137.581 89.6565 137.158 90.7026C136.734 91.7486 136.523 92.8682 136.535 93.9966V145.197C136.535 146.317 136.755 147.427 137.184 148.462C137.612 149.498 138.241 150.438 139.033 151.231C139.825 152.024 140.766 152.652 141.801 153.081C142.836 153.51 143.945 153.731 145.066 153.732ZM85.332 145.196V93.9966C85.332 91.7335 84.433 89.5631 82.8327 87.9629C81.2325 86.3627 79.0621 85.4636 76.799 85.4636C74.5359 85.4636 72.3655 86.3627 70.7653 87.9629C69.165 89.5631 68.266 91.7335 68.266 93.9966V145.197C68.2487 146.328 68.4566 147.452 68.8776 148.502C69.2987 149.553 69.9245 150.509 70.7185 151.315C71.5126 152.122 72.4591 152.762 73.503 153.199C74.5469 153.636 75.6673 153.861 76.799 153.861C77.9307 153.861 79.0511 153.636 80.095 153.199C81.1389 152.762 82.0854 152.122 82.8795 151.315C83.6735 150.509 84.2993 149.553 84.7204 148.502C85.1414 147.452 85.3493 146.328 85.332 145.197V145.196ZM110.934 332.93C115.644 332.93 119.464 329.11 119.464 324.396V273.196C119.464 268.486 115.644 264.666 110.934 264.666C109.813 264.665 108.704 264.886 107.668 265.314C106.633 265.742 105.692 266.371 104.899 267.163C104.107 267.955 103.478 268.895 103.049 269.93C102.619 270.966 102.398 272.075 102.398 273.196V324.396C102.398 325.517 102.619 326.627 103.048 327.662C103.476 328.698 104.105 329.639 104.898 330.431C105.691 331.224 106.632 331.853 107.667 332.281C108.703 332.71 109.813 332.931 110.934 332.931V332.93ZM68.266 324.396V273.196C68.266 268.486 64.446 264.666 59.734 264.666C57.4711 264.665 55.3006 265.563 53.7 267.163C52.0994 268.763 51.1998 270.933 51.199 273.196V324.396C51.1868 325.524 51.3985 326.644 51.8219 327.69C52.2452 328.736 52.8719 329.687 53.6655 330.49C54.4591 331.292 55.404 331.929 56.4454 332.364C57.4868 332.798 58.604 333.022 59.7325 333.022C60.861 333.022 61.9782 332.798 63.0196 332.364C64.061 331.929 65.0059 331.292 65.7995 330.49C66.5931 329.687 67.2198 328.736 67.6431 327.69C68.0665 326.644 68.2782 325.524 68.266 324.396ZM8.535 332.93C13.246 332.93 17.066 329.11 17.066 324.396V273.196C17.066 268.486 13.246 264.666 8.536 264.666C6.27308 264.665 4.10251 265.563 2.50173 267.162C0.900951 268.762 0.0010607 270.932 5.86014e-08 273.195L5.86014e-08 324.395C-0.000131291 325.516 0.220543 326.625 0.649421 327.661C1.0783 328.697 1.70698 329.638 2.49955 330.43C3.29212 331.223 4.23307 331.851 5.26864 332.28C6.30421 332.709 7.41413 332.93 8.535 332.93ZM17.066 153.732H34.133C43.559 153.732 51.199 146.091 51.199 136.665V102.528C51.199 93.1026 43.559 85.4616 34.133 85.4616H17.066C7.641 85.4616 5.86014e-08 93.1016 5.86014e-08 102.528V136.665C5.86014e-08 146.091 7.64 153.732 17.066 153.732ZM17.066 102.528H34.133V136.665H17.066V102.528ZM8.535 247.595C13.246 247.595 17.066 243.775 17.066 239.064V187.864C17.066 185.601 16.167 183.43 14.5667 181.83C12.9665 180.23 10.7961 179.331 8.533 179.331C6.26991 179.331 4.09951 180.23 2.49926 181.83C0.89901 183.43 5.86014e-08 185.601 5.86014e-08 187.864L5.86014e-08 239.064C5.86014e-08 243.774 3.82 247.595 8.535 247.595ZM51.2 187.864C51.2 185.6 50.3009 183.43 48.7006 181.83C47.1003 180.229 44.9297 179.33 42.6665 179.33C40.4033 179.33 38.2327 180.229 36.6324 181.83C35.0321 183.43 34.133 185.6 34.133 187.864V239.064C34.133 243.774 37.953 247.594 42.668 247.594C47.378 247.594 51.199 243.774 51.199 239.064L51.2 187.864ZM68.266 196.396V230.528C68.266 239.954 75.906 247.595 85.332 247.595H102.398C111.824 247.595 119.465 239.955 119.465 230.528V196.396C119.465 186.97 111.825 179.329 102.398 179.329H85.332C75.906 179.329 68.266 186.969 68.266 196.396ZM102.398 230.528H85.332V196.396H102.398V230.528ZM102.398 418.263C102.386 419.391 102.597 420.511 103.021 421.557C103.444 422.603 104.071 423.554 104.864 424.357C105.658 425.159 106.603 425.796 107.644 426.231C108.686 426.665 109.803 426.889 110.932 426.889C112.06 426.889 113.177 426.665 114.219 426.231C115.26 425.796 116.205 425.159 116.999 424.357C117.792 423.554 118.419 422.603 118.842 421.557C119.266 420.511 119.477 419.391 119.465 418.263V367.063C119.465 364.799 118.566 362.629 116.966 361.029C115.365 359.428 113.195 358.529 110.932 358.529C108.668 358.529 106.498 359.428 104.897 361.029C103.297 362.629 102.398 364.799 102.398 367.063V418.263ZM76.8 426.798C81.512 426.798 85.332 422.978 85.332 418.263V367.063C85.332 364.8 84.433 362.629 82.8327 361.029C81.2325 359.429 79.0621 358.53 76.799 358.53C74.5359 358.53 72.3655 359.429 70.7653 361.029C69.165 362.629 68.266 364.8 68.266 367.063V418.263C68.2659 419.384 68.4865 420.493 68.9154 421.529C69.3443 422.565 69.973 423.506 70.7655 424.298C71.5581 425.091 72.4991 425.719 73.5346 426.148C74.5702 426.577 75.6791 426.798 76.8 426.798ZM17.066 426.798H34.133C43.559 426.798 51.199 419.158 51.199 409.732V375.595C51.199 366.169 43.559 358.528 34.133 358.528H17.066C7.641 358.528 5.86014e-08 366.17 5.86014e-08 375.595V409.732C5.86014e-08 419.157 7.64 426.798 17.066 426.798ZM17.066 375.595H34.133V409.732H17.066V375.595ZM494.934 68.3956C499.644 68.3956 503.464 64.5756 503.464 59.8636V8.66464C503.464 7.54407 503.243 6.43447 502.814 5.3992C502.386 4.36393 501.757 3.42326 500.965 2.6309C500.172 1.83854 499.232 1.21 498.196 0.781176C497.161 0.352353 496.052 0.13164 494.931 0.13164C493.81 0.13164 492.701 0.352353 491.666 0.781176C490.63 1.21 489.69 1.83854 488.897 2.6309C488.105 3.42326 487.476 4.36393 487.048 5.3992C486.619 6.43447 486.398 7.54407 486.398 8.66464V59.8646C486.398 64.5746 490.218 68.3956 494.934 68.3956ZM460.8 68.3956C465.512 68.3956 469.332 64.5756 469.332 59.8636V8.66464C469.332 7.54407 469.111 6.43447 468.682 5.3992C468.254 4.36393 467.625 3.42326 466.833 2.6309C466.04 1.83854 465.1 1.21 464.064 0.781176C463.029 0.352353 461.92 0.13164 460.799 0.13164C459.678 0.13164 458.569 0.352353 457.534 0.781176C456.498 1.21 455.558 1.83854 454.765 2.6309C453.973 3.42326 453.344 4.36393 452.916 5.3992C452.487 6.43447 452.266 7.54407 452.266 8.66464V59.8646C452.266 64.5746 456.086 68.3946 460.801 68.3946L460.8 68.3956ZM358.398 68.3956C359.519 68.396 360.629 68.1756 361.664 67.7471C362.7 67.3185 363.641 66.6901 364.433 65.8978C365.226 65.1055 365.855 64.1648 366.284 63.1295C366.713 62.0941 366.934 60.9844 366.934 59.8636V8.66464C366.946 7.53623 366.735 6.41661 366.311 5.37056C365.888 4.32451 365.261 3.37282 364.468 2.57056C363.674 1.7683 362.729 1.13141 361.688 0.696741C360.646 0.262073 359.529 0.0382624 358.401 0.0382624C357.272 0.0382624 356.155 0.262073 355.113 0.696741C354.072 1.13141 353.127 1.7683 352.333 2.57056C351.54 3.37282 350.913 4.32451 350.49 5.37056C350.066 6.41661 349.855 7.53623 349.867 8.66464V59.8646C349.867 64.5746 353.687 68.3956 358.398 68.3956ZM401.066 68.3956H418.133C427.559 68.3956 435.199 60.7546 435.199 51.3286V17.1956C435.2 7.77064 427.56 0.129641 418.133 0.129641H401.066C391.641 0.129641 384 7.76964 384 17.1956V51.3296C384 60.7556 391.64 68.3956 401.066 68.3956ZM401.066 17.1956H418.133V51.3296H401.066V17.1956ZM298.668 68.3956H315.734C325.16 68.3956 332.801 60.7546 332.801 51.3286V17.1956C332.8 7.77064 325.16 0.129641 315.734 0.129641H298.668C289.242 0.129641 281.602 7.76964 281.602 17.1956V51.3296C281.602 60.7556 289.242 68.3956 298.668 68.3956ZM298.668 17.1956H315.734V51.3296H298.668V17.1956ZM256 68.3956C260.71 68.3956 264.535 64.5756 264.535 59.8636V8.66464C264.501 6.42365 263.586 4.28605 261.99 2.71341C260.393 1.14078 258.241 0.259297 256 0.259297C253.759 0.259297 251.607 1.14078 250.011 2.71341C248.414 4.28605 247.499 6.42365 247.465 8.66464V59.8646C247.465 64.5746 251.289 68.3956 256 68.3956ZM221.867 68.3956C226.578 68.3956 230.398 64.5756 230.398 59.8636V8.66464C230.398 6.40155 229.499 4.23115 227.899 2.6309C226.298 1.03065 224.128 0.131641 221.865 0.131641C219.602 0.131641 217.432 1.03065 215.831 2.6309C214.231 4.23115 213.332 6.40155 213.332 8.66464V59.8646C213.332 64.5746 217.152 68.3956 221.867 68.3956ZM17.066 68.3956C18.1867 68.396 19.2966 68.1756 20.3321 67.7471C21.3677 67.3185 22.3087 66.6901 23.1013 65.8978C23.894 65.1055 24.5228 64.1648 24.9519 63.1295C25.381 62.0941 25.6019 60.9844 25.602 59.8636V8.66464C25.6142 7.53623 25.4025 6.41661 24.9791 5.37056C24.5558 4.32451 23.9291 3.37282 23.1355 2.57056C22.3419 1.7683 21.397 1.13141 20.3556 0.696741C19.3142 0.262073 18.197 0.0382624 17.0685 0.0382624C15.94 0.0382624 14.8228 0.262073 13.7814 0.696741C12.74 1.13141 11.7951 1.7683 11.0015 2.57056C10.2079 3.37282 9.58123 4.32451 9.15786 5.37056C8.73449 6.41661 8.52278 7.53623 8.535 8.66464V59.8646C8.535 64.5746 12.355 68.3956 17.066 68.3956ZM119.465 68.3956C120.586 68.3959 121.695 68.1754 122.731 67.7468C123.766 67.3181 124.707 66.6897 125.5 65.8974C126.292 65.1052 126.921 64.1645 127.35 63.1292C127.779 62.0939 128 60.9843 128 59.8636V8.66464C128.017 7.53308 127.809 6.40937 127.388 5.35892C126.967 4.30847 126.342 3.35225 125.547 2.54592C124.753 1.73959 123.807 1.09925 122.763 0.662169C121.719 0.22509 120.599 0 119.467 0C118.335 0 117.215 0.22509 116.171 0.662169C115.127 1.09925 114.181 1.73959 113.387 2.54592C112.592 3.35225 111.967 4.30847 111.546 5.35892C111.125 6.40937 110.917 7.53308 110.934 8.66464V59.8646C110.934 64.5746 114.754 68.3946 119.464 68.3946L119.465 68.3956ZM162.133 68.3956H179.199C188.625 68.3956 196.266 60.7546 196.266 51.3286V17.1956C196.266 7.77064 188.625 0.129641 179.199 0.129641H162.133C152.707 0.129641 145.066 7.76964 145.066 17.1956V51.3296C145.066 60.7556 152.707 68.3956 162.133 68.3956ZM162.133 17.1956H179.199V51.3296H162.133V17.1956ZM59.734 68.3956H76.801C86.227 68.3956 93.867 60.7546 93.867 51.3286V17.1956C93.867 7.77064 86.227 0.129641 76.801 0.129641H59.734C50.31 0.129641 42.668 7.76964 42.668 17.1956V51.3296C42.668 60.7556 50.308 68.3956 59.734 68.3956ZM59.734 17.1956H76.801V51.3296H59.734V17.1956ZM8.535 452.396V503.595C8.535 505.858 9.43406 508.028 11.0344 509.629C12.6347 511.229 14.8053 512.128 17.0685 512.128C19.3317 512.128 21.5023 511.229 23.1026 509.629C24.7029 508.028 25.602 505.858 25.602 503.595V452.395C25.602 447.685 21.782 443.865 17.066 443.865C14.8039 443.865 12.6345 444.764 11.035 446.364C9.43539 447.963 8.53653 450.133 8.536 452.395L8.535 452.396ZM42.668 452.396V503.595C42.668 505.858 43.567 508.028 45.1673 509.628C46.7675 511.229 48.9379 512.128 51.201 512.128C53.4641 512.128 55.6345 511.229 57.2347 509.628C58.835 508.028 59.734 505.858 59.734 503.595V452.395C59.734 447.685 55.914 443.865 51.199 443.865C48.9367 443.865 46.7671 444.764 45.1673 446.363C43.5675 447.963 42.6685 450.133 42.668 452.396ZM145.066 452.396V503.595C145.054 504.723 145.265 505.843 145.689 506.889C146.112 507.935 146.739 508.886 147.532 509.689C148.326 510.491 149.271 511.128 150.312 511.563C151.354 511.997 152.471 512.221 153.6 512.221C154.728 512.221 155.845 511.997 156.887 511.563C157.928 511.128 158.873 510.491 159.667 509.689C160.46 508.886 161.087 507.935 161.51 506.889C161.934 505.843 162.145 504.723 162.133 503.595V452.395C162.133 447.685 158.313 443.865 153.602 443.865C152.481 443.864 151.372 444.085 150.336 444.513C149.301 444.941 148.36 445.57 147.567 446.362C146.775 447.154 146.146 448.094 145.717 449.129C145.288 450.165 145.066 451.275 145.066 452.396ZM93.867 512.13H110.934C120.359 512.13 128 504.49 128 495.064V460.93C128 451.504 120.36 443.863 110.934 443.863H93.867C84.441 443.863 76.801 451.504 76.801 460.93V495.063C76.801 504.488 84.441 512.13 93.867 512.13ZM93.867 460.93H110.934V495.064H93.867V460.93ZM196.266 443.864C186.84 443.864 179.199 451.505 179.199 460.931V495.064C179.199 504.489 186.839 512.13 196.266 512.13H213.332C222.758 512.13 230.398 504.49 230.398 495.064V460.93C230.398 451.504 222.758 443.863 213.332 443.863L196.266 443.864ZM196.266 495.064V460.93H213.332V495.063L196.266 495.064ZM247.465 452.396V503.595C247.499 505.836 248.414 507.973 250.011 509.546C251.607 511.119 253.759 512 256 512C258.241 512 260.393 511.119 261.99 509.546C263.586 507.973 264.501 505.836 264.535 503.595V452.395C264.535 447.685 260.711 443.865 256 443.865C251.289 443.865 247.465 447.686 247.465 452.396ZM281.602 452.396V503.595C281.602 504.715 281.823 505.825 282.252 506.86C282.68 507.895 283.309 508.836 284.101 509.628C284.894 510.421 285.834 511.049 286.87 511.478C287.905 511.907 289.014 512.128 290.135 512.128C291.256 512.128 292.365 511.907 293.4 511.478C294.436 511.049 295.376 510.421 296.169 509.628C296.961 508.836 297.59 507.895 298.018 506.86C298.447 505.825 298.668 504.715 298.668 503.595V452.395C298.668 447.685 294.848 443.865 290.133 443.865C287.871 443.865 285.701 444.764 284.101 446.363C282.502 447.963 281.603 450.133 281.602 452.396ZM503.465 503.595V452.395C503.465 447.685 499.645 443.865 494.934 443.865C493.813 443.864 492.704 444.085 491.668 444.513C490.633 444.941 489.692 445.57 488.899 446.362C488.107 447.154 487.478 448.094 487.049 449.129C486.619 450.165 486.398 451.274 486.398 452.395V503.595C486.386 504.723 486.597 505.843 487.021 506.889C487.444 507.935 488.071 508.886 488.864 509.689C489.658 510.491 490.603 511.128 491.644 511.563C492.686 511.997 493.803 512.221 494.931 512.221C496.06 512.221 497.177 511.997 498.219 511.563C499.26 511.128 500.205 510.491 500.999 509.689C501.792 508.886 502.419 507.935 502.842 506.889C503.266 505.843 503.477 504.723 503.465 503.595ZM392.535 512.13C397.246 512.13 401.066 508.31 401.066 503.595V452.395C401.066 447.685 397.246 443.865 392.536 443.865C391.415 443.864 390.306 444.085 389.27 444.513C388.235 444.941 387.294 445.57 386.501 446.362C385.709 447.154 385.08 448.094 384.651 449.129C384.222 450.165 384 451.274 384 452.395V503.595C384 504.716 384.221 505.825 384.649 506.861C385.078 507.897 385.707 508.838 386.5 509.63C387.292 510.423 388.233 511.051 389.269 511.48C390.304 511.909 391.414 512.13 392.535 512.13ZM332.8 443.864C323.375 443.864 315.734 451.505 315.734 460.931V495.064C315.734 504.489 323.375 512.13 332.801 512.13H349.867C359.293 512.13 366.934 504.49 366.934 495.064V460.93C366.934 451.504 359.293 443.863 349.867 443.863L332.8 443.864ZM332.8 495.064V460.93H349.867V495.063L332.8 495.064ZM435.2 512.13H452.266C461.691 512.13 469.332 504.49 469.332 495.064V460.93C469.332 451.504 461.692 443.863 452.266 443.863H435.199C425.773 443.863 418.133 451.504 418.133 460.93V495.063C418.133 504.488 425.773 512.129 435.199 512.129L435.2 512.13ZM435.2 460.93H452.266V495.064H435.199L435.2 460.93Z" fill="url(#paint1_linear_749_58)"/>
<defs>
<linearGradient id="paint0_linear_749_58" x1="145.06" y1="106.091" x2="466.637" y2="363.323" gradientUnits="userSpaceOnUse">
<stop stop-color="#1BA2D7"/>
<stop offset="1" stop-color="#8D3DFA"/>
</linearGradient>
<linearGradient id="paint1_linear_749_58" x1="18.2681" y1="33.0143" x2="506.194" y2="592.745" gradientUnits="userSpaceOnUse">
<stop stop-color="#1BA2D7"/>
<stop offset="1" stop-color="#8D3DFA"/>
</linearGradient>
</defs>
</svg>
