<svg width="480" height="480" viewBox="0 0 480 480" fill="none" xmlns="http://www.w3.org/2000/svg">
<path d="M436.792 171.198C435.969 170.453 434.999 169.887 433.945 169.536C432.891 169.186 431.776 169.059 430.67 169.163C429.564 169.268 428.492 169.601 427.522 170.143C426.552 170.685 425.706 171.422 425.036 172.309C424.367 173.195 423.89 174.212 423.635 175.293C423.381 176.374 423.354 177.496 423.556 178.589C423.759 179.681 424.187 180.719 424.813 181.636C425.439 182.554 426.249 183.331 427.192 183.918C440.778 194.082 453.128 205.798 463.992 218.83V391.63C445.143 377.431 425.582 364.203 405.384 351.998H422.12C425.495 351.998 428.832 351.285 431.912 349.908C434.993 348.53 437.748 346.518 439.999 344.003C442.249 341.489 443.944 338.528 444.973 335.313C446.001 332.099 446.341 328.704 445.968 325.35L435.104 227.582C434.089 218.524 429.998 210.087 423.513 203.681C417.028 197.275 408.543 193.287 399.472 192.382C404.956 185.434 407.955 176.85 407.992 167.998V166.526C412.656 164.878 416.695 161.829 419.56 157.796C422.424 153.763 423.972 148.944 423.992 143.998V87.9984C423.98 77.3936 419.761 67.2268 412.262 59.7281C404.764 52.2294 394.597 48.0111 383.992 47.9984H358.656C344.997 47.9844 331.528 44.8052 319.304 38.7104L307.568 32.8384C306.348 32.2287 304.993 31.9411 303.63 32.0028C302.268 32.0645 300.944 32.4735 299.784 33.1909C298.624 33.9083 297.667 34.9103 297.003 36.1018C296.34 37.2932 295.992 38.6346 295.992 39.9984V79.9984C296.013 84.9444 297.561 89.7634 300.425 93.796C303.289 97.8285 307.329 100.878 311.992 102.526V113.47C307.329 115.119 303.289 118.168 300.425 122.201C297.561 126.233 296.013 131.052 295.992 135.998V151.998C296.009 157.065 297.633 161.997 300.63 166.082C303.628 170.168 307.844 173.197 312.672 174.734C313.88 181.645 316.897 188.113 321.416 193.478C309.369 195.899 298.139 201.357 288.792 209.334L257.056 236.534L230.224 202.998C230.128 202.886 229.984 202.83 229.888 202.726C229.792 202.622 229.744 202.454 229.632 202.342L218.6 191.31C215.108 187.824 210.66 185.45 205.819 184.49C200.978 183.529 195.961 184.025 191.402 185.914C186.843 187.804 182.946 191.002 180.203 195.105C177.46 199.207 175.995 204.031 175.992 208.966C176.01 215.585 178.637 221.929 183.304 226.622L194.16 237.486L230.576 279.086C217.839 276.262 204.959 274.125 191.992 272.686V247.998C191.992 245.877 191.149 243.842 189.649 242.341C188.149 240.841 186.114 239.998 183.992 239.998C181.871 239.998 179.836 240.841 178.335 242.341C176.835 243.842 175.992 245.877 175.992 247.998V279.998C175.985 282.01 176.736 283.95 178.096 285.433C179.455 286.915 181.324 287.831 183.328 287.998C220.706 291.717 257.393 300.571 292.352 314.31C289.836 317.9 288.353 322.112 288.066 326.487C287.779 330.862 288.699 335.232 290.725 339.12C292.751 343.008 295.806 346.265 299.556 348.536C303.306 350.807 307.608 352.004 311.992 351.998H373.52C406.361 370.102 437.627 390.924 466.992 414.246C468.169 415.188 469.588 415.779 471.086 415.95C472.583 416.121 474.099 415.865 475.458 415.212C476.816 414.559 477.963 413.535 478.765 412.259C479.567 410.983 479.993 409.506 479.992 407.998V215.998C479.993 214.181 479.375 212.418 478.24 210.998C466.128 196.064 452.205 182.695 436.792 171.198ZM349.744 103.998C364.353 104.014 378.373 109.758 388.792 119.998H385.752C383.52 117.492 380.785 115.484 377.725 114.105C374.665 112.727 371.348 112.009 367.992 111.998H327.992V103.998H349.744ZM385.744 167.998H391.992C391.992 174.364 389.464 180.468 384.963 184.969C380.462 189.47 374.357 191.998 367.992 191.998H351.992C347.046 191.978 342.227 190.43 338.195 187.566C334.162 184.702 331.113 180.662 329.464 175.998H367.992C371.348 175.988 374.665 175.27 377.725 173.891C380.785 172.513 383.512 170.505 385.744 167.998ZM399.992 151.998H391.992V135.998H399.992C402.114 135.998 404.149 136.841 405.649 138.341C407.149 139.842 407.992 141.877 407.992 143.998C407.992 146.12 407.149 148.155 405.649 149.655C404.149 151.156 402.114 151.998 399.992 151.998ZM311.992 52.9424L312.144 53.0224C326.594 60.2212 342.513 63.9779 358.656 63.9984H383.992C390.357 63.9984 396.462 66.5269 400.963 71.0278C405.464 75.5287 407.992 81.6332 407.992 87.9984V117.678C401.323 108.477 392.566 100.988 382.44 95.8289C372.314 90.6694 361.109 87.9857 349.744 87.9984H319.992C317.871 87.9984 315.836 87.1555 314.335 85.6552C312.835 84.1549 311.992 82.1201 311.992 79.9984V52.9424ZM311.992 135.998C311.992 133.877 312.835 131.842 314.335 130.341C315.836 128.841 317.871 127.998 319.992 127.998H367.992C370.114 127.998 372.149 128.841 373.649 130.341C375.149 131.842 375.992 133.877 375.992 135.998V151.998C375.992 154.12 375.149 156.155 373.649 157.655C372.149 159.156 370.114 159.998 367.992 159.998H319.992C317.871 159.998 315.836 159.156 314.335 157.655C312.835 156.155 311.992 154.12 311.992 151.998V135.998ZM200.96 199.998C202.139 199.994 203.306 200.223 204.396 200.674C205.485 201.124 206.473 201.787 207.304 202.622L212.68 207.998L199.992 220.686L194.616 215.31C193.361 214.056 192.506 212.458 192.16 210.717C191.813 208.977 191.991 207.173 192.67 205.534C193.349 203.894 194.499 202.493 195.975 201.508C197.451 200.523 199.186 199.997 200.96 199.998ZM223.36 219.998L249.76 253.022C250.431 253.861 251.264 254.555 252.209 255.065C253.154 255.575 254.192 255.889 255.261 255.989C256.33 256.089 257.408 255.973 258.431 255.647C259.454 255.322 260.401 254.794 261.216 254.094L299.192 221.486C309.351 212.784 322.287 208 335.664 207.998H395.352C401.257 208.002 406.953 210.181 411.351 214.121C415.749 218.06 418.541 223.482 419.192 229.35L430.064 327.118C430.188 328.236 430.075 329.367 429.732 330.437C429.389 331.508 428.825 332.494 428.075 333.332C427.326 334.17 426.408 334.841 425.382 335.3C424.356 335.759 423.244 335.997 422.12 335.998H335.992V319.998H399.992C401.139 319.999 402.272 319.752 403.315 319.276C404.358 318.8 405.287 318.105 406.038 317.239C406.789 316.372 407.345 315.354 407.669 314.254C407.992 313.154 408.075 311.997 407.912 310.862L399.912 254.862C399.611 252.762 398.488 250.867 396.789 249.595C395.091 248.323 392.957 247.777 390.856 248.078C388.756 248.38 386.861 249.503 385.589 251.201C384.316 252.9 383.771 255.034 384.072 257.134L390.768 303.998H319.992V247.998C319.992 246.468 319.553 244.97 318.728 243.682C317.902 242.394 316.724 241.369 315.334 240.73C313.944 240.091 312.399 239.864 310.884 240.076C309.368 240.288 307.946 240.93 306.784 241.926L262.784 279.622C261.186 280.986 259.116 281.667 257.02 281.517C254.925 281.368 252.972 280.4 251.584 278.822L210.944 232.374L223.36 219.998ZM303.992 265.39V301.598C293.912 297.673 283.968 294.118 274.16 290.934L303.992 265.39ZM303.992 327.998C303.992 325.877 304.835 323.842 306.335 322.341C307.836 320.841 309.871 319.998 311.992 319.998H319.992V335.998H311.992C309.871 335.998 307.836 335.156 306.335 333.655C304.835 332.155 303.992 330.12 303.992 327.998Z" fill="url(#paint0_linear_749_3)"/>
<path d="M183.993 175.998C186.115 175.998 188.15 175.155 189.65 173.655C191.15 172.155 191.993 170.12 191.993 167.998V112.078C221.018 112.684 249.932 115.87 278.393 121.598C280.473 122.016 282.635 121.591 284.401 120.415C286.168 119.24 287.395 117.411 287.813 115.33C288.231 113.25 287.805 111.089 286.63 109.322C285.454 107.556 283.625 106.328 281.545 105.91C249.428 99.4389 216.755 96.1192 183.993 95.9983C181.871 95.9983 179.836 96.8411 178.336 98.3414C176.836 99.8417 175.993 101.877 175.993 103.998V167.998C175.993 170.12 176.836 172.155 178.336 173.655C179.836 175.155 181.871 175.998 183.993 175.998ZM238.337 334.342L226.337 346.342L207.577 365.102L175.193 337.326C165.854 329.352 154.633 323.897 142.593 321.478C147.113 316.113 150.13 309.645 151.337 302.734C156.161 301.193 160.372 298.162 163.365 294.077C166.357 289.991 167.978 285.062 167.993 279.998V263.998C167.973 259.052 166.424 254.233 163.56 250.201C160.696 246.168 156.656 243.119 151.993 241.47V229.19C157.735 226.476 162.38 221.886 165.164 216.177C167.947 210.469 168.702 203.982 167.305 197.786C165.907 191.591 162.44 186.057 157.475 182.096C152.51 178.135 146.344 175.985 139.993 175.998H79.993C69.3883 176.011 59.2215 180.229 51.7228 187.728C44.2241 195.227 40.0057 205.394 39.993 215.998V271.998C40.0135 276.944 41.5617 281.763 44.4257 285.796C47.2898 289.828 51.3298 292.878 55.993 294.526V295.998C56.0225 304.682 58.9066 313.115 64.201 319.998H62.985C57.1194 319.991 51.3244 321.278 46.013 323.767C40.7016 326.256 36.0047 329.886 32.257 334.398L9.00905 362.278C2.79551 369.742 -0.403319 379.258 0.0407408 388.96C0.484801 398.661 4.53966 407.846 11.409 414.71L23.409 426.71L16.089 470.654C15.8932 471.804 15.9509 472.982 16.2581 474.106C16.5653 475.231 17.1145 476.275 17.8675 477.165C18.6204 478.055 19.5587 478.77 20.6168 479.259C21.6749 479.749 22.8272 480.001 23.993 479.998H151.993C154.115 479.998 156.15 479.155 157.65 477.655C159.15 476.155 159.993 474.12 159.993 471.998V393.39L191.537 420.438C196.142 424.346 202.044 426.384 208.079 426.15C214.114 425.916 219.841 423.427 224.129 419.174L261.649 381.654L273.649 369.654C278.332 364.972 280.962 358.621 280.962 351.998C280.962 345.376 278.332 339.025 273.649 334.342C268.966 329.66 262.615 327.029 255.993 327.029C249.371 327.029 243.02 329.66 238.337 334.342ZM63.993 279.998C61.8713 279.998 59.8365 279.155 58.3362 277.655C56.8359 276.155 55.993 274.12 55.993 271.998C55.993 269.877 56.8359 267.842 58.3362 266.341C59.8365 264.841 61.8713 263.998 63.993 263.998H119.993V279.998H63.993ZM126.233 247.998H73.593L77.137 242.686C79.3254 239.392 82.2961 236.692 85.7835 234.826C89.2709 232.961 93.1662 231.99 97.121 231.998H135.993V241.47C132.249 242.805 128.896 245.048 126.233 247.998ZM151.993 279.998C151.993 282.12 151.15 284.155 149.65 285.655C148.15 287.155 146.115 287.998 143.993 287.998C141.871 287.998 139.836 287.155 138.336 285.655C136.836 284.155 135.993 282.12 135.993 279.998V263.998C135.993 261.877 136.836 259.842 138.336 258.341C139.836 256.841 141.871 255.998 143.993 255.998C146.115 255.998 148.15 256.841 149.65 258.341C151.15 259.842 151.993 261.877 151.993 263.998V279.998ZM55.993 215.998C55.993 209.633 58.5216 203.529 63.0225 199.028C67.5234 194.527 73.6279 191.998 79.993 191.998H139.993C143.176 191.998 146.228 193.263 148.478 195.513C150.729 197.763 151.993 200.816 151.993 203.998C151.993 207.181 150.729 210.233 148.478 212.484C146.228 214.734 143.176 215.998 139.993 215.998H97.121C90.5328 215.989 84.0448 217.611 78.2361 220.719C72.4275 223.828 67.4792 228.327 63.833 233.814L55.993 245.598V215.998ZM71.993 295.998H126.233C128.657 298.717 131.666 300.85 135.033 302.238C133.667 307.313 130.673 311.799 126.511 315.007C122.348 318.215 117.248 319.969 111.993 319.998H95.993C89.6279 319.998 83.5234 317.47 79.0225 312.969C74.5216 308.468 71.993 302.363 71.993 295.998ZM212.793 407.862C211.369 409.286 209.46 410.121 207.448 410.2C205.436 410.278 203.468 409.595 201.937 408.286L157.185 369.886C156.021 368.893 154.596 368.254 153.079 368.047C151.563 367.839 150.019 368.07 148.63 368.714C147.241 369.357 146.066 370.386 145.244 371.677C144.422 372.968 143.988 374.468 143.993 375.998V463.998H33.441L39.777 425.942L55.585 378.526C56.2555 376.511 56.0978 374.311 55.1466 372.412C54.1954 370.512 52.5287 369.069 50.513 368.398C48.4974 367.728 46.298 367.886 44.3986 368.837C42.4992 369.788 41.0555 371.455 40.385 373.47L28.497 409.19L22.705 403.398C18.6608 399.354 16.2749 393.944 16.0158 388.23C15.7568 382.516 17.6434 376.912 21.305 372.518L44.545 344.63C46.7959 341.925 49.6151 339.749 52.8022 338.257C55.9893 336.765 59.466 335.994 62.985 335.998H128.321C141.697 335.998 154.633 340.779 164.793 349.478L202.817 382.07C204.347 383.382 206.316 384.068 208.331 383.991C210.345 383.914 212.256 383.08 213.681 381.654L231.993 363.31L244.681 375.998L212.793 407.862ZM262.321 358.342L255.993 364.686L243.305 351.998L249.649 345.654C251.335 343.979 253.616 343.038 255.993 343.038C258.37 343.038 260.651 343.979 262.337 345.654C263.172 346.487 263.834 347.475 264.285 348.564C264.737 349.653 264.97 350.82 264.97 351.998C264.97 353.177 264.737 354.344 264.285 355.433C263.834 356.521 263.172 357.51 262.337 358.342H262.321ZM202.337 61.6543C203.837 63.1541 205.872 63.9966 207.993 63.9966C210.114 63.9966 212.149 63.1541 213.649 61.6543L237.649 37.6543C239.149 36.1541 239.991 34.1196 239.991 31.9983C239.991 29.877 239.149 27.8425 237.649 26.3423L213.649 2.34229C212.149 0.842522 210.114 0 207.993 0C205.872 0 203.837 0.842522 202.337 2.34229L178.337 26.3423C176.837 27.8425 175.995 29.877 175.995 31.9983C175.995 34.1196 176.837 36.1541 178.337 37.6543L202.337 61.6543ZM207.993 19.3103L220.681 31.9983L207.993 44.6863L195.305 31.9983L207.993 19.3103ZM442.337 77.6543C443.837 79.1541 445.872 79.9966 447.993 79.9966C450.114 79.9966 452.149 79.1541 453.649 77.6543L477.649 53.6543C479.149 52.1541 479.991 50.1196 479.991 47.9983C479.991 45.877 479.149 43.8425 477.649 42.3423L453.649 18.3423C452.149 16.8425 450.114 16 447.993 16C445.872 16 443.837 16.8425 442.337 18.3423L418.337 42.3423C416.837 43.8425 415.995 45.877 415.995 47.9983C415.995 50.1196 416.837 52.1541 418.337 53.6543L442.337 77.6543ZM447.993 35.3103L460.681 47.9983L447.993 60.6863L435.305 47.9983L447.993 35.3103ZM58.337 141.654C59.8373 143.154 61.8717 143.997 63.993 143.997C66.1144 143.997 68.1488 143.154 69.649 141.654L93.649 117.654C95.1488 116.154 95.9913 114.12 95.9913 111.998C95.9913 109.877 95.1488 107.843 93.649 106.342L69.649 82.3423C68.1488 80.8425 66.1144 80 63.993 80C61.8717 80 59.8373 80.8425 58.337 82.3423L34.337 106.342C32.8373 107.843 31.9948 109.877 31.9948 111.998C31.9948 114.12 32.8373 116.154 34.337 117.654L58.337 141.654ZM63.993 99.3103L76.6811 111.998L63.993 124.686L51.305 111.998L63.993 99.3103ZM325.649 386.342C324.149 384.843 322.114 384 319.993 384C317.872 384 315.837 384.843 314.337 386.342L290.337 410.342C288.837 411.843 287.995 413.877 287.995 415.998C287.995 418.12 288.837 420.154 290.337 421.654L314.337 445.654C315.837 447.154 317.872 447.997 319.993 447.997C322.114 447.997 324.149 447.154 325.649 445.654L349.649 421.654C351.149 420.154 351.991 418.12 351.991 415.998C351.991 413.877 351.149 411.843 349.649 410.342L325.649 386.342ZM319.993 428.686L307.305 415.998L319.993 403.31L332.681 415.998L319.993 428.686Z" fill="url(#paint1_linear_749_3)"/>
<defs>
<linearGradient id="paint0_linear_749_3" x1="186.839" y1="56.7451" x2="554.393" y2="390.685" gradientUnits="userSpaceOnUse">
<stop stop-color="#1BA2D7"/>
<stop offset="1" stop-color="#8D3DFA"/>
</linearGradient>
<linearGradient id="paint1_linear_749_3" x1="17.126" y1="30.9375" x2="474.332" y2="555.645" gradientUnits="userSpaceOnUse">
<stop stop-color="#1BA2D7"/>
<stop offset="1" stop-color="#8D3DFA"/>
</linearGradient>
</defs>
</svg>
