<svg width="460" height="429" viewBox="0 0 460 429" fill="none" xmlns="http://www.w3.org/2000/svg">
<path fill-rule="evenodd" clip-rule="evenodd" d="M308.289 428.31H151.249C149.853 428.31 148.515 427.755 147.527 426.769C146.54 425.782 145.985 424.443 145.984 423.048V392.28C145.984 357.302 174.449 328.84 209.427 328.84C210.823 328.84 212.161 329.394 213.148 330.381C214.135 331.368 214.689 332.706 214.689 334.102C214.689 335.497 214.135 336.836 213.148 337.822C212.161 338.809 210.823 339.363 209.427 339.363C180.254 339.363 156.508 363.104 156.508 392.283V417.786H303.039V392.283C303.039 363.104 279.293 339.363 250.116 339.363C248.751 339.318 247.458 338.743 246.508 337.762C245.559 336.78 245.028 335.467 245.028 334.102C245.028 332.736 245.559 331.424 246.508 330.442C247.458 329.46 248.751 328.886 250.116 328.84C285.095 328.84 313.551 357.304 313.551 392.283V423.048C313.551 423.739 313.416 424.423 313.152 425.062C312.888 425.701 312.5 426.281 312.011 426.77C311.522 427.259 310.942 427.646 310.303 427.911C309.665 428.175 308.98 428.31 308.289 428.31Z" fill="url(#paint0_linear_1159_1178)"/>
<path fill-rule="evenodd" clip-rule="evenodd" d="M209.43 339.365C208.034 339.365 206.696 338.81 205.709 337.823C204.722 336.837 204.168 335.498 204.168 334.103V313.95C204.168 312.555 204.722 311.216 205.709 310.23C206.696 309.243 208.034 308.688 209.43 308.688C210.825 308.688 212.164 309.243 213.15 310.23C214.137 311.216 214.692 312.555 214.692 313.95V334.103C214.692 337.008 212.335 339.365 209.43 339.365ZM250.119 339.365C248.723 339.365 247.384 338.81 246.397 337.824C245.41 336.837 244.855 335.499 244.854 334.103V313.215C244.854 311.819 245.408 310.481 246.395 309.494C247.382 308.508 248.72 307.953 250.116 307.953C251.511 307.953 252.85 308.508 253.837 309.494C254.823 310.481 255.378 311.819 255.378 313.215V334.103C255.378 337.008 253.021 339.365 250.119 339.365Z" fill="url(#paint1_linear_1159_1178)"/>
<path fill-rule="evenodd" clip-rule="evenodd" d="M229.776 358.977C215.361 358.977 203.629 347.819 203.629 334.103C203.629 332.707 204.184 331.369 205.17 330.382C206.157 329.396 207.496 328.841 208.891 328.841C210.287 328.841 211.625 329.396 212.612 330.382C213.599 331.369 214.153 332.707 214.153 334.103C214.153 342.016 221.16 348.453 229.773 348.453C238.389 348.453 245.393 342.016 245.393 334.103C245.393 332.707 245.948 331.368 246.935 330.381C247.922 329.394 249.26 328.84 250.656 328.84C252.052 328.84 253.391 329.394 254.378 330.381C255.365 331.368 255.92 332.707 255.92 334.103C255.92 347.819 244.188 358.977 229.776 358.977ZM186.229 428.311C184.833 428.311 183.495 427.757 182.508 426.77C181.521 425.783 180.967 424.445 180.967 423.049V392.281C180.967 390.886 181.521 389.547 182.508 388.561C183.495 387.574 184.833 387.019 186.229 387.019C187.624 387.019 188.963 387.574 189.949 388.561C190.936 389.547 191.49 390.886 191.49 392.281V423.049C191.49 425.955 189.134 428.311 186.229 428.311ZM273.323 428.311C272.632 428.312 271.947 428.176 271.309 427.912C270.67 427.648 270.09 427.26 269.601 426.771C269.112 426.283 268.725 425.702 268.46 425.064C268.196 424.425 268.061 423.74 268.061 423.049V392.281C268.061 390.886 268.616 389.547 269.603 388.561C270.589 387.574 271.928 387.019 273.323 387.019C274.719 387.019 276.057 387.574 277.044 388.561C278.031 389.547 278.585 390.886 278.585 392.281V423.049C278.585 425.955 276.229 428.311 273.323 428.311ZM229.711 327.315C203.431 327.315 182.272 294.123 182.272 266.638C182.272 265.243 182.826 263.904 183.813 262.918C184.8 261.931 186.138 261.376 187.534 261.376C188.929 261.376 190.268 261.931 191.254 262.918C192.241 263.904 192.796 265.243 192.796 266.638C192.796 288.746 210.17 316.791 229.711 316.791C238.546 316.791 247.935 310.239 255.471 298.818C262.587 288.025 267.01 274.546 267.01 263.635C267.056 262.27 267.63 260.977 268.612 260.027C269.594 259.078 270.906 258.547 272.272 258.547C273.638 258.547 274.95 259.078 275.932 260.027C276.914 260.977 277.488 262.27 277.534 263.635C277.534 289.277 257.455 327.315 229.711 327.315Z" fill="url(#paint2_linear_1159_1178)"/>
<path fill-rule="evenodd" clip-rule="evenodd" d="M187.738 271.899H187.516C186.825 271.897 186.141 271.758 185.504 271.492C184.867 271.225 184.288 270.835 183.801 270.345C183.314 269.854 182.929 269.273 182.667 268.633C182.405 267.994 182.271 267.309 182.273 266.618C182.276 265.927 182.415 265.244 182.681 264.606C182.948 263.969 183.338 263.39 183.828 262.903C184.319 262.417 184.9 262.031 185.539 261.769C186.179 261.507 186.863 261.373 187.554 261.376H187.735C213.908 261.376 233.987 237.039 234.187 236.791C234.718 236.134 235.4 235.615 236.174 235.277C236.948 234.94 237.793 234.794 238.635 234.852C239.478 234.911 240.294 235.171 241.015 235.612C241.735 236.053 242.339 236.661 242.774 237.385C242.892 237.582 255.353 257.747 272.464 258.376C273.859 258.427 275.176 259.03 276.127 260.052C277.077 261.074 277.583 262.432 277.534 263.827C277.482 265.221 276.878 266.538 275.855 267.488C274.833 268.438 273.475 268.944 272.08 268.893C255.875 268.3 243.678 255.931 237.748 248.431C229.54 256.628 211.115 271.899 187.738 271.899Z" fill="url(#paint3_linear_1159_1178)"/>
<path fill-rule="evenodd" clip-rule="evenodd" d="M187.545 271.899C186.652 271.9 185.773 271.675 184.991 271.245C184.21 270.814 183.55 270.192 183.074 269.436C175.796 257.844 183.742 231.712 198.824 217.657C213.287 204.183 231.6 203.79 249.077 216.579C250.203 217.403 250.956 218.64 251.17 220.019C251.384 221.398 251.041 222.805 250.217 223.931C249.393 225.057 248.156 225.81 246.777 226.024C245.398 226.237 243.991 225.895 242.865 225.071C229.282 215.129 216.874 215.223 205.996 225.357C192.815 237.641 188.584 258.416 191.992 263.835C192.49 264.631 192.767 265.546 192.793 266.485C192.819 267.423 192.594 268.352 192.14 269.175C191.687 269.997 191.021 270.684 190.213 271.163C189.405 271.641 188.484 271.896 187.545 271.899Z" fill="url(#paint4_linear_1159_1178)"/>
<path fill-rule="evenodd" clip-rule="evenodd" d="M272.274 268.894C271.34 268.893 270.424 268.643 269.618 268.171C268.812 267.698 268.147 267.02 267.69 266.206C267.232 265.392 267 264.471 267.016 263.537C267.031 262.603 267.295 261.69 267.78 260.892C269.118 256.631 270.033 234.365 261.966 226.522C260.797 225.382 257.233 221.916 247.961 225.701C247.321 225.963 246.636 226.096 245.945 226.092C245.254 226.089 244.57 225.95 243.933 225.682C243.295 225.415 242.717 225.025 242.23 224.534C241.744 224.043 241.359 223.461 241.097 222.821C240.836 222.181 240.703 221.496 240.706 220.805C240.709 220.113 240.849 219.43 241.116 218.792C241.384 218.155 241.774 217.577 242.265 217.09C242.756 216.604 243.338 216.219 243.978 215.957C260.094 209.384 268.58 217.197 272.215 222.438C277.45 230.003 278.865 240.598 279.13 248.148C279.26 251.721 279.414 263.662 276.133 267.211C275.641 267.743 275.043 268.167 274.378 268.457C273.714 268.746 272.996 268.895 272.271 268.894H272.274ZM162.157 363.725C159.417 363.725 157.105 361.599 156.913 358.821C155.023 331.183 131.829 309.533 104.12 309.533C102.755 309.487 101.461 308.913 100.512 307.931C99.5626 306.949 99.0318 305.637 99.0318 304.271C99.0318 302.905 99.5626 301.593 100.512 300.611C101.461 299.63 102.755 299.055 104.12 299.009C137.345 299.009 165.145 324.964 167.419 358.097C167.466 358.787 167.377 359.48 167.157 360.136C166.936 360.792 166.589 361.398 166.134 361.919C165.679 362.44 165.125 362.866 164.505 363.173C163.885 363.48 163.21 363.662 162.52 363.707C162.402 363.716 162.284 363.725 162.157 363.725ZM151.249 398.473H5.26182C3.86705 398.472 2.52959 397.918 1.54306 396.932C0.556529 395.946 0.0015643 394.609 0 393.214V362.446C0 327.468 28.4558 299.009 63.4342 299.009C64.8297 299.009 66.1681 299.564 67.1548 300.551C68.1416 301.537 68.696 302.876 68.696 304.271C68.696 305.667 68.1416 307.005 67.1548 307.992C66.1681 308.979 64.8297 309.533 63.4342 309.533C34.2579 309.533 10.5207 333.273 10.5207 362.446L10.5236 387.95H151.252C152.648 387.95 153.986 388.504 154.973 389.491C155.96 390.477 156.514 391.816 156.514 393.211C156.514 394.607 155.96 395.945 154.973 396.932C153.986 397.919 152.645 398.473 151.249 398.473Z" fill="url(#paint5_linear_1159_1178)"/>
<path fill-rule="evenodd" clip-rule="evenodd" d="M63.4337 309.533C62.0382 309.533 60.6998 308.978 59.713 307.991C58.7262 307.005 58.1719 305.666 58.1719 304.271V284.118C58.1719 282.723 58.7262 281.384 59.713 280.397C60.6998 279.411 62.0382 278.856 63.4337 278.856C64.8292 278.856 66.1676 279.411 67.1544 280.397C68.1411 281.384 68.6955 282.723 68.6955 284.118V304.271C68.6955 307.176 66.3392 309.533 63.4337 309.533ZM104.123 309.533C103.432 309.533 102.747 309.397 102.108 309.133C101.469 308.869 100.889 308.481 100.4 307.992C99.9113 307.504 99.5234 306.924 99.2588 306.285C98.9942 305.646 98.858 304.962 98.858 304.271V283.383C98.858 281.987 99.4123 280.649 100.399 279.662C101.386 278.675 102.724 278.121 104.12 278.121C105.515 278.121 106.854 278.675 107.84 279.662C108.827 280.649 109.382 281.987 109.382 283.383V304.271C109.382 307.176 107.025 309.533 104.123 309.533Z" fill="url(#paint6_linear_1159_1178)"/>
<path fill-rule="evenodd" clip-rule="evenodd" d="M83.7788 329.143C69.3634 329.143 57.641 317.984 57.641 304.272C57.641 302.876 58.1953 301.538 59.1821 300.551C60.1689 299.564 61.5073 299.01 62.9028 299.01C64.2983 299.01 65.6367 299.564 66.6235 300.551C67.6102 301.538 68.1646 302.876 68.1646 304.272C68.1676 312.185 75.1715 318.622 83.7759 318.622C92.392 318.622 99.396 312.185 99.396 304.272C99.396 302.876 99.9505 301.537 100.938 300.55C101.925 299.563 103.263 299.008 104.659 299.008C106.055 299.008 107.394 299.563 108.381 300.55C109.368 301.537 109.923 302.876 109.923 304.272C109.923 317.984 98.1912 329.143 83.7788 329.143ZM40.2403 398.473C38.8451 398.473 37.5071 397.918 36.5205 396.931C35.5339 395.945 34.9793 394.607 34.9785 393.212V362.444C34.9785 361.048 35.5329 359.71 36.5197 358.723C37.5064 357.736 38.8448 357.182 40.2403 357.182C41.6359 357.182 42.9742 357.736 43.961 358.723C44.9478 359.71 45.5022 361.048 45.5022 362.444V393.212C45.5022 396.117 43.1429 398.473 40.2403 398.473ZM127.326 398.473C126.635 398.474 125.95 398.338 125.312 398.074C124.673 397.809 124.092 397.422 123.604 396.933C123.115 396.445 122.727 395.865 122.462 395.226C122.198 394.587 122.061 393.903 122.061 393.212V362.444C122.061 361.048 122.616 359.71 123.603 358.723C124.589 357.736 125.928 357.182 127.323 357.182C128.719 357.182 130.057 357.736 131.044 358.723C132.031 359.71 132.585 361.048 132.585 362.444V393.212C132.585 396.117 130.229 398.473 127.326 398.473ZM83.7138 297.48C57.4431 297.48 36.2836 264.288 36.2836 236.804C36.2836 235.408 36.838 234.07 37.8248 233.083C38.8116 232.096 40.1499 231.542 41.5455 231.542C42.941 231.542 44.2793 232.096 45.2661 233.083C46.2529 234.07 46.8073 235.408 46.8073 236.804C46.8073 258.911 64.1813 286.957 83.7138 286.957C92.5485 286.957 101.938 280.404 109.474 268.983C116.59 258.191 121.019 244.711 121.019 233.801C121.019 232.405 121.573 231.067 122.56 230.08C123.547 229.093 124.885 228.539 126.281 228.539C127.676 228.539 129.015 229.093 130.002 230.08C130.988 231.067 131.543 232.405 131.543 233.801C131.543 259.443 111.458 297.48 83.7138 297.48Z" fill="url(#paint7_linear_1159_1178)"/>
<path fill-rule="evenodd" clip-rule="evenodd" d="M41.7459 242.067H41.5186C40.123 242.063 38.7862 241.505 37.8022 240.515C36.8182 239.526 36.2676 238.186 36.2715 236.79C36.2754 235.395 36.8335 234.058 37.8231 233.074C38.8126 232.09 40.1526 231.539 41.5481 231.543H41.7371C67.9192 231.543 87.9891 207.207 88.1899 206.962C88.7204 206.304 89.4017 205.785 90.1759 205.448C90.9502 205.111 91.7944 204.966 92.6368 205.025C93.4809 205.081 94.2988 205.341 95.0211 205.782C95.7434 206.222 96.3486 206.831 96.7854 207.555C96.9035 207.75 109.355 227.917 126.475 228.543C127.166 228.568 127.844 228.729 128.473 229.017C129.101 229.305 129.666 229.713 130.136 230.219C130.606 230.726 130.972 231.32 131.212 231.967C131.452 232.615 131.563 233.304 131.536 233.994C131.483 235.387 130.881 236.702 129.86 237.651C128.839 238.6 127.484 239.106 126.092 239.058C109.878 238.468 97.689 226.095 91.7509 218.601C83.5511 226.798 65.1141 242.067 41.7459 242.067Z" fill="url(#paint8_linear_1159_1178)"/>
<path fill-rule="evenodd" clip-rule="evenodd" d="M41.5457 242.066C40.6547 242.067 39.7781 241.842 38.9982 241.411C38.2182 240.98 37.5606 240.358 37.0871 239.603C29.7996 228.014 37.7455 201.882 52.8371 187.827C67.2997 174.35 85.6127 173.958 103.09 186.749C104.184 187.586 104.906 188.818 105.102 190.181C105.298 191.545 104.952 192.931 104.138 194.042C103.324 195.153 102.107 195.9 100.748 196.125C99.3891 196.349 97.9964 196.032 96.8687 195.241C83.286 185.296 70.8873 185.394 60.0094 195.528C46.8253 207.811 42.5881 228.587 45.9955 234.005C46.4975 234.8 46.7769 235.716 46.8044 236.656C46.832 237.596 46.6067 238.527 46.1522 239.35C45.6976 240.174 45.0304 240.86 44.2202 241.338C43.4099 241.815 42.4863 242.067 41.5457 242.066Z" fill="url(#paint9_linear_1159_1178)"/>
<path fill-rule="evenodd" clip-rule="evenodd" d="M126.275 239.065C125.342 239.063 124.426 238.812 123.621 238.339C122.816 237.866 122.152 237.188 121.695 236.374C121.239 235.56 121.006 234.639 121.023 233.706C121.039 232.773 121.303 231.861 121.787 231.063C123.122 226.799 124.037 204.533 115.979 196.693C114.804 195.55 111.237 192.087 101.965 195.869C101.325 196.134 100.638 196.271 99.9443 196.27C99.2509 196.269 98.5645 196.131 97.9246 195.864C97.2847 195.597 96.7039 195.206 96.2156 194.713C95.7272 194.221 95.341 193.637 95.0791 192.995C94.8173 192.353 94.6849 191.666 94.6896 190.972C94.6943 190.279 94.836 189.593 95.1066 188.955C95.3771 188.316 95.7712 187.738 96.2662 187.252C96.7612 186.766 97.3472 186.383 97.9907 186.125C114.098 179.552 122.593 187.365 126.219 192.606C131.463 200.171 132.878 210.766 133.143 218.316C133.273 221.889 133.427 233.827 130.137 237.379C129.104 238.498 127.69 239.065 126.275 239.065ZM297.385 363.725C297.267 363.725 297.146 363.716 297.019 363.707C296.329 363.66 295.656 363.478 295.037 363.17C294.418 362.863 293.866 362.437 293.412 361.915C292.958 361.394 292.611 360.789 292.392 360.134C292.172 359.478 292.084 358.786 292.132 358.097C294.405 324.967 322.203 299.012 355.418 299.012C356.792 299.045 358.098 299.613 359.058 300.596C360.018 301.579 360.556 302.898 360.556 304.272C360.556 305.646 360.018 306.966 359.058 307.949C358.098 308.932 356.792 309.5 355.418 309.533C327.713 309.533 304.528 331.182 302.626 358.82C302.537 360.15 301.946 361.396 300.973 362.307C300 363.217 298.717 363.724 297.385 363.725ZM454.286 398.473H308.292C306.919 398.44 305.612 397.872 304.652 396.889C303.693 395.906 303.155 394.586 303.155 393.213C303.155 391.839 303.693 390.519 304.652 389.536C305.612 388.553 306.919 387.985 308.292 387.952H449.027V362.446C449.027 333.27 425.295 309.533 396.119 309.533C395.428 309.533 394.743 309.398 394.105 309.134C393.466 308.87 392.886 308.482 392.397 307.993C391.908 307.505 391.521 306.924 391.256 306.285C390.992 305.647 390.857 304.962 390.857 304.271C390.857 303.58 390.992 302.896 391.256 302.257C391.52 301.619 391.907 301.038 392.396 300.55C392.884 300.061 393.464 299.673 394.103 299.409C394.741 299.145 395.425 299.009 396.116 299.009C431.098 299.009 459.55 327.468 459.55 362.446V393.214C459.55 396.117 457.191 398.476 454.286 398.473Z" fill="url(#paint10_linear_1159_1178)"/>
<path fill-rule="evenodd" clip-rule="evenodd" d="M355.418 309.532C354.023 309.532 352.684 308.978 351.697 307.991C350.711 307.004 350.156 305.666 350.156 304.27V284.118C350.156 282.722 350.711 281.384 351.697 280.397C352.684 279.41 354.023 278.856 355.418 278.856C356.814 278.856 358.152 279.41 359.139 280.397C360.126 281.384 360.68 282.722 360.68 284.118V304.27C360.68 307.176 358.324 309.532 355.418 309.532ZM396.116 309.532C395.425 309.533 394.74 309.398 394.101 309.134C393.461 308.87 392.881 308.482 392.392 307.994C391.903 307.505 391.515 306.924 391.25 306.285C390.986 305.646 390.85 304.962 390.851 304.27V283.382C390.851 281.988 391.405 280.651 392.391 279.665C393.377 278.679 394.714 278.125 396.109 278.125C397.503 278.125 398.84 278.679 399.826 279.665C400.812 280.651 401.366 281.988 401.366 283.382V304.27C401.367 304.961 401.231 305.645 400.968 306.283C400.704 306.921 400.318 307.501 399.83 307.989C399.342 308.478 398.763 308.866 398.125 309.131C397.487 309.395 396.803 309.532 396.113 309.532H396.116Z" fill="url(#paint11_linear_1159_1178)"/>
<path fill-rule="evenodd" clip-rule="evenodd" d="M375.763 329.143C361.348 329.143 349.625 317.984 349.625 304.272C349.625 302.876 350.18 301.538 351.166 300.551C352.153 299.564 353.492 299.01 354.887 299.01C356.283 299.01 357.621 299.564 358.608 300.551C359.595 301.538 360.149 302.876 360.149 304.272C360.149 312.185 367.156 318.622 375.763 318.622C384.376 318.622 391.383 312.185 391.383 304.272C391.383 302.876 391.938 301.538 392.924 300.551C393.911 299.564 395.25 299.01 396.645 299.01C398.041 299.01 399.379 299.564 400.366 300.551C401.353 301.538 401.907 302.876 401.907 304.272C401.907 317.984 390.179 329.143 375.763 329.143ZM332.225 398.473C330.829 398.473 329.491 397.919 328.504 396.932C327.517 395.946 326.963 394.607 326.963 393.212V362.444C326.995 361.07 327.564 359.764 328.547 358.804C329.53 357.844 330.849 357.307 332.223 357.307C333.597 357.307 334.917 357.844 335.9 358.804C336.883 359.764 337.451 361.07 337.484 362.444L337.487 393.212C337.487 396.117 335.127 398.473 332.225 398.473ZM419.311 398.473C418.619 398.474 417.935 398.338 417.296 398.074C416.657 397.809 416.077 397.422 415.588 396.933C415.099 396.445 414.711 395.865 414.447 395.226C414.182 394.587 414.046 393.903 414.046 393.212L414.049 362.444C414.081 361.07 414.65 359.764 415.633 358.804C416.616 357.844 417.935 357.307 419.309 357.307C420.683 357.307 422.002 357.844 422.985 358.804C423.968 359.764 424.537 361.07 424.569 362.444V393.212C424.569 396.117 422.213 398.473 419.311 398.473ZM375.698 297.48C349.427 297.48 328.268 264.288 328.268 236.804C328.268 235.408 328.822 234.07 329.809 233.083C330.796 232.096 332.134 231.542 333.53 231.542C334.925 231.542 336.264 232.096 337.25 233.083C338.237 234.07 338.792 235.408 338.792 236.804C338.792 258.911 356.166 286.957 375.698 286.957C384.533 286.957 393.92 280.404 401.458 268.983C408.583 258.191 413.003 244.711 413.003 233.801C413.003 232.405 413.558 231.067 414.545 230.08C415.531 229.093 416.87 228.539 418.265 228.539C419.661 228.539 420.999 229.093 421.986 230.08C422.973 231.067 423.527 232.405 423.527 233.801C423.527 259.443 403.439 297.48 375.698 297.48Z" fill="url(#paint12_linear_1159_1178)"/>
<path fill-rule="evenodd" clip-rule="evenodd" d="M333.733 242.069H333.503C332.107 242.065 330.771 241.506 329.787 240.517C328.803 239.527 328.252 238.187 328.256 236.792C328.26 235.396 328.818 234.06 329.807 233.076C330.797 232.092 332.137 231.541 333.532 231.545H333.733C360.025 231.545 379.974 207.214 380.174 206.969C380.706 206.312 381.388 205.792 382.163 205.454C382.938 205.117 383.783 204.97 384.626 205.028C385.47 205.086 386.287 205.345 387.008 205.786C387.73 206.226 388.335 206.833 388.773 207.557C388.891 207.752 401.352 227.919 418.46 228.545C419.15 228.57 419.829 228.73 420.457 229.018C421.086 229.305 421.651 229.714 422.121 230.22C422.591 230.727 422.957 231.321 423.197 231.969C423.437 232.616 423.547 233.305 423.521 233.996C423.468 235.388 422.865 236.703 421.844 237.652C420.824 238.601 419.469 239.108 418.076 239.06C401.865 238.469 389.676 226.097 383.747 218.603C375.538 226.8 357.101 242.069 333.733 242.069Z" fill="url(#paint13_linear_1159_1178)"/>
<path fill-rule="evenodd" clip-rule="evenodd" d="M333.53 242.066C332.639 242.067 331.762 241.842 330.983 241.411C330.203 240.98 329.545 240.358 329.071 239.603C321.784 228.014 329.73 201.882 344.821 187.827C359.281 174.35 377.597 173.958 395.072 186.749C396.155 187.589 396.868 188.819 397.058 190.177C397.249 191.535 396.902 192.913 396.092 194.019C395.282 195.126 394.073 195.872 392.721 196.1C391.369 196.328 389.981 196.02 388.853 195.241C375.27 185.296 362.869 185.394 351.991 195.528C338.81 207.808 334.581 228.587 337.98 234.005C338.349 234.589 338.599 235.241 338.716 235.923C338.833 236.604 338.814 237.302 338.66 237.976C338.507 238.65 338.221 239.287 337.821 239.851C337.42 240.414 336.912 240.893 336.326 241.26C335.49 241.788 334.52 242.068 333.53 242.066Z" fill="url(#paint14_linear_1159_1178)"/>
<path fill-rule="evenodd" clip-rule="evenodd" d="M418.267 239.064C417.333 239.063 416.416 238.814 415.61 238.342C414.804 237.87 414.138 237.192 413.681 236.378C413.223 235.563 412.99 234.642 413.006 233.708C413.022 232.774 413.285 231.861 413.77 231.062C415.105 226.799 416.017 204.532 407.959 196.692C406.793 195.553 403.22 192.086 393.948 195.868C392.667 196.341 391.253 196.297 390.003 195.747C388.754 195.196 387.767 194.182 387.252 192.917C386.736 191.653 386.732 190.238 387.24 188.971C387.747 187.703 388.728 186.683 389.974 186.124C406.078 179.554 414.573 187.365 418.202 192.606C423.446 200.171 424.861 210.765 425.127 218.315C425.254 221.888 425.41 233.826 422.121 237.378C421.087 238.498 419.67 239.064 418.267 239.064ZM215.634 183.437H243.916V169.329C243.914 168.17 244.295 167.044 245 166.124C245.705 165.205 246.694 164.544 247.813 164.244C259.608 161.077 270.361 154.862 278.994 146.224C279.813 145.405 280.879 144.88 282.027 144.729C283.175 144.579 284.341 144.811 285.343 145.391L297.576 152.451L311.717 127.961L299.492 120.904C298.492 120.324 297.709 119.431 297.267 118.363C296.824 117.295 296.745 116.11 297.042 114.992C300.193 103.19 300.193 90.7679 297.042 78.9657C296.433 76.6626 297.437 74.2413 299.492 73.0513L311.717 65.9942L297.573 41.504L285.343 48.57C283.276 49.7629 280.674 49.4174 278.986 47.7343C270.355 39.0993 259.606 32.8856 247.816 29.7166C246.697 29.4168 245.708 28.756 245.002 27.8366C244.297 26.9172 243.915 25.7907 243.916 24.6319V10.5207H215.634V24.6349C215.634 27.0148 214.034 29.1024 211.73 29.7166C199.94 32.8887 189.19 39.1019 180.555 47.7343C179.737 48.553 178.671 49.0787 177.523 49.2298C176.375 49.3808 175.209 49.1489 174.207 48.57L161.965 41.504L147.833 65.9942L160.048 73.0513C161.051 73.6303 161.834 74.5235 162.278 75.5926C162.721 76.6617 162.8 77.8472 162.502 78.9657C159.356 90.7686 159.356 103.189 162.502 114.992C163.116 117.29 162.109 119.717 160.045 120.907L147.833 127.964L161.965 152.451L174.207 145.385C175.209 144.806 176.375 144.573 177.523 144.725C178.671 144.876 179.737 145.402 180.555 146.221C189.187 154.857 199.938 161.072 211.73 164.241C214.034 164.856 215.631 166.943 215.631 169.326L215.634 183.437ZM245.944 193.958H213.605C211.353 193.957 209.193 193.061 207.6 191.469C206.007 189.877 205.111 187.718 205.107 185.466V173.256C194.352 169.769 184.457 164.047 176.07 156.464L165.472 162.579C164.508 163.139 163.443 163.502 162.337 163.648C161.232 163.793 160.109 163.718 159.033 163.426C157.953 163.142 156.941 162.646 156.054 161.967C155.168 161.287 154.426 160.439 153.871 159.47L137.702 131.466C137.143 130.5 136.78 129.434 136.633 128.328C136.487 127.222 136.56 126.098 136.848 125.02C137.136 123.943 137.634 122.932 138.313 122.047C138.992 121.162 139.839 120.419 140.805 119.861L151.385 113.755C149.037 102.693 149.037 91.2618 151.385 80.2L140.808 74.0936C139.841 73.5367 138.993 72.7945 138.314 71.9094C137.634 71.0244 137.136 70.014 136.847 68.936C136.559 67.858 136.486 66.7337 136.632 65.6275C136.779 64.5213 137.142 63.4548 137.702 62.4893L153.871 34.4853C154.426 33.5169 155.168 32.6686 156.055 31.9898C156.941 31.3111 157.953 30.8153 159.033 30.5316C160.108 30.2397 161.231 30.1643 162.336 30.3098C163.441 30.4552 164.506 30.8187 165.47 31.379L176.07 37.4912C184.458 29.9108 194.353 24.1892 205.107 20.7018V8.49214C205.111 6.23982 206.007 4.08074 207.6 2.48866C209.193 0.89658 211.353 0.00156194 213.605 0H245.944C248.196 0.00234347 250.355 0.897707 251.947 2.4897C253.54 4.08169 254.436 6.24034 254.439 8.49214V20.7018C265.194 24.1894 275.091 29.9109 283.48 37.4912L294.077 31.379C295.04 30.8184 296.105 30.4547 297.211 30.3093C298.316 30.1638 299.439 30.2393 300.514 30.5316C302.711 31.1221 304.545 32.5247 305.678 34.4883L321.848 62.4893C322.979 64.4529 323.28 66.7413 322.686 68.9352C322.402 70.0144 321.906 71.0263 321.226 71.9119C320.547 72.7975 319.698 73.5392 318.73 74.0936L308.162 80.2C310.514 91.2614 310.514 102.694 308.162 113.755L318.733 119.864C319.701 120.419 320.549 121.161 321.228 122.046C321.907 122.932 322.402 123.944 322.686 125.023C322.981 126.099 323.058 127.223 322.914 128.329C322.769 129.435 322.406 130.501 321.845 131.466L305.678 159.473C305.122 160.44 304.379 161.288 303.492 161.967C302.606 162.645 301.594 163.142 300.514 163.426C299.438 163.719 298.316 163.794 297.211 163.649C296.106 163.503 295.04 163.14 294.077 162.579L283.488 156.467C275.097 164.049 265.197 169.771 254.439 173.259V185.466C254.436 187.718 253.54 189.876 251.947 191.468C250.355 193.06 248.196 193.956 245.944 193.958Z" fill="url(#paint15_linear_1159_1178)"/>
<path fill-rule="evenodd" clip-rule="evenodd" d="M229.775 61.4768C210.198 61.4768 194.265 77.404 194.265 96.9778C194.265 116.555 210.198 132.482 229.775 132.482C249.351 132.482 265.27 116.555 265.27 96.9778C265.27 77.401 249.351 61.4768 229.775 61.4768ZM229.775 143.003C204.399 143.003 183.75 122.357 183.75 96.9778C183.75 71.5988 204.396 50.9531 229.775 50.9531C255.151 50.9531 275.796 71.6018 275.796 96.9778C275.796 122.357 255.151 143.003 229.775 143.003Z" fill="url(#paint16_linear_1159_1178)"/>
<defs>
<linearGradient id="paint0_linear_1159_1178" x1="269.202" y1="424.713" x2="228.425" y2="312.705" gradientUnits="userSpaceOnUse">
<stop offset="0.0001" stop-color="#BE42B1"/>
<stop offset="1" stop-color="#3B4BAA"/>
</linearGradient>
<linearGradient id="paint1_linear_1159_1178" x1="241.824" y1="338.229" x2="228.623" y2="303.136" gradientUnits="userSpaceOnUse">
<stop offset="0.0001" stop-color="#BE42B1"/>
<stop offset="1" stop-color="#3B4BAA"/>
</linearGradient>
<linearGradient id="paint2_linear_1159_1178" x1="252.749" y1="422.173" x2="144.724" y2="320.886" gradientUnits="userSpaceOnUse">
<stop offset="0.0001" stop-color="#BE42B1"/>
<stop offset="1" stop-color="#3B4BAA"/>
</linearGradient>
<linearGradient id="paint3_linear_1159_1178" x1="252.324" y1="270.56" x2="241.656" y2="225.843" gradientUnits="userSpaceOnUse">
<stop offset="0.0001" stop-color="#BE42B1"/>
<stop offset="1" stop-color="#3B4BAA"/>
</linearGradient>
<linearGradient id="paint4_linear_1159_1178" x1="232.47" y1="269.562" x2="197.356" y2="206.766" gradientUnits="userSpaceOnUse">
<stop offset="0.0001" stop-color="#BE42B1"/>
<stop offset="1" stop-color="#3B4BAA"/>
</linearGradient>
<linearGradient id="paint5_linear_1159_1178" x1="205.293" y1="391.784" x2="122.984" y2="189.274" gradientUnits="userSpaceOnUse">
<stop offset="0.0001" stop-color="#BE42B1"/>
<stop offset="1" stop-color="#3B4BAA"/>
</linearGradient>
<linearGradient id="paint6_linear_1159_1178" x1="95.8282" y1="308.397" x2="82.627" y2="273.304" gradientUnits="userSpaceOnUse">
<stop offset="0.0001" stop-color="#BE42B1"/>
<stop offset="1" stop-color="#3B4BAA"/>
</linearGradient>
<linearGradient id="paint7_linear_1159_1178" x1="106.752" y1="392.33" x2="-1.37378" y2="291.062" gradientUnits="userSpaceOnUse">
<stop offset="0.0001" stop-color="#BE42B1"/>
<stop offset="1" stop-color="#3B4BAA"/>
</linearGradient>
<linearGradient id="paint8_linear_1159_1178" x1="106.326" y1="240.727" x2="95.6604" y2="196.015" gradientUnits="userSpaceOnUse">
<stop offset="0.0001" stop-color="#BE42B1"/>
<stop offset="1" stop-color="#3B4BAA"/>
</linearGradient>
<linearGradient id="paint9_linear_1159_1178" x1="86.4157" y1="239.729" x2="51.2802" y2="176.969" gradientUnits="userSpaceOnUse">
<stop offset="0.0001" stop-color="#BE42B1"/>
<stop offset="1" stop-color="#3B4BAA"/>
</linearGradient>
<linearGradient id="paint10_linear_1159_1178" x1="362.984" y1="390.705" x2="275.445" y2="148.311" gradientUnits="userSpaceOnUse">
<stop offset="0.0001" stop-color="#BE42B1"/>
<stop offset="1" stop-color="#3B4BAA"/>
</linearGradient>
<linearGradient id="paint11_linear_1159_1178" x1="387.813" y1="308.397" x2="374.615" y2="273.307" gradientUnits="userSpaceOnUse">
<stop offset="0.0001" stop-color="#BE42B1"/>
<stop offset="1" stop-color="#3B4BAA"/>
</linearGradient>
<linearGradient id="paint12_linear_1159_1178" x1="398.736" y1="392.33" x2="290.611" y2="291.062" gradientUnits="userSpaceOnUse">
<stop offset="0.0001" stop-color="#BE42B1"/>
<stop offset="1" stop-color="#3B4BAA"/>
</linearGradient>
<linearGradient id="paint13_linear_1159_1178" x1="398.31" y1="240.729" x2="387.646" y2="196.019" gradientUnits="userSpaceOnUse">
<stop offset="0.0001" stop-color="#BE42B1"/>
<stop offset="1" stop-color="#3B4BAA"/>
</linearGradient>
<linearGradient id="paint14_linear_1159_1178" x1="378.378" y1="239.729" x2="343.234" y2="176.982" gradientUnits="userSpaceOnUse">
<stop offset="0.0001" stop-color="#BE42B1"/>
<stop offset="1" stop-color="#3B4BAA"/>
</linearGradient>
<linearGradient id="paint15_linear_1159_1178" x1="348.791" y1="230.421" x2="225.686" y2="-11.9209" gradientUnits="userSpaceOnUse">
<stop offset="0.0001" stop-color="#BE42B1"/>
<stop offset="1" stop-color="#3B4BAA"/>
</linearGradient>
<linearGradient id="paint16_linear_1159_1178" x1="251.435" y1="139.675" x2="199.118" y2="54.3705" gradientUnits="userSpaceOnUse">
<stop offset="0.0001" stop-color="#BE42B1"/>
<stop offset="1" stop-color="#3B4BAA"/>
</linearGradient>
</defs>
</svg>
