<svg width="512" height="384" viewBox="0 0 512 384" fill="none" xmlns="http://www.w3.org/2000/svg">
<path d="M495.6 132.28L464 100.688V40C463.987 29.3952 459.769 19.2285 452.27 11.7298C444.772 4.23106 434.605 0.0127029 424 0H88.0002C77.6787 0.0316111 67.7689 4.05182 60.3426 11.2202C52.9163 18.3885 48.5485 28.15 48.1522 38.464V38.608L48.0082 100.688L16.4002 132.28C11.1853 137.469 7.05083 143.641 4.23586 150.438C1.42089 157.235 -0.018751 164.523 0.000184389 171.88V178.096C-0.00202284 182.681 0.559524 187.248 1.67218 191.696L28.3602 298.4C30.5815 307.331 30.5815 316.669 28.3602 325.6L16.2402 374.064C15.9461 375.243 15.9245 376.474 16.177 377.662C16.4295 378.851 16.9495 379.966 17.6974 380.924C18.4454 381.882 19.4017 382.657 20.4938 383.19C21.5859 383.722 22.785 384 24.0002 384H160C161.115 384.005 162.218 383.776 163.24 383.329C164.261 382.883 165.178 382.227 165.931 381.406C166.684 380.584 167.257 379.614 167.614 378.557C167.97 377.501 168.102 376.382 168 375.272L160 287.696C165.232 279.406 168.006 269.803 168 260V248C167.963 239.334 165.12 230.914 159.896 224H352.104C346.88 230.914 344.037 239.334 344 248V260C343.995 269.803 346.769 279.406 352 287.696L344 375.272C343.899 376.382 344.03 377.501 344.387 378.557C344.743 379.614 345.316 380.584 346.07 381.406C346.823 382.227 347.739 382.883 348.761 383.329C349.782 383.776 350.885 384.005 352 384H488C489.215 384 490.415 383.722 491.507 383.19C492.599 382.657 493.555 381.882 494.303 380.924C495.051 379.966 495.571 378.851 495.823 377.662C496.076 376.474 496.054 375.243 495.76 374.064L483.64 325.6C481.419 316.669 481.419 307.331 483.64 298.4L510.328 191.656C511.441 187.208 512.002 182.641 512 178.056V171.84C512.014 164.49 510.572 157.21 507.757 150.42C504.942 143.63 500.81 137.465 495.6 132.28ZM88.0002 16H424C430.365 16 436.47 18.5286 440.971 23.0294C445.472 27.5303 448 33.6348 448 40V184C447.995 187.47 447.239 190.898 445.784 194.048L441.168 166.4C440.113 160.079 437.556 154.104 433.712 148.976L397.12 100.176C394.747 96.9262 391.751 94.18 388.308 92.0968C384.865 90.0135 381.043 88.6346 377.062 88.04C373.082 87.4454 369.024 87.6471 365.122 88.6332C361.22 89.6193 357.553 91.3702 354.334 93.7845C351.114 96.1987 348.406 99.2282 346.366 102.697C344.326 106.166 342.995 110.006 342.451 113.993C341.906 117.981 342.159 122.036 343.194 125.925C344.229 129.814 346.026 133.459 348.48 136.648L363.824 157.104C366.842 161.143 368.852 165.844 369.688 170.816L372.168 185.648C373.466 193.446 371.772 201.446 367.424 208.048H144.576C140.229 201.446 138.535 193.446 139.832 185.648L142.312 170.816C143.148 165.844 145.158 161.143 148.176 157.104L163.52 136.64C165.975 133.451 167.772 129.806 168.807 125.917C169.842 122.028 170.094 117.972 169.55 113.985C169.005 109.998 167.675 106.158 165.635 102.689C163.595 99.2202 160.886 96.1907 157.667 93.7765C154.447 91.3622 150.78 89.6113 146.878 88.6252C142.977 87.6391 138.918 87.4375 134.938 88.032C130.958 88.6266 127.135 90.0055 123.692 92.0888C120.249 94.172 117.254 96.9182 114.88 100.168L78.2882 148.968C74.4458 154.1 71.8891 160.077 70.8322 166.4L66.2162 194.064C64.759 190.909 64.003 187.475 64.0002 184V55.472C66.4978 57.689 68.5008 60.4068 69.8791 63.4487C71.2574 66.4906 71.9801 69.7885 72.0002 73.128V112C72.0002 114.122 72.843 116.157 74.3433 117.657C75.8436 119.157 77.8785 120 80.0002 120C82.1219 120 84.1567 119.157 85.657 117.657C87.1573 116.157 88.0002 114.122 88.0002 112V73.128C88.005 66.5407 86.3809 60.0544 83.2725 54.2467C80.1641 48.4389 75.6679 43.4898 70.1842 39.84L64.4082 36C65.3514 30.4199 68.2361 25.3526 72.5529 21.693C76.8698 18.0334 82.3409 16.0171 88.0002 16ZM34.2482 368L43.8482 329.464C46.7042 317.996 46.7042 306.004 43.8482 294.536L17.1922 187.8C16.4009 184.626 16.0006 181.367 16.0002 178.096V171.88C15.9874 166.625 17.0158 161.42 19.026 156.564C21.0363 151.709 23.9885 147.3 27.7122 143.592L48.0002 123.312V184C48.0141 191.019 49.8682 197.911 53.3776 203.989C56.8869 210.067 61.9288 215.119 68.0002 218.64C69.2157 219.342 70.5945 219.711 71.9981 219.712C73.4017 219.712 74.7807 219.343 75.9966 218.642C77.2125 217.941 78.2226 216.932 78.9253 215.717C79.628 214.502 79.9987 213.124 80.0002 211.72V208.664L86.6082 169.008C87.2471 165.217 88.7801 161.633 91.0802 158.552L127.68 109.752C129.027 107.97 130.767 106.523 132.766 105.525C134.764 104.527 136.966 104.005 139.2 104C141.876 103.999 144.499 104.743 146.775 106.15C149.051 107.556 150.891 109.569 152.087 111.962C153.283 114.355 153.789 117.034 153.547 119.699C153.306 122.364 152.327 124.909 150.72 127.048L135.376 147.504C130.82 153.59 127.786 160.678 126.528 168.176L124.056 183.016C122.607 191.596 123.552 200.41 126.789 208.488C130.025 216.566 135.427 223.594 142.4 228.8C145.373 231.043 147.787 233.943 149.452 237.274C151.118 240.605 151.99 244.276 152 248V260C152.015 266.641 150.187 273.156 146.72 278.819C143.252 284.483 138.281 289.073 132.36 292.08C131.425 292.558 130.592 293.216 129.911 294.015C129.23 294.815 128.712 295.741 128.389 296.74C128.065 297.74 127.942 298.793 128.025 299.841C128.109 300.888 128.398 301.908 128.876 302.844C129.354 303.78 130.012 304.612 130.811 305.293C131.611 305.975 132.537 306.492 133.537 306.815C134.536 307.139 135.59 307.262 136.637 307.179C137.684 307.095 138.705 306.806 139.64 306.328C141.604 305.31 143.501 304.169 145.32 302.912L151.24 368H34.2482ZM496 178.096C496 181.367 495.599 184.626 494.808 187.8L468.12 294.536C465.264 306.004 465.264 317.996 468.12 329.464L477.752 368H360.8L366.72 302.912C368.539 304.169 370.437 305.31 372.4 306.328C373.336 306.806 374.356 307.095 375.404 307.179C376.451 307.262 377.504 307.139 378.504 306.815C379.503 306.492 380.429 305.975 381.229 305.293C382.029 304.612 382.686 303.78 383.164 302.844C383.642 301.908 383.931 300.888 384.015 299.841C384.098 298.793 383.975 297.74 383.651 296.74C383.328 295.741 382.811 294.815 382.129 294.015C381.448 293.216 380.616 292.558 379.68 292.08C373.751 289.079 368.772 284.491 365.298 278.827C361.823 273.163 359.989 266.645 360 260V248C360.011 244.276 360.883 240.605 362.548 237.274C364.214 233.943 366.627 231.043 369.6 228.8C376.573 223.594 381.975 216.566 385.211 208.488C388.448 200.41 389.394 191.596 387.944 183.016L385.472 168.176C384.214 160.678 381.18 153.59 376.624 147.504L361.28 127.048C359.673 124.909 358.694 122.364 358.453 119.699C358.212 117.034 358.717 114.355 359.914 111.962C361.11 109.569 362.949 107.556 365.225 106.15C367.502 104.743 370.125 103.999 372.8 104C375.035 104.006 377.237 104.529 379.236 105.529C381.234 106.528 382.975 107.976 384.32 109.76L420.92 158.56C423.222 161.637 424.755 165.219 425.392 169.008L432 208.664V211.72C432.002 213.124 432.372 214.502 433.075 215.717C433.778 216.932 434.788 217.941 436.004 218.642C437.22 219.343 438.599 219.712 440.002 219.712C441.406 219.711 442.785 219.342 444 218.64C450.072 215.119 455.113 210.067 458.623 203.989C462.132 197.911 463.986 191.019 464 184V123.312L484.28 143.592C488.006 147.299 490.961 151.707 492.973 156.563C494.984 161.418 496.013 166.624 496 171.88V178.096Z" fill="url(#paint0_linear_1159_1197)"/>
<path d="M335.999 154.536C337.574 154.541 339.115 154.076 340.423 153.2C342.191 152.026 343.419 150.199 343.839 148.12C344.259 146.041 343.836 143.879 342.663 142.112C337.349 134.1 335.098 124.441 336.324 114.905C337.549 105.369 342.168 96.5927 349.335 90.184C350.129 89.4864 350.777 88.6384 351.241 87.6891C351.706 86.7397 351.977 85.7077 352.04 84.6528C352.104 83.5979 351.957 82.5409 351.609 81.5429C351.262 80.5449 350.72 79.6257 350.015 78.8383C349.31 78.0509 348.456 77.411 347.502 76.9556C346.549 76.5001 345.514 76.2381 344.459 76.1847C343.403 76.1313 342.348 76.2876 341.353 76.6445C340.358 77.0014 339.444 77.5518 338.663 78.264C328.63 87.2381 322.165 99.526 320.452 112.878C318.739 126.23 321.892 139.752 329.335 150.968C330.066 152.066 331.057 152.966 332.219 153.589C333.382 154.211 334.681 154.537 335.999 154.536ZM175.999 120C176.011 127.867 173.692 135.561 169.335 142.112C168.162 143.879 167.739 146.041 168.16 148.12C168.58 150.199 169.808 152.026 171.575 153.2C173.342 154.374 175.502 154.798 177.582 154.379C179.661 153.961 181.489 152.734 182.663 150.968C190.106 139.752 193.26 126.23 191.547 112.878C189.834 99.526 183.369 87.2381 173.335 78.264C171.751 76.872 169.682 76.1617 167.576 76.2878C165.471 76.4139 163.501 77.3661 162.094 78.9373C160.688 80.5084 159.958 82.5715 160.065 84.6777C160.171 86.7839 161.105 88.7628 162.663 90.184C166.856 93.9384 170.21 98.534 172.508 103.671C174.806 108.809 175.995 114.372 175.999 120ZM247.999 120V144H223.999C221.878 144 219.843 144.843 218.343 146.343C216.842 147.843 215.999 149.878 215.999 152V184C215.999 186.122 216.842 188.157 218.343 189.657C219.843 191.157 221.878 192 223.999 192H287.999C290.121 192 292.156 191.157 293.656 189.657C295.157 188.157 295.999 186.122 295.999 184V120C295.999 117.878 295.157 115.843 293.656 114.343C292.156 112.843 290.121 112 287.999 112H255.999C253.878 112 251.843 112.843 250.343 114.343C248.842 115.843 247.999 117.878 247.999 120ZM231.999 160H247.999V176H231.999V160ZM279.999 176H263.999V160H279.999V176ZM263.999 128H279.999V144H263.999V128ZM215.999 80H247.999C250.121 80 252.156 79.1572 253.656 77.6569C255.157 76.1566 255.999 74.1217 255.999 72V40C255.999 37.8783 255.157 35.8434 253.656 34.3431C252.156 32.8429 250.121 32 247.999 32H215.999C213.878 32 211.843 32.8429 210.343 34.3431C208.842 35.8434 207.999 37.8783 207.999 40V72C207.999 74.1217 208.842 76.1566 210.343 77.6569C211.843 79.1572 213.878 80 215.999 80ZM223.999 48H239.999V64H223.999V48Z" fill="url(#paint1_linear_1159_1197)"/>
<defs>
<linearGradient id="paint0_linear_1159_1197" x1="376.492" y1="370.117" x2="190.577" y2="-34.0822" gradientUnits="userSpaceOnUse">
<stop offset="0.0001" stop-color="#BE42B1"/>
<stop offset="1" stop-color="#3B4BAA"/>
</linearGradient>
<linearGradient id="paint1_linear_1159_1197" x1="301.239" y1="186.215" x2="218.554" y2="24.426" gradientUnits="userSpaceOnUse">
<stop offset="0.0001" stop-color="#BE42B1"/>
<stop offset="1" stop-color="#3B4BAA"/>
</linearGradient>
</defs>
</svg>
