<svg width="459" height="424" viewBox="0 0 459 424" fill="none" xmlns="http://www.w3.org/2000/svg">
<path fill-rule="evenodd" clip-rule="evenodd" d="M392.719 85.3432H341.662C340.808 85.342 339.962 85.5093 339.173 85.8354C338.384 86.1615 337.666 86.6401 337.062 87.2438C336.458 87.8475 335.979 88.5645 335.652 89.3536C335.325 90.1427 335.157 90.9885 335.158 91.8426C335.157 92.6968 335.325 93.5429 335.651 94.3322C335.978 95.1216 336.457 95.8387 337.061 96.4426C337.666 97.0465 338.383 97.5253 339.172 97.8516C339.962 98.1778 340.808 98.3452 341.662 98.3439H392.719C393.573 98.3452 394.419 98.1778 395.209 97.8516C395.998 97.5253 396.716 97.0465 397.32 96.4426C397.924 95.8387 398.403 95.1216 398.73 94.3322C399.057 93.5429 399.224 92.6968 399.223 91.8426C399.224 90.9884 399.056 90.1426 398.73 89.3534C398.403 88.5642 397.924 87.8473 397.319 87.2435C396.715 86.6398 395.998 86.1612 395.209 85.8351C394.419 85.509 393.573 85.3419 392.719 85.3432ZM392.719 123.152H341.662C340.808 123.151 339.962 123.318 339.173 123.645C338.384 123.971 337.666 124.449 337.062 125.053C336.458 125.657 335.979 126.374 335.652 127.163C335.325 127.952 335.157 128.798 335.158 129.652C335.157 130.506 335.325 131.352 335.651 132.142C335.978 132.931 336.457 133.648 337.061 134.252C337.665 134.856 338.383 135.335 339.172 135.661C339.962 135.988 340.808 136.155 341.662 136.154H392.719C393.573 136.155 394.419 135.988 395.209 135.661C395.998 135.335 396.716 134.856 397.32 134.252C397.924 133.648 398.403 132.931 398.73 132.142C399.057 131.352 399.224 130.506 399.223 129.652C399.224 128.798 399.056 127.952 398.73 127.163C398.403 126.373 397.924 125.656 397.319 125.053C396.715 124.449 395.998 123.97 395.209 123.644C394.419 123.318 393.573 123.151 392.719 123.152ZM442.253 180.205H292.129L297.452 192.063C301.075 200.116 307.527 209.71 317.755 209.71H416.622C426.856 209.71 433.308 200.115 436.925 192.063L442.253 180.205ZM308.544 167.202V18.4904C308.545 17.0351 309.123 15.6397 310.152 14.6106C311.181 13.5815 312.576 13.0028 314.032 13.0017H381.539V38.8106C381.539 49.0086 389.832 57.302 400.024 57.302H425.832V167.2H308.544V167.202ZM394.543 38.8116C394.543 41.8396 397.006 44.3003 400.024 44.3003H416.64L394.543 22.1962V38.8116ZM255.147 274.928C255.147 260.727 243.596 249.173 229.392 249.173C215.2 249.173 203.649 260.727 203.649 274.928C203.649 289.119 215.199 300.672 229.392 300.672C243.596 300.673 255.147 289.119 255.147 274.928ZM241.832 311.622C233.769 314.359 225.028 314.359 216.965 311.622L175.572 375.929H283.226L241.832 311.622ZM291.212 388.931H167.584C154.139 388.931 142.847 398.311 139.888 410.869H318.896C315.955 398.311 304.657 388.931 291.212 388.931ZM141.035 209.71C151.269 209.71 157.721 200.115 161.338 192.063L166.667 180.205H16.5433L21.8661 192.063C25.489 200.116 31.9412 209.71 42.1802 209.71H141.035ZM32.958 167.202H150.246V57.303H124.438C114.245 57.303 105.953 49.0097 105.953 38.8116V13.0017H38.4457C36.9904 13.0028 35.5951 13.5815 34.5662 14.6106C33.5372 15.6397 32.9589 17.0351 32.958 18.4904V167.202ZM118.957 38.8116V22.1962L141.059 44.3003H124.438C121.42 44.3003 118.957 41.8396 118.957 38.8116ZM458.226 176.368L448.792 197.386C441.452 213.712 430.03 222.713 416.621 222.713H373.693V274.927C373.693 278.511 370.776 281.428 367.188 281.428H267.592C265.952 291.105 260.705 299.575 253.288 305.397L299.181 376.707C318.225 380.431 332.652 397.241 332.652 417.367C332.653 418.221 332.485 419.067 332.159 419.857C331.832 420.646 331.353 421.363 330.749 421.967C330.144 422.571 329.427 423.05 328.638 423.376C327.848 423.702 327.002 423.87 326.148 423.868H132.636C130.912 423.868 129.259 423.182 128.041 421.963C126.822 420.744 126.137 419.091 126.137 417.367C126.137 397.241 140.558 380.431 159.608 376.707L205.507 305.397C198.084 299.575 192.844 291.104 191.203 281.428H91.6005C89.8767 281.427 88.2239 280.742 87.0053 279.523C85.7867 278.304 85.1022 276.65 85.1022 274.927V222.713H42.1802C28.7648 222.713 17.3431 213.712 10.003 197.386L0.568925 176.368C-1.34595 172.09 1.81001 167.201 6.49174 167.201H19.9543V18.4904C19.9543 8.2944 28.2476 0 38.4457 0H112.457C114.175 0 115.827 0.687102 117.051 1.90259L161.344 46.2039C162.563 47.4231 163.249 49.0764 163.25 50.8006V167.201H176.706C181.395 167.201 184.556 172.089 182.64 176.368L173.206 197.386C165.866 213.712 154.444 222.713 141.035 222.713H98.107V268.425H191.204C194.31 250.138 210.242 236.169 229.392 236.169C248.554 236.169 264.493 250.138 267.592 268.425H360.689V222.713H317.755C304.351 222.713 292.929 213.712 285.595 197.386L276.156 176.368C274.231 172.096 277.409 167.201 282.085 167.201H295.541V18.4904C295.541 8.2944 303.835 0 314.033 0H388.044C389.765 0.00223843 391.415 0.686394 392.632 1.90259L436.931 46.2039C437.536 46.8069 438.015 47.5234 438.342 48.3122C438.669 49.1011 438.838 49.9467 438.837 50.8006V167.201H452.294C456.984 167.202 460.138 172.089 458.226 176.368ZM117.133 85.3432C117.987 85.342 118.833 85.5093 119.622 85.8354C120.412 86.1615 121.129 86.6401 121.733 87.2438C122.337 87.8475 122.816 88.5645 123.143 89.3536C123.47 90.1427 123.638 90.9885 123.637 91.8426C123.638 92.6968 123.47 93.5429 123.144 94.3322C122.817 95.1216 122.338 95.8387 121.734 96.4426C121.13 97.0465 120.412 97.5253 119.623 97.8516C118.833 98.1778 117.987 98.3452 117.133 98.3439H66.0711C65.2173 98.3445 64.3718 98.1767 63.5828 97.8501C62.7939 97.5236 62.0771 97.0447 61.4735 96.4408C60.8698 95.837 60.3912 95.12 60.0649 94.331C59.7385 93.542 59.571 92.6964 59.5718 91.8426C59.5711 90.9889 59.7388 90.1434 60.0652 89.3546C60.3916 88.5657 60.8703 87.849 61.4739 87.2453C62.0776 86.6417 62.7943 86.163 63.5832 85.8366C64.372 85.5102 65.2174 85.3426 66.0711 85.3432H117.133ZM123.638 129.652C123.639 130.506 123.471 131.352 123.145 132.142C122.818 132.931 122.339 133.648 121.735 134.252C121.131 134.856 120.413 135.335 119.624 135.661C118.834 135.988 117.988 136.155 117.134 136.154H66.0711C65.2173 136.155 64.3717 135.987 63.5828 135.66C62.7938 135.333 62.0771 134.854 61.4734 134.25C60.8698 133.646 60.3911 132.929 60.0648 132.14C59.7385 131.351 59.571 130.506 59.5718 129.652C59.5711 128.798 59.7388 127.953 60.0652 127.164C60.3916 126.375 60.8703 125.658 61.4739 125.055C62.0776 124.451 62.7943 123.972 63.5832 123.646C64.372 123.319 65.2174 123.152 66.0711 123.152H117.134C117.988 123.151 118.834 123.318 119.623 123.645C120.413 123.971 121.13 124.449 121.734 125.053C122.338 125.657 122.817 126.374 123.144 127.163C123.471 127.952 123.639 128.798 123.638 129.652Z" fill="url(#paint0_linear_1159_1202)"/>
<defs>
<linearGradient id="paint0_linear_1159_1202" x1="337.367" y1="408.544" x2="105.521" y2="-0.649723" gradientUnits="userSpaceOnUse">
<stop offset="0.0001" stop-color="#BE42B1"/>
<stop offset="1" stop-color="#3B4BAA"/>
</linearGradient>
</defs>
</svg>
