<svg width="335" height="513" viewBox="0 0 335 513" fill="none" xmlns="http://www.w3.org/2000/svg">
<path fill-rule="evenodd" clip-rule="evenodd" d="M302.542 512.051H31.7371C14.238 512.051 0 497.813 0 480.314V351.248C0 315.821 28.8241 286.99 64.2573 286.99C149.476 286.99 143.521 280.351 143.521 311.837C143.521 327.116 163.366 323.483 179.122 323.483C201.649 323.483 180.055 286.987 200.821 286.987H270.022C305.449 286.987 334.279 315.815 334.279 351.242V480.308C334.288 497.807 320.041 512.048 302.545 512.048L302.542 512.051Z" fill="#4682BF"/>
<path fill-rule="evenodd" clip-rule="evenodd" d="M72.2021 512.051H52.084V384.935C52.084 371.693 72.2021 371.705 72.2021 384.935V512.051ZM282.197 512.051H262.079V384.935C262.079 371.693 282.197 371.705 282.197 384.935V512.051Z" fill="#6A9ACB"/>
<path fill-rule="evenodd" clip-rule="evenodd" d="M123.385 268.586H210.913V311.828C210.913 329.372 196.558 343.727 179.011 343.727H155.284C137.74 343.727 123.385 329.372 123.385 311.828V268.586Z" fill="#FFB091"/>
<path fill-rule="evenodd" clip-rule="evenodd" d="M246.307 167.526C238.924 167.526 233.908 159.636 237.358 152.883L251.107 139.026L209.962 97.5872C204.973 92.5592 196.468 94.1552 193.621 100.605C182.458 125.853 170.569 128.193 170.806 128.193C165.796 128.511 154.56 102.072 143.145 115.968C131.157 130.551 118.353 137.448 114.09 139.473C108.909 140.64 98.3073 138.513 90.0962 139.407C95.0252 147.888 98.3643 146.64 98.0252 157.758C97.6352 170.646 77.5022 170.626 77.9132 157.152C78.5192 137.223 48.828 118.731 57.6691 93.5192C68.9791 61.2421 102.363 24.9299 159.426 28.269C175.138 28.254 243.778 26.3969 246.781 73.4341C276.649 78.4441 279.892 113.85 276.121 121.239L255.28 162.039C254.436 163.692 253.152 165.08 251.57 166.049C249.988 167.018 248.168 167.532 246.313 167.532L246.307 167.526Z" fill="#4D4D4D"/>
<path fill-rule="evenodd" clip-rule="evenodd" d="M167.14 284.657C117.937 284.657 77.9141 244.625 77.9141 195.425V138.524C77.9141 122.339 103.909 130.52 113.041 128.462C117.304 126.437 130.108 119.54 142.096 104.957C153.511 91.0605 164.746 117.497 169.756 117.182C169.516 117.182 181.408 114.842 192.572 89.5935C195.422 83.1435 203.924 81.5505 208.913 86.5755L253.454 131.438C255.331 133.32 256.384 135.871 256.382 138.53C256.382 186.323 263.21 225.431 230.177 258.449C213.275 275.342 190.883 284.654 167.137 284.654L167.14 284.657Z" fill="#FFC3A1"/>
<path fill-rule="evenodd" clip-rule="evenodd" d="M167.14 242.166C136.063 242.166 145.063 223.014 154.081 227.394C173.131 236.646 183.433 220.329 188.209 230.172C192.946 239.934 173.074 242.166 167.137 242.166H167.14ZM142.969 165.384C139.393 165.384 131.776 158.313 123.385 164.271C116.968 168.825 110.023 159.057 116.428 154.5C129.718 145.044 154.252 152.478 148.087 162.522C147.55 163.397 146.797 164.12 145.901 164.621C145.005 165.122 143.996 165.385 142.969 165.384ZM214.372 165.384C210.793 165.384 203.164 158.313 194.788 164.271C188.38 168.828 181.42 159.06 187.831 154.5C201.127 145.038 225.658 152.484 219.49 162.522C218.953 163.396 218.2 164.119 217.304 164.62C216.408 165.121 215.399 165.384 214.372 165.384Z" fill="#FF9E83"/>
<path fill-rule="evenodd" clip-rule="evenodd" d="M289.817 121.878C286.504 121.878 283.819 119.19 283.819 115.881V82.9893C283.819 43.8452 251.971 11.994 212.824 11.994H121.465C82.3177 11.994 50.4696 43.8422 50.4696 82.9893V109.638C58.0056 115.743 46.3776 124.197 40.4705 118.887C39.2045 117.75 38.4785 116.127 38.4785 114.423V82.9893C38.4785 37.2271 75.7057 0 121.468 0H212.824C258.586 0 295.82 37.2271 295.82 82.9893V115.881C295.814 119.196 293.126 121.878 289.814 121.878H289.817Z" fill="#4A5254"/>
<path fill-rule="evenodd" clip-rule="evenodd" d="M86.6587 200.192H46.6926C32.0105 200.192 20.0645 188.246 20.0645 173.564V134.933C20.0645 120.251 32.0075 108.305 46.6926 108.305H86.6587C89.9707 108.305 92.6557 110.993 92.6557 114.302V194.189C92.6557 197.51 89.9737 200.192 86.6587 200.192Z" fill="#D7D7D7"/>
<path fill-rule="evenodd" clip-rule="evenodd" d="M216.913 218.782C213.532 218.782 207.232 219.127 207.286 212.725C207.313 209.419 209.995 206.764 213.334 206.773C226.324 206.863 253.138 206.335 264.979 206.077C264.979 199.158 263.311 189.648 270.976 189.648C279.211 189.648 276.973 201.387 276.973 211.942C276.973 215.2 274.375 217.861 271.117 217.936C270.745 217.945 235.501 218.782 216.91 218.782H216.913Z" fill="#B3B3B3"/>
<path fill-rule="evenodd" clip-rule="evenodd" d="M287.587 201.647H247.618C244.306 201.647 241.621 198.959 241.621 195.65V115.763C241.621 112.451 244.312 109.766 247.618 109.766H287.587C302.266 109.766 314.215 121.709 314.215 136.394V175.025C314.215 189.701 302.266 201.647 287.587 201.647Z" fill="#D7D7D7"/>
<path fill-rule="evenodd" clip-rule="evenodd" d="M203.638 228.418C183.043 228.418 183.043 197.125 203.638 197.125C224.239 197.125 224.239 228.418 203.638 228.418Z" fill="#4A5254"/>
</svg>
