<svg xmlns="http://www.w3.org/2000/svg" version="1.1" xmlns:xlink="http://www.w3.org/1999/xlink" width="512" height="512" x="0" y="0" viewBox="0 0 512 512" style="enable-background:new 0 0 512 512" xml:space="preserve"><g><path fill="#cfdbfd" d="M329.866 432.962H437c8.284 0 15-6.716 15-15s-6.716-15-15-15H329.866c-8.284 0-15 6.716-15 15s6.716 15 15 15zM358.067 136.682c8.284 0 15-6.716 15-15V74.508H437c8.284 0 15-6.716 15-15s-6.716-15-15-15h-78.933c-8.284 0-15 6.716-15 15v62.174c0 8.284 6.716 15 15 15zM421.86 252.844H497c8.284 0 15-6.716 15-15s-6.716-15-15-15h-75.14c-8.284 0-15 6.716-15 15s6.716 15 15 15zM399.779 323.89h63.111c8.284 0 15-6.716 15-15s-6.716-15-15-15h-63.111c-8.284 0-15 6.716-15 15s6.716 15 15 15z" opacity="1" data-original="#cfdbfd"></path><circle cx="467" cy="59.508" r="27.262" fill="#ffe370" opacity="1" data-original="#ffe370"></circle><circle cx="467" cy="417.962" r="27.262" fill="#ffe370" opacity="1" data-original="#ffe370"></circle><path fill="#ffb54c" d="M422 59.508c0-24.813 20.187-45 45-45s45 20.187 45 45-20.187 45-45 45-45-20.186-45-45zm30 0c0 8.271 6.729 15 15 15s15-6.729 15-15-6.729-15-15-15-15 6.729-15 15zM422 417.962c0-24.813 20.187-45 45-45s45 20.187 45 45-20.187 45-45 45-45-20.187-45-45zm30 0c0 8.271 6.729 15 15 15s15-6.729 15-15-6.729-15-15-15-15 6.728-15 15z" opacity="1" data-original="#ffb54c"></path><path fill="#e8f1fd" d="M182.134 432.962H75c-8.284 0-15-6.716-15-15s6.716-15 15-15h107.134c8.284 0 15 6.716 15 15s-6.716 15-15 15zM153.933 136.682c-8.284 0-15-6.716-15-15V74.508H75c-8.284 0-15-6.716-15-15s6.716-15 15-15h78.933c8.284 0 15 6.716 15 15v62.174c0 8.284-6.716 15-15 15zM90.14 252.844H15c-8.284 0-15-6.716-15-15s6.716-15 15-15h75.14c8.284 0 15 6.716 15 15s-6.716 15-15 15zM112.221 323.89H49.11c-8.284 0-15-6.716-15-15s6.716-15 15-15h63.111c8.284 0 15 6.716 15 15s-6.716 15-15 15z" opacity="1" data-original="#e8f1fd"></path><circle cx="45" cy="59.508" r="27.262" fill="#ffefb2" opacity="1" data-original="#ffefb2"></circle><circle cx="45" cy="417.962" r="27.262" fill="#ffefb2" opacity="1" data-original="#ffefb2"></circle><path fill="#ffe370" d="M45 104.508c-24.813 0-45-20.187-45-45s20.187-45 45-45 45 20.187 45 45-20.187 45-45 45zm0-60c-8.271 0-15 6.729-15 15s6.729 15 15 15 15-6.729 15-15-6.729-15-15-15zM45 462.962c-24.813 0-45-20.187-45-45s20.187-45 45-45 45 20.187 45 45-20.187 45-45 45zm0-60c-8.271 0-15 6.729-15 15s6.729 15 15 15 15-6.729 15-15-6.729-15-15-15z" opacity="1" data-original="#ffe370"></path><path fill="#94e671" d="M416.4 258.242c-17.6 62.83-59.72 152.2-160.4 225.98-80.62-58.97-134.41-134.46-160-224.58-14.72-51.85-15.51-94.48-14.89-113.4 103.28-32.91 153.6-68.06 174.89-86.73 21.29 18.67 71.61 53.83 174.91 86.73.64 18.68-.09 60.5-14.51 112z" opacity="1" data-original="#94e671"></path><path fill="#52cc7b" d="M416.4 258.242c-17.6 62.83-59.72 152.2-160.4 225.98V59.512c21.29 18.67 71.61 53.83 174.91 86.73.64 18.68-.09 60.5-14.51 112z" opacity="1" data-original="#52cc7b"></path><path fill="#52cc7b" d="M265.276 475.256 256 464.062c-72.96-53.37-121.65-121.7-144.81-203.26-13.32-46.93-14.03-85.51-13.47-102.63 93.47-29.79 139.01-61.6 158.28-78.5l9.276-9.221V57.237L256 43.242c-4.8 0-9.11 2.3-11.93 6.18-1.57 1.9-37.82 44.24-165.07 83.17-5.7 1.74-9.83 6.7-10.51 12.63-.25 2.15-5.84 53.51 13.45 122.4a394.408 394.408 0 0 0 52.16 113.25c29.07 43.42 67.19 81.75 113.32 113.92 2.58 1.8 5.58 2.7 8.58 2.7l9.276-12.067z" opacity="1" data-original="#52cc7b"></path><path fill="#404a80" d="M264.655 156.301 256 143.992c-35.41 0-64.22 28.81-64.22 64.22v23.23c0 8.28 6.72 15 15 15 8.29 0 15-6.72 15-15v-23.23c0-18.87 15.35-34.22 34.22-34.22l8.655-9.585z" opacity="1" data-original="#404a80"></path><path fill="#3d997a" d="M430.06 267.622a394.408 394.408 0 0 1-52.16 113.25c-29.07 43.42-67.19 81.75-113.32 113.92-2.58 1.8-5.58 2.7-8.58 2.7v-33.43c91.12-66.78 129.24-147.66 145.17-204.53 13.05-46.61 13.71-84.46 13.13-101.36-93.49-29.78-139.03-61.6-158.3-78.5v-36.43c4.8 0 9.11 2.3 11.93 6.18 1.57 1.9 37.82 44.24 165.07 83.17 5.7 1.74 9.83 6.7 10.51 12.63.25 2.15 5.84 53.51-13.45 122.4z" opacity="1" data-original="#3d997a"></path><path fill="#283366" d="M320.22 208.212v23.23c0 8.28-6.72 15-15 15-8.29 0-15-6.72-15-15v-23.23c0-18.87-15.35-34.22-34.22-34.22v-30c35.41 0 64.22 28.81 64.22 64.22z" opacity="1" data-original="#283366"></path><path fill="#ffe370" d="M269.422 246.438 256 216.442h-55.2c-15.08 0-27.34 12.26-27.34 27.34v85.9c0 15.08 12.26 27.34 27.34 27.34H256l13.422-35.8z" opacity="1" data-original="#ffe370"></path><path fill="#ffb54c" d="M338.54 243.782v85.9c0 15.08-12.26 27.34-27.34 27.34H256v-140.58h55.2c15.08 0 27.34 12.26 27.34 27.34z" opacity="1" data-original="#ffb54c"></path><path fill="#404a80" d="M271 279.442v14.58c0 8.29-6.72 15-15 15s-15-6.71-15-15v-14.58c0-8.29 6.72-15 15-15s15 6.709 15 15z" opacity="1" data-original="#404a80"></path><path fill="#283366" d="M271 279.442v14.58c0 8.29-6.72 15-15 15v-44.58c8.28 0 15 6.709 15 15z" opacity="1" data-original="#283366"></path></g></svg>