<svg width="513" height="444" viewBox="0 0 513 444" fill="none" xmlns="http://www.w3.org/2000/svg">
<path d="M389.045 287.29C383.441 286.529 378.269 283.866 374.393 279.747C371.285 276.447 369.253 272.281 368.565 267.8C368.073 264.5 366.403 261.489 363.863 259.325C361.324 257.16 358.086 255.988 354.75 256.024H157.297C153.97 256.024 150.751 257.21 148.22 259.37C145.689 261.53 144.012 264.523 143.49 267.809C142.653 273.161 139.929 278.037 135.81 281.556C132.202 284.656 127.775 286.647 123.061 287.29C119.743 287.725 116.694 289.342 114.471 291.843C112.249 294.345 111.002 297.564 110.961 300.91V364.739C110.991 368.084 112.225 371.305 114.439 373.813C116.652 376.321 119.695 377.947 123.01 378.392C128.614 379.154 133.786 381.817 137.662 385.936C140.77 389.236 142.802 393.402 143.49 397.882C143.99 401.177 145.663 404.179 148.202 406.337C150.741 408.494 153.974 409.662 157.305 409.624H354.75C358.089 409.66 361.328 408.485 363.868 406.317C366.408 404.149 368.077 401.135 368.565 397.831C369.252 393.35 371.285 389.184 374.393 385.885C378.273 381.762 383.452 379.099 389.062 378.341C392.366 377.893 395.398 376.273 397.606 373.776C399.815 371.28 401.053 368.072 401.094 364.739V300.91C401.056 297.571 399.818 294.357 397.606 291.857C395.393 289.356 392.354 287.735 389.045 287.29ZM384.028 361.914C375.552 363.636 367.823 367.951 361.909 374.262C357.104 379.388 353.754 385.704 352.207 392.558H159.848C158.308 385.701 154.957 379.384 150.146 374.262C144.23 367.955 136.501 363.64 128.028 361.914V303.743C135.01 302.324 141.511 299.139 146.912 294.493C153.412 288.935 157.949 281.43 159.848 273.091H352.207C353.747 279.947 357.098 286.265 361.909 291.386C367.825 297.694 375.554 302.009 384.028 303.734V361.914Z" fill="url(#paint0_linear_1159_1205)"/>
<path d="M170.695 306.941C165.597 306.913 160.604 308.398 156.351 311.21C152.098 314.022 148.776 318.033 146.805 322.735C144.835 327.437 144.305 332.619 145.282 337.623C146.26 342.626 148.701 347.227 152.297 350.842C155.892 354.457 160.48 356.922 165.479 357.927C170.477 358.931 175.661 358.428 180.374 356.483C185.087 354.537 189.116 351.236 191.95 346.998C194.784 342.76 196.296 337.776 196.295 332.678C196.304 325.873 193.614 319.342 188.815 314.518C184.016 309.693 177.5 306.968 170.695 306.941ZM170.695 341.356C168.973 341.385 167.281 340.901 165.835 339.965C164.388 339.029 163.254 337.684 162.574 336.101C161.895 334.518 161.703 332.768 162.021 331.075C162.339 329.383 163.154 327.823 164.362 326.594C165.569 325.366 167.115 324.525 168.803 324.178C170.49 323.832 172.242 323.995 173.836 324.647C175.431 325.299 176.795 326.412 177.755 327.842C178.715 329.272 179.228 330.955 179.228 332.678C179.246 334.96 178.358 337.156 176.758 338.783C175.158 340.41 172.977 341.336 170.695 341.356ZM341.362 306.941C336.263 306.913 331.271 308.398 327.018 311.21C322.765 314.022 319.443 318.033 317.472 322.735C315.502 327.437 314.971 332.619 315.949 337.623C316.927 342.626 319.368 347.227 322.964 350.842C326.559 354.457 331.147 356.922 336.145 357.927C341.144 358.931 346.328 358.428 351.041 356.483C355.753 354.537 359.782 351.236 362.617 346.998C365.451 342.76 366.963 337.776 366.962 332.678C366.971 325.873 364.281 319.342 359.482 314.518C354.683 309.693 348.166 306.968 341.362 306.941ZM341.362 341.356C339.639 341.385 337.947 340.901 336.501 339.965C335.055 339.029 333.92 337.684 333.241 336.101C332.562 334.518 332.369 332.768 332.687 331.075C333.006 329.383 333.821 327.823 335.028 326.594C336.236 325.366 337.782 324.525 339.469 324.178C341.157 323.832 342.909 323.995 344.503 324.647C346.097 325.299 347.461 326.412 348.422 327.842C349.382 329.272 349.895 330.955 349.895 332.678C349.913 334.96 349.024 337.156 347.424 338.783C345.824 340.41 343.644 341.336 341.362 341.356ZM256.028 290.156C247.59 290.156 239.34 292.659 232.324 297.347C225.307 302.035 219.839 308.699 216.609 316.495C213.38 324.291 212.535 332.87 214.181 341.147C215.828 349.423 219.891 357.026 225.858 362.993C231.825 368.96 239.428 373.023 247.704 374.67C255.981 376.316 264.56 375.471 272.356 372.242C280.152 369.012 286.816 363.544 291.504 356.527C296.192 349.511 298.695 341.262 298.695 332.823C298.681 321.511 294.182 310.667 286.183 302.668C278.184 294.669 267.34 290.17 256.028 290.156ZM256.028 358.423C250.965 358.423 246.015 356.921 241.806 354.109C237.596 351.296 234.314 347.297 232.377 342.62C230.439 337.942 229.932 332.795 230.92 327.829C231.908 322.863 234.346 318.301 237.926 314.721C241.506 311.141 246.068 308.703 251.034 307.715C256 306.727 261.147 307.234 265.825 309.172C270.503 311.109 274.501 314.39 277.314 318.6C280.127 322.81 281.628 327.76 281.628 332.823C281.628 339.612 278.931 346.124 274.13 350.925C269.329 355.726 262.818 358.423 256.028 358.423Z" fill="url(#paint1_linear_1159_1205)"/>
<path d="M510.757 16.3146C510.369 12.5941 508.843 9.08366 506.387 6.26198C503.931 3.4403 500.665 1.44463 497.034 0.547039C493.402 -0.350553 489.582 -0.106392 486.095 1.24624C482.607 2.59887 479.622 4.99415 477.545 8.10553C416.566 97.6287 341.763 128.938 302.612 139.647C291.716 142.628 282.097 149.097 275.226 158.062C268.354 167.028 264.608 177.998 264.561 189.294V221.891H247.495V189.294C247.448 177.999 243.705 167.031 236.837 158.064C229.969 149.097 220.354 142.626 209.462 139.638C170.294 128.938 95.4905 97.6287 34.5284 8.1738C32.4607 5.01557 29.456 2.58402 25.936 1.22041C22.4161 -0.143201 18.5574 -0.370434 14.9017 0.570599C11.2648 1.44528 7.99267 3.43616 5.54418 6.26416C3.0957 9.09216 1.59358 12.6155 1.2484 16.3402C-1.30307 42.1791 -1.16654 78.9749 13.6815 109.925C7.67912 124.685 6.8875 141.051 11.4372 156.321C11.6164 156.859 11.8127 157.371 11.9919 157.883C7.51287 171.239 7.32192 185.662 11.4457 199.133L11.9919 200.677C7.5231 213.983 7.3143 228.352 11.3945 241.782C19.9279 267.459 42.5753 283.596 76.794 288.955V426.691C76.794 431.218 78.5921 435.559 81.7927 438.759C84.9933 441.96 89.3343 443.758 93.8607 443.758H418.161C422.688 443.758 427.029 441.96 430.229 438.759C433.43 435.559 435.228 431.218 435.228 426.691V288.955C469.447 283.579 492.094 267.459 500.628 241.765C504.709 228.341 504.501 213.977 500.03 200.677C500.227 200.131 500.431 199.568 500.628 198.971C504.708 185.543 504.499 171.177 500.03 157.874L500.636 156.167C505.14 140.934 504.33 124.621 498.341 109.908C513.223 78.9749 513.359 42.1791 510.757 16.3146ZM281.628 189.294C281.666 181.741 284.176 174.407 288.774 168.415C293.372 162.422 299.806 158.1 307.092 156.108C348.529 144.784 427.591 111.734 491.685 17.6543C491.811 17.4306 492.011 17.257 492.25 17.1623C492.489 17.0676 492.753 17.0575 492.999 17.1338C493.218 17.1653 493.418 17.2769 493.56 17.4471C493.702 17.6173 493.775 17.834 493.767 18.0554C496.241 42.5461 496.131 77.5925 481.479 105.471C476.229 115.572 468.843 124.409 459.833 131.368C450.823 138.326 440.406 143.239 429.306 145.765C427.291 146.279 425.533 147.51 424.363 149.229C423.192 150.947 422.688 153.033 422.947 155.096C423.206 157.159 424.209 159.057 425.768 160.432C427.327 161.808 429.335 162.567 431.414 162.567C432.13 162.567 432.844 162.478 433.539 162.303C454.025 157.516 472.368 146.121 485.737 129.876C486.931 136.838 486.499 143.982 484.474 150.749C484.022 152.029 483.569 153.215 483.126 154.35C466.136 194.03 400.233 187.374 399.567 187.314C397.317 187.069 395.061 187.727 393.295 189.145C391.53 190.563 390.401 192.624 390.155 194.875C389.91 197.125 390.568 199.381 391.986 201.147C393.404 202.912 395.465 204.041 397.716 204.287C398.492 204.364 403.638 204.901 411.258 204.901C430.347 204.901 465.018 201.573 486.351 179.719C486.493 184.395 485.853 189.062 484.457 193.526C484.005 194.823 483.544 196.086 483.092 197.204C474.166 218.375 451.766 226.525 432.318 229.52C430.767 227.183 428.664 225.264 426.195 223.934C423.726 222.603 420.966 221.901 418.161 221.891H281.628V189.294ZM18.2895 18.081C18.2763 17.8558 18.3478 17.6338 18.4899 17.4585C18.6319 17.2833 18.8344 17.1675 19.0575 17.1338C19.3167 17.0535 19.596 17.0688 19.8449 17.1768C20.0939 17.2848 20.2958 17.4785 20.4143 17.7226C84.5081 111.751 163.527 144.784 204.956 156.099C212.244 158.091 218.68 162.415 223.279 168.409C227.879 174.403 230.39 181.738 230.428 189.294V221.891H93.8948C91.0909 221.894 88.3308 222.588 85.8587 223.911C83.3866 225.234 81.2785 227.146 79.7209 229.477C60.2735 226.482 37.9076 218.333 28.9476 197.162C28.4904 195.99 28.0494 194.812 27.6249 193.629C26.2155 189.12 25.5638 184.408 25.6964 179.685C47.0297 201.531 81.7092 204.859 100.79 204.859C108.41 204.859 113.59 204.321 114.332 204.244C116.583 203.998 118.643 202.867 120.061 201.101C121.478 199.335 122.135 197.078 121.888 194.828C121.642 192.577 120.511 190.516 118.745 189.099C116.979 187.682 114.723 187.025 112.472 187.271C111.781 187.331 45.9716 194.098 28.922 154.307C28.4783 153.181 28.0687 151.995 27.6249 150.894C25.5718 144.086 25.122 136.895 26.3108 129.885C39.6815 146.128 58.0234 157.522 78.5092 162.311C79.2038 162.487 79.9175 162.576 80.634 162.576C82.7131 162.576 84.7207 161.817 86.2797 160.441C87.8386 159.065 88.8417 157.168 89.1005 155.105C89.3592 153.042 88.856 150.955 87.6851 149.237C86.5143 147.519 84.7564 146.287 82.7417 145.774C71.6423 143.246 61.2264 138.331 52.2182 131.371C43.2099 124.411 35.8252 115.573 30.5775 105.471C15.9257 77.5925 15.8148 42.5461 18.2895 18.081ZM27.6249 236.398C26.2201 231.891 25.5685 227.182 25.6964 222.463C39.6661 235.782 57.6379 244.123 76.8281 246.194V271.794C56.9199 268.176 35.1343 258.977 27.6249 236.398ZM93.8948 426.691V239.7C93.8948 239.581 93.8521 239.478 93.8948 239.359V238.958H418.161V426.691H93.8948ZM435.228 271.777V246.177C454.416 244.111 472.388 235.776 486.36 222.463C486.488 227.177 485.837 231.879 484.431 236.381C476.922 258.977 455.136 268.176 435.228 271.777Z" fill="url(#paint2_linear_1159_1205)"/>
<defs>
<linearGradient id="paint0_linear_1159_1205" x1="324.306" y1="404.072" x2="266.771" y2="226.865" gradientUnits="userSpaceOnUse">
<stop offset="0.0001" stop-color="#BE42B1"/>
<stop offset="1" stop-color="#3B4BAA"/>
</linearGradient>
<linearGradient id="paint1_linear_1159_1205" x1="308.164" y1="372.404" x2="283.876" y2="269.301" gradientUnits="userSpaceOnUse">
<stop offset="0.0001" stop-color="#BE42B1"/>
<stop offset="1" stop-color="#3B4BAA"/>
</linearGradient>
<linearGradient id="paint2_linear_1159_1205" x1="376.519" y1="427.714" x2="141.986" y2="-13.5527" gradientUnits="userSpaceOnUse">
<stop offset="0.0001" stop-color="#BE42B1"/>
<stop offset="1" stop-color="#3B4BAA"/>
</linearGradient>
</defs>
</svg>
