<svg width="512" height="512" viewBox="0 0 512 512" fill="none" xmlns="http://www.w3.org/2000/svg">
<path d="M256 0C114.611 0 0 114.611 0 256C0 397.389 114.611 512 256 512C397.389 512 512 397.389 512 256C511.838 114.688 397.312 0.162133 256 0ZM256 494.933C124.041 494.933 17.0667 387.959 17.0667 256C17.0667 124.041 124.041 17.0667 256 17.0667C387.959 17.0667 494.933 124.041 494.933 256C494.78 387.9 387.9 494.78 256 494.933Z" fill="#00E9E2"/>
<path d="M255.999 34.1328C133.461 34.1328 34.1328 133.461 34.1328 255.999C34.1328 378.538 133.461 477.866 255.999 477.866C378.538 477.866 477.866 378.538 477.866 255.999C477.721 133.521 378.478 34.2779 255.999 34.1328ZM255.999 460.8C142.89 460.8 51.1995 369.109 51.1995 255.999C51.1995 142.89 142.89 51.1995 255.999 51.1995C369.109 51.1995 460.8 142.89 460.8 255.999C460.672 369.049 369.049 460.672 255.999 460.8Z" fill="#00E9E2"/>
<path d="M256 179.201C269.579 179.201 282.602 173.807 292.204 164.205C301.806 154.603 307.2 141.58 307.2 128.001C307.2 114.422 301.806 101.399 292.204 91.7969C282.602 82.1951 269.579 76.8008 256 76.8008C242.421 76.8008 229.398 82.1951 219.796 91.7969C210.194 101.399 204.8 114.422 204.8 128.001C204.8 141.58 210.194 154.603 219.796 164.205C229.398 173.807 242.421 179.201 256 179.201ZM256 93.8674C265.053 93.8674 273.734 97.4636 280.136 103.865C286.537 110.266 290.133 118.948 290.133 128.001C290.133 137.054 286.537 145.735 280.136 152.137C273.734 158.538 265.053 162.134 256 162.134C246.947 162.134 238.265 158.538 231.864 152.137C225.463 145.735 221.866 137.054 221.866 128.001C221.866 118.948 225.463 110.266 231.864 103.865C238.265 97.4636 246.947 93.8674 256 93.8674ZM374.844 187.802H374.707L285.107 195.849C282.052 196.131 278.997 196.267 275.934 196.267H236.066C233.011 196.267 229.956 196.131 226.91 195.858L137.156 187.802C130.387 187.271 123.684 189.45 118.521 193.86C113.358 198.27 110.159 204.551 109.628 211.32C109.096 218.089 111.275 224.793 115.685 229.955C120.096 235.118 126.376 238.317 133.145 238.849L205.568 245.419C207.688 245.611 209.66 246.588 211.097 248.159C212.533 249.73 213.331 251.781 213.333 253.91V273.537C213.333 277.803 212.54 282.036 210.978 286.004L169.916 390.58C168.555 393.655 167.813 396.968 167.732 400.33C167.651 403.691 168.234 407.036 169.446 410.173C170.657 413.309 172.475 416.177 174.795 418.611C177.116 421.045 179.892 422.998 182.967 424.359C186.042 425.72 189.355 426.462 192.717 426.543C196.079 426.623 199.423 426.041 202.56 424.829C205.697 423.617 208.564 421.799 210.998 419.479C213.432 417.159 215.385 414.382 216.746 411.307L255.88 315.623L295.381 411.563C298.213 417.625 303.306 422.337 309.568 424.69C315.831 427.044 322.766 426.853 328.89 424.157C335.013 421.461 339.837 416.475 342.331 410.267C344.824 404.058 344.787 397.12 342.229 390.938L301.022 285.978C299.466 282.012 298.668 277.789 298.666 273.528V253.902C298.668 251.773 299.466 249.722 300.903 248.151C302.34 246.58 304.312 245.603 306.432 245.411L378.735 238.849C385.505 238.333 391.793 235.148 396.216 229.996C400.638 224.844 402.833 218.146 402.317 211.376C401.801 204.605 398.616 198.317 393.464 193.895C388.312 189.472 381.614 187.286 374.844 187.802ZM377.31 221.867L304.887 228.438C298.517 228.986 292.586 231.91 288.272 236.629C283.958 241.348 281.576 247.517 281.6 253.91V273.537C281.6 279.937 282.794 286.286 285.141 292.25L326.494 397.543C326.972 398.557 327.245 399.655 327.299 400.774C327.353 401.893 327.185 403.012 326.807 404.067C326.428 405.122 325.845 406.091 325.091 406.921C324.338 407.75 323.428 408.423 322.415 408.901C321.401 409.379 320.303 409.653 319.184 409.706C318.065 409.76 316.946 409.593 315.891 409.214C314.836 408.835 313.867 408.252 313.037 407.499C312.208 406.745 311.535 405.836 311.057 404.822L271.641 309.138C270.363 306.041 268.194 303.393 265.41 301.53C262.625 299.667 259.35 298.672 256 298.672C252.649 298.672 249.374 299.667 246.59 301.53C243.805 303.393 241.636 306.041 240.358 309.138L201.054 404.566C200.605 405.632 199.944 406.596 199.112 407.399C198.279 408.202 197.292 408.827 196.211 409.237C195.129 409.646 193.975 409.832 192.82 409.782C191.664 409.732 190.531 409.448 189.489 408.946C188.446 408.445 187.517 407.737 186.757 406.865C185.997 405.993 185.422 404.976 185.067 403.875C184.712 402.774 184.584 401.613 184.692 400.461C184.8 399.31 185.141 398.192 185.694 397.176L226.901 292.216C229.231 286.26 230.417 279.928 230.4 273.528V253.902C230.428 247.505 228.048 241.332 223.733 236.61C219.419 231.887 213.485 228.961 207.112 228.413L134.57 221.867C132.307 221.708 130.2 220.656 128.713 218.943C127.225 217.23 126.479 214.996 126.639 212.733C126.798 210.469 127.85 208.362 129.563 206.875C131.277 205.387 133.511 204.641 135.774 204.801L225.374 212.848C228.924 213.163 232.482 213.326 236.049 213.326H275.917C279.484 213.326 283.042 213.163 286.592 212.848L376.149 204.801C377.266 204.712 378.389 204.846 379.453 205.194C380.518 205.542 381.503 206.097 382.352 206.828C383.201 207.558 383.897 208.45 384.399 209.451C384.902 210.452 385.201 211.543 385.28 212.66C385.372 213.79 385.237 214.927 384.885 216.005C384.532 217.082 383.968 218.079 383.226 218.936C382.484 219.793 381.579 220.494 380.563 220.997C379.547 221.5 378.441 221.796 377.31 221.867Z" fill="#00E9E2"/>
</svg>
