<svg width="512" height="512" viewBox="0 0 512 512" fill="none" xmlns="http://www.w3.org/2000/svg">
<path d="M512 214.71H493.443L465.786 229.262C462.674 227.545 459.435 226.088 455.943 225.214L421.153 216.508V212.552C436.544 201.811 445.935 184.065 445.935 165.161V150.726C445.935 118.646 420.798 91.7987 389.903 90.8625C388.334 90.8222 386.79 90.879 385.238 90.9554L394.258 69.8384L350.528 26.1213L324.75 42.8996C314.998 37.402 304.619 33.0969 293.838 30.0769L287.471 0H224.537L218.17 30.0852C207.389 33.1034 197.01 37.4082 187.258 42.9068L161.48 26.1285L117.786 69.823L126.653 90.9554C126.314 90.9399 125.992 90.879 125.654 90.8707C109.839 90.4114 94.944 96.1817 83.6294 107.165C72.2983 118.142 66.0645 132.872 66.0645 148.645V165.161C66.0645 184.065 75.4477 201.802 90.8387 212.544V216.508L68.1455 222.181L27.0121 198.194H0V369.311L81.2418 396.387H97.0643L99.04 389.468L123.943 404.415C124.351 417.956 135.209 428.851 148.738 429.326C149.213 442.797 160.041 453.626 173.512 454.101C173.987 467.572 184.815 478.4 198.286 478.875C198.778 492.662 210.069 503.742 223.968 503.742C229.129 503.742 234.189 502.133 238.443 499.266L245.758 505.726C250.349 509.769 256.257 512 262.375 512H263.903C277.645 512 288.827 500.891 289 487.194C302.593 487.02 313.601 476.012 313.774 462.42C327.375 462.246 338.391 451.222 338.549 437.621C352.275 437.299 363.355 426.085 363.355 412.282C363.355 411.452 363.314 410.633 363.23 409.806L512 335.427V214.71ZM429.419 150.726V165.161C429.419 179.819 421.5 193.512 408.75 200.895L404.621 203.283L404.652 229.415L445.912 239.721L355.097 287.52V265.275C355.097 254.173 350.613 244.008 343.27 236.495L371.613 229.415V203.262L367.492 200.879C354.75 193.512 346.839 179.818 346.839 165.161V148.645C346.839 137.383 351.291 126.851 359.383 119.009C367.467 111.169 378.194 106.944 389.407 107.379C411.467 108.04 429.419 127.487 429.419 150.726ZM268.451 281.028L231.069 269.081C214.033 263.62 195.592 262.807 178.153 266.669L173.419 267.718V265.274C173.419 253.888 181.141 244 192.182 241.234L239.484 229.415V203.262L235.363 200.879C222.621 193.512 214.71 179.818 214.71 165.161V148.645C214.71 137.383 219.162 126.851 227.254 119.009C235.338 111.169 246.134 106.944 257.278 107.379C279.338 108.04 297.29 127.487 297.29 150.726V165.161C297.29 179.819 289.371 193.512 276.621 200.895L272.492 203.283L272.523 229.415L319.818 241.235C325.18 242.573 329.94 245.666 333.34 250.022C336.74 254.378 338.585 259.747 338.581 265.273V296.217L336.54 297.29H331.48L280.709 282.782C276.709 281.65 272.588 281.185 268.451 281.028ZM175.27 123.596C190.778 93.5484 221.992 74.3226 256 74.3226C289.686 74.3226 320.766 93.2903 336.391 122.932C332.398 130.915 330.32 139.719 330.323 148.645V165.161C330.323 184.064 339.706 201.802 355.097 212.544V216.508L322.065 224.778L289.024 216.508V212.552C304.415 201.811 313.806 184.064 313.806 165.161V150.726C313.806 118.645 288.669 91.7987 257.774 90.8625C241.967 90.399 227.065 96.1734 215.75 107.158C204.427 118.141 198.194 132.871 198.194 148.645V165.161C198.194 184.064 207.577 201.802 222.968 212.544V216.508L189.935 224.778L156.895 216.508V212.552C172.286 201.811 181.677 184.064 181.677 165.161V150.726C181.677 141.009 179.338 131.782 175.27 123.596ZM137.29 73.6537L163.674 47.2702L186.895 62.3824L191.338 59.6573C202.472 52.8341 214.504 47.8379 227.097 44.8268L232.178 43.6088L237.923 16.5161H274.085L279.814 43.6005L284.895 44.8145C297.489 47.8307 309.52 52.8268 320.652 59.649L325.096 62.3742L348.319 47.2619L374.668 73.6206L365.302 95.552C358.926 98.2947 353.015 102.153 347.87 107.141C347.531 107.471 347.24 107.827 346.91 108.165C327.456 77.2387 293.06 57.8064 256 57.8064C218.674 57.8064 184.182 77.4194 164.774 108.662C159.581 103.226 153.403 98.8222 146.557 95.7461L137.29 73.6537ZM107.355 229.415V203.262L103.234 200.879C90.4919 193.512 82.5806 179.818 82.5806 165.161V148.645C82.5806 137.383 87.0328 126.851 95.1246 119.009C103.209 111.169 113.959 106.944 125.149 107.379C147.209 108.04 165.161 127.487 165.161 150.726V165.161C165.161 179.819 157.242 193.512 144.492 200.895L140.363 203.283L140.394 229.415L168.73 236.497C161.387 244.007 156.903 254.173 156.903 265.273V271.39L131.145 277.116L131.814 274.777L132.129 259.515L88.577 234.108L107.355 229.415ZM16.5161 214.71H22.5363L81.9272 249.351L51.9597 369.217L16.5161 357.399V214.71ZM83.9195 379.871L67.6655 374.456L96.7783 258.017L115.613 268.999V271.358L84.6132 379.871H83.9195ZM140.387 403.645C140.393 401.19 141.367 398.837 143.097 397.096L157.613 382.581C159.354 380.851 161.706 379.877 164.16 379.871C169.266 379.871 173.418 384.024 173.418 389.129C173.413 391.584 172.439 393.937 170.709 395.678L156.192 410.194C154.452 411.923 152.1 412.897 149.646 412.903C144.541 412.903 140.388 408.75 140.388 403.645H140.387ZM165.161 428.419C165.167 425.965 166.141 423.611 167.871 421.87L182.388 407.355C184.128 405.625 186.48 404.651 188.934 404.645C194.04 404.645 198.193 408.798 198.193 413.903C198.187 416.358 197.213 418.711 195.483 420.452L180.966 434.968C179.226 436.697 176.874 437.671 174.421 437.677C169.315 437.677 165.162 433.525 165.162 428.419H165.161ZM189.935 453.193C189.941 450.739 190.915 448.386 192.645 446.645L207.162 432.129C208.902 430.399 211.255 429.426 213.708 429.419C218.814 429.419 222.967 433.572 222.967 438.678C222.961 441.132 221.987 443.485 220.257 445.226L205.74 459.742C204 461.471 201.648 462.445 199.195 462.452C194.089 462.452 189.937 458.299 189.937 453.193H189.935ZM223.968 487.226C218.862 487.226 214.71 483.073 214.71 477.967C214.715 475.513 215.689 473.16 217.419 471.419L231.936 456.903C233.676 455.174 236.029 454.2 238.483 454.194C243.588 454.194 247.741 458.346 247.741 463.452C247.735 465.906 246.761 468.26 245.031 470L230.515 484.516C228.774 486.246 226.422 487.219 223.969 487.226H223.968ZM263.903 495.484H262.375C260.278 495.486 258.254 494.718 256.685 493.326L250.508 487.879L256.709 481.677C258.923 479.463 260.642 476.831 261.912 474.004L269.419 480.254C270.39 481.062 271.171 482.073 271.706 483.217C272.241 484.36 272.518 485.608 272.516 486.871C272.516 491.621 268.653 495.484 263.903 495.484ZM337.959 421.161H336.533C334.455 421.16 332.444 420.43 330.851 419.097L286.069 381.779L275.488 394.472L318.976 430.706C319.944 431.515 320.723 432.527 321.256 433.67C321.79 434.814 322.066 436.06 322.065 437.322C322.065 442.073 318.202 445.935 313.451 445.935H311.649C309.636 445.933 307.687 445.225 306.141 443.935L261.286 406.56L250.706 419.254L294.194 455.492C295.165 456.296 295.946 457.306 296.482 458.448C297.017 459.589 297.293 460.835 297.29 462.097C297.29 466.847 293.428 470.71 288.677 470.71C285.508 470.71 282.42 469.585 279.988 467.564L261.557 452.201C257.496 443.903 249.153 438.117 239.384 437.77C238.907 424.299 228.081 413.471 214.61 412.996C214.133 399.525 203.306 388.697 189.835 388.222C189.35 374.435 178.06 363.355 164.161 363.355C157.375 363.355 150.733 366.105 145.935 370.904L131.42 385.419C130.553 386.286 129.834 387.27 129.105 388.246L103.738 373.024L125.976 295.194L181.726 282.798C196.351 279.528 211.77 280.238 226.033 284.802L238.198 288.694L196.956 309.314C187.531 314.037 181.677 323.516 181.677 334.057V335.689C181.677 350.944 194.088 363.355 209.342 363.355C214.355 363.355 219.287 361.992 223.573 359.407L254.323 340.967C260.5 337.267 268.791 338.077 274.125 342.875L343.899 405.669C344.823 406.506 345.562 407.526 346.068 408.665C346.574 409.803 346.837 411.036 346.839 412.282C346.839 417.182 342.859 421.161 337.959 421.161ZM495.484 325.218L356.359 394.786C355.906 394.306 355.433 393.846 354.94 393.407L285.178 330.613C279.077 325.103 271.147 322.057 262.926 322.065C256.899 322.066 250.986 323.705 245.818 326.807L215.055 345.253C213.331 346.292 211.355 346.84 209.342 346.839C203.19 346.839 198.194 341.843 198.194 335.69V334.056C198.194 329.803 200.557 325.988 204.355 324.089L250.42 301.056C258.302 297.109 267.661 296.225 276.157 298.669L328.053 313.493L340.621 313.806L495.484 232.299V325.218Z" fill="#00E9E2"/>
</svg>
