<svg width="505" height="510" viewBox="0 0 505 510" fill="none" xmlns="http://www.w3.org/2000/svg">
<path d="M473.068 173.617H473.064C464.573 173.617 456.571 176.942 450.535 182.978C444.497 189.015 441.172 197.018 441.172 205.511L441.17 293.669C437.591 292.445 433.836 291.814 430.054 291.802H429.913C420.741 291.802 412.135 295.331 405.666 301.749L340.152 366.748C339.898 367 339.661 367.269 339.443 367.552C330.851 378.733 327.421 391.488 329.248 405.463L332.749 432.249L331.899 432.021C330.217 431.567 328.462 431.45 326.735 431.679C325.008 431.907 323.343 432.475 321.837 433.351C320.325 434.217 319.001 435.374 317.939 436.756C316.878 438.137 316.101 439.715 315.654 441.399L309.977 462.587C309.062 466.004 309.535 469.576 311.308 472.648C313.081 475.72 315.94 477.915 319.356 478.83L433.994 509.547C435.134 509.853 436.29 510.004 437.44 510.004C439.764 510.002 442.046 509.385 444.056 508.218C445.568 507.352 446.892 506.195 447.954 504.813C449.015 503.432 449.792 501.854 450.239 500.17L455.916 478.982C456.831 475.565 456.358 471.993 454.585 468.921C452.812 465.849 449.953 463.654 446.537 462.739L443.446 461.911C441.943 447.412 445.272 437.119 454.513 427.18L490.142 388.855C499.977 378.276 504.963 366.144 504.963 352.794L504.964 205.511C504.963 187.927 490.655 173.62 473.068 173.617ZM435.491 493.385L326.138 464.083L330.398 448.185L439.751 477.487L435.491 493.385ZM488.962 352.794C488.962 362.1 485.515 370.332 478.423 377.96L442.794 416.285C431.692 428.227 426.679 441.26 427.13 457.539L349.471 436.73L345.114 403.389C343.861 393.808 346.054 385.404 351.819 377.711L416.935 313.107C420.385 309.683 424.992 307.801 429.915 307.801H429.992C434.943 307.821 439.565 309.741 443.005 313.21C450.164 320.425 450.117 332.119 442.902 339.278L407.904 374.002C407.145 374.739 406.541 375.619 406.124 376.591C405.708 377.564 405.489 378.609 405.479 379.667C405.47 380.724 405.67 381.773 406.068 382.753C406.466 383.733 407.055 384.624 407.8 385.374C408.545 386.125 409.431 386.721 410.408 387.127C411.385 387.533 412.432 387.741 413.49 387.74C414.547 387.738 415.594 387.527 416.57 387.118C417.545 386.71 418.43 386.112 419.173 385.359L454.169 350.637C466.622 338.282 467.633 318.699 457.169 305.16L457.171 205.511C457.171 201.291 458.832 197.307 461.848 194.291C464.863 191.276 468.846 189.616 473.063 189.616H473.066C481.832 189.617 488.963 196.748 488.963 205.511L488.962 352.794ZM189.31 441.4C188.394 437.983 186.199 435.126 183.127 433.352C180.055 431.578 176.481 431.107 173.065 432.022L172.214 432.25L175.715 405.463C177.542 391.488 174.112 378.733 165.521 367.553C165.303 367.269 165.066 367 164.812 366.748L99.298 301.749C92.83 295.331 84.224 291.802 75.052 291.802L74.91 291.803C71.1277 291.815 67.3728 292.445 63.794 293.669L63.793 205.511C63.793 197.018 60.468 189.016 54.43 182.978C48.393 176.941 40.392 173.617 31.9 173.617H31.896C14.309 173.62 0 187.928 0 205.512L0.000999928 352.794C0.000999928 366.144 4.988 378.276 14.822 388.855L50.451 427.18C59.692 437.119 63.021 447.413 61.518 461.911L58.428 462.739C56.744 463.186 55.1654 463.962 53.7837 465.024C52.4021 466.085 51.2448 467.41 50.379 468.922C49.5029 470.428 48.9342 472.092 48.7057 473.819C48.4773 475.546 48.5936 477.301 49.048 478.983L54.725 500.171C55.1723 501.855 55.9491 503.433 57.0104 504.814C58.0718 506.195 59.3965 507.352 60.908 508.218C62.4142 509.093 64.0787 509.661 65.8055 509.889C67.5323 510.117 69.2872 510.001 70.969 509.548L185.61 478.831C192.674 476.936 196.881 469.649 194.988 462.588L189.31 441.4ZM62.169 416.286L26.54 377.961C19.448 370.333 16.001 362.102 16.001 352.795L15.999 205.512C15.999 196.749 23.131 189.618 31.896 189.617C36.115 189.616 40.099 191.277 43.115 194.293C46.131 197.309 47.792 201.293 47.792 205.512L47.793 305.161C37.329 318.7 38.34 338.283 50.793 350.638L85.789 385.36C86.5319 386.113 87.4167 386.711 88.3922 387.119C89.3677 387.528 90.4146 387.739 91.4722 387.741C92.5299 387.742 93.5773 387.534 94.5539 387.128C95.5305 386.722 96.417 386.126 97.1619 385.375C97.9069 384.625 98.4955 383.734 98.8939 382.754C99.2923 381.774 99.4924 380.725 99.4828 379.668C99.4731 378.61 99.2538 377.565 98.8376 376.592C98.4214 375.62 97.8165 374.74 97.058 374.003L62.062 339.281C54.847 332.122 54.801 320.427 61.959 313.213C65.399 309.744 70.021 307.824 74.973 307.805L75.05 307.804C79.972 307.804 84.579 309.687 88.029 313.109L153.145 377.713C158.909 385.405 161.103 393.81 159.85 403.391L155.493 436.733L77.834 457.542C78.283 441.261 73.271 428.227 62.169 416.286ZM69.471 493.385L65.211 477.486L174.563 448.185L178.823 464.084L69.471 493.385ZM315.911 384.669V351.878C315.911 344.818 319.253 338.939 325.32 335.323C346.193 322.869 363.557 305.311 375.777 284.3C388.33 262.683 394.966 237.972 394.966 212.837C394.966 134.272 331.048 70.354 252.481 70.354C173.915 70.354 109.997 134.272 109.997 212.837C109.997 237.972 116.633 262.683 129.186 284.3C141.406 305.311 158.769 322.869 179.642 335.322C185.709 338.938 189.051 344.818 189.051 351.878V384.669C189.051 396.487 196.831 406.519 207.538 409.919V410.45C207.538 429.9 223.361 445.724 242.811 445.724H262.152C281.602 445.724 297.425 429.9 297.425 410.45V409.919C308.131 406.518 315.911 396.486 315.911 384.669ZM187.831 321.577C149.69 298.852 125.996 257.185 125.996 212.837C125.996 143.094 182.737 86.354 252.48 86.354C322.224 86.354 378.965 143.094 378.965 212.837C378.965 257.186 355.271 298.853 317.13 321.578C306.187 328.099 299.911 339.142 299.911 351.878V363.162H205.05V351.878C205.05 339.142 198.774 328.099 187.831 321.577ZM262.151 429.723H242.81C232.422 429.723 223.949 421.455 223.573 411.156H281.388C281.012 421.455 272.54 429.723 262.151 429.723ZM289.424 395.156H215.537C209.754 395.156 205.05 390.452 205.05 384.669V379.162H299.911V384.669C299.911 390.452 295.207 395.156 289.424 395.156ZM391.82 131.324C390.759 129.487 390.472 127.303 391.021 125.254C391.57 123.204 392.911 121.457 394.748 120.396L424.952 102.958C426.788 101.914 428.963 101.639 431.002 102.192C433.041 102.746 434.778 104.083 435.834 105.912C436.89 107.742 437.18 109.915 436.64 111.957C436.1 114 434.774 115.746 432.952 116.814L402.748 134.252C401.838 134.778 400.834 135.119 399.792 135.256C398.751 135.393 397.692 135.324 396.677 135.052C395.663 134.78 394.711 134.311 393.878 133.671C393.044 133.032 392.345 132.234 391.82 131.324ZM244.481 42.877V8C244.481 5.87827 245.324 3.84344 246.824 2.34315C248.324 0.842855 250.359 0 252.481 0C254.603 0 256.638 0.842855 258.138 2.34315C259.638 3.84344 260.481 5.87827 260.481 8V42.877C260.481 44.9987 259.638 47.0336 258.138 48.5339C256.638 50.0341 254.603 50.877 252.481 50.877C250.359 50.877 248.324 50.0341 246.824 48.5339C245.324 47.0336 244.481 44.9987 244.481 42.877ZM143.667 39.3C142.623 37.4635 142.348 35.2886 142.901 33.2499C143.455 31.2111 144.792 29.4741 146.621 28.4178C148.451 27.3615 150.624 27.0717 152.666 27.6117C154.709 28.1517 156.455 29.4775 157.523 31.3L174.962 61.503C176.023 63.3406 176.31 65.5243 175.761 67.5738C175.212 69.6233 173.871 71.3706 172.034 72.4315C170.196 73.4924 168.012 73.7798 165.963 73.2306C163.913 72.6814 162.166 71.3406 161.105 69.503L143.667 39.3ZM69.081 105.885C69.6061 104.975 70.3054 104.177 71.1388 103.538C71.9723 102.898 72.9236 102.429 73.9384 102.157C74.9532 101.885 76.0117 101.816 77.0533 101.953C78.0949 102.09 79.0993 102.431 80.009 102.957L110.213 120.395C111.123 120.92 111.92 121.62 112.56 122.453C113.199 123.287 113.668 124.238 113.94 125.253C114.212 126.268 114.281 127.326 114.144 128.368C114.007 129.409 113.666 130.414 113.141 131.324C112.615 132.233 111.916 133.031 111.082 133.67C110.249 134.31 109.297 134.779 108.283 135.051C107.268 135.322 106.209 135.392 105.168 135.255C104.126 135.117 103.122 134.776 102.212 134.251L72.008 116.813C70.1708 115.752 68.8303 114.005 68.2814 111.955C67.7325 109.906 68.0201 107.722 69.081 105.885ZM330 61.503L347.438 31.3C348.506 29.4775 350.252 28.1517 352.295 27.6117C354.337 27.0717 356.51 27.3615 358.34 28.4178C360.169 29.4741 361.506 31.2111 362.06 33.2499C362.613 35.2886 362.338 37.4635 361.294 39.3L343.856 69.503C343.331 70.4131 342.632 71.2108 341.798 71.8506C340.965 72.4903 340.013 72.9596 338.998 73.2315C337.983 73.5034 336.925 73.5727 335.883 73.4353C334.841 73.298 333.837 72.9567 332.927 72.431C331.09 71.3699 329.749 69.6225 329.2 67.5732C328.651 65.5238 328.939 63.3403 330 61.503ZM227.306 305.018V315.922C227.306 318.044 228.149 320.079 229.649 321.579C231.149 323.079 233.184 323.922 235.306 323.922H269.656C271.778 323.922 273.813 323.079 275.313 321.579C276.813 320.079 277.656 318.044 277.656 315.922V305.018C285.376 302.917 292.797 299.841 299.74 295.864L307.455 303.579C308.198 304.322 309.079 304.912 310.05 305.314C311.021 305.717 312.061 305.924 313.112 305.924C314.163 305.924 315.203 305.717 316.174 305.315C317.144 304.913 318.026 304.323 318.769 303.58L343.059 279.291C344.559 277.79 345.401 275.756 345.401 273.634C345.401 271.512 344.559 269.478 343.059 267.977L335.343 260.261C339.32 253.318 342.397 245.897 344.498 238.177H355.403C357.525 238.177 359.56 237.334 361.06 235.834C362.56 234.334 363.403 232.299 363.403 230.177V195.827C363.403 193.705 362.56 191.67 361.06 190.17C359.56 188.67 357.525 187.827 355.403 187.827H344.497C342.395 180.107 339.319 172.687 335.343 165.744L343.059 158.027C343.802 157.284 344.391 156.403 344.793 155.432C345.196 154.462 345.403 153.421 345.403 152.371C345.403 151.321 345.196 150.28 344.793 149.31C344.391 148.339 343.802 147.458 343.059 146.715L318.77 122.425C318.027 121.682 317.145 121.093 316.175 120.691C315.204 120.289 314.164 120.082 313.113 120.082C312.062 120.082 311.022 120.289 310.051 120.691C309.081 121.093 308.199 121.682 307.456 122.425L299.739 130.142C292.796 126.166 285.376 123.09 277.656 120.988V110.082C277.656 107.96 276.813 105.925 275.313 104.425C273.813 102.925 271.778 102.082 269.656 102.082H235.306C233.184 102.082 231.149 102.925 229.649 104.425C228.149 105.925 227.306 107.96 227.306 110.082V120.987C219.586 123.088 212.165 126.164 205.222 130.14L197.506 122.424C196.006 120.924 193.971 120.082 191.85 120.082C189.728 120.082 187.693 120.924 186.193 122.424L161.904 146.713C161.161 147.456 160.572 148.338 160.17 149.308C159.768 150.279 159.561 151.319 159.561 152.37C159.561 153.421 159.768 154.461 160.17 155.432C160.572 156.402 161.161 157.284 161.904 158.027L169.62 165.743C165.643 172.685 162.567 180.106 160.465 187.826H149.561C147.439 187.826 145.404 188.669 143.904 190.169C142.404 191.669 141.561 193.704 141.561 195.826V230.176C141.561 232.298 142.404 234.333 143.904 235.833C145.404 237.333 147.439 238.176 149.561 238.176H160.465C162.567 245.896 165.643 253.318 169.619 260.261L161.904 267.976C160.404 269.477 159.562 271.511 159.562 273.633C159.562 275.755 160.404 277.789 161.904 279.29L186.193 303.579C187.693 305.079 189.728 305.921 191.85 305.921C193.971 305.921 196.006 305.079 197.506 303.579L205.222 295.863C212.164 299.841 219.586 302.917 227.306 305.018ZM198.385 280.074L191.85 286.609L178.874 273.633L185.409 267.099C186.717 265.791 187.532 264.069 187.714 262.228C187.896 260.387 187.434 258.539 186.407 257C180.655 248.404 176.656 238.756 174.64 228.611C174.278 226.797 173.299 225.164 171.868 223.99C170.438 222.817 168.645 222.175 166.795 222.175H157.561V203.825H166.795C168.645 203.825 170.438 203.184 171.869 202.01C173.3 200.837 174.279 199.204 174.641 197.389C176.656 187.244 180.655 177.597 186.408 169.001C187.435 167.462 187.897 165.615 187.715 163.774C187.533 161.932 186.718 160.211 185.41 158.903L178.874 152.368L191.85 139.392L198.386 145.928C199.694 147.236 201.416 148.05 203.257 148.232C205.098 148.414 206.945 147.952 208.484 146.925C217.08 141.173 226.727 137.174 236.872 135.159C238.687 134.797 240.32 133.818 241.493 132.387C242.667 130.956 243.308 129.163 243.308 127.313V118.078H261.658V127.313C261.658 129.163 262.299 130.956 263.473 132.387C264.646 133.818 266.279 134.797 268.094 135.159C278.239 137.174 287.886 141.173 296.482 146.926C298.021 147.953 299.868 148.415 301.709 148.234C303.55 148.052 305.271 147.237 306.579 145.929L313.116 139.392L326.091 152.368L319.555 158.905C318.247 160.213 317.432 161.935 317.251 163.776C317.069 165.617 317.531 167.464 318.558 169.003C324.31 177.598 328.309 187.245 330.324 197.389C330.686 199.203 331.665 200.836 333.096 202.01C334.526 203.183 336.319 203.825 338.169 203.825H347.405V222.175H338.169C336.319 222.175 334.525 222.816 333.095 223.99C331.664 225.164 330.685 226.797 330.323 228.612C328.308 238.757 324.31 248.404 318.557 257C317.53 258.539 317.068 260.386 317.25 262.227C317.432 264.069 318.247 265.79 319.555 267.098L326.091 273.633L313.115 286.609L306.58 280.074C305.272 278.766 303.55 277.951 301.709 277.77C299.868 277.588 298.021 278.05 296.482 279.077C287.886 284.829 278.239 288.828 268.095 290.843C266.28 291.205 264.647 292.184 263.474 293.615C262.3 295.046 261.659 296.839 261.659 298.689V307.923H243.309V298.689C243.309 296.839 242.668 295.045 241.494 293.615C240.32 292.184 238.687 291.205 236.872 290.843C226.727 288.828 217.081 284.83 208.485 279.077C206.946 278.05 205.098 277.588 203.257 277.77C201.415 277.952 199.694 278.766 198.385 280.074ZM252.481 274.342C286.304 274.342 313.821 246.825 313.821 213.002C313.821 179.179 286.304 151.662 252.481 151.662C218.658 151.662 191.141 179.18 191.141 213.003C191.141 246.826 218.658 274.342 252.481 274.342ZM247.71 258.09V224.057C247.71 221.935 246.867 219.9 245.367 218.4C243.867 216.9 241.832 216.057 239.71 216.057H236.612L252.481 195.522L268.35 216.057H265.252C263.13 216.057 261.095 216.9 259.595 218.4C258.095 219.9 257.252 221.935 257.252 224.057V258.09C255.667 258.257 254.075 258.341 252.481 258.342C250.87 258.342 249.278 258.254 247.71 258.09ZM252.481 167.662C277.481 167.662 297.821 188.002 297.821 213.003C297.821 230.52 287.829 245.738 273.252 253.285V232.058H277.736C282.114 232.058 286.036 229.613 287.971 225.675C289.897 221.757 289.428 217.168 286.748 213.7L261.495 181.019C260.434 179.637 259.069 178.519 257.505 177.751C255.942 176.983 254.222 176.586 252.48 176.592C250.738 176.587 249.019 176.983 247.455 177.751C245.892 178.52 244.527 179.638 243.467 181.02L218.213 213.701C215.534 217.169 215.066 221.757 216.99 225.674C218.925 229.612 222.847 232.058 227.224 232.058H231.709V253.285C217.131 245.738 207.14 230.52 207.14 213.003C207.141 188.002 227.48 167.662 252.481 167.662Z" fill="#00E9E2"/>
</svg>
