<svg width="460" height="463" viewBox="0 0 460 463" fill="none" xmlns="http://www.w3.org/2000/svg">
<path fill-rule="evenodd" clip-rule="evenodd" d="M194.314 345.458L181.514 338.067L181.52 338.057C163.569 327.712 141.203 344.066 146.752 364.775C148.298 370.546 152.194 376.08 157.781 379.205L195.427 400.94C195.566 401.013 195.703 401.092 195.837 401.177L275.022 446.894L275.016 446.904C280.656 450.154 287.133 450.799 293.027 449.22C313.613 443.704 316.802 416.177 298.754 405.756L194.314 345.458ZM416.903 153.505C416.903 151.914 417.535 150.388 418.66 149.262C419.785 148.137 421.311 147.505 422.903 147.505C424.494 147.505 426.02 148.137 427.145 149.262C428.271 150.388 428.903 151.914 428.903 153.505V202.291C428.903 203.882 428.271 205.408 427.145 206.534C426.02 207.659 424.494 208.291 422.903 208.291H359.811C358.219 208.291 356.693 207.659 355.568 206.534C354.443 205.408 353.811 203.882 353.811 202.291C353.811 200.7 354.443 199.174 355.568 198.048C356.693 196.923 358.219 196.291 359.811 196.291H416.903V153.505ZM125.958 159.934C126.733 161.307 126.935 162.931 126.518 164.452C126.101 165.972 125.1 167.267 123.733 168.052C122.366 168.838 120.744 169.051 119.22 168.646C117.696 168.24 116.394 167.248 115.599 165.887L101.646 141.719C100.87 140.346 100.669 138.722 101.085 137.201C101.502 135.681 102.503 134.386 103.87 133.601C105.238 132.815 106.86 132.602 108.384 133.007C109.907 133.413 111.209 134.405 112.005 135.766L125.958 159.934ZM55.8417 38.489C56.2326 39.1692 56.4858 39.9197 56.5867 40.6977C56.6876 41.4758 56.6342 42.266 56.4297 43.0234C56.2252 43.7808 55.8735 44.4905 55.3947 45.112C54.9159 45.7335 54.3194 46.2546 53.6392 46.6455C52.959 47.0365 52.2085 47.2896 51.4305 47.3905C50.6525 47.4914 49.8622 47.4381 49.1048 47.2335C48.3474 47.029 47.6377 46.6773 47.0162 46.1985C46.3947 45.7197 45.8736 45.1232 45.4827 44.443L31.5287 20.275C30.753 18.9022 30.5516 17.2783 30.9683 15.7575C31.3851 14.2367 32.3862 12.9424 33.7533 12.1567C35.1205 11.371 36.7429 11.1578 38.2667 11.5634C39.7904 11.969 41.0921 12.9606 41.8877 14.322L55.8417 38.489ZM154.526 126.959C155.887 127.755 156.879 129.056 157.284 130.58C157.69 132.104 157.477 133.726 156.691 135.093C155.905 136.461 154.611 137.462 153.09 137.878C151.569 138.295 149.946 138.094 148.573 137.318L138.762 131.654C138.075 131.266 137.473 130.747 136.988 130.125C136.504 129.503 136.147 128.792 135.939 128.032C135.73 127.271 135.675 126.478 135.775 125.696C135.874 124.914 136.128 124.16 136.521 123.476C136.913 122.793 137.438 122.194 138.063 121.714C138.688 121.234 139.402 120.883 140.164 120.68C140.925 120.477 141.72 120.427 142.501 120.533C143.282 120.638 144.034 120.897 144.715 121.295L154.526 126.959ZM18.7247 48.554C19.4109 48.9417 20.0136 49.4614 20.4981 50.0831C20.9826 50.7048 21.3393 51.4163 21.5476 52.1764C21.7559 52.9366 21.8117 53.7304 21.7119 54.5123C21.612 55.2941 21.3584 56.0485 20.9657 56.7318C20.5729 57.4152 20.0489 58.0141 19.4236 58.4941C18.7984 58.974 18.0844 59.3255 17.3227 59.5282C16.5611 59.731 15.7668 59.781 14.9857 59.6754C14.2047 59.5698 13.4522 59.3107 12.7717 58.913L2.95969 53.249C1.59829 52.4534 0.606669 51.1518 0.201048 49.628C-0.204573 48.1042 0.00870448 46.4819 0.794377 45.1147C1.58005 43.7475 2.87439 42.7464 4.39517 42.3297C5.91595 41.9129 7.53981 42.1144 8.91269 42.89L18.7247 48.554ZM148.55 42.89C149.23 42.4961 149.981 42.2399 150.76 42.1363C151.54 42.0326 152.332 42.0835 153.091 42.2859C153.851 42.4883 154.563 42.8384 155.187 43.3161C155.812 43.7938 156.336 44.3898 156.73 45.07C157.124 45.7503 157.38 46.5015 157.483 47.2807C157.587 48.0599 157.536 48.8519 157.334 49.6115C157.131 50.3711 156.781 51.0834 156.304 51.7077C155.826 52.332 155.23 52.8561 154.55 53.25L144.739 58.914C143.365 59.7097 141.731 59.927 140.197 59.5182C138.663 59.1093 137.354 58.1078 136.559 56.734C135.763 55.3602 135.546 53.7266 135.955 52.1925C136.363 50.6585 137.365 49.3497 138.739 48.554L148.55 42.89ZM12.7717 121.295C14.1446 120.519 15.7684 120.318 17.2892 120.735C18.81 121.151 20.1043 122.153 20.89 123.52C21.6757 124.887 21.8889 126.509 21.4833 128.033C21.0777 129.557 20.0861 130.858 18.7247 131.654L8.91369 137.318C7.54081 138.094 5.91695 138.295 4.39617 137.878C2.87539 137.462 1.58105 136.461 0.795376 135.093C0.00970393 133.726 -0.203574 132.104 0.202048 130.58C0.607669 129.056 1.59929 127.755 2.96069 126.959L12.7717 121.295ZM115.599 14.321C116.394 12.9596 117.696 11.968 119.22 11.5624C120.744 11.1568 122.366 11.37 123.733 12.1557C125.1 12.9414 126.101 14.2357 126.518 15.7565C126.935 17.2773 126.733 18.9012 125.958 20.274L112.005 44.442C111.215 45.8157 109.912 46.8195 108.383 47.2325C106.853 47.6456 105.222 47.4341 103.848 46.6445C102.474 45.855 101.471 44.5521 101.058 43.0224C100.645 41.4928 100.856 39.8617 101.646 38.488L115.599 14.321ZM45.4827 135.766C45.8704 135.08 46.3901 134.477 47.0118 133.993C47.6335 133.508 48.3449 133.151 49.1051 132.943C49.8652 132.735 50.6591 132.679 51.4409 132.779C52.2228 132.879 52.9771 133.132 53.6605 133.525C54.3439 133.918 54.9428 134.442 55.4227 135.067C55.9027 135.692 56.2541 136.406 56.4569 137.168C56.6596 137.93 56.7097 138.724 56.6041 139.505C56.4985 140.286 56.2394 141.039 55.8417 141.719L41.8887 165.887C41.0931 167.248 39.7914 168.24 38.2677 168.646C36.7439 169.051 35.1215 168.838 33.7543 168.052C32.3872 167.267 31.3861 165.972 30.9693 164.452C30.5526 162.931 30.754 161.307 31.5297 159.934L45.4827 135.766ZM72.7437 6.03503C72.7437 4.44373 73.3758 2.9176 74.501 1.79239C75.6263 0.667168 77.1524 0.0350254 78.7437 0.0350254C80.335 0.0350254 81.8611 0.667168 82.9863 1.79239C84.1115 2.9176 84.7437 4.44373 84.7437 6.03503V38.618C84.7437 40.2093 84.1115 41.7354 82.9863 42.8607C81.8611 43.9859 80.335 44.618 78.7437 44.618C77.1524 44.618 75.6263 43.9859 74.501 42.8607C73.3758 41.7354 72.7437 40.2093 72.7437 38.618V6.03503ZM72.7437 141.591V202.292C72.7437 203.883 73.3758 205.409 74.501 206.535C75.6263 207.66 77.1524 208.292 78.7437 208.292H141.836C143.427 208.292 144.953 207.66 146.078 206.535C147.204 205.409 147.836 203.883 147.836 202.292C147.836 200.701 147.204 199.175 146.078 198.049C144.953 196.924 143.427 196.292 141.836 196.292H84.7437V141.591C84.7437 140 84.1115 138.474 82.9863 137.348C81.8611 136.223 80.335 135.591 78.7437 135.591C77.1524 135.591 75.6263 136.223 74.501 137.348C73.3758 138.474 72.7437 140 72.7437 141.591ZM111.012 70.651C118.223 82.586 118.223 97.622 111.012 109.557C121.326 105.038 130.582 98.4115 138.185 90.104C130.617 81.843 121.366 75.177 111.012 70.651ZM46.4747 109.557C39.2637 97.622 39.2637 82.586 46.4747 70.651C36.1602 75.1707 26.9046 81.7968 19.3017 90.104C26.9045 98.4114 36.1602 105.037 46.4747 109.557ZM96.8987 71.949C80.7687 55.819 53.0697 67.298 53.0697 90.104C53.0697 112.91 80.7687 124.388 96.8987 108.259C106.924 98.233 106.924 81.975 96.8987 71.949ZM150.688 93.97C151.586 92.9035 152.084 91.5576 152.098 90.1635C152.112 88.7694 151.639 87.414 150.763 86.33C133.281 64.725 107.012 51.935 78.7427 51.935C50.1557 51.935 24.6967 64.622 6.79969 86.236C5.90108 87.3023 5.40187 88.6483 5.38782 90.0427C5.37376 91.4371 5.84575 92.7928 6.72268 93.877C43.7807 139.675 113.572 139.715 150.688 93.97ZM220.378 133.618C218.906 134.149 217.285 134.081 215.863 133.429C214.441 132.778 213.331 131.594 212.772 130.133C212.213 128.672 212.25 127.049 212.875 125.615C213.499 124.181 214.661 123.049 216.112 122.462C238.448 113.905 263.001 113.904 285.337 122.463C286.808 123.035 287.993 124.165 288.633 125.608C289.273 127.051 289.316 128.688 288.752 130.163C288.188 131.637 287.064 132.828 285.625 133.476C284.185 134.123 282.548 134.175 281.071 133.619C261.656 126.178 239.794 126.164 220.378 133.618ZM166.056 212.712C166.056 186.852 177.713 162.913 197.422 146.907C198.652 145.906 199.435 144.458 199.598 142.88C199.76 141.302 199.289 139.724 198.289 138.493C197.288 137.262 195.839 136.48 194.261 136.317C192.683 136.154 191.105 136.625 189.875 137.626C167.347 155.922 154.056 183.207 154.056 212.712C154.056 214.303 154.688 215.829 155.813 216.955C156.938 218.08 158.464 218.712 160.056 218.712C161.647 218.712 163.173 218.08 164.298 216.955C165.424 215.829 166.056 214.303 166.056 212.712ZM304.028 146.907C302.797 145.906 302.014 144.458 301.852 142.88C301.689 141.302 302.16 139.724 303.161 138.493C304.161 137.262 305.61 136.48 307.188 136.317C308.766 136.154 310.344 136.625 311.575 137.626C334.103 155.923 347.394 183.208 347.394 212.712C347.394 214.303 346.762 215.829 345.636 216.955C344.511 218.08 342.985 218.712 341.394 218.712C339.802 218.712 338.276 218.08 337.151 216.955C336.026 215.829 335.394 214.303 335.394 212.712C335.394 186.87 323.732 162.891 304.028 146.907ZM233.648 158.393C232.131 158.859 230.491 158.704 229.089 157.961C227.687 157.218 226.638 155.949 226.172 154.432C225.706 152.915 225.861 151.276 226.604 149.874C227.347 148.472 228.616 147.422 230.133 146.956C243.548 142.813 257.902 142.813 271.318 146.956C272.815 147.438 274.063 148.49 274.79 149.885C275.517 151.28 275.666 152.905 275.204 154.409C274.742 155.913 273.706 157.174 272.321 157.919C270.935 158.665 269.312 158.835 267.803 158.393C256.782 155.001 244.668 154.997 233.648 158.393ZM192.863 213.712C192.863 215.303 192.231 216.829 191.105 217.955C189.98 219.08 188.454 219.712 186.863 219.712C185.271 219.712 183.745 219.08 182.62 217.955C181.495 216.829 180.863 215.303 180.863 213.712C180.863 194.083 189.07 175.662 203.215 162.516C203.789 161.972 204.465 161.546 205.204 161.265C205.943 160.983 206.731 160.851 207.522 160.875C208.313 160.9 209.091 161.081 209.811 161.408C210.531 161.735 211.18 162.202 211.719 162.781C212.257 163.36 212.676 164.041 212.951 164.783C213.225 165.525 213.35 166.314 213.317 167.104C213.285 167.895 213.096 168.671 212.762 169.388C212.428 170.105 211.955 170.749 211.371 171.282C199.606 182.216 192.863 197.357 192.863 213.712ZM290.079 171.282C301.842 182.201 308.587 197.373 308.587 213.712C308.587 215.303 309.219 216.829 310.344 217.955C311.469 219.08 312.995 219.712 314.587 219.712C316.178 219.712 317.704 219.08 318.829 217.955C319.955 216.829 320.587 215.303 320.587 213.712C320.587 194.083 312.38 175.662 298.235 162.517C297.068 161.463 295.533 160.91 293.962 160.978C292.391 161.046 290.91 161.73 289.838 162.881C288.767 164.032 288.192 165.559 288.237 167.131C288.282 168.703 288.943 170.194 290.079 171.282ZM427.99 52.496V75.408C427.99 76.9993 427.358 78.5254 426.232 79.6507C425.107 80.7759 423.581 81.408 421.99 81.408C420.398 81.408 418.872 80.7759 417.747 79.6507C416.622 78.5254 415.99 76.9993 415.99 75.408V52.496C413.44 51.3413 411.277 49.4761 409.76 47.1236C408.242 44.7712 407.436 42.0313 407.436 39.232C407.436 37.6407 408.068 36.1146 409.193 34.9894C410.318 33.8642 411.844 33.232 413.436 33.232C415.027 33.232 416.553 33.8642 417.678 34.9894C418.804 36.1146 419.436 37.6407 419.436 39.232C419.436 42.596 424.545 42.596 424.545 39.232C424.545 37.6407 425.177 36.1146 426.302 34.9894C427.427 33.8642 428.953 33.232 430.545 33.232C432.136 33.232 433.662 33.8642 434.787 34.9894C435.913 36.1146 436.545 37.6407 436.545 39.232C436.545 42.0314 435.738 44.7714 434.22 47.1238C432.703 49.4763 430.54 51.3415 427.99 52.496ZM406.466 107.319H437.395V97.964H406.467V107.319H406.466ZM436.91 119.32H406.951C408.497 124.75 413.515 128.675 419.302 128.675C424.862 128.675 429.262 129.258 433.619 124.9C435.173 123.351 436.306 121.43 436.91 119.32ZM411.726 85.965H433.635L445.936 45.287C448.379 37.193 447.359 29.352 442.409 22.492C432.136 8.25403 410.74 8.57003 400.934 23.253C396.289 30.207 395.293 38.955 398.509 46.872C398.602 47.102 398.68 47.335 398.743 47.569L411.726 85.965ZM445.99 86.553L457.42 48.755C458.645 44.694 459.228 41.338 459.228 37.337C459.228 21.367 448.767 6.83903 433.526 1.87003C409.167 -6.07097 384.634 12.319 384.634 37.373C384.634 42.474 385.508 46.34 387.41 51.391L399.149 86.109C397.82 86.4088 396.633 87.1517 395.782 88.2155C394.931 89.2793 394.468 90.6009 394.468 91.963V115.837C394.468 129.509 405.634 140.673 419.304 140.673H424.561C438.233 140.673 449.397 129.509 449.397 115.837V91.963C449.396 90.832 449.076 89.7241 448.473 88.767C447.87 87.8099 447.009 87.0425 445.99 86.553ZM194.269 414.096L238.766 439.786L226.453 446.895C220.809 450.153 214.324 450.802 208.425 449.221C202.581 447.655 197.336 443.909 194.079 438.358C191.678 433.483 190.746 428.226 191.292 423.242C191.645 420.013 192.637 416.901 194.269 414.096ZM250.714 446.684L232.406 457.254C215.462 467.037 193.832 461.384 183.702 444.283C183.619 444.146 183.542 444.007 183.471 443.864C177.749 432.421 177.582 418.995 183.894 408.106L152.165 389.787C143.652 385.269 137.512 376.596 135.174 367.87C130.058 348.775 141.333 329.276 160.415 324.163C169.128 321.828 179.135 322.777 187.508 327.718L187.514 327.708L190.934 329.682V307.878C170.499 303.602 148.635 298.032 128.12 294.354C115.275 292.051 104.209 284.745 99.1627 272.415C89.7537 249.428 108.61 225.811 130.17 229.673C158.923 234.824 187.365 242.969 215.96 247.428C198.269 228.638 198.718 199.2 216.967 180.951C235.612 162.306 265.838 162.306 284.483 180.951C302.896 199.364 303.164 229.132 285.07 247.869C313.698 243.579 342.349 235.151 371.172 229.719C392.537 225.693 411.596 249.192 402.438 272.475C397.614 284.739 386.486 292.02 373.791 294.4C352.928 298.312 331.306 304.017 310.517 308.365V329.682L313.937 327.707L313.943 327.717C330.632 317.868 352.852 323.658 362.732 340.77L362.722 340.776C372.57 357.463 366.795 379.664 349.647 389.564L317.572 408.082C329.603 428.385 319.06 454.65 296.121 460.797C287.408 463.132 277.401 462.184 269.028 457.242L269.022 457.252L250.714 446.684ZM309.683 398.841L304.754 395.396L262.697 371.114L319.937 338.066L319.931 338.056C331.208 331.557 345.846 335.466 352.372 346.769L352.382 346.763C358.881 358.041 354.958 372.7 343.693 379.204L309.683 398.841ZM250.726 364.203L202.934 336.61V302.984C202.934 301.569 202.434 300.2 201.522 299.118C200.61 298.036 199.346 297.31 197.952 297.07C187.77 295.031 178.474 292.918 169.177 290.806C156.287 287.878 143.393 284.948 130.23 282.588C124.476 281.556 118.788 279.074 114.772 274.86C100.87 260.274 113.021 238.743 128.061 241.438C168.726 248.724 209.02 262.129 250.723 262.484C292.459 262.839 332.8 249.128 373.377 241.483C375.758 241.035 378.082 241.247 380.226 241.936C397.417 247.46 399.087 277.478 371.589 282.633C348.461 286.969 326.544 292.963 303.347 297.585C301.986 297.856 300.761 298.591 299.881 299.663C299.001 300.736 298.52 302.081 298.52 303.468L298.519 336.609L250.726 364.203ZM275.999 189.435C262.042 175.477 239.408 175.478 225.451 189.435C211.494 203.392 211.494 226.026 225.451 239.983C239.408 253.94 262.042 253.94 275.999 239.983C289.956 226.026 289.957 203.391 275.999 189.435Z" fill="#00E9E2"/>
</svg>
