<svg width="496" height="480" viewBox="0 0 496 480" fill="none" xmlns="http://www.w3.org/2000/svg">
<path d="M248.004 376C322.996 376 384.004 314.992 384.004 240C384.004 165.008 322.996 104 248.004 104C173.012 104 112.004 165.008 112.004 240C112.004 314.992 173.012 376 248.004 376ZM248.004 120C314.172 120 368.004 173.832 368.004 240C368.004 306.168 314.172 360 248.004 360C181.836 360 128.004 306.168 128.004 240C128.004 173.832 181.836 120 248.004 120Z" fill="#00E9E2"/>
<path d="M296.004 296H328.004C330.126 296 332.16 295.157 333.661 293.657C335.161 292.157 336.004 290.122 336.004 288V184C336.004 181.878 335.161 179.843 333.661 178.343C332.16 176.843 330.126 176 328.004 176H296.004C293.882 176 291.847 176.843 290.347 178.343C288.847 179.843 288.004 181.878 288.004 184V288C288.004 290.122 288.847 292.157 290.347 293.657C291.847 295.157 293.882 296 296.004 296ZM304.004 192H320.004V280H304.004V192ZM232.004 296H264.004C266.126 296 268.16 295.157 269.661 293.657C271.161 292.157 272.004 290.122 272.004 288V208C272.004 205.878 271.161 203.843 269.661 202.343C268.16 200.843 266.126 200 264.004 200H232.004C229.882 200 227.847 200.843 226.347 202.343C224.847 203.843 224.004 205.878 224.004 208V288C224.004 290.122 224.847 292.157 226.347 293.657C227.847 295.157 229.882 296 232.004 296ZM240.004 216H256.004V280H240.004V216ZM200.004 296C202.126 296 204.16 295.157 205.661 293.657C207.161 292.157 208.004 290.122 208.004 288V240C208.004 237.878 207.161 235.843 205.661 234.343C204.16 232.843 202.126 232 200.004 232H168.004C165.882 232 163.847 232.843 162.347 234.343C160.847 235.843 160.004 237.878 160.004 240V288C160.004 290.122 160.847 292.157 162.347 293.657C163.847 295.157 165.882 296 168.004 296H200.004ZM176.004 248H192.004V280H176.004V248Z" fill="#00E9E2"/>
<path d="M87.0199 190.24C85.4519 195.68 81.4999 199.904 76.4439 201.544L55.0039 208.512C53.5522 208.985 52.2659 209.862 51.2964 211.042C50.3269 212.221 49.7147 213.653 49.5319 215.168C48.5159 223.656 48.0039 232.008 48.0039 240C48.0039 247.992 48.5159 256.344 49.5399 264.832C49.7218 266.348 50.3336 267.781 51.3032 268.96C52.2729 270.14 53.5597 271.017 55.0119 271.488L76.4519 278.456C81.5079 280.096 85.4599 284.328 87.0279 289.768C87.8039 292.456 88.6439 295.12 89.5399 297.76C90.4622 300.418 90.7401 303.256 90.3507 306.042C89.9612 308.828 88.9156 311.482 87.2999 313.784L74.5159 331.656C73.6319 332.891 73.1174 334.351 73.0324 335.867C72.9474 337.382 73.2955 338.891 74.0359 340.216C82.2162 354.83 92.1629 368.383 103.652 380.568C104.713 381.695 106.078 382.49 107.583 382.855C109.087 383.22 110.664 383.14 112.124 382.624L131.46 375.832C133.919 374.988 136.554 374.785 139.114 375.241C141.674 375.697 144.075 376.798 146.092 378.44C148.204 380.12 150.356 381.752 152.54 383.328C157.036 386.56 159.676 391.872 159.612 397.536L159.388 417.064C159.356 420.2 161.148 423.064 163.98 424.4C179.26 431.6 195.46 436.808 212.116 439.88C213.639 440.156 215.209 439.983 216.636 439.384C218.063 438.785 219.286 437.785 220.156 436.504L230.508 421.32C233.572 416.824 238.62 414.432 243.884 414.344C246.62 414.416 249.372 414.416 252.124 414.344C257.452 414.048 262.428 416.824 265.492 421.32L275.836 436.504C276.707 437.789 277.934 438.791 279.366 439.388C280.799 439.985 282.375 440.151 283.9 439.864C300.544 436.796 316.723 431.593 332.036 424.384C334.868 423.048 336.66 420.184 336.628 417.056L336.404 397.528C336.357 394.767 336.974 392.036 338.203 389.563C339.433 387.09 341.238 384.949 343.468 383.32C345.652 381.744 347.804 380.12 349.916 378.44C351.932 376.794 354.335 375.691 356.897 375.234C359.459 374.778 362.096 374.984 364.556 375.832L383.892 382.624C386.868 383.664 390.196 382.872 392.364 380.568C403.854 368.386 413.798 354.833 421.972 340.216C422.713 338.892 423.063 337.384 422.979 335.868C422.896 334.352 422.383 332.891 421.5 331.656L408.716 313.784C407.099 311.482 406.053 308.829 405.663 306.043C405.274 303.256 405.552 300.418 406.476 297.76C407.372 295.12 408.212 292.456 408.988 289.768C410.556 284.328 414.508 280.104 419.564 278.464L441.004 271.496C443.972 270.528 446.1 267.936 446.476 264.84C447.492 256.344 448.004 247.992 448.004 240C448.004 232.008 447.492 223.656 446.468 215.168C446.286 213.652 445.674 212.22 444.705 211.041C443.735 209.861 442.448 208.984 440.996 208.512L419.556 201.544C414.5 199.904 410.548 195.672 408.98 190.232C408.204 187.549 407.367 184.885 406.468 182.24C405.546 179.583 405.268 176.744 405.657 173.959C406.047 171.173 407.092 168.519 408.708 166.216L421.492 148.344C422.376 147.11 422.89 145.65 422.975 144.134C423.06 142.618 422.712 141.11 421.972 139.784C413.792 125.17 403.845 111.618 392.356 99.4324C391.295 98.3054 389.929 97.5111 388.425 97.146C386.921 96.781 385.343 96.8611 383.884 97.3764L364.548 104.168C359.62 105.912 354.148 104.928 349.916 101.56C347.804 99.8804 345.652 98.2484 343.468 96.6724C341.236 95.0448 339.429 92.9043 338.198 90.4315C336.967 87.9587 336.349 85.2262 336.396 82.4644L336.62 62.9364C336.652 59.8004 334.86 56.9364 332.028 55.6004C316.715 48.3909 300.536 43.1879 283.892 40.1204C282.368 39.8453 280.797 40.016 279.368 40.612C277.939 41.2081 276.713 42.2041 275.836 43.4804L265.484 58.6644C264.005 60.8426 262.009 62.6199 259.675 63.8374C257.34 65.0548 254.74 65.6743 252.108 65.6404C249.362 65.5684 246.614 65.5684 243.868 65.6404C241.23 65.7128 238.617 65.11 236.278 63.8891C233.938 62.6682 231.949 60.8698 230.5 58.6644L220.156 43.4804C219.283 42.1982 218.056 41.1977 216.624 40.6011C215.192 40.0045 213.617 39.8375 212.092 40.1204C195.448 43.1891 179.269 48.3921 163.956 55.6004C162.57 56.255 161.401 57.2933 160.587 58.5921C159.773 59.8909 159.349 61.3958 159.364 62.9284L159.588 82.4564C159.635 85.2174 159.018 87.9492 157.789 90.4219C156.559 92.8945 154.754 95.0354 152.524 96.6644C150.34 98.2404 148.188 99.8644 146.076 101.544C144.058 103.187 141.655 104.289 139.094 104.745C136.532 105.201 133.897 104.997 131.436 104.152L112.1 97.3604C110.64 96.8471 109.063 96.7681 107.559 97.133C106.056 97.498 104.69 98.2911 103.628 99.4164C92.1377 111.599 82.1934 125.152 74.0199 139.768C73.2783 141.093 72.9289 142.601 73.0125 144.117C73.0961 145.633 73.6092 147.093 74.4919 148.328L87.2759 166.2C90.5399 170.76 91.3719 176.752 89.5079 182.224C88.6439 184.888 87.8039 187.552 87.0199 190.24ZM100.316 156.92L90.5239 143.232C96.6712 132.905 103.794 123.192 111.796 114.224L126.148 119.264C131.162 121.016 136.54 121.458 141.772 120.551C147.005 119.644 151.92 117.417 156.052 114.08C157.964 112.56 159.908 111.088 161.884 109.664C166.196 106.534 169.692 102.413 172.079 97.6488C174.465 92.8845 175.671 87.6164 175.596 82.2884L175.428 67.9764C186.521 63.1324 198.072 59.4151 209.908 56.8804L217.268 67.6884C220.245 72.0826 224.274 75.662 228.989 78.1003C233.704 80.5386 238.953 81.7584 244.26 81.6484C246.748 81.5924 249.252 81.5924 251.716 81.6484C262.548 81.9924 272.572 76.7044 278.708 67.6884L286.084 56.8804C297.932 59.4164 309.492 63.1364 320.572 67.9764L320.404 82.2884C320.332 87.6167 321.541 92.8842 323.928 97.6481C326.316 102.412 329.812 106.533 334.124 109.664C336.1 111.088 338.044 112.56 339.956 114.08C344.088 117.42 349.004 119.649 354.239 120.556C359.474 121.463 364.853 121.019 369.868 119.264L384.22 114.224C392.22 123.184 399.348 132.912 405.492 143.232L395.7 156.912C392.607 161.283 390.598 166.326 389.839 171.625C389.079 176.925 389.591 182.33 391.332 187.392C392.148 189.8 392.908 192.224 393.62 194.68C396.66 205.224 404.516 213.48 414.62 216.768L431.132 222.128C431.708 228.24 432.004 234.232 432.004 240C432.004 245.768 431.708 251.76 431.124 257.872L414.62 263.232C404.508 266.512 396.66 274.768 393.612 285.32C392.908 287.776 392.14 290.2 391.324 292.6C389.586 297.664 389.075 303.068 389.835 308.367C390.594 313.666 392.602 318.709 395.692 323.08L405.476 336.768C399.329 347.095 392.205 356.809 384.204 365.776L369.852 360.736C364.839 358.981 359.46 358.535 354.226 359.443C348.993 360.35 344.078 362.58 339.948 365.92C338.036 367.44 336.092 368.912 334.116 370.336C329.804 373.467 326.307 377.588 323.921 382.352C321.535 387.116 320.328 392.384 320.404 397.712L320.572 412.024C309.479 416.868 297.928 420.586 286.092 423.12L278.732 412.312C275.842 408.021 271.944 404.503 267.379 402.068C262.814 399.633 257.722 398.354 252.548 398.344L251.74 398.352C249.252 398.408 246.748 398.408 244.284 398.352C238.973 398.214 233.713 399.422 228.993 401.863C224.274 404.304 220.249 407.898 217.292 412.312L209.924 423.12C198.085 420.587 186.531 416.87 175.436 412.024L175.604 397.712C175.676 392.384 174.467 387.117 172.08 382.353C169.692 377.589 166.195 373.468 161.884 370.336C159.908 368.912 157.964 367.44 156.052 365.92C147.484 359.104 136.308 357.152 126.14 360.736L111.788 365.776C103.788 356.816 96.6599 347.088 90.5159 336.768L100.308 323.088C103.401 318.718 105.41 313.675 106.169 308.375C106.929 303.076 106.417 297.671 104.676 292.608C103.859 290.196 103.096 287.766 102.388 285.32C99.3479 274.776 91.4919 266.52 81.3879 263.232L64.8759 257.872C64.2999 251.76 64.0039 245.768 64.0039 240C64.0039 234.232 64.2999 228.24 64.8839 222.128L81.3959 216.768C91.5079 213.48 99.3559 205.224 102.396 194.68C103.1 192.224 103.868 189.8 104.684 187.4C106.424 182.337 106.936 176.933 106.176 171.634C105.417 166.334 103.408 161.291 100.316 156.92Z" fill="#00E9E2"/>
<path d="M485.476 144.408L470.156 149.512C433.564 59.8 345.428 0 248.004 0C147.772 0 57.212 63.192 22.668 157.24L37.684 162.752C69.932 74.976 154.452 16 248.004 16C338.588 16 420.564 71.384 454.956 154.584L437.476 160.408C436.112 160.865 434.897 161.681 433.958 162.77C433.019 163.859 432.39 165.181 432.138 166.597C431.886 168.013 432.02 169.47 432.525 170.817C433.031 172.163 433.89 173.348 435.012 174.248L475.012 206.248C476.099 207.125 477.397 207.7 478.777 207.918C480.156 208.135 481.569 207.986 482.873 207.487C484.177 206.987 485.326 206.154 486.207 205.07C487.088 203.986 487.669 202.691 487.892 201.312L495.892 153.312C496.118 151.952 495.989 150.557 495.517 149.261C495.045 147.966 494.247 146.814 493.199 145.918C492.151 145.022 490.889 144.413 489.536 144.148C488.183 143.883 486.784 143.973 485.476 144.408ZM474.356 185.232L456.484 170.936L477.932 163.792L474.356 185.232ZM9.32404 327.888L23.788 325.48C59.084 418 148.764 480 248.004 480C348.236 480 438.796 416.808 473.34 322.76L458.324 317.248C426.076 405.024 341.556 464 248.004 464C156.46 464 73.7 407.456 39.964 322.784L57.316 319.888C58.6921 319.659 59.9844 319.075 61.0648 318.192C62.1451 317.31 62.976 316.16 63.4749 314.858C63.9738 313.555 64.1234 312.144 63.9089 310.766C63.6944 309.388 63.1232 308.089 62.252 307L30.252 267C29.3523 265.878 28.1671 265.019 26.8208 264.513C25.4745 264.008 24.0169 263.874 22.601 264.126C21.1851 264.378 19.8632 265.007 18.7742 265.946C17.6852 266.885 16.8692 268.1 16.412 269.464L0.412038 317.464C-0.025315 318.773 -0.116352 320.174 0.147782 321.529C0.411915 322.884 1.02223 324.148 1.91937 325.197C2.8165 326.246 3.96993 327.046 5.26747 327.517C6.56501 327.989 7.9625 328.116 9.32404 327.888ZM26.94 288.48L41.236 306.352L19.796 309.928L26.94 288.48Z" fill="#00E9E2"/>
</svg>
