<svg width="513" height="508" viewBox="0 0 513 508" fill="none" xmlns="http://www.w3.org/2000/svg">
<path d="M78.8887 28.7852L98.0967 41.8282L85.0537 61.0362" stroke="#00E9E2" stroke-width="15" stroke-miterlimit="10" stroke-linecap="round" stroke-linejoin="round"/>
<path d="M64.6434 117.694C47.3064 100.357 47.3064 72.2484 64.6434 54.9114C73.8344 45.7204 86.0534 41.4014 98.0904 41.9554M78.8874 454.708L98.0954 441.665L85.0524 422.457" stroke="#00E9E2" stroke-width="15" stroke-miterlimit="10" stroke-linecap="round" stroke-linejoin="round"/>
<path d="M64.644 365.8C47.307 383.137 47.307 411.246 64.644 428.583C73.835 437.774 86.054 442.093 98.091 441.539M200.257 179.225L176.055 155.023C174.69 153.658 172.838 152.891 170.908 152.891C168.977 152.891 167.125 153.658 165.76 155.023L164.042 156.741C161.795 158.988 158.37 159.478 155.531 158.05C151.488 156.015 147.303 154.278 143.007 152.852C139.995 151.853 137.926 149.087 137.926 145.914V143.494C137.926 141.563 137.159 139.712 135.794 138.346C134.428 136.981 132.577 136.214 130.646 136.214H96.42C94.4892 136.214 92.6375 136.981 91.2723 138.346C89.907 139.712 89.14 141.563 89.14 143.494V145.914C89.14 149.087 87.071 151.853 84.059 152.852C79.7637 154.277 75.5782 156.015 71.536 158.05C68.697 159.479 65.272 158.989 63.025 156.741L61.307 155.023C59.9418 153.658 58.0902 152.891 56.1595 152.891C54.2288 152.891 52.3772 153.658 51.012 155.023L26.81 179.225C25.4449 180.59 24.678 182.442 24.678 184.372C24.678 186.303 25.4449 188.155 26.81 189.52L28.528 191.238C30.775 193.485 31.265 196.91 29.836 199.749C27.8013 203.791 26.064 207.977 24.638 212.272C23.639 215.284 20.873 217.353 17.7 217.353H15.28C13.3492 217.353 11.4975 218.12 10.1323 219.485C8.767 220.851 8 222.702 8 224.633V258.86C8 260.791 8.767 262.642 10.1323 264.008C11.4975 265.373 13.3492 266.14 15.28 266.14H17.7C20.873 266.14 23.639 268.209 24.638 271.221C26.0636 275.517 27.8008 279.702 29.836 283.745C31.265 286.584 30.775 290.009 28.528 292.256L26.81 293.974C25.4449 295.339 24.678 297.191 24.678 299.121C24.678 301.052 25.4449 302.904 26.81 304.269L51.012 328.471C52.3772 329.836 54.2288 330.603 56.1595 330.603C58.0902 330.603 59.9418 329.836 61.307 328.471L63.025 326.753C65.272 324.506 68.697 324.016 71.536 325.444C75.5783 327.479 79.7637 329.216 84.059 330.641C87.071 331.64 89.14 334.406 89.14 337.579V339.999C89.14 341.93 89.907 343.781 91.2723 345.147C92.6375 346.512 94.4892 347.279 96.42 347.279H130.647C132.578 347.279 134.429 346.512 135.795 345.147C137.16 343.781 137.927 341.93 137.927 339.999V337.579C137.927 334.406 139.996 331.64 143.008 330.641C147.303 329.216 151.489 327.478 155.531 325.443C158.37 324.014 161.795 324.504 164.042 326.752L165.76 328.47C167.125 329.835 168.977 330.602 170.908 330.602C172.838 330.602 174.69 329.835 176.055 328.47L200.257 304.268C201.205 303.32 201.873 302.129 202.187 300.826C202.502 299.523 202.45 298.158 202.038 296.882M147.421 260.38C140.841 272.322 128.132 280.412 113.534 280.412C92.18 280.412 74.869 263.101 74.869 241.747C74.869 220.393 92.18 203.082 113.534 203.082C126.88 203.082 138.647 209.844 145.596 220.129M413.994 117.478H450.262C480.494 117.478 505.001 92.97 505.001 62.739C505.001 32.507 480.493 8 450.262 8H201.079C170.847 8 146.34 32.508 146.34 62.739C146.34 92.971 170.848 117.478 201.079 117.478H209.931C212.354 117.478 214.734 118.116 216.832 119.327C218.93 120.538 220.672 122.281 221.883 124.379L231.419 140.896C236.731 150.097 250.012 150.097 255.324 140.896L264.86 124.379C266.071 122.281 267.813 120.539 269.911 119.327C272.009 118.116 274.389 117.478 276.812 117.478H378.991" stroke="#00E9E2" stroke-width="15" stroke-miterlimit="10" stroke-linecap="round" stroke-linejoin="round"/>
<path d="M246.366 359.799H201.079C170.847 359.799 146.34 384.307 146.34 414.538C146.34 444.77 170.848 469.277 201.079 469.277H209.931C212.353 469.277 214.733 469.915 216.831 471.126C218.93 472.338 220.672 474.08 221.883 476.178L231.419 492.695C236.731 501.896 250.012 501.896 255.324 492.695L264.86 476.178C266.071 474.08 267.813 472.338 269.911 471.126C272.009 469.915 274.389 469.277 276.812 469.277H450.261C480.493 469.277 505 444.769 505 414.538C505 384.306 480.492 359.799 450.261 359.799H281.368M213.193 45.0781H337.035M213.193 79.8981H441.277M213.193 219.722H337.035M213.193 254.542H441.277M213.193 397.603H337.035M213.193 432.423H441.277M450.261 182.643H201.079C170.847 182.643 146.34 207.151 146.34 237.382C146.34 267.614 170.848 292.121 201.079 292.121H366.155C368.577 292.121 370.957 292.759 373.055 293.97C375.154 295.182 376.896 296.924 378.107 299.022L387.643 315.539C392.955 324.74 406.236 324.74 411.548 315.539L421.084 299.022C422.295 296.924 424.037 295.182 426.135 293.97C428.233 292.759 430.613 292.121 433.036 292.121H450.261C480.493 292.121 505 267.613 505 237.382C505.001 207.151 480.493 182.643 450.261 182.643Z" stroke="#00E9E2" stroke-width="15" stroke-miterlimit="10" stroke-linecap="round" stroke-linejoin="round"/>
</svg>
