<svg width="510" height="510" viewBox="0 0 510 510" fill="none" xmlns="http://www.w3.org/2000/svg">
<path d="M502 440.948H498.657V129.73C498.657 114.314 486.115 101.772 470.7 101.772H189.262C188.263 101.651 187.258 101.589 186.252 101.587L134.919 101.772C136.601 95.5817 138.409 89.1557 140.178 82.8667C145.456 64.0977 150.015 47.8897 150.729 40.2017C152.405 22.1397 143.829 5.29268 130.781 1.01368C121.232 -2.11832 111.868 2.10668 105.732 12.3137L46.775 110.38C44.3644 108.536 41.414 107.536 38.379 107.536H13.919C6.243 107.534 0 113.778 0 121.452V242.464C0 250.139 6.243 256.382 13.917 256.382H36.683V440.948H33.34C31.2183 440.948 29.1834 441.791 27.6831 443.291C26.1829 444.791 25.34 446.826 25.34 448.948V473.084C25.34 493.316 41.8 509.777 62.033 509.777H473.307C493.539 509.777 510 493.316 510 473.084V448.948C510 446.826 509.157 444.791 507.657 443.291C506.157 441.791 504.122 440.948 502 440.948ZM81.087 256.382H160.255C174.211 256.382 185.565 245.028 185.565 231.071C185.565 226.341 184.26 221.909 181.992 218.117C189.329 213.672 194.244 205.598 194.244 196.398C194.244 191.651 192.935 187.203 190.66 183.399C198.004 178.955 202.923 170.879 202.923 161.673C202.929 157.095 201.69 152.602 199.34 148.674C200.549 147.937 201.694 147.102 202.764 146.175H454.254V412.543H81.087V256.382ZM119.444 20.5567C121.584 16.9967 123.717 15.5327 125.794 16.2157C130.193 17.6577 135.93 26.5037 134.796 38.7227C134.217 44.9597 129.417 62.0287 124.775 78.5347C121.991 88.4317 119.112 98.6677 116.739 107.908C116.436 109.089 116.406 110.325 116.654 111.519C116.901 112.714 117.418 113.836 118.166 114.801C118.914 115.765 119.872 116.545 120.968 117.082C122.063 117.618 123.267 117.898 124.487 117.898H124.527L188.126 117.772C192.384 118.632 195.601 122.419 195.601 126.95C195.601 132.112 191.424 136.312 186.29 136.312H145.082C142.96 136.312 140.925 137.155 139.425 138.655C137.925 140.155 137.082 142.19 137.082 144.312C137.082 146.433 137.925 148.468 139.425 149.969C140.925 151.469 142.96 152.312 145.082 152.312H177.611C182.745 152.312 186.922 156.512 186.922 161.674C186.922 166.836 182.745 171.036 177.611 171.036H136.403C134.281 171.036 132.246 171.879 130.746 173.379C129.246 174.879 128.403 176.914 128.403 179.036C128.403 181.157 129.246 183.192 130.746 184.693C132.246 186.193 134.281 187.036 136.403 187.036H168.932C174.066 187.036 178.243 191.236 178.243 196.398C178.243 201.56 174.066 205.76 168.932 205.76H127.724C125.602 205.76 123.567 206.603 122.067 208.103C120.567 209.603 119.724 211.638 119.724 213.76C119.724 215.881 120.567 217.916 122.067 219.417C123.567 220.917 125.602 221.76 127.724 221.76H160.254C165.388 221.76 169.564 225.937 169.564 231.071C169.564 236.205 165.388 240.382 160.254 240.382H68.508L52.296 231.872V132.249L119.444 20.5567ZM36.295 240.382H16V123.534H36.295V240.382ZM52.683 250.145L62.817 255.465C63.5305 255.834 64.2959 256.094 65.087 256.235V420.544C65.087 422.665 65.9299 424.7 67.4301 426.201C68.9304 427.701 70.9653 428.544 73.087 428.544H462.254C464.376 428.544 466.411 427.701 467.911 426.201C469.411 424.7 470.254 422.665 470.254 420.544V138.176C470.254 136.054 469.411 134.019 467.911 132.519C466.411 131.019 464.376 130.176 462.254 130.176H211.394C211.936 125.979 211.416 121.714 209.88 117.771H470.7C477.293 117.771 482.657 123.135 482.657 129.729V440.948H52.683V250.145ZM204.119 456.948H331.221V464.869H204.119V456.948ZM494 473.083C494 484.493 484.717 493.776 473.307 493.776H62.033C50.623 493.776 41.34 484.493 41.34 473.083V456.948H188.119V472.869C188.119 474.99 188.962 477.025 190.462 478.526C191.962 480.026 193.997 480.869 196.119 480.869H339.221C341.343 480.869 343.378 480.026 344.878 478.526C346.378 477.025 347.221 474.99 347.221 472.869V456.948H494V473.083ZM284.125 297.226H251.217C249.095 297.226 247.06 298.069 245.56 299.569C244.06 301.069 243.217 303.104 243.217 305.226V398.755C243.217 400.876 244.06 402.911 245.56 404.412C247.06 405.912 249.095 406.755 251.217 406.755H284.125C286.247 406.755 288.282 405.912 289.782 404.412C291.282 402.911 292.125 400.876 292.125 398.755V305.226C292.125 303.104 291.282 301.069 289.782 299.569C288.282 298.069 286.247 297.226 284.125 297.226ZM276.125 390.755H259.217V313.226H276.125V390.755ZM226.657 269.908H193.749C191.627 269.908 189.592 270.751 188.092 272.251C186.592 273.751 185.749 275.786 185.749 277.908V398.756C185.749 400.877 186.592 402.912 188.092 404.413C189.592 405.913 191.627 406.756 193.749 406.756H226.657C228.779 406.756 230.814 405.913 232.314 404.413C233.814 402.912 234.657 400.877 234.657 398.756V277.908C234.657 275.786 233.814 273.751 232.314 272.251C230.814 270.751 228.779 269.908 226.657 269.908ZM218.657 390.755H201.749V285.908H218.657V390.755ZM169.19 333.433H136.282C134.16 333.433 132.125 334.276 130.625 335.776C129.125 337.276 128.282 339.311 128.282 341.433V398.755C128.282 400.876 129.125 402.911 130.625 404.412C132.125 405.912 134.16 406.755 136.282 406.755H169.19C171.312 406.755 173.347 405.912 174.847 404.412C176.347 402.911 177.19 400.876 177.19 398.755V341.433C177.19 339.311 176.347 337.276 174.847 335.776C173.347 334.276 171.312 333.433 169.19 333.433ZM161.19 390.755H144.282V349.433H161.19V390.755ZM341.591 247.523H308.683C306.561 247.523 304.526 248.366 303.026 249.866C301.526 251.366 300.683 253.401 300.683 255.523V398.755C300.683 400.876 301.526 402.911 303.026 404.412C304.526 405.912 306.561 406.755 308.683 406.755H341.591C343.713 406.755 345.748 405.912 347.248 404.412C348.748 402.911 349.591 400.876 349.591 398.755V255.523C349.591 253.401 348.748 251.366 347.248 249.866C345.748 248.366 343.713 247.523 341.591 247.523ZM333.591 390.755H316.683V263.523H333.591V390.755ZM146.395 297.065L203.862 222.348C205.1 220.737 206.905 219.658 208.91 219.33C210.915 219.001 212.969 219.448 214.657 220.579L266.406 255.257L319.23 197.408C319.679 196.916 320.188 196.482 320.745 196.117L363.374 168.108L361.153 167.942C359.037 167.783 357.071 166.791 355.687 165.183C354.303 163.575 353.614 161.483 353.772 159.368C353.85 158.32 354.133 157.297 354.606 156.359C355.079 155.421 355.733 154.585 356.529 153.899C357.326 153.214 358.249 152.692 359.248 152.364C360.246 152.036 361.299 151.907 362.347 151.987L386.531 153.797C387.668 153.881 388.773 154.208 389.774 154.755C390.774 155.302 391.646 156.056 392.331 156.968C393.015 157.879 393.498 158.926 393.745 160.039C393.992 161.152 393.998 162.305 393.763 163.421L388.771 187.153C388.334 189.229 387.09 191.046 385.313 192.205C383.537 193.364 381.372 193.771 379.296 193.335C378.268 193.118 377.292 192.702 376.425 192.109C375.558 191.515 374.816 190.757 374.242 189.877C373.668 188.997 373.273 188.013 373.08 186.98C372.886 185.947 372.898 184.887 373.114 183.859L373.848 180.369L330.37 208.936L273.579 271.128C272.287 272.541 270.532 273.445 268.63 273.675C266.729 273.904 264.809 273.444 263.218 272.379L211.977 238.04L159.079 306.816C158.332 307.789 157.371 308.577 156.27 309.118C155.169 309.66 153.959 309.941 152.732 309.939C150.969 309.94 149.256 309.356 147.86 308.28C147.027 307.64 146.329 306.842 145.804 305.932C145.28 305.022 144.94 304.017 144.804 302.976C144.668 301.934 144.738 300.876 145.011 299.862C145.284 298.848 145.754 297.897 146.395 297.065ZM399.058 199.033H366.15C364.028 199.033 361.993 199.876 360.493 201.376C358.993 202.876 358.15 204.911 358.15 207.033V398.756C358.15 400.877 358.993 402.912 360.493 404.413C361.993 405.913 364.028 406.756 366.15 406.756H399.058C401.18 406.756 403.215 405.913 404.715 404.413C406.215 402.912 407.058 400.877 407.058 398.756V207.033C407.058 204.911 406.215 202.876 404.715 201.376C403.215 199.876 401.18 199.033 399.058 199.033ZM391.058 390.755H374.15V215.033H391.058V390.755ZM18.148 226.911V214.658C18.148 212.536 18.9909 210.501 20.4911 209.001C21.9914 207.501 24.0263 206.658 26.148 206.658C28.2697 206.658 30.3046 207.501 31.8049 209.001C33.3051 210.501 34.148 212.536 34.148 214.658V226.912C34.1479 227.962 33.9409 229.003 33.5388 229.973C33.1367 230.944 32.5474 231.826 31.8045 232.568C31.0616 233.311 30.1796 233.9 29.209 234.302C28.2384 234.704 27.1981 234.911 26.1475 234.911C25.0969 234.911 24.0567 234.704 23.0861 234.302C22.1155 233.9 21.2336 233.311 20.4908 232.568C19.748 231.825 19.1587 230.943 18.7568 229.972C18.3548 229.002 18.1479 227.961 18.148 226.911Z" fill="#00E9E2"/>
</svg>
