<svg width="478" height="478" viewBox="0 0 478 478" fill="none" xmlns="http://www.w3.org/2000/svg">
<path d="M437.568 190.24C432.59 169.745 424.462 150.146 413.472 132.144L436.144 98.688L378.544 41.088L345.088 63.728C327.072 52.7445 307.463 44.6163 286.96 39.632L279.36 0H197.856L190.256 39.632C169.758 44.6164 150.155 52.7447 132.144 63.728L98.688 41.072L41.088 98.672L63.728 132.144C52.746 150.148 44.6228 169.746 39.648 190.24L0 197.856V279.344L39.648 286.976C44.6257 307.469 52.7488 327.067 63.728 345.072L41.072 378.512L98.672 436.112L132.128 413.44C150.132 424.437 169.737 432.566 190.24 437.536L197.84 477.184H279.344L286.944 437.536C307.452 432.566 327.062 424.437 345.072 413.44L378.512 436.112L436.112 378.512L413.44 345.072C424.427 327.069 432.555 307.471 437.536 286.976L477.184 279.344V197.856L437.568 190.24ZM238.608 366.976C213.215 366.979 188.391 359.452 167.276 345.346C146.161 331.24 129.703 311.19 119.984 287.73C110.265 264.27 107.721 238.455 112.674 213.549C117.627 188.644 129.855 165.767 147.811 147.811C165.767 129.855 188.644 117.627 213.549 112.674C238.455 107.721 264.27 110.265 287.73 119.984C311.19 129.703 331.24 146.161 345.346 167.276C359.452 188.391 366.979 213.215 366.976 238.608C366.976 272.653 353.452 305.304 329.378 329.378C305.304 353.452 272.653 366.976 238.608 366.976Z" fill="#5EB8E1"/>
<path d="M238.608 74.7344C206.197 74.7344 174.514 84.3453 147.566 102.352C120.617 120.358 99.6131 145.952 87.21 175.895C74.8069 205.839 71.5617 238.788 77.8848 270.576C84.2078 302.364 99.8151 331.563 122.733 354.481C145.651 377.399 174.85 393.007 206.638 399.33C238.426 405.653 271.375 402.407 301.319 390.004C331.263 377.601 356.856 356.597 374.863 329.649C392.869 302.7 402.48 271.017 402.48 238.606C402.48 217.086 398.241 195.777 390.006 175.895C381.771 156.013 369.7 137.948 354.483 122.731C339.266 107.514 321.201 95.4437 301.319 87.2084C281.437 78.9731 260.128 74.7344 238.608 74.7344ZM238.608 366.974C213.215 366.978 188.391 359.45 167.276 345.344C146.161 331.239 129.703 311.188 119.984 287.728C110.265 264.268 107.721 238.453 112.674 213.548C117.627 188.642 129.855 165.765 147.811 147.809C165.767 129.853 188.644 117.626 213.549 112.672C238.455 107.719 264.27 110.263 287.73 119.982C311.19 129.701 331.24 146.159 345.346 167.274C359.452 188.389 366.979 213.213 366.976 238.606C366.976 272.652 353.452 305.303 329.378 329.376C305.304 353.45 272.653 366.974 238.608 366.974Z" fill="#5555A5"/>
<path d="M204.656 245.086L188.896 205.918C188.301 204.443 187.28 203.179 185.964 202.287C184.647 201.395 183.094 200.916 181.504 200.91C179.918 200.907 178.367 201.376 177.048 202.256C175.729 203.136 174.702 204.389 174.096 205.854L157.856 245.006L147.28 270.606C146.879 271.578 146.673 272.619 146.674 273.671C146.675 274.722 146.883 275.763 147.287 276.734C147.69 277.705 148.281 278.587 149.025 279.329C149.769 280.072 150.652 280.661 151.624 281.062C152.596 281.464 153.637 281.67 154.688 281.668C155.74 281.667 156.781 281.459 157.752 281.056C158.723 280.652 159.605 280.062 160.347 279.317C161.09 278.573 161.679 277.69 162.08 276.718L170.592 256.11H191.888L200.176 276.654C200.548 277.657 201.117 278.575 201.85 279.354C202.583 280.133 203.465 280.757 204.443 281.189C205.422 281.621 206.477 281.853 207.546 281.87C208.616 281.888 209.678 281.691 210.67 281.29C211.661 280.89 212.563 280.295 213.321 279.541C214.079 278.786 214.678 277.887 215.082 276.897C215.487 275.907 215.689 274.845 215.676 273.776C215.663 272.707 215.436 271.65 215.008 270.67L204.656 245.086ZM185.456 240.19H177.2L181.376 230.062L185.456 240.19ZM307.504 195.406C305.382 195.406 303.347 196.249 301.847 197.749C300.347 199.25 299.504 201.285 299.504 203.406V273.806C299.504 275.928 300.347 277.963 301.847 279.463C303.347 280.963 305.382 281.806 307.504 281.806C309.626 281.806 311.661 280.963 313.161 279.463C314.661 277.963 315.504 275.928 315.504 273.806V203.406C315.504 201.285 314.661 199.25 313.161 197.749C311.661 196.249 309.626 195.406 307.504 195.406ZM257.088 195.406H236.72C234.598 195.406 232.563 196.249 231.063 197.749C229.563 199.25 228.72 201.285 228.72 203.406V273.806C228.72 275.928 229.563 277.963 231.063 279.463C232.563 280.963 234.598 281.806 236.72 281.806C238.842 281.806 240.877 280.963 242.377 279.463C243.877 277.963 244.72 275.928 244.72 273.806V246.606H257.088C263.878 246.606 270.389 243.909 275.19 239.108C279.991 234.307 282.688 227.796 282.688 221.006C282.688 214.217 279.991 207.705 275.19 202.904C270.389 198.103 263.878 195.406 257.088 195.406ZM257.088 230.606H244.72V211.406H257.088C259.634 211.406 262.076 212.418 263.876 214.218C265.677 216.018 266.688 218.46 266.688 221.006C266.688 223.552 265.677 225.994 263.876 227.794C262.076 229.595 259.634 230.606 257.088 230.606Z" fill="#837AFF"/>
</svg>
