<svg xmlns="http://www.w3.org/2000/svg" version="1.1" xmlns:xlink="http://www.w3.org/1999/xlink" width="512" height="512" x="0" y="0" viewBox="0 0 512 512" style="enable-background:new 0 0 512 512" xml:space="preserve"><g><g fill-rule="evenodd" clip-rule="evenodd"><path fill="#a79ba7" d="M180.572 375.761h150.857v85.928H180.572z" opacity="1" data-original="#a79ba7"></path><path fill="#837683" d="M319.729 375.761h11.699v85.928h-11.699z" opacity="1" data-original="#837683"></path><path fill="#eceff1" d="M92.936 498.323h326.128V473.18c0-13.829-14.16-25.142-31.468-25.142H124.404c-17.308 0-31.468 11.314-31.468 25.142z" opacity="1" data-original="#eceff1"></path><path fill="#d1d1d6" d="M92.936 498.323h326.128V473.18c0-8.218-5.002-15.548-12.693-20.143 1.728 3.107 2.692 6.539 2.692 10.143v25.143H92.936z" opacity="1" data-original="#d1d1d6"></path><path fill="#eceff1" d="M52.901 61.754h406.198c20.295 0 36.9 16.605 36.9 36.901v253.857c0 20.295-16.605 36.901-36.9 36.901H52.901c-20.295 0-36.9-16.605-36.9-36.901V98.654c0-20.295 16.605-36.9 36.9-36.9z" opacity="1" data-original="#eceff1"></path><path fill="#d1d1d6" d="M479.682 68.071c9.826 6.648 16.317 17.894 16.317 30.584v253.857c0 20.295-16.605 36.901-36.9 36.901H52.901c-12.689 0-23.935-6.491-30.583-16.317a36.63 36.63 0 0 0 20.583 6.316h406.198c20.295 0 36.9-16.605 36.9-36.9V88.654a36.63 36.63 0 0 0-6.317-20.583z" opacity="1" data-original="#d1d1d6"></path><path fill="#d8ecfe" d="M51.975 92.611h408.049c2.815 0 5.118 2.305 5.118 5.118V327.52H46.858V97.728c0-2.814 2.303-5.117 5.117-5.117z" opacity="1" data-original="#d8ecfe"></path><path fill="#c4e2ff" d="M440.024 92.611h20.001c2.815 0 5.118 2.305 5.118 5.118V327.52h-20.001V97.728c-.001-2.814-2.304-5.117-5.118-5.117z" opacity="1" data-original="#c4e2ff"></path><path fill="#b1b1b5" d="M267.674 217.62h-30.091v17.287c0 6.27 5.13 11.4 11.4 11.4h14.795c6.27 0 11.4-5.13 11.4-11.4V217.62z" opacity="1" data-original="#b1b1b5"></path><path fill="#d1d1d6" d="m225.639 195.405.252 16.699c.095 6.27 5.13 11.4 11.401 11.4h38.178c6.27 0 11.494-5.13 11.4-11.4l-.252-16.705c-19.913.629-40.942.006-60.979.006z" opacity="1" data-original="#d1d1d6"></path><path fill="#ffe177" d="M297.89 177.901c3.375-57.433 28.266-55.104 28.266-94.068 0-38.746-31.41-70.157-70.157-70.157s-70.157 31.41-70.157 70.157c0 38.964 24.891 36.635 28.266 94.068 1.503 11.344 7.986 13.902 11.735 13.902 55.834.001 65.722 5.514 72.047-13.902z" opacity="1" data-original="#ffe177"></path><path fill="#ffd064" d="M297.89 177.901c3.375-57.433 28.266-55.104 28.266-94.068 0-38.746-31.41-70.157-70.157-70.157-1.308 0-2.608.039-3.898.11 36.933 2.023 66.258 32.609 66.258 70.047 0 38.964-24.891 36.635-28.266 94.068-3.755 11.527-8.766 14.267-23.9 14.591 21.347.314 27.36-1.279 31.697-14.591z" opacity="1" data-original="#ffd064"></path><path fill="#b1b1b5" d="M267.674 223.504h7.796c6.27 0 11.494-5.13 11.4-11.4l-.252-16.705c-2.581.081-5.18.142-7.794.185l.25 16.52c.094 6.271-5.13 11.4-11.4 11.4z" opacity="1" data-original="#b1b1b5"></path><path fill="#eceff1" d="M214.109 177.901v11.402c0 6.27 5.13 11.4 11.4 11.4h60.981c6.27 0 11.399-5.13 11.399-11.4v-11.402z" opacity="1" data-original="#eceff1"></path><path fill="#d1d1d6" d="M278.694 200.703h7.797c6.27 0 11.399-5.13 11.399-11.4v-11.402h-7.797l-.001 11.402c.001 6.271-5.129 11.4-11.398 11.4z" opacity="1" data-original="#d1d1d6"></path><circle cx="93.45" cy="138.085" r="22.446" fill="#8ac9fe" transform="rotate(-13.18 93.245 137.834)" opacity="1" data-original="#8ac9fe"></circle><path fill="#fe646f" d="M355.116 293.287c12.362 0 22.446-10.083 22.446-22.445 0-12.363-10.083-22.446-22.446-22.446-12.362 0-22.446 10.083-22.446 22.446 0 12.362 10.084 22.445 22.446 22.445z" opacity="1" data-original="#fe646f"></path><circle cx="416.875" cy="138.085" r="22.446" fill="#6cf5c2" transform="rotate(-45 416.88 138.171)" opacity="1" data-original="#6cf5c2"></circle><path fill="#ffe177" d="M156.669 293.287c12.363 0 22.446-10.083 22.446-22.445 0-12.363-10.083-22.446-22.446-22.446-12.362 0-22.446 10.083-22.446 22.446 0 12.362 10.084 22.445 22.446 22.445z" opacity="1" data-original="#ffe177"></path><path fill="#242222" d="M93.445 123.639c7.971 0 14.454 6.479 14.454 14.445 0 7.962-6.483 14.445-14.454 14.445-7.966 0-14.445-6.483-14.445-14.445 0-7.966 6.479-14.445 14.445-14.445zm0 44.889c14.026 0 25.853-9.525 29.375-22.444h58.608a7.998 7.998 0 0 0 7.999-7.999 8 8 0 0 0-7.999-8.004H122.82c-3.522-12.915-15.349-22.444-29.375-22.444-16.79 0-30.448 13.659-30.448 30.448 0 16.784 13.659 30.443 30.448 30.443zm323.434-44.889c7.962 0 14.44 6.479 14.44 14.445 0 7.962-6.479 14.445-14.44 14.445-7.971 0-14.45-6.483-14.45-14.445 0-7.966 6.478-14.445 14.45-14.445zm-87.988 22.445h58.618c3.522 12.919 15.349 22.444 29.37 22.444 16.78 0 30.439-13.659 30.439-30.444 0-16.79-13.659-30.448-30.439-30.448-14.021 0-25.848 9.53-29.37 22.444h-58.618c-4.412 0-7.999 3.583-7.999 8.004-.001 4.417 3.587 8 7.999 8zM171.117 270.838c0 7.966-6.488 14.445-14.45 14.445-7.971 0-14.45-6.479-14.45-14.445s6.479-14.445 14.45-14.445c7.962 0 14.45 6.479 14.45 14.445zm-22.449-99.768a8.001 8.001 0 0 1 7.999-7.999h34.22a7.998 7.998 0 0 1 7.999 7.999 7.995 7.995 0 0 1-7.999 7.999h-26.22v62.398c12.924 3.522 22.449 15.354 22.449 29.37 0 16.79-13.659 30.443-30.448 30.443s-30.448-13.654-30.448-30.443c0-14.017 9.529-25.848 22.449-29.37V171.07zm220.893 99.768c0 7.966-6.483 14.445-14.445 14.445-7.967 0-14.445-6.479-14.445-14.445s6.479-14.445 14.445-14.445c7.961 0 14.445 6.479 14.445 14.445zm-48.67-91.768c-4.412 0-8.004-3.578-8.004-7.999 0-4.416 3.592-7.999 8.004-7.999h34.224c4.421 0 8.004 3.583 8.004 7.999v70.398c12.919 3.522 22.44 15.354 22.44 29.37 0 16.79-13.649 30.443-30.443 30.443-16.79 0-30.448-13.654-30.448-30.443 0-14.017 9.53-25.848 22.454-29.37V179.07zm167.106 173.433V98.653c0-15.938-12.957-28.904-28.899-28.904H332.86a77.998 77.998 0 0 1 1.299 14.083c0 .268-.019.513-.019.777h125.89c7.227 0 13.108 5.885 13.108 13.117v229.527c0 4.412-3.578 8.004-7.999 8.004H46.857c-4.421 0-7.999-3.592-7.999-8.004V97.725c0-7.232 5.881-13.117 13.122-13.117h125.88c0-.264-.019-.508-.019-.777 0-4.812.457-9.511 1.295-14.083H52.898c-15.928 0-28.899 12.966-28.899 28.904v253.85c0 15.942 12.971 28.904 28.899 28.904h406.2c15.941 0 28.899-12.961 28.899-28.903zm-164.568 87.531H188.571v-42.628H323.43v42.628zm87.64 33.141v17.152H100.936v-17.152c0-9.289 10.744-17.143 23.461-17.143h263.201c12.722 0 23.471 7.854 23.471 17.143zM276.121 92.65v-8.305c0-4.576 3.719-8.301 8.296-8.301 4.581 0 8.301 3.724 8.301 8.301 0 4.581-3.72 8.305-8.301 8.305zm-20.123-70.977c-34.267 0-62.158 27.887-62.158 62.158 0 15.942 4.576 23.767 10.377 33.673 6.54 11.177 14.553 24.864 17.284 52.393h14.388v-61.25h-8.31c-13.4 0-24.299-10.899-24.299-24.304 0-13.4 10.899-24.299 24.299-24.299s24.309 10.899 24.309 24.299v8.305h8.23v-8.305c0-13.4 10.9-24.299 24.299-24.299 13.405 0 24.304 10.899 24.304 24.299 0 13.404-10.9 24.304-24.304 24.304h-8.296v61.25H290.5c2.731-27.529 10.739-41.216 17.279-52.393 5.801-9.906 10.377-17.731 10.377-33.673 0-34.271-27.887-62.158-62.158-62.158zm22.491 190.43c0 1.841-1.563 3.399-3.399 3.399h-38.184c-1.836 0-3.395-1.558-3.395-3.399v-3.399h44.978zm-33.292 19.398h21.601v3.404c0 1.841-1.559 3.399-3.399 3.399h-14.798c-1.841 0-3.404-1.559-3.404-3.399zm44.691-45.605v3.404c0 1.846-1.558 3.399-3.399 3.399h-60.981c-1.836 0-3.399-1.554-3.399-3.399v-3.404zm-29.771-15.998h-8.23v-61.25h8.23zM235.889 92.65h-8.31c-4.581 0-8.301-3.725-8.301-8.305 0-4.576 3.72-8.301 8.301-8.301s8.31 3.724 8.31 8.301zm-45.482 32.939c-4.209-7.204-8.517-14.581-10.838-24.982H54.856v218.646h402.282V100.607H332.427c-2.307 10.401-6.62 17.778-10.839 24.982-6.879 11.752-13.988 23.904-15.697 52.586v11.126c0 7.844-4.694 14.6-11.404 17.656v5.146c0 7.957-4.817 14.808-11.691 17.792v5.01c0 10.697-8.696 19.398-19.398 19.398H248.6c-10.692 0-19.402-8.701-19.402-19.398v-5.01c-6.87-2.985-11.691-9.835-11.691-17.792v-5.146c-6.709-3.056-11.399-9.812-11.399-17.656v-11.126c-1.708-28.683-8.818-40.835-15.701-52.586zm268.69-71.839H328.128c-11.808-28.207-39.69-48.076-72.13-48.076s-60.317 19.869-72.13 48.076H52.898C28.137 53.75 8 73.892 8 98.653v253.85c0 24.761 20.137 44.903 44.898 44.903h119.67v42.628h-48.17c-21.761 0-39.46 14.873-39.46 33.141v25.147a8 8 0 0 0 7.999 8.004h326.131a8.002 8.002 0 0 0 7.999-8.004v-25.147c0-18.268-17.708-33.141-39.469-33.141h-48.17v-42.628h119.67c24.761 0 44.902-20.142 44.902-44.903V98.653c0-24.761-20.142-44.903-44.903-44.903z" opacity="1" data-original="#242222"></path></g></g></svg>