<svg xmlns="http://www.w3.org/2000/svg" version="1.1" xmlns:xlink="http://www.w3.org/1999/xlink" width="512" height="512" x="0" y="0" viewBox="0 0 64 64" style="enable-background:new 0 0 512 512" xml:space="preserve" class=""><g><path fill="#50b4f8" d="M32 3a22 22 0 0 1 22 22v28H10V25A22 22 0 0 1 32 3z" opacity="1" data-original="#50b4f8" class=""></path><rect width="58" height="4" x="3" y="57" fill="#d3843d" rx="2" opacity="1" data-original="#d3843d"></rect><rect width="48" height="4" x="8" y="53" fill="#f9bb4b" rx="2" opacity="1" data-original="#f9bb4b"></rect><path fill="#ececec" d="M20 41h12v12H20z" opacity="1" data-original="#ececec"></path><path fill="#ffffff" d="M32 41h12v12H32z" opacity="1" data-original="#ffffff"></path><path fill="#f4f4e6" d="M26 29h12v12H26z" opacity="1" data-original="#f4f4e6"></path><circle cx="32" cy="35" r="2" fill="#dd3e46" opacity="1" data-original="#dd3e46"></circle><g fill="#143441"><path d="M23 44h2v2h-2zM27 48h2v2h-2zM35 44h2v2h-2zM39 44h2v2h-2zM35 48h2v2h-2zM39 48h2v2h-2z" fill="#143441" opacity="1" data-original="#143441"></path></g><path fill="#f4f4e6" d="M13 36h2v14h-2zM13 32h2v2h-2zM51 26h-2v-1A17.019 17.019 0 0 0 32 8V6a19.021 19.021 0 0 1 19 19zM49 28h2v2h-2z" opacity="1" data-original="#f4f4e6"></path></g></svg>