<svg width="512" height="496" viewBox="0 0 512 496" fill="none" xmlns="http://www.w3.org/2000/svg">
<path fill-rule="evenodd" clip-rule="evenodd" d="M222.694 318.019H289.307C311.05 324.539 329.872 337.266 329.872 351.921V438.916H182.129V351.921C182.129 337.266 200.951 324.538 222.694 318.019Z" fill="#EBD2FF"/>
<path fill-rule="evenodd" clip-rule="evenodd" d="M304.871 351.921V438.916H329.873V351.921C329.873 337.266 311.051 324.538 289.308 318.019H264.307C286.048 324.538 304.871 337.266 304.871 351.921Z" fill="#D7BEF0"/>
<path fill-rule="evenodd" clip-rule="evenodd" d="M89.4062 434.919H128.752L160.953 430.441L192.843 434.919H319.157L350.565 428.74L383.248 434.919H422.622V495.184H89.4062V434.919Z" fill="#D09080"/>
<path fill-rule="evenodd" clip-rule="evenodd" d="M0 484.214V356.032C0 340.243 12.927 327.317 28.687 327.317H76.055C76.877 327.317 77.671 327.374 78.493 327.43C85.835 326.721 93.376 329.726 98.166 336.047L136.69 387.07C138.646 389.65 140.744 391.01 144.571 391.01H192.844C204.977 391.01 214.814 400.818 214.814 412.95C214.814 425.082 204.977 434.918 192.844 434.918H128.753C125.361 434.917 122.015 434.128 118.979 432.613C115.944 431.098 113.302 428.898 111.262 426.188L104.743 417.542V495.183H10.971C8.24044 494.695 5.72498 493.382 3.76341 491.421C1.80185 489.46 0.488415 486.944 0 484.214Z" fill="#FF6978"/>
<path fill-rule="evenodd" clip-rule="evenodd" d="M512 484.214V356.032C512 340.243 499.103 327.317 483.314 327.317H435.974C435.152 327.317 434.331 327.374 433.536 327.43C426.166 326.721 418.626 329.726 413.835 336.047L375.312 387.07C373.526 389.424 371.457 391.01 367.431 391.01H319.158C307.025 391.01 297.188 400.818 297.188 412.95C297.188 425.082 307.025 434.918 319.158 434.918H383.249C386.641 434.917 389.987 434.128 393.022 432.613C396.057 431.098 398.699 428.898 400.74 426.188L407.288 417.542V495.183H501.031C503.761 494.695 506.276 493.381 508.237 491.42C510.198 489.459 511.511 486.944 512 484.214Z" fill="#CCF49F"/>
<path fill-rule="evenodd" clip-rule="evenodd" d="M227.995 194.513H353.797L385.632 226.346C388.154 228.869 391.046 227.395 391.046 224.078V194.513C407.26 194.513 420.526 181.247 420.526 165.034V90.6241C420.526 74.4101 407.26 61.1431 391.046 61.1431H227.995C211.78 61.1431 198.514 74.4101 198.514 90.6241V165.034C198.514 181.247 211.78 194.513 227.995 194.513Z" fill="#ECF4FF"/>
<path fill-rule="evenodd" clip-rule="evenodd" d="M80.646 164.778H212.998C234.514 164.778 252.116 147.175 252.116 125.66V39.118C252.116 17.602 234.514 0 212.998 0H43.371C21.855 0 4.25195 17.603 4.25195 39.118V125.659C4.25195 147.175 21.856 164.777 43.371 164.777V194.371C43.371 197.546 46.489 198.964 48.813 196.61L80.646 164.778Z" fill="#ECF4FF"/>
<path d="M56.6666 49.2662C52.5276 49.2662 49.1836 45.8932 49.1836 41.7542C49.1836 37.6152 52.5286 34.2422 56.6666 34.2422H199.676C203.843 34.2422 207.188 37.6152 207.188 41.7542C207.188 45.8932 203.843 49.2662 199.676 49.2662H56.6666ZM56.6666 130.535C55.6837 130.536 54.7102 130.343 53.8019 129.967C52.8936 129.592 52.0683 129.041 51.3733 128.346C50.6782 127.65 50.1271 126.825 49.7513 125.917C49.3756 125.009 49.1827 124.035 49.1836 123.052C49.1836 118.913 52.5286 115.54 56.6666 115.54H128.186C132.325 115.54 135.698 118.913 135.698 123.052C135.698 127.191 132.325 130.535 128.186 130.535H56.6666ZM56.6666 89.8872C52.5276 89.8872 49.1836 86.5412 49.1836 82.4032C49.1836 78.2652 52.5286 74.8912 56.6666 74.8912H199.676C200.662 74.8905 201.639 75.0844 202.551 75.4617C203.463 75.8389 204.291 76.3923 204.989 77.0899C205.687 77.7876 206.24 78.616 206.617 79.5277C206.994 80.4394 207.188 81.4165 207.188 82.4032C207.188 86.5422 203.843 89.8872 199.676 89.8872H56.6666Z" fill="#477B9E"/>
<path fill-rule="evenodd" clip-rule="evenodd" d="M297.697 295.767C297.697 318.7 278.932 337.464 256 337.464C233.068 337.464 214.303 318.699 214.303 295.767V251.093C214.303 238.252 224.82 227.764 237.66 227.764H291.49C295.77 227.764 297.697 230.202 297.697 233.972V295.767Z" fill="#FFCBBE"/>
<path fill-rule="evenodd" clip-rule="evenodd" d="M214.303 251.093V264.557H297.698V233.972C297.698 230.202 295.771 227.764 291.491 227.764H237.661C224.819 227.764 214.303 238.252 214.303 251.093Z" fill="#FFE5A0"/>
<path fill-rule="evenodd" clip-rule="evenodd" d="M10.6855 295.767C10.6855 318.7 29.4225 337.464 52.3565 337.464C75.2885 337.464 94.0536 318.699 94.0536 295.767V251.093C94.0536 238.252 83.5655 227.764 70.7245 227.764H34.0145C21.1735 227.764 10.6855 238.252 10.6855 251.093V295.767Z" fill="#FFCBBE"/>
<path fill-rule="evenodd" clip-rule="evenodd" d="M501.341 295.767C501.341 318.7 482.575 337.464 459.642 337.464C436.71 337.464 417.945 318.699 417.945 295.767V251.093C417.945 238.252 428.462 227.764 441.274 227.764H478.012C490.824 227.764 501.341 238.252 501.341 251.093V295.767Z" fill="#D8A595"/>
<path fill-rule="evenodd" clip-rule="evenodd" d="M501.341 295.767C501.341 318.7 482.575 337.464 459.642 337.464C455.305 337.464 451.081 336.784 447.142 335.537C462.76 330.576 474.496 316.63 476.141 299.82C482.661 300.926 490.881 300.358 501.285 297.212L501.342 251.093L501.341 295.767ZM94.0536 251.093V267.335C82.3186 271.7 72.6806 268.129 67.0396 264.897C62.6446 262.402 61.8806 262.402 61.3696 266.399C59.8396 278.134 54.5666 310.45 10.7136 297.211L10.6856 251.092C10.6576 238.251 21.1736 227.763 34.0146 227.763H70.7246C83.5646 227.764 94.0536 238.252 94.0536 251.093Z" fill="#D09080"/>
<path fill-rule="evenodd" clip-rule="evenodd" d="M417.943 251.093V267.335C429.707 271.7 439.316 268.129 444.986 264.897C449.351 262.402 450.116 262.402 450.627 266.399C452.157 278.134 457.458 310.45 501.283 297.211L501.34 251.092C501.34 238.251 490.823 227.763 478.011 227.763H441.273C428.46 227.764 417.943 238.252 417.943 251.093Z" fill="#477B9E"/>
<path fill-rule="evenodd" clip-rule="evenodd" d="M476.34 251.093V295.767C476.34 297.127 476.283 298.489 476.142 299.821C482.662 300.927 490.882 300.359 501.286 297.213L501.343 251.094C501.343 238.791 491.705 228.644 479.629 227.821C479.091 227.764 478.552 227.764 478.014 227.764H453.01C465.822 227.764 476.34 238.252 476.34 251.093Z" fill="#365E7D"/>
<path fill-rule="evenodd" clip-rule="evenodd" d="M69.0525 295.767C69.0525 314.334 56.7505 330.18 39.8555 335.538C43.9003 336.813 48.1163 337.463 52.3575 337.465C75.2895 337.465 94.0545 318.7 94.0545 295.768V267.336C83.6225 271.191 74.8355 268.811 69.0525 265.976V295.767Z" fill="#F7BEAF"/>
<path fill-rule="evenodd" clip-rule="evenodd" d="M45.7246 227.764C58.5656 227.764 69.0526 238.252 69.0526 251.093V265.975C74.8356 268.81 83.6226 271.191 94.0546 267.335V251.093C94.0546 238.252 83.5666 227.764 70.7256 227.764H45.7246Z" fill="#BE694F"/>
<path fill-rule="evenodd" clip-rule="evenodd" d="M272.695 295.767C272.695 314.334 260.392 330.18 243.498 335.538C247.543 336.813 251.758 337.463 255.999 337.465C278.932 337.465 297.696 318.7 297.696 295.768V264.558H272.695V295.767Z" fill="#F7BEAF"/>
<path fill-rule="evenodd" clip-rule="evenodd" d="M272.694 233.972V264.557H297.695V233.972C297.695 230.202 295.768 227.764 291.488 227.764H266.486C270.767 227.764 272.694 230.201 272.694 233.972Z" fill="#F2CE7E"/>
<path fill-rule="evenodd" clip-rule="evenodd" d="M82.7725 388.46C82.5659 388.165 82.2693 387.945 81.9271 387.832C81.5849 387.72 81.2155 387.721 80.8741 387.836C80.5328 387.951 80.2377 388.173 80.0332 388.47C79.8287 388.766 79.7257 389.121 79.7395 389.481V495.184H104.741V417.543L82.7725 388.46Z" fill="#CF4351"/>
<path fill-rule="evenodd" clip-rule="evenodd" d="M486.998 356.032V484.215C486.034 489.799 481.612 494.193 476.057 495.185H501.031C503.761 494.697 506.276 493.383 508.238 491.422C510.199 489.461 511.512 486.946 512.001 484.215V356.032C512.001 341.348 500.832 329.159 486.603 327.515C483.561 330.106 480.162 332.245 476.511 333.865C482.916 339.137 486.998 347.131 486.998 356.032Z" fill="#B3E59F"/>
<path fill-rule="evenodd" clip-rule="evenodd" d="M198.795 169.229C200.864 183.458 213.196 194.513 227.993 194.513H353.795L385.63 226.346C388.152 228.869 391.044 227.395 391.044 224.078V194.513C407.258 194.513 420.524 181.247 420.524 165.034V90.6241C420.524 75.8271 409.498 63.4971 395.24 61.4561C395.438 62.8161 395.523 64.2051 395.523 65.6231V140.032C395.523 156.246 382.285 169.512 366.07 169.512H202.99C201.573 169.512 200.184 169.399 198.795 169.229Z" fill="#DDEAFB"/>
<path fill-rule="evenodd" clip-rule="evenodd" d="M227.114 100.658C227.114 118.545 214.953 133.71 198.511 138.358C195.087 139.316 191.549 139.803 187.994 139.804H18.368C14.116 139.804 10.034 139.095 6.20703 137.848C11.338 153.439 26.106 164.777 43.37 164.777V194.371C43.37 197.546 46.488 198.964 48.812 196.61L80.645 164.777H212.996C234.512 164.777 252.114 147.174 252.114 125.659V39.1181C252.114 21.8541 240.776 7.08608 225.157 1.95508C226.457 5.87752 227.118 9.98372 227.113 14.1161V100.658H227.114Z" fill="#DDEAFB"/>
<path fill-rule="evenodd" clip-rule="evenodd" d="M382.283 434.919H407.285V495.184H382.283V434.919Z" fill="#BE694F"/>
</svg>
