<svg width="497" height="502" viewBox="0 0 497 502" fill="none" xmlns="http://www.w3.org/2000/svg">
<path d="M382.472 377.788L351.292 408.988C349.092 411.186 347.347 413.796 346.157 416.668C344.966 419.54 344.352 422.619 344.352 425.728V496.688H152.432V425.728C152.432 419.448 149.932 413.428 145.492 408.988L114.312 377.788C113.532 377.008 113.532 375.728 114.312 374.948L151.632 337.628C152.412 336.848 153.692 336.848 154.472 337.628L189.892 373.048C191.748 374.907 193.952 376.381 196.378 377.386C198.804 378.392 201.405 378.909 204.032 378.908H219.972V378.928C219.972 394.648 232.692 407.348 248.392 407.348C264.092 407.348 276.812 394.628 276.812 378.928V378.908H292.752C295.378 378.909 297.979 378.392 300.405 377.386C302.831 376.381 305.035 374.907 306.892 373.048L342.312 337.628C343.092 336.848 344.372 336.848 345.152 337.628L382.472 374.948C383.252 375.728 383.252 377.008 382.472 377.788Z" fill="#A0D4ED"/>
<path d="M312.991 249.388V303.288C312.991 307.108 312.671 310.888 311.991 314.528C308.391 335.288 294.911 352.388 276.811 361.268C268.211 365.488 258.531 367.848 248.391 367.868C238.541 367.902 228.816 365.664 219.971 361.328C210.825 356.864 202.868 350.294 196.753 342.159C190.637 334.024 186.538 324.555 184.791 314.528C184.091 310.928 183.791 307.148 183.791 303.288V249.388H312.991ZM485.031 267.736L380.157 372.632L347.507 339.982L452.379 235.09C461.395 226.072 476.015 226.072 485.031 235.088C494.045 244.104 494.045 258.72 485.031 267.736ZM11.7507 267.736L116.625 372.632L149.275 339.982L44.4027 235.09C35.3867 226.072 20.7667 226.072 11.7507 235.088C2.73673 244.104 2.73673 258.72 11.7507 267.736Z" fill="#FFCAB9"/>
<path d="M316.296 191.326L304.6 183.32C303.638 188.392 300.937 192.968 296.962 196.261C292.987 199.554 287.988 201.357 282.826 201.358H213.14C197.13 201.358 183.824 214.318 183.824 230.682L183.818 249.39H313.004L321.084 241.188C335.422 226.704 333.004 202.72 316.296 191.326Z" fill="#7C7B7A"/>
<path d="M184.806 314.528H177.272C174.83 314.529 172.413 314.049 170.157 313.116C167.901 312.182 165.851 310.813 164.125 309.087C162.399 307.36 161.03 305.311 160.096 303.055C159.162 300.799 158.682 298.381 158.684 295.94C158.684 285.702 166.98 277.352 177.272 277.352H183.806V303.272C183.808 307.158 184.116 310.934 184.806 314.528ZM338.1 295.958C338.101 298.398 337.62 300.815 336.686 303.07C335.752 305.325 334.383 307.373 332.657 309.098C330.93 310.823 328.88 312.19 326.625 313.122C324.369 314.054 321.952 314.531 319.512 314.528H311.998C312.688 310.898 312.994 307.122 312.994 303.274V277.354H319.514C321.957 277.351 324.376 277.831 326.633 278.765C328.891 279.699 330.942 281.07 332.668 282.798C334.395 284.527 335.763 286.579 336.695 288.837C337.627 291.095 338.105 293.515 338.1 295.958Z" fill="#FFCAB9"/>
<path d="M276.811 361.268V378.928C276.811 394.628 264.091 407.348 248.391 407.348C232.691 407.348 219.971 394.648 219.971 378.928V361.328C228.815 365.663 238.541 367.901 248.391 367.868C258.531 367.848 268.211 365.488 276.811 361.268Z" fill="#FFCAB9"/>
<path d="M276.811 361.268V376.548C258.851 383.488 238.471 383.768 219.971 376.588V361.328C228.815 365.663 238.541 367.901 248.391 367.868C258.531 367.848 268.211 365.488 276.811 361.268Z" fill="#EA8F7C"/>
<path d="M266.643 14.5443L277.763 30.5883C280.602 34.6845 284.737 37.7065 289.501 39.1683L308.721 45.0663C323.651 49.6463 329.313 67.8003 319.637 80.0583L308.021 94.7703C304.784 98.8709 303.095 103.982 303.253 109.204L303.849 128.888C304.327 144.674 288.639 155.9 273.851 150.352L256.191 143.726C251.162 141.84 245.619 141.84 240.589 143.726L222.929 150.352C208.141 155.9 192.453 144.674 192.931 128.888L193.527 109.204C193.686 103.982 191.997 98.8709 188.759 94.7703L177.143 80.0583C167.465 67.8003 173.129 49.6483 188.059 45.0663L207.279 39.1683C212.044 37.706 216.178 34.684 219.017 30.5883L230.137 14.5443C238.971 1.80229 257.811 1.80229 266.643 14.5443Z" fill="#FFD855"/>
<path d="M119.404 99.2564L127.536 110.99C129.612 113.986 132.636 116.196 136.12 117.264L150.176 121.576C161.094 124.926 165.236 138.202 158.158 147.166L149.664 157.924C147.297 160.923 146.062 164.661 146.178 168.48L146.614 182.874C146.964 194.418 135.49 202.63 124.676 198.572L111.76 193.726C108.082 192.346 104.029 192.346 100.35 193.726L87.4345 198.572C76.6205 202.63 65.1465 194.42 65.4965 182.874L65.9325 168.48C66.049 164.661 64.8145 160.923 62.4465 157.924L53.9525 147.168C46.8745 138.204 51.0165 124.928 61.9345 121.578L75.9905 117.266C79.4743 116.197 82.4975 113.987 84.5745 110.992L92.7065 99.2584C99.1665 89.9364 112.946 89.9364 119.404 99.2564Z" fill="#A0D4ED"/>
<path d="M404.076 99.2561L412.208 110.99C414.284 113.986 417.308 116.196 420.792 117.264L434.848 121.576C445.766 124.926 449.908 138.202 442.83 147.166L434.336 157.924C431.969 160.923 430.734 164.661 430.85 168.48L431.286 182.874C431.636 194.418 420.162 202.63 409.348 198.572L396.432 193.726C392.754 192.346 388.7 192.346 385.022 193.726L372.106 198.572C361.292 202.63 349.818 194.42 350.168 182.874L350.604 168.48C350.721 164.661 349.486 160.923 347.118 157.924L338.624 147.166C331.546 138.202 335.688 124.926 346.606 121.576L360.662 117.264C364.146 116.194 367.169 113.985 369.246 110.99L377.378 99.2561C383.838 89.9361 397.618 89.9361 404.076 99.2561Z" fill="#FF9680"/>
<path d="M72.4983 391.064C65.5623 388.78 60.1463 387.302 56.5203 371.682C55.3403 366.592 48.0623 366.606 46.8843 371.682C43.3383 386.956 38.3923 388.592 30.9043 391.066C26.3963 392.556 26.3863 398.968 30.9043 400.46C43.3403 404.568 44.7483 410.644 46.8823 419.842C48.0683 424.944 55.3363 424.942 56.5203 419.842C60.0623 404.568 65.2783 402.844 72.4983 400.46C77.0063 398.968 77.0163 392.556 72.4983 391.064Z" fill="#2A2A2A"/>
<path d="M59.1127 395.814C56.3727 397.734 53.9127 400.314 51.7927 404.054C50.0527 401.114 47.6127 398.314 44.0527 395.874C46.9327 393.894 49.5127 391.214 51.7127 387.254C53.9527 391.274 56.4927 393.934 59.1127 395.814Z" fill="#FFD855"/>
<path d="M465.879 391.064C458.943 388.78 453.527 387.302 449.901 371.682C448.721 366.592 441.443 366.606 440.265 371.682C436.719 386.956 431.773 388.592 424.285 391.066C419.777 392.556 419.767 398.968 424.285 400.46C436.721 404.568 438.129 410.644 440.263 419.842C441.449 424.944 448.717 424.942 449.901 419.842C453.443 404.568 458.659 402.844 465.879 400.46C470.387 398.968 470.399 392.556 465.879 391.064Z" fill="#2A2A2A"/>
<path d="M452.497 395.814C449.757 397.734 447.298 400.314 445.178 404.054C443.438 401.114 440.997 398.314 437.438 395.874C440.318 393.894 442.898 391.214 445.098 387.254C447.338 391.274 449.877 393.934 452.497 395.814Z" fill="#FFD855"/>
<path d="M279.114 136.304L261.462 129.68C255.048 127.283 248.098 126.693 241.372 127.974C240.727 128.098 240.064 128.094 239.421 127.962C238.778 127.83 238.167 127.572 237.623 127.204C237.08 126.835 236.614 126.364 236.253 125.815C235.891 125.267 235.642 124.653 235.518 124.008C235.394 123.364 235.398 122.701 235.53 122.057C235.662 121.414 235.92 120.804 236.288 120.26C236.657 119.716 237.128 119.251 237.677 118.889C238.225 118.528 238.839 118.278 239.484 118.154C248.017 116.526 256.834 117.274 264.972 120.316L278.734 125.48L278.264 109.958C277.908 99.2963 281.358 88.1903 288.398 79.2743L300.014 64.5623C300.421 64.047 300.925 63.6169 301.498 63.2965C302.072 62.9762 302.702 62.7719 303.354 62.6953C304.006 62.6187 304.667 62.6713 305.299 62.8501C305.931 63.0288 306.521 63.3303 307.037 63.7373C307.552 64.1443 307.982 64.6487 308.302 65.2219C308.623 65.7951 308.827 66.4258 308.904 67.0779C308.98 67.7301 308.928 68.3909 308.749 69.0227C308.57 69.6546 308.269 70.245 307.862 70.7603L296.246 85.4723C290.835 92.3463 288.008 100.902 288.26 109.646L288.858 129.34C288.862 129.46 288.862 129.582 288.858 129.692C288.862 134.512 283.918 138.116 279.114 136.304ZM211.224 133.382C210.759 132.14 210.806 130.765 211.355 129.558C211.903 128.351 212.909 127.411 214.15 126.944L219.768 124.836C220.383 124.606 221.037 124.498 221.693 124.521C222.349 124.543 222.995 124.694 223.593 124.966C224.191 125.238 224.729 125.624 225.177 126.104C225.626 126.584 225.975 127.147 226.206 127.762C226.436 128.377 226.544 129.031 226.521 129.688C226.499 130.344 226.348 130.989 226.076 131.587C225.804 132.185 225.418 132.724 224.938 133.172C224.458 133.62 223.895 133.97 223.28 134.2L217.662 136.308C217.047 136.539 216.393 136.646 215.736 136.624C215.08 136.602 214.434 136.451 213.837 136.179C213.239 135.907 212.7 135.52 212.252 135.04C211.804 134.561 211.454 133.997 211.224 133.382Z" fill="#F8E5B0"/>
<path d="M80.9748 179.636C80.7442 179.022 80.6369 178.367 80.6591 177.711C80.6813 177.055 80.8326 176.409 81.1043 175.811C81.376 175.213 81.7628 174.675 82.2427 174.227C82.7225 173.778 83.286 173.429 83.9008 173.198L89.5188 171.09C90.7606 170.625 92.1365 170.671 93.3438 171.22C94.5512 171.769 95.4911 172.775 95.9568 174.016C96.4226 175.258 96.3759 176.634 95.8272 177.841C95.2785 179.049 94.2726 179.989 93.0308 180.454L87.4129 182.562C86.798 182.793 86.1437 182.9 85.4874 182.878C84.8311 182.856 84.1856 182.705 83.5878 182.433C82.9899 182.161 82.4515 181.774 82.0031 181.295C81.5548 180.815 81.2054 180.251 80.9748 179.636ZM124.697 182.562C116.641 179.54 114.545 178.55 110.183 177.968C108.875 177.785 107.694 177.092 106.895 176.04C106.097 174.989 105.747 173.664 105.921 172.356C106.096 171.047 106.781 169.861 107.827 169.055C108.873 168.25 110.195 167.891 111.505 168.056C115.287 168.56 118.175 169.434 121.231 170.582C120.671 152.398 128.635 144.216 135.133 135.988C135.964 134.979 137.159 134.335 138.459 134.196C139.76 134.056 141.063 134.432 142.09 135.242C143.117 136.053 143.785 137.233 143.952 138.53C144.118 139.828 143.77 141.139 142.981 142.182C132.111 155.954 130.825 156.992 131.451 177.728C131.561 181.308 127.993 183.802 124.697 182.562Z" fill="#C5E5FE"/>
<path d="M365.647 179.636C365.416 179.022 365.309 178.367 365.331 177.711C365.353 177.055 365.504 176.409 365.776 175.811C366.048 175.213 366.435 174.675 366.915 174.227C367.394 173.778 367.958 173.429 368.573 173.198L374.191 171.09C375.432 170.625 376.808 170.671 378.016 171.22C379.223 171.769 380.163 172.775 380.629 174.016C381.094 175.258 381.048 176.634 380.499 177.841C379.95 179.049 378.944 179.989 377.703 180.454L372.085 182.562C371.47 182.793 370.816 182.9 370.159 182.878C369.503 182.856 368.858 182.705 368.26 182.433C367.662 182.161 367.123 181.774 366.675 181.295C366.227 180.815 365.877 180.251 365.647 179.636ZM409.369 182.562C401.313 179.54 399.217 178.55 394.855 177.968C393.547 177.785 392.365 177.092 391.567 176.04C390.769 174.989 390.419 173.664 390.593 172.356C390.768 171.047 391.453 169.861 392.499 169.055C393.545 168.25 394.867 167.891 396.177 168.056C399.959 168.56 402.847 169.434 405.903 170.582C405.577 159.96 408.241 150.632 414.715 142.436L419.805 135.988C420.636 134.979 421.83 134.335 423.131 134.196C424.432 134.056 425.735 134.432 426.762 135.242C427.789 136.053 428.457 137.233 428.624 138.53C428.79 139.828 428.442 141.139 427.653 142.182L422.563 148.63C414.447 158.908 415.843 168.436 416.123 177.728C416.231 181.284 412.687 183.81 409.369 182.562Z" fill="#FFCBC3"/>
<path d="M224.911 325.768C228.511 335.508 237.971 342.048 248.411 342.048C258.831 342.048 268.271 335.508 271.911 325.768C272.37 324.527 272.319 323.154 271.768 321.95C271.216 320.747 270.211 319.811 268.971 319.348C266.451 318.388 263.491 319.768 262.551 322.268C260.349 328.108 254.671 332.048 248.429 332.048H248.391C242.131 332.048 236.451 328.128 234.269 322.288C233.349 319.768 230.371 318.408 227.849 319.348C227.235 319.574 226.671 319.92 226.191 320.364C225.711 320.808 225.323 321.343 225.05 321.938C224.777 322.532 224.624 323.175 224.6 323.829C224.575 324.483 224.68 325.135 224.909 325.748L224.911 325.768ZM223.343 282.41C223.343 281.084 222.816 279.812 221.878 278.875C220.94 277.937 219.669 277.41 218.343 277.41C217.016 277.41 215.745 277.937 214.807 278.875C213.869 279.812 213.343 281.084 213.343 282.41V286.212C213.343 287.538 213.869 288.81 214.807 289.748C215.745 290.685 217.016 291.212 218.343 291.212C219.669 291.212 220.94 290.685 221.878 289.748C222.816 288.81 223.343 287.538 223.343 286.212V282.41ZM278.461 291.212C279.787 291.212 281.058 290.685 281.996 289.748C282.934 288.81 283.461 287.538 283.461 286.212V282.41C283.461 281.084 282.934 279.812 281.996 278.875C281.058 277.937 279.787 277.41 278.461 277.41C277.134 277.41 275.863 277.937 274.925 278.875C273.987 279.812 273.461 281.084 273.461 282.41V286.212C273.461 287.538 273.987 288.81 274.925 289.748C275.863 290.685 277.134 291.212 278.461 291.212ZM248.403 308.568C249.729 308.568 251 308.041 251.938 307.104C252.876 306.166 253.403 304.894 253.403 303.568V286.214C253.403 284.888 252.876 283.616 251.938 282.679C251 281.741 249.729 281.214 248.403 281.214C247.076 281.214 245.805 281.741 244.867 282.679C243.929 283.616 243.403 284.888 243.403 286.214V303.568C243.403 304.894 243.929 306.166 244.867 307.104C245.805 308.041 247.076 308.568 248.403 308.568ZM209.091 196.588C207.825 196.741 206.665 197.37 205.848 198.348C205.03 199.325 204.616 200.578 204.69 201.851C204.764 203.123 205.32 204.32 206.246 205.196C207.171 206.073 208.396 206.563 209.671 206.568C210.377 206.569 211.075 206.42 211.72 206.132C212.365 205.843 212.941 205.422 213.412 204.895C213.882 204.368 214.236 203.747 214.449 203.074C214.663 202.401 214.731 201.69 214.651 200.988C214.493 199.669 213.819 198.466 212.778 197.642C211.736 196.817 210.411 196.439 209.091 196.588Z" fill="#2A2A2A"/>
<path d="M109.724 372.8C108.916 374.131 108.58 375.694 108.77 377.239C108.959 378.784 109.663 380.22 110.768 381.316L141.955 412.524C143.696 414.254 145.075 416.312 146.015 418.579C146.955 420.846 147.435 423.276 147.429 425.73V496.69C147.429 498.016 147.956 499.288 148.894 500.226C149.832 501.163 151.103 501.69 152.429 501.69C153.756 501.69 155.027 501.163 155.965 500.226C156.903 499.288 157.429 498.016 157.429 496.69V425.73C157.429 418.074 154.445 410.874 149.027 405.456L119.962 376.368L152.815 343.516L153.051 343.278L186.357 376.584C188.673 378.913 191.428 380.759 194.463 382.016C197.497 383.273 200.751 383.915 204.035 383.906H215.383C217.801 399.974 231.659 412.346 248.391 412.346C265.121 412.346 278.982 399.974 281.4 383.906H292.751C299.331 383.906 305.772 381.246 310.432 376.586L343.732 343.266C344.06 343.594 376.488 376.056 376.832 376.366L347.751 405.446C342.331 410.866 339.352 418.066 339.352 425.726V438.166C339.352 439.492 339.878 440.764 340.816 441.702C341.754 442.639 343.025 443.166 344.352 443.166C345.678 443.166 346.949 442.639 347.887 441.702C348.825 440.764 349.352 439.492 349.352 438.166V425.726C349.352 420.746 351.294 416.046 354.832 412.526L386.012 381.306C387.113 380.211 387.815 378.777 388.004 377.235C388.193 375.694 387.858 374.133 387.053 372.804L488.568 271.27C499.518 260.318 499.516 242.5 488.566 231.55C477.588 220.57 459.82 220.572 448.844 231.55L347.348 333.066C344.482 331.32 341.046 331.846 338.772 334.084L303.352 369.504C300.536 372.31 296.727 373.891 292.751 373.904H281.812V364.276C299.062 354.816 311.57 338.462 316.066 319.524H319.51C332.658 319.482 343.09 308.878 343.09 295.964C343.09 282.916 332.59 272.386 319.51 272.344H317.99V251.456L324.63 244.684C341.19 228.028 338.354 200.312 319.108 187.184L307.428 179.184C304.452 177.184 300.33 178.84 299.688 182.384C298.942 186.312 296.851 189.857 293.774 192.409C290.696 194.96 286.825 196.359 282.828 196.364H229.667C228.341 196.364 227.07 196.891 226.132 197.829C225.194 198.766 224.667 200.038 224.667 201.364C224.667 204.104 226.907 206.364 229.667 206.364H282.828C287.905 206.358 292.879 204.931 297.188 202.245C301.496 199.559 304.967 195.72 307.208 191.164L313.467 195.444C327.467 205.002 329.76 225.29 317.526 237.664L310.906 244.384H188.811V230.684C188.831 224.324 191.269 218.304 195.689 213.744C197.609 211.764 197.569 208.604 195.589 206.684C193.669 204.804 190.371 204.864 188.509 206.784C182.27 213.171 178.793 221.756 178.829 230.684L178.809 249.188C178.807 249.254 178.789 249.316 178.789 249.384V272.348H177.27C164.264 272.348 153.681 282.93 153.681 295.936C153.681 308.942 164.264 319.522 177.27 319.522H180.721C182.992 328.966 187.212 337.831 193.109 345.549C199.007 353.266 206.452 359.666 214.967 364.338V373.904H204.031C202.061 373.91 200.109 373.524 198.288 372.77C196.467 372.016 194.814 370.909 193.423 369.512L157.993 334.08C155.673 331.764 152.123 331.438 149.431 333.064L47.9355 231.55C36.9575 220.57 19.1895 220.57 8.2135 231.55C-2.7365 242.5 -2.7385 260.318 8.2115 271.27L109.724 372.8ZM455.914 238.624C457.593 236.943 459.586 235.609 461.781 234.7C463.976 233.79 466.329 233.321 468.704 233.321C471.08 233.321 473.433 233.79 475.628 234.7C477.823 235.609 479.817 236.943 481.496 238.624C488.546 245.676 488.545 257.15 481.497 264.204L380.16 365.562L354.572 339.988L455.914 238.624ZM248.391 402.348C235.477 402.348 224.971 391.842 224.971 378.928V368.864C240.13 374.221 256.67 374.196 271.812 368.792V378.926C271.812 391.842 261.305 402.348 248.391 402.348ZM319.512 282.348C326.992 282.348 333.092 288.468 333.092 295.968C333.092 303.428 326.992 309.528 319.512 309.528H317.716C317.9 307.488 317.992 305.404 317.992 303.288V282.348H319.512ZM163.684 295.94C163.688 292.338 165.121 288.884 167.668 286.337C170.215 283.789 173.669 282.356 177.271 282.352H178.791V303.288C178.791 305.442 178.881 307.528 179.057 309.528H177.271C173.669 309.524 170.215 308.091 167.668 305.544C165.121 302.996 163.688 299.543 163.684 295.94ZM188.791 303.288V254.388H307.992V303.288C307.992 326.078 294.991 346.78 274.609 356.78C266.402 360.784 257.39 362.866 248.257 362.868C214.989 362.868 188.791 335.698 188.791 303.288ZM15.2875 238.622C16.9666 236.941 18.9606 235.608 21.1553 234.698C23.3501 233.788 25.7027 233.32 28.0785 233.32C30.4543 233.32 32.8069 233.788 35.0017 234.698C37.1964 235.608 39.1904 236.941 40.8695 238.622L142.207 339.978L116.628 365.56L15.2875 264.2C8.2375 257.15 8.2375 245.674 15.2875 238.622Z" fill="#2A2A2A"/>
<path d="M344.35 463.168C347.111 463.168 349.35 460.93 349.35 458.168C349.35 455.407 347.111 453.168 344.35 453.168C341.588 453.168 339.35 455.407 339.35 458.168C339.35 460.93 341.588 463.168 344.35 463.168Z" fill="#2A2A2A"/>
<path d="M339.35 496.688C339.35 498.014 339.877 499.286 340.815 500.224C341.752 501.161 343.024 501.688 344.35 501.688C345.676 501.688 346.948 501.161 347.886 500.224C348.823 499.286 349.35 498.014 349.35 496.688V478.168C349.35 476.842 348.823 475.57 347.886 474.633C346.948 473.695 345.676 473.168 344.35 473.168C343.024 473.168 341.752 473.695 340.815 474.633C339.877 475.57 339.35 476.842 339.35 478.168V496.688ZM184.84 97.8682C187.346 101.047 188.654 105.006 188.534 109.052L187.936 128.734C187.35 148.066 206.592 161.824 224.688 155.032L242.348 148.406C246.246 146.944 250.541 146.944 254.438 148.406L272.098 155.032C290.22 161.832 309.436 148.032 308.85 128.734L308.252 109.052C308.131 105.006 309.439 101.046 311.946 97.8682L323.562 83.1562C335.41 68.1503 328.464 45.8923 310.19 40.2863L290.97 34.3883C287.281 33.2514 284.079 30.9107 281.876 27.7402L270.754 11.6962C259.942 -3.89975 236.84 -3.89775 226.032 11.6962L214.91 27.7423C212.707 30.9122 209.506 33.2522 205.816 34.3883L186.596 40.2863C168.318 45.8943 161.38 68.1543 173.224 83.1562L184.84 97.8682ZM189.528 49.8463L208.748 43.9482C214.581 42.1498 219.643 38.4497 223.126 33.4383L234.248 17.3942C241.106 7.50025 255.684 7.51025 262.534 17.3942L273.656 33.4383C277.139 38.4508 282.201 42.1517 288.034 43.9503L307.254 49.8483C318.848 53.4043 323.218 67.4543 315.712 76.9603L304.096 91.6722C300.132 96.6975 298.063 102.958 298.254 109.356L298.852 129.038C299.226 141.3 287.08 149.974 275.608 145.67L257.948 139.044C251.787 136.733 244.996 136.733 238.834 139.044L221.174 145.67C209.662 149.984 197.558 141.264 197.93 129.038L198.528 109.356C198.72 102.958 196.652 96.6971 192.686 91.6722L181.07 76.9603C173.556 67.4423 177.948 53.3983 189.528 49.8463ZM70.9323 168.628C70.9323 163.484 69.5923 158.922 66.3743 154.828L61.1123 148.168C59.4543 146.068 56.1923 145.688 54.0923 147.348C53.5773 147.755 53.1476 148.26 52.8277 148.833C52.5077 149.406 52.3039 150.036 52.2277 150.688C52.1516 151.34 52.2046 152.001 52.3838 152.632C52.5631 153.264 52.865 153.854 53.2723 154.368L58.5123 161.028C60.2583 163.242 60.9323 165.654 60.9323 168.368L60.4923 182.728V182.748C60.4923 198.894 75.8263 208.328 89.1923 203.248L102.112 198.408C104.655 197.468 107.45 197.468 109.992 198.408L122.912 203.248C136.408 208.338 151.612 198.786 151.612 182.768L151.172 168.328C151.172 165.482 151.966 163.09 153.592 161.028L162.092 150.268C171.288 138.57 165.978 121.246 151.652 116.788L137.592 112.488C135.183 111.746 133.092 110.218 131.652 108.148L123.512 96.4082C115.078 84.2242 97.0343 84.2182 88.5923 96.4082L80.4723 108.148C79.0241 110.218 76.9267 111.745 74.5123 112.488L63.5323 115.848C62.2659 116.243 61.2075 117.123 60.5893 118.297C59.971 119.47 59.8434 120.841 60.2343 122.108C61.0143 124.688 63.8543 126.208 66.4743 125.408H66.4943L77.4543 122.048C81.9943 120.648 85.9743 117.748 88.6923 113.848L96.8143 102.108C101.438 95.4703 110.942 95.8283 115.294 102.108L123.432 113.848C126.134 117.748 130.112 120.648 134.652 122.048L148.712 126.368C156.084 128.616 159.22 137.706 154.232 144.068L145.732 154.828C142.388 159.084 140.928 164.442 141.19 168.748C141.206 169.306 141.61 182.828 141.61 183.388C141.61 191.216 133.744 196.7 126.43 193.888L113.51 189.048C108.712 187.248 103.35 187.248 98.5903 189.048L85.6703 193.888C78.5003 196.69 70.4903 191.318 70.4903 183.388C70.4923 183.14 70.9243 168.876 70.9323 168.628ZM49.7323 138.088C50.3692 138.246 51.031 138.276 51.6796 138.177C52.3282 138.078 52.9509 137.852 53.512 137.512C54.0731 137.172 54.5616 136.725 54.9495 136.195C55.3373 135.666 55.6169 135.066 55.7723 134.428C55.9291 133.791 55.9588 133.13 55.8596 132.481C55.7605 131.833 55.5345 131.21 55.1946 130.649C54.8546 130.088 54.4074 129.6 53.8785 129.212C53.3496 128.824 52.7494 128.544 52.1123 128.388C49.4743 127.728 46.7143 129.408 46.0723 132.048C45.7584 133.334 45.9674 134.693 46.6535 135.825C47.3396 136.957 48.4468 137.771 49.7323 138.088ZM343.194 161.026C344.832 163.102 345.686 165.688 345.608 168.33L345.17 182.726C344.712 197.828 359.744 208.554 373.862 203.258L386.778 198.412C389.324 197.456 392.13 197.456 394.676 198.412L407.592 203.258C421.73 208.562 436.74 197.81 436.284 182.726L435.848 168.33C435.768 165.688 436.622 163.102 438.26 161.026L446.754 150.268C456.006 138.552 450.58 121.176 436.314 116.798L422.258 112.486C419.848 111.743 417.757 110.214 416.316 108.144L408.184 96.4102C399.748 84.2362 381.708 84.2362 373.27 96.4102L365.138 108.144C363.698 110.215 361.606 111.743 359.196 112.486L345.14 116.798C330.872 121.178 325.452 138.556 334.7 150.268L343.194 161.026ZM348.074 126.358L362.13 122.046C366.684 120.642 370.637 117.753 373.356 113.84L381.488 102.106C385.966 95.6442 395.49 95.6502 399.964 102.106L408.096 113.84C410.817 117.753 414.769 120.641 419.322 122.046L433.378 126.358C440.936 128.676 443.818 137.844 438.904 144.07L430.41 154.828C427.315 158.752 425.7 163.641 425.85 168.636L426.286 183.03C426.528 191.038 418.6 196.708 411.102 193.896L398.186 189.05C393.376 187.246 388.075 187.246 383.264 189.05L370.348 193.896C362.848 196.706 354.922 191.036 355.164 183.032L355.602 168.636C355.75 163.641 354.135 158.754 351.04 154.83L342.546 144.072C337.648 137.862 340.494 128.684 348.074 126.358Z" fill="#2A2A2A"/>
</svg>
