<svg width="512" height="512" viewBox="0 0 512 512" fill="none" xmlns="http://www.w3.org/2000/svg">
<path d="M448.721 501.991L434.843 443.404C426.894 409.847 399.428 384.439 365.355 379.121L329.673 373.552C312.685 370.901 300.16 356.27 300.16 339.076H211.84C211.84 356.27 199.315 370.9 182.327 373.552L146.645 379.121C112.572 384.438 85.1063 409.847 77.1573 443.404L63.2793 501.991H448.721Z" fill="#87B1CF"/>
<path d="M195.556 368.598C210.421 385.16 231.994 395.578 256 395.578C280.007 395.578 301.58 385.159 316.444 368.597L316.464 368.572C306.592 362.344 300.159 351.38 300.159 339.077H211.84C211.84 351.384 205.404 362.351 195.526 368.578L195.556 368.598Z" fill="#FFD0C7"/>
<path d="M349.322 232.547C360.268 215.387 366.612 195.005 366.612 173.142C366.612 112.053 317.09 62.5308 256.001 62.5308C194.912 62.5308 145.39 112.053 145.39 173.142C145.39 195.006 151.734 215.388 162.68 232.549L349.322 232.547Z" fill="#CB9879"/>
<path d="M349.318 194.762C349.046 194.347 348.785 193.925 348.508 193.514C302.67 193.311 260.886 175.965 229.228 147.556C201.518 154.386 177.897 171.575 162.682 194.772V250.116C162.682 301.655 204.462 343.434 256 343.434C307.539 343.434 349.318 301.654 349.318 250.116V194.762Z" fill="#FFD0C7"/>
<path d="M470.659 496.898C441.868 510.323 407.754 496.252 396.801 466.432L328.065 279.299L395.626 247.795L494.796 420.737C510.599 448.294 499.45 483.473 470.659 496.898Z" fill="#87B1CF"/>
<path d="M382.758 253.795L387.572 198.772C388.203 191.56 387.21 184.299 384.665 177.521C382.121 170.744 378.09 164.623 372.87 159.608L361.058 148.261C349.196 136.866 329.668 140.362 322.495 155.164C321.062 158.12 320.246 161.338 320.096 164.62C319.947 167.902 320.466 171.18 321.624 174.255L334.308 207.943L332.279 231.135C330.996 245.803 333.426 260.557 339.346 274.039L382.758 253.795Z" fill="#FFD0C7"/>
<path d="M41.3409 496.898C70.1319 510.323 104.246 496.252 115.199 466.432L183.935 279.299L116.374 247.795L17.2039 420.737C1.40089 448.294 12.5499 483.473 41.3409 496.898Z" fill="#87B1CF"/>
<path d="M129.242 253.795L124.428 198.772C123.797 191.56 124.79 184.299 127.334 177.521C129.878 170.744 133.909 164.623 139.13 159.608L150.942 148.261C162.804 136.866 182.332 140.362 189.505 155.164C190.937 158.12 191.753 161.338 191.903 164.62C192.053 167.902 191.533 171.18 190.376 174.255L177.692 207.943L179.721 231.135C181.004 245.803 178.573 260.557 172.654 274.039L129.242 253.795Z" fill="#FFD0C7"/>
<path d="M327.952 192.26C290.228 187.795 256.084 171.656 229.227 147.556C215.845 150.858 203.196 156.624 191.927 164.559M176.85 299.573C193.345 325.916 222.627 343.434 256 343.434C289.341 343.434 318.598 325.949 335.102 299.649" stroke="#252525" stroke-width="20" stroke-miterlimit="10" stroke-linecap="round" stroke-linejoin="round"/>
<path d="M364.46 151.326C354.33 100.685 309.621 62.5298 256 62.5298C202.552 62.5298 157.958 100.438 147.639 150.835M211.84 339.077C211.84 356.271 199.315 370.901 182.327 373.553L147.691 378.958M300.16 339.077C300.16 356.271 312.685 370.901 329.673 373.553L364.246 378.948" stroke="#252525" stroke-width="20" stroke-miterlimit="10" stroke-linecap="round" stroke-linejoin="round"/>
<path d="M316.444 368.597C301.579 385.159 280.006 395.578 256 395.578C231.994 395.578 210.421 385.16 195.556 368.598M293.777 241.482L284.301 237.238M218.223 241.482L227.699 237.238M478.53 392.37L494.796 420.736C510.599 448.294 499.45 483.472 470.659 496.898C441.868 510.323 407.754 496.252 396.801 466.432L328.065 279.299L395.626 247.795L433.759 314.296" stroke="#252525" stroke-width="20" stroke-miterlimit="10" stroke-linecap="round" stroke-linejoin="round"/>
<path d="M382.758 253.795L387.572 198.772C388.203 191.56 387.21 184.299 384.665 177.521C382.121 170.744 378.091 164.623 372.87 159.608L361.058 148.261C349.196 136.866 329.668 140.362 322.495 155.164C321.062 158.12 320.246 161.338 320.097 164.62C319.947 167.902 320.467 171.18 321.624 174.255L334.308 207.943L332.279 231.135C330.996 245.803 333.426 260.557 339.346 274.039L382.758 253.795ZM41.3409 496.898C70.1319 510.323 104.246 496.252 115.199 466.432L183.935 279.299L116.374 247.795L17.2039 420.737C1.40089 448.294 12.5499 483.473 41.3409 496.898Z" stroke="#252525" stroke-width="20" stroke-miterlimit="10" stroke-linecap="round" stroke-linejoin="round"/>
<path d="M271.917 287.228C263.124 278.435 248.867 278.435 240.074 287.228M502 106.005L452.379 129.641L483.677 147.711L432.228 177.005M432.228 10L394.967 50.404L430.742 55.528L393.89 101.866M10 106.005L59.621 129.641L28.323 147.711L79.772 177.005M79.772 10L117.033 50.404L81.258 55.528L118.11 101.866M63.279 501.991H448.721M129.242 253.795L124.428 198.772C123.797 191.56 124.79 184.299 127.334 177.522C129.879 170.744 133.909 164.623 139.13 159.608L150.942 148.261C162.804 136.866 182.332 140.362 189.505 155.164C190.938 158.121 191.754 161.338 191.903 164.62C192.053 167.902 191.533 171.18 190.376 174.255L177.692 207.943L179.721 231.135C181.004 245.803 178.574 260.558 172.654 274.039L129.242 253.795Z" stroke="#252525" stroke-width="20" stroke-miterlimit="10" stroke-linecap="round" stroke-linejoin="round"/>
</svg>
