<svg width="428" height="494" viewBox="0 0 428 494" fill="none" xmlns="http://www.w3.org/2000/svg">
<path fill-rule="evenodd" clip-rule="evenodd" d="M209.828 439.799L48.8943 346.883C47.6793 346.186 46.6699 345.18 45.9679 343.967C45.266 342.755 44.8963 341.378 44.8963 339.977H44.8633V154.019C44.8631 152.486 45.3035 150.985 46.1321 149.695C46.9608 148.405 48.1427 147.38 49.5373 146.742L209.939 54.1343C211.165 53.4292 212.557 53.0634 213.971 53.0745C215.386 53.0855 216.771 53.4731 217.986 54.1973L378.921 147.112C380.136 147.81 381.146 148.816 381.848 150.028C382.55 151.241 382.919 152.617 382.919 154.018H382.952V339.976C382.953 341.51 382.512 343.011 381.683 344.301C380.855 345.591 379.673 346.616 378.278 347.253L217.876 439.861C216.65 440.567 215.258 440.933 213.844 440.922C212.429 440.911 211.043 440.524 209.828 439.799ZM205.907 419.139V251.577L60.8623 167.835V335.398L205.907 419.139ZM68.7943 154.019L213.907 237.8L359.02 154.019L213.907 70.2383L68.7943 154.019ZM366.952 167.835L221.907 251.577V419.139L366.952 335.398V167.835Z" fill="#B4D2D7"/>
<path d="M278.677 311.825C314.479 276.023 314.479 217.977 278.677 182.175C242.876 146.374 184.83 146.374 149.028 182.175C113.226 217.977 113.226 276.023 149.028 311.825C184.83 347.626 242.876 347.626 278.677 311.825Z" fill="#FFDA2D"/>
<path fill-rule="evenodd" clip-rule="evenodd" d="M153.052 234.405C152.309 235.148 151.427 235.737 150.457 236.139C149.486 236.541 148.446 236.748 147.396 236.748C146.345 236.748 145.305 236.541 144.335 236.139C143.364 235.737 142.482 235.148 141.74 234.405C140.997 233.663 140.407 232.781 140.005 231.81C139.603 230.84 139.396 229.8 139.396 228.749C139.396 227.699 139.603 226.659 140.005 225.688C140.407 224.718 140.997 223.836 141.74 223.093C161.669 203.163 187.789 193.199 213.908 193.199C240.027 193.199 266.148 203.164 286.077 223.093C286.819 223.836 287.409 224.718 287.811 225.688C288.213 226.659 288.42 227.699 288.42 228.749C288.42 229.8 288.213 230.84 287.811 231.81C287.409 232.781 286.819 233.663 286.077 234.405C285.334 235.148 284.452 235.737 283.482 236.139C282.511 236.541 281.471 236.748 280.421 236.748C279.37 236.748 278.33 236.541 277.36 236.139C276.389 235.737 275.507 235.148 274.765 234.405C257.961 217.601 235.935 209.199 213.909 209.199C191.883 209.198 169.856 217.601 153.052 234.405ZM192.73 289.627C192.726 286.845 193.272 284.09 194.337 281.521C195.402 278.951 196.964 276.616 198.934 274.652C202.766 270.82 208.061 268.448 213.908 268.448C219.755 268.448 225.05 270.819 228.883 274.652C232.715 278.485 235.087 283.779 235.087 289.627C235.087 295.475 232.716 300.769 228.883 304.602C226.918 306.572 224.584 308.134 222.014 309.199C219.444 310.263 216.689 310.81 213.908 310.806C211.126 310.81 208.371 310.263 205.802 309.199C203.232 308.134 200.898 306.573 198.934 304.603C196.964 302.639 195.402 300.304 194.337 297.734C193.273 295.164 192.726 292.409 192.73 289.627ZM210.246 285.965C209.764 286.446 209.382 287.017 209.122 287.645C208.862 288.273 208.729 288.947 208.73 289.627C208.73 291.058 209.31 292.353 210.246 293.289C210.726 293.771 211.297 294.153 211.925 294.413C212.554 294.673 213.227 294.806 213.908 294.805C215.338 294.805 216.633 294.225 217.57 293.289C218.507 292.352 219.086 291.057 219.086 289.627C219.086 288.197 218.506 286.902 217.57 285.965C217.089 285.484 216.518 285.102 215.89 284.842C215.261 284.582 214.588 284.448 213.908 284.449C213.227 284.448 212.554 284.581 211.925 284.841C211.297 285.102 210.726 285.484 210.246 285.965ZM188.525 269.878C195.533 262.87 204.72 259.365 213.908 259.365C223.095 259.365 232.282 262.869 239.291 269.878C240.798 271.342 242.821 272.154 244.923 272.139C247.024 272.123 249.035 271.282 250.521 269.796C252.007 268.31 252.848 266.299 252.864 264.197C252.879 262.096 252.067 260.073 250.603 258.565C240.469 248.432 227.188 243.365 213.908 243.365C200.627 243.365 187.346 248.432 177.213 258.565C176.47 259.308 175.88 260.19 175.478 261.16C175.076 262.131 174.869 263.171 174.869 264.221C174.869 265.272 175.076 266.312 175.478 267.282C175.88 268.253 176.47 269.135 177.213 269.877C177.955 270.62 178.837 271.21 179.807 271.612C180.778 272.014 181.818 272.221 182.868 272.221C183.919 272.221 184.959 272.014 185.93 271.612C186.9 271.21 187.782 270.621 188.525 269.878ZM170.789 252.142C182.695 240.236 198.302 234.282 213.908 234.282C229.515 234.282 245.121 240.236 257.028 252.142C258.535 253.606 260.558 254.418 262.66 254.403C264.761 254.387 266.772 253.546 268.258 252.06C269.744 250.574 270.585 248.563 270.601 246.461C270.616 244.36 269.804 242.337 268.34 240.829C253.309 225.798 233.608 218.282 213.908 218.282C194.208 218.282 174.507 225.798 159.476 240.829C158.719 241.569 158.117 242.451 157.704 243.426C157.291 244.4 157.075 245.446 157.069 246.504C157.063 247.562 157.267 248.611 157.669 249.59C158.071 250.568 158.664 251.458 159.412 252.206C160.16 252.954 161.049 253.546 162.028 253.949C163.007 254.351 164.055 254.555 165.114 254.549C166.172 254.543 167.218 254.327 168.192 253.914C169.166 253.501 170.049 252.899 170.789 252.142Z" fill="#EFF4F7"/>
<path fill-rule="evenodd" clip-rule="evenodd" d="M52.864 215.064L0 184.543V123.501L52.864 92.9805L105.728 123.501V184.543L52.864 215.064Z" fill="#64B5F6"/>
<path fill-rule="evenodd" clip-rule="evenodd" d="M52.864 92.9805L0 123.501L52.864 154.022L105.728 123.501L52.864 92.9805Z" fill="#42A5F5"/>
<path fill-rule="evenodd" clip-rule="evenodd" d="M105.727 123.5L52.8633 154.021V215.063L105.727 184.542V123.5Z" fill="#2D90F1"/>
<path fill-rule="evenodd" clip-rule="evenodd" d="M213.908 122.084L161.044 91.563V30.521L213.908 0L266.772 30.521V91.563L213.908 122.084Z" fill="#64B5F6"/>
<path fill-rule="evenodd" clip-rule="evenodd" d="M213.908 0L161.044 30.521L213.908 61.042L266.772 30.521L213.908 0Z" fill="#42A5F5"/>
<path fill-rule="evenodd" clip-rule="evenodd" d="M266.772 30.5195L213.908 61.0405V122.083L266.772 91.5615V30.5195Z" fill="#2D90F1"/>
<path fill-rule="evenodd" clip-rule="evenodd" d="M374.952 215.064L322.088 184.543V123.501L374.952 92.9805L427.816 123.501V184.543L374.952 215.064Z" fill="#64B5F6"/>
<path fill-rule="evenodd" clip-rule="evenodd" d="M374.952 92.9805L322.088 123.501L374.952 154.022L427.816 123.501L374.952 92.9805Z" fill="#42A5F5"/>
<path fill-rule="evenodd" clip-rule="evenodd" d="M427.816 123.5L374.952 154.021V215.063L427.816 184.542V123.5Z" fill="#2D90F1"/>
<path fill-rule="evenodd" clip-rule="evenodd" d="M374.952 401.021L322.088 370.5V309.457L374.952 278.938L427.816 309.457V370.5L374.952 401.021Z" fill="#64B5F6"/>
<path fill-rule="evenodd" clip-rule="evenodd" d="M374.952 278.938L322.088 309.457L374.952 339.979L427.816 309.457L374.952 278.938Z" fill="#42A5F5"/>
<path fill-rule="evenodd" clip-rule="evenodd" d="M427.816 309.457L374.952 339.979V401.021L427.816 370.5V309.457Z" fill="#2D90F1"/>
<path fill-rule="evenodd" clip-rule="evenodd" d="M213.908 493.998L161.044 463.477V402.435L213.908 371.914L266.772 402.435V463.477L213.908 493.998Z" fill="#64B5F6"/>
<path fill-rule="evenodd" clip-rule="evenodd" d="M213.908 371.914L161.044 402.435L213.908 432.956L266.772 402.435L213.908 371.914Z" fill="#42A5F5"/>
<path fill-rule="evenodd" clip-rule="evenodd" d="M266.772 402.438L213.908 432.958V494L266.772 463.479V402.438Z" fill="#2D90F1"/>
<path fill-rule="evenodd" clip-rule="evenodd" d="M52.864 401.021L0 370.5V309.457L52.864 278.938L105.728 309.457V370.5L52.864 401.021Z" fill="#64B5F6"/>
<path fill-rule="evenodd" clip-rule="evenodd" d="M52.864 278.938L0 309.457L52.864 339.979L105.728 309.457L52.864 278.938Z" fill="#42A5F5"/>
<path fill-rule="evenodd" clip-rule="evenodd" d="M105.727 309.457L52.8633 339.979V401.021L105.727 370.5V309.457Z" fill="#2D90F1"/>
</svg>
