<svg width="512" height="482" viewBox="0 0 512 482" fill="none" xmlns="http://www.w3.org/2000/svg">
<path fill-rule="evenodd" clip-rule="evenodd" d="M491.605 409.721H20.3967C16.4975 409.721 13.498 406.721 13.498 403.122V126.876C13.498 123.277 16.4975 120.277 20.3967 120.277H491.605C495.204 120.277 498.203 123.277 498.203 126.876V403.122C498.203 406.721 495.204 409.721 491.605 409.721Z" fill="#333333"/>
<path fill-rule="evenodd" clip-rule="evenodd" d="M461.611 409.719H50.3908C46.4916 409.719 43.4922 406.719 43.4922 403.12V156.868C43.4922 153.269 46.4916 150.27 50.3908 150.27H461.611C465.21 150.27 468.209 153.269 468.209 156.868V403.12C468.209 406.719 465.21 409.719 461.611 409.719Z" fill="#59BBFF"/>
<path fill-rule="evenodd" clip-rule="evenodd" d="M505.101 482.006H6.89865C2.99941 482.006 0 479.006 0 475.107V403.121C0 399.222 2.99941 396.223 6.89865 396.223H505.101C508.701 396.223 511.7 399.222 511.7 403.121V475.107C511.7 479.006 508.701 482.006 505.101 482.006Z" fill="#4F4E4F"/>
<path fill-rule="evenodd" clip-rule="evenodd" d="M164.367 396.223H347.331L319.137 439.714C317.637 441.214 315.838 442.114 313.738 442.114H198.261C196.161 442.114 194.061 441.214 192.862 439.714L164.367 396.223Z" fill="#CCCCCC"/>
<path fill-rule="evenodd" clip-rule="evenodd" d="M43.4922 396.221L466.71 152.369C465.51 151.169 463.71 150.27 461.611 150.27H50.3908C46.4916 150.27 43.4922 153.269 43.4922 156.868V396.221Z" fill="#4BB1FA"/>
<path fill-rule="evenodd" clip-rule="evenodd" d="M355.131 307.14C353.331 307.14 351.231 306.54 350.032 305.04L305.34 256.15C302.641 253.45 302.941 248.951 305.64 246.552L321.837 165.568C324.537 162.868 328.736 162.868 331.435 165.568C342.833 177.265 361.729 210.259 361.729 300.241C361.729 303.241 360.23 305.64 357.53 306.84C356.63 307.14 356.03 307.14 355.131 307.14ZM156.869 307.14C155.97 307.14 155.07 307.14 154.47 306.84C151.77 305.64 149.971 303.241 149.971 300.241C149.971 210.559 169.167 177.265 180.265 165.568C182.964 162.868 187.463 162.868 190.163 165.568C212.059 186.863 208.459 254.35 206.66 256.15L161.968 305.04C160.469 306.54 158.669 307.14 156.869 307.14Z" fill="#FF3131"/>
<path fill-rule="evenodd" clip-rule="evenodd" d="M287.944 313.438H223.756C220.157 313.438 216.857 310.438 216.857 306.539V270.246C216.857 266.347 220.157 263.348 223.756 263.348H287.944C291.843 263.348 294.842 266.347 294.842 270.246V306.539C294.842 310.438 291.843 313.438 287.944 313.438Z" fill="#333333"/>
<path fill-rule="evenodd" clip-rule="evenodd" d="M303.84 276.846H207.859C205.159 276.846 202.46 275.046 201.56 272.347C158.069 151.47 182.064 79.1845 209.659 40.1921C227.955 14.0972 250.751 0 255.85 0C261.248 0 284.044 14.0972 302.34 40.1921C329.935 79.1845 353.63 151.47 310.439 272.347C309.539 275.046 306.84 276.846 303.84 276.846Z" fill="#C4DCF0"/>
<path fill-rule="evenodd" clip-rule="evenodd" d="M190.162 76.785C195.561 62.3878 202.46 50.0902 209.658 40.1922C227.955 14.0972 250.75 0 255.849 0C261.248 0 284.044 14.0972 302.34 40.1922C309.239 50.0902 316.138 62.3878 321.536 76.785C282.544 97.181 229.454 97.181 190.162 76.785Z" fill="#FF3131"/>
<path fill-rule="evenodd" clip-rule="evenodd" d="M255.851 212.357C236.954 212.357 221.357 196.76 221.357 177.864C221.357 158.667 236.954 143.07 255.851 143.07C275.047 143.07 290.644 158.667 290.644 177.864C290.644 196.76 275.047 212.357 255.851 212.357Z" fill="#333333"/>
<path fill-rule="evenodd" clip-rule="evenodd" d="M255.85 378.228C252.251 378.228 249.251 375.228 249.251 371.329V341.035C249.251 337.436 252.251 334.136 255.85 334.136C259.749 334.136 262.749 337.436 262.749 341.035V371.329C262.749 375.228 259.749 378.228 255.85 378.228ZM231.555 368.33C227.656 368.33 224.656 365.03 224.656 361.431V331.137C224.656 327.238 227.656 324.238 231.555 324.238C235.454 324.238 238.454 327.238 238.454 331.137V361.431C238.454 365.03 235.454 368.33 231.555 368.33ZM280.445 368.33C276.546 368.33 273.547 365.03 273.547 361.431V331.137C273.547 327.238 276.546 324.238 280.445 324.238C284.045 324.238 287.044 327.238 287.044 331.137V361.431C287.044 365.03 284.045 368.33 280.445 368.33Z" fill="white"/>
<path fill-rule="evenodd" clip-rule="evenodd" d="M255.85 153.27C242.353 153.27 231.555 164.367 231.555 177.865C231.555 191.362 242.353 202.16 255.85 202.16C269.347 202.16 280.445 191.362 280.445 177.865C280.445 164.367 269.347 153.27 255.85 153.27Z" fill="#59BBFF"/>
<path fill-rule="evenodd" clip-rule="evenodd" d="M234.254 181.164C234.254 167.667 245.352 156.869 258.849 156.869C265.448 156.869 271.747 159.568 276.246 164.067C271.747 157.469 264.248 153.27 255.85 153.27C242.353 153.27 231.555 164.367 231.555 177.865C231.555 184.463 234.254 190.762 238.753 194.961C236.054 191.062 234.254 186.263 234.254 181.164Z" fill="#4BB1FA"/>
</svg>
