<svg width="491" height="448" viewBox="0 0 491 448" fill="none" xmlns="http://www.w3.org/2000/svg">
<path d="M42.6667 340.951H160C171.316 340.951 182.168 336.455 190.17 328.454C198.171 320.452 202.667 309.6 202.667 298.284V266.284C202.667 246.481 194.8 227.489 180.797 213.487C166.795 199.484 147.803 191.617 128 191.617H74.6667C54.8638 191.617 35.8721 199.484 21.8694 213.487C7.86664 227.489 0 246.481 0 266.284V298.284C0 309.6 4.49523 320.452 12.4968 328.454C20.4983 336.455 31.3508 340.951 42.6667 340.951Z" fill="#2980B9"/>
<path d="M128.001 191.617H74.6673C67.4418 191.623 60.2556 192.68 53.334 194.753V196.951C53.334 209.681 58.3911 221.89 67.3929 230.892C76.3946 239.893 88.6036 244.951 101.334 244.951C114.064 244.951 126.273 239.893 135.275 230.892C144.277 221.89 149.334 209.681 149.334 196.951V194.753C142.412 192.68 135.226 191.623 128.001 191.617Z" fill="#1D6D99"/>
<path d="M127.999 164.952C127.999 150.224 116.06 138.285 101.333 138.285C86.6051 138.285 74.666 150.224 74.666 164.952V196.952C74.666 211.679 86.6051 223.618 101.333 223.618C116.06 223.618 127.999 211.679 127.999 196.952V164.952Z" fill="#FFD188"/>
<path d="M101.333 54.7344C85.7733 54.7344 70.8512 60.9153 59.8491 71.9175C48.847 82.9196 42.666 97.8417 42.666 113.401V128.206C42.6665 143.766 48.8478 158.687 59.85 169.689L70.3247 180.164C73.9542 183.796 78.2643 186.678 83.0084 188.644C87.7524 190.609 92.8375 191.621 97.9727 191.62H104.693C109.828 191.621 114.913 190.609 119.657 188.644C124.401 186.678 128.711 183.796 132.341 180.164L142.815 169.689C153.818 158.687 159.999 143.766 159.999 128.206V113.401C159.999 97.8417 153.818 82.9196 142.816 71.9175C131.814 60.9153 116.892 54.7344 101.333 54.7344Z" fill="#FFD188"/>
<path d="M94.1647 179.119L82.7407 167.695C70.7414 155.693 64.0001 139.418 63.9993 122.447V106.287C63.9958 96.6737 66.1628 87.184 70.3388 78.5255C74.5147 69.8671 80.5918 62.2632 88.1167 56.2812C75.2019 59.2673 63.6791 66.539 55.4257 76.9115C47.1722 87.284 42.6748 100.146 42.666 113.401V128.207C42.6665 143.766 48.8478 158.687 59.85 169.689L70.3247 180.164C73.9542 183.797 78.2643 186.678 83.0084 188.644C87.7524 190.61 92.8375 191.621 97.9727 191.62H104.693C107.936 191.572 111.161 191.12 114.293 190.276C106.685 188.477 99.7211 184.617 94.1647 179.119Z" fill="#F9A06F"/>
<path d="M42.6661 116.95C42.6661 116.95 10.6661 63.6168 60.5754 41.2168C66.779 34.9305 74.1695 29.939 82.3179 26.5322C90.4663 23.1254 99.2102 21.3711 108.042 21.3711C116.874 21.3711 125.618 23.1254 133.766 26.5322C141.915 29.939 149.305 34.9305 155.509 41.2168C187.359 69.6328 159.999 116.95 159.999 116.95C129.19 116.564 99.2235 106.83 74.0687 89.0354C60.4957 94.1142 49.3006 104.066 42.6661 116.95Z" fill="#E67244"/>
<path d="M64.0954 38.0195C61.8661 39.8755 60.5754 41.1662 60.5754 41.1662C10.6661 63.6195 42.6661 116.953 42.6661 116.953C46.4803 109.426 51.9506 102.862 58.6661 97.7529C54.6898 88.0959 53.1068 77.6208 54.0522 67.2201C54.9975 56.8194 58.4431 46.8013 64.0954 38.0195Z" fill="#C6512B"/>
<path d="M330.667 340.951H448C459.316 340.951 470.168 336.455 478.17 328.454C486.171 320.452 490.667 309.6 490.667 298.284V266.284C490.667 246.481 482.8 227.489 468.797 213.487C454.795 199.484 435.803 191.617 416 191.617H362.667C342.864 191.617 323.872 199.484 309.869 213.487C295.867 227.489 288 246.481 288 266.284V298.284C288 309.6 292.495 320.452 300.497 328.454C308.498 336.455 319.351 340.951 330.667 340.951Z" fill="#2980B9"/>
<path d="M416.001 191.617H362.667C355.442 191.623 348.256 192.68 341.334 194.753V196.951C341.334 209.681 346.391 221.89 355.393 230.892C364.395 239.893 376.604 244.951 389.334 244.951C402.064 244.951 414.273 239.893 423.275 230.892C432.277 221.89 437.334 209.681 437.334 196.951V194.753C430.412 192.68 423.226 191.623 416.001 191.617Z" fill="#1D6D99"/>
<path d="M415.999 164.952C415.999 150.224 404.06 138.285 389.333 138.285C374.605 138.285 362.666 150.224 362.666 164.952V196.952C362.666 211.679 374.605 223.618 389.333 223.618C404.06 223.618 415.999 211.679 415.999 196.952V164.952Z" fill="#FFD188"/>
<path d="M389.333 54.7344C373.773 54.7344 358.851 60.9153 347.849 71.9175C336.847 82.9196 330.666 97.8417 330.666 113.401V128.206C330.667 143.766 336.848 158.687 347.85 169.689L358.325 180.164C361.954 183.796 366.264 186.678 371.008 188.644C375.752 190.609 380.837 191.621 385.973 191.62H392.693C397.828 191.621 402.913 190.609 407.657 188.644C412.401 186.678 416.711 183.796 420.341 180.164L430.815 169.689C441.818 158.687 447.999 143.766 447.999 128.206V113.401C447.999 97.8417 441.818 82.9196 430.816 71.9175C419.814 60.9153 404.892 54.7344 389.333 54.7344Z" fill="#FFD188"/>
<path d="M382.165 179.119L370.741 167.695C358.741 155.693 352 139.418 351.999 122.447V106.287C351.996 96.6737 354.163 87.184 358.339 78.5255C362.515 69.8671 368.592 62.2632 376.117 56.2812C363.202 59.2673 351.679 66.539 343.426 76.9115C335.172 87.284 330.675 100.146 330.666 113.401V128.207C330.667 143.766 336.848 158.687 347.85 169.689L358.325 180.164C361.954 183.797 366.264 186.678 371.008 188.644C375.752 190.61 380.837 191.621 385.973 191.62H392.693C395.936 191.572 399.161 191.12 402.293 190.276C394.685 188.477 387.721 184.617 382.165 179.119Z" fill="#F9A06F"/>
<path d="M330.666 116.95C330.666 116.95 298.666 63.6168 348.575 41.2168C354.779 34.9305 362.17 29.939 370.318 26.5322C378.466 23.1254 387.21 21.3711 396.042 21.3711C404.874 21.3711 413.618 23.1254 421.766 26.5322C429.915 29.939 437.305 34.9305 443.509 41.2168C475.359 69.6328 447.999 116.95 447.999 116.95C417.19 116.564 387.224 106.83 362.069 89.0354C348.496 94.1142 337.301 104.066 330.666 116.95Z" fill="#4E5656"/>
<path d="M352.095 38.0195C349.866 39.8755 348.575 41.1662 348.575 41.1662C298.666 63.6195 330.666 116.953 330.666 116.953C334.48 109.426 339.951 102.862 346.666 97.7529C342.69 88.0959 341.107 77.6208 342.052 67.2201C342.998 56.8194 346.443 46.8013 352.095 38.0195Z" fill="#3C4242"/>
<path d="M277.333 180.953H213.333C190.702 180.953 168.997 189.944 152.994 205.947C136.99 221.95 128 243.655 128 266.286V319.62C128 330.936 132.495 341.788 140.497 349.79C148.498 357.791 159.351 362.286 170.667 362.286H320C331.316 362.286 342.168 357.791 350.17 349.79C358.171 341.788 362.667 330.936 362.667 319.62V266.286C362.667 243.655 353.676 221.95 337.673 205.947C321.67 189.944 299.965 180.953 277.333 180.953Z" fill="#3498DB"/>
<path d="M277.333 180.953H213.333C206.133 180.98 198.965 181.919 192 183.748V191.62C192 205.765 197.619 219.33 207.621 229.332C217.623 239.334 231.188 244.953 245.333 244.953C259.478 244.953 273.044 239.334 283.046 229.332C293.048 219.33 298.667 205.765 298.667 191.62V183.748C291.702 181.919 284.534 180.98 277.333 180.953Z" fill="#2980B9"/>
<path d="M277.334 170.285C277.334 152.612 263.007 138.285 245.334 138.285C227.661 138.285 213.334 152.612 213.334 170.285V191.618C213.334 209.292 227.661 223.618 245.334 223.618C263.007 223.618 277.334 209.292 277.334 191.618V170.285Z" fill="#FFD188"/>
<path d="M245.334 42.2852C228.36 42.2852 212.081 49.028 200.079 61.0303C188.077 73.0327 181.334 89.3113 181.334 106.285V122.445C181.335 139.416 188.076 155.692 200.075 167.693L211.499 179.117C215.462 183.081 220.166 186.225 225.344 188.37C230.521 190.515 236.071 191.619 241.675 191.618H248.993C254.597 191.619 260.147 190.515 265.324 188.37C270.502 186.225 275.206 183.081 279.169 179.117L290.593 167.693C302.592 155.692 309.333 139.416 309.334 122.445V106.285C309.334 89.3113 302.591 73.0327 290.589 61.0303C278.587 49.028 262.308 42.2852 245.334 42.2852Z" fill="#FFD188"/>
<path d="M270.326 180.952H263.009C257.404 180.952 251.855 179.848 246.677 177.703C241.499 175.558 236.795 172.414 232.833 168.45L221.409 157.026C209.409 145.025 202.668 128.749 202.667 111.778V95.6183C202.666 85.7601 204.949 76.0357 209.337 67.2079C213.725 58.3801 220.099 50.6891 227.958 44.7383C214.545 48.5219 202.734 56.5801 194.319 67.6886C185.904 78.7972 181.345 92.3489 181.334 106.285V122.445C181.335 139.416 188.076 155.692 200.075 167.693L211.499 179.117C215.462 183.08 220.166 186.225 225.344 188.37C230.521 190.515 236.071 191.618 241.675 191.618H248.993C259.686 191.567 269.967 187.492 277.793 180.205C275.331 180.676 272.832 180.926 270.326 180.952Z" fill="#F9A06F"/>
<path d="M181.333 116.952C181.333 116.952 136.394 53.8265 197.824 21.8692C212.198 7.84802 231.482 0 251.562 0C271.642 0 290.927 7.84802 305.301 21.8692C341.333 53.1652 309.333 106.413 309.333 106.413C274.865 105.196 241.468 94.1237 213.098 74.5092C197.642 84.2593 186.33 99.3735 181.333 116.952Z" fill="#34495E"/>
<path d="M238.112 1.8688L239.178 0.855469C223.734 3.95465 209.433 11.2216 197.824 21.8688C136.394 53.8261 181.333 116.951 181.333 116.951C185.239 104.833 191.823 93.7505 200.597 84.5248C193.632 58.3808 195.349 24.1515 238.112 1.8688Z" fill="#2C3E50"/>
<path d="M348.149 447.681C333.333 447.681 318.283 436.94 303.285 415.606H187.381C168.928 441.825 150.453 452.044 132.384 445.996C113.589 439.702 105.024 419.084 106.923 384.737C109.189 356.762 114.988 329.186 124.181 302.668C128.678 289.262 138.315 278.191 150.972 271.888C163.63 265.586 178.272 264.567 191.68 269.057C197.011 270.859 202.009 273.525 206.475 276.95H284.192C288.658 273.529 293.656 270.866 298.987 269.068C312.395 264.578 327.037 265.596 339.694 271.899C352.352 278.202 361.988 289.273 366.485 302.678C375.674 329.176 381.473 356.73 383.744 384.684C385.643 419.03 377.077 439.649 358.283 445.942C355.022 447.07 351.599 447.658 348.149 447.681Z" fill="#34495E"/>
<path d="M371.562 424.481C367.917 425.721 364.095 426.359 360.245 426.369C343.69 426.369 326.879 414.358 310.111 390.508H180.565C159.999 419.82 139.306 431.233 119.103 424.481C115.798 423.32 112.681 421.678 109.855 419.606C111.042 425.564 113.736 431.117 117.68 435.737C121.624 440.357 126.686 443.889 132.383 445.996C150.453 452.044 168.927 441.825 187.381 415.606H303.285C318.304 436.94 333.333 447.681 348.149 447.681C351.596 447.675 355.019 447.106 358.282 445.996C363.977 443.887 369.037 440.355 372.979 435.735C376.921 431.115 379.613 425.562 380.8 419.606C377.977 421.677 374.864 423.319 371.562 424.481Z" fill="#2C3E50"/>
<path d="M309.333 319.618C315.224 319.618 319.999 314.843 319.999 308.952C319.999 303.061 315.224 298.285 309.333 298.285C303.442 298.285 298.666 303.061 298.666 308.952C298.666 314.843 303.442 319.618 309.333 319.618Z" fill="#F1C40F"/>
<path d="M309.333 362.286C315.224 362.286 319.999 357.511 319.999 351.62C319.999 345.729 315.224 340.953 309.333 340.953C303.442 340.953 298.666 345.729 298.666 351.62C298.666 357.511 303.442 362.286 309.333 362.286Z" fill="#3498DB"/>
<path d="M330.667 340.951C336.558 340.951 341.333 336.175 341.333 330.284C341.333 324.393 336.558 319.617 330.667 319.617C324.776 319.617 320 324.393 320 330.284C320 336.175 324.776 340.951 330.667 340.951Z" fill="#2ECC71"/>
<path d="M288.001 340.951C293.892 340.951 298.667 336.175 298.667 330.284C298.667 324.393 293.892 319.617 288.001 319.617C282.11 319.617 277.334 324.393 277.334 330.284C277.334 336.175 282.11 340.951 288.001 340.951Z" fill="#E74C3C"/>
<path d="M202.667 319.618H192.001V308.952C192.001 306.123 190.877 303.41 188.876 301.409C186.876 299.409 184.163 298.285 181.334 298.285C178.505 298.285 175.792 299.409 173.792 301.409C171.791 303.41 170.667 306.123 170.667 308.952V319.618H160.001C157.172 319.618 154.459 320.742 152.458 322.743C150.458 324.743 149.334 327.456 149.334 330.285C149.334 333.114 150.458 335.827 152.458 337.828C154.459 339.828 157.172 340.952 160.001 340.952H170.667V351.618C170.667 354.447 171.791 357.161 173.792 359.161C175.792 361.161 178.505 362.285 181.334 362.285C184.163 362.285 186.876 361.161 188.876 359.161C190.877 357.161 192.001 354.447 192.001 351.618V340.952H202.667C205.496 340.952 208.209 339.828 210.21 337.828C212.21 335.827 213.334 333.114 213.334 330.285C213.334 327.456 212.21 324.743 210.21 322.743C208.209 320.742 205.496 319.618 202.667 319.618Z" fill="#ECF0F1"/>
</svg>
