<svg width="427" height="495" viewBox="0 0 427 495" fill="none" xmlns="http://www.w3.org/2000/svg">
<path d="M128 76.8008H298.667V110.934H128V76.8008ZM128 384.001H298.667V418.134H128V384.001Z" fill="#D25627"/>
<path d="M6.82667 357.548L58.0267 319.148C60.9808 316.932 64.574 315.734 68.2667 315.734C71.9594 315.734 75.5525 316.932 78.5067 319.148L129.707 357.548C131.826 359.137 133.547 361.199 134.732 363.569C135.916 365.938 136.533 368.552 136.533 371.201V439.468C136.533 442.117 135.916 444.73 134.732 447.1C133.547 449.47 131.826 451.531 129.707 453.121L78.5067 491.521C75.5525 493.737 71.9594 494.934 68.2667 494.934C64.574 494.934 60.9808 493.737 58.0267 491.521L6.82667 453.121C4.70706 451.531 2.98667 449.47 1.80177 447.1C0.616874 444.73 0 442.117 0 439.468V371.201C0 368.552 0.616874 365.938 1.80177 363.569C2.98667 361.199 4.70706 359.137 6.82667 357.548Z" fill="#F29C1F"/>
<path d="M134.912 363.946L78.5064 406.186C75.5523 408.402 71.9591 409.599 68.2664 409.599C64.5737 409.599 60.9806 408.402 58.0264 406.186L1.62109 363.946C2.83672 361.438 4.61874 359.247 6.82643 357.546L58.0264 319.146C60.9861 316.943 64.5771 315.754 68.2664 315.754C71.9558 315.754 75.5467 316.943 78.5064 319.146L129.706 357.546C131.914 359.247 133.696 361.438 134.912 363.946Z" fill="#F3D55B"/>
<path d="M68.2667 409.599V494.932C64.5796 494.898 60.9968 493.704 58.0267 491.519L6.82667 453.119C4.71339 451.523 2.99763 449.46 1.8134 447.092C0.629171 444.723 0.00854358 442.113 0 439.465V371.199C0.0101054 368.692 0.563243 366.218 1.62133 363.945L58.0267 406.185C60.9968 408.37 64.5796 409.565 68.2667 409.599Z" fill="#F0C419"/>
<path d="M296.96 357.548L348.16 319.148C351.115 316.932 354.708 315.734 358.4 315.734C362.093 315.734 365.686 316.932 368.64 319.148L419.84 357.548C421.96 359.137 423.68 361.199 424.865 363.569C426.05 365.938 426.667 368.552 426.667 371.201V439.468C426.667 442.117 426.05 444.73 424.865 447.1C423.68 449.47 421.96 451.531 419.84 453.121L368.64 491.521C365.686 493.737 362.093 494.934 358.4 494.934C354.708 494.934 351.115 493.737 348.16 491.521L296.96 453.121C294.841 451.531 293.12 449.47 291.936 447.1C290.751 444.73 290.134 442.117 290.134 439.468V371.201C290.134 368.552 290.751 365.938 291.936 363.569C293.12 361.199 294.841 359.137 296.96 357.548Z" fill="#F29C1F"/>
<path d="M425.046 363.946L368.64 406.186C365.686 408.402 362.093 409.599 358.4 409.599C354.708 409.599 351.114 408.402 348.16 406.186L291.755 363.946C292.971 361.438 294.753 359.247 296.96 357.546L348.16 319.146C351.12 316.943 354.711 315.754 358.4 315.754C362.09 315.754 365.681 316.943 368.64 319.146L419.84 357.546C422.048 359.247 423.83 361.438 425.046 363.946Z" fill="#F3D55B"/>
<path d="M358.4 409.599V494.932C354.713 494.898 351.131 493.704 348.16 491.519L296.96 453.119C294.847 451.523 293.131 449.46 291.947 447.092C290.763 444.723 290.142 442.113 290.134 439.465V371.199C290.144 368.692 290.697 366.218 291.755 363.945L348.16 406.185C351.131 408.37 354.713 409.565 358.4 409.599Z" fill="#F0C419"/>
<path d="M85.3335 170.668V341.335C85.32 345.857 83.5176 350.19 80.3199 353.388C77.1222 356.585 72.7891 358.388 68.2669 358.401C63.7509 358.368 59.4293 356.559 56.2359 353.366C53.0425 350.172 51.2337 345.851 51.2002 341.335V170.668H85.3335ZM375.467 170.668V341.335C375.453 345.857 373.651 350.19 370.453 353.388C367.256 356.585 362.922 358.388 358.4 358.401C353.884 358.368 349.563 356.559 346.369 353.366C343.176 350.172 341.367 345.851 341.334 341.335V170.668H375.467Z" fill="#D25627"/>
<path d="M173.013 289.802C174.795 289.292 176.363 288.216 177.479 286.737C178.595 285.257 179.199 283.455 179.2 281.601V213.335C179.2 211.071 178.301 208.901 176.701 207.301C175.1 205.7 172.93 204.801 170.667 204.801C168.404 204.801 166.233 205.7 164.633 207.301C163.033 208.901 162.133 211.071 162.133 213.335V251.846L135.236 208.812C134.254 207.241 132.788 206.032 131.058 205.368C129.328 204.704 127.429 204.621 125.648 205.132C123.867 205.643 122.3 206.719 121.185 208.199C120.07 209.679 119.467 211.482 119.467 213.335V281.601C119.467 283.864 120.366 286.035 121.966 287.635C123.566 289.236 125.737 290.135 128 290.135C130.263 290.135 132.434 289.236 134.034 287.635C135.634 286.035 136.533 283.864 136.533 281.601V243.09L163.431 286.124C164.413 287.694 165.879 288.901 167.607 289.565C169.336 290.228 171.233 290.311 173.013 289.802ZM238.933 221.868C241.197 221.868 243.367 220.969 244.967 219.369C246.568 217.768 247.467 215.598 247.467 213.335C247.467 211.071 246.568 208.901 244.967 207.301C243.367 205.7 241.197 204.801 238.933 204.801H204.8C202.537 204.801 200.366 205.7 198.766 207.301C197.166 208.901 196.267 211.071 196.267 213.335V281.601C196.267 283.864 197.166 286.035 198.766 287.635C200.366 289.236 202.537 290.135 204.8 290.135C207.063 290.135 209.234 289.236 210.834 287.635C212.434 286.035 213.333 283.864 213.333 281.601V256.001H230.4C232.663 256.001 234.834 255.102 236.434 253.502C238.034 251.902 238.933 249.731 238.933 247.468C238.933 245.205 238.034 243.034 236.434 241.434C234.834 239.834 232.663 238.935 230.4 238.935H213.333V221.868H238.933ZM298.667 204.801H264.533C262.27 204.801 260.1 205.7 258.499 207.301C256.899 208.901 256 211.071 256 213.335C256 215.598 256.899 217.768 258.499 219.369C260.1 220.969 262.27 221.868 264.533 221.868H273.067V281.601C273.067 283.864 273.966 286.035 275.566 287.635C277.166 289.236 279.337 290.135 281.6 290.135C283.863 290.135 286.034 289.236 287.634 287.635C289.234 286.035 290.133 283.864 290.133 281.601V221.868H298.667C300.93 221.868 303.1 220.969 304.701 219.369C306.301 217.768 307.2 215.598 307.2 213.335C307.2 211.071 306.301 208.901 304.701 207.301C303.1 205.7 300.93 204.801 298.667 204.801ZM179.2 187.735H247.467C249.73 187.735 251.9 186.836 253.501 185.235C255.101 183.635 256 181.464 256 179.201C256 176.938 255.101 174.768 253.501 173.167C251.9 171.567 249.73 170.668 247.467 170.668H179.2C176.937 170.668 174.766 171.567 173.166 173.167C171.566 174.768 170.667 176.938 170.667 179.201C170.667 181.464 171.566 183.635 173.166 185.235C174.766 186.836 176.937 187.735 179.2 187.735ZM247.467 307.201H179.2C176.937 307.201 174.766 308.1 173.166 309.701C171.566 311.301 170.667 313.471 170.667 315.735C170.667 317.998 171.566 320.168 173.166 321.769C174.766 323.369 176.937 324.268 179.2 324.268H247.467C249.73 324.268 251.9 323.369 253.501 321.769C255.101 320.168 256 317.998 256 315.735C256 313.471 255.101 311.301 253.501 309.701C251.9 308.1 249.73 307.201 247.467 307.201Z" fill="#F0C419"/>
<path d="M6.82667 41.8133L58.0267 3.41333C60.9808 1.1977 64.574 0 68.2667 0C71.9594 0 75.5525 1.1977 78.5067 3.41333L129.707 41.8133C131.826 43.403 133.547 45.4644 134.732 47.8342C135.916 50.204 136.533 52.8172 136.533 55.4667V123.733C136.533 126.383 135.916 128.996 134.732 131.366C133.547 133.736 131.826 135.797 129.707 137.387L78.5067 175.787C75.5525 178.002 71.9594 179.2 68.2667 179.2C64.574 179.2 60.9808 178.002 58.0267 175.787L6.82667 137.387C4.70706 135.797 2.98667 133.736 1.80177 131.366C0.616874 128.996 0 126.383 0 123.733V55.4667C0 52.8172 0.616874 50.204 1.80177 47.8342C2.98667 45.4644 4.70706 43.403 6.82667 41.8133Z" fill="#F29C1F"/>
<path d="M134.912 48.2117L78.5064 90.4517C75.5523 92.6673 71.9591 93.865 68.2664 93.865C64.5737 93.865 60.9806 92.6673 58.0264 90.4517L1.62109 48.2117C2.83672 45.7037 4.61874 43.5127 6.82643 41.8117L58.0264 3.41168C60.9861 1.2091 64.5771 0.0195312 68.2664 0.0195312C71.9558 0.0195312 75.5467 1.2091 78.5064 3.41168L129.706 41.8117C131.914 43.5127 133.696 45.7037 134.912 48.2117Z" fill="#F3D55B"/>
<path d="M68.2667 93.8682V179.202C64.5796 179.168 60.9968 177.973 58.0267 175.788L6.82667 137.388C4.71339 135.793 2.99763 133.73 1.8134 131.361C0.629171 128.993 0.00854358 126.383 0 123.735V55.4682C0.0101054 52.9617 0.563243 50.4871 1.62133 48.2148L58.0267 90.4548C60.9968 92.6399 64.5796 93.8342 68.2667 93.8682Z" fill="#F0C419"/>
<path d="M296.96 41.8133L348.16 3.41333C351.115 1.1977 354.708 0 358.4 0C362.093 0 365.686 1.1977 368.64 3.41333L419.84 41.8133C421.96 43.403 423.68 45.4644 424.865 47.8342C426.05 50.204 426.667 52.8172 426.667 55.4667V123.733C426.667 126.383 426.05 128.996 424.865 131.366C423.68 133.736 421.96 135.797 419.84 137.387L368.64 175.787C365.686 178.002 362.093 179.2 358.4 179.2C354.708 179.2 351.115 178.002 348.16 175.787L296.96 137.387C294.841 135.797 293.12 133.736 291.936 131.366C290.751 128.996 290.134 126.383 290.134 123.733V55.4667C290.134 52.8172 290.751 50.204 291.936 47.8342C293.12 45.4644 294.841 43.403 296.96 41.8133Z" fill="#F29C1F"/>
<path d="M425.046 48.2117L368.64 90.4517C365.686 92.6673 362.093 93.865 358.4 93.865C354.708 93.865 351.114 92.6673 348.16 90.4517L291.755 48.2117C292.971 45.7037 294.753 43.5127 296.96 41.8117L348.16 3.41168C351.12 1.2091 354.711 0.0195312 358.4 0.0195312C362.09 0.0195313 365.681 1.2091 368.64 3.41168L419.84 41.8117C422.048 43.5127 423.83 45.7037 425.046 48.2117Z" fill="#F3D55B"/>
<path d="M358.4 93.8682V179.202C354.713 179.168 351.131 177.973 348.16 175.788L296.96 137.388C294.847 135.793 293.131 133.73 291.947 131.361C290.763 128.993 290.142 126.383 290.134 123.735V55.4682C290.144 52.9617 290.697 50.4871 291.755 48.2148L348.16 90.4548C351.131 92.6399 354.713 93.8342 358.4 93.8682Z" fill="#F0C419"/>
</svg>
