<svg width="512" height="396" viewBox="0 0 512 396" fill="none" xmlns="http://www.w3.org/2000/svg">
<path d="M439.113 134.855H401.796C399.807 134.855 397.899 134.065 396.493 132.659C395.086 131.252 394.296 129.345 394.296 127.355C394.296 125.366 395.086 123.459 396.493 122.052C397.899 120.646 399.807 119.855 401.796 119.855H436.006L446.93 108.931C447.626 108.235 448.453 107.682 449.363 107.305C450.273 106.928 451.248 106.734 452.233 106.734H480.675C482.664 106.734 484.572 107.525 485.979 108.931C487.385 110.338 488.175 112.245 488.175 114.234C488.175 116.223 487.385 118.131 485.979 119.538C484.572 120.944 482.664 121.734 480.675 121.734H455.34L444.416 132.658C443.72 133.355 442.893 133.908 441.983 134.285C441.073 134.662 440.098 134.856 439.113 134.855ZM480.676 289.184H452.234C451.249 289.184 450.274 288.99 449.364 288.614C448.454 288.237 447.627 287.684 446.931 286.987L436.007 276.063H401.796C399.807 276.063 397.899 275.273 396.493 273.867C395.086 272.46 394.296 270.552 394.296 268.563C394.296 266.574 395.086 264.667 396.493 263.26C397.899 261.854 399.807 261.063 401.796 261.063H439.113C441.102 261.063 443.01 261.853 444.416 263.26L455.34 274.184H480.675C482.664 274.184 484.572 274.974 485.979 276.381C487.385 277.787 488.176 279.695 488.176 281.684C488.176 283.673 487.386 285.581 485.979 286.987C484.573 288.394 482.665 289.184 480.676 289.184ZM480.676 205.459H401.796C399.807 205.459 397.899 204.669 396.493 203.263C395.086 201.856 394.296 199.948 394.296 197.959C394.296 195.97 395.086 194.063 396.493 192.656C397.899 191.25 399.807 190.459 401.796 190.459H480.676C482.665 190.459 484.573 191.25 485.98 192.656C487.386 194.063 488.176 195.97 488.176 197.959C488.176 199.948 487.386 201.856 485.98 203.263C484.573 204.669 482.665 205.459 480.676 205.459ZM110.204 134.855H72.8872C71.9023 134.855 70.927 134.661 70.0171 134.285C69.1072 133.908 68.2805 133.355 67.5842 132.658L56.6602 121.734H31.3242C29.3351 121.734 27.4274 120.944 26.0209 119.538C24.6144 118.131 23.8242 116.223 23.8242 114.234C23.8242 112.245 24.6144 110.338 26.0209 108.931C27.4274 107.525 29.3351 106.734 31.3242 106.734H59.7662C61.7552 106.734 63.6632 107.524 65.0692 108.931L75.9932 119.855H110.203C112.192 119.855 114.1 120.645 115.507 122.052C116.913 123.458 117.704 125.366 117.704 127.355C117.704 129.344 116.914 131.252 115.507 132.658C114.101 134.065 112.193 134.855 110.204 134.855ZM59.7662 289.184H31.3242C29.3351 289.184 27.4274 288.394 26.0209 286.988C24.6144 285.581 23.8242 283.673 23.8242 281.684C23.8242 279.695 24.6144 277.788 26.0209 276.381C27.4274 274.975 29.3351 274.184 31.3242 274.184H56.6602L67.5842 263.26C68.2805 262.564 69.1072 262.011 70.0171 261.634C70.927 261.257 71.9023 261.063 72.8872 261.063H110.204C112.193 261.063 114.101 261.854 115.508 263.26C116.914 264.667 117.704 266.574 117.704 268.563C117.704 270.552 116.914 272.46 115.508 273.867C114.101 275.273 112.193 276.063 110.204 276.063H75.9932L65.0692 286.987C64.3729 287.684 63.5462 288.237 62.6363 288.614C61.7264 288.99 60.7511 289.184 59.7662 289.184ZM110.204 205.459H31.3242C29.3351 205.459 27.4274 204.669 26.0209 203.263C24.6144 201.856 23.8242 199.948 23.8242 197.959C23.8242 195.97 24.6144 194.063 26.0209 192.656C27.4274 191.25 29.3351 190.459 31.3242 190.459H110.204C112.193 190.459 114.101 191.25 115.508 192.656C116.914 194.063 117.704 195.97 117.704 197.959C117.704 199.948 116.914 201.856 115.508 203.263C114.101 204.669 112.193 205.459 110.204 205.459Z" fill="#FEB237"/>
<path d="M344.454 73.892L308.031 1.516C305.867 0.522511 303.515 0.0055133 301.134 0H116.552C107.356 0 99.9023 7.455 99.9023 16.65V378.796C99.9023 387.992 107.357 395.446 116.552 395.446H395.446C404.642 395.446 412.096 387.991 412.096 378.796V110.962C412.096 108.557 411.559 106.213 410.58 104.065L344.454 73.892Z" fill="#528FD8"/>
<path d="M344.455 73.892L308.033 1.516C305.869 0.522511 303.517 0.0055133 301.135 0H276.812V87.415C276.812 113.853 298.244 135.285 324.682 135.285H368.389C375.286 135.285 380.878 140.876 380.878 147.773V378.797C380.878 387.993 373.422 395.447 364.227 395.447H395.447C404.643 395.447 412.096 387.992 412.096 378.797V110.962C412.096 108.557 411.559 106.213 410.58 104.065L344.455 73.892Z" fill="#0573CE"/>
<path d="M324.683 104.065H410.582C409.763 102.251 408.624 100.599 407.221 99.1876L312.91 4.87663C311.499 3.47342 309.847 2.33502 308.033 1.51562V87.4146C308.033 96.6106 315.487 104.065 324.683 104.065Z" fill="#B2CAEC"/>
<path d="M266.407 135.565V83.5796C266.407 80.8099 265.67 78.09 264.272 75.6992C262.874 73.3083 260.864 71.3325 258.45 69.9746L211.621 43.6336C209.285 42.3193 206.649 41.6289 203.968 41.6289C201.287 41.6289 198.652 42.3193 196.315 43.6336L149.486 69.9746C147.072 71.3325 145.063 73.3083 143.665 75.6992C142.266 78.09 141.529 80.8099 141.529 83.5796V135.565C141.529 138.334 142.266 141.054 143.665 143.445C145.063 145.836 147.072 147.812 149.486 149.17L196.315 175.511C198.652 176.825 201.287 177.515 203.968 177.515C206.649 177.515 209.285 176.825 211.621 175.511L258.45 149.17C260.864 147.812 262.874 145.836 264.272 143.445C265.67 141.054 266.407 138.334 266.407 135.565Z" fill="#FFE177"/>
<path d="M170.668 122.873V96.2651C170.668 94.7878 171.061 93.3372 171.807 92.062C172.553 90.7869 173.624 89.7332 174.912 89.0091L199.888 74.9601C201.134 74.259 202.54 73.8906 203.969 73.8906C205.399 73.8906 206.805 74.259 208.051 74.9601L233.027 89.0091C234.314 89.7333 235.386 90.7871 236.132 92.0622C236.878 93.3373 237.271 94.7879 237.271 96.2651V122.873C237.271 124.35 236.878 125.801 236.132 127.076C235.386 128.351 234.315 129.405 233.027 130.129L208.051 144.178C206.805 144.879 205.399 145.248 203.969 145.248C202.54 145.248 201.134 144.879 199.888 144.178L174.912 130.129C173.624 129.405 172.553 128.351 171.807 127.076C171.061 125.801 170.668 124.35 170.668 122.873Z" fill="#FE9901"/>
<path d="M491.186 135.048C502.681 135.048 511.999 125.73 511.999 114.235C511.999 102.74 502.681 93.4219 491.186 93.4219C479.691 93.4219 470.373 102.74 470.373 114.235C470.373 125.73 479.691 135.048 491.186 135.048Z" fill="#FFD15B"/>
<path d="M491.186 302.024C502.681 302.024 511.999 292.706 511.999 281.211C511.999 269.717 502.681 260.398 491.186 260.398C479.691 260.398 470.373 269.717 470.373 281.211C470.373 292.706 479.691 302.024 491.186 302.024Z" fill="#FFD15B"/>
<path d="M491.186 218.774C502.681 218.774 511.999 209.456 511.999 197.961C511.999 186.467 502.681 177.148 491.186 177.148C479.691 177.148 470.373 186.467 470.373 197.961C470.373 209.456 479.691 218.774 491.186 218.774Z" fill="#FFD15B"/>
<path d="M20.813 135.048C32.3077 135.048 41.626 125.73 41.626 114.235C41.626 102.74 32.3077 93.4219 20.813 93.4219C9.3183 93.4219 0 102.74 0 114.235C0 125.73 9.3183 135.048 20.813 135.048Z" fill="#FFD15B"/>
<path d="M20.813 302.024C32.3077 302.024 41.626 292.706 41.626 281.211C41.626 269.717 32.3077 260.398 20.813 260.398C9.3183 260.398 0 269.717 0 281.211C0 292.706 9.3183 302.024 20.813 302.024Z" fill="#FFD15B"/>
<path d="M20.813 218.774C32.3077 218.774 41.626 209.456 41.626 197.961C41.626 186.467 32.3077 177.148 20.813 177.148C9.3183 177.148 0 186.467 0 197.961C0 209.456 9.3183 218.774 20.813 218.774Z" fill="#FFD15B"/>
<path d="M370.471 217.023H141.527C139.538 217.023 137.631 216.233 136.224 214.827C134.818 213.42 134.027 211.513 134.027 209.523C134.027 207.534 134.818 205.627 136.224 204.22C137.631 202.814 139.538 202.023 141.527 202.023H370.47C372.459 202.023 374.367 202.813 375.774 204.22C377.18 205.626 377.971 207.534 377.971 209.523C377.971 211.512 377.181 213.42 375.774 214.826C374.368 216.233 372.46 217.023 370.471 217.023ZM370.471 248.243H141.527C139.538 248.243 137.631 247.453 136.224 246.047C134.818 244.64 134.027 242.733 134.027 240.743C134.027 238.754 134.818 236.847 136.224 235.44C137.631 234.034 139.538 233.243 141.527 233.243H370.47C372.459 233.243 374.367 234.033 375.774 235.44C377.18 236.846 377.971 238.754 377.971 240.743C377.971 242.732 377.181 244.64 375.774 246.046C374.368 247.453 372.46 248.243 370.471 248.243ZM370.471 279.462H141.527C139.538 279.462 137.631 278.672 136.224 277.266C134.818 275.859 134.027 273.952 134.027 271.962C134.027 269.973 134.818 268.066 136.224 266.659C137.631 265.253 139.538 264.462 141.527 264.462H370.47C372.459 264.462 374.367 265.252 375.774 266.659C377.18 268.065 377.971 269.973 377.971 271.962C377.971 273.951 377.181 275.859 375.774 277.265C374.368 278.672 372.46 279.462 370.471 279.462ZM255.999 310.682H141.527C139.538 310.682 137.631 309.892 136.224 308.486C134.818 307.079 134.027 305.172 134.027 303.182C134.027 301.193 134.818 299.286 136.224 297.879C137.631 296.473 139.538 295.682 141.527 295.682H255.999C257.988 295.682 259.896 296.473 261.303 297.879C262.709 299.286 263.499 301.193 263.499 303.182C263.499 305.172 262.709 307.079 261.303 308.486C259.896 309.892 257.988 310.682 255.999 310.682Z" fill="#DFF6FD"/>
<path d="M265.702 353.416C264.445 353.415 263.209 353.099 262.106 352.496C261.004 351.893 260.071 351.023 259.392 349.965C258.714 348.908 258.312 347.696 258.224 346.443C258.135 345.19 258.363 343.934 258.887 342.792C264.284 331.016 272.668 320.858 283.208 313.328C285.462 311.719 292.322 306.817 300.165 308.69C303.927 309.586 307.294 311.926 309.772 315.287C310.266 314.866 310.778 314.457 311.313 314.065C317.554 309.473 325.322 308.36 331.59 311.163C335.302 312.822 338.329 316.014 339.916 319.869L368.786 313.204C372.819 312.269 376.848 314.788 377.781 318.825C378.002 319.784 378.033 320.778 377.87 321.75C377.707 322.721 377.355 323.651 376.833 324.486C376.311 325.322 375.63 326.046 374.828 326.618C374.026 327.19 373.119 327.598 372.16 327.82L334.345 336.55C332.936 336.875 331.463 336.787 330.103 336.295C328.744 335.802 327.556 334.928 326.682 333.776C325.808 332.624 325.286 331.244 325.178 329.802C325.07 328.36 325.382 326.918 326.075 325.649C325.969 325.348 325.677 324.951 325.468 324.857C324.202 324.292 321.988 324.834 320.201 326.149C317.614 328.052 315.567 331.273 313.692 334.409C312.901 335.732 311.722 336.78 310.314 337.409C308.907 338.038 307.34 338.218 305.827 337.924C304.313 337.631 302.927 336.878 301.857 335.769C300.787 334.659 300.084 333.247 299.846 331.724C299.45 329.204 299.076 326.825 298.234 325.086C297.634 323.848 296.892 323.331 296.689 323.283C296.64 323.271 295.442 323.028 291.926 325.538C283.52 331.544 276.832 339.646 272.528 349.038C271.928 350.344 270.966 351.451 269.756 352.227C268.546 353.003 267.139 353.416 265.702 353.416Z" fill="#FE93D3"/>
</svg>
