<svg width="512" height="441" viewBox="0 0 512 441" fill="none" xmlns="http://www.w3.org/2000/svg">
<path d="M495.625 52.4195H68.25V16.4465C68.25 11.4875 66.05 6.83048 62.215 3.66948C58.516 0.619483 53.735 -0.612517 49.097 0.288483C20.648 5.81848 0 30.8975 0 59.9195V379.419C0 412.917 27.252 440.169 60.75 440.169H495.625C504.654 440.169 512 432.823 512 423.794V68.7945C512 59.7655 504.654 52.4195 495.625 52.4195ZM15 59.9195C15 38.0625 30.544 19.1755 51.959 15.0125C52.003 15.0025 52.0479 14.9975 52.093 14.9975C52.224 14.9975 52.426 15.0385 52.674 15.2425C52.809 15.3535 53.25 15.7695 53.25 16.4455V317.99C53.25 318.643 52.783 319.184 52.139 319.275C37.319 321.38 24.314 328.866 15 339.567V59.9195ZM497 423.794C497 424.552 496.383 425.169 495.625 425.169H60.75C35.523 425.169 15 404.646 15 379.419C15 356.776 31.873 337.305 54.248 334.127C62.23 332.993 68.25 326.057 68.25 317.99V67.4195H495.625C496.383 67.4195 497 68.0365 497 68.7945V423.794Z" fill="url(#paint0_linear_1128_336)"/>
<path d="M256 96.793H96.25C94.2609 96.793 92.3532 97.5831 90.9467 98.9897C89.5402 100.396 88.75 102.304 88.75 104.293V193.043C88.75 195.032 89.5402 196.94 90.9467 198.346C92.3532 199.753 94.2609 200.543 96.25 200.543H256C260.143 200.543 263.5 197.186 263.5 193.043V104.293C263.5 102.304 262.71 100.396 261.303 98.9897C259.897 97.5831 257.989 96.793 256 96.793ZM248.5 185.543H103.75V111.793H248.5V185.543ZM451.25 96.793H433.5C429.357 96.793 426 100.15 426 104.293C426 108.436 429.357 111.793 433.5 111.793H443.75V185.543H299V111.793H398C402.143 111.793 405.5 108.436 405.5 104.293C405.5 100.15 402.143 96.793 398 96.793H291.5C290.515 96.7928 289.54 96.9867 288.63 97.3636C287.72 97.7405 286.893 98.2929 286.196 98.9894C285.5 99.6858 284.948 100.513 284.571 101.423C284.194 102.333 284 103.308 284 104.293V193.043C284 197.186 287.357 200.543 291.5 200.543H451.25C455.393 200.543 458.75 197.186 458.75 193.043V104.293C458.75 102.304 457.96 100.396 456.553 98.9897C455.147 97.5831 453.239 96.793 451.25 96.793ZM256 256.543H238.25C234.108 256.543 230.75 259.9 230.75 264.043C230.75 268.186 234.108 271.543 238.25 271.543H248.5V345.293H103.75V271.543H202.75C206.892 271.543 210.25 268.186 210.25 264.043C210.25 259.9 206.892 256.543 202.75 256.543H96.25C94.2609 256.543 92.3532 257.333 90.9467 258.74C89.5402 260.146 88.75 262.054 88.75 264.043V352.793C88.75 354.782 89.5402 356.69 90.9467 358.096C92.3532 359.503 94.2609 360.293 96.25 360.293H256C260.143 360.293 263.5 356.936 263.5 352.793V264.043C263.5 262.054 262.71 260.146 261.303 258.74C259.897 257.333 257.989 256.543 256 256.543ZM122.875 221.043H105.125C100.983 221.043 97.625 224.4 97.625 228.543C97.625 232.686 100.983 236.043 105.125 236.043H122.875C127.017 236.043 130.375 232.686 130.375 228.543C130.375 224.4 127.017 221.043 122.875 221.043ZM238.25 221.043H158.375C154.233 221.043 150.875 224.4 150.875 228.543C150.875 232.686 154.233 236.043 158.375 236.043H238.25C242.392 236.043 245.75 232.686 245.75 228.543C245.75 224.4 242.392 221.043 238.25 221.043ZM318.125 221.043H300.375C296.232 221.043 292.875 224.4 292.875 228.543C292.875 232.686 296.232 236.043 300.375 236.043H318.125C322.268 236.043 325.625 232.686 325.625 228.543C325.625 224.4 322.268 221.043 318.125 221.043ZM398 221.043H353.625C349.482 221.043 346.125 224.4 346.125 228.543C346.125 232.686 349.482 236.043 353.625 236.043H398C402.143 236.043 405.5 232.686 405.5 228.543C405.5 224.4 402.143 221.043 398 221.043ZM451.25 256.543H291.5C290.515 256.543 289.54 256.737 288.63 257.114C287.72 257.49 286.893 258.043 286.196 258.739C285.5 259.436 284.948 260.263 284.571 261.173C284.194 262.083 284 263.058 284 264.043V352.793C284 356.936 287.357 360.293 291.5 360.293H451.25C455.393 360.293 458.75 356.936 458.75 352.793V264.043C458.75 262.054 457.96 260.146 456.553 258.74C455.147 257.333 453.239 256.543 451.25 256.543ZM443.75 345.293H299V271.543H443.75V345.293ZM122.875 380.793H105.125C100.983 380.793 97.625 384.15 97.625 388.293C97.625 392.436 100.983 395.793 105.125 395.793H122.875C127.017 395.793 130.375 392.436 130.375 388.293C130.375 384.15 127.017 380.793 122.875 380.793ZM202.75 380.793H158.375C154.233 380.793 150.875 384.15 150.875 388.293C150.875 392.436 154.233 395.793 158.375 395.793H202.75C206.892 395.793 210.25 392.436 210.25 388.293C210.25 384.15 206.892 380.793 202.75 380.793ZM318.125 380.793H300.375C296.232 380.793 292.875 384.15 292.875 388.293C292.875 392.436 296.232 395.793 300.375 395.793H318.125C322.268 395.793 325.625 392.436 325.625 388.293C325.625 384.15 322.268 380.793 318.125 380.793ZM433.5 380.793H353.625C349.482 380.793 346.125 384.15 346.125 388.293C346.125 392.436 349.482 395.793 353.625 395.793H433.5C437.643 395.793 441 392.436 441 388.293C441 384.15 437.643 380.793 433.5 380.793Z" fill="url(#paint1_linear_1128_336)"/>
<defs>
<linearGradient id="paint0_linear_1128_336" x1="18.2681" y1="28.3704" x2="424.45" y2="570.6" gradientUnits="userSpaceOnUse">
<stop stop-color="#1BA2D7"/>
<stop offset="1" stop-color="#8D3DFA"/>
</linearGradient>
<linearGradient id="paint1_linear_1128_336" x1="101.952" y1="116.065" x2="372.633" y2="500.481" gradientUnits="userSpaceOnUse">
<stop stop-color="#1BA2D7"/>
<stop offset="1" stop-color="#8D3DFA"/>
</linearGradient>
</defs>
</svg>
