<svg width="512" height="444" viewBox="0 0 512 444" fill="none" xmlns="http://www.w3.org/2000/svg">
<path d="M418.133 34.1328H93.8665C89.3401 34.1328 84.9991 35.9309 81.7985 39.1315C78.5979 42.3321 76.7998 46.6731 76.7998 51.1995V273.066C76.7998 277.593 78.5979 281.934 81.7985 285.134C84.9991 288.335 89.3401 290.133 93.8665 290.133H418.133C422.66 290.133 427.001 288.335 430.201 285.134C433.402 281.934 435.2 277.593 435.2 273.066V51.1995C435.2 46.6731 433.402 42.3321 430.201 39.1315C427.001 35.9309 422.66 34.1328 418.133 34.1328ZM418.133 273.066H93.8665V51.1995H418.133V273.066Z" fill="url(#paint0_linear_1128_299)"/>
<path d="M469.333 313.719V25.6C469.333 18.8105 466.636 12.299 461.835 7.49807C457.034 2.69714 450.523 0 443.733 0H68.2667C61.4771 0 54.9657 2.69714 50.1647 7.49807C45.3638 12.299 42.6667 18.8105 42.6667 25.6V313.719L0.896004 397.252C0.305521 398.437 -0.00123133 399.743 3.71465e-06 401.067V426.667C3.71465e-06 431.193 1.79809 435.534 4.99871 438.735C8.19934 441.935 12.5403 443.733 17.0667 443.733H494.933C499.46 443.733 503.801 441.935 507.001 438.735C510.202 435.534 512 431.193 512 426.667V401.067C512.015 399.746 511.722 398.441 511.147 397.252L469.333 313.719ZM59.7333 25.6C59.7333 23.3368 60.6324 21.1663 62.2327 19.566C63.833 17.9657 66.0035 17.0667 68.2667 17.0667H443.733C445.997 17.0667 448.167 17.9657 449.767 19.566C451.368 21.1663 452.267 23.3368 452.267 25.6V307.2H59.7333V25.6ZM56.4736 324.267H455.526L489.66 392.533H355.686L342.886 360.593C341.628 357.417 339.441 354.694 336.611 352.781C333.781 350.867 330.439 349.851 327.023 349.867H184.977C181.563 349.856 178.224 350.874 175.397 352.789C172.571 354.704 170.387 357.427 169.131 360.602L156.356 392.533H22.3403L56.4736 324.267ZM337.271 392.533H174.737L184.977 366.933H327.023L337.271 392.533ZM494.933 426.667H17.0667V409.6H494.933V426.667Z" fill="url(#paint1_linear_1128_299)"/>
<path d="M273.067 179.199C275.33 179.199 277.5 178.3 279.101 176.7C280.701 175.099 281.6 172.929 281.6 170.666V145.066H332.8V170.666C332.8 172.929 333.699 175.099 335.299 176.7C336.9 178.3 339.07 179.199 341.333 179.199C343.596 179.199 345.767 178.3 347.367 176.7C348.968 175.099 349.867 172.929 349.867 170.666V110.932C349.867 99.6164 345.371 88.764 337.37 80.7624C329.368 72.7609 318.516 68.2656 307.2 68.2656C295.884 68.2656 285.032 72.7609 277.03 80.7624C269.029 88.764 264.533 99.6164 264.533 110.932V170.666C264.533 172.929 265.432 175.099 267.033 176.7C268.633 178.3 270.803 179.199 273.067 179.199ZM281.6 110.932C281.6 104.143 284.297 97.6313 289.098 92.8304C293.899 88.0294 300.41 85.3323 307.2 85.3323C313.99 85.3323 320.501 88.0294 325.302 92.8304C330.103 97.6313 332.8 104.143 332.8 110.932V127.999H281.6V110.932ZM204.8 179.199C213.16 179.197 221.333 176.724 228.292 172.091L232.9 176.699C234.51 178.253 236.665 179.113 238.903 179.094C241.14 179.074 243.28 178.177 244.862 176.595C246.445 175.013 247.342 172.872 247.361 170.635C247.381 168.398 246.521 166.242 244.966 164.633L240.358 160.025C244.992 153.066 247.465 144.893 247.467 136.532V110.932C247.467 99.6164 242.971 88.764 234.97 80.7624C226.968 72.7609 216.116 68.2656 204.8 68.2656C193.484 68.2656 182.632 72.7609 174.63 80.7624C166.629 88.764 162.133 99.6164 162.133 110.932V136.532C162.147 147.844 166.646 158.689 174.645 166.687C182.644 174.686 193.488 179.185 204.8 179.199ZM179.2 110.932C179.2 104.143 181.897 97.6313 186.698 92.8304C191.499 88.0294 198.01 85.3323 204.8 85.3323C211.59 85.3323 218.101 88.0294 222.902 92.8304C227.703 97.6313 230.4 104.143 230.4 110.932V136.532C230.385 140.334 229.51 144.083 227.84 147.498L219.375 139.033C217.766 137.478 215.61 136.618 213.373 136.637C211.135 136.657 208.995 137.554 207.413 139.137C205.831 140.719 204.933 142.859 204.914 145.096C204.894 147.334 205.754 149.489 207.309 151.099L215.774 159.564C212.357 161.238 208.605 162.116 204.8 162.132C198.01 162.132 191.499 159.435 186.698 154.634C181.897 149.833 179.2 143.322 179.2 136.532V110.932ZM275.567 198.766L238.933 235.4L236.433 232.899C234.824 231.345 232.668 230.485 230.431 230.504C228.193 230.524 226.053 231.421 224.471 233.003C222.889 234.585 221.991 236.726 221.972 238.963C221.952 241.2 222.812 243.356 224.367 244.965L232.9 253.499C234.5 255.098 236.671 255.997 238.933 255.997C241.196 255.997 243.366 255.098 244.966 253.499L287.633 210.832C289.187 209.223 290.048 207.067 290.028 204.83C290.009 202.592 289.111 200.452 287.529 198.87C285.947 197.288 283.807 196.39 281.569 196.371C279.332 196.351 277.176 197.211 275.567 198.766Z" fill="url(#paint2_linear_1128_299)"/>
<defs>
<linearGradient id="paint0_linear_1128_299" x1="89.5874" y1="50.6329" x2="310.447" y2="405.492" gradientUnits="userSpaceOnUse">
<stop stop-color="#1BA2D7"/>
<stop offset="1" stop-color="#8D3DFA"/>
</linearGradient>
<linearGradient id="paint1_linear_1128_299" x1="18.2681" y1="28.6001" x2="428.656" y2="572.045" gradientUnits="userSpaceOnUse">
<stop stop-color="#1BA2D7"/>
<stop offset="1" stop-color="#8D3DFA"/>
</linearGradient>
<linearGradient id="paint2_linear_1128_299" x1="168.832" y1="80.3655" x2="347.648" y2="285.588" gradientUnits="userSpaceOnUse">
<stop stop-color="#1BA2D7"/>
<stop offset="1" stop-color="#8D3DFA"/>
</linearGradient>
</defs>
</svg>
