<svg width="496" height="496" viewBox="0 0 496 496" fill="none" xmlns="http://www.w3.org/2000/svg">
<path d="M328 328V296C328 285.391 323.786 275.217 316.284 267.716C308.783 260.214 298.609 256 288 256H208C197.391 256 187.217 260.214 179.716 267.716C172.214 275.217 168 285.391 168 296V328C168 330.122 168.843 332.157 170.343 333.657C171.843 335.157 173.878 336 176 336H320C322.122 336 324.157 335.157 325.657 333.657C327.157 332.157 328 330.122 328 328ZM312 320H184V296C184 289.635 186.529 283.53 191.029 279.029C195.53 274.529 201.635 272 208 272H288C294.365 272 300.47 274.529 304.971 279.029C309.471 283.53 312 289.635 312 296V320ZM248 240C255.911 240 263.645 237.654 270.223 233.259C276.801 228.864 281.928 222.616 284.955 215.307C287.983 207.998 288.775 199.956 287.231 192.196C285.688 184.437 281.878 177.31 276.284 171.716C270.69 166.122 263.563 162.312 255.804 160.769C248.044 159.225 240.002 160.017 232.693 163.045C225.384 166.072 219.136 171.199 214.741 177.777C210.346 184.355 208 192.089 208 200C208 210.609 212.214 220.783 219.716 228.284C227.217 235.786 237.391 240 248 240ZM248 176C252.747 176 257.387 177.408 261.334 180.045C265.28 182.682 268.357 186.43 270.173 190.816C271.99 195.201 272.465 200.027 271.539 204.682C270.613 209.338 268.327 213.614 264.971 216.971C261.614 220.327 257.338 222.613 252.682 223.539C248.027 224.465 243.201 223.99 238.816 222.173C234.43 220.357 230.682 217.28 228.045 213.334C225.408 209.387 224 204.747 224 200C224 193.635 226.529 187.53 231.029 183.029C235.53 178.529 241.635 176 248 176Z" fill="white"/>
<path d="M256 40V0H240V40C187.589 41.9799 137.86 63.6868 100.774 100.774C63.6868 137.86 41.9799 187.589 40 240H0V256H40C41.9799 308.411 63.6868 358.14 100.774 395.226C137.86 432.313 187.589 454.02 240 456V496H256V456C308.411 454.02 358.14 432.313 395.226 395.226C432.313 358.14 454.02 308.411 456 256H496V240H456C454.02 187.589 432.313 137.86 395.226 100.774C358.14 63.6868 308.411 41.9799 256 40ZM240 56V80C198.264 82.0443 158.787 99.5692 129.276 129.154C99.7658 158.738 82.3398 198.259 80.4 240H56C57.9685 191.831 77.9861 146.165 112.075 112.075C146.165 77.9861 191.831 57.9685 240 56ZM240 440C191.831 438.031 146.165 418.014 112.075 383.925C77.9861 349.835 57.9685 304.169 56 256H80C81.9476 297.807 99.4299 337.382 129.024 366.976C158.618 396.57 198.193 414.052 240 416V440ZM240 384V400C202.505 397.974 167.086 382.141 140.571 355.552C114.056 328.963 98.3216 293.501 96.4 256H112V240H96.4C98.4172 202.57 114.194 167.205 140.7 140.7C167.205 114.194 202.57 98.4172 240 96.4V112H256V96.4C293.501 98.3216 328.963 114.056 355.552 140.571C382.141 167.086 397.974 202.505 400 240H384V256H400C398.07 293.566 382.279 329.082 355.68 355.68C329.082 382.279 293.566 398.07 256 400V384H240ZM256 440V416C297.807 414.052 337.382 396.57 366.976 366.976C396.57 337.382 414.052 297.807 416 256H440C438.031 304.169 418.014 349.835 383.925 383.925C349.835 418.014 304.169 438.031 256 440ZM416 240C413.956 198.264 396.431 158.787 366.846 129.276C337.262 99.7658 297.741 82.3398 256 80.4V56C304.169 57.9685 349.835 77.9861 383.925 112.075C418.014 146.165 438.031 191.831 440 240H416Z" fill="white"/>
</svg>
