<svg width="512" height="432" viewBox="0 0 512 432" fill="none" xmlns="http://www.w3.org/2000/svg">
<path d="M480.451 0H31.549C14.152 0 0 14.152 0 31.548V336.161C0 353.557 14.152 367.709 31.549 367.709H183.375L177.234 416.838H151.79C149.801 416.838 147.893 417.628 146.487 419.035C145.08 420.441 144.29 422.349 144.29 424.338C144.29 426.327 145.08 428.235 146.487 429.641C147.893 431.048 149.801 431.838 151.79 431.838H360.21C362.199 431.838 364.107 431.048 365.513 429.641C366.92 428.235 367.71 426.327 367.71 424.338C367.71 422.349 366.92 420.441 365.513 419.035C364.107 417.628 362.199 416.838 360.21 416.838H334.767L328.625 367.709H480.451C497.847 367.709 512 353.557 512 336.161V31.548C512 14.152 497.848 0 480.451 0ZM192.351 416.838L198.493 367.709H226.096L228.804 378.539C230.314 384.608 233.813 389.996 238.742 393.845C243.671 397.693 249.747 399.78 256.001 399.773C262.255 399.78 268.331 397.693 273.26 393.845C278.189 389.996 281.688 384.608 283.198 378.539L285.906 367.709H313.509L319.649 416.838H192.351ZM241.557 367.709H270.442L268.644 374.901C267.191 380.714 261.992 384.773 255.999 384.773C250.006 384.773 244.808 380.713 243.354 374.901L241.557 367.709ZM497 336.161C497 345.286 489.576 352.709 480.451 352.709H31.549C22.424 352.709 15 345.286 15 336.161V31.548C15 22.423 22.424 15 31.549 15H480.451C489.576 15 497 22.423 497 31.548V336.161Z" fill="url(#paint0_linear_1378_22)"/>
<path d="M424.338 32.0625H39.5645C38.5795 32.0624 37.6042 32.2563 36.6942 32.6331C35.7842 33.01 34.9573 33.5624 34.2609 34.2589C33.5644 34.9554 33.012 35.7822 32.6351 36.6922C32.2582 37.6022 32.0643 38.5775 32.0645 39.5625V328.143C32.0645 332.286 35.4215 335.643 39.5645 335.643H55.5975C59.7405 335.643 63.0975 332.286 63.0975 328.143C63.0976 327.158 62.9037 326.182 62.5269 325.272C62.1501 324.363 61.5978 323.536 60.9014 322.839C60.205 322.143 59.3783 321.59 58.4684 321.213C57.5585 320.837 56.5833 320.643 55.5985 320.643H47.0655V47.0625H424.338C426.328 47.0625 428.235 46.2723 429.642 44.8658C431.048 43.4593 431.838 41.5516 431.838 39.5625C431.838 35.4195 428.481 32.0625 424.338 32.0625ZM472.436 32.0625H456.403C455.419 32.0624 454.443 32.2563 453.533 32.6331C452.623 33.01 451.796 33.5624 451.1 34.2589C450.403 34.9554 449.851 35.7822 449.474 36.6922C449.097 37.6022 448.903 38.5775 448.903 39.5625C448.903 41.5516 449.694 43.4593 451.1 44.8658C452.507 46.2723 454.414 47.0625 456.403 47.0625H464.936V320.643H87.6625C85.6733 320.643 83.7657 321.433 82.3591 322.839C80.9526 324.246 80.1625 326.153 80.1625 328.143C80.1625 332.286 83.5195 335.643 87.6625 335.643H472.435C476.578 335.643 479.935 332.286 479.935 328.143V39.5625C479.936 38.5776 479.742 37.6023 479.365 36.6923C478.988 35.7823 478.436 34.9554 477.74 34.259C477.043 33.5625 476.217 33.01 475.307 32.6331C474.397 32.2563 473.421 32.0624 472.436 32.0625Z" fill="url(#paint1_linear_1378_22)"/>
<path d="M358.1 115.101C357.434 114.25 356.592 113.553 355.632 113.057C354.671 112.562 353.615 112.28 352.535 112.231L176.181 104.214C176.044 104.208 175.907 104.206 175.769 104.207C174.722 100.774 172.519 97.8092 169.533 95.8163L147.936 81.4183C146.281 80.3225 144.259 79.9275 142.313 80.3199C140.367 80.7124 138.656 81.8602 137.555 83.5119C136.454 85.1636 136.053 87.1844 136.439 89.1314C136.826 91.0785 137.968 92.793 139.616 93.8993L161.212 108.295C161.314 108.364 161.389 108.466 161.423 108.584L188.932 204.865C189.79 207.867 191.202 210.565 193.015 212.895L182.95 233.025C180.527 237.87 180.781 243.513 183.629 248.121C184.639 249.758 185.944 251.194 187.477 252.355C185.441 255.903 184.371 259.922 184.374 264.012C184.374 276.988 194.931 287.544 207.906 287.544C220.881 287.544 231.438 276.987 231.438 264.012C231.438 261.003 230.864 258.127 229.83 255.48H298.207C297.144 258.199 296.598 261.093 296.599 264.012C296.599 276.988 307.156 287.544 320.131 287.544C333.106 287.544 343.663 276.987 343.663 264.012C343.663 260.248 342.77 256.691 341.192 253.533C341.97 252.832 342.592 251.976 343.018 251.019C343.444 250.063 343.663 249.027 343.663 247.98C343.663 245.991 342.873 244.084 341.467 242.677C340.06 241.27 338.152 240.48 336.163 240.48H196.825C196.718 240.48 196.537 240.48 196.386 240.235C196.235 239.991 196.316 239.83 196.364 239.733L205.636 221.19C208.465 221.921 211.405 222.118 214.306 221.772L319.692 209.374C326.311 208.607 332.517 205.759 337.414 201.24C342.311 196.721 345.647 190.765 346.942 184.228L359.548 121.194C359.76 120.134 359.741 119.041 359.491 117.989C359.241 116.938 358.766 115.953 358.1 115.101ZM320.129 255.482C324.834 255.482 328.661 259.31 328.661 264.014C328.661 268.719 324.834 272.546 320.129 272.546C315.424 272.546 311.597 268.719 311.597 264.014C311.597 259.309 315.424 255.482 320.129 255.482ZM207.904 255.482C212.609 255.482 216.436 259.309 216.436 264.014C216.436 268.719 212.609 272.546 207.904 272.546C203.199 272.546 199.372 268.719 199.372 264.014C199.372 259.309 203.199 255.482 207.904 255.482ZM189.512 152.304L180.113 119.409L210.098 120.772L215.297 152.304H189.512ZM212.554 206.875C210.541 207.12 208.507 206.636 206.82 205.512C205.133 204.388 203.903 202.697 203.353 200.745L193.798 167.304H217.77L224.071 205.52L212.554 206.875ZM256.517 201.703L238.985 203.766L232.974 167.305H256.517V201.703ZM256.517 152.304H230.5L225.416 121.469L256.517 122.883V152.304ZM294.499 197.234L271.517 199.938V167.304H297.208L294.499 197.234ZM298.566 152.304H271.517V123.564L301.046 124.906L298.566 152.304ZM332.232 181.288C331.553 184.717 329.803 187.841 327.234 190.211C324.665 192.581 321.411 194.075 317.939 194.477L309.722 195.444L312.269 167.305H335.028L332.232 181.288ZM338.029 152.304H313.628L316.046 125.588L343.126 126.819L338.029 152.304Z" fill="url(#paint2_linear_1378_22)"/>
<defs>
<linearGradient id="paint0_linear_1378_22" x1="18.2681" y1="27.8334" x2="414.561" y2="567.068" gradientUnits="userSpaceOnUse">
<stop stop-color="#1BA2D7"/>
<stop offset="1" stop-color="#8D3DFA"/>
</linearGradient>
<linearGradient id="paint1_linear_1378_22" x1="48.0444" y1="51.6292" x2="303.685" y2="484.464" gradientUnits="userSpaceOnUse">
<stop stop-color="#1BA2D7"/>
<stop offset="1" stop-color="#8D3DFA"/>
</linearGradient>
<linearGradient id="paint2_linear_1378_22" x1="144.267" y1="93.5377" x2="339.263" y2="334.621" gradientUnits="userSpaceOnUse">
<stop stop-color="#1BA2D7"/>
<stop offset="1" stop-color="#8D3DFA"/>
</linearGradient>
</defs>
</svg>
