<svg width="493" height="363" viewBox="0 0 493 363" fill="none" xmlns="http://www.w3.org/2000/svg">
<path d="M235.3 35.01C175.8 35.01 127.4 83.41 127.4 142.91C127.4 202.41 175.8 250.81 235.3 250.81C294.8 250.81 343.2 202.41 343.2 142.91C343.2 83.41 294.79 35.01 235.3 35.01ZM235.3 238.81C182.42 238.81 139.4 195.79 139.4 142.91C139.4 90.03 182.42 47.01 235.3 47.01C288.18 47.01 331.2 90.03 331.2 142.91C331.2 195.79 288.18 238.81 235.3 238.81ZM233.93 62.82C231.79 62.82 229.81 63.96 228.73 65.82L163.87 178.17C162.8 180.03 162.8 182.31 163.87 184.17C164.94 186.03 166.92 187.17 169.07 187.17H298.81C300.95 187.17 302.93 186.03 304.01 184.17C305.09 182.31 305.08 180.03 304.01 178.17L239.14 65.82C238.61 64.9079 237.85 64.1508 236.936 63.6244C236.021 63.098 234.985 62.8206 233.93 62.82ZM179.46 175.17L233.94 80.82L288.42 175.17H179.46ZM233.93 105.23C237.24 105.23 239.93 107.92 239.93 111.23V142.91C239.93 146.22 237.24 148.91 233.93 148.91C230.62 148.91 227.93 146.22 227.93 142.91V111.23C227.93 107.92 230.62 105.23 233.93 105.23ZM239.93 160.86V160.9C239.93 164.21 237.24 166.9 233.93 166.9C230.62 166.9 227.93 164.21 227.93 160.9C227.93 157.59 230.62 154.88 233.93 154.88C237.24 154.88 239.93 157.54 239.93 160.86ZM467.95 0C454.68 0 443.89 10.79 443.89 24.06C443.89 32.21 447.97 39.42 454.18 43.77L413.53 152.67C412.7 152.58 411.86 152.54 411 152.54C402.12 152.54 394.36 157.38 390.19 164.55L368.99 158.62C369.59 153.47 369.91 148.23 369.91 142.91C369.91 68.68 309.52 8.29 235.29 8.29C161.06 8.29 100.67 68.68 100.67 142.91C100.67 188.55 123.51 228.96 158.35 253.31L146.26 275.51C144.38 275.04 142.41 274.78 140.39 274.78C134.44 274.78 129 276.95 124.8 280.54L98.64 262.15C99.64 259.51 100.19 256.65 100.19 253.66C100.19 240.4 89.4 229.6 76.13 229.6C62.86 229.6 52.07 240.39 52.07 253.66C52.07 259.36 54.07 264.6 57.39 268.73L33.19 301.14C30.37 299.98 27.29 299.34 24.06 299.34C10.79 299.34 0 310.13 0 323.4C0 336.67 10.79 347.46 24.06 347.46C37.33 347.46 48.12 336.67 48.12 323.4C48.12 317.7 46.12 312.46 42.8 308.34L67 275.93C69.82 277.09 72.9 277.73 76.13 277.73C82.08 277.73 87.52 275.56 91.72 271.97L117.88 290.36C116.88 293 116.33 295.86 116.33 298.85C116.33 312.12 127.12 322.91 140.39 322.91C153.66 322.91 164.45 312.12 164.45 298.85C164.45 291.92 161.5 285.67 156.8 281.27L168.51 259.77C188.21 271.07 211.01 277.54 235.31 277.54C260.83 277.54 284.71 270.4 305.07 258.02L383.55 350.23C390.15 357.98 399.64 362.48 410.29 362.91C410.85 362.93 411.41 362.94 411.97 362.94C423.13 362.94 433.94 358.49 441.85 350.58C450.16 342.27 454.65 330.77 454.18 319.02C453.75 308.37 449.25 298.88 441.5 292.28L349.57 214.03C357.79 200.87 363.81 186.2 367.09 170.53L386.99 176.1C386.99 176.26 386.98 176.43 386.98 176.59C386.98 189.86 397.77 200.65 411.04 200.65C424.31 200.65 435.1 189.86 435.1 176.59C435.1 168.44 431.02 161.23 424.81 156.88L465.46 47.98C466.29 48.07 467.13 48.11 467.99 48.11C481.26 48.11 492.05 37.32 492.05 24.05C492.05 10.78 481.22 0 467.95 0ZM24.07 335.44C17.42 335.44 12.01 330.03 12.01 323.38C12.01 316.73 17.42 311.32 24.07 311.32C30.72 311.32 36.13 316.73 36.13 323.38C36.13 330.03 30.72 335.44 24.07 335.44ZM76.13 265.72C69.48 265.72 64.07 260.31 64.07 253.66C64.07 247.01 69.48 241.6 76.13 241.6C82.78 241.6 88.19 247.01 88.19 253.66C88.19 260.31 82.78 265.72 76.13 265.72ZM140.39 310.9C133.74 310.9 128.33 305.49 128.33 298.84C128.33 292.19 133.74 286.78 140.39 286.78C147.04 286.78 152.45 292.19 152.45 298.84C152.45 305.49 147.04 310.9 140.39 310.9ZM442.17 319.51C442.5 327.8 439.2 336.24 433.35 342.1C427.49 347.96 419.04 351.25 410.76 350.92C403.5 350.63 397.08 347.62 392.68 342.45L335.41 275.17L366.42 244.16L433.7 301.43C438.87 305.82 441.88 312.24 442.17 319.51ZM357.25 236.35L327.6 266L315.07 251.28C325.542 243.549 334.848 234.351 342.7 223.97L357.25 236.35ZM235.3 265.54C167.68 265.54 112.68 210.53 112.68 142.92C112.68 75.31 167.68 20.29 235.3 20.29C302.92 20.29 357.92 75.3 357.92 142.91C357.92 210.52 302.91 265.54 235.3 265.54ZM411.01 188.65C404.36 188.65 398.95 183.24 398.95 176.59C398.95 169.94 404.36 164.53 411.01 164.53C417.66 164.53 423.07 169.94 423.07 176.59C423.07 183.24 417.66 188.65 411.01 188.65ZM467.95 36.11C461.3 36.11 455.89 30.7 455.89 24.05C455.89 17.4 461.3 11.99 467.95 11.99C474.6 11.99 480.01 17.41 480.01 24.05C480.01 30.69 474.6 36.11 467.95 36.11Z" fill="url(#paint0_linear_1107_1347)"/>
<defs>
<linearGradient id="paint0_linear_1107_1347" x1="17.5562" y1="23.3927" x2="335.017" y2="517.336" gradientUnits="userSpaceOnUse">
<stop stop-color="#1BA2D7"/>
<stop offset="1" stop-color="#8D3DFA"/>
</linearGradient>
</defs>
</svg>
