<svg width="452" height="428" viewBox="0 0 452 428" fill="none" xmlns="http://www.w3.org/2000/svg">
<path d="M450.88 260.62C450.24 254.94 445.84 250.38 440 249.66L407.68 245.34C405.68 238.78 403.04 232.38 399.76 226.22L419.52 200.22C422.88 195.58 422.88 189.34 419.44 184.94C412.24 175.74 404 167.5 394.8 160.3C390.4 156.86 384.16 156.78 379.44 160.3L363.52 172.38C363.28 168.54 363.04 164.7 362.56 160.86C361.84 154.54 356.88 149.5 350.48 148.7L310.08 143.26C307.52 134.62 304.08 126.38 299.92 118.62L324.56 86.22C328.4 81.1 328.4 74.06 324.56 69.1C315.807 58.0272 305.793 48.0129 294.72 39.26C289.76 35.34 282.72 35.34 277.6 39.26L245.2 63.9C237.44 59.74 229.2 56.3 220.56 53.74L215.12 13.34C214.24 6.94 209.28 1.98 202.96 1.26C188.8 -0.42 174.96 -0.42 160.8 1.26C154.48 1.98 149.44 6.94 148.64 13.34L143.2 53.74C134.56 56.3 126.32 59.74 118.56 63.9L86.16 39.26C81.04 35.34 74 35.42 69.04 39.26C57.9483 47.9916 47.9316 58.0083 39.2 69.1C35.28 74.06 35.28 81.1 39.2 86.22L63.84 118.62C59.68 126.38 56.24 134.62 53.68 143.26L13.28 148.7C6.88 149.58 1.92 154.54 1.2 160.86C0.400001 167.9 0 175.02 0 181.9C0 188.78 0.400001 195.9 1.2 202.94C1.92 209.26 6.88 214.22 13.28 215.1L53.68 220.54C56.24 229.18 59.68 237.5 63.84 245.18L39.2 277.58C37.3313 280.042 36.3197 283.049 36.3197 286.14C36.3197 289.231 37.3313 292.238 39.2 294.7C47.9316 305.792 57.9483 315.808 69.04 324.54C74 328.46 81.04 328.46 86.16 324.54L118.56 299.9C126.32 304.06 134.56 307.5 143.2 310.06L148.64 350.46C149.52 356.86 154.48 361.82 160.8 362.54C167.84 363.34 174.88 363.74 181.76 363.74C181.84 366.22 182.72 368.7 184.32 370.7C191.52 379.9 199.76 388.14 208.96 395.34C213.36 398.78 219.6 398.86 224.32 395.34L250.24 375.66C256.4 378.94 262.8 381.58 269.36 383.58L273.68 415.9C274.48 421.66 278.96 426.14 284.64 426.78C290.32 427.42 296.08 427.74 302 427.74C307.92 427.74 313.68 427.42 319.28 426.78C324.96 426.14 329.52 421.74 330.24 415.9L334.56 383.58C341.12 381.58 347.52 378.94 353.68 375.66L379.68 395.42C384.32 398.78 390.56 398.78 394.96 395.34C404.16 388.14 412.4 379.9 419.6 370.7C423.04 366.3 423.12 360.06 419.6 355.34L399.92 329.42C403.2 323.26 405.84 316.86 407.84 310.3L440.16 305.98C445.92 305.18 450.4 300.7 451.04 295.02C451.68 289.34 452 283.58 452 277.66C452 271.74 451.68 265.98 451.04 260.38L450.88 260.62ZM160.48 349.02L154.48 304.7C154.327 303.528 153.826 302.428 153.042 301.544C152.258 300.66 151.226 300.031 150.08 299.74C139.68 296.94 129.92 292.94 121.04 287.74C120.116 287.206 119.067 286.93 118 286.94C116.72 286.94 115.44 287.34 114.4 288.14L78.88 315.18C78.5395 315.453 78.1162 315.601 77.68 315.601C77.2438 315.601 76.8205 315.453 76.48 315.18C66.1514 307.011 56.8086 297.669 48.64 287.34C48.08 286.7 48.16 285.66 48.64 284.94L75.68 249.42C77.12 247.5 77.28 244.86 76.08 242.78C70.88 233.9 66.8 224.06 64.08 213.66C63.7771 212.52 63.1451 211.495 62.263 210.713C61.3808 209.93 60.2876 209.425 59.12 209.26L14.8 203.26C13.92 203.1 13.12 202.46 13.04 201.58C12.24 194.94 11.92 188.3 11.92 181.9C11.92 175.5 12.32 168.86 13.04 162.22C13.12 161.34 13.84 160.7 14.8 160.54L59.12 154.54C61.52 154.22 63.52 152.46 64.08 150.14C66.88 139.74 70.88 129.98 76.08 121.02C76.6656 119.994 76.9396 118.82 76.8686 117.64C76.7976 116.461 76.3845 115.328 75.68 114.38L48.64 78.86C48.3674 78.5195 48.2188 78.0962 48.2188 77.66C48.2188 77.2238 48.3674 76.8005 48.64 76.46C56.8 66.14 66.16 56.7 76.48 48.62C77.12 48.14 78.16 48.14 78.88 48.62L114.4 75.66C116.32 77.1 118.96 77.26 121.04 76.06C130.133 70.765 139.902 66.7281 150.08 64.06C151.22 63.7571 152.245 63.1251 153.027 62.243C153.81 61.3608 154.315 60.2676 154.48 59.1L160.48 14.78C160.64 13.9 161.28 13.1 162.16 13.02C175.36 11.5 188.32 11.5 201.52 13.02C202.32 13.1 203.04 13.82 203.2 14.78L209.2 59.1C209.52 61.5 211.28 63.5 213.6 64.06C224 66.86 233.76 70.86 242.64 76.06C244.72 77.26 247.36 77.1 249.28 75.66L284.8 48.62C285.141 48.3474 285.564 48.1988 286 48.1988C286.436 48.1988 286.859 48.3474 287.2 48.62C297.52 56.78 306.88 66.14 315.04 76.46C315.6 77.1 315.52 78.14 315.04 78.86L288 114.38C287.295 115.328 286.882 116.461 286.811 117.64C286.74 118.82 287.014 119.994 287.6 121.02C292.896 130.141 296.932 139.936 299.6 150.14C300.24 152.46 302.16 154.22 304.56 154.54L348.88 160.54C349.84 160.7 350.56 161.34 350.64 162.22C351.44 168.86 351.76 175.5 351.76 181.9C351.76 188.3 351.36 194.94 350.64 201.58C350.56 202.46 349.84 203.1 348.88 203.26L304.56 209.26C302.16 209.58 300.16 211.34 299.6 213.66C296.8 224.06 292.8 233.82 287.6 242.78C287.014 243.806 286.74 244.98 286.811 246.16C286.882 247.339 287.295 248.472 288 249.42L315.04 284.94C315.6 285.66 315.6 286.7 315.04 287.34C306.871 297.669 297.529 307.011 287.2 315.18C286.56 315.74 285.52 315.66 284.8 315.18L249.28 288.14C248.332 287.435 247.199 287.022 246.02 286.951C244.84 286.88 243.666 287.154 242.64 287.74C233.547 293.035 223.778 297.072 213.6 299.74C212.46 300.043 211.435 300.675 210.653 301.557C209.87 302.439 209.365 303.532 209.2 304.7L203.2 349.02C203.04 349.9 202.4 350.7 201.52 350.78C188.32 352.3 175.36 352.3 162.16 350.78C161.36 350.7 160.64 349.98 160.48 349.02ZM324.56 277.66L299.92 245.26C304.08 237.5 307.52 229.26 310.08 220.62H310.48C338.64 224.78 359.76 249.26 359.76 277.9C359.76 309.9 333.76 335.9 301.76 335.9C279.6 335.9 259.52 323.02 249.84 303.66L277.44 324.7C282.56 328.54 289.6 328.54 294.56 324.7C305.6 315.98 315.68 305.9 324.4 294.86C328.32 289.9 328.32 282.86 324.4 277.74L324.56 277.66ZM438.4 294.3L402.16 299.18C399.76 299.5 397.76 301.26 397.2 303.58C395.04 311.74 391.76 319.66 387.52 327.1C386.934 328.126 386.66 329.3 386.731 330.48C386.802 331.659 387.215 332.792 387.92 333.74L410.08 363.42C403.52 371.82 395.92 379.42 386.8 385.98L357.76 363.9C356.812 363.195 355.679 362.782 354.5 362.711C353.32 362.64 352.146 362.914 351.12 363.5C343.68 367.82 335.76 371.1 327.6 373.18C326.46 373.483 325.435 374.115 324.653 374.997C323.87 375.879 323.365 376.972 323.2 378.14L317.84 414.94C307.52 416.14 296.8 416.7 285.52 414.38L280.64 378.14C280.487 376.968 279.986 375.868 279.202 374.984C278.418 374.1 277.386 373.471 276.24 373.18C268.08 371.02 260.16 367.74 252.72 363.5C251.694 362.914 250.52 362.64 249.34 362.711C248.161 362.782 247.028 363.195 246.08 363.9L216.4 386.06C208.16 379.58 200.72 372.22 194.24 363.42C197.2 363.18 200.08 363.02 203.04 362.62C209.36 361.9 214.4 356.94 215.2 350.54L220.64 310.14C226.32 308.46 231.76 306.3 237.04 303.9C247.52 330.06 273.28 347.82 301.92 347.82C340.56 347.82 371.92 316.46 371.92 277.82C371.92 252.06 357.68 229.1 336.32 217.02L350.56 215.1C356.96 214.22 361.92 209.26 362.64 202.94C363.28 197.74 363.52 192.54 363.68 187.34L387.44 169.74C395.84 176.3 403.44 183.9 410 193.02L387.92 222.06C387.215 223.008 386.802 224.141 386.731 225.32C386.66 226.5 386.934 227.674 387.52 228.7C391.84 236.14 395.12 244.06 397.2 252.22C397.84 254.54 399.76 256.3 402.16 256.62L438.96 261.98C439.6 267.18 439.92 272.54 439.92 277.9C439.92 283.26 439.6 288.62 438.48 294.3H438.4ZM181.84 259.9C173.2 259.9 164.8 258.54 156.96 255.82C153.84 254.78 152.16 251.34 153.28 248.22C154.4 245.1 157.76 243.42 160.88 244.54C167.52 246.78 174.56 247.98 181.92 247.98C218.32 247.98 247.92 218.38 247.92 181.98C247.92 156.78 233.84 134.14 211.28 122.86C209.853 122.144 208.767 120.893 208.257 119.38C207.748 117.867 207.857 116.213 208.56 114.78C209.281 113.358 210.532 112.275 212.043 111.767C213.555 111.258 215.206 111.363 216.64 112.06C243.36 125.34 260 152.06 260 181.9C260 224.94 225.04 259.9 182 259.9H181.84ZM115.84 181.9C115.84 189.26 116.96 196.3 119.28 202.94C119.602 203.836 119.702 204.796 119.574 205.739C119.445 206.682 119.091 207.581 118.542 208.358C117.992 209.135 117.263 209.768 116.417 210.204C115.571 210.639 114.632 210.865 113.68 210.86C111.2 210.86 108.88 209.26 108 206.78C105.28 198.94 103.92 190.54 103.92 181.9C103.92 152.06 120.56 125.34 147.28 112.06C150.24 110.62 153.84 111.82 155.36 114.78C156.88 117.74 155.6 121.34 152.64 122.86C141.596 128.278 132.302 136.697 125.821 147.153C119.341 157.609 115.937 169.679 116 181.98L115.84 181.9ZM186.08 186.14L135.2 237.02C134 238.22 132.48 238.78 130.96 238.78C129.44 238.78 127.92 238.22 126.72 237.02C125.604 235.891 124.978 234.367 124.978 232.78C124.978 231.193 125.604 229.669 126.72 228.54L175.84 179.42V101.9C175.84 98.62 178.56 95.9 181.84 95.9C185.12 95.9 187.84 98.62 187.84 101.9V181.9C187.84 183.5 187.2 185.02 186.08 186.14Z" fill="url(#paint0_linear_1107_1350)"/>
<defs>
<linearGradient id="paint0_linear_1107_1350" x1="16.1273" y1="27.5693" x2="419.891" y2="517.233" gradientUnits="userSpaceOnUse">
<stop stop-color="#1BA2D7"/>
<stop offset="1" stop-color="#8D3DFA"/>
</linearGradient>
</defs>
</svg>
