<svg width="472" height="480" viewBox="0 0 472 480" fill="none" xmlns="http://www.w3.org/2000/svg">
<path d="M320.001 448V464H80.0006V392H64.0006V464H16.0006V394.8C15.9518 379.44 20.839 364.47 29.9419 352.098C39.0448 339.725 51.8817 330.605 66.5606 326.08L100.481 315.52C110.801 337.04 137.681 352 168.001 352C198.321 352 225.201 337.04 235.521 315.52L269.441 326.08L269.841 326.24L272.401 317.28L274.961 311.12L274.241 310.88L208.001 290.08V278.32C219.988 272.165 230.408 263.349 238.464 252.548C246.521 241.746 251.999 229.245 254.481 216H264.001C273.182 215.989 282.08 212.82 289.201 207.025C296.322 201.23 301.233 193.162 303.109 184.175C304.986 175.187 303.713 165.828 299.505 157.668C295.297 149.508 288.411 143.043 280.001 139.36V104C279.975 76.4253 269.01 49.9872 249.512 30.489C230.013 10.9907 203.575 0.0254184 176.001 0H160.001C132.426 0.0254184 105.988 10.9907 86.4896 30.489C66.9913 49.9872 56.026 76.4253 56.0006 104V139.36C47.5907 143.043 40.7038 149.508 36.496 157.668C32.2881 165.828 31.0156 175.187 32.8919 184.175C34.7681 193.162 39.6791 201.23 46.8003 207.025C53.9215 212.82 62.8195 215.989 72.0006 216H81.5206C84.0022 229.245 89.4807 241.746 97.5368 252.548C105.593 263.349 116.013 272.165 128.001 278.32V290.08L61.7606 310.8C43.8217 316.331 28.1353 327.481 17.0153 342.606C5.89532 357.73 -0.0695283 376.028 0.000611557 394.8V472C0.000611557 474.122 0.843466 476.157 2.34376 477.657C3.84405 479.157 5.87888 480 8.00061 480H328.001C330.122 480 332.157 479.157 333.657 477.657C335.158 476.157 336.001 474.122 336.001 472V448H320.001ZM240.001 133.92C229.521 128.88 220.561 114.4 217.441 95.6C217.245 94.4339 216.794 93.3257 216.119 92.355C215.444 91.3844 214.562 90.5754 213.537 89.9863C212.511 89.3972 211.368 89.0427 210.19 88.9483C209.011 88.8538 207.826 89.0217 206.721 89.44C181.617 97.998 154.385 97.998 129.281 89.44C128.171 89.0534 126.992 88.9035 125.821 89C124.65 89.0964 123.512 89.4371 122.481 90C121.458 90.5911 120.578 91.3986 119.901 92.366C119.223 93.3334 118.766 94.4372 118.561 95.6C115.441 114.4 106.481 128.88 96.0006 133.92V120C96.0006 100.904 103.586 82.5909 117.089 69.0883C130.592 55.5857 148.905 48 168.001 48C187.096 48 205.41 55.5857 218.912 69.0883C232.415 82.5909 240.001 100.904 240.001 120V133.92ZM288.001 176C287.982 182.359 285.447 188.453 280.95 192.95C276.453 197.446 270.36 199.981 264.001 200H256.001V152H264.001C270.36 152.019 276.453 154.554 280.95 159.05C285.447 163.547 287.982 169.641 288.001 176ZM80.0006 200H72.0006C65.6354 200 59.5309 197.471 55.03 192.971C50.5292 188.47 48.0006 182.365 48.0006 176C48.0006 169.635 50.5292 163.53 55.03 159.029C59.5309 154.529 65.6354 152 72.0006 152H80.0006V200ZM80.0006 120V136H72.0006V104C72.0154 80.6655 81.2916 58.291 97.7916 41.791C114.292 25.291 136.666 16.0148 160.001 16H176.001C199.335 16.0148 221.71 25.291 238.21 41.791C254.71 58.291 263.986 80.6655 264.001 104V136H256.001V120C256.001 96.6609 246.729 74.2778 230.226 57.7746C213.723 41.2714 191.34 32 168.001 32C144.662 32 122.278 41.2714 105.775 57.7746C89.272 74.2778 80.0006 96.6609 80.0006 120ZM96.0006 200V150.96C112.401 146.8 126.241 130.32 132.401 107.28C155.724 113.52 180.277 113.52 203.601 107.28C209.761 130.32 223.601 146.8 240.001 150.96V200C240.001 219.096 232.415 237.409 218.912 250.912C205.41 264.414 187.096 272 168.001 272C148.905 272 130.592 264.414 117.089 250.912C103.586 237.409 96.0006 219.096 96.0006 200ZM192.001 284.56V296C192.001 298 183.521 304 168.001 304C152.481 304 144.001 298 144.001 296V284.56C159.672 289.147 176.329 289.147 192.001 284.56ZM131.361 305.84C137.361 314.32 151.121 320 168.001 320C184.881 320 198.641 314.32 204.641 305.84L220.081 310.64C211.681 325.68 191.281 336 168.001 336C144.721 336 124.321 325.68 115.921 310.64L131.361 305.84Z" fill="url(#paint0_linear_1167_1393)"/>
<path d="M120 160H136V176H120V160ZM200 160H216V176H200V160ZM198.176 218.664L183.088 213.336C181.986 216.458 179.944 219.161 177.241 221.073C174.539 222.985 171.31 224.011 168 224.011C164.69 224.011 161.461 222.985 158.759 221.073C156.056 219.161 154.014 216.458 152.912 213.336L137.824 218.664C140.027 224.907 144.113 230.313 149.517 234.137C154.922 237.961 161.379 240.015 168 240.015C174.621 240.015 181.078 237.961 186.483 234.137C191.887 230.313 195.973 224.907 198.176 218.664ZM408 320H312C295.033 320.023 278.768 326.774 266.771 338.771C254.774 350.768 248.023 367.033 248 384V424C248.019 430.359 250.554 436.453 255.05 440.95C259.547 445.446 265.641 447.981 272 448H296C297.788 447.969 299.521 447.382 300.96 446.32L337.12 417.68C338.559 416.618 340.292 416.031 342.08 416H377.92C379.722 416.023 381.466 416.642 382.88 417.76L419.04 446.32C420.479 447.382 422.212 447.969 424 448H448C454.359 447.981 460.453 445.446 464.95 440.95C469.446 436.453 471.981 430.359 472 424V384C471.977 367.033 465.226 350.768 453.229 338.771C441.232 326.774 424.967 320.023 408 320ZM456 424C456 426.122 455.157 428.157 453.657 429.657C452.157 431.157 450.122 432 448 432H426.8L392.8 405.2C388.565 401.844 383.323 400.012 377.92 400H342.08C336.677 400.012 331.435 401.844 327.2 405.2L293.2 432H272C269.878 432 267.843 431.157 266.343 429.657C264.843 428.157 264 426.122 264 424V384C264 371.27 269.057 359.061 278.059 350.059C287.061 341.057 299.27 336 312 336H408C420.73 336 432.939 341.057 441.941 350.059C450.943 359.061 456 371.27 456 384V424Z" fill="url(#paint1_linear_1167_1393)"/>
<path d="M312 352H296V368H280V384H296V400H312V384H328V368H312V352ZM408 352H424V368H408V352ZM424 368H440V384H424V368ZM408 384H424V400H408V384ZM392 368H408V384H392V368ZM336 352H352V368H336V352ZM368 352H384V368H368V352Z" fill="url(#paint2_linear_1167_1393)"/>
<defs>
<linearGradient id="paint0_linear_1167_1393" x1="247.073" y1="462.646" x2="-56.3394" y2="116.329" gradientUnits="userSpaceOnUse">
<stop offset="0.0001" stop-color="#BE42B1"/>
<stop offset="1" stop-color="#3B4BAA"/>
</linearGradient>
<linearGradient id="paint1_linear_1167_1393" x1="378.838" y1="437.588" x2="231.612" y2="144.177" gradientUnits="userSpaceOnUse">
<stop offset="0.0001" stop-color="#BE42B1"/>
<stop offset="1" stop-color="#3B4BAA"/>
</linearGradient>
<linearGradient id="paint2_linear_1167_1393" x1="397.654" y1="398.265" x2="386.76" y2="339.055" gradientUnits="userSpaceOnUse">
<stop offset="0.0001" stop-color="#BE42B1"/>
<stop offset="1" stop-color="#3B4BAA"/>
</linearGradient>
</defs>
</svg>
