<svg width="480" height="488" viewBox="0 0 480 488" fill="none" xmlns="http://www.w3.org/2000/svg">
<path d="M192 175.992C125.832 175.992 72 229.824 72 295.992C72 362.16 125.832 415.992 192 415.992C258.168 415.992 312 362.16 312 295.992C312 229.824 258.168 175.992 192 175.992ZM250.744 381.728L242.936 368.2L229.08 376.2L236.864 389.672C225.305 395.24 212.808 398.601 200.016 399.584V375.992H184.016V399.584C171.223 398.606 158.725 395.245 147.168 389.672L154.952 376.2L141.096 368.2L133.288 381.728C122.712 374.456 113.56 365.304 106.288 354.728L119.816 346.92L111.816 333.064L98.344 340.848C92.7763 329.289 89.4148 316.793 88.432 304H112V288H88.408C89.416 274.88 92.872 262.464 98.32 251.152L111.792 258.936L119.792 245.08L106.264 237.272C113.536 226.696 122.688 217.544 133.264 210.272L141.072 223.8L154.928 215.8L147.144 202.328C158.703 196.76 171.2 193.399 183.992 192.416V215.992H199.992V192.4C213.112 193.408 225.528 196.864 236.84 202.312L229.056 215.784L242.912 223.784L250.72 210.256C261.296 217.528 270.448 226.68 277.72 237.256L264.192 245.064L272.192 258.92L285.664 251.136C291.232 262.695 294.593 275.192 295.576 287.984H272V303.984H295.592C294.614 316.777 291.252 329.275 285.68 340.832L272.208 333.048L264.208 346.904L277.736 354.712C270.474 365.298 261.324 374.457 250.744 381.728Z" fill="url(#paint0_linear_1167_1370)"/>
<path d="M200 231.992H184V295.992C184 297.373 184.358 298.729 185.038 299.931C185.718 301.132 186.697 302.137 187.88 302.848L227.88 326.848L236.112 313.128L200 291.464V231.992Z" fill="url(#paint1_linear_1167_1370)"/>
<path d="M380.8 1.59204C379.611 0.703725 378.198 0.163488 376.719 0.0316485C375.241 -0.100191 373.754 0.181557 372.427 0.845431C371.099 1.50931 369.982 2.52917 369.2 3.79116C368.418 5.05314 368.003 6.50757 368 7.99204V39.992H64V55.992H376C378.122 55.992 380.157 55.1492 381.657 53.6489C383.157 52.1486 384 50.1138 384 47.992V23.992L459.112 80.32L384 142.912V111.992C384 109.87 383.157 107.835 381.657 106.335C380.157 104.835 378.122 103.992 376 103.992H192C86.136 103.992 0 190.128 0 295.992C0 401.856 86.136 487.992 192 487.992V479.992L192.168 487.992L193.152 487.984V471.984L191.968 471.992C94.936 471.976 16 393.032 16 295.992C16 198.944 94.952 119.992 192 119.992H368V159.992C368.001 161.512 368.434 163.001 369.25 164.283C370.066 165.566 371.231 166.589 372.607 167.234C373.984 167.879 375.516 168.118 377.023 167.923C378.531 167.729 379.952 167.109 381.12 166.136L477.12 86.136C478.044 85.3609 478.781 84.3873 479.277 83.2876C479.772 82.1879 480.013 80.9906 479.982 79.7849C479.95 78.5792 479.647 77.3961 479.095 76.3239C478.542 75.2516 477.755 74.3178 476.792 73.592L380.8 1.59204ZM273.936 469.68C278.992 467.28 283.952 464.664 288.688 461.904L280.624 448.072C276.28 450.608 271.728 453.008 267.08 455.224L273.936 469.68ZM293.472 439.816L302.72 452.88C307.232 449.68 311.672 446.248 315.904 442.672L305.576 430.456C301.696 433.728 297.624 436.872 293.472 439.816ZM362.096 341.376L377.552 345.504C378.989 340.125 380.187 334.685 381.144 329.2L365.376 326.448C364.496 331.472 363.4 336.488 362.096 341.376ZM367.344 311.272L383.28 312.648C383.76 307.128 384 301.52 384 295.992H368C368 301.072 367.784 306.208 367.344 311.272ZM336.44 396.584L349.552 405.768C352.704 401.272 355.72 396.528 358.512 391.656L344.64 383.688C342.08 388.144 339.32 392.48 336.44 396.584ZM351.672 370.12L366.184 376.856C368.52 371.816 370.672 366.632 372.552 361.432L357.52 355.96C355.778 360.763 353.827 365.488 351.672 370.12ZM226.392 484.92L223.536 469.168C218.608 470.064 213.504 470.76 208.376 471.24L209.864 487.176C215.448 486.656 221.008 485.896 226.392 484.92ZM253.016 461.136C248.224 462.904 243.328 464.472 238.448 465.808L242.664 481.248C248.028 479.778 253.326 478.078 258.544 476.152L253.016 461.136ZM316.824 420.064L328.168 431.36C332.09 427.409 335.843 423.293 339.416 419.024L327.136 408.76C323.848 412.688 320.384 416.488 316.824 420.064ZM0 39.992H16V55.992H0V39.992ZM32 39.992H48V55.992H32V39.992Z" fill="url(#paint2_linear_1167_1370)"/>
<defs>
<linearGradient id="paint0_linear_1167_1370" x1="248.48" y1="407.315" x2="112.077" y2="184.898" gradientUnits="userSpaceOnUse">
<stop offset="0.0001" stop-color="#BE42B1"/>
<stop offset="1" stop-color="#3B4BAA"/>
</linearGradient>
<linearGradient id="paint1_linear_1167_1370" x1="222.32" y1="323.419" x2="162.199" y2="269.562" gradientUnits="userSpaceOnUse">
<stop offset="0.0001" stop-color="#BE42B1"/>
<stop offset="1" stop-color="#3B4BAA"/>
</linearGradient>
<linearGradient id="paint2_linear_1167_1370" x1="352.949" y1="470.349" x2="73.5426" y2="22.2296" gradientUnits="userSpaceOnUse">
<stop offset="0.0001" stop-color="#BE42B1"/>
<stop offset="1" stop-color="#3B4BAA"/>
</linearGradient>
</defs>
</svg>
