<svg width="481" height="480" viewBox="0 0 481 480" fill="none" xmlns="http://www.w3.org/2000/svg">
<path d="M224 192H152C68.184 192 0 260.184 0 344V432C0 458.472 21.528 480 48 480H80C106.472 480 128 458.472 128 432C128 418.768 138.768 408 152 408H224C226.122 408 228.157 407.157 229.657 405.657C231.157 404.157 232 402.122 232 400V200C232 197.878 231.157 195.843 229.657 194.343C228.157 192.843 226.122 192 224 192ZM216 392H152C129.944 392 112 409.944 112 432C112 449.648 97.648 464 80 464H48C30.352 464 16 449.648 16 432V344C16 269.008 77.008 208 152 208H216V392Z" fill="url(#paint0_linear_1166_1365)"/>
<path d="M136 264C136 261.878 135.157 259.843 133.657 258.343C132.157 256.843 130.122 256 128 256H96C93.8783 256 91.8434 256.843 90.3431 258.343C88.8429 259.843 88 261.878 88 264V288H64C61.8783 288 59.8434 288.843 58.3431 290.343C56.8429 291.843 56 293.878 56 296V328C56 330.122 56.8429 332.157 58.3431 333.657C59.8434 335.157 61.8783 336 64 336H88V360C88 362.122 88.8429 364.157 90.3431 365.657C91.8434 367.157 93.8783 368 96 368H128C130.122 368 132.157 367.157 133.657 365.657C135.157 364.157 136 362.122 136 360V336H160C162.122 336 164.157 335.157 165.657 333.657C167.157 332.157 168 330.122 168 328V296C168 293.878 167.157 291.843 165.657 290.343C164.157 288.843 162.122 288 160 288H136V264ZM152 304V320H128C125.878 320 123.843 320.843 122.343 322.343C120.843 323.843 120 325.878 120 328V352H104V328C104 325.878 103.157 323.843 101.657 322.343C100.157 320.843 98.1217 320 96 320H72V304H96C98.1217 304 100.157 303.157 101.657 301.657C103.157 300.157 104 298.122 104 296V272H120V296C120 298.122 120.843 300.157 122.343 301.657C123.843 303.157 125.878 304 128 304H152ZM480 328C479.982 322.836 478.295 317.815 475.191 313.688C472.087 309.56 467.732 306.547 462.776 305.096L457.376 278.088C461.71 276.244 465.406 273.168 468.006 269.241C470.606 265.314 471.995 260.71 472 256C472 242.768 461.232 232 448 232C441.544 232 435.704 234.592 431.384 238.752L407.376 226.752C406.184 221.439 403.221 216.688 398.973 213.281C394.725 209.873 389.445 208.011 384 208C377.056 208 370.84 211.016 366.456 215.744L310.776 208.784C309.253 203.931 306.224 199.689 302.13 196.671C298.035 193.654 293.086 192.018 288 192C274.768 192 264 202.768 264 216C264 222.456 266.592 228.296 270.752 232.616L258.752 256.624C253.439 257.816 248.688 260.779 245.281 265.027C241.873 269.275 240.011 274.555 240 280C240 290.704 247.088 299.688 256.784 302.768L263.744 358.448C261.311 360.68 259.367 363.392 258.034 366.413C256.701 369.434 256.009 372.698 256 376C256 389.232 266.768 400 280 400C284.947 399.984 289.768 398.438 293.802 395.573C297.835 392.708 300.883 388.666 302.528 384H337.48C338.737 387.517 340.798 390.691 343.5 393.269C346.201 395.847 349.468 397.757 353.04 398.848L358.872 433.832C354.477 435.639 350.717 438.711 348.07 442.658C345.422 446.604 344.006 451.248 344 456C344 469.232 354.768 480 368 480C372.947 479.984 377.768 478.438 381.802 475.573C385.835 472.708 388.883 468.666 390.528 464H433.48C435.125 468.666 438.173 472.708 442.206 475.573C446.24 478.438 451.061 479.984 456.008 480C469.24 480 480.008 469.232 480.008 456C479.992 451.053 478.446 446.232 475.581 442.198C472.716 438.165 468.674 435.117 464.008 433.472V350.528C468.672 348.882 472.713 345.833 475.576 341.8C478.44 337.767 479.985 332.946 480 328ZM444.584 435.016L382.184 385.096C382.727 383.773 383.152 382.405 383.456 381.008L442.824 348.024C444.416 349.08 446.168 349.872 448 350.528V433.48C446.808 433.896 445.68 434.424 444.584 435.016ZM374.968 433.152L369.136 398.168C369.936 397.84 370.656 397.384 371.408 396.976L433.808 446.896C433.672 447.256 433.6 447.64 433.472 448H390.52C389.265 444.484 387.205 441.31 384.505 438.731C381.805 436.153 378.539 434.243 374.968 433.152ZM354.184 352.792L339.32 318.104C340.68 316.248 341.736 314.2 342.528 312H361.48C362.768 315.608 364.84 318.816 367.568 321.4L361.416 352.144C360.936 352.112 360.48 352 360 352C357.984 352 356.056 352.32 354.184 352.792ZM297.512 359.696L316.728 327.664C317.808 327.816 318.88 328 320 328C322.016 328 323.944 327.672 325.816 327.208L340.68 361.896C339.32 363.752 338.256 365.8 337.472 368H302.52C301.436 364.919 299.731 362.093 297.512 359.696ZM287.648 283.48C287.816 282.336 288 281.192 288 280C288 270.928 282.88 263.104 275.432 259.032L283.752 242.392L302.936 287.16C301.675 288.47 300.565 289.916 299.624 291.472L287.648 283.48ZM373.72 253.592C374.464 253.944 375.224 254.24 376 254.52V281.472C372.653 282.666 369.614 284.588 367.101 287.101C364.588 289.614 362.666 292.653 361.472 296H342.52C341.589 293.399 340.214 290.979 338.456 288.848L373.72 253.592ZM404.968 243.432L424.288 253.096C424.176 254.056 424 255.008 424 256C424 259.224 424.656 262.288 425.816 265.096L399.696 285.992C397.437 284.016 394.826 282.483 392 281.472V254.52C397.54 252.546 402.157 248.598 404.968 243.432ZM380.768 364.2C379.607 362.129 378.146 360.242 376.432 358.6L382.584 327.856C383.064 327.888 383.52 328 384 328C390.32 328 396.024 325.496 400.32 321.496L432.128 326.8C432.104 327.2 432 327.584 432 328C432 330.48 432.488 332.824 433.184 335.08L380.768 364.2ZM384 296C386.122 296 388.157 296.843 389.657 298.343C391.157 299.843 392 301.878 392 304C392 306.122 391.157 308.157 389.657 309.657C388.157 311.157 386.122 312 384 312C381.878 312 379.843 311.157 378.343 309.657C376.843 308.157 376 306.122 376 304C376 301.878 376.843 299.843 378.343 298.343C379.843 296.843 381.878 296 384 296ZM438.536 311.648L407.744 306.52C407.832 305.68 408 304.864 408 304C408 302.688 407.816 301.416 407.608 300.16L436.584 276.976C438.048 277.776 439.592 278.416 441.224 278.904L446.624 305.912C443.559 307.242 440.804 309.195 438.536 311.648ZM328 304C328 306.122 327.157 308.157 325.657 309.657C324.157 311.157 322.122 312 320 312C317.878 312 315.843 311.157 314.343 309.657C312.843 308.157 312 306.122 312 304C312 301.878 312.843 299.843 314.343 298.343C315.843 296.843 317.878 296 320 296C322.122 296 324.157 296.843 325.657 298.343C327.157 299.843 328 301.878 328 304ZM456 336C453.878 336 451.843 335.157 450.343 333.657C448.843 332.157 448 330.122 448 328C448 325.878 448.843 323.843 450.343 322.343C451.843 320.843 453.878 320 456 320C458.122 320 460.157 320.843 461.657 322.343C463.157 323.843 464 325.878 464 328C464 330.122 463.157 332.157 461.657 333.657C460.157 335.157 458.122 336 456 336ZM448 248C450.122 248 452.157 248.843 453.657 250.343C455.157 251.843 456 253.878 456 256C456 258.122 455.157 260.157 453.657 261.657C452.157 263.157 450.122 264 448 264C445.878 264 443.843 263.157 442.343 261.657C440.843 260.157 440 258.122 440 256C440 253.878 440.843 251.843 442.343 250.343C443.843 248.843 445.878 248 448 248ZM384 224C386.122 224 388.157 224.843 389.657 226.343C391.157 227.843 392 229.878 392 232C392 234.122 391.157 236.157 389.657 237.657C388.157 239.157 386.122 240 384 240C381.878 240 379.843 239.157 378.343 237.657C376.843 236.157 376 234.122 376 232C376 229.878 376.843 227.843 378.343 226.343C379.843 224.843 381.878 224 384 224ZM362.408 242.28L324.264 280.424C322.857 280.161 321.431 280.019 320 280C319.104 280 318.256 280.168 317.384 280.264L298.944 237.232C304.083 234.594 308.101 230.196 310.264 224.84L360.096 231.072C360.08 231.384 360 231.68 360 232C360 235.696 360.904 239.152 362.408 242.28ZM288 208C290.122 208 292.157 208.843 293.657 210.343C295.157 211.843 296 213.878 296 216C296 218.122 295.157 220.157 293.657 221.657C292.157 223.157 290.122 224 288 224C285.878 224 283.843 223.157 282.343 221.657C280.843 220.157 280 218.122 280 216C280 213.878 280.843 211.843 282.343 210.343C283.843 208.843 285.878 208 288 208ZM264 272C266.122 272 268.157 272.843 269.657 274.343C271.157 275.843 272 277.878 272 280C272 282.122 271.157 284.157 269.657 285.657C268.157 287.157 266.122 288 264 288C261.878 288 259.843 287.157 258.343 285.657C256.843 284.157 256 282.122 256 280C256 277.878 256.843 275.843 258.343 274.343C259.843 272.843 261.878 272 264 272ZM272.848 302.264C275.52 301.185 277.976 299.632 280.096 297.68L296.464 308.592C297.336 313.08 299.488 317.08 302.488 320.304L283.272 352.336C282.192 352.184 281.12 352 280 352C279.68 352 279.384 352.08 279.072 352.096L272.848 302.264ZM280 384C277.878 384 275.843 383.157 274.343 381.657C272.843 380.157 272 378.122 272 376C272 373.878 272.843 371.843 274.343 370.343C275.843 368.843 277.878 368 280 368C282.122 368 284.157 368.843 285.657 370.343C287.157 371.843 288 373.878 288 376C288 378.122 287.157 380.157 285.657 381.657C284.157 383.157 282.122 384 280 384ZM360 368C362.122 368 364.157 368.843 365.657 370.343C367.157 371.843 368 373.878 368 376C368 378.122 367.157 380.157 365.657 381.657C364.157 383.157 362.122 384 360 384C357.878 384 355.843 383.157 354.343 381.657C352.843 380.157 352 378.122 352 376C352 373.878 352.843 371.843 354.343 370.343C355.843 368.843 357.878 368 360 368ZM368 464C365.878 464 363.843 463.157 362.343 461.657C360.843 460.157 360 458.122 360 456C360 453.878 360.843 451.843 362.343 450.343C363.843 448.843 365.878 448 368 448C370.122 448 372.157 448.843 373.657 450.343C375.157 451.843 376 453.878 376 456C376 458.122 375.157 460.157 373.657 461.657C372.157 463.157 370.122 464 368 464ZM456 464C453.878 464 451.843 463.157 450.343 461.657C448.843 460.157 448 458.122 448 456C448 453.878 448.843 451.843 450.343 450.343C451.843 448.843 453.878 448 456 448C458.122 448 460.157 448.843 461.657 450.343C463.157 451.843 464 453.878 464 456C464 458.122 463.157 460.157 461.657 461.657C460.157 463.157 458.122 464 456 464ZM103.584 29.904C103.116 28.5106 102.273 27.2729 101.149 26.3262C100.024 25.3794 98.6608 24.7601 97.208 24.536L79.32 21.8L71.24 4.6C70.5939 3.22563 69.5701 2.06353 68.288 1.24954C67.0059 0.435549 65.5186 0.00329208 64 0.00329208C62.4814 0.00329208 60.9941 0.435549 59.712 1.24954C58.4299 2.06353 57.4061 3.22563 56.76 4.6L48.68 21.8L30.792 24.536C29.3378 24.7577 27.9728 25.376 26.8472 26.3231C25.7215 27.2701 24.8788 28.5092 24.4117 29.904C23.9445 31.2989 23.871 32.7956 24.1992 34.2296C24.5274 35.6635 25.2446 36.9792 26.272 38.032L39.448 51.536L36.32 70.704C36.0862 72.1843 36.2717 73.7005 36.8553 75.0808C37.439 76.4611 38.3976 77.6504 39.6225 78.5139C40.8474 79.3774 42.2896 79.8806 43.7858 79.9665C45.282 80.0524 46.7723 79.7176 48.088 79L64 70.208L79.904 79C81.2171 79.7311 82.7104 80.0755 84.2111 79.9934C85.7117 79.9113 87.1585 79.406 88.384 78.536C90.88 76.768 92.168 73.728 91.672 70.704L88.544 51.536L101.72 38.032C102.75 36.9806 103.469 35.665 103.797 34.2307C104.126 32.7963 104.053 31.299 103.584 29.904ZM74.272 43.256C73.3978 44.1517 72.7461 45.2402 72.3696 46.4338C71.993 47.6274 71.902 48.8928 72.104 50.128L73.232 57.024L67.872 54.064C66.688 53.4082 65.3565 53.0648 64.003 53.0662C62.6495 53.0676 61.3186 53.4137 60.136 54.072L54.776 57.032L55.904 50.136C56.1053 48.9008 56.0141 47.6356 55.6375 46.4421C55.261 45.2486 54.6097 44.16 53.736 43.264L48.6 38L55.32 36.976C57.952 36.576 60.216 34.88 61.352 32.472L64 26.832L66.648 32.472C67.2049 33.6613 68.0469 34.6947 69.0992 35.4804C70.1515 36.2661 71.3815 36.7799 72.68 36.976L79.4 38L74.272 43.256ZM16 112C13.8783 112 11.8434 112.843 10.3431 114.343C8.84285 115.843 8 117.878 8 120V160C8 162.122 8.84285 164.157 10.3431 165.657C11.8434 167.157 13.8783 168 16 168H32.776L44.672 188.08C45.4681 189.416 46.6359 190.491 48.0327 191.174C49.4296 191.857 50.9952 192.119 52.5383 191.927C54.0814 191.735 55.5353 191.099 56.7226 190.094C57.9098 189.09 58.779 187.762 59.224 186.272L64.64 168H80C82.1217 168 84.1566 167.157 85.6569 165.657C87.1571 164.157 88 162.122 88 160V120C88 117.878 87.1571 115.843 85.6569 114.343C84.1566 112.843 82.1217 112 80 112H16ZM72 152H58.664C56.9385 152 55.2592 152.557 53.8765 153.59C52.4939 154.622 51.482 156.074 50.992 157.728L49.096 164.152L44.216 155.92C43.5085 154.725 42.502 153.735 41.2956 153.048C40.0892 152.361 38.7245 151.999 37.336 152H24V128H72V152ZM119.032 96.968L152.968 130.912C153.709 131.657 154.591 132.249 155.561 132.653C156.532 133.056 157.573 133.264 158.624 133.264C159.675 133.264 160.716 133.056 161.687 132.653C162.657 132.249 163.539 131.657 164.28 130.912L198.224 96.968C202.719 92.4653 205.244 86.3626 205.244 80C205.244 73.6374 202.719 67.5347 198.224 63.032C193.72 58.5361 187.616 56.0111 181.252 56.0111C174.888 56.0111 168.784 58.5361 164.28 63.032L158.624 68.688L152.968 63.032C143.608 53.672 128.392 53.672 119.032 63.032C109.672 72.392 109.672 87.608 119.032 96.968ZM130.344 74.344C131.904 72.784 133.952 72.008 136 72.008C138.048 72.008 140.096 72.784 141.656 74.344L152.968 85.656C153.71 86.3996 154.592 86.9895 155.562 87.392C156.533 87.7944 157.573 88.0016 158.624 88.0016C159.675 88.0016 160.715 87.7944 161.686 87.392C162.656 86.9895 163.538 86.3996 164.28 85.656L175.592 74.344C176.335 73.6007 177.217 73.011 178.187 72.6086C179.158 72.2061 180.198 71.9988 181.249 71.9984C182.3 71.998 183.341 72.2046 184.311 72.6064C185.282 73.0082 186.165 73.5972 186.908 74.34C187.651 75.0828 188.241 75.9646 188.643 76.9353C189.046 77.906 189.253 78.9464 189.254 79.9972C189.254 81.048 189.047 82.0885 188.646 83.0595C188.244 84.0304 187.655 84.9127 186.912 85.656L158.624 113.944L130.344 85.656C128.844 84.1558 128.002 82.1213 128.002 80C128.002 77.8787 128.844 75.8442 130.344 74.344ZM320.272 100.072C319.72 102.152 320.016 104.36 321.104 106.216L337.48 133.936C338.543 135.743 340.273 137.06 342.299 137.602C344.324 138.143 346.481 137.867 348.304 136.832L367.52 125.992C370.136 127.728 372.984 129.288 376 130.64V152C376 154.122 376.843 156.157 378.343 157.657C379.843 159.157 381.878 160 384 160H416C418.122 160 420.157 159.157 421.657 157.657C423.157 156.157 424 154.122 424 152V130.632C426.948 129.316 429.784 127.761 432.48 125.984L451.696 136.824C453.519 137.859 455.676 138.135 457.701 137.594C459.727 137.052 461.457 135.735 462.52 133.928L478.896 106.208C479.441 105.292 479.796 104.276 479.941 103.22C480.087 102.165 480.019 101.091 479.743 100.061C479.466 99.0323 478.986 98.0691 478.331 97.2286C477.675 96.3881 476.858 95.6875 475.928 95.168L456.928 84.456C457.196 81.486 457.196 78.498 456.928 75.528L475.928 64.816C476.854 64.2918 477.666 63.5887 478.317 62.7477C478.969 61.9067 479.446 60.9445 479.723 59.9172C479.999 58.8899 480.068 57.8179 479.926 56.7636C479.784 55.7093 479.434 54.6937 478.896 53.776L462.52 26.056C461.454 24.2521 459.724 22.9381 457.7 22.3966C455.676 21.8551 453.52 22.1292 451.696 23.16L432.48 34.016C429.784 32.2389 426.948 30.6844 424 29.368V8C424 5.87827 423.157 3.84344 421.657 2.34315C420.157 0.842854 418.122 0 416 0H384C381.878 0 379.843 0.842854 378.343 2.34315C376.843 3.84344 376 5.87827 376 8V29.368C373.052 30.6844 370.216 32.2389 367.52 34.016L348.304 23.176C346.479 22.1494 344.325 21.8776 342.302 22.4188C340.279 22.96 338.549 24.2712 337.48 26.072L321.104 53.792C320.559 54.708 320.204 55.7239 320.059 56.7796C319.913 57.8353 319.981 58.9094 320.257 59.9385C320.534 60.9677 321.014 61.9309 321.669 62.7714C322.325 63.6119 323.142 64.3125 324.072 64.832L343.072 75.544C342.804 78.514 342.804 81.502 343.072 84.472L324.072 95.184C323.143 95.7018 322.327 96.4015 321.675 97.2413C321.022 98.0811 320.545 99.0438 320.272 100.072ZM355.664 95.728C358.648 94.04 360.232 90.64 359.592 87.264C359.104 84.712 358.872 82.336 358.872 80C358.872 77.664 359.104 75.288 359.592 72.736C359.904 71.0917 359.693 69.3909 358.988 67.8728C358.284 66.3546 357.121 65.0954 355.664 64.272L339.04 54.896L347.272 40.96L364.176 50.496C367.072 52.12 370.672 51.8 373.24 49.664C376.832 46.656 381.456 44.128 386.616 42.344C388.187 41.8005 389.549 40.7812 390.514 39.4278C391.479 38.0744 391.998 36.4541 392 34.792V16H408V34.792C408 36.4555 408.519 38.0776 409.484 39.4326C410.449 40.7876 411.812 41.808 413.384 42.352C418.544 44.136 423.168 46.664 426.76 49.672C429.328 51.808 432.928 52.128 435.824 50.504L452.728 40.968L460.96 54.904L444.336 64.28C442.879 65.1034 441.716 66.3626 441.012 67.8808C440.307 69.3989 440.096 71.0997 440.408 72.744C440.896 75.296 441.128 77.672 441.128 80.008C441.128 82.344 440.896 84.72 440.408 87.272C439.768 90.648 441.352 94.048 444.336 95.736L460.96 105.112L452.728 119.048L435.824 109.512C434.405 108.721 432.781 108.377 431.163 108.525C429.546 108.674 428.011 109.308 426.76 110.344C423.168 113.352 418.544 115.88 413.384 117.664C411.813 118.205 410.45 119.223 409.485 120.575C408.52 121.927 408.001 123.547 408 125.208V144H392V125.208C392 123.545 391.481 121.922 390.516 120.567C389.551 119.212 388.188 118.192 386.616 117.648C381.456 115.864 376.832 113.336 373.24 110.328C371.99 109.291 370.455 108.656 368.837 108.508C367.219 108.359 365.594 108.704 364.176 109.496L347.272 119.032L339.04 105.096L355.664 95.728Z" fill="url(#paint1_linear_1166_1365)"/>
<path d="M400 112C417.648 112 432 97.648 432 80C432 62.352 417.648 48 400 48C382.352 48 368 62.352 368 80C368 97.648 382.352 112 400 112ZM400 64C408.824 64 416 71.176 416 80C416 88.824 408.824 96 400 96C391.176 96 384 88.824 384 80C384 71.176 391.176 64 400 64Z" fill="url(#paint2_linear_1166_1365)"/>
<defs>
<linearGradient id="paint0_linear_1166_1365" x1="170.598" y1="469.588" x2="-6.42082" y2="237.07" gradientUnits="userSpaceOnUse">
<stop offset="0.0001" stop-color="#BE42B1"/>
<stop offset="1" stop-color="#3B4BAA"/>
</linearGradient>
<linearGradient id="paint1_linear_1166_1365" x1="355.09" y1="462.646" x2="80.2314" y2="21.9218" gradientUnits="userSpaceOnUse">
<stop offset="0.0001" stop-color="#BE42B1"/>
<stop offset="1" stop-color="#3B4BAA"/>
</linearGradient>
<linearGradient id="paint2_linear_1166_1365" x1="415.061" y1="109.686" x2="378.687" y2="50.375" gradientUnits="userSpaceOnUse">
<stop offset="0.0001" stop-color="#BE42B1"/>
<stop offset="1" stop-color="#3B4BAA"/>
</linearGradient>
</defs>
</svg>
