<svg width="452" height="512" viewBox="0 0 452 512" fill="none" xmlns="http://www.w3.org/2000/svg">
<path d="M439.132 128.759H424.741C424.731 128.735 424.721 128.71 424.712 128.686L421.951 121.947C421.933 121.903 421.915 121.859 421.896 121.816L421.899 121.795L432.124 111.492C436.956 106.623 436.956 98.699 432.124 93.829L412.918 74.477C410.563 72.103 407.421 70.795 404.072 70.795C400.723 70.795 397.582 72.103 395.227 74.476L385.044 84.735L384.97 84.704L378.332 81.942L378.234 81.902L378.228 81.893V67.293C378.228 60.401 372.621 54.793 365.728 54.793H338.606C331.713 54.793 326.106 60.401 326.106 67.293V81.893L326.1 81.902L326.002 81.942L319.365 84.704C319.34 84.7147 319.316 84.7251 319.291 84.735L309.11 74.475C307.954 73.3046 306.577 72.3764 305.058 71.7445C303.539 71.1126 301.91 70.7898 300.265 70.795C297.019 70.7874 293.901 72.0559 291.582 74.327C273.008 67.272 252.898 63.398 231.904 63.398C138.358 63.398 62.252 140.061 62.252 234.293C62.252 269.206 72.635 302.782 92.28 331.393C110.5 357.928 135.451 378.536 164.666 391.237V419.081C157.979 421.544 153.188 427.96 153.188 435.491V451.762C153.188 461.411 161.039 469.262 170.688 469.262H181.626V495.602C181.626 504.644 188.967 511.999 197.99 511.999H265.819C274.842 511.999 282.183 504.644 282.183 495.602V469.262H293.121C302.77 469.262 310.621 461.411 310.621 451.762V435.491C310.621 427.96 305.829 421.543 299.142 419.081V391.238C337.134 374.728 367.642 345.048 385.394 307.183C386.238 305.382 386.332 303.319 385.656 301.449C384.979 299.578 383.588 298.053 381.787 297.208C380.895 296.79 379.93 296.551 378.946 296.506C377.962 296.461 376.979 296.611 376.053 296.945C375.127 297.28 374.275 297.795 373.548 298.458C372.821 299.122 372.231 299.923 371.813 300.815C356.562 333.344 330.999 359.248 299.142 374.727V334.05H300.826C307.719 334.05 313.326 328.443 313.326 321.55V302.006C313.326 295.113 307.719 289.506 300.826 289.506H281.751C274.858 289.506 269.251 295.113 269.251 302.006V321.55C269.251 328.443 274.858 334.05 281.751 334.05H284.143V417.989H273.221V360.451C273.221 355.686 270.877 349.999 267.523 346.619L210.949 289.611L213.357 287.184C218.189 282.315 218.189 274.391 213.357 269.521L199.841 255.902C197.486 253.528 194.344 252.22 190.995 252.22C187.646 252.22 184.505 253.528 182.15 255.901L168.461 269.695C163.629 274.564 163.629 282.488 168.461 287.358L181.977 300.977C184.332 303.351 187.474 304.659 190.823 304.659C194.172 304.659 197.313 303.351 199.668 300.978L200.382 300.258L256.875 357.184C257.428 357.76 258.208 359.655 258.222 360.451V417.989H242.716V354.999C242.716 353.01 241.926 351.102 240.519 349.696C239.113 348.289 237.205 347.499 235.216 347.499C233.227 347.499 231.319 348.289 229.913 349.696C228.506 351.102 227.716 353.01 227.716 354.999V417.99H205.027V364.337H207.065C213.958 364.337 219.565 358.73 219.565 351.837V332.293C219.565 325.4 213.958 319.793 207.065 319.793H187.99C181.097 319.793 175.49 325.4 175.49 332.293V351.837C175.49 358.73 181.097 364.337 187.99 364.337H190.027V417.99H179.667V386.239C179.667 384.74 179.217 383.275 178.377 382.033C177.536 380.792 176.342 379.831 174.95 379.274C146.466 367.894 122.156 348.4 104.647 322.901C86.726 296.801 77.253 266.161 77.253 234.293C77.253 148.332 146.629 78.398 231.905 78.398C248.65 78.398 264.776 81.109 279.889 86.095L272.215 93.828C267.383 98.697 267.383 106.621 272.215 111.49L282.438 121.794L282.441 121.815L282.386 121.945L279.625 128.683L279.595 128.757H265.204C258.311 128.757 252.704 134.364 252.704 141.257V168.665C252.704 175.558 258.311 181.165 265.204 181.165H279.595L279.625 181.239L282.385 187.975L282.44 188.106C282.44 188.113 282.438 188.119 282.437 188.126L272.214 198.431C267.383 203.299 267.382 211.223 272.214 216.094L291.42 235.451C292.576 236.621 293.953 237.549 295.472 238.181C296.991 238.812 298.62 239.135 300.265 239.13C303.613 239.13 306.754 237.823 309.111 235.449L319.291 225.189L319.365 225.22L326.002 227.982L326.1 228.022L326.106 228.031V242.631C326.106 249.524 331.713 255.131 338.606 255.131H365.729C372.622 255.131 378.229 249.524 378.229 242.631V228.031L378.235 228.022L378.334 227.981L384.972 225.218L385.046 225.187L386.357 226.508C386.485 229.086 386.557 231.68 386.557 234.29C386.557 241.225 386.101 248.198 385.203 255.017C384.943 256.989 385.478 258.983 386.688 260.561C387.899 262.14 389.687 263.172 391.659 263.432C395.767 263.978 399.533 261.083 400.074 256.976C400.859 250.965 401.329 244.916 401.482 238.856C402.325 239.033 403.191 239.129 404.074 239.129C407.422 239.129 410.563 237.822 412.92 235.448L432.127 216.092C436.958 211.223 436.958 203.299 432.126 198.429L421.902 188.128L421.899 188.106L421.953 187.977L424.714 181.239L424.744 181.165H439.135C446.028 181.165 451.635 175.558 451.635 168.665V141.259C451.632 134.366 446.025 128.759 439.132 128.759ZM190.821 288.597L180.828 278.527L190.994 268.284L200.987 278.354L190.821 288.597ZM265.818 496.999H197.989C197.25 496.999 196.625 496.359 196.625 495.602V489.755H267.182V495.602C267.182 496.36 266.557 496.999 265.818 496.999ZM267.182 474.755H196.625V469.262H267.182V474.755ZM284.249 304.507H298.324V319.051H284.249V304.507ZM190.488 334.793H204.563V349.337H190.488V334.793ZM168.187 435.49C168.187 434.135 169.332 432.99 170.687 432.99H293.12C294.475 432.99 295.62 434.135 295.62 435.49V451.761C295.62 453.116 294.475 454.261 293.12 454.261H170.687C169.332 454.261 168.187 453.116 168.187 451.761V435.49ZM436.632 166.167H424.391C418.477 166.167 412.791 170.168 410.765 175.716L408.143 182.116C405.688 187.458 406.876 194.286 411.022 198.464L419.756 207.264L404.072 223.071L395.416 214.346C392.778 211.69 388.976 210.166 384.982 210.166C382.883 210.166 380.833 210.607 379.033 211.445L372.734 214.066C367.21 216.115 363.228 221.802 363.228 227.7V240.133H341.106V227.7C341.106 221.802 337.124 216.115 331.6 214.066L325.299 211.445C323.5 210.608 321.451 210.167 319.353 210.167C315.359 210.167 311.556 211.691 308.917 214.35L300.265 223.071L284.581 207.264L293.316 198.46C297.462 194.283 298.649 187.455 296.193 182.113L293.571 175.715C291.544 170.166 285.859 166.166 279.945 166.166H267.703V143.759H279.945C285.859 143.759 291.545 139.759 293.571 134.209L296.193 127.809C298.648 122.468 297.46 115.639 293.315 111.462L284.581 102.659L300.264 86.856L308.918 95.577C311.556 98.233 315.359 99.758 319.353 99.758C321.451 99.758 323.5 99.317 325.299 98.48L331.6 95.859C337.124 93.81 341.106 88.123 341.106 82.225V69.793H363.229V82.226C363.229 88.123 367.211 93.812 372.736 95.86L379.034 98.48C380.834 99.318 382.884 99.759 384.983 99.759C388.978 99.759 392.781 98.235 395.417 95.577L404.072 86.857L419.756 102.66L411.021 111.462C406.876 115.639 405.688 122.467 408.143 127.808L410.765 134.21C412.792 139.758 418.477 143.759 424.391 143.759H436.632V166.167Z" fill="white"/>
<path d="M401.345 138.666C401.045 137.723 400.561 136.849 399.921 136.094C399.281 135.339 398.498 134.718 397.616 134.267C396.735 133.816 395.774 133.544 394.787 133.466C393.8 133.388 392.808 133.507 391.867 133.815C390.926 134.123 390.056 134.613 389.306 135.259C388.556 135.905 387.941 136.693 387.497 137.578C387.052 138.462 386.788 139.426 386.718 140.413C386.648 141.401 386.774 142.392 387.089 143.33C388.315 147.087 388.936 151.013 388.931 154.964C388.931 175.421 372.439 192.064 352.168 192.064C331.897 192.064 315.406 175.421 315.406 154.964C315.406 134.507 331.897 117.863 352.168 117.863C356.338 117.863 360.426 118.56 364.319 119.935C366.195 120.598 368.257 120.488 370.051 119.63C371.846 118.772 373.226 117.236 373.889 115.361C374.551 113.485 374.441 111.423 373.583 109.629C372.726 107.834 371.19 106.454 369.314 105.791C363.807 103.848 358.008 102.858 352.168 102.863C323.626 102.863 300.406 126.235 300.406 154.964C300.406 183.692 323.626 207.064 352.168 207.064C380.71 207.064 403.931 183.692 403.931 154.964C403.931 149.394 403.061 143.91 401.345 138.666Z" fill="white"/>
<path d="M352.168 128.61C337.715 128.61 325.958 140.432 325.958 154.964C325.958 169.495 337.716 181.318 352.168 181.318C366.621 181.318 378.378 169.496 378.378 154.964C378.379 140.433 366.621 128.61 352.168 128.61ZM352.168 166.317C345.986 166.317 340.958 161.224 340.958 154.963C340.958 148.702 345.987 143.609 352.168 143.609C358.35 143.609 363.378 148.702 363.378 154.963C363.379 161.225 358.35 166.317 352.168 166.317ZM244.75 201.972H225.675C218.782 201.972 213.175 207.579 213.175 214.472V234.016C213.175 240.909 218.782 246.516 225.675 246.516H227.713V292.999C227.713 294.988 228.503 296.896 229.91 298.302C231.316 299.709 233.224 300.499 235.213 300.499C237.202 300.499 239.11 299.709 240.516 298.302C241.923 296.896 242.713 294.988 242.713 292.999V246.516H244.75C251.643 246.516 257.25 240.909 257.25 234.016V214.472C257.25 207.579 251.643 201.972 244.75 201.972ZM242.25 231.516H228.175V216.972H242.25V231.516ZM235.212 0C233.223 0 231.315 0.790176 229.908 2.1967C228.502 3.60322 227.712 5.51088 227.712 7.5V28.398C227.712 30.3871 228.502 32.2948 229.908 33.7013C231.315 35.1078 233.223 35.898 235.212 35.898C237.201 35.898 239.109 35.1078 240.515 33.7013C241.922 32.2948 242.712 30.3871 242.712 28.398V7.5C242.712 5.51088 241.922 3.60322 240.515 2.1967C239.109 0.790176 237.201 0 235.212 0ZM182.139 35.716L176.161 15.696C175.879 14.7521 175.414 13.873 174.793 13.1089C174.171 12.3447 173.405 11.7105 172.538 11.2424C171.672 10.7743 170.721 10.4815 169.742 10.3807C168.762 10.2799 167.772 10.3731 166.828 10.655C165.884 10.9367 165.005 11.4016 164.241 12.0231C163.477 12.6446 162.843 13.4105 162.375 14.2771C161.907 15.1436 161.614 16.0939 161.513 17.0736C161.413 18.0534 161.506 19.0433 161.788 19.987L167.765 40.007C168.335 41.9127 169.638 43.5143 171.388 44.4595C173.138 45.4048 175.192 45.6165 177.098 45.048C179.004 44.479 180.606 43.1761 181.551 41.426C182.496 39.6759 182.708 37.622 182.139 35.716ZM126.203 60.177L114.751 42.723C113.66 41.06 111.952 39.8986 110.005 39.4942C108.057 39.0899 106.029 39.4758 104.366 40.567C102.703 41.6583 101.541 43.3654 101.137 45.313C100.733 47.2605 101.119 49.289 102.21 50.952L113.663 68.405C114.202 69.2291 114.899 69.9387 115.713 70.4932C116.528 71.0478 117.443 71.4363 118.408 71.6367C119.372 71.837 120.367 71.8452 121.334 71.6608C122.302 71.4764 123.224 71.103 124.047 70.562C125.71 69.4707 126.871 67.7636 127.276 65.816C127.68 63.8685 127.294 61.84 126.203 60.177ZM79.6178 99.725L63.6548 86.304C62.901 85.67 62.0298 85.1907 61.0908 84.8935C60.1518 84.5962 59.1634 84.4869 58.1822 84.5717C57.2009 84.6564 56.2459 84.9337 55.3718 85.3876C54.4977 85.8415 53.7216 86.4631 53.0878 87.217C52.4539 87.9708 51.9746 88.8421 51.6775 89.7811C51.3803 90.7202 51.271 91.7086 51.3559 92.6898C51.4408 93.6711 51.7181 94.626 52.1721 95.5001C52.6261 96.3742 53.2478 97.1502 54.0018 97.784L69.9638 111.205C71.3129 112.343 73.0216 112.967 74.7868 112.965C76.3255 112.966 77.8273 112.493 79.0884 111.611C80.3494 110.73 81.3087 109.481 81.8362 108.036C82.3636 106.59 82.4337 105.017 82.0368 103.531C81.64 102.044 80.7955 100.715 79.6178 99.725ZM46.2958 151.029L27.1678 142.773C26.2615 142.37 25.2842 142.15 24.2924 142.127C23.3007 142.104 22.3142 142.278 21.3902 142.639C20.4661 143 19.6228 143.54 18.9092 144.229C18.1955 144.918 17.6256 145.742 17.2325 146.653C16.8393 147.564 16.6308 148.543 16.6189 149.535C16.6071 150.527 16.7921 151.512 17.1633 152.432C17.5345 153.352 18.0846 154.189 18.7815 154.895C19.4785 155.601 20.3086 156.161 21.2238 156.544L40.3518 164.8C41.2887 165.206 42.2988 165.415 43.3198 165.416C45.0456 165.416 46.7188 164.822 48.0571 163.732C49.3955 162.642 50.3171 161.124 50.6667 159.434C51.0163 157.744 50.7724 155.986 49.9762 154.454C49.18 152.923 47.8801 151.713 46.2958 151.029ZM29.0468 209.771L8.36279 207.376C4.24679 206.897 0.526785 209.85 0.0497855 213.964C-0.0635143 214.942 0.0170173 215.934 0.286783 216.881C0.556549 217.828 1.01027 218.713 1.62202 219.485C2.23378 220.257 2.9916 220.901 3.85221 221.38C4.71282 221.859 5.65936 222.164 6.63778 222.277L27.3218 224.672C29.2748 224.856 31.2221 224.267 32.7463 223.032C34.2704 221.797 35.2503 220.014 35.4759 218.066C35.7015 216.117 35.1548 214.157 33.9531 212.607C32.7513 211.057 30.9901 210.039 29.0468 209.771ZM38.0278 277.077C37.8545 276.107 37.4918 275.181 36.9606 274.352C36.4293 273.522 35.7399 272.806 34.9316 272.243C34.1234 271.68 33.2121 271.281 32.2499 271.071C31.2877 270.86 30.2934 270.841 29.3238 271.014L8.82479 274.681C6.86687 275.031 5.12828 276.145 3.99145 277.777C2.85462 279.409 2.41266 281.426 2.76278 283.384C3.11334 285.342 4.22719 287.081 5.85942 288.218C7.49164 289.355 9.50861 289.797 11.4668 289.447L31.9658 285.78C33.9237 285.43 35.6623 284.316 36.7991 282.684C37.936 281.052 38.3779 279.035 38.0278 277.077ZM57.1888 332.898C56.2891 331.124 54.722 329.78 52.8318 329.162C50.9417 328.543 48.8832 328.7 47.1088 329.598L28.5218 339.017C26.7591 339.923 25.4266 341.489 24.8153 343.375C24.204 345.26 24.3637 347.31 25.2595 349.078C26.1553 350.846 27.7143 352.187 29.596 352.809C31.4777 353.431 33.529 353.283 35.3018 352.397L53.8888 342.978C55.6631 342.079 57.0075 340.512 57.6264 338.621C58.2452 336.731 58.0878 334.672 57.1888 332.898ZM91.5068 380.851C90.1357 379.41 88.2484 378.573 86.26 378.523C84.2715 378.474 82.3449 379.216 80.9038 380.587L65.7928 394.966C65.0792 395.645 64.5063 396.458 64.1069 397.358C63.7075 398.259 63.4894 399.229 63.4649 400.214C63.4405 401.198 63.6103 402.178 63.9646 403.097C64.3189 404.016 64.8507 404.856 65.5298 405.57C66.2295 406.308 67.0723 406.895 68.0066 407.295C68.9409 407.696 69.9472 407.902 70.9638 407.9C72.8884 407.902 74.7398 407.162 76.1328 405.834L91.2438 391.455C91.9574 390.776 92.5302 389.963 92.9297 389.063C93.3291 388.162 93.5472 387.192 93.5716 386.207C93.5961 385.223 93.4263 384.243 93.072 383.324C92.7177 382.405 92.1858 381.565 91.5068 380.851ZM175.852 185.052H156.777C149.884 185.052 144.277 190.659 144.277 197.552V217.096C144.277 223.989 149.884 229.596 156.777 229.596H175.852C182.745 229.596 188.352 223.989 188.352 217.096V197.552C188.352 190.659 182.745 185.052 175.852 185.052ZM173.352 214.596H159.277V200.052H173.352V214.596ZM210.066 127.571H190.991C184.098 127.571 178.491 133.178 178.491 140.071V159.615C178.491 166.508 184.098 172.115 190.991 172.115H210.066C216.959 172.115 222.566 166.508 222.566 159.615V140.071C222.566 133.178 216.959 127.571 210.066 127.571ZM207.566 157.115H193.491V142.571H207.566V157.115Z" fill="white"/>
</svg>
