<svg width="512" height="512" viewBox="0 0 512 512" fill="none" xmlns="http://www.w3.org/2000/svg">
<path d="M470.919 36.9399H405.478C403.489 36.9399 401.581 37.7301 400.175 39.1366C398.768 40.5431 397.978 42.4508 397.978 44.4399C397.978 46.429 398.768 48.3367 400.175 49.7432C401.581 51.1497 403.489 51.9399 405.478 51.9399H470.919C472.908 51.9399 474.816 51.1497 476.222 49.7432C477.629 48.3367 478.419 46.429 478.419 44.4399C478.419 42.4508 477.629 40.5431 476.222 39.1366C474.816 37.7301 472.908 36.9399 470.919 36.9399ZM368.316 51.9399H376.293C378.282 51.9399 380.19 51.1497 381.596 49.7432C383.003 48.3367 383.793 46.429 383.793 44.4399C383.793 42.4508 383.003 40.5431 381.596 39.1366C380.19 37.7301 378.282 36.9399 376.293 36.9399H368.316C366.327 36.9399 364.419 37.7301 363.013 39.1366C361.606 40.5431 360.816 42.4508 360.816 44.4399C360.816 46.429 361.606 48.3367 363.013 49.7432C364.419 51.1497 366.327 51.9399 368.316 51.9399ZM368.316 87.1719H470.92C472.909 87.1719 474.817 86.3817 476.223 84.9752C477.63 83.5687 478.42 81.661 478.42 79.6719C478.42 77.6828 477.63 75.7751 476.223 74.3686C474.817 72.9621 472.909 72.1719 470.92 72.1719H368.316C366.327 72.1719 364.419 72.9621 363.013 74.3686C361.606 75.7751 360.816 77.6828 360.816 79.6719C360.816 81.661 361.606 83.5687 363.013 84.9752C364.419 86.3817 366.327 87.1719 368.316 87.1719ZM395.443 443.788C395.443 413.829 385.441 384.438 367.223 360.691L368.613 335.086C369.559 317.656 355.727 302.91 338.135 302.91H256.037C254.164 301.59 252.635 299.84 251.579 297.806C250.523 295.773 249.971 293.515 249.969 291.224V270.283C262.698 262.051 271.635 252.663 278.2 241.491H292.714C309.505 241.491 323.165 227.831 323.165 211.04V155.028C323.165 145.581 317.7 137.23 309.527 133.279V93.9689C309.527 76.0729 294.968 61.5129 277.072 61.5129H276.231C275.985 61.5124 275.749 61.4144 275.575 61.2405C275.401 61.0666 275.304 60.8309 275.303 60.5849C275.303 42.6889 260.743 28.1289 242.847 28.1289H163.418C123.991 28.1289 91.914 60.2059 91.914 99.6329V133.278C83.742 137.229 78.276 145.58 78.276 155.027V183.513C78.276 196.841 89.119 207.684 102.447 207.684H112.129C114.635 228.88 124.578 248.238 140.152 261.696C143.726 264.786 147.508 267.625 151.472 270.195V291.223C151.472 295.891 149.172 300.227 145.378 302.909H63.309C45.853 302.909 31.878 317.519 32.832 335.085L34.222 360.69C16.003 384.438 6.001 413.829 6.001 443.788V472.037C2.272 476.216 0 481.721 0 487.749C0 500.777 10.599 511.375 23.627 511.375H377.817C390.845 511.375 401.444 500.776 401.444 487.749C401.444 481.721 399.172 476.216 395.443 472.038V443.788ZM380.443 443.788V464.271C379.571 464.173 378.694 464.123 377.817 464.122H361.609L365.842 386.132C375.335 403.763 380.443 423.626 380.443 443.788ZM307.396 151.366C307.903 152.521 308.166 153.768 308.167 155.029V183.515C308.167 188.572 304.053 192.686 298.996 192.686H290.077V164.413L294.699 162.803C300.417 160.811 304.914 156.611 307.396 151.366ZM257.323 238.264H238.501C235.467 238.264 232.998 235.796 232.998 232.762C232.998 229.728 235.467 227.26 238.501 227.26H257.323C260.357 227.26 262.825 229.728 262.825 232.762C262.825 235.796 260.357 238.264 257.323 238.264ZM292.716 226.492H285.135C287.264 220.401 288.719 214.094 289.474 207.686H298.996C302.241 207.686 305.337 207.039 308.167 205.874V211.042C308.167 219.561 301.235 226.492 292.716 226.492ZM106.916 99.6349C106.916 68.4789 132.264 43.1309 163.42 43.1309H242.849C252.474 43.1309 260.305 50.9619 260.305 60.5869C260.305 69.3699 267.451 76.5149 276.233 76.5149H277.074C286.699 76.5149 294.529 84.3459 294.529 93.9709V141.934C294.528 143.408 294.069 144.845 293.215 146.046C292.361 147.247 291.155 148.153 289.764 148.639L274.003 154.128C273.856 154.18 273.699 154.196 273.545 154.175C273.391 154.153 273.244 154.095 273.118 154.004C272.991 153.914 272.888 153.794 272.818 153.655C272.747 153.516 272.711 153.363 272.713 153.207L272.742 123.403C272.833 101.652 252.466 82.6819 223.93 91.8479C209.578 96.4599 191.817 96.4439 177.513 91.8479C149.273 82.7719 128.61 101.405 128.701 123.38L128.736 153.209C128.737 153.364 128.701 153.518 128.631 153.656C128.56 153.795 128.457 153.914 128.331 154.005C128.204 154.095 128.057 154.153 127.903 154.175C127.749 154.196 127.592 154.18 127.446 154.128L111.68 148.638C110.289 148.152 109.082 147.246 108.229 146.045C107.375 144.844 106.916 143.407 106.915 141.933L106.916 99.6349ZM93.278 183.515V155.028C93.2793 153.767 93.5418 152.52 94.049 151.365C96.532 156.611 101.029 160.811 106.749 162.803L111.37 164.412V192.685H102.45C97.392 192.686 93.278 188.571 93.278 183.515ZM126.507 199.023C126.258 189.163 126.411 178.697 126.369 169.115C126.831 169.155 127.294 169.178 127.757 169.178C136.674 169.178 143.751 161.93 143.736 153.187L143.701 123.339C143.65 111.161 154.574 100.23 172.924 106.128C190.316 111.716 211.184 111.699 228.519 106.128C246.002 100.511 257.796 110.4 257.742 123.364L257.713 153.189C257.701 162.485 265.647 169.933 275.075 169.115V199.63C274.86 206.012 273.82 212.339 271.98 218.454C268.255 214.638 263.064 212.259 257.323 212.259H238.501C227.196 212.259 217.998 221.456 217.998 232.761C217.998 244.066 227.196 253.263 238.501 253.263H248.03C234.177 264.076 218.424 269.714 201.115 270.001C163.251 269.698 127.59 241.725 126.507 199.023ZM166.475 291.225V278.102C177.316 282.591 188.881 284.917 201.095 285.003H201.148L201.265 285.002C213.156 284.817 224.414 282.513 234.972 278.163V291.224C234.972 295.319 235.829 299.283 237.407 302.91H164.031C165.642 299.225 166.474 295.247 166.475 291.225ZM35.602 386.132L36.786 407.953C37.011 412.09 40.554 415.271 44.681 415.036C46.6672 414.928 48.5293 414.036 49.8576 412.555C51.1859 411.075 51.8717 409.127 51.764 407.141L47.809 334.274C47.328 325.41 54.362 317.911 63.309 317.911H338.136C347.017 317.911 354.12 325.343 353.636 334.274L346.588 464.123H228.98C230.413 455.556 234.271 447.498 240.214 440.896L240.429 440.656C263.131 415.258 256.336 375.542 226.992 358.868C219.462 354.59 209.899 359.925 209.899 368.794V402.824C209.898 403.574 209.6 404.293 209.069 404.823C208.539 405.353 207.82 405.651 207.07 405.652H194.374C193.624 405.651 192.905 405.353 192.375 404.823C191.844 404.293 191.546 403.574 191.545 402.824V368.794C191.545 359.942 181.997 354.581 174.452 358.868C145.024 375.588 138.367 415.319 161.038 440.681L161.23 440.896C167.173 447.497 171.031 455.555 172.464 464.122H54.857L53.654 441.949C53.43 437.813 49.895 434.638 45.759 434.866C43.7728 434.974 41.9107 435.866 40.5824 437.346C39.2541 438.827 38.5683 440.775 38.676 442.761L39.835 464.122H23.627C22.739 464.122 21.864 464.176 21.001 464.271V443.788C21.001 423.627 26.11 403.763 35.602 386.132ZM187.619 464.122C186.084 451.833 180.816 440.232 172.38 430.861L172.199 430.658C157.708 414.448 159.649 389.381 176.546 375.556V402.823C176.546 412.654 184.544 420.651 194.375 420.651H207.071C216.902 420.651 224.9 412.653 224.9 402.823V375.556C241.685 389.289 243.835 414.338 229.228 430.679L229.066 430.86C220.629 440.232 215.361 451.833 213.826 464.122H187.619ZM377.817 496.376H23.627C18.87 496.376 15 492.506 15 487.75C15 482.994 18.87 479.123 23.627 479.123H377.817C382.574 479.123 386.444 482.993 386.444 487.75C386.444 492.507 382.574 496.376 377.817 496.376Z" fill="white"/>
<path d="M504.5 51.327C506.489 51.327 508.397 50.5368 509.803 49.1303C511.21 47.7238 512 45.8161 512 43.827V29.311C512 13.149 498.851 0 482.688 0H356.547C340.384 0 327.235 13.149 327.235 29.311V92.399C327.235 108.562 340.384 121.711 356.547 121.711C357.936 121.713 359.267 122.265 360.249 123.247C361.231 124.229 361.783 125.56 361.785 126.949V165.964C361.785 171.599 365.433 176.395 370.864 177.898C376.327 179.41 381.907 177.136 384.788 172.332L413.618 124.255C414.085 123.481 414.744 122.84 415.531 122.395C416.318 121.949 417.207 121.714 418.111 121.711H482.689C498.852 121.711 512.001 108.562 512.001 92.399V78.891C512.001 76.9019 511.211 74.9942 509.804 73.5877C508.398 72.1812 506.49 71.391 504.501 71.391C502.512 71.391 500.604 72.1812 499.198 73.5877C497.791 74.9942 497.001 76.9019 497.001 78.891V92.399C497.001 100.291 490.581 106.711 482.689 106.711H418.11C411.04 106.711 404.389 110.478 400.753 116.541L376.784 156.511V126.949C376.784 115.79 367.705 106.711 356.546 106.711C348.654 106.711 342.234 100.291 342.234 92.399V29.311C342.234 21.42 348.654 15 356.546 15H482.688C490.58 15 497 21.42 497 29.311V43.827C497 45.8161 497.79 47.7238 499.197 49.1303C500.603 50.5368 502.511 51.327 504.5 51.327Z" fill="white"/>
</svg>
