<svg width="480" height="455" viewBox="0 0 480 455" fill="none" xmlns="http://www.w3.org/2000/svg">
<path d="M393.326 288.506H393.414C393.99 288.495 394.558 288.37 395.086 288.139C395.614 287.908 396.092 287.575 396.491 287.159C396.891 286.743 397.204 286.253 397.414 285.716C397.624 285.179 397.726 284.606 397.714 284.03L397.378 266.724C397.333 264.128 397.963 261.564 399.207 259.285C400.451 257.005 402.265 255.087 404.473 253.72L420.871 243.619C421.863 243.008 422.571 242.03 422.84 240.897C423.11 239.765 422.919 238.572 422.309 237.581C421.699 236.589 420.72 235.881 419.587 235.611C418.455 235.342 417.262 235.533 416.271 236.143L399.872 246.244C396.366 248.415 393.484 251.459 391.509 255.079C389.534 258.699 388.535 262.77 388.608 266.893L388.944 284.198C388.962 285.348 389.431 286.445 390.251 287.251C391.071 288.057 392.176 288.508 393.326 288.506Z" fill="white"/>
<path d="M476.409 180.363L380.233 121.139V27.4286C380.223 20.157 377.331 13.1861 372.189 8.04433C367.047 2.90257 360.076 0.00967605 352.805 0H126.164C118.893 0.00967605 111.922 2.90257 106.78 8.04433C101.638 13.1861 98.7452 20.157 98.7355 27.4286V121.139L2.60389 180.363C1.83621 180.875 1.2003 181.562 0.747845 182.366C0.295391 183.171 0.0391669 184.071 0 184.993V285.659C5.40049e-05 286.606 0.245294 287.537 0.711853 288.362C1.17841 289.186 1.85039 289.875 2.6624 290.363L95.6855 346.244V427.067C95.6952 434.338 98.5881 441.309 103.73 446.451C108.872 451.593 115.843 454.485 123.114 454.495H354.706C361.978 454.485 368.949 451.593 374.091 446.451C379.232 441.309 382.125 434.338 382.135 427.067V346.266L476.328 290.377C477.147 289.892 477.825 289.201 478.296 288.374C478.766 287.547 479.014 286.611 479.013 285.659V185.008C479.001 184.078 478.756 183.165 478.301 182.354C477.846 181.543 477.196 180.858 476.409 180.363ZM95.6782 333.444L10.9641 282.558V195.028L95.6782 248.905V333.444ZM101.259 239.448L15.8208 185.11L98.7429 134.027V185.037C98.7429 186.492 99.3208 187.887 100.35 188.916C101.378 189.945 102.774 190.523 104.229 190.523C105.683 190.523 107.079 189.945 108.108 188.916C109.136 187.887 109.714 186.492 109.714 185.037V134.027L192.446 184.964L192.263 185.073L101.259 239.448ZM197.53 194.706V282.456L106.65 333.744V249.008L197.53 194.706ZM371.163 427.067C371.163 436.144 363.776 443.524 354.706 443.524H123.107C118.744 443.518 114.561 441.782 111.476 438.697C108.391 435.612 106.655 431.429 106.65 427.067V346.346L205.707 290.443C206.554 289.966 207.259 289.272 207.75 288.433C208.241 287.594 208.5 286.639 208.501 285.667V185.037C208.501 183.055 206.629 180.824 205.897 180.363L109.714 121.139V27.4286C109.714 18.3515 117.102 10.9714 126.171 10.9714H352.805C361.874 10.9714 369.262 18.3515 369.262 27.4286V121.139L273.123 180.363C272.391 180.816 270.519 182.835 270.519 185.037V285.659C270.519 286.626 270.775 287.576 271.261 288.412C271.746 289.248 272.444 289.941 273.284 290.421L371.163 346.324V427.067ZM371.163 333.692L281.49 282.478V194.765L371.163 248.986V333.692ZM376.591 239.448L286.53 184.993L369.262 134.027V185.037C369.262 186.492 369.84 187.887 370.868 188.916C371.897 189.945 373.293 190.523 374.747 190.523C376.202 190.523 377.598 189.945 378.626 188.916C379.655 187.887 380.233 186.492 380.233 185.037V134.027L463.148 185.081L376.591 239.448ZM468.048 282.536L382.135 333.509V248.934L468.041 194.97L468.048 282.536Z" fill="white"/>
<path d="M122.156 288.506H122.244C122.82 288.495 123.388 288.37 123.916 288.139C124.445 287.908 124.922 287.575 125.321 287.159C125.721 286.743 126.034 286.253 126.244 285.716C126.454 285.179 126.556 284.606 126.544 284.03L126.208 266.724C126.163 264.128 126.793 261.564 128.037 259.285C129.281 257.005 131.095 255.087 133.303 253.72L149.701 243.619C150.693 243.008 151.401 242.03 151.671 240.897C151.94 239.765 151.749 238.572 151.139 237.581C150.529 236.589 149.55 235.881 148.417 235.611C147.285 235.342 146.092 235.533 145.101 236.143L128.702 246.244C125.196 248.415 122.314 251.459 120.339 255.079C118.365 258.699 117.365 262.77 117.438 266.893L117.775 284.198C117.794 285.347 118.264 286.443 119.083 287.249C119.903 288.055 121.006 288.506 122.156 288.506Z" fill="white"/>
</svg>
