<svg width="512" height="418" viewBox="0 0 512 418" fill="none" xmlns="http://www.w3.org/2000/svg">
<path d="M488.043 41.227H422.947C409.159 16.651 382.857 0 352.728 0C322.599 0 296.296 16.65 282.508 41.227H110C105.858 41.227 102.5 44.584 102.5 48.727C102.5 52.87 105.858 56.227 110 56.227H268.39C257.083 67.276 247.928 80.516 241.624 95.257H15V65.184C15 60.246 19.018 56.227 23.957 56.227H75C79.142 56.227 82.5 52.87 82.5 48.727C82.5 44.584 79.142 41.227 75 41.227H23.957C10.747 41.227 0 51.974 0 65.184V393.497C0 406.707 10.747 417.454 23.957 417.454H402C406.142 417.454 409.5 414.097 409.5 409.954C409.5 405.811 406.142 402.454 402 402.454H23.957C19.018 402.454 15 398.435 15 393.497V110.257H236.35C233.429 120.774 231.951 131.639 231.957 142.554C231.957 209.148 286.135 263.326 352.728 263.326C411.261 263.326 461.249 221.576 471.589 164.054C471.763 163.085 471.745 162.09 471.535 161.128C471.325 160.166 470.927 159.254 470.365 158.445C469.803 157.637 469.087 156.947 468.258 156.415C467.429 155.883 466.503 155.519 465.534 155.345C464.565 155.171 463.57 155.189 462.608 155.399C461.646 155.609 460.734 156.007 459.925 156.569C459.117 157.131 458.427 157.847 457.895 158.676C457.363 159.505 456.999 160.431 456.825 161.4C454.346 175.261 449.112 188.484 441.434 200.288C437.381 183.651 428.721 168.438 416.135 156.295C411.58 151.905 406.582 148 401.222 144.641C420.633 129.935 433.2 106.647 433.2 80.473C433.2 78.171 433.08 75.897 432.89 73.643C445.957 88.788 454.851 107.704 457.596 128.699C458.133 132.806 461.9 135.703 466.005 135.163C467.977 134.905 469.766 133.874 470.979 132.297C472.191 130.72 472.727 128.726 472.469 126.754C471.838 121.946 470.916 117.18 469.709 112.483H497V393.497C497 398.435 492.982 402.454 488.043 402.454H437C432.858 402.454 429.5 405.811 429.5 409.954C429.5 414.097 432.858 417.454 437 417.454H488.043C501.253 417.454 512 406.707 512 393.497V65.184C512 51.974 501.253 41.227 488.043 41.227ZM264.055 200.148C253.247 183.565 246.957 163.782 246.957 142.554C246.957 116.247 256.616 92.157 272.567 73.631C272.367 75.9063 272.263 78.189 272.256 80.473C272.256 106.648 284.824 129.936 304.234 144.641C298.873 148 293.876 151.905 289.321 156.295C276.77 168.404 268.123 183.566 264.055 200.148ZM428.927 215.974C409.552 236.061 382.403 248.327 352.729 248.327C322.876 248.327 295.877 235.892 276.627 215.934C278.805 188.272 295.472 165.029 318.985 153.502C329.556 158.413 341.073 160.954 352.729 160.946C364.375 160.954 375.883 158.418 386.447 153.515C409.81 165.073 426.526 188.592 428.927 215.974ZM352.729 145.946C316.627 145.946 287.256 116.575 287.256 80.473C287.256 44.371 316.627 15 352.729 15C388.831 15 418.202 44.371 418.202 80.473C418.202 116.575 388.831 145.946 352.729 145.946ZM497 95.257H463.86C457.543 80.468 448.367 67.243 437.066 56.227H488.042C492.981 56.227 496.999 60.246 496.999 65.184V95.257H497Z" fill="white"/>
<path d="M356.3 32.3749C347.31 31.3879 338.319 34.2509 331.629 40.2429C328.317 43.2119 325.667 46.8452 323.852 50.9061C322.037 54.9671 321.097 59.3648 321.094 63.8129C321.094 67.9559 324.452 71.3129 328.594 71.3129C332.736 71.3129 336.094 67.9559 336.094 63.8129C336.094 59.0889 338.114 54.5709 341.636 51.4159C345.205 48.2189 349.828 46.7479 354.653 47.2849C362.273 48.1269 368.415 54.2679 369.257 61.8889C370.212 70.5369 364.558 78.3689 356.104 80.1069C349.803 81.4029 345.229 87.0029 345.229 93.4219V102.801C345.229 106.944 348.587 110.301 352.729 110.301C356.871 110.301 360.229 106.944 360.229 102.801V94.5529C375.701 90.8069 385.936 76.2589 384.167 60.2419C382.56 45.7019 370.84 33.9819 356.3 32.3749ZM352.729 117.58C350.74 117.58 348.832 118.37 347.426 119.777C346.019 121.183 345.229 123.091 345.229 125.08V126.317C345.229 130.46 348.587 133.817 352.729 133.817C356.871 133.817 360.229 130.46 360.229 126.317V125.08C360.229 123.091 359.439 121.183 358.032 119.777C356.626 118.37 354.718 117.58 352.729 117.58ZM47.5449 169.226H173.715C177.857 169.226 181.215 165.869 181.215 161.726C181.215 157.583 177.857 154.226 173.715 154.226H47.5449C43.4029 154.226 40.0449 157.583 40.0449 161.726C40.0449 165.869 43.4029 169.226 47.5449 169.226ZM47.5449 215.226H219C223.142 215.226 226.5 211.869 226.5 207.726C226.5 203.583 223.142 200.226 219 200.226H47.5449C43.4029 200.226 40.0449 203.583 40.0449 207.726C40.0449 211.869 43.4029 215.226 47.5449 215.226ZM47.5449 261.226H219C223.142 261.226 226.5 257.869 226.5 253.726C226.5 249.583 223.142 246.226 219 246.226H47.5449C43.4029 246.226 40.0449 249.583 40.0449 253.726C40.0449 257.869 43.4029 261.226 47.5449 261.226ZM47.5449 307.226H462.26C466.402 307.226 469.76 303.869 469.76 299.726C469.76 295.583 466.402 292.226 462.26 292.226H47.5449C43.4029 292.226 40.0449 295.583 40.0449 299.726C40.0449 303.869 43.4029 307.226 47.5449 307.226ZM47.5449 353.226H462.26C466.402 353.226 469.76 349.869 469.76 345.726C469.76 341.583 466.402 338.226 462.26 338.226H47.5449C43.4029 338.226 40.0449 341.583 40.0449 345.726C40.0449 349.869 43.4029 353.226 47.5449 353.226Z" fill="white"/>
<path d="M157.5 82.7266C161.642 82.7266 165 79.3687 165 75.2266C165 71.0844 161.642 67.7266 157.5 67.7266C153.358 67.7266 150 71.0844 150 75.2266C150 79.3687 153.358 82.7266 157.5 82.7266Z" fill="white"/>
<path d="M131.5 82.7266C135.642 82.7266 139 79.3687 139 75.2266C139 71.0844 135.642 67.7266 131.5 67.7266C127.358 67.7266 124 71.0844 124 75.2266C124 79.3687 127.358 82.7266 131.5 82.7266Z" fill="white"/>
<path d="M105.5 82.7266C109.642 82.7266 113 79.3687 113 75.2266C113 71.0844 109.642 67.7266 105.5 67.7266C101.358 67.7266 98 71.0844 98 75.2266C98 79.3687 101.358 82.7266 105.5 82.7266Z" fill="white"/>
<path d="M79.5 82.7266C83.6421 82.7266 87 79.3687 87 75.2266C87 71.0844 83.6421 67.7266 79.5 67.7266C75.3579 67.7266 72 71.0844 72 75.2266C72 79.3687 75.3579 82.7266 79.5 82.7266Z" fill="white"/>
<path d="M53.5 82.7266C57.6421 82.7266 61 79.3687 61 75.2266C61 71.0844 57.6421 67.7266 53.5 67.7266C49.3579 67.7266 46 71.0844 46 75.2266C46 79.3687 49.3579 82.7266 53.5 82.7266Z" fill="white"/>
</svg>
