<svg width="480" height="480" viewBox="0 0 480 480" fill="none" xmlns="http://www.w3.org/2000/svg">
<path d="M389.016 149.406L338.136 98.5263C337.088 97.4693 335.765 96.7258 334.318 96.3794C332.87 96.033 331.354 96.0974 329.941 96.5654C328.528 97.0334 327.273 97.8865 326.318 99.0286C325.363 100.171 324.746 101.557 324.536 103.03C323.695 108.913 321.232 114.445 317.424 119.007C313.616 123.569 308.613 126.98 302.975 128.859C297.338 130.737 291.288 131.009 285.505 129.644C279.722 128.278 274.433 125.329 270.231 121.127C266.029 116.926 263.08 111.637 261.715 105.853C260.349 100.07 260.621 94.0206 262.5 88.383C264.378 82.7454 267.79 77.7424 272.352 73.9343C276.913 70.1262 282.445 67.6636 288.328 66.8223C289.802 66.6121 291.188 65.9949 292.33 65.0401C293.472 64.0852 294.325 62.8307 294.793 61.4175C295.261 60.0043 295.325 58.4886 294.979 57.0408C294.632 55.593 293.889 54.2706 292.832 53.2223L241.952 2.34229C240.452 0.842522 238.417 0 236.296 0C234.175 0 232.14 0.842522 230.64 2.34229L186.456 46.5103C184.28 38.3678 179.999 30.9416 174.043 24.9786C168.087 19.0156 160.666 14.726 152.526 12.5412C144.386 10.3564 135.814 10.3533 127.672 12.5324C119.531 14.7115 112.107 18.9958 106.146 24.9546C100.186 30.9134 95.8994 38.3365 93.7181 46.4774C91.5368 54.6184 91.5375 63.1902 93.7201 71.3308C95.9028 79.4714 100.19 86.8938 106.152 92.8516C112.113 98.8094 119.538 103.093 127.68 105.27L83.544 149.406C82.0442 150.907 81.2017 152.941 81.2017 155.062C81.2017 157.184 82.0442 159.218 83.544 160.718L127.696 204.926C118.004 207.53 109.371 213.106 103.013 220.871C96.654 228.635 92.889 238.197 92.2471 248.213C91.6052 258.228 94.1187 268.193 99.4341 276.705C104.749 285.218 112.599 291.851 121.88 295.67L103.2 349.55C100.718 355.141 99.5522 361.226 99.7907 367.338C100.029 373.45 101.666 379.426 104.576 384.806L132.656 451.206C132.76 451.462 132.88 451.71 133.016 451.95C134.983 455.555 136.009 459.596 136 463.702V471.382C136 473.504 136.843 475.539 138.343 477.039C139.843 478.539 141.878 479.382 144 479.382C146.122 479.382 148.157 478.539 149.657 477.039C151.157 475.539 152 473.504 152 471.382V463.702C151.991 457.047 150.343 450.497 147.2 444.63L119.112 378.23C119.001 377.956 118.872 377.689 118.728 377.43C116.894 374.084 115.875 370.352 115.753 366.538C115.631 362.724 116.409 358.935 118.024 355.478L137.592 299.158C138.432 299.158 139.256 299.278 140.104 299.278C150.663 299.288 160.929 295.809 169.306 289.383C177.684 282.956 183.705 273.943 186.432 263.742L200 277.254V359.382C200 361.504 200.843 363.539 202.343 365.039C203.843 366.539 205.878 367.382 208 367.382C210.122 367.382 212.157 366.539 213.657 365.039C215.157 363.539 216 361.504 216 359.382V247.382C216 241.017 218.529 234.913 223.029 230.412C227.53 225.911 233.635 223.382 240 223.382C246.365 223.382 252.47 225.911 256.971 230.412C261.471 234.913 264 241.017 264 247.382V344.27C264.014 355.446 266.615 366.467 271.6 376.47L274.528 382.342C278.399 390.122 280.414 398.693 280.414 407.382C280.414 416.072 278.399 424.643 274.528 432.422L266.528 448.422C264.867 451.758 264.002 455.432 264 459.158V471.382C264 473.504 264.843 475.539 266.343 477.039C267.843 478.539 269.878 479.382 272 479.382C274.122 479.382 276.157 478.539 277.657 477.039C279.157 475.539 280 473.504 280 471.382V459.158C279.992 457.921 280.265 456.698 280.8 455.582L288.8 439.582C293.776 429.579 296.366 418.559 296.366 407.386C296.366 396.214 293.776 385.193 288.8 375.19L285.872 369.318C283.004 363.558 281.145 357.347 280.376 350.958C285.572 356.173 291.748 360.309 298.548 363.127C305.348 365.946 312.639 367.392 320 367.382C326.365 367.382 332.47 364.854 336.971 360.353C341.471 355.852 344 349.747 344 343.382V297.782C354.325 295.227 363.508 289.312 370.104 280.967C376.699 272.622 380.332 262.321 380.432 251.684C380.532 241.048 377.093 230.68 370.655 222.213C364.218 213.745 355.148 207.659 344.872 204.91L389.016 160.702C390.511 159.203 391.35 157.172 391.35 155.054C391.35 152.937 390.511 150.906 389.016 149.406ZM320 351.382C309.395 351.37 299.228 347.151 291.73 339.653C284.231 332.154 280.013 321.987 280 311.382V269.782L286.112 263.67C288.633 273.144 294.002 281.616 301.494 287.939C308.985 294.263 318.237 298.135 328 299.03V343.382C328 345.504 327.157 347.539 325.657 349.039C324.157 350.539 322.122 351.382 320 351.382ZM321.144 206.046C319.943 207.233 319.149 208.769 318.875 210.435C318.6 212.101 318.86 213.811 319.616 215.32C320.373 216.829 321.587 218.061 323.086 218.838C324.584 219.615 326.291 219.898 327.96 219.646C334.606 218.706 341.38 219.879 347.323 223C353.266 226.121 358.077 231.032 361.075 237.038C364.073 243.044 365.107 249.841 364.029 256.467C362.952 263.092 359.818 269.211 355.072 273.958C350.325 278.705 344.206 281.838 337.58 282.916C330.955 283.993 324.158 282.96 318.152 279.962C312.146 276.963 307.235 272.153 304.114 266.21C300.993 260.267 299.819 253.493 300.76 246.846C301.011 245.177 300.728 243.471 299.951 241.972C299.174 240.473 297.943 239.259 296.434 238.503C294.924 237.746 293.215 237.487 291.549 237.761C289.883 238.035 288.347 238.83 287.16 240.03L280 247.206C279.977 236.598 275.74 226.433 268.222 218.948C260.704 211.463 250.521 207.271 239.912 207.294C229.303 207.318 219.138 211.554 211.654 219.072C204.169 226.59 199.977 236.774 200 247.382V254.63L185.336 239.966C184.149 238.766 182.613 237.971 180.947 237.697C179.281 237.423 177.572 237.682 176.062 238.439C174.553 239.195 173.322 240.409 172.545 241.908C171.768 243.407 171.485 245.113 171.736 246.782C172.677 253.429 171.503 260.203 168.382 266.146C165.261 272.089 160.35 276.899 154.344 279.898C148.338 282.896 141.541 283.929 134.916 282.852C128.29 281.774 122.171 278.641 117.424 273.894C112.678 269.147 109.544 263.028 108.467 256.403C107.389 249.777 108.423 242.98 111.421 236.974C114.419 230.968 119.23 226.057 125.173 222.936C131.116 219.815 137.89 218.642 144.536 219.582C146.206 219.836 147.914 219.554 149.414 218.778C150.914 218.002 152.13 216.771 152.888 215.261C153.645 213.751 153.905 212.04 153.631 210.373C153.357 208.707 152.562 207.17 151.36 205.982L100.504 155.062L151.416 104.182C152.617 102.995 153.411 101.459 153.685 99.7935C153.96 98.1277 153.7 96.4179 152.944 94.9086C152.187 93.3993 150.973 92.168 149.474 91.391C147.975 90.6139 146.269 90.3308 144.6 90.5823C137.962 91.51 131.201 90.3301 125.27 87.2092C119.338 84.0882 114.537 79.1837 111.542 73.1876C108.548 67.1916 107.512 60.4066 108.58 53.7901C109.648 47.1735 112.767 41.0594 117.496 36.3103C123.595 30.4999 131.696 27.2589 140.12 27.2589C148.544 27.2589 156.645 30.4999 162.744 36.3103C166.245 39.8204 168.882 44.0958 170.448 48.7994C172.014 53.5031 172.466 58.5062 171.768 63.4143C171.517 65.0837 171.8 66.7898 172.577 68.2885C173.354 69.7872 174.585 71.0017 176.094 71.7581C177.604 72.5145 179.313 72.7741 180.979 72.4996C182.645 72.2252 184.181 71.4309 185.368 70.2303L236.32 19.3343L272.168 55.1903C265.239 58.4997 259.204 63.4233 254.572 69.5477C249.94 75.6722 246.844 82.8186 245.546 90.3871C244.247 97.9556 244.783 105.725 247.109 113.043C249.435 120.362 253.483 127.015 258.913 132.445C264.343 137.875 270.997 141.923 278.315 144.249C285.633 146.575 293.403 147.111 300.971 145.813C308.54 144.514 315.686 141.419 321.811 136.786C327.935 132.154 332.859 126.12 336.168 119.19L372.024 155.038L321.144 206.046ZM472 167.382H424C421.878 167.382 419.843 166.539 418.343 165.039C416.843 163.539 416 161.504 416 159.382C416 157.261 416.843 155.226 418.343 153.725C419.843 152.225 421.878 151.382 424 151.382H472C474.122 151.382 476.157 152.225 477.657 153.725C479.157 155.226 480 157.261 480 159.382C480 161.504 479.157 163.539 477.657 165.039C476.157 166.539 474.122 167.382 472 167.382ZM415.352 75.3823C413.591 75.3822 411.879 74.8011 410.482 73.729C409.085 72.657 408.081 71.1539 407.625 69.4529C407.169 67.7519 407.287 65.948 407.961 64.321C408.635 62.6941 409.827 61.3349 411.352 60.4543L452.952 36.4543C454.788 35.4102 456.963 35.1348 459.002 35.6883C461.041 36.2418 462.778 37.5792 463.834 39.4087C464.89 41.2382 465.18 43.4113 464.64 45.4536C464.1 47.496 462.774 49.2419 460.952 50.3103L419.352 74.3103C418.137 75.0153 416.757 75.3853 415.352 75.3823ZM456.912 283.382C455.507 283.385 454.127 283.015 452.912 282.31L411.312 258.31C410.395 257.789 409.59 257.091 408.943 256.257C408.297 255.423 407.822 254.47 407.546 253.452C407.269 252.434 407.197 251.371 407.333 250.325C407.469 249.278 407.81 248.269 408.338 247.356C408.865 246.442 409.568 245.642 410.407 245.001C411.245 244.36 412.201 243.891 413.221 243.621C414.241 243.352 415.304 243.287 416.35 243.43C417.395 243.572 418.402 243.921 419.312 244.454L460.912 268.454C462.437 269.335 463.629 270.694 464.303 272.321C464.977 273.948 465.095 275.752 464.639 277.453C464.183 279.154 463.179 280.657 461.782 281.729C460.385 282.801 458.673 283.382 456.912 283.382ZM56 167.382H8C5.87827 167.382 3.84344 166.539 2.34315 165.039C0.842854 163.539 0 161.504 0 159.382C0 157.261 0.842854 155.226 2.34315 153.725C3.84344 152.225 5.87827 151.382 8 151.382H56C58.1217 151.382 60.1566 152.225 61.6569 153.725C63.1571 155.226 64 157.261 64 159.382C64 161.504 63.1571 163.539 61.6569 165.039C60.1566 166.539 58.1217 167.382 56 167.382ZM64.648 75.3823C63.2433 75.3853 61.863 75.0153 60.648 74.3103L19.048 50.3103C17.2255 49.2419 15.8997 47.496 15.3597 45.4536C14.8197 43.4113 15.1095 41.2382 16.1658 39.4087C17.2221 37.5792 18.9591 36.2418 20.9979 35.6883C23.0366 35.1348 25.2115 35.4102 27.048 36.4543L68.648 60.4543C70.173 61.3349 71.3649 62.6941 72.0388 64.321C72.7126 65.948 72.8308 67.7519 72.375 69.4529C71.9193 71.1539 70.9149 72.657 69.5179 73.729C68.1208 74.8011 66.409 75.3822 64.648 75.3823ZM23.088 283.382C21.327 283.382 19.6152 282.801 18.2181 281.729C16.8211 280.657 15.8167 279.154 15.361 277.453C14.9052 275.752 15.0234 273.948 15.6972 272.321C16.3711 270.694 17.563 269.335 19.088 268.454L60.688 244.454C61.5982 243.921 62.6049 243.572 63.6502 243.43C64.6955 243.287 65.7588 243.352 66.7788 243.621C67.7988 243.891 68.7553 244.36 69.5934 245.001C70.4315 245.642 71.1346 246.442 71.6621 247.356C72.1896 248.269 72.5312 249.278 72.6672 250.325C72.8032 251.371 72.7309 252.434 72.4545 253.452C72.1781 254.47 71.703 255.423 71.0565 256.257C70.4101 257.091 69.6052 257.789 68.688 258.31L27.088 282.31C25.873 283.015 24.4927 283.385 23.088 283.382Z" fill="white"/>
</svg>
