<svg width="433" height="429" viewBox="0 0 433 429" fill="none" xmlns="http://www.w3.org/2000/svg">
<path fill-rule="evenodd" clip-rule="evenodd" d="M419.23 139.56C416.382 165.496 416.038 195.617 408.518 220.429C397.279 257.509 376.899 291.549 374.174 329.045C372.11 357.45 366.965 378.837 367.879 408.518C367.993 412.215 365.104 415.165 361.419 415.165H347.78C352.523 401.821 342.768 388.115 328.952 388.115H294.939V362.208C294.939 361.346 294.768 360.493 294.438 359.697C294.107 358.901 293.623 358.178 293.013 357.57C292.402 356.962 291.678 356.48 290.881 356.152C290.084 355.824 289.23 355.657 288.368 355.66C284.779 355.66 281.797 358.591 281.797 362.208V394.664C281.797 398.281 284.779 401.219 288.368 401.219H328.952C332.762 401.219 335.909 404.344 335.909 408.187C335.909 412.035 332.761 415.166 328.952 415.166H268.877C265.343 415.166 262.472 412.274 262.472 408.729V328.898C262.472 313.421 273.018 300.389 288.203 297.192L326.799 289.07C341.044 286.072 355.346 271.959 362.081 259.574L391.346 205.987C391.732 205.253 391.954 204.452 392.064 203.63L399.96 137.536C400.678 131.633 406.365 128.933 411.335 128.933C416.504 128.931 419.681 134.892 419.23 139.56ZM315.699 226.447C301.896 226.447 290.632 237.718 290.632 251.56C290.632 265.414 301.896 276.673 315.699 276.673C329.559 276.673 340.823 265.414 340.823 251.56C340.823 237.718 329.559 226.447 315.699 226.447ZM426.353 122.718C422.378 118.273 417.021 115.828 411.334 115.828C398.579 115.828 388.309 124.309 386.929 135.987L379.199 200.822L353.744 247.551C351.701 228.352 335.468 213.35 315.7 213.35C294.663 213.35 277.491 230.484 277.491 251.56C277.491 264.381 283.841 275.739 293.558 282.674L285.498 284.375C264.239 288.848 249.386 307.163 249.386 328.896V408.727C249.386 419.494 258.111 428.262 268.877 428.262H361.419C372.489 428.262 381.306 419.152 380.965 408.108C380.094 379.881 385.298 357.583 387.26 329.967C388.806 307.803 397.309 286.727 406.309 264.408C423.838 220.791 426.64 210.23 430.439 161.369C430.991 154.136 431.543 147.317 432.206 140.978C432.924 134.436 430.715 127.611 426.353 122.718ZM169.929 408.728C169.929 412.273 167.002 415.165 163.468 415.165H103.449C99.5832 415.165 96.4364 412.035 96.4364 408.186C96.4364 404.343 99.5842 401.218 103.449 401.218H143.978C144.84 401.22 145.694 401.052 146.491 400.723C147.288 400.395 148.013 399.912 148.623 399.304C149.233 398.695 149.718 397.971 150.048 397.175C150.379 396.379 150.549 395.525 150.549 394.663V362.207C150.549 361.345 150.378 360.492 150.048 359.696C149.717 358.9 149.233 358.177 148.622 357.569C148.012 356.961 147.287 356.479 146.49 356.151C145.693 355.823 144.839 355.656 143.978 355.659C140.389 355.659 137.462 358.59 137.462 362.207V388.114H103.449C89.2551 388.114 79.7544 402.383 84.6205 415.164H70.9265C67.2483 415.164 64.4088 412.167 64.5214 408.517C65.4215 379.289 60.239 357.324 58.2269 329.044C55.5778 291.814 34.9698 257.126 23.8277 220.428C16.1958 195.198 16.0596 165.498 13.1709 139.559C12.6292 134.767 15.9388 128.93 21.0669 128.93C26.0364 128.93 31.7237 131.63 32.4415 137.532L40.2823 203.627C40.3929 204.449 40.6684 205.25 41.0554 205.984L70.265 259.571C77.0562 271.956 91.3574 286.069 105.603 289.067L144.199 297.189C159.327 300.386 169.93 313.418 169.93 328.894L169.929 408.728ZM116.645 226.447C102.786 226.447 91.5212 237.718 91.5212 251.56C91.5212 265.414 102.785 276.673 116.645 276.673C130.504 276.673 141.769 265.414 141.769 251.56C141.769 237.718 130.505 226.447 116.645 226.447ZM146.849 284.375L138.787 282.674C148.505 275.739 154.855 264.381 154.855 251.56C154.855 230.484 137.737 213.35 116.645 213.35C96.9331 213.35 80.6443 228.352 78.6567 247.551L53.1468 200.822L45.4166 135.987C44.0363 124.309 33.7656 115.828 21.0659 115.828C7.97511 115.828 -1.25625 128.466 0.139459 140.978C3.15719 168.05 3.12339 197.212 11.2929 224.232C15.5445 238.319 20.9 251.587 26.0907 264.408C35.0906 286.726 43.5386 307.802 45.1402 329.967C47.137 357.586 52.2969 380.169 51.4347 408.108C51.0927 419.177 59.8346 428.262 70.9255 428.262H163.467C174.235 428.262 183.014 419.494 183.014 408.727V328.896C183.016 307.162 168.163 288.848 146.849 284.375ZM122.775 47.9611C120.235 45.4042 120.235 41.2519 122.775 38.696C125.314 36.139 129.456 36.1452 132.051 38.696L152.922 59.5897C157.007 63.6898 154.118 70.7707 148.285 70.7707C146.546 70.7707 144.879 70.0818 143.647 68.8548L122.775 47.9611ZM84.0675 132.11C84.0671 132.973 84.2369 133.826 84.5672 134.623C84.8975 135.419 85.3817 136.143 85.9922 136.752C86.6027 137.361 87.3274 137.843 88.1247 138.172C88.922 138.5 89.7763 138.668 90.6385 138.665H120.179C123.768 138.665 126.75 135.733 126.75 132.11C126.75 128.494 123.768 125.557 120.179 125.557H90.6385C89.7765 125.555 88.9225 125.723 88.1254 126.051C87.3283 126.379 86.6039 126.862 85.9935 127.47C85.3831 128.079 84.8988 128.802 84.5683 129.599C84.2378 130.395 84.0677 131.248 84.0675 132.11ZM312.221 125.557C311.353 125.546 310.492 125.707 309.687 126.032C308.883 126.356 308.151 126.837 307.533 127.447C306.916 128.057 306.426 128.783 306.091 129.584C305.757 130.384 305.584 131.243 305.584 132.111C305.584 132.979 305.757 133.838 306.091 134.638C306.426 135.439 306.916 136.165 307.533 136.775C308.151 137.384 308.883 137.865 309.687 138.19C310.492 138.514 311.353 138.676 312.221 138.665H341.761C345.35 138.665 348.277 135.733 348.277 132.11C348.277 128.494 345.35 125.557 341.761 125.557H312.221ZM209.629 36.1011V6.55464C209.629 5.6925 209.799 4.83882 210.13 4.04251C210.46 3.2462 210.945 2.52289 211.555 1.91402C212.165 1.30515 212.89 0.822687 213.687 0.494251C214.484 0.165815 215.338 -0.00213455 216.2 2.04787e-05C219.79 2.04787e-05 222.716 2.93787 222.716 6.55464V36.1011C222.716 39.7179 219.79 42.6558 216.2 42.6558C215.338 42.6579 214.484 42.49 213.687 42.1615C212.89 41.8331 212.165 41.3506 211.555 40.7418C210.945 40.1329 210.46 39.4096 210.13 38.6133C209.799 37.817 209.629 36.9633 209.629 36.1011ZM279.422 68.8558C276.883 66.2989 276.883 62.1466 279.422 59.5907L300.35 38.697C300.954 38.0893 301.672 37.607 302.463 37.2779C303.255 36.9488 304.103 36.7793 304.96 36.7793C305.817 36.7793 306.666 36.9488 307.457 37.2779C308.248 37.607 308.967 38.0893 309.571 38.697C310.187 39.3009 310.676 40.0217 311.011 40.8172C311.345 41.6127 311.517 42.4668 311.517 43.3296C311.517 44.1923 311.345 45.0465 311.011 45.8419C310.676 46.6374 310.187 47.3582 309.571 47.9621L288.7 68.8558C286.154 71.4076 282.082 71.4158 279.422 68.8558ZM224.427 254.127C224.427 258.672 220.728 262.365 216.199 262.365C215.118 262.367 214.046 262.155 213.046 261.742C212.046 261.329 211.138 260.722 210.374 259.956C209.609 259.191 209.003 258.282 208.591 257.281C208.179 256.281 207.969 255.209 207.973 254.127V248.556H224.427V254.127ZM165.511 131.724C165.511 156.348 186.421 171.003 195.439 207.525H236.906C246.034 171.012 266.833 156.188 266.833 131.724C266.833 103.784 244.139 81.0527 216.199 81.0527C188.261 81.0527 165.511 103.784 165.511 131.724ZM196.819 235.453V220.623H235.581V235.453H196.819ZM266.005 172.75C273.183 160.05 279.974 148.068 279.974 131.724C279.974 96.5632 251.372 67.9496 216.199 67.9496C181.027 67.9496 152.425 96.5632 152.425 131.724C152.425 148.068 159.216 160.05 166.394 172.75C172.689 183.947 179.867 196.631 183.677 214.797V237.988C183.677 243.813 188.425 248.557 194.279 248.557H194.831V254.128C194.831 265.895 204.438 275.469 216.199 275.469C227.961 275.469 237.513 265.895 237.513 254.128V248.557H238.12C243.918 248.557 248.666 243.813 248.666 237.988V214.797C252.532 196.631 259.655 183.947 266.005 172.75Z" fill="white"/>
</svg>
