<svg width="477" height="480" viewBox="0 0 477 480" fill="none" xmlns="http://www.w3.org/2000/svg">
<path d="M56.0347 337.752H13.7289C10.0896 337.758 6.60093 339.206 4.02751 341.779C1.4541 344.353 0.00580286 347.841 0 351.481V461.678C0.00580286 465.317 1.4541 468.806 4.02751 471.379C6.60093 473.953 10.0896 475.401 13.7289 475.407H56.0347C62.5079 475.407 67.9131 470.894 69.3541 464.852L80.8814 464.933L95.6123 476.694C100.25 480.102 77.7948 479.078 451.196 479.078C457.828 479.071 464.186 476.433 468.876 471.743C473.565 467.054 476.203 460.696 476.211 454.064V25.0149C476.203 18.3829 473.565 12.0248 468.876 7.33523C464.186 2.64572 457.828 0.00774312 451.196 0H124.467C117.835 0.00774312 111.477 2.64572 106.788 7.33523C102.098 12.0248 99.4601 18.3829 99.4523 25.0149V42.1449C95.8394 41.6912 92.2027 41.4518 88.5614 41.4281C39.7239 41.4281 0 79.9817 0 127.371C0 174.811 39.7312 213.409 88.5614 213.409C92.2551 213.409 95.8757 213.116 99.4523 212.692V321.287L73.0917 354.085C72.8387 354.4 72.5196 354.656 72.1568 354.834C71.7941 355.012 71.3966 355.108 70.9925 355.116H69.7637V351.488C69.7617 347.847 68.3149 344.355 65.7409 341.78C63.1668 339.204 59.676 337.756 56.0347 337.752ZM58.7995 461.685C58.7995 462.416 58.509 463.118 57.9919 463.635C57.4748 464.152 56.7734 464.442 56.0421 464.442H13.7289C12.9976 464.442 12.2962 464.152 11.7791 463.635C11.2619 463.118 10.9714 462.416 10.9714 461.685V351.481C10.9714 349.959 12.2075 348.723 13.7289 348.723H56.0347C57.5561 348.723 58.7922 349.959 58.7922 351.481L58.7995 461.685ZM209.232 468.114L181.16 468.092C177.742 468.042 174.481 466.651 172.079 464.218C169.678 461.785 168.329 458.506 168.324 455.088C168.324 447.912 174.168 442.068 181.343 442.068H209.232C216.408 442.068 222.252 447.905 222.252 455.088C222.252 462.27 216.415 468.114 209.232 468.114ZM209.232 431.104H181.343C174.168 431.104 168.324 425.267 168.324 418.085C168.324 410.902 174.168 405.065 181.343 405.065H225.236C232.411 405.065 238.256 410.909 238.256 418.085C238.256 425.26 232.419 431.104 225.236 431.104H209.232ZM188.672 368.048H236.559C243.734 368.048 249.578 373.892 249.578 381.067C249.578 388.242 243.741 394.086 236.559 394.086H188.665C181.489 394.086 175.645 388.25 175.645 381.067C175.645 373.884 181.497 368.048 188.672 368.048ZM182.981 344.064C182.981 336.889 188.818 331.045 196.001 331.045H237.239C244.414 331.045 250.258 336.881 250.258 344.064C250.258 351.247 244.421 357.083 237.239 357.083H196.001C192.55 357.078 189.242 355.704 186.801 353.264C184.361 350.823 182.987 347.515 182.981 344.064ZM173.012 363.052C174.124 361.238 175.17 359.38 176.135 357.493C176.677 358.29 177.342 358.992 177.971 359.717C176.184 360.615 174.518 361.736 173.012 363.052ZM110.424 25.0149C110.424 17.269 116.721 10.9714 124.467 10.9714H451.196C458.942 10.9714 465.24 17.269 465.24 25.0149V454.071C465.24 461.817 458.942 468.114 451.196 468.114H229.332C231.91 464.179 233.265 459.569 233.227 454.865C233.19 450.161 231.76 445.574 229.12 441.68C234.723 440.766 239.82 437.892 243.502 433.571C247.184 429.25 249.213 423.762 249.227 418.085C249.227 412.657 247.347 407.698 244.297 403.675C249.026 402.074 253.135 399.034 256.05 394.982C258.966 390.929 260.542 386.067 260.557 381.074C260.557 373.745 257.178 367.25 251.984 362.847C254.852 360.625 257.175 357.778 258.777 354.524C260.379 351.269 261.218 347.692 261.23 344.064C261.224 337.703 258.694 331.604 254.197 327.106C249.699 322.608 243.6 320.079 237.239 320.073H196.001C192.029 320.073 188.328 321.141 185.029 322.853V288.768C185.029 268.083 169.655 250.01 149.189 246.704C146.94 246.342 144.666 246.149 142.387 246.126H132.586C129.046 246.126 125.959 248.027 124.219 250.858C123.275 252.379 122.704 254.149 122.704 256.066V277.314L122.712 277.35V290.458C122.702 291.648 122.307 292.803 121.585 293.749L110.431 307.632V210.651C148.765 201.165 177.24 167.475 177.24 127.364C177.24 87.3033 148.765 53.6503 110.431 44.1783L110.424 25.0149ZM142.885 257.141C142.878 260.07 141.998 262.93 140.358 265.356C138.718 267.782 136.391 269.663 133.676 270.76V257.112H142.57C142.68 257.112 142.775 257.141 142.885 257.141ZM88.5614 202.43C45.7728 202.43 10.9714 168.755 10.9714 127.364C10.9714 86.0306 45.7801 52.3922 88.5614 52.3922C131.401 52.3922 166.261 86.0233 166.261 127.364C166.254 168.755 131.401 202.43 88.5614 202.43ZM81.6347 360.96L130.202 300.529C132.476 297.574 133.683 294.093 133.683 290.45V282.171C139.02 280.98 143.837 278.114 147.429 273.991C151.022 269.868 153.202 264.705 153.651 259.255C165.595 263.856 174.029 275.536 174.051 288.702L174.036 288.775L174.029 321.595C174.036 352.453 152.093 380.848 120.671 390.641C119.974 390.848 119.325 391.19 118.761 391.65C118.198 392.109 117.731 392.676 117.389 393.317C117.046 393.958 116.834 394.661 116.766 395.385C116.697 396.109 116.774 396.839 116.99 397.533C117.206 398.227 117.558 398.871 118.025 399.428C118.493 399.985 119.066 400.443 119.712 400.777C120.358 401.11 121.064 401.312 121.789 401.37C122.513 401.428 123.242 401.342 123.933 401.115C140.585 395.924 155.341 385.947 166.363 372.429C165.272 375.181 164.703 378.113 164.688 381.074C164.688 387.079 166.985 392.514 170.65 396.727C166.671 398.704 163.321 401.748 160.974 405.52C158.627 409.292 157.376 413.642 157.36 418.085C157.372 421.638 158.178 425.144 159.719 428.345C161.261 431.547 163.498 434.364 166.268 436.59C163.498 438.815 161.261 441.632 159.719 444.834C158.178 448.036 157.372 451.541 157.36 455.095C157.36 459.886 158.808 464.325 161.229 468.07L102.29 467.997L87.7349 456.375C82.9147 452.506 78.1385 454.327 69.7637 453.859V366.087C70.5024 365.934 76.8366 366.907 81.6347 360.96Z" fill="white"/>
<path d="M88.5759 62.252C51.5949 62.252 21.5039 91.4652 21.5039 127.378C21.5039 163.328 51.5949 192.578 88.5759 192.578C125.601 192.578 155.721 163.328 155.721 127.378C155.721 91.4725 125.601 62.252 88.5759 62.252ZM88.5759 181.606C57.6438 181.606 32.4753 157.279 32.4753 127.378C32.4753 97.5141 57.6438 73.2234 88.5759 73.2234C119.552 73.2234 144.75 97.5141 144.75 127.378C144.75 157.279 119.552 181.606 88.5759 181.606Z" fill="white"/>
<path d="M88.6126 105.004C93.5278 105.004 97.5361 108.8 97.5361 113.466C97.5361 114.921 98.114 116.316 99.1428 117.345C100.172 118.374 101.567 118.952 103.022 118.952C104.477 118.952 105.872 118.374 106.901 117.345C107.93 116.316 108.507 114.921 108.507 113.466C108.507 104.623 102.393 97.2211 94.0984 94.8732V91.1576C94.0984 89.7027 93.5204 88.3074 92.4916 87.2786C91.4629 86.2498 90.0675 85.6719 88.6126 85.6719C87.1577 85.6719 85.7624 86.2498 84.7336 87.2786C83.7049 88.3074 83.1269 89.7027 83.1269 91.1576V94.8732C74.8398 97.2138 68.7251 104.616 68.7251 113.466C68.7251 124.182 77.6485 132.9 88.6126 132.9C93.5278 132.9 97.5361 136.696 97.5361 141.363C97.5361 146.029 93.5352 149.825 88.6126 149.825C83.6901 149.825 79.6965 146.029 79.6965 141.363C79.6965 139.908 79.1186 138.513 78.0898 137.484C77.061 136.455 75.6657 135.877 74.2108 135.877C72.7559 135.877 71.3606 136.455 70.3318 137.484C69.3031 138.513 68.7251 139.908 68.7251 141.363C68.7251 150.206 74.8398 157.608 83.1269 159.948V163.671C83.1269 165.126 83.7049 166.522 84.7336 167.55C85.7624 168.579 87.1577 169.157 88.6126 169.157C90.0675 169.157 91.4629 168.579 92.4916 167.55C93.5204 166.522 94.0984 165.126 94.0984 163.671V159.948C102.385 157.608 108.507 150.206 108.507 141.363C108.507 130.647 99.5841 121.929 88.6126 121.929C83.6974 121.929 79.6965 118.133 79.6965 113.466C79.6965 108.8 83.6901 105.004 88.6126 105.004ZM359.68 267.139V314.002C359.68 321.097 365.458 326.875 372.553 326.875H419.496C426.591 326.875 432.362 321.097 432.362 314.002V267.139C432.362 260.044 426.591 254.266 419.496 254.266H372.561C365.458 254.266 359.68 260.037 359.68 267.139ZM370.651 267.139C370.651 266.635 370.852 266.151 371.208 265.795C371.565 265.438 372.049 265.238 372.553 265.238H419.496C419.999 265.24 420.481 265.441 420.836 265.797C421.191 266.154 421.391 266.636 421.391 267.139V314.002C421.391 314.505 421.191 314.988 420.836 315.344C420.481 315.701 419.999 315.902 419.496 315.904H372.561C372.056 315.904 371.572 315.703 371.216 315.347C370.859 314.99 370.659 314.506 370.659 314.002L370.651 267.139ZM419.496 361.252H372.561C365.466 361.252 359.687 367.031 359.687 374.125V420.988C359.687 428.083 365.466 433.861 372.561 433.861H419.496C426.591 433.861 432.362 428.083 432.362 420.988V374.125C432.362 367.031 426.591 361.252 419.496 361.252ZM421.391 420.988C421.391 421.491 421.191 421.974 420.836 422.33C420.481 422.687 419.999 422.888 419.496 422.89H372.561C372.056 422.89 371.572 422.689 371.216 422.333C370.859 421.976 370.659 421.492 370.659 420.988V374.125C370.659 373.621 370.859 373.137 371.216 372.781C371.572 372.424 372.056 372.224 372.561 372.224H419.496C419.999 372.226 420.481 372.427 420.836 372.783C421.191 373.14 421.391 373.622 421.391 374.125V420.988ZM325.8 268.873H230.232C228.777 268.873 227.382 269.451 226.353 270.48C225.324 271.508 224.746 272.904 224.746 274.359C224.746 275.813 225.324 277.209 226.353 278.238C227.382 279.266 228.777 279.844 230.232 279.844H325.8C327.255 279.844 328.651 279.266 329.679 278.238C330.708 277.209 331.286 275.813 331.286 274.359C331.286 272.904 330.708 271.508 329.679 270.48C328.651 269.451 327.255 268.873 325.8 268.873ZM325.8 301.29H293.405C291.95 301.29 290.555 301.868 289.526 302.896C288.498 303.925 287.92 305.321 287.92 306.775C287.92 308.23 288.498 309.626 289.526 310.654C290.555 311.683 291.95 312.261 293.405 312.261H325.8C327.255 312.261 328.651 311.683 329.679 310.654C330.708 309.626 331.286 308.23 331.286 306.775C331.286 305.321 330.708 303.925 329.679 302.896C328.651 301.868 327.255 301.29 325.8 301.29ZM325.8 375.859H293.405C291.95 375.859 290.555 376.437 289.526 377.466C288.498 378.494 287.92 379.89 287.92 381.345C287.92 382.799 288.498 384.195 289.526 385.224C290.555 386.252 291.95 386.83 293.405 386.83H325.8C327.255 386.83 328.651 386.252 329.679 385.224C330.708 384.195 331.286 382.799 331.286 381.345C331.286 379.89 330.708 378.494 329.679 377.466C328.651 376.437 327.255 375.859 325.8 375.859ZM325.8 408.276H287.846C286.392 408.276 284.996 408.854 283.967 409.883C282.939 410.911 282.361 412.307 282.361 413.761C282.361 415.216 282.939 416.612 283.967 417.64C284.996 418.669 286.392 419.247 287.846 419.247H325.8C327.255 419.247 328.651 418.669 329.679 417.64C330.708 416.612 331.286 415.216 331.286 413.761C331.286 412.307 330.708 410.911 329.679 409.883C328.651 408.854 327.255 408.276 325.8 408.276Z" fill="white"/>
<path d="M401.635 388.711L393.231 394.277L391.899 392.353C391.498 391.741 390.979 391.216 390.372 390.807C389.765 390.399 389.082 390.116 388.364 389.976C387.646 389.835 386.907 389.839 386.191 389.989C385.475 390.138 384.796 390.429 384.194 390.845C383.591 391.26 383.079 391.792 382.685 392.409C382.292 393.026 382.026 393.716 381.903 394.437C381.78 395.158 381.802 395.897 381.969 396.609C382.136 397.321 382.443 397.993 382.873 398.585L387.262 404.941C388.075 406.129 389.324 406.948 390.737 407.221C392.15 407.494 393.614 407.197 394.81 406.397L407.705 397.861C408.919 397.056 409.763 395.802 410.052 394.375C410.34 392.947 410.05 391.464 409.245 390.25C408.44 389.037 407.186 388.193 405.759 387.904C404.332 387.616 402.848 387.906 401.635 388.711ZM387.255 297.955C388.068 299.143 389.316 299.962 390.73 300.235C392.143 300.507 393.607 300.211 394.803 299.411L407.698 290.875C408.912 290.071 409.756 288.818 410.045 287.391C410.335 285.965 410.046 284.481 409.241 283.268C408.437 282.055 407.184 281.21 405.758 280.921C404.331 280.632 402.848 280.921 401.635 281.725L393.231 287.291L391.899 285.367C391.498 284.755 390.979 284.23 390.372 283.821C389.765 283.413 389.082 283.13 388.364 282.989C387.646 282.849 386.907 282.853 386.191 283.003C385.475 283.152 384.796 283.443 384.194 283.859C383.591 284.274 383.079 284.806 382.685 285.423C382.292 286.04 382.026 286.729 381.903 287.451C381.78 288.172 381.802 288.911 381.969 289.623C382.136 290.335 382.443 291.007 382.873 291.599L387.255 297.955ZM287.846 208.18C332.412 208.18 368.662 171.923 368.662 127.364C368.662 82.8639 332.405 46.6582 287.846 46.6582C243.288 46.6582 207.031 82.8639 207.031 127.364C207.031 171.923 243.288 208.18 287.846 208.18ZM287.846 57.6296C326.363 57.6296 357.69 88.9128 357.69 127.364C357.69 165.881 326.356 197.208 287.846 197.208C249.337 197.208 218.002 165.874 218.002 127.364C218.002 88.9055 249.337 57.6296 287.846 57.6296Z" fill="white"/>
<path d="M262.766 127.085L249.081 134.985C247.454 135.928 246.268 137.478 245.782 139.295C245.297 141.112 245.552 143.047 246.491 144.676C251.158 151.866 251.524 155.838 256.029 157.045C260.784 158.295 262.861 154.887 275.953 147.946V165.383C275.953 169.296 279.135 172.478 283.048 172.478H293.515C295.397 172.478 297.201 171.73 298.532 170.4C299.862 169.069 300.61 167.265 300.61 165.383V148.926C313.176 155.56 314.99 158.771 319.671 157.535C320.572 157.296 321.417 156.881 322.156 156.313C322.896 155.746 323.515 155.037 323.979 154.229C327.863 146.614 331.125 144.281 329.918 139.783C328.66 135.072 324.908 135.116 312.079 127.078L327.175 118.359C328.805 117.418 329.994 115.869 330.481 114.051C330.968 112.234 330.713 110.297 329.772 108.668L324.535 99.5982C323.591 97.9714 322.041 96.7853 320.224 96.2999C318.408 95.8145 316.472 96.0695 314.843 97.0089L300.595 105.237V89.4386C300.595 88.5069 300.412 87.5843 300.055 86.7235C299.699 85.8627 299.176 85.0806 298.517 84.4218C297.858 83.763 297.076 83.2404 296.215 82.8838C295.355 82.5273 294.432 82.3437 293.5 82.3438H283.034C282.102 82.3438 281.179 82.5273 280.318 82.8838C279.458 83.2404 278.676 83.763 278.017 84.4218C277.358 85.0806 276.835 85.8627 276.479 86.7235C276.122 87.5843 275.939 88.5069 275.939 89.4386V106.218L260.842 97.4989C260.035 97.032 259.144 96.7287 258.219 96.6065C257.295 96.4843 256.355 96.5455 255.454 96.7867C254.554 97.0278 253.709 97.4442 252.969 98.012C252.23 98.5797 251.609 99.2877 251.143 100.096C247.34 107.563 243.99 110.021 245.204 114.556C246.477 119.237 250.127 119.164 262.766 127.085ZM257.192 103.84L277.775 115.726C278.331 116.047 278.961 116.216 279.603 116.216C280.245 116.216 280.876 116.047 281.432 115.726C281.988 115.405 282.449 114.944 282.77 114.388C283.091 113.832 283.26 113.201 283.26 112.559L283.041 89.658L293.288 89.4386V111.572C293.288 112.214 293.457 112.844 293.778 113.4C294.099 113.956 294.561 114.418 295.117 114.739C295.673 115.06 296.303 115.229 296.945 115.229C297.587 115.229 298.218 115.06 298.774 114.739L318.208 103.263L323.518 112.025L302.936 123.911C302.38 124.232 301.918 124.693 301.597 125.249C301.276 125.805 301.107 126.436 301.107 127.078C301.107 127.72 301.276 128.35 301.597 128.906C301.918 129.462 302.38 129.924 302.936 130.245L322.874 141.509L317.945 150.491L298.774 139.424C298.218 139.103 297.587 138.934 296.945 138.934C296.303 138.934 295.673 139.103 295.117 139.424C294.561 139.745 294.099 140.207 293.778 140.763C293.457 141.319 293.288 141.95 293.288 142.592L293.508 165.156L283.26 165.376V141.604C283.26 140.962 283.091 140.331 282.77 139.776C282.449 139.22 281.988 138.758 281.432 138.437C280.876 138.116 280.245 137.947 279.603 137.947C278.961 137.947 278.331 138.116 277.775 138.437L258.055 150.074L252.928 141.202L271.909 130.245C272.464 129.924 272.926 129.462 273.247 128.906C273.568 128.35 273.737 127.72 273.737 127.078C273.737 126.436 273.568 125.805 273.247 125.249C272.926 124.693 272.464 124.232 271.909 123.911L252.255 112.815L257.192 103.84Z" fill="white"/>
</svg>
