<svg width="510" height="494" viewBox="0 0 510 494" fill="none" xmlns="http://www.w3.org/2000/svg">
<path d="M313.08 18.168C383.736 39.672 434.936 107.256 434.936 185.08V196.344L492.28 298.744H440.056V383.736C440.056 405.24 422.648 422.648 401.144 422.648H386.808" stroke="white" stroke-width="20.48" stroke-miterlimit="10"/>
<path d="M62.2 492.28V455.416C62.2 431.864 59.128 407.288 52.984 384.76L18.168 241.4C13.048 221.944 11 201.464 11 180.984C11 133.88 30.456 91.896 61.176 61.176C91.896 30.456 134.904 11 182.008 11C276.216 11 350.968 90.872 350.968 185.08V196.344L408.312 298.744H356.088V383.736C356.088 405.24 338.68 423.672 317.176 423.672H294.648V493.304" stroke="white" stroke-width="20.48" stroke-miterlimit="10"/>
<path d="M293.624 492.28V422.648H316.152C337.656 422.648 355.064 405.24 355.064 382.712V297.72H407.288L349.944 195.32V184.056C349.944 104.184 295.672 34.5517 221.944 15.0957" stroke="white" stroke-width="20.48" stroke-miterlimit="10"/>
<path d="M293.624 422.648H235.256C221.944 422.648 211.704 412.408 211.704 399.096M284.408 178.936H306.936M56.056 178.936H78.584M180.984 52.9844V75.5124M255.736 252.664L272.12 269.048M90.872 88.8244L107.256 104.184M107.256 252.664L90.872 269.048M272.12 88.8244L255.736 104.184M122.616 293.624H239.352M152.312 330.488H210.68V255.736C241.4 243.448 262.904 214.776 262.904 179.96C262.904 134.904 226.04 99.0644 182.008 99.0644C136.952 99.0644 101.112 135.928 101.112 179.96C101.112 214.776 122.616 244.472 153.336 255.736V330.488H152.312Z" stroke="white" stroke-width="20.48" stroke-miterlimit="10"/>
<path d="M179.96 198.392C190.705 198.392 199.416 189.682 199.416 178.936C199.416 168.191 190.705 159.48 179.96 159.48C169.215 159.48 160.504 168.191 160.504 178.936C160.504 189.682 169.215 198.392 179.96 198.392Z" stroke="white" stroke-width="20.48" stroke-miterlimit="10"/>
<path d="M179.96 198.392C190.705 198.392 199.416 189.682 199.416 178.936C199.416 168.191 190.705 159.48 179.96 159.48C169.215 159.48 160.504 168.191 160.504 178.936C160.504 189.682 169.215 198.392 179.96 198.392Z" stroke="white" stroke-width="20.48" stroke-miterlimit="10"/>
</svg>
