<svg width="512" height="506" viewBox="0 0 512 506" fill="none" xmlns="http://www.w3.org/2000/svg">
<path d="M137.348 147.949L156.448 152.749C158.677 160.779 161.879 168.506 165.983 175.759L155.873 192.667C155.159 193.864 154.819 195.247 154.896 196.638C154.974 198.03 155.466 199.366 156.309 200.476C163.238 209.616 171.392 217.759 180.541 224.676C181.652 225.514 182.988 226.001 184.377 226.075C185.767 226.149 187.147 225.807 188.341 225.093L205.227 215.006C212.483 219.102 220.208 222.304 228.234 224.544L233.054 243.625C233.394 244.973 234.128 246.189 235.163 247.117C236.197 248.045 237.485 248.644 238.862 248.836C250.225 250.4 261.749 250.4 273.112 248.836C274.489 248.644 275.777 248.045 276.811 247.117C277.846 246.189 278.58 244.973 278.92 243.625L283.74 224.544C291.763 222.305 299.486 219.103 306.74 215.009L323.64 225.097C324.835 225.811 326.216 226.152 327.605 226.076C328.995 225.999 330.331 225.51 331.44 224.669C340.581 217.749 348.731 209.609 355.664 200.478C356.509 199.367 357.001 198.028 357.077 196.634C357.154 195.24 356.811 193.855 356.093 192.658L345.984 175.752C350.093 168.504 353.298 160.78 355.527 152.752L374.627 147.952C375.982 147.61 377.204 146.87 378.134 145.827C379.065 144.785 379.661 143.487 379.847 142.102C381.403 130.755 381.403 119.249 379.847 107.902C379.661 106.517 379.065 105.219 378.134 104.176C377.204 103.134 375.982 102.394 374.627 102.052L355.527 97.252C353.298 89.2241 350.093 81.4999 345.984 74.252L356.093 57.352C356.811 56.1549 357.154 54.7701 357.077 53.3762C357.001 51.9824 356.509 50.6434 355.664 49.532C348.73 40.4033 340.581 32.2648 331.443 25.342C330.333 24.5021 328.998 24.0126 327.609 23.9362C326.219 23.8598 324.838 24.1999 323.643 24.913L306.73 34.996C299.478 30.9072 291.757 27.7112 283.737 25.478L278.916 6.378C278.576 5.03021 277.842 3.81445 276.807 2.88618C275.773 1.95792 274.485 1.35934 273.108 1.167C261.744 -0.389 250.222 -0.389 238.858 1.167C237.481 1.35934 236.193 1.95792 235.159 2.88618C234.124 3.81445 233.39 5.03021 233.05 6.378L228.229 25.478C220.206 27.7115 212.483 30.9084 205.229 34.999L188.337 24.908C187.141 24.193 185.759 23.8515 184.368 23.9274C182.977 24.0033 181.641 24.4931 180.53 25.334C171.392 32.2565 163.243 40.3951 156.309 49.524C155.466 50.6336 154.974 51.9699 154.896 53.3613C154.819 54.7526 155.159 56.1354 155.873 57.332L165.983 74.259C161.879 81.5055 158.676 89.226 156.444 97.249L137.344 102.049C135.989 102.39 134.767 103.13 133.836 104.173C132.905 105.216 132.309 106.515 132.124 107.9C130.568 119.247 130.568 130.753 132.124 142.1C132.31 143.486 132.907 144.784 133.838 145.826C134.77 146.869 135.992 147.608 137.348 147.949ZM145.448 114.425L163.885 109.795C165.131 109.483 166.267 108.833 167.168 107.917C168.069 107.001 168.7 105.854 168.992 104.603C171.195 95.1671 174.932 86.1571 180.056 77.933C180.733 76.8428 181.097 75.5873 181.108 74.3041C181.118 73.0208 180.776 71.7594 180.117 70.658L170.347 54.312C174.849 48.8725 179.855 43.8715 185.3 39.376L201.643 49.126C202.741 49.7792 203.997 50.1188 205.275 50.1081C206.553 50.0973 207.803 49.7365 208.89 49.065C217.127 43.9597 226.141 40.2296 235.577 38.021C236.825 37.7293 237.969 37.0998 238.884 36.2016C239.799 35.3033 240.449 34.1709 240.763 32.928L245.423 14.459C252.448 13.799 259.518 13.799 266.543 14.459L271.205 32.924C271.519 34.1668 272.17 35.2991 273.084 36.1973C273.999 37.0956 275.143 37.7251 276.391 38.017C285.827 40.2252 294.84 43.9554 303.077 49.061C304.166 49.7329 305.418 50.0934 306.697 50.1033C307.976 50.1132 309.233 49.772 310.332 49.117L326.663 39.369C332.107 43.8634 337.113 48.863 341.615 54.301L331.843 70.672C331.187 71.774 330.847 73.0352 330.86 74.3175C330.874 75.5998 331.24 76.8538 331.918 77.942C337.045 86.1602 340.782 95.1682 342.976 104.603C343.267 105.854 343.898 107.001 344.799 107.917C345.7 108.833 346.836 109.483 348.082 109.795L366.519 114.425C366.859 118.014 367.03 121.559 367.03 125.014C367.03 128.469 366.859 131.991 366.52 135.575L348.082 140.205C346.836 140.517 345.7 141.167 344.799 142.084C343.898 143 343.267 144.147 342.976 145.398C340.782 154.832 337.046 163.84 331.918 172.058C331.24 173.146 330.874 174.4 330.861 175.682C330.847 176.964 331.187 178.225 331.843 179.327L341.615 195.697C337.115 201.135 332.109 206.134 326.665 210.628L310.332 200.879C309.231 200.222 307.97 199.881 306.688 199.892C305.406 199.904 304.152 200.268 303.063 200.945C294.825 206.057 285.811 209.795 276.373 212.013C275.129 212.307 273.99 212.936 273.079 213.833C272.168 214.729 271.52 215.857 271.206 217.096L266.543 235.537C259.519 236.198 252.447 236.198 245.423 235.537L240.76 217.096C240.446 215.857 239.798 214.729 238.887 213.833C237.976 212.936 236.837 212.307 235.593 212.013C226.155 209.795 217.14 206.056 208.902 200.944C207.814 200.269 206.562 199.905 205.281 199.893C204.001 199.88 202.742 200.22 201.641 200.874L185.291 210.628C179.845 206.135 174.841 201.133 170.345 195.69L180.11 179.377C180.771 178.275 181.116 177.012 181.106 175.728C181.096 174.443 180.732 173.186 180.054 172.094C174.928 163.86 171.19 154.84 168.99 145.394C168.698 144.143 168.067 142.996 167.166 142.08C166.265 141.164 165.129 140.513 163.883 140.201L145.446 135.571C145.107 131.986 144.935 128.449 144.935 125.01C144.935 121.571 145.107 118.015 145.446 114.425H145.448ZM255.983 191.159C269.069 191.162 281.863 187.284 292.745 180.015C303.627 172.746 312.109 162.414 317.118 150.324C322.127 138.234 323.439 124.93 320.886 112.095C318.334 99.2602 312.033 87.4703 302.779 78.2168C293.526 68.9633 281.736 62.6619 268.901 60.1096C256.066 57.5572 242.762 58.8686 230.672 63.8778C218.582 68.887 208.25 77.3691 200.981 88.2512C193.712 99.1333 189.834 111.927 189.837 125.013C189.857 142.55 196.832 159.363 209.232 171.764C221.633 184.164 238.446 191.139 255.983 191.159ZM255.983 72.814C266.304 72.8112 276.395 75.8692 284.978 81.6012C293.562 87.3331 300.253 95.4817 304.205 105.016C308.158 114.551 309.194 125.044 307.183 135.167C305.172 145.291 300.204 154.591 292.908 161.891C285.612 169.191 276.314 174.164 266.192 176.181C256.069 178.197 245.576 177.166 236.039 173.219C226.502 169.272 218.35 162.585 212.614 154.005C206.877 145.424 203.814 135.335 203.811 125.014C203.823 111.178 209.323 97.9125 219.104 88.1267C228.884 78.3409 242.147 72.8333 255.983 72.814ZM13.932 505.92H114.421C118.119 505.912 121.662 504.438 124.274 501.82C126.886 499.203 128.353 495.657 128.353 491.959V425.147C128.353 421.449 126.886 417.903 124.274 415.286C121.662 412.668 118.119 411.194 114.421 411.186H61.893L50.983 400.301C49.6728 398.994 47.8977 398.26 46.047 398.26H13.932C10.2381 398.264 6.69678 399.734 4.08491 402.346C1.47304 404.958 0.00397005 408.499 0 412.193V491.959C0.000256297 495.657 1.46725 499.203 4.07912 501.82C6.69099 504.438 10.2344 505.912 13.932 505.92ZM43.16 412.235L54.068 423.119C55.3781 424.425 57.1528 425.159 59.003 425.159L114.378 425.146L114.421 491.946L13.975 491.959L13.932 412.235H43.16ZM306.213 505.92C309.914 505.915 313.463 504.443 316.08 501.826C318.697 499.209 320.169 495.66 320.173 491.959V425.147C320.169 421.446 318.697 417.897 316.08 415.28C313.463 412.663 309.914 411.19 306.213 411.186H253.69L242.81 400.306C242.161 399.657 241.391 399.143 240.543 398.792C239.695 398.44 238.787 398.26 237.869 398.26H205.753C202.055 398.261 198.509 399.728 195.892 402.34C193.274 404.952 191.8 408.495 191.792 412.193V491.959C191.796 495.66 193.268 499.209 195.886 501.826C198.503 504.444 202.052 505.916 205.753 505.92H306.213ZM234.975 412.235L245.855 423.115C247.166 424.424 248.943 425.16 250.796 425.16L306.196 425.147L306.21 491.947L205.767 491.959L205.753 412.235H234.975ZM434.597 400.301C433.287 398.994 431.512 398.26 429.661 398.26H397.545C393.847 398.261 390.301 399.728 387.684 402.34C385.067 404.952 383.593 408.495 383.585 412.193V491.959C383.589 495.66 385.061 499.209 387.678 501.826C390.295 504.443 393.844 505.915 397.545 505.92H498.005C501.706 505.916 505.255 504.444 507.872 501.826C510.49 499.209 511.962 495.66 511.966 491.959V425.147C511.962 421.446 510.49 417.897 507.872 415.28C505.255 412.662 501.706 411.19 498.005 411.186H445.505L434.597 400.301ZM498.005 491.946L397.559 491.959L397.545 412.235H426.772L437.683 423.119C438.993 424.426 440.768 425.16 442.618 425.16L497.993 425.147L498.005 491.946ZM43.889 371.126C43.2358 370.467 42.7204 369.684 42.3731 368.823C42.0257 367.963 41.8533 367.041 41.866 366.113C41.8786 365.185 42.076 364.269 42.4466 363.418C42.8172 362.567 43.3536 361.799 44.0245 361.157C44.6955 360.516 45.4874 360.015 46.3542 359.683C47.2209 359.351 48.1451 359.195 49.0727 359.225C50.0004 359.254 50.9129 359.468 51.757 359.854C52.6011 360.24 53.3599 360.79 53.989 361.472L57.2 364.832V346.825C57.209 336.815 61.1882 327.217 68.2646 320.137C75.3411 313.057 84.9369 309.073 94.947 309.059H248.995V266.265C249.017 264.426 249.763 262.67 251.071 261.378C252.379 260.085 254.144 259.361 255.982 259.361C257.821 259.361 259.586 260.085 260.894 261.378C262.202 262.67 262.948 264.426 262.97 266.265V309.059H417.019C427.029 309.074 436.625 313.059 443.701 320.14C450.777 327.221 454.755 336.82 454.763 346.83V364.837L457.973 361.477C459.262 360.176 461.01 359.433 462.841 359.408C464.673 359.383 466.44 360.078 467.764 361.344C469.088 362.609 469.862 364.344 469.92 366.174C469.978 368.005 469.314 369.785 468.073 371.131L452.823 387.09C452.171 387.772 451.387 388.315 450.519 388.686C449.651 389.057 448.717 389.248 447.773 389.248C446.829 389.248 445.895 389.057 445.027 388.686C444.159 388.315 443.375 387.772 442.723 387.09L427.473 371.131C426.82 370.472 426.304 369.689 425.957 368.828C425.61 367.968 425.437 367.046 425.45 366.118C425.463 365.19 425.66 364.274 426.031 363.423C426.401 362.572 426.938 361.804 427.609 361.162C428.279 360.521 429.071 360.02 429.938 359.688C430.805 359.356 431.729 359.2 432.657 359.23C433.584 359.259 434.497 359.473 435.341 359.859C436.185 360.245 436.944 360.795 437.573 361.477L440.784 364.837V346.825C440.781 340.519 438.277 334.472 433.821 330.01C429.365 325.548 423.321 323.036 417.015 323.025H262.97V364.825L266.181 361.465C266.81 360.783 267.569 360.233 268.413 359.847C269.257 359.461 270.17 359.247 271.097 359.218C272.025 359.188 272.949 359.344 273.816 359.676C274.683 360.008 275.475 360.509 276.145 361.15C276.816 361.792 277.353 362.56 277.723 363.411C278.094 364.262 278.291 365.178 278.304 366.106C278.317 367.034 278.144 367.956 277.797 368.816C277.45 369.677 276.934 370.46 276.281 371.119L261.031 387.078C260.379 387.76 259.595 388.303 258.727 388.674C257.859 389.045 256.925 389.236 255.981 389.236C255.037 389.236 254.103 389.045 253.235 388.674C252.367 388.303 251.583 387.76 250.931 387.078L235.683 371.126C235.03 370.467 234.514 369.684 234.167 368.823C233.82 367.963 233.647 367.041 233.66 366.113C233.673 365.185 233.87 364.269 234.241 363.418C234.611 362.567 235.148 361.799 235.819 361.157C236.489 360.516 237.281 360.015 238.148 359.683C239.015 359.351 239.939 359.195 240.867 359.225C241.794 359.254 242.707 359.468 243.551 359.854C244.395 360.24 245.154 360.79 245.783 361.472L248.993 364.832V323.032H94.947C88.641 323.043 82.5969 325.555 78.1408 330.017C73.6847 334.479 71.1806 340.526 71.178 346.832V364.839L74.389 361.479C75.0181 360.797 75.7769 360.247 76.621 359.861C77.4651 359.475 78.3776 359.261 79.3053 359.232C80.2329 359.203 81.1571 359.358 82.0238 359.69C82.8906 360.022 83.6826 360.523 84.3535 361.164C85.0244 361.806 85.5608 362.574 85.9314 363.425C86.302 364.276 86.4994 365.192 86.512 366.12C86.5247 367.048 86.3523 367.97 86.0049 368.83C85.6576 369.691 85.1422 370.474 84.489 371.133L69.243 387.085C68.5906 387.767 67.8068 388.31 66.9389 388.681C66.0709 389.052 65.1369 389.243 64.193 389.243C63.2491 389.243 62.3151 389.052 61.4471 388.681C60.5792 388.31 59.7954 387.767 59.143 387.085L43.889 371.126Z" fill="url(#paint0_linear_589_10)"/>
<defs>
<linearGradient id="paint0_linear_589_10" x1="31" y1="20.5" x2="545.5" y2="503.5" gradientUnits="userSpaceOnUse">
<stop stop-color="#1BA2D7"/>
<stop offset="1" stop-color="#8D3DFA"/>
</linearGradient>
</defs>
</svg>
