<svg width="463" height="512" viewBox="0 0 463 512" fill="none" xmlns="http://www.w3.org/2000/svg">
<path d="M428.789 381.575C412.821 381.575 399.425 392.756 395.993 407.697H233.657V399.098C233.657 390.894 227.8 383.747 219.729 382.103C209.217 379.956 199.011 376.521 189.34 371.875C158.021 356.849 134.429 330.526 122.907 297.754C111.386 264.983 113.318 229.686 128.345 198.367C146.108 161.343 179.407 135.395 219.703 127.176C227.789 125.526 233.657 118.375 233.657 110.171V99.9614H395.993C399.425 114.902 412.821 126.084 428.789 126.084C447.348 126.084 462.445 110.986 462.445 92.4276C462.445 73.8693 447.348 58.7716 428.789 58.7716C412.821 58.7716 399.425 69.9528 395.993 84.8938H233.657V44.0425H305.588C309.019 58.9845 322.415 70.1647 338.384 70.1647C356.942 70.1647 372.04 55.067 372.04 36.5087C372.04 17.9505 356.942 2.85272 338.384 2.85272C322.415 2.85272 309.019 14.0339 305.588 28.9749H233.657V17.3518C233.657 12.3383 231.49 7.57089 227.712 4.27108C225.855 2.64754 223.671 1.44038 221.308 0.730705C218.945 0.0210339 216.458 -0.17471 214.013 0.156624C192.554 3.07051 171.541 8.64417 151.458 16.7491C145.536 19.1408 140.817 23.9423 138.513 29.9212C137.367 32.9094 136.844 36.1008 136.978 39.2987C137.111 42.4966 137.898 45.6333 139.29 48.5156L152.849 76.4841C154.715 80.3333 153.317 85.0133 149.663 87.1379C133.009 96.8219 117.888 108.93 104.797 123.064C101.951 126.138 97.1004 126.47 93.7564 123.825L69.4071 104.57C66.9001 102.593 64.0144 101.151 60.9283 100.332C57.8421 99.5139 54.6209 99.3367 51.4636 99.8117C48.2915 100.299 45.253 101.432 42.5354 103.139C39.8178 104.846 37.4788 107.092 35.6627 109.738C20.4184 131.992 8.71871 156.475 0.981152 182.316C0.0633379 185.391 -0.21462 188.622 0.164427 191.809C0.543474 194.995 1.57149 198.071 3.18504 200.845C4.79947 203.6 6.96126 205.994 9.53702 207.881C12.1128 209.768 15.0479 211.108 18.1612 211.816L48.4411 218.662C52.6017 219.602 55.3872 223.586 54.7835 227.73C52.0088 246.795 52.0859 266.166 55.0126 285.208C55.6524 289.385 52.89 293.413 48.7233 294.38L18.4485 301.397C15.3403 302.122 12.4136 303.477 9.84877 305.376C7.28396 307.276 5.13542 309.681 3.53561 312.443C1.93663 315.225 0.924371 318.305 0.561231 321.494C0.198091 324.682 0.491759 327.911 1.42414 330.982C9.2873 356.804 21.1254 381.244 36.5126 403.422C38.3445 406.057 40.6969 408.289 43.4247 409.98C46.1525 411.67 49.1978 412.784 52.3727 413.253C55.533 413.708 58.753 413.511 61.8343 412.674C64.9155 411.837 67.7926 410.378 70.2881 408.386L94.6825 388.853C98.0095 386.19 102.882 386.513 105.778 389.592C108.564 392.553 112.23 395.902 116.674 399.545C118.219 400.812 120.205 401.413 122.193 401.216C124.181 401.02 126.01 400.041 127.277 398.496C128.544 396.951 129.145 394.965 128.948 392.977C128.751 390.989 127.772 389.16 126.227 387.893C122.283 384.661 119.096 381.759 116.755 379.27C108.515 370.508 94.6815 369.551 85.2653 377.093L60.8708 396.625C59.993 397.334 58.9773 397.853 57.8882 398.149C56.7992 398.445 55.6605 398.512 54.5445 398.344C53.4107 398.183 52.3228 397.787 51.3498 397.183C50.3767 396.579 49.5398 395.78 48.8921 394.835C34.3968 373.941 23.2447 350.916 15.8368 326.589C15.4968 325.495 15.3877 324.343 15.5165 323.205C15.6453 322.067 16.0093 320.968 16.5852 319.977C17.1447 318.998 17.9016 318.146 18.8078 317.474C19.7141 316.803 20.75 316.327 21.8498 316.077L52.1246 309.059C63.9225 306.325 71.7326 294.846 69.9044 282.926C67.2052 265.36 67.1341 247.489 69.6934 229.901C71.4222 218.022 63.5458 206.63 51.762 203.966L21.4831 197.12C20.3812 196.876 19.342 196.406 18.4314 195.739C17.5208 195.072 16.7587 194.223 16.1934 193.246C15.6127 192.259 15.2434 191.163 15.1091 190.026C14.9747 188.889 15.0782 187.736 15.4129 186.641C22.7044 162.292 33.729 139.221 48.0935 118.251C48.7352 117.303 49.567 116.499 50.536 115.889C51.5051 115.279 52.5903 114.878 53.7228 114.71C54.8378 114.535 55.9768 114.595 57.0676 114.884C58.1584 115.173 59.1771 115.686 60.0592 116.39L84.4084 135.645C93.8849 143.138 107.695 142.11 115.851 133.303C127.928 120.264 141.877 109.095 157.241 100.162C167.664 94.0971 171.69 80.8095 166.407 69.9116L152.848 41.9421C152.348 40.9204 152.065 39.8058 152.018 38.6691C151.971 37.5323 152.16 36.3982 152.574 35.3385C153.395 33.2069 155.003 31.5675 157.102 30.7197C176.024 23.0836 195.823 17.8322 216.043 15.0866C216.358 15.0411 216.678 15.0653 216.982 15.1574C217.286 15.2496 217.567 15.4075 217.803 15.62C218.097 15.8772 218.59 16.4437 218.59 17.3508V110.171C218.59 111.263 217.81 112.184 216.692 112.412C171.734 121.581 134.583 150.535 114.761 191.849C97.9924 226.796 95.8377 266.182 108.693 302.751C121.549 339.319 147.875 368.693 182.823 385.46C193.611 390.641 204.997 394.473 216.723 396.867C217.822 397.091 218.589 398.009 218.589 399.098V494.647C218.589 495.553 218.097 496.12 217.804 496.377C217.57 496.589 217.291 496.748 216.989 496.84C216.686 496.933 216.367 496.957 216.054 496.912C196.364 494.287 176.958 489.181 158.372 481.733C157.336 481.321 156.396 480.698 155.613 479.905C154.829 479.111 154.219 478.164 153.82 477.122C153.403 476.067 153.209 474.936 153.251 473.802C153.293 472.668 153.57 471.555 154.064 470.533L154.108 470.439L169.382 437.354C173.353 428.75 170.318 418.424 162.318 413.333C157.391 410.202 152.515 406.993 147.69 403.707C146.873 403.149 145.954 402.758 144.985 402.556C144.017 402.354 143.018 402.344 142.046 402.528C141.073 402.712 140.147 403.085 139.319 403.628C138.491 404.17 137.779 404.869 137.221 405.687C136.664 406.504 136.273 407.424 136.071 408.392C135.869 409.361 135.859 410.359 136.043 411.332C136.227 412.304 136.6 413.23 137.142 414.058C137.684 414.886 138.384 415.599 139.201 416.156C144.158 419.531 149.168 422.828 154.23 426.045C155.036 426.561 155.628 427.35 155.899 428.267C156.169 429.184 156.1 430.169 155.702 431.039L140.449 464.08C139.086 466.959 138.324 470.086 138.209 473.269C138.094 476.452 138.629 479.625 139.782 482.595C142.107 488.561 146.841 493.344 152.768 495.72C172.514 503.632 193.137 509.059 214.064 511.848C216.505 512.172 218.987 511.971 221.344 511.258C223.701 510.545 225.878 509.337 227.73 507.715C229.592 506.085 231.084 504.076 232.106 501.822C233.129 499.569 233.658 497.123 233.658 494.648V478.684H305.589C309.02 493.626 322.416 504.807 338.385 504.807C356.943 504.807 372.041 489.709 372.041 471.151C372.041 452.592 356.943 437.495 338.385 437.495C322.416 437.495 309.02 448.676 305.589 463.617H233.658V422.766H395.994C399.426 437.708 412.822 448.888 428.79 448.888C447.349 448.888 462.446 433.79 462.446 415.232C462.446 396.674 447.347 381.575 428.789 381.575ZM428.789 73.8382C439.039 73.8382 447.378 82.1766 447.378 92.4266C447.378 102.677 439.039 111.015 428.789 111.015C418.539 111.015 410.2 102.677 410.2 92.4266C410.2 82.1766 418.539 73.8382 428.789 73.8382ZM338.384 17.9203C348.634 17.9203 356.972 26.2587 356.972 36.5087C356.972 46.7587 348.634 55.0971 338.384 55.0971C328.134 55.0971 319.794 46.7587 319.794 36.5087C319.794 26.2587 328.134 17.9203 338.384 17.9203ZM338.384 452.56C348.634 452.56 356.972 460.899 356.972 471.149C356.972 481.399 348.634 489.737 338.384 489.737C328.134 489.737 319.794 481.399 319.794 471.149C319.794 460.899 328.134 452.56 338.384 452.56ZM428.789 433.82C418.539 433.82 410.2 425.482 410.2 415.232C410.2 404.982 418.539 396.643 428.789 396.643C439.039 396.643 447.378 404.982 447.378 415.232C447.378 425.482 439.039 433.82 428.789 433.82Z" fill="url(#paint0_linear_589_13)"/>
<path d="M239.856 230.139C244.018 230.139 247.39 226.766 247.39 222.606C247.39 218.445 244.018 215.072 239.856 215.072H212.575C210.577 215.072 208.66 215.866 207.248 217.278C205.835 218.691 205.041 220.608 205.041 222.606V287.351C205.041 289.349 205.835 291.265 207.248 292.678C208.66 294.091 210.577 294.885 212.575 294.885H239.856C244.018 294.885 247.39 291.512 247.39 287.351C247.39 283.19 244.018 279.817 239.856 279.817H220.109V262.512H237.844C242.006 262.512 245.378 259.139 245.378 254.978C245.378 250.817 242.006 247.444 237.844 247.444H220.109V230.138H239.856V230.139ZM323.825 239.289C323.825 225.771 312.396 214.773 298.349 214.773H280.964C278.966 214.773 277.049 215.567 275.636 216.98C274.224 218.393 273.43 220.309 273.43 222.307V287.649C273.43 291.81 276.802 295.183 280.964 295.183C285.125 295.183 288.497 291.81 288.497 287.649V267.473L310.636 292.627C311.342 293.431 312.213 294.076 313.189 294.517C314.165 294.957 315.223 295.185 316.294 295.183C317.743 295.183 319.161 294.764 320.378 293.978C321.595 293.192 322.56 292.072 323.157 290.751C323.753 289.431 323.956 287.966 323.742 286.533C323.527 285.1 322.904 283.76 321.947 282.672L304.668 263.04C315.668 260.329 323.825 250.71 323.825 239.289ZM298.348 248.738C296.082 248.738 292.142 248.755 288.596 248.772C288.577 245.303 288.561 241.479 288.561 239.29C288.561 237.434 288.551 233.474 288.541 229.842H298.349C303.991 229.842 308.757 234.169 308.757 239.29C308.757 244.411 303.991 248.738 298.348 248.738ZM351.914 287.65C351.914 291.811 355.286 295.184 359.448 295.184C363.609 295.184 366.982 291.811 366.982 287.65V266.761C370.802 266.741 375.174 266.722 377.641 266.722C392.162 266.722 403.976 255.07 403.976 240.748C403.976 226.427 392.162 214.774 377.641 214.774H359.448C358.456 214.775 357.475 214.97 356.559 215.351C355.644 215.731 354.812 216.288 354.112 216.99C353.412 217.692 352.858 218.525 352.481 219.442C352.104 220.359 351.911 221.341 351.914 222.332V287.65ZM377.641 229.842C383.749 229.842 388.908 234.837 388.908 240.748C388.908 246.66 383.749 251.654 377.641 251.654C375.192 251.654 370.872 251.673 367.066 251.693C367.046 247.764 367.015 233.954 367.004 229.843H377.641V229.842Z" fill="url(#paint1_linear_589_13)"/>
<path d="M288.842 174.232H233.196C188.118 174.232 151.443 210.905 151.443 255.983C151.443 301.062 188.118 337.736 233.196 337.736H369.791C414.869 337.736 451.544 301.063 451.544 255.983C451.544 210.905 414.869 174.232 369.791 174.232H318.976C314.814 174.232 311.442 177.605 311.442 181.765C311.442 185.926 314.814 189.299 318.976 189.299H369.791C406.561 189.299 436.476 219.213 436.476 255.983C436.476 292.753 406.562 322.669 369.791 322.669H233.196C196.426 322.669 166.511 292.753 166.511 255.983C166.511 219.213 196.425 189.299 233.196 189.299H288.842C290.84 189.299 292.756 188.505 294.169 187.093C295.582 185.68 296.376 183.763 296.376 181.765C296.376 179.767 295.582 177.851 294.169 176.438C292.756 175.025 290.84 174.232 288.842 174.232Z" fill="url(#paint2_linear_589_13)"/>
<defs>
<linearGradient id="paint0_linear_589_13" x1="16.5" y1="33" x2="508.5" y2="543" gradientUnits="userSpaceOnUse">
<stop stop-color="#1BA2D7"/>
<stop offset="1" stop-color="#8D3DFA"/>
</linearGradient>
<linearGradient id="paint1_linear_589_13" x1="212.139" y1="219.956" x2="260.593" y2="357.53" gradientUnits="userSpaceOnUse">
<stop stop-color="#1BA2D7"/>
<stop offset="1" stop-color="#8D3DFA"/>
</linearGradient>
<linearGradient id="paint2_linear_589_13" x1="162.151" y1="184.77" x2="283.971" y2="441.377" gradientUnits="userSpaceOnUse">
<stop stop-color="#1BA2D7"/>
<stop offset="1" stop-color="#8D3DFA"/>
</linearGradient>
</defs>
</svg>
