<svg width="493" height="450" viewBox="0 0 493 450" fill="none" xmlns="http://www.w3.org/2000/svg">
<path d="M159.533 72.589V77.187C159.533 80.712 156.672 83.572 153.148 83.572C149.624 83.572 146.763 80.711 146.763 77.187V72.589C146.763 54.046 131.642 38.926 113.048 38.926H64.416C61.453 53.791 48.274 65.08 32.54 65.08C14.61 65.08 0 50.47 0 32.54C0 14.559 14.61 0 32.54 0C48.274 0 61.453 11.238 64.467 26.155H113.047C138.691 26.155 159.533 46.997 159.533 72.589ZM159.533 372.497V377.043C159.533 402.687 138.691 423.529 113.048 423.529H64.416C61.453 438.445 48.274 449.683 32.54 449.683C14.61 449.683 0 435.073 0 417.143C0 399.213 14.61 384.603 32.54 384.603C48.274 384.603 61.453 395.841 64.416 410.757H113.047C131.641 410.757 146.762 395.636 146.762 377.042V372.496C146.762 368.971 149.623 366.111 153.147 366.111C156.671 366.111 159.533 368.973 159.533 372.497ZM492.951 417.144C492.951 435.074 478.341 449.684 460.411 449.684C444.626 449.684 431.447 438.446 428.484 423.53H379.904C354.26 423.53 333.418 402.688 333.418 377.044V372.498C333.419 370.805 334.091 369.181 335.289 367.984C336.486 366.786 338.11 366.114 339.803 366.113C341.496 366.114 343.12 366.786 344.317 367.984C345.515 369.181 346.187 370.805 346.188 372.498V377.044C346.188 395.638 361.309 410.759 379.903 410.759H428.483C431.446 395.843 444.625 384.605 460.41 384.605C478.341 384.604 492.951 399.214 492.951 417.144ZM333.419 77.187V72.589C333.419 46.996 354.261 26.155 379.905 26.155H428.485C431.448 11.239 444.627 0 460.412 0C478.342 0 492.952 14.559 492.952 32.54C492.952 50.47 478.342 65.08 460.412 65.08C444.627 65.08 431.499 53.791 428.485 38.926H379.905C361.311 38.926 346.19 54.046 346.19 72.589V77.187C346.189 78.8802 345.517 80.504 344.319 81.7013C343.122 82.8986 341.498 83.5715 339.805 83.572C338.112 83.5715 336.488 82.8986 335.29 81.7014C334.093 80.5041 333.42 78.8803 333.419 77.187ZM375.001 119.637L273.346 60.891C256.744 51.339 236.157 51.339 219.607 60.891L117.952 119.636C101.35 129.188 91.082 147.016 91.082 166.172V283.509C91.082 302.614 101.35 320.442 117.952 330.046L219.606 388.742C236.208 398.346 256.794 398.294 273.345 388.742L375 330.048C391.551 320.444 401.87 302.667 401.87 283.511V166.173C401.87 147.017 391.551 129.189 375.001 119.637ZM389.1 283.511C389.1 298.07 381.233 311.709 368.616 318.963L266.961 377.708C254.343 385.013 238.61 385.013 225.992 377.708L124.336 318.962C111.668 311.708 103.852 298.069 103.852 283.51V166.173C103.852 151.563 111.668 137.975 124.336 130.67L225.991 71.976C238.608 64.671 254.291 64.671 266.96 71.976L368.615 130.67C381.233 137.975 389.099 151.563 389.099 166.173V283.511H389.1Z" fill="url(#paint0_linear_589_26)"/>
<path d="M357.785 156.876L252.911 96.292C250.954 95.1625 248.734 94.5678 246.475 94.5678C244.215 94.5678 241.995 95.1625 240.038 96.292L135.114 156.876C133.173 158.051 131.947 160.145 131.947 162.393V287.24C131.946 288.356 132.237 289.454 132.793 290.422C133.349 291.39 134.149 292.195 135.114 292.757L240.038 353.393C242.49 354.823 244.891 355.079 246.475 355.079C248.059 355.079 250.408 354.824 252.911 353.393L357.784 292.757C358.763 292.207 359.577 291.405 360.142 290.435C360.708 289.466 361.005 288.363 361.002 287.24V162.393C361.003 160.146 359.777 158.051 357.785 156.876ZM348.232 283.562L246.526 342.307H246.424L144.718 283.562V166.122L246.527 107.325L348.233 166.122V283.562H348.232Z" fill="url(#paint1_linear_589_26)"/>
<path d="M211.372 191.412C210.533 191.412 209.703 191.577 208.928 191.898C208.153 192.219 207.449 192.689 206.857 193.282C206.264 193.875 205.793 194.579 205.472 195.353C205.152 196.128 204.987 196.958 204.987 197.797V229.841L182.543 194.382C181.801 193.214 180.702 192.319 179.408 191.828C178.115 191.338 176.698 191.28 175.369 191.663C174.04 192.048 172.873 192.855 172.042 193.961C171.211 195.067 170.762 196.413 170.762 197.796V251.867C170.762 255.394 173.62 258.252 177.147 258.252C180.674 258.252 183.532 255.394 183.532 251.867V219.823L205.976 255.282C206.716 256.45 207.815 257.347 209.109 257.837C210.402 258.327 211.82 258.384 213.148 257.999C214.477 257.614 215.644 256.808 216.475 255.702C217.306 254.597 217.756 253.251 217.757 251.868V197.797C217.757 196.958 217.592 196.128 217.271 195.353C216.95 194.579 216.48 193.875 215.887 193.282C215.294 192.689 214.59 192.219 213.815 191.898C213.041 191.577 212.21 191.412 211.372 191.412ZM262.12 231.218C265.647 231.218 268.505 228.36 268.505 224.833C268.505 221.306 265.647 218.448 262.12 218.448H241.47V204.183H262.12C265.647 204.183 268.505 201.325 268.505 197.798C268.505 194.271 265.647 191.413 262.12 191.413H235.084C234.245 191.413 233.415 191.578 232.64 191.899C231.865 192.22 231.161 192.69 230.569 193.283C229.976 193.876 229.505 194.58 229.184 195.354C228.864 196.129 228.699 196.959 228.699 197.798V251.87C228.699 255.397 231.557 258.255 235.084 258.255C238.611 258.255 241.469 255.397 241.469 251.87V231.22H262.12V231.218ZM282.935 204.183H292.974V251.869C292.974 255.396 295.832 258.254 299.359 258.254C302.886 258.254 305.744 255.396 305.744 251.869V204.183H315.786C319.313 204.183 322.171 201.325 322.171 197.798C322.171 194.271 319.313 191.413 315.786 191.413H282.934C281.24 191.413 279.616 192.086 278.419 193.283C277.222 194.481 276.549 196.105 276.549 197.798C276.549 199.492 277.222 201.116 278.42 202.313C279.617 203.511 281.241 204.183 282.935 204.183Z" fill="url(#paint2_linear_589_26)"/>
<defs>
<linearGradient id="paint0_linear_589_26" x1="-0.999999" y1="-31.5" x2="477.5" y2="465" gradientUnits="userSpaceOnUse">
<stop stop-color="#1BA2D7"/>
<stop offset="1" stop-color="#8D3DFA"/>
</linearGradient>
<linearGradient id="paint1_linear_589_26" x1="131.483" y1="76.3192" x2="404.265" y2="303.342" gradientUnits="userSpaceOnUse">
<stop stop-color="#1BA2D7"/>
<stop offset="1" stop-color="#8D3DFA"/>
</linearGradient>
<linearGradient id="paint2_linear_589_26" x1="170.455" y1="186.73" x2="224.985" y2="303.646" gradientUnits="userSpaceOnUse">
<stop stop-color="#1BA2D7"/>
<stop offset="1" stop-color="#8D3DFA"/>
</linearGradient>
</defs>
</svg>
