<svg width="693" height="800" viewBox="0 0 693 800" fill="none" xmlns="http://www.w3.org/2000/svg">
<path d="M346.4 0L0 200V600L346.4 800L692.8 600V200L346.4 0ZM310.633 48.1667H310.667C320.986 55.7838 333.474 59.8938 346.3 59.8938C359.126 59.8938 371.614 55.7838 381.933 48.1667L633.067 193.167C632.562 197.63 632.562 202.136 633.067 206.6L381.9 351.6C371.584 343.991 359.102 339.885 346.283 339.885C333.465 339.885 320.983 343.991 310.667 351.6L59.4667 206.6C59.9684 202.147 59.9684 197.653 59.4667 193.2L310.633 48.1667ZM657.2 246.667C660.833 249.333 664.733 251.567 668.833 253.367V543.367C657.075 548.495 647.269 557.258 640.856 568.368C634.443 579.479 631.76 592.353 633.2 605.1L382.033 750.1C378.417 747.45 374.515 745.214 370.4 743.433L370.1 455C381.859 449.878 391.667 441.123 398.086 430.019C404.505 418.915 407.197 406.046 405.767 393.3L657.2 246.667ZM35.6 248.267L286.767 393.267C285.326 406.014 288.009 418.888 294.423 429.998C300.836 441.109 310.641 449.871 322.4 455V745C318.267 746.8 314.4 749.067 310.767 751.733L59.6 606.733C61.0404 593.986 58.3572 581.112 51.944 570.002C45.5308 558.891 35.7254 550.129 23.9667 545V255C28.1 253.2 31.9333 250.933 35.6 248.267Z" fill="url(#paint0_linear_589_82)"/>
<defs>
<linearGradient id="paint0_linear_589_82" x1="107.5" y1="35" x2="622" y2="761.5" gradientUnits="userSpaceOnUse">
<stop stop-color="#1BA2D7"/>
<stop offset="1" stop-color="#8D3DFA"/>
</linearGradient>
</defs>
</svg>
