<svg width="513" height="497" viewBox="0 0 513 497" fill="none" xmlns="http://www.w3.org/2000/svg">
<path d="M473.938 442.875V172.781C473.938 158.974 462.745 147.781 448.938 147.781H64.062C50.255 147.781 39.062 158.974 39.062 172.781V442.875M77.351 442.875H15.5C13.5109 442.875 11.6032 443.665 10.1967 445.072C8.79018 446.478 8 448.386 8 450.375V464.469C8 478.276 19.193 489.469 33 489.469H480C493.807 489.469 505 478.276 505 464.469V450.375C505 448.386 504.21 446.478 502.803 445.072C501.397 443.665 499.489 442.875 497.5 442.875H318.625L310.416 451.084C308.094 453.406 305.338 455.247 302.305 456.503C299.272 457.76 296.021 458.406 292.738 458.406H220.261C213.631 458.406 207.272 455.772 202.583 451.084L194.374 442.875H112.35" stroke="#13C4A1" stroke-width="15" stroke-miterlimit="10" stroke-linecap="round" stroke-linejoin="round"/>
<path d="M70.125 178.844H442.875V411.813H70.125V178.844Z" stroke="#13C4A1" stroke-width="15" stroke-miterlimit="10" stroke-linecap="round" stroke-linejoin="round"/>
<path d="M310.859 260.328V240.969H334.156C342.734 240.969 349.687 234.015 349.687 225.438C349.687 216.861 342.733 209.907 334.156 209.907H256.5C247.922 209.907 240.969 216.861 240.969 225.438C240.969 234.015 247.923 240.969 256.5 240.969H279.797V365.219C279.797 373.797 286.751 380.75 295.328 380.75C303.905 380.75 310.859 373.796 310.859 365.219V295.328M344.358 59.9233L377.821 26.4603C379.696 24.585 382.24 23.5314 384.892 23.5312H411.812M194.375 380.75C202.953 380.75 209.906 373.796 209.906 365.219V225.437C209.906 216.859 202.952 209.906 194.375 209.906C185.798 209.906 178.844 216.86 178.844 225.437V365.218C178.844 373.796 185.797 380.75 194.375 380.75Z" stroke="#13C4A1" stroke-width="15" stroke-miterlimit="10" stroke-linecap="round" stroke-linejoin="round"/>
<path d="M427.344 39.062C435.922 39.062 442.875 32.1085 442.875 23.531C442.875 14.9535 435.922 8 427.344 8C418.766 8 411.813 14.9535 411.813 23.531C411.813 32.1085 418.766 39.062 427.344 39.062Z" stroke="#13C4A1" stroke-width="15" stroke-miterlimit="10" stroke-linecap="round" stroke-linejoin="round"/>
<path d="M442.875 116.718C451.453 116.718 458.406 109.765 458.406 101.187C458.406 92.6097 451.453 85.6562 442.875 85.6562C434.297 85.6562 427.344 92.6097 427.344 101.187C427.344 109.765 434.297 116.718 442.875 116.718Z" stroke="#13C4A1" stroke-width="15" stroke-miterlimit="10" stroke-linecap="round" stroke-linejoin="round"/>
<path d="M168.642 59.9233L135.179 26.4603C133.304 24.585 130.76 23.5314 128.108 23.5312H101.188" stroke="#13C4A1" stroke-width="15" stroke-miterlimit="10" stroke-linecap="round" stroke-linejoin="round"/>
<path d="M85.656 39.062C94.2335 39.062 101.187 32.1085 101.187 23.531C101.187 14.9535 94.2335 8 85.656 8C77.0785 8 70.125 14.9535 70.125 23.531C70.125 32.1085 77.0785 39.062 85.656 39.062Z" stroke="#13C4A1" stroke-width="15" stroke-miterlimit="10" stroke-linecap="round" stroke-linejoin="round"/>
<path d="M427.344 101.188H350.773" stroke="#13C4A1" stroke-width="15" stroke-miterlimit="10" stroke-linecap="round" stroke-linejoin="round"/>
<path d="M70.125 116.718C78.7025 116.718 85.656 109.765 85.656 101.187C85.656 92.6097 78.7025 85.6562 70.125 85.6562C61.5475 85.6562 54.594 92.6097 54.594 101.187C54.594 109.765 61.5475 116.718 70.125 116.718Z" stroke="#13C4A1" stroke-width="15" stroke-miterlimit="10" stroke-linecap="round" stroke-linejoin="round"/>
<path d="M85.656 101.187H162.227M380.75 147.781V133.301C380.75 131.908 380.362 130.543 379.63 129.358C378.898 128.173 377.85 127.216 376.604 126.593L359.795 118.188C358.042 117.318 356.703 115.791 356.069 113.939C354.602 109.623 352.855 105.407 350.837 101.318C349.974 99.5591 349.84 97.5307 350.464 95.6733L356.409 77.8372C356.849 76.5159 356.913 75.098 356.593 73.7424C356.273 72.3868 355.582 71.1471 354.597 70.1623L334.119 49.6842C333.134 48.6993 331.894 48.0081 330.539 47.6881C329.183 47.3681 327.765 47.4318 326.444 47.8722L308.608 53.8172C306.751 54.4414 304.722 54.3074 302.963 53.4442C298.875 51.4269 294.659 49.6792 290.342 48.2122C288.491 47.5776 286.964 46.2389 286.093 44.4862L277.688 27.6772C277.065 26.4314 276.108 25.3836 274.923 24.6513C273.738 23.919 272.373 23.5312 270.98 23.5313H242.02C240.627 23.5312 239.262 23.919 238.077 24.6513C236.892 25.3836 235.935 26.4314 235.312 27.6772L226.907 44.4862C226.036 46.2391 224.51 47.5779 222.658 48.2122C218.341 49.6788 214.125 51.4266 210.037 53.4442C208.278 54.3068 206.249 54.4409 204.392 53.8172L186.556 47.8722C185.235 47.4318 183.817 47.3681 182.461 47.6881C181.106 48.0081 179.866 48.6993 178.881 49.6842L158.403 70.1623C157.418 71.1471 156.727 72.3868 156.407 73.7424C156.087 75.098 156.151 76.5159 156.591 77.8372L162.536 95.6733C163.16 97.5306 163.026 99.5592 162.163 101.318C160.146 105.407 158.398 109.623 156.931 113.939C156.296 115.791 154.958 117.317 153.205 118.188L136.396 126.593C135.15 127.216 134.102 128.174 133.37 129.358C132.638 130.543 132.25 131.908 132.25 133.301V147.781" stroke="#13C4A1" stroke-width="15" stroke-miterlimit="10" stroke-linecap="round" stroke-linejoin="round"/>
<path d="M252.444 101.361C253.793 101.245 255.146 101.187 256.5 101.188C282.233 101.188 303.094 122.048 303.094 147.781M209.906 147.781C209.89 136.888 213.706 126.336 220.687 117.972" stroke="#13C4A1" stroke-width="15" stroke-miterlimit="10" stroke-linecap="round" stroke-linejoin="round"/>
</svg>
