<svg width="461" height="462" viewBox="0 0 461 462" fill="none" xmlns="http://www.w3.org/2000/svg">
<path d="M439.808 261.632L439.296 191.488C439.296 178.176 428.544 167.424 415.744 167.424H401.92V110.08C401.92 98.304 392.192 88.064 379.904 88.064H332.288C319.488 37.376 273.408 0 218.624 0C163.84 0 117.76 37.376 104.96 88.064H47.616C21.504 88.064 0 109.568 0 135.68V413.696C0 439.808 21.504 461.312 47.616 461.312H415.744C429.056 461.312 439.296 450.56 439.296 437.248V355.84H439.808C451.584 355.84 460.8 346.624 460.8 334.848V282.624C460.8 270.848 451.584 261.632 439.808 261.632ZM379.904 103.424C383.488 103.424 386.56 106.496 386.56 110.08V167.424H324.608C331.776 151.552 335.872 134.656 335.872 117.248C335.872 112.64 335.36 108.032 334.848 103.424H379.904ZM218.624 15.36C274.944 15.36 320.512 60.928 320.512 117.248C320.512 135.168 315.904 152.064 307.2 167.424H239.104L266.752 121.344C268.288 118.784 268.288 115.712 266.752 113.664L225.28 44.032C223.744 41.472 221.184 40.448 218.624 40.448C216.064 40.448 213.504 41.984 211.968 44.032L170.496 113.664C168.96 116.224 168.96 119.296 170.496 121.344L198.144 167.424H130.048C121.344 152.064 116.736 134.656 116.736 117.248C116.736 60.928 162.304 15.36 218.624 15.36ZM216.576 137.216C217.088 137.216 218.112 137.728 218.624 137.728C219.136 137.728 220.16 137.728 220.672 137.216L243.2 130.56L221.184 167.424H216.064L194.048 130.56L216.576 137.216ZM188.416 112.64L218.624 62.464L248.832 112.64L218.624 121.856L188.416 112.64ZM47.616 103.424H102.4C101.888 108.032 101.376 112.64 101.376 117.248C101.376 134.656 105.472 152.064 112.64 167.424H47.616C30.208 167.424 15.36 153.088 15.36 135.68C15.36 117.76 29.696 103.424 47.616 103.424ZM423.936 436.736C423.936 441.344 420.352 445.44 415.744 445.44H47.616C29.696 445.44 15.36 431.104 15.36 413.184V170.496C23.552 178.176 34.816 182.784 47.616 182.784H415.744C420.352 182.784 423.936 186.368 423.936 191.488V261.632H385.024C358.912 261.632 337.92 282.624 337.92 308.736C337.92 334.848 358.912 355.84 385.024 355.84H423.936V436.736ZM445.44 334.848C445.44 337.92 442.88 340.48 439.808 340.48H385.024C367.616 340.48 353.28 326.144 353.28 308.736C353.28 291.328 367.616 276.992 385.024 276.992H439.808C442.88 276.992 445.44 279.552 445.44 282.624V334.848Z" fill="url(#paint0_linear_589_54)"/>
<path d="M399.361 301.056C395.265 301.056 391.681 304.64 391.681 308.736C391.681 312.832 395.265 316.416 399.361 316.416C403.457 316.416 407.041 312.832 407.041 308.736C407.041 304.64 403.457 301.056 399.361 301.056ZM151.041 344.576V283.648C151.041 279.552 147.457 275.968 143.361 275.968C139.265 275.968 135.681 279.552 135.681 283.648V317.44L112.641 279.552C110.593 276.48 107.521 275.456 103.937 275.968C100.865 276.992 98.3047 280.064 98.3047 283.136V344.064C98.3047 348.16 101.889 351.744 105.985 351.744C110.081 351.744 113.665 348.16 113.665 344.064V310.272L136.705 348.16C138.241 350.72 140.801 351.744 143.361 351.744C143.873 351.744 144.897 351.744 145.409 351.232C148.481 351.232 151.041 348.16 151.041 344.576ZM220.673 291.328C224.769 291.328 228.353 287.744 228.353 283.648C228.353 279.552 224.769 275.968 220.673 275.968H183.297C179.201 275.968 175.617 279.552 175.617 283.648V344.576C175.617 348.672 179.201 352.256 183.297 352.256C187.393 352.256 190.977 348.672 190.977 344.576V324.608H220.673C224.769 324.608 228.353 321.024 228.353 316.928C228.353 312.832 224.769 309.248 220.673 309.248H190.977V291.328H220.673ZM302.081 275.968H261.121C257.025 275.968 253.441 279.552 253.441 283.648C253.441 287.744 257.025 291.328 261.121 291.328H273.921V344.576C273.921 348.672 277.505 352.256 281.601 352.256C285.697 352.256 289.281 348.672 289.281 344.576V291.328H302.081C306.177 291.328 309.761 287.744 309.761 283.648C309.761 279.552 306.177 275.968 302.081 275.968ZM248.321 373.76L203.777 405.504L159.745 373.76C156.161 371.2 151.553 372.224 148.993 375.296C146.433 378.88 147.457 383.488 150.529 386.048L199.169 421.376C200.705 422.4 202.241 422.912 203.777 422.912C205.313 422.912 206.849 422.4 208.385 421.376L257.025 386.048C260.609 383.488 261.121 378.88 258.561 375.296C256.513 371.712 251.393 371.2 248.321 373.76ZM159.745 254.976L204.289 223.232L248.833 254.976C250.369 256 251.905 256.512 253.441 256.512C256.001 256.512 258.049 255.488 259.585 253.44C262.145 249.856 261.121 245.248 258.049 242.688L209.409 207.36C206.849 205.312 203.265 205.312 200.193 207.36L151.553 242.688C147.969 245.248 147.457 249.856 150.017 253.44C151.553 256.512 156.161 257.536 159.745 254.976Z" fill="url(#paint1_linear_589_54)"/>
<defs>
<linearGradient id="paint0_linear_589_54" x1="33" y1="14.5" x2="444" y2="488.5" gradientUnits="userSpaceOnUse">
<stop stop-color="#1BA2D7"/>
<stop offset="1" stop-color="#8D3DFA"/>
</linearGradient>
<linearGradient id="paint1_linear_589_54" x1="120.415" y1="212.648" x2="294.01" y2="497.689" gradientUnits="userSpaceOnUse">
<stop stop-color="#1BA2D7"/>
<stop offset="1" stop-color="#8D3DFA"/>
</linearGradient>
</defs>
</svg>
