<svg width="460" height="461" viewBox="0 0 460 461" fill="none" xmlns="http://www.w3.org/2000/svg">
<path fill-rule="evenodd" clip-rule="evenodd" d="M97.5973 143.349V56.9733C97.5978 55.1242 98.3324 53.3509 99.6395 52.0429C100.947 50.735 102.72 49.9995 104.569 49.9978H187.155L170.38 33.2257C169.073 31.9164 168.339 30.1418 168.339 28.2916C168.339 26.4414 169.073 24.6668 170.38 23.3574C173.107 20.6326 177.527 20.6326 180.242 23.3574L208.928 52.0346C208.945 52.053 208.957 52.0714 208.975 52.0899H208.981C208.981 52.0991 208.981 52.0991 208.993 52.0991C208.993 52.1073 208.993 52.1073 209.004 52.1073V52.1165C209.011 52.1165 209.011 52.1257 209.022 52.1257C211.636 54.8567 211.634 59.0991 208.992 61.8465H208.98C208.98 61.8557 208.974 61.8557 208.974 61.865C208.962 61.865 208.962 61.8742 208.956 61.8742V61.8834C208.944 61.8834 208.944 61.8834 208.944 61.8926C208.938 61.8926 208.938 61.9018 208.927 61.9018L180.241 90.5882C177.526 93.314 173.106 93.314 170.379 90.5882C169.072 89.2783 168.338 87.5034 168.338 85.653C168.338 83.8025 169.072 82.0277 170.379 80.7178L187.154 63.9478H111.55V143.348C111.55 144.264 111.369 145.172 111.018 146.019C110.667 146.865 110.153 147.635 109.504 148.282C108.856 148.93 108.086 149.444 107.239 149.794C106.392 150.144 105.484 150.324 104.568 150.323C100.723 150.325 97.5973 147.199 97.5973 143.349ZM446.174 285.471C446.823 286.118 447.337 286.888 447.688 287.734C448.039 288.581 448.22 289.488 448.22 290.405C448.22 291.321 448.039 292.229 447.688 293.076C447.337 293.922 446.823 294.691 446.174 295.339C444.865 296.647 443.091 297.383 441.24 297.383C439.389 297.383 437.614 296.647 436.306 295.339L419.537 278.568V384.886C419.536 386.736 418.801 388.511 417.493 389.819C416.185 391.127 414.411 391.863 412.56 391.863H336.529C334.679 391.863 332.904 391.127 331.596 389.819C330.288 388.511 329.552 386.736 329.552 384.886C329.551 383.969 329.732 383.062 330.082 382.216C330.433 381.369 330.947 380.6 331.595 379.952C332.243 379.304 333.012 378.79 333.859 378.44C334.706 378.09 335.613 377.91 336.529 377.91H405.583V278.569L388.802 295.34C388.155 295.988 387.386 296.502 386.54 296.853C385.694 297.203 384.787 297.384 383.871 297.384C382.955 297.384 382.049 297.203 381.202 296.853C380.356 296.502 379.588 295.988 378.94 295.34C377.633 294.031 376.899 292.256 376.899 290.406C376.899 288.556 377.633 286.781 378.94 285.472L407.649 256.766C410.585 254.026 414.808 254.116 417.488 256.794L446.174 285.471ZM358.934 141.154C358.589 136.083 356.09 132.354 351.097 129.453C342.888 124.911 333.585 128.616 322.37 122.15C310.407 115.044 307.685 105.371 307.515 98.5047C307.503 98.3561 307.503 98.2068 307.515 98.0582C307.931 87.6216 313.145 79.4368 322.593 74.3854C325.812 72.5996 329.312 71.3421 333.04 70.6263V63.7819C333.04 59.9204 336.166 56.8064 340.017 56.8064C343.868 56.8064 346.994 59.9204 346.994 63.7819V70.4788C355.241 71.5581 362.633 74.1345 369.44 78.294C372.717 80.3011 373.759 84.5998 371.752 87.8828C371.275 88.6649 370.648 89.3454 369.908 89.8852C369.168 90.425 368.329 90.8136 367.438 91.0287C366.548 91.2438 365.623 91.2813 364.719 91.1389C363.814 90.9966 362.946 90.6772 362.164 90.199C355.755 86.2822 348.544 84.2189 340.128 83.8933C336.576 83.8246 331.917 85.0125 329.328 86.5997C329.29 86.626 329.249 86.6474 329.206 86.6632C324.137 89.3706 321.743 92.9894 321.467 98.3828C321.59 101.499 322.609 106.019 329.375 110.084C337.163 114.488 346.901 110.959 357.955 117.302C367.238 122.653 372.401 130.789 372.899 140.836C372.905 141.079 372.905 141.32 372.886 141.563C371.924 156.545 361.104 166.329 346.992 168.937V175.728C346.992 179.578 343.867 182.703 340.016 182.703C336.165 182.703 333.039 179.578 333.039 175.728V169.068C325.208 168.034 317.669 165.43 310.581 161.283C307.251 159.336 306.127 155.059 308.07 151.737C309.005 150.14 310.536 148.979 312.326 148.51C314.116 148.041 316.019 148.303 317.617 149.237C326.962 154.698 341.049 158.434 351.149 152.865C356.108 150.092 358.542 146.466 358.934 141.154ZM340.018 42.0065C297.144 42.0065 262.267 76.8778 262.267 119.75C262.267 162.622 297.145 197.503 340.018 197.503C382.886 197.503 417.758 162.622 417.758 119.75C417.758 76.8789 382.886 42.0065 340.018 42.0065ZM340.018 211.457C390.582 211.457 431.711 170.315 431.711 119.75C431.711 69.1866 390.582 28.0535 340.018 28.0535C289.454 28.0535 248.313 69.1866 248.313 119.75C248.313 170.315 289.453 211.457 340.018 211.457ZM340.018 13.954C281.675 13.954 234.218 61.4205 234.218 119.75C234.218 178.09 281.675 225.547 340.018 225.547C398.355 225.547 445.812 178.09 445.812 119.75C445.812 61.4205 398.355 13.954 340.018 13.954ZM340.018 239.501C406.052 239.501 459.766 185.784 459.766 119.75C459.766 53.717 406.053 0 340.018 0C273.983 0 220.264 53.718 220.264 119.75C220.264 185.784 273.984 239.501 340.018 239.501ZM240.229 405.35C228.945 405.35 219.762 396.168 219.762 384.886C219.762 373.593 228.945 364.423 240.229 364.423C251.508 364.423 260.692 373.594 260.692 384.886C260.692 396.168 251.508 405.35 240.229 405.35ZM240.229 350.469C221.253 350.469 205.814 365.902 205.814 384.886C205.814 403.863 221.253 419.302 240.229 419.302C259.21 419.302 274.645 403.863 274.645 384.886C274.645 365.902 259.211 350.469 240.229 350.469ZM301.832 389.044V380.72L292.186 377.586C291.069 377.223 290.062 376.583 289.258 375.726C288.455 374.868 287.881 373.822 287.591 372.684C286.443 368.241 284.673 363.982 282.335 360.033C281.738 359.02 281.406 357.872 281.37 356.696C281.334 355.52 281.596 354.355 282.13 353.307L286.736 344.267L280.848 338.377L271.805 342.982C270.757 343.517 269.591 343.778 268.415 343.74C267.239 343.703 266.092 343.369 265.08 342.769C261.13 340.436 256.872 338.669 252.431 337.522C251.292 337.231 250.246 336.658 249.388 335.854C248.531 335.051 247.89 334.043 247.526 332.926L244.389 323.28H236.06L232.934 332.926C232.569 334.043 231.929 335.049 231.071 335.853C230.214 336.656 229.167 337.23 228.029 337.522C223.585 338.671 219.324 340.437 215.37 342.769C214.36 343.369 213.214 343.703 212.04 343.74C210.866 343.777 209.702 343.516 208.656 342.982L199.613 338.377L193.725 344.267L198.331 353.307C198.865 354.355 199.125 355.522 199.087 356.698C199.05 357.874 198.715 359.021 198.114 360.033C195.779 363.982 194.014 368.241 192.87 372.684C192.577 373.821 192.003 374.866 191.2 375.722C190.397 376.579 189.391 377.22 188.276 377.586L178.629 380.72V389.044L188.276 392.179C189.391 392.544 190.397 393.185 191.2 394.041C192.003 394.898 192.578 395.943 192.87 397.081C194.014 401.523 195.78 405.782 198.114 409.731C198.715 410.743 199.05 411.89 199.087 413.066C199.125 414.243 198.865 415.409 198.331 416.458L193.725 425.498L199.613 431.385L208.656 426.78C209.704 426.245 210.87 425.984 212.046 426.022C213.222 426.06 214.369 426.394 215.381 426.995C219.328 429.333 223.586 431.098 228.029 432.24C229.168 432.532 230.215 433.108 231.073 433.913C231.93 434.718 232.57 435.726 232.934 436.845L236.06 446.481H244.389L247.526 436.835C247.891 435.718 248.531 434.711 249.389 433.908C250.246 433.105 251.293 432.531 252.431 432.24C256.873 431.093 261.131 429.328 265.08 426.995C266.092 426.394 267.239 426.06 268.415 426.022C269.591 425.985 270.757 426.245 271.805 426.78L280.848 431.385L286.736 425.498L282.13 416.458C281.596 415.41 281.334 414.244 281.37 413.068C281.406 411.892 281.738 410.745 282.335 409.731C284.673 405.782 286.442 401.523 287.591 397.081C287.883 395.943 288.457 394.897 289.26 394.04C290.063 393.183 291.069 392.543 292.186 392.179L301.832 389.044ZM310.969 369.009L300.006 365.456C298.993 362.328 297.73 359.286 296.231 356.359L301.47 346.089C302.138 344.777 302.374 343.286 302.144 341.831C301.913 340.376 301.229 339.031 300.188 337.989L287.124 324.929C286.083 323.887 284.738 323.201 283.282 322.971C281.827 322.74 280.336 322.976 279.023 323.644L268.758 328.882C265.829 327.384 262.786 326.121 259.657 325.105L256.098 314.147C255.644 312.746 254.757 311.525 253.566 310.66C252.374 309.794 250.939 309.328 249.467 309.329H230.999C229.525 309.33 228.09 309.796 226.897 310.661C225.704 311.526 224.815 312.746 224.356 314.147L220.804 325.105C217.677 326.123 214.634 327.383 211.703 328.873L201.442 323.643C200.128 322.975 198.636 322.74 197.18 322.971C195.724 323.201 194.379 323.886 193.335 324.927L180.277 337.988C179.234 339.028 178.547 340.373 178.317 341.829C178.086 343.285 178.324 344.776 178.995 346.088L184.222 356.358C182.732 359.289 181.471 362.33 180.452 365.455L169.495 369.008C168.095 369.465 166.874 370.354 166.009 371.547C165.144 372.74 164.678 374.176 164.679 375.649V394.112C164.678 395.586 165.144 397.022 166.009 398.215C166.874 399.408 168.095 400.296 169.495 400.754L180.452 404.307C181.472 407.432 182.732 410.474 184.222 413.404L178.995 423.674C178.324 424.986 178.086 426.477 178.317 427.933C178.547 429.389 179.234 430.734 180.277 431.775L193.335 444.835C194.378 445.877 195.724 446.562 197.18 446.792C198.637 447.023 200.128 446.786 201.442 446.117L211.709 440.89C214.638 442.38 217.679 443.64 220.804 444.659L224.356 455.614C224.814 457.015 225.703 458.236 226.896 459.101C228.089 459.967 229.525 460.433 230.999 460.434H249.466C250.939 460.435 252.374 459.969 253.565 459.103C254.757 458.237 255.643 457.016 256.097 455.614L259.656 444.659C262.783 443.642 265.826 442.382 268.757 440.89L279.022 446.117C280.335 446.786 281.826 447.022 283.281 446.792C284.736 446.561 286.081 445.876 287.123 444.835L300.188 431.775C301.228 430.732 301.913 429.387 302.143 427.932C302.373 426.477 302.138 424.987 301.47 423.674L296.231 413.404C297.729 410.477 298.992 407.435 300.006 404.307L310.969 400.754C312.37 400.296 313.59 399.408 314.456 398.215C315.321 397.022 315.787 395.586 315.786 394.112V375.649C315.786 374.176 315.32 372.74 314.455 371.548C313.59 370.355 312.37 369.466 310.969 369.009ZM132.785 282.865C116.689 298.446 90.9976 298.026 75.4195 281.915C59.8311 265.794 60.2438 240.146 76.3677 224.553C92.4906 208.962 118.146 209.4 133.733 225.501C149.315 241.598 148.877 267.292 132.785 282.865ZM105.475 199.196C75.4174 198.62 50.5609 222.682 50.0642 252.81C49.5614 283.297 74.0996 308.231 104.597 308.231C134.353 308.231 158.593 284.377 159.088 254.607C159.591 224.481 135.597 199.696 105.475 199.196ZM150.104 312.323C149.175 313.045 148.444 313.989 147.977 315.069C147.511 316.148 147.324 317.328 147.434 318.499L149.032 335.465L133.703 342.098L122.429 329.308C121.654 328.423 120.667 327.75 119.56 327.351C118.453 326.952 117.263 326.841 116.102 327.028C109.222 328.115 102.223 328.229 95.3117 327.365C94.1466 327.217 92.963 327.365 91.8703 327.796C90.7777 328.226 89.8112 328.925 89.0602 329.828L78.1966 342.952L62.6738 336.804L63.7387 319.8C63.8127 318.627 63.5892 317.454 63.0889 316.391C62.5885 315.327 61.8276 314.407 60.8766 313.716C55.2433 309.619 50.22 304.743 45.957 299.234C45.2355 298.306 44.2914 297.574 43.212 297.107C42.1327 296.64 40.953 296.453 39.7822 296.564L22.8146 298.164L16.1831 282.834L28.9719 271.569C29.854 270.793 30.5253 269.806 30.9235 268.7C31.3217 267.595 31.4338 266.406 31.2493 265.246C30.1644 258.362 30.0521 251.361 30.9154 244.446C31.0661 243.28 30.9185 242.096 30.4865 241.002C30.0546 239.909 29.3523 238.944 28.4455 238.196L15.3291 227.331L21.4752 211.807L38.4787 212.877C39.651 212.953 40.8233 212.73 41.8866 212.231C42.9499 211.732 43.8696 210.972 44.5602 210.021C48.6544 204.381 53.5324 199.354 59.0468 195.091C59.9751 194.372 60.7064 193.429 61.173 192.351C61.6395 191.273 61.8261 190.094 61.7153 188.925L60.1179 171.949L75.4471 165.317L86.7081 178.106C87.485 178.989 88.4725 179.661 89.5788 180.059C90.685 180.458 91.8741 180.57 93.0354 180.386C99.9183 179.289 106.922 179.176 113.837 180.052C115.002 180.202 116.187 180.053 117.279 179.62C118.371 179.187 119.336 178.484 120.082 177.576L130.946 164.462L146.474 170.61L145.403 187.613C145.33 188.784 145.553 189.955 146.052 191.017C146.551 192.079 147.31 192.998 148.259 193.689C153.896 197.788 158.923 202.667 163.19 208.179C163.909 209.109 164.852 209.841 165.931 210.308C167.01 210.775 168.189 210.961 169.359 210.85L186.333 209.249L192.953 224.579L180.177 235.853C179.294 236.629 178.621 237.616 178.222 238.721C177.823 239.827 177.71 241.016 177.894 242.177C178.983 249.057 179.094 256.056 178.222 262.966C178.074 264.133 178.223 265.317 178.656 266.411C179.089 267.504 179.791 268.469 180.698 269.218L193.821 280.082L187.668 295.607L170.665 294.537C169.493 294.467 168.323 294.691 167.26 295.19C166.198 295.689 165.278 296.446 164.583 297.392C160.492 303.033 155.616 308.061 150.104 312.323ZM161.676 320.9C166.012 317.229 169.978 313.141 173.517 308.695L191.848 309.858C193.318 309.947 194.779 309.569 196.022 308.779C197.265 307.989 198.228 306.828 198.773 305.459L208.658 280.51C209.204 279.142 209.301 277.634 208.935 276.207C208.569 274.779 207.759 273.505 206.622 272.567L192.475 260.848C192.933 255.187 192.843 249.496 192.206 243.853L205.99 231.694C207.096 230.722 207.865 229.424 208.186 227.987C208.508 226.55 208.366 225.048 207.781 223.697L197.122 199.055C196.535 197.705 195.537 196.574 194.269 195.824C193.002 195.075 191.53 194.744 190.063 194.881L171.767 196.609C168.095 192.273 164.007 188.307 159.563 184.769L160.716 166.436C160.81 164.965 160.437 163.502 159.648 162.257C158.859 161.012 157.696 160.048 156.326 159.505L131.368 149.627C129.999 149.082 128.492 148.986 127.065 149.352C125.638 149.718 124.364 150.527 123.426 151.664L111.714 165.811C106.051 165.346 100.356 165.437 94.7106 166.082L82.566 152.296C81.5931 151.19 80.2948 150.42 78.8573 150.097C77.4198 149.775 75.917 149.915 74.5645 150.499L49.9229 161.16C48.5708 161.746 47.4384 162.744 46.6878 164.012C45.9373 165.28 45.6069 166.753 45.744 168.22L47.4766 186.515C43.1403 190.187 39.1744 194.274 35.6361 198.72L17.3044 197.556C15.8326 197.465 14.3697 197.841 13.1248 198.632C11.88 199.422 10.9171 200.586 10.374 201.957L0.494436 226.904C-0.0512365 228.275 -0.148045 229.784 0.217938 231.213C0.583921 232.642 1.39383 233.919 2.53117 234.859L16.6777 246.569C16.2176 252.232 16.3077 257.927 16.947 263.572L3.16298 275.72C2.05627 276.693 1.28618 277.991 0.963301 279.428C0.640419 280.866 0.781351 282.368 1.36586 283.721L12.0237 308.361C12.6096 309.714 13.6086 310.847 14.8776 311.597C16.1467 312.347 17.6205 312.677 19.0882 312.538L37.3728 310.808C41.0512 315.141 45.1422 319.107 49.5881 322.649L48.4238 340.983C48.3315 342.454 48.7077 343.917 49.4984 345.162C50.289 346.406 51.4536 347.368 52.8249 347.91L77.7706 357.79C79.1395 358.335 80.6463 358.432 82.0737 358.066C83.501 357.7 84.7753 356.89 85.7127 355.753L97.4242 341.605C103.087 342.07 108.782 341.979 114.428 341.335L126.585 355.119C127.557 356.226 128.855 356.997 130.293 357.32C131.731 357.643 133.234 357.501 134.586 356.916L159.228 346.255C160.58 345.671 161.712 344.673 162.462 343.404C163.211 342.136 163.54 340.663 163.401 339.197L161.676 320.9Z" fill="url(#paint0_linear_589_67)"/>
<defs>
<linearGradient id="paint0_linear_589_67" x1="93" y1="-11" x2="419" y2="453.5" gradientUnits="userSpaceOnUse">
<stop stop-color="#1BA2D7"/>
<stop offset="1" stop-color="#8D3DFA"/>
</linearGradient>
</defs>
</svg>
