<svg width="512" height="512" viewBox="0 0 512 512" fill="none" xmlns="http://www.w3.org/2000/svg">
<path d="M136 111.998C153.648 111.998 168 97.6457 168 79.9977C168 62.3497 153.648 47.9977 136 47.9977C120.088 47.9977 106.96 59.7017 104.512 74.9257L52.232 102.862C50.9537 103.544 49.8847 104.561 49.1394 105.804C48.394 107.047 48.0002 108.469 48 109.918V151.998C48 154.119 48.8429 156.154 50.3431 157.655C51.8434 159.155 53.8783 159.998 56 159.998C58.1217 159.998 60.1566 159.155 61.6569 157.655C63.1571 156.154 64 154.119 64 151.998V114.718L106.4 92.0617C108.799 97.9468 112.894 102.985 118.166 106.535C123.437 110.085 129.645 111.987 136 111.998ZM136 63.9977C144.824 63.9977 152 71.1737 152 79.9977C152 88.8217 144.824 95.9977 136 95.9977C127.176 95.9977 120 88.8217 120 79.9977C120 71.1737 127.176 63.9977 136 63.9977ZM167.488 229.07L219.768 201.134C221.046 200.451 222.115 199.434 222.861 198.191C223.606 196.949 224 195.527 224 194.078V151.998C224 149.876 223.157 147.841 221.657 146.341C220.157 144.841 218.122 143.998 216 143.998C213.878 143.998 211.843 144.841 210.343 146.341C208.843 147.841 208 149.876 208 151.998V189.278L165.6 211.934C163.201 206.049 159.106 201.01 153.834 197.46C148.563 193.91 142.355 192.009 136 191.998C118.352 191.998 104 206.35 104 223.998C104 241.646 118.352 255.998 136 255.998C151.912 255.998 165.04 244.294 167.488 229.07ZM120 223.998C120 215.174 127.176 207.998 136 207.998C144.824 207.998 152 215.174 152 223.998C152 232.822 144.824 239.998 136 239.998C127.176 239.998 120 232.822 120 223.998Z" fill="url(#paint0_linear_589_18)"/>
<path d="M208 391.998H176V284.942L267.576 239.15C268.906 238.485 270.024 237.463 270.806 236.199C271.587 234.934 272.001 233.476 272 231.99V71.9977C272 68.9657 270.288 66.1977 267.576 64.8377L139.576 0.845729C138.465 0.289564 137.239 0 135.996 0C134.753 0 133.527 0.289564 132.416 0.845729L4.424 64.8457C3.09414 65.5103 1.97575 66.5322 1.19432 67.7969C0.41288 69.0616 -0.000691895 70.5191 8.68896e-07 72.0057L8.68897e-07 231.998C8.68897e-07 235.03 1.712 237.798 4.424 239.158L96 284.95V392.006H64C62.5421 392.01 61.113 392.412 59.8666 393.169C58.6202 393.925 57.6037 395.007 56.9264 396.298C56.2492 397.589 55.9369 399.041 56.0232 400.496C56.1094 401.951 56.591 403.356 57.416 404.558L129.416 508.558C130.152 509.62 131.135 510.489 132.28 511.089C133.426 511.689 134.699 512.002 135.992 512.002C137.285 512.002 138.558 511.689 139.704 511.089C140.849 510.489 141.832 509.62 142.568 508.558L214.568 404.558C215.399 403.357 215.885 401.952 215.974 400.494C216.064 399.037 215.752 397.583 215.074 396.29C214.396 394.997 213.376 393.914 212.127 393.159C210.877 392.403 209.444 392.005 207.984 392.006L208 391.998ZM16 76.9417L136 16.9417L256 76.9417V227.054L136 287.054L16 227.054V76.9417ZM136 489.942L79.272 407.998H104C106.122 407.998 108.157 407.155 109.657 405.655C111.157 404.154 112 402.119 112 399.998V292.942L132.424 303.15C135.048 304.67 138.456 303.71 139.584 303.15L160.008 292.942V399.998C160.008 402.119 160.851 404.154 162.351 405.655C163.851 407.155 165.886 407.998 168.008 407.998H192.736L136 489.942Z" fill="url(#paint1_linear_589_18)"/>
<path d="M416 246.078V119.998H448C449.458 119.993 450.887 119.591 452.133 118.835C453.38 118.078 454.396 116.996 455.074 115.705C455.751 114.414 456.063 112.963 455.977 111.507C455.891 110.052 455.409 108.648 454.584 107.446L382.576 3.44573C379.584 -0.866269 372.408 -0.866269 369.416 3.44573L297.416 107.446C296.585 108.646 296.099 110.052 296.01 111.509C295.92 112.967 296.232 114.421 296.91 115.714C297.588 117.007 298.608 118.09 299.857 118.845C301.107 119.6 302.54 119.999 304 119.998H336V246.07C308.205 254.61 283.882 271.838 266.603 295.224C249.324 318.61 239.999 346.921 240 375.998C240 450.99 301.008 511.998 376 511.998C450.992 511.998 512 450.99 512 375.998C512 316.03 472.8 263.55 416 246.078ZM319.272 104.006L376 22.0617L432.728 104.006H408C405.878 104.006 403.843 104.849 402.343 106.349C400.843 107.849 400 109.884 400 112.006V242.134C384.12 239.366 367.88 239.366 352 242.134V111.998C352 109.876 351.157 107.841 349.657 106.341C348.157 104.841 346.122 103.998 344 103.998H319.272V104.006ZM376 496.006C309.832 496.006 256 442.174 256 376.006C255.985 349.391 264.819 323.526 281.111 302.481C297.404 281.435 320.23 266.403 346 259.75C355.64 257.262 365.736 256.006 376 256.006C386.264 256.006 396.36 257.27 406 259.75C431.77 266.403 454.596 281.435 470.889 302.481C487.181 323.526 496.015 349.391 496 376.006C496 442.174 442.168 496.006 376 496.006Z" fill="url(#paint2_linear_589_18)"/>
<path d="M382.816 275.806C379.904 271.07 372.104 271.07 369.192 275.806L305.192 379.806C304.361 381.156 303.951 382.722 304.012 384.306C304.073 385.89 304.603 387.42 305.536 388.702L369.536 476.702C370.28 477.72 371.254 478.548 372.378 479.119C373.503 479.69 374.746 479.988 376.008 479.988C377.269 479.988 378.512 479.69 379.637 479.119C380.761 478.548 381.735 477.72 382.48 476.702L446.48 388.702C447.412 387.42 447.942 385.89 448.003 384.306C448.065 382.722 447.654 381.156 446.824 379.806L382.816 275.806ZM384 308.262L427.464 378.886L384 389.75V308.262ZM368 389.75L324.536 378.886L368 308.262V389.75ZM368 406.246V447.398L331.416 397.102L368 406.246ZM384 406.246L420.584 397.102L384 447.398V406.246Z" fill="url(#paint3_linear_589_18)"/>
<path d="M216 127.998C220.418 127.998 224 124.416 224 119.998C224 115.579 220.418 111.998 216 111.998C211.582 111.998 208 115.579 208 119.998C208 124.416 211.582 127.998 216 127.998Z" fill="url(#paint4_linear_589_18)"/>
<path d="M56 191.998C60.4183 191.998 64 188.416 64 183.998C64 179.579 60.4183 175.998 56 175.998C51.5817 175.998 48 179.579 48 183.998C48 188.416 51.5817 191.998 56 191.998Z" fill="url(#paint5_linear_589_18)"/>
<defs>
<linearGradient id="paint0_linear_589_18" x1="64.1563" y1="29.7166" x2="251.823" y2="230.634" gradientUnits="userSpaceOnUse">
<stop stop-color="#1BA2D7"/>
<stop offset="1" stop-color="#8D3DFA"/>
</linearGradient>
<linearGradient id="paint1_linear_589_18" x1="24.9688" y1="-45" x2="453.719" y2="243.193" gradientUnits="userSpaceOnUse">
<stop stop-color="#1BA2D7"/>
<stop offset="1" stop-color="#8D3DFA"/>
</linearGradient>
<linearGradient id="paint2_linear_589_18" x1="264.969" y1="-44.7693" x2="693.606" y2="243.47" gradientUnits="userSpaceOnUse">
<stop stop-color="#1BA2D7"/>
<stop offset="1" stop-color="#8D3DFA"/>
</linearGradient>
<linearGradient id="paint3_linear_589_18" x1="317.225" y1="253.996" x2="503.485" y2="417.363" gradientUnits="userSpaceOnUse">
<stop stop-color="#1BA2D7"/>
<stop offset="1" stop-color="#8D3DFA"/>
</linearGradient>
<linearGradient id="paint4_linear_589_18" x1="209.469" y1="110.591" x2="223.547" y2="128.404" gradientUnits="userSpaceOnUse">
<stop stop-color="#1BA2D7"/>
<stop offset="1" stop-color="#8D3DFA"/>
</linearGradient>
<linearGradient id="paint5_linear_589_18" x1="49.4688" y1="174.591" x2="63.5468" y2="192.404" gradientUnits="userSpaceOnUse">
<stop stop-color="#1BA2D7"/>
<stop offset="1" stop-color="#8D3DFA"/>
</linearGradient>
</defs>
</svg>
