<svg width="447" height="447" viewBox="0 0 447 447" fill="none" xmlns="http://www.w3.org/2000/svg">
<path d="M223.418 0C179.23 0 136.035 13.1032 99.2938 37.6528C62.5529 62.2023 33.9168 97.0954 17.0068 137.92C0.0968051 178.744 -4.32762 223.666 4.29302 267.005C12.9137 310.344 34.1922 350.153 65.4378 381.399C96.6834 412.644 136.493 433.923 179.832 442.543C223.17 451.164 268.092 446.74 308.917 429.83C349.741 412.92 384.634 384.284 409.184 347.543C433.733 310.802 446.836 267.606 446.836 223.418C446.763 164.187 423.2 107.402 381.317 65.5193C339.434 23.6363 282.65 0.0739009 223.418 0ZM223.418 437.527C181.072 437.527 139.676 424.97 104.466 401.443C69.2556 377.917 41.8127 344.478 25.6073 305.354C9.40186 266.231 5.16179 223.181 13.4232 181.648C21.6847 140.114 42.0766 101.964 72.0203 72.0202C101.964 42.0765 140.115 21.6846 181.648 13.4231C223.181 5.16169 266.231 9.40176 305.354 25.6072C344.478 41.8126 377.917 69.2555 401.443 104.466C424.97 139.676 437.527 181.071 437.527 223.418C437.453 280.181 414.872 334.597 374.735 374.735C334.597 414.872 280.181 437.453 223.418 437.527ZM275.689 55.8545C275.706 55.7155 275.706 55.5747 275.689 55.4356C275.714 55.3128 275.714 55.1861 275.689 55.0633C275.514 54.7803 275.311 54.5153 275.084 54.272L274.618 53.9462C274.618 53.9462 274.618 53.7135 274.246 53.6669L225.699 27.2756C224.991 26.8671 224.189 26.652 223.372 26.652C222.555 26.652 221.752 26.8671 221.044 27.2756L173.289 53.248H173.01L172.218 53.9927C172.049 54.1829 171.893 54.3851 171.753 54.5978L171.52 55.0167V55.3891C171.315 55.9082 171.204 56.46 171.194 57.0182V105.612C171.192 106.449 171.416 107.271 171.842 107.992C172.268 108.713 172.88 109.306 173.615 109.708L221.603 135.633H222.627C223.014 135.679 223.404 135.679 223.791 135.633C224.193 135.679 224.599 135.679 225.001 135.633H225.327L226.025 135.354L273.967 109.428C274.701 109.026 275.314 108.434 275.74 107.713C276.166 106.992 276.389 106.17 276.387 105.332V57.3905C276.238 56.8446 276.002 56.326 275.689 55.8545ZM218.764 123.718L180.131 102.865V65.1636L218.764 86.016V123.718ZM223.418 77.9636L189.812 59.8109L185.158 57.344L223.418 36.6778L261.492 57.344L229.562 74.4727L223.418 77.9636ZM266.706 102.865L228.073 123.718V86.0625L266.706 65.1636V102.865ZM275.689 339.782C275.588 339.493 275.464 339.212 275.316 338.944C275.141 338.676 274.938 338.426 274.711 338.199L274.246 337.873L273.874 337.594L225.699 311.203C224.991 310.794 224.189 310.579 223.372 310.579C222.555 310.579 221.752 310.794 221.044 311.203L173.289 337.129H173.01C172.803 337.258 172.615 337.415 172.451 337.594C172.27 337.792 172.114 338.011 171.986 338.246L171.753 338.665V339.037C171.547 339.556 171.437 340.108 171.427 340.666V389.539C171.425 390.376 171.648 391.199 172.074 391.92C172.5 392.64 173.113 393.233 173.847 393.635L221.836 419.514C222.04 419.635 222.259 419.729 222.487 419.793H222.86C223.246 419.839 223.637 419.839 224.023 419.793C224.425 419.839 224.831 419.839 225.234 419.793H225.559C225.8 419.721 226.033 419.627 226.258 419.514L274.199 393.635C274.934 393.233 275.546 392.64 275.972 391.92C276.398 391.199 276.622 390.376 276.62 389.539V341.271C276.4 340.724 276.085 340.219 275.689 339.782ZM218.764 407.645L180.131 386.746V349.091L218.764 369.897V407.645ZM223.418 361.844L188.556 343.226L185.251 341.411L223.418 320.559L261.492 341.225L229.562 358.4L223.418 361.844ZM266.659 386.746L228.073 407.645V369.943L266.706 349.091L266.659 386.746ZM353.466 169.239L305.524 195.165L305.199 195.444L304.733 195.817C304.495 196.068 304.291 196.349 304.128 196.655C304.033 196.784 303.955 196.925 303.895 197.073V197.492C303.695 197.997 303.585 198.532 303.57 199.075V247.575C303.567 248.413 303.791 249.235 304.217 249.956C304.643 250.677 305.255 251.269 305.99 251.671L353.978 277.597H355.002C355.389 277.642 355.779 277.642 356.166 277.597C356.552 277.646 356.943 277.646 357.33 277.597H358.4L406.295 251.671C407.039 251.276 407.661 250.686 408.095 249.964C408.529 249.243 408.76 248.417 408.762 247.575V199.308C408.726 198.798 408.616 198.296 408.436 197.818C408.251 197.4 408.251 197.4 408.064 196.981C407.889 196.697 407.686 196.432 407.459 196.189L406.388 195.491H405.97L357.935 169.239C357.25 168.864 356.481 168.668 355.7 168.668C354.92 168.668 354.151 168.864 353.466 169.239ZM350.999 265.681L312.367 244.783V207.127L350.999 228.073V265.681ZM398.941 244.783L360.308 265.681V228.073L398.941 207.22V244.783ZM364.684 215.04L355.654 219.695L321.024 201.076L317.533 199.168L355.7 178.548L393.775 199.168L364.684 215.04ZM143.453 197.725V196.887C143.278 196.578 143.058 196.296 142.802 196.049L141.917 195.491H141.498L93.4634 169.239C92.7841 168.873 92.0243 168.681 91.2525 168.681C90.4806 168.681 89.7208 168.873 89.0415 169.239L41.0532 195.165L40.4946 195.491L40.0292 195.863C39.7763 196.102 39.571 196.386 39.4241 196.701V197.539C39.2241 198.043 39.1138 198.579 39.0983 199.121V247.575C39.1005 248.417 39.3311 249.243 39.7656 249.964C40.2 250.686 40.822 251.276 41.5652 251.671L89.507 277.597H90.531C90.9331 277.642 91.339 277.642 91.7412 277.597C92.1278 277.642 92.5182 277.642 92.9048 277.597H93.9288L141.871 251.671C142.605 251.269 143.218 250.677 143.644 249.956C144.07 249.235 144.293 248.413 144.291 247.575V199.308C144.132 198.725 143.846 198.184 143.453 197.725ZM86.5746 265.681L47.8954 244.783V207.127L86.5746 228.073V265.681ZM91.2292 219.927L56.5994 201.309L53.0619 199.401L91.2292 178.781L129.35 199.401L91.2292 219.927ZM134.47 244.783L95.8837 265.681V228.073L103.378 224.023L134.47 207.22V244.783ZM275.689 197.725C275.502 197.306 275.502 197.306 275.316 196.887C275.141 196.578 274.921 196.296 274.665 196.049L274.199 195.491C274.056 195.353 273.9 195.228 273.734 195.119L225.699 169.239C224.991 168.831 224.189 168.616 223.372 168.616C222.555 168.616 221.752 168.831 221.044 169.239L173.289 195.165L172.963 195.444L172.218 195.956C172.003 196.193 171.801 196.442 171.613 196.701L171.38 197.12V197.539C171.18 198.043 171.07 198.579 171.055 199.121V247.575C171.052 248.413 171.276 249.235 171.702 249.956C172.128 250.677 172.74 251.269 173.475 251.671L221.463 277.597H222.487C222.874 277.642 223.264 277.642 223.651 277.597C224.053 277.642 224.459 277.642 224.861 277.597H225.885L273.827 251.671C274.562 251.269 275.174 250.677 275.6 249.956C276.026 249.235 276.25 248.413 276.247 247.575V199.308C276.172 198.747 275.982 198.208 275.689 197.725ZM218.764 265.681L180.131 244.783V207.127L218.764 228.073V265.681ZM223.418 219.927L188.509 201.03L185.298 199.261L223.418 178.641L261.492 199.261L223.418 219.927ZM266.659 244.783L228.073 265.681V228.073L266.706 207.22L266.659 244.783Z" fill="white"/>
</svg>
