<svg width="479" height="485" viewBox="0 0 479 485" fill="none" xmlns="http://www.w3.org/2000/svg">
<path d="M441.949 341.876C428.141 341.876 416.659 351.341 413.324 364.141H380.819C373.062 364.141 366.778 357.857 366.778 350.099V316.509H404.092C445.285 316.509 478.875 282.996 478.875 241.804C478.875 205.964 453.198 175.476 418.909 168.495C420.538 162.366 421.314 156.005 421.314 149.566C421.314 107.908 387.491 74.0073 345.833 74.0073C333.653 74.0073 321.939 76.8776 311.312 82.3855C297.658 34.1333 253.285 0 202.085 0C139.481 0 88.5139 50.9673 88.5139 113.571C88.5139 122.802 89.6 132.034 91.8497 141.033C90.5309 140.955 89.1345 140.955 87.8158 140.955C39.4085 140.955 0 180.364 0 228.771C0 277.178 39.4085 316.509 87.8158 316.509H125.518V379.966C125.518 387.724 119.234 394.007 111.476 394.007H78.9721C75.6364 381.207 64.1552 371.743 50.3467 371.743C33.9782 371.743 20.7127 385.086 20.7127 401.377C20.7127 417.668 34.0558 431.011 50.3467 431.011C64.1552 431.011 75.6364 421.547 78.9721 408.747H111.476C127.379 408.747 140.335 395.792 140.335 379.889V316.432H238.701V354.521C238.701 360.184 234.124 364.761 228.461 364.761C214.652 364.761 203.326 376.01 203.326 389.896V433.416C203.326 441.173 197.042 447.457 189.285 447.457H156.781C153.445 434.657 141.964 425.193 128.155 425.193C111.787 425.193 98.5212 438.536 98.5212 454.827C98.5212 471.118 111.864 484.461 128.155 484.461C141.964 484.461 153.445 474.996 156.781 462.196H189.285C205.188 462.196 218.143 449.241 218.143 433.338V389.818C218.143 384.155 222.72 379.578 228.383 379.578C242.192 379.578 253.518 368.33 253.518 354.444V316.354H275.084V413.634C275.084 429.537 288.039 442.492 303.942 442.492H336.446C339.782 455.215 351.263 464.756 365.072 464.756C381.44 464.756 394.705 451.413 394.705 435.122C394.705 418.832 381.362 405.489 365.072 405.489C351.263 405.489 339.782 414.953 336.446 427.753H303.942C296.184 427.753 289.901 421.469 289.901 413.712V316.509H351.961V350.099C351.961 366.002 364.916 378.958 380.819 378.958H413.324C416.659 391.68 428.141 401.222 441.949 401.222C458.318 401.222 471.583 387.879 471.583 371.588C471.591 367.69 470.831 363.829 469.345 360.226C467.86 356.623 465.679 353.347 462.926 350.588C460.174 347.828 456.905 345.638 453.305 344.144C449.706 342.649 445.847 341.878 441.949 341.876ZM50.5018 416.194C42.3564 416.194 35.6848 409.522 35.6848 401.377C35.6848 393.232 42.3564 386.56 50.5018 386.56C58.6473 386.56 65.3188 393.232 65.3188 401.377C65.3188 409.522 58.6473 416.194 50.5018 416.194ZM128.155 469.644C120.01 469.644 113.338 462.972 113.338 454.827C113.338 446.681 120.01 440.01 128.155 440.01C136.301 440.01 142.972 446.681 142.972 454.827C143.05 463.05 136.378 469.644 128.155 469.644ZM365.072 420.383C373.217 420.383 379.888 427.055 379.888 435.2C379.888 443.345 373.217 450.017 365.072 450.017C356.926 450.017 350.255 443.345 350.255 435.2C350.255 427.055 356.926 420.383 365.072 420.383ZM14.8945 228.771C14.8945 188.509 47.6315 155.772 87.8933 155.772C92.2376 155.772 96.5818 156.16 100.926 156.936C101.314 157.013 101.702 157.013 102.09 157.013C102.245 157.091 102.4 157.168 102.633 157.246C109.149 158.565 115.51 160.815 121.406 163.918C122.271 164.371 123.217 164.649 124.19 164.734C125.163 164.82 126.143 164.712 127.073 164.416C128.004 164.12 128.867 163.642 129.612 163.011C130.357 162.38 130.969 161.607 131.413 160.737C132.317 158.988 132.489 156.952 131.893 155.075C131.297 153.199 129.98 151.636 128.233 150.73C121.872 147.394 115.045 145.067 108.063 143.438C105.038 133.741 103.408 123.733 103.408 113.648C103.408 59.1903 147.704 14.8945 202.162 14.8945C249.639 14.8945 290.288 48.5624 299.132 94.9527C300.296 101.081 300.916 107.365 300.916 113.648C300.916 119.001 300.451 124.354 299.598 129.552C298.977 133.585 301.692 137.387 305.726 138.085C306.114 138.162 306.502 138.162 306.89 138.162C310.458 138.162 313.639 135.602 314.182 131.956C316.079 120.69 316.158 109.192 314.415 97.9006C323.879 92.16 334.584 88.9018 345.833 88.9018C379.268 88.9018 406.419 116.131 406.419 149.566C406.419 155.617 405.488 161.59 403.704 167.253C390.904 167.331 377.949 170.512 366.778 176.95C363.21 178.967 361.968 183.544 364.063 187.113C364.55 187.96 365.2 188.703 365.975 189.299C366.75 189.895 367.635 190.331 368.58 190.584C369.524 190.836 370.509 190.899 371.478 190.769C372.447 190.64 373.381 190.32 374.225 189.828C384.627 183.878 396.561 181.151 408.514 181.993H408.592C439.622 184.32 463.981 210.541 463.981 241.804C463.981 274.773 437.139 301.615 404.092 301.615H87.8933C47.6315 301.615 14.8945 268.955 14.8945 228.771ZM441.949 386.405C433.804 386.405 427.132 379.733 427.132 371.588C427.132 363.442 433.804 356.771 441.949 356.771C450.095 356.771 456.766 363.442 456.766 371.588C456.844 379.733 450.172 386.405 441.949 386.405Z" fill="white"/>
<path d="M142.584 212.248C144.136 217.445 146.23 222.565 148.868 227.375L146.928 230.323C142.274 237.382 143.205 246.846 149.178 252.897L155.617 259.336C161.59 265.387 171.132 266.318 178.114 261.663L181.062 259.724C185.872 262.362 190.914 264.456 196.189 266.008L196.887 269.499C197.733 273.54 199.946 277.167 203.154 279.767C206.362 282.367 210.368 283.782 214.497 283.773H223.651C232.107 283.773 239.554 277.799 241.261 269.499L241.959 266.008C247.156 264.456 252.276 262.362 257.086 259.724L260.034 261.663C267.093 266.318 276.558 265.387 282.608 259.336L289.047 252.897C295.021 246.924 296.029 237.382 291.375 230.4L289.435 227.453C292.073 222.565 294.167 217.523 295.719 212.325L299.21 211.627C303.251 210.781 306.878 208.568 309.478 205.36C312.078 202.153 313.493 198.147 313.484 194.017V184.863C313.484 176.408 307.51 168.96 299.21 167.254L295.719 166.556C294.167 161.28 292.073 156.16 289.435 151.351L291.375 148.403C296.029 141.343 295.098 131.879 289.047 125.828L282.608 119.39C276.635 113.339 267.093 112.408 260.112 117.062L257.164 119.002C252.276 116.364 247.234 114.27 242.036 112.718L241.338 109.227C240.492 105.186 238.279 101.559 235.071 98.959C231.864 96.3589 227.858 94.9441 223.728 94.9532H214.575C206.119 94.9532 198.672 100.927 196.965 109.227L196.267 112.718C190.992 114.27 185.949 116.364 181.139 119.002L178.192 117.062C171.132 112.408 161.668 113.339 155.617 119.39L149.256 125.906C143.282 131.879 142.274 141.421 146.928 148.403L148.868 151.351C146.23 156.16 144.136 161.203 142.584 166.556L139.093 167.254C135.052 168.1 131.425 170.313 128.825 173.521C126.225 176.728 124.81 180.734 124.819 184.863V193.94C124.819 202.396 130.793 209.843 139.093 211.55L142.584 212.248ZM139.714 184.863C139.714 183.39 140.722 182.071 142.196 181.838L150.187 180.209C153.057 179.588 155.229 177.416 155.927 174.623C157.556 167.719 160.194 161.125 163.995 155.152C165.547 152.67 165.547 149.567 163.918 147.162L159.418 140.335C158.642 139.094 158.798 137.542 159.806 136.456L166.245 130.017C167.331 129.009 168.882 128.776 170.124 129.63L176.95 134.051C179.355 135.603 182.536 135.68 184.941 134.129C190.903 130.363 197.46 127.635 204.335 126.061C207.127 125.44 209.377 123.191 209.92 120.32L211.549 112.33C211.859 110.934 213.101 109.925 214.575 109.925H223.728C225.202 109.925 226.444 110.934 226.754 112.408L228.383 120.398C229.004 123.268 231.176 125.44 233.968 126.139C240.795 127.69 247.312 130.405 253.44 134.206C255.845 135.758 259.025 135.68 261.43 134.129L268.257 129.63C269.498 128.854 271.05 129.009 272.136 130.017L278.575 136.456C279.661 137.542 279.816 139.094 278.962 140.335L274.541 147.162C273.77 148.349 273.353 149.73 273.339 151.146C273.326 152.561 273.715 153.95 274.463 155.152C278.187 161.125 280.902 167.642 282.531 174.623C283.152 177.416 285.401 179.666 288.272 180.209L296.262 181.838C297.658 182.148 298.667 183.39 298.667 184.863V193.94C298.667 195.414 297.658 196.733 296.184 196.965L288.194 198.594C285.324 199.215 283.152 201.387 282.453 204.18C280.902 211.007 278.187 217.6 274.385 223.651C272.834 226.134 272.911 229.237 274.463 231.642L278.962 238.468C279.738 239.71 279.583 241.261 278.575 242.347L272.136 248.786C271.05 249.794 269.498 250.027 268.257 249.174L261.43 244.752C260.244 243.98 258.862 243.563 257.446 243.549C256.031 243.536 254.641 243.926 253.44 244.674C247.312 248.476 240.795 251.191 233.968 252.742C231.176 253.363 228.926 255.613 228.383 258.483L226.754 266.473C226.444 267.87 225.202 268.878 223.728 268.878H214.575C213.101 268.878 211.859 267.87 211.549 266.396L209.92 258.405C209.622 257.02 208.94 255.747 207.952 254.732C206.965 253.717 205.711 253 204.335 252.665C197.46 251.091 190.903 248.363 184.941 244.597C183.777 243.821 182.381 243.433 180.984 243.433C179.588 243.433 178.192 243.821 176.95 244.674L170.124 249.174C168.882 249.95 167.331 249.794 166.245 248.786L159.806 242.347C159.285 241.856 158.958 241.193 158.887 240.48C158.816 239.767 159.004 239.053 159.418 238.468L163.84 231.642C165.392 229.237 165.469 226.134 163.918 223.651C160.116 217.523 157.401 211.007 155.85 204.18C155.54 202.791 154.831 201.524 153.812 200.532C152.792 199.54 151.505 198.866 150.109 198.594L142.119 196.965C141.433 196.811 140.82 196.427 140.383 195.877C139.945 195.326 139.709 194.643 139.714 193.94V184.863Z" fill="white"/>
<path d="M219.229 232.495C242.967 232.495 262.361 213.178 262.361 189.363C262.361 165.624 243.045 146.23 219.229 146.23C207.789 146.23 196.819 150.775 188.73 158.864C180.641 166.952 176.097 177.923 176.097 189.363C176.097 200.802 180.641 211.773 188.73 219.862C196.819 227.95 207.789 232.495 219.229 232.495ZM219.229 161.125C226.718 161.125 233.9 164.1 239.196 169.396C244.491 174.691 247.466 181.874 247.466 189.363C247.466 196.852 244.491 204.034 239.196 209.33C233.9 214.625 226.718 217.6 219.229 217.6C211.74 217.6 204.557 214.625 199.262 209.33C193.966 204.034 190.991 196.852 190.991 189.363C190.991 181.874 193.966 174.691 199.262 169.396C204.557 164.1 211.74 161.125 219.229 161.125Z" fill="white"/>
</svg>
