<svg width="488" height="480" viewBox="0 0 488 480" fill="none" xmlns="http://www.w3.org/2000/svg">
<path d="M240 360C263.734 360 286.935 352.962 306.668 339.776C326.402 326.591 341.783 307.849 350.866 285.922C359.948 263.995 362.324 239.867 357.694 216.589C353.064 193.311 341.635 171.93 324.853 155.147C308.071 138.365 286.689 126.936 263.411 122.306C240.133 117.676 216.005 120.052 194.078 129.135C172.151 138.217 153.409 153.598 140.224 173.332C127.038 193.066 120 216.266 120 240C120.036 271.815 132.69 302.317 155.187 324.813C177.684 347.31 208.185 359.964 240 360ZM240 136C260.569 136 280.677 142.1 297.779 153.527C314.882 164.955 328.212 181.197 336.083 200.201C343.955 219.204 346.015 240.115 342.002 260.289C337.989 280.463 328.084 298.994 313.539 313.539C298.994 328.084 280.463 337.989 260.289 342.002C240.115 346.015 219.204 343.955 200.201 336.084C181.197 328.212 164.955 314.882 153.527 297.779C142.099 280.677 136 260.569 136 240C136.032 212.427 146.999 185.993 166.496 166.496C185.993 146.999 212.427 136.032 240 136Z" fill="white"/>
<path d="M192 256H216V272C216 274.122 216.843 276.157 218.343 277.657C219.843 279.157 221.878 280 224 280H288C290.122 280 292.157 279.157 293.657 277.657C295.157 276.157 296 274.122 296 272V232C296 229.878 295.157 227.843 293.657 226.343C292.157 224.843 290.122 224 288 224H264V208C264 205.878 263.157 203.843 261.657 202.343C260.157 200.843 258.122 200 256 200H192C189.878 200 187.843 200.843 186.343 202.343C184.843 203.843 184 205.878 184 208V248C184 250.122 184.843 252.157 186.343 253.657C187.843 255.157 189.878 256 192 256ZM280 240V264H232V256H256C258.122 256 260.157 255.157 261.657 253.657C263.157 252.157 264 250.122 264 248V240H280ZM200 216H248V224H224C221.878 224 219.843 224.843 218.343 226.343C216.843 227.843 216 229.878 216 232V240H200V216Z" fill="white"/>
<path d="M480 264H389.92C392.693 248.12 392.693 231.88 389.92 216H416C417.053 216.006 418.097 215.804 419.071 215.406C420.046 215.008 420.933 214.421 421.68 213.68L477.68 157.68C479.154 156.155 479.984 154.121 480 152V8C480 5.87827 479.157 3.84344 477.657 2.34315C476.157 0.842854 474.122 0 472 0H328C325.879 0.0157943 323.846 0.846434 322.32 2.32L266.32 58.32C265.579 59.0675 264.992 59.954 264.594 60.9287C264.196 61.9034 263.994 62.9471 264 64V90.08C248.12 87.3067 231.88 87.3067 216 90.08V8C216 5.87827 215.157 3.84344 213.657 2.34315C212.157 0.842854 210.122 0 208 0H64.0001C61.8792 0.0157943 59.8456 0.846434 58.3201 2.32L2.32013 58.32C1.57868 59.0675 0.992081 59.954 0.593964 60.9287C0.195847 61.9034 -0.00595343 62.9471 0.000133714 64V208C0.000133714 210.122 0.842988 212.157 2.34328 213.657C3.84357 215.157 5.8784 216 8.00013 216H90.0801C87.3069 231.88 87.3069 248.12 90.0801 264H64.0001C61.8792 264.016 59.8456 264.846 58.3201 266.32L2.32013 322.32C1.57868 323.068 0.992081 323.954 0.593964 324.929C0.195847 325.903 -0.00595343 326.947 0.000133714 328V472C0.000133714 474.122 0.842988 476.157 2.34328 477.657C3.84357 479.157 5.8784 480 8.00013 480H152C153.053 480.006 154.097 479.804 155.071 479.406C156.046 479.008 156.933 478.421 157.68 477.68L200 435.28V440C199.974 448.412 202.609 456.616 207.527 463.44C212.445 470.264 219.395 475.358 227.382 477.994C235.37 480.63 243.987 480.673 252.001 478.116C260.014 475.56 267.015 470.535 272 463.76V472C272 474.122 272.843 476.157 274.343 477.657C275.844 479.157 277.878 480 280 480H424C425.053 480.006 426.097 479.804 427.071 479.406C428.046 479.008 428.933 478.421 429.68 477.68L485.68 421.68C487.154 420.155 487.984 418.121 488 416V272C488 269.878 487.157 267.843 485.657 266.343C484.157 264.843 482.122 264 480 264ZM464 148.72L424 188.72V67.28L464 27.28V148.72ZM331.28 16H452.72L412.72 56H291.28L331.28 16ZM280 72H408V200H386.48C379.473 174.55 365.976 151.356 347.31 132.69C328.644 114.024 305.45 100.527 280 93.52V72ZM67.2801 16H188.72L148.72 56H27.2801L67.2801 16ZM200 27.28V93.52C185.902 97.3909 172.431 103.264 160 110.96V67.28L200 27.28ZM16.0001 200V72H144V122.32C119.511 142.339 101.867 169.491 93.5201 200H16.0001ZM67.2801 280H93.5201C97.391 294.099 103.264 307.569 110.96 320H27.2801L67.2801 280ZM144 464H16.0001V336H122.32C128.809 343.929 136.071 351.191 144 357.68V464ZM200 412.72L160 452.72V369.04C172.431 376.736 185.902 382.609 200 386.48V412.72ZM264 440C264 446.365 261.472 452.47 256.971 456.971C252.47 461.471 246.365 464 240 464C233.635 464 227.53 461.471 223.03 456.971C218.529 452.47 216 446.365 216 440V389.92C231.88 392.693 248.12 392.693 264 389.92V440ZM240 376C213.102 376 186.808 368.024 164.443 353.08C142.077 338.136 124.646 316.896 114.353 292.045C104.059 267.194 101.366 239.849 106.613 213.468C111.861 187.086 124.814 162.853 143.834 143.833C162.854 124.814 187.086 111.861 213.468 106.613C239.849 101.366 267.194 104.059 292.045 114.352C316.896 124.646 338.136 142.077 353.08 164.442C368.024 186.808 376 213.102 376 240C375.949 276.054 361.604 310.616 336.111 336.11C310.617 361.604 276.054 375.949 240 376ZM416 464H288V384.08C315.316 374.984 339.482 358.309 357.68 336H416V464ZM420.72 320H369.04C376.736 307.569 382.609 294.099 386.48 280H460.72L420.72 320ZM472 412.72L432 452.72V331.28L472 291.28V412.72Z" fill="white"/>
</svg>
