<svg width="512" height="512" viewBox="0 0 512 512" fill="none" xmlns="http://www.w3.org/2000/svg">
<path d="M472 160H344C333.395 160.013 323.228 164.231 315.73 171.73C308.231 179.228 304.013 189.395 304 200V240H208V200C207.987 189.395 203.769 179.228 196.27 171.73C188.772 164.231 178.605 160.013 168 160H40C29.3952 160.013 19.2285 164.231 11.7298 171.73C4.23106 179.228 0.0127029 189.395 0 200L0 472C0.0127029 482.605 4.23106 492.772 11.7298 500.27C19.2285 507.769 29.3952 511.987 40 512H168C178.605 511.987 188.772 507.769 196.27 500.27C203.769 492.772 207.987 482.605 208 472V436.688L231.2 469.768C234.851 474.982 240.423 478.532 246.691 479.638C252.959 480.744 259.41 479.314 264.624 475.664C267.999 473.271 270.688 470.035 272.424 466.28C276.151 467.851 280.214 468.455 284.236 468.035C288.259 467.615 292.11 466.186 295.432 463.88C298.798 461.479 301.476 458.238 303.2 454.48C303.464 454.592 303.752 454.608 304 454.712V472C304.013 482.605 308.231 492.772 315.73 500.27C323.228 507.769 333.395 511.987 344 512H472C482.605 511.987 492.772 507.769 500.27 500.27C507.769 492.772 511.987 482.605 512 472V200C511.987 189.395 507.769 179.228 500.27 171.73C492.772 164.231 482.605 160.013 472 160ZM344 176H472C476.946 176.021 481.765 177.569 485.798 180.433C489.83 183.297 492.879 187.337 494.528 192H440C437.878 192 435.843 192.843 434.343 194.343C432.843 195.843 432 197.878 432 200C432 202.122 431.157 204.157 429.657 205.657C428.157 207.157 426.122 208 424 208H392C389.878 208 387.843 207.157 386.343 205.657C384.843 204.157 384 202.122 384 200C384 197.878 383.157 195.843 381.657 194.343C380.157 192.843 378.122 192 376 192H321.472C323.121 187.337 326.17 183.297 330.202 180.433C334.235 177.569 339.054 176.021 344 176ZM269.064 256H323.2C330.755 256.001 338.194 257.867 344.855 261.433C351.516 264.998 357.193 270.153 361.384 276.44C362.111 277.53 363.095 278.424 364.248 279.045C365.402 279.666 366.69 279.994 368 280H384V375.264H368C366.683 375.265 365.386 375.591 364.224 376.213C363.063 376.836 362.074 377.735 361.344 378.832C358.505 383.034 354.991 386.737 350.944 389.792L293.992 308.392L310.352 311.832C311.381 312.048 312.442 312.06 313.475 311.866C314.508 311.673 315.492 311.278 316.373 310.703C317.253 310.129 318.012 309.387 318.605 308.52C319.199 307.652 319.616 306.677 319.832 305.648C320.048 304.619 320.06 303.558 319.866 302.525C319.673 301.492 319.278 300.508 318.703 299.627C318.129 298.747 317.387 297.988 316.52 297.395C315.652 296.801 314.677 296.384 313.648 296.168L261.336 285.168C257.431 284.335 253.379 284.495 249.552 285.634C245.726 286.774 242.246 288.855 239.432 291.688L212.8 318.4C211.3 319.9 209.265 320.742 207.144 320.742C205.023 320.742 202.988 319.9 201.488 318.4C199.988 316.9 199.146 314.865 199.146 312.744C199.146 310.623 199.988 308.588 201.488 307.088L240.8 267.712C244.511 263.999 248.917 261.053 253.766 259.043C258.616 257.034 263.814 256 269.064 256ZM40 176H168C172.946 176.021 177.765 177.569 181.798 180.433C185.83 183.297 188.879 187.337 190.528 192H136C133.878 192 131.843 192.843 130.343 194.343C128.843 195.843 128 197.878 128 200C128 202.122 127.157 204.157 125.657 205.657C124.157 207.157 122.122 208 120 208H88C85.8783 208 83.8434 207.157 82.3431 205.657C80.8429 204.157 80 202.122 80 200C80 197.878 79.1571 195.843 77.6569 194.343C76.1566 192.843 74.1217 192 72 192H17.472C19.1207 187.337 22.1699 183.297 26.2024 180.433C30.235 177.569 35.0539 176.021 40 176ZM16 208H65.368C67.0287 212.676 70.0952 216.724 74.1471 219.588C78.199 222.453 83.0378 223.994 88 224H120C124.962 223.994 129.801 222.453 133.853 219.588C137.905 216.724 140.971 212.676 142.632 208H192V240H188.84C179.391 239.99 170.065 242.148 161.581 246.309C153.097 250.47 145.681 256.522 139.904 264H128V256C128 253.878 127.157 251.843 125.657 250.343C124.157 248.843 122.122 248 120 248H16V208ZM16 264H112V391.264H16V264ZM192 472C192 478.365 189.471 484.47 184.971 488.971C180.47 493.471 174.365 496 168 496H40C33.6348 496 27.5303 493.471 23.0294 488.971C18.5286 484.47 16 478.365 16 472V464H192V472ZM192 448H16V407.264H120C122.122 407.264 124.157 406.421 125.657 404.921C127.157 403.421 128 401.386 128 399.264V391.264L176.128 391.176L192 413.84V448ZM305.872 436.992L287.52 410.776C286.303 409.036 284.445 407.851 282.354 407.481C280.264 407.111 278.112 407.587 276.372 408.804C274.632 410.021 273.447 411.879 273.077 413.97C272.707 416.06 273.183 418.212 274.4 419.952L288.168 439.616C289.325 441.354 289.757 443.476 289.371 445.528C288.985 447.581 287.812 449.401 286.103 450.6C284.393 451.799 282.282 452.282 280.221 451.946C278.16 451.609 276.312 450.48 275.072 448.8L261.304 429.136C260.07 427.441 258.221 426.298 256.153 425.953C254.085 425.608 251.965 426.089 250.247 427.291C248.53 428.494 247.354 430.322 246.971 432.383C246.588 434.444 247.029 436.573 248.2 438.312L257.376 451.424C258.547 453.163 258.988 455.292 258.605 457.353C258.222 459.414 257.046 461.242 255.329 462.445C253.611 463.647 251.491 464.128 249.423 463.783C247.355 463.438 245.506 462.295 244.272 460.6L186.84 378.576C186.101 377.52 185.118 376.657 183.975 376.063C182.831 375.468 181.561 375.158 180.272 375.16L128 375.248V280H144C145.317 280 146.613 279.675 147.774 279.054C148.935 278.433 149.925 277.535 150.656 276.44C154.84 270.147 160.516 264.987 167.179 261.42C173.841 257.854 181.283 255.992 188.84 256H229.92C229.776 256.144 229.616 256.264 229.472 256.408L190.136 295.736C187.844 297.95 186.015 300.598 184.758 303.526C183.5 306.454 182.838 309.604 182.81 312.79C182.782 315.977 183.39 319.137 184.596 322.087C185.803 325.036 187.585 327.716 189.839 329.969C192.092 332.223 194.772 334.005 197.721 335.212C200.671 336.418 203.831 337.026 207.018 336.998C210.204 336.97 213.354 336.308 216.282 335.05C219.21 333.793 221.858 331.964 224.072 329.672L250.744 303C251.685 302.06 252.846 301.369 254.121 300.991C255.397 300.612 256.746 300.558 258.048 300.832L271.096 303.576L340.6 402.904C341.226 403.763 341.674 404.739 341.918 405.773C342.162 406.808 342.198 407.88 342.023 408.929C341.848 409.977 341.466 410.98 340.899 411.879C340.332 412.779 339.592 413.556 338.721 414.165C337.85 414.775 336.867 415.205 335.828 415.43C334.789 415.656 333.716 415.672 332.671 415.478C331.626 415.284 330.63 414.883 329.742 414.3C328.853 413.716 328.09 412.962 327.496 412.08L313.728 392.424C313.134 391.542 312.371 390.788 311.482 390.204C310.594 389.621 309.598 389.22 308.553 389.026C307.508 388.832 306.435 388.848 305.396 389.074C304.357 389.299 303.374 389.729 302.503 390.339C301.632 390.948 300.892 391.725 300.325 392.625C299.758 393.524 299.376 394.527 299.201 395.575C299.026 396.624 299.062 397.696 299.306 398.731C299.55 399.765 299.998 400.741 300.624 401.6L318.976 427.808C320.194 429.546 320.672 431.696 320.304 433.786C319.936 435.876 318.754 437.734 317.016 438.952C315.278 440.17 313.128 440.648 311.038 440.28C308.948 439.912 307.09 438.73 305.872 436.992ZM496 472C496 478.365 493.471 484.47 488.971 488.971C484.47 493.471 478.365 496 472 496H344C337.635 496 331.53 493.471 327.029 488.971C322.529 484.47 320 478.365 320 472V464H496V472ZM496 448H330.624C334.578 443.349 336.619 437.37 336.336 431.272C339.519 431.007 342.615 430.099 345.437 428.602C348.258 427.105 350.746 425.05 352.75 422.563C354.754 420.076 356.232 417.208 357.095 414.132C357.957 411.057 358.186 407.839 357.768 404.672C363.225 400.991 368.062 396.465 372.096 391.264H384V399.264C384 401.386 384.843 403.421 386.343 404.921C387.843 406.421 389.878 407.264 392 407.264H496V448ZM496 391.264H400V264H496V391.264ZM496 248H392C389.878 248 387.843 248.843 386.343 250.343C384.843 251.843 384 253.878 384 256V264H372.096C366.323 256.527 358.914 250.478 350.437 246.318C341.961 242.157 332.643 239.996 323.2 240H320V208H369.368C371.029 212.676 374.095 216.724 378.147 219.588C382.199 222.453 387.038 223.994 392 224H424C428.962 223.994 433.801 222.453 437.853 219.588C441.905 216.724 444.971 212.676 446.632 208H496V248Z" fill="white"/>
<path d="M256 176C273.405 176 290.419 170.839 304.89 161.169C319.362 151.5 330.641 137.756 337.301 121.676C343.962 105.596 345.705 87.9024 342.309 70.8321C338.914 53.7618 330.532 38.0817 318.225 25.7746C305.918 13.4676 290.238 5.08643 273.168 1.69093C256.098 -1.70456 238.404 0.0381293 222.324 6.69864C206.244 13.3592 192.5 24.6383 182.831 39.1099C173.161 53.5814 168 70.5953 168 88C168.028 111.331 177.308 133.698 193.805 150.195C210.302 166.692 232.669 175.973 256 176ZM256 16C270.24 16 284.161 20.2228 296.001 28.1342C307.841 36.0457 317.07 47.2906 322.519 60.4468C327.969 73.6031 329.395 88.0799 326.617 102.047C323.838 116.013 316.981 128.842 306.912 138.912C296.842 148.981 284.013 155.838 270.047 158.617C256.08 161.395 241.603 159.969 228.447 154.519C215.291 149.07 204.046 139.841 196.134 128.001C188.223 116.161 184 102.24 184 88C184.021 68.9109 191.614 50.6098 205.112 37.1117C218.61 23.6137 236.911 16.0212 256 16Z" fill="white"/>
<path d="M220 112C217.878 112 215.843 112.843 214.343 114.343C212.843 115.843 212 117.878 212 120C212 122.122 212.843 124.157 214.343 125.657C215.843 127.157 217.878 128 220 128H228V136C228 138.122 228.843 140.157 230.343 141.657C231.843 143.157 233.878 144 236 144C238.122 144 240.157 143.157 241.657 141.657C243.157 140.157 244 138.122 244 136V128H260V136C260 138.122 260.843 140.157 262.343 141.657C263.843 143.157 265.878 144 268 144C270.122 144 272.157 143.157 273.657 141.657C275.157 140.157 276 138.122 276 136V128C281.201 128.012 286.264 126.331 290.425 123.211C294.586 120.091 297.618 115.702 299.064 110.706C300.509 105.711 300.29 100.38 298.438 95.5202C296.586 90.6603 293.203 86.5351 288.8 83.768C290.56 80.741 291.627 77.3613 291.923 73.8724C292.219 70.3835 291.738 66.8723 290.514 63.5918C289.289 60.3114 287.353 57.3434 284.843 54.9017C282.333 52.4601 279.313 50.6056 276 49.472V40C276 37.8783 275.157 35.8434 273.657 34.3431C272.157 32.8429 270.122 32 268 32C265.878 32 263.843 32.8429 262.343 34.3431C260.843 35.8434 260 37.8783 260 40V48H244V40C244 37.8783 243.157 35.8434 241.657 34.3431C240.157 32.8429 238.122 32 236 32C233.878 32 231.843 32.8429 230.343 34.3431C228.843 35.8434 228 37.8783 228 40V48H220C217.878 48 215.843 48.8429 214.343 50.3431C212.843 51.8434 212 53.8783 212 56C212 58.1217 212.843 60.1566 214.343 61.6569C215.843 63.1571 217.878 64 220 64H228V112H220ZM244 64H268C270.122 64 272.157 64.8429 273.657 66.3431C275.157 67.8434 276 69.8783 276 72C276 74.1217 275.157 76.1566 273.657 77.6569C272.157 79.1571 270.122 80 268 80H244V64ZM244 96H276C278.122 96 280.157 96.8429 281.657 98.3431C283.157 99.8434 284 101.878 284 104C284 106.122 283.157 108.157 281.657 109.657C280.157 111.157 278.122 112 276 112H244V96Z" fill="white"/>
</svg>
