<svg width="439" height="482" viewBox="0 0 439 482" fill="none" xmlns="http://www.w3.org/2000/svg">
<path d="M406 70C413.097 70.0703 419.879 72.9389 424.873 77.9823C429.866 83.0256 432.667 89.8361 432.667 96.9333V315.333H6V96.9333C5.99965 89.8361 8.80063 83.0256 13.7941 77.9823C18.7875 72.9389 25.5698 70.0703 32.6667 70M288.667 443.333H150M288.667 443.333L278 368.667H160.667L150 443.333M288.667 443.333C297.154 443.333 305.293 446.705 311.294 452.706C317.295 458.707 320.667 466.846 320.667 475.333H118C118 466.846 121.371 458.707 127.373 452.706C133.374 446.705 141.513 443.333 150 443.333" stroke="white" stroke-width="12" stroke-miterlimit="10" stroke-linecap="round"/>
<path d="M432.667 315.333V342C432.667 349.072 429.857 355.855 424.856 360.856C419.855 365.857 413.072 368.667 406 368.667H32.9333C29.409 368.702 25.9127 368.038 22.6465 366.714C19.3803 365.39 16.4091 363.431 13.9045 360.951C11.4 358.471 9.41185 355.52 8.05508 352.267C6.69831 349.014 5.99982 345.524 6 342V315.333H432.667ZM48.6667 6H390V38H48.6667V6Z" stroke="white" stroke-width="12" stroke-miterlimit="10" stroke-linecap="round"/>
<path d="M390 294V6H48.6663V294M53.9997 22H43.333M75.333 22H64.6663M96.6663 22H85.9997M118 22H107.333" stroke="white" stroke-width="12" stroke-miterlimit="10" stroke-linecap="round"/>
<path d="M286.48 165.998L273.36 184.185L273.307 206.638L251.974 213.625L238.747 231.758L217.36 224.878L196.027 231.758L182.747 213.625L161.467 206.638L161.36 184.185L148.24 165.998L161.36 147.812L161.467 125.358L182.747 118.372L196.027 100.238L217.36 107.118L238.747 100.238L251.974 118.372L273.307 125.358L273.36 147.812L286.48 165.998Z" stroke="white" stroke-width="12" stroke-linecap="round" stroke-linejoin="round"/>
<path d="M159.067 192.453L110.693 240.826H142.533V272.666L190.907 224.293M275.653 192.453L324.027 240.826H292.187V272.666L243.813 224.293" stroke="white" stroke-width="12" stroke-linecap="round" stroke-linejoin="round"/>
<path d="M217.36 214C243.87 214 265.36 192.51 265.36 166C265.36 139.49 243.87 118 217.36 118C190.851 118 169.36 139.49 169.36 166C169.36 192.51 190.851 214 217.36 214Z" stroke="white" stroke-width="12" stroke-linecap="round" stroke-linejoin="round"/>
<path d="M206.693 143.974H217.36V187.974M206.693 187.974H228.027M70 60.5078H112.667M70 79.4945H112.667" stroke="white" stroke-width="12" stroke-linecap="round" stroke-linejoin="round"/>
</svg>
