<svg width="512" height="512" viewBox="0 0 512 512" fill="none" xmlns="http://www.w3.org/2000/svg">
<path d="M329.536 238.629L295.592 204.693C283.512 192.605 262.424 192.589 250.336 204.693L239.024 193.381C226.936 181.285 205.856 181.285 193.768 193.381L182.456 204.693C176.416 210.741 173.088 218.773 173.088 227.317C173.088 235.861 176.416 243.901 182.456 249.941L216.4 283.885C222.44 289.933 230.48 293.261 239.032 293.261C247.584 293.261 255.616 289.933 261.656 283.885L272.968 295.197C279.008 301.245 287.048 304.573 295.592 304.573C304.136 304.573 312.176 301.245 318.224 295.197L329.536 283.885C335.526 277.877 338.889 269.74 338.889 261.257C338.889 252.773 335.526 244.636 329.536 238.629ZM261.656 261.261L250.344 249.949C247.348 246.945 245.665 242.875 245.665 238.633C245.665 234.39 247.348 230.32 250.344 227.317L261.656 238.629C267.896 244.869 267.896 255.021 261.656 261.261ZM250.344 272.573C244.296 278.629 233.76 278.613 227.712 272.573L193.768 238.629C190.752 235.605 189.088 231.589 189.088 227.317C189.088 223.045 190.752 219.029 193.768 216.005L205.08 204.693C208.104 201.669 212.12 200.005 216.4 200.005C220.68 200.005 224.688 201.669 227.712 204.693L239.024 216.005C233.03 222.01 229.664 230.148 229.664 238.633C229.664 247.117 233.03 255.255 239.024 261.261L250.344 272.573ZM318.224 272.573L306.912 283.885C300.864 289.933 290.328 289.933 284.28 283.885L272.968 272.573C278.962 266.567 282.328 258.429 282.328 249.945C282.328 241.46 278.962 233.322 272.968 227.317L261.656 216.005C264.68 212.981 268.696 211.317 272.968 211.317C277.24 211.317 281.264 212.981 284.288 216.005L318.232 249.941C324.464 256.181 324.456 266.333 318.224 272.573Z" fill="white"/>
<path d="M507.576 208.846L443.576 176.846C442.465 176.29 441.239 176 439.996 176C438.753 176 437.527 176.29 436.416 176.846L415.776 187.166C415.392 186.67 327.992 117.39 327.992 117.39V40.0057C327.992 36.9737 326.28 34.2057 323.568 32.8457L259.576 0.845729C258.465 0.289564 257.239 0 255.996 0C254.753 0 253.527 0.289564 252.416 0.845729L188.416 32.8457C185.704 34.2057 183.992 36.9737 183.992 40.0057V117.39C183.992 117.39 96.6 186.67 96.208 187.166L75.568 176.846C74.4566 176.29 73.2308 176 71.988 176C70.7452 176 69.5194 176.29 68.408 176.846L4.424 208.846C1.712 210.206 0 212.974 0 216.006V296.006C0 299.038 1.712 301.806 4.424 303.166L68.424 335.166L68.456 335.102C69.576 335.662 70.776 336.006 72 336.006C73.224 336.006 74.448 335.726 75.576 335.166L132.672 306.614L211.736 373.19L188.416 384.846C185.704 386.206 183.992 388.974 183.992 392.006V472.006C183.992 475.038 185.704 477.806 188.416 479.166L252.416 511.166L252.448 511.102C253.568 511.662 254.768 512.006 255.992 512.006C257.216 512.006 258.44 511.726 259.568 511.166L323.568 479.166C326.28 477.806 327.992 475.038 327.992 472.006V392.006C327.992 388.974 326.28 386.206 323.568 384.846L300.248 373.19L379.312 306.614L436.408 335.166L436.44 335.102C437.56 335.662 438.76 336.006 439.984 336.006C441.208 336.006 442.432 335.726 443.56 335.166L507.56 303.166C510.272 301.806 511.984 299.038 511.984 296.006V216.006C511.984 212.974 510.272 210.206 507.56 208.846H507.576ZM440 192.95L486.112 216.006L440 239.062L393.888 216.006L440 192.95ZM292.96 89.7257C291.294 88.4113 289.175 87.8124 287.068 88.0607C284.961 88.309 283.038 89.3842 281.724 91.0497C280.41 92.7153 279.811 94.8348 280.059 96.9419C280.307 99.0491 281.382 100.971 283.048 102.286L304.184 118.974L264.008 139.062V76.9497L312.008 52.9497V104.758L292.96 89.7257ZM256 16.9497L302.112 40.0057L256 63.0617L209.888 40.0057L256 16.9497ZM200 52.9497L248 76.9497V139.062L207.824 118.974L228.96 102.286C230.626 100.971 231.701 99.0491 231.949 96.9419C232.197 94.8348 231.598 92.7153 230.284 91.0497C228.97 89.3842 227.047 88.309 224.94 88.0607C222.833 87.8124 220.714 88.4113 219.048 89.7257L200.008 104.758L200 52.9497ZM72 192.95L118.112 216.006L72 239.062L25.888 216.006L72 192.95ZM16 228.95L64 252.95V315.062L16 291.062V228.95ZM80 315.062V252.95L128 228.95V281.758L109.152 265.886C107.529 264.52 105.431 263.855 103.317 264.035C101.204 264.215 99.2487 265.226 97.88 266.846C96.5136 268.469 95.848 270.568 96.0296 272.682C96.2111 274.796 97.2249 276.751 98.848 278.118L119.344 295.382L80 315.062ZM200 404.95L248 428.95V491.062L200 467.062V404.95ZM264 491.062V428.95L312 404.95V467.062L264 491.062ZM256 415.062L209.888 392.006L256 368.95L302.112 392.006L256 415.062ZM259.576 352.854C258.465 352.298 257.239 352.008 255.996 352.008C254.753 352.008 253.527 352.298 252.416 352.854L227.312 365.406L143.992 295.238V216.006C143.992 212.974 142.28 210.206 139.568 208.846L111.648 194.886L193.936 129.918L252.408 159.158L252.44 159.094C253.56 159.654 254.76 159.998 255.984 159.998C257.208 159.998 258.432 159.718 259.56 159.158L318.032 129.918L400.32 194.886L372.4 208.846C369.688 210.206 367.976 212.974 367.976 216.006V295.238L284.656 365.406L259.552 352.854H259.576ZM414.12 266.854C413.444 266.049 412.616 265.385 411.683 264.901C410.75 264.417 409.731 264.122 408.683 264.033C407.636 263.944 406.582 264.062 405.58 264.381C404.579 264.701 403.65 265.215 402.848 265.894L384 281.766V228.958L432 252.958V315.07L392.656 295.398L413.152 278.134C414.775 276.767 415.789 274.812 415.97 272.698C416.152 270.584 415.486 268.477 414.12 266.854ZM448 315.062V252.95L496 228.95V291.062L448 315.062Z" fill="white"/>
</svg>
