<svg width="512" height="473" viewBox="0 0 512 473" fill="none" xmlns="http://www.w3.org/2000/svg">
<path d="M283.499 262.561C265.066 262.552 246.956 267.394 230.987 276.598C230.076 277.124 229.278 277.824 228.638 278.658C227.998 279.493 227.529 280.445 227.257 281.461C226.985 282.477 226.916 283.536 227.054 284.578C227.191 285.621 227.533 286.626 228.059 287.537C228.585 288.447 229.285 289.245 230.119 289.885C230.954 290.525 231.906 290.994 232.922 291.266C233.937 291.538 234.997 291.607 236.039 291.47C237.082 291.332 238.087 290.991 238.997 290.465C258.609 279.126 281.799 275.675 303.862 280.812C325.925 285.95 345.206 299.29 357.791 318.126C370.376 336.961 375.322 359.88 371.625 382.229C367.928 404.578 355.864 424.683 337.884 438.462C319.903 452.24 297.353 458.661 274.811 456.419C252.269 454.177 231.425 443.441 216.511 426.391C201.596 409.341 193.729 387.254 194.505 364.614C195.282 341.975 204.645 320.479 220.693 304.491C221.459 303.755 222.07 302.874 222.492 301.899C222.913 300.924 223.136 299.875 223.148 298.812C223.16 297.75 222.96 296.697 222.56 295.713C222.16 294.729 221.568 293.834 220.819 293.081C220.069 292.328 219.178 291.732 218.195 291.328C217.213 290.923 216.161 290.718 215.098 290.725C214.036 290.732 212.986 290.95 212.009 291.366C211.032 291.783 210.148 292.39 209.408 293.153C192.175 310.301 181.424 332.896 178.989 357.085C176.554 381.274 182.585 405.559 196.055 425.798C209.524 446.037 229.597 460.977 252.85 468.07C276.104 475.164 301.098 473.971 323.57 464.695C346.042 455.42 364.601 438.636 376.081 417.206C387.562 395.776 391.253 371.027 386.525 347.18C381.798 323.333 368.944 301.864 350.156 286.435C331.368 271.006 307.81 262.572 283.499 262.571V262.561Z" fill="#00ECE5"/>
<path d="M292.192 399.221H272.107C270.554 399.224 269.015 398.921 267.58 398.329C266.144 397.737 264.839 396.867 263.74 395.771C262.64 394.674 261.767 393.372 261.171 391.938C260.576 390.504 260.268 388.966 260.267 387.413C260.267 385.291 259.424 383.257 257.924 381.756C256.423 380.256 254.388 379.413 252.267 379.413C250.145 379.413 248.11 380.256 246.61 381.756C245.11 383.257 244.267 385.291 244.267 387.413C244.275 394.786 247.208 401.854 252.421 407.067C257.634 412.28 264.702 415.213 272.075 415.221H274.133V430.56C274.133 432.682 274.976 434.716 276.476 436.217C277.977 437.717 280.012 438.56 282.133 438.56C284.255 438.56 286.29 437.717 287.79 436.217C289.29 434.716 290.133 432.682 290.133 430.56V415.221H292.171C299.546 415.221 306.619 412.291 311.834 407.076C317.049 401.861 319.979 394.788 319.979 387.413C319.979 380.038 317.049 372.965 311.834 367.75C306.619 362.535 299.546 359.605 292.171 359.605H272.107C269.035 359.513 266.12 358.228 263.98 356.022C261.84 353.817 260.643 350.865 260.643 347.792C260.643 344.719 261.84 341.767 263.98 339.561C266.12 337.356 269.035 336.071 272.107 335.978H292.192C295.323 335.981 298.325 337.226 300.538 339.44C302.752 341.654 303.997 344.656 304 347.786C304 349.908 304.843 351.943 306.343 353.443C307.843 354.944 309.878 355.786 312 355.786C314.122 355.786 316.157 354.944 317.657 353.443C319.157 351.943 320 349.908 320 347.786C319.992 340.414 317.059 333.346 311.846 328.133C306.633 322.919 299.565 319.987 292.192 319.978H290.133V304.629C290.133 302.507 289.29 300.473 287.79 298.972C286.29 297.472 284.255 296.629 282.133 296.629C280.012 296.629 277.977 297.472 276.476 298.972C274.976 300.473 274.133 302.507 274.133 304.629V319.978H272.107C264.824 320.121 257.889 323.114 252.789 328.315C247.689 333.515 244.833 340.508 244.833 347.792C244.833 355.075 247.689 362.069 252.789 367.269C257.889 372.47 264.824 375.463 272.107 375.605H292.192C295.324 375.605 298.327 376.849 300.542 379.064C302.756 381.278 304 384.281 304 387.413C304 390.545 302.756 393.548 300.542 395.763C298.327 397.977 295.324 399.221 292.192 399.221ZM473.781 147.157C471.761 146.662 469.626 146.973 467.831 148.025C466.036 149.077 464.721 150.787 464.166 152.793C463.611 154.798 463.859 156.941 464.858 158.766C465.856 160.592 467.527 161.956 469.515 162.57C491.157 168.586 496.032 175.37 496.032 177.205C496.032 183.882 464.725 199.541 404.032 199.541C343.339 199.541 312.021 183.882 312.021 177.205C312.021 170.528 343.317 154.869 404.032 154.869C418.391 154.817 432.734 155.826 446.944 157.888C449.013 158.134 451.097 157.564 452.753 156.299C454.409 155.034 455.507 153.174 455.814 151.112C456.121 149.051 455.612 146.952 454.396 145.259C453.18 143.567 451.353 142.415 449.301 142.048C434.31 139.878 419.18 138.809 404.032 138.848C352.011 138.848 296.021 150.848 296.021 177.184V239.424C296.021 265.76 352.011 277.76 404.032 277.76C438.997 277.76 475.691 272.309 496.032 260.746V270.538C496.032 277.216 464.725 292.874 404.032 292.874C397.067 292.874 390.283 292.661 383.765 292.234C381.648 292.111 379.567 292.825 377.97 294.221C376.374 295.618 375.391 297.586 375.232 299.701C375.158 300.752 375.293 301.808 375.629 302.807C375.965 303.806 376.495 304.729 377.189 305.522C377.883 306.315 378.727 306.963 379.673 307.429C380.618 307.894 381.647 308.168 382.699 308.234C389.579 308.682 396.715 308.917 404.032 308.917C438.997 308.917 475.691 303.466 496.032 291.85V301.642C496.032 308.32 464.725 324.042 404.032 324.042C404.032 324.042 400.693 324.106 399.211 324.042C397.113 324.057 395.098 324.864 393.57 326.302C392.043 327.741 391.116 329.704 390.976 331.797C390.916 333.919 391.699 335.979 393.155 337.525C394.61 339.07 396.619 339.976 398.741 340.042H404.075C439.04 340.042 475.733 334.581 496.075 322.976V332.768C496.075 339.445 464.768 355.104 404.075 355.104C401.953 355.104 399.918 355.947 398.418 357.447C396.918 358.947 396.075 360.982 396.075 363.104C396.075 365.226 396.918 367.26 398.418 368.761C399.918 370.261 401.953 371.104 404.075 371.104C439.04 371.104 475.733 365.642 496.075 354.09V364.661C496.075 371.338 464.768 386.997 404.075 386.997H401.205C399.119 387.087 397.14 387.945 395.647 389.406C394.155 390.867 393.255 392.828 393.12 394.912C393.1 397.033 393.922 399.075 395.406 400.591C396.89 402.106 398.914 402.972 401.035 402.997H404.075C456.011 403.029 512 391.029 512 364.693V177.205C512 168.352 505.365 155.957 473.781 147.157ZM404 215.541C438.965 215.541 475.659 210.09 496 198.528V208.32C496 214.997 464.693 230.72 404 230.72C343.307 230.72 311.989 215.05 311.989 208.32V198.528C332.331 210.09 369.067 215.541 404 215.541ZM404 261.781C343.285 261.781 311.989 246.122 311.989 239.445V229.653C332.331 241.216 369.013 246.72 404 246.72C438.987 246.72 475.659 241.269 496 229.653V239.445C496 246.122 464.693 261.781 404 261.781ZM168.533 410.016C165.717 410.122 162.88 410.186 160 410.186C75.2 410.186 16 361.536 16 291.882C16 235.082 54.4 151.082 111.669 116.576C112.448 116.096 113.099 115.509 113.803 114.976H179.2C181.322 114.976 183.357 114.133 184.857 112.633C186.357 111.132 187.2 109.098 187.2 106.976C187.2 104.854 186.357 102.819 184.857 101.319C183.357 99.8187 181.322 98.9758 179.2 98.9758H123.893C124.985 92.9626 123.741 86.7595 120.416 81.6318C93.376 39.7438 88.1173 20.8958 89.0987 16.0105C89.2017 16.0708 89.3212 16.0969 89.44 16.0851C101.453 16.1688 113.392 17.9867 124.885 21.4825C136.006 24.8623 147.547 26.6578 159.168 26.8158C172.306 26.4935 185.356 24.5663 198.027 21.0771C208.068 18.3121 218.378 16.6384 228.779 16.0851C228.491 22.1118 222.517 39.9145 201.856 75.1785H140.8C138.678 75.1785 136.643 76.0213 135.143 77.5216C133.643 79.0219 132.8 81.0567 132.8 83.1785C132.8 85.3002 133.643 87.335 135.143 88.8353C136.643 90.3356 138.678 91.1785 140.8 91.1785H194.795C194.4 94.1601 194.574 97.1894 195.307 100.106C196.164 103.42 197.674 106.529 199.75 109.251C201.825 111.973 204.423 114.253 207.392 115.957C236.19 134.713 259.543 160.718 275.104 191.36C275.591 192.31 276.263 193.153 277.08 193.839C277.898 194.526 278.844 195.042 279.864 195.356C280.884 195.671 281.957 195.779 283.019 195.673C284.082 195.567 285.112 195.249 286.049 194.739C286.987 194.228 287.813 193.535 288.479 192.701C289.144 191.866 289.636 190.907 289.925 189.879C290.214 188.852 290.295 187.777 290.162 186.717C290.029 185.658 289.686 184.636 289.152 183.712C272.216 150.537 246.828 122.416 215.552 102.186C214.405 101.549 213.397 100.69 212.586 99.6587C211.775 98.6277 211.177 97.4455 210.827 96.1811C210.554 95.1193 210.499 94.0132 210.666 92.9296C210.833 91.8461 211.218 90.8077 211.797 89.8771C251.947 23.0825 245.461 11.6158 242.731 6.67712C241.514 4.5731 239.747 2.84054 237.62 1.66587C235.492 0.491193 233.085 -0.081136 230.656 0.0104564C218.392 0.363199 206.215 2.19329 194.389 5.46112C182.916 8.66249 171.096 10.4535 159.189 10.7945C148.95 10.6125 138.787 8.9858 129.003 5.96246C116.168 2.12976 102.856 0.133069 89.4613 0.0317895C86.6 -0.153541 83.7446 0.474239 81.2249 1.84263C78.7051 3.21103 76.6239 5.26422 75.2213 7.76512C72.5333 12.7038 65.3867 25.8238 106.997 90.2718C107.623 91.2002 108.05 92.2483 108.25 93.3499C108.45 94.4515 108.419 95.5826 108.16 96.6718C107.829 97.9707 107.239 99.1893 106.425 100.254C105.611 101.319 104.59 102.209 103.424 102.869C41.6 140.17 0 230.72 0 291.882C0 369.696 67.3067 426.229 160 426.229C163.072 426.229 166.123 426.165 169.152 426.037C170.203 425.996 171.235 425.748 172.19 425.308C173.144 424.868 174.003 424.244 174.717 423.471C175.43 422.699 175.985 421.794 176.349 420.808C176.713 419.821 176.879 418.773 176.837 417.722C176.796 416.672 176.548 415.64 176.108 414.685C175.668 413.73 175.044 412.871 174.272 412.158C173.5 411.444 172.595 410.89 171.608 410.526C170.622 410.162 169.573 409.996 168.523 410.037L168.533 410.016Z" fill="#00ECE5"/>
</svg>
