<svg width="502" height="475" viewBox="0 0 502 475" fill="none" xmlns="http://www.w3.org/2000/svg">
<path d="M435.945 32.3199C395.315 13.6259 342.557 41.0969 318.335 93.5539C304.618 123.26 302.359 155.498 312.14 182.002C319.14 200.965 331.571 215.007 348.098 222.61C356.631 226.516 365.913 228.518 375.298 228.476C409.898 228.476 446.642 202.666 465.707 161.376C479.424 131.67 481.682 99.4309 471.901 72.9279C464.905 53.9689 452.472 39.9269 435.945 32.3199ZM436.212 46.0379C444.615 51.2413 451.498 58.569 456.166 67.2819L454.304 71.3119L429.76 60.0199L436.212 46.0379ZM351.418 136.595L360.684 116.527L385.231 127.821L375.965 147.889L351.418 136.595ZM370.935 158.784L361.669 178.851L337.121 167.557L346.387 147.49L370.935 158.784ZM365.714 105.633L374.981 85.5649L399.528 96.8589L390.26 116.931L365.714 105.633ZM396.133 132.833L420.681 144.127L411.415 164.195L386.867 152.901L396.133 132.833ZM401.164 121.933L410.43 101.866L434.978 113.16L425.711 133.228L401.164 121.933ZM415.46 90.9839L424.726 70.9199L449.274 82.2139L440.008 102.281L415.46 90.9839ZM396.16 39.6959C400.225 38.8504 404.365 38.4169 408.517 38.4019C414.217 38.3853 419.884 39.2723 425.307 41.0299L418.86 55.0069L394.307 43.7119L396.16 39.6959ZM389.275 54.6069L413.823 65.9009L404.56 85.9689L380.011 74.6749L389.275 54.6069ZM374.56 47.8349L378.377 49.5909L369.111 69.6589L354.383 62.8829C360.429 57.0146 367.211 51.9563 374.56 47.8349ZM345.807 72.1469L364.079 80.5539L354.813 100.62L333.232 90.6909C336.834 84.1299 341.044 77.9214 345.807 72.1469ZM327.946 101.469L349.782 111.52L340.516 131.588L320.984 122.601C322.66 115.361 324.99 108.288 327.946 101.469ZM318.886 159.169C317.89 151.085 317.88 142.911 318.856 134.825L335.486 142.476L326.22 162.544L318.886 159.169ZM347.805 208.878C339.403 203.668 332.524 196.336 327.86 187.62L332.092 178.456L356.639 189.75L347.805 208.878ZM387.838 215.261C378.174 217.352 368.131 216.881 358.706 213.895L367.54 194.764L392.087 206.058L387.838 215.261ZM397.118 195.161L372.57 183.871L381.837 163.803L406.384 175.097L397.118 195.161ZM415.346 203.548L408.019 200.177L417.285 180.109L433.894 187.75C428.362 193.737 422.135 199.042 415.346 203.552V203.548ZM441.846 178.202L422.316 169.22L431.582 149.152L453.444 159.21C450.166 165.882 446.286 172.24 441.851 178.206L441.846 178.202ZM458.228 148.202L436.607 138.254L445.874 118.186L464.218 126.627C462.9 133.99 460.896 141.214 458.233 148.204L458.228 148.202ZM465.712 114.102L450.904 107.289L460.17 87.2219L464.023 88.9939C465.69 97.2539 466.259 105.698 465.717 114.107L465.712 114.102Z" fill="#00ECE5"/>
<path d="M447.347 7.62958C395.315 -16.3084 328.165 17.9706 297.659 84.0456C280.566 121.066 277.831 161.457 290.159 194.86C296.496 212.033 306.33 226.073 319.033 236.335L295.194 287.966L292.606 287.413C289.79 286.81 286.93 286.435 284.055 286.294L279.682 279.956C276.138 274.83 274.619 268.573 275.418 262.393C276.596 253.275 274.356 244.044 269.13 236.481L137.213 45.3366C131.419 36.9745 122.55 31.2473 112.545 29.4079C102.54 27.5685 92.2132 29.7667 83.8246 35.5216C79.6734 38.3732 76.1255 42.0155 73.3837 46.2401C70.642 50.4646 68.7604 55.1884 67.8466 60.1411C66.9328 65.0938 67.0047 70.178 68.0583 75.1028C69.1119 80.0276 71.1264 84.6963 73.9866 88.8416L151.131 200.622C129.46 196.642 107.129 198.323 86.2988 205.502C65.4684 212.681 46.8436 225.115 32.2265 241.601C17.6095 258.088 7.49514 278.067 2.8621 299.608C-1.77095 321.148 -0.765797 343.519 5.78028 364.557C12.3264 385.595 24.1917 404.587 40.2283 419.696C56.2649 434.805 75.9298 445.519 97.3201 450.801C118.71 456.083 141.102 455.755 162.328 449.848C183.555 443.941 202.897 432.655 218.484 417.083C219.394 416.171 220.291 415.246 221.174 414.308C218.342 422.377 217.872 431.086 219.819 439.413C221.766 447.74 226.049 455.338 232.165 461.315C238.28 467.292 245.975 471.4 254.344 473.156C262.713 474.912 271.41 474.242 279.412 471.227C287.414 468.211 294.389 462.975 299.518 456.132C304.647 449.29 307.717 441.126 308.367 432.599C309.017 424.072 307.22 415.537 303.188 407.996C299.155 400.456 293.054 394.222 285.602 390.029L295.294 392.029L306.102 397.883L333.025 436.897L332.237 437.438C330.75 438.46 329.48 439.765 328.498 441.278C327.516 442.791 326.843 444.483 326.516 446.258C326.189 448.032 326.215 449.853 326.592 451.617C326.97 453.381 327.691 455.053 328.716 456.538C332.94 462.639 339.409 466.818 346.707 468.16C354.006 469.503 361.539 467.9 367.658 463.702L383.438 452.851C386.74 450.576 389.515 447.619 391.577 444.18L398.277 447.809C405.094 451.512 413.076 452.447 420.566 450.421L446.641 443.404C448.206 442.983 449.646 442.191 450.84 441.095C452.033 439.998 452.944 438.63 453.495 437.106C454.047 435.582 454.222 433.948 454.006 432.341C453.79 430.735 453.19 429.205 452.256 427.881L432.459 399.814L469.494 384.165C469.536 384.148 469.577 384.129 469.618 384.111C471.135 383.43 472.459 382.384 473.473 381.067C474.488 379.749 475.16 378.201 475.429 376.561C475.699 374.92 475.558 373.238 475.019 371.665C474.48 370.093 473.56 368.678 472.341 367.548L445.917 341.737L474.922 323.251C476.299 322.373 477.442 321.174 478.252 319.757C479.062 318.339 479.516 316.745 479.573 315.114C479.63 313.482 479.289 311.861 478.58 310.39C477.87 308.919 476.814 307.643 475.502 306.672L454.125 290.843C448.304 286.528 441.127 284.448 433.902 284.983L339.202 291.098L356.535 253.557C361.653 254.483 366.845 254.946 372.047 254.942C416.055 254.942 462.483 222.682 486.395 170.896C503.489 133.876 506.223 93.4846 493.895 60.0816C484.859 35.6216 468.769 17.4866 447.347 7.62958ZM284.577 298.358L268.239 374.528C262.767 373.928 254.916 372.428 249.86 366.052C253.986 353.278 256.081 339.935 256.067 326.511C256.065 321.86 255.813 317.212 255.314 312.589C258.432 303.184 270.93 297.322 284.577 298.358ZM257.547 384.648C250.469 385.6 243.724 388.237 237.877 392.336C240.599 387.823 243.037 383.144 245.177 378.327C248.838 381.236 253.044 383.385 257.547 384.648ZM146.909 212.06C154.281 213.277 161.519 215.2 168.524 217.802C169.806 218.284 171.215 218.313 172.517 217.884C173.818 217.455 174.933 216.593 175.677 215.442V215.435C176.161 214.682 176.471 213.831 176.584 212.944C176.697 212.056 176.61 211.154 176.329 210.305C176.048 209.455 175.581 208.679 174.962 208.033C174.343 207.387 173.587 206.888 172.75 206.573C171.464 206.094 170.17 205.644 168.872 205.208L83.8636 82.0216C81.8993 79.1747 80.5159 75.9684 79.7925 72.5861C79.0691 69.2038 79.0199 65.7121 79.6478 62.3108C80.2758 58.9095 81.5684 55.6655 83.4518 52.7645C85.3352 49.8635 87.7723 47.3624 90.6236 45.4046C96.392 41.4479 103.493 39.9366 110.372 41.2012C117.252 42.4657 123.351 46.4032 127.336 52.1526L259.246 243.298C262.789 248.424 264.308 254.681 263.509 260.862C262.33 269.979 264.571 279.209 269.798 286.772L270.284 287.472C263.717 288.885 257.6 291.897 252.476 296.241C246.938 273.382 235.171 252.507 218.484 235.934C215.997 233.45 213.434 231.093 210.795 228.861C210.196 228.326 209.497 227.917 208.738 227.658C207.979 227.399 207.175 227.294 206.375 227.351C205.575 227.407 204.794 227.624 204.079 227.987C203.364 228.351 202.729 228.854 202.212 229.467C201.695 230.081 201.306 230.791 201.068 231.557C200.83 232.323 200.748 233.129 200.827 233.928C200.907 234.726 201.145 235.5 201.529 236.205C201.912 236.909 202.433 237.53 203.061 238.03C203.929 238.767 204.779 239.53 205.63 240.302L165.639 280.222C157.585 271.004 151.718 260.086 148.474 248.284C145.231 236.481 144.696 224.098 146.909 212.06ZM242.497 307.376C230.431 309.6 218.018 309.076 206.183 305.843C194.347 302.61 183.392 296.751 174.133 288.702L214.133 248.77C229.038 265.163 238.888 285.515 242.497 307.376ZM127.759 210.48C130.163 210.48 132.565 210.555 134.967 210.706C132.539 224.539 133.271 238.742 137.108 252.252C140.945 265.762 147.788 278.229 157.124 288.722L127.759 318.033L49.8786 240.293C71.2499 221.052 99.002 210.428 127.759 210.48ZM11.4586 326.511C11.3808 297.769 22.0575 270.038 41.3896 248.77L119.27 326.511L90.0696 355.658C79.4544 346.401 66.9149 339.618 53.3577 335.8C39.8006 331.982 25.5644 331.224 11.6786 333.582C11.5376 331.237 11.4586 328.88 11.4586 326.511ZM13.0076 345.511C25.1001 343.251 37.5469 343.754 49.4177 346.982C61.2884 350.21 72.2758 356.08 81.5586 364.153L41.3876 404.253C26.4533 387.825 16.5962 367.423 13.0076 345.514V345.511ZM108.749 440.986C86.8207 437.411 66.3851 427.601 49.8826 412.726L90.0546 372.626C98.1332 381.868 104.012 392.82 107.25 404.661C110.488 416.501 111 428.922 108.749 440.989V440.986ZM120.68 442.317C123.026 428.46 122.258 414.256 118.431 400.733C114.605 387.211 107.817 374.709 98.5586 364.137L127.759 334.989L205.639 412.729C194.155 423.06 180.726 430.999 166.139 436.08C151.551 441.161 136.097 443.283 120.68 442.322V442.317ZM214.137 404.248L136.259 326.511L165.634 297.189C182.72 312.347 204.768 320.719 227.61 320.722C233.05 320.717 238.48 320.246 243.84 319.314C243.985 321.701 244.067 324.1 244.067 326.514C244.143 355.254 233.467 382.983 214.137 404.251V404.248ZM296.498 429.16C296.497 435.672 294.566 442.039 290.948 447.454C287.329 452.869 282.186 457.089 276.169 459.581C270.153 462.073 263.532 462.725 257.144 461.455C250.757 460.184 244.889 457.048 240.284 452.443C235.679 447.838 232.543 441.97 231.272 435.583C230.002 429.195 230.654 422.575 233.146 416.558C235.638 410.541 239.859 405.398 245.274 401.78C250.689 398.161 257.055 396.23 263.568 396.23C272.299 396.239 280.67 399.712 286.843 405.886C293.017 412.06 296.489 420.431 296.498 429.163V429.16ZM292.782 379.222L280.087 376.509L296.387 300.497L309.082 303.211L292.782 379.222ZM329.387 410.495L352.899 423.231L342.913 430.097L329.387 410.495ZM376.639 442.964L360.859 453.814C357.36 456.213 353.054 457.13 348.881 456.363C344.709 455.597 341.01 453.209 338.593 449.723C338.463 449.536 338.372 449.326 338.324 449.104C338.277 448.882 338.273 448.653 338.315 448.43C338.356 448.207 338.441 447.994 338.565 447.804C338.689 447.614 338.849 447.45 339.037 447.323L364.746 429.645L381 438.445C379.859 440.223 378.376 441.758 376.639 442.96V442.964ZM440.852 432.536L417.446 438.836C412.925 440.061 408.106 439.496 403.991 437.259L304.2 383.208L308.7 362.208L415.711 401.008C418.243 401.921 420.432 403.592 421.981 405.794L440.852 432.536ZM462.052 374.284L422.6 390.952L311.244 350.364L313.817 338.364L430.48 346.864C431.578 346.861 432.674 346.786 433.763 346.64L462.052 374.284ZM434.731 296.958C439.105 296.624 443.453 297.879 446.978 300.492L466.093 314.646L437.602 332.806C435.203 334.329 432.378 335.041 429.544 334.837L316.359 326.522L321.128 304.287L434.731 296.958ZM325.569 291.978L316.653 292.554L307.217 290.537L329.029 243.296C331.513 244.764 334.071 246.105 336.693 247.312C339.311 248.514 341.99 249.579 344.72 250.502L325.569 291.978ZM475.491 165.866C447.752 225.94 387.74 257.587 341.709 236.41C323.243 227.91 309.309 212.11 301.409 190.71C290.178 160.272 292.779 123.229 308.548 89.0786C330.442 41.6616 372.443 11.9556 411.805 11.9556C422.336 11.9073 432.752 14.1523 442.329 18.5346C460.795 27.0346 474.729 42.8346 482.629 64.2346C493.859 94.6726 491.259 131.716 475.491 165.866Z" fill="#00ECE5"/>
<path d="M102.682 66.3159L101.539 64.5999C101.108 63.9316 100.548 63.3555 99.8924 62.9053C99.2368 62.4552 98.4982 62.1398 97.7196 61.9776C96.941 61.8155 96.138 61.8097 95.3571 61.9607C94.5763 62.1116 93.8333 62.4163 93.1712 62.857C92.5092 63.2977 91.9414 63.8657 91.5008 64.5278C91.0603 65.1899 90.7557 65.933 90.6049 66.7139C90.4541 67.4947 90.4601 68.2978 90.6224 69.0763C90.7848 69.8549 91.1003 70.5934 91.5506 71.2489L92.6926 72.9649C93.1259 73.6282 93.6863 74.1991 94.3414 74.6447C94.9965 75.0903 95.7334 75.4017 96.5095 75.5609C97.2856 75.7202 98.0856 75.7242 98.8632 75.5727C99.6409 75.4212 100.381 75.1171 101.04 74.6781C101.7 74.2391 102.266 73.6738 102.706 73.0149C103.146 72.356 103.451 71.6165 103.603 70.839C103.756 70.0616 103.753 69.2616 103.595 68.4853C103.437 67.709 103.126 66.9717 102.682 66.3159ZM112.818 81.5439C111.928 80.2386 110.559 79.3369 109.008 79.0346C107.457 78.7323 105.85 79.0539 104.535 79.9295C103.22 80.805 102.303 82.164 101.984 83.7113C101.665 85.2586 101.969 86.8693 102.83 88.1939L145.596 152.438C146.027 153.106 146.586 153.682 147.242 154.133C147.897 154.583 148.636 154.898 149.415 155.06C150.193 155.222 150.996 155.228 151.777 155.077C152.558 154.926 153.301 154.622 153.963 154.181C154.625 153.74 155.193 153.172 155.633 152.51C156.074 151.848 156.378 151.105 156.529 150.324C156.68 149.543 156.674 148.74 156.512 147.962C156.349 147.183 156.034 146.444 155.584 145.789L112.818 81.5439Z" fill="#00ECE5"/>
</svg>
