<svg width="512" height="512" viewBox="0 0 512 512" fill="none" xmlns="http://www.w3.org/2000/svg">
<path d="M237.906 502H375.812C348.945 438.396 293.419 392.783 228.01 377.615M147.49 372.126H139.873C68.1462 372.126 10 430.273 10 502H147.906M149.42 349.008V393.663C149.42 415.077 166.779 432.436 188.193 432.436C209.606 432.436 226.965 415.077 226.965 393.663V375.896" stroke="#00ECE5" stroke-width="19.9997" stroke-miterlimit="10" stroke-linecap="round" stroke-linejoin="round"/>
<path d="M87.4545 188.168C81.8538 194.307 78.7541 202.32 78.7657 210.63C78.7657 229.063 93.7095 244.006 112.142 244.006V266.959C112.142 327.124 160.916 375.897 221.081 375.897C281.246 375.897 330.019 327.124 330.019 266.959V253.566" stroke="#00ECE5" stroke-width="19.9997" stroke-miterlimit="10" stroke-linecap="round" stroke-linejoin="round"/>
<path d="M263.515 310.135C254.7 318.95 240.409 318.95 231.594 310.135M229.929 142.25H293.8C330.32 142.25 359.925 112.645 359.925 76.1251C359.925 39.6056 330.32 10 293.8 10H227.352C150.698 10 87.316 66.8152 77.0171 140.631M192.906 142.25H64.4883V187.71H161.522" stroke="#00ECE5" stroke-width="19.9997" stroke-miterlimit="10" stroke-linecap="round" stroke-linejoin="round"/>
<path d="M192.906 142.249H341.755C359.088 142.249 373.138 156.3 373.138 173.632V218.81C373.138 236.143 359.087 250.193 341.755 250.193H192.906C175.573 250.193 161.523 236.142 161.523 218.81V173.632C161.522 156.3 175.573 142.249 192.906 142.249ZM430.42 88.9782L401.244 59.8026L430.42 30.627L459.595 59.8026L430.42 88.9782ZM424.619 340.121L395.513 311.015L424.619 281.91L453.724 311.015L424.619 340.121ZM466.206 232.009L430.419 196.222L466.206 160.434L501.994 196.222L466.206 232.009Z" stroke="#00ECE5" stroke-width="19.9997" stroke-miterlimit="10" stroke-linecap="round" stroke-linejoin="round"/>
</svg>
