<svg width="434" height="434" viewBox="0 0 434 434" fill="none" xmlns="http://www.w3.org/2000/svg">
<path fill-rule="evenodd" clip-rule="evenodd" d="M369.799 285.316L272.029 218.655C271.18 218.077 270.486 217.3 270.006 216.392C269.527 215.484 269.277 214.472 269.277 213.446H269.264V102.344H281.904V210.122L376.909 274.898L369.799 285.316ZM56.5547 274.898L151.559 210.122V102.344H164.2V213.446H164.186C164.187 214.472 163.936 215.484 163.457 216.391C162.977 217.299 162.283 218.076 161.435 218.655L63.6643 285.316L56.5547 274.898ZM139.471 323.102L149.345 330.952L202.674 263.688C203.564 262.573 204.047 261.189 204.044 259.763H204.057V64.2231H191.417V257.581L139.471 323.102ZM284.118 330.952L293.993 323.102L242.046 257.582V64.2231H229.407V259.763H229.419C229.417 261.189 229.9 262.573 230.789 263.688L284.118 330.952Z" fill="#ADA0AD"/>
<path fill-rule="evenodd" clip-rule="evenodd" d="M289.057 361.977C313.5 361.977 333.498 381.976 333.498 406.418V425.969C333.498 429.887 330.303 433.082 326.386 433.082H251.73C247.812 433.082 244.617 429.887 244.617 425.969V406.418C244.615 381.976 264.614 361.977 289.057 361.977Z" fill="#00BFA9"/>
<path fill-rule="evenodd" clip-rule="evenodd" d="M144.41 361.977C119.967 361.977 99.9688 381.976 99.9688 406.418V425.969C99.9688 429.887 103.164 433.082 107.081 433.082H181.737C185.655 433.082 188.85 429.887 188.85 425.969V406.418C188.851 381.976 168.852 361.977 144.41 361.977Z" fill="#FFBF31"/>
<path fill-rule="evenodd" clip-rule="evenodd" d="M388.98 259.777C413.423 259.777 433.42 279.776 433.42 304.218V323.769C433.42 327.687 430.225 330.882 426.308 330.882H351.652C347.734 330.882 344.539 327.687 344.539 323.769V304.218C344.539 279.776 364.537 259.777 388.98 259.777Z" fill="#60B7FE"/>
<path fill-rule="evenodd" clip-rule="evenodd" d="M44.4875 259.777C20.0446 259.777 0.046875 279.776 0.046875 304.218V323.769C0.046875 327.687 3.24175 330.882 7.15958 330.882H81.8153C85.7331 330.882 88.928 327.687 88.928 323.769V304.218C88.928 279.776 68.9303 259.777 44.4875 259.777Z" fill="#E33F65"/>
<path fill-rule="evenodd" clip-rule="evenodd" d="M289.056 361.977C290.985 361.977 292.887 362.102 294.753 362.344C307.953 370.072 316.869 384.408 316.869 400.727V420.278C316.869 424.196 313.674 427.391 309.756 427.391H244.759C244.448 425.866 244.616 409.335 244.616 406.418C244.615 381.976 264.613 361.977 289.056 361.977Z" fill="#19CFBA"/>
<path fill-rule="evenodd" clip-rule="evenodd" d="M144.409 361.977C119.966 361.977 99.9671 381.976 99.9671 406.418C99.9671 409.335 99.7992 425.867 100.11 427.391H165.108C169.026 427.391 172.221 424.196 172.221 420.278V400.727C172.221 384.408 163.305 370.072 150.104 362.344C148.216 362.099 146.313 361.977 144.409 361.977Z" fill="#FFE177"/>
<path fill-rule="evenodd" clip-rule="evenodd" d="M388.978 259.777C390.907 259.777 392.808 259.902 394.675 260.144C407.875 267.872 416.791 282.208 416.791 298.528V318.079C416.791 321.997 413.596 325.192 409.678 325.192H344.681C344.369 323.667 344.537 307.135 344.537 304.218C344.537 279.776 364.535 259.777 388.978 259.777Z" fill="#88C8FE"/>
<path fill-rule="evenodd" clip-rule="evenodd" d="M44.4858 259.777C20.0429 259.777 0.0452335 279.776 0.0452335 304.218C0.0452335 307.135 -0.122703 323.667 0.188593 325.192H65.186C69.1038 325.192 72.2987 321.997 72.2987 318.079V298.528C72.2987 282.208 63.3827 267.872 50.1823 260.144C48.2933 259.9 46.3905 259.778 44.4858 259.777Z" fill="#FA6E85"/>
<path d="M293.705 346.416C304.509 343.853 311.192 333.018 308.63 322.214C306.068 311.41 295.232 304.728 284.427 307.29C273.622 309.852 266.94 320.688 269.502 331.492C272.064 342.296 282.9 348.978 293.705 346.416Z" fill="#CF8C48"/>
<path d="M163.931 331.788C166.485 320.982 159.796 310.151 148.989 307.597C138.183 305.042 127.352 311.731 124.797 322.537C122.243 333.343 128.932 344.174 139.739 346.728C150.545 349.283 161.377 342.594 163.931 331.788Z" fill="#CF8C48"/>
<path d="M388.977 244.934C400.082 244.934 409.084 235.932 409.084 224.827C409.084 213.723 400.082 204.721 388.977 204.721C377.873 204.721 368.871 213.723 368.871 224.827C368.871 235.932 377.873 244.934 388.977 244.934Z" fill="#CF8C48"/>
<path d="M44.4851 244.934C55.5895 244.934 64.5914 235.932 64.5914 224.827C64.5914 213.723 55.5895 204.721 44.4851 204.721C33.3808 204.721 24.3789 213.723 24.3789 224.827C24.3789 235.932 33.3808 244.934 44.4851 244.934Z" fill="#CF8C48"/>
<path fill-rule="evenodd" clip-rule="evenodd" d="M296.749 308.446C283.66 303.023 268.951 312.588 268.951 327.027C268.951 332.31 270.989 337.115 274.321 340.703C276.76 341.713 279.373 342.231 282.012 342.228C299.611 342.227 308.585 321.194 296.749 308.446ZM129.674 340.702C117.838 327.955 126.811 306.921 144.41 306.921C147.135 306.921 149.732 307.463 152.102 308.445C155.558 312.16 157.477 317.047 157.47 322.121C157.47 336.563 142.759 346.125 129.674 340.702ZM396.671 206.247C383.585 200.824 368.873 210.386 368.873 224.828C368.873 230.109 370.912 234.915 374.243 238.503C376.681 239.513 379.295 240.031 381.934 240.028C399.532 240.029 408.509 218.998 396.671 206.247ZM29.7511 238.504C17.9126 225.752 26.891 204.722 44.4875 204.722C47.2123 204.722 49.8092 205.265 52.1787 206.247C55.6358 209.961 57.5549 214.849 57.5486 219.923C57.5486 234.364 42.8368 243.926 29.7511 238.504Z" fill="#F0B16E"/>
<path fill-rule="evenodd" clip-rule="evenodd" d="M216.733 0L370.548 169.005H296.552L216.733 81.3046L136.914 169.005H62.918L216.733 0Z" fill="#FA6E85"/>
<path fill-rule="evenodd" clip-rule="evenodd" d="M326.885 169.005H296.552L216.734 81.3047L136.915 169.005H106.582L216.734 47.9766L326.885 169.005Z" fill="#E33F65"/>
</svg>
