<svg width="480" height="480" viewBox="0 0 480 480" fill="none" xmlns="http://www.w3.org/2000/svg">
<path d="M473.056 297.096L453.048 292.424C451.991 287.308 450.64 282.256 449 277.296L463.904 263.32C466.4 260.984 467.136 257.312 465.728 254.184C461.339 244.502 455.998 235.281 449.784 226.656C448.809 225.3 447.433 224.284 445.85 223.75C444.268 223.216 442.557 223.192 440.96 223.68L421.568 229.568C418.072 225.648 414.352 221.92 410.416 218.424L416.32 199.04C416.805 197.444 416.779 195.736 416.246 194.155C415.712 192.574 414.697 191.2 413.344 190.224C409.042 187.121 404.589 184.235 400 181.576V40C400 17.944 382.056 0 360 0H40C17.944 0 0 17.944 0 40V248C0 270.056 17.944 288 40 288H124.584L98.4 360H56C53.8783 360 51.8434 360.843 50.3431 362.343C48.8429 363.843 48 365.878 48 368C48 390.056 65.944 408 88 408H186.76C187.928 409.768 188.976 411.616 190.216 413.336C191.191 414.693 192.566 415.71 194.149 416.244C195.732 416.778 197.443 416.801 199.04 416.312L218.432 410.424C221.928 414.344 225.648 418.072 229.584 421.568L223.68 440.952C223.195 442.548 223.221 444.256 223.754 445.837C224.288 447.418 225.303 448.792 226.656 449.768C235.296 456 244.56 461.368 254.192 465.72C255.714 466.412 257.415 466.608 259.054 466.281C260.693 465.953 262.188 465.119 263.328 463.896L277.296 448.984C282.24 450.624 287.304 451.976 292.432 453.032L297.104 473.048C297.484 474.676 298.364 476.144 299.621 477.246C300.878 478.348 302.448 479.028 304.112 479.192C309.504 479.728 314.856 480 320 480C325.144 480 330.496 479.728 335.896 479.2C337.56 479.036 339.13 478.356 340.387 477.254C341.644 476.152 342.524 474.684 342.904 473.056L347.576 453.04C352.696 451.986 357.75 450.635 362.712 448.992L376.68 463.904C377.822 465.124 379.317 465.956 380.955 466.283C382.594 466.61 384.293 466.416 385.816 465.728C395.497 461.338 404.715 455.995 413.336 449.776C414.692 448.801 415.71 447.426 416.245 445.843C416.78 444.261 416.806 442.55 416.32 440.952L410.424 421.56C414.352 418.064 418.08 414.336 421.576 410.416L440.968 416.312C444.224 417.312 447.792 416.112 449.792 413.336C456.006 404.711 461.347 395.49 465.736 385.808C466.425 384.286 466.62 382.586 466.293 380.947C465.966 379.308 465.133 377.813 463.912 376.672L449.008 362.696C450.648 357.736 452 352.68 453.056 347.56L473.064 342.888C474.691 342.509 476.158 341.63 477.26 340.374C478.362 339.119 479.043 337.55 479.208 335.888C479.728 330.512 480 325.16 480 320C480 314.84 479.728 309.488 479.192 304.096C479.03 302.434 478.35 300.865 477.25 299.609C476.149 298.354 474.682 297.475 473.056 297.096ZM40 16H360C373.232 16 384 26.768 384 40V173.768C382.683 173.504 381.321 173.579 380.041 173.985C378.761 174.391 377.605 175.114 376.68 176.088L362.712 191C357.75 189.356 352.696 188.005 347.576 186.952L342.904 166.936C342.524 165.308 341.644 163.84 340.387 162.738C339.13 161.636 337.56 160.956 335.896 160.792C325.323 159.728 314.669 159.728 304.096 160.792C302.432 160.956 300.862 161.636 299.605 162.738C298.348 163.84 297.468 165.308 297.088 166.936L292.416 186.952C287.288 188.008 282.232 189.36 277.28 191L263.312 176.088C262.169 174.87 260.674 174.04 259.036 173.713C257.398 173.386 255.699 173.578 254.176 174.264C244.495 178.654 235.277 183.997 226.656 190.216C225.3 191.191 224.282 192.566 223.747 194.149C223.212 195.731 223.186 197.442 223.672 199.04L226.408 208H64V112H144V96H64V48H336V144H352V40C352 37.8783 351.157 35.8434 349.657 34.3431C348.157 32.8429 346.122 32 344 32H56C53.8783 32 51.8434 32.8429 50.3431 34.3431C48.8429 35.8434 48 37.8783 48 40V208H16V40C16 26.768 26.768 16 40 16ZM224 224C222.144 225.856 220.168 227.608 218.424 229.568L200.096 224H224ZM16 248V224H193.672C192.293 224.543 191.096 225.464 190.216 226.656C184.002 235.281 178.661 244.502 174.272 254.184C173.583 255.706 173.388 257.406 173.715 259.045C174.042 260.684 174.875 262.179 176.096 263.32L185.36 272H40C26.768 272 16 261.232 16 248ZM141.6 288H188C187.64 289.472 187.256 290.936 186.952 292.424L166.944 297.096C165.317 297.475 163.85 298.354 162.748 299.61C161.646 300.865 160.965 302.434 160.8 304.096C160.272 309.488 160 314.84 160 320C160 325.16 160.272 330.504 160.808 335.904C160.973 337.566 161.654 339.135 162.756 340.39C163.858 341.646 165.325 342.525 166.952 342.904L186.96 347.576C187.824 351.776 189.024 355.896 190.28 360H115.424L141.6 288ZM88 392C83.0378 391.994 78.199 390.453 74.1471 387.588C70.0952 384.724 67.0287 380.676 65.368 376H176.816L176.088 376.68C174.869 377.822 174.038 379.317 173.711 380.955C173.384 382.594 173.577 384.293 174.264 385.816C175.216 387.92 176.4 389.936 177.448 392H88ZM463.728 328.656L444.312 333.192C442.772 333.552 441.373 334.361 440.292 335.515C439.212 336.67 438.497 338.119 438.24 339.68C436.971 347.354 434.957 354.886 432.224 362.168C431.669 363.648 431.565 365.26 431.926 366.799C432.286 368.338 433.094 369.736 434.248 370.816L448.696 384.36C446.111 389.516 443.217 394.512 440.032 399.32L421.224 393.6C419.712 393.135 418.095 393.132 416.581 393.589C415.066 394.046 413.722 394.944 412.72 396.168C407.752 402.208 402.208 407.752 396.168 412.72C394.948 413.725 394.052 415.069 393.595 416.583C393.138 418.096 393.14 419.711 393.6 421.224L399.32 440.032C394.509 443.215 389.513 446.111 384.36 448.704L370.824 434.248C369.743 433.094 368.345 432.287 366.806 431.928C365.266 431.57 363.655 431.675 362.176 432.232C354.936 434.952 347.368 436.976 339.68 438.248C338.119 438.505 336.67 439.22 335.515 440.3C334.361 441.381 333.552 442.78 333.192 444.32L328.664 463.736C322.899 464.096 317.117 464.096 311.352 463.736L306.824 444.32C306.466 442.779 305.658 441.379 304.503 440.298C303.348 439.217 301.897 438.503 300.336 438.248C292.661 436.974 285.127 434.959 277.84 432.232C276.361 431.676 274.75 431.571 273.211 431.93C271.672 432.289 270.273 433.095 269.192 434.248L255.656 448.704C250.496 446.118 245.498 443.222 240.688 440.032L246.416 421.232C246.873 419.719 246.873 418.105 246.416 416.592C245.959 415.079 245.066 413.735 243.848 412.728C237.808 407.76 232.264 402.216 227.296 396.176C226.291 394.956 224.947 394.06 223.433 393.603C221.92 393.146 220.305 393.148 218.792 393.608L199.984 399.32C196.798 394.511 193.902 389.515 191.312 384.36L205.768 370.816C206.922 369.736 207.73 368.338 208.09 366.799C208.451 365.26 208.347 363.648 207.792 362.168C205.06 354.883 203.046 347.348 201.776 339.672C201.521 338.111 200.807 336.66 199.726 335.505C198.645 334.35 197.245 333.542 195.704 333.184L176.288 328.648C175.906 322.887 175.9 317.106 176.272 311.344L195.688 306.808C197.228 306.448 198.627 305.639 199.708 304.485C200.788 303.33 201.503 301.881 201.76 300.32C203.024 292.656 205.048 285.088 207.776 277.832C208.333 276.352 208.439 274.739 208.081 273.198C207.722 271.658 206.914 270.258 205.76 269.176L191.304 255.632C193.872 250.496 196.784 245.496 199.968 240.672L218.776 246.384C221.872 247.32 225.232 246.304 227.28 243.816C232.25 237.778 237.794 232.234 243.832 227.264C245.052 226.259 245.948 224.915 246.405 223.401C246.862 221.888 246.86 220.273 246.4 218.76L240.68 199.952C245.491 196.769 250.487 193.873 255.64 191.28L269.176 205.736C270.257 206.889 271.656 207.695 273.195 208.054C274.734 208.413 276.345 208.308 277.824 207.752C285.064 205.032 292.632 203.008 300.32 201.736C301.881 201.479 303.33 200.764 304.485 199.684C305.639 198.603 306.448 197.204 306.808 195.664L311.336 176.248C317.101 175.888 322.883 175.888 328.648 176.248L333.176 195.664C333.534 197.205 334.342 198.605 335.497 199.686C336.652 200.767 338.103 201.481 339.664 201.736C347.339 203.01 354.873 205.025 362.16 207.752C365.16 208.888 368.6 208.088 370.808 205.736L384.344 191.28C389.488 193.856 394.496 196.76 399.312 199.952L393.584 218.752C392.648 221.848 393.664 225.2 396.152 227.256C402.184 232.216 407.752 237.784 412.704 243.808C413.707 245.031 415.051 245.928 416.565 246.385C418.08 246.843 419.696 246.839 421.208 246.376L440.016 240.664C443.208 245.488 446.112 250.488 448.688 255.624L434.232 269.168C433.078 270.248 432.27 271.646 431.91 273.185C431.549 274.724 431.653 276.336 432.208 277.816C434.936 285.088 436.96 292.656 438.224 300.312C438.479 301.873 439.193 303.324 440.274 304.479C441.355 305.634 442.755 306.442 444.296 306.8L463.712 311.336C464.093 317.103 464.098 322.888 463.728 328.656Z" fill="url(#paint0_linear_1093_817)"/>
<path d="M376 320C376 289.12 350.872 264 320 264C289.128 264 264 289.12 264 320C264 350.88 289.128 376 320 376C350.872 376 376 350.88 376 320ZM320 360C297.944 360 280 342.056 280 320C280 297.944 297.944 280 320 280C342.056 280 360 297.944 360 320C360 342.056 342.056 360 320 360ZM255.16 273.136L242.208 263.752C238.84 268.392 235.88 273.368 233.4 278.536L247.824 285.456C249.896 281.138 252.351 277.015 255.16 273.136ZM316.168 240.096L315.416 224.112C309.68 224.384 303.944 225.168 298.368 226.448L301.96 242.04C306.629 240.973 311.384 240.322 316.168 240.096ZM379.608 244.744L369.656 257.272C373.4 260.24 376.904 263.568 380.072 267.16L392.072 256.584C388.272 252.28 384.102 248.318 379.608 244.744ZM242.912 341.448L227.488 345.704C229 351.208 231.048 356.624 233.56 361.808L247.968 354.84C245.882 350.538 244.19 346.055 242.912 341.448ZM281.904 249.632L274.264 235.568C269.24 238.296 264.432 241.504 259.952 245.088L269.968 257.568C273.696 254.576 277.712 251.904 281.904 249.632ZM398.728 334.288L414.48 337.128C415.488 331.528 416 325.768 416 320V319.656L400 320C400 324.816 399.568 329.624 398.728 334.288ZM323.672 399.92L324.392 415.904C330.134 415.644 335.842 414.873 341.448 413.6L337.888 398C333.24 399.056 328.464 399.704 323.672 399.92ZM384.752 367L397.688 376.416C401.056 371.784 404.032 366.816 406.52 361.648L392.112 354.704C390.025 359.011 387.563 363.126 384.752 367ZM397.048 298.408L412.472 294.128C410.929 288.584 408.88 283.193 406.352 278.024L391.976 285.032C394.072 289.336 395.784 293.832 397.048 298.408ZM357.96 390.44L365.552 404.52C370.609 401.792 375.41 398.614 379.896 395.024L369.912 382.528C366.168 385.512 362.152 388.176 357.96 390.44ZM282.36 408.344C287.64 410.6 293.16 412.376 298.752 413.64L302.264 398.032C297.598 396.98 293.038 395.504 288.64 393.624L282.36 408.344ZM259.832 372.72L247.8 383.264C251.584 387.576 255.768 391.568 260.256 395.136L270.208 382.616C266.458 379.637 262.985 376.325 259.832 372.72ZM357.464 231.584C352.168 229.336 346.679 227.574 341.064 226.32L337.56 241.928C342.228 242.972 346.791 244.44 351.192 246.312L357.464 231.584ZM241.24 305.872L225.488 303.064C224.495 308.655 223.997 314.322 224 320V320.176L240 320C240 315.256 240.424 310.496 241.24 305.872ZM285.656 74.344L274.344 85.656L292.688 104H192C169.944 104 152 121.944 152 144V192H168V144C168 130.768 178.768 120 192 120H292.688L274.344 138.344L285.656 149.656L317.656 117.656C318.4 116.914 318.989 116.032 319.392 115.062C319.794 114.091 320.002 113.051 320.002 112C320.002 110.949 319.794 109.909 319.392 108.938C318.989 107.968 318.4 107.086 317.656 106.344L285.656 74.344ZM80 64H96V80H80V64ZM112 64H128V80H112V64ZM144 64H160V80H144V64Z" fill="url(#paint1_linear_1093_817)"/>
<defs>
<linearGradient id="paint0_linear_1093_817" x1="17.1263" y1="30.9376" x2="474.333" y2="555.654" gradientUnits="userSpaceOnUse">
<stop stop-color="#1BA2D7"/>
<stop offset="1" stop-color="#8D3DFA"/>
</linearGradient>
<linearGradient id="paint1_linear_1093_817" x1="91.9884" y1="86.6814" x2="428.955" y2="455.926" gradientUnits="userSpaceOnUse">
<stop stop-color="#1BA2D7"/>
<stop offset="1" stop-color="#8D3DFA"/>
</linearGradient>
</defs>
</svg>
