<svg width="500" height="513" viewBox="0 0 500 513" fill="none" xmlns="http://www.w3.org/2000/svg">
<path d="M103.677 106.66H308.426V54.2617H207.683M103.677 106.66V324.495M103.677 106.66V64.2617C103.677 58.7387 108.154 54.2617 113.677 54.2617H172.683M375.5 193.697V161.15M158.402 402.579H315.454" stroke="url(#paint0_linear_1093_821)" stroke-width="15" stroke-miterlimit="10" stroke-linecap="round" stroke-linejoin="round"/>
<path d="M266.528 336.628H158.402M321.717 336.628H291.809M157.461 295.089H321.717M157.461 252.209H313.183M180.558 180.889V252.209M219.912 195.444V252.209M259.266 151.779V252.209M298.62 209.999V252.209M130.899 276.196C130.899 249.853 109.544 228.498 83.201 228.498C56.858 228.498 35.503 249.853 35.503 276.196V324.494H130.9M8 401.536V437.09C8 442.613 12.477 447.09 18 447.09H148.402C153.925 447.09 158.402 442.613 158.402 437.09V334.494C158.402 328.971 153.925 324.494 148.402 324.494H18C12.477 324.494 8 328.971 8 334.494V366.537M83.201 387.559V359.547M342.074 56.744H392.247M342.074 87.383H392.247M342.074 118.021H366.08M426.549 310.92C440.164 298.576 448.716 280.752 448.716 260.926C448.716 223.653 418.5 193.437 381.227 193.437C343.954 193.437 313.738 223.653 313.738 260.926C313.738 292.929 336.021 319.71 365.913 326.649M113.893 54.261C108.251 54.261 103.677 58.835 103.677 64.477V106.659H157.46V54.261H113.893ZM395.077 8H316.425C314.303 8 312.268 8.84285 310.768 10.3431C309.268 11.8434 308.425 13.8783 308.425 16V153.149C308.425 155.271 309.268 157.306 310.768 158.806C312.268 160.306 314.303 161.149 316.425 161.149H417.895C420.017 161.149 422.052 160.306 423.552 158.806C425.052 157.306 425.895 155.271 425.895 153.149V38.818C425.895 37.7674 425.688 36.7271 425.286 35.7565C424.884 34.7858 424.295 33.9039 423.552 33.161L400.734 10.343C399.991 9.60014 399.109 9.01088 398.139 8.60887C397.168 8.20686 396.128 7.99996 395.077 8Z" stroke="url(#paint1_linear_1093_821)" stroke-width="15" stroke-miterlimit="10" stroke-linecap="round" stroke-linejoin="round"/>
<path d="M397.526 289.85C407.614 284.153 414.429 273.339 414.429 260.928C414.429 242.591 399.564 227.727 381.228 227.727C362.892 227.727 348.027 242.592 348.027 260.928C348.027 273.739 355.287 284.848 365.914 290.384" stroke="url(#paint2_linear_1093_821)" stroke-width="15" stroke-miterlimit="10" stroke-linecap="round" stroke-linejoin="round"/>
<path d="M351.266 442.167L370.638 463.582C376.944 470.552 380.436 479.617 380.436 489.017L380.437 495.002C380.438 500.524 384.915 505.001 390.437 505.001H452.035C457.558 505.001 462.035 500.524 462.035 495.001V484.69C462.035 478.562 464.939 472.724 469.993 469.259C483.501 460 492.366 444.465 492.366 426.851V346.121C492.366 337.391 485.289 330.314 476.559 330.314C467.829 330.314 460.752 337.391 460.752 346.121V333.071C460.752 324.341 453.675 317.264 444.945 317.264C436.215 317.264 429.138 324.341 429.138 333.071V319.58C429.138 310.85 422.061 303.773 413.331 303.773C404.601 303.773 397.524 310.85 397.524 319.58V272.44C397.524 263.71 390.447 256.633 381.717 256.633C372.987 256.633 365.91 263.71 365.91 272.44V385.278C365.91 386.539 365.648 387.786 365.139 388.94C364.631 390.094 363.888 391.129 362.958 391.98C362.027 392.831 360.93 393.48 359.735 393.883C358.541 394.287 357.275 394.438 356.019 394.326C353.811 394.135 351.769 393.066 350.202 391.498L336.66 377.955C327.813 369.108 313.441 369.151 304.648 378.084C301.186 381.601 301.286 387.289 304.776 390.778L327.754 416.18M397.526 319.579V333.071" stroke="url(#paint3_linear_1093_821)" stroke-width="15" stroke-miterlimit="10" stroke-linecap="round" stroke-linejoin="round"/>
<defs>
<linearGradient id="paint0_linear_1093_821" x1="113.375" y1="76.7119" x2="446.278" y2="374.867" gradientUnits="userSpaceOnUse">
<stop stop-color="#1BA2D7"/>
<stop offset="1" stop-color="#8D3DFA"/>
</linearGradient>
<linearGradient id="paint1_linear_1093_821" x1="23.7247" y1="36.3008" x2="441.749" y2="517.826" gradientUnits="userSpaceOnUse">
<stop stop-color="#1BA2D7"/>
<stop offset="1" stop-color="#8D3DFA"/>
</linearGradient>
<linearGradient id="paint2_linear_1093_821" x1="350.397" y1="231.765" x2="409.509" y2="303.66" gradientUnits="userSpaceOnUse">
<stop stop-color="#1BA2D7"/>
<stop offset="1" stop-color="#8D3DFA"/>
</linearGradient>
<linearGradient id="paint3_linear_1093_821" x1="308.893" y1="272.641" x2="545.747" y2="480.874" gradientUnits="userSpaceOnUse">
<stop stop-color="#1BA2D7"/>
<stop offset="1" stop-color="#8D3DFA"/>
</linearGradient>
</defs>
</svg>
