<svg width="480" height="480" viewBox="0 0 480 480" fill="none" xmlns="http://www.w3.org/2000/svg">
<path d="M4.64 103.3L60.64 127.3C61.6 127.7 62.64 127.94 63.76 127.94C64.88 127.94 65.92 127.7 66.88 127.3L122.88 103.3C125.84 102.02 127.76 99.1399 127.76 95.9399V31.9399C127.76 30.9799 127.52 30.0199 127.2 29.1399C127.12 28.8999 126.96 28.6599 126.88 28.4199C126.56 27.7799 126.16 27.2199 125.76 26.7399C125.6 26.5799 125.44 26.3399 125.2 26.1799C124.56 25.5399 123.76 24.9799 122.96 24.6599L67.04 0.659895C66.0434 0.224659 64.9675 0 63.88 0C62.7925 0 61.7167 0.224659 60.72 0.659895L4.8 24.6599C3.92 25.0599 3.2 25.6199 2.56 26.1799C2.4 26.3399 2.24 26.5799 2 26.7399C1.53681 27.2345 1.15839 27.8021 0.880001 28.4199C0.720001 28.6599 0.639999 28.8999 0.559999 29.1399C0.239999 30.0199 0 30.9799 0 31.9399V95.9399C0 99.1399 1.92 102.02 4.88 103.3H4.64ZM15.76 44.0999L55.76 61.2199V107.78L15.76 90.6599V44.0999ZM71.76 107.86V61.2999L111.76 44.1799V90.7399L71.76 107.86ZM63.76 16.6599L99.44 31.9399L63.76 47.2199L28.08 31.9399L63.76 16.6599ZM479.2 29.1399C479.2 29.1399 478.96 28.6599 478.88 28.4199C478.56 27.7799 478.16 27.2199 477.76 26.7399C477.6 26.5799 477.44 26.3399 477.2 26.1799C476.56 25.5399 475.76 24.9799 474.96 24.6599L419.04 0.659895C418.043 0.224659 416.968 0 415.88 0C414.792 0 413.717 0.224659 412.72 0.659895L356.8 24.6599C355.92 25.0599 355.2 25.6199 354.56 26.1799C354.4 26.3399 354.24 26.5799 354 26.7399C353.537 27.2345 353.158 27.8021 352.88 28.4199C352.72 28.6599 352.64 28.8999 352.56 29.1399C352.24 30.0199 352 30.9799 352 31.9399V95.9399C352 99.1399 353.92 102.02 356.88 103.3L412.88 127.3C413.84 127.7 414.88 127.94 416 127.94C417.12 127.94 418.16 127.7 419.12 127.3L475.12 103.3C478.08 102.02 480 99.1399 480 95.9399V31.9399C480 30.9799 479.76 30.0199 479.44 29.1399H479.2ZM415.76 16.6599L451.44 31.9399L415.76 47.2199L380.08 31.9399L415.76 16.6599ZM367.76 44.0999L407.76 61.2199V107.78L367.76 90.6599V44.0999ZM423.76 107.86V61.2999L463.76 44.1799V90.7399L423.76 107.86ZM126.88 380.42C126.56 379.78 126.16 379.22 125.76 378.74C125.6 378.58 125.44 378.34 125.2 378.18C124.56 377.54 123.76 376.98 122.96 376.66L67.04 352.66C66.0434 352.225 64.9675 352 63.88 352C62.7925 352 61.7167 352.225 60.72 352.66L4.8 376.66C3.92 377.06 3.2 377.62 2.56 378.18C2.4 378.34 2.24 378.58 2 378.74C1.53681 379.234 1.15839 379.802 0.880001 380.42C0.720001 380.66 0.639999 380.9 0.559999 381.14C0.239999 382.02 0 382.98 0 383.94V447.94C0 451.14 1.92 454.02 4.88 455.3L60.88 479.3C61.84 479.7 62.88 479.94 64 479.94C65.12 479.94 66.16 479.7 67.12 479.3L123.12 455.3C126.08 454.02 128 451.14 128 447.94V383.94C128 382.98 127.76 382.02 127.44 381.14C127.36 380.9 127.2 380.66 127.12 380.42H126.88ZM63.76 368.66L99.44 383.94L63.76 399.22L28.08 383.94L63.76 368.66ZM15.76 396.1L55.76 413.22V459.78L15.76 442.66V396.1ZM71.76 459.86V413.3L111.76 396.18V442.74L71.76 459.86ZM478.88 380.42C478.56 379.78 478.16 379.22 477.76 378.74C477.6 378.58 477.44 378.34 477.2 378.18C476.56 377.54 475.76 376.98 474.96 376.66L419.04 352.66C418.043 352.225 416.968 352 415.88 352C414.792 352 413.717 352.225 412.72 352.66L356.8 376.66C355.92 377.06 355.2 377.62 354.56 378.18C354.4 378.34 354.24 378.58 354 378.74C353.537 379.234 353.158 379.802 352.88 380.42C352.72 380.66 352.64 380.9 352.56 381.14C352.24 382.02 352 382.98 352 383.94V447.94C352 451.14 353.92 454.02 356.88 455.3L412.88 479.3C413.84 479.7 414.88 479.94 416 479.94C417.12 479.94 418.16 479.7 419.12 479.3L475.12 455.3C478.08 454.02 480 451.14 480 447.94V383.94C480 382.98 479.76 382.02 479.44 381.14C479.36 380.9 479.2 380.66 479.12 380.42H478.88ZM415.76 368.66L451.44 383.94L415.76 399.22L380.08 383.94L415.76 368.66ZM367.76 396.1L407.76 413.22V459.78L367.76 442.66V396.1ZM423.76 459.86V413.3L463.76 396.18V442.74L423.76 459.86Z" fill="url(#paint0_linear_1093_874)"/>
<path d="M4.64 103.3L60.64 127.3C61.6 127.7 62.64 127.94 63.76 127.94C64.88 127.94 65.92 127.7 66.88 127.3L122.88 103.3C125.84 102.02 127.76 99.1399 127.76 95.9399V31.9399C127.76 30.9799 127.52 30.0199 127.2 29.1399C127.12 28.8999 126.96 28.6599 126.88 28.4199C126.56 27.7799 126.16 27.2199 125.76 26.7399C125.6 26.5799 125.44 26.3399 125.2 26.1799C124.56 25.5399 123.76 24.9799 122.96 24.6599L67.04 0.659895C66.0434 0.224659 64.9675 0 63.88 0C62.7925 0 61.7167 0.224659 60.72 0.659895L4.8 24.6599C3.92 25.0599 3.2 25.6199 2.56 26.1799C2.4 26.3399 2.24 26.5799 2 26.7399C1.53681 27.2345 1.15839 27.8021 0.880001 28.4199C0.720001 28.6599 0.639999 28.8999 0.559999 29.1399C0.239999 30.0199 0 30.9799 0 31.9399V95.9399C0 99.1399 1.92 102.02 4.88 103.3H4.64ZM15.76 44.0999L55.76 61.2199V107.78L15.76 90.6599V44.0999ZM71.76 107.86V61.2999L111.76 44.1799V90.7399L71.76 107.86ZM63.76 16.6599L99.44 31.9399L63.76 47.2199L28.08 31.9399L63.76 16.6599ZM479.2 29.1399C479.2 29.1399 478.96 28.6599 478.88 28.4199C478.56 27.7799 478.16 27.2199 477.76 26.7399C477.6 26.5799 477.44 26.3399 477.2 26.1799C476.56 25.5399 475.76 24.9799 474.96 24.6599L419.04 0.659895C418.043 0.224659 416.968 0 415.88 0C414.792 0 413.717 0.224659 412.72 0.659895L356.8 24.6599C355.92 25.0599 355.2 25.6199 354.56 26.1799C354.4 26.3399 354.24 26.5799 354 26.7399C353.537 27.2345 353.158 27.8021 352.88 28.4199C352.72 28.6599 352.64 28.8999 352.56 29.1399C352.24 30.0199 352 30.9799 352 31.9399V95.9399C352 99.1399 353.92 102.02 356.88 103.3L412.88 127.3C413.84 127.7 414.88 127.94 416 127.94C417.12 127.94 418.16 127.7 419.12 127.3L475.12 103.3C478.08 102.02 480 99.1399 480 95.9399V31.9399C480 30.9799 479.76 30.0199 479.44 29.1399H479.2ZM415.76 16.6599L451.44 31.9399L415.76 47.2199L380.08 31.9399L415.76 16.6599ZM367.76 44.0999L407.76 61.2199V107.78L367.76 90.6599V44.0999ZM423.76 107.86V61.2999L463.76 44.1799V90.7399L423.76 107.86ZM126.88 380.42C126.56 379.78 126.16 379.22 125.76 378.74C125.6 378.58 125.44 378.34 125.2 378.18C124.56 377.54 123.76 376.98 122.96 376.66L67.04 352.66C66.0434 352.225 64.9675 352 63.88 352C62.7925 352 61.7167 352.225 60.72 352.66L4.8 376.66C3.92 377.06 3.2 377.62 2.56 378.18C2.4 378.34 2.24 378.58 2 378.74C1.53681 379.234 1.15839 379.802 0.880001 380.42C0.720001 380.66 0.639999 380.9 0.559999 381.14C0.239999 382.02 0 382.98 0 383.94V447.94C0 451.14 1.92 454.02 4.88 455.3L60.88 479.3C61.84 479.7 62.88 479.94 64 479.94C65.12 479.94 66.16 479.7 67.12 479.3L123.12 455.3C126.08 454.02 128 451.14 128 447.94V383.94C128 382.98 127.76 382.02 127.44 381.14C127.36 380.9 127.2 380.66 127.12 380.42H126.88ZM63.76 368.66L99.44 383.94L63.76 399.22L28.08 383.94L63.76 368.66ZM15.76 396.1L55.76 413.22V459.78L15.76 442.66V396.1ZM71.76 459.86V413.3L111.76 396.18V442.74L71.76 459.86ZM478.88 380.42C478.56 379.78 478.16 379.22 477.76 378.74C477.6 378.58 477.44 378.34 477.2 378.18C476.56 377.54 475.76 376.98 474.96 376.66L419.04 352.66C418.043 352.225 416.968 352 415.88 352C414.792 352 413.717 352.225 412.72 352.66L356.8 376.66C355.92 377.06 355.2 377.62 354.56 378.18C354.4 378.34 354.24 378.58 354 378.74C353.537 379.234 353.158 379.802 352.88 380.42C352.72 380.66 352.64 380.9 352.56 381.14C352.24 382.02 352 382.98 352 383.94V447.94C352 451.14 353.92 454.02 356.88 455.3L412.88 479.3C413.84 479.7 414.88 479.94 416 479.94C417.12 479.94 418.16 479.7 419.12 479.3L475.12 455.3C478.08 454.02 480 451.14 480 447.94V383.94C480 382.98 479.76 382.02 479.44 381.14C479.36 380.9 479.2 380.66 479.12 380.42H478.88ZM415.76 368.66L451.44 383.94L415.76 399.22L380.08 383.94L415.76 368.66ZM367.76 396.1L407.76 413.22V459.78L367.76 442.66V396.1ZM423.76 459.86V413.3L463.76 396.18V442.74L423.76 459.86Z" fill="url(#paint1_linear_1093_874)"/>
<path d="M151.76 71.9414H327.76C332.16 71.9414 335.76 68.3414 335.76 63.9414C335.76 59.5414 332.16 55.9414 327.76 55.9414H151.76C147.36 55.9414 143.76 59.5414 143.76 63.9414C143.76 68.3414 147.36 71.9414 151.76 71.9414ZM327.76 407.941H151.76C147.36 407.941 143.76 411.541 143.76 415.941C143.76 420.341 147.36 423.941 151.76 423.941H327.76C332.16 423.941 335.76 420.341 335.76 415.941C335.76 411.541 332.16 407.941 327.76 407.941ZM423.76 327.941V151.941C423.76 147.541 420.16 143.941 415.76 143.941C411.36 143.941 407.76 147.541 407.76 151.941V327.941C407.76 332.341 411.36 335.941 415.76 335.941C420.16 335.941 423.76 332.341 423.76 327.941ZM55.7598 151.941V327.941C55.7598 332.341 59.3598 335.941 63.7598 335.941C68.1598 335.941 71.7598 332.341 71.7598 327.941V151.941C71.7598 147.541 68.1598 143.941 63.7598 143.941C59.3598 143.941 55.7598 147.541 55.7598 151.941ZM351.76 215.941C351.76 211.541 348.16 207.941 343.76 207.941H330.24C329.12 204.741 327.84 201.621 326.4 198.581L336 188.981C336.741 188.241 337.33 187.362 337.731 186.394C338.133 185.427 338.339 184.389 338.339 183.341C338.339 182.294 338.133 181.256 337.731 180.288C337.33 179.321 336.741 178.442 336 177.701L302.08 143.781C301.34 143.04 300.461 142.451 299.493 142.05C298.525 141.648 297.488 141.442 296.44 141.442C295.392 141.442 294.355 141.648 293.387 142.05C292.419 142.451 291.54 143.04 290.8 143.781L281.2 153.381C278.16 151.941 275.04 150.661 271.84 149.541V136.021C271.84 131.621 268.24 128.021 263.84 128.021H215.84C211.44 128.021 207.84 131.621 207.84 136.021V149.541C204.64 150.661 201.52 151.941 198.48 153.381L188.88 143.781C188.14 143.04 187.261 142.451 186.293 142.05C185.325 141.648 184.288 141.442 183.24 141.442C182.192 141.442 181.155 141.648 180.187 142.05C179.219 142.451 178.34 143.04 177.6 143.781L143.68 177.701C142.938 178.442 142.35 179.321 141.948 180.288C141.547 181.256 141.34 182.294 141.34 183.341C141.34 184.389 141.547 185.427 141.948 186.394C142.35 187.362 142.938 188.241 143.68 188.981L153.28 198.581C151.84 201.621 150.56 204.741 149.44 207.941H135.92C131.52 207.941 127.92 211.541 127.92 215.941V263.941C127.92 268.341 131.52 271.941 135.92 271.941H149.44C150.56 275.141 151.84 278.261 153.28 281.301L143.68 290.901C142.938 291.642 142.35 292.521 141.948 293.488C141.547 294.456 141.34 295.494 141.34 296.541C141.34 297.589 141.547 298.627 141.948 299.594C142.35 300.562 142.938 301.441 143.68 302.181L177.6 336.101C180.72 339.221 185.76 339.221 188.88 336.101L198.48 326.501C201.52 327.941 204.64 329.221 207.84 330.341V343.861C207.84 348.261 211.44 351.861 215.84 351.861H263.84C268.24 351.861 271.84 348.261 271.84 343.861V330.341C275.04 329.221 278.16 327.941 281.2 326.501L290.8 336.101C293.92 339.221 298.96 339.221 302.08 336.101L336 302.181C336.741 301.441 337.33 300.562 337.731 299.594C338.133 298.627 338.339 297.589 338.339 296.541C338.339 295.494 338.133 294.456 337.731 293.488C337.33 292.521 336.741 291.642 336 290.901L326.4 281.301C327.84 278.261 329.12 275.141 330.24 271.941H343.76C348.16 271.941 351.76 268.341 351.76 263.941V215.941ZM335.76 255.941H324.4C320.8 255.941 317.68 258.341 316.72 261.781C315.04 267.861 312.64 273.621 309.68 278.901C307.92 282.021 308.48 285.941 311.04 288.501L319.04 296.501L296.4 319.141L288.4 311.141C285.84 308.581 282 308.101 278.8 309.781C273.52 312.741 267.68 315.141 261.68 316.821C258.24 317.781 255.84 320.901 255.84 324.501V335.861H223.84V324.501C223.84 320.901 221.44 317.781 218 316.821C211.92 315.141 206.16 312.741 200.88 309.781C197.76 308.021 193.84 308.581 191.28 311.141L183.28 319.141L160.64 296.501L168.64 288.501C171.2 285.941 171.68 282.101 170 278.901C167.04 273.541 164.64 267.781 162.96 261.781C162.494 260.102 161.491 258.622 160.104 257.567C158.717 256.512 157.022 255.941 155.28 255.941H143.92V223.941H155.28C158.88 223.941 162 221.541 162.96 218.101C164.64 212.021 167.04 206.261 170 200.981C171.76 197.861 171.2 193.941 168.64 191.381L160.64 183.381L183.28 160.741L191.28 168.741C193.84 171.301 197.68 171.781 200.88 170.101C206.16 167.141 212 164.741 218 163.061C221.44 162.101 223.84 158.981 223.84 155.381V144.021H255.84V155.381C255.84 158.981 258.24 162.101 261.68 163.061C267.76 164.741 273.52 167.141 278.8 170.101C281.92 171.861 285.84 171.301 288.4 168.741L296.4 160.741L319.04 183.381L311.04 191.381C308.48 193.941 308 197.781 309.68 200.981C312.64 206.341 315.04 212.101 316.72 218.101C317.68 221.541 320.8 223.941 324.4 223.941H335.76V255.941Z" fill="url(#paint2_linear_1093_874)"/>
<path d="M239.76 183.941C208.88 183.941 183.76 209.061 183.76 239.941C183.76 270.821 208.88 295.941 239.76 295.941C270.64 295.941 295.76 270.821 295.76 239.941C295.76 209.061 270.64 183.941 239.76 183.941ZM239.76 279.941C217.68 279.941 199.76 262.021 199.76 239.941C199.76 217.861 217.68 199.941 239.76 199.941C261.84 199.941 279.76 217.861 279.76 239.941C279.76 262.021 261.84 279.941 239.76 279.941Z" fill="url(#paint3_linear_1093_874)"/>
<path d="M239.76 183.941C208.88 183.941 183.76 209.061 183.76 239.941C183.76 270.821 208.88 295.941 239.76 295.941C270.64 295.941 295.76 270.821 295.76 239.941C295.76 209.061 270.64 183.941 239.76 183.941ZM239.76 279.941C217.68 279.941 199.76 262.021 199.76 239.941C199.76 217.861 217.68 199.941 239.76 199.941C261.84 199.941 279.76 217.861 279.76 239.941C279.76 262.021 261.84 279.941 239.76 279.941Z" fill="url(#paint4_linear_1093_874)"/>
<defs>
<linearGradient id="paint0_linear_1093_874" x1="17.1263" y1="30.9337" x2="474.268" y2="555.641" gradientUnits="userSpaceOnUse">
<stop stop-color="#1BA2D7"/>
<stop offset="1" stop-color="#8D3DFA"/>
</linearGradient>
<linearGradient id="paint1_linear_1093_874" x1="17.1263" y1="30.9337" x2="474.268" y2="555.641" gradientUnits="userSpaceOnUse">
<stop stop-color="#1BA2D7"/>
<stop offset="1" stop-color="#8D3DFA"/>
</linearGradient>
<linearGradient id="paint2_linear_1093_874" x1="68.8899" y1="79.6602" x2="419.415" y2="481.943" gradientUnits="userSpaceOnUse">
<stop stop-color="#1BA2D7"/>
<stop offset="1" stop-color="#8D3DFA"/>
</linearGradient>
<linearGradient id="paint3_linear_1093_874" x1="187.756" y1="191.16" x2="294.437" y2="313.594" gradientUnits="userSpaceOnUse">
<stop stop-color="#1BA2D7"/>
<stop offset="1" stop-color="#8D3DFA"/>
</linearGradient>
<linearGradient id="paint4_linear_1093_874" x1="187.756" y1="191.16" x2="294.437" y2="313.594" gradientUnits="userSpaceOnUse">
<stop stop-color="#1BA2D7"/>
<stop offset="1" stop-color="#8D3DFA"/>
</linearGradient>
</defs>
</svg>
