<svg width="480" height="463" viewBox="0 0 480 463" fill="none" xmlns="http://www.w3.org/2000/svg">
<path fill-rule="evenodd" clip-rule="evenodd" d="M51.35 317.771H289.7C298 317.871 298 330.443 289.7 330.546H51.351C42.944 330.546 42.891 317.77 51.351 317.77L51.35 317.771ZM289.7 369.378C298 369.278 298 356.707 289.7 356.603H51.351C42.777 356.603 42.906 369.379 51.271 369.379L289.7 369.378ZM196.521 252.885C204.921 252.885 204.921 240.108 196.521 240.108H51.351C42.823 240.108 42.822 252.883 51.351 252.883L196.521 252.885ZM242.421 291.716C250.821 291.716 250.821 278.939 242.421 278.939H51.351C42.96 278.812 42.708 291.714 51.351 291.714L242.421 291.716ZM56.318 103.88C56.3185 102.494 56.7693 101.147 57.6024 100.04C58.4355 98.9325 59.6058 98.1262 60.937 97.742L118.437 81.17C119.593 80.84 120.819 80.84 121.975 81.17L179.475 97.742C180.806 98.1263 181.976 98.9328 182.809 100.04C183.642 101.147 184.093 102.495 184.093 103.88V142.38C184.112 160.86 178.014 178.826 166.75 193.476C155.486 208.126 139.689 218.635 121.825 223.364C120.761 223.639 119.646 223.639 118.582 223.364C100.718 218.637 84.9213 208.129 73.6568 193.48C62.3924 178.831 56.2939 160.866 56.313 142.387V103.887L56.318 103.88ZM69.094 142.473C69.0942 157.826 74.0773 172.764 83.2944 185.042C92.5115 197.32 105.465 206.275 120.207 210.561C134.95 206.276 147.904 197.321 157.121 185.043C166.339 172.764 171.322 157.826 171.322 142.473V108.687L120.207 93.956L69.1 108.687V142.473H69.094ZM113.929 171.093C115.177 171.87 116.654 172.194 118.112 172.01C119.57 171.826 120.921 171.146 121.937 170.084L147.563 143.217C153.421 137.073 144.07 128.366 138.317 134.4L116.287 157.5L100.862 147.859C93.789 143.43 86.896 154.194 94.091 158.692L113.929 171.093ZM480 74.749C479.993 69.0292 477.718 63.5456 473.673 59.5011C469.629 55.4567 464.145 53.1816 458.425 53.175H341.048V18.786C341.043 13.8054 339.062 9.03014 335.54 5.5082C332.019 1.98626 327.244 0.00529461 322.263 0H55.55C54.6093 0.000345799 53.6803 0.208378 52.8293 0.609245C51.9783 1.01011 51.2263 1.59393 50.627 2.319L1.462 61.892C0.52634 63.0396 0.0105557 64.4723 0 65.953V409.271C0.00529415 414.252 1.98623 419.027 5.50814 422.549C9.03005 426.071 13.8053 428.052 18.786 428.057H39.128V443.272C39.133 448.253 41.1137 453.028 44.6355 456.55C48.1572 460.072 52.9324 462.053 57.913 462.058H361.392C366.372 462.052 371.145 460.071 374.667 456.55C378.188 453.028 380.169 448.255 380.175 443.275V251.629H458.423C464.144 251.623 469.628 249.348 473.673 245.303C477.718 241.258 479.994 235.774 480 230.053V74.749ZM19.942 59.568L50.649 22.357V53.557C50.6472 55.1498 50.0139 56.6769 48.8881 57.8036C47.7623 58.9303 46.2358 59.5648 44.643 59.568H19.942ZM322.263 415.284C323.855 415.281 325.381 414.647 326.506 413.521C327.632 412.395 328.266 410.869 328.269 409.277V267.943L283.61 293.729C282.639 294.288 281.538 294.582 280.418 294.581C279.297 294.58 278.197 294.284 277.227 293.724C276.257 293.163 275.451 292.357 274.891 291.387C274.33 290.417 274.035 289.316 274.034 288.196V251.629H244.4C238.68 251.622 233.196 249.347 229.151 245.303C225.107 241.258 222.832 235.774 222.825 230.054V74.752C222.832 69.0322 225.107 63.5486 229.152 59.5041C233.196 55.4597 238.68 53.1846 244.4 53.178H328.271V18.784C328.269 17.1911 327.636 15.6639 326.51 14.5371C325.385 13.4103 323.858 12.7759 322.265 12.773H63.425V53.553C63.4205 58.5335 61.4406 63.3088 57.9197 66.8314C54.3989 70.354 49.6245 72.3361 44.644 72.343H12.775V409.278C12.7782 410.871 13.4127 412.397 14.5394 413.523C15.6661 414.649 17.1932 415.282 18.786 415.284H322.263ZM367.4 251.629H356.528L341.048 260.567V409.274C341.043 414.254 339.062 419.029 335.54 422.551C332.018 426.073 327.243 428.054 322.263 428.059H51.9V443.275C51.9048 444.866 52.5394 446.39 53.6651 447.515C54.7908 448.639 56.3159 449.272 57.907 449.275H361.392C362.982 449.271 364.506 448.638 365.63 447.513C366.755 446.389 367.388 444.865 367.392 443.275V251.63L367.4 251.629ZM467.225 74.752V230.052C467.223 232.385 466.295 234.622 464.645 236.272C462.995 237.922 460.758 238.85 458.425 238.852H354.816C353.695 238.852 352.593 239.147 351.622 239.708L286.809 277.129V245.243C286.809 244.404 286.644 243.573 286.323 242.798C286.002 242.023 285.531 241.319 284.938 240.726C284.344 240.132 283.64 239.662 282.865 239.341C282.09 239.02 281.259 238.855 280.42 238.855H244.4C242.067 238.853 239.83 237.925 238.18 236.275C236.53 234.625 235.602 232.388 235.6 230.055V74.752C235.603 72.4189 236.531 70.1821 238.18 68.5324C239.83 66.8826 242.067 65.9546 244.4 65.952H458.426C460.759 65.9544 462.996 66.8823 464.646 68.5321C466.296 70.1819 467.224 72.4188 467.226 74.752H467.225ZM428.911 182.781C431.253 186.838 432.487 191.44 432.487 196.125C432.487 200.81 431.254 205.412 428.912 209.469C426.57 213.527 423.201 216.896 419.144 219.238C415.087 221.581 410.485 222.815 405.8 222.815H300.739C296.053 222.815 291.45 221.582 287.392 219.239C283.334 216.896 279.964 213.526 277.622 209.468C275.28 205.409 274.047 200.806 274.048 196.12C274.049 191.434 275.284 186.831 277.628 182.774L330.157 91.794C332.499 87.7364 335.868 84.3668 339.925 82.0241C343.982 79.6813 348.585 78.448 353.27 78.448C357.954 78.448 362.557 79.6813 366.614 82.0241C370.671 84.3668 374.04 87.7364 376.382 91.794L428.911 182.781ZM365.317 98.187L417.847 189.169C419.068 191.284 419.71 193.683 419.71 196.126C419.71 198.568 419.067 200.967 417.845 203.082C416.624 205.197 414.868 206.953 412.753 208.174C410.638 209.396 408.239 210.039 405.797 210.039H300.74C298.298 210.039 295.899 209.396 293.784 208.175C291.669 206.953 289.913 205.197 288.692 203.082C287.471 200.967 286.828 198.568 286.828 196.126C286.828 193.684 287.471 191.285 288.692 189.17L341.22 98.187C342.441 96.0715 344.197 94.3147 346.313 93.0933C348.428 91.8718 350.827 91.2288 353.27 91.2288C355.713 91.2288 358.112 91.8718 360.227 93.0933C362.343 94.3147 364.099 96.0715 365.32 98.187H365.317ZM346.88 131.55C346.88 123.143 359.656 123.131 359.656 131.55V169.15C359.626 170.825 358.94 172.421 357.746 173.594C356.551 174.768 354.943 175.426 353.268 175.426C351.593 175.426 349.985 174.768 348.79 173.594C347.596 172.421 346.91 170.825 346.88 169.15V131.55ZM346.88 185.4C346.88 184.136 347.254 182.9 347.957 181.849C348.659 180.798 349.657 179.979 350.825 179.495C351.993 179.011 353.278 178.884 354.518 179.131C355.757 179.377 356.896 179.986 357.79 180.88C358.684 181.774 359.293 182.913 359.539 184.152C359.786 185.392 359.659 186.677 359.175 187.845C358.691 189.013 357.872 190.011 356.821 190.713C355.77 191.416 354.534 191.79 353.27 191.79C351.575 191.789 349.95 191.115 348.751 189.917C347.552 188.719 346.878 187.095 346.875 185.4H346.88Z" fill="url(#paint0_linear_1093_827)"/>
<defs>
<linearGradient id="paint0_linear_1093_827" x1="17.1263" y1="29.7812" x2="454.643" y2="551.399" gradientUnits="userSpaceOnUse">
<stop stop-color="#1BA2D7"/>
<stop offset="1" stop-color="#8D3DFA"/>
</linearGradient>
</defs>
</svg>
