<svg width="487" height="361" viewBox="0 0 487 361" fill="none" xmlns="http://www.w3.org/2000/svg">
<path d="M210.697 189.961H179.231C174.958 189.961 171.461 193.457 171.461 197.73C171.461 199.284 171.85 200.838 173.015 202.392C174.181 204.334 176.511 205.499 179.231 205.499H210.697C214.97 205.499 218.466 202.003 218.466 197.73C218.466 193.457 214.97 189.961 210.697 189.961ZM260.809 189.961H241.774C237.501 189.961 234.005 193.457 234.005 197.73C234.005 202.003 237.501 205.499 241.774 205.499H254.982C256.536 201.615 258.478 197.341 260.809 189.961ZM202.927 268.819H179.231C175.346 268.819 172.238 271.539 171.461 275.035V276.589C171.461 279.308 173.015 281.639 174.958 283.193C184.281 279.308 188.165 277.754 202.927 271.539V268.819ZM215.747 150.337V110.713H252.651C251.097 106.829 249.155 102.167 246.047 95.1745H231.285V92.4552L225.847 92.8437L215.747 82.7436V95.1745H208.366C204.093 95.1745 200.596 98.6707 200.596 102.944V158.106C200.596 161.991 203.316 165.099 207.2 165.876H247.212V150.337H215.747ZM134.168 47.7815H126.399C124.068 47.7815 121.349 47.7815 118.241 47.393L105.422 33.4082C85.9985 41.566 85.6101 41.566 66.1867 49.7238L66.9636 68.7587L43.2671 92.4552L24.2322 91.6783C16.0744 111.102 16.0744 111.49 7.91658 130.914L21.9014 143.733V177.141L7.13965 190.349C15.2975 209.772 15.2975 210.161 23.4553 229.584L42.4902 228.807L66.1867 252.504L65.4098 271.539C84.8331 279.697 85.2216 279.697 104.645 287.854L117.464 273.87H141.938V47.7815H134.168ZM117.464 264.546C115.134 264.546 113.191 265.712 111.637 267.266L102.703 277.366L73.5676 265.323L74.3445 252.115C74.3445 250.173 73.5676 247.842 72.0137 246.288L48.3172 222.592C46.7633 221.038 44.821 220.261 42.4902 220.261L28.8938 221.038L16.8513 191.903L26.9515 182.968C28.8938 181.414 29.6708 179.472 29.6708 177.141V143.733C29.6708 141.402 28.5054 139.46 26.9515 137.906L16.8513 128.971L28.8938 99.8361L42.4902 100.613C44.4325 100.613 46.7633 99.8361 48.3172 98.2823L72.0137 74.5857C73.5676 73.0319 74.3445 71.0895 74.3445 68.7587L73.5676 55.1624L102.703 43.1199L111.637 53.22C113.191 55.1624 115.134 55.9393 117.464 55.9393H126.399V87.7936C89.8832 91.6783 61.1366 122.756 61.1366 160.437C61.1366 198.118 89.8832 229.196 126.399 233.08V264.546H117.464ZM126.399 217.153C98.4295 213.269 76.6753 189.184 76.6753 160.049C76.6753 131.302 98.041 106.829 126.399 102.944V217.153ZM179.231 229.584C174.958 229.584 171.461 233.08 171.461 237.354C171.461 241.627 174.958 245.123 179.231 245.123H209.531L225.07 229.584H179.231Z" fill="url(#paint0_linear_1093_793)"/>
<path d="M249.543 189.961L251.485 191.515L245.658 205.5H261.585L267.024 192.681C267.413 191.904 267.412 190.738 267.412 189.961H249.543ZM238.666 150.338V165.876H253.428V150.338H238.666ZM209.919 268.82H186.223L171.461 275.036V276.59C171.461 279.309 173.015 281.64 174.957 283.194C176.123 283.971 177.677 284.359 179.23 284.359H188.554L205.258 277.367C207.977 276.201 209.919 273.093 209.919 269.986V268.82ZM253.428 95.1754H231.285V85.0753H227.789L217.689 74.9751C216.912 76.9174 216.523 78.8598 216.135 80.8021C216.135 81.5791 215.746 81.9675 215.746 82.7445V94.01L216.912 95.1754L220.019 98.2831C221.573 99.837 223.516 100.614 225.846 100.614L239.443 99.837L244.104 110.714H260.032L253.428 95.1754ZM120.572 40.79L110.083 29.136C108.141 26.8052 104.645 26.0282 101.537 27.1936L62.3017 43.5093C59.5825 44.6747 57.6401 47.7824 57.6401 50.8901L58.4171 66.4288L39.7706 85.0753L24.2319 84.2983C21.1242 83.9099 18.0165 85.8522 16.8511 88.9599L0.535422 128.195C-0.62998 130.914 0.146955 134.411 2.47776 136.741L14.1318 147.23V173.646L2.47776 184.134C0.146955 186.077 -0.62998 189.573 0.535422 192.681L17.2395 232.304C18.4049 235.024 21.1242 236.966 24.6204 236.966L40.1591 236.189L58.8055 254.835L58.0286 270.374C57.6401 273.482 59.5825 276.59 62.6902 277.755L101.925 293.682C104.645 294.848 108.141 294.071 110.472 291.74L120.96 280.086H141.938V264.547H117.464C115.133 264.547 113.191 265.713 111.637 267.266L102.702 277.367L73.5673 265.324L74.3442 252.116C74.3442 250.174 73.5673 247.843 72.0134 246.289L48.3169 222.593C46.763 221.039 44.8207 220.262 42.4899 220.262L28.8935 221.039L16.8511 191.904L26.9512 182.969C28.8935 181.415 29.6705 179.473 29.6705 177.142V143.734C29.6705 141.403 28.5051 139.461 26.9512 137.907L16.8511 128.972L28.8935 99.837L42.4899 100.614C44.4322 100.614 46.763 99.837 48.3169 98.2831L72.0134 74.5866C73.5673 73.0328 74.3442 71.0904 74.3442 68.7596L73.5673 55.1633L102.702 43.1208L111.637 53.2209C113.191 55.1633 115.133 55.9402 117.464 55.9402H141.938V40.79H120.572ZM212.639 229.585L197.1 245.124H218.466L227.789 235.801L243.328 236.578C246.435 236.966 249.543 235.024 250.708 231.916L251.485 229.585H212.639Z" fill="url(#paint1_linear_1093_793)"/>
<path d="M134.168 95.1738C131.449 95.1738 129.118 95.1738 126.398 95.5623C94.1557 99.447 68.9053 127.028 68.9053 160.436C68.9053 193.845 94.1557 221.426 126.398 225.31C129.118 225.699 131.449 225.699 134.168 225.699C136.887 225.699 139.218 225.699 141.937 225.31V95.5623C139.218 95.1738 136.887 95.1738 134.168 95.1738ZM76.6746 160.048C76.6746 131.301 98.0403 106.828 126.398 102.943V216.764C98.4288 213.268 76.6746 188.794 76.6746 160.048ZM192.438 189.96C189.719 195.787 185.834 200.837 181.561 205.499H179.618C176.899 205.499 174.568 204.333 173.403 202.391C172.626 201.225 171.849 199.672 171.849 197.729C171.849 193.456 175.345 189.96 179.618 189.96H192.438Z" fill="url(#paint2_linear_1093_793)"/>
<path d="M200.597 130.136V158.105C200.597 161.99 203.316 165.098 207.2 165.875V160.436C207.2 149.559 204.87 139.07 200.597 130.136ZM134.169 87.4043C131.449 87.4043 129.119 87.4043 126.399 87.7928C89.8833 91.6774 61.1367 122.755 61.1367 160.436C61.1367 198.118 89.8833 229.195 126.399 233.08C129.119 233.468 131.449 233.468 134.169 233.468C136.888 233.468 139.219 233.468 141.938 233.08V217.152C139.219 217.541 136.888 217.541 134.169 217.541C131.449 217.541 129.119 217.541 126.399 217.152C98.4296 213.268 76.6754 189.183 76.6754 160.048C76.6754 131.301 98.0411 106.828 126.399 102.943C129.119 102.555 131.449 102.555 134.169 102.555C136.888 102.555 139.607 102.943 141.938 102.943V87.7928C139.219 87.4043 136.888 87.4043 134.169 87.4043ZM183.115 189.96C180.396 194.621 176.9 198.506 173.015 202.391C174.181 204.333 176.512 205.498 179.231 205.498H191.662C195.546 200.837 198.654 195.398 200.985 189.96H183.115Z" fill="url(#paint3_linear_1093_793)"/>
<path d="M210.696 189.961H179.23C174.957 189.961 171.461 193.457 171.461 197.73C171.461 199.284 171.849 200.838 173.015 202.392C174.18 204.334 176.511 205.499 179.23 205.499H210.696C214.969 205.499 218.465 202.003 218.465 197.73C218.465 193.457 214.969 189.961 210.696 189.961ZM322.575 268.82H256.535C252.262 268.82 248.766 272.316 248.766 276.589C248.766 280.862 252.262 284.358 256.535 284.358H322.575C326.848 284.358 330.344 280.862 330.344 276.589C330.344 272.316 326.848 268.82 322.575 268.82ZM322.575 229.584H302.374C298.101 229.584 294.605 233.081 294.605 237.354C294.605 241.627 298.101 245.123 302.374 245.123H322.575C326.848 245.123 330.344 241.627 330.344 237.354C330.344 233.081 326.848 229.584 322.575 229.584ZM322.575 229.584H302.374C298.101 229.584 294.605 233.081 294.605 237.354C294.605 241.627 298.101 245.123 302.374 245.123H322.575C326.848 245.123 330.344 241.627 330.344 237.354C330.344 233.081 326.848 229.584 322.575 229.584ZM322.575 268.82H256.535C252.262 268.82 248.766 272.316 248.766 276.589C248.766 280.862 252.262 284.358 256.535 284.358H322.575C326.848 284.358 330.344 280.862 330.344 276.589C330.344 272.316 326.848 268.82 322.575 268.82ZM322.575 189.961H241.773C237.5 189.961 234.004 193.457 234.004 197.73C234.004 202.003 237.5 205.499 241.773 205.499H322.575C326.848 205.499 330.344 202.003 330.344 197.73C330.344 193.457 326.848 189.961 322.575 189.961ZM225.069 268.82H209.919V269.985C209.919 273.093 207.977 276.2 205.257 277.366L188.553 284.358H225.458C229.731 284.358 232.839 280.862 232.839 276.589C232.839 272.316 229.342 268.82 225.069 268.82ZM271.297 229.584H179.23C174.957 229.584 171.461 233.081 171.461 237.354C171.461 241.627 174.957 245.123 179.23 245.123H271.297C275.57 245.123 279.066 241.627 279.066 237.354C279.066 233.081 275.57 229.584 271.297 229.584ZM293.828 95.1747H286.447V87.0169C286.447 67.5935 270.52 51.6663 251.097 51.6663C235.558 51.6663 222.739 61.378 217.688 74.9744L227.789 85.0745H231.285C232.45 75.3629 240.996 67.5935 251.097 67.5935C261.974 67.5935 270.908 76.5283 270.908 87.4053V95.1747H246.047C249.154 102.167 250.708 106.829 252.651 110.713H285.67V150.337H215.746V110.713H244.104L239.443 99.8363L225.846 100.613C223.515 100.613 221.573 99.8363 220.019 98.2824L216.912 95.1747L215.746 94.0093V95.1747H208.365C204.092 95.1747 200.596 98.6709 200.596 102.944V158.106C200.596 161.991 203.315 165.099 207.2 165.876H293.828C298.101 165.876 301.597 162.38 301.597 158.106V102.944C301.597 98.6709 298.101 95.1747 293.828 95.1747ZM210.696 189.961H179.23C174.957 189.961 171.461 193.457 171.461 197.73C171.461 199.284 171.849 200.838 173.015 202.392C174.18 204.334 176.511 205.499 179.23 205.499H210.696C214.969 205.499 218.465 202.003 218.465 197.73C218.465 193.457 214.969 189.961 210.696 189.961ZM179.23 268.82C175.346 268.82 172.238 271.539 171.461 275.035L186.223 268.82H179.23ZM134.168 102.556V217.542C136.887 217.542 139.218 217.542 141.937 217.153V102.944C139.218 102.944 136.887 102.556 134.168 102.556ZM210.696 189.961H179.23C174.957 189.961 171.461 193.457 171.461 197.73C171.461 199.284 171.849 200.838 173.015 202.392C174.18 204.334 176.511 205.499 179.23 205.499H210.696C214.969 205.499 218.465 202.003 218.465 197.73C218.465 193.457 214.969 189.961 210.696 189.961ZM322.575 189.961H241.773C237.5 189.961 234.004 193.457 234.004 197.73C234.004 202.003 237.5 205.499 241.773 205.499H322.575C326.848 205.499 330.344 202.003 330.344 197.73C330.344 193.457 326.848 189.961 322.575 189.961ZM322.575 268.82H256.535C252.262 268.82 248.766 272.316 248.766 276.589C248.766 280.862 252.262 284.358 256.535 284.358H322.575C326.848 284.358 330.344 280.862 330.344 276.589C330.344 272.316 326.848 268.82 322.575 268.82ZM322.575 229.584H302.374C298.101 229.584 294.605 233.081 294.605 237.354C294.605 241.627 298.101 245.123 302.374 245.123H322.575C326.848 245.123 330.344 241.627 330.344 237.354C330.344 233.081 326.848 229.584 322.575 229.584ZM322.575 229.584H302.374C298.101 229.584 294.605 233.081 294.605 237.354C294.605 241.627 298.101 245.123 302.374 245.123H322.575C326.848 245.123 330.344 241.627 330.344 237.354C330.344 233.081 326.848 229.584 322.575 229.584ZM322.575 268.82H256.535C252.262 268.82 248.766 272.316 248.766 276.589C248.766 280.862 252.262 284.358 256.535 284.358H322.575C326.848 284.358 330.344 280.862 330.344 276.589C330.344 272.316 326.848 268.82 322.575 268.82ZM322.575 189.961H241.773C237.5 189.961 234.004 193.457 234.004 197.73C234.004 202.003 237.5 205.499 241.773 205.499H322.575C326.848 205.499 330.344 202.003 330.344 197.73C330.344 193.457 326.848 189.961 322.575 189.961ZM225.069 268.82H209.919V269.985C209.919 273.093 207.977 276.2 205.257 277.366L188.553 284.358H225.458C229.731 284.358 232.839 280.862 232.839 276.589C232.839 272.316 229.342 268.82 225.069 268.82ZM271.297 229.584H179.23C174.957 229.584 171.461 233.081 171.461 237.354C171.461 241.627 174.957 245.123 179.23 245.123H271.297C275.57 245.123 279.066 241.627 279.066 237.354C279.066 233.081 275.57 229.584 271.297 229.584ZM293.828 95.1747H286.447V87.0169C286.447 67.5935 270.52 51.6663 251.097 51.6663C235.558 51.6663 222.739 61.378 217.688 74.9744L227.789 85.0745H231.285C232.45 75.3629 240.996 67.5935 251.097 67.5935C261.974 67.5935 270.908 76.5283 270.908 87.4053V95.1747H246.047C249.154 102.167 250.708 106.829 252.651 110.713H285.67V150.337H215.746V110.713H244.104L239.443 99.8363L225.846 100.613C223.515 100.613 221.573 99.8363 220.019 98.2824L216.912 95.1747L215.746 94.0093V95.1747H208.365C204.092 95.1747 200.596 98.6709 200.596 102.944V158.106C200.596 161.991 203.315 165.099 207.2 165.876H293.828C298.101 165.876 301.597 162.38 301.597 158.106V102.944C301.597 98.6709 298.101 95.1747 293.828 95.1747ZM210.696 189.961H179.23C174.957 189.961 171.461 193.457 171.461 197.73C171.461 199.284 171.849 200.838 173.015 202.392C174.18 204.334 176.511 205.499 179.23 205.499H210.696C214.969 205.499 218.465 202.003 218.465 197.73C218.465 193.457 214.969 189.961 210.696 189.961ZM179.23 268.82C175.346 268.82 172.238 271.539 171.461 275.035L186.223 268.82H179.23ZM134.168 102.556V217.542C136.887 217.542 139.218 217.542 141.937 217.153V102.944C139.218 102.944 136.887 102.556 134.168 102.556ZM210.696 189.961H179.23C174.957 189.961 171.461 193.457 171.461 197.73C171.461 199.284 171.849 200.838 173.015 202.392C174.18 204.334 176.511 205.499 179.23 205.499H210.696C214.969 205.499 218.465 202.003 218.465 197.73C218.465 193.457 214.969 189.961 210.696 189.961ZM322.575 189.961H241.773C237.5 189.961 234.004 193.457 234.004 197.73C234.004 202.003 237.5 205.499 241.773 205.499H322.575C326.848 205.499 330.344 202.003 330.344 197.73C330.344 193.457 326.848 189.961 322.575 189.961ZM322.575 268.82H256.535C252.262 268.82 248.766 272.316 248.766 276.589C248.766 280.862 252.262 284.358 256.535 284.358H322.575C326.848 284.358 330.344 280.862 330.344 276.589C330.344 272.316 326.848 268.82 322.575 268.82ZM322.575 229.584H302.374C298.101 229.584 294.605 233.081 294.605 237.354C294.605 241.627 298.101 245.123 302.374 245.123H322.575C326.848 245.123 330.344 241.627 330.344 237.354C330.344 233.081 326.848 229.584 322.575 229.584ZM322.575 229.584H302.374C298.101 229.584 294.605 233.081 294.605 237.354C294.605 241.627 298.101 245.123 302.374 245.123H322.575C326.848 245.123 330.344 241.627 330.344 237.354C330.344 233.081 326.848 229.584 322.575 229.584ZM322.575 268.82H256.535C252.262 268.82 248.766 272.316 248.766 276.589C248.766 280.862 252.262 284.358 256.535 284.358H322.575C326.848 284.358 330.344 280.862 330.344 276.589C330.344 272.316 326.848 268.82 322.575 268.82ZM322.575 189.961H241.773C237.5 189.961 234.004 193.457 234.004 197.73C234.004 202.003 237.5 205.499 241.773 205.499H322.575C326.848 205.499 330.344 202.003 330.344 197.73C330.344 193.457 326.848 189.961 322.575 189.961ZM225.069 268.82H209.919V269.985C209.919 273.093 207.977 276.2 205.257 277.366L188.553 284.358H225.458C229.731 284.358 232.839 280.862 232.839 276.589C232.839 272.316 229.342 268.82 225.069 268.82ZM271.297 229.584H179.23C174.957 229.584 171.461 233.081 171.461 237.354C171.461 241.627 174.957 245.123 179.23 245.123H271.297C275.57 245.123 279.066 241.627 279.066 237.354C279.066 233.081 275.57 229.584 271.297 229.584ZM293.828 95.1747H286.447V87.0169C286.447 67.5935 270.52 51.6663 251.097 51.6663C235.558 51.6663 222.739 61.378 217.688 74.9744L227.789 85.0745H231.285C232.45 75.3629 240.996 67.5935 251.097 67.5935C261.974 67.5935 270.908 76.5283 270.908 87.4053V95.1747H246.047C249.154 102.167 250.708 106.829 252.651 110.713H285.67V150.337H215.746V110.713H244.104L239.443 99.8363L225.846 100.613C223.515 100.613 221.573 99.8363 220.019 98.2824L216.912 95.1747L215.746 94.0093V95.1747H208.365C204.092 95.1747 200.596 98.6709 200.596 102.944V158.106C200.596 161.991 203.315 165.099 207.2 165.876H293.828C298.101 165.876 301.597 162.38 301.597 158.106V102.944C301.597 98.6709 298.101 95.1747 293.828 95.1747ZM210.696 189.961H179.23C174.957 189.961 171.461 193.457 171.461 197.73C171.461 199.284 171.849 200.838 173.015 202.392C174.18 204.334 176.511 205.499 179.23 205.499H210.696C214.969 205.499 218.465 202.003 218.465 197.73C218.465 193.457 214.969 189.961 210.696 189.961ZM179.23 268.82C175.346 268.82 172.238 271.539 171.461 275.035L186.223 268.82H179.23ZM134.168 102.556V217.542C136.887 217.542 139.218 217.542 141.937 217.153V102.944C139.218 102.944 136.887 102.556 134.168 102.556ZM210.696 189.961H179.23C174.957 189.961 171.461 193.457 171.461 197.73C171.461 199.284 171.849 200.838 173.015 202.392C174.18 204.334 176.511 205.499 179.23 205.499H210.696C214.969 205.499 218.465 202.003 218.465 197.73C218.465 193.457 214.969 189.961 210.696 189.961ZM271.297 229.584H179.23C174.957 229.584 171.461 233.081 171.461 237.354C171.461 241.627 174.957 245.123 179.23 245.123H271.297C275.57 245.123 279.066 241.627 279.066 237.354C279.066 233.081 275.57 229.584 271.297 229.584ZM225.069 268.82H179.23C175.346 268.82 172.238 271.539 171.461 275.035V276.589C171.461 279.308 173.015 281.639 174.957 283.193C176.122 283.97 177.676 284.358 179.23 284.358H225.458C229.731 284.358 232.839 280.862 232.839 276.589C232.839 272.316 229.342 268.82 225.069 268.82ZM322.575 189.961H241.773C237.5 189.961 234.004 193.457 234.004 197.73C234.004 202.003 237.5 205.499 241.773 205.499H322.575C326.848 205.499 330.344 202.003 330.344 197.73C330.344 193.457 326.848 189.961 322.575 189.961ZM322.575 268.82H256.535C252.262 268.82 248.766 272.316 248.766 276.589C248.766 280.862 252.262 284.358 256.535 284.358H322.575C326.848 284.358 330.344 280.862 330.344 276.589C330.344 272.316 326.848 268.82 322.575 268.82ZM322.575 229.584H302.374C298.101 229.584 294.605 233.081 294.605 237.354C294.605 241.627 298.101 245.123 302.374 245.123H322.575C326.848 245.123 330.344 241.627 330.344 237.354C330.344 233.081 326.848 229.584 322.575 229.584ZM322.575 229.584H302.374C298.101 229.584 294.605 233.081 294.605 237.354C294.605 241.627 298.101 245.123 302.374 245.123H322.575C326.848 245.123 330.344 241.627 330.344 237.354C330.344 233.081 326.848 229.584 322.575 229.584ZM322.575 268.82H256.535C252.262 268.82 248.766 272.316 248.766 276.589C248.766 280.862 252.262 284.358 256.535 284.358H322.575C326.848 284.358 330.344 280.862 330.344 276.589C330.344 272.316 326.848 268.82 322.575 268.82ZM322.575 189.961H241.773C237.5 189.961 234.004 193.457 234.004 197.73C234.004 202.003 237.5 205.499 241.773 205.499H322.575C326.848 205.499 330.344 202.003 330.344 197.73C330.344 193.457 326.848 189.961 322.575 189.961ZM225.069 268.82H179.23C175.346 268.82 172.238 271.539 171.461 275.035V276.589C171.461 279.308 173.015 281.639 174.957 283.193C176.122 283.97 177.676 284.358 179.23 284.358H225.458C229.731 284.358 232.839 280.862 232.839 276.589C232.839 272.316 229.342 268.82 225.069 268.82ZM271.297 229.584H179.23C174.957 229.584 171.461 233.081 171.461 237.354C171.461 241.627 174.957 245.123 179.23 245.123H271.297C275.57 245.123 279.066 241.627 279.066 237.354C279.066 233.081 275.57 229.584 271.297 229.584ZM293.828 95.1747H286.447V87.0169C286.447 67.5935 270.52 51.6663 251.097 51.6663C235.558 51.6663 222.739 61.378 217.688 74.9744L227.789 85.0745H231.285C232.45 75.3629 240.996 67.5935 251.097 67.5935C261.974 67.5935 270.908 76.5283 270.908 87.4053V95.1747H246.047C249.154 102.167 250.708 106.829 252.651 110.713H285.67V150.337H215.746V110.713H244.104L239.443 99.8363L225.846 100.613C223.515 100.613 221.573 99.8363 220.019 98.2824L216.912 95.1747L215.746 94.0093V95.1747H208.365C204.092 95.1747 200.596 98.6709 200.596 102.944V158.106C200.596 161.991 203.315 165.099 207.2 165.876H293.828C298.101 165.876 301.597 162.38 301.597 158.106V102.944C301.597 98.6709 298.101 95.1747 293.828 95.1747ZM210.696 189.961H179.23C174.957 189.961 171.461 193.457 171.461 197.73C171.461 199.284 171.849 200.838 173.015 202.392C174.18 204.334 176.511 205.499 179.23 205.499H210.696C214.969 205.499 218.465 202.003 218.465 197.73C218.465 193.457 214.969 189.961 210.696 189.961ZM134.168 102.556V217.542C136.887 217.542 139.218 217.542 141.937 217.153V102.944C139.218 102.944 136.887 102.556 134.168 102.556ZM210.696 189.961H179.23C174.957 189.961 171.461 193.457 171.461 197.73C171.461 199.284 171.849 200.838 173.015 202.392C174.18 204.334 176.511 205.499 179.23 205.499H210.696C214.969 205.499 218.465 202.003 218.465 197.73C218.465 193.457 214.969 189.961 210.696 189.961ZM271.297 229.584H179.23C174.957 229.584 171.461 233.081 171.461 237.354C171.461 241.627 174.957 245.123 179.23 245.123H271.297C275.57 245.123 279.066 241.627 279.066 237.354C279.066 233.081 275.57 229.584 271.297 229.584ZM225.069 268.82H179.23C175.346 268.82 172.238 271.539 171.461 275.035V276.589C171.461 279.308 173.015 281.639 174.957 283.193C176.122 283.97 177.676 284.358 179.23 284.358H225.458C229.731 284.358 232.839 280.862 232.839 276.589C232.839 272.316 229.342 268.82 225.069 268.82ZM322.575 189.961H241.773C237.5 189.961 234.004 193.457 234.004 197.73C234.004 202.003 237.5 205.499 241.773 205.499H322.575C326.848 205.499 330.344 202.003 330.344 197.73C330.344 193.457 326.848 189.961 322.575 189.961ZM322.575 268.82H256.535C252.262 268.82 248.766 272.316 248.766 276.589C248.766 280.862 252.262 284.358 256.535 284.358H322.575C326.848 284.358 330.344 280.862 330.344 276.589C330.344 272.316 326.848 268.82 322.575 268.82ZM322.575 229.584H302.374C298.101 229.584 294.605 233.081 294.605 237.354C294.605 241.627 298.101 245.123 302.374 245.123H322.575C326.848 245.123 330.344 241.627 330.344 237.354C330.344 233.081 326.848 229.584 322.575 229.584ZM322.575 229.584H302.374C298.101 229.584 294.605 233.081 294.605 237.354C294.605 241.627 298.101 245.123 302.374 245.123H322.575C326.848 245.123 330.344 241.627 330.344 237.354C330.344 233.081 326.848 229.584 322.575 229.584ZM322.575 268.82H256.535C252.262 268.82 248.766 272.316 248.766 276.589C248.766 280.862 252.262 284.358 256.535 284.358H322.575C326.848 284.358 330.344 280.862 330.344 276.589C330.344 272.316 326.848 268.82 322.575 268.82ZM322.575 189.961H241.773C237.5 189.961 234.004 193.457 234.004 197.73C234.004 202.003 237.5 205.499 241.773 205.499H322.575C326.848 205.499 330.344 202.003 330.344 197.73C330.344 193.457 326.848 189.961 322.575 189.961ZM225.069 268.82H179.23C175.346 268.82 172.238 271.539 171.461 275.035V276.589C171.461 279.308 173.015 281.639 174.957 283.193C176.122 283.97 177.676 284.358 179.23 284.358H225.458C229.731 284.358 232.839 280.862 232.839 276.589C232.839 272.316 229.342 268.82 225.069 268.82ZM271.297 229.584H179.23C174.957 229.584 171.461 233.081 171.461 237.354C171.461 241.627 174.957 245.123 179.23 245.123H271.297C275.57 245.123 279.066 241.627 279.066 237.354C279.066 233.081 275.57 229.584 271.297 229.584ZM293.828 95.1747H286.447V87.0169C286.447 67.5935 270.52 51.6663 251.097 51.6663C235.558 51.6663 222.739 61.378 217.688 74.9744L227.789 85.0745H231.285C232.45 75.3629 240.996 67.5935 251.097 67.5935C261.974 67.5935 270.908 76.5283 270.908 87.4053V95.1747H246.047C249.154 102.167 250.708 106.829 252.651 110.713H285.67V150.337H215.746V110.713H244.104L239.443 99.8363L225.846 100.613C223.515 100.613 221.573 99.8363 220.019 98.2824L216.912 95.1747L215.746 94.0093V95.1747H208.365C204.092 95.1747 200.596 98.6709 200.596 102.944V158.106C200.596 161.991 203.315 165.099 207.2 165.876H293.828C298.101 165.876 301.597 162.38 301.597 158.106V102.944C301.597 98.6709 298.101 95.1747 293.828 95.1747ZM210.696 189.961H179.23C174.957 189.961 171.461 193.457 171.461 197.73C171.461 199.284 171.849 200.838 173.015 202.392C174.18 204.334 176.511 205.499 179.23 205.499H210.696C214.969 205.499 218.465 202.003 218.465 197.73C218.465 193.457 214.969 189.961 210.696 189.961ZM134.168 102.556V217.542C136.887 217.542 139.218 217.542 141.937 217.153V102.944C139.218 102.944 136.887 102.556 134.168 102.556ZM210.696 189.961H179.23C174.957 189.961 171.461 193.457 171.461 197.73C171.461 199.284 171.849 200.838 173.015 202.392C174.18 204.334 176.511 205.499 179.23 205.499H210.696C214.969 205.499 218.465 202.003 218.465 197.73C218.465 193.457 214.969 189.961 210.696 189.961ZM271.297 229.584H179.23C174.957 229.584 171.461 233.081 171.461 237.354C171.461 241.627 174.957 245.123 179.23 245.123H271.297C275.57 245.123 279.066 241.627 279.066 237.354C279.066 233.081 275.57 229.584 271.297 229.584ZM225.069 268.82H179.23C175.346 268.82 172.238 271.539 171.461 275.035V276.589C171.461 279.308 173.015 281.639 174.957 283.193C176.122 283.97 177.676 284.358 179.23 284.358H225.458C229.731 284.358 232.839 280.862 232.839 276.589C232.839 272.316 229.342 268.82 225.069 268.82ZM322.575 189.961H241.773C237.5 189.961 234.004 193.457 234.004 197.73C234.004 202.003 237.5 205.499 241.773 205.499H322.575C326.848 205.499 330.344 202.003 330.344 197.73C330.344 193.457 326.848 189.961 322.575 189.961ZM322.575 268.82H256.535C252.262 268.82 248.766 272.316 248.766 276.589C248.766 280.862 252.262 284.358 256.535 284.358H322.575C326.848 284.358 330.344 280.862 330.344 276.589C330.344 272.316 326.848 268.82 322.575 268.82ZM322.575 229.584H302.374C298.101 229.584 294.605 233.081 294.605 237.354C294.605 241.627 298.101 245.123 302.374 245.123H322.575C326.848 245.123 330.344 241.627 330.344 237.354C330.344 233.081 326.848 229.584 322.575 229.584ZM322.575 229.584H302.374C298.101 229.584 294.605 233.081 294.605 237.354C294.605 241.627 298.101 245.123 302.374 245.123H322.575C326.848 245.123 330.344 241.627 330.344 237.354C330.344 233.081 326.848 229.584 322.575 229.584ZM322.575 268.82H256.535C252.262 268.82 248.766 272.316 248.766 276.589C248.766 280.862 252.262 284.358 256.535 284.358H322.575C326.848 284.358 330.344 280.862 330.344 276.589C330.344 272.316 326.848 268.82 322.575 268.82ZM322.575 189.961H241.773C237.5 189.961 234.004 193.457 234.004 197.73C234.004 202.003 237.5 205.499 241.773 205.499H322.575C326.848 205.499 330.344 202.003 330.344 197.73C330.344 193.457 326.848 189.961 322.575 189.961ZM225.069 268.82H179.23C175.346 268.82 172.238 271.539 171.461 275.035V276.589C171.461 279.308 173.015 281.639 174.957 283.193C176.122 283.97 177.676 284.358 179.23 284.358H225.458C229.731 284.358 232.839 280.862 232.839 276.589C232.839 272.316 229.342 268.82 225.069 268.82ZM271.297 229.584H179.23C174.957 229.584 171.461 233.081 171.461 237.354C171.461 241.627 174.957 245.123 179.23 245.123H271.297C275.57 245.123 279.066 241.627 279.066 237.354C279.066 233.081 275.57 229.584 271.297 229.584ZM293.828 95.1747H286.447V87.0169C286.447 67.5935 270.52 51.6663 251.097 51.6663C235.558 51.6663 222.739 61.378 217.688 74.9744L227.789 85.0745H231.285C232.45 75.3629 240.996 67.5935 251.097 67.5935C261.974 67.5935 270.908 76.5283 270.908 87.4053V95.1747H246.047C249.154 102.167 250.708 106.829 252.651 110.713H285.67V150.337H215.746V110.713H244.104L239.443 99.8363L225.846 100.613C223.515 100.613 221.573 99.8363 220.019 98.2824L216.912 95.1747L215.746 94.0093V95.1747H208.365C204.092 95.1747 200.596 98.6709 200.596 102.944V158.106C200.596 161.991 203.315 165.099 207.2 165.876H293.828C298.101 165.876 301.597 162.38 301.597 158.106V102.944C301.597 98.6709 298.101 95.1747 293.828 95.1747ZM210.696 189.961H179.23C174.957 189.961 171.461 193.457 171.461 197.73C171.461 199.284 171.849 200.838 173.015 202.392C174.18 204.334 176.511 205.499 179.23 205.499H210.696C214.969 205.499 218.465 202.003 218.465 197.73C218.465 193.457 214.969 189.961 210.696 189.961ZM134.168 102.556V217.542C136.887 217.542 139.218 217.542 141.937 217.153V102.944C139.218 102.944 136.887 102.556 134.168 102.556ZM210.696 189.961H179.23C174.957 189.961 171.461 193.457 171.461 197.73C171.461 199.284 171.849 200.838 173.015 202.392C174.18 204.334 176.511 205.499 179.23 205.499H210.696C214.969 205.499 218.465 202.003 218.465 197.73C218.465 193.457 214.969 189.961 210.696 189.961ZM271.297 229.584H179.23C174.957 229.584 171.461 233.081 171.461 237.354C171.461 241.627 174.957 245.123 179.23 245.123H271.297C275.57 245.123 279.066 241.627 279.066 237.354C279.066 233.081 275.57 229.584 271.297 229.584ZM225.069 268.82H179.23C175.346 268.82 172.238 271.539 171.461 275.035V276.589C171.461 279.308 173.015 281.639 174.957 283.193C176.122 283.97 177.676 284.358 179.23 284.358H225.458C229.731 284.358 232.839 280.862 232.839 276.589C232.839 272.316 229.342 268.82 225.069 268.82ZM322.575 189.961H241.773C237.5 189.961 234.004 193.457 234.004 197.73C234.004 202.003 237.5 205.499 241.773 205.499H322.575C326.848 205.499 330.344 202.003 330.344 197.73C330.344 193.457 326.848 189.961 322.575 189.961ZM322.575 268.82H256.535C252.262 268.82 248.766 272.316 248.766 276.589C248.766 280.862 252.262 284.358 256.535 284.358H322.575C326.848 284.358 330.344 280.862 330.344 276.589C330.344 272.316 326.848 268.82 322.575 268.82ZM322.575 229.584H302.374C298.101 229.584 294.605 233.081 294.605 237.354C294.605 241.627 298.101 245.123 302.374 245.123H322.575C326.848 245.123 330.344 241.627 330.344 237.354C330.344 233.081 326.848 229.584 322.575 229.584ZM322.575 229.584H302.374C298.101 229.584 294.605 233.081 294.605 237.354C294.605 241.627 298.101 245.123 302.374 245.123H322.575C326.848 245.123 330.344 241.627 330.344 237.354C330.344 233.081 326.848 229.584 322.575 229.584ZM322.575 268.82H256.535C252.262 268.82 248.766 272.316 248.766 276.589C248.766 280.862 252.262 284.358 256.535 284.358H322.575C326.848 284.358 330.344 280.862 330.344 276.589C330.344 272.316 326.848 268.82 322.575 268.82ZM322.575 189.961H241.773C237.5 189.961 234.004 193.457 234.004 197.73C234.004 202.003 237.5 205.499 241.773 205.499H322.575C326.848 205.499 330.344 202.003 330.344 197.73C330.344 193.457 326.848 189.961 322.575 189.961ZM225.069 268.82H179.23C175.346 268.82 172.238 271.539 171.461 275.035V276.589C171.461 279.308 173.015 281.639 174.957 283.193C176.122 283.97 177.676 284.358 179.23 284.358H225.458C229.731 284.358 232.839 280.862 232.839 276.589C232.839 272.316 229.342 268.82 225.069 268.82ZM271.297 229.584H179.23C174.957 229.584 171.461 233.081 171.461 237.354C171.461 241.627 174.957 245.123 179.23 245.123H271.297C275.57 245.123 279.066 241.627 279.066 237.354C279.066 233.081 275.57 229.584 271.297 229.584ZM293.828 95.1747H286.447V87.0169C286.447 67.5935 270.52 51.6663 251.097 51.6663C235.558 51.6663 222.739 61.378 217.688 74.9744L227.789 85.0745H231.285C232.45 75.3629 240.996 67.5935 251.097 67.5935C261.974 67.5935 270.908 76.5283 270.908 87.4053V95.1747H246.047C249.154 102.167 250.708 106.829 252.651 110.713H285.67V150.337H215.746V110.713H244.104L239.443 99.8363L225.846 100.613C223.515 100.613 221.573 99.8363 220.019 98.2824L216.912 95.1747L215.746 94.0093V95.1747H208.365C204.092 95.1747 200.596 98.6709 200.596 102.944V158.106C200.596 161.991 203.315 165.099 207.2 165.876H293.828C298.101 165.876 301.597 162.38 301.597 158.106V102.944C301.597 98.6709 298.101 95.1747 293.828 95.1747ZM210.696 189.961H179.23C174.957 189.961 171.461 193.457 171.461 197.73C171.461 199.284 171.849 200.838 173.015 202.392C174.18 204.334 176.511 205.499 179.23 205.499H210.696C214.969 205.499 218.465 202.003 218.465 197.73C218.465 193.457 214.969 189.961 210.696 189.961ZM134.168 102.556V217.542C136.887 217.542 139.218 217.542 141.937 217.153V102.944C139.218 102.944 136.887 102.556 134.168 102.556ZM210.696 189.961H179.23C174.957 189.961 171.461 193.457 171.461 197.73C171.461 199.284 171.849 200.838 173.015 202.392C174.18 204.334 176.511 205.499 179.23 205.499H210.696C214.969 205.499 218.465 202.003 218.465 197.73C218.465 193.457 214.969 189.961 210.696 189.961ZM271.297 229.584H179.23C174.957 229.584 171.461 233.081 171.461 237.354C171.461 241.627 174.957 245.123 179.23 245.123H271.297C275.57 245.123 279.066 241.627 279.066 237.354C279.066 233.081 275.57 229.584 271.297 229.584ZM225.069 268.82H179.23C175.346 268.82 172.238 271.539 171.461 275.035V276.589C171.461 279.308 173.015 281.639 174.957 283.193C176.122 283.97 177.676 284.358 179.23 284.358H225.458C229.731 284.358 232.839 280.862 232.839 276.589C232.839 272.316 229.342 268.82 225.069 268.82ZM322.575 189.961H241.773C237.5 189.961 234.004 193.457 234.004 197.73C234.004 202.003 237.5 205.499 241.773 205.499H322.575C326.848 205.499 330.344 202.003 330.344 197.73C330.344 193.457 326.848 189.961 322.575 189.961ZM322.575 268.82H256.535C252.262 268.82 248.766 272.316 248.766 276.589C248.766 280.862 252.262 284.358 256.535 284.358H322.575C326.848 284.358 330.344 280.862 330.344 276.589C330.344 272.316 326.848 268.82 322.575 268.82ZM322.575 229.584H302.374C298.101 229.584 294.605 233.081 294.605 237.354C294.605 241.627 298.101 245.123 302.374 245.123H322.575C326.848 245.123 330.344 241.627 330.344 237.354C330.344 233.081 326.848 229.584 322.575 229.584ZM322.575 229.584H302.374C298.101 229.584 294.605 233.081 294.605 237.354C294.605 241.627 298.101 245.123 302.374 245.123H322.575C326.848 245.123 330.344 241.627 330.344 237.354C330.344 233.081 326.848 229.584 322.575 229.584ZM322.575 268.82H256.535C252.262 268.82 248.766 272.316 248.766 276.589C248.766 280.862 252.262 284.358 256.535 284.358H322.575C326.848 284.358 330.344 280.862 330.344 276.589C330.344 272.316 326.848 268.82 322.575 268.82ZM322.575 189.961H241.773C237.5 189.961 234.004 193.457 234.004 197.73C234.004 202.003 237.5 205.499 241.773 205.499H322.575C326.848 205.499 330.344 202.003 330.344 197.73C330.344 193.457 326.848 189.961 322.575 189.961ZM225.069 268.82H179.23C175.346 268.82 172.238 271.539 171.461 275.035V276.589C171.461 279.308 173.015 281.639 174.957 283.193C176.122 283.97 177.676 284.358 179.23 284.358H225.458C229.731 284.358 232.839 280.862 232.839 276.589C232.839 272.316 229.342 268.82 225.069 268.82ZM271.297 229.584H179.23C174.957 229.584 171.461 233.081 171.461 237.354C171.461 241.627 174.957 245.123 179.23 245.123H271.297C275.57 245.123 279.066 241.627 279.066 237.354C279.066 233.081 275.57 229.584 271.297 229.584ZM293.828 95.1747H286.447V87.0169C286.447 67.5935 270.52 51.6663 251.097 51.6663C235.558 51.6663 222.739 61.378 217.688 74.9744L227.789 85.0745H231.285C232.45 75.3629 240.996 67.5935 251.097 67.5935C261.974 67.5935 270.908 76.5283 270.908 87.4053V95.1747H246.047C249.154 102.167 250.708 106.829 252.651 110.713H285.67V150.337H215.746V110.713H244.104L239.443 99.8363L225.846 100.613C223.515 100.613 221.573 99.8363 220.019 98.2824L216.912 95.1747L215.746 94.0093V95.1747H208.365C204.092 95.1747 200.596 98.6709 200.596 102.944V158.106C200.596 161.991 203.315 165.099 207.2 165.876H293.828C298.101 165.876 301.597 162.38 301.597 158.106V102.944C301.597 98.6709 298.101 95.1747 293.828 95.1747ZM210.696 189.961H179.23C174.957 189.961 171.461 193.457 171.461 197.73C171.461 199.284 171.849 200.838 173.015 202.392C174.18 204.334 176.511 205.499 179.23 205.499H210.696C214.969 205.499 218.465 202.003 218.465 197.73C218.465 193.457 214.969 189.961 210.696 189.961ZM134.168 102.556V217.542C136.887 217.542 139.218 217.542 141.937 217.153V102.944C139.218 102.944 136.887 102.556 134.168 102.556ZM210.696 189.961H179.23C174.957 189.961 171.461 193.457 171.461 197.73C171.461 199.284 171.849 200.838 173.015 202.392C174.18 204.334 176.511 205.499 179.23 205.499H210.696C214.969 205.499 218.465 202.003 218.465 197.73C218.465 193.457 214.969 189.961 210.696 189.961ZM271.297 229.584H179.23C174.957 229.584 171.461 233.081 171.461 237.354C171.461 241.627 174.957 245.123 179.23 245.123H271.297C275.57 245.123 279.066 241.627 279.066 237.354C279.066 233.081 275.57 229.584 271.297 229.584ZM225.069 268.82H179.23C175.346 268.82 172.238 271.539 171.461 275.035V276.589C171.461 279.308 173.015 281.639 174.957 283.193C176.122 283.97 177.676 284.358 179.23 284.358H225.458C229.731 284.358 232.839 280.862 232.839 276.589C232.839 272.316 229.342 268.82 225.069 268.82ZM322.575 189.961H241.773C237.5 189.961 234.004 193.457 234.004 197.73C234.004 202.003 237.5 205.499 241.773 205.499H322.575C326.848 205.499 330.344 202.003 330.344 197.73C330.344 193.457 326.848 189.961 322.575 189.961ZM322.575 268.82H256.535C252.262 268.82 248.766 272.316 248.766 276.589C248.766 280.862 252.262 284.358 256.535 284.358H322.575C326.848 284.358 330.344 280.862 330.344 276.589C330.344 272.316 326.848 268.82 322.575 268.82ZM322.575 229.584H302.374C298.101 229.584 294.605 233.081 294.605 237.354C294.605 241.627 298.101 245.123 302.374 245.123H322.575C326.848 245.123 330.344 241.627 330.344 237.354C330.344 233.081 326.848 229.584 322.575 229.584ZM322.575 229.584H302.374C298.101 229.584 294.605 233.081 294.605 237.354C294.605 241.627 298.101 245.123 302.374 245.123H322.575C326.848 245.123 330.344 241.627 330.344 237.354C330.344 233.081 326.848 229.584 322.575 229.584ZM322.575 268.82H256.535C252.262 268.82 248.766 272.316 248.766 276.589C248.766 280.862 252.262 284.358 256.535 284.358H322.575C326.848 284.358 330.344 280.862 330.344 276.589C330.344 272.316 326.848 268.82 322.575 268.82ZM241.773 189.961C237.5 189.961 234.004 193.457 234.004 197.73C234.004 202.003 237.5 205.499 241.773 205.499H322.575C326.848 205.499 330.344 202.003 330.344 197.73C330.344 193.457 326.848 189.961 322.575 189.961H241.773ZM225.069 268.82H179.23C175.346 268.82 172.238 271.539 171.461 275.035V276.589C171.461 279.308 173.015 281.639 174.957 283.193C176.122 283.97 177.676 284.358 179.23 284.358H225.458C229.731 284.358 232.839 280.862 232.839 276.589C232.839 272.316 229.342 268.82 225.069 268.82ZM179.23 245.123H271.297C275.57 245.123 279.066 241.627 279.066 237.354C279.066 233.081 275.57 229.584 271.297 229.584H179.23C174.957 229.584 171.461 233.081 171.461 237.354C171.461 241.627 174.957 245.123 179.23 245.123ZM206.811 165.876H293.44C297.713 165.876 301.209 162.38 301.209 158.106V102.944C301.209 98.6709 297.713 95.1747 293.44 95.1747H286.059V87.0169C286.059 67.5935 270.132 51.6663 250.708 51.6663C235.169 51.6663 222.35 61.378 217.3 74.9744L227.4 85.0745H230.896C232.062 75.3629 240.608 67.5935 250.708 67.5935C261.585 67.5935 270.52 76.5283 270.52 87.4053V95.1747H245.658C248.766 102.167 250.32 106.829 252.262 110.713H285.282V150.337H215.358V110.713H243.716L239.443 99.8363L225.846 100.613C223.515 100.613 221.573 99.8363 220.019 98.2824L216.912 95.1747L215.746 94.0093V95.1747H208.365C204.092 95.1747 200.596 98.6709 200.596 102.944V158.106C200.596 161.991 203.315 165.099 206.811 165.876ZM179.23 205.499H210.696C214.969 205.499 218.465 202.003 218.465 197.73C218.465 193.457 214.969 189.961 210.696 189.961H179.23C174.957 189.961 171.461 193.457 171.461 197.73C171.461 199.284 171.849 200.838 173.015 202.392C174.18 204.334 176.511 205.499 179.23 205.499ZM134.168 217.542C136.887 217.542 139.218 217.542 141.937 217.153V102.944C139.607 102.556 136.887 102.556 134.168 102.556V217.542ZM302.374 7.76953H134.168V320.874H367.637V73.032L302.374 7.76953ZM348.99 65.2627H310.144V26.416L348.99 65.2627ZM359.868 313.105H141.937V15.5389H294.605V73.032C294.605 77.3052 298.101 80.8014 302.374 80.8014H359.868V313.105ZM322.575 229.584H302.374C298.101 229.584 294.605 233.081 294.605 237.354C294.605 241.627 298.101 245.123 302.374 245.123H322.575C326.848 245.123 330.344 241.627 330.344 237.354C330.344 233.081 326.848 229.584 322.575 229.584ZM322.575 268.82H256.535C252.262 268.82 248.766 272.316 248.766 276.589C248.766 280.862 252.262 284.358 256.535 284.358H322.575C326.848 284.358 330.344 280.862 330.344 276.589C330.344 272.316 326.848 268.82 322.575 268.82ZM241.773 189.961C237.5 189.961 234.004 193.457 234.004 197.73C234.004 202.003 237.5 205.499 241.773 205.499H322.575C326.848 205.499 330.344 202.003 330.344 197.73C330.344 193.457 326.848 189.961 322.575 189.961H241.773ZM225.069 268.82H179.23C175.346 268.82 172.238 271.539 171.461 275.035V276.589C171.461 279.308 173.015 281.639 174.957 283.193C176.122 283.97 177.676 284.358 179.23 284.358H225.458C229.731 284.358 232.839 280.862 232.839 276.589C232.839 272.316 229.342 268.82 225.069 268.82ZM179.23 245.123H271.297C275.57 245.123 279.066 241.627 279.066 237.354C279.066 233.081 275.57 229.584 271.297 229.584H179.23C174.957 229.584 171.461 233.081 171.461 237.354C171.461 241.627 174.957 245.123 179.23 245.123ZM206.811 165.876H293.44C297.713 165.876 301.209 162.38 301.209 158.106V102.944C301.209 98.6709 297.713 95.1747 293.44 95.1747H286.059V87.0169C286.059 67.5935 270.132 51.6663 250.708 51.6663C235.169 51.6663 222.35 61.378 217.3 74.9744C216.523 76.9167 216.135 78.8591 215.746 80.8014C215.746 81.5783 215.358 81.9668 215.358 82.7437V95.1747H208.365C204.092 95.1747 200.596 98.6709 200.596 102.944V158.106C200.596 161.991 203.315 165.099 206.811 165.876ZM251.097 67.205C261.974 67.205 270.908 76.1398 270.908 87.0169V95.1747H231.285V85.0745C232.45 74.9744 240.996 67.205 251.097 67.205ZM215.746 110.713H285.67V150.337H215.746V110.713ZM179.23 205.499H210.696C214.969 205.499 218.465 202.003 218.465 197.73C218.465 193.457 214.969 189.961 210.696 189.961H179.23C174.957 189.961 171.461 193.457 171.461 197.73C171.461 199.284 171.849 200.838 173.015 202.392C174.18 204.334 176.511 205.499 179.23 205.499ZM134.168 102.556V217.542C136.887 217.542 139.218 217.542 141.937 217.153V102.944C139.218 102.944 136.887 102.556 134.168 102.556ZM210.696 189.961H179.23C174.957 189.961 171.461 193.457 171.461 197.73C171.461 199.284 171.849 200.838 173.015 202.392C174.18 204.334 176.511 205.499 179.23 205.499H210.696C214.969 205.499 218.465 202.003 218.465 197.73C218.465 193.457 214.969 189.961 210.696 189.961ZM293.828 95.1747H286.447V87.0169C286.447 67.5935 270.52 51.6663 251.097 51.6663C235.558 51.6663 222.739 61.378 217.688 74.9744L227.789 85.0745H231.285C232.45 75.3629 240.996 67.5935 251.097 67.5935C261.974 67.5935 270.908 76.5283 270.908 87.4053V95.1747H246.047C249.154 102.167 250.708 106.829 252.651 110.713H285.67V150.337H215.746V110.713H244.104L239.443 99.8363L225.846 100.613C223.515 100.613 221.573 99.8363 220.019 98.2824L216.912 95.1747L215.746 94.0093V95.1747H208.365C204.092 95.1747 200.596 98.6709 200.596 102.944V158.106C200.596 161.991 203.315 165.099 207.2 165.876H293.828C298.101 165.876 301.597 162.38 301.597 158.106V102.944C301.597 98.6709 298.101 95.1747 293.828 95.1747ZM271.297 229.584H179.23C174.957 229.584 171.461 233.081 171.461 237.354C171.461 241.627 174.957 245.123 179.23 245.123H271.297C275.57 245.123 279.066 241.627 279.066 237.354C279.066 233.081 275.57 229.584 271.297 229.584ZM225.069 268.82H179.23C175.346 268.82 172.238 271.539 171.461 275.035V276.589C171.461 279.308 173.015 281.639 174.957 283.193C176.122 283.97 177.676 284.358 179.23 284.358H225.458C229.731 284.358 232.839 280.862 232.839 276.589C232.839 272.316 229.342 268.82 225.069 268.82ZM322.575 189.961H241.773C237.5 189.961 234.004 193.457 234.004 197.73C234.004 202.003 237.5 205.499 241.773 205.499H322.575C326.848 205.499 330.344 202.003 330.344 197.73C330.344 193.457 326.848 189.961 322.575 189.961ZM322.575 268.82H256.535C252.262 268.82 248.766 272.316 248.766 276.589C248.766 280.862 252.262 284.358 256.535 284.358H322.575C326.848 284.358 330.344 280.862 330.344 276.589C330.344 272.316 326.848 268.82 322.575 268.82ZM322.575 229.584H302.374C298.101 229.584 294.605 233.081 294.605 237.354C294.605 241.627 298.101 245.123 302.374 245.123H322.575C326.848 245.123 330.344 241.627 330.344 237.354C330.344 233.081 326.848 229.584 322.575 229.584ZM322.575 229.584H302.374C298.101 229.584 294.605 233.081 294.605 237.354C294.605 241.627 298.101 245.123 302.374 245.123H322.575C326.848 245.123 330.344 241.627 330.344 237.354C330.344 233.081 326.848 229.584 322.575 229.584ZM322.575 268.82H256.535C252.262 268.82 248.766 272.316 248.766 276.589C248.766 280.862 252.262 284.358 256.535 284.358H322.575C326.848 284.358 330.344 280.862 330.344 276.589C330.344 272.316 326.848 268.82 322.575 268.82ZM322.575 189.961H241.773C237.5 189.961 234.004 193.457 234.004 197.73C234.004 202.003 237.5 205.499 241.773 205.499H322.575C326.848 205.499 330.344 202.003 330.344 197.73C330.344 193.457 326.848 189.961 322.575 189.961ZM225.069 268.82H179.23C175.346 268.82 172.238 271.539 171.461 275.035V276.589C171.461 279.308 173.015 281.639 174.957 283.193C176.122 283.97 177.676 284.358 179.23 284.358H225.458C229.731 284.358 232.839 280.862 232.839 276.589C232.839 272.316 229.342 268.82 225.069 268.82ZM271.297 229.584H179.23C174.957 229.584 171.461 233.081 171.461 237.354C171.461 241.627 174.957 245.123 179.23 245.123H271.297C275.57 245.123 279.066 241.627 279.066 237.354C279.066 233.081 275.57 229.584 271.297 229.584ZM210.696 189.961H179.23C174.957 189.961 171.461 193.457 171.461 197.73C171.461 199.284 171.849 200.838 173.015 202.392C174.18 204.334 176.511 205.499 179.23 205.499H210.696C214.969 205.499 218.465 202.003 218.465 197.73C218.465 193.457 214.969 189.961 210.696 189.961ZM134.168 102.556V217.542C136.887 217.542 139.218 217.542 141.937 217.153V102.944C139.218 102.944 136.887 102.556 134.168 102.556ZM210.696 189.961H179.23C174.957 189.961 171.461 193.457 171.461 197.73C171.461 199.284 171.849 200.838 173.015 202.392C174.18 204.334 176.511 205.499 179.23 205.499H210.696C214.969 205.499 218.465 202.003 218.465 197.73C218.465 193.457 214.969 189.961 210.696 189.961ZM293.828 95.1747H286.447V87.0169C286.447 67.5935 270.52 51.6663 251.097 51.6663C235.558 51.6663 222.739 61.378 217.688 74.9744L227.789 85.0745H231.285C232.45 75.3629 240.996 67.5935 251.097 67.5935C261.974 67.5935 270.908 76.5283 270.908 87.4053V95.1747H246.047C249.154 102.167 250.708 106.829 252.651 110.713H285.67V150.337H215.746V110.713H244.104L239.443 99.8363L225.846 100.613C223.515 100.613 221.573 99.8363 220.019 98.2824L216.912 95.1747L215.746 94.0093V95.1747H208.365C204.092 95.1747 200.596 98.6709 200.596 102.944V158.106C200.596 161.991 203.315 165.099 207.2 165.876H293.828C298.101 165.876 301.597 162.38 301.597 158.106V102.944C301.597 98.6709 298.101 95.1747 293.828 95.1747ZM271.297 229.584H179.23C174.957 229.584 171.461 233.081 171.461 237.354C171.461 241.627 174.957 245.123 179.23 245.123H271.297C275.57 245.123 279.066 241.627 279.066 237.354C279.066 233.081 275.57 229.584 271.297 229.584ZM225.069 268.82H179.23C175.346 268.82 172.238 271.539 171.461 275.035V276.589C171.461 279.308 173.015 281.639 174.957 283.193C176.122 283.97 177.676 284.358 179.23 284.358H225.458C229.731 284.358 232.839 280.862 232.839 276.589C232.839 272.316 229.342 268.82 225.069 268.82ZM322.575 189.961H241.773C237.5 189.961 234.004 193.457 234.004 197.73C234.004 202.003 237.5 205.499 241.773 205.499H322.575C326.848 205.499 330.344 202.003 330.344 197.73C330.344 193.457 326.848 189.961 322.575 189.961ZM322.575 268.82H256.535C252.262 268.82 248.766 272.316 248.766 276.589C248.766 280.862 252.262 284.358 256.535 284.358H322.575C326.848 284.358 330.344 280.862 330.344 276.589C330.344 272.316 326.848 268.82 322.575 268.82ZM322.575 229.584H302.374C298.101 229.584 294.605 233.081 294.605 237.354C294.605 241.627 298.101 245.123 302.374 245.123H322.575C326.848 245.123 330.344 241.627 330.344 237.354C330.344 233.081 326.848 229.584 322.575 229.584ZM322.575 229.584H302.374C298.101 229.584 294.605 233.081 294.605 237.354C294.605 241.627 298.101 245.123 302.374 245.123H322.575C326.848 245.123 330.344 241.627 330.344 237.354C330.344 233.081 326.848 229.584 322.575 229.584ZM322.575 268.82H256.535C252.262 268.82 248.766 272.316 248.766 276.589C248.766 280.862 252.262 284.358 256.535 284.358H322.575C326.848 284.358 330.344 280.862 330.344 276.589C330.344 272.316 326.848 268.82 322.575 268.82ZM322.575 189.961H241.773C237.5 189.961 234.004 193.457 234.004 197.73C234.004 202.003 237.5 205.499 241.773 205.499H322.575C326.848 205.499 330.344 202.003 330.344 197.73C330.344 193.457 326.848 189.961 322.575 189.961ZM225.069 268.82H179.23C175.346 268.82 172.238 271.539 171.461 275.035V276.589C171.461 279.308 173.015 281.639 174.957 283.193C176.122 283.97 177.676 284.358 179.23 284.358H225.458C229.731 284.358 232.839 280.862 232.839 276.589C232.839 272.316 229.342 268.82 225.069 268.82ZM271.297 229.584H179.23C174.957 229.584 171.461 233.081 171.461 237.354C171.461 241.627 174.957 245.123 179.23 245.123H271.297C275.57 245.123 279.066 241.627 279.066 237.354C279.066 233.081 275.57 229.584 271.297 229.584ZM210.696 189.961H179.23C174.957 189.961 171.461 193.457 171.461 197.73C171.461 199.284 171.849 200.838 173.015 202.392C174.18 204.334 176.511 205.499 179.23 205.499H210.696C214.969 205.499 218.465 202.003 218.465 197.73C218.465 193.457 214.969 189.961 210.696 189.961ZM134.168 102.556V217.542C136.887 217.542 139.218 217.542 141.937 217.153V102.944C139.218 102.944 136.887 102.556 134.168 102.556ZM210.696 189.961H179.23C174.957 189.961 171.461 193.457 171.461 197.73C171.461 199.284 171.849 200.838 173.015 202.392C174.18 204.334 176.511 205.499 179.23 205.499H210.696C214.969 205.499 218.465 202.003 218.465 197.73C218.465 193.457 214.969 189.961 210.696 189.961ZM293.828 95.1747H286.447V87.0169C286.447 67.5935 270.52 51.6663 251.097 51.6663C235.558 51.6663 222.739 61.378 217.688 74.9744L227.789 85.0745H231.285C232.45 75.3629 240.996 67.5935 251.097 67.5935C261.974 67.5935 270.908 76.5283 270.908 87.4053V95.1747H246.047C249.154 102.167 250.708 106.829 252.651 110.713H285.67V150.337H215.746V110.713H244.104L239.443 99.8363L225.846 100.613C223.515 100.613 221.573 99.8363 220.019 98.2824L216.912 95.1747L215.746 94.0093V95.1747H208.365C204.092 95.1747 200.596 98.6709 200.596 102.944V158.106C200.596 161.991 203.315 165.099 207.2 165.876H293.828C298.101 165.876 301.597 162.38 301.597 158.106V102.944C301.597 98.6709 298.101 95.1747 293.828 95.1747ZM271.297 229.584H179.23C174.957 229.584 171.461 233.081 171.461 237.354C171.461 241.627 174.957 245.123 179.23 245.123H271.297C275.57 245.123 279.066 241.627 279.066 237.354C279.066 233.081 275.57 229.584 271.297 229.584ZM225.069 268.82H179.23C175.346 268.82 172.238 271.539 171.461 275.035V276.589C171.461 279.308 173.015 281.639 174.957 283.193C176.122 283.97 177.676 284.358 179.23 284.358H225.458C229.731 284.358 232.839 280.862 232.839 276.589C232.839 272.316 229.342 268.82 225.069 268.82ZM322.575 189.961H241.773C237.5 189.961 234.004 193.457 234.004 197.73C234.004 202.003 237.5 205.499 241.773 205.499H322.575C326.848 205.499 330.344 202.003 330.344 197.73C330.344 193.457 326.848 189.961 322.575 189.961ZM322.575 268.82H256.535C252.262 268.82 248.766 272.316 248.766 276.589C248.766 280.862 252.262 284.358 256.535 284.358H322.575C326.848 284.358 330.344 280.862 330.344 276.589C330.344 272.316 326.848 268.82 322.575 268.82ZM322.575 229.584H302.374C298.101 229.584 294.605 233.081 294.605 237.354C294.605 241.627 298.101 245.123 302.374 245.123H322.575C326.848 245.123 330.344 241.627 330.344 237.354C330.344 233.081 326.848 229.584 322.575 229.584ZM322.575 229.584H302.374C298.101 229.584 294.605 233.081 294.605 237.354C294.605 241.627 298.101 245.123 302.374 245.123H322.575C326.848 245.123 330.344 241.627 330.344 237.354C330.344 233.081 326.848 229.584 322.575 229.584ZM322.575 268.82H256.535C252.262 268.82 248.766 272.316 248.766 276.589C248.766 280.862 252.262 284.358 256.535 284.358H322.575C326.848 284.358 330.344 280.862 330.344 276.589C330.344 272.316 326.848 268.82 322.575 268.82ZM322.575 189.961H241.773C237.5 189.961 234.004 193.457 234.004 197.73C234.004 202.003 237.5 205.499 241.773 205.499H322.575C326.848 205.499 330.344 202.003 330.344 197.73C330.344 193.457 326.848 189.961 322.575 189.961ZM225.069 268.82H179.23C175.346 268.82 172.238 271.539 171.461 275.035V276.589C171.461 279.308 173.015 281.639 174.957 283.193C176.122 283.97 177.676 284.358 179.23 284.358H225.458C229.731 284.358 232.839 280.862 232.839 276.589C232.839 272.316 229.342 268.82 225.069 268.82ZM271.297 229.584H179.23C174.957 229.584 171.461 233.081 171.461 237.354C171.461 241.627 174.957 245.123 179.23 245.123H271.297C275.57 245.123 279.066 241.627 279.066 237.354C279.066 233.081 275.57 229.584 271.297 229.584ZM210.696 189.961H179.23C174.957 189.961 171.461 193.457 171.461 197.73C171.461 199.284 171.849 200.838 173.015 202.392C174.18 204.334 176.511 205.499 179.23 205.499H210.696C214.969 205.499 218.465 202.003 218.465 197.73C218.465 193.457 214.969 189.961 210.696 189.961ZM134.168 102.556V217.542C136.887 217.542 139.218 217.542 141.937 217.153V102.944C139.218 102.944 136.887 102.556 134.168 102.556ZM210.696 189.961H179.23C174.957 189.961 171.461 193.457 171.461 197.73C171.461 199.284 171.849 200.838 173.015 202.392C174.18 204.334 176.511 205.499 179.23 205.499H210.696C214.969 205.499 218.465 202.003 218.465 197.73C218.465 193.457 214.969 189.961 210.696 189.961ZM293.828 95.1747H286.447V87.0169C286.447 67.5935 270.52 51.6663 251.097 51.6663C235.558 51.6663 222.739 61.378 217.688 74.9744L227.789 85.0745H231.285C232.45 75.3629 240.996 67.5935 251.097 67.5935C261.974 67.5935 270.908 76.5283 270.908 87.4053V95.1747H246.047C249.154 102.167 250.708 106.829 252.651 110.713H285.67V150.337H215.746V110.713H244.104L239.443 99.8363L225.846 100.613C223.515 100.613 221.573 99.8363 220.019 98.2824L216.912 95.1747L215.746 94.0093V95.1747H208.365C204.092 95.1747 200.596 98.6709 200.596 102.944V158.106C200.596 161.991 203.315 165.099 207.2 165.876H293.828C298.101 165.876 301.597 162.38 301.597 158.106V102.944C301.597 98.6709 298.101 95.1747 293.828 95.1747ZM271.297 229.584H179.23C174.957 229.584 171.461 233.081 171.461 237.354C171.461 241.627 174.957 245.123 179.23 245.123H271.297C275.57 245.123 279.066 241.627 279.066 237.354C279.066 233.081 275.57 229.584 271.297 229.584ZM225.069 268.82H179.23C175.346 268.82 172.238 271.539 171.461 275.035V276.589C171.461 279.308 173.015 281.639 174.957 283.193C176.122 283.97 177.676 284.358 179.23 284.358H225.458C229.731 284.358 232.839 280.862 232.839 276.589C232.839 272.316 229.342 268.82 225.069 268.82ZM322.575 189.961H241.773C237.5 189.961 234.004 193.457 234.004 197.73C234.004 202.003 237.5 205.499 241.773 205.499H322.575C326.848 205.499 330.344 202.003 330.344 197.73C330.344 193.457 326.848 189.961 322.575 189.961ZM322.575 268.82H256.535C252.262 268.82 248.766 272.316 248.766 276.589C248.766 280.862 252.262 284.358 256.535 284.358H322.575C326.848 284.358 330.344 280.862 330.344 276.589C330.344 272.316 326.848 268.82 322.575 268.82ZM322.575 229.584H302.374C298.101 229.584 294.605 233.081 294.605 237.354C294.605 241.627 298.101 245.123 302.374 245.123H322.575C326.848 245.123 330.344 241.627 330.344 237.354C330.344 233.081 326.848 229.584 322.575 229.584ZM322.575 229.584H302.374C298.101 229.584 294.605 233.081 294.605 237.354C294.605 241.627 298.101 245.123 302.374 245.123H322.575C326.848 245.123 330.344 241.627 330.344 237.354C330.344 233.081 326.848 229.584 322.575 229.584ZM322.575 268.82H256.535C252.262 268.82 248.766 272.316 248.766 276.589C248.766 280.862 252.262 284.358 256.535 284.358H322.575C326.848 284.358 330.344 280.862 330.344 276.589C330.344 272.316 326.848 268.82 322.575 268.82ZM322.575 189.961H241.773C237.5 189.961 234.004 193.457 234.004 197.73C234.004 202.003 237.5 205.499 241.773 205.499H322.575C326.848 205.499 330.344 202.003 330.344 197.73C330.344 193.457 326.848 189.961 322.575 189.961ZM225.069 268.82H179.23C175.346 268.82 172.238 271.539 171.461 275.035V276.589C171.461 279.308 173.015 281.639 174.957 283.193C176.122 283.97 177.676 284.358 179.23 284.358H225.458C229.731 284.358 232.839 280.862 232.839 276.589C232.839 272.316 229.342 268.82 225.069 268.82ZM271.297 229.584H179.23C174.957 229.584 171.461 233.081 171.461 237.354C171.461 241.627 174.957 245.123 179.23 245.123H271.297C275.57 245.123 279.066 241.627 279.066 237.354C279.066 233.081 275.57 229.584 271.297 229.584ZM210.696 189.961H179.23C174.957 189.961 171.461 193.457 171.461 197.73C171.461 199.284 171.849 200.838 173.015 202.392C174.18 204.334 176.511 205.499 179.23 205.499H210.696C214.969 205.499 218.465 202.003 218.465 197.73C218.465 193.457 214.969 189.961 210.696 189.961ZM134.168 102.556V217.542C136.887 217.542 139.218 217.542 141.937 217.153V102.944C139.218 102.944 136.887 102.556 134.168 102.556ZM210.696 189.961H179.23C174.957 189.961 171.461 193.457 171.461 197.73C171.461 199.284 171.849 200.838 173.015 202.392C174.18 204.334 176.511 205.499 179.23 205.499H210.696C214.969 205.499 218.465 202.003 218.465 197.73C218.465 193.457 214.969 189.961 210.696 189.961ZM293.828 95.1747H286.447V87.0169C286.447 67.5935 270.52 51.6663 251.097 51.6663C235.558 51.6663 222.739 61.378 217.688 74.9744L227.789 85.0745H231.285C232.45 75.3629 240.996 67.5935 251.097 67.5935C261.974 67.5935 270.908 76.5283 270.908 87.4053V95.1747H246.047C249.154 102.167 250.708 106.829 252.651 110.713H285.67V150.337H215.746V110.713H244.104L239.443 99.8363L225.846 100.613C223.515 100.613 221.573 99.8363 220.019 98.2824L216.912 95.1747L215.746 94.0093V95.1747H208.365C204.092 95.1747 200.596 98.6709 200.596 102.944V158.106C200.596 161.991 203.315 165.099 207.2 165.876H293.828C298.101 165.876 301.597 162.38 301.597 158.106V102.944C301.597 98.6709 298.101 95.1747 293.828 95.1747ZM271.297 229.584H179.23C174.957 229.584 171.461 233.081 171.461 237.354C171.461 241.627 174.957 245.123 179.23 245.123H271.297C275.57 245.123 279.066 241.627 279.066 237.354C279.066 233.081 275.57 229.584 271.297 229.584ZM225.069 268.82H179.23C175.346 268.82 172.238 271.539 171.461 275.035V276.589C171.461 279.308 173.015 281.639 174.957 283.193C176.122 283.97 177.676 284.358 179.23 284.358H225.458C229.731 284.358 232.839 280.862 232.839 276.589C232.839 272.316 229.342 268.82 225.069 268.82ZM322.575 189.961H241.773C237.5 189.961 234.004 193.457 234.004 197.73C234.004 202.003 237.5 205.499 241.773 205.499H322.575C326.848 205.499 330.344 202.003 330.344 197.73C330.344 193.457 326.848 189.961 322.575 189.961ZM322.575 268.82H256.535C252.262 268.82 248.766 272.316 248.766 276.589C248.766 280.862 252.262 284.358 256.535 284.358H322.575C326.848 284.358 330.344 280.862 330.344 276.589C330.344 272.316 326.848 268.82 322.575 268.82ZM322.575 229.584H302.374C298.101 229.584 294.605 233.081 294.605 237.354C294.605 241.627 298.101 245.123 302.374 245.123H322.575C326.848 245.123 330.344 241.627 330.344 237.354C330.344 233.081 326.848 229.584 322.575 229.584ZM322.575 229.584H302.374C298.101 229.584 294.605 233.081 294.605 237.354C294.605 241.627 298.101 245.123 302.374 245.123H322.575C326.848 245.123 330.344 241.627 330.344 237.354C330.344 233.081 326.848 229.584 322.575 229.584ZM322.575 268.82H256.535C252.262 268.82 248.766 272.316 248.766 276.589C248.766 280.862 252.262 284.358 256.535 284.358H322.575C326.848 284.358 330.344 280.862 330.344 276.589C330.344 272.316 326.848 268.82 322.575 268.82ZM322.575 189.961H241.773C237.5 189.961 234.004 193.457 234.004 197.73C234.004 202.003 237.5 205.499 241.773 205.499H322.575C326.848 205.499 330.344 202.003 330.344 197.73C330.344 193.457 326.848 189.961 322.575 189.961ZM225.069 268.82H179.23C175.346 268.82 172.238 271.539 171.461 275.035V276.589C171.461 279.308 173.015 281.639 174.957 283.193C176.122 283.97 177.676 284.358 179.23 284.358H225.458C229.731 284.358 232.839 280.862 232.839 276.589C232.839 272.316 229.342 268.82 225.069 268.82ZM271.297 229.584H179.23C174.957 229.584 171.461 233.081 171.461 237.354C171.461 241.627 174.957 245.123 179.23 245.123H271.297C275.57 245.123 279.066 241.627 279.066 237.354C279.066 233.081 275.57 229.584 271.297 229.584ZM210.696 189.961H179.23C174.957 189.961 171.461 193.457 171.461 197.73C171.461 199.284 171.849 200.838 173.015 202.392C174.18 204.334 176.511 205.499 179.23 205.499H210.696C214.969 205.499 218.465 202.003 218.465 197.73C218.465 193.457 214.969 189.961 210.696 189.961ZM134.168 102.556V217.542C136.887 217.542 139.218 217.542 141.937 217.153V102.944C139.218 102.944 136.887 102.556 134.168 102.556ZM179.23 268.82C175.346 268.82 172.238 271.539 171.461 275.035L186.223 268.82H179.23ZM210.696 189.961H179.23C174.957 189.961 171.461 193.457 171.461 197.73C171.461 199.284 171.849 200.838 173.015 202.392C174.18 204.334 176.511 205.499 179.23 205.499H210.696C214.969 205.499 218.465 202.003 218.465 197.73C218.465 193.457 214.969 189.961 210.696 189.961ZM293.828 95.1747H286.447V87.0169C286.447 67.5935 270.52 51.6663 251.097 51.6663C235.558 51.6663 222.739 61.378 217.688 74.9744L227.789 85.0745H231.285C232.45 75.3629 240.996 67.5935 251.097 67.5935C261.974 67.5935 270.908 76.5283 270.908 87.4053V95.1747H246.047C249.154 102.167 250.708 106.829 252.651 110.713H285.67V150.337H215.746V110.713H244.104L239.443 99.8363L225.846 100.613C223.515 100.613 221.573 99.8363 220.019 98.2824L216.912 95.1747L215.746 94.0093V95.1747H208.365C204.092 95.1747 200.596 98.6709 200.596 102.944V158.106C200.596 161.991 203.315 165.099 207.2 165.876H293.828C298.101 165.876 301.597 162.38 301.597 158.106V102.944C301.597 98.6709 298.101 95.1747 293.828 95.1747ZM271.297 229.584H179.23C174.957 229.584 171.461 233.081 171.461 237.354C171.461 241.627 174.957 245.123 179.23 245.123H271.297C275.57 245.123 279.066 241.627 279.066 237.354C279.066 233.081 275.57 229.584 271.297 229.584ZM225.069 268.82H209.919V269.985C209.919 273.093 207.977 276.2 205.257 277.366L188.553 284.358H225.458C229.731 284.358 232.839 280.862 232.839 276.589C232.839 272.316 229.342 268.82 225.069 268.82ZM322.575 189.961H241.773C237.5 189.961 234.004 193.457 234.004 197.73C234.004 202.003 237.5 205.499 241.773 205.499H322.575C326.848 205.499 330.344 202.003 330.344 197.73C330.344 193.457 326.848 189.961 322.575 189.961ZM322.575 268.82H256.535C252.262 268.82 248.766 272.316 248.766 276.589C248.766 280.862 252.262 284.358 256.535 284.358H322.575C326.848 284.358 330.344 280.862 330.344 276.589C330.344 272.316 326.848 268.82 322.575 268.82ZM322.575 229.584H302.374C298.101 229.584 294.605 233.081 294.605 237.354C294.605 241.627 298.101 245.123 302.374 245.123H322.575C326.848 245.123 330.344 241.627 330.344 237.354C330.344 233.081 326.848 229.584 322.575 229.584ZM322.575 229.584H302.374C298.101 229.584 294.605 233.081 294.605 237.354C294.605 241.627 298.101 245.123 302.374 245.123H322.575C326.848 245.123 330.344 241.627 330.344 237.354C330.344 233.081 326.848 229.584 322.575 229.584ZM322.575 268.82H256.535C252.262 268.82 248.766 272.316 248.766 276.589C248.766 280.862 252.262 284.358 256.535 284.358H322.575C326.848 284.358 330.344 280.862 330.344 276.589C330.344 272.316 326.848 268.82 322.575 268.82ZM271.297 229.584H179.23C174.957 229.584 171.461 233.081 171.461 237.354C171.461 241.627 174.957 245.123 179.23 245.123H271.297C275.57 245.123 279.066 241.627 279.066 237.354C279.066 233.081 275.57 229.584 271.297 229.584ZM322.575 189.961H241.773C237.5 189.961 234.004 193.457 234.004 197.73C234.004 202.003 237.5 205.499 241.773 205.499H322.575C326.848 205.499 330.344 202.003 330.344 197.73C330.344 193.457 326.848 189.961 322.575 189.961ZM210.696 189.961H179.23C174.957 189.961 171.461 193.457 171.461 197.73C171.461 199.284 171.849 200.838 173.015 202.392C174.18 204.334 176.511 205.499 179.23 205.499H210.696C214.969 205.499 218.465 202.003 218.465 197.73C218.465 193.457 214.969 189.961 210.696 189.961ZM134.168 102.556V217.542C136.887 217.542 139.218 217.542 141.937 217.153V102.944C139.218 102.944 136.887 102.556 134.168 102.556ZM179.23 268.82C175.346 268.82 172.238 271.539 171.461 275.035L186.223 268.82H179.23ZM210.696 189.961H179.23C174.957 189.961 171.461 193.457 171.461 197.73C171.461 199.284 171.849 200.838 173.015 202.392C174.18 204.334 176.511 205.499 179.23 205.499H210.696C214.969 205.499 218.465 202.003 218.465 197.73C218.465 193.457 214.969 189.961 210.696 189.961ZM293.828 95.1747H286.447V87.0169C286.447 67.5935 270.52 51.6663 251.097 51.6663C235.558 51.6663 222.739 61.378 217.688 74.9744L227.789 85.0745H231.285C232.45 75.3629 240.996 67.5935 251.097 67.5935C261.974 67.5935 270.908 76.5283 270.908 87.4053V95.1747H246.047C249.154 102.167 250.708 106.829 252.651 110.713H285.67V150.337H215.746V110.713H244.104L239.443 99.8363L225.846 100.613C223.515 100.613 221.573 99.8363 220.019 98.2824L216.912 95.1747L215.746 94.0093V95.1747H208.365C204.092 95.1747 200.596 98.6709 200.596 102.944V158.106C200.596 161.991 203.315 165.099 207.2 165.876H293.828C298.101 165.876 301.597 162.38 301.597 158.106V102.944C301.597 98.6709 298.101 95.1747 293.828 95.1747ZM271.297 229.584H179.23C174.957 229.584 171.461 233.081 171.461 237.354C171.461 241.627 174.957 245.123 179.23 245.123H271.297C275.57 245.123 279.066 241.627 279.066 237.354C279.066 233.081 275.57 229.584 271.297 229.584ZM225.069 268.82H209.919V269.985C209.919 273.093 207.977 276.2 205.257 277.366L188.553 284.358H225.458C229.731 284.358 232.839 280.862 232.839 276.589C232.839 272.316 229.342 268.82 225.069 268.82ZM322.575 189.961H241.773C237.5 189.961 234.004 193.457 234.004 197.73C234.004 202.003 237.5 205.499 241.773 205.499H322.575C326.848 205.499 330.344 202.003 330.344 197.73C330.344 193.457 326.848 189.961 322.575 189.961ZM322.575 268.82H256.535C252.262 268.82 248.766 272.316 248.766 276.589C248.766 280.862 252.262 284.358 256.535 284.358H322.575C326.848 284.358 330.344 280.862 330.344 276.589C330.344 272.316 326.848 268.82 322.575 268.82ZM322.575 229.584H302.374C298.101 229.584 294.605 233.081 294.605 237.354C294.605 241.627 298.101 245.123 302.374 245.123H322.575C326.848 245.123 330.344 241.627 330.344 237.354C330.344 233.081 326.848 229.584 322.575 229.584ZM322.575 229.584H302.374C298.101 229.584 294.605 233.081 294.605 237.354C294.605 241.627 298.101 245.123 302.374 245.123H322.575C326.848 245.123 330.344 241.627 330.344 237.354C330.344 233.081 326.848 229.584 322.575 229.584ZM322.575 268.82H256.535C252.262 268.82 248.766 272.316 248.766 276.589C248.766 280.862 252.262 284.358 256.535 284.358H322.575C326.848 284.358 330.344 280.862 330.344 276.589C330.344 272.316 326.848 268.82 322.575 268.82ZM322.575 189.961H241.773C237.5 189.961 234.004 193.457 234.004 197.73C234.004 202.003 237.5 205.499 241.773 205.499H322.575C326.848 205.499 330.344 202.003 330.344 197.73C330.344 193.457 326.848 189.961 322.575 189.961ZM210.696 189.961H179.23C174.957 189.961 171.461 193.457 171.461 197.73C171.461 199.284 171.849 200.838 173.015 202.392C174.18 204.334 176.511 205.499 179.23 205.499H210.696C214.969 205.499 218.465 202.003 218.465 197.73C218.465 193.457 214.969 189.961 210.696 189.961ZM134.168 102.556V217.542C136.887 217.542 139.218 217.542 141.937 217.153V102.944C139.218 102.944 136.887 102.556 134.168 102.556ZM179.23 268.82C175.346 268.82 172.238 271.539 171.461 275.035L186.223 268.82H179.23ZM210.696 189.961H179.23C174.957 189.961 171.461 193.457 171.461 197.73C171.461 199.284 171.849 200.838 173.015 202.392C174.18 204.334 176.511 205.499 179.23 205.499H210.696C214.969 205.499 218.465 202.003 218.465 197.73C218.465 193.457 214.969 189.961 210.696 189.961ZM293.828 95.1747H286.447V87.0169C286.447 67.5935 270.52 51.6663 251.097 51.6663C235.558 51.6663 222.739 61.378 217.688 74.9744L227.789 85.0745H231.285C232.45 75.3629 240.996 67.5935 251.097 67.5935C261.974 67.5935 270.908 76.5283 270.908 87.4053V95.1747H246.047C249.154 102.167 250.708 106.829 252.651 110.713H285.67V150.337H215.746V110.713H244.104L239.443 99.8363L225.846 100.613C223.515 100.613 221.573 99.8363 220.019 98.2824L216.912 95.1747L215.746 94.0093V95.1747H208.365C204.092 95.1747 200.596 98.6709 200.596 102.944V158.106C200.596 161.991 203.315 165.099 207.2 165.876H293.828C298.101 165.876 301.597 162.38 301.597 158.106V102.944C301.597 98.6709 298.101 95.1747 293.828 95.1747ZM271.297 229.584H179.23C174.957 229.584 171.461 233.081 171.461 237.354C171.461 241.627 174.957 245.123 179.23 245.123H271.297C275.57 245.123 279.066 241.627 279.066 237.354C279.066 233.081 275.57 229.584 271.297 229.584ZM225.069 268.82H209.919V269.985C209.919 273.093 207.977 276.2 205.257 277.366L188.553 284.358H225.458C229.731 284.358 232.839 280.862 232.839 276.589C232.839 272.316 229.342 268.82 225.069 268.82ZM322.575 189.961H241.773C237.5 189.961 234.004 193.457 234.004 197.73C234.004 202.003 237.5 205.499 241.773 205.499H322.575C326.848 205.499 330.344 202.003 330.344 197.73C330.344 193.457 326.848 189.961 322.575 189.961ZM322.575 268.82H256.535C252.262 268.82 248.766 272.316 248.766 276.589C248.766 280.862 252.262 284.358 256.535 284.358H322.575C326.848 284.358 330.344 280.862 330.344 276.589C330.344 272.316 326.848 268.82 322.575 268.82ZM322.575 229.584H302.374C298.101 229.584 294.605 233.081 294.605 237.354C294.605 241.627 298.101 245.123 302.374 245.123H322.575C326.848 245.123 330.344 241.627 330.344 237.354C330.344 233.081 326.848 229.584 322.575 229.584ZM322.575 229.584H302.374C298.101 229.584 294.605 233.081 294.605 237.354C294.605 241.627 298.101 245.123 302.374 245.123H322.575C326.848 245.123 330.344 241.627 330.344 237.354C330.344 233.081 326.848 229.584 322.575 229.584ZM322.575 268.82H256.535C252.262 268.82 248.766 272.316 248.766 276.589C248.766 280.862 252.262 284.358 256.535 284.358H322.575C326.848 284.358 330.344 280.862 330.344 276.589C330.344 272.316 326.848 268.82 322.575 268.82ZM322.575 189.961H241.773C237.5 189.961 234.004 193.457 234.004 197.73C234.004 202.003 237.5 205.499 241.773 205.499H322.575C326.848 205.499 330.344 202.003 330.344 197.73C330.344 193.457 326.848 189.961 322.575 189.961ZM210.696 189.961H179.23C174.957 189.961 171.461 193.457 171.461 197.73C171.461 199.284 171.849 200.838 173.015 202.392C174.18 204.334 176.511 205.499 179.23 205.499H210.696C214.969 205.499 218.465 202.003 218.465 197.73C218.465 193.457 214.969 189.961 210.696 189.961Z" fill="url(#paint4_linear_1093_793)"/>
<path d="M134.168 102.555V217.542C136.887 217.542 139.218 217.542 141.937 217.153V102.944C139.218 102.944 136.887 102.555 134.168 102.555ZM134.168 102.555V217.542C136.887 217.542 139.218 217.542 141.937 217.153V102.944C139.218 102.944 136.887 102.555 134.168 102.555ZM134.168 102.555V217.542C136.887 217.542 139.218 217.542 141.937 217.153V102.944C139.218 102.944 136.887 102.555 134.168 102.555ZM134.168 102.555V217.542C136.887 217.542 139.218 217.542 141.937 217.153V102.944C139.218 102.944 136.887 102.555 134.168 102.555ZM134.168 102.555V217.542C136.887 217.542 139.218 217.542 141.937 217.153V102.944C139.218 102.944 136.887 102.555 134.168 102.555ZM134.168 102.555V217.542C136.887 217.542 139.218 217.542 141.937 217.153V102.944C139.218 102.944 136.887 102.555 134.168 102.555ZM134.168 102.555V217.542C136.887 217.542 139.218 217.542 141.937 217.153V102.944C139.218 102.944 136.887 102.555 134.168 102.555ZM134.168 102.555V217.542C136.887 217.542 139.218 217.542 141.937 217.153V102.944C139.218 102.944 136.887 102.555 134.168 102.555ZM134.168 102.555V217.542C136.887 217.542 139.218 217.542 141.937 217.153V102.944C139.218 102.944 136.887 102.555 134.168 102.555ZM374.629 69.9241C374.629 69.5357 374.241 69.1472 373.852 69.1472L372.687 67.9818L307.813 2.33081C306.259 0.776936 304.316 0 302.374 0H134.168C129.895 0 126.398 3.49621 126.398 7.76935V320.874C126.398 325.147 129.895 328.643 134.168 328.643H367.637C371.91 328.643 375.406 325.147 375.406 320.874V73.0319C375.406 71.8665 375.018 70.7011 374.629 69.9241ZM359.867 313.105H141.937V15.5387H299.266L302.374 18.6464L359.867 76.1396V313.105ZM134.168 102.555V217.542C136.887 217.542 139.218 217.542 141.937 217.153V102.944C139.218 102.944 136.887 102.555 134.168 102.555ZM134.168 102.555V217.542C136.887 217.542 139.218 217.542 141.937 217.153V102.944C139.218 102.944 136.887 102.555 134.168 102.555ZM134.168 102.555V217.542C136.887 217.542 139.218 217.542 141.937 217.153V102.944C139.218 102.944 136.887 102.555 134.168 102.555ZM134.168 102.555V217.542C136.887 217.542 139.218 217.542 141.937 217.153V102.944C139.218 102.944 136.887 102.555 134.168 102.555ZM134.168 102.555V217.542C136.887 217.542 139.218 217.542 141.937 217.153V102.944C139.218 102.944 136.887 102.555 134.168 102.555ZM134.168 102.555V217.542C136.887 217.542 139.218 217.542 141.937 217.153V102.944C139.218 102.944 136.887 102.555 134.168 102.555ZM134.168 102.555V217.542C136.887 217.542 139.218 217.542 141.937 217.153V102.944C139.218 102.944 136.887 102.555 134.168 102.555ZM134.168 102.555V217.542C136.887 217.542 139.218 217.542 141.937 217.153V102.944C139.218 102.944 136.887 102.555 134.168 102.555Z" fill="url(#paint5_linear_1093_793)"/>
<path d="M302.375 7.76953V73.0321H367.638L302.375 7.76953ZM310.144 65.2627V26.416L348.991 65.2627H310.144Z" fill="url(#paint6_linear_1093_793)"/>
<path d="M374.63 69.9233C374.63 69.5348 374.241 69.1463 373.853 69.1463L372.687 67.9809L307.813 2.32994C305.483 0.387607 301.986 -0.389326 299.267 0.776076C296.548 1.94148 294.605 4.66075 294.605 7.76849V73.031C294.605 77.3041 298.102 80.8004 302.375 80.8004H367.637C370.745 80.8004 373.464 78.858 374.63 76.1387C375.407 73.8079 375.407 71.8656 374.63 69.9233ZM310.144 65.2617V26.4149L348.991 65.2617H310.144ZM454.266 329.031C453.489 329.808 452.712 330.973 452.323 332.139L444.942 329.031L442.223 327.866L437.561 325.923C437.95 325.146 437.95 324.758 438.338 323.981L419.304 304.946H386.284L375.018 300.284L367.249 297.177H422.411L448.439 323.204L454.266 329.031Z" fill="url(#paint7_linear_1093_793)"/>
<path d="M462.424 326.312H460.87C458.539 326.312 456.208 327.089 454.266 329.031C453.489 329.808 452.712 330.974 452.323 332.139C451.546 333.693 451.546 335.635 451.935 337.578L444.943 330.197L443 328.254L439.116 324.37L420.081 305.335H367.638C363.364 305.335 359.868 301.839 359.868 297.566C359.868 293.292 363.364 289.796 367.638 289.796H422.8C424.742 289.796 426.685 290.573 428.238 292.127L449.604 313.493L462.424 326.312ZM454.266 65.262L448.439 71.089L422.411 97.1164H367.638L375.407 94.0086L386.672 89.347H419.692L438.727 70.3121C438.339 69.5352 437.95 69.1467 437.95 68.3698L442.612 66.4274L445.331 65.262L452.712 62.1543C452.712 63.3197 453.489 64.4851 454.266 65.262Z" fill="url(#paint8_linear_1093_793)"/>
<path d="M463.2 67.5943L455.431 75.3636L449.604 81.1907L428.238 102.556C427.073 103.722 424.742 104.887 422.8 104.887H367.638C363.364 104.887 359.868 101.391 359.868 97.1178C359.868 92.8447 363.364 89.3485 367.638 89.3485H419.692L438.727 70.3136L442.223 66.8174L444.166 64.4866L451.158 57.4941C450.77 59.4365 451.158 60.9903 451.935 62.5442C452.323 63.7096 453.1 64.4866 453.877 65.2635C456.597 67.5943 460.093 68.3712 463.2 67.5943ZM367.638 147.23H399.103ZM399.103 154.999H367.638C363.364 154.999 359.868 151.503 359.868 147.23C359.868 142.957 363.364 139.461 367.638 139.461H399.103C403.377 139.461 406.873 142.957 406.873 147.23C406.873 151.503 403.377 154.999 399.103 154.999ZM367.638 247.843H399.103ZM399.103 255.613H367.638C363.364 255.613 359.868 252.116 359.868 247.843C359.868 243.57 363.364 240.074 367.638 240.074H399.103C403.377 240.074 406.873 243.57 406.873 247.843C406.873 252.116 403.377 255.613 399.103 255.613ZM455.82 205.5H367.638C363.364 205.5 359.868 202.004 359.868 197.731C359.868 193.458 363.364 189.962 367.638 189.962H455.82C455.431 190.35 455.043 190.738 454.266 191.127C452.323 192.681 451.546 195.4 451.546 197.731C451.546 200.062 452.323 202.392 454.266 204.335C454.654 204.723 455.043 205.112 455.82 205.5ZM469.804 200.062C470.193 198.508 470.193 196.565 469.804 195.012C470.193 195.789 470.193 196.565 470.193 197.342C470.193 198.508 469.804 199.285 469.804 200.062Z" fill="url(#paint9_linear_1093_793)"/>
<path d="M460.869 41.9551C451.546 41.9551 443.776 49.7244 443.776 59.0476C443.776 60.99 444.165 62.5438 444.553 64.4862C444.553 64.8747 444.942 65.2631 444.942 65.6516C445.719 67.5939 446.884 69.5363 448.826 71.4786C450.769 73.4209 453.1 74.5863 455.43 75.7517C456.984 76.1402 458.927 76.5287 460.869 76.5287C470.192 76.5287 477.962 68.7593 477.962 59.4361C477.962 49.7244 470.192 41.9551 460.869 41.9551ZM467.473 65.2631C466.307 66.4285 464.754 67.2055 463.2 67.5939C460.092 68.3709 456.984 67.5939 454.653 65.2631C453.877 64.4862 453.1 63.3208 452.711 62.5438C451.934 60.99 451.934 59.0476 451.934 57.4938C452.323 55.5514 453.1 53.6091 454.265 52.4437C455.819 50.8898 458.538 49.7244 460.869 49.7244C463.588 49.7244 465.919 50.8898 467.473 52.4437C470.969 55.5514 470.969 61.7669 467.473 65.2631Z" fill="url(#paint10_linear_1093_793)"/>
<path d="M478.351 41.1778C473.689 36.5161 467.474 33.7969 460.87 33.7969C454.266 33.7969 448.05 36.5161 443.389 41.1778C436.008 48.5586 434.065 59.4357 437.95 68.3705C438.339 69.1474 438.339 69.5359 438.727 70.3128C439.892 72.6436 441.446 74.5859 443.389 76.5283C445.331 78.4706 447.273 80.0245 449.604 81.1899C453.1 83.1322 456.985 83.9092 460.87 83.9092C467.474 83.9092 474.078 81.1899 478.351 76.5283C483.012 71.8667 485.732 65.2627 485.732 58.6588C485.732 52.4433 483.012 45.8394 478.351 41.1778ZM467.474 65.2627C466.308 66.4281 464.754 67.2051 463.201 67.5935C460.093 68.3705 456.985 67.5935 454.654 65.2627C453.877 64.4858 453.1 63.3204 452.712 62.5435C451.935 60.9896 451.935 59.0472 451.935 57.4934C452.323 55.551 453.1 53.6087 454.266 52.4433C455.82 50.8894 458.539 49.724 460.87 49.724C463.589 49.724 465.92 50.8894 467.474 52.4433C470.97 55.551 470.97 61.7665 467.474 65.2627ZM460.87 180.638C454.266 180.638 448.439 184.522 445.719 189.961C444.554 192.292 443.777 195.011 443.777 197.73C443.777 200.449 444.554 203.169 445.719 205.499C448.439 210.938 454.266 214.823 460.87 214.823C470.193 214.823 477.962 207.053 477.962 197.73C477.962 188.407 470.193 180.638 460.87 180.638ZM469.804 200.449C469.416 202.003 468.639 203.169 467.474 204.334C464.366 207.442 459.316 207.83 455.82 205.499C455.431 205.111 454.654 204.723 454.266 204.334C452.323 202.392 451.546 200.061 451.546 197.73C451.546 195.399 452.323 193.068 454.266 191.126C454.654 190.738 455.043 190.349 455.82 189.961C457.373 188.795 459.316 188.407 460.87 188.407C463.201 188.407 465.92 189.184 467.474 191.126C468.251 192.292 469.028 193.457 469.416 194.622V195.011C470.193 196.953 470.193 198.507 469.804 200.449Z" fill="url(#paint11_linear_1093_793)"/>
<path d="M478.739 179.86C469.028 170.148 453.1 170.148 443.389 179.86C440.281 182.968 438.339 186.464 437.173 189.96C436.396 192.679 436.008 195.01 436.008 197.729C436.008 200.449 436.396 203.168 437.173 205.499C438.339 208.995 440.281 212.491 443 215.21C447.662 220.261 454.266 222.591 460.481 222.591C467.085 222.591 473.301 220.261 478.351 215.21C483.012 210.549 485.732 203.945 485.732 197.729C486.12 191.125 483.401 184.522 478.739 179.86ZM455.82 205.499C455.431 205.11 454.654 204.722 454.266 204.333C452.323 202.391 451.547 200.06 451.547 197.729C451.547 195.399 452.323 193.068 454.266 191.125C454.654 190.737 455.043 190.349 455.82 189.96C457.374 188.795 459.316 188.406 460.87 188.406C463.201 188.406 465.92 189.183 467.474 191.125C468.251 192.291 469.028 193.456 469.416 194.622V195.01C469.804 196.564 469.804 198.506 469.416 200.06C469.028 201.614 468.251 202.779 467.085 203.945C464.366 207.441 459.316 207.83 455.82 205.499ZM460.87 318.543C458.927 318.543 457.374 318.931 455.431 319.32C452.712 320.097 450.381 321.651 448.827 323.593C447.273 325.147 445.72 327.089 444.943 329.42C444.943 329.808 444.554 330.197 444.554 330.585C444.166 332.139 443.777 334.081 443.777 336.024C443.777 345.347 451.547 353.116 460.87 353.116C470.193 353.116 477.962 345.347 477.962 336.024C477.962 326.701 470.193 318.543 460.87 318.543ZM467.474 342.239C463.977 345.735 457.762 345.735 454.266 342.239C453.1 341.074 452.323 339.132 451.935 337.578C451.547 335.635 451.935 334.081 452.323 332.139C452.712 330.974 453.489 329.808 454.266 329.031C456.208 327.089 458.539 326.312 460.87 326.312H462.424C464.366 326.701 466.308 327.478 467.474 329.031C470.97 332.528 470.97 338.743 467.474 342.239Z" fill="url(#paint12_linear_1093_793)"/>
<path d="M478.739 317.766C470.969 309.996 458.927 308.442 449.604 313.492C447.273 314.658 445.33 316.212 443.777 317.766C441.834 319.708 440.28 321.65 439.115 323.981C438.726 324.758 438.726 325.147 438.338 325.923C434.842 334.858 436.784 345.735 443.777 352.728C448.438 357.778 455.042 360.109 461.258 360.109C467.862 360.109 474.077 357.778 479.127 352.728C483.789 348.066 486.508 341.462 486.508 335.247C486.12 329.031 483.4 322.427 478.739 317.766ZM467.473 342.239C463.977 345.735 457.761 345.735 454.265 342.239C453.1 341.074 452.323 339.131 451.934 337.577C451.546 335.635 451.934 334.081 452.323 332.139C452.711 330.974 453.488 329.808 454.265 329.031C456.208 327.089 458.538 326.312 460.869 326.312H462.423C464.365 326.7 466.308 327.477 467.473 329.031C470.969 332.527 470.969 338.743 467.473 342.239ZM330.344 197.729C330.344 202.002 326.848 205.499 322.575 205.499H241.774C237.5 205.499 234.004 202.002 234.004 197.729C234.004 193.456 237.5 189.96 241.774 189.96H322.575C326.848 189.96 330.344 193.456 330.344 197.729ZM218.465 197.729C218.465 202.002 214.969 205.499 210.696 205.499H179.23C176.511 205.499 174.18 204.333 173.015 202.391C172.238 201.225 171.461 199.672 171.461 197.729C171.461 193.456 174.957 189.96 179.23 189.96H210.696C214.969 189.96 218.465 193.456 218.465 197.729ZM330.344 237.353C330.344 241.626 326.848 245.122 322.575 245.122H302.374C298.101 245.122 294.605 241.626 294.605 237.353C294.605 233.08 298.101 229.584 302.374 229.584H322.575C326.848 229.584 330.344 233.08 330.344 237.353ZM279.066 237.353C279.066 241.626 275.57 245.122 271.297 245.122H179.23C174.957 245.122 171.461 241.626 171.461 237.353C171.461 233.08 174.957 229.584 179.23 229.584H271.297C275.57 229.584 279.066 233.08 279.066 237.353ZM330.344 276.588C330.344 280.861 326.848 284.357 322.575 284.357H256.535C252.262 284.357 248.766 280.861 248.766 276.588C248.766 272.315 252.262 268.819 256.535 268.819H322.575C326.848 268.819 330.344 272.315 330.344 276.588ZM232.839 276.588C232.839 280.861 229.731 284.357 225.458 284.357H179.23C177.676 284.357 176.123 283.969 174.957 283.192C173.015 281.638 171.461 279.307 171.461 276.588V275.034C172.238 271.538 175.346 268.819 179.23 268.819H225.069C229.343 268.819 232.839 272.315 232.839 276.588ZM293.828 95.1738H208.365C204.092 95.1738 200.596 98.67 200.596 102.943V158.106C200.596 161.99 203.315 165.098 207.2 165.875H293.828C298.101 165.875 301.598 162.379 301.598 158.106V102.943C301.598 98.67 298.101 95.1738 293.828 95.1738ZM285.67 150.336H215.746V110.713H285.67V150.336Z" fill="url(#paint13_linear_1093_793)"/>
<path d="M251.097 51.666C235.558 51.666 222.739 61.3777 217.688 74.9741C216.911 76.9164 216.523 78.8587 216.135 80.8011C216.135 81.578 215.746 81.9665 215.746 82.7434V102.944C215.746 107.217 219.242 110.713 223.515 110.713H278.678C282.951 110.713 286.447 107.217 286.447 102.944V87.0166C286.447 67.5932 270.52 51.666 251.097 51.666ZM231.285 95.1744V85.0742C232.45 75.3625 240.996 67.5932 251.097 67.5932C261.974 67.5932 270.908 76.5279 270.908 87.405V95.1744H231.285Z" fill="url(#paint14_linear_1093_793)"/>
<defs>
<linearGradient id="paint0_linear_1093_793" x1="16.1905" y1="49.8081" x2="258.654" y2="327.224" gradientUnits="userSpaceOnUse">
<stop stop-color="#1BA2D7"/>
<stop offset="1" stop-color="#8D3DFA"/>
</linearGradient>
<linearGradient id="paint1_linear_1093_793" x1="9.54122" y1="43.9033" x2="264.414" y2="336.25" gradientUnits="userSpaceOnUse">
<stop stop-color="#1BA2D7"/>
<stop offset="1" stop-color="#8D3DFA"/>
</linearGradient>
<linearGradient id="paint2_linear_1093_793" x1="73.3129" y1="103.587" x2="198.393" y2="239.446" gradientUnits="userSpaceOnUse">
<stop stop-color="#1BA2D7"/>
<stop offset="1" stop-color="#8D3DFA"/>
</linearGradient>
<linearGradient id="paint3_linear_1093_793" x1="66.3482" y1="96.8186" x2="205.476" y2="256.489" gradientUnits="userSpaceOnUse">
<stop stop-color="#1BA2D7"/>
<stop offset="1" stop-color="#8D3DFA"/>
</linearGradient>
<linearGradient id="paint4_linear_1093_793" x1="142.498" y1="27.9502" x2="439.951" y2="282.499" gradientUnits="userSpaceOnUse">
<stop stop-color="#1BA2D7"/>
<stop offset="1" stop-color="#8D3DFA"/>
</linearGradient>
<linearGradient id="paint5_linear_1093_793" x1="135.283" y1="21.1822" x2="448.232" y2="293.31" gradientUnits="userSpaceOnUse">
<stop stop-color="#1BA2D7"/>
<stop offset="1" stop-color="#8D3DFA"/>
</linearGradient>
<linearGradient id="paint6_linear_1093_793" x1="304.704" y1="11.9759" x2="366.867" y2="83.3182" gradientUnits="userSpaceOnUse">
<stop stop-color="#1BA2D7"/>
<stop offset="1" stop-color="#8D3DFA"/>
</linearGradient>
<linearGradient id="paint7_linear_1093_793" x1="300.302" y1="21.6212" x2="570.375" y2="170.718" gradientUnits="userSpaceOnUse">
<stop stop-color="#1BA2D7"/>
<stop offset="1" stop-color="#8D3DFA"/>
</linearGradient>
<linearGradient id="paint8_linear_1093_793" x1="363.527" y1="79.9062" x2="554.924" y2="161.697" gradientUnits="userSpaceOnUse">
<stop stop-color="#1BA2D7"/>
<stop offset="1" stop-color="#8D3DFA"/>
</linearGradient>
<linearGradient id="paint9_linear_1093_793" x1="363.805" y1="70.2635" x2="536.689" y2="180.752" gradientUnits="userSpaceOnUse">
<stop stop-color="#1BA2D7"/>
<stop offset="1" stop-color="#8D3DFA"/>
</linearGradient>
<linearGradient id="paint10_linear_1093_793" x1="444.996" y1="44.1835" x2="477.977" y2="81.6087" gradientUnits="userSpaceOnUse">
<stop stop-color="#1BA2D7"/>
<stop offset="1" stop-color="#8D3DFA"/>
</linearGradient>
<linearGradient id="paint11_linear_1093_793" x1="437.768" y1="45.4646" x2="537.617" y2="76.9498" gradientUnits="userSpaceOnUse">
<stop stop-color="#1BA2D7"/>
<stop offset="1" stop-color="#8D3DFA"/>
</linearGradient>
<linearGradient id="paint12_linear_1093_793" x1="437.783" y1="184.213" x2="537.62" y2="215.793" gradientUnits="userSpaceOnUse">
<stop stop-color="#1BA2D7"/>
<stop offset="1" stop-color="#8D3DFA"/>
</linearGradient>
<linearGradient id="paint13_linear_1093_793" x1="182.702" y1="112.25" x2="425.613" y2="443.76" gradientUnits="userSpaceOnUse">
<stop stop-color="#1BA2D7"/>
<stop offset="1" stop-color="#8D3DFA"/>
</linearGradient>
<linearGradient id="paint14_linear_1093_793" x1="218.269" y1="55.4718" x2="272.294" y2="129.712" gradientUnits="userSpaceOnUse">
<stop stop-color="#1BA2D7"/>
<stop offset="1" stop-color="#8D3DFA"/>
</linearGradient>
</defs>
</svg>
