<svg width="512" height="512" viewBox="0 0 512 512" fill="none" xmlns="http://www.w3.org/2000/svg">
<path d="M280.188 175.759C229.178 119.647 143.311 116.248 88.0498 166.407C85.4993 168.959 82.0997 171.508 79.5481 174.908L76.1475 180.86L80.3983 185.963L81.2485 186.809C131.408 242.07 217.275 245.474 272.536 195.311C275.087 192.763 278.485 190.213 281.038 186.809L285.289 180.862L280.188 175.759ZM162.866 180.86C162.866 171.509 170.517 163.857 179.869 163.857C189.218 163.857 196.872 171.509 196.872 180.86C196.872 190.212 189.218 197.864 179.869 197.864C170.517 197.864 162.866 190.213 162.866 180.86ZM168.815 148.552C150.961 154.505 141.611 173.21 146.71 191.06C150.113 201.264 157.765 209.766 168.815 213.165C142.46 210.616 116.954 199.562 97.4006 180.86C117.805 162.156 142.46 151.105 168.815 148.552ZM190.919 213.165C208.775 207.217 218.127 188.512 213.026 170.656C209.625 160.457 201.97 151.956 190.92 148.552C217.275 151.106 242.78 162.155 262.334 180.862C241.93 199.562 217.275 210.617 190.92 213.166L190.919 213.165Z" fill="url(#paint0_linear_1091_788)"/>
<path d="M179.868 36.332C99.9494 36.332 35.3398 100.945 35.3398 180.861C35.3398 260.776 99.9494 325.389 179.868 325.389C259.784 325.389 324.397 260.775 324.397 180.861C324.397 100.946 259.784 36.332 179.868 36.332ZM179.868 308.386C109.302 308.386 52.3432 251.422 52.3432 180.861C52.3432 110.293 109.302 53.3354 179.868 53.3354C250.431 53.3354 307.394 110.293 307.394 180.861C307.394 251.422 250.431 308.386 179.868 308.386ZM468.926 367.898V87.3421C468.926 63.5342 450.221 44.8337 426.417 44.8337H332.899V61.8371H426.417C440.868 61.8371 451.922 72.8871 451.922 87.3421V367.898H468.926ZM43.8415 342.393V427.409C43.8415 451.212 62.5431 469.918 86.3499 469.918H383.909V452.914H86.3499C71.896 452.914 60.8449 441.859 60.8449 427.409V342.393H43.8415Z" fill="url(#paint1_linear_1091_788)"/>
<path d="M358.404 87.3418H434.919V104.345H358.404V87.3418ZM375.408 129.85H434.919V146.854H375.408V129.85ZM375.408 172.359H434.919V189.362H375.408V172.359ZM375.408 214.867H434.919V231.87H375.408V214.867ZM375.408 257.375H434.919V274.379H375.408V257.375ZM383.909 299.884H434.919V316.887H383.909V299.884ZM77.8486 376.399H307.394V393.402H77.8486V376.399ZM77.8486 410.406H341.401V427.409H77.8486V410.406ZM120.357 248.874H239.381V265.877H120.357V248.874ZM120.357 95.8435H239.381V112.847H120.357V95.8435Z" fill="url(#paint2_linear_1091_788)"/>
<path d="M411.964 358.545C406.863 353.443 400.913 350.894 394.11 350.894H388.16L326.947 282.03C383.058 200.413 363.502 89.0397 281.889 32.0805C200.273 -24.8818 88.0485 -3.6276 31.9363 77.1384C-24.1716 157.904 -4.61881 270.128 76.9984 327.088C141.611 372.148 228.326 369.596 290.391 320.286L349.902 387.45V394.253C349.902 401.054 352.452 407.853 357.554 412.104L445.97 500.524C461.271 515.826 485.078 515.826 500.381 500.524C515.685 485.219 515.685 461.417 500.381 446.11L411.964 358.545ZM18.3368 180.86C18.3368 91.5923 90.6011 19.328 179.869 19.328C269.136 19.328 341.401 91.5923 341.401 180.86C341.401 270.128 269.136 342.392 179.869 342.392C90.6011 342.392 18.3368 270.128 18.3368 180.86ZM303.143 310.083C307.394 305.833 312.492 300.735 315.896 296.484L372.004 359.396L358.404 372.149L303.143 310.083ZM473.177 495.423C467.225 495.423 462.122 492.87 457.872 489.47L369.454 401.052C367.754 399.352 366.906 397.653 366.906 395.101V388.3L387.31 367.897H394.109C396.662 367.897 398.36 368.748 400.062 370.446L488.479 458.864C496.98 467.366 496.98 480.968 488.479 489.47C484.228 492.871 478.275 495.423 473.177 495.423Z" fill="url(#paint3_linear_1091_788)"/>
<defs>
<linearGradient id="paint0_linear_1091_788" x1="83.6096" y1="137.51" x2="151.454" y2="300.953" gradientUnits="userSpaceOnUse">
<stop stop-color="#1BA2D7"/>
<stop offset="1" stop-color="#8D3DFA"/>
</linearGradient>
<linearGradient id="paint1_linear_1091_788" x1="50.8101" y1="64.2781" x2="463.806" y2="538.256" gradientUnits="userSpaceOnUse">
<stop stop-color="#1BA2D7"/>
<stop offset="1" stop-color="#8D3DFA"/>
</linearGradient>
<linearGradient id="paint2_linear_1091_788" x1="90.5888" y1="109.26" x2="411.978" y2="496.547" gradientUnits="userSpaceOnUse">
<stop stop-color="#1BA2D7"/>
<stop offset="1" stop-color="#8D3DFA"/>
</linearGradient>
<linearGradient id="paint3_linear_1091_788" x1="18.263" y1="33.0002" x2="505.969" y2="592.565" gradientUnits="userSpaceOnUse">
<stop stop-color="#1BA2D7"/>
<stop offset="1" stop-color="#8D3DFA"/>
</linearGradient>
</defs>
</svg>
