<svg width="512" height="512" viewBox="0 0 512 512" fill="none" xmlns="http://www.w3.org/2000/svg">
<path d="M72 72H88V104H72V72ZM72 136H88V168H72V136ZM32 112H64V128H32V112ZM96 112H128V128H96V112ZM448 176H464V192H448V176ZM448 144H464V160H448V144ZM432 160H448V176H432V160ZM464 160H480V176H464V160ZM428.418 240.848L444.418 232.848L451.574 247.16L435.574 255.156L428.418 240.848ZM52.426 255.152L59.578 240.844L75.578 248.844L68.422 263.152L52.426 255.152ZM344.168 269.664L332.848 258.336C333.85 257.34 334.645 256.156 335.188 254.852C335.73 253.547 336.01 252.149 336.01 250.736C336.01 249.323 335.73 247.925 335.188 246.62C334.645 245.316 333.85 244.132 332.848 243.136C330.806 241.171 328.082 240.074 325.248 240.074C322.414 240.074 319.69 241.171 317.648 243.136L306.32 231.816C316.906 221.715 333.566 221.715 344.152 231.816C354.594 242.266 354.594 259.199 344.152 269.648L344.168 269.664Z" fill="url(#paint0_linear_1145_753)"/>
<path d="M488 32H464V48H488C490.122 48 492.157 48.8429 493.657 50.3431C495.157 51.8434 496 53.8783 496 56V288H410.543C422.797 262.387 413.84 231.66 389.743 216.64C392.257 207.27 392.607 197.451 390.768 187.926C388.928 178.401 384.948 169.419 379.127 161.658C373.305 153.898 365.796 147.562 357.166 143.13C348.536 138.699 339.012 136.287 329.313 136.078C316.629 106.887 287.832 88.004 256.003 88.004C224.174 88.004 195.379 106.887 182.695 136.078C163.043 136.504 144.675 145.934 132.879 161.656C121.083 177.378 117.164 197.652 122.258 216.641C98.16 231.66 89.203 262.387 101.457 288H16V56C16 53.8783 16.8429 51.8434 18.3431 50.3431C19.8434 48.8429 21.8783 48 24 48H48V32H24C10.746 32 0 42.746 0 56V376C0 389.254 10.746 400 24 400H192V440C192 453.254 181.254 464 168 464H128V512H384V464H344C330.746 464 320 453.254 320 440V400H488C501.254 400 512 389.254 512 376V56C512 42.746 501.254 32 488 32ZM152 224V208C146.946 208.012 141.918 208.715 137.055 210.09C135.701 203.629 135.688 196.958 137.019 190.492C138.35 184.026 140.995 177.903 144.791 172.502C148.587 167.101 153.452 162.537 159.084 159.094C164.717 155.651 170.997 153.403 177.535 152.488C176.519 157.596 176.005 162.792 176 168H192C192 132.652 220.652 104 256 104C291.348 104 320 132.652 320 168H336C335.995 162.787 335.481 157.586 334.465 152.473C341.001 153.391 347.278 155.641 352.909 159.084C358.54 162.526 363.403 167.089 367.199 172.488C370.994 177.888 373.64 184.01 374.973 190.475C376.305 196.94 376.296 203.609 374.945 210.07C370.081 208.704 365.053 208.007 360 208V224C382.082 224.027 399.973 241.918 400 264C399.962 272.694 397.05 281.132 391.719 288H120.28C114.949 281.132 112.038 272.694 112 264C112.027 241.918 129.918 224.027 152 224ZM368 480V496H144V480H368ZM256 448.336C269.254 448.336 280 437.59 280 424.336V400H304V440C304.031 448.683 306.914 457.116 312.207 464H199.793C205.086 457.116 207.969 448.683 208 440V400H232V424.336C232 437.59 242.746 448.336 256 448.336ZM248 424.336V400H264V424.336C264 426.458 263.157 428.493 261.657 429.993C260.157 431.493 258.122 432.336 256 432.336C253.878 432.336 251.843 431.493 250.343 429.993C248.843 428.493 248 426.458 248 424.336ZM496 376C496 378.122 495.157 380.157 493.657 381.657C492.157 383.157 490.122 384 488 384H24C21.8783 384 19.8434 383.157 18.3431 381.657C16.8429 380.157 16 378.122 16 376V304H496V376Z" fill="url(#paint1_linear_1145_753)"/>
<path d="M280 320H232V368H280V320ZM264 352H248V336H264V352ZM197.887 258.344C190.031 250.484 190.031 237.746 197.887 229.887C205.747 222.031 218.484 222.031 226.344 229.887L237.656 218.574C233.951 214.899 229.486 212.082 224.574 210.32C227.676 194.184 242.492 183.016 258.855 184.48C275.223 185.945 287.816 199.57 288 216H304C303.824 191.113 284.652 170.488 259.844 168.496C235.035 166.504 212.82 183.805 208.672 208.344C200.337 209.067 192.519 212.687 186.574 218.574C172.496 232.691 172.496 255.539 186.574 269.656L197.887 258.344ZM392 8H408V40H392V8ZM392 72H408V104H392V72ZM352 48H384V64H352V48ZM416 48H448V64H416V48ZM96.0002 32H112V48H96.0002V32ZM96.0002 0H112V16H96.0002V0ZM80.0002 16H96.0002V32H80.0002V16ZM112 16H128V32H112V16ZM338.348 114.336L370.348 82.336L381.66 93.648L349.66 125.652L338.348 114.336ZM240 32H256V72H240V32ZM240 0H256V16H240V0ZM410.348 202.344L426.344 186.344L437.66 197.656L421.66 213.656L410.348 202.344ZM122.344 53.656L133.656 42.34L189.652 98.34L178.34 109.652L122.344 53.656ZM51.2002 198.398L60.8002 185.602L92.8002 209.602L83.2002 222.398L51.2002 198.398ZM288.41 69.469L296.41 45.473L311.59 50.535L303.586 74.531L288.41 69.469Z" fill="url(#paint2_linear_1145_753)"/>
<defs>
<linearGradient id="paint0_linear_1145_753" x1="47.9845" y1="84.7401" x2="175.307" y2="415.923" gradientUnits="userSpaceOnUse">
<stop stop-color="#1BA2D7"/>
<stop offset="1" stop-color="#8D3DFA"/>
</linearGradient>
<linearGradient id="paint1_linear_1145_753" x1="18.2681" y1="62.9376" x2="470.535" y2="616.588" gradientUnits="userSpaceOnUse">
<stop stop-color="#1BA2D7"/>
<stop offset="1" stop-color="#8D3DFA"/>
</linearGradient>
<linearGradient id="paint2_linear_1145_753" x1="65.3579" y1="23.7188" x2="411.329" y2="451.849" gradientUnits="userSpaceOnUse">
<stop stop-color="#1BA2D7"/>
<stop offset="1" stop-color="#8D3DFA"/>
</linearGradient>
</defs>
</svg>
