<svg width="452" height="245" viewBox="0 0 452 245" fill="none" xmlns="http://www.w3.org/2000/svg">
<path d="M421.695 98.7193L432.532 103.43C435.234 104.59 437.487 105.683 438.551 106.57C439.62 107.435 439.677 107.469 439.677 108.681V176.356C439.677 177.567 439.615 177.567 438.551 178.455C437.487 179.342 435.234 180.44 432.532 181.595L421.695 186.334C423.441 179.819 424.336 173.105 424.357 166.36V118.659C424.335 111.925 423.44 105.223 421.695 98.7193ZM29.8325 98.7193C28.0896 105.225 27.1947 111.929 27.1701 118.665V166.366C27.1701 173.272 28.1543 179.974 29.8325 186.34L18.9952 181.601C16.2873 180.446 14.0402 179.348 12.9764 178.46C11.8784 177.573 11.8158 177.573 11.8158 176.361V108.681C11.8158 107.469 11.9068 107.435 12.9764 106.57C14.0402 105.683 16.2873 104.59 18.9952 103.43L29.8325 98.7193ZM345.987 52.0818C382.965 52.0818 412.507 81.6811 412.507 118.659V166.36C412.548 175.111 410.857 183.782 407.529 191.876C404.202 199.969 399.304 207.323 393.12 213.513C386.936 219.704 379.587 224.609 371.497 227.945C363.407 231.28 354.737 232.981 345.987 232.949H279.586C254.578 232.949 254.669 193.007 230.281 192.028L221.184 192.057C196.83 192.148 197.183 232.949 171.907 232.949H105.512C96.7608 232.979 88.0902 231.278 79.9999 227.942C71.9097 224.606 64.5598 219.701 58.3739 213.511C52.1881 207.321 47.2887 199.968 43.9582 191.875C40.6277 183.783 38.932 175.111 38.9689 166.36V118.659C38.9689 78.0345 73.1819 52.0818 102.315 52.0818H345.987ZM115.024 11.7817H336.509C351.518 11.7237 366.101 16.7692 377.864 26.0902C389.628 35.4112 397.874 48.454 401.249 63.0784C393.991 55.8285 385.375 50.0814 375.893 46.1659C366.412 42.2504 356.251 40.2436 345.993 40.2603H105.512C95.2583 40.247 85.1028 42.2555 75.6262 46.1709C66.1497 50.0863 57.5381 55.8317 50.2841 63.0784C53.6601 48.4545 61.9062 35.4122 73.6697 26.0914C85.4331 16.7706 100.015 11.7248 115.024 11.7817ZM115.024 0C71.7028 0 36.6251 35.0151 36.6251 78.336L37.046 80.5604C36.5682 81.4194 36.1244 82.341 35.6807 83.2228L14.2222 92.5924C11.4916 93.7757 8.37973 95.0784 5.4784 97.445C2.57707 99.8457 0 103.97 0 108.681V176.356C0 181.06 2.58275 185.179 5.4784 187.58C8.37973 189.952 11.4916 191.249 14.2222 192.438L35.675 201.802C48.6229 227.282 74.9682 244.764 105.512 244.764H171.913C207.644 244.764 203.856 201.802 225.752 201.802C246.135 201.802 245.988 244.764 279.586 244.764H345.987C376.565 244.764 402.933 227.277 415.852 201.768L437.305 192.432C440.03 191.243 443.113 189.946 446.02 187.574C448.916 185.173 451.465 181.055 451.465 176.35V108.681C451.465 103.97 448.916 99.8514 446.02 97.445C443.113 95.0784 440.036 93.77 437.305 92.5924L415.852 83.2569C415.403 82.3979 414.993 81.5047 414.549 80.6741L414.845 78.336C414.845 35.0151 379.824 0 336.503 0H115.024Z" fill="url(#paint0_linear_1145_747)"/>
<path d="M206.188 67.0221C198.633 67.6934 199.253 78.9005 206.808 78.8038H244.713C245.519 78.8568 246.327 78.7436 247.087 78.4713C247.848 78.1989 248.544 77.7732 249.133 77.2205C249.722 76.6679 250.191 76.0001 250.511 75.2586C250.831 74.5171 250.995 73.7177 250.994 72.9101C250.994 69.474 248.115 66.7718 244.713 67.0164H206.808C206.602 66.9928 206.394 66.9947 206.188 67.0221Z" fill="url(#paint1_linear_1145_747)"/>
<defs>
<linearGradient id="paint0_linear_1145_747" x1="16.1082" y1="15.7759" x2="197.903" y2="400.607" gradientUnits="userSpaceOnUse">
<stop stop-color="#1BA2D7"/>
<stop offset="1" stop-color="#8D3DFA"/>
</linearGradient>
<linearGradient id="paint1_linear_1145_747" x1="202.612" y1="67.7616" x2="207.087" y2="89.5678" gradientUnits="userSpaceOnUse">
<stop stop-color="#1BA2D7"/>
<stop offset="1" stop-color="#8D3DFA"/>
</linearGradient>
</defs>
</svg>
