<svg width="512" height="512" viewBox="0 0 512 512" fill="none" xmlns="http://www.w3.org/2000/svg">
<path d="M491.139 211.548H466.363C460.801 185.579 450.596 161.151 435.998 138.864L453.701 121.164C461.834 113.03 461.834 99.7946 453.701 91.6593L420.341 58.3011C412.206 50.1668 398.97 50.1688 390.838 58.3011L373.087 76.0516C350.807 61.5058 326.392 51.3437 300.452 45.8181V20.8612C300.452 9.35821 291.093 0 279.589 0H232.411C220.908 0 211.549 9.35821 211.549 20.8612V45.4952C185.413 50.8627 160.793 60.9299 138.307 75.4447L121.164 58.3001C113.029 50.1658 99.7946 50.1678 91.6603 58.3001L58.3011 91.6593C50.1678 99.7936 50.1668 113.029 58.3011 121.165L75.0707 137.934C60.152 160.457 49.7408 185.203 44.0993 211.548H20.8612C9.35921 211.548 0 220.907 0 232.411V279.589C0 291.093 9.35921 300.452 20.8622 300.452H43.6813C49.1119 327.046 59.397 352.053 74.2828 374.854L54.8224 394.315C48.6079 400.531 48.6079 410.645 54.8234 416.863L91.6613 453.7C99.7956 461.832 113.031 461.833 121.165 453.699L137.097 437.765C145.44 443.224 154.149 448.101 163.163 452.36C164.962 453.209 167.024 453.309 168.896 452.638C170.768 451.966 172.297 450.579 173.146 448.78C173.996 446.982 174.095 444.92 173.424 443.047C172.753 441.175 171.365 439.646 169.567 438.797C160.573 434.549 151.906 429.639 143.638 424.11C138.744 420.836 132.16 421.492 127.983 425.669L110.558 443.095C109.457 444.193 107.966 444.81 106.412 444.81C104.857 444.81 103.366 444.193 102.265 443.095L65.4285 406.259C65.2515 406.081 65.152 405.841 65.1518 405.591C65.1516 405.34 65.2507 405.1 65.4275 404.922L86.3777 383.972C90.5484 379.8 91.2083 373.224 87.9466 368.333C73.1269 346.111 63.0447 321.596 57.9801 295.467C56.8552 289.665 51.7317 285.454 45.7982 285.454H20.8622C19.3075 285.452 17.8171 284.834 16.7178 283.734C15.6186 282.635 15.0003 281.144 14.9987 279.59V232.412C15.0006 230.858 15.6189 229.368 16.7182 228.268C17.8174 227.169 19.3077 226.551 20.8622 226.549H46.1981C52.0736 226.549 57.1872 222.387 58.3561 216.653C63.6347 190.758 73.8428 166.496 88.6986 144.542C92.0183 139.637 91.3783 133.029 87.1777 128.831L68.9072 110.562C67.8087 109.461 67.1918 107.97 67.1918 106.415C67.1918 104.86 67.8087 103.369 68.9072 102.268L102.266 68.9102C103.367 67.812 104.858 67.1953 106.413 67.1953C107.967 67.1953 109.458 67.812 110.559 68.9102L129.185 87.5366C133.335 91.6843 139.89 92.3592 144.771 89.1405C166.701 74.6787 190.849 64.8056 216.547 59.794C222.341 58.6621 226.548 53.5405 226.548 47.615V20.8612C226.55 19.3068 227.168 17.8166 228.267 16.7175C229.367 15.6185 230.857 15.0003 232.411 14.9987H279.589C281.143 15.0003 282.633 15.6185 283.733 16.7175C284.832 17.8166 285.45 19.3068 285.452 20.8612V47.919C285.452 53.8015 289.621 58.916 295.364 60.0799C320.873 65.2505 344.827 75.2217 366.559 89.7145C371.451 92.9782 378.03 92.3192 382.2 88.1486L401.442 68.9082C402.543 67.81 404.034 67.1933 405.588 67.1933C407.143 67.1933 408.634 67.81 409.735 68.9082L443.093 102.265C444.19 103.366 444.807 104.857 444.807 106.412C444.807 107.966 444.191 109.458 443.094 110.559L423.894 129.756C419.72 133.936 419.068 140.52 422.342 145.409C436.885 167.144 446.899 191.113 452.105 216.648C453.274 222.384 458.387 226.547 464.263 226.547H491.138C492.692 226.549 494.182 227.167 495.281 228.266C496.381 229.366 496.999 230.856 497 232.41V279.589C496.999 281.143 496.381 282.633 495.281 283.733C494.182 284.832 492.692 285.45 491.138 285.452H464.661C458.726 285.452 453.604 289.665 452.479 295.467C447.481 321.247 437.594 345.469 423.092 367.46C419.872 372.343 420.547 378.897 424.696 383.047L446.569 404.919C446.746 405.097 446.845 405.337 446.845 405.587C446.845 405.838 446.746 406.078 446.569 406.256L409.734 443.093C408.633 444.191 407.142 444.808 405.587 444.808C404.032 444.808 402.541 444.191 401.44 443.093L383.402 425.055C379.203 420.854 372.595 420.212 367.691 423.532C345.672 438.432 321.338 448.656 295.358 453.922C289.618 455.088 285.451 460.202 285.451 466.083V491.139C285.449 492.693 284.831 494.184 283.732 495.283C282.632 496.382 281.142 497 279.588 497.002H232.41C230.856 497.001 229.366 496.383 228.266 495.283C227.167 494.184 226.549 492.694 226.547 491.14V466.39C226.547 460.464 222.342 455.343 216.546 454.21C210.432 453.012 204.377 451.53 198.401 449.767C196.504 449.239 194.475 449.479 192.753 450.435C191.031 451.39 189.753 452.985 189.197 454.875C188.641 456.764 188.851 458.796 189.78 460.533C190.71 462.269 192.286 463.57 194.167 464.154C199.898 465.844 205.697 467.295 211.549 468.505V491.14C211.549 502.643 220.907 512.001 232.411 512.001H279.589C291.093 512.001 300.451 502.643 300.451 491.139V468.183C326.882 462.554 351.705 452.125 374.297 437.161L390.836 453.701C398.97 461.834 412.204 461.834 420.341 453.701L457.178 416.863C463.392 410.646 463.392 400.532 457.178 394.315L436.785 373.924C451.343 351.373 461.426 326.677 466.782 300.452H491.138C502.641 300.452 511.999 291.094 511.999 279.59V232.411C512 220.907 502.642 211.548 491.139 211.548Z" fill="url(#paint0_linear_1118_23)"/>
<path d="M360.84 120.774C330.381 97.1298 293.863 84.6309 255.232 84.6309C160.188 84.6309 82.863 161.955 82.863 256.999C82.863 352.043 160.188 429.368 255.232 429.368C350.276 429.368 427.6 352.043 427.6 256.999C427.6 215.321 412.521 175.09 385.14 143.716C383.828 142.232 381.982 141.326 380.005 141.198C378.029 141.07 376.081 141.729 374.589 143.032C373.097 144.334 372.18 146.174 372.04 148.15C371.899 150.126 372.546 152.078 373.84 153.578C398.84 182.231 412.61 218.973 412.601 256.999C412.601 343.773 342.005 414.369 255.232 414.369C168.458 414.369 97.8618 343.774 97.8618 256.999C97.8618 170.225 168.458 99.6306 255.232 99.6306C290.501 99.6306 323.839 111.039 351.641 132.623C353.216 133.799 355.19 134.311 357.137 134.048C359.085 133.784 360.852 132.766 362.057 131.214C363.263 129.661 363.81 127.697 363.583 125.745C363.355 123.792 362.37 122.007 360.84 120.774Z" fill="url(#paint1_linear_1118_23)"/>
<path d="M316.997 355.072C331.021 355.072 342.432 343.662 342.432 329.637V289.129C363.683 285.733 379.976 267.279 379.976 245.086C379.976 222.894 363.683 204.441 342.432 201.045V160.536C342.432 146.513 331.022 135.102 316.997 135.102C304.622 135.102 294.288 143.988 292.027 155.713L257.658 173.314C256.782 173.763 256.002 174.381 255.364 175.131C254.726 175.881 254.242 176.75 253.94 177.687C253.637 178.624 253.523 179.612 253.602 180.594C253.681 181.576 253.953 182.532 254.403 183.408C255.309 185.179 256.882 186.516 258.775 187.127C260.667 187.738 262.725 187.572 264.496 186.665L291.562 172.803V308.477L222.101 272.902C221.277 272.48 220.382 272.214 219.461 272.119L170.209 266.973C156.683 265.561 146.484 254.24 146.484 240.64C146.484 227.04 156.683 215.719 170.209 214.306L219.461 209.16C220.382 209.065 221.277 208.799 222.101 208.376L234.605 201.972C238.292 200.084 239.749 195.565 237.861 191.879C235.973 188.192 231.454 186.731 227.767 188.623L216.51 194.39L168.65 199.389C147.463 201.602 131.485 219.335 131.485 240.64C131.485 261.944 147.463 279.677 168.65 281.89L184.33 283.528V359.101C184.33 370.459 193.571 379.7 204.929 379.7H215.892C227.25 379.7 236.49 370.46 236.49 359.101V322.911L248.776 303.416L291.56 325.33V329.637C291.563 343.661 302.973 355.072 316.997 355.072ZM222.648 316.746C221.894 317.943 221.493 319.33 221.493 320.745V359.101C221.492 360.585 220.901 362.009 219.852 363.059C218.802 364.109 217.378 364.699 215.894 364.701H204.931C203.446 364.699 202.023 364.109 200.973 363.059C199.923 362.009 199.333 360.585 199.331 359.101V285.096L216.512 286.891L235.376 296.553L222.648 316.746ZM364.977 245.086C364.977 258.978 355.358 270.66 342.432 273.836V216.337C355.357 219.513 364.977 231.194 364.977 245.086ZM306.562 160.537C306.562 154.783 311.244 150.101 316.998 150.101C322.753 150.101 327.434 154.783 327.434 160.537V329.637C327.434 335.392 322.753 340.073 316.998 340.073C311.244 340.073 306.562 335.392 306.562 329.637V160.537Z" fill="url(#paint2_linear_1118_23)"/>
<defs>
<linearGradient id="paint0_linear_1118_23" x1="18.268" y1="33.0002" x2="505.956" y2="592.697" gradientUnits="userSpaceOnUse">
<stop stop-color="#1BA2D7"/>
<stop offset="1" stop-color="#8D3DFA"/>
</linearGradient>
<linearGradient id="paint1_linear_1118_23" x1="95.1632" y1="106.85" x2="423.53" y2="483.703" gradientUnits="userSpaceOnUse">
<stop stop-color="#1BA2D7"/>
<stop offset="1" stop-color="#8D3DFA"/>
</linearGradient>
<linearGradient id="paint2_linear_1118_23" x1="140.351" y1="150.867" x2="372.803" y2="421.888" gradientUnits="userSpaceOnUse">
<stop stop-color="#1BA2D7"/>
<stop offset="1" stop-color="#8D3DFA"/>
</linearGradient>
</defs>
</svg>
