<svg width="487" height="496" viewBox="0 0 487 496" fill="none" xmlns="http://www.w3.org/2000/svg">
<path d="M161.703 66.09C162.709 67.8334 164.336 69.1332 166.259 69.73C168.182 70.3269 170.259 70.1769 172.076 69.31C190.689 60.428 210.684 55.122 231.505 53.539C233.516 53.3862 235.395 52.4795 236.766 51.0003C238.137 49.5212 238.899 47.5788 238.899 45.562V8.00595C238.898 6.91266 238.674 5.83104 238.239 4.82784C237.805 3.82464 237.169 2.92115 236.372 2.17311C235.574 1.42507 234.632 0.84835 233.603 0.478543C232.574 0.108735 231.481 -0.0463169 230.39 0.0229536C200.98 1.90095 172.713 9.47095 146.374 22.523C145.394 23.0087 144.525 23.6899 143.819 24.5246C143.113 25.3594 142.585 26.3299 142.269 27.3763C141.952 28.4228 141.854 29.5229 141.979 30.609C142.104 31.695 142.45 32.7439 142.997 33.691L161.703 66.09ZM222.899 16.708V38.293C205.228 40.34 188.142 44.873 171.936 51.814L161.204 33.225C180.816 24.494 201.501 18.956 222.899 16.708ZM45.7226 319.812C46.2072 320.793 46.8879 321.664 47.7226 322.371C48.5572 323.079 49.5281 323.608 50.5752 323.925C51.6222 324.242 52.7233 324.342 53.8102 324.216C54.8972 324.091 55.9469 323.745 56.8946 323.198L89.4466 304.405C91.19 303.398 92.4898 301.772 93.0868 299.849C93.6838 297.927 93.5341 295.85 92.6676 294.033C83.7626 275.359 78.4306 255.382 76.8166 234.658C76.6602 232.65 75.7521 230.774 74.2736 229.407C72.795 228.039 70.8549 227.279 68.8406 227.279H31.2736C30.18 227.279 29.0981 227.504 28.0947 227.939C27.0913 228.373 26.1877 229.009 25.4396 229.807C24.6915 230.605 24.1149 231.547 23.7452 232.576C23.3756 233.606 23.2209 234.7 23.2906 235.791C25.1786 265.229 32.7266 293.497 45.7226 319.812ZM61.5866 243.278C63.6414 260.808 68.217 277.949 75.1716 294.171L56.4406 304.985C47.7476 285.386 42.2276 264.696 39.9776 243.278H61.5866ZM31.2746 215.663H68.9886C70.9907 215.663 72.92 214.912 74.3956 213.559C75.8711 212.206 76.7857 210.349 76.9586 208.354C78.7596 187.58 84.1336 167.622 92.9316 149.035C93.7909 147.219 93.9356 145.146 93.337 143.229C92.7384 141.311 91.4403 139.689 89.7006 138.684L56.9536 119.778C56.0065 119.231 54.9574 118.884 53.871 118.759C52.7846 118.633 51.684 118.732 50.6371 119.048C49.5903 119.365 48.6195 119.893 47.7847 120.599C46.9499 121.306 46.2689 122.176 45.7836 123.156C32.7466 149.485 25.1796 177.745 23.2906 207.15C23.2203 208.242 23.3747 209.336 23.7441 210.366C24.1136 211.395 24.6903 212.338 25.4385 213.136C26.1868 213.934 27.0908 214.57 28.0946 215.004C29.0984 215.439 30.1807 215.663 31.2746 215.663ZM56.4916 137.986L75.4416 148.927C68.5636 165.068 63.9876 182.076 61.7916 199.663H39.9786C42.2336 178.271 47.7696 157.591 56.4916 137.986ZM485.206 242.347C483.13 238.069 478.884 235.412 474.123 235.411H466.243C466.531 230.77 466.676 226.108 466.676 221.471C466.676 164.682 445.24 110.654 406.317 69.34C367.565 28.207 315.255 3.58795 259.021 0.0159536C257.93 -0.0530379 256.836 0.102229 255.808 0.472175C254.779 0.842121 253.837 1.4189 253.04 2.16693C252.243 2.91495 251.608 3.81836 251.174 4.82141C250.739 5.82446 250.515 6.90588 250.515 7.99895V45.565C250.514 47.5802 251.275 49.5213 252.644 51.0001C254.013 52.4788 255.89 53.3863 257.9 53.541C344.978 60.259 413.19 134.022 413.19 221.47C413.19 226.11 412.999 230.775 412.618 235.409H407.502C402.743 235.409 398.496 238.066 396.42 242.344C394.344 246.621 394.883 251.601 397.827 255.339L431.14 297.652C432.289 299.119 433.758 300.305 435.435 301.118C437.111 301.932 438.952 302.352 440.816 302.346C444.614 302.346 448.139 300.634 450.488 297.65L483.799 255.339C486.742 251.603 487.282 246.624 485.206 242.347ZM440.812 284.077L415.095 251.412H419.833C421.783 251.412 423.667 250.699 425.129 249.408C426.591 248.116 427.531 246.335 427.772 244.399C428.714 236.793 429.187 229.136 429.189 221.472C429.189 174.715 411.663 130.119 379.838 95.9C349.877 63.684 309.869 43.409 266.514 38.31V16.701C370.452 27.628 450.677 115.97 450.677 221.472C450.677 228.517 450.317 235.626 449.606 242.6C449.492 243.713 449.614 244.838 449.962 245.901C450.311 246.965 450.878 247.943 451.628 248.774C452.378 249.604 453.294 250.268 454.317 250.722C455.339 251.177 456.446 251.412 457.565 251.412H466.531L440.812 284.077ZM62.7776 109.729L95.4116 128.57C97.1603 129.581 99.2268 129.892 101.196 129.442C103.165 128.991 104.89 127.812 106.026 126.142C117.732 108.935 132.286 94.256 149.282 82.512C150.935 81.3695 152.098 79.6466 152.539 77.6859C152.98 75.7252 152.667 73.6703 151.662 71.93L132.949 39.519C132.401 38.5709 131.665 37.7453 130.785 37.0933C129.906 36.4412 128.902 35.9766 127.836 35.7281C126.769 35.4796 125.664 35.4526 124.586 35.6486C123.509 35.8447 122.484 36.2597 121.574 36.868C97.1396 53.207 76.4656 73.8939 60.1236 98.3559C59.5158 99.2664 59.1012 100.292 58.9056 101.369C58.7099 102.446 58.7373 103.552 58.9861 104.618C59.2348 105.684 59.6997 106.687 60.3518 107.566C61.004 108.446 61.8296 109.182 62.7776 109.729ZM123.454 55.07L134.193 73.671C120.091 84.276 107.658 96.816 97.1056 111.073L78.3246 100.23C90.9237 82.9181 106.15 67.681 123.454 55.07ZM356.219 326.12L279.089 371.044C276.155 372.752 273.181 374.07 270.118 375.005C271.085 373.045 271.854 370.994 272.414 368.882C276.516 353.571 267.435 337.593 251.741 332.506C251.398 332.395 251.048 332.307 250.694 332.243C228.622 328.262 206.794 320.37 189.254 314.029C183.138 311.818 177.361 309.729 172.438 308.133C152.259 301.586 134.125 309.628 119.047 318.359L62.6736 350.998L57.8386 342.454C55.2986 337.966 51.1506 334.732 46.1596 333.348C41.1696 331.967 35.9486 332.603 31.4596 335.142L9.8186 347.39C0.530599 352.647 -2.7494 364.48 2.5066 373.769L66.1296 486.186C68.6696 490.675 72.8176 493.909 77.8086 495.292C79.5346 495.77 81.2876 496.007 83.0286 496.007C86.3216 496.007 89.5726 495.159 92.5086 493.498L114.15 481.25C118.638 478.709 121.872 474.562 123.256 469.571C124.639 464.58 124.002 459.359 121.462 454.87L115.467 444.277L127.14 437.537L225.464 463.883C231.016 465.371 236.541 466.111 241.974 466.111C252.966 466.111 263.585 463.085 273.293 457.108L413.265 370.919C426.534 362.75 430.765 342.198 422.142 327.802C417.969 320.832 400.877 300.113 356.219 326.12ZM107.838 465.298C107.698 465.803 107.308 466.738 106.27 467.326L84.6286 479.574C83.5916 480.163 82.5876 480.015 82.0826 479.874C81.5776 479.734 80.6426 479.344 80.0546 478.306L16.4326 365.889C15.5366 364.306 16.1166 362.211 17.7006 361.315L39.3426 349.067C39.8356 348.786 40.3934 348.64 40.9606 348.641C41.3406 348.641 41.6636 348.704 41.8886 348.767C42.3936 348.907 43.3286 349.297 43.9156 350.334L107.539 462.751C108.125 463.79 107.978 464.792 107.838 465.298ZM404.877 357.296L264.906 443.484C254.087 450.143 242.211 451.809 229.606 448.429L128.08 421.225C126.03 420.677 123.847 420.964 122.01 422.024L107.586 430.351L70.5546 364.921L127.063 332.203C139.694 324.89 153.335 318.754 167.501 323.35C172.171 324.865 177.566 326.815 183.813 329.074C201.767 335.565 224.074 343.63 247.266 347.88C254.695 350.519 258.849 357.685 256.959 364.739C254.468 374.031 246.654 375.187 240.417 374.477C229.125 372.152 218.372 369.083 206.996 365.835C201.574 364.287 195.968 362.686 190.201 361.14C188.163 360.627 186.006 360.936 184.194 362C182.383 363.065 181.063 364.799 180.519 366.828C179.975 368.858 180.252 371.019 181.288 372.847C182.325 374.674 184.039 376.02 186.06 376.595C191.7 378.106 197.243 379.689 202.602 381.22C214.396 384.588 237.819 390.276 237.872 390.284L247.466 391.845C262.085 394.182 275.063 391.902 287.14 384.869L364.27 339.945C385.854 327.374 402.357 325.906 408.416 336.023C412.556 342.933 410.77 353.668 404.877 357.296ZM45.0506 369.772C45.2129 370.783 45.1726 371.816 44.9321 372.811C44.6917 373.806 44.2559 374.744 43.65 375.569C43.0442 376.394 42.2803 377.091 41.4029 377.619C40.5254 378.146 39.5519 378.494 38.5389 378.642C37.5258 378.79 36.4934 378.736 35.5017 378.481C34.5099 378.227 33.5786 377.778 32.7619 377.161C31.9451 376.543 31.2592 375.77 30.744 374.885C30.2288 374 29.8945 373.022 29.7606 372.007C29.4951 369.994 30.0326 367.957 31.2571 366.337C32.4815 364.717 34.2944 363.644 36.3036 363.351C38.3129 363.057 40.357 363.566 41.9939 364.768C43.6307 365.969 44.7288 367.767 45.0506 369.772ZM312.738 146.507C312.738 114.595 286.775 88.632 254.863 88.632C222.951 88.632 196.988 114.595 196.988 146.507C196.988 165.971 206.656 183.208 221.432 193.705C182.587 206.451 153.4 240.874 148.832 283.56C148.712 284.676 148.828 285.805 149.173 286.873C149.518 287.941 150.085 288.924 150.835 289.759C151.585 290.594 152.503 291.262 153.528 291.719C154.553 292.175 155.663 292.411 156.786 292.411H352.937C354.059 292.411 355.169 292.175 356.195 291.719C357.22 291.262 358.138 290.594 358.888 289.759C359.638 288.924 360.204 287.94 360.549 286.872C360.894 285.804 361.011 284.675 360.891 283.559C356.322 240.874 327.136 206.452 288.292 193.705C303.069 183.209 312.738 165.971 312.738 146.507ZM343.597 276.411H166.127C174.749 234.78 211.43 204.391 254.842 204.381L254.863 204.382H254.883C298.294 204.392 334.975 234.78 343.597 276.411ZM254.862 188.381H254.836C231.759 188.366 212.988 169.588 212.988 146.507C212.988 123.417 231.773 104.632 254.863 104.632C277.953 104.632 296.738 123.417 296.738 146.507C296.738 169.588 277.967 188.367 254.889 188.381H254.862Z" fill="url(#paint0_linear_1118_20)"/>
<defs>
<linearGradient id="paint0_linear_1118_20" x1="17.3566" y1="31.9693" x2="490.981" y2="565.06" gradientUnits="userSpaceOnUse">
<stop stop-color="#1BA2D7"/>
<stop offset="1" stop-color="#8D3DFA"/>
</linearGradient>
</defs>
</svg>
