<svg width="463" height="512" viewBox="0 0 463 512" fill="none" xmlns="http://www.w3.org/2000/svg">
<path d="M452.211 267.481C428.684 244.06 401.483 265.981 401.483 265.981V142.68C401.5 141.685 401.318 140.697 400.948 139.773C400.579 138.849 400.029 138.008 399.331 137.298C398.633 136.589 397.801 136.026 396.883 135.641C395.966 135.257 394.98 135.059 393.985 135.059C392.99 135.059 392.005 135.257 391.087 135.641C390.17 136.026 389.337 136.589 388.64 137.298C387.942 138.008 387.392 138.849 387.023 139.773C386.653 140.697 386.471 141.685 386.487 142.68V276.531C386.487 276.531 350.726 304.723 335.355 311.613V89.6047C335.355 79.2847 343.749 70.8906 354.069 70.8906H367.773C378.093 70.8906 386.487 79.2847 386.487 89.6047V111.977C386.487 116.121 389.843 119.477 393.987 119.477C394.972 119.477 395.947 119.283 396.857 118.906C397.767 118.529 398.593 117.976 399.289 117.28C399.985 116.583 400.537 115.757 400.914 114.847C401.29 113.937 401.484 112.962 401.483 111.977V89.6047C401.483 71.0146 386.363 55.8945 367.773 55.8945H354.069C335.479 55.8945 320.355 71.0146 320.355 89.6047V317.561C315.864 318.817 311.27 319.672 306.628 320.115V162C306.628 143.316 291.428 128.117 272.749 128.117H259.378C240.697 128.117 225.498 143.317 225.498 162V238.415L211.768 245.705V220.274C211.768 203.454 198.084 189.77 181.268 189.77H161.142C144.322 189.77 130.642 203.453 130.642 220.273V288.767L106.153 301.763L37.3873 321.415C25.4222 324.833 15.4301 332.669 9.25711 343.474C3.08208 354.282 1.40707 366.868 4.53909 378.911L12.2301 408.506C13.2701 412.514 17.3632 414.916 21.3752 413.877C23.3004 413.376 24.9478 412.13 25.955 410.415C26.9622 408.699 27.2468 406.654 26.7462 404.729L19.0552 375.138C14.5941 357.974 24.4572 340.708 41.5123 335.837L104.383 317.868L151.638 443.986C154.802 452.432 154.302 476.526 129.306 485.404L81.7935 496.197C65.2344 499.955 48.9183 490.029 44.6453 473.592L35.0013 436.479C34.5003 434.554 33.2558 432.907 31.541 431.899C29.8263 430.891 27.7816 430.605 25.8562 431.104C23.9305 431.604 22.2825 432.849 21.2746 434.565C20.2666 436.28 19.9812 438.326 20.4812 440.252L30.1302 477.369C35.5523 498.221 54.0754 511.999 74.6965 511.999C89.8496 511.999 132.631 500.029 132.631 500.029C144.467 497.342 154.77 490.108 161.317 479.888C167.863 469.668 170.127 457.283 167.619 445.408L331.995 405.166C345.589 401.834 358.495 395.377 369.308 386.489L449.301 320.763C473.688 299.133 459.383 274.618 452.211 267.481ZM259.378 143.117H272.749C283.159 143.117 291.628 151.59 291.628 162V320.489L244.303 320.469C239.955 320.431 242.963 317.559 243.201 317.364L256.832 306.325C269.546 296.025 277.851 281.705 281.511 263.755C283.835 252.368 279.491 240.97 270.183 234.009C261.487 227.509 250.303 226.259 240.498 230.556V162C240.498 151.59 248.968 143.117 259.378 143.117ZM145.643 220.273C145.643 211.727 152.596 204.77 161.143 204.77H181.268C189.815 204.77 196.772 211.727 196.772 220.273V253.665L145.639 280.805V220.274L145.643 220.273ZM439.781 309.177L359.784 374.903C350.632 382.405 339.919 387.766 328.429 390.595L162.842 431.139L118.311 312.298L245.46 244.806C250.628 242.06 256.515 242.516 261.198 246.021C265.882 249.524 267.983 255.032 266.816 260.759C263.866 275.208 257.331 286.619 247.39 294.669L233.759 305.712C228.174 310.235 226.115 317.536 228.514 324.313C230.912 331.087 237.107 335.47 244.295 335.47L298.941 335.493H298.98C318.433 335.493 337.128 329.579 353.042 318.388L414.112 275.442C418.225 272.528 423.244 271.181 428.263 271.644C433.282 272.107 437.97 274.349 441.481 277.966C445.688 282.263 453.922 295.032 439.781 309.176V309.177Z" fill="url(#paint0_linear_1118_16)"/>
<path d="M122.916 448.793C122.916 432.499 109.662 419.24 93.3686 419.24C77.0755 419.24 63.8214 432.499 63.8214 448.793C63.8214 465.083 77.0755 478.34 93.3686 478.34C109.662 478.34 122.916 465.082 122.916 448.793ZM78.8215 448.793C78.8215 440.769 85.3455 434.241 93.3686 434.241C101.389 434.241 107.916 440.769 107.916 448.792C107.916 456.812 101.393 463.339 93.3686 463.339C85.3455 463.339 78.8215 456.812 78.8215 448.792V448.793ZM39.4353 235.481L148.459 125.618L172.982 138.302C177.264 140.518 182.134 141.337 186.905 140.642C191.677 139.948 196.111 137.776 199.584 134.431L258.929 77.3055C258.929 77.3055 257.296 106.646 282.003 106.646C294.722 106.646 305.073 96.2936 305.073 83.5705V23.0701C305.073 23.0001 305.069 22.9261 305.069 22.8521C304.987 7.06604 293.444 0 282.003 0H222.029C209.307 0 198.959 10.3521 198.959 23.0701C198.959 48.4303 224.768 46.1403 224.768 46.1403L179.494 89.7205L154.615 76.8534C145.619 72.1964 134.779 73.9034 127.639 81.0915L6.68508 202.978C-2.27597 212.008 -2.22197 226.646 6.81008 235.606C11.1611 239.923 26.0202 248.896 39.4353 235.481ZM17.3291 213.544L138.283 91.6565C139.846 90.0865 142.353 87.3365 147.725 90.1765L177.377 105.513C178.769 106.233 180.352 106.499 181.903 106.274C183.454 106.048 184.896 105.342 186.025 104.255L248.572 44.0473C249.65 43.0099 250.392 41.6743 250.704 40.2119C251.017 38.7494 250.885 37.227 250.325 35.8402C249.766 34.4533 248.805 33.2653 247.566 32.4287C246.326 31.5921 244.865 31.1451 243.369 31.1452H222.029C217.58 31.1452 213.959 27.5232 213.959 23.0701C213.959 18.6211 217.58 15.0001 222.029 15.0001H282.003C284.21 15.0001 290.069 15.0001 290.069 23.0231C290.069 23.0901 290.073 23.1561 290.073 23.2271V83.5705C290.073 88.0205 286.453 91.6405 282.003 91.6405C277.55 91.6405 273.929 88.0205 273.929 83.5705V59.6763C273.93 58.2047 273.498 56.7652 272.687 55.5374C271.876 54.3095 270.721 53.3476 269.367 52.7716C268.012 52.1956 266.519 52.0309 265.071 52.2981C263.624 52.5654 262.288 53.2526 261.229 54.2743L189.182 123.626C187.967 124.796 186.416 125.556 184.747 125.799C183.078 126.042 181.375 125.756 179.877 124.981L150.463 109.767C149.044 109.034 147.429 108.772 145.852 109.02C144.275 109.268 142.818 110.013 141.693 111.146L28.7912 224.916C23.8692 229.836 18.8972 226.47 17.3731 224.958C14.2171 221.821 14.1971 216.7 17.3301 213.544H17.3291Z" fill="url(#paint1_linear_1118_16)"/>
<defs>
<linearGradient id="paint0_linear_1118_16" x1="19.4087" y1="85.292" x2="453.341" y2="587.495" gradientUnits="userSpaceOnUse">
<stop stop-color="#1BA2D7"/>
<stop offset="1" stop-color="#8D3DFA"/>
</linearGradient>
<linearGradient id="paint1_linear_1118_16" x1="10.8849" y1="30.8306" x2="449.318" y2="351.74" gradientUnits="userSpaceOnUse">
<stop stop-color="#1BA2D7"/>
<stop offset="1" stop-color="#8D3DFA"/>
</linearGradient>
</defs>
</svg>
