<svg width="512" height="512" viewBox="0 0 512 512" fill="none" xmlns="http://www.w3.org/2000/svg">
<path d="M189.5 333H91.5C58.6911 333 32 306.309 32 273.5V91.5C32 58.6909 58.6909 32 91.5 32H420.5C453.309 32 480 58.6909 480 91.5V284C480 287.864 476.864 291 473 291C469.136 291 466 287.864 466 284V91.5C466 66.412 445.588 46 420.5 46H91.5C66.412 46 46 66.412 46 91.5V273.5C46 298.588 66.412 319 91.5 319H189.5C193.364 319 196.5 322.136 196.5 326C196.5 329.864 193.368 333 189.5 333Z" fill="white"/>
<path d="M266.5 364.5C262.636 364.5 259.5 361.364 259.5 357.5V200C259.5 186.493 270.494 175.5 284 175.5H294.5C308.006 175.5 319 186.494 319 200V322.5C319 326.364 315.864 329.5 312 329.5C308.136 329.5 305 326.364 305 322.5V200C305 194.211 300.289 189.5 294.5 189.5H284C278.211 189.5 273.5 194.211 273.5 200V357.5C273.5 361.364 270.364 364.5 266.5 364.5Z" fill="white"/>
<path d="M357.5 340C353.636 340 350.5 336.864 350.5 333V280.5C350.5 274.711 345.789 270 340 270H329.5C323.711 270 319 274.711 319 280.5V322.5C319 326.364 315.864 329.5 312 329.5C308.136 329.5 305 326.364 305 322.5V280.5C305 266.993 315.994 256 329.5 256H340C353.506 256 364.5 266.994 364.5 280.5V333C364.5 336.864 361.364 340 357.5 340Z" fill="white"/>
<path d="M403 357.5C399.136 357.5 396 354.364 396 350.5V298C396 292.211 391.289 287.5 385.5 287.5H375C369.211 287.5 364.5 292.211 364.5 298V333C364.5 336.864 361.364 340 357.5 340C353.636 340 350.5 336.864 350.5 333V298C350.5 284.493 361.494 273.5 375 273.5H385.5C399.006 273.5 410 284.494 410 298V350.5C410 354.364 406.864 357.5 403 357.5Z" fill="white"/>
<path d="M416.993 480C415.792 480.001 414.612 479.691 413.566 479.1C410.196 477.203 408.999 472.937 410.896 469.567L433.408 429.547C438.704 420.139 441.5 409.457 441.5 398.66V319C441.5 313.211 436.789 308.5 431 308.5H420.5C414.711 308.5 410 313.211 410 319V350.5C410 354.364 406.864 357.5 403 357.5C399.136 357.5 396 354.364 396 350.5V319C396 305.493 406.994 294.5 420.5 294.5H431C444.506 294.5 455.5 305.493 455.5 319V398.663C455.5 411.862 452.08 424.913 445.612 436.414L423.1 476.433C421.816 478.715 419.44 480 416.993 480ZM256 480C254.208 480 252.419 479.317 251.051 477.949L236.551 463.452C222.008 448.91 214 429.572 214 409.006V329.5C214 315.993 224.99 305 238.5 305H249C262.51 305 273.5 315.994 273.5 329.5V378.5C273.5 382.364 270.364 385.5 266.5 385.5C262.636 385.5 259.5 382.364 259.5 378.5V329.5C259.5 323.711 254.789 319 249 319H238.5C232.711 319 228 323.711 228 329.5V409.006C228 425.834 234.552 441.654 246.448 453.558L260.945 468.055C263.679 470.785 263.682 475.219 260.949 477.953C259.584 479.314 257.792 480 256 480ZM103.753 247.25C101.891 247.25 100.033 246.511 98.654 245.049C82.757 228.172 74 205.957 74 182.5C74 159.043 82.7535 136.829 98.654 119.952C101.303 117.138 105.731 117.008 108.552 119.654C111.366 122.307 111.499 126.735 108.846 129.549C95.4025 143.818 88 162.623 88 182.5C88 202.376 95.4025 221.182 108.846 235.451C111.495 238.265 111.362 242.693 108.552 245.346C107.197 246.616 105.472 247.25 103.753 247.25Z" fill="white"/>
<path d="M128.254 222.75C126.35 222.75 124.449 221.976 123.07 220.454C113.995 210.458 109 196.976 109 182.5C109 168.024 113.995 154.549 123.067 144.546C125.664 141.676 130.091 141.462 132.954 144.063C135.817 146.66 136.034 151.087 133.437 153.95C126.805 161.262 123 171.667 123 182.5C123 193.336 126.801 203.738 133.434 211.046C136.031 213.905 135.817 218.336 132.954 220.933C131.614 222.152 129.93 222.75 128.254 222.75ZM408.25 247.25C406.466 247.251 404.749 246.57 403.452 245.346C400.634 242.693 400.505 238.266 403.154 235.452C416.598 221.179 424 202.37 424 182.5C424 162.63 416.598 143.821 403.154 129.548C400.505 126.735 400.634 122.307 403.452 119.654C406.262 117.008 410.693 117.13 413.346 119.951C429.243 136.828 438 159.046 438 182.5C438 205.953 429.243 228.171 413.346 245.048C411.967 246.512 410.109 247.25 408.25 247.25Z" fill="white"/>
<path d="M383.746 222.75C382.07 222.75 380.386 222.151 379.046 220.933C376.183 218.336 375.966 213.906 378.563 211.046C385.195 203.738 389 193.332 389 182.5C389 171.667 385.195 161.265 378.566 153.954C375.969 151.091 376.183 146.663 379.049 144.066C381.916 141.462 386.343 141.683 388.937 144.549C398.005 154.545 403 168.024 403 182.5C403 196.979 398.002 210.458 388.933 220.454C387.551 221.976 385.654 222.75 383.746 222.75ZM238.5 238.994C237.726 238.994 236.942 238.864 236.172 238.595C212.442 230.229 196.5 207.69 196.5 182.5C196.5 149.691 223.191 123 256 123C276.755 123 295.676 133.556 306.614 151.238C308.647 154.525 307.629 158.84 304.342 160.873C301.056 162.907 296.744 161.888 294.707 158.602C286.345 145.075 271.873 137 256 137C230.912 137 210.5 157.412 210.5 182.5C210.5 201.764 222.687 218.998 240.828 225.389C244.474 226.673 246.389 230.674 245.105 234.321C244.089 237.194 241.388 238.994 238.5 238.994ZM350.5 126.5C333.129 126.5 319 112.37 319 94.9999C319 77.6294 333.129 63.4999 350.5 63.4999C367.87 63.4999 382 77.6294 382 94.9999C382 112.37 367.87 126.5 350.5 126.5ZM350.5 77.5C340.85 77.5 333 85.3505 333 95C333 104.65 340.85 112.5 350.5 112.5C360.15 112.5 368 104.649 368 95C368 85.3506 360.15 77.5 350.5 77.5ZM175.5 137C158.133 137 144 122.87 144 105.5C144 88.1294 158.133 73.9999 175.5 73.9999C192.867 73.9999 207 88.1294 207 105.5C207 122.87 192.871 137 175.5 137ZM175.5 88C165.85 88 158 95.8505 158 105.5C158 115.15 165.85 123 175.5 123C185.15 123 193 115.15 193 105.5C193 95.8505 185.15 88 175.5 88ZM161.5 301.5C144.133 301.5 130 287.37 130 270C130 252.629 144.133 238.5 161.5 238.5C178.867 238.5 193 252.629 193 270C193 287.37 178.871 301.5 161.5 301.5ZM161.5 252.5C151.85 252.5 144 260.35 144 270C144 279.65 151.85 287.5 161.5 287.5C171.15 287.5 179 279.65 179 270C179 260.35 171.15 252.5 161.5 252.5Z" fill="white"/>
<path d="M179.459 260.375C177.576 260.375 175.7 259.619 174.321 258.132C171.696 255.293 171.864 250.866 174.699 248.241L212.744 212.999C215.582 210.371 220.01 210.542 222.638 213.374C225.263 216.212 225.095 220.64 222.26 223.265L184.215 258.506C182.864 259.756 181.16 260.375 179.459 260.375ZM218.095 153.24C216.356 153.24 214.613 152.596 213.258 151.298L188.338 127.459C185.545 124.785 185.444 120.358 188.118 117.561C190.788 114.771 195.219 114.663 198.016 117.344L222.936 141.182C225.729 143.857 225.83 148.284 223.156 151.08C221.777 152.515 219.94 153.24 218.095 153.24ZM294.5 153.87C292.621 153.87 290.745 153.114 289.366 151.627C286.737 148.788 286.905 144.36 289.74 141.736L327.785 106.491C330.62 103.865 335.051 104.03 337.676 106.865C340.305 109.704 340.137 114.131 337.302 116.756L299.257 152.001C297.965 153.203 296.265 153.871 294.5 153.87Z" fill="white"/>
</svg>
