<svg xmlns="http://www.w3.org/2000/svg" version="1.1" xmlns:xlink="http://www.w3.org/1999/xlink" width="512" height="512" x="0" y="0" viewBox="0 0 500 500" style="enable-background:new 0 0 512 512" xml:space="preserve"><g><g fill-rule="evenodd" clip-rule="evenodd"><path fill="#19cfba" d="M250 36.466c115.277 0 208.727 36.875 208.727 82.364v122.795c-139.157-30.408-278.026-30.042-417.454 0V118.83c0-45.488 93.45-82.364 208.727-82.364z" opacity="1" data-original="#19cfba"></path><path fill="#99f7ec" d="M138.403 311.236c-58.375-14.602-97.13-40.32-97.13-69.611V118.83c0 29.292 38.755 55.009 97.13 69.611z" opacity="1" data-original="#99f7ec"></path><path fill="#fcd4a9" d="M421.528 412.111v39.021c0 6.831-5.571 12.402-12.402 12.402H90.874c-6.831 0-12.402-5.571-12.402-12.402v-39.021c0-24.386 14.01-45.199 36.603-54.378l79.162-32.16c10.183-4.137 16.498-13.518 16.498-24.509v-23.525h78.531v23.525c0 10.991 6.314 20.373 16.497 24.509l79.162 32.16c22.593 9.179 36.603 29.992 36.603 54.378z" opacity="1" data-original="#fcd4a9"></path><path fill="#88c8fe" d="M355.397 463.534H144.603V345.738l49.634-20.164c.48-.195.952-.402 1.415-.62L250 383.771l54.348-58.817c.463.218.934.425 1.415.62l49.634 20.164z" opacity="1" data-original="#88c8fe"></path><path fill="#4187b5" d="m165.109 337.407 29.127-11.833c.48-.195.952-.402 1.415-.62L250 383.771l-38.36 46.697zM304.348 324.954c.463.218.934.425 1.415.62l29.127 11.833-46.531 93.061L250 383.771z" opacity="1" data-original="#4187b5"></path><path fill="#ffffff" d="M131.653 81.644a6.658 6.658 0 1 1 7.872 10.74l-37.35 27.424 37.35 27.423a6.659 6.659 0 0 1-7.872 10.74l-44.546-32.707c-3.641-2.61-3.844-8.091-.117-10.825zm228.822 10.739a6.66 6.66 0 0 1-1.434-9.306 6.66 6.66 0 0 1 9.306-1.434l44.663 32.793c3.727 2.734 3.524 8.216-.117 10.825l-44.546 32.707a6.658 6.658 0 1 1-7.872-10.74l37.35-27.423z" opacity="1" data-original="#ffffff"></path><path fill="#4187b5" d="M355.397 345.738v117.796h53.73c6.831 0 12.402-5.571 12.402-12.402v-39.021c0-24.386-14.01-45.199-36.603-54.378zM144.603 463.534V345.738l-29.528 11.996c-22.593 9.178-36.603 29.992-36.603 54.378v39.021c0 6.831 5.571 12.402 12.402 12.402h53.729z" opacity="1" data-original="#4187b5"></path><path fill="#99f7ec" d="M458.727 241.625c0 29.292-38.756 55.009-97.131 69.611V188.441c58.375-14.602 97.131-40.32 97.131-69.611z" opacity="1" data-original="#99f7ec"></path><path fill="#f0b16e" d="M208.16 312.64c1.672-3.498 2.575-7.422 2.575-11.576v-23.525h78.531v23.525c0 4.154.902 8.077 2.574 11.575-25.518 16.945-58.162 16.946-83.68.001z" opacity="1" data-original="#f0b16e"></path><ellipse cx="250" cy="215.541" fill="#fcd4a9" rx="78.531" ry="82.664" opacity="1" data-original="#fcd4a9"></ellipse><path fill="#fa6e85" d="M173.036 170.076h153.927c4.272 0 7.767 3.495 7.767 7.767v50.597c0 4.272-3.495 7.767-7.767 7.767H272.85c-5.417 0-10.078-2.351-13.298-6.708l-6.226-8.425a4.125 4.125 0 0 0-6.652 0l-6.226 8.425c-3.22 4.357-7.88 6.708-13.298 6.708h-54.114c-4.272 0-7.767-3.495-7.767-7.767v-50.597c0-4.271 3.495-7.767 7.767-7.767z" opacity="1" data-original="#fa6e85"></path><path fill="#847784" d="m165.269 177.843 8.267-49.099 55.798-24.799h41.332l55.798 24.799 8.267 49.099z" opacity="1" data-original="#847784"></path><path fill="#e33f65" d="M229.334 103.945h41.332v73.899h-41.332z" opacity="1" data-original="#e33f65"></path><path fill="#666666" d="M230.495 275.216a6.646 6.646 0 0 1 5.943-11.887c9.145 4.584 17.899 4.453 27.201-.052a6.657 6.657 0 0 1 5.787 11.99c-12.977 6.286-26.143 6.377-38.931-.051z" opacity="1" data-original="#666666"></path></g></g></svg>