<svg width="460" height="491" viewBox="0 0 460 491" fill="none" xmlns="http://www.w3.org/2000/svg">
<path d="M218.903 226.541C269.348 226.541 310.39 185.498 310.39 135.054C310.39 84.6102 269.347 43.5742 218.903 43.5742C168.459 43.5742 127.423 84.6092 127.423 135.054C127.423 185.499 168.458 226.541 218.903 226.541ZM218.903 58.9042C260.896 58.9042 295.06 93.0682 295.06 135.054C295.06 177.047 260.896 211.211 218.903 211.211C176.917 211.211 142.753 177.047 142.753 135.054C142.753 93.0682 176.917 58.9042 218.903 58.9042ZM450.645 333.861C449.644 333.97 448.675 334.275 447.792 334.759C446.909 335.242 446.13 335.895 445.5 336.68C444.869 337.465 444.399 338.366 444.117 339.333C443.835 340.299 443.747 341.312 443.856 342.312C443.901 342.709 443.886 343.068 443.886 343.472C443.886 343.884 443.901 344.295 443.856 344.707C443.739 345.778 443.849 346.862 444.179 347.887C444.509 348.913 445.052 349.858 445.771 350.659C446.491 351.461 447.372 352.102 448.356 352.54C449.34 352.979 450.406 353.205 451.483 353.203C455.345 353.203 458.669 350.291 459.096 346.369C459.201 345.403 459.216 344.438 459.216 343.472C459.216 342.499 459.201 341.631 459.096 340.65C458.64 336.443 454.86 333.426 450.645 333.861Z" fill="white"/>
<path d="M448.258 373.233C444.201 371.998 439.927 374.303 438.699 378.346C423.301 429.142 377.243 463.276 324.082 463.276C258.06 463.276 204.352 409.53 204.352 343.471C204.352 277.449 258.06 223.741 324.082 223.741C376.39 223.741 423.519 258.668 438.699 308.671C438.99 309.635 439.468 310.532 440.106 311.312C440.744 312.091 441.53 312.736 442.418 313.211C443.305 313.686 444.278 313.981 445.281 314.079C446.283 314.178 447.295 314.077 448.258 313.784C449.222 313.492 450.118 313.014 450.897 312.376C451.675 311.737 452.321 310.952 452.795 310.064C453.27 309.176 453.566 308.204 453.664 307.202C453.763 306.2 453.663 305.188 453.371 304.225C436.746 249.456 388.533 211.952 331.979 208.727C346.189 186.883 353.979 161.262 353.979 135.053C353.979 60.588 293.392 0 218.919 0C144.409 0 83.784 60.587 83.784 135.053C83.784 166.947 95.26 197.793 115.565 221.944C50.321 231.442 0 287.595 0 355.425C0 429.943 60.587 490.568 135.06 490.568C173.873 490.568 210.143 474.235 235.792 445.498C259.495 466.062 290.322 478.606 324.083 478.606C384.042 478.606 435.998 440.101 453.372 382.792C453.96 380.846 453.752 378.747 452.793 376.954C451.834 375.162 450.203 373.823 448.258 373.233ZM199.519 395.659C185.646 417.871 161.35 431.62 135.058 431.62C93.087 431.62 58.946 397.441 58.946 355.425C58.946 313.454 93.087 279.313 135.058 279.313C157.932 279.313 179.664 289.843 194.037 307.486C190.856 318.963 189.02 330.995 189.02 343.47C189.021 361.963 192.769 379.592 199.519 395.659ZM99.113 135.053C99.113 69.039 152.859 15.33 218.918 15.33C284.94 15.33 338.648 69.038 338.648 135.053C338.648 162.226 329.739 187.685 313.001 208.972C277.527 211.874 245.971 228.536 223.538 253.607C198.959 232.196 167.898 220.372 135.057 220.372C135.039 220.372 135.023 220.375 135.005 220.375C112.216 198.024 99.113 167.143 99.113 135.053ZM135.058 475.238C69.036 475.238 15.328 421.492 15.328 355.426C15.328 289.412 69.036 235.703 135.058 235.703C164.376 235.703 192.091 246.334 213.946 265.567C208.353 273.449 203.499 281.888 199.68 290.89C182.666 273.912 159.398 263.983 135.058 263.983C84.636 263.983 43.616 305.003 43.616 355.426C43.616 405.893 84.636 446.951 135.058 446.951C163.605 446.951 190.255 433.516 207.427 411.255C212.324 419.646 218.109 427.486 224.681 434.641C201.916 460.428 169.693 475.238 135.058 475.238Z" fill="white"/>
<path d="M324.111 251.996C273.666 251.996 232.631 293.039 232.631 343.483C232.631 393.927 273.666 434.963 324.111 434.963C374.556 434.963 415.591 393.928 415.591 343.483C415.591 293.038 374.556 251.996 324.111 251.996ZM324.111 419.634C282.125 419.634 247.961 385.47 247.961 343.484C247.961 301.491 282.125 267.327 324.111 267.327C366.097 267.327 400.261 301.491 400.261 343.484C400.261 385.47 366.097 419.634 324.111 419.634Z" fill="white"/>
<path d="M330.608 300.213C327.808 295.737 320.413 295.737 317.613 300.213L293.068 339.414C292.305 340.632 291.9 342.041 291.9 343.478C291.9 344.916 292.305 346.324 293.068 347.543L317.613 386.752C320.609 391.543 327.606 391.552 330.608 386.752L355.153 347.543C355.916 346.324 356.321 344.916 356.321 343.478C356.321 342.041 355.916 340.632 355.153 339.414L330.608 300.213ZM324.111 368.241L308.609 343.479L324.111 318.725L339.613 343.479L324.111 368.241ZM202.053 129.088H235.76C239.997 129.088 243.425 125.66 243.425 121.423C243.425 117.186 239.997 113.758 235.76 113.758H202.053C197.816 113.758 194.388 117.186 194.388 121.423C194.388 125.66 197.816 129.088 202.053 129.088ZM202.053 156.358H235.76C239.997 156.358 243.425 152.93 243.425 148.693C243.425 144.456 239.997 141.028 235.76 141.028H202.053C197.816 141.028 194.388 144.456 194.388 148.693C194.388 152.93 197.816 156.358 202.053 156.358ZM173.788 339.415L151.803 336.219L141.96 316.293C139.385 311.053 130.792 311.053 128.217 316.293L118.389 336.219L96.389 339.415C94.9742 339.62 93.6449 340.217 92.5512 341.137C91.4574 342.058 90.6427 343.266 90.199 344.625C89.7577 345.985 89.7055 347.442 90.0481 348.831C90.3907 350.22 91.1145 351.485 92.138 352.485L108.052 368.002L104.302 389.904C104.06 391.314 104.217 392.763 104.756 394.088C105.294 395.414 106.192 396.562 107.349 397.404C108.507 398.244 109.878 398.744 111.305 398.845C112.733 398.947 114.16 398.647 115.426 397.98L135.09 387.635L154.769 397.98C160.344 400.916 166.972 396.196 165.892 389.896L162.127 367.994L178.041 352.484C179.064 351.486 179.787 350.222 180.13 348.834C180.473 347.447 180.421 345.991 179.98 344.632C179.537 343.271 178.722 342.062 177.628 341.14C176.534 340.218 175.204 339.621 173.788 339.415ZM148.532 359.835C147.643 360.703 146.978 361.775 146.594 362.958C146.211 364.14 146.12 365.399 146.331 366.624L148.15 377.179L138.658 372.194C137.558 371.611 136.332 371.307 135.088 371.307C133.843 371.307 132.617 371.611 131.517 372.194L122.033 377.187L123.837 366.618C124.047 365.394 123.957 364.137 123.573 362.955C123.19 361.774 122.525 360.703 121.636 359.836L113.963 352.351L124.577 350.809C125.807 350.631 126.975 350.157 127.981 349.427C128.987 348.696 129.799 347.732 130.348 346.617L135.094 337.006L139.84 346.617C140.388 347.733 141.2 348.698 142.206 349.428C143.211 350.159 144.38 350.633 145.611 350.809L156.21 352.351L148.532 359.835Z" fill="white"/>
</svg>
