<svg width="507" height="509" viewBox="0 0 507 509" fill="none" xmlns="http://www.w3.org/2000/svg">
<path d="M376.846 154.667L368.507 163.003H394.952C395.648 163.002 396.338 163.139 396.982 163.406C397.625 163.672 398.21 164.062 398.702 164.555C399.195 165.047 399.585 165.632 399.851 166.275C400.118 166.919 400.255 167.609 400.254 168.305V255.751C400.254 258.682 397.883 261.053 394.952 261.053C392.021 261.053 389.65 258.682 389.65 255.751V173.607H368.512L376.845 181.943C378.916 184.014 378.916 187.369 376.845 189.44C374.774 191.511 371.419 191.511 369.348 189.44L351.985 172.072C349.913 170.021 349.87 166.643 351.962 164.551L369.349 147.17C371.42 145.099 374.775 145.099 376.846 147.17C378.917 149.241 378.917 152.596 376.846 154.667ZM168.316 352.459C167.62 352.458 166.93 352.595 166.286 352.862C165.643 353.128 165.058 353.518 164.566 354.011C164.073 354.503 163.683 355.088 163.417 355.731C163.15 356.375 163.013 357.065 163.014 357.761V413.359C163.013 414.055 163.15 414.745 163.417 415.389C163.683 416.032 164.073 416.617 164.566 417.109C165.058 417.602 165.643 417.992 166.286 418.258C166.93 418.525 167.62 418.662 168.316 418.661L233.996 418.665L225.659 427.002C223.588 429.073 223.588 432.428 225.659 434.499C227.73 436.57 231.085 436.57 233.156 434.499L250.536 417.119C252.617 415.044 252.589 411.662 250.542 409.615L233.155 392.228C231.084 390.157 227.729 390.157 225.658 392.228C223.587 394.299 223.587 397.654 225.658 399.725L233.993 408.06L173.618 408.056V357.76C173.618 357.064 173.481 356.374 173.215 355.731C172.948 355.088 172.558 354.503 172.065 354.011C171.573 353.519 170.988 353.128 170.345 352.862C169.702 352.596 169.012 352.459 168.316 352.459ZM158.96 181.053C159.452 181.545 160.037 181.936 160.68 182.202C161.323 182.469 162.012 182.606 162.708 182.606C163.405 182.606 164.094 182.469 164.737 182.202C165.38 181.936 165.965 181.545 166.457 181.053L184.418 163.092C186.489 161.021 186.489 157.666 184.418 155.595C182.347 153.524 178.992 153.524 176.921 155.595L162.708 169.808L159.71 166.81C157.639 164.739 154.284 164.739 152.213 166.81C150.142 168.881 150.142 172.236 152.213 174.307L158.96 181.053ZM484.122 415.233C483.445 418.358 482.614 421.448 481.632 424.491L490.237 429.43C496.383 432.94 498.521 440.831 494.99 447.013L488.663 457.984C485.163 464.078 477.257 466.232 471.049 462.747L462.433 457.725C460.296 460.09 458.041 462.345 455.676 464.482L460.667 473.092C464.214 479.305 462.075 487.196 455.919 490.712L444.906 497.024C438.986 500.554 431.002 498.628 427.323 492.297L422.384 483.681C419.342 484.672 416.25 485.504 413.121 486.171V496.102C413.121 503.195 407.348 508.968 400.249 508.968H387.615C380.48 508.968 374.676 503.195 374.676 496.102V486.166C371.565 485.493 368.491 484.662 365.465 483.676L360.469 492.297C357.134 498.264 349.296 500.746 342.86 497.014L331.925 490.702C325.789 487.197 323.651 479.306 327.182 473.124L332.194 464.482C329.826 462.342 327.567 460.083 325.427 457.715L316.817 462.711C310.707 466.206 302.822 464.104 299.239 458.03L292.891 447.038C289.349 440.844 291.518 432.918 297.644 429.424L306.239 424.495C305.253 421.451 304.42 418.359 303.743 415.232H293.807C286.714 415.232 280.941 409.428 280.941 402.293V389.654C280.941 382.561 286.714 376.788 293.807 376.788H303.738C304.406 373.659 305.237 370.567 306.228 367.525L297.633 362.596C291.482 359.07 289.344 351.179 292.88 345.002L299.202 333.984C302.826 327.854 310.702 325.752 316.785 329.226L325.427 334.233C327.559 331.878 329.812 329.637 332.179 327.518L327.198 318.933C323.677 312.632 325.748 304.912 331.873 301.277L342.87 294.929C349.135 291.434 356.995 293.572 360.484 299.682L365.455 308.308C368.482 307.305 371.56 306.463 374.676 305.786V295.923C374.676 288.783 380.48 282.979 387.615 282.979H400.249C407.348 282.979 413.121 288.783 413.121 295.923V305.781C416.254 306.451 419.348 307.293 422.389 308.303L427.308 299.687C430.948 293.546 438.833 291.449 444.902 294.918L455.925 301.24C462.117 304.911 464.189 312.631 460.709 318.86L455.687 327.527C458.039 329.651 460.283 331.89 462.413 334.237L470.966 329.246C477.262 325.73 485.163 327.864 488.674 333.984L494.986 345.002C498.522 351.184 496.384 359.075 490.233 362.601L481.643 367.53C482.63 370.572 483.461 373.662 484.133 376.788H493.986C501.126 376.788 506.93 382.561 506.93 389.654V402.293C506.93 409.428 501.126 415.232 493.986 415.232L484.122 415.233ZM470.215 425.05C472.182 419.774 473.627 414.394 474.507 409.067C474.711 407.828 475.349 406.701 476.307 405.888C477.265 405.076 478.48 404.63 479.736 404.63H493.985C495.321 404.63 496.325 403.626 496.325 402.295V389.656C496.325 388.387 495.295 387.393 493.985 387.393H479.736C478.478 387.392 477.261 386.945 476.302 386.13C475.343 385.316 474.705 384.187 474.501 382.945C473.609 377.5 472.174 372.158 470.219 366.998C469.773 365.82 469.761 364.521 470.187 363.335C470.612 362.148 471.446 361.153 472.539 360.526L484.955 353.402C486.006 352.801 486.394 351.336 485.783 350.27L479.471 339.257C478.85 338.185 477.374 337.828 476.225 338.454L463.969 345.61C461.732 346.91 458.879 346.413 457.233 344.43C453.479 339.951 449.549 336.042 445.552 332.817C444.567 332.022 443.899 330.9 443.668 329.655C443.438 328.411 443.66 327.125 444.294 326.029L451.491 313.613C452.102 312.521 451.724 311.076 450.585 310.403L439.634 304.123C438.542 303.502 437.128 303.911 436.47 305.019L429.387 317.43C428.082 319.719 425.286 320.676 422.853 319.744C417.724 317.743 412.398 316.29 406.963 315.41C405.721 315.207 404.592 314.569 403.777 313.61C402.962 312.651 402.515 311.433 402.515 310.175V295.926C402.515 294.616 401.521 293.586 400.247 293.586H387.613C386.993 293.587 386.399 293.834 385.962 294.273C385.524 294.712 385.278 295.306 385.278 295.926V310.175C385.278 311.431 384.832 312.646 384.02 313.604C383.207 314.562 382.08 315.2 380.841 315.404C375.426 316.293 370.12 317.748 365.008 319.743C362.569 320.68 359.789 319.727 358.484 317.449L351.287 304.96C350.666 303.868 349.242 303.515 348.108 304.152L337.225 310.432C336.138 311.074 335.76 312.519 336.412 313.684L343.573 326.028C344.208 327.124 344.429 328.411 344.198 329.656C343.966 330.901 343.296 332.022 342.31 332.816C338.044 336.264 334.144 340.142 330.671 344.388C329.873 345.362 328.754 346.02 327.516 346.244C326.277 346.469 324.998 346.246 323.909 345.615L311.493 338.418C310.432 337.802 309.018 338.216 308.361 339.319L302.081 350.275C301.462 351.361 301.885 352.815 302.909 353.397L315.33 360.527C316.423 361.155 317.257 362.152 317.682 363.339C318.107 364.525 318.096 365.825 317.65 367.004C315.69 372.159 314.255 377.498 313.368 382.941C313.166 384.184 312.528 385.314 311.569 386.13C310.61 386.946 309.392 387.394 308.133 387.394H293.806C293.206 387.395 292.631 387.633 292.206 388.057C291.782 388.482 291.544 389.057 291.543 389.657V402.296C291.543 403.606 292.537 404.631 293.806 404.631H308.133C309.39 404.63 310.606 405.076 311.564 405.89C312.523 406.704 313.16 407.832 313.362 409.073C314.237 414.401 315.682 419.775 317.654 425.046C318.096 426.223 318.104 427.519 317.678 428.702C317.252 429.885 316.42 430.878 315.329 431.503L302.913 438.627C301.854 439.232 301.472 440.691 302.085 441.759L308.391 452.684C309.017 453.745 310.426 454.144 311.523 453.523L323.908 446.336C324.996 445.706 326.272 445.483 327.51 445.706C328.747 445.928 329.865 446.583 330.665 447.553C334.17 451.824 338.085 455.739 342.356 459.244C343.326 460.044 343.98 461.162 344.203 462.399C344.426 463.637 344.203 464.913 343.573 466.001L336.371 478.417C335.781 479.453 336.159 480.913 337.205 481.508L348.171 487.835C349.28 488.488 350.64 488.151 351.252 487.048L358.49 474.56C359.122 473.474 360.119 472.648 361.303 472.227C362.487 471.806 363.781 471.818 364.957 472.261C370.094 474.215 375.414 475.651 380.837 476.548C382.078 476.75 383.206 477.387 384.02 478.346C384.834 479.304 385.28 480.52 385.279 481.777V496.104C385.279 497.352 386.325 498.367 387.614 498.367H400.248C400.849 498.368 401.425 498.129 401.851 497.705C402.276 497.281 402.515 496.705 402.516 496.104V481.777C402.516 480.518 402.965 479.3 403.78 478.341C404.596 477.382 405.726 476.744 406.969 476.542C412.412 475.655 417.751 474.22 422.906 472.26C424.085 471.812 425.385 471.8 426.573 472.225C427.76 472.65 428.756 473.485 429.383 474.58L436.507 486.996C437.125 488.061 438.474 488.515 439.567 487.866L450.652 481.513C451.703 480.912 452.081 479.452 451.475 478.386L444.294 466.001C443.664 464.914 443.44 463.638 443.663 462.402C443.886 461.165 444.541 460.048 445.511 459.249C449.781 455.742 453.696 451.824 457.202 447.553C458.002 446.58 459.123 445.924 460.363 445.703C461.603 445.482 462.882 445.71 463.969 446.347L476.307 453.549C477.363 454.144 478.854 453.777 479.465 452.7L485.792 441.739C486.387 440.693 486.009 439.228 484.964 438.632L472.538 431.502C471.449 430.876 470.618 429.884 470.193 428.702C469.767 427.521 469.775 426.226 470.215 425.05ZM122.644 168.311C122.644 143.137 143.127 122.654 168.301 122.654C193.496 122.654 213.989 143.137 213.989 168.311C213.989 193.506 193.496 213.999 168.301 213.999C143.126 213.998 122.644 193.505 122.644 168.311ZM133.247 168.311C133.247 187.655 148.972 203.395 168.3 203.395C187.644 203.395 203.384 187.655 203.384 168.311C203.384 148.983 187.644 133.258 168.3 133.258C148.972 133.258 133.247 148.982 133.247 168.311ZM16.755 141.987H34.007C35.2118 135.886 36.8258 129.873 38.838 123.989L23.9 115.415C15.878 110.828 13.166 100.466 17.713 92.504L27.281 75.827C31.987 67.853 42.244 65.089 50.187 69.635L65.171 78.323C69.261 73.653 73.662 69.278 78.312 65.255L69.655 50.322C65.135 42.26 67.895 31.972 75.77 27.312L92.38 17.718C100.53 13.172 110.776 15.963 115.312 23.905L123.964 38.91C129.813 36.8582 135.8 35.2215 141.879 34.012V16.864C141.879 7.565 149.449 0 158.748 0H177.869C187.106 0 194.624 7.565 194.624 16.864V34.002C200.736 35.2047 206.754 36.8433 212.632 38.905L221.191 23.91C225.913 15.931 236.18 13.182 244.102 17.707L260.784 27.275C268.721 31.971 271.481 42.259 266.997 50.253L258.304 65.258C262.788 69.162 267.179 73.537 271.414 78.332L286.279 69.659C294.47 65.056 304.784 67.857 309.34 75.831L318.898 92.503C323.506 100.559 320.726 110.837 312.705 115.419L297.778 123.988C299.79 129.872 301.404 135.885 302.609 141.986H319.747C329.046 141.986 336.616 149.504 336.616 158.741V177.862C336.616 187.161 329.046 194.731 319.747 194.731H302.599C301.383 200.828 299.767 206.838 297.763 212.723L312.716 221.302C320.69 225.862 323.478 236.198 318.903 244.208L309.33 260.797C304.784 268.745 294.465 271.541 286.362 266.995L271.435 258.291C267.35 262.961 262.959 267.352 258.289 271.437L266.962 286.39C271.58 294.472 268.8 304.75 260.78 309.337L244.108 318.89C236.361 323.487 226 320.988 221.207 312.734L212.622 297.771C206.738 299.785 200.725 301.401 194.624 302.607V319.854C194.624 329.091 187.106 336.609 177.869 336.609H158.748C149.449 336.609 141.879 329.091 141.879 319.854V302.597C135.81 301.387 129.829 299.773 123.975 297.766L115.297 312.735C110.868 320.637 100.644 323.676 92.37 318.881L75.817 309.328C67.818 304.751 65.037 294.473 69.64 286.422L78.328 271.438C73.6548 267.35 69.2597 262.955 65.172 258.282L50.219 266.96C42.24 271.496 31.988 268.757 27.318 260.845L17.724 244.23C13.165 236.252 15.872 225.894 23.911 221.298L38.854 212.724C36.8501 206.839 35.2347 200.829 34.018 194.732H16.755C7.518 194.732 0 187.162 0 177.863V158.742C0 149.505 7.518 141.987 16.755 141.987ZM10.604 177.863C10.604 181.379 13.307 184.128 16.755 184.128H38.439C39.6958 184.128 40.9118 184.575 41.8697 185.388C42.8275 186.202 43.4649 187.33 43.668 188.57C45.019 196.792 47.251 205.097 50.295 213.262C50.735 214.438 50.7428 215.733 50.3169 216.914C49.8911 218.096 49.0593 219.088 47.97 219.713L29.18 230.498C26.212 232.196 25.279 236.093 26.917 238.943L36.47 255.496C38.189 258.401 41.989 259.436 44.925 257.769L63.684 246.886C64.772 246.254 66.0493 246.03 67.2873 246.254C68.5253 246.478 69.6432 247.135 70.441 248.108C75.8557 254.706 81.9065 260.755 88.506 266.168C89.4758 266.968 90.1303 268.086 90.3531 269.323C90.576 270.561 90.3527 271.837 89.723 272.925L78.829 291.715C77.172 294.609 78.203 298.477 81.097 300.134L97.681 309.702C100.745 311.476 104.44 310.411 106.084 307.486L117.019 288.619C117.651 287.533 118.648 286.707 119.832 286.286C121.016 285.865 122.31 285.877 123.486 286.32C131.433 289.335 139.659 291.555 148.044 292.947C149.283 293.151 150.41 293.789 151.223 294.747C152.035 295.705 152.481 296.92 152.481 298.176V319.855C152.481 323.246 155.292 326.006 158.746 326.006H177.867C179.498 326.004 181.061 325.355 182.214 324.202C183.367 323.049 184.016 321.486 184.018 319.855V298.176C184.018 296.918 184.466 295.701 185.281 294.742C186.095 293.783 187.224 293.145 188.466 292.941C196.887 291.565 205.149 289.347 213.127 286.319C214.306 285.872 215.606 285.86 216.793 286.285C217.98 286.71 218.977 287.545 219.604 288.639L230.389 307.434C232.116 310.414 235.846 311.45 238.766 309.733L255.511 300.139C258.409 298.481 259.449 294.616 257.768 291.684L246.89 272.925C246.26 271.837 246.037 270.561 246.26 269.323C246.482 268.086 247.137 266.968 248.107 266.168C254.707 260.756 260.758 254.706 266.172 248.108C267.829 246.099 270.692 245.571 272.939 246.896L291.62 257.795C294.545 259.426 298.475 258.411 300.132 255.517L309.705 238.928C311.367 236.023 310.337 232.156 307.442 230.504L288.642 219.714C287.553 219.089 286.721 218.097 286.295 216.915C285.869 215.734 285.877 214.439 286.317 213.263C289.361 205.098 291.593 196.793 292.944 188.571C293.147 187.331 293.784 186.203 294.742 185.389C295.7 184.576 296.916 184.129 298.173 184.129H319.743C323.259 184.129 326.008 181.38 326.008 177.864V158.743C326.008 155.295 323.259 152.592 319.743 152.592H298.173C296.914 152.592 295.696 152.143 294.737 151.328C293.778 150.512 293.14 149.382 292.938 148.139C291.563 139.718 289.346 131.456 286.321 123.478C285.875 122.3 285.863 121.001 286.289 119.815C286.714 118.628 287.548 117.633 288.641 117.006L307.431 106.221C310.355 104.549 311.354 100.677 309.694 97.771L300.136 81.099C298.479 78.205 294.544 77.18 291.536 78.862L272.938 89.714C270.706 91.034 267.859 90.522 266.197 88.533C260.434 81.636 254.366 75.599 248.148 70.582C247.163 69.7866 246.495 68.6653 246.264 67.4205C246.034 66.1758 246.256 64.8895 246.89 63.794L257.784 44.999C259.436 42.058 258.405 38.185 255.449 36.435L238.834 26.908C235.898 25.236 232.103 26.287 230.353 29.238L219.611 48.065C218.978 49.1689 217.97 50.0091 216.77 50.4328C215.57 50.8566 214.258 50.8357 213.072 50.374C205.233 47.304 196.959 45.046 188.473 43.669C187.23 43.4668 186.1 42.8292 185.284 41.8701C184.468 40.911 184.02 39.6931 184.02 38.434V16.864C184.02 13.354 181.317 10.604 177.869 10.604H158.748C155.294 10.604 152.483 13.41 152.483 16.864V38.434C152.483 39.6907 152.036 40.9065 151.222 41.8643C150.409 42.822 149.281 43.4596 148.041 43.663C139.601 45.056 131.359 47.313 123.545 50.373C122.363 50.8375 121.054 50.8618 119.855 50.4417C118.657 50.0215 117.649 49.1848 117.016 48.084L106.117 29.18C104.439 26.255 100.644 25.235 97.62 26.938L81.119 36.465C78.209 38.184 77.179 42.057 78.867 45.065L89.725 63.793C90.3594 64.8885 90.5813 66.1748 90.3506 67.4195C90.1199 68.6643 89.4518 69.7856 88.467 70.581C81.928 75.857 75.865 81.889 70.449 88.496C69.651 89.47 68.5326 90.1283 67.2937 90.3531C66.0548 90.5779 64.7763 90.3546 63.687 89.723L44.896 78.825C42.002 77.163 38.191 78.209 36.441 81.16L26.914 97.775C25.267 100.658 26.245 104.539 29.171 106.215L47.971 117.005C49.0639 117.632 49.8976 118.628 50.3228 119.814C50.748 121 50.7367 122.299 50.291 123.477C47.266 131.455 45.0492 139.717 43.674 148.138C43.4718 149.381 42.8342 150.511 41.8751 151.327C40.916 152.143 39.6981 152.591 38.439 152.591H16.755C15.1243 152.593 13.561 153.242 12.4079 154.395C11.2548 155.548 10.6061 157.111 10.604 158.742V177.863ZM92.479 168.316C92.479 126.506 126.507 92.489 168.327 92.489C210.137 92.489 244.154 126.506 244.154 168.316C244.154 210.136 210.137 244.164 168.327 244.164C126.506 244.163 92.479 210.136 92.479 168.316ZM103.082 168.316C103.082 204.29 132.351 233.56 168.326 233.56C204.29 233.56 233.549 204.291 233.549 168.316C233.549 132.352 204.29 103.093 168.326 103.093C132.352 103.093 103.082 132.352 103.082 168.316ZM437.466 395.983C437.466 419.987 417.941 439.517 393.943 439.517C369.939 439.517 350.409 419.987 350.409 395.983C350.409 371.985 369.939 352.46 393.943 352.46C417.941 352.459 437.466 371.984 437.466 395.983ZM426.862 395.983C426.862 377.83 412.095 363.063 393.942 363.063C375.784 363.063 361.012 377.83 361.012 395.983C361.012 414.141 375.784 428.913 393.942 428.913C412.096 428.913 426.862 414.141 426.862 395.983Z" fill="white"/>
</svg>
