<svg xmlns="http://www.w3.org/2000/svg" version="1.1" xmlns:xlink="http://www.w3.org/1999/xlink" width="512" height="512" x="0" y="0" viewBox="0 0 64 64" style="enable-background:new 0 0 512 512" xml:space="preserve"><g><path fill="#dfb28b" d="M60 30H4c-1.1 0-2 .9-2 2v24c0 1.1.9 2 2 2h56c1.1 0 2-.9 2-2V32c0-1.1-.9-2-2-2z" opacity="1" data-original="#dfb28b"></path><path fill="#fcd770" d="M28 46h8v8h-8z" opacity="1" data-original="#fcd770"></path><path fill="#ff826e" d="M14 50h4v4h-4zM6 50h4v4H6z" opacity="1" data-original="#ff826e"></path><circle cx="56" cy="52" r="2" fill="#ff826e" opacity="1" data-original="#ff826e"></circle><circle cx="48" cy="52" r="2" fill="#ff826e" opacity="1" data-original="#ff826e"></circle><path fill="#e6e9ed" d="M40 34h18v8H40zM24 34v8H6v-8h15z" opacity="1" data-original="#e6e9ed"></path><path fill="#fcd770" d="M62 7v10H50c-1.1 0-2-.9-2-2V9c0-.34.09-.67.24-.95.34-.62 1-1.05 1.76-1.05z" opacity="1" data-original="#fcd770"></path><path fill="#f0d0b4" d="M48 9v6l-2.74 2.05c-.83.63-1.77 1.12-2.76 1.45s-2.03.5-3.08.5H29c-.55 0-1.05-.22-1.41-.59-.37-.36-.59-.86-.59-1.41 0-2.21 1.79-4 4-4-1.31 0-2.61.32-3.76.94l-4.78 2.55-6.32 3.37-1.61.86c-.35.18-.74.28-1.13.28-.66 0-1.26-.27-1.7-.7a2.43 2.43 0 0 1-.7-1.7v-.25c0-.84.44-1.62 1.15-2.05L26.6 7.47A9.982 9.982 0 0 1 31.81 6h9.65c1.02 0 2.03.19 2.97.57L48 8l.24.05c-.15.28-.24.61-.24.95z" opacity="1" data-original="#f0d0b4"></path><path fill="#ff826e" d="m28.5 22.5-1.79 1.79c-.46.46-.71 1.07-.71 1.71s.25 1.25.71 1.71l.79.79-4.79 4.79c-.46.46-1.07.71-1.71.71s-1.25-.25-1.71-.71L16 30l-3.29-3.29c-.46-.46-.71-1.07-.71-1.71s.25-1.25.71-1.71l3.43-3.43 6.32-3.37c.08.06.17.14.25.22z" opacity="1" data-original="#ff826e"></path><path fill="#ff826e" d="M43.29 24.29c.46.46.71 1.07.71 1.71s-.25 1.25-.71 1.71L41 30l-4.29 4.29c-.46.46-1.07.71-1.71.71s-1.25-.25-1.71-.71L27.5 28.5l-.79-.79c-.46-.46-.71-1.07-.71-1.71s.25-1.25.71-1.71l1.79-1.79L32 19h6z" opacity="1" data-original="#ff826e"></path><circle cx="35" cy="26" r="2" fill="#fcd770" opacity="1" data-original="#fcd770"></circle><path d="M27 55h10V45H27zm2-2v-2h6v2zm6-6v2h-6v-2z" fill="#000000" opacity="1" data-original="#000000"></path><path d="m45.864 17.851 1.625-1.219A2.995 2.995 0 0 0 50 18h13V6H50a2.99 2.99 0 0 0-2.116.876l-3.082-1.233A8.994 8.994 0 0 0 41.459 5h-9.646c-2.025 0-4.009.558-5.735 1.614l-14.451 8.831A3.42 3.42 0 0 0 10 18.346v.254a3.402 3.402 0 0 0 2.669 3.316l-.669.669c-.645.645-1 1.502-1 2.415s.355 1.77 1 2.414L13.586 29H4c-1.654 0-3 1.346-3 3v24c0 1.654 1.346 3 3 3h56c1.654 0 3-1.346 3-3V32c0-1.654-1.346-3-3-3H43.414l.586-.585c.645-.645 1-1.502 1-2.415s-.355-1.77-1-2.414l-3.631-3.631a10.746 10.746 0 0 0 2.447-.506 10.742 10.742 0 0 0 3.048-1.598zM49 9c0-.551.448-1 1-1h11v8H50c-.552 0-1-.449-1-1zM13 25a1.4 1.4 0 0 1 .414-1l3.329-3.33 5.552-2.961 4.79 4.79L26 23.585c-.645.645-1 1.502-1 2.415s.355 1.77 1 2.414l.086.086L22 32.585c-.535.535-1.465.535-2 0L13.414 26A1.4 1.4 0 0 1 13 25zm16-5h.586L28.5 21.086l-4.36-4.36 2.079-1.109c-.128.442-.219.9-.219 1.383 0 1.654 1.346 3 3 3zm-6 15v6h-4v-6zM7 41v-6h4v6zm6-6h4v6h-4zm47-4c.552 0 1 .449 1 1v24c0 .551-.448 1-1 1H4c-.552 0-1-.449-1-1V32c0-.551.448-1 1-1h11.586l2 2H5v10h20V33h-.586l3.086-3.086L32.586 35c.646.645 1.503 1 2.414 1s1.769-.355 2.414-1L39 33.414V43h20V33H39.414l2-2zm-3 4v6h-4v-6zm-6 6h-4v-6h4zm-6 0h-4v-6h4zm-2-15a1.4 1.4 0 0 1-.414 1L36 33.585c-.535.535-1.465.535-2 0L27.414 27c-.268-.267-.414-.622-.414-1s.146-.733.414-1l5-5h5.172l5 5A1.4 1.4 0 0 1 43 26zm-3.581-8H29c-.552 0-1-.449-1-1 0-1.654 1.346-3 3-3h8v-2h-8a9.018 9.018 0 0 0-4.235 1.059L14.06 19.835A1.402 1.402 0 0 1 12 18.6v-.254c0-.484.257-.942.67-1.194L27.121 8.32A8.998 8.998 0 0 1 31.813 7h9.646c.895 0 1.77.168 2.601.501l2.972 1.189c-.011.103-.032.204-.032.31v5.5l-2.335 1.751A8.757 8.757 0 0 1 39.419 18z" fill="#000000" opacity="1" data-original="#000000"></path><path d="M35 23c-1.654 0-3 1.346-3 3s1.346 3 3 3 3-1.346 3-3-1.346-3-3-3zm0 4a1.001 1.001 0 0 1 0-2 1.001 1.001 0 0 1 0 2z" fill="#000000" opacity="1" data-original="#000000"></path><circle cx="16" cy="25" r="1" fill="#000000" opacity="1" data-original="#000000"></circle><circle cx="21" cy="30" r="1" fill="#000000" opacity="1" data-original="#000000"></circle><circle cx="21" cy="25" r="1" fill="#000000" opacity="1" data-original="#000000"></circle><circle cx="21" cy="20" r="1" fill="#000000" opacity="1" data-original="#000000"></circle><path d="M56 49c-1.654 0-3 1.346-3 3s1.346 3 3 3 3-1.346 3-3-1.346-3-3-3zm0 4a1.001 1.001 0 0 1 0-2 1.001 1.001 0 0 1 0 2zM48 49c-1.654 0-3 1.346-3 3s1.346 3 3 3 3-1.346 3-3-1.346-3-3-3zm0 4a1.001 1.001 0 0 1 0-2 1.001 1.001 0 0 1 0 2zM5 55h6v-6H5zm2-4h2v2H7zM13 55h6v-6h-6zm2-4h2v2h-2z" fill="#000000" opacity="1" data-original="#000000"></path></g></svg>