<svg xmlns="http://www.w3.org/2000/svg" version="1.1" xmlns:xlink="http://www.w3.org/1999/xlink" width="512" height="512" x="0" y="0" viewBox="0 0 505.301 492.24" style="enable-background:new 0 0 512 512" xml:space="preserve"><g><g data-name="Layer 31"><path fill="#efcdb1" d="m486.247 492.24 1.516-153.472a63.624 63.624 0 0 0-14.609-41.2c-33.865-40.92-113.911-140.683-113.911-140.683 0 29.554-83.558 237.626-86.139 234.879 6.871 61.213 33.373 80.969 33.373 80.969l-.363 19.507" opacity="1" data-original="#efcdb1"></path><rect width="215.807" height="299.145" x="61.068" y="37.913" fill="#cccdce" rx="19.592" transform="rotate(-37.72 168.949 187.422)" opacity="1" data-original="#cccdce"></rect><path fill="#af0e0e" d="M103.041 128.152c.359.418.687.861 1 1.313a38.8 38.8 0 0 0-4.7 41.183c-.254.242-.535.472-.815.7s-.562.459-.85.66a38.816 38.816 0 0 0-41.295-3.586c-.379-.4-.749-.811-1.087-1.246a38.8 38.8 0 0 0 3.711-43.2c.147-.138.314-.274.47-.4s.322-.263.487-.381a38.779 38.779 0 0 0 43.079 4.957z" opacity="1" data-original="#af0e0e"></path><rect width="215.807" height="299.145" x="144.547" y="16.595" fill="#d6d6d6" rx="19.592" transform="rotate(-9.5 252.145 166.006)" opacity="1" data-original="#d6d6d6"></rect><g fill="#af0e0e"><path d="M307 224.35c3-5.1 14.467-22.12 30.824-15.759 17.042 6.626 13.735 27.185 5.733 38.018l-21.026 32.413-33.964-15.31c-12.592-4.78-26.5-20.278-15.754-35.073 9.958-13.712 27.883-6.63 33.862-3.725.089-.166.197-.355.325-.564zM246.275 144.12c3-5.1 14.467-22.12 30.824-15.759 17.042 6.626 13.735 27.185 5.733 38.018l-21.027 32.413-33.963-15.31c-12.592-4.779-26.5-20.278-15.754-35.073 9.958-13.712 27.883-6.63 33.862-3.725.094-.166.202-.355.325-.564zM186.052 63.657c3-5.1 14.468-22.12 30.825-15.759 17.041 6.626 13.734 27.185 5.732 38.018l-21.026 32.413-33.964-15.31c-12.592-4.779-26.5-20.278-15.754-35.073 9.958-13.712 27.883-6.63 33.862-3.725.094-.166.202-.355.325-.564z" fill="#af0e0e" opacity="1" data-original="#af0e0e"></path></g><rect width="215.807" height="299.145" x="94.924" y="158.462" fill="#e0e1e2" rx="19.592" transform="rotate(-43.78 202.85 308.005)" opacity="1" data-original="#e0e1e2"></rect><path fill="#3d3937" d="M292.733 333.351s-15.909 3.056-26.588 2.58c-20.017-.891-35.171-11.923-35.171-11.923s57.753-11.979 43.071-48.794c-16.305-40.885-58.61-16.424-58.61-16.424s-28.467-45.228-68.287-8.849c-37.331 34.1 5.945 68.6 5.945 68.6s-26.232 41.229 13.924 59.254c36.159 16.23 50.576-40.964 50.576-40.964s10.38 15.609 10.422 35.646c.022 10.689-3.706 26.454-3.706 26.454z" opacity="1" data-original="#3d3937"></path><rect width="215.807" height="299.145" x="253.329" y="21.077" fill="#ebeced" rx="19.592" transform="rotate(18.2 361.423 170.66)" opacity="1" data-original="#ebeced"></rect><path fill="#3d3937" d="M373.2 264.851s-8.169-10.285-13.744-28.631c-3.362-11.066-4.465-35.063-4.465-35.063s23.66 39.062 62.487 17.2c45.292-25.5-25.116-133.926-25.116-133.926l-.13-.2-.38.108s-124.33 35.427-106.962 84.418c14.889 42 58.4 28.113 58.4 28.113s-16.606 17.359-26.413 23.488c-16.261 10.162-29.178 12.543-29.178 12.543z" opacity="1" data-original="#3d3937"></path><path fill="#efcdb1" d="m425.746 337.306-79.741-56.866-13.642-9.721a23.04 23.04 0 0 0-15.479-4.754 24.931 24.931 0 0 0-17.316 8.338 22.8 22.8 0 0 0-2.356 3.157 22.164 22.164 0 0 0-2.779 6.281 21.685 21.685 0 0 0 .741 13.8 20.938 20.938 0 0 0 6.135 8.426l51.561 50.119a210.608 210.608 0 0 0 5.22 60.939c3.008 12.228 7.556 24.79 14.4 36.107a94.682 94.682 0 0 0 5.5 8.141" opacity="1" data-original="#efcdb1"></path><path fill="#f4c29d" d="M446.73 367.89h-.007a3.976 3.976 0 0 1-3.763-3.342 34.489 34.489 0 0 0-5.646-13.941 37.932 37.932 0 0 0-12.776-11.451 4.008 4.008 0 0 1-1.813-4.941 4 4 0 0 1 5.7-2.045 46.038 46.038 0 0 1 15.5 13.939 42.366 42.366 0 0 1 6.931 17.167 4 4 0 0 1-4.126 4.614zM382.758 460.985a4 4 0 0 1-6.045-.688c-2.714-4.051-7.238-11.87-13.037-25.782-10.036-24.075-10.566-61.969-10.445-74.477a4 4 0 0 1 4.14-3.955 4 4 0 0 1 3.871 4.022c-.086 11.992.467 48.9 9.818 71.332 5.615 13.471 9.952 20.861 12.316 24.4a3.993 3.993 0 0 1-.615 5.143z" opacity="1" data-original="#f4c29d"></path></g></g></svg>