<svg xmlns="http://www.w3.org/2000/svg" version="1.1" xmlns:xlink="http://www.w3.org/1999/xlink" width="512" height="512" x="0" y="0" viewBox="0 0 512 512" style="enable-background:new 0 0 512 512" xml:space="preserve"><g><circle cx="256" cy="256" r="256" style="" fill="#f7a16e" data-original="#f7a16e"></circle><path d="M256 512c141.385 0 256-114.615 256-256 0-81.808-38.374-154.652-98.103-201.517-10.779 12.137-10.358 30.723 1.269 42.351 42.515 42.516 65.928 99.042 65.928 159.166s-23.414 116.65-65.928 159.166S316.124 481.095 256 481.095s-116.65-23.414-159.166-65.928c-11.629-11.629-30.214-12.048-42.352-1.269C101.348 473.626 174.192 512 256 512z" style="" fill="#b66652" data-original="#b66652"></path><path d="M430.824 155.065a203.43 203.43 0 0 0-73.89-73.89L256 54.085c-36.743 0-71.223 9.87-100.935 27.092l-73.89 73.89c-17.22 29.71-27.09 64.19-27.09 100.933l27.092 100.935a203.43 203.43 0 0 0 73.89 73.89L256 457.915c36.743 0 71.223-9.87 100.935-27.092l73.89-73.89c17.221-29.711 27.092-64.192 27.092-100.935l-27.093-100.933z" style="" fill="#4d5967" data-original="#4d5967"></path><path d="M54.085 256c0 36.743 9.87 71.223 27.092 100.935L256 256H54.085zM155.065 81.176a203.43 203.43 0 0 0-73.89 73.89L256 256 155.065 81.176zM356.935 81.176C327.223 63.955 292.743 54.085 256 54.085V256L356.935 81.176zM155.065 430.824c29.712 17.222 64.192 27.092 100.935 27.092V256L155.065 430.824z" style="" fill="#ff5368" data-original="#ff5368"></path><path d="M155.065 430.824c29.712 17.222 64.192 27.092 100.935 27.092V256L155.065 430.824zM256 256h201.915c0-36.743-9.87-71.223-27.092-100.935L256 256z" style="" fill="#ff5368" data-original="#ff5368"></path><path d="M356.935 430.824a203.43 203.43 0 0 0 73.89-73.89L256 256l100.935 174.824z" style="" fill="#4fe267" data-original="#4fe267"></path><path d="m457.915 256-27.092-100.935a203.43 203.43 0 0 0-73.89-73.89l-29.851-8.012c-3.543 13.17 1.991 27.586 14.352 34.75C394.22 138.508 427.01 195.25 427.01 256c0 30.018-7.927 59.562-22.926 85.438C373.493 394.22 316.751 427.01 256 427.01c-30.017 0-59.561-7.927-85.437-22.925-14.076-8.158-31.905-3.963-40.957 9.232a202.773 202.773 0 0 0 25.459 17.506L256 457.915c36.743 0 71.223-9.87 100.935-27.092l73.89-73.89c17.22-29.71 27.09-64.19 27.09-100.933z" style="" fill="#35404a" data-original="#35404a"></path><path d="M329.086 67.793c-6.943 14.413-1.72 31.967 12.351 40.121l.045.027 15.453-26.765a201.269 201.269 0 0 0-27.849-13.383zM170.517 404.061l-15.452 26.763c29.712 17.222 64.192 27.092 100.935 27.092V427.01c-30.017 0-59.561-7.927-85.437-22.925-.014-.009-.031-.016-.046-.024z" style="" fill="#d9435b" data-original="#d9435b"></path><path d="M356.935 430.824a203.43 203.43 0 0 0 73.89-73.89l-26.766-15.453c-15.279 26.344-37.073 47.704-62.628 62.489l15.504 26.854z" style="" fill="#00bd4f" data-original="#00bd4f"></path><path d="M403.97 170.57c14.824 25.623 23.04 55.024 23.04 85.43h30.905c0-36.743-9.87-71.223-27.092-100.935L403.97 170.57z" style="" fill="#d9435b" data-original="#d9435b"></path><path d="M256 334.294c-42.541 0-78.294-34.776-78.294-78.294 0-43.171 35.123-78.294 78.294-78.294s78.294 35.123 78.294 78.294c0 43.641-35.879 78.294-78.294 78.294z" style="" fill="#f7a16e" data-original="#f7a16e"></path><path d="M334.294 256c0-32.694-20.151-60.758-48.68-72.46-7.99 12.005-6.693 28.363 3.895 38.951 18.477 18.477 18.477 48.541 0 67.018s-48.541 18.477-67.018 0c-10.581-10.583-26.928-11.885-38.931-3.911 11.811 28.668 40.163 48.696 72.439 48.696 42.416 0 78.295-34.653 78.295-78.294z" style="" fill="#b66652" data-original="#b66652"></path><path d="M296.177 241.475c-5.178 0-9.712 2.719-12.283 6.798h-20.168v-20.168c4.079-2.572 6.798-7.105 6.798-12.283 0-8.021-6.504-14.525-14.525-14.525s-14.525 6.504-14.525 14.525c0 5.178 2.719 9.712 6.798 12.283v20.168h-20.168c-2.572-4.08-7.105-6.798-12.283-6.798-8.021 0-14.525 6.504-14.525 14.525s6.505 14.525 14.525 14.525c5.178 0 9.712-2.719 12.283-6.798h20.168v20.168c-4.08 2.572-6.798 7.105-6.798 12.283 0 8.021 6.504 14.525 14.525 14.525s14.525-6.504 14.525-14.525c0-5.178-2.719-9.712-6.798-12.283v-20.168h20.168c2.572 4.079 7.105 6.798 12.283 6.798 8.021 0 14.525-6.504 14.525-14.525s-6.504-14.525-14.525-14.525z" style="" fill="#fff9eb" data-original="#fff9eb"></path><circle cx="144.74" cy="144.74" r="15.453" style="" fill="#fff9eb" data-original="#fff9eb"></circle></g></svg>