<svg xmlns="http://www.w3.org/2000/svg" version="1.1" xmlns:xlink="http://www.w3.org/1999/xlink" width="512" height="512" x="0" y="0" viewBox="0 0 510 510" style="enable-background:new 0 0 512 512" xml:space="preserve" class=""><g><linearGradient id="h" x1="462.689" x2="482.364" y1="221.348" y2="221.348" gradientUnits="userSpaceOnUse"><stop offset="0" stop-color="#e4f2ff"></stop><stop offset="1" stop-color="#b2cbff"></stop></linearGradient><linearGradient id="a"><stop offset="0" stop-color="#3f3ced" stop-opacity="0"></stop><stop offset=".28" stop-color="#3c3de4" stop-opacity=".28"></stop><stop offset=".731" stop-color="#3541cc" stop-opacity=".731"></stop><stop offset="1" stop-color="#2f43bb"></stop></linearGradient><linearGradient xlink:href="#a" id="i" x1="502.356" x2="451.398" y1="173.208" y2="121.908" gradientUnits="userSpaceOnUse"></linearGradient><linearGradient id="j" x1="456.875" x2="506.946" y1="102.531" y2="152.603" gradientUnits="userSpaceOnUse"><stop offset="0" stop-color="#91f27f"></stop><stop offset="1" stop-color="#00b302"></stop></linearGradient><linearGradient id="k" x1="475.191" x2="440.205" y1="120.847" y2="85.861" gradientUnits="userSpaceOnUse"><stop offset="0" stop-color="#91f27f" stop-opacity="0"></stop><stop offset="1" stop-color="#ffed82"></stop></linearGradient><linearGradient id="l" x1="469.871" x2="572.956" y1="132.825" y2="49.093" gradientUnits="userSpaceOnUse"><stop offset="0" stop-color="#005a01" stop-opacity="0"></stop><stop offset="1" stop-color="#005a01"></stop></linearGradient><linearGradient id="b"><stop offset="0" stop-color="#9b62cd"></stop><stop offset=".3" stop-color="#985dcb"></stop><stop offset=".672" stop-color="#8f4ec7"></stop><stop offset="1" stop-color="#833ac1"></stop></linearGradient><linearGradient xlink:href="#b" id="m" x1="468.082" x2="468.082" y1="302.773" y2="351.436" gradientUnits="userSpaceOnUse"></linearGradient><linearGradient id="c"><stop offset="0" stop-color="#833ac1" stop-opacity="0"></stop><stop offset="1" stop-color="#6e566e"></stop></linearGradient><linearGradient xlink:href="#c" id="n" x1="476.932" x2="432.844" y1="327.274" y2="303.97" gradientUnits="userSpaceOnUse"></linearGradient><linearGradient id="d"><stop offset="0" stop-color="#ff7044"></stop><stop offset="1" stop-color="#f82814"></stop></linearGradient><linearGradient xlink:href="#d" id="o" x1="428.726" x2="428.726" y1="296.65" y2="370.357" gradientUnits="userSpaceOnUse"></linearGradient><linearGradient id="e"><stop offset="0" stop-color="#f82814" stop-opacity="0"></stop><stop offset="1" stop-color="#c0272d"></stop></linearGradient><linearGradient xlink:href="#e" id="p" x1="445.964" x2="376.009" y1="333.39" y2="296.414" gradientUnits="userSpaceOnUse"></linearGradient><linearGradient xlink:href="#d" id="q" x1="209.954" x2="209.954" y1="92.082" y2="182.38" gradientUnits="userSpaceOnUse"></linearGradient><linearGradient id="r" x1="211.411" x2="177.977" y1="128.338" y2="81.985" gradientUnits="userSpaceOnUse"><stop offset="0" stop-color="#ff7044" stop-opacity="0"></stop><stop offset="1" stop-color="#ffa325"></stop></linearGradient><linearGradient xlink:href="#e" id="s" x1="230.089" x2="230.089" y1="79.826" y2="170.125" gradientUnits="userSpaceOnUse"></linearGradient><linearGradient id="t" x1="209.954" x2="209.954" y1="109.976" y2="27.352" gradientUnits="userSpaceOnUse"><stop offset="0" stop-color="#fff" stop-opacity="0"></stop><stop offset="1" stop-color="#fff"></stop></linearGradient><linearGradient id="u" x1="209.954" x2="209.954" y1="136.974" y2="182.927" gradientUnits="userSpaceOnUse"><stop offset="0" stop-color="#8a7889"></stop><stop offset="1" stop-color="#6e566e"></stop></linearGradient><linearGradient id="v" x1="223.409" x2="178.242" y1="171.761" y2="106.884" gradientUnits="userSpaceOnUse"><stop offset="0" stop-color="#8a7889" stop-opacity="0"></stop><stop offset="1" stop-color="#9d8b91"></stop></linearGradient><linearGradient xlink:href="#b" id="w" x1="108.53" x2="310.91" y1="212.579" y2="416.292" gradientUnits="userSpaceOnUse"></linearGradient><linearGradient id="x" x1="209.954" x2="209.954" y1="192.731" y2="165.447" gradientUnits="userSpaceOnUse"><stop offset="0" stop-color="#9b62cd"></stop><stop offset=".145" stop-color="#965acb"></stop><stop offset=".672" stop-color="#8843c4"></stop><stop offset="1" stop-color="#833ac1"></stop></linearGradient><linearGradient id="y" x1="303.909" x2="-85.502" y1="380.871" y2="113.703" gradientUnits="userSpaceOnUse"><stop offset="0" stop-color="#9b62cd" stop-opacity="0"></stop><stop offset="1" stop-color="#ff75c8"></stop></linearGradient><linearGradient xlink:href="#c" id="z" x1="211.913" x2="209.435" y1="492.56" y2="383.552" gradientUnits="userSpaceOnUse"></linearGradient><linearGradient id="f"><stop offset="0" stop-color="#ffd945"></stop><stop offset=".304" stop-color="#ffcd3e"></stop><stop offset=".856" stop-color="#ffad2b"></stop><stop offset="1" stop-color="#ffa325"></stop></linearGradient><linearGradient xlink:href="#f" id="A" x1="203.07" x2="228.795" y1="267.627" y2="443.419" gradientUnits="userSpaceOnUse"></linearGradient><linearGradient id="B" x1="242.089" x2="110.778" y1="365.842" y2="140.585" gradientUnits="userSpaceOnUse"><stop offset="0" stop-color="#ffd945" stop-opacity="0"></stop><stop offset="1" stop-color="#fbed21"></stop></linearGradient><linearGradient id="g"><stop offset="0" stop-color="#fff"></stop><stop offset="1" stop-color="#e4f2ff"></stop></linearGradient><linearGradient xlink:href="#g" id="C" x1="80.345" x2="80.345" y1="283.231" y2="371.71" gradientUnits="userSpaceOnUse"></linearGradient><linearGradient xlink:href="#g" id="D" x1="209.954" x2="209.954" y1="283.231" y2="371.71" gradientUnits="userSpaceOnUse"></linearGradient><linearGradient xlink:href="#g" id="E" x1="339.563" x2="339.563" y1="283.231" y2="371.71" gradientUnits="userSpaceOnUse"></linearGradient><linearGradient xlink:href="#a" id="F" x1="80.345" x2="80.345" y1="249.179" y2="221.294" gradientUnits="userSpaceOnUse"></linearGradient><linearGradient xlink:href="#a" id="G" x1="209.954" x2="209.954" y1="249.179" y2="221.294" gradientUnits="userSpaceOnUse"></linearGradient><linearGradient xlink:href="#a" id="H" x1="339.563" x2="339.563" y1="249.179" y2="221.294" gradientUnits="userSpaceOnUse"></linearGradient><linearGradient xlink:href="#a" id="I" x1="84.47" x2="33.621" y1="311.119" y2="259.069" gradientUnits="userSpaceOnUse"></linearGradient><linearGradient xlink:href="#f" id="J" x1="43.076" x2="117.614" y1="314.672" y2="314.672" gradientUnits="userSpaceOnUse"></linearGradient><linearGradient xlink:href="#d" id="K" x1="46.566" x2="114.124" y1="314.672" y2="314.672" gradientUnits="userSpaceOnUse"></linearGradient><linearGradient xlink:href="#a" id="L" x1="214.468" x2="163.166" y1="311.517" y2="259.004" gradientUnits="userSpaceOnUse"></linearGradient><linearGradient xlink:href="#a" id="M" x1="242.077" x2="182.593" y1="335.042" y2="297.786" gradientUnits="userSpaceOnUse"></linearGradient><linearGradient xlink:href="#f" id="N" x1="172.685" x2="247.223" y1="314.672" y2="314.672" gradientUnits="userSpaceOnUse"></linearGradient><linearGradient xlink:href="#d" id="O" x1="176.175" x2="243.733" y1="314.672" y2="314.672" gradientUnits="userSpaceOnUse"></linearGradient><linearGradient xlink:href="#a" id="P" x1="342.44" x2="291.712" y1="307.839" y2="246.528" gradientUnits="userSpaceOnUse"></linearGradient><linearGradient xlink:href="#a" id="Q" x1="370.345" x2="314.504" y1="333.198" y2="298.224" gradientUnits="userSpaceOnUse"></linearGradient><linearGradient xlink:href="#f" id="R" x1="302.294" x2="376.832" y1="314.672" y2="314.672" gradientUnits="userSpaceOnUse"></linearGradient><linearGradient xlink:href="#d" id="S" x1="305.785" x2="373.342" y1="314.672" y2="314.672" gradientUnits="userSpaceOnUse"></linearGradient><linearGradient xlink:href="#a" id="T" x1="112.548" x2="53.818" y1="334.089" y2="297.305" gradientUnits="userSpaceOnUse"></linearGradient><linearGradient xlink:href="#f" id="U" x1="-930.253" x2="-930.253" y1="1188.917" y2="1204.998" gradientTransform="rotate(90 -980.783 0)" gradientUnits="userSpaceOnUse"></linearGradient><linearGradient xlink:href="#f" id="V" x1="-961.149" x2="-961.149" y1="1299.048" y2="1315.129" gradientTransform="matrix(-1 0 0 1 -680.1 -1190.1)" gradientUnits="userSpaceOnUse"></linearGradient><linearGradient xlink:href="#f" id="W" x1="-818.959" x2="-818.959" y1="1299.048" y2="1315.129" gradientTransform="matrix(-1 0 0 1 -680.1 -1190.1)" gradientUnits="userSpaceOnUse"></linearGradient><linearGradient xlink:href="#f" id="X" x1="-921.826" x2="-921.826" y1="1252.809" y2="1268.891" gradientTransform="scale(-1 1) rotate(45 841.763 1461.844)" gradientUnits="userSpaceOnUse"></linearGradient><linearGradient xlink:href="#f" id="Y" x1="-884.535" x2="-884.535" y1="1316.514" y2="1332.596" gradientTransform="scale(-1 1) rotate(-45 -2031.968 -180.127)" gradientUnits="userSpaceOnUse"></linearGradient><path fill="url(#h)" d="M459.685 130.013h23.31v182.669h-23.31z" opacity="1" data-original="url(#h)" class=""></path><path fill="url(#i)" d="m459.685 153.954 23.31 23.31v-47.251h-23.31z" opacity="1" data-original="url(#i)"></path><circle cx="471.34" cy="116.996" r="38.66" fill="url(#j)" opacity="1" data-original="url(#j)"></circle><circle cx="471.34" cy="116.996" r="32.265" fill="url(#k)" opacity="1" data-original="url(#k)" class=""></circle><path fill="url(#l)" d="M488.634 82.413a38.502 38.502 0 0 1 4.077 17.294c0 21.351-17.309 38.66-38.66 38.66-6.217 0-12.09-1.47-17.294-4.077 6.348 12.669 19.449 21.366 34.583 21.366 21.352 0 38.66-17.309 38.66-38.66 0-15.134-8.698-28.236-21.366-34.583z" opacity="1" data-original="url(#l)" class=""></path><path fill="url(#m)" d="M467.065 345.961h-17.428v-62.579h17.428c10.749 0 19.463 8.714 19.463 19.463v23.653c0 10.749-8.714 19.463-19.463 19.463z" opacity="1" data-original="url(#m)"></path><path fill="url(#n)" d="M456.542 283.382h-6.905v62.579h17.428c10.749 0 19.463-8.714 19.463-19.463v-13.13z" opacity="1" data-original="url(#n)"></path><path fill="url(#o)" d="M438.475 362.064h-37.689v-94.786h37.689c10.045 0 18.189 8.143 18.189 18.189v58.408c0 10.046-8.143 18.189-18.189 18.189z" opacity="1" data-original="url(#o)"></path><path fill="url(#p)" d="m419.878 267.574.436-.296h-19.527v94.786h37.689c10.045 0 18.189-8.143 18.189-18.189V304.36z" opacity="1" data-original="url(#p)"></path><path fill="url(#q)" d="M260.491 162.927H159.417v-34.054c0-27.911 22.626-50.537 50.538-50.537 27.911 0 50.537 22.626 50.537 50.537v34.054z" opacity="1" data-original="url(#q)"></path><path fill="url(#r)" d="M233.089 83.94c-9.391-4.843-20.403-4.843-29.794 0-16.274 8.392-27.403 25.36-27.403 44.933v34.054h84.6v-34.054c-.001-19.573-11.129-36.54-27.403-44.933z" opacity="1" data-original="url(#r)"></path><path fill="url(#s)" d="M209.954 78.336c-3.518 0-6.952.361-10.267 1.046 22.988 4.744 40.271 25.099 40.271 49.492v34.054h20.533v-34.054c0-27.912-22.626-50.538-50.537-50.538z" opacity="1" data-original="url(#s)"></path><ellipse cx="209.954" cy="107.574" fill="url(#t)" rx="35.295" ry="25.508" opacity="1" data-original="url(#t)"></ellipse><path fill="url(#u)" d="M276.966 173.027H142.942v-27.528c0-8.572 6.949-15.521 15.521-15.521h102.982c8.572 0 15.521 6.949 15.521 15.521z" opacity="1" data-original="url(#u)"></path><path fill="url(#v)" d="M276.966 173.027v-27.528c0-3.221-.982-6.212-2.661-8.692a15.422 15.422 0 0 0-6.742-1.557H164.581c-8.572 0-15.521 6.949-15.521 15.521v22.256z" opacity="1" data-original="url(#v)"></path><path fill="url(#w)" d="M374.66 475.417H45.248c-14.43 0-26.127-11.697-26.127-26.127V180.053c0-14.43 11.697-26.127 26.127-26.127H374.66c14.429 0 26.127 11.697 26.127 26.127V449.29c0 14.429-11.698 26.127-26.127 26.127z" opacity="1" data-original="url(#w)"></path><path fill="url(#x)" d="M283.804 196.867h-147.7c-6.79 0-12.295-5.505-12.295-12.295s5.505-12.295 12.295-12.295h147.7c6.79 0 12.295 5.505 12.295 12.295 0 6.791-5.505 12.295-12.295 12.295z" opacity="1" data-original="url(#x)"></path><path fill="url(#y)" d="M56.329 165.007c-14.429 0-26.127 11.697-26.127 26.127v269.237c0 4.361 1.074 8.468 2.963 12.083a26.006 26.006 0 0 0 12.083 2.963H374.66c14.429 0 26.127-11.697 26.127-26.127V180.053c0-4.361-1.074-8.468-2.963-12.083a26.006 26.006 0 0 0-12.083-2.963z" opacity="1" data-original="url(#y)" class=""></path><path fill="url(#z)" d="M19.126 399.603v13.547l62.271 62.271h293.267c14.42 0 26.117-11.697 26.117-26.128v-49.69z" opacity="1" data-original="url(#z)"></path><path fill="url(#A)" d="M0 235.976v157.392c0 9.793 7.207 18.109 16.905 19.47 128.419 18.025 257.679 18.026 386.099 0 9.697-1.361 16.905-9.678 16.905-19.47V235.976c0-9.793-7.207-18.109-16.905-19.47-128.419-18.025-257.68-18.026-386.099 0C7.207 217.867 0 226.183 0 235.976z" opacity="1" data-original="url(#A)"></path><path fill="url(#B)" d="M25.871 223.978c-9.697 1.361-16.905 9.678-16.905 19.47V400.84c0 3.921 1.17 7.594 3.178 10.69a19.52 19.52 0 0 0 4.76 1.308c128.419 18.025 257.679 18.026 386.099 0 9.697-1.361 16.905-9.678 16.905-19.47V235.976c0-3.921-1.17-7.594-3.178-10.69a19.52 19.52 0 0 0-4.76-1.308c-128.419-18.026-257.68-18.026-386.099 0z" opacity="1" data-original="url(#B)"></path><path fill="url(#C)" d="M129.953 245.346v138.651c0 3.515-3.428 6.314-7.483 6.088a1590.989 1590.989 0 0 1-85.589-7.098c-3.515-.387-6.145-2.986-6.145-6.051V252.408c0-3.066 2.63-5.664 6.145-6.051a1590.989 1590.989 0 0 1 85.589-7.098c4.055-.226 7.483 2.572 7.483 6.087z" opacity="1" data-original="url(#C)"></path><path fill="url(#D)" d="M259.563 243.503V385.84c0 3.286-3.012 5.992-6.807 6.097-14.293.398-28.566.593-42.79.593h-.011c-14.234 0-28.508-.196-42.801-.593-3.796-.106-6.807-2.811-6.807-6.097V243.503c0-3.286 3.012-5.992 6.807-6.097a1541.83 1541.83 0 0 1 85.602 0c3.795.105 6.807 2.811 6.807 6.097z" opacity="1" data-original="url(#D)"></path><path fill="url(#E)" d="M389.172 252.408v124.527c0 3.066-2.63 5.664-6.145 6.051a1590.989 1590.989 0 0 1-85.589 7.098c-4.054.226-7.483-2.572-7.483-6.088v-138.65c0-3.515 3.428-6.314 7.483-6.088a1590.989 1590.989 0 0 1 85.589 7.098c3.515.388 6.145 2.986 6.145 6.052z" opacity="1" data-original="url(#E)"></path><path fill="url(#F)" d="M129.953 245.348v32.465a1383.46 1383.46 0 0 0-99.217 9.331v-34.732c0-3.071 2.626-5.664 6.141-6.055a1597.675 1597.675 0 0 1 85.589-7.096c4.059-.228 7.487 2.571 7.487 6.087z" opacity="1" data-original="url(#F)"></path><path fill="url(#G)" d="M259.563 243.503v32.888a1374.542 1374.542 0 0 0-99.217 0v-32.888c0-3.288 3.016-5.989 6.803-6.098 14.301-.402 28.569-.597 42.805-.597s28.504.195 42.805.597c3.787.109 6.804 2.81 6.804 6.098z" opacity="1" data-original="url(#G)"></path><path fill="url(#H)" d="M389.172 252.411v34.732a1382.311 1382.311 0 0 0-99.217-9.331v-32.465c0-3.516 3.429-6.315 7.487-6.087a1597.76 1597.76 0 0 1 85.589 7.096c3.515.391 6.141 2.985 6.141 6.055z" opacity="1" data-original="url(#H)"></path><path fill="url(#I)" d="M129.953 383.997v-107.44l-13.313-13.313c-.567-.779-1.375-1.525-2.443-2.237-2.277-1.518-4.58-2.277-6.907-2.277H53.399c-2.633 0-5.01.759-7.135 2.277s-3.188 3.188-3.188 5.009v23.531c0 1.787.889 3.335 2.661 4.648l29.013 29.024-18.164 31.454c-.709 1.317-1.062 2.633-1.062 3.947 0 3.098 1.344 5.755 4.001 7.982l20.546 20.546a1585.862 1585.862 0 0 0 42.399 2.936c4.055.227 7.483-2.572 7.483-6.087z" opacity="1" data-original="url(#I)"></path><path fill="url(#J)" d="M43.076 289.547v-23.531c0-1.821 1.062-3.492 3.188-5.009 2.126-1.518 4.502-2.277 7.135-2.277h53.892c2.327 0 4.63.759 6.907 2.277 2.278 1.518 3.416 3.188 3.416 5.009v18.976c0 3.544-1.62 8.35-4.858 14.422l-35.524 68.01c-1.115 2.125-3.34 3.188-6.68 3.188-3.847 0-7.312-1.162-10.398-3.492-3.089-2.327-4.63-5.161-4.63-8.501 0-1.314.353-2.631 1.062-3.947l37.345-64.671v-10.626H66.758v10.171c0 2.026-1.215 3.746-3.644 5.161-2.429 1.419-5.214 2.126-8.349 2.126-3.24 0-5.996-.707-8.274-2.126-2.277-1.414-3.415-3.134-3.415-5.16z" opacity="1" data-original="url(#J)"></path><path fill="url(#K)" d="M70.553 367.123c-3.098 0-5.811-.912-8.296-2.787-2.907-2.19-3.242-4.31-3.242-5.715 0-.724.204-1.461.623-2.252l37.784-65.431v-15.052H63.267v13.661c0 .685-.643 1.407-1.911 2.146-1.903 1.111-4.058 1.651-6.592 1.651-2.6 0-4.702-.523-6.428-1.598-1.77-1.101-1.77-1.898-1.77-2.199v-23.531c0-.815 1.081-1.709 1.726-2.169 1.533-1.095 3.204-1.627 5.107-1.627h53.892c1.638 0 3.264.553 4.971 1.691 1.166.777 1.862 1.564 1.862 2.105v18.976c0 2.025-.772 5.885-4.447 12.78L74.14 365.809c-.17.321-.69 1.314-3.587 1.314z" opacity="1" data-original="url(#K)"></path><path fill="url(#L)" d="M259.563 276.554V385.84c0 3.288-3.017 5.989-6.803 6.098-12.597.358-25.173.543-37.705.586l-25.803-25.803-.119-.119c-2.658-2.224-4.004-4.883-4.004-7.986 0-1.313.358-2.626 1.063-3.939l18.164-31.456-29.014-29.025c-1.769-1.313-2.658-2.865-2.658-4.655v-23.524c0-1.823 1.063-3.494 3.19-5.013s4.503-2.279 7.14-2.279h53.884c2.333 0 4.633.76 6.912 2.279 1.063.716 1.877 1.465 2.441 2.235z" opacity="1" data-original="url(#L)"></path><path fill="url(#M)" d="M259.563 276.554V385.84c0 3.288-3.017 5.989-6.803 6.098-12.597.358-25.173.543-37.705.586l-25.803-25.803c.163.13.336.271.51.402 3.092 2.333 6.554 3.494 10.406 3.494 3.331 0 5.555-1.063 6.673-3.19l35.525-68.011c3.234-6.076 4.861-10.883 4.861-14.42v-18.978c0-.955-.315-1.877-.955-2.756z" opacity="1" data-original="url(#M)"></path><path fill="url(#N)" d="M172.685 289.547v-23.531c0-1.821 1.062-3.492 3.188-5.009 2.126-1.518 4.502-2.277 7.135-2.277H236.9c2.327 0 4.63.759 6.907 2.277s3.416 3.188 3.416 5.009v18.976c0 3.544-1.62 8.35-4.858 14.422l-35.523 68.01c-1.115 2.125-3.34 3.188-6.68 3.188-3.848 0-7.313-1.162-10.399-3.492-3.089-2.327-4.63-5.161-4.63-8.501 0-1.314.353-2.631 1.062-3.947l37.345-64.671v-10.626h-27.174v10.171c0 2.026-1.215 3.746-3.644 5.161-2.429 1.419-5.214 2.126-8.349 2.126-3.24 0-5.996-.707-8.274-2.126-2.276-1.414-3.414-3.134-3.414-5.16z" opacity="1" data-original="url(#N)"></path><path fill="url(#O)" d="M200.162 367.123c-3.098 0-5.811-.912-8.296-2.787-2.907-2.19-3.243-4.31-3.243-5.715 0-.724.204-1.461.623-2.252l37.784-65.431v-15.052h-34.154v13.661c0 .685-.643 1.407-1.911 2.146-1.903 1.111-4.058 1.651-6.592 1.651-2.6 0-4.702-.523-6.428-1.598-1.77-1.101-1.77-1.898-1.77-2.199v-23.531c0-.815 1.081-1.709 1.726-2.169 1.533-1.095 3.204-1.627 5.107-1.627H236.9c1.638 0 3.264.553 4.971 1.691 1.166.777 1.862 1.564 1.862 2.105v18.976c0 2.025-.772 5.885-4.447 12.78l-35.537 68.037c-.169.321-.69 1.314-3.587 1.314z" opacity="1" data-original="url(#O)"></path><path fill="url(#P)" d="M389.172 276.554v100.378c0 3.071-2.626 5.664-6.141 6.055a1609.15 1609.15 0 0 1-43.489 4.188h-.022c-.076-.011-.152-.011-.228-.022l-20.551-20.551c-2.658-2.224-4.004-4.883-4.004-7.986 0-1.313.358-2.626 1.063-3.939l18.164-31.456-29.014-29.025c-1.769-1.313-2.658-2.865-2.658-4.655v-23.524c0-1.823 1.063-3.494 3.19-5.013s4.503-2.279 7.14-2.279h53.884c2.333 0 4.633.76 6.912 2.279 1.063.716 1.877 1.465 2.441 2.235z" opacity="1" data-original="url(#P)"></path><path fill="url(#Q)" d="M389.172 276.554v100.378c0 3.071-2.626 5.664-6.141 6.055a1611.086 1611.086 0 0 1-43.51 4.188c-.076-.011-.152-.011-.228-.022l-20.432-20.432c.163.13.336.271.51.402 3.092 2.333 6.554 3.494 10.406 3.494 3.331 0 5.555-1.063 6.673-3.19l35.525-68.011c3.233-6.076 4.861-10.883 4.861-14.42v-18.978c0-.955-.315-1.877-.955-2.756z" opacity="1" data-original="url(#Q)"></path><path fill="url(#R)" d="M302.294 289.547v-23.531c0-1.821 1.062-3.492 3.188-5.009 2.126-1.518 4.502-2.277 7.135-2.277h53.892c2.327 0 4.63.759 6.907 2.277s3.416 3.188 3.416 5.009v18.976c0 3.544-1.62 8.35-4.858 14.422l-35.523 68.01c-1.115 2.125-3.34 3.188-6.68 3.188-3.848 0-7.313-1.162-10.398-3.492-3.089-2.327-4.63-5.161-4.63-8.501 0-1.314.353-2.631 1.062-3.947l37.345-64.671v-10.626h-27.174v10.171c0 2.026-1.215 3.746-3.644 5.161-2.429 1.419-5.214 2.126-8.349 2.126-3.24 0-5.996-.707-8.274-2.126-2.276-1.414-3.415-3.134-3.415-5.16z" opacity="1" data-original="url(#R)"></path><path fill="url(#S)" d="M329.771 367.123c-3.098 0-5.811-.912-8.296-2.787-2.907-2.19-3.242-4.31-3.242-5.715 0-.724.204-1.461.623-2.252l37.784-65.431v-15.052h-34.154v13.661c0 .685-.643 1.407-1.911 2.146-1.902 1.111-4.058 1.651-6.592 1.651-2.6 0-4.702-.523-6.428-1.598-1.77-1.101-1.77-1.898-1.77-2.199v-23.531c0-.815 1.081-1.709 1.726-2.169 1.533-1.095 3.204-1.627 5.107-1.627h53.892c1.638 0 3.264.553 4.97 1.691 1.166.777 1.862 1.564 1.862 2.105v18.976c0 2.025-.772 5.885-4.447 12.78l-35.537 68.037c-.169.321-.689 1.314-3.587 1.314z" opacity="1" data-original="url(#S)"></path><path fill="url(#T)" d="M129.953 276.554v107.442c0 3.515-3.429 6.315-7.487 6.087a1581.801 1581.801 0 0 1-42.393-2.93l-20.431-20.432c.163.13.336.271.51.402 3.092 2.333 6.554 3.494 10.406 3.494 3.331 0 5.556-1.063 6.673-3.19l35.525-68.011c3.233-6.076 4.861-10.883 4.861-14.42v-18.978c0-.955-.315-1.877-.955-2.756z" opacity="1" data-original="url(#T)"></path><path fill="url(#U)" d="M217.769 58.666V42.394a7.815 7.815 0 0 0-15.63 0v16.272a7.814 7.814 0 0 0 7.815 7.815 7.814 7.814 0 0 0 7.815-7.815z" opacity="1" data-original="url(#U)"></path><path fill="url(#V)" d="M272.913 118.583h16.272a7.815 7.815 0 0 0 0-15.63h-16.272a7.815 7.815 0 0 0 0 15.63z" opacity="1" data-original="url(#V)"></path><path fill="url(#W)" d="M130.723 118.583h16.273a7.815 7.815 0 0 0 0-15.63h-16.273a7.815 7.815 0 0 0 0 15.63z" opacity="1" data-original="url(#W)"></path><path fill="url(#X)" d="m258.711 79.578 11.506-11.506a7.815 7.815 0 1 0-11.053-11.052l-11.506 11.506a7.816 7.816 0 0 0 11.053 11.052z" opacity="1" data-original="url(#X)"></path><path fill="url(#Y)" d="m149.691 68.071 11.506 11.506a7.816 7.816 0 0 0 11.052-11.053l-11.506-11.506a7.816 7.816 0 0 0-11.052 11.053z" opacity="1" data-original="url(#Y)"></path></g></svg>