<svg xmlns="http://www.w3.org/2000/svg" version="1.1" xmlns:xlink="http://www.w3.org/1999/xlink" width="512" height="512" x="0" y="0" viewBox="0 0 510 510" style="enable-background:new 0 0 512 512" xml:space="preserve"><g><linearGradient id="m" x1="254.347" x2="254.347" y1="77.885" y2="143.669" gradientUnits="userSpaceOnUse"><stop offset="0" stop-color="#ffa325"></stop><stop offset="1" stop-color="#ff7044"></stop></linearGradient><linearGradient id="a"><stop offset="0" stop-color="#ffd945"></stop><stop offset=".304" stop-color="#ffcd3e"></stop><stop offset=".856" stop-color="#ffad2b"></stop><stop offset="1" stop-color="#ffa325"></stop></linearGradient><linearGradient xlink:href="#a" id="n" x1="250.556" x2="295.395" y1="77.661" y2="223.877" gradientUnits="userSpaceOnUse"></linearGradient><linearGradient id="b"><stop offset="0" stop-color="#ffd945" stop-opacity="0"></stop><stop offset="1" stop-color="#fbed21"></stop></linearGradient><linearGradient xlink:href="#b" id="o" x1="320.447" x2="180.774" y1="230.396" y2="11.547" gradientUnits="userSpaceOnUse"></linearGradient><linearGradient id="c"><stop offset="0" stop-color="#e87264" stop-opacity="0"></stop><stop offset="1" stop-color="#ff7044"></stop></linearGradient><linearGradient xlink:href="#c" id="p" x1="346.337" x2="268.823" y1="153.345" y2="-88.499" gradientUnits="userSpaceOnUse"></linearGradient><linearGradient id="d"><stop offset="0" stop-color="#ffd945"></stop><stop offset=".417" stop-color="#ffd744"></stop><stop offset=".628" stop-color="#ffcf3f"></stop><stop offset=".793" stop-color="#ffc237"></stop><stop offset=".933" stop-color="#ffaf2c"></stop><stop offset="1" stop-color="#ffa325"></stop></linearGradient><radialGradient xlink:href="#d" id="q" cx="247.89" cy="19.428" r="27.936" gradientUnits="userSpaceOnUse"></radialGradient><linearGradient xlink:href="#b" id="r" x1="258.242" x2="231.421" y1="31.933" y2="5.112" gradientUnits="userSpaceOnUse"></linearGradient><linearGradient xlink:href="#c" id="s" x1="263.871" x2="305.637" y1="28.88" y2="-6.472" gradientUnits="userSpaceOnUse"></linearGradient><linearGradient id="e"><stop offset="0" stop-color="#fff" stop-opacity="0"></stop><stop offset="1" stop-color="#fff"></stop></linearGradient><linearGradient xlink:href="#e" id="t" x1="254.347" x2="254.347" y1="21.143" y2=".001" gradientUnits="userSpaceOnUse"></linearGradient><radialGradient xlink:href="#d" id="u" cx="70.88" cy="61.861" r="27.936" gradientUnits="userSpaceOnUse"></radialGradient><linearGradient xlink:href="#b" id="v" x1="81.232" x2="54.412" y1="74.366" y2="47.546" gradientUnits="userSpaceOnUse"></linearGradient><linearGradient xlink:href="#c" id="w" x1="86.862" x2="128.627" y1="71.314" y2="35.962" gradientUnits="userSpaceOnUse"></linearGradient><linearGradient xlink:href="#e" id="x" x1="77.337" x2="77.337" y1="63.576" y2="42.434" gradientUnits="userSpaceOnUse"></linearGradient><radialGradient xlink:href="#d" id="y" cx="424.899" cy="61.861" r="27.936" gradientUnits="userSpaceOnUse"></radialGradient><linearGradient xlink:href="#b" id="z" x1="435.251" x2="408.431" y1="74.366" y2="47.546" gradientUnits="userSpaceOnUse"></linearGradient><linearGradient xlink:href="#c" id="A" x1="440.881" x2="482.646" y1="71.314" y2="35.962" gradientUnits="userSpaceOnUse"></linearGradient><linearGradient xlink:href="#e" id="B" x1="431.356" x2="431.356" y1="63.576" y2="42.434" gradientUnits="userSpaceOnUse"></linearGradient><linearGradient id="f"><stop offset="0" stop-color="#ffa325"></stop><stop offset=".423" stop-color="#ffa126"></stop><stop offset=".638" stop-color="#ff992b"></stop><stop offset=".805" stop-color="#ff8c33"></stop><stop offset=".947" stop-color="#ff793e"></stop><stop offset="1" stop-color="#ff7044"></stop></linearGradient><radialGradient xlink:href="#f" id="C" cx="154.458" cy="52.266" r="27.936" gradientUnits="userSpaceOnUse"></radialGradient><linearGradient id="g"><stop offset="0" stop-color="#ff7044" stop-opacity="0"></stop><stop offset="1" stop-color="#ffd945"></stop></linearGradient><linearGradient xlink:href="#g" id="D" x1="164.81" x2="137.989" y1="64.771" y2="37.95" gradientUnits="userSpaceOnUse"></linearGradient><linearGradient id="h"><stop offset="0" stop-color="#f35227" stop-opacity="0"></stop><stop offset="1" stop-color="#f35227"></stop></linearGradient><linearGradient xlink:href="#h" id="E" x1="170.439" x2="212.205" y1="61.718" y2="26.367" gradientUnits="userSpaceOnUse"></linearGradient><linearGradient xlink:href="#e" id="F" x1="160.915" x2="160.915" y1="53.981" y2="32.839" gradientUnits="userSpaceOnUse"></linearGradient><radialGradient xlink:href="#f" id="G" cx="341.322" cy="52.266" r="27.936" gradientUnits="userSpaceOnUse"></radialGradient><linearGradient xlink:href="#g" id="H" x1="351.674" x2="324.853" y1="64.771" y2="37.95" gradientUnits="userSpaceOnUse"></linearGradient><linearGradient xlink:href="#h" id="I" x1="357.303" x2="399.068" y1="61.718" y2="26.367" gradientUnits="userSpaceOnUse"></linearGradient><linearGradient xlink:href="#e" id="J" x1="347.779" x2="347.779" y1="53.981" y2="32.839" gradientUnits="userSpaceOnUse"></linearGradient><linearGradient id="i"><stop offset="0" stop-color="#ff7044"></stop><stop offset="1" stop-color="#f82814"></stop></linearGradient><linearGradient xlink:href="#i" id="K" x1="254.347" x2="254.347" y1="205.031" y2="262.293" gradientUnits="userSpaceOnUse"></linearGradient><linearGradient xlink:href="#a" id="L" x1="254.347" x2="254.347" y1="237.86" y2="263.764" gradientUnits="userSpaceOnUse"></linearGradient><linearGradient xlink:href="#a" id="M" x1="254.347" x2="254.347" y1="189.746" y2="215.649" gradientUnits="userSpaceOnUse"></linearGradient><linearGradient id="j"><stop offset="0" stop-color="#e4f2ff"></stop><stop offset="1" stop-color="#b2cbff"></stop></linearGradient><linearGradient xlink:href="#j" id="N" x1="217.557" x2="301.732" y1="156.959" y2="399.62" gradientUnits="userSpaceOnUse"></linearGradient><linearGradient xlink:href="#j" id="O" x1="348.658" x2="160.579" y1="412.819" y2="119.521" gradientUnits="userSpaceOnUse"></linearGradient><linearGradient xlink:href="#i" id="P" x1="65.31" x2="103.022" y1="333.733" y2="442.484" gradientUnits="userSpaceOnUse"></linearGradient><linearGradient xlink:href="#i" id="Q" x1="111.897" x2="149.609" y1="317.578" y2="426.329" gradientUnits="userSpaceOnUse"></linearGradient><linearGradient xlink:href="#i" id="R" x1="183.73" x2="221.442" y1="292.668" y2="401.419" gradientUnits="userSpaceOnUse"></linearGradient><linearGradient xlink:href="#i" id="S" x1="244.654" x2="282.366" y1="271.541" y2="380.292" gradientUnits="userSpaceOnUse"></linearGradient><linearGradient xlink:href="#i" id="T" x1="307.467" x2="345.179" y1="249.759" y2="358.51" gradientUnits="userSpaceOnUse"></linearGradient><linearGradient xlink:href="#i" id="U" x1="375.074" x2="412.786" y1="226.315" y2="335.066" gradientUnits="userSpaceOnUse"></linearGradient><linearGradient xlink:href="#i" id="V" x1="450.661" x2="488.373" y1="200.103" y2="308.854" gradientUnits="userSpaceOnUse"></linearGradient><linearGradient id="k"><stop offset="0" stop-color="#92f37f"></stop><stop offset="1" stop-color="#4ab272"></stop></linearGradient><linearGradient xlink:href="#k" id="W" x1="47.138" x2="47.138" y1="174.576" y2="197.096" gradientUnits="userSpaceOnUse"></linearGradient><linearGradient id="l"><stop offset="0" stop-color="#00adfb"></stop><stop offset="1" stop-color="#3f3ced"></stop></linearGradient><linearGradient xlink:href="#l" id="X" x1="461.555" x2="461.555" y1="174.576" y2="197.096" gradientUnits="userSpaceOnUse"></linearGradient><linearGradient xlink:href="#l" id="Y" x1="804.248" x2="804.248" y1="-133.494" y2="-110.974" gradientTransform="rotate(45 265.396 -880.037)" gradientUnits="userSpaceOnUse"></linearGradient><linearGradient xlink:href="#k" id="Z" x1="-242.879" x2="-242.879" y1="913.633" y2="936.153" gradientTransform="scale(-1 1) rotate(45 751.226 292.405)" gradientUnits="userSpaceOnUse"></linearGradient><linearGradient xlink:href="#k" id="aa" x1="160.61" x2="160.61" y1="342.51" y2="371.101" gradientTransform="matrix(0 1 1 0 -91.399 292.819)" gradientUnits="userSpaceOnUse"></linearGradient><linearGradient xlink:href="#l" id="ab" x1="175.747" x2="175.747" y1="349.593" y2="378.184" gradientTransform="scale(-1 1) rotate(45 -29.382 45.07)" gradientUnits="userSpaceOnUse"></linearGradient><linearGradient xlink:href="#a" id="ac" x1="-282.303" x2="-282.303" y1="350.517" y2="379.108" gradientTransform="scale(-1 1) rotate(-45 -272.716 547.177)" gradientUnits="userSpaceOnUse"></linearGradient><linearGradient xlink:href="#a" id="ad" x1="154.866" x2="154.866" y1="461.463" y2="511.438" gradientUnits="userSpaceOnUse"></linearGradient><linearGradient xlink:href="#k" id="ae" x1="186.23" x2="186.23" y1="405.759" y2="430.167" gradientUnits="userSpaceOnUse"></linearGradient><linearGradient xlink:href="#l" id="af" x1="509.498" x2="509.498" y1="-333.448" y2="-310.781" gradientTransform="scale(-1 1) rotate(-63.13 714.715 749.238)" gradientUnits="userSpaceOnUse"></linearGradient><path fill="url(#m)" d="m374.944 97.674-.305.13c-14.545 6.145-30.153-6.361-27.764-21.969l2.085-13.62-23.118 20.052c-9.083 7.878-19.351 10.497-29.098 8.453-9.031-4.95-16.98-11.076-23.104-17.905 0 0-7.115-9.266-7.855-10.938l-11.438-25.826-11.437 25.826c-.74 1.672-7.855 10.938-7.855 10.938-6.125 6.83-14.073 12.956-23.104 17.905-9.747 2.044-20.015-.575-29.098-8.453l-23.119-20.052 2.085 13.62c2.39 15.608-13.219 28.114-27.764 21.969a27.928 27.928 0 0 1-.305-.13L94.754 80.97l29.002 93.545h261.183L413.94 80.97z" opacity="1" data-original="url(#m)"></path><path fill="url(#n)" d="m388.105 95.8 43.251-25.925-32.166 145.189H109.504L77.337 69.875 120.589 95.8c38.421 23.03 88.189 11.354 112.36-26.361l21.398-33.389 21.398 33.389c24.171 37.715 73.939 49.391 112.36 26.361z" opacity="1" data-original="url(#n)"></path><path fill="url(#o)" d="m137.344 111.462-36.628-21.955c-2.502-1.5-5.584.721-4.953 3.569l27.027 121.987h276.4l25.6-115.548-19.929 11.946c-35.75 21.429-84.957 12.796-110.593-18.887-8.589-6.02-26.525-35.621-26.525-35.621l-18.039 28.148c-24.171 37.715-73.939 49.391-112.36 26.361z" opacity="1" data-original="url(#o)"></path><path fill="url(#p)" d="M431.356 69.875 388.105 95.8c-38.422 23.03-88.19 11.354-112.36-26.36l-21.398-33.389v179.013H399.19z" opacity="1" data-original="url(#p)"></path><circle cx="254.347" cy="28.038" r="22.42" fill="url(#q)" opacity="1" data-original="url(#q)"></circle><path fill="url(#r)" d="M274.36 28.038c0 11.053-8.96 20.013-20.013 20.013s-20.013-8.96-20.013-20.013 8.96-20.013 20.013-20.013 20.013 8.96 20.013 20.013z" opacity="1" data-original="url(#r)"></path><path fill="url(#s)" d="M264.376 7.982a22.327 22.327 0 0 1 2.365 10.029c0 12.382-10.038 22.421-22.421 22.421-3.605 0-7.011-.853-10.029-2.365 3.681 7.347 11.279 12.391 20.056 12.391 12.383 0 22.421-10.038 22.421-22.42-.001-8.777-5.045-16.375-12.392-20.056z" opacity="1" data-original="url(#s)"></path><path fill="url(#t)" d="M269.507 18.442c0 5.753-6.787 10.417-15.16 10.417s-15.16-4.664-15.16-10.417c0-5.754 6.787-10.418 15.16-10.418 8.372.001 15.16 4.665 15.16 10.418z" opacity="1" data-original="url(#t)"></path><circle cx="77.337" cy="70.471" r="22.42" fill="url(#u)" opacity="1" data-original="url(#u)"></circle><circle cx="77.337" cy="70.471" r="20.013" fill="url(#v)" opacity="1" data-original="url(#v)"></circle><path fill="url(#w)" d="M87.367 50.416a22.327 22.327 0 0 1 2.365 10.029c0 12.382-10.038 22.421-22.42 22.421-3.605 0-7.011-.853-10.029-2.365 3.681 7.347 11.279 12.391 20.056 12.391 12.383 0 22.421-10.038 22.421-22.421-.002-8.777-5.046-16.374-12.393-20.055z" opacity="1" data-original="url(#w)"></path><path fill="url(#x)" d="M92.498 60.876c0 5.753-6.787 10.418-15.16 10.418s-15.16-4.664-15.16-10.418c0-5.753 6.787-10.418 15.16-10.418 8.372 0 15.16 4.664 15.16 10.418z" opacity="1" data-original="url(#x)"></path><circle cx="431.356" cy="70.471" r="22.421" fill="url(#y)" opacity="1" data-original="url(#y)"></circle><circle cx="431.356" cy="70.471" r="20.013" fill="url(#z)" opacity="1" data-original="url(#z)"></circle><path fill="url(#A)" d="M441.386 50.416a22.327 22.327 0 0 1 2.365 10.029c0 12.382-10.038 22.421-22.421 22.421-3.605 0-7.011-.853-10.029-2.365 3.681 7.347 11.279 12.391 20.056 12.391 12.382 0 22.42-10.038 22.42-22.421 0-8.777-5.044-16.374-12.391-20.055z" opacity="1" data-original="url(#A)"></path><path fill="url(#B)" d="M446.516 60.876c0 5.753-6.787 10.418-15.16 10.418s-15.16-4.664-15.16-10.418c0-5.753 6.788-10.418 15.16-10.418 8.373 0 15.16 4.664 15.16 10.418z" opacity="1" data-original="url(#B)"></path><circle cx="160.915" cy="60.876" r="22.42" fill="url(#C)" opacity="1" data-original="url(#C)"></circle><circle cx="160.915" cy="60.876" r="20.013" fill="url(#D)" opacity="1" data-original="url(#D)"></circle><path fill="url(#E)" d="M170.944 40.82a22.327 22.327 0 0 1 2.365 10.029c0 12.383-10.038 22.421-22.42 22.421-3.605 0-7.011-.852-10.029-2.365 3.681 7.347 11.279 12.391 20.056 12.391 12.383 0 22.42-10.038 22.42-22.42-.001-8.777-5.045-16.375-12.392-20.056z" opacity="1" data-original="url(#E)"></path><path fill="url(#F)" d="M176.075 51.28c0 5.753-6.787 10.417-15.16 10.417s-15.16-4.664-15.16-10.417c0-5.754 6.788-10.418 15.16-10.418 8.373.001 15.16 4.665 15.16 10.418z" opacity="1" data-original="url(#F)"></path><circle cx="347.779" cy="60.876" r="22.42" fill="url(#G)" opacity="1" data-original="url(#G)"></circle><circle cx="347.779" cy="60.876" r="20.013" fill="url(#H)" opacity="1" data-original="url(#H)"></circle><path fill="url(#I)" d="M357.808 40.82a22.327 22.327 0 0 1 2.365 10.029c0 12.383-10.038 22.421-22.42 22.421-3.606 0-7.011-.852-10.03-2.365 3.681 7.347 11.279 12.391 20.056 12.391 12.383 0 22.421-10.038 22.421-22.42-.001-8.777-5.045-16.375-12.392-20.056z" opacity="1" data-original="url(#I)"></path><path fill="url(#J)" d="M362.939 51.28c0 5.753-6.787 10.417-15.16 10.417s-15.16-4.664-15.16-10.417c0-5.754 6.788-10.418 15.16-10.418 8.372.001 15.16 4.665 15.16 10.418z" opacity="1" data-original="url(#J)"></path><path fill="url(#K)" d="M101.638 199.806h305.418v42.202H101.638z" opacity="1" data-original="url(#K)"></path><path fill="url(#L)" d="M406.67 254.587H102.024a9.545 9.545 0 0 1-9.545-9.545 9.544 9.544 0 0 1 9.545-9.545H406.67a9.545 9.545 0 0 1 9.545 9.545 9.544 9.544 0 0 1-9.545 9.545z" opacity="1" data-original="url(#L)"></path><path fill="url(#M)" d="M406.67 206.473H102.024a9.544 9.544 0 0 1-9.545-9.545 9.544 9.544 0 0 1 9.545-9.545H406.67a9.545 9.545 0 0 1 0 19.09z" opacity="1" data-original="url(#M)"></path><path fill="url(#N)" d="M507.021 222.291c-2.84-4.704-7.595-7.402-13.115-7.402-18.49.076-36.98.144-55.467.205-2.354.007-4.977 1.508-7.293 3.33-4.074 3.205-9.596 3.658-14.245 1.366-5.674-2.797-12.147-4.419-18.783-4.578-.287-.007-.57-.01-.856-.01-11.729 0-22.96 5.686-30.046 15.21l-.147.198c-1.434 1.956-4.335 1.99-5.769.033l-.032-.043c-6.89-9.388-18.176-15.094-30.187-15.262 0 0-17.883.02-26.747.028-5.576.005-10.422 2.625-13.652 7.382-.051.075-.093.153-.142.229-4.256-5.037-9.112-7.593-14.471-7.593-3.029.002-10.495 1.072-14.512 10.947l-.049.117c-1.201 2.858-5.263 2.967-6.544.145a18.054 18.054 0 0 0-4.543-6.129c-3.783-3.321-8.509-5.077-13.674-5.079-5.132 0-9.848 1.738-13.637 5.023a18.013 18.013 0 0 0-3.198 3.631c-1.65 2.479-5.119 2.84-7.389.912-6.898-5.858-15.933-9.35-25.364-9.6-.29-.008-.58-.011-.869-.011-11.247 0-22.407 5.806-29.853 15.532-3.314 4.328-5.622 9.044-7.249 13.977-1.577 4.784-8.495 4.304-9.421-.647a2098.25 2098.25 0 0 1-2.207-11.965c-1.094-5.733-4.036-10.465-8.511-13.685-4.113-2.959-8.892-4.459-14.205-4.459-5.13 0-9.84 1.393-13.998 4.141-4.557 3.012-7.687 7.465-9.072 12.969-.959 3.965-1.915 7.893-2.867 11.787-.895 3.659-6.293 2.94-6.207-.826l.202-8.767c.129-5.611-2.011-10.547-6.026-13.899-3.449-2.88-7.773-4.411-12.506-4.427l-22.529-.079c-5.649 0-10.504 2.974-13.319 8.158-1.831 3.371-2.79 7.231-2.85 11.472-.063 4.429.802 8.447 2.569 11.939 2.588 5.116 7.108 8.32 12.401 8.791l1.778.158-.944 48.207s.042.572.044.626a4.246 4.246 0 0 1-.338-.294 2.504 2.504 0 0 1-.671-1.106c-.663-2.111-.852-3.084-.903-3.408-.09-.567-.26-1.838-.399-3.984-.329-5.058-2.889-14.2-16.343-18.603-3.097-1.013-5.795-1.506-8.246-1.506-2.707 0-5.158.604-7.289 1.796-3.389 1.899-7.413 6.139-7.332 15.56.087 10.307 3.808 20.927 10.476 29.903 5.458 7.347 14.406 17.139 26.045 22.062 4.481 1.896 10.436 4.071 16.762 4.071 4.677 0 8.948-1.172 12.742-3.459 1.023 2.996 2.72 5.942 5.133 8.809 3.864 4.59 8.155 7.752 12.754 9.397 2.116.757 4.179 1.141 6.133 1.141 6.66 0 11.999-4.402 13.611-11.245a4764.61 4764.61 0 0 0 2.613-11.321c3.671.9 7.252 1.743 10.775 2.537.939 6.129 1.875 12.261 2.812 18.404 1.231 7.97 6.335 13.62 14.007 15.504 1.641.403 3.309.607 4.957.607 4.135 0 8.111-1.242 11.816-3.691a20.348 20.348 0 0 0 4.452-3.965c7.195 9.969 17.661 16.599 28.419 17.895a38.24 38.24 0 0 0 4.545.272c10.999 0 21.539-4.781 28.241-12.79 1.025 4.895 3.513 8.192 5.692 10.233 3.782 3.541 8.539 5.517 13.761 5.715.29.011.577.017.862.017 5.004 0 9.623-1.694 13.355-4.897 2.987-2.562 6.55-7.277 6.564-15.186.005-2.8 3.859-3.556 4.925-.967 1.353 3.287 2.7 6.548 4.044 9.789 4.356 10.99 12.709 12.178 16.105 12.178.306 0 .616-.009.928-.025 3.614-.197 8.662-1.627 13.519-6.846 3.285 2.274 7.145 3.484 11.246 3.484.79 0 1.6-.044 2.411-.132 5.055-.548 9.635-2.744 13.243-6.35 3.922-3.919 5.954-9.127 5.877-15.06l-.419-32.148a4.363 4.363 0 0 1 3.925-4.395h.001c8.178-.97 15.938-4.395 22.182-9.601 1.556-1.297 3.921-.196 3.964 1.829.207 13.013 1.787 29.344 12.249 40.209 5.73 5.951 12.967 8.968 21.51 8.968 3.59 0 7.347-.532 11.487-1.626 10.766-2.845 21.686-11.284 28.498-22.024 8-12.613 9.179-27.406 9.312-38.886l.002-.177-1.086-45.818-.011-.18c-.077-1.286-.168-2.59-.279-3.907a3.326 3.326 0 0 1 3.055-3.595l.077-.006a3.329 3.329 0 0 1 3.586 3.254l1.414 71.608c.14 7.055 4.231 12.381 10.676 13.899 1.257.297 2.568.447 3.896.447 3.031 0 6.231-.788 9.512-2.343a30.425 30.425 0 0 0 9.986-7.578c4.379-5.034 5.245-9.984 5.201-13.249l-.821-61.446a9.106 9.106 0 0 1 8.195-9.182l.084-.008c5.071-.508 9.343-3.332 12.031-7.95 1.957-3.36 2.949-7.223 2.949-11.483 0-4.159-1.003-7.928-2.979-11.203z" opacity="1" data-original="url(#N)"></path><path fill="url(#O)" d="M502.732 224.88c-1.939-3.213-5.049-4.982-8.805-4.982-18.492.076-36.983.144-55.472.205-3.971.012-7.252 2.349-9.003 6.412-1.137 2.637-1.724 5.68-1.761 9.051a31.74 31.74 0 0 0-2.84-3.715c-6.276-7.031-16.315-11.379-26.853-11.632-.246-.006-.49-.009-.736-.009-10.153 0-19.883 4.931-26.026 13.19-3.48 4.678-5.569 10.066-6.845 15.531-1.651-5.996-4.026-11.097-7.16-15.368-5.968-8.13-15.77-13.07-26.297-13.218-8.866.011-17.731.021-26.597.029-3.865.003-7.243 1.844-9.509 5.185-1.928 2.843-2.89 6.174-2.858 9.902l.002.242c-.823-2.699-2.115-5.299-3.907-7.771-3.625-5.004-7.659-7.54-11.995-7.54-2.508.001-7.129 1.026-9.871 7.821a8148.19 8148.19 0 0 1-14.483 34.454l.049-27.112c.011-5.981-2.522-9.461-4.648-11.328-2.897-2.543-6.384-3.833-10.37-3.835-3.965 0-7.451 1.279-10.358 3.799-2.139 1.853-4.697 5.312-4.733 11.267l-.087 14.222c-1.684-6.212-4.265-11.729-7.63-16.074-6.204-8.015-16.266-12.968-26.913-13.249-.246-.007-.491-.01-.737-.01-9.698 0-19.371 5.072-25.876 13.568-8.363 10.921-9.666 25.137-10.285 38.762l-1.039 53.472c-5.014-28.841-10.586-60.547-16.45-92.976-.861-4.514-3.053-8.066-6.516-10.558-3.244-2.333-7.039-3.516-11.28-3.516-4.132 0-7.912 1.114-11.236 3.311-3.546 2.344-5.887 5.683-6.966 9.968-7.11 29.385-14.015 56.767-20.962 83.128.171-1.838.292-3.623.404-5.296l.057-.858 1.752-76.073c.12-5.197-2.233-8.273-4.228-9.939-2.579-2.153-5.712-3.25-9.312-3.263l-22.512-.079c-3.811 0-6.978 1.967-8.918 5.539-1.44 2.651-2.195 5.731-2.243 9.152-.051 3.611.632 6.844 2.031 9.607 1.816 3.591 4.79 5.744 8.375 6.063 2.61.232 4.454.394 6.433.564l-1.03 52.656.017.231c.21 2.881-.619 5.164-1.535 6.149-.411.442-.809.622-1.374.622-.505 0-1.135-.148-1.824-.427-1.713-.693-3.091-1.545-4.098-2.533a7.504 7.504 0 0 1-1.944-3.181c-.7-2.226-.969-3.473-1.072-4.129-.126-.796-.306-2.212-.45-4.44-.301-4.635-2.783-10.856-12.901-14.166-2.587-.846-4.775-1.258-6.689-1.258-1.84 0-3.468.389-4.84 1.157-3.214 1.8-4.819 5.551-4.771 11.147.079 9.253 3.448 18.827 9.488 26.958 5.087 6.848 13.375 15.952 23.975 20.436 4.045 1.711 9.385 3.676 14.81 3.676 4.448 0 8.429-1.296 11.831-3.852 2.501-1.879 4.389-4.182 5.844-6.721l-.594 2.212-.051.208c-.274 1.224-.399 2.048-.416 2.762-.098 4.179 1.616 8.394 5.095 12.526 3.285 3.903 6.855 6.564 10.61 7.906 1.594.571 3.048.848 4.445.848 4.381 0 7.644-2.749 8.732-7.369 1.26-5.425 2.509-10.853 3.749-16.283a595.445 595.445 0 0 0 18.95 4.486c1.112 7.259 2.222 14.518 3.33 21.786.92 5.957 4.56 10.006 10.25 11.403 1.25.307 2.517.462 3.763.462 3.136 0 6.183-.963 9.055-2.862 3.926-2.594 6.167-6.389 6.578-11.009.965 2.21 2.089 4.369 3.434 6.445 6.397 9.876 16.199 16.493 26.22 17.701 1.3.156 2.628.236 3.946.236 9.584 0 18.742-4.152 24.497-11.105 3.776-4.562 6.571-10.295 8.365-17.14l-.096 15.563c-.029 4.669 1.558 8.638 4.591 11.478 2.93 2.744 6.471 4.213 10.526 4.367.226.008.451.013.673.013 3.845 0 7.241-1.242 10.094-3.69 2.191-1.88 4.806-5.382 4.817-11.393l.068-37.925.13-.272a4387.025 4387.025 0 0 0 18.403 45.101c3.104 7.916 8.525 9.097 11.481 9.097.216 0 .436-.006.656-.018 4.59-.251 8.717-2.901 12.264-7.879.352-.494.677-.996.991-1.499a12.466 12.466 0 0 0 2.735 2.956c2.611 2.026 5.656 3.053 9.048 3.053.611 0 1.241-.034 1.871-.103 3.964-.429 7.41-2.082 10.242-4.913 2.944-2.941 4.468-6.901 4.409-11.451l-.532-40.768c2.662-.237 4.963-.46 8.457-.814 10.786-1.279 20.742-7.395 26.63-16.36 1.828-2.783 3.368-5.875 4.635-9.25l.48 22.732c.193 12.095 1.6 27.209 10.849 36.814 4.749 4.932 10.771 7.433 17.901 7.433 3.152 0 6.49-.477 10.207-1.46 9.595-2.535 19.384-10.147 25.548-19.864 7.324-11.547 8.407-25.444 8.533-36.261l-1.079-45.639-.008-.18c-.27-4.526-.721-9.28-1.659-13.94a8.928 8.928 0 0 0 4.862 1.439c.239 0 .481-.009.725-.027 4.1-.311 8.235-.636 12.345-.972l1.589 80.458c.094 4.729 2.642 8.139 6.818 9.123.88.207 1.804.313 2.745.313 2.315 0 4.725-.608 7.368-1.86a25.457 25.457 0 0 0 8.351-6.339c2.683-3.084 4.019-6.413 3.972-9.895l-.994-74.426c4.316-.407 8.658-.829 12.96-1.262 3.43-.344 6.344-2.292 8.202-5.486 1.505-2.585 2.268-5.6 2.268-8.963.002-3.232-.758-6.129-2.257-8.612zm-393.316 80.175a6363.064 6363.064 0 0 0 3.805-17.282c.957 6.063 1.927 12.236 2.916 18.557-2.245-.419-4.488-.844-6.721-1.275zm110.736 17.887c-2.457-3.617-6.429-5.615-11.806-5.941a21.992 21.992 0 0 0-1.339-.042c-8.392 0-13.552 5.087-14.157 13.958-.227 3.332-.47 5.404-.635 6.555-.206 1.444-.647 3.339-1.31 5.634-.27.937-.754 2.161-1.524 2.675-.457.306-1.084.454-1.916.454-.276 0-.574-.018-.885-.052-7.979-.884-7.19-16.272-7.153-16.926l.006-.103.888-54.912-.001-.215c-.135-5.033.896-11.309 3.501-13.985.83-.853 1.708-1.216 2.934-1.216.092 0 .186.002.282.006 2.386.11 6.402 2.119 6.49 14.345.067 9.251 5.616 14.977 14.842 15.316.274.01.543.015.809.015 6.215 0 9.549-2.784 11.251-5.12.343-.47.655-.988.944-1.545l-.263 42.808a13.415 13.415 0 0 0-.958-1.709zm51.006-29.194a10765.45 10765.45 0 0 0 20.148-42.631l.084-.188c.269-.638.501-1.288.704-1.948l.886 98.251a4008.176 4008.176 0 0 1-21.822-53.484zm59.164-1.283c-3.049.231-5.174.386-7.495.543l-.445-34.157c2.447-.066 4.629-.131 7.783-.228l.104-.001c1.395 0 2.41.394 3.289 1.277 2.187 2.197 3.528 7.491 3.499 13.814l.043 2.469c.176 4.664-.129 15.569-6.778 16.283zm68.797 39.848c-.454.136-.859.205-1.203.205-.469 0-.864-.108-1.386-.644-1.923-1.977-2.964-7.107-2.86-10.926l.004-.127-1.177-50.67-.011-.219c-.298-4.455.476-10.155 2.881-12.845.895-1.001 1.925-1.475 3.339-1.538.112-.005.223-.007.333-.007 1.484 0 3.194.377 4.616 3.172 1.155 2.271 1.817 5.636 1.815 9.234l1.171 48.224c.137 3.216.003 13.885-7.522 16.141z" opacity="1" data-original="url(#O)"></path><path fill="url(#P)" d="M10.019 292.711c-.031-3.65.734-5.908 2.21-6.734 1.475-.826 3.981-.668 7.524.491 6.012 1.967 9.165 5.181 9.46 9.73.132 2.04.309 3.681.5 4.896.192 1.215.606 2.828 1.242 4.85a12.5 12.5 0 0 0 3.215 5.257c1.508 1.48 3.449 2.678 5.724 3.599 8.016 3.246 12.139-4.067 11.607-11.353l1.118-57.116c-4.439-.374-6.657-.565-11.09-.96-1.869-.166-3.317-1.292-4.349-3.334-1.032-2.041-1.532-4.452-1.492-7.275.037-2.627.581-4.89 1.636-6.833 1.054-1.941 2.568-2.929 4.538-2.921 7.492.028 14.983.054 22.475.079 2.396.008 4.439.697 6.118 2.099s2.49 3.408 2.431 5.978l-1.749 75.963c-.624 9.279-1.198 20.953-9.031 26.837-6.645 4.991-14.777 2.489-21.682-.432-8.638-3.654-16.224-11.161-21.906-18.809-5.095-6.859-8.427-15.471-8.499-24.012z" opacity="1" data-original="url(#P)"></path><path fill="url(#Q)" d="M74.904 338.548c.008-.34.105-.932.296-1.783 9.244-34.283 17.961-68.697 26.312-103.208.758-3.01 2.378-5.327 4.859-6.967 2.481-1.639 5.305-2.48 8.474-2.48 3.168 0 5.953.845 8.355 2.573 2.401 1.728 3.907 4.213 4.52 7.431 7.389 40.859 14.527 81.763 21.595 122.679.152 1.105.225 1.855.216 2.256-.069 3.478-1.545 6.208-4.419 8.107-2.876 1.901-5.833 2.457-8.864 1.713-3.726-.914-5.887-3.375-6.493-7.303-1.28-8.398-2.564-16.795-3.852-25.191-9.09-1.928-18.128-4.105-27.118-6.45a4712.999 4712.999 0 0 1-4.888 21.284c-.765 3.249-2.973 4.238-6.609 2.937-2.962-1.059-5.782-3.228-8.465-6.416-2.683-3.187-3.988-6.233-3.919-9.182zm28.508-29.562a1160.466 1160.466 0 0 0 18.763 3.546 12303.475 12303.475 0 0 0-8.2-51.904 6435.453 6435.453 0 0 1-10.563 48.358z" opacity="1" data-original="url(#Q)"></path><path fill="url(#R)" d="m154.096 326.339 1.038-53.433c.558-12.282 1.563-25.895 9.258-35.944 5.242-6.846 13.622-11.832 22.504-11.596 8.804.233 17.678 4.325 23.085 11.309 6.555 8.467 8.95 20.673 8.838 31.309-.065 6.119-.86 10.292-2.436 12.455-1.578 2.165-4.189 3.184-7.828 3.05-6.499-.24-9.971-3.844-10.018-10.347-.053-7.409-1.724-18.874-11.27-19.312-10.131-.465-12.154 12.864-11.953 20.333l-.887 54.809c-.464 8.104 1.458 21.067 11.602 22.192 2.439.271 4.497-.122 6.135-1.215 1.636-1.093 2.821-2.912 3.554-5.45.732-2.535 1.218-4.645 1.456-6.315s.473-3.988.674-6.923c.448-6.567 3.822-9.643 10.197-9.258 3.753.227 6.411 1.466 7.965 3.755 1.556 2.291 2.426 6.627 2.263 12.639-.295 10.895-2.38 23.312-9.581 32.013-5.727 6.92-15.113 10.158-23.986 9.09-9.446-1.137-17.613-7.728-22.614-15.45-7.169-11.069-7.91-24.816-7.996-37.711z" opacity="1" data-original="url(#R)"></path><path fill="url(#S)" d="m225.828 372.056.839-136.565c.02-3.291 1.021-5.794 3.003-7.511 1.98-1.717 4.339-2.577 7.082-2.576 2.74.001 5.094.863 7.061 2.59 1.966 1.726 2.95 4.247 2.944 7.554l-.093 51.79c8.144-19.026 16.178-38.097 24.158-57.192 1.275-3.16 3.023-4.742 5.252-4.743 2.654-.001 5.299 1.828 7.938 5.47 2.638 3.641 3.977 7.527 4.007 11.669.016 2.287-.399 4.434-1.245 6.443a10789.516 10789.516 0 0 1-21.079 44.59c8.983 22.482 18.131 44.894 27.529 67.206.719 1.807 1.087 3.635 1.103 5.486.034 4.135-1.258 8.048-3.882 11.729-2.626 3.684-5.449 5.62-8.459 5.785-3.188.174-5.591-1.801-7.201-5.906a4602.049 4602.049 0 0 1-22.671-55.755 2976.2 2976.2 0 0 1-5.532 11.613l-.07 39.058c-.006 3.311-1.029 5.85-3.069 7.6-2.043 1.753-4.482 2.58-7.316 2.473-2.837-.107-5.267-1.121-7.292-3.017-2.026-1.897-3.027-4.497-3.007-7.791z" opacity="1" data-original="url(#S)"></path><path fill="url(#T)" d="m298.204 371.097-1.223-135.68c-.024-2.7.64-5.051 1.994-7.045 1.351-1.991 3.14-2.985 5.369-2.987 8.866-.008 17.732-.018 26.598-.029 8.65.121 17.122 4.183 22.252 11.173 7.045 9.599 8.823 22.981 9.01 34.652l.02.997c.301 12.17-1.259 25.756-8.037 36.075-5.112 7.782-13.761 13.036-23.033 14.135-5.169.523-7.757.763-12.936 1.197l.592 45.426c.042 3.227-.938 5.842-2.94 7.843-2.005 2.004-4.418 3.171-7.241 3.476-2.825.306-5.262-.34-7.309-1.928-2.047-1.589-3.086-4.031-3.116-7.305zm19.683-72.75a837.88 837.88 0 0 0 12.881-.893c10.161-1.01 11.642-13.404 11.335-21.463l-.039-2.256c.035-7.727-1.787-20.268-11.972-20.122-5.112.157-7.669.229-12.784.359l.579 44.375z" opacity="1" data-original="url(#T)"></path><path fill="url(#U)" d="m368.496 324.404-1.108-52.422c.065-12.014.465-25.641 7.868-35.592 5.201-6.992 13.777-11.375 22.622-11.163 8.501.204 17.502 3.535 23.236 9.96 7.184 8.05 8.702 20.005 9.324 30.44l1.078 45.462c-.134 11.555-1.501 23.777-7.754 33.636-5.137 8.099-13.752 15.367-22.597 17.705-7.995 2.113-16.57 2.302-23.221-4.605-8.089-8.403-9.273-22.435-9.448-33.421zm20.167-3.593c-.182 6.641 2.381 19.154 11.896 16.3 8.982-2.694 11.449-12.703 11.086-21.155l-1.167-48.007c.004-7.615-2.582-17.823-11.994-17.405-9.573.425-11.5 12.218-10.995 19.722l1.174 50.545z" opacity="1" data-original="url(#U)"></path><path fill="url(#V)" d="M432.7 236.528c-.072-3.082.378-5.77 1.352-8.031.975-2.262 2.446-3.379 4.417-3.386 18.493-.061 36.985-.129 55.478-.205 1.968-.008 3.47.86 4.497 2.562s1.538 3.695 1.538 6.023c0 2.497-.531 4.63-1.587 6.442-1.056 1.814-2.513 2.836-4.372 3.022-5.841.587-11.686 1.15-17.532 1.688l1.056 79.051c.03 2.232-.885 4.405-2.742 6.54a20.411 20.411 0 0 1-6.717 5.1c-2.625 1.244-4.898 1.652-6.818 1.199-1.922-.453-2.911-1.924-2.959-4.347l-1.695-85.792c-5.873.494-11.75.965-17.627 1.41-1.876.143-3.373-.858-4.492-3.036-1.121-2.178-1.719-4.935-1.797-8.24z" opacity="1" data-original="url(#V)"></path><path fill="url(#W)" d="M58.532 188.069H35.745c-6.044 0-10.944-4.9-10.944-10.944 0-6.044 4.9-10.944 10.944-10.944h22.787c6.044 0 10.944 4.9 10.944 10.944 0 6.045-4.9 10.944-10.944 10.944z" opacity="1" data-original="url(#W)"></path><path fill="url(#X)" d="M472.949 188.069h-22.787c-6.044 0-10.944-4.9-10.944-10.944 0-6.044 4.9-10.944 10.944-10.944h22.787c6.044 0 10.944 4.9 10.944 10.944 0 6.045-4.9 10.944-10.944 10.944z" opacity="1" data-original="url(#X)"></path><path fill="url(#Y)" d="m117.168 46.402-16.113-16.113c-4.274-4.274-4.274-11.203 0-15.477 4.274-4.274 11.203-4.274 15.477 0l16.113 16.113c4.274 4.274 4.274 11.203 0 15.477-4.273 4.274-11.203 4.274-15.477 0z" opacity="1" data-original="url(#Y)"></path><path fill="url(#Z)" d="m392.528 46.402 16.113-16.113c4.274-4.274 4.274-11.203 0-15.477-4.274-4.274-11.204-4.274-15.477 0l-16.113 16.113c-4.274 4.274-4.274 11.203 0 15.477 4.274 4.274 11.203 4.274 15.477 0z" opacity="1" data-original="url(#Z)"></path><path fill="url(#aa)" d="M268.242 490.488V416.37c0-7.674-6.221-13.895-13.895-13.895-7.674 0-13.895 6.221-13.895 13.895v74.118c0 7.674 6.221 13.895 13.895 13.895 7.674 0 13.895-6.221 13.895-13.895z" opacity="1" data-original="url(#aa)"></path><path fill="url(#ab)" d="m95.059 434.274 33.441-33.441c5.426-5.426 5.426-14.224 0-19.65-5.426-5.426-14.224-5.426-19.65 0l-33.441 33.441c-5.426 5.426-5.426 14.224 0 19.65 5.426 5.426 14.223 5.426 19.65 0z" opacity="1" data-original="url(#ab)"></path><path fill="url(#ac)" d="m399.108 419.746 14.528 14.528c5.426 5.426 14.224 5.426 19.65 0 5.426-5.426 5.426-14.224 0-19.65l-14.528-14.528c-5.426-5.426-14.224-5.426-19.65 0-5.427 5.426-5.427 14.224 0 19.65z" opacity="1" data-original="url(#ac)"></path><path fill="url(#ad)" d="M166.853 443.836c5.156 2.49 7.201 8.772 4.499 13.82l-15.112 28.233c-2.515 4.959-8.575 6.943-13.534 4.428a10.081 10.081 0 0 1-5.52-8.986c0-1.533.351-3.086 1.092-4.548l15.318-28.629a10.069 10.069 0 0 1 13.257-4.318z" opacity="1" data-original="url(#ad)"></path><path fill="url(#ae)" d="M197.264 406.736c0 1.533-.351 3.086-1.092 4.548l-2.025 3.781a10.071 10.071 0 0 1-13.253 4.317c-5.158-2.488-7.206-8.77-4.505-13.82l1.81-3.384c2.514-4.959 8.576-6.943 13.544-4.428a10.078 10.078 0 0 1 5.521 8.986z" opacity="1" data-original="url(#ae)"></path><path fill="url(#af)" d="m312.523 411.283 39.929 74.605c2.515 4.962 8.576 6.946 13.538 4.431 4.962-2.515 6.946-8.576 4.431-13.538l-39.929-74.605c-2.515-4.962-8.576-6.946-13.538-4.431-4.962 2.515-6.946 8.576-4.431 13.538z" opacity="1" data-original="url(#af)"></path></g></svg>