<svg xmlns="http://www.w3.org/2000/svg" version="1.1" xmlns:xlink="http://www.w3.org/1999/xlink" width="512" height="512" x="0" y="0" viewBox="0 0 512 512" style="enable-background:new 0 0 512 512" xml:space="preserve"><g><path fill="#fece3f" d="M400.225 466h-288.45V200.765a4 4 0 0 1 4-4h280.451a4 4 0 0 1 4 4V466z" opacity="1" data-original="#fece3f"></path><path fill="#fec020" d="M369.32 196.765V466h30.905V200.765a4 4 0 0 0-4-4z" opacity="1" data-original="#fec020"></path><path fill="#b0f7ff" d="M142.68 395.665V245.108c0-9.631 7.807-17.438 17.438-17.438h191.764c9.631 0 17.438 7.807 17.438 17.438v150.557c0 9.631-7.807 17.438-17.438 17.438H160.118c-9.631 0-17.438-7.808-17.438-17.438z" opacity="1" data-original="#b0f7ff"></path><path fill="#7defff" d="M351.882 227.67h-30.905c9.631 0 17.438 7.807 17.438 17.438v150.557c0 9.63-7.807 17.438-17.438 17.438h30.905c9.631 0 17.438-7.807 17.438-17.438V245.108c0-9.631-7.807-17.438-17.438-17.438z" opacity="1" data-original="#7defff"></path><path fill="#fec020" d="M427.001 512H84.999A3.998 3.998 0 0 1 81 508.001v-59.995a4 4 0 0 1 3.999-3.999h342.003a4 4 0 0 1 3.999 3.999v59.995a4 4 0 0 1-4 3.999z" opacity="1" data-original="#fec020"></path><path fill="#fda509" d="M400.118 444.008V512h26.885a3.999 3.999 0 0 0 3.997-4v-59.992c0-2.209-1.79-4-3.997-4z" opacity="1" data-original="#fda509"></path><path fill="#356c8e" d="M235.396 155.515h41.207v41.207h-41.207z" opacity="1" data-original="#356c8e"></path><circle cx="256" cy="85.505" r="85.505" fill="#fec020" opacity="1" data-original="#fec020"></circle><circle cx="256" cy="85.505" r="54.6" fill="#b0f7ff" opacity="1" data-original="#b0f7ff"></circle><path fill="#7defff" d="M256 30.905c-5.367 0-10.55.791-15.453 2.241 22.602 6.683 39.147 27.619 39.147 52.359s-16.544 45.676-39.147 52.359A54.398 54.398 0 0 0 256 140.105c30.107 0 54.6-24.493 54.6-54.6s-24.493-54.6-54.6-54.6z" opacity="1" data-original="#7defff"></path><path fill="#356c8e" d="M256 23.405c-34.242 0-62.1 27.857-62.1 62.1s27.858 62.1 62.1 62.1 62.1-27.857 62.1-62.1-27.858-62.1-62.1-62.1zm0 109.199c-25.971 0-47.1-21.129-47.1-47.1s21.129-47.1 47.1-47.1 47.1 21.129 47.1 47.1-21.129 47.1-47.1 47.1z" opacity="1" data-original="#356c8e"></path><g fill="#f44336"><path d="M213.215 444.008h-41.207v-37.087a4.121 4.121 0 0 1 4.121-4.121h32.966a4.121 4.121 0 0 1 4.121 4.121v37.087zM339.992 444.008h-41.207v-37.087a4.121 4.121 0 0 1 4.121-4.121h32.966a4.121 4.121 0 0 1 4.121 4.121v37.087z" fill="#f44336" opacity="1" data-original="#f44336"></path></g></g></svg>