<svg width="512" height="486" viewBox="0 0 512 486" fill="none" xmlns="http://www.w3.org/2000/svg">
<path d="M352.002 345.996C346.479 345.996 342.002 350.476 342.002 355.996C342.002 361.516 346.479 365.996 352.002 365.996C357.522 365.996 362.002 361.516 362.002 355.996C362.002 350.476 357.522 345.996 352.002 345.996ZM266.002 170C266.002 164.477 261.522 160 256.002 160C250.482 160 246.002 164.477 246.002 170C246.002 175.52 250.482 180 256.002 180C261.522 180 266.002 175.52 266.002 170ZM160.002 365.996C165.522 365.996 170.002 361.516 170.002 355.996C170.002 350.476 165.522 345.996 160.002 345.996C154.482 345.996 150.002 350.476 150.002 355.996C150.002 361.516 154.482 365.996 160.002 365.996Z" fill="url(#paint0_linear_1125_266)"/>
<path d="M506.061 413.516L451.998 389.496V170C451.998 166.04 449.627 162.371 445.858 160.77L266.002 83.414V10C266.002 4.477 261.522 0 256.002 0C250.479 0 246.002 4.477 246.002 10V83.414L66.1466 160.77C62.5716 162.254 60.0056 165.875 60.0056 170V389.496L5.94159 413.516C0.895593 415.762 -1.37841 421.668 0.863593 426.715C3.09059 431.73 8.98059 434.051 14.0636 431.793L70.0666 406.91L252.052 485.18C254.458 486.215 257.399 486.277 259.954 485.18L441.934 406.91L497.938 431.793C503.04 434.059 508.919 431.711 511.138 426.715C513.38 421.668 511.106 415.762 506.06 413.515L506.061 413.516ZM246.002 105.187V130C246.002 135.52 250.479 140 256.002 140C261.522 140 266.002 135.52 266.002 130V105.187L416.69 170L256.002 239.113L95.3136 170L246.002 105.187ZM132.592 368.185C130.346 363.138 124.436 360.868 119.392 363.106L80.0016 380.61V185.184L246.002 256.582V460.809L94.9666 395.848L127.514 381.387C132.561 379.141 134.834 373.23 132.592 368.184V368.185ZM266.002 460.809V256.582L431.998 185.184V380.609L392.611 363.109C387.561 360.867 381.654 363.137 379.412 368.188C377.17 373.234 379.443 379.141 384.49 381.387L417.037 395.847L266.002 460.809Z" fill="url(#paint1_linear_1125_266)"/>
<defs>
<linearGradient id="paint0_linear_1125_266" x1="157.566" y1="173.277" x2="352.931" y2="404.024" gradientUnits="userSpaceOnUse">
<stop stop-color="#1BA2D7"/>
<stop offset="1" stop-color="#8D3DFA"/>
</linearGradient>
<linearGradient id="paint1_linear_1125_266" x1="18.2681" y1="31.323" x2="477.268" y2="586.303" gradientUnits="userSpaceOnUse">
<stop stop-color="#1BA2D7"/>
<stop offset="1" stop-color="#8D3DFA"/>
</linearGradient>
</defs>
</svg>
