<svg width="504" height="512" viewBox="0 0 504 512" fill="none" xmlns="http://www.w3.org/2000/svg">
<path d="M384.002 0H42.6668C19.1147 0.0277335 0.0277337 19.1147 2.59198e-07 42.6668V315.735C-0.00213308 335.196 13.1649 352.191 32.0087 357.053L36.2754 340.533C30.7768 339.115 25.9056 335.909 22.4283 331.42C18.9509 326.931 17.0648 321.413 17.0667 315.735V42.6668C17.0667 28.5281 28.5281 17.0667 42.6668 17.0667H384.002C398.14 17.0667 409.602 28.5281 409.602 42.6668V51.2002H426.668V42.6668C426.641 19.1147 407.554 0.0277335 384.002 0Z" fill="url(#paint0_linear_1125_137)"/>
<path d="M34.1335 34.1328H51.2003V51.1996H34.1335V34.1328ZM68.267 34.1328H85.3338V51.1996H68.267V34.1328ZM102.4 34.1328H119.467V51.1996H102.4V34.1328ZM500.969 471.835L420.03 390.896C424.282 383.307 427.681 375.271 430.167 366.934H443.735V349.867H433.837C437.051 329.211 434.572 308.07 426.669 288.717V204.8H409.602V259.141C404.534 252.667 398.815 246.731 392.535 241.425V170.667H375.468V229.496C370.005 226.33 364.298 223.605 358.402 221.346V136.533H341.335V216.167C335.712 214.953 330.008 214.152 324.268 213.769V153.6H307.201V213.769C301.462 214.152 295.758 214.953 290.135 216.167V187.733H273.068V221.346C267.171 223.605 261.464 226.33 256.001 229.496V179.2H238.934V241.425C232.654 246.731 226.935 252.667 221.868 259.141V196.267H204.801V288.717C196.897 308.07 194.419 329.211 197.633 349.867H85.3338V366.934H201.302C220.018 430.062 286.365 466.064 349.492 447.348C361.932 443.66 373.686 437.966 384.292 430.491L463.302 509.501C464.903 511.101 467.073 512 469.335 512C471.598 512 473.768 511.101 475.368 509.501L500.969 483.901C502.568 482.301 503.467 480.131 503.467 477.868C503.467 475.605 502.568 473.435 500.969 471.835ZM315.735 435.201C259.205 435.14 213.395 389.33 213.334 332.801C213.334 276.247 259.181 230.4 315.735 230.4C372.289 230.4 418.135 276.247 418.135 332.801C418.135 389.355 372.289 435.201 315.735 435.201ZM469.335 491.402L397.553 419.619C402.203 415.225 406.498 410.468 410.395 405.394L482.869 477.868L469.335 491.402Z" fill="url(#paint1_linear_1125_137)"/>
<path d="M315.735 247.467C268.606 247.467 230.401 285.672 230.401 332.8C230.401 379.929 268.606 418.134 315.735 418.134C362.863 418.134 401.068 379.929 401.068 332.8C401.017 285.693 362.842 247.518 315.735 247.467ZM315.735 401.067C303.766 401.052 292.012 397.891 281.65 391.9C271.289 385.909 262.685 377.299 256.701 366.934H374.768C368.784 377.299 360.18 385.909 349.819 391.9C339.457 397.891 327.703 401.052 315.735 401.067ZM249.712 349.867C242.846 323.883 252.014 296.299 273.068 279.595V332.8H290.134V269.56C295.606 267.346 301.344 265.854 307.201 265.122V332.8H324.268V265.122C330.125 265.854 335.863 267.346 341.335 269.56V332.8H358.401V279.595C379.455 296.299 388.623 323.883 381.757 349.867H249.712Z" fill="url(#paint2_linear_1125_137)"/>
<path d="M435.202 68.2676H93.867C70.3149 68.2953 51.2279 87.3823 51.2002 110.934V384.002C51.2279 407.554 70.3149 426.641 93.867 426.669H204.801V409.602H93.867C79.7283 409.602 68.2669 398.141 68.2669 384.002V110.934C68.2669 96.7957 79.7283 85.3343 93.867 85.3343H435.202C449.341 85.3343 460.802 96.7957 460.802 110.934V384.002C460.801 390.237 458.525 396.257 454.402 400.932L467.202 412.222C474.08 404.431 477.873 394.395 477.869 384.002V110.934C477.841 87.3823 458.754 68.2953 435.202 68.2676Z" fill="url(#paint3_linear_1125_137)"/>
<path d="M85.3337 102.4H102.4V119.467H85.3337V102.4ZM119.467 102.4H136.534V119.467H119.467V102.4ZM153.601 102.4H170.667V119.467H153.601V102.4ZM102.4 281.601H119.467V332.801H102.4V281.601ZM136.534 230.401H153.601V332.801H136.534V230.401ZM170.667 256.001H187.734V332.801H170.667V256.001Z" fill="url(#paint4_linear_1125_137)"/>
<defs>
<linearGradient id="paint0_linear_1125_137" x1="15.2234" y1="23.0133" x2="342.111" y2="471.313" gradientUnits="userSpaceOnUse">
<stop stop-color="#1BA2D7"/>
<stop offset="1" stop-color="#8D3DFA"/>
</linearGradient>
<linearGradient id="paint1_linear_1125_137" x1="50.8793" y1="64.9329" x2="507.105" y2="579.174" gradientUnits="userSpaceOnUse">
<stop stop-color="#1BA2D7"/>
<stop offset="1" stop-color="#8D3DFA"/>
</linearGradient>
<linearGradient id="paint2_linear_1125_137" x1="236.49" y1="258.467" x2="399.053" y2="445.033" gradientUnits="userSpaceOnUse">
<stop stop-color="#1BA2D7"/>
<stop offset="1" stop-color="#8D3DFA"/>
</linearGradient>
<linearGradient id="paint3_linear_1125_137" x1="66.4236" y1="91.3677" x2="394.922" y2="540.181" gradientUnits="userSpaceOnUse">
<stop stop-color="#1BA2D7"/>
<stop offset="1" stop-color="#8D3DFA"/>
</linearGradient>
<linearGradient id="paint4_linear_1125_137" x1="88.9874" y1="117.25" x2="268.333" y2="208.729" gradientUnits="userSpaceOnUse">
<stop stop-color="#1BA2D7"/>
<stop offset="1" stop-color="#8D3DFA"/>
</linearGradient>
</defs>
</svg>
