<svg width="468" height="429" viewBox="0 0 468 429" fill="none" xmlns="http://www.w3.org/2000/svg">
<path d="M232.69 118.74C247.81 118.74 262.3 111.12 273.49 97.29C283.71 84.66 289.57 68.73 289.57 53.57C289.57 23.03 265.12 0 232.69 0C200.26 0 175.81 23 175.81 53.57C175.81 68.73 181.67 84.66 191.89 97.29C203.08 111.13 217.57 118.74 232.69 118.74ZM232.69 16.5C256.09 16.5 273.07 32.09 273.07 53.57C273.07 80.57 250.98 102.24 232.69 102.24C210.32 102.24 192.31 75.61 192.31 53.57C192.31 32.13 209.29 16.5 232.69 16.5ZM165.38 197.92L159.59 280.51C159.514 281.591 159.651 282.676 159.994 283.704C160.337 284.731 160.88 285.681 161.59 286.499C162.3 287.318 163.165 287.988 164.134 288.472C165.104 288.956 166.159 289.244 167.24 289.32H167.82C169.907 289.318 171.916 288.526 173.442 287.103C174.969 285.68 175.901 283.732 176.05 281.65L181.84 199.13C181.916 198.049 181.778 196.964 181.435 195.936C181.092 194.909 180.55 193.959 179.839 193.141C179.129 192.323 178.264 191.652 177.295 191.168C176.326 190.684 175.271 190.396 174.19 190.32C173.109 190.244 172.024 190.381 170.996 190.725C169.968 191.068 169.019 191.61 168.2 192.32C167.382 193.031 166.712 193.895 166.228 194.865C165.744 195.834 165.456 196.889 165.38 197.97V197.92Z" fill="white"/>
<path d="M232.69 118.74C247.81 118.74 262.3 111.12 273.49 97.29C283.71 84.66 289.57 68.73 289.57 53.57C289.57 23.03 265.12 0 232.69 0C200.26 0 175.81 23 175.81 53.57C175.81 68.73 181.67 84.66 191.89 97.29C203.08 111.13 217.57 118.74 232.69 118.74ZM232.69 16.5C256.09 16.5 273.07 32.09 273.07 53.57C273.07 80.57 250.98 102.24 232.69 102.24C210.32 102.24 192.31 75.61 192.31 53.57C192.31 32.13 209.29 16.5 232.69 16.5ZM165.38 197.92L159.59 280.51C159.514 281.591 159.651 282.676 159.994 283.704C160.337 284.731 160.88 285.681 161.59 286.499C162.3 287.318 163.165 287.988 164.134 288.472C165.104 288.956 166.159 289.244 167.24 289.32H167.82C169.907 289.318 171.916 288.526 173.442 287.103C174.969 285.68 175.901 283.732 176.05 281.65L181.84 199.13C181.916 198.049 181.778 196.964 181.435 195.936C181.092 194.909 180.55 193.959 179.839 193.141C179.129 192.323 178.264 191.652 177.295 191.168C176.326 190.684 175.271 190.396 174.19 190.32C173.109 190.244 172.024 190.381 170.996 190.725C169.968 191.068 169.019 191.61 168.2 192.32C167.382 193.031 166.712 193.895 166.228 194.865C165.744 195.834 165.456 196.889 165.38 197.97V197.92Z" fill="url(#paint0_linear_1125_232)"/>
<path d="M344.58 289.31C346.819 289.112 348.887 288.034 350.332 286.314C351.778 284.593 352.482 282.369 352.29 280.13C352.29 280.13 343.57 217.6 342.29 196.62C339.92 158.95 316.91 128.73 280.96 123.23C268.32 121.29 245.36 119.83 233.36 119.82C216.979 120.104 200.624 121.236 184.36 123.21C167.499 125.519 152.056 133.891 140.92 146.76C129.22 160.27 123.99 177.54 122.92 196.66C121.72 217.66 113.77 280.22 113.77 280.22C113.636 281.305 113.719 282.405 114.014 283.458C114.309 284.51 114.81 285.493 115.488 286.35C116.166 287.207 117.007 287.921 117.964 288.45C118.92 288.979 119.972 289.313 121.058 289.432C122.144 289.551 123.243 289.454 124.292 289.145C125.34 288.835 126.316 288.321 127.164 287.632C128.012 286.942 128.714 286.091 129.23 285.128C129.746 284.164 130.066 283.108 130.17 282.02C130.17 282.02 138.24 218.78 139.39 197.57C141.03 167.51 158.82 143.35 186.61 139.57C202.121 137.686 217.718 136.605 233.34 136.33C244.52 136.33 266.71 137.75 278.45 139.55C291.358 141.504 303.16 147.958 311.77 157.77C320.93 168.29 324.9 182.42 325.77 197.62C327.04 218.86 335.9 282.11 335.9 282.11C336.221 284.162 337.28 286.026 338.878 287.352C340.477 288.678 342.504 289.374 344.58 289.31Z" fill="white"/>
<path d="M344.58 289.31C346.819 289.112 348.887 288.034 350.332 286.314C351.778 284.593 352.482 282.369 352.29 280.13C352.29 280.13 343.57 217.6 342.29 196.62C339.92 158.95 316.91 128.73 280.96 123.23C268.32 121.29 245.36 119.83 233.36 119.82C216.979 120.104 200.624 121.236 184.36 123.21C167.499 125.519 152.056 133.891 140.92 146.76C129.22 160.27 123.99 177.54 122.92 196.66C121.72 217.66 113.77 280.22 113.77 280.22C113.636 281.305 113.719 282.405 114.014 283.458C114.309 284.51 114.81 285.493 115.488 286.35C116.166 287.207 117.007 287.921 117.964 288.45C118.92 288.979 119.972 289.313 121.058 289.432C122.144 289.551 123.243 289.454 124.292 289.145C125.34 288.835 126.316 288.321 127.164 287.632C128.012 286.942 128.714 286.091 129.23 285.128C129.746 284.164 130.066 283.108 130.17 282.02C130.17 282.02 138.24 218.78 139.39 197.57C141.03 167.51 158.82 143.35 186.61 139.57C202.121 137.686 217.718 136.605 233.34 136.33C244.52 136.33 266.71 137.75 278.45 139.55C291.358 141.504 303.16 147.958 311.77 157.77C320.93 168.29 324.9 182.42 325.77 197.62C327.04 218.86 335.9 282.11 335.9 282.11C336.221 284.162 337.28 286.026 338.878 287.352C340.477 288.678 342.504 289.374 344.58 289.31Z" fill="url(#paint1_linear_1125_232)"/>
<path d="M290.95 190.268C289.864 190.343 288.803 190.632 287.829 191.118C286.855 191.605 285.987 192.279 285.275 193.103C284.563 193.927 284.021 194.883 283.68 195.917C283.34 196.951 283.207 198.043 283.29 199.128L289.09 281.708C289.234 283.791 290.163 285.741 291.688 287.166C293.213 288.592 295.222 289.386 297.31 289.388H297.9C300.082 289.232 302.112 288.216 303.547 286.565C304.981 284.913 305.701 282.76 305.55 280.578L299.75 197.988C299.68 196.903 299.397 195.842 298.917 194.867C298.436 193.891 297.768 193.02 296.951 192.303C296.134 191.586 295.183 191.037 294.153 190.688C293.123 190.339 292.035 190.196 290.95 190.268ZM285.33 364.008L325.01 325.328C326.112 324.254 326.891 322.892 327.26 321.398C327.628 319.904 327.572 318.337 327.096 316.873C326.621 315.41 325.746 314.108 324.569 313.116C323.393 312.124 321.963 311.48 320.44 311.258L265.61 303.258L241.09 253.608C240.409 252.227 239.355 251.063 238.047 250.25C236.739 249.437 235.23 249.005 233.69 249.005C232.15 249.005 230.64 249.437 229.333 250.25C228.025 251.063 226.971 252.227 226.29 253.608L201.77 303.288L146.94 311.288C145.417 311.51 143.987 312.154 142.81 313.146C141.634 314.138 140.759 315.44 140.284 316.903C139.808 318.367 139.752 319.934 140.12 321.428C140.489 322.922 141.268 324.284 142.37 325.358L182.05 364.038L172.69 418.608C172.425 420.13 172.592 421.695 173.173 423.126C173.754 424.557 174.725 425.796 175.975 426.703C177.225 427.609 178.705 428.146 180.246 428.254C181.786 428.361 183.326 428.033 184.69 427.308L233.69 401.528L282.69 427.308C283.875 427.929 285.192 428.254 286.53 428.258C287.731 428.256 288.918 427.993 290.007 427.485C291.096 426.978 292.061 426.239 292.835 425.32C293.609 424.401 294.173 423.325 294.488 422.166C294.804 421.006 294.862 419.792 294.66 418.608L285.33 364.008ZM229.85 384.908C220.27 389.788 191.77 404.908 191.77 404.908L199.04 362.498C199.266 361.18 199.168 359.827 198.756 358.556C198.343 357.284 197.627 356.132 196.67 355.198L165.86 325.198L208.44 319.008C209.763 318.815 211.019 318.304 212.101 317.518C213.182 316.733 214.057 315.696 214.65 314.498L233.65 275.908L252.65 314.498C253.243 315.696 254.118 316.733 255.199 317.518C256.281 318.304 257.537 318.815 258.86 319.008L301.44 325.198L270.63 355.198C269.673 356.132 268.957 357.284 268.544 358.556C268.131 359.827 268.034 361.18 268.26 362.498L275.53 404.908C275.53 404.908 247.03 389.768 237.45 384.908C236.282 384.278 234.977 383.948 233.65 383.948C232.323 383.948 231.017 384.278 229.85 384.908ZM460.32 336.338L420.23 330.508L402.3 294.188C401.621 292.806 400.568 291.642 399.261 290.828C397.954 290.014 396.445 289.583 394.905 289.583C393.365 289.583 391.856 290.014 390.549 290.828C389.242 291.642 388.189 292.806 387.51 294.188L369.58 330.508L329.49 336.338C327.967 336.56 326.537 337.204 325.36 338.196C324.184 339.188 323.309 340.49 322.834 341.953C322.358 343.417 322.302 344.984 322.67 346.478C323.039 347.972 323.818 349.334 324.92 350.408L353.92 378.688L347.07 418.608C346.805 420.13 346.972 421.695 347.553 423.126C348.134 424.557 349.105 425.796 350.355 426.703C351.606 427.609 353.085 428.146 354.626 428.254C356.166 428.361 357.706 428.033 359.07 427.308L394.92 408.458L430.78 427.308C431.965 427.929 433.282 428.254 434.62 428.258C435.821 428.256 437.008 427.993 438.097 427.485C439.186 426.978 440.151 426.239 440.925 425.32C441.699 424.401 442.263 423.325 442.578 422.166C442.894 421.006 442.952 419.792 442.75 418.608L435.9 378.688L464.9 350.408C466.002 349.334 466.781 347.972 467.15 346.478C467.518 344.984 467.462 343.417 466.986 341.953C466.511 340.49 465.636 339.188 464.459 338.196C463.283 337.204 461.853 336.56 460.33 336.338H460.32ZM391.07 391.838C384.78 394.998 366.16 404.928 366.16 404.928L370.92 377.198C371.146 375.88 371.048 374.527 370.636 373.256C370.223 371.984 369.507 370.832 368.55 369.898L348.4 350.258L376.24 346.258C377.565 346.066 378.822 345.555 379.905 344.767C380.987 343.979 381.86 342.94 382.45 341.738L394.9 316.518L407.35 341.738C407.943 342.939 408.819 343.978 409.903 344.765C410.986 345.552 412.245 346.065 413.57 346.258L441.4 350.258L421.26 369.898C420.302 370.831 419.585 371.983 419.172 373.255C418.759 374.527 418.662 375.88 418.89 377.198L423.69 404.928C423.69 404.928 405.08 394.998 398.79 391.838C397.604 391.199 396.277 390.865 394.93 390.865C393.583 390.865 392.256 391.199 391.07 391.838ZM137.89 336.338L97.7999 330.508L79.8699 294.188C79.1907 292.806 78.1379 291.642 76.8308 290.828C75.5237 290.014 74.0147 289.583 72.4749 289.583C70.9351 289.583 69.4261 290.014 68.1191 290.828C66.812 291.642 65.7592 292.806 65.0799 294.188L47.1499 330.508L7.05994 336.338C5.53713 336.56 4.10676 337.204 2.93049 338.196C1.75421 339.188 0.878914 340.49 0.403518 341.953C-0.0718768 343.417 -0.12842 344.984 0.240278 346.478C0.608976 347.972 1.38822 349.334 2.48994 350.408L31.4899 378.688L24.6899 418.608C24.425 420.13 24.5925 421.695 25.1733 423.126C25.754 424.557 26.7248 425.796 27.9752 426.703C29.2255 427.609 30.7052 428.146 32.2458 428.254C33.7865 428.361 35.3263 428.033 36.6899 427.308L72.5499 408.458L108.4 427.308C109.585 427.929 110.902 428.254 112.24 428.258C113.441 428.256 114.628 427.993 115.717 427.485C116.806 426.978 117.771 426.239 118.545 425.32C119.319 424.401 119.883 423.325 120.198 422.166C120.514 421.006 120.572 419.792 120.37 418.608L113.52 378.688L142.52 350.408C143.622 349.334 144.401 347.972 144.77 346.478C145.138 344.984 145.082 343.417 144.606 341.953C144.131 340.49 143.256 339.188 142.079 338.196C140.903 337.204 139.473 336.56 137.95 336.338H137.89ZM68.6899 391.838L43.7399 404.928L48.4899 377.198C48.7177 375.88 48.621 374.527 48.208 373.255C47.7951 371.983 47.0784 370.831 46.1199 369.898L25.9799 350.258L53.8099 346.258C55.1352 346.065 56.3937 345.552 57.4772 344.765C58.5606 343.978 59.4367 342.939 60.0299 341.738L72.4799 316.518L84.9299 341.738C85.5195 342.94 86.3932 343.979 87.4753 344.767C88.5574 345.555 89.8153 346.066 91.1399 346.258L118.98 350.258L98.8299 369.898C97.8729 370.832 97.1572 371.984 96.7443 373.256C96.3315 374.527 96.2339 375.88 96.4599 377.198L101.22 404.928L76.3099 391.838C75.163 391.136 73.8445 390.765 72.4999 390.765C71.1553 390.765 69.8369 391.136 68.6899 391.838Z" fill="white"/>
<path d="M290.95 190.268C289.864 190.343 288.803 190.632 287.829 191.118C286.855 191.605 285.987 192.279 285.275 193.103C284.563 193.927 284.021 194.883 283.68 195.917C283.34 196.951 283.207 198.043 283.29 199.128L289.09 281.708C289.234 283.791 290.163 285.741 291.688 287.166C293.213 288.592 295.222 289.386 297.31 289.388H297.9C300.082 289.232 302.112 288.216 303.547 286.565C304.981 284.913 305.701 282.76 305.55 280.578L299.75 197.988C299.68 196.903 299.397 195.842 298.917 194.867C298.436 193.891 297.768 193.02 296.951 192.303C296.134 191.586 295.183 191.037 294.153 190.688C293.123 190.339 292.035 190.196 290.95 190.268ZM285.33 364.008L325.01 325.328C326.112 324.254 326.891 322.892 327.26 321.398C327.628 319.904 327.572 318.337 327.096 316.873C326.621 315.41 325.746 314.108 324.569 313.116C323.393 312.124 321.963 311.48 320.44 311.258L265.61 303.258L241.09 253.608C240.409 252.227 239.355 251.063 238.047 250.25C236.739 249.437 235.23 249.005 233.69 249.005C232.15 249.005 230.64 249.437 229.333 250.25C228.025 251.063 226.971 252.227 226.29 253.608L201.77 303.288L146.94 311.288C145.417 311.51 143.987 312.154 142.81 313.146C141.634 314.138 140.759 315.44 140.284 316.903C139.808 318.367 139.752 319.934 140.12 321.428C140.489 322.922 141.268 324.284 142.37 325.358L182.05 364.038L172.69 418.608C172.425 420.13 172.592 421.695 173.173 423.126C173.754 424.557 174.725 425.796 175.975 426.703C177.225 427.609 178.705 428.146 180.246 428.254C181.786 428.361 183.326 428.033 184.69 427.308L233.69 401.528L282.69 427.308C283.875 427.929 285.192 428.254 286.53 428.258C287.731 428.256 288.918 427.993 290.007 427.485C291.096 426.978 292.061 426.239 292.835 425.32C293.609 424.401 294.173 423.325 294.488 422.166C294.804 421.006 294.862 419.792 294.66 418.608L285.33 364.008ZM229.85 384.908C220.27 389.788 191.77 404.908 191.77 404.908L199.04 362.498C199.266 361.18 199.168 359.827 198.756 358.556C198.343 357.284 197.627 356.132 196.67 355.198L165.86 325.198L208.44 319.008C209.763 318.815 211.019 318.304 212.101 317.518C213.182 316.733 214.057 315.696 214.65 314.498L233.65 275.908L252.65 314.498C253.243 315.696 254.118 316.733 255.199 317.518C256.281 318.304 257.537 318.815 258.86 319.008L301.44 325.198L270.63 355.198C269.673 356.132 268.957 357.284 268.544 358.556C268.131 359.827 268.034 361.18 268.26 362.498L275.53 404.908C275.53 404.908 247.03 389.768 237.45 384.908C236.282 384.278 234.977 383.948 233.65 383.948C232.323 383.948 231.017 384.278 229.85 384.908ZM460.32 336.338L420.23 330.508L402.3 294.188C401.621 292.806 400.568 291.642 399.261 290.828C397.954 290.014 396.445 289.583 394.905 289.583C393.365 289.583 391.856 290.014 390.549 290.828C389.242 291.642 388.189 292.806 387.51 294.188L369.58 330.508L329.49 336.338C327.967 336.56 326.537 337.204 325.36 338.196C324.184 339.188 323.309 340.49 322.834 341.953C322.358 343.417 322.302 344.984 322.67 346.478C323.039 347.972 323.818 349.334 324.92 350.408L353.92 378.688L347.07 418.608C346.805 420.13 346.972 421.695 347.553 423.126C348.134 424.557 349.105 425.796 350.355 426.703C351.606 427.609 353.085 428.146 354.626 428.254C356.166 428.361 357.706 428.033 359.07 427.308L394.92 408.458L430.78 427.308C431.965 427.929 433.282 428.254 434.62 428.258C435.821 428.256 437.008 427.993 438.097 427.485C439.186 426.978 440.151 426.239 440.925 425.32C441.699 424.401 442.263 423.325 442.578 422.166C442.894 421.006 442.952 419.792 442.75 418.608L435.9 378.688L464.9 350.408C466.002 349.334 466.781 347.972 467.15 346.478C467.518 344.984 467.462 343.417 466.986 341.953C466.511 340.49 465.636 339.188 464.459 338.196C463.283 337.204 461.853 336.56 460.33 336.338H460.32ZM391.07 391.838C384.78 394.998 366.16 404.928 366.16 404.928L370.92 377.198C371.146 375.88 371.048 374.527 370.636 373.256C370.223 371.984 369.507 370.832 368.55 369.898L348.4 350.258L376.24 346.258C377.565 346.066 378.822 345.555 379.905 344.767C380.987 343.979 381.86 342.94 382.45 341.738L394.9 316.518L407.35 341.738C407.943 342.939 408.819 343.978 409.903 344.765C410.986 345.552 412.245 346.065 413.57 346.258L441.4 350.258L421.26 369.898C420.302 370.831 419.585 371.983 419.172 373.255C418.759 374.527 418.662 375.88 418.89 377.198L423.69 404.928C423.69 404.928 405.08 394.998 398.79 391.838C397.604 391.199 396.277 390.865 394.93 390.865C393.583 390.865 392.256 391.199 391.07 391.838ZM137.89 336.338L97.7999 330.508L79.8699 294.188C79.1907 292.806 78.1379 291.642 76.8308 290.828C75.5237 290.014 74.0147 289.583 72.4749 289.583C70.9351 289.583 69.4261 290.014 68.1191 290.828C66.812 291.642 65.7592 292.806 65.0799 294.188L47.1499 330.508L7.05994 336.338C5.53713 336.56 4.10676 337.204 2.93049 338.196C1.75421 339.188 0.878914 340.49 0.403518 341.953C-0.0718768 343.417 -0.12842 344.984 0.240278 346.478C0.608976 347.972 1.38822 349.334 2.48994 350.408L31.4899 378.688L24.6899 418.608C24.425 420.13 24.5925 421.695 25.1733 423.126C25.754 424.557 26.7248 425.796 27.9752 426.703C29.2255 427.609 30.7052 428.146 32.2458 428.254C33.7865 428.361 35.3263 428.033 36.6899 427.308L72.5499 408.458L108.4 427.308C109.585 427.929 110.902 428.254 112.24 428.258C113.441 428.256 114.628 427.993 115.717 427.485C116.806 426.978 117.771 426.239 118.545 425.32C119.319 424.401 119.883 423.325 120.198 422.166C120.514 421.006 120.572 419.792 120.37 418.608L113.52 378.688L142.52 350.408C143.622 349.334 144.401 347.972 144.77 346.478C145.138 344.984 145.082 343.417 144.606 341.953C144.131 340.49 143.256 339.188 142.079 338.196C140.903 337.204 139.473 336.56 137.95 336.338H137.89ZM68.6899 391.838L43.7399 404.928L48.4899 377.198C48.7177 375.88 48.621 374.527 48.208 373.255C47.7951 371.983 47.0784 370.831 46.1199 369.898L25.9799 350.258L53.8099 346.258C55.1352 346.065 56.3937 345.552 57.4772 344.765C58.5606 343.978 59.4367 342.939 60.0299 341.738L72.4799 316.518L84.9299 341.738C85.5195 342.94 86.3932 343.979 87.4753 344.767C88.5574 345.555 89.8153 346.066 91.1399 346.258L118.98 350.258L98.8299 369.898C97.8729 370.832 97.1572 371.984 96.7443 373.256C96.3315 374.527 96.2339 375.88 96.4599 377.198L101.22 404.928L76.3099 391.838C75.163 391.136 73.8445 390.765 72.4999 390.765C71.1553 390.765 69.8369 391.136 68.6899 391.838Z" fill="url(#paint2_linear_1125_232)"/>
<defs>
<linearGradient id="paint0_linear_1125_232" x1="164.208" y1="18.6476" x2="390.858" y2="135.526" gradientUnits="userSpaceOnUse">
<stop stop-color="#1BA2D7"/>
<stop offset="1" stop-color="#8D3DFA"/>
</linearGradient>
<linearGradient id="paint1_linear_1125_232" x1="122.221" y1="130.756" x2="268.297" y2="366.533" gradientUnits="userSpaceOnUse">
<stop stop-color="#1BA2D7"/>
<stop offset="1" stop-color="#8D3DFA"/>
</linearGradient>
<linearGradient id="paint2_linear_1125_232" x1="16.6764" y1="205.591" x2="186.382" y2="588.035" gradientUnits="userSpaceOnUse">
<stop stop-color="#1BA2D7"/>
<stop offset="1" stop-color="#8D3DFA"/>
</linearGradient>
</defs>
</svg>
