<svg width="513" height="513" viewBox="0 0 513 513" fill="none" xmlns="http://www.w3.org/2000/svg">
<path d="M344.656 187.438C344.017 186.587 343.215 185.872 342.296 185.336C341.378 184.799 340.362 184.45 339.307 184.311C338.252 184.171 337.18 184.244 336.154 184.524C335.128 184.803 334.167 185.285 333.33 185.941C332.492 186.596 331.793 187.412 331.274 188.341C330.755 189.27 330.427 190.292 330.308 191.35C330.19 192.407 330.283 193.477 330.583 194.498C330.883 195.518 331.384 196.469 332.056 197.294C345.292 214.132 352.453 234.948 352.376 256.366C352.372 277.683 345.274 298.393 332.2 315.229C319.126 332.066 300.82 344.073 280.168 349.356C259.516 354.639 237.693 352.898 218.139 344.408C198.586 335.917 182.415 321.16 172.176 302.464C161.936 283.767 158.211 262.194 161.587 241.146C164.964 220.098 175.25 200.772 190.823 186.216C206.397 171.66 226.372 162.702 247.6 160.753C268.828 158.804 290.1 163.976 308.064 175.454C309.852 176.597 312.022 176.984 314.095 176.528C316.169 176.072 317.976 174.811 319.12 173.022C320.263 171.233 320.649 169.064 320.193 166.99C319.737 164.917 318.476 163.109 316.688 161.966C293.022 146.853 264.546 141.174 236.893 146.053C209.241 150.932 184.428 166.014 167.364 188.313C150.3 210.613 142.228 238.506 144.747 266.472C147.265 294.438 160.19 320.44 180.964 339.333C201.738 358.225 228.846 368.63 256.925 368.491C285.005 368.351 312.008 357.675 332.593 338.577C353.177 319.479 365.842 293.35 368.082 265.359C370.322 237.369 361.973 209.558 344.688 187.43L344.656 187.438Z" fill="url(#paint0_linear_1125_147)"/>
<path d="M378.327 344.367C377.027 343.037 376.226 341.299 376.06 339.446C375.894 337.593 376.373 335.74 377.415 334.199C385.962 320.975 392.265 306.43 396.072 291.151L416.671 301.456C416.583 302.424 416.375 303.367 416.375 304.359C416.353 312.04 419.085 319.475 424.077 325.313C429.068 331.151 435.988 335.005 443.579 336.176C451.17 337.347 458.929 335.756 465.448 331.694C471.966 327.631 476.812 321.365 479.104 314.035C481.397 306.704 480.984 298.794 477.942 291.741C474.899 284.689 469.429 278.961 462.523 275.598C455.617 272.236 447.734 271.461 440.306 273.415C432.878 275.369 426.397 279.922 422.039 286.247L399.159 274.807C400.677 263.015 400.749 251.082 399.375 239.271C396.794 217.653 389.257 196.923 377.352 178.695L395.487 160.559C409.9 172.08 428.176 177.645 446.563 176.11C464.95 174.575 482.052 166.057 494.354 152.307C506.657 138.556 513.227 120.616 512.715 102.172C512.203 83.7286 504.648 66.181 491.601 53.1342C478.554 40.0874 461.006 32.532 442.562 32.0198C424.119 31.5077 406.179 38.0778 392.428 50.3805C378.677 62.6832 370.16 79.7845 368.625 98.1715C367.09 116.559 372.655 134.835 384.175 149.247L367.847 165.575C344.686 136.953 311.417 118.318 274.911 113.519C271.391 113.079 267.879 112.815 264.375 112.623V95.2315C271.917 93.2843 278.489 88.6536 282.86 82.2074C287.232 75.7612 289.102 67.942 288.12 60.2155C287.139 52.489 283.373 45.3856 277.529 40.2369C271.685 35.0882 264.164 32.2476 256.375 32.2476C248.587 32.2476 241.066 35.0882 235.222 40.2369C229.378 45.3856 225.612 52.489 224.631 60.2155C223.649 67.942 225.519 75.7612 229.891 82.2074C234.262 88.6536 240.834 93.2843 248.375 95.2315V112.631C215.745 114.367 184.691 127.218 160.375 149.047L128.583 117.255C140.104 102.843 145.669 84.5666 144.134 66.1795C142.599 47.7925 134.081 30.6912 120.331 18.3885C106.58 6.08579 88.6403 -0.48429 70.1965 0.027839C51.7526 0.539968 34.205 8.09543 21.1582 21.1422C8.11143 34.189 0.555968 51.7366 0.043839 70.1805C-0.46829 88.6243 6.10179 106.564 18.4045 120.315C30.7072 134.066 47.8085 142.583 66.1955 144.118C84.5826 145.653 102.859 140.088 117.271 128.567L149.055 160.367C127.229 184.686 114.377 215.738 112.631 248.367H95.2395C93.2923 240.826 88.6616 234.254 82.2154 229.883C75.7692 225.511 67.95 223.641 60.2235 224.623C52.497 225.604 45.3936 229.37 40.2449 235.214C35.0962 241.058 32.2556 248.579 32.2556 256.367C32.2556 264.156 35.0962 271.677 40.2449 277.521C45.3936 283.365 52.497 287.131 60.2235 288.112C67.95 289.094 75.7692 287.224 82.2154 282.852C88.6616 278.481 93.2923 271.909 95.2395 264.367H112.639C112.823 267.871 113.095 271.384 113.535 274.904C116.753 299.874 126.57 323.534 141.975 343.447L117.255 368.167C102.843 356.647 84.5666 351.082 66.1795 352.617C47.7925 354.152 30.6912 362.669 18.3885 376.42C6.0858 390.171 -0.48429 408.111 0.027839 426.555C0.539968 444.998 8.09543 462.546 21.1422 475.593C34.189 488.64 51.7366 496.195 70.1805 496.707C88.6243 497.219 106.564 490.649 120.315 478.346C134.065 466.044 142.583 448.942 144.118 430.555C145.653 412.168 140.088 393.892 128.567 379.479L152.423 355.624C175.402 379.869 206.119 395.34 239.279 399.367C248.159 400.396 257.113 400.613 266.031 400.016L271.367 421.359C264.892 425.485 260.124 431.809 257.939 439.169C255.754 446.529 256.3 454.431 259.475 461.421C262.65 468.411 268.242 474.02 275.223 477.217C282.203 480.414 290.103 480.983 297.47 478.821C304.836 476.659 311.175 471.91 315.321 465.448C319.466 458.986 321.139 451.244 320.033 443.647C318.927 436.049 315.115 429.106 309.299 424.095C303.483 419.083 296.053 416.339 288.375 416.367C287.791 416.367 287.247 416.511 286.663 416.543L282.023 397.991C300.614 394.659 318.355 387.662 334.215 377.408C335.754 376.364 337.606 375.884 339.458 376.051C341.31 376.217 343.047 377.018 344.375 378.319L471.408 505.335C473.634 507.566 476.279 509.336 479.191 510.543C482.102 511.749 485.224 512.369 488.375 512.367C489.023 512.367 489.671 512.367 490.319 512.287C493.803 512 497.182 510.957 500.221 509.232C503.26 507.506 505.887 505.139 507.919 502.296C511.168 497.504 512.628 491.722 512.043 485.962C511.458 480.202 508.865 474.832 504.719 470.792L378.327 344.367ZM448.375 288.367C451.54 288.367 454.633 289.306 457.265 291.064C459.896 292.822 461.947 295.321 463.158 298.245C464.369 301.168 464.685 304.385 464.068 307.489C463.451 310.593 461.927 313.444 459.689 315.681C457.452 317.919 454.601 319.443 451.497 320.06C448.393 320.677 445.176 320.361 442.253 319.15C439.329 317.939 436.83 315.888 435.072 313.257C433.314 310.625 432.375 307.532 432.375 304.367C432.375 300.124 434.061 296.054 437.062 293.054C440.062 290.053 444.132 288.367 448.375 288.367ZM440.375 48.3675C451.451 48.3675 462.278 51.6518 471.487 57.8052C480.697 63.9585 487.874 72.7045 492.113 82.9372C496.351 93.1699 497.46 104.43 495.299 115.293C493.139 126.155 487.805 136.134 479.973 143.965C472.142 151.797 462.163 157.131 451.301 159.291C440.438 161.452 429.178 160.343 418.945 156.105C408.713 151.866 399.967 144.689 393.813 135.479C387.66 126.27 384.375 115.443 384.375 104.367C384.392 89.5206 390.298 75.2866 400.796 64.7882C411.295 54.2898 425.529 48.3844 440.375 48.3675ZM72.3755 480.367C61.2997 480.367 50.4727 477.083 41.2635 470.93C32.0544 464.776 24.8767 456.03 20.6382 445.798C16.3997 435.565 15.2907 424.305 17.4515 413.442C19.6123 402.58 24.9458 392.601 32.7775 384.77C40.6092 376.938 50.5875 371.604 61.4504 369.444C72.3134 367.283 83.5731 368.392 93.8058 372.63C104.038 376.869 112.784 384.046 118.938 393.256C125.091 402.465 128.375 413.292 128.375 424.367C128.359 439.214 122.453 453.448 111.955 463.947C101.456 474.445 87.2224 480.351 72.3755 480.367ZM304.375 448.367C304.375 451.532 303.437 454.625 301.679 457.257C299.921 459.888 297.422 461.939 294.498 463.15C291.575 464.361 288.358 464.677 285.254 464.06C282.15 463.443 279.299 461.919 277.062 459.681C274.824 457.444 273.3 454.593 272.683 451.489C272.066 448.385 272.382 445.168 273.593 442.245C274.804 439.321 276.855 436.822 279.486 435.064C282.118 433.306 285.211 432.367 288.375 432.367C292.619 432.367 296.689 434.053 299.689 437.054C302.69 440.054 304.375 444.124 304.375 448.367ZM240.375 64.3675C240.375 61.203 241.314 58.1095 243.072 55.4784C244.83 52.8472 247.329 50.7964 250.253 49.5854C253.176 48.3744 256.393 48.0576 259.497 48.6749C262.601 49.2923 265.452 50.8161 267.689 53.0538C269.927 55.2914 271.451 58.1423 272.068 61.246C272.685 64.3497 272.369 67.5668 271.158 70.4904C269.947 73.414 267.896 75.9129 265.265 77.671C262.633 79.4291 259.54 80.3675 256.375 80.3675C252.132 80.3675 248.062 78.6818 245.062 75.6812C242.061 72.6806 240.375 68.6109 240.375 64.3675ZM72.3755 128.367C61.2997 128.367 50.4727 125.083 41.2635 118.93C32.0544 112.776 24.8767 104.03 20.6382 93.7978C16.3997 83.5651 15.2907 72.3054 17.4515 61.4424C19.6123 50.5795 24.9458 40.6012 32.7775 32.7695C40.6092 24.9378 50.5875 19.6043 61.4504 17.4435C72.3134 15.2827 83.5731 16.3917 93.8058 20.6302C104.038 24.8687 112.784 32.0464 118.938 41.2555C125.091 50.4647 128.375 61.2917 128.375 72.3675C128.359 87.2144 122.453 101.448 111.955 111.947C101.456 122.445 87.2224 128.351 72.3755 128.367ZM64.3755 272.367C61.211 272.367 58.1175 271.429 55.4864 269.671C52.8552 267.913 50.8044 265.414 49.5934 262.49C48.3824 259.567 48.0656 256.35 48.6829 253.246C49.3003 250.142 50.8241 247.291 53.0618 245.054C55.2994 242.816 58.1503 241.292 61.254 240.675C64.3577 240.058 67.5748 240.374 70.4984 241.585C73.422 242.796 75.9209 244.847 77.679 247.478C79.4371 250.11 80.3755 253.203 80.3755 256.367C80.3755 260.611 78.6898 264.681 75.6892 267.681C72.6886 270.682 68.6189 272.367 64.3755 272.367ZM494.943 492.952C494.269 493.917 493.389 494.722 492.367 495.309C491.345 495.895 490.206 496.248 489.031 496.344C487.873 496.449 486.706 496.295 485.614 495.894C484.523 495.493 483.534 494.854 482.719 494.023L355.703 367.008C353.496 364.784 350.869 363.02 347.976 361.818C345.083 360.615 341.981 359.997 338.847 359.999C334.12 360.021 329.499 361.41 325.543 363.999C300.574 380.184 270.712 387.079 241.175 383.479C217.328 380.624 194.765 371.116 176.065 356.042C157.366 340.969 143.285 320.939 135.432 298.241C127.578 275.543 126.269 251.093 131.655 227.687C137.04 204.28 148.903 182.861 165.886 165.878C182.869 148.895 204.288 137.032 227.695 131.647C251.101 126.261 275.551 127.57 298.249 135.424C320.947 143.277 340.977 157.358 356.05 176.057C371.124 194.757 380.632 217.32 383.487 241.167C387.081 270.708 380.175 300.572 363.975 325.535C360.926 330.142 359.563 335.661 360.117 341.158C360.671 346.654 363.108 351.79 367.016 355.695L493.415 482.095C494.881 483.452 495.834 485.273 496.113 487.251C496.391 489.229 495.978 491.243 494.943 492.952Z" fill="url(#paint1_linear_1125_147)"/>
<path d="M192.375 288.368V302.656C192.4 307.219 193.709 311.683 196.153 315.537C198.596 319.391 202.075 322.479 206.191 324.448C221.761 332.275 238.945 336.352 256.371 336.352C273.798 336.352 290.982 332.275 306.551 324.448C310.67 322.481 314.151 319.394 316.596 315.54C319.041 311.685 320.351 307.22 320.375 302.656V288.368C320.353 275.66 316.551 263.246 309.454 252.705C302.357 242.163 292.285 233.97 280.52 229.168C285.563 223.411 288.354 216.023 288.375 208.368C288.375 199.881 285.004 191.742 279.003 185.741C273.002 179.74 264.862 176.368 256.375 176.368C247.889 176.368 239.749 179.74 233.748 185.741C227.747 191.742 224.375 199.881 224.375 208.368C224.397 216.023 227.188 223.411 232.231 229.168C220.466 233.97 210.394 242.163 203.297 252.705C196.2 263.246 192.398 275.66 192.375 288.368ZM240.375 208.368C240.375 205.204 241.314 202.11 243.072 199.479C244.83 196.848 247.329 194.797 250.253 193.586C253.176 192.375 256.393 192.058 259.497 192.676C262.601 193.293 265.452 194.817 267.689 197.055C269.927 199.292 271.451 202.143 272.068 205.247C272.685 208.351 272.369 211.568 271.158 214.491C269.947 217.415 267.896 219.914 265.265 221.672C262.633 223.43 259.54 224.368 256.375 224.368C252.132 224.368 248.062 222.683 245.062 219.682C242.061 216.681 240.375 212.612 240.375 208.368ZM256.375 240.368C269.102 240.381 281.304 245.442 290.303 254.441C299.302 263.44 304.363 275.642 304.375 288.368V302.656C304.36 304.199 303.91 305.705 303.078 307.004C302.246 308.303 301.066 309.341 299.671 310C286.267 316.85 271.429 320.422 256.375 320.422C241.322 320.422 226.484 316.85 213.079 310C211.685 309.341 210.504 308.303 209.673 307.004C208.841 305.705 208.391 304.199 208.375 302.656V288.368C208.388 275.642 213.449 263.44 222.448 254.441C231.447 245.442 243.649 240.381 256.375 240.368ZM413.464 147.32C430.776 154.038 449.975 154.038 467.287 147.32C471.129 145.855 474.437 143.259 476.773 139.876C479.11 136.492 480.366 132.48 480.375 128.368C480.352 121.349 478.475 114.46 474.935 108.399C471.395 102.337 466.318 97.3179 460.215 93.8484C462.671 90.2411 464.096 86.0327 464.339 81.6758C464.581 77.3189 463.63 72.9784 461.59 69.1212C459.55 65.2641 456.496 62.0362 452.758 59.7848C449.02 57.5334 444.739 56.3438 440.375 56.3438C436.012 56.3438 431.731 57.5334 427.993 59.7848C424.255 62.0362 421.201 65.2641 419.161 69.1212C417.121 72.9784 416.17 77.3189 416.412 81.6758C416.655 86.0327 418.08 90.2411 420.535 93.8484C414.433 97.3179 409.356 102.337 405.816 108.399C402.276 114.46 400.399 121.349 400.375 128.368C400.385 132.48 401.641 136.492 403.978 139.876C406.314 143.259 409.622 145.855 413.464 147.32ZM432.375 80.3684C432.375 78.7861 432.845 77.2394 433.724 75.9238C434.603 74.6082 435.852 73.5828 437.314 72.9773C438.776 72.3718 440.384 72.2134 441.936 72.5221C443.488 72.8308 444.914 73.5927 446.032 74.7115C447.151 75.8303 447.913 77.2558 448.222 78.8076C448.53 80.3595 448.372 81.968 447.767 83.4298C447.161 84.8916 446.136 86.1411 444.82 87.0201C443.504 87.8992 441.958 88.3684 440.375 88.3684C438.254 88.3684 436.219 87.5255 434.719 86.0252C433.218 84.5249 432.375 82.4901 432.375 80.3684ZM440.375 104.368C446.741 104.368 452.845 106.897 457.346 111.398C461.847 115.899 464.375 122.003 464.375 128.368C464.382 129.232 464.125 130.078 463.639 130.792C463.153 131.507 462.461 132.057 461.655 132.368C447.984 137.76 432.775 137.76 419.103 132.368C418.296 132.058 417.603 131.509 417.115 130.794C416.628 130.079 416.37 129.233 416.375 128.368C416.375 122.003 418.904 115.899 423.405 111.398C427.906 106.897 434.01 104.368 440.375 104.368ZM92.2155 413.848C94.6709 410.241 96.0963 406.033 96.3385 401.676C96.5807 397.319 95.6304 392.978 93.59 389.121C91.5495 385.264 88.4961 382.036 84.7581 379.785C81.0202 377.533 76.7391 376.344 72.3755 376.344C68.0119 376.344 63.7308 377.533 59.9928 379.785C56.2549 382.036 53.2014 385.264 51.161 389.121C49.1205 392.978 48.1703 397.319 48.4125 401.676C48.6547 406.033 50.0801 410.241 52.5355 413.848C46.4334 417.318 41.3557 422.337 37.8157 428.399C34.2757 434.46 32.3991 441.349 32.3755 448.368C32.3853 452.48 33.6413 456.492 35.9779 459.876C38.3144 463.259 41.6217 465.855 45.4635 467.32C62.7761 474.038 81.9749 474.038 99.2875 467.32C103.129 465.855 106.437 463.259 108.773 459.876C111.11 456.492 112.366 452.48 112.375 448.368C112.352 441.349 110.475 434.46 106.935 428.399C103.395 422.337 98.3176 417.318 92.2155 413.848ZM64.3755 400.368C64.3755 398.786 64.8447 397.239 65.7237 395.924C66.6028 394.608 67.8522 393.583 69.314 392.977C70.7758 392.372 72.3844 392.213 73.9362 392.522C75.4881 392.831 76.9135 393.593 78.0323 394.711C79.1512 395.83 79.9131 397.256 80.2218 398.808C80.5305 400.359 80.372 401.968 79.7665 403.43C79.161 404.892 78.1356 406.141 76.8201 407.02C75.5045 407.899 73.9577 408.368 72.3755 408.368C70.2538 408.368 68.2189 407.525 66.7186 406.025C65.2183 404.525 64.3755 402.49 64.3755 400.368ZM93.6555 452.368C79.9839 457.76 64.7751 457.76 51.1035 452.368C50.2962 452.058 49.6026 451.509 49.1153 450.794C48.6279 450.079 48.3699 449.233 48.3755 448.368C48.3755 442.003 50.9041 435.899 55.4049 431.398C59.9058 426.897 66.0103 424.368 72.3755 424.368C78.7407 424.368 84.8452 426.897 89.3461 431.398C93.8469 435.899 96.3755 442.003 96.3755 448.368C96.3817 449.232 96.1249 450.078 95.639 450.792C95.1531 451.507 94.4613 452.057 93.6555 452.368ZM92.2155 61.8484C94.6709 58.2411 96.0963 54.0327 96.3385 49.6758C96.5807 45.3189 95.6304 40.9784 93.59 37.1212C91.5495 33.2641 88.4961 30.0362 84.7581 27.7848C81.0202 25.5334 76.7391 24.3437 72.3755 24.3438C68.0119 24.3437 63.7308 25.5334 59.9928 27.7848C56.2549 30.0362 53.2014 33.2641 51.161 37.1212C49.1205 40.9784 48.1703 45.3189 48.4125 49.6758C48.6547 54.0327 50.0801 58.2411 52.5355 61.8484C46.4334 65.3179 41.3557 70.3372 37.8157 76.3987C34.2757 82.4602 32.3991 89.3489 32.3755 96.3684C32.3853 100.48 33.6413 104.492 35.9779 107.876C38.3144 111.259 41.6217 113.855 45.4635 115.32C62.7761 122.038 81.9749 122.038 99.2875 115.32C103.129 113.855 106.437 111.259 108.773 107.876C111.11 104.492 112.366 100.48 112.375 96.3684C112.352 89.3489 110.475 82.4602 106.935 76.3987C103.395 70.3372 98.3176 65.3179 92.2155 61.8484ZM64.3755 48.3684C64.3755 46.7861 64.8447 45.2394 65.7237 43.9238C66.6028 42.6082 67.8522 41.5828 69.314 40.9773C70.7758 40.3718 72.3844 40.2134 73.9362 40.5221C75.4881 40.8308 76.9135 41.5927 78.0323 42.7115C79.1512 43.8303 79.9131 45.2558 80.2218 46.8076C80.5305 48.3595 80.372 49.968 79.7665 51.4298C79.161 52.8916 78.1356 54.1411 76.8201 55.0201C75.5045 55.8992 73.9577 56.3684 72.3755 56.3684C70.2538 56.3684 68.2189 55.5255 66.7186 54.0252C65.2183 52.5249 64.3755 50.4901 64.3755 48.3684ZM93.6555 100.368C79.9839 105.76 64.7751 105.76 51.1035 100.368C50.2962 100.058 49.6026 99.5087 49.1153 98.7941C48.6279 98.0795 48.3699 97.2333 48.3755 96.3684C48.3755 90.0032 50.9041 83.8987 55.4049 79.3978C59.9058 74.8969 66.0103 72.3684 72.3755 72.3684C78.7407 72.3684 84.8452 74.8969 89.3461 79.3978C93.8469 83.8987 96.3755 90.0032 96.3755 96.3684C96.3817 97.2324 96.1249 98.0778 95.639 98.7923C95.1531 99.5068 94.4613 100.057 93.6555 100.368Z" fill="url(#paint2_linear_1125_147)"/>
<defs>
<linearGradient id="paint0_linear_1125_147" x1="152.292" y1="158.795" x2="365.793" y2="403.82" gradientUnits="userSpaceOnUse">
<stop stop-color="#1BA2D7"/>
<stop offset="1" stop-color="#8D3DFA"/>
</linearGradient>
<linearGradient id="paint1_linear_1125_147" x1="18.2946" y1="33.0238" x2="506.282" y2="593.477" gradientUnits="userSpaceOnUse">
<stop stop-color="#1BA2D7"/>
<stop offset="1" stop-color="#8D3DFA"/>
</linearGradient>
<linearGradient id="paint2_linear_1125_147" x1="48.36" y1="53.2198" x2="475.102" y2="542.957" gradientUnits="userSpaceOnUse">
<stop stop-color="#1BA2D7"/>
<stop offset="1" stop-color="#8D3DFA"/>
</linearGradient>
</defs>
</svg>
