<svg width="483" height="496" viewBox="0 0 483 496" fill="none" xmlns="http://www.w3.org/2000/svg">
<path d="M445.782 239.967C446.259 245.526 446.518 251.164 446.581 256.767L449.931 252.548C451.25 250.886 453.176 249.817 455.284 249.575C457.392 249.333 459.509 249.938 461.171 251.257C462.833 252.576 463.902 254.502 464.144 256.61C464.386 258.718 463.781 260.835 462.462 262.497L444.268 285.412C443.519 286.355 442.566 287.117 441.482 287.641C440.397 288.165 439.208 288.437 438.003 288.437H437.95C436.736 288.429 435.54 288.144 434.453 287.606C433.365 287.067 432.414 286.288 431.672 285.328L413.785 262.173C412.488 260.494 411.911 258.368 412.181 256.264C412.451 254.159 413.546 252.248 415.225 250.951C416.904 249.654 419.03 249.077 421.134 249.347C423.239 249.617 425.15 250.712 426.447 252.391L430.592 257.757C430.556 252.275 430.305 246.796 429.841 241.334C429.677 239.23 430.352 237.146 431.718 235.536C433.084 233.927 435.03 232.923 437.133 232.742C439.236 232.562 441.326 233.22 442.946 234.573C444.566 235.927 445.585 237.865 445.782 239.967ZM99.945 90.827C101.53 90.827 103.131 90.357 104.527 89.379C108.726 86.4442 113.033 83.6653 117.437 81.048L115.074 86.504C114.231 88.451 114.195 90.6532 114.976 92.6263C115.756 94.5993 117.288 96.1816 119.235 97.025C121.182 97.8684 123.384 97.9038 125.357 97.1235C127.33 96.3431 128.913 94.811 129.756 92.864L141.385 66.015C141.867 64.9013 142.09 63.6923 142.036 62.4798C141.982 61.2672 141.653 60.0828 141.074 59.0163C140.495 57.9497 139.68 57.029 138.692 56.3238C137.704 55.6186 136.569 55.1475 135.372 54.946L106.519 50.09C102.17 49.36 98.036 52.294 97.302 56.652C96.9501 58.7444 97.4437 60.8909 98.6743 62.6194C99.9049 64.3479 101.772 65.5168 103.864 65.869L109.944 66.892C104.959 69.8293 100.091 72.9589 95.349 76.274C93.9549 77.2503 92.9085 78.6457 92.3618 80.2574C91.8152 81.8692 91.7968 83.6133 92.3093 85.2362C92.8218 86.8591 93.8386 88.2763 95.2118 89.2818C96.585 90.2872 98.2431 90.8285 99.945 90.827ZM393.045 140.254C393.783 141.306 394.764 142.164 395.905 142.757C397.045 143.349 398.312 143.657 399.597 143.655C401.061 143.654 402.497 143.251 403.748 142.49C404.999 141.729 406.017 140.64 406.691 139.34C407.366 138.04 407.671 136.581 407.573 135.12C407.475 133.659 406.978 132.253 406.136 131.055C398.72 120.508 390.41 110.617 381.3 101.493C380.558 100.75 379.676 100.16 378.706 99.7569C377.736 99.3541 376.696 99.1465 375.645 99.1459C374.594 99.1452 373.554 99.3516 372.583 99.7531C371.612 100.155 370.73 100.743 369.987 101.486C368.486 102.985 367.642 105.019 367.641 107.141C367.639 109.263 368.481 111.298 369.98 112.799C378.44 121.273 386.157 130.459 393.045 140.254ZM13.257 211.122C13.934 211.304 14.632 211.397 15.333 211.397C17.0932 211.395 18.8038 210.813 20.1997 209.741C21.5957 208.669 22.5993 207.166 23.055 205.466C26.1592 193.9 30.2643 182.627 35.324 171.773C35.7682 170.821 36.0205 169.791 36.0665 168.741C36.1124 167.692 35.9512 166.643 35.5919 165.656C35.2326 164.669 34.6823 163.762 33.9725 162.987C33.2627 162.213 32.4072 161.586 31.455 161.142C30.503 160.698 29.4727 160.445 28.4231 160.4C27.3736 160.354 26.3252 160.515 25.338 160.874C24.3507 161.233 23.444 161.784 22.6694 162.493C21.8949 163.203 21.2678 164.059 20.824 165.011C15.3707 176.709 10.9463 188.859 7.601 201.324C7.32893 202.339 7.25942 203.397 7.39643 204.439C7.53344 205.48 7.87429 206.485 8.39951 207.395C8.92473 208.304 9.62404 209.102 10.4575 209.741C11.2909 210.381 12.2422 210.85 13.257 211.122ZM9.481 285.861C11.5949 285.68 13.5502 284.666 14.9167 283.043C16.2833 281.42 16.9492 279.321 16.768 277.207C16.2577 271.242 16.0018 265.258 16.001 259.271C16.001 253.317 16.259 247.282 16.769 241.334C16.919 239.237 16.2375 237.165 14.8719 235.566C13.5063 233.968 11.5663 232.971 9.47146 232.791C7.37663 232.612 5.29534 233.264 3.67766 234.607C2.05999 235.95 1.03595 237.876 0.827001 239.968C0.277789 246.388 0.00187193 252.828 0 259.271C0 265.692 0.278 272.186 0.826 278.574C0.915787 279.621 1.21088 280.64 1.69444 281.572C2.17799 282.505 2.84054 283.333 3.64423 284.01C4.44793 284.687 5.37705 285.199 6.37853 285.516C7.38 285.834 8.43423 285.951 9.481 285.861ZM311.05 71.42C321.894 76.4987 332.278 82.5058 342.087 89.374C343.429 90.3175 345.03 90.8232 346.67 90.822C348.372 90.8237 350.03 90.2826 351.404 89.2772C352.777 88.2718 353.794 86.8547 354.307 85.2317C354.819 83.6087 354.801 81.8645 354.254 80.2527C353.708 78.6408 352.661 77.2453 351.267 76.269C340.7 68.8706 329.514 62.3998 317.832 56.929C316.881 56.4834 315.851 56.2297 314.801 56.1824C313.751 56.1351 312.703 56.295 311.715 56.6531C310.727 57.0112 309.82 57.5605 309.044 58.2694C308.269 58.9784 307.641 59.8332 307.196 60.785C306.75 61.7363 306.497 62.7661 306.449 63.8155C306.402 64.8649 306.561 65.9134 306.919 66.9011C307.277 67.8887 307.826 68.7961 308.535 69.5715C309.244 70.3469 310.098 70.975 311.05 71.42ZM423.55 205.469C424.1 207.518 425.442 209.264 427.28 210.325C429.117 211.385 431.301 211.672 433.35 211.123C435.399 210.573 437.146 209.232 438.206 207.394C439.267 205.557 439.554 203.373 439.004 201.324C435.656 188.86 431.231 176.712 425.778 165.015C425.341 164.052 424.717 163.186 423.943 162.466C423.169 161.746 422.259 161.186 421.268 160.82C420.276 160.453 419.221 160.287 418.165 160.331C417.109 160.374 416.071 160.627 415.113 161.073C414.155 161.52 413.295 162.153 412.583 162.934C411.87 163.715 411.32 164.63 410.963 165.625C410.607 166.621 410.451 167.677 410.505 168.733C410.559 169.789 410.822 170.823 411.278 171.777C416.338 182.631 420.444 193.904 423.55 205.469ZM42.42 142.201C43.764 143.149 45.3685 143.657 47.013 143.656C48.2981 143.658 49.5647 143.35 50.7053 142.758C51.8459 142.165 52.8269 141.307 53.565 140.255C60.4524 130.46 68.1687 121.274 76.629 112.8C78.1285 111.299 78.9703 109.264 78.9692 107.142C78.9681 105.02 78.1241 102.986 76.623 101.486C75.1219 99.9865 73.0865 99.1447 70.9648 99.1458C68.843 99.1469 66.8085 99.9909 65.309 101.492C56.1992 110.617 47.8907 120.507 40.475 131.055C39.8708 131.915 39.4418 132.885 39.2126 133.91C38.9833 134.935 38.9583 135.996 39.1389 137.031C39.3195 138.066 39.7022 139.055 40.2652 139.942C40.8282 140.829 41.5604 141.597 42.42 142.201ZM342.082 429.163C332.273 436.03 321.89 442.038 311.047 447.118C310.095 447.563 309.241 448.191 308.532 448.967C307.823 449.743 307.274 450.65 306.916 451.638C306.558 452.626 306.399 453.674 306.446 454.724C306.494 455.774 306.747 456.804 307.193 457.755C307.838 459.134 308.863 460.3 310.147 461.116C311.431 461.933 312.922 462.366 314.444 462.365C315.615 462.365 316.771 462.106 317.83 461.608C329.511 456.137 340.696 449.666 351.262 442.268C353 441.051 354.183 439.193 354.551 437.103C354.919 435.014 354.442 432.863 353.224 431.125C352.007 429.388 350.149 428.205 348.06 427.837C345.97 427.469 343.82 427.946 342.082 429.163ZM276.837 459.577C265.267 462.657 253.451 464.728 241.523 465.767C240.476 465.858 239.458 466.154 238.526 466.639C237.594 467.124 236.766 467.787 236.09 468.592C235.415 469.396 234.904 470.326 234.588 471.328C234.271 472.33 234.155 473.384 234.247 474.431C234.338 475.477 234.634 476.496 235.119 477.428C235.603 478.36 236.267 479.187 237.071 479.863C237.876 480.539 238.805 481.049 239.807 481.366C240.809 481.682 241.863 481.798 242.91 481.707C255.762 480.588 268.493 478.356 280.959 475.036C281.974 474.765 282.926 474.297 283.76 473.659C284.595 473.02 285.295 472.224 285.821 471.315C286.348 470.405 286.69 469.401 286.828 468.36C286.967 467.319 286.899 466.26 286.628 465.245C286.357 464.23 285.89 463.278 285.251 462.444C284.613 461.609 283.816 460.909 282.907 460.383C281.998 459.856 280.993 459.514 279.952 459.376C278.911 459.238 277.852 459.306 276.837 459.577ZM205.086 465.768C199.12 465.248 193.179 464.469 187.28 463.434L193.719 460.944C195.671 460.159 197.235 458.638 198.073 456.708C198.911 454.779 198.956 452.597 198.197 450.635C197.439 448.673 195.938 447.089 194.02 446.225C192.102 445.361 189.921 445.288 187.949 446.02L160.658 456.571C159.526 457.009 158.509 457.698 157.682 458.588C156.856 459.477 156.243 460.542 155.89 461.703C155.537 462.865 155.452 464.091 155.643 465.29C155.833 466.488 156.294 467.628 156.99 468.622L173.774 492.589C174.512 493.644 175.493 494.506 176.635 495.1C177.778 495.694 179.047 496.003 180.334 496.001C181.797 496 183.232 495.597 184.482 494.838C185.733 494.078 186.751 492.99 187.426 491.691C188.101 490.393 188.407 488.935 188.31 487.475C188.214 486.015 187.719 484.609 186.88 483.411L183.838 479.067C190.415 480.244 197.042 481.125 203.698 481.707C204.745 481.798 205.799 481.682 206.801 481.366C207.803 481.049 208.732 480.538 209.537 479.863C210.341 479.187 211.005 478.359 211.489 477.427C211.974 476.495 212.27 475.477 212.361 474.43C212.452 473.384 212.337 472.329 212.02 471.328C211.704 470.326 211.194 469.396 210.518 468.592C209.842 467.787 209.015 467.124 208.083 466.64C207.151 466.155 206.133 465.859 205.086 465.768ZM35.331 346.765C30.2714 335.911 26.1653 324.638 23.059 313.073C21.914 308.805 17.526 306.271 13.26 307.42C12.2453 307.692 11.2941 308.162 10.4607 308.801C9.62743 309.441 8.92829 310.239 8.40327 311.149C7.87824 312.059 7.5376 313.064 7.40081 314.105C7.26401 315.147 7.33374 316.205 7.606 317.22C10.9533 329.683 15.378 341.832 20.83 353.528C21.4737 354.909 22.4986 356.078 23.784 356.897C25.0695 357.715 26.562 358.15 28.086 358.149C29.4311 358.148 30.7543 357.808 31.9333 357.161C33.1122 356.513 34.1089 355.579 34.8311 354.444C35.5533 353.31 35.9777 352.011 36.0651 350.669C36.1524 349.326 35.9 347.984 35.331 346.765ZM481.617 402.78C480.915 403.996 479.905 405.006 478.689 405.708C477.473 406.411 476.093 406.78 474.689 406.78H362.381C360.976 406.781 359.597 406.411 358.38 405.709C357.164 405.007 356.153 403.997 355.451 402.781C354.749 401.565 354.379 400.185 354.38 398.78C354.38 397.376 354.75 395.996 355.453 394.78L411.607 297.518C412.309 296.301 413.319 295.291 414.535 294.589C415.751 293.886 417.131 293.516 418.535 293.516C419.939 293.516 421.319 293.886 422.535 294.589C423.752 295.291 424.761 296.301 425.463 297.518L481.617 394.78C482.319 395.996 482.689 397.376 482.689 398.78C482.689 400.184 482.319 401.564 481.617 402.78ZM460.832 390.78L418.534 317.518L376.237 390.78H460.832ZM142.425 424.947C142.425 456.174 117.021 481.578 85.794 481.578C54.567 481.578 29.163 456.174 29.163 424.947C29.163 393.72 54.567 368.316 85.794 368.316C117.021 368.316 142.425 393.721 142.425 424.947ZM126.425 424.947C126.425 402.543 108.198 384.316 85.794 384.316C63.39 384.316 45.163 402.543 45.163 424.947C45.163 447.351 63.39 465.578 85.794 465.578C108.198 465.578 126.425 447.352 126.425 424.947ZM166.673 79.936V8C166.673 5.87827 167.516 3.84344 169.016 2.34315C170.516 0.842854 172.551 0 174.673 0H271.935C274.057 0 276.092 0.842854 277.592 2.34315C279.092 3.84344 279.935 5.87827 279.935 8V79.936C279.935 82.0577 279.092 84.0926 277.592 85.5929C276.092 87.0931 274.057 87.936 271.935 87.936H174.673C172.551 87.936 170.516 87.0931 169.016 85.5929C167.516 84.0926 166.673 82.0577 166.673 79.936ZM182.673 71.936H263.935V16H182.673V71.936ZM327.338 339.851L303.885 363.306C302.742 364.45 301.279 365.22 299.69 365.515C298.1 365.81 296.458 365.617 294.981 364.96L278.852 357.796C270.919 362.281 262.47 365.783 253.691 368.227L247.355 384.688C246.774 386.197 245.75 387.494 244.417 388.409C243.084 389.324 241.506 389.814 239.889 389.814H206.721C205.104 389.814 203.526 389.324 202.193 388.409C200.86 387.494 199.836 386.197 199.255 384.688L192.917 368.222C184.141 365.779 175.695 362.277 167.765 357.793L151.628 364.96C150.151 365.616 148.509 365.81 146.919 365.514C145.33 365.219 143.867 364.449 142.724 363.306L119.27 339.853C118.127 338.71 117.357 337.247 117.062 335.658C116.767 334.068 116.96 332.426 117.616 330.949L124.78 314.819C120.295 306.886 116.792 298.437 114.349 289.658L97.889 283.322C96.3801 282.741 95.0826 281.717 94.1675 280.384C93.2524 279.052 92.7627 277.473 92.763 275.856V242.688C92.763 241.071 93.2528 239.493 94.1678 238.16C95.0829 236.827 96.3803 235.803 97.889 235.222L114.352 228.885C116.795 220.108 120.297 211.66 124.781 203.729L117.615 187.595C116.959 186.118 116.766 184.476 117.061 182.886C117.356 181.297 118.126 179.834 119.269 178.691L142.723 155.237C143.866 154.094 145.329 153.323 146.918 153.028C148.508 152.733 150.15 152.926 151.627 153.583L167.763 160.75C175.693 156.267 184.14 152.765 192.916 150.322L199.254 133.856C199.835 132.347 200.859 131.05 202.192 130.135C203.525 129.22 205.103 128.73 206.72 128.73H239.887C241.504 128.73 243.082 129.22 244.415 130.135C245.748 131.05 246.772 132.347 247.353 133.856L253.691 150.321C262.467 152.764 270.913 156.266 278.843 160.749L294.98 153.582C296.458 152.926 298.099 152.733 299.689 153.029C301.278 153.324 302.741 154.094 303.884 155.237L327.338 178.691C328.481 179.834 329.251 181.297 329.546 182.886C329.842 184.476 329.648 186.118 328.992 187.595L321.828 203.724C326.313 211.657 329.815 220.106 332.259 228.885L348.719 235.221C350.228 235.802 351.525 236.826 352.441 238.159C353.356 239.491 353.845 241.07 353.845 242.687V275.855C353.845 277.472 353.355 279.05 352.44 280.383C351.525 281.716 350.228 282.74 348.719 283.321L332.253 289.66C329.81 298.436 326.308 306.882 321.825 314.812L328.992 330.948C329.648 332.425 329.842 334.067 329.547 335.656C329.251 337.246 328.481 338.708 327.338 339.851ZM322.665 276.206L337.846 270.362V248.179L322.67 242.338C321.457 241.871 320.377 241.116 319.521 240.138C318.666 239.16 318.062 237.988 317.761 236.724C315.384 226.73 311.425 217.18 306.034 208.435C305.352 207.329 304.95 206.073 304.863 204.776C304.776 203.479 305.006 202.181 305.534 200.993L312.139 186.12L296.453 170.434L281.573 177.042C280.385 177.57 279.087 177.8 277.79 177.713C276.494 177.626 275.238 177.225 274.131 176.543C265.389 171.154 255.841 167.195 245.85 164.818C244.586 164.517 243.414 163.913 242.436 163.058C241.458 162.202 240.703 161.122 240.236 159.909L234.393 144.728H212.211L206.367 159.909C205.9 161.122 205.145 162.202 204.167 163.057C203.189 163.913 202.017 164.517 200.753 164.818C190.761 167.195 181.214 171.154 172.471 176.543C171.365 177.225 170.109 177.626 168.812 177.713C167.516 177.8 166.217 177.57 165.03 177.042L150.151 170.434L134.465 186.12L141.072 200.998C141.6 202.186 141.83 203.484 141.743 204.781C141.656 206.078 141.254 207.334 140.572 208.44C135.182 217.183 131.223 226.731 128.846 236.723C128.545 237.987 127.941 239.159 127.086 240.137C126.23 241.115 125.15 241.87 123.937 242.337L108.758 248.18V270.362L123.934 276.204C125.147 276.671 126.227 277.426 127.083 278.404C127.938 279.382 128.542 280.554 128.843 281.818C131.22 291.812 135.179 301.362 140.57 310.106C141.252 311.212 141.654 312.468 141.741 313.765C141.828 315.062 141.598 316.36 141.07 317.548L134.464 332.422L150.15 348.107L165.03 341.499C166.217 340.971 167.516 340.741 168.812 340.828C170.109 340.915 171.365 341.316 172.471 341.998C181.213 347.388 190.761 351.346 200.752 353.723C202.016 354.024 203.188 354.628 204.166 355.483C205.144 356.339 205.899 357.419 206.366 358.632L212.21 373.814H234.392L240.234 358.637C240.701 357.424 241.456 356.344 242.434 355.489C243.412 354.633 244.584 354.029 245.848 353.728C255.842 351.352 265.392 347.393 274.136 342.001C275.243 341.32 276.499 340.918 277.796 340.831C279.093 340.744 280.391 340.974 281.579 341.501L296.452 348.107L312.138 332.421L305.529 317.541C305.001 316.353 304.771 315.055 304.858 313.759C304.945 312.462 305.347 311.206 306.029 310.1C311.418 301.358 315.377 291.81 317.754 281.819C318.056 280.555 318.661 279.384 319.516 278.406C320.372 277.428 321.453 276.673 322.665 276.206ZM289.149 259.271C289.149 295.578 259.611 325.116 223.304 325.116C186.997 325.116 157.459 295.578 157.459 259.271C157.459 222.964 186.997 193.426 223.304 193.426C259.611 193.426 289.149 222.964 289.149 259.271ZM273.149 259.271C273.149 231.786 250.789 209.426 223.304 209.426C195.819 209.426 173.459 231.786 173.459 259.271C173.459 286.755 195.819 309.116 223.304 309.116C250.789 309.116 273.149 286.756 273.149 259.271Z" fill="url(#paint0_linear_1125_153)"/>
<defs>
<linearGradient id="paint0_linear_1125_153" x1="17.2222" y1="31.9689" x2="491.26" y2="561.4" gradientUnits="userSpaceOnUse">
<stop stop-color="#1BA2D7"/>
<stop offset="1" stop-color="#8D3DFA"/>
</linearGradient>
</defs>
</svg>
