<svg width="496" height="497" viewBox="0 0 496 497" fill="none" xmlns="http://www.w3.org/2000/svg">
<path d="M136 344.04H152V360.04H136V344.04ZM338.32 2.36C315.68 25.08 287.04 39.96 255.44 45.24L246.64 46.68C242.48 47.4 239.52 51.24 240 55.48C246.4 111.24 275.12 159.32 323.12 194.52L339.2 206.36C340.603 207.373 342.296 207.905 344.027 207.876C345.757 207.847 347.432 207.259 348.8 206.2L368.88 190.68C414.16 155.64 441.44 108.92 447.84 55.56V55.4C448.077 53.3608 447.519 51.3088 446.283 49.6701C445.046 48.0313 443.226 46.9319 441.2 46.6L432.4 45.16C400.8 39.88 372.16 25 349.52 2.28C346.48 -0.76 341.2 -0.76 338.16 2.28L338.32 2.36ZM430.96 61.24C423.52 107.16 398.88 147.48 359.2 178.12L343.84 189.96L332.56 181.72C290.48 150.76 264.4 109.24 256.88 61.24L258 61.08C290.32 55.64 319.84 41.24 343.92 19.16C367.92 41.24 397.52 55.64 429.84 61.08L430.96 61.24Z" fill="url(#paint0_linear_1125_180)"/>
<path d="M319.68 101.48L308.4 112.76L328.16 132.52C329.76 134.12 331.76 134.84 333.84 134.84C335.92 134.84 337.92 134.04 339.52 132.52L387.6 84.4402L376.32 73.1602L333.92 115.56L319.76 101.4L319.68 101.48ZM480 384.04H456V272.04C456 267.64 452.4 264.04 448 264.04H360C355.6 264.04 352 267.64 352 272.04V304.04H296C291.6 304.04 288 307.64 288 312.04V384.04H248V320.04C248 285.4 223.36 256.36 190.72 249.56C199.284 238.927 203.969 225.693 204 212.04C204 178.92 177.12 152.04 144 152.04C110.88 152.04 84 178.92 84 212.04C84 226.2 88.96 239.32 97.28 249.56C64.64 256.36 40 285.4 40 320.04V384.04H16C7.2 384.04 0 391.24 0 400.04V432.04C0 440.84 7.2 448.04 16 448.04H40V496.04H56V448.04H440V496.04H456V448.04H480C488.8 448.04 496 440.84 496 432.04V400.04C496 391.24 488.8 384.04 480 384.04ZM368 280.04H440V304.04H408V320.04H440V344.04H408V360.04H440V384.04H392V312.04C392 307.64 388.4 304.04 384 304.04H368V280.04ZM304 320.04H376V344.04H304V320.04ZM304 360.04H376V384.04H304V360.04ZM144 168.04C168.24 168.04 188 187.8 188 212.04C188 236.28 168.24 256.04 144 256.04C119.76 256.04 100 236.28 100 212.04C100 187.8 119.76 168.04 144 168.04ZM56 320.04C56 289.16 81.12 264.04 112 264.04H114.16C122.96 269.08 133.12 272.04 144 272.04C154.88 272.04 165.04 269.08 173.84 264.04H176C206.88 264.04 232 289.16 232 320.04V384.04H193.76L205.92 323.16C206.88 318.44 205.68 313.56 202.64 309.88C199.6 306.12 195.04 304.04 190.24 304.04H97.76C92.96 304.04 88.4 306.2 85.36 309.88C82.32 313.56 81.12 318.44 82.08 323.16L94.24 384.04H56V320.04ZM190.24 320.04L177.44 384.04H110.56L97.76 320.04H190.24ZM16 432.04V400.04H480V432.04H16Z" fill="url(#paint1_linear_1125_180)"/>
<defs>
<linearGradient id="paint0_linear_1125_180" x1="147.128" y1="23.2058" x2="493.323" y2="367.387" gradientUnits="userSpaceOnUse">
<stop stop-color="#1BA2D7"/>
<stop offset="1" stop-color="#8D3DFA"/>
</linearGradient>
<linearGradient id="paint1_linear_1125_180" x1="17.6972" y1="100.416" x2="407.001" y2="624.457" gradientUnits="userSpaceOnUse">
<stop stop-color="#1BA2D7"/>
<stop offset="1" stop-color="#8D3DFA"/>
</linearGradient>
</defs>
</svg>
