<svg width="512" height="512" viewBox="0 0 512 512" fill="none" xmlns="http://www.w3.org/2000/svg">
<path d="M124.192 185.877C112.725 207.371 106.667 231.627 106.667 256C106.667 280.373 112.725 304.629 124.192 326.123C126.965 331.317 124.992 337.792 119.797 340.565C117.297 341.886 114.376 342.165 111.671 341.341C108.966 340.518 106.696 338.66 105.355 336.171C92.2667 311.584 85.3333 283.861 85.3333 256C85.3333 228.139 92.256 200.416 105.355 175.829C106.696 173.34 108.966 171.482 111.671 170.659C114.376 169.836 117.297 170.114 119.797 171.435C124.992 174.208 126.955 180.672 124.192 185.877ZM155.883 194.091C153.351 192.833 150.424 192.628 147.742 193.522C145.06 194.415 142.84 196.334 141.568 198.859C132.565 216.864 128 236.096 128 256C128 275.904 132.565 295.136 141.568 313.131C142.834 315.661 145.053 317.585 147.738 318.479C150.422 319.374 153.352 319.165 155.883 317.899C158.413 316.633 160.337 314.413 161.231 311.729C162.126 309.044 161.917 306.115 160.651 303.584C153.2 288.826 149.319 272.525 149.321 255.993C149.323 239.462 153.207 223.161 160.661 208.405C161.288 207.152 161.662 205.787 161.761 204.389C161.86 202.991 161.682 201.587 161.238 200.258C160.795 198.928 160.093 197.699 159.174 196.641C158.255 195.583 157.137 194.716 155.883 194.091ZM392.213 171.435C387.019 174.208 385.045 180.672 387.819 185.877C399.275 207.371 405.333 231.627 405.333 256C405.333 280.373 399.275 304.629 387.808 326.123C386.479 328.621 386.196 331.545 387.019 334.253C387.843 336.96 389.707 339.23 392.203 340.565C397.429 343.307 403.861 341.344 406.645 336.171C419.744 311.584 426.667 283.861 426.667 256C426.667 228.139 419.744 200.416 406.645 175.829C405.306 173.341 403.038 171.483 400.335 170.659C397.631 169.836 394.712 170.115 392.213 171.435ZM356.117 194.091C354.864 194.717 353.747 195.585 352.829 196.643C351.911 197.702 351.211 198.931 350.768 200.26C350.325 201.59 350.149 202.993 350.248 204.391C350.348 205.788 350.722 207.152 351.349 208.405C358.859 223.413 362.667 239.435 362.667 256C362.667 272.565 358.859 288.587 351.339 303.595C350.073 306.125 349.864 309.055 350.758 311.739C351.652 314.424 353.576 316.643 356.107 317.909C358.637 319.175 361.567 319.384 364.251 318.49C366.936 317.596 369.155 315.672 370.421 313.141C379.435 295.136 384 275.904 384 256C384 236.096 379.435 216.864 370.432 198.869C369.164 196.341 366.945 194.418 364.262 193.522C361.579 192.626 358.65 192.831 356.117 194.091ZM336.171 105.355C311.584 92.256 283.861 85.3333 256 85.3333C228.139 85.3333 200.416 92.256 175.829 105.355C173.395 106.722 171.593 108.988 170.81 111.667C170.026 114.347 170.323 117.226 171.637 119.69C172.951 122.153 175.177 124.003 177.839 124.845C180.501 125.687 183.386 125.452 185.877 124.192C207.381 112.725 231.627 106.667 256 106.667C280.373 106.667 304.629 112.725 326.123 124.192C331.317 126.965 337.792 124.992 340.565 119.797C341.886 117.297 342.165 114.376 341.341 111.671C340.518 108.966 338.66 106.696 336.171 105.355ZM313.141 141.568C295.136 132.565 275.904 128 256 128C236.096 128 216.864 132.565 198.869 141.568C196.339 142.834 194.415 145.053 193.521 147.738C192.627 150.422 192.835 153.352 194.101 155.883C195.367 158.413 197.587 160.337 200.271 161.231C202.956 162.126 205.885 161.917 208.416 160.651C223.413 153.141 239.435 149.333 256 149.333C272.565 149.333 288.587 153.141 303.595 160.661C304.848 161.288 306.213 161.662 307.611 161.761C309.01 161.861 310.414 161.684 311.743 161.24C313.073 160.797 314.302 160.096 315.361 159.178C316.42 158.26 317.288 157.142 317.915 155.888C318.542 154.634 318.915 153.269 319.015 151.871C319.114 150.473 318.937 149.069 318.494 147.739C318.051 146.41 317.35 145.18 316.431 144.121C315.513 143.062 314.395 142.195 313.141 141.568ZM512 256C512 270.709 501.973 282.997 488.427 286.731C483.167 327.244 467.333 365.659 442.517 398.112C445.984 403.221 448 409.376 448 416C448 433.643 433.643 448 416 448C409.644 448.005 403.432 446.107 398.165 442.549C387.02 451.036 375.14 458.511 362.667 464.885V501.333C362.667 504.162 361.543 506.875 359.542 508.876C357.542 510.876 354.829 512 352 512H160C157.171 512 154.458 510.876 152.458 508.876C150.457 506.875 149.333 504.162 149.333 501.333V464.885C136.859 458.512 124.979 451.037 113.835 442.549C108.568 446.107 102.356 448.005 96 448C78.3573 448 64 433.643 64 416C64 409.376 66.016 403.221 69.472 398.112C44.6615 365.656 28.8283 327.243 23.5627 286.731C10.0267 282.997 0 270.709 0 256C0 241.291 10.0267 229.003 23.5733 225.269C28.839 184.757 44.6722 146.344 69.4827 113.888C65.9038 108.61 63.9936 102.377 64 96C64 78.3573 78.3573 64 96 64C102.624 64 108.779 66.0267 113.888 69.4827C146.338 44.6625 184.754 28.8282 225.269 23.5733C229.003 10.0267 241.291 0 256 0C270.709 0 282.997 10.0267 286.731 23.5733C327.244 28.8331 365.659 44.6669 398.112 69.4827C403.391 65.9038 409.623 63.9936 416 64C433.643 64 448 78.3573 448 96C448 102.624 445.973 108.779 442.517 113.888C467.337 146.338 483.172 184.754 488.427 225.269C495.178 227.105 501.141 231.105 505.399 236.657C509.658 242.208 511.977 249.003 512 256ZM405.333 96C405.333 98.829 406.457 101.542 408.458 103.542C410.458 105.543 413.171 106.667 416 106.667C418.829 106.667 421.542 105.543 423.542 103.542C425.543 101.542 426.667 98.829 426.667 96C426.667 93.171 425.543 90.4579 423.542 88.4575C421.542 86.4571 418.829 85.3333 416 85.3333C413.171 85.3333 410.458 86.4571 408.458 88.4575C406.457 90.4579 405.333 93.171 405.333 96ZM245.333 32C245.333 34.829 246.457 37.5421 248.458 39.5425C250.458 41.5429 253.171 42.6667 256 42.6667C258.829 42.6667 261.542 41.5429 263.542 39.5425C265.543 37.5421 266.667 34.829 266.667 32C266.667 29.171 265.543 26.4579 263.542 24.4575C261.542 22.4571 258.829 21.3333 256 21.3333C253.171 21.3333 250.458 22.4571 248.458 24.4575C246.457 26.4579 245.333 29.171 245.333 32ZM85.3333 96C85.3333 98.829 86.4571 101.542 88.4575 103.542C90.4579 105.543 93.171 106.667 96 106.667C98.829 106.667 101.542 105.543 103.542 103.542C105.543 101.542 106.667 98.829 106.667 96C106.667 93.171 105.543 90.4579 103.542 88.4575C101.542 86.4571 98.829 85.3333 96 85.3333C93.171 85.3333 90.4579 86.4571 88.4575 88.4575C86.4571 90.4579 85.3333 93.171 85.3333 96ZM42.6667 256C42.6667 253.171 41.5429 250.458 39.5425 248.458C37.5421 246.457 34.829 245.333 32 245.333C29.171 245.333 26.4579 246.457 24.4575 248.458C22.4571 250.458 21.3333 253.171 21.3333 256C21.3333 258.829 22.4571 261.542 24.4575 263.542C26.4579 265.543 29.171 266.667 32 266.667C34.829 266.667 37.5421 265.543 39.5425 263.542C41.5429 261.542 42.6667 258.829 42.6667 256ZM106.667 416C106.667 413.171 105.543 410.458 103.542 408.458C101.542 406.457 98.829 405.333 96 405.333C93.171 405.333 90.4579 406.457 88.4575 408.458C86.4571 410.458 85.3333 413.171 85.3333 416C85.3333 418.829 86.4571 421.542 88.4575 423.542C90.4579 425.543 93.171 426.667 96 426.667C98.829 426.667 101.542 425.543 103.542 423.542C105.543 421.542 106.667 418.829 106.667 416ZM341.333 405.333C341.333 370.037 312.629 341.333 277.333 341.333H234.667C199.371 341.333 170.667 370.037 170.667 405.333V490.667H341.333V405.333ZM256 320C291.296 320 320 291.296 320 256C320 220.704 291.296 192 256 192C220.704 192 192 220.704 192 256C192 291.296 220.715 320 256 320ZM426.667 416C426.667 413.171 425.543 410.458 423.542 408.458C421.542 406.457 418.829 405.333 416 405.333C413.171 405.333 410.458 406.457 408.458 408.458C406.457 410.458 405.333 413.171 405.333 416C405.333 418.829 406.457 421.542 408.458 423.542C410.458 425.543 413.171 426.667 416 426.667C418.829 426.667 421.542 425.543 423.542 423.542C425.543 421.542 426.667 418.829 426.667 416ZM467.115 285.237C461.438 282.74 456.61 278.648 453.216 273.457C449.823 268.266 448.01 262.201 448 256C448 242.944 455.883 231.733 467.115 226.752C462.156 190.246 447.742 155.671 425.301 126.453C422.297 127.437 419.161 127.959 416 128C398.357 128 384 113.643 384 96C384 92.7467 384.629 89.6533 385.547 86.6987C356.327 64.2626 321.752 49.849 285.248 44.8853C280.277 56.1173 269.056 64 256 64C249.799 63.9896 243.734 62.1774 238.543 58.7839C233.353 55.3904 229.26 50.5618 226.763 44.8853C190.257 49.8442 155.682 64.2583 126.464 86.6987C127.371 89.6533 128 92.7467 128 96C128 113.643 113.643 128 96 128C92.7467 128 89.664 127.371 86.6987 126.464C64.2574 155.681 49.8432 190.257 44.8853 226.763C50.5618 229.26 55.3904 233.353 58.7839 238.543C62.1774 243.734 63.9896 249.799 64 256C63.9896 262.201 62.1774 268.266 58.7839 273.457C55.3904 278.648 50.5618 282.74 44.8853 285.237C49.85 321.741 64.2635 356.315 86.6987 385.536C89.664 384.629 92.7467 384 96 384C113.643 384 128 398.357 128 416C128 419.275 127.36 422.379 126.443 425.355C133.717 430.912 141.355 436.021 149.333 440.629V405.333C149.333 368.331 173.056 336.843 206.048 325.045C184.661 309.525 170.667 284.395 170.667 256C170.667 208.949 208.949 170.667 256 170.667C303.051 170.667 341.333 208.949 341.333 256C341.333 284.395 327.339 309.525 305.952 325.045C338.944 336.843 362.667 368.331 362.667 405.333V440.629C370.617 436.034 378.263 430.932 385.557 425.355C384.571 422.333 384.046 419.179 384 416C384 398.357 398.357 384 416 384C419.253 384 422.347 384.629 425.301 385.547C447.746 356.327 462.161 321.747 467.115 285.237ZM490.667 256C490.667 253.171 489.543 250.458 487.542 248.458C485.542 246.457 482.829 245.333 480 245.333C477.171 245.333 474.458 246.457 472.458 248.458C470.457 250.458 469.333 253.171 469.333 256C469.333 258.829 470.457 261.542 472.458 263.542C474.458 265.543 477.171 266.667 480 266.667C482.829 266.667 485.542 265.543 487.542 263.542C489.543 261.542 490.667 258.829 490.667 256Z" fill="url(#paint0_linear_1125_125)"/>
<defs>
<linearGradient id="paint0_linear_1125_125" x1="18.2681" y1="33.0001" x2="505.955" y2="592.697" gradientUnits="userSpaceOnUse">
<stop stop-color="#1BA2D7"/>
<stop offset="1" stop-color="#8D3DFA"/>
</linearGradient>
</defs>
</svg>
