<svg width="393" height="511" viewBox="0 0 393 511" fill="none" xmlns="http://www.w3.org/2000/svg">
<path d="M368.195 408.5L378.495 407.6C381.895 407.4 384.295 403.7 383.095 400.5L358.395 326.6C357.595 324.2 355.295 322.7 352.795 322.9L338.495 324.2C326.095 289.3 292.495 266.1 255.595 266.1H231.295V243.9C239.495 238.4 246.195 231.2 250.995 222.6H259.495C270.795 222.6 279.895 213.4 279.895 202.1V149.8C309.695 144.7 303.095 102.9 273.095 106V88.9C273.095 56.7 250.295 28.9 219.295 22.3V15.7C219.295 7.1 212.295 0 203.695 0H188.395C179.795 0 172.795 7 172.795 15.7V22.3C141.795 28.9 118.995 56.7 118.995 88.9V106.2C88.8946 103.1 82.4946 144.7 112.095 150V202.3C112.095 213.6 121.295 222.8 132.595 222.8H141.095C145.895 231.3 152.495 238.5 160.595 244V266.3H136.695C99.6946 266.3 66.0946 289.5 53.7946 324.3L40.9946 323.2C38.4946 322.9 36.1946 324.5 35.3946 326.9L10.6946 400.8C9.4946 404 11.9946 407.7 15.3946 407.9L24.0946 408.7L3.1946 468.2C-3.7054 486.2 -0.405407 509.4 22.7946 510.4H369.495C382.095 510.4 392.395 500.1 392.395 487.5C393.795 473.4 372.095 422.3 368.195 408.5ZM349.495 334.1L370.695 397.4L346.495 399.5L325.295 336.2L335.295 335.3L349.495 334.1ZM243.695 277C247.395 277 257.195 276.9 260.795 277.2V379.6H243.695V277ZM219.295 33.4C244.195 39.8 262.295 62.6 262.295 88.9V106.2H219.295V33.4ZM183.595 15.8C183.595 13.1 185.695 10.9 188.395 10.9H203.695C206.295 10.9 208.495 13.1 208.495 15.8V106.2H183.695V15.8H183.595ZM129.795 88.9C129.795 62.6 147.895 39.8 172.795 33.4V106.2H129.795V88.9ZM117.495 139.4C100.995 141.5 98.1946 118.1 114.795 117H267.695C267.795 116.9 277.095 117 277.295 117C293.895 118 291.095 141.5 274.595 139.4H117.495ZM132.595 211.9C127.295 211.9 122.895 207.6 122.895 202.2V150.1H269.095V202.2C269.095 207.5 264.795 211.9 259.495 211.9H132.595ZM153.795 222.8H238.295C218.895 250.7 173.195 250.8 153.795 222.8ZM220.395 250V269.3L195.895 293.8L171.395 269.3V249.9C186.895 256.4 204.895 256.5 220.395 250ZM159.495 277H163.795L192.195 305.4C193.195 306.4 194.595 307 195.995 307C197.395 307 198.795 306.4 199.795 305.4L228.095 277H232.895V343.6H159.495V277ZM131.495 277.2C134.995 276.9 144.895 277.1 148.595 277V379.6H131.495V277.2ZM23.0946 397.5L44.2946 334.2L68.4946 336.3L47.1946 399.6L23.0946 397.5ZM86.8946 362.3V499.2H22.7946C7.99459 498.7 9.59459 481.4 13.3946 471.4L35.1946 409.3L50.5946 410.6C52.9946 410.7 55.3946 409.3 56.1946 406.9L80.8946 333C82.0946 329.8 79.5946 326.1 76.1946 325.9L64.8946 324.9C74.5946 301 95.3946 283.7 120.595 278.5V343.4H105.695C95.2946 343.5 86.8946 352 86.8946 362.3ZM175.895 499.3H126.795L127.095 438.3L175.895 438.6V499.3ZM265.495 499.3H216.395L216.695 438.3L265.495 438.6V499.3ZM294.595 499.3H276.295V438.5C276.295 432.4 271.295 427.4 265.195 427.4H216.695C210.595 427.4 205.595 432.4 205.595 438.5V499.3H186.795V438.5C186.795 432.4 181.795 427.4 175.695 427.4H127.195C121.095 427.4 116.095 432.4 116.095 438.5V499.3H97.7946V362.3C97.7946 357.9 101.395 354.3 105.795 354.3H120.695V384.9C120.695 387.9 123.095 390.3 126.095 390.3H154.095C157.095 390.3 159.495 387.9 159.495 384.9V354.3H232.895V384.9C232.895 387.9 235.295 390.3 238.295 390.3H266.295C269.295 390.3 271.695 387.9 271.695 384.9V354.3H286.695C290.995 354.3 294.695 358 294.695 362.3V499.3H294.595ZM369.495 499.3H305.395V362.3C305.395 351.9 296.995 343.5 286.595 343.5H271.595V278.6C296.895 283.8 317.595 301.1 327.295 325.2L317.495 326.1C314.095 326.3 311.695 330 312.795 333.2L337.495 407.1C338.295 409.4 340.695 410.9 343.095 410.8L356.995 409.6L378.795 471.6C382.695 481.8 384.395 498.7 369.495 499.3ZM175.995 371.5H216.195C223.295 371.5 223.295 382.3 216.195 382.3H175.995C168.995 382.3 168.995 371.6 175.995 371.5ZM246.295 407C246.295 410 243.895 412.4 240.895 412.4H151.395C144.295 412.4 144.395 401.6 151.395 401.6H240.895C243.895 401.6 246.295 404 246.295 407ZM237.795 186.5H154.295C147.195 186.5 147.295 175.7 154.295 175.7H237.795C244.895 175.7 244.795 186.4 237.795 186.5Z" fill="url(#paint0_linear_1125_144)"/>
<defs>
<linearGradient id="paint0_linear_1125_144" x1="14.0029" y1="32.897" x2="500.972" y2="462.629" gradientUnits="userSpaceOnUse">
<stop stop-color="#1BA2D7"/>
<stop offset="1" stop-color="#8D3DFA"/>
</linearGradient>
</defs>
</svg>
