<svg width="512" height="512" viewBox="0 0 512 512" fill="none" xmlns="http://www.w3.org/2000/svg">
<path d="M280.188 175.757C229.177 119.645 143.31 116.246 88.0495 166.405C85.499 168.957 82.0994 171.506 79.5479 174.906L76.1472 180.858L80.398 185.961L81.2482 186.808C131.408 242.068 217.275 245.472 272.536 195.309C275.087 192.761 278.485 190.211 281.038 186.808L285.289 180.86L280.188 175.757ZM162.865 180.858C162.865 171.507 170.517 163.855 179.869 163.855C189.217 163.855 196.872 171.507 196.872 180.858C196.872 190.21 189.217 197.862 179.869 197.862C170.517 197.862 162.865 190.211 162.865 180.858ZM168.814 148.55C150.961 154.503 141.611 173.208 146.71 191.058C150.113 201.263 157.764 209.764 168.814 213.163C142.459 210.614 116.954 199.56 97.4003 180.858C117.804 162.154 142.459 151.103 168.814 148.55ZM190.919 213.163C208.775 207.215 218.126 188.51 213.025 170.654C209.625 160.456 201.97 151.954 190.92 148.55C217.275 151.104 242.78 162.153 262.334 180.86C241.93 199.56 217.275 210.615 190.92 213.164L190.919 213.163Z" fill="url(#paint0_linear_1125_131)"/>
<path d="M179.869 36.332C99.9497 36.332 35.3401 100.945 35.3401 180.861C35.3401 260.776 99.9497 325.389 179.869 325.389C259.785 325.389 324.397 260.775 324.397 180.861C324.397 100.946 259.785 36.332 179.869 36.332ZM179.869 308.386C109.303 308.386 52.3435 251.422 52.3435 180.861C52.3435 110.293 109.303 53.3354 179.869 53.3354C250.432 53.3354 307.394 110.293 307.394 180.861C307.394 251.422 250.432 308.386 179.869 308.386ZM468.926 367.898V87.3421C468.926 63.5342 450.221 44.8337 426.418 44.8337H332.899V61.8371H426.418C440.868 61.8371 451.923 72.8871 451.923 87.3421V367.898H468.926ZM43.8418 342.393V427.409C43.8418 451.212 62.5434 469.918 86.3502 469.918H383.909V452.914H86.3502C71.8963 452.914 60.8452 441.859 60.8452 427.409V342.393H43.8418Z" fill="url(#paint1_linear_1125_131)"/>
<path d="M358.404 87.3438H434.919V104.347H358.404V87.3438ZM375.407 129.852H434.919V146.856H375.407V129.852ZM375.407 172.361H434.919V189.364H375.407V172.361ZM375.407 214.869H434.919V231.872H375.407V214.869ZM375.407 257.377H434.919V274.381H375.407V257.377ZM383.909 299.886H434.919V316.889H383.909V299.886ZM77.8486 376.401H307.394V393.404H77.8486V376.401ZM77.8486 410.408H341.401V427.411H77.8486V410.408ZM120.357 248.876H239.381V265.879H120.357V248.876ZM120.357 95.8454H239.381V112.849H120.357V95.8454Z" fill="url(#paint2_linear_1125_131)"/>
<path d="M411.964 358.545C406.863 353.443 400.913 350.894 394.11 350.894H388.16L326.947 282.03C383.058 200.413 363.502 89.0397 281.889 32.0805C200.273 -24.8818 88.0485 -3.6276 31.9363 77.1384C-24.1716 157.904 -4.61881 270.128 76.9984 327.088C141.611 372.148 228.326 369.596 290.391 320.286L349.902 387.45V394.253C349.902 401.054 352.452 407.853 357.554 412.104L445.97 500.524C461.271 515.826 485.078 515.826 500.381 500.524C515.685 485.219 515.685 461.417 500.381 446.11L411.964 358.545ZM18.3368 180.86C18.3368 91.5923 90.6011 19.328 179.869 19.328C269.136 19.328 341.401 91.5923 341.401 180.86C341.401 270.128 269.136 342.392 179.869 342.392C90.6011 342.392 18.3368 270.128 18.3368 180.86ZM303.143 310.083C307.394 305.833 312.492 300.735 315.896 296.484L372.004 359.396L358.404 372.149L303.143 310.083ZM473.177 495.423C467.225 495.423 462.122 492.87 457.872 489.47L369.454 401.052C367.754 399.352 366.906 397.653 366.906 395.101V388.3L387.31 367.897H394.109C396.662 367.897 398.36 368.748 400.062 370.446L488.479 458.864C496.98 467.366 496.98 480.968 488.479 489.47C484.228 492.871 478.275 495.423 473.177 495.423Z" fill="url(#paint3_linear_1125_131)"/>
<defs>
<linearGradient id="paint0_linear_1125_131" x1="83.6093" y1="137.508" x2="151.454" y2="300.951" gradientUnits="userSpaceOnUse">
<stop stop-color="#1BA2D7"/>
<stop offset="1" stop-color="#8D3DFA"/>
</linearGradient>
<linearGradient id="paint1_linear_1125_131" x1="50.8104" y1="64.2781" x2="463.807" y2="538.256" gradientUnits="userSpaceOnUse">
<stop stop-color="#1BA2D7"/>
<stop offset="1" stop-color="#8D3DFA"/>
</linearGradient>
<linearGradient id="paint2_linear_1125_131" x1="90.5888" y1="109.262" x2="411.978" y2="496.549" gradientUnits="userSpaceOnUse">
<stop stop-color="#1BA2D7"/>
<stop offset="1" stop-color="#8D3DFA"/>
</linearGradient>
<linearGradient id="paint3_linear_1125_131" x1="18.263" y1="33.0002" x2="505.969" y2="592.565" gradientUnits="userSpaceOnUse">
<stop stop-color="#1BA2D7"/>
<stop offset="1" stop-color="#8D3DFA"/>
</linearGradient>
</defs>
</svg>
