<svg width="512" height="486" viewBox="0 0 512 486" fill="none" xmlns="http://www.w3.org/2000/svg">
<path d="M3.99978 304.695L60.3778 337.244C61.2878 337.769 62.2923 338.11 63.334 338.247C64.3756 338.384 65.4341 338.314 66.4489 338.042C67.4636 337.77 68.4148 337.3 69.2482 336.661C70.0816 336.021 70.7807 335.223 71.3058 334.313L73.3368 330.795L105.987 349.911C105.215 352.687 104.824 355.555 104.824 358.436C104.808 362.573 105.613 366.673 107.192 370.497C108.771 374.321 111.093 377.794 114.024 380.715C116.947 383.643 120.421 385.964 124.244 387.545C128.067 389.126 132.165 389.936 136.303 389.929C136.91 389.929 137.518 389.905 138.125 389.871C138.091 390.471 138.069 391.071 138.069 391.681C138.06 395.817 138.868 399.915 140.447 403.738C142.026 407.561 144.344 411.035 147.269 413.96C150.194 416.885 153.667 419.203 157.491 420.782C161.314 422.361 165.411 423.169 169.548 423.16C170.158 423.16 170.765 423.138 171.37 423.104C171.334 423.711 171.315 424.318 171.313 424.926C171.304 429.063 172.112 433.16 173.69 436.983C175.269 440.807 177.588 444.281 180.512 447.206C183.437 450.131 186.911 452.449 190.734 454.028C194.558 455.607 198.655 456.415 202.792 456.406C205.007 456.405 207.216 456.174 209.384 455.716C210.389 461.888 213.56 467.499 218.329 471.544C223.097 475.589 229.151 477.803 235.404 477.788C238.566 477.791 241.703 477.228 244.667 476.126L246.256 477.713C249.684 481.147 253.994 483.569 258.71 484.711C263.426 485.853 268.366 485.672 272.986 484.188C277.606 482.703 281.727 479.972 284.895 476.296C288.063 472.62 290.155 468.142 290.941 463.353C293.107 463.815 295.315 464.05 297.53 464.053C301.82 464.058 306.066 463.186 310.007 461.489C313.948 459.792 317.499 457.307 320.444 454.187C323.388 451.066 325.663 447.376 327.129 443.344C328.594 439.312 329.219 435.022 328.965 430.739C329.565 430.773 330.165 430.794 330.775 430.794C335.065 430.803 339.311 429.933 343.253 428.238C347.194 426.543 350.747 424.06 353.692 420.94C356.637 417.82 358.912 414.131 360.377 410.098C361.842 406.066 362.466 401.777 362.211 397.494C362.811 397.528 363.411 397.549 364.021 397.549C369.79 397.543 375.446 395.954 380.374 392.954C385.302 389.955 389.311 385.66 391.966 380.538C394.62 375.416 395.818 369.663 395.427 363.908C395.037 358.152 393.074 352.614 389.753 347.897L433.886 322.521L440.694 334.313C441.755 336.15 443.502 337.491 445.551 338.04C447.601 338.589 449.784 338.302 451.622 337.241L508 304.695C509.837 303.634 511.178 301.887 511.727 299.837C512.276 297.788 511.989 295.604 510.928 293.767L436.987 165.698C435.926 163.861 434.179 162.52 432.13 161.971C430.08 161.422 427.897 161.71 426.06 162.77L369.682 195.32C367.844 196.381 366.504 198.128 365.955 200.178C365.405 202.227 365.693 204.411 366.754 206.248L373.293 217.574L363.947 221.113C359.659 222.829 354.893 222.925 350.539 221.384L288.224 200.613C284.766 199.43 281.107 198.948 277.46 199.197C273.814 199.445 270.254 200.419 266.989 202.061L254.589 208.173C254.472 208.103 254.359 208.028 254.236 207.963L239.465 200.163C235.485 198.03 231.045 196.901 226.529 196.874C222.014 196.846 217.56 197.921 213.555 200.005L193.837 210.105C192.342 210.941 190.662 211.391 188.949 211.414L141.949 211.952L145.243 206.245C146.304 204.408 146.591 202.224 146.042 200.175C145.493 198.125 144.152 196.378 142.315 195.317L85.9398 162.77C84.1024 161.71 81.9191 161.422 79.87 161.971C77.8208 162.52 76.0737 163.861 75.0128 165.698L1.07178 293.767C0.0109614 295.604 -0.276515 297.788 0.272587 299.837C0.82169 301.887 2.1624 303.634 3.99978 304.695ZM125.337 369.405C122.445 366.488 120.822 362.547 120.822 358.439C120.822 354.331 122.445 350.39 125.337 347.473L153.469 319.341C156.381 316.449 160.32 314.829 164.424 314.836C168.528 314.844 172.462 316.477 175.363 319.379C178.265 322.281 179.898 326.215 179.905 330.319C179.912 334.423 178.291 338.363 175.399 341.274L147.269 369.405C144.358 372.309 140.414 373.939 136.303 373.939C132.191 373.939 128.248 372.309 125.337 369.405ZM158.583 402.65C155.692 399.734 154.069 395.795 154.068 391.689C154.067 387.583 155.687 383.643 158.576 380.725L158.583 380.718L186.715 352.587C189.631 349.715 193.563 348.112 197.656 348.127C201.749 348.143 205.669 349.775 208.563 352.669C211.457 355.563 213.09 359.484 213.105 363.577C213.121 367.669 211.518 371.602 208.646 374.518L180.514 402.65C177.603 405.554 173.66 407.184 169.548 407.184C165.437 407.184 161.493 405.554 158.583 402.65ZM191.828 435.895C188.924 432.985 187.292 429.041 187.292 424.929C187.292 420.817 188.924 416.874 191.828 413.963L219.959 385.832C222.867 382.924 226.812 381.29 230.925 381.29C235.038 381.29 238.982 382.924 241.891 385.832C244.799 388.74 246.433 392.685 246.433 396.798C246.433 400.911 244.799 404.856 241.891 407.764C241.623 408.036 241.374 408.327 241.148 408.635C240.308 409.29 239.509 409.996 238.754 410.747L216.742 432.757C215.989 433.514 215.282 434.315 214.626 435.157C214.32 435.383 214.03 435.63 213.759 435.897C210.848 438.801 206.904 440.431 202.793 440.431C198.681 440.431 194.738 438.799 191.828 435.895ZM228.058 458.77C226.11 456.82 225.016 454.176 225.016 451.42C225.016 448.664 226.11 446.02 228.058 444.07L250.068 422.06C252.017 420.111 254.661 419.016 257.418 419.016C260.175 419.016 262.818 420.111 264.768 422.06C266.717 424.009 267.812 426.653 267.812 429.41C267.812 432.167 266.717 434.811 264.768 436.76L242.758 458.77C240.802 460.707 238.16 461.793 235.408 461.793C232.655 461.793 230.014 460.707 228.058 458.77ZM272.267 466.403C270.332 468.332 267.716 469.423 264.984 469.439C262.252 469.455 259.624 468.395 257.667 466.489L272.356 451.8C274.262 453.758 275.322 456.387 275.305 459.12C275.289 461.852 274.197 464.469 272.267 466.403ZM308.5 443.529C305.589 446.433 301.646 448.063 297.535 448.063C293.424 448.063 289.48 446.433 286.57 443.529C286.297 443.261 286.006 443.012 285.698 442.786C285.043 441.946 284.337 441.147 283.586 440.392L282.055 438.861C283.462 435.207 284.036 431.284 283.737 427.38C283.438 423.475 282.273 419.687 280.325 416.289C278.378 412.892 275.698 409.971 272.481 407.739C269.263 405.507 265.588 404.02 261.724 403.387C262.598 399.273 262.647 395.027 261.867 390.894C264.812 389.257 268.21 388.623 271.547 389.087C274.884 389.551 277.98 391.088 280.367 393.466L308.5 421.598C311.404 424.508 313.035 428.452 313.035 432.564C313.035 436.675 311.404 440.619 308.5 443.529ZM341.746 410.284C338.829 413.175 334.888 414.797 330.781 414.797C326.674 414.797 322.733 413.175 319.816 410.284L291.683 382.152C288.86 379.228 287.298 375.313 287.333 371.249C287.368 367.185 288.997 363.297 291.869 360.421C294.742 357.546 298.628 355.913 302.692 355.874C306.756 355.835 310.673 357.393 313.6 360.213V360.219L341.732 388.35C344.638 391.259 346.271 395.203 346.273 399.315C346.274 403.427 344.644 407.372 341.741 410.284H341.746ZM374.99 377.039C372.08 379.943 368.136 381.574 364.025 381.574C359.914 381.574 355.971 379.943 353.061 377.039L324.928 348.907C322.056 345.991 320.453 342.058 320.468 337.966C320.484 333.873 322.116 329.952 325.01 327.058C327.904 324.164 331.825 322.532 335.918 322.516C340.01 322.501 343.943 324.104 346.859 326.976L374.987 355.113C377.878 358.03 379.501 361.971 379.501 366.079C379.501 370.186 377.878 374.127 374.987 377.044L374.99 377.039ZM427.137 180.627L493.077 294.838L450.555 319.388L384.609 205.176L427.137 180.627ZM274.063 216.413C275.454 215.685 276.981 215.254 278.548 215.147C280.114 215.04 281.686 215.26 283.163 215.793L345.479 236.565C353.329 239.257 361.879 239.085 369.615 236.078L381.4 231.613L425.889 308.668L378.45 335.944L358.169 315.662C356.021 313.514 353.572 311.689 350.9 310.244L287.125 262.433C283.072 259.4 278.233 257.595 273.184 257.233L263.813 256.406C258.565 255.902 253.283 256.907 248.588 259.305C243.893 261.702 239.981 265.391 237.313 269.937L224.89 290.366C224.706 290.711 224.418 290.989 224.066 291.158C223.714 291.328 223.317 291.381 222.933 291.31L204.033 288.93C203.747 288.894 203.473 288.797 203.229 288.645C202.984 288.493 202.775 288.29 202.616 288.05C202.457 287.81 202.352 287.539 202.308 287.255C202.263 286.971 202.281 286.68 202.359 286.403L212.259 251.303C212.68 249.668 213.458 248.147 214.538 246.849C215.617 245.551 216.972 244.508 218.503 243.797L274.063 216.413ZM189.133 227.413C193.321 227.367 197.436 226.315 201.133 224.346L220.851 214.246C222.566 213.323 224.486 212.845 226.434 212.857C228.382 212.869 230.296 213.369 232 214.313L236.891 216.894L211.425 229.447C207.879 231.145 204.741 233.589 202.227 236.612C199.712 239.634 197.88 243.164 196.856 246.96L186.956 282.06C186.252 284.553 186.096 287.169 186.496 289.729C186.896 292.288 187.844 294.731 189.275 296.891C190.707 299.05 192.587 300.875 194.788 302.241C196.989 303.607 199.459 304.482 202.03 304.806L220.93 307.185C224.377 307.648 227.885 307.089 231.018 305.578C234.151 304.067 236.772 301.671 238.557 298.685L250.981 278.257C252.109 276.273 253.789 274.659 255.816 273.61C257.844 272.562 260.132 272.124 262.403 272.349L271.773 273.176C273.852 273.277 275.855 273.995 277.524 275.24L322.889 309.249C317.37 311.742 312.689 315.778 309.409 320.87C306.13 325.962 304.393 331.893 304.406 337.949C304.406 338.555 304.428 339.158 304.461 339.759C300.178 339.504 295.889 340.128 291.857 341.593C287.824 343.058 284.135 345.333 281.015 348.278C277.896 351.223 275.412 354.775 273.717 358.716C272.022 362.658 271.152 366.904 271.161 371.194C271.161 371.801 271.183 372.403 271.216 373.004C265.585 372.676 259.969 373.862 254.952 376.439C254.395 375.777 253.811 375.139 253.201 374.526C250.059 371.383 246.287 368.942 242.133 367.364C237.978 365.786 233.537 365.106 229.101 365.37C229.135 364.77 229.156 364.17 229.156 363.56C229.166 359.27 228.297 355.024 226.604 351.083C224.911 347.141 222.429 343.588 219.311 340.642C216.192 337.696 212.504 335.42 208.473 333.953C204.442 332.486 200.153 331.86 195.871 332.113C196.124 327.832 195.499 323.543 194.033 319.513C192.567 315.482 190.292 311.794 187.347 308.675C184.402 305.557 180.851 303.074 176.91 301.38C172.97 299.686 168.725 298.816 164.436 298.824C160.298 298.808 156.199 299.613 152.374 301.192C148.55 302.772 145.077 305.094 142.156 308.024L114.075 336.113L81.3368 316.942L132.651 228.062L189.133 227.413ZM84.8678 180.627L127.39 205.176L61.4488 319.388L18.9278 294.838L84.8678 180.627ZM256 187.502C274.542 187.502 292.668 182.004 308.085 171.703C323.503 161.401 335.519 146.759 342.615 129.629C349.711 112.498 351.568 93.6477 347.951 75.4617C344.333 57.2758 335.404 40.5708 322.293 27.4594C309.182 14.348 292.477 5.419 274.291 1.80151C256.105 -1.81597 237.255 0.040555 220.124 7.13632C202.993 14.2321 188.351 26.2484 178.05 41.6657C167.748 57.083 162.25 75.2088 162.25 93.751C162.278 118.606 172.164 142.436 189.74 160.011C207.315 177.587 231.144 187.473 256 187.502ZM256 16.002C271.378 16.0018 286.41 20.5617 299.196 29.105C311.983 37.6483 321.948 49.7914 327.833 63.9986C333.718 78.2057 335.258 93.839 332.258 108.921C329.258 124.004 321.853 137.858 310.979 148.731C300.105 159.605 286.251 167.01 271.169 170.01C256.087 173.01 240.453 171.47 226.246 165.585C212.039 159.7 199.896 149.735 191.353 136.949C182.809 124.162 178.25 109.13 178.25 93.752C178.273 73.1385 186.472 53.3759 201.048 38.7999C215.624 24.2238 235.386 16.0256 256 16.002ZM220.412 94.128C219.164 92.4117 218.65 90.2701 218.981 88.1744C219.313 86.0787 220.463 84.2005 222.18 82.953C223.896 81.7056 226.038 81.1911 228.133 81.5226C230.229 81.8542 232.107 83.0047 233.355 84.721L245.6 101.573L286.363 68.181C288.006 66.8527 290.108 66.2282 292.209 66.4439C294.311 66.6596 296.242 67.698 297.581 69.3325C298.92 70.9669 299.558 73.0647 299.356 75.1678C299.154 77.2709 298.128 79.2087 296.502 80.558L249.181 119.322C248.338 120.012 247.363 120.524 246.316 120.824C245.268 121.124 244.171 121.207 243.09 121.068C242.009 120.929 240.969 120.571 240.031 120.015C239.094 119.46 238.28 118.718 237.64 117.837L220.412 94.128Z" fill="white"/>
</svg>
