<svg width="508" height="467" viewBox="0 0 508 467" fill="none" xmlns="http://www.w3.org/2000/svg">
<path d="M207.57 466.138C206.389 466.138 205.211 465.882 204.115 465.374C203.569 465.118 147.905 438.279 94.7726 379.747C65.0084 346.958 41.8557 310.647 25.9564 271.828C6.17614 223.526 -2.36743 171.196 0.561211 116.289C0.769424 112.408 3.67417 109.206 7.51758 108.626C58.5879 100.908 106.078 81.466 148.662 50.8416C178.881 29.1089 196.541 8.72789 201.234 3.00032C202.003 2.06247 202.971 1.3069 204.067 0.788065C205.163 0.269235 206.36 7.76648e-05 207.573 0C210.027 0 212.355 1.10251 213.912 3.00032L214.239 3.40309C223.53 14.8343 258.643 54.3164 320.459 82.4047C324.579 84.2752 326.398 89.1324 324.528 93.2523C322.657 97.3722 317.8 99.1949 313.68 97.321C284.247 83.9475 257.21 66.6897 233.313 46.0254C226.326 39.9804 216.707 31.1057 207.498 20.7531C198.579 30.5323 182.041 47.0153 158.226 64.1399C138.528 78.3053 117.379 90.3953 95.37 100.069C70.1838 111.139 43.7393 119.091 16.6244 123.747C13.2417 216.59 43.5931 298.987 106.904 368.732C127.254 391.151 151.304 412.187 176.454 429.565C191.063 439.658 202.248 445.932 207.583 448.754C218.144 443.208 251.363 424.441 287.131 390.789C342.243 338.934 377.376 277.572 391.548 208.404C392.456 203.971 396.791 201.117 401.218 202.025C405.652 202.933 408.509 207.261 407.598 211.695C399.437 251.522 384.322 289.468 362.675 324.478C345.284 352.608 323.643 378.931 298.357 402.722C252.588 445.785 211.437 465.179 211.027 465.37C209.928 465.882 208.747 466.138 207.57 466.138Z" fill="white"/>
<path d="M207.569 418.232C206.388 418.232 205.211 417.976 204.115 417.468C203.682 417.266 159.554 395.991 117.512 349.672C93.9532 323.717 75.6236 294.97 63.0353 264.233C47.3681 225.98 40.6028 184.542 42.9205 141.076C43.1287 137.195 46.0334 133.994 49.8769 133.413C89.7924 127.382 126.909 112.186 160.196 88.2482C183.806 71.2669 197.579 55.3778 201.234 50.9097C202.791 49.0119 205.115 47.9094 207.573 47.9094C210.03 47.9094 212.355 49.0119 213.911 50.9097L214.246 51.3228C223.138 62.3034 256.786 99.7784 316.523 120.948C320.786 122.46 323.019 127.14 321.51 131.406C319.998 135.67 315.318 137.902 311.051 136.393C282.216 126.174 255.755 111.305 232.408 92.194C225.636 86.6508 216.349 78.4417 207.481 68.6079C200.149 76.4858 187.499 88.7978 169.767 101.553C154.164 112.773 137.415 122.347 119.983 130.01C100.468 138.588 79.9975 144.803 59.0075 148.524C56.7206 220.542 80.4672 284.488 129.65 338.671C162.838 375.231 196.865 395.1 207.587 400.845C217.028 395.82 244.406 380.037 272.972 352.252C318.056 308.408 345.123 256.406 353.425 197.697C354.059 193.218 358.203 190.099 362.682 190.734C367.16 191.365 370.28 195.512 369.645 199.991C348.148 352.048 212.399 416.84 211.031 417.478C209.943 417.972 208.764 418.229 207.569 418.232Z" fill="white"/>
<path d="M406.383 218.491C379.268 218.491 353.773 207.934 334.601 188.768C315.425 169.598 304.867 144.111 304.867 117.002C304.867 89.8936 315.428 64.4063 334.601 45.237C353.773 26.0677 379.268 15.5137 406.383 15.5137C433.499 15.5137 458.993 26.0711 478.166 45.237C497.342 64.4063 507.899 89.8936 507.899 117.002C507.899 144.111 497.338 169.598 478.166 188.768C458.989 207.934 433.499 218.491 406.383 218.491ZM406.383 31.8943C359.44 31.8943 321.251 70.0724 321.251 116.999C321.251 163.925 359.443 202.104 406.383 202.104C453.323 202.104 491.515 163.929 491.515 117.002C491.515 70.0758 453.323 31.8943 406.383 31.8943Z" fill="white"/>
<path d="M380.635 156.641C378.42 156.641 376.215 155.747 374.604 153.993L352.95 130.441C349.888 127.109 350.106 121.928 353.434 118.866C356.762 115.804 361.947 116.023 365.009 119.351L381.301 137.069L448.448 79.3395C451.878 76.3904 457.049 76.7795 459.999 80.2099C462.948 83.6403 462.559 88.8115 459.128 91.7641L385.974 154.662C384.427 155.986 382.526 156.641 380.635 156.641ZM211.989 277.572C187.188 277.572 167.012 257.396 167.012 232.595C167.012 207.793 187.188 187.617 211.989 187.617C236.79 187.617 256.967 207.793 256.967 232.595C256.967 257.396 236.787 277.572 211.989 277.572ZM211.989 204.005C196.223 204.005 183.396 216.832 183.396 232.598C183.396 248.364 196.223 261.192 211.989 261.192C227.755 261.192 240.583 248.364 240.583 232.598C240.583 216.832 227.752 204.005 211.989 204.005Z" fill="white"/>
<path d="M222.299 332.329H197.378C193.207 332.329 189.698 329.192 189.237 325.045L187.213 306.91C182.472 305.33 177.894 303.298 173.543 300.841L159.685 311.914C156.425 314.518 151.728 314.259 148.779 311.306L131.156 293.683C128.207 290.734 127.944 286.037 130.549 282.778L142.209 268.189C139.982 263.837 138.173 259.284 136.805 254.59L118.936 252.597C114.789 252.133 111.652 248.627 111.652 244.456V219.535C111.652 215.361 114.789 211.855 118.936 211.395L137.177 209.36C138.662 204.567 140.609 199.929 142.99 195.512L132.067 181.845C129.463 178.586 129.723 173.889 132.675 170.94L150.298 153.317C153.247 150.364 157.944 150.105 161.204 152.709L174.864 163.625C179.538 161.1 184.46 159.063 189.551 157.546L191.388 141.097C191.852 136.95 195.358 133.813 199.529 133.813H224.449C228.62 133.813 232.129 136.95 232.59 141.097L234.427 157.546C239.793 159.146 244.971 161.322 249.868 164.038L262.143 154.228C265.403 151.624 270.099 151.883 273.048 154.836L290.671 172.459C293.621 175.408 293.883 180.108 291.279 183.364L281.22 195.953C283.901 200.997 286.015 206.322 287.524 211.832L302.891 213.545C307.038 214.009 310.175 217.515 310.175 221.686V246.607C310.175 250.781 307.038 254.287 302.891 254.747L286.569 256.57C284.862 261.888 282.595 266.988 279.79 271.824L289.76 284.3C292.364 287.56 292.105 292.257 289.153 295.206L271.529 312.829C268.58 315.778 263.88 316.041 260.624 313.436L247.093 302.623C242.372 304.995 237.421 306.88 232.317 308.248L230.443 325.048C229.979 329.192 226.473 332.329 222.299 332.329ZM204.707 315.945H214.971L216.677 300.64C216.872 298.892 217.624 297.253 218.822 295.966C220.02 294.679 221.601 293.812 223.33 293.492C230.552 292.158 237.42 289.563 243.735 285.785C245.168 284.928 246.828 284.529 248.494 284.641C250.16 284.754 251.752 285.374 253.057 286.416L265.126 296.062L272.383 288.806L263.344 277.494C262.245 276.118 261.618 274.425 261.557 272.666C261.495 270.906 262.003 269.174 263.003 267.725C267.338 261.444 270.434 254.515 272.209 247.125C272.602 245.488 273.49 244.012 274.753 242.898C276.015 241.784 277.591 241.086 279.264 240.899L293.788 239.278V229.014L279.95 227.471C278.212 227.277 276.581 226.532 275.297 225.344C274.012 224.156 273.142 222.588 272.813 220.87C271.362 213.292 268.529 206.128 264.396 199.585C263.487 198.144 263.049 196.457 263.143 194.756C263.237 193.055 263.859 191.426 264.921 190.095L273.902 178.859L266.645 171.602L255.637 180.402C254.285 181.481 252.626 182.105 250.897 182.185C249.169 182.264 247.46 181.794 246.015 180.842C239.632 176.637 232.621 173.684 225.176 172.073C223.5 171.71 221.98 170.83 220.83 169.557C219.681 168.284 218.96 166.682 218.77 164.977L217.121 150.2H206.857L205.208 164.977C205.018 166.682 204.297 168.284 203.148 169.557C201.998 170.83 200.478 171.71 198.802 172.073C191.603 173.633 184.8 176.449 178.581 180.439C177.139 181.365 175.443 181.815 173.731 181.726C172.02 181.638 170.379 181.014 169.041 179.944L156.698 170.08L149.441 177.336L159.309 189.682C161.501 192.427 161.702 196.263 159.808 199.219C155.961 205.22 153.203 211.777 151.616 218.706C151.236 220.362 150.352 221.86 149.084 222.991C147.816 224.122 146.228 224.831 144.54 225.021L128.036 226.864V237.128L144.27 238.94C147.786 239.333 150.653 241.937 151.38 245.398C152.817 252.245 155.398 258.758 159.043 264.748C159.916 266.184 160.327 267.853 160.22 269.529C160.113 271.206 159.494 272.809 158.446 274.121L147.926 287.287L155.183 294.543L167.815 284.447C169.177 283.359 170.85 282.733 172.592 282.661C174.333 282.589 176.052 283.075 177.499 284.047C183.375 288.003 189.89 290.911 196.757 292.646C198.374 293.054 199.828 293.947 200.924 295.204C202.02 296.461 202.706 298.023 202.891 299.681L204.707 315.945Z" fill="white"/>
</svg>
