<svg width="336" height="464" viewBox="0 0 336 464" fill="none" xmlns="http://www.w3.org/2000/svg">
<path fill-rule="evenodd" clip-rule="evenodd" d="M8 256C9.58225 256 11.129 256.469 12.4446 257.348C13.7602 258.227 14.7855 259.477 15.391 260.939C15.9965 262.4 16.155 264.009 15.8463 265.561C15.5376 267.113 14.7757 268.538 13.6569 269.657C12.538 270.776 11.1126 271.538 9.56072 271.846C8.00887 272.155 6.40034 271.997 4.93853 271.391C3.47672 270.786 2.22729 269.76 1.34824 268.445C0.469192 267.129 0 265.582 0 264C0 261.878 0.842856 259.843 2.34315 258.343C3.84344 256.843 5.87827 256 8 256Z" fill="white"/>
<path d="M176 448H256V424C256.032 422.421 256.473 420.877 257.28 419.52L320 325.6V209.44C316.617 210.582 313.549 212.5 311.04 215.04C306.538 219.537 304.006 225.637 304 232V291.52C304.019 292.726 303.753 293.919 303.225 295.003C302.697 296.087 301.921 297.032 300.96 297.76L217.12 381.6C216.376 382.35 215.491 382.945 214.517 383.351C213.542 383.757 212.496 383.966 211.44 383.966C210.384 383.966 209.338 383.757 208.363 383.351C207.388 382.945 206.504 382.35 205.76 381.6C204.995 380.882 204.385 380.014 203.968 379.051C203.551 378.088 203.336 377.05 203.336 376C203.336 374.95 203.551 373.912 203.968 372.949C204.385 371.986 204.995 371.118 205.76 370.4L242.88 333.28C244.412 331.754 245.275 329.682 245.28 327.52C245.293 326.471 245.086 325.431 244.673 324.466C244.259 323.502 243.649 322.634 242.88 321.92C242.162 321.155 241.294 320.545 240.331 320.128C239.368 319.711 238.33 319.496 237.28 319.496C236.23 319.496 235.192 319.711 234.229 320.128C233.266 320.545 232.398 321.155 231.68 321.92L180.64 372.8C179.157 374.295 177.984 376.068 177.188 378.017C176.391 379.967 175.988 382.054 176 384.16V448ZM77.12 317.12C78.2762 314.682 79.846 312.462 81.76 310.56C86.2804 306.104 92.3728 303.607 98.72 303.607C105.067 303.607 111.16 306.104 115.68 310.56L166.56 361.44L168 362.88L169.44 361.44L220.32 310.56C224.84 306.104 230.933 303.607 237.28 303.607C243.627 303.607 249.72 306.104 254.24 310.56C256.154 312.462 257.724 314.682 258.88 317.12L288 288.16V232C287.979 226.741 288.999 221.53 291.002 216.668C293.004 211.805 295.95 207.387 299.669 203.669C303.387 199.95 307.805 197.004 312.668 195.002C317.53 192.999 322.741 191.979 328 192C330.122 192 332.157 192.843 333.657 194.343C335.157 195.843 336 197.878 336 200V328C335.992 329.582 335.549 331.132 334.72 332.48L272 426.4V448H280C282.122 448 284.157 448.843 285.657 450.343C287.157 451.843 288 453.878 288 456C288 458.122 287.157 460.157 285.657 461.657C284.157 463.157 282.122 464 280 464H56C53.8783 464 51.8434 463.157 50.3431 461.657C48.8428 460.157 48 458.122 48 456C48 453.878 48.8428 451.843 50.3431 450.343C51.8434 448.843 53.8783 448 56 448H64V426.4L1.28 332.48C0.451132 331.132 0.00836613 329.582 0 328V296C0 293.878 0.842856 291.843 2.34315 290.343C3.84344 288.843 5.87827 288 8 288C10.1217 288 12.1566 288.843 13.6569 290.343C15.1571 291.843 16 293.878 16 296V325.6L78.72 419.52C79.5274 420.877 79.9684 422.421 80 424V448H160V384C160.012 381.894 159.609 379.807 158.812 377.857C158.016 375.908 156.843 374.135 155.36 372.64L104 321.92C103.282 321.155 102.414 320.545 101.451 320.128C100.488 319.711 99.4495 319.496 98.4 319.496C97.3504 319.496 96.312 319.711 95.3489 320.128C94.3857 320.545 93.5182 321.155 92.8 321.92C92.0314 322.634 91.4208 323.502 91.0075 324.466C90.5941 325.431 90.3872 326.471 90.4 327.52C90.4006 329.527 91.1411 331.464 92.48 332.96L129.92 370.4C130.685 371.118 131.295 371.986 131.712 372.949C132.129 373.912 132.344 374.95 132.344 376C132.344 377.05 132.129 378.088 131.712 379.051C131.295 380.014 130.685 380.882 129.92 381.6C128.693 382.757 127.12 383.477 125.442 383.651C123.765 383.824 122.078 383.441 120.64 382.56C119.957 382.284 119.353 381.845 118.88 381.28L34.72 297.6C33.8869 296.817 33.2175 295.876 32.7506 294.833C32.2836 293.789 32.0285 292.663 32 291.52V232C31.9944 225.637 29.4622 219.537 24.96 215.04C22.4512 212.5 19.3827 210.582 16 209.44V232C16 234.122 15.1571 236.157 13.6569 237.657C12.1566 239.157 10.1217 240 8 240C5.87827 240 3.84344 239.157 2.34315 237.657C0.842856 236.157 0 234.122 0 232V200C0 197.878 0.842856 195.843 2.34315 194.343C3.84344 192.843 5.87827 192 8 192C13.2588 191.979 18.4698 192.999 23.3323 195.002C28.1949 197.004 32.6129 199.95 36.3315 203.669C40.05 207.387 42.9956 211.805 44.9983 216.668C47.001 221.53 48.0212 226.741 48 232V288.16L77.12 317.12ZM56 160H24C21.8783 160 19.8434 159.157 18.3431 157.657C16.8429 156.157 16 154.122 16 152C16 149.878 16.8429 147.843 18.3431 146.343C19.8434 144.843 21.8783 144 24 144H56C58.1217 144 60.1566 144.843 61.6569 146.343C63.1572 147.843 64 149.878 64 152C64 154.122 63.1572 156.157 61.6569 157.657C60.1566 159.157 58.1217 160 56 160ZM88.8 80.8C87.7508 80.8128 86.7105 80.6059 85.7461 80.1925C84.7816 79.7792 83.9143 79.1686 83.2 78.4L60.48 56C59.7236 55.2436 59.1236 54.3456 58.7142 53.3573C58.3048 52.369 58.0941 51.3097 58.0941 50.24C58.0941 49.1703 58.3048 48.111 58.7142 47.1227C59.1236 46.1344 59.7236 45.2364 60.48 44.48C61.2364 43.7236 62.1344 43.1236 63.1227 42.7142C64.111 42.3048 65.1703 42.0941 66.24 42.0941C67.3097 42.0941 68.369 42.3048 69.3573 42.7142C70.3456 43.1236 71.2436 43.7236 72 44.48L94.4 67.2C95.1653 67.9182 95.7753 68.7857 96.1922 69.7489C96.6092 70.7121 96.8243 71.7505 96.8243 72.8C96.8243 73.8495 96.6092 74.8879 96.1922 75.8511C95.7753 76.8143 95.1653 77.6818 94.4 78.4C93.6857 79.1686 92.8184 79.7792 91.8539 80.1925C90.8895 80.6059 89.8492 80.8128 88.8 80.8ZM168 48C165.878 48 163.843 47.1571 162.343 45.6569C160.843 44.1566 160 42.1217 160 40V8C160 5.87827 160.843 3.84344 162.343 2.34315C163.843 0.842854 165.878 0 168 0C170.122 0 172.157 0.842854 173.657 2.34315C175.157 3.84344 176 5.87827 176 8V40C176 42.1217 175.157 44.1566 173.657 45.6569C172.157 47.1571 170.122 48 168 48ZM248 80.8C246.951 80.8128 245.91 80.6059 244.946 80.1925C243.982 79.7792 243.114 79.1686 242.4 78.4C241.635 77.6818 241.025 76.8143 240.608 75.8511C240.191 74.8879 239.976 73.8495 239.976 72.8C239.976 71.7505 240.191 70.7121 240.608 69.7489C241.025 68.7857 241.635 67.9182 242.4 67.2L264 44.48C264.746 43.7341 265.631 43.1424 266.606 42.7387C267.581 42.335 268.625 42.1273 269.68 42.1273C270.735 42.1273 271.779 42.335 272.754 42.7387C273.729 43.1424 274.614 43.7341 275.36 44.48C276.106 45.2259 276.698 46.1114 277.101 47.086C277.505 48.0606 277.713 49.1051 277.713 50.16C277.713 51.2149 277.505 52.2594 277.101 53.234C276.698 54.2086 276.106 55.0941 275.36 55.84L252.8 78.4C252.086 79.1686 251.218 79.7792 250.254 80.1925C249.289 80.6059 248.249 80.8128 247.2 80.8H248ZM312 160H280C277.878 160 275.843 159.157 274.343 157.657C272.843 156.157 272 154.122 272 152C272 149.878 272.843 147.843 274.343 146.343C275.843 144.843 277.878 144 280 144H312C314.122 144 316.157 144.843 317.657 146.343C319.157 147.843 320 149.878 320 152C320 154.122 319.157 156.157 317.657 157.657C316.157 159.157 314.122 160 312 160Z" fill="white"/>
<path d="M168.001 288C167.047 288.153 166.075 288.153 165.121 288L157.761 284.96C134.686 275.805 114.915 259.891 101.04 239.306C87.1639 218.721 79.8307 194.425 80.0009 169.6V120C79.9872 118.416 80.4538 116.865 81.3392 115.551C82.2246 114.237 83.4873 113.222 84.961 112.64L164.961 80.6401C166.909 79.84 169.093 79.84 171.041 80.6401L251.041 112.64C252.515 113.222 253.777 114.237 254.663 115.551C255.548 116.865 256.015 118.416 256.001 120V169.6C256.074 194.343 248.696 218.535 234.827 239.025C220.957 259.515 201.239 275.354 178.241 284.48L170.881 287.52C169.927 287.673 168.955 287.673 168.001 287.52V288ZM96.0009 125.44V169.6C95.9203 191.161 102.333 212.246 114.405 230.111C126.476 247.975 143.647 261.792 163.681 269.76L168.001 271.36L172.161 269.76C192.225 261.817 209.43 248.011 221.531 230.145C233.633 212.278 240.069 191.179 240.001 169.6V125.44L168.001 96.6401L96.0009 125.44Z" fill="white"/>
<path d="M152 208C150.95 208.013 149.91 207.806 148.946 207.393C147.981 206.979 147.114 206.369 146.4 205.6L130.4 189.6C128.914 188.115 128.08 186.101 128.08 184C128.08 181.9 128.914 179.885 130.4 178.4C131.885 176.915 133.899 176.081 136 176.081C138.1 176.081 140.114 176.915 141.6 178.4L152 188.64L194.4 146.4C195.135 145.665 196.008 145.081 196.969 144.683C197.93 144.285 198.96 144.081 200 144.081C201.04 144.081 202.07 144.285 203.03 144.683C203.991 145.081 204.864 145.665 205.6 146.4C206.335 147.136 206.918 148.009 207.316 148.969C207.714 149.93 207.919 150.96 207.919 152C207.919 153.04 207.714 154.07 207.316 155.031C206.918 155.992 206.335 156.865 205.6 157.6L157.6 205.6C156.885 206.369 156.018 206.979 155.054 207.393C154.089 207.806 153.049 208.013 152 208Z" fill="white"/>
</svg>
