<svg width="481" height="512" viewBox="0 0 481 512" fill="none" xmlns="http://www.w3.org/2000/svg">
<path d="M260.209 220.078H212.297C199.487 220.078 189.102 209.693 189.102 196.883V170.148H283.405V196.883C283.404 209.693 273.019 220.078 260.209 220.078Z" fill="#BC95E2"/>
<path d="M243.664 220.079H212.298C199.487 220.079 189.104 209.697 189.104 196.885V170.148H220.466V196.885C220.465 209.696 230.852 220.079 243.664 220.079Z" fill="#AC80DD"/>
<path d="M236.253 170.15C281.167 170.15 317.578 133.74 317.578 88.825C317.578 43.9104 281.167 7.5 236.253 7.5C191.338 7.5 154.928 43.9104 154.928 88.825C154.928 133.74 191.338 170.15 236.253 170.15Z" fill="#FFE07D"/>
<path d="M259.236 166.852C251.772 169.045 244.031 170.155 236.252 170.148C191.34 170.148 154.928 133.741 154.928 88.824C154.928 43.912 191.339 7.50003 236.252 7.50003C244.031 7.49323 251.772 8.60322 259.236 10.796C225.514 20.713 200.896 51.892 200.896 88.823C200.896 125.761 225.514 156.94 259.236 166.852Z" fill="#FFD064"/>
<path d="M283.404 147.777H189.101C180.038 147.777 172.691 155.124 172.691 164.187C172.691 173.25 180.038 180.597 189.101 180.597H283.404C292.467 180.597 299.814 173.25 299.814 164.187C299.814 155.124 292.467 147.777 283.404 147.777Z" fill="#F9F6F9"/>
<path d="M214.111 175.792C215.633 177.319 217.441 178.529 219.432 179.354C221.423 180.179 223.557 180.603 225.712 180.6H189.1C186.945 180.603 184.811 180.179 182.82 179.354C180.829 178.529 179.021 177.318 177.499 175.792C175.973 174.27 174.762 172.461 173.937 170.469C173.112 168.477 172.689 166.342 172.691 164.186C172.691 155.123 180.037 147.777 189.1 147.777H225.712C216.649 147.777 209.303 155.123 209.303 164.186C209.303 168.716 211.139 172.82 214.111 175.792Z" fill="#DDDAEC"/>
<path d="M62.3914 411.439C90.6684 411.439 113.591 388.516 113.591 360.239C113.591 331.962 90.6684 309.039 62.3914 309.039C34.1144 309.039 11.1914 331.962 11.1914 360.239C11.1914 388.516 34.1144 411.439 62.3914 411.439Z" fill="#F7E3C1"/>
<path d="M417.886 411.439C446.163 411.439 469.086 388.516 469.086 360.239C469.086 331.962 446.163 309.039 417.886 309.039C389.609 309.039 366.686 331.962 366.686 360.239C366.686 388.516 389.609 411.439 417.886 411.439Z" fill="#F7E3C1"/>
<path d="M392.243 206.238V364.342C392.243 441.75 329.492 504.5 252.085 504.5H228.2C150.792 504.5 88.0293 441.749 88.0293 364.342V206.238H392.243Z" fill="#FBF1DD"/>
<path d="M392.242 206.242V315.897C347.315 315.871 351.231 206.242 351.231 206.242H392.242Z" fill="#4A80AA"/>
<path d="M286.801 500.17C275.699 503.001 264.066 504.5 252.085 504.5H228.2C150.785 504.5 88.0293 441.743 88.0293 364.329V206.238C88.0293 206.238 181.386 206.903 180.838 206.535C180.603 206.378 181.387 206.62 181.387 206.903V364.342C181.385 429.755 226.209 484.699 286.801 500.17Z" fill="#F7E3C1"/>
<path d="M88.0312 206.25V315.905C132.958 315.879 129.042 206.25 129.042 206.25H88.0312Z" fill="#407093"/>
<path d="M402.307 44.3118L403.396 46.4558C407.236 54.0188 416.276 57.3158 424.083 54.0028L448.099 43.8118C456.701 40.1618 460.412 29.9888 456.182 21.6568L453.477 16.3288C449.246 7.99681 438.844 4.99081 430.821 9.78081L408.422 23.1558C401.138 27.5048 398.467 36.7498 402.307 44.3118ZM414.443 104.045L414.314 106.446C413.858 114.915 420.038 122.291 428.456 123.326L454.35 126.508C463.625 127.648 471.925 120.694 472.427 111.363L472.748 105.396C473.25 96.0648 465.745 88.2598 456.401 88.3978L430.315 88.7818C421.834 88.9058 414.898 95.5758 414.443 104.045ZM397.259 162.568L395.946 164.583C391.317 171.69 392.98 181.167 399.753 186.272L420.587 201.974C428.049 207.598 438.714 205.726 443.815 197.896L447.077 192.889C452.178 185.059 449.58 174.547 441.419 169.995L418.636 157.284C411.23 153.153 401.889 155.461 397.259 162.568ZM77.9629 44.3118L76.8738 46.4558C73.0338 54.0188 63.9938 57.3158 56.1868 54.0028L32.1718 43.8128C23.5698 40.1628 19.8588 29.9898 24.0888 21.6578L26.7938 16.3298C31.0248 7.99681 41.4268 4.99081 49.4498 9.78181L71.8488 23.1568C79.1308 27.5058 81.8029 36.7498 77.9629 44.3118ZM65.8268 104.045L65.9558 106.446C66.4118 114.915 60.2318 122.291 51.8138 123.326L25.9198 126.508C16.6448 127.648 8.34485 120.694 7.84285 111.363L7.52185 105.396C7.01985 96.0648 14.5248 88.2598 23.8688 88.3978L49.9548 88.7818C58.4348 88.9058 65.3708 95.5758 65.8268 104.045ZM83.0108 162.568L84.3239 164.583C88.9529 171.69 87.2899 181.167 80.5169 186.272L59.6828 201.974C52.2208 207.598 41.5558 205.726 36.4548 197.896L33.1928 192.889C28.0918 185.059 30.6898 174.547 38.8508 169.995L61.6338 157.284C69.0398 153.153 78.3808 155.461 83.0108 162.568Z" fill="#FFE07D"/>
<path d="M417.88 301.534C411.697 301.534 405.574 302.519 399.74 304.412V206.24C399.74 204.251 398.95 202.343 397.544 200.937C396.137 199.53 394.23 198.74 392.24 198.74H290.841C290.878 198.123 290.901 197.503 290.901 196.88V186.886C300.423 183.733 307.313 174.752 307.313 164.186C307.318 158.568 305.334 153.129 301.714 148.833C306.409 143.727 310.489 138.088 313.87 132.032C314.352 131.172 314.66 130.225 314.775 129.245C314.891 128.266 314.812 127.274 314.543 126.325C314.275 125.376 313.822 124.489 313.21 123.716C312.599 122.942 311.841 122.297 310.979 121.817C310.118 121.337 309.171 121.031 308.191 120.917C307.212 120.804 306.219 120.884 305.271 121.155C304.323 121.425 303.437 121.88 302.664 122.493C301.892 123.106 301.248 123.865 300.769 124.727C297.471 130.634 293.377 136.059 288.602 140.852C286.895 140.47 285.152 140.277 283.404 140.276H243.752V105.852C257.686 102.471 268.067 89.898 268.067 74.939C268.067 70.797 264.71 67.439 260.567 67.439C256.424 67.439 253.067 70.797 253.067 74.939C253.067 84.21 245.524 91.753 236.253 91.753C226.982 91.753 219.438 84.21 219.438 74.939C219.438 72.9499 218.648 71.0422 217.242 69.6357C215.835 68.2292 213.928 67.439 211.938 67.439C209.949 67.439 208.042 68.2292 206.635 69.6357C205.229 71.0422 204.438 72.9499 204.438 74.939C204.438 89.898 214.82 102.471 228.753 105.852V140.276H189.102C187.313 140.276 185.572 140.48 183.895 140.854C170.203 127.067 162.421 108.344 162.421 88.83C162.421 48.12 195.541 15 236.251 15C276.961 15 310.083 48.12 310.083 88.83C310.083 92.169 309.853 95.566 309.399 98.928C309.134 100.899 309.662 102.896 310.868 104.477C312.074 106.059 313.859 107.097 315.831 107.363C317.802 107.629 319.798 107.1 321.38 105.894C322.962 104.688 324 102.903 324.266 100.932C324.808 96.908 325.083 92.836 325.083 88.83C325.083 39.849 285.232 0 236.251 0C187.27 0 147.421 39.849 147.421 88.83C147.421 111.112 155.849 132.537 170.785 148.841C167.169 153.137 165.187 158.572 165.191 164.187C165.191 174.751 172.082 183.732 181.602 186.885V196.88C181.602 197.504 181.625 198.123 181.661 198.74H88.0315C86.0424 198.74 84.1347 199.53 82.7282 200.937C81.3217 202.343 80.5315 204.251 80.5315 206.24V304.41C74.6713 302.508 68.5487 301.537 62.3875 301.534C30.0205 301.534 3.6875 327.867 3.6875 360.234C3.6875 392.601 30.0205 418.934 62.3875 418.934C71.6395 418.934 80.5555 416.808 88.6445 412.743C95.4775 432.462 106.502 450.656 121.249 466.142C122.621 467.583 124.509 468.419 126.497 468.468C128.486 468.516 130.412 467.773 131.853 466.401C133.294 465.03 134.13 463.142 134.179 461.154C134.227 459.165 133.484 457.239 132.113 455.798C108.524 431.026 95.5315 398.546 95.5315 364.34V322.556C101.774 321.111 107.415 317.816 112.365 312.687C134.365 289.888 136.607 234.351 136.652 213.74H343.63C343.674 234.351 345.917 289.889 367.917 312.687C372.864 317.814 378.503 321.108 384.742 322.554V364.339C384.742 437.488 325.231 496.999 252.083 496.999H228.202C201.317 496.999 175.437 489.005 153.361 473.881C152.549 473.324 151.635 472.933 150.671 472.73C149.707 472.527 148.713 472.515 147.745 472.696C146.777 472.877 145.854 473.247 145.029 473.785C144.203 474.322 143.492 475.017 142.936 475.83C142.379 476.643 141.988 477.557 141.784 478.52C141.581 479.484 141.57 480.479 141.751 481.447C141.932 482.415 142.302 483.338 142.839 484.163C143.377 484.988 144.072 485.699 144.885 486.256C169.466 503.098 198.278 512 228.201 512H252.08C316.56 512 371.511 470.451 391.589 412.723C399.698 416.802 408.627 418.935 417.88 418.935C450.247 418.935 476.58 392.602 476.58 360.235C476.58 327.868 450.247 301.534 417.88 301.534ZM189.1 155.276H283.404C288.317 155.276 292.313 159.273 292.313 164.186C292.313 169.099 288.317 173.096 283.404 173.096H189.1C184.187 173.096 180.191 169.099 180.191 164.186C180.191 159.273 184.187 155.276 189.1 155.276ZM196.6 196.88V188.1H275.901V196.88C275.901 197.508 275.855 198.127 275.784 198.74H196.719C196.643 198.123 196.603 197.502 196.6 196.88ZM62.3865 403.935C38.2905 403.935 18.6865 384.331 18.6865 360.235C18.6865 336.139 38.2905 316.535 62.3865 316.535C68.648 316.542 74.8352 317.892 80.5305 320.494V347.008C76.0905 344.705 70.9855 343.233 65.2885 342.661C55.8605 341.715 47.9725 343.612 47.6415 343.693C43.6295 344.677 41.1825 348.718 42.1525 352.735C43.1225 356.751 47.1735 359.224 51.1915 358.267C52.0565 358.062 71.7885 353.556 80.5565 366.501C80.7043 377.106 81.9903 387.664 84.3925 397.994C77.7465 401.89 70.2295 403.935 62.3865 403.935ZM101.569 302.271C99.6685 304.241 97.6625 305.713 95.5305 306.729V213.74H121.671C121.657 237.784 118.196 285.041 101.569 302.271ZM378.714 302.276C362.107 285.075 358.633 237.797 358.61 213.74H384.742V306.725C382.614 305.71 380.611 304.241 378.714 302.276ZM417.88 403.935C410.05 403.935 402.532 401.888 395.87 397.988C398.279 387.664 399.567 377.11 399.714 366.51C408.465 353.571 428.165 358.049 429.081 358.266C431.01 358.728 433.043 358.407 434.736 357.373C436.429 356.339 437.644 354.676 438.113 352.749C438.583 350.821 438.27 348.786 437.243 347.089C436.216 345.392 434.559 344.171 432.633 343.693C432.303 343.611 424.415 341.714 414.987 342.661C409.288 343.233 404.182 344.706 399.742 347.01V320.497C405.435 317.894 411.621 316.542 417.881 316.535C441.978 316.535 461.581 336.139 461.581 360.235C461.581 384.331 441.976 403.935 417.88 403.935Z" fill="black"/>
<path d="M167.894 308.879C158.561 308.879 150.969 319.287 150.969 332.08C150.969 344.873 158.561 355.281 167.894 355.281C177.226 355.281 184.818 344.873 184.818 332.08C184.818 319.287 177.226 308.879 167.894 308.879ZM312.384 308.879C303.052 308.879 295.459 319.287 295.459 332.08C295.459 344.873 303.052 355.281 312.384 355.281C321.716 355.281 329.308 344.873 329.308 332.08C329.308 319.287 321.716 308.879 312.384 308.879ZM195.002 287.414C196.409 286.007 197.199 284.1 197.199 282.111C197.199 280.122 196.409 278.214 195.002 276.808C180.607 262.412 157.184 262.413 142.79 276.808C141.384 278.214 140.594 280.122 140.594 282.111C140.594 284.1 141.384 286.007 142.79 287.414C144.197 288.82 146.104 289.61 148.093 289.61C150.082 289.61 151.99 288.82 153.396 287.414C161.943 278.868 175.849 278.867 184.396 287.414C185.86 288.878 187.78 289.611 189.699 289.611C191.618 289.611 193.537 288.878 195.002 287.414ZM338.949 287.414C340.356 286.007 341.146 284.1 341.146 282.111C341.146 280.122 340.356 278.214 338.949 276.808C331.975 269.835 322.704 265.995 312.843 265.995C302.981 265.995 293.709 269.835 286.737 276.808C285.689 277.857 284.974 279.193 284.685 280.648C284.396 282.103 284.544 283.611 285.112 284.981C285.68 286.352 286.641 287.523 287.875 288.347C289.108 289.171 290.558 289.611 292.041 289.611C293.027 289.612 294.002 289.419 294.913 289.041C295.823 288.664 296.65 288.111 297.345 287.414C299.376 285.372 301.791 283.753 304.452 282.651C307.112 281.549 309.965 280.986 312.844 280.994C318.698 280.994 324.203 283.274 328.343 287.414C329.75 288.82 331.658 289.61 333.646 289.61C335.635 289.61 337.543 288.82 338.949 287.414ZM240.138 404.395C257.096 404.395 272.304 393.065 277.12 376.843C277.409 375.896 277.507 374.902 277.41 373.918C277.312 372.933 277.021 371.977 276.552 371.106C276.084 370.234 275.448 369.464 274.68 368.839C273.913 368.215 273.03 367.748 272.081 367.467C271.133 367.185 270.138 367.094 269.154 367.198C268.17 367.303 267.217 367.601 266.349 368.076C265.48 368.55 264.715 369.192 264.096 369.964C263.477 370.736 263.016 371.622 262.741 372.573C259.8 382.477 250.505 389.395 240.137 389.395C229.782 389.395 220.486 382.474 217.532 372.565C217.251 371.621 216.786 370.742 216.165 369.977C215.544 369.213 214.778 368.579 213.912 368.11C213.045 367.642 212.095 367.349 211.115 367.248C210.135 367.146 209.145 367.239 208.201 367.521C207.258 367.802 206.378 368.267 205.614 368.888C204.85 369.509 204.215 370.275 203.747 371.142C202.801 372.891 202.589 374.945 203.157 376.852C207.994 393.068 223.201 404.395 240.138 404.395ZM396.704 49.8567C400.84 58.0017 409.175 62.7797 417.838 62.7797C420.91 62.7797 424.026 62.1777 427.008 60.9127L451.024 50.7217C457.03 48.1727 461.757 43.1957 463.994 37.0667C466.231 30.9377 465.819 24.0857 462.865 18.2667L460.16 12.9397C458.69 10.0537 456.644 7.49949 454.148 5.43476C451.652 3.37003 448.76 1.83852 445.649 0.934703C442.536 0.0397386 439.273 -0.207876 436.061 0.207136C432.848 0.622148 429.755 1.69098 426.971 3.3477L404.571 16.7227C393.948 23.0677 390.014 36.6797 395.616 47.7127L396.704 49.8567ZM412.261 29.6017L434.66 16.2267C435.675 15.6157 436.805 15.2219 437.979 15.0701C439.154 14.9183 440.347 15.0118 441.483 15.3447C442.623 15.6686 443.682 16.2257 444.595 16.9807C445.507 17.7358 446.253 18.6722 446.784 19.7307L449.489 25.0587C450.03 26.1125 450.346 27.2671 450.417 28.4494C450.488 29.6317 450.312 30.8158 449.901 31.9267C449.501 33.041 448.872 34.0598 448.057 34.9184C447.242 35.7771 446.257 36.4569 445.164 36.9147L421.148 47.1057C416.986 48.8717 412.125 47.0967 410.079 43.0667L408.99 40.9217C406.943 36.8917 408.381 31.9187 412.261 29.6017ZM430.204 81.2867C417.831 81.4687 407.617 91.2907 406.952 103.647V103.648L406.823 106.048C406.158 118.404 415.258 129.266 427.539 130.775L453.434 133.957C454.387 134.074 455.34 134.132 456.292 134.132C461.849 134.13 467.228 132.178 471.492 128.617C473.972 126.533 475.999 123.963 477.448 121.066C478.896 118.168 479.736 115.005 479.915 111.771L480.236 105.804C480.406 102.569 479.911 99.3344 478.782 96.2986C477.653 93.2628 475.914 90.4905 473.672 88.1527C469.149 83.4507 462.814 80.7947 456.289 80.9037L430.204 81.2867ZM462.859 98.5497C463.684 99.3996 464.323 100.412 464.736 101.522C465.149 102.632 465.326 103.815 465.257 104.998L464.936 110.964C464.806 113.38 463.713 115.565 461.859 117.118C460.005 118.671 457.661 119.363 455.263 119.069L429.367 115.887C424.882 115.336 421.557 111.368 421.801 106.853L421.93 104.452C422.173 99.9387 425.905 96.3517 430.424 96.2847L456.509 95.9007C458.916 95.8897 461.183 96.8067 462.859 98.5497ZM395.231 192.256L416.065 207.959C418.655 209.904 421.616 211.299 424.766 212.056C427.915 212.814 431.186 212.918 434.377 212.363C437.567 211.798 440.606 210.586 443.309 208.801C446.012 207.016 448.32 204.697 450.092 201.986L453.354 196.979C456.916 191.512 458.06 184.744 456.495 178.41C454.93 172.076 450.764 166.62 445.066 163.441L422.284 150.731C411.477 144.703 397.721 148.102 390.968 158.47L389.656 160.484C382.899 170.853 385.35 184.809 395.231 192.256ZM402.223 168.671L403.535 166.656C406.003 162.869 411.028 161.628 414.974 163.83L437.756 176.54C439.868 177.718 441.352 179.66 441.932 182.008C442.512 184.356 442.105 186.765 440.785 188.791L437.523 193.798C436.881 194.793 436.04 195.644 435.051 196.296C434.063 196.949 432.95 197.389 431.782 197.589C430.617 197.799 429.421 197.764 428.269 197.487C427.118 197.21 426.037 196.697 425.094 195.98L404.26 180.277C400.65 177.557 399.755 172.46 402.223 168.671ZM29.2444 50.7217L53.2594 60.9117C56.1597 62.1448 59.2789 62.7802 62.4304 62.7797C71.0934 62.7797 79.4294 58.0007 83.5644 49.8567L84.6534 47.7117C90.2554 36.6787 86.3204 23.0657 75.6964 16.7217L53.2974 3.3477C50.5142 1.69118 47.421 0.622449 44.2088 0.20744C40.9965 -0.20757 37.7333 0.0399403 34.6204 0.934703C31.51 1.83836 28.6178 3.36969 26.122 5.43425C23.6263 7.4988 21.58 10.0528 20.1094 12.9387L17.4034 18.2677C14.4494 24.0857 14.0384 30.9377 16.2744 37.0667C18.5104 43.1957 23.2384 48.1727 29.2444 50.7217ZM30.7784 25.0587L33.4844 19.7307C34.016 18.6723 34.7618 17.736 35.6743 16.981C36.5868 16.2259 37.6462 15.6688 38.7854 15.3447C39.9217 15.0117 41.1147 14.9182 42.289 15.07C43.4632 15.2218 44.5932 15.6157 45.6074 16.2267L68.0064 29.6017C71.8874 31.9187 73.3244 36.8917 71.2784 40.9217L70.1894 43.0667C68.1444 47.0967 63.2824 48.8717 59.1194 47.1047L35.1034 36.9137C32.8774 35.9697 31.1944 34.1977 30.3654 31.9257C29.5364 29.6537 29.6834 27.2147 30.7784 25.0587ZM23.9764 134.132C24.9284 134.132 25.8824 134.074 26.8344 133.957L52.7274 130.775C65.0094 129.266 74.1094 118.405 73.4444 106.048L73.3154 103.647C72.6504 91.2907 62.4384 81.4687 50.0644 81.2867L23.9784 80.9027C20.7395 80.8593 17.5261 81.4803 14.5365 82.7272C11.5469 83.9742 8.84459 85.8207 6.59643 88.1527C4.35488 90.4906 2.61602 93.2629 1.48709 96.2987C0.358163 99.3344 -0.136901 102.569 0.0324312 105.804L0.353431 111.77C0.532338 115.004 1.37183 118.167 2.82013 121.064C4.26844 123.961 6.29485 126.531 8.77443 128.615C13.0393 132.177 18.4194 134.13 23.9764 134.132ZM17.4084 98.5497C18.2102 97.7087 19.175 97.04 20.2439 96.5845C21.3129 96.129 22.4635 95.8964 23.6254 95.9007L23.7574 95.9017L49.8434 96.2857C54.3634 96.3527 58.0934 99.9397 58.3364 104.454L58.4654 106.855C58.7084 111.369 55.3844 115.336 50.8974 115.887L25.0044 119.069C23.8296 119.218 22.6365 119.122 21.5009 118.786C20.3652 118.45 19.3118 117.881 18.4074 117.117C17.4963 116.36 16.7524 115.423 16.2229 114.363C15.6934 113.304 15.3898 112.146 15.3314 110.964L15.0104 104.997C14.9415 103.815 15.1191 102.631 15.5319 101.521C15.9447 100.411 16.5837 99.3994 17.4084 98.5497ZM57.9854 150.731L35.2014 163.441C29.5044 166.62 25.3384 172.076 23.7734 178.41C22.2084 184.744 23.3534 191.512 26.9144 196.978L30.1764 201.985C31.9483 204.696 34.2569 207.016 36.9599 208.801C39.6629 210.585 42.7029 211.797 45.8924 212.362C47.2404 212.599 48.5974 212.715 49.9514 212.715C55.092 212.715 60.0934 211.045 64.2034 207.958L85.0374 192.255C94.9194 184.807 97.3694 170.852 90.6144 160.483L89.3024 158.468C82.5474 148.102 68.7934 144.702 57.9854 150.731ZM76.0084 180.278L55.1744 195.981C54.2318 196.698 53.1505 197.211 51.999 197.488C50.8475 197.765 49.651 197.8 48.4854 197.59C47.3182 197.39 46.2053 196.95 45.2172 196.297C44.229 195.645 43.3873 194.794 42.7454 193.799L39.4834 188.792C38.1634 186.766 37.7554 184.356 38.3364 182.009C38.9174 179.662 40.3994 177.719 42.5104 176.541L65.2944 163.831C66.5732 163.116 68.0137 162.742 69.4784 162.743C72.3144 162.743 75.0904 164.137 76.7334 166.658L78.0454 168.673C80.5134 172.46 79.6184 177.557 76.0084 180.278Z" fill="black"/>
</svg>
