<svg width="471" height="513" viewBox="0 0 471 513" fill="none" xmlns="http://www.w3.org/2000/svg">
<path d="M158.715 215.263L102.527 312.583C97.3256 321.591 85.8916 325.219 76.7046 320.341C67.0596 315.22 63.6576 303.174 69.0716 293.798L132.632 183.71C138.644 173.295 147.648 164.927 158.476 159.693L167.503 155.328M214.249 143.845C241.761 143.845 267.408 121.857 267.408 70.267C267.408 33.473 243.608 8 214.249 8C184.89 8 161.09 33.473 161.09 70.267C161.09 121.856 186.737 143.845 214.249 143.845Z" stroke="white" stroke-width="15" stroke-miterlimit="10" stroke-linecap="round" stroke-linejoin="round"/>
<path d="M36.5731 117.121L19.2641 108.818C9.88614 104.319 5.39614 93.1953 9.55914 83.6633C13.9291 73.6563 25.6811 69.3453 35.4431 74.0283L150.057 129.008C150.057 129.008 168.357 122.204 181.849 131.193M273.034 246.701C270.468 220.325 267.691 196.643 267.691 196.643H412.157C422.559 196.643 431.417 188.555 431.787 178.16C432.175 167.247 423.443 158.278 412.617 158.278H305.425C305.425 158.278 291.237 140.873 264.323 140.873H231.084M169.627 458.954C171.503 467.364 172.737 472.162 172.737 472.162L159.964 488.944C154.953 495.527 159.648 505.001 167.921 505.001H214.249V350.834C214.249 343.431 223.836 340.505 227.97 346.645L329.133 496.898C341.258 514.907 368.844 499.151 359.491 479.558L277.29 307.349C277.29 299.508 276.58 287.745 275.547 274.772M163.737 430.004C157.835 398.136 151.206 352.328 151.206 307.349C151.206 278.514 160.805 196.643 160.805 196.643L144.639 168.96L66.4981 131.476" stroke="white" stroke-width="15" stroke-miterlimit="10" stroke-linecap="round" stroke-linejoin="round"/>
<path d="M268.554 456.386L244.247 480.693L268.554 505M398.247 456.386L422.554 480.693L398.247 505M254.247 480.693H413.39M408.441 81.3362L432.748 105.643L408.441 129.95M343.236 105.643H423.584M61.2107 233.62C30.9737 167.864 30.9737 91.6212 61.2127 25.8662" stroke="white" stroke-width="15" stroke-miterlimit="10" stroke-linecap="round" stroke-linejoin="round"/>
<path d="M76.3572 204.05L63.0702 235.753L31.3672 222.466M76.3572 54.2665L63.0702 22.5635L31.3672 35.8505M462.748 53.7645V274.772" stroke="white" stroke-width="15" stroke-miterlimit="10" stroke-linecap="round" stroke-linejoin="round"/>
</svg>
