<svg width="512" height="508" viewBox="0 0 512 508" fill="none" xmlns="http://www.w3.org/2000/svg">
<path d="M281.653 188.559C329.911 175.641 362.939 138.801 362.939 96.691C362.939 70.434 350.329 45.887 327.435 27.578C305.2 9.793 275.767 0 244.56 0C213.349 0 183.915 9.793 161.68 27.578C138.79 45.887 126.18 70.434 126.18 96.691C126.18 120.531 136.845 143.414 156.208 161.117C173.634 177.051 197.044 187.809 222.614 191.719C235.259 215.438 251.11 232.242 269.782 241.711C276.802 245.27 285.196 239.383 284.294 231.601C284.271 231.387 282.056 212.071 281.654 188.559H281.653ZM269.536 170.797C267.273 171.261 265.24 172.49 263.778 174.278C262.317 176.066 261.517 178.304 261.513 180.613C261.493 192.293 261.958 203.293 262.517 212.238C253.376 203.723 245.212 192.273 238.134 178.004C237.389 176.502 236.28 175.21 234.908 174.247C233.535 173.285 231.943 172.681 230.278 172.492C182.38 167.032 146.258 134.445 146.258 96.692C146.258 54.445 190.356 20.078 244.56 20.078C298.764 20.078 342.856 54.445 342.856 96.691C342.86 131.469 312.708 161.941 269.536 170.797Z" fill="black"/>
<path d="M281.653 188.559C329.911 175.641 362.939 138.801 362.939 96.691C362.939 70.434 350.329 45.887 327.435 27.578C305.2 9.793 275.767 0 244.56 0C213.349 0 183.915 9.793 161.68 27.578C138.79 45.887 126.18 70.434 126.18 96.691C126.18 120.531 136.845 143.414 156.208 161.117C173.634 177.051 197.044 187.809 222.614 191.719C235.259 215.438 251.11 232.242 269.782 241.711C276.802 245.27 285.196 239.383 284.294 231.601C284.271 231.387 282.056 212.071 281.654 188.559H281.653ZM269.536 170.797C267.273 171.261 265.24 172.49 263.778 174.278C262.317 176.066 261.517 178.304 261.513 180.613C261.493 192.293 261.958 203.293 262.517 212.238C253.376 203.723 245.212 192.273 238.134 178.004C237.389 176.502 236.28 175.21 234.908 174.247C233.535 173.285 231.943 172.681 230.278 172.492C182.38 167.032 146.258 134.445 146.258 96.692C146.258 54.445 190.356 20.078 244.56 20.078C298.764 20.078 342.856 54.445 342.856 96.691C342.86 131.469 312.708 161.941 269.536 170.797Z" fill="white"/>
<path d="M253.852 89.996C252.301 86.238 248.52 83.773 244.465 83.805C240.25 83.835 236.441 86.633 235.078 90.609C233.703 94.625 235.102 99.223 238.473 101.797C241.789 104.328 246.43 104.539 249.961 102.309C254.023 99.739 255.687 94.441 253.851 89.996H253.852ZM224.234 85.488C220.801 83.218 216.23 83.285 212.864 85.648C209.422 88.063 207.855 92.563 209.016 96.594C210.18 100.633 213.84 103.582 218.031 103.852C222.277 104.122 226.297 101.594 227.93 97.676C229.742 93.336 228.176 88.094 224.234 85.488ZM276.07 85.488C272.629 83.218 268.066 83.289 264.7 85.648C261.25 88.063 259.695 92.558 260.855 96.594C262.012 100.633 265.672 103.582 269.863 103.852C274.102 104.122 278.145 101.594 279.773 97.676C281.578 93.336 280.008 88.09 276.07 85.488ZM211.23 366.129C220.645 347.875 222.383 327.047 216.133 307.484L199.371 255.027C194.89 240.973 186.448 228.511 175.059 219.137C154.766 202.418 127.727 197.203 102.727 205.191C83.164 211.445 67.207 224.937 57.793 243.191C48.383 261.449 46.641 282.273 52.891 301.836L69.656 354.296C72.26 362.464 76.2188 370.137 81.367 376.992L79.847 381.551C33.255 395.227 0 443.059 0 497.684C0 503.227 4.496 507.723 10.04 507.723H203.96C209.508 507.723 214 503.227 214 497.683C214 459.785 198.152 424.625 171.777 402.129C188.832 395.242 202.715 382.645 211.23 366.129ZM75.637 252.395C82.594 238.91 94.383 228.937 108.836 224.316C114.536 222.496 120.375 221.606 126.172 221.606C136.472 221.606 146.625 224.422 155.562 229.852C149.551 240.102 142.532 249.766 134.25 258.301C125.906 266.895 115.965 274.207 104.71 278.465C101.45 279.699 98.121 280.434 94.766 281.328C93.3915 281.699 92.1112 282.358 91.009 283.259C89.9069 284.16 89.0078 285.285 88.371 286.558C87.7157 287.879 87.3599 289.328 87.3287 290.802C87.2976 292.276 87.592 293.739 88.191 295.086C88.231 295.172 88.254 295.258 88.293 295.344C88.758 296.324 89.309 297.605 89.887 299.105C92.887 306.953 96.801 321.441 92.832 330.937C91.438 334.27 88.898 336.914 85.719 338.605L72.016 295.723C67.398 281.27 68.685 265.883 75.637 252.395ZM139.578 407.707L136.312 417.5C136.074 418.21 135.805 418.906 135.504 419.582C133.394 424.305 129.75 428.125 125.063 430.469C122.431 431.794 119.561 432.583 116.622 432.792C113.682 433.001 110.73 432.624 107.937 431.684C102.254 429.789 97.645 425.793 94.969 420.434C93.6443 417.802 92.8548 414.933 92.6462 411.993C92.4377 409.054 92.8142 406.102 93.754 403.309L97.277 392.746C97.336 392.789 97.398 392.828 97.457 392.875C98.109 393.348 98.766 393.809 99.43 394.262C99.516 394.32 99.602 394.382 99.687 394.442C111.395 402.379 125.199 407.07 139.578 407.707ZM193.488 487.645H20.52C23.71 451.328 44.031 419.961 72.762 405.77C71.863 413.852 73.375 422.14 77.008 429.41C82.086 439.566 90.813 447.14 101.586 450.73C112.226 454.281 124.004 453.441 134.039 448.43C144.195 443.352 151.769 434.625 155.359 423.855L157.789 416.57C177.992 433.29 190.999 459.09 193.488 487.645ZM160.188 385.004C140.316 391.352 117.93 385.957 103.043 371.367C98.9078 367.31 95.4217 362.641 92.707 357.523C100.648 353.914 107.242 347.753 110.883 339.777C116.539 327.387 114.801 312.934 111.973 302.191C111.633 300.902 111.133 299.652 110.809 298.367C110.778 298.25 110.765 298.128 110.769 298.007C110.551 297.703 110.641 297.547 111.035 297.543C111.309 297.336 111.828 297.25 112.145 297.125C115.784 295.708 119.331 294.066 122.766 292.207C127.703 289.543 132.375 286.375 136.789 282.922C145.711 275.945 153.531 267.578 160.41 258.602C164.148 253.712 167.631 248.634 170.848 243.387C175.012 248.696 178.194 254.708 180.242 261.137L197.008 313.594C206.543 343.434 190.023 375.469 160.188 385.004ZM479.629 409.773C484.562 401.156 487.227 391.324 487.227 381.328C487.227 357.27 472.422 336.363 450.75 327.996L459.11 301.836C472.016 261.453 449.66 218.098 409.273 205.191C389.711 198.937 368.887 200.68 350.633 210.094C332.379 219.508 318.883 235.464 312.629 255.027L295.867 307.484C289.617 327.047 291.355 347.875 300.77 366.129C309.02 382.133 322.305 394.477 338.64 401.492C313.008 424.156 298 458.504 298 495.692C298 501.234 302.496 505.73 308.04 505.73H391.945C397.492 505.73 401.985 501.234 401.985 495.691C401.985 490.148 397.492 485.652 391.945 485.652H318.508C320.652 460.719 330.734 437.98 346.824 421.398C352.133 435.711 364.301 446.922 378.996 451.043C383.211 452.224 387.568 452.823 391.946 452.824C418.469 452.824 440.046 431.246 440.046 404.723C440.047 404.55 440.042 404.376 440.031 404.203C444.75 406.604 449.233 409.443 453.421 412.683C455.592 414.366 457.686 416.147 459.695 418.02C477.34 434.516 489.117 458.715 491.485 485.652H472.238C466.695 485.652 462.199 490.148 462.199 495.692C462.199 501.234 466.695 505.73 472.239 505.73H501.961C507.504 505.73 512 501.234 512 495.691C512 462.481 499.715 431.809 479.629 409.773ZM444.625 347.168C458.063 352.875 467.148 366.137 467.148 381.328C467.148 386.359 466.168 391.211 464.27 395.711C459.392 392.066 454.204 388.854 448.766 386.113C444.777 384.102 440.652 382.422 436.449 380.922C435.453 380.566 434.441 380.27 433.437 379.949C432.812 379.754 432.121 379.723 431.801 379.179C431.371 378.453 431.199 377.434 430.921 376.637C435.921 369.887 439.758 362.395 442.348 354.293L444.625 347.168ZM359.832 227.938C373.32 220.984 388.707 219.699 403.164 224.316C417.617 228.937 429.406 238.91 436.364 252.395C443.316 265.883 444.602 281.273 439.984 295.727C439.633 296.828 439.426 298.227 438.864 299.23C438.804 299.336 438.813 299.45 438.734 299.52C438.383 299.84 437.016 299.844 436.535 299.922C435.184 300.141 433.825 300.309 432.461 300.43C426.851 300.922 421.164 300.422 415.793 298.695C412.853 297.749 410.029 296.475 407.375 294.895C383.156 280.512 374.742 243.855 374.665 243.504C373.254 237.074 365.789 233.652 360.012 236.871C357.754 238.129 355.961 240.309 353.961 241.934C351.543 243.898 348.981 245.704 346.27 247.234C343.137 249 339.723 250.454 336.14 250.938C341.523 241.148 349.684 233.176 359.832 227.938ZM314.992 313.598L328.656 270.844C339.57 272.527 350.574 268.543 359.676 262.734C359.856 263.207 360.039 263.68 360.223 264.152C365.27 277.098 374.473 294.942 389.805 307.105C399.148 314.52 410.395 319.281 422.297 320.41C425.531 320.715 428.793 320.77 432.035 320.594C430.844 324.324 426.25 338.695 425.148 342.152C423.668 346.777 422.273 351.398 420.164 355.789C418.043 360.199 415.289 364.339 412.086 368.039C401.402 380.367 385.746 387.637 369.289 387.699C363.359 387.71 357.464 386.801 351.813 385.004C321.977 375.469 305.457 343.434 314.993 313.598H314.992ZM391.945 432.746C381.066 432.746 370.925 426.184 366.43 416.286C365.18 413.543 364.383 410.615 364.07 407.617C366.82 407.805 369.59 407.828 372.344 407.711C387.827 407.087 402.755 401.779 415.156 392.488L419.926 406.285C419.109 421.012 406.871 432.746 391.946 432.746H391.945Z" fill="black"/>
<path d="M253.852 89.996C252.301 86.238 248.52 83.773 244.465 83.805C240.25 83.835 236.441 86.633 235.078 90.609C233.703 94.625 235.102 99.223 238.473 101.797C241.789 104.328 246.43 104.539 249.961 102.309C254.023 99.739 255.687 94.441 253.851 89.996H253.852ZM224.234 85.488C220.801 83.218 216.23 83.285 212.864 85.648C209.422 88.063 207.855 92.563 209.016 96.594C210.18 100.633 213.84 103.582 218.031 103.852C222.277 104.122 226.297 101.594 227.93 97.676C229.742 93.336 228.176 88.094 224.234 85.488ZM276.07 85.488C272.629 83.218 268.066 83.289 264.7 85.648C261.25 88.063 259.695 92.558 260.855 96.594C262.012 100.633 265.672 103.582 269.863 103.852C274.102 104.122 278.145 101.594 279.773 97.676C281.578 93.336 280.008 88.09 276.07 85.488ZM211.23 366.129C220.645 347.875 222.383 327.047 216.133 307.484L199.371 255.027C194.89 240.973 186.448 228.511 175.059 219.137C154.766 202.418 127.727 197.203 102.727 205.191C83.164 211.445 67.207 224.937 57.793 243.191C48.383 261.449 46.641 282.273 52.891 301.836L69.656 354.296C72.26 362.464 76.2188 370.137 81.367 376.992L79.847 381.551C33.255 395.227 0 443.059 0 497.684C0 503.227 4.496 507.723 10.04 507.723H203.96C209.508 507.723 214 503.227 214 497.683C214 459.785 198.152 424.625 171.777 402.129C188.832 395.242 202.715 382.645 211.23 366.129ZM75.637 252.395C82.594 238.91 94.383 228.937 108.836 224.316C114.536 222.496 120.375 221.606 126.172 221.606C136.472 221.606 146.625 224.422 155.562 229.852C149.551 240.102 142.532 249.766 134.25 258.301C125.906 266.895 115.965 274.207 104.71 278.465C101.45 279.699 98.121 280.434 94.766 281.328C93.3915 281.699 92.1112 282.358 91.009 283.259C89.9069 284.16 89.0078 285.285 88.371 286.558C87.7157 287.879 87.3599 289.328 87.3287 290.802C87.2976 292.276 87.592 293.739 88.191 295.086C88.231 295.172 88.254 295.258 88.293 295.344C88.758 296.324 89.309 297.605 89.887 299.105C92.887 306.953 96.801 321.441 92.832 330.937C91.438 334.27 88.898 336.914 85.719 338.605L72.016 295.723C67.398 281.27 68.685 265.883 75.637 252.395ZM139.578 407.707L136.312 417.5C136.074 418.21 135.805 418.906 135.504 419.582C133.394 424.305 129.75 428.125 125.063 430.469C122.431 431.794 119.561 432.583 116.622 432.792C113.682 433.001 110.73 432.624 107.937 431.684C102.254 429.789 97.645 425.793 94.969 420.434C93.6443 417.802 92.8548 414.933 92.6462 411.993C92.4377 409.054 92.8142 406.102 93.754 403.309L97.277 392.746C97.336 392.789 97.398 392.828 97.457 392.875C98.109 393.348 98.766 393.809 99.43 394.262C99.516 394.32 99.602 394.382 99.687 394.442C111.395 402.379 125.199 407.07 139.578 407.707ZM193.488 487.645H20.52C23.71 451.328 44.031 419.961 72.762 405.77C71.863 413.852 73.375 422.14 77.008 429.41C82.086 439.566 90.813 447.14 101.586 450.73C112.226 454.281 124.004 453.441 134.039 448.43C144.195 443.352 151.769 434.625 155.359 423.855L157.789 416.57C177.992 433.29 190.999 459.09 193.488 487.645ZM160.188 385.004C140.316 391.352 117.93 385.957 103.043 371.367C98.9078 367.31 95.4217 362.641 92.707 357.523C100.648 353.914 107.242 347.753 110.883 339.777C116.539 327.387 114.801 312.934 111.973 302.191C111.633 300.902 111.133 299.652 110.809 298.367C110.778 298.25 110.765 298.128 110.769 298.007C110.551 297.703 110.641 297.547 111.035 297.543C111.309 297.336 111.828 297.25 112.145 297.125C115.784 295.708 119.331 294.066 122.766 292.207C127.703 289.543 132.375 286.375 136.789 282.922C145.711 275.945 153.531 267.578 160.41 258.602C164.148 253.712 167.631 248.634 170.848 243.387C175.012 248.696 178.194 254.708 180.242 261.137L197.008 313.594C206.543 343.434 190.023 375.469 160.188 385.004ZM479.629 409.773C484.562 401.156 487.227 391.324 487.227 381.328C487.227 357.27 472.422 336.363 450.75 327.996L459.11 301.836C472.016 261.453 449.66 218.098 409.273 205.191C389.711 198.937 368.887 200.68 350.633 210.094C332.379 219.508 318.883 235.464 312.629 255.027L295.867 307.484C289.617 327.047 291.355 347.875 300.77 366.129C309.02 382.133 322.305 394.477 338.64 401.492C313.008 424.156 298 458.504 298 495.692C298 501.234 302.496 505.73 308.04 505.73H391.945C397.492 505.73 401.985 501.234 401.985 495.691C401.985 490.148 397.492 485.652 391.945 485.652H318.508C320.652 460.719 330.734 437.98 346.824 421.398C352.133 435.711 364.301 446.922 378.996 451.043C383.211 452.224 387.568 452.823 391.946 452.824C418.469 452.824 440.046 431.246 440.046 404.723C440.047 404.55 440.042 404.376 440.031 404.203C444.75 406.604 449.233 409.443 453.421 412.683C455.592 414.366 457.686 416.147 459.695 418.02C477.34 434.516 489.117 458.715 491.485 485.652H472.238C466.695 485.652 462.199 490.148 462.199 495.692C462.199 501.234 466.695 505.73 472.239 505.73H501.961C507.504 505.73 512 501.234 512 495.691C512 462.481 499.715 431.809 479.629 409.773ZM444.625 347.168C458.063 352.875 467.148 366.137 467.148 381.328C467.148 386.359 466.168 391.211 464.27 395.711C459.392 392.066 454.204 388.854 448.766 386.113C444.777 384.102 440.652 382.422 436.449 380.922C435.453 380.566 434.441 380.27 433.437 379.949C432.812 379.754 432.121 379.723 431.801 379.179C431.371 378.453 431.199 377.434 430.921 376.637C435.921 369.887 439.758 362.395 442.348 354.293L444.625 347.168ZM359.832 227.938C373.32 220.984 388.707 219.699 403.164 224.316C417.617 228.937 429.406 238.91 436.364 252.395C443.316 265.883 444.602 281.273 439.984 295.727C439.633 296.828 439.426 298.227 438.864 299.23C438.804 299.336 438.813 299.45 438.734 299.52C438.383 299.84 437.016 299.844 436.535 299.922C435.184 300.141 433.825 300.309 432.461 300.43C426.851 300.922 421.164 300.422 415.793 298.695C412.853 297.749 410.029 296.475 407.375 294.895C383.156 280.512 374.742 243.855 374.665 243.504C373.254 237.074 365.789 233.652 360.012 236.871C357.754 238.129 355.961 240.309 353.961 241.934C351.543 243.898 348.981 245.704 346.27 247.234C343.137 249 339.723 250.454 336.14 250.938C341.523 241.148 349.684 233.176 359.832 227.938ZM314.992 313.598L328.656 270.844C339.57 272.527 350.574 268.543 359.676 262.734C359.856 263.207 360.039 263.68 360.223 264.152C365.27 277.098 374.473 294.942 389.805 307.105C399.148 314.52 410.395 319.281 422.297 320.41C425.531 320.715 428.793 320.77 432.035 320.594C430.844 324.324 426.25 338.695 425.148 342.152C423.668 346.777 422.273 351.398 420.164 355.789C418.043 360.199 415.289 364.339 412.086 368.039C401.402 380.367 385.746 387.637 369.289 387.699C363.359 387.71 357.464 386.801 351.813 385.004C321.977 375.469 305.457 343.434 314.993 313.598H314.992ZM391.945 432.746C381.066 432.746 370.925 426.184 366.43 416.286C365.18 413.543 364.383 410.615 364.07 407.617C366.82 407.805 369.59 407.828 372.344 407.711C387.827 407.087 402.755 401.779 415.156 392.488L419.926 406.285C419.109 421.012 406.871 432.746 391.946 432.746H391.945Z" fill="white"/>
<path d="M437.649 487.34C434.024 484.906 429.083 485.156 425.708 487.934C422.606 490.484 421.31 494.758 422.481 498.602C423.72 502.672 427.497 505.574 431.751 505.727C435.939 505.871 439.88 503.262 441.415 499.375C443.134 495.02 441.532 489.941 437.649 487.34Z" fill="black"/>
<path d="M437.649 487.34C434.024 484.906 429.083 485.156 425.708 487.934C422.606 490.484 421.31 494.758 422.481 498.602C423.72 502.672 427.497 505.574 431.751 505.727C435.939 505.871 439.88 503.262 441.415 499.375C443.134 495.02 441.532 489.941 437.649 487.34Z" fill="white"/>
</svg>
