<svg width="496" height="496" viewBox="0 0 496 496" fill="none" xmlns="http://www.w3.org/2000/svg">
<path d="M24 384H216C229.2 384 240 373.2 240 360V24C240 10.8 229.2 0 216 0H24C10.8 0 0 10.8 0 24V360C0 373.2 10.8 384 24 384ZM16 24C16 19.6 19.6 16 24 16H216C220.4 16 224 19.6 224 24V32H16V24ZM16 48H224V336H16V48ZM16 352H224V360C224 364.4 220.4 368 216 368H24C19.6 368 16 364.4 16 360V352Z" fill="white"/>
<path d="M140.4 216.48C144.023 213.511 146.943 209.775 148.949 205.542C150.954 201.309 151.997 196.684 152 192C152 177.12 141.76 164.72 128 161.12V128H148C152.4 128 156 124.4 156 120V80C156 75.6 152.4 72 148 72H92C87.6 72 84 75.6 84 80V120C84 124.4 87.6 128 92 128H112V161.12C98.24 164.72 88 177.12 88 192C88 201.84 92.56 210.56 99.6 216.48C84.08 218.64 72 231.92 72 248V304C72 308.4 75.6 312 80 312H160C164.4 312 168 308.4 168 304V248C168 231.84 155.92 218.64 140.4 216.48ZM100 112V88H140V112H100ZM120 176C128.8 176 136 183.2 136 192C136 200.8 128.8 208 120 208C111.2 208 104 200.8 104 192C104 183.2 111.2 176 120 176ZM152 296H88V248C88 239.2 95.2 232 104 232H136C144.8 232 152 239.2 152 248V296ZM456 376H455.76C460.788 372.314 464.878 367.497 467.699 361.938C470.52 356.379 471.994 350.234 472 344C472 324.72 458.24 308.56 440 304.8V264H464C468.4 264 472 260.4 472 256V208C472 203.6 468.4 200 464 200H400C395.6 200 392 203.6 392 208V256C392 260.4 395.6 264 400 264H424V304.8C414.965 306.644 406.845 311.553 401.014 318.697C395.182 325.84 391.998 334.779 392 344C392 357.12 398.48 368.72 408.24 376H408C385.92 376 368 393.92 368 416V488C368 492.4 371.6 496 376 496H488C492.4 496 496 492.4 496 488V416C496 393.92 478.08 376 456 376ZM408 248V216H456V248H408ZM408 344C408 330.8 418.8 320 432 320C445.2 320 456 330.8 456 344C456 357.2 445.2 368 432 368C418.8 368 408 357.2 408 344ZM480 480H384V416C384 402.8 394.8 392 408 392H456C469.2 392 480 402.8 480 416V480ZM326.4 467.64L330.44 452.152L346.472 456.336L342.424 471.824L326.4 467.64ZM158.024 423.52L162.056 408.032L314.144 447.632L310.112 463.12L158.024 423.52Z" fill="white"/>
</svg>
