<svg width="471" height="513" viewBox="0 0 471 513" fill="none" xmlns="http://www.w3.org/2000/svg">
<path d="M129.952 8H427.562C434.472 8 440.082 13.6 440.082 20.51V50.62M440.082 85.62V115.65C440.082 122.56 434.472 128.16 427.562 128.16H397.862C396.862 128.16 395.922 128.66 395.372 129.5L378.752 154.42C377.562 156.2 374.952 156.2 373.762 154.42L357.142 129.5C356.871 129.088 356.501 128.749 356.067 128.515C355.632 128.281 355.146 128.159 354.652 128.16H256.852C255.842 128.16 254.912 128.66 254.352 129.5L237.742 154.42C236.552 156.2 233.932 156.2 232.742 154.42L216.132 129.5C215.859 129.087 215.487 128.749 215.051 128.515C214.615 128.281 214.127 128.159 213.632 128.16H115.832C114.832 128.16 113.892 128.66 113.342 129.5L96.7223 154.42C95.5323 156.2 92.9223 156.2 91.7323 154.42L75.1123 129.5C74.841 129.088 74.4713 128.749 74.0367 128.515C73.602 128.281 73.116 128.159 72.6223 128.16H42.9223C36.0123 128.16 30.4023 122.56 30.4023 115.65V20.51C30.4023 13.6 36.0123 8 42.9223 8H94.9523" stroke="black" stroke-width="15" stroke-miterlimit="10" stroke-linecap="round" stroke-linejoin="round"/>
<path d="M129.952 8H427.562C434.472 8 440.082 13.6 440.082 20.51V50.62M440.082 85.62V115.65C440.082 122.56 434.472 128.16 427.562 128.16H397.862C396.862 128.16 395.922 128.66 395.372 129.5L378.752 154.42C377.562 156.2 374.952 156.2 373.762 154.42L357.142 129.5C356.871 129.088 356.501 128.749 356.067 128.515C355.632 128.281 355.146 128.159 354.652 128.16H256.852C255.842 128.16 254.912 128.66 254.352 129.5L237.742 154.42C236.552 156.2 233.932 156.2 232.742 154.42L216.132 129.5C215.859 129.087 215.487 128.749 215.051 128.515C214.615 128.281 214.127 128.159 213.632 128.16H115.832C114.832 128.16 113.892 128.66 113.342 129.5L96.7223 154.42C95.5323 156.2 92.9223 156.2 91.7323 154.42L75.1123 129.5C74.841 129.088 74.4713 128.749 74.0367 128.515C73.602 128.281 73.116 128.159 72.6223 128.16H42.9223C36.0123 128.16 30.4023 122.56 30.4023 115.65V20.51C30.4023 13.6 36.0123 8 42.9223 8H94.9523" stroke="white" stroke-width="15" stroke-miterlimit="10" stroke-linecap="round" stroke-linejoin="round"/>
<path d="M204.978 66.819L229.637 91.037L270.211 43.124M330.119 66.819L354.778 91.037L395.352 43.124M79.837 66.819L104.495 91.037L145.07 43.124M428.334 357.09L428.324 458.35C428.324 463.1 430.244 467.4 433.344 470.52C436.444 473.64 440.724 475.59 445.474 475.63C455.064 475.71 462.884 467.95 462.884 458.35V383.627M462.884 348.627V339.06C462.884 319.99 449.234 303.65 430.464 300.26L397.324 294.28M303.948 303.27L353.767 294.282L356.436 272.49M375.547 486.909V505M397.328 294.282L394.602 272.019M428.329 458.351V505M322.766 458.351V505M322.766 458.351V339.06C322.766 319.986 309.111 303.647 290.339 300.26L257.206 294.282L254.479 272.019M322.766 458.351C322.766 467.948 314.946 475.706 305.35 475.63C295.861 475.555 288.206 467.841 288.207 458.351L288.208 357.09M8 420.493V458.351C8 467.948 15.82 475.706 25.416 475.63C34.905 475.555 42.56 467.841 42.559 458.351M42.559 458.351L42.558 357.09M42.559 458.351V505M8 385.489V339.06C8 319.986 21.655 303.647 40.427 300.26L73.56 294.282L76.286 272.019M166.94 303.27L117.121 294.282L114.453 272.49M148.084 458.351L148.123 505M198.124 209.21C203.054 193.43 217.784 181.75 235.444 181.74H235.464C258.564 181.74 276.604 201.71 274.294 224.72L273.234 235.26C271.534 252.13 261.264 266.95 246.064 274.44C242.747 276.075 239.098 276.926 235.4 276.928C231.702 276.929 228.053 276.082 224.734 274.45C217.256 270.773 210.841 265.249 206.094 258.4C203.114 254.09 200.814 249.3 199.334 244.21M213.644 294.28L180.514 300.26C161.744 303.65 148.084 319.99 148.084 339.06V355.74M148.084 390.74V458.35C148.084 467.9 155.824 475.63 165.354 475.63H165.504C174.994 475.55 182.644 467.84 182.644 458.35V357.09M213.644 294.282L216.313 272.49M288.206 458.351V505M182.643 458.351V505M386.187 274.437C382.869 276.073 379.22 276.925 375.521 276.927C371.822 276.929 368.172 276.081 364.853 274.448C349.658 266.972 339.402 252.169 337.725 235.297L336.678 224.762C334.39 201.74 352.458 181.753 375.568 181.741C398.678 181.729 416.725 201.698 414.413 224.722L413.355 235.258C412.523 243.557 409.592 251.508 404.84 258.362C400.087 265.216 393.668 270.748 386.187 274.437ZM84.702 274.437C88.0195 276.073 91.6687 276.925 95.3677 276.927C99.0668 276.929 102.717 276.081 106.036 274.448C121.231 266.972 131.487 252.169 133.164 235.297L134.211 224.762C136.499 201.74 118.431 181.753 95.321 181.741C72.211 181.729 54.164 201.698 56.476 224.722L57.534 235.258C58.366 243.557 61.2964 251.508 66.0492 258.362C70.8021 265.217 77.2212 270.748 84.702 274.437Z" stroke="black" stroke-width="15" stroke-miterlimit="10" stroke-linecap="round" stroke-linejoin="round"/>
<path d="M204.978 66.819L229.637 91.037L270.211 43.124M330.119 66.819L354.778 91.037L395.352 43.124M79.837 66.819L104.495 91.037L145.07 43.124M428.334 357.09L428.324 458.35C428.324 463.1 430.244 467.4 433.344 470.52C436.444 473.64 440.724 475.59 445.474 475.63C455.064 475.71 462.884 467.95 462.884 458.35V383.627M462.884 348.627V339.06C462.884 319.99 449.234 303.65 430.464 300.26L397.324 294.28M303.948 303.27L353.767 294.282L356.436 272.49M375.547 486.909V505M397.328 294.282L394.602 272.019M428.329 458.351V505M322.766 458.351V505M322.766 458.351V339.06C322.766 319.986 309.111 303.647 290.339 300.26L257.206 294.282L254.479 272.019M322.766 458.351C322.766 467.948 314.946 475.706 305.35 475.63C295.861 475.555 288.206 467.841 288.207 458.351L288.208 357.09M8 420.493V458.351C8 467.948 15.82 475.706 25.416 475.63C34.905 475.555 42.56 467.841 42.559 458.351M42.559 458.351L42.558 357.09M42.559 458.351V505M8 385.489V339.06C8 319.986 21.655 303.647 40.427 300.26L73.56 294.282L76.286 272.019M166.94 303.27L117.121 294.282L114.453 272.49M148.084 458.351L148.123 505M198.124 209.21C203.054 193.43 217.784 181.75 235.444 181.74H235.464C258.564 181.74 276.604 201.71 274.294 224.72L273.234 235.26C271.534 252.13 261.264 266.95 246.064 274.44C242.747 276.075 239.098 276.926 235.4 276.928C231.702 276.929 228.053 276.082 224.734 274.45C217.256 270.773 210.841 265.249 206.094 258.4C203.114 254.09 200.814 249.3 199.334 244.21M213.644 294.28L180.514 300.26C161.744 303.65 148.084 319.99 148.084 339.06V355.74M148.084 390.74V458.35C148.084 467.9 155.824 475.63 165.354 475.63H165.504C174.994 475.55 182.644 467.84 182.644 458.35V357.09M213.644 294.282L216.313 272.49M288.206 458.351V505M182.643 458.351V505M386.187 274.437C382.869 276.073 379.22 276.925 375.521 276.927C371.822 276.929 368.172 276.081 364.853 274.448C349.658 266.972 339.402 252.169 337.725 235.297L336.678 224.762C334.39 201.74 352.458 181.753 375.568 181.741C398.678 181.729 416.725 201.698 414.413 224.722L413.355 235.258C412.523 243.557 409.592 251.508 404.84 258.362C400.087 265.216 393.668 270.748 386.187 274.437ZM84.702 274.437C88.0195 276.073 91.6687 276.925 95.3677 276.927C99.0668 276.929 102.717 276.081 106.036 274.448C121.231 266.972 131.487 252.169 133.164 235.297L134.211 224.762C136.499 201.74 118.431 181.753 95.321 181.741C72.211 181.729 54.164 201.698 56.476 224.722L57.534 235.258C58.366 243.557 61.2964 251.508 66.0492 258.362C70.8021 265.217 77.2212 270.748 84.702 274.437Z" stroke="white" stroke-width="15" stroke-miterlimit="10" stroke-linecap="round" stroke-linejoin="round"/>
<path d="M353.768 294.282C361.243 314.511 389.854 314.511 397.329 294.282M213.644 294.282C221.119 314.511 249.73 314.511 257.206 294.282M73.5617 294.282C81.0367 314.511 109.648 314.511 117.123 294.282M235.445 486.909V505M95.4077 486.909V505M320.574 437.702H290.188M180.537 437.702H148.5M285.564 459.5H185.821M39.8397 437.702H9.80273M144.39 459.5H45.1237M460.28 437.702H429.895M425.271 459.5H325.528" stroke="black" stroke-width="15" stroke-miterlimit="10" stroke-linecap="round" stroke-linejoin="round"/>
<path d="M353.768 294.282C361.243 314.511 389.854 314.511 397.329 294.282M213.644 294.282C221.119 314.511 249.73 314.511 257.206 294.282M73.5617 294.282C81.0367 314.511 109.648 314.511 117.123 294.282M235.445 486.909V505M95.4077 486.909V505M320.574 437.702H290.188M180.537 437.702H148.5M285.564 459.5H185.821M39.8397 437.702H9.80273M144.39 459.5H45.1237M460.28 437.702H429.895M425.271 459.5H325.528" stroke="white" stroke-width="15" stroke-miterlimit="10" stroke-linecap="round" stroke-linejoin="round"/>
</svg>
