<svg width="412" height="512" viewBox="0 0 412 512" fill="none" xmlns="http://www.w3.org/2000/svg">
<path d="M158.51 344.699H105.129C103.14 344.699 101.232 345.489 99.8257 346.896C98.4191 348.303 97.6289 350.21 97.6289 352.2C97.6289 371.053 112.967 386.39 131.819 386.39C150.671 386.39 166.009 371.052 166.009 352.2C166.009 351.215 165.815 350.239 165.438 349.329C165.062 348.419 164.509 347.593 163.813 346.896C163.116 346.2 162.29 345.647 161.38 345.27C160.47 344.893 159.495 344.699 158.51 344.699ZM131.819 371.39C123.898 371.39 117.082 366.565 114.156 359.701H149.482C146.556 366.564 139.74 371.39 131.819 371.39ZM175.924 299.816C173.934 299.816 172.027 300.607 170.62 302.013C169.213 303.42 168.423 305.328 168.423 307.317V323.956C168.423 325.945 169.213 327.853 170.62 329.259C172.027 330.666 173.934 331.456 175.924 331.456C177.913 331.456 179.821 330.666 181.227 329.259C182.634 327.853 183.424 325.945 183.424 323.956V307.317C183.424 305.328 182.634 303.42 181.227 302.013C179.821 300.607 177.913 299.816 175.924 299.816ZM87.7153 299.816C85.7261 299.816 83.8183 300.607 82.4117 302.013C81.0051 303.42 80.2148 305.328 80.2148 307.317V323.956C80.2148 325.945 81.0051 327.853 82.4117 329.259C83.8183 330.666 85.7261 331.456 87.7153 331.456C89.7045 331.456 91.6123 330.666 93.0189 329.259C94.4255 327.853 95.2158 325.945 95.2158 323.956V307.317C95.2158 305.328 94.4255 303.42 93.0189 302.013C91.6123 300.607 89.7045 299.816 87.7153 299.816Z" fill="white"/>
<path d="M277.526 72.4164C241.077 72.9204 211.273 102.992 211.087 139.45C210.984 159.566 219.194 171.671 223.539 179.695C218.876 177.538 213.812 176.157 208.486 175.641C199.659 158.973 182.14 147.587 162.004 147.587H82.718C71.9044 147.587 61.1317 150.176 51.5661 155.075L51.5501 155.083C28.5687 166.86 14.2919 190.206 14.2919 216.013V230.08C14.2919 232.069 15.0821 233.977 16.4887 235.384C17.8953 236.79 19.8031 237.58 21.7923 237.58C23.7816 237.58 25.6893 236.79 27.0959 235.384C28.5025 233.977 29.2928 232.069 29.2928 230.08V216.013C29.2928 195.862 40.4415 177.633 58.3905 168.434L58.4035 168.427C65.969 164.553 74.1495 162.589 82.718 162.589H162.004C180.624 162.589 196.114 176.207 199.059 194.005C199.476 196.75 200.516 218.715 198.193 228.852C192.259 254.164 169.915 270.925 145.403 270.925H29.2928V265.082C29.2928 263.093 28.5025 261.185 27.0959 259.778C25.6893 258.372 23.7816 257.582 21.7923 257.582C19.8031 257.582 17.8953 258.372 16.4887 259.778C15.0821 261.185 14.2919 263.093 14.2919 265.082C14.2919 279.133 14.2559 278.525 14.3479 279.306C5.61134 286.288 0 297.023 0 309.051V309.239C0 329.712 16.246 346.455 36.5232 347.272C43.0866 375.311 61.7797 398.73 86.7433 411.679V429.945H62.5968C29.4838 429.945 2.54515 456.885 2.54515 489.997V504.501C2.54515 506.49 3.33538 508.398 4.74199 509.804C6.14859 511.211 8.05636 512.001 10.0456 512.001H171.607C173.597 512.001 175.504 511.211 176.911 509.804C178.318 508.398 179.108 506.49 179.108 504.501C179.108 502.511 178.318 500.604 176.911 499.197C175.504 497.79 173.597 497 171.607 497H17.5461V489.997C17.5461 465.155 37.7553 444.946 62.5968 444.946H86.9023C88.8514 468.105 108.375 486.075 131.68 486.075C155.707 486.075 174.541 467.522 176.446 444.946H200.764C207.769 444.942 214.678 446.575 220.939 449.715C220.939 461.594 226.945 468.394 235.922 470.466V497.001H206.608C204.618 497.001 202.71 497.791 201.304 499.198C199.897 500.605 199.107 502.512 199.107 504.502C199.107 506.491 199.897 508.399 201.304 509.805C202.71 511.212 204.618 512.002 206.608 512.002H288.462C290.452 512.002 292.359 511.212 293.766 509.805C295.173 508.399 295.963 506.491 295.963 504.502V470.706C305.211 469.266 312.318 461.272 312.318 451.626L312.317 398.893V341.706C312.317 329.819 302.646 320.147 290.76 320.147C278.873 320.147 269.202 329.818 269.202 341.706V379.58H240.27C229.61 379.58 220.937 388.253 220.937 398.912V433.435C214.462 431.125 207.638 429.944 200.762 429.945H176.616V411.853C201.174 399.3 220.422 376.007 227.104 347.266C246.957 346.328 263.359 329.994 263.359 309.052C263.359 295.108 255.819 282.897 244.608 276.265L245.455 266.657C252.225 278.387 264.892 286.305 279.382 286.305C299.85 286.305 318.535 270.222 318.535 246.156C321.68 243.123 323.648 238.876 323.648 234.172C323.651 230.914 322.695 227.726 320.896 225.009C322.695 222.291 323.651 219.104 323.648 215.845C323.648 212.378 322.582 209.157 320.762 206.487C335.152 171.606 345.864 165.534 345.864 139.803C345.864 121.626 338.737 104.586 325.795 91.8216C312.953 79.1508 295.851 72.1644 277.526 72.4164ZM280.964 496.999H250.925V470.958H280.964V496.999ZM284.206 341.704C284.206 338.088 287.146 335.146 290.763 335.146C294.379 335.146 297.319 338.087 297.319 341.704V380.067C295.897 379.75 294.445 379.586 292.988 379.578H284.207V341.704H284.206ZM235.941 398.91C235.943 397.762 236.399 396.661 237.211 395.849C238.023 395.037 239.124 394.58 240.273 394.579H292.987C294.135 394.58 295.236 395.037 296.048 395.849C296.86 396.662 297.317 397.763 297.318 398.911L297.319 398.93V451.624C297.318 452.773 296.861 453.874 296.049 454.686C295.236 455.498 294.135 455.955 292.987 455.957H240.273C239.124 455.955 238.023 455.498 237.211 454.686C236.399 453.874 235.942 452.773 235.941 451.624V398.91ZM307.411 214.241C309.291 214.739 308.917 217.507 306.988 217.507C302.844 217.507 299.487 220.865 299.487 225.008C299.487 229.15 302.844 232.508 306.988 232.508C308.719 232.508 309.304 234.855 307.733 235.651C307.535 235.751 307.354 235.791 307.354 235.792C306.941 235.892 250.152 235.813 249.61 235.789C247.672 235.333 248.018 232.509 249.967 232.509C254.11 232.509 257.468 229.151 257.468 225.009C257.468 220.866 254.11 217.508 249.967 217.508C249.718 217.508 249.556 217.51 249.264 217.443C249.203 216.461 249.111 215.481 248.989 214.505C248.974 214.407 249.068 214.365 249.242 214.354C251.732 214.054 307.159 214.173 307.411 214.241ZM34.2111 331.986C23.3214 330.144 15.0009 320.644 15.0009 309.239V309.051C15.0009 297.647 23.3154 288.15 34.2011 286.303C33.799 292.062 33.8691 326.932 34.1981 331.742C34.2031 331.823 34.2051 331.905 34.2111 331.986ZM161.618 418.004V441.137C161.618 457.644 148.188 471.074 131.68 471.074C115.172 471.074 101.743 457.644 101.743 441.137V417.949C121.844 424.404 142.897 423.957 161.618 418.004ZM137.598 407.325C92.9706 410.377 56.4774 378.714 50.002 338.063C49.366 334.05 48.964 329.315 48.964 325.035V293.119C48.964 291.082 49.046 288.702 49.285 285.927H145.403C169.855 285.927 191.977 272.953 204.294 253.04C209.034 261.526 211.744 270.284 213.569 279.778C214.956 288.326 214.649 290.898 214.649 325.034C214.65 367.731 181.38 404.16 137.598 407.325ZM229.408 331.941C229.559 329.776 229.651 327.074 229.651 325.034V293.118C229.651 290.935 229.551 288.308 229.416 286.347C240.104 288.284 248.361 297.685 248.361 309.05C248.361 320.832 239.959 330.032 229.408 331.941ZM227.139 271.024C225.399 263.47 222.748 256.155 219.245 249.239C217.05 244.845 214.509 240.633 211.646 236.642C213.27 231.262 214.225 225.702 214.488 220.088C214.564 218.428 215.018 198.994 213.957 192.113L213.944 192.013C218.798 193.604 223.109 196.348 226.551 200.105C229.948 203.827 232.347 208.349 233.524 213.249C234.368 216.898 234.452 219.074 234.335 221.604C234.285 222.731 234.201 223.483 229.99 271.271C229.914 271.262 229.843 271.257 229.767 271.249C228.894 271.145 228.017 271.07 227.139 271.024ZM279.384 271.303C267.32 271.303 257.293 262.413 255.512 250.839C262.166 250.868 272.992 250.837 303.256 250.835C301.477 262.411 291.45 271.303 279.384 271.303ZM307.551 199.187C307.134 199.174 299.724 199.175 299.286 199.175L305.034 169.639C305.223 168.672 305.218 167.678 305.022 166.713C304.826 165.747 304.442 164.83 303.891 164.013C303.34 163.197 302.634 162.496 301.813 161.952C300.991 161.409 300.071 161.032 299.104 160.844C298.137 160.656 297.143 160.66 296.177 160.856C295.212 161.052 294.295 161.437 293.478 161.987C292.661 162.538 291.961 163.244 291.417 164.065C290.873 164.887 290.497 165.807 290.309 166.774L284.007 199.152C279.045 199.141 274.975 199.13 272.941 199.125L266.644 166.774C266.264 164.821 265.124 163.099 263.475 161.987C261.825 160.875 259.801 160.464 257.849 160.844C255.896 161.224 254.174 162.364 253.062 164.013C251.95 165.663 251.538 167.686 251.918 169.639L257.658 199.13C257.589 199.131 249.703 199.196 249.419 199.205C235.018 164.407 225.978 160.909 226.087 139.526C226.231 111.184 249.399 87.8073 277.732 87.4153C291.851 87.2273 305.202 92.5766 315.262 102.498C325.324 112.422 330.865 125.669 330.865 139.799C330.866 160.815 321.984 164.628 307.551 199.187ZM278.477 50.6551C276.488 50.6551 274.58 49.8648 273.173 48.4582C271.767 47.0516 270.976 45.1439 270.976 43.1546V7.50045C270.976 3.3582 274.334 0 278.477 0C282.62 0 285.977 3.3582 285.977 7.50045V43.1546C285.977 45.1439 285.187 47.0516 283.78 48.4582C282.374 49.8648 280.466 50.6551 278.477 50.6551ZM404.413 134.538H368.759C364.616 134.538 361.259 131.18 361.259 127.038C361.259 122.895 364.616 119.537 368.759 119.537H404.413C408.557 119.537 411.914 122.895 411.914 127.038C411.914 131.18 408.557 134.538 404.413 134.538Z" fill="white"/>
<path d="M188.195 134.538H152.54C150.55 134.538 148.642 133.748 147.236 132.341C145.829 130.935 145.039 129.027 145.039 127.038C145.039 125.048 145.829 123.141 147.236 121.734C148.642 120.327 150.55 119.537 152.54 119.537H188.195C190.184 119.537 192.092 120.327 193.498 121.734C194.905 123.141 195.695 125.048 195.695 127.038C195.695 129.027 194.905 130.935 193.498 132.341C192.092 133.748 190.184 134.538 188.195 134.538ZM209.334 74.9014L184.123 49.6899C182.717 48.2833 181.927 46.3757 181.927 44.3866C181.927 42.3975 182.717 40.4898 184.123 39.0833C185.53 37.6768 187.438 36.8867 189.427 36.8867C191.416 36.8867 193.323 37.6768 194.73 39.0833L219.942 64.2948C221.338 65.7036 222.119 67.6081 222.115 69.5916C222.111 71.5752 221.321 73.4762 219.918 74.8787C218.515 76.2813 216.614 77.0711 214.631 77.0753C212.647 77.0796 210.743 76.2979 209.334 74.9014ZM337.012 74.9014C335.605 73.4948 334.815 71.5872 334.815 69.5981C334.815 67.609 335.605 65.7014 337.012 64.2948L362.223 39.0833C363.632 37.6868 365.536 36.9051 367.52 36.9094C369.503 36.9136 371.405 37.7034 372.807 39.1059C374.21 40.5084 375 42.4095 375.004 44.393C375.009 46.3766 374.227 48.2811 372.831 49.6899L347.619 74.9014C346.923 75.598 346.096 76.1505 345.186 76.5275C344.276 76.9044 343.301 77.0984 342.316 77.0984C341.33 77.0984 340.355 76.9044 339.445 76.5275C338.535 76.1505 337.708 75.598 337.012 74.9014Z" fill="white"/>
</svg>
