<svg width="409" height="414" viewBox="0 0 409 414" fill="none" xmlns="http://www.w3.org/2000/svg">
<path d="M408.685 4.79143C408.685 2.18151 406.395 0 403.896 0H4.78929C2.39675 0 0 2.12707 0 4.79143V408.869C0 409.062 0.0814813 409.234 0.110664 409.422C0.133269 409.613 0.176117 409.793 0.222541 409.982C0.243167 410.033 0.230715 410.097 0.2553 410.146C0.354279 410.61 0.543743 411.034 0.787677 411.42C0.794702 411.431 0.794319 411.443 0.801343 411.454C0.818904 411.481 0.850833 411.49 0.868776 411.516C1.082 411.833 1.31935 412.133 1.59643 412.383C1.91565 412.638 2.17095 412.893 2.49011 413.021C2.49905 413.027 2.51035 413.028 2.51936 413.034C2.5813 413.068 2.64407 413.083 2.70722 413.114C3.36355 413.475 4.10257 413.66 4.85282 413.66H403.896C406.01 413.66 408.685 411.823 408.685 408.869V4.79143ZM399.107 400.059L383.334 389.861V223.217C383.334 221.428 382.376 219.831 380.844 219C379.311 218.17 377.396 218.234 375.927 219.192L338.698 243.277C337.357 244.171 336.527 245.641 336.527 247.302V359.598L325.16 352.249V260.845C325.16 259.057 324.202 257.46 322.67 256.629C321.137 255.799 319.222 255.863 317.753 256.821L289.209 275.284C287.868 276.178 287.038 277.648 287.038 279.309V327.601L276.182 320.582V202.806L399.107 20.4459V400.059ZM9.57857 20.4232L132.567 202.871V320.559L121.712 327.577V279.309C121.712 277.647 120.882 276.178 119.476 275.284L90.9325 256.821C89.4635 255.863 87.6118 255.799 86.0793 256.629C84.5468 257.46 83.5888 259.057 83.5888 260.845V352.224L72.2224 359.572V247.302C72.2224 245.641 71.3923 244.171 69.9872 243.277L32.7588 219.192C31.2898 218.234 29.4381 218.17 27.9056 219C26.3731 219.831 25.4151 221.428 25.4151 223.217V389.833L9.57864 400.071L9.57857 20.4232ZM268.834 196.576H139.871L13.8218 9.58286H394.878L268.834 196.576ZM266.604 206.159V318.407H142.146V206.159H266.604ZM93.1674 346.031V269.662L112.133 281.928V333.77L93.1674 346.031ZM38.4402 381.412L34.9936 383.634V232.033L62.6439 249.921V365.764L38.4402 381.412ZM138.724 327.989H269.99C271.495 328.963 388.4 404.55 387.667 404.077H21.0373C90.3804 359.279 141.705 326.06 138.724 327.989ZM315.582 346.056L296.616 333.794V281.928L315.582 269.662V346.056ZM373.756 383.634C373.112 383.219 344.284 364.616 346.105 365.791V249.921L373.756 232.033V383.634Z" fill="white"/>
<path d="M301.52 314.734C302.842 314.734 303.914 313.66 303.914 312.338V306.417C303.914 305.095 302.842 304.021 301.52 304.021C300.198 304.021 299.125 305.095 299.125 306.417V312.338C299.125 313.66 300.198 314.734 301.52 314.734Z" fill="white"/>
<path d="M352.811 317.997C354.133 317.997 355.205 316.924 355.205 315.601V303.155C355.205 301.832 354.133 300.759 352.811 300.759C351.489 300.759 350.416 301.832 350.416 303.155V315.601C350.416 316.924 351.489 317.997 352.811 317.997Z" fill="white"/>
<path d="M107.195 304.021C105.873 304.021 104.801 305.095 104.801 306.417V312.338C104.801 313.66 105.873 314.734 107.195 314.734C108.517 314.734 109.59 313.66 109.59 312.338V306.417C109.59 305.095 108.517 304.021 107.195 304.021Z" fill="white"/>
<path d="M55.9064 300.752C54.5843 300.752 53.5117 301.825 53.5117 303.148V315.6C53.5117 316.923 54.5843 317.996 55.9064 317.996C57.2284 317.996 58.301 316.923 58.301 315.6V303.148C58.301 301.825 57.2284 300.752 55.9064 300.752Z" fill="white"/>
</svg>
