<svg xmlns="http://www.w3.org/2000/svg" version="1.1" xmlns:xlink="http://www.w3.org/1999/xlink" width="512" height="512" x="0" y="0" viewBox="0 0 512 512" style="enable-background:new 0 0 512 512" xml:space="preserve"><g><path fill="#88c660" d="M512 256c0 49.057-13.799 94.891-37.726 133.832-21.109 34.355-92.263 3.339-126.62 24.446-11.452 7.036 18.661 73.202 6.11 78.392C323.641 505.127 290.623 512 256 512c-33.032 0-64.602-6.256-93.591-17.648-18.646-7.327-4.51-54.988-20.721-66.266-29.035-20.199-85.402-8.049-103.962-38.253C13.799 350.891 0 305.057 0 256 0 114.615 114.615 0 256 0s256 114.615 256 256z" opacity="1" data-original="#88c660"></path><path fill="#ef6060" d="M474.27 42.43v108.7l-219.919 22.021L37.73 151.13V42.43c0-13.68 11.09-24.78 24.78-24.78h386.98c13.69 0 24.78 11.1 24.78 24.78z" opacity="1" data-original="#ef6060"></path><g fill="#f2f2f2"><path d="M237.841 46.021h-.074a7.5 7.5 0 0 0-7.427 7.572l.432 44.662-33.748-48.869a7.499 7.499 0 0 0-13.671 4.262v67.832a7.5 7.5 0 0 0 15 0V77.708l32.195 46.621c2.245 3.24 5.971 4.625 9.494 3.521 3.604-1.126 5.933-4.525 5.933-8.732l-.635-65.669a7.502 7.502 0 0 0-7.499-7.428zM90.908 86.115l28.519-26.214a7.502 7.502 0 0 0-10.152-11.044L85.294 70.9V53.521a7.5 7.5 0 0 0-15 0v67.959a7.5 7.5 0 0 0 15 0v-19.939l26.262 25.336a7.477 7.477 0 0 0 5.207 2.103 7.5 7.5 0 0 0 5.208-12.897zM167.2 61.642a7.5 7.5 0 0 0 0-15h-28.374a7.5 7.5 0 0 0-7.5 7.5v67.338a7.5 7.5 0 0 0 7.5 7.5H167.2a7.5 7.5 0 0 0 0-15h-20.874V95.311h18.782a7.5 7.5 0 0 0 0-15h-18.782V61.642zM295.831 46.021c-22.872 0-41.479 18.607-41.479 41.479s18.607 41.479 41.479 41.479S337.31 110.372 337.31 87.5s-18.607-41.479-41.479-41.479zm0 67.959c-14.601 0-26.479-11.878-26.479-26.479s11.878-26.479 26.479-26.479S322.31 72.9 322.31 87.501s-11.878 26.479-26.479 26.479z" fill="#f2f2f2" opacity="1" data-original="#f2f2f2"></path></g><path fill="#f2f2f2" d="M474.27 151.13v238.7a256.61 256.61 0 0 1-24.14 33.05c-3.769 4.378-26.187-9.879-30.237-5.767-5.192 5.272 7.896 28.824 2.267 33.627a255.671 255.671 0 0 1-72.57 43.61H162.41a255.671 255.671 0 0 1-72.57-43.61c-4.975-4.245 4.911-23.376.277-27.988-4.7-4.678-23.917 5.158-28.247.128a256.61 256.61 0 0 1-24.14-33.05v-238.7z" opacity="1" data-original="#f2f2f2"></path><g fill="#ef6060"><path d="M98.339 232.469H70.724a8.851 8.851 0 0 1-8.851-8.851v-27.615a8.851 8.851 0 0 1 8.851-8.851h27.615a8.851 8.851 0 0 1 8.851 8.851v27.615a8.85 8.85 0 0 1-8.851 8.851zM155.495 232.469H127.88a8.851 8.851 0 0 1-8.851-8.851v-27.615a8.851 8.851 0 0 1 8.851-8.851h27.615a8.851 8.851 0 0 1 8.851 8.851v27.615a8.85 8.85 0 0 1-8.851 8.851zM212.652 232.469h-27.615a8.851 8.851 0 0 1-8.851-8.851v-27.615a8.851 8.851 0 0 1 8.851-8.851h27.615a8.851 8.851 0 0 1 8.851 8.851v27.615a8.851 8.851 0 0 1-8.851 8.851zM269.808 232.469h-27.615a8.851 8.851 0 0 1-8.851-8.851v-27.615a8.851 8.851 0 0 1 8.851-8.851h27.615a8.851 8.851 0 0 1 8.851 8.851v27.615a8.851 8.851 0 0 1-8.851 8.851zM326.964 232.469h-27.615a8.851 8.851 0 0 1-8.851-8.851v-27.615a8.851 8.851 0 0 1 8.851-8.851h27.615a8.851 8.851 0 0 1 8.851 8.851v27.615a8.851 8.851 0 0 1-8.851 8.851zM384.12 232.469h-27.615a8.851 8.851 0 0 1-8.851-8.851v-27.615a8.851 8.851 0 0 1 8.851-8.851h27.615a8.851 8.851 0 0 1 8.851 8.851v27.615a8.851 8.851 0 0 1-8.851 8.851zM441.276 232.469h-27.615a8.851 8.851 0 0 1-8.851-8.851v-27.615a8.851 8.851 0 0 1 8.851-8.851h27.615a8.851 8.851 0 0 1 8.851 8.851v27.615a8.851 8.851 0 0 1-8.851 8.851zM98.339 287.038H70.724a8.851 8.851 0 0 1-8.851-8.851v-27.615a8.851 8.851 0 0 1 8.851-8.851h27.615a8.851 8.851 0 0 1 8.851 8.851v27.615a8.85 8.85 0 0 1-8.851 8.851zM155.495 287.038H127.88a8.851 8.851 0 0 1-8.851-8.851v-27.615a8.851 8.851 0 0 1 8.851-8.851h27.615a8.851 8.851 0 0 1 8.851 8.851v27.615a8.85 8.85 0 0 1-8.851 8.851zM212.652 287.038h-27.615a8.851 8.851 0 0 1-8.851-8.851v-27.615a8.851 8.851 0 0 1 8.851-8.851h27.615a8.851 8.851 0 0 1 8.851 8.851v27.615a8.851 8.851 0 0 1-8.851 8.851zM269.808 287.038h-27.615a8.851 8.851 0 0 1-8.851-8.851v-27.615a8.851 8.851 0 0 1 8.851-8.851h27.615a8.851 8.851 0 0 1 8.851 8.851v27.615a8.851 8.851 0 0 1-8.851 8.851zM326.964 287.038h-27.615a8.851 8.851 0 0 1-8.851-8.851v-27.615a8.851 8.851 0 0 1 8.851-8.851h27.615a8.851 8.851 0 0 1 8.851 8.851v27.615a8.851 8.851 0 0 1-8.851 8.851zM384.12 287.038h-27.615a8.851 8.851 0 0 1-8.851-8.851v-27.615a8.851 8.851 0 0 1 8.851-8.851h27.615a8.851 8.851 0 0 1 8.851 8.851v27.615a8.851 8.851 0 0 1-8.851 8.851zM441.276 287.038h-27.615a8.851 8.851 0 0 1-8.851-8.851v-27.615a8.851 8.851 0 0 1 8.851-8.851h27.615a8.851 8.851 0 0 1 8.851 8.851v27.615a8.851 8.851 0 0 1-8.851 8.851zM98.339 341.607H70.724a8.851 8.851 0 0 1-8.851-8.851V305.14a8.851 8.851 0 0 1 8.851-8.851h27.615a8.851 8.851 0 0 1 8.851 8.851v27.615a8.85 8.85 0 0 1-8.851 8.852zM155.495 341.607H127.88a8.851 8.851 0 0 1-8.851-8.851V305.14a8.851 8.851 0 0 1 8.851-8.851h27.615a8.851 8.851 0 0 1 8.851 8.851v27.615a8.85 8.85 0 0 1-8.851 8.852zM212.652 341.607h-27.615a8.851 8.851 0 0 1-8.851-8.851V305.14a8.851 8.851 0 0 1 8.851-8.851h27.615a8.851 8.851 0 0 1 8.851 8.851v27.615a8.852 8.852 0 0 1-8.851 8.852zM269.808 341.607h-27.615a8.851 8.851 0 0 1-8.851-8.851V305.14a8.851 8.851 0 0 1 8.851-8.851h27.615a8.851 8.851 0 0 1 8.851 8.851v27.615a8.852 8.852 0 0 1-8.851 8.852zM326.964 341.607h-27.615a8.851 8.851 0 0 1-8.851-8.851V305.14a8.851 8.851 0 0 1 8.851-8.851h27.615a8.851 8.851 0 0 1 8.851 8.851v27.615a8.852 8.852 0 0 1-8.851 8.852zM384.12 341.607h-27.615a8.851 8.851 0 0 1-8.851-8.851V305.14a8.851 8.851 0 0 1 8.851-8.851h27.615a8.851 8.851 0 0 1 8.851 8.851v27.615a8.852 8.852 0 0 1-8.851 8.852zM441.276 341.607h-27.615a8.851 8.851 0 0 1-8.851-8.851V305.14a8.851 8.851 0 0 1 8.851-8.851h27.615a8.851 8.851 0 0 1 8.851 8.851v27.615a8.852 8.852 0 0 1-8.851 8.852zM98.339 396.176H70.724a8.851 8.851 0 0 1-8.851-8.851V359.71a8.851 8.851 0 0 1 8.851-8.851h27.615a8.851 8.851 0 0 1 8.851 8.851v27.615a8.85 8.85 0 0 1-8.851 8.851zM155.495 396.176H127.88a8.851 8.851 0 0 1-8.851-8.851V359.71a8.851 8.851 0 0 1 8.851-8.851h27.615a8.851 8.851 0 0 1 8.851 8.851v27.615a8.85 8.85 0 0 1-8.851 8.851zM212.652 396.176h-27.615a8.851 8.851 0 0 1-8.851-8.851V359.71a8.851 8.851 0 0 1 8.851-8.851h27.615a8.851 8.851 0 0 1 8.851 8.851v27.615a8.851 8.851 0 0 1-8.851 8.851zM269.808 396.176h-27.615a8.851 8.851 0 0 1-8.851-8.851V359.71a8.851 8.851 0 0 1 8.851-8.851h27.615a8.851 8.851 0 0 1 8.851 8.851v27.615a8.851 8.851 0 0 1-8.851 8.851zM326.964 396.176h-27.615a8.851 8.851 0 0 1-8.851-8.851V359.71a8.851 8.851 0 0 1 8.851-8.851h27.615a8.851 8.851 0 0 1 8.851 8.851v27.615a8.851 8.851 0 0 1-8.851 8.851zM384.12 396.176h-27.615a8.851 8.851 0 0 1-8.851-8.851V359.71a8.851 8.851 0 0 1 8.851-8.851h27.615a8.851 8.851 0 0 1 8.851 8.851v27.615a8.851 8.851 0 0 1-8.851 8.851zM441.276 396.176h-27.615a8.851 8.851 0 0 1-8.851-8.851V359.71a8.851 8.851 0 0 1 8.851-8.851h27.615a8.851 8.851 0 0 1 8.851 8.851v27.615a8.851 8.851 0 0 1-8.851 8.851zM107.19 414.28v27.61c0 4.89-3.96 8.85-8.85 8.85h-8.5a257.259 257.259 0 0 1-27.97-27.86v-8.6c0-4.89 3.97-8.85 8.85-8.85h27.62c4.89 0 8.85 3.96 8.85 8.85zM155.495 450.745H127.88a8.851 8.851 0 0 1-8.851-8.851v-27.615a8.851 8.851 0 0 1 8.851-8.851h27.615a8.851 8.851 0 0 1 8.851 8.851v27.615a8.85 8.85 0 0 1-8.851 8.851zM212.652 450.745h-27.615a8.851 8.851 0 0 1-8.851-8.851v-27.615a8.851 8.851 0 0 1 8.851-8.851h27.615a8.851 8.851 0 0 1 8.851 8.851v27.615a8.851 8.851 0 0 1-8.851 8.851zM269.808 450.745h-27.615a8.851 8.851 0 0 1-8.851-8.851v-27.615a8.851 8.851 0 0 1 8.851-8.851h27.615a8.851 8.851 0 0 1 8.851 8.851v27.615a8.851 8.851 0 0 1-8.851 8.851zM326.964 450.745h-27.615a8.851 8.851 0 0 1-8.851-8.851v-27.615a8.851 8.851 0 0 1 8.851-8.851h27.615a8.851 8.851 0 0 1 8.851 8.851v27.615a8.851 8.851 0 0 1-8.851 8.851zM384.12 450.745h-27.615a8.851 8.851 0 0 1-8.851-8.851v-27.615a8.851 8.851 0 0 1 8.851-8.851h27.615a8.851 8.851 0 0 1 8.851 8.851v27.615a8.851 8.851 0 0 1-8.851 8.851zM450.13 414.28v8.6c-8.6 9.99-17.95 19.31-27.97 27.86h-8.5c-4.89 0-8.85-3.96-8.85-8.85v-27.61c0-4.89 3.96-8.85 8.85-8.85h27.62c4.88 0 8.85 3.96 8.85 8.85z" fill="#ef6060" opacity="1" data-original="#ef6060"></path></g><g fill="#565656"><path d="M163.441 188.056c-3.905-3.905-10.237-3.905-14.143 0l-7.611 7.611-7.611-7.611c-3.905-3.905-10.237-3.905-14.143 0-3.905 3.905-3.905 10.237 0 14.143l7.611 7.611-7.611 7.611c-3.905 3.905-3.905 10.237 0 14.143 1.953 1.953 4.512 2.929 7.071 2.929s5.119-.976 7.071-2.929l7.611-7.611 7.611 7.611c1.953 1.953 4.512 2.929 7.071 2.929s5.119-.976 7.071-2.929c3.905-3.905 3.905-10.237 0-14.143l-7.611-7.611 7.611-7.611c3.907-3.906 3.907-10.238.002-14.143zM277.753 242.625c-3.905-3.905-10.237-3.905-14.142 0L256 250.236l-7.611-7.611c-3.906-3.906-10.237-3.905-14.142 0s-3.906 10.237 0 14.142l7.611 7.612-7.611 7.612c-3.905 3.905-3.905 10.237 0 14.142 1.953 1.953 4.512 2.929 7.071 2.929s5.119-.977 7.071-2.929l7.611-7.611 7.611 7.611c1.953 1.953 4.512 2.929 7.071 2.929s5.119-.977 7.071-2.929c3.905-3.905 3.906-10.237 0-14.142l-7.611-7.612 7.611-7.612c3.906-3.905 3.905-10.237 0-14.142zM163.441 351.763c-3.905-3.905-10.237-3.905-14.143 0l-7.611 7.611-7.611-7.611c-3.905-3.905-10.237-3.905-14.143 0-3.905 3.905-3.905 10.237 0 14.143l7.611 7.611-7.611 7.611c-3.905 3.905-3.905 10.237 0 14.143 1.953 1.953 4.512 2.929 7.071 2.929s5.119-.976 7.071-2.929l7.611-7.611 7.611 7.611c1.953 1.953 4.512 2.929 7.071 2.929s5.119-.976 7.071-2.929c3.905-3.905 3.905-10.237 0-14.143l-7.611-7.611 7.611-7.611c3.907-3.906 3.907-10.238.002-14.143zM327.299 373.517l7.611-7.611c3.905-3.905 3.905-10.237 0-14.143-3.905-3.905-10.237-3.905-14.143 0l-7.611 7.611-7.611-7.611c-3.905-3.905-10.237-3.905-14.143 0-3.905 3.905-3.905 10.237 0 14.143l7.611 7.611-7.611 7.611c-3.905 3.905-3.905 10.237 0 14.143 1.953 1.953 4.512 2.929 7.071 2.929s5.119-.976 7.071-2.929l7.611-7.611 7.611 7.611c1.953 1.953 4.512 2.929 7.071 2.929s5.119-.976 7.071-2.929c3.905-3.905 3.905-10.237 0-14.143zM277.753 406.333c-3.905-3.905-10.237-3.905-14.143 0l-7.61 7.61-7.611-7.611c-3.905-3.905-10.237-3.905-14.143 0-3.905 3.905-3.905 10.237 0 14.143l7.611 7.611-7.611 7.611c-3.905 3.905-3.905 10.237 0 14.143 1.953 1.953 4.512 2.929 7.071 2.929s5.119-.976 7.071-2.929l7.611-7.611 7.611 7.611c1.953 1.953 4.512 2.929 7.071 2.929s5.119-.976 7.071-2.929c3.905-3.905 3.905-10.237 0-14.143l-7.611-7.611 7.611-7.611c3.906-3.905 3.906-10.237.001-14.142z" fill="#565656" opacity="1" data-original="#565656"></path></g><path fill="#565656" d="M408.323 250.537c-12.322-6.719-16.864-22.154-10.145-34.476l51.004-93.537c6.719-12.322 22.154-16.864 34.476-10.145 12.322 6.719 16.864 22.154 10.145 34.476l-51.004 93.537c-6.719 12.322-22.155 16.864-34.476 10.145z" opacity="1" data-original="#565656"></path><path fill="#a2eae1" d="M308.188 364.998a116.538 116.538 0 0 1 7.692-94.255l97.309-178.458 46.299-4.76 21.076 41.497-97.309 178.458a116.542 116.542 0 0 1-75.067 57.518z" opacity="1" data-original="#a2eae1"></path><path fill="#83ddd4" d="M340.112 283.956c-15.77 28.92-27.369 58.36-31.921 81.038a116.522 116.522 0 0 1 7.689-94.251L413.192 92.28l46.297-4.757-22.065 17.97z" opacity="1" data-original="#83ddd4"></path><path fill="#707070" d="m502.06 30.599-17.778-9.694c-8.493-4.631-19.109-2.166-24.693 5.734l-46.4 65.647 67.374 36.738 30.052-74.561c3.616-8.974-.062-19.233-8.555-23.864z" opacity="1" data-original="#707070"></path><path fill="#565656" d="M490.681 24.389c-2.379-1.297-7.861 3.972-12.733 12.26l-40.522 68.842-24.232-13.213 46.396-65.639c5.584-7.901 16.201-10.369 24.7-5.735z" opacity="1" data-original="#565656"></path></g></svg>