<svg xmlns="http://www.w3.org/2000/svg" version="1.1" xmlns:xlink="http://www.w3.org/1999/xlink" width="512" height="512" x="0" y="0" viewBox="0 0 512 512" style="enable-background:new 0 0 512 512" xml:space="preserve"><g><path fill="#89c053" d="M44.137 0h423.726C492.238 0 512 19.762 512 44.137v423.726C512 492.238 492.238 512 467.863 512H44.137C19.762 512 0 492.238 0 467.863V44.137C0 19.762 19.762 0 44.137 0zm0 0" opacity="1" data-original="#89c053"></path><path fill="#cad0d7" d="M52.965 176.55h406.07c9.75 0 17.656 7.907 17.656 17.657v264.828c0 9.75-7.906 17.656-17.656 17.656H52.965c-9.75 0-17.656-7.906-17.656-17.656V194.207c0-9.75 7.906-17.656 17.656-17.656zm0 0" opacity="1" data-original="#cad0d7"></path><g fill="#ffd67b"><path d="m100.441 46.152 10.786 22.852a3.781 3.781 0 0 0 2.816 2.164l23.969 3.637a4.1 4.1 0 0 1 3.066 2.843 4.1 4.1 0 0 1-1.02 4.059l-17.187 17.516a4.189 4.189 0 0 0-1.113 3.617l4.078 24.844a3.8 3.8 0 0 1-1.336 3.843 3.801 3.801 0 0 1-4.047.438l-21.656-11.91a3.462 3.462 0 0 0-3.387 0l-21.656 11.91a3.801 3.801 0 0 1-4.047-.438 3.8 3.8 0 0 1-1.336-3.843l4.078-24.844a4.189 4.189 0 0 0-1.113-3.617L54.14 81.707a4.101 4.101 0 0 1 2.047-6.902l23.968-3.637a3.775 3.775 0 0 0 2.813-2.164l10.797-22.852a3.626 3.626 0 0 1 6.676 0zM259.336 46.152l10.789 22.852a3.774 3.774 0 0 0 2.816 2.164l23.965 3.637a4.101 4.101 0 0 1 2.047 6.902L281.77 99.223a4.177 4.177 0 0 0-1.114 3.617l4.078 24.844a3.808 3.808 0 0 1-5.387 4.281l-21.652-11.91a3.47 3.47 0 0 0-3.39 0l-21.653 11.882a3.808 3.808 0 0 1-5.386-4.28l4.078-24.84a4.182 4.182 0 0 0-1.114-3.622l-17.195-17.511a4.11 4.11 0 0 1 2.05-6.907l23.966-3.636a3.77 3.77 0 0 0 2.816-2.16l10.797-22.856a3.625 3.625 0 0 1 6.672.027zM427.063 46.152l10.785 22.852a3.781 3.781 0 0 0 2.816 2.164l23.969 3.637c1.465.316 2.64 1.406 3.066 2.843s.035 2.997-1.02 4.059l-17.187 17.516a4.189 4.189 0 0 0-1.113 3.617l4.078 24.844a3.8 3.8 0 0 1-1.336 3.843 3.801 3.801 0 0 1-4.047.438l-21.656-11.91a3.47 3.47 0 0 0-3.39 0l-21.653 11.882a3.801 3.801 0 0 1-4.047-.437 3.797 3.797 0 0 1-1.336-3.844l4.078-24.84a4.193 4.193 0 0 0-1.113-3.62l-17.195-17.512a4.104 4.104 0 0 1 2.047-6.907l23.964-3.636a3.77 3.77 0 0 0 2.817-2.16l10.797-22.856a3.627 3.627 0 0 1 6.676.027zm0 0" fill="#ffd67b" opacity="1" data-original="#ffd67b"></path></g><path fill="#e4e8eb" d="M414.898 264.828c-9.753 0-17.656 7.902-17.656 17.656v-35.312c0-9.75-7.906-17.656-17.656-17.656s-17.656 7.906-17.656 17.656v17.656c0-9.75-7.903-17.656-17.653-17.656-9.754 0-17.656 7.906-17.656 17.656v-17.656c0-9.75-7.906-17.656-17.656-17.656s-17.656 7.906-17.656 17.656c0-9.75-7.903-17.656-17.653-17.656S256 237.422 256 247.172V256c0-9.75-7.906-17.656-17.656-17.656S220.69 246.25 220.69 256v-26.484c0-9.75-7.906-17.653-17.656-17.653s-17.656 7.903-17.656 17.653v17.656c0-9.75-7.902-17.656-17.656-17.656-9.75 0-17.653 7.906-17.653 17.656v17.656c0-9.75-7.906-17.656-17.656-17.656s-17.656 7.906-17.656 17.656v17.656c0-9.754-7.903-17.656-17.656-17.656-9.75 0-17.653 7.902-17.653 17.656v88.274c0 9.75 7.903 17.656 17.653 17.656 9.753 0 17.656-7.906 17.656-17.656v17.656c0 9.75 7.906 17.656 17.656 17.656s17.656-7.906 17.656-17.656v17.656c0 9.75 7.903 17.653 17.653 17.653 9.754 0 17.656-7.903 17.656-17.653v17.653c0 9.754 7.906 17.656 17.656 17.656s17.656-7.902 17.656-17.656v-26.48c0 9.75 7.903 17.655 17.653 17.655S256 406.992 256 397.242v8.828c0 9.75 7.906 17.653 17.656 17.653s17.653-7.903 17.653-17.653c0 9.75 7.906 17.653 17.656 17.653s17.656-7.903 17.656-17.653v-17.656c0 9.75 7.902 17.656 17.656 17.656 9.75 0 17.653-7.906 17.653-17.656v17.656c0 9.75 7.906 17.653 17.656 17.653s17.656-7.903 17.656-17.653v-35.312c0 9.75 7.903 17.656 17.656 17.656 9.75 0 17.653-7.906 17.653-17.656v-88.274c0-9.754-7.903-17.656-17.653-17.656zm0 0" opacity="1" data-original="#e4e8eb"></path><path fill="#7ead47" d="M512 203.035v264.828C512 492.238 492.238 512 467.863 512H444.38c24.379 0 44.14-19.762 44.14-44.137V44.137A44.136 44.136 0 0 0 444.38 0h23.484a44.15 44.15 0 0 1 31.211 12.926A44.15 44.15 0 0 1 512 44.136z" opacity="1" data-original="#7ead47"></path><path fill="#fdcd56" d="M194.207 344.277v-44.14a8.827 8.827 0 0 0-15.07-6.239l-8.825 8.825a8.827 8.827 0 0 0 6.238 15.07v26.484c-4.874 0-8.827 3.95-8.827 8.825a8.826 8.826 0 0 0 8.828 8.828h17.656a8.826 8.826 0 0 0 8.828-8.828c0-4.875-3.953-8.825-8.828-8.825zM247.172 291.309c-14.625 0-26.48 11.859-26.48 26.484v17.656c0 14.625 11.855 26.48 26.48 26.48s26.484-11.855 26.484-26.48v-17.656c0-14.625-11.86-26.484-26.484-26.484zm8.828 44.14a8.829 8.829 0 0 1-17.656 0v-17.656a8.829 8.829 0 0 1 17.656 0zM317.793 291.309c-14.625 0-26.484 11.859-26.484 26.484v17.656c0 14.625 11.859 26.48 26.484 26.48s26.484-11.855 26.484-26.48v-17.656c0-14.625-11.859-26.484-26.484-26.484zm8.828 44.14a8.829 8.829 0 0 1-17.656 0v-17.656a8.829 8.829 0 0 1 17.656 0zm0 0" opacity="1" data-original="#fdcd56"></path></g></svg>