<svg width="513" height="398" viewBox="0 0 513 398" fill="none" xmlns="http://www.w3.org/2000/svg">
<path d="M143.112 97.5331C142.149 93.3201 139.614 89.741 135.973 87.454L99.1038 64.302C96.5419 62.6926 93.5774 61.8395 90.5518 61.841C84.9388 61.841 79.8158 64.663 76.8468 69.389L2.46682 187.835C-2.26518 195.373 0.0158243 205.356 7.55282 210.091L44.4238 233.244C46.986 234.853 49.9503 235.706 52.9758 235.705C58.5898 235.705 63.7128 232.883 66.6788 228.157L71.9758 219.721L106.891 241.646C105.972 246.655 105.204 257.147 110.727 270.212C103.685 278.089 101.88 289.334 107.082 298.259C110.811 304.656 117.473 308.703 125.198 309.401C123.97 311.305 122.997 313.362 122.302 315.518C120.26 321.927 120.911 328.5 124.134 334.029C128.38 341.311 136.268 345.298 144.638 345.297C148 345.297 151.438 344.645 154.749 343.314C153.15 349.336 153.911 355.438 156.932 360.62C161.177 367.903 169.067 371.891 177.436 371.891C181.254 371.891 185.169 371.045 188.886 369.321C187.366 375.27 188.14 381.283 191.123 386.401C195.369 393.683 203.258 397.67 211.627 397.669C216.256 397.669 221.034 396.449 225.42 393.893L256.09 376.017L283.933 392.246C288.572 395.45 293.92 397.143 299.413 397.143C307.352 397.143 314.359 393.635 318.638 387.52C322.092 382.585 323.353 376.54 322.238 370.378C325.924 372.195 329.977 373.142 334.087 373.146C342.026 373.146 349.035 369.637 353.316 363.52C357.012 358.238 358.066 351.827 356.791 345.702C359.856 346.883 363.113 347.489 366.398 347.49C374.336 347.49 381.343 343.983 385.623 337.868C391.153 329.961 390.769 319.532 385.515 311.313C392.721 310.832 399.016 307.406 402.977 301.747C409.155 292.92 407.955 280.583 400.426 271.946C406.393 258.883 406.233 247.684 405.091 241.669L440.039 219.724L445.336 228.16C448.302 232.886 453.425 235.708 459.039 235.708C462.064 235.709 465.029 234.856 467.591 233.247L504.463 210.093C511.999 205.359 514.28 195.375 509.548 187.837L435.168 69.391C432.2 64.664 427.076 61.843 421.463 61.843C418.433 61.843 415.476 62.694 412.911 64.304L376.042 87.4561C372.401 89.7421 369.866 93.322 368.903 97.535C367.941 101.748 368.67 106.074 370.956 109.713L376.253 118.149L361.143 127.637C364.393 112.6 366.032 97.2601 366.033 81.8761C366.033 75.8251 365.75 69.482 365.191 63.022C365.135 62.3741 364.921 61.7496 364.569 61.2026C364.217 60.6557 363.737 60.2027 363.171 59.883L257.973 0.516045C257.373 0.177744 256.696 0 256.007 0C255.318 0 254.641 0.177744 254.041 0.516045L148.843 59.882C148.276 60.2018 147.797 60.6547 147.445 61.2017C147.093 61.7486 146.879 62.3731 146.823 63.021C146.265 69.477 145.982 75.82 145.982 81.875C145.982 97.332 147.639 112.672 150.872 127.636L135.762 118.147L141.059 109.712C143.345 106.071 144.074 101.746 143.112 97.5331ZM154.623 65.806L256.007 8.59204L357.391 65.806C357.816 71.311 358.032 76.7071 358.032 81.8741C358.032 155.14 319 223.522 256.007 260.91C193.014 223.522 153.983 155.14 153.983 81.8741C153.983 76.7041 154.198 71.308 154.623 65.806ZM376.701 99.315C376.934 98.2718 377.372 97.2851 377.988 96.4121C378.605 95.5391 379.389 94.7971 380.295 94.229L417.163 71.077C418.45 70.2684 419.94 69.8399 421.461 69.841C424.305 69.841 426.896 71.263 428.391 73.644L502.771 192.089C505.159 195.892 504.008 200.928 500.207 203.316L463.335 226.469C462.048 227.278 460.558 227.706 459.038 227.705C456.194 227.705 453.604 226.284 452.11 223.903L377.729 105.454C377.16 104.55 376.776 103.541 376.6 102.488C376.424 101.434 376.458 100.355 376.701 99.315ZM435.784 212.948L398.442 236.396C397.683 236.873 397.106 237.59 396.803 238.434C396.501 239.277 396.491 240.198 396.774 241.048C396.95 241.595 400.091 251.861 394.045 266.557L319.431 218.84C329.549 218.425 341.24 214.844 354.318 206.631C354.763 206.352 355.148 205.987 355.452 205.559C355.757 205.131 355.973 204.647 356.091 204.135C356.208 203.623 356.223 203.092 356.135 202.574C356.047 202.057 355.858 201.561 355.579 201.116C355.3 200.671 354.935 200.286 354.507 199.981C354.079 199.677 353.595 199.46 353.082 199.343C352.57 199.226 352.04 199.211 351.522 199.299C351.004 199.387 350.509 199.576 350.064 199.855C340.213 206.04 331.37 209.326 323.579 210.46C328.13 204.342 332.354 197.988 336.233 191.423C345.941 174.944 353.404 157.242 358.425 138.786L380.507 124.919L435.784 212.948ZM175.781 191.425C194.704 223.525 221.753 250.353 254.004 269.009C254.613 269.361 255.304 269.547 256.007 269.547C256.71 269.547 257.401 269.361 258.01 269.009C278.607 257.094 297.069 241.833 312.66 224.008L390.863 274.02C391.573 274.522 392.251 275.069 392.891 275.658L392.897 275.665C399.335 281.593 400.85 290.833 396.421 297.159C393.658 301.107 389.038 303.372 383.747 303.372C379.857 303.372 376.052 302.15 372.739 299.839L372.714 299.821C372.689 299.803 372.661 299.794 372.636 299.777C372.61 299.759 372.589 299.737 372.562 299.719L314.652 263.021C313.756 262.454 312.671 262.266 311.636 262.498C310.601 262.729 309.7 263.363 309.132 264.258C308.564 265.154 308.376 266.24 308.608 267.275C308.84 268.31 309.474 269.211 310.37 269.779L368.209 306.432L373.444 310.095C381.529 315.752 384.051 326.154 379.066 333.282C376.305 337.227 371.688 339.49 366.397 339.49C362.497 339.49 358.679 338.261 355.358 335.938L345.758 329.218L345.726 329.196L345.714 329.189C345.711 329.187 345.709 329.185 345.707 329.183L294.254 293.616C293.822 293.309 293.334 293.092 292.817 292.975C292.301 292.859 291.766 292.846 291.245 292.938C290.723 293.03 290.225 293.224 289.779 293.51C289.333 293.796 288.949 294.167 288.648 294.603C288.346 295.038 288.135 295.529 288.025 296.047C287.915 296.565 287.909 297.1 288.007 297.62C288.106 298.141 288.306 298.636 288.598 299.078C288.889 299.521 289.265 299.9 289.705 300.196L341.134 335.747L341.138 335.751C349.222 341.409 351.744 351.81 346.759 358.934C343.996 362.882 339.377 365.147 334.085 365.147C330.186 365.147 326.371 363.919 323.052 361.597L311.111 353.241L266.928 319.628C266.51 319.304 266.033 319.065 265.522 318.927C265.012 318.788 264.479 318.752 263.955 318.821C263.431 318.889 262.926 319.061 262.468 319.326C262.011 319.591 261.61 319.944 261.29 320.365C260.97 320.786 260.737 321.266 260.603 321.778C260.47 322.289 260.439 322.822 260.513 323.346C260.587 323.869 260.764 324.373 261.034 324.828C261.304 325.283 261.661 325.679 262.085 325.995L306.332 359.657C306.356 359.676 306.383 359.687 306.408 359.705C306.427 359.719 306.441 359.737 306.461 359.751L306.495 359.775C310.437 362.546 313.173 366.528 314.199 370.995C315.194 375.324 314.442 379.564 312.083 382.934C309.321 386.88 304.703 389.144 299.412 389.144C295.513 389.144 291.697 387.916 288.377 385.593C288.286 385.53 288.193 385.47 288.098 385.414L263.181 370.89C271.233 362.99 273.555 350.976 268.061 341.552C261.88 330.949 247.973 327.332 236.109 332.834C237.623 326.892 236.847 320.886 233.867 315.773C227.917 305.567 214.809 301.836 203.255 306.479C204.851 300.459 204.09 294.361 201.07 289.181C197.236 282.604 190.426 278.721 182.976 278.031C187.776 270.531 188.503 261.108 184.017 253.412C179.907 246.36 172.239 242.15 163.505 242.15C158.717 242.15 153.95 243.454 149.72 245.92L117.46 264.724C117.402 264.757 117.348 264.794 117.29 264.828C116.915 263.822 116.573 262.804 116.263 261.776C112.575 249.539 115.212 241.126 115.231 241.066C115.519 240.214 115.512 239.29 115.21 238.443C114.909 237.596 114.33 236.875 113.569 236.397L76.2268 212.949L131.504 124.922L153.587 138.789C158.61 157.244 166.074 174.945 175.781 191.425ZM198.034 382.371C195.966 378.823 195.568 374.543 196.914 370.318C198.306 365.947 201.367 362.203 205.533 359.775L205.536 359.773L223.485 349.31L223.487 349.309L237.793 340.969C246.302 336.01 256.779 338.08 261.151 345.579C265.523 353.079 262.159 363.216 253.652 368.175L221.392 386.979C212.884 391.938 202.407 389.87 198.034 382.371ZM163.842 356.591C161.774 353.044 161.376 348.764 162.722 344.539C164.115 340.168 167.175 336.424 171.341 333.996L190.686 322.72L190.693 322.717L203.601 315.192C212.11 310.233 222.587 312.301 226.959 319.802C229.027 323.35 229.425 327.63 228.079 331.855C226.687 336.223 223.628 339.967 219.465 342.395L219.46 342.398L219.459 342.399L187.202 361.202C178.692 366.161 168.215 364.092 163.842 356.591ZM131.045 330.001C128.977 326.453 128.579 322.173 129.925 317.948C131.317 313.577 134.378 309.833 138.544 307.405C138.807 307.248 139.051 307.062 139.272 306.849C139.986 306.511 140.692 306.152 141.379 305.751L170.827 288.587C179.331 283.648 189.794 285.716 194.162 293.209C196.23 296.756 196.628 301.036 195.282 305.261C193.89 309.631 190.829 313.376 186.663 315.804L154.403 334.609C145.894 339.567 135.417 337.5 131.045 330.001ZM113.993 294.231C109.621 286.73 112.985 276.593 121.492 271.634L153.752 252.83C156.76 251.076 160.134 250.148 163.508 250.148C169.363 250.148 174.448 252.874 177.109 257.439C181.481 264.939 178.117 275.076 169.61 280.035L166.796 281.676L166.776 281.687L166.772 281.69L137.351 298.84C134.343 300.594 130.969 301.521 127.595 301.521C121.739 301.521 116.654 298.796 113.993 294.231ZM59.9028 223.904C58.4088 226.285 55.8188 227.706 52.9748 227.706C51.4547 227.707 49.9653 227.278 48.6778 226.47L11.8068 203.318C8.00482 200.929 6.85382 195.893 9.24182 192.09L83.6208 73.644C85.1168 71.263 87.7068 69.841 90.5508 69.841C92.0738 69.841 93.5608 70.268 94.8488 71.077L131.717 94.228C133.548 95.378 134.824 97.185 135.311 99.314C135.798 101.443 135.433 103.625 134.282 105.456L59.9028 223.904Z" fill="url(#paint0_linear_1166_1362)"/>
<path d="M106.215 93.9104C103.132 91.9711 99.5646 90.9416 95.9227 90.9404C89.2047 90.9404 83.0637 94.3344 79.4947 100.017C73.8107 109.067 76.5497 121.054 85.6007 126.739C88.684 128.678 92.2517 129.707 95.8937 129.708C102.612 129.708 108.754 126.314 112.321 120.632C118.004 111.581 115.265 99.5944 106.215 93.9104ZM95.8937 121.707C93.7607 121.707 91.6717 121.103 89.8537 119.963C84.5397 116.625 82.9307 109.586 86.2687 104.271C87.2908 102.634 88.7138 101.285 90.4031 100.352C92.0923 99.4192 93.9919 98.9329 95.9217 98.9394C98.0537 98.9394 100.142 99.5434 101.96 100.684C107.274 104.022 108.883 111.061 105.545 116.377C104.523 118.014 103.1 119.363 101.411 120.296C99.7224 121.228 97.8232 121.714 95.8937 121.707ZM399.693 120.63C403.26 126.314 409.401 129.707 416.12 129.707C419.759 129.707 423.318 128.68 426.414 126.737C435.464 121.053 438.203 109.066 432.519 100.016C428.95 94.3334 422.809 90.9394 416.091 90.9394C412.449 90.9401 408.881 91.9696 405.799 93.9094C396.749 99.5944 394.01 111.581 399.693 120.63ZM410.053 100.685C411.861 99.5464 413.954 98.9415 416.091 98.9404C420.039 98.9404 423.648 100.933 425.744 104.272C429.081 109.586 427.473 116.626 422.16 119.963C420.351 121.102 418.257 121.707 416.12 121.708C414.19 121.715 412.291 121.229 410.601 120.296C408.912 119.363 407.489 118.014 406.468 116.377C403.131 111.062 404.739 104.023 410.053 100.685ZM199.918 141.561L235.042 176.684C236.382 178.032 237.977 179.101 239.734 179.828C241.49 180.556 243.374 180.928 245.275 180.922C247.579 180.924 249.849 180.375 251.898 179.321C253.946 178.267 255.714 176.739 257.052 174.863L313.64 95.6144C318.274 89.1214 316.763 80.0674 310.272 75.4314C307.823 73.6738 304.885 72.7304 301.871 72.7344C299.566 72.7362 297.295 73.2871 295.246 74.3414C293.197 75.3958 291.428 76.9233 290.087 78.7974L243.426 144.141L220.382 121.096C217.648 118.363 214.014 116.857 210.149 116.857C206.284 116.857 202.649 118.363 199.918 121.096C198.569 122.437 197.5 124.031 196.772 125.788C196.044 127.545 195.672 129.428 195.678 131.329C195.673 133.231 196.045 135.114 196.773 136.87C197.501 138.626 198.57 140.221 199.918 141.561ZM214.725 126.753L241.108 153.137C241.518 153.548 242.014 153.865 242.559 154.065C243.105 154.265 243.687 154.344 244.267 154.296C244.846 154.248 245.407 154.074 245.913 153.787C246.418 153.5 246.854 153.106 247.192 152.633L296.598 83.4454C297.198 82.607 297.989 81.9237 298.906 81.4521C299.823 80.9805 300.839 80.7341 301.87 80.7334C303.22 80.7334 304.516 81.1504 305.62 81.9394C308.523 84.0134 309.199 88.0624 307.127 90.9644L250.541 170.21C249.991 170.979 249.279 171.619 248.456 172.084C247.633 172.549 246.718 172.828 245.776 172.902C243.861 173.075 242.037 172.366 240.697 171.026L205.572 135.902C204.35 134.68 203.677 133.056 203.677 131.327C203.677 129.598 204.35 127.973 205.573 126.751C206.795 125.528 208.419 124.855 210.147 124.855C211.875 124.855 213.503 125.53 214.725 126.753Z" fill="url(#paint1_linear_1166_1362)"/>
<defs>
<linearGradient id="paint0_linear_1166_1362" x1="376.502" y1="383.292" x2="179.611" y2="-30.0695" gradientUnits="userSpaceOnUse">
<stop offset="0.0001" stop-color="#BE42B1"/>
<stop offset="1" stop-color="#3B4BAA"/>
</linearGradient>
<linearGradient id="paint1_linear_1166_1362" x1="340.48" y1="177.011" x2="315.82" y2="43.5979" gradientUnits="userSpaceOnUse">
<stop offset="0.0001" stop-color="#BE42B1"/>
<stop offset="1" stop-color="#3B4BAA"/>
</linearGradient>
</defs>
</svg>
