<svg width="478" height="478" viewBox="0 0 478 478" fill="none" xmlns="http://www.w3.org/2000/svg">
<path d="M213.627 179.513C212.456 191.359 214.141 203.313 218.539 214.374C222.937 225.435 229.921 235.282 238.907 243.089C240.913 244.825 242.521 246.974 243.62 249.389C244.72 251.804 245.284 254.428 245.275 257.081V273.273C245.285 281.757 248.66 289.89 254.659 295.889C260.658 301.888 268.791 305.263 277.275 305.273H293.275C301.758 305.263 309.891 301.888 315.89 295.889C321.889 289.89 325.264 281.757 325.275 273.273V257.073C325.244 254.461 325.78 251.873 326.846 249.488C327.912 247.102 329.483 244.977 331.451 243.257C339.455 236.343 345.897 227.805 350.348 218.21C354.8 208.615 357.16 198.183 357.271 187.607C357.382 177.03 355.243 166.551 350.994 156.865C346.745 147.178 340.484 138.507 332.627 131.425C325.166 124.683 316.348 119.617 306.766 116.567C297.184 113.518 287.06 112.555 277.075 113.745C260.585 115.83 245.302 123.488 233.762 135.45C222.222 147.412 215.117 162.959 213.627 179.513ZM261.275 257.273H309.275V265.273H261.275V257.273ZM293.275 289.273H277.275C274.479 289.265 271.734 288.521 269.316 287.117C266.898 285.713 264.892 283.698 263.499 281.273H307.051C305.657 283.698 303.651 285.713 301.233 287.117C298.815 288.521 296.071 289.265 293.275 289.273ZM278.875 129.633C281.013 129.392 283.163 129.271 285.315 129.273C298.857 129.257 311.922 134.275 321.971 143.353C328.126 148.914 333.03 155.719 336.358 163.317C339.686 170.915 341.362 179.134 341.275 187.429C341.189 195.723 339.341 203.905 335.854 211.432C332.367 218.959 327.321 225.659 321.051 231.089C317.793 233.94 315.124 237.399 313.195 241.273H293.275V225.273C293.276 224.031 292.987 222.806 292.432 221.695C291.876 220.584 291.069 219.618 290.075 218.873L262.603 198.265C262.192 197.957 261.858 197.557 261.628 197.097C261.397 196.638 261.276 196.131 261.275 195.617V188.585C261.326 187.955 261.55 187.35 261.922 186.838C262.295 186.327 262.802 185.928 263.386 185.685C263.971 185.443 264.611 185.367 265.237 185.465C265.862 185.563 266.448 185.832 266.931 186.241L271.619 190.929C275.298 194.442 280.188 196.401 285.275 196.401C290.361 196.401 295.252 194.442 298.931 190.929L303.619 186.241C304.101 185.832 304.687 185.563 305.312 185.465C305.938 185.367 306.578 185.443 307.163 185.685C307.748 185.928 308.254 186.327 308.627 186.838C308.999 187.35 309.224 187.955 309.275 188.585V195.617C309.273 196.133 309.153 196.641 308.922 197.101C308.692 197.562 308.358 197.963 307.947 198.273L296.475 206.873L306.075 219.673L317.547 211.073C319.942 209.27 321.886 206.935 323.227 204.253C324.567 201.572 325.268 198.616 325.275 195.617V188.585C325.275 184.766 324.142 181.032 322.02 177.856C319.898 174.68 316.882 172.205 313.353 170.743C309.824 169.281 305.941 168.899 302.195 169.644C298.449 170.389 295.007 172.228 292.307 174.929L287.619 179.617C286.995 180.236 286.153 180.583 285.275 180.583C284.396 180.583 283.554 180.236 282.931 179.617L278.243 174.929C275.542 172.228 272.101 170.389 268.354 169.644C264.608 168.899 260.725 169.281 257.196 170.743C253.667 172.205 250.651 174.68 248.529 177.856C246.407 181.032 245.274 184.766 245.275 188.585V195.617C245.282 198.614 245.984 201.569 247.324 204.249C248.665 206.929 250.609 209.262 253.003 211.065L277.275 229.273V241.273H257.307C255.341 237.356 252.638 233.855 249.347 230.961C242.302 224.825 236.83 217.09 233.387 208.406C229.943 199.721 228.629 190.338 229.555 181.041C230.807 168.179 236.354 156.112 245.301 146.786C254.248 137.46 266.075 131.418 278.875 129.633ZM277.275 81.2734H293.275V105.273H277.275V81.2734Z" fill="white"/>
<path d="M365.275 177.274H389.275V193.274H365.275V177.274ZM181.275 177.274H205.275V193.274H181.275V177.274ZM206.043 117.41L217.355 106.098L234.315 123.058L223.011 134.378L206.043 117.41ZM336.139 123.074L353.099 106.106L364.419 117.418L347.451 134.378L336.139 123.074Z" fill="white"/>
<path d="M285.275 344.067C320.421 344.042 354.471 331.833 381.625 309.519C408.778 287.205 427.355 256.166 434.19 221.691C441.025 187.216 435.695 151.438 419.109 120.452C402.523 89.4657 375.706 65.189 343.228 51.7577C310.749 38.3265 274.619 36.5716 240.992 46.792C207.365 57.0125 178.322 78.576 158.81 107.809C139.299 137.041 130.527 172.135 133.989 207.11C137.451 242.085 152.932 274.778 177.795 299.619C191.9 313.741 208.655 324.938 227.1 332.566C245.545 340.194 265.315 344.102 285.275 344.067ZM189.107 95.9706C208.127 76.951 232.36 63.9987 258.741 58.7515C285.123 53.5042 312.467 56.1977 337.318 66.4913C362.168 76.785 383.408 94.2165 398.352 116.581C413.296 138.946 421.272 165.24 421.272 192.139C421.272 219.037 413.296 245.331 398.352 267.696C383.408 290.061 362.168 307.492 337.318 317.786C312.467 328.079 285.123 330.773 258.741 325.526C232.36 320.278 208.127 307.326 189.107 288.307C176.425 275.707 166.36 260.724 159.492 244.22C152.624 227.715 149.089 210.015 149.089 192.139C149.089 174.262 152.624 156.562 159.492 140.058C166.36 123.553 176.425 108.57 189.107 95.9706Z" fill="white"/>
<path d="M49.9387 472.73C52.9422 475.724 57.01 477.405 61.2507 477.405C65.4914 477.405 69.5591 475.724 72.5627 472.73L160.819 384.474C163.818 381.474 165.503 377.405 165.503 373.162C165.503 368.92 163.818 364.851 160.819 361.85L174.179 348.49C213.417 376.383 261.703 388.518 309.466 382.488C357.23 376.459 400.985 352.707 432.062 315.937C463.138 279.168 479.267 232.067 477.253 183.966C475.238 135.866 455.227 90.2775 421.185 56.2356C387.143 22.1938 341.555 2.18274 293.455 0.168296C245.354 -1.84615 198.253 14.283 161.484 45.3593C124.714 76.4356 100.962 120.191 94.9325 167.955C88.9033 215.718 101.038 264.004 128.931 303.242L115.571 316.602C112.567 313.606 108.497 311.916 104.255 311.916C100.012 311.916 95.9426 313.598 92.9387 316.594L4.67467 404.85C1.681 407.854 0 411.922 0 416.162C0 420.403 1.681 424.471 4.67467 427.474L49.9387 472.73ZM160.819 67.6903C185.432 43.0755 216.793 26.3123 250.933 19.5207C285.074 12.729 320.462 16.214 352.623 29.5348C384.783 42.8556 412.271 65.4139 431.61 94.3571C450.95 123.3 461.272 157.328 461.272 192.138C461.272 226.948 450.95 260.976 431.61 289.919C412.271 318.863 384.783 341.421 352.623 354.742C320.462 368.063 285.074 371.548 250.933 364.756C216.793 357.964 185.432 341.201 160.819 316.586C144.409 300.28 131.386 280.89 122.5 259.531C113.613 238.173 109.038 215.268 109.038 192.134C109.038 169.001 113.613 146.096 122.5 124.737C131.386 103.379 144.409 83.9884 160.819 67.6823V67.6903ZM138.771 316.01C142.195 320.066 145.691 324.082 149.507 327.898C153.331 331.722 157.347 335.21 161.395 338.642L149.507 350.53L126.883 327.898L138.771 316.01ZM104.259 327.898L149.507 373.154L61.2587 461.434L15.9947 416.154L104.259 327.898Z" fill="white"/>
</svg>
