<svg width="512" height="512" viewBox="0 0 512 512" fill="none" xmlns="http://www.w3.org/2000/svg">
<g clip-path="url(#clip0_1164_1271)">
<path d="M141.1 465.779V497.011C141.1 505.291 147.816 512.003 156.1 512.003H256L291.535 433.853L256 364.207C256 364.207 245.91 351.274 241 351.914C215.27 355.262 192.21 367.125 174.75 384.576C153.96 405.353 141.1 434.067 141.1 465.779Z" fill="#6AABFF"/>
<path d="M370.9 465.779V497.011C370.9 505.291 364.184 512.003 355.9 512.003H256V364.207C256 364.207 266.09 351.274 271 351.914C296.73 355.262 319.79 367.125 337.25 384.576C358.04 405.353 370.9 434.067 370.9 465.779Z" fill="#5980FF"/>
<path d="M507.701 166.233L480.741 193.638L486.431 231.646C486.75 233.779 486.606 235.956 486.007 238.028C485.409 240.1 484.37 242.018 482.962 243.652C481.554 245.286 479.81 246.596 477.85 247.495C475.889 248.393 473.757 248.857 471.601 248.856C469.311 248.856 467.021 248.336 464.901 247.277L430.501 230.127L396.091 247.277C393.635 248.502 390.892 249.03 388.157 248.805C385.423 248.579 382.802 247.609 380.581 245.998C378.36 244.386 376.624 242.196 375.562 239.665C374.501 237.134 374.154 234.36 374.561 231.646L380.251 193.638L353.291 166.233C351.369 164.277 350.02 161.831 349.391 159.162C348.761 156.492 348.876 153.701 349.721 151.092C350.572 148.483 352.122 146.157 354.203 144.367C356.283 142.577 358.814 141.391 361.521 140.938L399.441 134.601L417.191 100.52C418.457 98.0845 420.368 96.0432 422.715 94.6192C425.062 93.1952 427.755 92.4432 430.501 92.4453C436.091 92.4453 441.221 95.5533 443.801 100.52L461.551 134.601L499.471 140.938C502.178 141.391 504.709 142.577 506.789 144.367C508.869 146.157 510.419 148.483 511.271 151.092C512.116 153.701 512.23 156.492 511.601 159.161C510.971 161.831 509.622 164.277 507.701 166.233Z" fill="#FF9922"/>
<path d="M158.711 166.236L131.751 193.641L137.441 231.649C137.76 233.782 137.616 235.959 137.017 238.031C136.418 240.102 135.38 242.021 133.972 243.655C132.564 245.288 130.82 246.599 128.859 247.497C126.899 248.395 124.767 248.86 122.611 248.859C120.321 248.859 118.031 248.339 115.911 247.28L81.5005 230.13L47.1005 247.28C44.6452 248.505 41.9013 249.033 39.1669 248.807C36.4324 248.582 33.8121 247.611 31.5905 246.001C29.3694 244.389 27.6334 242.198 26.5718 239.668C25.5103 237.137 25.1639 234.363 25.5705 231.649L31.2605 193.641L4.30054 166.236C2.37876 164.279 1.02992 161.834 0.400525 159.164C-0.228864 156.495 -0.114727 153.704 0.730537 151.095C1.58203 148.486 3.13209 146.16 5.21239 144.37C7.29269 142.58 9.82369 141.394 12.5305 140.941L50.4505 134.604L68.2005 100.523C69.4656 98.0884 71.375 96.0478 73.7203 94.6239C76.0656 93.1999 78.7568 92.4473 81.5005 92.448C87.1005 92.448 92.2305 95.556 94.8105 100.523L112.561 134.604L150.481 140.941C153.187 141.394 155.718 142.58 157.799 144.37C159.879 146.16 161.429 148.486 162.281 151.095C163.126 153.704 163.24 156.495 162.61 159.164C161.981 161.833 160.632 164.279 158.711 166.236ZM256.001 0L311.001 78.503L256.001 145.217L218.671 163.826C216.215 165.051 213.471 165.579 210.737 165.353C208.002 165.128 205.382 164.157 203.161 162.547C200.939 160.935 199.203 158.744 198.142 156.214C197.08 153.683 196.734 150.909 197.141 148.195L203.311 106.958L174.071 77.225C170.141 73.237 168.771 67.4 170.501 62.084C172.231 56.768 176.771 52.849 182.291 51.93L223.441 45.054L242.691 8.075C243.959 5.64071 245.87 3.60076 248.217 2.17704C250.564 0.753323 253.256 0.000341917 256.001 0Z" fill="#FFBB17"/>
<path d="M256 238.281L291.535 296.916L256 350.937C216.75 350.937 184.93 319.135 184.93 279.907C184.93 268.293 187.72 257.34 192.65 247.665C209.08 263.457 256 238.281 256 238.281Z" fill="#FFCCBD"/>
<path d="M327.07 279.907C327.07 319.135 295.25 350.937 256 350.937V238.281C256 238.281 302.92 263.457 319.35 247.666C324.28 257.34 327.07 268.294 327.07 279.907Z" fill="#FFBDA9"/>
<path d="M256 208.883L282.674 238.286L256 273.176C231.4 273.176 209.08 263.462 192.65 247.671C204.42 224.644 228.37 208.883 256 208.883Z" fill="#8C4D4D"/>
<path d="M319.35 247.672C302.92 263.463 280.6 273.177 256 273.177V208.883C283.63 208.884 307.58 224.645 319.35 247.672Z" fill="#733333"/>
<path d="M256 350.938L265.582 379.309L256 417.759C247.72 417.759 241 411.043 241 402.768V351.908C245.91 351.268 250.92 350.938 256 350.938Z" fill="#E6F2FF"/>
<path d="M271 351.908V402.768C271 411.043 264.28 417.759 256 417.759V350.938C261.08 350.938 266.09 351.268 271 351.908Z" fill="#CCE6FF"/>
<path d="M337.93 77.226L308.69 106.959L314.86 148.196C315.18 150.33 315.035 152.507 314.436 154.58C313.837 156.653 312.797 158.571 311.388 160.205C309.979 161.839 308.234 163.15 306.272 164.047C304.31 164.945 302.178 165.408 300.02 165.406C297.74 165.406 295.45 164.886 293.33 163.827L256 145.218V0C258.745 0.000341917 261.437 0.753323 263.784 2.17704C266.13 3.60076 268.042 5.64071 269.31 8.075L288.56 45.054L329.71 51.93C335.23 52.85 339.77 56.767 341.5 62.084C343.23 67.401 341.86 73.239 337.93 77.226Z" fill="#FF9922"/>
</g>
<defs>
<clipPath id="clip0_1164_1271">
<rect width="512" height="512" fill="white"/>
</clipPath>
</defs>
</svg>
