<svg width="1653" height="1051" viewBox="0 0 1653 1051" fill="none" xmlns="http://www.w3.org/2000/svg">
<g clip-path="url(#clip0_1455_64)">
<path d="M57.7698 85.579C57.7698 103.751 46.6945 117.194 27.6949 117.194C11.8731 117.194 0 103.751 0 85.579C0 68.1776 12.6575 53.9511 29.2771 53.9511C46.6945 53.9511 57.7698 68.1776 57.7698 85.579ZM13.9738 1035.81V308.94H43.796V1035.81H13.9738ZM1035.71 517.915C1035.71 884.379 832.084 1050.97 609.195 1050.97C381.507 1050.97 197.122 870.776 197.122 533.072C197.122 186.321 387.928 0.0468779 625.23 0.0468779C857.718 0.020311 1035.71 183.252 1035.71 517.915ZM227.343 525.487C227.343 803.35 362.135 1019.21 610.605 1019.21C860.803 1019.21 1004.3 796.708 1004.3 522.325C1004.3 267.881 889.322 35.6731 626.945 35.6731C364.568 35.6731 227.343 254.305 227.343 525.487ZM1145.16 957.052C1195.19 990.367 1281.55 1022.54 1355.81 1022.54C1496.78 1022.54 1622.14 924.016 1622.14 779.001C1622.14 644.427 1538.63 574.21 1396.85 513.89C1269.95 459.906 1155.86 401.313 1155.86 257.453C1155.86 107.55 1274.07 1.52134 1434.74 1.52134C1521.13 1.52134 1586.31 25.7503 1616.62 46.9507L1604.58 73.0925C1578.81 54.9341 1509.17 31.7943 1433.41 31.7943C1263.61 31.7943 1189.65 159.98 1189.65 254.345C1189.65 384.682 1290.77 428.265 1421.12 490.352C1572.68 564.54 1653 629.961 1653 772.32C1653 925.265 1543.88 1049.41 1349.87 1049.41C1269.53 1049.41 1177.08 1022.17 1131.61 987.325L1145.16 957.052Z" fill="url(#paint0_linear_1455_64)"/>
</g>
<defs>
<linearGradient id="paint0_linear_1455_64" x1="826.5" y1="0.046875" x2="826.5" y2="1050.97" gradientUnits="userSpaceOnUse">
<stop stop-color="#00FFC9"/>
<stop offset="1" stop-color="#8D3DFA"/>
</linearGradient>
<clipPath id="clip0_1455_64">
<rect width="1653" height="1051" fill="white"/>
</clipPath>
</defs>
</svg>
