<svg width="47" height="37" viewBox="0 0 47 37" fill="none" xmlns="http://www.w3.org/2000/svg">
<path d="M11.0679 10.6446C12.5933 8.95917 14.436 7.59105 16.4906 6.61848C18.5452 5.64591 20.7715 5.08796 23.0419 4.97656C25.3122 5.08809 27.5382 5.6461 29.5927 6.61867C31.6471 7.59124 33.4896 8.95928 35.0149 10.6446C40.3739 16.4346 50.7259 35.3326 23.0419 35.3326C-4.64309 35.3326 5.70991 16.4346 11.0679 10.6446Z" fill="#D4F5FF"/>
<path d="M30.0952 21.8376C29.1192 21.8376 28.3332 20.8106 28.3332 19.5656C28.3332 18.3196 29.1192 17.2816 30.0952 17.2816C31.0712 17.2816 31.8572 18.2916 31.8572 19.5656C31.8572 20.8396 31.0662 21.8376 30.0952 21.8376ZM15.9552 21.8376C14.9852 21.8376 14.1992 20.8116 14.1992 19.5486C14.1992 18.2866 14.9842 17.2656 15.9552 17.2656C16.9252 17.2656 17.7172 18.2916 17.7172 19.5656C17.7172 20.8396 16.9312 21.8376 15.9552 21.8376Z" fill="black"/>
<path d="M29.0076 19.8734C28.6376 19.8734 28.3336 19.7044 28.3336 19.4914C28.3336 19.2784 28.6366 19.1094 29.0076 19.1094C29.3776 19.1094 29.6806 19.2834 29.6806 19.4914C29.6806 19.6994 29.3776 19.8734 29.0076 19.8734ZM14.8676 19.7864C14.5776 19.7864 14.3496 19.6524 14.3496 19.4914C14.3496 19.3294 14.5786 19.2014 14.8676 19.2014C15.1576 19.2014 15.3796 19.3294 15.3796 19.4914C15.3796 19.6524 15.1566 19.7864 14.8676 19.7864Z" fill="white"/>
<path d="M41.1433 25.8276C41.1433 25.8276 41.1433 32.2526 23.0433 32.2526C4.94227 32.2526 4.91327 25.8276 4.91327 25.8276C4.91327 25.8276 3.09627 35.6746 23.0433 35.6746C42.9893 35.6746 41.1433 25.8276 41.1433 25.8276ZM31.3253 9.39159C36.3423 11.6006 40.3083 20.9606 40.3083 20.9606C38.6213 2.32459 16.1793 5.06359 17.1513 5.70359C18.0313 5.60559 18.8823 5.56159 19.7063 5.56559C15.9193 6.58659 11.5463 9.50859 7.77527 16.0456C7.08827 17.4796 5.51527 18.9276 6.03227 20.6616C8.13727 15.3866 14.5853 7.78459 22.2873 7.78459C26.0473 7.78459 29.5723 8.51759 31.3273 9.39059L31.3253 9.39159Z" fill="#82D0E9"/>
<path d="M21.9155 23.655C22.0625 23.775 22.2325 23.867 22.4155 23.923C22.8115 24.058 23.2415 24.058 23.6385 23.923C23.8205 23.867 23.9895 23.775 24.1375 23.654C24.3295 23.5269 24.4933 23.3617 24.6189 23.1687C24.7444 22.9757 24.8291 22.759 24.8675 22.532C24.8675 21.617 24.2325 21.825 23.0265 21.825C21.8205 21.825 21.1865 21.617 21.1865 22.532C21.2249 22.7589 21.3093 22.9756 21.4347 23.1686C21.5601 23.3616 21.7238 23.5268 21.9155 23.654V23.655Z" fill="#78BFD6"/>
<path d="M33.3368 16.8362C31.8003 18.3015 29.76 19.1212 27.6368 19.1262C27.6368 19.1262 28.7028 16.4432 33.3368 16.8362ZM12.8018 16.8362C14.3382 18.3015 16.3786 19.1212 18.5018 19.1262C18.5018 19.1262 17.4368 16.4432 12.8018 16.8362Z" fill="black"/>
<path d="M10.6797 10.884C8.88372 9.23799 8.29172 6.57099 9.15372 5.90099C10.0157 5.23099 12.9037 5.90099 14.7017 7.37299C13.8777 8.00399 11.5297 9.93399 10.6797 10.884Z" fill="#82D0E9"/>
<path d="M9.37486 8.23375C8.77486 7.48175 8.47786 6.22975 9.26086 5.64175C9.80486 5.35175 11.0109 5.32175 11.8169 6.22975C11.4899 6.42975 9.86686 7.39975 9.37486 8.23475V8.23375Z" fill="#D4F5FF"/>
<path d="M19.6448 4.96755C19.5138 4.96755 19.3888 5.02755 19.2578 5.06655C19.4478 3.65155 19.8538 0.828548 20.7778 0.789548C21.7008 0.749548 23.0508 3.19255 23.7578 4.56855H23.2998C22.0705 4.56708 20.8447 4.70022 19.6448 4.96755Z" fill="#82D0E9"/>
<path d="M14.8167 7.20305C14.6687 7.26805 14.5527 7.38605 14.4207 7.48805C14.0447 6.04305 13.3237 3.14605 14.3507 2.65205C15.3777 2.15805 17.9227 3.82505 19.2967 4.78905L18.7787 5.01605C17.3927 5.6199 16.0662 6.35209 14.8167 7.20305Z" fill="#82D0E9"/>
<path d="M14.164 5.43479C13.976 4.44779 13.124 2.39679 14.758 2.85479C14.678 3.10779 14.869 3.74879 16.388 4.68679C15.988 4.71179 14.535 4.99879 14.164 5.43479Z" fill="#D4F5FF"/>
<path fill-rule="evenodd" clip-rule="evenodd" d="M10.0748 6.22486C9.69085 6.23686 9.48485 6.31686 9.40285 6.38086C9.34785 6.42286 9.25485 6.54886 9.22085 6.84786C9.18785 7.13686 9.22085 7.51787 9.33785 7.95387C9.5716 8.78543 9.99386 9.55193 10.5718 10.1939C11.4438 9.33987 12.8768 8.14187 13.7918 7.40887C13.0532 6.94157 12.2437 6.5971 11.3948 6.38886C10.9638 6.27714 10.5201 6.22201 10.0748 6.22486ZM11.6728 5.34186C12.8028 5.61586 14.0618 6.17386 15.0368 6.96186L15.5628 7.38786L15.0148 7.80786C14.1698 8.45286 11.8048 10.3949 10.9688 11.3189L10.5988 11.7289L10.1988 11.3649C9.28457 10.5258 8.62302 9.44794 8.28885 8.25287C8.14885 7.72687 8.09085 7.20786 8.14285 6.74986C8.19285 6.30286 8.35985 5.83687 8.74585 5.53687C9.10585 5.25887 9.59485 5.16287 10.0638 5.14887C10.6063 5.14249 11.1473 5.20738 11.6728 5.34186Z" fill="black"/>
<path d="M7.0093 15.6474C6.4123 14.7544 5.3783 12.1524 6.1183 11.3494C6.8583 10.5464 9.2423 11.1104 10.4493 11.5784C9.2053 12.8584 7.9863 14.1704 7.0093 15.6474Z" fill="#82D0E9"/>
<path fill-rule="evenodd" clip-rule="evenodd" d="M15.2474 3.14755C14.8834 3.06155 14.6754 3.08955 14.5824 3.13455C14.5514 3.14955 14.4584 3.21755 14.4004 3.51655C14.3444 3.80355 14.3444 4.19655 14.3914 4.65955C14.4574 5.30355 14.6064 6.00955 14.7544 6.62455C15.3264 6.29155 15.9364 6.04855 16.5314 5.81755L16.6824 5.75955C17.2724 5.53055 17.8564 5.30455 18.4304 5.00855C17.8301 4.47307 17.1685 4.01052 16.4594 3.63055C16.0124 3.39455 15.5964 3.22855 15.2474 3.14755ZM16.9574 2.68555C17.9494 3.20855 18.9814 3.98455 19.7024 4.75855L20.1444 5.23255L19.5944 5.57555C18.7394 6.10955 17.8684 6.44655 17.0844 6.74955L16.9184 6.81455C16.0764 7.14155 15.3574 7.43855 14.7484 7.91155L14.1084 8.40855L13.9044 7.62355C13.7164 6.90355 13.4314 5.78155 13.3284 4.76855C13.2764 4.26555 13.2654 3.75055 13.3514 3.31155C13.4354 2.88355 13.6374 2.40355 14.1194 2.17155C14.5394 1.96955 15.0394 2.00155 15.4894 2.10555C15.9574 2.21455 16.4614 2.42355 16.9574 2.68555Z" fill="black"/>
<path d="M6.6847 15.9803C5.9297 15.0143 4.5407 12.1273 5.3277 11.1263C6.1147 10.1263 8.8957 10.5263 10.3177 10.9393C8.9887 12.5413 7.6917 14.1793 6.6847 15.9803Z" fill="#82D0E9"/>
<path d="M6.70134 15.9663C6.02434 14.9423 4.54734 12.2023 5.73134 11.0193C6.83634 9.91429 9.33433 10.7023 10.7203 11.2263C9.26934 12.7183 7.84834 14.2493 6.70134 15.9663Z" fill="#82D0E9"/>
<path fill-rule="evenodd" clip-rule="evenodd" d="M6.9474 15.3313C7.7284 13.9863 8.6494 12.7263 9.5954 11.5083C9.02284 11.3786 8.43987 11.3003 7.8534 11.2743C6.9394 11.2473 6.2834 11.4273 5.9584 11.8263C5.8034 12.0173 5.7304 12.2753 5.7524 12.6223C5.7744 12.9763 5.8944 13.3853 6.0824 13.8173C6.3194 14.3623 6.6454 14.8973 6.9474 15.3313ZM4.6854 12.6903C4.6524 12.1603 4.7574 11.6103 5.1294 11.1513C5.7914 10.3383 6.9124 10.1773 7.8854 10.2063C8.8924 10.2363 9.9404 10.4763 10.6654 10.6683L11.4534 10.8763L10.9474 11.5163C9.6584 13.1463 8.4274 14.7823 7.4874 16.5593L7.1114 17.2703L6.6014 16.6483C6.1954 16.1533 5.5314 15.2293 5.1014 14.2433C4.8874 13.7513 4.7184 13.2133 4.6854 12.6903Z" fill="black"/>
<path d="M28.1957 0.881291C29.0437 1.03329 28.9587 4.51729 28.9477 5.93129C28.0816 5.52245 27.1754 5.20475 26.2437 4.98329C25.7142 4.86441 25.1783 4.77627 24.6387 4.71929C25.5757 3.54729 27.3267 0.724291 28.1957 0.881291ZM35.0737 3.72729C36.2467 4.19229 34.5687 7.91829 34.2497 9.41129C33.5263 8.74567 32.7578 8.13087 31.9497 7.57129C31.5227 7.26729 31.0737 7.00929 30.6297 6.73429L29.9007 6.34729C30.9057 5.60729 34.0977 3.34529 35.0737 3.72729Z" fill="#82D0E9"/>
<path d="M42.8504 20.6206C43.0754 21.3606 42.3454 22.3036 41.7284 22.9036C41.5527 21.8443 41.2919 20.8009 40.9484 19.7836L40.8814 19.5996C41.5484 19.6556 42.6144 19.8576 42.8514 20.6196L42.8504 20.6206ZM19.3154 3.86859C19.9224 2.51659 19.6034 0.539589 21.1614 0.954589C21.0554 1.28759 20.8054 2.48859 20.9684 4.04359C20.2364 3.91859 20.0154 3.84759 19.3154 3.86859ZM28.3974 1.00859C28.5494 1.03459 28.0834 1.30659 26.7554 3.91459C26.2334 3.79459 25.8734 3.71759 25.3954 3.71759C26.3804 2.54459 27.4824 0.851589 28.3974 1.00859ZM35.4994 3.54259C36.0764 3.92959 35.2844 3.59859 33.1174 5.65259C32.5024 5.29359 32.1494 5.12259 31.7324 4.96459C32.3944 4.12759 34.8554 3.11059 35.4994 3.54259Z" fill="#D4F5FF"/>
<path d="M40.8316 9.13007C41.5386 9.96007 38.9736 12.7541 38.2276 13.7981C37.2723 12.4913 36.1977 11.2761 35.0176 10.1681C36.2976 9.69607 40.0456 8.19207 40.8316 9.13007ZM42.8456 15.6661C43.4796 16.8451 41.7236 18.1741 40.8756 18.7301C40.2314 17.3047 39.4518 15.9444 38.5476 14.6681C39.9226 14.5161 42.2506 14.5611 42.8456 15.6661Z" fill="#82D0E9"/>
<path d="M40.9769 9.07116C41.6839 9.90116 39.9069 9.23716 38.9519 9.95416C37.9969 8.64716 38.5989 9.72816 37.4189 8.62016C38.6989 8.14916 40.1909 8.13416 40.9769 9.07016V9.07116Z" fill="#D4F5FF"/>
<path d="M6.84537 31.5553C8.47859 32.9204 10.3753 33.9347 12.4174 34.5353C12.8494 34.6693 13.2474 34.7823 13.6464 34.8883C19.9322 36.4012 26.4889 36.3875 32.7684 34.8483C33.1384 34.7483 33.5084 34.6473 33.8514 34.5353C35.8908 33.9326 37.7851 32.9184 39.4174 31.5553C40.2449 30.8452 40.9254 29.9799 41.4204 29.0083C41.9099 28.0275 42.1779 26.9511 42.2054 25.8553C42.2203 25.1641 42.1902 24.4726 42.1154 23.7853C42.6774 23.2573 44.1354 21.7813 43.7094 20.3733C43.5629 19.9746 43.3115 19.6228 42.9816 19.3553C42.6518 19.0877 42.2557 18.9143 41.8354 18.8533C43.0304 17.8203 43.9234 16.3793 43.2894 15.0383C42.5944 13.5623 40.4444 13.6403 39.1144 13.7413L39.4394 13.2973C40.5614 11.8333 42.2454 9.61728 41.3694 8.52828C40.4274 7.33828 37.6444 8.19728 35.2424 9.14028C35.3154 8.89328 35.4114 8.57928 35.5174 8.28728C36.2024 6.22228 37.1394 3.39428 35.5854 2.77128C34.4294 2.31728 31.8984 3.82628 29.8454 5.29128C29.8454 2.89528 29.5924 0.241276 28.2624 0.0282755C26.9324 -0.185724 25.4574 2.03128 24.4364 3.50628C24.3354 3.66328 24.2344 3.80428 24.1444 3.93328C23.3644 1.82328 22.2084 -0.182724 20.5574 0.0132756C18.9304 0.172276 18.9254 3.12728 18.8534 4.50528L18.8134 4.78028C18.7949 4.87768 18.751 4.96844 18.6859 5.04328C18.6209 5.11813 18.5372 5.17437 18.4434 5.20628C17.9614 5.36928 17.4674 5.56628 16.9394 5.80128C16.5414 5.97528 16.1544 6.18328 15.7844 6.36228L15.2624 6.66028C14.9024 6.87828 14.5324 7.10328 14.1844 7.35028C13.3205 7.94608 12.5028 8.6063 11.7384 9.32528C10.2259 10.7548 8.89365 12.3637 7.77137 14.1163C6.65272 15.8601 5.74503 17.7305 5.06737 19.6883C4.38032 21.6631 4.03865 23.7415 4.05737 25.8323C4.08615 26.9282 4.35407 28.0047 4.84237 28.9863C5.33878 29.9636 6.01884 30.8362 6.84537 31.5563V31.5553ZM42.6324 20.6873C42.7554 21.1023 42.4864 21.7253 41.9024 22.3703C41.7399 21.515 41.5207 20.6715 41.2464 19.8453C41.8014 19.9633 42.4694 20.1713 42.6324 20.6873ZM42.2574 15.5033C42.5544 16.1433 42.2734 17.1243 40.6744 18.3473C40.179 17.1401 39.5937 15.9718 38.9234 14.8523C41.7574 14.6103 42.0944 15.1393 42.2684 15.5093L42.2574 15.5033ZM40.4674 9.20728C40.8544 9.70128 39.2944 11.6873 38.5484 12.6473C38.3354 12.9213 38.1384 13.1743 37.9874 13.3873C37.2188 12.2756 36.3652 11.2251 35.4344 10.2453C39.1094 8.77528 40.2094 8.87028 40.4784 9.21328L40.4674 9.20728ZM35.1534 3.79828C35.7934 4.05628 35.0084 6.31228 34.5424 7.65828C34.3734 8.13528 34.2164 8.59028 34.1104 8.96628C33.4642 8.3924 32.784 7.85809 32.0734 7.36628C31.7103 7.11592 31.3359 6.88234 30.9514 6.66628L30.5974 6.45228L30.3114 6.30128C32.7244 4.59528 34.6604 3.59628 35.1654 3.80428L35.1534 3.79828ZM25.5814 3.85428C26.3114 2.79928 27.5174 1.04928 28.0614 1.13328C28.1734 1.13328 28.7184 1.45828 28.7184 5.54928C27.9422 5.22041 27.1384 4.96106 26.3164 4.77428C25.9094 4.68428 25.4994 4.61228 25.0874 4.55628L25.5814 3.85428ZM20.6574 1.14928C21.4024 0.943276 22.1724 1.60128 23.2074 4.61228C22.1334 4.61228 20.9364 4.69128 19.9364 4.76928C19.9364 2.41028 20.1804 1.28228 20.6574 1.14928ZM6.23437 20.1263C6.87747 18.2604 7.74197 16.4783 8.80937 14.8183C9.87489 13.1476 11.1432 11.6152 12.5854 10.2563C13.3007 9.55931 14.0697 8.91967 14.8854 8.34328C15.2174 8.10228 15.5704 7.88328 15.9184 7.67028L16.3284 7.42828C16.6874 7.23228 17.0584 7.02428 17.4504 6.86828C19.2193 5.98646 21.1688 5.52747 23.1454 5.52747C25.1219 5.52747 27.0714 5.98646 28.8404 6.86828C29.2164 7.03028 29.5864 7.23828 29.9624 7.42828L30.3274 7.64228C30.6924 7.86028 31.0674 8.09028 31.4164 8.34228C32.2264 8.91028 32.9934 9.53628 33.7104 10.2173C35.1446 11.5818 36.4054 13.1177 37.4644 14.7903C38.53 16.4597 39.3908 18.2512 40.0284 20.1263C40.6784 21.9643 41.0124 23.8993 41.0164 25.8493C40.9969 26.7774 40.7768 27.6902 40.3714 28.5253C39.9509 29.3784 39.3676 30.141 38.6544 30.7703C37.148 32.0488 35.3947 33.0036 33.5034 33.5753C32.5504 33.8913 31.5794 34.1523 30.5964 34.3553C30.3894 34.4003 30.0074 34.4623 29.2664 34.5403L28.5204 34.6083C26.1228 34.8921 23.7077 35.0007 21.2944 34.9333C18.9934 34.7983 16.1604 34.4563 15.6834 34.3723C14.6982 34.1395 13.7275 33.849 12.7764 33.5023C10.8844 32.933 9.13086 31.978 7.62637 30.6973C6.91503 30.0654 6.33149 29.303 5.90737 28.4513C5.50093 27.6168 5.28247 26.7033 5.26737 25.7753C5.26737 23.8513 5.59337 21.9403 6.23337 20.1253L6.23437 20.1263Z" fill="black"/>
<path d="M9.65435 11.1672C13.4504 7.93519 18.1674 6.71319 23.0424 6.66919C27.9174 6.71519 32.6344 7.93619 36.4314 11.1672C36.7184 11.4182 36.9574 11.7252 37.1354 12.0712L39.9774 17.6332H40.2584C40.3836 17.6277 40.5085 17.6509 40.6234 17.7012L40.6304 17.7042C40.7424 17.7499 40.8411 17.8232 40.9174 17.9172L40.9964 18.0142H41.7243L38.3314 11.2672C38.1084 10.8278 37.8334 10.4169 37.5124 10.0432L37.5114 10.0422C36.0204 8.33419 31.6734 4.99219 23.0424 4.99219C14.4144 4.99219 10.0664 8.30919 8.57835 10.0422C8.25635 10.4122 7.97835 10.8232 7.75435 11.2672L4.36035 18.0142H5.08035L5.16035 17.9202C5.24104 17.8237 5.3426 17.7467 5.45735 17.6952C5.57104 17.6449 5.69535 17.6232 5.81935 17.6322H6.10235L8.95535 12.0712C9.13135 11.7252 9.36935 11.4192 9.65435 11.1672Z" fill="#FF4444"/>
<path fill-rule="evenodd" clip-rule="evenodd" d="M23.0423 5.41231C14.5153 5.41231 10.2783 8.68831 8.87227 10.3253L8.87027 10.3283C8.57027 10.6713 8.31427 11.0533 8.10527 11.4653L5.11427 17.4123C5.17366 17.3717 5.23658 17.3366 5.30227 17.3073C5.48527 17.2263 5.76727 17.2113 5.96327 17.2113L8.70327 11.8713C8.90327 11.4783 9.17327 11.1293 9.49827 10.8433C13.3853 7.53331 18.1063 6.29331 23.0383 6.24831H23.0453C27.9783 6.29431 32.7103 7.53431 36.5983 10.8433C36.8123 11.0253 37.2943 11.6433 37.4033 11.8743L40.1323 17.2153C40.3253 17.2153 40.5903 17.2323 40.7693 17.3103H40.7723C40.8423 17.3403 40.9093 17.3753 40.9723 17.4183L37.9793 11.4663C37.7721 11.0575 37.5166 10.6751 37.2183 10.3273M23.0423 5.41231C31.5693 5.41231 35.8073 8.71231 37.2173 10.3273L23.0423 5.41231ZM8.28427 9.75831C9.85527 7.92831 14.3143 4.57031 23.0423 4.57031C31.7753 4.57031 36.2323 7.95631 37.8033 9.75631L37.8063 9.76031C38.1473 10.1563 38.4413 10.5953 38.6803 11.0673L38.6813 11.0683V11.0703L42.3863 18.4353H40.8133L40.6143 18.1913C40.5805 18.1498 40.5368 18.1175 40.4873 18.0973L40.4753 18.0923L40.4703 18.0903C40.4086 18.0632 40.3416 18.0505 40.2743 18.0533H40.2603L39.6573 18.0573L36.7033 12.2763C36.5519 11.9804 36.3459 11.7158 36.0963 11.4963C32.3923 8.34631 27.8563 7.13631 23.0423 7.09031C18.2273 7.13431 13.7083 8.34031 10.0053 11.4923C9.76027 11.7093 9.45727 11.9733 9.30527 12.2713L6.43727 18.0533H5.81327L5.79027 18.0523C5.72872 18.0475 5.66694 18.0578 5.61027 18.0823C5.55065 18.1095 5.49799 18.1498 5.45627 18.2003L5.25827 18.4353H3.69727L7.40227 11.0703V11.0683C7.64227 10.5943 7.93927 10.1543 8.28427 9.75831Z" fill="black"/>
<path d="M0.709485 20.9944C0.324893 22.1465 0.388447 23.4012 0.887485 24.5084C0.934745 24.6081 1.01541 24.6881 1.11549 24.7344C1.21749 24.7844 1.33549 24.7974 1.44749 24.7744C1.55249 24.7544 1.64902 24.7032 1.72449 24.6274C1.79661 24.5544 1.84235 24.4594 1.85449 24.3574C2.12162 21.8418 2.93747 19.4154 4.24448 17.2494C4.30034 17.1646 4.32435 17.0627 4.31227 16.9619C4.30019 16.861 4.25279 16.7677 4.17848 16.6984C4.0982 16.6197 3.99495 16.5686 3.88368 16.5524C3.7724 16.5362 3.65887 16.5558 3.55948 16.6084C2.55948 17.0984 1.36849 18.2554 0.709485 20.9944Z" fill="#FF4444"/>
<path d="M1.44197 25.3282C1.25971 25.3358 1.07874 25.2944 0.917967 25.2082C0.762421 25.1255 0.634235 24.9994 0.548967 24.8452C-0.0510331 23.6422 -0.151033 21.9512 0.208967 20.6682C0.747967 18.2392 1.70397 16.9342 3.11197 16.1282C3.29288 16.0359 3.49701 15.9991 3.69875 16.0224C3.9005 16.0457 4.09086 16.1281 4.24597 16.2592C4.39226 16.3863 4.49158 16.5589 4.52797 16.7492C4.56252 16.9371 4.5307 17.1312 4.43797 17.2982C3.22354 19.5055 2.50806 21.9523 2.34197 24.4662C2.33067 24.6597 2.25296 24.8434 2.12197 24.9862C1.98457 25.1349 1.80418 25.237 1.60597 25.2782C1.55356 25.3015 1.49848 25.3183 1.44197 25.3282ZM1.08597 20.8302C0.771967 21.9302 0.842967 23.4292 1.34197 24.4692C1.35897 24.5042 1.41497 24.5102 1.42197 24.5042C1.43739 24.5004 1.45131 24.492 1.46197 24.4802C1.4727 24.4683 1.47906 24.4532 1.47997 24.4372C1.64997 21.8302 2.39497 19.2812 3.67197 16.9472C3.68056 16.9347 3.68507 16.9198 3.68489 16.9045C3.68471 16.8893 3.67985 16.8746 3.67097 16.8622C3.65827 16.8536 3.64328 16.8491 3.62797 16.8492C3.61255 16.8494 3.59755 16.8543 3.58497 16.8632C2.75997 17.3062 1.69497 18.0922 1.08597 20.8302Z" fill="black"/>
<path d="M6.23872 16.8835C5.10437 19.812 4.39159 22.8866 4.12172 26.0155C4.1213 26.0378 4.11522 26.0595 4.10405 26.0788C4.09288 26.098 4.07699 26.1141 4.05788 26.1255C4.03876 26.137 4.01706 26.1433 3.99481 26.144C3.97256 26.1447 3.9505 26.1397 3.93072 26.1295L2.63072 25.5745C2.53409 25.5381 2.45053 25.4737 2.39072 25.3895C2.33464 25.3048 2.30569 25.2051 2.30772 25.1035C2.37653 22.2395 3.1401 19.4351 4.53272 16.9315C4.5755 16.855 4.63983 16.7927 4.71772 16.7525C4.79893 16.7111 4.88856 16.6888 4.97972 16.6875L6.17272 16.7345C6.19 16.7347 6.20686 16.7399 6.22127 16.7494C6.23569 16.7589 6.24706 16.7724 6.25402 16.7882C6.26098 16.8041 6.26324 16.8216 6.26052 16.8386C6.25781 16.8557 6.25024 16.8706 6.23872 16.8835Z" fill="#FF4444"/>
<path d="M6.05748 17.0321C6.07144 17.032 6.08522 17.0353 6.09761 17.0418C6.10999 17.0482 6.12059 17.0576 6.12848 17.0691C6.13623 17.0808 6.14093 17.0943 6.14216 17.1083C6.14338 17.1222 6.14108 17.1363 6.13548 17.1491C5.06442 19.9035 4.39002 22.7961 4.13248 25.7401C4.13184 25.7564 4.12798 25.7723 4.12114 25.7871C4.11429 25.8018 4.10459 25.8151 4.09259 25.8261C4.0806 25.837 4.06654 25.8455 4.05125 25.851C4.03595 25.8565 4.01972 25.8589 4.00348 25.8581C3.98719 25.8632 3.96977 25.8632 3.95348 25.8581L2.72948 25.3361C2.63923 25.3016 2.56127 25.241 2.50548 25.1621C2.45225 25.0823 2.42469 24.9881 2.42648 24.8921C2.49145 22.1985 3.20971 19.5609 4.51948 17.2061C4.55948 17.1341 4.62048 17.0761 4.69348 17.0381C4.76755 16.9981 4.85029 16.9768 4.93448 16.9761L6.05748 17.0321ZM4.93448 16.0781C4.69421 16.0769 4.45795 16.1397 4.25003 16.2601C4.0421 16.3805 3.87001 16.5541 3.75148 16.7631C2.35631 19.2414 1.58577 22.0222 1.50648 24.8651C1.49802 25.1469 1.57638 25.4245 1.73092 25.6602C1.88546 25.896 2.10873 26.0785 2.37048 26.1831L3.57748 26.7051C3.70548 26.7561 3.84248 26.7831 3.98148 26.7841C4.24567 26.7857 4.50018 26.6847 4.69151 26.5026C4.88284 26.3204 4.9961 26.0711 5.00748 25.8071C5.25193 22.9618 5.90009 20.1658 6.93248 17.5031C6.99443 17.3562 7.01965 17.1964 7.00597 17.0375C6.99229 16.8786 6.94012 16.7254 6.85397 16.5912C6.76781 16.457 6.65026 16.3458 6.51149 16.2672C6.37271 16.1886 6.21689 16.145 6.05748 16.1401L4.93448 16.0781Z" fill="black"/>
<path d="M40.2371 16.8876L41.3961 16.8516C41.4833 16.8529 41.5688 16.8755 41.6451 16.9176C41.7221 16.9576 41.7851 17.0176 41.8291 17.0936C43.1608 19.5419 43.8787 22.2768 43.9211 25.0636C43.9198 25.1624 43.891 25.259 43.8381 25.3426C43.7795 25.4238 43.698 25.4857 43.6041 25.5206L42.3361 26.0546C42.3164 26.0628 42.2949 26.0661 42.2736 26.0643C42.2523 26.0625 42.2317 26.0555 42.2136 26.044C42.1956 26.0325 42.1805 26.0169 42.1698 25.9983C42.1591 25.9798 42.153 25.9589 42.1521 25.9376C41.9074 22.8807 41.2289 19.8742 40.1371 17.0086C40.1302 16.9937 40.1276 16.9772 40.1295 16.961C40.1315 16.9447 40.1379 16.9294 40.1481 16.9166C40.1586 16.904 40.1724 16.8947 40.188 16.8895C40.2035 16.8844 40.2212 16.8837 40.2371 16.8876Z" fill="#FF4444"/>
<path d="M41.401 16.9928C41.4839 16.993 41.5655 17.0142 41.638 17.0544C41.7106 17.0946 41.7718 17.1525 41.816 17.2228C43.1229 19.5783 43.839 22.2157 43.903 24.9088C43.904 25.0055 43.8755 25.1002 43.8214 25.1804C43.7673 25.2606 43.6901 25.3225 43.6 25.3577L42.383 25.8798H42.327C42.2943 25.8798 42.2629 25.8668 42.2397 25.8438C42.2164 25.8207 42.2033 25.7895 42.203 25.7568C41.9542 22.81 41.2875 19.9137 40.223 17.1548C40.2173 17.1419 40.2149 17.1278 40.2162 17.1138C40.2174 17.0999 40.2221 17.0864 40.23 17.0748C40.2377 17.063 40.2482 17.0533 40.2606 17.0467C40.273 17.04 40.2869 17.0366 40.301 17.0368L41.423 16.9928H41.401ZM41.423 16.0948L40.301 16.1398C40.0601 16.1492 39.8309 16.2459 39.6562 16.4119C39.4814 16.5778 39.3729 16.8017 39.351 17.0417C39.338 17.2007 39.363 17.3618 39.426 17.5088C40.4554 20.1702 41.1032 22.9639 41.35 25.8068C41.3574 25.9727 41.4049 26.1344 41.4886 26.2779C41.5722 26.4215 41.6894 26.5426 41.8301 26.6309C41.9708 26.7192 42.1308 26.772 42.2964 26.7849C42.4621 26.7978 42.6283 26.7703 42.781 26.7048L43.987 26.1888C44.241 26.0838 44.459 25.9088 44.616 25.6838C44.777 25.4438 44.858 25.1588 44.846 24.8698C44.7656 22.0251 43.9952 19.2426 42.601 16.7618C42.4773 16.5584 42.3035 16.3902 42.0962 16.2733C41.8889 16.1563 41.655 16.0945 41.417 16.0938H41.423V16.0948Z" fill="black"/>
<path d="M45.7476 21.0294C46.1226 22.1874 46.0486 23.4294 45.5396 24.5414C45.4915 24.6406 45.4101 24.7199 45.3096 24.7654C45.2059 24.8134 45.0895 24.8267 44.9776 24.8034C44.8726 24.7824 44.7764 24.7301 44.7016 24.6534C44.6298 24.5795 44.5848 24.4838 44.5736 24.3814C44.3288 21.8639 43.5348 19.4307 42.2476 17.2534C42.1925 17.1682 42.1693 17.0662 42.1822 16.9656C42.195 16.8649 42.243 16.7721 42.3176 16.7034C42.3986 16.6252 42.5023 16.5749 42.6137 16.5596C42.7252 16.5443 42.8386 16.5649 42.9376 16.6184C43.9326 17.1174 45.1136 18.2854 45.7476 21.0294Z" fill="#FF4444"/>
<path d="M44.9801 25.3285C45.1631 25.3355 45.3451 25.2945 45.5031 25.2085C45.659 25.1259 45.7875 24.9998 45.8731 24.8455C46.4731 23.6425 46.5731 21.9515 46.2121 20.6685C45.6731 18.2395 44.7171 16.9345 43.3101 16.1285C43.129 16.036 42.9247 15.9991 42.7228 16.0224C42.5208 16.0457 42.3303 16.1282 42.1751 16.2595C42.0288 16.3866 41.9295 16.5592 41.8931 16.7495C41.8585 16.9374 41.8903 17.1315 41.9831 17.2985C43.1975 19.5058 43.913 21.9527 44.0791 24.4665C44.0891 24.6565 44.1671 24.8395 44.2991 24.9865C44.4331 25.1325 44.6141 25.2355 44.8161 25.2785C44.8681 25.3015 44.9231 25.3185 44.9801 25.3285ZM45.3351 20.8305C45.6491 21.9305 45.5781 23.4295 45.0791 24.4695C45.0621 24.5045 45.0061 24.5105 44.9991 24.5045C44.9837 24.5007 44.9697 24.4923 44.9591 24.4805C44.9483 24.4687 44.9419 24.4535 44.9411 24.4375C44.7664 21.8108 44.0185 19.2543 42.7501 16.9475C42.7413 16.9351 42.7367 16.9202 42.7367 16.905C42.7367 16.8898 42.7413 16.875 42.7501 16.8625C42.7628 16.854 42.7778 16.8494 42.7931 16.8495C42.8091 16.8495 42.8231 16.8545 42.8361 16.8635C43.6611 17.3065 44.7271 18.0925 45.3351 20.8305ZM18.7191 26.8695C18.669 26.884 18.6248 26.9141 18.5931 26.9555C18.5755 26.9817 18.5642 27.0115 18.5602 27.0428C18.5562 27.074 18.5596 27.1058 18.5701 27.1355C18.6011 27.2285 18.6321 27.2815 18.7301 27.2885C18.7701 27.2915 18.8281 27.2685 18.8601 27.2585L19.2061 27.1485C19.6687 27.0011 20.1463 26.9055 20.6301 26.8635C21.2751 26.8025 21.9251 26.8025 22.5701 26.8635C23.4953 26.9402 24.3997 27.1792 25.2421 27.5695C25.5321 27.6995 25.8101 27.8555 26.0751 28.0315C26.1501 28.0705 26.236 28.0831 26.3191 28.0675C26.3859 28.0286 26.4391 27.9699 26.4711 27.8995C26.4931 27.7935 26.4781 27.7435 26.3911 27.6665C25.6043 27.0409 24.6976 26.5831 23.7271 26.3215C23.4055 26.2525 23.0803 26.2018 22.7531 26.1695C22.4238 26.1364 22.0928 26.1244 21.7621 26.1335C21.2111 26.1835 20.6661 26.2785 20.1311 26.4195C19.7661 26.5045 19.4011 26.6325 19.0611 26.7475L18.7201 26.8695H18.7191Z" fill="black"/>
</svg>
