<svg width="24" height="24" viewBox="0 0 24 24" fill="none" xmlns="http://www.w3.org/2000/svg">
<path d="M10.9309 6.65625C7.72359 7.72535 2.91269 10.8258 2.91269 12.5363C2.91269 14.2468 7.72359 16.2782 10.9309 17.3473C7.18909 17.3473 0.23999 14.6745 0.23999 12.5363C0.23999 10.3981 7.18909 6.65625 10.9309 6.65625Z" fill="#1BA2D7"/>
<path fill-rule="evenodd" clip-rule="evenodd" d="M21.0873 12.5363C21.0873 10.8258 16.2764 7.72535 13.0691 6.65625C16.8109 6.65625 23.76 10.3982 23.76 12.5363C23.76 14.017 18.639 17.0895 14.7433 17.0895C13.6036 17.0895 11.5467 16.9859 10.9127 16.6727C7.73024 15.8245 6.65934 11.8491 8.98514 9.51715C9.78434 8.71585 10.8683 8.26375 12 8.25995C15.2919 8.25975 17.3494 11.8233 15.7036 14.6743C15.565 14.9143 15.4035 15.1403 15.2212 15.349C17.0568 15.1245 20.804 14.2469 21.0873 12.5363ZM12 10.3982C10.354 10.3982 9.32534 12.1799 10.1483 13.6053C10.5302 14.2669 11.2361 14.6744 12 14.6744C13.646 14.6744 14.6747 12.8926 13.8517 11.4672C13.4698 10.8056 12.7639 10.3982 12 10.3982Z" fill="#1BA2D7"/>
</svg>
