<svg width="256" height="256" viewBox="0 0 256 256" fill="none" xmlns="http://www.w3.org/2000/svg">
<path d="M128 256C198.692 256 256 198.692 256 128C256 57.3076 198.692 0 128 0C57.3076 0 0 57.3076 0 128C0 198.692 57.3076 256 128 256Z" fill="#00EF8B"/>
<path d="M184.064 108.032H147.968V144.128H184.064V108.032Z" fill="white"/>
<path d="M111.872 157.696C111.872 165.12 105.728 171.264 98.3041 171.264C90.8801 171.264 84.7361 165.12 84.7361 157.696C84.7361 150.272 90.8801 144.128 98.3041 144.128H111.872V108.032H98.3041C70.9121 108.032 48.6401 130.304 48.6401 157.696C48.6401 185.088 70.9121 207.36 98.3041 207.36C125.696 207.36 147.968 185.088 147.968 157.696V144.128H111.872V157.696Z" fill="white"/>
<path d="M161.536 89.8558H202.24V53.7598H161.536C134.144 53.7598 111.872 76.0318 111.872 103.424V108.032H147.968V103.424C147.968 95.9998 154.112 89.8558 161.536 89.8558Z" fill="white"/>
<path d="M147.968 108.032H111.872V144.128H147.968V108.032Z" fill="#16FF99"/>
</svg>
