<svg width="64" height="64" viewBox="0 0 64 64" fill="none" xmlns="http://www.w3.org/2000/svg">
<path d="M18.2339 59.7774C18.1859 59.7773 18.1385 59.7658 18.0959 59.7438C18.0532 59.7218 18.0164 59.6899 17.9886 59.6507L0.0553819 34.2547C0.0249341 34.2116 0.00635494 34.1612 0.00151318 34.1087C-0.00332857 34.0561 0.00573747 34.0032 0.0277971 33.9553L13.0164 5.69967C13.0383 5.6517 13.0726 5.61039 13.1157 5.57991C13.1587 5.54943 13.2091 5.53087 13.2616 5.52609L44.1826 2.66615C44.2353 2.65975 44.2887 2.66813 44.3369 2.69035C44.3851 2.71256 44.4262 2.74774 44.4556 2.79195L62.3888 28.1876C62.4192 28.2307 62.4378 28.2811 62.4427 28.3336C62.4475 28.3862 62.4384 28.4391 62.4164 28.487L49.4282 56.7435C49.4061 56.7913 49.3718 56.8325 49.3288 56.863C49.2857 56.8935 49.2354 56.9121 49.1829 56.917L18.2615 59.7766C18.2524 59.7773 18.243 59.7774 18.2339 59.7774ZM0.646146 34.0492L18.379 59.1619L48.9549 56.3342L61.798 28.393L44.0652 3.28037L13.4897 6.10804L0.646146 34.0492Z" fill="#1BA2D7"/>
<path d="M18.126 59.7136L13.1629 33.8739L13.1387 5.625L37.3193 12.7424L62.3933 28.341L43.7708 44.8944L18.126 59.7136ZM13.4397 6.02668L13.4606 33.8454L18.3415 59.2423L43.5959 44.652L61.8935 28.3829L37.1779 13.0082L13.4397 6.02668Z" fill="#1BA2D7"/>
<path d="M37.7162 13.926C38.2135 13.926 38.6167 13.5228 38.6167 13.0255C38.6167 12.5282 38.2135 12.125 37.7162 12.125C37.2188 12.125 36.8157 12.5282 36.8157 13.0255C36.8157 13.5228 37.2188 13.926 37.7162 13.926Z" fill="#1BA2D7"/>
<path d="M37.7164 14.8802C37.3488 14.8806 36.9894 14.7719 36.6836 14.568C36.3778 14.364 36.1394 14.074 35.9984 13.7345C35.8575 13.395 35.8204 13.0214 35.8919 12.6608C35.9634 12.3003 36.1402 11.969 36.3999 11.709C36.6597 11.449 36.9907 11.2718 37.3512 11.1999C37.7117 11.1281 38.0854 11.1647 38.425 11.3053C38.7646 11.4458 39.0549 11.6839 39.2592 11.9895C39.4635 12.2951 39.5725 12.6544 39.5726 13.0219C39.5722 13.5143 39.3766 13.9864 39.0286 14.3348C38.6806 14.6831 38.2087 14.8793 37.7164 14.8802ZM37.7164 12.9682L37.6606 13.0219C37.6609 13.0364 37.6669 13.0503 37.6773 13.0604C37.6878 13.0705 37.7018 13.0761 37.7164 13.0759V12.9682Z" fill="#1BA2D7"/>
<path d="M43.7276 45.6291C44.225 45.6291 44.6281 45.226 44.6281 44.7286C44.6281 44.2313 44.225 43.8281 43.7276 43.8281C43.2303 43.8281 42.8271 44.2313 42.8271 44.7286C42.8271 45.226 43.2303 45.6291 43.7276 45.6291Z" fill="#1BA2D7"/>
<path d="M43.7276 46.5837C43.36 46.5841 43.0006 46.4754 42.6948 46.2714C42.389 46.0674 42.1505 45.7773 42.0096 45.4378C41.8687 45.0982 41.8317 44.7245 41.9032 44.364C41.9747 44.0034 42.1515 43.6721 42.4114 43.4121C42.6712 43.152 43.0023 42.9748 43.3628 42.903C43.7233 42.8312 44.0971 42.8679 44.4367 43.0085C44.7764 43.1491 45.0667 43.3873 45.271 43.6929C45.4752 43.9986 45.5842 44.3579 45.5842 44.7255C45.5839 45.218 45.3883 45.6902 45.0402 46.0386C44.6922 46.387 44.2201 46.583 43.7276 46.5837ZM43.7276 44.6718L43.6723 44.7255C43.6726 44.7399 43.6785 44.7536 43.6889 44.7637C43.6993 44.7737 43.7132 44.7793 43.7276 44.7791V44.6718Z" fill="#1BA2D7"/>
<path d="M18.454 60.3791C18.9513 60.3791 19.3545 59.976 19.3545 59.4786C19.3545 58.9813 18.9513 58.5781 18.454 58.5781C17.9566 58.5781 17.5535 58.9813 17.5535 59.4786C17.5535 59.976 17.9566 60.3791 18.454 60.3791Z" fill="#1BA2D7"/>
<path d="M18.4539 61.3337C18.0863 61.3341 17.7269 61.2254 17.4211 61.0214C17.1153 60.8174 16.8768 60.5273 16.7359 60.1877C16.595 59.8482 16.558 59.4745 16.6295 59.114C16.701 58.7534 16.8779 58.4221 17.1377 58.1621C17.3975 57.902 17.7286 57.7249 18.0891 57.653C18.4496 57.5812 18.8234 57.6179 19.163 57.7585C19.5027 57.8991 19.793 58.1373 19.9972 58.4429C20.2015 58.7485 20.3105 59.1079 20.3105 59.4755C20.3103 59.9679 20.1146 60.4402 19.7665 60.7886C19.4185 61.137 18.9464 61.333 18.4539 61.3337ZM18.4539 59.4218L18.3986 59.4754C18.3989 59.4899 18.4049 59.5036 18.4152 59.5137C18.4256 59.5237 18.4395 59.5293 18.4539 59.5291V59.4218Z" fill="#1BA2D7"/>
<path d="M13.2889 35.0432C13.7863 35.0432 14.1894 34.64 14.1894 34.1427C14.1894 33.6454 13.7863 33.2422 13.2889 33.2422C12.7916 33.2422 12.3884 33.6454 12.3884 34.1427C12.3884 34.64 12.7916 35.0432 13.2889 35.0432Z" fill="#1BA2D7"/>
<path d="M13.2892 36.0048C12.9217 36.0051 12.5623 35.8964 12.2565 35.6924C11.9508 35.4885 11.7124 35.1984 11.5715 34.8589C11.4307 34.5195 11.3937 34.1458 11.4652 33.7853C11.5367 33.4248 11.7136 33.0936 11.9734 32.8337C12.2332 32.5737 12.5643 32.3966 12.9247 32.3248C13.2852 32.2531 13.6589 32.2898 13.9984 32.4304C14.338 32.5711 14.6282 32.8093 14.8324 33.1149C15.0365 33.4205 15.1455 33.7798 15.1454 34.1473C15.1449 34.6396 14.9492 35.1115 14.6012 35.4597C14.2533 35.8079 13.7815 36.0039 13.2892 36.0048ZM13.2892 34.0928L13.2334 34.1473C13.2339 34.1618 13.24 34.1755 13.2504 34.1855C13.2608 34.1956 13.2747 34.2011 13.2892 34.201V34.0928Z" fill="#1BA2D7"/>
<path d="M62.1434 29.3088C62.6407 29.3088 63.0439 28.9056 63.0439 28.4083C63.0439 27.911 62.6407 27.5078 62.1434 27.5078C61.6461 27.5078 61.2429 27.911 61.2429 28.4083C61.2429 28.9056 61.6461 29.3088 62.1434 29.3088Z" fill="#1BA2D7"/>
<path d="M62.1433 30.2626C61.7758 30.2628 61.4164 30.1541 61.1107 29.9501C60.805 29.746 60.5667 29.456 60.4259 29.1165C60.2851 28.777 60.2482 28.4034 60.3198 28.0429C60.3913 27.6824 60.5682 27.3513 60.828 27.0913C61.0879 26.8314 61.4189 26.6544 61.7794 26.5826C62.1398 26.5109 62.5135 26.5477 62.853 26.6883C63.1925 26.8289 63.4828 27.0671 63.6869 27.3727C63.8911 27.6783 64 28.0376 63.9999 28.4052C63.9994 28.8975 63.8036 29.3695 63.4556 29.7177C63.1075 30.0659 62.6356 30.2618 62.1433 30.2626ZM62.1433 28.3506L62.0879 28.4052C62.0882 28.4196 62.0942 28.4333 62.1046 28.4434C62.1149 28.4534 62.1289 28.459 62.1433 28.4588V28.3506Z" fill="#1BA2D7"/>
<path d="M13.2889 6.72287C13.7863 6.72287 14.1894 6.3197 14.1894 5.82237C14.1894 5.32504 13.7863 4.92188 13.2889 4.92188C12.7916 4.92188 12.3884 5.32504 12.3884 5.82237C12.3884 6.3197 12.7916 6.72287 13.2889 6.72287Z" fill="#1BA2D7"/>
<path d="M13.2891 7.68488C12.9216 7.68525 12.5622 7.5766 12.2564 7.37267C11.9506 7.16874 11.7121 6.87868 11.5712 6.53921C11.4303 6.19974 11.3932 5.8261 11.4647 5.46555C11.5361 5.10501 11.7129 4.77375 11.9727 4.5137C12.2324 4.25365 12.5635 4.07649 12.924 4.00462C13.2844 3.93275 13.6581 3.9694 13.9977 4.10995C14.3374 4.25049 14.6277 4.48861 14.8319 4.79418C15.0362 5.09975 15.1453 5.45904 15.1453 5.8266C15.145 6.31897 14.9493 6.7911 14.6014 7.13946C14.2534 7.48781 13.7815 7.68396 13.2891 7.68488ZM13.2891 5.77293L13.2333 5.82661C13.2336 5.84116 13.2396 5.855 13.2501 5.86513C13.2605 5.87525 13.2746 5.88083 13.2891 5.88066L13.2891 5.77293Z" fill="#1BA2D7"/>
<path d="M49.1552 56.9175C49.1211 56.9178 49.0872 56.9122 49.055 56.9009L25.4786 48.5781L0.153347 34.3425C0.111932 34.3193 0.0766159 34.2866 0.050301 34.2471C0.0239862 34.2076 0.00742513 34.1624 0.00197989 34.1152C-0.00346535 34.0681 0.00235995 34.0203 0.0189783 33.9758C0.0355967 33.9314 0.0625318 33.8915 0.0975699 33.8595L19.1516 16.3996L44.0655 2.70155C44.1062 2.67896 44.1517 2.6662 44.1982 2.66431C44.2447 2.66241 44.291 2.67143 44.3335 2.69064C44.3758 2.70981 44.4132 2.73852 44.4427 2.77453C44.4721 2.81053 44.4929 2.85285 44.5033 2.89819L50.0852 27.4373L49.4555 56.6241C49.4544 56.6716 49.442 56.7182 49.4195 56.76C49.397 56.8018 49.3649 56.8377 49.3259 56.8648C49.2757 56.8994 49.2162 56.9178 49.1552 56.9175ZM0.809121 34.0221L25.726 48.0329L48.8638 56.1964L49.4919 27.4971L44.0056 3.4197L19.4992 16.8842L0.809121 34.0221Z" fill="#1BA2D7"/>
<path d="M43.8257 44.8403L43.7029 44.7984L13.1416 34.1737L13.2401 34.0882L37.7658 12.8828L43.8257 44.8403ZM13.4368 34.1167L43.6295 44.6139L37.6669 13.1671L13.4368 34.1167Z" fill="#1BA2D7"/>
<path d="M25.3833 48.862L18.9578 16.1641L50.3799 27.3988L25.3833 48.862ZM19.7511 17.0857L25.7741 47.735L49.2042 27.6168L19.7511 17.0857Z" fill="#1BA2D7"/>
<path d="M13.5512 5.67433L13.0271 5.96875L19.0925 16.7649L19.6165 16.4705L13.5512 5.67433Z" fill="#1BA2D7"/>
<path d="M25.3257 48.1328L25.8322 48.4571L18.707 59.6392L18.2004 59.3157L25.3257 48.1328Z" fill="#1BA2D7"/>
<path d="M49.814 27.2057L49.7703 27.8047L62.1216 28.707L62.1653 28.1081L49.814 27.2057Z" fill="#1BA2D7"/>
</svg>
