<svg width="34" height="46" viewBox="0 0 34 46" fill="none" xmlns="http://www.w3.org/2000/svg">
<path d="M10.9558 35.5621C10.9558 35.5621 9.18879 36.6371 12.1858 36.9451C15.7858 37.4051 17.7158 37.3291 21.7098 36.5611C21.7098 36.5611 22.7848 37.2511 24.2448 37.7911C15.2578 41.6311 3.89079 37.5611 10.9568 35.5641L10.9558 35.5621ZM9.80379 30.5701C9.80379 30.5701 7.88379 32.0301 10.8788 32.3371C14.7958 32.7211 17.8788 32.7971 23.1688 31.7231C23.1688 31.7231 23.8588 32.4911 25.0118 32.8751C14.1818 36.1011 2.04579 33.1811 9.80379 30.5701ZM31.0038 39.3261C31.0038 39.3261 32.3098 40.4011 29.5438 41.2461C24.3978 42.7821 7.96079 43.2431 3.35179 41.2461C1.73879 40.5561 4.81179 39.5461 5.80979 39.4031C6.80979 39.1731 7.34579 39.1731 7.34579 39.1731C5.57979 37.9431 -4.40621 41.7081 2.27579 42.7731C20.6328 45.7681 35.7638 41.4671 31.0018 39.3171L31.0038 39.3261ZM11.7998 25.3471C11.7998 25.3471 3.42779 27.3441 8.80379 28.0351C11.1078 28.3421 15.6398 28.2651 19.8638 27.9581C23.3198 27.6511 26.7768 27.0361 26.7768 27.0361C26.7768 27.0361 25.5468 27.5741 24.7028 28.1111C16.1768 30.3381 -0.183208 29.3411 4.50279 27.0361C8.49679 25.1161 11.7998 25.3361 11.7998 25.3361V25.3471ZM26.7778 33.7191C35.3798 29.2641 31.3858 24.9631 28.6208 25.5011C27.9308 25.6551 27.6208 25.8081 27.6208 25.8081C27.6208 25.8081 27.8508 25.3481 28.3888 25.1941C33.8418 23.2741 38.1438 30.9541 26.6218 33.9501C26.6218 33.9501 26.6988 33.8731 26.7758 33.7201L26.7778 33.7191ZM12.6458 45.8541C20.9408 46.3921 33.6158 45.5471 33.9218 41.6301C33.9218 41.6301 33.3078 43.1661 27.0858 44.3181C20.0198 45.6241 11.2638 45.4701 6.11579 44.6251C6.11579 44.6251 7.19079 45.5461 12.6458 45.8541Z" fill="#4E7896"/>
<path d="M21.5551 0C21.5551 0 26.3171 4.84 17.0231 12.136C9.57309 18.05 15.3231 21.43 17.0231 25.27C12.6451 21.353 9.49609 17.897 11.6461 14.67C14.7961 9.908 23.4751 7.604 21.5551 0ZM19.0971 22.044C21.3241 24.579 18.4821 26.884 18.4821 26.884C18.4821 26.884 24.1661 23.964 21.5541 20.354C19.1741 16.898 17.3301 15.208 27.3141 9.447C27.3141 9.447 11.5681 13.364 19.0961 22.043L19.0971 22.044Z" fill="#F58219"/>
</svg>
