<svg width="21" height="20" viewBox="0 0 21 20" fill="none" xmlns="http://www.w3.org/2000/svg">
<path d="M1.31639 4.699C-0.51861 7.337 -0.29061 10.769 1.11139 13.571L1.21439 13.771L1.28039 13.897L1.32039 13.97L1.39339 14.1L1.52739 14.33L1.60339 14.456L1.75839 14.699L1.82439 14.801L2.04939 15.126L2.09339 15.186L2.29839 15.459L2.37539 15.557L2.57539 15.79L2.64739 15.877L2.91139 16.179L2.92739 16.196L3.19539 16.479L3.28139 16.566L3.49539 16.766L3.58339 16.849L3.87639 17.116L3.93239 17.163L4.19939 17.388L4.29939 17.476L4.52139 17.65L4.64139 17.75L4.89139 17.93L5.00739 18.012L5.24939 18.172L5.35439 18.242L5.73439 18.474L5.83939 18.534L6.12439 18.694L6.28239 18.774L6.48639 18.88L6.53339 18.903L6.61639 18.943L6.93939 19.093L7.00739 19.123L7.38439 19.279L7.47639 19.315L7.83139 19.447L7.87639 19.463L8.27239 19.593L8.36839 19.621L8.76839 19.737C17.6434 21.357 20.2214 14.403 20.2214 14.403C18.0564 17.223 14.2214 17.968 10.5714 17.14C10.4334 17.11 10.2994 17.066 10.1654 17.026L10.0654 16.996C9.93471 16.9558 9.8047 16.9134 9.67539 16.869L9.62139 16.849C9.50539 16.809 9.39139 16.765 9.27639 16.721L9.17939 16.683C9.05413 16.6336 8.92977 16.5819 8.80639 16.528L8.73239 16.495L8.41839 16.349L8.31839 16.305C8.23639 16.265 8.15639 16.223 8.07539 16.181L7.91339 16.096C7.81543 16.0434 7.71842 15.9891 7.62239 15.933L7.52439 15.878C7.39657 15.8026 7.26989 15.7252 7.14439 15.646C7.10939 15.624 7.07639 15.6 7.04239 15.578L6.77239 15.398C6.74239 15.378 6.71439 15.358 6.68539 15.338L6.43039 15.153L6.31739 15.068L6.08739 14.888L5.98439 14.806L5.69739 14.564C5.68739 14.554 5.67739 14.547 5.66739 14.538C5.56539 14.438 5.46539 14.356 5.36539 14.264L5.28039 14.182L5.06339 13.97L4.97839 13.885C4.88814 13.7928 4.79946 13.6992 4.71239 13.604C4.61627 13.4989 4.52192 13.3922 4.42939 13.284L4.35939 13.2L4.16539 12.96L4.09539 12.86L3.87139 12.562C1.85939 9.81 1.13239 6.006 2.75939 2.882M7.02239 2.477C5.69539 4.377 5.76739 6.944 6.80239 8.963C6.97573 9.30253 7.17184 9.62995 7.38939 9.943C7.58939 10.228 7.80939 10.567 8.07239 10.796L8.37039 11.096L8.44839 11.173L8.75239 11.456L8.76739 11.469L9.12239 11.763L9.20239 11.826L9.57439 12.096L9.83439 12.269L10.1094 12.439L10.1494 12.462L10.3934 12.598L10.4804 12.643L10.6504 12.731L10.6764 12.743L11.0314 12.909L11.1094 12.941L11.4094 13.059L11.5344 13.105L11.8014 13.198L11.9214 13.238C12.0494 13.278 12.1754 13.338 12.3084 13.35C19.1614 14.485 20.7434 9.21 20.7434 9.21C19.3174 11.264 16.5554 12.244 13.6084 11.48L13.2204 11.368L13.1034 11.33L12.8334 11.236L12.7104 11.19L12.4184 11.072L12.3384 11.039L11.9814 10.873L11.8014 10.773L11.6984 10.72L11.4184 10.56L11.1434 10.392L10.8834 10.219L10.5134 9.949L10.4304 9.883C9.13039 8.865 8.11739 7.483 7.63039 5.895C7.13039 4.258 7.23039 2.421 8.11339 0.93M11.8034 0.816999C11.0214 1.967 10.9434 3.397 11.4874 4.67C12.0594 6.02 13.2334 7.07 14.6024 7.57L14.7724 7.63L14.8474 7.654L15.0914 7.724C18.8754 8.454 19.8914 5.782 20.1744 5.389C19.2744 6.683 17.7744 6.994 15.9104 6.544C15.7586 6.50392 15.6085 6.45789 15.4604 6.406C15.279 6.34174 15.1011 6.26797 14.9274 6.185C14.5979 6.02646 14.285 5.83552 13.9934 5.615C12.3334 4.355 11.2934 1.955 12.3864 0" fill="#0868AC"/>
</svg>
