<svg width="73" height="72" viewBox="0 0 73 72" fill="none" xmlns="http://www.w3.org/2000/svg">
<path d="M36.2395 0C17.8335 0 18.9822 7.92675 18.9822 7.92675L19.0048 16.1393H36.568V18.603H12.0245C12.0245 18.603 0.25 17.2755 0.25 35.721C0.25 54.162 10.5291 53.5095 10.5291 53.5095H16.6645V44.9505C16.6645 44.9505 16.3337 34.7423 26.7805 34.7423H44.1986C44.1986 34.7423 53.9861 34.8998 53.9861 25.3485V9.55575C53.9861 9.55575 55.4723 0 36.2395 0ZM26.5539 5.5215C28.3007 5.5215 29.7145 6.9255 29.7145 8.66025C29.7145 10.395 28.3007 11.799 26.5539 11.799C26.1387 11.7996 25.7274 11.7188 25.3437 11.5613C24.96 11.4038 24.6113 11.1726 24.3177 10.881C24.0241 10.5894 23.7913 10.2432 23.6327 9.8621C23.4741 9.48102 23.3928 9.07261 23.3934 8.66025C23.3934 6.9255 24.8071 5.5215 26.5539 5.5215Z" fill="url(#paint0_linear_263_29)"/>
<path d="M36.7606 71.6241C55.1665 71.6241 54.0178 63.6974 54.0178 63.6974L53.9952 55.4849H36.4321V53.0211H60.9733C60.9733 53.0211 72.75 54.3486 72.75 35.9054C72.75 17.4621 62.4709 18.1169 62.4709 18.1169H56.3356V26.6736C56.3356 26.6736 56.6664 36.8819 46.2196 36.8819H28.8014C28.8014 36.8819 19.0139 36.7244 19.0139 46.2756V62.0684C19.0139 62.0684 17.5277 71.6241 36.7606 71.6241ZM46.4461 66.1026C46.0309 66.1032 45.6197 66.0225 45.2359 65.8649C44.8522 65.7074 44.5036 65.4762 44.21 65.1846C43.9164 64.8931 43.6836 64.5468 43.5249 64.1657C43.3663 63.7847 43.285 63.3762 43.2856 62.9639C43.2856 61.2314 44.6993 59.8274 46.4461 59.8274C48.1929 59.8274 49.6067 61.2291 49.6067 62.9639C49.6067 64.7009 48.1929 66.1026 46.4461 66.1026Z" fill="url(#paint1_linear_263_29)"/>
<defs>
<linearGradient id="paint0_linear_263_29" x1="7.2168" y1="6.2595" x2="42.8169" y2="42.2269" gradientUnits="userSpaceOnUse">
<stop stop-color="#387EB8"/>
<stop offset="1" stop-color="#366994"/>
</linearGradient>
<linearGradient id="paint1_linear_263_29" x1="29.2704" y1="28.9844" x2="67.5173" y2="65.8811" gradientUnits="userSpaceOnUse">
<stop stop-color="#FFE052"/>
<stop offset="1" stop-color="#FFC331"/>
</linearGradient>
</defs>
</svg>
