<svg width="463" height="399" viewBox="0 0 463 399" fill="none" xmlns="http://www.w3.org/2000/svg">
<path d="M412.342 140.553C412.241 140.567 412.137 140.542 412.053 140.483C411.969 140.424 411.91 140.335 411.888 140.235C401.706 100.142 378.44 64.5849 345.77 39.1871C313.1 13.7892 272.891 0 231.5 0C190.109 0 149.9 13.7892 117.23 39.1871C84.5597 64.5849 61.2939 100.142 51.1116 140.235C51.0897 140.335 51.0308 140.424 50.9467 140.483C50.8626 140.542 50.7594 140.567 50.6576 140.553C38.3564 140.553 0 142.141 0 174.711C0 213.542 4.53922 247.293 27.2353 266.89C37.04 275.282 53.6081 277.323 69.3138 276.96C79.1353 276.647 88.9207 275.616 98.5918 273.876C98.6679 273.87 98.7409 273.843 98.8024 273.798C98.864 273.753 98.9116 273.691 98.94 273.62C98.9683 273.549 98.9763 273.472 98.9629 273.397C98.9495 273.322 98.9152 273.252 98.8641 273.195C81.7257 247.311 72.6 216.954 72.6274 185.916C72.6274 185.463 72.6274 184.964 72.6274 184.51C72.6274 142.401 89.3658 102.017 119.16 72.2413C148.955 42.4658 189.364 25.7381 231.5 25.7381C273.636 25.7381 314.045 42.4658 343.84 72.2413C373.634 102.017 390.373 142.401 390.373 184.51C390.373 184.964 390.373 185.463 390.373 185.916C390.4 216.954 381.274 247.311 364.136 273.195C364.085 273.252 364.051 273.322 364.037 273.397C364.024 273.472 364.032 273.549 364.06 273.62C364.088 273.691 364.136 273.753 364.198 273.798C364.259 273.843 364.332 273.87 364.408 273.876C374.079 275.616 383.865 276.647 393.686 276.96C409.392 277.323 425.96 275.282 435.765 266.89C458.461 247.52 463 213.542 463 174.711C463 142.141 424.644 140.553 412.342 140.553Z" fill="#3B4BAA"/>
<path d="M231.5 317.355L110.617 277.03C110.516 276.992 110.406 276.99 110.304 277.026C110.203 277.061 110.117 277.131 110.063 277.224C110.008 277.317 109.988 277.426 110.007 277.532C110.025 277.638 110.08 277.734 110.162 277.803L231.182 398.87C231.267 398.953 231.381 399 231.5 399C231.619 399 231.733 398.953 231.818 398.87L352.838 277.803C352.92 277.734 352.975 277.638 352.993 277.532C353.012 277.426 352.992 277.317 352.937 277.224C352.883 277.131 352.797 277.061 352.696 277.026C352.594 276.99 352.484 276.992 352.383 277.03L231.5 317.355Z" fill="#3B4BAA"/>
<path d="M338.919 194.583L367.636 185.966C367.737 185.955 367.83 185.907 367.897 185.832C367.964 185.756 368.001 185.659 368 185.558C367.92 174.949 366.593 164.385 364.047 154.084C364.021 153.991 363.969 153.906 363.896 153.842C363.824 153.778 363.734 153.736 363.638 153.721L334.42 151.091C334.325 151.091 334.232 151.061 334.155 151.005C334.077 150.95 334.019 150.871 333.989 150.781C333.959 150.691 333.958 150.593 333.987 150.502C334.015 150.411 334.071 150.332 334.148 150.275L355.868 131.318C355.912 131.234 355.934 131.14 355.934 131.046C355.934 130.951 355.912 130.858 355.868 130.774C351.441 120.98 345.874 111.74 339.282 103.245C339.211 103.19 339.123 103.16 339.032 103.16C338.942 103.16 338.854 103.19 338.783 103.245L311.928 112.316C311.843 112.343 311.751 112.344 311.665 112.32C311.579 112.296 311.502 112.247 311.444 112.179C311.386 112.111 311.349 112.028 311.338 111.939C311.327 111.85 311.343 111.76 311.383 111.681L323.06 86.1931C323.113 86.1122 323.141 86.0177 323.141 85.921C323.141 85.8244 323.113 85.7299 323.06 85.6489C314.999 78.3669 306.089 72.0784 296.524 66.9188C296.452 66.8636 296.364 66.8337 296.274 66.8337C296.184 66.8337 296.096 66.8636 296.024 66.9188L275.713 85.6489C275.649 85.7111 275.569 85.7533 275.481 85.7702C275.394 85.7872 275.304 85.7783 275.222 85.7445C275.139 85.7107 275.069 85.6535 275.019 85.5801C274.969 85.5067 274.941 85.4202 274.94 85.3315L275.349 58.1206C275.354 58.0206 275.325 57.9219 275.268 57.8398C275.21 57.7578 275.127 57.6971 275.031 57.6671C264.727 54.2091 254.051 51.9716 243.224 51.0005C243.123 50.9959 243.024 51.0246 242.942 51.082C242.86 51.1394 242.799 51.2224 242.769 51.3179L231.955 76.4426C231.917 76.5193 231.859 76.5839 231.787 76.6292C231.715 76.6744 231.631 76.6984 231.546 76.6984C231.46 76.6984 231.377 76.6744 231.304 76.6292C231.232 76.5839 231.174 76.5193 231.137 76.4426L220.368 51.3179C220.322 51.2272 220.25 51.1525 220.16 51.1039C220.071 51.0553 219.969 51.035 219.868 51.0458C209.035 52.0088 198.357 54.2621 188.06 57.7578C187.971 57.7981 187.895 57.8614 187.839 57.9412C187.783 58.021 187.75 58.1143 187.742 58.2113L188.106 85.6489C188.121 85.7387 188.106 85.831 188.062 85.9111C188.019 85.9912 187.95 86.0546 187.866 86.0911C187.783 86.1275 187.689 86.1351 187.601 86.1125C187.513 86.0899 187.434 86.0385 187.379 85.9664L166.795 66.9642C166.713 66.9115 166.619 66.8834 166.522 66.8834C166.425 66.8834 166.33 66.9115 166.249 66.9642C156.697 72.1227 147.803 78.4115 139.758 85.6943C139.705 85.7753 139.677 85.8698 139.677 85.9664C139.677 86.063 139.705 86.1575 139.758 86.2385L151.527 111.635C151.553 111.719 151.557 111.809 151.538 111.894C151.518 111.98 151.476 112.059 151.416 112.124C151.356 112.188 151.28 112.236 151.196 112.262C151.112 112.287 151.022 112.29 150.936 112.27L124.127 103.2C124.046 103.147 123.951 103.119 123.854 103.119C123.758 103.119 123.663 103.147 123.582 103.2C117.036 111.717 111.515 120.971 107.133 130.774C107.08 130.855 107.052 130.949 107.052 131.046C107.052 131.142 107.08 131.237 107.133 131.318L128.898 150.32C128.959 150.381 129.001 150.457 129.02 150.54C129.038 150.624 129.033 150.71 129.005 150.791C128.976 150.872 128.926 150.943 128.859 150.996C128.791 151.049 128.711 151.082 128.626 151.091L99.5444 153.812C99.452 153.817 99.3632 153.85 99.2902 153.907C99.2171 153.964 99.1631 154.041 99.1355 154.13C96.5273 164.423 95.1395 174.987 95.0005 185.603C94.9959 185.703 95.0246 185.802 95.0821 185.884C95.1397 185.966 95.2228 186.027 95.3185 186.057L124.082 195.036C124.158 195.074 124.223 195.132 124.269 195.204C124.314 195.276 124.338 195.359 124.338 195.445C124.338 195.53 124.314 195.613 124.269 195.685C124.223 195.758 124.158 195.816 124.082 195.853L97.5451 210.637C97.486 210.798 97.486 210.975 97.5451 211.136C99.5095 221.694 102.712 231.984 107.087 241.794C108.541 245.014 110.132 248.143 111.631 251.227C111.72 251.255 111.815 251.255 111.904 251.227L231.318 291L351.006 251.181C351.064 251.164 351.118 251.135 351.165 251.096C351.212 251.057 351.25 251.009 351.278 250.955C358.049 238.342 362.816 224.756 365.41 210.683C365.432 210.586 365.421 210.485 365.38 210.395C365.339 210.305 365.27 210.231 365.183 210.184L338.692 195.399C338.618 195.345 338.562 195.269 338.532 195.182C338.502 195.095 338.499 195.002 338.524 194.913C338.548 194.825 338.599 194.746 338.67 194.687C338.74 194.628 338.827 194.592 338.919 194.583Z" fill="#C02626"/>
</svg>
