<svg width="77" height="77" viewBox="0 0 77 77" fill="none" xmlns="http://www.w3.org/2000/svg">
<g clip-path="url(#clip0_255_12)">
<path d="M38.5004 0C17.4072 0 0.325195 17.2312 0.325195 38.5C0.325195 59.7688 17.4072 77 38.5004 77C59.5791 77 76.6755 59.7688 76.6755 38.5C76.6755 17.2312 59.5815 0 38.4883 0H38.5004ZM38.5004 1.69159C48.2384 1.69159 57.4111 5.52716 64.305 12.4692C71.1844 19.3872 75.02 28.7499 74.9959 38.5C74.9959 48.3247 71.1989 57.5743 64.305 64.5308C57.5001 71.4368 48.1999 75.3204 38.5004 75.3084C28.8008 75.3204 19.5006 71.4368 12.6957 64.5308C5.81626 57.6128 1.96866 48.2501 1.99273 38.5C1.99273 28.6753 5.80182 19.4257 12.6837 12.4692C19.4886 5.55122 28.8008 1.66513 38.5004 1.69159ZM36.5826 15.2388C30.3672 16.9063 24.6139 20.1018 16.9452 28.8991C9.27645 37.6963 10.7298 44.9656 10.7298 44.9656C10.7298 44.9656 12.8473 39.9654 17.9365 34.7005C20.3548 32.2077 22.1475 31.3679 23.3891 31.3679C24.4912 31.3053 25.42 32.1956 25.42 33.2977V51.1569C25.42 52.9231 24.2794 53.3129 23.2279 53.2864C22.3376 53.2744 21.5098 52.9616 21.5098 52.9616C26.7362 60.5557 39.2439 61.6217 39.2439 61.6217L44.7325 55.7552L44.8577 55.8683L49.8843 60.1538C59.0834 54.6893 63.5205 44.5638 63.5205 44.5638C59.4107 48.8998 56.8023 49.9152 55.2478 49.9152C53.8691 49.9032 53.3301 49.0995 53.3301 49.0995C53.2555 48.7242 53.1303 43.2836 53.0798 37.8455C53.0293 32.2173 53.0798 26.5794 53.3565 26.565C54.9471 23.5813 60.0122 17.5656 60.0122 17.5656C50.5508 19.4329 45.3991 25.6362 45.3991 25.6362C43.8711 24.4331 40.7622 24.6328 40.7622 24.6328C42.2156 25.4341 43.669 27.7657 43.669 29.6955V48.6953C43.669 48.6953 40.4975 51.4889 38.0552 51.4889C36.6018 51.4889 35.7115 50.6997 35.223 50.0476C35.0354 49.7973 34.8717 49.5206 34.7466 49.2198V25.7589C34.4073 26.0092 33.9934 26.1463 33.582 26.1607C33.055 26.1607 32.516 25.8985 32.1527 25.1333C31.8759 24.5558 31.7003 23.6919 31.7003 22.4262C31.7003 18.1022 36.5874 15.2316 36.5874 15.2316L36.5826 15.2388Z" fill="#9A9A9A"/>
</g>
<defs>
<clipPath id="clip0_255_12">
<rect width="77" height="77" fill="white"/>
</clipPath>
</defs>
</svg>
