<svg width="2500" height="1885" viewBox="0 0 2500 1885" fill="none" xmlns="http://www.w3.org/2000/svg">
<path d="M1879.3 1412.67H2189.65V667.49L1839.99 317.842L1620.54 537.295L1879.3 796.055V1412.66V1412.67ZM2190.47 1568.24H1107.93L849.16 1309.49L958.897 1199.77L1172.62 1413.49H1612.34L1179.17 979.492L1289.72 868.945L1722.89 1302.13V862.383L1509.99 649.482L1618.9 540.566L1080.91 0.117188H0L309.531 309.648V310.469H951.523L1178.35 537.295L846.709 868.936L619.883 642.109V466.055H309.531V770.674L846.709 1307.85L628.066 1526.48L977.725 1876.14H2500L2190.47 1568.24Z" fill="#E8821C"/>
</svg>
