<svg width="501" height="512" viewBox="0 0 501 512" fill="none" xmlns="http://www.w3.org/2000/svg">
<path d="M209.144 422.644H350.222C356.822 422.735 363.372 421.48 369.471 418.953C375.57 416.427 381.089 412.683 385.692 407.951L489.36 304.287C496.663 296.984 500.765 287.079 500.765 276.751C500.765 266.423 496.662 256.517 489.359 249.214C482.056 241.911 472.151 237.809 461.823 237.809C451.495 237.809 441.59 241.912 434.287 249.215L377.26 306.239C374.68 298.844 369.866 292.433 363.483 287.893C357.101 283.354 349.465 280.909 341.633 280.899H248.216C226.052 267.288 179.928 265.347 141.753 276.637C122.546 282.317 98.1727 293.458 84.9607 314.832L83.3727 312.673C81.656 310.346 79.0867 308.795 76.228 308.36C73.3694 307.925 70.4549 308.641 68.1237 310.352L4.43873 357.208C2.11134 358.924 0.559787 361.494 0.124474 364.352C-0.310838 367.211 0.405645 370.126 2.11673 372.457L101.517 507.557C102.363 508.713 103.431 509.689 104.657 510.43C105.884 511.17 107.245 511.66 108.662 511.871C109.214 511.955 109.771 511.998 110.33 511.998C112.647 511.999 114.903 511.256 116.766 509.878L180.452 463.021C182.779 461.305 184.33 458.735 184.765 455.876C185.201 453.018 184.484 450.103 182.773 447.772L177.812 441.03L198.247 426.181C201.378 423.81 205.217 422.564 209.144 422.644ZM110.537 499.568L12.4297 366.227L74.3597 320.665L172.46 454.008L110.537 499.568ZM170.703 431.368L92.7777 325.456C103.106 304.444 126.76 293.585 145.156 288.145C183.632 276.765 226.856 280.882 243.09 291.868C244.083 292.54 245.254 292.899 246.453 292.899H341.631C348.454 292.899 354.997 295.609 359.822 300.434C364.646 305.259 367.357 311.802 367.357 318.625C367.357 325.448 364.646 331.991 359.822 336.816C354.997 341.641 348.454 344.351 341.631 344.351H246.453C244.861 344.351 243.335 344.983 242.21 346.108C241.085 347.234 240.453 348.76 240.453 350.351C240.453 351.942 241.085 353.468 242.21 354.594C243.335 355.719 244.861 356.351 246.453 356.351H341.631C351.185 356.339 360.379 352.707 367.362 346.186C374.344 339.664 378.596 330.739 379.26 321.208L442.767 257.7C447.841 252.755 454.659 250.007 461.745 250.053C468.83 250.098 475.613 252.933 480.623 257.944C485.633 262.954 488.468 269.736 488.514 276.822C488.56 283.907 485.812 290.726 480.867 295.8L377.206 399.467C373.721 403.089 369.526 405.952 364.882 407.876C360.238 409.799 355.247 410.742 350.222 410.644H209.144C202.683 410.573 196.377 412.622 191.193 416.478L170.703 431.368ZM54.5177 361.848C54.5175 365.199 55.5111 368.475 57.3727 371.261C59.2344 374.048 61.8805 376.22 64.9765 377.502C68.0724 378.785 71.4792 379.12 74.7659 378.466C78.0526 377.813 81.0717 376.199 83.4412 373.829C85.8108 371.46 87.4245 368.441 88.0782 365.154C88.7319 361.867 88.3963 358.461 87.1138 355.365C85.8313 352.269 83.6595 349.623 80.8731 347.761C78.0867 345.899 74.8108 344.906 71.4597 344.906C66.9681 344.911 62.6619 346.698 59.4858 349.874C56.3097 353.05 54.523 357.356 54.5177 361.848ZM76.4027 361.848C76.4029 362.826 76.1132 363.782 75.5701 364.595C75.027 365.408 74.255 366.041 73.3518 366.416C72.4485 366.79 71.4546 366.888 70.4956 366.697C69.5367 366.506 68.6559 366.036 67.9645 365.344C67.2731 364.653 66.8024 363.772 66.6117 362.813C66.421 361.854 66.5189 360.86 66.8932 359.957C67.2674 359.054 67.9011 358.282 68.7142 357.739C69.5272 357.196 70.483 356.906 71.4607 356.906C72.7709 356.908 74.027 357.429 74.9535 358.355C75.88 359.282 76.4011 360.538 76.4027 361.848ZM181.737 98.721C180.434 99.0415 179.276 99.7896 178.448 100.846C177.62 101.902 177.17 103.205 177.17 104.547V148.482C177.17 149.824 177.619 151.128 178.447 152.184C179.275 153.24 180.433 153.988 181.737 154.309L205.886 160.246C207.25 164.194 208.853 168.055 210.686 171.808L197.8 193.091C197.105 194.239 196.816 195.587 196.977 196.919C197.139 198.251 197.742 199.49 198.691 200.439L229.76 231.507C230.709 232.456 231.949 233.059 233.281 233.22C234.614 233.381 235.962 233.091 237.11 232.396L258.392 219.514C262.145 221.346 266.006 222.949 269.953 224.314L275.892 248.464C276.212 249.767 276.96 250.925 278.016 251.753C279.073 252.581 280.376 253.031 281.718 253.031H325.653C326.995 253.031 328.298 252.581 329.354 251.753C330.41 250.925 331.158 249.767 331.479 248.464L337.417 224.315C341.364 222.95 345.225 221.347 348.979 219.515L370.26 232.4C371.408 233.095 372.756 233.385 374.088 233.224C375.421 233.062 376.661 232.459 377.61 231.51L408.677 200.443C409.625 199.494 410.228 198.255 410.39 196.923C410.551 195.591 410.261 194.243 409.567 193.095L396.685 171.812C398.517 168.059 400.12 164.197 401.485 160.25L425.635 154.313C426.938 153.992 428.096 153.244 428.924 152.188C429.752 151.132 430.202 149.828 430.202 148.486V104.547C430.202 103.205 429.752 101.902 428.924 100.846C428.096 99.7896 426.938 99.0415 425.635 98.721L401.486 92.782C400.12 88.8352 398.517 84.9745 396.686 81.221L409.568 59.938C410.263 58.7899 410.553 57.4418 410.392 56.1094C410.23 54.7769 409.627 53.5371 408.678 52.588L377.609 21.522C376.66 20.5729 375.42 19.9695 374.087 19.8082C372.755 19.6468 371.407 19.9369 370.259 20.632L348.977 33.514C345.223 31.6814 341.362 30.0785 337.415 28.714L331.477 4.564C331.156 3.26144 330.407 2.10406 329.351 1.27675C328.295 0.449435 326.992 -8.3885e-05 325.651 1.17415e-08H281.716C280.374 8.13e-05 279.071 0.45003 278.014 1.27793C276.958 2.10583 276.21 3.26389 275.89 4.567L269.952 28.717C266.004 30.0811 262.143 31.6841 258.39 33.517L237.108 20.632C235.96 19.9369 234.612 19.6468 233.279 19.8082C231.947 19.9695 230.707 20.5729 229.758 21.522L198.691 52.588C197.742 53.5369 197.138 54.7767 196.976 56.1092C196.815 57.4416 197.105 58.7897 197.8 59.938L210.683 81.221C208.851 84.9742 207.248 88.8349 205.883 92.782L181.737 98.721ZM222.675 77.859L210.502 57.748L234.917 33.333L255.029 45.507C255.916 46.0441 256.928 46.3421 257.964 46.3717C259.001 46.4013 260.028 46.1616 260.945 45.676C265.994 42.9989 271.284 40.8036 276.745 39.119C277.735 38.8141 278.63 38.2577 279.342 37.5042C280.054 36.7506 280.558 35.8255 280.806 34.819L286.42 12H320.947L326.56 34.817C326.808 35.8235 327.312 36.7486 328.024 37.5022C328.735 38.2557 329.63 38.8121 330.621 39.117C336.081 40.802 341.371 42.9974 346.421 45.674C347.338 46.1592 348.365 46.3987 349.401 46.3691C350.438 46.3395 351.45 46.0418 352.338 45.505L372.449 33.331L396.865 57.746L384.691 77.859C384.154 78.7464 383.856 79.7579 383.826 80.7947C383.796 81.8316 384.036 82.8584 384.522 83.775C387.198 88.8244 389.393 94.1144 391.078 99.575C391.383 100.566 391.939 101.46 392.693 102.172C393.446 102.884 394.371 103.388 395.378 103.636L418.195 109.246V143.775L395.378 149.385C394.371 149.633 393.446 150.137 392.693 150.848C391.939 151.56 391.383 152.455 391.078 153.445C389.392 158.906 387.197 164.195 384.522 169.245C384.036 170.162 383.796 171.189 383.826 172.226C383.855 173.263 384.153 174.275 384.691 175.162L396.865 195.273L372.449 219.7L352.338 207.526C351.45 206.989 350.439 206.691 349.402 206.662C348.365 206.632 347.338 206.872 346.422 207.358C341.372 210.034 336.082 212.229 330.622 213.914C329.631 214.219 328.736 214.775 328.025 215.529C327.313 216.282 326.809 217.208 326.561 218.214L320.95 241.031H286.42L280.809 218.214C280.561 217.208 280.057 216.283 279.346 215.529C278.634 214.776 277.74 214.219 276.75 213.914C271.289 212.228 265.999 210.033 260.95 207.357C260.033 206.871 259.006 206.631 257.969 206.661C256.932 206.69 255.92 206.988 255.033 207.525L234.917 219.7L210.502 195.28L222.675 175.169C223.212 174.282 223.51 173.27 223.539 172.233C223.569 171.196 223.329 170.17 222.844 169.253C220.168 164.204 217.973 158.914 216.289 153.453C215.984 152.463 215.427 151.568 214.674 150.856C213.92 150.145 212.995 149.641 211.989 149.393L189.172 143.783V109.25L211.989 103.64C212.995 103.392 213.92 102.888 214.674 102.177C215.427 101.465 215.984 100.57 216.289 99.58C217.974 94.1195 220.168 88.8296 222.844 83.78C223.33 82.8628 223.57 81.835 223.541 80.7972C223.511 79.7594 223.213 78.747 222.675 77.859ZM303.683 194.864C319.49 194.852 334.804 189.361 347.016 179.325C359.228 169.289 367.583 155.329 370.657 139.824C373.731 124.319 371.334 108.227 363.875 94.2912C356.416 80.3549 344.356 69.4358 329.749 63.3941C315.142 57.3524 298.893 56.5618 283.769 61.1571C268.644 65.7523 255.581 75.4491 246.804 88.5954C238.028 101.742 234.08 117.525 235.635 133.255C237.189 148.985 244.15 163.69 255.33 174.864C261.675 181.218 269.213 186.256 277.511 189.688C285.809 193.12 294.703 194.879 303.683 194.864ZM267.367 169.625C269.286 161.434 273.919 154.133 280.511 148.906C287.104 143.68 295.27 140.836 303.683 140.836C312.096 140.836 320.261 143.68 326.854 148.906C333.447 154.133 338.079 161.434 339.999 169.625C329.827 178.171 316.968 182.855 303.683 182.855C290.398 182.855 277.538 178.171 267.367 169.625ZM313.717 124.692C312.401 126.019 310.836 127.073 309.112 127.794C307.388 128.515 305.539 128.888 303.67 128.892C301.801 128.896 299.95 128.531 298.223 127.817C296.496 127.104 294.927 126.057 293.605 124.735C292.284 123.414 291.237 121.845 290.524 120.117C289.81 118.39 289.445 116.539 289.45 114.67C289.454 112.802 289.827 110.952 290.548 109.228C291.268 107.504 292.323 105.94 293.65 104.624C294.967 103.306 296.532 102.261 298.254 101.548C299.975 100.835 301.82 100.468 303.684 100.468C305.547 100.468 307.393 100.836 309.114 101.549C310.836 102.262 312.4 103.307 313.718 104.625C315.035 105.943 316.081 107.507 316.794 109.229C317.507 110.95 317.874 112.796 317.873 114.659C317.873 116.523 317.506 118.368 316.793 120.09C316.08 121.811 315.034 123.374 313.717 124.692ZM263.817 86.646C273.842 76.6217 287.276 70.7422 301.442 70.1788C315.609 69.6154 329.467 74.4094 340.257 83.6058C351.047 92.8022 357.976 105.726 359.665 119.802C361.353 133.879 357.677 148.075 349.368 159.562C344.395 147.415 334.809 137.736 322.712 132.644C326.229 128.926 328.579 124.259 329.473 119.219C330.367 114.18 329.764 108.989 327.74 104.288C325.716 99.5871 322.359 95.5823 318.083 92.7685C313.808 89.9547 308.802 88.4551 303.684 88.4551C298.566 88.4551 293.56 89.9547 289.285 92.7685C285.01 95.5823 281.653 99.5871 279.629 104.288C277.604 108.989 277.002 114.18 277.896 119.219C278.789 124.259 281.14 128.926 284.657 132.644C272.559 137.735 262.973 147.415 258.001 159.562C250.144 148.701 246.414 135.395 247.48 122.033C248.546 108.67 254.338 96.1247 263.817 86.646Z" fill="white"/>
</svg>
