<svg width="513" height="476" viewBox="0 0 513 476" fill="none" xmlns="http://www.w3.org/2000/svg">
<path d="M255.995 193.28C309.275 193.28 352.635 149.92 352.635 96.64C352.635 43.36 309.275 0 255.995 0C202.715 0 159.355 43.36 159.355 96.64C159.355 149.92 202.715 193.28 255.995 193.28ZM255.995 15.6C300.715 15.6 337.115 52 337.115 96.72C337.115 141.44 300.715 177.76 255.995 177.76C211.275 177.76 174.875 141.36 174.875 96.64C174.875 51.92 211.275 15.6 255.995 15.6Z" fill="white"/>
<path d="M231.275 134.48C232.795 136 234.795 136.72 236.795 136.72C238.795 136.72 240.795 136 242.315 134.48L306.875 69.8396C309.915 66.7996 309.915 61.9196 306.875 58.8796C303.835 55.8396 298.955 55.8396 295.915 58.8796L236.715 118.08L215.995 97.3596C212.955 94.3196 208.075 94.3196 205.035 97.3596C201.995 100.4 201.995 105.28 205.035 108.32L231.275 134.48ZM510.075 294L418.875 189.28C417.638 187.854 415.923 186.928 414.052 186.678C412.181 186.428 410.283 186.869 408.715 187.92L353.035 225.12C351.275 226.32 350.075 228.08 349.755 230.16V230.72C302.075 226.16 258.475 226.48 216.955 231.76C215.515 231.92 214.235 232.48 213.115 233.36L212.155 234.08C196.075 230.8 178.635 229.44 162.315 230.16V230.08C162.127 229.065 161.74 228.098 161.177 227.233C160.614 226.368 159.886 225.623 159.035 225.04L103.355 187.84C101.787 186.789 99.8888 186.348 98.0178 186.598C96.1469 186.848 94.4318 187.774 93.1951 189.2L1.91505 294C0.475055 295.68 -0.244945 297.92 0.0750548 300.08C0.395055 302.24 1.59505 304.24 3.43505 305.52L69.9951 350.72C71.3551 351.6 72.8751 352.08 74.3151 352.08C76.7151 352.08 79.1151 350.96 80.6351 348.8L85.1951 342.4C90.3151 349.76 96.4751 357.52 103.355 363.68C99.1151 369.28 97.1151 376.16 97.9951 383.2C98.8751 390.4 102.395 396.8 108.075 401.28C113.035 405.2 118.955 407.12 124.875 407.12C125.115 407.12 125.355 407.04 125.595 407.04C125.595 414.88 128.875 422.64 135.515 427.84L136.475 428.56C141.195 432.32 146.875 434.24 152.795 434.24C153.835 434.24 154.875 434.16 155.915 434.08C156.395 434 156.795 433.84 157.275 433.76C158.315 440.08 161.515 446 166.875 450.32L167.835 451.04C172.555 454.8 178.235 456.72 184.155 456.72C185.195 456.72 186.235 456.64 187.275 456.56C188.955 456.32 190.635 456 192.235 455.44C193.675 460.64 196.635 465.44 201.195 469.04L202.155 469.76C207.035 473.6 212.795 475.44 218.555 475.44C226.395 475.44 234.155 472 239.355 465.44L240.955 463.44L244.955 466.48C249.515 469.76 255.035 471.52 260.875 471.52C269.835 471.52 278.235 467.12 283.275 459.92C285.755 456.4 287.195 452.48 287.835 448.48L295.355 453.76C300.235 457.2 305.835 458.96 311.675 458.96C316.258 459.002 320.783 457.924 324.854 455.819C328.926 453.713 332.421 450.645 335.035 446.88C337.755 442.96 339.275 438.64 339.835 434.24C344.315 436.88 349.355 438.32 354.315 438.32C363.275 438.32 372.075 434.08 377.675 426.24C380.315 422.48 381.835 418.16 382.475 413.76C388.424 417.58 395.587 419.036 402.555 417.84C410.075 416.56 416.635 412.4 420.955 406.16C424.395 401.28 426.155 395.6 426.155 389.84C426.155 380.64 421.675 371.92 413.995 366.48L409.435 363.36C415.275 358 421.115 351.04 427.035 342.56L431.595 348.88C433.115 351.04 435.515 352.16 437.915 352.16C439.435 352.16 440.955 351.76 442.235 350.8L508.795 305.6C510.635 304.32 511.835 302.4 512.155 300.16C512.235 297.84 511.515 295.68 510.075 294ZM72.3951 333.6L19.3551 297.6L100.315 204.64L143.675 233.6L72.3951 333.6ZM117.675 389.2C112.715 385.28 111.835 378 115.675 373.12L118.395 369.84C120.635 366.96 124.075 365.44 127.435 365.44C129.51 365.444 131.545 366.01 133.323 367.079C135.102 368.149 136.557 369.68 137.534 371.511C138.511 373.341 138.973 375.403 138.871 377.475C138.769 379.548 138.107 381.554 136.955 383.28L133.835 387.28C129.915 392.24 122.715 393.12 117.675 389.2ZM154.075 418.8C151.115 419.12 148.315 418.32 145.995 416.56L145.035 415.84C140.315 412.08 139.515 405.2 143.275 400.48L145.995 396.96L148.475 393.92C148.475 393.84 148.555 393.84 148.555 393.76C148.795 393.52 148.875 393.2 149.035 392.96L155.915 384.32C157.755 382 160.315 380.56 163.195 380.24C163.595 380.16 164.075 380.16 164.475 380.16C166.955 380.16 169.275 380.96 171.275 382.56L172.235 383.28C176.955 387.04 177.755 393.92 173.995 398.64L162.395 413.36L161.275 414.8C159.595 416.96 157.035 418.48 154.075 418.8ZM185.515 441.28C182.635 441.6 179.755 440.8 177.515 439.04L176.555 438.32C174.235 436.48 172.795 433.92 172.475 431.04C172.155 428.16 172.955 425.28 174.795 422.96L186.395 408.24L197.355 394.4C199.195 392.08 201.755 390.64 204.635 390.32C205.035 390.24 205.515 390.24 205.915 390.24C208.395 390.24 210.715 391.04 212.635 392.56L213.595 393.28C218.315 397.04 219.115 403.92 215.355 408.64L192.795 437.2C190.955 439.52 188.395 440.96 185.515 441.28ZM211.835 457.76L210.875 457.04C206.155 453.28 205.355 446.4 209.035 441.68L210.155 440.24L213.675 435.84C215.515 433.52 218.075 432.08 220.955 431.76C221.355 431.68 221.835 431.68 222.235 431.68C224.715 431.68 227.035 432.48 228.955 434L229.915 434.72C234.635 438.48 235.435 445.36 231.675 450.08L227.035 456C223.435 460.72 216.555 461.52 211.835 457.76ZM407.995 397.2C406.075 400 403.115 401.92 399.675 402.48C396.235 403.12 392.795 402.32 389.995 400.32L370.795 386.8C370.715 386.72 370.635 386.64 370.555 386.64L312.075 345.28C311.035 344.56 309.995 344.24 308.795 344C307.299 343.638 305.728 343.735 304.287 344.277C302.847 344.819 301.602 345.781 300.715 347.04C298.235 350.56 299.115 355.36 302.635 357.84L361.835 399.52C364.55 401.528 366.372 404.519 366.91 407.853C367.448 411.187 366.66 414.599 364.715 417.36C360.635 423.2 352.475 424.64 346.715 420.56L290.075 380.08C286.555 377.6 281.755 378.4 279.275 381.92C276.795 385.44 277.595 390.24 281.035 392.72L318.155 419.28C318.395 419.52 318.635 419.84 318.955 420.08C324.795 424.16 326.235 432.24 322.075 438.08C320.075 440.88 317.115 442.8 313.675 443.36C310.235 443.92 306.875 443.2 303.995 441.2L276.555 421.92C276.475 421.84 276.395 421.76 276.315 421.76L263.435 412.72C261.756 411.541 259.679 411.073 257.657 411.418C255.634 411.762 253.829 412.892 252.635 414.56C250.155 418.08 251.035 422.88 254.475 425.36L267.515 434.56C272.715 438.4 273.995 445.76 270.155 451.12C267.915 454.32 264.395 456.16 260.475 456.16C258.715 456.16 256.075 455.76 253.835 454.16L248.475 450.08C251.115 440.24 247.835 429.28 239.355 422.56L238.635 421.84C235.595 419.44 232.075 417.84 228.395 416.96C232.237 411.455 233.838 404.694 232.872 398.051C231.906 391.408 228.446 385.382 223.195 381.2L222.235 380.48C217.556 376.756 211.746 374.742 205.767 374.771C199.787 374.8 193.997 376.871 189.355 380.64C187.675 377.04 185.275 373.76 181.915 371.2L180.955 370.48C178.24 368.32 175.125 366.721 171.788 365.773C168.451 364.826 164.959 364.549 161.515 364.96C158.395 365.36 155.435 366.32 152.635 367.68C150.928 363.063 147.997 358.997 144.155 355.92C140.022 352.661 135.03 350.676 129.788 350.207C124.546 349.739 119.281 350.806 114.635 353.28C108.235 347.76 101.355 339.36 94.7151 329.04L153.435 246.56C167.524 245.206 181.72 245.447 195.755 247.28L181.195 258.96C175.835 262.64 172.555 268.8 172.555 275.28V315.04C172.555 318.64 174.155 321.92 176.875 324.24C179.035 326 181.675 326.96 184.475 326.96C185.195 326.96 185.915 326.88 186.635 326.8C196.555 324.96 219.115 317.76 226.075 289.44H254.795C258.875 297.28 268.075 312.64 281.355 319.6C282.475 320.16 283.675 320.48 284.875 320.48L319.355 320.8L404.715 379.2C408.235 381.68 410.235 385.6 410.235 389.76C410.475 392.32 409.595 394.88 407.995 397.2ZM395.995 354.24L343.835 318.56C345.195 317.2 346.075 315.36 346.075 313.28C346.091 312.259 345.904 311.246 345.526 310.298C345.148 309.35 344.585 308.486 343.871 307.757C343.157 307.028 342.305 306.448 341.365 306.05C340.425 305.652 339.416 305.445 338.395 305.44L287.275 304.88C277.275 298.64 269.275 283.92 266.955 278.48C266.369 277.076 265.379 275.879 264.112 275.038C262.844 274.198 261.356 273.753 259.835 273.76H219.835C215.995 273.76 212.715 276.56 212.155 280.4C209.355 300.16 197.355 307.52 188.235 310.32V275.12C188.235 273.68 188.955 272.4 190.555 271.2L221.035 246.88C263.915 241.6 309.115 241.76 359.035 247.28L417.195 328.96C409.915 340.16 402.715 348.72 395.995 354.24ZM439.595 333.6L432.955 324.24C432.955 324.16 432.875 324.16 432.875 324.08L368.395 233.6L411.755 204.64L492.715 297.6L439.595 333.6Z" fill="white"/>
</svg>
