<svg width="478" height="478" viewBox="0 0 478 478" fill="none" xmlns="http://www.w3.org/2000/svg">
<path d="M213.627 179.514C212.456 191.36 214.141 203.314 218.539 214.375C222.937 225.436 229.921 235.283 238.907 243.09C240.913 244.826 242.521 246.975 243.62 249.39C244.72 251.805 245.284 254.429 245.275 257.082V273.274C245.285 281.758 248.66 289.891 254.659 295.89C260.658 301.889 268.791 305.264 277.275 305.274H293.275C301.758 305.264 309.891 301.889 315.89 295.89C321.889 289.891 325.264 281.758 325.275 273.274V257.074C325.244 254.462 325.78 251.874 326.846 249.488C327.912 247.103 329.483 244.978 331.451 243.258C339.455 236.344 345.897 227.806 350.348 218.211C354.8 208.616 357.16 198.184 357.271 187.608C357.382 177.031 355.243 166.552 350.994 156.866C346.745 147.179 340.484 138.508 332.627 131.426C325.166 124.684 316.348 119.618 306.766 116.568C297.184 113.519 287.06 112.556 277.075 113.746C260.585 115.831 245.302 123.489 233.762 135.451C222.222 147.413 215.117 162.96 213.627 179.514ZM261.275 257.274H309.275V265.274H261.275V257.274ZM293.275 289.274H277.275C274.479 289.266 271.734 288.522 269.316 287.118C266.898 285.714 264.892 283.699 263.499 281.274H307.051C305.657 283.699 303.651 285.714 301.233 287.118C298.815 288.522 296.071 289.266 293.275 289.274ZM278.875 129.634C281.013 129.393 283.163 129.272 285.315 129.274C298.857 129.258 311.922 134.276 321.971 143.354C328.126 148.915 333.03 155.72 336.358 163.318C339.686 170.916 341.362 179.135 341.275 187.43C341.189 195.724 339.341 203.906 335.854 211.433C332.367 218.96 327.321 225.66 321.051 231.09C317.793 233.941 315.124 237.4 313.195 241.274H293.275V225.274C293.276 224.032 292.987 222.807 292.432 221.696C291.876 220.585 291.069 219.619 290.075 218.874L262.603 198.266C262.192 197.958 261.858 197.558 261.628 197.098C261.397 196.639 261.276 196.132 261.275 195.618V188.586C261.326 187.955 261.55 187.351 261.922 186.839C262.295 186.327 262.802 185.928 263.386 185.686C263.971 185.444 264.611 185.368 265.237 185.466C265.862 185.564 266.448 185.833 266.931 186.242L271.619 190.93C275.298 194.443 280.188 196.402 285.275 196.402C290.361 196.402 295.252 194.443 298.931 190.93L303.619 186.242C304.101 185.833 304.687 185.564 305.312 185.466C305.938 185.368 306.578 185.444 307.163 185.686C307.748 185.928 308.254 186.327 308.627 186.839C308.999 187.351 309.224 187.955 309.275 188.586V195.618C309.273 196.134 309.153 196.642 308.922 197.102C308.692 197.563 308.358 197.964 307.947 198.274L296.475 206.874L306.075 219.674L317.547 211.074C319.942 209.271 321.886 206.936 323.227 204.254C324.567 201.573 325.268 198.617 325.275 195.618V188.586C325.275 184.767 324.142 181.033 322.02 177.857C319.898 174.681 316.882 172.206 313.353 170.744C309.824 169.282 305.941 168.9 302.195 169.645C298.449 170.39 295.007 172.229 292.307 174.93L287.619 179.618C286.995 180.237 286.153 180.584 285.275 180.584C284.396 180.584 283.554 180.237 282.931 179.618L278.243 174.93C275.542 172.229 272.101 170.39 268.354 169.645C264.608 168.9 260.725 169.282 257.196 170.744C253.667 172.206 250.651 174.681 248.529 177.857C246.407 181.033 245.274 184.767 245.275 188.586V195.618C245.282 198.615 245.984 201.57 247.324 204.25C248.665 206.93 250.609 209.263 253.003 211.066L277.275 229.274V241.274H257.307C255.341 237.357 252.638 233.856 249.347 230.962C242.302 224.826 236.83 217.091 233.387 208.407C229.943 199.722 228.629 190.339 229.555 181.042C230.807 168.18 236.354 156.113 245.301 146.787C254.248 137.461 266.075 131.419 278.875 129.634ZM277.275 81.2744H293.275V105.274H277.275V81.2744Z" fill="url(#paint0_linear_768_44)"/>
<path d="M365.274 177.275H389.274V193.275H365.274V177.275ZM181.274 177.275H205.274V193.275H181.274V177.275ZM206.042 117.411L217.354 106.099L234.314 123.059L223.01 134.379L206.042 117.411ZM336.138 123.075L353.098 106.107L364.418 117.419L347.45 134.379L336.138 123.075Z" fill="url(#paint1_linear_768_44)"/>
<path d="M285.275 344.067C320.421 344.042 354.471 331.833 381.625 309.519C408.778 287.205 427.355 256.166 434.19 221.691C441.025 187.216 435.695 151.438 419.109 120.452C402.523 89.4657 375.706 65.189 343.228 51.7577C310.749 38.3265 274.619 36.5716 240.992 46.792C207.365 57.0125 178.322 78.576 158.81 107.809C139.299 137.041 130.527 172.135 133.989 207.11C137.451 242.085 152.932 274.778 177.795 299.619C191.9 313.741 208.655 324.938 227.1 332.566C245.545 340.194 265.315 344.102 285.275 344.067ZM189.107 95.9706C208.127 76.951 232.36 63.9987 258.741 58.7515C285.123 53.5042 312.467 56.1977 337.318 66.4913C362.168 76.785 383.408 94.2165 398.352 116.581C413.296 138.946 421.272 165.24 421.272 192.139C421.272 219.037 413.296 245.331 398.352 267.696C383.408 290.061 362.168 307.492 337.318 317.786C312.467 328.079 285.123 330.773 258.741 325.526C232.36 320.278 208.127 307.326 189.107 288.307C176.425 275.707 166.36 260.724 159.492 244.22C152.624 227.715 149.089 210.015 149.089 192.139C149.089 174.262 152.624 156.562 159.492 140.058C166.36 123.553 176.425 108.57 189.107 95.9706Z" fill="url(#paint2_linear_768_44)"/>
<path d="M49.9387 472.73C52.9422 475.724 57.01 477.405 61.2507 477.405C65.4914 477.405 69.5591 475.724 72.5627 472.73L160.819 384.474C163.818 381.474 165.503 377.405 165.503 373.162C165.503 368.92 163.818 364.851 160.819 361.85L174.179 348.49C213.417 376.383 261.703 388.518 309.466 382.488C357.23 376.459 400.985 352.707 432.062 315.937C463.138 279.168 479.267 232.067 477.253 183.966C475.238 135.866 455.227 90.2775 421.185 56.2356C387.143 22.1938 341.555 2.18274 293.455 0.168296C245.354 -1.84615 198.253 14.283 161.484 45.3593C124.714 76.4356 100.962 120.191 94.9325 167.955C88.9033 215.718 101.038 264.004 128.931 303.242L115.571 316.602C112.567 313.606 108.497 311.916 104.255 311.916C100.012 311.916 95.9426 313.598 92.9387 316.594L4.67467 404.85C1.681 407.854 0 411.922 0 416.162C0 420.403 1.681 424.471 4.67467 427.474L49.9387 472.73ZM160.819 67.6903C185.432 43.0755 216.793 26.3123 250.933 19.5207C285.074 12.729 320.462 16.214 352.623 29.5348C384.783 42.8556 412.271 65.4139 431.61 94.3571C450.95 123.3 461.272 157.328 461.272 192.138C461.272 226.948 450.95 260.976 431.61 289.919C412.271 318.863 384.783 341.421 352.623 354.742C320.462 368.063 285.074 371.548 250.933 364.756C216.793 357.964 185.432 341.201 160.819 316.586C144.409 300.28 131.386 280.89 122.5 259.531C113.613 238.173 109.038 215.268 109.038 192.134C109.038 169.001 113.613 146.096 122.5 124.737C131.386 103.379 144.409 83.9884 160.819 67.6823V67.6903ZM138.771 316.01C142.195 320.066 145.691 324.082 149.507 327.898C153.331 331.722 157.347 335.21 161.395 338.642L149.507 350.53L126.883 327.898L138.771 316.01ZM104.259 327.898L149.507 373.154L61.2587 461.434L15.9947 416.154L104.259 327.898Z" fill="url(#paint3_linear_768_44)"/>
<defs>
<linearGradient id="paint0_linear_768_44" x1="212.966" y1="83.8411" x2="397.723" y2="198.852" gradientUnits="userSpaceOnUse">
<stop stop-color="#8705FF"/>
<stop offset="1" stop-color="#CC00FF"/>
</linearGradient>
<linearGradient id="paint1_linear_768_44" x1="180.841" y1="107.098" x2="239.267" y2="242.076" gradientUnits="userSpaceOnUse">
<stop stop-color="#8705FF"/>
<stop offset="1" stop-color="#CC00FF"/>
</linearGradient>
<linearGradient id="paint2_linear_768_44" x1="132.617" y1="43.708" x2="411.768" y2="314" gradientUnits="userSpaceOnUse">
<stop stop-color="#8705FF"/>
<stop offset="1" stop-color="#CC00FF"/>
</linearGradient>
<linearGradient id="paint3_linear_768_44" x1="-0.994617" y1="5.47021" x2="437.618" y2="430.177" gradientUnits="userSpaceOnUse">
<stop stop-color="#8705FF"/>
<stop offset="1" stop-color="#CC00FF"/>
</linearGradient>
</defs>
</svg>
