<svg width="512" height="459" viewBox="0 0 512 459" fill="none" xmlns="http://www.w3.org/2000/svg">
<path fill-rule="evenodd" clip-rule="evenodd" d="M392.623 287.944C390.224 287.944 387.824 287.044 386.325 284.644L368.328 259.449L349.432 284.944C343.433 293.043 331.135 283.745 337.134 275.646L359.03 246.252L337.734 216.558C331.735 208.459 344.333 199.161 350.332 207.559L368.628 233.354L387.224 208.459C393.223 200.361 405.521 209.659 399.522 217.757L378.226 246.552L398.922 275.646C402.521 280.745 398.622 287.944 392.623 287.944ZM404.321 105.879H107.379C97.481 105.879 97.481 90.5823 107.379 90.5823H404.321C414.519 90.5823 414.519 105.879 404.321 105.879ZM404.321 149.371H107.379C97.481 149.371 97.481 133.774 107.379 133.774H404.321C414.519 133.774 414.519 149.371 404.321 149.371ZM460.41 364.429V91.4821C460.41 49.4903 436.115 15.597 406.421 15.597H105.579C75.5852 15.597 51.5899 49.4903 51.5899 91.4821V364.429H212.059L212.359 364.729H212.958L213.258 365.029H213.858V365.329H214.158L214.458 365.629H214.758L215.058 365.929L215.358 366.228H215.658V366.528H215.958C215.958 366.828 218.057 369.828 218.057 372.227V395.323H293.643V372.227C293.643 366.528 296.642 366.228 299.941 364.429H301.741H460.41ZM35.993 364.429V91.4821C35.993 41.092 67.1869 0 105.579 0H406.421C444.813 0 476.007 41.092 476.007 91.4821V364.429H504.202C508.401 364.429 512 367.728 512 372.227C512 419.618 473.308 458.31 425.617 458.31H86.3831C38.6924 458.31 0 419.618 0 372.227C0 367.728 3.5993 364.429 7.79848 364.429H35.993ZM202.76 379.726H15.8969C19.7961 415.119 49.7903 443.013 86.3831 443.013H425.617C461.91 443.013 492.204 415.119 496.103 379.726H309.24V403.121C309.24 407.32 305.64 410.92 301.441 410.92H210.259C206.06 410.92 202.76 407.62 202.76 403.121V379.726ZM216.258 304.74C211.159 304.74 207.26 299.941 208.759 294.842L237.254 188.063C239.953 178.465 254.95 182.664 252.251 192.262L223.756 299.042C222.856 302.341 219.557 304.74 216.258 304.74ZM292.443 288.244C275.346 288.244 262.449 277.146 263.349 259.449V211.759C263.349 201.861 278.646 201.861 278.646 211.759C278.646 221.357 279.245 253.75 278.646 260.649C277.146 276.846 307.44 276.846 305.94 260.649C305.34 254.05 305.94 221.057 305.94 211.759C305.94 201.861 321.537 201.861 321.537 211.759V259.449C322.137 277.146 309.24 288.244 292.443 288.244ZM140.073 283.145C122.976 283.145 110.079 272.047 110.978 254.35V206.66C110.978 196.762 126.275 196.762 126.275 206.66C126.275 216.558 126.875 248.052 126.275 255.55C125.076 271.747 155.07 271.747 153.57 255.55C152.97 248.052 153.57 216.558 153.57 206.66C153.57 196.762 169.167 196.762 169.167 206.66V254.35C169.767 272.047 156.869 283.145 140.073 283.145ZM191.963 282.845C187.763 282.845 184.164 279.545 184.164 275.046V206.96C184.164 196.762 199.761 196.762 199.761 206.96V275.046C199.761 279.545 196.162 282.845 191.963 282.845Z" fill="url(#paint0_linear_768_41)"/>
<defs>
<linearGradient id="paint0_linear_768_41" x1="-1.06666" y1="5.25142" x2="418.926" y2="459.554" gradientUnits="userSpaceOnUse">
<stop stop-color="#8705FF"/>
<stop offset="1" stop-color="#CC00FF"/>
</linearGradient>
</defs>
</svg>
