<svg width="470" height="384" viewBox="0 0 470 384" fill="none" xmlns="http://www.w3.org/2000/svg">
<path d="M416 0H53.333C39.1932 0.0161449 25.6371 5.64032 15.6387 15.6387C5.64033 25.6371 0.0161449 39.1932 0 53.333V330.667C0.0161449 344.807 5.64033 358.363 15.6387 368.361C25.6371 378.36 39.1932 383.984 53.333 384H416C430.14 383.984 443.696 378.36 453.694 368.361C463.693 358.363 469.317 344.807 469.333 330.667V53.333C469.317 39.1932 463.693 25.6371 453.694 15.6387C443.696 5.64032 430.14 0.0161449 416 0ZM448 330.667C447.99 339.151 444.616 347.285 438.617 353.284C432.618 359.283 424.484 362.657 416 362.667H53.333C44.849 362.657 36.7152 359.283 30.7161 353.284C24.717 347.285 21.3425 339.151 21.333 330.667V53.333C21.3425 44.849 24.717 36.7152 30.7161 30.7161C36.7152 24.717 44.849 21.3425 53.333 21.333H416C424.484 21.3425 432.618 24.717 438.617 30.7161C444.616 36.7152 447.99 44.849 448 53.333V330.667Z" fill="white"/>
<path d="M106.668 42.6685H64.001C58.3451 42.6748 52.9226 44.9244 48.9233 48.9238C44.9239 52.9231 42.6743 58.3456 42.668 64.0015V106.668C42.6952 109.48 43.831 112.166 45.8284 114.144C47.8258 116.122 50.5233 117.232 53.3345 117.232C56.1456 117.232 58.8432 116.122 60.8406 114.144C62.838 112.166 63.9738 109.48 64.001 106.668V64.0015H106.668C108.077 64.0151 109.476 63.7493 110.782 63.2194C112.088 62.6894 113.276 61.9059 114.277 60.9141C115.279 59.9223 116.074 58.7418 116.616 57.4409C117.159 56.14 117.438 54.7445 117.438 53.335C117.438 51.9255 117.159 50.5299 116.616 49.229C116.074 47.9281 115.279 46.7477 114.277 45.7558C113.276 44.764 112.088 43.9805 110.782 43.4506C109.476 42.9206 108.077 42.6548 106.668 42.6685ZM416.001 266.668C413.172 266.668 410.459 267.792 408.458 269.793C406.458 271.793 405.334 274.506 405.334 277.335V320.001H362.668C361.259 319.988 359.86 320.254 358.554 320.784C357.248 321.313 356.06 322.097 355.059 323.089C354.057 324.081 353.262 325.261 352.72 326.562C352.177 327.863 351.898 329.258 351.898 330.668C351.898 332.077 352.177 333.473 352.72 334.774C353.262 336.075 354.057 337.255 355.059 338.247C356.06 339.239 357.248 340.022 358.554 340.552C359.86 341.082 361.259 341.348 362.668 341.334H405.335C410.991 341.328 416.413 339.079 420.413 335.079C424.412 331.08 426.662 325.657 426.668 320.001V277.334C426.668 274.506 425.544 271.793 423.543 269.792C421.543 267.792 418.83 266.668 416.001 266.668ZM405.334 42.6685H362.668C361.259 42.6548 359.86 42.9206 358.554 43.4506C357.248 43.9805 356.06 44.764 355.059 45.7558C354.057 46.7477 353.262 47.9281 352.72 49.229C352.177 50.5299 351.898 51.9255 351.898 53.335C351.898 54.7445 352.177 56.14 352.72 57.4409C353.262 58.7418 354.057 59.9223 355.059 60.9141C356.06 61.9059 357.248 62.6894 358.554 63.2194C359.86 63.7493 361.259 64.0151 362.668 64.0015H405.335V106.668C405.362 109.48 406.498 112.166 408.495 114.144C410.493 116.122 413.19 117.232 416.001 117.232C418.813 117.232 421.51 116.122 423.508 114.144C425.505 112.166 426.641 109.48 426.668 106.668V64.0015C426.662 58.3454 424.412 52.9228 420.412 48.9234C416.413 44.9241 410.99 42.6746 405.334 42.6685ZM106.668 320.001H64.001V277.334C63.9738 274.523 62.838 271.837 60.8406 269.859C58.8432 267.88 56.1456 266.771 53.3345 266.771C50.5233 266.771 47.8258 267.88 45.8284 269.859C43.831 271.837 42.6952 274.523 42.668 277.334V320.001C42.6743 325.657 44.9239 331.08 48.9233 335.079C52.9226 339.079 58.3451 341.328 64.001 341.334H106.668C108.077 341.348 109.476 341.082 110.782 340.552C112.088 340.022 113.276 339.239 114.277 338.247C115.279 337.255 116.074 336.075 116.616 334.774C117.159 333.473 117.438 332.077 117.438 330.668C117.438 329.258 117.159 327.863 116.616 326.562C116.074 325.261 115.279 324.081 114.277 323.089C113.276 322.097 112.088 321.313 110.782 320.784C109.476 320.254 108.077 319.988 106.668 320.001ZM213.334 117.334C210.505 117.335 207.792 118.459 205.792 120.459C203.792 122.46 202.668 125.173 202.668 128.001V181.334H149.334V128.001C149.348 126.592 149.082 125.194 148.552 123.888C148.022 122.582 147.238 121.394 146.247 120.392C145.255 119.391 144.074 118.596 142.773 118.053C141.472 117.511 140.077 117.231 138.667 117.231C137.258 117.231 135.862 117.511 134.562 118.053C133.261 118.596 132.08 119.391 131.088 120.392C130.097 121.394 129.313 122.582 128.783 123.888C128.253 125.194 127.987 126.592 128.001 128.001V256.001C127.987 257.411 128.253 258.809 128.783 260.115C129.313 261.421 130.097 262.609 131.088 263.611C132.08 264.612 133.261 265.407 134.562 265.95C135.862 266.492 137.258 266.772 138.667 266.772C140.077 266.772 141.472 266.492 142.773 265.95C144.074 265.407 145.255 264.612 146.247 263.611C147.238 262.609 148.022 261.421 148.552 260.115C149.082 258.809 149.348 257.411 149.334 256.001V202.668H202.668V256.001C202.654 257.411 202.92 258.809 203.45 260.115C203.98 261.421 204.764 262.609 205.755 263.611C206.747 264.612 207.928 265.407 209.229 265.95C210.529 266.492 211.925 266.772 213.334 266.772C214.744 266.772 216.139 266.492 217.44 265.95C218.741 265.407 219.922 264.612 220.914 263.611C221.905 262.609 222.689 261.421 223.219 260.115C223.749 258.809 224.015 257.411 224.001 256.001V128.001C224.001 125.172 222.877 122.459 220.877 120.459C218.876 118.458 216.163 117.334 213.334 117.334ZM308.203 126.201C295.016 120.733 280.938 117.728 266.668 117.334C263.839 117.334 261.126 118.458 259.125 120.459C257.125 122.459 256.001 125.172 256.001 128.001V256.001C256.001 258.831 257.125 261.544 259.125 263.544C261.126 265.545 263.839 266.668 266.668 266.668C280.938 266.276 295.016 263.272 308.203 257.805C336.856 245.525 352.003 222.77 352.003 192.005C352.003 161.24 336.856 138.476 308.203 126.201ZM277.334 244.432V139.571C295.598 142.189 330.668 152.374 330.668 192.001C330.668 231.628 295.584 241.817 277.334 244.432Z" fill="white"/>
</svg>
