<svg width="480" height="480" viewBox="0 0 480 480" fill="none" xmlns="http://www.w3.org/2000/svg">
<path d="M136 128H152V144H136V128ZM88 128H104V144H88V128Z" fill="white"/>
<path d="M207.2 235.92L152 210.88V199.36C159.331 195.09 165.748 189.416 170.882 182.662C176.017 175.907 179.767 168.206 181.92 160H200C204.24 159.987 208.302 158.298 211.3 155.3C214.298 152.302 215.987 148.24 216 144V112C215.987 107.76 214.298 103.698 211.3 100.7C208.302 97.7024 204.24 96.0127 200 96V80C200 58.7827 191.571 38.4344 176.569 23.4315C161.566 8.42855 141.217 0 120 0C98.7827 0 78.4344 8.42855 63.4315 23.4315C48.4285 38.4344 40 58.7827 40 80V96C35.7604 96.0127 31.6981 97.7024 28.7003 100.7C25.7024 103.698 24.0127 107.76 24 112V144C24.0127 148.24 25.7024 152.302 28.7003 155.3C31.6981 158.298 35.7604 159.987 40 160H58.08C60.2325 168.206 63.9834 175.907 69.1177 182.662C74.2519 189.416 80.6686 195.09 88 199.36V210.88L32.8 235.92C23.0266 240.403 14.7429 247.594 8.92977 256.639C3.11665 265.685 0.0177262 276.207 0 286.96V320C0 322.122 0.842854 324.157 2.34315 325.657C3.84344 327.157 5.87827 328 8 328H232C234.122 328 236.157 327.157 237.657 325.657C239.157 324.157 240 322.122 240 320V286.96C239.982 276.207 236.883 265.685 231.07 256.639C225.257 247.594 216.973 240.403 207.2 235.92ZM168 103.04C166.105 102.139 164.64 100.531 163.92 98.56L159.6 85.44C159.205 84.2421 158.526 83.1578 157.62 82.28C156.715 81.4022 155.61 80.7571 154.4 80.4C153.191 80.0145 151.907 79.9223 150.655 80.131C149.403 80.3396 148.219 80.8432 147.2 81.6L132.24 92.8C122.535 100.048 110.753 103.976 98.64 104H72V96C72 83.2696 77.0571 71.0606 86.0589 62.0589C95.0606 53.0571 107.27 48 120 48C132.73 48 144.939 53.0571 153.941 62.0589C162.943 71.0606 168 83.2696 168 96V103.04ZM200 144H184V112H200V144ZM56 144H40V112H56V144ZM56 96V80C56 63.0261 62.7428 46.7475 74.7452 34.7452C86.7475 22.7428 103.026 16 120 16C136.974 16 153.253 22.7428 165.255 34.7452C177.257 46.7475 184 63.0261 184 80V96C184 79.0261 177.257 62.7475 165.255 50.7452C153.253 38.7428 136.974 32 120 32C103.026 32 86.7475 38.7428 74.7452 50.7452C62.7428 62.7475 56 79.0261 56 96ZM72 144V120H98.64C114.216 119.982 129.368 114.931 141.84 105.6L147.92 101.04L148.8 103.6C150.19 107.8 152.722 111.529 156.114 114.37C159.505 117.21 163.621 119.049 168 119.68V144C168 156.73 162.943 168.939 153.941 177.941C144.939 186.943 132.73 192 120 192C107.27 192 95.0606 186.943 86.0589 177.941C77.0571 168.939 72 156.73 72 144ZM136 205.92V216C136 220.243 134.314 224.313 131.314 227.314C128.313 230.314 124.243 232 120 232C115.757 232 111.687 230.314 108.686 227.314C105.686 224.313 104 220.243 104 216V205.92C114.486 208.693 125.514 208.693 136 205.92ZM224 312H192V280H176V312H64V280H48V312H16V286.96C16.0045 279.273 18.2158 271.75 22.3709 265.283C26.5261 258.816 32.4504 253.678 39.44 250.48L90.24 227.44C92.5253 233.484 96.5969 238.69 101.913 242.363C107.229 246.037 113.538 248.004 120 248.004C126.462 248.004 132.771 246.037 138.087 242.363C143.403 238.69 147.475 233.484 149.76 227.44L200.56 250.48C207.55 253.678 213.474 258.816 217.629 265.283C221.784 271.75 223.995 279.273 224 286.96V312ZM376 280H392V296H376V280ZM328 280H344V296H328V280Z" fill="white"/>
<path d="M447.2 387.92L392 362.88V351.36C399.331 347.09 405.748 341.416 410.882 334.662C416.017 327.907 419.767 320.206 421.92 312H440C444.24 311.987 448.302 310.298 451.3 307.3C454.298 304.302 455.987 300.24 456 296V264C455.987 259.76 454.298 255.698 451.3 252.7C448.302 249.702 444.24 248.013 440 248V232C440 210.783 431.571 190.434 416.569 175.431C401.566 160.429 381.217 152 360 152C338.783 152 318.434 160.429 303.431 175.431C288.429 190.434 280 210.783 280 232V248C275.76 248.013 271.698 249.702 268.7 252.7C265.702 255.698 264.013 259.76 264 264V296C264.013 300.24 265.702 304.302 268.7 307.3C271.698 310.298 275.76 311.987 280 312H298.08C300.233 320.206 303.983 327.907 309.118 334.662C314.252 341.416 320.669 347.09 328 351.36V362.88L272.8 387.92C263.027 392.403 254.743 399.594 248.93 408.639C243.117 417.685 240.018 428.207 240 438.96V472C240 474.122 240.843 476.157 242.343 477.657C243.843 479.157 245.878 480 248 480H472C474.122 480 476.157 479.157 477.657 477.657C479.157 476.157 480 474.122 480 472V438.96C479.982 428.207 476.883 417.685 471.07 408.639C465.257 399.594 456.973 392.403 447.2 387.92ZM408 255.04C406.105 254.139 404.64 252.531 403.92 250.56L399.6 237.44C399.205 236.242 398.526 235.158 397.62 234.28C396.715 233.402 395.61 232.757 394.4 232.4C393.191 232.015 391.907 231.922 390.655 232.131C389.403 232.34 388.219 232.843 387.2 233.6L372.24 244.8C362.535 252.048 350.753 255.976 338.64 256H312V248C312 235.27 317.057 223.061 326.059 214.059C335.061 205.057 347.27 200 360 200C372.73 200 384.939 205.057 393.941 214.059C402.943 223.061 408 235.27 408 248V255.04ZM440 296H424V264H440V296ZM296 296H280V264H296V296ZM296 248V232C296 215.026 302.743 198.747 314.745 186.745C326.748 174.743 343.026 168 360 168C376.974 168 393.252 174.743 405.255 186.745C417.257 198.747 424 215.026 424 232V248C424 231.026 417.257 214.747 405.255 202.745C393.252 190.743 376.974 184 360 184C343.026 184 326.748 190.743 314.745 202.745C302.743 214.747 296 231.026 296 248ZM312 296V272H338.64C354.216 271.982 369.368 266.931 381.84 257.6L387.92 253.04L388.8 255.6C390.19 259.8 392.722 263.529 396.114 266.37C399.505 269.21 403.621 271.049 408 271.68V296C408 308.73 402.943 320.939 393.941 329.941C384.939 338.943 372.73 344 360 344C347.27 344 335.061 338.943 326.059 329.941C317.057 320.939 312 308.73 312 296ZM376 357.92V368C376 372.243 374.314 376.313 371.314 379.314C368.313 382.314 364.243 384 360 384C355.757 384 351.687 382.314 348.686 379.314C345.686 376.313 344 372.243 344 368V357.92C354.486 360.693 365.514 360.693 376 357.92ZM464 464H432V432H416V464H304V432H288V464H256V438.96C256.005 431.273 258.216 423.75 262.371 417.283C266.526 410.816 272.45 405.678 279.44 402.48L330.24 379.44C332.525 385.484 336.597 390.69 341.913 394.363C347.229 398.037 353.538 400.004 360 400.004C366.462 400.004 372.771 398.037 378.087 394.363C383.403 390.69 387.475 385.484 389.76 379.44L440.56 402.48C447.55 405.678 453.474 410.816 457.629 417.283C461.784 423.75 463.995 431.273 464 438.96V464ZM168 344H72C55.0333 344.023 38.7682 350.774 26.7709 362.771C14.7736 374.768 8.02328 391.033 8 408V448C8.01899 454.359 10.5537 460.453 15.0504 464.95C19.5472 469.446 25.6406 471.981 32 472H56C57.8023 471.977 59.5464 471.358 60.96 470.24L97.12 441.76C98.5336 440.642 100.278 440.023 102.08 440H137.92C139.708 440.031 141.441 440.618 142.88 441.68L179.04 470.24C180.454 471.358 182.198 471.977 184 472H208C214.359 471.981 220.453 469.446 224.95 464.95C229.446 460.453 231.981 454.359 232 448V408C231.977 391.033 225.226 374.768 213.229 362.771C201.232 350.774 184.967 344.023 168 344ZM216 448C216 450.122 215.157 452.157 213.657 453.657C212.157 455.157 210.122 456 208 456H186.8L152.8 429.2C148.565 425.844 143.323 424.012 137.92 424H102.08C96.6767 424.012 91.4349 425.844 87.2 429.2L53.2 456H32C29.8783 456 27.8434 455.157 26.3431 453.657C24.8429 452.157 24 450.122 24 448V408C24 395.27 29.0571 383.061 38.0589 374.059C47.0606 365.057 59.2696 360 72 360H168C180.73 360 192.939 365.057 201.941 374.059C210.943 383.061 216 395.27 216 408V448Z" fill="white"/>
<path d="M72 376H56V392H40V408H56V424H72V408H88V392H72V376ZM168 376H184V392H168V376ZM184 392H200V408H184V392ZM168 408H184V424H168V408ZM152 392H168V408H152V392ZM96 376H112V392H96V376ZM128 376H144V392H128V376ZM408 24H312C295.033 24.0233 278.768 30.7736 266.771 42.7709C254.774 54.7682 248.023 71.0333 248 88V128C248.019 134.359 250.554 140.453 255.05 144.95C259.547 149.446 265.641 151.981 272 152H296C297.802 151.977 299.546 151.358 300.96 150.24L337.12 121.76C338.534 120.642 340.278 120.023 342.08 120H377.92C379.708 120.031 381.441 120.618 382.88 121.68L419.04 150.24C420.454 151.358 422.198 151.977 424 152H448C454.359 151.981 460.453 149.446 464.95 144.95C469.446 140.453 471.981 134.359 472 128V88C471.977 71.0333 465.226 54.7682 453.229 42.7709C441.232 30.7736 424.967 24.0233 408 24ZM456 128C456 130.122 455.157 132.157 453.657 133.657C452.157 135.157 450.122 136 448 136H426.8L392.8 109.2C388.565 105.844 383.323 104.012 377.92 104H342.08C336.677 104.012 331.435 105.844 327.2 109.2L293.2 136H272C269.878 136 267.843 135.157 266.343 133.657C264.843 132.157 264 130.122 264 128V88C264 75.2696 269.057 63.0606 278.059 54.0589C287.061 45.0571 299.27 40 312 40H408C420.73 40 432.939 45.0571 441.941 54.0589C450.943 63.0606 456 75.2696 456 88V128Z" fill="white"/>
<path d="M296 104H312V88H328V72H312V56H296V72H280V88H296V104ZM408 56H424V72H408V56ZM424 72H440V88H424V72ZM408 88H424V104H408V88ZM392 72H408V88H392V72ZM336 56H352V72H336V56ZM368 56H384V72H368V56Z" fill="white"/>
</svg>
