<svg width="510" height="412" viewBox="0 0 510 412" fill="none" xmlns="http://www.w3.org/2000/svg">
<path d="M379.393 0.167C378.229 -0.0740982 377.027 -0.0529394 375.872 0.228939C374.718 0.510817 373.641 1.04633 372.72 1.79657C371.798 2.54681 371.055 3.49291 370.545 4.56614C370.035 5.63936 369.771 6.81274 369.771 8.001V156.103C334.928 162.827 295.751 166.395 255 166.395C214.248 166.395 175.071 162.827 140.228 156.103V8.001C140.228 6.8128 139.963 5.63952 139.453 4.56638C138.943 3.49325 138.2 2.54722 137.279 1.79702C136.358 1.04682 135.281 0.511293 134.126 0.22934C132.972 -0.0526136 131.77 -0.0739076 130.606 0.167C48.825 17.094 0 48.925 0 85.315V314.454C0 341.872 27.57 366.914 77.631 384.969C125.131 402.1 188.122 411.534 255 411.534C321.878 411.534 384.869 402.099 432.369 384.969C482.43 366.914 510 341.871 510 314.454V85.315C510 48.925 461.175 17.094 379.393 0.167ZM124.228 17.935V152.719C109.502 149.326 95.697 145.337 83.059 140.779C40.442 125.409 16 105.193 16 85.315C16 59.172 58.14 33.137 124.228 17.935ZM494 314.454C494 334.332 469.558 354.548 426.941 369.918C415.129 374.178 402.294 377.94 388.645 381.184C389.778 380.463 390.711 379.467 391.357 378.289C392.003 377.112 392.342 375.79 392.342 374.447V342.694C392.342 340.469 391.415 338.344 389.784 336.831L375.238 323.329V274.872L380.889 272.165C384.131 270.613 386.144 267.511 386.145 264.071C386.145 260.433 383.96 257.214 380.301 255.461L258.026 196.891C254.978 195.432 250.192 194.776 246.366 196.609L122.911 255.744L122.908 255.745C119.668 257.299 117.656 260.401 117.657 263.841C117.658 267.479 119.844 270.696 123.501 272.447L156.511 288.259V328.736C156.511 334.219 159.583 339.096 164.526 341.464L226.43 371.117C234.763 375.108 243.33 377.103 251.9 377.103C260.468 377.103 269.04 375.107 277.371 371.117L339.276 341.464C340.748 340.761 342.088 339.81 343.237 338.652C342.516 339.878 342.136 341.273 342.134 342.695V374.448C342.134 376.57 342.977 378.605 344.477 380.105C345.977 381.605 348.012 382.448 350.134 382.448H383.168C345.113 390.971 301.065 395.535 255 395.535C189.926 395.535 128.863 386.438 83.059 369.919C40.442 354.548 16 334.332 16 314.454V120.171C29.064 133.679 49.896 145.827 77.631 155.829C125.131 172.96 188.122 182.394 255 182.394C321.878 182.394 384.869 172.959 432.369 155.829C460.104 145.827 480.935 133.679 494 120.171V314.454ZM251.901 211.697L355.273 261.213L252.308 255.964C247.907 255.753 244.137 259.133 243.911 263.547C243.857 264.596 244.011 265.646 244.363 266.636C244.715 267.626 245.259 268.536 245.963 269.316C246.667 270.096 247.518 270.729 248.467 271.18C249.416 271.631 250.445 271.891 251.494 271.944L335.386 276.221L251.901 316.21L142.807 263.954L251.901 211.697ZM172.511 295.922L245.775 331.016C247.509 331.848 249.806 332.417 252.168 332.417C253.959 332.417 255.787 332.089 257.436 331.299L331.292 295.922V327.547L270.459 356.687C258.318 362.502 245.483 362.502 233.342 356.687L172.511 327.547V295.922ZM347.292 328.735V288.257L359.238 282.535V323.328L344.864 336.67C346.453 334.33 347.3 331.564 347.292 328.735ZM358.134 346.183L367.238 337.732L376.342 346.183V366.447H358.134V346.183ZM426.941 140.779C414.302 145.337 400.497 149.327 385.771 152.719V17.935C451.859 33.137 494 59.172 494 85.315C494 105.193 469.558 125.409 426.941 140.779ZM185.683 129.181H324.317C335.439 129.181 344.487 120.133 344.487 109.011V20.17C344.487 9.048 335.439 0 324.317 0H185.683C174.561 0 165.514 9.048 165.514 20.17V109.011C165.513 120.133 174.561 129.181 185.683 129.181ZM181.513 20.17C181.513 17.91 183.422 16 185.682 16H324.316C326.577 16 328.486 17.91 328.486 20.17V109.011C328.486 111.271 326.576 113.181 324.316 113.181H185.683C183.423 113.181 181.514 111.271 181.514 109.011V20.17H181.513ZM229.582 103.902C231.467 104.988 233.604 105.558 235.779 105.556C237.927 105.556 240.077 105.002 241.995 103.895L291.458 75.338C293.342 74.2458 294.906 72.6781 295.994 70.7918C297.082 68.9055 297.656 66.7666 297.658 64.589C297.658 60.167 295.282 56.049 291.458 53.843L241.995 25.287C240.107 24.1998 237.968 23.6269 235.79 23.6255C233.611 23.6241 231.471 24.1943 229.582 25.279C227.698 26.372 226.133 27.9403 225.045 29.8273C223.957 31.7142 223.383 33.8537 223.38 36.032V93.148C223.38 97.573 225.756 101.693 229.582 103.902ZM239.38 42.252L278.072 64.59L239.38 86.928V42.252Z" fill="url(#paint0_linear_1141_706)"/>
<defs>
<linearGradient id="paint0_linear_1141_706" x1="375.021" y1="396.656" x2="166.392" y2="-24.9259" gradientUnits="userSpaceOnUse">
<stop offset="0.0001" stop-color="#BE42B1"/>
<stop offset="1" stop-color="#3B4BAA"/>
</linearGradient>
</defs>
</svg>
