<svg width="512" height="512" viewBox="0 0 512 512" fill="none" xmlns="http://www.w3.org/2000/svg">
<path fill-rule="evenodd" clip-rule="evenodd" d="M26.4828 35.3103H256V476.69H26.4828C19.4591 476.69 12.7231 473.899 7.75662 468.933C2.79014 463.966 0 457.231 0 450.207L0 61.7931C0 54.7694 2.79014 48.0334 7.75662 43.0669C12.7231 38.1004 19.4591 35.3103 26.4828 35.3103Z" fill="#464F5D"/>
<path d="M273.654 494.345L273.654 17.6552C273.654 7.90449 265.75 0 255.999 0C246.248 0 238.344 7.90449 238.344 17.6552L238.344 494.345C238.344 504.096 246.248 512 255.999 512C265.75 512 273.654 504.096 273.654 494.345Z" fill="#BDC3C7"/>
<path fill-rule="evenodd" clip-rule="evenodd" d="M35.31 132.414C33.4573 132.414 31.6515 131.831 30.1484 130.748C28.6454 129.664 27.5213 128.136 26.9354 126.378C26.3495 124.62 26.3315 122.723 26.884 120.954C27.4364 119.186 28.5313 117.636 30.0135 116.524L55.9048 97.1036L30.0135 77.6829C29.0861 76.9873 28.3047 76.1159 27.7141 75.1184C27.1235 74.1209 26.7351 73.0168 26.5711 71.8692C26.4072 70.7216 26.4709 69.5529 26.7586 68.43C27.0463 67.307 27.5524 66.2517 28.2479 65.3243C28.9435 64.3968 29.8149 63.6155 30.8124 63.0249C31.8099 62.4343 32.914 62.0459 34.0616 61.8819C35.2092 61.718 36.3779 61.7817 37.5008 62.0694C38.6238 62.3571 39.6792 62.8632 40.6066 63.5587L75.9169 90.0415C77.0133 90.8638 77.9031 91.93 78.516 93.1557C79.1289 94.3815 79.4479 95.7331 79.4479 97.1036C79.4479 98.474 79.1289 99.8256 78.516 101.051C77.9031 102.277 77.0133 103.343 75.9169 104.166L40.6066 130.648C39.0785 131.794 37.22 132.414 35.31 132.414ZM141.241 132.414H105.931C103.589 132.414 101.344 131.484 99.6887 129.828C98.0332 128.173 97.1031 125.928 97.1031 123.586C97.1031 121.245 98.0332 119 99.6887 117.344C101.344 115.689 103.589 114.759 105.931 114.759H141.241C143.582 114.759 145.828 115.689 147.483 117.344C149.139 119 150.069 121.245 150.069 123.586C150.069 125.928 149.139 128.173 147.483 129.828C145.828 131.484 143.582 132.414 141.241 132.414ZM61.7928 185.379H35.31C32.9688 185.379 30.7235 184.449 29.068 182.794C27.4125 181.138 26.4824 178.893 26.4824 176.552C26.4824 174.211 27.4125 171.965 29.068 170.31C30.7235 168.654 32.9688 167.724 35.31 167.724H61.7928C64.134 167.724 66.3793 168.654 68.0348 170.31C69.6903 171.965 70.6204 174.211 70.6204 176.552C70.6204 178.893 69.6903 181.138 68.0348 182.794C66.3793 184.449 64.134 185.379 61.7928 185.379ZM61.7928 220.69H35.31C32.9688 220.69 30.7235 219.76 29.068 218.104C27.4125 216.449 26.4824 214.203 26.4824 211.862C26.4824 209.521 27.4125 207.276 29.068 205.62C30.7235 203.965 32.9688 203.035 35.31 203.035H61.7928C64.134 203.035 66.3793 203.965 68.0348 205.62C69.6903 207.276 70.6204 209.521 70.6204 211.862C70.6204 214.203 69.6903 216.449 68.0348 218.104C66.3793 219.76 64.134 220.69 61.7928 220.69ZM61.7928 256H35.31C32.9688 256 30.7235 255.07 29.068 253.415C27.4125 251.759 26.4824 249.514 26.4824 247.173C26.4824 244.831 27.4125 242.586 29.068 240.93C30.7235 239.275 32.9688 238.345 35.31 238.345H61.7928C64.134 238.345 66.3793 239.275 68.0348 240.93C69.6903 242.586 70.6204 244.831 70.6204 247.173C70.6204 249.514 69.6903 251.759 68.0348 253.415C66.3793 255.07 64.134 256 61.7928 256ZM61.7928 291.31H35.31C32.9688 291.31 30.7235 290.38 29.068 288.725C27.4125 287.069 26.4824 284.824 26.4824 282.483C26.4824 280.142 27.4125 277.896 29.068 276.241C30.7235 274.585 32.9688 273.655 35.31 273.655H61.7928C64.134 273.655 66.3793 274.585 68.0348 276.241C69.6903 277.896 70.6204 280.142 70.6204 282.483C70.6204 284.824 69.6903 287.069 68.0348 288.725C66.3793 290.38 64.134 291.31 61.7928 291.31ZM61.7928 326.621H35.31C32.9688 326.621 30.7235 325.691 29.068 324.035C27.4125 322.38 26.4824 320.134 26.4824 317.793C26.4824 315.452 27.4125 313.207 29.068 311.551C30.7235 309.896 32.9688 308.966 35.31 308.966H61.7928C64.134 308.966 66.3793 309.896 68.0348 311.551C69.6903 313.207 70.6204 315.452 70.6204 317.793C70.6204 320.134 69.6903 322.38 68.0348 324.035C66.3793 325.691 64.134 326.621 61.7928 326.621ZM61.7928 361.931H35.31C32.9688 361.931 30.7235 361.001 29.068 359.346C27.4125 357.69 26.4824 355.445 26.4824 353.104C26.4824 350.762 27.4125 348.517 29.068 346.862C30.7235 345.206 32.9688 344.276 35.31 344.276H61.7928C64.134 344.276 66.3793 345.206 68.0348 346.862C69.6903 348.517 70.6204 350.762 70.6204 353.104C70.6204 355.445 69.6903 357.69 68.0348 359.346C66.3793 361.001 64.134 361.931 61.7928 361.931ZM61.7928 397.241H35.31C32.9688 397.241 30.7235 396.311 29.068 394.656C27.4125 393 26.4824 390.755 26.4824 388.414C26.4824 386.073 27.4125 383.827 29.068 382.172C30.7235 380.516 32.9688 379.586 35.31 379.586H61.7928C64.134 379.586 66.3793 380.516 68.0348 382.172C69.6903 383.827 70.6204 386.073 70.6204 388.414C70.6204 390.755 69.6903 393 68.0348 394.656C66.3793 396.311 64.134 397.241 61.7928 397.241ZM61.7928 432.552H35.31C32.9688 432.552 30.7235 431.622 29.068 429.966C27.4125 428.311 26.4824 426.065 26.4824 423.724C26.4824 421.383 27.4125 419.138 29.068 417.482C30.7235 415.827 32.9688 414.897 35.31 414.897H61.7928C64.134 414.897 66.3793 415.827 68.0348 417.482C69.6903 419.138 70.6204 421.383 70.6204 423.724C70.6204 426.065 69.6903 428.311 68.0348 429.966C66.3793 431.622 64.134 432.552 61.7928 432.552ZM203.034 185.379H97.1031C94.7619 185.379 92.5166 184.449 90.8611 182.794C89.2056 181.138 88.2755 178.893 88.2755 176.552C88.2755 174.211 89.2056 171.965 90.8611 170.31C92.5166 168.654 94.7619 167.724 97.1031 167.724H203.034C205.375 167.724 207.621 168.654 209.276 170.31C210.932 171.965 211.862 174.211 211.862 176.552C211.862 178.893 210.932 181.138 209.276 182.794C207.621 184.449 205.375 185.379 203.034 185.379ZM185.379 220.69H114.758C112.417 220.69 110.172 219.76 108.516 218.104C106.861 216.449 105.931 214.203 105.931 211.862C105.931 209.521 106.861 207.276 108.516 205.62C110.172 203.965 112.417 203.035 114.758 203.035H185.379C187.72 203.035 189.966 203.965 191.621 205.62C193.277 207.276 194.207 209.521 194.207 211.862C194.207 214.203 193.277 216.449 191.621 218.104C189.966 219.76 187.72 220.69 185.379 220.69ZM203.034 256H97.1031C94.7619 256 92.5166 255.07 90.8611 253.415C89.2056 251.759 88.2755 249.514 88.2755 247.173C88.2755 244.831 89.2056 242.586 90.8611 240.93C92.5166 239.275 94.7619 238.345 97.1031 238.345H203.034C205.375 238.345 207.621 239.275 209.276 240.93C210.932 242.586 211.862 244.831 211.862 247.173C211.862 249.514 210.932 251.759 209.276 253.415C207.621 255.07 205.375 256 203.034 256ZM185.379 291.31H114.758C112.417 291.31 110.172 290.38 108.516 288.725C106.861 287.069 105.931 284.824 105.931 282.483C105.931 280.142 106.861 277.896 108.516 276.241C110.172 274.585 112.417 273.655 114.758 273.655H185.379C187.72 273.655 189.966 274.585 191.621 276.241C193.277 277.896 194.207 280.142 194.207 282.483C194.207 284.824 193.277 287.069 191.621 288.725C189.966 290.38 187.72 291.31 185.379 291.31ZM203.034 326.621H97.1031C94.7619 326.621 92.5166 325.691 90.8611 324.035C89.2056 322.38 88.2755 320.134 88.2755 317.793C88.2755 315.452 89.2056 313.207 90.8611 311.551C92.5166 309.896 94.7619 308.966 97.1031 308.966H203.034C205.375 308.966 207.621 309.896 209.276 311.551C210.932 313.207 211.862 315.452 211.862 317.793C211.862 320.134 210.932 322.38 209.276 324.035C207.621 325.691 205.375 326.621 203.034 326.621ZM185.379 361.931H114.758C112.417 361.931 110.172 361.001 108.516 359.346C106.861 357.69 105.931 355.445 105.931 353.104C105.931 350.762 106.861 348.517 108.516 346.862C110.172 345.206 112.417 344.276 114.758 344.276H185.379C187.72 344.276 189.966 345.206 191.621 346.862C193.277 348.517 194.207 350.762 194.207 353.104C194.207 355.445 193.277 357.69 191.621 359.346C189.966 361.001 187.72 361.931 185.379 361.931ZM203.034 397.241H97.1031C94.7619 397.241 92.5166 396.311 90.8611 394.656C89.2056 393 88.2755 390.755 88.2755 388.414C88.2755 386.073 89.2056 383.827 90.8611 382.172C92.5166 380.516 94.7619 379.586 97.1031 379.586H203.034C205.375 379.586 207.621 380.516 209.276 382.172C210.932 383.827 211.862 386.073 211.862 388.414C211.862 390.755 210.932 393 209.276 394.656C207.621 396.311 205.375 397.241 203.034 397.241ZM185.379 432.552H114.758C112.417 432.552 110.172 431.622 108.516 429.966C106.861 428.311 105.931 426.065 105.931 423.724C105.931 421.383 106.861 419.138 108.516 417.482C110.172 415.827 112.417 414.897 114.758 414.897H185.379C187.72 414.897 189.966 415.827 191.621 417.482C193.277 419.138 194.207 421.383 194.207 423.724C194.207 426.065 193.277 428.311 191.621 429.966C189.966 431.622 187.72 432.552 185.379 432.552Z" fill="#65DDB9"/>
<path fill-rule="evenodd" clip-rule="evenodd" d="M432.552 79.4483H357.517C355.176 79.4483 352.93 78.5183 351.275 76.8628C349.619 75.2073 348.689 72.962 348.689 70.6207C348.689 68.2795 349.619 66.0342 351.275 64.3787C352.93 62.7232 355.176 61.7932 357.517 61.7932H432.552C434.893 61.7932 437.138 60.8631 438.794 59.2076C440.449 57.5521 441.379 55.3068 441.379 52.9656V17.6552C441.379 15.314 442.309 13.0687 443.965 11.4132C445.62 9.75768 447.865 8.82764 450.207 8.82764C452.548 8.82764 454.793 9.75768 456.449 11.4132C458.104 13.0687 459.034 15.314 459.034 17.6552V52.9656C459.034 59.9892 456.244 66.7252 451.278 71.6917C446.311 76.6582 439.575 79.4483 432.552 79.4483ZM450.207 507.586C447.865 507.586 445.62 506.656 443.965 505.001C442.309 503.345 441.379 501.1 441.379 498.759V459.035C441.379 456.693 440.449 454.448 438.794 452.792C437.138 451.137 434.893 450.207 432.552 450.207H379.586C377.245 450.207 374.999 449.277 373.344 447.621C371.688 445.966 370.758 443.721 370.758 441.379C370.758 439.038 371.688 436.793 373.344 435.137C374.999 433.482 377.245 432.552 379.586 432.552H432.552C439.575 432.552 446.311 435.342 451.278 440.308C456.244 445.275 459.034 452.011 459.034 459.035V498.759C459.034 501.1 458.104 503.345 456.449 505.001C454.793 506.656 452.548 507.586 450.207 507.586ZM494.345 459.035C492.003 459.035 489.758 458.104 488.103 456.449C486.447 454.794 485.517 452.548 485.517 450.207V423.724C485.517 421.383 484.587 419.138 482.932 417.482C481.276 415.827 479.031 414.897 476.689 414.897H414.896C412.555 414.897 410.31 413.967 408.654 412.311C406.999 410.656 406.069 408.41 406.069 406.069C406.069 403.728 406.999 401.482 408.654 399.827C410.31 398.171 412.555 397.241 414.896 397.241H476.689C483.713 397.241 490.449 400.032 495.416 404.998C500.382 409.965 503.172 416.701 503.172 423.724V450.207C503.172 452.548 502.242 454.794 500.587 456.449C498.931 458.104 496.686 459.035 494.345 459.035Z" fill="#3B97D3"/>
<path fill-rule="evenodd" clip-rule="evenodd" d="M476.689 114.759H385.765C383.424 114.759 381.179 113.829 379.523 112.173C377.868 110.518 376.938 108.272 376.938 105.931C376.938 103.59 377.868 101.344 379.523 99.689C381.179 98.0335 383.424 97.1035 385.765 97.1035H476.689C479.03 97.1035 481.276 96.1734 482.931 94.5179C484.587 92.8624 485.517 90.6171 485.517 88.2759V56.9379C485.517 54.5967 486.447 52.3514 488.102 50.6959C489.758 49.0404 492.003 48.1104 494.344 48.1104C496.686 48.1104 498.931 49.0404 500.586 50.6959C502.242 52.3514 503.172 54.5967 503.172 56.9379V88.2759C503.172 95.2995 500.382 102.036 495.415 107.002C490.449 111.968 483.713 114.759 476.689 114.759Z" fill="#3B97D3"/>
<path fill-rule="evenodd" clip-rule="evenodd" d="M470.774 306.229C474.67 313.058 476.709 320.789 476.689 328.651C476.683 340.27 472.286 351.457 464.378 359.97C456.471 368.483 445.638 373.693 434.052 374.555C437.847 381.731 439.816 389.738 439.789 397.859C439.796 404.527 438.488 411.131 435.94 417.292C433.391 423.454 429.653 429.052 424.938 433.767C420.223 438.481 414.625 442.22 408.464 444.768C402.302 447.317 395.699 448.625 389.031 448.618C383.669 461.393 374.053 471.919 361.814 478.412C349.575 484.905 335.467 486.964 321.883 484.241C308.299 481.518 296.075 474.18 287.285 463.472C278.494 452.763 273.679 439.344 273.654 425.49V70.1794C273.654 70.1794 273.654 2.91322 361.312 56.938C368.463 61.3518 376.231 66.5601 384.617 72.7394L384.705 72.8277C385.076 72.9336 385.429 73.0925 385.765 73.2691C394.29 76.5674 401.475 82.6078 406.19 90.4389C410.904 98.2699 412.88 107.447 411.806 116.524C411.04 122.976 408.806 129.167 405.274 134.621C405.185 134.709 405.185 134.797 405.097 134.886C413.442 135.219 421.603 137.437 428.969 141.372C436.335 145.307 442.716 150.858 447.632 157.609C452.549 164.36 455.874 172.136 457.36 180.354C458.845 188.572 458.451 197.02 456.209 205.065C462.378 210.47 467.374 217.083 470.889 224.494C474.403 231.905 476.362 239.958 476.643 248.156C476.924 256.354 475.522 264.522 472.524 272.157C469.526 279.792 464.995 286.731 459.21 292.546L459.387 292.723C464.095 296.369 467.976 300.972 470.774 306.229Z" fill="#FF5364"/>
<path fill-rule="evenodd" clip-rule="evenodd" d="M411.806 116.524C411.04 122.976 408.806 129.167 405.274 134.621C391.746 136.36 379.314 142.962 370.298 153.196C361.283 163.43 356.3 176.596 356.281 190.235C356.281 192.576 355.35 194.821 353.695 196.477C352.039 198.132 349.794 199.062 347.453 199.062C345.112 199.062 342.866 198.132 341.211 196.477C339.555 194.821 338.625 192.576 338.625 190.235C338.646 170.783 346.345 152.126 360.05 138.323C373.755 124.519 392.355 116.685 411.806 116.524ZM470.774 306.229C455.329 318.308 436.268 324.838 416.661 324.767C414.32 324.767 412.075 323.837 410.419 322.181C408.764 320.526 407.834 318.281 407.834 315.939C407.834 313.598 408.764 311.353 410.419 309.697C412.075 308.042 414.32 307.112 416.661 307.112C432.102 307.17 447.127 302.11 459.387 292.723C464.095 296.369 467.976 300.972 470.774 306.229ZM385.765 73.269C382.985 72.6314 380.142 72.3057 377.29 72.298C366.828 72.3097 356.799 76.4707 349.401 83.8683C342.004 91.2658 337.843 101.296 337.831 111.757C337.831 114.099 336.901 116.344 335.245 117.999C333.59 119.655 331.344 120.585 329.003 120.585C326.662 120.585 324.417 119.655 322.761 117.999C321.106 116.344 320.176 114.099 320.176 111.757C320.183 99.4005 324.196 87.3791 331.613 77.4955C339.029 67.612 349.45 60.399 361.312 56.938C368.463 61.3518 376.231 66.5601 384.617 72.7394L384.705 72.8276C385.076 72.9336 385.429 73.0925 385.765 73.269ZM401.928 291.01C404.238 291.23 406.541 290.532 408.34 289.066C410.138 287.601 411.288 285.487 411.54 283.18C411.791 280.874 411.125 278.561 409.685 276.742C408.245 274.923 406.146 273.745 403.844 273.461C397.872 272.772 392.204 270.455 387.459 266.764C382.714 263.073 379.074 258.15 376.937 252.531C392.047 248.996 405.52 240.46 415.17 228.308C424.821 216.156 430.084 201.1 430.106 185.582C430.106 183.241 429.176 180.996 427.52 179.34C425.865 177.685 423.619 176.755 421.278 176.755C418.937 176.755 416.691 177.685 415.036 179.34C413.38 180.996 412.45 183.241 412.45 185.582C412.436 195.695 409.427 205.576 403.803 213.981C398.18 222.385 390.193 228.936 380.851 232.808C371.509 236.679 361.23 237.697 351.31 235.734C341.39 233.77 332.273 228.913 325.11 221.776C323.445 220.167 321.216 219.278 318.901 219.298C316.586 219.318 314.372 220.246 312.736 221.883C311.099 223.52 310.171 225.734 310.15 228.048C310.13 230.363 311.02 232.593 312.628 234.258C324.926 246.588 341.469 253.756 358.876 254.296C361.584 264.005 367.127 272.686 374.797 279.226C382.466 285.767 391.913 289.87 401.928 291.01ZM402.855 375.172C399.602 375.196 396.356 375.468 393.144 375.985C393.144 375.579 393.215 375.181 393.215 374.775C393.199 357.754 386.43 341.435 374.396 329.398C362.361 317.361 346.042 310.591 329.021 310.572C326.68 310.572 324.434 311.502 322.779 313.158C321.123 314.813 320.193 317.059 320.193 319.4C320.193 321.741 321.123 323.986 322.779 325.642C324.434 327.297 326.68 328.227 329.021 328.227C341.361 328.241 353.192 333.15 361.917 341.877C370.642 350.604 375.548 362.435 375.56 374.775C375.542 377.07 375.348 379.366 374.986 381.625C364.116 386.865 354.942 395.062 348.515 405.276C342.089 415.49 338.671 427.308 338.652 439.375C338.652 441.717 339.582 443.962 341.237 445.618C342.893 447.273 345.138 448.203 347.479 448.203C349.821 448.203 352.066 447.273 353.721 445.618C355.377 443.962 356.307 441.717 356.307 439.375C356.319 427.034 361.227 415.201 369.953 406.474C378.68 397.747 390.513 392.839 402.855 392.828C405.196 392.828 407.441 391.898 409.097 390.242C410.752 388.587 411.682 386.341 411.682 384C411.682 381.659 410.752 379.413 409.097 377.758C407.441 376.103 405.196 375.172 402.855 375.172ZM301.373 180.966C301.373 183.307 300.443 185.552 298.787 187.208C297.132 188.863 294.887 189.793 292.545 189.793C287.537 189.798 282.734 191.79 279.193 195.331C275.651 198.873 273.659 203.675 273.654 208.684V177.523C279.319 173.985 285.867 172.119 292.545 172.138C294.887 172.138 297.132 173.068 298.787 174.724C300.443 176.379 301.373 178.624 301.373 180.966Z" fill="#DF4D60"/>
<path fill-rule="evenodd" clip-rule="evenodd" d="M333.682 365.55C333.682 367.892 332.752 370.137 331.096 371.792C329.441 373.448 327.196 374.378 324.854 374.378C311.29 374.378 298.281 379.76 288.682 389.343C279.082 398.926 273.678 411.926 273.654 425.49V379.674C280.077 372.442 287.963 366.656 296.789 362.7C305.616 358.743 315.182 356.706 324.854 356.723C327.196 356.723 329.441 357.653 331.096 359.308C332.752 360.964 333.682 363.209 333.682 365.55Z" fill="#DF4D60"/>
<path d="M450.206 35.3103C459.957 35.3103 467.861 27.4059 467.861 17.6552C467.861 7.90449 459.957 0 450.206 0C440.455 0 432.551 7.90449 432.551 17.6552C432.551 27.4059 440.455 35.3103 450.206 35.3103Z" fill="#F0C419"/>
<path d="M494.345 79.4483C504.095 79.4483 512 71.5438 512 61.7931C512 52.0424 504.095 44.1379 494.345 44.1379C484.594 44.1379 476.689 52.0424 476.689 61.7931C476.689 71.5438 484.594 79.4483 494.345 79.4483Z" fill="#F0C419"/>
<path d="M450.206 512C459.957 512 467.861 504.096 467.861 494.345C467.861 484.594 459.957 476.69 450.206 476.69C440.455 476.69 432.551 484.594 432.551 494.345C432.551 504.096 440.455 512 450.206 512Z" fill="#F0C419"/>
<path d="M494.345 467.862C504.095 467.862 512 459.958 512 450.207C512 440.456 504.095 432.552 494.345 432.552C484.594 432.552 476.689 440.456 476.689 450.207C476.689 459.958 484.594 467.862 494.345 467.862Z" fill="#F0C419"/>
</svg>
