<svg width="512" height="512" viewBox="0 0 512 512" fill="none" xmlns="http://www.w3.org/2000/svg">
<path d="M255.999 420.502L285.17 450.387L255.999 483.916H151.07C139.858 483.913 129.105 479.458 121.175 471.531L40.2953 390.681C32.3668 382.756 27.9105 372.007 27.9062 360.797V255.906L58.2823 221.136L91.3433 255.906V333.829L155.457 269.739C161.588 314.703 197.181 350.283 242.162 356.412L178.048 420.503L255.999 420.502Z" fill="#80AAFF"/>
<path d="M420.656 255.906V177.983L356.542 242.073C350.411 197.109 314.818 161.529 269.837 155.4L333.951 91.309H256L219.5 60.698L256 27.896L360.929 27.906C372.14 27.9057 382.893 32.3564 390.824 40.28L471.704 121.13C479.63 129.056 484.082 139.805 484.083 151.014L484.094 255.906L456.671 294.149L420.656 255.906Z" fill="#2EE66B"/>
<path d="M256 91.31H178.048L242.162 155.401C197.182 161.53 161.589 197.11 155.457 242.074L91.3433 177.984V255.906H27.9062V151.015C27.9105 139.805 32.3668 129.056 40.2952 121.131L121.175 40.281C129.105 32.3544 139.858 27.8999 151.07 27.896H256V91.31Z" fill="#FFC34D"/>
<path d="M484.094 255.906V360.797C484.09 372.007 479.633 382.756 471.705 390.681L390.825 471.531C382.895 479.458 372.142 483.912 360.93 483.916H256V420.502H333.952L269.838 356.411C314.818 350.282 350.411 314.702 356.543 269.738L420.657 333.828V255.906H484.094Z" fill="#E62E2E"/>
<path d="M464.674 94.616C490.811 94.616 512 73.4355 512 47.308C512 21.1805 490.811 0 464.674 0C438.536 0 417.348 21.1805 417.348 47.308C417.348 73.4355 438.536 94.616 464.674 94.616Z" fill="#C76E59"/>
<path d="M47.326 94.616C73.4634 94.616 94.652 73.4355 94.652 47.308C94.652 21.1805 73.4634 0 47.326 0C21.1886 0 0 21.1805 0 47.308C0 73.4355 21.1886 94.616 47.326 94.616Z" fill="#FFBDA9"/>
<path d="M464.674 511.812C490.811 511.812 512 490.632 512 464.504C512 438.377 490.811 417.196 464.674 417.196C438.536 417.196 417.348 438.377 417.348 464.504C417.348 490.632 438.536 511.812 464.674 511.812Z" fill="#FFA68C"/>
<path d="M47.326 511.812C73.4634 511.812 94.652 490.632 94.652 464.504C94.652 438.377 73.4634 417.196 47.326 417.196C21.1886 417.196 0 438.377 0 464.504C0 490.632 21.1886 511.812 47.326 511.812Z" fill="#D58678"/>
<path d="M256 144.957L313 254.918L256 366.866C195.83 367.646 144.24 316.065 145 255.907C144.59 201.147 186.55 153.045 240.88 145.977C245.81 145.297 250.91 144.957 256 144.957Z" fill="#2EE66B"/>
<path d="M367 255.906C367.78 316.054 316.18 367.635 256 366.865V144.957C261.09 144.957 266.18 145.297 271.14 145.977C325.44 153.044 367.4 201.136 367 255.906Z" fill="#24B383"/>
<path d="M255.999 247.489L275.23 267.44L255.999 292.713C250.47 297.976 241.083 297.957 235.589 292.613L209.739 268.372C203.699 262.714 203.389 253.218 209.059 247.18C214.729 241.142 224.219 240.832 230.259 246.5L244.829 260.155L255.999 247.489Z" fill="#E6F2F2"/>
<path d="M297.25 246.04L257.11 291.593C256.76 291.993 256.39 292.363 256 292.713V247.49L274.75 226.218C280.22 220.01 289.7 219.41 295.92 224.878C302.13 230.355 302.73 239.832 297.25 246.04Z" fill="#CFE6E6"/>
</svg>
