<svg width="373" height="454" viewBox="0 0 373 454" fill="none" xmlns="http://www.w3.org/2000/svg">
<path d="M314.361 453.614H57.8809C58.1028 425.498 69.4827 398.62 89.5181 378.892C109.554 359.164 136.604 348.201 164.721 348.414H207.521C235.638 348.201 262.688 359.164 282.724 378.892C302.759 398.62 314.139 425.498 314.361 453.614Z" fill="#E2E7F3"/>
<path d="M270.119 453.614H102.119C114.119 417.614 140.479 392.454 171.039 392.454H201.439C231.879 392.454 258.119 417.494 270.119 453.614ZM227.559 355.734C200.602 364.334 171.637 364.334 144.679 355.734V334.814H227.559V355.734Z" fill="#C5D0F3"/>
<path d="M11.3203 225.214C10.7899 225.214 10.2812 225.004 9.90611 224.629C9.53103 224.253 9.32031 223.745 9.32031 223.214V95.4543C9.32031 94.9239 9.53103 94.4152 9.90611 94.0401C10.2812 93.6651 10.7899 93.4543 11.3203 93.4543C11.8507 93.4543 12.3595 93.6651 12.7345 94.0401C13.1096 94.4152 13.3203 94.9239 13.3203 95.4543V223.214C13.3203 223.745 13.1096 224.253 12.7345 224.629C12.3595 225.004 11.8507 225.214 11.3203 225.214Z" fill="#4BD8BD"/>
<path d="M11.3197 106.094C17.196 106.094 21.9597 101.331 21.9597 95.4545C21.9597 89.5781 17.196 84.8145 11.3197 84.8145C5.44338 84.8145 0.679688 89.5781 0.679688 95.4545C0.679688 101.331 5.44338 106.094 11.3197 106.094Z" fill="#83D5FF"/>
<path d="M360.92 225.214C360.389 225.214 359.881 225.004 359.506 224.629C359.131 224.253 358.92 223.745 358.92 223.214V95.4543C358.92 94.9239 359.131 94.4152 359.506 94.0401C359.881 93.6651 360.389 93.4543 360.92 93.4543C361.45 93.4543 361.959 93.6651 362.334 94.0401C362.709 94.4152 362.92 94.9239 362.92 95.4543V223.214C362.92 223.745 362.709 224.253 362.334 224.629C361.959 225.004 361.45 225.214 360.92 225.214Z" fill="#4BD8BD"/>
<path d="M360.919 106.094C366.796 106.094 371.559 101.331 371.559 95.4545C371.559 89.5781 366.796 84.8145 360.919 84.8145C355.043 84.8145 350.279 89.5781 350.279 95.4545C350.279 101.331 355.043 106.094 360.919 106.094Z" fill="#83D5FF"/>
<path d="M314.24 130.894H57.9596C38.4308 130.894 22.5996 146.725 22.5996 166.254V290.094C22.5996 309.623 38.4308 325.454 57.9596 325.454H314.24C333.768 325.454 349.6 309.623 349.6 290.094V166.254C349.6 146.725 333.768 130.894 314.24 130.894Z" fill="#C5D0F3"/>
<path d="M327.362 386.814H194.602C194.071 386.814 193.562 386.604 193.187 386.229C192.812 385.854 192.602 385.345 192.602 384.814C192.612 384.287 192.826 383.784 193.199 383.412C193.572 383.039 194.074 382.825 194.602 382.814H327.362C342.562 382.814 347.642 380.574 347.642 367.054V280.814C347.642 280.284 347.852 279.775 348.227 279.4C348.602 279.025 349.111 278.814 349.642 278.814C350.169 278.825 350.672 279.039 351.044 279.412C351.417 279.784 351.631 280.287 351.642 280.814V367.214C351.642 383.934 343.442 386.814 327.362 386.814Z" fill="#3D47A3"/>
<path d="M208.841 368.974H180.401C172.293 368.974 165.721 375.547 165.721 383.654V386.334C165.721 394.442 172.293 401.014 180.401 401.014H208.841C216.948 401.014 223.521 394.442 223.521 386.334V383.654C223.521 375.547 216.948 368.974 208.841 368.974Z" fill="#3D47A3"/>
<path d="M299.881 158.454H72.3609C57.1841 158.454 44.8809 170.758 44.8809 185.934V320.934C44.8809 336.111 57.1841 348.414 72.3609 348.414H299.881C315.058 348.414 327.361 336.111 327.361 320.934V185.934C327.361 170.758 315.058 158.454 299.881 158.454Z" fill="#E2E7F3"/>
<path d="M140.199 217.254C140.199 221.006 139.086 224.673 137.001 227.792C134.916 230.911 131.953 233.341 128.486 234.775C125.019 236.209 121.205 236.582 117.526 235.847C113.847 235.112 110.468 233.302 107.818 230.647C105.168 227.991 103.366 224.609 102.639 220.929C101.912 217.248 102.293 213.435 103.734 209.971C105.175 206.507 107.612 203.549 110.735 201.47C113.858 199.392 117.528 198.286 121.279 198.294C126.301 198.305 131.113 200.307 134.66 203.862C138.207 207.416 140.199 212.233 140.199 217.254ZM270.119 217.254C270.119 221.004 269.007 224.67 266.924 227.788C264.841 230.906 261.879 233.336 258.415 234.771C254.951 236.206 251.138 236.581 247.46 235.85C243.783 235.118 240.404 233.313 237.753 230.661C235.101 228.009 233.295 224.631 232.564 220.953C231.832 217.275 232.208 213.463 233.643 209.999C235.078 206.534 237.508 203.573 240.626 201.49C243.744 199.406 247.409 198.294 251.159 198.294C256.188 198.294 261.01 200.292 264.566 203.847C268.122 207.403 270.119 212.226 270.119 217.254Z" fill="white"/>
<path d="M270.119 281.334V295.974C270.119 298.096 269.276 300.131 267.776 301.631C266.276 303.131 264.241 303.974 262.119 303.974H242.119V273.334H262.119C264.241 273.334 266.276 274.177 267.776 275.677C269.276 277.178 270.119 279.212 270.119 281.334Z" fill="#FFAB39"/>
<path d="M214.039 273.334H241.999V303.974H214.039V273.334Z" fill="#FFC77C"/>
<path d="M186.119 273.334H214.039V303.974H186.119V273.334Z" fill="#FFAB39"/>
<path d="M158.199 273.334H186.119V303.974H158.199V273.334Z" fill="#FFC77C"/>
<path d="M130.24 273.334H158.2V303.974H130.24V273.334Z" fill="#FFAB39"/>
<path d="M130.119 273.334V303.974H110.119C107.997 303.974 105.963 303.131 104.462 301.631C102.962 300.131 102.119 298.096 102.119 295.974V281.334C102.119 279.212 102.962 277.178 104.462 275.677C105.963 274.177 107.997 273.334 110.119 273.334H130.119Z" fill="#FFC77C"/>
<path d="M349.64 226.814C349.109 226.814 348.6 226.604 348.225 226.228C347.85 225.853 347.64 225.345 347.64 224.814V165.654C347.64 79.7342 275.16 9.85425 186.12 9.85425C97.0796 9.85425 24.5996 79.7342 24.5996 165.854V224.694C24.5996 225.225 24.3889 225.733 24.0138 226.108C23.6387 226.484 23.13 226.694 22.5996 226.694C22.0692 226.694 21.5605 226.484 21.1854 226.108C20.8103 225.733 20.5996 225.225 20.5996 224.694V165.654C20.5996 77.6542 94.8796 5.85425 186.12 5.85425C277.36 5.85425 351.64 77.5342 351.64 165.854V224.694C351.656 224.967 351.616 225.24 351.523 225.497C351.43 225.753 351.285 225.988 351.098 226.187C350.911 226.385 350.685 226.543 350.434 226.651C350.183 226.759 349.913 226.815 349.64 226.814Z" fill="#3D47A3"/>
<path d="M20 204.814H38.68C41.8626 204.814 44.9148 206.079 47.1653 208.329C49.4157 210.579 50.68 213.632 50.68 216.814V276.814C50.68 279.997 49.4157 283.049 47.1653 285.3C44.9148 287.55 41.8626 288.814 38.68 288.814H20C14.6957 288.814 9.60859 286.707 5.85786 282.956C2.10714 279.206 0 274.119 0 268.814V224.814C0 219.51 2.10714 214.423 5.85786 210.672C9.60859 206.921 14.6957 204.814 20 204.814ZM352.24 288.614H333.56C330.377 288.614 327.325 287.35 325.075 285.1C322.824 282.849 321.56 279.797 321.56 276.614V216.614C321.56 213.432 322.824 210.379 325.075 208.129C327.325 205.879 330.377 204.614 333.56 204.614H352.24C357.544 204.614 362.631 206.721 366.382 210.472C370.133 214.223 372.24 219.31 372.24 224.614V268.614C372.24 273.919 370.133 279.006 366.382 282.756C362.631 286.507 357.544 288.614 352.24 288.614Z" fill="#3D47A3"/>
<path d="M22.5996 273.054C22.0724 273.044 21.5696 272.83 21.1967 272.457C20.8238 272.084 20.6098 271.582 20.5996 271.054V222.414C20.5996 221.884 20.8103 221.375 21.1854 221C21.5605 220.625 22.0692 220.414 22.5996 220.414C23.13 220.414 23.6387 220.625 24.0138 221C24.3889 221.375 24.5996 221.884 24.5996 222.414V271.054C24.5996 271.585 24.3889 272.093 24.0138 272.469C23.6387 272.844 23.13 273.054 22.5996 273.054ZM349.64 273.054C349.109 273.054 348.6 272.844 348.225 272.469C347.85 272.093 347.64 271.585 347.64 271.054V222.414C347.64 221.884 347.85 221.375 348.225 221C348.6 220.625 349.109 220.414 349.64 220.414C350.17 220.414 350.679 220.625 351.054 221C351.429 221.375 351.64 221.884 351.64 222.414V271.054C351.629 271.582 351.415 272.084 351.042 272.457C350.67 272.83 350.167 273.044 349.64 273.054Z" fill="#4E91F2"/>
<path d="M88.5605 99.8145H283.681C286.863 99.8145 289.915 101.079 292.166 103.329C294.416 105.58 295.681 108.632 295.681 111.814V130.814H76.5605V111.814C76.5605 108.632 77.8248 105.58 80.0753 103.329C82.3257 101.079 85.3779 99.8145 88.5605 99.8145Z" fill="#E2E7F3"/>
<path d="M264.08 117.334H108.08C107.55 117.334 107.041 117.124 106.666 116.748C106.291 116.373 106.08 115.865 106.08 115.334C106.08 114.804 106.291 114.295 106.666 113.92C107.041 113.545 107.55 113.334 108.08 113.334H264.08C264.61 113.334 265.119 113.545 265.494 113.92C265.869 114.295 266.08 114.804 266.08 115.334C266.08 115.865 265.869 116.373 265.494 116.748C265.119 117.124 264.61 117.334 264.08 117.334Z" fill="#C5D0F3"/>
<path d="M320.321 70.8143C318.718 72.2031 316.63 72.8989 314.515 72.7489C312.4 72.5989 310.431 71.6153 309.041 70.0143C293.623 52.7253 274.666 38.9549 253.457 29.6377C232.248 20.3204 209.283 15.6742 186.121 16.0143C162.949 15.6892 139.978 20.3541 118.769 29.6924C97.5593 39.0306 78.6077 52.8234 63.2007 70.1343C61.8104 71.7353 59.8413 72.7189 57.7262 72.8689C55.6111 73.0189 53.523 72.3231 51.9207 70.9343C50.3197 69.544 49.3361 67.575 49.1861 65.4599C49.0361 63.3448 49.7319 61.2567 51.1207 59.6543C68.0286 40.6121 88.8355 25.4304 112.129 15.1399C135.423 4.84931 160.657 -0.309255 186.121 0.0143341C211.584 -0.309255 236.819 4.84931 260.112 15.1399C283.406 25.4304 304.213 40.6121 321.121 59.6543C322.472 61.25 323.146 63.3115 322.996 65.3974C322.847 67.4834 321.886 69.4278 320.321 70.8143Z" fill="#3D47A3"/>
</svg>
