<svg width="371" height="480" viewBox="0 0 371 480" fill="none" xmlns="http://www.w3.org/2000/svg">
<path fill-rule="evenodd" clip-rule="evenodd" d="M99.5187 362.672C152.331 349.069 167.139 402.229 167.139 402.229L130.932 479.998L107.049 438.897L60.2207 447.079L99.5187 362.672Z" fill="#FE646F"/>
<path fill-rule="evenodd" clip-rule="evenodd" d="M99.5197 362.672C108.206 360.434 115.858 360.012 122.592 360.853C119.329 361.237 116.097 361.845 112.918 362.672L74.8067 444.531L60.2227 447.079L99.5197 362.672ZM136.893 467.198L119.213 436.773L107.05 438.898L130.933 479.999L136.893 467.198Z" fill="#FD4755"/>
<path fill-rule="evenodd" clip-rule="evenodd" d="M271.292 362.672C218.48 349.069 203.672 402.229 203.672 402.229L239.879 479.998L263.763 438.897L310.591 447.079L271.292 362.672Z" fill="#FE646F"/>
<path fill-rule="evenodd" clip-rule="evenodd" d="M271.293 362.672C262.607 360.434 254.955 360.012 248.221 360.853C251.295 361.208 254.516 361.801 257.895 362.672L296.007 444.531L310.591 447.079L271.293 362.672ZM233.92 467.198L251.6 436.773L263.763 438.898L239.879 479.999L233.92 467.198Z" fill="#FD4755"/>
<path fill-rule="evenodd" clip-rule="evenodd" d="M185.406 401.617C192.406 401.617 217.277 427.638 231.592 422.428C245.908 417.217 248.233 381.298 253.598 376.797C258.96 372.298 294.739 376.245 302.355 363.052C309.973 349.857 288.666 320.848 289.882 313.952C291.097 307.058 321.042 287.084 318.397 272.082C315.751 257.078 280.782 248.551 277.281 242.487C273.782 236.425 283.881 201.876 272.211 192.083C260.54 182.29 228.271 198.236 221.69 195.841C215.113 193.447 200.642 160.489 185.407 160.489C170.172 160.489 155.703 193.447 149.122 195.841C142.545 198.234 110.274 182.289 98.6035 192.082C86.9325 201.875 97.0335 236.423 93.5315 242.487C90.0315 248.548 55.0605 257.077 52.4155 272.08C49.7695 287.083 79.7155 307.056 80.9305 313.952C82.1445 320.845 60.8385 349.857 68.4555 363.05C76.0725 376.245 111.849 372.296 117.214 376.798C122.575 381.298 124.902 417.218 139.217 422.428C153.534 427.638 178.403 401.617 185.406 401.617Z" fill="#FFE177"/>
<path fill-rule="evenodd" clip-rule="evenodd" d="M219.943 421.604C224.169 423.135 228.181 423.67 231.593 422.428C245.909 417.217 248.234 381.298 253.599 376.798C258.961 372.299 294.739 376.245 302.356 363.052C309.973 349.857 288.667 320.849 289.882 313.952C291.098 307.059 321.043 287.084 318.397 272.082C315.752 257.077 280.782 248.551 277.281 242.486C273.782 236.424 283.881 201.875 272.211 192.083C267.951 188.508 260.946 188.365 253.448 189.505C255.506 190.008 257.327 190.836 258.813 192.083C270.483 201.875 260.384 236.425 263.883 242.486C267.385 248.551 302.354 257.077 304.999 272.082C307.645 287.084 277.699 307.059 276.484 313.952C275.268 320.849 296.575 349.858 288.957 363.052C281.341 376.245 245.562 372.299 240.2 376.798C235.062 381.108 232.711 414.236 219.943 421.604ZM221.691 195.841C216.508 197.182 212.365 198.059 210.435 197.356C204.833 195.317 191.36 169.589 178.709 162.457C180.91 161.216 183.15 160.488 185.408 160.488C200.643 160.488 215.114 193.447 221.691 195.841ZM137.471 421.604C138.034 421.929 138.615 422.207 139.219 422.427C153.535 427.638 178.404 401.617 185.407 401.617C182.539 399.785 180.211 398.584 178.709 398.584C173.375 398.585 150.977 416.711 137.471 421.604Z" fill="#FFC338"/>
<path d="M202.634 364.267C242.732 354.759 267.53 314.545 258.021 274.447C248.513 234.349 208.299 209.551 168.201 219.06C128.103 228.568 103.306 268.782 112.814 308.88C122.322 348.977 162.536 373.775 202.634 364.267Z" fill="#60B7FF"/>
<path fill-rule="evenodd" clip-rule="evenodd" d="M185.406 217.186C184.025 217.186 182.653 217.227 181.291 217.301C220.586 219.437 251.793 251.974 251.793 291.803C251.793 331.632 220.587 364.169 181.291 366.305C182.654 366.379 184.025 366.42 185.406 366.42C226.616 366.42 260.023 333.013 260.023 291.803C260.023 250.593 226.616 217.186 185.406 217.186Z" fill="#41A8FC"/>
<path fill-rule="evenodd" clip-rule="evenodd" d="M140.792 305.467C135.674 300.349 135.674 292.051 140.792 286.934C145.91 281.816 154.208 281.816 159.325 286.934L170.822 298.431L211.522 257.37C216.612 252.252 224.887 252.229 230.004 257.319C235.122 262.408 235.145 270.684 230.055 275.801C205.031 301.074 205.251 301.11 180.108 326.252C174.99 331.37 166.693 331.37 161.575 326.252L140.792 305.467Z" fill="#ECEFF1"/>
<path fill-rule="evenodd" clip-rule="evenodd" d="M187.608 1.53216L199.009 31.5612C199.168 31.9963 199.454 32.3742 199.829 32.6465C200.203 32.9188 200.651 33.0733 201.114 33.0902L233.196 34.6532C234.201 34.7022 235.028 35.3352 235.339 36.2922C235.65 37.2492 235.352 38.2472 234.568 38.8772L209.532 59.0002C209.167 59.2859 208.896 59.6739 208.753 60.1146C208.61 60.5552 208.601 61.0286 208.728 61.4742L217.155 92.4692C217.419 93.4402 217.073 94.4222 216.259 95.0142C215.445 95.6062 214.404 95.6312 213.562 95.0802L186.688 77.4882C186.304 77.2295 185.851 77.0913 185.387 77.0913C184.924 77.0913 184.471 77.2295 184.086 77.4882L157.212 95.0802C156.811 95.3494 156.336 95.4877 155.853 95.4758C155.37 95.464 154.903 95.3027 154.515 95.0142C154.121 94.7348 153.823 94.3401 153.663 93.8845C153.502 93.4289 153.487 92.9348 153.619 92.4702L162.045 61.4752C162.172 61.0296 162.164 60.5562 162.02 60.1156C161.877 59.6749 161.606 59.2869 161.241 59.0012L136.206 38.8772C135.826 38.5788 135.548 38.17 135.41 37.7071C135.272 37.2442 135.281 36.7499 135.435 36.2922C135.58 35.831 135.863 35.4259 136.247 35.1324C136.631 34.839 137.096 34.6715 137.579 34.6532L169.661 33.0902C170.124 33.0733 170.572 32.9188 170.947 32.6465C171.322 32.3742 171.607 31.9963 171.766 31.5612L183.167 1.53216C183.334 1.07852 183.636 0.687622 184.034 0.413264C184.432 0.138907 184.905 -0.00541936 185.388 0.000155633C186.393 0.000155633 187.251 0.591157 187.608 1.53216Z" fill="#FFE177"/>
<path fill-rule="evenodd" clip-rule="evenodd" d="M186.688 77.4871C186.305 77.24 185.858 77.1107 185.403 77.1152C184.947 77.1196 184.502 77.2576 184.124 77.5121L157.25 95.1041C156.849 95.3734 156.374 95.5116 155.891 95.4998C155.408 95.488 154.941 95.3267 154.553 95.0381C154.159 94.7587 153.861 94.3641 153.701 93.9085C153.541 93.4529 153.525 92.9587 153.657 92.4941L154.91 87.8871L177.441 73.1381C177.826 72.8794 178.279 72.7412 178.742 72.7412C179.206 72.7412 179.659 72.8794 180.043 73.1381L186.688 77.4871ZM228.042 34.4251L233.233 34.6781C233.716 34.6962 234.181 34.8634 234.565 35.1567C234.949 35.45 235.232 35.8551 235.376 36.3161C235.531 36.7738 235.539 37.2681 235.401 37.7311C235.263 38.194 234.985 38.6027 234.605 38.9011L209.569 59.0241C209.205 59.31 208.934 59.698 208.79 60.1386C208.647 60.5792 208.639 61.0525 208.765 61.4981L217.192 92.4931C217.324 92.9577 217.309 93.4519 217.149 93.9075C216.988 94.3631 216.69 94.7577 216.296 95.0371C215.909 95.3257 215.441 95.487 214.958 95.4988C214.475 95.5106 214 95.3723 213.599 95.1031L206.929 90.7371C207.769 91.2791 208.803 91.2511 209.613 90.6631C210.007 90.3835 210.305 89.9887 210.466 89.533C210.626 89.0772 210.641 88.5829 210.509 88.1181L202.082 57.1231C201.955 56.6775 201.964 56.2041 202.107 55.7634C202.25 55.3227 202.521 54.9348 202.886 54.6491L228.042 34.4251ZM187.646 1.55608L199.047 31.5851C199.207 32.0202 199.492 32.3981 199.867 32.6704C200.242 32.9427 200.689 33.0972 201.152 33.1141H199.627L196.064 32.9401C195.601 32.9235 195.153 32.7691 194.778 32.4967C194.404 32.2244 194.118 31.8464 193.959 31.4111L182.915 2.32108L183.206 1.55608C183.373 1.10245 183.676 0.711548 184.073 0.43719C184.471 0.162832 184.944 0.0185064 185.427 0.0240814C186.431 0.0240814 187.289 0.615081 187.646 1.55608Z" fill="#FFC338"/>
<path fill-rule="evenodd" clip-rule="evenodd" d="M322.921 76.9423L334.322 106.971C334.481 107.406 334.767 107.784 335.142 108.057C335.517 108.329 335.964 108.483 336.427 108.5L368.509 110.064C368.992 110.083 369.457 110.25 369.841 110.543C370.224 110.836 370.508 111.241 370.652 111.702C370.807 112.16 370.815 112.654 370.677 113.117C370.539 113.58 370.261 113.989 369.881 114.287L344.845 134.41C344.48 134.696 344.209 135.084 344.066 135.525C343.923 135.965 343.914 136.439 344.041 136.884L352.467 167.879C352.731 168.849 352.385 169.832 351.571 170.424C350.757 171.016 349.716 171.041 348.874 170.49L322 152.898C321.616 152.64 321.163 152.501 320.699 152.501C320.236 152.501 319.783 152.64 319.398 152.898L292.526 170.489C292.125 170.759 291.65 170.897 291.167 170.885C290.684 170.873 290.217 170.712 289.829 170.423C289.435 170.144 289.137 169.749 288.977 169.294C288.816 168.838 288.801 168.344 288.933 167.879L297.359 136.884C297.486 136.439 297.478 135.965 297.335 135.525C297.191 135.084 296.92 134.696 296.555 134.41L271.519 114.288C270.735 113.658 270.437 112.66 270.748 111.703C271.059 110.746 271.887 110.114 272.892 110.065L304.974 108.501C305.437 108.484 305.885 108.33 306.26 108.058C306.635 107.785 306.92 107.407 307.079 106.972L318.48 76.9433C318.647 76.4897 318.95 76.0988 319.347 75.8244C319.745 75.5501 320.218 75.4057 320.701 75.4113C321.184 75.4054 321.657 75.5495 322.055 75.8237C322.452 76.0979 322.755 76.4888 322.921 76.9423Z" fill="#FFE177"/>
<path fill-rule="evenodd" clip-rule="evenodd" d="M363.357 109.835L368.548 110.088C369.031 110.106 369.496 110.274 369.88 110.567C370.263 110.86 370.547 111.265 370.691 111.726C370.845 112.184 370.854 112.679 370.716 113.142C370.578 113.605 370.3 114.014 369.92 114.312L344.884 134.435C344.519 134.721 344.248 135.109 344.105 135.55C343.962 135.99 343.953 136.464 344.08 136.909L352.507 167.904C352.639 168.369 352.624 168.863 352.463 169.319C352.303 169.774 352.005 170.169 351.611 170.448C351.223 170.737 350.756 170.898 350.273 170.91C349.79 170.922 349.315 170.783 348.914 170.514L342.244 166.148C343.084 166.69 344.118 166.662 344.928 166.074C345.322 165.795 345.62 165.4 345.78 164.944C345.941 164.488 345.956 163.994 345.824 163.529L337.397 132.534C337.27 132.089 337.278 131.615 337.422 131.175C337.565 130.734 337.836 130.346 338.201 130.06L363.357 109.835ZM322.003 152.897C321.62 152.65 321.173 152.521 320.717 152.525C320.261 152.53 319.817 152.668 319.439 152.922L292.565 170.514C291.723 171.065 290.682 171.039 289.868 170.448C289.054 169.857 288.708 168.874 288.972 167.904L290.225 163.297L312.756 148.548C313.141 148.29 313.593 148.151 314.057 148.151C314.52 148.151 314.973 148.29 315.358 148.548L322.003 152.897ZM322.96 76.9662L334.361 106.995C334.52 107.43 334.806 107.808 335.18 108.081C335.555 108.353 336.003 108.507 336.466 108.524H334.941L331.378 108.35C330.915 108.333 330.467 108.179 330.092 107.907C329.717 107.634 329.432 107.256 329.273 106.821L318.229 77.7312L318.52 76.9662C318.686 76.5126 318.989 76.1217 319.387 75.8473C319.785 75.573 320.258 75.4287 320.741 75.4342C321.746 75.4342 322.603 76.0252 322.96 76.9662Z" fill="#FFC338"/>
<path fill-rule="evenodd" clip-rule="evenodd" d="M52.2943 76.9423L63.6953 106.971C63.8545 107.406 64.1398 107.784 64.5147 108.057C64.8896 108.329 65.3372 108.483 65.8002 108.5L97.8822 110.064C98.3649 110.083 98.83 110.25 99.2138 110.543C99.5975 110.836 99.881 111.241 100.025 111.702C100.18 112.16 100.188 112.654 100.05 113.117C99.9123 113.58 99.6342 113.989 99.2543 114.287L74.2182 134.41C73.8535 134.696 73.5822 135.084 73.439 135.525C73.2958 135.965 73.2872 136.439 73.4142 136.884L81.8412 167.879C82.1052 168.849 81.7593 169.832 80.9453 170.424C80.1313 171.016 79.0902 171.041 78.2482 170.49L51.3743 152.898C50.9897 152.64 50.5367 152.501 50.0732 152.501C49.6098 152.501 49.1568 152.64 48.7722 152.898L21.8992 170.489C21.4981 170.759 21.0233 170.897 20.5403 170.885C20.0572 170.873 19.5898 170.712 19.2022 170.423C18.8082 170.144 18.5105 169.749 18.35 169.294C18.1895 168.838 18.1743 168.344 18.3062 167.879L26.7322 136.884C26.8596 136.439 26.8511 135.965 26.7078 135.525C26.5646 135.084 26.2932 134.696 25.9283 134.41L0.892249 114.288C0.108249 113.658 -0.189755 112.66 0.121245 111.703C0.432245 110.746 1.26025 110.114 2.26525 110.065L34.3473 108.501C34.8103 108.484 35.2579 108.33 35.6328 108.058C36.0077 107.785 36.293 107.407 36.4522 106.972L47.8532 76.9433C48.0197 76.4897 48.3226 76.0988 48.7203 75.8244C49.1181 75.5501 49.5911 75.4057 50.0742 75.4113C50.5572 75.4054 51.0301 75.5495 51.4277 75.8237C51.8254 76.0979 52.1281 76.4888 52.2943 76.9423Z" fill="#FFE177"/>
<path fill-rule="evenodd" clip-rule="evenodd" d="M51.3741 152.897C50.9911 152.65 50.544 152.521 50.0883 152.525C49.6326 152.53 49.1881 152.668 48.81 152.922L21.936 170.514C21.094 171.065 20.0531 171.039 19.2391 170.448C18.4251 169.857 18.079 168.874 18.343 167.904L19.5961 163.297L42.1271 148.548C42.5116 148.29 42.9646 148.151 43.4281 148.151C43.8915 148.151 44.3445 148.29 44.729 148.548L51.3741 152.897ZM92.729 109.835L97.9201 110.088C98.4027 110.106 98.8679 110.274 99.2517 110.567C99.6355 110.86 99.9189 111.265 100.063 111.726C100.217 112.184 100.226 112.679 100.088 113.142C99.95 113.605 99.6719 114.014 99.2921 114.312L74.2561 134.435C73.8915 134.721 73.6204 135.109 73.4772 135.55C73.334 135.99 73.3253 136.464 73.4521 136.909L81.8781 167.904C82.01 168.369 81.9948 168.863 81.8343 169.319C81.6738 169.774 81.3761 170.169 80.9821 170.448C80.5945 170.737 80.1271 170.898 79.644 170.91C79.161 170.922 78.6862 170.783 78.285 170.514L71.6151 166.148C72.4551 166.69 73.4891 166.662 74.2991 166.074C74.6932 165.795 74.991 165.4 75.1514 164.944C75.3119 164.488 75.3271 163.994 75.1951 163.529L66.7681 132.534C66.6409 132.089 66.6494 131.615 66.7926 131.175C66.9359 130.734 67.2072 130.346 67.5721 130.06L92.729 109.835ZM52.3321 76.9662L63.733 106.995C63.8923 107.43 64.1776 107.808 64.5525 108.081C64.9274 108.353 65.375 108.507 65.8381 108.524H64.313L60.75 108.35C60.287 108.333 59.8394 108.179 59.4645 107.907C59.0896 107.634 58.8043 107.256 58.6451 106.821L47.601 77.7312L47.892 76.9662C48.0585 76.5126 48.3614 76.1217 48.7591 75.8473C49.1569 75.573 49.6299 75.4287 50.1131 75.4342C51.1181 75.4342 51.9751 76.0252 52.3321 76.9662Z" fill="#FFC338"/>
</svg>
