<svg width="498" height="498" viewBox="0 0 498 498" fill="none" xmlns="http://www.w3.org/2000/svg">
<path fill-rule="evenodd" clip-rule="evenodd" d="M438.529 384.333C461.203 352.66 476.226 314.861 480.589 273.358C494.06 145.44 401.281 30.831 273.363 17.3594C222.223 11.9824 173.239 23.5877 131.976 47.5995C130.135 48.6699 127.944 48.9655 125.885 48.4213C123.826 47.8771 122.067 46.5376 120.995 44.6971C118.766 40.8662 120.067 35.946 123.898 33.7163C168.009 8.04598 220.374 -4.36349 275.044 1.38496C411.785 15.7852 510.963 138.298 496.563 275.039C491.943 318.985 476.142 359.044 452.287 392.706L460.015 390.499C462.063 389.916 464.259 390.169 466.121 391.204C467.982 392.239 469.357 393.97 469.942 396.018C471.158 400.28 468.686 404.729 464.424 405.945L433.513 414.768C432.341 415.102 431.109 415.166 429.909 414.953C428.709 414.741 427.573 414.259 426.587 413.542C425.602 412.826 424.792 411.895 424.219 410.819C423.646 409.743 423.326 408.552 423.282 407.334L422.128 375.208C422.052 373.08 422.825 371.009 424.275 369.45C425.726 367.89 427.737 366.971 429.865 366.894C431.993 366.818 434.065 367.591 435.624 369.041C437.183 370.492 438.102 372.503 438.179 374.631L438.529 384.333ZM57.5265 116.298C35.918 147.41 21.6092 184.264 17.3636 224.587C3.89295 352.506 96.6714 467.114 224.59 480.585C275.702 485.962 324.711 474.385 365.972 450.347C367.813 449.275 370.004 448.979 372.063 449.522C374.123 450.065 375.882 451.403 376.955 453.243C378.027 455.084 378.323 457.275 377.78 459.334C377.237 461.394 375.898 463.153 374.058 464.226C329.946 489.925 277.552 502.308 222.908 496.559C86.1663 482.159 -13.0101 359.646 1.38917 222.904C5.90581 180.007 21.0811 140.782 43.9956 107.622L36.0325 109.896C31.7698 111.112 27.3215 108.639 26.1047 104.377C25.521 102.329 25.7744 100.133 26.8092 98.2712C27.844 96.4097 29.5755 95.0351 31.6233 94.4495L62.534 85.626C63.7059 85.2915 64.9385 85.228 66.1385 85.4404C67.3385 85.6528 68.4744 86.1355 69.4603 86.8519C70.4461 87.5683 71.2559 88.4997 71.8285 89.5755C72.4011 90.6512 72.7213 91.8432 72.765 93.0611L73.9195 125.187C74.0791 129.616 70.6116 133.341 66.1823 133.501C64.0538 133.577 61.9824 132.804 60.4232 131.353C58.8639 129.903 57.9445 127.892 57.8668 125.764L57.5265 116.298ZM405.017 300.293V330.325C405.017 331.948 404.525 333.533 403.607 334.871C402.688 336.209 401.385 337.237 399.871 337.82L379.222 345.767C376.225 356.782 371.82 367.358 366.158 377.273L375.13 397.528C375.787 399.011 375.98 400.658 375.683 402.252C375.386 403.846 374.613 405.314 373.467 406.46L345.155 434.771C344.008 435.918 342.541 436.69 340.947 436.988C339.353 437.285 337.706 437.092 336.223 436.435L315.983 427.469C306.078 433.152 295.484 437.541 284.462 440.528L276.516 461.175C275.933 462.69 274.905 463.993 273.566 464.912C272.228 465.831 270.643 466.322 269.02 466.322H228.973C227.35 466.322 225.765 465.83 224.427 464.912C223.089 463.993 222.061 462.69 221.478 461.175L213.533 440.53C202.486 437.534 191.903 433.127 181.985 427.463L161.729 436.435C160.247 437.092 158.6 437.285 157.006 436.988C155.411 436.69 153.944 435.918 152.798 434.771L124.486 406.46C123.338 405.312 122.565 403.843 122.269 402.246C121.972 400.65 122.167 399.001 122.827 397.517L131.825 377.282C126.145 367.376 121.749 356.787 118.742 345.771L98.0819 337.82C96.5672 337.237 95.2648 336.209 94.3461 334.871C93.4275 333.533 92.9358 331.948 92.9358 330.325V300.293C92.9358 298.163 93.7819 296.12 95.2881 294.614C96.7943 293.107 98.8371 292.261 100.967 292.261H396.986C399.116 292.261 401.158 293.107 402.665 294.614C404.171 296.12 405.017 298.163 405.017 300.293ZM171.098 308.324H108.999V324.81L128.372 332.266C129.586 332.734 130.669 333.489 131.526 334.468C132.384 335.446 132.991 336.618 133.295 337.882C136.242 350.12 141.074 361.831 147.684 372.521C148.371 373.633 148.777 374.896 148.866 376.201C148.954 377.506 148.723 378.812 148.192 380.007L139.746 399.003L160.261 419.518L179.261 411.102C180.45 410.576 181.749 410.346 183.046 410.432C184.343 410.518 185.6 410.918 186.709 411.597C197.438 418.17 209.11 423.046 221.388 425.955C222.658 426.257 223.836 426.863 224.82 427.722C225.803 428.581 226.562 429.667 227.032 430.886L234.488 450.259H263.505L270.962 430.886C271.431 429.668 272.189 428.582 273.171 427.724C274.154 426.865 275.331 426.258 276.6 425.956C288.83 423.05 300.533 418.22 311.215 411.614C312.326 410.928 313.587 410.522 314.89 410.433C316.193 410.343 317.498 410.573 318.692 411.102L337.692 419.518L358.213 398.997L349.797 379.997C349.27 378.808 349.04 377.509 349.126 376.212C349.213 374.914 349.613 373.657 350.292 372.549C356.866 361.819 361.743 350.146 364.651 337.906C364.953 336.636 365.56 335.459 366.419 334.477C367.277 333.494 368.363 332.735 369.58 332.266L388.954 324.81V308.324H326.855C326.871 308.974 326.879 309.627 326.879 310.282C326.879 353.312 291.986 388.204 248.956 388.204C205.924 388.204 171.074 353.313 171.074 310.282C171.074 309.627 171.082 308.974 171.098 308.324ZM310.786 308.324H187.167C187.147 308.976 187.137 309.629 187.137 310.282C187.137 344.44 214.797 372.141 248.956 372.141C283.117 372.141 310.816 344.442 310.816 310.282C310.816 309.626 310.806 308.973 310.786 308.324ZM257.509 97.4603L257.517 97.4693C271.788 114.27 286.061 131.09 300.291 147.841C303.221 151.204 303.86 155.701 302 159.779L301.977 159.828C300.123 163.823 296.356 166.272 291.862 166.272H279.914V262.341C279.914 270.199 273.519 276.594 265.662 276.594H232.304C224.455 276.594 218.031 270.192 218.031 262.341V166.272H206.085C201.655 166.272 197.868 163.849 196.001 159.856C194.082 155.776 194.734 151.272 197.591 147.916C211.886 131.089 226.181 114.241 240.477 97.4141C242.698 94.7848 245.617 93.4827 248.973 93.4827C252.42 93.4827 255.337 94.833 257.509 97.4603ZM216.718 150.209H226.063C228.193 150.209 230.236 151.055 231.742 152.562C233.248 154.068 234.094 156.111 234.094 158.241V260.531H263.851V158.241C263.851 156.111 264.698 154.068 266.204 152.562C267.71 151.055 269.753 150.209 271.883 150.209H281.228C270.476 137.549 259.725 124.881 248.973 112.223C238.221 124.881 227.47 137.549 216.718 150.209ZM360.353 59.6486L403.236 110.166C406.098 113.529 406.704 118.031 404.854 122.039C402.986 126.111 399.184 128.528 394.747 128.528H382.799V262.341C382.799 270.192 376.377 276.594 368.527 276.594H335.169C327.319 276.594 320.897 270.192 320.897 262.341V128.528H308.97C304.477 128.528 300.703 126.097 298.842 122.038C296.989 118.025 297.587 113.519 300.498 110.147L343.351 59.6616C345.505 57.1006 348.426 55.7182 351.858 55.7182C355.195 55.7182 358.116 57.0494 360.317 59.6054L360.353 59.6486ZM319.599 112.465H328.929C331.059 112.465 333.102 113.311 334.608 114.817C336.114 116.323 336.96 118.366 336.96 120.496V260.531H366.736V120.496C366.736 118.366 367.583 116.323 369.089 114.817C370.595 113.311 372.638 112.465 374.768 112.465H384.117L351.858 74.4614L319.599 112.465ZM154.603 135.157L197.491 185.662L197.539 185.719C200.365 189.11 200.972 193.495 199.135 197.523C199.128 197.54 199.12 197.556 199.113 197.572C197.262 201.558 193.409 204.037 188.997 204.037H177.049V262.341C177.049 270.199 170.654 276.594 162.797 276.594H129.419C121.562 276.594 115.167 270.199 115.167 262.341V204.037H103.219C98.8057 204.037 94.9537 201.558 93.1034 197.572L93.0803 197.523C91.2432 193.495 91.8505 189.11 94.6766 185.719L94.7248 185.662L137.613 135.157L137.649 135.114C139.851 132.558 142.699 131.227 146.107 131.227C149.446 131.227 152.365 132.558 154.567 135.114L154.603 135.157ZM113.834 187.974H123.198C125.328 187.974 127.371 188.82 128.877 190.326C130.383 191.832 131.229 193.875 131.229 196.005V260.531H160.987V196.005C160.987 193.875 161.833 191.832 163.339 190.326C164.845 188.82 166.888 187.974 169.018 187.974H178.382L146.108 149.968L113.834 187.974Z" fill="white"/>
</svg>
