<svg width="480" height="481" viewBox="0 0 480 481" fill="none" xmlns="http://www.w3.org/2000/svg">
<path d="M240 376.031C227.342 376.031 214.968 372.278 204.444 365.245C193.919 358.213 185.716 348.217 180.872 336.523C176.028 324.829 174.76 311.96 177.23 299.546C179.699 287.131 185.795 275.727 194.745 266.776C203.696 257.826 215.099 251.73 227.514 249.261C239.929 246.792 252.797 248.059 264.492 252.903C276.186 257.747 286.182 265.95 293.214 276.475C300.246 287 304 299.373 304 312.031C303.981 328.999 297.232 345.267 285.234 357.265C273.236 369.263 256.968 376.012 240 376.031ZM240 264.031C230.506 264.031 221.226 266.846 213.333 272.121C205.439 277.395 199.287 284.892 195.654 293.662C192.021 302.433 191.07 312.085 192.922 321.396C194.774 330.707 199.346 339.259 206.059 345.972C212.772 352.685 221.325 357.257 230.636 359.109C239.947 360.961 249.598 360.011 258.369 356.378C267.14 352.744 274.636 346.592 279.911 338.699C285.185 330.805 288 321.525 288 312.031C287.987 299.305 282.926 287.103 273.927 278.104C264.928 269.105 252.726 264.044 240 264.031ZM336 480.031C333.878 480.031 331.843 479.188 330.343 477.688C328.843 476.188 328 474.153 328 472.031V424.031C328 415.887 296.936 400.031 240 400.031C183.064 400.031 152 415.887 152 424.031V472.031C152 474.153 151.157 476.188 149.657 477.688C148.157 479.188 146.122 480.031 144 480.031C141.878 480.031 139.843 479.188 138.343 477.688C136.843 476.188 136 474.153 136 472.031V424.031C136 397.767 188.32 384.031 240 384.031C291.68 384.031 344 397.767 344 424.031V472.031C344 474.153 343.157 476.188 341.657 477.688C340.157 479.188 338.122 480.031 336 480.031ZM376 336.031C363.342 336.031 350.968 332.278 340.444 325.245C329.919 318.213 321.716 308.217 316.872 296.523C312.028 284.829 310.76 271.96 313.23 259.546C315.699 247.131 321.795 235.727 330.745 226.776C339.696 217.826 351.099 211.73 363.514 209.261C375.929 206.792 388.797 208.059 400.492 212.903C412.186 217.747 422.182 225.95 429.214 236.475C436.246 247 440 259.373 440 272.031C439.981 288.999 433.232 305.267 421.234 317.265C409.236 329.263 392.968 336.012 376 336.031ZM376 224.031C366.506 224.031 357.226 226.846 349.333 232.121C341.439 237.395 335.287 244.892 331.654 253.662C328.021 262.433 327.07 272.085 328.922 281.396C330.774 290.707 335.346 299.259 342.059 305.972C348.772 312.685 357.325 317.257 366.636 319.109C375.947 320.961 385.598 320.011 394.369 316.378C403.14 312.745 410.636 306.592 415.911 298.699C421.185 290.805 424 281.525 424 272.031C423.987 259.305 418.926 247.103 409.927 238.104C400.928 229.105 388.726 224.044 376 224.031Z" fill="white"/>
<path d="M472 440.033C469.878 440.033 467.843 439.19 466.343 437.69C464.843 436.19 464 434.155 464 432.033V384.033C464 375.889 432.936 360.033 376 360.033C343.2 360.033 312.8 365.753 296.8 374.961C295.89 375.495 294.883 375.843 293.838 375.986C292.792 376.129 291.729 376.063 290.709 375.794C289.689 375.524 288.733 375.055 287.895 374.414C287.056 373.774 286.353 372.973 285.826 372.06C285.298 371.146 284.957 370.137 284.821 369.091C284.685 368.044 284.757 366.982 285.034 365.963C285.31 364.945 285.785 363.992 286.431 363.158C287.078 362.324 287.883 361.626 288.8 361.105C307.4 350.433 340 344.033 376 344.033C427.68 344.033 480 357.769 480 384.033V432.033C480 434.155 479.157 436.19 477.657 437.69C476.157 439.19 474.122 440.033 472 440.033ZM104 336.033C91.342 336.033 78.9683 332.279 68.4435 325.247C57.9188 318.215 49.7157 308.219 44.8717 296.525C40.0277 284.83 38.7603 271.962 41.2297 259.547C43.6992 247.132 49.7946 235.729 58.7452 226.778C67.6957 217.828 79.0994 211.732 91.5142 209.263C103.929 206.793 116.797 208.061 128.492 212.905C140.186 217.749 150.182 225.952 157.214 236.477C164.246 247.001 168 259.375 168 272.033C167.981 289.001 161.232 305.269 149.234 317.267C137.236 329.265 120.968 336.014 104 336.033ZM104 224.033C94.5065 224.033 85.2262 226.848 77.3326 232.122C69.4391 237.397 63.2868 244.893 59.6538 253.664C56.0208 262.435 55.0702 272.086 56.9223 281.397C58.7744 290.708 63.346 299.261 70.0589 305.974C76.7718 312.687 85.3246 317.259 94.6357 319.111C103.947 320.963 113.598 320.012 122.369 316.379C131.14 312.746 138.636 306.594 143.911 298.7C149.185 290.807 152 281.526 152 272.033C151.987 259.306 146.926 247.105 137.927 238.106C128.928 229.107 116.726 224.046 104 224.033ZM8 440.033C5.87827 440.033 3.84344 439.19 2.34315 437.69C0.842854 436.19 0 434.155 0 432.033V384.033C0 357.769 52.32 344.033 104 344.033C140 344.033 172.6 350.433 191.152 361.105C192.069 361.626 192.874 362.324 193.521 363.158C194.167 363.992 194.642 364.945 194.918 365.963C195.195 366.982 195.267 368.044 195.131 369.091C194.995 370.137 194.654 371.146 194.126 372.06C193.599 372.973 192.896 373.774 192.057 374.414C191.219 375.055 190.263 375.524 189.243 375.794C188.223 376.063 187.16 376.129 186.114 375.986C185.069 375.843 184.062 375.495 183.152 374.961C167.2 365.753 136.84 360.033 104 360.033C47.064 360.033 16 375.889 16 384.033V432.033C16 434.155 15.1571 436.19 13.6569 437.69C12.1566 439.19 10.1217 440.033 8 440.033ZM112.712 200.033C111.087 200.032 109.501 199.536 108.165 198.612C106.829 197.687 105.806 196.377 105.232 194.857C91.7526 159.114 93.0241 119.481 108.767 84.6756C124.509 49.8704 153.433 22.7443 189.176 9.26499C224.919 -4.21438 264.552 -2.94293 299.357 12.7996C334.163 28.5422 361.289 57.4663 374.768 93.209C375.158 94.1957 375.347 95.25 375.325 96.3106C375.303 97.3711 375.071 98.4168 374.641 99.3867C374.212 100.357 373.594 101.231 372.823 101.96C372.052 102.689 371.144 103.257 370.151 103.632C369.159 104.006 368.102 104.179 367.042 104.142C365.981 104.104 364.939 103.855 363.976 103.411C363.013 102.967 362.148 102.335 361.431 101.554C360.714 100.772 360.159 99.855 359.8 98.857C347.819 67.084 323.706 41.372 292.767 27.3773C261.828 13.3826 226.597 12.2516 194.824 24.233C163.051 36.2144 137.339 60.3268 123.344 91.2658C109.35 122.205 108.219 157.436 120.2 189.209C120.571 190.192 120.745 191.239 120.712 192.29C120.678 193.34 120.438 194.374 120.005 195.331C119.572 196.289 118.954 197.152 118.187 197.871C117.42 198.59 116.52 199.15 115.536 199.521C114.633 199.858 113.676 200.032 112.712 200.033Z" fill="white"/>
<path d="M240 240.031C221.013 240.031 202.452 234.401 186.665 223.852C170.878 213.304 158.574 198.311 151.308 180.769C144.042 163.227 142.14 143.925 145.845 125.303C149.549 106.68 158.692 89.5749 172.118 76.149C185.544 62.7232 202.649 53.5801 221.271 49.8759C239.894 46.1717 259.196 48.0728 276.738 55.3389C294.279 62.6049 309.272 74.9094 319.821 90.6966C330.37 106.484 336 125.044 336 144.031C335.973 169.484 325.849 193.886 307.852 211.883C289.854 229.881 265.452 240.004 240 240.031ZM240 64.0313C224.178 64.0313 208.71 68.7232 195.554 77.5137C182.398 86.3042 172.145 98.7985 166.09 113.417C160.035 128.035 158.45 144.12 161.537 159.639C164.624 175.157 172.243 189.412 183.431 200.6C194.62 211.788 208.874 219.407 224.393 222.494C239.911 225.581 255.997 223.997 270.615 217.942C285.233 211.887 297.727 201.633 306.518 188.477C315.308 175.321 320 159.854 320 144.031C319.977 122.821 311.541 102.486 296.543 87.4885C281.545 72.4906 261.21 64.0546 240 64.0313Z" fill="white"/>
<path d="M240 192.031C230.507 192.031 221.226 189.216 213.333 183.942C205.439 178.667 199.287 171.171 195.654 162.4C192.021 153.629 191.07 143.978 192.922 134.667C194.774 125.356 199.346 116.803 206.059 110.09C212.772 103.377 221.325 98.8057 230.636 96.9536C239.947 95.1015 249.598 96.052 258.369 99.6851C267.14 103.318 274.636 109.47 279.911 117.364C285.185 125.257 288 134.538 288 144.031C287.987 156.758 282.926 168.959 273.927 177.958C264.928 186.957 252.727 192.019 240 192.031ZM240 112.031C233.671 112.031 227.484 113.908 222.222 117.424C216.959 120.94 212.858 125.938 210.436 131.785C208.014 137.633 207.38 144.067 208.615 150.274C209.85 156.482 212.897 162.183 217.373 166.659C221.848 171.134 227.55 174.182 233.757 175.416C239.965 176.651 246.399 176.017 252.246 173.595C258.093 171.173 263.091 167.072 266.607 161.81C270.123 156.547 272 150.36 272 144.031C272 135.544 268.629 127.405 262.627 121.404C256.626 115.403 248.487 112.031 240 112.031Z" fill="white"/>
<path d="M448 184.031H381.536C379.471 184.027 377.487 183.225 376 181.791L345.08 152.031H240C237.878 152.031 235.843 151.188 234.343 149.688C232.843 148.188 232 146.153 232 144.031C232 141.91 232.843 139.875 234.343 138.374C235.843 136.874 237.878 136.031 240 136.031H345.08L376 106.271C377.489 104.836 379.476 104.033 381.544 104.031H448C449.595 104.031 451.153 104.508 452.475 105.4C453.797 106.292 454.822 107.559 455.419 109.038C456.016 110.517 456.157 112.14 455.824 113.7C455.492 115.26 454.7 116.684 453.552 117.791L426.304 144.031L453.552 170.271C454.7 171.378 455.492 172.803 455.824 174.362C456.157 175.922 456.016 177.546 455.419 179.025C454.822 180.504 453.797 181.77 452.475 182.663C451.153 183.555 449.595 184.031 448 184.031ZM384.8 168.031H428.16L411.544 152.031H368.152L384.8 168.031ZM368.184 136.031H411.576L428.192 120.031H384.8L368.184 136.031Z" fill="white"/>
</svg>
