<svg width="465" height="440" viewBox="0 0 465 440" fill="none" xmlns="http://www.w3.org/2000/svg">
<path d="M147.063 333.334C162.771 321.303 172.927 302.371 172.927 281.103C172.927 244.835 143.421 215.33 107.154 215.33C70.887 215.33 41.38 244.835 41.38 281.102C41.38 302.393 51.557 321.343 67.293 333.372C29.484 337.645 0 369.807 0 408.741V419.629C0 424.39 0.449001 429.157 1.335 433.8C1.6403 435.4 2.49403 436.843 3.74913 437.882C5.00423 438.92 6.58212 439.488 8.211 439.488H206.449C208.078 439.488 209.656 438.92 210.911 437.882C212.166 436.843 213.02 435.4 213.325 433.8C214.214 429.129 214.661 424.384 214.66 419.629V408.741C214.66 369.703 185.018 337.468 147.063 333.334ZM55.38 281.102C55.38 252.554 78.605 229.329 107.153 229.329C135.701 229.329 158.926 252.555 158.926 281.102C158.926 309.649 135.701 332.874 107.153 332.874C78.605 332.874 55.38 309.65 55.38 281.102ZM200.66 419.629C200.66 421.586 200.567 423.543 200.383 425.487H14.277C14.0921 423.54 13.9997 421.585 14 419.629V408.741C14 374.628 41.752 346.875 75.865 346.875H138.794C172.907 346.875 200.659 374.628 200.659 408.741L200.66 419.629ZM463.998 431.928C463.717 393.141 434.177 361.196 396.402 357.082C412.11 345.051 422.266 326.118 422.266 304.849C422.266 268.582 392.76 239.077 356.493 239.077C320.226 239.077 290.72 268.583 290.72 304.849C290.72 326.14 300.897 345.091 316.633 357.12C278.824 361.393 249.34 393.555 249.34 432.488C249.34 434.344 250.077 436.125 251.39 437.438C252.703 438.75 254.483 439.488 256.34 439.488H457C457.968 439.491 458.926 439.293 459.814 438.906C460.702 438.52 461.5 437.954 462.157 437.243C462.815 436.533 463.318 435.693 463.635 434.778C463.952 433.864 464.075 432.893 463.998 431.928ZM304.721 304.848C304.721 276.3 327.946 253.076 356.494 253.076C385.042 253.076 408.267 276.301 408.267 304.848C408.267 333.395 385.042 356.621 356.494 356.621C327.946 356.621 304.721 333.396 304.721 304.848ZM263.734 425.487C267.223 394.659 293.461 370.622 325.206 370.622H388.135C419.88 370.622 446.118 394.659 449.607 425.487H263.734ZM105.567 51.2539H241.463C243.32 51.2539 245.1 50.5164 246.413 49.2037C247.725 47.8909 248.463 46.1104 248.463 44.2539C248.463 42.3974 247.725 40.6169 246.413 39.3042C245.1 37.9914 243.32 37.2539 241.463 37.2539H105.567C103.71 37.2539 101.93 37.9914 100.617 39.3042C99.3045 40.6169 98.567 42.3974 98.567 44.2539C98.567 46.1104 99.3045 47.8909 100.617 49.2037C101.93 50.5164 103.71 51.2539 105.567 51.2539ZM105.567 77.9799H241.463C243.32 77.9799 245.1 77.2424 246.413 75.9296C247.725 74.6169 248.463 72.8364 248.463 70.9799C248.463 69.1234 247.725 67.3429 246.413 66.0302C245.1 64.7174 243.32 63.9799 241.463 63.9799H105.567C103.71 63.9799 101.93 64.7174 100.617 66.0302C99.3045 67.3429 98.567 69.1234 98.567 70.9799C98.567 72.8364 99.3045 74.6169 100.617 75.9296C101.93 77.2424 103.71 77.9799 105.567 77.9799ZM105.567 104.708H241.463C243.32 104.708 245.1 103.97 246.413 102.658C247.725 101.345 248.463 99.5644 248.463 97.7079C248.463 95.8514 247.725 94.0709 246.413 92.7582C245.1 91.4454 243.32 90.7079 241.463 90.7079H105.567C103.71 90.7079 101.93 91.4454 100.617 92.7582C99.3045 94.0709 98.567 95.8514 98.567 97.7079C98.567 99.5644 99.3045 101.345 100.617 102.658C101.93 103.97 103.71 104.708 105.567 104.708Z" fill="white"/>
<path d="M101.248 144.436L101.267 183.513C101.267 187.192 104.109 190.277 107.779 190.531C107.945 190.543 108.11 190.549 108.273 190.549C111.735 190.549 114.707 188.025 115.19 184.546C115.344 183.583 119.307 161.067 153.635 144.437H166.516V154.624C166.516 170.939 179.79 184.214 196.107 184.214H288.255C322.583 200.845 326.546 223.36 326.69 224.255C326.933 226.012 327.834 227.611 329.211 228.73C330.588 229.848 332.338 230.402 334.107 230.279C335.877 230.157 337.534 229.367 338.743 228.07C339.953 226.773 340.625 225.065 340.624 223.291V184.213H340.643C356.959 184.213 370.234 170.939 370.234 154.623V69.367C370.234 53.051 356.96 39.776 340.643 39.776H275.375V29.591C275.375 13.275 262.101 0 245.784 0H101.248C84.932 0 71.657 13.274 71.657 29.591V114.846C71.657 131.162 84.932 144.436 101.248 144.436ZM336.323 130.483H270.888C273.299 126.633 274.786 122.276 275.23 117.755H336.323C338.179 117.755 339.96 117.017 341.273 115.705C342.585 114.392 343.323 112.612 343.323 110.755C343.323 108.898 342.585 107.118 341.273 105.805C339.96 104.492 338.179 103.755 336.323 103.755H275.374V91.028H336.323C338.179 91.028 339.96 90.2905 341.273 88.9778C342.585 87.665 343.323 85.8845 343.323 84.028C343.323 82.1715 342.585 80.391 341.273 79.0782C339.96 77.7655 338.179 77.028 336.323 77.028H275.374V53.776H340.642C349.239 53.776 356.233 60.77 356.233 69.367V154.623C356.233 163.22 349.239 170.213 340.642 170.213H333.623C331.766 170.213 329.986 170.95 328.673 172.263C327.36 173.576 326.623 175.356 326.623 177.213V195.53C319.509 187.269 308.821 178.38 292.808 170.874C291.878 170.438 290.864 170.213 289.837 170.213H196.107C187.51 170.213 180.516 163.22 180.516 154.623V144.436L336.323 144.483C338.179 144.483 339.96 143.745 341.273 142.433C342.585 141.12 343.323 139.34 343.323 137.483C343.323 135.626 342.585 133.846 341.273 132.533C339.96 131.22 338.179 130.483 336.323 130.483ZM85.657 29.591C85.657 20.994 92.651 14 101.248 14H245.784C254.381 14 261.375 20.994 261.375 29.591V114.846C261.375 123.443 254.381 130.437 245.784 130.437H152.054C151.027 130.437 150.013 130.663 149.083 131.098C133.069 138.604 122.382 147.494 115.268 155.754V137.437C115.268 135.58 114.53 133.8 113.218 132.487C111.905 131.174 110.124 130.437 108.268 130.437H101.249C92.652 130.437 85.658 123.443 85.658 114.846L85.657 29.591Z" fill="white"/>
</svg>
