<svg width="496" height="496" viewBox="0 0 496 496" fill="none" xmlns="http://www.w3.org/2000/svg">
<path d="M367.791 291.38L352.621 192.82C351.253 183.643 346.625 175.266 339.584 169.224C332.542 163.181 323.559 159.879 314.281 159.92H182.721C173.443 159.879 164.46 163.181 157.418 169.224C150.377 175.266 145.749 183.643 144.381 192.82L129.211 291.38C128.36 296.91 128.715 302.557 130.252 307.936C131.788 313.316 134.47 318.299 138.112 322.545C141.755 326.79 146.273 330.198 151.356 332.535C156.439 334.871 161.967 336.08 167.561 336.08H172.161C181.44 336.121 190.423 332.818 197.466 326.776C204.509 320.734 209.14 312.358 210.511 303.18L210.541 302.89L211.971 290.68C213.791 279.15 221.651 272 232.501 272H265.501C276.351 272 284.211 279.15 286.031 290.68L287.461 302.89L287.491 303.18C288.862 312.358 293.493 320.734 300.536 326.776C307.579 332.818 316.562 336.121 325.841 336.08H329.441C335.035 336.08 340.563 334.871 345.646 332.535C350.729 330.198 355.247 326.79 358.89 322.545C362.532 318.299 365.214 313.316 366.75 307.936C368.287 302.557 368.642 296.91 367.791 291.38ZM346.741 312.13C344.602 314.626 341.948 316.628 338.962 318C335.975 319.373 332.727 320.082 329.441 320.08H325.841C320.412 320.105 315.154 318.18 311.023 314.657C306.893 311.134 304.163 306.245 303.331 300.88L301.911 288.67C301.893 288.574 301.879 288.478 301.871 288.38C298.891 269.01 284.271 256 265.501 256H232.501C213.731 256 199.111 269.01 196.131 288.38C196.123 288.478 196.109 288.574 196.091 288.67L194.671 300.88C193.839 306.245 191.109 311.134 186.979 314.657C182.848 318.18 177.59 320.105 172.161 320.08H167.561C164.274 320.081 161.025 319.37 158.038 317.997C155.051 316.623 152.397 314.62 150.256 312.125C148.116 309.63 146.541 306.701 145.639 303.54C144.737 300.378 144.53 297.059 145.031 293.81L160.191 195.25C160.995 189.858 163.715 184.935 167.852 181.385C171.99 177.835 177.269 175.895 182.721 175.92H314.281C319.733 175.895 325.012 177.835 329.15 181.385C333.287 184.935 336.007 189.858 336.811 195.25L351.971 293.81C352.475 297.061 352.269 300.381 351.366 303.544C350.463 306.707 348.885 309.636 346.741 312.13Z" fill="#00E9E2"/>
<path d="M304.5 208C308.918 208 312.5 204.418 312.5 200C312.5 195.582 308.918 192 304.5 192C300.082 192 296.5 195.582 296.5 200C296.5 204.418 300.082 208 304.5 208Z" fill="#00E9E2"/>
<path d="M304.5 240C308.918 240 312.5 236.418 312.5 232C312.5 227.582 308.918 224 304.5 224C300.082 224 296.5 227.582 296.5 232C296.5 236.418 300.082 240 304.5 240Z" fill="#00E9E2"/>
<path d="M320.5 224C324.918 224 328.5 220.418 328.5 216C328.5 211.582 324.918 208 320.5 208C316.082 208 312.5 211.582 312.5 216C312.5 220.418 316.082 224 320.5 224Z" fill="#00E9E2"/>
<path d="M288.5 224C292.918 224 296.5 220.418 296.5 216C296.5 211.582 292.918 208 288.5 208C284.082 208 280.5 211.582 280.5 216C280.5 220.418 284.082 224 288.5 224Z" fill="#00E9E2"/>
<path d="M248.5 88C160.28 88 88.5 159.78 88.5 248C88.5 336.22 160.28 408 248.5 408C336.72 408 408.5 336.22 408.5 248C408.5 159.78 336.72 88 248.5 88ZM248.5 392C169.1 392 104.5 327.4 104.5 248C104.5 168.6 169.1 104 248.5 104C327.9 104 392.5 168.6 392.5 248C392.5 327.4 327.9 392 248.5 392Z" fill="#00E9E2"/>
<path d="M489.11 208.58L460.11 204.5C454.659 177.679 444.097 152.159 429 129.33L447 106.19C448.199 104.651 448.794 102.727 448.673 100.78C448.551 98.8328 447.721 96.9975 446.34 95.62L401.09 50.36C399.726 48.9968 397.915 48.1722 395.991 48.0381C394.068 47.904 392.16 48.4693 390.62 49.63L367.02 67.41C344.264 52.378 318.834 41.8542 292.11 36.41L288.44 7.01C288.199 5.07446 287.258 3.29378 285.796 2.00284C284.334 0.711898 282.451 -0.000363773 280.5 1.3938e-07H216.5C214.571 0.00063178 212.707 0.698227 211.252 1.9643C209.797 3.23038 208.848 4.97967 208.58 6.89L204.41 36.51C177.834 41.9884 152.548 52.4897 129.91 67.45L106.19 49C104.651 47.8006 102.727 47.2056 100.78 47.3272C98.8328 47.4488 96.9975 48.2785 95.62 49.66L50.36 94.91C48.9968 96.2741 48.1722 98.0847 48.0381 100.009C47.904 101.932 48.4693 103.84 49.63 105.38L67.85 129.57C52.9635 152.139 42.5044 177.333 37.03 203.81L7.01 207.56C5.07446 207.801 3.29378 208.742 2.00284 210.204C0.711898 211.666 -0.000363773 213.549 1.3938e-07 215.5V279.5C0.00063178 281.429 0.698227 283.293 1.9643 284.748C3.23038 286.203 4.97967 287.152 6.89 287.42L36.92 291.65C42.3232 318.142 52.7181 343.364 67.55 365.97L49 389.81C47.8006 391.349 47.2056 393.273 47.3272 395.22C47.4488 397.167 48.2785 399.002 49.66 400.38L94.91 445.64C96.2741 447.003 98.0847 447.828 100.009 447.962C101.932 448.096 103.84 447.531 105.38 446.37L129.44 428.24C152.039 443.259 177.298 453.825 203.86 459.37L207.56 488.99C207.801 490.926 208.742 492.706 210.204 493.997C211.666 495.288 213.549 496 215.5 496H279.5C281.429 495.999 283.293 495.302 284.748 494.036C286.203 492.77 287.152 491.02 287.42 489.11L291.56 459.7C318.293 454.323 343.747 443.868 366.54 428.9L389.81 447C391.349 448.199 393.273 448.794 395.22 448.673C397.167 448.551 399.002 447.721 400.38 446.34L445.64 401.09C447.003 399.726 447.828 397.915 447.962 395.991C448.096 394.068 447.531 392.16 446.37 390.62L428.68 367.14C443.843 344.356 454.477 318.865 460 292.06L488.99 288.44C490.926 288.199 492.706 287.258 493.997 285.796C495.288 284.334 496 282.451 496 280.5V216.5C495.999 214.571 495.302 212.707 494.036 211.252C492.77 209.797 491.02 208.848 489.11 208.58ZM480 273.44L452.25 276.91C450.556 277.119 448.973 277.866 447.734 279.042C446.496 280.217 445.667 281.759 445.37 283.44C440.295 311.993 429.002 339.079 412.29 362.78C411.319 364.164 410.811 365.82 410.84 367.511C410.869 369.202 411.432 370.84 412.45 372.19L429.41 394.69L394.06 430.04L371.79 412.72C370.446 411.672 368.802 411.081 367.098 411.034C365.394 410.987 363.72 411.487 362.32 412.46C338.597 428.975 311.542 440.089 283.06 445.02C281.393 445.312 279.862 446.125 278.685 447.341C277.509 448.557 276.747 450.115 276.51 451.79L272.55 480H222.56L219.02 451.64C218.807 449.95 218.061 448.372 216.89 447.135C215.72 445.898 214.185 445.066 212.51 444.76C184.191 439.649 157.329 428.418 133.8 411.85C132.418 410.879 130.763 410.371 129.074 410.4C127.385 410.429 125.748 410.992 124.4 412.01L101.31 429.41L65.96 394.06L83.73 371.22C84.7763 369.875 85.3657 368.231 85.4125 366.528C85.4593 364.824 84.9609 363.15 83.99 361.75C67.6131 338.2 56.5542 311.37 51.58 283.12C51.2845 281.459 50.4716 279.935 49.2575 278.764C48.0434 277.593 46.4903 276.835 44.82 276.6L16 272.55V222.56L44.78 218.97C46.4726 218.756 48.0526 218.007 49.29 216.832C50.5275 215.658 51.3578 214.119 51.66 212.44C56.6934 184.202 67.8143 157.398 84.25 133.89C85.2111 132.505 85.711 130.852 85.6787 129.166C85.6464 127.48 85.0835 125.847 84.07 124.5L66.59 101.31L101.94 65.96L124.68 83.65C126.029 84.6972 127.677 85.2862 129.384 85.3312C131.091 85.3761 132.768 84.8747 134.17 83.9C157.734 67.3819 184.62 56.2083 212.95 51.16C214.608 50.8603 216.129 50.0458 217.298 48.8323C218.466 47.6188 219.223 46.0679 219.46 44.4L223.45 16H273.44L276.96 44.17C277.171 45.8653 277.921 47.4482 279.098 48.6865C280.275 49.9247 281.818 50.7531 283.5 51.05C311.975 56.052 339.008 67.2307 362.7 83.8C364.081 84.7649 365.733 85.2681 367.418 85.2376C369.102 85.207 370.734 84.6443 372.08 83.63L394.69 66.59L430.04 101.94L412.8 124.1C411.748 125.449 411.157 127.099 411.112 128.809C411.067 130.519 411.571 132.198 412.55 133.6C429.209 157.336 440.441 184.447 445.45 213.01C445.742 214.674 446.553 216.204 447.767 217.378C448.982 218.553 450.537 219.313 452.21 219.55L480 223.45V273.44Z" fill="#00E9E2"/>
<path d="M216.5 216C216.5 218.122 215.657 220.157 214.157 221.657C212.657 223.157 210.622 224 208.5 224H200.5V232C200.5 234.122 199.657 236.157 198.157 237.657C196.657 239.157 194.622 240 192.5 240C190.378 240 188.343 239.157 186.843 237.657C185.343 236.157 184.5 234.122 184.5 232V224H176.5C174.378 224 172.343 223.157 170.843 221.657C169.343 220.157 168.5 218.122 168.5 216C168.5 213.878 169.343 211.843 170.843 210.343C172.343 208.843 174.378 208 176.5 208H184.5V200C184.5 197.878 185.343 195.843 186.843 194.343C188.343 192.843 190.378 192 192.5 192C194.622 192 196.657 192.843 198.157 194.343C199.657 195.843 200.5 197.878 200.5 200V208H208.5C210.622 208 212.657 208.843 214.157 210.343C215.657 211.843 216.5 213.878 216.5 216Z" fill="#00E9E2"/>
</svg>
