<svg width="460" height="460" viewBox="0 0 460 460" fill="none" xmlns="http://www.w3.org/2000/svg">
<path fill-rule="evenodd" clip-rule="evenodd" d="M244.246 292.42H215.324C213.929 292.42 212.59 291.866 211.603 290.879C210.617 289.892 210.062 288.554 210.062 287.158C210.062 285.763 210.617 284.425 211.603 283.438C212.59 282.451 213.929 281.897 215.324 281.897H239.599C241.97 271.916 250.967 264.467 261.674 264.467C263.069 264.467 264.408 265.021 265.394 266.008C266.381 266.994 266.935 268.333 266.935 269.728C266.935 271.124 266.381 272.462 265.394 273.449C264.408 274.436 263.069 274.99 261.674 274.99C258.448 274.994 255.355 276.277 253.075 278.559C250.794 280.84 249.511 283.933 249.508 287.158C249.509 287.85 249.373 288.534 249.109 289.173C248.845 289.812 248.458 290.392 247.969 290.881C247.48 291.37 246.9 291.757 246.261 292.021C245.622 292.286 244.938 292.421 244.246 292.42ZM327.266 345.756C326.197 345.756 325.117 345.676 324.03 345.52C301.935 342.301 279.727 306.611 273.685 294.363C273.118 293.118 273.058 291.7 273.518 290.411C273.977 289.122 274.921 288.063 276.148 287.458C277.376 286.853 278.791 286.749 280.093 287.17C281.396 287.59 282.483 288.501 283.125 289.71C290.389 304.444 310.282 332.882 325.548 335.102C329.395 335.663 332.59 334.414 335.596 331.169C342.638 323.566 344.33 300.818 340.129 270.322C336.438 243.514 329.144 217.946 324.653 210.886C318.535 201.272 306.629 196.621 293.575 198.735C282.048 200.607 268.205 208.656 263.968 225.626C263.683 226.765 263.025 227.776 262.1 228.498C261.174 229.22 260.034 229.612 258.86 229.612H201.319C200.145 229.613 199.004 229.222 198.078 228.499C197.152 227.777 196.495 226.765 196.211 225.626C192.012 208.831 178.391 200.793 167.044 198.874C153.919 196.647 141.83 201.274 135.49 210.948C131.389 217.202 124.657 238.795 120.502 264.112C115.843 292.444 116.052 315.189 121.078 326.504C124.332 333.839 128.147 334.76 130.733 334.816H130.979C145.305 334.816 167.938 308.277 176.717 290.554C177.023 289.935 177.448 289.382 177.968 288.928C178.488 288.473 179.092 288.125 179.746 287.904C180.401 287.683 181.092 287.593 181.781 287.64C182.47 287.686 183.143 287.868 183.762 288.174C184.382 288.48 184.936 288.905 185.391 289.425C185.847 289.945 186.195 290.55 186.417 291.205C186.638 291.86 186.728 292.553 186.681 293.242C186.635 293.932 186.452 294.606 186.145 295.225C177.443 312.8 152.41 345.343 130.952 345.343L130.512 345.337C124.716 345.213 116.702 342.591 111.458 330.774C98.1379 300.765 115.798 221.79 126.685 205.175C135.231 192.156 151.754 185.607 168.797 188.495C186.077 191.418 199.701 202.981 205.238 219.086H254.935C260.525 202.816 274.353 191.194 291.892 188.347C309.163 185.545 325.111 192.015 333.532 205.237C339.435 214.521 346.914 242.48 350.558 268.884C353.933 293.356 355.409 325.264 343.315 338.321C338.785 343.223 333.275 345.756 327.266 345.756Z" fill="#00E9E2"/>
<path fill-rule="evenodd" clip-rule="evenodd" d="M197.893 274.99C194.667 274.995 191.575 276.279 189.294 278.56C187.013 280.841 185.73 283.933 185.725 287.159C185.73 290.384 187.013 293.476 189.293 295.757C191.573 298.038 194.665 299.322 197.89 299.327C201.117 299.326 204.211 298.044 206.493 295.763C208.775 293.482 210.058 290.388 210.061 287.162C210.06 283.935 208.778 280.841 206.497 278.559C204.216 276.277 201.12 274.994 197.893 274.99ZM197.893 309.851C185.379 309.851 175.201 299.673 175.201 287.159C175.201 274.648 185.376 264.467 197.893 264.467C210.413 264.467 220.585 274.648 220.585 287.159C220.585 299.67 210.407 309.851 197.893 309.851ZM261.676 274.99C258.449 274.993 255.355 276.275 253.073 278.557C250.791 280.838 249.508 283.932 249.504 287.159C249.508 290.385 250.792 293.478 253.073 295.759C255.354 298.04 258.447 299.323 261.673 299.327C264.898 299.323 267.991 298.04 270.272 295.76C272.553 293.479 273.836 290.387 273.841 287.162C273.838 283.936 272.555 280.843 270.275 278.561C267.994 276.279 264.902 274.995 261.676 274.99ZM261.676 309.851C249.159 309.851 238.981 299.673 238.981 287.159C238.984 274.648 249.159 264.467 261.673 264.467C274.184 264.467 284.356 274.648 284.356 287.159C284.356 299.67 274.175 309.851 261.676 309.851Z" fill="#00E9E2"/>
<path fill-rule="evenodd" clip-rule="evenodd" d="M223.411 292.42H216.555C215.854 292.436 215.156 292.312 214.504 292.055C213.851 291.799 213.256 291.414 212.754 290.924C212.252 290.434 211.854 289.848 211.581 289.202C211.309 288.555 211.169 287.861 211.169 287.159C211.169 286.458 211.309 285.763 211.581 285.117C211.854 284.47 212.252 283.885 212.754 283.395C213.256 282.905 213.851 282.52 214.504 282.263C215.156 282.006 215.854 281.882 216.555 281.899H223.406C224.779 281.931 226.085 282.5 227.045 283.483C228.005 284.466 228.543 285.785 228.543 287.159C228.543 288.533 228.005 289.853 227.045 290.835C226.085 291.818 224.779 292.387 223.406 292.42H223.411ZM158.15 275.037C156.754 275.037 155.415 274.482 154.428 273.496C153.441 272.509 152.886 271.171 152.885 269.775V224.379C152.885 222.984 153.439 221.645 154.426 220.658C155.413 219.672 156.751 219.117 158.147 219.117C159.542 219.117 160.88 219.672 161.867 220.658C162.854 221.645 163.408 222.984 163.408 224.379V269.775C163.409 270.466 163.274 271.151 163.009 271.789C162.745 272.428 162.358 273.008 161.869 273.497C161.38 273.986 160.8 274.373 160.161 274.638C159.522 274.902 158.841 275.037 158.15 275.037Z" fill="#00E9E2"/>
<path fill-rule="evenodd" clip-rule="evenodd" d="M180.847 252.343H135.454C134.089 252.297 132.795 251.723 131.845 250.741C130.896 249.759 130.365 248.447 130.365 247.081C130.365 245.715 130.896 244.403 131.845 243.421C132.795 242.439 134.089 241.865 135.454 241.819H180.847C181.548 241.802 182.245 241.926 182.898 242.183C183.551 242.44 184.146 242.825 184.647 243.315C185.149 243.805 185.548 244.391 185.82 245.037C186.093 245.684 186.233 246.378 186.233 247.079C186.233 247.781 186.093 248.475 185.82 249.122C185.548 249.768 185.149 250.354 184.647 250.844C184.146 251.334 183.551 251.719 182.898 251.976C182.245 252.233 181.548 252.359 180.847 252.343ZM305.99 234.027H298.269C297.578 234.028 296.893 233.892 296.254 233.628C295.616 233.364 295.035 232.976 294.547 232.487C294.058 231.999 293.67 231.418 293.406 230.779C293.142 230.141 293.006 229.456 293.007 228.765C293.006 228.074 293.142 227.389 293.406 226.75C293.67 226.112 294.058 225.531 294.547 225.043C295.035 224.554 295.616 224.166 296.254 223.902C296.893 223.638 297.578 223.502 298.269 223.503H305.99C307.386 223.503 308.724 224.057 309.711 225.044C310.698 226.031 311.252 227.369 311.252 228.765C311.252 230.16 310.698 231.499 309.711 232.486C308.724 233.472 307.386 234.027 305.99 234.027ZM319.172 252.343H311.444C310.07 252.31 308.763 251.741 307.802 250.758C306.842 249.774 306.304 248.454 306.304 247.079C306.304 245.705 306.842 244.385 307.802 243.401C308.763 242.417 310.07 241.849 311.444 241.816H319.172C320.567 241.816 321.905 242.37 322.892 243.357C323.879 244.344 324.433 245.682 324.433 247.078C324.433 248.473 323.879 249.812 322.892 250.799C321.905 251.785 320.567 252.343 319.172 252.343ZM305.99 270.656H298.269C297.578 270.657 296.893 270.521 296.254 270.257C295.616 269.993 295.035 269.605 294.547 269.116C294.058 268.628 293.67 268.047 293.406 267.408C293.142 266.77 293.006 266.085 293.007 265.394C293.006 264.703 293.142 264.018 293.406 263.379C293.67 262.741 294.058 262.16 294.547 261.672C295.035 261.183 295.616 260.795 296.254 260.531C296.893 260.267 297.578 260.131 298.269 260.132H305.99C306.681 260.132 307.366 260.268 308.004 260.532C308.642 260.796 309.222 261.184 309.711 261.673C310.199 262.161 310.587 262.742 310.851 263.38C311.115 264.019 311.25 264.703 311.249 265.394C311.25 266.085 311.115 266.769 310.851 267.408C310.587 268.046 310.199 268.627 309.711 269.115C309.222 269.604 308.642 269.992 308.004 270.256C307.366 270.52 306.681 270.656 305.99 270.656ZM292.815 252.343H285.088C283.714 252.31 282.406 251.741 281.446 250.758C280.485 249.774 279.948 248.454 279.948 247.079C279.948 245.705 280.485 244.385 281.446 243.401C282.406 242.417 283.714 241.849 285.088 241.816H292.815C294.211 241.816 295.549 242.37 296.536 243.357C297.523 244.344 298.077 245.682 298.077 247.078C298.077 248.473 297.523 249.812 296.536 250.799C295.549 251.785 294.211 252.343 292.815 252.343ZM243.342 258.219H216.229C214.864 258.173 213.571 257.599 212.621 256.617C211.672 255.635 211.141 254.323 211.141 252.957C211.141 251.591 211.672 250.279 212.621 249.297C213.571 248.315 214.864 247.741 216.229 247.695H243.345C244.74 247.695 246.079 248.249 247.065 249.236C248.052 250.223 248.606 251.561 248.606 252.957C248.606 254.352 248.052 255.691 247.065 256.678C246.079 257.664 244.737 258.219 243.342 258.219ZM229.783 132.777C213.643 132.777 200.515 145.907 200.515 162.044C200.515 178.181 213.64 191.309 229.783 191.309C245.917 191.309 259.044 178.181 259.044 162.044C259.044 145.907 245.917 132.777 229.783 132.777ZM229.783 201.833C207.844 201.833 189.991 183.983 189.991 162.044C189.991 140.105 207.841 122.256 229.783 122.256C251.728 122.256 269.565 140.105 269.565 162.044C269.568 183.983 251.722 201.833 229.783 201.833Z" fill="#00E9E2"/>
<path fill-rule="evenodd" clip-rule="evenodd" d="M286.202 200.388C285.51 200.39 284.824 200.254 284.185 199.989C283.545 199.725 282.964 199.337 282.475 198.847L280.213 196.574C279.396 195.76 278.869 194.699 278.715 193.556C278.56 192.413 278.786 191.251 279.357 190.249C281.708 186.127 283.531 181.726 284.784 177.15C285.089 176.039 285.75 175.058 286.666 174.359C287.582 173.661 288.702 173.282 289.854 173.282H300.49V150.806H289.857C288.705 150.806 287.585 150.427 286.669 149.728C285.752 149.029 285.092 148.049 284.787 146.938C283.531 142.362 281.705 137.962 279.351 133.842C278.783 132.839 278.558 131.678 278.712 130.535C278.865 129.392 279.388 128.332 280.202 127.514L287.728 119.994L271.833 104.102L264.316 111.623C263.499 112.437 262.437 112.962 261.294 113.115C260.15 113.269 258.988 113.043 257.985 112.473C253.864 110.124 249.466 108.3 244.892 107.043C243.78 106.739 242.798 106.077 242.098 105.161C241.398 104.244 241.019 103.123 241.018 101.97V91.34H218.551V101.97C218.551 104.338 216.956 106.417 214.674 107.043C210.101 108.3 205.703 110.125 201.584 112.476C200.582 113.047 199.419 113.273 198.275 113.12C197.132 112.966 196.07 112.441 195.254 111.626L187.736 104.102L171.841 119.994L179.359 127.511C181.042 129.189 181.385 131.781 180.206 133.839C177.86 137.962 176.037 142.363 174.782 146.938C174.477 148.05 173.814 149.031 172.896 149.73C171.979 150.429 170.857 150.807 169.703 150.806H159.079V173.279H169.715C172.077 173.279 174.159 174.865 174.782 177.15C176.039 181.725 177.864 186.125 180.215 190.246C180.786 191.248 181.011 192.411 180.857 193.554C180.702 194.698 180.176 195.759 179.359 196.574L177.203 198.729C176.27 199.663 175.019 200.212 173.699 200.266C172.38 200.321 171.088 199.876 170.081 199.022C169.074 198.167 168.425 196.965 168.264 195.654C168.103 194.343 168.44 193.02 169.21 191.947C167.906 189.309 166.774 186.589 165.82 183.806H153.818C152.422 183.806 151.083 183.252 150.096 182.265C149.109 181.278 148.554 179.94 148.553 178.544L148.556 145.547C148.556 142.638 150.912 140.285 153.818 140.285H165.82C166.762 137.524 167.876 134.822 169.163 132.203L160.68 123.714C159.692 122.728 159.135 121.39 159.132 119.994C159.132 118.597 159.691 117.259 160.677 116.273L184.007 92.9404C184.495 92.4514 185.076 92.0634 185.715 91.7987C186.354 91.534 187.038 91.3978 187.73 91.3978C188.422 91.3978 189.106 91.534 189.745 91.7987C190.384 92.0634 190.965 92.4514 191.453 92.9404L199.949 101.433C202.565 100.142 205.263 99.0231 208.024 98.0842L208.027 86.0782C208.027 83.1698 210.381 80.8164 213.283 80.8164H246.283C249.189 80.8164 251.542 83.1727 251.542 86.0782V98.0812C254.303 99.0202 256.996 100.142 259.618 101.433L268.116 92.9375C268.604 92.4491 269.184 92.0617 269.821 91.7974C270.459 91.5331 271.143 91.397 271.833 91.397C272.524 91.397 273.208 91.5331 273.846 91.7974C274.483 92.0617 275.063 92.4491 275.551 92.9375L298.893 116.273C299.879 117.259 300.425 118.597 300.425 119.994C300.425 121.387 299.879 122.728 298.89 123.714L290.395 132.206C291.685 134.822 292.807 137.524 293.749 140.282H305.755C308.66 140.282 311.011 142.638 311.011 145.544L311.017 178.541C311.017 181.449 308.654 183.803 305.752 183.803H293.749C292.807 186.581 291.673 189.295 290.377 191.929C290.972 192.708 291.338 193.639 291.432 194.615C291.527 195.591 291.347 196.574 290.913 197.454C290.479 198.333 289.808 199.074 288.976 199.593C288.143 200.111 287.182 200.387 286.202 200.388ZM229.786 132.776C213.643 132.776 200.515 145.907 200.515 162.044C200.515 178.178 213.64 191.309 229.783 191.309C245.917 191.309 259.045 178.181 259.045 162.044C259.045 145.907 245.917 132.779 229.783 132.779L229.786 132.776ZM229.786 201.832C207.841 201.832 189.992 183.983 189.992 162.044C189.992 140.105 207.841 122.255 229.783 122.255C251.728 122.255 269.566 140.105 269.566 162.044C269.569 183.983 251.725 201.832 229.786 201.832Z" fill="#00E9E2"/>
<path fill-rule="evenodd" clip-rule="evenodd" d="M113.138 386.43C139.086 405.801 169.459 418.389 201.502 423.053C204.727 410.666 215.953 401.43 229.164 401.146C235.749 400.984 242.194 403.061 247.445 407.037C252.697 411.013 256.444 416.653 258.074 423.035C290.118 418.372 320.491 405.784 346.439 386.412C339.972 375.383 341.389 360.921 350.513 351.392C355.055 346.621 361.08 343.532 367.605 342.629C374.13 341.726 380.768 343.064 386.434 346.423C405.805 320.474 418.392 290.1 423.054 258.055C410.679 254.837 401.434 243.604 401.15 230.4C400.989 223.812 403.068 217.365 407.047 212.112C411.026 206.86 416.669 203.112 423.054 201.483C418.389 169.44 405.799 139.067 386.428 113.119C375.402 119.583 360.931 118.168 351.402 109.038C346.632 104.499 343.543 98.4754 342.64 91.9527C341.738 85.43 343.075 78.794 346.433 73.1297C320.481 53.7614 290.105 41.1764 258.059 36.5155C254.835 48.8875 243.609 58.1238 230.41 58.4072C223.824 58.5715 217.377 56.4953 212.124 52.5183C206.872 48.5414 203.125 42.8993 201.496 36.5155C169.452 41.179 139.078 53.7672 113.129 73.1386C119.587 84.1671 118.178 98.6327 109.045 108.161C104.506 112.931 98.4823 116.02 91.9597 116.922C85.4371 117.825 78.8013 116.488 73.1368 113.131C53.7586 139.076 41.1669 169.45 36.5049 201.495C48.8947 204.714 58.1339 215.946 58.4085 229.154C58.5731 235.739 56.4977 242.185 52.5219 247.438C48.5461 252.69 42.9054 256.438 36.5226 258.067C41.1878 290.11 53.7759 320.483 73.1457 346.431C84.1743 339.965 98.6399 341.382 108.168 350.512C112.938 355.054 116.026 361.079 116.929 367.603C117.831 374.126 116.495 380.763 113.138 386.43ZM205.878 434.196C205.677 434.196 205.465 434.188 205.258 434.161C167.782 429.694 132.265 414.976 102.614 391.626C102.054 391.18 101.589 390.624 101.249 389.994C100.908 389.363 100.699 388.67 100.633 387.956C100.568 387.241 100.651 386.52 100.875 385.838C101.1 385.156 101.462 384.528 101.938 383.991C105.159 380.385 106.851 375.668 106.655 370.837C106.459 366.006 104.39 361.442 100.887 358.11C93.9125 351.419 82.7806 351.203 75.564 357.616C75.0274 358.092 74.3994 358.452 73.7186 358.677C73.0377 358.901 72.3182 358.984 71.6042 358.92C70.8902 358.856 70.1967 358.648 69.5662 358.307C68.9356 357.966 68.3812 357.5 67.937 356.937C44.5874 327.29 29.873 291.773 25.4143 254.299C25.328 253.587 25.3886 252.864 25.5924 252.176C25.7963 251.488 26.139 250.849 26.5994 250.298C27.0598 249.747 27.6281 249.297 28.2694 248.975C28.9106 248.652 29.6111 248.465 30.3277 248.423C35.1563 248.153 39.69 246.013 42.9691 242.459C46.2483 238.904 48.0154 234.213 47.8966 229.378C47.687 219.702 39.9655 211.682 30.3189 211.124C29.6029 211.081 28.9032 210.892 28.2625 210.57C27.6219 210.247 27.0539 209.797 26.5932 209.247C26.1324 208.698 25.7887 208.06 25.5829 207.373C25.3772 206.685 25.3138 205.964 25.3966 205.251C29.8599 167.774 44.5806 132.256 67.937 102.61C68.3807 102.047 68.9349 101.58 69.5654 101.239C70.196 100.897 70.8897 100.688 71.604 100.625C72.3182 100.561 73.0379 100.644 73.7189 100.869C74.3999 101.093 75.0278 101.455 75.564 101.931C79.1697 105.152 83.8873 106.843 88.718 106.646C93.5487 106.449 98.1132 104.38 101.445 100.877C108.145 93.8965 108.351 82.7764 101.938 75.5598C101.462 75.0232 101.1 74.3948 100.876 73.7133C100.652 73.0318 100.569 72.3116 100.633 71.597C100.697 70.8823 100.907 70.1884 101.249 69.5578C101.591 68.9271 102.059 68.3732 102.623 67.9299C132.271 44.5837 167.784 29.8687 205.255 25.4042C205.968 25.3192 206.69 25.3809 207.378 25.5854C208.066 25.7899 208.705 26.1329 209.255 26.5934C209.805 27.0539 210.256 27.6221 210.578 28.2631C210.901 28.904 211.089 29.6042 211.131 30.3206C211.401 35.1507 213.542 39.6859 217.098 42.9649C220.655 46.244 225.349 48.0092 230.185 47.8866C239.853 47.6799 247.872 39.9643 248.428 30.3235C248.522 28.8737 249.195 27.5273 250.311 26.5942C250.86 26.1337 251.497 25.7906 252.183 25.5859C252.869 25.3812 253.59 25.3194 254.301 25.4042C291.777 29.8641 327.295 44.5795 356.944 67.9299C358.087 68.8275 358.799 70.1533 358.938 71.5972C359.068 73.0441 358.589 74.4762 357.63 75.5598C354.41 79.1658 352.719 83.8829 352.915 88.7131C353.111 93.5434 355.179 98.1079 358.681 101.441C365.661 108.132 376.787 108.347 384.004 101.934C385.084 100.968 386.513 100.496 387.96 100.626C389.413 100.753 390.736 101.473 391.631 102.613C414.987 132.257 429.706 167.775 434.162 205.251C434.339 206.692 433.908 208.139 432.975 209.252C432.514 209.802 431.946 210.251 431.305 210.574C430.665 210.896 429.965 211.085 429.249 211.127C424.418 211.394 419.882 213.532 416.601 217.087C413.32 220.643 411.553 225.336 411.674 230.172C411.887 239.849 419.602 247.868 429.249 248.426C429.965 248.469 430.664 248.658 431.305 248.981C431.945 249.304 432.513 249.754 432.973 250.304C433.433 250.855 433.776 251.493 433.98 252.181C434.185 252.868 434.247 253.59 434.162 254.302C429.697 291.776 414.98 327.292 391.631 356.94C391.188 357.505 390.634 357.972 390.003 358.315C389.373 358.657 388.679 358.866 387.964 358.93C387.249 358.993 386.529 358.91 385.848 358.685C385.167 358.459 384.539 358.097 384.004 357.619C380.396 354.399 375.677 352.709 370.845 352.906C366.014 353.102 361.448 355.171 358.114 358.674C351.429 365.654 351.207 376.774 357.621 383.991C358.099 384.527 358.462 385.155 358.687 385.837C358.913 386.519 358.997 387.24 358.933 387.955C358.869 388.671 358.66 389.366 358.317 389.997C357.975 390.628 357.507 391.183 356.942 391.626C327.29 414.97 291.776 429.684 254.304 434.152C253.591 434.234 252.869 434.169 252.182 433.963C251.495 433.756 250.857 433.412 250.308 432.952C249.758 432.491 249.308 431.923 248.985 431.283C248.661 430.642 248.472 429.943 248.428 429.227C248.152 424.401 246.011 419.871 242.457 416.595C238.903 413.318 234.215 411.552 229.382 411.67C219.712 411.871 211.686 419.589 211.128 429.239C211.056 430.581 210.47 431.844 209.493 432.767C208.516 433.69 207.222 434.203 205.878 434.199V434.196Z" fill="#00E9E2"/>
<path fill-rule="evenodd" clip-rule="evenodd" d="M229.795 10.523C227.271 10.5144 224.772 11.0206 222.45 12.0106C220.128 13.0006 218.033 14.4536 216.292 16.2809C214.588 18.0484 213.252 20.1363 212.361 22.4237C211.47 24.7111 211.042 27.1526 211.101 29.6067C211.148 32.0609 211.681 34.4814 212.669 36.7282C213.657 38.975 215.081 41.0035 216.859 42.6963C218.627 44.3984 220.715 45.7335 223.003 46.6244C225.29 47.5154 227.731 47.9446 230.185 47.8873C232.639 47.8415 235.06 47.3096 237.307 46.3223C239.554 45.335 241.583 43.9119 243.277 42.1353C244.979 40.3667 246.314 38.2785 247.204 35.9913C248.095 33.7041 248.523 31.2632 248.465 28.8095C248.418 26.355 247.884 23.9343 246.896 21.6871C245.908 19.4399 244.484 17.4108 242.707 15.7169C239.239 12.3757 234.608 10.5141 229.792 10.526L229.795 10.523ZM229.768 58.4168C222.239 58.4342 214.998 55.5222 209.577 50.2967C206.799 47.6493 204.574 44.4775 203.029 40.9647C201.484 37.452 200.651 33.6679 200.577 29.8311C200.485 25.9948 201.155 22.1783 202.548 18.6025C203.941 15.0268 206.029 11.7627 208.691 8.99939C211.34 6.22198 214.513 3.99729 218.027 2.45398C221.541 0.910679 225.326 0.0794015 229.163 0.00823372C232.998 -0.0831322 236.814 0.586663 240.389 1.97891C243.964 3.37115 247.228 5.45822 249.992 8.11947C252.768 10.7671 254.992 13.9387 256.534 17.451C258.077 20.9633 258.908 24.7466 258.98 28.5821C259.074 32.4187 258.406 36.2359 257.013 39.812C255.62 43.388 253.53 46.6518 250.866 49.4138C248.146 52.2702 244.873 54.5416 241.245 56.0891C237.617 57.6366 233.712 58.4306 229.768 58.4168ZM87.9619 69.2771C83.0455 69.2771 78.1292 71.2023 74.4677 75.0261C71.0433 78.6064 69.1797 83.3994 69.286 88.3526C69.3923 93.3057 71.4598 98.0143 75.0347 101.444C78.6139 104.867 83.4048 106.73 88.3561 106.624C93.3073 106.519 98.0144 104.453 101.444 100.88C103.148 99.1132 104.484 97.0253 105.374 94.7378C106.265 92.4503 106.693 90.0087 106.632 87.5547C106.589 85.1006 106.059 82.6795 105.072 80.432C104.086 78.1845 102.663 76.1553 100.886 74.4621C97.4098 71.1288 92.7781 69.2706 87.9619 69.2771ZM87.956 117.144C80.6833 117.144 73.3988 114.457 67.7532 109.042C56.1252 97.8982 55.7236 79.3726 66.8673 67.7446C78.014 56.1166 96.5396 55.7239 108.168 66.8647C110.944 69.5123 113.167 72.6839 114.71 76.1962C116.253 79.7085 117.084 83.4918 117.156 87.3273C117.248 91.1634 116.579 94.9798 115.187 98.5556C113.794 102.131 111.707 105.395 109.045 108.159C106.32 111.006 103.047 113.27 99.4218 114.814C95.7969 116.359 91.8962 117.152 87.956 117.144ZM29.2226 211.092C26.6987 211.084 24.1995 211.59 21.8779 212.58C19.5562 213.57 17.4608 215.023 15.7196 216.85C14.0169 218.618 12.6817 220.706 11.7912 222.994C10.9007 225.281 10.4726 227.722 10.5316 230.176C10.5778 232.631 11.1104 235.052 12.0988 237.299C13.0872 239.547 14.5115 241.575 16.2895 243.269C18.0551 244.975 20.1427 246.312 22.4306 247.203C24.7185 248.093 27.1609 248.52 29.6153 248.457C32.069 248.411 34.4893 247.879 36.7362 246.892C38.983 245.904 41.0117 244.481 42.7049 242.705C44.4072 240.936 45.7421 238.848 46.6326 236.561C47.5231 234.274 47.9514 231.833 47.8929 229.379C47.8463 226.924 47.3137 224.504 46.3259 222.256C45.3381 220.009 43.9147 217.98 42.138 216.286C38.67 212.944 34.0386 211.082 29.2226 211.092ZM29.193 258.986C21.665 259.002 14.4258 256.09 9.00502 250.866C6.22775 248.218 4.00271 245.046 2.45845 241.534C0.914183 238.021 0.0813104 234.237 0.0079514 230.4C-0.0817834 226.565 0.588764 222.75 1.98092 219.175C3.37307 215.6 5.45928 212.336 8.11919 209.572C10.7677 206.794 13.9407 204.569 17.4545 203.025C20.9683 201.481 24.7533 200.649 28.5907 200.578C32.4258 200.49 36.2403 201.162 39.8149 202.554C43.3894 203.946 46.6536 206.031 49.4195 208.689C52.198 211.334 54.4234 214.506 55.9663 218.018C57.5093 221.531 58.3391 225.315 58.4077 229.151C58.5025 232.988 57.8344 236.805 56.4419 240.381C55.0495 243.957 52.9606 247.221 50.2964 249.983C47.5768 252.84 44.3027 255.112 40.6745 256.659C37.0463 258.207 33.1404 258.998 29.196 258.983L29.193 258.986ZM74.4707 358.674C67.3427 366.115 67.5908 377.962 75.0347 385.087C78.612 388.512 83.4026 390.378 88.3543 390.274C93.306 390.169 98.014 388.104 101.444 384.532C103.148 382.764 104.483 380.675 105.374 378.387C106.264 376.099 106.692 373.657 106.632 371.203C106.589 368.749 106.059 366.328 105.072 364.08C104.086 361.833 102.663 359.804 100.886 358.11C97.3054 354.687 92.513 352.824 87.5603 352.93C82.6076 353.035 77.8991 355.101 74.4677 358.674H74.4707ZM87.956 400.789C80.6833 400.789 73.3988 398.102 67.7532 392.687C56.1252 381.543 55.7236 363.021 66.8673 351.393C78.014 339.765 96.5396 339.372 108.168 350.513C110.944 353.16 113.167 356.332 114.71 359.844C116.253 363.357 117.084 367.14 117.156 370.975C117.248 374.812 116.578 378.629 115.186 382.205C113.794 385.781 111.706 389.046 109.045 391.81C106.32 394.656 103.046 396.919 99.4211 398.462C95.7962 400.006 91.8957 400.798 87.956 400.789ZM229.795 411.662C229.659 411.662 229.52 411.662 229.381 411.67C226.928 411.715 224.508 412.246 222.261 413.232C220.014 414.218 217.985 415.641 216.292 417.416C214.589 419.185 213.253 421.274 212.362 423.561C211.471 425.849 211.043 428.291 211.101 430.745C211.148 433.199 211.681 435.62 212.669 437.867C213.657 440.113 215.081 442.142 216.859 443.835C218.626 445.539 220.714 446.875 223.001 447.766C225.289 448.656 227.73 449.084 230.185 449.023C232.639 448.977 235.06 448.445 237.308 447.457C239.555 446.47 241.584 445.046 243.277 443.268C244.979 441.501 246.314 439.414 247.204 437.129C248.094 434.843 248.523 432.403 248.465 429.951C248.418 427.497 247.884 425.076 246.896 422.829C245.908 420.581 244.484 418.552 242.707 416.858C239.241 413.514 234.612 411.65 229.795 411.662ZM229.768 459.555C222.239 459.573 214.998 456.661 209.577 451.435C206.8 448.788 204.575 445.616 203.03 442.104C201.486 438.592 200.652 434.809 200.577 430.973C200.486 427.135 201.155 423.318 202.548 419.741C203.941 416.165 206.029 412.9 208.691 410.135C211.341 407.359 214.514 405.135 218.028 403.592C221.541 402.049 225.326 401.218 229.163 401.147C232.998 401.056 236.814 401.726 240.389 403.118C243.964 404.511 247.228 406.597 249.992 409.258C252.768 411.905 254.992 415.077 256.535 418.589C258.078 422.102 258.909 425.885 258.98 429.721C259.075 433.557 258.406 437.374 257.013 440.949C255.62 444.525 253.531 447.788 250.866 450.549C248.221 453.329 245.05 455.556 241.537 457.101C238.024 458.645 234.24 459.477 230.403 459.547L229.768 459.555ZM358.68 385.087C366.115 392.221 377.961 391.967 385.098 384.529C388.52 380.947 390.382 376.155 390.277 371.203C390.171 366.251 388.106 361.542 384.534 358.11C380.954 354.686 376.161 352.821 371.208 352.927C366.254 353.032 361.545 355.098 358.113 358.671C354.691 362.252 352.829 367.044 352.935 371.996C353.041 376.948 355.107 381.656 358.68 385.087ZM371.601 400.789C364.072 400.805 356.831 397.9 351.398 392.687C339.77 381.543 339.378 363.021 350.513 351.393C361.659 339.765 380.185 339.369 391.813 350.513C403.441 361.654 403.834 380.182 392.699 391.81C389.972 394.656 386.697 396.919 383.07 398.462C379.444 400.006 375.542 400.797 371.601 400.789ZM430.364 211.092C427.877 211.094 425.415 211.592 423.122 212.557C420.83 213.521 418.753 214.933 417.012 216.71C415.272 218.487 413.903 220.593 412.986 222.905C412.07 225.218 411.623 227.689 411.673 230.176C411.895 240.475 420.434 248.696 430.748 248.454C433.203 248.409 435.625 247.878 437.873 246.891C440.122 245.905 442.152 244.481 443.846 242.705C445.549 240.936 446.884 238.848 447.774 236.561C448.665 234.274 449.093 231.833 449.034 229.379C448.987 226.925 448.455 224.504 447.467 222.257C446.479 220.009 445.056 217.98 443.279 216.286C439.811 212.945 435.18 211.082 430.364 211.092ZM430.346 258.986C414.525 258.986 401.486 246.289 401.149 230.403C400.813 214.299 413.628 200.92 429.732 200.578C433.567 200.488 437.382 201.159 440.957 202.551C444.532 203.944 447.796 206.029 450.561 208.689C453.337 211.336 455.561 214.508 457.103 218.02C458.646 221.533 459.477 225.316 459.549 229.151C459.645 232.988 458.977 236.805 457.584 240.381C456.192 243.958 454.103 247.221 451.438 249.983C448.719 252.839 445.447 255.11 441.82 256.658C438.193 258.205 434.289 258.999 430.346 258.986ZM371.607 69.2771C366.691 69.2771 361.774 71.2023 358.113 75.0261C354.691 78.6075 352.829 83.4 352.935 88.3525C353.041 93.3049 355.107 98.0131 358.68 101.444C362.261 104.867 367.053 106.73 372.006 106.624C376.958 106.518 381.667 104.453 385.098 100.88C386.8 99.112 388.135 97.0239 389.025 94.7366C389.916 92.4494 390.344 90.0084 390.286 87.5547C390.24 85.1004 389.707 82.6797 388.719 80.4324C387.731 78.1852 386.308 76.156 384.531 74.4621C381.056 71.1275 376.424 69.2691 371.607 69.2771ZM371.598 117.144C364.071 117.157 356.833 114.253 351.401 109.042C339.767 97.8982 339.375 79.3726 350.513 67.7446C361.659 56.1166 380.182 55.7239 391.813 66.8647C394.591 69.5112 396.817 72.6824 398.361 76.1948C399.905 79.7073 400.738 83.4911 400.81 87.3273C400.901 91.1632 400.231 94.9791 398.838 98.5547C397.446 102.13 395.359 105.394 392.699 108.159C389.972 111.006 386.697 113.27 383.07 114.815C379.443 116.359 375.54 117.152 371.598 117.144Z" fill="#00E9E2"/>
</svg>
