<svg width="509" height="424" viewBox="0 0 509 424" fill="none" xmlns="http://www.w3.org/2000/svg">
<path d="M245.65 212.08H265.996V417.244H245.65V212.08Z" stroke="white" stroke-width="13" stroke-miterlimit="10" stroke-linecap="round" stroke-linejoin="round"/>
<path d="M426.473 295.157C443.533 295.157 458.039 281.459 460.633 262.904L473.988 167.263M426.167 324.305V417.243M398.181 158.152L398.908 153.831C402.151 134.573 417.417 120.601 435.216 120.601C457.906 120.601 478.308 140.65 473.99 167.263M389.653 208.801L383.291 246.576L327.986 246.578C314.404 246.578 302.849 257.467 300.758 272.234L285.174 382.28C283.046 397.314 293.61 410.893 307.438 410.893C318.507 410.893 327.938 402.042 329.686 390.013L342.407 302.494C343.022 298.266 346.336 295.157 350.226 295.157H378.695M337.501 178.074H174.144C169.845 178.074 165.722 179.782 162.683 182.822C159.643 185.861 157.936 189.984 157.936 194.282V195.871C157.936 200.17 159.643 204.293 162.683 207.332C165.722 210.372 169.845 212.08 174.144 212.08H337.501C341.799 212.08 345.922 210.372 348.962 207.332C352.001 204.293 353.709 200.17 353.709 195.871V194.282C353.709 189.984 352.001 185.861 348.962 182.822C345.922 179.782 341.799 178.074 337.501 178.074Z" stroke="white" stroke-width="13" stroke-miterlimit="10" stroke-linecap="round" stroke-linejoin="round"/>
<path d="M398.182 158.152L390.487 166.404L350.22 136.537C342.134 130.538 331.158 132.892 325.709 141.79C320.258 150.689 322.396 162.767 330.482 168.764L379.53 205.144C387.2 210.834 397.452 209.789 404.043 202.647L443.914 163.407" stroke="white" stroke-width="13" stroke-miterlimit="10" stroke-linecap="round" stroke-linejoin="round"/>
<path d="M457.326 99.5131C481.962 99.5131 501.933 80.2593 501.933 56.5085C501.933 32.7577 481.962 13.5039 457.326 13.5039C432.69 13.5039 412.719 32.7577 412.719 56.5085C412.719 80.2593 432.69 99.5131 457.326 99.5131Z" stroke="white" stroke-width="13" stroke-miterlimit="10" stroke-linecap="round" stroke-linejoin="round"/>
<path d="M84.2939 295.157C67.2341 295.157 52.7274 281.459 50.1333 262.904L36.7786 167.263C32.4607 140.65 52.8605 120.601 75.5507 120.601C93.3495 120.601 108.616 134.573 111.858 153.831L112.585 158.152M84.6011 324.305V417.243M121.115 208.801L127.478 246.576L182.781 246.578C196.362 246.578 207.918 257.467 210.009 272.234L225.592 382.28C227.72 397.314 217.156 410.893 203.329 410.893C192.259 410.893 182.828 402.042 181.081 390.013L168.361 302.494C167.746 298.266 164.432 295.157 160.543 295.157H132.074M470.463 324.305H381.875C374.12 324.305 367.776 317.961 367.776 310.206V309.256C367.776 301.5 374.12 295.157 381.875 295.157H470.463C478.218 295.157 484.562 301.5 484.562 309.256V310.206C484.562 317.959 478.216 324.305 470.463 324.305Z" stroke="white" stroke-width="13" stroke-miterlimit="10" stroke-linecap="round" stroke-linejoin="round"/>
<path d="M112.585 158.152L120.281 166.404L160.548 136.537C168.634 130.538 179.61 132.892 185.059 141.79C190.51 150.689 188.372 162.767 180.285 168.764L131.238 205.144C123.568 210.834 113.316 209.789 106.725 202.647L66.8535 163.407" stroke="white" stroke-width="13" stroke-miterlimit="10" stroke-linecap="round" stroke-linejoin="round"/>
<path d="M51.6071 93.0092C76.243 93.0092 96.2143 73.7554 96.2143 50.0046C96.2143 26.2538 76.243 7 51.6071 7C26.9713 7 7 26.2538 7 50.0046C7 73.7554 26.9713 93.0092 51.6071 93.0092Z" stroke="white" stroke-width="13" stroke-miterlimit="10" stroke-linecap="round" stroke-linejoin="round"/>
<path d="M151.415 135.866C149.963 133.378 149.201 130.549 149.208 127.668V116.01C149.208 107.477 155.741 100.495 163.727 100.495H184.978C192.964 100.495 199.497 107.477 199.497 116.01V127.668C199.497 135.767 193.612 142.467 186.188 143.129M159.952 76.7619C156.231 72.8741 152.038 67.2729 152.828 61.617C153.743 55.0548 160.612 53.8158 162.467 47.2281C163.713 42.8027 162.812 35.5562 153.038 23.2477M185.76 76.7619C182.039 72.8741 177.846 67.2729 178.636 61.617C179.551 55.0548 186.42 53.8158 188.276 47.2281C189.521 42.8027 188.62 35.5562 178.846 23.2477M356.377 134.882C357.829 132.395 358.591 129.565 358.584 126.685V115.027C358.584 106.494 352.051 99.5118 344.065 99.5118H322.814C314.828 99.5118 308.295 106.494 308.295 115.027V126.685C308.295 134.783 314.18 141.484 321.604 142.146M326.299 75.7789C322.578 71.8911 318.385 66.2898 319.175 60.6339C320.09 54.0718 326.959 52.8328 328.814 46.245C330.06 41.8196 329.159 34.5731 319.385 22.2646M352.107 75.7789C348.386 71.8911 344.193 66.2898 344.983 60.6339C345.898 54.0718 352.767 52.8328 354.623 46.245C355.868 41.8196 354.967 34.5731 345.193 22.2646M40.3058 324.305H128.894C136.649 324.305 142.993 317.962 142.993 310.207V309.256C142.993 301.501 136.649 295.157 128.894 295.157H40.3058C32.5507 295.157 26.207 301.501 26.207 309.256V310.207C26.207 317.96 32.5524 324.305 40.3058 324.305Z" stroke="white" stroke-width="13" stroke-miterlimit="10" stroke-linecap="round" stroke-linejoin="round"/>
</svg>
