<svg width="461" height="461" viewBox="0 0 461 461" fill="none" xmlns="http://www.w3.org/2000/svg">
<path d="M0.000839522 454.349C-0.0130007 455.2 0.14441 456.045 0.463713 456.834C0.783016 457.623 1.25769 458.34 1.85952 458.942C2.46135 459.543 3.17804 460.018 3.96699 460.337C4.75594 460.657 5.60104 460.814 6.45204 460.8H454.35C455.201 460.814 456.046 460.657 456.835 460.337C457.624 460.018 458.34 459.543 458.942 458.942C459.544 458.34 460.019 457.623 460.338 456.834C460.657 456.045 460.815 455.2 460.801 454.349V422.451C460.785 410.161 457.123 398.152 450.278 387.944C443.433 377.736 433.714 369.788 422.35 365.107C429.087 360.074 434.069 353.048 436.588 345.024C439.107 337 439.036 328.387 436.384 320.406C433.732 312.425 428.635 305.482 421.814 300.561C414.994 295.64 406.798 292.992 398.388 292.992C389.978 292.992 381.782 295.64 374.962 300.561C368.141 305.482 363.044 312.425 360.392 320.406C357.74 328.387 357.669 337 360.188 345.024C362.707 353.048 367.689 360.074 374.426 365.107C360.463 370.932 349.092 381.631 342.426 395.213C335.735 381.644 324.346 370.965 310.375 365.159C317.113 360.126 322.095 353.099 324.614 345.075C327.133 337.051 327.061 328.438 324.41 320.457C321.758 312.476 316.66 305.533 309.84 300.612C303.02 295.692 294.824 293.044 286.414 293.044C278.004 293.044 269.807 295.692 262.987 300.612C256.167 305.533 251.07 312.476 248.418 320.457C245.766 328.438 245.695 337.051 248.214 345.075C250.733 353.099 255.714 360.126 262.452 365.159C248.487 370.948 237.098 381.609 230.401 395.162C223.709 381.593 212.321 370.913 198.35 365.107C204.772 360.237 209.573 353.54 212.123 345.894C214.672 338.248 214.852 330.009 212.637 322.26C210.423 314.51 205.918 307.61 199.714 302.465C193.51 297.319 185.896 294.169 177.87 293.427V257.741H419.482C421.18 257.741 422.808 257.067 424.008 255.866C425.208 254.666 425.882 253.038 425.882 251.341V222.72C425.882 221.023 425.208 219.395 424.008 218.195C422.808 216.994 421.18 216.32 419.482 216.32H408.526C408.55 215.996 408.55 215.671 408.526 215.347V6.45141C408.553 4.77624 407.917 3.1581 406.757 1.94967C405.596 0.741252 404.005 0.0405213 402.33 0.000213217H123.649C122.802 -0.00672602 121.963 0.15578 121.18 0.47817C120.397 0.800559 119.686 1.27632 119.09 1.87744C118.493 2.47857 118.023 3.19291 117.707 3.97843C117.391 4.76395 117.235 5.60477 117.249 6.45141V52.5314C108.434 53.3785 100.05 56.7475 93.1006 62.2352C86.1508 67.7229 80.9294 75.0968 78.0611 83.4746C75.1929 91.8524 74.7994 100.879 76.9276 109.475C79.0559 118.071 83.6158 125.871 90.0616 131.943H87.6552C80.665 131.956 73.746 133.347 67.2936 136.036C60.8413 138.725 54.9822 142.659 50.0512 147.614C45.1203 152.569 41.2142 158.447 38.5563 164.912C35.8983 171.377 34.5406 178.303 34.5608 185.293V304.384C30.3935 308.398 27.1508 313.273 25.0582 318.667C22.9657 324.062 22.0735 329.848 22.4439 335.622C22.8142 341.397 24.4381 347.021 27.2027 352.104C29.9672 357.187 33.806 361.607 38.452 365.056C27.084 369.746 17.3627 377.703 10.5181 387.92C3.67356 398.136 0.0134228 410.154 0.000839522 422.451V454.349ZM398.337 305.869C403.724 305.869 408.99 307.467 413.47 310.46C417.949 313.452 421.44 317.707 423.502 322.684C425.563 327.661 426.103 333.138 425.052 338.421C424.001 343.705 421.407 348.558 417.597 352.368C413.788 356.177 408.935 358.771 403.651 359.822C398.367 360.873 392.89 360.334 387.913 358.272C382.936 356.211 378.682 352.72 375.689 348.24C372.696 343.761 371.098 338.495 371.098 333.107C371.098 325.87 373.974 318.929 379.091 313.811C384.209 308.693 391.15 305.818 398.388 305.818L398.337 305.869ZM398.337 373.146C411.423 373.159 423.969 378.364 433.222 387.617C442.476 396.87 447.68 409.416 447.694 422.503V448.103H348.775V422.503C348.795 415.985 350.101 409.536 352.616 403.524C355.132 397.512 358.809 392.055 363.436 387.466C368.064 382.877 373.551 379.245 379.583 376.779C385.616 374.313 392.076 373.061 398.593 373.095L398.337 373.146ZM286.414 305.818C291.801 305.818 297.067 307.415 301.546 310.408C306.026 313.401 309.517 317.655 311.579 322.633C313.64 327.61 314.18 333.086 313.129 338.37C312.078 343.654 309.483 348.507 305.674 352.317C301.865 356.126 297.011 358.72 291.728 359.771C286.444 360.822 280.967 360.283 275.99 358.221C271.013 356.16 266.759 352.668 263.766 348.189C260.773 343.71 259.175 338.443 259.175 333.056C259.189 325.836 262.063 318.916 267.168 313.811C272.273 308.705 279.194 305.831 286.414 305.818ZM286.414 373.095C299.5 373.108 312.046 378.313 321.299 387.566C330.552 396.819 335.757 409.365 335.77 422.451V448.051H236.801V422.451C236.828 415.93 238.141 409.478 240.666 403.465C243.191 397.452 246.879 391.997 251.516 387.411C256.154 382.826 261.65 379.201 267.692 376.744C273.733 374.288 280.199 373.047 286.721 373.095H286.414ZM224.001 422.451V448.051H124.826V422.451C125.24 409.576 130.646 397.366 139.9 388.404C149.154 379.443 161.531 374.432 174.414 374.432C187.296 374.432 199.673 379.443 208.927 388.404C218.181 397.366 223.587 409.576 224.001 422.451ZM201.626 333.056C201.626 338.443 200.029 343.71 197.036 348.189C194.043 352.668 189.789 356.16 184.812 358.221C179.835 360.283 174.358 360.822 169.074 359.771C163.79 358.72 158.937 356.126 155.128 352.317C151.318 348.507 148.724 343.654 147.673 338.37C146.622 333.086 147.161 327.61 149.223 322.633C151.285 317.655 154.776 313.401 159.255 310.408C163.735 307.415 169.001 305.818 174.388 305.818C181.612 305.818 188.54 308.688 193.648 313.796C198.757 318.904 201.626 325.832 201.626 333.056ZM413.082 244.941H178.126V229.12H413.082V244.941ZM395.93 12.8514V215.347C395.907 215.671 395.907 215.996 395.93 216.32H178.126V184.32H219.598C220.583 184.332 221.557 184.117 222.445 183.69C223.333 183.264 224.111 182.639 224.718 181.863L263.732 131.379C265.941 128.601 267.566 125.404 268.507 121.981C269.449 118.558 269.688 114.98 269.21 111.463C268.727 107.944 267.529 104.561 265.688 101.523C263.848 98.485 261.405 95.8562 258.51 93.7986C252.857 89.9264 245.933 88.373 239.168 89.4592C232.403 90.5454 226.314 94.1883 222.158 99.6354L196.25 131.994H153.601C159.802 126.126 164.25 118.652 166.451 110.404C168.653 102.156 168.519 93.4587 166.066 85.2821C163.613 77.1055 158.937 69.771 152.559 64.0966C146.182 58.4222 138.353 54.631 129.946 53.1458V12.8514H395.93ZM88.7304 98.7138C88.7304 92.1013 90.6913 85.6372 94.365 80.1391C98.0387 74.641 103.26 70.3557 109.37 67.8252C115.479 65.2947 122.201 64.6326 128.687 65.9226C135.172 67.2127 141.129 70.3969 145.805 75.0727C150.481 79.7485 153.665 85.7058 154.955 92.1912C156.245 98.6767 155.583 105.399 153.053 111.508C150.522 117.617 146.237 122.839 140.739 126.513C135.241 130.187 128.777 132.147 122.164 132.147C117.752 132.181 113.377 131.341 109.291 129.676C105.205 128.011 101.489 125.554 98.3572 122.446C95.2255 119.338 92.7399 115.641 91.0437 111.568C89.3475 107.495 88.4743 103.126 88.4744 98.7138H88.7304ZM47.7704 185.293C47.7839 174.606 52.032 164.359 59.5842 156.797C67.1365 149.236 77.3776 144.975 88.0648 144.947H199.322C200.305 144.977 201.281 144.775 202.17 144.357C203.06 143.939 203.839 143.317 204.442 142.541L232.244 107.776C234.366 104.988 237.453 103.091 240.899 102.457C244.345 101.822 247.905 102.496 250.881 104.346C252.366 105.406 253.619 106.759 254.562 108.322C255.504 109.884 256.117 111.624 256.361 113.432C256.606 115.241 256.478 117.08 255.984 118.837C255.491 120.594 254.643 122.232 253.492 123.648L216.372 171.674H171.726C170.028 171.674 168.4 172.348 167.2 173.548C166 174.749 165.326 176.376 165.326 178.074V294.093C157.893 295.8 151.104 299.6 145.762 305.043C140.42 310.487 136.748 317.346 135.181 324.81C133.614 332.274 134.217 340.03 136.919 347.162C139.62 354.294 144.308 360.504 150.426 365.056C136.463 370.881 125.092 381.58 118.426 395.162C111.73 381.578 100.319 370.895 86.324 365.107C91.1414 361.53 95.0908 356.914 97.8789 351.601C100.667 346.288 102.222 340.415 102.429 334.419C102.635 328.422 101.488 322.456 99.0723 316.964C96.6565 311.472 93.0341 306.595 88.4744 302.695V189.44C88.4744 187.743 87.8002 186.115 86.5999 184.915C85.3997 183.714 83.7718 183.04 82.0744 183.04C80.3771 183.04 78.7492 183.714 77.549 184.915C76.3487 186.115 75.6744 187.743 75.6744 189.44V295.322C71.42 293.795 66.9336 293.016 62.4136 293.018C57.251 293.023 52.1386 294.031 47.3608 295.987L47.7704 185.293ZM62.8232 305.818C68.2105 305.818 73.4768 307.415 77.9561 310.408C82.4354 313.401 85.9266 317.655 87.9882 322.633C90.0499 327.61 90.5893 333.086 89.5383 338.37C88.4873 343.654 85.8931 348.507 82.0837 352.317C78.2743 356.126 73.4209 358.72 68.1372 359.771C62.8535 360.822 57.3767 360.283 52.3996 358.221C47.4224 356.16 43.1683 352.668 40.1753 348.189C37.1823 343.71 35.5848 338.443 35.5848 333.056C35.5972 325.907 38.415 319.047 43.4321 313.954C48.4492 308.86 55.265 305.939 62.4136 305.818H62.8232ZM12.852 422.451C13.2658 409.576 18.6715 397.366 27.9257 388.404C37.1799 379.443 49.557 374.432 62.4392 374.432C75.3214 374.432 87.6985 379.443 96.9528 388.404C106.207 397.366 111.613 409.576 112.026 422.451V448.051H12.852V422.451Z" fill="white"/>
</svg>
