<svg width="494" height="494" viewBox="0 0 494 494" fill="none" xmlns="http://www.w3.org/2000/svg">
<path d="M49.274 354.688H7C5.14349 354.688 3.36301 355.425 2.05025 356.738C0.737499 358.051 6.44601e-07 359.831 6.44601e-07 361.688V487C-0.000394142 487.92 0.180555 488.831 0.532499 489.681C0.884443 490.53 1.40048 491.303 2.05108 491.953C2.70169 492.603 3.4741 493.119 4.32414 493.47C5.17418 493.821 6.08517 494.002 7.005 494.001C8.46913 493.999 9.89596 493.539 11.0848 492.685C12.2737 491.83 13.1649 490.624 13.633 489.237L55.907 363.925C56.2617 362.872 56.3606 361.75 56.1958 360.651C56.0309 359.552 55.6069 358.508 54.9588 357.606C54.3107 356.703 53.4571 355.968 52.4686 355.461C51.4802 354.953 50.3851 354.688 49.274 354.688ZM14 444.352V368.688H39.525L14 444.352ZM487 354.688H444.726C443.615 354.688 442.519 354.953 441.53 355.46C440.541 355.967 439.687 356.702 439.039 357.605C438.391 358.508 437.967 359.552 437.803 360.651C437.638 361.75 437.738 362.872 438.093 363.925L480.367 489.237C480.899 490.809 481.971 492.141 483.393 492.995C484.816 493.85 486.495 494.171 488.133 493.903C489.77 493.634 491.259 492.793 492.333 491.528C493.408 490.264 493.999 488.659 494 487V361.688C494 359.831 493.262 358.051 491.95 356.738C490.637 355.425 488.857 354.688 487 354.688ZM480 444.352L454.475 368.688H480V444.352ZM394.928 359.67C394.494 358.23 393.608 356.967 392.401 356.07C391.194 355.173 389.729 354.688 388.225 354.688H368.758L340.833 280.722C339.337 276.723 336.985 273.1 333.941 270.106L284.007 214.827V187.233L318.469 221.883C323.531 226.972 330.27 229.785 337.448 229.806H337.524C344.672 229.806 351.398 227.032 356.468 221.989C361.558 216.928 364.371 210.188 364.391 203.011C364.412 195.833 361.635 189.078 356.624 184.04L274.471 99.719C268.29 93.313 259.627 89.317 250.043 89.317C241.536 89.317 236.572 91.978 234.453 93.115L234.165 93.269L234.016 93.349L168.175 130.086C164.261 131.922 160.847 134.674 158.222 138.109C155.597 141.544 153.837 145.56 153.093 149.819L140.837 219.859C138.284 234.477 148.101 248.447 162.719 251C169.803 252.24 176.94 250.642 182.822 246.509C188.704 242.375 192.624 236.199 193.86 229.121L203.84 172.085L216.08 165.656V215.382L131.366 354.688H105.775C104.271 354.688 102.806 355.173 101.599 356.07C100.392 356.967 99.5057 358.23 99.072 359.67L61.347 484.982C61.0329 486.027 60.9675 487.132 61.1561 488.207C61.3448 489.282 61.7822 490.298 62.4334 491.174C63.0846 492.05 63.9316 492.762 64.9068 493.252C65.882 493.743 66.9584 493.999 68.05 493.999H139.301C140.945 493.999 142.536 493.42 143.797 492.365C145.057 491.309 145.905 489.844 146.193 488.225L159.796 411.701C165.191 409.269 169.725 405.263 172.803 400.208L252.601 269.156L287.52 306.714L318.769 389.484C321.477 396.675 326.715 402.179 333.085 405.4L347.807 488.226C348.095 489.845 348.943 491.311 350.203 492.367C351.463 493.423 353.055 494.001 354.699 494.001H425.951C427.043 494.001 428.12 493.746 429.095 493.256C430.071 492.766 430.918 492.054 431.57 491.178C432.221 490.302 432.659 489.285 432.847 488.21C433.035 487.134 432.969 486.029 432.654 484.984L394.928 359.67ZM350.393 202.971C350.393 204.662 350.057 206.336 349.406 207.896C348.754 209.457 347.799 210.872 346.597 212.061C344.159 214.485 340.895 215.782 337.487 215.805C335.796 215.805 334.122 215.47 332.562 214.818C331.002 214.167 329.586 213.212 328.397 212.01L284.008 167.379V129.568L346.648 193.86C347.843 195.056 348.79 196.477 349.433 198.041C350.075 199.604 350.402 201.28 350.393 202.971ZM133.436 480H77.468L110.979 368.688H122.854L122.387 369.457C118.28 376.19 117.039 384.12 118.896 391.785C120.752 399.452 125.483 405.935 132.216 410.043C136.131 412.434 140.553 413.874 145.126 414.246L133.436 480ZM160.849 392.922C159.791 394.666 158.398 396.184 156.75 397.386C155.102 398.589 153.232 399.452 151.248 399.927C147.217 400.905 143.047 400.251 139.506 398.091C135.965 395.931 133.478 392.521 132.501 388.489C132.016 386.506 131.928 384.446 132.244 382.429C132.56 380.412 133.273 378.478 134.342 376.738L220.874 234.442C221.565 235.323 222.278 236.186 223.012 237.031C223.757 237.896 224.607 238.883 225.574 240.065C225.669 240.18 242.697 258.503 242.697 258.503L160.849 392.922ZM300.131 300.482C299.81 299.632 299.327 298.853 298.709 298.188L236.271 231.032C235.275 229.818 234.395 228.796 233.619 227.894C230.081 223.787 230.081 223.787 230.081 216.586V154.071C230.081 152.866 229.77 151.681 229.178 150.631C228.586 149.582 227.733 148.703 226.702 148.079C225.67 147.456 224.495 147.11 223.291 147.074C222.086 147.038 220.893 147.313 219.826 147.874L194.284 161.29C193.336 161.788 192.515 162.497 191.883 163.362C191.252 164.227 190.828 165.225 190.643 166.28L180.069 226.709C179.781 228.381 179.165 229.979 178.256 231.411C177.347 232.843 176.162 234.081 174.772 235.053C173.387 236.032 171.821 236.727 170.165 237.097C168.51 237.467 166.797 237.504 165.127 237.208C158.113 235.983 153.403 229.28 154.628 222.27L166.884 152.23C167.246 150.161 168.107 148.211 169.392 146.55C170.678 144.889 172.349 143.566 174.261 142.696C174.433 142.617 174.602 142.532 174.767 142.44L240.785 105.604L241.07 105.453C242.559 104.653 245.053 103.316 250.044 103.316C255.515 103.316 260.477 105.531 264.086 109.108L264.08 109.114L264.426 109.469C267.874 113.059 270.008 117.92 270.008 123.279V217.519C270.008 219.252 270.652 220.924 271.814 222.211L323.699 279.65C323.803 279.764 323.91 279.876 324.02 279.983C325.664 281.576 326.933 283.515 327.734 285.66L360.938 373.609C361.661 375.515 361.999 377.546 361.933 379.584C361.866 381.622 361.396 383.627 360.549 385.482C359.713 387.343 358.515 389.019 357.027 390.414C355.538 391.809 353.787 392.895 351.876 393.609C343.862 396.628 334.889 392.563 331.868 384.543L300.131 300.482ZM360.563 480L347.866 408.57C350.926 408.42 353.943 407.793 356.809 406.712C364.191 403.933 370.047 398.444 373.301 391.259C376.553 384.079 376.816 376.065 374.043 368.688H383.021L416.532 480H360.563ZM281.886 361.257C281.776 359.479 280.993 357.809 279.694 356.588C278.396 355.368 276.682 354.688 274.9 354.688H219.1C217.318 354.688 215.604 355.368 214.306 356.588C213.007 357.809 212.224 359.479 212.114 361.257L204.388 486.569C204.329 487.523 204.465 488.479 204.79 489.378C205.114 490.277 205.619 491.1 206.274 491.796C206.929 492.492 207.719 493.047 208.596 493.426C209.474 493.805 210.419 494 211.375 494H282.627C283.583 494 284.528 493.804 285.405 493.425C286.282 493.046 287.072 492.491 287.727 491.795C288.381 491.099 288.886 490.276 289.211 489.377C289.536 488.478 289.673 487.523 289.614 486.569L281.886 361.257ZM218.819 480L225.681 368.688H268.317L275.181 480H218.819ZM260.482 79.83C282.491 79.83 300.397 61.924 300.397 39.915C300.397 17.906 282.491 0 260.482 0C238.473 0 220.568 17.906 220.568 39.915C220.568 61.924 238.474 79.83 260.482 79.83ZM260.482 14C274.772 14 286.397 25.625 286.397 39.915C286.397 54.205 274.772 65.83 260.482 65.83C246.193 65.83 234.568 54.205 234.568 39.915C234.568 25.625 246.193 14 260.482 14Z" fill="white"/>
</svg>
